<?xml version="1.0" standalone="no"?>
 <!DOCTYPE svg PUBLIC "-//W3C//DTD SVG 1.1//EN" 
 "http://www.w3.org/Graphics/SVG/1.1/DTD/svg11.dtd"> 
<svg
  xmlns:svg="http://www.w3.org/2000/svg"
  xmlns="http://www.w3.org/2000/svg"
  xmlns:xlink="http://www.w3.org/1999/xlink"
  version="1.1"
  width="61.4426mm" height="35.9918mm" viewBox="0.0000 0.0000 61.4426 35.9918">
<title>SVG Image created as hdsp-7501.svg date 2024/01/16 15:18:31 </title>
  <desc>Image generated by Eeschema-SVG </desc>
<g style="fill:#000000; fill-opacity:1.0000;stroke:#000000; stroke-opacity:1.0000;
stroke-linecap:round; stroke-linejoin:round;"
 transform="translate(0 0) scale(1 1)">
</g>
<g style="fill:#000000; fill-opacity:0.0; 
stroke:#000000; stroke-width:0.0000; stroke-opacity:1; 
stroke-linecap:round; stroke-linejoin:round;">
</g>
<g style="fill:#000000; fill-opacity:0.0; 
stroke:#000000; stroke-width:0.2540; stroke-opacity:1; 
stroke-linecap:round; stroke-linejoin:round;">
<rect x="25.641300" y="5.295900" width="10.160000" height="25.400000" rx="0.000000" />
</g>
<g style="fill:#000000; fill-opacity:0.0; 
stroke:#000000; stroke-width:0.5080; stroke-opacity:1; 
stroke-linecap:round; stroke-linejoin:round;">
<path style="fill:#000000; fill-opacity:0.0; 
stroke:#000000; stroke-width:0.5080; stroke-opacity:1; 
stroke-linecap:round; stroke-linejoin:round;fill:none"
d="M 29.1973,18.3769
28.9433,20.4089
" /> 
<path style="fill:#000000; fill-opacity:0.0; 
stroke:#000000; stroke-width:0.5080; stroke-opacity:1; 
stroke-linecap:round; stroke-linejoin:round;fill:none"
d="M 29.4513,20.9169
31.4833,20.9169
" /> 
<path style="fill:#000000; fill-opacity:0.0; 
stroke:#000000; stroke-width:0.5080; stroke-opacity:1; 
stroke-linecap:round; stroke-linejoin:round;fill:none"
d="M 29.4513,15.3289
29.1973,17.3609
" /> 
<path style="fill:#000000; fill-opacity:0.0; 
stroke:#000000; stroke-width:0.5080; stroke-opacity:1; 
stroke-linecap:round; stroke-linejoin:round;fill:none"
d="M 29.7053,17.8689
31.7373,17.8689
" /> 
<path style="fill:#000000; fill-opacity:0.0; 
stroke:#000000; stroke-width:0.5080; stroke-opacity:1; 
stroke-linecap:round; stroke-linejoin:round;fill:none"
d="M 29.9593,14.8209
31.9913,14.8209
" /> 
<path style="fill:#000000; fill-opacity:0.0; 
stroke:#000000; stroke-width:0.5080; stroke-opacity:1; 
stroke-linecap:round; stroke-linejoin:round;fill:none"
d="M 32.2453,18.3769
31.9913,20.4089
" /> 
<path style="fill:#000000; fill-opacity:0.0; 
stroke:#000000; stroke-width:0.5080; stroke-opacity:1; 
stroke-linecap:round; stroke-linejoin:round;fill:none"
d="M 32.4993,15.3289
32.2453,17.3609
" /> 
<path style="fill:#000000; fill-opacity:0.0; 
stroke:#000000; stroke-width:0.5080; stroke-opacity:1; 
stroke-linecap:round; stroke-linejoin:round;fill:none"
d="M 33.2613,20.9169
Z" /> 
</g>
<g style="fill:#000000; fill-opacity:0.0; 
stroke:#000000; stroke-width:0.0635; stroke-opacity:1; 
stroke-linecap:round; stroke-linejoin:round;">
<text x="30.9753" y="15.8370"
textLength="0.5244" font-size="0.6773" lengthAdjust="spacingAndGlyphs"
text-anchor="middle" opacity="0">A</text>
<g class="stroked-text"><desc>A</desc>
<path d="M30.8543 15.6695
L31.0962 15.6695
" />
<path d="M30.8059 15.8146
L30.9753 15.3066
" />
<path d="M30.9753 15.3066
L31.1446 15.8146
" />
</g><text x="33.2613" y="16.5990"
textLength="0.5970" font-size="0.6773" lengthAdjust="spacingAndGlyphs"
text-anchor="middle" opacity="0">B</text>
<g class="stroked-text"><desc>B</desc>
<path d="M33.2975 16.3105
L33.3701 16.3347
" />
<path d="M33.3701 16.3347
L33.3943 16.3589
" />
<path d="M33.3943 16.3589
L33.4185 16.4073
" />
<path d="M33.4185 16.4073
L33.4185 16.4799
" />
<path d="M33.4185 16.4799
L33.3943 16.5283
" />
<path d="M33.3943 16.5283
L33.3701 16.5525
" />
<path d="M33.3701 16.5525
L33.3217 16.5766
" />
<path d="M33.3217 16.5766
L33.1282 16.5766
" />
<path d="M33.1282 16.5766
L33.1282 16.0686
" />
<path d="M33.1282 16.0686
L33.2975 16.0686
" />
<path d="M33.2975 16.0686
L33.3459 16.0928
" />
<path d="M33.3459 16.0928
L33.3701 16.1170
" />
<path d="M33.3701 16.1170
L33.3943 16.1654
" />
<path d="M33.3943 16.1654
L33.3943 16.2138
" />
<path d="M33.3943 16.2138
L33.3701 16.2622
" />
<path d="M33.3701 16.2622
L33.3459 16.2864
" />
<path d="M33.3459 16.2864
L33.2975 16.3105
" />
<path d="M33.2975 16.3105
L33.1282 16.3105
" />
</g><text x="33.0073" y="19.6470"
textLength="0.5970" font-size="0.6773" lengthAdjust="spacingAndGlyphs"
text-anchor="middle" opacity="0">C</text>
<g class="stroked-text"><desc>C</desc>
<path d="M33.1645 19.5763
L33.1403 19.6005
" />
<path d="M33.1403 19.6005
L33.0677 19.6246
" />
<path d="M33.0677 19.6246
L33.0193 19.6246
" />
<path d="M33.0193 19.6246
L32.9468 19.6005
" />
<path d="M32.9468 19.6005
L32.8984 19.5521
" />
<path d="M32.8984 19.5521
L32.8742 19.5037
" />
<path d="M32.8742 19.5037
L32.8500 19.4069
" />
<path d="M32.8500 19.4069
L32.8500 19.3344
" />
<path d="M32.8500 19.3344
L32.8742 19.2376
" />
<path d="M32.8742 19.2376
L32.8984 19.1892
" />
<path d="M32.8984 19.1892
L32.9468 19.1408
" />
<path d="M32.9468 19.1408
L33.0193 19.1166
" />
<path d="M33.0193 19.1166
L33.0677 19.1166
" />
<path d="M33.0677 19.1166
L33.1403 19.1408
" />
<path d="M33.1403 19.1408
L33.1645 19.1650
" />
</g><text x="30.4673" y="20.4090"
textLength="0.5970" font-size="0.6773" lengthAdjust="spacingAndGlyphs"
text-anchor="middle" opacity="0">D</text>
<g class="stroked-text"><desc>D</desc>
<path d="M30.3342 20.3866
L30.3342 19.8786
" />
<path d="M30.3342 19.8786
L30.4552 19.8786
" />
<path d="M30.4552 19.8786
L30.5277 19.9028
" />
<path d="M30.5277 19.9028
L30.5761 19.9512
" />
<path d="M30.5761 19.9512
L30.6003 19.9996
" />
<path d="M30.6003 19.9996
L30.6245 20.0964
" />
<path d="M30.6245 20.0964
L30.6245 20.1689
" />
<path d="M30.6245 20.1689
L30.6003 20.2657
" />
<path d="M30.6003 20.2657
L30.5761 20.3141
" />
<path d="M30.5761 20.3141
L30.5277 20.3625
" />
<path d="M30.5277 20.3625
L30.4552 20.3866
" />
<path d="M30.4552 20.3866
L30.3342 20.3866
" />
</g><text x="34.2773" y="21.1710"
textLength="1.1050" font-size="0.6773" lengthAdjust="spacingAndGlyphs"
text-anchor="middle" opacity="0">DP</text>
<g class="stroked-text"><desc>DP</desc>
<path d="M33.8902 21.1486
L33.8902 20.6406
" />
<path d="M33.8902 20.6406
L34.0112 20.6406
" />
<path d="M34.0112 20.6406
L34.0837 20.6648
" />
<path d="M34.0837 20.6648
L34.1321 20.7132
" />
<path d="M34.1321 20.7132
L34.1563 20.7616
" />
<path d="M34.1563 20.7616
L34.1805 20.8584
" />
<path d="M34.1805 20.8584
L34.1805 20.9309
" />
<path d="M34.1805 20.9309
L34.1563 21.0277
" />
<path d="M34.1563 21.0277
L34.1321 21.0761
" />
<path d="M34.1321 21.0761
L34.0837 21.1245
" />
<path d="M34.0837 21.1245
L34.0112 21.1486
" />
<path d="M34.0112 21.1486
L33.8902 21.1486
" />
<path d="M34.3982 21.1486
L34.3982 20.6406
" />
<path d="M34.3982 20.6406
L34.5917 20.6406
" />
<path d="M34.5917 20.6406
L34.6401 20.6648
" />
<path d="M34.6401 20.6648
L34.6643 20.6890
" />
<path d="M34.6643 20.6890
L34.6885 20.7374
" />
<path d="M34.6885 20.7374
L34.6885 20.8100
" />
<path d="M34.6885 20.8100
L34.6643 20.8584
" />
<path d="M34.6643 20.8584
L34.6401 20.8825
" />
<path d="M34.6401 20.8825
L34.5917 20.9067
" />
<path d="M34.5917 20.9067
L34.3982 20.9067
" />
</g><text x="28.1813" y="19.6470"
textLength="0.5486" font-size="0.6773" lengthAdjust="spacingAndGlyphs"
text-anchor="middle" opacity="0">E</text>
<g class="stroked-text"><desc>E</desc>
<path d="M28.0724 19.3585
L28.2417 19.3585
" />
<path d="M28.3143 19.6246
L28.0724 19.6246
" />
<path d="M28.0724 19.6246
L28.0724 19.1166
" />
<path d="M28.0724 19.1166
L28.3143 19.1166
" />
</g><text x="28.4353" y="16.5990"
textLength="0.5244" font-size="0.6773" lengthAdjust="spacingAndGlyphs"
text-anchor="middle" opacity="0">F</text>
<g class="stroked-text"><desc>F</desc>
<path d="M28.5078 16.3105
L28.3385 16.3105
" />
<path d="M28.3385 16.5766
L28.3385 16.0686
" />
<path d="M28.3385 16.0686
L28.5804 16.0686
" />
</g><text x="30.7213" y="17.3610"
textLength="0.5970" font-size="0.6773" lengthAdjust="spacingAndGlyphs"
text-anchor="middle" opacity="0">G</text>
<g class="stroked-text"><desc>G</desc>
<path d="M30.8543 16.8548
L30.8059 16.8306
" />
<path d="M30.8059 16.8306
L30.7333 16.8306
" />
<path d="M30.7333 16.8306
L30.6608 16.8548
" />
<path d="M30.6608 16.8548
L30.6124 16.9032
" />
<path d="M30.6124 16.9032
L30.5882 16.9516
" />
<path d="M30.5882 16.9516
L30.5640 17.0484
" />
<path d="M30.5640 17.0484
L30.5640 17.1209
" />
<path d="M30.5640 17.1209
L30.5882 17.2177
" />
<path d="M30.5882 17.2177
L30.6124 17.2661
" />
<path d="M30.6124 17.2661
L30.6608 17.3145
" />
<path d="M30.6608 17.3145
L30.7333 17.3386
" />
<path d="M30.7333 17.3386
L30.7817 17.3386
" />
<path d="M30.7817 17.3386
L30.8543 17.3145
" />
<path d="M30.8543 17.3145
L30.8785 17.2903
" />
<path d="M30.8785 17.2903
L30.8785 17.1209
" />
<path d="M30.8785 17.1209
L30.7817 17.1209
" />
</g></g>
<g style="fill:#000000; fill-opacity:0.0; 
stroke:#000000; stroke-width:0.1524; stroke-opacity:1; 
stroke-linecap:round; stroke-linejoin:round;">
<path d="M35.8013 25.6159
L38.3413 25.6159
" />
<text x="35.2933" y="26.2509"
textLength="2.5618" font-size="1.6933" lengthAdjust="spacingAndGlyphs"
text-anchor="end" opacity="0">CA</text>
<g class="stroked-text"><desc>CA</desc>
<path d="M33.8625 26.0745
L33.8021 26.1350
" />
<path d="M33.8021 26.1350
L33.6206 26.1954
" />
<path d="M33.6206 26.1954
L33.4997 26.1954
" />
<path d="M33.4997 26.1954
L33.3183 26.1350
" />
<path d="M33.3183 26.1350
L33.1973 26.0140
" />
<path d="M33.1973 26.0140
L33.1368 25.8930
" />
<path d="M33.1368 25.8930
L33.0764 25.6511
" />
<path d="M33.0764 25.6511
L33.0764 25.4697
" />
<path d="M33.0764 25.4697
L33.1368 25.2278
" />
<path d="M33.1368 25.2278
L33.1973 25.1069
" />
<path d="M33.1973 25.1069
L33.3183 24.9859
" />
<path d="M33.3183 24.9859
L33.4997 24.9254
" />
<path d="M33.4997 24.9254
L33.6206 24.9254
" />
<path d="M33.6206 24.9254
L33.8021 24.9859
" />
<path d="M33.8021 24.9859
L33.8625 25.0464
" />
<path d="M34.3464 25.8326
L34.9511 25.8326
" />
<path d="M34.2254 26.1954
L34.6487 24.9254
" />
<path d="M34.6487 24.9254
L35.0721 26.1954
" />
</g><text x="37.0713" y="25.3619"
textLength="1.4127" font-size="1.6933" lengthAdjust="spacingAndGlyphs"
text-anchor="middle" opacity="0">1</text>
<g class="stroked-text"><desc>1</desc>
<path d="M37.4342 25.1984
L36.7085 25.1984
" />
<path d="M37.0713 25.1984
L37.0713 23.9284
" />
<path d="M37.0713 23.9284
L36.9504 24.1099
" />
<path d="M36.9504 24.1099
L36.8294 24.2308
" />
<path d="M36.8294 24.2308
L36.7085 24.2913
" />
</g><path d="M25.6413 10.3759
L23.1013 10.3759
" />
<text x="26.1493" y="11.0109"
textLength="1.2918" font-size="1.6933" lengthAdjust="spacingAndGlyphs"
text-anchor="start" opacity="0">A</text>
<g class="stroked-text"><desc>A</desc>
<path d="M26.4914 10.5926
L27.0961 10.5926
" />
<path d="M26.3704 10.9554
L26.7937 9.6854
" />
<path d="M26.7937 9.6854
L27.2171 10.9554
" />
</g><text x="24.3713" y="10.1219"
textLength="2.6222" font-size="1.6933" lengthAdjust="spacingAndGlyphs"
text-anchor="middle" opacity="0">10</text>
<g class="stroked-text"><desc>10</desc>
<path d="M24.1294 9.9584
L23.4037 9.9584
" />
<path d="M23.7665 9.9584
L23.7665 8.6884
" />
<path d="M23.7665 8.6884
L23.6456 8.8699
" />
<path d="M23.6456 8.8699
L23.5246 8.9908
" />
<path d="M23.5246 8.9908
L23.4037 9.0513
" />
<path d="M24.9155 8.6884
L25.0365 8.6884
" />
<path d="M25.0365 8.6884
L25.1574 8.7489
" />
<path d="M25.1574 8.7489
L25.2179 8.8094
" />
<path d="M25.2179 8.8094
L25.2784 8.9303
" />
<path d="M25.2784 8.9303
L25.3389 9.1722
" />
<path d="M25.3389 9.1722
L25.3389 9.4746
" />
<path d="M25.3389 9.4746
L25.2784 9.7165
" />
<path d="M25.2784 9.7165
L25.2179 9.8375
" />
<path d="M25.2179 9.8375
L25.1574 9.8980
" />
<path d="M25.1574 9.8980
L25.0365 9.9584
" />
<path d="M25.0365 9.9584
L24.9155 9.9584
" />
<path d="M24.9155 9.9584
L24.7946 9.8980
" />
<path d="M24.7946 9.8980
L24.7341 9.8375
" />
<path d="M24.7341 9.8375
L24.6736 9.7165
" />
<path d="M24.6736 9.7165
L24.6132 9.4746
" />
<path d="M24.6132 9.4746
L24.6132 9.1722
" />
<path d="M24.6132 9.1722
L24.6736 8.9303
" />
<path d="M24.6736 8.9303
L24.7341 8.8094
" />
<path d="M24.7341 8.8094
L24.7946 8.7489
" />
<path d="M24.7946 8.7489
L24.9155 8.6884
" />
</g><path d="M25.6413 23.0759
L23.1013 23.0759
" />
<text x="26.1493" y="23.7109"
textLength="1.2918" font-size="1.6933" lengthAdjust="spacingAndGlyphs"
text-anchor="start" opacity="0">F</text>
<g class="stroked-text"><desc>F</desc>
<path d="M26.9752 22.9902
L26.5518 22.9902
" />
<path d="M26.5518 23.6554
L26.5518 22.3854
" />
<path d="M26.5518 22.3854
L27.1566 22.3854
" />
</g><text x="24.3713" y="22.8219"
textLength="1.4127" font-size="1.6933" lengthAdjust="spacingAndGlyphs"
text-anchor="middle" opacity="0">2</text>
<g class="stroked-text"><desc>2</desc>
<path d="M24.0085 21.5094
L24.0689 21.4489
" />
<path d="M24.0689 21.4489
L24.1899 21.3884
" />
<path d="M24.1899 21.3884
L24.4923 21.3884
" />
<path d="M24.4923 21.3884
L24.6132 21.4489
" />
<path d="M24.6132 21.4489
L24.6737 21.5094
" />
<path d="M24.6737 21.5094
L24.7342 21.6303
" />
<path d="M24.7342 21.6303
L24.7342 21.7513
" />
<path d="M24.7342 21.7513
L24.6737 21.9327
" />
<path d="M24.6737 21.9327
L23.9480 22.6584
" />
<path d="M23.9480 22.6584
L24.7342 22.6584
" />
</g><path d="M25.6413 25.6159
L23.1013 25.6159
" />
<text x="26.1493" y="26.2509"
textLength="1.4732" font-size="1.6933" lengthAdjust="spacingAndGlyphs"
text-anchor="start" opacity="0">G</text>
<g class="stroked-text"><desc>G</desc>
<path d="M27.2171 24.9859
L27.0961 24.9254
" />
<path d="M27.0961 24.9254
L26.9147 24.9254
" />
<path d="M26.9147 24.9254
L26.7333 24.9859
" />
<path d="M26.7333 24.9859
L26.6123 25.1069
" />
<path d="M26.6123 25.1069
L26.5518 25.2278
" />
<path d="M26.5518 25.2278
L26.4914 25.4697
" />
<path d="M26.4914 25.4697
L26.4914 25.6511
" />
<path d="M26.4914 25.6511
L26.5518 25.8930
" />
<path d="M26.5518 25.8930
L26.6123 26.0140
" />
<path d="M26.6123 26.0140
L26.7333 26.1350
" />
<path d="M26.7333 26.1350
L26.9147 26.1954
" />
<path d="M26.9147 26.1954
L27.0356 26.1954
" />
<path d="M27.0356 26.1954
L27.2171 26.1350
" />
<path d="M27.2171 26.1350
L27.2775 26.0745
" />
<path d="M27.2775 26.0745
L27.2775 25.6511
" />
<path d="M27.2775 25.6511
L27.0356 25.6511
" />
</g><text x="24.3713" y="25.3619"
textLength="1.4127" font-size="1.6933" lengthAdjust="spacingAndGlyphs"
text-anchor="middle" opacity="0">3</text>
<g class="stroked-text"><desc>3</desc>
<path d="M23.9480 23.9284
L24.7342 23.9284
" />
<path d="M24.7342 23.9284
L24.3108 24.4122
" />
<path d="M24.3108 24.4122
L24.4923 24.4122
" />
<path d="M24.4923 24.4122
L24.6132 24.4727
" />
<path d="M24.6132 24.4727
L24.6737 24.5332
" />
<path d="M24.6737 24.5332
L24.7342 24.6541
" />
<path d="M24.7342 24.6541
L24.7342 24.9565
" />
<path d="M24.7342 24.9565
L24.6737 25.0775
" />
<path d="M24.6737 25.0775
L24.6132 25.1380
" />
<path d="M24.6132 25.1380
L24.4923 25.1984
" />
<path d="M24.4923 25.1984
L24.1294 25.1984
" />
<path d="M24.1294 25.1984
L24.0085 25.1380
" />
<path d="M24.0085 25.1380
L23.9480 25.0775
" />
</g><path d="M25.6413 20.5359
L23.1013 20.5359
" />
<text x="26.1493" y="21.1709"
textLength="1.3522" font-size="1.6933" lengthAdjust="spacingAndGlyphs"
text-anchor="start" opacity="0">E</text>
<g class="stroked-text"><desc>E</desc>
<path d="M26.5518 20.4502
L26.9752 20.4502
" />
<path d="M27.1566 21.1154
L26.5518 21.1154
" />
<path d="M26.5518 21.1154
L26.5518 19.8454
" />
<path d="M26.5518 19.8454
L27.1566 19.8454
" />
</g><text x="24.3713" y="20.2819"
textLength="1.4127" font-size="1.6933" lengthAdjust="spacingAndGlyphs"
text-anchor="middle" opacity="0">4</text>
<g class="stroked-text"><desc>4</desc>
<path d="M24.6132 19.2718
L24.6132 20.1184
" />
<path d="M24.3108 18.7880
L24.0085 19.6951
" />
<path d="M24.0085 19.6951
L24.7946 19.6951
" />
</g><path d="M25.6413 17.9959
L23.1013 17.9959
" />
<text x="26.1493" y="18.6309"
textLength="1.4732" font-size="1.6933" lengthAdjust="spacingAndGlyphs"
text-anchor="start" opacity="0">D</text>
<g class="stroked-text"><desc>D</desc>
<path d="M26.5518 18.5754
L26.5518 17.3054
" />
<path d="M26.5518 17.3054
L26.8542 17.3054
" />
<path d="M26.8542 17.3054
L27.0356 17.3659
" />
<path d="M27.0356 17.3659
L27.1566 17.4869
" />
<path d="M27.1566 17.4869
L27.2171 17.6078
" />
<path d="M27.2171 17.6078
L27.2775 17.8497
" />
<path d="M27.2775 17.8497
L27.2775 18.0311
" />
<path d="M27.2775 18.0311
L27.2171 18.2730
" />
<path d="M27.2171 18.2730
L27.1566 18.3940
" />
<path d="M27.1566 18.3940
L27.0356 18.5150
" />
<path d="M27.0356 18.5150
L26.8542 18.5754
" />
<path d="M26.8542 18.5754
L26.5518 18.5754
" />
</g><text x="24.3713" y="17.7419"
textLength="1.4127" font-size="1.6933" lengthAdjust="spacingAndGlyphs"
text-anchor="middle" opacity="0">5</text>
<g class="stroked-text"><desc>5</desc>
<path d="M24.6737 16.3084
L24.0689 16.3084
" />
<path d="M24.0689 16.3084
L24.0085 16.9132
" />
<path d="M24.0085 16.9132
L24.0689 16.8527
" />
<path d="M24.0689 16.8527
L24.1899 16.7922
" />
<path d="M24.1899 16.7922
L24.4923 16.7922
" />
<path d="M24.4923 16.7922
L24.6132 16.8527
" />
<path d="M24.6132 16.8527
L24.6737 16.9132
" />
<path d="M24.6737 16.9132
L24.7342 17.0341
" />
<path d="M24.7342 17.0341
L24.7342 17.3365
" />
<path d="M24.7342 17.3365
L24.6737 17.4575
" />
<path d="M24.6737 17.4575
L24.6132 17.5180
" />
<path d="M24.6132 17.5180
L24.4923 17.5784
" />
<path d="M24.4923 17.5784
L24.1899 17.5784
" />
<path d="M24.1899 17.5784
L24.0689 17.5180
" />
<path d="M24.0689 17.5180
L24.0085 17.4575
" />
</g><path d="M35.8013 28.1559
L38.3413 28.1559
" />
<text x="35.2933" y="28.7909"
textLength="2.5618" font-size="1.6933" lengthAdjust="spacingAndGlyphs"
text-anchor="end" opacity="0">CA</text>
<g class="stroked-text"><desc>CA</desc>
<path d="M33.8625 28.6145
L33.8021 28.6750
" />
<path d="M33.8021 28.6750
L33.6206 28.7354
" />
<path d="M33.6206 28.7354
L33.4997 28.7354
" />
<path d="M33.4997 28.7354
L33.3183 28.6750
" />
<path d="M33.3183 28.6750
L33.1973 28.5540
" />
<path d="M33.1973 28.5540
L33.1368 28.4330
" />
<path d="M33.1368 28.4330
L33.0764 28.1911
" />
<path d="M33.0764 28.1911
L33.0764 28.0097
" />
<path d="M33.0764 28.0097
L33.1368 27.7678
" />
<path d="M33.1368 27.7678
L33.1973 27.6469
" />
<path d="M33.1973 27.6469
L33.3183 27.5259
" />
<path d="M33.3183 27.5259
L33.4997 27.4654
" />
<path d="M33.4997 27.4654
L33.6206 27.4654
" />
<path d="M33.6206 27.4654
L33.8021 27.5259
" />
<path d="M33.8021 27.5259
L33.8625 27.5864
" />
<path d="M34.3464 28.3726
L34.9511 28.3726
" />
<path d="M34.2254 28.7354
L34.6487 27.4654
" />
<path d="M34.6487 27.4654
L35.0721 28.7354
" />
</g><text x="37.0713" y="27.9019"
textLength="1.4127" font-size="1.6933" lengthAdjust="spacingAndGlyphs"
text-anchor="middle" opacity="0">6</text>
<g class="stroked-text"><desc>6</desc>
<path d="M37.3132 26.4684
L37.0713 26.4684
" />
<path d="M37.0713 26.4684
L36.9504 26.5289
" />
<path d="M36.9504 26.5289
L36.8899 26.5894
" />
<path d="M36.8899 26.5894
L36.7689 26.7708
" />
<path d="M36.7689 26.7708
L36.7085 27.0127
" />
<path d="M36.7085 27.0127
L36.7085 27.4965
" />
<path d="M36.7085 27.4965
L36.7689 27.6175
" />
<path d="M36.7689 27.6175
L36.8294 27.6780
" />
<path d="M36.8294 27.6780
L36.9504 27.7384
" />
<path d="M36.9504 27.7384
L37.1923 27.7384
" />
<path d="M37.1923 27.7384
L37.3132 27.6780
" />
<path d="M37.3132 27.6780
L37.3737 27.6175
" />
<path d="M37.3737 27.6175
L37.4342 27.4965
" />
<path d="M37.4342 27.4965
L37.4342 27.1941
" />
<path d="M37.4342 27.1941
L37.3737 27.0732
" />
<path d="M37.3737 27.0732
L37.3132 27.0127
" />
<path d="M37.3132 27.0127
L37.1923 26.9522
" />
<path d="M37.1923 26.9522
L36.9504 26.9522
" />
<path d="M36.9504 26.9522
L36.8294 27.0127
" />
<path d="M36.8294 27.0127
L36.7689 27.0732
" />
<path d="M36.7689 27.0732
L36.7085 27.1941
" />
</g><path d="M25.6413 28.1559
L23.1013 28.1559
" />
<text x="26.1493" y="28.7909"
textLength="2.7432" font-size="1.6933" lengthAdjust="spacingAndGlyphs"
text-anchor="start" opacity="0">DP</text>
<g class="stroked-text"><desc>DP</desc>
<path d="M26.5518 28.7354
L26.5518 27.4654
" />
<path d="M26.5518 27.4654
L26.8542 27.4654
" />
<path d="M26.8542 27.4654
L27.0356 27.5259
" />
<path d="M27.0356 27.5259
L27.1566 27.6469
" />
<path d="M27.1566 27.6469
L27.2171 27.7678
" />
<path d="M27.2171 27.7678
L27.2775 28.0097
" />
<path d="M27.2775 28.0097
L27.2775 28.1911
" />
<path d="M27.2775 28.1911
L27.2171 28.4330
" />
<path d="M27.2171 28.4330
L27.1566 28.5540
" />
<path d="M27.1566 28.5540
L27.0356 28.6750
" />
<path d="M27.0356 28.6750
L26.8542 28.7354
" />
<path d="M26.8542 28.7354
L26.5518 28.7354
" />
<path d="M27.8218 28.7354
L27.8218 27.4654
" />
<path d="M27.8218 27.4654
L28.3056 27.4654
" />
<path d="M28.3056 27.4654
L28.4266 27.5259
" />
<path d="M28.4266 27.5259
L28.4871 27.5864
" />
<path d="M28.4871 27.5864
L28.5475 27.7073
" />
<path d="M28.5475 27.7073
L28.5475 27.8888
" />
<path d="M28.5475 27.8888
L28.4871 28.0097
" />
<path d="M28.4871 28.0097
L28.4266 28.0702
" />
<path d="M28.4266 28.0702
L28.3056 28.1307
" />
<path d="M28.3056 28.1307
L27.8218 28.1307
" />
</g><text x="24.3713" y="27.9019"
textLength="1.4127" font-size="1.6933" lengthAdjust="spacingAndGlyphs"
text-anchor="middle" opacity="0">7</text>
<g class="stroked-text"><desc>7</desc>
<path d="M23.9480 26.4684
L24.7946 26.4684
" />
<path d="M24.7946 26.4684
L24.2504 27.7384
" />
</g><path d="M25.6413 15.4559
L23.1013 15.4559
" />
<text x="26.1493" y="16.0909"
textLength="1.4732" font-size="1.6933" lengthAdjust="spacingAndGlyphs"
text-anchor="start" opacity="0">C</text>
<g class="stroked-text"><desc>C</desc>
<path d="M27.2775 15.9145
L27.2171 15.9750
" />
<path d="M27.2171 15.9750
L27.0356 16.0354
" />
<path d="M27.0356 16.0354
L26.9147 16.0354
" />
<path d="M26.9147 16.0354
L26.7333 15.9750
" />
<path d="M26.7333 15.9750
L26.6123 15.8540
" />
<path d="M26.6123 15.8540
L26.5518 15.7330
" />
<path d="M26.5518 15.7330
L26.4914 15.4911
" />
<path d="M26.4914 15.4911
L26.4914 15.3097
" />
<path d="M26.4914 15.3097
L26.5518 15.0678
" />
<path d="M26.5518 15.0678
L26.6123 14.9469
" />
<path d="M26.6123 14.9469
L26.7333 14.8259
" />
<path d="M26.7333 14.8259
L26.9147 14.7654
" />
<path d="M26.9147 14.7654
L27.0356 14.7654
" />
<path d="M27.0356 14.7654
L27.2171 14.8259
" />
<path d="M27.2171 14.8259
L27.2775 14.8864
" />
</g><text x="24.3713" y="15.2019"
textLength="1.4127" font-size="1.6933" lengthAdjust="spacingAndGlyphs"
text-anchor="middle" opacity="0">8</text>
<g class="stroked-text"><desc>8</desc>
<path d="M24.2504 14.3127
L24.1294 14.2522
" />
<path d="M24.1294 14.2522
L24.0689 14.1918
" />
<path d="M24.0689 14.1918
L24.0085 14.0708
" />
<path d="M24.0085 14.0708
L24.0085 14.0103
" />
<path d="M24.0085 14.0103
L24.0689 13.8894
" />
<path d="M24.0689 13.8894
L24.1294 13.8289
" />
<path d="M24.1294 13.8289
L24.2504 13.7684
" />
<path d="M24.2504 13.7684
L24.4923 13.7684
" />
<path d="M24.4923 13.7684
L24.6132 13.8289
" />
<path d="M24.6132 13.8289
L24.6737 13.8894
" />
<path d="M24.6737 13.8894
L24.7342 14.0103
" />
<path d="M24.7342 14.0103
L24.7342 14.0708
" />
<path d="M24.7342 14.0708
L24.6737 14.1918
" />
<path d="M24.6737 14.1918
L24.6132 14.2522
" />
<path d="M24.6132 14.2522
L24.4923 14.3127
" />
<path d="M24.4923 14.3127
L24.2504 14.3127
" />
<path d="M24.2504 14.3127
L24.1294 14.3732
" />
<path d="M24.1294 14.3732
L24.0689 14.4337
" />
<path d="M24.0689 14.4337
L24.0085 14.5546
" />
<path d="M24.0085 14.5546
L24.0085 14.7965
" />
<path d="M24.0085 14.7965
L24.0689 14.9175
" />
<path d="M24.0689 14.9175
L24.1294 14.9780
" />
<path d="M24.1294 14.9780
L24.2504 15.0384
" />
<path d="M24.2504 15.0384
L24.4923 15.0384
" />
<path d="M24.4923 15.0384
L24.6132 14.9780
" />
<path d="M24.6132 14.9780
L24.6737 14.9175
" />
<path d="M24.6737 14.9175
L24.7342 14.7965
" />
<path d="M24.7342 14.7965
L24.7342 14.5546
" />
<path d="M24.7342 14.5546
L24.6737 14.4337
" />
<path d="M24.6737 14.4337
L24.6132 14.3732
" />
<path d="M24.6132 14.3732
L24.4923 14.3127
" />
</g><path d="M25.6413 12.9159
L23.1013 12.9159
" />
<text x="26.1493" y="13.5509"
textLength="1.4732" font-size="1.6933" lengthAdjust="spacingAndGlyphs"
text-anchor="start" opacity="0">B</text>
<g class="stroked-text"><desc>B</desc>
<path d="M26.9752 12.8302
L27.1566 12.8907
" />
<path d="M27.1566 12.8907
L27.2171 12.9511
" />
<path d="M27.2171 12.9511
L27.2775 13.0721
" />
<path d="M27.2775 13.0721
L27.2775 13.2535
" />
<path d="M27.2775 13.2535
L27.2171 13.3745
" />
<path d="M27.2171 13.3745
L27.1566 13.4350
" />
<path d="M27.1566 13.4350
L27.0356 13.4954
" />
<path d="M27.0356 13.4954
L26.5518 13.4954
" />
<path d="M26.5518 13.4954
L26.5518 12.2254
" />
<path d="M26.5518 12.2254
L26.9752 12.2254
" />
<path d="M26.9752 12.2254
L27.0961 12.2859
" />
<path d="M27.0961 12.2859
L27.1566 12.3464
" />
<path d="M27.1566 12.3464
L27.2171 12.4673
" />
<path d="M27.2171 12.4673
L27.2171 12.5883
" />
<path d="M27.2171 12.5883
L27.1566 12.7092
" />
<path d="M27.1566 12.7092
L27.0961 12.7697
" />
<path d="M27.0961 12.7697
L26.9752 12.8302
" />
<path d="M26.9752 12.8302
L26.5518 12.8302
" />
</g><text x="24.3713" y="12.6619"
textLength="1.4127" font-size="1.6933" lengthAdjust="spacingAndGlyphs"
text-anchor="middle" opacity="0">9</text>
<g class="stroked-text"><desc>9</desc>
<path d="M24.1294 12.4984
L24.3713 12.4984
" />
<path d="M24.3713 12.4984
L24.4923 12.4380
" />
<path d="M24.4923 12.4380
L24.5527 12.3775
" />
<path d="M24.5527 12.3775
L24.6737 12.1960
" />
<path d="M24.6737 12.1960
L24.7342 11.9541
" />
<path d="M24.7342 11.9541
L24.7342 11.4703
" />
<path d="M24.7342 11.4703
L24.6737 11.3494
" />
<path d="M24.6737 11.3494
L24.6132 11.2889
" />
<path d="M24.6132 11.2889
L24.4923 11.2284
" />
<path d="M24.4923 11.2284
L24.2504 11.2284
" />
<path d="M24.2504 11.2284
L24.1294 11.2889
" />
<path d="M24.1294 11.2889
L24.0689 11.3494
" />
<path d="M24.0689 11.3494
L24.0085 11.4703
" />
<path d="M24.0085 11.4703
L24.0085 11.7727
" />
<path d="M24.0085 11.7727
L24.0689 11.8937
" />
<path d="M24.0689 11.8937
L24.1294 11.9541
" />
<path d="M24.1294 11.9541
L24.2504 12.0146
" />
<path d="M24.2504 12.0146
L24.4923 12.0146
" />
<path d="M24.4923 12.0146
L24.6132 11.9541
" />
<path d="M24.6132 11.9541
L24.6737 11.8937
" />
<path d="M24.6737 11.8937
L24.7342 11.7727
" />
</g></g>
<g style="fill:#000000; fill-opacity:0.0; 
stroke:#000000; stroke-width:0.1588; stroke-opacity:1; 
stroke-linecap:round; stroke-linejoin:round;">
<text x="26.9113" y="4.6609"
textLength="2.6415" font-size="1.6933" lengthAdjust="spacingAndGlyphs"
text-anchor="middle" opacity="0">U?</text>
<g class="stroked-text"><desc>U?</desc>
<path d="M26.0041 3.3351
L26.0041 4.3632
" />
<path d="M26.0041 4.3632
L26.0646 4.4842
" />
<path d="M26.0646 4.4842
L26.1251 4.5447
" />
<path d="M26.1251 4.5447
L26.2460 4.6051
" />
<path d="M26.2460 4.6051
L26.4879 4.6051
" />
<path d="M26.4879 4.6051
L26.6089 4.5447
" />
<path d="M26.6089 4.5447
L26.6694 4.4842
" />
<path d="M26.6694 4.4842
L26.7298 4.3632
" />
<path d="M26.7298 4.3632
L26.7298 3.3351
" />
<path d="M27.5161 4.4842
L27.5765 4.5447
" />
<path d="M27.5765 4.5447
L27.5161 4.6051
" />
<path d="M27.5161 4.6051
L27.4556 4.5447
" />
<path d="M27.4556 4.5447
L27.5161 4.4842
" />
<path d="M27.5161 4.4842
L27.5161 4.6051
" />
<path d="M27.2742 3.3956
L27.3951 3.3351
" />
<path d="M27.3951 3.3351
L27.6975 3.3351
" />
<path d="M27.6975 3.3351
L27.8184 3.3956
" />
<path d="M27.8184 3.3956
L27.8789 3.5166
" />
<path d="M27.8789 3.5166
L27.8789 3.6375
" />
<path d="M27.8789 3.6375
L27.8184 3.7585
" />
<path d="M27.8184 3.7585
L27.7580 3.8189
" />
<path d="M27.7580 3.8189
L27.6370 3.8794
" />
<path d="M27.6370 3.8794
L27.5765 3.9399
" />
<path d="M27.5765 3.9399
L27.5161 4.0608
" />
<path d="M27.5161 4.0608
L27.5161 4.1213
" />
</g><text x="37.0713" y="4.6609"
textLength="11.7128" font-size="1.6933" lengthAdjust="spacingAndGlyphs"
text-anchor="middle" opacity="0">HDSP-7501</text>
<g class="stroked-text"><desc>HDSP-7501</desc>
<path d="M31.6284 4.6051
L31.6284 3.3351
" />
<path d="M31.6284 3.9399
L32.3541 3.9399
" />
<path d="M32.3541 4.6051
L32.3541 3.3351
" />
<path d="M32.9589 4.6051
L32.9589 3.3351
" />
<path d="M32.9589 3.3351
L33.2613 3.3351
" />
<path d="M33.2613 3.3351
L33.4427 3.3956
" />
<path d="M33.4427 3.3956
L33.5637 3.5166
" />
<path d="M33.5637 3.5166
L33.6242 3.6375
" />
<path d="M33.6242 3.6375
L33.6846 3.8794
" />
<path d="M33.6846 3.8794
L33.6846 4.0608
" />
<path d="M33.6846 4.0608
L33.6242 4.3027
" />
<path d="M33.6242 4.3027
L33.5637 4.4237
" />
<path d="M33.5637 4.4237
L33.4427 4.5447
" />
<path d="M33.4427 4.5447
L33.2613 4.6051
" />
<path d="M33.2613 4.6051
L32.9589 4.6051
" />
<path d="M34.1685 4.5447
L34.3499 4.6051
" />
<path d="M34.3499 4.6051
L34.6523 4.6051
" />
<path d="M34.6523 4.6051
L34.7732 4.5447
" />
<path d="M34.7732 4.5447
L34.8337 4.4842
" />
<path d="M34.8337 4.4842
L34.8942 4.3632
" />
<path d="M34.8942 4.3632
L34.8942 4.2423
" />
<path d="M34.8942 4.2423
L34.8337 4.1213
" />
<path d="M34.8337 4.1213
L34.7732 4.0608
" />
<path d="M34.7732 4.0608
L34.6523 4.0004
" />
<path d="M34.6523 4.0004
L34.4104 3.9399
" />
<path d="M34.4104 3.9399
L34.2894 3.8794
" />
<path d="M34.2894 3.8794
L34.2289 3.8189
" />
<path d="M34.2289 3.8189
L34.1685 3.6980
" />
<path d="M34.1685 3.6980
L34.1685 3.5770
" />
<path d="M34.1685 3.5770
L34.2289 3.4561
" />
<path d="M34.2289 3.4561
L34.2894 3.3956
" />
<path d="M34.2894 3.3956
L34.4104 3.3351
" />
<path d="M34.4104 3.3351
L34.7127 3.3351
" />
<path d="M34.7127 3.3351
L34.8942 3.3956
" />
<path d="M35.4384 4.6051
L35.4384 3.3351
" />
<path d="M35.4384 3.3351
L35.9222 3.3351
" />
<path d="M35.9222 3.3351
L36.0432 3.3956
" />
<path d="M36.0432 3.3956
L36.1037 3.4561
" />
<path d="M36.1037 3.4561
L36.1641 3.5770
" />
<path d="M36.1641 3.5770
L36.1641 3.7585
" />
<path d="M36.1641 3.7585
L36.1037 3.8794
" />
<path d="M36.1037 3.8794
L36.0432 3.9399
" />
<path d="M36.0432 3.9399
L35.9222 4.0004
" />
<path d="M35.9222 4.0004
L35.4384 4.0004
" />
<path d="M36.7084 4.1213
L37.6761 4.1213
" />
<path d="M38.1599 3.3351
L39.0065 3.3351
" />
<path d="M39.0065 3.3351
L38.4623 4.6051
" />
<path d="M40.0951 3.3351
L39.4903 3.3351
" />
<path d="M39.4903 3.3351
L39.4299 3.9399
" />
<path d="M39.4299 3.9399
L39.4903 3.8794
" />
<path d="M39.4903 3.8794
L39.6113 3.8189
" />
<path d="M39.6113 3.8189
L39.9137 3.8189
" />
<path d="M39.9137 3.8189
L40.0346 3.8794
" />
<path d="M40.0346 3.8794
L40.0951 3.9399
" />
<path d="M40.0951 3.9399
L40.1556 4.0608
" />
<path d="M40.1556 4.0608
L40.1556 4.3632
" />
<path d="M40.1556 4.3632
L40.0951 4.4842
" />
<path d="M40.0951 4.4842
L40.0346 4.5447
" />
<path d="M40.0346 4.5447
L39.9137 4.6051
" />
<path d="M39.9137 4.6051
L39.6113 4.6051
" />
<path d="M39.6113 4.6051
L39.4903 4.5447
" />
<path d="M39.4903 4.5447
L39.4299 4.4842
" />
<path d="M40.9417 3.3351
L41.0627 3.3351
" />
<path d="M41.0627 3.3351
L41.1836 3.3956
" />
<path d="M41.1836 3.3956
L41.2441 3.4561
" />
<path d="M41.2441 3.4561
L41.3046 3.5770
" />
<path d="M41.3046 3.5770
L41.3651 3.8189
" />
<path d="M41.3651 3.8189
L41.3651 4.1213
" />
<path d="M41.3651 4.1213
L41.3046 4.3632
" />
<path d="M41.3046 4.3632
L41.2441 4.4842
" />
<path d="M41.2441 4.4842
L41.1836 4.5447
" />
<path d="M41.1836 4.5447
L41.0627 4.6051
" />
<path d="M41.0627 4.6051
L40.9417 4.6051
" />
<path d="M40.9417 4.6051
L40.8208 4.5447
" />
<path d="M40.8208 4.5447
L40.7603 4.4842
" />
<path d="M40.7603 4.4842
L40.6998 4.3632
" />
<path d="M40.6998 4.3632
L40.6394 4.1213
" />
<path d="M40.6394 4.1213
L40.6394 3.8189
" />
<path d="M40.6394 3.8189
L40.6998 3.5770
" />
<path d="M40.6998 3.5770
L40.7603 3.4561
" />
<path d="M40.7603 3.4561
L40.8208 3.3956
" />
<path d="M40.8208 3.3956
L40.9417 3.3351
" />
<path d="M42.5746 4.6051
L41.8489 4.6051
" />
<path d="M42.2117 4.6051
L42.2117 3.3351
" />
<path d="M42.2117 3.3351
L42.0908 3.5166
" />
<path d="M42.0908 3.5166
L41.9698 3.6375
" />
<path d="M41.9698 3.6375
L41.8489 3.6980
" />
</g></g> 
</svg>
