<?xml version="1.0" standalone="no"?>
 <!DOCTYPE svg PUBLIC "-//W3C//DTD SVG 1.1//EN" 
 "http://www.w3.org/Graphics/SVG/1.1/DTD/svg11.dtd"> 
<svg
  xmlns:svg="http://www.w3.org/2000/svg"
  xmlns="http://www.w3.org/2000/svg"
  xmlns:xlink="http://www.w3.org/1999/xlink"
  version="1.1"
  width="84.6582mm" height="60.9600mm" viewBox="0.0000 0.0000 84.6582 60.9600">
<title>SVG Image created as am26ls31cd.svg date 2024/01/16 15:19:38 </title>
  <desc>Image generated by Eeschema-SVG </desc>
<g style="fill:#000000; fill-opacity:1.0000;stroke:#000000; stroke-opacity:1.0000;
stroke-linecap:round; stroke-linejoin:round;"
 transform="translate(0 0) scale(1 1)">
</g>
<g style="fill:#000000; fill-opacity:0.0; 
stroke:#000000; stroke-width:0.0000; stroke-opacity:1; 
stroke-linecap:round; stroke-linejoin:round;">
</g>
<g style="fill:#000000; fill-opacity:0.0; 
stroke:#000000; stroke-width:0.2540; stroke-opacity:1; 
stroke-linecap:round; stroke-linejoin:round;">
<rect x="32.169100" y="7.620000" width="20.320000" height="45.720000" rx="0.000000" />
</g>
<g style="fill:#000000; fill-opacity:0.0; 
stroke:#000000; stroke-width:0.1270; stroke-opacity:1; 
stroke-linecap:round; stroke-linejoin:round;">
<path d="M38.2651 32.2580 A3.3549 3.3549 0.0 0 0 38.2651 28.7020" />
</g>
<g style="fill:#000000; fill-opacity:0.0; 
stroke:#000000; stroke-width:0.1524; stroke-opacity:1; 
stroke-linecap:round; stroke-linejoin:round;">
<circle cx="38.2651" cy="31.7500" r="0.2540" /> 
</g>
<g style="fill:#000000; fill-opacity:0.0; 
stroke:#000000; stroke-width:0.1270; stroke-opacity:1; 
stroke-linecap:round; stroke-linejoin:round;">
<path d="M40.0431 32.2580 A2.3416 2.3416 0.0 0 0 41.8211 30.4800" />
<path d="M41.8211 30.4800 A2.3416 2.3416 0.0 0 0 40.0431 28.7020" />
</g>
<g style="fill:#000000; fill-opacity:1.0000; 
stroke:#000000; stroke-width:0.1524; stroke-opacity:1; 
stroke-linecap:round; stroke-linejoin:round;">
<circle cx="42.3291" cy="36.8300" r="0.2540" /> 
</g>
<g style="fill:#000000; fill-opacity:0.0; 
stroke:#000000; stroke-width:0.1270; stroke-opacity:1; 
stroke-linecap:round; stroke-linejoin:round;">
<path style="fill:#000000; fill-opacity:0.0; 
stroke:#000000; stroke-width:0.1270; stroke-opacity:1; 
stroke-linecap:round; stroke-linejoin:round;fill:none"
d="M 38.2651,32.2580
40.0431,32.2580
" /> 
<path style="fill:#000000; fill-opacity:0.0; 
stroke:#000000; stroke-width:0.1270; stroke-opacity:1; 
stroke-linecap:round; stroke-linejoin:round;fill:none"
d="M 40.0431,28.7020
38.2651,28.7020
" /> 
<path style="fill:#000000; fill-opacity:0.0; 
stroke:#000000; stroke-width:0.1270; stroke-opacity:1; 
stroke-linecap:round; stroke-linejoin:round;fill:none"
d="M 41.3131,46.9900
44.8691,46.9900
" /> 
<path style="fill:#000000; fill-opacity:0.0; 
stroke:#000000; stroke-width:0.1270; stroke-opacity:1; 
stroke-linecap:round; stroke-linejoin:round;fill:none"
d="M 41.3131,39.3700
44.8691,39.3700
" /> 
<path style="fill:#000000; fill-opacity:0.0; 
stroke:#000000; stroke-width:0.1270; stroke-opacity:1; 
stroke-linecap:round; stroke-linejoin:round;fill:none"
d="M 41.3131,21.5900
44.8691,21.5900
" /> 
<path style="fill:#000000; fill-opacity:0.0; 
stroke:#000000; stroke-width:0.1270; stroke-opacity:1; 
stroke-linecap:round; stroke-linejoin:round;fill:none"
d="M 41.3131,13.9700
44.8691,13.9700
" /> 
</g>
<g style="fill:#000000; fill-opacity:0.0; 
stroke:#000000; stroke-width:0.1524; stroke-opacity:1; 
stroke-linecap:round; stroke-linejoin:round;">
<path style="fill:#000000; fill-opacity:0.0; 
stroke:#000000; stroke-width:0.1524; stroke-opacity:1; 
stroke-linecap:round; stroke-linejoin:round;fill:none"
d="M 41.8211,30.4800
42.3291,30.4800
" /> 
</g>
<g style="fill:#000000; fill-opacity:0.0; 
stroke:#000000; stroke-width:0.1270; stroke-opacity:1; 
stroke-linecap:round; stroke-linejoin:round;">
<path style="fill:#000000; fill-opacity:0.0; 
stroke:#000000; stroke-width:0.1270; stroke-opacity:1; 
stroke-linecap:round; stroke-linejoin:round;fill:none"
d="M 42.3291,30.4800
42.3291,44.4500
" /> 
<path style="fill:#000000; fill-opacity:0.0; 
stroke:#000000; stroke-width:0.1270; stroke-opacity:1; 
stroke-linecap:round; stroke-linejoin:round;fill:none"
d="M 42.3291,24.1300
42.3291,30.4800
" /> 
</g>
<g style="fill:#000000; fill-opacity:0.0; 
stroke:#000000; stroke-width:0.1524; stroke-opacity:1; 
stroke-linecap:round; stroke-linejoin:round;">
<path style="fill:#000000; fill-opacity:0.0; 
stroke:#000000; stroke-width:0.1524; stroke-opacity:1; 
stroke-linecap:round; stroke-linejoin:round;fill:none"
d="M 44.8691,48.8950
44.8691,45.0850
" /> 
<path style="fill:#000000; fill-opacity:0.0; 
stroke:#000000; stroke-width:0.1524; stroke-opacity:1; 
stroke-linecap:round; stroke-linejoin:round;fill:none"
d="M 44.8691,45.7200
48.6791,45.7200
" /> 
<path style="fill:#000000; fill-opacity:0.0; 
stroke:#000000; stroke-width:0.1524; stroke-opacity:1; 
stroke-linecap:round; stroke-linejoin:round;fill:none"
d="M 44.8691,41.2750
44.8691,37.4650
" /> 
<path style="fill:#000000; fill-opacity:0.0; 
stroke:#000000; stroke-width:0.1524; stroke-opacity:1; 
stroke-linecap:round; stroke-linejoin:round;fill:none"
d="M 44.8691,38.1000
48.6791,38.1000
" /> 
<path style="fill:#000000; fill-opacity:0.0; 
stroke:#000000; stroke-width:0.1524; stroke-opacity:1; 
stroke-linecap:round; stroke-linejoin:round;fill:none"
d="M 44.8691,23.4950
44.8691,19.6850
" /> 
<path style="fill:#000000; fill-opacity:0.0; 
stroke:#000000; stroke-width:0.1524; stroke-opacity:1; 
stroke-linecap:round; stroke-linejoin:round;fill:none"
d="M 44.8691,20.3200
48.6791,20.3200
" /> 
<path style="fill:#000000; fill-opacity:0.0; 
stroke:#000000; stroke-width:0.1524; stroke-opacity:1; 
stroke-linecap:round; stroke-linejoin:round;fill:none"
d="M 44.8691,15.8750
44.8691,12.0650
" /> 
<path style="fill:#000000; fill-opacity:0.0; 
stroke:#000000; stroke-width:0.1524; stroke-opacity:1; 
stroke-linecap:round; stroke-linejoin:round;fill:none"
d="M 44.8691,12.7000
48.6791,12.7000
" /> 
<path style="fill:#000000; fill-opacity:0.0; 
stroke:#000000; stroke-width:0.1524; stroke-opacity:1; 
stroke-linecap:round; stroke-linejoin:round;fill:none"
d="M 48.6791,48.2600
45.6311,48.2600
" /> 
<path style="fill:#000000; fill-opacity:0.0; 
stroke:#000000; stroke-width:0.1524; stroke-opacity:1; 
stroke-linecap:round; stroke-linejoin:round;fill:none"
d="M 48.6791,40.6400
45.6311,40.6400
" /> 
<path style="fill:#000000; fill-opacity:0.0; 
stroke:#000000; stroke-width:0.1524; stroke-opacity:1; 
stroke-linecap:round; stroke-linejoin:round;fill:none"
d="M 48.6791,22.8600
45.6311,22.8600
" /> 
<path style="fill:#000000; fill-opacity:0.0; 
stroke:#000000; stroke-width:0.1524; stroke-opacity:1; 
stroke-linecap:round; stroke-linejoin:round;fill:none"
d="M 48.6791,15.2400
45.6311,15.2400
" /> 
</g>
<g style="fill:#000000; fill-opacity:0.0; 
stroke:#000000; stroke-width:0.1270; stroke-opacity:1; 
stroke-linecap:round; stroke-linejoin:round;">
<path style="fill:#000000; fill-opacity:0.0; 
stroke:#000000; stroke-width:0.1270; stroke-opacity:1; 
stroke-linecap:round; stroke-linejoin:round;fill:none"
d="M 42.3291,44.4500
39.5351,44.4500
39.5351,45.9740
" /> 
<path style="fill:#000000; fill-opacity:0.0; 
stroke:#000000; stroke-width:0.1270; stroke-opacity:1; 
stroke-linecap:round; stroke-linejoin:round;fill:none"
d="M 42.3291,36.8300
39.5351,36.8300
39.5351,38.3540
" /> 
<path style="fill:#000000; fill-opacity:0.0; 
stroke:#000000; stroke-width:0.1270; stroke-opacity:1; 
stroke-linecap:round; stroke-linejoin:round;fill:none"
d="M 42.3291,24.1300
39.5351,24.1300
39.5351,22.6060
" /> 
<path style="fill:#000000; fill-opacity:0.0; 
stroke:#000000; stroke-width:0.1270; stroke-opacity:1; 
stroke-linecap:round; stroke-linejoin:round;fill:none"
d="M 34.7091,27.9400
37.2491,27.9400
37.2491,29.2100
38.5191,29.2100
" /> 
<path style="fill:#000000; fill-opacity:0.0; 
stroke:#000000; stroke-width:0.1270; stroke-opacity:1; 
stroke-linecap:round; stroke-linejoin:round;fill:none"
d="M 37.7571,11.9380
37.7571,16.0020
41.3131,13.9700
Z" /> 
<path style="fill:#000000; fill-opacity:0.0; 
stroke:#000000; stroke-width:0.1270; stroke-opacity:1; 
stroke-linecap:round; stroke-linejoin:round;fill:none"
d="M 38.0111,31.7500
37.2491,31.7500
37.2491,33.0200
34.7091,33.0200
" /> 
<path style="fill:#000000; fill-opacity:0.0; 
stroke:#000000; stroke-width:0.1270; stroke-opacity:1; 
stroke-linecap:round; stroke-linejoin:round;fill:none"
d="M 42.3291,24.1300
42.3291,16.5100
39.5351,16.5100
39.5351,14.9860
" /> 
</g>
<g style="fill:#000000; fill-opacity:1.0000; 
stroke:#000000; stroke-width:0.1524; stroke-opacity:1; 
stroke-linecap:round; stroke-linejoin:round;">
<circle cx="42.3291" cy="30.4800" r="0.2540" /> 
<circle cx="42.3291" cy="24.1300" r="0.2540" /> 
</g>
<g style="fill:#000000; fill-opacity:0.0; 
stroke:#000000; stroke-width:0.1524; stroke-opacity:1; 
stroke-linecap:round; stroke-linejoin:round;">
<circle cx="45.2501" cy="48.2600" r="0.2540" /> 
<circle cx="45.2501" cy="40.6400" r="0.2540" /> 
<circle cx="45.2501" cy="22.8600" r="0.2540" /> 
<circle cx="45.2501" cy="15.2400" r="0.2540" /> 
</g>
<g style="fill:#000000; fill-opacity:0.0; 
stroke:#000000; stroke-width:0.1270; stroke-opacity:1; 
stroke-linecap:round; stroke-linejoin:round;">
<path style="fill:#000000; fill-opacity:0.0; 
stroke:#000000; stroke-width:0.1270; stroke-opacity:1; 
stroke-linecap:round; stroke-linejoin:round;fill:none"
d="M 35.9791,46.9900
37.7571,46.9900
" /> 
<path style="fill:#000000; fill-opacity:0.0; 
stroke:#000000; stroke-width:0.1270; stroke-opacity:1; 
stroke-linecap:round; stroke-linejoin:round;fill:none"
d="M 35.9791,39.3700
37.7571,39.3700
" /> 
<path style="fill:#000000; fill-opacity:0.0; 
stroke:#000000; stroke-width:0.1270; stroke-opacity:1; 
stroke-linecap:round; stroke-linejoin:round;fill:none"
d="M 35.9791,21.5900
37.7571,21.5900
" /> 
<path style="fill:#000000; fill-opacity:0.0; 
stroke:#000000; stroke-width:0.1270; stroke-opacity:1; 
stroke-linecap:round; stroke-linejoin:round;fill:none"
d="M 35.9791,13.9700
37.7571,13.9700
" /> 
<path style="fill:#000000; fill-opacity:0.0; 
stroke:#000000; stroke-width:0.1270; stroke-opacity:1; 
stroke-linecap:round; stroke-linejoin:round;fill:none"
d="M 37.7571,44.9580
37.7571,49.0220
41.3131,46.9900
Z" /> 
<path style="fill:#000000; fill-opacity:0.0; 
stroke:#000000; stroke-width:0.1270; stroke-opacity:1; 
stroke-linecap:round; stroke-linejoin:round;fill:none"
d="M 37.7571,37.3380
37.7571,41.4020
41.3131,39.3700
Z" /> 
<path style="fill:#000000; fill-opacity:0.0; 
stroke:#000000; stroke-width:0.1270; stroke-opacity:1; 
stroke-linecap:round; stroke-linejoin:round;fill:none"
d="M 37.7571,19.5580
37.7571,23.6220
41.3131,21.5900
Z" /> 
</g>
<g style="fill:#000000; fill-opacity:0.0; 
stroke:#000000; stroke-width:0.1524; stroke-opacity:1; 
stroke-linecap:round; stroke-linejoin:round;">
<path d="M32.1691 12.7000
L29.6291 12.7000
" />
<text x="32.6771" y="13.3350"
textLength="2.5013" font-size="1.6933" lengthAdjust="spacingAndGlyphs"
text-anchor="start" opacity="0">1A</text>
<g class="stroked-text"><desc>1A</desc>
<path d="M33.7449 13.2795
L33.0192 13.2795
" />
<path d="M33.3820 13.2795
L33.3820 12.0095
" />
<path d="M33.3820 12.0095
L33.2611 12.1910
" />
<path d="M33.2611 12.1910
L33.1401 12.3119
" />
<path d="M33.1401 12.3119
L33.0192 12.3724
" />
<path d="M34.2287 12.9167
L34.8334 12.9167
" />
<path d="M34.1077 13.2795
L34.5310 12.0095
" />
<path d="M34.5310 12.0095
L34.9544 13.2795
" />
</g><text x="30.8991" y="12.4460"
textLength="1.4127" font-size="1.6933" lengthAdjust="spacingAndGlyphs"
text-anchor="middle" opacity="0">1</text>
<g class="stroked-text"><desc>1</desc>
<path d="M31.2620 12.2825
L30.5363 12.2825
" />
<path d="M30.8991 12.2825
L30.8991 11.0125
" />
<path d="M30.8991 11.0125
L30.7782 11.1940
" />
<path d="M30.7782 11.1940
L30.6572 11.3149
" />
<path d="M30.6572 11.3149
L30.5363 11.3754
" />
</g><path d="M52.4891 38.1000
L55.0291 38.1000
" />
<text x="51.9811" y="38.7350"
textLength="2.5013" font-size="1.6933" lengthAdjust="spacingAndGlyphs"
text-anchor="end" opacity="0">3Y</text>
<g class="stroked-text"><desc>3Y</desc>
<path d="M49.7642 37.4095
L50.5504 37.4095
" />
<path d="M50.5504 37.4095
L50.1270 37.8933
" />
<path d="M50.1270 37.8933
L50.3085 37.8933
" />
<path d="M50.3085 37.8933
L50.4294 37.9538
" />
<path d="M50.4294 37.9538
L50.4899 38.0143
" />
<path d="M50.4899 38.0143
L50.5504 38.1352
" />
<path d="M50.5504 38.1352
L50.5504 38.4376
" />
<path d="M50.5504 38.4376
L50.4899 38.5586
" />
<path d="M50.4899 38.5586
L50.4294 38.6191
" />
<path d="M50.4294 38.6191
L50.3085 38.6795
" />
<path d="M50.3085 38.6795
L49.9456 38.6795
" />
<path d="M49.9456 38.6795
L49.8247 38.6191
" />
<path d="M49.8247 38.6191
L49.7642 38.5586
" />
<path d="M51.3365 38.0748
L51.3365 38.6795
" />
<path d="M50.9132 37.4095
L51.3365 38.0748
" />
<path d="M51.3365 38.0748
L51.7599 37.4095
" />
</g><text x="53.7591" y="37.8460"
textLength="2.6222" font-size="1.6933" lengthAdjust="spacingAndGlyphs"
text-anchor="middle" opacity="0">10</text>
<g class="stroked-text"><desc>10</desc>
<path d="M53.5172 37.6825
L52.7915 37.6825
" />
<path d="M53.1543 37.6825
L53.1543 36.4125
" />
<path d="M53.1543 36.4125
L53.0334 36.5940
" />
<path d="M53.0334 36.5940
L52.9124 36.7149
" />
<path d="M52.9124 36.7149
L52.7915 36.7754
" />
<path d="M54.3033 36.4125
L54.4243 36.4125
" />
<path d="M54.4243 36.4125
L54.5452 36.4730
" />
<path d="M54.5452 36.4730
L54.6057 36.5335
" />
<path d="M54.6057 36.5335
L54.6662 36.6544
" />
<path d="M54.6662 36.6544
L54.7267 36.8963
" />
<path d="M54.7267 36.8963
L54.7267 37.1987
" />
<path d="M54.7267 37.1987
L54.6662 37.4406
" />
<path d="M54.6662 37.4406
L54.6057 37.5616
" />
<path d="M54.6057 37.5616
L54.5452 37.6221
" />
<path d="M54.5452 37.6221
L54.4243 37.6825
" />
<path d="M54.4243 37.6825
L54.3033 37.6825
" />
<path d="M54.3033 37.6825
L54.1824 37.6221
" />
<path d="M54.1824 37.6221
L54.1219 37.5616
" />
<path d="M54.1219 37.5616
L54.0614 37.4406
" />
<path d="M54.0614 37.4406
L54.0010 37.1987
" />
<path d="M54.0010 37.1987
L54.0010 36.8963
" />
<path d="M54.0010 36.8963
L54.0614 36.6544
" />
<path d="M54.0614 36.6544
L54.1219 36.5335
" />
<path d="M54.1219 36.5335
L54.1824 36.4730
" />
<path d="M54.1824 36.4730
L54.3033 36.4125
" />
</g><path d="M52.4891 40.6400
L55.0291 40.6400
" />
<text x="51.9811" y="41.2750"
textLength="2.6222" font-size="1.6933" lengthAdjust="spacingAndGlyphs"
text-anchor="end" opacity="0">3Z</text>
<g class="stroked-text"><desc>3Z</desc>
<path d="M49.6433 39.9495
L50.4295 39.9495
" />
<path d="M50.4295 39.9495
L50.0061 40.4333
" />
<path d="M50.0061 40.4333
L50.1876 40.4333
" />
<path d="M50.1876 40.4333
L50.3085 40.4938
" />
<path d="M50.3085 40.4938
L50.3690 40.5543
" />
<path d="M50.3690 40.5543
L50.4295 40.6752
" />
<path d="M50.4295 40.6752
L50.4295 40.9776
" />
<path d="M50.4295 40.9776
L50.3690 41.0986
" />
<path d="M50.3690 41.0986
L50.3085 41.1591
" />
<path d="M50.3085 41.1591
L50.1876 41.2195
" />
<path d="M50.1876 41.2195
L49.8247 41.2195
" />
<path d="M49.8247 41.2195
L49.7038 41.1591
" />
<path d="M49.7038 41.1591
L49.6433 41.0986
" />
<path d="M50.8528 39.9495
L51.6994 39.9495
" />
<path d="M51.6994 39.9495
L50.8528 41.2195
" />
<path d="M50.8528 41.2195
L51.6994 41.2195
" />
</g><text x="53.7591" y="40.3860"
textLength="2.6222" font-size="1.6933" lengthAdjust="spacingAndGlyphs"
text-anchor="middle" opacity="0">11</text>
<g class="stroked-text"><desc>11</desc>
<path d="M53.5172 40.2225
L52.7915 40.2225
" />
<path d="M53.1543 40.2225
L53.1543 38.9525
" />
<path d="M53.1543 38.9525
L53.0334 39.1340
" />
<path d="M53.0334 39.1340
L52.9124 39.2549
" />
<path d="M52.9124 39.2549
L52.7915 39.3154
" />
<path d="M54.7267 40.2225
L54.0010 40.2225
" />
<path d="M54.3638 40.2225
L54.3638 38.9525
" />
<path d="M54.3638 38.9525
L54.2429 39.1340
" />
<path d="M54.2429 39.1340
L54.1219 39.2549
" />
<path d="M54.1219 39.2549
L54.0010 39.3154
" />
</g><path d="M32.1691 33.0200
L29.6291 33.0200
" />
<text x="32.6771" y="33.6550"
textLength="1.4732" font-size="1.6933" lengthAdjust="spacingAndGlyphs"
text-anchor="start" opacity="0">~{G}</text>
<g class="stroked-text"><desc>~{G}</desc>
<path d="M33.7449 32.3900
L33.6239 32.3295
" />
<path d="M33.6239 32.3295
L33.4425 32.3295
" />
<path d="M33.4425 32.3295
L33.2611 32.3900
" />
<path d="M33.2611 32.3900
L33.1401 32.5110
" />
<path d="M33.1401 32.5110
L33.0796 32.6319
" />
<path d="M33.0796 32.6319
L33.0192 32.8738
" />
<path d="M33.0192 32.8738
L33.0192 33.0552
" />
<path d="M33.0192 33.0552
L33.0796 33.2971
" />
<path d="M33.0796 33.2971
L33.1401 33.4181
" />
<path d="M33.1401 33.4181
L33.2611 33.5391
" />
<path d="M33.2611 33.5391
L33.4425 33.5995
" />
<path d="M33.4425 33.5995
L33.5634 33.5995
" />
<path d="M33.5634 33.5995
L33.7449 33.5391
" />
<path d="M33.7449 33.5391
L33.8053 33.4786
" />
<path d="M33.8053 33.4786
L33.8053 33.0552
" />
<path d="M33.8053 33.0552
L33.5634 33.0552
" />
<path d="M32.9043 31.9770
L33.9203 31.9770
" />
</g><text x="30.8991" y="32.7660"
textLength="2.6222" font-size="1.6933" lengthAdjust="spacingAndGlyphs"
text-anchor="middle" opacity="0">12</text>
<g class="stroked-text"><desc>12</desc>
<path d="M30.6572 32.6025
L29.9315 32.6025
" />
<path d="M30.2943 32.6025
L30.2943 31.3325
" />
<path d="M30.2943 31.3325
L30.1734 31.5140
" />
<path d="M30.1734 31.5140
L30.0524 31.6349
" />
<path d="M30.0524 31.6349
L29.9315 31.6954
" />
<path d="M31.1410 31.4535
L31.2014 31.3930
" />
<path d="M31.2014 31.3930
L31.3224 31.3325
" />
<path d="M31.3224 31.3325
L31.6248 31.3325
" />
<path d="M31.6248 31.3325
L31.7457 31.3930
" />
<path d="M31.7457 31.3930
L31.8062 31.4535
" />
<path d="M31.8062 31.4535
L31.8667 31.5744
" />
<path d="M31.8667 31.5744
L31.8667 31.6954
" />
<path d="M31.8667 31.6954
L31.8062 31.8768
" />
<path d="M31.8062 31.8768
L31.0805 32.6025
" />
<path d="M31.0805 32.6025
L31.8667 32.6025
" />
</g><path d="M52.4891 48.2600
L55.0291 48.2600
" />
<text x="51.9811" y="48.8950"
textLength="2.6222" font-size="1.6933" lengthAdjust="spacingAndGlyphs"
text-anchor="end" opacity="0">4Z</text>
<g class="stroked-text"><desc>4Z</desc>
<path d="M50.3085 47.9929
L50.3085 48.8395
" />
<path d="M50.0061 47.5091
L49.7038 48.4162
" />
<path d="M49.7038 48.4162
L50.4899 48.4162
" />
<path d="M50.8528 47.5695
L51.6994 47.5695
" />
<path d="M51.6994 47.5695
L50.8528 48.8395
" />
<path d="M50.8528 48.8395
L51.6994 48.8395
" />
</g><text x="53.7591" y="48.0060"
textLength="2.6222" font-size="1.6933" lengthAdjust="spacingAndGlyphs"
text-anchor="middle" opacity="0">13</text>
<g class="stroked-text"><desc>13</desc>
<path d="M53.5172 47.8425
L52.7915 47.8425
" />
<path d="M53.1543 47.8425
L53.1543 46.5725
" />
<path d="M53.1543 46.5725
L53.0334 46.7540
" />
<path d="M53.0334 46.7540
L52.9124 46.8749
" />
<path d="M52.9124 46.8749
L52.7915 46.9354
" />
<path d="M53.9405 46.5725
L54.7267 46.5725
" />
<path d="M54.7267 46.5725
L54.3033 47.0563
" />
<path d="M54.3033 47.0563
L54.4848 47.0563
" />
<path d="M54.4848 47.0563
L54.6057 47.1168
" />
<path d="M54.6057 47.1168
L54.6662 47.1773
" />
<path d="M54.6662 47.1773
L54.7267 47.2982
" />
<path d="M54.7267 47.2982
L54.7267 47.6006
" />
<path d="M54.7267 47.6006
L54.6662 47.7216
" />
<path d="M54.6662 47.7216
L54.6057 47.7821
" />
<path d="M54.6057 47.7821
L54.4848 47.8425
" />
<path d="M54.4848 47.8425
L54.1219 47.8425
" />
<path d="M54.1219 47.8425
L54.0010 47.7821
" />
<path d="M54.0010 47.7821
L53.9405 47.7216
" />
</g><path d="M52.4891 45.7200
L55.0291 45.7200
" />
<text x="51.9811" y="46.3550"
textLength="2.5013" font-size="1.6933" lengthAdjust="spacingAndGlyphs"
text-anchor="end" opacity="0">4Y</text>
<g class="stroked-text"><desc>4Y</desc>
<path d="M50.4294 45.4529
L50.4294 46.2995
" />
<path d="M50.1270 44.9691
L49.8247 45.8762
" />
<path d="M49.8247 45.8762
L50.6108 45.8762
" />
<path d="M51.3365 45.6948
L51.3365 46.2995
" />
<path d="M50.9132 45.0295
L51.3365 45.6948
" />
<path d="M51.3365 45.6948
L51.7599 45.0295
" />
</g><text x="53.7591" y="45.4660"
textLength="2.6222" font-size="1.6933" lengthAdjust="spacingAndGlyphs"
text-anchor="middle" opacity="0">14</text>
<g class="stroked-text"><desc>14</desc>
<path d="M53.5172 45.3025
L52.7915 45.3025
" />
<path d="M53.1543 45.3025
L53.1543 44.0325
" />
<path d="M53.1543 44.0325
L53.0334 44.2140
" />
<path d="M53.0334 44.2140
L52.9124 44.3349
" />
<path d="M52.9124 44.3349
L52.7915 44.3954
" />
<path d="M54.6057 44.4559
L54.6057 45.3025
" />
<path d="M54.3033 43.9721
L54.0010 44.8792
" />
<path d="M54.0010 44.8792
L54.7871 44.8792
" />
</g><path d="M32.1691 48.2600
L29.6291 48.2600
" />
<text x="32.6771" y="48.8950"
textLength="2.5013" font-size="1.6933" lengthAdjust="spacingAndGlyphs"
text-anchor="start" opacity="0">4A</text>
<g class="stroked-text"><desc>4A</desc>
<path d="M33.6239 47.9929
L33.6239 48.8395
" />
<path d="M33.3215 47.5091
L33.0192 48.4162
" />
<path d="M33.0192 48.4162
L33.8053 48.4162
" />
<path d="M34.2287 48.4767
L34.8334 48.4767
" />
<path d="M34.1077 48.8395
L34.5310 47.5695
" />
<path d="M34.5310 47.5695
L34.9544 48.8395
" />
</g><text x="30.8991" y="48.0060"
textLength="2.6222" font-size="1.6933" lengthAdjust="spacingAndGlyphs"
text-anchor="middle" opacity="0">15</text>
<g class="stroked-text"><desc>15</desc>
<path d="M30.6572 47.8425
L29.9315 47.8425
" />
<path d="M30.2943 47.8425
L30.2943 46.5725
" />
<path d="M30.2943 46.5725
L30.1734 46.7540
" />
<path d="M30.1734 46.7540
L30.0524 46.8749
" />
<path d="M30.0524 46.8749
L29.9315 46.9354
" />
<path d="M31.8062 46.5725
L31.2014 46.5725
" />
<path d="M31.2014 46.5725
L31.1410 47.1773
" />
<path d="M31.1410 47.1773
L31.2014 47.1168
" />
<path d="M31.2014 47.1168
L31.3224 47.0563
" />
<path d="M31.3224 47.0563
L31.6248 47.0563
" />
<path d="M31.6248 47.0563
L31.7457 47.1168
" />
<path d="M31.7457 47.1168
L31.8062 47.1773
" />
<path d="M31.8062 47.1773
L31.8667 47.2982
" />
<path d="M31.8667 47.2982
L31.8667 47.6006
" />
<path d="M31.8667 47.6006
L31.8062 47.7216
" />
<path d="M31.8062 47.7216
L31.7457 47.7821
" />
<path d="M31.7457 47.7821
L31.6248 47.8425
" />
<path d="M31.6248 47.8425
L31.3224 47.8425
" />
<path d="M31.3224 47.8425
L31.2014 47.7821
" />
<path d="M31.2014 47.7821
L31.1410 47.7216
" />
</g><path d="M42.3291 7.6200
L42.3291 5.0800
" />
<g transform="rotate(-90.000000 42.3291 8.1280)">
<text x="42.3291" y="8.7630"
textLength="3.8318" font-size="1.6933" lengthAdjust="spacingAndGlyphs"
text-anchor="end" opacity="0">VDD</text>
</g>
<g class="stroked-text"><desc>VDD</desc>
<path d="M41.6386 11.7358
L42.9086 11.3125
" />
<path d="M42.9086 11.3125
L41.6386 10.8891
" />
<path d="M42.9086 10.4658
L41.6386 10.4658
" />
<path d="M41.6386 10.4658
L41.6386 10.1634
" />
<path d="M41.6386 10.1634
L41.6991 9.9820
" />
<path d="M41.6991 9.9820
L41.8201 9.8610
" />
<path d="M41.8201 9.8610
L41.9410 9.8005
" />
<path d="M41.9410 9.8005
L42.1829 9.7401
" />
<path d="M42.1829 9.7401
L42.3643 9.7401
" />
<path d="M42.3643 9.7401
L42.6062 9.8005
" />
<path d="M42.6062 9.8005
L42.7272 9.8610
" />
<path d="M42.7272 9.8610
L42.8482 9.9820
" />
<path d="M42.8482 9.9820
L42.9086 10.1634
" />
<path d="M42.9086 10.1634
L42.9086 10.4658
" />
<path d="M42.9086 9.1958
L41.6386 9.1958
" />
<path d="M41.6386 9.1958
L41.6386 8.8934
" />
<path d="M41.6386 8.8934
L41.6991 8.7120
" />
<path d="M41.6991 8.7120
L41.8201 8.5910
" />
<path d="M41.8201 8.5910
L41.9410 8.5305
" />
<path d="M41.9410 8.5305
L42.1829 8.4701
" />
<path d="M42.1829 8.4701
L42.3643 8.4701
" />
<path d="M42.3643 8.4701
L42.6062 8.5305
" />
<path d="M42.6062 8.5305
L42.7272 8.5910
" />
<path d="M42.7272 8.5910
L42.8482 8.7120
" />
<path d="M42.8482 8.7120
L42.9086 8.8934
" />
<path d="M42.9086 8.8934
L42.9086 9.1958
" />
</g><g transform="rotate(-90.000000 42.0751 6.3500)">
<text x="42.0751" y="6.3500"
textLength="2.6222" font-size="1.6933" lengthAdjust="spacingAndGlyphs"
text-anchor="middle" opacity="0">16</text>
</g>
<g class="stroked-text"><desc>16</desc>
<path d="M41.9116 6.5918
L41.9116 7.3175
" />
<path d="M41.9116 6.9547
L40.6416 6.9547
" />
<path d="M40.6416 6.9547
L40.8231 7.0756
" />
<path d="M40.8231 7.0756
L40.9440 7.1966
" />
<path d="M40.9440 7.1966
L41.0045 7.3175
" />
<path d="M40.6416 5.5033
L40.6416 5.7452
" />
<path d="M40.6416 5.7452
L40.7021 5.8661
" />
<path d="M40.7021 5.8661
L40.7626 5.9266
" />
<path d="M40.7626 5.9266
L40.9440 6.0476
" />
<path d="M40.9440 6.0476
L41.1859 6.1080
" />
<path d="M41.1859 6.1080
L41.6697 6.1080
" />
<path d="M41.6697 6.1080
L41.7907 6.0476
" />
<path d="M41.7907 6.0476
L41.8512 5.9871
" />
<path d="M41.8512 5.9871
L41.9116 5.8661
" />
<path d="M41.9116 5.8661
L41.9116 5.6242
" />
<path d="M41.9116 5.6242
L41.8512 5.5033
" />
<path d="M41.8512 5.5033
L41.7907 5.4428
" />
<path d="M41.7907 5.4428
L41.6697 5.3823
" />
<path d="M41.6697 5.3823
L41.3673 5.3823
" />
<path d="M41.3673 5.3823
L41.2464 5.4428
" />
<path d="M41.2464 5.4428
L41.1859 5.5033
" />
<path d="M41.1859 5.5033
L41.1254 5.6242
" />
<path d="M41.1254 5.6242
L41.1254 5.8661
" />
<path d="M41.1254 5.8661
L41.1859 5.9871
" />
<path d="M41.1859 5.9871
L41.2464 6.0476
" />
<path d="M41.2464 6.0476
L41.3673 6.1080
" />
</g><path d="M52.4891 12.7000
L55.0291 12.7000
" />
<text x="51.9811" y="13.3350"
textLength="2.5013" font-size="1.6933" lengthAdjust="spacingAndGlyphs"
text-anchor="end" opacity="0">1Y</text>
<g class="stroked-text"><desc>1Y</desc>
<path d="M50.5504 13.2795
L49.8247 13.2795
" />
<path d="M50.1875 13.2795
L50.1875 12.0095
" />
<path d="M50.1875 12.0095
L50.0666 12.1910
" />
<path d="M50.0666 12.1910
L49.9456 12.3119
" />
<path d="M49.9456 12.3119
L49.8247 12.3724
" />
<path d="M51.3365 12.6748
L51.3365 13.2795
" />
<path d="M50.9132 12.0095
L51.3365 12.6748
" />
<path d="M51.3365 12.6748
L51.7599 12.0095
" />
</g><text x="53.7591" y="12.4460"
textLength="1.4127" font-size="1.6933" lengthAdjust="spacingAndGlyphs"
text-anchor="middle" opacity="0">2</text>
<g class="stroked-text"><desc>2</desc>
<path d="M53.3963 11.1335
L53.4567 11.0730
" />
<path d="M53.4567 11.0730
L53.5777 11.0125
" />
<path d="M53.5777 11.0125
L53.8801 11.0125
" />
<path d="M53.8801 11.0125
L54.0010 11.0730
" />
<path d="M54.0010 11.0730
L54.0615 11.1335
" />
<path d="M54.0615 11.1335
L54.1220 11.2544
" />
<path d="M54.1220 11.2544
L54.1220 11.3754
" />
<path d="M54.1220 11.3754
L54.0615 11.5568
" />
<path d="M54.0615 11.5568
L53.3358 12.2825
" />
<path d="M53.3358 12.2825
L54.1220 12.2825
" />
</g><path d="M52.4891 15.2400
L55.0291 15.2400
" />
<text x="51.9811" y="15.8750"
textLength="2.6222" font-size="1.6933" lengthAdjust="spacingAndGlyphs"
text-anchor="end" opacity="0">1Z</text>
<g class="stroked-text"><desc>1Z</desc>
<path d="M50.4295 15.8195
L49.7038 15.8195
" />
<path d="M50.0666 15.8195
L50.0666 14.5495
" />
<path d="M50.0666 14.5495
L49.9457 14.7310
" />
<path d="M49.9457 14.7310
L49.8247 14.8519
" />
<path d="M49.8247 14.8519
L49.7038 14.9124
" />
<path d="M50.8528 14.5495
L51.6994 14.5495
" />
<path d="M51.6994 14.5495
L50.8528 15.8195
" />
<path d="M50.8528 15.8195
L51.6994 15.8195
" />
</g><text x="53.7591" y="14.9860"
textLength="1.4127" font-size="1.6933" lengthAdjust="spacingAndGlyphs"
text-anchor="middle" opacity="0">3</text>
<g class="stroked-text"><desc>3</desc>
<path d="M53.3358 13.5525
L54.1220 13.5525
" />
<path d="M54.1220 13.5525
L53.6986 14.0363
" />
<path d="M53.6986 14.0363
L53.8801 14.0363
" />
<path d="M53.8801 14.0363
L54.0010 14.0968
" />
<path d="M54.0010 14.0968
L54.0615 14.1573
" />
<path d="M54.0615 14.1573
L54.1220 14.2782
" />
<path d="M54.1220 14.2782
L54.1220 14.5806
" />
<path d="M54.1220 14.5806
L54.0615 14.7016
" />
<path d="M54.0615 14.7016
L54.0010 14.7621
" />
<path d="M54.0010 14.7621
L53.8801 14.8225
" />
<path d="M53.8801 14.8225
L53.5172 14.8225
" />
<path d="M53.5172 14.8225
L53.3963 14.7621
" />
<path d="M53.3963 14.7621
L53.3358 14.7016
" />
</g><path d="M32.1691 27.9400
L29.6291 27.9400
" />
<text x="32.6771" y="28.5750"
textLength="1.4732" font-size="1.6933" lengthAdjust="spacingAndGlyphs"
text-anchor="start" opacity="0">G</text>
<g class="stroked-text"><desc>G</desc>
<path d="M33.7449 27.3100
L33.6239 27.2495
" />
<path d="M33.6239 27.2495
L33.4425 27.2495
" />
<path d="M33.4425 27.2495
L33.2611 27.3100
" />
<path d="M33.2611 27.3100
L33.1401 27.4310
" />
<path d="M33.1401 27.4310
L33.0796 27.5519
" />
<path d="M33.0796 27.5519
L33.0192 27.7938
" />
<path d="M33.0192 27.7938
L33.0192 27.9752
" />
<path d="M33.0192 27.9752
L33.0796 28.2171
" />
<path d="M33.0796 28.2171
L33.1401 28.3381
" />
<path d="M33.1401 28.3381
L33.2611 28.4591
" />
<path d="M33.2611 28.4591
L33.4425 28.5195
" />
<path d="M33.4425 28.5195
L33.5634 28.5195
" />
<path d="M33.5634 28.5195
L33.7449 28.4591
" />
<path d="M33.7449 28.4591
L33.8053 28.3986
" />
<path d="M33.8053 28.3986
L33.8053 27.9752
" />
<path d="M33.8053 27.9752
L33.5634 27.9752
" />
</g><text x="30.8991" y="27.6860"
textLength="1.4127" font-size="1.6933" lengthAdjust="spacingAndGlyphs"
text-anchor="middle" opacity="0">4</text>
<g class="stroked-text"><desc>4</desc>
<path d="M31.1410 26.6759
L31.1410 27.5225
" />
<path d="M30.8386 26.1921
L30.5363 27.0992
" />
<path d="M30.5363 27.0992
L31.3224 27.0992
" />
</g><path d="M52.4891 22.8600
L55.0291 22.8600
" />
<text x="51.9811" y="23.4950"
textLength="2.6222" font-size="1.6933" lengthAdjust="spacingAndGlyphs"
text-anchor="end" opacity="0">2Z</text>
<g class="stroked-text"><desc>2Z</desc>
<path d="M49.7038 22.2905
L49.7642 22.2300
" />
<path d="M49.7642 22.2300
L49.8852 22.1695
" />
<path d="M49.8852 22.1695
L50.1876 22.1695
" />
<path d="M50.1876 22.1695
L50.3085 22.2300
" />
<path d="M50.3085 22.2300
L50.3690 22.2905
" />
<path d="M50.3690 22.2905
L50.4295 22.4114
" />
<path d="M50.4295 22.4114
L50.4295 22.5324
" />
<path d="M50.4295 22.5324
L50.3690 22.7138
" />
<path d="M50.3690 22.7138
L49.6433 23.4395
" />
<path d="M49.6433 23.4395
L50.4295 23.4395
" />
<path d="M50.8528 22.1695
L51.6994 22.1695
" />
<path d="M51.6994 22.1695
L50.8528 23.4395
" />
<path d="M50.8528 23.4395
L51.6994 23.4395
" />
</g><text x="53.7591" y="22.6060"
textLength="1.4127" font-size="1.6933" lengthAdjust="spacingAndGlyphs"
text-anchor="middle" opacity="0">5</text>
<g class="stroked-text"><desc>5</desc>
<path d="M54.0615 21.1725
L53.4567 21.1725
" />
<path d="M53.4567 21.1725
L53.3963 21.7773
" />
<path d="M53.3963 21.7773
L53.4567 21.7168
" />
<path d="M53.4567 21.7168
L53.5777 21.6563
" />
<path d="M53.5777 21.6563
L53.8801 21.6563
" />
<path d="M53.8801 21.6563
L54.0010 21.7168
" />
<path d="M54.0010 21.7168
L54.0615 21.7773
" />
<path d="M54.0615 21.7773
L54.1220 21.8982
" />
<path d="M54.1220 21.8982
L54.1220 22.2006
" />
<path d="M54.1220 22.2006
L54.0615 22.3216
" />
<path d="M54.0615 22.3216
L54.0010 22.3821
" />
<path d="M54.0010 22.3821
L53.8801 22.4425
" />
<path d="M53.8801 22.4425
L53.5777 22.4425
" />
<path d="M53.5777 22.4425
L53.4567 22.3821
" />
<path d="M53.4567 22.3821
L53.3963 22.3216
" />
</g><path d="M52.4891 20.3200
L55.0291 20.3200
" />
<text x="51.9811" y="20.9550"
textLength="2.5013" font-size="1.6933" lengthAdjust="spacingAndGlyphs"
text-anchor="end" opacity="0">2Y</text>
<g class="stroked-text"><desc>2Y</desc>
<path d="M49.8247 19.7505
L49.8851 19.6900
" />
<path d="M49.8851 19.6900
L50.0061 19.6295
" />
<path d="M50.0061 19.6295
L50.3085 19.6295
" />
<path d="M50.3085 19.6295
L50.4294 19.6900
" />
<path d="M50.4294 19.6900
L50.4899 19.7505
" />
<path d="M50.4899 19.7505
L50.5504 19.8714
" />
<path d="M50.5504 19.8714
L50.5504 19.9924
" />
<path d="M50.5504 19.9924
L50.4899 20.1738
" />
<path d="M50.4899 20.1738
L49.7642 20.8995
" />
<path d="M49.7642 20.8995
L50.5504 20.8995
" />
<path d="M51.3365 20.2948
L51.3365 20.8995
" />
<path d="M50.9132 19.6295
L51.3365 20.2948
" />
<path d="M51.3365 20.2948
L51.7599 19.6295
" />
</g><text x="53.7591" y="20.0660"
textLength="1.4127" font-size="1.6933" lengthAdjust="spacingAndGlyphs"
text-anchor="middle" opacity="0">6</text>
<g class="stroked-text"><desc>6</desc>
<path d="M54.0010 18.6325
L53.7591 18.6325
" />
<path d="M53.7591 18.6325
L53.6382 18.6930
" />
<path d="M53.6382 18.6930
L53.5777 18.7535
" />
<path d="M53.5777 18.7535
L53.4567 18.9349
" />
<path d="M53.4567 18.9349
L53.3963 19.1768
" />
<path d="M53.3963 19.1768
L53.3963 19.6606
" />
<path d="M53.3963 19.6606
L53.4567 19.7816
" />
<path d="M53.4567 19.7816
L53.5172 19.8421
" />
<path d="M53.5172 19.8421
L53.6382 19.9025
" />
<path d="M53.6382 19.9025
L53.8801 19.9025
" />
<path d="M53.8801 19.9025
L54.0010 19.8421
" />
<path d="M54.0010 19.8421
L54.0615 19.7816
" />
<path d="M54.0615 19.7816
L54.1220 19.6606
" />
<path d="M54.1220 19.6606
L54.1220 19.3582
" />
<path d="M54.1220 19.3582
L54.0615 19.2373
" />
<path d="M54.0615 19.2373
L54.0010 19.1768
" />
<path d="M54.0010 19.1768
L53.8801 19.1163
" />
<path d="M53.8801 19.1163
L53.6382 19.1163
" />
<path d="M53.6382 19.1163
L53.5172 19.1768
" />
<path d="M53.5172 19.1768
L53.4567 19.2373
" />
<path d="M53.4567 19.2373
L53.3963 19.3582
" />
</g><path d="M32.1691 20.3200
L29.6291 20.3200
" />
<text x="32.6771" y="20.9550"
textLength="2.5013" font-size="1.6933" lengthAdjust="spacingAndGlyphs"
text-anchor="start" opacity="0">2A</text>
<g class="stroked-text"><desc>2A</desc>
<path d="M33.0192 19.7505
L33.0796 19.6900
" />
<path d="M33.0796 19.6900
L33.2006 19.6295
" />
<path d="M33.2006 19.6295
L33.5030 19.6295
" />
<path d="M33.5030 19.6295
L33.6239 19.6900
" />
<path d="M33.6239 19.6900
L33.6844 19.7505
" />
<path d="M33.6844 19.7505
L33.7449 19.8714
" />
<path d="M33.7449 19.8714
L33.7449 19.9924
" />
<path d="M33.7449 19.9924
L33.6844 20.1738
" />
<path d="M33.6844 20.1738
L32.9587 20.8995
" />
<path d="M32.9587 20.8995
L33.7449 20.8995
" />
<path d="M34.2287 20.5367
L34.8334 20.5367
" />
<path d="M34.1077 20.8995
L34.5310 19.6295
" />
<path d="M34.5310 19.6295
L34.9544 20.8995
" />
</g><text x="30.8991" y="20.0660"
textLength="1.4127" font-size="1.6933" lengthAdjust="spacingAndGlyphs"
text-anchor="middle" opacity="0">7</text>
<g class="stroked-text"><desc>7</desc>
<path d="M30.4758 18.6325
L31.3224 18.6325
" />
<path d="M31.3224 18.6325
L30.7782 19.9025
" />
</g><path d="M42.3291 53.3400
L42.3291 55.8800
" />
<g transform="rotate(-90.000000 42.3291 52.8320)">
<text x="42.3291" y="53.4670"
textLength="4.0737" font-size="1.6933" lengthAdjust="spacingAndGlyphs"
text-anchor="start" opacity="0">GND</text>
</g>
<g class="stroked-text"><desc>GND</desc>
<path d="M41.6991 51.7641
L41.6386 51.8851
" />
<path d="M41.6386 51.8851
L41.6386 52.0665
" />
<path d="M41.6386 52.0665
L41.6991 52.2479
" />
<path d="M41.6991 52.2479
L41.8201 52.3689
" />
<path d="M41.8201 52.3689
L41.9410 52.4294
" />
<path d="M41.9410 52.4294
L42.1829 52.4898
" />
<path d="M42.1829 52.4898
L42.3643 52.4898
" />
<path d="M42.3643 52.4898
L42.6062 52.4294
" />
<path d="M42.6062 52.4294
L42.7272 52.3689
" />
<path d="M42.7272 52.3689
L42.8482 52.2479
" />
<path d="M42.8482 52.2479
L42.9086 52.0665
" />
<path d="M42.9086 52.0665
L42.9086 51.9456
" />
<path d="M42.9086 51.9456
L42.8482 51.7641
" />
<path d="M42.8482 51.7641
L42.7877 51.7037
" />
<path d="M42.7877 51.7037
L42.3643 51.7037
" />
<path d="M42.3643 51.7037
L42.3643 51.9456
" />
<path d="M42.9086 51.1594
L41.6386 51.1594
" />
<path d="M41.6386 51.1594
L42.9086 50.4337
" />
<path d="M42.9086 50.4337
L41.6386 50.4337
" />
<path d="M42.9086 49.8289
L41.6386 49.8289
" />
<path d="M41.6386 49.8289
L41.6386 49.5265
" />
<path d="M41.6386 49.5265
L41.6991 49.3451
" />
<path d="M41.6991 49.3451
L41.8201 49.2241
" />
<path d="M41.8201 49.2241
L41.9410 49.1636
" />
<path d="M41.9410 49.1636
L42.1829 49.1032
" />
<path d="M42.1829 49.1032
L42.3643 49.1032
" />
<path d="M42.3643 49.1032
L42.6062 49.1636
" />
<path d="M42.6062 49.1636
L42.7272 49.2241
" />
<path d="M42.7272 49.2241
L42.8482 49.3451
" />
<path d="M42.8482 49.3451
L42.9086 49.5265
" />
<path d="M42.9086 49.5265
L42.9086 49.8289
" />
</g><g transform="rotate(-90.000000 42.0751 54.6100)">
<text x="42.0751" y="54.6100"
textLength="1.4127" font-size="1.6933" lengthAdjust="spacingAndGlyphs"
text-anchor="middle" opacity="0">8</text>
</g>
<g class="stroked-text"><desc>8</desc>
<path d="M41.1859 54.7308
L41.1254 54.8518
" />
<path d="M41.1254 54.8518
L41.0650 54.9123
" />
<path d="M41.0650 54.9123
L40.9440 54.9727
" />
<path d="M40.9440 54.9727
L40.8835 54.9727
" />
<path d="M40.8835 54.9727
L40.7626 54.9123
" />
<path d="M40.7626 54.9123
L40.7021 54.8518
" />
<path d="M40.7021 54.8518
L40.6416 54.7308
" />
<path d="M40.6416 54.7308
L40.6416 54.4889
" />
<path d="M40.6416 54.4889
L40.7021 54.3680
" />
<path d="M40.7021 54.3680
L40.7626 54.3075
" />
<path d="M40.7626 54.3075
L40.8835 54.2470
" />
<path d="M40.8835 54.2470
L40.9440 54.2470
" />
<path d="M40.9440 54.2470
L41.0650 54.3075
" />
<path d="M41.0650 54.3075
L41.1254 54.3680
" />
<path d="M41.1254 54.3680
L41.1859 54.4889
" />
<path d="M41.1859 54.4889
L41.1859 54.7308
" />
<path d="M41.1859 54.7308
L41.2464 54.8518
" />
<path d="M41.2464 54.8518
L41.3069 54.9123
" />
<path d="M41.3069 54.9123
L41.4278 54.9727
" />
<path d="M41.4278 54.9727
L41.6697 54.9727
" />
<path d="M41.6697 54.9727
L41.7907 54.9123
" />
<path d="M41.7907 54.9123
L41.8512 54.8518
" />
<path d="M41.8512 54.8518
L41.9116 54.7308
" />
<path d="M41.9116 54.7308
L41.9116 54.4889
" />
<path d="M41.9116 54.4889
L41.8512 54.3680
" />
<path d="M41.8512 54.3680
L41.7907 54.3075
" />
<path d="M41.7907 54.3075
L41.6697 54.2470
" />
<path d="M41.6697 54.2470
L41.4278 54.2470
" />
<path d="M41.4278 54.2470
L41.3069 54.3075
" />
<path d="M41.3069 54.3075
L41.2464 54.3680
" />
<path d="M41.2464 54.3680
L41.1859 54.4889
" />
</g><path d="M32.1691 40.6400
L29.6291 40.6400
" />
<text x="32.6771" y="41.2750"
textLength="2.5013" font-size="1.6933" lengthAdjust="spacingAndGlyphs"
text-anchor="start" opacity="0">3A</text>
<g class="stroked-text"><desc>3A</desc>
<path d="M32.9587 39.9495
L33.7449 39.9495
" />
<path d="M33.7449 39.9495
L33.3215 40.4333
" />
<path d="M33.3215 40.4333
L33.5030 40.4333
" />
<path d="M33.5030 40.4333
L33.6239 40.4938
" />
<path d="M33.6239 40.4938
L33.6844 40.5543
" />
<path d="M33.6844 40.5543
L33.7449 40.6752
" />
<path d="M33.7449 40.6752
L33.7449 40.9776
" />
<path d="M33.7449 40.9776
L33.6844 41.0986
" />
<path d="M33.6844 41.0986
L33.6239 41.1591
" />
<path d="M33.6239 41.1591
L33.5030 41.2195
" />
<path d="M33.5030 41.2195
L33.1401 41.2195
" />
<path d="M33.1401 41.2195
L33.0192 41.1591
" />
<path d="M33.0192 41.1591
L32.9587 41.0986
" />
<path d="M34.2287 40.8567
L34.8334 40.8567
" />
<path d="M34.1077 41.2195
L34.5310 39.9495
" />
<path d="M34.5310 39.9495
L34.9544 41.2195
" />
</g><text x="30.8991" y="40.3860"
textLength="1.4127" font-size="1.6933" lengthAdjust="spacingAndGlyphs"
text-anchor="middle" opacity="0">9</text>
<g class="stroked-text"><desc>9</desc>
<path d="M30.6572 40.2225
L30.8991 40.2225
" />
<path d="M30.8991 40.2225
L31.0201 40.1621
" />
<path d="M31.0201 40.1621
L31.0805 40.1016
" />
<path d="M31.0805 40.1016
L31.2015 39.9201
" />
<path d="M31.2015 39.9201
L31.2620 39.6782
" />
<path d="M31.2620 39.6782
L31.2620 39.1944
" />
<path d="M31.2620 39.1944
L31.2015 39.0735
" />
<path d="M31.2015 39.0735
L31.1410 39.0130
" />
<path d="M31.1410 39.0130
L31.0201 38.9525
" />
<path d="M31.0201 38.9525
L30.7782 38.9525
" />
<path d="M30.7782 38.9525
L30.6572 39.0130
" />
<path d="M30.6572 39.0130
L30.5967 39.0735
" />
<path d="M30.5967 39.0735
L30.5363 39.1944
" />
<path d="M30.5363 39.1944
L30.5363 39.4968
" />
<path d="M30.5363 39.4968
L30.5967 39.6178
" />
<path d="M30.5967 39.6178
L30.6572 39.6782
" />
<path d="M30.6572 39.6782
L30.7782 39.7387
" />
<path d="M30.7782 39.7387
L31.0201 39.7387
" />
<path d="M31.0201 39.7387
L31.1410 39.6782
" />
<path d="M31.1410 39.6782
L31.2015 39.6178
" />
<path d="M31.2015 39.6178
L31.2620 39.4968
" />
</g></g>
<g style="fill:#000000; fill-opacity:0.0; 
stroke:#000000; stroke-width:0.1588; stroke-opacity:1; 
stroke-linecap:round; stroke-linejoin:round;">
<text x="33.4391" y="6.9850"
textLength="2.6415" font-size="1.6933" lengthAdjust="spacingAndGlyphs"
text-anchor="middle" opacity="0">U?</text>
<g class="stroked-text"><desc>U?</desc>
<path d="M32.5319 5.6592
L32.5319 6.6873
" />
<path d="M32.5319 6.6873
L32.5924 6.8083
" />
<path d="M32.5924 6.8083
L32.6529 6.8688
" />
<path d="M32.6529 6.8688
L32.7738 6.9292
" />
<path d="M32.7738 6.9292
L33.0157 6.9292
" />
<path d="M33.0157 6.9292
L33.1367 6.8688
" />
<path d="M33.1367 6.8688
L33.1972 6.8083
" />
<path d="M33.1972 6.8083
L33.2576 6.6873
" />
<path d="M33.2576 6.6873
L33.2576 5.6592
" />
<path d="M34.0439 6.8083
L34.1043 6.8688
" />
<path d="M34.1043 6.8688
L34.0439 6.9292
" />
<path d="M34.0439 6.9292
L33.9834 6.8688
" />
<path d="M33.9834 6.8688
L34.0439 6.8083
" />
<path d="M34.0439 6.8083
L34.0439 6.9292
" />
<path d="M33.8020 5.7197
L33.9229 5.6592
" />
<path d="M33.9229 5.6592
L34.2253 5.6592
" />
<path d="M34.2253 5.6592
L34.3462 5.7197
" />
<path d="M34.3462 5.7197
L34.4067 5.8407
" />
<path d="M34.4067 5.8407
L34.4067 5.9616
" />
<path d="M34.4067 5.9616
L34.3462 6.0826
" />
<path d="M34.3462 6.0826
L34.2858 6.1430
" />
<path d="M34.2858 6.1430
L34.1648 6.2035
" />
<path d="M34.1648 6.2035
L34.1043 6.2640
" />
<path d="M34.1043 6.2640
L34.0439 6.3849
" />
<path d="M34.0439 6.3849
L34.0439 6.4454
" />
</g><text x="52.4891" y="6.9850"
textLength="12.3780" font-size="1.6933" lengthAdjust="spacingAndGlyphs"
text-anchor="middle" opacity="0">AM26LS31CD</text>
<g class="stroked-text"><desc>AM26LS31CD</desc>
<path d="M46.6532 6.5664
L47.2579 6.5664
" />
<path d="M46.5322 6.9292
L46.9555 5.6592
" />
<path d="M46.9555 5.6592
L47.3789 6.9292
" />
<path d="M47.8022 6.9292
L47.8022 5.6592
" />
<path d="M47.8022 5.6592
L48.2256 6.5664
" />
<path d="M48.2256 6.5664
L48.6489 5.6592
" />
<path d="M48.6489 5.6592
L48.6489 6.9292
" />
<path d="M49.1932 5.7802
L49.2536 5.7197
" />
<path d="M49.2536 5.7197
L49.3746 5.6592
" />
<path d="M49.3746 5.6592
L49.6770 5.6592
" />
<path d="M49.6770 5.6592
L49.7979 5.7197
" />
<path d="M49.7979 5.7197
L49.8584 5.7802
" />
<path d="M49.8584 5.7802
L49.9189 5.9011
" />
<path d="M49.9189 5.9011
L49.9189 6.0221
" />
<path d="M49.9189 6.0221
L49.8584 6.2035
" />
<path d="M49.8584 6.2035
L49.1327 6.9292
" />
<path d="M49.1327 6.9292
L49.9189 6.9292
" />
<path d="M51.0074 5.6592
L50.7655 5.6592
" />
<path d="M50.7655 5.6592
L50.6446 5.7197
" />
<path d="M50.6446 5.7197
L50.5841 5.7802
" />
<path d="M50.5841 5.7802
L50.4631 5.9616
" />
<path d="M50.4631 5.9616
L50.4027 6.2035
" />
<path d="M50.4027 6.2035
L50.4027 6.6873
" />
<path d="M50.4027 6.6873
L50.4631 6.8083
" />
<path d="M50.4631 6.8083
L50.5236 6.8688
" />
<path d="M50.5236 6.8688
L50.6446 6.9292
" />
<path d="M50.6446 6.9292
L50.8865 6.9292
" />
<path d="M50.8865 6.9292
L51.0074 6.8688
" />
<path d="M51.0074 6.8688
L51.0679 6.8083
" />
<path d="M51.0679 6.8083
L51.1284 6.6873
" />
<path d="M51.1284 6.6873
L51.1284 6.3849
" />
<path d="M51.1284 6.3849
L51.0679 6.2640
" />
<path d="M51.0679 6.2640
L51.0074 6.2035
" />
<path d="M51.0074 6.2035
L50.8865 6.1430
" />
<path d="M50.8865 6.1430
L50.6446 6.1430
" />
<path d="M50.6446 6.1430
L50.5236 6.2035
" />
<path d="M50.5236 6.2035
L50.4631 6.2640
" />
<path d="M50.4631 6.2640
L50.4027 6.3849
" />
<path d="M52.2774 6.9292
L51.6726 6.9292
" />
<path d="M51.6726 6.9292
L51.6726 5.6592
" />
<path d="M52.6403 6.8688
L52.8217 6.9292
" />
<path d="M52.8217 6.9292
L53.1241 6.9292
" />
<path d="M53.1241 6.9292
L53.2450 6.8688
" />
<path d="M53.2450 6.8688
L53.3055 6.8083
" />
<path d="M53.3055 6.8083
L53.3660 6.6873
" />
<path d="M53.3660 6.6873
L53.3660 6.5664
" />
<path d="M53.3660 6.5664
L53.3055 6.4454
" />
<path d="M53.3055 6.4454
L53.2450 6.3849
" />
<path d="M53.2450 6.3849
L53.1241 6.3245
" />
<path d="M53.1241 6.3245
L52.8822 6.2640
" />
<path d="M52.8822 6.2640
L52.7612 6.2035
" />
<path d="M52.7612 6.2035
L52.7007 6.1430
" />
<path d="M52.7007 6.1430
L52.6403 6.0221
" />
<path d="M52.6403 6.0221
L52.6403 5.9011
" />
<path d="M52.6403 5.9011
L52.7007 5.7802
" />
<path d="M52.7007 5.7802
L52.7612 5.7197
" />
<path d="M52.7612 5.7197
L52.8822 5.6592
" />
<path d="M52.8822 5.6592
L53.1845 5.6592
" />
<path d="M53.1845 5.6592
L53.3660 5.7197
" />
<path d="M53.7893 5.6592
L54.5755 5.6592
" />
<path d="M54.5755 5.6592
L54.1521 6.1430
" />
<path d="M54.1521 6.1430
L54.3336 6.1430
" />
<path d="M54.3336 6.1430
L54.4545 6.2035
" />
<path d="M54.4545 6.2035
L54.5150 6.2640
" />
<path d="M54.5150 6.2640
L54.5755 6.3849
" />
<path d="M54.5755 6.3849
L54.5755 6.6873
" />
<path d="M54.5755 6.6873
L54.5150 6.8083
" />
<path d="M54.5150 6.8083
L54.4545 6.8688
" />
<path d="M54.4545 6.8688
L54.3336 6.9292
" />
<path d="M54.3336 6.9292
L53.9707 6.9292
" />
<path d="M53.9707 6.9292
L53.8498 6.8688
" />
<path d="M53.8498 6.8688
L53.7893 6.8083
" />
<path d="M55.7850 6.9292
L55.0593 6.9292
" />
<path d="M55.4221 6.9292
L55.4221 5.6592
" />
<path d="M55.4221 5.6592
L55.3012 5.8407
" />
<path d="M55.3012 5.8407
L55.1802 5.9616
" />
<path d="M55.1802 5.9616
L55.0593 6.0221
" />
<path d="M57.0549 6.8083
L56.9945 6.8688
" />
<path d="M56.9945 6.8688
L56.8130 6.9292
" />
<path d="M56.8130 6.9292
L56.6921 6.9292
" />
<path d="M56.6921 6.9292
L56.5107 6.8688
" />
<path d="M56.5107 6.8688
L56.3897 6.7478
" />
<path d="M56.3897 6.7478
L56.3292 6.6268
" />
<path d="M56.3292 6.6268
L56.2688 6.3849
" />
<path d="M56.2688 6.3849
L56.2688 6.2035
" />
<path d="M56.2688 6.2035
L56.3292 5.9616
" />
<path d="M56.3292 5.9616
L56.3897 5.8407
" />
<path d="M56.3897 5.8407
L56.5107 5.7197
" />
<path d="M56.5107 5.7197
L56.6921 5.6592
" />
<path d="M56.6921 5.6592
L56.8130 5.6592
" />
<path d="M56.8130 5.6592
L56.9945 5.7197
" />
<path d="M56.9945 5.7197
L57.0549 5.7802
" />
<path d="M57.5992 6.9292
L57.5992 5.6592
" />
<path d="M57.5992 5.6592
L57.9016 5.6592
" />
<path d="M57.9016 5.6592
L58.0830 5.7197
" />
<path d="M58.0830 5.7197
L58.2040 5.8407
" />
<path d="M58.2040 5.8407
L58.2645 5.9616
" />
<path d="M58.2645 5.9616
L58.3249 6.2035
" />
<path d="M58.3249 6.2035
L58.3249 6.3849
" />
<path d="M58.3249 6.3849
L58.2645 6.6268
" />
<path d="M58.2645 6.6268
L58.2040 6.7478
" />
<path d="M58.2040 6.7478
L58.0830 6.8688
" />
<path d="M58.0830 6.8688
L57.9016 6.9292
" />
<path d="M57.9016 6.9292
L57.5992 6.9292
" />
</g></g> 
</svg>
