<?xml version="1.0" standalone="no"?>
 <!DOCTYPE svg PUBLIC "-//W3C//DTD SVG 1.1//EN" 
 "http://www.w3.org/Graphics/SVG/1.1/DTD/svg11.dtd"> 
<svg
  xmlns:svg="http://www.w3.org/2000/svg"
  xmlns="http://www.w3.org/2000/svg"
  xmlns:xlink="http://www.w3.org/1999/xlink"
  version="1.1"
  width="103.2510mm" height="37.5158mm" viewBox="0.0000 0.0000 103.2510 37.5158">
<title>SVG Image created as ltc1519_1.svg date 2024/01/16 15:19:38 </title>
  <desc>Image generated by Eeschema-SVG </desc>
<g style="fill:#000000; fill-opacity:1.0000;stroke:#000000; stroke-opacity:1.0000;
stroke-linecap:round; stroke-linejoin:round;"
 transform="translate(0 0) scale(1 1)">
</g>
<g style="fill:#000000; fill-opacity:0.0; 
stroke:#000000; stroke-width:0.0000; stroke-opacity:1; 
stroke-linecap:round; stroke-linejoin:round;">
</g>
<g style="fill:#000000; fill-opacity:0.0; 
stroke:#000000; stroke-width:0.2540; stroke-opacity:1; 
stroke-linecap:round; stroke-linejoin:round;">
<rect x="41.465500" y="6.057900" width="20.320000" height="25.400000" rx="0.000000" />
</g>
<g style="fill:#000000; fill-opacity:0.0; 
stroke:#000000; stroke-width:0.1524; stroke-opacity:1; 
stroke-linecap:round; stroke-linejoin:round;">
<circle cx="46.7995" cy="22.5679" r="0.2540" /> 
</g>
<g style="fill:#000000; fill-opacity:0.0; 
stroke:#000000; stroke-width:0.1270; stroke-opacity:1; 
stroke-linecap:round; stroke-linejoin:round;">
<circle cx="46.7995" cy="12.4079" r="0.2540" /> 
<path style="fill:#000000; fill-opacity:0.0; 
stroke:#000000; stroke-width:0.1270; stroke-opacity:1; 
stroke-linecap:round; stroke-linejoin:round;fill:none"
d="M 45.7835,22.5679
46.5455,22.5679
" /> 
<path style="fill:#000000; fill-opacity:0.0; 
stroke:#000000; stroke-width:0.1270; stroke-opacity:1; 
stroke-linecap:round; stroke-linejoin:round;fill:none"
d="M 45.7835,20.0279
47.0535,20.0279
" /> 
<path style="fill:#000000; fill-opacity:0.0; 
stroke:#000000; stroke-width:0.1270; stroke-opacity:1; 
stroke-linecap:round; stroke-linejoin:round;fill:none"
d="M 45.7835,12.4079
46.5455,12.4079
" /> 
<path style="fill:#000000; fill-opacity:0.0; 
stroke:#000000; stroke-width:0.1270; stroke-opacity:1; 
stroke-linecap:round; stroke-linejoin:round;fill:none"
d="M 45.7835,9.8679
47.0535,9.8679
" /> 
<path style="fill:#000000; fill-opacity:0.0; 
stroke:#000000; stroke-width:0.1270; stroke-opacity:1; 
stroke-linecap:round; stroke-linejoin:round;fill:none"
d="M 50.6095,21.2979
55.9435,21.2979
" /> 
<path style="fill:#000000; fill-opacity:0.0; 
stroke:#000000; stroke-width:0.1270; stroke-opacity:1; 
stroke-linecap:round; stroke-linejoin:round;fill:none"
d="M 50.6095,11.1379
55.9435,11.1379
" /> 
<path style="fill:#000000; fill-opacity:0.0; 
stroke:#000000; stroke-width:0.1270; stroke-opacity:1; 
stroke-linecap:round; stroke-linejoin:round;fill:none"
d="M 45.7835,22.5679
45.7835,23.8379
45.2755,23.8379
" /> 
<path style="fill:#000000; fill-opacity:0.0; 
stroke:#000000; stroke-width:0.1270; stroke-opacity:1; 
stroke-linecap:round; stroke-linejoin:round;fill:none"
d="M 45.7835,20.0279
45.7835,18.7579
45.2755,18.7579
" /> 
<path style="fill:#000000; fill-opacity:0.0; 
stroke:#000000; stroke-width:0.1270; stroke-opacity:1; 
stroke-linecap:round; stroke-linejoin:round;fill:none"
d="M 45.7835,9.8679
45.7835,8.5979
45.2755,8.5979
" /> 
<path style="fill:#000000; fill-opacity:0.0; 
stroke:#000000; stroke-width:0.1270; stroke-opacity:1; 
stroke-linecap:round; stroke-linejoin:round;fill:none"
d="M 47.8155,28.9179
51.6255,28.9179
51.6255,21.2979
" /> 
<path style="fill:#000000; fill-opacity:0.0; 
stroke:#000000; stroke-width:0.1270; stroke-opacity:1; 
stroke-linecap:round; stroke-linejoin:round;fill:none"
d="M 51.6255,23.8379
48.8315,23.8379
48.8315,22.3139
" /> 
<path style="fill:#000000; fill-opacity:0.0; 
stroke:#000000; stroke-width:0.1270; stroke-opacity:1; 
stroke-linecap:round; stroke-linejoin:round;fill:none"
d="M 45.7835,12.4079
45.7835,13.6779
45.5295,13.6779
45.2755,13.6779
" /> 
<path style="fill:#000000; fill-opacity:0.0; 
stroke:#000000; stroke-width:0.1270; stroke-opacity:1; 
stroke-linecap:round; stroke-linejoin:round;fill:none"
d="M 47.0535,19.2659
47.0535,23.3299
50.6095,21.2979
Z" /> 
<path style="fill:#000000; fill-opacity:0.0; 
stroke:#000000; stroke-width:0.1270; stroke-opacity:1; 
stroke-linecap:round; stroke-linejoin:round;fill:none"
d="M 47.0535,9.1059
47.0535,13.1699
50.6095,11.1379
Z" /> 
<path style="fill:#000000; fill-opacity:0.0; 
stroke:#000000; stroke-width:0.1270; stroke-opacity:1; 
stroke-linecap:round; stroke-linejoin:round;fill:none"
d="M 51.6255,21.2979
51.6255,13.6779
48.8315,13.6779
48.8315,12.1539
" /> 
</g>
<g style="fill:#000000; fill-opacity:0.0; 
stroke:#000000; stroke-width:0.1524; stroke-opacity:1; 
stroke-linecap:round; stroke-linejoin:round;">
<path d="M41.4655 13.6779
L38.9255 13.6779
" />
<text x="41.9735" y="14.3129"
textLength="2.6827" font-size="1.6933" lengthAdjust="spacingAndGlyphs"
text-anchor="start" opacity="0">B1</text>
<g class="stroked-text"><desc>B1</desc>
<path d="M42.7994 13.5922
L42.9808 13.6527
" />
<path d="M42.9808 13.6527
L43.0413 13.7131
" />
<path d="M43.0413 13.7131
L43.1017 13.8341
" />
<path d="M43.1017 13.8341
L43.1017 14.0155
" />
<path d="M43.1017 14.0155
L43.0413 14.1365
" />
<path d="M43.0413 14.1365
L42.9808 14.1970
" />
<path d="M42.9808 14.1970
L42.8598 14.2574
" />
<path d="M42.8598 14.2574
L42.3760 14.2574
" />
<path d="M42.3760 14.2574
L42.3760 12.9874
" />
<path d="M42.3760 12.9874
L42.7994 12.9874
" />
<path d="M42.7994 12.9874
L42.9203 13.0479
" />
<path d="M42.9203 13.0479
L42.9808 13.1084
" />
<path d="M42.9808 13.1084
L43.0413 13.2293
" />
<path d="M43.0413 13.2293
L43.0413 13.3503
" />
<path d="M43.0413 13.3503
L42.9808 13.4712
" />
<path d="M42.9808 13.4712
L42.9203 13.5317
" />
<path d="M42.9203 13.5317
L42.7994 13.5922
" />
<path d="M42.7994 13.5922
L42.3760 13.5922
" />
<path d="M44.3113 14.2574
L43.5856 14.2574
" />
<path d="M43.9484 14.2574
L43.9484 12.9874
" />
<path d="M43.9484 12.9874
L43.8275 13.1689
" />
<path d="M43.8275 13.1689
L43.7065 13.2898
" />
<path d="M43.7065 13.2898
L43.5856 13.3503
" />
</g><text x="40.1955" y="13.4239"
textLength="1.4127" font-size="1.6933" lengthAdjust="spacingAndGlyphs"
text-anchor="middle" opacity="0">1</text>
<g class="stroked-text"><desc>1</desc>
<path d="M40.5584 13.2604
L39.8327 13.2604
" />
<path d="M40.1955 13.2604
L40.1955 11.9904
" />
<path d="M40.1955 11.9904
L40.0746 12.1719
" />
<path d="M40.0746 12.1719
L39.9536 12.2928
" />
<path d="M39.9536 12.2928
L39.8327 12.3533
" />
</g><path d="M41.4655 8.5979
L38.9255 8.5979
" />
<text x="41.9735" y="9.2329"
textLength="2.5013" font-size="1.6933" lengthAdjust="spacingAndGlyphs"
text-anchor="start" opacity="0">A1</text>
<g class="stroked-text"><desc>A1</desc>
<path d="M42.3156 8.8146
L42.9203 8.8146
" />
<path d="M42.1946 9.1774
L42.6179 7.9074
" />
<path d="M42.6179 7.9074
L43.0413 9.1774
" />
<path d="M44.1299 9.1774
L43.4042 9.1774
" />
<path d="M43.7670 9.1774
L43.7670 7.9074
" />
<path d="M43.7670 7.9074
L43.6461 8.0889
" />
<path d="M43.6461 8.0889
L43.5251 8.2098
" />
<path d="M43.5251 8.2098
L43.4042 8.2703
" />
</g><text x="40.1955" y="8.3439"
textLength="1.4127" font-size="1.6933" lengthAdjust="spacingAndGlyphs"
text-anchor="middle" opacity="0">2</text>
<g class="stroked-text"><desc>2</desc>
<path d="M39.8327 7.0314
L39.8931 6.9709
" />
<path d="M39.8931 6.9709
L40.0141 6.9104
" />
<path d="M40.0141 6.9104
L40.3165 6.9104
" />
<path d="M40.3165 6.9104
L40.4374 6.9709
" />
<path d="M40.4374 6.9709
L40.4979 7.0314
" />
<path d="M40.4979 7.0314
L40.5584 7.1523
" />
<path d="M40.5584 7.1523
L40.5584 7.2733
" />
<path d="M40.5584 7.2733
L40.4979 7.4547
" />
<path d="M40.4979 7.4547
L39.7722 8.1804
" />
<path d="M39.7722 8.1804
L40.5584 8.1804
" />
</g><path d="M61.7855 11.1379
L64.3255 11.1379
" />
<text x="61.2775" y="11.7729"
textLength="4.6179" font-size="1.6933" lengthAdjust="spacingAndGlyphs"
text-anchor="end" opacity="0">Out1</text>
<g class="stroked-text"><desc>Out1</desc>
<path d="M57.3068 10.4474
L57.5487 10.4474
" />
<path d="M57.5487 10.4474
L57.6697 10.5079
" />
<path d="M57.6697 10.5079
L57.7906 10.6289
" />
<path d="M57.7906 10.6289
L57.8511 10.8708
" />
<path d="M57.8511 10.8708
L57.8511 11.2941
" />
<path d="M57.8511 11.2941
L57.7906 11.5360
" />
<path d="M57.7906 11.5360
L57.6697 11.6570
" />
<path d="M57.6697 11.6570
L57.5487 11.7174
" />
<path d="M57.5487 11.7174
L57.3068 11.7174
" />
<path d="M57.3068 11.7174
L57.1859 11.6570
" />
<path d="M57.1859 11.6570
L57.0649 11.5360
" />
<path d="M57.0649 11.5360
L57.0045 11.2941
" />
<path d="M57.0045 11.2941
L57.0045 10.8708
" />
<path d="M57.0045 10.8708
L57.0649 10.6289
" />
<path d="M57.0649 10.6289
L57.1859 10.5079
" />
<path d="M57.1859 10.5079
L57.3068 10.4474
" />
<path d="M58.9397 10.8708
L58.9397 11.7174
" />
<path d="M58.3954 10.8708
L58.3954 11.5360
" />
<path d="M58.3954 11.5360
L58.4559 11.6570
" />
<path d="M58.4559 11.6570
L58.5769 11.7174
" />
<path d="M58.5769 11.7174
L58.7583 11.7174
" />
<path d="M58.7583 11.7174
L58.8792 11.6570
" />
<path d="M58.8792 11.6570
L58.9397 11.5965
" />
<path d="M59.3630 10.8708
L59.8468 10.8708
" />
<path d="M59.5444 10.4474
L59.5444 11.5360
" />
<path d="M59.5444 11.5360
L59.6049 11.6570
" />
<path d="M59.6049 11.6570
L59.7259 11.7174
" />
<path d="M59.7259 11.7174
L59.8468 11.7174
" />
<path d="M60.9354 11.7174
L60.2097 11.7174
" />
<path d="M60.5725 11.7174
L60.5725 10.4474
" />
<path d="M60.5725 10.4474
L60.4516 10.6289
" />
<path d="M60.4516 10.6289
L60.3306 10.7498
" />
<path d="M60.3306 10.7498
L60.2097 10.8103
" />
</g><text x="63.0555" y="10.8839"
textLength="1.4127" font-size="1.6933" lengthAdjust="spacingAndGlyphs"
text-anchor="middle" opacity="0">3</text>
<g class="stroked-text"><desc>3</desc>
<path d="M62.6322 9.4504
L63.4184 9.4504
" />
<path d="M63.4184 9.4504
L62.9950 9.9342
" />
<path d="M62.9950 9.9342
L63.1765 9.9342
" />
<path d="M63.1765 9.9342
L63.2974 9.9947
" />
<path d="M63.2974 9.9947
L63.3579 10.0552
" />
<path d="M63.3579 10.0552
L63.4184 10.1761
" />
<path d="M63.4184 10.1761
L63.4184 10.4785
" />
<path d="M63.4184 10.4785
L63.3579 10.5995
" />
<path d="M63.3579 10.5995
L63.2974 10.6600
" />
<path d="M63.2974 10.6600
L63.1765 10.7204
" />
<path d="M63.1765 10.7204
L62.8136 10.7204
" />
<path d="M62.8136 10.7204
L62.6927 10.6600
" />
<path d="M62.6927 10.6600
L62.6322 10.5995
" />
</g><path d="M41.4655 28.9179
L38.9255 28.9179
" />
<text x="41.9735" y="29.5529"
textLength="5.1017" font-size="1.6933" lengthAdjust="spacingAndGlyphs"
text-anchor="start" opacity="0">EN12</text>
<g class="stroked-text"><desc>EN12</desc>
<path d="M42.3760 28.8322
L42.7994 28.8322
" />
<path d="M42.9808 29.4974
L42.3760 29.4974
" />
<path d="M42.3760 29.4974
L42.3760 28.2274
" />
<path d="M42.3760 28.2274
L42.9808 28.2274
" />
<path d="M43.5250 29.4974
L43.5250 28.2274
" />
<path d="M43.5250 28.2274
L44.2507 29.4974
" />
<path d="M44.2507 29.4974
L44.2507 28.2274
" />
<path d="M45.5208 29.4974
L44.7951 29.4974
" />
<path d="M45.1579 29.4974
L45.1579 28.2274
" />
<path d="M45.1579 28.2274
L45.0370 28.4089
" />
<path d="M45.0370 28.4089
L44.9160 28.5298
" />
<path d="M44.9160 28.5298
L44.7951 28.5903
" />
<path d="M46.0046 28.3484
L46.0650 28.2879
" />
<path d="M46.0650 28.2879
L46.1860 28.2274
" />
<path d="M46.1860 28.2274
L46.4884 28.2274
" />
<path d="M46.4884 28.2274
L46.6093 28.2879
" />
<path d="M46.6093 28.2879
L46.6698 28.3484
" />
<path d="M46.6698 28.3484
L46.7303 28.4693
" />
<path d="M46.7303 28.4693
L46.7303 28.5903
" />
<path d="M46.7303 28.5903
L46.6698 28.7717
" />
<path d="M46.6698 28.7717
L45.9441 29.4974
" />
<path d="M45.9441 29.4974
L46.7303 29.4974
" />
</g><text x="40.1955" y="28.6639"
textLength="1.4127" font-size="1.6933" lengthAdjust="spacingAndGlyphs"
text-anchor="middle" opacity="0">4</text>
<g class="stroked-text"><desc>4</desc>
<path d="M40.4374 27.6538
L40.4374 28.5004
" />
<path d="M40.1350 27.1700
L39.8327 28.0771
" />
<path d="M39.8327 28.0771
L40.6188 28.0771
" />
</g><path d="M61.7855 21.2979
L64.3255 21.2979
" />
<text x="61.2775" y="21.9329"
textLength="4.6179" font-size="1.6933" lengthAdjust="spacingAndGlyphs"
text-anchor="end" opacity="0">Out2</text>
<g class="stroked-text"><desc>Out2</desc>
<path d="M57.3068 20.6074
L57.5487 20.6074
" />
<path d="M57.5487 20.6074
L57.6697 20.6679
" />
<path d="M57.6697 20.6679
L57.7906 20.7889
" />
<path d="M57.7906 20.7889
L57.8511 21.0308
" />
<path d="M57.8511 21.0308
L57.8511 21.4541
" />
<path d="M57.8511 21.4541
L57.7906 21.6960
" />
<path d="M57.7906 21.6960
L57.6697 21.8170
" />
<path d="M57.6697 21.8170
L57.5487 21.8774
" />
<path d="M57.5487 21.8774
L57.3068 21.8774
" />
<path d="M57.3068 21.8774
L57.1859 21.8170
" />
<path d="M57.1859 21.8170
L57.0649 21.6960
" />
<path d="M57.0649 21.6960
L57.0045 21.4541
" />
<path d="M57.0045 21.4541
L57.0045 21.0308
" />
<path d="M57.0045 21.0308
L57.0649 20.7889
" />
<path d="M57.0649 20.7889
L57.1859 20.6679
" />
<path d="M57.1859 20.6679
L57.3068 20.6074
" />
<path d="M58.9397 21.0308
L58.9397 21.8774
" />
<path d="M58.3954 21.0308
L58.3954 21.6960
" />
<path d="M58.3954 21.6960
L58.4559 21.8170
" />
<path d="M58.4559 21.8170
L58.5769 21.8774
" />
<path d="M58.5769 21.8774
L58.7583 21.8774
" />
<path d="M58.7583 21.8774
L58.8792 21.8170
" />
<path d="M58.8792 21.8170
L58.9397 21.7565
" />
<path d="M59.3630 21.0308
L59.8468 21.0308
" />
<path d="M59.5444 20.6074
L59.5444 21.6960
" />
<path d="M59.5444 21.6960
L59.6049 21.8170
" />
<path d="M59.6049 21.8170
L59.7259 21.8774
" />
<path d="M59.7259 21.8774
L59.8468 21.8774
" />
<path d="M60.2097 20.7284
L60.2701 20.6679
" />
<path d="M60.2701 20.6679
L60.3911 20.6074
" />
<path d="M60.3911 20.6074
L60.6935 20.6074
" />
<path d="M60.6935 20.6074
L60.8144 20.6679
" />
<path d="M60.8144 20.6679
L60.8749 20.7284
" />
<path d="M60.8749 20.7284
L60.9354 20.8493
" />
<path d="M60.9354 20.8493
L60.9354 20.9703
" />
<path d="M60.9354 20.9703
L60.8749 21.1517
" />
<path d="M60.8749 21.1517
L60.1492 21.8774
" />
<path d="M60.1492 21.8774
L60.9354 21.8774
" />
</g><text x="63.0555" y="21.0439"
textLength="1.4127" font-size="1.6933" lengthAdjust="spacingAndGlyphs"
text-anchor="middle" opacity="0">5</text>
<g class="stroked-text"><desc>5</desc>
<path d="M63.3579 19.6104
L62.7531 19.6104
" />
<path d="M62.7531 19.6104
L62.6927 20.2152
" />
<path d="M62.6927 20.2152
L62.7531 20.1547
" />
<path d="M62.7531 20.1547
L62.8741 20.0942
" />
<path d="M62.8741 20.0942
L63.1765 20.0942
" />
<path d="M63.1765 20.0942
L63.2974 20.1547
" />
<path d="M63.2974 20.1547
L63.3579 20.2152
" />
<path d="M63.3579 20.2152
L63.4184 20.3361
" />
<path d="M63.4184 20.3361
L63.4184 20.6385
" />
<path d="M63.4184 20.6385
L63.3579 20.7595
" />
<path d="M63.3579 20.7595
L63.2974 20.8200
" />
<path d="M63.2974 20.8200
L63.1765 20.8804
" />
<path d="M63.1765 20.8804
L62.8741 20.8804
" />
<path d="M62.8741 20.8804
L62.7531 20.8200
" />
<path d="M62.7531 20.8200
L62.6927 20.7595
" />
</g><path d="M41.4655 18.7579
L38.9255 18.7579
" />
<text x="41.9735" y="19.3929"
textLength="2.5013" font-size="1.6933" lengthAdjust="spacingAndGlyphs"
text-anchor="start" opacity="0">A2</text>
<g class="stroked-text"><desc>A2</desc>
<path d="M42.3156 18.9746
L42.9203 18.9746
" />
<path d="M42.1946 19.3374
L42.6179 18.0674
" />
<path d="M42.6179 18.0674
L43.0413 19.3374
" />
<path d="M43.4042 18.1884
L43.4646 18.1279
" />
<path d="M43.4646 18.1279
L43.5856 18.0674
" />
<path d="M43.5856 18.0674
L43.8880 18.0674
" />
<path d="M43.8880 18.0674
L44.0089 18.1279
" />
<path d="M44.0089 18.1279
L44.0694 18.1884
" />
<path d="M44.0694 18.1884
L44.1299 18.3093
" />
<path d="M44.1299 18.3093
L44.1299 18.4303
" />
<path d="M44.1299 18.4303
L44.0694 18.6117
" />
<path d="M44.0694 18.6117
L43.3437 19.3374
" />
<path d="M43.3437 19.3374
L44.1299 19.3374
" />
</g><text x="40.1955" y="18.5039"
textLength="1.4127" font-size="1.6933" lengthAdjust="spacingAndGlyphs"
text-anchor="middle" opacity="0">6</text>
<g class="stroked-text"><desc>6</desc>
<path d="M40.4374 17.0704
L40.1955 17.0704
" />
<path d="M40.1955 17.0704
L40.0746 17.1309
" />
<path d="M40.0746 17.1309
L40.0141 17.1914
" />
<path d="M40.0141 17.1914
L39.8931 17.3728
" />
<path d="M39.8931 17.3728
L39.8327 17.6147
" />
<path d="M39.8327 17.6147
L39.8327 18.0985
" />
<path d="M39.8327 18.0985
L39.8931 18.2195
" />
<path d="M39.8931 18.2195
L39.9536 18.2800
" />
<path d="M39.9536 18.2800
L40.0746 18.3404
" />
<path d="M40.0746 18.3404
L40.3165 18.3404
" />
<path d="M40.3165 18.3404
L40.4374 18.2800
" />
<path d="M40.4374 18.2800
L40.4979 18.2195
" />
<path d="M40.4979 18.2195
L40.5584 18.0985
" />
<path d="M40.5584 18.0985
L40.5584 17.7961
" />
<path d="M40.5584 17.7961
L40.4979 17.6752
" />
<path d="M40.4979 17.6752
L40.4374 17.6147
" />
<path d="M40.4374 17.6147
L40.3165 17.5542
" />
<path d="M40.3165 17.5542
L40.0746 17.5542
" />
<path d="M40.0746 17.5542
L39.9536 17.6147
" />
<path d="M39.9536 17.6147
L39.8931 17.6752
" />
<path d="M39.8931 17.6752
L39.8327 17.7961
" />
</g><path d="M41.4655 23.8379
L38.9255 23.8379
" />
<text x="41.9735" y="24.4729"
textLength="2.6827" font-size="1.6933" lengthAdjust="spacingAndGlyphs"
text-anchor="start" opacity="0">B2</text>
<g class="stroked-text"><desc>B2</desc>
<path d="M42.7994 23.7522
L42.9808 23.8127
" />
<path d="M42.9808 23.8127
L43.0413 23.8731
" />
<path d="M43.0413 23.8731
L43.1017 23.9941
" />
<path d="M43.1017 23.9941
L43.1017 24.1755
" />
<path d="M43.1017 24.1755
L43.0413 24.2965
" />
<path d="M43.0413 24.2965
L42.9808 24.3570
" />
<path d="M42.9808 24.3570
L42.8598 24.4174
" />
<path d="M42.8598 24.4174
L42.3760 24.4174
" />
<path d="M42.3760 24.4174
L42.3760 23.1474
" />
<path d="M42.3760 23.1474
L42.7994 23.1474
" />
<path d="M42.7994 23.1474
L42.9203 23.2079
" />
<path d="M42.9203 23.2079
L42.9808 23.2684
" />
<path d="M42.9808 23.2684
L43.0413 23.3893
" />
<path d="M43.0413 23.3893
L43.0413 23.5103
" />
<path d="M43.0413 23.5103
L42.9808 23.6312
" />
<path d="M42.9808 23.6312
L42.9203 23.6917
" />
<path d="M42.9203 23.6917
L42.7994 23.7522
" />
<path d="M42.7994 23.7522
L42.3760 23.7522
" />
<path d="M43.5856 23.2684
L43.6460 23.2079
" />
<path d="M43.6460 23.2079
L43.7670 23.1474
" />
<path d="M43.7670 23.1474
L44.0694 23.1474
" />
<path d="M44.0694 23.1474
L44.1903 23.2079
" />
<path d="M44.1903 23.2079
L44.2508 23.2684
" />
<path d="M44.2508 23.2684
L44.3113 23.3893
" />
<path d="M44.3113 23.3893
L44.3113 23.5103
" />
<path d="M44.3113 23.5103
L44.2508 23.6917
" />
<path d="M44.2508 23.6917
L43.5251 24.4174
" />
<path d="M43.5251 24.4174
L44.3113 24.4174
" />
</g><text x="40.1955" y="23.5839"
textLength="1.4127" font-size="1.6933" lengthAdjust="spacingAndGlyphs"
text-anchor="middle" opacity="0">7</text>
<g class="stroked-text"><desc>7</desc>
<path d="M39.7722 22.1504
L40.6188 22.1504
" />
<path d="M40.6188 22.1504
L40.0746 23.4204
" />
</g></g>
<g style="fill:#000000; fill-opacity:0.0; 
stroke:#000000; stroke-width:0.1588; stroke-opacity:1; 
stroke-linecap:round; stroke-linejoin:round;">
<text x="42.7355" y="5.4229"
textLength="3.7301" font-size="1.6933" lengthAdjust="spacingAndGlyphs"
text-anchor="middle" opacity="0">U?A</text>
<g class="stroked-text"><desc>U?A</desc>
<path d="M41.2840 4.0971
L41.2840 5.1252
" />
<path d="M41.2840 5.1252
L41.3445 5.2462
" />
<path d="M41.3445 5.2462
L41.4050 5.3067
" />
<path d="M41.4050 5.3067
L41.5259 5.3671
" />
<path d="M41.5259 5.3671
L41.7678 5.3671
" />
<path d="M41.7678 5.3671
L41.8888 5.3067
" />
<path d="M41.8888 5.3067
L41.9493 5.2462
" />
<path d="M41.9493 5.2462
L42.0097 5.1252
" />
<path d="M42.0097 5.1252
L42.0097 4.0971
" />
<path d="M42.7960 5.2462
L42.8564 5.3067
" />
<path d="M42.8564 5.3067
L42.7960 5.3671
" />
<path d="M42.7960 5.3671
L42.7355 5.3067
" />
<path d="M42.7355 5.3067
L42.7960 5.2462
" />
<path d="M42.7960 5.2462
L42.7960 5.3671
" />
<path d="M42.5541 4.1576
L42.6750 4.0971
" />
<path d="M42.6750 4.0971
L42.9774 4.0971
" />
<path d="M42.9774 4.0971
L43.0983 4.1576
" />
<path d="M43.0983 4.1576
L43.1588 4.2786
" />
<path d="M43.1588 4.2786
L43.1588 4.3995
" />
<path d="M43.1588 4.3995
L43.0983 4.5205
" />
<path d="M43.0983 4.5205
L43.0379 4.5809
" />
<path d="M43.0379 4.5809
L42.9169 4.6414
" />
<path d="M42.9169 4.6414
L42.8564 4.7019
" />
<path d="M42.8564 4.7019
L42.7960 4.8228
" />
<path d="M42.7960 4.8228
L42.7960 4.8833
" />
<path d="M43.6427 5.0043
L44.2474 5.0043
" />
<path d="M43.5217 5.3671
L43.9450 4.0971
" />
<path d="M43.9450 4.0971
L44.3684 5.3671
" />
</g><text x="57.9755" y="5.4229"
textLength="8.3261" font-size="1.6933" lengthAdjust="spacingAndGlyphs"
text-anchor="middle" opacity="0">LTC1519</text>
<g class="stroked-text"><desc>LTC1519</desc>
<path d="M54.8308 5.3671
L54.2260 5.3671
" />
<path d="M54.2260 5.3671
L54.2260 4.0971
" />
<path d="M55.0727 4.0971
L55.7984 4.0971
" />
<path d="M55.4356 5.3671
L55.4356 4.0971
" />
<path d="M56.9474 5.2462
L56.8870 5.3067
" />
<path d="M56.8870 5.3067
L56.7055 5.3671
" />
<path d="M56.7055 5.3671
L56.5846 5.3671
" />
<path d="M56.5846 5.3671
L56.4032 5.3067
" />
<path d="M56.4032 5.3067
L56.2822 5.1857
" />
<path d="M56.2822 5.1857
L56.2217 5.0647
" />
<path d="M56.2217 5.0647
L56.1613 4.8228
" />
<path d="M56.1613 4.8228
L56.1613 4.6414
" />
<path d="M56.1613 4.6414
L56.2217 4.3995
" />
<path d="M56.2217 4.3995
L56.2822 4.2786
" />
<path d="M56.2822 4.2786
L56.4032 4.1576
" />
<path d="M56.4032 4.1576
L56.5846 4.0971
" />
<path d="M56.5846 4.0971
L56.7055 4.0971
" />
<path d="M56.7055 4.0971
L56.8870 4.1576
" />
<path d="M56.8870 4.1576
L56.9474 4.2181
" />
<path d="M58.1570 5.3671
L57.4313 5.3671
" />
<path d="M57.7941 5.3671
L57.7941 4.0971
" />
<path d="M57.7941 4.0971
L57.6732 4.2786
" />
<path d="M57.6732 4.2786
L57.5522 4.3995
" />
<path d="M57.5522 4.3995
L57.4313 4.4600
" />
<path d="M59.3060 4.0971
L58.7012 4.0971
" />
<path d="M58.7012 4.0971
L58.6408 4.7019
" />
<path d="M58.6408 4.7019
L58.7012 4.6414
" />
<path d="M58.7012 4.6414
L58.8222 4.5809
" />
<path d="M58.8222 4.5809
L59.1246 4.5809
" />
<path d="M59.1246 4.5809
L59.2455 4.6414
" />
<path d="M59.2455 4.6414
L59.3060 4.7019
" />
<path d="M59.3060 4.7019
L59.3665 4.8228
" />
<path d="M59.3665 4.8228
L59.3665 5.1252
" />
<path d="M59.3665 5.1252
L59.3060 5.2462
" />
<path d="M59.3060 5.2462
L59.2455 5.3067
" />
<path d="M59.2455 5.3067
L59.1246 5.3671
" />
<path d="M59.1246 5.3671
L58.8222 5.3671
" />
<path d="M58.8222 5.3671
L58.7012 5.3067
" />
<path d="M58.7012 5.3067
L58.6408 5.2462
" />
<path d="M60.5760 5.3671
L59.8503 5.3671
" />
<path d="M60.2131 5.3671
L60.2131 4.0971
" />
<path d="M60.2131 4.0971
L60.0922 4.2786
" />
<path d="M60.0922 4.2786
L59.9712 4.3995
" />
<path d="M59.9712 4.3995
L59.8503 4.4600
" />
<path d="M61.1807 5.3671
L61.4226 5.3671
" />
<path d="M61.4226 5.3671
L61.5436 5.3067
" />
<path d="M61.5436 5.3067
L61.6040 5.2462
" />
<path d="M61.6040 5.2462
L61.7250 5.0647
" />
<path d="M61.7250 5.0647
L61.7855 4.8228
" />
<path d="M61.7855 4.8228
L61.7855 4.3390
" />
<path d="M61.7855 4.3390
L61.7250 4.2181
" />
<path d="M61.7250 4.2181
L61.6645 4.1576
" />
<path d="M61.6645 4.1576
L61.5436 4.0971
" />
<path d="M61.5436 4.0971
L61.3017 4.0971
" />
<path d="M61.3017 4.0971
L61.1807 4.1576
" />
<path d="M61.1807 4.1576
L61.1202 4.2181
" />
<path d="M61.1202 4.2181
L61.0598 4.3390
" />
<path d="M61.0598 4.3390
L61.0598 4.6414
" />
<path d="M61.0598 4.6414
L61.1202 4.7624
" />
<path d="M61.1202 4.7624
L61.1807 4.8228
" />
<path d="M61.1807 4.8228
L61.3017 4.8833
" />
<path d="M61.3017 4.8833
L61.5436 4.8833
" />
<path d="M61.5436 4.8833
L61.6645 4.8228
" />
<path d="M61.6645 4.8228
L61.7250 4.7624
" />
<path d="M61.7250 4.7624
L61.7855 4.6414
" />
</g></g> 
</svg>
