<?xml version="1.0" standalone="no"?>
 <!DOCTYPE svg PUBLIC "-//W3C//DTD SVG 1.1//EN" 
 "http://www.w3.org/Graphics/SVG/1.1/DTD/svg11.dtd"> 
<svg
  xmlns:svg="http://www.w3.org/2000/svg"
  xmlns="http://www.w3.org/2000/svg"
  xmlns:xlink="http://www.w3.org/1999/xlink"
  version="1.1"
  width="84.0232mm" height="24.3840mm" viewBox="0.0000 0.0000 84.0232 24.3840">
<title>SVG Image created as sw_mmi_q5-100.svg date 2024/01/16 15:21:33 </title>
  <desc>Image generated by Eeschema-SVG </desc>
<g style="fill:#000000; fill-opacity:1.0000;stroke:#000000; stroke-opacity:1.0000;
stroke-linecap:round; stroke-linejoin:round;"
 transform="translate(0 0) scale(1 1)">
</g>
<g style="fill:#000000; fill-opacity:0.0; 
stroke:#000000; stroke-width:0.0000; stroke-opacity:1; 
stroke-linecap:round; stroke-linejoin:round;">
</g>
<g style="fill:#000000; fill-opacity:0.0; 
stroke:#000000; stroke-width:0.2540; stroke-opacity:1; 
stroke-linecap:round; stroke-linejoin:round;">
<rect x="34.391600" y="4.572000" width="15.240000" height="15.240000" rx="0.000000" />
</g>
<g style="fill:#000000; fill-opacity:0.0; 
stroke:#000000; stroke-width:0.1524; stroke-opacity:1; 
stroke-linecap:round; stroke-linejoin:round;">
<path style="fill:#000000; fill-opacity:0.0; 
stroke:#000000; stroke-width:0.1524; stroke-opacity:1; 
stroke-linecap:round; stroke-linejoin:round;fill:none"
d="M 39.4716,14.7320
38.2016,14.7320
" /> 
<path style="fill:#000000; fill-opacity:0.0; 
stroke:#000000; stroke-width:0.1524; stroke-opacity:1; 
stroke-linecap:round; stroke-linejoin:round;fill:none"
d="M 44.5516,14.7320
45.8216,14.7320
" /> 
<circle cx="39.9796" cy="14.7320" r="0.5080" /> 
<path style="fill:#000000; fill-opacity:0.0; 
stroke:#000000; stroke-width:0.1524; stroke-opacity:1; 
stroke-linecap:round; stroke-linejoin:round;fill:none"
d="M 44.5516,13.4620
39.4716,13.4620
" /> 
<path style="fill:#000000; fill-opacity:0.0; 
stroke:#000000; stroke-width:0.1524; stroke-opacity:1; 
stroke-linecap:round; stroke-linejoin:round;fill:none"
d="M 42.0116,13.4620
42.0116,11.5570
39.4716,11.5570
39.4716,8.3820
44.5516,8.3820
44.5516,11.5570
42.0116,11.5570
" /> 
<circle cx="44.0436" cy="14.7320" r="0.5080" /> 
</g>
<g style="fill:#000000; fill-opacity:0.0; 
stroke:#000000; stroke-width:0.1905; stroke-opacity:1; 
stroke-linecap:round; stroke-linejoin:round;">
<text x="42.0116" y="10.4140"
textLength="4.5485" font-size="2.0320" lengthAdjust="spacingAndGlyphs"
text-anchor="middle" opacity="0">LCD</text>
<g class="stroked-text"><desc>LCD</desc>
<path d="M40.9593 10.3470
L40.2336 10.3470
" />
<path d="M40.2336 10.3470
L40.2336 8.8230
" />
<path d="M42.3382 10.2019
L42.2656 10.2745
" />
<path d="M42.2656 10.2745
L42.0479 10.3470
" />
<path d="M42.0479 10.3470
L41.9027 10.3470
" />
<path d="M41.9027 10.3470
L41.6850 10.2745
" />
<path d="M41.6850 10.2745
L41.5399 10.1293
" />
<path d="M41.5399 10.1293
L41.4673 9.9842
" />
<path d="M41.4673 9.9842
L41.3947 9.6939
" />
<path d="M41.3947 9.6939
L41.3947 9.4762
" />
<path d="M41.3947 9.4762
L41.4673 9.1859
" />
<path d="M41.4673 9.1859
L41.5399 9.0407
" />
<path d="M41.5399 9.0407
L41.6850 8.8956
" />
<path d="M41.6850 8.8956
L41.9027 8.8230
" />
<path d="M41.9027 8.8230
L42.0479 8.8230
" />
<path d="M42.0479 8.8230
L42.2656 8.8956
" />
<path d="M42.2656 8.8956
L42.3382 8.9682
" />
<path d="M42.9913 10.3470
L42.9913 8.8230
" />
<path d="M42.9913 8.8230
L43.3542 8.8230
" />
<path d="M43.3542 8.8230
L43.5719 8.8956
" />
<path d="M43.5719 8.8956
L43.7170 9.0407
" />
<path d="M43.7170 9.0407
L43.7896 9.1859
" />
<path d="M43.7896 9.1859
L43.8622 9.4762
" />
<path d="M43.8622 9.4762
L43.8622 9.6939
" />
<path d="M43.8622 9.6939
L43.7896 9.9842
" />
<path d="M43.7896 9.9842
L43.7170 10.1293
" />
<path d="M43.7170 10.1293
L43.5719 10.2745
" />
<path d="M43.5719 10.2745
L43.3542 10.3470
" />
<path d="M43.3542 10.3470
L42.9913 10.3470
" />
</g></g>
<g style="fill:#000000; fill-opacity:0.0; 
stroke:#000000; stroke-width:0.1524; stroke-opacity:1; 
stroke-linecap:round; stroke-linejoin:round;">
<path d="M42.0116 19.8120
L42.0116 22.3520
" />
<g transform="rotate(-90.000000 42.0116 19.7866)">
<text x="42.0116" y="20.4216"
textLength="4.0737" font-size="1.6933" lengthAdjust="spacingAndGlyphs"
text-anchor="start" opacity="0">GND</text>
</g>
<g class="stroked-text"><desc>GND</desc>
<path d="M41.3816 18.7187
L41.3211 18.8397
" />
<path d="M41.3211 18.8397
L41.3211 19.0211
" />
<path d="M41.3211 19.0211
L41.3816 19.2025
" />
<path d="M41.3816 19.2025
L41.5026 19.3235
" />
<path d="M41.5026 19.3235
L41.6235 19.3840
" />
<path d="M41.6235 19.3840
L41.8654 19.4444
" />
<path d="M41.8654 19.4444
L42.0468 19.4444
" />
<path d="M42.0468 19.4444
L42.2887 19.3840
" />
<path d="M42.2887 19.3840
L42.4097 19.3235
" />
<path d="M42.4097 19.3235
L42.5307 19.2025
" />
<path d="M42.5307 19.2025
L42.5911 19.0211
" />
<path d="M42.5911 19.0211
L42.5911 18.9002
" />
<path d="M42.5911 18.9002
L42.5307 18.7187
" />
<path d="M42.5307 18.7187
L42.4702 18.6583
" />
<path d="M42.4702 18.6583
L42.0468 18.6583
" />
<path d="M42.0468 18.6583
L42.0468 18.9002
" />
<path d="M42.5911 18.1140
L41.3211 18.1140
" />
<path d="M41.3211 18.1140
L42.5911 17.3883
" />
<path d="M42.5911 17.3883
L41.3211 17.3883
" />
<path d="M42.5911 16.7835
L41.3211 16.7835
" />
<path d="M41.3211 16.7835
L41.3211 16.4811
" />
<path d="M41.3211 16.4811
L41.3816 16.2997
" />
<path d="M41.3816 16.2997
L41.5026 16.1787
" />
<path d="M41.5026 16.1787
L41.6235 16.1182
" />
<path d="M41.6235 16.1182
L41.8654 16.0578
" />
<path d="M41.8654 16.0578
L42.0468 16.0578
" />
<path d="M42.0468 16.0578
L42.2887 16.1182
" />
<path d="M42.2887 16.1182
L42.4097 16.1787
" />
<path d="M42.4097 16.1787
L42.5307 16.2997
" />
<path d="M42.5307 16.2997
L42.5911 16.4811
" />
<path d="M42.5911 16.4811
L42.5911 16.7835
" />
</g><g transform="rotate(-90.000000 41.7576 21.0820)">
<text x="41.7576" y="21.0820"
textLength="1.4127" font-size="1.6933" lengthAdjust="spacingAndGlyphs"
text-anchor="middle" opacity="0">1</text>
</g>
<g class="stroked-text"><desc>1</desc>
<path d="M41.5941 20.7190
L41.5941 21.4447
" />
<path d="M41.5941 21.0819
L40.3241 21.0819
" />
<path d="M40.3241 21.0819
L40.5056 21.2028
" />
<path d="M40.5056 21.2028
L40.6265 21.3238
" />
<path d="M40.6265 21.3238
L40.6870 21.4447
" />
</g><path d="M42.0116 4.5720
L42.0116 2.0320
" />
<g transform="rotate(-90.000000 42.0116 4.5974)">
<text x="42.0116" y="5.2324"
textLength="2.5013" font-size="1.6933" lengthAdjust="spacingAndGlyphs"
text-anchor="end" opacity="0">5V</text>
</g>
<g class="stroked-text"><desc>5V</desc>
<path d="M41.3211 6.0885
L41.3211 6.6933
" />
<path d="M41.3211 6.6933
L41.9259 6.7537
" />
<path d="M41.9259 6.7537
L41.8654 6.6933
" />
<path d="M41.8654 6.6933
L41.8049 6.5723
" />
<path d="M41.8049 6.5723
L41.8049 6.2699
" />
<path d="M41.8049 6.2699
L41.8654 6.1490
" />
<path d="M41.8654 6.1490
L41.9259 6.0885
" />
<path d="M41.9259 6.0885
L42.0468 6.0280
" />
<path d="M42.0468 6.0280
L42.3492 6.0280
" />
<path d="M42.3492 6.0280
L42.4702 6.0885
" />
<path d="M42.4702 6.0885
L42.5307 6.1490
" />
<path d="M42.5307 6.1490
L42.5911 6.2699
" />
<path d="M42.5911 6.2699
L42.5911 6.5723
" />
<path d="M42.5911 6.5723
L42.5307 6.6933
" />
<path d="M42.5307 6.6933
L42.4702 6.7537
" />
<path d="M41.3211 5.6652
L42.5911 5.2419
" />
<path d="M42.5911 5.2419
L41.3211 4.8185
" />
</g><g transform="rotate(-90.000000 41.7576 3.3020)">
<text x="41.7576" y="3.3020"
textLength="1.4127" font-size="1.6933" lengthAdjust="spacingAndGlyphs"
text-anchor="middle" opacity="0">2</text>
</g>
<g class="stroked-text"><desc>2</desc>
<path d="M40.4451 3.6647
L40.3846 3.6043
" />
<path d="M40.3846 3.6043
L40.3241 3.4833
" />
<path d="M40.3241 3.4833
L40.3241 3.1809
" />
<path d="M40.3241 3.1809
L40.3846 3.0600
" />
<path d="M40.3846 3.0600
L40.4451 2.9995
" />
<path d="M40.4451 2.9995
L40.5660 2.9390
" />
<path d="M40.5660 2.9390
L40.6870 2.9390
" />
<path d="M40.6870 2.9390
L40.8684 2.9995
" />
<path d="M40.8684 2.9995
L41.5941 3.7252
" />
<path d="M41.5941 3.7252
L41.5941 2.9390
" />
</g><path d="M34.3916 7.1120
L31.8516 7.1120
" />
<text x="34.4170" y="7.7470"
textLength="3.7713" font-size="1.6933" lengthAdjust="spacingAndGlyphs"
text-anchor="start" opacity="0">CLK</text>
<g class="stroked-text"><desc>CLK</desc>
<path d="M35.5452 7.5706
L35.4848 7.6311
" />
<path d="M35.4848 7.6311
L35.3033 7.6915
" />
<path d="M35.3033 7.6915
L35.1824 7.6915
" />
<path d="M35.1824 7.6915
L35.0010 7.6311
" />
<path d="M35.0010 7.6311
L34.8800 7.5101
" />
<path d="M34.8800 7.5101
L34.8195 7.3891
" />
<path d="M34.8195 7.3891
L34.7591 7.1472
" />
<path d="M34.7591 7.1472
L34.7591 6.9658
" />
<path d="M34.7591 6.9658
L34.8195 6.7239
" />
<path d="M34.8195 6.7239
L34.8800 6.6030
" />
<path d="M34.8800 6.6030
L35.0010 6.4820
" />
<path d="M35.0010 6.4820
L35.1824 6.4215
" />
<path d="M35.1824 6.4215
L35.3033 6.4215
" />
<path d="M35.3033 6.4215
L35.4848 6.4820
" />
<path d="M35.4848 6.4820
L35.5452 6.5425
" />
<path d="M36.6943 7.6915
L36.0895 7.6915
" />
<path d="M36.0895 7.6915
L36.0895 6.4215
" />
<path d="M37.1176 7.6915
L37.1176 6.4215
" />
<path d="M37.8433 7.6915
L37.2991 6.9658
" />
<path d="M37.8433 6.4215
L37.1176 7.1472
" />
</g><text x="33.1216" y="6.8580"
textLength="1.4127" font-size="1.6933" lengthAdjust="spacingAndGlyphs"
text-anchor="middle" opacity="0">3</text>
<g class="stroked-text"><desc>3</desc>
<path d="M32.6983 5.4245
L33.4845 5.4245
" />
<path d="M33.4845 5.4245
L33.0611 5.9083
" />
<path d="M33.0611 5.9083
L33.2426 5.9083
" />
<path d="M33.2426 5.9083
L33.3635 5.9688
" />
<path d="M33.3635 5.9688
L33.4240 6.0293
" />
<path d="M33.4240 6.0293
L33.4845 6.1502
" />
<path d="M33.4845 6.1502
L33.4845 6.4526
" />
<path d="M33.4845 6.4526
L33.4240 6.5736
" />
<path d="M33.4240 6.5736
L33.3635 6.6341
" />
<path d="M33.3635 6.6341
L33.2426 6.6945
" />
<path d="M33.2426 6.6945
L32.8797 6.6945
" />
<path d="M32.8797 6.6945
L32.7588 6.6341
" />
<path d="M32.7588 6.6341
L32.6983 6.5736
" />
</g><path d="M34.3916 9.6520
L31.8516 9.6520
" />
<text x="34.4170" y="10.2870"
textLength="3.5294" font-size="1.6933" lengthAdjust="spacingAndGlyphs"
text-anchor="start" opacity="0">DAT</text>
<g class="stroked-text"><desc>DAT</desc>
<path d="M34.8195 10.2315
L34.8195 8.9615
" />
<path d="M34.8195 8.9615
L35.1219 8.9615
" />
<path d="M35.1219 8.9615
L35.3033 9.0220
" />
<path d="M35.3033 9.0220
L35.4243 9.1430
" />
<path d="M35.4243 9.1430
L35.4848 9.2639
" />
<path d="M35.4848 9.2639
L35.5452 9.5058
" />
<path d="M35.5452 9.5058
L35.5452 9.6872
" />
<path d="M35.5452 9.6872
L35.4848 9.9291
" />
<path d="M35.4848 9.9291
L35.4243 10.0501
" />
<path d="M35.4243 10.0501
L35.3033 10.1711
" />
<path d="M35.3033 10.1711
L35.1219 10.2315
" />
<path d="M35.1219 10.2315
L34.8195 10.2315
" />
<path d="M36.0291 9.8687
L36.6338 9.8687
" />
<path d="M35.9081 10.2315
L36.3314 8.9615
" />
<path d="M36.3314 8.9615
L36.7548 10.2315
" />
<path d="M36.9967 8.9615
L37.7224 8.9615
" />
<path d="M37.3596 10.2315
L37.3596 8.9615
" />
</g><text x="33.1216" y="9.3980"
textLength="1.4127" font-size="1.6933" lengthAdjust="spacingAndGlyphs"
text-anchor="middle" opacity="0">4</text>
<g class="stroked-text"><desc>4</desc>
<path d="M33.3635 8.3879
L33.3635 9.2345
" />
<path d="M33.0611 7.9041
L32.7588 8.8112
" />
<path d="M32.7588 8.8112
L33.5449 8.8112
" />
</g><path d="M34.3916 14.7320
L31.8516 14.7320
" />
<text x="34.4170" y="15.3670"
textLength="4.0736" font-size="1.6933" lengthAdjust="spacingAndGlyphs"
text-anchor="start" opacity="0">SW1</text>
<g class="stroked-text"><desc>SW1</desc>
<path d="M34.7591 15.2511
L34.9405 15.3115
" />
<path d="M34.9405 15.3115
L35.2429 15.3115
" />
<path d="M35.2429 15.3115
L35.3638 15.2511
" />
<path d="M35.3638 15.2511
L35.4243 15.1906
" />
<path d="M35.4243 15.1906
L35.4848 15.0696
" />
<path d="M35.4848 15.0696
L35.4848 14.9487
" />
<path d="M35.4848 14.9487
L35.4243 14.8277
" />
<path d="M35.4243 14.8277
L35.3638 14.7672
" />
<path d="M35.3638 14.7672
L35.2429 14.7068
" />
<path d="M35.2429 14.7068
L35.0010 14.6463
" />
<path d="M35.0010 14.6463
L34.8800 14.5858
" />
<path d="M34.8800 14.5858
L34.8195 14.5253
" />
<path d="M34.8195 14.5253
L34.7591 14.4044
" />
<path d="M34.7591 14.4044
L34.7591 14.2834
" />
<path d="M34.7591 14.2834
L34.8195 14.1625
" />
<path d="M34.8195 14.1625
L34.8800 14.1020
" />
<path d="M34.8800 14.1020
L35.0010 14.0415
" />
<path d="M35.0010 14.0415
L35.3033 14.0415
" />
<path d="M35.3033 14.0415
L35.4848 14.1020
" />
<path d="M35.9081 14.0415
L36.2105 15.3115
" />
<path d="M36.2105 15.3115
L36.4524 14.4044
" />
<path d="M36.4524 14.4044
L36.6943 15.3115
" />
<path d="M36.6943 15.3115
L36.9967 14.0415
" />
<path d="M38.1457 15.3115
L37.4200 15.3115
" />
<path d="M37.7828 15.3115
L37.7828 14.0415
" />
<path d="M37.7828 14.0415
L37.6619 14.2230
" />
<path d="M37.6619 14.2230
L37.5409 14.3439
" />
<path d="M37.5409 14.3439
L37.4200 14.4044
" />
</g><text x="33.1216" y="14.4780"
textLength="1.4127" font-size="1.6933" lengthAdjust="spacingAndGlyphs"
text-anchor="middle" opacity="0">5</text>
<g class="stroked-text"><desc>5</desc>
<path d="M33.4240 13.0445
L32.8192 13.0445
" />
<path d="M32.8192 13.0445
L32.7588 13.6493
" />
<path d="M32.7588 13.6493
L32.8192 13.5888
" />
<path d="M32.8192 13.5888
L32.9402 13.5283
" />
<path d="M32.9402 13.5283
L33.2426 13.5283
" />
<path d="M33.2426 13.5283
L33.3635 13.5888
" />
<path d="M33.3635 13.5888
L33.4240 13.6493
" />
<path d="M33.4240 13.6493
L33.4845 13.7702
" />
<path d="M33.4845 13.7702
L33.4845 14.0726
" />
<path d="M33.4845 14.0726
L33.4240 14.1936
" />
<path d="M33.4240 14.1936
L33.3635 14.2541
" />
<path d="M33.3635 14.2541
L33.2426 14.3145
" />
<path d="M33.2426 14.3145
L32.9402 14.3145
" />
<path d="M32.9402 14.3145
L32.8192 14.2541
" />
<path d="M32.8192 14.2541
L32.7588 14.1936
" />
</g><path d="M49.6316 14.7320
L52.1716 14.7320
" />
<text x="49.6062" y="15.3670"
textLength="4.0736" font-size="1.6933" lengthAdjust="spacingAndGlyphs"
text-anchor="end" opacity="0">SW2</text>
<g class="stroked-text"><desc>SW2</desc>
<path d="M45.8775 15.2511
L46.0589 15.3115
" />
<path d="M46.0589 15.3115
L46.3613 15.3115
" />
<path d="M46.3613 15.3115
L46.4822 15.2511
" />
<path d="M46.4822 15.2511
L46.5427 15.1906
" />
<path d="M46.5427 15.1906
L46.6032 15.0696
" />
<path d="M46.6032 15.0696
L46.6032 14.9487
" />
<path d="M46.6032 14.9487
L46.5427 14.8277
" />
<path d="M46.5427 14.8277
L46.4822 14.7672
" />
<path d="M46.4822 14.7672
L46.3613 14.7068
" />
<path d="M46.3613 14.7068
L46.1194 14.6463
" />
<path d="M46.1194 14.6463
L45.9984 14.5858
" />
<path d="M45.9984 14.5858
L45.9379 14.5253
" />
<path d="M45.9379 14.5253
L45.8775 14.4044
" />
<path d="M45.8775 14.4044
L45.8775 14.2834
" />
<path d="M45.8775 14.2834
L45.9379 14.1625
" />
<path d="M45.9379 14.1625
L45.9984 14.1020
" />
<path d="M45.9984 14.1020
L46.1194 14.0415
" />
<path d="M46.1194 14.0415
L46.4217 14.0415
" />
<path d="M46.4217 14.0415
L46.6032 14.1020
" />
<path d="M47.0265 14.0415
L47.3289 15.3115
" />
<path d="M47.3289 15.3115
L47.5708 14.4044
" />
<path d="M47.5708 14.4044
L47.8127 15.3115
" />
<path d="M47.8127 15.3115
L48.1151 14.0415
" />
<path d="M48.5384 14.1625
L48.5988 14.1020
" />
<path d="M48.5988 14.1020
L48.7198 14.0415
" />
<path d="M48.7198 14.0415
L49.0222 14.0415
" />
<path d="M49.0222 14.0415
L49.1431 14.1020
" />
<path d="M49.1431 14.1020
L49.2036 14.1625
" />
<path d="M49.2036 14.1625
L49.2641 14.2834
" />
<path d="M49.2641 14.2834
L49.2641 14.4044
" />
<path d="M49.2641 14.4044
L49.2036 14.5858
" />
<path d="M49.2036 14.5858
L48.4779 15.3115
" />
<path d="M48.4779 15.3115
L49.2641 15.3115
" />
</g><text x="50.9016" y="14.4780"
textLength="1.4127" font-size="1.6933" lengthAdjust="spacingAndGlyphs"
text-anchor="middle" opacity="0">6</text>
<g class="stroked-text"><desc>6</desc>
<path d="M51.1435 13.0445
L50.9016 13.0445
" />
<path d="M50.9016 13.0445
L50.7807 13.1050
" />
<path d="M50.7807 13.1050
L50.7202 13.1655
" />
<path d="M50.7202 13.1655
L50.5992 13.3469
" />
<path d="M50.5992 13.3469
L50.5388 13.5888
" />
<path d="M50.5388 13.5888
L50.5388 14.0726
" />
<path d="M50.5388 14.0726
L50.5992 14.1936
" />
<path d="M50.5992 14.1936
L50.6597 14.2541
" />
<path d="M50.6597 14.2541
L50.7807 14.3145
" />
<path d="M50.7807 14.3145
L51.0226 14.3145
" />
<path d="M51.0226 14.3145
L51.1435 14.2541
" />
<path d="M51.1435 14.2541
L51.2040 14.1936
" />
<path d="M51.2040 14.1936
L51.2645 14.0726
" />
<path d="M51.2645 14.0726
L51.2645 13.7702
" />
<path d="M51.2645 13.7702
L51.2040 13.6493
" />
<path d="M51.2040 13.6493
L51.1435 13.5888
" />
<path d="M51.1435 13.5888
L51.0226 13.5283
" />
<path d="M51.0226 13.5283
L50.7807 13.5283
" />
<path d="M50.7807 13.5283
L50.6597 13.5888
" />
<path d="M50.6597 13.5888
L50.5992 13.6493
" />
<path d="M50.5992 13.6493
L50.5388 13.7702
" />
</g></g>
<g style="fill:#000000; fill-opacity:0.0; 
stroke:#000000; stroke-width:0.1588; stroke-opacity:1; 
stroke-linecap:round; stroke-linejoin:round;">
<text x="45.2675" y="3.9370"
textLength="3.9719" font-size="1.6933" lengthAdjust="spacingAndGlyphs"
text-anchor="middle" opacity="0">SW?</text>
<g class="stroked-text"><desc>SW?</desc>
<path d="M43.6347 3.8208
L43.8161 3.8812
" />
<path d="M43.8161 3.8812
L44.1185 3.8812
" />
<path d="M44.1185 3.8812
L44.2394 3.8208
" />
<path d="M44.2394 3.8208
L44.2999 3.7603
" />
<path d="M44.2999 3.7603
L44.3604 3.6393
" />
<path d="M44.3604 3.6393
L44.3604 3.5184
" />
<path d="M44.3604 3.5184
L44.2999 3.3974
" />
<path d="M44.2999 3.3974
L44.2394 3.3369
" />
<path d="M44.2394 3.3369
L44.1185 3.2765
" />
<path d="M44.1185 3.2765
L43.8766 3.2160
" />
<path d="M43.8766 3.2160
L43.7556 3.1555
" />
<path d="M43.7556 3.1555
L43.6951 3.0950
" />
<path d="M43.6951 3.0950
L43.6347 2.9741
" />
<path d="M43.6347 2.9741
L43.6347 2.8531
" />
<path d="M43.6347 2.8531
L43.6951 2.7322
" />
<path d="M43.6951 2.7322
L43.7556 2.6717
" />
<path d="M43.7556 2.6717
L43.8766 2.6112
" />
<path d="M43.8766 2.6112
L44.1789 2.6112
" />
<path d="M44.1789 2.6112
L44.3604 2.6717
" />
<path d="M44.7837 2.6112
L45.0861 3.8812
" />
<path d="M45.0861 3.8812
L45.3280 2.9741
" />
<path d="M45.3280 2.9741
L45.5699 3.8812
" />
<path d="M45.5699 3.8812
L45.8723 2.6112
" />
<path d="M46.5375 3.7603
L46.5979 3.8208
" />
<path d="M46.5979 3.8208
L46.5375 3.8812
" />
<path d="M46.5375 3.8812
L46.4770 3.8208
" />
<path d="M46.4770 3.8208
L46.5375 3.7603
" />
<path d="M46.5375 3.7603
L46.5375 3.8812
" />
<path d="M46.2956 2.6717
L46.4165 2.6112
" />
<path d="M46.4165 2.6112
L46.7189 2.6112
" />
<path d="M46.7189 2.6112
L46.8398 2.6717
" />
<path d="M46.8398 2.6717
L46.9003 2.7927
" />
<path d="M46.9003 2.7927
L46.9003 2.9136
" />
<path d="M46.9003 2.9136
L46.8398 3.0346
" />
<path d="M46.8398 3.0346
L46.7794 3.0950
" />
<path d="M46.7794 3.0950
L46.6584 3.1555
" />
<path d="M46.6584 3.1555
L46.5979 3.2160
" />
<path d="M46.5979 3.2160
L46.5375 3.3369
" />
<path d="M46.5375 3.3369
L46.5375 3.3974
" />
</g><text x="49.6316" y="21.7170"
textLength="16.0670" font-size="1.6933" lengthAdjust="spacingAndGlyphs"
text-anchor="middle" opacity="0">SW_MMI_Q5-100</text>
<g class="stroked-text"><desc>SW_MMI_Q5-100</desc>
<path d="M41.9512 21.6008
L42.1326 21.6612
" />
<path d="M42.1326 21.6612
L42.4350 21.6612
" />
<path d="M42.4350 21.6612
L42.5559 21.6008
" />
<path d="M42.5559 21.6008
L42.6164 21.5403
" />
<path d="M42.6164 21.5403
L42.6769 21.4193
" />
<path d="M42.6769 21.4193
L42.6769 21.2984
" />
<path d="M42.6769 21.2984
L42.6164 21.1774
" />
<path d="M42.6164 21.1774
L42.5559 21.1169
" />
<path d="M42.5559 21.1169
L42.4350 21.0565
" />
<path d="M42.4350 21.0565
L42.1931 20.9960
" />
<path d="M42.1931 20.9960
L42.0721 20.9355
" />
<path d="M42.0721 20.9355
L42.0116 20.8750
" />
<path d="M42.0116 20.8750
L41.9512 20.7541
" />
<path d="M41.9512 20.7541
L41.9512 20.6331
" />
<path d="M41.9512 20.6331
L42.0116 20.5122
" />
<path d="M42.0116 20.5122
L42.0721 20.4517
" />
<path d="M42.0721 20.4517
L42.1931 20.3912
" />
<path d="M42.1931 20.3912
L42.4954 20.3912
" />
<path d="M42.4954 20.3912
L42.6769 20.4517
" />
<path d="M43.1002 20.3912
L43.4026 21.6612
" />
<path d="M43.4026 21.6612
L43.6445 20.7541
" />
<path d="M43.6445 20.7541
L43.8864 21.6612
" />
<path d="M43.8864 21.6612
L44.1888 20.3912
" />
<path d="M44.3702 21.7822
L45.3378 21.7822
" />
<path d="M45.6401 21.6612
L45.6401 20.3912
" />
<path d="M45.6401 20.3912
L46.0635 21.2984
" />
<path d="M46.0635 21.2984
L46.4868 20.3912
" />
<path d="M46.4868 20.3912
L46.4868 21.6612
" />
<path d="M47.0915 21.6612
L47.0915 20.3912
" />
<path d="M47.0915 20.3912
L47.5149 21.2984
" />
<path d="M47.5149 21.2984
L47.9382 20.3912
" />
<path d="M47.9382 20.3912
L47.9382 21.6612
" />
<path d="M48.5429 21.6612
L48.5429 20.3912
" />
<path d="M48.8454 21.7822
L49.8130 21.7822
" />
<path d="M50.9620 21.7822
L50.8410 21.7217
" />
<path d="M50.8410 21.7217
L50.7201 21.6008
" />
<path d="M50.7201 21.6008
L50.5387 21.4193
" />
<path d="M50.5387 21.4193
L50.4177 21.3588
" />
<path d="M50.4177 21.3588
L50.2968 21.3588
" />
<path d="M50.3572 21.6612
L50.2363 21.6008
" />
<path d="M50.2363 21.6008
L50.1153 21.4798
" />
<path d="M50.1153 21.4798
L50.0549 21.2379
" />
<path d="M50.0549 21.2379
L50.0549 20.8146
" />
<path d="M50.0549 20.8146
L50.1153 20.5727
" />
<path d="M50.1153 20.5727
L50.2363 20.4517
" />
<path d="M50.2363 20.4517
L50.3572 20.3912
" />
<path d="M50.3572 20.3912
L50.5991 20.3912
" />
<path d="M50.5991 20.3912
L50.7201 20.4517
" />
<path d="M50.7201 20.4517
L50.8410 20.5727
" />
<path d="M50.8410 20.5727
L50.9015 20.8146
" />
<path d="M50.9015 20.8146
L50.9015 21.2379
" />
<path d="M50.9015 21.2379
L50.8410 21.4798
" />
<path d="M50.8410 21.4798
L50.7201 21.6008
" />
<path d="M50.7201 21.6008
L50.5991 21.6612
" />
<path d="M50.5991 21.6612
L50.3572 21.6612
" />
<path d="M52.0506 20.3912
L51.4458 20.3912
" />
<path d="M51.4458 20.3912
L51.3854 20.9960
" />
<path d="M51.3854 20.9960
L51.4458 20.9355
" />
<path d="M51.4458 20.9355
L51.5668 20.8750
" />
<path d="M51.5668 20.8750
L51.8692 20.8750
" />
<path d="M51.8692 20.8750
L51.9901 20.9355
" />
<path d="M51.9901 20.9355
L52.0506 20.9960
" />
<path d="M52.0506 20.9960
L52.1111 21.1169
" />
<path d="M52.1111 21.1169
L52.1111 21.4193
" />
<path d="M52.1111 21.4193
L52.0506 21.5403
" />
<path d="M52.0506 21.5403
L51.9901 21.6008
" />
<path d="M51.9901 21.6008
L51.8692 21.6612
" />
<path d="M51.8692 21.6612
L51.5668 21.6612
" />
<path d="M51.5668 21.6612
L51.4458 21.6008
" />
<path d="M51.4458 21.6008
L51.3854 21.5403
" />
<path d="M52.6553 21.1774
L53.6230 21.1774
" />
<path d="M54.8930 21.6612
L54.1673 21.6612
" />
<path d="M54.5301 21.6612
L54.5301 20.3912
" />
<path d="M54.5301 20.3912
L54.4092 20.5727
" />
<path d="M54.4092 20.5727
L54.2882 20.6936
" />
<path d="M54.2882 20.6936
L54.1673 20.7541
" />
<path d="M55.6791 20.3912
L55.8001 20.3912
" />
<path d="M55.8001 20.3912
L55.9210 20.4517
" />
<path d="M55.9210 20.4517
L55.9815 20.5122
" />
<path d="M55.9815 20.5122
L56.0420 20.6331
" />
<path d="M56.0420 20.6331
L56.1025 20.8750
" />
<path d="M56.1025 20.8750
L56.1025 21.1774
" />
<path d="M56.1025 21.1774
L56.0420 21.4193
" />
<path d="M56.0420 21.4193
L55.9815 21.5403
" />
<path d="M55.9815 21.5403
L55.9210 21.6008
" />
<path d="M55.9210 21.6008
L55.8001 21.6612
" />
<path d="M55.8001 21.6612
L55.6791 21.6612
" />
<path d="M55.6791 21.6612
L55.5582 21.6008
" />
<path d="M55.5582 21.6008
L55.4977 21.5403
" />
<path d="M55.4977 21.5403
L55.4372 21.4193
" />
<path d="M55.4372 21.4193
L55.3768 21.1774
" />
<path d="M55.3768 21.1774
L55.3768 20.8750
" />
<path d="M55.3768 20.8750
L55.4372 20.6331
" />
<path d="M55.4372 20.6331
L55.4977 20.5122
" />
<path d="M55.4977 20.5122
L55.5582 20.4517
" />
<path d="M55.5582 20.4517
L55.6791 20.3912
" />
<path d="M56.8886 20.3912
L57.0096 20.3912
" />
<path d="M57.0096 20.3912
L57.1305 20.4517
" />
<path d="M57.1305 20.4517
L57.1910 20.5122
" />
<path d="M57.1910 20.5122
L57.2515 20.6331
" />
<path d="M57.2515 20.6331
L57.3120 20.8750
" />
<path d="M57.3120 20.8750
L57.3120 21.1774
" />
<path d="M57.3120 21.1774
L57.2515 21.4193
" />
<path d="M57.2515 21.4193
L57.1910 21.5403
" />
<path d="M57.1910 21.5403
L57.1305 21.6008
" />
<path d="M57.1305 21.6008
L57.0096 21.6612
" />
<path d="M57.0096 21.6612
L56.8886 21.6612
" />
<path d="M56.8886 21.6612
L56.7677 21.6008
" />
<path d="M56.7677 21.6008
L56.7072 21.5403
" />
<path d="M56.7072 21.5403
L56.6467 21.4193
" />
<path d="M56.6467 21.4193
L56.5863 21.1774
" />
<path d="M56.5863 21.1774
L56.5863 20.8750
" />
<path d="M56.5863 20.8750
L56.6467 20.6331
" />
<path d="M56.6467 20.6331
L56.7072 20.5122
" />
<path d="M56.7072 20.5122
L56.7677 20.4517
" />
<path d="M56.7677 20.4517
L56.8886 20.3912
" />
</g></g> 
</svg>
