<?xml version="1.0" standalone="no"?>
 <!DOCTYPE svg PUBLIC "-//W3C//DTD SVG 1.1//EN" 
 "http://www.w3.org/Graphics/SVG/1.1/DTD/svg11.dtd"> 
<svg
  xmlns:svg="http://www.w3.org/2000/svg"
  xmlns="http://www.w3.org/2000/svg"
  xmlns:xlink="http://www.w3.org/1999/xlink"
  version="1.1"
  width="181.8894mm" height="99.2378mm" viewBox="0.0000 0.0000 181.8894 99.2378">
<title>SVG Image created as cp2104.svg date 2024/01/16 15:19:42 </title>
  <desc>Image generated by Eeschema-SVG </desc>
<g style="fill:#000000; fill-opacity:1.0000;stroke:#000000; stroke-opacity:1.0000;
stroke-linecap:round; stroke-linejoin:round;"
 transform="translate(0 0) scale(1 1)">
</g>
<g style="fill:#000000; fill-opacity:0.0; 
stroke:#000000; stroke-width:0.0000; stroke-opacity:1; 
stroke-linecap:round; stroke-linejoin:round;">
</g>
<g style="fill:#000000; fill-opacity:0.0; 
stroke:#000000; stroke-width:0.2540; stroke-opacity:1; 
stroke-linecap:round; stroke-linejoin:round;">
<rect x="80.784700" y="24.218900" width="20.320000" height="50.800000" rx="0.000000" />
</g>
<g style="fill:#000000; fill-opacity:0.0; 
stroke:#000000; stroke-width:0.1524; stroke-opacity:1; 
stroke-linecap:round; stroke-linejoin:round;">
<path d="M101.1047 44.5389
L103.6447 44.5389
" />
<text x="100.5967" y="45.1739"
textLength="2.0780" font-size="1.6933" lengthAdjust="spacingAndGlyphs"
text-anchor="end" opacity="0">~{RI}</text>
<g class="stroked-text"><desc>~{RI}</desc>
<path d="M99.6497 45.1184
L99.2264 44.5137
" />
<path d="M98.9240 45.1184
L98.9240 43.8484
" />
<path d="M98.9240 43.8484
L99.4078 43.8484
" />
<path d="M99.4078 43.8484
L99.5288 43.9089
" />
<path d="M99.5288 43.9089
L99.5893 43.9694
" />
<path d="M99.5893 43.9694
L99.6497 44.0903
" />
<path d="M99.6497 44.0903
L99.6497 44.2718
" />
<path d="M99.6497 44.2718
L99.5893 44.3927
" />
<path d="M99.5893 44.3927
L99.5288 44.4532
" />
<path d="M99.5288 44.4532
L99.4078 44.5137
" />
<path d="M99.4078 44.5137
L98.9240 44.5137
" />
<path d="M100.1940 45.1184
L100.1940 43.8484
" />
<path d="M98.7487 43.4959
L100.3695 43.4959
" />
</g><text x="102.3747" y="44.2849"
textLength="1.4127" font-size="1.6933" lengthAdjust="spacingAndGlyphs"
text-anchor="middle" opacity="0">1</text>
<g class="stroked-text"><desc>1</desc>
<path d="M102.7376 44.1214
L102.0119 44.1214
" />
<path d="M102.3747 44.1214
L102.3747 42.8514
" />
<path d="M102.3747 42.8514
L102.2538 43.0329
" />
<path d="M102.2538 43.0329
L102.1328 43.1538
" />
<path d="M102.1328 43.1538
L102.0119 43.2143
" />
</g><path d="M101.1047 64.8589
L103.6447 64.8589
" />
<text x="100.5967" y="65.4939"
textLength="6.4928" font-size="1.6933" lengthAdjust="spacingAndGlyphs"
text-anchor="end" opacity="0">GPIO.3</text>
<g class="stroked-text"><desc>GPIO.3</desc>
<path d="M95.1745 64.2289
L95.0535 64.1684
" />
<path d="M95.0535 64.1684
L94.8721 64.1684
" />
<path d="M94.8721 64.1684
L94.6907 64.2289
" />
<path d="M94.6907 64.2289
L94.5697 64.3499
" />
<path d="M94.5697 64.3499
L94.5092 64.4708
" />
<path d="M94.5092 64.4708
L94.4488 64.7127
" />
<path d="M94.4488 64.7127
L94.4488 64.8941
" />
<path d="M94.4488 64.8941
L94.5092 65.1360
" />
<path d="M94.5092 65.1360
L94.5697 65.2570
" />
<path d="M94.5697 65.2570
L94.6907 65.3780
" />
<path d="M94.6907 65.3780
L94.8721 65.4384
" />
<path d="M94.8721 65.4384
L94.9930 65.4384
" />
<path d="M94.9930 65.4384
L95.1745 65.3780
" />
<path d="M95.1745 65.3780
L95.2349 65.3175
" />
<path d="M95.2349 65.3175
L95.2349 64.8941
" />
<path d="M95.2349 64.8941
L94.9930 64.8941
" />
<path d="M95.7792 65.4384
L95.7792 64.1684
" />
<path d="M95.7792 64.1684
L96.2630 64.1684
" />
<path d="M96.2630 64.1684
L96.3840 64.2289
" />
<path d="M96.3840 64.2289
L96.4445 64.2894
" />
<path d="M96.4445 64.2894
L96.5049 64.4103
" />
<path d="M96.5049 64.4103
L96.5049 64.5918
" />
<path d="M96.5049 64.5918
L96.4445 64.7127
" />
<path d="M96.4445 64.7127
L96.3840 64.7732
" />
<path d="M96.3840 64.7732
L96.2630 64.8337
" />
<path d="M96.2630 64.8337
L95.7792 64.8337
" />
<path d="M97.0492 65.4384
L97.0492 64.1684
" />
<path d="M97.8959 64.1684
L98.1378 64.1684
" />
<path d="M98.1378 64.1684
L98.2588 64.2289
" />
<path d="M98.2588 64.2289
L98.3797 64.3499
" />
<path d="M98.3797 64.3499
L98.4402 64.5918
" />
<path d="M98.4402 64.5918
L98.4402 65.0151
" />
<path d="M98.4402 65.0151
L98.3797 65.2570
" />
<path d="M98.3797 65.2570
L98.2588 65.3780
" />
<path d="M98.2588 65.3780
L98.1378 65.4384
" />
<path d="M98.1378 65.4384
L97.8959 65.4384
" />
<path d="M97.8959 65.4384
L97.7750 65.3780
" />
<path d="M97.7750 65.3780
L97.6540 65.2570
" />
<path d="M97.6540 65.2570
L97.5936 65.0151
" />
<path d="M97.5936 65.0151
L97.5936 64.5918
" />
<path d="M97.5936 64.5918
L97.6540 64.3499
" />
<path d="M97.6540 64.3499
L97.7750 64.2289
" />
<path d="M97.7750 64.2289
L97.8959 64.1684
" />
<path d="M98.9845 65.3175
L99.0450 65.3780
" />
<path d="M99.0450 65.3780
L98.9845 65.4384
" />
<path d="M98.9845 65.4384
L98.9241 65.3780
" />
<path d="M98.9241 65.3780
L98.9845 65.3175
" />
<path d="M98.9845 65.3175
L98.9845 65.4384
" />
<path d="M99.4684 64.1684
L100.2546 64.1684
" />
<path d="M100.2546 64.1684
L99.8312 64.6522
" />
<path d="M99.8312 64.6522
L100.0127 64.6522
" />
<path d="M100.0127 64.6522
L100.1336 64.7127
" />
<path d="M100.1336 64.7127
L100.1941 64.7732
" />
<path d="M100.1941 64.7732
L100.2546 64.8941
" />
<path d="M100.2546 64.8941
L100.2546 65.1965
" />
<path d="M100.2546 65.1965
L100.1941 65.3175
" />
<path d="M100.1941 65.3175
L100.1336 65.3780
" />
<path d="M100.1336 65.3780
L100.0127 65.4384
" />
<path d="M100.0127 65.4384
L99.6498 65.4384
" />
<path d="M99.6498 65.4384
L99.5289 65.3780
" />
<path d="M99.5289 65.3780
L99.4684 65.3175
" />
</g><text x="102.3747" y="64.6049"
textLength="2.6222" font-size="1.6933" lengthAdjust="spacingAndGlyphs"
text-anchor="middle" opacity="0">11</text>
<g class="stroked-text"><desc>11</desc>
<path d="M102.1328 64.4414
L101.4071 64.4414
" />
<path d="M101.7699 64.4414
L101.7699 63.1714
" />
<path d="M101.7699 63.1714
L101.6490 63.3529
" />
<path d="M101.6490 63.3529
L101.5280 63.4738
" />
<path d="M101.5280 63.4738
L101.4071 63.5343
" />
<path d="M103.3423 64.4414
L102.6166 64.4414
" />
<path d="M102.9794 64.4414
L102.9794 63.1714
" />
<path d="M102.9794 63.1714
L102.8585 63.3529
" />
<path d="M102.8585 63.3529
L102.7375 63.4738
" />
<path d="M102.7375 63.4738
L102.6166 63.5343
" />
</g><path d="M101.1047 62.3189
L103.6447 62.3189
" />
<text x="100.5967" y="62.9539"
textLength="13.9313" font-size="1.6933" lengthAdjust="spacingAndGlyphs"
text-anchor="end" opacity="0">RS485/GPIO.2</text>
<g class="stroked-text"><desc>RS485/GPIO.2</desc>
<path d="M87.7964 62.8984
L87.3731 62.2937
" />
<path d="M87.0707 62.8984
L87.0707 61.6284
" />
<path d="M87.0707 61.6284
L87.5545 61.6284
" />
<path d="M87.5545 61.6284
L87.6755 61.6889
" />
<path d="M87.6755 61.6889
L87.7360 61.7494
" />
<path d="M87.7360 61.7494
L87.7964 61.8703
" />
<path d="M87.7964 61.8703
L87.7964 62.0518
" />
<path d="M87.7964 62.0518
L87.7360 62.1727
" />
<path d="M87.7360 62.1727
L87.6755 62.2332
" />
<path d="M87.6755 62.2332
L87.5545 62.2937
" />
<path d="M87.5545 62.2937
L87.0707 62.2937
" />
<path d="M88.2803 62.8380
L88.4617 62.8984
" />
<path d="M88.4617 62.8984
L88.7641 62.8984
" />
<path d="M88.7641 62.8984
L88.8850 62.8380
" />
<path d="M88.8850 62.8380
L88.9455 62.7775
" />
<path d="M88.9455 62.7775
L89.0060 62.6565
" />
<path d="M89.0060 62.6565
L89.0060 62.5356
" />
<path d="M89.0060 62.5356
L88.9455 62.4146
" />
<path d="M88.9455 62.4146
L88.8850 62.3541
" />
<path d="M88.8850 62.3541
L88.7641 62.2937
" />
<path d="M88.7641 62.2937
L88.5222 62.2332
" />
<path d="M88.5222 62.2332
L88.4012 62.1727
" />
<path d="M88.4012 62.1727
L88.3407 62.1122
" />
<path d="M88.3407 62.1122
L88.2803 61.9913
" />
<path d="M88.2803 61.9913
L88.2803 61.8703
" />
<path d="M88.2803 61.8703
L88.3407 61.7494
" />
<path d="M88.3407 61.7494
L88.4012 61.6889
" />
<path d="M88.4012 61.6889
L88.5222 61.6284
" />
<path d="M88.5222 61.6284
L88.8245 61.6284
" />
<path d="M88.8245 61.6284
L89.0060 61.6889
" />
<path d="M90.0945 62.0518
L90.0945 62.8984
" />
<path d="M89.7921 61.5680
L89.4898 62.4751
" />
<path d="M89.4898 62.4751
L90.2759 62.4751
" />
<path d="M90.9412 62.1727
L90.8202 62.1122
" />
<path d="M90.8202 62.1122
L90.7597 62.0518
" />
<path d="M90.7597 62.0518
L90.6993 61.9308
" />
<path d="M90.6993 61.9308
L90.6993 61.8703
" />
<path d="M90.6993 61.8703
L90.7597 61.7494
" />
<path d="M90.7597 61.7494
L90.8202 61.6889
" />
<path d="M90.8202 61.6889
L90.9412 61.6284
" />
<path d="M90.9412 61.6284
L91.1831 61.6284
" />
<path d="M91.1831 61.6284
L91.3040 61.6889
" />
<path d="M91.3040 61.6889
L91.3645 61.7494
" />
<path d="M91.3645 61.7494
L91.4250 61.8703
" />
<path d="M91.4250 61.8703
L91.4250 61.9308
" />
<path d="M91.4250 61.9308
L91.3645 62.0518
" />
<path d="M91.3645 62.0518
L91.3040 62.1122
" />
<path d="M91.3040 62.1122
L91.1831 62.1727
" />
<path d="M91.1831 62.1727
L90.9412 62.1727
" />
<path d="M90.9412 62.1727
L90.8202 62.2332
" />
<path d="M90.8202 62.2332
L90.7597 62.2937
" />
<path d="M90.7597 62.2937
L90.6993 62.4146
" />
<path d="M90.6993 62.4146
L90.6993 62.6565
" />
<path d="M90.6993 62.6565
L90.7597 62.7775
" />
<path d="M90.7597 62.7775
L90.8202 62.8380
" />
<path d="M90.8202 62.8380
L90.9412 62.8984
" />
<path d="M90.9412 62.8984
L91.1831 62.8984
" />
<path d="M91.1831 62.8984
L91.3040 62.8380
" />
<path d="M91.3040 62.8380
L91.3645 62.7775
" />
<path d="M91.3645 62.7775
L91.4250 62.6565
" />
<path d="M91.4250 62.6565
L91.4250 62.4146
" />
<path d="M91.4250 62.4146
L91.3645 62.2937
" />
<path d="M91.3645 62.2937
L91.3040 62.2332
" />
<path d="M91.3040 62.2332
L91.1831 62.1727
" />
<path d="M92.5740 61.6284
L91.9692 61.6284
" />
<path d="M91.9692 61.6284
L91.9088 62.2332
" />
<path d="M91.9088 62.2332
L91.9692 62.1727
" />
<path d="M91.9692 62.1727
L92.0902 62.1122
" />
<path d="M92.0902 62.1122
L92.3926 62.1122
" />
<path d="M92.3926 62.1122
L92.5135 62.1727
" />
<path d="M92.5135 62.1727
L92.5740 62.2332
" />
<path d="M92.5740 62.2332
L92.6345 62.3541
" />
<path d="M92.6345 62.3541
L92.6345 62.6565
" />
<path d="M92.6345 62.6565
L92.5740 62.7775
" />
<path d="M92.5740 62.7775
L92.5135 62.8380
" />
<path d="M92.5135 62.8380
L92.3926 62.8984
" />
<path d="M92.3926 62.8984
L92.0902 62.8984
" />
<path d="M92.0902 62.8984
L91.9692 62.8380
" />
<path d="M91.9692 62.8380
L91.9088 62.7775
" />
<path d="M94.0859 61.5680
L92.9973 63.2008
" />
<path d="M95.1745 61.6889
L95.0535 61.6284
" />
<path d="M95.0535 61.6284
L94.8721 61.6284
" />
<path d="M94.8721 61.6284
L94.6907 61.6889
" />
<path d="M94.6907 61.6889
L94.5697 61.8099
" />
<path d="M94.5697 61.8099
L94.5092 61.9308
" />
<path d="M94.5092 61.9308
L94.4488 62.1727
" />
<path d="M94.4488 62.1727
L94.4488 62.3541
" />
<path d="M94.4488 62.3541
L94.5092 62.5960
" />
<path d="M94.5092 62.5960
L94.5697 62.7170
" />
<path d="M94.5697 62.7170
L94.6907 62.8380
" />
<path d="M94.6907 62.8380
L94.8721 62.8984
" />
<path d="M94.8721 62.8984
L94.9930 62.8984
" />
<path d="M94.9930 62.8984
L95.1745 62.8380
" />
<path d="M95.1745 62.8380
L95.2349 62.7775
" />
<path d="M95.2349 62.7775
L95.2349 62.3541
" />
<path d="M95.2349 62.3541
L94.9930 62.3541
" />
<path d="M95.7792 62.8984
L95.7792 61.6284
" />
<path d="M95.7792 61.6284
L96.2630 61.6284
" />
<path d="M96.2630 61.6284
L96.3840 61.6889
" />
<path d="M96.3840 61.6889
L96.4445 61.7494
" />
<path d="M96.4445 61.7494
L96.5049 61.8703
" />
<path d="M96.5049 61.8703
L96.5049 62.0518
" />
<path d="M96.5049 62.0518
L96.4445 62.1727
" />
<path d="M96.4445 62.1727
L96.3840 62.2332
" />
<path d="M96.3840 62.2332
L96.2630 62.2937
" />
<path d="M96.2630 62.2937
L95.7792 62.2937
" />
<path d="M97.0492 62.8984
L97.0492 61.6284
" />
<path d="M97.8959 61.6284
L98.1378 61.6284
" />
<path d="M98.1378 61.6284
L98.2588 61.6889
" />
<path d="M98.2588 61.6889
L98.3797 61.8099
" />
<path d="M98.3797 61.8099
L98.4402 62.0518
" />
<path d="M98.4402 62.0518
L98.4402 62.4751
" />
<path d="M98.4402 62.4751
L98.3797 62.7170
" />
<path d="M98.3797 62.7170
L98.2588 62.8380
" />
<path d="M98.2588 62.8380
L98.1378 62.8984
" />
<path d="M98.1378 62.8984
L97.8959 62.8984
" />
<path d="M97.8959 62.8984
L97.7750 62.8380
" />
<path d="M97.7750 62.8380
L97.6540 62.7170
" />
<path d="M97.6540 62.7170
L97.5936 62.4751
" />
<path d="M97.5936 62.4751
L97.5936 62.0518
" />
<path d="M97.5936 62.0518
L97.6540 61.8099
" />
<path d="M97.6540 61.8099
L97.7750 61.6889
" />
<path d="M97.7750 61.6889
L97.8959 61.6284
" />
<path d="M98.9845 62.7775
L99.0450 62.8380
" />
<path d="M99.0450 62.8380
L98.9845 62.8984
" />
<path d="M98.9845 62.8984
L98.9241 62.8380
" />
<path d="M98.9241 62.8380
L98.9845 62.7775
" />
<path d="M98.9845 62.7775
L98.9845 62.8984
" />
<path d="M99.5289 61.7494
L99.5893 61.6889
" />
<path d="M99.5893 61.6889
L99.7103 61.6284
" />
<path d="M99.7103 61.6284
L100.0127 61.6284
" />
<path d="M100.0127 61.6284
L100.1336 61.6889
" />
<path d="M100.1336 61.6889
L100.1941 61.7494
" />
<path d="M100.1941 61.7494
L100.2546 61.8703
" />
<path d="M100.2546 61.8703
L100.2546 61.9913
" />
<path d="M100.2546 61.9913
L100.1941 62.1727
" />
<path d="M100.1941 62.1727
L99.4684 62.8984
" />
<path d="M99.4684 62.8984
L100.2546 62.8984
" />
</g><text x="102.3747" y="62.0649"
textLength="2.6222" font-size="1.6933" lengthAdjust="spacingAndGlyphs"
text-anchor="middle" opacity="0">12</text>
<g class="stroked-text"><desc>12</desc>
<path d="M102.1328 61.9014
L101.4071 61.9014
" />
<path d="M101.7699 61.9014
L101.7699 60.6314
" />
<path d="M101.7699 60.6314
L101.6490 60.8129
" />
<path d="M101.6490 60.8129
L101.5280 60.9338
" />
<path d="M101.5280 60.9338
L101.4071 60.9943
" />
<path d="M102.6166 60.7524
L102.6770 60.6919
" />
<path d="M102.6770 60.6919
L102.7980 60.6314
" />
<path d="M102.7980 60.6314
L103.1004 60.6314
" />
<path d="M103.1004 60.6314
L103.2213 60.6919
" />
<path d="M103.2213 60.6919
L103.2818 60.7524
" />
<path d="M103.2818 60.7524
L103.3423 60.8733
" />
<path d="M103.3423 60.8733
L103.3423 60.9943
" />
<path d="M103.3423 60.9943
L103.2818 61.1757
" />
<path d="M103.2818 61.1757
L102.5561 61.9014
" />
<path d="M102.5561 61.9014
L103.3423 61.9014
" />
</g><path d="M101.1047 59.7789
L103.6447 59.7789
" />
<text x="100.5967" y="60.4139"
textLength="11.2704" font-size="1.6933" lengthAdjust="spacingAndGlyphs"
text-anchor="end" opacity="0">RXT/GPIO.1</text>
<g class="stroked-text"><desc>RXT/GPIO.1</desc>
<path d="M90.4573 60.3584
L90.0340 59.7537
" />
<path d="M89.7316 60.3584
L89.7316 59.0884
" />
<path d="M89.7316 59.0884
L90.2154 59.0884
" />
<path d="M90.2154 59.0884
L90.3364 59.1489
" />
<path d="M90.3364 59.1489
L90.3969 59.2094
" />
<path d="M90.3969 59.2094
L90.4573 59.3303
" />
<path d="M90.4573 59.3303
L90.4573 59.5118
" />
<path d="M90.4573 59.5118
L90.3969 59.6327
" />
<path d="M90.3969 59.6327
L90.3364 59.6932
" />
<path d="M90.3364 59.6932
L90.2154 59.7537
" />
<path d="M90.2154 59.7537
L89.7316 59.7537
" />
<path d="M90.8807 59.0884
L91.7273 60.3584
" />
<path d="M91.7273 59.0884
L90.8807 60.3584
" />
<path d="M92.0297 59.0884
L92.7554 59.0884
" />
<path d="M92.3926 60.3584
L92.3926 59.0884
" />
<path d="M94.0859 59.0280
L92.9973 60.6608
" />
<path d="M95.1745 59.1489
L95.0535 59.0884
" />
<path d="M95.0535 59.0884
L94.8721 59.0884
" />
<path d="M94.8721 59.0884
L94.6907 59.1489
" />
<path d="M94.6907 59.1489
L94.5697 59.2699
" />
<path d="M94.5697 59.2699
L94.5092 59.3908
" />
<path d="M94.5092 59.3908
L94.4488 59.6327
" />
<path d="M94.4488 59.6327
L94.4488 59.8141
" />
<path d="M94.4488 59.8141
L94.5092 60.0560
" />
<path d="M94.5092 60.0560
L94.5697 60.1770
" />
<path d="M94.5697 60.1770
L94.6907 60.2980
" />
<path d="M94.6907 60.2980
L94.8721 60.3584
" />
<path d="M94.8721 60.3584
L94.9930 60.3584
" />
<path d="M94.9930 60.3584
L95.1745 60.2980
" />
<path d="M95.1745 60.2980
L95.2349 60.2375
" />
<path d="M95.2349 60.2375
L95.2349 59.8141
" />
<path d="M95.2349 59.8141
L94.9930 59.8141
" />
<path d="M95.7792 60.3584
L95.7792 59.0884
" />
<path d="M95.7792 59.0884
L96.2630 59.0884
" />
<path d="M96.2630 59.0884
L96.3840 59.1489
" />
<path d="M96.3840 59.1489
L96.4445 59.2094
" />
<path d="M96.4445 59.2094
L96.5049 59.3303
" />
<path d="M96.5049 59.3303
L96.5049 59.5118
" />
<path d="M96.5049 59.5118
L96.4445 59.6327
" />
<path d="M96.4445 59.6327
L96.3840 59.6932
" />
<path d="M96.3840 59.6932
L96.2630 59.7537
" />
<path d="M96.2630 59.7537
L95.7792 59.7537
" />
<path d="M97.0492 60.3584
L97.0492 59.0884
" />
<path d="M97.8959 59.0884
L98.1378 59.0884
" />
<path d="M98.1378 59.0884
L98.2588 59.1489
" />
<path d="M98.2588 59.1489
L98.3797 59.2699
" />
<path d="M98.3797 59.2699
L98.4402 59.5118
" />
<path d="M98.4402 59.5118
L98.4402 59.9351
" />
<path d="M98.4402 59.9351
L98.3797 60.1770
" />
<path d="M98.3797 60.1770
L98.2588 60.2980
" />
<path d="M98.2588 60.2980
L98.1378 60.3584
" />
<path d="M98.1378 60.3584
L97.8959 60.3584
" />
<path d="M97.8959 60.3584
L97.7750 60.2980
" />
<path d="M97.7750 60.2980
L97.6540 60.1770
" />
<path d="M97.6540 60.1770
L97.5936 59.9351
" />
<path d="M97.5936 59.9351
L97.5936 59.5118
" />
<path d="M97.5936 59.5118
L97.6540 59.2699
" />
<path d="M97.6540 59.2699
L97.7750 59.1489
" />
<path d="M97.7750 59.1489
L97.8959 59.0884
" />
<path d="M98.9845 60.2375
L99.0450 60.2980
" />
<path d="M99.0450 60.2980
L98.9845 60.3584
" />
<path d="M98.9845 60.3584
L98.9241 60.2980
" />
<path d="M98.9241 60.2980
L98.9845 60.2375
" />
<path d="M98.9845 60.2375
L98.9845 60.3584
" />
<path d="M100.2546 60.3584
L99.5289 60.3584
" />
<path d="M99.8917 60.3584
L99.8917 59.0884
" />
<path d="M99.8917 59.0884
L99.7708 59.2699
" />
<path d="M99.7708 59.2699
L99.6498 59.3908
" />
<path d="M99.6498 59.3908
L99.5289 59.4513
" />
</g><text x="102.3747" y="59.5249"
textLength="2.6222" font-size="1.6933" lengthAdjust="spacingAndGlyphs"
text-anchor="middle" opacity="0">13</text>
<g class="stroked-text"><desc>13</desc>
<path d="M102.1328 59.3614
L101.4071 59.3614
" />
<path d="M101.7699 59.3614
L101.7699 58.0914
" />
<path d="M101.7699 58.0914
L101.6490 58.2729
" />
<path d="M101.6490 58.2729
L101.5280 58.3938
" />
<path d="M101.5280 58.3938
L101.4071 58.4543
" />
<path d="M102.5561 58.0914
L103.3423 58.0914
" />
<path d="M103.3423 58.0914
L102.9189 58.5752
" />
<path d="M102.9189 58.5752
L103.1004 58.5752
" />
<path d="M103.1004 58.5752
L103.2213 58.6357
" />
<path d="M103.2213 58.6357
L103.2818 58.6962
" />
<path d="M103.2818 58.6962
L103.3423 58.8171
" />
<path d="M103.3423 58.8171
L103.3423 59.1195
" />
<path d="M103.3423 59.1195
L103.2818 59.2405
" />
<path d="M103.2818 59.2405
L103.2213 59.3010
" />
<path d="M103.2213 59.3010
L103.1004 59.3614
" />
<path d="M103.1004 59.3614
L102.7375 59.3614
" />
<path d="M102.7375 59.3614
L102.6166 59.3010
" />
<path d="M102.6166 59.3010
L102.5561 59.2405
" />
</g><path d="M101.1047 57.2389
L103.6447 57.2389
" />
<text x="100.5967" y="57.8739"
textLength="10.9680" font-size="1.6933" lengthAdjust="spacingAndGlyphs"
text-anchor="end" opacity="0">TXT/GPIO.0</text>
<g class="stroked-text"><desc>TXT/GPIO.0</desc>
<path d="M89.8526 56.5484
L90.5783 56.5484
" />
<path d="M90.2155 57.8184
L90.2155 56.5484
" />
<path d="M90.8807 56.5484
L91.7273 57.8184
" />
<path d="M91.7273 56.5484
L90.8807 57.8184
" />
<path d="M92.0297 56.5484
L92.7554 56.5484
" />
<path d="M92.3926 57.8184
L92.3926 56.5484
" />
<path d="M94.0859 56.4880
L92.9973 58.1208
" />
<path d="M95.1745 56.6089
L95.0535 56.5484
" />
<path d="M95.0535 56.5484
L94.8721 56.5484
" />
<path d="M94.8721 56.5484
L94.6907 56.6089
" />
<path d="M94.6907 56.6089
L94.5697 56.7299
" />
<path d="M94.5697 56.7299
L94.5092 56.8508
" />
<path d="M94.5092 56.8508
L94.4488 57.0927
" />
<path d="M94.4488 57.0927
L94.4488 57.2741
" />
<path d="M94.4488 57.2741
L94.5092 57.5160
" />
<path d="M94.5092 57.5160
L94.5697 57.6370
" />
<path d="M94.5697 57.6370
L94.6907 57.7580
" />
<path d="M94.6907 57.7580
L94.8721 57.8184
" />
<path d="M94.8721 57.8184
L94.9930 57.8184
" />
<path d="M94.9930 57.8184
L95.1745 57.7580
" />
<path d="M95.1745 57.7580
L95.2349 57.6975
" />
<path d="M95.2349 57.6975
L95.2349 57.2741
" />
<path d="M95.2349 57.2741
L94.9930 57.2741
" />
<path d="M95.7792 57.8184
L95.7792 56.5484
" />
<path d="M95.7792 56.5484
L96.2630 56.5484
" />
<path d="M96.2630 56.5484
L96.3840 56.6089
" />
<path d="M96.3840 56.6089
L96.4445 56.6694
" />
<path d="M96.4445 56.6694
L96.5049 56.7903
" />
<path d="M96.5049 56.7903
L96.5049 56.9718
" />
<path d="M96.5049 56.9718
L96.4445 57.0927
" />
<path d="M96.4445 57.0927
L96.3840 57.1532
" />
<path d="M96.3840 57.1532
L96.2630 57.2137
" />
<path d="M96.2630 57.2137
L95.7792 57.2137
" />
<path d="M97.0492 57.8184
L97.0492 56.5484
" />
<path d="M97.8959 56.5484
L98.1378 56.5484
" />
<path d="M98.1378 56.5484
L98.2588 56.6089
" />
<path d="M98.2588 56.6089
L98.3797 56.7299
" />
<path d="M98.3797 56.7299
L98.4402 56.9718
" />
<path d="M98.4402 56.9718
L98.4402 57.3951
" />
<path d="M98.4402 57.3951
L98.3797 57.6370
" />
<path d="M98.3797 57.6370
L98.2588 57.7580
" />
<path d="M98.2588 57.7580
L98.1378 57.8184
" />
<path d="M98.1378 57.8184
L97.8959 57.8184
" />
<path d="M97.8959 57.8184
L97.7750 57.7580
" />
<path d="M97.7750 57.7580
L97.6540 57.6370
" />
<path d="M97.6540 57.6370
L97.5936 57.3951
" />
<path d="M97.5936 57.3951
L97.5936 56.9718
" />
<path d="M97.5936 56.9718
L97.6540 56.7299
" />
<path d="M97.6540 56.7299
L97.7750 56.6089
" />
<path d="M97.7750 56.6089
L97.8959 56.5484
" />
<path d="M98.9845 57.6975
L99.0450 57.7580
" />
<path d="M99.0450 57.7580
L98.9845 57.8184
" />
<path d="M98.9845 57.8184
L98.9241 57.7580
" />
<path d="M98.9241 57.7580
L98.9845 57.6975
" />
<path d="M98.9845 57.6975
L98.9845 57.8184
" />
<path d="M99.8312 56.5484
L99.9522 56.5484
" />
<path d="M99.9522 56.5484
L100.0731 56.6089
" />
<path d="M100.0731 56.6089
L100.1336 56.6694
" />
<path d="M100.1336 56.6694
L100.1941 56.7903
" />
<path d="M100.1941 56.7903
L100.2546 57.0322
" />
<path d="M100.2546 57.0322
L100.2546 57.3346
" />
<path d="M100.2546 57.3346
L100.1941 57.5765
" />
<path d="M100.1941 57.5765
L100.1336 57.6975
" />
<path d="M100.1336 57.6975
L100.0731 57.7580
" />
<path d="M100.0731 57.7580
L99.9522 57.8184
" />
<path d="M99.9522 57.8184
L99.8312 57.8184
" />
<path d="M99.8312 57.8184
L99.7103 57.7580
" />
<path d="M99.7103 57.7580
L99.6498 57.6975
" />
<path d="M99.6498 57.6975
L99.5893 57.5765
" />
<path d="M99.5893 57.5765
L99.5289 57.3346
" />
<path d="M99.5289 57.3346
L99.5289 57.0322
" />
<path d="M99.5289 57.0322
L99.5893 56.7903
" />
<path d="M99.5893 56.7903
L99.6498 56.6694
" />
<path d="M99.6498 56.6694
L99.7103 56.6089
" />
<path d="M99.7103 56.6089
L99.8312 56.5484
" />
</g><text x="102.3747" y="56.9849"
textLength="2.6222" font-size="1.6933" lengthAdjust="spacingAndGlyphs"
text-anchor="middle" opacity="0">14</text>
<g class="stroked-text"><desc>14</desc>
<path d="M102.1328 56.8214
L101.4071 56.8214
" />
<path d="M101.7699 56.8214
L101.7699 55.5514
" />
<path d="M101.7699 55.5514
L101.6490 55.7329
" />
<path d="M101.6490 55.7329
L101.5280 55.8538
" />
<path d="M101.5280 55.8538
L101.4071 55.9143
" />
<path d="M103.2213 55.9748
L103.2213 56.8214
" />
<path d="M102.9189 55.4910
L102.6166 56.3981
" />
<path d="M102.6166 56.3981
L103.4027 56.3981
" />
</g><path d="M101.1047 52.1589
L103.6447 52.1589
" />
<text x="100.5967" y="52.7939"
textLength="8.9722" font-size="1.6933" lengthAdjust="spacingAndGlyphs"
text-anchor="end" opacity="0">~{SUSPEND}</text>
<g class="stroked-text"><desc>~{SUSPEND}</desc>
<path d="M91.9694 52.6780
L92.1508 52.7384
" />
<path d="M92.1508 52.7384
L92.4532 52.7384
" />
<path d="M92.4532 52.7384
L92.5741 52.6780
" />
<path d="M92.5741 52.6780
L92.6346 52.6175
" />
<path d="M92.6346 52.6175
L92.6951 52.4965
" />
<path d="M92.6951 52.4965
L92.6951 52.3756
" />
<path d="M92.6951 52.3756
L92.6346 52.2546
" />
<path d="M92.6346 52.2546
L92.5741 52.1941
" />
<path d="M92.5741 52.1941
L92.4532 52.1337
" />
<path d="M92.4532 52.1337
L92.2113 52.0732
" />
<path d="M92.2113 52.0732
L92.0903 52.0127
" />
<path d="M92.0903 52.0127
L92.0298 51.9522
" />
<path d="M92.0298 51.9522
L91.9694 51.8313
" />
<path d="M91.9694 51.8313
L91.9694 51.7103
" />
<path d="M91.9694 51.7103
L92.0298 51.5894
" />
<path d="M92.0298 51.5894
L92.0903 51.5289
" />
<path d="M92.0903 51.5289
L92.2113 51.4684
" />
<path d="M92.2113 51.4684
L92.5136 51.4684
" />
<path d="M92.5136 51.4684
L92.6951 51.5289
" />
<path d="M93.2393 51.4684
L93.2393 52.4965
" />
<path d="M93.2393 52.4965
L93.2998 52.6175
" />
<path d="M93.2998 52.6175
L93.3603 52.6780
" />
<path d="M93.3603 52.6780
L93.4812 52.7384
" />
<path d="M93.4812 52.7384
L93.7231 52.7384
" />
<path d="M93.7231 52.7384
L93.8441 52.6780
" />
<path d="M93.8441 52.6780
L93.9046 52.6175
" />
<path d="M93.9046 52.6175
L93.9650 52.4965
" />
<path d="M93.9650 52.4965
L93.9650 51.4684
" />
<path d="M94.5094 52.6780
L94.6908 52.7384
" />
<path d="M94.6908 52.7384
L94.9932 52.7384
" />
<path d="M94.9932 52.7384
L95.1141 52.6780
" />
<path d="M95.1141 52.6780
L95.1746 52.6175
" />
<path d="M95.1746 52.6175
L95.2351 52.4965
" />
<path d="M95.2351 52.4965
L95.2351 52.3756
" />
<path d="M95.2351 52.3756
L95.1746 52.2546
" />
<path d="M95.1746 52.2546
L95.1141 52.1941
" />
<path d="M95.1141 52.1941
L94.9932 52.1337
" />
<path d="M94.9932 52.1337
L94.7513 52.0732
" />
<path d="M94.7513 52.0732
L94.6303 52.0127
" />
<path d="M94.6303 52.0127
L94.5698 51.9522
" />
<path d="M94.5698 51.9522
L94.5094 51.8313
" />
<path d="M94.5094 51.8313
L94.5094 51.7103
" />
<path d="M94.5094 51.7103
L94.5698 51.5894
" />
<path d="M94.5698 51.5894
L94.6303 51.5289
" />
<path d="M94.6303 51.5289
L94.7513 51.4684
" />
<path d="M94.7513 51.4684
L95.0536 51.4684
" />
<path d="M95.0536 51.4684
L95.2351 51.5289
" />
<path d="M95.7793 52.7384
L95.7793 51.4684
" />
<path d="M95.7793 51.4684
L96.2631 51.4684
" />
<path d="M96.2631 51.4684
L96.3841 51.5289
" />
<path d="M96.3841 51.5289
L96.4446 51.5894
" />
<path d="M96.4446 51.5894
L96.5050 51.7103
" />
<path d="M96.5050 51.7103
L96.5050 51.8918
" />
<path d="M96.5050 51.8918
L96.4446 52.0127
" />
<path d="M96.4446 52.0127
L96.3841 52.0732
" />
<path d="M96.3841 52.0732
L96.2631 52.1337
" />
<path d="M96.2631 52.1337
L95.7793 52.1337
" />
<path d="M97.0493 52.0732
L97.4727 52.0732
" />
<path d="M97.6541 52.7384
L97.0493 52.7384
" />
<path d="M97.0493 52.7384
L97.0493 51.4684
" />
<path d="M97.0493 51.4684
L97.6541 51.4684
" />
<path d="M98.1983 52.7384
L98.1983 51.4684
" />
<path d="M98.1983 51.4684
L98.9240 52.7384
" />
<path d="M98.9240 52.7384
L98.9240 51.4684
" />
<path d="M99.5288 52.7384
L99.5288 51.4684
" />
<path d="M99.5288 51.4684
L99.8312 51.4684
" />
<path d="M99.8312 51.4684
L100.0126 51.5289
" />
<path d="M100.0126 51.5289
L100.1336 51.6499
" />
<path d="M100.1336 51.6499
L100.1941 51.7708
" />
<path d="M100.1941 51.7708
L100.2545 52.0127
" />
<path d="M100.2545 52.0127
L100.2545 52.1941
" />
<path d="M100.2545 52.1941
L100.1941 52.4360
" />
<path d="M100.1941 52.4360
L100.1336 52.5570
" />
<path d="M100.1336 52.5570
L100.0126 52.6780
" />
<path d="M100.0126 52.6780
L99.8312 52.7384
" />
<path d="M99.8312 52.7384
L99.5288 52.7384
" />
<path d="M91.8545 51.1159
L100.3695 51.1159
" />
</g><text x="102.3747" y="51.9049"
textLength="2.6222" font-size="1.6933" lengthAdjust="spacingAndGlyphs"
text-anchor="middle" opacity="0">15</text>
<g class="stroked-text"><desc>15</desc>
<path d="M102.1328 51.7414
L101.4071 51.7414
" />
<path d="M101.7699 51.7414
L101.7699 50.4714
" />
<path d="M101.7699 50.4714
L101.6490 50.6529
" />
<path d="M101.6490 50.6529
L101.5280 50.7738
" />
<path d="M101.5280 50.7738
L101.4071 50.8343
" />
<path d="M103.2818 50.4714
L102.6770 50.4714
" />
<path d="M102.6770 50.4714
L102.6166 51.0762
" />
<path d="M102.6166 51.0762
L102.6770 51.0157
" />
<path d="M102.6770 51.0157
L102.7980 50.9552
" />
<path d="M102.7980 50.9552
L103.1004 50.9552
" />
<path d="M103.1004 50.9552
L103.2213 51.0157
" />
<path d="M103.2213 51.0157
L103.2818 51.0762
" />
<path d="M103.2818 51.0762
L103.3423 51.1971
" />
<path d="M103.3423 51.1971
L103.3423 51.4995
" />
<path d="M103.3423 51.4995
L103.2818 51.6205
" />
<path d="M103.2818 51.6205
L103.2213 51.6810
" />
<path d="M103.2213 51.6810
L103.1004 51.7414
" />
<path d="M103.1004 51.7414
L102.7980 51.7414
" />
<path d="M102.7980 51.7414
L102.6770 51.6810
" />
<path d="M102.6770 51.6810
L102.6166 51.6205
" />
</g><path d="M80.7847 69.9389
L78.2447 69.9389
" />
<text x="81.2927" y="70.5739"
textLength="3.8318" font-size="1.6933" lengthAdjust="spacingAndGlyphs"
text-anchor="start" opacity="0">VPP</text>
<g class="stroked-text"><desc>VPP</desc>
<path d="M81.5138 69.2484
L81.9371 70.5184
" />
<path d="M81.9371 70.5184
L82.3605 69.2484
" />
<path d="M82.7838 70.5184
L82.7838 69.2484
" />
<path d="M82.7838 69.2484
L83.2676 69.2484
" />
<path d="M83.2676 69.2484
L83.3886 69.3089
" />
<path d="M83.3886 69.3089
L83.4491 69.3694
" />
<path d="M83.4491 69.3694
L83.5095 69.4903
" />
<path d="M83.5095 69.4903
L83.5095 69.6718
" />
<path d="M83.5095 69.6718
L83.4491 69.7927
" />
<path d="M83.4491 69.7927
L83.3886 69.8532
" />
<path d="M83.3886 69.8532
L83.2676 69.9137
" />
<path d="M83.2676 69.9137
L82.7838 69.9137
" />
<path d="M84.0538 70.5184
L84.0538 69.2484
" />
<path d="M84.0538 69.2484
L84.5376 69.2484
" />
<path d="M84.5376 69.2484
L84.6586 69.3089
" />
<path d="M84.6586 69.3089
L84.7191 69.3694
" />
<path d="M84.7191 69.3694
L84.7795 69.4903
" />
<path d="M84.7795 69.4903
L84.7795 69.6718
" />
<path d="M84.7795 69.6718
L84.7191 69.7927
" />
<path d="M84.7191 69.7927
L84.6586 69.8532
" />
<path d="M84.6586 69.8532
L84.5376 69.9137
" />
<path d="M84.5376 69.9137
L84.0538 69.9137
" />
</g><text x="79.5147" y="69.6849"
textLength="2.6222" font-size="1.6933" lengthAdjust="spacingAndGlyphs"
text-anchor="middle" opacity="0">16</text>
<g class="stroked-text"><desc>16</desc>
<path d="M79.2728 69.5214
L78.5471 69.5214
" />
<path d="M78.9099 69.5214
L78.9099 68.2514
" />
<path d="M78.9099 68.2514
L78.7890 68.4329
" />
<path d="M78.7890 68.4329
L78.6680 68.5538
" />
<path d="M78.6680 68.5538
L78.5471 68.6143
" />
<path d="M80.3613 68.2514
L80.1194 68.2514
" />
<path d="M80.1194 68.2514
L79.9985 68.3119
" />
<path d="M79.9985 68.3119
L79.9380 68.3724
" />
<path d="M79.9380 68.3724
L79.8170 68.5538
" />
<path d="M79.8170 68.5538
L79.7566 68.7957
" />
<path d="M79.7566 68.7957
L79.7566 69.2795
" />
<path d="M79.7566 69.2795
L79.8170 69.4005
" />
<path d="M79.8170 69.4005
L79.8775 69.4610
" />
<path d="M79.8775 69.4610
L79.9985 69.5214
" />
<path d="M79.9985 69.5214
L80.2404 69.5214
" />
<path d="M80.2404 69.5214
L80.3613 69.4610
" />
<path d="M80.3613 69.4610
L80.4218 69.4005
" />
<path d="M80.4218 69.4005
L80.4823 69.2795
" />
<path d="M80.4823 69.2795
L80.4823 68.9771
" />
<path d="M80.4823 68.9771
L80.4218 68.8562
" />
<path d="M80.4218 68.8562
L80.3613 68.7957
" />
<path d="M80.3613 68.7957
L80.2404 68.7352
" />
<path d="M80.2404 68.7352
L79.9985 68.7352
" />
<path d="M79.9985 68.7352
L79.8775 68.7957
" />
<path d="M79.8775 68.7957
L79.8170 68.8562
" />
<path d="M79.8170 68.8562
L79.7566 68.9771
" />
</g><path d="M101.1047 49.6189
L103.6447 49.6189
" />
<text x="100.5967" y="50.2539"
textLength="8.9722" font-size="1.6933" lengthAdjust="spacingAndGlyphs"
text-anchor="end" opacity="0">SUSPEND</text>
<g class="stroked-text"><desc>SUSPEND</desc>
<path d="M91.9694 50.1380
L92.1508 50.1984
" />
<path d="M92.1508 50.1984
L92.4532 50.1984
" />
<path d="M92.4532 50.1984
L92.5741 50.1380
" />
<path d="M92.5741 50.1380
L92.6346 50.0775
" />
<path d="M92.6346 50.0775
L92.6951 49.9565
" />
<path d="M92.6951 49.9565
L92.6951 49.8356
" />
<path d="M92.6951 49.8356
L92.6346 49.7146
" />
<path d="M92.6346 49.7146
L92.5741 49.6541
" />
<path d="M92.5741 49.6541
L92.4532 49.5937
" />
<path d="M92.4532 49.5937
L92.2113 49.5332
" />
<path d="M92.2113 49.5332
L92.0903 49.4727
" />
<path d="M92.0903 49.4727
L92.0298 49.4122
" />
<path d="M92.0298 49.4122
L91.9694 49.2913
" />
<path d="M91.9694 49.2913
L91.9694 49.1703
" />
<path d="M91.9694 49.1703
L92.0298 49.0494
" />
<path d="M92.0298 49.0494
L92.0903 48.9889
" />
<path d="M92.0903 48.9889
L92.2113 48.9284
" />
<path d="M92.2113 48.9284
L92.5136 48.9284
" />
<path d="M92.5136 48.9284
L92.6951 48.9889
" />
<path d="M93.2393 48.9284
L93.2393 49.9565
" />
<path d="M93.2393 49.9565
L93.2998 50.0775
" />
<path d="M93.2998 50.0775
L93.3603 50.1380
" />
<path d="M93.3603 50.1380
L93.4812 50.1984
" />
<path d="M93.4812 50.1984
L93.7231 50.1984
" />
<path d="M93.7231 50.1984
L93.8441 50.1380
" />
<path d="M93.8441 50.1380
L93.9046 50.0775
" />
<path d="M93.9046 50.0775
L93.9650 49.9565
" />
<path d="M93.9650 49.9565
L93.9650 48.9284
" />
<path d="M94.5094 50.1380
L94.6908 50.1984
" />
<path d="M94.6908 50.1984
L94.9932 50.1984
" />
<path d="M94.9932 50.1984
L95.1141 50.1380
" />
<path d="M95.1141 50.1380
L95.1746 50.0775
" />
<path d="M95.1746 50.0775
L95.2351 49.9565
" />
<path d="M95.2351 49.9565
L95.2351 49.8356
" />
<path d="M95.2351 49.8356
L95.1746 49.7146
" />
<path d="M95.1746 49.7146
L95.1141 49.6541
" />
<path d="M95.1141 49.6541
L94.9932 49.5937
" />
<path d="M94.9932 49.5937
L94.7513 49.5332
" />
<path d="M94.7513 49.5332
L94.6303 49.4727
" />
<path d="M94.6303 49.4727
L94.5698 49.4122
" />
<path d="M94.5698 49.4122
L94.5094 49.2913
" />
<path d="M94.5094 49.2913
L94.5094 49.1703
" />
<path d="M94.5094 49.1703
L94.5698 49.0494
" />
<path d="M94.5698 49.0494
L94.6303 48.9889
" />
<path d="M94.6303 48.9889
L94.7513 48.9284
" />
<path d="M94.7513 48.9284
L95.0536 48.9284
" />
<path d="M95.0536 48.9284
L95.2351 48.9889
" />
<path d="M95.7793 50.1984
L95.7793 48.9284
" />
<path d="M95.7793 48.9284
L96.2631 48.9284
" />
<path d="M96.2631 48.9284
L96.3841 48.9889
" />
<path d="M96.3841 48.9889
L96.4446 49.0494
" />
<path d="M96.4446 49.0494
L96.5050 49.1703
" />
<path d="M96.5050 49.1703
L96.5050 49.3518
" />
<path d="M96.5050 49.3518
L96.4446 49.4727
" />
<path d="M96.4446 49.4727
L96.3841 49.5332
" />
<path d="M96.3841 49.5332
L96.2631 49.5937
" />
<path d="M96.2631 49.5937
L95.7793 49.5937
" />
<path d="M97.0493 49.5332
L97.4727 49.5332
" />
<path d="M97.6541 50.1984
L97.0493 50.1984
" />
<path d="M97.0493 50.1984
L97.0493 48.9284
" />
<path d="M97.0493 48.9284
L97.6541 48.9284
" />
<path d="M98.1983 50.1984
L98.1983 48.9284
" />
<path d="M98.1983 48.9284
L98.9240 50.1984
" />
<path d="M98.9240 50.1984
L98.9240 48.9284
" />
<path d="M99.5288 50.1984
L99.5288 48.9284
" />
<path d="M99.5288 48.9284
L99.8312 48.9284
" />
<path d="M99.8312 48.9284
L100.0126 48.9889
" />
<path d="M100.0126 48.9889
L100.1336 49.1099
" />
<path d="M100.1336 49.1099
L100.1941 49.2308
" />
<path d="M100.1941 49.2308
L100.2545 49.4727
" />
<path d="M100.2545 49.4727
L100.2545 49.6541
" />
<path d="M100.2545 49.6541
L100.1941 49.8960
" />
<path d="M100.1941 49.8960
L100.1336 50.0170
" />
<path d="M100.1336 50.0170
L100.0126 50.1380
" />
<path d="M100.0126 50.1380
L99.8312 50.1984
" />
<path d="M99.8312 50.1984
L99.5288 50.1984
" />
</g><text x="102.3747" y="49.3649"
textLength="2.6222" font-size="1.6933" lengthAdjust="spacingAndGlyphs"
text-anchor="middle" opacity="0">17</text>
<g class="stroked-text"><desc>17</desc>
<path d="M102.1328 49.2014
L101.4071 49.2014
" />
<path d="M101.7699 49.2014
L101.7699 47.9314
" />
<path d="M101.7699 47.9314
L101.6490 48.1129
" />
<path d="M101.6490 48.1129
L101.5280 48.2338
" />
<path d="M101.5280 48.2338
L101.4071 48.2943
" />
<path d="M102.5561 47.9314
L103.4027 47.9314
" />
<path d="M103.4027 47.9314
L102.8585 49.2014
" />
</g><path d="M101.1047 34.3789
L103.6447 34.3789
" />
<text x="100.5967" y="35.0139"
textLength="3.6503" font-size="1.6933" lengthAdjust="spacingAndGlyphs"
text-anchor="end" opacity="0">~{CTS}</text>
<g class="stroked-text"><desc>~{CTS}</desc>
<path d="M98.0774 34.8375
L98.0170 34.8980
" />
<path d="M98.0170 34.8980
L97.8355 34.9584
" />
<path d="M97.8355 34.9584
L97.7146 34.9584
" />
<path d="M97.7146 34.9584
L97.5332 34.8980
" />
<path d="M97.5332 34.8980
L97.4122 34.7770
" />
<path d="M97.4122 34.7770
L97.3517 34.6560
" />
<path d="M97.3517 34.6560
L97.2913 34.4141
" />
<path d="M97.2913 34.4141
L97.2913 34.2327
" />
<path d="M97.2913 34.2327
L97.3517 33.9908
" />
<path d="M97.3517 33.9908
L97.4122 33.8699
" />
<path d="M97.4122 33.8699
L97.5332 33.7489
" />
<path d="M97.5332 33.7489
L97.7146 33.6884
" />
<path d="M97.7146 33.6884
L97.8355 33.6884
" />
<path d="M97.8355 33.6884
L98.0170 33.7489
" />
<path d="M98.0170 33.7489
L98.0774 33.8094
" />
<path d="M98.4403 33.6884
L99.1660 33.6884
" />
<path d="M98.8032 34.9584
L98.8032 33.6884
" />
<path d="M99.5289 34.8980
L99.7103 34.9584
" />
<path d="M99.7103 34.9584
L100.0127 34.9584
" />
<path d="M100.0127 34.9584
L100.1336 34.8980
" />
<path d="M100.1336 34.8980
L100.1941 34.8375
" />
<path d="M100.1941 34.8375
L100.2546 34.7165
" />
<path d="M100.2546 34.7165
L100.2546 34.5956
" />
<path d="M100.2546 34.5956
L100.1941 34.4746
" />
<path d="M100.1941 34.4746
L100.1336 34.4141
" />
<path d="M100.1336 34.4141
L100.0127 34.3537
" />
<path d="M100.0127 34.3537
L99.7708 34.2932
" />
<path d="M99.7708 34.2932
L99.6498 34.2327
" />
<path d="M99.6498 34.2327
L99.5893 34.1722
" />
<path d="M99.5893 34.1722
L99.5289 34.0513
" />
<path d="M99.5289 34.0513
L99.5289 33.9303
" />
<path d="M99.5289 33.9303
L99.5893 33.8094
" />
<path d="M99.5893 33.8094
L99.6498 33.7489
" />
<path d="M99.6498 33.7489
L99.7708 33.6884
" />
<path d="M99.7708 33.6884
L100.0731 33.6884
" />
<path d="M100.0731 33.6884
L100.2546 33.7489
" />
<path d="M97.1764 33.3359
L100.3695 33.3359
" />
</g><text x="102.3747" y="34.1249"
textLength="2.6222" font-size="1.6933" lengthAdjust="spacingAndGlyphs"
text-anchor="middle" opacity="0">18</text>
<g class="stroked-text"><desc>18</desc>
<path d="M102.1328 33.9614
L101.4071 33.9614
" />
<path d="M101.7699 33.9614
L101.7699 32.6914
" />
<path d="M101.7699 32.6914
L101.6490 32.8729
" />
<path d="M101.6490 32.8729
L101.5280 32.9938
" />
<path d="M101.5280 32.9938
L101.4071 33.0543
" />
<path d="M102.8585 33.2357
L102.7375 33.1752
" />
<path d="M102.7375 33.1752
L102.6770 33.1148
" />
<path d="M102.6770 33.1148
L102.6166 32.9938
" />
<path d="M102.6166 32.9938
L102.6166 32.9333
" />
<path d="M102.6166 32.9333
L102.6770 32.8124
" />
<path d="M102.6770 32.8124
L102.7375 32.7519
" />
<path d="M102.7375 32.7519
L102.8585 32.6914
" />
<path d="M102.8585 32.6914
L103.1004 32.6914
" />
<path d="M103.1004 32.6914
L103.2213 32.7519
" />
<path d="M103.2213 32.7519
L103.2818 32.8124
" />
<path d="M103.2818 32.8124
L103.3423 32.9333
" />
<path d="M103.3423 32.9333
L103.3423 32.9938
" />
<path d="M103.3423 32.9938
L103.2818 33.1148
" />
<path d="M103.2818 33.1148
L103.2213 33.1752
" />
<path d="M103.2213 33.1752
L103.1004 33.2357
" />
<path d="M103.1004 33.2357
L102.8585 33.2357
" />
<path d="M102.8585 33.2357
L102.7375 33.2962
" />
<path d="M102.7375 33.2962
L102.6770 33.3567
" />
<path d="M102.6770 33.3567
L102.6166 33.4776
" />
<path d="M102.6166 33.4776
L102.6166 33.7195
" />
<path d="M102.6166 33.7195
L102.6770 33.8405
" />
<path d="M102.6770 33.8405
L102.7375 33.9010
" />
<path d="M102.7375 33.9010
L102.8585 33.9614
" />
<path d="M102.8585 33.9614
L103.1004 33.9614
" />
<path d="M103.1004 33.9614
L103.2213 33.9010
" />
<path d="M103.2213 33.9010
L103.2818 33.8405
" />
<path d="M103.2818 33.8405
L103.3423 33.7195
" />
<path d="M103.3423 33.7195
L103.3423 33.4776
" />
<path d="M103.3423 33.4776
L103.2818 33.3567
" />
<path d="M103.2818 33.3567
L103.2213 33.2962
" />
<path d="M103.2213 33.2962
L103.1004 33.2357
" />
</g><path d="M101.1047 31.8389
L103.6447 31.8389
" />
<text x="100.5967" y="32.4739"
textLength="3.6503" font-size="1.6933" lengthAdjust="spacingAndGlyphs"
text-anchor="end" opacity="0">~{RTS}</text>
<g class="stroked-text"><desc>~{RTS}</desc>
<path d="M98.0774 32.4184
L97.6541 31.8137
" />
<path d="M97.3517 32.4184
L97.3517 31.1484
" />
<path d="M97.3517 31.1484
L97.8355 31.1484
" />
<path d="M97.8355 31.1484
L97.9565 31.2089
" />
<path d="M97.9565 31.2089
L98.0170 31.2694
" />
<path d="M98.0170 31.2694
L98.0774 31.3903
" />
<path d="M98.0774 31.3903
L98.0774 31.5718
" />
<path d="M98.0774 31.5718
L98.0170 31.6927
" />
<path d="M98.0170 31.6927
L97.9565 31.7532
" />
<path d="M97.9565 31.7532
L97.8355 31.8137
" />
<path d="M97.8355 31.8137
L97.3517 31.8137
" />
<path d="M98.4403 31.1484
L99.1660 31.1484
" />
<path d="M98.8032 32.4184
L98.8032 31.1484
" />
<path d="M99.5289 32.3580
L99.7103 32.4184
" />
<path d="M99.7103 32.4184
L100.0127 32.4184
" />
<path d="M100.0127 32.4184
L100.1336 32.3580
" />
<path d="M100.1336 32.3580
L100.1941 32.2975
" />
<path d="M100.1941 32.2975
L100.2546 32.1765
" />
<path d="M100.2546 32.1765
L100.2546 32.0556
" />
<path d="M100.2546 32.0556
L100.1941 31.9346
" />
<path d="M100.1941 31.9346
L100.1336 31.8741
" />
<path d="M100.1336 31.8741
L100.0127 31.8137
" />
<path d="M100.0127 31.8137
L99.7708 31.7532
" />
<path d="M99.7708 31.7532
L99.6498 31.6927
" />
<path d="M99.6498 31.6927
L99.5893 31.6322
" />
<path d="M99.5893 31.6322
L99.5289 31.5113
" />
<path d="M99.5289 31.5113
L99.5289 31.3903
" />
<path d="M99.5289 31.3903
L99.5893 31.2694
" />
<path d="M99.5893 31.2694
L99.6498 31.2089
" />
<path d="M99.6498 31.2089
L99.7708 31.1484
" />
<path d="M99.7708 31.1484
L100.0731 31.1484
" />
<path d="M100.0731 31.1484
L100.2546 31.2089
" />
<path d="M97.1764 30.7959
L100.3695 30.7959
" />
</g><text x="102.3747" y="31.5849"
textLength="2.6222" font-size="1.6933" lengthAdjust="spacingAndGlyphs"
text-anchor="middle" opacity="0">19</text>
<g class="stroked-text"><desc>19</desc>
<path d="M102.1328 31.4214
L101.4071 31.4214
" />
<path d="M101.7699 31.4214
L101.7699 30.1514
" />
<path d="M101.7699 30.1514
L101.6490 30.3329
" />
<path d="M101.6490 30.3329
L101.5280 30.4538
" />
<path d="M101.5280 30.4538
L101.4071 30.5143
" />
<path d="M102.7375 31.4214
L102.9794 31.4214
" />
<path d="M102.9794 31.4214
L103.1004 31.3610
" />
<path d="M103.1004 31.3610
L103.1608 31.3005
" />
<path d="M103.1608 31.3005
L103.2818 31.1190
" />
<path d="M103.2818 31.1190
L103.3423 30.8771
" />
<path d="M103.3423 30.8771
L103.3423 30.3933
" />
<path d="M103.3423 30.3933
L103.2818 30.2724
" />
<path d="M103.2818 30.2724
L103.2213 30.2119
" />
<path d="M103.2213 30.2119
L103.1004 30.1514
" />
<path d="M103.1004 30.1514
L102.8585 30.1514
" />
<path d="M102.8585 30.1514
L102.7375 30.2119
" />
<path d="M102.7375 30.2119
L102.6770 30.2724
" />
<path d="M102.6770 30.2724
L102.6166 30.3933
" />
<path d="M102.6166 30.3933
L102.6166 30.6957
" />
<path d="M102.6166 30.6957
L102.6770 30.8167
" />
<path d="M102.6770 30.8167
L102.7375 30.8771
" />
<path d="M102.7375 30.8771
L102.8585 30.9376
" />
<path d="M102.8585 30.9376
L103.1004 30.9376
" />
<path d="M103.1004 30.9376
L103.2213 30.8771
" />
<path d="M103.2213 30.8771
L103.2818 30.8167
" />
<path d="M103.2818 30.8167
L103.3423 30.6957
" />
</g><path d="M90.9447 75.0189
L90.9447 77.5589
" />
<g transform="rotate(-90.000000 90.9447 74.5109)">
<text x="90.9447" y="75.1459"
textLength="4.0737" font-size="1.6933" lengthAdjust="spacingAndGlyphs"
text-anchor="start" opacity="0">GND</text>
</g>
<g class="stroked-text"><desc>GND</desc>
<path d="M90.3147 73.4430
L90.2542 73.5640
" />
<path d="M90.2542 73.5640
L90.2542 73.7454
" />
<path d="M90.2542 73.7454
L90.3147 73.9268
" />
<path d="M90.3147 73.9268
L90.4357 74.0478
" />
<path d="M90.4357 74.0478
L90.5566 74.1083
" />
<path d="M90.5566 74.1083
L90.7985 74.1687
" />
<path d="M90.7985 74.1687
L90.9799 74.1687
" />
<path d="M90.9799 74.1687
L91.2218 74.1083
" />
<path d="M91.2218 74.1083
L91.3428 74.0478
" />
<path d="M91.3428 74.0478
L91.4638 73.9268
" />
<path d="M91.4638 73.9268
L91.5242 73.7454
" />
<path d="M91.5242 73.7454
L91.5242 73.6245
" />
<path d="M91.5242 73.6245
L91.4638 73.4430
" />
<path d="M91.4638 73.4430
L91.4033 73.3826
" />
<path d="M91.4033 73.3826
L90.9799 73.3826
" />
<path d="M90.9799 73.3826
L90.9799 73.6245
" />
<path d="M91.5242 72.8383
L90.2542 72.8383
" />
<path d="M90.2542 72.8383
L91.5242 72.1126
" />
<path d="M91.5242 72.1126
L90.2542 72.1126
" />
<path d="M91.5242 71.5078
L90.2542 71.5078
" />
<path d="M90.2542 71.5078
L90.2542 71.2054
" />
<path d="M90.2542 71.2054
L90.3147 71.0240
" />
<path d="M90.3147 71.0240
L90.4357 70.9030
" />
<path d="M90.4357 70.9030
L90.5566 70.8425
" />
<path d="M90.5566 70.8425
L90.7985 70.7821
" />
<path d="M90.7985 70.7821
L90.9799 70.7821
" />
<path d="M90.9799 70.7821
L91.2218 70.8425
" />
<path d="M91.2218 70.8425
L91.3428 70.9030
" />
<path d="M91.3428 70.9030
L91.4638 71.0240
" />
<path d="M91.4638 71.0240
L91.5242 71.2054
" />
<path d="M91.5242 71.2054
L91.5242 71.5078
" />
</g><g transform="rotate(-90.000000 90.6907 76.2889)">
<text x="90.6907" y="76.2889"
textLength="1.4127" font-size="1.6933" lengthAdjust="spacingAndGlyphs"
text-anchor="middle" opacity="0">2</text>
</g>
<g class="stroked-text"><desc>2</desc>
<path d="M89.3782 76.6516
L89.3177 76.5912
" />
<path d="M89.3177 76.5912
L89.2572 76.4702
" />
<path d="M89.2572 76.4702
L89.2572 76.1678
" />
<path d="M89.2572 76.1678
L89.3177 76.0469
" />
<path d="M89.3177 76.0469
L89.3782 75.9864
" />
<path d="M89.3782 75.9864
L89.4991 75.9259
" />
<path d="M89.4991 75.9259
L89.6201 75.9259
" />
<path d="M89.6201 75.9259
L89.8015 75.9864
" />
<path d="M89.8015 75.9864
L90.5272 76.7121
" />
<path d="M90.5272 76.7121
L90.5272 75.9259
" />
</g><path d="M101.1047 29.2989
L103.6447 29.2989
" />
<text x="100.5967" y="29.9339"
textLength="3.9527" font-size="1.6933" lengthAdjust="spacingAndGlyphs"
text-anchor="end" opacity="0">RXD</text>
<g class="stroked-text"><desc>RXD</desc>
<path d="M97.7750 29.8784
L97.3517 29.2737
" />
<path d="M97.0493 29.8784
L97.0493 28.6084
" />
<path d="M97.0493 28.6084
L97.5331 28.6084
" />
<path d="M97.5331 28.6084
L97.6541 28.6689
" />
<path d="M97.6541 28.6689
L97.7146 28.7294
" />
<path d="M97.7146 28.7294
L97.7750 28.8503
" />
<path d="M97.7750 28.8503
L97.7750 29.0318
" />
<path d="M97.7750 29.0318
L97.7146 29.1527
" />
<path d="M97.7146 29.1527
L97.6541 29.2132
" />
<path d="M97.6541 29.2132
L97.5331 29.2737
" />
<path d="M97.5331 29.2737
L97.0493 29.2737
" />
<path d="M98.1984 28.6084
L99.0450 29.8784
" />
<path d="M99.0450 28.6084
L98.1984 29.8784
" />
<path d="M99.5288 29.8784
L99.5288 28.6084
" />
<path d="M99.5288 28.6084
L99.8312 28.6084
" />
<path d="M99.8312 28.6084
L100.0126 28.6689
" />
<path d="M100.0126 28.6689
L100.1336 28.7899
" />
<path d="M100.1336 28.7899
L100.1941 28.9108
" />
<path d="M100.1941 28.9108
L100.2545 29.1527
" />
<path d="M100.2545 29.1527
L100.2545 29.3341
" />
<path d="M100.2545 29.3341
L100.1941 29.5760
" />
<path d="M100.1941 29.5760
L100.1336 29.6970
" />
<path d="M100.1336 29.6970
L100.0126 29.8180
" />
<path d="M100.0126 29.8180
L99.8312 29.8784
" />
<path d="M99.8312 29.8784
L99.5288 29.8784
" />
</g><text x="102.3747" y="29.0449"
textLength="2.6222" font-size="1.6933" lengthAdjust="spacingAndGlyphs"
text-anchor="middle" opacity="0">20</text>
<g class="stroked-text"><desc>20</desc>
<path d="M101.4071 27.7324
L101.4675 27.6719
" />
<path d="M101.4675 27.6719
L101.5885 27.6114
" />
<path d="M101.5885 27.6114
L101.8909 27.6114
" />
<path d="M101.8909 27.6114
L102.0118 27.6719
" />
<path d="M102.0118 27.6719
L102.0723 27.7324
" />
<path d="M102.0723 27.7324
L102.1328 27.8533
" />
<path d="M102.1328 27.8533
L102.1328 27.9743
" />
<path d="M102.1328 27.9743
L102.0723 28.1557
" />
<path d="M102.0723 28.1557
L101.3466 28.8814
" />
<path d="M101.3466 28.8814
L102.1328 28.8814
" />
<path d="M102.9189 27.6114
L103.0399 27.6114
" />
<path d="M103.0399 27.6114
L103.1608 27.6719
" />
<path d="M103.1608 27.6719
L103.2213 27.7324
" />
<path d="M103.2213 27.7324
L103.2818 27.8533
" />
<path d="M103.2818 27.8533
L103.3423 28.0952
" />
<path d="M103.3423 28.0952
L103.3423 28.3976
" />
<path d="M103.3423 28.3976
L103.2818 28.6395
" />
<path d="M103.2818 28.6395
L103.2213 28.7605
" />
<path d="M103.2213 28.7605
L103.1608 28.8210
" />
<path d="M103.1608 28.8210
L103.0399 28.8814
" />
<path d="M103.0399 28.8814
L102.9189 28.8814
" />
<path d="M102.9189 28.8814
L102.7980 28.8210
" />
<path d="M102.7980 28.8210
L102.7375 28.7605
" />
<path d="M102.7375 28.7605
L102.6770 28.6395
" />
<path d="M102.6770 28.6395
L102.6166 28.3976
" />
<path d="M102.6166 28.3976
L102.6166 28.0952
" />
<path d="M102.6166 28.0952
L102.6770 27.8533
" />
<path d="M102.6770 27.8533
L102.7375 27.7324
" />
<path d="M102.7375 27.7324
L102.7980 27.6719
" />
<path d="M102.7980 27.6719
L102.9189 27.6114
" />
</g><path d="M101.1047 26.7589
L103.6447 26.7589
" />
<text x="100.5967" y="27.3939"
textLength="3.6503" font-size="1.6933" lengthAdjust="spacingAndGlyphs"
text-anchor="end" opacity="0">TXD</text>
<g class="stroked-text"><desc>TXD</desc>
<path d="M97.1703 26.0684
L97.8960 26.0684
" />
<path d="M97.5332 27.3384
L97.5332 26.0684
" />
<path d="M98.1984 26.0684
L99.0450 27.3384
" />
<path d="M99.0450 26.0684
L98.1984 27.3384
" />
<path d="M99.5288 27.3384
L99.5288 26.0684
" />
<path d="M99.5288 26.0684
L99.8312 26.0684
" />
<path d="M99.8312 26.0684
L100.0126 26.1289
" />
<path d="M100.0126 26.1289
L100.1336 26.2499
" />
<path d="M100.1336 26.2499
L100.1941 26.3708
" />
<path d="M100.1941 26.3708
L100.2545 26.6127
" />
<path d="M100.2545 26.6127
L100.2545 26.7941
" />
<path d="M100.2545 26.7941
L100.1941 27.0360
" />
<path d="M100.1941 27.0360
L100.1336 27.1570
" />
<path d="M100.1336 27.1570
L100.0126 27.2780
" />
<path d="M100.0126 27.2780
L99.8312 27.3384
" />
<path d="M99.8312 27.3384
L99.5288 27.3384
" />
</g><text x="102.3747" y="26.5049"
textLength="2.6222" font-size="1.6933" lengthAdjust="spacingAndGlyphs"
text-anchor="middle" opacity="0">21</text>
<g class="stroked-text"><desc>21</desc>
<path d="M101.4071 25.1924
L101.4675 25.1319
" />
<path d="M101.4675 25.1319
L101.5885 25.0714
" />
<path d="M101.5885 25.0714
L101.8909 25.0714
" />
<path d="M101.8909 25.0714
L102.0118 25.1319
" />
<path d="M102.0118 25.1319
L102.0723 25.1924
" />
<path d="M102.0723 25.1924
L102.1328 25.3133
" />
<path d="M102.1328 25.3133
L102.1328 25.4343
" />
<path d="M102.1328 25.4343
L102.0723 25.6157
" />
<path d="M102.0723 25.6157
L101.3466 26.3414
" />
<path d="M101.3466 26.3414
L102.1328 26.3414
" />
<path d="M103.3423 26.3414
L102.6166 26.3414
" />
<path d="M102.9794 26.3414
L102.9794 25.0714
" />
<path d="M102.9794 25.0714
L102.8585 25.2529
" />
<path d="M102.8585 25.2529
L102.7375 25.3738
" />
<path d="M102.7375 25.3738
L102.6166 25.4343
" />
</g><path d="M101.1047 36.9189
L103.6447 36.9189
" />
<text x="100.5967" y="37.5539"
textLength="3.9527" font-size="1.6933" lengthAdjust="spacingAndGlyphs"
text-anchor="end" opacity="0">~{DSR}</text>
<g class="stroked-text"><desc>~{DSR}</desc>
<path d="M97.0493 37.4984
L97.0493 36.2284
" />
<path d="M97.0493 36.2284
L97.3517 36.2284
" />
<path d="M97.3517 36.2284
L97.5331 36.2889
" />
<path d="M97.5331 36.2889
L97.6541 36.4099
" />
<path d="M97.6541 36.4099
L97.7146 36.5308
" />
<path d="M97.7146 36.5308
L97.7750 36.7727
" />
<path d="M97.7750 36.7727
L97.7750 36.9541
" />
<path d="M97.7750 36.9541
L97.7146 37.1960
" />
<path d="M97.7146 37.1960
L97.6541 37.3170
" />
<path d="M97.6541 37.3170
L97.5331 37.4380
" />
<path d="M97.5331 37.4380
L97.3517 37.4984
" />
<path d="M97.3517 37.4984
L97.0493 37.4984
" />
<path d="M98.2589 37.4380
L98.4403 37.4984
" />
<path d="M98.4403 37.4984
L98.7427 37.4984
" />
<path d="M98.7427 37.4984
L98.8636 37.4380
" />
<path d="M98.8636 37.4380
L98.9241 37.3775
" />
<path d="M98.9241 37.3775
L98.9846 37.2565
" />
<path d="M98.9846 37.2565
L98.9846 37.1356
" />
<path d="M98.9846 37.1356
L98.9241 37.0146
" />
<path d="M98.9241 37.0146
L98.8636 36.9541
" />
<path d="M98.8636 36.9541
L98.7427 36.8937
" />
<path d="M98.7427 36.8937
L98.5008 36.8332
" />
<path d="M98.5008 36.8332
L98.3798 36.7727
" />
<path d="M98.3798 36.7727
L98.3193 36.7122
" />
<path d="M98.3193 36.7122
L98.2589 36.5913
" />
<path d="M98.2589 36.5913
L98.2589 36.4703
" />
<path d="M98.2589 36.4703
L98.3193 36.3494
" />
<path d="M98.3193 36.3494
L98.3798 36.2889
" />
<path d="M98.3798 36.2889
L98.5008 36.2284
" />
<path d="M98.5008 36.2284
L98.8031 36.2284
" />
<path d="M98.8031 36.2284
L98.9846 36.2889
" />
<path d="M100.2545 37.4984
L99.8312 36.8937
" />
<path d="M99.5288 37.4984
L99.5288 36.2284
" />
<path d="M99.5288 36.2284
L100.0126 36.2284
" />
<path d="M100.0126 36.2284
L100.1336 36.2889
" />
<path d="M100.1336 36.2889
L100.1941 36.3494
" />
<path d="M100.1941 36.3494
L100.2545 36.4703
" />
<path d="M100.2545 36.4703
L100.2545 36.6518
" />
<path d="M100.2545 36.6518
L100.1941 36.7727
" />
<path d="M100.1941 36.7727
L100.1336 36.8332
" />
<path d="M100.1336 36.8332
L100.0126 36.8937
" />
<path d="M100.0126 36.8937
L99.5288 36.8937
" />
<path d="M96.8740 35.8759
L100.3695 35.8759
" />
</g><text x="102.3747" y="36.6649"
textLength="2.6222" font-size="1.6933" lengthAdjust="spacingAndGlyphs"
text-anchor="middle" opacity="0">22</text>
<g class="stroked-text"><desc>22</desc>
<path d="M101.4071 35.3524
L101.4675 35.2919
" />
<path d="M101.4675 35.2919
L101.5885 35.2314
" />
<path d="M101.5885 35.2314
L101.8909 35.2314
" />
<path d="M101.8909 35.2314
L102.0118 35.2919
" />
<path d="M102.0118 35.2919
L102.0723 35.3524
" />
<path d="M102.0723 35.3524
L102.1328 35.4733
" />
<path d="M102.1328 35.4733
L102.1328 35.5943
" />
<path d="M102.1328 35.5943
L102.0723 35.7757
" />
<path d="M102.0723 35.7757
L101.3466 36.5014
" />
<path d="M101.3466 36.5014
L102.1328 36.5014
" />
<path d="M102.6166 35.3524
L102.6770 35.2919
" />
<path d="M102.6770 35.2919
L102.7980 35.2314
" />
<path d="M102.7980 35.2314
L103.1004 35.2314
" />
<path d="M103.1004 35.2314
L103.2213 35.2919
" />
<path d="M103.2213 35.2919
L103.2818 35.3524
" />
<path d="M103.2818 35.3524
L103.3423 35.4733
" />
<path d="M103.3423 35.4733
L103.3423 35.5943
" />
<path d="M103.3423 35.5943
L103.2818 35.7757
" />
<path d="M103.2818 35.7757
L102.5561 36.5014
" />
<path d="M102.5561 36.5014
L103.3423 36.5014
" />
</g><path d="M101.1047 39.4589
L103.6447 39.4589
" />
<text x="100.5967" y="40.0939"
textLength="3.7108" font-size="1.6933" lengthAdjust="spacingAndGlyphs"
text-anchor="end" opacity="0">~{DTR}</text>
<g class="stroked-text"><desc>~{DTR}</desc>
<path d="M97.2912 40.0384
L97.2912 38.7684
" />
<path d="M97.2912 38.7684
L97.5936 38.7684
" />
<path d="M97.5936 38.7684
L97.7750 38.8289
" />
<path d="M97.7750 38.8289
L97.8960 38.9499
" />
<path d="M97.8960 38.9499
L97.9565 39.0708
" />
<path d="M97.9565 39.0708
L98.0169 39.3127
" />
<path d="M98.0169 39.3127
L98.0169 39.4941
" />
<path d="M98.0169 39.4941
L97.9565 39.7360
" />
<path d="M97.9565 39.7360
L97.8960 39.8570
" />
<path d="M97.8960 39.8570
L97.7750 39.9780
" />
<path d="M97.7750 39.9780
L97.5936 40.0384
" />
<path d="M97.5936 40.0384
L97.2912 40.0384
" />
<path d="M98.3798 38.7684
L99.1055 38.7684
" />
<path d="M98.7427 40.0384
L98.7427 38.7684
" />
<path d="M100.2545 40.0384
L99.8312 39.4337
" />
<path d="M99.5288 40.0384
L99.5288 38.7684
" />
<path d="M99.5288 38.7684
L100.0126 38.7684
" />
<path d="M100.0126 38.7684
L100.1336 38.8289
" />
<path d="M100.1336 38.8289
L100.1941 38.8894
" />
<path d="M100.1941 38.8894
L100.2545 39.0103
" />
<path d="M100.2545 39.0103
L100.2545 39.1918
" />
<path d="M100.2545 39.1918
L100.1941 39.3127
" />
<path d="M100.1941 39.3127
L100.1336 39.3732
" />
<path d="M100.1336 39.3732
L100.0126 39.4337
" />
<path d="M100.0126 39.4337
L99.5288 39.4337
" />
<path d="M97.1159 38.4159
L100.3695 38.4159
" />
</g><text x="102.3747" y="39.2049"
textLength="2.6222" font-size="1.6933" lengthAdjust="spacingAndGlyphs"
text-anchor="middle" opacity="0">23</text>
<g class="stroked-text"><desc>23</desc>
<path d="M101.4071 37.8924
L101.4675 37.8319
" />
<path d="M101.4675 37.8319
L101.5885 37.7714
" />
<path d="M101.5885 37.7714
L101.8909 37.7714
" />
<path d="M101.8909 37.7714
L102.0118 37.8319
" />
<path d="M102.0118 37.8319
L102.0723 37.8924
" />
<path d="M102.0723 37.8924
L102.1328 38.0133
" />
<path d="M102.1328 38.0133
L102.1328 38.1343
" />
<path d="M102.1328 38.1343
L102.0723 38.3157
" />
<path d="M102.0723 38.3157
L101.3466 39.0414
" />
<path d="M101.3466 39.0414
L102.1328 39.0414
" />
<path d="M102.5561 37.7714
L103.3423 37.7714
" />
<path d="M103.3423 37.7714
L102.9189 38.2552
" />
<path d="M102.9189 38.2552
L103.1004 38.2552
" />
<path d="M103.1004 38.2552
L103.2213 38.3157
" />
<path d="M103.2213 38.3157
L103.2818 38.3762
" />
<path d="M103.2818 38.3762
L103.3423 38.4971
" />
<path d="M103.3423 38.4971
L103.3423 38.7995
" />
<path d="M103.3423 38.7995
L103.2818 38.9205
" />
<path d="M103.2818 38.9205
L103.2213 38.9810
" />
<path d="M103.2213 38.9810
L103.1004 39.0414
" />
<path d="M103.1004 39.0414
L102.7375 39.0414
" />
<path d="M102.7375 39.0414
L102.6166 38.9810
" />
<path d="M102.6166 38.9810
L102.5561 38.9205
" />
</g><path d="M101.1047 41.9989
L103.6447 41.9989
" />
<text x="100.5967" y="42.6339"
textLength="4.0132" font-size="1.6933" lengthAdjust="spacingAndGlyphs"
text-anchor="end" opacity="0">~{DCD}</text>
<g class="stroked-text"><desc>~{DCD}</desc>
<path d="M96.9888 42.5784
L96.9888 41.3084
" />
<path d="M96.9888 41.3084
L97.2912 41.3084
" />
<path d="M97.2912 41.3084
L97.4726 41.3689
" />
<path d="M97.4726 41.3689
L97.5936 41.4899
" />
<path d="M97.5936 41.4899
L97.6541 41.6108
" />
<path d="M97.6541 41.6108
L97.7145 41.8527
" />
<path d="M97.7145 41.8527
L97.7145 42.0341
" />
<path d="M97.7145 42.0341
L97.6541 42.2760
" />
<path d="M97.6541 42.2760
L97.5936 42.3970
" />
<path d="M97.5936 42.3970
L97.4726 42.5180
" />
<path d="M97.4726 42.5180
L97.2912 42.5784
" />
<path d="M97.2912 42.5784
L96.9888 42.5784
" />
<path d="M98.9845 42.4575
L98.9241 42.5180
" />
<path d="M98.9241 42.5180
L98.7426 42.5784
" />
<path d="M98.7426 42.5784
L98.6217 42.5784
" />
<path d="M98.6217 42.5784
L98.4403 42.5180
" />
<path d="M98.4403 42.5180
L98.3193 42.3970
" />
<path d="M98.3193 42.3970
L98.2588 42.2760
" />
<path d="M98.2588 42.2760
L98.1984 42.0341
" />
<path d="M98.1984 42.0341
L98.1984 41.8527
" />
<path d="M98.1984 41.8527
L98.2588 41.6108
" />
<path d="M98.2588 41.6108
L98.3193 41.4899
" />
<path d="M98.3193 41.4899
L98.4403 41.3689
" />
<path d="M98.4403 41.3689
L98.6217 41.3084
" />
<path d="M98.6217 41.3084
L98.7426 41.3084
" />
<path d="M98.7426 41.3084
L98.9241 41.3689
" />
<path d="M98.9241 41.3689
L98.9845 41.4294
" />
<path d="M99.5288 42.5784
L99.5288 41.3084
" />
<path d="M99.5288 41.3084
L99.8312 41.3084
" />
<path d="M99.8312 41.3084
L100.0126 41.3689
" />
<path d="M100.0126 41.3689
L100.1336 41.4899
" />
<path d="M100.1336 41.4899
L100.1941 41.6108
" />
<path d="M100.1941 41.6108
L100.2545 41.8527
" />
<path d="M100.2545 41.8527
L100.2545 42.0341
" />
<path d="M100.2545 42.0341
L100.1941 42.2760
" />
<path d="M100.1941 42.2760
L100.1336 42.3970
" />
<path d="M100.1336 42.3970
L100.0126 42.5180
" />
<path d="M100.0126 42.5180
L99.8312 42.5784
" />
<path d="M99.8312 42.5784
L99.5288 42.5784
" />
<path d="M96.8135 40.9559
L100.3695 40.9559
" />
</g><text x="102.3747" y="41.7449"
textLength="2.6222" font-size="1.6933" lengthAdjust="spacingAndGlyphs"
text-anchor="middle" opacity="0">24</text>
<g class="stroked-text"><desc>24</desc>
<path d="M101.4071 40.4324
L101.4675 40.3719
" />
<path d="M101.4675 40.3719
L101.5885 40.3114
" />
<path d="M101.5885 40.3114
L101.8909 40.3114
" />
<path d="M101.8909 40.3114
L102.0118 40.3719
" />
<path d="M102.0118 40.3719
L102.0723 40.4324
" />
<path d="M102.0723 40.4324
L102.1328 40.5533
" />
<path d="M102.1328 40.5533
L102.1328 40.6743
" />
<path d="M102.1328 40.6743
L102.0723 40.8557
" />
<path d="M102.0723 40.8557
L101.3466 41.5814
" />
<path d="M101.3466 41.5814
L102.1328 41.5814
" />
<path d="M103.2213 40.7348
L103.2213 41.5814
" />
<path d="M102.9189 40.2510
L102.6166 41.1581
" />
<path d="M102.6166 41.1581
L103.4027 41.1581
" />
</g><path d="M80.7847 44.5389
L78.2447 44.5389
" />
<text x="81.2927" y="45.1739"
textLength="3.0456" font-size="1.6933" lengthAdjust="spacingAndGlyphs"
text-anchor="start" opacity="0">D+</text>
<g class="stroked-text"><desc>D+</desc>
<path d="M81.6952 45.1184
L81.6952 43.8484
" />
<path d="M81.6952 43.8484
L81.9976 43.8484
" />
<path d="M81.9976 43.8484
L82.1790 43.9089
" />
<path d="M82.1790 43.9089
L82.3000 44.0299
" />
<path d="M82.3000 44.0299
L82.3605 44.1508
" />
<path d="M82.3605 44.1508
L82.4209 44.3927
" />
<path d="M82.4209 44.3927
L82.4209 44.5741
" />
<path d="M82.4209 44.5741
L82.3605 44.8160
" />
<path d="M82.3605 44.8160
L82.3000 44.9370
" />
<path d="M82.3000 44.9370
L82.1790 45.0580
" />
<path d="M82.1790 45.0580
L81.9976 45.1184
" />
<path d="M81.9976 45.1184
L81.6952 45.1184
" />
<path d="M82.9652 44.6346
L83.9329 44.6346
" />
<path d="M83.4490 45.1184
L83.4490 44.1508
" />
</g><text x="79.5147" y="44.2849"
textLength="1.4127" font-size="1.6933" lengthAdjust="spacingAndGlyphs"
text-anchor="middle" opacity="0">3</text>
<g class="stroked-text"><desc>3</desc>
<path d="M79.0914 42.8514
L79.8776 42.8514
" />
<path d="M79.8776 42.8514
L79.4542 43.3352
" />
<path d="M79.4542 43.3352
L79.6357 43.3352
" />
<path d="M79.6357 43.3352
L79.7566 43.3957
" />
<path d="M79.7566 43.3957
L79.8171 43.4562
" />
<path d="M79.8171 43.4562
L79.8776 43.5771
" />
<path d="M79.8776 43.5771
L79.8776 43.8795
" />
<path d="M79.8776 43.8795
L79.8171 44.0005
" />
<path d="M79.8171 44.0005
L79.7566 44.0610
" />
<path d="M79.7566 44.0610
L79.6357 44.1214
" />
<path d="M79.6357 44.1214
L79.2728 44.1214
" />
<path d="M79.2728 44.1214
L79.1519 44.0610
" />
<path d="M79.1519 44.0610
L79.0914 44.0005
" />
</g><path d="M80.7847 41.9989
L78.2447 41.9989
" />
<text x="81.2927" y="42.6339"
textLength="3.0456" font-size="1.6933" lengthAdjust="spacingAndGlyphs"
text-anchor="start" opacity="0">D-</text>
<g class="stroked-text"><desc>D-</desc>
<path d="M81.6952 42.5784
L81.6952 41.3084
" />
<path d="M81.6952 41.3084
L81.9976 41.3084
" />
<path d="M81.9976 41.3084
L82.1790 41.3689
" />
<path d="M82.1790 41.3689
L82.3000 41.4899
" />
<path d="M82.3000 41.4899
L82.3605 41.6108
" />
<path d="M82.3605 41.6108
L82.4209 41.8527
" />
<path d="M82.4209 41.8527
L82.4209 42.0341
" />
<path d="M82.4209 42.0341
L82.3605 42.2760
" />
<path d="M82.3605 42.2760
L82.3000 42.3970
" />
<path d="M82.3000 42.3970
L82.1790 42.5180
" />
<path d="M82.1790 42.5180
L81.9976 42.5784
" />
<path d="M81.9976 42.5784
L81.6952 42.5784
" />
<path d="M82.9652 42.0946
L83.9329 42.0946
" />
</g><text x="79.5147" y="41.7449"
textLength="1.4127" font-size="1.6933" lengthAdjust="spacingAndGlyphs"
text-anchor="middle" opacity="0">4</text>
<g class="stroked-text"><desc>4</desc>
<path d="M79.7566 40.7348
L79.7566 41.5814
" />
<path d="M79.4542 40.2510
L79.1519 41.1581
" />
<path d="M79.1519 41.1581
L79.9380 41.1581
" />
</g><path d="M93.4847 24.2189
L93.4847 21.6789
" />
<g transform="rotate(-90.000000 93.4847 24.7269)">
<text x="93.4847" y="25.3619"
textLength="3.2271" font-size="1.6933" lengthAdjust="spacingAndGlyphs"
text-anchor="end" opacity="0">VIO</text>
</g>
<g class="stroked-text"><desc>VIO</desc>
<path d="M92.7942 27.7300
L94.0642 27.3067
" />
<path d="M94.0642 27.3067
L92.7942 26.8833
" />
<path d="M94.0642 26.4600
L92.7942 26.4600
" />
<path d="M92.7942 25.6133
L92.7942 25.3714
" />
<path d="M92.7942 25.3714
L92.8547 25.2504
" />
<path d="M92.8547 25.2504
L92.9757 25.1295
" />
<path d="M92.9757 25.1295
L93.2176 25.0690
" />
<path d="M93.2176 25.0690
L93.6409 25.0690
" />
<path d="M93.6409 25.0690
L93.8828 25.1295
" />
<path d="M93.8828 25.1295
L94.0038 25.2504
" />
<path d="M94.0038 25.2504
L94.0642 25.3714
" />
<path d="M94.0642 25.3714
L94.0642 25.6133
" />
<path d="M94.0642 25.6133
L94.0038 25.7342
" />
<path d="M94.0038 25.7342
L93.8828 25.8552
" />
<path d="M93.8828 25.8552
L93.6409 25.9156
" />
<path d="M93.6409 25.9156
L93.2176 25.9156
" />
<path d="M93.2176 25.9156
L92.9757 25.8552
" />
<path d="M92.9757 25.8552
L92.8547 25.7342
" />
<path d="M92.8547 25.7342
L92.7942 25.6133
" />
</g><g transform="rotate(-90.000000 93.2307 22.9489)">
<text x="93.2307" y="22.9489"
textLength="1.4127" font-size="1.6933" lengthAdjust="spacingAndGlyphs"
text-anchor="middle" opacity="0">5</text>
</g>
<g class="stroked-text"><desc>5</desc>
<path d="M91.7972 22.6464
L91.7972 23.2512
" />
<path d="M91.7972 23.2512
L92.4020 23.3116
" />
<path d="M92.4020 23.3116
L92.3415 23.2512
" />
<path d="M92.3415 23.2512
L92.2810 23.1302
" />
<path d="M92.2810 23.1302
L92.2810 22.8278
" />
<path d="M92.2810 22.8278
L92.3415 22.7069
" />
<path d="M92.3415 22.7069
L92.4020 22.6464
" />
<path d="M92.4020 22.6464
L92.5229 22.5859
" />
<path d="M92.5229 22.5859
L92.8253 22.5859
" />
<path d="M92.8253 22.5859
L92.9463 22.6464
" />
<path d="M92.9463 22.6464
L93.0068 22.7069
" />
<path d="M93.0068 22.7069
L93.0672 22.8278
" />
<path d="M93.0672 22.8278
L93.0672 23.1302
" />
<path d="M93.0672 23.1302
L93.0068 23.2512
" />
<path d="M93.0068 23.2512
L92.9463 23.3116
" />
</g><path d="M90.9447 24.2189
L90.9447 21.6789
" />
<g transform="rotate(-90.000000 90.9447 24.7269)">
<text x="90.9447" y="25.3619"
textLength="3.8318" font-size="1.6933" lengthAdjust="spacingAndGlyphs"
text-anchor="end" opacity="0">VDD</text>
</g>
<g class="stroked-text"><desc>VDD</desc>
<path d="M90.2542 28.3347
L91.5242 27.9114
" />
<path d="M91.5242 27.9114
L90.2542 27.4880
" />
<path d="M91.5242 27.0647
L90.2542 27.0647
" />
<path d="M90.2542 27.0647
L90.2542 26.7623
" />
<path d="M90.2542 26.7623
L90.3147 26.5809
" />
<path d="M90.3147 26.5809
L90.4357 26.4599
" />
<path d="M90.4357 26.4599
L90.5566 26.3994
" />
<path d="M90.5566 26.3994
L90.7985 26.3390
" />
<path d="M90.7985 26.3390
L90.9799 26.3390
" />
<path d="M90.9799 26.3390
L91.2218 26.3994
" />
<path d="M91.2218 26.3994
L91.3428 26.4599
" />
<path d="M91.3428 26.4599
L91.4638 26.5809
" />
<path d="M91.4638 26.5809
L91.5242 26.7623
" />
<path d="M91.5242 26.7623
L91.5242 27.0647
" />
<path d="M91.5242 25.7947
L90.2542 25.7947
" />
<path d="M90.2542 25.7947
L90.2542 25.4923
" />
<path d="M90.2542 25.4923
L90.3147 25.3109
" />
<path d="M90.3147 25.3109
L90.4357 25.1899
" />
<path d="M90.4357 25.1899
L90.5566 25.1294
" />
<path d="M90.5566 25.1294
L90.7985 25.0690
" />
<path d="M90.7985 25.0690
L90.9799 25.0690
" />
<path d="M90.9799 25.0690
L91.2218 25.1294
" />
<path d="M91.2218 25.1294
L91.3428 25.1899
" />
<path d="M91.3428 25.1899
L91.4638 25.3109
" />
<path d="M91.4638 25.3109
L91.5242 25.4923
" />
<path d="M91.5242 25.4923
L91.5242 25.7947
" />
</g><g transform="rotate(-90.000000 90.6907 22.9489)">
<text x="90.6907" y="22.9489"
textLength="1.4127" font-size="1.6933" lengthAdjust="spacingAndGlyphs"
text-anchor="middle" opacity="0">6</text>
</g>
<g class="stroked-text"><desc>6</desc>
<path d="M89.2572 22.7069
L89.2572 22.9488
" />
<path d="M89.2572 22.9488
L89.3177 23.0697
" />
<path d="M89.3177 23.0697
L89.3782 23.1302
" />
<path d="M89.3782 23.1302
L89.5596 23.2512
" />
<path d="M89.5596 23.2512
L89.8015 23.3116
" />
<path d="M89.8015 23.3116
L90.2853 23.3116
" />
<path d="M90.2853 23.3116
L90.4063 23.2512
" />
<path d="M90.4063 23.2512
L90.4668 23.1907
" />
<path d="M90.4668 23.1907
L90.5272 23.0697
" />
<path d="M90.5272 23.0697
L90.5272 22.8278
" />
<path d="M90.5272 22.8278
L90.4668 22.7069
" />
<path d="M90.4668 22.7069
L90.4063 22.6464
" />
<path d="M90.4063 22.6464
L90.2853 22.5859
" />
<path d="M90.2853 22.5859
L89.9829 22.5859
" />
<path d="M89.9829 22.5859
L89.8620 22.6464
" />
<path d="M89.8620 22.6464
L89.8015 22.7069
" />
<path d="M89.8015 22.7069
L89.7410 22.8278
" />
<path d="M89.7410 22.8278
L89.7410 23.0697
" />
<path d="M89.7410 23.0697
L89.8015 23.1907
" />
<path d="M89.8015 23.1907
L89.8620 23.2512
" />
<path d="M89.8620 23.2512
L89.9829 23.3116
" />
</g><path d="M88.4047 24.2189
L88.4047 21.6789
" />
<g transform="rotate(-90.000000 88.4047 24.7269)">
<text x="88.4047" y="25.3619"
textLength="5.8275" font-size="1.6933" lengthAdjust="spacingAndGlyphs"
text-anchor="end" opacity="0">REGIN</text>
</g>
<g class="stroked-text"><desc>REGIN</desc>
<path d="M88.9842 29.4233
L88.3795 29.8466
" />
<path d="M88.9842 30.1490
L87.7142 30.1490
" />
<path d="M87.7142 30.1490
L87.7142 29.6652
" />
<path d="M87.7142 29.6652
L87.7747 29.5442
" />
<path d="M87.7747 29.5442
L87.8352 29.4837
" />
<path d="M87.8352 29.4837
L87.9561 29.4233
" />
<path d="M87.9561 29.4233
L88.1376 29.4233
" />
<path d="M88.1376 29.4233
L88.2585 29.4837
" />
<path d="M88.2585 29.4837
L88.3190 29.5442
" />
<path d="M88.3190 29.5442
L88.3795 29.6652
" />
<path d="M88.3795 29.6652
L88.3795 30.1490
" />
<path d="M88.3190 28.8790
L88.3190 28.4556
" />
<path d="M88.9842 28.2742
L88.9842 28.8790
" />
<path d="M88.9842 28.8790
L87.7142 28.8790
" />
<path d="M87.7142 28.8790
L87.7142 28.2742
" />
<path d="M87.7747 27.0647
L87.7142 27.1857
" />
<path d="M87.7142 27.1857
L87.7142 27.3671
" />
<path d="M87.7142 27.3671
L87.7747 27.5485
" />
<path d="M87.7747 27.5485
L87.8957 27.6695
" />
<path d="M87.8957 27.6695
L88.0166 27.7300
" />
<path d="M88.0166 27.7300
L88.2585 27.7904
" />
<path d="M88.2585 27.7904
L88.4399 27.7904
" />
<path d="M88.4399 27.7904
L88.6818 27.7300
" />
<path d="M88.6818 27.7300
L88.8028 27.6695
" />
<path d="M88.8028 27.6695
L88.9238 27.5485
" />
<path d="M88.9238 27.5485
L88.9842 27.3671
" />
<path d="M88.9842 27.3671
L88.9842 27.2462
" />
<path d="M88.9842 27.2462
L88.9238 27.0647
" />
<path d="M88.9238 27.0647
L88.8633 27.0043
" />
<path d="M88.8633 27.0043
L88.4399 27.0043
" />
<path d="M88.4399 27.0043
L88.4399 27.2462
" />
<path d="M88.9842 26.4600
L87.7142 26.4600
" />
<path d="M88.9842 25.8552
L87.7142 25.8552
" />
<path d="M87.7142 25.8552
L88.9842 25.1295
" />
<path d="M88.9842 25.1295
L87.7142 25.1295
" />
</g><g transform="rotate(-90.000000 88.1507 22.9489)">
<text x="88.1507" y="22.9489"
textLength="1.4127" font-size="1.6933" lengthAdjust="spacingAndGlyphs"
text-anchor="middle" opacity="0">7</text>
</g>
<g class="stroked-text"><desc>7</desc>
<path d="M86.7172 23.3721
L86.7172 22.5255
" />
<path d="M86.7172 22.5255
L87.9872 23.0697
" />
</g><path d="M80.7847 39.4589
L78.2447 39.4589
" />
<text x="81.2927" y="40.0939"
textLength="5.1018" font-size="1.6933" lengthAdjust="spacingAndGlyphs"
text-anchor="start" opacity="0">VBUS</text>
<g class="stroked-text"><desc>VBUS</desc>
<path d="M81.5138 38.7684
L81.9371 40.0384
" />
<path d="M81.9371 40.0384
L82.3605 38.7684
" />
<path d="M83.2072 39.3732
L83.3886 39.4337
" />
<path d="M83.3886 39.4337
L83.4491 39.4941
" />
<path d="M83.4491 39.4941
L83.5095 39.6151
" />
<path d="M83.5095 39.6151
L83.5095 39.7965
" />
<path d="M83.5095 39.7965
L83.4491 39.9175
" />
<path d="M83.4491 39.9175
L83.3886 39.9780
" />
<path d="M83.3886 39.9780
L83.2676 40.0384
" />
<path d="M83.2676 40.0384
L82.7838 40.0384
" />
<path d="M82.7838 40.0384
L82.7838 38.7684
" />
<path d="M82.7838 38.7684
L83.2072 38.7684
" />
<path d="M83.2072 38.7684
L83.3281 38.8289
" />
<path d="M83.3281 38.8289
L83.3886 38.8894
" />
<path d="M83.3886 38.8894
L83.4491 39.0103
" />
<path d="M83.4491 39.0103
L83.4491 39.1313
" />
<path d="M83.4491 39.1313
L83.3886 39.2522
" />
<path d="M83.3886 39.2522
L83.3281 39.3127
" />
<path d="M83.3281 39.3127
L83.2072 39.3732
" />
<path d="M83.2072 39.3732
L82.7838 39.3732
" />
<path d="M84.0538 38.7684
L84.0538 39.7965
" />
<path d="M84.0538 39.7965
L84.1143 39.9175
" />
<path d="M84.1143 39.9175
L84.1748 39.9780
" />
<path d="M84.1748 39.9780
L84.2957 40.0384
" />
<path d="M84.2957 40.0384
L84.5376 40.0384
" />
<path d="M84.5376 40.0384
L84.6586 39.9780
" />
<path d="M84.6586 39.9780
L84.7191 39.9175
" />
<path d="M84.7191 39.9175
L84.7795 39.7965
" />
<path d="M84.7795 39.7965
L84.7795 38.7684
" />
<path d="M85.3239 39.9780
L85.5053 40.0384
" />
<path d="M85.5053 40.0384
L85.8077 40.0384
" />
<path d="M85.8077 40.0384
L85.9286 39.9780
" />
<path d="M85.9286 39.9780
L85.9891 39.9175
" />
<path d="M85.9891 39.9175
L86.0496 39.7965
" />
<path d="M86.0496 39.7965
L86.0496 39.6756
" />
<path d="M86.0496 39.6756
L85.9891 39.5546
" />
<path d="M85.9891 39.5546
L85.9286 39.4941
" />
<path d="M85.9286 39.4941
L85.8077 39.4337
" />
<path d="M85.8077 39.4337
L85.5658 39.3732
" />
<path d="M85.5658 39.3732
L85.4448 39.3127
" />
<path d="M85.4448 39.3127
L85.3843 39.2522
" />
<path d="M85.3843 39.2522
L85.3239 39.1313
" />
<path d="M85.3239 39.1313
L85.3239 39.0103
" />
<path d="M85.3239 39.0103
L85.3843 38.8894
" />
<path d="M85.3843 38.8894
L85.4448 38.8289
" />
<path d="M85.4448 38.8289
L85.5658 38.7684
" />
<path d="M85.5658 38.7684
L85.8681 38.7684
" />
<path d="M85.8681 38.7684
L86.0496 38.8289
" />
</g><text x="79.5147" y="39.2049"
textLength="1.4127" font-size="1.6933" lengthAdjust="spacingAndGlyphs"
text-anchor="middle" opacity="0">8</text>
<g class="stroked-text"><desc>8</desc>
<path d="M79.3938 38.3157
L79.2728 38.2552
" />
<path d="M79.2728 38.2552
L79.2123 38.1948
" />
<path d="M79.2123 38.1948
L79.1519 38.0738
" />
<path d="M79.1519 38.0738
L79.1519 38.0133
" />
<path d="M79.1519 38.0133
L79.2123 37.8924
" />
<path d="M79.2123 37.8924
L79.2728 37.8319
" />
<path d="M79.2728 37.8319
L79.3938 37.7714
" />
<path d="M79.3938 37.7714
L79.6357 37.7714
" />
<path d="M79.6357 37.7714
L79.7566 37.8319
" />
<path d="M79.7566 37.8319
L79.8171 37.8924
" />
<path d="M79.8171 37.8924
L79.8776 38.0133
" />
<path d="M79.8776 38.0133
L79.8776 38.0738
" />
<path d="M79.8776 38.0738
L79.8171 38.1948
" />
<path d="M79.8171 38.1948
L79.7566 38.2552
" />
<path d="M79.7566 38.2552
L79.6357 38.3157
" />
<path d="M79.6357 38.3157
L79.3938 38.3157
" />
<path d="M79.3938 38.3157
L79.2728 38.3762
" />
<path d="M79.2728 38.3762
L79.2123 38.4367
" />
<path d="M79.2123 38.4367
L79.1519 38.5576
" />
<path d="M79.1519 38.5576
L79.1519 38.7995
" />
<path d="M79.1519 38.7995
L79.2123 38.9205
" />
<path d="M79.2123 38.9205
L79.2728 38.9810
" />
<path d="M79.2728 38.9810
L79.3938 39.0414
" />
<path d="M79.3938 39.0414
L79.6357 39.0414
" />
<path d="M79.6357 39.0414
L79.7566 38.9810
" />
<path d="M79.7566 38.9810
L79.8171 38.9205
" />
<path d="M79.8171 38.9205
L79.8776 38.7995
" />
<path d="M79.8776 38.7995
L79.8776 38.5576
" />
<path d="M79.8776 38.5576
L79.8171 38.4367
" />
<path d="M79.8171 38.4367
L79.7566 38.3762
" />
<path d="M79.7566 38.3762
L79.6357 38.3157
" />
</g><path d="M80.7847 26.7589
L78.2447 26.7589
" />
<text x="81.2927" y="27.3939"
textLength="3.6503" font-size="1.6933" lengthAdjust="spacingAndGlyphs"
text-anchor="start" opacity="0">~{RST}</text>
<g class="stroked-text"><desc>~{RST}</desc>
<path d="M82.4209 27.3384
L81.9976 26.7337
" />
<path d="M81.6952 27.3384
L81.6952 26.0684
" />
<path d="M81.6952 26.0684
L82.1790 26.0684
" />
<path d="M82.1790 26.0684
L82.3000 26.1289
" />
<path d="M82.3000 26.1289
L82.3605 26.1894
" />
<path d="M82.3605 26.1894
L82.4209 26.3103
" />
<path d="M82.4209 26.3103
L82.4209 26.4918
" />
<path d="M82.4209 26.4918
L82.3605 26.6127
" />
<path d="M82.3605 26.6127
L82.3000 26.6732
" />
<path d="M82.3000 26.6732
L82.1790 26.7337
" />
<path d="M82.1790 26.7337
L81.6952 26.7337
" />
<path d="M82.9048 27.2780
L83.0862 27.3384
" />
<path d="M83.0862 27.3384
L83.3886 27.3384
" />
<path d="M83.3886 27.3384
L83.5095 27.2780
" />
<path d="M83.5095 27.2780
L83.5700 27.2175
" />
<path d="M83.5700 27.2175
L83.6305 27.0965
" />
<path d="M83.6305 27.0965
L83.6305 26.9756
" />
<path d="M83.6305 26.9756
L83.5700 26.8546
" />
<path d="M83.5700 26.8546
L83.5095 26.7941
" />
<path d="M83.5095 26.7941
L83.3886 26.7337
" />
<path d="M83.3886 26.7337
L83.1467 26.6732
" />
<path d="M83.1467 26.6732
L83.0257 26.6127
" />
<path d="M83.0257 26.6127
L82.9652 26.5522
" />
<path d="M82.9652 26.5522
L82.9048 26.4313
" />
<path d="M82.9048 26.4313
L82.9048 26.3103
" />
<path d="M82.9048 26.3103
L82.9652 26.1894
" />
<path d="M82.9652 26.1894
L83.0257 26.1289
" />
<path d="M83.0257 26.1289
L83.1467 26.0684
" />
<path d="M83.1467 26.0684
L83.4490 26.0684
" />
<path d="M83.4490 26.0684
L83.6305 26.1289
" />
<path d="M83.9933 26.0684
L84.7190 26.0684
" />
<path d="M84.3562 27.3384
L84.3562 26.0684
" />
<path d="M81.5199 25.7159
L84.7130 25.7159
" />
</g><text x="79.5147" y="26.5049"
textLength="1.4127" font-size="1.6933" lengthAdjust="spacingAndGlyphs"
text-anchor="middle" opacity="0">9</text>
<g class="stroked-text"><desc>9</desc>
<path d="M79.2728 26.3414
L79.5147 26.3414
" />
<path d="M79.5147 26.3414
L79.6357 26.2810
" />
<path d="M79.6357 26.2810
L79.6961 26.2205
" />
<path d="M79.6961 26.2205
L79.8171 26.0390
" />
<path d="M79.8171 26.0390
L79.8776 25.7971
" />
<path d="M79.8776 25.7971
L79.8776 25.3133
" />
<path d="M79.8776 25.3133
L79.8171 25.1924
" />
<path d="M79.8171 25.1924
L79.7566 25.1319
" />
<path d="M79.7566 25.1319
L79.6357 25.0714
" />
<path d="M79.6357 25.0714
L79.3938 25.0714
" />
<path d="M79.3938 25.0714
L79.2728 25.1319
" />
<path d="M79.2728 25.1319
L79.2123 25.1924
" />
<path d="M79.2123 25.1924
L79.1519 25.3133
" />
<path d="M79.1519 25.3133
L79.1519 25.6157
" />
<path d="M79.1519 25.6157
L79.2123 25.7367
" />
<path d="M79.2123 25.7367
L79.2728 25.7971
" />
<path d="M79.2728 25.7971
L79.3938 25.8576
" />
<path d="M79.3938 25.8576
L79.6357 25.8576
" />
<path d="M79.6357 25.8576
L79.7566 25.7971
" />
<path d="M79.7566 25.7971
L79.8171 25.7367
" />
<path d="M79.8171 25.7367
L79.8776 25.6157
" />
</g></g>
<g style="fill:#000000; fill-opacity:0.0; 
stroke:#000000; stroke-width:0.1588; stroke-opacity:1; 
stroke-linecap:round; stroke-linejoin:round;">
<text x="84.5439" y="21.6789"
textLength="2.6415" font-size="1.6933" lengthAdjust="spacingAndGlyphs"
text-anchor="middle" opacity="0">U?</text>
<g class="stroked-text"><desc>U?</desc>
<path d="M83.6367 20.3531
L83.6367 21.3812
" />
<path d="M83.6367 21.3812
L83.6972 21.5022
" />
<path d="M83.6972 21.5022
L83.7577 21.5627
" />
<path d="M83.7577 21.5627
L83.8786 21.6231
" />
<path d="M83.8786 21.6231
L84.1205 21.6231
" />
<path d="M84.1205 21.6231
L84.2415 21.5627
" />
<path d="M84.2415 21.5627
L84.3020 21.5022
" />
<path d="M84.3020 21.5022
L84.3624 21.3812
" />
<path d="M84.3624 21.3812
L84.3624 20.3531
" />
<path d="M85.1487 21.5022
L85.2091 21.5627
" />
<path d="M85.2091 21.5627
L85.1487 21.6231
" />
<path d="M85.1487 21.6231
L85.0882 21.5627
" />
<path d="M85.0882 21.5627
L85.1487 21.5022
" />
<path d="M85.1487 21.5022
L85.1487 21.6231
" />
<path d="M84.9068 20.4136
L85.0277 20.3531
" />
<path d="M85.0277 20.3531
L85.3301 20.3531
" />
<path d="M85.3301 20.3531
L85.4510 20.4136
" />
<path d="M85.4510 20.4136
L85.5115 20.5346
" />
<path d="M85.5115 20.5346
L85.5115 20.6555
" />
<path d="M85.5115 20.6555
L85.4510 20.7765
" />
<path d="M85.4510 20.7765
L85.3906 20.8369
" />
<path d="M85.3906 20.8369
L85.2696 20.8974
" />
<path d="M85.2696 20.8974
L85.2091 20.9579
" />
<path d="M85.2091 20.9579
L85.1487 21.0788
" />
<path d="M85.1487 21.0788
L85.1487 21.1393
" />
</g><text x="82.0645" y="23.5839"
textLength="7.6004" font-size="1.6933" lengthAdjust="spacingAndGlyphs"
text-anchor="middle" opacity="0">CP2104</text>
<g class="stroked-text"><desc>CP2104</desc>
<path d="M79.4035 23.4072
L79.3431 23.4677
" />
<path d="M79.3431 23.4677
L79.1616 23.5281
" />
<path d="M79.1616 23.5281
L79.0407 23.5281
" />
<path d="M79.0407 23.5281
L78.8593 23.4677
" />
<path d="M78.8593 23.4677
L78.7383 23.3467
" />
<path d="M78.7383 23.3467
L78.6778 23.2257
" />
<path d="M78.6778 23.2257
L78.6174 22.9838
" />
<path d="M78.6174 22.9838
L78.6174 22.8024
" />
<path d="M78.6174 22.8024
L78.6778 22.5605
" />
<path d="M78.6778 22.5605
L78.7383 22.4396
" />
<path d="M78.7383 22.4396
L78.8593 22.3186
" />
<path d="M78.8593 22.3186
L79.0407 22.2581
" />
<path d="M79.0407 22.2581
L79.1616 22.2581
" />
<path d="M79.1616 22.2581
L79.3431 22.3186
" />
<path d="M79.3431 22.3186
L79.4035 22.3791
" />
<path d="M79.9478 23.5281
L79.9478 22.2581
" />
<path d="M79.9478 22.2581
L80.4316 22.2581
" />
<path d="M80.4316 22.2581
L80.5526 22.3186
" />
<path d="M80.5526 22.3186
L80.6131 22.3791
" />
<path d="M80.6131 22.3791
L80.6735 22.5000
" />
<path d="M80.6735 22.5000
L80.6735 22.6815
" />
<path d="M80.6735 22.6815
L80.6131 22.8024
" />
<path d="M80.6131 22.8024
L80.5526 22.8629
" />
<path d="M80.5526 22.8629
L80.4316 22.9234
" />
<path d="M80.4316 22.9234
L79.9478 22.9234
" />
<path d="M81.1574 22.3791
L81.2178 22.3186
" />
<path d="M81.2178 22.3186
L81.3388 22.2581
" />
<path d="M81.3388 22.2581
L81.6412 22.2581
" />
<path d="M81.6412 22.2581
L81.7621 22.3186
" />
<path d="M81.7621 22.3186
L81.8226 22.3791
" />
<path d="M81.8226 22.3791
L81.8831 22.5000
" />
<path d="M81.8831 22.5000
L81.8831 22.6210
" />
<path d="M81.8831 22.6210
L81.8226 22.8024
" />
<path d="M81.8226 22.8024
L81.0969 23.5281
" />
<path d="M81.0969 23.5281
L81.8831 23.5281
" />
<path d="M83.0926 23.5281
L82.3669 23.5281
" />
<path d="M82.7297 23.5281
L82.7297 22.2581
" />
<path d="M82.7297 22.2581
L82.6088 22.4396
" />
<path d="M82.6088 22.4396
L82.4878 22.5605
" />
<path d="M82.4878 22.5605
L82.3669 22.6210
" />
<path d="M83.8787 22.2581
L83.9997 22.2581
" />
<path d="M83.9997 22.2581
L84.1206 22.3186
" />
<path d="M84.1206 22.3186
L84.1811 22.3791
" />
<path d="M84.1811 22.3791
L84.2416 22.5000
" />
<path d="M84.2416 22.5000
L84.3021 22.7419
" />
<path d="M84.3021 22.7419
L84.3021 23.0443
" />
<path d="M84.3021 23.0443
L84.2416 23.2862
" />
<path d="M84.2416 23.2862
L84.1811 23.4072
" />
<path d="M84.1811 23.4072
L84.1206 23.4677
" />
<path d="M84.1206 23.4677
L83.9997 23.5281
" />
<path d="M83.9997 23.5281
L83.8787 23.5281
" />
<path d="M83.8787 23.5281
L83.7578 23.4677
" />
<path d="M83.7578 23.4677
L83.6973 23.4072
" />
<path d="M83.6973 23.4072
L83.6368 23.2862
" />
<path d="M83.6368 23.2862
L83.5764 23.0443
" />
<path d="M83.5764 23.0443
L83.5764 22.7419
" />
<path d="M83.5764 22.7419
L83.6368 22.5000
" />
<path d="M83.6368 22.5000
L83.6973 22.3791
" />
<path d="M83.6973 22.3791
L83.7578 22.3186
" />
<path d="M83.7578 22.3186
L83.8787 22.2581
" />
<path d="M85.3906 22.6815
L85.3906 23.5281
" />
<path d="M85.0882 22.1977
L84.7859 23.1048
" />
<path d="M84.7859 23.1048
L85.5720 23.1048
" />
</g></g> 
</svg>
