<?xml version="1.0" standalone="no"?>
 <!DOCTYPE svg PUBLIC "-//W3C//DTD SVG 1.1//EN" 
 "http://www.w3.org/Graphics/SVG/1.1/DTD/svg11.dtd"> 
<svg
  xmlns:svg="http://www.w3.org/2000/svg"
  xmlns="http://www.w3.org/2000/svg"
  xmlns:xlink="http://www.w3.org/1999/xlink"
  version="1.1"
  width="91.6940mm" height="10.8458mm" viewBox="0.0000 0.0000 91.6940 10.8458">
<title>SVG Image created as ss38.svg date 2024/01/16 15:18:29 </title>
  <desc>Image generated by Eeschema-SVG </desc>
<g style="fill:#000000; fill-opacity:1.0000;stroke:#000000; stroke-opacity:1.0000;
stroke-linecap:round; stroke-linejoin:round;"
 transform="translate(0 0) scale(1 1)">
</g>
<g style="fill:#000000; fill-opacity:0.0; 
stroke:#000000; stroke-width:0.0000; stroke-opacity:1; 
stroke-linecap:round; stroke-linejoin:round;">
</g>
<g style="fill:#000000; fill-opacity:0.0; 
stroke:#000000; stroke-width:0.1524; stroke-opacity:1; 
stroke-linecap:round; stroke-linejoin:round;">
<path style="fill:#000000; fill-opacity:0.0; 
stroke:#000000; stroke-width:0.1524; stroke-opacity:1; 
stroke-linecap:round; stroke-linejoin:round;fill:none"
d="M 47.1170,5.4229
44.5770,5.4229
" /> 
</g>
<g style="fill:#000000; fill-opacity:0.0; 
stroke:#000000; stroke-width:0.2540; stroke-opacity:1; 
stroke-linecap:round; stroke-linejoin:round;">
<path style="fill:#000000; fill-opacity:0.0; 
stroke:#000000; stroke-width:0.2540; stroke-opacity:1; 
stroke-linecap:round; stroke-linejoin:round;fill:none"
d="M 47.1170,4.1529
47.1170,6.6929
44.5770,5.4229
Z" /> 
<path style="fill:#000000; fill-opacity:0.0; 
stroke:#000000; stroke-width:0.2540; stroke-opacity:1; 
stroke-linecap:round; stroke-linejoin:round;fill:none"
d="M 43.9420,4.7879
43.9420,4.1529
44.5770,4.1529
44.5770,6.6929
45.2120,6.6929
45.2120,6.0579
" /> 
</g>
<g style="fill:#000000; fill-opacity:0.0; 
stroke:#000000; stroke-width:0.1524; stroke-opacity:1; 
stroke-linecap:round; stroke-linejoin:round;">
<path d="M44.5770 5.4229
L42.0370 5.4229
" />
<path d="M47.1170 5.4229
L49.6570 5.4229
" />
</g>
<g style="fill:#000000; fill-opacity:0.0; 
stroke:#000000; stroke-width:0.1588; stroke-opacity:1; 
stroke-linecap:round; stroke-linejoin:round;">
<text x="45.8470" y="3.5179"
textLength="2.5810" font-size="1.6933" lengthAdjust="spacingAndGlyphs"
text-anchor="middle" opacity="0">D?</text>
<g class="stroked-text"><desc>D?</desc>
<path d="M44.9700 3.4621
L44.9700 2.1921
" />
<path d="M44.9700 2.1921
L45.2724 2.1921
" />
<path d="M45.2724 2.1921
L45.4538 2.2526
" />
<path d="M45.4538 2.2526
L45.5748 2.3736
" />
<path d="M45.5748 2.3736
L45.6353 2.4945
" />
<path d="M45.6353 2.4945
L45.6957 2.7364
" />
<path d="M45.6957 2.7364
L45.6957 2.9178
" />
<path d="M45.6957 2.9178
L45.6353 3.1597
" />
<path d="M45.6353 3.1597
L45.5748 3.2807
" />
<path d="M45.5748 3.2807
L45.4538 3.4017
" />
<path d="M45.4538 3.4017
L45.2724 3.4621
" />
<path d="M45.2724 3.4621
L44.9700 3.4621
" />
<path d="M46.4215 3.3412
L46.4819 3.4017
" />
<path d="M46.4819 3.4017
L46.4215 3.4621
" />
<path d="M46.4215 3.4621
L46.3610 3.4017
" />
<path d="M46.3610 3.4017
L46.4215 3.3412
" />
<path d="M46.4215 3.3412
L46.4215 3.4621
" />
<path d="M46.1796 2.2526
L46.3005 2.1921
" />
<path d="M46.3005 2.1921
L46.6029 2.1921
" />
<path d="M46.6029 2.1921
L46.7238 2.2526
" />
<path d="M46.7238 2.2526
L46.7843 2.3736
" />
<path d="M46.7843 2.3736
L46.7843 2.4945
" />
<path d="M46.7843 2.4945
L46.7238 2.6155
" />
<path d="M46.7238 2.6155
L46.6634 2.6759
" />
<path d="M46.6634 2.6759
L46.5424 2.7364
" />
<path d="M46.5424 2.7364
L46.4819 2.7969
" />
<path d="M46.4819 2.7969
L46.4215 2.9178
" />
<path d="M46.4215 2.9178
L46.4215 2.9783
" />
</g><text x="45.8470" y="8.5979"
textLength="5.0604" font-size="1.6933" lengthAdjust="spacingAndGlyphs"
text-anchor="middle" opacity="0">SS38</text>
<g class="stroked-text"><desc>SS38</desc>
<path d="M43.6699 8.4817
L43.8513 8.5421
" />
<path d="M43.8513 8.5421
L44.1537 8.5421
" />
<path d="M44.1537 8.5421
L44.2746 8.4817
" />
<path d="M44.2746 8.4817
L44.3351 8.4212
" />
<path d="M44.3351 8.4212
L44.3956 8.3002
" />
<path d="M44.3956 8.3002
L44.3956 8.1793
" />
<path d="M44.3956 8.1793
L44.3351 8.0583
" />
<path d="M44.3351 8.0583
L44.2746 7.9978
" />
<path d="M44.2746 7.9978
L44.1537 7.9374
" />
<path d="M44.1537 7.9374
L43.9118 7.8769
" />
<path d="M43.9118 7.8769
L43.7908 7.8164
" />
<path d="M43.7908 7.8164
L43.7303 7.7559
" />
<path d="M43.7303 7.7559
L43.6699 7.6350
" />
<path d="M43.6699 7.6350
L43.6699 7.5140
" />
<path d="M43.6699 7.5140
L43.7303 7.3931
" />
<path d="M43.7303 7.3931
L43.7908 7.3326
" />
<path d="M43.7908 7.3326
L43.9118 7.2721
" />
<path d="M43.9118 7.2721
L44.2141 7.2721
" />
<path d="M44.2141 7.2721
L44.3956 7.3326
" />
<path d="M44.8794 8.4817
L45.0608 8.5421
" />
<path d="M45.0608 8.5421
L45.3632 8.5421
" />
<path d="M45.3632 8.5421
L45.4841 8.4817
" />
<path d="M45.4841 8.4817
L45.5446 8.4212
" />
<path d="M45.5446 8.4212
L45.6051 8.3002
" />
<path d="M45.6051 8.3002
L45.6051 8.1793
" />
<path d="M45.6051 8.1793
L45.5446 8.0583
" />
<path d="M45.5446 8.0583
L45.4841 7.9978
" />
<path d="M45.4841 7.9978
L45.3632 7.9374
" />
<path d="M45.3632 7.9374
L45.1213 7.8769
" />
<path d="M45.1213 7.8769
L45.0003 7.8164
" />
<path d="M45.0003 7.8164
L44.9398 7.7559
" />
<path d="M44.9398 7.7559
L44.8794 7.6350
" />
<path d="M44.8794 7.6350
L44.8794 7.5140
" />
<path d="M44.8794 7.5140
L44.9398 7.3931
" />
<path d="M44.9398 7.3931
L45.0003 7.3326
" />
<path d="M45.0003 7.3326
L45.1213 7.2721
" />
<path d="M45.1213 7.2721
L45.4236 7.2721
" />
<path d="M45.4236 7.2721
L45.6051 7.3326
" />
<path d="M46.0284 7.2721
L46.8146 7.2721
" />
<path d="M46.8146 7.2721
L46.3912 7.7559
" />
<path d="M46.3912 7.7559
L46.5727 7.7559
" />
<path d="M46.5727 7.7559
L46.6936 7.8164
" />
<path d="M46.6936 7.8164
L46.7541 7.8769
" />
<path d="M46.7541 7.8769
L46.8146 7.9978
" />
<path d="M46.8146 7.9978
L46.8146 8.3002
" />
<path d="M46.8146 8.3002
L46.7541 8.4212
" />
<path d="M46.7541 8.4212
L46.6936 8.4817
" />
<path d="M46.6936 8.4817
L46.5727 8.5421
" />
<path d="M46.5727 8.5421
L46.2098 8.5421
" />
<path d="M46.2098 8.5421
L46.0889 8.4817
" />
<path d="M46.0889 8.4817
L46.0284 8.4212
" />
<path d="M47.5403 7.8164
L47.4193 7.7559
" />
<path d="M47.4193 7.7559
L47.3588 7.6955
" />
<path d="M47.3588 7.6955
L47.2984 7.5745
" />
<path d="M47.2984 7.5745
L47.2984 7.5140
" />
<path d="M47.2984 7.5140
L47.3588 7.3931
" />
<path d="M47.3588 7.3931
L47.4193 7.3326
" />
<path d="M47.4193 7.3326
L47.5403 7.2721
" />
<path d="M47.5403 7.2721
L47.7822 7.2721
" />
<path d="M47.7822 7.2721
L47.9031 7.3326
" />
<path d="M47.9031 7.3326
L47.9636 7.3931
" />
<path d="M47.9636 7.3931
L48.0241 7.5140
" />
<path d="M48.0241 7.5140
L48.0241 7.5745
" />
<path d="M48.0241 7.5745
L47.9636 7.6955
" />
<path d="M47.9636 7.6955
L47.9031 7.7559
" />
<path d="M47.9031 7.7559
L47.7822 7.8164
" />
<path d="M47.7822 7.8164
L47.5403 7.8164
" />
<path d="M47.5403 7.8164
L47.4193 7.8769
" />
<path d="M47.4193 7.8769
L47.3588 7.9374
" />
<path d="M47.3588 7.9374
L47.2984 8.0583
" />
<path d="M47.2984 8.0583
L47.2984 8.3002
" />
<path d="M47.2984 8.3002
L47.3588 8.4212
" />
<path d="M47.3588 8.4212
L47.4193 8.4817
" />
<path d="M47.4193 8.4817
L47.5403 8.5421
" />
<path d="M47.5403 8.5421
L47.7822 8.5421
" />
<path d="M47.7822 8.5421
L47.9031 8.4817
" />
<path d="M47.9031 8.4817
L47.9636 8.4212
" />
<path d="M47.9636 8.4212
L48.0241 8.3002
" />
<path d="M48.0241 8.3002
L48.0241 8.0583
" />
<path d="M48.0241 8.0583
L47.9636 7.9374
" />
<path d="M47.9636 7.9374
L47.9031 7.8769
" />
<path d="M47.9031 7.8769
L47.7822 7.8164
" />
</g></g> 
</svg>
