<?xml version="1.0" standalone="no"?>
 <!DOCTYPE svg PUBLIC "-//W3C//DTD SVG 1.1//EN" 
 "http://www.w3.org/Graphics/SVG/1.1/DTD/svg11.dtd"> 
<svg
  xmlns:svg="http://www.w3.org/2000/svg"
  xmlns="http://www.w3.org/2000/svg"
  xmlns:xlink="http://www.w3.org/1999/xlink"
  version="1.1"
  width="66.0146mm" height="10.8458mm" viewBox="0.0000 0.0000 66.0146 10.8458">
<title>SVG Image created as stth212s.svg date 2024/01/16 15:18:29 </title>
  <desc>Image generated by Eeschema-SVG </desc>
<g style="fill:#000000; fill-opacity:1.0000;stroke:#000000; stroke-opacity:1.0000;
stroke-linecap:round; stroke-linejoin:round;"
 transform="translate(0 0) scale(1 1)">
</g>
<g style="fill:#000000; fill-opacity:0.0; 
stroke:#000000; stroke-width:0.0000; stroke-opacity:1; 
stroke-linecap:round; stroke-linejoin:round;">
</g>
<g style="fill:#000000; fill-opacity:0.0; 
stroke:#000000; stroke-width:0.2540; stroke-opacity:1; 
stroke-linecap:round; stroke-linejoin:round;">
<path style="fill:#000000; fill-opacity:0.0; 
stroke:#000000; stroke-width:0.2540; stroke-opacity:1; 
stroke-linecap:round; stroke-linejoin:round;fill:none"
d="M 31.7373,4.1529
31.7373,6.6929
" /> 
</g>
<g style="fill:#000000; fill-opacity:0.0; 
stroke:#000000; stroke-width:0.1524; stroke-opacity:1; 
stroke-linecap:round; stroke-linejoin:round;">
<path style="fill:#000000; fill-opacity:0.0; 
stroke:#000000; stroke-width:0.1524; stroke-opacity:1; 
stroke-linecap:round; stroke-linejoin:round;fill:none"
d="M 34.2773,5.4229
31.7373,5.4229
" /> 
</g>
<g style="fill:#000000; fill-opacity:0.0; 
stroke:#000000; stroke-width:0.2540; stroke-opacity:1; 
stroke-linecap:round; stroke-linejoin:round;">
<path style="fill:#000000; fill-opacity:0.0; 
stroke:#000000; stroke-width:0.2540; stroke-opacity:1; 
stroke-linecap:round; stroke-linejoin:round;fill:none"
d="M 34.2773,4.1529
34.2773,6.6929
31.7373,5.4229
Z" /> 
</g>
<g style="fill:#000000; fill-opacity:0.0; 
stroke:#000000; stroke-width:0.1524; stroke-opacity:1; 
stroke-linecap:round; stroke-linejoin:round;">
<path d="M31.7373 5.4229
L29.1973 5.4229
" />
<path d="M34.2773 5.4229
L36.8173 5.4229
" />
</g>
<g style="fill:#000000; fill-opacity:0.0; 
stroke:#000000; stroke-width:0.1588; stroke-opacity:1; 
stroke-linecap:round; stroke-linejoin:round;">
<text x="33.0073" y="3.5179"
textLength="2.5810" font-size="1.6933" lengthAdjust="spacingAndGlyphs"
text-anchor="middle" opacity="0">D?</text>
<g class="stroked-text"><desc>D?</desc>
<path d="M32.1303 3.4621
L32.1303 2.1921
" />
<path d="M32.1303 2.1921
L32.4327 2.1921
" />
<path d="M32.4327 2.1921
L32.6141 2.2526
" />
<path d="M32.6141 2.2526
L32.7351 2.3736
" />
<path d="M32.7351 2.3736
L32.7956 2.4945
" />
<path d="M32.7956 2.4945
L32.8560 2.7364
" />
<path d="M32.8560 2.7364
L32.8560 2.9178
" />
<path d="M32.8560 2.9178
L32.7956 3.1597
" />
<path d="M32.7956 3.1597
L32.7351 3.2807
" />
<path d="M32.7351 3.2807
L32.6141 3.4017
" />
<path d="M32.6141 3.4017
L32.4327 3.4621
" />
<path d="M32.4327 3.4621
L32.1303 3.4621
" />
<path d="M33.5818 3.3412
L33.6422 3.4017
" />
<path d="M33.6422 3.4017
L33.5818 3.4621
" />
<path d="M33.5818 3.4621
L33.5213 3.4017
" />
<path d="M33.5213 3.4017
L33.5818 3.3412
" />
<path d="M33.5818 3.3412
L33.5818 3.4621
" />
<path d="M33.3399 2.2526
L33.4608 2.1921
" />
<path d="M33.4608 2.1921
L33.7632 2.1921
" />
<path d="M33.7632 2.1921
L33.8841 2.2526
" />
<path d="M33.8841 2.2526
L33.9446 2.3736
" />
<path d="M33.9446 2.3736
L33.9446 2.4945
" />
<path d="M33.9446 2.4945
L33.8841 2.6155
" />
<path d="M33.8841 2.6155
L33.8237 2.6759
" />
<path d="M33.8237 2.6759
L33.7027 2.7364
" />
<path d="M33.7027 2.7364
L33.6422 2.7969
" />
<path d="M33.6422 2.7969
L33.5818 2.9178
" />
<path d="M33.5818 2.9178
L33.5818 2.9783
" />
</g><text x="33.0073" y="8.5979"
textLength="9.5356" font-size="1.6933" lengthAdjust="spacingAndGlyphs"
text-anchor="middle" opacity="0">STTH212S</text>
<g class="stroked-text"><desc>STTH212S</desc>
<path d="M28.5926 8.4817
L28.7740 8.5421
" />
<path d="M28.7740 8.5421
L29.0764 8.5421
" />
<path d="M29.0764 8.5421
L29.1973 8.4817
" />
<path d="M29.1973 8.4817
L29.2578 8.4212
" />
<path d="M29.2578 8.4212
L29.3183 8.3002
" />
<path d="M29.3183 8.3002
L29.3183 8.1793
" />
<path d="M29.3183 8.1793
L29.2578 8.0583
" />
<path d="M29.2578 8.0583
L29.1973 7.9978
" />
<path d="M29.1973 7.9978
L29.0764 7.9374
" />
<path d="M29.0764 7.9374
L28.8345 7.8769
" />
<path d="M28.8345 7.8769
L28.7135 7.8164
" />
<path d="M28.7135 7.8164
L28.6530 7.7559
" />
<path d="M28.6530 7.7559
L28.5926 7.6350
" />
<path d="M28.5926 7.6350
L28.5926 7.5140
" />
<path d="M28.5926 7.5140
L28.6530 7.3931
" />
<path d="M28.6530 7.3931
L28.7135 7.3326
" />
<path d="M28.7135 7.3326
L28.8345 7.2721
" />
<path d="M28.8345 7.2721
L29.1368 7.2721
" />
<path d="M29.1368 7.2721
L29.3183 7.3326
" />
<path d="M29.6811 7.2721
L30.4068 7.2721
" />
<path d="M30.0440 8.5421
L30.0440 7.2721
" />
<path d="M30.6487 7.2721
L31.3744 7.2721
" />
<path d="M31.0116 8.5421
L31.0116 7.2721
" />
<path d="M31.7977 8.5421
L31.7977 7.2721
" />
<path d="M31.7977 7.8769
L32.5234 7.8769
" />
<path d="M32.5234 8.5421
L32.5234 7.2721
" />
<path d="M33.0678 7.3931
L33.1282 7.3326
" />
<path d="M33.1282 7.3326
L33.2492 7.2721
" />
<path d="M33.2492 7.2721
L33.5516 7.2721
" />
<path d="M33.5516 7.2721
L33.6725 7.3326
" />
<path d="M33.6725 7.3326
L33.7330 7.3931
" />
<path d="M33.7330 7.3931
L33.7935 7.5140
" />
<path d="M33.7935 7.5140
L33.7935 7.6350
" />
<path d="M33.7935 7.6350
L33.7330 7.8164
" />
<path d="M33.7330 7.8164
L33.0073 8.5421
" />
<path d="M33.0073 8.5421
L33.7935 8.5421
" />
<path d="M35.0030 8.5421
L34.2773 8.5421
" />
<path d="M34.6401 8.5421
L34.6401 7.2721
" />
<path d="M34.6401 7.2721
L34.5192 7.4536
" />
<path d="M34.5192 7.4536
L34.3982 7.5745
" />
<path d="M34.3982 7.5745
L34.2773 7.6350
" />
<path d="M35.4868 7.3931
L35.5472 7.3326
" />
<path d="M35.5472 7.3326
L35.6682 7.2721
" />
<path d="M35.6682 7.2721
L35.9706 7.2721
" />
<path d="M35.9706 7.2721
L36.0915 7.3326
" />
<path d="M36.0915 7.3326
L36.1520 7.3931
" />
<path d="M36.1520 7.3931
L36.2125 7.5140
" />
<path d="M36.2125 7.5140
L36.2125 7.6350
" />
<path d="M36.2125 7.6350
L36.1520 7.8164
" />
<path d="M36.1520 7.8164
L35.4263 8.5421
" />
<path d="M35.4263 8.5421
L36.2125 8.5421
" />
<path d="M36.6963 8.4817
L36.8777 8.5421
" />
<path d="M36.8777 8.5421
L37.1801 8.5421
" />
<path d="M37.1801 8.5421
L37.3010 8.4817
" />
<path d="M37.3010 8.4817
L37.3615 8.4212
" />
<path d="M37.3615 8.4212
L37.4220 8.3002
" />
<path d="M37.4220 8.3002
L37.4220 8.1793
" />
<path d="M37.4220 8.1793
L37.3615 8.0583
" />
<path d="M37.3615 8.0583
L37.3010 7.9978
" />
<path d="M37.3010 7.9978
L37.1801 7.9374
" />
<path d="M37.1801 7.9374
L36.9382 7.8769
" />
<path d="M36.9382 7.8769
L36.8172 7.8164
" />
<path d="M36.8172 7.8164
L36.7567 7.7559
" />
<path d="M36.7567 7.7559
L36.6963 7.6350
" />
<path d="M36.6963 7.6350
L36.6963 7.5140
" />
<path d="M36.6963 7.5140
L36.7567 7.3931
" />
<path d="M36.7567 7.3931
L36.8172 7.3326
" />
<path d="M36.8172 7.3326
L36.9382 7.2721
" />
<path d="M36.9382 7.2721
L37.2405 7.2721
" />
<path d="M37.2405 7.2721
L37.4220 7.3326
" />
</g></g> 
</svg>
