<?xml version="1.0" standalone="no"?>
 <!DOCTYPE svg PUBLIC "-//W3C//DTD SVG 1.1//EN" 
 "http://www.w3.org/Graphics/SVG/1.1/DTD/svg11.dtd"> 
<svg
  xmlns:svg="http://www.w3.org/2000/svg"
  xmlns="http://www.w3.org/2000/svg"
  xmlns:xlink="http://www.w3.org/1999/xlink"
  version="1.1"
  width="17.1196mm" height="9.4742mm" viewBox="0.0000 0.0000 17.1196 9.4742">
<title>SVG Image created as c_polarized.svg date 2024/01/16 15:18:28 </title>
  <desc>Image generated by Eeschema-SVG </desc>
<g style="fill:#000000; fill-opacity:1.0000;stroke:#000000; stroke-opacity:1.0000;
stroke-linecap:round; stroke-linejoin:round;"
 transform="translate(0 0) scale(1 1)">
</g>
<g style="fill:#000000; fill-opacity:0.0; 
stroke:#000000; stroke-width:0.0000; stroke-opacity:1; 
stroke-linecap:round; stroke-linejoin:round;">
</g>
<g style="fill:#000000; fill-opacity:0.0; 
stroke:#000000; stroke-width:0.1524; stroke-opacity:1; 
stroke-linecap:round; stroke-linejoin:round;">
<rect x="6.273800" y="3.721100" width="4.572000" height="0.508000" rx="0.000000" />
<path style="fill:#000000; fill-opacity:0.0; 
stroke:#000000; stroke-width:0.1524; stroke-opacity:1; 
stroke-linecap:round; stroke-linejoin:round;fill:none"
d="M 6.7818,2.4511
7.7978,2.4511
" /> 
<path style="fill:#000000; fill-opacity:0.0; 
stroke:#000000; stroke-width:0.1524; stroke-opacity:1; 
stroke-linecap:round; stroke-linejoin:round;fill:none"
d="M 7.2898,1.9431
7.2898,2.9591
" /> 
</g>
<g style="fill:#000000; fill-opacity:1.0000; 
stroke:#000000; stroke-width:0.1524; stroke-opacity:1; 
stroke-linecap:round; stroke-linejoin:round;">
<rect x="6.273800" y="5.245100" width="4.572000" height="0.508000" rx="0.000000" />
</g>
<g style="fill:#000000; fill-opacity:0.0; 
stroke:#000000; stroke-width:0.1524; stroke-opacity:1; 
stroke-linecap:round; stroke-linejoin:round;">
<path d="M8.5598 3.7211
L8.5598 0.9271
" />
<path d="M8.5598 5.7531
L8.5598 8.5471
" />
</g>
<g style="fill:#000000; fill-opacity:0.0; 
stroke:#000000; stroke-width:0.1588; stroke-opacity:1; 
stroke-linecap:round; stroke-linejoin:round;">
<text x="10.4853" y="2.8321"
textLength="2.5810" font-size="1.6933" lengthAdjust="spacingAndGlyphs"
text-anchor="middle" opacity="0">C?</text>
<g class="stroked-text"><desc>C?</desc>
<path d="M10.3340 2.6554
L10.2736 2.7159
" />
<path d="M10.2736 2.7159
L10.0921 2.7763
" />
<path d="M10.0921 2.7763
L9.9712 2.7763
" />
<path d="M9.9712 2.7763
L9.7898 2.7159
" />
<path d="M9.7898 2.7159
L9.6688 2.5949
" />
<path d="M9.6688 2.5949
L9.6083 2.4739
" />
<path d="M9.6083 2.4739
L9.5479 2.2320
" />
<path d="M9.5479 2.2320
L9.5479 2.0506
" />
<path d="M9.5479 2.0506
L9.6083 1.8087
" />
<path d="M9.6083 1.8087
L9.6688 1.6878
" />
<path d="M9.6688 1.6878
L9.7898 1.5668
" />
<path d="M9.7898 1.5668
L9.9712 1.5063
" />
<path d="M9.9712 1.5063
L10.0921 1.5063
" />
<path d="M10.0921 1.5063
L10.2736 1.5668
" />
<path d="M10.2736 1.5668
L10.3340 1.6273
" />
<path d="M11.0598 2.6554
L11.1202 2.7159
" />
<path d="M11.1202 2.7159
L11.0598 2.7763
" />
<path d="M11.0598 2.7763
L10.9993 2.7159
" />
<path d="M10.9993 2.7159
L11.0598 2.6554
" />
<path d="M11.0598 2.6554
L11.0598 2.7763
" />
<path d="M10.8179 1.5668
L10.9388 1.5063
" />
<path d="M10.9388 1.5063
L11.2412 1.5063
" />
<path d="M11.2412 1.5063
L11.3621 1.5668
" />
<path d="M11.3621 1.5668
L11.4226 1.6878
" />
<path d="M11.4226 1.6878
L11.4226 1.8087
" />
<path d="M11.4226 1.8087
L11.3621 1.9297
" />
<path d="M11.3621 1.9297
L11.3017 1.9901
" />
<path d="M11.3017 1.9901
L11.1807 2.0506
" />
<path d="M11.1807 2.0506
L11.1202 2.1111
" />
<path d="M11.1202 2.1111
L11.0598 2.2320
" />
<path d="M11.0598 2.2320
L11.0598 2.2925
" />
</g><text x="14.8697" y="7.9121"
textLength="11.3499" font-size="1.6933" lengthAdjust="spacingAndGlyphs"
text-anchor="middle" opacity="0">C_Polarized</text>
<g class="stroked-text"><desc>C_Polarized</desc>
<path d="M10.3340 7.7354
L10.2736 7.7959
" />
<path d="M10.2736 7.7959
L10.0921 7.8563
" />
<path d="M10.0921 7.8563
L9.9712 7.8563
" />
<path d="M9.9712 7.8563
L9.7898 7.7959
" />
<path d="M9.7898 7.7959
L9.6688 7.6749
" />
<path d="M9.6688 7.6749
L9.6083 7.5539
" />
<path d="M9.6083 7.5539
L9.5479 7.3120
" />
<path d="M9.5479 7.3120
L9.5479 7.1306
" />
<path d="M9.5479 7.1306
L9.6083 6.8887
" />
<path d="M9.6083 6.8887
L9.6688 6.7678
" />
<path d="M9.6688 6.7678
L9.7898 6.6468
" />
<path d="M9.7898 6.6468
L9.9712 6.5863
" />
<path d="M9.9712 6.5863
L10.0921 6.5863
" />
<path d="M10.0921 6.5863
L10.2736 6.6468
" />
<path d="M10.2736 6.6468
L10.3340 6.7073
" />
<path d="M10.5760 7.9773
L11.5436 7.9773
" />
<path d="M11.8459 7.8563
L11.8459 6.5863
" />
<path d="M11.8459 6.5863
L12.3297 6.5863
" />
<path d="M12.3297 6.5863
L12.4507 6.6468
" />
<path d="M12.4507 6.6468
L12.5112 6.7073
" />
<path d="M12.5112 6.7073
L12.5716 6.8282
" />
<path d="M12.5716 6.8282
L12.5716 7.0097
" />
<path d="M12.5716 7.0097
L12.5112 7.1306
" />
<path d="M12.5112 7.1306
L12.4507 7.1911
" />
<path d="M12.4507 7.1911
L12.3297 7.2516
" />
<path d="M12.3297 7.2516
L11.8459 7.2516
" />
<path d="M13.2974 7.8563
L13.1764 7.7959
" />
<path d="M13.1764 7.7959
L13.1159 7.7354
" />
<path d="M13.1159 7.7354
L13.0555 7.6144
" />
<path d="M13.0555 7.6144
L13.0555 7.2516
" />
<path d="M13.0555 7.2516
L13.1159 7.1306
" />
<path d="M13.1159 7.1306
L13.1764 7.0701
" />
<path d="M13.1764 7.0701
L13.2974 7.0097
" />
<path d="M13.2974 7.0097
L13.4788 7.0097
" />
<path d="M13.4788 7.0097
L13.5997 7.0701
" />
<path d="M13.5997 7.0701
L13.6602 7.1306
" />
<path d="M13.6602 7.1306
L13.7207 7.2516
" />
<path d="M13.7207 7.2516
L13.7207 7.6144
" />
<path d="M13.7207 7.6144
L13.6602 7.7354
" />
<path d="M13.6602 7.7354
L13.5997 7.7959
" />
<path d="M13.5997 7.7959
L13.4788 7.8563
" />
<path d="M13.4788 7.8563
L13.2974 7.8563
" />
<path d="M14.4464 7.8563
L14.3254 7.7959
" />
<path d="M14.3254 7.7959
L14.2649 7.6749
" />
<path d="M14.2649 7.6749
L14.2649 6.5863
" />
<path d="M15.4744 7.8563
L15.4744 7.1911
" />
<path d="M15.4744 7.1911
L15.4139 7.0701
" />
<path d="M15.4139 7.0701
L15.2930 7.0097
" />
<path d="M15.2930 7.0097
L15.0511 7.0097
" />
<path d="M15.0511 7.0097
L14.9301 7.0701
" />
<path d="M15.4744 7.7959
L15.3535 7.8563
" />
<path d="M15.3535 7.8563
L15.0511 7.8563
" />
<path d="M15.0511 7.8563
L14.9301 7.7959
" />
<path d="M14.9301 7.7959
L14.8697 7.6749
" />
<path d="M14.8697 7.6749
L14.8697 7.5539
" />
<path d="M14.8697 7.5539
L14.9301 7.4330
" />
<path d="M14.9301 7.4330
L15.0511 7.3725
" />
<path d="M15.0511 7.3725
L15.3535 7.3725
" />
<path d="M15.3535 7.3725
L15.4744 7.3120
" />
<path d="M16.0791 7.8563
L16.0791 7.0097
" />
<path d="M16.0791 7.2516
L16.1396 7.1306
" />
<path d="M16.1396 7.1306
L16.2001 7.0701
" />
<path d="M16.2001 7.0701
L16.3210 7.0097
" />
<path d="M16.3210 7.0097
L16.4420 7.0097
" />
<path d="M16.8653 7.8563
L16.8653 7.0097
" />
<path d="M16.8653 6.5863
L16.8049 6.6468
" />
<path d="M16.8049 6.6468
L16.8653 6.7073
" />
<path d="M16.8653 6.7073
L16.9258 6.6468
" />
<path d="M16.9258 6.6468
L16.8653 6.5863
" />
<path d="M16.8653 6.5863
L16.8653 6.7073
" />
<path d="M17.3492 7.0097
L18.0144 7.0097
" />
<path d="M18.0144 7.0097
L17.3492 7.8563
" />
<path d="M17.3492 7.8563
L18.0144 7.8563
" />
<path d="M18.9820 7.7959
L18.8611 7.8563
" />
<path d="M18.8611 7.8563
L18.6192 7.8563
" />
<path d="M18.6192 7.8563
L18.4982 7.7959
" />
<path d="M18.4982 7.7959
L18.4378 7.6749
" />
<path d="M18.4378 7.6749
L18.4378 7.1911
" />
<path d="M18.4378 7.1911
L18.4982 7.0701
" />
<path d="M18.4982 7.0701
L18.6192 7.0097
" />
<path d="M18.6192 7.0097
L18.8611 7.0097
" />
<path d="M18.8611 7.0097
L18.9820 7.0701
" />
<path d="M18.9820 7.0701
L19.0425 7.1911
" />
<path d="M19.0425 7.1911
L19.0425 7.3120
" />
<path d="M19.0425 7.3120
L18.4378 7.4330
" />
<path d="M20.1311 7.8563
L20.1311 6.5863
" />
<path d="M20.1311 7.7959
L20.0102 7.8563
" />
<path d="M20.0102 7.8563
L19.7683 7.8563
" />
<path d="M19.7683 7.8563
L19.6473 7.7959
" />
<path d="M19.6473 7.7959
L19.5868 7.7354
" />
<path d="M19.5868 7.7354
L19.5264 7.6144
" />
<path d="M19.5264 7.6144
L19.5264 7.2516
" />
<path d="M19.5264 7.2516
L19.5868 7.1306
" />
<path d="M19.5868 7.1306
L19.6473 7.0701
" />
<path d="M19.6473 7.0701
L19.7683 7.0097
" />
<path d="M19.7683 7.0097
L20.0102 7.0097
" />
<path d="M20.0102 7.0097
L20.1311 7.0701
" />
</g></g> 
</svg>
