<?xml version="1.0" standalone="no"?>
 <!DOCTYPE svg PUBLIC "-//W3C//DTD SVG 1.1//EN" 
 "http://www.w3.org/Graphics/SVG/1.1/DTD/svg11.dtd"> 
<svg
  xmlns:svg="http://www.w3.org/2000/svg"
  xmlns="http://www.w3.org/2000/svg"
  xmlns:xlink="http://www.w3.org/1999/xlink"
  version="1.1"
  width="15.9512mm" height="13.8938mm" viewBox="0.0000 0.0000 15.9512 13.8938">
<title>SVG Image created as d_laser_1c2a.svg date 2024/01/16 15:18:28 </title>
  <desc>Image generated by Eeschema-SVG </desc>
<g style="fill:#000000; fill-opacity:1.0000;stroke:#000000; stroke-opacity:1.0000;
stroke-linecap:round; stroke-linejoin:round;"
 transform="translate(0 0) scale(1 1)">
</g>
<g style="fill:#000000; fill-opacity:0.0; 
stroke:#000000; stroke-width:0.0000; stroke-opacity:1; 
stroke-linecap:round; stroke-linejoin:round;">
</g>
<g style="fill:#000000; fill-opacity:0.0; 
stroke:#000000; stroke-width:0.1524; stroke-opacity:1; 
stroke-linecap:round; stroke-linejoin:round;">
<path style="fill:#000000; fill-opacity:0.0; 
stroke:#000000; stroke-width:0.1524; stroke-opacity:1; 
stroke-linecap:round; stroke-linejoin:round;fill:none"
d="M 3.9116,5.6769
5.4356,4.1529
" /> 
<path style="fill:#000000; fill-opacity:0.0; 
stroke:#000000; stroke-width:0.1524; stroke-opacity:1; 
stroke-linecap:round; stroke-linejoin:round;fill:none"
d="M 3.9116,5.1689
5.4356,4.6609
" /> 
<path style="fill:#000000; fill-opacity:0.0; 
stroke:#000000; stroke-width:0.1524; stroke-opacity:1; 
stroke-linecap:round; stroke-linejoin:round;fill:none"
d="M 3.9116,4.6609
5.4356,5.1689
" /> 
<path style="fill:#000000; fill-opacity:0.0; 
stroke:#000000; stroke-width:0.1524; stroke-opacity:1; 
stroke-linecap:round; stroke-linejoin:round;fill:none"
d="M 3.9116,4.1529
5.4356,5.6769
" /> 
<path style="fill:#000000; fill-opacity:0.0; 
stroke:#000000; stroke-width:0.1524; stroke-opacity:1; 
stroke-linecap:round; stroke-linejoin:round;fill:none"
d="M 4.4196,4.1529
4.9276,5.6769
" /> 
<path style="fill:#000000; fill-opacity:0.0; 
stroke:#000000; stroke-width:0.1524; stroke-opacity:1; 
stroke-linecap:round; stroke-linejoin:round;fill:none"
d="M 4.6736,4.9149
4.6736,5.9309
" /> 
<path style="fill:#000000; fill-opacity:0.0; 
stroke:#000000; stroke-width:0.1524; stroke-opacity:1; 
stroke-linecap:round; stroke-linejoin:round;fill:none"
d="M 4.6736,4.9149
4.6736,3.8989
" /> 
<path style="fill:#000000; fill-opacity:0.0; 
stroke:#000000; stroke-width:0.1524; stroke-opacity:1; 
stroke-linecap:round; stroke-linejoin:round;fill:none"
d="M 4.9276,4.1529
4.4196,5.6769
" /> 
<path style="fill:#000000; fill-opacity:0.0; 
stroke:#000000; stroke-width:0.1524; stroke-opacity:1; 
stroke-linecap:round; stroke-linejoin:round;fill:none"
d="M 6.1976,4.9149
3.6576,4.9149
" /> 
</g>
<g style="fill:#000000; fill-opacity:0.0; 
stroke:#000000; stroke-width:0.2032; stroke-opacity:1; 
stroke-linecap:round; stroke-linejoin:round;">
<path style="fill:#000000; fill-opacity:0.0; 
stroke:#000000; stroke-width:0.2032; stroke-opacity:1; 
stroke-linecap:round; stroke-linejoin:round;fill:none"
d="M 6.4516,5.6769
6.4516,8.2169
" /> 
</g>
<g style="fill:#000000; fill-opacity:0.0; 
stroke:#000000; stroke-width:0.1524; stroke-opacity:1; 
stroke-linecap:round; stroke-linejoin:round;">
<path style="fill:#000000; fill-opacity:0.0; 
stroke:#000000; stroke-width:0.1524; stroke-opacity:1; 
stroke-linecap:round; stroke-linejoin:round;fill:none"
d="M 9.2456,3.8989
8.7376,3.8989
" /> 
<path style="fill:#000000; fill-opacity:0.0; 
stroke:#000000; stroke-width:0.1524; stroke-opacity:1; 
stroke-linecap:round; stroke-linejoin:round;fill:none"
d="M 10.5156,6.9469
2.8956,6.9469
" /> 
<path style="fill:#000000; fill-opacity:0.0; 
stroke:#000000; stroke-width:0.1524; stroke-opacity:1; 
stroke-linecap:round; stroke-linejoin:round;fill:none"
d="M 7.7216,5.4229
9.2456,3.8989
9.2456,4.4069
" /> 
</g>
<g style="fill:#000000; fill-opacity:0.0; 
stroke:#000000; stroke-width:0.2032; stroke-opacity:1; 
stroke-linecap:round; stroke-linejoin:round;">
<path style="fill:#000000; fill-opacity:0.0; 
stroke:#000000; stroke-width:0.2032; stroke-opacity:1; 
stroke-linecap:round; stroke-linejoin:round;fill:none"
d="M 8.9916,5.6769
8.9916,8.2169
6.4516,6.9469
Z" /> 
</g>
<g style="fill:#000000; fill-opacity:0.0; 
stroke:#000000; stroke-width:0.1524; stroke-opacity:1; 
stroke-linecap:round; stroke-linejoin:round;">
<path style="fill:#000000; fill-opacity:0.0; 
stroke:#000000; stroke-width:0.1524; stroke-opacity:1; 
stroke-linecap:round; stroke-linejoin:round;fill:none"
d="M 6.4516,5.4229
7.9756,3.8989
7.9756,4.4069
7.9756,3.8989
7.4676,3.8989
" /> 
<path d="M2.8956 6.9469
L0.3556 6.9469
" />
<text x="1.6256" y="6.6929"
textLength="1.4127" font-size="1.6933" lengthAdjust="spacingAndGlyphs"
text-anchor="middle" opacity="0">1</text>
<g class="stroked-text"><desc>1</desc>
<path d="M1.9885 6.5294
L1.2628 6.5294
" />
<path d="M1.6256 6.5294
L1.6256 5.2594
" />
<path d="M1.6256 5.2594
L1.5047 5.4409
" />
<path d="M1.5047 5.4409
L1.3837 5.5618
" />
<path d="M1.3837 5.5618
L1.2628 5.6223
" />
</g><path d="M10.5156 6.9469
L13.0556 6.9469
" />
<text x="11.7856" y="6.6929"
textLength="1.4127" font-size="1.6933" lengthAdjust="spacingAndGlyphs"
text-anchor="middle" opacity="0">2</text>
<g class="stroked-text"><desc>2</desc>
<path d="M11.4228 5.3804
L11.4832 5.3199
" />
<path d="M11.4832 5.3199
L11.6042 5.2594
" />
<path d="M11.6042 5.2594
L11.9066 5.2594
" />
<path d="M11.9066 5.2594
L12.0275 5.3199
" />
<path d="M12.0275 5.3199
L12.0880 5.3804
" />
<path d="M12.0880 5.3804
L12.1485 5.5013
" />
<path d="M12.1485 5.5013
L12.1485 5.6223
" />
<path d="M12.1485 5.6223
L12.0880 5.8037
" />
<path d="M12.0880 5.8037
L11.3623 6.5294
" />
<path d="M11.3623 6.5294
L12.1485 6.5294
" />
</g></g>
<g style="fill:#000000; fill-opacity:0.0; 
stroke:#000000; stroke-width:0.1588; stroke-opacity:1; 
stroke-linecap:round; stroke-linejoin:round;">
<text x="6.7056" y="3.1369"
textLength="3.6091" font-size="1.6933" lengthAdjust="spacingAndGlyphs"
text-anchor="middle" opacity="0">LD?</text>
<g class="stroked-text"><desc>LD?</desc>
<path d="M5.9194 3.0811
L5.3146 3.0811
" />
<path d="M5.3146 3.0811
L5.3146 1.8111
" />
<path d="M6.3427 3.0811
L6.3427 1.8111
" />
<path d="M6.3427 1.8111
L6.6451 1.8111
" />
<path d="M6.6451 1.8111
L6.8265 1.8716
" />
<path d="M6.8265 1.8716
L6.9475 1.9926
" />
<path d="M6.9475 1.9926
L7.0080 2.1135
" />
<path d="M7.0080 2.1135
L7.0684 2.3554
" />
<path d="M7.0684 2.3554
L7.0684 2.5368
" />
<path d="M7.0684 2.5368
L7.0080 2.7787
" />
<path d="M7.0080 2.7787
L6.9475 2.8997
" />
<path d="M6.9475 2.8997
L6.8265 3.0207
" />
<path d="M6.8265 3.0207
L6.6451 3.0811
" />
<path d="M6.6451 3.0811
L6.3427 3.0811
" />
<path d="M7.7942 2.9602
L7.8546 3.0207
" />
<path d="M7.8546 3.0207
L7.7942 3.0811
" />
<path d="M7.7942 3.0811
L7.7337 3.0207
" />
<path d="M7.7337 3.0207
L7.7942 2.9602
" />
<path d="M7.7942 2.9602
L7.7942 3.0811
" />
<path d="M7.5523 1.8716
L7.6732 1.8111
" />
<path d="M7.6732 1.8111
L7.9756 1.8111
" />
<path d="M7.9756 1.8111
L8.0965 1.8716
" />
<path d="M8.0965 1.8716
L8.1570 1.9926
" />
<path d="M8.1570 1.9926
L8.1570 2.1135
" />
<path d="M8.1570 2.1135
L8.0965 2.2345
" />
<path d="M8.0965 2.2345
L8.0361 2.2949
" />
<path d="M8.0361 2.2949
L7.9151 2.3554
" />
<path d="M7.9151 2.3554
L7.8546 2.4159
" />
<path d="M7.8546 2.4159
L7.7942 2.5368
" />
<path d="M7.7942 2.5368
L7.7942 2.5973
" />
</g><text x="6.7056" y="10.1219"
textLength="13.2852" font-size="1.6933" lengthAdjust="spacingAndGlyphs"
text-anchor="middle" opacity="0">D_Laser_1C2A</text>
<g class="stroked-text"><desc>D_Laser_1C2A</desc>
<path d="M0.4765 10.0661
L0.4765 8.7961
" />
<path d="M0.4765 8.7961
L0.7789 8.7961
" />
<path d="M0.7789 8.7961
L0.9603 8.8566
" />
<path d="M0.9603 8.8566
L1.0813 8.9776
" />
<path d="M1.0813 8.9776
L1.1418 9.0985
" />
<path d="M1.1418 9.0985
L1.2022 9.3404
" />
<path d="M1.2022 9.3404
L1.2022 9.5218
" />
<path d="M1.2022 9.5218
L1.1418 9.7637
" />
<path d="M1.1418 9.7637
L1.0813 9.8847
" />
<path d="M1.0813 9.8847
L0.9603 10.0057
" />
<path d="M0.9603 10.0057
L0.7789 10.0661
" />
<path d="M0.7789 10.0661
L0.4765 10.0661
" />
<path d="M1.4442 10.1871
L2.4118 10.1871
" />
<path d="M3.3189 10.0661
L2.7141 10.0661
" />
<path d="M2.7141 10.0661
L2.7141 8.7961
" />
<path d="M4.2865 10.0661
L4.2865 9.4009
" />
<path d="M4.2865 9.4009
L4.2260 9.2799
" />
<path d="M4.2260 9.2799
L4.1051 9.2195
" />
<path d="M4.1051 9.2195
L3.8632 9.2195
" />
<path d="M3.8632 9.2195
L3.7422 9.2799
" />
<path d="M4.2865 10.0057
L4.1656 10.0661
" />
<path d="M4.1656 10.0661
L3.8632 10.0661
" />
<path d="M3.8632 10.0661
L3.7422 10.0057
" />
<path d="M3.7422 10.0057
L3.6818 9.8847
" />
<path d="M3.6818 9.8847
L3.6818 9.7637
" />
<path d="M3.6818 9.7637
L3.7422 9.6428
" />
<path d="M3.7422 9.6428
L3.8632 9.5823
" />
<path d="M3.8632 9.5823
L4.1656 9.5823
" />
<path d="M4.1656 9.5823
L4.2865 9.5218
" />
<path d="M4.8308 10.0057
L4.9517 10.0661
" />
<path d="M4.9517 10.0661
L5.1936 10.0661
" />
<path d="M5.1936 10.0661
L5.3146 10.0057
" />
<path d="M5.3146 10.0057
L5.3750 9.8847
" />
<path d="M5.3750 9.8847
L5.3750 9.8242
" />
<path d="M5.3750 9.8242
L5.3146 9.7033
" />
<path d="M5.3146 9.7033
L5.1936 9.6428
" />
<path d="M5.1936 9.6428
L5.0122 9.6428
" />
<path d="M5.0122 9.6428
L4.8912 9.5823
" />
<path d="M4.8912 9.5823
L4.8308 9.4614
" />
<path d="M4.8308 9.4614
L4.8308 9.4009
" />
<path d="M4.8308 9.4009
L4.8912 9.2799
" />
<path d="M4.8912 9.2799
L5.0122 9.2195
" />
<path d="M5.0122 9.2195
L5.1936 9.2195
" />
<path d="M5.1936 9.2195
L5.3146 9.2799
" />
<path d="M6.4031 10.0057
L6.2822 10.0661
" />
<path d="M6.2822 10.0661
L6.0403 10.0661
" />
<path d="M6.0403 10.0661
L5.9193 10.0057
" />
<path d="M5.9193 10.0057
L5.8589 9.8847
" />
<path d="M5.8589 9.8847
L5.8589 9.4009
" />
<path d="M5.8589 9.4009
L5.9193 9.2799
" />
<path d="M5.9193 9.2799
L6.0403 9.2195
" />
<path d="M6.0403 9.2195
L6.2822 9.2195
" />
<path d="M6.2822 9.2195
L6.4031 9.2799
" />
<path d="M6.4031 9.2799
L6.4636 9.4009
" />
<path d="M6.4636 9.4009
L6.4636 9.5218
" />
<path d="M6.4636 9.5218
L5.8589 9.6428
" />
<path d="M7.0079 10.0661
L7.0079 9.2195
" />
<path d="M7.0079 9.4614
L7.0684 9.3404
" />
<path d="M7.0684 9.3404
L7.1289 9.2799
" />
<path d="M7.1289 9.2799
L7.2498 9.2195
" />
<path d="M7.2498 9.2195
L7.3708 9.2195
" />
<path d="M7.4918 10.1871
L8.4594 10.1871
" />
<path d="M9.4270 10.0661
L8.7013 10.0661
" />
<path d="M9.0641 10.0661
L9.0641 8.7961
" />
<path d="M9.0641 8.7961
L8.9432 8.9776
" />
<path d="M8.9432 8.9776
L8.8222 9.0985
" />
<path d="M8.8222 9.0985
L8.7013 9.1590
" />
<path d="M10.6969 9.9452
L10.6365 10.0057
" />
<path d="M10.6365 10.0057
L10.4550 10.0661
" />
<path d="M10.4550 10.0661
L10.3341 10.0661
" />
<path d="M10.3341 10.0661
L10.1527 10.0057
" />
<path d="M10.1527 10.0057
L10.0317 9.8847
" />
<path d="M10.0317 9.8847
L9.9712 9.7637
" />
<path d="M9.9712 9.7637
L9.9108 9.5218
" />
<path d="M9.9108 9.5218
L9.9108 9.3404
" />
<path d="M9.9108 9.3404
L9.9712 9.0985
" />
<path d="M9.9712 9.0985
L10.0317 8.9776
" />
<path d="M10.0317 8.9776
L10.1527 8.8566
" />
<path d="M10.1527 8.8566
L10.3341 8.7961
" />
<path d="M10.3341 8.7961
L10.4550 8.7961
" />
<path d="M10.4550 8.7961
L10.6365 8.8566
" />
<path d="M10.6365 8.8566
L10.6969 8.9171
" />
<path d="M11.1808 8.9171
L11.2412 8.8566
" />
<path d="M11.2412 8.8566
L11.3622 8.7961
" />
<path d="M11.3622 8.7961
L11.6646 8.7961
" />
<path d="M11.6646 8.7961
L11.7855 8.8566
" />
<path d="M11.7855 8.8566
L11.8460 8.9171
" />
<path d="M11.8460 8.9171
L11.9065 9.0380
" />
<path d="M11.9065 9.0380
L11.9065 9.1590
" />
<path d="M11.9065 9.1590
L11.8460 9.3404
" />
<path d="M11.8460 9.3404
L11.1203 10.0661
" />
<path d="M11.1203 10.0661
L11.9065 10.0661
" />
<path d="M12.3903 9.7033
L12.9950 9.7033
" />
<path d="M12.2693 10.0661
L12.6926 8.7961
" />
<path d="M12.6926 8.7961
L13.1160 10.0661
" />
</g></g> 
</svg>
