<?xml version="1.0" standalone="no"?>
 <!DOCTYPE svg PUBLIC "-//W3C//DTD SVG 1.1//EN" 
 "http://www.w3.org/Graphics/SVG/1.1/DTD/svg11.dtd"> 
<svg
  xmlns:svg="http://www.w3.org/2000/svg"
  xmlns="http://www.w3.org/2000/svg"
  xmlns:xlink="http://www.w3.org/1999/xlink"
  version="1.1"
  width="32.3342mm" height="122.8344mm" viewBox="0.0000 0.0000 32.3342 122.8344">
<title>SVG Image created as conn_01x38_shielded.svg date 2024/01/16 15:18:23 </title>
  <desc>Image generated by Eeschema-SVG </desc>
<g style="fill:#000000; fill-opacity:1.0000;stroke:#000000; stroke-opacity:1.0000;
stroke-linecap:round; stroke-linejoin:round;"
 transform="translate(0 0) scale(1 1)">
</g>
<g style="fill:#000000; fill-opacity:0.0; 
stroke:#000000; stroke-width:0.0000; stroke-opacity:1; 
stroke-linecap:round; stroke-linejoin:round;">
</g>
<g style="fill:#000000; fill-opacity:0.0; 
stroke:#000000; stroke-width:0.1524; stroke-opacity:1; 
stroke-linecap:round; stroke-linejoin:round;">
<rect x="14.897100" y="14.427200" width="2.540000" height="96.520000" rx="0.000000" />
<rect x="15.151100" y="109.550200" width="1.270000" height="0.254000" rx="0.000000" />
<rect x="15.151100" y="107.010200" width="1.270000" height="0.254000" rx="0.000000" />
<rect x="15.151100" y="104.470200" width="1.270000" height="0.254000" rx="0.000000" />
<rect x="15.151100" y="101.930200" width="1.270000" height="0.254000" rx="0.000000" />
<rect x="15.151100" y="99.390200" width="1.270000" height="0.254000" rx="0.000000" />
<rect x="15.151100" y="96.850200" width="1.270000" height="0.254000" rx="0.000000" />
<rect x="15.151100" y="94.310200" width="1.270000" height="0.254000" rx="0.000000" />
<rect x="15.151100" y="91.770200" width="1.270000" height="0.254000" rx="0.000000" />
<rect x="15.151100" y="89.230200" width="1.270000" height="0.254000" rx="0.000000" />
<rect x="15.151100" y="86.690200" width="1.270000" height="0.254000" rx="0.000000" />
<rect x="15.151100" y="84.150200" width="1.270000" height="0.254000" rx="0.000000" />
<rect x="15.151100" y="81.610200" width="1.270000" height="0.254000" rx="0.000000" />
<rect x="15.151100" y="79.070200" width="1.270000" height="0.254000" rx="0.000000" />
<rect x="15.151100" y="76.530200" width="1.270000" height="0.254000" rx="0.000000" />
<rect x="15.151100" y="73.990200" width="1.270000" height="0.254000" rx="0.000000" />
<rect x="15.151100" y="71.450200" width="1.270000" height="0.254000" rx="0.000000" />
<rect x="15.151100" y="68.910200" width="1.270000" height="0.254000" rx="0.000000" />
<rect x="15.151100" y="66.370200" width="1.270000" height="0.254000" rx="0.000000" />
<rect x="15.151100" y="63.830200" width="1.270000" height="0.254000" rx="0.000000" />
<rect x="15.151100" y="61.290200" width="1.270000" height="0.254000" rx="0.000000" />
<rect x="15.151100" y="58.750200" width="1.270000" height="0.254000" rx="0.000000" />
<rect x="15.151100" y="56.210200" width="1.270000" height="0.254000" rx="0.000000" />
<rect x="15.151100" y="53.670200" width="1.270000" height="0.254000" rx="0.000000" />
<rect x="15.151100" y="51.130200" width="1.270000" height="0.254000" rx="0.000000" />
<rect x="15.151100" y="48.590200" width="1.270000" height="0.254000" rx="0.000000" />
<rect x="15.151100" y="46.050200" width="1.270000" height="0.254000" rx="0.000000" />
<rect x="15.151100" y="43.510200" width="1.270000" height="0.254000" rx="0.000000" />
<rect x="15.151100" y="40.970200" width="1.270000" height="0.254000" rx="0.000000" />
<rect x="15.151100" y="38.430200" width="1.270000" height="0.254000" rx="0.000000" />
<rect x="15.151100" y="35.890200" width="1.270000" height="0.254000" rx="0.000000" />
<rect x="15.151100" y="33.350200" width="1.270000" height="0.254000" rx="0.000000" />
<rect x="15.151100" y="30.810200" width="1.270000" height="0.254000" rx="0.000000" />
<rect x="15.151100" y="28.270200" width="1.270000" height="0.254000" rx="0.000000" />
<rect x="15.151100" y="25.730200" width="1.270000" height="0.254000" rx="0.000000" />
<rect x="15.151100" y="23.190200" width="1.270000" height="0.254000" rx="0.000000" />
<rect x="15.151100" y="20.650200" width="1.270000" height="0.254000" rx="0.000000" />
<rect x="15.151100" y="18.110200" width="1.270000" height="0.254000" rx="0.000000" />
<rect x="15.151100" y="15.570200" width="1.270000" height="0.254000" rx="0.000000" />
</g>
<g style="fill:#000000; fill-opacity:0.0; 
stroke:#000000; stroke-width:0.2540; stroke-opacity:1; 
stroke-linecap:round; stroke-linejoin:round;">
<rect x="15.151100" y="14.681200" width="2.032000" height="96.012000" rx="0.000000" />
</g>
<g style="fill:#000000; fill-opacity:0.0; 
stroke:#000000; stroke-width:0.1524; stroke-opacity:1; 
stroke-linecap:round; stroke-linejoin:round;">
<path d="M15.1511 15.6972
L11.0871 15.6972
" />
<text x="13.1191" y="15.4432"
textLength="1.4127" font-size="1.6933" lengthAdjust="spacingAndGlyphs"
text-anchor="middle" opacity="0">1</text>
<g class="stroked-text"><desc>1</desc>
<path d="M13.4820 15.2797
L12.7563 15.2797
" />
<path d="M13.1191 15.2797
L13.1191 14.0097
" />
<path d="M13.1191 14.0097
L12.9982 14.1912
" />
<path d="M12.9982 14.1912
L12.8772 14.3121
" />
<path d="M12.8772 14.3121
L12.7563 14.3726
" />
</g><path d="M15.1511 38.5572
L11.0871 38.5572
" />
<text x="13.1191" y="38.3032"
textLength="2.6222" font-size="1.6933" lengthAdjust="spacingAndGlyphs"
text-anchor="middle" opacity="0">10</text>
<g class="stroked-text"><desc>10</desc>
<path d="M12.8772 38.1397
L12.1515 38.1397
" />
<path d="M12.5143 38.1397
L12.5143 36.8697
" />
<path d="M12.5143 36.8697
L12.3934 37.0512
" />
<path d="M12.3934 37.0512
L12.2724 37.1721
" />
<path d="M12.2724 37.1721
L12.1515 37.2326
" />
<path d="M13.6633 36.8697
L13.7843 36.8697
" />
<path d="M13.7843 36.8697
L13.9052 36.9302
" />
<path d="M13.9052 36.9302
L13.9657 36.9907
" />
<path d="M13.9657 36.9907
L14.0262 37.1116
" />
<path d="M14.0262 37.1116
L14.0867 37.3535
" />
<path d="M14.0867 37.3535
L14.0867 37.6559
" />
<path d="M14.0867 37.6559
L14.0262 37.8978
" />
<path d="M14.0262 37.8978
L13.9657 38.0188
" />
<path d="M13.9657 38.0188
L13.9052 38.0793
" />
<path d="M13.9052 38.0793
L13.7843 38.1397
" />
<path d="M13.7843 38.1397
L13.6633 38.1397
" />
<path d="M13.6633 38.1397
L13.5424 38.0793
" />
<path d="M13.5424 38.0793
L13.4819 38.0188
" />
<path d="M13.4819 38.0188
L13.4214 37.8978
" />
<path d="M13.4214 37.8978
L13.3610 37.6559
" />
<path d="M13.3610 37.6559
L13.3610 37.3535
" />
<path d="M13.3610 37.3535
L13.4214 37.1116
" />
<path d="M13.4214 37.1116
L13.4819 36.9907
" />
<path d="M13.4819 36.9907
L13.5424 36.9302
" />
<path d="M13.5424 36.9302
L13.6633 36.8697
" />
</g><path d="M15.1511 41.0972
L11.0871 41.0972
" />
<text x="13.1191" y="40.8432"
textLength="2.6222" font-size="1.6933" lengthAdjust="spacingAndGlyphs"
text-anchor="middle" opacity="0">11</text>
<g class="stroked-text"><desc>11</desc>
<path d="M12.8772 40.6797
L12.1515 40.6797
" />
<path d="M12.5143 40.6797
L12.5143 39.4097
" />
<path d="M12.5143 39.4097
L12.3934 39.5912
" />
<path d="M12.3934 39.5912
L12.2724 39.7121
" />
<path d="M12.2724 39.7121
L12.1515 39.7726
" />
<path d="M14.0867 40.6797
L13.3610 40.6797
" />
<path d="M13.7238 40.6797
L13.7238 39.4097
" />
<path d="M13.7238 39.4097
L13.6029 39.5912
" />
<path d="M13.6029 39.5912
L13.4819 39.7121
" />
<path d="M13.4819 39.7121
L13.3610 39.7726
" />
</g><path d="M15.1511 43.6372
L11.0871 43.6372
" />
<text x="13.1191" y="43.3832"
textLength="2.6222" font-size="1.6933" lengthAdjust="spacingAndGlyphs"
text-anchor="middle" opacity="0">12</text>
<g class="stroked-text"><desc>12</desc>
<path d="M12.8772 43.2197
L12.1515 43.2197
" />
<path d="M12.5143 43.2197
L12.5143 41.9497
" />
<path d="M12.5143 41.9497
L12.3934 42.1312
" />
<path d="M12.3934 42.1312
L12.2724 42.2521
" />
<path d="M12.2724 42.2521
L12.1515 42.3126
" />
<path d="M13.3610 42.0707
L13.4214 42.0102
" />
<path d="M13.4214 42.0102
L13.5424 41.9497
" />
<path d="M13.5424 41.9497
L13.8448 41.9497
" />
<path d="M13.8448 41.9497
L13.9657 42.0102
" />
<path d="M13.9657 42.0102
L14.0262 42.0707
" />
<path d="M14.0262 42.0707
L14.0867 42.1916
" />
<path d="M14.0867 42.1916
L14.0867 42.3126
" />
<path d="M14.0867 42.3126
L14.0262 42.4940
" />
<path d="M14.0262 42.4940
L13.3005 43.2197
" />
<path d="M13.3005 43.2197
L14.0867 43.2197
" />
</g><path d="M15.1511 46.1772
L11.0871 46.1772
" />
<text x="13.1191" y="45.9232"
textLength="2.6222" font-size="1.6933" lengthAdjust="spacingAndGlyphs"
text-anchor="middle" opacity="0">13</text>
<g class="stroked-text"><desc>13</desc>
<path d="M12.8772 45.7597
L12.1515 45.7597
" />
<path d="M12.5143 45.7597
L12.5143 44.4897
" />
<path d="M12.5143 44.4897
L12.3934 44.6712
" />
<path d="M12.3934 44.6712
L12.2724 44.7921
" />
<path d="M12.2724 44.7921
L12.1515 44.8526
" />
<path d="M13.3005 44.4897
L14.0867 44.4897
" />
<path d="M14.0867 44.4897
L13.6633 44.9735
" />
<path d="M13.6633 44.9735
L13.8448 44.9735
" />
<path d="M13.8448 44.9735
L13.9657 45.0340
" />
<path d="M13.9657 45.0340
L14.0262 45.0945
" />
<path d="M14.0262 45.0945
L14.0867 45.2154
" />
<path d="M14.0867 45.2154
L14.0867 45.5178
" />
<path d="M14.0867 45.5178
L14.0262 45.6388
" />
<path d="M14.0262 45.6388
L13.9657 45.6993
" />
<path d="M13.9657 45.6993
L13.8448 45.7597
" />
<path d="M13.8448 45.7597
L13.4819 45.7597
" />
<path d="M13.4819 45.7597
L13.3610 45.6993
" />
<path d="M13.3610 45.6993
L13.3005 45.6388
" />
</g><path d="M15.1511 48.7172
L11.0871 48.7172
" />
<text x="13.1191" y="48.4632"
textLength="2.6222" font-size="1.6933" lengthAdjust="spacingAndGlyphs"
text-anchor="middle" opacity="0">14</text>
<g class="stroked-text"><desc>14</desc>
<path d="M12.8772 48.2997
L12.1515 48.2997
" />
<path d="M12.5143 48.2997
L12.5143 47.0297
" />
<path d="M12.5143 47.0297
L12.3934 47.2112
" />
<path d="M12.3934 47.2112
L12.2724 47.3321
" />
<path d="M12.2724 47.3321
L12.1515 47.3926
" />
<path d="M13.9657 47.4531
L13.9657 48.2997
" />
<path d="M13.6633 46.9693
L13.3610 47.8764
" />
<path d="M13.3610 47.8764
L14.1471 47.8764
" />
</g><path d="M15.1511 51.2572
L11.0871 51.2572
" />
<text x="13.1191" y="51.0032"
textLength="2.6222" font-size="1.6933" lengthAdjust="spacingAndGlyphs"
text-anchor="middle" opacity="0">15</text>
<g class="stroked-text"><desc>15</desc>
<path d="M12.8772 50.8397
L12.1515 50.8397
" />
<path d="M12.5143 50.8397
L12.5143 49.5697
" />
<path d="M12.5143 49.5697
L12.3934 49.7512
" />
<path d="M12.3934 49.7512
L12.2724 49.8721
" />
<path d="M12.2724 49.8721
L12.1515 49.9326
" />
<path d="M14.0262 49.5697
L13.4214 49.5697
" />
<path d="M13.4214 49.5697
L13.3610 50.1745
" />
<path d="M13.3610 50.1745
L13.4214 50.1140
" />
<path d="M13.4214 50.1140
L13.5424 50.0535
" />
<path d="M13.5424 50.0535
L13.8448 50.0535
" />
<path d="M13.8448 50.0535
L13.9657 50.1140
" />
<path d="M13.9657 50.1140
L14.0262 50.1745
" />
<path d="M14.0262 50.1745
L14.0867 50.2954
" />
<path d="M14.0867 50.2954
L14.0867 50.5978
" />
<path d="M14.0867 50.5978
L14.0262 50.7188
" />
<path d="M14.0262 50.7188
L13.9657 50.7793
" />
<path d="M13.9657 50.7793
L13.8448 50.8397
" />
<path d="M13.8448 50.8397
L13.5424 50.8397
" />
<path d="M13.5424 50.8397
L13.4214 50.7793
" />
<path d="M13.4214 50.7793
L13.3610 50.7188
" />
</g><path d="M15.1511 53.7972
L11.0871 53.7972
" />
<text x="13.1191" y="53.5432"
textLength="2.6222" font-size="1.6933" lengthAdjust="spacingAndGlyphs"
text-anchor="middle" opacity="0">16</text>
<g class="stroked-text"><desc>16</desc>
<path d="M12.8772 53.3797
L12.1515 53.3797
" />
<path d="M12.5143 53.3797
L12.5143 52.1097
" />
<path d="M12.5143 52.1097
L12.3934 52.2912
" />
<path d="M12.3934 52.2912
L12.2724 52.4121
" />
<path d="M12.2724 52.4121
L12.1515 52.4726
" />
<path d="M13.9657 52.1097
L13.7238 52.1097
" />
<path d="M13.7238 52.1097
L13.6029 52.1702
" />
<path d="M13.6029 52.1702
L13.5424 52.2307
" />
<path d="M13.5424 52.2307
L13.4214 52.4121
" />
<path d="M13.4214 52.4121
L13.3610 52.6540
" />
<path d="M13.3610 52.6540
L13.3610 53.1378
" />
<path d="M13.3610 53.1378
L13.4214 53.2588
" />
<path d="M13.4214 53.2588
L13.4819 53.3193
" />
<path d="M13.4819 53.3193
L13.6029 53.3797
" />
<path d="M13.6029 53.3797
L13.8448 53.3797
" />
<path d="M13.8448 53.3797
L13.9657 53.3193
" />
<path d="M13.9657 53.3193
L14.0262 53.2588
" />
<path d="M14.0262 53.2588
L14.0867 53.1378
" />
<path d="M14.0867 53.1378
L14.0867 52.8354
" />
<path d="M14.0867 52.8354
L14.0262 52.7145
" />
<path d="M14.0262 52.7145
L13.9657 52.6540
" />
<path d="M13.9657 52.6540
L13.8448 52.5935
" />
<path d="M13.8448 52.5935
L13.6029 52.5935
" />
<path d="M13.6029 52.5935
L13.4819 52.6540
" />
<path d="M13.4819 52.6540
L13.4214 52.7145
" />
<path d="M13.4214 52.7145
L13.3610 52.8354
" />
</g><path d="M15.1511 56.3372
L11.0871 56.3372
" />
<text x="13.1191" y="56.0832"
textLength="2.6222" font-size="1.6933" lengthAdjust="spacingAndGlyphs"
text-anchor="middle" opacity="0">17</text>
<g class="stroked-text"><desc>17</desc>
<path d="M12.8772 55.9197
L12.1515 55.9197
" />
<path d="M12.5143 55.9197
L12.5143 54.6497
" />
<path d="M12.5143 54.6497
L12.3934 54.8312
" />
<path d="M12.3934 54.8312
L12.2724 54.9521
" />
<path d="M12.2724 54.9521
L12.1515 55.0126
" />
<path d="M13.3005 54.6497
L14.1471 54.6497
" />
<path d="M14.1471 54.6497
L13.6029 55.9197
" />
</g><path d="M15.1511 58.8772
L11.0871 58.8772
" />
<text x="13.1191" y="58.6232"
textLength="2.6222" font-size="1.6933" lengthAdjust="spacingAndGlyphs"
text-anchor="middle" opacity="0">18</text>
<g class="stroked-text"><desc>18</desc>
<path d="M12.8772 58.4597
L12.1515 58.4597
" />
<path d="M12.5143 58.4597
L12.5143 57.1897
" />
<path d="M12.5143 57.1897
L12.3934 57.3712
" />
<path d="M12.3934 57.3712
L12.2724 57.4921
" />
<path d="M12.2724 57.4921
L12.1515 57.5526
" />
<path d="M13.6029 57.7340
L13.4819 57.6735
" />
<path d="M13.4819 57.6735
L13.4214 57.6131
" />
<path d="M13.4214 57.6131
L13.3610 57.4921
" />
<path d="M13.3610 57.4921
L13.3610 57.4316
" />
<path d="M13.3610 57.4316
L13.4214 57.3107
" />
<path d="M13.4214 57.3107
L13.4819 57.2502
" />
<path d="M13.4819 57.2502
L13.6029 57.1897
" />
<path d="M13.6029 57.1897
L13.8448 57.1897
" />
<path d="M13.8448 57.1897
L13.9657 57.2502
" />
<path d="M13.9657 57.2502
L14.0262 57.3107
" />
<path d="M14.0262 57.3107
L14.0867 57.4316
" />
<path d="M14.0867 57.4316
L14.0867 57.4921
" />
<path d="M14.0867 57.4921
L14.0262 57.6131
" />
<path d="M14.0262 57.6131
L13.9657 57.6735
" />
<path d="M13.9657 57.6735
L13.8448 57.7340
" />
<path d="M13.8448 57.7340
L13.6029 57.7340
" />
<path d="M13.6029 57.7340
L13.4819 57.7945
" />
<path d="M13.4819 57.7945
L13.4214 57.8550
" />
<path d="M13.4214 57.8550
L13.3610 57.9759
" />
<path d="M13.3610 57.9759
L13.3610 58.2178
" />
<path d="M13.3610 58.2178
L13.4214 58.3388
" />
<path d="M13.4214 58.3388
L13.4819 58.3993
" />
<path d="M13.4819 58.3993
L13.6029 58.4597
" />
<path d="M13.6029 58.4597
L13.8448 58.4597
" />
<path d="M13.8448 58.4597
L13.9657 58.3993
" />
<path d="M13.9657 58.3993
L14.0262 58.3388
" />
<path d="M14.0262 58.3388
L14.0867 58.2178
" />
<path d="M14.0867 58.2178
L14.0867 57.9759
" />
<path d="M14.0867 57.9759
L14.0262 57.8550
" />
<path d="M14.0262 57.8550
L13.9657 57.7945
" />
<path d="M13.9657 57.7945
L13.8448 57.7340
" />
</g><path d="M15.1511 61.4172
L11.0871 61.4172
" />
<text x="13.1191" y="61.1632"
textLength="2.6222" font-size="1.6933" lengthAdjust="spacingAndGlyphs"
text-anchor="middle" opacity="0">19</text>
<g class="stroked-text"><desc>19</desc>
<path d="M12.8772 60.9997
L12.1515 60.9997
" />
<path d="M12.5143 60.9997
L12.5143 59.7297
" />
<path d="M12.5143 59.7297
L12.3934 59.9112
" />
<path d="M12.3934 59.9112
L12.2724 60.0321
" />
<path d="M12.2724 60.0321
L12.1515 60.0926
" />
<path d="M13.4819 60.9997
L13.7238 60.9997
" />
<path d="M13.7238 60.9997
L13.8448 60.9393
" />
<path d="M13.8448 60.9393
L13.9052 60.8788
" />
<path d="M13.9052 60.8788
L14.0262 60.6973
" />
<path d="M14.0262 60.6973
L14.0867 60.4554
" />
<path d="M14.0867 60.4554
L14.0867 59.9716
" />
<path d="M14.0867 59.9716
L14.0262 59.8507
" />
<path d="M14.0262 59.8507
L13.9657 59.7902
" />
<path d="M13.9657 59.7902
L13.8448 59.7297
" />
<path d="M13.8448 59.7297
L13.6029 59.7297
" />
<path d="M13.6029 59.7297
L13.4819 59.7902
" />
<path d="M13.4819 59.7902
L13.4214 59.8507
" />
<path d="M13.4214 59.8507
L13.3610 59.9716
" />
<path d="M13.3610 59.9716
L13.3610 60.2740
" />
<path d="M13.3610 60.2740
L13.4214 60.3950
" />
<path d="M13.4214 60.3950
L13.4819 60.4554
" />
<path d="M13.4819 60.4554
L13.6029 60.5159
" />
<path d="M13.6029 60.5159
L13.8448 60.5159
" />
<path d="M13.8448 60.5159
L13.9657 60.4554
" />
<path d="M13.9657 60.4554
L14.0262 60.3950
" />
<path d="M14.0262 60.3950
L14.0867 60.2740
" />
</g><path d="M15.1511 18.2372
L11.0871 18.2372
" />
<text x="13.1191" y="17.9832"
textLength="1.4127" font-size="1.6933" lengthAdjust="spacingAndGlyphs"
text-anchor="middle" opacity="0">2</text>
<g class="stroked-text"><desc>2</desc>
<path d="M12.7563 16.6707
L12.8167 16.6102
" />
<path d="M12.8167 16.6102
L12.9377 16.5497
" />
<path d="M12.9377 16.5497
L13.2401 16.5497
" />
<path d="M13.2401 16.5497
L13.3610 16.6102
" />
<path d="M13.3610 16.6102
L13.4215 16.6707
" />
<path d="M13.4215 16.6707
L13.4820 16.7916
" />
<path d="M13.4820 16.7916
L13.4820 16.9126
" />
<path d="M13.4820 16.9126
L13.4215 17.0940
" />
<path d="M13.4215 17.0940
L12.6958 17.8197
" />
<path d="M12.6958 17.8197
L13.4820 17.8197
" />
</g><path d="M15.1511 63.9572
L11.0871 63.9572
" />
<text x="13.1191" y="63.7032"
textLength="2.6222" font-size="1.6933" lengthAdjust="spacingAndGlyphs"
text-anchor="middle" opacity="0">20</text>
<g class="stroked-text"><desc>20</desc>
<path d="M12.1515 62.3907
L12.2119 62.3302
" />
<path d="M12.2119 62.3302
L12.3329 62.2697
" />
<path d="M12.3329 62.2697
L12.6353 62.2697
" />
<path d="M12.6353 62.2697
L12.7562 62.3302
" />
<path d="M12.7562 62.3302
L12.8167 62.3907
" />
<path d="M12.8167 62.3907
L12.8772 62.5116
" />
<path d="M12.8772 62.5116
L12.8772 62.6326
" />
<path d="M12.8772 62.6326
L12.8167 62.8140
" />
<path d="M12.8167 62.8140
L12.0910 63.5397
" />
<path d="M12.0910 63.5397
L12.8772 63.5397
" />
<path d="M13.6633 62.2697
L13.7843 62.2697
" />
<path d="M13.7843 62.2697
L13.9052 62.3302
" />
<path d="M13.9052 62.3302
L13.9657 62.3907
" />
<path d="M13.9657 62.3907
L14.0262 62.5116
" />
<path d="M14.0262 62.5116
L14.0867 62.7535
" />
<path d="M14.0867 62.7535
L14.0867 63.0559
" />
<path d="M14.0867 63.0559
L14.0262 63.2978
" />
<path d="M14.0262 63.2978
L13.9657 63.4188
" />
<path d="M13.9657 63.4188
L13.9052 63.4793
" />
<path d="M13.9052 63.4793
L13.7843 63.5397
" />
<path d="M13.7843 63.5397
L13.6633 63.5397
" />
<path d="M13.6633 63.5397
L13.5424 63.4793
" />
<path d="M13.5424 63.4793
L13.4819 63.4188
" />
<path d="M13.4819 63.4188
L13.4214 63.2978
" />
<path d="M13.4214 63.2978
L13.3610 63.0559
" />
<path d="M13.3610 63.0559
L13.3610 62.7535
" />
<path d="M13.3610 62.7535
L13.4214 62.5116
" />
<path d="M13.4214 62.5116
L13.4819 62.3907
" />
<path d="M13.4819 62.3907
L13.5424 62.3302
" />
<path d="M13.5424 62.3302
L13.6633 62.2697
" />
</g><path d="M15.1511 66.4972
L11.0871 66.4972
" />
<text x="13.1191" y="66.2432"
textLength="2.6222" font-size="1.6933" lengthAdjust="spacingAndGlyphs"
text-anchor="middle" opacity="0">21</text>
<g class="stroked-text"><desc>21</desc>
<path d="M12.1515 64.9307
L12.2119 64.8702
" />
<path d="M12.2119 64.8702
L12.3329 64.8097
" />
<path d="M12.3329 64.8097
L12.6353 64.8097
" />
<path d="M12.6353 64.8097
L12.7562 64.8702
" />
<path d="M12.7562 64.8702
L12.8167 64.9307
" />
<path d="M12.8167 64.9307
L12.8772 65.0516
" />
<path d="M12.8772 65.0516
L12.8772 65.1726
" />
<path d="M12.8772 65.1726
L12.8167 65.3540
" />
<path d="M12.8167 65.3540
L12.0910 66.0797
" />
<path d="M12.0910 66.0797
L12.8772 66.0797
" />
<path d="M14.0867 66.0797
L13.3610 66.0797
" />
<path d="M13.7238 66.0797
L13.7238 64.8097
" />
<path d="M13.7238 64.8097
L13.6029 64.9912
" />
<path d="M13.6029 64.9912
L13.4819 65.1121
" />
<path d="M13.4819 65.1121
L13.3610 65.1726
" />
</g><path d="M15.1511 69.0372
L11.0871 69.0372
" />
<text x="13.1191" y="68.7832"
textLength="2.6222" font-size="1.6933" lengthAdjust="spacingAndGlyphs"
text-anchor="middle" opacity="0">22</text>
<g class="stroked-text"><desc>22</desc>
<path d="M12.1515 67.4707
L12.2119 67.4102
" />
<path d="M12.2119 67.4102
L12.3329 67.3497
" />
<path d="M12.3329 67.3497
L12.6353 67.3497
" />
<path d="M12.6353 67.3497
L12.7562 67.4102
" />
<path d="M12.7562 67.4102
L12.8167 67.4707
" />
<path d="M12.8167 67.4707
L12.8772 67.5916
" />
<path d="M12.8772 67.5916
L12.8772 67.7126
" />
<path d="M12.8772 67.7126
L12.8167 67.8940
" />
<path d="M12.8167 67.8940
L12.0910 68.6197
" />
<path d="M12.0910 68.6197
L12.8772 68.6197
" />
<path d="M13.3610 67.4707
L13.4214 67.4102
" />
<path d="M13.4214 67.4102
L13.5424 67.3497
" />
<path d="M13.5424 67.3497
L13.8448 67.3497
" />
<path d="M13.8448 67.3497
L13.9657 67.4102
" />
<path d="M13.9657 67.4102
L14.0262 67.4707
" />
<path d="M14.0262 67.4707
L14.0867 67.5916
" />
<path d="M14.0867 67.5916
L14.0867 67.7126
" />
<path d="M14.0867 67.7126
L14.0262 67.8940
" />
<path d="M14.0262 67.8940
L13.3005 68.6197
" />
<path d="M13.3005 68.6197
L14.0867 68.6197
" />
</g><path d="M15.1511 71.5772
L11.0871 71.5772
" />
<text x="13.1191" y="71.3232"
textLength="2.6222" font-size="1.6933" lengthAdjust="spacingAndGlyphs"
text-anchor="middle" opacity="0">23</text>
<g class="stroked-text"><desc>23</desc>
<path d="M12.1515 70.0107
L12.2119 69.9502
" />
<path d="M12.2119 69.9502
L12.3329 69.8897
" />
<path d="M12.3329 69.8897
L12.6353 69.8897
" />
<path d="M12.6353 69.8897
L12.7562 69.9502
" />
<path d="M12.7562 69.9502
L12.8167 70.0107
" />
<path d="M12.8167 70.0107
L12.8772 70.1316
" />
<path d="M12.8772 70.1316
L12.8772 70.2526
" />
<path d="M12.8772 70.2526
L12.8167 70.4340
" />
<path d="M12.8167 70.4340
L12.0910 71.1597
" />
<path d="M12.0910 71.1597
L12.8772 71.1597
" />
<path d="M13.3005 69.8897
L14.0867 69.8897
" />
<path d="M14.0867 69.8897
L13.6633 70.3735
" />
<path d="M13.6633 70.3735
L13.8448 70.3735
" />
<path d="M13.8448 70.3735
L13.9657 70.4340
" />
<path d="M13.9657 70.4340
L14.0262 70.4945
" />
<path d="M14.0262 70.4945
L14.0867 70.6154
" />
<path d="M14.0867 70.6154
L14.0867 70.9178
" />
<path d="M14.0867 70.9178
L14.0262 71.0388
" />
<path d="M14.0262 71.0388
L13.9657 71.0993
" />
<path d="M13.9657 71.0993
L13.8448 71.1597
" />
<path d="M13.8448 71.1597
L13.4819 71.1597
" />
<path d="M13.4819 71.1597
L13.3610 71.0993
" />
<path d="M13.3610 71.0993
L13.3005 71.0388
" />
</g><path d="M15.1511 74.1172
L11.0871 74.1172
" />
<text x="13.1191" y="73.8632"
textLength="2.6222" font-size="1.6933" lengthAdjust="spacingAndGlyphs"
text-anchor="middle" opacity="0">24</text>
<g class="stroked-text"><desc>24</desc>
<path d="M12.1515 72.5507
L12.2119 72.4902
" />
<path d="M12.2119 72.4902
L12.3329 72.4297
" />
<path d="M12.3329 72.4297
L12.6353 72.4297
" />
<path d="M12.6353 72.4297
L12.7562 72.4902
" />
<path d="M12.7562 72.4902
L12.8167 72.5507
" />
<path d="M12.8167 72.5507
L12.8772 72.6716
" />
<path d="M12.8772 72.6716
L12.8772 72.7926
" />
<path d="M12.8772 72.7926
L12.8167 72.9740
" />
<path d="M12.8167 72.9740
L12.0910 73.6997
" />
<path d="M12.0910 73.6997
L12.8772 73.6997
" />
<path d="M13.9657 72.8531
L13.9657 73.6997
" />
<path d="M13.6633 72.3693
L13.3610 73.2764
" />
<path d="M13.3610 73.2764
L14.1471 73.2764
" />
</g><path d="M15.1511 76.6572
L11.0871 76.6572
" />
<text x="13.1191" y="76.4032"
textLength="2.6222" font-size="1.6933" lengthAdjust="spacingAndGlyphs"
text-anchor="middle" opacity="0">25</text>
<g class="stroked-text"><desc>25</desc>
<path d="M12.1515 75.0907
L12.2119 75.0302
" />
<path d="M12.2119 75.0302
L12.3329 74.9697
" />
<path d="M12.3329 74.9697
L12.6353 74.9697
" />
<path d="M12.6353 74.9697
L12.7562 75.0302
" />
<path d="M12.7562 75.0302
L12.8167 75.0907
" />
<path d="M12.8167 75.0907
L12.8772 75.2116
" />
<path d="M12.8772 75.2116
L12.8772 75.3326
" />
<path d="M12.8772 75.3326
L12.8167 75.5140
" />
<path d="M12.8167 75.5140
L12.0910 76.2397
" />
<path d="M12.0910 76.2397
L12.8772 76.2397
" />
<path d="M14.0262 74.9697
L13.4214 74.9697
" />
<path d="M13.4214 74.9697
L13.3610 75.5745
" />
<path d="M13.3610 75.5745
L13.4214 75.5140
" />
<path d="M13.4214 75.5140
L13.5424 75.4535
" />
<path d="M13.5424 75.4535
L13.8448 75.4535
" />
<path d="M13.8448 75.4535
L13.9657 75.5140
" />
<path d="M13.9657 75.5140
L14.0262 75.5745
" />
<path d="M14.0262 75.5745
L14.0867 75.6954
" />
<path d="M14.0867 75.6954
L14.0867 75.9978
" />
<path d="M14.0867 75.9978
L14.0262 76.1188
" />
<path d="M14.0262 76.1188
L13.9657 76.1793
" />
<path d="M13.9657 76.1793
L13.8448 76.2397
" />
<path d="M13.8448 76.2397
L13.5424 76.2397
" />
<path d="M13.5424 76.2397
L13.4214 76.1793
" />
<path d="M13.4214 76.1793
L13.3610 76.1188
" />
</g><path d="M15.1511 79.1972
L11.0871 79.1972
" />
<text x="13.1191" y="78.9432"
textLength="2.6222" font-size="1.6933" lengthAdjust="spacingAndGlyphs"
text-anchor="middle" opacity="0">26</text>
<g class="stroked-text"><desc>26</desc>
<path d="M12.1515 77.6307
L12.2119 77.5702
" />
<path d="M12.2119 77.5702
L12.3329 77.5097
" />
<path d="M12.3329 77.5097
L12.6353 77.5097
" />
<path d="M12.6353 77.5097
L12.7562 77.5702
" />
<path d="M12.7562 77.5702
L12.8167 77.6307
" />
<path d="M12.8167 77.6307
L12.8772 77.7516
" />
<path d="M12.8772 77.7516
L12.8772 77.8726
" />
<path d="M12.8772 77.8726
L12.8167 78.0540
" />
<path d="M12.8167 78.0540
L12.0910 78.7797
" />
<path d="M12.0910 78.7797
L12.8772 78.7797
" />
<path d="M13.9657 77.5097
L13.7238 77.5097
" />
<path d="M13.7238 77.5097
L13.6029 77.5702
" />
<path d="M13.6029 77.5702
L13.5424 77.6307
" />
<path d="M13.5424 77.6307
L13.4214 77.8121
" />
<path d="M13.4214 77.8121
L13.3610 78.0540
" />
<path d="M13.3610 78.0540
L13.3610 78.5378
" />
<path d="M13.3610 78.5378
L13.4214 78.6588
" />
<path d="M13.4214 78.6588
L13.4819 78.7193
" />
<path d="M13.4819 78.7193
L13.6029 78.7797
" />
<path d="M13.6029 78.7797
L13.8448 78.7797
" />
<path d="M13.8448 78.7797
L13.9657 78.7193
" />
<path d="M13.9657 78.7193
L14.0262 78.6588
" />
<path d="M14.0262 78.6588
L14.0867 78.5378
" />
<path d="M14.0867 78.5378
L14.0867 78.2354
" />
<path d="M14.0867 78.2354
L14.0262 78.1145
" />
<path d="M14.0262 78.1145
L13.9657 78.0540
" />
<path d="M13.9657 78.0540
L13.8448 77.9935
" />
<path d="M13.8448 77.9935
L13.6029 77.9935
" />
<path d="M13.6029 77.9935
L13.4819 78.0540
" />
<path d="M13.4819 78.0540
L13.4214 78.1145
" />
<path d="M13.4214 78.1145
L13.3610 78.2354
" />
</g><path d="M15.1511 81.7372
L11.0871 81.7372
" />
<text x="13.1191" y="81.4832"
textLength="2.6222" font-size="1.6933" lengthAdjust="spacingAndGlyphs"
text-anchor="middle" opacity="0">27</text>
<g class="stroked-text"><desc>27</desc>
<path d="M12.1515 80.1707
L12.2119 80.1102
" />
<path d="M12.2119 80.1102
L12.3329 80.0497
" />
<path d="M12.3329 80.0497
L12.6353 80.0497
" />
<path d="M12.6353 80.0497
L12.7562 80.1102
" />
<path d="M12.7562 80.1102
L12.8167 80.1707
" />
<path d="M12.8167 80.1707
L12.8772 80.2916
" />
<path d="M12.8772 80.2916
L12.8772 80.4126
" />
<path d="M12.8772 80.4126
L12.8167 80.5940
" />
<path d="M12.8167 80.5940
L12.0910 81.3197
" />
<path d="M12.0910 81.3197
L12.8772 81.3197
" />
<path d="M13.3005 80.0497
L14.1471 80.0497
" />
<path d="M14.1471 80.0497
L13.6029 81.3197
" />
</g><path d="M15.1511 84.2772
L11.0871 84.2772
" />
<text x="13.1191" y="84.0232"
textLength="2.6222" font-size="1.6933" lengthAdjust="spacingAndGlyphs"
text-anchor="middle" opacity="0">28</text>
<g class="stroked-text"><desc>28</desc>
<path d="M12.1515 82.7107
L12.2119 82.6502
" />
<path d="M12.2119 82.6502
L12.3329 82.5897
" />
<path d="M12.3329 82.5897
L12.6353 82.5897
" />
<path d="M12.6353 82.5897
L12.7562 82.6502
" />
<path d="M12.7562 82.6502
L12.8167 82.7107
" />
<path d="M12.8167 82.7107
L12.8772 82.8316
" />
<path d="M12.8772 82.8316
L12.8772 82.9526
" />
<path d="M12.8772 82.9526
L12.8167 83.1340
" />
<path d="M12.8167 83.1340
L12.0910 83.8597
" />
<path d="M12.0910 83.8597
L12.8772 83.8597
" />
<path d="M13.6029 83.1340
L13.4819 83.0735
" />
<path d="M13.4819 83.0735
L13.4214 83.0131
" />
<path d="M13.4214 83.0131
L13.3610 82.8921
" />
<path d="M13.3610 82.8921
L13.3610 82.8316
" />
<path d="M13.3610 82.8316
L13.4214 82.7107
" />
<path d="M13.4214 82.7107
L13.4819 82.6502
" />
<path d="M13.4819 82.6502
L13.6029 82.5897
" />
<path d="M13.6029 82.5897
L13.8448 82.5897
" />
<path d="M13.8448 82.5897
L13.9657 82.6502
" />
<path d="M13.9657 82.6502
L14.0262 82.7107
" />
<path d="M14.0262 82.7107
L14.0867 82.8316
" />
<path d="M14.0867 82.8316
L14.0867 82.8921
" />
<path d="M14.0867 82.8921
L14.0262 83.0131
" />
<path d="M14.0262 83.0131
L13.9657 83.0735
" />
<path d="M13.9657 83.0735
L13.8448 83.1340
" />
<path d="M13.8448 83.1340
L13.6029 83.1340
" />
<path d="M13.6029 83.1340
L13.4819 83.1945
" />
<path d="M13.4819 83.1945
L13.4214 83.2550
" />
<path d="M13.4214 83.2550
L13.3610 83.3759
" />
<path d="M13.3610 83.3759
L13.3610 83.6178
" />
<path d="M13.3610 83.6178
L13.4214 83.7388
" />
<path d="M13.4214 83.7388
L13.4819 83.7993
" />
<path d="M13.4819 83.7993
L13.6029 83.8597
" />
<path d="M13.6029 83.8597
L13.8448 83.8597
" />
<path d="M13.8448 83.8597
L13.9657 83.7993
" />
<path d="M13.9657 83.7993
L14.0262 83.7388
" />
<path d="M14.0262 83.7388
L14.0867 83.6178
" />
<path d="M14.0867 83.6178
L14.0867 83.3759
" />
<path d="M14.0867 83.3759
L14.0262 83.2550
" />
<path d="M14.0262 83.2550
L13.9657 83.1945
" />
<path d="M13.9657 83.1945
L13.8448 83.1340
" />
</g><path d="M15.1511 86.8172
L11.0871 86.8172
" />
<text x="13.1191" y="86.5632"
textLength="2.6222" font-size="1.6933" lengthAdjust="spacingAndGlyphs"
text-anchor="middle" opacity="0">29</text>
<g class="stroked-text"><desc>29</desc>
<path d="M12.1515 85.2507
L12.2119 85.1902
" />
<path d="M12.2119 85.1902
L12.3329 85.1297
" />
<path d="M12.3329 85.1297
L12.6353 85.1297
" />
<path d="M12.6353 85.1297
L12.7562 85.1902
" />
<path d="M12.7562 85.1902
L12.8167 85.2507
" />
<path d="M12.8167 85.2507
L12.8772 85.3716
" />
<path d="M12.8772 85.3716
L12.8772 85.4926
" />
<path d="M12.8772 85.4926
L12.8167 85.6740
" />
<path d="M12.8167 85.6740
L12.0910 86.3997
" />
<path d="M12.0910 86.3997
L12.8772 86.3997
" />
<path d="M13.4819 86.3997
L13.7238 86.3997
" />
<path d="M13.7238 86.3997
L13.8448 86.3393
" />
<path d="M13.8448 86.3393
L13.9052 86.2788
" />
<path d="M13.9052 86.2788
L14.0262 86.0973
" />
<path d="M14.0262 86.0973
L14.0867 85.8554
" />
<path d="M14.0867 85.8554
L14.0867 85.3716
" />
<path d="M14.0867 85.3716
L14.0262 85.2507
" />
<path d="M14.0262 85.2507
L13.9657 85.1902
" />
<path d="M13.9657 85.1902
L13.8448 85.1297
" />
<path d="M13.8448 85.1297
L13.6029 85.1297
" />
<path d="M13.6029 85.1297
L13.4819 85.1902
" />
<path d="M13.4819 85.1902
L13.4214 85.2507
" />
<path d="M13.4214 85.2507
L13.3610 85.3716
" />
<path d="M13.3610 85.3716
L13.3610 85.6740
" />
<path d="M13.3610 85.6740
L13.4214 85.7950
" />
<path d="M13.4214 85.7950
L13.4819 85.8554
" />
<path d="M13.4819 85.8554
L13.6029 85.9159
" />
<path d="M13.6029 85.9159
L13.8448 85.9159
" />
<path d="M13.8448 85.9159
L13.9657 85.8554
" />
<path d="M13.9657 85.8554
L14.0262 85.7950
" />
<path d="M14.0262 85.7950
L14.0867 85.6740
" />
</g><path d="M15.1511 20.7772
L11.0871 20.7772
" />
<text x="13.1191" y="20.5232"
textLength="1.4127" font-size="1.6933" lengthAdjust="spacingAndGlyphs"
text-anchor="middle" opacity="0">3</text>
<g class="stroked-text"><desc>3</desc>
<path d="M12.6958 19.0897
L13.4820 19.0897
" />
<path d="M13.4820 19.0897
L13.0586 19.5735
" />
<path d="M13.0586 19.5735
L13.2401 19.5735
" />
<path d="M13.2401 19.5735
L13.3610 19.6340
" />
<path d="M13.3610 19.6340
L13.4215 19.6945
" />
<path d="M13.4215 19.6945
L13.4820 19.8154
" />
<path d="M13.4820 19.8154
L13.4820 20.1178
" />
<path d="M13.4820 20.1178
L13.4215 20.2388
" />
<path d="M13.4215 20.2388
L13.3610 20.2993
" />
<path d="M13.3610 20.2993
L13.2401 20.3597
" />
<path d="M13.2401 20.3597
L12.8772 20.3597
" />
<path d="M12.8772 20.3597
L12.7563 20.2993
" />
<path d="M12.7563 20.2993
L12.6958 20.2388
" />
</g><path d="M15.1511 89.3572
L11.0871 89.3572
" />
<text x="13.1191" y="89.1032"
textLength="2.6222" font-size="1.6933" lengthAdjust="spacingAndGlyphs"
text-anchor="middle" opacity="0">30</text>
<g class="stroked-text"><desc>30</desc>
<path d="M12.0910 87.6697
L12.8772 87.6697
" />
<path d="M12.8772 87.6697
L12.4538 88.1535
" />
<path d="M12.4538 88.1535
L12.6353 88.1535
" />
<path d="M12.6353 88.1535
L12.7562 88.2140
" />
<path d="M12.7562 88.2140
L12.8167 88.2745
" />
<path d="M12.8167 88.2745
L12.8772 88.3954
" />
<path d="M12.8772 88.3954
L12.8772 88.6978
" />
<path d="M12.8772 88.6978
L12.8167 88.8188
" />
<path d="M12.8167 88.8188
L12.7562 88.8793
" />
<path d="M12.7562 88.8793
L12.6353 88.9397
" />
<path d="M12.6353 88.9397
L12.2724 88.9397
" />
<path d="M12.2724 88.9397
L12.1515 88.8793
" />
<path d="M12.1515 88.8793
L12.0910 88.8188
" />
<path d="M13.6633 87.6697
L13.7843 87.6697
" />
<path d="M13.7843 87.6697
L13.9052 87.7302
" />
<path d="M13.9052 87.7302
L13.9657 87.7907
" />
<path d="M13.9657 87.7907
L14.0262 87.9116
" />
<path d="M14.0262 87.9116
L14.0867 88.1535
" />
<path d="M14.0867 88.1535
L14.0867 88.4559
" />
<path d="M14.0867 88.4559
L14.0262 88.6978
" />
<path d="M14.0262 88.6978
L13.9657 88.8188
" />
<path d="M13.9657 88.8188
L13.9052 88.8793
" />
<path d="M13.9052 88.8793
L13.7843 88.9397
" />
<path d="M13.7843 88.9397
L13.6633 88.9397
" />
<path d="M13.6633 88.9397
L13.5424 88.8793
" />
<path d="M13.5424 88.8793
L13.4819 88.8188
" />
<path d="M13.4819 88.8188
L13.4214 88.6978
" />
<path d="M13.4214 88.6978
L13.3610 88.4559
" />
<path d="M13.3610 88.4559
L13.3610 88.1535
" />
<path d="M13.3610 88.1535
L13.4214 87.9116
" />
<path d="M13.4214 87.9116
L13.4819 87.7907
" />
<path d="M13.4819 87.7907
L13.5424 87.7302
" />
<path d="M13.5424 87.7302
L13.6633 87.6697
" />
</g><path d="M15.1511 91.8972
L11.0871 91.8972
" />
<text x="13.1191" y="91.6432"
textLength="2.6222" font-size="1.6933" lengthAdjust="spacingAndGlyphs"
text-anchor="middle" opacity="0">31</text>
<g class="stroked-text"><desc>31</desc>
<path d="M12.0910 90.2097
L12.8772 90.2097
" />
<path d="M12.8772 90.2097
L12.4538 90.6935
" />
<path d="M12.4538 90.6935
L12.6353 90.6935
" />
<path d="M12.6353 90.6935
L12.7562 90.7540
" />
<path d="M12.7562 90.7540
L12.8167 90.8145
" />
<path d="M12.8167 90.8145
L12.8772 90.9354
" />
<path d="M12.8772 90.9354
L12.8772 91.2378
" />
<path d="M12.8772 91.2378
L12.8167 91.3588
" />
<path d="M12.8167 91.3588
L12.7562 91.4193
" />
<path d="M12.7562 91.4193
L12.6353 91.4797
" />
<path d="M12.6353 91.4797
L12.2724 91.4797
" />
<path d="M12.2724 91.4797
L12.1515 91.4193
" />
<path d="M12.1515 91.4193
L12.0910 91.3588
" />
<path d="M14.0867 91.4797
L13.3610 91.4797
" />
<path d="M13.7238 91.4797
L13.7238 90.2097
" />
<path d="M13.7238 90.2097
L13.6029 90.3912
" />
<path d="M13.6029 90.3912
L13.4819 90.5121
" />
<path d="M13.4819 90.5121
L13.3610 90.5726
" />
</g><path d="M15.1511 94.4372
L11.0871 94.4372
" />
<text x="13.1191" y="94.1832"
textLength="2.6222" font-size="1.6933" lengthAdjust="spacingAndGlyphs"
text-anchor="middle" opacity="0">32</text>
<g class="stroked-text"><desc>32</desc>
<path d="M12.0910 92.7497
L12.8772 92.7497
" />
<path d="M12.8772 92.7497
L12.4538 93.2335
" />
<path d="M12.4538 93.2335
L12.6353 93.2335
" />
<path d="M12.6353 93.2335
L12.7562 93.2940
" />
<path d="M12.7562 93.2940
L12.8167 93.3545
" />
<path d="M12.8167 93.3545
L12.8772 93.4754
" />
<path d="M12.8772 93.4754
L12.8772 93.7778
" />
<path d="M12.8772 93.7778
L12.8167 93.8988
" />
<path d="M12.8167 93.8988
L12.7562 93.9593
" />
<path d="M12.7562 93.9593
L12.6353 94.0197
" />
<path d="M12.6353 94.0197
L12.2724 94.0197
" />
<path d="M12.2724 94.0197
L12.1515 93.9593
" />
<path d="M12.1515 93.9593
L12.0910 93.8988
" />
<path d="M13.3610 92.8707
L13.4214 92.8102
" />
<path d="M13.4214 92.8102
L13.5424 92.7497
" />
<path d="M13.5424 92.7497
L13.8448 92.7497
" />
<path d="M13.8448 92.7497
L13.9657 92.8102
" />
<path d="M13.9657 92.8102
L14.0262 92.8707
" />
<path d="M14.0262 92.8707
L14.0867 92.9916
" />
<path d="M14.0867 92.9916
L14.0867 93.1126
" />
<path d="M14.0867 93.1126
L14.0262 93.2940
" />
<path d="M14.0262 93.2940
L13.3005 94.0197
" />
<path d="M13.3005 94.0197
L14.0867 94.0197
" />
</g><path d="M15.1511 96.9772
L11.0871 96.9772
" />
<text x="13.1191" y="96.7232"
textLength="2.6222" font-size="1.6933" lengthAdjust="spacingAndGlyphs"
text-anchor="middle" opacity="0">33</text>
<g class="stroked-text"><desc>33</desc>
<path d="M12.0910 95.2897
L12.8772 95.2897
" />
<path d="M12.8772 95.2897
L12.4538 95.7735
" />
<path d="M12.4538 95.7735
L12.6353 95.7735
" />
<path d="M12.6353 95.7735
L12.7562 95.8340
" />
<path d="M12.7562 95.8340
L12.8167 95.8945
" />
<path d="M12.8167 95.8945
L12.8772 96.0154
" />
<path d="M12.8772 96.0154
L12.8772 96.3178
" />
<path d="M12.8772 96.3178
L12.8167 96.4388
" />
<path d="M12.8167 96.4388
L12.7562 96.4993
" />
<path d="M12.7562 96.4993
L12.6353 96.5597
" />
<path d="M12.6353 96.5597
L12.2724 96.5597
" />
<path d="M12.2724 96.5597
L12.1515 96.4993
" />
<path d="M12.1515 96.4993
L12.0910 96.4388
" />
<path d="M13.3005 95.2897
L14.0867 95.2897
" />
<path d="M14.0867 95.2897
L13.6633 95.7735
" />
<path d="M13.6633 95.7735
L13.8448 95.7735
" />
<path d="M13.8448 95.7735
L13.9657 95.8340
" />
<path d="M13.9657 95.8340
L14.0262 95.8945
" />
<path d="M14.0262 95.8945
L14.0867 96.0154
" />
<path d="M14.0867 96.0154
L14.0867 96.3178
" />
<path d="M14.0867 96.3178
L14.0262 96.4388
" />
<path d="M14.0262 96.4388
L13.9657 96.4993
" />
<path d="M13.9657 96.4993
L13.8448 96.5597
" />
<path d="M13.8448 96.5597
L13.4819 96.5597
" />
<path d="M13.4819 96.5597
L13.3610 96.4993
" />
<path d="M13.3610 96.4993
L13.3005 96.4388
" />
</g><path d="M15.1511 99.5172
L11.0871 99.5172
" />
<text x="13.1191" y="99.2632"
textLength="2.6222" font-size="1.6933" lengthAdjust="spacingAndGlyphs"
text-anchor="middle" opacity="0">34</text>
<g class="stroked-text"><desc>34</desc>
<path d="M12.0910 97.8297
L12.8772 97.8297
" />
<path d="M12.8772 97.8297
L12.4538 98.3135
" />
<path d="M12.4538 98.3135
L12.6353 98.3135
" />
<path d="M12.6353 98.3135
L12.7562 98.3740
" />
<path d="M12.7562 98.3740
L12.8167 98.4345
" />
<path d="M12.8167 98.4345
L12.8772 98.5554
" />
<path d="M12.8772 98.5554
L12.8772 98.8578
" />
<path d="M12.8772 98.8578
L12.8167 98.9788
" />
<path d="M12.8167 98.9788
L12.7562 99.0393
" />
<path d="M12.7562 99.0393
L12.6353 99.0997
" />
<path d="M12.6353 99.0997
L12.2724 99.0997
" />
<path d="M12.2724 99.0997
L12.1515 99.0393
" />
<path d="M12.1515 99.0393
L12.0910 98.9788
" />
<path d="M13.9657 98.2531
L13.9657 99.0997
" />
<path d="M13.6633 97.7693
L13.3610 98.6764
" />
<path d="M13.3610 98.6764
L14.1471 98.6764
" />
</g><path d="M15.1511 102.0572
L11.0871 102.0572
" />
<text x="13.1191" y="101.8032"
textLength="2.6222" font-size="1.6933" lengthAdjust="spacingAndGlyphs"
text-anchor="middle" opacity="0">35</text>
<g class="stroked-text"><desc>35</desc>
<path d="M12.0910 100.3697
L12.8772 100.3697
" />
<path d="M12.8772 100.3697
L12.4538 100.8535
" />
<path d="M12.4538 100.8535
L12.6353 100.8535
" />
<path d="M12.6353 100.8535
L12.7562 100.9140
" />
<path d="M12.7562 100.9140
L12.8167 100.9745
" />
<path d="M12.8167 100.9745
L12.8772 101.0954
" />
<path d="M12.8772 101.0954
L12.8772 101.3978
" />
<path d="M12.8772 101.3978
L12.8167 101.5188
" />
<path d="M12.8167 101.5188
L12.7562 101.5793
" />
<path d="M12.7562 101.5793
L12.6353 101.6397
" />
<path d="M12.6353 101.6397
L12.2724 101.6397
" />
<path d="M12.2724 101.6397
L12.1515 101.5793
" />
<path d="M12.1515 101.5793
L12.0910 101.5188
" />
<path d="M14.0262 100.3697
L13.4214 100.3697
" />
<path d="M13.4214 100.3697
L13.3610 100.9745
" />
<path d="M13.3610 100.9745
L13.4214 100.9140
" />
<path d="M13.4214 100.9140
L13.5424 100.8535
" />
<path d="M13.5424 100.8535
L13.8448 100.8535
" />
<path d="M13.8448 100.8535
L13.9657 100.9140
" />
<path d="M13.9657 100.9140
L14.0262 100.9745
" />
<path d="M14.0262 100.9745
L14.0867 101.0954
" />
<path d="M14.0867 101.0954
L14.0867 101.3978
" />
<path d="M14.0867 101.3978
L14.0262 101.5188
" />
<path d="M14.0262 101.5188
L13.9657 101.5793
" />
<path d="M13.9657 101.5793
L13.8448 101.6397
" />
<path d="M13.8448 101.6397
L13.5424 101.6397
" />
<path d="M13.5424 101.6397
L13.4214 101.5793
" />
<path d="M13.4214 101.5793
L13.3610 101.5188
" />
</g><path d="M15.1511 104.5972
L11.0871 104.5972
" />
<text x="13.1191" y="104.3432"
textLength="2.6222" font-size="1.6933" lengthAdjust="spacingAndGlyphs"
text-anchor="middle" opacity="0">36</text>
<g class="stroked-text"><desc>36</desc>
<path d="M12.0910 102.9097
L12.8772 102.9097
" />
<path d="M12.8772 102.9097
L12.4538 103.3935
" />
<path d="M12.4538 103.3935
L12.6353 103.3935
" />
<path d="M12.6353 103.3935
L12.7562 103.4540
" />
<path d="M12.7562 103.4540
L12.8167 103.5145
" />
<path d="M12.8167 103.5145
L12.8772 103.6354
" />
<path d="M12.8772 103.6354
L12.8772 103.9378
" />
<path d="M12.8772 103.9378
L12.8167 104.0588
" />
<path d="M12.8167 104.0588
L12.7562 104.1193
" />
<path d="M12.7562 104.1193
L12.6353 104.1797
" />
<path d="M12.6353 104.1797
L12.2724 104.1797
" />
<path d="M12.2724 104.1797
L12.1515 104.1193
" />
<path d="M12.1515 104.1193
L12.0910 104.0588
" />
<path d="M13.9657 102.9097
L13.7238 102.9097
" />
<path d="M13.7238 102.9097
L13.6029 102.9702
" />
<path d="M13.6029 102.9702
L13.5424 103.0307
" />
<path d="M13.5424 103.0307
L13.4214 103.2121
" />
<path d="M13.4214 103.2121
L13.3610 103.4540
" />
<path d="M13.3610 103.4540
L13.3610 103.9378
" />
<path d="M13.3610 103.9378
L13.4214 104.0588
" />
<path d="M13.4214 104.0588
L13.4819 104.1193
" />
<path d="M13.4819 104.1193
L13.6029 104.1797
" />
<path d="M13.6029 104.1797
L13.8448 104.1797
" />
<path d="M13.8448 104.1797
L13.9657 104.1193
" />
<path d="M13.9657 104.1193
L14.0262 104.0588
" />
<path d="M14.0262 104.0588
L14.0867 103.9378
" />
<path d="M14.0867 103.9378
L14.0867 103.6354
" />
<path d="M14.0867 103.6354
L14.0262 103.5145
" />
<path d="M14.0262 103.5145
L13.9657 103.4540
" />
<path d="M13.9657 103.4540
L13.8448 103.3935
" />
<path d="M13.8448 103.3935
L13.6029 103.3935
" />
<path d="M13.6029 103.3935
L13.4819 103.4540
" />
<path d="M13.4819 103.4540
L13.4214 103.5145
" />
<path d="M13.4214 103.5145
L13.3610 103.6354
" />
</g><path d="M15.1511 107.1372
L11.0871 107.1372
" />
<text x="13.1191" y="106.8832"
textLength="2.6222" font-size="1.6933" lengthAdjust="spacingAndGlyphs"
text-anchor="middle" opacity="0">37</text>
<g class="stroked-text"><desc>37</desc>
<path d="M12.0910 105.4497
L12.8772 105.4497
" />
<path d="M12.8772 105.4497
L12.4538 105.9335
" />
<path d="M12.4538 105.9335
L12.6353 105.9335
" />
<path d="M12.6353 105.9335
L12.7562 105.9940
" />
<path d="M12.7562 105.9940
L12.8167 106.0545
" />
<path d="M12.8167 106.0545
L12.8772 106.1754
" />
<path d="M12.8772 106.1754
L12.8772 106.4778
" />
<path d="M12.8772 106.4778
L12.8167 106.5988
" />
<path d="M12.8167 106.5988
L12.7562 106.6593
" />
<path d="M12.7562 106.6593
L12.6353 106.7197
" />
<path d="M12.6353 106.7197
L12.2724 106.7197
" />
<path d="M12.2724 106.7197
L12.1515 106.6593
" />
<path d="M12.1515 106.6593
L12.0910 106.5988
" />
<path d="M13.3005 105.4497
L14.1471 105.4497
" />
<path d="M14.1471 105.4497
L13.6029 106.7197
" />
</g><path d="M15.1511 109.6772
L11.0871 109.6772
" />
<text x="13.1191" y="109.4232"
textLength="2.6222" font-size="1.6933" lengthAdjust="spacingAndGlyphs"
text-anchor="middle" opacity="0">38</text>
<g class="stroked-text"><desc>38</desc>
<path d="M12.0910 107.9897
L12.8772 107.9897
" />
<path d="M12.8772 107.9897
L12.4538 108.4735
" />
<path d="M12.4538 108.4735
L12.6353 108.4735
" />
<path d="M12.6353 108.4735
L12.7562 108.5340
" />
<path d="M12.7562 108.5340
L12.8167 108.5945
" />
<path d="M12.8167 108.5945
L12.8772 108.7154
" />
<path d="M12.8772 108.7154
L12.8772 109.0178
" />
<path d="M12.8772 109.0178
L12.8167 109.1388
" />
<path d="M12.8167 109.1388
L12.7562 109.1993
" />
<path d="M12.7562 109.1993
L12.6353 109.2597
" />
<path d="M12.6353 109.2597
L12.2724 109.2597
" />
<path d="M12.2724 109.2597
L12.1515 109.1993
" />
<path d="M12.1515 109.1993
L12.0910 109.1388
" />
<path d="M13.6029 108.5340
L13.4819 108.4735
" />
<path d="M13.4819 108.4735
L13.4214 108.4131
" />
<path d="M13.4214 108.4131
L13.3610 108.2921
" />
<path d="M13.3610 108.2921
L13.3610 108.2316
" />
<path d="M13.3610 108.2316
L13.4214 108.1107
" />
<path d="M13.4214 108.1107
L13.4819 108.0502
" />
<path d="M13.4819 108.0502
L13.6029 107.9897
" />
<path d="M13.6029 107.9897
L13.8448 107.9897
" />
<path d="M13.8448 107.9897
L13.9657 108.0502
" />
<path d="M13.9657 108.0502
L14.0262 108.1107
" />
<path d="M14.0262 108.1107
L14.0867 108.2316
" />
<path d="M14.0867 108.2316
L14.0867 108.2921
" />
<path d="M14.0867 108.2921
L14.0262 108.4131
" />
<path d="M14.0262 108.4131
L13.9657 108.4735
" />
<path d="M13.9657 108.4735
L13.8448 108.5340
" />
<path d="M13.8448 108.5340
L13.6029 108.5340
" />
<path d="M13.6029 108.5340
L13.4819 108.5945
" />
<path d="M13.4819 108.5945
L13.4214 108.6550
" />
<path d="M13.4214 108.6550
L13.3610 108.7759
" />
<path d="M13.3610 108.7759
L13.3610 109.0178
" />
<path d="M13.3610 109.0178
L13.4214 109.1388
" />
<path d="M13.4214 109.1388
L13.4819 109.1993
" />
<path d="M13.4819 109.1993
L13.6029 109.2597
" />
<path d="M13.6029 109.2597
L13.8448 109.2597
" />
<path d="M13.8448 109.2597
L13.9657 109.1993
" />
<path d="M13.9657 109.1993
L14.0262 109.1388
" />
<path d="M14.0262 109.1388
L14.0867 109.0178
" />
<path d="M14.0867 109.0178
L14.0867 108.7759
" />
<path d="M14.0867 108.7759
L14.0262 108.6550
" />
<path d="M14.0262 108.6550
L13.9657 108.5945
" />
<path d="M13.9657 108.5945
L13.8448 108.5340
" />
</g><path d="M15.1511 23.3172
L11.0871 23.3172
" />
<text x="13.1191" y="23.0632"
textLength="1.4127" font-size="1.6933" lengthAdjust="spacingAndGlyphs"
text-anchor="middle" opacity="0">4</text>
<g class="stroked-text"><desc>4</desc>
<path d="M13.3610 22.0531
L13.3610 22.8997
" />
<path d="M13.0586 21.5693
L12.7563 22.4764
" />
<path d="M12.7563 22.4764
L13.5424 22.4764
" />
</g><path d="M15.1511 25.8572
L11.0871 25.8572
" />
<text x="13.1191" y="25.6032"
textLength="1.4127" font-size="1.6933" lengthAdjust="spacingAndGlyphs"
text-anchor="middle" opacity="0">5</text>
<g class="stroked-text"><desc>5</desc>
<path d="M13.4215 24.1697
L12.8167 24.1697
" />
<path d="M12.8167 24.1697
L12.7563 24.7745
" />
<path d="M12.7563 24.7745
L12.8167 24.7140
" />
<path d="M12.8167 24.7140
L12.9377 24.6535
" />
<path d="M12.9377 24.6535
L13.2401 24.6535
" />
<path d="M13.2401 24.6535
L13.3610 24.7140
" />
<path d="M13.3610 24.7140
L13.4215 24.7745
" />
<path d="M13.4215 24.7745
L13.4820 24.8954
" />
<path d="M13.4820 24.8954
L13.4820 25.1978
" />
<path d="M13.4820 25.1978
L13.4215 25.3188
" />
<path d="M13.4215 25.3188
L13.3610 25.3793
" />
<path d="M13.3610 25.3793
L13.2401 25.4397
" />
<path d="M13.2401 25.4397
L12.9377 25.4397
" />
<path d="M12.9377 25.4397
L12.8167 25.3793
" />
<path d="M12.8167 25.3793
L12.7563 25.3188
" />
</g><path d="M15.1511 28.3972
L11.0871 28.3972
" />
<text x="13.1191" y="28.1432"
textLength="1.4127" font-size="1.6933" lengthAdjust="spacingAndGlyphs"
text-anchor="middle" opacity="0">6</text>
<g class="stroked-text"><desc>6</desc>
<path d="M13.3610 26.7097
L13.1191 26.7097
" />
<path d="M13.1191 26.7097
L12.9982 26.7702
" />
<path d="M12.9982 26.7702
L12.9377 26.8307
" />
<path d="M12.9377 26.8307
L12.8167 27.0121
" />
<path d="M12.8167 27.0121
L12.7563 27.2540
" />
<path d="M12.7563 27.2540
L12.7563 27.7378
" />
<path d="M12.7563 27.7378
L12.8167 27.8588
" />
<path d="M12.8167 27.8588
L12.8772 27.9193
" />
<path d="M12.8772 27.9193
L12.9982 27.9797
" />
<path d="M12.9982 27.9797
L13.2401 27.9797
" />
<path d="M13.2401 27.9797
L13.3610 27.9193
" />
<path d="M13.3610 27.9193
L13.4215 27.8588
" />
<path d="M13.4215 27.8588
L13.4820 27.7378
" />
<path d="M13.4820 27.7378
L13.4820 27.4354
" />
<path d="M13.4820 27.4354
L13.4215 27.3145
" />
<path d="M13.4215 27.3145
L13.3610 27.2540
" />
<path d="M13.3610 27.2540
L13.2401 27.1935
" />
<path d="M13.2401 27.1935
L12.9982 27.1935
" />
<path d="M12.9982 27.1935
L12.8772 27.2540
" />
<path d="M12.8772 27.2540
L12.8167 27.3145
" />
<path d="M12.8167 27.3145
L12.7563 27.4354
" />
</g><path d="M15.1511 30.9372
L11.0871 30.9372
" />
<text x="13.1191" y="30.6832"
textLength="1.4127" font-size="1.6933" lengthAdjust="spacingAndGlyphs"
text-anchor="middle" opacity="0">7</text>
<g class="stroked-text"><desc>7</desc>
<path d="M12.6958 29.2497
L13.5424 29.2497
" />
<path d="M13.5424 29.2497
L12.9982 30.5197
" />
</g><path d="M15.1511 33.4772
L11.0871 33.4772
" />
<text x="13.1191" y="33.2232"
textLength="1.4127" font-size="1.6933" lengthAdjust="spacingAndGlyphs"
text-anchor="middle" opacity="0">8</text>
<g class="stroked-text"><desc>8</desc>
<path d="M12.9982 32.3340
L12.8772 32.2735
" />
<path d="M12.8772 32.2735
L12.8167 32.2131
" />
<path d="M12.8167 32.2131
L12.7563 32.0921
" />
<path d="M12.7563 32.0921
L12.7563 32.0316
" />
<path d="M12.7563 32.0316
L12.8167 31.9107
" />
<path d="M12.8167 31.9107
L12.8772 31.8502
" />
<path d="M12.8772 31.8502
L12.9982 31.7897
" />
<path d="M12.9982 31.7897
L13.2401 31.7897
" />
<path d="M13.2401 31.7897
L13.3610 31.8502
" />
<path d="M13.3610 31.8502
L13.4215 31.9107
" />
<path d="M13.4215 31.9107
L13.4820 32.0316
" />
<path d="M13.4820 32.0316
L13.4820 32.0921
" />
<path d="M13.4820 32.0921
L13.4215 32.2131
" />
<path d="M13.4215 32.2131
L13.3610 32.2735
" />
<path d="M13.3610 32.2735
L13.2401 32.3340
" />
<path d="M13.2401 32.3340
L12.9982 32.3340
" />
<path d="M12.9982 32.3340
L12.8772 32.3945
" />
<path d="M12.8772 32.3945
L12.8167 32.4550
" />
<path d="M12.8167 32.4550
L12.7563 32.5759
" />
<path d="M12.7563 32.5759
L12.7563 32.8178
" />
<path d="M12.7563 32.8178
L12.8167 32.9388
" />
<path d="M12.8167 32.9388
L12.8772 32.9993
" />
<path d="M12.8772 32.9993
L12.9982 33.0597
" />
<path d="M12.9982 33.0597
L13.2401 33.0597
" />
<path d="M13.2401 33.0597
L13.3610 32.9993
" />
<path d="M13.3610 32.9993
L13.4215 32.9388
" />
<path d="M13.4215 32.9388
L13.4820 32.8178
" />
<path d="M13.4820 32.8178
L13.4820 32.5759
" />
<path d="M13.4820 32.5759
L13.4215 32.4550
" />
<path d="M13.4215 32.4550
L13.3610 32.3945
" />
<path d="M13.3610 32.3945
L13.2401 32.3340
" />
</g><path d="M15.1511 36.0172
L11.0871 36.0172
" />
<text x="13.1191" y="35.7632"
textLength="1.4127" font-size="1.6933" lengthAdjust="spacingAndGlyphs"
text-anchor="middle" opacity="0">9</text>
<g class="stroked-text"><desc>9</desc>
<path d="M12.8772 35.5997
L13.1191 35.5997
" />
<path d="M13.1191 35.5997
L13.2401 35.5393
" />
<path d="M13.2401 35.5393
L13.3005 35.4788
" />
<path d="M13.3005 35.4788
L13.4215 35.2973
" />
<path d="M13.4215 35.2973
L13.4820 35.0554
" />
<path d="M13.4820 35.0554
L13.4820 34.5716
" />
<path d="M13.4820 34.5716
L13.4215 34.4507
" />
<path d="M13.4215 34.4507
L13.3610 34.3902
" />
<path d="M13.3610 34.3902
L13.2401 34.3297
" />
<path d="M13.2401 34.3297
L12.9982 34.3297
" />
<path d="M12.9982 34.3297
L12.8772 34.3902
" />
<path d="M12.8772 34.3902
L12.8167 34.4507
" />
<path d="M12.8167 34.4507
L12.7563 34.5716
" />
<path d="M12.7563 34.5716
L12.7563 34.8740
" />
<path d="M12.7563 34.8740
L12.8167 34.9950
" />
<path d="M12.8167 34.9950
L12.8772 35.0554
" />
<path d="M12.8772 35.0554
L12.9982 35.1159
" />
<path d="M12.9982 35.1159
L13.2401 35.1159
" />
<path d="M13.2401 35.1159
L13.3610 35.0554
" />
<path d="M13.3610 35.0554
L13.4215 34.9950
" />
<path d="M13.4215 34.9950
L13.4820 34.8740
" />
</g><path d="M16.1671 110.9472
L16.1671 114.7572
" />
<g transform="rotate(-90.000000 15.9131 112.8522)">
<text x="15.9131" y="112.8522"
textLength="2.7432" font-size="1.6933" lengthAdjust="spacingAndGlyphs"
text-anchor="middle" opacity="0">SH</text>
</g>
<g class="stroked-text"><desc>SH</desc>
<path d="M15.6892 113.8802
L15.7496 113.6988
" />
<path d="M15.7496 113.6988
L15.7496 113.3964
" />
<path d="M15.7496 113.3964
L15.6892 113.2755
" />
<path d="M15.6892 113.2755
L15.6287 113.2150
" />
<path d="M15.6287 113.2150
L15.5077 113.1545
" />
<path d="M15.5077 113.1545
L15.3868 113.1545
" />
<path d="M15.3868 113.1545
L15.2658 113.2150
" />
<path d="M15.2658 113.2150
L15.2053 113.2755
" />
<path d="M15.2053 113.2755
L15.1449 113.3964
" />
<path d="M15.1449 113.3964
L15.0844 113.6383
" />
<path d="M15.0844 113.6383
L15.0239 113.7593
" />
<path d="M15.0239 113.7593
L14.9634 113.8198
" />
<path d="M14.9634 113.8198
L14.8425 113.8802
" />
<path d="M14.8425 113.8802
L14.7215 113.8802
" />
<path d="M14.7215 113.8802
L14.6006 113.8198
" />
<path d="M14.6006 113.8198
L14.5401 113.7593
" />
<path d="M14.5401 113.7593
L14.4796 113.6383
" />
<path d="M14.4796 113.6383
L14.4796 113.3360
" />
<path d="M14.4796 113.3360
L14.5401 113.1545
" />
<path d="M15.7496 112.6103
L14.4796 112.6103
" />
<path d="M15.0844 112.6103
L15.0844 111.8846
" />
<path d="M15.7496 111.8846
L14.4796 111.8846
" />
</g></g>
<g style="fill:#000000; fill-opacity:0.0; 
stroke:#000000; stroke-width:0.1588; stroke-opacity:1; 
stroke-linecap:round; stroke-linejoin:round;">
<text x="16.4211" y="14.0462"
textLength="2.2786" font-size="1.6933" lengthAdjust="spacingAndGlyphs"
text-anchor="middle" opacity="0">J?</text>
<g class="stroked-text"><desc>J?</desc>
<path d="M16.0582 12.7204
L16.0582 13.6276
" />
<path d="M16.0582 13.6276
L15.9977 13.8090
" />
<path d="M15.9977 13.8090
L15.8768 13.9300
" />
<path d="M15.8768 13.9300
L15.6953 13.9904
" />
<path d="M15.6953 13.9904
L15.5744 13.9904
" />
<path d="M16.8444 13.8695
L16.9048 13.9300
" />
<path d="M16.9048 13.9300
L16.8444 13.9904
" />
<path d="M16.8444 13.9904
L16.7839 13.9300
" />
<path d="M16.7839 13.9300
L16.8444 13.8695
" />
<path d="M16.8444 13.8695
L16.8444 13.9904
" />
<path d="M16.6025 12.7809
L16.7234 12.7204
" />
<path d="M16.7234 12.7204
L17.0258 12.7204
" />
<path d="M17.0258 12.7204
L17.1467 12.7809
" />
<path d="M17.1467 12.7809
L17.2072 12.9019
" />
<path d="M17.2072 12.9019
L17.2072 13.0228
" />
<path d="M17.2072 13.0228
L17.1467 13.1438
" />
<path d="M17.1467 13.1438
L17.0863 13.2042
" />
<path d="M17.0863 13.2042
L16.9653 13.2647
" />
<path d="M16.9653 13.2647
L16.9048 13.3252
" />
<path d="M16.9048 13.3252
L16.8444 13.4461
" />
<path d="M16.8444 13.4461
L16.8444 13.5066
" />
</g><text x="27.6053" y="112.5982"
textLength="20.8444" font-size="1.6933" lengthAdjust="spacingAndGlyphs"
text-anchor="middle" opacity="0">Conn_01x38_Shielded</text>
<g class="stroked-text"><desc>Conn_01x38_Shielded</desc>
<path d="M18.3223 112.4215
L18.2619 112.4820
" />
<path d="M18.2619 112.4820
L18.0804 112.5424
" />
<path d="M18.0804 112.5424
L17.9595 112.5424
" />
<path d="M17.9595 112.5424
L17.7781 112.4820
" />
<path d="M17.7781 112.4820
L17.6571 112.3610
" />
<path d="M17.6571 112.3610
L17.5966 112.2400
" />
<path d="M17.5966 112.2400
L17.5362 111.9981
" />
<path d="M17.5362 111.9981
L17.5362 111.8167
" />
<path d="M17.5362 111.8167
L17.5966 111.5748
" />
<path d="M17.5966 111.5748
L17.6571 111.4539
" />
<path d="M17.6571 111.4539
L17.7781 111.3329
" />
<path d="M17.7781 111.3329
L17.9595 111.2724
" />
<path d="M17.9595 111.2724
L18.0804 111.2724
" />
<path d="M18.0804 111.2724
L18.2619 111.3329
" />
<path d="M18.2619 111.3329
L18.3223 111.3934
" />
<path d="M19.0481 112.5424
L18.9271 112.4820
" />
<path d="M18.9271 112.4820
L18.8666 112.4215
" />
<path d="M18.8666 112.4215
L18.8062 112.3005
" />
<path d="M18.8062 112.3005
L18.8062 111.9377
" />
<path d="M18.8062 111.9377
L18.8666 111.8167
" />
<path d="M18.8666 111.8167
L18.9271 111.7562
" />
<path d="M18.9271 111.7562
L19.0481 111.6958
" />
<path d="M19.0481 111.6958
L19.2295 111.6958
" />
<path d="M19.2295 111.6958
L19.3504 111.7562
" />
<path d="M19.3504 111.7562
L19.4109 111.8167
" />
<path d="M19.4109 111.8167
L19.4714 111.9377
" />
<path d="M19.4714 111.9377
L19.4714 112.3005
" />
<path d="M19.4714 112.3005
L19.4109 112.4215
" />
<path d="M19.4109 112.4215
L19.3504 112.4820
" />
<path d="M19.3504 112.4820
L19.2295 112.5424
" />
<path d="M19.2295 112.5424
L19.0481 112.5424
" />
<path d="M20.0156 111.6958
L20.0156 112.5424
" />
<path d="M20.0156 111.8167
L20.0761 111.7562
" />
<path d="M20.0761 111.7562
L20.1971 111.6958
" />
<path d="M20.1971 111.6958
L20.3785 111.6958
" />
<path d="M20.3785 111.6958
L20.4994 111.7562
" />
<path d="M20.4994 111.7562
L20.5599 111.8772
" />
<path d="M20.5599 111.8772
L20.5599 112.5424
" />
<path d="M21.1646 111.6958
L21.1646 112.5424
" />
<path d="M21.1646 111.8167
L21.2251 111.7562
" />
<path d="M21.2251 111.7562
L21.3461 111.6958
" />
<path d="M21.3461 111.6958
L21.5275 111.6958
" />
<path d="M21.5275 111.6958
L21.6484 111.7562
" />
<path d="M21.6484 111.7562
L21.7089 111.8772
" />
<path d="M21.7089 111.8772
L21.7089 112.5424
" />
<path d="M22.0113 112.6634
L22.9789 112.6634
" />
<path d="M23.5231 111.2724
L23.6441 111.2724
" />
<path d="M23.6441 111.2724
L23.7650 111.3329
" />
<path d="M23.7650 111.3329
L23.8255 111.3934
" />
<path d="M23.8255 111.3934
L23.8860 111.5143
" />
<path d="M23.8860 111.5143
L23.9465 111.7562
" />
<path d="M23.9465 111.7562
L23.9465 112.0586
" />
<path d="M23.9465 112.0586
L23.8860 112.3005
" />
<path d="M23.8860 112.3005
L23.8255 112.4215
" />
<path d="M23.8255 112.4215
L23.7650 112.4820
" />
<path d="M23.7650 112.4820
L23.6441 112.5424
" />
<path d="M23.6441 112.5424
L23.5231 112.5424
" />
<path d="M23.5231 112.5424
L23.4022 112.4820
" />
<path d="M23.4022 112.4820
L23.3417 112.4215
" />
<path d="M23.3417 112.4215
L23.2812 112.3005
" />
<path d="M23.2812 112.3005
L23.2208 112.0586
" />
<path d="M23.2208 112.0586
L23.2208 111.7562
" />
<path d="M23.2208 111.7562
L23.2812 111.5143
" />
<path d="M23.2812 111.5143
L23.3417 111.3934
" />
<path d="M23.3417 111.3934
L23.4022 111.3329
" />
<path d="M23.4022 111.3329
L23.5231 111.2724
" />
<path d="M25.1560 112.5424
L24.4303 112.5424
" />
<path d="M24.7931 112.5424
L24.7931 111.2724
" />
<path d="M24.7931 111.2724
L24.6722 111.4539
" />
<path d="M24.6722 111.4539
L24.5512 111.5748
" />
<path d="M24.5512 111.5748
L24.4303 111.6353
" />
<path d="M25.5793 112.5424
L26.2445 111.6958
" />
<path d="M25.5793 111.6958
L26.2445 112.5424
" />
<path d="M26.6074 111.2724
L27.3936 111.2724
" />
<path d="M27.3936 111.2724
L26.9702 111.7562
" />
<path d="M26.9702 111.7562
L27.1517 111.7562
" />
<path d="M27.1517 111.7562
L27.2726 111.8167
" />
<path d="M27.2726 111.8167
L27.3331 111.8772
" />
<path d="M27.3331 111.8772
L27.3936 111.9981
" />
<path d="M27.3936 111.9981
L27.3936 112.3005
" />
<path d="M27.3936 112.3005
L27.3331 112.4215
" />
<path d="M27.3331 112.4215
L27.2726 112.4820
" />
<path d="M27.2726 112.4820
L27.1517 112.5424
" />
<path d="M27.1517 112.5424
L26.7888 112.5424
" />
<path d="M26.7888 112.5424
L26.6679 112.4820
" />
<path d="M26.6679 112.4820
L26.6074 112.4215
" />
<path d="M28.1193 111.8167
L27.9983 111.7562
" />
<path d="M27.9983 111.7562
L27.9378 111.6958
" />
<path d="M27.9378 111.6958
L27.8774 111.5748
" />
<path d="M27.8774 111.5748
L27.8774 111.5143
" />
<path d="M27.8774 111.5143
L27.9378 111.3934
" />
<path d="M27.9378 111.3934
L27.9983 111.3329
" />
<path d="M27.9983 111.3329
L28.1193 111.2724
" />
<path d="M28.1193 111.2724
L28.3612 111.2724
" />
<path d="M28.3612 111.2724
L28.4821 111.3329
" />
<path d="M28.4821 111.3329
L28.5426 111.3934
" />
<path d="M28.5426 111.3934
L28.6031 111.5143
" />
<path d="M28.6031 111.5143
L28.6031 111.5748
" />
<path d="M28.6031 111.5748
L28.5426 111.6958
" />
<path d="M28.5426 111.6958
L28.4821 111.7562
" />
<path d="M28.4821 111.7562
L28.3612 111.8167
" />
<path d="M28.3612 111.8167
L28.1193 111.8167
" />
<path d="M28.1193 111.8167
L27.9983 111.8772
" />
<path d="M27.9983 111.8772
L27.9378 111.9377
" />
<path d="M27.9378 111.9377
L27.8774 112.0586
" />
<path d="M27.8774 112.0586
L27.8774 112.3005
" />
<path d="M27.8774 112.3005
L27.9378 112.4215
" />
<path d="M27.9378 112.4215
L27.9983 112.4820
" />
<path d="M27.9983 112.4820
L28.1193 112.5424
" />
<path d="M28.1193 112.5424
L28.3612 112.5424
" />
<path d="M28.3612 112.5424
L28.4821 112.4820
" />
<path d="M28.4821 112.4820
L28.5426 112.4215
" />
<path d="M28.5426 112.4215
L28.6031 112.3005
" />
<path d="M28.6031 112.3005
L28.6031 112.0586
" />
<path d="M28.6031 112.0586
L28.5426 111.9377
" />
<path d="M28.5426 111.9377
L28.4821 111.8772
" />
<path d="M28.4821 111.8772
L28.3612 111.8167
" />
<path d="M28.8450 112.6634
L29.8126 112.6634
" />
<path d="M30.0545 112.4820
L30.2359 112.5424
" />
<path d="M30.2359 112.5424
L30.5383 112.5424
" />
<path d="M30.5383 112.5424
L30.6592 112.4820
" />
<path d="M30.6592 112.4820
L30.7197 112.4215
" />
<path d="M30.7197 112.4215
L30.7802 112.3005
" />
<path d="M30.7802 112.3005
L30.7802 112.1796
" />
<path d="M30.7802 112.1796
L30.7197 112.0586
" />
<path d="M30.7197 112.0586
L30.6592 111.9981
" />
<path d="M30.6592 111.9981
L30.5383 111.9377
" />
<path d="M30.5383 111.9377
L30.2964 111.8772
" />
<path d="M30.2964 111.8772
L30.1754 111.8167
" />
<path d="M30.1754 111.8167
L30.1149 111.7562
" />
<path d="M30.1149 111.7562
L30.0545 111.6353
" />
<path d="M30.0545 111.6353
L30.0545 111.5143
" />
<path d="M30.0545 111.5143
L30.1149 111.3934
" />
<path d="M30.1149 111.3934
L30.1754 111.3329
" />
<path d="M30.1754 111.3329
L30.2964 111.2724
" />
<path d="M30.2964 111.2724
L30.5987 111.2724
" />
<path d="M30.5987 111.2724
L30.7802 111.3329
" />
<path d="M31.3244 112.5424
L31.3244 111.2724
" />
<path d="M31.8687 112.5424
L31.8687 111.8772
" />
<path d="M31.8687 111.8772
L31.8082 111.7562
" />
<path d="M31.8082 111.7562
L31.6873 111.6958
" />
<path d="M31.6873 111.6958
L31.5059 111.6958
" />
<path d="M31.5059 111.6958
L31.3849 111.7562
" />
<path d="M31.3849 111.7562
L31.3244 111.8167
" />
<path d="M32.4734 112.5424
L32.4734 111.6958
" />
<path d="M32.4734 111.2724
L32.4130 111.3329
" />
<path d="M32.4130 111.3329
L32.4734 111.3934
" />
<path d="M32.4734 111.3934
L32.5339 111.3329
" />
<path d="M32.5339 111.3329
L32.4734 111.2724
" />
<path d="M32.4734 111.2724
L32.4734 111.3934
" />
<path d="M33.5620 112.4820
L33.4411 112.5424
" />
<path d="M33.4411 112.5424
L33.1992 112.5424
" />
<path d="M33.1992 112.5424
L33.0782 112.4820
" />
<path d="M33.0782 112.4820
L33.0178 112.3610
" />
<path d="M33.0178 112.3610
L33.0178 111.8772
" />
<path d="M33.0178 111.8772
L33.0782 111.7562
" />
<path d="M33.0782 111.7562
L33.1992 111.6958
" />
<path d="M33.1992 111.6958
L33.4411 111.6958
" />
<path d="M33.4411 111.6958
L33.5620 111.7562
" />
<path d="M33.5620 111.7562
L33.6225 111.8772
" />
<path d="M33.6225 111.8772
L33.6225 111.9981
" />
<path d="M33.6225 111.9981
L33.0178 112.1191
" />
<path d="M34.3483 112.5424
L34.2273 112.4820
" />
<path d="M34.2273 112.4820
L34.1668 112.3610
" />
<path d="M34.1668 112.3610
L34.1668 111.2724
" />
<path d="M35.3763 112.5424
L35.3763 111.2724
" />
<path d="M35.3763 112.4820
L35.2554 112.5424
" />
<path d="M35.2554 112.5424
L35.0135 112.5424
" />
<path d="M35.0135 112.5424
L34.8925 112.4820
" />
<path d="M34.8925 112.4820
L34.8320 112.4215
" />
<path d="M34.8320 112.4215
L34.7716 112.3005
" />
<path d="M34.7716 112.3005
L34.7716 111.9377
" />
<path d="M34.7716 111.9377
L34.8320 111.8167
" />
<path d="M34.8320 111.8167
L34.8925 111.7562
" />
<path d="M34.8925 111.7562
L35.0135 111.6958
" />
<path d="M35.0135 111.6958
L35.2554 111.6958
" />
<path d="M35.2554 111.6958
L35.3763 111.7562
" />
<path d="M36.4648 112.4820
L36.3439 112.5424
" />
<path d="M36.3439 112.5424
L36.1020 112.5424
" />
<path d="M36.1020 112.5424
L35.9810 112.4820
" />
<path d="M35.9810 112.4820
L35.9206 112.3610
" />
<path d="M35.9206 112.3610
L35.9206 111.8772
" />
<path d="M35.9206 111.8772
L35.9810 111.7562
" />
<path d="M35.9810 111.7562
L36.1020 111.6958
" />
<path d="M36.1020 111.6958
L36.3439 111.6958
" />
<path d="M36.3439 111.6958
L36.4648 111.7562
" />
<path d="M36.4648 111.7562
L36.5253 111.8772
" />
<path d="M36.5253 111.8772
L36.5253 111.9981
" />
<path d="M36.5253 111.9981
L35.9206 112.1191
" />
<path d="M37.6139 112.5424
L37.6139 111.2724
" />
<path d="M37.6139 112.4820
L37.4930 112.5424
" />
<path d="M37.4930 112.5424
L37.2511 112.5424
" />
<path d="M37.2511 112.5424
L37.1301 112.4820
" />
<path d="M37.1301 112.4820
L37.0696 112.4215
" />
<path d="M37.0696 112.4215
L37.0092 112.3005
" />
<path d="M37.0092 112.3005
L37.0092 111.9377
" />
<path d="M37.0092 111.9377
L37.0696 111.8167
" />
<path d="M37.0696 111.8167
L37.1301 111.7562
" />
<path d="M37.1301 111.7562
L37.2511 111.6958
" />
<path d="M37.2511 111.6958
L37.4930 111.6958
" />
<path d="M37.4930 111.6958
L37.6139 111.7562
" />
</g></g> 
</svg>
