<?xml version="1.0" standalone="no"?>
 <!DOCTYPE svg PUBLIC "-//W3C//DTD SVG 1.1//EN" 
 "http://www.w3.org/Graphics/SVG/1.1/DTD/svg11.dtd"> 
<svg
  xmlns:svg="http://www.w3.org/2000/svg"
  xmlns="http://www.w3.org/2000/svg"
  xmlns:xlink="http://www.w3.org/1999/xlink"
  version="1.1"
  width="32.3342mm" height="13.1064mm" viewBox="0.0000 0.0000 32.3342 13.1064">
<title>SVG Image created as conn_01x02_shielded.svg date 2024/01/16 15:18:23 </title>
  <desc>Image generated by Eeschema-SVG </desc>
<g style="fill:#000000; fill-opacity:1.0000;stroke:#000000; stroke-opacity:1.0000;
stroke-linecap:round; stroke-linejoin:round;"
 transform="translate(0 0) scale(1 1)">
</g>
<g style="fill:#000000; fill-opacity:0.0; 
stroke:#000000; stroke-width:0.0000; stroke-opacity:1; 
stroke-linecap:round; stroke-linejoin:round;">
</g>
<g style="fill:#000000; fill-opacity:0.0; 
stroke:#000000; stroke-width:0.1524; stroke-opacity:1; 
stroke-linecap:round; stroke-linejoin:round;">
<rect x="14.897100" y="5.283200" width="2.540000" height="5.080000" rx="0.000000" />
<rect x="15.151100" y="8.966200" width="1.270000" height="0.254000" rx="0.000000" />
<rect x="15.151100" y="6.426200" width="1.270000" height="0.254000" rx="0.000000" />
</g>
<g style="fill:#000000; fill-opacity:0.0; 
stroke:#000000; stroke-width:0.2540; stroke-opacity:1; 
stroke-linecap:round; stroke-linejoin:round;">
<rect x="15.151100" y="5.537200" width="2.032000" height="4.572000" rx="0.000000" />
</g>
<g style="fill:#000000; fill-opacity:0.0; 
stroke:#000000; stroke-width:0.1524; stroke-opacity:1; 
stroke-linecap:round; stroke-linejoin:round;">
<path d="M15.1511 6.5532
L11.0871 6.5532
" />
<text x="13.1191" y="6.2992"
textLength="1.4127" font-size="1.6933" lengthAdjust="spacingAndGlyphs"
text-anchor="middle" opacity="0">1</text>
<g class="stroked-text"><desc>1</desc>
<path d="M13.4820 6.1357
L12.7563 6.1357
" />
<path d="M13.1191 6.1357
L13.1191 4.8657
" />
<path d="M13.1191 4.8657
L12.9982 5.0472
" />
<path d="M12.9982 5.0472
L12.8772 5.1681
" />
<path d="M12.8772 5.1681
L12.7563 5.2286
" />
</g><path d="M15.1511 9.0932
L11.0871 9.0932
" />
<text x="13.1191" y="8.8392"
textLength="1.4127" font-size="1.6933" lengthAdjust="spacingAndGlyphs"
text-anchor="middle" opacity="0">2</text>
<g class="stroked-text"><desc>2</desc>
<path d="M12.7563 7.5267
L12.8167 7.4662
" />
<path d="M12.8167 7.4662
L12.9377 7.4057
" />
<path d="M12.9377 7.4057
L13.2401 7.4057
" />
<path d="M13.2401 7.4057
L13.3610 7.4662
" />
<path d="M13.3610 7.4662
L13.4215 7.5267
" />
<path d="M13.4215 7.5267
L13.4820 7.6476
" />
<path d="M13.4820 7.6476
L13.4820 7.7686
" />
<path d="M13.4820 7.7686
L13.4215 7.9500
" />
<path d="M13.4215 7.9500
L12.6958 8.6757
" />
<path d="M12.6958 8.6757
L13.4820 8.6757
" />
</g><path d="M16.1671 10.3632
L16.1671 14.1732
" />
<g transform="rotate(-90.000000 15.9131 12.2682)">
<text x="15.9131" y="12.2682"
textLength="2.7432" font-size="1.6933" lengthAdjust="spacingAndGlyphs"
text-anchor="middle" opacity="0">SH</text>
</g>
<g class="stroked-text"><desc>SH</desc>
<path d="M15.6892 13.2962
L15.7496 13.1148
" />
<path d="M15.7496 13.1148
L15.7496 12.8124
" />
<path d="M15.7496 12.8124
L15.6892 12.6915
" />
<path d="M15.6892 12.6915
L15.6287 12.6310
" />
<path d="M15.6287 12.6310
L15.5077 12.5705
" />
<path d="M15.5077 12.5705
L15.3868 12.5705
" />
<path d="M15.3868 12.5705
L15.2658 12.6310
" />
<path d="M15.2658 12.6310
L15.2053 12.6915
" />
<path d="M15.2053 12.6915
L15.1449 12.8124
" />
<path d="M15.1449 12.8124
L15.0844 13.0543
" />
<path d="M15.0844 13.0543
L15.0239 13.1753
" />
<path d="M15.0239 13.1753
L14.9634 13.2358
" />
<path d="M14.9634 13.2358
L14.8425 13.2962
" />
<path d="M14.8425 13.2962
L14.7215 13.2962
" />
<path d="M14.7215 13.2962
L14.6006 13.2358
" />
<path d="M14.6006 13.2358
L14.5401 13.1753
" />
<path d="M14.5401 13.1753
L14.4796 13.0543
" />
<path d="M14.4796 13.0543
L14.4796 12.7520
" />
<path d="M14.4796 12.7520
L14.5401 12.5705
" />
<path d="M15.7496 12.0263
L14.4796 12.0263
" />
<path d="M15.0844 12.0263
L15.0844 11.3006
" />
<path d="M15.7496 11.3006
L14.4796 11.3006
" />
</g></g>
<g style="fill:#000000; fill-opacity:0.0; 
stroke:#000000; stroke-width:0.1588; stroke-opacity:1; 
stroke-linecap:round; stroke-linejoin:round;">
<text x="16.4211" y="4.9022"
textLength="2.2786" font-size="1.6933" lengthAdjust="spacingAndGlyphs"
text-anchor="middle" opacity="0">J?</text>
<g class="stroked-text"><desc>J?</desc>
<path d="M16.0582 3.5764
L16.0582 4.4836
" />
<path d="M16.0582 4.4836
L15.9977 4.6650
" />
<path d="M15.9977 4.6650
L15.8768 4.7860
" />
<path d="M15.8768 4.7860
L15.6953 4.8464
" />
<path d="M15.6953 4.8464
L15.5744 4.8464
" />
<path d="M16.8444 4.7255
L16.9048 4.7860
" />
<path d="M16.9048 4.7860
L16.8444 4.8464
" />
<path d="M16.8444 4.8464
L16.7839 4.7860
" />
<path d="M16.7839 4.7860
L16.8444 4.7255
" />
<path d="M16.8444 4.7255
L16.8444 4.8464
" />
<path d="M16.6025 3.6369
L16.7234 3.5764
" />
<path d="M16.7234 3.5764
L17.0258 3.5764
" />
<path d="M17.0258 3.5764
L17.1467 3.6369
" />
<path d="M17.1467 3.6369
L17.2072 3.7579
" />
<path d="M17.2072 3.7579
L17.2072 3.8788
" />
<path d="M17.2072 3.8788
L17.1467 3.9998
" />
<path d="M17.1467 3.9998
L17.0863 4.0602
" />
<path d="M17.0863 4.0602
L16.9653 4.1207
" />
<path d="M16.9653 4.1207
L16.9048 4.1812
" />
<path d="M16.9048 4.1812
L16.8444 4.3021
" />
<path d="M16.8444 4.3021
L16.8444 4.3626
" />
</g><text x="27.6053" y="12.0142"
textLength="20.8444" font-size="1.6933" lengthAdjust="spacingAndGlyphs"
text-anchor="middle" opacity="0">Conn_01x02_Shielded</text>
<g class="stroked-text"><desc>Conn_01x02_Shielded</desc>
<path d="M18.3223 11.8375
L18.2619 11.8980
" />
<path d="M18.2619 11.8980
L18.0804 11.9584
" />
<path d="M18.0804 11.9584
L17.9595 11.9584
" />
<path d="M17.9595 11.9584
L17.7781 11.8980
" />
<path d="M17.7781 11.8980
L17.6571 11.7770
" />
<path d="M17.6571 11.7770
L17.5966 11.6560
" />
<path d="M17.5966 11.6560
L17.5362 11.4141
" />
<path d="M17.5362 11.4141
L17.5362 11.2327
" />
<path d="M17.5362 11.2327
L17.5966 10.9908
" />
<path d="M17.5966 10.9908
L17.6571 10.8699
" />
<path d="M17.6571 10.8699
L17.7781 10.7489
" />
<path d="M17.7781 10.7489
L17.9595 10.6884
" />
<path d="M17.9595 10.6884
L18.0804 10.6884
" />
<path d="M18.0804 10.6884
L18.2619 10.7489
" />
<path d="M18.2619 10.7489
L18.3223 10.8094
" />
<path d="M19.0481 11.9584
L18.9271 11.8980
" />
<path d="M18.9271 11.8980
L18.8666 11.8375
" />
<path d="M18.8666 11.8375
L18.8062 11.7165
" />
<path d="M18.8062 11.7165
L18.8062 11.3537
" />
<path d="M18.8062 11.3537
L18.8666 11.2327
" />
<path d="M18.8666 11.2327
L18.9271 11.1722
" />
<path d="M18.9271 11.1722
L19.0481 11.1118
" />
<path d="M19.0481 11.1118
L19.2295 11.1118
" />
<path d="M19.2295 11.1118
L19.3504 11.1722
" />
<path d="M19.3504 11.1722
L19.4109 11.2327
" />
<path d="M19.4109 11.2327
L19.4714 11.3537
" />
<path d="M19.4714 11.3537
L19.4714 11.7165
" />
<path d="M19.4714 11.7165
L19.4109 11.8375
" />
<path d="M19.4109 11.8375
L19.3504 11.8980
" />
<path d="M19.3504 11.8980
L19.2295 11.9584
" />
<path d="M19.2295 11.9584
L19.0481 11.9584
" />
<path d="M20.0156 11.1118
L20.0156 11.9584
" />
<path d="M20.0156 11.2327
L20.0761 11.1722
" />
<path d="M20.0761 11.1722
L20.1971 11.1118
" />
<path d="M20.1971 11.1118
L20.3785 11.1118
" />
<path d="M20.3785 11.1118
L20.4994 11.1722
" />
<path d="M20.4994 11.1722
L20.5599 11.2932
" />
<path d="M20.5599 11.2932
L20.5599 11.9584
" />
<path d="M21.1646 11.1118
L21.1646 11.9584
" />
<path d="M21.1646 11.2327
L21.2251 11.1722
" />
<path d="M21.2251 11.1722
L21.3461 11.1118
" />
<path d="M21.3461 11.1118
L21.5275 11.1118
" />
<path d="M21.5275 11.1118
L21.6484 11.1722
" />
<path d="M21.6484 11.1722
L21.7089 11.2932
" />
<path d="M21.7089 11.2932
L21.7089 11.9584
" />
<path d="M22.0113 12.0794
L22.9789 12.0794
" />
<path d="M23.5231 10.6884
L23.6441 10.6884
" />
<path d="M23.6441 10.6884
L23.7650 10.7489
" />
<path d="M23.7650 10.7489
L23.8255 10.8094
" />
<path d="M23.8255 10.8094
L23.8860 10.9303
" />
<path d="M23.8860 10.9303
L23.9465 11.1722
" />
<path d="M23.9465 11.1722
L23.9465 11.4746
" />
<path d="M23.9465 11.4746
L23.8860 11.7165
" />
<path d="M23.8860 11.7165
L23.8255 11.8375
" />
<path d="M23.8255 11.8375
L23.7650 11.8980
" />
<path d="M23.7650 11.8980
L23.6441 11.9584
" />
<path d="M23.6441 11.9584
L23.5231 11.9584
" />
<path d="M23.5231 11.9584
L23.4022 11.8980
" />
<path d="M23.4022 11.8980
L23.3417 11.8375
" />
<path d="M23.3417 11.8375
L23.2812 11.7165
" />
<path d="M23.2812 11.7165
L23.2208 11.4746
" />
<path d="M23.2208 11.4746
L23.2208 11.1722
" />
<path d="M23.2208 11.1722
L23.2812 10.9303
" />
<path d="M23.2812 10.9303
L23.3417 10.8094
" />
<path d="M23.3417 10.8094
L23.4022 10.7489
" />
<path d="M23.4022 10.7489
L23.5231 10.6884
" />
<path d="M25.1560 11.9584
L24.4303 11.9584
" />
<path d="M24.7931 11.9584
L24.7931 10.6884
" />
<path d="M24.7931 10.6884
L24.6722 10.8699
" />
<path d="M24.6722 10.8699
L24.5512 10.9908
" />
<path d="M24.5512 10.9908
L24.4303 11.0513
" />
<path d="M25.5793 11.9584
L26.2445 11.1118
" />
<path d="M25.5793 11.1118
L26.2445 11.9584
" />
<path d="M26.9702 10.6884
L27.0912 10.6884
" />
<path d="M27.0912 10.6884
L27.2121 10.7489
" />
<path d="M27.2121 10.7489
L27.2726 10.8094
" />
<path d="M27.2726 10.8094
L27.3331 10.9303
" />
<path d="M27.3331 10.9303
L27.3936 11.1722
" />
<path d="M27.3936 11.1722
L27.3936 11.4746
" />
<path d="M27.3936 11.4746
L27.3331 11.7165
" />
<path d="M27.3331 11.7165
L27.2726 11.8375
" />
<path d="M27.2726 11.8375
L27.2121 11.8980
" />
<path d="M27.2121 11.8980
L27.0912 11.9584
" />
<path d="M27.0912 11.9584
L26.9702 11.9584
" />
<path d="M26.9702 11.9584
L26.8493 11.8980
" />
<path d="M26.8493 11.8980
L26.7888 11.8375
" />
<path d="M26.7888 11.8375
L26.7283 11.7165
" />
<path d="M26.7283 11.7165
L26.6679 11.4746
" />
<path d="M26.6679 11.4746
L26.6679 11.1722
" />
<path d="M26.6679 11.1722
L26.7283 10.9303
" />
<path d="M26.7283 10.9303
L26.7888 10.8094
" />
<path d="M26.7888 10.8094
L26.8493 10.7489
" />
<path d="M26.8493 10.7489
L26.9702 10.6884
" />
<path d="M27.8774 10.8094
L27.9378 10.7489
" />
<path d="M27.9378 10.7489
L28.0588 10.6884
" />
<path d="M28.0588 10.6884
L28.3612 10.6884
" />
<path d="M28.3612 10.6884
L28.4821 10.7489
" />
<path d="M28.4821 10.7489
L28.5426 10.8094
" />
<path d="M28.5426 10.8094
L28.6031 10.9303
" />
<path d="M28.6031 10.9303
L28.6031 11.0513
" />
<path d="M28.6031 11.0513
L28.5426 11.2327
" />
<path d="M28.5426 11.2327
L27.8169 11.9584
" />
<path d="M27.8169 11.9584
L28.6031 11.9584
" />
<path d="M28.8450 12.0794
L29.8126 12.0794
" />
<path d="M30.0545 11.8980
L30.2359 11.9584
" />
<path d="M30.2359 11.9584
L30.5383 11.9584
" />
<path d="M30.5383 11.9584
L30.6592 11.8980
" />
<path d="M30.6592 11.8980
L30.7197 11.8375
" />
<path d="M30.7197 11.8375
L30.7802 11.7165
" />
<path d="M30.7802 11.7165
L30.7802 11.5956
" />
<path d="M30.7802 11.5956
L30.7197 11.4746
" />
<path d="M30.7197 11.4746
L30.6592 11.4141
" />
<path d="M30.6592 11.4141
L30.5383 11.3537
" />
<path d="M30.5383 11.3537
L30.2964 11.2932
" />
<path d="M30.2964 11.2932
L30.1754 11.2327
" />
<path d="M30.1754 11.2327
L30.1149 11.1722
" />
<path d="M30.1149 11.1722
L30.0545 11.0513
" />
<path d="M30.0545 11.0513
L30.0545 10.9303
" />
<path d="M30.0545 10.9303
L30.1149 10.8094
" />
<path d="M30.1149 10.8094
L30.1754 10.7489
" />
<path d="M30.1754 10.7489
L30.2964 10.6884
" />
<path d="M30.2964 10.6884
L30.5987 10.6884
" />
<path d="M30.5987 10.6884
L30.7802 10.7489
" />
<path d="M31.3244 11.9584
L31.3244 10.6884
" />
<path d="M31.8687 11.9584
L31.8687 11.2932
" />
<path d="M31.8687 11.2932
L31.8082 11.1722
" />
<path d="M31.8082 11.1722
L31.6873 11.1118
" />
<path d="M31.6873 11.1118
L31.5059 11.1118
" />
<path d="M31.5059 11.1118
L31.3849 11.1722
" />
<path d="M31.3849 11.1722
L31.3244 11.2327
" />
<path d="M32.4734 11.9584
L32.4734 11.1118
" />
<path d="M32.4734 10.6884
L32.4130 10.7489
" />
<path d="M32.4130 10.7489
L32.4734 10.8094
" />
<path d="M32.4734 10.8094
L32.5339 10.7489
" />
<path d="M32.5339 10.7489
L32.4734 10.6884
" />
<path d="M32.4734 10.6884
L32.4734 10.8094
" />
<path d="M33.5620 11.8980
L33.4411 11.9584
" />
<path d="M33.4411 11.9584
L33.1992 11.9584
" />
<path d="M33.1992 11.9584
L33.0782 11.8980
" />
<path d="M33.0782 11.8980
L33.0178 11.7770
" />
<path d="M33.0178 11.7770
L33.0178 11.2932
" />
<path d="M33.0178 11.2932
L33.0782 11.1722
" />
<path d="M33.0782 11.1722
L33.1992 11.1118
" />
<path d="M33.1992 11.1118
L33.4411 11.1118
" />
<path d="M33.4411 11.1118
L33.5620 11.1722
" />
<path d="M33.5620 11.1722
L33.6225 11.2932
" />
<path d="M33.6225 11.2932
L33.6225 11.4141
" />
<path d="M33.6225 11.4141
L33.0178 11.5351
" />
<path d="M34.3483 11.9584
L34.2273 11.8980
" />
<path d="M34.2273 11.8980
L34.1668 11.7770
" />
<path d="M34.1668 11.7770
L34.1668 10.6884
" />
<path d="M35.3763 11.9584
L35.3763 10.6884
" />
<path d="M35.3763 11.8980
L35.2554 11.9584
" />
<path d="M35.2554 11.9584
L35.0135 11.9584
" />
<path d="M35.0135 11.9584
L34.8925 11.8980
" />
<path d="M34.8925 11.8980
L34.8320 11.8375
" />
<path d="M34.8320 11.8375
L34.7716 11.7165
" />
<path d="M34.7716 11.7165
L34.7716 11.3537
" />
<path d="M34.7716 11.3537
L34.8320 11.2327
" />
<path d="M34.8320 11.2327
L34.8925 11.1722
" />
<path d="M34.8925 11.1722
L35.0135 11.1118
" />
<path d="M35.0135 11.1118
L35.2554 11.1118
" />
<path d="M35.2554 11.1118
L35.3763 11.1722
" />
<path d="M36.4648 11.8980
L36.3439 11.9584
" />
<path d="M36.3439 11.9584
L36.1020 11.9584
" />
<path d="M36.1020 11.9584
L35.9810 11.8980
" />
<path d="M35.9810 11.8980
L35.9206 11.7770
" />
<path d="M35.9206 11.7770
L35.9206 11.2932
" />
<path d="M35.9206 11.2932
L35.9810 11.1722
" />
<path d="M35.9810 11.1722
L36.1020 11.1118
" />
<path d="M36.1020 11.1118
L36.3439 11.1118
" />
<path d="M36.3439 11.1118
L36.4648 11.1722
" />
<path d="M36.4648 11.1722
L36.5253 11.2932
" />
<path d="M36.5253 11.2932
L36.5253 11.4141
" />
<path d="M36.5253 11.4141
L35.9206 11.5351
" />
<path d="M37.6139 11.9584
L37.6139 10.6884
" />
<path d="M37.6139 11.8980
L37.4930 11.9584
" />
<path d="M37.4930 11.9584
L37.2511 11.9584
" />
<path d="M37.2511 11.9584
L37.1301 11.8980
" />
<path d="M37.1301 11.8980
L37.0696 11.8375
" />
<path d="M37.0696 11.8375
L37.0092 11.7165
" />
<path d="M37.0092 11.7165
L37.0092 11.3537
" />
<path d="M37.0092 11.3537
L37.0696 11.2327
" />
<path d="M37.0696 11.2327
L37.1301 11.1722
" />
<path d="M37.1301 11.1722
L37.2511 11.1118
" />
<path d="M37.2511 11.1118
L37.4930 11.1118
" />
<path d="M37.4930 11.1118
L37.6139 11.1722
" />
</g></g> 
</svg>
