<?xml version="1.0" standalone="no"?>
 <!DOCTYPE svg PUBLIC "-//W3C//DTD SVG 1.1//EN" 
 "http://www.w3.org/Graphics/SVG/1.1/DTD/svg11.dtd"> 
<svg
  xmlns:svg="http://www.w3.org/2000/svg"
  xmlns="http://www.w3.org/2000/svg"
  xmlns:xlink="http://www.w3.org/1999/xlink"
  version="1.1"
  width="48.1584mm" height="77.1144mm" viewBox="0.0000 0.0000 48.1584 77.1144">
<title>SVG Image created as conn_02x23_top_bottom_shielded.svg date 2024/01/16 15:18:24 </title>
  <desc>Image generated by Eeschema-SVG </desc>
<g style="fill:#000000; fill-opacity:1.0000;stroke:#000000; stroke-opacity:1.0000;
stroke-linecap:round; stroke-linejoin:round;"
 transform="translate(0 0) scale(1 1)">
</g>
<g style="fill:#000000; fill-opacity:0.0; 
stroke:#000000; stroke-width:0.0000; stroke-opacity:1; 
stroke-linecap:round; stroke-linejoin:round;">
</g>
<g style="fill:#000000; fill-opacity:0.0; 
stroke:#000000; stroke-width:0.1524; stroke-opacity:1; 
stroke-linecap:round; stroke-linejoin:round;">
<rect x="22.809200" y="9.347200" width="5.080000" height="58.420000" rx="0.000000" />
<rect x="23.063200" y="66.370200" width="1.270000" height="0.254000" rx="0.000000" />
<rect x="23.063200" y="63.830200" width="1.270000" height="0.254000" rx="0.000000" />
<rect x="23.063200" y="61.290200" width="1.270000" height="0.254000" rx="0.000000" />
<rect x="23.063200" y="58.750200" width="1.270000" height="0.254000" rx="0.000000" />
<rect x="23.063200" y="56.210200" width="1.270000" height="0.254000" rx="0.000000" />
<rect x="23.063200" y="53.670200" width="1.270000" height="0.254000" rx="0.000000" />
<rect x="23.063200" y="51.130200" width="1.270000" height="0.254000" rx="0.000000" />
<rect x="23.063200" y="48.590200" width="1.270000" height="0.254000" rx="0.000000" />
<rect x="23.063200" y="46.050200" width="1.270000" height="0.254000" rx="0.000000" />
<rect x="23.063200" y="43.510200" width="1.270000" height="0.254000" rx="0.000000" />
<rect x="23.063200" y="40.970200" width="1.270000" height="0.254000" rx="0.000000" />
<rect x="23.063200" y="38.430200" width="1.270000" height="0.254000" rx="0.000000" />
<rect x="23.063200" y="35.890200" width="1.270000" height="0.254000" rx="0.000000" />
<rect x="23.063200" y="33.350200" width="1.270000" height="0.254000" rx="0.000000" />
<rect x="23.063200" y="30.810200" width="1.270000" height="0.254000" rx="0.000000" />
<rect x="23.063200" y="28.270200" width="1.270000" height="0.254000" rx="0.000000" />
<rect x="23.063200" y="25.730200" width="1.270000" height="0.254000" rx="0.000000" />
<rect x="23.063200" y="23.190200" width="1.270000" height="0.254000" rx="0.000000" />
<rect x="23.063200" y="20.650200" width="1.270000" height="0.254000" rx="0.000000" />
<rect x="23.063200" y="18.110200" width="1.270000" height="0.254000" rx="0.000000" />
<rect x="23.063200" y="15.570200" width="1.270000" height="0.254000" rx="0.000000" />
<rect x="23.063200" y="13.030200" width="1.270000" height="0.254000" rx="0.000000" />
<rect x="23.063200" y="10.490200" width="1.270000" height="0.254000" rx="0.000000" />
</g>
<g style="fill:#000000; fill-opacity:0.0; 
stroke:#000000; stroke-width:0.2540; stroke-opacity:1; 
stroke-linecap:round; stroke-linejoin:round;">
<rect x="23.063200" y="9.601200" width="4.572000" height="57.912000" rx="0.000000" />
</g>
<g style="fill:#000000; fill-opacity:0.0; 
stroke:#000000; stroke-width:0.1524; stroke-opacity:1; 
stroke-linecap:round; stroke-linejoin:round;">
<rect x="26.365200" y="66.370200" width="1.270000" height="0.254000" rx="0.000000" />
<rect x="26.365200" y="63.830200" width="1.270000" height="0.254000" rx="0.000000" />
<rect x="26.365200" y="61.290200" width="1.270000" height="0.254000" rx="0.000000" />
<rect x="26.365200" y="58.750200" width="1.270000" height="0.254000" rx="0.000000" />
<rect x="26.365200" y="56.210200" width="1.270000" height="0.254000" rx="0.000000" />
<rect x="26.365200" y="53.670200" width="1.270000" height="0.254000" rx="0.000000" />
<rect x="26.365200" y="51.130200" width="1.270000" height="0.254000" rx="0.000000" />
<rect x="26.365200" y="48.590200" width="1.270000" height="0.254000" rx="0.000000" />
<rect x="26.365200" y="46.050200" width="1.270000" height="0.254000" rx="0.000000" />
<rect x="26.365200" y="43.510200" width="1.270000" height="0.254000" rx="0.000000" />
<rect x="26.365200" y="40.970200" width="1.270000" height="0.254000" rx="0.000000" />
<rect x="26.365200" y="38.430200" width="1.270000" height="0.254000" rx="0.000000" />
<rect x="26.365200" y="35.890200" width="1.270000" height="0.254000" rx="0.000000" />
<rect x="26.365200" y="33.350200" width="1.270000" height="0.254000" rx="0.000000" />
<rect x="26.365200" y="30.810200" width="1.270000" height="0.254000" rx="0.000000" />
<rect x="26.365200" y="28.270200" width="1.270000" height="0.254000" rx="0.000000" />
<rect x="26.365200" y="25.730200" width="1.270000" height="0.254000" rx="0.000000" />
<rect x="26.365200" y="23.190200" width="1.270000" height="0.254000" rx="0.000000" />
<rect x="26.365200" y="20.650200" width="1.270000" height="0.254000" rx="0.000000" />
<rect x="26.365200" y="18.110200" width="1.270000" height="0.254000" rx="0.000000" />
<rect x="26.365200" y="15.570200" width="1.270000" height="0.254000" rx="0.000000" />
<rect x="26.365200" y="13.030200" width="1.270000" height="0.254000" rx="0.000000" />
<rect x="26.365200" y="10.490200" width="1.270000" height="0.254000" rx="0.000000" />
<path d="M23.0632 10.6172
L18.9992 10.6172
" />
<text x="21.0312" y="10.3632"
textLength="1.4127" font-size="1.6933" lengthAdjust="spacingAndGlyphs"
text-anchor="middle" opacity="0">1</text>
<g class="stroked-text"><desc>1</desc>
<path d="M21.3941 10.1997
L20.6684 10.1997
" />
<path d="M21.0312 10.1997
L21.0312 8.9297
" />
<path d="M21.0312 8.9297
L20.9103 9.1112
" />
<path d="M20.9103 9.1112
L20.7893 9.2321
" />
<path d="M20.7893 9.2321
L20.6684 9.2926
" />
</g><path d="M23.0632 33.4772
L18.9992 33.4772
" />
<text x="21.0312" y="33.2232"
textLength="2.6222" font-size="1.6933" lengthAdjust="spacingAndGlyphs"
text-anchor="middle" opacity="0">10</text>
<g class="stroked-text"><desc>10</desc>
<path d="M20.7893 33.0597
L20.0636 33.0597
" />
<path d="M20.4264 33.0597
L20.4264 31.7897
" />
<path d="M20.4264 31.7897
L20.3055 31.9712
" />
<path d="M20.3055 31.9712
L20.1845 32.0921
" />
<path d="M20.1845 32.0921
L20.0636 32.1526
" />
<path d="M21.5754 31.7897
L21.6964 31.7897
" />
<path d="M21.6964 31.7897
L21.8173 31.8502
" />
<path d="M21.8173 31.8502
L21.8778 31.9107
" />
<path d="M21.8778 31.9107
L21.9383 32.0316
" />
<path d="M21.9383 32.0316
L21.9988 32.2735
" />
<path d="M21.9988 32.2735
L21.9988 32.5759
" />
<path d="M21.9988 32.5759
L21.9383 32.8178
" />
<path d="M21.9383 32.8178
L21.8778 32.9388
" />
<path d="M21.8778 32.9388
L21.8173 32.9993
" />
<path d="M21.8173 32.9993
L21.6964 33.0597
" />
<path d="M21.6964 33.0597
L21.5754 33.0597
" />
<path d="M21.5754 33.0597
L21.4545 32.9993
" />
<path d="M21.4545 32.9993
L21.3940 32.9388
" />
<path d="M21.3940 32.9388
L21.3335 32.8178
" />
<path d="M21.3335 32.8178
L21.2731 32.5759
" />
<path d="M21.2731 32.5759
L21.2731 32.2735
" />
<path d="M21.2731 32.2735
L21.3335 32.0316
" />
<path d="M21.3335 32.0316
L21.3940 31.9107
" />
<path d="M21.3940 31.9107
L21.4545 31.8502
" />
<path d="M21.4545 31.8502
L21.5754 31.7897
" />
</g><path d="M23.0632 36.0172
L18.9992 36.0172
" />
<text x="21.0312" y="35.7632"
textLength="2.6222" font-size="1.6933" lengthAdjust="spacingAndGlyphs"
text-anchor="middle" opacity="0">11</text>
<g class="stroked-text"><desc>11</desc>
<path d="M20.7893 35.5997
L20.0636 35.5997
" />
<path d="M20.4264 35.5997
L20.4264 34.3297
" />
<path d="M20.4264 34.3297
L20.3055 34.5112
" />
<path d="M20.3055 34.5112
L20.1845 34.6321
" />
<path d="M20.1845 34.6321
L20.0636 34.6926
" />
<path d="M21.9988 35.5997
L21.2731 35.5997
" />
<path d="M21.6359 35.5997
L21.6359 34.3297
" />
<path d="M21.6359 34.3297
L21.5150 34.5112
" />
<path d="M21.5150 34.5112
L21.3940 34.6321
" />
<path d="M21.3940 34.6321
L21.2731 34.6926
" />
</g><path d="M23.0632 38.5572
L18.9992 38.5572
" />
<text x="21.0312" y="38.3032"
textLength="2.6222" font-size="1.6933" lengthAdjust="spacingAndGlyphs"
text-anchor="middle" opacity="0">12</text>
<g class="stroked-text"><desc>12</desc>
<path d="M20.7893 38.1397
L20.0636 38.1397
" />
<path d="M20.4264 38.1397
L20.4264 36.8697
" />
<path d="M20.4264 36.8697
L20.3055 37.0512
" />
<path d="M20.3055 37.0512
L20.1845 37.1721
" />
<path d="M20.1845 37.1721
L20.0636 37.2326
" />
<path d="M21.2731 36.9907
L21.3335 36.9302
" />
<path d="M21.3335 36.9302
L21.4545 36.8697
" />
<path d="M21.4545 36.8697
L21.7569 36.8697
" />
<path d="M21.7569 36.8697
L21.8778 36.9302
" />
<path d="M21.8778 36.9302
L21.9383 36.9907
" />
<path d="M21.9383 36.9907
L21.9988 37.1116
" />
<path d="M21.9988 37.1116
L21.9988 37.2326
" />
<path d="M21.9988 37.2326
L21.9383 37.4140
" />
<path d="M21.9383 37.4140
L21.2126 38.1397
" />
<path d="M21.2126 38.1397
L21.9988 38.1397
" />
</g><path d="M23.0632 41.0972
L18.9992 41.0972
" />
<text x="21.0312" y="40.8432"
textLength="2.6222" font-size="1.6933" lengthAdjust="spacingAndGlyphs"
text-anchor="middle" opacity="0">13</text>
<g class="stroked-text"><desc>13</desc>
<path d="M20.7893 40.6797
L20.0636 40.6797
" />
<path d="M20.4264 40.6797
L20.4264 39.4097
" />
<path d="M20.4264 39.4097
L20.3055 39.5912
" />
<path d="M20.3055 39.5912
L20.1845 39.7121
" />
<path d="M20.1845 39.7121
L20.0636 39.7726
" />
<path d="M21.2126 39.4097
L21.9988 39.4097
" />
<path d="M21.9988 39.4097
L21.5754 39.8935
" />
<path d="M21.5754 39.8935
L21.7569 39.8935
" />
<path d="M21.7569 39.8935
L21.8778 39.9540
" />
<path d="M21.8778 39.9540
L21.9383 40.0145
" />
<path d="M21.9383 40.0145
L21.9988 40.1354
" />
<path d="M21.9988 40.1354
L21.9988 40.4378
" />
<path d="M21.9988 40.4378
L21.9383 40.5588
" />
<path d="M21.9383 40.5588
L21.8778 40.6193
" />
<path d="M21.8778 40.6193
L21.7569 40.6797
" />
<path d="M21.7569 40.6797
L21.3940 40.6797
" />
<path d="M21.3940 40.6797
L21.2731 40.6193
" />
<path d="M21.2731 40.6193
L21.2126 40.5588
" />
</g><path d="M23.0632 43.6372
L18.9992 43.6372
" />
<text x="21.0312" y="43.3832"
textLength="2.6222" font-size="1.6933" lengthAdjust="spacingAndGlyphs"
text-anchor="middle" opacity="0">14</text>
<g class="stroked-text"><desc>14</desc>
<path d="M20.7893 43.2197
L20.0636 43.2197
" />
<path d="M20.4264 43.2197
L20.4264 41.9497
" />
<path d="M20.4264 41.9497
L20.3055 42.1312
" />
<path d="M20.3055 42.1312
L20.1845 42.2521
" />
<path d="M20.1845 42.2521
L20.0636 42.3126
" />
<path d="M21.8778 42.3731
L21.8778 43.2197
" />
<path d="M21.5754 41.8893
L21.2731 42.7964
" />
<path d="M21.2731 42.7964
L22.0592 42.7964
" />
</g><path d="M23.0632 46.1772
L18.9992 46.1772
" />
<text x="21.0312" y="45.9232"
textLength="2.6222" font-size="1.6933" lengthAdjust="spacingAndGlyphs"
text-anchor="middle" opacity="0">15</text>
<g class="stroked-text"><desc>15</desc>
<path d="M20.7893 45.7597
L20.0636 45.7597
" />
<path d="M20.4264 45.7597
L20.4264 44.4897
" />
<path d="M20.4264 44.4897
L20.3055 44.6712
" />
<path d="M20.3055 44.6712
L20.1845 44.7921
" />
<path d="M20.1845 44.7921
L20.0636 44.8526
" />
<path d="M21.9383 44.4897
L21.3335 44.4897
" />
<path d="M21.3335 44.4897
L21.2731 45.0945
" />
<path d="M21.2731 45.0945
L21.3335 45.0340
" />
<path d="M21.3335 45.0340
L21.4545 44.9735
" />
<path d="M21.4545 44.9735
L21.7569 44.9735
" />
<path d="M21.7569 44.9735
L21.8778 45.0340
" />
<path d="M21.8778 45.0340
L21.9383 45.0945
" />
<path d="M21.9383 45.0945
L21.9988 45.2154
" />
<path d="M21.9988 45.2154
L21.9988 45.5178
" />
<path d="M21.9988 45.5178
L21.9383 45.6388
" />
<path d="M21.9383 45.6388
L21.8778 45.6993
" />
<path d="M21.8778 45.6993
L21.7569 45.7597
" />
<path d="M21.7569 45.7597
L21.4545 45.7597
" />
<path d="M21.4545 45.7597
L21.3335 45.6993
" />
<path d="M21.3335 45.6993
L21.2731 45.6388
" />
</g><path d="M23.0632 48.7172
L18.9992 48.7172
" />
<text x="21.0312" y="48.4632"
textLength="2.6222" font-size="1.6933" lengthAdjust="spacingAndGlyphs"
text-anchor="middle" opacity="0">16</text>
<g class="stroked-text"><desc>16</desc>
<path d="M20.7893 48.2997
L20.0636 48.2997
" />
<path d="M20.4264 48.2997
L20.4264 47.0297
" />
<path d="M20.4264 47.0297
L20.3055 47.2112
" />
<path d="M20.3055 47.2112
L20.1845 47.3321
" />
<path d="M20.1845 47.3321
L20.0636 47.3926
" />
<path d="M21.8778 47.0297
L21.6359 47.0297
" />
<path d="M21.6359 47.0297
L21.5150 47.0902
" />
<path d="M21.5150 47.0902
L21.4545 47.1507
" />
<path d="M21.4545 47.1507
L21.3335 47.3321
" />
<path d="M21.3335 47.3321
L21.2731 47.5740
" />
<path d="M21.2731 47.5740
L21.2731 48.0578
" />
<path d="M21.2731 48.0578
L21.3335 48.1788
" />
<path d="M21.3335 48.1788
L21.3940 48.2393
" />
<path d="M21.3940 48.2393
L21.5150 48.2997
" />
<path d="M21.5150 48.2997
L21.7569 48.2997
" />
<path d="M21.7569 48.2997
L21.8778 48.2393
" />
<path d="M21.8778 48.2393
L21.9383 48.1788
" />
<path d="M21.9383 48.1788
L21.9988 48.0578
" />
<path d="M21.9988 48.0578
L21.9988 47.7554
" />
<path d="M21.9988 47.7554
L21.9383 47.6345
" />
<path d="M21.9383 47.6345
L21.8778 47.5740
" />
<path d="M21.8778 47.5740
L21.7569 47.5135
" />
<path d="M21.7569 47.5135
L21.5150 47.5135
" />
<path d="M21.5150 47.5135
L21.3940 47.5740
" />
<path d="M21.3940 47.5740
L21.3335 47.6345
" />
<path d="M21.3335 47.6345
L21.2731 47.7554
" />
</g><path d="M23.0632 51.2572
L18.9992 51.2572
" />
<text x="21.0312" y="51.0032"
textLength="2.6222" font-size="1.6933" lengthAdjust="spacingAndGlyphs"
text-anchor="middle" opacity="0">17</text>
<g class="stroked-text"><desc>17</desc>
<path d="M20.7893 50.8397
L20.0636 50.8397
" />
<path d="M20.4264 50.8397
L20.4264 49.5697
" />
<path d="M20.4264 49.5697
L20.3055 49.7512
" />
<path d="M20.3055 49.7512
L20.1845 49.8721
" />
<path d="M20.1845 49.8721
L20.0636 49.9326
" />
<path d="M21.2126 49.5697
L22.0592 49.5697
" />
<path d="M22.0592 49.5697
L21.5150 50.8397
" />
</g><path d="M23.0632 53.7972
L18.9992 53.7972
" />
<text x="21.0312" y="53.5432"
textLength="2.6222" font-size="1.6933" lengthAdjust="spacingAndGlyphs"
text-anchor="middle" opacity="0">18</text>
<g class="stroked-text"><desc>18</desc>
<path d="M20.7893 53.3797
L20.0636 53.3797
" />
<path d="M20.4264 53.3797
L20.4264 52.1097
" />
<path d="M20.4264 52.1097
L20.3055 52.2912
" />
<path d="M20.3055 52.2912
L20.1845 52.4121
" />
<path d="M20.1845 52.4121
L20.0636 52.4726
" />
<path d="M21.5150 52.6540
L21.3940 52.5935
" />
<path d="M21.3940 52.5935
L21.3335 52.5331
" />
<path d="M21.3335 52.5331
L21.2731 52.4121
" />
<path d="M21.2731 52.4121
L21.2731 52.3516
" />
<path d="M21.2731 52.3516
L21.3335 52.2307
" />
<path d="M21.3335 52.2307
L21.3940 52.1702
" />
<path d="M21.3940 52.1702
L21.5150 52.1097
" />
<path d="M21.5150 52.1097
L21.7569 52.1097
" />
<path d="M21.7569 52.1097
L21.8778 52.1702
" />
<path d="M21.8778 52.1702
L21.9383 52.2307
" />
<path d="M21.9383 52.2307
L21.9988 52.3516
" />
<path d="M21.9988 52.3516
L21.9988 52.4121
" />
<path d="M21.9988 52.4121
L21.9383 52.5331
" />
<path d="M21.9383 52.5331
L21.8778 52.5935
" />
<path d="M21.8778 52.5935
L21.7569 52.6540
" />
<path d="M21.7569 52.6540
L21.5150 52.6540
" />
<path d="M21.5150 52.6540
L21.3940 52.7145
" />
<path d="M21.3940 52.7145
L21.3335 52.7750
" />
<path d="M21.3335 52.7750
L21.2731 52.8959
" />
<path d="M21.2731 52.8959
L21.2731 53.1378
" />
<path d="M21.2731 53.1378
L21.3335 53.2588
" />
<path d="M21.3335 53.2588
L21.3940 53.3193
" />
<path d="M21.3940 53.3193
L21.5150 53.3797
" />
<path d="M21.5150 53.3797
L21.7569 53.3797
" />
<path d="M21.7569 53.3797
L21.8778 53.3193
" />
<path d="M21.8778 53.3193
L21.9383 53.2588
" />
<path d="M21.9383 53.2588
L21.9988 53.1378
" />
<path d="M21.9988 53.1378
L21.9988 52.8959
" />
<path d="M21.9988 52.8959
L21.9383 52.7750
" />
<path d="M21.9383 52.7750
L21.8778 52.7145
" />
<path d="M21.8778 52.7145
L21.7569 52.6540
" />
</g><path d="M23.0632 56.3372
L18.9992 56.3372
" />
<text x="21.0312" y="56.0832"
textLength="2.6222" font-size="1.6933" lengthAdjust="spacingAndGlyphs"
text-anchor="middle" opacity="0">19</text>
<g class="stroked-text"><desc>19</desc>
<path d="M20.7893 55.9197
L20.0636 55.9197
" />
<path d="M20.4264 55.9197
L20.4264 54.6497
" />
<path d="M20.4264 54.6497
L20.3055 54.8312
" />
<path d="M20.3055 54.8312
L20.1845 54.9521
" />
<path d="M20.1845 54.9521
L20.0636 55.0126
" />
<path d="M21.3940 55.9197
L21.6359 55.9197
" />
<path d="M21.6359 55.9197
L21.7569 55.8593
" />
<path d="M21.7569 55.8593
L21.8173 55.7988
" />
<path d="M21.8173 55.7988
L21.9383 55.6173
" />
<path d="M21.9383 55.6173
L21.9988 55.3754
" />
<path d="M21.9988 55.3754
L21.9988 54.8916
" />
<path d="M21.9988 54.8916
L21.9383 54.7707
" />
<path d="M21.9383 54.7707
L21.8778 54.7102
" />
<path d="M21.8778 54.7102
L21.7569 54.6497
" />
<path d="M21.7569 54.6497
L21.5150 54.6497
" />
<path d="M21.5150 54.6497
L21.3940 54.7102
" />
<path d="M21.3940 54.7102
L21.3335 54.7707
" />
<path d="M21.3335 54.7707
L21.2731 54.8916
" />
<path d="M21.2731 54.8916
L21.2731 55.1940
" />
<path d="M21.2731 55.1940
L21.3335 55.3150
" />
<path d="M21.3335 55.3150
L21.3940 55.3754
" />
<path d="M21.3940 55.3754
L21.5150 55.4359
" />
<path d="M21.5150 55.4359
L21.7569 55.4359
" />
<path d="M21.7569 55.4359
L21.8778 55.3754
" />
<path d="M21.8778 55.3754
L21.9383 55.3150
" />
<path d="M21.9383 55.3150
L21.9988 55.1940
" />
</g><path d="M23.0632 13.1572
L18.9992 13.1572
" />
<text x="21.0312" y="12.9032"
textLength="1.4127" font-size="1.6933" lengthAdjust="spacingAndGlyphs"
text-anchor="middle" opacity="0">2</text>
<g class="stroked-text"><desc>2</desc>
<path d="M20.6684 11.5907
L20.7288 11.5302
" />
<path d="M20.7288 11.5302
L20.8498 11.4697
" />
<path d="M20.8498 11.4697
L21.1522 11.4697
" />
<path d="M21.1522 11.4697
L21.2731 11.5302
" />
<path d="M21.2731 11.5302
L21.3336 11.5907
" />
<path d="M21.3336 11.5907
L21.3941 11.7116
" />
<path d="M21.3941 11.7116
L21.3941 11.8326
" />
<path d="M21.3941 11.8326
L21.3336 12.0140
" />
<path d="M21.3336 12.0140
L20.6079 12.7397
" />
<path d="M20.6079 12.7397
L21.3941 12.7397
" />
</g><path d="M23.0632 58.8772
L18.9992 58.8772
" />
<text x="21.0312" y="58.6232"
textLength="2.6222" font-size="1.6933" lengthAdjust="spacingAndGlyphs"
text-anchor="middle" opacity="0">20</text>
<g class="stroked-text"><desc>20</desc>
<path d="M20.0636 57.3107
L20.1240 57.2502
" />
<path d="M20.1240 57.2502
L20.2450 57.1897
" />
<path d="M20.2450 57.1897
L20.5474 57.1897
" />
<path d="M20.5474 57.1897
L20.6683 57.2502
" />
<path d="M20.6683 57.2502
L20.7288 57.3107
" />
<path d="M20.7288 57.3107
L20.7893 57.4316
" />
<path d="M20.7893 57.4316
L20.7893 57.5526
" />
<path d="M20.7893 57.5526
L20.7288 57.7340
" />
<path d="M20.7288 57.7340
L20.0031 58.4597
" />
<path d="M20.0031 58.4597
L20.7893 58.4597
" />
<path d="M21.5754 57.1897
L21.6964 57.1897
" />
<path d="M21.6964 57.1897
L21.8173 57.2502
" />
<path d="M21.8173 57.2502
L21.8778 57.3107
" />
<path d="M21.8778 57.3107
L21.9383 57.4316
" />
<path d="M21.9383 57.4316
L21.9988 57.6735
" />
<path d="M21.9988 57.6735
L21.9988 57.9759
" />
<path d="M21.9988 57.9759
L21.9383 58.2178
" />
<path d="M21.9383 58.2178
L21.8778 58.3388
" />
<path d="M21.8778 58.3388
L21.8173 58.3993
" />
<path d="M21.8173 58.3993
L21.6964 58.4597
" />
<path d="M21.6964 58.4597
L21.5754 58.4597
" />
<path d="M21.5754 58.4597
L21.4545 58.3993
" />
<path d="M21.4545 58.3993
L21.3940 58.3388
" />
<path d="M21.3940 58.3388
L21.3335 58.2178
" />
<path d="M21.3335 58.2178
L21.2731 57.9759
" />
<path d="M21.2731 57.9759
L21.2731 57.6735
" />
<path d="M21.2731 57.6735
L21.3335 57.4316
" />
<path d="M21.3335 57.4316
L21.3940 57.3107
" />
<path d="M21.3940 57.3107
L21.4545 57.2502
" />
<path d="M21.4545 57.2502
L21.5754 57.1897
" />
</g><path d="M23.0632 61.4172
L18.9992 61.4172
" />
<text x="21.0312" y="61.1632"
textLength="2.6222" font-size="1.6933" lengthAdjust="spacingAndGlyphs"
text-anchor="middle" opacity="0">21</text>
<g class="stroked-text"><desc>21</desc>
<path d="M20.0636 59.8507
L20.1240 59.7902
" />
<path d="M20.1240 59.7902
L20.2450 59.7297
" />
<path d="M20.2450 59.7297
L20.5474 59.7297
" />
<path d="M20.5474 59.7297
L20.6683 59.7902
" />
<path d="M20.6683 59.7902
L20.7288 59.8507
" />
<path d="M20.7288 59.8507
L20.7893 59.9716
" />
<path d="M20.7893 59.9716
L20.7893 60.0926
" />
<path d="M20.7893 60.0926
L20.7288 60.2740
" />
<path d="M20.7288 60.2740
L20.0031 60.9997
" />
<path d="M20.0031 60.9997
L20.7893 60.9997
" />
<path d="M21.9988 60.9997
L21.2731 60.9997
" />
<path d="M21.6359 60.9997
L21.6359 59.7297
" />
<path d="M21.6359 59.7297
L21.5150 59.9112
" />
<path d="M21.5150 59.9112
L21.3940 60.0321
" />
<path d="M21.3940 60.0321
L21.2731 60.0926
" />
</g><path d="M23.0632 63.9572
L18.9992 63.9572
" />
<text x="21.0312" y="63.7032"
textLength="2.6222" font-size="1.6933" lengthAdjust="spacingAndGlyphs"
text-anchor="middle" opacity="0">22</text>
<g class="stroked-text"><desc>22</desc>
<path d="M20.0636 62.3907
L20.1240 62.3302
" />
<path d="M20.1240 62.3302
L20.2450 62.2697
" />
<path d="M20.2450 62.2697
L20.5474 62.2697
" />
<path d="M20.5474 62.2697
L20.6683 62.3302
" />
<path d="M20.6683 62.3302
L20.7288 62.3907
" />
<path d="M20.7288 62.3907
L20.7893 62.5116
" />
<path d="M20.7893 62.5116
L20.7893 62.6326
" />
<path d="M20.7893 62.6326
L20.7288 62.8140
" />
<path d="M20.7288 62.8140
L20.0031 63.5397
" />
<path d="M20.0031 63.5397
L20.7893 63.5397
" />
<path d="M21.2731 62.3907
L21.3335 62.3302
" />
<path d="M21.3335 62.3302
L21.4545 62.2697
" />
<path d="M21.4545 62.2697
L21.7569 62.2697
" />
<path d="M21.7569 62.2697
L21.8778 62.3302
" />
<path d="M21.8778 62.3302
L21.9383 62.3907
" />
<path d="M21.9383 62.3907
L21.9988 62.5116
" />
<path d="M21.9988 62.5116
L21.9988 62.6326
" />
<path d="M21.9988 62.6326
L21.9383 62.8140
" />
<path d="M21.9383 62.8140
L21.2126 63.5397
" />
<path d="M21.2126 63.5397
L21.9988 63.5397
" />
</g><path d="M23.0632 66.4972
L18.9992 66.4972
" />
<text x="21.0312" y="66.2432"
textLength="2.6222" font-size="1.6933" lengthAdjust="spacingAndGlyphs"
text-anchor="middle" opacity="0">23</text>
<g class="stroked-text"><desc>23</desc>
<path d="M20.0636 64.9307
L20.1240 64.8702
" />
<path d="M20.1240 64.8702
L20.2450 64.8097
" />
<path d="M20.2450 64.8097
L20.5474 64.8097
" />
<path d="M20.5474 64.8097
L20.6683 64.8702
" />
<path d="M20.6683 64.8702
L20.7288 64.9307
" />
<path d="M20.7288 64.9307
L20.7893 65.0516
" />
<path d="M20.7893 65.0516
L20.7893 65.1726
" />
<path d="M20.7893 65.1726
L20.7288 65.3540
" />
<path d="M20.7288 65.3540
L20.0031 66.0797
" />
<path d="M20.0031 66.0797
L20.7893 66.0797
" />
<path d="M21.2126 64.8097
L21.9988 64.8097
" />
<path d="M21.9988 64.8097
L21.5754 65.2935
" />
<path d="M21.5754 65.2935
L21.7569 65.2935
" />
<path d="M21.7569 65.2935
L21.8778 65.3540
" />
<path d="M21.8778 65.3540
L21.9383 65.4145
" />
<path d="M21.9383 65.4145
L21.9988 65.5354
" />
<path d="M21.9988 65.5354
L21.9988 65.8378
" />
<path d="M21.9988 65.8378
L21.9383 65.9588
" />
<path d="M21.9383 65.9588
L21.8778 66.0193
" />
<path d="M21.8778 66.0193
L21.7569 66.0797
" />
<path d="M21.7569 66.0797
L21.3940 66.0797
" />
<path d="M21.3940 66.0797
L21.2731 66.0193
" />
<path d="M21.2731 66.0193
L21.2126 65.9588
" />
</g><path d="M27.6352 10.6172
L31.6992 10.6172
" />
<text x="29.6672" y="10.3632"
textLength="2.6222" font-size="1.6933" lengthAdjust="spacingAndGlyphs"
text-anchor="middle" opacity="0">24</text>
<g class="stroked-text"><desc>24</desc>
<path d="M28.6996 9.0507
L28.7600 8.9902
" />
<path d="M28.7600 8.9902
L28.8810 8.9297
" />
<path d="M28.8810 8.9297
L29.1834 8.9297
" />
<path d="M29.1834 8.9297
L29.3043 8.9902
" />
<path d="M29.3043 8.9902
L29.3648 9.0507
" />
<path d="M29.3648 9.0507
L29.4253 9.1716
" />
<path d="M29.4253 9.1716
L29.4253 9.2926
" />
<path d="M29.4253 9.2926
L29.3648 9.4740
" />
<path d="M29.3648 9.4740
L28.6391 10.1997
" />
<path d="M28.6391 10.1997
L29.4253 10.1997
" />
<path d="M30.5138 9.3531
L30.5138 10.1997
" />
<path d="M30.2114 8.8693
L29.9091 9.7764
" />
<path d="M29.9091 9.7764
L30.6952 9.7764
" />
</g><path d="M27.6352 13.1572
L31.6992 13.1572
" />
<text x="29.6672" y="12.9032"
textLength="2.6222" font-size="1.6933" lengthAdjust="spacingAndGlyphs"
text-anchor="middle" opacity="0">25</text>
<g class="stroked-text"><desc>25</desc>
<path d="M28.6996 11.5907
L28.7600 11.5302
" />
<path d="M28.7600 11.5302
L28.8810 11.4697
" />
<path d="M28.8810 11.4697
L29.1834 11.4697
" />
<path d="M29.1834 11.4697
L29.3043 11.5302
" />
<path d="M29.3043 11.5302
L29.3648 11.5907
" />
<path d="M29.3648 11.5907
L29.4253 11.7116
" />
<path d="M29.4253 11.7116
L29.4253 11.8326
" />
<path d="M29.4253 11.8326
L29.3648 12.0140
" />
<path d="M29.3648 12.0140
L28.6391 12.7397
" />
<path d="M28.6391 12.7397
L29.4253 12.7397
" />
<path d="M30.5743 11.4697
L29.9695 11.4697
" />
<path d="M29.9695 11.4697
L29.9091 12.0745
" />
<path d="M29.9091 12.0745
L29.9695 12.0140
" />
<path d="M29.9695 12.0140
L30.0905 11.9535
" />
<path d="M30.0905 11.9535
L30.3929 11.9535
" />
<path d="M30.3929 11.9535
L30.5138 12.0140
" />
<path d="M30.5138 12.0140
L30.5743 12.0745
" />
<path d="M30.5743 12.0745
L30.6348 12.1954
" />
<path d="M30.6348 12.1954
L30.6348 12.4978
" />
<path d="M30.6348 12.4978
L30.5743 12.6188
" />
<path d="M30.5743 12.6188
L30.5138 12.6793
" />
<path d="M30.5138 12.6793
L30.3929 12.7397
" />
<path d="M30.3929 12.7397
L30.0905 12.7397
" />
<path d="M30.0905 12.7397
L29.9695 12.6793
" />
<path d="M29.9695 12.6793
L29.9091 12.6188
" />
</g><path d="M27.6352 15.6972
L31.6992 15.6972
" />
<text x="29.6672" y="15.4432"
textLength="2.6222" font-size="1.6933" lengthAdjust="spacingAndGlyphs"
text-anchor="middle" opacity="0">26</text>
<g class="stroked-text"><desc>26</desc>
<path d="M28.6996 14.1307
L28.7600 14.0702
" />
<path d="M28.7600 14.0702
L28.8810 14.0097
" />
<path d="M28.8810 14.0097
L29.1834 14.0097
" />
<path d="M29.1834 14.0097
L29.3043 14.0702
" />
<path d="M29.3043 14.0702
L29.3648 14.1307
" />
<path d="M29.3648 14.1307
L29.4253 14.2516
" />
<path d="M29.4253 14.2516
L29.4253 14.3726
" />
<path d="M29.4253 14.3726
L29.3648 14.5540
" />
<path d="M29.3648 14.5540
L28.6391 15.2797
" />
<path d="M28.6391 15.2797
L29.4253 15.2797
" />
<path d="M30.5138 14.0097
L30.2719 14.0097
" />
<path d="M30.2719 14.0097
L30.1510 14.0702
" />
<path d="M30.1510 14.0702
L30.0905 14.1307
" />
<path d="M30.0905 14.1307
L29.9695 14.3121
" />
<path d="M29.9695 14.3121
L29.9091 14.5540
" />
<path d="M29.9091 14.5540
L29.9091 15.0378
" />
<path d="M29.9091 15.0378
L29.9695 15.1588
" />
<path d="M29.9695 15.1588
L30.0300 15.2193
" />
<path d="M30.0300 15.2193
L30.1510 15.2797
" />
<path d="M30.1510 15.2797
L30.3929 15.2797
" />
<path d="M30.3929 15.2797
L30.5138 15.2193
" />
<path d="M30.5138 15.2193
L30.5743 15.1588
" />
<path d="M30.5743 15.1588
L30.6348 15.0378
" />
<path d="M30.6348 15.0378
L30.6348 14.7354
" />
<path d="M30.6348 14.7354
L30.5743 14.6145
" />
<path d="M30.5743 14.6145
L30.5138 14.5540
" />
<path d="M30.5138 14.5540
L30.3929 14.4935
" />
<path d="M30.3929 14.4935
L30.1510 14.4935
" />
<path d="M30.1510 14.4935
L30.0300 14.5540
" />
<path d="M30.0300 14.5540
L29.9695 14.6145
" />
<path d="M29.9695 14.6145
L29.9091 14.7354
" />
</g><path d="M27.6352 18.2372
L31.6992 18.2372
" />
<text x="29.6672" y="17.9832"
textLength="2.6222" font-size="1.6933" lengthAdjust="spacingAndGlyphs"
text-anchor="middle" opacity="0">27</text>
<g class="stroked-text"><desc>27</desc>
<path d="M28.6996 16.6707
L28.7600 16.6102
" />
<path d="M28.7600 16.6102
L28.8810 16.5497
" />
<path d="M28.8810 16.5497
L29.1834 16.5497
" />
<path d="M29.1834 16.5497
L29.3043 16.6102
" />
<path d="M29.3043 16.6102
L29.3648 16.6707
" />
<path d="M29.3648 16.6707
L29.4253 16.7916
" />
<path d="M29.4253 16.7916
L29.4253 16.9126
" />
<path d="M29.4253 16.9126
L29.3648 17.0940
" />
<path d="M29.3648 17.0940
L28.6391 17.8197
" />
<path d="M28.6391 17.8197
L29.4253 17.8197
" />
<path d="M29.8486 16.5497
L30.6952 16.5497
" />
<path d="M30.6952 16.5497
L30.1510 17.8197
" />
</g><path d="M27.6352 20.7772
L31.6992 20.7772
" />
<text x="29.6672" y="20.5232"
textLength="2.6222" font-size="1.6933" lengthAdjust="spacingAndGlyphs"
text-anchor="middle" opacity="0">28</text>
<g class="stroked-text"><desc>28</desc>
<path d="M28.6996 19.2107
L28.7600 19.1502
" />
<path d="M28.7600 19.1502
L28.8810 19.0897
" />
<path d="M28.8810 19.0897
L29.1834 19.0897
" />
<path d="M29.1834 19.0897
L29.3043 19.1502
" />
<path d="M29.3043 19.1502
L29.3648 19.2107
" />
<path d="M29.3648 19.2107
L29.4253 19.3316
" />
<path d="M29.4253 19.3316
L29.4253 19.4526
" />
<path d="M29.4253 19.4526
L29.3648 19.6340
" />
<path d="M29.3648 19.6340
L28.6391 20.3597
" />
<path d="M28.6391 20.3597
L29.4253 20.3597
" />
<path d="M30.1510 19.6340
L30.0300 19.5735
" />
<path d="M30.0300 19.5735
L29.9695 19.5131
" />
<path d="M29.9695 19.5131
L29.9091 19.3921
" />
<path d="M29.9091 19.3921
L29.9091 19.3316
" />
<path d="M29.9091 19.3316
L29.9695 19.2107
" />
<path d="M29.9695 19.2107
L30.0300 19.1502
" />
<path d="M30.0300 19.1502
L30.1510 19.0897
" />
<path d="M30.1510 19.0897
L30.3929 19.0897
" />
<path d="M30.3929 19.0897
L30.5138 19.1502
" />
<path d="M30.5138 19.1502
L30.5743 19.2107
" />
<path d="M30.5743 19.2107
L30.6348 19.3316
" />
<path d="M30.6348 19.3316
L30.6348 19.3921
" />
<path d="M30.6348 19.3921
L30.5743 19.5131
" />
<path d="M30.5743 19.5131
L30.5138 19.5735
" />
<path d="M30.5138 19.5735
L30.3929 19.6340
" />
<path d="M30.3929 19.6340
L30.1510 19.6340
" />
<path d="M30.1510 19.6340
L30.0300 19.6945
" />
<path d="M30.0300 19.6945
L29.9695 19.7550
" />
<path d="M29.9695 19.7550
L29.9091 19.8759
" />
<path d="M29.9091 19.8759
L29.9091 20.1178
" />
<path d="M29.9091 20.1178
L29.9695 20.2388
" />
<path d="M29.9695 20.2388
L30.0300 20.2993
" />
<path d="M30.0300 20.2993
L30.1510 20.3597
" />
<path d="M30.1510 20.3597
L30.3929 20.3597
" />
<path d="M30.3929 20.3597
L30.5138 20.2993
" />
<path d="M30.5138 20.2993
L30.5743 20.2388
" />
<path d="M30.5743 20.2388
L30.6348 20.1178
" />
<path d="M30.6348 20.1178
L30.6348 19.8759
" />
<path d="M30.6348 19.8759
L30.5743 19.7550
" />
<path d="M30.5743 19.7550
L30.5138 19.6945
" />
<path d="M30.5138 19.6945
L30.3929 19.6340
" />
</g><path d="M27.6352 23.3172
L31.6992 23.3172
" />
<text x="29.6672" y="23.0632"
textLength="2.6222" font-size="1.6933" lengthAdjust="spacingAndGlyphs"
text-anchor="middle" opacity="0">29</text>
<g class="stroked-text"><desc>29</desc>
<path d="M28.6996 21.7507
L28.7600 21.6902
" />
<path d="M28.7600 21.6902
L28.8810 21.6297
" />
<path d="M28.8810 21.6297
L29.1834 21.6297
" />
<path d="M29.1834 21.6297
L29.3043 21.6902
" />
<path d="M29.3043 21.6902
L29.3648 21.7507
" />
<path d="M29.3648 21.7507
L29.4253 21.8716
" />
<path d="M29.4253 21.8716
L29.4253 21.9926
" />
<path d="M29.4253 21.9926
L29.3648 22.1740
" />
<path d="M29.3648 22.1740
L28.6391 22.8997
" />
<path d="M28.6391 22.8997
L29.4253 22.8997
" />
<path d="M30.0300 22.8997
L30.2719 22.8997
" />
<path d="M30.2719 22.8997
L30.3929 22.8393
" />
<path d="M30.3929 22.8393
L30.4533 22.7788
" />
<path d="M30.4533 22.7788
L30.5743 22.5973
" />
<path d="M30.5743 22.5973
L30.6348 22.3554
" />
<path d="M30.6348 22.3554
L30.6348 21.8716
" />
<path d="M30.6348 21.8716
L30.5743 21.7507
" />
<path d="M30.5743 21.7507
L30.5138 21.6902
" />
<path d="M30.5138 21.6902
L30.3929 21.6297
" />
<path d="M30.3929 21.6297
L30.1510 21.6297
" />
<path d="M30.1510 21.6297
L30.0300 21.6902
" />
<path d="M30.0300 21.6902
L29.9695 21.7507
" />
<path d="M29.9695 21.7507
L29.9091 21.8716
" />
<path d="M29.9091 21.8716
L29.9091 22.1740
" />
<path d="M29.9091 22.1740
L29.9695 22.2950
" />
<path d="M29.9695 22.2950
L30.0300 22.3554
" />
<path d="M30.0300 22.3554
L30.1510 22.4159
" />
<path d="M30.1510 22.4159
L30.3929 22.4159
" />
<path d="M30.3929 22.4159
L30.5138 22.3554
" />
<path d="M30.5138 22.3554
L30.5743 22.2950
" />
<path d="M30.5743 22.2950
L30.6348 22.1740
" />
</g><path d="M23.0632 15.6972
L18.9992 15.6972
" />
<text x="21.0312" y="15.4432"
textLength="1.4127" font-size="1.6933" lengthAdjust="spacingAndGlyphs"
text-anchor="middle" opacity="0">3</text>
<g class="stroked-text"><desc>3</desc>
<path d="M20.6079 14.0097
L21.3941 14.0097
" />
<path d="M21.3941 14.0097
L20.9707 14.4935
" />
<path d="M20.9707 14.4935
L21.1522 14.4935
" />
<path d="M21.1522 14.4935
L21.2731 14.5540
" />
<path d="M21.2731 14.5540
L21.3336 14.6145
" />
<path d="M21.3336 14.6145
L21.3941 14.7354
" />
<path d="M21.3941 14.7354
L21.3941 15.0378
" />
<path d="M21.3941 15.0378
L21.3336 15.1588
" />
<path d="M21.3336 15.1588
L21.2731 15.2193
" />
<path d="M21.2731 15.2193
L21.1522 15.2797
" />
<path d="M21.1522 15.2797
L20.7893 15.2797
" />
<path d="M20.7893 15.2797
L20.6684 15.2193
" />
<path d="M20.6684 15.2193
L20.6079 15.1588
" />
</g><path d="M27.6352 25.8572
L31.6992 25.8572
" />
<text x="29.6672" y="25.6032"
textLength="2.6222" font-size="1.6933" lengthAdjust="spacingAndGlyphs"
text-anchor="middle" opacity="0">30</text>
<g class="stroked-text"><desc>30</desc>
<path d="M28.6391 24.1697
L29.4253 24.1697
" />
<path d="M29.4253 24.1697
L29.0019 24.6535
" />
<path d="M29.0019 24.6535
L29.1834 24.6535
" />
<path d="M29.1834 24.6535
L29.3043 24.7140
" />
<path d="M29.3043 24.7140
L29.3648 24.7745
" />
<path d="M29.3648 24.7745
L29.4253 24.8954
" />
<path d="M29.4253 24.8954
L29.4253 25.1978
" />
<path d="M29.4253 25.1978
L29.3648 25.3188
" />
<path d="M29.3648 25.3188
L29.3043 25.3793
" />
<path d="M29.3043 25.3793
L29.1834 25.4397
" />
<path d="M29.1834 25.4397
L28.8205 25.4397
" />
<path d="M28.8205 25.4397
L28.6996 25.3793
" />
<path d="M28.6996 25.3793
L28.6391 25.3188
" />
<path d="M30.2114 24.1697
L30.3324 24.1697
" />
<path d="M30.3324 24.1697
L30.4533 24.2302
" />
<path d="M30.4533 24.2302
L30.5138 24.2907
" />
<path d="M30.5138 24.2907
L30.5743 24.4116
" />
<path d="M30.5743 24.4116
L30.6348 24.6535
" />
<path d="M30.6348 24.6535
L30.6348 24.9559
" />
<path d="M30.6348 24.9559
L30.5743 25.1978
" />
<path d="M30.5743 25.1978
L30.5138 25.3188
" />
<path d="M30.5138 25.3188
L30.4533 25.3793
" />
<path d="M30.4533 25.3793
L30.3324 25.4397
" />
<path d="M30.3324 25.4397
L30.2114 25.4397
" />
<path d="M30.2114 25.4397
L30.0905 25.3793
" />
<path d="M30.0905 25.3793
L30.0300 25.3188
" />
<path d="M30.0300 25.3188
L29.9695 25.1978
" />
<path d="M29.9695 25.1978
L29.9091 24.9559
" />
<path d="M29.9091 24.9559
L29.9091 24.6535
" />
<path d="M29.9091 24.6535
L29.9695 24.4116
" />
<path d="M29.9695 24.4116
L30.0300 24.2907
" />
<path d="M30.0300 24.2907
L30.0905 24.2302
" />
<path d="M30.0905 24.2302
L30.2114 24.1697
" />
</g><path d="M27.6352 28.3972
L31.6992 28.3972
" />
<text x="29.6672" y="28.1432"
textLength="2.6222" font-size="1.6933" lengthAdjust="spacingAndGlyphs"
text-anchor="middle" opacity="0">31</text>
<g class="stroked-text"><desc>31</desc>
<path d="M28.6391 26.7097
L29.4253 26.7097
" />
<path d="M29.4253 26.7097
L29.0019 27.1935
" />
<path d="M29.0019 27.1935
L29.1834 27.1935
" />
<path d="M29.1834 27.1935
L29.3043 27.2540
" />
<path d="M29.3043 27.2540
L29.3648 27.3145
" />
<path d="M29.3648 27.3145
L29.4253 27.4354
" />
<path d="M29.4253 27.4354
L29.4253 27.7378
" />
<path d="M29.4253 27.7378
L29.3648 27.8588
" />
<path d="M29.3648 27.8588
L29.3043 27.9193
" />
<path d="M29.3043 27.9193
L29.1834 27.9797
" />
<path d="M29.1834 27.9797
L28.8205 27.9797
" />
<path d="M28.8205 27.9797
L28.6996 27.9193
" />
<path d="M28.6996 27.9193
L28.6391 27.8588
" />
<path d="M30.6348 27.9797
L29.9091 27.9797
" />
<path d="M30.2719 27.9797
L30.2719 26.7097
" />
<path d="M30.2719 26.7097
L30.1510 26.8912
" />
<path d="M30.1510 26.8912
L30.0300 27.0121
" />
<path d="M30.0300 27.0121
L29.9091 27.0726
" />
</g><path d="M27.6352 30.9372
L31.6992 30.9372
" />
<text x="29.6672" y="30.6832"
textLength="2.6222" font-size="1.6933" lengthAdjust="spacingAndGlyphs"
text-anchor="middle" opacity="0">32</text>
<g class="stroked-text"><desc>32</desc>
<path d="M28.6391 29.2497
L29.4253 29.2497
" />
<path d="M29.4253 29.2497
L29.0019 29.7335
" />
<path d="M29.0019 29.7335
L29.1834 29.7335
" />
<path d="M29.1834 29.7335
L29.3043 29.7940
" />
<path d="M29.3043 29.7940
L29.3648 29.8545
" />
<path d="M29.3648 29.8545
L29.4253 29.9754
" />
<path d="M29.4253 29.9754
L29.4253 30.2778
" />
<path d="M29.4253 30.2778
L29.3648 30.3988
" />
<path d="M29.3648 30.3988
L29.3043 30.4593
" />
<path d="M29.3043 30.4593
L29.1834 30.5197
" />
<path d="M29.1834 30.5197
L28.8205 30.5197
" />
<path d="M28.8205 30.5197
L28.6996 30.4593
" />
<path d="M28.6996 30.4593
L28.6391 30.3988
" />
<path d="M29.9091 29.3707
L29.9695 29.3102
" />
<path d="M29.9695 29.3102
L30.0905 29.2497
" />
<path d="M30.0905 29.2497
L30.3929 29.2497
" />
<path d="M30.3929 29.2497
L30.5138 29.3102
" />
<path d="M30.5138 29.3102
L30.5743 29.3707
" />
<path d="M30.5743 29.3707
L30.6348 29.4916
" />
<path d="M30.6348 29.4916
L30.6348 29.6126
" />
<path d="M30.6348 29.6126
L30.5743 29.7940
" />
<path d="M30.5743 29.7940
L29.8486 30.5197
" />
<path d="M29.8486 30.5197
L30.6348 30.5197
" />
</g><path d="M27.6352 33.4772
L31.6992 33.4772
" />
<text x="29.6672" y="33.2232"
textLength="2.6222" font-size="1.6933" lengthAdjust="spacingAndGlyphs"
text-anchor="middle" opacity="0">33</text>
<g class="stroked-text"><desc>33</desc>
<path d="M28.6391 31.7897
L29.4253 31.7897
" />
<path d="M29.4253 31.7897
L29.0019 32.2735
" />
<path d="M29.0019 32.2735
L29.1834 32.2735
" />
<path d="M29.1834 32.2735
L29.3043 32.3340
" />
<path d="M29.3043 32.3340
L29.3648 32.3945
" />
<path d="M29.3648 32.3945
L29.4253 32.5154
" />
<path d="M29.4253 32.5154
L29.4253 32.8178
" />
<path d="M29.4253 32.8178
L29.3648 32.9388
" />
<path d="M29.3648 32.9388
L29.3043 32.9993
" />
<path d="M29.3043 32.9993
L29.1834 33.0597
" />
<path d="M29.1834 33.0597
L28.8205 33.0597
" />
<path d="M28.8205 33.0597
L28.6996 32.9993
" />
<path d="M28.6996 32.9993
L28.6391 32.9388
" />
<path d="M29.8486 31.7897
L30.6348 31.7897
" />
<path d="M30.6348 31.7897
L30.2114 32.2735
" />
<path d="M30.2114 32.2735
L30.3929 32.2735
" />
<path d="M30.3929 32.2735
L30.5138 32.3340
" />
<path d="M30.5138 32.3340
L30.5743 32.3945
" />
<path d="M30.5743 32.3945
L30.6348 32.5154
" />
<path d="M30.6348 32.5154
L30.6348 32.8178
" />
<path d="M30.6348 32.8178
L30.5743 32.9388
" />
<path d="M30.5743 32.9388
L30.5138 32.9993
" />
<path d="M30.5138 32.9993
L30.3929 33.0597
" />
<path d="M30.3929 33.0597
L30.0300 33.0597
" />
<path d="M30.0300 33.0597
L29.9091 32.9993
" />
<path d="M29.9091 32.9993
L29.8486 32.9388
" />
</g><path d="M27.6352 36.0172
L31.6992 36.0172
" />
<text x="29.6672" y="35.7632"
textLength="2.6222" font-size="1.6933" lengthAdjust="spacingAndGlyphs"
text-anchor="middle" opacity="0">34</text>
<g class="stroked-text"><desc>34</desc>
<path d="M28.6391 34.3297
L29.4253 34.3297
" />
<path d="M29.4253 34.3297
L29.0019 34.8135
" />
<path d="M29.0019 34.8135
L29.1834 34.8135
" />
<path d="M29.1834 34.8135
L29.3043 34.8740
" />
<path d="M29.3043 34.8740
L29.3648 34.9345
" />
<path d="M29.3648 34.9345
L29.4253 35.0554
" />
<path d="M29.4253 35.0554
L29.4253 35.3578
" />
<path d="M29.4253 35.3578
L29.3648 35.4788
" />
<path d="M29.3648 35.4788
L29.3043 35.5393
" />
<path d="M29.3043 35.5393
L29.1834 35.5997
" />
<path d="M29.1834 35.5997
L28.8205 35.5997
" />
<path d="M28.8205 35.5997
L28.6996 35.5393
" />
<path d="M28.6996 35.5393
L28.6391 35.4788
" />
<path d="M30.5138 34.7531
L30.5138 35.5997
" />
<path d="M30.2114 34.2693
L29.9091 35.1764
" />
<path d="M29.9091 35.1764
L30.6952 35.1764
" />
</g><path d="M27.6352 38.5572
L31.6992 38.5572
" />
<text x="29.6672" y="38.3032"
textLength="2.6222" font-size="1.6933" lengthAdjust="spacingAndGlyphs"
text-anchor="middle" opacity="0">35</text>
<g class="stroked-text"><desc>35</desc>
<path d="M28.6391 36.8697
L29.4253 36.8697
" />
<path d="M29.4253 36.8697
L29.0019 37.3535
" />
<path d="M29.0019 37.3535
L29.1834 37.3535
" />
<path d="M29.1834 37.3535
L29.3043 37.4140
" />
<path d="M29.3043 37.4140
L29.3648 37.4745
" />
<path d="M29.3648 37.4745
L29.4253 37.5954
" />
<path d="M29.4253 37.5954
L29.4253 37.8978
" />
<path d="M29.4253 37.8978
L29.3648 38.0188
" />
<path d="M29.3648 38.0188
L29.3043 38.0793
" />
<path d="M29.3043 38.0793
L29.1834 38.1397
" />
<path d="M29.1834 38.1397
L28.8205 38.1397
" />
<path d="M28.8205 38.1397
L28.6996 38.0793
" />
<path d="M28.6996 38.0793
L28.6391 38.0188
" />
<path d="M30.5743 36.8697
L29.9695 36.8697
" />
<path d="M29.9695 36.8697
L29.9091 37.4745
" />
<path d="M29.9091 37.4745
L29.9695 37.4140
" />
<path d="M29.9695 37.4140
L30.0905 37.3535
" />
<path d="M30.0905 37.3535
L30.3929 37.3535
" />
<path d="M30.3929 37.3535
L30.5138 37.4140
" />
<path d="M30.5138 37.4140
L30.5743 37.4745
" />
<path d="M30.5743 37.4745
L30.6348 37.5954
" />
<path d="M30.6348 37.5954
L30.6348 37.8978
" />
<path d="M30.6348 37.8978
L30.5743 38.0188
" />
<path d="M30.5743 38.0188
L30.5138 38.0793
" />
<path d="M30.5138 38.0793
L30.3929 38.1397
" />
<path d="M30.3929 38.1397
L30.0905 38.1397
" />
<path d="M30.0905 38.1397
L29.9695 38.0793
" />
<path d="M29.9695 38.0793
L29.9091 38.0188
" />
</g><path d="M27.6352 41.0972
L31.6992 41.0972
" />
<text x="29.6672" y="40.8432"
textLength="2.6222" font-size="1.6933" lengthAdjust="spacingAndGlyphs"
text-anchor="middle" opacity="0">36</text>
<g class="stroked-text"><desc>36</desc>
<path d="M28.6391 39.4097
L29.4253 39.4097
" />
<path d="M29.4253 39.4097
L29.0019 39.8935
" />
<path d="M29.0019 39.8935
L29.1834 39.8935
" />
<path d="M29.1834 39.8935
L29.3043 39.9540
" />
<path d="M29.3043 39.9540
L29.3648 40.0145
" />
<path d="M29.3648 40.0145
L29.4253 40.1354
" />
<path d="M29.4253 40.1354
L29.4253 40.4378
" />
<path d="M29.4253 40.4378
L29.3648 40.5588
" />
<path d="M29.3648 40.5588
L29.3043 40.6193
" />
<path d="M29.3043 40.6193
L29.1834 40.6797
" />
<path d="M29.1834 40.6797
L28.8205 40.6797
" />
<path d="M28.8205 40.6797
L28.6996 40.6193
" />
<path d="M28.6996 40.6193
L28.6391 40.5588
" />
<path d="M30.5138 39.4097
L30.2719 39.4097
" />
<path d="M30.2719 39.4097
L30.1510 39.4702
" />
<path d="M30.1510 39.4702
L30.0905 39.5307
" />
<path d="M30.0905 39.5307
L29.9695 39.7121
" />
<path d="M29.9695 39.7121
L29.9091 39.9540
" />
<path d="M29.9091 39.9540
L29.9091 40.4378
" />
<path d="M29.9091 40.4378
L29.9695 40.5588
" />
<path d="M29.9695 40.5588
L30.0300 40.6193
" />
<path d="M30.0300 40.6193
L30.1510 40.6797
" />
<path d="M30.1510 40.6797
L30.3929 40.6797
" />
<path d="M30.3929 40.6797
L30.5138 40.6193
" />
<path d="M30.5138 40.6193
L30.5743 40.5588
" />
<path d="M30.5743 40.5588
L30.6348 40.4378
" />
<path d="M30.6348 40.4378
L30.6348 40.1354
" />
<path d="M30.6348 40.1354
L30.5743 40.0145
" />
<path d="M30.5743 40.0145
L30.5138 39.9540
" />
<path d="M30.5138 39.9540
L30.3929 39.8935
" />
<path d="M30.3929 39.8935
L30.1510 39.8935
" />
<path d="M30.1510 39.8935
L30.0300 39.9540
" />
<path d="M30.0300 39.9540
L29.9695 40.0145
" />
<path d="M29.9695 40.0145
L29.9091 40.1354
" />
</g><path d="M27.6352 43.6372
L31.6992 43.6372
" />
<text x="29.6672" y="43.3832"
textLength="2.6222" font-size="1.6933" lengthAdjust="spacingAndGlyphs"
text-anchor="middle" opacity="0">37</text>
<g class="stroked-text"><desc>37</desc>
<path d="M28.6391 41.9497
L29.4253 41.9497
" />
<path d="M29.4253 41.9497
L29.0019 42.4335
" />
<path d="M29.0019 42.4335
L29.1834 42.4335
" />
<path d="M29.1834 42.4335
L29.3043 42.4940
" />
<path d="M29.3043 42.4940
L29.3648 42.5545
" />
<path d="M29.3648 42.5545
L29.4253 42.6754
" />
<path d="M29.4253 42.6754
L29.4253 42.9778
" />
<path d="M29.4253 42.9778
L29.3648 43.0988
" />
<path d="M29.3648 43.0988
L29.3043 43.1593
" />
<path d="M29.3043 43.1593
L29.1834 43.2197
" />
<path d="M29.1834 43.2197
L28.8205 43.2197
" />
<path d="M28.8205 43.2197
L28.6996 43.1593
" />
<path d="M28.6996 43.1593
L28.6391 43.0988
" />
<path d="M29.8486 41.9497
L30.6952 41.9497
" />
<path d="M30.6952 41.9497
L30.1510 43.2197
" />
</g><path d="M27.6352 46.1772
L31.6992 46.1772
" />
<text x="29.6672" y="45.9232"
textLength="2.6222" font-size="1.6933" lengthAdjust="spacingAndGlyphs"
text-anchor="middle" opacity="0">38</text>
<g class="stroked-text"><desc>38</desc>
<path d="M28.6391 44.4897
L29.4253 44.4897
" />
<path d="M29.4253 44.4897
L29.0019 44.9735
" />
<path d="M29.0019 44.9735
L29.1834 44.9735
" />
<path d="M29.1834 44.9735
L29.3043 45.0340
" />
<path d="M29.3043 45.0340
L29.3648 45.0945
" />
<path d="M29.3648 45.0945
L29.4253 45.2154
" />
<path d="M29.4253 45.2154
L29.4253 45.5178
" />
<path d="M29.4253 45.5178
L29.3648 45.6388
" />
<path d="M29.3648 45.6388
L29.3043 45.6993
" />
<path d="M29.3043 45.6993
L29.1834 45.7597
" />
<path d="M29.1834 45.7597
L28.8205 45.7597
" />
<path d="M28.8205 45.7597
L28.6996 45.6993
" />
<path d="M28.6996 45.6993
L28.6391 45.6388
" />
<path d="M30.1510 45.0340
L30.0300 44.9735
" />
<path d="M30.0300 44.9735
L29.9695 44.9131
" />
<path d="M29.9695 44.9131
L29.9091 44.7921
" />
<path d="M29.9091 44.7921
L29.9091 44.7316
" />
<path d="M29.9091 44.7316
L29.9695 44.6107
" />
<path d="M29.9695 44.6107
L30.0300 44.5502
" />
<path d="M30.0300 44.5502
L30.1510 44.4897
" />
<path d="M30.1510 44.4897
L30.3929 44.4897
" />
<path d="M30.3929 44.4897
L30.5138 44.5502
" />
<path d="M30.5138 44.5502
L30.5743 44.6107
" />
<path d="M30.5743 44.6107
L30.6348 44.7316
" />
<path d="M30.6348 44.7316
L30.6348 44.7921
" />
<path d="M30.6348 44.7921
L30.5743 44.9131
" />
<path d="M30.5743 44.9131
L30.5138 44.9735
" />
<path d="M30.5138 44.9735
L30.3929 45.0340
" />
<path d="M30.3929 45.0340
L30.1510 45.0340
" />
<path d="M30.1510 45.0340
L30.0300 45.0945
" />
<path d="M30.0300 45.0945
L29.9695 45.1550
" />
<path d="M29.9695 45.1550
L29.9091 45.2759
" />
<path d="M29.9091 45.2759
L29.9091 45.5178
" />
<path d="M29.9091 45.5178
L29.9695 45.6388
" />
<path d="M29.9695 45.6388
L30.0300 45.6993
" />
<path d="M30.0300 45.6993
L30.1510 45.7597
" />
<path d="M30.1510 45.7597
L30.3929 45.7597
" />
<path d="M30.3929 45.7597
L30.5138 45.6993
" />
<path d="M30.5138 45.6993
L30.5743 45.6388
" />
<path d="M30.5743 45.6388
L30.6348 45.5178
" />
<path d="M30.6348 45.5178
L30.6348 45.2759
" />
<path d="M30.6348 45.2759
L30.5743 45.1550
" />
<path d="M30.5743 45.1550
L30.5138 45.0945
" />
<path d="M30.5138 45.0945
L30.3929 45.0340
" />
</g><path d="M27.6352 48.7172
L31.6992 48.7172
" />
<text x="29.6672" y="48.4632"
textLength="2.6222" font-size="1.6933" lengthAdjust="spacingAndGlyphs"
text-anchor="middle" opacity="0">39</text>
<g class="stroked-text"><desc>39</desc>
<path d="M28.6391 47.0297
L29.4253 47.0297
" />
<path d="M29.4253 47.0297
L29.0019 47.5135
" />
<path d="M29.0019 47.5135
L29.1834 47.5135
" />
<path d="M29.1834 47.5135
L29.3043 47.5740
" />
<path d="M29.3043 47.5740
L29.3648 47.6345
" />
<path d="M29.3648 47.6345
L29.4253 47.7554
" />
<path d="M29.4253 47.7554
L29.4253 48.0578
" />
<path d="M29.4253 48.0578
L29.3648 48.1788
" />
<path d="M29.3648 48.1788
L29.3043 48.2393
" />
<path d="M29.3043 48.2393
L29.1834 48.2997
" />
<path d="M29.1834 48.2997
L28.8205 48.2997
" />
<path d="M28.8205 48.2997
L28.6996 48.2393
" />
<path d="M28.6996 48.2393
L28.6391 48.1788
" />
<path d="M30.0300 48.2997
L30.2719 48.2997
" />
<path d="M30.2719 48.2997
L30.3929 48.2393
" />
<path d="M30.3929 48.2393
L30.4533 48.1788
" />
<path d="M30.4533 48.1788
L30.5743 47.9973
" />
<path d="M30.5743 47.9973
L30.6348 47.7554
" />
<path d="M30.6348 47.7554
L30.6348 47.2716
" />
<path d="M30.6348 47.2716
L30.5743 47.1507
" />
<path d="M30.5743 47.1507
L30.5138 47.0902
" />
<path d="M30.5138 47.0902
L30.3929 47.0297
" />
<path d="M30.3929 47.0297
L30.1510 47.0297
" />
<path d="M30.1510 47.0297
L30.0300 47.0902
" />
<path d="M30.0300 47.0902
L29.9695 47.1507
" />
<path d="M29.9695 47.1507
L29.9091 47.2716
" />
<path d="M29.9091 47.2716
L29.9091 47.5740
" />
<path d="M29.9091 47.5740
L29.9695 47.6950
" />
<path d="M29.9695 47.6950
L30.0300 47.7554
" />
<path d="M30.0300 47.7554
L30.1510 47.8159
" />
<path d="M30.1510 47.8159
L30.3929 47.8159
" />
<path d="M30.3929 47.8159
L30.5138 47.7554
" />
<path d="M30.5138 47.7554
L30.5743 47.6950
" />
<path d="M30.5743 47.6950
L30.6348 47.5740
" />
</g><path d="M23.0632 18.2372
L18.9992 18.2372
" />
<text x="21.0312" y="17.9832"
textLength="1.4127" font-size="1.6933" lengthAdjust="spacingAndGlyphs"
text-anchor="middle" opacity="0">4</text>
<g class="stroked-text"><desc>4</desc>
<path d="M21.2731 16.9731
L21.2731 17.8197
" />
<path d="M20.9707 16.4893
L20.6684 17.3964
" />
<path d="M20.6684 17.3964
L21.4545 17.3964
" />
</g><path d="M27.6352 51.2572
L31.6992 51.2572
" />
<text x="29.6672" y="51.0032"
textLength="2.6222" font-size="1.6933" lengthAdjust="spacingAndGlyphs"
text-anchor="middle" opacity="0">40</text>
<g class="stroked-text"><desc>40</desc>
<path d="M29.3043 49.9931
L29.3043 50.8397
" />
<path d="M29.0019 49.5093
L28.6996 50.4164
" />
<path d="M28.6996 50.4164
L29.4857 50.4164
" />
<path d="M30.2114 49.5697
L30.3324 49.5697
" />
<path d="M30.3324 49.5697
L30.4533 49.6302
" />
<path d="M30.4533 49.6302
L30.5138 49.6907
" />
<path d="M30.5138 49.6907
L30.5743 49.8116
" />
<path d="M30.5743 49.8116
L30.6348 50.0535
" />
<path d="M30.6348 50.0535
L30.6348 50.3559
" />
<path d="M30.6348 50.3559
L30.5743 50.5978
" />
<path d="M30.5743 50.5978
L30.5138 50.7188
" />
<path d="M30.5138 50.7188
L30.4533 50.7793
" />
<path d="M30.4533 50.7793
L30.3324 50.8397
" />
<path d="M30.3324 50.8397
L30.2114 50.8397
" />
<path d="M30.2114 50.8397
L30.0905 50.7793
" />
<path d="M30.0905 50.7793
L30.0300 50.7188
" />
<path d="M30.0300 50.7188
L29.9695 50.5978
" />
<path d="M29.9695 50.5978
L29.9091 50.3559
" />
<path d="M29.9091 50.3559
L29.9091 50.0535
" />
<path d="M29.9091 50.0535
L29.9695 49.8116
" />
<path d="M29.9695 49.8116
L30.0300 49.6907
" />
<path d="M30.0300 49.6907
L30.0905 49.6302
" />
<path d="M30.0905 49.6302
L30.2114 49.5697
" />
</g><path d="M27.6352 53.7972
L31.6992 53.7972
" />
<text x="29.6672" y="53.5432"
textLength="2.6222" font-size="1.6933" lengthAdjust="spacingAndGlyphs"
text-anchor="middle" opacity="0">41</text>
<g class="stroked-text"><desc>41</desc>
<path d="M29.3043 52.5331
L29.3043 53.3797
" />
<path d="M29.0019 52.0493
L28.6996 52.9564
" />
<path d="M28.6996 52.9564
L29.4857 52.9564
" />
<path d="M30.6348 53.3797
L29.9091 53.3797
" />
<path d="M30.2719 53.3797
L30.2719 52.1097
" />
<path d="M30.2719 52.1097
L30.1510 52.2912
" />
<path d="M30.1510 52.2912
L30.0300 52.4121
" />
<path d="M30.0300 52.4121
L29.9091 52.4726
" />
</g><path d="M27.6352 56.3372
L31.6992 56.3372
" />
<text x="29.6672" y="56.0832"
textLength="2.6222" font-size="1.6933" lengthAdjust="spacingAndGlyphs"
text-anchor="middle" opacity="0">42</text>
<g class="stroked-text"><desc>42</desc>
<path d="M29.3043 55.0731
L29.3043 55.9197
" />
<path d="M29.0019 54.5893
L28.6996 55.4964
" />
<path d="M28.6996 55.4964
L29.4857 55.4964
" />
<path d="M29.9091 54.7707
L29.9695 54.7102
" />
<path d="M29.9695 54.7102
L30.0905 54.6497
" />
<path d="M30.0905 54.6497
L30.3929 54.6497
" />
<path d="M30.3929 54.6497
L30.5138 54.7102
" />
<path d="M30.5138 54.7102
L30.5743 54.7707
" />
<path d="M30.5743 54.7707
L30.6348 54.8916
" />
<path d="M30.6348 54.8916
L30.6348 55.0126
" />
<path d="M30.6348 55.0126
L30.5743 55.1940
" />
<path d="M30.5743 55.1940
L29.8486 55.9197
" />
<path d="M29.8486 55.9197
L30.6348 55.9197
" />
</g><path d="M27.6352 58.8772
L31.6992 58.8772
" />
<text x="29.6672" y="58.6232"
textLength="2.6222" font-size="1.6933" lengthAdjust="spacingAndGlyphs"
text-anchor="middle" opacity="0">43</text>
<g class="stroked-text"><desc>43</desc>
<path d="M29.3043 57.6131
L29.3043 58.4597
" />
<path d="M29.0019 57.1293
L28.6996 58.0364
" />
<path d="M28.6996 58.0364
L29.4857 58.0364
" />
<path d="M29.8486 57.1897
L30.6348 57.1897
" />
<path d="M30.6348 57.1897
L30.2114 57.6735
" />
<path d="M30.2114 57.6735
L30.3929 57.6735
" />
<path d="M30.3929 57.6735
L30.5138 57.7340
" />
<path d="M30.5138 57.7340
L30.5743 57.7945
" />
<path d="M30.5743 57.7945
L30.6348 57.9154
" />
<path d="M30.6348 57.9154
L30.6348 58.2178
" />
<path d="M30.6348 58.2178
L30.5743 58.3388
" />
<path d="M30.5743 58.3388
L30.5138 58.3993
" />
<path d="M30.5138 58.3993
L30.3929 58.4597
" />
<path d="M30.3929 58.4597
L30.0300 58.4597
" />
<path d="M30.0300 58.4597
L29.9091 58.3993
" />
<path d="M29.9091 58.3993
L29.8486 58.3388
" />
</g><path d="M27.6352 61.4172
L31.6992 61.4172
" />
<text x="29.6672" y="61.1632"
textLength="2.6222" font-size="1.6933" lengthAdjust="spacingAndGlyphs"
text-anchor="middle" opacity="0">44</text>
<g class="stroked-text"><desc>44</desc>
<path d="M29.3043 60.1531
L29.3043 60.9997
" />
<path d="M29.0019 59.6693
L28.6996 60.5764
" />
<path d="M28.6996 60.5764
L29.4857 60.5764
" />
<path d="M30.5138 60.1531
L30.5138 60.9997
" />
<path d="M30.2114 59.6693
L29.9091 60.5764
" />
<path d="M29.9091 60.5764
L30.6952 60.5764
" />
</g><path d="M27.6352 63.9572
L31.6992 63.9572
" />
<text x="29.6672" y="63.7032"
textLength="2.6222" font-size="1.6933" lengthAdjust="spacingAndGlyphs"
text-anchor="middle" opacity="0">45</text>
<g class="stroked-text"><desc>45</desc>
<path d="M29.3043 62.6931
L29.3043 63.5397
" />
<path d="M29.0019 62.2093
L28.6996 63.1164
" />
<path d="M28.6996 63.1164
L29.4857 63.1164
" />
<path d="M30.5743 62.2697
L29.9695 62.2697
" />
<path d="M29.9695 62.2697
L29.9091 62.8745
" />
<path d="M29.9091 62.8745
L29.9695 62.8140
" />
<path d="M29.9695 62.8140
L30.0905 62.7535
" />
<path d="M30.0905 62.7535
L30.3929 62.7535
" />
<path d="M30.3929 62.7535
L30.5138 62.8140
" />
<path d="M30.5138 62.8140
L30.5743 62.8745
" />
<path d="M30.5743 62.8745
L30.6348 62.9954
" />
<path d="M30.6348 62.9954
L30.6348 63.2978
" />
<path d="M30.6348 63.2978
L30.5743 63.4188
" />
<path d="M30.5743 63.4188
L30.5138 63.4793
" />
<path d="M30.5138 63.4793
L30.3929 63.5397
" />
<path d="M30.3929 63.5397
L30.0905 63.5397
" />
<path d="M30.0905 63.5397
L29.9695 63.4793
" />
<path d="M29.9695 63.4793
L29.9091 63.4188
" />
</g><path d="M27.6352 66.4972
L31.6992 66.4972
" />
<text x="29.6672" y="66.2432"
textLength="2.6222" font-size="1.6933" lengthAdjust="spacingAndGlyphs"
text-anchor="middle" opacity="0">46</text>
<g class="stroked-text"><desc>46</desc>
<path d="M29.3043 65.2331
L29.3043 66.0797
" />
<path d="M29.0019 64.7493
L28.6996 65.6564
" />
<path d="M28.6996 65.6564
L29.4857 65.6564
" />
<path d="M30.5138 64.8097
L30.2719 64.8097
" />
<path d="M30.2719 64.8097
L30.1510 64.8702
" />
<path d="M30.1510 64.8702
L30.0905 64.9307
" />
<path d="M30.0905 64.9307
L29.9695 65.1121
" />
<path d="M29.9695 65.1121
L29.9091 65.3540
" />
<path d="M29.9091 65.3540
L29.9091 65.8378
" />
<path d="M29.9091 65.8378
L29.9695 65.9588
" />
<path d="M29.9695 65.9588
L30.0300 66.0193
" />
<path d="M30.0300 66.0193
L30.1510 66.0797
" />
<path d="M30.1510 66.0797
L30.3929 66.0797
" />
<path d="M30.3929 66.0797
L30.5138 66.0193
" />
<path d="M30.5138 66.0193
L30.5743 65.9588
" />
<path d="M30.5743 65.9588
L30.6348 65.8378
" />
<path d="M30.6348 65.8378
L30.6348 65.5354
" />
<path d="M30.6348 65.5354
L30.5743 65.4145
" />
<path d="M30.5743 65.4145
L30.5138 65.3540
" />
<path d="M30.5138 65.3540
L30.3929 65.2935
" />
<path d="M30.3929 65.2935
L30.1510 65.2935
" />
<path d="M30.1510 65.2935
L30.0300 65.3540
" />
<path d="M30.0300 65.3540
L29.9695 65.4145
" />
<path d="M29.9695 65.4145
L29.9091 65.5354
" />
</g><path d="M23.0632 20.7772
L18.9992 20.7772
" />
<text x="21.0312" y="20.5232"
textLength="1.4127" font-size="1.6933" lengthAdjust="spacingAndGlyphs"
text-anchor="middle" opacity="0">5</text>
<g class="stroked-text"><desc>5</desc>
<path d="M21.3336 19.0897
L20.7288 19.0897
" />
<path d="M20.7288 19.0897
L20.6684 19.6945
" />
<path d="M20.6684 19.6945
L20.7288 19.6340
" />
<path d="M20.7288 19.6340
L20.8498 19.5735
" />
<path d="M20.8498 19.5735
L21.1522 19.5735
" />
<path d="M21.1522 19.5735
L21.2731 19.6340
" />
<path d="M21.2731 19.6340
L21.3336 19.6945
" />
<path d="M21.3336 19.6945
L21.3941 19.8154
" />
<path d="M21.3941 19.8154
L21.3941 20.1178
" />
<path d="M21.3941 20.1178
L21.3336 20.2388
" />
<path d="M21.3336 20.2388
L21.2731 20.2993
" />
<path d="M21.2731 20.2993
L21.1522 20.3597
" />
<path d="M21.1522 20.3597
L20.8498 20.3597
" />
<path d="M20.8498 20.3597
L20.7288 20.2993
" />
<path d="M20.7288 20.2993
L20.6684 20.2388
" />
</g><path d="M23.0632 23.3172
L18.9992 23.3172
" />
<text x="21.0312" y="23.0632"
textLength="1.4127" font-size="1.6933" lengthAdjust="spacingAndGlyphs"
text-anchor="middle" opacity="0">6</text>
<g class="stroked-text"><desc>6</desc>
<path d="M21.2731 21.6297
L21.0312 21.6297
" />
<path d="M21.0312 21.6297
L20.9103 21.6902
" />
<path d="M20.9103 21.6902
L20.8498 21.7507
" />
<path d="M20.8498 21.7507
L20.7288 21.9321
" />
<path d="M20.7288 21.9321
L20.6684 22.1740
" />
<path d="M20.6684 22.1740
L20.6684 22.6578
" />
<path d="M20.6684 22.6578
L20.7288 22.7788
" />
<path d="M20.7288 22.7788
L20.7893 22.8393
" />
<path d="M20.7893 22.8393
L20.9103 22.8997
" />
<path d="M20.9103 22.8997
L21.1522 22.8997
" />
<path d="M21.1522 22.8997
L21.2731 22.8393
" />
<path d="M21.2731 22.8393
L21.3336 22.7788
" />
<path d="M21.3336 22.7788
L21.3941 22.6578
" />
<path d="M21.3941 22.6578
L21.3941 22.3554
" />
<path d="M21.3941 22.3554
L21.3336 22.2345
" />
<path d="M21.3336 22.2345
L21.2731 22.1740
" />
<path d="M21.2731 22.1740
L21.1522 22.1135
" />
<path d="M21.1522 22.1135
L20.9103 22.1135
" />
<path d="M20.9103 22.1135
L20.7893 22.1740
" />
<path d="M20.7893 22.1740
L20.7288 22.2345
" />
<path d="M20.7288 22.2345
L20.6684 22.3554
" />
</g><path d="M23.0632 25.8572
L18.9992 25.8572
" />
<text x="21.0312" y="25.6032"
textLength="1.4127" font-size="1.6933" lengthAdjust="spacingAndGlyphs"
text-anchor="middle" opacity="0">7</text>
<g class="stroked-text"><desc>7</desc>
<path d="M20.6079 24.1697
L21.4545 24.1697
" />
<path d="M21.4545 24.1697
L20.9103 25.4397
" />
</g><path d="M23.0632 28.3972
L18.9992 28.3972
" />
<text x="21.0312" y="28.1432"
textLength="1.4127" font-size="1.6933" lengthAdjust="spacingAndGlyphs"
text-anchor="middle" opacity="0">8</text>
<g class="stroked-text"><desc>8</desc>
<path d="M20.9103 27.2540
L20.7893 27.1935
" />
<path d="M20.7893 27.1935
L20.7288 27.1331
" />
<path d="M20.7288 27.1331
L20.6684 27.0121
" />
<path d="M20.6684 27.0121
L20.6684 26.9516
" />
<path d="M20.6684 26.9516
L20.7288 26.8307
" />
<path d="M20.7288 26.8307
L20.7893 26.7702
" />
<path d="M20.7893 26.7702
L20.9103 26.7097
" />
<path d="M20.9103 26.7097
L21.1522 26.7097
" />
<path d="M21.1522 26.7097
L21.2731 26.7702
" />
<path d="M21.2731 26.7702
L21.3336 26.8307
" />
<path d="M21.3336 26.8307
L21.3941 26.9516
" />
<path d="M21.3941 26.9516
L21.3941 27.0121
" />
<path d="M21.3941 27.0121
L21.3336 27.1331
" />
<path d="M21.3336 27.1331
L21.2731 27.1935
" />
<path d="M21.2731 27.1935
L21.1522 27.2540
" />
<path d="M21.1522 27.2540
L20.9103 27.2540
" />
<path d="M20.9103 27.2540
L20.7893 27.3145
" />
<path d="M20.7893 27.3145
L20.7288 27.3750
" />
<path d="M20.7288 27.3750
L20.6684 27.4959
" />
<path d="M20.6684 27.4959
L20.6684 27.7378
" />
<path d="M20.6684 27.7378
L20.7288 27.8588
" />
<path d="M20.7288 27.8588
L20.7893 27.9193
" />
<path d="M20.7893 27.9193
L20.9103 27.9797
" />
<path d="M20.9103 27.9797
L21.1522 27.9797
" />
<path d="M21.1522 27.9797
L21.2731 27.9193
" />
<path d="M21.2731 27.9193
L21.3336 27.8588
" />
<path d="M21.3336 27.8588
L21.3941 27.7378
" />
<path d="M21.3941 27.7378
L21.3941 27.4959
" />
<path d="M21.3941 27.4959
L21.3336 27.3750
" />
<path d="M21.3336 27.3750
L21.2731 27.3145
" />
<path d="M21.2731 27.3145
L21.1522 27.2540
" />
</g><path d="M23.0632 30.9372
L18.9992 30.9372
" />
<text x="21.0312" y="30.6832"
textLength="1.4127" font-size="1.6933" lengthAdjust="spacingAndGlyphs"
text-anchor="middle" opacity="0">9</text>
<g class="stroked-text"><desc>9</desc>
<path d="M20.7893 30.5197
L21.0312 30.5197
" />
<path d="M21.0312 30.5197
L21.1522 30.4593
" />
<path d="M21.1522 30.4593
L21.2126 30.3988
" />
<path d="M21.2126 30.3988
L21.3336 30.2173
" />
<path d="M21.3336 30.2173
L21.3941 29.9754
" />
<path d="M21.3941 29.9754
L21.3941 29.4916
" />
<path d="M21.3941 29.4916
L21.3336 29.3707
" />
<path d="M21.3336 29.3707
L21.2731 29.3102
" />
<path d="M21.2731 29.3102
L21.1522 29.2497
" />
<path d="M21.1522 29.2497
L20.9103 29.2497
" />
<path d="M20.9103 29.2497
L20.7893 29.3102
" />
<path d="M20.7893 29.3102
L20.7288 29.3707
" />
<path d="M20.7288 29.3707
L20.6684 29.4916
" />
<path d="M20.6684 29.4916
L20.6684 29.7940
" />
<path d="M20.6684 29.7940
L20.7288 29.9150
" />
<path d="M20.7288 29.9150
L20.7893 29.9754
" />
<path d="M20.7893 29.9754
L20.9103 30.0359
" />
<path d="M20.9103 30.0359
L21.1522 30.0359
" />
<path d="M21.1522 30.0359
L21.2731 29.9754
" />
<path d="M21.2731 29.9754
L21.3336 29.9150
" />
<path d="M21.3336 29.9150
L21.3941 29.7940
" />
</g><path d="M25.3492 67.7672
L25.3492 71.5772
" />
<g transform="rotate(-90.000000 25.0952 69.6722)">
<text x="25.0952" y="69.6722"
textLength="2.7432" font-size="1.6933" lengthAdjust="spacingAndGlyphs"
text-anchor="middle" opacity="0">SH</text>
</g>
<g class="stroked-text"><desc>SH</desc>
<path d="M24.8713 70.7002
L24.9317 70.5188
" />
<path d="M24.9317 70.5188
L24.9317 70.2164
" />
<path d="M24.9317 70.2164
L24.8713 70.0955
" />
<path d="M24.8713 70.0955
L24.8108 70.0350
" />
<path d="M24.8108 70.0350
L24.6898 69.9745
" />
<path d="M24.6898 69.9745
L24.5689 69.9745
" />
<path d="M24.5689 69.9745
L24.4479 70.0350
" />
<path d="M24.4479 70.0350
L24.3874 70.0955
" />
<path d="M24.3874 70.0955
L24.3270 70.2164
" />
<path d="M24.3270 70.2164
L24.2665 70.4583
" />
<path d="M24.2665 70.4583
L24.2060 70.5793
" />
<path d="M24.2060 70.5793
L24.1455 70.6398
" />
<path d="M24.1455 70.6398
L24.0246 70.7002
" />
<path d="M24.0246 70.7002
L23.9036 70.7002
" />
<path d="M23.9036 70.7002
L23.7827 70.6398
" />
<path d="M23.7827 70.6398
L23.7222 70.5793
" />
<path d="M23.7222 70.5793
L23.6617 70.4583
" />
<path d="M23.6617 70.4583
L23.6617 70.1560
" />
<path d="M23.6617 70.1560
L23.7222 69.9745
" />
<path d="M24.9317 69.4303
L23.6617 69.4303
" />
<path d="M24.2665 69.4303
L24.2665 68.7046
" />
<path d="M24.9317 68.7046
L23.6617 68.7046
" />
</g></g>
<g style="fill:#000000; fill-opacity:0.0; 
stroke:#000000; stroke-width:0.1588; stroke-opacity:1; 
stroke-linecap:round; stroke-linejoin:round;">
<text x="25.6032" y="8.9662"
textLength="2.2786" font-size="1.6933" lengthAdjust="spacingAndGlyphs"
text-anchor="middle" opacity="0">J?</text>
<g class="stroked-text"><desc>J?</desc>
<path d="M25.2403 7.6404
L25.2403 8.5476
" />
<path d="M25.2403 8.5476
L25.1798 8.7290
" />
<path d="M25.1798 8.7290
L25.0589 8.8500
" />
<path d="M25.0589 8.8500
L24.8774 8.9104
" />
<path d="M24.8774 8.9104
L24.7565 8.9104
" />
<path d="M26.0265 8.7895
L26.0869 8.8500
" />
<path d="M26.0869 8.8500
L26.0265 8.9104
" />
<path d="M26.0265 8.9104
L25.9660 8.8500
" />
<path d="M25.9660 8.8500
L26.0265 8.7895
" />
<path d="M26.0265 8.7895
L26.0265 8.9104
" />
<path d="M25.7846 7.7009
L25.9055 7.6404
" />
<path d="M25.9055 7.6404
L26.2079 7.6404
" />
<path d="M26.2079 7.6404
L26.3288 7.7009
" />
<path d="M26.3288 7.7009
L26.3893 7.8219
" />
<path d="M26.3893 7.8219
L26.3893 7.9428
" />
<path d="M26.3893 7.9428
L26.3288 8.0638
" />
<path d="M26.3288 8.0638
L26.2684 8.1242
" />
<path d="M26.2684 8.1242
L26.1474 8.1847
" />
<path d="M26.1474 8.1847
L26.0869 8.2452
" />
<path d="M26.0869 8.2452
L26.0265 8.3661
" />
<path d="M26.0265 8.3661
L26.0265 8.4266
" />
</g><text x="42.7441" y="69.4182"
textLength="32.7579" font-size="1.6933" lengthAdjust="spacingAndGlyphs"
text-anchor="middle" opacity="0">Conn_02x23_Top_Bottom_Shielded</text>
<g class="stroked-text"><desc>Conn_02x23_Top_Bottom_Shielded</desc>
<path d="M27.5044 69.2415
L27.4440 69.3020
" />
<path d="M27.4440 69.3020
L27.2625 69.3624
" />
<path d="M27.2625 69.3624
L27.1416 69.3624
" />
<path d="M27.1416 69.3624
L26.9602 69.3020
" />
<path d="M26.9602 69.3020
L26.8392 69.1810
" />
<path d="M26.8392 69.1810
L26.7787 69.0600
" />
<path d="M26.7787 69.0600
L26.7183 68.8181
" />
<path d="M26.7183 68.8181
L26.7183 68.6367
" />
<path d="M26.7183 68.6367
L26.7787 68.3948
" />
<path d="M26.7787 68.3948
L26.8392 68.2739
" />
<path d="M26.8392 68.2739
L26.9602 68.1529
" />
<path d="M26.9602 68.1529
L27.1416 68.0924
" />
<path d="M27.1416 68.0924
L27.2625 68.0924
" />
<path d="M27.2625 68.0924
L27.4440 68.1529
" />
<path d="M27.4440 68.1529
L27.5044 68.2134
" />
<path d="M28.2302 69.3624
L28.1092 69.3020
" />
<path d="M28.1092 69.3020
L28.0487 69.2415
" />
<path d="M28.0487 69.2415
L27.9883 69.1205
" />
<path d="M27.9883 69.1205
L27.9883 68.7577
" />
<path d="M27.9883 68.7577
L28.0487 68.6367
" />
<path d="M28.0487 68.6367
L28.1092 68.5762
" />
<path d="M28.1092 68.5762
L28.2302 68.5158
" />
<path d="M28.2302 68.5158
L28.4116 68.5158
" />
<path d="M28.4116 68.5158
L28.5325 68.5762
" />
<path d="M28.5325 68.5762
L28.5930 68.6367
" />
<path d="M28.5930 68.6367
L28.6535 68.7577
" />
<path d="M28.6535 68.7577
L28.6535 69.1205
" />
<path d="M28.6535 69.1205
L28.5930 69.2415
" />
<path d="M28.5930 69.2415
L28.5325 69.3020
" />
<path d="M28.5325 69.3020
L28.4116 69.3624
" />
<path d="M28.4116 69.3624
L28.2302 69.3624
" />
<path d="M29.1977 68.5158
L29.1977 69.3624
" />
<path d="M29.1977 68.6367
L29.2582 68.5762
" />
<path d="M29.2582 68.5762
L29.3792 68.5158
" />
<path d="M29.3792 68.5158
L29.5606 68.5158
" />
<path d="M29.5606 68.5158
L29.6815 68.5762
" />
<path d="M29.6815 68.5762
L29.7420 68.6972
" />
<path d="M29.7420 68.6972
L29.7420 69.3624
" />
<path d="M30.3467 68.5158
L30.3467 69.3624
" />
<path d="M30.3467 68.6367
L30.4072 68.5762
" />
<path d="M30.4072 68.5762
L30.5282 68.5158
" />
<path d="M30.5282 68.5158
L30.7096 68.5158
" />
<path d="M30.7096 68.5158
L30.8305 68.5762
" />
<path d="M30.8305 68.5762
L30.8910 68.6972
" />
<path d="M30.8910 68.6972
L30.8910 69.3624
" />
<path d="M31.1934 69.4834
L32.1610 69.4834
" />
<path d="M32.7052 68.0924
L32.8262 68.0924
" />
<path d="M32.8262 68.0924
L32.9471 68.1529
" />
<path d="M32.9471 68.1529
L33.0076 68.2134
" />
<path d="M33.0076 68.2134
L33.0681 68.3343
" />
<path d="M33.0681 68.3343
L33.1286 68.5762
" />
<path d="M33.1286 68.5762
L33.1286 68.8786
" />
<path d="M33.1286 68.8786
L33.0681 69.1205
" />
<path d="M33.0681 69.1205
L33.0076 69.2415
" />
<path d="M33.0076 69.2415
L32.9471 69.3020
" />
<path d="M32.9471 69.3020
L32.8262 69.3624
" />
<path d="M32.8262 69.3624
L32.7052 69.3624
" />
<path d="M32.7052 69.3624
L32.5843 69.3020
" />
<path d="M32.5843 69.3020
L32.5238 69.2415
" />
<path d="M32.5238 69.2415
L32.4633 69.1205
" />
<path d="M32.4633 69.1205
L32.4029 68.8786
" />
<path d="M32.4029 68.8786
L32.4029 68.5762
" />
<path d="M32.4029 68.5762
L32.4633 68.3343
" />
<path d="M32.4633 68.3343
L32.5238 68.2134
" />
<path d="M32.5238 68.2134
L32.5843 68.1529
" />
<path d="M32.5843 68.1529
L32.7052 68.0924
" />
<path d="M33.6124 68.2134
L33.6728 68.1529
" />
<path d="M33.6728 68.1529
L33.7938 68.0924
" />
<path d="M33.7938 68.0924
L34.0962 68.0924
" />
<path d="M34.0962 68.0924
L34.2171 68.1529
" />
<path d="M34.2171 68.1529
L34.2776 68.2134
" />
<path d="M34.2776 68.2134
L34.3381 68.3343
" />
<path d="M34.3381 68.3343
L34.3381 68.4553
" />
<path d="M34.3381 68.4553
L34.2776 68.6367
" />
<path d="M34.2776 68.6367
L33.5519 69.3624
" />
<path d="M33.5519 69.3624
L34.3381 69.3624
" />
<path d="M34.7614 69.3624
L35.4266 68.5158
" />
<path d="M34.7614 68.5158
L35.4266 69.3624
" />
<path d="M35.8500 68.2134
L35.9104 68.1529
" />
<path d="M35.9104 68.1529
L36.0314 68.0924
" />
<path d="M36.0314 68.0924
L36.3338 68.0924
" />
<path d="M36.3338 68.0924
L36.4547 68.1529
" />
<path d="M36.4547 68.1529
L36.5152 68.2134
" />
<path d="M36.5152 68.2134
L36.5757 68.3343
" />
<path d="M36.5757 68.3343
L36.5757 68.4553
" />
<path d="M36.5757 68.4553
L36.5152 68.6367
" />
<path d="M36.5152 68.6367
L35.7895 69.3624
" />
<path d="M35.7895 69.3624
L36.5757 69.3624
" />
<path d="M36.9990 68.0924
L37.7852 68.0924
" />
<path d="M37.7852 68.0924
L37.3618 68.5762
" />
<path d="M37.3618 68.5762
L37.5433 68.5762
" />
<path d="M37.5433 68.5762
L37.6642 68.6367
" />
<path d="M37.6642 68.6367
L37.7247 68.6972
" />
<path d="M37.7247 68.6972
L37.7852 68.8181
" />
<path d="M37.7852 68.8181
L37.7852 69.1205
" />
<path d="M37.7852 69.1205
L37.7247 69.2415
" />
<path d="M37.7247 69.2415
L37.6642 69.3020
" />
<path d="M37.6642 69.3020
L37.5433 69.3624
" />
<path d="M37.5433 69.3624
L37.1804 69.3624
" />
<path d="M37.1804 69.3624
L37.0595 69.3020
" />
<path d="M37.0595 69.3020
L36.9990 69.2415
" />
<path d="M38.0271 69.4834
L38.9947 69.4834
" />
<path d="M39.1156 68.0924
L39.8413 68.0924
" />
<path d="M39.4785 69.3624
L39.4785 68.0924
" />
<path d="M40.4461 69.3624
L40.3251 69.3020
" />
<path d="M40.3251 69.3020
L40.2646 69.2415
" />
<path d="M40.2646 69.2415
L40.2042 69.1205
" />
<path d="M40.2042 69.1205
L40.2042 68.7577
" />
<path d="M40.2042 68.7577
L40.2646 68.6367
" />
<path d="M40.2646 68.6367
L40.3251 68.5762
" />
<path d="M40.3251 68.5762
L40.4461 68.5158
" />
<path d="M40.4461 68.5158
L40.6275 68.5158
" />
<path d="M40.6275 68.5158
L40.7484 68.5762
" />
<path d="M40.7484 68.5762
L40.8089 68.6367
" />
<path d="M40.8089 68.6367
L40.8694 68.7577
" />
<path d="M40.8694 68.7577
L40.8694 69.1205
" />
<path d="M40.8694 69.1205
L40.8089 69.2415
" />
<path d="M40.8089 69.2415
L40.7484 69.3020
" />
<path d="M40.7484 69.3020
L40.6275 69.3624
" />
<path d="M40.6275 69.3624
L40.4461 69.3624
" />
<path d="M41.4136 68.5158
L41.4136 69.7858
" />
<path d="M41.4136 68.5762
L41.5346 68.5158
" />
<path d="M41.5346 68.5158
L41.7765 68.5158
" />
<path d="M41.7765 68.5158
L41.8974 68.5762
" />
<path d="M41.8974 68.5762
L41.9579 68.6367
" />
<path d="M41.9579 68.6367
L42.0184 68.7577
" />
<path d="M42.0184 68.7577
L42.0184 69.1205
" />
<path d="M42.0184 69.1205
L41.9579 69.2415
" />
<path d="M41.9579 69.2415
L41.8974 69.3020
" />
<path d="M41.8974 69.3020
L41.7765 69.3624
" />
<path d="M41.7765 69.3624
L41.5346 69.3624
" />
<path d="M41.5346 69.3624
L41.4136 69.3020
" />
<path d="M42.2603 69.4834
L43.2279 69.4834
" />
<path d="M43.9536 68.6972
L44.1350 68.7577
" />
<path d="M44.1350 68.7577
L44.1955 68.8181
" />
<path d="M44.1955 68.8181
L44.2559 68.9391
" />
<path d="M44.2559 68.9391
L44.2559 69.1205
" />
<path d="M44.2559 69.1205
L44.1955 69.2415
" />
<path d="M44.1955 69.2415
L44.1350 69.3020
" />
<path d="M44.1350 69.3020
L44.0140 69.3624
" />
<path d="M44.0140 69.3624
L43.5302 69.3624
" />
<path d="M43.5302 69.3624
L43.5302 68.0924
" />
<path d="M43.5302 68.0924
L43.9536 68.0924
" />
<path d="M43.9536 68.0924
L44.0745 68.1529
" />
<path d="M44.0745 68.1529
L44.1350 68.2134
" />
<path d="M44.1350 68.2134
L44.1955 68.3343
" />
<path d="M44.1955 68.3343
L44.1955 68.4553
" />
<path d="M44.1955 68.4553
L44.1350 68.5762
" />
<path d="M44.1350 68.5762
L44.0745 68.6367
" />
<path d="M44.0745 68.6367
L43.9536 68.6972
" />
<path d="M43.9536 68.6972
L43.5302 68.6972
" />
<path d="M44.9817 69.3624
L44.8607 69.3020
" />
<path d="M44.8607 69.3020
L44.8002 69.2415
" />
<path d="M44.8002 69.2415
L44.7398 69.1205
" />
<path d="M44.7398 69.1205
L44.7398 68.7577
" />
<path d="M44.7398 68.7577
L44.8002 68.6367
" />
<path d="M44.8002 68.6367
L44.8607 68.5762
" />
<path d="M44.8607 68.5762
L44.9817 68.5158
" />
<path d="M44.9817 68.5158
L45.1631 68.5158
" />
<path d="M45.1631 68.5158
L45.2840 68.5762
" />
<path d="M45.2840 68.5762
L45.3445 68.6367
" />
<path d="M45.3445 68.6367
L45.4050 68.7577
" />
<path d="M45.4050 68.7577
L45.4050 69.1205
" />
<path d="M45.4050 69.1205
L45.3445 69.2415
" />
<path d="M45.3445 69.2415
L45.2840 69.3020
" />
<path d="M45.2840 69.3020
L45.1631 69.3624
" />
<path d="M45.1631 69.3624
L44.9817 69.3624
" />
<path d="M45.7678 68.5158
L46.2516 68.5158
" />
<path d="M45.9492 68.0924
L45.9492 69.1810
" />
<path d="M45.9492 69.1810
L46.0097 69.3020
" />
<path d="M46.0097 69.3020
L46.1307 69.3624
" />
<path d="M46.1307 69.3624
L46.2516 69.3624
" />
<path d="M46.4935 68.5158
L46.9773 68.5158
" />
<path d="M46.6749 68.0924
L46.6749 69.1810
" />
<path d="M46.6749 69.1810
L46.7354 69.3020
" />
<path d="M46.7354 69.3020
L46.8564 69.3624
" />
<path d="M46.8564 69.3624
L46.9773 69.3624
" />
<path d="M47.5821 69.3624
L47.4611 69.3020
" />
<path d="M47.4611 69.3020
L47.4006 69.2415
" />
<path d="M47.4006 69.2415
L47.3402 69.1205
" />
<path d="M47.3402 69.1205
L47.3402 68.7577
" />
<path d="M47.3402 68.7577
L47.4006 68.6367
" />
<path d="M47.4006 68.6367
L47.4611 68.5762
" />
<path d="M47.4611 68.5762
L47.5821 68.5158
" />
<path d="M47.5821 68.5158
L47.7635 68.5158
" />
<path d="M47.7635 68.5158
L47.8844 68.5762
" />
<path d="M47.8844 68.5762
L47.9449 68.6367
" />
<path d="M47.9449 68.6367
L48.0054 68.7577
" />
<path d="M48.0054 68.7577
L48.0054 69.1205
" />
<path d="M48.0054 69.1205
L47.9449 69.2415
" />
<path d="M47.9449 69.2415
L47.8844 69.3020
" />
<path d="M47.8844 69.3020
L47.7635 69.3624
" />
<path d="M47.7635 69.3624
L47.5821 69.3624
" />
<path d="M48.5496 69.3624
L48.5496 68.5158
" />
<path d="M48.5496 68.6367
L48.6101 68.5762
" />
<path d="M48.6101 68.5762
L48.7311 68.5158
" />
<path d="M48.7311 68.5158
L48.9125 68.5158
" />
<path d="M48.9125 68.5158
L49.0334 68.5762
" />
<path d="M49.0334 68.5762
L49.0939 68.6972
" />
<path d="M49.0939 68.6972
L49.0939 69.3624
" />
<path d="M49.0939 68.6972
L49.1544 68.5762
" />
<path d="M49.1544 68.5762
L49.2753 68.5158
" />
<path d="M49.2753 68.5158
L49.4568 68.5158
" />
<path d="M49.4568 68.5158
L49.5777 68.5762
" />
<path d="M49.5777 68.5762
L49.6382 68.6972
" />
<path d="M49.6382 68.6972
L49.6382 69.3624
" />
<path d="M49.9406 69.4834
L50.9082 69.4834
" />
<path d="M51.1501 69.3020
L51.3315 69.3624
" />
<path d="M51.3315 69.3624
L51.6339 69.3624
" />
<path d="M51.6339 69.3624
L51.7548 69.3020
" />
<path d="M51.7548 69.3020
L51.8153 69.2415
" />
<path d="M51.8153 69.2415
L51.8758 69.1205
" />
<path d="M51.8758 69.1205
L51.8758 68.9996
" />
<path d="M51.8758 68.9996
L51.8153 68.8786
" />
<path d="M51.8153 68.8786
L51.7548 68.8181
" />
<path d="M51.7548 68.8181
L51.6339 68.7577
" />
<path d="M51.6339 68.7577
L51.3920 68.6972
" />
<path d="M51.3920 68.6972
L51.2710 68.6367
" />
<path d="M51.2710 68.6367
L51.2105 68.5762
" />
<path d="M51.2105 68.5762
L51.1501 68.4553
" />
<path d="M51.1501 68.4553
L51.1501 68.3343
" />
<path d="M51.1501 68.3343
L51.2105 68.2134
" />
<path d="M51.2105 68.2134
L51.2710 68.1529
" />
<path d="M51.2710 68.1529
L51.3920 68.0924
" />
<path d="M51.3920 68.0924
L51.6943 68.0924
" />
<path d="M51.6943 68.0924
L51.8758 68.1529
" />
<path d="M52.4200 69.3624
L52.4200 68.0924
" />
<path d="M52.9643 69.3624
L52.9643 68.6972
" />
<path d="M52.9643 68.6972
L52.9038 68.5762
" />
<path d="M52.9038 68.5762
L52.7829 68.5158
" />
<path d="M52.7829 68.5158
L52.6015 68.5158
" />
<path d="M52.6015 68.5158
L52.4805 68.5762
" />
<path d="M52.4805 68.5762
L52.4200 68.6367
" />
<path d="M53.5690 69.3624
L53.5690 68.5158
" />
<path d="M53.5690 68.0924
L53.5086 68.1529
" />
<path d="M53.5086 68.1529
L53.5690 68.2134
" />
<path d="M53.5690 68.2134
L53.6295 68.1529
" />
<path d="M53.6295 68.1529
L53.5690 68.0924
" />
<path d="M53.5690 68.0924
L53.5690 68.2134
" />
<path d="M54.6576 69.3020
L54.5367 69.3624
" />
<path d="M54.5367 69.3624
L54.2948 69.3624
" />
<path d="M54.2948 69.3624
L54.1738 69.3020
" />
<path d="M54.1738 69.3020
L54.1134 69.1810
" />
<path d="M54.1134 69.1810
L54.1134 68.6972
" />
<path d="M54.1134 68.6972
L54.1738 68.5762
" />
<path d="M54.1738 68.5762
L54.2948 68.5158
" />
<path d="M54.2948 68.5158
L54.5367 68.5158
" />
<path d="M54.5367 68.5158
L54.6576 68.5762
" />
<path d="M54.6576 68.5762
L54.7181 68.6972
" />
<path d="M54.7181 68.6972
L54.7181 68.8181
" />
<path d="M54.7181 68.8181
L54.1134 68.9391
" />
<path d="M55.4439 69.3624
L55.3229 69.3020
" />
<path d="M55.3229 69.3020
L55.2624 69.1810
" />
<path d="M55.2624 69.1810
L55.2624 68.0924
" />
<path d="M56.4719 69.3624
L56.4719 68.0924
" />
<path d="M56.4719 69.3020
L56.3510 69.3624
" />
<path d="M56.3510 69.3624
L56.1091 69.3624
" />
<path d="M56.1091 69.3624
L55.9881 69.3020
" />
<path d="M55.9881 69.3020
L55.9276 69.2415
" />
<path d="M55.9276 69.2415
L55.8672 69.1205
" />
<path d="M55.8672 69.1205
L55.8672 68.7577
" />
<path d="M55.8672 68.7577
L55.9276 68.6367
" />
<path d="M55.9276 68.6367
L55.9881 68.5762
" />
<path d="M55.9881 68.5762
L56.1091 68.5158
" />
<path d="M56.1091 68.5158
L56.3510 68.5158
" />
<path d="M56.3510 68.5158
L56.4719 68.5762
" />
<path d="M57.5604 69.3020
L57.4395 69.3624
" />
<path d="M57.4395 69.3624
L57.1976 69.3624
" />
<path d="M57.1976 69.3624
L57.0766 69.3020
" />
<path d="M57.0766 69.3020
L57.0162 69.1810
" />
<path d="M57.0162 69.1810
L57.0162 68.6972
" />
<path d="M57.0162 68.6972
L57.0766 68.5762
" />
<path d="M57.0766 68.5762
L57.1976 68.5158
" />
<path d="M57.1976 68.5158
L57.4395 68.5158
" />
<path d="M57.4395 68.5158
L57.5604 68.5762
" />
<path d="M57.5604 68.5762
L57.6209 68.6972
" />
<path d="M57.6209 68.6972
L57.6209 68.8181
" />
<path d="M57.6209 68.8181
L57.0162 68.9391
" />
<path d="M58.7095 69.3624
L58.7095 68.0924
" />
<path d="M58.7095 69.3020
L58.5886 69.3624
" />
<path d="M58.5886 69.3624
L58.3467 69.3624
" />
<path d="M58.3467 69.3624
L58.2257 69.3020
" />
<path d="M58.2257 69.3020
L58.1652 69.2415
" />
<path d="M58.1652 69.2415
L58.1048 69.1205
" />
<path d="M58.1048 69.1205
L58.1048 68.7577
" />
<path d="M58.1048 68.7577
L58.1652 68.6367
" />
<path d="M58.1652 68.6367
L58.2257 68.5762
" />
<path d="M58.2257 68.5762
L58.3467 68.5158
" />
<path d="M58.3467 68.5158
L58.5886 68.5158
" />
<path d="M58.5886 68.5158
L58.7095 68.5762
" />
</g></g> 
</svg>
