<?xml version="1.0" standalone="no"?>
 <!DOCTYPE svg PUBLIC "-//W3C//DTD SVG 1.1//EN" 
 "http://www.w3.org/Graphics/SVG/1.1/DTD/svg11.dtd"> 
<svg
  xmlns:svg="http://www.w3.org/2000/svg"
  xmlns="http://www.w3.org/2000/svg"
  xmlns:xlink="http://www.w3.org/1999/xlink"
  version="1.1"
  width="60.5028mm" height="33.5280mm" viewBox="0.0000 0.0000 60.5028 33.5280">
<title>SVG Image created as 74hct4051.svg date 2024/01/16 15:08:49 </title>
  <desc>Image generated by Eeschema-SVG </desc>
<g style="fill:#000000; fill-opacity:1.0000;stroke:#000000; stroke-opacity:1.0000;
stroke-linecap:round; stroke-linejoin:round;"
 transform="translate(0 0) scale(1 1)">
</g>
<g style="fill:#840000; fill-opacity:0.0; 
stroke:#840000; stroke-width:0.0000; stroke-opacity:1; 
stroke-linecap:round; stroke-linejoin:round;">
</g>
<g style="fill:#FFFFC2; fill-opacity:0.0; 
stroke:#FFFFC2; stroke-width:0.0000; stroke-opacity:1; 
stroke-linecap:round; stroke-linejoin:round;">
</g>
<g style="fill:#FFFFC2; fill-opacity:1.0000; 
stroke:#FFFFC2; stroke-width:0.0000; stroke-opacity:1; 
stroke-linecap:round; stroke-linejoin:round;">
<rect x="25.171400" y="6.604000" width="12.700000" height="22.860000" rx="0.000000" />
</g>
<g style="fill:#840084; fill-opacity:1.0000; 
stroke:#840084; stroke-width:0.0000; stroke-opacity:1; 
stroke-linecap:round; stroke-linejoin:round;">
</g>
<g style="fill:#840000; fill-opacity:1.0000; 
stroke:#840000; stroke-width:0.0000; stroke-opacity:1; 
stroke-linecap:round; stroke-linejoin:round;">
</g>
<g style="fill:#840000; fill-opacity:0.0; 
stroke:#840000; stroke-width:0.2540; stroke-opacity:1; 
stroke-linecap:round; stroke-linejoin:round;">
<rect x="25.171400" y="6.604000" width="12.700000" height="22.860000" rx="0.000000" />
</g>
<g style="fill:#840000; fill-opacity:0.0; 
stroke:#840000; stroke-width:0.1524; stroke-opacity:1; 
stroke-linecap:round; stroke-linejoin:round;">
<path d="M37.8714 19.3040
L40.4114 19.3040
" />
</g>
<g style="fill:#006464; fill-opacity:0.0; 
stroke:#006464; stroke-width:0.1524; stroke-opacity:1; 
stroke-linecap:round; stroke-linejoin:round;">
<text x="37.3634" y="19.9390"
textLength="2.5013" font-size="1.6933" lengthAdjust="spacingAndGlyphs"
text-anchor="end" opacity="0">A4</text>
<g class="stroked-text"><desc>A4</desc>
<path d="M35.2070 19.5207
L35.8117 19.5207
" />
<path d="M35.0860 19.8835
L35.5093 18.6135
" />
<path d="M35.5093 18.6135
L35.9327 19.8835
" />
<path d="M36.9003 19.0369
L36.9003 19.8835
" />
<path d="M36.5979 18.5531
L36.2956 19.4602
" />
<path d="M36.2956 19.4602
L37.0817 19.4602
" />
</g></g>
<g style="fill:#A90000; fill-opacity:0.0; 
stroke:#A90000; stroke-width:0.1524; stroke-opacity:1; 
stroke-linecap:round; stroke-linejoin:round;">
<text x="39.1414" y="19.0500"
textLength="1.4127" font-size="1.6933" lengthAdjust="spacingAndGlyphs"
text-anchor="middle" opacity="0">1</text>
<g class="stroked-text"><desc>1</desc>
<path d="M39.5043 18.8865
L38.7786 18.8865
" />
<path d="M39.1414 18.8865
L39.1414 17.6165
" />
<path d="M39.1414 17.6165
L39.0205 17.7980
" />
<path d="M39.0205 17.7980
L38.8995 17.9189
" />
<path d="M38.8995 17.9189
L38.7786 17.9794
" />
</g></g>
<g style="fill:#840000; fill-opacity:0.0; 
stroke:#840000; stroke-width:0.1524; stroke-opacity:1; 
stroke-linecap:round; stroke-linejoin:round;">
<path d="M25.1714 16.7640
L22.6314 16.7640
" />
</g>
<g style="fill:#006464; fill-opacity:0.0; 
stroke:#006464; stroke-width:0.1524; stroke-opacity:1; 
stroke-linecap:round; stroke-linejoin:round;">
<text x="25.6794" y="17.3990"
textLength="2.6222" font-size="1.6933" lengthAdjust="spacingAndGlyphs"
text-anchor="start" opacity="0">S1</text>
<g class="stroked-text"><desc>S1</desc>
<path d="M26.0215 17.2831
L26.2029 17.3435
" />
<path d="M26.2029 17.3435
L26.5053 17.3435
" />
<path d="M26.5053 17.3435
L26.6262 17.2831
" />
<path d="M26.6262 17.2831
L26.6867 17.2226
" />
<path d="M26.6867 17.2226
L26.7472 17.1016
" />
<path d="M26.7472 17.1016
L26.7472 16.9807
" />
<path d="M26.7472 16.9807
L26.6867 16.8597
" />
<path d="M26.6867 16.8597
L26.6262 16.7992
" />
<path d="M26.6262 16.7992
L26.5053 16.7388
" />
<path d="M26.5053 16.7388
L26.2634 16.6783
" />
<path d="M26.2634 16.6783
L26.1424 16.6178
" />
<path d="M26.1424 16.6178
L26.0819 16.5573
" />
<path d="M26.0819 16.5573
L26.0215 16.4364
" />
<path d="M26.0215 16.4364
L26.0215 16.3154
" />
<path d="M26.0215 16.3154
L26.0819 16.1945
" />
<path d="M26.0819 16.1945
L26.1424 16.1340
" />
<path d="M26.1424 16.1340
L26.2634 16.0735
" />
<path d="M26.2634 16.0735
L26.5657 16.0735
" />
<path d="M26.5657 16.0735
L26.7472 16.1340
" />
<path d="M27.9567 17.3435
L27.2310 17.3435
" />
<path d="M27.5938 17.3435
L27.5938 16.0735
" />
<path d="M27.5938 16.0735
L27.4729 16.2550
" />
<path d="M27.4729 16.2550
L27.3519 16.3759
" />
<path d="M27.3519 16.3759
L27.2310 16.4364
" />
</g></g>
<g style="fill:#A90000; fill-opacity:0.0; 
stroke:#A90000; stroke-width:0.1524; stroke-opacity:1; 
stroke-linecap:round; stroke-linejoin:round;">
<text x="23.9014" y="16.5100"
textLength="2.6222" font-size="1.6933" lengthAdjust="spacingAndGlyphs"
text-anchor="middle" opacity="0">10</text>
<g class="stroked-text"><desc>10</desc>
<path d="M23.6595 16.3465
L22.9338 16.3465
" />
<path d="M23.2966 16.3465
L23.2966 15.0765
" />
<path d="M23.2966 15.0765
L23.1757 15.2580
" />
<path d="M23.1757 15.2580
L23.0547 15.3789
" />
<path d="M23.0547 15.3789
L22.9338 15.4394
" />
<path d="M24.4456 15.0765
L24.5666 15.0765
" />
<path d="M24.5666 15.0765
L24.6875 15.1370
" />
<path d="M24.6875 15.1370
L24.7480 15.1975
" />
<path d="M24.7480 15.1975
L24.8085 15.3184
" />
<path d="M24.8085 15.3184
L24.8690 15.5603
" />
<path d="M24.8690 15.5603
L24.8690 15.8627
" />
<path d="M24.8690 15.8627
L24.8085 16.1046
" />
<path d="M24.8085 16.1046
L24.7480 16.2256
" />
<path d="M24.7480 16.2256
L24.6875 16.2861
" />
<path d="M24.6875 16.2861
L24.5666 16.3465
" />
<path d="M24.5666 16.3465
L24.4456 16.3465
" />
<path d="M24.4456 16.3465
L24.3247 16.2861
" />
<path d="M24.3247 16.2861
L24.2642 16.2256
" />
<path d="M24.2642 16.2256
L24.2037 16.1046
" />
<path d="M24.2037 16.1046
L24.1433 15.8627
" />
<path d="M24.1433 15.8627
L24.1433 15.5603
" />
<path d="M24.1433 15.5603
L24.2037 15.3184
" />
<path d="M24.2037 15.3184
L24.2642 15.1975
" />
<path d="M24.2642 15.1975
L24.3247 15.1370
" />
<path d="M24.3247 15.1370
L24.4456 15.0765
" />
</g></g>
<g style="fill:#840000; fill-opacity:0.0; 
stroke:#840000; stroke-width:0.1524; stroke-opacity:1; 
stroke-linecap:round; stroke-linejoin:round;">
<path d="M25.1714 14.2240
L22.6314 14.2240
" />
</g>
<g style="fill:#006464; fill-opacity:0.0; 
stroke:#006464; stroke-width:0.1524; stroke-opacity:1; 
stroke-linecap:round; stroke-linejoin:round;">
<text x="25.6794" y="14.8590"
textLength="2.6222" font-size="1.6933" lengthAdjust="spacingAndGlyphs"
text-anchor="start" opacity="0">S0</text>
<g class="stroked-text"><desc>S0</desc>
<path d="M26.0215 14.7431
L26.2029 14.8035
" />
<path d="M26.2029 14.8035
L26.5053 14.8035
" />
<path d="M26.5053 14.8035
L26.6262 14.7431
" />
<path d="M26.6262 14.7431
L26.6867 14.6826
" />
<path d="M26.6867 14.6826
L26.7472 14.5616
" />
<path d="M26.7472 14.5616
L26.7472 14.4407
" />
<path d="M26.7472 14.4407
L26.6867 14.3197
" />
<path d="M26.6867 14.3197
L26.6262 14.2592
" />
<path d="M26.6262 14.2592
L26.5053 14.1988
" />
<path d="M26.5053 14.1988
L26.2634 14.1383
" />
<path d="M26.2634 14.1383
L26.1424 14.0778
" />
<path d="M26.1424 14.0778
L26.0819 14.0173
" />
<path d="M26.0819 14.0173
L26.0215 13.8964
" />
<path d="M26.0215 13.8964
L26.0215 13.7754
" />
<path d="M26.0215 13.7754
L26.0819 13.6545
" />
<path d="M26.0819 13.6545
L26.1424 13.5940
" />
<path d="M26.1424 13.5940
L26.2634 13.5335
" />
<path d="M26.2634 13.5335
L26.5657 13.5335
" />
<path d="M26.5657 13.5335
L26.7472 13.5940
" />
<path d="M27.5333 13.5335
L27.6543 13.5335
" />
<path d="M27.6543 13.5335
L27.7752 13.5940
" />
<path d="M27.7752 13.5940
L27.8357 13.6545
" />
<path d="M27.8357 13.6545
L27.8962 13.7754
" />
<path d="M27.8962 13.7754
L27.9567 14.0173
" />
<path d="M27.9567 14.0173
L27.9567 14.3197
" />
<path d="M27.9567 14.3197
L27.8962 14.5616
" />
<path d="M27.8962 14.5616
L27.8357 14.6826
" />
<path d="M27.8357 14.6826
L27.7752 14.7431
" />
<path d="M27.7752 14.7431
L27.6543 14.8035
" />
<path d="M27.6543 14.8035
L27.5333 14.8035
" />
<path d="M27.5333 14.8035
L27.4124 14.7431
" />
<path d="M27.4124 14.7431
L27.3519 14.6826
" />
<path d="M27.3519 14.6826
L27.2914 14.5616
" />
<path d="M27.2914 14.5616
L27.2310 14.3197
" />
<path d="M27.2310 14.3197
L27.2310 14.0173
" />
<path d="M27.2310 14.0173
L27.2914 13.7754
" />
<path d="M27.2914 13.7754
L27.3519 13.6545
" />
<path d="M27.3519 13.6545
L27.4124 13.5940
" />
<path d="M27.4124 13.5940
L27.5333 13.5335
" />
</g></g>
<g style="fill:#A90000; fill-opacity:0.0; 
stroke:#A90000; stroke-width:0.1524; stroke-opacity:1; 
stroke-linecap:round; stroke-linejoin:round;">
<text x="23.9014" y="13.9700"
textLength="2.6222" font-size="1.6933" lengthAdjust="spacingAndGlyphs"
text-anchor="middle" opacity="0">11</text>
<g class="stroked-text"><desc>11</desc>
<path d="M23.6595 13.8065
L22.9338 13.8065
" />
<path d="M23.2966 13.8065
L23.2966 12.5365
" />
<path d="M23.2966 12.5365
L23.1757 12.7180
" />
<path d="M23.1757 12.7180
L23.0547 12.8389
" />
<path d="M23.0547 12.8389
L22.9338 12.8994
" />
<path d="M24.8690 13.8065
L24.1433 13.8065
" />
<path d="M24.5061 13.8065
L24.5061 12.5365
" />
<path d="M24.5061 12.5365
L24.3852 12.7180
" />
<path d="M24.3852 12.7180
L24.2642 12.8389
" />
<path d="M24.2642 12.8389
L24.1433 12.8994
" />
</g></g>
<g style="fill:#840000; fill-opacity:0.0; 
stroke:#840000; stroke-width:0.1524; stroke-opacity:1; 
stroke-linecap:round; stroke-linejoin:round;">
<path d="M37.8714 16.7640
L40.4114 16.7640
" />
</g>
<g style="fill:#006464; fill-opacity:0.0; 
stroke:#006464; stroke-width:0.1524; stroke-opacity:1; 
stroke-linecap:round; stroke-linejoin:round;">
<text x="37.3634" y="17.3990"
textLength="2.5013" font-size="1.6933" lengthAdjust="spacingAndGlyphs"
text-anchor="end" opacity="0">A3</text>
<g class="stroked-text"><desc>A3</desc>
<path d="M35.2070 16.9807
L35.8117 16.9807
" />
<path d="M35.0860 17.3435
L35.5093 16.0735
" />
<path d="M35.5093 16.0735
L35.9327 17.3435
" />
<path d="M36.2351 16.0735
L37.0213 16.0735
" />
<path d="M37.0213 16.0735
L36.5979 16.5573
" />
<path d="M36.5979 16.5573
L36.7794 16.5573
" />
<path d="M36.7794 16.5573
L36.9003 16.6178
" />
<path d="M36.9003 16.6178
L36.9608 16.6783
" />
<path d="M36.9608 16.6783
L37.0213 16.7992
" />
<path d="M37.0213 16.7992
L37.0213 17.1016
" />
<path d="M37.0213 17.1016
L36.9608 17.2226
" />
<path d="M36.9608 17.2226
L36.9003 17.2831
" />
<path d="M36.9003 17.2831
L36.7794 17.3435
" />
<path d="M36.7794 17.3435
L36.4165 17.3435
" />
<path d="M36.4165 17.3435
L36.2956 17.2831
" />
<path d="M36.2956 17.2831
L36.2351 17.2226
" />
</g></g>
<g style="fill:#A90000; fill-opacity:0.0; 
stroke:#A90000; stroke-width:0.1524; stroke-opacity:1; 
stroke-linecap:round; stroke-linejoin:round;">
<text x="39.1414" y="16.5100"
textLength="2.6222" font-size="1.6933" lengthAdjust="spacingAndGlyphs"
text-anchor="middle" opacity="0">12</text>
<g class="stroked-text"><desc>12</desc>
<path d="M38.8995 16.3465
L38.1738 16.3465
" />
<path d="M38.5366 16.3465
L38.5366 15.0765
" />
<path d="M38.5366 15.0765
L38.4157 15.2580
" />
<path d="M38.4157 15.2580
L38.2947 15.3789
" />
<path d="M38.2947 15.3789
L38.1738 15.4394
" />
<path d="M39.3833 15.1975
L39.4437 15.1370
" />
<path d="M39.4437 15.1370
L39.5647 15.0765
" />
<path d="M39.5647 15.0765
L39.8671 15.0765
" />
<path d="M39.8671 15.0765
L39.9880 15.1370
" />
<path d="M39.9880 15.1370
L40.0485 15.1975
" />
<path d="M40.0485 15.1975
L40.1090 15.3184
" />
<path d="M40.1090 15.3184
L40.1090 15.4394
" />
<path d="M40.1090 15.4394
L40.0485 15.6208
" />
<path d="M40.0485 15.6208
L39.3228 16.3465
" />
<path d="M39.3228 16.3465
L40.1090 16.3465
" />
</g></g>
<g style="fill:#840000; fill-opacity:0.0; 
stroke:#840000; stroke-width:0.1524; stroke-opacity:1; 
stroke-linecap:round; stroke-linejoin:round;">
<path d="M37.8714 9.1440
L40.4114 9.1440
" />
</g>
<g style="fill:#006464; fill-opacity:0.0; 
stroke:#006464; stroke-width:0.1524; stroke-opacity:1; 
stroke-linecap:round; stroke-linejoin:round;">
<text x="37.3634" y="9.7790"
textLength="2.5013" font-size="1.6933" lengthAdjust="spacingAndGlyphs"
text-anchor="end" opacity="0">A0</text>
<g class="stroked-text"><desc>A0</desc>
<path d="M35.2070 9.3607
L35.8117 9.3607
" />
<path d="M35.0860 9.7235
L35.5093 8.4535
" />
<path d="M35.5093 8.4535
L35.9327 9.7235
" />
<path d="M36.5979 8.4535
L36.7189 8.4535
" />
<path d="M36.7189 8.4535
L36.8398 8.5140
" />
<path d="M36.8398 8.5140
L36.9003 8.5745
" />
<path d="M36.9003 8.5745
L36.9608 8.6954
" />
<path d="M36.9608 8.6954
L37.0213 8.9373
" />
<path d="M37.0213 8.9373
L37.0213 9.2397
" />
<path d="M37.0213 9.2397
L36.9608 9.4816
" />
<path d="M36.9608 9.4816
L36.9003 9.6026
" />
<path d="M36.9003 9.6026
L36.8398 9.6631
" />
<path d="M36.8398 9.6631
L36.7189 9.7235
" />
<path d="M36.7189 9.7235
L36.5979 9.7235
" />
<path d="M36.5979 9.7235
L36.4770 9.6631
" />
<path d="M36.4770 9.6631
L36.4165 9.6026
" />
<path d="M36.4165 9.6026
L36.3560 9.4816
" />
<path d="M36.3560 9.4816
L36.2956 9.2397
" />
<path d="M36.2956 9.2397
L36.2956 8.9373
" />
<path d="M36.2956 8.9373
L36.3560 8.6954
" />
<path d="M36.3560 8.6954
L36.4165 8.5745
" />
<path d="M36.4165 8.5745
L36.4770 8.5140
" />
<path d="M36.4770 8.5140
L36.5979 8.4535
" />
</g></g>
<g style="fill:#A90000; fill-opacity:0.0; 
stroke:#A90000; stroke-width:0.1524; stroke-opacity:1; 
stroke-linecap:round; stroke-linejoin:round;">
<text x="39.1414" y="8.8900"
textLength="2.6222" font-size="1.6933" lengthAdjust="spacingAndGlyphs"
text-anchor="middle" opacity="0">13</text>
<g class="stroked-text"><desc>13</desc>
<path d="M38.8995 8.7265
L38.1738 8.7265
" />
<path d="M38.5366 8.7265
L38.5366 7.4565
" />
<path d="M38.5366 7.4565
L38.4157 7.6380
" />
<path d="M38.4157 7.6380
L38.2947 7.7589
" />
<path d="M38.2947 7.7589
L38.1738 7.8194
" />
<path d="M39.3228 7.4565
L40.1090 7.4565
" />
<path d="M40.1090 7.4565
L39.6856 7.9403
" />
<path d="M39.6856 7.9403
L39.8671 7.9403
" />
<path d="M39.8671 7.9403
L39.9880 8.0008
" />
<path d="M39.9880 8.0008
L40.0485 8.0613
" />
<path d="M40.0485 8.0613
L40.1090 8.1822
" />
<path d="M40.1090 8.1822
L40.1090 8.4846
" />
<path d="M40.1090 8.4846
L40.0485 8.6056
" />
<path d="M40.0485 8.6056
L39.9880 8.6661
" />
<path d="M39.9880 8.6661
L39.8671 8.7265
" />
<path d="M39.8671 8.7265
L39.5042 8.7265
" />
<path d="M39.5042 8.7265
L39.3833 8.6661
" />
<path d="M39.3833 8.6661
L39.3228 8.6056
" />
</g></g>
<g style="fill:#840000; fill-opacity:0.0; 
stroke:#840000; stroke-width:0.1524; stroke-opacity:1; 
stroke-linecap:round; stroke-linejoin:round;">
<path d="M37.8714 11.6840
L40.4114 11.6840
" />
</g>
<g style="fill:#006464; fill-opacity:0.0; 
stroke:#006464; stroke-width:0.1524; stroke-opacity:1; 
stroke-linecap:round; stroke-linejoin:round;">
<text x="37.3634" y="12.3190"
textLength="2.5013" font-size="1.6933" lengthAdjust="spacingAndGlyphs"
text-anchor="end" opacity="0">A1</text>
<g class="stroked-text"><desc>A1</desc>
<path d="M35.2070 11.9007
L35.8117 11.9007
" />
<path d="M35.0860 12.2635
L35.5093 10.9935
" />
<path d="M35.5093 10.9935
L35.9327 12.2635
" />
<path d="M37.0213 12.2635
L36.2956 12.2635
" />
<path d="M36.6584 12.2635
L36.6584 10.9935
" />
<path d="M36.6584 10.9935
L36.5375 11.1750
" />
<path d="M36.5375 11.1750
L36.4165 11.2959
" />
<path d="M36.4165 11.2959
L36.2956 11.3564
" />
</g></g>
<g style="fill:#A90000; fill-opacity:0.0; 
stroke:#A90000; stroke-width:0.1524; stroke-opacity:1; 
stroke-linecap:round; stroke-linejoin:round;">
<text x="39.1414" y="11.4300"
textLength="2.6222" font-size="1.6933" lengthAdjust="spacingAndGlyphs"
text-anchor="middle" opacity="0">14</text>
<g class="stroked-text"><desc>14</desc>
<path d="M38.8995 11.2665
L38.1738 11.2665
" />
<path d="M38.5366 11.2665
L38.5366 9.9965
" />
<path d="M38.5366 9.9965
L38.4157 10.1780
" />
<path d="M38.4157 10.1780
L38.2947 10.2989
" />
<path d="M38.2947 10.2989
L38.1738 10.3594
" />
<path d="M39.9880 10.4199
L39.9880 11.2665
" />
<path d="M39.6856 9.9361
L39.3833 10.8432
" />
<path d="M39.3833 10.8432
L40.1694 10.8432
" />
</g></g>
<g style="fill:#840000; fill-opacity:0.0; 
stroke:#840000; stroke-width:0.1524; stroke-opacity:1; 
stroke-linecap:round; stroke-linejoin:round;">
<path d="M37.8714 14.2240
L40.4114 14.2240
" />
</g>
<g style="fill:#006464; fill-opacity:0.0; 
stroke:#006464; stroke-width:0.1524; stroke-opacity:1; 
stroke-linecap:round; stroke-linejoin:round;">
<text x="37.3634" y="14.8590"
textLength="2.5013" font-size="1.6933" lengthAdjust="spacingAndGlyphs"
text-anchor="end" opacity="0">A2</text>
<g class="stroked-text"><desc>A2</desc>
<path d="M35.2070 14.4407
L35.8117 14.4407
" />
<path d="M35.0860 14.8035
L35.5093 13.5335
" />
<path d="M35.5093 13.5335
L35.9327 14.8035
" />
<path d="M36.2956 13.6545
L36.3560 13.5940
" />
<path d="M36.3560 13.5940
L36.4770 13.5335
" />
<path d="M36.4770 13.5335
L36.7794 13.5335
" />
<path d="M36.7794 13.5335
L36.9003 13.5940
" />
<path d="M36.9003 13.5940
L36.9608 13.6545
" />
<path d="M36.9608 13.6545
L37.0213 13.7754
" />
<path d="M37.0213 13.7754
L37.0213 13.8964
" />
<path d="M37.0213 13.8964
L36.9608 14.0778
" />
<path d="M36.9608 14.0778
L36.2351 14.8035
" />
<path d="M36.2351 14.8035
L37.0213 14.8035
" />
</g></g>
<g style="fill:#A90000; fill-opacity:0.0; 
stroke:#A90000; stroke-width:0.1524; stroke-opacity:1; 
stroke-linecap:round; stroke-linejoin:round;">
<text x="39.1414" y="13.9700"
textLength="2.6222" font-size="1.6933" lengthAdjust="spacingAndGlyphs"
text-anchor="middle" opacity="0">15</text>
<g class="stroked-text"><desc>15</desc>
<path d="M38.8995 13.8065
L38.1738 13.8065
" />
<path d="M38.5366 13.8065
L38.5366 12.5365
" />
<path d="M38.5366 12.5365
L38.4157 12.7180
" />
<path d="M38.4157 12.7180
L38.2947 12.8389
" />
<path d="M38.2947 12.8389
L38.1738 12.8994
" />
<path d="M40.0485 12.5365
L39.4437 12.5365
" />
<path d="M39.4437 12.5365
L39.3833 13.1413
" />
<path d="M39.3833 13.1413
L39.4437 13.0808
" />
<path d="M39.4437 13.0808
L39.5647 13.0203
" />
<path d="M39.5647 13.0203
L39.8671 13.0203
" />
<path d="M39.8671 13.0203
L39.9880 13.0808
" />
<path d="M39.9880 13.0808
L40.0485 13.1413
" />
<path d="M40.0485 13.1413
L40.1090 13.2622
" />
<path d="M40.1090 13.2622
L40.1090 13.5646
" />
<path d="M40.1090 13.5646
L40.0485 13.6856
" />
<path d="M40.0485 13.6856
L39.9880 13.7461
" />
<path d="M39.9880 13.7461
L39.8671 13.8065
" />
<path d="M39.8671 13.8065
L39.5647 13.8065
" />
<path d="M39.5647 13.8065
L39.4437 13.7461
" />
<path d="M39.4437 13.7461
L39.3833 13.6856
" />
</g></g>
<g style="fill:#840000; fill-opacity:0.0; 
stroke:#840000; stroke-width:0.1524; stroke-opacity:1; 
stroke-linecap:round; stroke-linejoin:round;">
<path d="M30.2514 6.6040
L30.2514 4.0640
" />
</g>
<g style="fill:#006464; fill-opacity:0.0; 
stroke:#006464; stroke-width:0.1524; stroke-opacity:1; 
stroke-linecap:round; stroke-linejoin:round;">
<g transform="rotate(-90.000000 30.2514 7.1120)">
<text x="30.2514" y="7.7470"
textLength="3.8318" font-size="1.6933" lengthAdjust="spacingAndGlyphs"
text-anchor="end" opacity="0">VCC</text>
</g>
<g class="stroked-text"><desc>VCC</desc>
<path d="M29.5609 10.7198
L30.8309 10.2965
" />
<path d="M30.8309 10.2965
L29.5609 9.8731
" />
<path d="M30.7100 8.7241
L30.7705 8.7845
" />
<path d="M30.7705 8.7845
L30.8309 8.9660
" />
<path d="M30.8309 8.9660
L30.8309 9.0869
" />
<path d="M30.8309 9.0869
L30.7705 9.2683
" />
<path d="M30.7705 9.2683
L30.6495 9.3893
" />
<path d="M30.6495 9.3893
L30.5285 9.4498
" />
<path d="M30.5285 9.4498
L30.2866 9.5102
" />
<path d="M30.2866 9.5102
L30.1052 9.5102
" />
<path d="M30.1052 9.5102
L29.8633 9.4498
" />
<path d="M29.8633 9.4498
L29.7424 9.3893
" />
<path d="M29.7424 9.3893
L29.6214 9.2683
" />
<path d="M29.6214 9.2683
L29.5609 9.0869
" />
<path d="M29.5609 9.0869
L29.5609 8.9660
" />
<path d="M29.5609 8.9660
L29.6214 8.7845
" />
<path d="M29.6214 8.7845
L29.6819 8.7241
" />
<path d="M30.7100 7.4541
L30.7705 7.5145
" />
<path d="M30.7705 7.5145
L30.8309 7.6960
" />
<path d="M30.8309 7.6960
L30.8309 7.8169
" />
<path d="M30.8309 7.8169
L30.7705 7.9983
" />
<path d="M30.7705 7.9983
L30.6495 8.1193
" />
<path d="M30.6495 8.1193
L30.5285 8.1798
" />
<path d="M30.5285 8.1798
L30.2866 8.2402
" />
<path d="M30.2866 8.2402
L30.1052 8.2402
" />
<path d="M30.1052 8.2402
L29.8633 8.1798
" />
<path d="M29.8633 8.1798
L29.7424 8.1193
" />
<path d="M29.7424 8.1193
L29.6214 7.9983
" />
<path d="M29.6214 7.9983
L29.5609 7.8169
" />
<path d="M29.5609 7.8169
L29.5609 7.6960
" />
<path d="M29.5609 7.6960
L29.6214 7.5145
" />
<path d="M29.6214 7.5145
L29.6819 7.4541
" />
</g></g>
<g style="fill:#A90000; fill-opacity:0.0; 
stroke:#A90000; stroke-width:0.1524; stroke-opacity:1; 
stroke-linecap:round; stroke-linejoin:round;">
<g transform="rotate(-90.000000 29.9974 5.3340)">
<text x="29.9974" y="5.3340"
textLength="2.6222" font-size="1.6933" lengthAdjust="spacingAndGlyphs"
text-anchor="middle" opacity="0">16</text>
</g>
<g class="stroked-text"><desc>16</desc>
<path d="M29.8339 5.5758
L29.8339 6.3015
" />
<path d="M29.8339 5.9387
L28.5639 5.9387
" />
<path d="M28.5639 5.9387
L28.7454 6.0596
" />
<path d="M28.7454 6.0596
L28.8663 6.1806
" />
<path d="M28.8663 6.1806
L28.9268 6.3015
" />
<path d="M28.5639 4.4873
L28.5639 4.7292
" />
<path d="M28.5639 4.7292
L28.6244 4.8501
" />
<path d="M28.6244 4.8501
L28.6849 4.9106
" />
<path d="M28.6849 4.9106
L28.8663 5.0316
" />
<path d="M28.8663 5.0316
L29.1082 5.0920
" />
<path d="M29.1082 5.0920
L29.5920 5.0920
" />
<path d="M29.5920 5.0920
L29.7130 5.0316
" />
<path d="M29.7130 5.0316
L29.7735 4.9711
" />
<path d="M29.7735 4.9711
L29.8339 4.8501
" />
<path d="M29.8339 4.8501
L29.8339 4.6082
" />
<path d="M29.8339 4.6082
L29.7735 4.4873
" />
<path d="M29.7735 4.4873
L29.7130 4.4268
" />
<path d="M29.7130 4.4268
L29.5920 4.3663
" />
<path d="M29.5920 4.3663
L29.2896 4.3663
" />
<path d="M29.2896 4.3663
L29.1687 4.4268
" />
<path d="M29.1687 4.4268
L29.1082 4.4873
" />
<path d="M29.1082 4.4873
L29.0477 4.6082
" />
<path d="M29.0477 4.6082
L29.0477 4.8501
" />
<path d="M29.0477 4.8501
L29.1082 4.9711
" />
<path d="M29.1082 4.9711
L29.1687 5.0316
" />
<path d="M29.1687 5.0316
L29.2896 5.0920
" />
</g></g>
<g style="fill:#840000; fill-opacity:0.0; 
stroke:#840000; stroke-width:0.1524; stroke-opacity:1; 
stroke-linecap:round; stroke-linejoin:round;">
<path d="M37.8714 24.3840
L40.4114 24.3840
" />
</g>
<g style="fill:#006464; fill-opacity:0.0; 
stroke:#006464; stroke-width:0.1524; stroke-opacity:1; 
stroke-linecap:round; stroke-linejoin:round;">
<text x="37.3634" y="25.0190"
textLength="2.5013" font-size="1.6933" lengthAdjust="spacingAndGlyphs"
text-anchor="end" opacity="0">A6</text>
<g class="stroked-text"><desc>A6</desc>
<path d="M35.2070 24.6007
L35.8117 24.6007
" />
<path d="M35.0860 24.9635
L35.5093 23.6935
" />
<path d="M35.5093 23.6935
L35.9327 24.9635
" />
<path d="M36.9003 23.6935
L36.6584 23.6935
" />
<path d="M36.6584 23.6935
L36.5375 23.7540
" />
<path d="M36.5375 23.7540
L36.4770 23.8145
" />
<path d="M36.4770 23.8145
L36.3560 23.9959
" />
<path d="M36.3560 23.9959
L36.2956 24.2378
" />
<path d="M36.2956 24.2378
L36.2956 24.7216
" />
<path d="M36.2956 24.7216
L36.3560 24.8426
" />
<path d="M36.3560 24.8426
L36.4165 24.9031
" />
<path d="M36.4165 24.9031
L36.5375 24.9635
" />
<path d="M36.5375 24.9635
L36.7794 24.9635
" />
<path d="M36.7794 24.9635
L36.9003 24.9031
" />
<path d="M36.9003 24.9031
L36.9608 24.8426
" />
<path d="M36.9608 24.8426
L37.0213 24.7216
" />
<path d="M37.0213 24.7216
L37.0213 24.4192
" />
<path d="M37.0213 24.4192
L36.9608 24.2983
" />
<path d="M36.9608 24.2983
L36.9003 24.2378
" />
<path d="M36.9003 24.2378
L36.7794 24.1773
" />
<path d="M36.7794 24.1773
L36.5375 24.1773
" />
<path d="M36.5375 24.1773
L36.4165 24.2378
" />
<path d="M36.4165 24.2378
L36.3560 24.2983
" />
<path d="M36.3560 24.2983
L36.2956 24.4192
" />
</g></g>
<g style="fill:#A90000; fill-opacity:0.0; 
stroke:#A90000; stroke-width:0.1524; stroke-opacity:1; 
stroke-linecap:round; stroke-linejoin:round;">
<text x="39.1414" y="24.1300"
textLength="1.4127" font-size="1.6933" lengthAdjust="spacingAndGlyphs"
text-anchor="middle" opacity="0">2</text>
<g class="stroked-text"><desc>2</desc>
<path d="M38.7786 22.8175
L38.8390 22.7570
" />
<path d="M38.8390 22.7570
L38.9600 22.6965
" />
<path d="M38.9600 22.6965
L39.2624 22.6965
" />
<path d="M39.2624 22.6965
L39.3833 22.7570
" />
<path d="M39.3833 22.7570
L39.4438 22.8175
" />
<path d="M39.4438 22.8175
L39.5043 22.9384
" />
<path d="M39.5043 22.9384
L39.5043 23.0594
" />
<path d="M39.5043 23.0594
L39.4438 23.2408
" />
<path d="M39.4438 23.2408
L38.7181 23.9665
" />
<path d="M38.7181 23.9665
L39.5043 23.9665
" />
</g></g>
<g style="fill:#840000; fill-opacity:0.0; 
stroke:#840000; stroke-width:0.1524; stroke-opacity:1; 
stroke-linecap:round; stroke-linejoin:round;">
<path d="M25.1714 9.1440
L22.6314 9.1440
" />
</g>
<g style="fill:#006464; fill-opacity:0.0; 
stroke:#006464; stroke-width:0.1524; stroke-opacity:1; 
stroke-linecap:round; stroke-linejoin:round;">
<text x="25.6794" y="9.7790"
textLength="1.2918" font-size="1.6933" lengthAdjust="spacingAndGlyphs"
text-anchor="start" opacity="0">A</text>
<g class="stroked-text"><desc>A</desc>
<path d="M26.0215 9.3607
L26.6262 9.3607
" />
<path d="M25.9005 9.7235
L26.3238 8.4535
" />
<path d="M26.3238 8.4535
L26.7472 9.7235
" />
</g></g>
<g style="fill:#A90000; fill-opacity:0.0; 
stroke:#A90000; stroke-width:0.1524; stroke-opacity:1; 
stroke-linecap:round; stroke-linejoin:round;">
<text x="23.9014" y="8.8900"
textLength="1.4127" font-size="1.6933" lengthAdjust="spacingAndGlyphs"
text-anchor="middle" opacity="0">3</text>
<g class="stroked-text"><desc>3</desc>
<path d="M23.4781 7.4565
L24.2643 7.4565
" />
<path d="M24.2643 7.4565
L23.8409 7.9403
" />
<path d="M23.8409 7.9403
L24.0224 7.9403
" />
<path d="M24.0224 7.9403
L24.1433 8.0008
" />
<path d="M24.1433 8.0008
L24.2038 8.0613
" />
<path d="M24.2038 8.0613
L24.2643 8.1822
" />
<path d="M24.2643 8.1822
L24.2643 8.4846
" />
<path d="M24.2643 8.4846
L24.2038 8.6056
" />
<path d="M24.2038 8.6056
L24.1433 8.6661
" />
<path d="M24.1433 8.6661
L24.0224 8.7265
" />
<path d="M24.0224 8.7265
L23.6595 8.7265
" />
<path d="M23.6595 8.7265
L23.5386 8.6661
" />
<path d="M23.5386 8.6661
L23.4781 8.6056
" />
</g></g>
<g style="fill:#840000; fill-opacity:0.0; 
stroke:#840000; stroke-width:0.1524; stroke-opacity:1; 
stroke-linecap:round; stroke-linejoin:round;">
<path d="M37.8714 26.9240
L40.4114 26.9240
" />
</g>
<g style="fill:#006464; fill-opacity:0.0; 
stroke:#006464; stroke-width:0.1524; stroke-opacity:1; 
stroke-linecap:round; stroke-linejoin:round;">
<text x="37.3634" y="27.5590"
textLength="2.5013" font-size="1.6933" lengthAdjust="spacingAndGlyphs"
text-anchor="end" opacity="0">A7</text>
<g class="stroked-text"><desc>A7</desc>
<path d="M35.2070 27.1407
L35.8117 27.1407
" />
<path d="M35.0860 27.5035
L35.5093 26.2335
" />
<path d="M35.5093 26.2335
L35.9327 27.5035
" />
<path d="M36.2351 26.2335
L37.0817 26.2335
" />
<path d="M37.0817 26.2335
L36.5375 27.5035
" />
</g></g>
<g style="fill:#A90000; fill-opacity:0.0; 
stroke:#A90000; stroke-width:0.1524; stroke-opacity:1; 
stroke-linecap:round; stroke-linejoin:round;">
<text x="39.1414" y="26.6700"
textLength="1.4127" font-size="1.6933" lengthAdjust="spacingAndGlyphs"
text-anchor="middle" opacity="0">4</text>
<g class="stroked-text"><desc>4</desc>
<path d="M39.3833 25.6599
L39.3833 26.5065
" />
<path d="M39.0809 25.1761
L38.7786 26.0832
" />
<path d="M38.7786 26.0832
L39.5647 26.0832
" />
</g></g>
<g style="fill:#840000; fill-opacity:0.0; 
stroke:#840000; stroke-width:0.1524; stroke-opacity:1; 
stroke-linecap:round; stroke-linejoin:round;">
<path d="M37.8714 21.8440
L40.4114 21.8440
" />
</g>
<g style="fill:#006464; fill-opacity:0.0; 
stroke:#006464; stroke-width:0.1524; stroke-opacity:1; 
stroke-linecap:round; stroke-linejoin:round;">
<text x="37.3634" y="22.4790"
textLength="2.5013" font-size="1.6933" lengthAdjust="spacingAndGlyphs"
text-anchor="end" opacity="0">A5</text>
<g class="stroked-text"><desc>A5</desc>
<path d="M35.2070 22.0607
L35.8117 22.0607
" />
<path d="M35.0860 22.4235
L35.5093 21.1535
" />
<path d="M35.5093 21.1535
L35.9327 22.4235
" />
<path d="M36.9608 21.1535
L36.3560 21.1535
" />
<path d="M36.3560 21.1535
L36.2956 21.7583
" />
<path d="M36.2956 21.7583
L36.3560 21.6978
" />
<path d="M36.3560 21.6978
L36.4770 21.6373
" />
<path d="M36.4770 21.6373
L36.7794 21.6373
" />
<path d="M36.7794 21.6373
L36.9003 21.6978
" />
<path d="M36.9003 21.6978
L36.9608 21.7583
" />
<path d="M36.9608 21.7583
L37.0213 21.8792
" />
<path d="M37.0213 21.8792
L37.0213 22.1816
" />
<path d="M37.0213 22.1816
L36.9608 22.3026
" />
<path d="M36.9608 22.3026
L36.9003 22.3631
" />
<path d="M36.9003 22.3631
L36.7794 22.4235
" />
<path d="M36.7794 22.4235
L36.4770 22.4235
" />
<path d="M36.4770 22.4235
L36.3560 22.3631
" />
<path d="M36.3560 22.3631
L36.2956 22.3026
" />
</g></g>
<g style="fill:#A90000; fill-opacity:0.0; 
stroke:#A90000; stroke-width:0.1524; stroke-opacity:1; 
stroke-linecap:round; stroke-linejoin:round;">
<text x="39.1414" y="21.5900"
textLength="1.4127" font-size="1.6933" lengthAdjust="spacingAndGlyphs"
text-anchor="middle" opacity="0">5</text>
<g class="stroked-text"><desc>5</desc>
<path d="M39.4438 20.1565
L38.8390 20.1565
" />
<path d="M38.8390 20.1565
L38.7786 20.7613
" />
<path d="M38.7786 20.7613
L38.8390 20.7008
" />
<path d="M38.8390 20.7008
L38.9600 20.6403
" />
<path d="M38.9600 20.6403
L39.2624 20.6403
" />
<path d="M39.2624 20.6403
L39.3833 20.7008
" />
<path d="M39.3833 20.7008
L39.4438 20.7613
" />
<path d="M39.4438 20.7613
L39.5043 20.8822
" />
<path d="M39.5043 20.8822
L39.5043 21.1846
" />
<path d="M39.5043 21.1846
L39.4438 21.3056
" />
<path d="M39.4438 21.3056
L39.3833 21.3661
" />
<path d="M39.3833 21.3661
L39.2624 21.4265
" />
<path d="M39.2624 21.4265
L38.9600 21.4265
" />
<path d="M38.9600 21.4265
L38.8390 21.3661
" />
<path d="M38.8390 21.3661
L38.7786 21.3056
" />
</g></g>
<g style="fill:#840000; fill-opacity:0.0; 
stroke:#840000; stroke-width:0.1524; stroke-opacity:1; 
stroke-linecap:round; stroke-linejoin:round;">
<path d="M25.1714 24.3840
L22.6314 24.3840
" />
</g>
<g style="fill:#006464; fill-opacity:0.0; 
stroke:#006464; stroke-width:0.1524; stroke-opacity:1; 
stroke-linecap:round; stroke-linejoin:round;">
<text x="25.6794" y="25.0190"
textLength="1.3522" font-size="1.6933" lengthAdjust="spacingAndGlyphs"
text-anchor="start" opacity="0">~{E}</text>
<g class="stroked-text"><desc>~{E}</desc>
<path d="M26.0819 24.2983
L26.5053 24.2983
" />
<path d="M26.6867 24.9635
L26.0819 24.9635
" />
<path d="M26.0819 24.9635
L26.0819 23.6935
" />
<path d="M26.0819 23.6935
L26.6867 23.6935
" />
<path d="M25.9066 23.3410
L26.8016 23.3410
" />
</g></g>
<g style="fill:#A90000; fill-opacity:0.0; 
stroke:#A90000; stroke-width:0.1524; stroke-opacity:1; 
stroke-linecap:round; stroke-linejoin:round;">
<text x="23.9014" y="24.1300"
textLength="1.4127" font-size="1.6933" lengthAdjust="spacingAndGlyphs"
text-anchor="middle" opacity="0">6</text>
<g class="stroked-text"><desc>6</desc>
<path d="M24.1433 22.6965
L23.9014 22.6965
" />
<path d="M23.9014 22.6965
L23.7805 22.7570
" />
<path d="M23.7805 22.7570
L23.7200 22.8175
" />
<path d="M23.7200 22.8175
L23.5990 22.9989
" />
<path d="M23.5990 22.9989
L23.5386 23.2408
" />
<path d="M23.5386 23.2408
L23.5386 23.7246
" />
<path d="M23.5386 23.7246
L23.5990 23.8456
" />
<path d="M23.5990 23.8456
L23.6595 23.9061
" />
<path d="M23.6595 23.9061
L23.7805 23.9665
" />
<path d="M23.7805 23.9665
L24.0224 23.9665
" />
<path d="M24.0224 23.9665
L24.1433 23.9061
" />
<path d="M24.1433 23.9061
L24.2038 23.8456
" />
<path d="M24.2038 23.8456
L24.2643 23.7246
" />
<path d="M24.2643 23.7246
L24.2643 23.4222
" />
<path d="M24.2643 23.4222
L24.2038 23.3013
" />
<path d="M24.2038 23.3013
L24.1433 23.2408
" />
<path d="M24.1433 23.2408
L24.0224 23.1803
" />
<path d="M24.0224 23.1803
L23.7805 23.1803
" />
<path d="M23.7805 23.1803
L23.6595 23.2408
" />
<path d="M23.6595 23.2408
L23.5990 23.3013
" />
<path d="M23.5990 23.3013
L23.5386 23.4222
" />
</g></g>
<g style="fill:#840000; fill-opacity:0.0; 
stroke:#840000; stroke-width:0.1524; stroke-opacity:1; 
stroke-linecap:round; stroke-linejoin:round;">
<path d="M32.7914 29.4640
L32.7914 32.0040
" />
</g>
<g style="fill:#006464; fill-opacity:0.0; 
stroke:#006464; stroke-width:0.1524; stroke-opacity:1; 
stroke-linecap:round; stroke-linejoin:round;">
<g transform="rotate(-90.000000 32.7914 28.9560)">
<text x="32.7914" y="29.5910"
textLength="3.5898" font-size="1.6933" lengthAdjust="spacingAndGlyphs"
text-anchor="start" opacity="0">VEE</text>
</g>
<g class="stroked-text"><desc>VEE</desc>
<path d="M32.1009 28.7348
L33.3709 28.3115
" />
<path d="M33.3709 28.3115
L32.1009 27.8881
" />
<path d="M32.7057 27.4648
L32.7057 27.0414
" />
<path d="M33.3709 26.8600
L33.3709 27.4648
" />
<path d="M33.3709 27.4648
L32.1009 27.4648
" />
<path d="M32.1009 27.4648
L32.1009 26.8600
" />
<path d="M32.7057 26.3158
L32.7057 25.8924
" />
<path d="M33.3709 25.7110
L33.3709 26.3158
" />
<path d="M33.3709 26.3158
L32.1009 26.3158
" />
<path d="M32.1009 26.3158
L32.1009 25.7110
" />
</g></g>
<g style="fill:#A90000; fill-opacity:0.0; 
stroke:#A90000; stroke-width:0.1524; stroke-opacity:1; 
stroke-linecap:round; stroke-linejoin:round;">
<g transform="rotate(-90.000000 32.5374 30.7340)">
<text x="32.5374" y="30.7340"
textLength="1.4127" font-size="1.6933" lengthAdjust="spacingAndGlyphs"
text-anchor="middle" opacity="0">7</text>
</g>
<g class="stroked-text"><desc>7</desc>
<path d="M31.1039 31.1572
L31.1039 30.3106
" />
<path d="M31.1039 30.3106
L32.3739 30.8548
" />
</g></g>
<g style="fill:#840000; fill-opacity:0.0; 
stroke:#840000; stroke-width:0.1524; stroke-opacity:1; 
stroke-linecap:round; stroke-linejoin:round;">
<path d="M30.2514 29.4640
L30.2514 32.0040
" />
</g>
<g style="fill:#006464; fill-opacity:0.0; 
stroke:#006464; stroke-width:0.1524; stroke-opacity:1; 
stroke-linecap:round; stroke-linejoin:round;">
<g transform="rotate(-90.000000 30.2514 28.9560)">
<text x="30.2514" y="29.5910"
textLength="4.0737" font-size="1.6933" lengthAdjust="spacingAndGlyphs"
text-anchor="start" opacity="0">GND</text>
</g>
<g class="stroked-text"><desc>GND</desc>
<path d="M29.6214 27.8881
L29.5609 28.0091
" />
<path d="M29.5609 28.0091
L29.5609 28.1905
" />
<path d="M29.5609 28.1905
L29.6214 28.3719
" />
<path d="M29.6214 28.3719
L29.7424 28.4929
" />
<path d="M29.7424 28.4929
L29.8633 28.5534
" />
<path d="M29.8633 28.5534
L30.1052 28.6138
" />
<path d="M30.1052 28.6138
L30.2866 28.6138
" />
<path d="M30.2866 28.6138
L30.5285 28.5534
" />
<path d="M30.5285 28.5534
L30.6495 28.4929
" />
<path d="M30.6495 28.4929
L30.7705 28.3719
" />
<path d="M30.7705 28.3719
L30.8309 28.1905
" />
<path d="M30.8309 28.1905
L30.8309 28.0696
" />
<path d="M30.8309 28.0696
L30.7705 27.8881
" />
<path d="M30.7705 27.8881
L30.7100 27.8277
" />
<path d="M30.7100 27.8277
L30.2866 27.8277
" />
<path d="M30.2866 27.8277
L30.2866 28.0696
" />
<path d="M30.8309 27.2834
L29.5609 27.2834
" />
<path d="M29.5609 27.2834
L30.8309 26.5577
" />
<path d="M30.8309 26.5577
L29.5609 26.5577
" />
<path d="M30.8309 25.9529
L29.5609 25.9529
" />
<path d="M29.5609 25.9529
L29.5609 25.6505
" />
<path d="M29.5609 25.6505
L29.6214 25.4691
" />
<path d="M29.6214 25.4691
L29.7424 25.3481
" />
<path d="M29.7424 25.3481
L29.8633 25.2876
" />
<path d="M29.8633 25.2876
L30.1052 25.2272
" />
<path d="M30.1052 25.2272
L30.2866 25.2272
" />
<path d="M30.2866 25.2272
L30.5285 25.2876
" />
<path d="M30.5285 25.2876
L30.6495 25.3481
" />
<path d="M30.6495 25.3481
L30.7705 25.4691
" />
<path d="M30.7705 25.4691
L30.8309 25.6505
" />
<path d="M30.8309 25.6505
L30.8309 25.9529
" />
</g></g>
<g style="fill:#A90000; fill-opacity:0.0; 
stroke:#A90000; stroke-width:0.1524; stroke-opacity:1; 
stroke-linecap:round; stroke-linejoin:round;">
<g transform="rotate(-90.000000 29.9974 30.7340)">
<text x="29.9974" y="30.7340"
textLength="1.4127" font-size="1.6933" lengthAdjust="spacingAndGlyphs"
text-anchor="middle" opacity="0">8</text>
</g>
<g class="stroked-text"><desc>8</desc>
<path d="M29.1082 30.8548
L29.0477 30.9758
" />
<path d="M29.0477 30.9758
L28.9873 31.0363
" />
<path d="M28.9873 31.0363
L28.8663 31.0967
" />
<path d="M28.8663 31.0967
L28.8058 31.0967
" />
<path d="M28.8058 31.0967
L28.6849 31.0363
" />
<path d="M28.6849 31.0363
L28.6244 30.9758
" />
<path d="M28.6244 30.9758
L28.5639 30.8548
" />
<path d="M28.5639 30.8548
L28.5639 30.6129
" />
<path d="M28.5639 30.6129
L28.6244 30.4920
" />
<path d="M28.6244 30.4920
L28.6849 30.4315
" />
<path d="M28.6849 30.4315
L28.8058 30.3710
" />
<path d="M28.8058 30.3710
L28.8663 30.3710
" />
<path d="M28.8663 30.3710
L28.9873 30.4315
" />
<path d="M28.9873 30.4315
L29.0477 30.4920
" />
<path d="M29.0477 30.4920
L29.1082 30.6129
" />
<path d="M29.1082 30.6129
L29.1082 30.8548
" />
<path d="M29.1082 30.8548
L29.1687 30.9758
" />
<path d="M29.1687 30.9758
L29.2292 31.0363
" />
<path d="M29.2292 31.0363
L29.3501 31.0967
" />
<path d="M29.3501 31.0967
L29.5920 31.0967
" />
<path d="M29.5920 31.0967
L29.7130 31.0363
" />
<path d="M29.7130 31.0363
L29.7735 30.9758
" />
<path d="M29.7735 30.9758
L29.8339 30.8548
" />
<path d="M29.8339 30.8548
L29.8339 30.6129
" />
<path d="M29.8339 30.6129
L29.7735 30.4920
" />
<path d="M29.7735 30.4920
L29.7130 30.4315
" />
<path d="M29.7130 30.4315
L29.5920 30.3710
" />
<path d="M29.5920 30.3710
L29.3501 30.3710
" />
<path d="M29.3501 30.3710
L29.2292 30.4315
" />
<path d="M29.2292 30.4315
L29.1687 30.4920
" />
<path d="M29.1687 30.4920
L29.1082 30.6129
" />
</g></g>
<g style="fill:#840000; fill-opacity:0.0; 
stroke:#840000; stroke-width:0.1524; stroke-opacity:1; 
stroke-linecap:round; stroke-linejoin:round;">
<path d="M25.1714 19.3040
L22.6314 19.3040
" />
</g>
<g style="fill:#006464; fill-opacity:0.0; 
stroke:#006464; stroke-width:0.1524; stroke-opacity:1; 
stroke-linecap:round; stroke-linejoin:round;">
<text x="25.6794" y="19.9390"
textLength="2.6222" font-size="1.6933" lengthAdjust="spacingAndGlyphs"
text-anchor="start" opacity="0">S2</text>
<g class="stroked-text"><desc>S2</desc>
<path d="M26.0215 19.8231
L26.2029 19.8835
" />
<path d="M26.2029 19.8835
L26.5053 19.8835
" />
<path d="M26.5053 19.8835
L26.6262 19.8231
" />
<path d="M26.6262 19.8231
L26.6867 19.7626
" />
<path d="M26.6867 19.7626
L26.7472 19.6416
" />
<path d="M26.7472 19.6416
L26.7472 19.5207
" />
<path d="M26.7472 19.5207
L26.6867 19.3997
" />
<path d="M26.6867 19.3997
L26.6262 19.3392
" />
<path d="M26.6262 19.3392
L26.5053 19.2788
" />
<path d="M26.5053 19.2788
L26.2634 19.2183
" />
<path d="M26.2634 19.2183
L26.1424 19.1578
" />
<path d="M26.1424 19.1578
L26.0819 19.0973
" />
<path d="M26.0819 19.0973
L26.0215 18.9764
" />
<path d="M26.0215 18.9764
L26.0215 18.8554
" />
<path d="M26.0215 18.8554
L26.0819 18.7345
" />
<path d="M26.0819 18.7345
L26.1424 18.6740
" />
<path d="M26.1424 18.6740
L26.2634 18.6135
" />
<path d="M26.2634 18.6135
L26.5657 18.6135
" />
<path d="M26.5657 18.6135
L26.7472 18.6740
" />
<path d="M27.2310 18.7345
L27.2914 18.6740
" />
<path d="M27.2914 18.6740
L27.4124 18.6135
" />
<path d="M27.4124 18.6135
L27.7148 18.6135
" />
<path d="M27.7148 18.6135
L27.8357 18.6740
" />
<path d="M27.8357 18.6740
L27.8962 18.7345
" />
<path d="M27.8962 18.7345
L27.9567 18.8554
" />
<path d="M27.9567 18.8554
L27.9567 18.9764
" />
<path d="M27.9567 18.9764
L27.8962 19.1578
" />
<path d="M27.8962 19.1578
L27.1705 19.8835
" />
<path d="M27.1705 19.8835
L27.9567 19.8835
" />
</g></g>
<g style="fill:#A90000; fill-opacity:0.0; 
stroke:#A90000; stroke-width:0.1524; stroke-opacity:1; 
stroke-linecap:round; stroke-linejoin:round;">
<text x="23.9014" y="19.0500"
textLength="1.4127" font-size="1.6933" lengthAdjust="spacingAndGlyphs"
text-anchor="middle" opacity="0">9</text>
<g class="stroked-text"><desc>9</desc>
<path d="M23.6595 18.8865
L23.9014 18.8865
" />
<path d="M23.9014 18.8865
L24.0224 18.8261
" />
<path d="M24.0224 18.8261
L24.0828 18.7656
" />
<path d="M24.0828 18.7656
L24.2038 18.5841
" />
<path d="M24.2038 18.5841
L24.2643 18.3422
" />
<path d="M24.2643 18.3422
L24.2643 17.8584
" />
<path d="M24.2643 17.8584
L24.2038 17.7375
" />
<path d="M24.2038 17.7375
L24.1433 17.6770
" />
<path d="M24.1433 17.6770
L24.0224 17.6165
" />
<path d="M24.0224 17.6165
L23.7805 17.6165
" />
<path d="M23.7805 17.6165
L23.6595 17.6770
" />
<path d="M23.6595 17.6770
L23.5990 17.7375
" />
<path d="M23.5990 17.7375
L23.5386 17.8584
" />
<path d="M23.5386 17.8584
L23.5386 18.1608
" />
<path d="M23.5386 18.1608
L23.5990 18.2818
" />
<path d="M23.5990 18.2818
L23.6595 18.3422
" />
<path d="M23.6595 18.3422
L23.7805 18.4027
" />
<path d="M23.7805 18.4027
L24.0224 18.4027
" />
<path d="M24.0224 18.4027
L24.1433 18.3422
" />
<path d="M24.1433 18.3422
L24.2038 18.2818
" />
<path d="M24.2038 18.2818
L24.2643 18.1608
" />
</g></g>
<g style="fill:#840084; fill-opacity:0.0; 
stroke:#840084; stroke-width:0.1524; stroke-opacity:1; 
stroke-linecap:round; stroke-linejoin:round;">
</g>
<g style="fill:#006464; fill-opacity:0.0; 
stroke:#006464; stroke-width:0.1524; stroke-opacity:1; 
stroke-linecap:round; stroke-linejoin:round;">
</g>
<g style="fill:#006464; fill-opacity:0.0; 
stroke:#006464; stroke-width:0.1588; stroke-opacity:1; 
stroke-linecap:round; stroke-linejoin:round;">
<text x="25.1714" y="5.9690"
textLength="2.6415" font-size="1.6933" lengthAdjust="spacingAndGlyphs"
text-anchor="middle" opacity="0">U?</text>
<g class="stroked-text"><desc>U?</desc>
<path d="M24.2642 4.6432
L24.2642 5.6713
" />
<path d="M24.2642 5.6713
L24.3247 5.7923
" />
<path d="M24.3247 5.7923
L24.3852 5.8528
" />
<path d="M24.3852 5.8528
L24.5061 5.9132
" />
<path d="M24.5061 5.9132
L24.7480 5.9132
" />
<path d="M24.7480 5.9132
L24.8690 5.8528
" />
<path d="M24.8690 5.8528
L24.9295 5.7923
" />
<path d="M24.9295 5.7923
L24.9899 5.6713
" />
<path d="M24.9899 5.6713
L24.9899 4.6432
" />
<path d="M25.7762 5.7923
L25.8366 5.8528
" />
<path d="M25.8366 5.8528
L25.7762 5.9132
" />
<path d="M25.7762 5.9132
L25.7157 5.8528
" />
<path d="M25.7157 5.8528
L25.7762 5.7923
" />
<path d="M25.7762 5.7923
L25.7762 5.9132
" />
<path d="M25.5343 4.7037
L25.6552 4.6432
" />
<path d="M25.6552 4.6432
L25.9576 4.6432
" />
<path d="M25.9576 4.6432
L26.0785 4.7037
" />
<path d="M26.0785 4.7037
L26.1390 4.8247
" />
<path d="M26.1390 4.8247
L26.1390 4.9456
" />
<path d="M26.1390 4.9456
L26.0785 5.0666
" />
<path d="M26.0785 5.0666
L26.0181 5.1270
" />
<path d="M26.0181 5.1270
L25.8971 5.1875
" />
<path d="M25.8971 5.1875
L25.8366 5.2480
" />
<path d="M25.8366 5.2480
L25.7762 5.3689
" />
<path d="M25.7762 5.3689
L25.7762 5.4294
" />
</g><text x="22.6314" y="31.3690"
textLength="11.0475" font-size="1.6933" lengthAdjust="spacingAndGlyphs"
text-anchor="middle" opacity="0">74HCT4051</text>
<g class="stroked-text"><desc>74HCT4051</desc>
<path d="M17.4003 30.0432
L18.2469 30.0432
" />
<path d="M18.2469 30.0432
L17.7027 31.3132
" />
<path d="M19.2750 30.4666
L19.2750 31.3132
" />
<path d="M18.9726 29.9828
L18.6703 30.8899
" />
<path d="M18.6703 30.8899
L19.4564 30.8899
" />
<path d="M19.9402 31.3132
L19.9402 30.0432
" />
<path d="M19.9402 30.6480
L20.6659 30.6480
" />
<path d="M20.6659 31.3132
L20.6659 30.0432
" />
<path d="M21.9964 31.1923
L21.9360 31.2528
" />
<path d="M21.9360 31.2528
L21.7545 31.3132
" />
<path d="M21.7545 31.3132
L21.6336 31.3132
" />
<path d="M21.6336 31.3132
L21.4522 31.2528
" />
<path d="M21.4522 31.2528
L21.3312 31.1318
" />
<path d="M21.3312 31.1318
L21.2707 31.0108
" />
<path d="M21.2707 31.0108
L21.2103 30.7689
" />
<path d="M21.2103 30.7689
L21.2103 30.5875
" />
<path d="M21.2103 30.5875
L21.2707 30.3456
" />
<path d="M21.2707 30.3456
L21.3312 30.2247
" />
<path d="M21.3312 30.2247
L21.4522 30.1037
" />
<path d="M21.4522 30.1037
L21.6336 30.0432
" />
<path d="M21.6336 30.0432
L21.7545 30.0432
" />
<path d="M21.7545 30.0432
L21.9360 30.1037
" />
<path d="M21.9360 30.1037
L21.9964 30.1642
" />
<path d="M22.3593 30.0432
L23.0850 30.0432
" />
<path d="M22.7222 31.3132
L22.7222 30.0432
" />
<path d="M24.0526 30.4666
L24.0526 31.3132
" />
<path d="M23.7502 29.9828
L23.4479 30.8899
" />
<path d="M23.4479 30.8899
L24.2340 30.8899
" />
<path d="M24.9597 30.0432
L25.0807 30.0432
" />
<path d="M25.0807 30.0432
L25.2016 30.1037
" />
<path d="M25.2016 30.1037
L25.2621 30.1642
" />
<path d="M25.2621 30.1642
L25.3226 30.2851
" />
<path d="M25.3226 30.2851
L25.3831 30.5270
" />
<path d="M25.3831 30.5270
L25.3831 30.8294
" />
<path d="M25.3831 30.8294
L25.3226 31.0713
" />
<path d="M25.3226 31.0713
L25.2621 31.1923
" />
<path d="M25.2621 31.1923
L25.2016 31.2528
" />
<path d="M25.2016 31.2528
L25.0807 31.3132
" />
<path d="M25.0807 31.3132
L24.9597 31.3132
" />
<path d="M24.9597 31.3132
L24.8388 31.2528
" />
<path d="M24.8388 31.2528
L24.7783 31.1923
" />
<path d="M24.7783 31.1923
L24.7178 31.0713
" />
<path d="M24.7178 31.0713
L24.6574 30.8294
" />
<path d="M24.6574 30.8294
L24.6574 30.5270
" />
<path d="M24.6574 30.5270
L24.7178 30.2851
" />
<path d="M24.7178 30.2851
L24.7783 30.1642
" />
<path d="M24.7783 30.1642
L24.8388 30.1037
" />
<path d="M24.8388 30.1037
L24.9597 30.0432
" />
<path d="M26.5321 30.0432
L25.9273 30.0432
" />
<path d="M25.9273 30.0432
L25.8669 30.6480
" />
<path d="M25.8669 30.6480
L25.9273 30.5875
" />
<path d="M25.9273 30.5875
L26.0483 30.5270
" />
<path d="M26.0483 30.5270
L26.3507 30.5270
" />
<path d="M26.3507 30.5270
L26.4716 30.5875
" />
<path d="M26.4716 30.5875
L26.5321 30.6480
" />
<path d="M26.5321 30.6480
L26.5926 30.7689
" />
<path d="M26.5926 30.7689
L26.5926 31.0713
" />
<path d="M26.5926 31.0713
L26.5321 31.1923
" />
<path d="M26.5321 31.1923
L26.4716 31.2528
" />
<path d="M26.4716 31.2528
L26.3507 31.3132
" />
<path d="M26.3507 31.3132
L26.0483 31.3132
" />
<path d="M26.0483 31.3132
L25.9273 31.2528
" />
<path d="M25.9273 31.2528
L25.8669 31.1923
" />
<path d="M27.8021 31.3132
L27.0764 31.3132
" />
<path d="M27.4392 31.3132
L27.4392 30.0432
" />
<path d="M27.4392 30.0432
L27.3183 30.2247
" />
<path d="M27.3183 30.2247
L27.1973 30.3456
" />
<path d="M27.1973 30.3456
L27.0764 30.4061
" />
</g></g> 
</svg>
