<?xml version="1.0" standalone="no"?>
 <!DOCTYPE svg PUBLIC "-//W3C//DTD SVG 1.1//EN" 
 "http://www.w3.org/Graphics/SVG/1.1/DTD/svg11.dtd"> 
<svg
  xmlns:svg="http://www.w3.org/2000/svg"
  xmlns="http://www.w3.org/2000/svg"
  xmlns:xlink="http://www.w3.org/1999/xlink"
  version="1.1"
  width="45.1104mm" height="23.7998mm" viewBox="0.0000 0.0000 45.1104 23.7998">
<title>SVG Image created as 74ls109_2.svg date 2024/01/16 15:08:49 </title>
  <desc>Image generated by Eeschema-SVG </desc>
<g style="fill:#000000; fill-opacity:1.0000;stroke:#000000; stroke-opacity:1.0000;
stroke-linecap:round; stroke-linejoin:round;"
 transform="translate(0 0) scale(1 1)">
</g>
<g style="fill:#840000; fill-opacity:0.0; 
stroke:#840000; stroke-width:0.0000; stroke-opacity:1; 
stroke-linecap:round; stroke-linejoin:round;">
</g>
<g style="fill:#FFFFC2; fill-opacity:0.0; 
stroke:#FFFFC2; stroke-width:0.0000; stroke-opacity:1; 
stroke-linecap:round; stroke-linejoin:round;">
</g>
<g style="fill:#FFFFC2; fill-opacity:1.0000; 
stroke:#FFFFC2; stroke-width:0.0000; stroke-opacity:1; 
stroke-linecap:round; stroke-linejoin:round;">
<rect x="17.475200" y="6.819900" width="10.160000" height="10.160000" rx="0.000000" />
</g>
<g style="fill:#840084; fill-opacity:1.0000; 
stroke:#840084; stroke-width:0.0000; stroke-opacity:1; 
stroke-linecap:round; stroke-linejoin:round;">
</g>
<g style="fill:#840000; fill-opacity:1.0000; 
stroke:#840000; stroke-width:0.0000; stroke-opacity:1; 
stroke-linecap:round; stroke-linejoin:round;">
</g>
<g style="fill:#840000; fill-opacity:0.0; 
stroke:#840000; stroke-width:0.2540; stroke-opacity:1; 
stroke-linecap:round; stroke-linejoin:round;">
<rect x="17.475200" y="6.819900" width="10.160000" height="10.160000" rx="0.000000" />
</g>
<g style="fill:#840000; fill-opacity:0.0; 
stroke:#840000; stroke-width:0.1524; stroke-opacity:1; 
stroke-linecap:round; stroke-linejoin:round;">
<path d="M27.6352 9.3599
L30.1752 9.3599
" />
</g>
<g style="fill:#006464; fill-opacity:0.0; 
stroke:#006464; stroke-width:0.1524; stroke-opacity:1; 
stroke-linecap:round; stroke-linejoin:round;">
<text x="26.6192" y="9.9949"
textLength="1.5337" font-size="1.6933" lengthAdjust="spacingAndGlyphs"
text-anchor="end" opacity="0">Q</text>
<g class="stroked-text"><desc>Q</desc>
<path d="M26.3375 10.0604
L26.2165 9.9999
" />
<path d="M26.2165 9.9999
L26.0956 9.8790
" />
<path d="M26.0956 9.8790
L25.9142 9.6975
" />
<path d="M25.9142 9.6975
L25.7932 9.6370
" />
<path d="M25.7932 9.6370
L25.6723 9.6370
" />
<path d="M25.7327 9.9394
L25.6118 9.8790
" />
<path d="M25.6118 9.8790
L25.4908 9.7580
" />
<path d="M25.4908 9.7580
L25.4304 9.5161
" />
<path d="M25.4304 9.5161
L25.4304 9.0928
" />
<path d="M25.4304 9.0928
L25.4908 8.8509
" />
<path d="M25.4908 8.8509
L25.6118 8.7299
" />
<path d="M25.6118 8.7299
L25.7327 8.6694
" />
<path d="M25.7327 8.6694
L25.9746 8.6694
" />
<path d="M25.9746 8.6694
L26.0956 8.7299
" />
<path d="M26.0956 8.7299
L26.2165 8.8509
" />
<path d="M26.2165 8.8509
L26.2770 9.0928
" />
<path d="M26.2770 9.0928
L26.2770 9.5161
" />
<path d="M26.2770 9.5161
L26.2165 9.7580
" />
<path d="M26.2165 9.7580
L26.0956 9.8790
" />
<path d="M26.0956 9.8790
L25.9746 9.9394
" />
<path d="M25.9746 9.9394
L25.7327 9.9394
" />
</g></g>
<g style="fill:#A90000; fill-opacity:0.0; 
stroke:#A90000; stroke-width:0.1524; stroke-opacity:1; 
stroke-linecap:round; stroke-linejoin:round;">
<text x="28.9052" y="9.1059"
textLength="2.6222" font-size="1.6933" lengthAdjust="spacingAndGlyphs"
text-anchor="middle" opacity="0">10</text>
<g class="stroked-text"><desc>10</desc>
<path d="M28.6633 8.9424
L27.9376 8.9424
" />
<path d="M28.3004 8.9424
L28.3004 7.6724
" />
<path d="M28.3004 7.6724
L28.1795 7.8539
" />
<path d="M28.1795 7.8539
L28.0585 7.9748
" />
<path d="M28.0585 7.9748
L27.9376 8.0353
" />
<path d="M29.4494 7.6724
L29.5704 7.6724
" />
<path d="M29.5704 7.6724
L29.6913 7.7329
" />
<path d="M29.6913 7.7329
L29.7518 7.7934
" />
<path d="M29.7518 7.7934
L29.8123 7.9143
" />
<path d="M29.8123 7.9143
L29.8728 8.1562
" />
<path d="M29.8728 8.1562
L29.8728 8.4586
" />
<path d="M29.8728 8.4586
L29.8123 8.7005
" />
<path d="M29.8123 8.7005
L29.7518 8.8215
" />
<path d="M29.7518 8.8215
L29.6913 8.8820
" />
<path d="M29.6913 8.8820
L29.5704 8.9424
" />
<path d="M29.5704 8.9424
L29.4494 8.9424
" />
<path d="M29.4494 8.9424
L29.3285 8.8820
" />
<path d="M29.3285 8.8820
L29.2680 8.8215
" />
<path d="M29.2680 8.8215
L29.2075 8.7005
" />
<path d="M29.2075 8.7005
L29.1471 8.4586
" />
<path d="M29.1471 8.4586
L29.1471 8.1562
" />
<path d="M29.1471 8.1562
L29.2075 7.9143
" />
<path d="M29.2075 7.9143
L29.2680 7.7934
" />
<path d="M29.2680 7.7934
L29.3285 7.7329
" />
<path d="M29.3285 7.7329
L29.4494 7.6724
" />
</g></g>
<g style="fill:#840000; fill-opacity:0.0; 
stroke:#840000; stroke-width:0.1524; stroke-opacity:1; 
stroke-linecap:round; stroke-linejoin:round;">
<path d="M22.5552 6.8199
L22.5552 4.2799
" />
</g>
<g style="fill:#006464; fill-opacity:0.0; 
stroke:#006464; stroke-width:0.1524; stroke-opacity:1; 
stroke-linecap:round; stroke-linejoin:round;">
<g transform="rotate(-90.000000 22.5552 7.8359)">
<text x="22.5552" y="8.4709"
textLength="1.4127" font-size="1.6933" lengthAdjust="spacingAndGlyphs"
text-anchor="end" opacity="0">~{S}</text>
</g>
<g class="stroked-text"><desc>~{S}</desc>
<path d="M23.0743 8.9036
L23.1347 8.7222
" />
<path d="M23.1347 8.7222
L23.1347 8.4198
" />
<path d="M23.1347 8.4198
L23.0743 8.2989
" />
<path d="M23.0743 8.2989
L23.0138 8.2384
" />
<path d="M23.0138 8.2384
L22.8928 8.1779
" />
<path d="M22.8928 8.1779
L22.7719 8.1779
" />
<path d="M22.7719 8.1779
L22.6509 8.2384
" />
<path d="M22.6509 8.2384
L22.5904 8.2989
" />
<path d="M22.5904 8.2989
L22.5300 8.4198
" />
<path d="M22.5300 8.4198
L22.4695 8.6617
" />
<path d="M22.4695 8.6617
L22.4090 8.7827
" />
<path d="M22.4090 8.7827
L22.3485 8.8432
" />
<path d="M22.3485 8.8432
L22.2276 8.9036
" />
<path d="M22.2276 8.9036
L22.1066 8.9036
" />
<path d="M22.1066 8.9036
L21.9857 8.8432
" />
<path d="M21.9857 8.8432
L21.9252 8.7827
" />
<path d="M21.9252 8.7827
L21.8647 8.6617
" />
<path d="M21.8647 8.6617
L21.8647 8.3594
" />
<path d="M21.8647 8.3594
L21.9252 8.1779
" />
<path d="M21.5122 9.0186
L21.5122 8.0631
" />
</g></g>
<g style="fill:#A90000; fill-opacity:0.0; 
stroke:#A90000; stroke-width:0.1524; stroke-opacity:1; 
stroke-linecap:round; stroke-linejoin:round;">
<g transform="rotate(-90.000000 22.3012 5.5499)">
<text x="22.3012" y="5.5499"
textLength="2.6222" font-size="1.6933" lengthAdjust="spacingAndGlyphs"
text-anchor="middle" opacity="0">11</text>
</g>
<g class="stroked-text"><desc>11</desc>
<path d="M22.1377 5.7917
L22.1377 6.5174
" />
<path d="M22.1377 6.1546
L20.8677 6.1546
" />
<path d="M20.8677 6.1546
L21.0492 6.2755
" />
<path d="M21.0492 6.2755
L21.1701 6.3965
" />
<path d="M21.1701 6.3965
L21.2306 6.5174
" />
<path d="M22.1377 4.5822
L22.1377 5.3079
" />
<path d="M22.1377 4.9451
L20.8677 4.9451
" />
<path d="M20.8677 4.9451
L21.0492 5.0660
" />
<path d="M21.0492 5.0660
L21.1701 5.1870
" />
<path d="M21.1701 5.1870
L21.2306 5.3079
" />
</g></g>
<g style="fill:#840000; fill-opacity:0.0; 
stroke:#840000; stroke-width:0.1524; stroke-opacity:1; 
stroke-linecap:round; stroke-linejoin:round;">
<path d="M17.4752 11.8999
L14.9352 11.8999
" />
<path d="M17.4752 12.5349
L18.7452 11.8999
L17.4752 11.2649
" />
</g>
<g style="fill:#006464; fill-opacity:0.0; 
stroke:#006464; stroke-width:0.1524; stroke-opacity:1; 
stroke-linecap:round; stroke-linejoin:round;">
<text x="18.4912" y="12.5349"
textLength="1.4732" font-size="1.6933" lengthAdjust="spacingAndGlyphs"
text-anchor="start" opacity="0">C</text>
<g class="stroked-text"><desc>C</desc>
<path d="M19.6194 12.3585
L19.5590 12.4190
" />
<path d="M19.5590 12.4190
L19.3775 12.4794
" />
<path d="M19.3775 12.4794
L19.2566 12.4794
" />
<path d="M19.2566 12.4794
L19.0752 12.4190
" />
<path d="M19.0752 12.4190
L18.9542 12.2980
" />
<path d="M18.9542 12.2980
L18.8937 12.1770
" />
<path d="M18.8937 12.1770
L18.8333 11.9351
" />
<path d="M18.8333 11.9351
L18.8333 11.7537
" />
<path d="M18.8333 11.7537
L18.8937 11.5118
" />
<path d="M18.8937 11.5118
L18.9542 11.3909
" />
<path d="M18.9542 11.3909
L19.0752 11.2699
" />
<path d="M19.0752 11.2699
L19.2566 11.2094
" />
<path d="M19.2566 11.2094
L19.3775 11.2094
" />
<path d="M19.3775 11.2094
L19.5590 11.2699
" />
<path d="M19.5590 11.2699
L19.6194 11.3304
" />
</g></g>
<g style="fill:#A90000; fill-opacity:0.0; 
stroke:#A90000; stroke-width:0.1524; stroke-opacity:1; 
stroke-linecap:round; stroke-linejoin:round;">
<text x="16.2052" y="11.6459"
textLength="2.6222" font-size="1.6933" lengthAdjust="spacingAndGlyphs"
text-anchor="middle" opacity="0">12</text>
<g class="stroked-text"><desc>12</desc>
<path d="M15.9633 11.4824
L15.2376 11.4824
" />
<path d="M15.6004 11.4824
L15.6004 10.2124
" />
<path d="M15.6004 10.2124
L15.4795 10.3939
" />
<path d="M15.4795 10.3939
L15.3585 10.5148
" />
<path d="M15.3585 10.5148
L15.2376 10.5753
" />
<path d="M16.4471 10.3334
L16.5075 10.2729
" />
<path d="M16.5075 10.2729
L16.6285 10.2124
" />
<path d="M16.6285 10.2124
L16.9309 10.2124
" />
<path d="M16.9309 10.2124
L17.0518 10.2729
" />
<path d="M17.0518 10.2729
L17.1123 10.3334
" />
<path d="M17.1123 10.3334
L17.1728 10.4543
" />
<path d="M17.1728 10.4543
L17.1728 10.5753
" />
<path d="M17.1728 10.5753
L17.1123 10.7567
" />
<path d="M17.1123 10.7567
L16.3866 11.4824
" />
<path d="M16.3866 11.4824
L17.1728 11.4824
" />
</g></g>
<g style="fill:#840000; fill-opacity:0.0; 
stroke:#840000; stroke-width:0.1524; stroke-opacity:1; 
stroke-linecap:round; stroke-linejoin:round;">
<path d="M17.4752 14.4399
L14.9352 14.4399
" />
</g>
<g style="fill:#006464; fill-opacity:0.0; 
stroke:#006464; stroke-width:0.1524; stroke-opacity:1; 
stroke-linecap:round; stroke-linejoin:round;">
<text x="18.4912" y="15.0749"
textLength="1.4732" font-size="1.6933" lengthAdjust="spacingAndGlyphs"
text-anchor="start" opacity="0">~{K}</text>
<g class="stroked-text"><desc>~{K}</desc>
<path d="M18.8937 15.0194
L18.8937 13.7494
" />
<path d="M19.6194 15.0194
L19.0752 14.2937
" />
<path d="M19.6194 13.7494
L18.8937 14.4751
" />
<path d="M18.7184 13.3969
L19.7344 13.3969
" />
</g></g>
<g style="fill:#A90000; fill-opacity:0.0; 
stroke:#A90000; stroke-width:0.1524; stroke-opacity:1; 
stroke-linecap:round; stroke-linejoin:round;">
<text x="16.2052" y="14.1859"
textLength="2.6222" font-size="1.6933" lengthAdjust="spacingAndGlyphs"
text-anchor="middle" opacity="0">13</text>
<g class="stroked-text"><desc>13</desc>
<path d="M15.9633 14.0224
L15.2376 14.0224
" />
<path d="M15.6004 14.0224
L15.6004 12.7524
" />
<path d="M15.6004 12.7524
L15.4795 12.9339
" />
<path d="M15.4795 12.9339
L15.3585 13.0548
" />
<path d="M15.3585 13.0548
L15.2376 13.1153
" />
<path d="M16.3866 12.7524
L17.1728 12.7524
" />
<path d="M17.1728 12.7524
L16.7494 13.2362
" />
<path d="M16.7494 13.2362
L16.9309 13.2362
" />
<path d="M16.9309 13.2362
L17.0518 13.2967
" />
<path d="M17.0518 13.2967
L17.1123 13.3572
" />
<path d="M17.1123 13.3572
L17.1728 13.4781
" />
<path d="M17.1728 13.4781
L17.1728 13.7805
" />
<path d="M17.1728 13.7805
L17.1123 13.9015
" />
<path d="M17.1123 13.9015
L17.0518 13.9620
" />
<path d="M17.0518 13.9620
L16.9309 14.0224
" />
<path d="M16.9309 14.0224
L16.5680 14.0224
" />
<path d="M16.5680 14.0224
L16.4471 13.9620
" />
<path d="M16.4471 13.9620
L16.3866 13.9015
" />
</g></g>
<g style="fill:#840000; fill-opacity:0.0; 
stroke:#840000; stroke-width:0.1524; stroke-opacity:1; 
stroke-linecap:round; stroke-linejoin:round;">
<path d="M17.4752 9.3599
L14.9352 9.3599
" />
</g>
<g style="fill:#006464; fill-opacity:0.0; 
stroke:#006464; stroke-width:0.1524; stroke-opacity:1; 
stroke-linecap:round; stroke-linejoin:round;">
<text x="18.4912" y="9.9949"
textLength="1.1708" font-size="1.6933" lengthAdjust="spacingAndGlyphs"
text-anchor="start" opacity="0">J</text>
<g class="stroked-text"><desc>J</desc>
<path d="M19.2566 8.6694
L19.2566 9.5766
" />
<path d="M19.2566 9.5766
L19.1961 9.7580
" />
<path d="M19.1961 9.7580
L19.0752 9.8790
" />
<path d="M19.0752 9.8790
L18.8937 9.9394
" />
<path d="M18.8937 9.9394
L18.7728 9.9394
" />
</g></g>
<g style="fill:#A90000; fill-opacity:0.0; 
stroke:#A90000; stroke-width:0.1524; stroke-opacity:1; 
stroke-linecap:round; stroke-linejoin:round;">
<text x="16.2052" y="9.1059"
textLength="2.6222" font-size="1.6933" lengthAdjust="spacingAndGlyphs"
text-anchor="middle" opacity="0">14</text>
<g class="stroked-text"><desc>14</desc>
<path d="M15.9633 8.9424
L15.2376 8.9424
" />
<path d="M15.6004 8.9424
L15.6004 7.6724
" />
<path d="M15.6004 7.6724
L15.4795 7.8539
" />
<path d="M15.4795 7.8539
L15.3585 7.9748
" />
<path d="M15.3585 7.9748
L15.2376 8.0353
" />
<path d="M17.0518 8.0958
L17.0518 8.9424
" />
<path d="M16.7494 7.6120
L16.4471 8.5191
" />
<path d="M16.4471 8.5191
L17.2332 8.5191
" />
</g></g>
<g style="fill:#840000; fill-opacity:0.0; 
stroke:#840000; stroke-width:0.1524; stroke-opacity:1; 
stroke-linecap:round; stroke-linejoin:round;">
<path d="M22.5552 16.9799
L22.5552 19.5199
" />
</g>
<g style="fill:#006464; fill-opacity:0.0; 
stroke:#006464; stroke-width:0.1524; stroke-opacity:1; 
stroke-linecap:round; stroke-linejoin:round;">
<g transform="rotate(-90.000000 22.5552 15.9639)">
<text x="22.5552" y="16.5989"
textLength="1.4732" font-size="1.6933" lengthAdjust="spacingAndGlyphs"
text-anchor="start" opacity="0">~{R}</text>
</g>
<g class="stroked-text"><desc>~{R}</desc>
<path d="M23.1347 14.8356
L22.5300 15.2589
" />
<path d="M23.1347 15.5613
L21.8647 15.5613
" />
<path d="M21.8647 15.5613
L21.8647 15.0775
" />
<path d="M21.8647 15.0775
L21.9252 14.9565
" />
<path d="M21.9252 14.9565
L21.9857 14.8960
" />
<path d="M21.9857 14.8960
L22.1066 14.8356
" />
<path d="M22.1066 14.8356
L22.2881 14.8356
" />
<path d="M22.2881 14.8356
L22.4090 14.8960
" />
<path d="M22.4090 14.8960
L22.4695 14.9565
" />
<path d="M22.4695 14.9565
L22.5300 15.0775
" />
<path d="M22.5300 15.0775
L22.5300 15.5613
" />
<path d="M21.5122 15.7367
L21.5122 14.7207
" />
</g></g>
<g style="fill:#A90000; fill-opacity:0.0; 
stroke:#A90000; stroke-width:0.1524; stroke-opacity:1; 
stroke-linecap:round; stroke-linejoin:round;">
<g transform="rotate(-90.000000 22.3012 18.2499)">
<text x="22.3012" y="18.2499"
textLength="2.6222" font-size="1.6933" lengthAdjust="spacingAndGlyphs"
text-anchor="middle" opacity="0">15</text>
</g>
<g class="stroked-text"><desc>15</desc>
<path d="M22.1377 18.4917
L22.1377 19.2174
" />
<path d="M22.1377 18.8546
L20.8677 18.8546
" />
<path d="M20.8677 18.8546
L21.0492 18.9755
" />
<path d="M21.0492 18.9755
L21.1701 19.0965
" />
<path d="M21.1701 19.0965
L21.2306 19.2174
" />
<path d="M20.8677 17.3427
L20.8677 17.9475
" />
<path d="M20.8677 17.9475
L21.4725 18.0079
" />
<path d="M21.4725 18.0079
L21.4120 17.9475
" />
<path d="M21.4120 17.9475
L21.3515 17.8265
" />
<path d="M21.3515 17.8265
L21.3515 17.5241
" />
<path d="M21.3515 17.5241
L21.4120 17.4032
" />
<path d="M21.4120 17.4032
L21.4725 17.3427
" />
<path d="M21.4725 17.3427
L21.5934 17.2822
" />
<path d="M21.5934 17.2822
L21.8958 17.2822
" />
<path d="M21.8958 17.2822
L22.0168 17.3427
" />
<path d="M22.0168 17.3427
L22.0773 17.4032
" />
<path d="M22.0773 17.4032
L22.1377 17.5241
" />
<path d="M22.1377 17.5241
L22.1377 17.8265
" />
<path d="M22.1377 17.8265
L22.0773 17.9475
" />
<path d="M22.0773 17.9475
L22.0168 18.0079
" />
</g></g>
<g style="fill:#840000; fill-opacity:0.0; 
stroke:#840000; stroke-width:0.1524; stroke-opacity:1; 
stroke-linecap:round; stroke-linejoin:round;">
<path d="M27.6352 14.4399
L30.1752 14.4399
" />
</g>
<g style="fill:#006464; fill-opacity:0.0; 
stroke:#006464; stroke-width:0.1524; stroke-opacity:1; 
stroke-linecap:round; stroke-linejoin:round;">
<text x="26.6192" y="15.0749"
textLength="1.5337" font-size="1.6933" lengthAdjust="spacingAndGlyphs"
text-anchor="end" opacity="0">~{Q}</text>
<g class="stroked-text"><desc>~{Q}</desc>
<path d="M26.3375 15.1404
L26.2165 15.0799
" />
<path d="M26.2165 15.0799
L26.0956 14.9590
" />
<path d="M26.0956 14.9590
L25.9142 14.7775
" />
<path d="M25.9142 14.7775
L25.7932 14.7170
" />
<path d="M25.7932 14.7170
L25.6723 14.7170
" />
<path d="M25.7327 15.0194
L25.6118 14.9590
" />
<path d="M25.6118 14.9590
L25.4908 14.8380
" />
<path d="M25.4908 14.8380
L25.4304 14.5961
" />
<path d="M25.4304 14.5961
L25.4304 14.1728
" />
<path d="M25.4304 14.1728
L25.4908 13.9309
" />
<path d="M25.4908 13.9309
L25.6118 13.8099
" />
<path d="M25.6118 13.8099
L25.7327 13.7494
" />
<path d="M25.7327 13.7494
L25.9746 13.7494
" />
<path d="M25.9746 13.7494
L26.0956 13.8099
" />
<path d="M26.0956 13.8099
L26.2165 13.9309
" />
<path d="M26.2165 13.9309
L26.2770 14.1728
" />
<path d="M26.2770 14.1728
L26.2770 14.5961
" />
<path d="M26.2770 14.5961
L26.2165 14.8380
" />
<path d="M26.2165 14.8380
L26.0956 14.9590
" />
<path d="M26.0956 14.9590
L25.9746 15.0194
" />
<path d="M25.9746 15.0194
L25.7327 15.0194
" />
<path d="M25.3155 13.3969
L26.3920 13.3969
" />
</g></g>
<g style="fill:#A90000; fill-opacity:0.0; 
stroke:#A90000; stroke-width:0.1524; stroke-opacity:1; 
stroke-linecap:round; stroke-linejoin:round;">
<text x="28.9052" y="14.1859"
textLength="1.4127" font-size="1.6933" lengthAdjust="spacingAndGlyphs"
text-anchor="middle" opacity="0">9</text>
<g class="stroked-text"><desc>9</desc>
<path d="M28.6633 14.0224
L28.9052 14.0224
" />
<path d="M28.9052 14.0224
L29.0262 13.9620
" />
<path d="M29.0262 13.9620
L29.0866 13.9015
" />
<path d="M29.0866 13.9015
L29.2076 13.7200
" />
<path d="M29.2076 13.7200
L29.2681 13.4781
" />
<path d="M29.2681 13.4781
L29.2681 12.9943
" />
<path d="M29.2681 12.9943
L29.2076 12.8734
" />
<path d="M29.2076 12.8734
L29.1471 12.8129
" />
<path d="M29.1471 12.8129
L29.0262 12.7524
" />
<path d="M29.0262 12.7524
L28.7843 12.7524
" />
<path d="M28.7843 12.7524
L28.6633 12.8129
" />
<path d="M28.6633 12.8129
L28.6028 12.8734
" />
<path d="M28.6028 12.8734
L28.5424 12.9943
" />
<path d="M28.5424 12.9943
L28.5424 13.2967
" />
<path d="M28.5424 13.2967
L28.6028 13.4177
" />
<path d="M28.6028 13.4177
L28.6633 13.4781
" />
<path d="M28.6633 13.4781
L28.7843 13.5386
" />
<path d="M28.7843 13.5386
L29.0262 13.5386
" />
<path d="M29.0262 13.5386
L29.1471 13.4781
" />
<path d="M29.1471 13.4781
L29.2076 13.4177
" />
<path d="M29.2076 13.4177
L29.2681 13.2967
" />
</g></g>
<g style="fill:#840084; fill-opacity:0.0; 
stroke:#840084; stroke-width:0.1524; stroke-opacity:1; 
stroke-linecap:round; stroke-linejoin:round;">
</g>
<g style="fill:#006464; fill-opacity:0.0; 
stroke:#006464; stroke-width:0.1524; stroke-opacity:1; 
stroke-linecap:round; stroke-linejoin:round;">
</g>
<g style="fill:#006464; fill-opacity:0.0; 
stroke:#006464; stroke-width:0.1588; stroke-opacity:1; 
stroke-linecap:round; stroke-linejoin:round;">
<text x="14.9352" y="3.6449"
textLength="3.9115" font-size="1.6933" lengthAdjust="spacingAndGlyphs"
text-anchor="middle" opacity="0">U?B</text>
<g class="stroked-text"><desc>U?B</desc>
<path d="M13.3930 2.3191
L13.3930 3.3472
" />
<path d="M13.3930 3.3472
L13.4535 3.4682
" />
<path d="M13.4535 3.4682
L13.5140 3.5287
" />
<path d="M13.5140 3.5287
L13.6349 3.5891
" />
<path d="M13.6349 3.5891
L13.8768 3.5891
" />
<path d="M13.8768 3.5891
L13.9978 3.5287
" />
<path d="M13.9978 3.5287
L14.0583 3.4682
" />
<path d="M14.0583 3.4682
L14.1187 3.3472
" />
<path d="M14.1187 3.3472
L14.1187 2.3191
" />
<path d="M14.9050 3.4682
L14.9654 3.5287
" />
<path d="M14.9654 3.5287
L14.9050 3.5891
" />
<path d="M14.9050 3.5891
L14.8445 3.5287
" />
<path d="M14.8445 3.5287
L14.9050 3.4682
" />
<path d="M14.9050 3.4682
L14.9050 3.5891
" />
<path d="M14.6631 2.3796
L14.7840 2.3191
" />
<path d="M14.7840 2.3191
L15.0864 2.3191
" />
<path d="M15.0864 2.3191
L15.2073 2.3796
" />
<path d="M15.2073 2.3796
L15.2678 2.5006
" />
<path d="M15.2678 2.5006
L15.2678 2.6215
" />
<path d="M15.2678 2.6215
L15.2073 2.7425
" />
<path d="M15.2073 2.7425
L15.1469 2.8029
" />
<path d="M15.1469 2.8029
L15.0259 2.8634
" />
<path d="M15.0259 2.8634
L14.9654 2.9239
" />
<path d="M14.9654 2.9239
L14.9050 3.0448
" />
<path d="M14.9050 3.0448
L14.9050 3.1053
" />
<path d="M16.2355 2.9239
L16.4169 2.9844
" />
<path d="M16.4169 2.9844
L16.4774 3.0448
" />
<path d="M16.4774 3.0448
L16.5378 3.1658
" />
<path d="M16.5378 3.1658
L16.5378 3.3472
" />
<path d="M16.5378 3.3472
L16.4774 3.4682
" />
<path d="M16.4774 3.4682
L16.4169 3.5287
" />
<path d="M16.4169 3.5287
L16.2959 3.5891
" />
<path d="M16.2959 3.5891
L15.8121 3.5891
" />
<path d="M15.8121 3.5891
L15.8121 2.3191
" />
<path d="M15.8121 2.3191
L16.2355 2.3191
" />
<path d="M16.2355 2.3191
L16.3564 2.3796
" />
<path d="M16.3564 2.3796
L16.4169 2.4401
" />
<path d="M16.4169 2.4401
L16.4774 2.5610
" />
<path d="M16.4774 2.5610
L16.4774 2.6820
" />
<path d="M16.4774 2.6820
L16.4169 2.8029
" />
<path d="M16.4169 2.8029
L16.3564 2.8634
" />
<path d="M16.3564 2.8634
L16.2355 2.9239
" />
<path d="M16.2355 2.9239
L15.8121 2.9239
" />
</g><text x="14.9352" y="21.4249"
textLength="8.5075" font-size="1.6933" lengthAdjust="spacingAndGlyphs"
text-anchor="middle" opacity="0">74LS109</text>
<g class="stroked-text"><desc>74LS109</desc>
<path d="M10.9741 20.0991
L11.8207 20.0991
" />
<path d="M11.8207 20.0991
L11.2765 21.3691
" />
<path d="M12.8488 20.5225
L12.8488 21.3691
" />
<path d="M12.5464 20.0387
L12.2441 20.9458
" />
<path d="M12.2441 20.9458
L13.0302 20.9458
" />
<path d="M14.1188 21.3691
L13.5140 21.3691
" />
<path d="M13.5140 21.3691
L13.5140 20.0991
" />
<path d="M14.4817 21.3087
L14.6631 21.3691
" />
<path d="M14.6631 21.3691
L14.9655 21.3691
" />
<path d="M14.9655 21.3691
L15.0864 21.3087
" />
<path d="M15.0864 21.3087
L15.1469 21.2482
" />
<path d="M15.1469 21.2482
L15.2074 21.1272
" />
<path d="M15.2074 21.1272
L15.2074 21.0063
" />
<path d="M15.2074 21.0063
L15.1469 20.8853
" />
<path d="M15.1469 20.8853
L15.0864 20.8248
" />
<path d="M15.0864 20.8248
L14.9655 20.7644
" />
<path d="M14.9655 20.7644
L14.7236 20.7039
" />
<path d="M14.7236 20.7039
L14.6026 20.6434
" />
<path d="M14.6026 20.6434
L14.5421 20.5829
" />
<path d="M14.5421 20.5829
L14.4817 20.4620
" />
<path d="M14.4817 20.4620
L14.4817 20.3410
" />
<path d="M14.4817 20.3410
L14.5421 20.2201
" />
<path d="M14.5421 20.2201
L14.6026 20.1596
" />
<path d="M14.6026 20.1596
L14.7236 20.0991
" />
<path d="M14.7236 20.0991
L15.0259 20.0991
" />
<path d="M15.0259 20.0991
L15.2074 20.1596
" />
<path d="M16.4169 21.3691
L15.6912 21.3691
" />
<path d="M16.0540 21.3691
L16.0540 20.0991
" />
<path d="M16.0540 20.0991
L15.9331 20.2806
" />
<path d="M15.9331 20.2806
L15.8121 20.4015
" />
<path d="M15.8121 20.4015
L15.6912 20.4620
" />
<path d="M17.2030 20.0991
L17.3240 20.0991
" />
<path d="M17.3240 20.0991
L17.4449 20.1596
" />
<path d="M17.4449 20.1596
L17.5054 20.2201
" />
<path d="M17.5054 20.2201
L17.5659 20.3410
" />
<path d="M17.5659 20.3410
L17.6264 20.5829
" />
<path d="M17.6264 20.5829
L17.6264 20.8853
" />
<path d="M17.6264 20.8853
L17.5659 21.1272
" />
<path d="M17.5659 21.1272
L17.5054 21.2482
" />
<path d="M17.5054 21.2482
L17.4449 21.3087
" />
<path d="M17.4449 21.3087
L17.3240 21.3691
" />
<path d="M17.3240 21.3691
L17.2030 21.3691
" />
<path d="M17.2030 21.3691
L17.0821 21.3087
" />
<path d="M17.0821 21.3087
L17.0216 21.2482
" />
<path d="M17.0216 21.2482
L16.9611 21.1272
" />
<path d="M16.9611 21.1272
L16.9007 20.8853
" />
<path d="M16.9007 20.8853
L16.9007 20.5829
" />
<path d="M16.9007 20.5829
L16.9611 20.3410
" />
<path d="M16.9611 20.3410
L17.0216 20.2201
" />
<path d="M17.0216 20.2201
L17.0821 20.1596
" />
<path d="M17.0821 20.1596
L17.2030 20.0991
" />
<path d="M18.2311 21.3691
L18.4730 21.3691
" />
<path d="M18.4730 21.3691
L18.5940 21.3087
" />
<path d="M18.5940 21.3087
L18.6544 21.2482
" />
<path d="M18.6544 21.2482
L18.7754 21.0667
" />
<path d="M18.7754 21.0667
L18.8359 20.8248
" />
<path d="M18.8359 20.8248
L18.8359 20.3410
" />
<path d="M18.8359 20.3410
L18.7754 20.2201
" />
<path d="M18.7754 20.2201
L18.7149 20.1596
" />
<path d="M18.7149 20.1596
L18.5940 20.0991
" />
<path d="M18.5940 20.0991
L18.3521 20.0991
" />
<path d="M18.3521 20.0991
L18.2311 20.1596
" />
<path d="M18.2311 20.1596
L18.1706 20.2201
" />
<path d="M18.1706 20.2201
L18.1102 20.3410
" />
<path d="M18.1102 20.3410
L18.1102 20.6434
" />
<path d="M18.1102 20.6434
L18.1706 20.7644
" />
<path d="M18.1706 20.7644
L18.2311 20.8248
" />
<path d="M18.2311 20.8248
L18.3521 20.8853
" />
<path d="M18.3521 20.8853
L18.5940 20.8853
" />
<path d="M18.5940 20.8853
L18.7149 20.8248
" />
<path d="M18.7149 20.8248
L18.7754 20.7644
" />
<path d="M18.7754 20.7644
L18.8359 20.6434
" />
</g></g> 
</svg>
