<?xml version="1.0" standalone="no"?>
 <!DOCTYPE svg PUBLIC "-//W3C//DTD SVG 1.1//EN" 
 "http://www.w3.org/Graphics/SVG/1.1/DTD/svg11.dtd"> 
<svg
  xmlns:svg="http://www.w3.org/2000/svg"
  xmlns="http://www.w3.org/2000/svg"
  xmlns:xlink="http://www.w3.org/1999/xlink"
  version="1.1"
  width="141.1224mm" height="22.5552mm" viewBox="0.0000 0.0000 141.1224 22.5552">
<title>SVG Image created as bts5014sda.svg date 2024/01/16 15:21:15 </title>
  <desc>Image generated by Eeschema-SVG </desc>
<g style="fill:#000000; fill-opacity:1.0000;stroke:#000000; stroke-opacity:1.0000;
stroke-linecap:round; stroke-linejoin:round;"
 transform="translate(0 0) scale(1 1)">
</g>
<g style="fill:#000000; fill-opacity:0.0; 
stroke:#000000; stroke-width:0.0000; stroke-opacity:1; 
stroke-linecap:round; stroke-linejoin:round;">
</g>
<g style="fill:#000000; fill-opacity:0.0; 
stroke:#000000; stroke-width:0.2540; stroke-opacity:1; 
stroke-linecap:round; stroke-linejoin:round;">
<rect x="65.481200" y="6.197600" width="10.160000" height="10.160000" rx="0.000000" />
</g>
<g style="fill:#000000; fill-opacity:0.0; 
stroke:#000000; stroke-width:0.1524; stroke-opacity:1; 
stroke-linecap:round; stroke-linejoin:round;">
<path d="M75.6412 11.2776
L78.1812 11.2776
" />
<text x="75.1332" y="11.9126"
textLength="3.8318" font-size="1.6933" lengthAdjust="spacingAndGlyphs"
text-anchor="end" opacity="0">OUT</text>
<g class="stroked-text"><desc>OUT</desc>
<path d="M71.9486 10.5871
L72.1905 10.5871
" />
<path d="M72.1905 10.5871
L72.3115 10.6476
" />
<path d="M72.3115 10.6476
L72.4324 10.7686
" />
<path d="M72.4324 10.7686
L72.4929 11.0105
" />
<path d="M72.4929 11.0105
L72.4929 11.4338
" />
<path d="M72.4929 11.4338
L72.4324 11.6757
" />
<path d="M72.4324 11.6757
L72.3115 11.7967
" />
<path d="M72.3115 11.7967
L72.1905 11.8571
" />
<path d="M72.1905 11.8571
L71.9486 11.8571
" />
<path d="M71.9486 11.8571
L71.8277 11.7967
" />
<path d="M71.8277 11.7967
L71.7067 11.6757
" />
<path d="M71.7067 11.6757
L71.6463 11.4338
" />
<path d="M71.6463 11.4338
L71.6463 11.0105
" />
<path d="M71.6463 11.0105
L71.7067 10.7686
" />
<path d="M71.7067 10.7686
L71.8277 10.6476
" />
<path d="M71.8277 10.6476
L71.9486 10.5871
" />
<path d="M73.0372 10.5871
L73.0372 11.6152
" />
<path d="M73.0372 11.6152
L73.0977 11.7362
" />
<path d="M73.0977 11.7362
L73.1582 11.7967
" />
<path d="M73.1582 11.7967
L73.2791 11.8571
" />
<path d="M73.2791 11.8571
L73.5210 11.8571
" />
<path d="M73.5210 11.8571
L73.6420 11.7967
" />
<path d="M73.6420 11.7967
L73.7025 11.7362
" />
<path d="M73.7025 11.7362
L73.7629 11.6152
" />
<path d="M73.7629 11.6152
L73.7629 10.5871
" />
<path d="M74.1863 10.5871
L74.9120 10.5871
" />
<path d="M74.5492 11.8571
L74.5492 10.5871
" />
</g><text x="76.9112" y="11.0236"
textLength="1.4127" font-size="1.6933" lengthAdjust="spacingAndGlyphs"
text-anchor="middle" opacity="0">1</text>
<g class="stroked-text"><desc>1</desc>
<path d="M77.2741 10.8601
L76.5484 10.8601
" />
<path d="M76.9112 10.8601
L76.9112 9.5901
" />
<path d="M76.9112 9.5901
L76.7903 9.7716
" />
<path d="M76.7903 9.7716
L76.6693 9.8925
" />
<path d="M76.6693 9.8925
L76.5484 9.9530
" />
</g><path d="M65.4812 8.7376
L62.9412 8.7376
" />
<text x="65.9892" y="9.3726"
textLength="2.1385" font-size="1.6933" lengthAdjust="spacingAndGlyphs"
text-anchor="start" opacity="0">IN</text>
<g class="stroked-text"><desc>IN</desc>
<path d="M66.3917 9.3171
L66.3917 8.0471
" />
<path d="M66.9965 9.3171
L66.9965 8.0471
" />
<path d="M66.9965 8.0471
L67.7222 9.3171
" />
<path d="M67.7222 9.3171
L67.7222 8.0471
" />
</g><text x="64.2112" y="8.4836"
textLength="1.4127" font-size="1.6933" lengthAdjust="spacingAndGlyphs"
text-anchor="middle" opacity="0">2</text>
<g class="stroked-text"><desc>2</desc>
<path d="M63.8484 7.1711
L63.9088 7.1106
" />
<path d="M63.9088 7.1106
L64.0298 7.0501
" />
<path d="M64.0298 7.0501
L64.3322 7.0501
" />
<path d="M64.3322 7.0501
L64.4531 7.1106
" />
<path d="M64.4531 7.1106
L64.5136 7.1711
" />
<path d="M64.5136 7.1711
L64.5741 7.2920
" />
<path d="M64.5741 7.2920
L64.5741 7.4130
" />
<path d="M64.5741 7.4130
L64.5136 7.5944
" />
<path d="M64.5136 7.5944
L63.7879 8.3201
" />
<path d="M63.7879 8.3201
L64.5741 8.3201
" />
</g><path d="M70.5612 6.1976
L70.5612 3.6576
" />
<g transform="rotate(-90.000000 70.5612 6.7056)">
<text x="70.5612" y="7.3406"
textLength="3.5898" font-size="1.6933" lengthAdjust="spacingAndGlyphs"
text-anchor="end" opacity="0">Vbb</text>
</g>
<g class="stroked-text"><desc>Vbb</desc>
<path d="M69.8707 10.0714
L71.1407 9.6481
" />
<path d="M71.1407 9.6481
L69.8707 9.2247
" />
<path d="M71.1407 8.8014
L69.8707 8.8014
" />
<path d="M70.3545 8.8014
L70.2941 8.6804
" />
<path d="M70.2941 8.6804
L70.2941 8.4385
" />
<path d="M70.2941 8.4385
L70.3545 8.3176
" />
<path d="M70.3545 8.3176
L70.4150 8.2571
" />
<path d="M70.4150 8.2571
L70.5360 8.1966
" />
<path d="M70.5360 8.1966
L70.8988 8.1966
" />
<path d="M70.8988 8.1966
L71.0198 8.2571
" />
<path d="M71.0198 8.2571
L71.0803 8.3176
" />
<path d="M71.0803 8.3176
L71.1407 8.4385
" />
<path d="M71.1407 8.4385
L71.1407 8.6804
" />
<path d="M71.1407 8.6804
L71.0803 8.8014
" />
<path d="M71.1407 7.6524
L69.8707 7.6524
" />
<path d="M70.3545 7.6524
L70.2941 7.5314
" />
<path d="M70.2941 7.5314
L70.2941 7.2895
" />
<path d="M70.2941 7.2895
L70.3545 7.1686
" />
<path d="M70.3545 7.1686
L70.4150 7.1081
" />
<path d="M70.4150 7.1081
L70.5360 7.0476
" />
<path d="M70.5360 7.0476
L70.8988 7.0476
" />
<path d="M70.8988 7.0476
L71.0198 7.1081
" />
<path d="M71.0198 7.1081
L71.0803 7.1686
" />
<path d="M71.0803 7.1686
L71.1407 7.2895
" />
<path d="M71.1407 7.2895
L71.1407 7.5314
" />
<path d="M71.1407 7.5314
L71.0803 7.6524
" />
</g><g transform="rotate(-90.000000 70.3072 4.9276)">
<text x="70.3072" y="4.9276"
textLength="1.4127" font-size="1.6933" lengthAdjust="spacingAndGlyphs"
text-anchor="middle" opacity="0">3</text>
</g>
<g class="stroked-text"><desc>3</desc>
<path d="M68.8737 5.3508
L68.8737 4.5646
" />
<path d="M68.8737 4.5646
L69.3575 4.9880
" />
<path d="M69.3575 4.9880
L69.3575 4.8065
" />
<path d="M69.3575 4.8065
L69.4180 4.6856
" />
<path d="M69.4180 4.6856
L69.4785 4.6251
" />
<path d="M69.4785 4.6251
L69.5994 4.5646
" />
<path d="M69.5994 4.5646
L69.9018 4.5646
" />
<path d="M69.9018 4.5646
L70.0228 4.6251
" />
<path d="M70.0228 4.6251
L70.0833 4.6856
" />
<path d="M70.0833 4.6856
L70.1437 4.8065
" />
<path d="M70.1437 4.8065
L70.1437 5.1694
" />
<path d="M70.1437 5.1694
L70.0833 5.2903
" />
<path d="M70.0833 5.2903
L70.0228 5.3508
" />
</g><path d="M65.4812 13.8176
L62.9412 13.8176
" />
<text x="65.9892" y="14.4526"
textLength="2.0175" font-size="1.6933" lengthAdjust="spacingAndGlyphs"
text-anchor="start" opacity="0">IS</text>
<g class="stroked-text"><desc>IS</desc>
<path d="M66.3917 14.3971
L66.3917 13.1271
" />
<path d="M66.9361 14.3367
L67.1175 14.3971
" />
<path d="M67.1175 14.3971
L67.4199 14.3971
" />
<path d="M67.4199 14.3971
L67.5408 14.3367
" />
<path d="M67.5408 14.3367
L67.6013 14.2762
" />
<path d="M67.6013 14.2762
L67.6618 14.1552
" />
<path d="M67.6618 14.1552
L67.6618 14.0343
" />
<path d="M67.6618 14.0343
L67.6013 13.9133
" />
<path d="M67.6013 13.9133
L67.5408 13.8528
" />
<path d="M67.5408 13.8528
L67.4199 13.7924
" />
<path d="M67.4199 13.7924
L67.1780 13.7319
" />
<path d="M67.1780 13.7319
L67.0570 13.6714
" />
<path d="M67.0570 13.6714
L66.9965 13.6109
" />
<path d="M66.9965 13.6109
L66.9361 13.4900
" />
<path d="M66.9361 13.4900
L66.9361 13.3690
" />
<path d="M66.9361 13.3690
L66.9965 13.2481
" />
<path d="M66.9965 13.2481
L67.0570 13.1876
" />
<path d="M67.0570 13.1876
L67.1780 13.1271
" />
<path d="M67.1780 13.1271
L67.4803 13.1271
" />
<path d="M67.4803 13.1271
L67.6618 13.1876
" />
</g><text x="64.2112" y="13.5636"
textLength="1.4127" font-size="1.6933" lengthAdjust="spacingAndGlyphs"
text-anchor="middle" opacity="0">4</text>
<g class="stroked-text"><desc>4</desc>
<path d="M64.4531 12.5535
L64.4531 13.4001
" />
<path d="M64.1507 12.0697
L63.8484 12.9768
" />
<path d="M63.8484 12.9768
L64.6345 12.9768
" />
</g></g>
<g style="fill:#000000; fill-opacity:0.0; 
stroke:#000000; stroke-width:0.1588; stroke-opacity:1; 
stroke-linecap:round; stroke-linejoin:round;">
<text x="65.4812" y="5.5626"
textLength="2.6415" font-size="1.6933" lengthAdjust="spacingAndGlyphs"
text-anchor="middle" opacity="0">U?</text>
<g class="stroked-text"><desc>U?</desc>
<path d="M64.5740 4.2368
L64.5740 5.2649
" />
<path d="M64.5740 5.2649
L64.6345 5.3859
" />
<path d="M64.6345 5.3859
L64.6950 5.4464
" />
<path d="M64.6950 5.4464
L64.8159 5.5068
" />
<path d="M64.8159 5.5068
L65.0578 5.5068
" />
<path d="M65.0578 5.5068
L65.1788 5.4464
" />
<path d="M65.1788 5.4464
L65.2393 5.3859
" />
<path d="M65.2393 5.3859
L65.2997 5.2649
" />
<path d="M65.2997 5.2649
L65.2997 4.2368
" />
<path d="M66.0860 5.3859
L66.1464 5.4464
" />
<path d="M66.1464 5.4464
L66.0860 5.5068
" />
<path d="M66.0860 5.5068
L66.0255 5.4464
" />
<path d="M66.0255 5.4464
L66.0860 5.3859
" />
<path d="M66.0860 5.3859
L66.0860 5.5068
" />
<path d="M65.8441 4.2973
L65.9650 4.2368
" />
<path d="M65.9650 4.2368
L66.2674 4.2368
" />
<path d="M66.2674 4.2368
L66.3883 4.2973
" />
<path d="M66.3883 4.2973
L66.4488 4.4183
" />
<path d="M66.4488 4.4183
L66.4488 4.5392
" />
<path d="M66.4488 4.5392
L66.3883 4.6602
" />
<path d="M66.3883 4.6602
L66.3279 4.7206
" />
<path d="M66.3279 4.7206
L66.2069 4.7811
" />
<path d="M66.2069 4.7811
L66.1464 4.8416
" />
<path d="M66.1464 4.8416
L66.0860 4.9625
" />
<path d="M66.0860 4.9625
L66.0860 5.0230
" />
</g><text x="79.4512" y="5.5626"
textLength="12.0756" font-size="1.6933" lengthAdjust="spacingAndGlyphs"
text-anchor="middle" opacity="0">BTS5014SDA</text>
<g class="stroked-text"><desc>BTS5014SDA</desc>
<path d="M74.2503 4.8416
L74.4317 4.9021
" />
<path d="M74.4317 4.9021
L74.4922 4.9625
" />
<path d="M74.4922 4.9625
L74.5526 5.0835
" />
<path d="M74.5526 5.0835
L74.5526 5.2649
" />
<path d="M74.5526 5.2649
L74.4922 5.3859
" />
<path d="M74.4922 5.3859
L74.4317 5.4464
" />
<path d="M74.4317 5.4464
L74.3107 5.5068
" />
<path d="M74.3107 5.5068
L73.8269 5.5068
" />
<path d="M73.8269 5.5068
L73.8269 4.2368
" />
<path d="M73.8269 4.2368
L74.2503 4.2368
" />
<path d="M74.2503 4.2368
L74.3712 4.2973
" />
<path d="M74.3712 4.2973
L74.4317 4.3578
" />
<path d="M74.4317 4.3578
L74.4922 4.4787
" />
<path d="M74.4922 4.4787
L74.4922 4.5997
" />
<path d="M74.4922 4.5997
L74.4317 4.7206
" />
<path d="M74.4317 4.7206
L74.3712 4.7811
" />
<path d="M74.3712 4.7811
L74.2503 4.8416
" />
<path d="M74.2503 4.8416
L73.8269 4.8416
" />
<path d="M74.9155 4.2368
L75.6412 4.2368
" />
<path d="M75.2784 5.5068
L75.2784 4.2368
" />
<path d="M76.0041 5.4464
L76.1855 5.5068
" />
<path d="M76.1855 5.5068
L76.4879 5.5068
" />
<path d="M76.4879 5.5068
L76.6088 5.4464
" />
<path d="M76.6088 5.4464
L76.6693 5.3859
" />
<path d="M76.6693 5.3859
L76.7298 5.2649
" />
<path d="M76.7298 5.2649
L76.7298 5.1440
" />
<path d="M76.7298 5.1440
L76.6693 5.0230
" />
<path d="M76.6693 5.0230
L76.6088 4.9625
" />
<path d="M76.6088 4.9625
L76.4879 4.9021
" />
<path d="M76.4879 4.9021
L76.2460 4.8416
" />
<path d="M76.2460 4.8416
L76.1250 4.7811
" />
<path d="M76.1250 4.7811
L76.0645 4.7206
" />
<path d="M76.0645 4.7206
L76.0041 4.5997
" />
<path d="M76.0041 4.5997
L76.0041 4.4787
" />
<path d="M76.0041 4.4787
L76.0645 4.3578
" />
<path d="M76.0645 4.3578
L76.1250 4.2973
" />
<path d="M76.1250 4.2973
L76.2460 4.2368
" />
<path d="M76.2460 4.2368
L76.5483 4.2368
" />
<path d="M76.5483 4.2368
L76.7298 4.2973
" />
<path d="M77.8788 4.2368
L77.2740 4.2368
" />
<path d="M77.2740 4.2368
L77.2136 4.8416
" />
<path d="M77.2136 4.8416
L77.2740 4.7811
" />
<path d="M77.2740 4.7811
L77.3950 4.7206
" />
<path d="M77.3950 4.7206
L77.6974 4.7206
" />
<path d="M77.6974 4.7206
L77.8183 4.7811
" />
<path d="M77.8183 4.7811
L77.8788 4.8416
" />
<path d="M77.8788 4.8416
L77.9393 4.9625
" />
<path d="M77.9393 4.9625
L77.9393 5.2649
" />
<path d="M77.9393 5.2649
L77.8788 5.3859
" />
<path d="M77.8788 5.3859
L77.8183 5.4464
" />
<path d="M77.8183 5.4464
L77.6974 5.5068
" />
<path d="M77.6974 5.5068
L77.3950 5.5068
" />
<path d="M77.3950 5.5068
L77.2740 5.4464
" />
<path d="M77.2740 5.4464
L77.2136 5.3859
" />
<path d="M78.7254 4.2368
L78.8464 4.2368
" />
<path d="M78.8464 4.2368
L78.9673 4.2973
" />
<path d="M78.9673 4.2973
L79.0278 4.3578
" />
<path d="M79.0278 4.3578
L79.0883 4.4787
" />
<path d="M79.0883 4.4787
L79.1488 4.7206
" />
<path d="M79.1488 4.7206
L79.1488 5.0230
" />
<path d="M79.1488 5.0230
L79.0883 5.2649
" />
<path d="M79.0883 5.2649
L79.0278 5.3859
" />
<path d="M79.0278 5.3859
L78.9673 5.4464
" />
<path d="M78.9673 5.4464
L78.8464 5.5068
" />
<path d="M78.8464 5.5068
L78.7254 5.5068
" />
<path d="M78.7254 5.5068
L78.6045 5.4464
" />
<path d="M78.6045 5.4464
L78.5440 5.3859
" />
<path d="M78.5440 5.3859
L78.4835 5.2649
" />
<path d="M78.4835 5.2649
L78.4231 5.0230
" />
<path d="M78.4231 5.0230
L78.4231 4.7206
" />
<path d="M78.4231 4.7206
L78.4835 4.4787
" />
<path d="M78.4835 4.4787
L78.5440 4.3578
" />
<path d="M78.5440 4.3578
L78.6045 4.2973
" />
<path d="M78.6045 4.2973
L78.7254 4.2368
" />
<path d="M80.3583 5.5068
L79.6326 5.5068
" />
<path d="M79.9954 5.5068
L79.9954 4.2368
" />
<path d="M79.9954 4.2368
L79.8745 4.4183
" />
<path d="M79.8745 4.4183
L79.7535 4.5392
" />
<path d="M79.7535 4.5392
L79.6326 4.5997
" />
<path d="M81.4468 4.6602
L81.4468 5.5068
" />
<path d="M81.1444 4.1764
L80.8421 5.0835
" />
<path d="M80.8421 5.0835
L81.6282 5.0835
" />
<path d="M82.0516 5.4464
L82.2330 5.5068
" />
<path d="M82.2330 5.5068
L82.5354 5.5068
" />
<path d="M82.5354 5.5068
L82.6563 5.4464
" />
<path d="M82.6563 5.4464
L82.7168 5.3859
" />
<path d="M82.7168 5.3859
L82.7773 5.2649
" />
<path d="M82.7773 5.2649
L82.7773 5.1440
" />
<path d="M82.7773 5.1440
L82.7168 5.0230
" />
<path d="M82.7168 5.0230
L82.6563 4.9625
" />
<path d="M82.6563 4.9625
L82.5354 4.9021
" />
<path d="M82.5354 4.9021
L82.2935 4.8416
" />
<path d="M82.2935 4.8416
L82.1725 4.7811
" />
<path d="M82.1725 4.7811
L82.1120 4.7206
" />
<path d="M82.1120 4.7206
L82.0516 4.5997
" />
<path d="M82.0516 4.5997
L82.0516 4.4787
" />
<path d="M82.0516 4.4787
L82.1120 4.3578
" />
<path d="M82.1120 4.3578
L82.1725 4.2973
" />
<path d="M82.1725 4.2973
L82.2935 4.2368
" />
<path d="M82.2935 4.2368
L82.5958 4.2368
" />
<path d="M82.5958 4.2368
L82.7773 4.2973
" />
<path d="M83.3215 5.5068
L83.3215 4.2368
" />
<path d="M83.3215 4.2368
L83.6239 4.2368
" />
<path d="M83.6239 4.2368
L83.8053 4.2973
" />
<path d="M83.8053 4.2973
L83.9263 4.4183
" />
<path d="M83.9263 4.4183
L83.9868 4.5392
" />
<path d="M83.9868 4.5392
L84.0472 4.7811
" />
<path d="M84.0472 4.7811
L84.0472 4.9625
" />
<path d="M84.0472 4.9625
L83.9868 5.2044
" />
<path d="M83.9868 5.2044
L83.9263 5.3254
" />
<path d="M83.9263 5.3254
L83.8053 5.4464
" />
<path d="M83.8053 5.4464
L83.6239 5.5068
" />
<path d="M83.6239 5.5068
L83.3215 5.5068
" />
<path d="M84.5311 5.1440
L85.1358 5.1440
" />
<path d="M84.4101 5.5068
L84.8334 4.2368
" />
<path d="M84.8334 4.2368
L85.2568 5.5068
" />
</g></g> 
</svg>
