<?xml version="1.0" standalone="no"?>
 <!DOCTYPE svg PUBLIC "-//W3C//DTD SVG 1.1//EN" 
 "http://www.w3.org/Graphics/SVG/1.1/DTD/svg11.dtd"> 
<svg
  xmlns:svg="http://www.w3.org/2000/svg"
  xmlns="http://www.w3.org/2000/svg"
  xmlns:xlink="http://www.w3.org/1999/xlink"
  version="1.1"
  width="111.5060mm" height="59.8932mm" viewBox="0.0000 0.0000 111.5060 59.8932">
<title>SVG Image created as irs2093m_1.svg date 2024/01/16 15:08:51 </title>
  <desc>Image generated by Eeschema-SVG </desc>
<g style="fill:#000000; fill-opacity:1.0000;stroke:#000000; stroke-opacity:1.0000;
stroke-linecap:round; stroke-linejoin:round;"
 transform="translate(0 0) scale(1 1)">
</g>
<g style="fill:#840000; fill-opacity:0.0; 
stroke:#840000; stroke-width:0.0000; stroke-opacity:1; 
stroke-linecap:round; stroke-linejoin:round;">
</g>
<g style="fill:#FFFFC2; fill-opacity:0.0; 
stroke:#FFFFC2; stroke-width:0.0000; stroke-opacity:1; 
stroke-linecap:round; stroke-linejoin:round;">
</g>
<g style="fill:#FFFFC2; fill-opacity:1.0000; 
stroke:#FFFFC2; stroke-width:0.0000; stroke-opacity:1; 
stroke-linecap:round; stroke-linejoin:round;">
<rect x="48.133000" y="7.086600" width="15.240000" height="43.180000" rx="0.000000" />
</g>
<g style="fill:#840084; fill-opacity:1.0000; 
stroke:#840084; stroke-width:0.0000; stroke-opacity:1; 
stroke-linecap:round; stroke-linejoin:round;">
</g>
<g style="fill:#840000; fill-opacity:1.0000; 
stroke:#840000; stroke-width:0.0000; stroke-opacity:1; 
stroke-linecap:round; stroke-linejoin:round;">
</g>
<g style="fill:#840000; fill-opacity:0.0; 
stroke:#840000; stroke-width:0.2540; stroke-opacity:1; 
stroke-linecap:round; stroke-linejoin:round;">
<rect x="48.133000" y="7.086600" width="15.240000" height="43.180000" rx="0.000000" />
</g>
<g style="fill:#840000; fill-opacity:0.0; 
stroke:#840000; stroke-width:0.1524; stroke-opacity:1; 
stroke-linecap:round; stroke-linejoin:round;">
<path d="M48.1330 22.3266
L45.5930 22.3266
" />
</g>
<g style="fill:#006464; fill-opacity:0.0; 
stroke:#006464; stroke-width:0.1524; stroke-opacity:1; 
stroke-linecap:round; stroke-linejoin:round;">
<text x="48.6410" y="22.9616"
textLength="2.6827" font-size="1.6933" lengthAdjust="spacingAndGlyphs"
text-anchor="start" opacity="0">DS</text>
<g class="stroked-text"><desc>DS</desc>
<path d="M49.0435 22.9061
L49.0435 21.6361
" />
<path d="M49.0435 21.6361
L49.3459 21.6361
" />
<path d="M49.3459 21.6361
L49.5273 21.6966
" />
<path d="M49.5273 21.6966
L49.6483 21.8176
" />
<path d="M49.6483 21.8176
L49.7088 21.9385
" />
<path d="M49.7088 21.9385
L49.7692 22.1804
" />
<path d="M49.7692 22.1804
L49.7692 22.3618
" />
<path d="M49.7692 22.3618
L49.7088 22.6037
" />
<path d="M49.7088 22.6037
L49.6483 22.7247
" />
<path d="M49.6483 22.7247
L49.5273 22.8457
" />
<path d="M49.5273 22.8457
L49.3459 22.9061
" />
<path d="M49.3459 22.9061
L49.0435 22.9061
" />
<path d="M50.2531 22.8457
L50.4345 22.9061
" />
<path d="M50.4345 22.9061
L50.7369 22.9061
" />
<path d="M50.7369 22.9061
L50.8578 22.8457
" />
<path d="M50.8578 22.8457
L50.9183 22.7852
" />
<path d="M50.9183 22.7852
L50.9788 22.6642
" />
<path d="M50.9788 22.6642
L50.9788 22.5433
" />
<path d="M50.9788 22.5433
L50.9183 22.4223
" />
<path d="M50.9183 22.4223
L50.8578 22.3618
" />
<path d="M50.8578 22.3618
L50.7369 22.3014
" />
<path d="M50.7369 22.3014
L50.4950 22.2409
" />
<path d="M50.4950 22.2409
L50.3740 22.1804
" />
<path d="M50.3740 22.1804
L50.3135 22.1199
" />
<path d="M50.3135 22.1199
L50.2531 21.9990
" />
<path d="M50.2531 21.9990
L50.2531 21.8780
" />
<path d="M50.2531 21.8780
L50.3135 21.7571
" />
<path d="M50.3135 21.7571
L50.3740 21.6966
" />
<path d="M50.3740 21.6966
L50.4950 21.6361
" />
<path d="M50.4950 21.6361
L50.7973 21.6361
" />
<path d="M50.7973 21.6361
L50.9788 21.6966
" />
</g></g>
<g style="fill:#A90000; fill-opacity:0.0; 
stroke:#A90000; stroke-width:0.1524; stroke-opacity:1; 
stroke-linecap:round; stroke-linejoin:round;">
<text x="46.8630" y="22.0726"
textLength="1.4127" font-size="1.6933" lengthAdjust="spacingAndGlyphs"
text-anchor="middle" opacity="0">1</text>
<g class="stroked-text"><desc>1</desc>
<path d="M47.2259 21.9091
L46.5002 21.9091
" />
<path d="M46.8630 21.9091
L46.8630 20.6391
" />
<path d="M46.8630 20.6391
L46.7421 20.8206
" />
<path d="M46.7421 20.8206
L46.6211 20.9415
" />
<path d="M46.6211 20.9415
L46.5002 21.0020
" />
</g></g>
<g style="fill:#840000; fill-opacity:0.0; 
stroke:#840000; stroke-width:0.1524; stroke-opacity:1; 
stroke-linecap:round; stroke-linejoin:round;">
<path d="M63.3730 24.8666
L65.9130 24.8666
" />
</g>
<g style="fill:#006464; fill-opacity:0.0; 
stroke:#006464; stroke-width:0.1524; stroke-opacity:1; 
stroke-linecap:round; stroke-linejoin:round;">
<text x="62.8650" y="25.5016"
textLength="3.7108" font-size="1.6933" lengthAdjust="spacingAndGlyphs"
text-anchor="end" opacity="0">VS1</text>
<g class="stroked-text"><desc>VS1</desc>
<path d="M59.3781 24.1761
L59.8014 25.4461
" />
<path d="M59.8014 25.4461
L60.2248 24.1761
" />
<path d="M60.5877 25.3857
L60.7691 25.4461
" />
<path d="M60.7691 25.4461
L61.0715 25.4461
" />
<path d="M61.0715 25.4461
L61.1924 25.3857
" />
<path d="M61.1924 25.3857
L61.2529 25.3252
" />
<path d="M61.2529 25.3252
L61.3134 25.2042
" />
<path d="M61.3134 25.2042
L61.3134 25.0833
" />
<path d="M61.3134 25.0833
L61.2529 24.9623
" />
<path d="M61.2529 24.9623
L61.1924 24.9018
" />
<path d="M61.1924 24.9018
L61.0715 24.8414
" />
<path d="M61.0715 24.8414
L60.8296 24.7809
" />
<path d="M60.8296 24.7809
L60.7086 24.7204
" />
<path d="M60.7086 24.7204
L60.6481 24.6599
" />
<path d="M60.6481 24.6599
L60.5877 24.5390
" />
<path d="M60.5877 24.5390
L60.5877 24.4180
" />
<path d="M60.5877 24.4180
L60.6481 24.2971
" />
<path d="M60.6481 24.2971
L60.7086 24.2366
" />
<path d="M60.7086 24.2366
L60.8296 24.1761
" />
<path d="M60.8296 24.1761
L61.1319 24.1761
" />
<path d="M61.1319 24.1761
L61.3134 24.2366
" />
<path d="M62.5229 25.4461
L61.7972 25.4461
" />
<path d="M62.1600 25.4461
L62.1600 24.1761
" />
<path d="M62.1600 24.1761
L62.0391 24.3576
" />
<path d="M62.0391 24.3576
L61.9181 24.4785
" />
<path d="M61.9181 24.4785
L61.7972 24.5390
" />
</g></g>
<g style="fill:#A90000; fill-opacity:0.0; 
stroke:#A90000; stroke-width:0.1524; stroke-opacity:1; 
stroke-linecap:round; stroke-linejoin:round;">
<text x="64.6430" y="24.6126"
textLength="2.6222" font-size="1.6933" lengthAdjust="spacingAndGlyphs"
text-anchor="middle" opacity="0">11</text>
<g class="stroked-text"><desc>11</desc>
<path d="M64.4011 24.4491
L63.6754 24.4491
" />
<path d="M64.0382 24.4491
L64.0382 23.1791
" />
<path d="M64.0382 23.1791
L63.9173 23.3606
" />
<path d="M63.9173 23.3606
L63.7963 23.4815
" />
<path d="M63.7963 23.4815
L63.6754 23.5420
" />
<path d="M65.6106 24.4491
L64.8849 24.4491
" />
<path d="M65.2477 24.4491
L65.2477 23.1791
" />
<path d="M65.2477 23.1791
L65.1268 23.3606
" />
<path d="M65.1268 23.3606
L65.0058 23.4815
" />
<path d="M65.0058 23.4815
L64.8849 23.5420
" />
</g></g>
<g style="fill:#840000; fill-opacity:0.0; 
stroke:#840000; stroke-width:0.1524; stroke-opacity:1; 
stroke-linecap:round; stroke-linejoin:round;">
<path d="M63.3730 22.3266
L65.9130 22.3266
" />
</g>
<g style="fill:#006464; fill-opacity:0.0; 
stroke:#006464; stroke-width:0.1524; stroke-opacity:1; 
stroke-linecap:round; stroke-linejoin:round;">
<text x="62.8650" y="22.9616"
textLength="4.0737" font-size="1.6933" lengthAdjust="spacingAndGlyphs"
text-anchor="end" opacity="0">HO1</text>
<g class="stroked-text"><desc>HO1</desc>
<path d="M59.1966 22.9061
L59.1966 21.6361
" />
<path d="M59.1966 22.2409
L59.9223 22.2409
" />
<path d="M59.9223 22.9061
L59.9223 21.6361
" />
<path d="M60.7690 21.6361
L61.0109 21.6361
" />
<path d="M61.0109 21.6361
L61.1319 21.6966
" />
<path d="M61.1319 21.6966
L61.2528 21.8176
" />
<path d="M61.2528 21.8176
L61.3133 22.0595
" />
<path d="M61.3133 22.0595
L61.3133 22.4828
" />
<path d="M61.3133 22.4828
L61.2528 22.7247
" />
<path d="M61.2528 22.7247
L61.1319 22.8457
" />
<path d="M61.1319 22.8457
L61.0109 22.9061
" />
<path d="M61.0109 22.9061
L60.7690 22.9061
" />
<path d="M60.7690 22.9061
L60.6481 22.8457
" />
<path d="M60.6481 22.8457
L60.5271 22.7247
" />
<path d="M60.5271 22.7247
L60.4667 22.4828
" />
<path d="M60.4667 22.4828
L60.4667 22.0595
" />
<path d="M60.4667 22.0595
L60.5271 21.8176
" />
<path d="M60.5271 21.8176
L60.6481 21.6966
" />
<path d="M60.6481 21.6966
L60.7690 21.6361
" />
<path d="M62.5229 22.9061
L61.7972 22.9061
" />
<path d="M62.1600 22.9061
L62.1600 21.6361
" />
<path d="M62.1600 21.6361
L62.0391 21.8176
" />
<path d="M62.0391 21.8176
L61.9181 21.9385
" />
<path d="M61.9181 21.9385
L61.7972 21.9990
" />
</g></g>
<g style="fill:#A90000; fill-opacity:0.0; 
stroke:#A90000; stroke-width:0.1524; stroke-opacity:1; 
stroke-linecap:round; stroke-linejoin:round;">
<text x="64.6430" y="22.0726"
textLength="2.6222" font-size="1.6933" lengthAdjust="spacingAndGlyphs"
text-anchor="middle" opacity="0">12</text>
<g class="stroked-text"><desc>12</desc>
<path d="M64.4011 21.9091
L63.6754 21.9091
" />
<path d="M64.0382 21.9091
L64.0382 20.6391
" />
<path d="M64.0382 20.6391
L63.9173 20.8206
" />
<path d="M63.9173 20.8206
L63.7963 20.9415
" />
<path d="M63.7963 20.9415
L63.6754 21.0020
" />
<path d="M64.8849 20.7601
L64.9453 20.6996
" />
<path d="M64.9453 20.6996
L65.0663 20.6391
" />
<path d="M65.0663 20.6391
L65.3687 20.6391
" />
<path d="M65.3687 20.6391
L65.4896 20.6996
" />
<path d="M65.4896 20.6996
L65.5501 20.7601
" />
<path d="M65.5501 20.7601
L65.6106 20.8810
" />
<path d="M65.6106 20.8810
L65.6106 21.0020
" />
<path d="M65.6106 21.0020
L65.5501 21.1834
" />
<path d="M65.5501 21.1834
L64.8244 21.9091
" />
<path d="M64.8244 21.9091
L65.6106 21.9091
" />
</g></g>
<g style="fill:#840000; fill-opacity:0.0; 
stroke:#840000; stroke-width:0.1524; stroke-opacity:1; 
stroke-linecap:round; stroke-linejoin:round;">
<path d="M63.3730 12.1666
L65.9130 12.1666
" />
</g>
<g style="fill:#006464; fill-opacity:0.0; 
stroke:#006464; stroke-width:0.1524; stroke-opacity:1; 
stroke-linecap:round; stroke-linejoin:round;">
<text x="62.8650" y="12.8016"
textLength="3.7713" font-size="1.6933" lengthAdjust="spacingAndGlyphs"
text-anchor="end" opacity="0">VB1</text>
<g class="stroked-text"><desc>VB1</desc>
<path d="M59.3176 11.4761
L59.7409 12.7461
" />
<path d="M59.7409 12.7461
L60.1643 11.4761
" />
<path d="M61.0110 12.0809
L61.1924 12.1414
" />
<path d="M61.1924 12.1414
L61.2529 12.2018
" />
<path d="M61.2529 12.2018
L61.3133 12.3228
" />
<path d="M61.3133 12.3228
L61.3133 12.5042
" />
<path d="M61.3133 12.5042
L61.2529 12.6252
" />
<path d="M61.2529 12.6252
L61.1924 12.6857
" />
<path d="M61.1924 12.6857
L61.0714 12.7461
" />
<path d="M61.0714 12.7461
L60.5876 12.7461
" />
<path d="M60.5876 12.7461
L60.5876 11.4761
" />
<path d="M60.5876 11.4761
L61.0110 11.4761
" />
<path d="M61.0110 11.4761
L61.1319 11.5366
" />
<path d="M61.1319 11.5366
L61.1924 11.5971
" />
<path d="M61.1924 11.5971
L61.2529 11.7180
" />
<path d="M61.2529 11.7180
L61.2529 11.8390
" />
<path d="M61.2529 11.8390
L61.1924 11.9599
" />
<path d="M61.1924 11.9599
L61.1319 12.0204
" />
<path d="M61.1319 12.0204
L61.0110 12.0809
" />
<path d="M61.0110 12.0809
L60.5876 12.0809
" />
<path d="M62.5229 12.7461
L61.7972 12.7461
" />
<path d="M62.1600 12.7461
L62.1600 11.4761
" />
<path d="M62.1600 11.4761
L62.0391 11.6576
" />
<path d="M62.0391 11.6576
L61.9181 11.7785
" />
<path d="M61.9181 11.7785
L61.7972 11.8390
" />
</g></g>
<g style="fill:#A90000; fill-opacity:0.0; 
stroke:#A90000; stroke-width:0.1524; stroke-opacity:1; 
stroke-linecap:round; stroke-linejoin:round;">
<text x="64.6430" y="11.9126"
textLength="2.6222" font-size="1.6933" lengthAdjust="spacingAndGlyphs"
text-anchor="middle" opacity="0">13</text>
<g class="stroked-text"><desc>13</desc>
<path d="M64.4011 11.7491
L63.6754 11.7491
" />
<path d="M64.0382 11.7491
L64.0382 10.4791
" />
<path d="M64.0382 10.4791
L63.9173 10.6606
" />
<path d="M63.9173 10.6606
L63.7963 10.7815
" />
<path d="M63.7963 10.7815
L63.6754 10.8420
" />
<path d="M64.8244 10.4791
L65.6106 10.4791
" />
<path d="M65.6106 10.4791
L65.1872 10.9629
" />
<path d="M65.1872 10.9629
L65.3687 10.9629
" />
<path d="M65.3687 10.9629
L65.4896 11.0234
" />
<path d="M65.4896 11.0234
L65.5501 11.0839
" />
<path d="M65.5501 11.0839
L65.6106 11.2048
" />
<path d="M65.6106 11.2048
L65.6106 11.5072
" />
<path d="M65.6106 11.5072
L65.5501 11.6282
" />
<path d="M65.5501 11.6282
L65.4896 11.6887
" />
<path d="M65.4896 11.6887
L65.3687 11.7491
" />
<path d="M65.3687 11.7491
L65.0058 11.7491
" />
<path d="M65.0058 11.7491
L64.8849 11.6887
" />
<path d="M64.8849 11.6887
L64.8244 11.6282
" />
</g></g>
<g style="fill:#840000; fill-opacity:0.0; 
stroke:#840000; stroke-width:0.1524; stroke-opacity:1; 
stroke-linecap:round; stroke-linejoin:round;">
<path d="M63.3730 9.6266
L65.9130 9.6266
" />
</g>
<g style="fill:#006464; fill-opacity:0.0; 
stroke:#006464; stroke-width:0.1524; stroke-opacity:1; 
stroke-linecap:round; stroke-linejoin:round;">
<text x="62.8650" y="10.2616"
textLength="5.2227" font-size="1.6933" lengthAdjust="spacingAndGlyphs"
text-anchor="end" opacity="0">CSH1</text>
<g class="stroked-text"><desc>CSH1</desc>
<path d="M58.7733 10.0852
L58.7129 10.1457
" />
<path d="M58.7129 10.1457
L58.5314 10.2061
" />
<path d="M58.5314 10.2061
L58.4105 10.2061
" />
<path d="M58.4105 10.2061
L58.2291 10.1457
" />
<path d="M58.2291 10.1457
L58.1081 10.0247
" />
<path d="M58.1081 10.0247
L58.0476 9.9037
" />
<path d="M58.0476 9.9037
L57.9872 9.6618
" />
<path d="M57.9872 9.6618
L57.9872 9.4804
" />
<path d="M57.9872 9.4804
L58.0476 9.2385
" />
<path d="M58.0476 9.2385
L58.1081 9.1176
" />
<path d="M58.1081 9.1176
L58.2291 8.9966
" />
<path d="M58.2291 8.9966
L58.4105 8.9361
" />
<path d="M58.4105 8.9361
L58.5314 8.9361
" />
<path d="M58.5314 8.9361
L58.7129 8.9966
" />
<path d="M58.7129 8.9966
L58.7733 9.0571
" />
<path d="M59.2572 10.1457
L59.4386 10.2061
" />
<path d="M59.4386 10.2061
L59.7410 10.2061
" />
<path d="M59.7410 10.2061
L59.8619 10.1457
" />
<path d="M59.8619 10.1457
L59.9224 10.0852
" />
<path d="M59.9224 10.0852
L59.9829 9.9642
" />
<path d="M59.9829 9.9642
L59.9829 9.8433
" />
<path d="M59.9829 9.8433
L59.9224 9.7223
" />
<path d="M59.9224 9.7223
L59.8619 9.6618
" />
<path d="M59.8619 9.6618
L59.7410 9.6014
" />
<path d="M59.7410 9.6014
L59.4991 9.5409
" />
<path d="M59.4991 9.5409
L59.3781 9.4804
" />
<path d="M59.3781 9.4804
L59.3176 9.4199
" />
<path d="M59.3176 9.4199
L59.2572 9.2990
" />
<path d="M59.2572 9.2990
L59.2572 9.1780
" />
<path d="M59.2572 9.1780
L59.3176 9.0571
" />
<path d="M59.3176 9.0571
L59.3781 8.9966
" />
<path d="M59.3781 8.9966
L59.4991 8.9361
" />
<path d="M59.4991 8.9361
L59.8014 8.9361
" />
<path d="M59.8014 8.9361
L59.9829 8.9966
" />
<path d="M60.5271 10.2061
L60.5271 8.9361
" />
<path d="M60.5271 9.5409
L61.2528 9.5409
" />
<path d="M61.2528 10.2061
L61.2528 8.9361
" />
<path d="M62.5229 10.2061
L61.7972 10.2061
" />
<path d="M62.1600 10.2061
L62.1600 8.9361
" />
<path d="M62.1600 8.9361
L62.0391 9.1176
" />
<path d="M62.0391 9.1176
L61.9181 9.2385
" />
<path d="M61.9181 9.2385
L61.7972 9.2990
" />
</g></g>
<g style="fill:#A90000; fill-opacity:0.0; 
stroke:#A90000; stroke-width:0.1524; stroke-opacity:1; 
stroke-linecap:round; stroke-linejoin:round;">
<text x="64.6430" y="9.3726"
textLength="2.6222" font-size="1.6933" lengthAdjust="spacingAndGlyphs"
text-anchor="middle" opacity="0">14</text>
<g class="stroked-text"><desc>14</desc>
<path d="M64.4011 9.2091
L63.6754 9.2091
" />
<path d="M64.0382 9.2091
L64.0382 7.9391
" />
<path d="M64.0382 7.9391
L63.9173 8.1206
" />
<path d="M63.9173 8.1206
L63.7963 8.2415
" />
<path d="M63.7963 8.2415
L63.6754 8.3020
" />
<path d="M65.4896 8.3625
L65.4896 9.2091
" />
<path d="M65.1872 7.8787
L64.8849 8.7858
" />
<path d="M64.8849 8.7858
L65.6710 8.7858
" />
</g></g>
<g style="fill:#840000; fill-opacity:0.0; 
stroke:#840000; stroke-width:0.1524; stroke-opacity:1; 
stroke-linecap:round; stroke-linejoin:round;">
<path d="M63.3730 45.1866
L65.9130 45.1866
" />
</g>
<g style="fill:#006464; fill-opacity:0.0; 
stroke:#006464; stroke-width:0.1524; stroke-opacity:1; 
stroke-linecap:round; stroke-linejoin:round;">
<text x="62.8650" y="45.8216"
textLength="3.7713" font-size="1.6933" lengthAdjust="spacingAndGlyphs"
text-anchor="end" opacity="0">LO1</text>
<g class="stroked-text"><desc>LO1</desc>
<path d="M60.1038 45.7661
L59.4990 45.7661
" />
<path d="M59.4990 45.7661
L59.4990 44.4961
" />
<path d="M60.7690 44.4961
L61.0109 44.4961
" />
<path d="M61.0109 44.4961
L61.1319 44.5566
" />
<path d="M61.1319 44.5566
L61.2528 44.6776
" />
<path d="M61.2528 44.6776
L61.3133 44.9195
" />
<path d="M61.3133 44.9195
L61.3133 45.3428
" />
<path d="M61.3133 45.3428
L61.2528 45.5847
" />
<path d="M61.2528 45.5847
L61.1319 45.7057
" />
<path d="M61.1319 45.7057
L61.0109 45.7661
" />
<path d="M61.0109 45.7661
L60.7690 45.7661
" />
<path d="M60.7690 45.7661
L60.6481 45.7057
" />
<path d="M60.6481 45.7057
L60.5271 45.5847
" />
<path d="M60.5271 45.5847
L60.4667 45.3428
" />
<path d="M60.4667 45.3428
L60.4667 44.9195
" />
<path d="M60.4667 44.9195
L60.5271 44.6776
" />
<path d="M60.5271 44.6776
L60.6481 44.5566
" />
<path d="M60.6481 44.5566
L60.7690 44.4961
" />
<path d="M62.5229 45.7661
L61.7972 45.7661
" />
<path d="M62.1600 45.7661
L62.1600 44.4961
" />
<path d="M62.1600 44.4961
L62.0391 44.6776
" />
<path d="M62.0391 44.6776
L61.9181 44.7985
" />
<path d="M61.9181 44.7985
L61.7972 44.8590
" />
</g></g>
<g style="fill:#A90000; fill-opacity:0.0; 
stroke:#A90000; stroke-width:0.1524; stroke-opacity:1; 
stroke-linecap:round; stroke-linejoin:round;">
<text x="64.6430" y="44.9326"
textLength="2.6222" font-size="1.6933" lengthAdjust="spacingAndGlyphs"
text-anchor="middle" opacity="0">15</text>
<g class="stroked-text"><desc>15</desc>
<path d="M64.4011 44.7691
L63.6754 44.7691
" />
<path d="M64.0382 44.7691
L64.0382 43.4991
" />
<path d="M64.0382 43.4991
L63.9173 43.6806
" />
<path d="M63.9173 43.6806
L63.7963 43.8015
" />
<path d="M63.7963 43.8015
L63.6754 43.8620
" />
<path d="M65.5501 43.4991
L64.9453 43.4991
" />
<path d="M64.9453 43.4991
L64.8849 44.1039
" />
<path d="M64.8849 44.1039
L64.9453 44.0434
" />
<path d="M64.9453 44.0434
L65.0663 43.9829
" />
<path d="M65.0663 43.9829
L65.3687 43.9829
" />
<path d="M65.3687 43.9829
L65.4896 44.0434
" />
<path d="M65.4896 44.0434
L65.5501 44.1039
" />
<path d="M65.5501 44.1039
L65.6106 44.2248
" />
<path d="M65.6106 44.2248
L65.6106 44.5272
" />
<path d="M65.6106 44.5272
L65.5501 44.6482
" />
<path d="M65.5501 44.6482
L65.4896 44.7087
" />
<path d="M65.4896 44.7087
L65.3687 44.7691
" />
<path d="M65.3687 44.7691
L65.0663 44.7691
" />
<path d="M65.0663 44.7691
L64.9453 44.7087
" />
<path d="M64.9453 44.7087
L64.8849 44.6482
" />
</g></g>
<g style="fill:#840000; fill-opacity:0.0; 
stroke:#840000; stroke-width:0.1524; stroke-opacity:1; 
stroke-linecap:round; stroke-linejoin:round;">
<path d="M55.7530 50.2666
L55.7530 52.8066
" />
</g>
<g style="fill:#006464; fill-opacity:0.0; 
stroke:#006464; stroke-width:0.1524; stroke-opacity:1; 
stroke-linecap:round; stroke-linejoin:round;">
<g transform="rotate(-90.000000 55.7530 49.7586)">
<text x="55.7530" y="50.3936"
textLength="4.2551" font-size="1.6933" lengthAdjust="spacingAndGlyphs"
text-anchor="start" opacity="0">COM</text>
</g>
<g class="stroked-text"><desc>COM</desc>
<path d="M56.2116 48.6303
L56.2721 48.6907
" />
<path d="M56.2721 48.6907
L56.3325 48.8722
" />
<path d="M56.3325 48.8722
L56.3325 48.9931
" />
<path d="M56.3325 48.9931
L56.2721 49.1745
" />
<path d="M56.2721 49.1745
L56.1511 49.2955
" />
<path d="M56.1511 49.2955
L56.0301 49.3560
" />
<path d="M56.0301 49.3560
L55.7882 49.4164
" />
<path d="M55.7882 49.4164
L55.6068 49.4164
" />
<path d="M55.6068 49.4164
L55.3649 49.3560
" />
<path d="M55.3649 49.3560
L55.2440 49.2955
" />
<path d="M55.2440 49.2955
L55.1230 49.1745
" />
<path d="M55.1230 49.1745
L55.0625 48.9931
" />
<path d="M55.0625 48.9931
L55.0625 48.8722
" />
<path d="M55.0625 48.8722
L55.1230 48.6907
" />
<path d="M55.1230 48.6907
L55.1835 48.6303
" />
<path d="M55.0625 47.8441
L55.0625 47.6022
" />
<path d="M55.0625 47.6022
L55.1230 47.4812
" />
<path d="M55.1230 47.4812
L55.2440 47.3603
" />
<path d="M55.2440 47.3603
L55.4859 47.2998
" />
<path d="M55.4859 47.2998
L55.9092 47.2998
" />
<path d="M55.9092 47.2998
L56.1511 47.3603
" />
<path d="M56.1511 47.3603
L56.2721 47.4812
" />
<path d="M56.2721 47.4812
L56.3325 47.6022
" />
<path d="M56.3325 47.6022
L56.3325 47.8441
" />
<path d="M56.3325 47.8441
L56.2721 47.9650
" />
<path d="M56.2721 47.9650
L56.1511 48.0860
" />
<path d="M56.1511 48.0860
L55.9092 48.1464
" />
<path d="M55.9092 48.1464
L55.4859 48.1464
" />
<path d="M55.4859 48.1464
L55.2440 48.0860
" />
<path d="M55.2440 48.0860
L55.1230 47.9650
" />
<path d="M55.1230 47.9650
L55.0625 47.8441
" />
<path d="M56.3325 46.7555
L55.0625 46.7555
" />
<path d="M55.0625 46.7555
L55.9697 46.3321
" />
<path d="M55.9697 46.3321
L55.0625 45.9088
" />
<path d="M55.0625 45.9088
L56.3325 45.9088
" />
</g></g>
<g style="fill:#A90000; fill-opacity:0.0; 
stroke:#A90000; stroke-width:0.1524; stroke-opacity:1; 
stroke-linecap:round; stroke-linejoin:round;">
<g transform="rotate(-90.000000 55.4990 51.5366)">
<text x="55.4990" y="51.5366"
textLength="2.6222" font-size="1.6933" lengthAdjust="spacingAndGlyphs"
text-anchor="middle" opacity="0">32</text>
</g>
<g class="stroked-text"><desc>32</desc>
<path d="M54.0655 52.5646
L54.0655 51.7784
" />
<path d="M54.0655 51.7784
L54.5493 52.2018
" />
<path d="M54.5493 52.2018
L54.5493 52.0203
" />
<path d="M54.5493 52.0203
L54.6098 51.8994
" />
<path d="M54.6098 51.8994
L54.6703 51.8389
" />
<path d="M54.6703 51.8389
L54.7912 51.7784
" />
<path d="M54.7912 51.7784
L55.0936 51.7784
" />
<path d="M55.0936 51.7784
L55.2146 51.8389
" />
<path d="M55.2146 51.8389
L55.2751 51.8994
" />
<path d="M55.2751 51.8994
L55.3355 52.0203
" />
<path d="M55.3355 52.0203
L55.3355 52.3832
" />
<path d="M55.3355 52.3832
L55.2751 52.5041
" />
<path d="M55.2751 52.5041
L55.2146 52.5646
" />
<path d="M54.1865 51.2946
L54.1260 51.2342
" />
<path d="M54.1260 51.2342
L54.0655 51.1132
" />
<path d="M54.0655 51.1132
L54.0655 50.8108
" />
<path d="M54.0655 50.8108
L54.1260 50.6899
" />
<path d="M54.1260 50.6899
L54.1865 50.6294
" />
<path d="M54.1865 50.6294
L54.3074 50.5689
" />
<path d="M54.3074 50.5689
L54.4284 50.5689
" />
<path d="M54.4284 50.5689
L54.6098 50.6294
" />
<path d="M54.6098 50.6294
L55.3355 51.3551
" />
<path d="M55.3355 51.3551
L55.3355 50.5689
" />
</g></g>
<g style="fill:#840000; fill-opacity:0.0; 
stroke:#840000; stroke-width:0.1524; stroke-opacity:1; 
stroke-linecap:round; stroke-linejoin:round;">
<path d="M63.3730 35.0266
L65.9130 35.0266
" />
</g>
<g style="fill:#006464; fill-opacity:0.0; 
stroke:#006464; stroke-width:0.1524; stroke-opacity:1; 
stroke-linecap:round; stroke-linejoin:round;">
<text x="62.8650" y="35.6616"
textLength="3.8318" font-size="1.6933" lengthAdjust="spacingAndGlyphs"
text-anchor="end" opacity="0">VCC</text>
<g class="stroked-text"><desc>VCC</desc>
<path d="M59.2571 34.3361
L59.6804 35.6061
" />
<path d="M59.6804 35.6061
L60.1038 34.3361
" />
<path d="M61.2528 35.4852
L61.1924 35.5457
" />
<path d="M61.1924 35.5457
L61.0109 35.6061
" />
<path d="M61.0109 35.6061
L60.8900 35.6061
" />
<path d="M60.8900 35.6061
L60.7086 35.5457
" />
<path d="M60.7086 35.5457
L60.5876 35.4247
" />
<path d="M60.5876 35.4247
L60.5271 35.3037
" />
<path d="M60.5271 35.3037
L60.4667 35.0618
" />
<path d="M60.4667 35.0618
L60.4667 34.8804
" />
<path d="M60.4667 34.8804
L60.5271 34.6385
" />
<path d="M60.5271 34.6385
L60.5876 34.5176
" />
<path d="M60.5876 34.5176
L60.7086 34.3966
" />
<path d="M60.7086 34.3966
L60.8900 34.3361
" />
<path d="M60.8900 34.3361
L61.0109 34.3361
" />
<path d="M61.0109 34.3361
L61.1924 34.3966
" />
<path d="M61.1924 34.3966
L61.2528 34.4571
" />
<path d="M62.5228 35.4852
L62.4624 35.5457
" />
<path d="M62.4624 35.5457
L62.2809 35.6061
" />
<path d="M62.2809 35.6061
L62.1600 35.6061
" />
<path d="M62.1600 35.6061
L61.9786 35.5457
" />
<path d="M61.9786 35.5457
L61.8576 35.4247
" />
<path d="M61.8576 35.4247
L61.7971 35.3037
" />
<path d="M61.7971 35.3037
L61.7367 35.0618
" />
<path d="M61.7367 35.0618
L61.7367 34.8804
" />
<path d="M61.7367 34.8804
L61.7971 34.6385
" />
<path d="M61.7971 34.6385
L61.8576 34.5176
" />
<path d="M61.8576 34.5176
L61.9786 34.3966
" />
<path d="M61.9786 34.3966
L62.1600 34.3361
" />
<path d="M62.1600 34.3361
L62.2809 34.3361
" />
<path d="M62.2809 34.3361
L62.4624 34.3966
" />
<path d="M62.4624 34.3966
L62.5228 34.4571
" />
</g></g>
<g style="fill:#A90000; fill-opacity:0.0; 
stroke:#A90000; stroke-width:0.1524; stroke-opacity:1; 
stroke-linecap:round; stroke-linejoin:round;">
<text x="64.6430" y="34.7726"
textLength="2.6222" font-size="1.6933" lengthAdjust="spacingAndGlyphs"
text-anchor="middle" opacity="0">33</text>
<g class="stroked-text"><desc>33</desc>
<path d="M63.6149 33.3391
L64.4011 33.3391
" />
<path d="M64.4011 33.3391
L63.9777 33.8229
" />
<path d="M63.9777 33.8229
L64.1592 33.8229
" />
<path d="M64.1592 33.8229
L64.2801 33.8834
" />
<path d="M64.2801 33.8834
L64.3406 33.9439
" />
<path d="M64.3406 33.9439
L64.4011 34.0648
" />
<path d="M64.4011 34.0648
L64.4011 34.3672
" />
<path d="M64.4011 34.3672
L64.3406 34.4882
" />
<path d="M64.3406 34.4882
L64.2801 34.5487
" />
<path d="M64.2801 34.5487
L64.1592 34.6091
" />
<path d="M64.1592 34.6091
L63.7963 34.6091
" />
<path d="M63.7963 34.6091
L63.6754 34.5487
" />
<path d="M63.6754 34.5487
L63.6149 34.4882
" />
<path d="M64.8244 33.3391
L65.6106 33.3391
" />
<path d="M65.6106 33.3391
L65.1872 33.8229
" />
<path d="M65.1872 33.8229
L65.3687 33.8229
" />
<path d="M65.3687 33.8229
L65.4896 33.8834
" />
<path d="M65.4896 33.8834
L65.5501 33.9439
" />
<path d="M65.5501 33.9439
L65.6106 34.0648
" />
<path d="M65.6106 34.0648
L65.6106 34.3672
" />
<path d="M65.6106 34.3672
L65.5501 34.4882
" />
<path d="M65.5501 34.4882
L65.4896 34.5487
" />
<path d="M65.4896 34.5487
L65.3687 34.6091
" />
<path d="M65.3687 34.6091
L65.0058 34.6091
" />
<path d="M65.0058 34.6091
L64.8849 34.5487
" />
<path d="M64.8849 34.5487
L64.8244 34.4882
" />
</g></g>
<g style="fill:#840000; fill-opacity:0.0; 
stroke:#840000; stroke-width:0.1524; stroke-opacity:1; 
stroke-linecap:round; stroke-linejoin:round;">
<path d="M48.1330 47.7266
L45.5930 47.7266
" />
</g>
<g style="fill:#006464; fill-opacity:0.0; 
stroke:#006464; stroke-width:0.1524; stroke-opacity:1; 
stroke-linecap:round; stroke-linejoin:round;">
<text x="48.6410" y="48.3616"
textLength="2.4408" font-size="1.6933" lengthAdjust="spacingAndGlyphs"
text-anchor="start" opacity="0">DT</text>
<g class="stroked-text"><desc>DT</desc>
<path d="M49.0435 48.3061
L49.0435 47.0361
" />
<path d="M49.0435 47.0361
L49.3459 47.0361
" />
<path d="M49.3459 47.0361
L49.5273 47.0966
" />
<path d="M49.5273 47.0966
L49.6483 47.2176
" />
<path d="M49.6483 47.2176
L49.7088 47.3385
" />
<path d="M49.7088 47.3385
L49.7692 47.5804
" />
<path d="M49.7692 47.5804
L49.7692 47.7618
" />
<path d="M49.7692 47.7618
L49.7088 48.0037
" />
<path d="M49.7088 48.0037
L49.6483 48.1247
" />
<path d="M49.6483 48.1247
L49.5273 48.2457
" />
<path d="M49.5273 48.2457
L49.3459 48.3061
" />
<path d="M49.3459 48.3061
L49.0435 48.3061
" />
<path d="M50.1321 47.0361
L50.8578 47.0361
" />
<path d="M50.4950 48.3061
L50.4950 47.0361
" />
</g></g>
<g style="fill:#A90000; fill-opacity:0.0; 
stroke:#A90000; stroke-width:0.1524; stroke-opacity:1; 
stroke-linecap:round; stroke-linejoin:round;">
<text x="46.8630" y="47.4726"
textLength="2.6222" font-size="1.6933" lengthAdjust="spacingAndGlyphs"
text-anchor="middle" opacity="0">34</text>
<g class="stroked-text"><desc>34</desc>
<path d="M45.8349 46.0391
L46.6211 46.0391
" />
<path d="M46.6211 46.0391
L46.1977 46.5229
" />
<path d="M46.1977 46.5229
L46.3792 46.5229
" />
<path d="M46.3792 46.5229
L46.5001 46.5834
" />
<path d="M46.5001 46.5834
L46.5606 46.6439
" />
<path d="M46.5606 46.6439
L46.6211 46.7648
" />
<path d="M46.6211 46.7648
L46.6211 47.0672
" />
<path d="M46.6211 47.0672
L46.5606 47.1882
" />
<path d="M46.5606 47.1882
L46.5001 47.2487
" />
<path d="M46.5001 47.2487
L46.3792 47.3091
" />
<path d="M46.3792 47.3091
L46.0163 47.3091
" />
<path d="M46.0163 47.3091
L45.8954 47.2487
" />
<path d="M45.8954 47.2487
L45.8349 47.1882
" />
<path d="M47.7096 46.4625
L47.7096 47.3091
" />
<path d="M47.4072 45.9787
L47.1049 46.8858
" />
<path d="M47.1049 46.8858
L47.8910 46.8858
" />
</g></g>
<g style="fill:#840000; fill-opacity:0.0; 
stroke:#840000; stroke-width:0.1524; stroke-opacity:1; 
stroke-linecap:round; stroke-linejoin:round;">
<path d="M48.1330 45.1866
L45.5930 45.1866
" />
</g>
<g style="fill:#006464; fill-opacity:0.0; 
stroke:#006464; stroke-width:0.1524; stroke-opacity:1; 
stroke-linecap:round; stroke-linejoin:round;">
<text x="48.6410" y="45.8216"
textLength="6.1298" font-size="1.6933" lengthAdjust="spacingAndGlyphs"
text-anchor="start" opacity="0">OCSET</text>
<g class="stroked-text"><desc>OCSET</desc>
<path d="M49.2854 44.4961
L49.5273 44.4961
" />
<path d="M49.5273 44.4961
L49.6483 44.5566
" />
<path d="M49.6483 44.5566
L49.7692 44.6776
" />
<path d="M49.7692 44.6776
L49.8297 44.9195
" />
<path d="M49.8297 44.9195
L49.8297 45.3428
" />
<path d="M49.8297 45.3428
L49.7692 45.5847
" />
<path d="M49.7692 45.5847
L49.6483 45.7057
" />
<path d="M49.6483 45.7057
L49.5273 45.7661
" />
<path d="M49.5273 45.7661
L49.2854 45.7661
" />
<path d="M49.2854 45.7661
L49.1645 45.7057
" />
<path d="M49.1645 45.7057
L49.0435 45.5847
" />
<path d="M49.0435 45.5847
L48.9831 45.3428
" />
<path d="M48.9831 45.3428
L48.9831 44.9195
" />
<path d="M48.9831 44.9195
L49.0435 44.6776
" />
<path d="M49.0435 44.6776
L49.1645 44.5566
" />
<path d="M49.1645 44.5566
L49.2854 44.4961
" />
<path d="M51.0997 45.6452
L51.0393 45.7057
" />
<path d="M51.0393 45.7057
L50.8578 45.7661
" />
<path d="M50.8578 45.7661
L50.7369 45.7661
" />
<path d="M50.7369 45.7661
L50.5555 45.7057
" />
<path d="M50.5555 45.7057
L50.4345 45.5847
" />
<path d="M50.4345 45.5847
L50.3740 45.4637
" />
<path d="M50.3740 45.4637
L50.3136 45.2218
" />
<path d="M50.3136 45.2218
L50.3136 45.0404
" />
<path d="M50.3136 45.0404
L50.3740 44.7985
" />
<path d="M50.3740 44.7985
L50.4345 44.6776
" />
<path d="M50.4345 44.6776
L50.5555 44.5566
" />
<path d="M50.5555 44.5566
L50.7369 44.4961
" />
<path d="M50.7369 44.4961
L50.8578 44.4961
" />
<path d="M50.8578 44.4961
L51.0393 44.5566
" />
<path d="M51.0393 44.5566
L51.0997 44.6171
" />
<path d="M51.5836 45.7057
L51.7650 45.7661
" />
<path d="M51.7650 45.7661
L52.0674 45.7661
" />
<path d="M52.0674 45.7661
L52.1883 45.7057
" />
<path d="M52.1883 45.7057
L52.2488 45.6452
" />
<path d="M52.2488 45.6452
L52.3093 45.5242
" />
<path d="M52.3093 45.5242
L52.3093 45.4033
" />
<path d="M52.3093 45.4033
L52.2488 45.2823
" />
<path d="M52.2488 45.2823
L52.1883 45.2218
" />
<path d="M52.1883 45.2218
L52.0674 45.1614
" />
<path d="M52.0674 45.1614
L51.8255 45.1009
" />
<path d="M51.8255 45.1009
L51.7045 45.0404
" />
<path d="M51.7045 45.0404
L51.6440 44.9799
" />
<path d="M51.6440 44.9799
L51.5836 44.8590
" />
<path d="M51.5836 44.8590
L51.5836 44.7380
" />
<path d="M51.5836 44.7380
L51.6440 44.6171
" />
<path d="M51.6440 44.6171
L51.7045 44.5566
" />
<path d="M51.7045 44.5566
L51.8255 44.4961
" />
<path d="M51.8255 44.4961
L52.1278 44.4961
" />
<path d="M52.1278 44.4961
L52.3093 44.5566
" />
<path d="M52.8535 45.1009
L53.2769 45.1009
" />
<path d="M53.4583 45.7661
L52.8535 45.7661
" />
<path d="M52.8535 45.7661
L52.8535 44.4961
" />
<path d="M52.8535 44.4961
L53.4583 44.4961
" />
<path d="M53.8211 44.4961
L54.5468 44.4961
" />
<path d="M54.1840 45.7661
L54.1840 44.4961
" />
</g></g>
<g style="fill:#A90000; fill-opacity:0.0; 
stroke:#A90000; stroke-width:0.1524; stroke-opacity:1; 
stroke-linecap:round; stroke-linejoin:round;">
<text x="46.8630" y="44.9326"
textLength="2.6222" font-size="1.6933" lengthAdjust="spacingAndGlyphs"
text-anchor="middle" opacity="0">35</text>
<g class="stroked-text"><desc>35</desc>
<path d="M45.8349 43.4991
L46.6211 43.4991
" />
<path d="M46.6211 43.4991
L46.1977 43.9829
" />
<path d="M46.1977 43.9829
L46.3792 43.9829
" />
<path d="M46.3792 43.9829
L46.5001 44.0434
" />
<path d="M46.5001 44.0434
L46.5606 44.1039
" />
<path d="M46.5606 44.1039
L46.6211 44.2248
" />
<path d="M46.6211 44.2248
L46.6211 44.5272
" />
<path d="M46.6211 44.5272
L46.5606 44.6482
" />
<path d="M46.5606 44.6482
L46.5001 44.7087
" />
<path d="M46.5001 44.7087
L46.3792 44.7691
" />
<path d="M46.3792 44.7691
L46.0163 44.7691
" />
<path d="M46.0163 44.7691
L45.8954 44.7087
" />
<path d="M45.8954 44.7087
L45.8349 44.6482
" />
<path d="M47.7701 43.4991
L47.1653 43.4991
" />
<path d="M47.1653 43.4991
L47.1049 44.1039
" />
<path d="M47.1049 44.1039
L47.1653 44.0434
" />
<path d="M47.1653 44.0434
L47.2863 43.9829
" />
<path d="M47.2863 43.9829
L47.5887 43.9829
" />
<path d="M47.5887 43.9829
L47.7096 44.0434
" />
<path d="M47.7096 44.0434
L47.7701 44.1039
" />
<path d="M47.7701 44.1039
L47.8306 44.2248
" />
<path d="M47.8306 44.2248
L47.8306 44.5272
" />
<path d="M47.8306 44.5272
L47.7701 44.6482
" />
<path d="M47.7701 44.6482
L47.7096 44.7087
" />
<path d="M47.7096 44.7087
L47.5887 44.7691
" />
<path d="M47.5887 44.7691
L47.2863 44.7691
" />
<path d="M47.2863 44.7691
L47.1653 44.7087
" />
<path d="M47.1653 44.7087
L47.1049 44.6482
" />
</g></g>
<g style="fill:#840000; fill-opacity:0.0; 
stroke:#840000; stroke-width:0.1524; stroke-opacity:1; 
stroke-linecap:round; stroke-linejoin:round;">
<path d="M48.1330 42.6466
L45.5930 42.6466
" />
</g>
<g style="fill:#006464; fill-opacity:0.0; 
stroke:#006464; stroke-width:0.1524; stroke-opacity:1; 
stroke-linecap:round; stroke-linejoin:round;">
<text x="48.6410" y="43.2816"
textLength="4.7994" font-size="1.6933" lengthAdjust="spacingAndGlyphs"
text-anchor="start" opacity="0">VREF</text>
<g class="stroked-text"><desc>VREF</desc>
<path d="M48.8621 41.9561
L49.2854 43.2261
" />
<path d="M49.2854 43.2261
L49.7088 41.9561
" />
<path d="M50.8578 43.2261
L50.4345 42.6214
" />
<path d="M50.1321 43.2261
L50.1321 41.9561
" />
<path d="M50.1321 41.9561
L50.6159 41.9561
" />
<path d="M50.6159 41.9561
L50.7369 42.0166
" />
<path d="M50.7369 42.0166
L50.7974 42.0771
" />
<path d="M50.7974 42.0771
L50.8578 42.1980
" />
<path d="M50.8578 42.1980
L50.8578 42.3795
" />
<path d="M50.8578 42.3795
L50.7974 42.5004
" />
<path d="M50.7974 42.5004
L50.7369 42.5609
" />
<path d="M50.7369 42.5609
L50.6159 42.6214
" />
<path d="M50.6159 42.6214
L50.1321 42.6214
" />
<path d="M51.4021 42.5609
L51.8255 42.5609
" />
<path d="M52.0069 43.2261
L51.4021 43.2261
" />
<path d="M51.4021 43.2261
L51.4021 41.9561
" />
<path d="M51.4021 41.9561
L52.0069 41.9561
" />
<path d="M52.9745 42.5609
L52.5511 42.5609
" />
<path d="M52.5511 43.2261
L52.5511 41.9561
" />
<path d="M52.5511 41.9561
L53.1559 41.9561
" />
</g></g>
<g style="fill:#A90000; fill-opacity:0.0; 
stroke:#A90000; stroke-width:0.1524; stroke-opacity:1; 
stroke-linecap:round; stroke-linejoin:round;">
<text x="46.8630" y="42.3926"
textLength="2.6222" font-size="1.6933" lengthAdjust="spacingAndGlyphs"
text-anchor="middle" opacity="0">36</text>
<g class="stroked-text"><desc>36</desc>
<path d="M45.8349 40.9591
L46.6211 40.9591
" />
<path d="M46.6211 40.9591
L46.1977 41.4429
" />
<path d="M46.1977 41.4429
L46.3792 41.4429
" />
<path d="M46.3792 41.4429
L46.5001 41.5034
" />
<path d="M46.5001 41.5034
L46.5606 41.5639
" />
<path d="M46.5606 41.5639
L46.6211 41.6848
" />
<path d="M46.6211 41.6848
L46.6211 41.9872
" />
<path d="M46.6211 41.9872
L46.5606 42.1082
" />
<path d="M46.5606 42.1082
L46.5001 42.1687
" />
<path d="M46.5001 42.1687
L46.3792 42.2291
" />
<path d="M46.3792 42.2291
L46.0163 42.2291
" />
<path d="M46.0163 42.2291
L45.8954 42.1687
" />
<path d="M45.8954 42.1687
L45.8349 42.1082
" />
<path d="M47.7096 40.9591
L47.4677 40.9591
" />
<path d="M47.4677 40.9591
L47.3468 41.0196
" />
<path d="M47.3468 41.0196
L47.2863 41.0801
" />
<path d="M47.2863 41.0801
L47.1653 41.2615
" />
<path d="M47.1653 41.2615
L47.1049 41.5034
" />
<path d="M47.1049 41.5034
L47.1049 41.9872
" />
<path d="M47.1049 41.9872
L47.1653 42.1082
" />
<path d="M47.1653 42.1082
L47.2258 42.1687
" />
<path d="M47.2258 42.1687
L47.3468 42.2291
" />
<path d="M47.3468 42.2291
L47.5887 42.2291
" />
<path d="M47.5887 42.2291
L47.7096 42.1687
" />
<path d="M47.7096 42.1687
L47.7701 42.1082
" />
<path d="M47.7701 42.1082
L47.8306 41.9872
" />
<path d="M47.8306 41.9872
L47.8306 41.6848
" />
<path d="M47.8306 41.6848
L47.7701 41.5639
" />
<path d="M47.7701 41.5639
L47.7096 41.5034
" />
<path d="M47.7096 41.5034
L47.5887 41.4429
" />
<path d="M47.5887 41.4429
L47.3468 41.4429
" />
<path d="M47.3468 41.4429
L47.2258 41.5034
" />
<path d="M47.2258 41.5034
L47.1653 41.5639
" />
<path d="M47.1653 41.5639
L47.1049 41.6848
" />
</g></g>
<g style="fill:#840000; fill-opacity:0.0; 
stroke:#840000; stroke-width:0.1524; stroke-opacity:1; 
stroke-linecap:round; stroke-linejoin:round;">
<path d="M48.1330 24.8666
L45.5930 24.8666
" />
</g>
<g style="fill:#006464; fill-opacity:0.0; 
stroke:#006464; stroke-width:0.1524; stroke-opacity:1; 
stroke-linecap:round; stroke-linejoin:round;">
<text x="48.6410" y="25.5016"
textLength="4.0737" font-size="1.6933" lengthAdjust="spacingAndGlyphs"
text-anchor="start" opacity="0">GND</text>
<g class="stroked-text"><desc>GND</desc>
<path d="M49.7088 24.2366
L49.5878 24.1761
" />
<path d="M49.5878 24.1761
L49.4064 24.1761
" />
<path d="M49.4064 24.1761
L49.2250 24.2366
" />
<path d="M49.2250 24.2366
L49.1040 24.3576
" />
<path d="M49.1040 24.3576
L49.0435 24.4785
" />
<path d="M49.0435 24.4785
L48.9831 24.7204
" />
<path d="M48.9831 24.7204
L48.9831 24.9018
" />
<path d="M48.9831 24.9018
L49.0435 25.1437
" />
<path d="M49.0435 25.1437
L49.1040 25.2647
" />
<path d="M49.1040 25.2647
L49.2250 25.3857
" />
<path d="M49.2250 25.3857
L49.4064 25.4461
" />
<path d="M49.4064 25.4461
L49.5273 25.4461
" />
<path d="M49.5273 25.4461
L49.7088 25.3857
" />
<path d="M49.7088 25.3857
L49.7692 25.3252
" />
<path d="M49.7692 25.3252
L49.7692 24.9018
" />
<path d="M49.7692 24.9018
L49.5273 24.9018
" />
<path d="M50.3135 25.4461
L50.3135 24.1761
" />
<path d="M50.3135 24.1761
L51.0392 25.4461
" />
<path d="M51.0392 25.4461
L51.0392 24.1761
" />
<path d="M51.6440 25.4461
L51.6440 24.1761
" />
<path d="M51.6440 24.1761
L51.9464 24.1761
" />
<path d="M51.9464 24.1761
L52.1278 24.2366
" />
<path d="M52.1278 24.2366
L52.2488 24.3576
" />
<path d="M52.2488 24.3576
L52.3093 24.4785
" />
<path d="M52.3093 24.4785
L52.3697 24.7204
" />
<path d="M52.3697 24.7204
L52.3697 24.9018
" />
<path d="M52.3697 24.9018
L52.3093 25.1437
" />
<path d="M52.3093 25.1437
L52.2488 25.2647
" />
<path d="M52.2488 25.2647
L52.1278 25.3857
" />
<path d="M52.1278 25.3857
L51.9464 25.4461
" />
<path d="M51.9464 25.4461
L51.6440 25.4461
" />
</g></g>
<g style="fill:#A90000; fill-opacity:0.0; 
stroke:#A90000; stroke-width:0.1524; stroke-opacity:1; 
stroke-linecap:round; stroke-linejoin:round;">
<text x="46.8630" y="24.6126"
textLength="2.6222" font-size="1.6933" lengthAdjust="spacingAndGlyphs"
text-anchor="middle" opacity="0">41</text>
<g class="stroked-text"><desc>41</desc>
<path d="M46.5001 23.6025
L46.5001 24.4491
" />
<path d="M46.1977 23.1187
L45.8954 24.0258
" />
<path d="M45.8954 24.0258
L46.6815 24.0258
" />
<path d="M47.8306 24.4491
L47.1049 24.4491
" />
<path d="M47.4677 24.4491
L47.4677 23.1791
" />
<path d="M47.4677 23.1791
L47.3468 23.3606
" />
<path d="M47.3468 23.3606
L47.2258 23.4815
" />
<path d="M47.2258 23.4815
L47.1049 23.5420
" />
</g></g>
<g style="fill:#840000; fill-opacity:0.0; 
stroke:#840000; stroke-width:0.1524; stroke-opacity:1; 
stroke-linecap:round; stroke-linejoin:round;">
<path d="M48.1330 37.5666
L45.5930 37.5666
" />
</g>
<g style="fill:#006464; fill-opacity:0.0; 
stroke:#006464; stroke-width:0.1524; stroke-opacity:1; 
stroke-linecap:round; stroke-linejoin:round;">
<text x="48.6410" y="38.2016"
textLength="3.7108" font-size="1.6933" lengthAdjust="spacingAndGlyphs"
text-anchor="start" opacity="0">VSS</text>
<g class="stroked-text"><desc>VSS</desc>
<path d="M48.8621 36.8761
L49.2854 38.1461
" />
<path d="M49.2854 38.1461
L49.7088 36.8761
" />
<path d="M50.0717 38.0857
L50.2531 38.1461
" />
<path d="M50.2531 38.1461
L50.5555 38.1461
" />
<path d="M50.5555 38.1461
L50.6764 38.0857
" />
<path d="M50.6764 38.0857
L50.7369 38.0252
" />
<path d="M50.7369 38.0252
L50.7974 37.9042
" />
<path d="M50.7974 37.9042
L50.7974 37.7833
" />
<path d="M50.7974 37.7833
L50.7369 37.6623
" />
<path d="M50.7369 37.6623
L50.6764 37.6018
" />
<path d="M50.6764 37.6018
L50.5555 37.5414
" />
<path d="M50.5555 37.5414
L50.3136 37.4809
" />
<path d="M50.3136 37.4809
L50.1926 37.4204
" />
<path d="M50.1926 37.4204
L50.1321 37.3599
" />
<path d="M50.1321 37.3599
L50.0717 37.2390
" />
<path d="M50.0717 37.2390
L50.0717 37.1180
" />
<path d="M50.0717 37.1180
L50.1321 36.9971
" />
<path d="M50.1321 36.9971
L50.1926 36.9366
" />
<path d="M50.1926 36.9366
L50.3136 36.8761
" />
<path d="M50.3136 36.8761
L50.6159 36.8761
" />
<path d="M50.6159 36.8761
L50.7974 36.9366
" />
<path d="M51.2812 38.0857
L51.4626 38.1461
" />
<path d="M51.4626 38.1461
L51.7650 38.1461
" />
<path d="M51.7650 38.1461
L51.8859 38.0857
" />
<path d="M51.8859 38.0857
L51.9464 38.0252
" />
<path d="M51.9464 38.0252
L52.0069 37.9042
" />
<path d="M52.0069 37.9042
L52.0069 37.7833
" />
<path d="M52.0069 37.7833
L51.9464 37.6623
" />
<path d="M51.9464 37.6623
L51.8859 37.6018
" />
<path d="M51.8859 37.6018
L51.7650 37.5414
" />
<path d="M51.7650 37.5414
L51.5231 37.4809
" />
<path d="M51.5231 37.4809
L51.4021 37.4204
" />
<path d="M51.4021 37.4204
L51.3416 37.3599
" />
<path d="M51.3416 37.3599
L51.2812 37.2390
" />
<path d="M51.2812 37.2390
L51.2812 37.1180
" />
<path d="M51.2812 37.1180
L51.3416 36.9971
" />
<path d="M51.3416 36.9971
L51.4021 36.9366
" />
<path d="M51.4021 36.9366
L51.5231 36.8761
" />
<path d="M51.5231 36.8761
L51.8254 36.8761
" />
<path d="M51.8254 36.8761
L52.0069 36.9366
" />
</g></g>
<g style="fill:#A90000; fill-opacity:0.0; 
stroke:#A90000; stroke-width:0.1524; stroke-opacity:1; 
stroke-linecap:round; stroke-linejoin:round;">
<text x="46.8630" y="37.3126"
textLength="2.6222" font-size="1.6933" lengthAdjust="spacingAndGlyphs"
text-anchor="middle" opacity="0">42</text>
<g class="stroked-text"><desc>42</desc>
<path d="M46.5001 36.3025
L46.5001 37.1491
" />
<path d="M46.1977 35.8187
L45.8954 36.7258
" />
<path d="M45.8954 36.7258
L46.6815 36.7258
" />
<path d="M47.1049 36.0001
L47.1653 35.9396
" />
<path d="M47.1653 35.9396
L47.2863 35.8791
" />
<path d="M47.2863 35.8791
L47.5887 35.8791
" />
<path d="M47.5887 35.8791
L47.7096 35.9396
" />
<path d="M47.7096 35.9396
L47.7701 36.0001
" />
<path d="M47.7701 36.0001
L47.8306 36.1210
" />
<path d="M47.8306 36.1210
L47.8306 36.2420
" />
<path d="M47.8306 36.2420
L47.7701 36.4234
" />
<path d="M47.7701 36.4234
L47.0444 37.1491
" />
<path d="M47.0444 37.1491
L47.8306 37.1491
" />
</g></g>
<g style="fill:#840000; fill-opacity:0.0; 
stroke:#840000; stroke-width:0.1524; stroke-opacity:1; 
stroke-linecap:round; stroke-linejoin:round;">
<path d="M48.1330 9.6266
L45.5930 9.6266
" />
</g>
<g style="fill:#006464; fill-opacity:0.0; 
stroke:#006464; stroke-width:0.1524; stroke-opacity:1; 
stroke-linecap:round; stroke-linejoin:round;">
<text x="48.6410" y="10.2616"
textLength="3.4690" font-size="1.6933" lengthAdjust="spacingAndGlyphs"
text-anchor="start" opacity="0">VAA</text>
<g class="stroked-text"><desc>VAA</desc>
<path d="M48.8621 8.9361
L49.2854 10.2061
" />
<path d="M49.2854 10.2061
L49.7088 8.9361
" />
<path d="M50.0717 9.8433
L50.6764 9.8433
" />
<path d="M49.9507 10.2061
L50.3740 8.9361
" />
<path d="M50.3740 8.9361
L50.7974 10.2061
" />
<path d="M51.1603 9.8433
L51.7650 9.8433
" />
<path d="M51.0393 10.2061
L51.4626 8.9361
" />
<path d="M51.4626 8.9361
L51.8860 10.2061
" />
</g></g>
<g style="fill:#A90000; fill-opacity:0.0; 
stroke:#A90000; stroke-width:0.1524; stroke-opacity:1; 
stroke-linecap:round; stroke-linejoin:round;">
<text x="46.8630" y="9.3726"
textLength="2.6222" font-size="1.6933" lengthAdjust="spacingAndGlyphs"
text-anchor="middle" opacity="0">43</text>
<g class="stroked-text"><desc>43</desc>
<path d="M46.5001 8.3625
L46.5001 9.2091
" />
<path d="M46.1977 7.8787
L45.8954 8.7858
" />
<path d="M45.8954 8.7858
L46.6815 8.7858
" />
<path d="M47.0444 7.9391
L47.8306 7.9391
" />
<path d="M47.8306 7.9391
L47.4072 8.4229
" />
<path d="M47.4072 8.4229
L47.5887 8.4229
" />
<path d="M47.5887 8.4229
L47.7096 8.4834
" />
<path d="M47.7096 8.4834
L47.7701 8.5439
" />
<path d="M47.7701 8.5439
L47.8306 8.6648
" />
<path d="M47.8306 8.6648
L47.8306 8.9672
" />
<path d="M47.8306 8.9672
L47.7701 9.0882
" />
<path d="M47.7701 9.0882
L47.7096 9.1487
" />
<path d="M47.7096 9.1487
L47.5887 9.2091
" />
<path d="M47.5887 9.2091
L47.2258 9.2091
" />
<path d="M47.2258 9.2091
L47.1049 9.1487
" />
<path d="M47.1049 9.1487
L47.0444 9.0882
" />
</g></g>
<g style="fill:#840000; fill-opacity:0.0; 
stroke:#840000; stroke-width:0.1524; stroke-opacity:1; 
stroke-linecap:round; stroke-linejoin:round;">
<path d="M48.1330 14.7066
L45.5930 14.7066
" />
</g>
<g style="fill:#006464; fill-opacity:0.0; 
stroke:#006464; stroke-width:0.1524; stroke-opacity:1; 
stroke-linecap:round; stroke-linejoin:round;">
<text x="48.6410" y="15.3416"
textLength="3.3480" font-size="1.6933" lengthAdjust="spacingAndGlyphs"
text-anchor="start" opacity="0">IN1</text>
<g class="stroked-text"><desc>IN1</desc>
<path d="M49.0435 15.2861
L49.0435 14.0161
" />
<path d="M49.6483 15.2861
L49.6483 14.0161
" />
<path d="M49.6483 14.0161
L50.3740 15.2861
" />
<path d="M50.3740 15.2861
L50.3740 14.0161
" />
<path d="M51.6441 15.2861
L50.9184 15.2861
" />
<path d="M51.2812 15.2861
L51.2812 14.0161
" />
<path d="M51.2812 14.0161
L51.1603 14.1976
" />
<path d="M51.1603 14.1976
L51.0393 14.3185
" />
<path d="M51.0393 14.3185
L50.9184 14.3790
" />
</g></g>
<g style="fill:#A90000; fill-opacity:0.0; 
stroke:#A90000; stroke-width:0.1524; stroke-opacity:1; 
stroke-linecap:round; stroke-linejoin:round;">
<text x="46.8630" y="14.4526"
textLength="2.6222" font-size="1.6933" lengthAdjust="spacingAndGlyphs"
text-anchor="middle" opacity="0">46</text>
<g class="stroked-text"><desc>46</desc>
<path d="M46.5001 13.4425
L46.5001 14.2891
" />
<path d="M46.1977 12.9587
L45.8954 13.8658
" />
<path d="M45.8954 13.8658
L46.6815 13.8658
" />
<path d="M47.7096 13.0191
L47.4677 13.0191
" />
<path d="M47.4677 13.0191
L47.3468 13.0796
" />
<path d="M47.3468 13.0796
L47.2863 13.1401
" />
<path d="M47.2863 13.1401
L47.1653 13.3215
" />
<path d="M47.1653 13.3215
L47.1049 13.5634
" />
<path d="M47.1049 13.5634
L47.1049 14.0472
" />
<path d="M47.1049 14.0472
L47.1653 14.1682
" />
<path d="M47.1653 14.1682
L47.2258 14.2287
" />
<path d="M47.2258 14.2287
L47.3468 14.2891
" />
<path d="M47.3468 14.2891
L47.5887 14.2891
" />
<path d="M47.5887 14.2891
L47.7096 14.2287
" />
<path d="M47.7096 14.2287
L47.7701 14.1682
" />
<path d="M47.7701 14.1682
L47.8306 14.0472
" />
<path d="M47.8306 14.0472
L47.8306 13.7448
" />
<path d="M47.8306 13.7448
L47.7701 13.6239
" />
<path d="M47.7701 13.6239
L47.7096 13.5634
" />
<path d="M47.7096 13.5634
L47.5887 13.5029
" />
<path d="M47.5887 13.5029
L47.3468 13.5029
" />
<path d="M47.3468 13.5029
L47.2258 13.5634
" />
<path d="M47.2258 13.5634
L47.1653 13.6239
" />
<path d="M47.1653 13.6239
L47.1049 13.7448
" />
</g></g>
<g style="fill:#840000; fill-opacity:0.0; 
stroke:#840000; stroke-width:0.1524; stroke-opacity:1; 
stroke-linecap:round; stroke-linejoin:round;">
<path d="M48.1330 17.2466
L45.5930 17.2466
" />
</g>
<g style="fill:#006464; fill-opacity:0.0; 
stroke:#006464; stroke-width:0.1524; stroke-opacity:1; 
stroke-linecap:round; stroke-linejoin:round;">
<text x="48.6410" y="17.8816"
textLength="6.7346" font-size="1.6933" lengthAdjust="spacingAndGlyphs"
text-anchor="start" opacity="0">COMP1</text>
<g class="stroked-text"><desc>COMP1</desc>
<path d="M49.7692 17.7052
L49.7088 17.7657
" />
<path d="M49.7088 17.7657
L49.5273 17.8261
" />
<path d="M49.5273 17.8261
L49.4064 17.8261
" />
<path d="M49.4064 17.8261
L49.2250 17.7657
" />
<path d="M49.2250 17.7657
L49.1040 17.6447
" />
<path d="M49.1040 17.6447
L49.0435 17.5237
" />
<path d="M49.0435 17.5237
L48.9831 17.2818
" />
<path d="M48.9831 17.2818
L48.9831 17.1004
" />
<path d="M48.9831 17.1004
L49.0435 16.8585
" />
<path d="M49.0435 16.8585
L49.1040 16.7376
" />
<path d="M49.1040 16.7376
L49.2250 16.6166
" />
<path d="M49.2250 16.6166
L49.4064 16.5561
" />
<path d="M49.4064 16.5561
L49.5273 16.5561
" />
<path d="M49.5273 16.5561
L49.7088 16.6166
" />
<path d="M49.7088 16.6166
L49.7692 16.6771
" />
<path d="M50.5554 16.5561
L50.7973 16.5561
" />
<path d="M50.7973 16.5561
L50.9183 16.6166
" />
<path d="M50.9183 16.6166
L51.0392 16.7376
" />
<path d="M51.0392 16.7376
L51.0997 16.9795
" />
<path d="M51.0997 16.9795
L51.0997 17.4028
" />
<path d="M51.0997 17.4028
L51.0392 17.6447
" />
<path d="M51.0392 17.6447
L50.9183 17.7657
" />
<path d="M50.9183 17.7657
L50.7973 17.8261
" />
<path d="M50.7973 17.8261
L50.5554 17.8261
" />
<path d="M50.5554 17.8261
L50.4345 17.7657
" />
<path d="M50.4345 17.7657
L50.3135 17.6447
" />
<path d="M50.3135 17.6447
L50.2531 17.4028
" />
<path d="M50.2531 17.4028
L50.2531 16.9795
" />
<path d="M50.2531 16.9795
L50.3135 16.7376
" />
<path d="M50.3135 16.7376
L50.4345 16.6166
" />
<path d="M50.4345 16.6166
L50.5554 16.5561
" />
<path d="M51.6440 17.8261
L51.6440 16.5561
" />
<path d="M51.6440 16.5561
L52.0674 17.4633
" />
<path d="M52.0674 17.4633
L52.4907 16.5561
" />
<path d="M52.4907 16.5561
L52.4907 17.8261
" />
<path d="M53.0954 17.8261
L53.0954 16.5561
" />
<path d="M53.0954 16.5561
L53.5792 16.5561
" />
<path d="M53.5792 16.5561
L53.7002 16.6166
" />
<path d="M53.7002 16.6166
L53.7607 16.6771
" />
<path d="M53.7607 16.6771
L53.8211 16.7980
" />
<path d="M53.8211 16.7980
L53.8211 16.9795
" />
<path d="M53.8211 16.9795
L53.7607 17.1004
" />
<path d="M53.7607 17.1004
L53.7002 17.1609
" />
<path d="M53.7002 17.1609
L53.5792 17.2214
" />
<path d="M53.5792 17.2214
L53.0954 17.2214
" />
<path d="M55.0307 17.8261
L54.3050 17.8261
" />
<path d="M54.6678 17.8261
L54.6678 16.5561
" />
<path d="M54.6678 16.5561
L54.5469 16.7376
" />
<path d="M54.5469 16.7376
L54.4259 16.8585
" />
<path d="M54.4259 16.8585
L54.3050 16.9190
" />
</g></g>
<g style="fill:#A90000; fill-opacity:0.0; 
stroke:#A90000; stroke-width:0.1524; stroke-opacity:1; 
stroke-linecap:round; stroke-linejoin:round;">
<text x="46.8630" y="16.9926"
textLength="2.6222" font-size="1.6933" lengthAdjust="spacingAndGlyphs"
text-anchor="middle" opacity="0">47</text>
<g class="stroked-text"><desc>47</desc>
<path d="M46.5001 15.9825
L46.5001 16.8291
" />
<path d="M46.1977 15.4987
L45.8954 16.4058
" />
<path d="M45.8954 16.4058
L46.6815 16.4058
" />
<path d="M47.0444 15.5591
L47.8910 15.5591
" />
<path d="M47.8910 15.5591
L47.3468 16.8291
" />
</g></g>
<g style="fill:#840000; fill-opacity:0.0; 
stroke:#840000; stroke-width:0.1524; stroke-opacity:1; 
stroke-linecap:round; stroke-linejoin:round;">
<path d="M48.1330 27.4066
L45.5930 27.4066
" />
</g>
<g style="fill:#006464; fill-opacity:0.0; 
stroke:#006464; stroke-width:0.1524; stroke-opacity:1; 
stroke-linecap:round; stroke-linejoin:round;">
<text x="48.6410" y="28.0416"
textLength="3.9527" font-size="1.6933" lengthAdjust="spacingAndGlyphs"
text-anchor="start" opacity="0">CSD</text>
<g class="stroked-text"><desc>CSD</desc>
<path d="M49.7692 27.8652
L49.7088 27.9257
" />
<path d="M49.7088 27.9257
L49.5273 27.9861
" />
<path d="M49.5273 27.9861
L49.4064 27.9861
" />
<path d="M49.4064 27.9861
L49.2250 27.9257
" />
<path d="M49.2250 27.9257
L49.1040 27.8047
" />
<path d="M49.1040 27.8047
L49.0435 27.6837
" />
<path d="M49.0435 27.6837
L48.9831 27.4418
" />
<path d="M48.9831 27.4418
L48.9831 27.2604
" />
<path d="M48.9831 27.2604
L49.0435 27.0185
" />
<path d="M49.0435 27.0185
L49.1040 26.8976
" />
<path d="M49.1040 26.8976
L49.2250 26.7766
" />
<path d="M49.2250 26.7766
L49.4064 26.7161
" />
<path d="M49.4064 26.7161
L49.5273 26.7161
" />
<path d="M49.5273 26.7161
L49.7088 26.7766
" />
<path d="M49.7088 26.7766
L49.7692 26.8371
" />
<path d="M50.2531 27.9257
L50.4345 27.9861
" />
<path d="M50.4345 27.9861
L50.7369 27.9861
" />
<path d="M50.7369 27.9861
L50.8578 27.9257
" />
<path d="M50.8578 27.9257
L50.9183 27.8652
" />
<path d="M50.9183 27.8652
L50.9788 27.7442
" />
<path d="M50.9788 27.7442
L50.9788 27.6233
" />
<path d="M50.9788 27.6233
L50.9183 27.5023
" />
<path d="M50.9183 27.5023
L50.8578 27.4418
" />
<path d="M50.8578 27.4418
L50.7369 27.3814
" />
<path d="M50.7369 27.3814
L50.4950 27.3209
" />
<path d="M50.4950 27.3209
L50.3740 27.2604
" />
<path d="M50.3740 27.2604
L50.3135 27.1999
" />
<path d="M50.3135 27.1999
L50.2531 27.0790
" />
<path d="M50.2531 27.0790
L50.2531 26.9580
" />
<path d="M50.2531 26.9580
L50.3135 26.8371
" />
<path d="M50.3135 26.8371
L50.3740 26.7766
" />
<path d="M50.3740 26.7766
L50.4950 26.7161
" />
<path d="M50.4950 26.7161
L50.7973 26.7161
" />
<path d="M50.7973 26.7161
L50.9788 26.7766
" />
<path d="M51.5230 27.9861
L51.5230 26.7161
" />
<path d="M51.5230 26.7161
L51.8254 26.7161
" />
<path d="M51.8254 26.7161
L52.0068 26.7766
" />
<path d="M52.0068 26.7766
L52.1278 26.8976
" />
<path d="M52.1278 26.8976
L52.1883 27.0185
" />
<path d="M52.1883 27.0185
L52.2487 27.2604
" />
<path d="M52.2487 27.2604
L52.2487 27.4418
" />
<path d="M52.2487 27.4418
L52.1883 27.6837
" />
<path d="M52.1883 27.6837
L52.1278 27.8047
" />
<path d="M52.1278 27.8047
L52.0068 27.9257
" />
<path d="M52.0068 27.9257
L51.8254 27.9861
" />
<path d="M51.8254 27.9861
L51.5230 27.9861
" />
</g></g>
<g style="fill:#A90000; fill-opacity:0.0; 
stroke:#A90000; stroke-width:0.1524; stroke-opacity:1; 
stroke-linecap:round; stroke-linejoin:round;">
<text x="46.8630" y="27.1526"
textLength="2.6222" font-size="1.6933" lengthAdjust="spacingAndGlyphs"
text-anchor="middle" opacity="0">48</text>
<g class="stroked-text"><desc>48</desc>
<path d="M46.5001 26.1425
L46.5001 26.9891
" />
<path d="M46.1977 25.6587
L45.8954 26.5658
" />
<path d="M45.8954 26.5658
L46.6815 26.5658
" />
<path d="M47.3468 26.2634
L47.2258 26.2029
" />
<path d="M47.2258 26.2029
L47.1653 26.1425
" />
<path d="M47.1653 26.1425
L47.1049 26.0215
" />
<path d="M47.1049 26.0215
L47.1049 25.9610
" />
<path d="M47.1049 25.9610
L47.1653 25.8401
" />
<path d="M47.1653 25.8401
L47.2258 25.7796
" />
<path d="M47.2258 25.7796
L47.3468 25.7191
" />
<path d="M47.3468 25.7191
L47.5887 25.7191
" />
<path d="M47.5887 25.7191
L47.7096 25.7796
" />
<path d="M47.7096 25.7796
L47.7701 25.8401
" />
<path d="M47.7701 25.8401
L47.8306 25.9610
" />
<path d="M47.8306 25.9610
L47.8306 26.0215
" />
<path d="M47.8306 26.0215
L47.7701 26.1425
" />
<path d="M47.7701 26.1425
L47.7096 26.2029
" />
<path d="M47.7096 26.2029
L47.5887 26.2634
" />
<path d="M47.5887 26.2634
L47.3468 26.2634
" />
<path d="M47.3468 26.2634
L47.2258 26.3239
" />
<path d="M47.2258 26.3239
L47.1653 26.3844
" />
<path d="M47.1653 26.3844
L47.1049 26.5053
" />
<path d="M47.1049 26.5053
L47.1049 26.7472
" />
<path d="M47.1049 26.7472
L47.1653 26.8682
" />
<path d="M47.1653 26.8682
L47.2258 26.9287
" />
<path d="M47.2258 26.9287
L47.3468 26.9891
" />
<path d="M47.3468 26.9891
L47.5887 26.9891
" />
<path d="M47.5887 26.9891
L47.7096 26.9287
" />
<path d="M47.7096 26.9287
L47.7701 26.8682
" />
<path d="M47.7701 26.8682
L47.8306 26.7472
" />
<path d="M47.8306 26.7472
L47.8306 26.5053
" />
<path d="M47.8306 26.5053
L47.7701 26.3844
" />
<path d="M47.7701 26.3844
L47.7096 26.3239
" />
<path d="M47.7096 26.3239
L47.5887 26.2634
" />
</g></g>
<g style="fill:#840084; fill-opacity:0.0; 
stroke:#840084; stroke-width:0.1524; stroke-opacity:1; 
stroke-linecap:round; stroke-linejoin:round;">
</g>
<g style="fill:#006464; fill-opacity:0.0; 
stroke:#006464; stroke-width:0.1524; stroke-opacity:1; 
stroke-linecap:round; stroke-linejoin:round;">
</g>
<g style="fill:#006464; fill-opacity:0.0; 
stroke:#006464; stroke-width:0.1588; stroke-opacity:1; 
stroke-linecap:round; stroke-linejoin:round;">
<text x="55.7530" y="4.5466"
textLength="3.7301" font-size="1.6933" lengthAdjust="spacingAndGlyphs"
text-anchor="middle" opacity="0">U?A</text>
<g class="stroked-text"><desc>U?A</desc>
<path d="M54.3015 3.2208
L54.3015 4.2489
" />
<path d="M54.3015 4.2489
L54.3620 4.3699
" />
<path d="M54.3620 4.3699
L54.4225 4.4304
" />
<path d="M54.4225 4.4304
L54.5434 4.4908
" />
<path d="M54.5434 4.4908
L54.7853 4.4908
" />
<path d="M54.7853 4.4908
L54.9063 4.4304
" />
<path d="M54.9063 4.4304
L54.9668 4.3699
" />
<path d="M54.9668 4.3699
L55.0272 4.2489
" />
<path d="M55.0272 4.2489
L55.0272 3.2208
" />
<path d="M55.8135 4.3699
L55.8739 4.4304
" />
<path d="M55.8739 4.4304
L55.8135 4.4908
" />
<path d="M55.8135 4.4908
L55.7530 4.4304
" />
<path d="M55.7530 4.4304
L55.8135 4.3699
" />
<path d="M55.8135 4.3699
L55.8135 4.4908
" />
<path d="M55.5716 3.2813
L55.6925 3.2208
" />
<path d="M55.6925 3.2208
L55.9949 3.2208
" />
<path d="M55.9949 3.2208
L56.1158 3.2813
" />
<path d="M56.1158 3.2813
L56.1763 3.4023
" />
<path d="M56.1763 3.4023
L56.1763 3.5232
" />
<path d="M56.1763 3.5232
L56.1158 3.6442
" />
<path d="M56.1158 3.6442
L56.0554 3.7046
" />
<path d="M56.0554 3.7046
L55.9344 3.7651
" />
<path d="M55.9344 3.7651
L55.8739 3.8256
" />
<path d="M55.8739 3.8256
L55.8135 3.9465
" />
<path d="M55.8135 3.9465
L55.8135 4.0070
" />
<path d="M56.6602 4.1280
L57.2649 4.1280
" />
<path d="M56.5392 4.4908
L56.9625 3.2208
" />
<path d="M56.9625 3.2208
L57.3859 4.4908
" />
</g><text x="55.7530" y="6.4516"
textLength="9.5961" font-size="1.6933" lengthAdjust="spacingAndGlyphs"
text-anchor="middle" opacity="0">IRS2093M</text>
<g class="stroked-text"><desc>IRS2093M</desc>
<path d="M51.3685 6.3958
L51.3685 5.1258
" />
<path d="M52.6990 6.3958
L52.2757 5.7911
" />
<path d="M51.9733 6.3958
L51.9733 5.1258
" />
<path d="M51.9733 5.1258
L52.4571 5.1258
" />
<path d="M52.4571 5.1258
L52.5781 5.1863
" />
<path d="M52.5781 5.1863
L52.6386 5.2468
" />
<path d="M52.6386 5.2468
L52.6990 5.3677
" />
<path d="M52.6990 5.3677
L52.6990 5.5492
" />
<path d="M52.6990 5.5492
L52.6386 5.6701
" />
<path d="M52.6386 5.6701
L52.5781 5.7306
" />
<path d="M52.5781 5.7306
L52.4571 5.7911
" />
<path d="M52.4571 5.7911
L51.9733 5.7911
" />
<path d="M53.1829 6.3354
L53.3643 6.3958
" />
<path d="M53.3643 6.3958
L53.6667 6.3958
" />
<path d="M53.6667 6.3958
L53.7876 6.3354
" />
<path d="M53.7876 6.3354
L53.8481 6.2749
" />
<path d="M53.8481 6.2749
L53.9086 6.1539
" />
<path d="M53.9086 6.1539
L53.9086 6.0330
" />
<path d="M53.9086 6.0330
L53.8481 5.9120
" />
<path d="M53.8481 5.9120
L53.7876 5.8515
" />
<path d="M53.7876 5.8515
L53.6667 5.7911
" />
<path d="M53.6667 5.7911
L53.4248 5.7306
" />
<path d="M53.4248 5.7306
L53.3038 5.6701
" />
<path d="M53.3038 5.6701
L53.2433 5.6096
" />
<path d="M53.2433 5.6096
L53.1829 5.4887
" />
<path d="M53.1829 5.4887
L53.1829 5.3677
" />
<path d="M53.1829 5.3677
L53.2433 5.2468
" />
<path d="M53.2433 5.2468
L53.3038 5.1863
" />
<path d="M53.3038 5.1863
L53.4248 5.1258
" />
<path d="M53.4248 5.1258
L53.7271 5.1258
" />
<path d="M53.7271 5.1258
L53.9086 5.1863
" />
<path d="M54.3924 5.2468
L54.4528 5.1863
" />
<path d="M54.4528 5.1863
L54.5738 5.1258
" />
<path d="M54.5738 5.1258
L54.8762 5.1258
" />
<path d="M54.8762 5.1258
L54.9971 5.1863
" />
<path d="M54.9971 5.1863
L55.0576 5.2468
" />
<path d="M55.0576 5.2468
L55.1181 5.3677
" />
<path d="M55.1181 5.3677
L55.1181 5.4887
" />
<path d="M55.1181 5.4887
L55.0576 5.6701
" />
<path d="M55.0576 5.6701
L54.3319 6.3958
" />
<path d="M54.3319 6.3958
L55.1181 6.3958
" />
<path d="M55.9042 5.1258
L56.0252 5.1258
" />
<path d="M56.0252 5.1258
L56.1461 5.1863
" />
<path d="M56.1461 5.1863
L56.2066 5.2468
" />
<path d="M56.2066 5.2468
L56.2671 5.3677
" />
<path d="M56.2671 5.3677
L56.3276 5.6096
" />
<path d="M56.3276 5.6096
L56.3276 5.9120
" />
<path d="M56.3276 5.9120
L56.2671 6.1539
" />
<path d="M56.2671 6.1539
L56.2066 6.2749
" />
<path d="M56.2066 6.2749
L56.1461 6.3354
" />
<path d="M56.1461 6.3354
L56.0252 6.3958
" />
<path d="M56.0252 6.3958
L55.9042 6.3958
" />
<path d="M55.9042 6.3958
L55.7833 6.3354
" />
<path d="M55.7833 6.3354
L55.7228 6.2749
" />
<path d="M55.7228 6.2749
L55.6623 6.1539
" />
<path d="M55.6623 6.1539
L55.6019 5.9120
" />
<path d="M55.6019 5.9120
L55.6019 5.6096
" />
<path d="M55.6019 5.6096
L55.6623 5.3677
" />
<path d="M55.6623 5.3677
L55.7228 5.2468
" />
<path d="M55.7228 5.2468
L55.7833 5.1863
" />
<path d="M55.7833 5.1863
L55.9042 5.1258
" />
<path d="M56.9323 6.3958
L57.1742 6.3958
" />
<path d="M57.1742 6.3958
L57.2952 6.3354
" />
<path d="M57.2952 6.3354
L57.3556 6.2749
" />
<path d="M57.3556 6.2749
L57.4766 6.0934
" />
<path d="M57.4766 6.0934
L57.5371 5.8515
" />
<path d="M57.5371 5.8515
L57.5371 5.3677
" />
<path d="M57.5371 5.3677
L57.4766 5.2468
" />
<path d="M57.4766 5.2468
L57.4161 5.1863
" />
<path d="M57.4161 5.1863
L57.2952 5.1258
" />
<path d="M57.2952 5.1258
L57.0533 5.1258
" />
<path d="M57.0533 5.1258
L56.9323 5.1863
" />
<path d="M56.9323 5.1863
L56.8718 5.2468
" />
<path d="M56.8718 5.2468
L56.8114 5.3677
" />
<path d="M56.8114 5.3677
L56.8114 5.6701
" />
<path d="M56.8114 5.6701
L56.8718 5.7911
" />
<path d="M56.8718 5.7911
L56.9323 5.8515
" />
<path d="M56.9323 5.8515
L57.0533 5.9120
" />
<path d="M57.0533 5.9120
L57.2952 5.9120
" />
<path d="M57.2952 5.9120
L57.4161 5.8515
" />
<path d="M57.4161 5.8515
L57.4766 5.7911
" />
<path d="M57.4766 5.7911
L57.5371 5.6701
" />
<path d="M57.9604 5.1258
L58.7466 5.1258
" />
<path d="M58.7466 5.1258
L58.3232 5.6096
" />
<path d="M58.3232 5.6096
L58.5047 5.6096
" />
<path d="M58.5047 5.6096
L58.6256 5.6701
" />
<path d="M58.6256 5.6701
L58.6861 5.7306
" />
<path d="M58.6861 5.7306
L58.7466 5.8515
" />
<path d="M58.7466 5.8515
L58.7466 6.1539
" />
<path d="M58.7466 6.1539
L58.6861 6.2749
" />
<path d="M58.6861 6.2749
L58.6256 6.3354
" />
<path d="M58.6256 6.3354
L58.5047 6.3958
" />
<path d="M58.5047 6.3958
L58.1418 6.3958
" />
<path d="M58.1418 6.3958
L58.0209 6.3354
" />
<path d="M58.0209 6.3354
L57.9604 6.2749
" />
<path d="M59.2908 6.3958
L59.2908 5.1258
" />
<path d="M59.2908 5.1258
L59.7142 6.0330
" />
<path d="M59.7142 6.0330
L60.1375 5.1258
" />
<path d="M60.1375 5.1258
L60.1375 6.3958
" />
</g></g> 
</svg>
