<?xml version="1.0" standalone="no"?>
 <!DOCTYPE svg PUBLIC "-//W3C//DTD SVG 1.1//EN" 
 "http://www.w3.org/Graphics/SVG/1.1/DTD/svg11.dtd"> 
<svg
  xmlns:svg="http://www.w3.org/2000/svg"
  xmlns="http://www.w3.org/2000/svg"
  xmlns:xlink="http://www.w3.org/1999/xlink"
  version="1.1"
  width="128.7780mm" height="15.3924mm" viewBox="0.0000 0.0000 128.7780 15.3924">
<title>SVG Image created as ssm2122_2.svg date 2024/01/16 15:08:51 </title>
  <desc>Image generated by Eeschema-SVG </desc>
<g style="fill:#000000; fill-opacity:1.0000;stroke:#000000; stroke-opacity:1.0000;
stroke-linecap:round; stroke-linejoin:round;"
 transform="translate(0 0) scale(1 1)">
</g>
<g style="fill:#840000; fill-opacity:0.0; 
stroke:#840000; stroke-width:0.0000; stroke-opacity:1; 
stroke-linecap:round; stroke-linejoin:round;">
</g>
<g style="fill:#FFFFC2; fill-opacity:0.0; 
stroke:#FFFFC2; stroke-width:0.0000; stroke-opacity:1; 
stroke-linecap:round; stroke-linejoin:round;">
</g>
<g style="fill:#FFFFC2; fill-opacity:1.0000; 
stroke:#FFFFC2; stroke-width:0.0000; stroke-opacity:1; 
stroke-linecap:round; stroke-linejoin:round;">
<path style="fill:#FFFFC2; fill-opacity:1.0000; 
stroke:#FFFFC2; stroke-width:0.0000; stroke-opacity:1; 
stroke-linecap:round; stroke-linejoin:round;fill-rule:evenodd;"
d="M 59.3090,2.6162
69.4690,7.6962
59.3090,12.7762
Z" /> 
</g>
<g style="fill:#840084; fill-opacity:1.0000; 
stroke:#840084; stroke-width:0.0000; stroke-opacity:1; 
stroke-linecap:round; stroke-linejoin:round;">
</g>
<g style="fill:#840000; fill-opacity:1.0000; 
stroke:#840000; stroke-width:0.0000; stroke-opacity:1; 
stroke-linecap:round; stroke-linejoin:round;">
</g>
<g style="fill:#840000; fill-opacity:0.0; 
stroke:#840000; stroke-width:0.2540; stroke-opacity:1; 
stroke-linecap:round; stroke-linejoin:round;">
<path style="fill:#840000; fill-opacity:0.0; 
stroke:#840000; stroke-width:0.2540; stroke-opacity:1; 
stroke-linecap:round; stroke-linejoin:round;fill:none"
d="M 59.3090,2.6162
69.4690,7.6962
59.3090,12.7762
Z" /> 
</g>
<g style="fill:#840000; fill-opacity:0.0; 
stroke:#840000; stroke-width:0.1524; stroke-opacity:1; 
stroke-linecap:round; stroke-linejoin:round;">
<path d="M59.3090 7.6962
L56.7690 7.6962
" />
</g>
<g style="fill:#006464; fill-opacity:0.0; 
stroke:#006464; stroke-width:0.1524; stroke-opacity:1; 
stroke-linecap:round; stroke-linejoin:round;">
<text x="59.4360" y="8.3312"
textLength="2.1385" font-size="1.6933" lengthAdjust="spacingAndGlyphs"
text-anchor="start" opacity="0">IN</text>
<g class="stroked-text"><desc>IN</desc>
<path d="M59.8385 8.2757
L59.8385 7.0057
" />
<path d="M60.4433 8.2757
L60.4433 7.0057
" />
<path d="M60.4433 7.0057
L61.1690 8.2757
" />
<path d="M61.1690 8.2757
L61.1690 7.0057
" />
</g></g>
<g style="fill:#A90000; fill-opacity:0.0; 
stroke:#A90000; stroke-width:0.1524; stroke-opacity:1; 
stroke-linecap:round; stroke-linejoin:round;">
<text x="58.0390" y="7.4422"
textLength="2.6222" font-size="1.6933" lengthAdjust="spacingAndGlyphs"
text-anchor="middle" opacity="0">10</text>
<g class="stroked-text"><desc>10</desc>
<path d="M57.7971 7.2787
L57.0714 7.2787
" />
<path d="M57.4342 7.2787
L57.4342 6.0087
" />
<path d="M57.4342 6.0087
L57.3133 6.1902
" />
<path d="M57.3133 6.1902
L57.1923 6.3111
" />
<path d="M57.1923 6.3111
L57.0714 6.3716
" />
<path d="M58.5832 6.0087
L58.7042 6.0087
" />
<path d="M58.7042 6.0087
L58.8251 6.0692
" />
<path d="M58.8251 6.0692
L58.8856 6.1297
" />
<path d="M58.8856 6.1297
L58.9461 6.2506
" />
<path d="M58.9461 6.2506
L59.0066 6.4925
" />
<path d="M59.0066 6.4925
L59.0066 6.7949
" />
<path d="M59.0066 6.7949
L58.9461 7.0368
" />
<path d="M58.9461 7.0368
L58.8856 7.1578
" />
<path d="M58.8856 7.1578
L58.8251 7.2183
" />
<path d="M58.8251 7.2183
L58.7042 7.2787
" />
<path d="M58.7042 7.2787
L58.5832 7.2787
" />
<path d="M58.5832 7.2787
L58.4623 7.2183
" />
<path d="M58.4623 7.2183
L58.4018 7.1578
" />
<path d="M58.4018 7.1578
L58.3413 7.0368
" />
<path d="M58.3413 7.0368
L58.2809 6.7949
" />
<path d="M58.2809 6.7949
L58.2809 6.4925
" />
<path d="M58.2809 6.4925
L58.3413 6.2506
" />
<path d="M58.3413 6.2506
L58.4018 6.1297
" />
<path d="M58.4018 6.1297
L58.4623 6.0692
" />
<path d="M58.4623 6.0692
L58.5832 6.0087
" />
</g></g>
<g style="fill:#840000; fill-opacity:0.0; 
stroke:#840000; stroke-width:0.1524; stroke-opacity:1; 
stroke-linecap:round; stroke-linejoin:round;">
<path d="M59.3090 10.2362
L56.7690 10.2362
" />
</g>
<g style="fill:#006464; fill-opacity:0.0; 
stroke:#006464; stroke-width:0.1524; stroke-opacity:1; 
stroke-linecap:round; stroke-linejoin:round;">
<text x="59.4360" y="10.8712"
textLength="1.7756" font-size="1.6933" lengthAdjust="spacingAndGlyphs"
text-anchor="start" opacity="0">-</text>
<g class="stroked-text"><desc>-</desc>
<path d="M59.8385 10.3319
L60.8062 10.3319
" />
</g></g>
<g style="fill:#A90000; fill-opacity:0.0; 
stroke:#A90000; stroke-width:0.1524; stroke-opacity:1; 
stroke-linecap:round; stroke-linejoin:round;">
<text x="58.0390" y="9.9822"
textLength="2.6222" font-size="1.6933" lengthAdjust="spacingAndGlyphs"
text-anchor="middle" opacity="0">11</text>
<g class="stroked-text"><desc>11</desc>
<path d="M57.7971 9.8187
L57.0714 9.8187
" />
<path d="M57.4342 9.8187
L57.4342 8.5487
" />
<path d="M57.4342 8.5487
L57.3133 8.7302
" />
<path d="M57.3133 8.7302
L57.1923 8.8511
" />
<path d="M57.1923 8.8511
L57.0714 8.9116
" />
<path d="M59.0066 9.8187
L58.2809 9.8187
" />
<path d="M58.6437 9.8187
L58.6437 8.5487
" />
<path d="M58.6437 8.5487
L58.5228 8.7302
" />
<path d="M58.5228 8.7302
L58.4018 8.8511
" />
<path d="M58.4018 8.8511
L58.2809 8.9116
" />
</g></g>
<g style="fill:#840000; fill-opacity:0.0; 
stroke:#840000; stroke-width:0.1524; stroke-opacity:1; 
stroke-linecap:round; stroke-linejoin:round;">
<path d="M64.3890 5.1562
L64.3890 0.0762
" />
</g>
<g style="fill:#006464; fill-opacity:0.0; 
stroke:#006464; stroke-width:0.1524; stroke-opacity:1; 
stroke-linecap:round; stroke-linejoin:round;">
</g>
<g style="fill:#006464; fill-opacity:0.0; 
stroke:#006464; stroke-width:0.1016; stroke-opacity:1; 
stroke-linecap:round; stroke-linejoin:round;">
<g transform="rotate(-90.000000 64.3890 5.2832)">
<text x="64.3890" y="5.5372"
textLength="1.5336" font-size="0.6773" lengthAdjust="spacingAndGlyphs"
text-anchor="end" opacity="0">CFT</text>
</g>
<g class="stroked-text"><desc>CFT</desc>
<path d="M64.5704 6.2691
L64.5946 6.2933
" />
<path d="M64.5946 6.2933
L64.6187 6.3659
" />
<path d="M64.6187 6.3659
L64.6187 6.4143
" />
<path d="M64.6187 6.4143
L64.5946 6.4868
" />
<path d="M64.5946 6.4868
L64.5462 6.5352
" />
<path d="M64.5462 6.5352
L64.4978 6.5594
" />
<path d="M64.4978 6.5594
L64.4010 6.5836
" />
<path d="M64.4010 6.5836
L64.3285 6.5836
" />
<path d="M64.3285 6.5836
L64.2317 6.5594
" />
<path d="M64.2317 6.5594
L64.1833 6.5352
" />
<path d="M64.1833 6.5352
L64.1349 6.4868
" />
<path d="M64.1349 6.4868
L64.1107 6.4143
" />
<path d="M64.1107 6.4143
L64.1107 6.3659
" />
<path d="M64.1107 6.3659
L64.1349 6.2933
" />
<path d="M64.1349 6.2933
L64.1591 6.2691
" />
<path d="M64.3526 5.8821
L64.3526 6.0514
" />
<path d="M64.6187 6.0514
L64.1107 6.0514
" />
<path d="M64.1107 6.0514
L64.1107 5.8095
" />
<path d="M64.1107 5.6886
L64.1107 5.3983
" />
<path d="M64.6187 5.5434
L64.1107 5.5434
" />
</g></g>
<g style="fill:#A90000; fill-opacity:0.0; 
stroke:#A90000; stroke-width:0.1016; stroke-opacity:1; 
stroke-linecap:round; stroke-linejoin:round;">
</g>
<g style="fill:#A90000; fill-opacity:0.0; 
stroke:#A90000; stroke-width:0.1524; stroke-opacity:1; 
stroke-linecap:round; stroke-linejoin:round;">
<g transform="rotate(-90.000000 64.1350 2.6162)">
<text x="64.1350" y="2.6162"
textLength="2.6222" font-size="1.6933" lengthAdjust="spacingAndGlyphs"
text-anchor="middle" opacity="0">12</text>
</g>
<g class="stroked-text"><desc>12</desc>
<path d="M63.9715 2.8580
L63.9715 3.5837
" />
<path d="M63.9715 3.2209
L62.7015 3.2209
" />
<path d="M62.7015 3.2209
L62.8830 3.3418
" />
<path d="M62.8830 3.3418
L63.0039 3.4628
" />
<path d="M63.0039 3.4628
L63.0644 3.5837
" />
<path d="M62.8225 2.3742
L62.7620 2.3138
" />
<path d="M62.7620 2.3138
L62.7015 2.1928
" />
<path d="M62.7015 2.1928
L62.7015 1.8904
" />
<path d="M62.7015 1.8904
L62.7620 1.7695
" />
<path d="M62.7620 1.7695
L62.8225 1.7090
" />
<path d="M62.8225 1.7090
L62.9434 1.6485
" />
<path d="M62.9434 1.6485
L63.0644 1.6485
" />
<path d="M63.0644 1.6485
L63.2458 1.7090
" />
<path d="M63.2458 1.7090
L63.9715 2.4347
" />
<path d="M63.9715 2.4347
L63.9715 1.6485
" />
</g></g>
<g style="fill:#840000; fill-opacity:0.0; 
stroke:#840000; stroke-width:0.1524; stroke-opacity:1; 
stroke-linecap:round; stroke-linejoin:round;">
<path d="M59.3090 5.1562
L56.7690 5.1562
" />
</g>
<g style="fill:#006464; fill-opacity:0.0; 
stroke:#006464; stroke-width:0.1524; stroke-opacity:1; 
stroke-linecap:round; stroke-linejoin:round;">
<text x="59.4360" y="5.7912"
textLength="1.7756" font-size="1.6933" lengthAdjust="spacingAndGlyphs"
text-anchor="start" opacity="0">+</text>
<g class="stroked-text"><desc>+</desc>
<path d="M59.8385 5.2519
L60.8062 5.2519
" />
<path d="M60.3223 5.7357
L60.3223 4.7681
" />
</g></g>
<g style="fill:#A90000; fill-opacity:0.0; 
stroke:#A90000; stroke-width:0.1524; stroke-opacity:1; 
stroke-linecap:round; stroke-linejoin:round;">
<text x="58.0390" y="4.9022"
textLength="2.6222" font-size="1.6933" lengthAdjust="spacingAndGlyphs"
text-anchor="middle" opacity="0">13</text>
<g class="stroked-text"><desc>13</desc>
<path d="M57.7971 4.7387
L57.0714 4.7387
" />
<path d="M57.4342 4.7387
L57.4342 3.4687
" />
<path d="M57.4342 3.4687
L57.3133 3.6502
" />
<path d="M57.3133 3.6502
L57.1923 3.7711
" />
<path d="M57.1923 3.7711
L57.0714 3.8316
" />
<path d="M58.2204 3.4687
L59.0066 3.4687
" />
<path d="M59.0066 3.4687
L58.5832 3.9525
" />
<path d="M58.5832 3.9525
L58.7647 3.9525
" />
<path d="M58.7647 3.9525
L58.8856 4.0130
" />
<path d="M58.8856 4.0130
L58.9461 4.0735
" />
<path d="M58.9461 4.0735
L59.0066 4.1944
" />
<path d="M59.0066 4.1944
L59.0066 4.4968
" />
<path d="M59.0066 4.4968
L58.9461 4.6178
" />
<path d="M58.9461 4.6178
L58.8856 4.6783
" />
<path d="M58.8856 4.6783
L58.7647 4.7387
" />
<path d="M58.7647 4.7387
L58.4018 4.7387
" />
<path d="M58.4018 4.7387
L58.2809 4.6783
" />
<path d="M58.2809 4.6783
L58.2204 4.6178
" />
</g></g>
<g style="fill:#840000; fill-opacity:0.0; 
stroke:#840000; stroke-width:0.1524; stroke-opacity:1; 
stroke-linecap:round; stroke-linejoin:round;">
<path d="M69.4690 7.6962
L72.0090 7.6962
" />
</g>
<g style="fill:#A90000; fill-opacity:0.0; 
stroke:#A90000; stroke-width:0.1524; stroke-opacity:1; 
stroke-linecap:round; stroke-linejoin:round;">
<text x="70.7390" y="7.4422"
textLength="2.6222" font-size="1.6933" lengthAdjust="spacingAndGlyphs"
text-anchor="middle" opacity="0">14</text>
<g class="stroked-text"><desc>14</desc>
<path d="M70.4971 7.2787
L69.7714 7.2787
" />
<path d="M70.1342 7.2787
L70.1342 6.0087
" />
<path d="M70.1342 6.0087
L70.0133 6.1902
" />
<path d="M70.0133 6.1902
L69.8923 6.3111
" />
<path d="M69.8923 6.3111
L69.7714 6.3716
" />
<path d="M71.5856 6.4321
L71.5856 7.2787
" />
<path d="M71.2832 5.9483
L70.9809 6.8554
" />
<path d="M70.9809 6.8554
L71.7670 6.8554
" />
</g></g>
<g style="fill:#840084; fill-opacity:0.0; 
stroke:#840084; stroke-width:0.1524; stroke-opacity:1; 
stroke-linecap:round; stroke-linejoin:round;">
</g>
<g style="fill:#006464; fill-opacity:0.0; 
stroke:#006464; stroke-width:0.1524; stroke-opacity:1; 
stroke-linecap:round; stroke-linejoin:round;">
</g>
<g style="fill:#006464; fill-opacity:0.0; 
stroke:#006464; stroke-width:0.1588; stroke-opacity:1; 
stroke-linecap:round; stroke-linejoin:round;">
<text x="72.0090" y="3.2512"
textLength="3.9115" font-size="1.6933" lengthAdjust="spacingAndGlyphs"
text-anchor="middle" opacity="0">U?B</text>
<g class="stroked-text"><desc>U?B</desc>
<path d="M70.4668 1.9254
L70.4668 2.9535
" />
<path d="M70.4668 2.9535
L70.5273 3.0745
" />
<path d="M70.5273 3.0745
L70.5878 3.1350
" />
<path d="M70.5878 3.1350
L70.7087 3.1954
" />
<path d="M70.7087 3.1954
L70.9506 3.1954
" />
<path d="M70.9506 3.1954
L71.0716 3.1350
" />
<path d="M71.0716 3.1350
L71.1321 3.0745
" />
<path d="M71.1321 3.0745
L71.1925 2.9535
" />
<path d="M71.1925 2.9535
L71.1925 1.9254
" />
<path d="M71.9788 3.0745
L72.0392 3.1350
" />
<path d="M72.0392 3.1350
L71.9788 3.1954
" />
<path d="M71.9788 3.1954
L71.9183 3.1350
" />
<path d="M71.9183 3.1350
L71.9788 3.0745
" />
<path d="M71.9788 3.0745
L71.9788 3.1954
" />
<path d="M71.7369 1.9859
L71.8578 1.9254
" />
<path d="M71.8578 1.9254
L72.1602 1.9254
" />
<path d="M72.1602 1.9254
L72.2811 1.9859
" />
<path d="M72.2811 1.9859
L72.3416 2.1069
" />
<path d="M72.3416 2.1069
L72.3416 2.2278
" />
<path d="M72.3416 2.2278
L72.2811 2.3488
" />
<path d="M72.2811 2.3488
L72.2207 2.4092
" />
<path d="M72.2207 2.4092
L72.0997 2.4697
" />
<path d="M72.0997 2.4697
L72.0392 2.5302
" />
<path d="M72.0392 2.5302
L71.9788 2.6511
" />
<path d="M71.9788 2.6511
L71.9788 2.7116
" />
<path d="M73.3093 2.5302
L73.4907 2.5907
" />
<path d="M73.4907 2.5907
L73.5512 2.6511
" />
<path d="M73.5512 2.6511
L73.6116 2.7721
" />
<path d="M73.6116 2.7721
L73.6116 2.9535
" />
<path d="M73.6116 2.9535
L73.5512 3.0745
" />
<path d="M73.5512 3.0745
L73.4907 3.1350
" />
<path d="M73.4907 3.1350
L73.3697 3.1954
" />
<path d="M73.3697 3.1954
L72.8859 3.1954
" />
<path d="M72.8859 3.1954
L72.8859 1.9254
" />
<path d="M72.8859 1.9254
L73.3093 1.9254
" />
<path d="M73.3093 1.9254
L73.4302 1.9859
" />
<path d="M73.4302 1.9859
L73.4907 2.0464
" />
<path d="M73.4907 2.0464
L73.5512 2.1673
" />
<path d="M73.5512 2.1673
L73.5512 2.2883
" />
<path d="M73.5512 2.2883
L73.4907 2.4092
" />
<path d="M73.4907 2.4092
L73.4302 2.4697
" />
<path d="M73.4302 2.4697
L73.3093 2.5302
" />
<path d="M73.3093 2.5302
L72.8859 2.5302
" />
</g><text x="72.0090" y="5.7912"
textLength="8.9308" font-size="1.6933" lengthAdjust="spacingAndGlyphs"
text-anchor="middle" opacity="0">SSM2122</text>
<g class="stroked-text"><desc>SSM2122</desc>
<path d="M67.8967 5.6750
L68.0781 5.7354
" />
<path d="M68.0781 5.7354
L68.3805 5.7354
" />
<path d="M68.3805 5.7354
L68.5014 5.6750
" />
<path d="M68.5014 5.6750
L68.5619 5.6145
" />
<path d="M68.5619 5.6145
L68.6224 5.4935
" />
<path d="M68.6224 5.4935
L68.6224 5.3726
" />
<path d="M68.6224 5.3726
L68.5619 5.2516
" />
<path d="M68.5619 5.2516
L68.5014 5.1911
" />
<path d="M68.5014 5.1911
L68.3805 5.1307
" />
<path d="M68.3805 5.1307
L68.1386 5.0702
" />
<path d="M68.1386 5.0702
L68.0176 5.0097
" />
<path d="M68.0176 5.0097
L67.9571 4.9492
" />
<path d="M67.9571 4.9492
L67.8967 4.8283
" />
<path d="M67.8967 4.8283
L67.8967 4.7073
" />
<path d="M67.8967 4.7073
L67.9571 4.5864
" />
<path d="M67.9571 4.5864
L68.0176 4.5259
" />
<path d="M68.0176 4.5259
L68.1386 4.4654
" />
<path d="M68.1386 4.4654
L68.4409 4.4654
" />
<path d="M68.4409 4.4654
L68.6224 4.5259
" />
<path d="M69.1062 5.6750
L69.2876 5.7354
" />
<path d="M69.2876 5.7354
L69.5900 5.7354
" />
<path d="M69.5900 5.7354
L69.7109 5.6750
" />
<path d="M69.7109 5.6750
L69.7714 5.6145
" />
<path d="M69.7714 5.6145
L69.8319 5.4935
" />
<path d="M69.8319 5.4935
L69.8319 5.3726
" />
<path d="M69.8319 5.3726
L69.7714 5.2516
" />
<path d="M69.7714 5.2516
L69.7109 5.1911
" />
<path d="M69.7109 5.1911
L69.5900 5.1307
" />
<path d="M69.5900 5.1307
L69.3481 5.0702
" />
<path d="M69.3481 5.0702
L69.2271 5.0097
" />
<path d="M69.2271 5.0097
L69.1666 4.9492
" />
<path d="M69.1666 4.9492
L69.1062 4.8283
" />
<path d="M69.1062 4.8283
L69.1062 4.7073
" />
<path d="M69.1062 4.7073
L69.1666 4.5864
" />
<path d="M69.1666 4.5864
L69.2271 4.5259
" />
<path d="M69.2271 4.5259
L69.3481 4.4654
" />
<path d="M69.3481 4.4654
L69.6504 4.4654
" />
<path d="M69.6504 4.4654
L69.8319 4.5259
" />
<path d="M70.3761 5.7354
L70.3761 4.4654
" />
<path d="M70.3761 4.4654
L70.7995 5.3726
" />
<path d="M70.7995 5.3726
L71.2228 4.4654
" />
<path d="M71.2228 4.4654
L71.2228 5.7354
" />
<path d="M71.7671 4.5864
L71.8275 4.5259
" />
<path d="M71.8275 4.5259
L71.9485 4.4654
" />
<path d="M71.9485 4.4654
L72.2509 4.4654
" />
<path d="M72.2509 4.4654
L72.3718 4.5259
" />
<path d="M72.3718 4.5259
L72.4323 4.5864
" />
<path d="M72.4323 4.5864
L72.4928 4.7073
" />
<path d="M72.4928 4.7073
L72.4928 4.8283
" />
<path d="M72.4928 4.8283
L72.4323 5.0097
" />
<path d="M72.4323 5.0097
L71.7066 5.7354
" />
<path d="M71.7066 5.7354
L72.4928 5.7354
" />
<path d="M73.7023 5.7354
L72.9766 5.7354
" />
<path d="M73.3394 5.7354
L73.3394 4.4654
" />
<path d="M73.3394 4.4654
L73.2185 4.6469
" />
<path d="M73.2185 4.6469
L73.0975 4.7678
" />
<path d="M73.0975 4.7678
L72.9766 4.8283
" />
<path d="M74.1861 4.5864
L74.2465 4.5259
" />
<path d="M74.2465 4.5259
L74.3675 4.4654
" />
<path d="M74.3675 4.4654
L74.6699 4.4654
" />
<path d="M74.6699 4.4654
L74.7908 4.5259
" />
<path d="M74.7908 4.5259
L74.8513 4.5864
" />
<path d="M74.8513 4.5864
L74.9118 4.7073
" />
<path d="M74.9118 4.7073
L74.9118 4.8283
" />
<path d="M74.9118 4.8283
L74.8513 5.0097
" />
<path d="M74.8513 5.0097
L74.1256 5.7354
" />
<path d="M74.1256 5.7354
L74.9118 5.7354
" />
<path d="M75.3956 4.5864
L75.4560 4.5259
" />
<path d="M75.4560 4.5259
L75.5770 4.4654
" />
<path d="M75.5770 4.4654
L75.8794 4.4654
" />
<path d="M75.8794 4.4654
L76.0003 4.5259
" />
<path d="M76.0003 4.5259
L76.0608 4.5864
" />
<path d="M76.0608 4.5864
L76.1213 4.7073
" />
<path d="M76.1213 4.7073
L76.1213 4.8283
" />
<path d="M76.1213 4.8283
L76.0608 5.0097
" />
<path d="M76.0608 5.0097
L75.3351 5.7354
" />
<path d="M75.3351 5.7354
L76.1213 5.7354
" />
</g></g> 
</svg>
