<?xml version="1.0" standalone="no"?>
 <!DOCTYPE svg PUBLIC "-//W3C//DTD SVG 1.1//EN" 
 "http://www.w3.org/Graphics/SVG/1.1/DTD/svg11.dtd"> 
<svg
  xmlns:svg="http://www.w3.org/2000/svg"
  xmlns="http://www.w3.org/2000/svg"
  xmlns:xlink="http://www.w3.org/1999/xlink"
  version="1.1"
  width="12.0396mm" height="30.2768mm" viewBox="0.0000 0.0000 12.0396 30.2768">
<title>SVG Image created as Relay_DPDT_Kemet_EE2_NUX_DoubleCoil.svg date 2024/01/16 15:07:46 </title>
  <desc>Image generated by PCBNEW </desc>
<g style="fill:#000000; fill-opacity:1.0000;stroke:#000000; stroke-opacity:1.0000;
stroke-linecap:round; stroke-linejoin:round;"
 transform="translate(0 0) scale(1 1)">
</g>
<g style="fill:#000000; fill-opacity:0.0; 
stroke:#000000; stroke-width:0.0000; stroke-opacity:1; 
stroke-linecap:round; stroke-linejoin:round;">
</g>
<g style="fill:#000000; fill-opacity:1.0000; 
stroke:#000000; stroke-width:0.0212; stroke-opacity:1; 
stroke-linecap:round; stroke-linejoin:round;">
<rect x="-5.000000" y="-5.000000" width="22.063250" height="40.297623" rx="0.000000" />
</g>
<g style="fill:#FFFFFF; fill-opacity:1.0000; 
stroke:#FFFFFF; stroke-width:0.0212; stroke-opacity:1; 
stroke-linecap:round; stroke-linejoin:round;">
<g >
</g>
<g >
</g>
<g >
</g>
<g >
</g>
</g>
<g style="fill:#FFFFFF; fill-opacity:1.0000; 
stroke:#FFFFFF; stroke-width:0.0212; stroke-opacity:1; 
stroke-linecap:round; stroke-linejoin:round;">
<g >
</g>
<g >
</g>
<g >
</g>
<g >
</g>
</g>
<g style="fill:#FFFFFF; fill-opacity:1.0000; 
stroke:#FFFFFF; stroke-width:0.0212; stroke-opacity:1; 
stroke-linecap:round; stroke-linejoin:round;">
<g >
</g>
<g >
</g>
<g >
</g>
<g >
</g>
</g>
<g style="fill:#FFFFFF; fill-opacity:1.0000; 
stroke:#FFFFFF; stroke-width:0.0212; stroke-opacity:1; 
stroke-linecap:round; stroke-linejoin:round;">
<g >
</g>
<g >
</g>
<g >
</g>
<g >
</g>
</g>
<g style="fill:#FFFFFF; fill-opacity:1.0000; 
stroke:#FFFFFF; stroke-width:0.0212; stroke-opacity:1; 
stroke-linecap:round; stroke-linejoin:round;">
<g >
</g>
<g >
</g>
<g >
</g>
<g >
</g>
</g>
<g style="fill:#FFFFFF; fill-opacity:1.0000; 
stroke:#FFFFFF; stroke-width:0.0212; stroke-opacity:1; 
stroke-linecap:round; stroke-linejoin:round;">
<g >
</g>
<g >
</g>
<g >
</g>
<g >
</g>
</g>
<g style="fill:#FFFFFF; fill-opacity:1.0000; 
stroke:#FFFFFF; stroke-width:0.0212; stroke-opacity:1; 
stroke-linecap:round; stroke-linejoin:round;">
<g >
</g>
<g >
</g>
<g >
</g>
<g >
</g>
</g>
<g style="fill:#FFFFFF; fill-opacity:1.0000; 
stroke:#FFFFFF; stroke-width:0.0212; stroke-opacity:1; 
stroke-linecap:round; stroke-linejoin:round;">
<g >
</g>
<g >
</g>
<g >
</g>
<g >
</g>
</g>
<g style="fill:#FFFFFF; fill-opacity:1.0000; 
stroke:#FFFFFF; stroke-width:0.0212; stroke-opacity:1; 
stroke-linecap:round; stroke-linejoin:round;">
<g >
</g>
<g >
</g>
<g >
</g>
<g >
</g>
</g>
<g style="fill:#FFFFFF; fill-opacity:1.0000; 
stroke:#FFFFFF; stroke-width:0.0212; stroke-opacity:1; 
stroke-linecap:round; stroke-linejoin:round;">
<g >
</g>
<g >
</g>
<g >
</g>
<g >
</g>
</g>
<g style="fill:#FFFFFF; fill-opacity:1.0000; 
stroke:#FFFFFF; stroke-width:0.0212; stroke-opacity:1; 
stroke-linecap:round; stroke-linejoin:round;">
<g >
</g>
<g >
</g>
<g >
</g>
<g >
</g>
</g>
<g style="fill:#FFFFFF; fill-opacity:1.0000; 
stroke:#FFFFFF; stroke-width:0.0212; stroke-opacity:1; 
stroke-linecap:round; stroke-linejoin:round;">
<g >
</g>
<g >
</g>
<g >
</g>
<g >
</g>
</g>
<g style="fill:#FFFFFF; fill-opacity:1.0000; 
stroke:#FFFFFF; stroke-width:0.0212; stroke-opacity:1; 
stroke-linecap:round; stroke-linejoin:round;">
<g >
</g>
<g >
</g>
<g >
</g>
<g >
</g>
</g>
<g style="fill:#FFFFFF; fill-opacity:1.0000; 
stroke:#FFFFFF; stroke-width:0.0212; stroke-opacity:1; 
stroke-linecap:round; stroke-linejoin:round;">
<g >
</g>
<g >
</g>
<g >
</g>
<g >
</g>
</g>
<g style="fill:#FFFFFF; fill-opacity:1.0000; 
stroke:#FFFFFF; stroke-width:0.0212; stroke-opacity:1; 
stroke-linecap:round; stroke-linejoin:round;">
<g >
</g>
<g >
</g>
<g >
</g>
<g >
</g>
</g>
<g style="fill:#FFFFFF; fill-opacity:1.0000; 
stroke:#FFFFFF; stroke-width:0.0212; stroke-opacity:1; 
stroke-linecap:round; stroke-linejoin:round;">
<g >
</g>
<g >
</g>
<g >
</g>
<g >
</g>
</g>
<g style="fill:#FFFFFF; fill-opacity:1.0000; 
stroke:#FFFFFF; stroke-width:0.0212; stroke-opacity:1; 
stroke-linecap:round; stroke-linejoin:round;">
<g >
</g>
<g >
</g>
<g >
</g>
<g >
</g>
</g>
<g style="fill:#FFFFFF; fill-opacity:1.0000; 
stroke:#FFFFFF; stroke-width:0.0212; stroke-opacity:1; 
stroke-linecap:round; stroke-linejoin:round;">
<g >
</g>
<g >
</g>
<g >
</g>
<g >
</g>
</g>
<g style="fill:#FFFFFF; fill-opacity:1.0000; 
stroke:#FFFFFF; stroke-width:0.0212; stroke-opacity:1; 
stroke-linecap:round; stroke-linejoin:round;">
<g >
</g>
<g >
</g>
<g >
</g>
<g >
</g>
</g>
<g style="fill:#FFFFFF; fill-opacity:1.0000; 
stroke:#FFFFFF; stroke-width:0.0212; stroke-opacity:1; 
stroke-linecap:round; stroke-linejoin:round;">
<g >
</g>
<g >
</g>
<g >
</g>
<g >
</g>
</g>
<g style="fill:#FFFFFF; fill-opacity:1.0000; 
stroke:#FFFFFF; stroke-width:0.0212; stroke-opacity:1; 
stroke-linecap:round; stroke-linejoin:round;">
<g >
</g>
<g >
</g>
<g >
</g>
<g >
</g>
</g>
<g style="fill:#FFFFFF; fill-opacity:1.0000; 
stroke:#FFFFFF; stroke-width:0.0212; stroke-opacity:1; 
stroke-linecap:round; stroke-linejoin:round;">
<g >
</g>
<g >
</g>
<g >
</g>
<g >
</g>
</g>
<g style="fill:#FFFFFF; fill-opacity:1.0000; 
stroke:#FFFFFF; stroke-width:0.0212; stroke-opacity:1; 
stroke-linecap:round; stroke-linejoin:round;">
<g >
</g>
<g >
</g>
<g >
</g>
<g >
</g>
</g>
<g style="fill:#FFFFFF; fill-opacity:1.0000; 
stroke:#FFFFFF; stroke-width:0.0212; stroke-opacity:1; 
stroke-linecap:round; stroke-linejoin:round;">
<g >
</g>
<g >
</g>
<g >
</g>
<g >
</g>
</g>
<g style="fill:#FFFFFF; fill-opacity:1.0000; 
stroke:#FFFFFF; stroke-width:0.0212; stroke-opacity:1; 
stroke-linecap:round; stroke-linejoin:round;">
<g >
</g>
<g >
</g>
<g >
</g>
<g >
</g>
</g>
<g style="fill:#FFFFFF; fill-opacity:1.0000; 
stroke:#FFFFFF; stroke-width:0.0212; stroke-opacity:1; 
stroke-linecap:round; stroke-linejoin:round;">
<g >
</g>
<g >
</g>
<g >
</g>
<g >
</g>
</g>
<g style="fill:#FFFFFF; fill-opacity:1.0000; 
stroke:#FFFFFF; stroke-width:0.0212; stroke-opacity:1; 
stroke-linecap:round; stroke-linejoin:round;">
<g >
</g>
<g >
</g>
<g >
</g>
<g >
</g>
</g>
<g style="fill:#FFFFFF; fill-opacity:1.0000; 
stroke:#FFFFFF; stroke-width:0.0212; stroke-opacity:1; 
stroke-linecap:round; stroke-linejoin:round;">
<g >
</g>
<g >
</g>
<g >
</g>
<g >
</g>
</g>
<g style="fill:#FFFFFF; fill-opacity:1.0000; 
stroke:#FFFFFF; stroke-width:0.0212; stroke-opacity:1; 
stroke-linecap:round; stroke-linejoin:round;">
<g >
</g>
<g >
</g>
<g >
</g>
<g >
</g>
</g>
<g style="fill:#FFFFFF; fill-opacity:1.0000; 
stroke:#FFFFFF; stroke-width:0.0212; stroke-opacity:1; 
stroke-linecap:round; stroke-linejoin:round;">
<g >
</g>
<g >
</g>
<g >
</g>
<g >
</g>
</g>
<g style="fill:#FFFFFF; fill-opacity:1.0000; 
stroke:#FFFFFF; stroke-width:0.0212; stroke-opacity:1; 
stroke-linecap:round; stroke-linejoin:round;">
<g >
</g>
<g >
</g>
<g >
</g>
<g >
</g>
</g>
<g style="fill:#FFFFFF; fill-opacity:1.0000; 
stroke:#FFFFFF; stroke-width:0.0212; stroke-opacity:1; 
stroke-linecap:round; stroke-linejoin:round;">
<g >
</g>
<g >
</g>
<g >
</g>
<g >
</g>
</g>
<g style="fill:#FFFFFF; fill-opacity:1.0000; 
stroke:#FFFFFF; stroke-width:0.0212; stroke-opacity:1; 
stroke-linecap:round; stroke-linejoin:round;">
<g >
</g>
<g >
</g>
<g >
</g>
<g >
</g>
</g>
<g style="fill:#FFFFFF; fill-opacity:1.0000; 
stroke:#FFFFFF; stroke-width:0.0212; stroke-opacity:1; 
stroke-linecap:round; stroke-linejoin:round;">
<g >
</g>
<g style="fill:#37CBCB; fill-opacity:1.0000; 
stroke:#37CBCB; stroke-width:0.0212; stroke-opacity:1; 
stroke-linecap:round; stroke-linejoin:round;">
</g>
<g style="fill:#37CBCB; fill-opacity:1.0000; 
stroke:#37CBCB; stroke-width:0.0000; stroke-opacity:1; 
stroke-linecap:round; stroke-linejoin:round;">
<path style="fill:#37CBCB; fill-opacity:1.0000; 
stroke:#37CBCB; stroke-width:0.0000; stroke-opacity:1; 
stroke-linecap:round; stroke-linejoin:round;fill-rule:evenodd;"
d="M 4.5135,8.3038
4.6091,8.3228
4.6901,8.3770
4.7442,8.4580
4.7633,8.5536
4.7633,9.1641
4.7442,9.2596
4.6901,9.3407
4.6091,9.3948
4.5135,9.4138
2.2830,9.4138
2.1874,9.3948
2.1064,9.3407
2.0523,9.2596
2.0332,9.1641
2.0332,8.5536
2.0523,8.4580
2.1064,8.3770
2.1874,8.3228
2.2830,8.3038
Z" /> 
<path style="fill:#37CBCB; fill-opacity:1.0000; 
stroke:#37CBCB; stroke-width:0.0000; stroke-opacity:1; 
stroke-linecap:round; stroke-linejoin:round;fill-rule:evenodd;"
d="M 4.5135,13.3838
4.6091,13.4028
4.6901,13.4570
4.7442,13.5380
4.7633,13.6336
4.7633,14.2441
4.7442,14.3396
4.6901,14.4207
4.6091,14.4748
4.5135,14.4938
2.2830,14.4938
2.1874,14.4748
2.1064,14.4207
2.0523,14.3396
2.0332,14.2441
2.0332,13.6336
2.0523,13.5380
2.1064,13.4570
2.1874,13.4028
2.2830,13.3838
Z" /> 
<path style="fill:#37CBCB; fill-opacity:1.0000; 
stroke:#37CBCB; stroke-width:0.0000; stroke-opacity:1; 
stroke-linecap:round; stroke-linejoin:round;fill-rule:evenodd;"
d="M 4.5135,15.9238
4.6091,15.9428
4.6901,15.9970
4.7442,16.0780
4.7633,16.1736
4.7633,16.7841
4.7442,16.8796
4.6901,16.9607
4.6091,17.0148
4.5135,17.0338
2.2830,17.0338
2.1874,17.0148
2.1064,16.9607
2.0523,16.8796
2.0332,16.7841
2.0332,16.1736
2.0523,16.0780
2.1064,15.9970
2.1874,15.9428
2.2830,15.9238
Z" /> 
<path style="fill:#37CBCB; fill-opacity:1.0000; 
stroke:#37CBCB; stroke-width:0.0000; stroke-opacity:1; 
stroke-linecap:round; stroke-linejoin:round;fill-rule:evenodd;"
d="M 4.5135,18.4638
4.6091,18.4828
4.6901,18.5370
4.7442,18.6180
4.7633,18.7136
4.7633,19.3241
4.7442,19.4196
4.6901,19.5007
4.6091,19.5548
4.5135,19.5738
2.2830,19.5738
2.1874,19.5548
2.1064,19.5007
2.0523,19.4196
2.0332,19.3241
2.0332,18.7136
2.0523,18.6180
2.1064,18.5370
2.1874,18.4828
2.2830,18.4638
Z" /> 
<path style="fill:#37CBCB; fill-opacity:1.0000; 
stroke:#37CBCB; stroke-width:0.0000; stroke-opacity:1; 
stroke-linecap:round; stroke-linejoin:round;fill-rule:evenodd;"
d="M 4.5135,21.0038
4.6091,21.0228
4.6901,21.0770
4.7442,21.1580
4.7633,21.2536
4.7633,21.8641
4.7442,21.9596
4.6901,22.0407
4.6091,22.0948
4.5135,22.1138
2.2830,22.1138
2.1874,22.0948
2.1064,22.0407
2.0523,21.9596
2.0332,21.8641
2.0332,21.2536
2.0523,21.1580
2.1064,21.0770
2.1874,21.0228
2.2830,21.0038
Z" /> 
<path style="fill:#37CBCB; fill-opacity:1.0000; 
stroke:#37CBCB; stroke-width:0.0000; stroke-opacity:1; 
stroke-linecap:round; stroke-linejoin:round;fill-rule:evenodd;"
d="M 11.5335,21.0038
11.6291,21.0228
11.7101,21.0770
11.7642,21.1580
11.7832,21.2536
11.7832,21.8641
11.7642,21.9596
11.7101,22.0407
11.6291,22.0948
11.5335,22.1138
9.3030,22.1138
9.2074,22.0948
9.1264,22.0407
9.0723,21.9596
9.0533,21.8641
9.0533,21.2536
9.0723,21.1580
9.1264,21.0770
9.2074,21.0228
9.3030,21.0038
Z" /> 
<path style="fill:#37CBCB; fill-opacity:1.0000; 
stroke:#37CBCB; stroke-width:0.0000; stroke-opacity:1; 
stroke-linecap:round; stroke-linejoin:round;fill-rule:evenodd;"
d="M 11.5335,18.4638
11.6291,18.4828
11.7101,18.5370
11.7642,18.6180
11.7832,18.7136
11.7832,19.3241
11.7642,19.4196
11.7101,19.5007
11.6291,19.5548
11.5335,19.5738
9.3030,19.5738
9.2074,19.5548
9.1264,19.5007
9.0723,19.4196
9.0533,19.3241
9.0533,18.7136
9.0723,18.6180
9.1264,18.5370
9.2074,18.4828
9.3030,18.4638
Z" /> 
<path style="fill:#37CBCB; fill-opacity:1.0000; 
stroke:#37CBCB; stroke-width:0.0000; stroke-opacity:1; 
stroke-linecap:round; stroke-linejoin:round;fill-rule:evenodd;"
d="M 11.5335,15.9238
11.6291,15.9428
11.7101,15.9970
11.7642,16.0780
11.7832,16.1736
11.7832,16.7841
11.7642,16.8796
11.7101,16.9607
11.6291,17.0148
11.5335,17.0338
9.3030,17.0338
9.2074,17.0148
9.1264,16.9607
9.0723,16.8796
9.0533,16.7841
9.0533,16.1736
9.0723,16.0780
9.1264,15.9970
9.2074,15.9428
9.3030,15.9238
Z" /> 
<path style="fill:#37CBCB; fill-opacity:1.0000; 
stroke:#37CBCB; stroke-width:0.0000; stroke-opacity:1; 
stroke-linecap:round; stroke-linejoin:round;fill-rule:evenodd;"
d="M 11.5335,13.3838
11.6291,13.4028
11.7101,13.4570
11.7642,13.5380
11.7832,13.6336
11.7832,14.2441
11.7642,14.3396
11.7101,14.4207
11.6291,14.4748
11.5335,14.4938
9.3030,14.4938
9.2074,14.4748
9.1264,14.4207
9.0723,14.3396
9.0533,14.2441
9.0533,13.6336
9.0723,13.5380
9.1264,13.4570
9.2074,13.4028
9.3030,13.3838
Z" /> 
<path style="fill:#37CBCB; fill-opacity:1.0000; 
stroke:#37CBCB; stroke-width:0.0000; stroke-opacity:1; 
stroke-linecap:round; stroke-linejoin:round;fill-rule:evenodd;"
d="M 11.5335,8.3038
11.6291,8.3228
11.7101,8.3770
11.7642,8.4580
11.7832,8.5536
11.7832,9.1641
11.7642,9.2596
11.7101,9.3407
11.6291,9.3948
11.5335,9.4138
9.3030,9.4138
9.2074,9.3948
9.1264,9.3407
9.0723,9.2596
9.0533,9.1641
9.0533,8.5536
9.0723,8.4580
9.1264,8.3770
9.2074,8.3228
9.3030,8.3038
Z" /> 
</g>
<g >
</g>
<g >
</g>
<g >
</g>
</g>
<g style="fill:#FFFFFF; fill-opacity:1.0000; 
stroke:#FFFFFF; stroke-width:0.0000; stroke-opacity:1; 
stroke-linecap:round; stroke-linejoin:round;">
<g >
</g>
<g style="fill:#4A5F65; fill-opacity:0.9000; 
stroke:#4A5F65; stroke-width:0.0000; stroke-opacity:1; 
stroke-linecap:round; stroke-linejoin:round;">
<path style="fill:#4A5F65; fill-opacity:0.9000; 
stroke:#4A5F65; stroke-width:0.0000; stroke-opacity:1; 
stroke-linecap:round; stroke-linejoin:round;fill-rule:evenodd;"
d="M 4.5135,8.3038
4.6091,8.3228
4.6901,8.3770
4.7442,8.4580
4.7633,8.5536
4.7633,9.1641
4.7442,9.2596
4.6901,9.3407
4.6091,9.3948
4.5135,9.4138
2.2830,9.4138
2.1874,9.3948
2.1064,9.3407
2.0523,9.2596
2.0332,9.1641
2.0332,8.5536
2.0523,8.4580
2.1064,8.3770
2.1874,8.3228
2.2830,8.3038
Z" /> 
<path style="fill:#4A5F65; fill-opacity:0.9000; 
stroke:#4A5F65; stroke-width:0.0000; stroke-opacity:1; 
stroke-linecap:round; stroke-linejoin:round;fill-rule:evenodd;"
d="M 4.5135,13.3838
4.6091,13.4028
4.6901,13.4570
4.7442,13.5380
4.7633,13.6336
4.7633,14.2441
4.7442,14.3396
4.6901,14.4207
4.6091,14.4748
4.5135,14.4938
2.2830,14.4938
2.1874,14.4748
2.1064,14.4207
2.0523,14.3396
2.0332,14.2441
2.0332,13.6336
2.0523,13.5380
2.1064,13.4570
2.1874,13.4028
2.2830,13.3838
Z" /> 
<path style="fill:#4A5F65; fill-opacity:0.9000; 
stroke:#4A5F65; stroke-width:0.0000; stroke-opacity:1; 
stroke-linecap:round; stroke-linejoin:round;fill-rule:evenodd;"
d="M 4.5135,15.9238
4.6091,15.9428
4.6901,15.9970
4.7442,16.0780
4.7633,16.1736
4.7633,16.7841
4.7442,16.8796
4.6901,16.9607
4.6091,17.0148
4.5135,17.0338
2.2830,17.0338
2.1874,17.0148
2.1064,16.9607
2.0523,16.8796
2.0332,16.7841
2.0332,16.1736
2.0523,16.0780
2.1064,15.9970
2.1874,15.9428
2.2830,15.9238
Z" /> 
<path style="fill:#4A5F65; fill-opacity:0.9000; 
stroke:#4A5F65; stroke-width:0.0000; stroke-opacity:1; 
stroke-linecap:round; stroke-linejoin:round;fill-rule:evenodd;"
d="M 4.5135,18.4638
4.6091,18.4828
4.6901,18.5370
4.7442,18.6180
4.7633,18.7136
4.7633,19.3241
4.7442,19.4196
4.6901,19.5007
4.6091,19.5548
4.5135,19.5738
2.2830,19.5738
2.1874,19.5548
2.1064,19.5007
2.0523,19.4196
2.0332,19.3241
2.0332,18.7136
2.0523,18.6180
2.1064,18.5370
2.1874,18.4828
2.2830,18.4638
Z" /> 
<path style="fill:#4A5F65; fill-opacity:0.9000; 
stroke:#4A5F65; stroke-width:0.0000; stroke-opacity:1; 
stroke-linecap:round; stroke-linejoin:round;fill-rule:evenodd;"
d="M 4.5135,21.0038
4.6091,21.0228
4.6901,21.0770
4.7442,21.1580
4.7633,21.2536
4.7633,21.8641
4.7442,21.9596
4.6901,22.0407
4.6091,22.0948
4.5135,22.1138
2.2830,22.1138
2.1874,22.0948
2.1064,22.0407
2.0523,21.9596
2.0332,21.8641
2.0332,21.2536
2.0523,21.1580
2.1064,21.0770
2.1874,21.0228
2.2830,21.0038
Z" /> 
<path style="fill:#4A5F65; fill-opacity:0.9000; 
stroke:#4A5F65; stroke-width:0.0000; stroke-opacity:1; 
stroke-linecap:round; stroke-linejoin:round;fill-rule:evenodd;"
d="M 11.5335,21.0038
11.6291,21.0228
11.7101,21.0770
11.7642,21.1580
11.7832,21.2536
11.7832,21.8641
11.7642,21.9596
11.7101,22.0407
11.6291,22.0948
11.5335,22.1138
9.3030,22.1138
9.2074,22.0948
9.1264,22.0407
9.0723,21.9596
9.0533,21.8641
9.0533,21.2536
9.0723,21.1580
9.1264,21.0770
9.2074,21.0228
9.3030,21.0038
Z" /> 
<path style="fill:#4A5F65; fill-opacity:0.9000; 
stroke:#4A5F65; stroke-width:0.0000; stroke-opacity:1; 
stroke-linecap:round; stroke-linejoin:round;fill-rule:evenodd;"
d="M 11.5335,18.4638
11.6291,18.4828
11.7101,18.5370
11.7642,18.6180
11.7832,18.7136
11.7832,19.3241
11.7642,19.4196
11.7101,19.5007
11.6291,19.5548
11.5335,19.5738
9.3030,19.5738
9.2074,19.5548
9.1264,19.5007
9.0723,19.4196
9.0533,19.3241
9.0533,18.7136
9.0723,18.6180
9.1264,18.5370
9.2074,18.4828
9.3030,18.4638
Z" /> 
<path style="fill:#4A5F65; fill-opacity:0.9000; 
stroke:#4A5F65; stroke-width:0.0000; stroke-opacity:1; 
stroke-linecap:round; stroke-linejoin:round;fill-rule:evenodd;"
d="M 11.5335,15.9238
11.6291,15.9428
11.7101,15.9970
11.7642,16.0780
11.7832,16.1736
11.7832,16.7841
11.7642,16.8796
11.7101,16.9607
11.6291,17.0148
11.5335,17.0338
9.3030,17.0338
9.2074,17.0148
9.1264,16.9607
9.0723,16.8796
9.0533,16.7841
9.0533,16.1736
9.0723,16.0780
9.1264,15.9970
9.2074,15.9428
9.3030,15.9238
Z" /> 
<path style="fill:#4A5F65; fill-opacity:0.9000; 
stroke:#4A5F65; stroke-width:0.0000; stroke-opacity:1; 
stroke-linecap:round; stroke-linejoin:round;fill-rule:evenodd;"
d="M 11.5335,13.3838
11.6291,13.4028
11.7101,13.4570
11.7642,13.5380
11.7832,13.6336
11.7832,14.2441
11.7642,14.3396
11.7101,14.4207
11.6291,14.4748
11.5335,14.4938
9.3030,14.4938
9.2074,14.4748
9.1264,14.4207
9.0723,14.3396
9.0533,14.2441
9.0533,13.6336
9.0723,13.5380
9.1264,13.4570
9.2074,13.4028
9.3030,13.3838
Z" /> 
<path style="fill:#4A5F65; fill-opacity:0.9000; 
stroke:#4A5F65; stroke-width:0.0000; stroke-opacity:1; 
stroke-linecap:round; stroke-linejoin:round;fill-rule:evenodd;"
d="M 11.5335,8.3038
11.6291,8.3228
11.7101,8.3770
11.7642,8.4580
11.7832,8.5536
11.7832,9.1641
11.7642,9.2596
11.7101,9.3407
11.6291,9.3948
11.5335,9.4138
9.3030,9.4138
9.2074,9.3948
9.1264,9.3407
9.0723,9.2596
9.0533,9.1641
9.0533,8.5536
9.0723,8.4580
9.1264,8.3770
9.2074,8.3228
9.3030,8.3038
Z" /> 
</g>
<g >
</g>
<g >
</g>
<g >
</g>
</g>
<g style="fill:#FFFFFF; fill-opacity:1.0000; 
stroke:#FFFFFF; stroke-width:0.0000; stroke-opacity:1; 
stroke-linecap:round; stroke-linejoin:round;">
</g>
<g style="fill:#0D115E; fill-opacity:1.0000; 
stroke:#0D115E; stroke-width:0.0000; stroke-opacity:1; 
stroke-linecap:round; stroke-linejoin:round;">
</g>
<g style="fill:#0D115E; fill-opacity:1.0000; 
stroke:#0D115E; stroke-width:0.1500; stroke-opacity:1; 
stroke-linecap:round; stroke-linejoin:round;">
</g>
<g style="fill:#0D115E; fill-opacity:0.0; 
stroke:#0D115E; stroke-width:0.1500; stroke-opacity:1; 
stroke-linecap:round; stroke-linejoin:round;">
<text x="6.9082" y="6.7088"
textLength="4.5357" font-size="1.3333" lengthAdjust="spacingAndGlyphs"
text-anchor="middle" opacity="0">REF**</text>
<g class="stroked-text"><desc>REF**</desc>
<path d="M5.5749 6.6636
L5.2416 6.1874
" />
<path d="M5.0035 6.6636
L5.0035 5.6636
" />
<path d="M5.0035 5.6636
L5.3844 5.6636
" />
<path d="M5.3844 5.6636
L5.4797 5.7113
" />
<path d="M5.4797 5.7113
L5.5273 5.7589
" />
<path d="M5.5273 5.7589
L5.5749 5.8541
" />
<path d="M5.5749 5.8541
L5.5749 5.9970
" />
<path d="M5.5749 5.9970
L5.5273 6.0922
" />
<path d="M5.5273 6.0922
L5.4797 6.1398
" />
<path d="M5.4797 6.1398
L5.3844 6.1874
" />
<path d="M5.3844 6.1874
L5.0035 6.1874
" />
<path d="M6.0035 6.1398
L6.3368 6.1398
" />
<path d="M6.4797 6.6636
L6.0035 6.6636
" />
<path d="M6.0035 6.6636
L6.0035 5.6636
" />
<path d="M6.0035 5.6636
L6.4797 5.6636
" />
<path d="M7.2416 6.1398
L6.9082 6.1398
" />
<path d="M6.9082 6.6636
L6.9082 5.6636
" />
<path d="M6.9082 5.6636
L7.3844 5.6636
" />
<path d="M7.9082 5.6636
L7.9082 5.9017
" />
<path d="M7.6702 5.8065
L7.9082 5.9017
" />
<path d="M7.9082 5.9017
L8.1463 5.8065
" />
<path d="M7.7654 6.0922
L7.9082 5.9017
" />
<path d="M7.9082 5.9017
L8.0511 6.0922
" />
<path d="M8.6702 5.6636
L8.6702 5.9017
" />
<path d="M8.4321 5.8065
L8.6702 5.9017
" />
<path d="M8.6702 5.9017
L8.9082 5.8065
" />
<path d="M8.5273 6.0922
L8.6702 5.9017
" />
<path d="M8.6702 5.9017
L8.8130 6.0922
" />
</g></g>
<g style="fill:#0D115E; fill-opacity:0.0; 
stroke:#0D115E; stroke-width:0.1200; stroke-opacity:1; 
stroke-linecap:round; stroke-linejoin:round;">
<path d="M6.4982 8.2588
L6.4982 9.4588
" />
<path d="M6.4982 21.7588
L7.1982 21.3588
" />
<path d="M6.4982 20.9588
L6.4982 22.1588
" />
<path d="M3.0182 7.5688
L3.0182 8.0288
" />
<path d="M6.4982 9.0588
L7.1982 8.6588
" />
<path d="M7.1982 20.9588
L6.4982 20.9588
" />
<path d="M7.1982 8.2588
L6.4982 8.2588
" />
<path d="M7.1982 9.4588
L7.1982 8.2588
" />
<path d="M10.7982 9.6888
L10.7982 13.1088
" />
<path d="M3.0182 9.6888
L2.0882 9.6888
" />
<path d="M3.0182 22.3888
L3.0182 22.8488
" />
<path d="M6.4982 9.4588
L7.1982 9.4588
" />
<path d="M3.0182 8.0288
L2.0882 8.0288
" />
<path d="M3.0182 9.6888
L3.0182 13.1088
" />
<path d="M10.7982 7.5688
L10.7982 8.0288
" />
<path d="M10.7982 22.3888
L10.7982 22.8488
" />
<path d="M10.7982 7.5688
L3.0182 7.5688
" />
<path d="M10.7982 22.8488
L3.0182 22.8488
" />
<path d="M7.1982 22.1588
L7.1982 20.9588
" />
<path d="M6.4982 22.1588
L7.1982 22.1588
" />
<g >
</g>
<g >
</g>
<g >
</g>
<g >
</g>
</g> 
</svg>
