<?xml version="1.0" standalone="no"?>
 <!DOCTYPE svg PUBLIC "-//W3C//DTD SVG 1.1//EN" 
 "http://www.w3.org/Graphics/SVG/1.1/DTD/svg11.dtd"> 
<svg
  xmlns:svg="http://www.w3.org/2000/svg"
  xmlns="http://www.w3.org/2000/svg"
  xmlns:xlink="http://www.w3.org/1999/xlink"
  version="1.1"
  width="125.6030mm" height="42.6720mm" viewBox="0.0000 0.0000 125.6030 42.6720">
<title>SVG Image created as l298p.svg date 2024/01/16 15:09:25 </title>
  <desc>Image generated by Eeschema-SVG </desc>
<g style="fill:#000000; fill-opacity:1.0000;stroke:#000000; stroke-opacity:1.0000;
stroke-linecap:round; stroke-linejoin:round;"
 transform="translate(0 0) scale(1 1)">
</g>
<g style="fill:#840000; fill-opacity:0.0; 
stroke:#840000; stroke-width:0.0000; stroke-opacity:1; 
stroke-linecap:round; stroke-linejoin:round;">
</g>
<g style="fill:#FFFFC2; fill-opacity:0.0; 
stroke:#FFFFC2; stroke-width:0.0000; stroke-opacity:1; 
stroke-linecap:round; stroke-linejoin:round;">
</g>
<g style="fill:#FFFFC2; fill-opacity:1.0000; 
stroke:#FFFFC2; stroke-width:0.0000; stroke-opacity:1; 
stroke-linecap:round; stroke-linejoin:round;">
<rect x="50.101500" y="6.096000" width="25.400000" height="30.480000" rx="0.000000" />
</g>
<g style="fill:#840084; fill-opacity:1.0000; 
stroke:#840084; stroke-width:0.0000; stroke-opacity:1; 
stroke-linecap:round; stroke-linejoin:round;">
</g>
<g style="fill:#840000; fill-opacity:1.0000; 
stroke:#840000; stroke-width:0.0000; stroke-opacity:1; 
stroke-linecap:round; stroke-linejoin:round;">
</g>
<g style="fill:#840000; fill-opacity:0.0; 
stroke:#840000; stroke-width:0.2540; stroke-opacity:1; 
stroke-linecap:round; stroke-linejoin:round;">
<rect x="50.101500" y="6.096000" width="25.400000" height="30.480000" rx="0.000000" />
</g>
<g style="fill:#840000; fill-opacity:0.0; 
stroke:#840000; stroke-width:0.1524; stroke-opacity:1; 
stroke-linecap:round; stroke-linejoin:round;">
<path d="M60.2615 36.5760
L60.2615 39.1160
" />
</g>
<g style="fill:#006464; fill-opacity:0.0; 
stroke:#006464; stroke-width:0.1524; stroke-opacity:1; 
stroke-linecap:round; stroke-linejoin:round;">
<g transform="rotate(-90.000000 60.2615 35.5600)">
<text x="60.2615" y="36.1950"
textLength="4.0737" font-size="1.6933" lengthAdjust="spacingAndGlyphs"
text-anchor="start" opacity="0">GND</text>
</g>
<g class="stroked-text"><desc>GND</desc>
<path d="M59.6315 34.4921
L59.5710 34.6131
" />
<path d="M59.5710 34.6131
L59.5710 34.7945
" />
<path d="M59.5710 34.7945
L59.6315 34.9759
" />
<path d="M59.6315 34.9759
L59.7525 35.0969
" />
<path d="M59.7525 35.0969
L59.8734 35.1574
" />
<path d="M59.8734 35.1574
L60.1153 35.2178
" />
<path d="M60.1153 35.2178
L60.2967 35.2178
" />
<path d="M60.2967 35.2178
L60.5386 35.1574
" />
<path d="M60.5386 35.1574
L60.6596 35.0969
" />
<path d="M60.6596 35.0969
L60.7806 34.9759
" />
<path d="M60.7806 34.9759
L60.8410 34.7945
" />
<path d="M60.8410 34.7945
L60.8410 34.6736
" />
<path d="M60.8410 34.6736
L60.7806 34.4921
" />
<path d="M60.7806 34.4921
L60.7201 34.4317
" />
<path d="M60.7201 34.4317
L60.2967 34.4317
" />
<path d="M60.2967 34.4317
L60.2967 34.6736
" />
<path d="M60.8410 33.8874
L59.5710 33.8874
" />
<path d="M59.5710 33.8874
L60.8410 33.1617
" />
<path d="M60.8410 33.1617
L59.5710 33.1617
" />
<path d="M60.8410 32.5569
L59.5710 32.5569
" />
<path d="M59.5710 32.5569
L59.5710 32.2545
" />
<path d="M59.5710 32.2545
L59.6315 32.0731
" />
<path d="M59.6315 32.0731
L59.7525 31.9521
" />
<path d="M59.7525 31.9521
L59.8734 31.8916
" />
<path d="M59.8734 31.8916
L60.1153 31.8312
" />
<path d="M60.1153 31.8312
L60.2967 31.8312
" />
<path d="M60.2967 31.8312
L60.5386 31.8916
" />
<path d="M60.5386 31.8916
L60.6596 31.9521
" />
<path d="M60.6596 31.9521
L60.7806 32.0731
" />
<path d="M60.7806 32.0731
L60.8410 32.2545
" />
<path d="M60.8410 32.2545
L60.8410 32.5569
" />
</g></g>
<g style="fill:#A90000; fill-opacity:0.0; 
stroke:#A90000; stroke-width:0.1524; stroke-opacity:1; 
stroke-linecap:round; stroke-linejoin:round;">
<g transform="rotate(-90.000000 60.0075 37.8460)">
<text x="60.0075" y="37.8460"
textLength="1.4127" font-size="1.6933" lengthAdjust="spacingAndGlyphs"
text-anchor="middle" opacity="0">1</text>
</g>
<g class="stroked-text"><desc>1</desc>
<path d="M59.8440 37.4830
L59.8440 38.2087
" />
<path d="M59.8440 37.8459
L58.5740 37.8459
" />
<path d="M58.5740 37.8459
L58.7555 37.9668
" />
<path d="M58.7555 37.9668
L58.8764 38.0878
" />
<path d="M58.8764 38.0878
L58.9369 38.2087
" />
</g></g>
<g style="fill:#840000; fill-opacity:0.0; 
stroke:#840000; stroke-width:0.1524; stroke-opacity:1; 
stroke-linecap:round; stroke-linejoin:round;">
<path d="M62.8015 36.5760
L62.8015 39.1160
" />
</g>
<g style="fill:#006464; fill-opacity:0.0; 
stroke:#006464; stroke-width:0.1524; stroke-opacity:1; 
stroke-linecap:round; stroke-linejoin:round;">
<g transform="rotate(-90.000000 62.8015 35.5600)">
<text x="62.8015" y="36.1950"
textLength="4.0737" font-size="1.6933" lengthAdjust="spacingAndGlyphs"
text-anchor="start" opacity="0">GND</text>
</g>
<g class="stroked-text"><desc>GND</desc>
<path d="M62.1715 34.4921
L62.1110 34.6131
" />
<path d="M62.1110 34.6131
L62.1110 34.7945
" />
<path d="M62.1110 34.7945
L62.1715 34.9759
" />
<path d="M62.1715 34.9759
L62.2925 35.0969
" />
<path d="M62.2925 35.0969
L62.4134 35.1574
" />
<path d="M62.4134 35.1574
L62.6553 35.2178
" />
<path d="M62.6553 35.2178
L62.8367 35.2178
" />
<path d="M62.8367 35.2178
L63.0786 35.1574
" />
<path d="M63.0786 35.1574
L63.1996 35.0969
" />
<path d="M63.1996 35.0969
L63.3206 34.9759
" />
<path d="M63.3206 34.9759
L63.3810 34.7945
" />
<path d="M63.3810 34.7945
L63.3810 34.6736
" />
<path d="M63.3810 34.6736
L63.3206 34.4921
" />
<path d="M63.3206 34.4921
L63.2601 34.4317
" />
<path d="M63.2601 34.4317
L62.8367 34.4317
" />
<path d="M62.8367 34.4317
L62.8367 34.6736
" />
<path d="M63.3810 33.8874
L62.1110 33.8874
" />
<path d="M62.1110 33.8874
L63.3810 33.1617
" />
<path d="M63.3810 33.1617
L62.1110 33.1617
" />
<path d="M63.3810 32.5569
L62.1110 32.5569
" />
<path d="M62.1110 32.5569
L62.1110 32.2545
" />
<path d="M62.1110 32.2545
L62.1715 32.0731
" />
<path d="M62.1715 32.0731
L62.2925 31.9521
" />
<path d="M62.2925 31.9521
L62.4134 31.8916
" />
<path d="M62.4134 31.8916
L62.6553 31.8312
" />
<path d="M62.6553 31.8312
L62.8367 31.8312
" />
<path d="M62.8367 31.8312
L63.0786 31.8916
" />
<path d="M63.0786 31.8916
L63.1996 31.9521
" />
<path d="M63.1996 31.9521
L63.3206 32.0731
" />
<path d="M63.3206 32.0731
L63.3810 32.2545
" />
<path d="M63.3810 32.2545
L63.3810 32.5569
" />
</g></g>
<g style="fill:#A90000; fill-opacity:0.0; 
stroke:#A90000; stroke-width:0.1524; stroke-opacity:1; 
stroke-linecap:round; stroke-linejoin:round;">
<g transform="rotate(-90.000000 62.5475 37.8460)">
<text x="62.5475" y="37.8460"
textLength="2.6222" font-size="1.6933" lengthAdjust="spacingAndGlyphs"
text-anchor="middle" opacity="0">10</text>
</g>
<g class="stroked-text"><desc>10</desc>
<path d="M62.3840 38.0878
L62.3840 38.8135
" />
<path d="M62.3840 38.4507
L61.1140 38.4507
" />
<path d="M61.1140 38.4507
L61.2955 38.5716
" />
<path d="M61.2955 38.5716
L61.4164 38.6926
" />
<path d="M61.4164 38.6926
L61.4769 38.8135
" />
<path d="M61.1140 37.3017
L61.1140 37.1807
" />
<path d="M61.1140 37.1807
L61.1745 37.0598
" />
<path d="M61.1745 37.0598
L61.2350 36.9993
" />
<path d="M61.2350 36.9993
L61.3559 36.9388
" />
<path d="M61.3559 36.9388
L61.5978 36.8783
" />
<path d="M61.5978 36.8783
L61.9002 36.8783
" />
<path d="M61.9002 36.8783
L62.1421 36.9388
" />
<path d="M62.1421 36.9388
L62.2631 36.9993
" />
<path d="M62.2631 36.9993
L62.3236 37.0598
" />
<path d="M62.3236 37.0598
L62.3840 37.1807
" />
<path d="M62.3840 37.1807
L62.3840 37.3017
" />
<path d="M62.3840 37.3017
L62.3236 37.4226
" />
<path d="M62.3236 37.4226
L62.2631 37.4831
" />
<path d="M62.2631 37.4831
L62.1421 37.5436
" />
<path d="M62.1421 37.5436
L61.9002 37.6040
" />
<path d="M61.9002 37.6040
L61.5978 37.6040
" />
<path d="M61.5978 37.6040
L61.3559 37.5436
" />
<path d="M61.3559 37.5436
L61.2350 37.4831
" />
<path d="M61.2350 37.4831
L61.1745 37.4226
" />
<path d="M61.1745 37.4226
L61.1140 37.3017
" />
</g></g>
<g style="fill:#840000; fill-opacity:0.0; 
stroke:#840000; stroke-width:0.1524; stroke-opacity:1; 
stroke-linecap:round; stroke-linejoin:round;">
<path d="M65.3415 36.5760
L65.3415 39.1160
" />
</g>
<g style="fill:#006464; fill-opacity:0.0; 
stroke:#006464; stroke-width:0.1524; stroke-opacity:1; 
stroke-linecap:round; stroke-linejoin:round;">
<g transform="rotate(-90.000000 65.3415 35.5600)">
<text x="65.3415" y="36.1950"
textLength="4.0737" font-size="1.6933" lengthAdjust="spacingAndGlyphs"
text-anchor="start" opacity="0">GND</text>
</g>
<g class="stroked-text"><desc>GND</desc>
<path d="M64.7115 34.4921
L64.6510 34.6131
" />
<path d="M64.6510 34.6131
L64.6510 34.7945
" />
<path d="M64.6510 34.7945
L64.7115 34.9759
" />
<path d="M64.7115 34.9759
L64.8325 35.0969
" />
<path d="M64.8325 35.0969
L64.9534 35.1574
" />
<path d="M64.9534 35.1574
L65.1953 35.2178
" />
<path d="M65.1953 35.2178
L65.3767 35.2178
" />
<path d="M65.3767 35.2178
L65.6186 35.1574
" />
<path d="M65.6186 35.1574
L65.7396 35.0969
" />
<path d="M65.7396 35.0969
L65.8606 34.9759
" />
<path d="M65.8606 34.9759
L65.9210 34.7945
" />
<path d="M65.9210 34.7945
L65.9210 34.6736
" />
<path d="M65.9210 34.6736
L65.8606 34.4921
" />
<path d="M65.8606 34.4921
L65.8001 34.4317
" />
<path d="M65.8001 34.4317
L65.3767 34.4317
" />
<path d="M65.3767 34.4317
L65.3767 34.6736
" />
<path d="M65.9210 33.8874
L64.6510 33.8874
" />
<path d="M64.6510 33.8874
L65.9210 33.1617
" />
<path d="M65.9210 33.1617
L64.6510 33.1617
" />
<path d="M65.9210 32.5569
L64.6510 32.5569
" />
<path d="M64.6510 32.5569
L64.6510 32.2545
" />
<path d="M64.6510 32.2545
L64.7115 32.0731
" />
<path d="M64.7115 32.0731
L64.8325 31.9521
" />
<path d="M64.8325 31.9521
L64.9534 31.8916
" />
<path d="M64.9534 31.8916
L65.1953 31.8312
" />
<path d="M65.1953 31.8312
L65.3767 31.8312
" />
<path d="M65.3767 31.8312
L65.6186 31.8916
" />
<path d="M65.6186 31.8916
L65.7396 31.9521
" />
<path d="M65.7396 31.9521
L65.8606 32.0731
" />
<path d="M65.8606 32.0731
L65.9210 32.2545
" />
<path d="M65.9210 32.2545
L65.9210 32.5569
" />
</g></g>
<g style="fill:#A90000; fill-opacity:0.0; 
stroke:#A90000; stroke-width:0.1524; stroke-opacity:1; 
stroke-linecap:round; stroke-linejoin:round;">
<g transform="rotate(-90.000000 65.0875 37.8460)">
<text x="65.0875" y="37.8460"
textLength="2.6222" font-size="1.6933" lengthAdjust="spacingAndGlyphs"
text-anchor="middle" opacity="0">11</text>
</g>
<g class="stroked-text"><desc>11</desc>
<path d="M64.9240 38.0878
L64.9240 38.8135
" />
<path d="M64.9240 38.4507
L63.6540 38.4507
" />
<path d="M63.6540 38.4507
L63.8355 38.5716
" />
<path d="M63.8355 38.5716
L63.9564 38.6926
" />
<path d="M63.9564 38.6926
L64.0169 38.8135
" />
<path d="M64.9240 36.8783
L64.9240 37.6040
" />
<path d="M64.9240 37.2412
L63.6540 37.2412
" />
<path d="M63.6540 37.2412
L63.8355 37.3621
" />
<path d="M63.8355 37.3621
L63.9564 37.4831
" />
<path d="M63.9564 37.4831
L64.0169 37.6040
" />
</g></g>
<g style="fill:#840000; fill-opacity:0.0; 
stroke:#840000; stroke-width:0.1524; stroke-opacity:1; 
stroke-linecap:round; stroke-linejoin:round;">
<path d="M62.8015 6.0960
L62.8015 3.5560
" />
</g>
<g style="fill:#006464; fill-opacity:0.0; 
stroke:#006464; stroke-width:0.1524; stroke-opacity:1; 
stroke-linecap:round; stroke-linejoin:round;">
<g transform="rotate(-90.000000 62.8015 7.1120)">
<text x="62.8015" y="7.7470"
textLength="3.3480" font-size="1.6933" lengthAdjust="spacingAndGlyphs"
text-anchor="end" opacity="0">Vss</text>
</g>
<g class="stroked-text"><desc>Vss</desc>
<path d="M62.1110 10.2360
L63.3810 9.8127
" />
<path d="M63.3810 9.8127
L62.1110 9.3893
" />
<path d="M63.3206 9.0264
L63.3810 8.9055
" />
<path d="M63.3810 8.9055
L63.3810 8.6636
" />
<path d="M63.3810 8.6636
L63.3206 8.5426
" />
<path d="M63.3206 8.5426
L63.1996 8.4822
" />
<path d="M63.1996 8.4822
L63.1391 8.4822
" />
<path d="M63.1391 8.4822
L63.0182 8.5426
" />
<path d="M63.0182 8.5426
L62.9577 8.6636
" />
<path d="M62.9577 8.6636
L62.9577 8.8450
" />
<path d="M62.9577 8.8450
L62.8972 8.9660
" />
<path d="M62.8972 8.9660
L62.7763 9.0264
" />
<path d="M62.7763 9.0264
L62.7158 9.0264
" />
<path d="M62.7158 9.0264
L62.5948 8.9660
" />
<path d="M62.5948 8.9660
L62.5344 8.8450
" />
<path d="M62.5344 8.8450
L62.5344 8.6636
" />
<path d="M62.5344 8.6636
L62.5948 8.5426
" />
<path d="M63.3206 7.9983
L63.3810 7.8774
" />
<path d="M63.3810 7.8774
L63.3810 7.6355
" />
<path d="M63.3810 7.6355
L63.3206 7.5145
" />
<path d="M63.3206 7.5145
L63.1996 7.4541
" />
<path d="M63.1996 7.4541
L63.1391 7.4541
" />
<path d="M63.1391 7.4541
L63.0182 7.5145
" />
<path d="M63.0182 7.5145
L62.9577 7.6355
" />
<path d="M62.9577 7.6355
L62.9577 7.8169
" />
<path d="M62.9577 7.8169
L62.8972 7.9379
" />
<path d="M62.8972 7.9379
L62.7763 7.9983
" />
<path d="M62.7763 7.9983
L62.7158 7.9983
" />
<path d="M62.7158 7.9983
L62.5948 7.9379
" />
<path d="M62.5948 7.9379
L62.5344 7.8169
" />
<path d="M62.5344 7.8169
L62.5344 7.6355
" />
<path d="M62.5344 7.6355
L62.5948 7.5145
" />
</g></g>
<g style="fill:#A90000; fill-opacity:0.0; 
stroke:#A90000; stroke-width:0.1524; stroke-opacity:1; 
stroke-linecap:round; stroke-linejoin:round;">
<g transform="rotate(-90.000000 62.5475 4.8260)">
<text x="62.5475" y="4.8260"
textLength="2.6222" font-size="1.6933" lengthAdjust="spacingAndGlyphs"
text-anchor="middle" opacity="0">12</text>
</g>
<g class="stroked-text"><desc>12</desc>
<path d="M62.3840 5.0678
L62.3840 5.7935
" />
<path d="M62.3840 5.4307
L61.1140 5.4307
" />
<path d="M61.1140 5.4307
L61.2955 5.5516
" />
<path d="M61.2955 5.5516
L61.4164 5.6726
" />
<path d="M61.4164 5.6726
L61.4769 5.7935
" />
<path d="M61.2350 4.5840
L61.1745 4.5236
" />
<path d="M61.1745 4.5236
L61.1140 4.4026
" />
<path d="M61.1140 4.4026
L61.1140 4.1002
" />
<path d="M61.1140 4.1002
L61.1745 3.9793
" />
<path d="M61.1745 3.9793
L61.2350 3.9188
" />
<path d="M61.2350 3.9188
L61.3559 3.8583
" />
<path d="M61.3559 3.8583
L61.4769 3.8583
" />
<path d="M61.4769 3.8583
L61.6583 3.9188
" />
<path d="M61.6583 3.9188
L62.3840 4.6445
" />
<path d="M62.3840 4.6445
L62.3840 3.8583
" />
</g></g>
<g style="fill:#840000; fill-opacity:0.0; 
stroke:#840000; stroke-width:0.1524; stroke-opacity:1; 
stroke-linecap:round; stroke-linejoin:round;">
<path d="M50.1015 18.7960
L47.5615 18.7960
" />
</g>
<g style="fill:#006464; fill-opacity:0.0; 
stroke:#006464; stroke-width:0.1524; stroke-opacity:1; 
stroke-linecap:round; stroke-linejoin:round;">
<text x="51.1175" y="19.4310"
textLength="3.3480" font-size="1.6933" lengthAdjust="spacingAndGlyphs"
text-anchor="start" opacity="0">IN3</text>
<g class="stroked-text"><desc>IN3</desc>
<path d="M51.5200 19.3755
L51.5200 18.1055
" />
<path d="M52.1248 19.3755
L52.1248 18.1055
" />
<path d="M52.1248 18.1055
L52.8505 19.3755
" />
<path d="M52.8505 19.3755
L52.8505 18.1055
" />
<path d="M53.3344 18.1055
L54.1206 18.1055
" />
<path d="M54.1206 18.1055
L53.6972 18.5893
" />
<path d="M53.6972 18.5893
L53.8787 18.5893
" />
<path d="M53.8787 18.5893
L53.9996 18.6498
" />
<path d="M53.9996 18.6498
L54.0601 18.7103
" />
<path d="M54.0601 18.7103
L54.1206 18.8312
" />
<path d="M54.1206 18.8312
L54.1206 19.1336
" />
<path d="M54.1206 19.1336
L54.0601 19.2546
" />
<path d="M54.0601 19.2546
L53.9996 19.3151
" />
<path d="M53.9996 19.3151
L53.8787 19.3755
" />
<path d="M53.8787 19.3755
L53.5158 19.3755
" />
<path d="M53.5158 19.3755
L53.3949 19.3151
" />
<path d="M53.3949 19.3151
L53.3344 19.2546
" />
</g></g>
<g style="fill:#A90000; fill-opacity:0.0; 
stroke:#A90000; stroke-width:0.1524; stroke-opacity:1; 
stroke-linecap:round; stroke-linejoin:round;">
<text x="48.8315" y="18.5420"
textLength="2.6222" font-size="1.6933" lengthAdjust="spacingAndGlyphs"
text-anchor="middle" opacity="0">13</text>
<g class="stroked-text"><desc>13</desc>
<path d="M48.5896 18.3785
L47.8639 18.3785
" />
<path d="M48.2267 18.3785
L48.2267 17.1085
" />
<path d="M48.2267 17.1085
L48.1058 17.2900
" />
<path d="M48.1058 17.2900
L47.9848 17.4109
" />
<path d="M47.9848 17.4109
L47.8639 17.4714
" />
<path d="M49.0129 17.1085
L49.7991 17.1085
" />
<path d="M49.7991 17.1085
L49.3757 17.5923
" />
<path d="M49.3757 17.5923
L49.5572 17.5923
" />
<path d="M49.5572 17.5923
L49.6781 17.6528
" />
<path d="M49.6781 17.6528
L49.7386 17.7133
" />
<path d="M49.7386 17.7133
L49.7991 17.8342
" />
<path d="M49.7991 17.8342
L49.7991 18.1366
" />
<path d="M49.7991 18.1366
L49.7386 18.2576
" />
<path d="M49.7386 18.2576
L49.6781 18.3181
" />
<path d="M49.6781 18.3181
L49.5572 18.3785
" />
<path d="M49.5572 18.3785
L49.1943 18.3785
" />
<path d="M49.1943 18.3785
L49.0734 18.3181
" />
<path d="M49.0734 18.3181
L49.0129 18.2576
" />
</g></g>
<g style="fill:#840000; fill-opacity:0.0; 
stroke:#840000; stroke-width:0.1524; stroke-opacity:1; 
stroke-linecap:round; stroke-linejoin:round;">
<path d="M50.1015 23.8760
L47.5615 23.8760
" />
</g>
<g style="fill:#006464; fill-opacity:0.0; 
stroke:#006464; stroke-width:0.1524; stroke-opacity:1; 
stroke-linecap:round; stroke-linejoin:round;">
<text x="51.1175" y="24.5110"
textLength="3.7712" font-size="1.6933" lengthAdjust="spacingAndGlyphs"
text-anchor="start" opacity="0">EnB</text>
<g class="stroked-text"><desc>EnB</desc>
<path d="M51.5200 23.7903
L51.9434 23.7903
" />
<path d="M52.1248 24.4555
L51.5200 24.4555
" />
<path d="M51.5200 24.4555
L51.5200 23.1855
" />
<path d="M51.5200 23.1855
L52.1248 23.1855
" />
<path d="M52.6690 23.6089
L52.6690 24.4555
" />
<path d="M52.6690 23.7298
L52.7295 23.6693
" />
<path d="M52.7295 23.6693
L52.8505 23.6089
" />
<path d="M52.8505 23.6089
L53.0319 23.6089
" />
<path d="M53.0319 23.6089
L53.1528 23.6693
" />
<path d="M53.1528 23.6693
L53.2133 23.7903
" />
<path d="M53.2133 23.7903
L53.2133 24.4555
" />
<path d="M54.2414 23.7903
L54.4228 23.8508
" />
<path d="M54.4228 23.8508
L54.4833 23.9112
" />
<path d="M54.4833 23.9112
L54.5437 24.0322
" />
<path d="M54.5437 24.0322
L54.5437 24.2136
" />
<path d="M54.5437 24.2136
L54.4833 24.3346
" />
<path d="M54.4833 24.3346
L54.4228 24.3951
" />
<path d="M54.4228 24.3951
L54.3018 24.4555
" />
<path d="M54.3018 24.4555
L53.8180 24.4555
" />
<path d="M53.8180 24.4555
L53.8180 23.1855
" />
<path d="M53.8180 23.1855
L54.2414 23.1855
" />
<path d="M54.2414 23.1855
L54.3623 23.2460
" />
<path d="M54.3623 23.2460
L54.4228 23.3065
" />
<path d="M54.4228 23.3065
L54.4833 23.4274
" />
<path d="M54.4833 23.4274
L54.4833 23.5484
" />
<path d="M54.4833 23.5484
L54.4228 23.6693
" />
<path d="M54.4228 23.6693
L54.3623 23.7298
" />
<path d="M54.3623 23.7298
L54.2414 23.7903
" />
<path d="M54.2414 23.7903
L53.8180 23.7903
" />
</g></g>
<g style="fill:#A90000; fill-opacity:0.0; 
stroke:#A90000; stroke-width:0.1524; stroke-opacity:1; 
stroke-linecap:round; stroke-linejoin:round;">
<text x="48.8315" y="23.6220"
textLength="2.6222" font-size="1.6933" lengthAdjust="spacingAndGlyphs"
text-anchor="middle" opacity="0">14</text>
<g class="stroked-text"><desc>14</desc>
<path d="M48.5896 23.4585
L47.8639 23.4585
" />
<path d="M48.2267 23.4585
L48.2267 22.1885
" />
<path d="M48.2267 22.1885
L48.1058 22.3700
" />
<path d="M48.1058 22.3700
L47.9848 22.4909
" />
<path d="M47.9848 22.4909
L47.8639 22.5514
" />
<path d="M49.6781 22.6119
L49.6781 23.4585
" />
<path d="M49.3757 22.1281
L49.0734 23.0352
" />
<path d="M49.0734 23.0352
L49.8595 23.0352
" />
</g></g>
<g style="fill:#840000; fill-opacity:0.0; 
stroke:#840000; stroke-width:0.1524; stroke-opacity:1; 
stroke-linecap:round; stroke-linejoin:round;">
<path d="M50.1015 21.3360
L47.5615 21.3360
" />
</g>
<g style="fill:#006464; fill-opacity:0.0; 
stroke:#006464; stroke-width:0.1524; stroke-opacity:1; 
stroke-linecap:round; stroke-linejoin:round;">
<text x="51.1175" y="21.9710"
textLength="3.3480" font-size="1.6933" lengthAdjust="spacingAndGlyphs"
text-anchor="start" opacity="0">IN4</text>
<g class="stroked-text"><desc>IN4</desc>
<path d="M51.5200 21.9155
L51.5200 20.6455
" />
<path d="M52.1248 21.9155
L52.1248 20.6455
" />
<path d="M52.1248 20.6455
L52.8505 21.9155
" />
<path d="M52.8505 21.9155
L52.8505 20.6455
" />
<path d="M53.9996 21.0689
L53.9996 21.9155
" />
<path d="M53.6972 20.5851
L53.3949 21.4922
" />
<path d="M53.3949 21.4922
L54.1810 21.4922
" />
</g></g>
<g style="fill:#A90000; fill-opacity:0.0; 
stroke:#A90000; stroke-width:0.1524; stroke-opacity:1; 
stroke-linecap:round; stroke-linejoin:round;">
<text x="48.8315" y="21.0820"
textLength="2.6222" font-size="1.6933" lengthAdjust="spacingAndGlyphs"
text-anchor="middle" opacity="0">15</text>
<g class="stroked-text"><desc>15</desc>
<path d="M48.5896 20.9185
L47.8639 20.9185
" />
<path d="M48.2267 20.9185
L48.2267 19.6485
" />
<path d="M48.2267 19.6485
L48.1058 19.8300
" />
<path d="M48.1058 19.8300
L47.9848 19.9509
" />
<path d="M47.9848 19.9509
L47.8639 20.0114
" />
<path d="M49.7386 19.6485
L49.1338 19.6485
" />
<path d="M49.1338 19.6485
L49.0734 20.2533
" />
<path d="M49.0734 20.2533
L49.1338 20.1928
" />
<path d="M49.1338 20.1928
L49.2548 20.1323
" />
<path d="M49.2548 20.1323
L49.5572 20.1323
" />
<path d="M49.5572 20.1323
L49.6781 20.1928
" />
<path d="M49.6781 20.1928
L49.7386 20.2533
" />
<path d="M49.7386 20.2533
L49.7991 20.3742
" />
<path d="M49.7991 20.3742
L49.7991 20.6766
" />
<path d="M49.7991 20.6766
L49.7386 20.7976
" />
<path d="M49.7386 20.7976
L49.6781 20.8581
" />
<path d="M49.6781 20.8581
L49.5572 20.9185
" />
<path d="M49.5572 20.9185
L49.2548 20.9185
" />
<path d="M49.2548 20.9185
L49.1338 20.8581
" />
<path d="M49.1338 20.8581
L49.0734 20.7976
" />
</g></g>
<g style="fill:#840000; fill-opacity:0.0; 
stroke:#840000; stroke-width:0.1524; stroke-opacity:1; 
stroke-linecap:round; stroke-linejoin:round;">
<path d="M75.5015 23.8760
L78.0415 23.8760
" />
</g>
<g style="fill:#006464; fill-opacity:0.0; 
stroke:#006464; stroke-width:0.1524; stroke-opacity:1; 
stroke-linecap:round; stroke-linejoin:round;">
<text x="74.4855" y="24.5110"
textLength="5.0413" font-size="1.6933" lengthAdjust="spacingAndGlyphs"
text-anchor="end" opacity="0">OUT3</text>
<g class="stroked-text"><desc>OUT3</desc>
<path d="M70.0914 23.1855
L70.3333 23.1855
" />
<path d="M70.3333 23.1855
L70.4543 23.2460
" />
<path d="M70.4543 23.2460
L70.5752 23.3670
" />
<path d="M70.5752 23.3670
L70.6357 23.6089
" />
<path d="M70.6357 23.6089
L70.6357 24.0322
" />
<path d="M70.6357 24.0322
L70.5752 24.2741
" />
<path d="M70.5752 24.2741
L70.4543 24.3951
" />
<path d="M70.4543 24.3951
L70.3333 24.4555
" />
<path d="M70.3333 24.4555
L70.0914 24.4555
" />
<path d="M70.0914 24.4555
L69.9705 24.3951
" />
<path d="M69.9705 24.3951
L69.8495 24.2741
" />
<path d="M69.8495 24.2741
L69.7891 24.0322
" />
<path d="M69.7891 24.0322
L69.7891 23.6089
" />
<path d="M69.7891 23.6089
L69.8495 23.3670
" />
<path d="M69.8495 23.3670
L69.9705 23.2460
" />
<path d="M69.9705 23.2460
L70.0914 23.1855
" />
<path d="M71.1800 23.1855
L71.1800 24.2136
" />
<path d="M71.1800 24.2136
L71.2405 24.3346
" />
<path d="M71.2405 24.3346
L71.3010 24.3951
" />
<path d="M71.3010 24.3951
L71.4219 24.4555
" />
<path d="M71.4219 24.4555
L71.6638 24.4555
" />
<path d="M71.6638 24.4555
L71.7848 24.3951
" />
<path d="M71.7848 24.3951
L71.8453 24.3346
" />
<path d="M71.8453 24.3346
L71.9057 24.2136
" />
<path d="M71.9057 24.2136
L71.9057 23.1855
" />
<path d="M72.3291 23.1855
L73.0548 23.1855
" />
<path d="M72.6920 24.4555
L72.6920 23.1855
" />
<path d="M73.3572 23.1855
L74.1434 23.1855
" />
<path d="M74.1434 23.1855
L73.7200 23.6693
" />
<path d="M73.7200 23.6693
L73.9015 23.6693
" />
<path d="M73.9015 23.6693
L74.0224 23.7298
" />
<path d="M74.0224 23.7298
L74.0829 23.7903
" />
<path d="M74.0829 23.7903
L74.1434 23.9112
" />
<path d="M74.1434 23.9112
L74.1434 24.2136
" />
<path d="M74.1434 24.2136
L74.0829 24.3346
" />
<path d="M74.0829 24.3346
L74.0224 24.3951
" />
<path d="M74.0224 24.3951
L73.9015 24.4555
" />
<path d="M73.9015 24.4555
L73.5386 24.4555
" />
<path d="M73.5386 24.4555
L73.4177 24.3951
" />
<path d="M73.4177 24.3951
L73.3572 24.3346
" />
</g></g>
<g style="fill:#A90000; fill-opacity:0.0; 
stroke:#A90000; stroke-width:0.1524; stroke-opacity:1; 
stroke-linecap:round; stroke-linejoin:round;">
<text x="76.7715" y="23.6220"
textLength="2.6222" font-size="1.6933" lengthAdjust="spacingAndGlyphs"
text-anchor="middle" opacity="0">16</text>
<g class="stroked-text"><desc>16</desc>
<path d="M76.5296 23.4585
L75.8039 23.4585
" />
<path d="M76.1667 23.4585
L76.1667 22.1885
" />
<path d="M76.1667 22.1885
L76.0458 22.3700
" />
<path d="M76.0458 22.3700
L75.9248 22.4909
" />
<path d="M75.9248 22.4909
L75.8039 22.5514
" />
<path d="M77.6181 22.1885
L77.3762 22.1885
" />
<path d="M77.3762 22.1885
L77.2553 22.2490
" />
<path d="M77.2553 22.2490
L77.1948 22.3095
" />
<path d="M77.1948 22.3095
L77.0738 22.4909
" />
<path d="M77.0738 22.4909
L77.0134 22.7328
" />
<path d="M77.0134 22.7328
L77.0134 23.2166
" />
<path d="M77.0134 23.2166
L77.0738 23.3376
" />
<path d="M77.0738 23.3376
L77.1343 23.3981
" />
<path d="M77.1343 23.3981
L77.2553 23.4585
" />
<path d="M77.2553 23.4585
L77.4972 23.4585
" />
<path d="M77.4972 23.4585
L77.6181 23.3981
" />
<path d="M77.6181 23.3981
L77.6786 23.3376
" />
<path d="M77.6786 23.3376
L77.7391 23.2166
" />
<path d="M77.7391 23.2166
L77.7391 22.9142
" />
<path d="M77.7391 22.9142
L77.6786 22.7933
" />
<path d="M77.6786 22.7933
L77.6181 22.7328
" />
<path d="M77.6181 22.7328
L77.4972 22.6723
" />
<path d="M77.4972 22.6723
L77.2553 22.6723
" />
<path d="M77.2553 22.6723
L77.1343 22.7328
" />
<path d="M77.1343 22.7328
L77.0738 22.7933
" />
<path d="M77.0738 22.7933
L77.0134 22.9142
" />
</g></g>
<g style="fill:#840000; fill-opacity:0.0; 
stroke:#840000; stroke-width:0.1524; stroke-opacity:1; 
stroke-linecap:round; stroke-linejoin:round;">
<path d="M75.5015 26.4160
L78.0415 26.4160
" />
</g>
<g style="fill:#006464; fill-opacity:0.0; 
stroke:#006464; stroke-width:0.1524; stroke-opacity:1; 
stroke-linecap:round; stroke-linejoin:round;">
<text x="74.4855" y="27.0510"
textLength="5.0413" font-size="1.6933" lengthAdjust="spacingAndGlyphs"
text-anchor="end" opacity="0">OUT4</text>
<g class="stroked-text"><desc>OUT4</desc>
<path d="M70.0914 25.7255
L70.3333 25.7255
" />
<path d="M70.3333 25.7255
L70.4543 25.7860
" />
<path d="M70.4543 25.7860
L70.5752 25.9070
" />
<path d="M70.5752 25.9070
L70.6357 26.1489
" />
<path d="M70.6357 26.1489
L70.6357 26.5722
" />
<path d="M70.6357 26.5722
L70.5752 26.8141
" />
<path d="M70.5752 26.8141
L70.4543 26.9351
" />
<path d="M70.4543 26.9351
L70.3333 26.9955
" />
<path d="M70.3333 26.9955
L70.0914 26.9955
" />
<path d="M70.0914 26.9955
L69.9705 26.9351
" />
<path d="M69.9705 26.9351
L69.8495 26.8141
" />
<path d="M69.8495 26.8141
L69.7891 26.5722
" />
<path d="M69.7891 26.5722
L69.7891 26.1489
" />
<path d="M69.7891 26.1489
L69.8495 25.9070
" />
<path d="M69.8495 25.9070
L69.9705 25.7860
" />
<path d="M69.9705 25.7860
L70.0914 25.7255
" />
<path d="M71.1800 25.7255
L71.1800 26.7536
" />
<path d="M71.1800 26.7536
L71.2405 26.8746
" />
<path d="M71.2405 26.8746
L71.3010 26.9351
" />
<path d="M71.3010 26.9351
L71.4219 26.9955
" />
<path d="M71.4219 26.9955
L71.6638 26.9955
" />
<path d="M71.6638 26.9955
L71.7848 26.9351
" />
<path d="M71.7848 26.9351
L71.8453 26.8746
" />
<path d="M71.8453 26.8746
L71.9057 26.7536
" />
<path d="M71.9057 26.7536
L71.9057 25.7255
" />
<path d="M72.3291 25.7255
L73.0548 25.7255
" />
<path d="M72.6920 26.9955
L72.6920 25.7255
" />
<path d="M74.0224 26.1489
L74.0224 26.9955
" />
<path d="M73.7200 25.6651
L73.4177 26.5722
" />
<path d="M73.4177 26.5722
L74.2038 26.5722
" />
</g></g>
<g style="fill:#A90000; fill-opacity:0.0; 
stroke:#A90000; stroke-width:0.1524; stroke-opacity:1; 
stroke-linecap:round; stroke-linejoin:round;">
<text x="76.7715" y="26.1620"
textLength="2.6222" font-size="1.6933" lengthAdjust="spacingAndGlyphs"
text-anchor="middle" opacity="0">17</text>
<g class="stroked-text"><desc>17</desc>
<path d="M76.5296 25.9985
L75.8039 25.9985
" />
<path d="M76.1667 25.9985
L76.1667 24.7285
" />
<path d="M76.1667 24.7285
L76.0458 24.9100
" />
<path d="M76.0458 24.9100
L75.9248 25.0309
" />
<path d="M75.9248 25.0309
L75.8039 25.0914
" />
<path d="M76.9529 24.7285
L77.7995 24.7285
" />
<path d="M77.7995 24.7285
L77.2553 25.9985
" />
</g></g>
<g style="fill:#840000; fill-opacity:0.0; 
stroke:#840000; stroke-width:0.1524; stroke-opacity:1; 
stroke-linecap:round; stroke-linejoin:round;">
<path d="M55.1815 36.5760
L55.1815 39.1160
" />
</g>
<g style="fill:#006464; fill-opacity:0.0; 
stroke:#006464; stroke-width:0.1524; stroke-opacity:1; 
stroke-linecap:round; stroke-linejoin:round;">
<g transform="rotate(-90.000000 55.1815 35.5600)">
<text x="55.1815" y="36.1950"
textLength="8.4883" font-size="1.6933" lengthAdjust="spacingAndGlyphs"
text-anchor="start" opacity="0">SENSE_B</text>
</g>
<g class="stroked-text"><desc>SENSE_B</desc>
<path d="M55.7006 35.2178
L55.7610 35.0364
" />
<path d="M55.7610 35.0364
L55.7610 34.7340
" />
<path d="M55.7610 34.7340
L55.7006 34.6131
" />
<path d="M55.7006 34.6131
L55.6401 34.5526
" />
<path d="M55.6401 34.5526
L55.5191 34.4921
" />
<path d="M55.5191 34.4921
L55.3982 34.4921
" />
<path d="M55.3982 34.4921
L55.2772 34.5526
" />
<path d="M55.2772 34.5526
L55.2167 34.6131
" />
<path d="M55.2167 34.6131
L55.1563 34.7340
" />
<path d="M55.1563 34.7340
L55.0958 34.9759
" />
<path d="M55.0958 34.9759
L55.0353 35.0969
" />
<path d="M55.0353 35.0969
L54.9748 35.1574
" />
<path d="M54.9748 35.1574
L54.8539 35.2178
" />
<path d="M54.8539 35.2178
L54.7329 35.2178
" />
<path d="M54.7329 35.2178
L54.6120 35.1574
" />
<path d="M54.6120 35.1574
L54.5515 35.0969
" />
<path d="M54.5515 35.0969
L54.4910 34.9759
" />
<path d="M54.4910 34.9759
L54.4910 34.6736
" />
<path d="M54.4910 34.6736
L54.5515 34.4921
" />
<path d="M55.0958 33.9479
L55.0958 33.5245
" />
<path d="M55.7610 33.3431
L55.7610 33.9479
" />
<path d="M55.7610 33.9479
L54.4910 33.9479
" />
<path d="M54.4910 33.9479
L54.4910 33.3431
" />
<path d="M55.7610 32.7989
L54.4910 32.7989
" />
<path d="M54.4910 32.7989
L55.7610 32.0732
" />
<path d="M55.7610 32.0732
L54.4910 32.0732
" />
<path d="M55.7006 31.5288
L55.7610 31.3474
" />
<path d="M55.7610 31.3474
L55.7610 31.0450
" />
<path d="M55.7610 31.0450
L55.7006 30.9241
" />
<path d="M55.7006 30.9241
L55.6401 30.8636
" />
<path d="M55.6401 30.8636
L55.5191 30.8031
" />
<path d="M55.5191 30.8031
L55.3982 30.8031
" />
<path d="M55.3982 30.8031
L55.2772 30.8636
" />
<path d="M55.2772 30.8636
L55.2167 30.9241
" />
<path d="M55.2167 30.9241
L55.1563 31.0450
" />
<path d="M55.1563 31.0450
L55.0958 31.2869
" />
<path d="M55.0958 31.2869
L55.0353 31.4079
" />
<path d="M55.0353 31.4079
L54.9748 31.4684
" />
<path d="M54.9748 31.4684
L54.8539 31.5288
" />
<path d="M54.8539 31.5288
L54.7329 31.5288
" />
<path d="M54.7329 31.5288
L54.6120 31.4684
" />
<path d="M54.6120 31.4684
L54.5515 31.4079
" />
<path d="M54.5515 31.4079
L54.4910 31.2869
" />
<path d="M54.4910 31.2869
L54.4910 30.9846
" />
<path d="M54.4910 30.9846
L54.5515 30.8031
" />
<path d="M55.0958 30.2589
L55.0958 29.8355
" />
<path d="M55.7610 29.6541
L55.7610 30.2589
" />
<path d="M55.7610 30.2589
L54.4910 30.2589
" />
<path d="M54.4910 30.2589
L54.4910 29.6541
" />
<path d="M55.8820 29.4123
L55.8820 28.4446
" />
<path d="M55.0958 27.7189
L55.1563 27.5375
" />
<path d="M55.1563 27.5375
L55.2167 27.4770
" />
<path d="M55.2167 27.4770
L55.3377 27.4166
" />
<path d="M55.3377 27.4166
L55.5191 27.4166
" />
<path d="M55.5191 27.4166
L55.6401 27.4770
" />
<path d="M55.6401 27.4770
L55.7006 27.5375
" />
<path d="M55.7006 27.5375
L55.7610 27.6585
" />
<path d="M55.7610 27.6585
L55.7610 28.1423
" />
<path d="M55.7610 28.1423
L54.4910 28.1423
" />
<path d="M54.4910 28.1423
L54.4910 27.7189
" />
<path d="M54.4910 27.7189
L54.5515 27.5980
" />
<path d="M54.5515 27.5980
L54.6120 27.5375
" />
<path d="M54.6120 27.5375
L54.7329 27.4770
" />
<path d="M54.7329 27.4770
L54.8539 27.4770
" />
<path d="M54.8539 27.4770
L54.9748 27.5375
" />
<path d="M54.9748 27.5375
L55.0353 27.5980
" />
<path d="M55.0353 27.5980
L55.0958 27.7189
" />
<path d="M55.0958 27.7189
L55.0958 28.1423
" />
</g></g>
<g style="fill:#A90000; fill-opacity:0.0; 
stroke:#A90000; stroke-width:0.1524; stroke-opacity:1; 
stroke-linecap:round; stroke-linejoin:round;">
<g transform="rotate(-90.000000 54.9275 37.8460)">
<text x="54.9275" y="37.8460"
textLength="2.6222" font-size="1.6933" lengthAdjust="spacingAndGlyphs"
text-anchor="middle" opacity="0">19</text>
</g>
<g class="stroked-text"><desc>19</desc>
<path d="M54.7640 38.0878
L54.7640 38.8135
" />
<path d="M54.7640 38.4507
L53.4940 38.4507
" />
<path d="M53.4940 38.4507
L53.6755 38.5716
" />
<path d="M53.6755 38.5716
L53.7964 38.6926
" />
<path d="M53.7964 38.6926
L53.8569 38.8135
" />
<path d="M54.7640 37.4831
L54.7640 37.2412
" />
<path d="M54.7640 37.2412
L54.7036 37.1202
" />
<path d="M54.7036 37.1202
L54.6431 37.0598
" />
<path d="M54.6431 37.0598
L54.4616 36.9388
" />
<path d="M54.4616 36.9388
L54.2197 36.8783
" />
<path d="M54.2197 36.8783
L53.7359 36.8783
" />
<path d="M53.7359 36.8783
L53.6150 36.9388
" />
<path d="M53.6150 36.9388
L53.5545 36.9993
" />
<path d="M53.5545 36.9993
L53.4940 37.1202
" />
<path d="M53.4940 37.1202
L53.4940 37.3621
" />
<path d="M53.4940 37.3621
L53.5545 37.4831
" />
<path d="M53.5545 37.4831
L53.6150 37.5436
" />
<path d="M53.6150 37.5436
L53.7359 37.6040
" />
<path d="M53.7359 37.6040
L54.0383 37.6040
" />
<path d="M54.0383 37.6040
L54.1593 37.5436
" />
<path d="M54.1593 37.5436
L54.2197 37.4831
" />
<path d="M54.2197 37.4831
L54.2802 37.3621
" />
<path d="M54.2802 37.3621
L54.2802 37.1202
" />
<path d="M54.2802 37.1202
L54.2197 36.9993
" />
<path d="M54.2197 36.9993
L54.1593 36.9388
" />
<path d="M54.1593 36.9388
L54.0383 36.8783
" />
</g></g>
<g style="fill:#840000; fill-opacity:0.0; 
stroke:#840000; stroke-width:0.1524; stroke-opacity:1; 
stroke-linecap:round; stroke-linejoin:round;">
<path d="M52.6415 36.5760
L52.6415 39.1160
" />
</g>
<g style="fill:#006464; fill-opacity:0.0; 
stroke:#006464; stroke-width:0.1524; stroke-opacity:1; 
stroke-linecap:round; stroke-linejoin:round;">
<g transform="rotate(-90.000000 52.6415 35.5600)">
<text x="52.6415" y="36.1950"
textLength="8.3069" font-size="1.6933" lengthAdjust="spacingAndGlyphs"
text-anchor="start" opacity="0">SENSE_A</text>
</g>
<g class="stroked-text"><desc>SENSE_A</desc>
<path d="M53.1606 35.2178
L53.2210 35.0364
" />
<path d="M53.2210 35.0364
L53.2210 34.7340
" />
<path d="M53.2210 34.7340
L53.1606 34.6131
" />
<path d="M53.1606 34.6131
L53.1001 34.5526
" />
<path d="M53.1001 34.5526
L52.9791 34.4921
" />
<path d="M52.9791 34.4921
L52.8582 34.4921
" />
<path d="M52.8582 34.4921
L52.7372 34.5526
" />
<path d="M52.7372 34.5526
L52.6767 34.6131
" />
<path d="M52.6767 34.6131
L52.6163 34.7340
" />
<path d="M52.6163 34.7340
L52.5558 34.9759
" />
<path d="M52.5558 34.9759
L52.4953 35.0969
" />
<path d="M52.4953 35.0969
L52.4348 35.1574
" />
<path d="M52.4348 35.1574
L52.3139 35.2178
" />
<path d="M52.3139 35.2178
L52.1929 35.2178
" />
<path d="M52.1929 35.2178
L52.0720 35.1574
" />
<path d="M52.0720 35.1574
L52.0115 35.0969
" />
<path d="M52.0115 35.0969
L51.9510 34.9759
" />
<path d="M51.9510 34.9759
L51.9510 34.6736
" />
<path d="M51.9510 34.6736
L52.0115 34.4921
" />
<path d="M52.5558 33.9479
L52.5558 33.5245
" />
<path d="M53.2210 33.3431
L53.2210 33.9479
" />
<path d="M53.2210 33.9479
L51.9510 33.9479
" />
<path d="M51.9510 33.9479
L51.9510 33.3431
" />
<path d="M53.2210 32.7989
L51.9510 32.7989
" />
<path d="M51.9510 32.7989
L53.2210 32.0732
" />
<path d="M53.2210 32.0732
L51.9510 32.0732
" />
<path d="M53.1606 31.5288
L53.2210 31.3474
" />
<path d="M53.2210 31.3474
L53.2210 31.0450
" />
<path d="M53.2210 31.0450
L53.1606 30.9241
" />
<path d="M53.1606 30.9241
L53.1001 30.8636
" />
<path d="M53.1001 30.8636
L52.9791 30.8031
" />
<path d="M52.9791 30.8031
L52.8582 30.8031
" />
<path d="M52.8582 30.8031
L52.7372 30.8636
" />
<path d="M52.7372 30.8636
L52.6767 30.9241
" />
<path d="M52.6767 30.9241
L52.6163 31.0450
" />
<path d="M52.6163 31.0450
L52.5558 31.2869
" />
<path d="M52.5558 31.2869
L52.4953 31.4079
" />
<path d="M52.4953 31.4079
L52.4348 31.4684
" />
<path d="M52.4348 31.4684
L52.3139 31.5288
" />
<path d="M52.3139 31.5288
L52.1929 31.5288
" />
<path d="M52.1929 31.5288
L52.0720 31.4684
" />
<path d="M52.0720 31.4684
L52.0115 31.4079
" />
<path d="M52.0115 31.4079
L51.9510 31.2869
" />
<path d="M51.9510 31.2869
L51.9510 30.9846
" />
<path d="M51.9510 30.9846
L52.0115 30.8031
" />
<path d="M52.5558 30.2589
L52.5558 29.8355
" />
<path d="M53.2210 29.6541
L53.2210 30.2589
" />
<path d="M53.2210 30.2589
L51.9510 30.2589
" />
<path d="M51.9510 30.2589
L51.9510 29.6541
" />
<path d="M53.3420 29.4123
L53.3420 28.4446
" />
<path d="M52.8582 28.2027
L52.8582 27.5980
" />
<path d="M53.2210 28.3237
L51.9510 27.9004
" />
<path d="M51.9510 27.9004
L53.2210 27.4770
" />
</g></g>
<g style="fill:#A90000; fill-opacity:0.0; 
stroke:#A90000; stroke-width:0.1524; stroke-opacity:1; 
stroke-linecap:round; stroke-linejoin:round;">
<g transform="rotate(-90.000000 52.3875 37.8460)">
<text x="52.3875" y="37.8460"
textLength="1.4127" font-size="1.6933" lengthAdjust="spacingAndGlyphs"
text-anchor="middle" opacity="0">2</text>
</g>
<g class="stroked-text"><desc>2</desc>
<path d="M51.0750 38.2087
L51.0145 38.1483
" />
<path d="M51.0145 38.1483
L50.9540 38.0273
" />
<path d="M50.9540 38.0273
L50.9540 37.7249
" />
<path d="M50.9540 37.7249
L51.0145 37.6040
" />
<path d="M51.0145 37.6040
L51.0750 37.5435
" />
<path d="M51.0750 37.5435
L51.1959 37.4830
" />
<path d="M51.1959 37.4830
L51.3169 37.4830
" />
<path d="M51.3169 37.4830
L51.4983 37.5435
" />
<path d="M51.4983 37.5435
L52.2240 38.2692
" />
<path d="M52.2240 38.2692
L52.2240 37.4830
" />
</g></g>
<g style="fill:#840000; fill-opacity:0.0; 
stroke:#840000; stroke-width:0.1524; stroke-opacity:1; 
stroke-linecap:round; stroke-linejoin:round;">
<path d="M67.8815 36.5760
L67.8815 39.1160
" />
</g>
<g style="fill:#006464; fill-opacity:0.0; 
stroke:#006464; stroke-width:0.1524; stroke-opacity:1; 
stroke-linecap:round; stroke-linejoin:round;">
<g transform="rotate(-90.000000 67.8815 35.5600)">
<text x="67.8815" y="36.1950"
textLength="4.0737" font-size="1.6933" lengthAdjust="spacingAndGlyphs"
text-anchor="start" opacity="0">GND</text>
</g>
<g class="stroked-text"><desc>GND</desc>
<path d="M67.2515 34.4921
L67.1910 34.6131
" />
<path d="M67.1910 34.6131
L67.1910 34.7945
" />
<path d="M67.1910 34.7945
L67.2515 34.9759
" />
<path d="M67.2515 34.9759
L67.3725 35.0969
" />
<path d="M67.3725 35.0969
L67.4934 35.1574
" />
<path d="M67.4934 35.1574
L67.7353 35.2178
" />
<path d="M67.7353 35.2178
L67.9167 35.2178
" />
<path d="M67.9167 35.2178
L68.1586 35.1574
" />
<path d="M68.1586 35.1574
L68.2796 35.0969
" />
<path d="M68.2796 35.0969
L68.4006 34.9759
" />
<path d="M68.4006 34.9759
L68.4610 34.7945
" />
<path d="M68.4610 34.7945
L68.4610 34.6736
" />
<path d="M68.4610 34.6736
L68.4006 34.4921
" />
<path d="M68.4006 34.4921
L68.3401 34.4317
" />
<path d="M68.3401 34.4317
L67.9167 34.4317
" />
<path d="M67.9167 34.4317
L67.9167 34.6736
" />
<path d="M68.4610 33.8874
L67.1910 33.8874
" />
<path d="M67.1910 33.8874
L68.4610 33.1617
" />
<path d="M68.4610 33.1617
L67.1910 33.1617
" />
<path d="M68.4610 32.5569
L67.1910 32.5569
" />
<path d="M67.1910 32.5569
L67.1910 32.2545
" />
<path d="M67.1910 32.2545
L67.2515 32.0731
" />
<path d="M67.2515 32.0731
L67.3725 31.9521
" />
<path d="M67.3725 31.9521
L67.4934 31.8916
" />
<path d="M67.4934 31.8916
L67.7353 31.8312
" />
<path d="M67.7353 31.8312
L67.9167 31.8312
" />
<path d="M67.9167 31.8312
L68.1586 31.8916
" />
<path d="M68.1586 31.8916
L68.2796 31.9521
" />
<path d="M68.2796 31.9521
L68.4006 32.0731
" />
<path d="M68.4006 32.0731
L68.4610 32.2545
" />
<path d="M68.4610 32.2545
L68.4610 32.5569
" />
</g></g>
<g style="fill:#A90000; fill-opacity:0.0; 
stroke:#A90000; stroke-width:0.1524; stroke-opacity:1; 
stroke-linecap:round; stroke-linejoin:round;">
<g transform="rotate(-90.000000 67.6275 37.8460)">
<text x="67.6275" y="37.8460"
textLength="2.6222" font-size="1.6933" lengthAdjust="spacingAndGlyphs"
text-anchor="middle" opacity="0">20</text>
</g>
<g class="stroked-text"><desc>20</desc>
<path d="M66.3150 38.8135
L66.2545 38.7531
" />
<path d="M66.2545 38.7531
L66.1940 38.6321
" />
<path d="M66.1940 38.6321
L66.1940 38.3297
" />
<path d="M66.1940 38.3297
L66.2545 38.2088
" />
<path d="M66.2545 38.2088
L66.3150 38.1483
" />
<path d="M66.3150 38.1483
L66.4359 38.0878
" />
<path d="M66.4359 38.0878
L66.5569 38.0878
" />
<path d="M66.5569 38.0878
L66.7383 38.1483
" />
<path d="M66.7383 38.1483
L67.4640 38.8740
" />
<path d="M67.4640 38.8740
L67.4640 38.0878
" />
<path d="M66.1940 37.3017
L66.1940 37.1807
" />
<path d="M66.1940 37.1807
L66.2545 37.0598
" />
<path d="M66.2545 37.0598
L66.3150 36.9993
" />
<path d="M66.3150 36.9993
L66.4359 36.9388
" />
<path d="M66.4359 36.9388
L66.6778 36.8783
" />
<path d="M66.6778 36.8783
L66.9802 36.8783
" />
<path d="M66.9802 36.8783
L67.2221 36.9388
" />
<path d="M67.2221 36.9388
L67.3431 36.9993
" />
<path d="M67.3431 36.9993
L67.4036 37.0598
" />
<path d="M67.4036 37.0598
L67.4640 37.1807
" />
<path d="M67.4640 37.1807
L67.4640 37.3017
" />
<path d="M67.4640 37.3017
L67.4036 37.4226
" />
<path d="M67.4036 37.4226
L67.3431 37.4831
" />
<path d="M67.3431 37.4831
L67.2221 37.5436
" />
<path d="M67.2221 37.5436
L66.9802 37.6040
" />
<path d="M66.9802 37.6040
L66.6778 37.6040
" />
<path d="M66.6778 37.6040
L66.4359 37.5436
" />
<path d="M66.4359 37.5436
L66.3150 37.4831
" />
<path d="M66.3150 37.4831
L66.2545 37.4226
" />
<path d="M66.2545 37.4226
L66.1940 37.3017
" />
</g></g>
<g style="fill:#840000; fill-opacity:0.0; 
stroke:#840000; stroke-width:0.1524; stroke-opacity:1; 
stroke-linecap:round; stroke-linejoin:round;">
<path d="M75.5015 16.2560
L78.0415 16.2560
" />
</g>
<g style="fill:#006464; fill-opacity:0.0; 
stroke:#006464; stroke-width:0.1524; stroke-opacity:1; 
stroke-linecap:round; stroke-linejoin:round;">
<text x="74.4855" y="16.8910"
textLength="5.0413" font-size="1.6933" lengthAdjust="spacingAndGlyphs"
text-anchor="end" opacity="0">OUT1</text>
<g class="stroked-text"><desc>OUT1</desc>
<path d="M70.0914 15.5655
L70.3333 15.5655
" />
<path d="M70.3333 15.5655
L70.4543 15.6260
" />
<path d="M70.4543 15.6260
L70.5752 15.7470
" />
<path d="M70.5752 15.7470
L70.6357 15.9889
" />
<path d="M70.6357 15.9889
L70.6357 16.4122
" />
<path d="M70.6357 16.4122
L70.5752 16.6541
" />
<path d="M70.5752 16.6541
L70.4543 16.7751
" />
<path d="M70.4543 16.7751
L70.3333 16.8355
" />
<path d="M70.3333 16.8355
L70.0914 16.8355
" />
<path d="M70.0914 16.8355
L69.9705 16.7751
" />
<path d="M69.9705 16.7751
L69.8495 16.6541
" />
<path d="M69.8495 16.6541
L69.7891 16.4122
" />
<path d="M69.7891 16.4122
L69.7891 15.9889
" />
<path d="M69.7891 15.9889
L69.8495 15.7470
" />
<path d="M69.8495 15.7470
L69.9705 15.6260
" />
<path d="M69.9705 15.6260
L70.0914 15.5655
" />
<path d="M71.1800 15.5655
L71.1800 16.5936
" />
<path d="M71.1800 16.5936
L71.2405 16.7146
" />
<path d="M71.2405 16.7146
L71.3010 16.7751
" />
<path d="M71.3010 16.7751
L71.4219 16.8355
" />
<path d="M71.4219 16.8355
L71.6638 16.8355
" />
<path d="M71.6638 16.8355
L71.7848 16.7751
" />
<path d="M71.7848 16.7751
L71.8453 16.7146
" />
<path d="M71.8453 16.7146
L71.9057 16.5936
" />
<path d="M71.9057 16.5936
L71.9057 15.5655
" />
<path d="M72.3291 15.5655
L73.0548 15.5655
" />
<path d="M72.6920 16.8355
L72.6920 15.5655
" />
<path d="M74.1434 16.8355
L73.4177 16.8355
" />
<path d="M73.7805 16.8355
L73.7805 15.5655
" />
<path d="M73.7805 15.5655
L73.6596 15.7470
" />
<path d="M73.6596 15.7470
L73.5386 15.8679
" />
<path d="M73.5386 15.8679
L73.4177 15.9284
" />
</g></g>
<g style="fill:#A90000; fill-opacity:0.0; 
stroke:#A90000; stroke-width:0.1524; stroke-opacity:1; 
stroke-linecap:round; stroke-linejoin:round;">
<text x="76.7715" y="16.0020"
textLength="1.4127" font-size="1.6933" lengthAdjust="spacingAndGlyphs"
text-anchor="middle" opacity="0">4</text>
<g class="stroked-text"><desc>4</desc>
<path d="M77.0134 14.9919
L77.0134 15.8385
" />
<path d="M76.7110 14.5081
L76.4087 15.4152
" />
<path d="M76.4087 15.4152
L77.1948 15.4152
" />
</g></g>
<g style="fill:#840000; fill-opacity:0.0; 
stroke:#840000; stroke-width:0.1524; stroke-opacity:1; 
stroke-linecap:round; stroke-linejoin:round;">
<path d="M75.5015 18.7960
L78.0415 18.7960
" />
</g>
<g style="fill:#006464; fill-opacity:0.0; 
stroke:#006464; stroke-width:0.1524; stroke-opacity:1; 
stroke-linecap:round; stroke-linejoin:round;">
<text x="74.4855" y="19.4310"
textLength="5.0413" font-size="1.6933" lengthAdjust="spacingAndGlyphs"
text-anchor="end" opacity="0">OUT2</text>
<g class="stroked-text"><desc>OUT2</desc>
<path d="M70.0914 18.1055
L70.3333 18.1055
" />
<path d="M70.3333 18.1055
L70.4543 18.1660
" />
<path d="M70.4543 18.1660
L70.5752 18.2870
" />
<path d="M70.5752 18.2870
L70.6357 18.5289
" />
<path d="M70.6357 18.5289
L70.6357 18.9522
" />
<path d="M70.6357 18.9522
L70.5752 19.1941
" />
<path d="M70.5752 19.1941
L70.4543 19.3151
" />
<path d="M70.4543 19.3151
L70.3333 19.3755
" />
<path d="M70.3333 19.3755
L70.0914 19.3755
" />
<path d="M70.0914 19.3755
L69.9705 19.3151
" />
<path d="M69.9705 19.3151
L69.8495 19.1941
" />
<path d="M69.8495 19.1941
L69.7891 18.9522
" />
<path d="M69.7891 18.9522
L69.7891 18.5289
" />
<path d="M69.7891 18.5289
L69.8495 18.2870
" />
<path d="M69.8495 18.2870
L69.9705 18.1660
" />
<path d="M69.9705 18.1660
L70.0914 18.1055
" />
<path d="M71.1800 18.1055
L71.1800 19.1336
" />
<path d="M71.1800 19.1336
L71.2405 19.2546
" />
<path d="M71.2405 19.2546
L71.3010 19.3151
" />
<path d="M71.3010 19.3151
L71.4219 19.3755
" />
<path d="M71.4219 19.3755
L71.6638 19.3755
" />
<path d="M71.6638 19.3755
L71.7848 19.3151
" />
<path d="M71.7848 19.3151
L71.8453 19.2546
" />
<path d="M71.8453 19.2546
L71.9057 19.1336
" />
<path d="M71.9057 19.1336
L71.9057 18.1055
" />
<path d="M72.3291 18.1055
L73.0548 18.1055
" />
<path d="M72.6920 19.3755
L72.6920 18.1055
" />
<path d="M73.4177 18.2265
L73.4781 18.1660
" />
<path d="M73.4781 18.1660
L73.5991 18.1055
" />
<path d="M73.5991 18.1055
L73.9015 18.1055
" />
<path d="M73.9015 18.1055
L74.0224 18.1660
" />
<path d="M74.0224 18.1660
L74.0829 18.2265
" />
<path d="M74.0829 18.2265
L74.1434 18.3474
" />
<path d="M74.1434 18.3474
L74.1434 18.4684
" />
<path d="M74.1434 18.4684
L74.0829 18.6498
" />
<path d="M74.0829 18.6498
L73.3572 19.3755
" />
<path d="M73.3572 19.3755
L74.1434 19.3755
" />
</g></g>
<g style="fill:#A90000; fill-opacity:0.0; 
stroke:#A90000; stroke-width:0.1524; stroke-opacity:1; 
stroke-linecap:round; stroke-linejoin:round;">
<text x="76.7715" y="18.5420"
textLength="1.4127" font-size="1.6933" lengthAdjust="spacingAndGlyphs"
text-anchor="middle" opacity="0">5</text>
<g class="stroked-text"><desc>5</desc>
<path d="M77.0739 17.1085
L76.4691 17.1085
" />
<path d="M76.4691 17.1085
L76.4087 17.7133
" />
<path d="M76.4087 17.7133
L76.4691 17.6528
" />
<path d="M76.4691 17.6528
L76.5901 17.5923
" />
<path d="M76.5901 17.5923
L76.8925 17.5923
" />
<path d="M76.8925 17.5923
L77.0134 17.6528
" />
<path d="M77.0134 17.6528
L77.0739 17.7133
" />
<path d="M77.0739 17.7133
L77.1344 17.8342
" />
<path d="M77.1344 17.8342
L77.1344 18.1366
" />
<path d="M77.1344 18.1366
L77.0739 18.2576
" />
<path d="M77.0739 18.2576
L77.0134 18.3181
" />
<path d="M77.0134 18.3181
L76.8925 18.3785
" />
<path d="M76.8925 18.3785
L76.5901 18.3785
" />
<path d="M76.5901 18.3785
L76.4691 18.3181
" />
<path d="M76.4691 18.3181
L76.4087 18.2576
" />
</g></g>
<g style="fill:#840000; fill-opacity:0.0; 
stroke:#840000; stroke-width:0.1524; stroke-opacity:1; 
stroke-linecap:round; stroke-linejoin:round;">
<path d="M65.3415 6.0960
L65.3415 3.5560
" />
</g>
<g style="fill:#006464; fill-opacity:0.0; 
stroke:#006464; stroke-width:0.1524; stroke-opacity:1; 
stroke-linecap:round; stroke-linejoin:round;">
<g transform="rotate(-90.000000 65.3415 7.1120)">
<text x="65.3415" y="7.7470"
textLength="2.3199" font-size="1.6933" lengthAdjust="spacingAndGlyphs"
text-anchor="end" opacity="0">Vs</text>
</g>
<g class="stroked-text"><desc>Vs</desc>
<path d="M64.6510 9.2079
L65.9210 8.7846
" />
<path d="M65.9210 8.7846
L64.6510 8.3612
" />
<path d="M65.8606 7.9983
L65.9210 7.8774
" />
<path d="M65.9210 7.8774
L65.9210 7.6355
" />
<path d="M65.9210 7.6355
L65.8606 7.5145
" />
<path d="M65.8606 7.5145
L65.7396 7.4541
" />
<path d="M65.7396 7.4541
L65.6791 7.4541
" />
<path d="M65.6791 7.4541
L65.5582 7.5145
" />
<path d="M65.5582 7.5145
L65.4977 7.6355
" />
<path d="M65.4977 7.6355
L65.4977 7.8169
" />
<path d="M65.4977 7.8169
L65.4372 7.9379
" />
<path d="M65.4372 7.9379
L65.3163 7.9983
" />
<path d="M65.3163 7.9983
L65.2558 7.9983
" />
<path d="M65.2558 7.9983
L65.1348 7.9379
" />
<path d="M65.1348 7.9379
L65.0744 7.8169
" />
<path d="M65.0744 7.8169
L65.0744 7.6355
" />
<path d="M65.0744 7.6355
L65.1348 7.5145
" />
</g></g>
<g style="fill:#A90000; fill-opacity:0.0; 
stroke:#A90000; stroke-width:0.1524; stroke-opacity:1; 
stroke-linecap:round; stroke-linejoin:round;">
<g transform="rotate(-90.000000 65.0875 4.8260)">
<text x="65.0875" y="4.8260"
textLength="1.4127" font-size="1.6933" lengthAdjust="spacingAndGlyphs"
text-anchor="middle" opacity="0">6</text>
</g>
<g class="stroked-text"><desc>6</desc>
<path d="M63.6540 4.5840
L63.6540 4.8259
" />
<path d="M63.6540 4.8259
L63.7145 4.9468
" />
<path d="M63.7145 4.9468
L63.7750 5.0073
" />
<path d="M63.7750 5.0073
L63.9564 5.1283
" />
<path d="M63.9564 5.1283
L64.1983 5.1887
" />
<path d="M64.1983 5.1887
L64.6821 5.1887
" />
<path d="M64.6821 5.1887
L64.8031 5.1283
" />
<path d="M64.8031 5.1283
L64.8636 5.0678
" />
<path d="M64.8636 5.0678
L64.9240 4.9468
" />
<path d="M64.9240 4.9468
L64.9240 4.7049
" />
<path d="M64.9240 4.7049
L64.8636 4.5840
" />
<path d="M64.8636 4.5840
L64.8031 4.5235
" />
<path d="M64.8031 4.5235
L64.6821 4.4630
" />
<path d="M64.6821 4.4630
L64.3797 4.4630
" />
<path d="M64.3797 4.4630
L64.2588 4.5235
" />
<path d="M64.2588 4.5235
L64.1983 4.5840
" />
<path d="M64.1983 4.5840
L64.1378 4.7049
" />
<path d="M64.1378 4.7049
L64.1378 4.9468
" />
<path d="M64.1378 4.9468
L64.1983 5.0678
" />
<path d="M64.1983 5.0678
L64.2588 5.1283
" />
<path d="M64.2588 5.1283
L64.3797 5.1887
" />
</g></g>
<g style="fill:#840000; fill-opacity:0.0; 
stroke:#840000; stroke-width:0.1524; stroke-opacity:1; 
stroke-linecap:round; stroke-linejoin:round;">
<path d="M50.1015 8.6360
L47.5615 8.6360
" />
</g>
<g style="fill:#006464; fill-opacity:0.0; 
stroke:#006464; stroke-width:0.1524; stroke-opacity:1; 
stroke-linecap:round; stroke-linejoin:round;">
<text x="51.1175" y="9.2710"
textLength="3.3480" font-size="1.6933" lengthAdjust="spacingAndGlyphs"
text-anchor="start" opacity="0">IN1</text>
<g class="stroked-text"><desc>IN1</desc>
<path d="M51.5200 9.2155
L51.5200 7.9455
" />
<path d="M52.1248 9.2155
L52.1248 7.9455
" />
<path d="M52.1248 7.9455
L52.8505 9.2155
" />
<path d="M52.8505 9.2155
L52.8505 7.9455
" />
<path d="M54.1206 9.2155
L53.3949 9.2155
" />
<path d="M53.7577 9.2155
L53.7577 7.9455
" />
<path d="M53.7577 7.9455
L53.6368 8.1270
" />
<path d="M53.6368 8.1270
L53.5158 8.2479
" />
<path d="M53.5158 8.2479
L53.3949 8.3084
" />
</g></g>
<g style="fill:#A90000; fill-opacity:0.0; 
stroke:#A90000; stroke-width:0.1524; stroke-opacity:1; 
stroke-linecap:round; stroke-linejoin:round;">
<text x="48.8315" y="8.3820"
textLength="1.4127" font-size="1.6933" lengthAdjust="spacingAndGlyphs"
text-anchor="middle" opacity="0">7</text>
<g class="stroked-text"><desc>7</desc>
<path d="M48.4082 6.9485
L49.2548 6.9485
" />
<path d="M49.2548 6.9485
L48.7106 8.2185
" />
</g></g>
<g style="fill:#840000; fill-opacity:0.0; 
stroke:#840000; stroke-width:0.1524; stroke-opacity:1; 
stroke-linecap:round; stroke-linejoin:round;">
<path d="M50.1015 13.7160
L47.5615 13.7160
" />
</g>
<g style="fill:#006464; fill-opacity:0.0; 
stroke:#006464; stroke-width:0.1524; stroke-opacity:1; 
stroke-linecap:round; stroke-linejoin:round;">
<text x="51.1175" y="14.3510"
textLength="3.5898" font-size="1.6933" lengthAdjust="spacingAndGlyphs"
text-anchor="start" opacity="0">EnA</text>
<g class="stroked-text"><desc>EnA</desc>
<path d="M51.5200 13.6303
L51.9434 13.6303
" />
<path d="M52.1248 14.2955
L51.5200 14.2955
" />
<path d="M51.5200 14.2955
L51.5200 13.0255
" />
<path d="M51.5200 13.0255
L52.1248 13.0255
" />
<path d="M52.6690 13.4489
L52.6690 14.2955
" />
<path d="M52.6690 13.5698
L52.7295 13.5093
" />
<path d="M52.7295 13.5093
L52.8505 13.4489
" />
<path d="M52.8505 13.4489
L53.0319 13.4489
" />
<path d="M53.0319 13.4489
L53.1528 13.5093
" />
<path d="M53.1528 13.5093
L53.2133 13.6303
" />
<path d="M53.2133 13.6303
L53.2133 14.2955
" />
<path d="M53.7576 13.9327
L54.3623 13.9327
" />
<path d="M53.6366 14.2955
L54.0599 13.0255
" />
<path d="M54.0599 13.0255
L54.4833 14.2955
" />
</g></g>
<g style="fill:#A90000; fill-opacity:0.0; 
stroke:#A90000; stroke-width:0.1524; stroke-opacity:1; 
stroke-linecap:round; stroke-linejoin:round;">
<text x="48.8315" y="13.4620"
textLength="1.4127" font-size="1.6933" lengthAdjust="spacingAndGlyphs"
text-anchor="middle" opacity="0">8</text>
<g class="stroked-text"><desc>8</desc>
<path d="M48.7106 12.5728
L48.5896 12.5123
" />
<path d="M48.5896 12.5123
L48.5291 12.4519
" />
<path d="M48.5291 12.4519
L48.4687 12.3309
" />
<path d="M48.4687 12.3309
L48.4687 12.2704
" />
<path d="M48.4687 12.2704
L48.5291 12.1495
" />
<path d="M48.5291 12.1495
L48.5896 12.0890
" />
<path d="M48.5896 12.0890
L48.7106 12.0285
" />
<path d="M48.7106 12.0285
L48.9525 12.0285
" />
<path d="M48.9525 12.0285
L49.0734 12.0890
" />
<path d="M49.0734 12.0890
L49.1339 12.1495
" />
<path d="M49.1339 12.1495
L49.1944 12.2704
" />
<path d="M49.1944 12.2704
L49.1944 12.3309
" />
<path d="M49.1944 12.3309
L49.1339 12.4519
" />
<path d="M49.1339 12.4519
L49.0734 12.5123
" />
<path d="M49.0734 12.5123
L48.9525 12.5728
" />
<path d="M48.9525 12.5728
L48.7106 12.5728
" />
<path d="M48.7106 12.5728
L48.5896 12.6333
" />
<path d="M48.5896 12.6333
L48.5291 12.6938
" />
<path d="M48.5291 12.6938
L48.4687 12.8147
" />
<path d="M48.4687 12.8147
L48.4687 13.0566
" />
<path d="M48.4687 13.0566
L48.5291 13.1776
" />
<path d="M48.5291 13.1776
L48.5896 13.2381
" />
<path d="M48.5896 13.2381
L48.7106 13.2985
" />
<path d="M48.7106 13.2985
L48.9525 13.2985
" />
<path d="M48.9525 13.2985
L49.0734 13.2381
" />
<path d="M49.0734 13.2381
L49.1339 13.1776
" />
<path d="M49.1339 13.1776
L49.1944 13.0566
" />
<path d="M49.1944 13.0566
L49.1944 12.8147
" />
<path d="M49.1944 12.8147
L49.1339 12.6938
" />
<path d="M49.1339 12.6938
L49.0734 12.6333
" />
<path d="M49.0734 12.6333
L48.9525 12.5728
" />
</g></g>
<g style="fill:#840000; fill-opacity:0.0; 
stroke:#840000; stroke-width:0.1524; stroke-opacity:1; 
stroke-linecap:round; stroke-linejoin:round;">
<path d="M50.1015 11.1760
L47.5615 11.1760
" />
</g>
<g style="fill:#006464; fill-opacity:0.0; 
stroke:#006464; stroke-width:0.1524; stroke-opacity:1; 
stroke-linecap:round; stroke-linejoin:round;">
<text x="51.1175" y="11.8110"
textLength="3.3480" font-size="1.6933" lengthAdjust="spacingAndGlyphs"
text-anchor="start" opacity="0">IN2</text>
<g class="stroked-text"><desc>IN2</desc>
<path d="M51.5200 11.7555
L51.5200 10.4855
" />
<path d="M52.1248 11.7555
L52.1248 10.4855
" />
<path d="M52.1248 10.4855
L52.8505 11.7555
" />
<path d="M52.8505 11.7555
L52.8505 10.4855
" />
<path d="M53.3949 10.6065
L53.4553 10.5460
" />
<path d="M53.4553 10.5460
L53.5763 10.4855
" />
<path d="M53.5763 10.4855
L53.8787 10.4855
" />
<path d="M53.8787 10.4855
L53.9996 10.5460
" />
<path d="M53.9996 10.5460
L54.0601 10.6065
" />
<path d="M54.0601 10.6065
L54.1206 10.7274
" />
<path d="M54.1206 10.7274
L54.1206 10.8484
" />
<path d="M54.1206 10.8484
L54.0601 11.0298
" />
<path d="M54.0601 11.0298
L53.3344 11.7555
" />
<path d="M53.3344 11.7555
L54.1206 11.7555
" />
</g></g>
<g style="fill:#A90000; fill-opacity:0.0; 
stroke:#A90000; stroke-width:0.1524; stroke-opacity:1; 
stroke-linecap:round; stroke-linejoin:round;">
<text x="48.8315" y="10.9220"
textLength="1.4127" font-size="1.6933" lengthAdjust="spacingAndGlyphs"
text-anchor="middle" opacity="0">9</text>
<g class="stroked-text"><desc>9</desc>
<path d="M48.5896 10.7585
L48.8315 10.7585
" />
<path d="M48.8315 10.7585
L48.9525 10.6981
" />
<path d="M48.9525 10.6981
L49.0129 10.6376
" />
<path d="M49.0129 10.6376
L49.1339 10.4561
" />
<path d="M49.1339 10.4561
L49.1944 10.2142
" />
<path d="M49.1944 10.2142
L49.1944 9.7304
" />
<path d="M49.1944 9.7304
L49.1339 9.6095
" />
<path d="M49.1339 9.6095
L49.0734 9.5490
" />
<path d="M49.0734 9.5490
L48.9525 9.4885
" />
<path d="M48.9525 9.4885
L48.7106 9.4885
" />
<path d="M48.7106 9.4885
L48.5896 9.5490
" />
<path d="M48.5896 9.5490
L48.5291 9.6095
" />
<path d="M48.5291 9.6095
L48.4687 9.7304
" />
<path d="M48.4687 9.7304
L48.4687 10.0328
" />
<path d="M48.4687 10.0328
L48.5291 10.1538
" />
<path d="M48.5291 10.1538
L48.5896 10.2142
" />
<path d="M48.5896 10.2142
L48.7106 10.2747
" />
<path d="M48.7106 10.2747
L48.9525 10.2747
" />
<path d="M48.9525 10.2747
L49.0734 10.2142
" />
<path d="M49.0734 10.2142
L49.1339 10.1538
" />
<path d="M49.1339 10.1538
L49.1944 10.0328
" />
</g></g>
<g style="fill:#840084; fill-opacity:0.0; 
stroke:#840084; stroke-width:0.1524; stroke-opacity:1; 
stroke-linecap:round; stroke-linejoin:round;">
</g>
<g style="fill:#006464; fill-opacity:0.0; 
stroke:#006464; stroke-width:0.1524; stroke-opacity:1; 
stroke-linecap:round; stroke-linejoin:round;">
</g>
<g style="fill:#006464; fill-opacity:0.0; 
stroke:#006464; stroke-width:0.1588; stroke-opacity:1; 
stroke-linecap:round; stroke-linejoin:round;">
<text x="52.6415" y="5.4610"
textLength="2.6415" font-size="1.6933" lengthAdjust="spacingAndGlyphs"
text-anchor="middle" opacity="0">U?</text>
<g class="stroked-text"><desc>U?</desc>
<path d="M51.7343 4.1352
L51.7343 5.1633
" />
<path d="M51.7343 5.1633
L51.7948 5.2843
" />
<path d="M51.7948 5.2843
L51.8553 5.3448
" />
<path d="M51.8553 5.3448
L51.9762 5.4052
" />
<path d="M51.9762 5.4052
L52.2181 5.4052
" />
<path d="M52.2181 5.4052
L52.3391 5.3448
" />
<path d="M52.3391 5.3448
L52.3996 5.2843
" />
<path d="M52.3996 5.2843
L52.4600 5.1633
" />
<path d="M52.4600 5.1633
L52.4600 4.1352
" />
<path d="M53.2463 5.2843
L53.3067 5.3448
" />
<path d="M53.3067 5.3448
L53.2463 5.4052
" />
<path d="M53.2463 5.4052
L53.1858 5.3448
" />
<path d="M53.1858 5.3448
L53.2463 5.2843
" />
<path d="M53.2463 5.2843
L53.2463 5.4052
" />
<path d="M53.0044 4.1957
L53.1253 4.1352
" />
<path d="M53.1253 4.1352
L53.4277 4.1352
" />
<path d="M53.4277 4.1352
L53.5486 4.1957
" />
<path d="M53.5486 4.1957
L53.6091 4.3167
" />
<path d="M53.6091 4.3167
L53.6091 4.4376
" />
<path d="M53.6091 4.4376
L53.5486 4.5586
" />
<path d="M53.5486 4.5586
L53.4882 4.6190
" />
<path d="M53.4882 4.6190
L53.3672 4.6795
" />
<path d="M53.3672 4.6795
L53.3067 4.7400
" />
<path d="M53.3067 4.7400
L53.2463 4.8609
" />
<path d="M53.2463 4.8609
L53.2463 4.9214
" />
</g><text x="72.9615" y="38.4810"
textLength="6.1490" font-size="1.6933" lengthAdjust="spacingAndGlyphs"
text-anchor="middle" opacity="0">L298P</text>
<g class="stroked-text"><desc>L298P</desc>
<path d="M70.9053 38.4252
L70.3005 38.4252
" />
<path d="M70.3005 38.4252
L70.3005 37.1552
" />
<path d="M71.2682 37.2762
L71.3286 37.2157
" />
<path d="M71.3286 37.2157
L71.4496 37.1552
" />
<path d="M71.4496 37.1552
L71.7520 37.1552
" />
<path d="M71.7520 37.1552
L71.8729 37.2157
" />
<path d="M71.8729 37.2157
L71.9334 37.2762
" />
<path d="M71.9334 37.2762
L71.9939 37.3971
" />
<path d="M71.9939 37.3971
L71.9939 37.5181
" />
<path d="M71.9939 37.5181
L71.9334 37.6995
" />
<path d="M71.9334 37.6995
L71.2077 38.4252
" />
<path d="M71.2077 38.4252
L71.9939 38.4252
" />
<path d="M72.5986 38.4252
L72.8405 38.4252
" />
<path d="M72.8405 38.4252
L72.9615 38.3648
" />
<path d="M72.9615 38.3648
L73.0219 38.3043
" />
<path d="M73.0219 38.3043
L73.1429 38.1228
" />
<path d="M73.1429 38.1228
L73.2034 37.8809
" />
<path d="M73.2034 37.8809
L73.2034 37.3971
" />
<path d="M73.2034 37.3971
L73.1429 37.2762
" />
<path d="M73.1429 37.2762
L73.0824 37.2157
" />
<path d="M73.0824 37.2157
L72.9615 37.1552
" />
<path d="M72.9615 37.1552
L72.7196 37.1552
" />
<path d="M72.7196 37.1552
L72.5986 37.2157
" />
<path d="M72.5986 37.2157
L72.5381 37.2762
" />
<path d="M72.5381 37.2762
L72.4777 37.3971
" />
<path d="M72.4777 37.3971
L72.4777 37.6995
" />
<path d="M72.4777 37.6995
L72.5381 37.8205
" />
<path d="M72.5381 37.8205
L72.5986 37.8809
" />
<path d="M72.5986 37.8809
L72.7196 37.9414
" />
<path d="M72.7196 37.9414
L72.9615 37.9414
" />
<path d="M72.9615 37.9414
L73.0824 37.8809
" />
<path d="M73.0824 37.8809
L73.1429 37.8205
" />
<path d="M73.1429 37.8205
L73.2034 37.6995
" />
<path d="M73.9291 37.6995
L73.8081 37.6390
" />
<path d="M73.8081 37.6390
L73.7476 37.5786
" />
<path d="M73.7476 37.5786
L73.6872 37.4576
" />
<path d="M73.6872 37.4576
L73.6872 37.3971
" />
<path d="M73.6872 37.3971
L73.7476 37.2762
" />
<path d="M73.7476 37.2762
L73.8081 37.2157
" />
<path d="M73.8081 37.2157
L73.9291 37.1552
" />
<path d="M73.9291 37.1552
L74.1710 37.1552
" />
<path d="M74.1710 37.1552
L74.2919 37.2157
" />
<path d="M74.2919 37.2157
L74.3524 37.2762
" />
<path d="M74.3524 37.2762
L74.4129 37.3971
" />
<path d="M74.4129 37.3971
L74.4129 37.4576
" />
<path d="M74.4129 37.4576
L74.3524 37.5786
" />
<path d="M74.3524 37.5786
L74.2919 37.6390
" />
<path d="M74.2919 37.6390
L74.1710 37.6995
" />
<path d="M74.1710 37.6995
L73.9291 37.6995
" />
<path d="M73.9291 37.6995
L73.8081 37.7600
" />
<path d="M73.8081 37.7600
L73.7476 37.8205
" />
<path d="M73.7476 37.8205
L73.6872 37.9414
" />
<path d="M73.6872 37.9414
L73.6872 38.1833
" />
<path d="M73.6872 38.1833
L73.7476 38.3043
" />
<path d="M73.7476 38.3043
L73.8081 38.3648
" />
<path d="M73.8081 38.3648
L73.9291 38.4252
" />
<path d="M73.9291 38.4252
L74.1710 38.4252
" />
<path d="M74.1710 38.4252
L74.2919 38.3648
" />
<path d="M74.2919 38.3648
L74.3524 38.3043
" />
<path d="M74.3524 38.3043
L74.4129 38.1833
" />
<path d="M74.4129 38.1833
L74.4129 37.9414
" />
<path d="M74.4129 37.9414
L74.3524 37.8205
" />
<path d="M74.3524 37.8205
L74.2919 37.7600
" />
<path d="M74.2919 37.7600
L74.1710 37.6995
" />
<path d="M74.9571 38.4252
L74.9571 37.1552
" />
<path d="M74.9571 37.1552
L75.4409 37.1552
" />
<path d="M75.4409 37.1552
L75.5619 37.2157
" />
<path d="M75.5619 37.2157
L75.6224 37.2762
" />
<path d="M75.6224 37.2762
L75.6828 37.3971
" />
<path d="M75.6828 37.3971
L75.6828 37.5786
" />
<path d="M75.6828 37.5786
L75.6224 37.6995
" />
<path d="M75.6224 37.6995
L75.5619 37.7600
" />
<path d="M75.5619 37.7600
L75.4409 37.8205
" />
<path d="M75.4409 37.8205
L74.9571 37.8205
" />
</g></g> 
</svg>
