<?xml version="1.0" standalone="no"?>
 <!DOCTYPE svg PUBLIC "-//W3C//DTD SVG 1.1//EN" 
 "http://www.w3.org/Graphics/SVG/1.1/DTD/svg11.dtd"> 
<svg
  xmlns:svg="http://www.w3.org/2000/svg"
  xmlns="http://www.w3.org/2000/svg"
  xmlns:xlink="http://www.w3.org/1999/xlink"
  version="1.1"
  width="32.9946mm" height="8.5852mm" viewBox="0.0000 0.0000 32.9946 8.5852">
<title>SVG Image created as LGA-14_3x5mm_P0.8mm_LayoutBorder1x6y.svg date 2024/01/16 15:07:22 </title>
  <desc>Image generated by PCBNEW </desc>
<g style="fill:#000000; fill-opacity:1.0000;stroke:#000000; stroke-opacity:1.0000;
stroke-linecap:round; stroke-linejoin:round;"
 transform="translate(0 0) scale(1 1)">
</g>
<g style="fill:#000000; fill-opacity:0.0; 
stroke:#000000; stroke-width:0.0000; stroke-opacity:1; 
stroke-linecap:round; stroke-linejoin:round;">
</g>
<g style="fill:#000000; fill-opacity:1.0000; 
stroke:#000000; stroke-width:0.0212; stroke-opacity:1; 
stroke-linecap:round; stroke-linejoin:round;">
<rect x="-5.000000" y="-5.000000" width="43.011907" height="18.596500" rx="0.000000" />
</g>
<g style="fill:#FFFFFF; fill-opacity:1.0000; 
stroke:#FFFFFF; stroke-width:0.0212; stroke-opacity:1; 
stroke-linecap:round; stroke-linejoin:round;">
<g >
</g>
<g >
</g>
<g >
</g>
<g >
</g>
</g>
<g style="fill:#FFFFFF; fill-opacity:1.0000; 
stroke:#FFFFFF; stroke-width:0.0212; stroke-opacity:1; 
stroke-linecap:round; stroke-linejoin:round;">
<g >
</g>
<g >
</g>
<g >
</g>
<g >
</g>
</g>
<g style="fill:#FFFFFF; fill-opacity:1.0000; 
stroke:#FFFFFF; stroke-width:0.0212; stroke-opacity:1; 
stroke-linecap:round; stroke-linejoin:round;">
<g >
</g>
<g >
</g>
<g >
</g>
<g >
</g>
</g>
<g style="fill:#FFFFFF; fill-opacity:1.0000; 
stroke:#FFFFFF; stroke-width:0.0212; stroke-opacity:1; 
stroke-linecap:round; stroke-linejoin:round;">
<g >
</g>
<g >
</g>
<g >
</g>
<g >
</g>
</g>
<g style="fill:#FFFFFF; fill-opacity:1.0000; 
stroke:#FFFFFF; stroke-width:0.0212; stroke-opacity:1; 
stroke-linecap:round; stroke-linejoin:round;">
<g >
</g>
<g >
</g>
<g >
</g>
<g >
</g>
</g>
<g style="fill:#FFFFFF; fill-opacity:1.0000; 
stroke:#FFFFFF; stroke-width:0.0212; stroke-opacity:1; 
stroke-linecap:round; stroke-linejoin:round;">
<g >
</g>
<g >
</g>
<g >
</g>
<g >
</g>
</g>
<g style="fill:#FFFFFF; fill-opacity:1.0000; 
stroke:#FFFFFF; stroke-width:0.0212; stroke-opacity:1; 
stroke-linecap:round; stroke-linejoin:round;">
<g >
</g>
<g >
</g>
<g >
</g>
<g >
</g>
</g>
<g style="fill:#FFFFFF; fill-opacity:1.0000; 
stroke:#FFFFFF; stroke-width:0.0212; stroke-opacity:1; 
stroke-linecap:round; stroke-linejoin:round;">
<g >
</g>
<g >
</g>
<g >
</g>
<g >
</g>
</g>
<g style="fill:#FFFFFF; fill-opacity:1.0000; 
stroke:#FFFFFF; stroke-width:0.0212; stroke-opacity:1; 
stroke-linecap:round; stroke-linejoin:round;">
<g >
</g>
<g >
</g>
<g >
</g>
<g >
</g>
</g>
<g style="fill:#FFFFFF; fill-opacity:1.0000; 
stroke:#FFFFFF; stroke-width:0.0212; stroke-opacity:1; 
stroke-linecap:round; stroke-linejoin:round;">
<g >
</g>
<g >
</g>
<g >
</g>
<g >
</g>
</g>
<g style="fill:#FFFFFF; fill-opacity:1.0000; 
stroke:#FFFFFF; stroke-width:0.0212; stroke-opacity:1; 
stroke-linecap:round; stroke-linejoin:round;">
<g >
</g>
<g >
</g>
<g >
</g>
<g >
</g>
</g>
<g style="fill:#FFFFFF; fill-opacity:1.0000; 
stroke:#FFFFFF; stroke-width:0.0212; stroke-opacity:1; 
stroke-linecap:round; stroke-linejoin:round;">
<g >
</g>
<g >
</g>
<g >
</g>
<g >
</g>
</g>
<g style="fill:#FFFFFF; fill-opacity:1.0000; 
stroke:#FFFFFF; stroke-width:0.0212; stroke-opacity:1; 
stroke-linecap:round; stroke-linejoin:round;">
<g >
</g>
<g >
</g>
<g >
</g>
<g >
</g>
</g>
<g style="fill:#FFFFFF; fill-opacity:1.0000; 
stroke:#FFFFFF; stroke-width:0.0212; stroke-opacity:1; 
stroke-linecap:round; stroke-linejoin:round;">
<g >
</g>
<g >
</g>
<g >
</g>
<g >
</g>
</g>
<g style="fill:#FFFFFF; fill-opacity:1.0000; 
stroke:#FFFFFF; stroke-width:0.0212; stroke-opacity:1; 
stroke-linecap:round; stroke-linejoin:round;">
<g >
</g>
<g >
</g>
<g >
</g>
<g >
</g>
</g>
<g style="fill:#FFFFFF; fill-opacity:1.0000; 
stroke:#FFFFFF; stroke-width:0.0212; stroke-opacity:1; 
stroke-linecap:round; stroke-linejoin:round;">
<g >
</g>
<g >
</g>
<g >
</g>
<g >
</g>
</g>
<g style="fill:#FFFFFF; fill-opacity:1.0000; 
stroke:#FFFFFF; stroke-width:0.0212; stroke-opacity:1; 
stroke-linecap:round; stroke-linejoin:round;">
<g >
</g>
<g >
</g>
<g >
</g>
<g >
</g>
</g>
<g style="fill:#FFFFFF; fill-opacity:1.0000; 
stroke:#FFFFFF; stroke-width:0.0212; stroke-opacity:1; 
stroke-linecap:round; stroke-linejoin:round;">
<g >
</g>
<g >
</g>
<g >
</g>
<g >
</g>
</g>
<g style="fill:#FFFFFF; fill-opacity:1.0000; 
stroke:#FFFFFF; stroke-width:0.0212; stroke-opacity:1; 
stroke-linecap:round; stroke-linejoin:round;">
<g >
</g>
<g >
</g>
<g >
</g>
<g >
</g>
</g>
<g style="fill:#FFFFFF; fill-opacity:1.0000; 
stroke:#FFFFFF; stroke-width:0.0212; stroke-opacity:1; 
stroke-linecap:round; stroke-linejoin:round;">
<g >
</g>
<g >
</g>
<g >
</g>
<g >
</g>
</g>
<g style="fill:#FFFFFF; fill-opacity:1.0000; 
stroke:#FFFFFF; stroke-width:0.0212; stroke-opacity:1; 
stroke-linecap:round; stroke-linejoin:round;">
<g >
</g>
<g >
</g>
<g >
</g>
<g >
</g>
</g>
<g style="fill:#FFFFFF; fill-opacity:1.0000; 
stroke:#FFFFFF; stroke-width:0.0212; stroke-opacity:1; 
stroke-linecap:round; stroke-linejoin:round;">
<g >
</g>
<g >
</g>
<g >
</g>
<g >
</g>
</g>
<g style="fill:#FFFFFF; fill-opacity:1.0000; 
stroke:#FFFFFF; stroke-width:0.0212; stroke-opacity:1; 
stroke-linecap:round; stroke-linejoin:round;">
<g >
</g>
<g >
</g>
<g >
</g>
<g >
</g>
</g>
<g style="fill:#FFFFFF; fill-opacity:1.0000; 
stroke:#FFFFFF; stroke-width:0.0212; stroke-opacity:1; 
stroke-linecap:round; stroke-linejoin:round;">
<g >
</g>
<g >
</g>
<g >
</g>
<g >
</g>
</g>
<g style="fill:#FFFFFF; fill-opacity:1.0000; 
stroke:#FFFFFF; stroke-width:0.0212; stroke-opacity:1; 
stroke-linecap:round; stroke-linejoin:round;">
<g >
</g>
<g >
</g>
<g >
</g>
<g >
</g>
</g>
<g style="fill:#FFFFFF; fill-opacity:1.0000; 
stroke:#FFFFFF; stroke-width:0.0212; stroke-opacity:1; 
stroke-linecap:round; stroke-linejoin:round;">
<g >
</g>
<g >
</g>
<g >
</g>
<g >
</g>
</g>
<g style="fill:#FFFFFF; fill-opacity:1.0000; 
stroke:#FFFFFF; stroke-width:0.0212; stroke-opacity:1; 
stroke-linecap:round; stroke-linejoin:round;">
<g >
</g>
<g >
</g>
<g >
</g>
<g >
</g>
</g>
<g style="fill:#FFFFFF; fill-opacity:1.0000; 
stroke:#FFFFFF; stroke-width:0.0212; stroke-opacity:1; 
stroke-linecap:round; stroke-linejoin:round;">
<g >
</g>
<g >
</g>
<g >
</g>
<g >
</g>
</g>
<g style="fill:#FFFFFF; fill-opacity:1.0000; 
stroke:#FFFFFF; stroke-width:0.0212; stroke-opacity:1; 
stroke-linecap:round; stroke-linejoin:round;">
<g >
</g>
<g >
</g>
<g >
</g>
<g >
</g>
</g>
<g style="fill:#FFFFFF; fill-opacity:1.0000; 
stroke:#FFFFFF; stroke-width:0.0212; stroke-opacity:1; 
stroke-linecap:round; stroke-linejoin:round;">
<g >
</g>
<g >
</g>
<g >
</g>
<g >
</g>
</g>
<g style="fill:#FFFFFF; fill-opacity:1.0000; 
stroke:#FFFFFF; stroke-width:0.0212; stroke-opacity:1; 
stroke-linecap:round; stroke-linejoin:round;">
<g >
</g>
<g >
</g>
<g >
</g>
<g >
</g>
</g>
<g style="fill:#FFFFFF; fill-opacity:1.0000; 
stroke:#FFFFFF; stroke-width:0.0212; stroke-opacity:1; 
stroke-linecap:round; stroke-linejoin:round;">
<g >
</g>
<g >
</g>
<g >
</g>
<g >
</g>
</g>
<g style="fill:#FFFFFF; fill-opacity:1.0000; 
stroke:#FFFFFF; stroke-width:0.0212; stroke-opacity:1; 
stroke-linecap:round; stroke-linejoin:round;">
<g >
</g>
<g >
</g>
<g >
</g>
<g >
</g>
</g>
<g style="fill:#FFFFFF; fill-opacity:1.0000; 
stroke:#FFFFFF; stroke-width:0.0212; stroke-opacity:1; 
stroke-linecap:round; stroke-linejoin:round;">
<g >
</g>
<g style="fill:#37CBCB; fill-opacity:1.0000; 
stroke:#37CBCB; stroke-width:0.0212; stroke-opacity:1; 
stroke-linecap:round; stroke-linejoin:round;">
</g>
<g style="fill:#37CBCB; fill-opacity:1.0000; 
stroke:#37CBCB; stroke-width:0.0000; stroke-opacity:1; 
stroke-linecap:round; stroke-linejoin:round;">
<path style="fill:#37CBCB; fill-opacity:1.0000; 
stroke:#37CBCB; stroke-width:0.0000; stroke-opacity:1; 
stroke-linecap:round; stroke-linejoin:round;fill-rule:evenodd;"
d="M 15.0310,2.1482
15.0424,2.0908
15.0749,2.0422
15.1235,2.0097
15.1810,1.9982
15.8310,1.9982
15.8884,2.0097
15.9370,2.0422
15.9695,2.0908
15.9810,2.1482
15.9810,2.4482
15.9695,2.5057
15.9370,2.5543
15.8884,2.5868
15.8310,2.5982
15.1810,2.5982
15.1235,2.5868
15.0749,2.5543
15.0424,2.5057
15.0310,2.4482
Z" /> 
<path style="fill:#37CBCB; fill-opacity:1.0000; 
stroke:#37CBCB; stroke-width:0.0000; stroke-opacity:1; 
stroke-linecap:round; stroke-linejoin:round;fill-rule:evenodd;"
d="M 15.0310,2.9482
15.0424,2.8908
15.0749,2.8422
15.1235,2.8097
15.1810,2.7982
15.8310,2.7982
15.8884,2.8097
15.9370,2.8422
15.9695,2.8908
15.9810,2.9482
15.9810,3.2482
15.9695,3.3057
15.9370,3.3543
15.8884,3.3868
15.8310,3.3982
15.1810,3.3982
15.1235,3.3868
15.0749,3.3543
15.0424,3.3057
15.0310,3.2482
Z" /> 
<path style="fill:#37CBCB; fill-opacity:1.0000; 
stroke:#37CBCB; stroke-width:0.0000; stroke-opacity:1; 
stroke-linecap:round; stroke-linejoin:round;fill-rule:evenodd;"
d="M 15.0310,3.7482
15.0424,3.6908
15.0749,3.6422
15.1235,3.6097
15.1810,3.5982
15.8310,3.5982
15.8884,3.6097
15.9370,3.6422
15.9695,3.6908
15.9810,3.7482
15.9810,4.0482
15.9695,4.1057
15.9370,4.1543
15.8884,4.1868
15.8310,4.1982
15.1810,4.1982
15.1235,4.1868
15.0749,4.1543
15.0424,4.1057
15.0310,4.0482
Z" /> 
<path style="fill:#37CBCB; fill-opacity:1.0000; 
stroke:#37CBCB; stroke-width:0.0000; stroke-opacity:1; 
stroke-linecap:round; stroke-linejoin:round;fill-rule:evenodd;"
d="M 15.0310,4.5482
15.0424,4.4908
15.0749,4.4422
15.1235,4.4097
15.1810,4.3982
15.8310,4.3982
15.8884,4.4097
15.9370,4.4422
15.9695,4.4908
15.9810,4.5482
15.9810,4.8483
15.9695,4.9057
15.9370,4.9543
15.8884,4.9868
15.8310,4.9982
15.1810,4.9982
15.1235,4.9868
15.0749,4.9543
15.0424,4.9057
15.0310,4.8483
Z" /> 
<path style="fill:#37CBCB; fill-opacity:1.0000; 
stroke:#37CBCB; stroke-width:0.0000; stroke-opacity:1; 
stroke-linecap:round; stroke-linejoin:round;fill-rule:evenodd;"
d="M 15.0310,5.3483
15.0424,5.2908
15.0749,5.2422
15.1235,5.2097
15.1810,5.1982
15.8310,5.1982
15.8884,5.2097
15.9370,5.2422
15.9695,5.2908
15.9810,5.3483
15.9810,5.6482
15.9695,5.7057
15.9370,5.7543
15.8884,5.7868
15.8310,5.7982
15.1810,5.7982
15.1235,5.7868
15.0749,5.7543
15.0424,5.7057
15.0310,5.6482
Z" /> 
<path style="fill:#37CBCB; fill-opacity:1.0000; 
stroke:#37CBCB; stroke-width:0.0000; stroke-opacity:1; 
stroke-linecap:round; stroke-linejoin:round;fill-rule:evenodd;"
d="M 15.0310,6.1482
15.0424,6.0908
15.0749,6.0422
15.1235,6.0097
15.1810,5.9982
15.8310,5.9982
15.8884,6.0097
15.9370,6.0422
15.9695,6.0908
15.9810,6.1482
15.9810,6.4482
15.9695,6.5057
15.9370,6.5543
15.8884,6.5868
15.8310,6.5982
15.1810,6.5982
15.1235,6.5868
15.0749,6.5543
15.0424,6.5057
15.0310,6.4482
Z" /> 
<path style="fill:#37CBCB; fill-opacity:1.0000; 
stroke:#37CBCB; stroke-width:0.0000; stroke-opacity:1; 
stroke-linecap:round; stroke-linejoin:round;fill-rule:evenodd;"
d="M 16.2060,5.9733
16.2174,5.9158
16.2499,5.8672
16.2985,5.8347
16.3560,5.8232
16.6560,5.8232
16.7134,5.8347
16.7620,5.8672
16.7945,5.9158
16.8060,5.9733
16.8060,6.6232
16.7945,6.6807
16.7620,6.7293
16.7134,6.7618
16.6560,6.7732
16.3560,6.7732
16.2985,6.7618
16.2499,6.7293
16.2174,6.6807
16.2060,6.6232
Z" /> 
<path style="fill:#37CBCB; fill-opacity:1.0000; 
stroke:#37CBCB; stroke-width:0.0000; stroke-opacity:1; 
stroke-linecap:round; stroke-linejoin:round;fill-rule:evenodd;"
d="M 17.0310,6.1482
17.0424,6.0908
17.0749,6.0422
17.1235,6.0097
17.1810,5.9982
17.8310,5.9982
17.8884,6.0097
17.9370,6.0422
17.9695,6.0908
17.9810,6.1482
17.9810,6.4482
17.9695,6.5057
17.9370,6.5543
17.8884,6.5868
17.8310,6.5982
17.1810,6.5982
17.1235,6.5868
17.0749,6.5543
17.0424,6.5057
17.0310,6.4482
Z" /> 
<path style="fill:#37CBCB; fill-opacity:1.0000; 
stroke:#37CBCB; stroke-width:0.0000; stroke-opacity:1; 
stroke-linecap:round; stroke-linejoin:round;fill-rule:evenodd;"
d="M 17.0310,5.3483
17.0424,5.2908
17.0749,5.2422
17.1235,5.2097
17.1810,5.1982
17.8310,5.1982
17.8884,5.2097
17.9370,5.2422
17.9695,5.2908
17.9810,5.3483
17.9810,5.6482
17.9695,5.7057
17.9370,5.7543
17.8884,5.7868
17.8310,5.7982
17.1810,5.7982
17.1235,5.7868
17.0749,5.7543
17.0424,5.7057
17.0310,5.6482
Z" /> 
<path style="fill:#37CBCB; fill-opacity:1.0000; 
stroke:#37CBCB; stroke-width:0.0000; stroke-opacity:1; 
stroke-linecap:round; stroke-linejoin:round;fill-rule:evenodd;"
d="M 17.0310,4.5482
17.0424,4.4908
17.0749,4.4422
17.1235,4.4097
17.1810,4.3982
17.8310,4.3982
17.8884,4.4097
17.9370,4.4422
17.9695,4.4908
17.9810,4.5482
17.9810,4.8483
17.9695,4.9057
17.9370,4.9543
17.8884,4.9868
17.8310,4.9982
17.1810,4.9982
17.1235,4.9868
17.0749,4.9543
17.0424,4.9057
17.0310,4.8483
Z" /> 
<path style="fill:#37CBCB; fill-opacity:1.0000; 
stroke:#37CBCB; stroke-width:0.0000; stroke-opacity:1; 
stroke-linecap:round; stroke-linejoin:round;fill-rule:evenodd;"
d="M 17.0310,3.7482
17.0424,3.6908
17.0749,3.6422
17.1235,3.6097
17.1810,3.5982
17.8310,3.5982
17.8884,3.6097
17.9370,3.6422
17.9695,3.6908
17.9810,3.7482
17.9810,4.0482
17.9695,4.1057
17.9370,4.1543
17.8884,4.1868
17.8310,4.1982
17.1810,4.1982
17.1235,4.1868
17.0749,4.1543
17.0424,4.1057
17.0310,4.0482
Z" /> 
<path style="fill:#37CBCB; fill-opacity:1.0000; 
stroke:#37CBCB; stroke-width:0.0000; stroke-opacity:1; 
stroke-linecap:round; stroke-linejoin:round;fill-rule:evenodd;"
d="M 17.0310,2.9482
17.0424,2.8908
17.0749,2.8422
17.1235,2.8097
17.1810,2.7982
17.8310,2.7982
17.8884,2.8097
17.9370,2.8422
17.9695,2.8908
17.9810,2.9482
17.9810,3.2482
17.9695,3.3057
17.9370,3.3543
17.8884,3.3868
17.8310,3.3982
17.1810,3.3982
17.1235,3.3868
17.0749,3.3543
17.0424,3.3057
17.0310,3.2482
Z" /> 
<path style="fill:#37CBCB; fill-opacity:1.0000; 
stroke:#37CBCB; stroke-width:0.0000; stroke-opacity:1; 
stroke-linecap:round; stroke-linejoin:round;fill-rule:evenodd;"
d="M 17.0310,2.1482
17.0424,2.0908
17.0749,2.0422
17.1235,2.0097
17.1810,1.9982
17.8310,1.9982
17.8884,2.0097
17.9370,2.0422
17.9695,2.0908
17.9810,2.1482
17.9810,2.4482
17.9695,2.5057
17.9370,2.5543
17.8884,2.5868
17.8310,2.5982
17.1810,2.5982
17.1235,2.5868
17.0749,2.5543
17.0424,2.5057
17.0310,2.4482
Z" /> 
<path style="fill:#37CBCB; fill-opacity:1.0000; 
stroke:#37CBCB; stroke-width:0.0000; stroke-opacity:1; 
stroke-linecap:round; stroke-linejoin:round;fill-rule:evenodd;"
d="M 16.2060,1.9732
16.2174,1.9158
16.2499,1.8672
16.2985,1.8347
16.3560,1.8232
16.6560,1.8232
16.7134,1.8347
16.7620,1.8672
16.7945,1.9158
16.8060,1.9732
16.8060,2.6233
16.7945,2.6807
16.7620,2.7293
16.7134,2.7618
16.6560,2.7732
16.3560,2.7732
16.2985,2.7618
16.2499,2.7293
16.2174,2.6807
16.2060,2.6233
Z" /> 
</g>
<g >
</g>
<g >
</g>
<g >
</g>
</g>
<g style="fill:#FFFFFF; fill-opacity:1.0000; 
stroke:#FFFFFF; stroke-width:0.0000; stroke-opacity:1; 
stroke-linecap:round; stroke-linejoin:round;">
<g >
</g>
<g style="fill:#4A5F65; fill-opacity:0.9000; 
stroke:#4A5F65; stroke-width:0.0000; stroke-opacity:1; 
stroke-linecap:round; stroke-linejoin:round;">
<path style="fill:#4A5F65; fill-opacity:0.9000; 
stroke:#4A5F65; stroke-width:0.0000; stroke-opacity:1; 
stroke-linecap:round; stroke-linejoin:round;fill-rule:evenodd;"
d="M 15.0310,2.1482
15.0424,2.0908
15.0749,2.0422
15.1235,2.0097
15.1810,1.9982
15.8310,1.9982
15.8884,2.0097
15.9370,2.0422
15.9695,2.0908
15.9810,2.1482
15.9810,2.4482
15.9695,2.5057
15.9370,2.5543
15.8884,2.5868
15.8310,2.5982
15.1810,2.5982
15.1235,2.5868
15.0749,2.5543
15.0424,2.5057
15.0310,2.4482
Z" /> 
<path style="fill:#4A5F65; fill-opacity:0.9000; 
stroke:#4A5F65; stroke-width:0.0000; stroke-opacity:1; 
stroke-linecap:round; stroke-linejoin:round;fill-rule:evenodd;"
d="M 15.0310,2.9482
15.0424,2.8908
15.0749,2.8422
15.1235,2.8097
15.1810,2.7982
15.8310,2.7982
15.8884,2.8097
15.9370,2.8422
15.9695,2.8908
15.9810,2.9482
15.9810,3.2482
15.9695,3.3057
15.9370,3.3543
15.8884,3.3868
15.8310,3.3982
15.1810,3.3982
15.1235,3.3868
15.0749,3.3543
15.0424,3.3057
15.0310,3.2482
Z" /> 
<path style="fill:#4A5F65; fill-opacity:0.9000; 
stroke:#4A5F65; stroke-width:0.0000; stroke-opacity:1; 
stroke-linecap:round; stroke-linejoin:round;fill-rule:evenodd;"
d="M 15.0310,3.7482
15.0424,3.6908
15.0749,3.6422
15.1235,3.6097
15.1810,3.5982
15.8310,3.5982
15.8884,3.6097
15.9370,3.6422
15.9695,3.6908
15.9810,3.7482
15.9810,4.0482
15.9695,4.1057
15.9370,4.1543
15.8884,4.1868
15.8310,4.1982
15.1810,4.1982
15.1235,4.1868
15.0749,4.1543
15.0424,4.1057
15.0310,4.0482
Z" /> 
<path style="fill:#4A5F65; fill-opacity:0.9000; 
stroke:#4A5F65; stroke-width:0.0000; stroke-opacity:1; 
stroke-linecap:round; stroke-linejoin:round;fill-rule:evenodd;"
d="M 15.0310,4.5482
15.0424,4.4908
15.0749,4.4422
15.1235,4.4097
15.1810,4.3982
15.8310,4.3982
15.8884,4.4097
15.9370,4.4422
15.9695,4.4908
15.9810,4.5482
15.9810,4.8483
15.9695,4.9057
15.9370,4.9543
15.8884,4.9868
15.8310,4.9982
15.1810,4.9982
15.1235,4.9868
15.0749,4.9543
15.0424,4.9057
15.0310,4.8483
Z" /> 
<path style="fill:#4A5F65; fill-opacity:0.9000; 
stroke:#4A5F65; stroke-width:0.0000; stroke-opacity:1; 
stroke-linecap:round; stroke-linejoin:round;fill-rule:evenodd;"
d="M 15.0310,5.3483
15.0424,5.2908
15.0749,5.2422
15.1235,5.2097
15.1810,5.1982
15.8310,5.1982
15.8884,5.2097
15.9370,5.2422
15.9695,5.2908
15.9810,5.3483
15.9810,5.6482
15.9695,5.7057
15.9370,5.7543
15.8884,5.7868
15.8310,5.7982
15.1810,5.7982
15.1235,5.7868
15.0749,5.7543
15.0424,5.7057
15.0310,5.6482
Z" /> 
<path style="fill:#4A5F65; fill-opacity:0.9000; 
stroke:#4A5F65; stroke-width:0.0000; stroke-opacity:1; 
stroke-linecap:round; stroke-linejoin:round;fill-rule:evenodd;"
d="M 15.0310,6.1482
15.0424,6.0908
15.0749,6.0422
15.1235,6.0097
15.1810,5.9982
15.8310,5.9982
15.8884,6.0097
15.9370,6.0422
15.9695,6.0908
15.9810,6.1482
15.9810,6.4482
15.9695,6.5057
15.9370,6.5543
15.8884,6.5868
15.8310,6.5982
15.1810,6.5982
15.1235,6.5868
15.0749,6.5543
15.0424,6.5057
15.0310,6.4482
Z" /> 
<path style="fill:#4A5F65; fill-opacity:0.9000; 
stroke:#4A5F65; stroke-width:0.0000; stroke-opacity:1; 
stroke-linecap:round; stroke-linejoin:round;fill-rule:evenodd;"
d="M 16.2060,5.9733
16.2174,5.9158
16.2499,5.8672
16.2985,5.8347
16.3560,5.8232
16.6560,5.8232
16.7134,5.8347
16.7620,5.8672
16.7945,5.9158
16.8060,5.9733
16.8060,6.6232
16.7945,6.6807
16.7620,6.7293
16.7134,6.7618
16.6560,6.7732
16.3560,6.7732
16.2985,6.7618
16.2499,6.7293
16.2174,6.6807
16.2060,6.6232
Z" /> 
<path style="fill:#4A5F65; fill-opacity:0.9000; 
stroke:#4A5F65; stroke-width:0.0000; stroke-opacity:1; 
stroke-linecap:round; stroke-linejoin:round;fill-rule:evenodd;"
d="M 17.0310,6.1482
17.0424,6.0908
17.0749,6.0422
17.1235,6.0097
17.1810,5.9982
17.8310,5.9982
17.8884,6.0097
17.9370,6.0422
17.9695,6.0908
17.9810,6.1482
17.9810,6.4482
17.9695,6.5057
17.9370,6.5543
17.8884,6.5868
17.8310,6.5982
17.1810,6.5982
17.1235,6.5868
17.0749,6.5543
17.0424,6.5057
17.0310,6.4482
Z" /> 
<path style="fill:#4A5F65; fill-opacity:0.9000; 
stroke:#4A5F65; stroke-width:0.0000; stroke-opacity:1; 
stroke-linecap:round; stroke-linejoin:round;fill-rule:evenodd;"
d="M 17.0310,5.3483
17.0424,5.2908
17.0749,5.2422
17.1235,5.2097
17.1810,5.1982
17.8310,5.1982
17.8884,5.2097
17.9370,5.2422
17.9695,5.2908
17.9810,5.3483
17.9810,5.6482
17.9695,5.7057
17.9370,5.7543
17.8884,5.7868
17.8310,5.7982
17.1810,5.7982
17.1235,5.7868
17.0749,5.7543
17.0424,5.7057
17.0310,5.6482
Z" /> 
<path style="fill:#4A5F65; fill-opacity:0.9000; 
stroke:#4A5F65; stroke-width:0.0000; stroke-opacity:1; 
stroke-linecap:round; stroke-linejoin:round;fill-rule:evenodd;"
d="M 17.0310,4.5482
17.0424,4.4908
17.0749,4.4422
17.1235,4.4097
17.1810,4.3982
17.8310,4.3982
17.8884,4.4097
17.9370,4.4422
17.9695,4.4908
17.9810,4.5482
17.9810,4.8483
17.9695,4.9057
17.9370,4.9543
17.8884,4.9868
17.8310,4.9982
17.1810,4.9982
17.1235,4.9868
17.0749,4.9543
17.0424,4.9057
17.0310,4.8483
Z" /> 
<path style="fill:#4A5F65; fill-opacity:0.9000; 
stroke:#4A5F65; stroke-width:0.0000; stroke-opacity:1; 
stroke-linecap:round; stroke-linejoin:round;fill-rule:evenodd;"
d="M 17.0310,3.7482
17.0424,3.6908
17.0749,3.6422
17.1235,3.6097
17.1810,3.5982
17.8310,3.5982
17.8884,3.6097
17.9370,3.6422
17.9695,3.6908
17.9810,3.7482
17.9810,4.0482
17.9695,4.1057
17.9370,4.1543
17.8884,4.1868
17.8310,4.1982
17.1810,4.1982
17.1235,4.1868
17.0749,4.1543
17.0424,4.1057
17.0310,4.0482
Z" /> 
<path style="fill:#4A5F65; fill-opacity:0.9000; 
stroke:#4A5F65; stroke-width:0.0000; stroke-opacity:1; 
stroke-linecap:round; stroke-linejoin:round;fill-rule:evenodd;"
d="M 17.0310,2.9482
17.0424,2.8908
17.0749,2.8422
17.1235,2.8097
17.1810,2.7982
17.8310,2.7982
17.8884,2.8097
17.9370,2.8422
17.9695,2.8908
17.9810,2.9482
17.9810,3.2482
17.9695,3.3057
17.9370,3.3543
17.8884,3.3868
17.8310,3.3982
17.1810,3.3982
17.1235,3.3868
17.0749,3.3543
17.0424,3.3057
17.0310,3.2482
Z" /> 
<path style="fill:#4A5F65; fill-opacity:0.9000; 
stroke:#4A5F65; stroke-width:0.0000; stroke-opacity:1; 
stroke-linecap:round; stroke-linejoin:round;fill-rule:evenodd;"
d="M 17.0310,2.1482
17.0424,2.0908
17.0749,2.0422
17.1235,2.0097
17.1810,1.9982
17.8310,1.9982
17.8884,2.0097
17.9370,2.0422
17.9695,2.0908
17.9810,2.1482
17.9810,2.4482
17.9695,2.5057
17.9370,2.5543
17.8884,2.5868
17.8310,2.5982
17.1810,2.5982
17.1235,2.5868
17.0749,2.5543
17.0424,2.5057
17.0310,2.4482
Z" /> 
<path style="fill:#4A5F65; fill-opacity:0.9000; 
stroke:#4A5F65; stroke-width:0.0000; stroke-opacity:1; 
stroke-linecap:round; stroke-linejoin:round;fill-rule:evenodd;"
d="M 16.2060,1.9732
16.2174,1.9158
16.2499,1.8672
16.2985,1.8347
16.3560,1.8232
16.6560,1.8232
16.7134,1.8347
16.7620,1.8672
16.7945,1.9158
16.8060,1.9732
16.8060,2.6233
16.7945,2.6807
16.7620,2.7293
16.7134,2.7618
16.6560,2.7732
16.3560,2.7732
16.2985,2.7618
16.2499,2.7293
16.2174,2.6807
16.2060,2.6233
Z" /> 
</g>
<g >
</g>
<g >
</g>
<g >
</g>
</g>
<g style="fill:#FFFFFF; fill-opacity:1.0000; 
stroke:#FFFFFF; stroke-width:0.0000; stroke-opacity:1; 
stroke-linecap:round; stroke-linejoin:round;">
</g>
<g style="fill:#0D115E; fill-opacity:1.0000; 
stroke:#0D115E; stroke-width:0.0000; stroke-opacity:1; 
stroke-linecap:round; stroke-linejoin:round;">
</g>
<g style="fill:#0D115E; fill-opacity:1.0000; 
stroke:#0D115E; stroke-width:0.1500; stroke-opacity:1; 
stroke-linecap:round; stroke-linejoin:round;">
</g>
<g style="fill:#0D115E; fill-opacity:0.0; 
stroke:#0D115E; stroke-width:0.1500; stroke-opacity:1; 
stroke-linecap:round; stroke-linejoin:round;">
<text x="16.5060" y="1.3482"
textLength="4.5357" font-size="1.3333" lengthAdjust="spacingAndGlyphs"
text-anchor="middle" opacity="0">REF**</text>
<g class="stroked-text"><desc>REF**</desc>
<path d="M15.1726 1.3031
L14.8393 0.8269
" />
<path d="M14.6012 1.3031
L14.6012 0.3031
" />
<path d="M14.6012 0.3031
L14.9821 0.3031
" />
<path d="M14.9821 0.3031
L15.0774 0.3507
" />
<path d="M15.0774 0.3507
L15.1250 0.3983
" />
<path d="M15.1250 0.3983
L15.1726 0.4935
" />
<path d="M15.1726 0.4935
L15.1726 0.6364
" />
<path d="M15.1726 0.6364
L15.1250 0.7316
" />
<path d="M15.1250 0.7316
L15.0774 0.7793
" />
<path d="M15.0774 0.7793
L14.9821 0.8269
" />
<path d="M14.9821 0.8269
L14.6012 0.8269
" />
<path d="M15.6012 0.7793
L15.9345 0.7793
" />
<path d="M16.0774 1.3031
L15.6012 1.3031
" />
<path d="M15.6012 1.3031
L15.6012 0.3031
" />
<path d="M15.6012 0.3031
L16.0774 0.3031
" />
<path d="M16.8393 0.7793
L16.5060 0.7793
" />
<path d="M16.5060 1.3031
L16.5060 0.3031
" />
<path d="M16.5060 0.3031
L16.9821 0.3031
" />
<path d="M17.5060 0.3031
L17.5060 0.5412
" />
<path d="M17.2679 0.4459
L17.5060 0.5412
" />
<path d="M17.5060 0.5412
L17.7440 0.4459
" />
<path d="M17.3631 0.7316
L17.5060 0.5412
" />
<path d="M17.5060 0.5412
L17.6488 0.7316
" />
<path d="M18.2679 0.3031
L18.2679 0.5412
" />
<path d="M18.0298 0.4459
L18.2679 0.5412
" />
<path d="M18.2679 0.5412
L18.5060 0.4459
" />
<path d="M18.1250 0.7316
L18.2679 0.5412
" />
<path d="M18.2679 0.5412
L18.4107 0.7316
" />
</g></g>
<g style="fill:#0D115E; fill-opacity:0.0; 
stroke:#0D115E; stroke-width:0.1200; stroke-opacity:1; 
stroke-linecap:round; stroke-linejoin:round;">
<path d="M17.0660 6.9082
L18.1160 6.9082
" />
<path d="M17.0660 1.6883
L18.1160 1.6883
" />
<path d="M15.9460 6.9082
L14.8960 6.9082
" />
<g >
</g>
<g >
</g>
<g >
</g>
<g >
</g>
</g> 
</svg>
