<?xml version="1.0" standalone="no"?>
 <!DOCTYPE svg PUBLIC "-//W3C//DTD SVG 1.1//EN" 
 "http://www.w3.org/Graphics/SVG/1.1/DTD/svg11.dtd"> 
<svg
  xmlns:svg="http://www.w3.org/2000/svg"
  xmlns="http://www.w3.org/2000/svg"
  xmlns:xlink="http://www.w3.org/1999/xlink"
  version="1.1"
  width="62.8904mm" height="21.0312mm" viewBox="0.0000 0.0000 62.8904 21.0312">
<title>SVG Image created as nc3mbv-1.svg date 2024/01/16 15:18:19 </title>
  <desc>Image generated by Eeschema-SVG </desc>
<g style="fill:#000000; fill-opacity:1.0000;stroke:#000000; stroke-opacity:1.0000;
stroke-linecap:round; stroke-linejoin:round;"
 transform="translate(0 0) scale(1 1)">
</g>
<g style="fill:#000000; fill-opacity:0.0; 
stroke:#000000; stroke-width:0.0000; stroke-opacity:1; 
stroke-linecap:round; stroke-linejoin:round;">
</g>
<g style="fill:#000000; fill-opacity:0.0; 
stroke:#000000; stroke-width:0.1524; stroke-opacity:1; 
stroke-linecap:round; stroke-linejoin:round;">
<circle cx="27.8892" cy="10.5156" r="1.0160" /> 
<circle cx="31.4452" cy="14.0716" r="1.0160" /> 
<path style="fill:#000000; fill-opacity:0.0; 
stroke:#000000; stroke-width:0.1524; stroke-opacity:1; 
stroke-linecap:round; stroke-linejoin:round;fill:none"
d="M 26.3652,10.5156
26.8732,10.5156
" /> 
<path style="fill:#000000; fill-opacity:0.0; 
stroke:#000000; stroke-width:0.1524; stroke-opacity:1; 
stroke-linecap:round; stroke-linejoin:round;fill:none"
d="M 31.4452,15.5956
31.4452,15.0876
" /> 
<path style="fill:#000000; fill-opacity:0.0; 
stroke:#000000; stroke-width:0.1524; stroke-opacity:1; 
stroke-linecap:round; stroke-linejoin:round;fill:none"
d="M 36.5252,10.5156
36.0172,10.5156
" /> 
<circle cx="31.4452" cy="10.5156" r="5.0800" /> 
<circle cx="35.0012" cy="10.5156" r="1.0160" /> 
</g>
<g style="fill:#000000; fill-opacity:0.0; 
stroke:#000000; stroke-width:0.2032; stroke-opacity:1; 
stroke-linecap:round; stroke-linejoin:round;">
<text x="27.8892" y="9.2457"
textLength="1.3740" font-size="1.3546" lengthAdjust="spacingAndGlyphs"
text-anchor="middle" opacity="0">1</text>
<g class="stroked-text"><desc>1</desc>
<path d="M28.1794 9.1971
L27.5989 9.1971
" />
<path d="M27.8892 9.1971
L27.8892 8.1811
" />
<path d="M27.8892 8.1811
L27.7924 8.3263
" />
<path d="M27.7924 8.3263
L27.6956 8.4230
" />
<path d="M27.6956 8.4230
L27.5989 8.4714
" />
</g><text x="35.0012" y="9.2457"
textLength="1.3740" font-size="1.3546" lengthAdjust="spacingAndGlyphs"
text-anchor="middle" opacity="0">2</text>
<g class="stroked-text"><desc>2</desc>
<path d="M34.7109 8.2779
L34.7593 8.2295
" />
<path d="M34.7593 8.2295
L34.8560 8.1811
" />
<path d="M34.8560 8.1811
L35.0979 8.1811
" />
<path d="M35.0979 8.1811
L35.1947 8.2295
" />
<path d="M35.1947 8.2295
L35.2431 8.2779
" />
<path d="M35.2431 8.2779
L35.2914 8.3747
" />
<path d="M35.2914 8.3747
L35.2914 8.4714
" />
<path d="M35.2914 8.4714
L35.2431 8.6166
" />
<path d="M35.2431 8.6166
L34.6625 9.1971
" />
<path d="M34.6625 9.1971
L35.2914 9.1971
" />
</g><text x="31.4452" y="12.8017"
textLength="1.3740" font-size="1.3546" lengthAdjust="spacingAndGlyphs"
text-anchor="middle" opacity="0">3</text>
<g class="stroked-text"><desc>3</desc>
<path d="M31.1065 11.7371
L31.7354 11.7371
" />
<path d="M31.7354 11.7371
L31.3968 12.1242
" />
<path d="M31.3968 12.1242
L31.5419 12.1242
" />
<path d="M31.5419 12.1242
L31.6387 12.1726
" />
<path d="M31.6387 12.1726
L31.6871 12.2209
" />
<path d="M31.6871 12.2209
L31.7354 12.3177
" />
<path d="M31.7354 12.3177
L31.7354 12.5596
" />
<path d="M31.7354 12.5596
L31.6871 12.6564
" />
<path d="M31.6871 12.6564
L31.6387 12.7048
" />
<path d="M31.6387 12.7048
L31.5419 12.7531
" />
<path d="M31.5419 12.7531
L31.2516 12.7531
" />
<path d="M31.2516 12.7531
L31.1549 12.7048
" />
<path d="M31.1549 12.7048
L31.1065 12.6564
" />
</g></g>
<g style="fill:#000000; fill-opacity:0.0; 
stroke:#000000; stroke-width:0.1524; stroke-opacity:1; 
stroke-linecap:round; stroke-linejoin:round;">
<path d="M26.3652 10.5156
L23.8252 10.5156
" />
<text x="25.0952" y="10.2616"
textLength="1.4127" font-size="1.6933" lengthAdjust="spacingAndGlyphs"
text-anchor="middle" opacity="0">1</text>
<g class="stroked-text"><desc>1</desc>
<path d="M25.4581 10.0981
L24.7324 10.0981
" />
<path d="M25.0952 10.0981
L25.0952 8.8281
" />
<path d="M25.0952 8.8281
L24.9743 9.0096
" />
<path d="M24.9743 9.0096
L24.8533 9.1305
" />
<path d="M24.8533 9.1305
L24.7324 9.1910
" />
</g><path d="M36.5252 10.5156
L39.0652 10.5156
" />
<text x="37.7952" y="10.2616"
textLength="1.4127" font-size="1.6933" lengthAdjust="spacingAndGlyphs"
text-anchor="middle" opacity="0">2</text>
<g class="stroked-text"><desc>2</desc>
<path d="M37.4324 8.9491
L37.4928 8.8886
" />
<path d="M37.4928 8.8886
L37.6138 8.8281
" />
<path d="M37.6138 8.8281
L37.9162 8.8281
" />
<path d="M37.9162 8.8281
L38.0371 8.8886
" />
<path d="M38.0371 8.8886
L38.0976 8.9491
" />
<path d="M38.0976 8.9491
L38.1581 9.0700
" />
<path d="M38.1581 9.0700
L38.1581 9.1910
" />
<path d="M38.1581 9.1910
L38.0976 9.3724
" />
<path d="M38.0976 9.3724
L37.3719 10.0981
" />
<path d="M37.3719 10.0981
L38.1581 10.0981
" />
</g><path d="M31.4452 15.5956
L31.4452 18.1356
" />
<g transform="rotate(-90.000000 31.1912 16.8656)">
<text x="31.1912" y="16.8656"
textLength="1.4127" font-size="1.6933" lengthAdjust="spacingAndGlyphs"
text-anchor="middle" opacity="0">3</text>
</g>
<g class="stroked-text"><desc>3</desc>
<path d="M29.7577 17.2888
L29.7577 16.5026
" />
<path d="M29.7577 16.5026
L30.2415 16.9260
" />
<path d="M30.2415 16.9260
L30.2415 16.7445
" />
<path d="M30.2415 16.7445
L30.3020 16.6236
" />
<path d="M30.3020 16.6236
L30.3625 16.5631
" />
<path d="M30.3625 16.5631
L30.4834 16.5026
" />
<path d="M30.4834 16.5026
L30.7858 16.5026
" />
<path d="M30.7858 16.5026
L30.9068 16.5631
" />
<path d="M30.9068 16.5631
L30.9673 16.6236
" />
<path d="M30.9673 16.6236
L31.0277 16.7445
" />
<path d="M31.0277 16.7445
L31.0277 17.1074
" />
<path d="M31.0277 17.1074
L30.9673 17.2283
" />
<path d="M30.9673 17.2283
L30.9068 17.2888
" />
</g></g>
<g style="fill:#000000; fill-opacity:0.0; 
stroke:#000000; stroke-width:0.1588; stroke-opacity:1; 
stroke-linecap:round; stroke-linejoin:round;">
<text x="31.4452" y="2.2606"
textLength="2.2786" font-size="1.6933" lengthAdjust="spacingAndGlyphs"
text-anchor="middle" opacity="0">J?</text>
<g class="stroked-text"><desc>J?</desc>
<path d="M31.0823 0.9348
L31.0823 1.8420
" />
<path d="M31.0823 1.8420
L31.0218 2.0234
" />
<path d="M31.0218 2.0234
L30.9009 2.1444
" />
<path d="M30.9009 2.1444
L30.7194 2.2048
" />
<path d="M30.7194 2.2048
L30.5985 2.2048
" />
<path d="M31.8685 2.0839
L31.9289 2.1444
" />
<path d="M31.9289 2.1444
L31.8685 2.2048
" />
<path d="M31.8685 2.2048
L31.8080 2.1444
" />
<path d="M31.8080 2.1444
L31.8685 2.0839
" />
<path d="M31.8685 2.0839
L31.8685 2.2048
" />
<path d="M31.6266 0.9953
L31.7475 0.9348
" />
<path d="M31.7475 0.9348
L32.0499 0.9348
" />
<path d="M32.0499 0.9348
L32.1708 0.9953
" />
<path d="M32.1708 0.9953
L32.2313 1.1163
" />
<path d="M32.2313 1.1163
L32.2313 1.2372
" />
<path d="M32.2313 1.2372
L32.1708 1.3582
" />
<path d="M32.1708 1.3582
L32.1104 1.4186
" />
<path d="M32.1104 1.4186
L31.9894 1.4791
" />
<path d="M31.9894 1.4791
L31.9289 1.5396
" />
<path d="M31.9289 1.5396
L31.8685 1.6605
" />
<path d="M31.8685 1.6605
L31.8685 1.7210
" />
</g><text x="31.4452" y="4.8006"
textLength="10.6243" font-size="1.6933" lengthAdjust="spacingAndGlyphs"
text-anchor="middle" opacity="0">NC3MBV-1</text>
<g class="stroked-text"><desc>NC3MBV-1</desc>
<path d="M26.5466 4.7448
L26.5466 3.4748
" />
<path d="M26.5466 3.4748
L27.2723 4.7448
" />
<path d="M27.2723 4.7448
L27.2723 3.4748
" />
<path d="M28.6028 4.6239
L28.5424 4.6844
" />
<path d="M28.5424 4.6844
L28.3609 4.7448
" />
<path d="M28.3609 4.7448
L28.2400 4.7448
" />
<path d="M28.2400 4.7448
L28.0586 4.6844
" />
<path d="M28.0586 4.6844
L27.9376 4.5634
" />
<path d="M27.9376 4.5634
L27.8771 4.4424
" />
<path d="M27.8771 4.4424
L27.8167 4.2005
" />
<path d="M27.8167 4.2005
L27.8167 4.0191
" />
<path d="M27.8167 4.0191
L27.8771 3.7772
" />
<path d="M27.8771 3.7772
L27.9376 3.6563
" />
<path d="M27.9376 3.6563
L28.0586 3.5353
" />
<path d="M28.0586 3.5353
L28.2400 3.4748
" />
<path d="M28.2400 3.4748
L28.3609 3.4748
" />
<path d="M28.3609 3.4748
L28.5424 3.5353
" />
<path d="M28.5424 3.5353
L28.6028 3.5958
" />
<path d="M29.0262 3.4748
L29.8124 3.4748
" />
<path d="M29.8124 3.4748
L29.3890 3.9586
" />
<path d="M29.3890 3.9586
L29.5705 3.9586
" />
<path d="M29.5705 3.9586
L29.6914 4.0191
" />
<path d="M29.6914 4.0191
L29.7519 4.0796
" />
<path d="M29.7519 4.0796
L29.8124 4.2005
" />
<path d="M29.8124 4.2005
L29.8124 4.5029
" />
<path d="M29.8124 4.5029
L29.7519 4.6239
" />
<path d="M29.7519 4.6239
L29.6914 4.6844
" />
<path d="M29.6914 4.6844
L29.5705 4.7448
" />
<path d="M29.5705 4.7448
L29.2076 4.7448
" />
<path d="M29.2076 4.7448
L29.0867 4.6844
" />
<path d="M29.0867 4.6844
L29.0262 4.6239
" />
<path d="M30.3566 4.7448
L30.3566 3.4748
" />
<path d="M30.3566 3.4748
L30.7800 4.3820
" />
<path d="M30.7800 4.3820
L31.2033 3.4748
" />
<path d="M31.2033 3.4748
L31.2033 4.7448
" />
<path d="M32.2314 4.0796
L32.4128 4.1401
" />
<path d="M32.4128 4.1401
L32.4733 4.2005
" />
<path d="M32.4733 4.2005
L32.5337 4.3215
" />
<path d="M32.5337 4.3215
L32.5337 4.5029
" />
<path d="M32.5337 4.5029
L32.4733 4.6239
" />
<path d="M32.4733 4.6239
L32.4128 4.6844
" />
<path d="M32.4128 4.6844
L32.2918 4.7448
" />
<path d="M32.2918 4.7448
L31.8080 4.7448
" />
<path d="M31.8080 4.7448
L31.8080 3.4748
" />
<path d="M31.8080 3.4748
L32.2314 3.4748
" />
<path d="M32.2314 3.4748
L32.3523 3.5353
" />
<path d="M32.3523 3.5353
L32.4128 3.5958
" />
<path d="M32.4128 3.5958
L32.4733 3.7167
" />
<path d="M32.4733 3.7167
L32.4733 3.8377
" />
<path d="M32.4733 3.8377
L32.4128 3.9586
" />
<path d="M32.4128 3.9586
L32.3523 4.0191
" />
<path d="M32.3523 4.0191
L32.2314 4.0796
" />
<path d="M32.2314 4.0796
L31.8080 4.0796
" />
<path d="M32.8966 3.4748
L33.3199 4.7448
" />
<path d="M33.3199 4.7448
L33.7433 3.4748
" />
<path d="M34.1666 4.2610
L35.1343 4.2610
" />
<path d="M36.4043 4.7448
L35.6786 4.7448
" />
<path d="M36.0414 4.7448
L36.0414 3.4748
" />
<path d="M36.0414 3.4748
L35.9205 3.6563
" />
<path d="M35.9205 3.6563
L35.7995 3.7772
" />
<path d="M35.7995 3.7772
L35.6786 3.8377
" />
</g></g> 
</svg>
