<?xml version="1.0" standalone="no"?>
 <!DOCTYPE svg PUBLIC "-//W3C//DTD SVG 1.1//EN" 
 "http://www.w3.org/Graphics/SVG/1.1/DTD/svg11.dtd"> 
<svg
  xmlns:svg="http://www.w3.org/2000/svg"
  xmlns="http://www.w3.org/2000/svg"
  xmlns:xlink="http://www.w3.org/1999/xlink"
  version="1.1"
  width="37.7952mm" height="16.6116mm" viewBox="0.0000 0.0000 37.7952 16.6116">
<title>SVG Image created as xlr3_audiojack2_combo_ground_2.svg date 2024/01/16 15:18:19 </title>
  <desc>Image generated by Eeschema-SVG </desc>
<g style="fill:#000000; fill-opacity:1.0000;stroke:#000000; stroke-opacity:1.0000;
stroke-linecap:round; stroke-linejoin:round;"
 transform="translate(0 0) scale(1 1)">
</g>
<g style="fill:#000000; fill-opacity:0.0; 
stroke:#000000; stroke-width:0.0000; stroke-opacity:1; 
stroke-linecap:round; stroke-linejoin:round;">
</g>
<g style="fill:#000000; fill-opacity:1.0000; 
stroke:#000000; stroke-width:0.2540; stroke-opacity:1; 
stroke-linecap:round; stroke-linejoin:round;">
<rect x="15.087600" y="8.305800" width="1.270000" height="2.540000" rx="0.000000" />
</g>
<g style="fill:#000000; fill-opacity:0.0; 
stroke:#000000; stroke-width:0.2540; stroke-opacity:1; 
stroke-linecap:round; stroke-linejoin:round;">
<path style="fill:#000000; fill-opacity:0.0; 
stroke:#000000; stroke-width:0.2540; stroke-opacity:1; 
stroke-linecap:round; stroke-linejoin:round;fill:none"
d="M 18.8976,8.3058
19.5326,8.9408
20.1676,8.3058
21.4376,8.3058
" /> 
<path style="fill:#000000; fill-opacity:0.0; 
stroke:#000000; stroke-width:0.2540; stroke-opacity:1; 
stroke-linecap:round; stroke-linejoin:round;fill:none"
d="M 21.4376,5.7658
18.2626,5.7658
18.2626,8.3058
17.6276,8.9408
16.9926,8.3058
" /> 
<rect x="16.357600" y="4.495800" width="5.080000" height="6.350000" rx="0.000000" />
</g>
<g style="fill:#000000; fill-opacity:0.0; 
stroke:#000000; stroke-width:0.1524; stroke-opacity:1; 
stroke-linecap:round; stroke-linejoin:round;">
<path d="M21.4376 5.7658
L23.9776 5.7658
" />
<text x="22.7076" y="5.5118"
textLength="1.4127" font-size="1.6933" lengthAdjust="spacingAndGlyphs"
text-anchor="middle" opacity="0">S</text>
<g class="stroked-text"><desc>S</desc>
<path d="M22.3448 5.2879
L22.5262 5.3483
" />
<path d="M22.5262 5.3483
L22.8286 5.3483
" />
<path d="M22.8286 5.3483
L22.9495 5.2879
" />
<path d="M22.9495 5.2879
L23.0100 5.2274
" />
<path d="M23.0100 5.2274
L23.0705 5.1064
" />
<path d="M23.0705 5.1064
L23.0705 4.9855
" />
<path d="M23.0705 4.9855
L23.0100 4.8645
" />
<path d="M23.0100 4.8645
L22.9495 4.8040
" />
<path d="M22.9495 4.8040
L22.8286 4.7436
" />
<path d="M22.8286 4.7436
L22.5867 4.6831
" />
<path d="M22.5867 4.6831
L22.4657 4.6226
" />
<path d="M22.4657 4.6226
L22.4052 4.5621
" />
<path d="M22.4052 4.5621
L22.3448 4.4412
" />
<path d="M22.3448 4.4412
L22.3448 4.3202
" />
<path d="M22.3448 4.3202
L22.4052 4.1993
" />
<path d="M22.4052 4.1993
L22.4657 4.1388
" />
<path d="M22.4657 4.1388
L22.5867 4.0783
" />
<path d="M22.5867 4.0783
L22.8890 4.0783
" />
<path d="M22.8890 4.0783
L23.0705 4.1388
" />
</g><path d="M21.4376 8.3058
L23.9776 8.3058
" />
<text x="22.7076" y="8.0518"
textLength="1.1708" font-size="1.6933" lengthAdjust="spacingAndGlyphs"
text-anchor="middle" opacity="0">T</text>
<g class="stroked-text"><desc>T</desc>
<path d="M22.3447 6.6183
L23.0704 6.6183
" />
<path d="M22.7076 7.8883
L22.7076 6.6183
" />
</g></g>
<g style="fill:#000000; fill-opacity:0.0; 
stroke:#000000; stroke-width:0.1588; stroke-opacity:1; 
stroke-linecap:round; stroke-linejoin:round;">
<text x="18.8976" y="-1.2192"
textLength="3.5486" font-size="1.6933" lengthAdjust="spacingAndGlyphs"
text-anchor="middle" opacity="0">J?B</text>
<g class="stroked-text"><desc>J?B</desc>
<path d="M17.8997 -2.5449
L17.8997 -1.6377
" />
<path d="M17.8997 -1.6377
L17.8392 -1.4563
" />
<path d="M17.8392 -1.4563
L17.7183 -1.3354
" />
<path d="M17.7183 -1.3354
L17.5368 -1.2749
" />
<path d="M17.5368 -1.2749
L17.4159 -1.2749
" />
<path d="M18.6859 -1.3958
L18.7463 -1.3354
" />
<path d="M18.7463 -1.3354
L18.6859 -1.2749
" />
<path d="M18.6859 -1.2749
L18.6254 -1.3354
" />
<path d="M18.6254 -1.3354
L18.6859 -1.3958
" />
<path d="M18.6859 -1.3958
L18.6859 -1.2749
" />
<path d="M18.4440 -2.4844
L18.5649 -2.5449
" />
<path d="M18.5649 -2.5449
L18.8673 -2.5449
" />
<path d="M18.8673 -2.5449
L18.9882 -2.4844
" />
<path d="M18.9882 -2.4844
L19.0487 -2.3634
" />
<path d="M19.0487 -2.3634
L19.0487 -2.2425
" />
<path d="M19.0487 -2.2425
L18.9882 -2.1215
" />
<path d="M18.9882 -2.1215
L18.9278 -2.0611
" />
<path d="M18.9278 -2.0611
L18.8068 -2.0006
" />
<path d="M18.8068 -2.0006
L18.7463 -1.9401
" />
<path d="M18.7463 -1.9401
L18.6859 -1.8192
" />
<path d="M18.6859 -1.8192
L18.6859 -1.7587
" />
<path d="M20.0164 -1.9401
L20.1978 -1.8796
" />
<path d="M20.1978 -1.8796
L20.2583 -1.8192
" />
<path d="M20.2583 -1.8192
L20.3187 -1.6982
" />
<path d="M20.3187 -1.6982
L20.3187 -1.5168
" />
<path d="M20.3187 -1.5168
L20.2583 -1.3958
" />
<path d="M20.2583 -1.3958
L20.1978 -1.3354
" />
<path d="M20.1978 -1.3354
L20.0768 -1.2749
" />
<path d="M20.0768 -1.2749
L19.5930 -1.2749
" />
<path d="M19.5930 -1.2749
L19.5930 -2.5449
" />
<path d="M19.5930 -2.5449
L20.0164 -2.5449
" />
<path d="M20.0164 -2.5449
L20.1373 -2.4844
" />
<path d="M20.1373 -2.4844
L20.1978 -2.4239
" />
<path d="M20.1978 -2.4239
L20.2583 -2.3030
" />
<path d="M20.2583 -2.3030
L20.2583 -2.1820
" />
<path d="M20.2583 -2.1820
L20.1978 -2.0611
" />
<path d="M20.1978 -2.0611
L20.1373 -2.0006
" />
<path d="M20.1373 -2.0006
L20.0164 -1.9401
" />
<path d="M20.0164 -1.9401
L19.5930 -1.9401
" />
</g><text x="18.8976" y="1.3208"
textLength="31.4880" font-size="1.6933" lengthAdjust="spacingAndGlyphs"
text-anchor="middle" opacity="0">XLR3_AudioJack2_Combo_Ground</text>
<g class="stroked-text"><desc>XLR3_AudioJack2_Combo_Ground</desc>
<path d="M3.4462 -0.0049
L4.2928 1.2650
" />
<path d="M4.2928 -0.0049
L3.4462 1.2650
" />
<path d="M5.3814 1.2650
L4.7766 1.2650
" />
<path d="M4.7766 1.2650
L4.7766 -0.0049
" />
<path d="M6.5304 1.2650
L6.1071 0.6603
" />
<path d="M5.8047 1.2650
L5.8047 -0.0049
" />
<path d="M5.8047 -0.0049
L6.2885 -0.0049
" />
<path d="M6.2885 -0.0049
L6.4095 0.0555
" />
<path d="M6.4095 0.0555
L6.4700 0.1160
" />
<path d="M6.4700 0.1160
L6.5304 0.2369
" />
<path d="M6.5304 0.2369
L6.5304 0.4184
" />
<path d="M6.5304 0.4184
L6.4700 0.5393
" />
<path d="M6.4700 0.5393
L6.4095 0.5998
" />
<path d="M6.4095 0.5998
L6.2885 0.6603
" />
<path d="M6.2885 0.6603
L5.8047 0.6603
" />
<path d="M6.9538 -0.0049
L7.7400 -0.0049
" />
<path d="M7.7400 -0.0049
L7.3166 0.4788
" />
<path d="M7.3166 0.4788
L7.4981 0.4788
" />
<path d="M7.4981 0.4788
L7.6190 0.5393
" />
<path d="M7.6190 0.5393
L7.6795 0.5998
" />
<path d="M7.6795 0.5998
L7.7400 0.7207
" />
<path d="M7.7400 0.7207
L7.7400 1.0231
" />
<path d="M7.7400 1.0231
L7.6795 1.1441
" />
<path d="M7.6795 1.1441
L7.6190 1.2046
" />
<path d="M7.6190 1.2046
L7.4981 1.2650
" />
<path d="M7.4981 1.2650
L7.1352 1.2650
" />
<path d="M7.1352 1.2650
L7.0143 1.2046
" />
<path d="M7.0143 1.2046
L6.9538 1.1441
" />
<path d="M7.9819 1.3860
L8.9495 1.3860
" />
<path d="M9.1914 0.9022
L9.7961 0.9022
" />
<path d="M9.0704 1.2650
L9.4937 -0.0049
" />
<path d="M9.4937 -0.0049
L9.9171 1.2650
" />
<path d="M10.8847 0.4184
L10.8847 1.2650
" />
<path d="M10.3404 0.4184
L10.3404 1.0836
" />
<path d="M10.3404 1.0836
L10.4009 1.2046
" />
<path d="M10.4009 1.2046
L10.5219 1.2650
" />
<path d="M10.5219 1.2650
L10.7033 1.2650
" />
<path d="M10.7033 1.2650
L10.8242 1.2046
" />
<path d="M10.8242 1.2046
L10.8847 1.1441
" />
<path d="M12.0337 1.2650
L12.0337 -0.0049
" />
<path d="M12.0337 1.2046
L11.9128 1.2650
" />
<path d="M11.9128 1.2650
L11.6709 1.2650
" />
<path d="M11.6709 1.2650
L11.5499 1.2046
" />
<path d="M11.5499 1.2046
L11.4894 1.1441
" />
<path d="M11.4894 1.1441
L11.4290 1.0231
" />
<path d="M11.4290 1.0231
L11.4290 0.6603
" />
<path d="M11.4290 0.6603
L11.4894 0.5393
" />
<path d="M11.4894 0.5393
L11.5499 0.4788
" />
<path d="M11.5499 0.4788
L11.6709 0.4184
" />
<path d="M11.6709 0.4184
L11.9128 0.4184
" />
<path d="M11.9128 0.4184
L12.0337 0.4788
" />
<path d="M12.6384 1.2650
L12.6384 0.4184
" />
<path d="M12.6384 -0.0049
L12.5780 0.0555
" />
<path d="M12.5780 0.0555
L12.6384 0.1160
" />
<path d="M12.6384 0.1160
L12.6989 0.0555
" />
<path d="M12.6989 0.0555
L12.6384 -0.0049
" />
<path d="M12.6384 -0.0049
L12.6384 0.1160
" />
<path d="M13.4247 1.2650
L13.3037 1.2046
" />
<path d="M13.3037 1.2046
L13.2432 1.1441
" />
<path d="M13.2432 1.1441
L13.1828 1.0231
" />
<path d="M13.1828 1.0231
L13.1828 0.6603
" />
<path d="M13.1828 0.6603
L13.2432 0.5393
" />
<path d="M13.2432 0.5393
L13.3037 0.4788
" />
<path d="M13.3037 0.4788
L13.4247 0.4184
" />
<path d="M13.4247 0.4184
L13.6061 0.4184
" />
<path d="M13.6061 0.4184
L13.7270 0.4788
" />
<path d="M13.7270 0.4788
L13.7875 0.5393
" />
<path d="M13.7875 0.5393
L13.8480 0.6603
" />
<path d="M13.8480 0.6603
L13.8480 1.0231
" />
<path d="M13.8480 1.0231
L13.7875 1.1441
" />
<path d="M13.7875 1.1441
L13.7270 1.2046
" />
<path d="M13.7270 1.2046
L13.6061 1.2650
" />
<path d="M13.6061 1.2650
L13.4247 1.2650
" />
<path d="M14.7551 -0.0049
L14.7551 0.9022
" />
<path d="M14.7551 0.9022
L14.6946 1.0836
" />
<path d="M14.6946 1.0836
L14.5737 1.2046
" />
<path d="M14.5737 1.2046
L14.3922 1.2650
" />
<path d="M14.3922 1.2650
L14.2713 1.2650
" />
<path d="M15.9041 1.2650
L15.9041 0.5998
" />
<path d="M15.9041 0.5998
L15.8436 0.4788
" />
<path d="M15.8436 0.4788
L15.7227 0.4184
" />
<path d="M15.7227 0.4184
L15.4808 0.4184
" />
<path d="M15.4808 0.4184
L15.3598 0.4788
" />
<path d="M15.9041 1.2046
L15.7832 1.2650
" />
<path d="M15.7832 1.2650
L15.4808 1.2650
" />
<path d="M15.4808 1.2650
L15.3598 1.2046
" />
<path d="M15.3598 1.2046
L15.2994 1.0836
" />
<path d="M15.2994 1.0836
L15.2994 0.9626
" />
<path d="M15.2994 0.9626
L15.3598 0.8417
" />
<path d="M15.3598 0.8417
L15.4808 0.7812
" />
<path d="M15.4808 0.7812
L15.7832 0.7812
" />
<path d="M15.7832 0.7812
L15.9041 0.7207
" />
<path d="M17.0531 1.2046
L16.9322 1.2650
" />
<path d="M16.9322 1.2650
L16.6903 1.2650
" />
<path d="M16.6903 1.2650
L16.5693 1.2046
" />
<path d="M16.5693 1.2046
L16.5088 1.1441
" />
<path d="M16.5088 1.1441
L16.4484 1.0231
" />
<path d="M16.4484 1.0231
L16.4484 0.6603
" />
<path d="M16.4484 0.6603
L16.5088 0.5393
" />
<path d="M16.5088 0.5393
L16.5693 0.4788
" />
<path d="M16.5693 0.4788
L16.6903 0.4184
" />
<path d="M16.6903 0.4184
L16.9322 0.4184
" />
<path d="M16.9322 0.4184
L17.0531 0.4788
" />
<path d="M17.5974 1.2650
L17.5974 -0.0049
" />
<path d="M17.7184 0.7812
L18.0812 1.2650
" />
<path d="M18.0812 0.4184
L17.5974 0.9022
" />
<path d="M18.5651 0.1160
L18.6255 0.0555
" />
<path d="M18.6255 0.0555
L18.7465 -0.0049
" />
<path d="M18.7465 -0.0049
L19.0489 -0.0049
" />
<path d="M19.0489 -0.0049
L19.1698 0.0555
" />
<path d="M19.1698 0.0555
L19.2303 0.1160
" />
<path d="M19.2303 0.1160
L19.2908 0.2369
" />
<path d="M19.2908 0.2369
L19.2908 0.3579
" />
<path d="M19.2908 0.3579
L19.2303 0.5393
" />
<path d="M19.2303 0.5393
L18.5046 1.2650
" />
<path d="M18.5046 1.2650
L19.2908 1.2650
" />
<path d="M19.5327 1.3860
L20.5003 1.3860
" />
<path d="M21.5283 1.1441
L21.4679 1.2046
" />
<path d="M21.4679 1.2046
L21.2864 1.2650
" />
<path d="M21.2864 1.2650
L21.1655 1.2650
" />
<path d="M21.1655 1.2650
L20.9841 1.2046
" />
<path d="M20.9841 1.2046
L20.8631 1.0836
" />
<path d="M20.8631 1.0836
L20.8026 0.9626
" />
<path d="M20.8026 0.9626
L20.7422 0.7207
" />
<path d="M20.7422 0.7207
L20.7422 0.5393
" />
<path d="M20.7422 0.5393
L20.8026 0.2974
" />
<path d="M20.8026 0.2974
L20.8631 0.1765
" />
<path d="M20.8631 0.1765
L20.9841 0.0555
" />
<path d="M20.9841 0.0555
L21.1655 -0.0049
" />
<path d="M21.1655 -0.0049
L21.2864 -0.0049
" />
<path d="M21.2864 -0.0049
L21.4679 0.0555
" />
<path d="M21.4679 0.0555
L21.5283 0.1160
" />
<path d="M22.2541 1.2650
L22.1331 1.2046
" />
<path d="M22.1331 1.2046
L22.0726 1.1441
" />
<path d="M22.0726 1.1441
L22.0122 1.0231
" />
<path d="M22.0122 1.0231
L22.0122 0.6603
" />
<path d="M22.0122 0.6603
L22.0726 0.5393
" />
<path d="M22.0726 0.5393
L22.1331 0.4788
" />
<path d="M22.1331 0.4788
L22.2541 0.4184
" />
<path d="M22.2541 0.4184
L22.4355 0.4184
" />
<path d="M22.4355 0.4184
L22.5564 0.4788
" />
<path d="M22.5564 0.4788
L22.6169 0.5393
" />
<path d="M22.6169 0.5393
L22.6774 0.6603
" />
<path d="M22.6774 0.6603
L22.6774 1.0231
" />
<path d="M22.6774 1.0231
L22.6169 1.1441
" />
<path d="M22.6169 1.1441
L22.5564 1.2046
" />
<path d="M22.5564 1.2046
L22.4355 1.2650
" />
<path d="M22.4355 1.2650
L22.2541 1.2650
" />
<path d="M23.2216 1.2650
L23.2216 0.4184
" />
<path d="M23.2216 0.5393
L23.2821 0.4788
" />
<path d="M23.2821 0.4788
L23.4031 0.4184
" />
<path d="M23.4031 0.4184
L23.5845 0.4184
" />
<path d="M23.5845 0.4184
L23.7054 0.4788
" />
<path d="M23.7054 0.4788
L23.7659 0.5998
" />
<path d="M23.7659 0.5998
L23.7659 1.2650
" />
<path d="M23.7659 0.5998
L23.8264 0.4788
" />
<path d="M23.8264 0.4788
L23.9473 0.4184
" />
<path d="M23.9473 0.4184
L24.1288 0.4184
" />
<path d="M24.1288 0.4184
L24.2497 0.4788
" />
<path d="M24.2497 0.4788
L24.3102 0.5998
" />
<path d="M24.3102 0.5998
L24.3102 1.2650
" />
<path d="M24.9149 1.2650
L24.9149 -0.0049
" />
<path d="M24.9149 0.4788
L25.0359 0.4184
" />
<path d="M25.0359 0.4184
L25.2778 0.4184
" />
<path d="M25.2778 0.4184
L25.3987 0.4788
" />
<path d="M25.3987 0.4788
L25.4592 0.5393
" />
<path d="M25.4592 0.5393
L25.5197 0.6603
" />
<path d="M25.5197 0.6603
L25.5197 1.0231
" />
<path d="M25.5197 1.0231
L25.4592 1.1441
" />
<path d="M25.4592 1.1441
L25.3987 1.2046
" />
<path d="M25.3987 1.2046
L25.2778 1.2650
" />
<path d="M25.2778 1.2650
L25.0359 1.2650
" />
<path d="M25.0359 1.2650
L24.9149 1.2046
" />
<path d="M26.2454 1.2650
L26.1244 1.2046
" />
<path d="M26.1244 1.2046
L26.0639 1.1441
" />
<path d="M26.0639 1.1441
L26.0035 1.0231
" />
<path d="M26.0035 1.0231
L26.0035 0.6603
" />
<path d="M26.0035 0.6603
L26.0639 0.5393
" />
<path d="M26.0639 0.5393
L26.1244 0.4788
" />
<path d="M26.1244 0.4788
L26.2454 0.4184
" />
<path d="M26.2454 0.4184
L26.4268 0.4184
" />
<path d="M26.4268 0.4184
L26.5477 0.4788
" />
<path d="M26.5477 0.4788
L26.6082 0.5393
" />
<path d="M26.6082 0.5393
L26.6687 0.6603
" />
<path d="M26.6687 0.6603
L26.6687 1.0231
" />
<path d="M26.6687 1.0231
L26.6082 1.1441
" />
<path d="M26.6082 1.1441
L26.5477 1.2046
" />
<path d="M26.5477 1.2046
L26.4268 1.2650
" />
<path d="M26.4268 1.2650
L26.2454 1.2650
" />
<path d="M26.9106 1.3860
L27.8782 1.3860
" />
<path d="M28.8458 0.0555
L28.7248 -0.0049
" />
<path d="M28.7248 -0.0049
L28.5434 -0.0049
" />
<path d="M28.5434 -0.0049
L28.3620 0.0555
" />
<path d="M28.3620 0.0555
L28.2410 0.1765
" />
<path d="M28.2410 0.1765
L28.1805 0.2974
" />
<path d="M28.1805 0.2974
L28.1201 0.5393
" />
<path d="M28.1201 0.5393
L28.1201 0.7207
" />
<path d="M28.1201 0.7207
L28.1805 0.9626
" />
<path d="M28.1805 0.9626
L28.2410 1.0836
" />
<path d="M28.2410 1.0836
L28.3620 1.2046
" />
<path d="M28.3620 1.2046
L28.5434 1.2650
" />
<path d="M28.5434 1.2650
L28.6643 1.2650
" />
<path d="M28.6643 1.2650
L28.8458 1.2046
" />
<path d="M28.8458 1.2046
L28.9062 1.1441
" />
<path d="M28.9062 1.1441
L28.9062 0.7207
" />
<path d="M28.9062 0.7207
L28.6643 0.7207
" />
<path d="M29.4505 1.2650
L29.4505 0.4184
" />
<path d="M29.4505 0.6603
L29.5110 0.5393
" />
<path d="M29.5110 0.5393
L29.5715 0.4788
" />
<path d="M29.5715 0.4788
L29.6924 0.4184
" />
<path d="M29.6924 0.4184
L29.8134 0.4184
" />
<path d="M30.4182 1.2650
L30.2972 1.2046
" />
<path d="M30.2972 1.2046
L30.2367 1.1441
" />
<path d="M30.2367 1.1441
L30.1763 1.0231
" />
<path d="M30.1763 1.0231
L30.1763 0.6603
" />
<path d="M30.1763 0.6603
L30.2367 0.5393
" />
<path d="M30.2367 0.5393
L30.2972 0.4788
" />
<path d="M30.2972 0.4788
L30.4182 0.4184
" />
<path d="M30.4182 0.4184
L30.5996 0.4184
" />
<path d="M30.5996 0.4184
L30.7205 0.4788
" />
<path d="M30.7205 0.4788
L30.7810 0.5393
" />
<path d="M30.7810 0.5393
L30.8415 0.6603
" />
<path d="M30.8415 0.6603
L30.8415 1.0231
" />
<path d="M30.8415 1.0231
L30.7810 1.1441
" />
<path d="M30.7810 1.1441
L30.7205 1.2046
" />
<path d="M30.7205 1.2046
L30.5996 1.2650
" />
<path d="M30.5996 1.2650
L30.4182 1.2650
" />
<path d="M31.9300 0.4184
L31.9300 1.2650
" />
<path d="M31.3857 0.4184
L31.3857 1.0836
" />
<path d="M31.3857 1.0836
L31.4462 1.2046
" />
<path d="M31.4462 1.2046
L31.5672 1.2650
" />
<path d="M31.5672 1.2650
L31.7486 1.2650
" />
<path d="M31.7486 1.2650
L31.8695 1.2046
" />
<path d="M31.8695 1.2046
L31.9300 1.1441
" />
<path d="M32.5347 0.4184
L32.5347 1.2650
" />
<path d="M32.5347 0.5393
L32.5952 0.4788
" />
<path d="M32.5952 0.4788
L32.7162 0.4184
" />
<path d="M32.7162 0.4184
L32.8976 0.4184
" />
<path d="M32.8976 0.4184
L33.0185 0.4788
" />
<path d="M33.0185 0.4788
L33.0790 0.5998
" />
<path d="M33.0790 0.5998
L33.0790 1.2650
" />
<path d="M34.2280 1.2650
L34.2280 -0.0049
" />
<path d="M34.2280 1.2046
L34.1071 1.2650
" />
<path d="M34.1071 1.2650
L33.8652 1.2650
" />
<path d="M33.8652 1.2650
L33.7442 1.2046
" />
<path d="M33.7442 1.2046
L33.6837 1.1441
" />
<path d="M33.6837 1.1441
L33.6233 1.0231
" />
<path d="M33.6233 1.0231
L33.6233 0.6603
" />
<path d="M33.6233 0.6603
L33.6837 0.5393
" />
<path d="M33.6837 0.5393
L33.7442 0.4788
" />
<path d="M33.7442 0.4788
L33.8652 0.4184
" />
<path d="M33.8652 0.4184
L34.1071 0.4184
" />
<path d="M34.1071 0.4184
L34.2280 0.4788
" />
</g></g> 
</svg>
