<?xml version="1.0" standalone="no"?>
 <!DOCTYPE svg PUBLIC "-//W3C//DTD SVG 1.1//EN" 
 "http://www.w3.org/Graphics/SVG/1.1/DTD/svg11.dtd"> 
<svg
  xmlns:svg="http://www.w3.org/2000/svg"
  xmlns="http://www.w3.org/2000/svg"
  xmlns:xlink="http://www.w3.org/1999/xlink"
  version="1.1"
  width="26.2382mm" height="18.1356mm" viewBox="0.0000 0.0000 26.2382 18.1356">
<title>SVG Image created as xlr5_ground_switched_2.svg date 2024/01/16 15:18:19 </title>
  <desc>Image generated by Eeschema-SVG </desc>
<g style="fill:#000000; fill-opacity:1.0000;stroke:#000000; stroke-opacity:1.0000;
stroke-linecap:round; stroke-linejoin:round;"
 transform="translate(0 0) scale(1 1)">
</g>
<g style="fill:#000000; fill-opacity:0.0; 
stroke:#000000; stroke-width:0.0000; stroke-opacity:1; 
stroke-linecap:round; stroke-linejoin:round;">
</g>
<g style="fill:#000000; fill-opacity:0.0; 
stroke:#000000; stroke-width:0.2540; stroke-opacity:1; 
stroke-linecap:round; stroke-linejoin:round;">
<rect x="9.309100" y="4.622800" width="7.620000" height="9.525000" rx="0.000000" />
<circle cx="10.9601" cy="9.0678" r="0.5080" /> 
</g>
<g style="fill:#000000; fill-opacity:0.0; 
stroke:#000000; stroke-width:0.1524; stroke-opacity:1; 
stroke-linecap:round; stroke-linejoin:round;">
<path style="fill:#000000; fill-opacity:0.0; 
stroke:#000000; stroke-width:0.1524; stroke-opacity:1; 
stroke-linecap:round; stroke-linejoin:round;fill:none"
d="M 8.0391,9.0678
10.3251,9.0678
" /> 
</g>
<g style="fill:#000000; fill-opacity:0.0; 
stroke:#000000; stroke-width:0.2540; stroke-opacity:1; 
stroke-linecap:round; stroke-linejoin:round;">
<path style="fill:#000000; fill-opacity:0.0; 
stroke:#000000; stroke-width:0.2540; stroke-opacity:1; 
stroke-linecap:round; stroke-linejoin:round;fill:none"
d="M 11.4681,8.9408
15.6591,7.1628
" /> 
</g>
<g style="fill:#000000; fill-opacity:0.0; 
stroke:#000000; stroke-width:0.1524; stroke-opacity:1; 
stroke-linecap:round; stroke-linejoin:round;">
<path style="fill:#000000; fill-opacity:0.0; 
stroke:#000000; stroke-width:0.1524; stroke-opacity:1; 
stroke-linecap:round; stroke-linejoin:round;fill:none"
d="M 18.1991,11.6078
15.9131,11.6078
" /> 
<path style="fill:#000000; fill-opacity:0.0; 
stroke:#000000; stroke-width:0.1524; stroke-opacity:1; 
stroke-linecap:round; stroke-linejoin:round;fill:none"
d="M 18.1991,6.5278
15.9131,6.5278
" /> 
</g>
<g style="fill:#000000; fill-opacity:0.0; 
stroke:#000000; stroke-width:0.2540; stroke-opacity:1; 
stroke-linecap:round; stroke-linejoin:round;">
<circle cx="15.2781" cy="11.6078" r="0.5080" /> 
<circle cx="15.2781" cy="6.5278" r="0.5080" /> 
</g>
<g style="fill:#000000; fill-opacity:0.0; 
stroke:#000000; stroke-width:0.1524; stroke-opacity:1; 
stroke-linecap:round; stroke-linejoin:round;">
<path d="M8.0391 9.0678
L5.4991 9.0678
" />
<text x="6.7691" y="8.8138"
textLength="1.5337" font-size="1.6933" lengthAdjust="spacingAndGlyphs"
text-anchor="middle" opacity="0">N</text>
<g class="stroked-text"><desc>N</desc>
<path d="M6.4062 8.6503
L6.4062 7.3803
" />
<path d="M6.4062 7.3803
L7.1319 8.6503
" />
<path d="M7.1319 8.6503
L7.1319 7.3803
" />
</g><path d="M18.1991 6.5278
L20.7391 6.5278
" />
<text x="19.4691" y="6.2738"
textLength="2.8037" font-size="1.6933" lengthAdjust="spacingAndGlyphs"
text-anchor="middle" opacity="0">NC</text>
<g class="stroked-text"><desc>NC</desc>
<path d="M18.4712 6.1103
L18.4712 4.8403
" />
<path d="M18.4712 4.8403
L19.1969 6.1103
" />
<path d="M19.1969 6.1103
L19.1969 4.8403
" />
<path d="M20.5274 5.9894
L20.4670 6.0499
" />
<path d="M20.4670 6.0499
L20.2855 6.1103
" />
<path d="M20.2855 6.1103
L20.1646 6.1103
" />
<path d="M20.1646 6.1103
L19.9832 6.0499
" />
<path d="M19.9832 6.0499
L19.8622 5.9289
" />
<path d="M19.8622 5.9289
L19.8017 5.8079
" />
<path d="M19.8017 5.8079
L19.7413 5.5660
" />
<path d="M19.7413 5.5660
L19.7413 5.3846
" />
<path d="M19.7413 5.3846
L19.8017 5.1427
" />
<path d="M19.8017 5.1427
L19.8622 5.0218
" />
<path d="M19.8622 5.0218
L19.9832 4.9008
" />
<path d="M19.9832 4.9008
L20.1646 4.8403
" />
<path d="M20.1646 4.8403
L20.2855 4.8403
" />
<path d="M20.2855 4.8403
L20.4670 4.9008
" />
<path d="M20.4670 4.9008
L20.5274 4.9613
" />
</g><path d="M18.1991 11.6078
L20.7391 11.6078
" />
<text x="19.4691" y="11.3538"
textLength="2.8642" font-size="1.6933" lengthAdjust="spacingAndGlyphs"
text-anchor="middle" opacity="0">NO</text>
<g class="stroked-text"><desc>NO</desc>
<path d="M18.4409 11.1903
L18.4409 9.9203
" />
<path d="M18.4409 9.9203
L19.1666 11.1903
" />
<path d="M19.1666 11.1903
L19.1666 9.9203
" />
<path d="M20.0133 9.9203
L20.2552 9.9203
" />
<path d="M20.2552 9.9203
L20.3762 9.9808
" />
<path d="M20.3762 9.9808
L20.4971 10.1018
" />
<path d="M20.4971 10.1018
L20.5576 10.3437
" />
<path d="M20.5576 10.3437
L20.5576 10.7670
" />
<path d="M20.5576 10.7670
L20.4971 11.0089
" />
<path d="M20.4971 11.0089
L20.3762 11.1299
" />
<path d="M20.3762 11.1299
L20.2552 11.1903
" />
<path d="M20.2552 11.1903
L20.0133 11.1903
" />
<path d="M20.0133 11.1903
L19.8924 11.1299
" />
<path d="M19.8924 11.1299
L19.7714 11.0089
" />
<path d="M19.7714 11.0089
L19.7110 10.7670
" />
<path d="M19.7110 10.7670
L19.7110 10.3437
" />
<path d="M19.7110 10.3437
L19.7714 10.1018
" />
<path d="M19.7714 10.1018
L19.8924 9.9808
" />
<path d="M19.8924 9.9808
L20.0133 9.9203
" />
</g></g>
<g style="fill:#000000; fill-opacity:0.0; 
stroke:#000000; stroke-width:0.1588; stroke-opacity:1; 
stroke-linecap:round; stroke-linejoin:round;">
<text x="13.1191" y="0.8128"
textLength="3.5486" font-size="1.6933" lengthAdjust="spacingAndGlyphs"
text-anchor="middle" opacity="0">J?B</text>
<g class="stroked-text"><desc>J?B</desc>
<path d="M12.1212 -0.5129
L12.1212 0.3942
" />
<path d="M12.1212 0.3942
L12.0607 0.5756
" />
<path d="M12.0607 0.5756
L11.9398 0.6966
" />
<path d="M11.9398 0.6966
L11.7583 0.7570
" />
<path d="M11.7583 0.7570
L11.6374 0.7570
" />
<path d="M12.9074 0.6361
L12.9678 0.6966
" />
<path d="M12.9678 0.6966
L12.9074 0.7570
" />
<path d="M12.9074 0.7570
L12.8469 0.6966
" />
<path d="M12.8469 0.6966
L12.9074 0.6361
" />
<path d="M12.9074 0.6361
L12.9074 0.7570
" />
<path d="M12.6655 -0.4524
L12.7864 -0.5129
" />
<path d="M12.7864 -0.5129
L13.0888 -0.5129
" />
<path d="M13.0888 -0.5129
L13.2097 -0.4524
" />
<path d="M13.2097 -0.4524
L13.2702 -0.3314
" />
<path d="M13.2702 -0.3314
L13.2702 -0.2105
" />
<path d="M13.2702 -0.2105
L13.2097 -0.0895
" />
<path d="M13.2097 -0.0895
L13.1493 -0.0291
" />
<path d="M13.1493 -0.0291
L13.0283 0.0313
" />
<path d="M13.0283 0.0313
L12.9678 0.0918
" />
<path d="M12.9678 0.0918
L12.9074 0.2127
" />
<path d="M12.9074 0.2127
L12.9074 0.2732
" />
<path d="M14.2379 0.0918
L14.4193 0.1523
" />
<path d="M14.4193 0.1523
L14.4798 0.2127
" />
<path d="M14.4798 0.2127
L14.5402 0.3337
" />
<path d="M14.5402 0.3337
L14.5402 0.5151
" />
<path d="M14.5402 0.5151
L14.4798 0.6361
" />
<path d="M14.4798 0.6361
L14.4193 0.6966
" />
<path d="M14.4193 0.6966
L14.2983 0.7570
" />
<path d="M14.2983 0.7570
L13.8145 0.7570
" />
<path d="M13.8145 0.7570
L13.8145 -0.5129
" />
<path d="M13.8145 -0.5129
L14.2379 -0.5129
" />
<path d="M14.2379 -0.5129
L14.3588 -0.4524
" />
<path d="M14.3588 -0.4524
L14.4193 -0.3919
" />
<path d="M14.4193 -0.3919
L14.4798 -0.2710
" />
<path d="M14.4798 -0.2710
L14.4798 -0.1500
" />
<path d="M14.4798 -0.1500
L14.4193 -0.0291
" />
<path d="M14.4193 -0.0291
L14.3588 0.0313
" />
<path d="M14.3588 0.0313
L14.2379 0.0918
" />
<path d="M14.2379 0.0918
L13.8145 0.0918
" />
</g><text x="13.1191" y="3.3528"
textLength="21.8726" font-size="1.6933" lengthAdjust="spacingAndGlyphs"
text-anchor="middle" opacity="0">XLR5_Ground_Switched</text>
<g class="stroked-text"><desc>XLR5_Ground_Switched</desc>
<path d="M2.4754 2.0270
L3.3220 3.2970
" />
<path d="M3.3220 2.0270
L2.4754 3.2970
" />
<path d="M4.4106 3.2970
L3.8058 3.2970
" />
<path d="M3.8058 3.2970
L3.8058 2.0270
" />
<path d="M5.5596 3.2970
L5.1363 2.6923
" />
<path d="M4.8339 3.2970
L4.8339 2.0270
" />
<path d="M4.8339 2.0270
L5.3177 2.0270
" />
<path d="M5.3177 2.0270
L5.4387 2.0875
" />
<path d="M5.4387 2.0875
L5.4992 2.1480
" />
<path d="M5.4992 2.1480
L5.5596 2.2689
" />
<path d="M5.5596 2.2689
L5.5596 2.4504
" />
<path d="M5.5596 2.4504
L5.4992 2.5713
" />
<path d="M5.4992 2.5713
L5.4387 2.6318
" />
<path d="M5.4387 2.6318
L5.3177 2.6923
" />
<path d="M5.3177 2.6923
L4.8339 2.6923
" />
<path d="M6.7087 2.0270
L6.1039 2.0270
" />
<path d="M6.1039 2.0270
L6.0435 2.6318
" />
<path d="M6.0435 2.6318
L6.1039 2.5713
" />
<path d="M6.1039 2.5713
L6.2249 2.5108
" />
<path d="M6.2249 2.5108
L6.5273 2.5108
" />
<path d="M6.5273 2.5108
L6.6482 2.5713
" />
<path d="M6.6482 2.5713
L6.7087 2.6318
" />
<path d="M6.7087 2.6318
L6.7692 2.7527
" />
<path d="M6.7692 2.7527
L6.7692 3.0551
" />
<path d="M6.7692 3.0551
L6.7087 3.1761
" />
<path d="M6.7087 3.1761
L6.6482 3.2366
" />
<path d="M6.6482 3.2366
L6.5273 3.2970
" />
<path d="M6.5273 3.2970
L6.2249 3.2970
" />
<path d="M6.2249 3.2970
L6.1039 3.2366
" />
<path d="M6.1039 3.2366
L6.0435 3.1761
" />
<path d="M7.0111 3.4180
L7.9787 3.4180
" />
<path d="M8.9463 2.0875
L8.8253 2.0270
" />
<path d="M8.8253 2.0270
L8.6439 2.0270
" />
<path d="M8.6439 2.0270
L8.4625 2.0875
" />
<path d="M8.4625 2.0875
L8.3415 2.2085
" />
<path d="M8.3415 2.2085
L8.2810 2.3294
" />
<path d="M8.2810 2.3294
L8.2206 2.5713
" />
<path d="M8.2206 2.5713
L8.2206 2.7527
" />
<path d="M8.2206 2.7527
L8.2810 2.9946
" />
<path d="M8.2810 2.9946
L8.3415 3.1156
" />
<path d="M8.3415 3.1156
L8.4625 3.2366
" />
<path d="M8.4625 3.2366
L8.6439 3.2970
" />
<path d="M8.6439 3.2970
L8.7648 3.2970
" />
<path d="M8.7648 3.2970
L8.9463 3.2366
" />
<path d="M8.9463 3.2366
L9.0067 3.1761
" />
<path d="M9.0067 3.1761
L9.0067 2.7527
" />
<path d="M9.0067 2.7527
L8.7648 2.7527
" />
<path d="M9.5510 3.2970
L9.5510 2.4504
" />
<path d="M9.5510 2.6923
L9.6115 2.5713
" />
<path d="M9.6115 2.5713
L9.6720 2.5108
" />
<path d="M9.6720 2.5108
L9.7929 2.4504
" />
<path d="M9.7929 2.4504
L9.9139 2.4504
" />
<path d="M10.5187 3.2970
L10.3977 3.2366
" />
<path d="M10.3977 3.2366
L10.3372 3.1761
" />
<path d="M10.3372 3.1761
L10.2768 3.0551
" />
<path d="M10.2768 3.0551
L10.2768 2.6923
" />
<path d="M10.2768 2.6923
L10.3372 2.5713
" />
<path d="M10.3372 2.5713
L10.3977 2.5108
" />
<path d="M10.3977 2.5108
L10.5187 2.4504
" />
<path d="M10.5187 2.4504
L10.7001 2.4504
" />
<path d="M10.7001 2.4504
L10.8210 2.5108
" />
<path d="M10.8210 2.5108
L10.8815 2.5713
" />
<path d="M10.8815 2.5713
L10.9420 2.6923
" />
<path d="M10.9420 2.6923
L10.9420 3.0551
" />
<path d="M10.9420 3.0551
L10.8815 3.1761
" />
<path d="M10.8815 3.1761
L10.8210 3.2366
" />
<path d="M10.8210 3.2366
L10.7001 3.2970
" />
<path d="M10.7001 3.2970
L10.5187 3.2970
" />
<path d="M12.0305 2.4504
L12.0305 3.2970
" />
<path d="M11.4862 2.4504
L11.4862 3.1156
" />
<path d="M11.4862 3.1156
L11.5467 3.2366
" />
<path d="M11.5467 3.2366
L11.6677 3.2970
" />
<path d="M11.6677 3.2970
L11.8491 3.2970
" />
<path d="M11.8491 3.2970
L11.9700 3.2366
" />
<path d="M11.9700 3.2366
L12.0305 3.1761
" />
<path d="M12.6352 2.4504
L12.6352 3.2970
" />
<path d="M12.6352 2.5713
L12.6957 2.5108
" />
<path d="M12.6957 2.5108
L12.8167 2.4504
" />
<path d="M12.8167 2.4504
L12.9981 2.4504
" />
<path d="M12.9981 2.4504
L13.1190 2.5108
" />
<path d="M13.1190 2.5108
L13.1795 2.6318
" />
<path d="M13.1795 2.6318
L13.1795 3.2970
" />
<path d="M14.3285 3.2970
L14.3285 2.0270
" />
<path d="M14.3285 3.2366
L14.2076 3.2970
" />
<path d="M14.2076 3.2970
L13.9657 3.2970
" />
<path d="M13.9657 3.2970
L13.8447 3.2366
" />
<path d="M13.8447 3.2366
L13.7842 3.1761
" />
<path d="M13.7842 3.1761
L13.7238 3.0551
" />
<path d="M13.7238 3.0551
L13.7238 2.6923
" />
<path d="M13.7238 2.6923
L13.7842 2.5713
" />
<path d="M13.7842 2.5713
L13.8447 2.5108
" />
<path d="M13.8447 2.5108
L13.9657 2.4504
" />
<path d="M13.9657 2.4504
L14.2076 2.4504
" />
<path d="M14.2076 2.4504
L14.3285 2.5108
" />
<path d="M14.6309 3.4180
L15.5985 3.4180
" />
<path d="M15.8404 3.2366
L16.0218 3.2970
" />
<path d="M16.0218 3.2970
L16.3242 3.2970
" />
<path d="M16.3242 3.2970
L16.4451 3.2366
" />
<path d="M16.4451 3.2366
L16.5056 3.1761
" />
<path d="M16.5056 3.1761
L16.5661 3.0551
" />
<path d="M16.5661 3.0551
L16.5661 2.9342
" />
<path d="M16.5661 2.9342
L16.5056 2.8132
" />
<path d="M16.5056 2.8132
L16.4451 2.7527
" />
<path d="M16.4451 2.7527
L16.3242 2.6923
" />
<path d="M16.3242 2.6923
L16.0823 2.6318
" />
<path d="M16.0823 2.6318
L15.9613 2.5713
" />
<path d="M15.9613 2.5713
L15.9008 2.5108
" />
<path d="M15.9008 2.5108
L15.8404 2.3899
" />
<path d="M15.8404 2.3899
L15.8404 2.2689
" />
<path d="M15.8404 2.2689
L15.9008 2.1480
" />
<path d="M15.9008 2.1480
L15.9613 2.0875
" />
<path d="M15.9613 2.0875
L16.0823 2.0270
" />
<path d="M16.0823 2.0270
L16.3846 2.0270
" />
<path d="M16.3846 2.0270
L16.5661 2.0875
" />
<path d="M16.9894 2.4504
L17.2313 3.2970
" />
<path d="M17.2313 3.2970
L17.4732 2.6923
" />
<path d="M17.4732 2.6923
L17.7151 3.2970
" />
<path d="M17.7151 3.2970
L17.9570 2.4504
" />
<path d="M18.4408 3.2970
L18.4408 2.4504
" />
<path d="M18.4408 2.0270
L18.3804 2.0875
" />
<path d="M18.3804 2.0875
L18.4408 2.1480
" />
<path d="M18.4408 2.1480
L18.5013 2.0875
" />
<path d="M18.5013 2.0875
L18.4408 2.0270
" />
<path d="M18.4408 2.0270
L18.4408 2.1480
" />
<path d="M18.8642 2.4504
L19.3480 2.4504
" />
<path d="M19.0456 2.0270
L19.0456 3.1156
" />
<path d="M19.0456 3.1156
L19.1061 3.2366
" />
<path d="M19.1061 3.2366
L19.2271 3.2970
" />
<path d="M19.2271 3.2970
L19.3480 3.2970
" />
<path d="M20.3156 3.2366
L20.1947 3.2970
" />
<path d="M20.1947 3.2970
L19.9528 3.2970
" />
<path d="M19.9528 3.2970
L19.8318 3.2366
" />
<path d="M19.8318 3.2366
L19.7713 3.1761
" />
<path d="M19.7713 3.1761
L19.7109 3.0551
" />
<path d="M19.7109 3.0551
L19.7109 2.6923
" />
<path d="M19.7109 2.6923
L19.7713 2.5713
" />
<path d="M19.7713 2.5713
L19.8318 2.5108
" />
<path d="M19.8318 2.5108
L19.9528 2.4504
" />
<path d="M19.9528 2.4504
L20.1947 2.4504
" />
<path d="M20.1947 2.4504
L20.3156 2.5108
" />
<path d="M20.8599 3.2970
L20.8599 2.0270
" />
<path d="M21.4042 3.2970
L21.4042 2.6318
" />
<path d="M21.4042 2.6318
L21.3437 2.5108
" />
<path d="M21.3437 2.5108
L21.2228 2.4504
" />
<path d="M21.2228 2.4504
L21.0414 2.4504
" />
<path d="M21.0414 2.4504
L20.9204 2.5108
" />
<path d="M20.9204 2.5108
L20.8599 2.5713
" />
<path d="M22.4927 3.2366
L22.3718 3.2970
" />
<path d="M22.3718 3.2970
L22.1299 3.2970
" />
<path d="M22.1299 3.2970
L22.0089 3.2366
" />
<path d="M22.0089 3.2366
L21.9485 3.1156
" />
<path d="M21.9485 3.1156
L21.9485 2.6318
" />
<path d="M21.9485 2.6318
L22.0089 2.5108
" />
<path d="M22.0089 2.5108
L22.1299 2.4504
" />
<path d="M22.1299 2.4504
L22.3718 2.4504
" />
<path d="M22.3718 2.4504
L22.4927 2.5108
" />
<path d="M22.4927 2.5108
L22.5532 2.6318
" />
<path d="M22.5532 2.6318
L22.5532 2.7527
" />
<path d="M22.5532 2.7527
L21.9485 2.8737
" />
<path d="M23.6418 3.2970
L23.6418 2.0270
" />
<path d="M23.6418 3.2366
L23.5209 3.2970
" />
<path d="M23.5209 3.2970
L23.2790 3.2970
" />
<path d="M23.2790 3.2970
L23.1580 3.2366
" />
<path d="M23.1580 3.2366
L23.0975 3.1761
" />
<path d="M23.0975 3.1761
L23.0371 3.0551
" />
<path d="M23.0371 3.0551
L23.0371 2.6923
" />
<path d="M23.0371 2.6923
L23.0975 2.5713
" />
<path d="M23.0975 2.5713
L23.1580 2.5108
" />
<path d="M23.1580 2.5108
L23.2790 2.4504
" />
<path d="M23.2790 2.4504
L23.5209 2.4504
" />
<path d="M23.5209 2.4504
L23.6418 2.5108
" />
</g></g> 
</svg>
