<?xml version="1.0" standalone="no"?>
 <!DOCTYPE svg PUBLIC "-//W3C//DTD SVG 1.1//EN" 
 "http://www.w3.org/Graphics/SVG/1.1/DTD/svg11.dtd"> 
<svg
  xmlns:svg="http://www.w3.org/2000/svg"
  xmlns="http://www.w3.org/2000/svg"
  xmlns:xlink="http://www.w3.org/1999/xlink"
  version="1.1"
  width="30.4800mm" height="24.3840mm" viewBox="0.0000 0.0000 30.4800 24.3840">
<title>SVG Image created as 7401_3.svg date 2024/01/16 15:08:50 </title>
  <desc>Image generated by Eeschema-SVG </desc>
<g style="fill:#000000; fill-opacity:1.0000;stroke:#000000; stroke-opacity:1.0000;
stroke-linecap:round; stroke-linejoin:round;"
 transform="translate(0 0) scale(1 1)">
</g>
<g style="fill:#840000; fill-opacity:0.0; 
stroke:#840000; stroke-width:0.0000; stroke-opacity:1; 
stroke-linecap:round; stroke-linejoin:round;">
</g>
<g style="fill:#FFFFC2; fill-opacity:0.0; 
stroke:#FFFFC2; stroke-width:0.0000; stroke-opacity:1; 
stroke-linecap:round; stroke-linejoin:round;">
</g>
<g style="fill:#FFFFC2; fill-opacity:1.0000; 
stroke:#FFFFC2; stroke-width:0.0000; stroke-opacity:1; 
stroke-linecap:round; stroke-linejoin:round;">
<path style="fill:#FFFFC2; fill-opacity:1.0000; 
stroke:#FFFFC2; stroke-width:0.0000; stroke-opacity:1; 
stroke-linecap:round; stroke-linejoin:round;fill-rule:evenodd;"
d="M 17.7800,10.1600
16.7640,9.1440
18.2880,7.6200
19.8120,9.1440
18.7960,10.1600
19.8120,10.1600
16.7640,10.1600
16.7640,10.1600
" /> 
<rect x="8.890000" y="5.842000" width="12.700000" height="12.700000" rx="0.000000" />
</g>
<g style="fill:#840084; fill-opacity:1.0000; 
stroke:#840084; stroke-width:0.0000; stroke-opacity:1; 
stroke-linecap:round; stroke-linejoin:round;">
</g>
<g style="fill:#840000; fill-opacity:1.0000; 
stroke:#840000; stroke-width:0.0000; stroke-opacity:1; 
stroke-linecap:round; stroke-linejoin:round;">
</g>
<g style="fill:#840000; fill-opacity:0.0; 
stroke:#840000; stroke-width:0.2540; stroke-opacity:1; 
stroke-linecap:round; stroke-linejoin:round;">
<path style="fill:#840000; fill-opacity:0.0; 
stroke:#840000; stroke-width:0.2540; stroke-opacity:1; 
stroke-linecap:round; stroke-linejoin:round;fill:none"
d="M 17.7800,10.1600
16.7640,9.1440
18.2880,7.6200
19.8120,9.1440
18.7960,10.1600
19.8120,10.1600
16.7640,10.1600
16.7640,10.1600
" /> 
<rect x="8.890000" y="5.842000" width="12.700000" height="12.700000" rx="0.000000" />
</g>
<g style="fill:#840000; fill-opacity:0.0; 
stroke:#840000; stroke-width:0.3175; stroke-opacity:1; 
stroke-linecap:round; stroke-linejoin:round;">
<text x="15.2400" y="13.4621"
textLength="3.5894" font-size="3.3866" lengthAdjust="spacingAndGlyphs"
text-anchor="middle" opacity="0">&amp;</text>
<g class="stroked-text"><desc>&amp;</desc>
<path d="M16.3285 13.3505
L16.2076 13.3505
" />
<path d="M16.2076 13.3505
L15.9656 13.2296
" />
<path d="M15.9656 13.2296
L15.6028 12.8667
" />
<path d="M15.6028 12.8667
L14.9980 12.1410
" />
<path d="M14.9980 12.1410
L14.7561 11.7781
" />
<path d="M14.7561 11.7781
L14.6352 11.4153
" />
<path d="M14.6352 11.4153
L14.6352 11.1734
" />
<path d="M14.6352 11.1734
L14.7561 10.9315
" />
<path d="M14.7561 10.9315
L14.9980 10.8105
" />
<path d="M14.9980 10.8105
L15.1190 10.8105
" />
<path d="M15.1190 10.8105
L15.3609 10.9315
" />
<path d="M15.3609 10.9315
L15.4818 11.1734
" />
<path d="M15.4818 11.1734
L15.4818 11.2943
" />
<path d="M15.4818 11.2943
L15.3609 11.5362
" />
<path d="M15.3609 11.5362
L15.2399 11.6572
" />
<path d="M15.2399 11.6572
L14.5142 12.1410
" />
<path d="M14.5142 12.1410
L14.3933 12.2619
" />
<path d="M14.3933 12.2619
L14.2723 12.5038
" />
<path d="M14.2723 12.5038
L14.2723 12.8667
" />
<path d="M14.2723 12.8667
L14.3933 13.1086
" />
<path d="M14.3933 13.1086
L14.5142 13.2296
" />
<path d="M14.5142 13.2296
L14.7561 13.3505
" />
<path d="M14.7561 13.3505
L15.1190 13.3505
" />
<path d="M15.1190 13.3505
L15.3609 13.2296
" />
<path d="M15.3609 13.2296
L15.4818 13.1086
" />
<path d="M15.4818 13.1086
L15.8447 12.6248
" />
<path d="M15.8447 12.6248
L15.9656 12.2619
" />
<path d="M15.9656 12.2619
L15.9656 12.0200
" />
</g></g>
<g style="fill:#840000; fill-opacity:0.0; 
stroke:#840000; stroke-width:0.1524; stroke-opacity:1; 
stroke-linecap:round; stroke-linejoin:round;">
<path d="M15.2400 5.8420
L15.2400 2.0320
" />
</g>
<g style="fill:#006464; fill-opacity:0.0; 
stroke:#006464; stroke-width:0.1524; stroke-opacity:1; 
stroke-linecap:round; stroke-linejoin:round;">
<g transform="rotate(-90.000000 15.2400 6.3500)">
<text x="15.2400" y="6.9850"
textLength="3.8318" font-size="1.6933" lengthAdjust="spacingAndGlyphs"
text-anchor="end" opacity="0">VCC</text>
</g>
<g class="stroked-text"><desc>VCC</desc>
<path d="M14.5495 9.9578
L15.8195 9.5345
" />
<path d="M15.8195 9.5345
L14.5495 9.1111
" />
<path d="M15.6986 7.9621
L15.7591 8.0225
" />
<path d="M15.7591 8.0225
L15.8195 8.2040
" />
<path d="M15.8195 8.2040
L15.8195 8.3249
" />
<path d="M15.8195 8.3249
L15.7591 8.5063
" />
<path d="M15.7591 8.5063
L15.6381 8.6273
" />
<path d="M15.6381 8.6273
L15.5171 8.6878
" />
<path d="M15.5171 8.6878
L15.2752 8.7482
" />
<path d="M15.2752 8.7482
L15.0938 8.7482
" />
<path d="M15.0938 8.7482
L14.8519 8.6878
" />
<path d="M14.8519 8.6878
L14.7310 8.6273
" />
<path d="M14.7310 8.6273
L14.6100 8.5063
" />
<path d="M14.6100 8.5063
L14.5495 8.3249
" />
<path d="M14.5495 8.3249
L14.5495 8.2040
" />
<path d="M14.5495 8.2040
L14.6100 8.0225
" />
<path d="M14.6100 8.0225
L14.6705 7.9621
" />
<path d="M15.6986 6.6921
L15.7591 6.7525
" />
<path d="M15.7591 6.7525
L15.8195 6.9340
" />
<path d="M15.8195 6.9340
L15.8195 7.0549
" />
<path d="M15.8195 7.0549
L15.7591 7.2363
" />
<path d="M15.7591 7.2363
L15.6381 7.3573
" />
<path d="M15.6381 7.3573
L15.5171 7.4178
" />
<path d="M15.5171 7.4178
L15.2752 7.4782
" />
<path d="M15.2752 7.4782
L15.0938 7.4782
" />
<path d="M15.0938 7.4782
L14.8519 7.4178
" />
<path d="M14.8519 7.4178
L14.7310 7.3573
" />
<path d="M14.7310 7.3573
L14.6100 7.2363
" />
<path d="M14.6100 7.2363
L14.5495 7.0549
" />
<path d="M14.5495 7.0549
L14.5495 6.9340
" />
<path d="M14.5495 6.9340
L14.6100 6.7525
" />
<path d="M14.6100 6.7525
L14.6705 6.6921
" />
</g></g>
<g style="fill:#A90000; fill-opacity:0.0; 
stroke:#A90000; stroke-width:0.1524; stroke-opacity:1; 
stroke-linecap:round; stroke-linejoin:round;">
<g transform="rotate(-90.000000 14.9860 3.9370)">
<text x="14.9860" y="3.9370"
textLength="2.6222" font-size="1.6933" lengthAdjust="spacingAndGlyphs"
text-anchor="middle" opacity="0">14</text>
</g>
<g class="stroked-text"><desc>14</desc>
<path d="M14.8225 4.1788
L14.8225 4.9045
" />
<path d="M14.8225 4.5417
L13.5525 4.5417
" />
<path d="M13.5525 4.5417
L13.7340 4.6626
" />
<path d="M13.7340 4.6626
L13.8549 4.7836
" />
<path d="M13.8549 4.7836
L13.9154 4.9045
" />
<path d="M13.9759 3.0903
L14.8225 3.0903
" />
<path d="M13.4921 3.3927
L14.3992 3.6950
" />
<path d="M14.3992 3.6950
L14.3992 2.9089
" />
</g></g>
<g style="fill:#840000; fill-opacity:0.0; 
stroke:#840000; stroke-width:0.1524; stroke-opacity:1; 
stroke-linecap:round; stroke-linejoin:round;">
<path d="M15.2400 18.5420
L15.2400 22.3520
" />
</g>
<g style="fill:#006464; fill-opacity:0.0; 
stroke:#006464; stroke-width:0.1524; stroke-opacity:1; 
stroke-linecap:round; stroke-linejoin:round;">
<g transform="rotate(-90.000000 15.2400 18.0340)">
<text x="15.2400" y="18.6690"
textLength="4.0737" font-size="1.6933" lengthAdjust="spacingAndGlyphs"
text-anchor="start" opacity="0">GND</text>
</g>
<g class="stroked-text"><desc>GND</desc>
<path d="M14.6100 16.9661
L14.5495 17.0871
" />
<path d="M14.5495 17.0871
L14.5495 17.2685
" />
<path d="M14.5495 17.2685
L14.6100 17.4499
" />
<path d="M14.6100 17.4499
L14.7310 17.5709
" />
<path d="M14.7310 17.5709
L14.8519 17.6314
" />
<path d="M14.8519 17.6314
L15.0938 17.6918
" />
<path d="M15.0938 17.6918
L15.2752 17.6918
" />
<path d="M15.2752 17.6918
L15.5171 17.6314
" />
<path d="M15.5171 17.6314
L15.6381 17.5709
" />
<path d="M15.6381 17.5709
L15.7591 17.4499
" />
<path d="M15.7591 17.4499
L15.8195 17.2685
" />
<path d="M15.8195 17.2685
L15.8195 17.1476
" />
<path d="M15.8195 17.1476
L15.7591 16.9661
" />
<path d="M15.7591 16.9661
L15.6986 16.9057
" />
<path d="M15.6986 16.9057
L15.2752 16.9057
" />
<path d="M15.2752 16.9057
L15.2752 17.1476
" />
<path d="M15.8195 16.3614
L14.5495 16.3614
" />
<path d="M14.5495 16.3614
L15.8195 15.6357
" />
<path d="M15.8195 15.6357
L14.5495 15.6357
" />
<path d="M15.8195 15.0309
L14.5495 15.0309
" />
<path d="M14.5495 15.0309
L14.5495 14.7285
" />
<path d="M14.5495 14.7285
L14.6100 14.5471
" />
<path d="M14.6100 14.5471
L14.7310 14.4261
" />
<path d="M14.7310 14.4261
L14.8519 14.3656
" />
<path d="M14.8519 14.3656
L15.0938 14.3052
" />
<path d="M15.0938 14.3052
L15.2752 14.3052
" />
<path d="M15.2752 14.3052
L15.5171 14.3656
" />
<path d="M15.5171 14.3656
L15.6381 14.4261
" />
<path d="M15.6381 14.4261
L15.7591 14.5471
" />
<path d="M15.7591 14.5471
L15.8195 14.7285
" />
<path d="M15.8195 14.7285
L15.8195 15.0309
" />
</g></g>
<g style="fill:#A90000; fill-opacity:0.0; 
stroke:#A90000; stroke-width:0.1524; stroke-opacity:1; 
stroke-linecap:round; stroke-linejoin:round;">
<g transform="rotate(-90.000000 14.9860 20.4470)">
<text x="14.9860" y="20.4470"
textLength="1.4127" font-size="1.6933" lengthAdjust="spacingAndGlyphs"
text-anchor="middle" opacity="0">7</text>
</g>
<g class="stroked-text"><desc>7</desc>
<path d="M13.5525 20.8702
L13.5525 20.0236
" />
<path d="M13.5525 20.0236
L14.8225 20.5678
" />
</g></g>
<g style="fill:#840000; fill-opacity:0.0; 
stroke:#840000; stroke-width:0.1524; stroke-opacity:1; 
stroke-linecap:round; stroke-linejoin:round;">
<path d="M8.8900 14.7320
L2.5400 14.7320
" />
</g>
<g style="fill:#A90000; fill-opacity:0.0; 
stroke:#A90000; stroke-width:0.1524; stroke-opacity:1; 
stroke-linecap:round; stroke-linejoin:round;">
<text x="5.7150" y="14.4780"
textLength="2.6222" font-size="1.6933" lengthAdjust="spacingAndGlyphs"
text-anchor="middle" opacity="0">10</text>
<g class="stroked-text"><desc>10</desc>
<path d="M5.4731 14.3145
L4.7474 14.3145
" />
<path d="M5.1102 14.3145
L5.1102 13.0445
" />
<path d="M5.1102 13.0445
L4.9893 13.2260
" />
<path d="M4.9893 13.2260
L4.8683 13.3469
" />
<path d="M4.8683 13.3469
L4.7474 13.4074
" />
<path d="M6.2592 13.0445
L6.3802 13.0445
" />
<path d="M6.3802 13.0445
L6.5011 13.1050
" />
<path d="M6.5011 13.1050
L6.5616 13.1655
" />
<path d="M6.5616 13.1655
L6.6221 13.2864
" />
<path d="M6.6221 13.2864
L6.6826 13.5283
" />
<path d="M6.6826 13.5283
L6.6826 13.8307
" />
<path d="M6.6826 13.8307
L6.6221 14.0726
" />
<path d="M6.6221 14.0726
L6.5616 14.1936
" />
<path d="M6.5616 14.1936
L6.5011 14.2541
" />
<path d="M6.5011 14.2541
L6.3802 14.3145
" />
<path d="M6.3802 14.3145
L6.2592 14.3145
" />
<path d="M6.2592 14.3145
L6.1383 14.2541
" />
<path d="M6.1383 14.2541
L6.0778 14.1936
" />
<path d="M6.0778 14.1936
L6.0173 14.0726
" />
<path d="M6.0173 14.0726
L5.9569 13.8307
" />
<path d="M5.9569 13.8307
L5.9569 13.5283
" />
<path d="M5.9569 13.5283
L6.0173 13.2864
" />
<path d="M6.0173 13.2864
L6.0778 13.1655
" />
<path d="M6.0778 13.1655
L6.1383 13.1050
" />
<path d="M6.1383 13.1050
L6.2592 13.0445
" />
</g></g>
<g style="fill:#840000; fill-opacity:0.0; 
stroke:#840000; stroke-width:0.1524; stroke-opacity:1; 
stroke-linecap:round; stroke-linejoin:round;">
<circle cx="22.2250" cy="12.1920" r="0.6350" /> 
<path d="M22.8600 12.1920
L27.9400 12.1920
" />
</g>
<g style="fill:#A90000; fill-opacity:0.0; 
stroke:#A90000; stroke-width:0.1524; stroke-opacity:1; 
stroke-linecap:round; stroke-linejoin:round;">
<text x="24.7650" y="11.9380"
textLength="1.4127" font-size="1.6933" lengthAdjust="spacingAndGlyphs"
text-anchor="middle" opacity="0">8</text>
<g class="stroked-text"><desc>8</desc>
<path d="M24.6441 11.0488
L24.5231 10.9883
" />
<path d="M24.5231 10.9883
L24.4626 10.9279
" />
<path d="M24.4626 10.9279
L24.4022 10.8069
" />
<path d="M24.4022 10.8069
L24.4022 10.7464
" />
<path d="M24.4022 10.7464
L24.4626 10.6255
" />
<path d="M24.4626 10.6255
L24.5231 10.5650
" />
<path d="M24.5231 10.5650
L24.6441 10.5045
" />
<path d="M24.6441 10.5045
L24.8860 10.5045
" />
<path d="M24.8860 10.5045
L25.0069 10.5650
" />
<path d="M25.0069 10.5650
L25.0674 10.6255
" />
<path d="M25.0674 10.6255
L25.1279 10.7464
" />
<path d="M25.1279 10.7464
L25.1279 10.8069
" />
<path d="M25.1279 10.8069
L25.0674 10.9279
" />
<path d="M25.0674 10.9279
L25.0069 10.9883
" />
<path d="M25.0069 10.9883
L24.8860 11.0488
" />
<path d="M24.8860 11.0488
L24.6441 11.0488
" />
<path d="M24.6441 11.0488
L24.5231 11.1093
" />
<path d="M24.5231 11.1093
L24.4626 11.1698
" />
<path d="M24.4626 11.1698
L24.4022 11.2907
" />
<path d="M24.4022 11.2907
L24.4022 11.5326
" />
<path d="M24.4022 11.5326
L24.4626 11.6536
" />
<path d="M24.4626 11.6536
L24.5231 11.7141
" />
<path d="M24.5231 11.7141
L24.6441 11.7745
" />
<path d="M24.6441 11.7745
L24.8860 11.7745
" />
<path d="M24.8860 11.7745
L25.0069 11.7141
" />
<path d="M25.0069 11.7141
L25.0674 11.6536
" />
<path d="M25.0674 11.6536
L25.1279 11.5326
" />
<path d="M25.1279 11.5326
L25.1279 11.2907
" />
<path d="M25.1279 11.2907
L25.0674 11.1698
" />
<path d="M25.0674 11.1698
L25.0069 11.1093
" />
<path d="M25.0069 11.1093
L24.8860 11.0488
" />
</g></g>
<g style="fill:#840000; fill-opacity:0.0; 
stroke:#840000; stroke-width:0.1524; stroke-opacity:1; 
stroke-linecap:round; stroke-linejoin:round;">
<path d="M8.8900 9.6520
L2.5400 9.6520
" />
</g>
<g style="fill:#A90000; fill-opacity:0.0; 
stroke:#A90000; stroke-width:0.1524; stroke-opacity:1; 
stroke-linecap:round; stroke-linejoin:round;">
<text x="5.7150" y="9.3980"
textLength="1.4127" font-size="1.6933" lengthAdjust="spacingAndGlyphs"
text-anchor="middle" opacity="0">9</text>
<g class="stroked-text"><desc>9</desc>
<path d="M5.4731 9.2345
L5.7150 9.2345
" />
<path d="M5.7150 9.2345
L5.8360 9.1741
" />
<path d="M5.8360 9.1741
L5.8964 9.1136
" />
<path d="M5.8964 9.1136
L6.0174 8.9321
" />
<path d="M6.0174 8.9321
L6.0779 8.6902
" />
<path d="M6.0779 8.6902
L6.0779 8.2064
" />
<path d="M6.0779 8.2064
L6.0174 8.0855
" />
<path d="M6.0174 8.0855
L5.9569 8.0250
" />
<path d="M5.9569 8.0250
L5.8360 7.9645
" />
<path d="M5.8360 7.9645
L5.5941 7.9645
" />
<path d="M5.5941 7.9645
L5.4731 8.0250
" />
<path d="M5.4731 8.0250
L5.4126 8.0855
" />
<path d="M5.4126 8.0855
L5.3522 8.2064
" />
<path d="M5.3522 8.2064
L5.3522 8.5088
" />
<path d="M5.3522 8.5088
L5.4126 8.6298
" />
<path d="M5.4126 8.6298
L5.4731 8.6902
" />
<path d="M5.4731 8.6902
L5.5941 8.7507
" />
<path d="M5.5941 8.7507
L5.8360 8.7507
" />
<path d="M5.8360 8.7507
L5.9569 8.6902
" />
<path d="M5.9569 8.6902
L6.0174 8.6298
" />
<path d="M6.0174 8.6298
L6.0779 8.5088
" />
</g></g>
<g style="fill:#840084; fill-opacity:0.0; 
stroke:#840084; stroke-width:0.1524; stroke-opacity:1; 
stroke-linecap:round; stroke-linejoin:round;">
</g>
<g style="fill:#006464; fill-opacity:0.0; 
stroke:#006464; stroke-width:0.1524; stroke-opacity:1; 
stroke-linecap:round; stroke-linejoin:round;">
</g>
<g style="fill:#006464; fill-opacity:0.0; 
stroke:#006464; stroke-width:0.1588; stroke-opacity:1; 
stroke-linecap:round; stroke-linejoin:round;">
<text x="21.5900" y="5.2070"
textLength="3.9115" font-size="1.6933" lengthAdjust="spacingAndGlyphs"
text-anchor="middle" opacity="0">U?C</text>
<g class="stroked-text"><desc>U?C</desc>
<path d="M20.0478 3.8812
L20.0478 4.9093
" />
<path d="M20.0478 4.9093
L20.1083 5.0303
" />
<path d="M20.1083 5.0303
L20.1688 5.0908
" />
<path d="M20.1688 5.0908
L20.2897 5.1512
" />
<path d="M20.2897 5.1512
L20.5316 5.1512
" />
<path d="M20.5316 5.1512
L20.6526 5.0908
" />
<path d="M20.6526 5.0908
L20.7131 5.0303
" />
<path d="M20.7131 5.0303
L20.7735 4.9093
" />
<path d="M20.7735 4.9093
L20.7735 3.8812
" />
<path d="M21.5598 5.0303
L21.6202 5.0908
" />
<path d="M21.6202 5.0908
L21.5598 5.1512
" />
<path d="M21.5598 5.1512
L21.4993 5.0908
" />
<path d="M21.4993 5.0908
L21.5598 5.0303
" />
<path d="M21.5598 5.0303
L21.5598 5.1512
" />
<path d="M21.3179 3.9417
L21.4388 3.8812
" />
<path d="M21.4388 3.8812
L21.7412 3.8812
" />
<path d="M21.7412 3.8812
L21.8621 3.9417
" />
<path d="M21.8621 3.9417
L21.9226 4.0627
" />
<path d="M21.9226 4.0627
L21.9226 4.1836
" />
<path d="M21.9226 4.1836
L21.8621 4.3046
" />
<path d="M21.8621 4.3046
L21.8017 4.3650
" />
<path d="M21.8017 4.3650
L21.6807 4.4255
" />
<path d="M21.6807 4.4255
L21.6202 4.4860
" />
<path d="M21.6202 4.4860
L21.5598 4.6069
" />
<path d="M21.5598 4.6069
L21.5598 4.6674
" />
<path d="M23.1926 5.0303
L23.1322 5.0908
" />
<path d="M23.1322 5.0908
L22.9507 5.1512
" />
<path d="M22.9507 5.1512
L22.8298 5.1512
" />
<path d="M22.8298 5.1512
L22.6484 5.0908
" />
<path d="M22.6484 5.0908
L22.5274 4.9698
" />
<path d="M22.5274 4.9698
L22.4669 4.8488
" />
<path d="M22.4669 4.8488
L22.4065 4.6069
" />
<path d="M22.4065 4.6069
L22.4065 4.4255
" />
<path d="M22.4065 4.4255
L22.4669 4.1836
" />
<path d="M22.4669 4.1836
L22.5274 4.0627
" />
<path d="M22.5274 4.0627
L22.6484 3.9417
" />
<path d="M22.6484 3.9417
L22.8298 3.8812
" />
<path d="M22.8298 3.8812
L22.9507 3.8812
" />
<path d="M22.9507 3.8812
L23.1322 3.9417
" />
<path d="M23.1322 3.9417
L23.1926 4.0022
" />
</g><text x="20.3200" y="21.7170"
textLength="5.0604" font-size="1.6933" lengthAdjust="spacingAndGlyphs"
text-anchor="middle" opacity="0">7401</text>
<g class="stroked-text"><desc>7401</desc>
<path d="M18.0824 20.3912
L18.9290 20.3912
" />
<path d="M18.9290 20.3912
L18.3848 21.6612
" />
<path d="M19.9571 20.8146
L19.9571 21.6612
" />
<path d="M19.6547 20.3308
L19.3524 21.2379
" />
<path d="M19.3524 21.2379
L20.1385 21.2379
" />
<path d="M20.8642 20.3912
L20.9852 20.3912
" />
<path d="M20.9852 20.3912
L21.1061 20.4517
" />
<path d="M21.1061 20.4517
L21.1666 20.5122
" />
<path d="M21.1666 20.5122
L21.2271 20.6331
" />
<path d="M21.2271 20.6331
L21.2876 20.8750
" />
<path d="M21.2876 20.8750
L21.2876 21.1774
" />
<path d="M21.2876 21.1774
L21.2271 21.4193
" />
<path d="M21.2271 21.4193
L21.1666 21.5403
" />
<path d="M21.1666 21.5403
L21.1061 21.6008
" />
<path d="M21.1061 21.6008
L20.9852 21.6612
" />
<path d="M20.9852 21.6612
L20.8642 21.6612
" />
<path d="M20.8642 21.6612
L20.7433 21.6008
" />
<path d="M20.7433 21.6008
L20.6828 21.5403
" />
<path d="M20.6828 21.5403
L20.6223 21.4193
" />
<path d="M20.6223 21.4193
L20.5619 21.1774
" />
<path d="M20.5619 21.1774
L20.5619 20.8750
" />
<path d="M20.5619 20.8750
L20.6223 20.6331
" />
<path d="M20.6223 20.6331
L20.6828 20.5122
" />
<path d="M20.6828 20.5122
L20.7433 20.4517
" />
<path d="M20.7433 20.4517
L20.8642 20.3912
" />
<path d="M22.4971 21.6612
L21.7714 21.6612
" />
<path d="M22.1342 21.6612
L22.1342 20.3912
" />
<path d="M22.1342 20.3912
L22.0133 20.5727
" />
<path d="M22.0133 20.5727
L21.8923 20.6936
" />
<path d="M21.8923 20.6936
L21.7714 20.7541
" />
</g></g> 
</svg>
