<?xml version="1.0" standalone="no"?>
 <!DOCTYPE svg PUBLIC "-//W3C//DTD SVG 1.1//EN" 
 "http://www.w3.org/Graphics/SVG/1.1/DTD/svg11.dtd"> 
<svg
  xmlns:svg="http://www.w3.org/2000/svg"
  xmlns="http://www.w3.org/2000/svg"
  xmlns:xlink="http://www.w3.org/1999/xlink"
  version="1.1"
  width="97.6630mm" height="28.6512mm" viewBox="0.0000 0.0000 97.6630 28.6512">
<title>SVG Image created as htfs800-p.svg date 2024/01/16 15:12:31 </title>
  <desc>Image generated by Eeschema-SVG </desc>
<g style="fill:#000000; fill-opacity:1.0000;stroke:#000000; stroke-opacity:1.0000;
stroke-linecap:round; stroke-linejoin:round;"
 transform="translate(0 0) scale(1 1)">
</g>
<g style="fill:#840000; fill-opacity:0.0; 
stroke:#840000; stroke-width:0.0000; stroke-opacity:1; 
stroke-linecap:round; stroke-linejoin:round;">
</g>
<g style="fill:#FFFFC2; fill-opacity:0.0; 
stroke:#FFFFC2; stroke-width:0.0000; stroke-opacity:1; 
stroke-linecap:round; stroke-linejoin:round;">
</g>
<g style="fill:#FFFFC2; fill-opacity:1.0000; 
stroke:#FFFFC2; stroke-width:0.0000; stroke-opacity:1; 
stroke-linecap:round; stroke-linejoin:round;">
<rect x="48.831500" y="6.705600" width="10.160000" height="15.240000" rx="0.000000" />
</g>
<g style="fill:#840084; fill-opacity:1.0000; 
stroke:#840084; stroke-width:0.0000; stroke-opacity:1; 
stroke-linecap:round; stroke-linejoin:round;">
</g>
<g style="fill:#840000; fill-opacity:1.0000; 
stroke:#840000; stroke-width:0.0000; stroke-opacity:1; 
stroke-linecap:round; stroke-linejoin:round;">
</g>
<g style="fill:#840000; fill-opacity:0.0; 
stroke:#840000; stroke-width:0.2540; stroke-opacity:1; 
stroke-linecap:round; stroke-linejoin:round;">
<rect x="48.831500" y="6.705600" width="10.160000" height="15.240000" rx="0.000000" />
</g>
<g style="fill:#840000; fill-opacity:0.0; 
stroke:#840000; stroke-width:0.1524; stroke-opacity:1; 
stroke-linecap:round; stroke-linejoin:round;">
<path d="M51.3715 6.7056
L51.3715 4.1656
" />
</g>
<g style="fill:#006464; fill-opacity:0.0; 
stroke:#006464; stroke-width:0.1524; stroke-opacity:1; 
stroke-linecap:round; stroke-linejoin:round;">
<g transform="rotate(-90.000000 51.3715 7.2136)">
<text x="51.3715" y="7.8486"
textLength="3.9528" font-size="1.6933" lengthAdjust="spacingAndGlyphs"
text-anchor="end" opacity="0">+Vc</text>
</g>
<g class="stroked-text"><desc>+Vc</desc>
<path d="M51.4672 10.7610
L51.4672 9.7934
" />
<path d="M51.9510 10.2772
L50.9834 10.2772
" />
<path d="M50.6810 9.3700
L51.9510 8.9467
" />
<path d="M51.9510 8.9467
L50.6810 8.5233
" />
<path d="M51.8906 7.5557
L51.9510 7.6766
" />
<path d="M51.9510 7.6766
L51.9510 7.9185
" />
<path d="M51.9510 7.9185
L51.8906 8.0395
" />
<path d="M51.8906 8.0395
L51.8301 8.1000
" />
<path d="M51.8301 8.1000
L51.7091 8.1604
" />
<path d="M51.7091 8.1604
L51.3463 8.1604
" />
<path d="M51.3463 8.1604
L51.2253 8.1000
" />
<path d="M51.2253 8.1000
L51.1648 8.0395
" />
<path d="M51.1648 8.0395
L51.1044 7.9185
" />
<path d="M51.1044 7.9185
L51.1044 7.6766
" />
<path d="M51.1044 7.6766
L51.1648 7.5557
" />
</g></g>
<g style="fill:#A90000; fill-opacity:0.0; 
stroke:#A90000; stroke-width:0.1524; stroke-opacity:1; 
stroke-linecap:round; stroke-linejoin:round;">
<g transform="rotate(-90.000000 51.1175 5.4356)">
<text x="51.1175" y="5.4356"
textLength="1.4127" font-size="1.6933" lengthAdjust="spacingAndGlyphs"
text-anchor="middle" opacity="0">1</text>
</g>
<g class="stroked-text"><desc>1</desc>
<path d="M50.9540 5.0726
L50.9540 5.7983
" />
<path d="M50.9540 5.4355
L49.6840 5.4355
" />
<path d="M49.6840 5.4355
L49.8655 5.5564
" />
<path d="M49.8655 5.5564
L49.9864 5.6774
" />
<path d="M49.9864 5.6774
L50.0469 5.7983
" />
</g></g>
<g style="fill:#840000; fill-opacity:0.0; 
stroke:#840000; stroke-width:0.1524; stroke-opacity:1; 
stroke-linecap:round; stroke-linejoin:round;">
<path d="M53.9115 21.9456
L53.9115 24.4856
" />
</g>
<g style="fill:#006464; fill-opacity:0.0; 
stroke:#006464; stroke-width:0.1524; stroke-opacity:1; 
stroke-linecap:round; stroke-linejoin:round;">
<g transform="rotate(-90.000000 53.9115 21.4376)">
<text x="53.9115" y="22.0726"
textLength="4.0737" font-size="1.6933" lengthAdjust="spacingAndGlyphs"
text-anchor="start" opacity="0">GND</text>
</g>
<g class="stroked-text"><desc>GND</desc>
<path d="M53.2815 20.3697
L53.2210 20.4907
" />
<path d="M53.2210 20.4907
L53.2210 20.6721
" />
<path d="M53.2210 20.6721
L53.2815 20.8535
" />
<path d="M53.2815 20.8535
L53.4025 20.9745
" />
<path d="M53.4025 20.9745
L53.5234 21.0350
" />
<path d="M53.5234 21.0350
L53.7653 21.0954
" />
<path d="M53.7653 21.0954
L53.9467 21.0954
" />
<path d="M53.9467 21.0954
L54.1886 21.0350
" />
<path d="M54.1886 21.0350
L54.3096 20.9745
" />
<path d="M54.3096 20.9745
L54.4306 20.8535
" />
<path d="M54.4306 20.8535
L54.4910 20.6721
" />
<path d="M54.4910 20.6721
L54.4910 20.5512
" />
<path d="M54.4910 20.5512
L54.4306 20.3697
" />
<path d="M54.4306 20.3697
L54.3701 20.3093
" />
<path d="M54.3701 20.3093
L53.9467 20.3093
" />
<path d="M53.9467 20.3093
L53.9467 20.5512
" />
<path d="M54.4910 19.7650
L53.2210 19.7650
" />
<path d="M53.2210 19.7650
L54.4910 19.0393
" />
<path d="M54.4910 19.0393
L53.2210 19.0393
" />
<path d="M54.4910 18.4345
L53.2210 18.4345
" />
<path d="M53.2210 18.4345
L53.2210 18.1321
" />
<path d="M53.2210 18.1321
L53.2815 17.9507
" />
<path d="M53.2815 17.9507
L53.4025 17.8297
" />
<path d="M53.4025 17.8297
L53.5234 17.7692
" />
<path d="M53.5234 17.7692
L53.7653 17.7088
" />
<path d="M53.7653 17.7088
L53.9467 17.7088
" />
<path d="M53.9467 17.7088
L54.1886 17.7692
" />
<path d="M54.1886 17.7692
L54.3096 17.8297
" />
<path d="M54.3096 17.8297
L54.4306 17.9507
" />
<path d="M54.4306 17.9507
L54.4910 18.1321
" />
<path d="M54.4910 18.1321
L54.4910 18.4345
" />
</g></g>
<g style="fill:#A90000; fill-opacity:0.0; 
stroke:#A90000; stroke-width:0.1524; stroke-opacity:1; 
stroke-linecap:round; stroke-linejoin:round;">
<g transform="rotate(-90.000000 53.6575 23.2156)">
<text x="53.6575" y="23.2156"
textLength="1.4127" font-size="1.6933" lengthAdjust="spacingAndGlyphs"
text-anchor="middle" opacity="0">2</text>
</g>
<g class="stroked-text"><desc>2</desc>
<path d="M52.3450 23.5783
L52.2845 23.5179
" />
<path d="M52.2845 23.5179
L52.2240 23.3969
" />
<path d="M52.2240 23.3969
L52.2240 23.0945
" />
<path d="M52.2240 23.0945
L52.2845 22.9736
" />
<path d="M52.2845 22.9736
L52.3450 22.9131
" />
<path d="M52.3450 22.9131
L52.4659 22.8526
" />
<path d="M52.4659 22.8526
L52.5869 22.8526
" />
<path d="M52.5869 22.8526
L52.7683 22.9131
" />
<path d="M52.7683 22.9131
L53.4940 23.6388
" />
<path d="M53.4940 23.6388
L53.4940 22.8526
" />
</g></g>
<g style="fill:#840000; fill-opacity:0.0; 
stroke:#840000; stroke-width:0.1524; stroke-opacity:1; 
stroke-linecap:round; stroke-linejoin:round;">
<path d="M58.9915 16.8656
L61.5315 16.8656
" />
</g>
<g style="fill:#006464; fill-opacity:0.0; 
stroke:#006464; stroke-width:0.1524; stroke-opacity:1; 
stroke-linecap:round; stroke-linejoin:round;">
<text x="58.4835" y="17.5006"
textLength="4.3155" font-size="1.6933" lengthAdjust="spacingAndGlyphs"
text-anchor="end" opacity="0">Vout</text>
<g class="stroked-text"><desc>Vout</desc>
<path d="M54.3919 16.1751
L54.8152 17.4451
" />
<path d="M54.8152 17.4451
L55.2386 16.1751
" />
<path d="M55.8434 17.4451
L55.7224 17.3847
" />
<path d="M55.7224 17.3847
L55.6619 17.3242
" />
<path d="M55.6619 17.3242
L55.6015 17.2032
" />
<path d="M55.6015 17.2032
L55.6015 16.8404
" />
<path d="M55.6015 16.8404
L55.6619 16.7194
" />
<path d="M55.6619 16.7194
L55.7224 16.6589
" />
<path d="M55.7224 16.6589
L55.8434 16.5985
" />
<path d="M55.8434 16.5985
L56.0248 16.5985
" />
<path d="M56.0248 16.5985
L56.1457 16.6589
" />
<path d="M56.1457 16.6589
L56.2062 16.7194
" />
<path d="M56.2062 16.7194
L56.2667 16.8404
" />
<path d="M56.2667 16.8404
L56.2667 17.2032
" />
<path d="M56.2667 17.2032
L56.2062 17.3242
" />
<path d="M56.2062 17.3242
L56.1457 17.3847
" />
<path d="M56.1457 17.3847
L56.0248 17.4451
" />
<path d="M56.0248 17.4451
L55.8434 17.4451
" />
<path d="M57.3552 16.5985
L57.3552 17.4451
" />
<path d="M56.8109 16.5985
L56.8109 17.2637
" />
<path d="M56.8109 17.2637
L56.8714 17.3847
" />
<path d="M56.8714 17.3847
L56.9924 17.4451
" />
<path d="M56.9924 17.4451
L57.1738 17.4451
" />
<path d="M57.1738 17.4451
L57.2947 17.3847
" />
<path d="M57.2947 17.3847
L57.3552 17.3242
" />
<path d="M57.7785 16.5985
L58.2623 16.5985
" />
<path d="M57.9599 16.1751
L57.9599 17.2637
" />
<path d="M57.9599 17.2637
L58.0204 17.3847
" />
<path d="M58.0204 17.3847
L58.1414 17.4451
" />
<path d="M58.1414 17.4451
L58.2623 17.4451
" />
</g></g>
<g style="fill:#A90000; fill-opacity:0.0; 
stroke:#A90000; stroke-width:0.1524; stroke-opacity:1; 
stroke-linecap:round; stroke-linejoin:round;">
<text x="60.2615" y="16.6116"
textLength="1.4127" font-size="1.6933" lengthAdjust="spacingAndGlyphs"
text-anchor="middle" opacity="0">3</text>
<g class="stroked-text"><desc>3</desc>
<path d="M59.8382 15.1781
L60.6244 15.1781
" />
<path d="M60.6244 15.1781
L60.2010 15.6619
" />
<path d="M60.2010 15.6619
L60.3825 15.6619
" />
<path d="M60.3825 15.6619
L60.5034 15.7224
" />
<path d="M60.5034 15.7224
L60.5639 15.7829
" />
<path d="M60.5639 15.7829
L60.6244 15.9038
" />
<path d="M60.6244 15.9038
L60.6244 16.2062
" />
<path d="M60.6244 16.2062
L60.5639 16.3272
" />
<path d="M60.5639 16.3272
L60.5034 16.3877
" />
<path d="M60.5034 16.3877
L60.3825 16.4481
" />
<path d="M60.3825 16.4481
L60.0196 16.4481
" />
<path d="M60.0196 16.4481
L59.8987 16.3877
" />
<path d="M59.8987 16.3877
L59.8382 16.3272
" />
</g></g>
<g style="fill:#840000; fill-opacity:0.0; 
stroke:#840000; stroke-width:0.1524; stroke-opacity:1; 
stroke-linecap:round; stroke-linejoin:round;">
<path d="M53.9115 6.7056
L53.9115 4.1656
" />
</g>
<g style="fill:#006464; fill-opacity:0.0; 
stroke:#006464; stroke-width:0.1524; stroke-opacity:1; 
stroke-linecap:round; stroke-linejoin:round;">
<g transform="rotate(-90.000000 53.9115 7.2136)">
<text x="53.9115" y="7.8486"
textLength="3.8923" font-size="1.6933" lengthAdjust="spacingAndGlyphs"
text-anchor="end" opacity="0">Vref</text>
</g>
<g class="stroked-text"><desc>Vref</desc>
<path d="M53.2210 10.8819
L54.4910 10.4586
" />
<path d="M54.4910 10.4586
L53.2210 10.0352
" />
<path d="M54.4910 9.6119
L53.6444 9.6119
" />
<path d="M53.8863 9.6119
L53.7653 9.5514
" />
<path d="M53.7653 9.5514
L53.7048 9.4909
" />
<path d="M53.7048 9.4909
L53.6444 9.3700
" />
<path d="M53.6444 9.3700
L53.6444 9.2490
" />
<path d="M54.4306 8.3419
L54.4910 8.4628
" />
<path d="M54.4910 8.4628
L54.4910 8.7047
" />
<path d="M54.4910 8.7047
L54.4306 8.8257
" />
<path d="M54.4306 8.8257
L54.3096 8.8861
" />
<path d="M54.3096 8.8861
L53.8258 8.8861
" />
<path d="M53.8258 8.8861
L53.7048 8.8257
" />
<path d="M53.7048 8.8257
L53.6444 8.7047
" />
<path d="M53.6444 8.7047
L53.6444 8.4628
" />
<path d="M53.6444 8.4628
L53.7048 8.3419
" />
<path d="M53.7048 8.3419
L53.8258 8.2814
" />
<path d="M53.8258 8.2814
L53.9467 8.2814
" />
<path d="M53.9467 8.2814
L54.0677 8.8861
" />
<path d="M53.6444 7.9185
L53.6444 7.4347
" />
<path d="M54.4910 7.7371
L53.4025 7.7371
" />
<path d="M53.4025 7.7371
L53.2815 7.6766
" />
<path d="M53.2815 7.6766
L53.2210 7.5556
" />
<path d="M53.2210 7.5556
L53.2210 7.4347
" />
</g></g>
<g style="fill:#A90000; fill-opacity:0.0; 
stroke:#A90000; stroke-width:0.1524; stroke-opacity:1; 
stroke-linecap:round; stroke-linejoin:round;">
<g transform="rotate(-90.000000 53.6575 5.4356)">
<text x="53.6575" y="5.4356"
textLength="1.4127" font-size="1.6933" lengthAdjust="spacingAndGlyphs"
text-anchor="middle" opacity="0">4</text>
</g>
<g class="stroked-text"><desc>4</desc>
<path d="M52.6474 5.1936
L53.4940 5.1936
" />
<path d="M52.1636 5.4960
L53.0707 5.7983
" />
<path d="M53.0707 5.7983
L53.0707 5.0122
" />
</g></g>
<g style="fill:#840084; fill-opacity:0.0; 
stroke:#840084; stroke-width:0.1524; stroke-opacity:1; 
stroke-linecap:round; stroke-linejoin:round;">
</g>
<g style="fill:#006464; fill-opacity:0.0; 
stroke:#006464; stroke-width:0.1524; stroke-opacity:1; 
stroke-linecap:round; stroke-linejoin:round;">
</g>
<g style="fill:#006464; fill-opacity:0.0; 
stroke:#006464; stroke-width:0.1588; stroke-opacity:1; 
stroke-linecap:round; stroke-linejoin:round;">
<text x="47.5107" y="2.2606"
textLength="2.6415" font-size="1.6933" lengthAdjust="spacingAndGlyphs"
text-anchor="middle" opacity="0">U?</text>
<g class="stroked-text"><desc>U?</desc>
<path d="M46.6035 0.9348
L46.6035 1.9629
" />
<path d="M46.6035 1.9629
L46.6640 2.0839
" />
<path d="M46.6640 2.0839
L46.7245 2.1444
" />
<path d="M46.7245 2.1444
L46.8454 2.2048
" />
<path d="M46.8454 2.2048
L47.0873 2.2048
" />
<path d="M47.0873 2.2048
L47.2083 2.1444
" />
<path d="M47.2083 2.1444
L47.2688 2.0839
" />
<path d="M47.2688 2.0839
L47.3292 1.9629
" />
<path d="M47.3292 1.9629
L47.3292 0.9348
" />
<path d="M48.1155 2.0839
L48.1759 2.1444
" />
<path d="M48.1759 2.1444
L48.1155 2.2048
" />
<path d="M48.1155 2.2048
L48.0550 2.1444
" />
<path d="M48.0550 2.1444
L48.1155 2.0839
" />
<path d="M48.1155 2.0839
L48.1155 2.2048
" />
<path d="M47.8736 0.9953
L47.9945 0.9348
" />
<path d="M47.9945 0.9348
L48.2969 0.9348
" />
<path d="M48.2969 0.9348
L48.4178 0.9953
" />
<path d="M48.4178 0.9953
L48.4783 1.1163
" />
<path d="M48.4783 1.1163
L48.4783 1.2372
" />
<path d="M48.4783 1.2372
L48.4178 1.3582
" />
<path d="M48.4178 1.3582
L48.3574 1.4186
" />
<path d="M48.3574 1.4186
L48.2364 1.4791
" />
<path d="M48.2364 1.4791
L48.1759 1.5396
" />
<path d="M48.1759 1.5396
L48.1155 1.6605
" />
<path d="M48.1155 1.6605
L48.1155 1.7210
" />
</g><text x="43.1867" y="4.8006"
textLength="11.2895" font-size="1.6933" lengthAdjust="spacingAndGlyphs"
text-anchor="middle" opacity="0">HTFS800-P</text>
<g class="stroked-text"><desc>HTFS800-P</desc>
<path d="M37.9555 4.7448
L37.9555 3.4748
" />
<path d="M37.9555 4.0796
L38.6812 4.0796
" />
<path d="M38.6812 4.7448
L38.6812 3.4748
" />
<path d="M39.1046 3.4748
L39.8303 3.4748
" />
<path d="M39.4675 4.7448
L39.4675 3.4748
" />
<path d="M40.6770 4.0796
L40.2536 4.0796
" />
<path d="M40.2536 4.7448
L40.2536 3.4748
" />
<path d="M40.2536 3.4748
L40.8584 3.4748
" />
<path d="M41.2818 4.6844
L41.4632 4.7448
" />
<path d="M41.4632 4.7448
L41.7656 4.7448
" />
<path d="M41.7656 4.7448
L41.8865 4.6844
" />
<path d="M41.8865 4.6844
L41.9470 4.6239
" />
<path d="M41.9470 4.6239
L42.0075 4.5029
" />
<path d="M42.0075 4.5029
L42.0075 4.3820
" />
<path d="M42.0075 4.3820
L41.9470 4.2610
" />
<path d="M41.9470 4.2610
L41.8865 4.2005
" />
<path d="M41.8865 4.2005
L41.7656 4.1401
" />
<path d="M41.7656 4.1401
L41.5237 4.0796
" />
<path d="M41.5237 4.0796
L41.4027 4.0191
" />
<path d="M41.4027 4.0191
L41.3422 3.9586
" />
<path d="M41.3422 3.9586
L41.2818 3.8377
" />
<path d="M41.2818 3.8377
L41.2818 3.7167
" />
<path d="M41.2818 3.7167
L41.3422 3.5958
" />
<path d="M41.3422 3.5958
L41.4027 3.5353
" />
<path d="M41.4027 3.5353
L41.5237 3.4748
" />
<path d="M41.5237 3.4748
L41.8260 3.4748
" />
<path d="M41.8260 3.4748
L42.0075 3.5353
" />
<path d="M42.7332 4.0191
L42.6122 3.9586
" />
<path d="M42.6122 3.9586
L42.5517 3.8982
" />
<path d="M42.5517 3.8982
L42.4913 3.7772
" />
<path d="M42.4913 3.7772
L42.4913 3.7167
" />
<path d="M42.4913 3.7167
L42.5517 3.5958
" />
<path d="M42.5517 3.5958
L42.6122 3.5353
" />
<path d="M42.6122 3.5353
L42.7332 3.4748
" />
<path d="M42.7332 3.4748
L42.9751 3.4748
" />
<path d="M42.9751 3.4748
L43.0960 3.5353
" />
<path d="M43.0960 3.5353
L43.1565 3.5958
" />
<path d="M43.1565 3.5958
L43.2170 3.7167
" />
<path d="M43.2170 3.7167
L43.2170 3.7772
" />
<path d="M43.2170 3.7772
L43.1565 3.8982
" />
<path d="M43.1565 3.8982
L43.0960 3.9586
" />
<path d="M43.0960 3.9586
L42.9751 4.0191
" />
<path d="M42.9751 4.0191
L42.7332 4.0191
" />
<path d="M42.7332 4.0191
L42.6122 4.0796
" />
<path d="M42.6122 4.0796
L42.5517 4.1401
" />
<path d="M42.5517 4.1401
L42.4913 4.2610
" />
<path d="M42.4913 4.2610
L42.4913 4.5029
" />
<path d="M42.4913 4.5029
L42.5517 4.6239
" />
<path d="M42.5517 4.6239
L42.6122 4.6844
" />
<path d="M42.6122 4.6844
L42.7332 4.7448
" />
<path d="M42.7332 4.7448
L42.9751 4.7448
" />
<path d="M42.9751 4.7448
L43.0960 4.6844
" />
<path d="M43.0960 4.6844
L43.1565 4.6239
" />
<path d="M43.1565 4.6239
L43.2170 4.5029
" />
<path d="M43.2170 4.5029
L43.2170 4.2610
" />
<path d="M43.2170 4.2610
L43.1565 4.1401
" />
<path d="M43.1565 4.1401
L43.0960 4.0796
" />
<path d="M43.0960 4.0796
L42.9751 4.0191
" />
<path d="M44.0031 3.4748
L44.1241 3.4748
" />
<path d="M44.1241 3.4748
L44.2450 3.5353
" />
<path d="M44.2450 3.5353
L44.3055 3.5958
" />
<path d="M44.3055 3.5958
L44.3660 3.7167
" />
<path d="M44.3660 3.7167
L44.4265 3.9586
" />
<path d="M44.4265 3.9586
L44.4265 4.2610
" />
<path d="M44.4265 4.2610
L44.3660 4.5029
" />
<path d="M44.3660 4.5029
L44.3055 4.6239
" />
<path d="M44.3055 4.6239
L44.2450 4.6844
" />
<path d="M44.2450 4.6844
L44.1241 4.7448
" />
<path d="M44.1241 4.7448
L44.0031 4.7448
" />
<path d="M44.0031 4.7448
L43.8822 4.6844
" />
<path d="M43.8822 4.6844
L43.8217 4.6239
" />
<path d="M43.8217 4.6239
L43.7612 4.5029
" />
<path d="M43.7612 4.5029
L43.7008 4.2610
" />
<path d="M43.7008 4.2610
L43.7008 3.9586
" />
<path d="M43.7008 3.9586
L43.7612 3.7167
" />
<path d="M43.7612 3.7167
L43.8217 3.5958
" />
<path d="M43.8217 3.5958
L43.8822 3.5353
" />
<path d="M43.8822 3.5353
L44.0031 3.4748
" />
<path d="M45.2126 3.4748
L45.3336 3.4748
" />
<path d="M45.3336 3.4748
L45.4545 3.5353
" />
<path d="M45.4545 3.5353
L45.5150 3.5958
" />
<path d="M45.5150 3.5958
L45.5755 3.7167
" />
<path d="M45.5755 3.7167
L45.6360 3.9586
" />
<path d="M45.6360 3.9586
L45.6360 4.2610
" />
<path d="M45.6360 4.2610
L45.5755 4.5029
" />
<path d="M45.5755 4.5029
L45.5150 4.6239
" />
<path d="M45.5150 4.6239
L45.4545 4.6844
" />
<path d="M45.4545 4.6844
L45.3336 4.7448
" />
<path d="M45.3336 4.7448
L45.2126 4.7448
" />
<path d="M45.2126 4.7448
L45.0917 4.6844
" />
<path d="M45.0917 4.6844
L45.0312 4.6239
" />
<path d="M45.0312 4.6239
L44.9707 4.5029
" />
<path d="M44.9707 4.5029
L44.9103 4.2610
" />
<path d="M44.9103 4.2610
L44.9103 3.9586
" />
<path d="M44.9103 3.9586
L44.9707 3.7167
" />
<path d="M44.9707 3.7167
L45.0312 3.5958
" />
<path d="M45.0312 3.5958
L45.0917 3.5353
" />
<path d="M45.0917 3.5353
L45.2126 3.4748
" />
<path d="M46.1802 4.2610
L47.1479 4.2610
" />
<path d="M47.7526 4.7448
L47.7526 3.4748
" />
<path d="M47.7526 3.4748
L48.2364 3.4748
" />
<path d="M48.2364 3.4748
L48.3574 3.5353
" />
<path d="M48.3574 3.5353
L48.4179 3.5958
" />
<path d="M48.4179 3.5958
L48.4783 3.7167
" />
<path d="M48.4783 3.7167
L48.4783 3.8982
" />
<path d="M48.4783 3.8982
L48.4179 4.0191
" />
<path d="M48.4179 4.0191
L48.3574 4.0796
" />
<path d="M48.3574 4.0796
L48.2364 4.1401
" />
<path d="M48.2364 4.1401
L47.7526 4.1401
" />
</g></g> 
</svg>
