<?xml version="1.0" standalone="no"?>
 <!DOCTYPE svg PUBLIC "-//W3C//DTD SVG 1.1//EN" 
 "http://www.w3.org/Graphics/SVG/1.1/DTD/svg11.dtd"> 
<svg
  xmlns:svg="http://www.w3.org/2000/svg"
  xmlns="http://www.w3.org/2000/svg"
  xmlns:xlink="http://www.w3.org/1999/xlink"
  version="1.1"
  width="53.7210mm" height="9.2456mm" viewBox="0.0000 0.0000 53.7210 9.2456">
<title>SVG Image created as Samtec_T1M-09-X-SV-L_1x09-1MP_P1.0mm_Terminal_Vertical_Latch.svg date 2024/01/16 15:06:25 </title>
  <desc>Image generated by PCBNEW </desc>
<g style="fill:#000000; fill-opacity:1.0000;stroke:#000000; stroke-opacity:1.0000;
stroke-linecap:round; stroke-linejoin:round;"
 transform="translate(0 0) scale(1 1)">
</g>
<g style="fill:#000000; fill-opacity:0.0; 
stroke:#000000; stroke-width:0.0000; stroke-opacity:1; 
stroke-linecap:round; stroke-linejoin:round;">
</g>
<g style="fill:#000000; fill-opacity:1.0000; 
stroke:#000000; stroke-width:0.0212; stroke-opacity:1; 
stroke-linecap:round; stroke-linejoin:round;">
<rect x="-5.000000" y="-5.000000" width="63.726194" height="19.256500" rx="0.000000" />
</g>
<g style="fill:#FFFFFF; fill-opacity:1.0000; 
stroke:#FFFFFF; stroke-width:0.0212; stroke-opacity:1; 
stroke-linecap:round; stroke-linejoin:round;">
<g >
</g>
<g >
</g>
<g >
</g>
<g >
</g>
</g>
<g style="fill:#FFFFFF; fill-opacity:1.0000; 
stroke:#FFFFFF; stroke-width:0.0212; stroke-opacity:1; 
stroke-linecap:round; stroke-linejoin:round;">
<g >
</g>
<g >
</g>
<g >
</g>
<g >
</g>
</g>
<g style="fill:#FFFFFF; fill-opacity:1.0000; 
stroke:#FFFFFF; stroke-width:0.0212; stroke-opacity:1; 
stroke-linecap:round; stroke-linejoin:round;">
<g >
</g>
<g >
</g>
<g >
</g>
<g >
</g>
</g>
<g style="fill:#FFFFFF; fill-opacity:1.0000; 
stroke:#FFFFFF; stroke-width:0.0212; stroke-opacity:1; 
stroke-linecap:round; stroke-linejoin:round;">
<g >
</g>
<g >
</g>
<g >
</g>
<g >
</g>
</g>
<g style="fill:#FFFFFF; fill-opacity:1.0000; 
stroke:#FFFFFF; stroke-width:0.0212; stroke-opacity:1; 
stroke-linecap:round; stroke-linejoin:round;">
<g >
</g>
<g >
</g>
<g >
</g>
<g >
</g>
</g>
<g style="fill:#FFFFFF; fill-opacity:1.0000; 
stroke:#FFFFFF; stroke-width:0.0212; stroke-opacity:1; 
stroke-linecap:round; stroke-linejoin:round;">
<g >
</g>
<g >
</g>
<g >
</g>
<g >
</g>
</g>
<g style="fill:#FFFFFF; fill-opacity:1.0000; 
stroke:#FFFFFF; stroke-width:0.0212; stroke-opacity:1; 
stroke-linecap:round; stroke-linejoin:round;">
<g >
</g>
<g >
</g>
<g >
</g>
<g >
</g>
</g>
<g style="fill:#FFFFFF; fill-opacity:1.0000; 
stroke:#FFFFFF; stroke-width:0.0212; stroke-opacity:1; 
stroke-linecap:round; stroke-linejoin:round;">
<g >
</g>
<g >
</g>
<g >
</g>
<g >
</g>
</g>
<g style="fill:#FFFFFF; fill-opacity:1.0000; 
stroke:#FFFFFF; stroke-width:0.0212; stroke-opacity:1; 
stroke-linecap:round; stroke-linejoin:round;">
<g >
</g>
<g >
</g>
<g >
</g>
<g >
</g>
</g>
<g style="fill:#FFFFFF; fill-opacity:1.0000; 
stroke:#FFFFFF; stroke-width:0.0212; stroke-opacity:1; 
stroke-linecap:round; stroke-linejoin:round;">
<g >
</g>
<g >
</g>
<g >
</g>
<g >
</g>
</g>
<g style="fill:#FFFFFF; fill-opacity:1.0000; 
stroke:#FFFFFF; stroke-width:0.0212; stroke-opacity:1; 
stroke-linecap:round; stroke-linejoin:round;">
<g >
</g>
<g >
</g>
<g >
</g>
<g >
</g>
</g>
<g style="fill:#FFFFFF; fill-opacity:1.0000; 
stroke:#FFFFFF; stroke-width:0.0212; stroke-opacity:1; 
stroke-linecap:round; stroke-linejoin:round;">
<g >
</g>
<g >
</g>
<g >
</g>
<g >
</g>
</g>
<g style="fill:#FFFFFF; fill-opacity:1.0000; 
stroke:#FFFFFF; stroke-width:0.0212; stroke-opacity:1; 
stroke-linecap:round; stroke-linejoin:round;">
<g >
</g>
<g >
</g>
<g >
</g>
<g >
</g>
</g>
<g style="fill:#FFFFFF; fill-opacity:1.0000; 
stroke:#FFFFFF; stroke-width:0.0212; stroke-opacity:1; 
stroke-linecap:round; stroke-linejoin:round;">
<g >
</g>
<g >
</g>
<g >
</g>
<g >
</g>
</g>
<g style="fill:#FFFFFF; fill-opacity:1.0000; 
stroke:#FFFFFF; stroke-width:0.0212; stroke-opacity:1; 
stroke-linecap:round; stroke-linejoin:round;">
<g >
</g>
<g >
</g>
<g >
</g>
<g >
</g>
</g>
<g style="fill:#FFFFFF; fill-opacity:1.0000; 
stroke:#FFFFFF; stroke-width:0.0212; stroke-opacity:1; 
stroke-linecap:round; stroke-linejoin:round;">
<g >
</g>
<g >
</g>
<g >
</g>
<g >
</g>
</g>
<g style="fill:#FFFFFF; fill-opacity:1.0000; 
stroke:#FFFFFF; stroke-width:0.0212; stroke-opacity:1; 
stroke-linecap:round; stroke-linejoin:round;">
<g >
</g>
<g >
</g>
<g >
</g>
<g >
</g>
</g>
<g style="fill:#FFFFFF; fill-opacity:1.0000; 
stroke:#FFFFFF; stroke-width:0.0212; stroke-opacity:1; 
stroke-linecap:round; stroke-linejoin:round;">
<g >
</g>
<g >
</g>
<g >
</g>
<g >
</g>
</g>
<g style="fill:#FFFFFF; fill-opacity:1.0000; 
stroke:#FFFFFF; stroke-width:0.0212; stroke-opacity:1; 
stroke-linecap:round; stroke-linejoin:round;">
<g >
</g>
<g >
</g>
<g >
</g>
<g >
</g>
</g>
<g style="fill:#FFFFFF; fill-opacity:1.0000; 
stroke:#FFFFFF; stroke-width:0.0212; stroke-opacity:1; 
stroke-linecap:round; stroke-linejoin:round;">
<g >
</g>
<g >
</g>
<g >
</g>
<g >
</g>
</g>
<g style="fill:#FFFFFF; fill-opacity:1.0000; 
stroke:#FFFFFF; stroke-width:0.0212; stroke-opacity:1; 
stroke-linecap:round; stroke-linejoin:round;">
<g >
</g>
<g >
</g>
<g >
</g>
<g >
</g>
</g>
<g style="fill:#FFFFFF; fill-opacity:1.0000; 
stroke:#FFFFFF; stroke-width:0.0212; stroke-opacity:1; 
stroke-linecap:round; stroke-linejoin:round;">
<g >
</g>
<g >
</g>
<g >
</g>
<g >
</g>
</g>
<g style="fill:#FFFFFF; fill-opacity:1.0000; 
stroke:#FFFFFF; stroke-width:0.0212; stroke-opacity:1; 
stroke-linecap:round; stroke-linejoin:round;">
<g >
</g>
<g >
</g>
<g >
</g>
<g >
</g>
</g>
<g style="fill:#FFFFFF; fill-opacity:1.0000; 
stroke:#FFFFFF; stroke-width:0.0212; stroke-opacity:1; 
stroke-linecap:round; stroke-linejoin:round;">
<g >
</g>
<g >
</g>
<g >
</g>
<g >
</g>
</g>
<g style="fill:#FFFFFF; fill-opacity:1.0000; 
stroke:#FFFFFF; stroke-width:0.0212; stroke-opacity:1; 
stroke-linecap:round; stroke-linejoin:round;">
<g >
</g>
<g >
</g>
<g >
</g>
<g >
</g>
</g>
<g style="fill:#FFFFFF; fill-opacity:1.0000; 
stroke:#FFFFFF; stroke-width:0.0212; stroke-opacity:1; 
stroke-linecap:round; stroke-linejoin:round;">
<g >
</g>
<g >
</g>
<g >
</g>
<g >
</g>
</g>
<g style="fill:#FFFFFF; fill-opacity:1.0000; 
stroke:#FFFFFF; stroke-width:0.0212; stroke-opacity:1; 
stroke-linecap:round; stroke-linejoin:round;">
<g >
</g>
<g >
</g>
<g >
</g>
<g >
</g>
</g>
<g style="fill:#FFFFFF; fill-opacity:1.0000; 
stroke:#FFFFFF; stroke-width:0.0212; stroke-opacity:1; 
stroke-linecap:round; stroke-linejoin:round;">
<g >
</g>
<g >
</g>
<g >
</g>
<g >
</g>
</g>
<g style="fill:#FFFFFF; fill-opacity:1.0000; 
stroke:#FFFFFF; stroke-width:0.0212; stroke-opacity:1; 
stroke-linecap:round; stroke-linejoin:round;">
<g >
</g>
<g >
</g>
<g >
</g>
<g >
</g>
</g>
<g style="fill:#FFFFFF; fill-opacity:1.0000; 
stroke:#FFFFFF; stroke-width:0.0212; stroke-opacity:1; 
stroke-linecap:round; stroke-linejoin:round;">
<g >
</g>
<g >
</g>
<g >
</g>
<g >
</g>
</g>
<g style="fill:#FFFFFF; fill-opacity:1.0000; 
stroke:#FFFFFF; stroke-width:0.0212; stroke-opacity:1; 
stroke-linecap:round; stroke-linejoin:round;">
<g >
</g>
<g >
</g>
<g >
</g>
<g >
</g>
</g>
<g style="fill:#FFFFFF; fill-opacity:1.0000; 
stroke:#FFFFFF; stroke-width:0.0212; stroke-opacity:1; 
stroke-linecap:round; stroke-linejoin:round;">
<g >
</g>
<g >
</g>
<g >
</g>
<g >
</g>
</g>
<g style="fill:#FFFFFF; fill-opacity:1.0000; 
stroke:#FFFFFF; stroke-width:0.0212; stroke-opacity:1; 
stroke-linecap:round; stroke-linejoin:round;">
<g >
</g>
<g >
</g>
<g >
</g>
<g >
</g>
</g>
<g style="fill:#FFFFFF; fill-opacity:1.0000; 
stroke:#FFFFFF; stroke-width:0.0212; stroke-opacity:1; 
stroke-linecap:round; stroke-linejoin:round;">
<g >
</g>
<g style="fill:#37CBCB; fill-opacity:1.0000; 
stroke:#37CBCB; stroke-width:0.0212; stroke-opacity:1; 
stroke-linecap:round; stroke-linejoin:round;">
</g>
<g style="fill:#37CBCB; fill-opacity:1.0000; 
stroke:#37CBCB; stroke-width:0.0000; stroke-opacity:1; 
stroke-linecap:round; stroke-linejoin:round;">
<path style="fill:#37CBCB; fill-opacity:1.0000; 
stroke:#37CBCB; stroke-width:0.0000; stroke-opacity:1; 
stroke-linecap:round; stroke-linejoin:round;fill-rule:evenodd;"
d="M 22.5631,5.8032
22.5745,5.7458
22.6070,5.6972
22.6557,5.6647
22.7131,5.6532
23.0131,5.6532
23.0705,5.6647
23.1192,5.6972
23.1517,5.7458
23.1631,5.8032
23.1631,7.0532
23.1517,7.1107
23.1192,7.1593
23.0705,7.1918
23.0131,7.2032
22.7131,7.2032
22.6557,7.1918
22.6070,7.1593
22.5745,7.1107
22.5631,7.0532
Z" /> 
<path style="fill:#37CBCB; fill-opacity:1.0000; 
stroke:#37CBCB; stroke-width:0.0000; stroke-opacity:1; 
stroke-linecap:round; stroke-linejoin:round;fill-rule:evenodd;"
d="M 23.5631,5.8032
23.5745,5.7458
23.6070,5.6972
23.6557,5.6647
23.7131,5.6532
24.0131,5.6532
24.0705,5.6647
24.1192,5.6972
24.1517,5.7458
24.1631,5.8032
24.1631,7.0532
24.1517,7.1107
24.1192,7.1593
24.0705,7.1918
24.0131,7.2032
23.7131,7.2032
23.6557,7.1918
23.6070,7.1593
23.5745,7.1107
23.5631,7.0532
Z" /> 
<path style="fill:#37CBCB; fill-opacity:1.0000; 
stroke:#37CBCB; stroke-width:0.0000; stroke-opacity:1; 
stroke-linecap:round; stroke-linejoin:round;fill-rule:evenodd;"
d="M 24.5631,5.8032
24.5745,5.7458
24.6070,5.6972
24.6557,5.6647
24.7131,5.6532
25.0131,5.6532
25.0705,5.6647
25.1192,5.6972
25.1517,5.7458
25.1631,5.8032
25.1631,7.0532
25.1517,7.1107
25.1192,7.1593
25.0705,7.1918
25.0131,7.2032
24.7131,7.2032
24.6557,7.1918
24.6070,7.1593
24.5745,7.1107
24.5631,7.0532
Z" /> 
<path style="fill:#37CBCB; fill-opacity:1.0000; 
stroke:#37CBCB; stroke-width:0.0000; stroke-opacity:1; 
stroke-linecap:round; stroke-linejoin:round;fill-rule:evenodd;"
d="M 25.5631,5.8032
25.5745,5.7458
25.6070,5.6972
25.6557,5.6647
25.7131,5.6532
26.0131,5.6532
26.0705,5.6647
26.1192,5.6972
26.1517,5.7458
26.1631,5.8032
26.1631,7.0532
26.1517,7.1107
26.1192,7.1593
26.0705,7.1918
26.0131,7.2032
25.7131,7.2032
25.6557,7.1918
25.6070,7.1593
25.5745,7.1107
25.5631,7.0532
Z" /> 
<path style="fill:#37CBCB; fill-opacity:1.0000; 
stroke:#37CBCB; stroke-width:0.0000; stroke-opacity:1; 
stroke-linecap:round; stroke-linejoin:round;fill-rule:evenodd;"
d="M 26.5631,5.8032
26.5745,5.7458
26.6070,5.6972
26.6557,5.6647
26.7131,5.6532
27.0131,5.6532
27.0705,5.6647
27.1192,5.6972
27.1517,5.7458
27.1631,5.8032
27.1631,7.0532
27.1517,7.1107
27.1192,7.1593
27.0705,7.1918
27.0131,7.2032
26.7131,7.2032
26.6557,7.1918
26.6070,7.1593
26.5745,7.1107
26.5631,7.0532
Z" /> 
<path style="fill:#37CBCB; fill-opacity:1.0000; 
stroke:#37CBCB; stroke-width:0.0000; stroke-opacity:1; 
stroke-linecap:round; stroke-linejoin:round;fill-rule:evenodd;"
d="M 27.5631,5.8032
27.5745,5.7458
27.6070,5.6972
27.6557,5.6647
27.7131,5.6532
28.0131,5.6532
28.0705,5.6647
28.1192,5.6972
28.1517,5.7458
28.1631,5.8032
28.1631,7.0532
28.1517,7.1107
28.1192,7.1593
28.0705,7.1918
28.0131,7.2032
27.7131,7.2032
27.6557,7.1918
27.6070,7.1593
27.5745,7.1107
27.5631,7.0532
Z" /> 
<path style="fill:#37CBCB; fill-opacity:1.0000; 
stroke:#37CBCB; stroke-width:0.0000; stroke-opacity:1; 
stroke-linecap:round; stroke-linejoin:round;fill-rule:evenodd;"
d="M 28.5631,5.8032
28.5745,5.7458
28.6070,5.6972
28.6557,5.6647
28.7131,5.6532
29.0131,5.6532
29.0705,5.6647
29.1192,5.6972
29.1517,5.7458
29.1631,5.8032
29.1631,7.0532
29.1517,7.1107
29.1192,7.1593
29.0705,7.1918
29.0131,7.2032
28.7131,7.2032
28.6557,7.1918
28.6070,7.1593
28.5745,7.1107
28.5631,7.0532
Z" /> 
<path style="fill:#37CBCB; fill-opacity:1.0000; 
stroke:#37CBCB; stroke-width:0.0000; stroke-opacity:1; 
stroke-linecap:round; stroke-linejoin:round;fill-rule:evenodd;"
d="M 29.5631,5.8032
29.5745,5.7458
29.6070,5.6972
29.6557,5.6647
29.7131,5.6532
30.0131,5.6532
30.0705,5.6647
30.1192,5.6972
30.1517,5.7458
30.1631,5.8032
30.1631,7.0532
30.1517,7.1107
30.1192,7.1593
30.0705,7.1918
30.0131,7.2032
29.7131,7.2032
29.6557,7.1918
29.6070,7.1593
29.5745,7.1107
29.5631,7.0532
Z" /> 
<path style="fill:#37CBCB; fill-opacity:1.0000; 
stroke:#37CBCB; stroke-width:0.0000; stroke-opacity:1; 
stroke-linecap:round; stroke-linejoin:round;fill-rule:evenodd;"
d="M 30.5631,5.8032
30.5745,5.7458
30.6070,5.6972
30.6557,5.6647
30.7131,5.6532
31.0131,5.6532
31.0705,5.6647
31.1192,5.6972
31.1517,5.7458
31.1631,5.8032
31.1631,7.0532
31.1517,7.1107
31.1192,7.1593
31.0705,7.1918
31.0131,7.2032
30.7131,7.2032
30.6557,7.1918
30.6070,7.1593
30.5745,7.1107
30.5631,7.0532
Z" /> 
<path style="fill:#37CBCB; fill-opacity:1.0000; 
stroke:#37CBCB; stroke-width:0.0000; stroke-opacity:1; 
stroke-linecap:round; stroke-linejoin:round;fill-rule:evenodd;"
d="M 21.1631,3.1532
21.1783,3.0767
21.2217,3.0118
21.2866,2.9685
21.3631,2.9532
21.7631,2.9532
21.8396,2.9685
21.9045,3.0118
21.9479,3.0767
21.9631,3.1532
21.9631,4.5532
21.9479,4.6298
21.9045,4.6947
21.8396,4.7380
21.7631,4.7532
21.3631,4.7532
21.2866,4.7380
21.2217,4.6947
21.1783,4.6298
21.1631,4.5532
Z" /> 
<path style="fill:#37CBCB; fill-opacity:1.0000; 
stroke:#37CBCB; stroke-width:0.0000; stroke-opacity:1; 
stroke-linecap:round; stroke-linejoin:round;fill-rule:evenodd;"
d="M 31.7631,3.1532
31.7783,3.0767
31.8217,3.0118
31.8866,2.9685
31.9631,2.9532
32.3631,2.9532
32.4396,2.9685
32.5045,3.0118
32.5479,3.0767
32.5631,3.1532
32.5631,4.5532
32.5479,4.6298
32.5045,4.6947
32.4396,4.7380
32.3631,4.7532
31.9631,4.7532
31.8866,4.7380
31.8217,4.6947
31.7783,4.6298
31.7631,4.5532
Z" /> 
</g>
<g >
</g>
<g >
</g>
<g >
</g>
</g>
<g style="fill:#FFFFFF; fill-opacity:1.0000; 
stroke:#FFFFFF; stroke-width:0.0000; stroke-opacity:1; 
stroke-linecap:round; stroke-linejoin:round;">
<g >
</g>
<g style="fill:#4A5F65; fill-opacity:0.9000; 
stroke:#4A5F65; stroke-width:0.0000; stroke-opacity:1; 
stroke-linecap:round; stroke-linejoin:round;">
<path style="fill:#4A5F65; fill-opacity:0.9000; 
stroke:#4A5F65; stroke-width:0.0000; stroke-opacity:1; 
stroke-linecap:round; stroke-linejoin:round;fill-rule:evenodd;"
d="M 22.5631,5.8032
22.5745,5.7458
22.6070,5.6972
22.6557,5.6647
22.7131,5.6532
23.0131,5.6532
23.0705,5.6647
23.1192,5.6972
23.1517,5.7458
23.1631,5.8032
23.1631,7.0532
23.1517,7.1107
23.1192,7.1593
23.0705,7.1918
23.0131,7.2032
22.7131,7.2032
22.6557,7.1918
22.6070,7.1593
22.5745,7.1107
22.5631,7.0532
Z" /> 
<path style="fill:#4A5F65; fill-opacity:0.9000; 
stroke:#4A5F65; stroke-width:0.0000; stroke-opacity:1; 
stroke-linecap:round; stroke-linejoin:round;fill-rule:evenodd;"
d="M 23.5631,5.8032
23.5745,5.7458
23.6070,5.6972
23.6557,5.6647
23.7131,5.6532
24.0131,5.6532
24.0705,5.6647
24.1192,5.6972
24.1517,5.7458
24.1631,5.8032
24.1631,7.0532
24.1517,7.1107
24.1192,7.1593
24.0705,7.1918
24.0131,7.2032
23.7131,7.2032
23.6557,7.1918
23.6070,7.1593
23.5745,7.1107
23.5631,7.0532
Z" /> 
<path style="fill:#4A5F65; fill-opacity:0.9000; 
stroke:#4A5F65; stroke-width:0.0000; stroke-opacity:1; 
stroke-linecap:round; stroke-linejoin:round;fill-rule:evenodd;"
d="M 24.5631,5.8032
24.5745,5.7458
24.6070,5.6972
24.6557,5.6647
24.7131,5.6532
25.0131,5.6532
25.0705,5.6647
25.1192,5.6972
25.1517,5.7458
25.1631,5.8032
25.1631,7.0532
25.1517,7.1107
25.1192,7.1593
25.0705,7.1918
25.0131,7.2032
24.7131,7.2032
24.6557,7.1918
24.6070,7.1593
24.5745,7.1107
24.5631,7.0532
Z" /> 
<path style="fill:#4A5F65; fill-opacity:0.9000; 
stroke:#4A5F65; stroke-width:0.0000; stroke-opacity:1; 
stroke-linecap:round; stroke-linejoin:round;fill-rule:evenodd;"
d="M 25.5631,5.8032
25.5745,5.7458
25.6070,5.6972
25.6557,5.6647
25.7131,5.6532
26.0131,5.6532
26.0705,5.6647
26.1192,5.6972
26.1517,5.7458
26.1631,5.8032
26.1631,7.0532
26.1517,7.1107
26.1192,7.1593
26.0705,7.1918
26.0131,7.2032
25.7131,7.2032
25.6557,7.1918
25.6070,7.1593
25.5745,7.1107
25.5631,7.0532
Z" /> 
<path style="fill:#4A5F65; fill-opacity:0.9000; 
stroke:#4A5F65; stroke-width:0.0000; stroke-opacity:1; 
stroke-linecap:round; stroke-linejoin:round;fill-rule:evenodd;"
d="M 26.5631,5.8032
26.5745,5.7458
26.6070,5.6972
26.6557,5.6647
26.7131,5.6532
27.0131,5.6532
27.0705,5.6647
27.1192,5.6972
27.1517,5.7458
27.1631,5.8032
27.1631,7.0532
27.1517,7.1107
27.1192,7.1593
27.0705,7.1918
27.0131,7.2032
26.7131,7.2032
26.6557,7.1918
26.6070,7.1593
26.5745,7.1107
26.5631,7.0532
Z" /> 
<path style="fill:#4A5F65; fill-opacity:0.9000; 
stroke:#4A5F65; stroke-width:0.0000; stroke-opacity:1; 
stroke-linecap:round; stroke-linejoin:round;fill-rule:evenodd;"
d="M 27.5631,5.8032
27.5745,5.7458
27.6070,5.6972
27.6557,5.6647
27.7131,5.6532
28.0131,5.6532
28.0705,5.6647
28.1192,5.6972
28.1517,5.7458
28.1631,5.8032
28.1631,7.0532
28.1517,7.1107
28.1192,7.1593
28.0705,7.1918
28.0131,7.2032
27.7131,7.2032
27.6557,7.1918
27.6070,7.1593
27.5745,7.1107
27.5631,7.0532
Z" /> 
<path style="fill:#4A5F65; fill-opacity:0.9000; 
stroke:#4A5F65; stroke-width:0.0000; stroke-opacity:1; 
stroke-linecap:round; stroke-linejoin:round;fill-rule:evenodd;"
d="M 28.5631,5.8032
28.5745,5.7458
28.6070,5.6972
28.6557,5.6647
28.7131,5.6532
29.0131,5.6532
29.0705,5.6647
29.1192,5.6972
29.1517,5.7458
29.1631,5.8032
29.1631,7.0532
29.1517,7.1107
29.1192,7.1593
29.0705,7.1918
29.0131,7.2032
28.7131,7.2032
28.6557,7.1918
28.6070,7.1593
28.5745,7.1107
28.5631,7.0532
Z" /> 
<path style="fill:#4A5F65; fill-opacity:0.9000; 
stroke:#4A5F65; stroke-width:0.0000; stroke-opacity:1; 
stroke-linecap:round; stroke-linejoin:round;fill-rule:evenodd;"
d="M 29.5631,5.8032
29.5745,5.7458
29.6070,5.6972
29.6557,5.6647
29.7131,5.6532
30.0131,5.6532
30.0705,5.6647
30.1192,5.6972
30.1517,5.7458
30.1631,5.8032
30.1631,7.0532
30.1517,7.1107
30.1192,7.1593
30.0705,7.1918
30.0131,7.2032
29.7131,7.2032
29.6557,7.1918
29.6070,7.1593
29.5745,7.1107
29.5631,7.0532
Z" /> 
<path style="fill:#4A5F65; fill-opacity:0.9000; 
stroke:#4A5F65; stroke-width:0.0000; stroke-opacity:1; 
stroke-linecap:round; stroke-linejoin:round;fill-rule:evenodd;"
d="M 30.5631,5.8032
30.5745,5.7458
30.6070,5.6972
30.6557,5.6647
30.7131,5.6532
31.0131,5.6532
31.0705,5.6647
31.1192,5.6972
31.1517,5.7458
31.1631,5.8032
31.1631,7.0532
31.1517,7.1107
31.1192,7.1593
31.0705,7.1918
31.0131,7.2032
30.7131,7.2032
30.6557,7.1918
30.6070,7.1593
30.5745,7.1107
30.5631,7.0532
Z" /> 
<path style="fill:#4A5F65; fill-opacity:0.9000; 
stroke:#4A5F65; stroke-width:0.0000; stroke-opacity:1; 
stroke-linecap:round; stroke-linejoin:round;fill-rule:evenodd;"
d="M 21.1631,3.1532
21.1783,3.0767
21.2217,3.0118
21.2866,2.9685
21.3631,2.9532
21.7631,2.9532
21.8396,2.9685
21.9045,3.0118
21.9479,3.0767
21.9631,3.1532
21.9631,4.5532
21.9479,4.6298
21.9045,4.6947
21.8396,4.7380
21.7631,4.7532
21.3631,4.7532
21.2866,4.7380
21.2217,4.6947
21.1783,4.6298
21.1631,4.5532
Z" /> 
<path style="fill:#4A5F65; fill-opacity:0.9000; 
stroke:#4A5F65; stroke-width:0.0000; stroke-opacity:1; 
stroke-linecap:round; stroke-linejoin:round;fill-rule:evenodd;"
d="M 31.7631,3.1532
31.7783,3.0767
31.8217,3.0118
31.8866,2.9685
31.9631,2.9532
32.3631,2.9532
32.4396,2.9685
32.5045,3.0118
32.5479,3.0767
32.5631,3.1532
32.5631,4.5532
32.5479,4.6298
32.5045,4.6947
32.4396,4.7380
32.3631,4.7532
31.9631,4.7532
31.8866,4.7380
31.8217,4.6947
31.7783,4.6298
31.7631,4.5532
Z" /> 
</g>
<g >
</g>
<g >
</g>
<g >
</g>
</g>
<g style="fill:#FFFFFF; fill-opacity:1.0000; 
stroke:#FFFFFF; stroke-width:0.0000; stroke-opacity:1; 
stroke-linecap:round; stroke-linejoin:round;">
</g>
<g style="fill:#0D115E; fill-opacity:1.0000; 
stroke:#0D115E; stroke-width:0.0000; stroke-opacity:1; 
stroke-linecap:round; stroke-linejoin:round;">
</g>
<g style="fill:#0D115E; fill-opacity:1.0000; 
stroke:#0D115E; stroke-width:0.1500; stroke-opacity:1; 
stroke-linecap:round; stroke-linejoin:round;">
</g>
<g style="fill:#0D115E; fill-opacity:0.0; 
stroke:#0D115E; stroke-width:0.1500; stroke-opacity:1; 
stroke-linecap:round; stroke-linejoin:round;">
<text x="26.8631" y="1.3482"
textLength="4.5357" font-size="1.3333" lengthAdjust="spacingAndGlyphs"
text-anchor="middle" opacity="0">REF**</text>
<g class="stroked-text"><desc>REF**</desc>
<path d="M25.5298 1.3031
L25.1964 0.8269
" />
<path d="M24.9583 1.3031
L24.9583 0.3031
" />
<path d="M24.9583 0.3031
L25.3393 0.3031
" />
<path d="M25.3393 0.3031
L25.4345 0.3507
" />
<path d="M25.4345 0.3507
L25.4821 0.3983
" />
<path d="M25.4821 0.3983
L25.5298 0.4935
" />
<path d="M25.5298 0.4935
L25.5298 0.6364
" />
<path d="M25.5298 0.6364
L25.4821 0.7316
" />
<path d="M25.4821 0.7316
L25.4345 0.7793
" />
<path d="M25.4345 0.7793
L25.3393 0.8269
" />
<path d="M25.3393 0.8269
L24.9583 0.8269
" />
<path d="M25.9583 0.7793
L26.2917 0.7793
" />
<path d="M26.4345 1.3031
L25.9583 1.3031
" />
<path d="M25.9583 1.3031
L25.9583 0.3031
" />
<path d="M25.9583 0.3031
L26.4345 0.3031
" />
<path d="M27.1964 0.7793
L26.8631 0.7793
" />
<path d="M26.8631 1.3031
L26.8631 0.3031
" />
<path d="M26.8631 0.3031
L27.3393 0.3031
" />
<path d="M27.8631 0.3031
L27.8631 0.5412
" />
<path d="M27.6250 0.4459
L27.8631 0.5412
" />
<path d="M27.8631 0.5412
L28.1012 0.4459
" />
<path d="M27.7202 0.7316
L27.8631 0.5412
" />
<path d="M27.8631 0.5412
L28.0060 0.7316
" />
<path d="M28.6250 0.3031
L28.6250 0.5412
" />
<path d="M28.3869 0.4459
L28.6250 0.5412
" />
<path d="M28.6250 0.5412
L28.8631 0.4459
" />
<path d="M28.4821 0.7316
L28.6250 0.5412
" />
<path d="M28.6250 0.5412
L28.7679 0.7316
" />
</g></g>
<g style="fill:#0D115E; fill-opacity:0.0; 
stroke:#0D115E; stroke-width:0.1200; stroke-opacity:1; 
stroke-linecap:round; stroke-linejoin:round;">
<path d="M21.0531 6.4132
L21.0531 5.0133
" />
<path d="M22.2231 3.1432
L24.2531 3.1432
" />
<path d="M22.3031 6.4132
L21.0531 6.4132
" />
<path d="M22.3031 6.5132
L22.3031 6.4132
" />
<path d="M22.6033 7.9282
L22.8631 7.4783
" />
<path d="M22.8631 7.4783
L23.1229 7.9282
" />
<path d="M23.1229 7.9282
L22.6033 7.9282
" />
<path d="M24.2531 1.9432
L29.4731 1.9432
" />
<path d="M24.2531 3.1432
L24.2531 1.9432
" />
<path d="M29.4731 1.9432
L29.4731 3.1432
" />
<path d="M29.4731 3.1432
L31.5031 3.1432
" />
<path d="M31.4231 6.4132
L31.4231 6.5132
" />
<path d="M32.6731 5.0133
L32.6731 6.4132
" />
<path d="M32.6731 6.4132
L31.4231 6.4132
" />
<g >
</g>
<g >
</g>
<g >
</g>
<g >
</g>
</g> 
</svg>
