<?xml version="1.0" standalone="no"?>
 <!DOCTYPE svg PUBLIC "-//W3C//DTD SVG 1.1//EN" 
 "http://www.w3.org/Graphics/SVG/1.1/DTD/svg11.dtd"> 
<svg
  xmlns:svg="http://www.w3.org/2000/svg"
  xmlns="http://www.w3.org/2000/svg"
  xmlns:xlink="http://www.w3.org/1999/xlink"
  version="1.1"
  width="51.1048mm" height="9.6520mm" viewBox="0.0000 0.0000 51.1048 9.6520">
<title>SVG Image created as Samtec_T1M-20-X-S-RA_1x20-1MP_P1.0mm_Terminal_Horizontal.svg date 2024/01/16 15:06:25 </title>
  <desc>Image generated by PCBNEW </desc>
<g style="fill:#000000; fill-opacity:1.0000;stroke:#000000; stroke-opacity:1.0000;
stroke-linecap:round; stroke-linejoin:round;"
 transform="translate(0 0) scale(1 1)">
</g>
<g style="fill:#000000; fill-opacity:0.0; 
stroke:#000000; stroke-width:0.0000; stroke-opacity:1; 
stroke-linecap:round; stroke-linejoin:round;">
</g>
<g style="fill:#000000; fill-opacity:1.0000; 
stroke:#000000; stroke-width:0.0212; stroke-opacity:1; 
stroke-linecap:round; stroke-linejoin:round;">
<rect x="-5.000000" y="-5.000000" width="61.107145" height="19.656500" rx="0.000000" />
</g>
<g style="fill:#FFFFFF; fill-opacity:1.0000; 
stroke:#FFFFFF; stroke-width:0.0212; stroke-opacity:1; 
stroke-linecap:round; stroke-linejoin:round;">
<g >
</g>
<g >
</g>
<g >
</g>
<g >
</g>
</g>
<g style="fill:#FFFFFF; fill-opacity:1.0000; 
stroke:#FFFFFF; stroke-width:0.0212; stroke-opacity:1; 
stroke-linecap:round; stroke-linejoin:round;">
<g >
</g>
<g >
</g>
<g >
</g>
<g >
</g>
</g>
<g style="fill:#FFFFFF; fill-opacity:1.0000; 
stroke:#FFFFFF; stroke-width:0.0212; stroke-opacity:1; 
stroke-linecap:round; stroke-linejoin:round;">
<g >
</g>
<g >
</g>
<g >
</g>
<g >
</g>
</g>
<g style="fill:#FFFFFF; fill-opacity:1.0000; 
stroke:#FFFFFF; stroke-width:0.0212; stroke-opacity:1; 
stroke-linecap:round; stroke-linejoin:round;">
<g >
</g>
<g >
</g>
<g >
</g>
<g >
</g>
</g>
<g style="fill:#FFFFFF; fill-opacity:1.0000; 
stroke:#FFFFFF; stroke-width:0.0212; stroke-opacity:1; 
stroke-linecap:round; stroke-linejoin:round;">
<g >
</g>
<g >
</g>
<g >
</g>
<g >
</g>
</g>
<g style="fill:#FFFFFF; fill-opacity:1.0000; 
stroke:#FFFFFF; stroke-width:0.0212; stroke-opacity:1; 
stroke-linecap:round; stroke-linejoin:round;">
<g >
</g>
<g >
</g>
<g >
</g>
<g >
</g>
</g>
<g style="fill:#FFFFFF; fill-opacity:1.0000; 
stroke:#FFFFFF; stroke-width:0.0212; stroke-opacity:1; 
stroke-linecap:round; stroke-linejoin:round;">
<g >
</g>
<g >
</g>
<g >
</g>
<g >
</g>
</g>
<g style="fill:#FFFFFF; fill-opacity:1.0000; 
stroke:#FFFFFF; stroke-width:0.0212; stroke-opacity:1; 
stroke-linecap:round; stroke-linejoin:round;">
<g >
</g>
<g >
</g>
<g >
</g>
<g >
</g>
</g>
<g style="fill:#FFFFFF; fill-opacity:1.0000; 
stroke:#FFFFFF; stroke-width:0.0212; stroke-opacity:1; 
stroke-linecap:round; stroke-linejoin:round;">
<g >
</g>
<g >
</g>
<g >
</g>
<g >
</g>
</g>
<g style="fill:#FFFFFF; fill-opacity:1.0000; 
stroke:#FFFFFF; stroke-width:0.0212; stroke-opacity:1; 
stroke-linecap:round; stroke-linejoin:round;">
<g >
</g>
<g >
</g>
<g >
</g>
<g >
</g>
</g>
<g style="fill:#FFFFFF; fill-opacity:1.0000; 
stroke:#FFFFFF; stroke-width:0.0212; stroke-opacity:1; 
stroke-linecap:round; stroke-linejoin:round;">
<g >
</g>
<g >
</g>
<g >
</g>
<g >
</g>
</g>
<g style="fill:#FFFFFF; fill-opacity:1.0000; 
stroke:#FFFFFF; stroke-width:0.0212; stroke-opacity:1; 
stroke-linecap:round; stroke-linejoin:round;">
<g >
</g>
<g >
</g>
<g >
</g>
<g >
</g>
</g>
<g style="fill:#FFFFFF; fill-opacity:1.0000; 
stroke:#FFFFFF; stroke-width:0.0212; stroke-opacity:1; 
stroke-linecap:round; stroke-linejoin:round;">
<g >
</g>
<g >
</g>
<g >
</g>
<g >
</g>
</g>
<g style="fill:#FFFFFF; fill-opacity:1.0000; 
stroke:#FFFFFF; stroke-width:0.0212; stroke-opacity:1; 
stroke-linecap:round; stroke-linejoin:round;">
<g >
</g>
<g >
</g>
<g >
</g>
<g >
</g>
</g>
<g style="fill:#FFFFFF; fill-opacity:1.0000; 
stroke:#FFFFFF; stroke-width:0.0212; stroke-opacity:1; 
stroke-linecap:round; stroke-linejoin:round;">
<g >
</g>
<g >
</g>
<g >
</g>
<g >
</g>
</g>
<g style="fill:#FFFFFF; fill-opacity:1.0000; 
stroke:#FFFFFF; stroke-width:0.0212; stroke-opacity:1; 
stroke-linecap:round; stroke-linejoin:round;">
<g >
</g>
<g >
</g>
<g >
</g>
<g >
</g>
</g>
<g style="fill:#FFFFFF; fill-opacity:1.0000; 
stroke:#FFFFFF; stroke-width:0.0212; stroke-opacity:1; 
stroke-linecap:round; stroke-linejoin:round;">
<g >
</g>
<g >
</g>
<g >
</g>
<g >
</g>
</g>
<g style="fill:#FFFFFF; fill-opacity:1.0000; 
stroke:#FFFFFF; stroke-width:0.0212; stroke-opacity:1; 
stroke-linecap:round; stroke-linejoin:round;">
<g >
</g>
<g >
</g>
<g >
</g>
<g >
</g>
</g>
<g style="fill:#FFFFFF; fill-opacity:1.0000; 
stroke:#FFFFFF; stroke-width:0.0212; stroke-opacity:1; 
stroke-linecap:round; stroke-linejoin:round;">
<g >
</g>
<g >
</g>
<g >
</g>
<g >
</g>
</g>
<g style="fill:#FFFFFF; fill-opacity:1.0000; 
stroke:#FFFFFF; stroke-width:0.0212; stroke-opacity:1; 
stroke-linecap:round; stroke-linejoin:round;">
<g >
</g>
<g >
</g>
<g >
</g>
<g >
</g>
</g>
<g style="fill:#FFFFFF; fill-opacity:1.0000; 
stroke:#FFFFFF; stroke-width:0.0212; stroke-opacity:1; 
stroke-linecap:round; stroke-linejoin:round;">
<g >
</g>
<g >
</g>
<g >
</g>
<g >
</g>
</g>
<g style="fill:#FFFFFF; fill-opacity:1.0000; 
stroke:#FFFFFF; stroke-width:0.0212; stroke-opacity:1; 
stroke-linecap:round; stroke-linejoin:round;">
<g >
</g>
<g >
</g>
<g >
</g>
<g >
</g>
</g>
<g style="fill:#FFFFFF; fill-opacity:1.0000; 
stroke:#FFFFFF; stroke-width:0.0212; stroke-opacity:1; 
stroke-linecap:round; stroke-linejoin:round;">
<g >
</g>
<g >
</g>
<g >
</g>
<g >
</g>
</g>
<g style="fill:#FFFFFF; fill-opacity:1.0000; 
stroke:#FFFFFF; stroke-width:0.0212; stroke-opacity:1; 
stroke-linecap:round; stroke-linejoin:round;">
<g >
</g>
<g >
</g>
<g >
</g>
<g >
</g>
</g>
<g style="fill:#FFFFFF; fill-opacity:1.0000; 
stroke:#FFFFFF; stroke-width:0.0212; stroke-opacity:1; 
stroke-linecap:round; stroke-linejoin:round;">
<g >
</g>
<g >
</g>
<g >
</g>
<g >
</g>
</g>
<g style="fill:#FFFFFF; fill-opacity:1.0000; 
stroke:#FFFFFF; stroke-width:0.0212; stroke-opacity:1; 
stroke-linecap:round; stroke-linejoin:round;">
<g >
</g>
<g >
</g>
<g >
</g>
<g >
</g>
</g>
<g style="fill:#FFFFFF; fill-opacity:1.0000; 
stroke:#FFFFFF; stroke-width:0.0212; stroke-opacity:1; 
stroke-linecap:round; stroke-linejoin:round;">
<g >
</g>
<g >
</g>
<g >
</g>
<g >
</g>
</g>
<g style="fill:#FFFFFF; fill-opacity:1.0000; 
stroke:#FFFFFF; stroke-width:0.0212; stroke-opacity:1; 
stroke-linecap:round; stroke-linejoin:round;">
<g >
</g>
<g >
</g>
<g >
</g>
<g >
</g>
</g>
<g style="fill:#FFFFFF; fill-opacity:1.0000; 
stroke:#FFFFFF; stroke-width:0.0212; stroke-opacity:1; 
stroke-linecap:round; stroke-linejoin:round;">
<g >
</g>
<g >
</g>
<g >
</g>
<g >
</g>
</g>
<g style="fill:#FFFFFF; fill-opacity:1.0000; 
stroke:#FFFFFF; stroke-width:0.0212; stroke-opacity:1; 
stroke-linecap:round; stroke-linejoin:round;">
<g >
</g>
<g >
</g>
<g >
</g>
<g >
</g>
</g>
<g style="fill:#FFFFFF; fill-opacity:1.0000; 
stroke:#FFFFFF; stroke-width:0.0212; stroke-opacity:1; 
stroke-linecap:round; stroke-linejoin:round;">
<g >
</g>
<g >
</g>
<g >
</g>
<g >
</g>
</g>
<g style="fill:#FFFFFF; fill-opacity:1.0000; 
stroke:#FFFFFF; stroke-width:0.0212; stroke-opacity:1; 
stroke-linecap:round; stroke-linejoin:round;">
<g >
</g>
<g >
</g>
<g >
</g>
<g >
</g>
</g>
<g style="fill:#FFFFFF; fill-opacity:1.0000; 
stroke:#FFFFFF; stroke-width:0.0212; stroke-opacity:1; 
stroke-linecap:round; stroke-linejoin:round;">
<g >
</g>
<g >
</g>
<g >
</g>
<g >
</g>
</g>
<g style="fill:#FFFFFF; fill-opacity:1.0000; 
stroke:#FFFFFF; stroke-width:0.0212; stroke-opacity:1; 
stroke-linecap:round; stroke-linejoin:round;">
<g >
</g>
<g style="fill:#37CBCB; fill-opacity:1.0000; 
stroke:#37CBCB; stroke-width:0.0212; stroke-opacity:1; 
stroke-linecap:round; stroke-linejoin:round;">
</g>
<g style="fill:#37CBCB; fill-opacity:1.0000; 
stroke:#37CBCB; stroke-width:0.0000; stroke-opacity:1; 
stroke-linecap:round; stroke-linejoin:round;">
<path style="fill:#37CBCB; fill-opacity:1.0000; 
stroke:#37CBCB; stroke-width:0.0000; stroke-opacity:1; 
stroke-linecap:round; stroke-linejoin:round;fill-rule:evenodd;"
d="M 15.7536,2.2032
15.7650,2.1458
15.7975,2.0972
15.8462,2.0647
15.9036,2.0532
16.2036,2.0532
16.2610,2.0647
16.3096,2.0972
16.3422,2.1458
16.3536,2.2032
16.3536,3.4532
16.3422,3.5107
16.3096,3.5593
16.2610,3.5918
16.2036,3.6032
15.9036,3.6032
15.8462,3.5918
15.7975,3.5593
15.7650,3.5107
15.7536,3.4532
Z" /> 
<path style="fill:#37CBCB; fill-opacity:1.0000; 
stroke:#37CBCB; stroke-width:0.0000; stroke-opacity:1; 
stroke-linecap:round; stroke-linejoin:round;fill-rule:evenodd;"
d="M 16.7536,2.2032
16.7650,2.1458
16.7975,2.0972
16.8462,2.0647
16.9036,2.0532
17.2036,2.0532
17.2610,2.0647
17.3096,2.0972
17.3422,2.1458
17.3536,2.2032
17.3536,3.4532
17.3422,3.5107
17.3096,3.5593
17.2610,3.5918
17.2036,3.6032
16.9036,3.6032
16.8462,3.5918
16.7975,3.5593
16.7650,3.5107
16.7536,3.4532
Z" /> 
<path style="fill:#37CBCB; fill-opacity:1.0000; 
stroke:#37CBCB; stroke-width:0.0000; stroke-opacity:1; 
stroke-linecap:round; stroke-linejoin:round;fill-rule:evenodd;"
d="M 17.7536,2.2032
17.7650,2.1458
17.7975,2.0972
17.8462,2.0647
17.9036,2.0532
18.2036,2.0532
18.2610,2.0647
18.3096,2.0972
18.3422,2.1458
18.3536,2.2032
18.3536,3.4532
18.3422,3.5107
18.3096,3.5593
18.2610,3.5918
18.2036,3.6032
17.9036,3.6032
17.8462,3.5918
17.7975,3.5593
17.7650,3.5107
17.7536,3.4532
Z" /> 
<path style="fill:#37CBCB; fill-opacity:1.0000; 
stroke:#37CBCB; stroke-width:0.0000; stroke-opacity:1; 
stroke-linecap:round; stroke-linejoin:round;fill-rule:evenodd;"
d="M 18.7536,2.2032
18.7650,2.1458
18.7975,2.0972
18.8462,2.0647
18.9036,2.0532
19.2036,2.0532
19.2610,2.0647
19.3096,2.0972
19.3422,2.1458
19.3536,2.2032
19.3536,3.4532
19.3422,3.5107
19.3096,3.5593
19.2610,3.5918
19.2036,3.6032
18.9036,3.6032
18.8462,3.5918
18.7975,3.5593
18.7650,3.5107
18.7536,3.4532
Z" /> 
<path style="fill:#37CBCB; fill-opacity:1.0000; 
stroke:#37CBCB; stroke-width:0.0000; stroke-opacity:1; 
stroke-linecap:round; stroke-linejoin:round;fill-rule:evenodd;"
d="M 19.7536,2.2032
19.7650,2.1458
19.7975,2.0972
19.8462,2.0647
19.9036,2.0532
20.2036,2.0532
20.2610,2.0647
20.3096,2.0972
20.3422,2.1458
20.3536,2.2032
20.3536,3.4532
20.3422,3.5107
20.3096,3.5593
20.2610,3.5918
20.2036,3.6032
19.9036,3.6032
19.8462,3.5918
19.7975,3.5593
19.7650,3.5107
19.7536,3.4532
Z" /> 
<path style="fill:#37CBCB; fill-opacity:1.0000; 
stroke:#37CBCB; stroke-width:0.0000; stroke-opacity:1; 
stroke-linecap:round; stroke-linejoin:round;fill-rule:evenodd;"
d="M 20.7536,2.2032
20.7650,2.1458
20.7975,2.0972
20.8462,2.0647
20.9036,2.0532
21.2036,2.0532
21.2610,2.0647
21.3096,2.0972
21.3422,2.1458
21.3536,2.2032
21.3536,3.4532
21.3422,3.5107
21.3096,3.5593
21.2610,3.5918
21.2036,3.6032
20.9036,3.6032
20.8462,3.5918
20.7975,3.5593
20.7650,3.5107
20.7536,3.4532
Z" /> 
<path style="fill:#37CBCB; fill-opacity:1.0000; 
stroke:#37CBCB; stroke-width:0.0000; stroke-opacity:1; 
stroke-linecap:round; stroke-linejoin:round;fill-rule:evenodd;"
d="M 21.7536,2.2032
21.7650,2.1458
21.7975,2.0972
21.8462,2.0647
21.9036,2.0532
22.2036,2.0532
22.2610,2.0647
22.3096,2.0972
22.3422,2.1458
22.3536,2.2032
22.3536,3.4532
22.3422,3.5107
22.3096,3.5593
22.2610,3.5918
22.2036,3.6032
21.9036,3.6032
21.8462,3.5918
21.7975,3.5593
21.7650,3.5107
21.7536,3.4532
Z" /> 
<path style="fill:#37CBCB; fill-opacity:1.0000; 
stroke:#37CBCB; stroke-width:0.0000; stroke-opacity:1; 
stroke-linecap:round; stroke-linejoin:round;fill-rule:evenodd;"
d="M 22.7536,2.2032
22.7650,2.1458
22.7975,2.0972
22.8462,2.0647
22.9036,2.0532
23.2036,2.0532
23.2610,2.0647
23.3096,2.0972
23.3422,2.1458
23.3536,2.2032
23.3536,3.4532
23.3422,3.5107
23.3096,3.5593
23.2610,3.5918
23.2036,3.6032
22.9036,3.6032
22.8462,3.5918
22.7975,3.5593
22.7650,3.5107
22.7536,3.4532
Z" /> 
<path style="fill:#37CBCB; fill-opacity:1.0000; 
stroke:#37CBCB; stroke-width:0.0000; stroke-opacity:1; 
stroke-linecap:round; stroke-linejoin:round;fill-rule:evenodd;"
d="M 23.7536,2.2032
23.7650,2.1458
23.7975,2.0972
23.8462,2.0647
23.9036,2.0532
24.2036,2.0532
24.2610,2.0647
24.3096,2.0972
24.3422,2.1458
24.3536,2.2032
24.3536,3.4532
24.3422,3.5107
24.3096,3.5593
24.2610,3.5918
24.2036,3.6032
23.9036,3.6032
23.8462,3.5918
23.7975,3.5593
23.7650,3.5107
23.7536,3.4532
Z" /> 
<path style="fill:#37CBCB; fill-opacity:1.0000; 
stroke:#37CBCB; stroke-width:0.0000; stroke-opacity:1; 
stroke-linecap:round; stroke-linejoin:round;fill-rule:evenodd;"
d="M 24.7536,2.2032
24.7650,2.1458
24.7975,2.0972
24.8462,2.0647
24.9036,2.0532
25.2036,2.0532
25.2610,2.0647
25.3096,2.0972
25.3422,2.1458
25.3536,2.2032
25.3536,3.4532
25.3422,3.5107
25.3096,3.5593
25.2610,3.5918
25.2036,3.6032
24.9036,3.6032
24.8462,3.5918
24.7975,3.5593
24.7650,3.5107
24.7536,3.4532
Z" /> 
<path style="fill:#37CBCB; fill-opacity:1.0000; 
stroke:#37CBCB; stroke-width:0.0000; stroke-opacity:1; 
stroke-linecap:round; stroke-linejoin:round;fill-rule:evenodd;"
d="M 25.7536,2.2032
25.7650,2.1458
25.7975,2.0972
25.8462,2.0647
25.9036,2.0532
26.2036,2.0532
26.2610,2.0647
26.3096,2.0972
26.3422,2.1458
26.3536,2.2032
26.3536,3.4532
26.3422,3.5107
26.3096,3.5593
26.2610,3.5918
26.2036,3.6032
25.9036,3.6032
25.8462,3.5918
25.7975,3.5593
25.7650,3.5107
25.7536,3.4532
Z" /> 
<path style="fill:#37CBCB; fill-opacity:1.0000; 
stroke:#37CBCB; stroke-width:0.0000; stroke-opacity:1; 
stroke-linecap:round; stroke-linejoin:round;fill-rule:evenodd;"
d="M 26.7536,2.2032
26.7650,2.1458
26.7975,2.0972
26.8462,2.0647
26.9036,2.0532
27.2036,2.0532
27.2610,2.0647
27.3096,2.0972
27.3422,2.1458
27.3536,2.2032
27.3536,3.4532
27.3422,3.5107
27.3096,3.5593
27.2610,3.5918
27.2036,3.6032
26.9036,3.6032
26.8462,3.5918
26.7975,3.5593
26.7650,3.5107
26.7536,3.4532
Z" /> 
<path style="fill:#37CBCB; fill-opacity:1.0000; 
stroke:#37CBCB; stroke-width:0.0000; stroke-opacity:1; 
stroke-linecap:round; stroke-linejoin:round;fill-rule:evenodd;"
d="M 27.7536,2.2032
27.7650,2.1458
27.7975,2.0972
27.8462,2.0647
27.9036,2.0532
28.2036,2.0532
28.2610,2.0647
28.3096,2.0972
28.3422,2.1458
28.3536,2.2032
28.3536,3.4532
28.3422,3.5107
28.3096,3.5593
28.2610,3.5918
28.2036,3.6032
27.9036,3.6032
27.8462,3.5918
27.7975,3.5593
27.7650,3.5107
27.7536,3.4532
Z" /> 
<path style="fill:#37CBCB; fill-opacity:1.0000; 
stroke:#37CBCB; stroke-width:0.0000; stroke-opacity:1; 
stroke-linecap:round; stroke-linejoin:round;fill-rule:evenodd;"
d="M 28.7536,2.2032
28.7650,2.1458
28.7975,2.0972
28.8462,2.0647
28.9036,2.0532
29.2036,2.0532
29.2610,2.0647
29.3096,2.0972
29.3422,2.1458
29.3536,2.2032
29.3536,3.4532
29.3422,3.5107
29.3096,3.5593
29.2610,3.5918
29.2036,3.6032
28.9036,3.6032
28.8462,3.5918
28.7975,3.5593
28.7650,3.5107
28.7536,3.4532
Z" /> 
<path style="fill:#37CBCB; fill-opacity:1.0000; 
stroke:#37CBCB; stroke-width:0.0000; stroke-opacity:1; 
stroke-linecap:round; stroke-linejoin:round;fill-rule:evenodd;"
d="M 29.7536,2.2032
29.7650,2.1458
29.7975,2.0972
29.8462,2.0647
29.9036,2.0532
30.2036,2.0532
30.2610,2.0647
30.3096,2.0972
30.3422,2.1458
30.3536,2.2032
30.3536,3.4532
30.3422,3.5107
30.3096,3.5593
30.2610,3.5918
30.2036,3.6032
29.9036,3.6032
29.8462,3.5918
29.7975,3.5593
29.7650,3.5107
29.7536,3.4532
Z" /> 
<path style="fill:#37CBCB; fill-opacity:1.0000; 
stroke:#37CBCB; stroke-width:0.0000; stroke-opacity:1; 
stroke-linecap:round; stroke-linejoin:round;fill-rule:evenodd;"
d="M 30.7536,2.2032
30.7650,2.1458
30.7975,2.0972
30.8462,2.0647
30.9036,2.0532
31.2036,2.0532
31.2610,2.0647
31.3096,2.0972
31.3422,2.1458
31.3536,2.2032
31.3536,3.4532
31.3422,3.5107
31.3096,3.5593
31.2610,3.5918
31.2036,3.6032
30.9036,3.6032
30.8462,3.5918
30.7975,3.5593
30.7650,3.5107
30.7536,3.4532
Z" /> 
<path style="fill:#37CBCB; fill-opacity:1.0000; 
stroke:#37CBCB; stroke-width:0.0000; stroke-opacity:1; 
stroke-linecap:round; stroke-linejoin:round;fill-rule:evenodd;"
d="M 31.7536,2.2032
31.7650,2.1458
31.7975,2.0972
31.8462,2.0647
31.9036,2.0532
32.2036,2.0532
32.2610,2.0647
32.3096,2.0972
32.3422,2.1458
32.3536,2.2032
32.3536,3.4532
32.3422,3.5107
32.3096,3.5593
32.2610,3.5918
32.2036,3.6032
31.9036,3.6032
31.8462,3.5918
31.7975,3.5593
31.7650,3.5107
31.7536,3.4532
Z" /> 
<path style="fill:#37CBCB; fill-opacity:1.0000; 
stroke:#37CBCB; stroke-width:0.0000; stroke-opacity:1; 
stroke-linecap:round; stroke-linejoin:round;fill-rule:evenodd;"
d="M 32.7536,2.2032
32.7650,2.1458
32.7975,2.0972
32.8462,2.0647
32.9036,2.0532
33.2036,2.0532
33.2610,2.0647
33.3096,2.0972
33.3422,2.1458
33.3536,2.2032
33.3536,3.4532
33.3422,3.5107
33.3096,3.5593
33.2610,3.5918
33.2036,3.6032
32.9036,3.6032
32.8462,3.5918
32.7975,3.5593
32.7650,3.5107
32.7536,3.4532
Z" /> 
<path style="fill:#37CBCB; fill-opacity:1.0000; 
stroke:#37CBCB; stroke-width:0.0000; stroke-opacity:1; 
stroke-linecap:round; stroke-linejoin:round;fill-rule:evenodd;"
d="M 33.7536,2.2032
33.7650,2.1458
33.7975,2.0972
33.8462,2.0647
33.9036,2.0532
34.2036,2.0532
34.2610,2.0647
34.3096,2.0972
34.3422,2.1458
34.3536,2.2032
34.3536,3.4532
34.3422,3.5107
34.3096,3.5593
34.2610,3.5918
34.2036,3.6032
33.9036,3.6032
33.8462,3.5918
33.7975,3.5593
33.7650,3.5107
33.7536,3.4532
Z" /> 
<path style="fill:#37CBCB; fill-opacity:1.0000; 
stroke:#37CBCB; stroke-width:0.0000; stroke-opacity:1; 
stroke-linecap:round; stroke-linejoin:round;fill-rule:evenodd;"
d="M 34.7536,2.2032
34.7650,2.1458
34.7975,2.0972
34.8462,2.0647
34.9036,2.0532
35.2036,2.0532
35.2610,2.0647
35.3096,2.0972
35.3422,2.1458
35.3536,2.2032
35.3536,3.4532
35.3422,3.5107
35.3096,3.5593
35.2610,3.5918
35.2036,3.6032
34.9036,3.6032
34.8462,3.5918
34.7975,3.5593
34.7650,3.5107
34.7536,3.4532
Z" /> 
<path style="fill:#37CBCB; fill-opacity:1.0000; 
stroke:#37CBCB; stroke-width:0.0000; stroke-opacity:1; 
stroke-linecap:round; stroke-linejoin:round;fill-rule:evenodd;"
d="M 14.3536,6.0032
14.3688,5.9267
14.4122,5.8618
14.4770,5.8185
14.5536,5.8032
14.9536,5.8032
15.0301,5.8185
15.0950,5.8618
15.1383,5.9267
15.1536,6.0032
15.1536,7.4032
15.1383,7.4798
15.0950,7.5447
15.0301,7.5880
14.9536,7.6033
14.5536,7.6033
14.4770,7.5880
14.4122,7.5447
14.3688,7.4798
14.3536,7.4032
Z" /> 
<path style="fill:#37CBCB; fill-opacity:1.0000; 
stroke:#37CBCB; stroke-width:0.0000; stroke-opacity:1; 
stroke-linecap:round; stroke-linejoin:round;fill-rule:evenodd;"
d="M 35.9536,6.0032
35.9688,5.9267
36.0122,5.8618
36.0770,5.8185
36.1536,5.8032
36.5536,5.8032
36.6301,5.8185
36.6950,5.8618
36.7383,5.9267
36.7536,6.0032
36.7536,7.4032
36.7383,7.4798
36.6950,7.5447
36.6301,7.5880
36.5536,7.6033
36.1536,7.6033
36.0770,7.5880
36.0122,7.5447
35.9688,7.4798
35.9536,7.4032
Z" /> 
</g>
<g >
</g>
<g >
</g>
<g >
</g>
</g>
<g style="fill:#FFFFFF; fill-opacity:1.0000; 
stroke:#FFFFFF; stroke-width:0.0000; stroke-opacity:1; 
stroke-linecap:round; stroke-linejoin:round;">
<g >
</g>
<g style="fill:#4A5F65; fill-opacity:0.9000; 
stroke:#4A5F65; stroke-width:0.0000; stroke-opacity:1; 
stroke-linecap:round; stroke-linejoin:round;">
<path style="fill:#4A5F65; fill-opacity:0.9000; 
stroke:#4A5F65; stroke-width:0.0000; stroke-opacity:1; 
stroke-linecap:round; stroke-linejoin:round;fill-rule:evenodd;"
d="M 15.7536,2.2032
15.7650,2.1458
15.7975,2.0972
15.8462,2.0647
15.9036,2.0532
16.2036,2.0532
16.2610,2.0647
16.3096,2.0972
16.3422,2.1458
16.3536,2.2032
16.3536,3.4532
16.3422,3.5107
16.3096,3.5593
16.2610,3.5918
16.2036,3.6032
15.9036,3.6032
15.8462,3.5918
15.7975,3.5593
15.7650,3.5107
15.7536,3.4532
Z" /> 
<path style="fill:#4A5F65; fill-opacity:0.9000; 
stroke:#4A5F65; stroke-width:0.0000; stroke-opacity:1; 
stroke-linecap:round; stroke-linejoin:round;fill-rule:evenodd;"
d="M 16.7536,2.2032
16.7650,2.1458
16.7975,2.0972
16.8462,2.0647
16.9036,2.0532
17.2036,2.0532
17.2610,2.0647
17.3096,2.0972
17.3422,2.1458
17.3536,2.2032
17.3536,3.4532
17.3422,3.5107
17.3096,3.5593
17.2610,3.5918
17.2036,3.6032
16.9036,3.6032
16.8462,3.5918
16.7975,3.5593
16.7650,3.5107
16.7536,3.4532
Z" /> 
<path style="fill:#4A5F65; fill-opacity:0.9000; 
stroke:#4A5F65; stroke-width:0.0000; stroke-opacity:1; 
stroke-linecap:round; stroke-linejoin:round;fill-rule:evenodd;"
d="M 17.7536,2.2032
17.7650,2.1458
17.7975,2.0972
17.8462,2.0647
17.9036,2.0532
18.2036,2.0532
18.2610,2.0647
18.3096,2.0972
18.3422,2.1458
18.3536,2.2032
18.3536,3.4532
18.3422,3.5107
18.3096,3.5593
18.2610,3.5918
18.2036,3.6032
17.9036,3.6032
17.8462,3.5918
17.7975,3.5593
17.7650,3.5107
17.7536,3.4532
Z" /> 
<path style="fill:#4A5F65; fill-opacity:0.9000; 
stroke:#4A5F65; stroke-width:0.0000; stroke-opacity:1; 
stroke-linecap:round; stroke-linejoin:round;fill-rule:evenodd;"
d="M 18.7536,2.2032
18.7650,2.1458
18.7975,2.0972
18.8462,2.0647
18.9036,2.0532
19.2036,2.0532
19.2610,2.0647
19.3096,2.0972
19.3422,2.1458
19.3536,2.2032
19.3536,3.4532
19.3422,3.5107
19.3096,3.5593
19.2610,3.5918
19.2036,3.6032
18.9036,3.6032
18.8462,3.5918
18.7975,3.5593
18.7650,3.5107
18.7536,3.4532
Z" /> 
<path style="fill:#4A5F65; fill-opacity:0.9000; 
stroke:#4A5F65; stroke-width:0.0000; stroke-opacity:1; 
stroke-linecap:round; stroke-linejoin:round;fill-rule:evenodd;"
d="M 19.7536,2.2032
19.7650,2.1458
19.7975,2.0972
19.8462,2.0647
19.9036,2.0532
20.2036,2.0532
20.2610,2.0647
20.3096,2.0972
20.3422,2.1458
20.3536,2.2032
20.3536,3.4532
20.3422,3.5107
20.3096,3.5593
20.2610,3.5918
20.2036,3.6032
19.9036,3.6032
19.8462,3.5918
19.7975,3.5593
19.7650,3.5107
19.7536,3.4532
Z" /> 
<path style="fill:#4A5F65; fill-opacity:0.9000; 
stroke:#4A5F65; stroke-width:0.0000; stroke-opacity:1; 
stroke-linecap:round; stroke-linejoin:round;fill-rule:evenodd;"
d="M 20.7536,2.2032
20.7650,2.1458
20.7975,2.0972
20.8462,2.0647
20.9036,2.0532
21.2036,2.0532
21.2610,2.0647
21.3096,2.0972
21.3422,2.1458
21.3536,2.2032
21.3536,3.4532
21.3422,3.5107
21.3096,3.5593
21.2610,3.5918
21.2036,3.6032
20.9036,3.6032
20.8462,3.5918
20.7975,3.5593
20.7650,3.5107
20.7536,3.4532
Z" /> 
<path style="fill:#4A5F65; fill-opacity:0.9000; 
stroke:#4A5F65; stroke-width:0.0000; stroke-opacity:1; 
stroke-linecap:round; stroke-linejoin:round;fill-rule:evenodd;"
d="M 21.7536,2.2032
21.7650,2.1458
21.7975,2.0972
21.8462,2.0647
21.9036,2.0532
22.2036,2.0532
22.2610,2.0647
22.3096,2.0972
22.3422,2.1458
22.3536,2.2032
22.3536,3.4532
22.3422,3.5107
22.3096,3.5593
22.2610,3.5918
22.2036,3.6032
21.9036,3.6032
21.8462,3.5918
21.7975,3.5593
21.7650,3.5107
21.7536,3.4532
Z" /> 
<path style="fill:#4A5F65; fill-opacity:0.9000; 
stroke:#4A5F65; stroke-width:0.0000; stroke-opacity:1; 
stroke-linecap:round; stroke-linejoin:round;fill-rule:evenodd;"
d="M 22.7536,2.2032
22.7650,2.1458
22.7975,2.0972
22.8462,2.0647
22.9036,2.0532
23.2036,2.0532
23.2610,2.0647
23.3096,2.0972
23.3422,2.1458
23.3536,2.2032
23.3536,3.4532
23.3422,3.5107
23.3096,3.5593
23.2610,3.5918
23.2036,3.6032
22.9036,3.6032
22.8462,3.5918
22.7975,3.5593
22.7650,3.5107
22.7536,3.4532
Z" /> 
<path style="fill:#4A5F65; fill-opacity:0.9000; 
stroke:#4A5F65; stroke-width:0.0000; stroke-opacity:1; 
stroke-linecap:round; stroke-linejoin:round;fill-rule:evenodd;"
d="M 23.7536,2.2032
23.7650,2.1458
23.7975,2.0972
23.8462,2.0647
23.9036,2.0532
24.2036,2.0532
24.2610,2.0647
24.3096,2.0972
24.3422,2.1458
24.3536,2.2032
24.3536,3.4532
24.3422,3.5107
24.3096,3.5593
24.2610,3.5918
24.2036,3.6032
23.9036,3.6032
23.8462,3.5918
23.7975,3.5593
23.7650,3.5107
23.7536,3.4532
Z" /> 
<path style="fill:#4A5F65; fill-opacity:0.9000; 
stroke:#4A5F65; stroke-width:0.0000; stroke-opacity:1; 
stroke-linecap:round; stroke-linejoin:round;fill-rule:evenodd;"
d="M 24.7536,2.2032
24.7650,2.1458
24.7975,2.0972
24.8462,2.0647
24.9036,2.0532
25.2036,2.0532
25.2610,2.0647
25.3096,2.0972
25.3422,2.1458
25.3536,2.2032
25.3536,3.4532
25.3422,3.5107
25.3096,3.5593
25.2610,3.5918
25.2036,3.6032
24.9036,3.6032
24.8462,3.5918
24.7975,3.5593
24.7650,3.5107
24.7536,3.4532
Z" /> 
<path style="fill:#4A5F65; fill-opacity:0.9000; 
stroke:#4A5F65; stroke-width:0.0000; stroke-opacity:1; 
stroke-linecap:round; stroke-linejoin:round;fill-rule:evenodd;"
d="M 25.7536,2.2032
25.7650,2.1458
25.7975,2.0972
25.8462,2.0647
25.9036,2.0532
26.2036,2.0532
26.2610,2.0647
26.3096,2.0972
26.3422,2.1458
26.3536,2.2032
26.3536,3.4532
26.3422,3.5107
26.3096,3.5593
26.2610,3.5918
26.2036,3.6032
25.9036,3.6032
25.8462,3.5918
25.7975,3.5593
25.7650,3.5107
25.7536,3.4532
Z" /> 
<path style="fill:#4A5F65; fill-opacity:0.9000; 
stroke:#4A5F65; stroke-width:0.0000; stroke-opacity:1; 
stroke-linecap:round; stroke-linejoin:round;fill-rule:evenodd;"
d="M 26.7536,2.2032
26.7650,2.1458
26.7975,2.0972
26.8462,2.0647
26.9036,2.0532
27.2036,2.0532
27.2610,2.0647
27.3096,2.0972
27.3422,2.1458
27.3536,2.2032
27.3536,3.4532
27.3422,3.5107
27.3096,3.5593
27.2610,3.5918
27.2036,3.6032
26.9036,3.6032
26.8462,3.5918
26.7975,3.5593
26.7650,3.5107
26.7536,3.4532
Z" /> 
<path style="fill:#4A5F65; fill-opacity:0.9000; 
stroke:#4A5F65; stroke-width:0.0000; stroke-opacity:1; 
stroke-linecap:round; stroke-linejoin:round;fill-rule:evenodd;"
d="M 27.7536,2.2032
27.7650,2.1458
27.7975,2.0972
27.8462,2.0647
27.9036,2.0532
28.2036,2.0532
28.2610,2.0647
28.3096,2.0972
28.3422,2.1458
28.3536,2.2032
28.3536,3.4532
28.3422,3.5107
28.3096,3.5593
28.2610,3.5918
28.2036,3.6032
27.9036,3.6032
27.8462,3.5918
27.7975,3.5593
27.7650,3.5107
27.7536,3.4532
Z" /> 
<path style="fill:#4A5F65; fill-opacity:0.9000; 
stroke:#4A5F65; stroke-width:0.0000; stroke-opacity:1; 
stroke-linecap:round; stroke-linejoin:round;fill-rule:evenodd;"
d="M 28.7536,2.2032
28.7650,2.1458
28.7975,2.0972
28.8462,2.0647
28.9036,2.0532
29.2036,2.0532
29.2610,2.0647
29.3096,2.0972
29.3422,2.1458
29.3536,2.2032
29.3536,3.4532
29.3422,3.5107
29.3096,3.5593
29.2610,3.5918
29.2036,3.6032
28.9036,3.6032
28.8462,3.5918
28.7975,3.5593
28.7650,3.5107
28.7536,3.4532
Z" /> 
<path style="fill:#4A5F65; fill-opacity:0.9000; 
stroke:#4A5F65; stroke-width:0.0000; stroke-opacity:1; 
stroke-linecap:round; stroke-linejoin:round;fill-rule:evenodd;"
d="M 29.7536,2.2032
29.7650,2.1458
29.7975,2.0972
29.8462,2.0647
29.9036,2.0532
30.2036,2.0532
30.2610,2.0647
30.3096,2.0972
30.3422,2.1458
30.3536,2.2032
30.3536,3.4532
30.3422,3.5107
30.3096,3.5593
30.2610,3.5918
30.2036,3.6032
29.9036,3.6032
29.8462,3.5918
29.7975,3.5593
29.7650,3.5107
29.7536,3.4532
Z" /> 
<path style="fill:#4A5F65; fill-opacity:0.9000; 
stroke:#4A5F65; stroke-width:0.0000; stroke-opacity:1; 
stroke-linecap:round; stroke-linejoin:round;fill-rule:evenodd;"
d="M 30.7536,2.2032
30.7650,2.1458
30.7975,2.0972
30.8462,2.0647
30.9036,2.0532
31.2036,2.0532
31.2610,2.0647
31.3096,2.0972
31.3422,2.1458
31.3536,2.2032
31.3536,3.4532
31.3422,3.5107
31.3096,3.5593
31.2610,3.5918
31.2036,3.6032
30.9036,3.6032
30.8462,3.5918
30.7975,3.5593
30.7650,3.5107
30.7536,3.4532
Z" /> 
<path style="fill:#4A5F65; fill-opacity:0.9000; 
stroke:#4A5F65; stroke-width:0.0000; stroke-opacity:1; 
stroke-linecap:round; stroke-linejoin:round;fill-rule:evenodd;"
d="M 31.7536,2.2032
31.7650,2.1458
31.7975,2.0972
31.8462,2.0647
31.9036,2.0532
32.2036,2.0532
32.2610,2.0647
32.3096,2.0972
32.3422,2.1458
32.3536,2.2032
32.3536,3.4532
32.3422,3.5107
32.3096,3.5593
32.2610,3.5918
32.2036,3.6032
31.9036,3.6032
31.8462,3.5918
31.7975,3.5593
31.7650,3.5107
31.7536,3.4532
Z" /> 
<path style="fill:#4A5F65; fill-opacity:0.9000; 
stroke:#4A5F65; stroke-width:0.0000; stroke-opacity:1; 
stroke-linecap:round; stroke-linejoin:round;fill-rule:evenodd;"
d="M 32.7536,2.2032
32.7650,2.1458
32.7975,2.0972
32.8462,2.0647
32.9036,2.0532
33.2036,2.0532
33.2610,2.0647
33.3096,2.0972
33.3422,2.1458
33.3536,2.2032
33.3536,3.4532
33.3422,3.5107
33.3096,3.5593
33.2610,3.5918
33.2036,3.6032
32.9036,3.6032
32.8462,3.5918
32.7975,3.5593
32.7650,3.5107
32.7536,3.4532
Z" /> 
<path style="fill:#4A5F65; fill-opacity:0.9000; 
stroke:#4A5F65; stroke-width:0.0000; stroke-opacity:1; 
stroke-linecap:round; stroke-linejoin:round;fill-rule:evenodd;"
d="M 33.7536,2.2032
33.7650,2.1458
33.7975,2.0972
33.8462,2.0647
33.9036,2.0532
34.2036,2.0532
34.2610,2.0647
34.3096,2.0972
34.3422,2.1458
34.3536,2.2032
34.3536,3.4532
34.3422,3.5107
34.3096,3.5593
34.2610,3.5918
34.2036,3.6032
33.9036,3.6032
33.8462,3.5918
33.7975,3.5593
33.7650,3.5107
33.7536,3.4532
Z" /> 
<path style="fill:#4A5F65; fill-opacity:0.9000; 
stroke:#4A5F65; stroke-width:0.0000; stroke-opacity:1; 
stroke-linecap:round; stroke-linejoin:round;fill-rule:evenodd;"
d="M 34.7536,2.2032
34.7650,2.1458
34.7975,2.0972
34.8462,2.0647
34.9036,2.0532
35.2036,2.0532
35.2610,2.0647
35.3096,2.0972
35.3422,2.1458
35.3536,2.2032
35.3536,3.4532
35.3422,3.5107
35.3096,3.5593
35.2610,3.5918
35.2036,3.6032
34.9036,3.6032
34.8462,3.5918
34.7975,3.5593
34.7650,3.5107
34.7536,3.4532
Z" /> 
<path style="fill:#4A5F65; fill-opacity:0.9000; 
stroke:#4A5F65; stroke-width:0.0000; stroke-opacity:1; 
stroke-linecap:round; stroke-linejoin:round;fill-rule:evenodd;"
d="M 14.3536,6.0032
14.3688,5.9267
14.4122,5.8618
14.4770,5.8185
14.5536,5.8032
14.9536,5.8032
15.0301,5.8185
15.0950,5.8618
15.1383,5.9267
15.1536,6.0032
15.1536,7.4032
15.1383,7.4798
15.0950,7.5447
15.0301,7.5880
14.9536,7.6033
14.5536,7.6033
14.4770,7.5880
14.4122,7.5447
14.3688,7.4798
14.3536,7.4032
Z" /> 
<path style="fill:#4A5F65; fill-opacity:0.9000; 
stroke:#4A5F65; stroke-width:0.0000; stroke-opacity:1; 
stroke-linecap:round; stroke-linejoin:round;fill-rule:evenodd;"
d="M 35.9536,6.0032
35.9688,5.9267
36.0122,5.8618
36.0770,5.8185
36.1536,5.8032
36.5536,5.8032
36.6301,5.8185
36.6950,5.8618
36.7383,5.9267
36.7536,6.0032
36.7536,7.4032
36.7383,7.4798
36.6950,7.5447
36.6301,7.5880
36.5536,7.6033
36.1536,7.6033
36.0770,7.5880
36.0122,7.5447
35.9688,7.4798
35.9536,7.4032
Z" /> 
</g>
<g >
</g>
<g >
</g>
<g >
</g>
</g>
<g style="fill:#FFFFFF; fill-opacity:1.0000; 
stroke:#FFFFFF; stroke-width:0.0000; stroke-opacity:1; 
stroke-linecap:round; stroke-linejoin:round;">
</g>
<g style="fill:#0D115E; fill-opacity:1.0000; 
stroke:#0D115E; stroke-width:0.0000; stroke-opacity:1; 
stroke-linecap:round; stroke-linejoin:round;">
</g>
<g style="fill:#0D115E; fill-opacity:1.0000; 
stroke:#0D115E; stroke-width:0.1500; stroke-opacity:1; 
stroke-linecap:round; stroke-linejoin:round;">
</g>
<g style="fill:#0D115E; fill-opacity:0.0; 
stroke:#0D115E; stroke-width:0.1500; stroke-opacity:1; 
stroke-linecap:round; stroke-linejoin:round;">
<text x="25.5536" y="1.3482"
textLength="4.5357" font-size="1.3333" lengthAdjust="spacingAndGlyphs"
text-anchor="middle" opacity="0">REF**</text>
<g class="stroked-text"><desc>REF**</desc>
<path d="M24.2202 1.3031
L23.8869 0.8269
" />
<path d="M23.6488 1.3031
L23.6488 0.3031
" />
<path d="M23.6488 0.3031
L24.0298 0.3031
" />
<path d="M24.0298 0.3031
L24.1250 0.3507
" />
<path d="M24.1250 0.3507
L24.1726 0.3983
" />
<path d="M24.1726 0.3983
L24.2202 0.4935
" />
<path d="M24.2202 0.4935
L24.2202 0.6364
" />
<path d="M24.2202 0.6364
L24.1726 0.7316
" />
<path d="M24.1726 0.7316
L24.1250 0.7793
" />
<path d="M24.1250 0.7793
L24.0298 0.8269
" />
<path d="M24.0298 0.8269
L23.6488 0.8269
" />
<path d="M24.6488 0.7793
L24.9821 0.7793
" />
<path d="M25.1250 1.3031
L24.6488 1.3031
" />
<path d="M24.6488 1.3031
L24.6488 0.3031
" />
<path d="M24.6488 0.3031
L25.1250 0.3031
" />
<path d="M25.8869 0.7793
L25.5536 0.7793
" />
<path d="M25.5536 1.3031
L25.5536 0.3031
" />
<path d="M25.5536 0.3031
L26.0298 0.3031
" />
<path d="M26.5536 0.3031
L26.5536 0.5412
" />
<path d="M26.3155 0.4459
L26.5536 0.5412
" />
<path d="M26.5536 0.5412
L26.7917 0.4459
" />
<path d="M26.4107 0.7316
L26.5536 0.5412
" />
<path d="M26.5536 0.5412
L26.6964 0.7316
" />
<path d="M27.3155 0.3031
L27.3155 0.5412
" />
<path d="M27.0774 0.4459
L27.3155 0.5412
" />
<path d="M27.3155 0.5412
L27.5536 0.4459
" />
<path d="M27.1726 0.7316
L27.3155 0.5412
" />
<path d="M27.3155 0.5412
L27.4583 0.7316
" />
</g></g>
<g style="fill:#0D115E; fill-opacity:0.0; 
stroke:#0D115E; stroke-width:0.1200; stroke-opacity:1; 
stroke-linecap:round; stroke-linejoin:round;">
<path d="M14.4436 3.0932
L15.4936 3.0932
" />
<path d="M14.4436 5.5432
L14.4436 3.0932
" />
<path d="M15.7938 1.3282
L16.0536 1.7782
" />
<path d="M16.0536 1.7782
L16.3134 1.3282
" />
<path d="M16.0536 7.5132
L15.4136 7.5132
" />
<path d="M16.3134 1.3282
L15.7938 1.3282
" />
<path d="M35.0536 7.5132
L16.0536 7.5132
" />
<path d="M35.6136 3.0932
L36.6636 3.0932
" />
<path d="M35.6936 7.5132
L35.0536 7.5132
" />
<path d="M36.6636 3.0932
L36.6636 5.5432
" />
<g >
</g>
<g >
</g>
<g >
</g>
<g >
</g>
</g> 
</svg>
