<?xml version="1.0" standalone="no"?>
 <!DOCTYPE svg PUBLIC "-//W3C//DTD SVG 1.1//EN" 
 "http://www.w3.org/Graphics/SVG/1.1/DTD/svg11.dtd"> 
<svg
  xmlns:svg="http://www.w3.org/2000/svg"
  xmlns="http://www.w3.org/2000/svg"
  xmlns:xlink="http://www.w3.org/1999/xlink"
  version="1.1"
  width="127.6350mm" height="15.0876mm" viewBox="0.0000 0.0000 127.6350 15.0876">
<title>SVG Image created as ada4610-4xcp_2.svg date 2024/01/16 15:08:53 </title>
  <desc>Image generated by Eeschema-SVG </desc>
<g style="fill:#000000; fill-opacity:1.0000;stroke:#000000; stroke-opacity:1.0000;
stroke-linecap:round; stroke-linejoin:round;"
 transform="translate(0 0) scale(1 1)">
</g>
<g style="fill:#840000; fill-opacity:0.0; 
stroke:#840000; stroke-width:0.0000; stroke-opacity:1; 
stroke-linecap:round; stroke-linejoin:round;">
</g>
<g style="fill:#FFFFC2; fill-opacity:0.0; 
stroke:#FFFFC2; stroke-width:0.0000; stroke-opacity:1; 
stroke-linecap:round; stroke-linejoin:round;">
</g>
<g style="fill:#FFFFC2; fill-opacity:1.0000; 
stroke:#FFFFC2; stroke-width:0.0000; stroke-opacity:1; 
stroke-linecap:round; stroke-linejoin:round;">
<path style="fill:#FFFFC2; fill-opacity:1.0000; 
stroke:#FFFFC2; stroke-width:0.0000; stroke-opacity:1; 
stroke-linecap:round; stroke-linejoin:round;fill-rule:evenodd;"
d="M 58.7375,2.4638
58.7375,12.6238
68.8975,7.5438
Z" /> 
</g>
<g style="fill:#840084; fill-opacity:1.0000; 
stroke:#840084; stroke-width:0.0000; stroke-opacity:1; 
stroke-linecap:round; stroke-linejoin:round;">
</g>
<g style="fill:#840000; fill-opacity:1.0000; 
stroke:#840000; stroke-width:0.0000; stroke-opacity:1; 
stroke-linecap:round; stroke-linejoin:round;">
</g>
<g style="fill:#840000; fill-opacity:0.0; 
stroke:#840000; stroke-width:0.2540; stroke-opacity:1; 
stroke-linecap:round; stroke-linejoin:round;">
<path style="fill:#840000; fill-opacity:0.0; 
stroke:#840000; stroke-width:0.2540; stroke-opacity:1; 
stroke-linecap:round; stroke-linejoin:round;fill:none"
d="M 58.7375,2.4638
58.7375,12.6238
68.8975,7.5438
Z" /> 
</g>
<g style="fill:#840000; fill-opacity:0.0; 
stroke:#840000; stroke-width:0.1524; stroke-opacity:1; 
stroke-linecap:round; stroke-linejoin:round;">
<path d="M58.7375 5.0038
L56.1975 5.0038
" />
</g>
<g style="fill:#006464; fill-opacity:0.0; 
stroke:#006464; stroke-width:0.1524; stroke-opacity:1; 
stroke-linecap:round; stroke-linejoin:round;">
<text x="58.8645" y="5.6388"
textLength="1.7756" font-size="1.6933" lengthAdjust="spacingAndGlyphs"
text-anchor="start" opacity="0">+</text>
<g class="stroked-text"><desc>+</desc>
<path d="M59.2670 5.0995
L60.2347 5.0995
" />
<path d="M59.7508 5.5833
L59.7508 4.6157
" />
</g></g>
<g style="fill:#A90000; fill-opacity:0.0; 
stroke:#A90000; stroke-width:0.1524; stroke-opacity:1; 
stroke-linecap:round; stroke-linejoin:round;">
<text x="57.4675" y="4.7498"
textLength="1.4127" font-size="1.6933" lengthAdjust="spacingAndGlyphs"
text-anchor="middle" opacity="0">4</text>
<g class="stroked-text"><desc>4</desc>
<path d="M57.7094 3.7397
L57.7094 4.5863
" />
<path d="M57.4070 3.2559
L57.1047 4.1630
" />
<path d="M57.1047 4.1630
L57.8908 4.1630
" />
</g></g>
<g style="fill:#840000; fill-opacity:0.0; 
stroke:#840000; stroke-width:0.1524; stroke-opacity:1; 
stroke-linecap:round; stroke-linejoin:round;">
<path d="M58.7375 10.0838
L56.1975 10.0838
" />
</g>
<g style="fill:#006464; fill-opacity:0.0; 
stroke:#006464; stroke-width:0.1524; stroke-opacity:1; 
stroke-linecap:round; stroke-linejoin:round;">
<text x="58.8645" y="10.7188"
textLength="1.7756" font-size="1.6933" lengthAdjust="spacingAndGlyphs"
text-anchor="start" opacity="0">-</text>
<g class="stroked-text"><desc>-</desc>
<path d="M59.2670 10.1795
L60.2347 10.1795
" />
</g></g>
<g style="fill:#A90000; fill-opacity:0.0; 
stroke:#A90000; stroke-width:0.1524; stroke-opacity:1; 
stroke-linecap:round; stroke-linejoin:round;">
<text x="57.4675" y="9.8298"
textLength="1.4127" font-size="1.6933" lengthAdjust="spacingAndGlyphs"
text-anchor="middle" opacity="0">5</text>
<g class="stroked-text"><desc>5</desc>
<path d="M57.7699 8.3963
L57.1651 8.3963
" />
<path d="M57.1651 8.3963
L57.1047 9.0011
" />
<path d="M57.1047 9.0011
L57.1651 8.9406
" />
<path d="M57.1651 8.9406
L57.2861 8.8801
" />
<path d="M57.2861 8.8801
L57.5885 8.8801
" />
<path d="M57.5885 8.8801
L57.7094 8.9406
" />
<path d="M57.7094 8.9406
L57.7699 9.0011
" />
<path d="M57.7699 9.0011
L57.8304 9.1220
" />
<path d="M57.8304 9.1220
L57.8304 9.4244
" />
<path d="M57.8304 9.4244
L57.7699 9.5454
" />
<path d="M57.7699 9.5454
L57.7094 9.6059
" />
<path d="M57.7094 9.6059
L57.5885 9.6663
" />
<path d="M57.5885 9.6663
L57.2861 9.6663
" />
<path d="M57.2861 9.6663
L57.1651 9.6059
" />
<path d="M57.1651 9.6059
L57.1047 9.5454
" />
</g></g>
<g style="fill:#840000; fill-opacity:0.0; 
stroke:#840000; stroke-width:0.1524; stroke-opacity:1; 
stroke-linecap:round; stroke-linejoin:round;">
<path d="M68.8975 7.5438
L71.4375 7.5438
" />
</g>
<g style="fill:#A90000; fill-opacity:0.0; 
stroke:#A90000; stroke-width:0.1524; stroke-opacity:1; 
stroke-linecap:round; stroke-linejoin:round;">
<text x="70.1675" y="7.2898"
textLength="1.4127" font-size="1.6933" lengthAdjust="spacingAndGlyphs"
text-anchor="middle" opacity="0">6</text>
<g class="stroked-text"><desc>6</desc>
<path d="M70.4094 5.8563
L70.1675 5.8563
" />
<path d="M70.1675 5.8563
L70.0466 5.9168
" />
<path d="M70.0466 5.9168
L69.9861 5.9773
" />
<path d="M69.9861 5.9773
L69.8651 6.1587
" />
<path d="M69.8651 6.1587
L69.8047 6.4006
" />
<path d="M69.8047 6.4006
L69.8047 6.8844
" />
<path d="M69.8047 6.8844
L69.8651 7.0054
" />
<path d="M69.8651 7.0054
L69.9256 7.0659
" />
<path d="M69.9256 7.0659
L70.0466 7.1263
" />
<path d="M70.0466 7.1263
L70.2885 7.1263
" />
<path d="M70.2885 7.1263
L70.4094 7.0659
" />
<path d="M70.4094 7.0659
L70.4699 7.0054
" />
<path d="M70.4699 7.0054
L70.5304 6.8844
" />
<path d="M70.5304 6.8844
L70.5304 6.5820
" />
<path d="M70.5304 6.5820
L70.4699 6.4611
" />
<path d="M70.4699 6.4611
L70.4094 6.4006
" />
<path d="M70.4094 6.4006
L70.2885 6.3401
" />
<path d="M70.2885 6.3401
L70.0466 6.3401
" />
<path d="M70.0466 6.3401
L69.9256 6.4006
" />
<path d="M69.9256 6.4006
L69.8651 6.4611
" />
<path d="M69.8651 6.4611
L69.8047 6.5820
" />
</g></g>
<g style="fill:#840084; fill-opacity:0.0; 
stroke:#840084; stroke-width:0.1524; stroke-opacity:1; 
stroke-linecap:round; stroke-linejoin:round;">
</g>
<g style="fill:#006464; fill-opacity:0.0; 
stroke:#006464; stroke-width:0.1524; stroke-opacity:1; 
stroke-linecap:round; stroke-linejoin:round;">
</g>
<g style="fill:#006464; fill-opacity:0.0; 
stroke:#006464; stroke-width:0.1588; stroke-opacity:1; 
stroke-linecap:round; stroke-linejoin:round;">
<text x="68.3132" y="1.8288"
textLength="3.9115" font-size="1.6933" lengthAdjust="spacingAndGlyphs"
text-anchor="middle" opacity="0">U?B</text>
<g class="stroked-text"><desc>U?B</desc>
<path d="M66.7710 0.5030
L66.7710 1.5311
" />
<path d="M66.7710 1.5311
L66.8315 1.6521
" />
<path d="M66.8315 1.6521
L66.8920 1.7126
" />
<path d="M66.8920 1.7126
L67.0129 1.7730
" />
<path d="M67.0129 1.7730
L67.2548 1.7730
" />
<path d="M67.2548 1.7730
L67.3758 1.7126
" />
<path d="M67.3758 1.7126
L67.4363 1.6521
" />
<path d="M67.4363 1.6521
L67.4967 1.5311
" />
<path d="M67.4967 1.5311
L67.4967 0.5030
" />
<path d="M68.2830 1.6521
L68.3434 1.7126
" />
<path d="M68.3434 1.7126
L68.2830 1.7730
" />
<path d="M68.2830 1.7730
L68.2225 1.7126
" />
<path d="M68.2225 1.7126
L68.2830 1.6521
" />
<path d="M68.2830 1.6521
L68.2830 1.7730
" />
<path d="M68.0411 0.5635
L68.1620 0.5030
" />
<path d="M68.1620 0.5030
L68.4644 0.5030
" />
<path d="M68.4644 0.5030
L68.5853 0.5635
" />
<path d="M68.5853 0.5635
L68.6458 0.6845
" />
<path d="M68.6458 0.6845
L68.6458 0.8054
" />
<path d="M68.6458 0.8054
L68.5853 0.9264
" />
<path d="M68.5853 0.9264
L68.5249 0.9868
" />
<path d="M68.5249 0.9868
L68.4039 1.0473
" />
<path d="M68.4039 1.0473
L68.3434 1.1078
" />
<path d="M68.3434 1.1078
L68.2830 1.2287
" />
<path d="M68.2830 1.2287
L68.2830 1.2892
" />
<path d="M69.6135 1.1078
L69.7949 1.1683
" />
<path d="M69.7949 1.1683
L69.8554 1.2287
" />
<path d="M69.8554 1.2287
L69.9158 1.3497
" />
<path d="M69.9158 1.3497
L69.9158 1.5311
" />
<path d="M69.9158 1.5311
L69.8554 1.6521
" />
<path d="M69.8554 1.6521
L69.7949 1.7126
" />
<path d="M69.7949 1.7126
L69.6739 1.7730
" />
<path d="M69.6739 1.7730
L69.1901 1.7730
" />
<path d="M69.1901 1.7730
L69.1901 0.5030
" />
<path d="M69.1901 0.5030
L69.6135 0.5030
" />
<path d="M69.6135 0.5030
L69.7344 0.5635
" />
<path d="M69.7344 0.5635
L69.7949 0.6240
" />
<path d="M69.7949 0.6240
L69.8554 0.7449
" />
<path d="M69.8554 0.7449
L69.8554 0.8659
" />
<path d="M69.8554 0.8659
L69.7949 0.9868
" />
<path d="M69.7949 0.9868
L69.7344 1.0473
" />
<path d="M69.7344 1.0473
L69.6135 1.1078
" />
<path d="M69.6135 1.1078
L69.1901 1.1078
" />
</g><text x="73.7863" y="4.3688"
textLength="14.8576" font-size="1.6933" lengthAdjust="spacingAndGlyphs"
text-anchor="middle" opacity="0">ADA4610-4xCP</text>
<g class="stroked-text"><desc>ADA4610-4xCP</desc>
<path d="M66.7106 3.9502
L67.3153 3.9502
" />
<path d="M66.5896 4.3130
L67.0129 3.0430
" />
<path d="M67.0129 3.0430
L67.4363 4.3130
" />
<path d="M67.8596 4.3130
L67.8596 3.0430
" />
<path d="M67.8596 3.0430
L68.1620 3.0430
" />
<path d="M68.1620 3.0430
L68.3434 3.1035
" />
<path d="M68.3434 3.1035
L68.4644 3.2245
" />
<path d="M68.4644 3.2245
L68.5249 3.3454
" />
<path d="M68.5249 3.3454
L68.5853 3.5873
" />
<path d="M68.5853 3.5873
L68.5853 3.7687
" />
<path d="M68.5853 3.7687
L68.5249 4.0106
" />
<path d="M68.5249 4.0106
L68.4644 4.1316
" />
<path d="M68.4644 4.1316
L68.3434 4.2526
" />
<path d="M68.3434 4.2526
L68.1620 4.3130
" />
<path d="M68.1620 4.3130
L67.8596 4.3130
" />
<path d="M69.0692 3.9502
L69.6739 3.9502
" />
<path d="M68.9482 4.3130
L69.3715 3.0430
" />
<path d="M69.3715 3.0430
L69.7949 4.3130
" />
<path d="M70.7625 3.4664
L70.7625 4.3130
" />
<path d="M70.4601 2.9826
L70.1578 3.8897
" />
<path d="M70.1578 3.8897
L70.9439 3.8897
" />
<path d="M71.9720 3.0430
L71.7301 3.0430
" />
<path d="M71.7301 3.0430
L71.6092 3.1035
" />
<path d="M71.6092 3.1035
L71.5487 3.1640
" />
<path d="M71.5487 3.1640
L71.4277 3.3454
" />
<path d="M71.4277 3.3454
L71.3673 3.5873
" />
<path d="M71.3673 3.5873
L71.3673 4.0711
" />
<path d="M71.3673 4.0711
L71.4277 4.1921
" />
<path d="M71.4277 4.1921
L71.4882 4.2526
" />
<path d="M71.4882 4.2526
L71.6092 4.3130
" />
<path d="M71.6092 4.3130
L71.8511 4.3130
" />
<path d="M71.8511 4.3130
L71.9720 4.2526
" />
<path d="M71.9720 4.2526
L72.0325 4.1921
" />
<path d="M72.0325 4.1921
L72.0930 4.0711
" />
<path d="M72.0930 4.0711
L72.0930 3.7687
" />
<path d="M72.0930 3.7687
L72.0325 3.6478
" />
<path d="M72.0325 3.6478
L71.9720 3.5873
" />
<path d="M71.9720 3.5873
L71.8511 3.5268
" />
<path d="M71.8511 3.5268
L71.6092 3.5268
" />
<path d="M71.6092 3.5268
L71.4882 3.5873
" />
<path d="M71.4882 3.5873
L71.4277 3.6478
" />
<path d="M71.4277 3.6478
L71.3673 3.7687
" />
<path d="M73.3025 4.3130
L72.5768 4.3130
" />
<path d="M72.9396 4.3130
L72.9396 3.0430
" />
<path d="M72.9396 3.0430
L72.8187 3.2245
" />
<path d="M72.8187 3.2245
L72.6977 3.3454
" />
<path d="M72.6977 3.3454
L72.5768 3.4059
" />
<path d="M74.0886 3.0430
L74.2096 3.0430
" />
<path d="M74.2096 3.0430
L74.3305 3.1035
" />
<path d="M74.3305 3.1035
L74.3910 3.1640
" />
<path d="M74.3910 3.1640
L74.4515 3.2849
" />
<path d="M74.4515 3.2849
L74.5120 3.5268
" />
<path d="M74.5120 3.5268
L74.5120 3.8292
" />
<path d="M74.5120 3.8292
L74.4515 4.0711
" />
<path d="M74.4515 4.0711
L74.3910 4.1921
" />
<path d="M74.3910 4.1921
L74.3305 4.2526
" />
<path d="M74.3305 4.2526
L74.2096 4.3130
" />
<path d="M74.2096 4.3130
L74.0886 4.3130
" />
<path d="M74.0886 4.3130
L73.9677 4.2526
" />
<path d="M73.9677 4.2526
L73.9072 4.1921
" />
<path d="M73.9072 4.1921
L73.8467 4.0711
" />
<path d="M73.8467 4.0711
L73.7863 3.8292
" />
<path d="M73.7863 3.8292
L73.7863 3.5268
" />
<path d="M73.7863 3.5268
L73.8467 3.2849
" />
<path d="M73.8467 3.2849
L73.9072 3.1640
" />
<path d="M73.9072 3.1640
L73.9677 3.1035
" />
<path d="M73.9677 3.1035
L74.0886 3.0430
" />
<path d="M75.0562 3.8292
L76.0239 3.8292
" />
<path d="M77.1729 3.4664
L77.1729 4.3130
" />
<path d="M76.8705 2.9826
L76.5682 3.8897
" />
<path d="M76.5682 3.8897
L77.3543 3.8897
" />
<path d="M77.7172 4.3130
L78.3824 3.4664
" />
<path d="M77.7172 3.4664
L78.3824 4.3130
" />
<path d="M79.5919 4.1921
L79.5315 4.2526
" />
<path d="M79.5315 4.2526
L79.3500 4.3130
" />
<path d="M79.3500 4.3130
L79.2291 4.3130
" />
<path d="M79.2291 4.3130
L79.0477 4.2526
" />
<path d="M79.0477 4.2526
L78.9267 4.1316
" />
<path d="M78.9267 4.1316
L78.8662 4.0106
" />
<path d="M78.8662 4.0106
L78.8058 3.7687
" />
<path d="M78.8058 3.7687
L78.8058 3.5873
" />
<path d="M78.8058 3.5873
L78.8662 3.3454
" />
<path d="M78.8662 3.3454
L78.9267 3.2245
" />
<path d="M78.9267 3.2245
L79.0477 3.1035
" />
<path d="M79.0477 3.1035
L79.2291 3.0430
" />
<path d="M79.2291 3.0430
L79.3500 3.0430
" />
<path d="M79.3500 3.0430
L79.5315 3.1035
" />
<path d="M79.5315 3.1035
L79.5919 3.1640
" />
<path d="M80.1362 4.3130
L80.1362 3.0430
" />
<path d="M80.1362 3.0430
L80.6200 3.0430
" />
<path d="M80.6200 3.0430
L80.7410 3.1035
" />
<path d="M80.7410 3.1035
L80.8015 3.1640
" />
<path d="M80.8015 3.1640
L80.8619 3.2849
" />
<path d="M80.8619 3.2849
L80.8619 3.4664
" />
<path d="M80.8619 3.4664
L80.8015 3.5873
" />
<path d="M80.8015 3.5873
L80.7410 3.6478
" />
<path d="M80.7410 3.6478
L80.6200 3.7083
" />
<path d="M80.6200 3.7083
L80.1362 3.7083
" />
</g></g> 
</svg>
