<?xml version="1.0" standalone="no"?>
 <!DOCTYPE svg PUBLIC "-//W3C//DTD SVG 1.1//EN" 
 "http://www.w3.org/Graphics/SVG/1.1/DTD/svg11.dtd"> 
<svg
  xmlns:svg="http://www.w3.org/2000/svg"
  xmlns="http://www.w3.org/2000/svg"
  xmlns:xlink="http://www.w3.org/1999/xlink"
  version="1.1"
  width="117.3226mm" height="18.2880mm" viewBox="0.0000 0.0000 117.3226 18.2880">
<title>SVG Image created as ada4817-2acp_2.svg date 2024/01/16 15:08:53 </title>
  <desc>Image generated by Eeschema-SVG </desc>
<g style="fill:#000000; fill-opacity:1.0000;stroke:#000000; stroke-opacity:1.0000;
stroke-linecap:round; stroke-linejoin:round;"
 transform="translate(0 0) scale(1 1)">
</g>
<g style="fill:#840000; fill-opacity:0.0; 
stroke:#840000; stroke-width:0.0000; stroke-opacity:1; 
stroke-linecap:round; stroke-linejoin:round;">
</g>
<g style="fill:#FFFFC2; fill-opacity:0.0; 
stroke:#FFFFC2; stroke-width:0.0000; stroke-opacity:1; 
stroke-linecap:round; stroke-linejoin:round;">
</g>
<g style="fill:#FFFFC2; fill-opacity:1.0000; 
stroke:#FFFFC2; stroke-width:0.0000; stroke-opacity:1; 
stroke-linecap:round; stroke-linejoin:round;">
<path style="fill:#FFFFC2; fill-opacity:1.0000; 
stroke:#FFFFC2; stroke-width:0.0000; stroke-opacity:1; 
stroke-linecap:round; stroke-linejoin:round;fill-rule:evenodd;"
d="M 53.5813,4.0640
63.7413,9.1440
53.5813,14.2240
Z" /> 
</g>
<g style="fill:#840084; fill-opacity:1.0000; 
stroke:#840084; stroke-width:0.0000; stroke-opacity:1; 
stroke-linecap:round; stroke-linejoin:round;">
</g>
<g style="fill:#840000; fill-opacity:1.0000; 
stroke:#840000; stroke-width:0.0000; stroke-opacity:1; 
stroke-linecap:round; stroke-linejoin:round;">
</g>
<g style="fill:#840000; fill-opacity:0.0; 
stroke:#840000; stroke-width:0.1524; stroke-opacity:1; 
stroke-linecap:round; stroke-linejoin:round;">
<path style="fill:#840000; fill-opacity:0.0; 
stroke:#840000; stroke-width:0.1524; stroke-opacity:1; 
stroke-linecap:round; stroke-linejoin:round;fill:none"
d="M 63.7413,9.1440
63.7413,6.6040
" /> 
</g>
<g style="fill:#840000; fill-opacity:0.0; 
stroke:#840000; stroke-width:0.2540; stroke-opacity:1; 
stroke-linecap:round; stroke-linejoin:round;">
<path style="fill:#840000; fill-opacity:0.0; 
stroke:#840000; stroke-width:0.2540; stroke-opacity:1; 
stroke-linecap:round; stroke-linejoin:round;fill:none"
d="M 53.5813,4.0640
63.7413,9.1440
53.5813,14.2240
Z" /> 
</g>
<g style="fill:#840000; fill-opacity:0.0; 
stroke:#840000; stroke-width:0.1524; stroke-opacity:1; 
stroke-linecap:round; stroke-linejoin:round;">
<path d="M63.7413 6.6040
L66.2813 6.6040
" />
</g>
<g style="fill:#006464; fill-opacity:0.0; 
stroke:#006464; stroke-width:0.1524; stroke-opacity:1; 
stroke-linecap:round; stroke-linejoin:round;">
<text x="63.4873" y="7.2390"
textLength="2.5618" font-size="1.6933" lengthAdjust="spacingAndGlyphs"
text-anchor="end" opacity="0">FB</text>
<g class="stroked-text"><desc>FB</desc>
<path d="M61.7542 6.5183
L61.3308 6.5183
" />
<path d="M61.3308 7.1835
L61.3308 5.9135
" />
<path d="M61.3308 5.9135
L61.9356 5.9135
" />
<path d="M62.8428 6.5183
L63.0242 6.5788
" />
<path d="M63.0242 6.5788
L63.0847 6.6392
" />
<path d="M63.0847 6.6392
L63.1451 6.7602
" />
<path d="M63.1451 6.7602
L63.1451 6.9416
" />
<path d="M63.1451 6.9416
L63.0847 7.0626
" />
<path d="M63.0847 7.0626
L63.0242 7.1231
" />
<path d="M63.0242 7.1231
L62.9032 7.1835
" />
<path d="M62.9032 7.1835
L62.4194 7.1835
" />
<path d="M62.4194 7.1835
L62.4194 5.9135
" />
<path d="M62.4194 5.9135
L62.8428 5.9135
" />
<path d="M62.8428 5.9135
L62.9637 5.9740
" />
<path d="M62.9637 5.9740
L63.0242 6.0345
" />
<path d="M63.0242 6.0345
L63.0847 6.1554
" />
<path d="M63.0847 6.1554
L63.0847 6.2764
" />
<path d="M63.0847 6.2764
L63.0242 6.3973
" />
<path d="M63.0242 6.3973
L62.9637 6.4578
" />
<path d="M62.9637 6.4578
L62.8428 6.5183
" />
<path d="M62.8428 6.5183
L62.4194 6.5183
" />
</g></g>
<g style="fill:#A90000; fill-opacity:0.0; 
stroke:#A90000; stroke-width:0.1524; stroke-opacity:1; 
stroke-linecap:round; stroke-linejoin:round;">
<text x="65.0113" y="6.3500"
textLength="1.4127" font-size="1.6933" lengthAdjust="spacingAndGlyphs"
text-anchor="middle" opacity="0">8</text>
<g class="stroked-text"><desc>8</desc>
<path d="M64.8904 5.4608
L64.7694 5.4003
" />
<path d="M64.7694 5.4003
L64.7089 5.3399
" />
<path d="M64.7089 5.3399
L64.6485 5.2189
" />
<path d="M64.6485 5.2189
L64.6485 5.1584
" />
<path d="M64.6485 5.1584
L64.7089 5.0375
" />
<path d="M64.7089 5.0375
L64.7694 4.9770
" />
<path d="M64.7694 4.9770
L64.8904 4.9165
" />
<path d="M64.8904 4.9165
L65.1323 4.9165
" />
<path d="M65.1323 4.9165
L65.2532 4.9770
" />
<path d="M65.2532 4.9770
L65.3137 5.0375
" />
<path d="M65.3137 5.0375
L65.3742 5.1584
" />
<path d="M65.3742 5.1584
L65.3742 5.2189
" />
<path d="M65.3742 5.2189
L65.3137 5.3399
" />
<path d="M65.3137 5.3399
L65.2532 5.4003
" />
<path d="M65.2532 5.4003
L65.1323 5.4608
" />
<path d="M65.1323 5.4608
L64.8904 5.4608
" />
<path d="M64.8904 5.4608
L64.7694 5.5213
" />
<path d="M64.7694 5.5213
L64.7089 5.5818
" />
<path d="M64.7089 5.5818
L64.6485 5.7027
" />
<path d="M64.6485 5.7027
L64.6485 5.9446
" />
<path d="M64.6485 5.9446
L64.7089 6.0656
" />
<path d="M64.7089 6.0656
L64.7694 6.1261
" />
<path d="M64.7694 6.1261
L64.8904 6.1865
" />
<path d="M64.8904 6.1865
L65.1323 6.1865
" />
<path d="M65.1323 6.1865
L65.2532 6.1261
" />
<path d="M65.2532 6.1261
L65.3137 6.0656
" />
<path d="M65.3137 6.0656
L65.3742 5.9446
" />
<path d="M65.3742 5.9446
L65.3742 5.7027
" />
<path d="M65.3742 5.7027
L65.3137 5.5818
" />
<path d="M65.3137 5.5818
L65.2532 5.5213
" />
<path d="M65.2532 5.5213
L65.1323 5.4608
" />
</g></g>
<g style="fill:#840000; fill-opacity:0.0; 
stroke:#840000; stroke-width:0.1524; stroke-opacity:1; 
stroke-linecap:round; stroke-linejoin:round;">
<path d="M53.5813 11.6840
L51.0413 11.6840
" />
</g>
<g style="fill:#006464; fill-opacity:0.0; 
stroke:#006464; stroke-width:0.1524; stroke-opacity:1; 
stroke-linecap:round; stroke-linejoin:round;">
<text x="53.8353" y="12.3190"
textLength="1.7756" font-size="1.6933" lengthAdjust="spacingAndGlyphs"
text-anchor="start" opacity="0">+</text>
<g class="stroked-text"><desc>+</desc>
<path d="M54.2378 11.7797
L55.2055 11.7797
" />
<path d="M54.7216 12.2635
L54.7216 11.2959
" />
</g></g>
<g style="fill:#A90000; fill-opacity:0.0; 
stroke:#A90000; stroke-width:0.1524; stroke-opacity:1; 
stroke-linecap:round; stroke-linejoin:round;">
<text x="52.3113" y="11.4300"
textLength="2.6222" font-size="1.6933" lengthAdjust="spacingAndGlyphs"
text-anchor="middle" opacity="0">10</text>
<g class="stroked-text"><desc>10</desc>
<path d="M52.0694 11.2665
L51.3437 11.2665
" />
<path d="M51.7065 11.2665
L51.7065 9.9965
" />
<path d="M51.7065 9.9965
L51.5856 10.1780
" />
<path d="M51.5856 10.1780
L51.4646 10.2989
" />
<path d="M51.4646 10.2989
L51.3437 10.3594
" />
<path d="M52.8555 9.9965
L52.9765 9.9965
" />
<path d="M52.9765 9.9965
L53.0974 10.0570
" />
<path d="M53.0974 10.0570
L53.1579 10.1175
" />
<path d="M53.1579 10.1175
L53.2184 10.2384
" />
<path d="M53.2184 10.2384
L53.2789 10.4803
" />
<path d="M53.2789 10.4803
L53.2789 10.7827
" />
<path d="M53.2789 10.7827
L53.2184 11.0246
" />
<path d="M53.2184 11.0246
L53.1579 11.1456
" />
<path d="M53.1579 11.1456
L53.0974 11.2061
" />
<path d="M53.0974 11.2061
L52.9765 11.2665
" />
<path d="M52.9765 11.2665
L52.8555 11.2665
" />
<path d="M52.8555 11.2665
L52.7346 11.2061
" />
<path d="M52.7346 11.2061
L52.6741 11.1456
" />
<path d="M52.6741 11.1456
L52.6136 11.0246
" />
<path d="M52.6136 11.0246
L52.5532 10.7827
" />
<path d="M52.5532 10.7827
L52.5532 10.4803
" />
<path d="M52.5532 10.4803
L52.6136 10.2384
" />
<path d="M52.6136 10.2384
L52.6741 10.1175
" />
<path d="M52.6741 10.1175
L52.7346 10.0570
" />
<path d="M52.7346 10.0570
L52.8555 9.9965
" />
</g></g>
<g style="fill:#840000; fill-opacity:0.0; 
stroke:#840000; stroke-width:0.1524; stroke-opacity:1; 
stroke-linecap:round; stroke-linejoin:round;">
<path d="M56.1213 12.9540
L56.1213 16.7640
" />
</g>
<g style="fill:#006464; fill-opacity:0.0; 
stroke:#006464; stroke-width:0.1524; stroke-opacity:1; 
stroke-linecap:round; stroke-linejoin:round;">
<g transform="rotate(-90.000000 56.1213 12.7000)">
<text x="56.1213" y="13.2080"
textLength="3.1975" font-size="1.3546" lengthAdjust="spacingAndGlyphs"
text-anchor="start" opacity="0">-V_{S}</text>
</g>
<g class="stroked-text"><desc>-V_{S}</desc>
<path d="M56.1963 12.3578
L56.1963 11.5838
" />
<path d="M55.5673 11.2451
L56.5833 10.9064
" />
<path d="M56.5833 10.9064
L55.5673 10.5678
" />
<path d="M56.6569 10.3161
L56.6956 10.2000
" />
<path d="M56.6956 10.2000
L56.6956 10.0065
" />
<path d="M56.6956 10.0065
L56.6569 9.9291
" />
<path d="M56.6569 9.9291
L56.6181 9.8904
" />
<path d="M56.6181 9.8904
L56.5407 9.8517
" />
<path d="M56.5407 9.8517
L56.4633 9.8517
" />
<path d="M56.4633 9.8517
L56.3859 9.8904
" />
<path d="M56.3859 9.8904
L56.3472 9.9291
" />
<path d="M56.3472 9.9291
L56.3085 10.0065
" />
<path d="M56.3085 10.0065
L56.2698 10.1613
" />
<path d="M56.2698 10.1613
L56.2311 10.2387
" />
<path d="M56.2311 10.2387
L56.1924 10.2774
" />
<path d="M56.1924 10.2774
L56.1150 10.3161
" />
<path d="M56.1150 10.3161
L56.0376 10.3161
" />
<path d="M56.0376 10.3161
L55.9602 10.2774
" />
<path d="M55.9602 10.2774
L55.9215 10.2387
" />
<path d="M55.9215 10.2387
L55.8828 10.1613
" />
<path d="M55.8828 10.1613
L55.8828 9.9678
" />
<path d="M55.8828 9.9678
L55.9215 9.8517
" />
</g></g>
<g style="fill:#A90000; fill-opacity:0.0; 
stroke:#A90000; stroke-width:0.1524; stroke-opacity:1; 
stroke-linecap:round; stroke-linejoin:round;">
<g transform="rotate(-90.000000 55.8673 14.8590)">
<text x="55.8673" y="14.8590"
textLength="1.4127" font-size="1.6933" lengthAdjust="spacingAndGlyphs"
text-anchor="middle" opacity="0">4</text>
</g>
<g class="stroked-text"><desc>4</desc>
<path d="M54.8572 14.6170
L55.7038 14.6170
" />
<path d="M54.3734 14.9194
L55.2805 15.2217
" />
<path d="M55.2805 15.2217
L55.2805 14.4356
" />
</g></g>
<g style="fill:#840000; fill-opacity:0.0; 
stroke:#840000; stroke-width:0.1524; stroke-opacity:1; 
stroke-linecap:round; stroke-linejoin:round;">
<path d="M63.7413 9.1440
L66.2813 9.1440
" />
</g>
<g style="fill:#A90000; fill-opacity:0.0; 
stroke:#A90000; stroke-width:0.1524; stroke-opacity:1; 
stroke-linecap:round; stroke-linejoin:round;">
<text x="65.0113" y="8.8900"
textLength="1.4127" font-size="1.6933" lengthAdjust="spacingAndGlyphs"
text-anchor="middle" opacity="0">5</text>
<g class="stroked-text"><desc>5</desc>
<path d="M65.3137 7.4565
L64.7089 7.4565
" />
<path d="M64.7089 7.4565
L64.6485 8.0613
" />
<path d="M64.6485 8.0613
L64.7089 8.0008
" />
<path d="M64.7089 8.0008
L64.8299 7.9403
" />
<path d="M64.8299 7.9403
L65.1323 7.9403
" />
<path d="M65.1323 7.9403
L65.2532 8.0008
" />
<path d="M65.2532 8.0008
L65.3137 8.0613
" />
<path d="M65.3137 8.0613
L65.3742 8.1822
" />
<path d="M65.3742 8.1822
L65.3742 8.4846
" />
<path d="M65.3742 8.4846
L65.3137 8.6056
" />
<path d="M65.3137 8.6056
L65.2532 8.6661
" />
<path d="M65.2532 8.6661
L65.1323 8.7265
" />
<path d="M65.1323 8.7265
L64.8299 8.7265
" />
<path d="M64.8299 8.7265
L64.7089 8.6661
" />
<path d="M64.7089 8.6661
L64.6485 8.6056
" />
</g></g>
<g style="fill:#840000; fill-opacity:0.0; 
stroke:#840000; stroke-width:0.1524; stroke-opacity:1; 
stroke-linecap:round; stroke-linejoin:round;">
<path d="M56.1213 5.3340
L56.1213 1.5240
" />
</g>
<g style="fill:#006464; fill-opacity:0.0; 
stroke:#006464; stroke-width:0.1524; stroke-opacity:1; 
stroke-linecap:round; stroke-linejoin:round;">
<g transform="rotate(-90.000000 56.1213 5.5880)">
<text x="56.1213" y="6.0960"
textLength="3.1975" font-size="1.3546" lengthAdjust="spacingAndGlyphs"
text-anchor="end" opacity="0">+V_{S}</text>
</g>
<g class="stroked-text"><desc>+V_{S}</desc>
<path d="M56.1963 8.3491
L56.1963 7.5751
" />
<path d="M56.5833 7.9621
L55.8092 7.9621
" />
<path d="M55.5673 7.2364
L56.5833 6.8977
" />
<path d="M56.5833 6.8977
L55.5673 6.5591
" />
<path d="M56.6569 6.3074
L56.6956 6.1913
" />
<path d="M56.6956 6.1913
L56.6956 5.9978
" />
<path d="M56.6956 5.9978
L56.6569 5.9204
" />
<path d="M56.6569 5.9204
L56.6181 5.8817
" />
<path d="M56.6181 5.8817
L56.5407 5.8430
" />
<path d="M56.5407 5.8430
L56.4633 5.8430
" />
<path d="M56.4633 5.8430
L56.3859 5.8817
" />
<path d="M56.3859 5.8817
L56.3472 5.9204
" />
<path d="M56.3472 5.9204
L56.3085 5.9978
" />
<path d="M56.3085 5.9978
L56.2698 6.1526
" />
<path d="M56.2698 6.1526
L56.2311 6.2300
" />
<path d="M56.2311 6.2300
L56.1924 6.2687
" />
<path d="M56.1924 6.2687
L56.1150 6.3074
" />
<path d="M56.1150 6.3074
L56.0376 6.3074
" />
<path d="M56.0376 6.3074
L55.9602 6.2687
" />
<path d="M55.9602 6.2687
L55.9215 6.2300
" />
<path d="M55.9215 6.2300
L55.8828 6.1526
" />
<path d="M55.8828 6.1526
L55.8828 5.9591
" />
<path d="M55.8828 5.9591
L55.9215 5.8430
" />
</g></g>
<g style="fill:#A90000; fill-opacity:0.0; 
stroke:#A90000; stroke-width:0.1524; stroke-opacity:1; 
stroke-linecap:round; stroke-linejoin:round;">
<g transform="rotate(-90.000000 55.8673 3.4290)">
<text x="55.8673" y="3.4290"
textLength="1.4127" font-size="1.6933" lengthAdjust="spacingAndGlyphs"
text-anchor="middle" opacity="0">6</text>
</g>
<g class="stroked-text"><desc>6</desc>
<path d="M54.4338 3.1870
L54.4338 3.4289
" />
<path d="M54.4338 3.4289
L54.4943 3.5498
" />
<path d="M54.4943 3.5498
L54.5548 3.6103
" />
<path d="M54.5548 3.6103
L54.7362 3.7313
" />
<path d="M54.7362 3.7313
L54.9781 3.7917
" />
<path d="M54.9781 3.7917
L55.4619 3.7917
" />
<path d="M55.4619 3.7917
L55.5829 3.7313
" />
<path d="M55.5829 3.7313
L55.6434 3.6708
" />
<path d="M55.6434 3.6708
L55.7038 3.5498
" />
<path d="M55.7038 3.5498
L55.7038 3.3079
" />
<path d="M55.7038 3.3079
L55.6434 3.1870
" />
<path d="M55.6434 3.1870
L55.5829 3.1265
" />
<path d="M55.5829 3.1265
L55.4619 3.0660
" />
<path d="M55.4619 3.0660
L55.1595 3.0660
" />
<path d="M55.1595 3.0660
L55.0386 3.1265
" />
<path d="M55.0386 3.1265
L54.9781 3.1870
" />
<path d="M54.9781 3.1870
L54.9176 3.3079
" />
<path d="M54.9176 3.3079
L54.9176 3.5498
" />
<path d="M54.9176 3.5498
L54.9781 3.6708
" />
<path d="M54.9781 3.6708
L55.0386 3.7313
" />
<path d="M55.0386 3.7313
L55.1595 3.7917
" />
</g></g>
<g style="fill:#840000; fill-opacity:0.0; 
stroke:#840000; stroke-width:0.1524; stroke-opacity:1; 
stroke-linecap:round; stroke-linejoin:round;">
<path d="M58.6613 6.6040
L58.6613 1.5240
" />
</g>
<g style="fill:#006464; fill-opacity:0.0; 
stroke:#006464; stroke-width:0.1524; stroke-opacity:1; 
stroke-linecap:round; stroke-linejoin:round;">
<g transform="rotate(-90.000000 58.6613 6.8580)">
<text x="58.6613" y="7.3025"
textLength="2.0574" font-size="1.1853" lengthAdjust="spacingAndGlyphs"
text-anchor="end" opacity="0">~{PD}</text>
</g>
<g class="stroked-text"><desc>~{PD}</desc>
<path d="M59.0646 8.5245
L58.1756 8.5245
" />
<path d="M58.1756 8.5245
L58.1756 8.1858
" />
<path d="M58.1756 8.1858
L58.2179 8.1012
" />
<path d="M58.2179 8.1012
L58.2603 8.0588
" />
<path d="M58.2603 8.0588
L58.3449 8.0165
" />
<path d="M58.3449 8.0165
L58.4719 8.0165
" />
<path d="M58.4719 8.0165
L58.5566 8.0588
" />
<path d="M58.5566 8.0588
L58.5989 8.1012
" />
<path d="M58.5989 8.1012
L58.6413 8.1858
" />
<path d="M58.6413 8.1858
L58.6413 8.5245
" />
<path d="M59.0646 7.6355
L58.1756 7.6355
" />
<path d="M58.1756 7.6355
L58.1756 7.4238
" />
<path d="M58.1756 7.4238
L58.2179 7.2968
" />
<path d="M58.2179 7.2968
L58.3026 7.2122
" />
<path d="M58.3026 7.2122
L58.3873 7.1698
" />
<path d="M58.3873 7.1698
L58.5566 7.1275
" />
<path d="M58.5566 7.1275
L58.6836 7.1275
" />
<path d="M58.6836 7.1275
L58.8529 7.1698
" />
<path d="M58.8529 7.1698
L58.9376 7.2122
" />
<path d="M58.9376 7.2122
L59.0223 7.2968
" />
<path d="M59.0223 7.2968
L59.0646 7.4238
" />
<path d="M59.0646 7.4238
L59.0646 7.6355
" />
<path d="M57.9288 8.6473
L57.9288 7.0471
" />
</g></g>
<g style="fill:#A90000; fill-opacity:0.0; 
stroke:#A90000; stroke-width:0.1524; stroke-opacity:1; 
stroke-linecap:round; stroke-linejoin:round;">
<g transform="rotate(-90.000000 58.4073 4.0640)">
<text x="58.4073" y="4.0640"
textLength="1.4127" font-size="1.6933" lengthAdjust="spacingAndGlyphs"
text-anchor="middle" opacity="0">7</text>
</g>
<g class="stroked-text"><desc>7</desc>
<path d="M56.9738 4.4872
L56.9738 3.6406
" />
<path d="M56.9738 3.6406
L58.2438 4.1848
" />
</g></g>
<g style="fill:#840000; fill-opacity:0.0; 
stroke:#840000; stroke-width:0.1524; stroke-opacity:1; 
stroke-linecap:round; stroke-linejoin:round;">
<path d="M53.5813 6.6040
L51.0413 6.6040
" />
</g>
<g style="fill:#006464; fill-opacity:0.0; 
stroke:#006464; stroke-width:0.1524; stroke-opacity:1; 
stroke-linecap:round; stroke-linejoin:round;">
<text x="53.8353" y="7.2390"
textLength="1.7756" font-size="1.6933" lengthAdjust="spacingAndGlyphs"
text-anchor="start" opacity="0">-</text>
<g class="stroked-text"><desc>-</desc>
<path d="M54.2378 6.6997
L55.2055 6.6997
" />
</g></g>
<g style="fill:#A90000; fill-opacity:0.0; 
stroke:#A90000; stroke-width:0.1524; stroke-opacity:1; 
stroke-linecap:round; stroke-linejoin:round;">
<text x="52.3113" y="6.3500"
textLength="1.4127" font-size="1.6933" lengthAdjust="spacingAndGlyphs"
text-anchor="middle" opacity="0">9</text>
<g class="stroked-text"><desc>9</desc>
<path d="M52.0694 6.1865
L52.3113 6.1865
" />
<path d="M52.3113 6.1865
L52.4323 6.1261
" />
<path d="M52.4323 6.1261
L52.4927 6.0656
" />
<path d="M52.4927 6.0656
L52.6137 5.8841
" />
<path d="M52.6137 5.8841
L52.6742 5.6422
" />
<path d="M52.6742 5.6422
L52.6742 5.1584
" />
<path d="M52.6742 5.1584
L52.6137 5.0375
" />
<path d="M52.6137 5.0375
L52.5532 4.9770
" />
<path d="M52.5532 4.9770
L52.4323 4.9165
" />
<path d="M52.4323 4.9165
L52.1904 4.9165
" />
<path d="M52.1904 4.9165
L52.0694 4.9770
" />
<path d="M52.0694 4.9770
L52.0089 5.0375
" />
<path d="M52.0089 5.0375
L51.9485 5.1584
" />
<path d="M51.9485 5.1584
L51.9485 5.4608
" />
<path d="M51.9485 5.4608
L52.0089 5.5818
" />
<path d="M52.0089 5.5818
L52.0694 5.6422
" />
<path d="M52.0694 5.6422
L52.1904 5.7027
" />
<path d="M52.1904 5.7027
L52.4323 5.7027
" />
<path d="M52.4323 5.7027
L52.5532 5.6422
" />
<path d="M52.5532 5.6422
L52.6137 5.5818
" />
<path d="M52.6137 5.5818
L52.6742 5.4608
" />
</g></g>
<g style="fill:#840084; fill-opacity:0.0; 
stroke:#840084; stroke-width:0.1524; stroke-opacity:1; 
stroke-linecap:round; stroke-linejoin:round;">
</g>
<g style="fill:#006464; fill-opacity:0.0; 
stroke:#006464; stroke-width:0.1524; stroke-opacity:1; 
stroke-linecap:round; stroke-linejoin:round;">
</g>
<g style="fill:#006464; fill-opacity:0.0; 
stroke:#006464; stroke-width:0.1588; stroke-opacity:1; 
stroke-linecap:round; stroke-linejoin:round;">
<text x="61.8870" y="5.9690"
textLength="3.9115" font-size="1.6933" lengthAdjust="spacingAndGlyphs"
text-anchor="middle" opacity="0">U?B</text>
<g class="stroked-text"><desc>U?B</desc>
<path d="M60.3448 4.6432
L60.3448 5.6713
" />
<path d="M60.3448 5.6713
L60.4053 5.7923
" />
<path d="M60.4053 5.7923
L60.4658 5.8528
" />
<path d="M60.4658 5.8528
L60.5867 5.9132
" />
<path d="M60.5867 5.9132
L60.8286 5.9132
" />
<path d="M60.8286 5.9132
L60.9496 5.8528
" />
<path d="M60.9496 5.8528
L61.0101 5.7923
" />
<path d="M61.0101 5.7923
L61.0705 5.6713
" />
<path d="M61.0705 5.6713
L61.0705 4.6432
" />
<path d="M61.8568 5.7923
L61.9172 5.8528
" />
<path d="M61.9172 5.8528
L61.8568 5.9132
" />
<path d="M61.8568 5.9132
L61.7963 5.8528
" />
<path d="M61.7963 5.8528
L61.8568 5.7923
" />
<path d="M61.8568 5.7923
L61.8568 5.9132
" />
<path d="M61.6149 4.7037
L61.7358 4.6432
" />
<path d="M61.7358 4.6432
L62.0382 4.6432
" />
<path d="M62.0382 4.6432
L62.1591 4.7037
" />
<path d="M62.1591 4.7037
L62.2196 4.8247
" />
<path d="M62.2196 4.8247
L62.2196 4.9456
" />
<path d="M62.2196 4.9456
L62.1591 5.0666
" />
<path d="M62.1591 5.0666
L62.0987 5.1270
" />
<path d="M62.0987 5.1270
L61.9777 5.1875
" />
<path d="M61.9777 5.1875
L61.9172 5.2480
" />
<path d="M61.9172 5.2480
L61.8568 5.3689
" />
<path d="M61.8568 5.3689
L61.8568 5.4294
" />
<path d="M63.1873 5.2480
L63.3687 5.3085
" />
<path d="M63.3687 5.3085
L63.4292 5.3689
" />
<path d="M63.4292 5.3689
L63.4896 5.4899
" />
<path d="M63.4896 5.4899
L63.4896 5.6713
" />
<path d="M63.4896 5.6713
L63.4292 5.7923
" />
<path d="M63.4292 5.7923
L63.3687 5.8528
" />
<path d="M63.3687 5.8528
L63.2477 5.9132
" />
<path d="M63.2477 5.9132
L62.7639 5.9132
" />
<path d="M62.7639 5.9132
L62.7639 4.6432
" />
<path d="M62.7639 4.6432
L63.1873 4.6432
" />
<path d="M63.1873 4.6432
L63.3082 4.7037
" />
<path d="M63.3082 4.7037
L63.3687 4.7642
" />
<path d="M63.3687 4.7642
L63.4292 4.8851
" />
<path d="M63.4292 4.8851
L63.4292 5.0061
" />
<path d="M63.4292 5.0061
L63.3687 5.1270
" />
<path d="M63.3687 5.1270
L63.3082 5.1875
" />
<path d="M63.3082 5.1875
L63.1873 5.2480
" />
<path d="M63.1873 5.2480
L62.7639 5.2480
" />
</g><text x="67.3903" y="13.5890"
textLength="14.9181" font-size="1.6933" lengthAdjust="spacingAndGlyphs"
text-anchor="middle" opacity="0">ADA4817-2ACP</text>
<g class="stroked-text"><desc>ADA4817-2ACP</desc>
<path d="M60.2844 13.1704
L60.8891 13.1704
" />
<path d="M60.1634 13.5332
L60.5867 12.2632
" />
<path d="M60.5867 12.2632
L61.0101 13.5332
" />
<path d="M61.4334 13.5332
L61.4334 12.2632
" />
<path d="M61.4334 12.2632
L61.7358 12.2632
" />
<path d="M61.7358 12.2632
L61.9172 12.3237
" />
<path d="M61.9172 12.3237
L62.0382 12.4447
" />
<path d="M62.0382 12.4447
L62.0987 12.5656
" />
<path d="M62.0987 12.5656
L62.1591 12.8075
" />
<path d="M62.1591 12.8075
L62.1591 12.9889
" />
<path d="M62.1591 12.9889
L62.0987 13.2308
" />
<path d="M62.0987 13.2308
L62.0382 13.3518
" />
<path d="M62.0382 13.3518
L61.9172 13.4728
" />
<path d="M61.9172 13.4728
L61.7358 13.5332
" />
<path d="M61.7358 13.5332
L61.4334 13.5332
" />
<path d="M62.6430 13.1704
L63.2477 13.1704
" />
<path d="M62.5220 13.5332
L62.9453 12.2632
" />
<path d="M62.9453 12.2632
L63.3687 13.5332
" />
<path d="M64.3363 12.6866
L64.3363 13.5332
" />
<path d="M64.0339 12.2028
L63.7316 13.1099
" />
<path d="M63.7316 13.1099
L64.5177 13.1099
" />
<path d="M65.1830 12.8075
L65.0620 12.7470
" />
<path d="M65.0620 12.7470
L65.0015 12.6866
" />
<path d="M65.0015 12.6866
L64.9411 12.5656
" />
<path d="M64.9411 12.5656
L64.9411 12.5051
" />
<path d="M64.9411 12.5051
L65.0015 12.3842
" />
<path d="M65.0015 12.3842
L65.0620 12.3237
" />
<path d="M65.0620 12.3237
L65.1830 12.2632
" />
<path d="M65.1830 12.2632
L65.4249 12.2632
" />
<path d="M65.4249 12.2632
L65.5458 12.3237
" />
<path d="M65.5458 12.3237
L65.6063 12.3842
" />
<path d="M65.6063 12.3842
L65.6668 12.5051
" />
<path d="M65.6668 12.5051
L65.6668 12.5656
" />
<path d="M65.6668 12.5656
L65.6063 12.6866
" />
<path d="M65.6063 12.6866
L65.5458 12.7470
" />
<path d="M65.5458 12.7470
L65.4249 12.8075
" />
<path d="M65.4249 12.8075
L65.1830 12.8075
" />
<path d="M65.1830 12.8075
L65.0620 12.8680
" />
<path d="M65.0620 12.8680
L65.0015 12.9285
" />
<path d="M65.0015 12.9285
L64.9411 13.0494
" />
<path d="M64.9411 13.0494
L64.9411 13.2913
" />
<path d="M64.9411 13.2913
L65.0015 13.4123
" />
<path d="M65.0015 13.4123
L65.0620 13.4728
" />
<path d="M65.0620 13.4728
L65.1830 13.5332
" />
<path d="M65.1830 13.5332
L65.4249 13.5332
" />
<path d="M65.4249 13.5332
L65.5458 13.4728
" />
<path d="M65.5458 13.4728
L65.6063 13.4123
" />
<path d="M65.6063 13.4123
L65.6668 13.2913
" />
<path d="M65.6668 13.2913
L65.6668 13.0494
" />
<path d="M65.6668 13.0494
L65.6063 12.9285
" />
<path d="M65.6063 12.9285
L65.5458 12.8680
" />
<path d="M65.5458 12.8680
L65.4249 12.8075
" />
<path d="M66.8763 13.5332
L66.1506 13.5332
" />
<path d="M66.5134 13.5332
L66.5134 12.2632
" />
<path d="M66.5134 12.2632
L66.3925 12.4447
" />
<path d="M66.3925 12.4447
L66.2715 12.5656
" />
<path d="M66.2715 12.5656
L66.1506 12.6261
" />
<path d="M67.2996 12.2632
L68.1462 12.2632
" />
<path d="M68.1462 12.2632
L67.6020 13.5332
" />
<path d="M68.6300 13.0494
L69.5977 13.0494
" />
<path d="M70.1420 12.3842
L70.2024 12.3237
" />
<path d="M70.2024 12.3237
L70.3234 12.2632
" />
<path d="M70.3234 12.2632
L70.6258 12.2632
" />
<path d="M70.6258 12.2632
L70.7467 12.3237
" />
<path d="M70.7467 12.3237
L70.8072 12.3842
" />
<path d="M70.8072 12.3842
L70.8677 12.5051
" />
<path d="M70.8677 12.5051
L70.8677 12.6261
" />
<path d="M70.8677 12.6261
L70.8072 12.8075
" />
<path d="M70.8072 12.8075
L70.0815 13.5332
" />
<path d="M70.0815 13.5332
L70.8677 13.5332
" />
<path d="M71.3515 13.1704
L71.9562 13.1704
" />
<path d="M71.2305 13.5332
L71.6538 12.2632
" />
<path d="M71.6538 12.2632
L72.0772 13.5332
" />
<path d="M73.2262 13.4123
L73.1658 13.4728
" />
<path d="M73.1658 13.4728
L72.9843 13.5332
" />
<path d="M72.9843 13.5332
L72.8634 13.5332
" />
<path d="M72.8634 13.5332
L72.6820 13.4728
" />
<path d="M72.6820 13.4728
L72.5610 13.3518
" />
<path d="M72.5610 13.3518
L72.5005 13.2308
" />
<path d="M72.5005 13.2308
L72.4401 12.9889
" />
<path d="M72.4401 12.9889
L72.4401 12.8075
" />
<path d="M72.4401 12.8075
L72.5005 12.5656
" />
<path d="M72.5005 12.5656
L72.5610 12.4447
" />
<path d="M72.5610 12.4447
L72.6820 12.3237
" />
<path d="M72.6820 12.3237
L72.8634 12.2632
" />
<path d="M72.8634 12.2632
L72.9843 12.2632
" />
<path d="M72.9843 12.2632
L73.1658 12.3237
" />
<path d="M73.1658 12.3237
L73.2262 12.3842
" />
<path d="M73.7705 13.5332
L73.7705 12.2632
" />
<path d="M73.7705 12.2632
L74.2543 12.2632
" />
<path d="M74.2543 12.2632
L74.3753 12.3237
" />
<path d="M74.3753 12.3237
L74.4358 12.3842
" />
<path d="M74.4358 12.3842
L74.4962 12.5051
" />
<path d="M74.4962 12.5051
L74.4962 12.6866
" />
<path d="M74.4962 12.6866
L74.4358 12.8075
" />
<path d="M74.4358 12.8075
L74.3753 12.8680
" />
<path d="M74.3753 12.8680
L74.2543 12.9285
" />
<path d="M74.2543 12.9285
L73.7705 12.9285
" />
</g></g> 
</svg>
