<?xml version="1.0" standalone="no"?>
 <!DOCTYPE svg PUBLIC "-//W3C//DTD SVG 1.1//EN" 
 "http://www.w3.org/Graphics/SVG/1.1/DTD/svg11.dtd"> 
<svg
  xmlns:svg="http://www.w3.org/2000/svg"
  xmlns="http://www.w3.org/2000/svg"
  xmlns:xlink="http://www.w3.org/1999/xlink"
  version="1.1"
  width="101.8540mm" height="22.5552mm" viewBox="0.0000 0.0000 101.8540 22.5552">
<title>SVG Image created as ltc6269xdd.svg date 2024/01/16 15:08:53 </title>
  <desc>Image generated by Eeschema-SVG </desc>
<g style="fill:#000000; fill-opacity:1.0000;stroke:#000000; stroke-opacity:1.0000;
stroke-linecap:round; stroke-linejoin:round;"
 transform="translate(0 0) scale(1 1)">
</g>
<g style="fill:#840000; fill-opacity:0.0; 
stroke:#840000; stroke-width:0.0000; stroke-opacity:1; 
stroke-linecap:round; stroke-linejoin:round;">
</g>
<g style="fill:#840084; fill-opacity:0.0; 
stroke:#840084; stroke-width:0.0000; stroke-opacity:1; 
stroke-linecap:round; stroke-linejoin:round;">
</g>
<g style="fill:#840000; fill-opacity:0.0; 
stroke:#840000; stroke-width:0.0000; stroke-opacity:1; 
stroke-linecap:round; stroke-linejoin:round;">
</g>
<g style="fill:#840000; fill-opacity:0.0; 
stroke:#840000; stroke-width:0.1524; stroke-opacity:1; 
stroke-linecap:round; stroke-linejoin:round;">
<path d="M48.3870 7.4676
L48.3870 3.6576
" />
</g>
<g style="fill:#006464; fill-opacity:0.0; 
stroke:#006464; stroke-width:0.1524; stroke-opacity:1; 
stroke-linecap:round; stroke-linejoin:round;">
<g transform="rotate(-90.000000 48.3870 7.9756)">
<text x="48.3870" y="8.6106"
textLength="2.8642" font-size="1.6933" lengthAdjust="spacingAndGlyphs"
text-anchor="end" opacity="0">V+</text>
</g>
<g class="stroked-text"><desc>V+</desc>
<path d="M47.6965 10.6158
L48.9665 10.1925
" />
<path d="M48.9665 10.1925
L47.6965 9.7691
" />
<path d="M48.4827 9.3458
L48.4827 8.3782
" />
<path d="M48.9665 8.8620
L47.9989 8.8620
" />
</g></g>
<g style="fill:#A90000; fill-opacity:0.0; 
stroke:#A90000; stroke-width:0.1524; stroke-opacity:1; 
stroke-linecap:round; stroke-linejoin:round;">
<g transform="rotate(-90.000000 48.1330 5.5626)">
<text x="48.1330" y="5.5626"
textLength="2.6222" font-size="1.6933" lengthAdjust="spacingAndGlyphs"
text-anchor="middle" opacity="0">10</text>
</g>
<g class="stroked-text"><desc>10</desc>
<path d="M47.9695 5.8044
L47.9695 6.5301
" />
<path d="M47.9695 6.1673
L46.6995 6.1673
" />
<path d="M46.6995 6.1673
L46.8810 6.2882
" />
<path d="M46.8810 6.2882
L47.0019 6.4092
" />
<path d="M47.0019 6.4092
L47.0624 6.5301
" />
<path d="M46.6995 5.0183
L46.6995 4.8973
" />
<path d="M46.6995 4.8973
L46.7600 4.7764
" />
<path d="M46.7600 4.7764
L46.8205 4.7159
" />
<path d="M46.8205 4.7159
L46.9414 4.6554
" />
<path d="M46.9414 4.6554
L47.1833 4.5949
" />
<path d="M47.1833 4.5949
L47.4857 4.5949
" />
<path d="M47.4857 4.5949
L47.7276 4.6554
" />
<path d="M47.7276 4.6554
L47.8486 4.7159
" />
<path d="M47.8486 4.7159
L47.9091 4.7764
" />
<path d="M47.9091 4.7764
L47.9695 4.8973
" />
<path d="M47.9695 4.8973
L47.9695 5.0183
" />
<path d="M47.9695 5.0183
L47.9091 5.1392
" />
<path d="M47.9091 5.1392
L47.8486 5.1997
" />
<path d="M47.8486 5.1997
L47.7276 5.2602
" />
<path d="M47.7276 5.2602
L47.4857 5.3206
" />
<path d="M47.4857 5.3206
L47.1833 5.3206
" />
<path d="M47.1833 5.3206
L46.9414 5.2602
" />
<path d="M46.9414 5.2602
L46.8205 5.1997
" />
<path d="M46.8205 5.1997
L46.7600 5.1392
" />
<path d="M46.7600 5.1392
L46.6995 5.0183
" />
</g></g>
<g style="fill:#840000; fill-opacity:0.0; 
stroke:#840000; stroke-width:0.1524; stroke-opacity:1; 
stroke-linecap:round; stroke-linejoin:round;">
<path d="M48.3870 15.0876
L48.3870 18.8976
" />
</g>
<g style="fill:#006464; fill-opacity:0.0; 
stroke:#006464; stroke-width:0.1524; stroke-opacity:1; 
stroke-linecap:round; stroke-linejoin:round;">
<g transform="rotate(-90.000000 48.3870 14.5796)">
<text x="48.3870" y="15.2146"
textLength="2.8642" font-size="1.6933" lengthAdjust="spacingAndGlyphs"
text-anchor="start" opacity="0">V-</text>
</g>
<g class="stroked-text"><desc>V-</desc>
<path d="M47.6965 14.3584
L48.9665 13.9351
" />
<path d="M48.9665 13.9351
L47.6965 13.5117
" />
<path d="M48.4827 13.0884
L48.4827 12.1208
" />
</g></g>
<g style="fill:#A90000; fill-opacity:0.0; 
stroke:#A90000; stroke-width:0.1524; stroke-opacity:1; 
stroke-linecap:round; stroke-linejoin:round;">
<g transform="rotate(-90.000000 48.1330 16.9926)">
<text x="48.1330" y="16.9926"
textLength="1.4127" font-size="1.6933" lengthAdjust="spacingAndGlyphs"
text-anchor="middle" opacity="0">4</text>
</g>
<g class="stroked-text"><desc>4</desc>
<path d="M47.1229 16.7506
L47.9695 16.7506
" />
<path d="M46.6391 17.0530
L47.5462 17.3553
" />
<path d="M47.5462 17.3553
L47.5462 16.5692
" />
</g></g>
<g style="fill:#840084; fill-opacity:0.0; 
stroke:#840084; stroke-width:0.1524; stroke-opacity:1; 
stroke-linecap:round; stroke-linejoin:round;">
</g>
<g style="fill:#006464; fill-opacity:0.0; 
stroke:#006464; stroke-width:0.1524; stroke-opacity:1; 
stroke-linecap:round; stroke-linejoin:round;">
</g>
<g style="fill:#006464; fill-opacity:0.0; 
stroke:#006464; stroke-width:0.1588; stroke-opacity:1; 
stroke-linecap:round; stroke-linejoin:round;">
<text x="52.2477" y="5.5626"
textLength="2.6415" font-size="1.6933" lengthAdjust="spacingAndGlyphs"
text-anchor="middle" opacity="0">U?</text>
<g class="stroked-text"><desc>U?</desc>
<path d="M51.3405 4.2368
L51.3405 5.2649
" />
<path d="M51.3405 5.2649
L51.4010 5.3859
" />
<path d="M51.4010 5.3859
L51.4615 5.4464
" />
<path d="M51.4615 5.4464
L51.5824 5.5068
" />
<path d="M51.5824 5.5068
L51.8243 5.5068
" />
<path d="M51.8243 5.5068
L51.9453 5.4464
" />
<path d="M51.9453 5.4464
L52.0058 5.3859
" />
<path d="M52.0058 5.3859
L52.0662 5.2649
" />
<path d="M52.0662 5.2649
L52.0662 4.2368
" />
<path d="M52.8525 5.3859
L52.9129 5.4464
" />
<path d="M52.9129 5.4464
L52.8525 5.5068
" />
<path d="M52.8525 5.5068
L52.7920 5.4464
" />
<path d="M52.7920 5.4464
L52.8525 5.3859
" />
<path d="M52.8525 5.3859
L52.8525 5.5068
" />
<path d="M52.6106 4.2973
L52.7315 4.2368
" />
<path d="M52.7315 4.2368
L53.0339 4.2368
" />
<path d="M53.0339 4.2368
L53.1548 4.2973
" />
<path d="M53.1548 4.2973
L53.2153 4.4183
" />
<path d="M53.2153 4.4183
L53.2153 4.5392
" />
<path d="M53.2153 4.5392
L53.1548 4.6602
" />
<path d="M53.1548 4.6602
L53.0944 4.7206
" />
<path d="M53.0944 4.7206
L52.9734 4.7811
" />
<path d="M52.9734 4.7811
L52.9129 4.8416
" />
<path d="M52.9129 4.8416
L52.8525 4.9625
" />
<path d="M52.8525 4.9625
L52.8525 5.0230
" />
</g><text x="56.8741" y="8.1026"
textLength="11.8942" font-size="1.6933" lengthAdjust="spacingAndGlyphs"
text-anchor="middle" opacity="0">LTC6269xDD</text>
<g class="stroked-text"><desc>LTC6269xDD</desc>
<path d="M51.9453 8.0468
L51.3405 8.0468
" />
<path d="M51.3405 8.0468
L51.3405 6.7768
" />
<path d="M52.1872 6.7768
L52.9129 6.7768
" />
<path d="M52.5501 8.0468
L52.5501 6.7768
" />
<path d="M54.0619 7.9259
L54.0015 7.9864
" />
<path d="M54.0015 7.9864
L53.8200 8.0468
" />
<path d="M53.8200 8.0468
L53.6991 8.0468
" />
<path d="M53.6991 8.0468
L53.5177 7.9864
" />
<path d="M53.5177 7.9864
L53.3967 7.8654
" />
<path d="M53.3967 7.8654
L53.3362 7.7444
" />
<path d="M53.3362 7.7444
L53.2758 7.5025
" />
<path d="M53.2758 7.5025
L53.2758 7.3211
" />
<path d="M53.2758 7.3211
L53.3362 7.0792
" />
<path d="M53.3362 7.0792
L53.3967 6.9583
" />
<path d="M53.3967 6.9583
L53.5177 6.8373
" />
<path d="M53.5177 6.8373
L53.6991 6.7768
" />
<path d="M53.6991 6.7768
L53.8200 6.7768
" />
<path d="M53.8200 6.7768
L54.0015 6.8373
" />
<path d="M54.0015 6.8373
L54.0619 6.8978
" />
<path d="M55.1505 6.7768
L54.9086 6.7768
" />
<path d="M54.9086 6.7768
L54.7877 6.8373
" />
<path d="M54.7877 6.8373
L54.7272 6.8978
" />
<path d="M54.7272 6.8978
L54.6062 7.0792
" />
<path d="M54.6062 7.0792
L54.5458 7.3211
" />
<path d="M54.5458 7.3211
L54.5458 7.8049
" />
<path d="M54.5458 7.8049
L54.6062 7.9259
" />
<path d="M54.6062 7.9259
L54.6667 7.9864
" />
<path d="M54.6667 7.9864
L54.7877 8.0468
" />
<path d="M54.7877 8.0468
L55.0296 8.0468
" />
<path d="M55.0296 8.0468
L55.1505 7.9864
" />
<path d="M55.1505 7.9864
L55.2110 7.9259
" />
<path d="M55.2110 7.9259
L55.2715 7.8049
" />
<path d="M55.2715 7.8049
L55.2715 7.5025
" />
<path d="M55.2715 7.5025
L55.2110 7.3816
" />
<path d="M55.2110 7.3816
L55.1505 7.3211
" />
<path d="M55.1505 7.3211
L55.0296 7.2606
" />
<path d="M55.0296 7.2606
L54.7877 7.2606
" />
<path d="M54.7877 7.2606
L54.6667 7.3211
" />
<path d="M54.6667 7.3211
L54.6062 7.3816
" />
<path d="M54.6062 7.3816
L54.5458 7.5025
" />
<path d="M55.7553 6.8978
L55.8157 6.8373
" />
<path d="M55.8157 6.8373
L55.9367 6.7768
" />
<path d="M55.9367 6.7768
L56.2391 6.7768
" />
<path d="M56.2391 6.7768
L56.3600 6.8373
" />
<path d="M56.3600 6.8373
L56.4205 6.8978
" />
<path d="M56.4205 6.8978
L56.4810 7.0187
" />
<path d="M56.4810 7.0187
L56.4810 7.1397
" />
<path d="M56.4810 7.1397
L56.4205 7.3211
" />
<path d="M56.4205 7.3211
L55.6948 8.0468
" />
<path d="M55.6948 8.0468
L56.4810 8.0468
" />
<path d="M57.5695 6.7768
L57.3276 6.7768
" />
<path d="M57.3276 6.7768
L57.2067 6.8373
" />
<path d="M57.2067 6.8373
L57.1462 6.8978
" />
<path d="M57.1462 6.8978
L57.0252 7.0792
" />
<path d="M57.0252 7.0792
L56.9648 7.3211
" />
<path d="M56.9648 7.3211
L56.9648 7.8049
" />
<path d="M56.9648 7.8049
L57.0252 7.9259
" />
<path d="M57.0252 7.9259
L57.0857 7.9864
" />
<path d="M57.0857 7.9864
L57.2067 8.0468
" />
<path d="M57.2067 8.0468
L57.4486 8.0468
" />
<path d="M57.4486 8.0468
L57.5695 7.9864
" />
<path d="M57.5695 7.9864
L57.6300 7.9259
" />
<path d="M57.6300 7.9259
L57.6905 7.8049
" />
<path d="M57.6905 7.8049
L57.6905 7.5025
" />
<path d="M57.6905 7.5025
L57.6300 7.3816
" />
<path d="M57.6300 7.3816
L57.5695 7.3211
" />
<path d="M57.5695 7.3211
L57.4486 7.2606
" />
<path d="M57.4486 7.2606
L57.2067 7.2606
" />
<path d="M57.2067 7.2606
L57.0857 7.3211
" />
<path d="M57.0857 7.3211
L57.0252 7.3816
" />
<path d="M57.0252 7.3816
L56.9648 7.5025
" />
<path d="M58.2952 8.0468
L58.5371 8.0468
" />
<path d="M58.5371 8.0468
L58.6581 7.9864
" />
<path d="M58.6581 7.9864
L58.7185 7.9259
" />
<path d="M58.7185 7.9259
L58.8395 7.7444
" />
<path d="M58.8395 7.7444
L58.9000 7.5025
" />
<path d="M58.9000 7.5025
L58.9000 7.0187
" />
<path d="M58.9000 7.0187
L58.8395 6.8978
" />
<path d="M58.8395 6.8978
L58.7790 6.8373
" />
<path d="M58.7790 6.8373
L58.6581 6.7768
" />
<path d="M58.6581 6.7768
L58.4162 6.7768
" />
<path d="M58.4162 6.7768
L58.2952 6.8373
" />
<path d="M58.2952 6.8373
L58.2347 6.8978
" />
<path d="M58.2347 6.8978
L58.1743 7.0187
" />
<path d="M58.1743 7.0187
L58.1743 7.3211
" />
<path d="M58.1743 7.3211
L58.2347 7.4421
" />
<path d="M58.2347 7.4421
L58.2952 7.5025
" />
<path d="M58.2952 7.5025
L58.4162 7.5630
" />
<path d="M58.4162 7.5630
L58.6581 7.5630
" />
<path d="M58.6581 7.5630
L58.7790 7.5025
" />
<path d="M58.7790 7.5025
L58.8395 7.4421
" />
<path d="M58.8395 7.4421
L58.9000 7.3211
" />
<path d="M59.3233 8.0468
L59.9885 7.2002
" />
<path d="M59.3233 7.2002
L59.9885 8.0468
" />
<path d="M60.4723 8.0468
L60.4723 6.7768
" />
<path d="M60.4723 6.7768
L60.7747 6.7768
" />
<path d="M60.7747 6.7768
L60.9561 6.8373
" />
<path d="M60.9561 6.8373
L61.0771 6.9583
" />
<path d="M61.0771 6.9583
L61.1376 7.0792
" />
<path d="M61.1376 7.0792
L61.1980 7.3211
" />
<path d="M61.1980 7.3211
L61.1980 7.5025
" />
<path d="M61.1980 7.5025
L61.1376 7.7444
" />
<path d="M61.1376 7.7444
L61.0771 7.8654
" />
<path d="M61.0771 7.8654
L60.9561 7.9864
" />
<path d="M60.9561 7.9864
L60.7747 8.0468
" />
<path d="M60.7747 8.0468
L60.4723 8.0468
" />
<path d="M61.7423 8.0468
L61.7423 6.7768
" />
<path d="M61.7423 6.7768
L62.0447 6.7768
" />
<path d="M62.0447 6.7768
L62.2261 6.8373
" />
<path d="M62.2261 6.8373
L62.3471 6.9583
" />
<path d="M62.3471 6.9583
L62.4076 7.0792
" />
<path d="M62.4076 7.0792
L62.4680 7.3211
" />
<path d="M62.4680 7.3211
L62.4680 7.5025
" />
<path d="M62.4680 7.5025
L62.4076 7.7444
" />
<path d="M62.4076 7.7444
L62.3471 7.8654
" />
<path d="M62.3471 7.8654
L62.2261 7.9864
" />
<path d="M62.2261 7.9864
L62.0447 8.0468
" />
<path d="M62.0447 8.0468
L61.7423 8.0468
" />
</g></g> 
</svg>
