<?xml version="1.0" standalone="no"?>
 <!DOCTYPE svg PUBLIC "-//W3C//DTD SVG 1.1//EN" 
 "http://www.w3.org/Graphics/SVG/1.1/DTD/svg11.dtd"> 
<svg
  xmlns:svg="http://www.w3.org/2000/svg"
  xmlns="http://www.w3.org/2000/svg"
  xmlns:xlink="http://www.w3.org/1999/xlink"
  version="1.1"
  width="55.4228mm" height="25.3238mm" viewBox="0.0000 0.0000 55.4228 25.3238">
<title>SVG Image created as tlv9302xd.svg date 2024/01/16 15:08:54 </title>
  <desc>Image generated by Eeschema-SVG </desc>
<g style="fill:#000000; fill-opacity:1.0000;stroke:#000000; stroke-opacity:1.0000;
stroke-linecap:round; stroke-linejoin:round;"
 transform="translate(0 0) scale(1 1)">
</g>
<g style="fill:#840000; fill-opacity:0.0; 
stroke:#840000; stroke-width:0.0000; stroke-opacity:1; 
stroke-linecap:round; stroke-linejoin:round;">
</g>
<g style="fill:#840084; fill-opacity:0.0; 
stroke:#840084; stroke-width:0.0000; stroke-opacity:1; 
stroke-linecap:round; stroke-linejoin:round;">
</g>
<g style="fill:#840000; fill-opacity:0.0; 
stroke:#840000; stroke-width:0.0000; stroke-opacity:1; 
stroke-linecap:round; stroke-linejoin:round;">
</g>
<g style="fill:#840000; fill-opacity:0.0; 
stroke:#840000; stroke-width:0.1524; stroke-opacity:1; 
stroke-linecap:round; stroke-linejoin:round;">
<path d="M25.1714 16.4719
L25.1714 20.2819
" />
</g>
<g style="fill:#006464; fill-opacity:0.0; 
stroke:#006464; stroke-width:0.1524; stroke-opacity:1; 
stroke-linecap:round; stroke-linejoin:round;">
<g transform="rotate(-90.000000 25.1714 16.3449)">
<text x="25.1714" y="16.9799"
textLength="2.8642" font-size="1.6933" lengthAdjust="spacingAndGlyphs"
text-anchor="start" opacity="0">V-</text>
</g>
<g class="stroked-text"><desc>V-</desc>
<path d="M24.4809 16.1237
L25.7509 15.7004
" />
<path d="M25.7509 15.7004
L24.4809 15.2770
" />
<path d="M25.2671 14.8537
L25.2671 13.8861
" />
</g></g>
<g style="fill:#A90000; fill-opacity:0.0; 
stroke:#A90000; stroke-width:0.1524; stroke-opacity:1; 
stroke-linecap:round; stroke-linejoin:round;">
<g transform="rotate(-90.000000 24.9174 18.3769)">
<text x="24.9174" y="18.3769"
textLength="1.4127" font-size="1.6933" lengthAdjust="spacingAndGlyphs"
text-anchor="middle" opacity="0">4</text>
</g>
<g class="stroked-text"><desc>4</desc>
<path d="M23.9073 18.1349
L24.7539 18.1349
" />
<path d="M23.4235 18.4373
L24.3306 18.7396
" />
<path d="M24.3306 18.7396
L24.3306 17.9535
" />
</g></g>
<g style="fill:#840000; fill-opacity:0.0; 
stroke:#840000; stroke-width:0.1524; stroke-opacity:1; 
stroke-linecap:round; stroke-linejoin:round;">
<path d="M25.1714 8.8519
L25.1714 5.0419
" />
</g>
<g style="fill:#006464; fill-opacity:0.0; 
stroke:#006464; stroke-width:0.1524; stroke-opacity:1; 
stroke-linecap:round; stroke-linejoin:round;">
<g transform="rotate(-90.000000 25.1714 8.9789)">
<text x="25.1714" y="9.6139"
textLength="2.8642" font-size="1.6933" lengthAdjust="spacingAndGlyphs"
text-anchor="end" opacity="0">V+</text>
</g>
<g class="stroked-text"><desc>V+</desc>
<path d="M24.4809 11.6191
L25.7509 11.1958
" />
<path d="M25.7509 11.1958
L24.4809 10.7724
" />
<path d="M25.2671 10.3491
L25.2671 9.3815
" />
<path d="M25.7509 9.8653
L24.7833 9.8653
" />
</g></g>
<g style="fill:#A90000; fill-opacity:0.0; 
stroke:#A90000; stroke-width:0.1524; stroke-opacity:1; 
stroke-linecap:round; stroke-linejoin:round;">
<g transform="rotate(-90.000000 24.9174 6.9469)">
<text x="24.9174" y="6.9469"
textLength="1.4127" font-size="1.6933" lengthAdjust="spacingAndGlyphs"
text-anchor="middle" opacity="0">8</text>
</g>
<g class="stroked-text"><desc>8</desc>
<path d="M24.0282 7.0677
L23.9677 7.1887
" />
<path d="M23.9677 7.1887
L23.9073 7.2492
" />
<path d="M23.9073 7.2492
L23.7863 7.3096
" />
<path d="M23.7863 7.3096
L23.7258 7.3096
" />
<path d="M23.7258 7.3096
L23.6049 7.2492
" />
<path d="M23.6049 7.2492
L23.5444 7.1887
" />
<path d="M23.5444 7.1887
L23.4839 7.0677
" />
<path d="M23.4839 7.0677
L23.4839 6.8258
" />
<path d="M23.4839 6.8258
L23.5444 6.7049
" />
<path d="M23.5444 6.7049
L23.6049 6.6444
" />
<path d="M23.6049 6.6444
L23.7258 6.5839
" />
<path d="M23.7258 6.5839
L23.7863 6.5839
" />
<path d="M23.7863 6.5839
L23.9073 6.6444
" />
<path d="M23.9073 6.6444
L23.9677 6.7049
" />
<path d="M23.9677 6.7049
L24.0282 6.8258
" />
<path d="M24.0282 6.8258
L24.0282 7.0677
" />
<path d="M24.0282 7.0677
L24.0887 7.1887
" />
<path d="M24.0887 7.1887
L24.1492 7.2492
" />
<path d="M24.1492 7.2492
L24.2701 7.3096
" />
<path d="M24.2701 7.3096
L24.5120 7.3096
" />
<path d="M24.5120 7.3096
L24.6330 7.2492
" />
<path d="M24.6330 7.2492
L24.6935 7.1887
" />
<path d="M24.6935 7.1887
L24.7539 7.0677
" />
<path d="M24.7539 7.0677
L24.7539 6.8258
" />
<path d="M24.7539 6.8258
L24.6935 6.7049
" />
<path d="M24.6935 6.7049
L24.6330 6.6444
" />
<path d="M24.6330 6.6444
L24.5120 6.5839
" />
<path d="M24.5120 6.5839
L24.2701 6.5839
" />
<path d="M24.2701 6.5839
L24.1492 6.6444
" />
<path d="M24.1492 6.6444
L24.0887 6.7049
" />
<path d="M24.0887 6.7049
L24.0282 6.8258
" />
</g></g>
<g style="fill:#840084; fill-opacity:0.0; 
stroke:#840084; stroke-width:0.1524; stroke-opacity:1; 
stroke-linecap:round; stroke-linejoin:round;">
</g>
<g style="fill:#006464; fill-opacity:0.0; 
stroke:#006464; stroke-width:0.1524; stroke-opacity:1; 
stroke-linecap:round; stroke-linejoin:round;">
</g>
<g style="fill:#006464; fill-opacity:0.0; 
stroke:#006464; stroke-width:0.1588; stroke-opacity:1; 
stroke-linecap:round; stroke-linejoin:round;">
<text x="29.0321" y="8.2169"
textLength="2.6415" font-size="1.6933" lengthAdjust="spacingAndGlyphs"
text-anchor="middle" opacity="0">U?</text>
<g class="stroked-text"><desc>U?</desc>
<path d="M28.1249 6.8911
L28.1249 7.9192
" />
<path d="M28.1249 7.9192
L28.1854 8.0402
" />
<path d="M28.1854 8.0402
L28.2459 8.1007
" />
<path d="M28.2459 8.1007
L28.3668 8.1611
" />
<path d="M28.3668 8.1611
L28.6087 8.1611
" />
<path d="M28.6087 8.1611
L28.7297 8.1007
" />
<path d="M28.7297 8.1007
L28.7902 8.0402
" />
<path d="M28.7902 8.0402
L28.8506 7.9192
" />
<path d="M28.8506 7.9192
L28.8506 6.8911
" />
<path d="M29.6369 8.0402
L29.6973 8.1007
" />
<path d="M29.6973 8.1007
L29.6369 8.1611
" />
<path d="M29.6369 8.1611
L29.5764 8.1007
" />
<path d="M29.5764 8.1007
L29.6369 8.0402
" />
<path d="M29.6369 8.0402
L29.6369 8.1611
" />
<path d="M29.3950 6.9516
L29.5159 6.8911
" />
<path d="M29.5159 6.8911
L29.8183 6.8911
" />
<path d="M29.8183 6.8911
L29.9392 6.9516
" />
<path d="M29.9392 6.9516
L29.9997 7.0726
" />
<path d="M29.9997 7.0726
L29.9997 7.1935
" />
<path d="M29.9997 7.1935
L29.9392 7.3145
" />
<path d="M29.9392 7.3145
L29.8788 7.3749
" />
<path d="M29.8788 7.3749
L29.7578 7.4354
" />
<path d="M29.7578 7.4354
L29.6973 7.4959
" />
<path d="M29.6973 7.4959
L29.6369 7.6168
" />
<path d="M29.6369 7.6168
L29.6369 7.6773
" />
</g><text x="32.9328" y="18.3769"
textLength="10.4428" font-size="1.6933" lengthAdjust="spacingAndGlyphs"
text-anchor="middle" opacity="0">TLV9302xD</text>
<g class="stroked-text"><desc>TLV9302xD</desc>
<path d="M27.9435 17.0511
L28.6692 17.0511
" />
<path d="M28.3064 18.3211
L28.3064 17.0511
" />
<path d="M29.6973 18.3211
L29.0925 18.3211
" />
<path d="M29.0925 18.3211
L29.0925 17.0511
" />
<path d="M29.9392 17.0511
L30.3625 18.3211
" />
<path d="M30.3625 18.3211
L30.7859 17.0511
" />
<path d="M31.2697 18.3211
L31.5116 18.3211
" />
<path d="M31.5116 18.3211
L31.6326 18.2607
" />
<path d="M31.6326 18.2607
L31.6930 18.2002
" />
<path d="M31.6930 18.2002
L31.8140 18.0187
" />
<path d="M31.8140 18.0187
L31.8745 17.7768
" />
<path d="M31.8745 17.7768
L31.8745 17.2930
" />
<path d="M31.8745 17.2930
L31.8140 17.1721
" />
<path d="M31.8140 17.1721
L31.7535 17.1116
" />
<path d="M31.7535 17.1116
L31.6326 17.0511
" />
<path d="M31.6326 17.0511
L31.3907 17.0511
" />
<path d="M31.3907 17.0511
L31.2697 17.1116
" />
<path d="M31.2697 17.1116
L31.2092 17.1721
" />
<path d="M31.2092 17.1721
L31.1488 17.2930
" />
<path d="M31.1488 17.2930
L31.1488 17.5954
" />
<path d="M31.1488 17.5954
L31.2092 17.7164
" />
<path d="M31.2092 17.7164
L31.2697 17.7768
" />
<path d="M31.2697 17.7768
L31.3907 17.8373
" />
<path d="M31.3907 17.8373
L31.6326 17.8373
" />
<path d="M31.6326 17.8373
L31.7535 17.7768
" />
<path d="M31.7535 17.7768
L31.8140 17.7164
" />
<path d="M31.8140 17.7164
L31.8745 17.5954
" />
<path d="M32.2978 17.0511
L33.0840 17.0511
" />
<path d="M33.0840 17.0511
L32.6606 17.5349
" />
<path d="M32.6606 17.5349
L32.8421 17.5349
" />
<path d="M32.8421 17.5349
L32.9630 17.5954
" />
<path d="M32.9630 17.5954
L33.0235 17.6559
" />
<path d="M33.0235 17.6559
L33.0840 17.7768
" />
<path d="M33.0840 17.7768
L33.0840 18.0792
" />
<path d="M33.0840 18.0792
L33.0235 18.2002
" />
<path d="M33.0235 18.2002
L32.9630 18.2607
" />
<path d="M32.9630 18.2607
L32.8421 18.3211
" />
<path d="M32.8421 18.3211
L32.4792 18.3211
" />
<path d="M32.4792 18.3211
L32.3583 18.2607
" />
<path d="M32.3583 18.2607
L32.2978 18.2002
" />
<path d="M33.8701 17.0511
L33.9911 17.0511
" />
<path d="M33.9911 17.0511
L34.1120 17.1116
" />
<path d="M34.1120 17.1116
L34.1725 17.1721
" />
<path d="M34.1725 17.1721
L34.2330 17.2930
" />
<path d="M34.2330 17.2930
L34.2935 17.5349
" />
<path d="M34.2935 17.5349
L34.2935 17.8373
" />
<path d="M34.2935 17.8373
L34.2330 18.0792
" />
<path d="M34.2330 18.0792
L34.1725 18.2002
" />
<path d="M34.1725 18.2002
L34.1120 18.2607
" />
<path d="M34.1120 18.2607
L33.9911 18.3211
" />
<path d="M33.9911 18.3211
L33.8701 18.3211
" />
<path d="M33.8701 18.3211
L33.7492 18.2607
" />
<path d="M33.7492 18.2607
L33.6887 18.2002
" />
<path d="M33.6887 18.2002
L33.6282 18.0792
" />
<path d="M33.6282 18.0792
L33.5678 17.8373
" />
<path d="M33.5678 17.8373
L33.5678 17.5349
" />
<path d="M33.5678 17.5349
L33.6282 17.2930
" />
<path d="M33.6282 17.2930
L33.6887 17.1721
" />
<path d="M33.6887 17.1721
L33.7492 17.1116
" />
<path d="M33.7492 17.1116
L33.8701 17.0511
" />
<path d="M34.7773 17.1721
L34.8377 17.1116
" />
<path d="M34.8377 17.1116
L34.9587 17.0511
" />
<path d="M34.9587 17.0511
L35.2611 17.0511
" />
<path d="M35.2611 17.0511
L35.3820 17.1116
" />
<path d="M35.3820 17.1116
L35.4425 17.1721
" />
<path d="M35.4425 17.1721
L35.5030 17.2930
" />
<path d="M35.5030 17.2930
L35.5030 17.4140
" />
<path d="M35.5030 17.4140
L35.4425 17.5954
" />
<path d="M35.4425 17.5954
L34.7168 18.3211
" />
<path d="M34.7168 18.3211
L35.5030 18.3211
" />
<path d="M35.9263 18.3211
L36.5915 17.4745
" />
<path d="M35.9263 17.4745
L36.5915 18.3211
" />
<path d="M37.0753 18.3211
L37.0753 17.0511
" />
<path d="M37.0753 17.0511
L37.3777 17.0511
" />
<path d="M37.3777 17.0511
L37.5591 17.1116
" />
<path d="M37.5591 17.1116
L37.6801 17.2326
" />
<path d="M37.6801 17.2326
L37.7406 17.3535
" />
<path d="M37.7406 17.3535
L37.8010 17.5954
" />
<path d="M37.8010 17.5954
L37.8010 17.7768
" />
<path d="M37.8010 17.7768
L37.7406 18.0187
" />
<path d="M37.7406 18.0187
L37.6801 18.1397
" />
<path d="M37.6801 18.1397
L37.5591 18.2607
" />
<path d="M37.5591 18.2607
L37.3777 18.3211
" />
<path d="M37.3777 18.3211
L37.0753 18.3211
" />
</g></g> 
</svg>
