<?xml version="1.0" standalone="no"?>
 <!DOCTYPE svg PUBLIC "-//W3C//DTD SVG 1.1//EN" 
 "http://www.w3.org/Graphics/SVG/1.1/DTD/svg11.dtd"> 
<svg
  xmlns:svg="http://www.w3.org/2000/svg"
  xmlns="http://www.w3.org/2000/svg"
  xmlns:xlink="http://www.w3.org/1999/xlink"
  version="1.1"
  width="70.5866mm" height="24.3840mm" viewBox="0.0000 0.0000 70.5866 24.3840">
<title>SVG Image created as ds1621.svg date 2024/01/16 15:12:35 </title>
  <desc>Image generated by Eeschema-SVG </desc>
<g style="fill:#000000; fill-opacity:1.0000;stroke:#000000; stroke-opacity:1.0000;
stroke-linecap:round; stroke-linejoin:round;"
 transform="translate(0 0) scale(1 1)">
</g>
<g style="fill:#840000; fill-opacity:0.0; 
stroke:#840000; stroke-width:0.0000; stroke-opacity:1; 
stroke-linecap:round; stroke-linejoin:round;">
</g>
<g style="fill:#FFFFC2; fill-opacity:0.0; 
stroke:#FFFFC2; stroke-width:0.0000; stroke-opacity:1; 
stroke-linecap:round; stroke-linejoin:round;">
</g>
<g style="fill:#FFFFC2; fill-opacity:1.0000; 
stroke:#FFFFC2; stroke-width:0.0000; stroke-opacity:1; 
stroke-linecap:round; stroke-linejoin:round;">
<rect x="25.133300" y="4.572000" width="20.320000" height="15.240000" rx="0.000000" />
</g>
<g style="fill:#840084; fill-opacity:1.0000; 
stroke:#840084; stroke-width:0.0000; stroke-opacity:1; 
stroke-linecap:round; stroke-linejoin:round;">
</g>
<g style="fill:#840000; fill-opacity:1.0000; 
stroke:#840000; stroke-width:0.0000; stroke-opacity:1; 
stroke-linecap:round; stroke-linejoin:round;">
</g>
<g style="fill:#840000; fill-opacity:0.0; 
stroke:#840000; stroke-width:0.2540; stroke-opacity:1; 
stroke-linecap:round; stroke-linejoin:round;">
<rect x="25.133300" y="4.572000" width="20.320000" height="15.240000" rx="0.000000" />
</g>
<g style="fill:#840000; fill-opacity:1.0000; 
stroke:#840000; stroke-width:0.2540; stroke-opacity:1; 
stroke-linecap:round; stroke-linejoin:round;">
<circle cx="31.9913" cy="14.7320" r="1.2700" /> 
<rect x="31.356300" y="12.192000" width="1.270000" height="1.905000" rx="0.000000" />
</g>
<g style="fill:#840000; fill-opacity:0.0; 
stroke:#840000; stroke-width:0.2540; stroke-opacity:1; 
stroke-linecap:round; stroke-linejoin:round;">
<path d="M32.6263 9.0170 A0.6350 0.6350 0.0 0 0 31.3563 9.0170" />
<path style="fill:#840000; fill-opacity:0.0; 
stroke:#840000; stroke-width:0.2540; stroke-opacity:1; 
stroke-linecap:round; stroke-linejoin:round;fill:none"
d="M 31.3563,11.5570
31.9913,11.5570
" /> 
<path style="fill:#840000; fill-opacity:0.0; 
stroke:#840000; stroke-width:0.2540; stroke-opacity:1; 
stroke-linecap:round; stroke-linejoin:round;fill:none"
d="M 31.3563,10.9220
31.9913,10.9220
" /> 
<path style="fill:#840000; fill-opacity:0.0; 
stroke:#840000; stroke-width:0.2540; stroke-opacity:1; 
stroke-linecap:round; stroke-linejoin:round;fill:none"
d="M 31.3563,10.2870
31.9913,10.2870
" /> 
<path style="fill:#840000; fill-opacity:0.0; 
stroke:#840000; stroke-width:0.2540; stroke-opacity:1; 
stroke-linecap:round; stroke-linejoin:round;fill:none"
d="M 31.3563,9.6520
31.9913,9.6520
" /> 
<path style="fill:#840000; fill-opacity:0.0; 
stroke:#840000; stroke-width:0.2540; stroke-opacity:1; 
stroke-linecap:round; stroke-linejoin:round;fill:none"
d="M 31.3563,9.0170
31.3563,12.1920
" /> 
<path style="fill:#840000; fill-opacity:0.0; 
stroke:#840000; stroke-width:0.2540; stroke-opacity:1; 
stroke-linecap:round; stroke-linejoin:round;fill:none"
d="M 31.3563,9.0170
31.9913,9.0170
" /> 
<path style="fill:#840000; fill-opacity:0.0; 
stroke:#840000; stroke-width:0.2540; stroke-opacity:1; 
stroke-linecap:round; stroke-linejoin:round;fill:none"
d="M 32.6263,9.0170
32.6263,12.1920
" /> 
</g>
<g style="fill:#840000; fill-opacity:0.0; 
stroke:#840000; stroke-width:0.1524; stroke-opacity:1; 
stroke-linecap:round; stroke-linejoin:round;">
<path d="M25.1333 7.1120
L22.5933 7.1120
" />
</g>
<g style="fill:#006464; fill-opacity:0.0; 
stroke:#006464; stroke-width:0.1524; stroke-opacity:1; 
stroke-linecap:round; stroke-linejoin:round;">
<text x="25.6413" y="7.7470"
textLength="3.7713" font-size="1.6933" lengthAdjust="spacingAndGlyphs"
text-anchor="start" opacity="0">SDA</text>
<g class="stroked-text"><desc>SDA</desc>
<path d="M25.9834 7.6311
L26.1648 7.6915
" />
<path d="M26.1648 7.6915
L26.4672 7.6915
" />
<path d="M26.4672 7.6915
L26.5881 7.6311
" />
<path d="M26.5881 7.6311
L26.6486 7.5706
" />
<path d="M26.6486 7.5706
L26.7091 7.4496
" />
<path d="M26.7091 7.4496
L26.7091 7.3287
" />
<path d="M26.7091 7.3287
L26.6486 7.2077
" />
<path d="M26.6486 7.2077
L26.5881 7.1472
" />
<path d="M26.5881 7.1472
L26.4672 7.0868
" />
<path d="M26.4672 7.0868
L26.2253 7.0263
" />
<path d="M26.2253 7.0263
L26.1043 6.9658
" />
<path d="M26.1043 6.9658
L26.0438 6.9053
" />
<path d="M26.0438 6.9053
L25.9834 6.7844
" />
<path d="M25.9834 6.7844
L25.9834 6.6634
" />
<path d="M25.9834 6.6634
L26.0438 6.5425
" />
<path d="M26.0438 6.5425
L26.1043 6.4820
" />
<path d="M26.1043 6.4820
L26.2253 6.4215
" />
<path d="M26.2253 6.4215
L26.5276 6.4215
" />
<path d="M26.5276 6.4215
L26.7091 6.4820
" />
<path d="M27.2533 7.6915
L27.2533 6.4215
" />
<path d="M27.2533 6.4215
L27.5557 6.4215
" />
<path d="M27.5557 6.4215
L27.7371 6.4820
" />
<path d="M27.7371 6.4820
L27.8581 6.6030
" />
<path d="M27.8581 6.6030
L27.9186 6.7239
" />
<path d="M27.9186 6.7239
L27.9790 6.9658
" />
<path d="M27.9790 6.9658
L27.9790 7.1472
" />
<path d="M27.9790 7.1472
L27.9186 7.3891
" />
<path d="M27.9186 7.3891
L27.8581 7.5101
" />
<path d="M27.8581 7.5101
L27.7371 7.6311
" />
<path d="M27.7371 7.6311
L27.5557 7.6915
" />
<path d="M27.5557 7.6915
L27.2533 7.6915
" />
<path d="M28.4629 7.3287
L29.0676 7.3287
" />
<path d="M28.3419 7.6915
L28.7652 6.4215
" />
<path d="M28.7652 6.4215
L29.1886 7.6915
" />
</g></g>
<g style="fill:#A90000; fill-opacity:0.0; 
stroke:#A90000; stroke-width:0.1524; stroke-opacity:1; 
stroke-linecap:round; stroke-linejoin:round;">
<text x="23.8633" y="6.8580"
textLength="1.4127" font-size="1.6933" lengthAdjust="spacingAndGlyphs"
text-anchor="middle" opacity="0">1</text>
<g class="stroked-text"><desc>1</desc>
<path d="M24.2262 6.6945
L23.5005 6.6945
" />
<path d="M23.8633 6.6945
L23.8633 5.4245
" />
<path d="M23.8633 5.4245
L23.7424 5.6060
" />
<path d="M23.7424 5.6060
L23.6214 5.7269
" />
<path d="M23.6214 5.7269
L23.5005 5.7874
" />
</g></g>
<g style="fill:#840000; fill-opacity:0.0; 
stroke:#840000; stroke-width:0.1524; stroke-opacity:1; 
stroke-linecap:round; stroke-linejoin:round;">
<path d="M25.1333 9.6520
L22.5933 9.6520
" />
</g>
<g style="fill:#006464; fill-opacity:0.0; 
stroke:#006464; stroke-width:0.1524; stroke-opacity:1; 
stroke-linecap:round; stroke-linejoin:round;">
<text x="25.6413" y="10.2870"
textLength="3.7108" font-size="1.6933" lengthAdjust="spacingAndGlyphs"
text-anchor="start" opacity="0">SCL</text>
<g class="stroked-text"><desc>SCL</desc>
<path d="M25.9834 10.1711
L26.1648 10.2315
" />
<path d="M26.1648 10.2315
L26.4672 10.2315
" />
<path d="M26.4672 10.2315
L26.5881 10.1711
" />
<path d="M26.5881 10.1711
L26.6486 10.1106
" />
<path d="M26.6486 10.1106
L26.7091 9.9896
" />
<path d="M26.7091 9.9896
L26.7091 9.8687
" />
<path d="M26.7091 9.8687
L26.6486 9.7477
" />
<path d="M26.6486 9.7477
L26.5881 9.6872
" />
<path d="M26.5881 9.6872
L26.4672 9.6268
" />
<path d="M26.4672 9.6268
L26.2253 9.5663
" />
<path d="M26.2253 9.5663
L26.1043 9.5058
" />
<path d="M26.1043 9.5058
L26.0438 9.4453
" />
<path d="M26.0438 9.4453
L25.9834 9.3244
" />
<path d="M25.9834 9.3244
L25.9834 9.2034
" />
<path d="M25.9834 9.2034
L26.0438 9.0825
" />
<path d="M26.0438 9.0825
L26.1043 9.0220
" />
<path d="M26.1043 9.0220
L26.2253 8.9615
" />
<path d="M26.2253 8.9615
L26.5276 8.9615
" />
<path d="M26.5276 8.9615
L26.7091 9.0220
" />
<path d="M27.9790 10.1106
L27.9186 10.1711
" />
<path d="M27.9186 10.1711
L27.7371 10.2315
" />
<path d="M27.7371 10.2315
L27.6162 10.2315
" />
<path d="M27.6162 10.2315
L27.4348 10.1711
" />
<path d="M27.4348 10.1711
L27.3138 10.0501
" />
<path d="M27.3138 10.0501
L27.2533 9.9291
" />
<path d="M27.2533 9.9291
L27.1929 9.6872
" />
<path d="M27.1929 9.6872
L27.1929 9.5058
" />
<path d="M27.1929 9.5058
L27.2533 9.2639
" />
<path d="M27.2533 9.2639
L27.3138 9.1430
" />
<path d="M27.3138 9.1430
L27.4348 9.0220
" />
<path d="M27.4348 9.0220
L27.6162 8.9615
" />
<path d="M27.6162 8.9615
L27.7371 8.9615
" />
<path d="M27.7371 8.9615
L27.9186 9.0220
" />
<path d="M27.9186 9.0220
L27.9790 9.0825
" />
<path d="M29.1281 10.2315
L28.5233 10.2315
" />
<path d="M28.5233 10.2315
L28.5233 8.9615
" />
</g></g>
<g style="fill:#A90000; fill-opacity:0.0; 
stroke:#A90000; stroke-width:0.1524; stroke-opacity:1; 
stroke-linecap:round; stroke-linejoin:round;">
<text x="23.8633" y="9.3980"
textLength="1.4127" font-size="1.6933" lengthAdjust="spacingAndGlyphs"
text-anchor="middle" opacity="0">2</text>
<g class="stroked-text"><desc>2</desc>
<path d="M23.5005 8.0855
L23.5609 8.0250
" />
<path d="M23.5609 8.0250
L23.6819 7.9645
" />
<path d="M23.6819 7.9645
L23.9843 7.9645
" />
<path d="M23.9843 7.9645
L24.1052 8.0250
" />
<path d="M24.1052 8.0250
L24.1657 8.0855
" />
<path d="M24.1657 8.0855
L24.2262 8.2064
" />
<path d="M24.2262 8.2064
L24.2262 8.3274
" />
<path d="M24.2262 8.3274
L24.1657 8.5088
" />
<path d="M24.1657 8.5088
L23.4400 9.2345
" />
<path d="M23.4400 9.2345
L24.2262 9.2345
" />
</g></g>
<g style="fill:#840000; fill-opacity:0.0; 
stroke:#840000; stroke-width:0.1524; stroke-opacity:1; 
stroke-linecap:round; stroke-linejoin:round;">
<path d="M45.4533 12.1920
L47.9933 12.1920
" />
</g>
<g style="fill:#006464; fill-opacity:0.0; 
stroke:#006464; stroke-width:0.1524; stroke-opacity:1; 
stroke-linecap:round; stroke-linejoin:round;">
<text x="44.9453" y="12.8270"
textLength="4.1245" font-size="1.6933" lengthAdjust="spacingAndGlyphs"
text-anchor="end" opacity="0">T_{OUT}</text>
<g class="stroked-text"><desc>T_{OUT}</desc>
<path d="M41.0955 11.5015
L41.8212 11.5015
" />
<path d="M41.4584 12.7715
L41.4584 11.5015
" />
<path d="M42.3776 11.8958
L42.5711 11.8958
" />
<path d="M42.5711 11.8958
L42.6679 11.9442
" />
<path d="M42.6679 11.9442
L42.7646 12.0410
" />
<path d="M42.7646 12.0410
L42.8130 12.2345
" />
<path d="M42.8130 12.2345
L42.8130 12.5732
" />
<path d="M42.8130 12.5732
L42.7646 12.7667
" />
<path d="M42.7646 12.7667
L42.6679 12.8635
" />
<path d="M42.6679 12.8635
L42.5711 12.9118
" />
<path d="M42.5711 12.9118
L42.3776 12.9118
" />
<path d="M42.3776 12.9118
L42.2808 12.8635
" />
<path d="M42.2808 12.8635
L42.1841 12.7667
" />
<path d="M42.1841 12.7667
L42.1357 12.5732
" />
<path d="M42.1357 12.5732
L42.1357 12.2345
" />
<path d="M42.1357 12.2345
L42.1841 12.0410
" />
<path d="M42.1841 12.0410
L42.2808 11.9442
" />
<path d="M42.2808 11.9442
L42.3776 11.8958
" />
<path d="M43.2485 11.8958
L43.2485 12.7183
" />
<path d="M43.2485 12.7183
L43.2968 12.8151
" />
<path d="M43.2968 12.8151
L43.3452 12.8635
" />
<path d="M43.3452 12.8635
L43.4420 12.9118
" />
<path d="M43.4420 12.9118
L43.6355 12.9118
" />
<path d="M43.6355 12.9118
L43.7323 12.8635
" />
<path d="M43.7323 12.8635
L43.7806 12.8151
" />
<path d="M43.7806 12.8151
L43.8290 12.7183
" />
<path d="M43.8290 12.7183
L43.8290 11.8958
" />
<path d="M44.1677 11.8958
L44.7483 11.8958
" />
<path d="M44.4580 12.9118
L44.4580 11.8958
" />
</g></g>
<g style="fill:#A90000; fill-opacity:0.0; 
stroke:#A90000; stroke-width:0.1524; stroke-opacity:1; 
stroke-linecap:round; stroke-linejoin:round;">
<text x="46.7233" y="11.9380"
textLength="1.4127" font-size="1.6933" lengthAdjust="spacingAndGlyphs"
text-anchor="middle" opacity="0">3</text>
<g class="stroked-text"><desc>3</desc>
<path d="M46.3000 10.5045
L47.0862 10.5045
" />
<path d="M47.0862 10.5045
L46.6628 10.9883
" />
<path d="M46.6628 10.9883
L46.8443 10.9883
" />
<path d="M46.8443 10.9883
L46.9652 11.0488
" />
<path d="M46.9652 11.0488
L47.0257 11.1093
" />
<path d="M47.0257 11.1093
L47.0862 11.2302
" />
<path d="M47.0862 11.2302
L47.0862 11.5326
" />
<path d="M47.0862 11.5326
L47.0257 11.6536
" />
<path d="M47.0257 11.6536
L46.9652 11.7141
" />
<path d="M46.9652 11.7141
L46.8443 11.7745
" />
<path d="M46.8443 11.7745
L46.4814 11.7745
" />
<path d="M46.4814 11.7745
L46.3605 11.7141
" />
<path d="M46.3605 11.7141
L46.3000 11.6536
" />
</g></g>
<g style="fill:#840000; fill-opacity:0.0; 
stroke:#840000; stroke-width:0.1524; stroke-opacity:1; 
stroke-linecap:round; stroke-linejoin:round;">
<path d="M35.2933 19.8120
L35.2933 22.3520
" />
</g>
<g style="fill:#006464; fill-opacity:0.0; 
stroke:#006464; stroke-width:0.1524; stroke-opacity:1; 
stroke-linecap:round; stroke-linejoin:round;">
<g transform="rotate(-90.000000 35.2933 19.3040)">
<text x="35.2933" y="19.9390"
textLength="4.0737" font-size="1.6933" lengthAdjust="spacingAndGlyphs"
text-anchor="start" opacity="0">GND</text>
</g>
<g class="stroked-text"><desc>GND</desc>
<path d="M34.6633 18.2361
L34.6028 18.3571
" />
<path d="M34.6028 18.3571
L34.6028 18.5385
" />
<path d="M34.6028 18.5385
L34.6633 18.7199
" />
<path d="M34.6633 18.7199
L34.7843 18.8409
" />
<path d="M34.7843 18.8409
L34.9052 18.9014
" />
<path d="M34.9052 18.9014
L35.1471 18.9618
" />
<path d="M35.1471 18.9618
L35.3285 18.9618
" />
<path d="M35.3285 18.9618
L35.5704 18.9014
" />
<path d="M35.5704 18.9014
L35.6914 18.8409
" />
<path d="M35.6914 18.8409
L35.8124 18.7199
" />
<path d="M35.8124 18.7199
L35.8728 18.5385
" />
<path d="M35.8728 18.5385
L35.8728 18.4176
" />
<path d="M35.8728 18.4176
L35.8124 18.2361
" />
<path d="M35.8124 18.2361
L35.7519 18.1757
" />
<path d="M35.7519 18.1757
L35.3285 18.1757
" />
<path d="M35.3285 18.1757
L35.3285 18.4176
" />
<path d="M35.8728 17.6314
L34.6028 17.6314
" />
<path d="M34.6028 17.6314
L35.8728 16.9057
" />
<path d="M35.8728 16.9057
L34.6028 16.9057
" />
<path d="M35.8728 16.3009
L34.6028 16.3009
" />
<path d="M34.6028 16.3009
L34.6028 15.9985
" />
<path d="M34.6028 15.9985
L34.6633 15.8171
" />
<path d="M34.6633 15.8171
L34.7843 15.6961
" />
<path d="M34.7843 15.6961
L34.9052 15.6356
" />
<path d="M34.9052 15.6356
L35.1471 15.5752
" />
<path d="M35.1471 15.5752
L35.3285 15.5752
" />
<path d="M35.3285 15.5752
L35.5704 15.6356
" />
<path d="M35.5704 15.6356
L35.6914 15.6961
" />
<path d="M35.6914 15.6961
L35.8124 15.8171
" />
<path d="M35.8124 15.8171
L35.8728 15.9985
" />
<path d="M35.8728 15.9985
L35.8728 16.3009
" />
</g></g>
<g style="fill:#A90000; fill-opacity:0.0; 
stroke:#A90000; stroke-width:0.1524; stroke-opacity:1; 
stroke-linecap:round; stroke-linejoin:round;">
<g transform="rotate(-90.000000 35.0393 21.0820)">
<text x="35.0393" y="21.0820"
textLength="1.4127" font-size="1.6933" lengthAdjust="spacingAndGlyphs"
text-anchor="middle" opacity="0">4</text>
</g>
<g class="stroked-text"><desc>4</desc>
<path d="M34.0292 20.8400
L34.8758 20.8400
" />
<path d="M33.5454 21.1424
L34.4525 21.4447
" />
<path d="M34.4525 21.4447
L34.4525 20.6586
" />
</g></g>
<g style="fill:#840000; fill-opacity:0.0; 
stroke:#840000; stroke-width:0.1524; stroke-opacity:1; 
stroke-linecap:round; stroke-linejoin:round;">
<path d="M25.1333 17.2720
L22.5933 17.2720
" />
</g>
<g style="fill:#006464; fill-opacity:0.0; 
stroke:#006464; stroke-width:0.1524; stroke-opacity:1; 
stroke-linecap:round; stroke-linejoin:round;">
<text x="25.6413" y="17.9070"
textLength="2.5013" font-size="1.6933" lengthAdjust="spacingAndGlyphs"
text-anchor="start" opacity="0">A2</text>
<g class="stroked-text"><desc>A2</desc>
<path d="M25.9834 17.4887
L26.5881 17.4887
" />
<path d="M25.8624 17.8515
L26.2857 16.5815
" />
<path d="M26.2857 16.5815
L26.7091 17.8515
" />
<path d="M27.0720 16.7025
L27.1324 16.6420
" />
<path d="M27.1324 16.6420
L27.2534 16.5815
" />
<path d="M27.2534 16.5815
L27.5558 16.5815
" />
<path d="M27.5558 16.5815
L27.6767 16.6420
" />
<path d="M27.6767 16.6420
L27.7372 16.7025
" />
<path d="M27.7372 16.7025
L27.7977 16.8234
" />
<path d="M27.7977 16.8234
L27.7977 16.9444
" />
<path d="M27.7977 16.9444
L27.7372 17.1258
" />
<path d="M27.7372 17.1258
L27.0115 17.8515
" />
<path d="M27.0115 17.8515
L27.7977 17.8515
" />
</g></g>
<g style="fill:#A90000; fill-opacity:0.0; 
stroke:#A90000; stroke-width:0.1524; stroke-opacity:1; 
stroke-linecap:round; stroke-linejoin:round;">
<text x="23.8633" y="17.0180"
textLength="1.4127" font-size="1.6933" lengthAdjust="spacingAndGlyphs"
text-anchor="middle" opacity="0">5</text>
<g class="stroked-text"><desc>5</desc>
<path d="M24.1657 15.5845
L23.5609 15.5845
" />
<path d="M23.5609 15.5845
L23.5005 16.1893
" />
<path d="M23.5005 16.1893
L23.5609 16.1288
" />
<path d="M23.5609 16.1288
L23.6819 16.0683
" />
<path d="M23.6819 16.0683
L23.9843 16.0683
" />
<path d="M23.9843 16.0683
L24.1052 16.1288
" />
<path d="M24.1052 16.1288
L24.1657 16.1893
" />
<path d="M24.1657 16.1893
L24.2262 16.3102
" />
<path d="M24.2262 16.3102
L24.2262 16.6126
" />
<path d="M24.2262 16.6126
L24.1657 16.7336
" />
<path d="M24.1657 16.7336
L24.1052 16.7941
" />
<path d="M24.1052 16.7941
L23.9843 16.8545
" />
<path d="M23.9843 16.8545
L23.6819 16.8545
" />
<path d="M23.6819 16.8545
L23.5609 16.7941
" />
<path d="M23.5609 16.7941
L23.5005 16.7336
" />
</g></g>
<g style="fill:#840000; fill-opacity:0.0; 
stroke:#840000; stroke-width:0.1524; stroke-opacity:1; 
stroke-linecap:round; stroke-linejoin:round;">
<path d="M25.1333 14.7320
L22.5933 14.7320
" />
</g>
<g style="fill:#006464; fill-opacity:0.0; 
stroke:#006464; stroke-width:0.1524; stroke-opacity:1; 
stroke-linecap:round; stroke-linejoin:round;">
<text x="25.6413" y="15.3670"
textLength="2.5013" font-size="1.6933" lengthAdjust="spacingAndGlyphs"
text-anchor="start" opacity="0">A1</text>
<g class="stroked-text"><desc>A1</desc>
<path d="M25.9834 14.9487
L26.5881 14.9487
" />
<path d="M25.8624 15.3115
L26.2857 14.0415
" />
<path d="M26.2857 14.0415
L26.7091 15.3115
" />
<path d="M27.7977 15.3115
L27.0720 15.3115
" />
<path d="M27.4348 15.3115
L27.4348 14.0415
" />
<path d="M27.4348 14.0415
L27.3139 14.2230
" />
<path d="M27.3139 14.2230
L27.1929 14.3439
" />
<path d="M27.1929 14.3439
L27.0720 14.4044
" />
</g></g>
<g style="fill:#A90000; fill-opacity:0.0; 
stroke:#A90000; stroke-width:0.1524; stroke-opacity:1; 
stroke-linecap:round; stroke-linejoin:round;">
<text x="23.8633" y="14.4780"
textLength="1.4127" font-size="1.6933" lengthAdjust="spacingAndGlyphs"
text-anchor="middle" opacity="0">6</text>
<g class="stroked-text"><desc>6</desc>
<path d="M24.1052 13.0445
L23.8633 13.0445
" />
<path d="M23.8633 13.0445
L23.7424 13.1050
" />
<path d="M23.7424 13.1050
L23.6819 13.1655
" />
<path d="M23.6819 13.1655
L23.5609 13.3469
" />
<path d="M23.5609 13.3469
L23.5005 13.5888
" />
<path d="M23.5005 13.5888
L23.5005 14.0726
" />
<path d="M23.5005 14.0726
L23.5609 14.1936
" />
<path d="M23.5609 14.1936
L23.6214 14.2541
" />
<path d="M23.6214 14.2541
L23.7424 14.3145
" />
<path d="M23.7424 14.3145
L23.9843 14.3145
" />
<path d="M23.9843 14.3145
L24.1052 14.2541
" />
<path d="M24.1052 14.2541
L24.1657 14.1936
" />
<path d="M24.1657 14.1936
L24.2262 14.0726
" />
<path d="M24.2262 14.0726
L24.2262 13.7702
" />
<path d="M24.2262 13.7702
L24.1657 13.6493
" />
<path d="M24.1657 13.6493
L24.1052 13.5888
" />
<path d="M24.1052 13.5888
L23.9843 13.5283
" />
<path d="M23.9843 13.5283
L23.7424 13.5283
" />
<path d="M23.7424 13.5283
L23.6214 13.5888
" />
<path d="M23.6214 13.5888
L23.5609 13.6493
" />
<path d="M23.5609 13.6493
L23.5005 13.7702
" />
</g></g>
<g style="fill:#840000; fill-opacity:0.0; 
stroke:#840000; stroke-width:0.1524; stroke-opacity:1; 
stroke-linecap:round; stroke-linejoin:round;">
<path d="M25.1333 12.1920
L22.5933 12.1920
" />
</g>
<g style="fill:#006464; fill-opacity:0.0; 
stroke:#006464; stroke-width:0.1524; stroke-opacity:1; 
stroke-linecap:round; stroke-linejoin:round;">
<text x="25.6413" y="12.8270"
textLength="2.5013" font-size="1.6933" lengthAdjust="spacingAndGlyphs"
text-anchor="start" opacity="0">A0</text>
<g class="stroked-text"><desc>A0</desc>
<path d="M25.9834 12.4087
L26.5881 12.4087
" />
<path d="M25.8624 12.7715
L26.2857 11.5015
" />
<path d="M26.2857 11.5015
L26.7091 12.7715
" />
<path d="M27.3743 11.5015
L27.4953 11.5015
" />
<path d="M27.4953 11.5015
L27.6162 11.5620
" />
<path d="M27.6162 11.5620
L27.6767 11.6225
" />
<path d="M27.6767 11.6225
L27.7372 11.7434
" />
<path d="M27.7372 11.7434
L27.7977 11.9853
" />
<path d="M27.7977 11.9853
L27.7977 12.2877
" />
<path d="M27.7977 12.2877
L27.7372 12.5296
" />
<path d="M27.7372 12.5296
L27.6767 12.6506
" />
<path d="M27.6767 12.6506
L27.6162 12.7111
" />
<path d="M27.6162 12.7111
L27.4953 12.7715
" />
<path d="M27.4953 12.7715
L27.3743 12.7715
" />
<path d="M27.3743 12.7715
L27.2534 12.7111
" />
<path d="M27.2534 12.7111
L27.1929 12.6506
" />
<path d="M27.1929 12.6506
L27.1324 12.5296
" />
<path d="M27.1324 12.5296
L27.0720 12.2877
" />
<path d="M27.0720 12.2877
L27.0720 11.9853
" />
<path d="M27.0720 11.9853
L27.1324 11.7434
" />
<path d="M27.1324 11.7434
L27.1929 11.6225
" />
<path d="M27.1929 11.6225
L27.2534 11.5620
" />
<path d="M27.2534 11.5620
L27.3743 11.5015
" />
</g></g>
<g style="fill:#A90000; fill-opacity:0.0; 
stroke:#A90000; stroke-width:0.1524; stroke-opacity:1; 
stroke-linecap:round; stroke-linejoin:round;">
<text x="23.8633" y="11.9380"
textLength="1.4127" font-size="1.6933" lengthAdjust="spacingAndGlyphs"
text-anchor="middle" opacity="0">7</text>
<g class="stroked-text"><desc>7</desc>
<path d="M23.4400 10.5045
L24.2866 10.5045
" />
<path d="M24.2866 10.5045
L23.7424 11.7745
" />
</g></g>
<g style="fill:#840000; fill-opacity:0.0; 
stroke:#840000; stroke-width:0.1524; stroke-opacity:1; 
stroke-linecap:round; stroke-linejoin:round;">
<path d="M35.2933 4.5720
L35.2933 2.0320
" />
</g>
<g style="fill:#006464; fill-opacity:0.0; 
stroke:#006464; stroke-width:0.1524; stroke-opacity:1; 
stroke-linecap:round; stroke-linejoin:round;">
<g transform="rotate(-90.000000 35.2933 5.0800)">
<text x="35.2933" y="5.7150"
textLength="3.3746" font-size="1.6933" lengthAdjust="spacingAndGlyphs"
text-anchor="end" opacity="0">V_{DD}</text>
</g>
<g class="stroked-text"><desc>V_{DD}</desc>
<path d="M34.6028 8.1798
L35.8728 7.7565
" />
<path d="M35.8728 7.7565
L34.6028 7.3331
" />
<path d="M36.0131 6.9702
L34.9971 6.9702
" />
<path d="M34.9971 6.9702
L34.9971 6.7283
" />
<path d="M34.9971 6.7283
L35.0455 6.5832
" />
<path d="M35.0455 6.5832
L35.1423 6.4864
" />
<path d="M35.1423 6.4864
L35.2390 6.4381
" />
<path d="M35.2390 6.4381
L35.4326 6.3897
" />
<path d="M35.4326 6.3897
L35.5777 6.3897
" />
<path d="M35.5777 6.3897
L35.7712 6.4381
" />
<path d="M35.7712 6.4381
L35.8680 6.4864
" />
<path d="M35.8680 6.4864
L35.9648 6.5832
" />
<path d="M35.9648 6.5832
L36.0131 6.7283
" />
<path d="M36.0131 6.7283
L36.0131 6.9702
" />
<path d="M36.0131 5.9542
L34.9971 5.9542
" />
<path d="M34.9971 5.9542
L34.9971 5.7123
" />
<path d="M34.9971 5.7123
L35.0455 5.5672
" />
<path d="M35.0455 5.5672
L35.1423 5.4704
" />
<path d="M35.1423 5.4704
L35.2390 5.4221
" />
<path d="M35.2390 5.4221
L35.4326 5.3737
" />
<path d="M35.4326 5.3737
L35.5777 5.3737
" />
<path d="M35.5777 5.3737
L35.7712 5.4221
" />
<path d="M35.7712 5.4221
L35.8680 5.4704
" />
<path d="M35.8680 5.4704
L35.9648 5.5672
" />
<path d="M35.9648 5.5672
L36.0131 5.7123
" />
<path d="M36.0131 5.7123
L36.0131 5.9542
" />
</g></g>
<g style="fill:#A90000; fill-opacity:0.0; 
stroke:#A90000; stroke-width:0.1524; stroke-opacity:1; 
stroke-linecap:round; stroke-linejoin:round;">
<g transform="rotate(-90.000000 35.0393 3.3020)">
<text x="35.0393" y="3.3020"
textLength="1.4127" font-size="1.6933" lengthAdjust="spacingAndGlyphs"
text-anchor="middle" opacity="0">8</text>
</g>
<g class="stroked-text"><desc>8</desc>
<path d="M34.1501 3.4228
L34.0896 3.5438
" />
<path d="M34.0896 3.5438
L34.0292 3.6043
" />
<path d="M34.0292 3.6043
L33.9082 3.6647
" />
<path d="M33.9082 3.6647
L33.8477 3.6647
" />
<path d="M33.8477 3.6647
L33.7268 3.6043
" />
<path d="M33.7268 3.6043
L33.6663 3.5438
" />
<path d="M33.6663 3.5438
L33.6058 3.4228
" />
<path d="M33.6058 3.4228
L33.6058 3.1809
" />
<path d="M33.6058 3.1809
L33.6663 3.0600
" />
<path d="M33.6663 3.0600
L33.7268 2.9995
" />
<path d="M33.7268 2.9995
L33.8477 2.9390
" />
<path d="M33.8477 2.9390
L33.9082 2.9390
" />
<path d="M33.9082 2.9390
L34.0292 2.9995
" />
<path d="M34.0292 2.9995
L34.0896 3.0600
" />
<path d="M34.0896 3.0600
L34.1501 3.1809
" />
<path d="M34.1501 3.1809
L34.1501 3.4228
" />
<path d="M34.1501 3.4228
L34.2106 3.5438
" />
<path d="M34.2106 3.5438
L34.2711 3.6043
" />
<path d="M34.2711 3.6043
L34.3920 3.6647
" />
<path d="M34.3920 3.6647
L34.6339 3.6647
" />
<path d="M34.6339 3.6647
L34.7549 3.6043
" />
<path d="M34.7549 3.6043
L34.8154 3.5438
" />
<path d="M34.8154 3.5438
L34.8758 3.4228
" />
<path d="M34.8758 3.4228
L34.8758 3.1809
" />
<path d="M34.8758 3.1809
L34.8154 3.0600
" />
<path d="M34.8154 3.0600
L34.7549 2.9995
" />
<path d="M34.7549 2.9995
L34.6339 2.9390
" />
<path d="M34.6339 2.9390
L34.3920 2.9390
" />
<path d="M34.3920 2.9390
L34.2711 2.9995
" />
<path d="M34.2711 2.9995
L34.2106 3.0600
" />
<path d="M34.2106 3.0600
L34.1501 3.1809
" />
</g></g>
<g style="fill:#840084; fill-opacity:0.0; 
stroke:#840084; stroke-width:0.1524; stroke-opacity:1; 
stroke-linecap:round; stroke-linejoin:round;">
</g>
<g style="fill:#006464; fill-opacity:0.0; 
stroke:#006464; stroke-width:0.1524; stroke-opacity:1; 
stroke-linecap:round; stroke-linejoin:round;">
</g>
<g style="fill:#006464; fill-opacity:0.0; 
stroke:#006464; stroke-width:0.1588; stroke-opacity:1; 
stroke-linecap:round; stroke-linejoin:round;">
<text x="27.6733" y="3.9370"
textLength="2.6415" font-size="1.6933" lengthAdjust="spacingAndGlyphs"
text-anchor="middle" opacity="0">U?</text>
<g class="stroked-text"><desc>U?</desc>
<path d="M26.7661 2.6112
L26.7661 3.6393
" />
<path d="M26.7661 3.6393
L26.8266 3.7603
" />
<path d="M26.8266 3.7603
L26.8871 3.8208
" />
<path d="M26.8871 3.8208
L27.0080 3.8812
" />
<path d="M27.0080 3.8812
L27.2499 3.8812
" />
<path d="M27.2499 3.8812
L27.3709 3.8208
" />
<path d="M27.3709 3.8208
L27.4314 3.7603
" />
<path d="M27.4314 3.7603
L27.4918 3.6393
" />
<path d="M27.4918 3.6393
L27.4918 2.6112
" />
<path d="M28.2781 3.7603
L28.3385 3.8208
" />
<path d="M28.3385 3.8208
L28.2781 3.8812
" />
<path d="M28.2781 3.8812
L28.2176 3.8208
" />
<path d="M28.2176 3.8208
L28.2781 3.7603
" />
<path d="M28.2781 3.7603
L28.2781 3.8812
" />
<path d="M28.0362 2.6717
L28.1571 2.6112
" />
<path d="M28.1571 2.6112
L28.4595 2.6112
" />
<path d="M28.4595 2.6112
L28.5804 2.6717
" />
<path d="M28.5804 2.6717
L28.6409 2.7927
" />
<path d="M28.6409 2.7927
L28.6409 2.9136
" />
<path d="M28.6409 2.9136
L28.5804 3.0346
" />
<path d="M28.5804 3.0346
L28.5200 3.0950
" />
<path d="M28.5200 3.0950
L28.3990 3.1555
" />
<path d="M28.3990 3.1555
L28.3385 3.2160
" />
<path d="M28.3385 3.2160
L28.2781 3.3369
" />
<path d="M28.2781 3.3369
L28.2781 3.3974
" />
</g><text x="41.6433" y="3.9370"
textLength="7.5399" font-size="1.6933" lengthAdjust="spacingAndGlyphs"
text-anchor="middle" opacity="0">DS1621</text>
<g class="stroked-text"><desc>DS1621</desc>
<path d="M38.2869 3.8812
L38.2869 2.6112
" />
<path d="M38.2869 2.6112
L38.5893 2.6112
" />
<path d="M38.5893 2.6112
L38.7707 2.6717
" />
<path d="M38.7707 2.6717
L38.8917 2.7927
" />
<path d="M38.8917 2.7927
L38.9522 2.9136
" />
<path d="M38.9522 2.9136
L39.0126 3.1555
" />
<path d="M39.0126 3.1555
L39.0126 3.3369
" />
<path d="M39.0126 3.3369
L38.9522 3.5788
" />
<path d="M38.9522 3.5788
L38.8917 3.6998
" />
<path d="M38.8917 3.6998
L38.7707 3.8208
" />
<path d="M38.7707 3.8208
L38.5893 3.8812
" />
<path d="M38.5893 3.8812
L38.2869 3.8812
" />
<path d="M39.4965 3.8208
L39.6779 3.8812
" />
<path d="M39.6779 3.8812
L39.9803 3.8812
" />
<path d="M39.9803 3.8812
L40.1012 3.8208
" />
<path d="M40.1012 3.8208
L40.1617 3.7603
" />
<path d="M40.1617 3.7603
L40.2222 3.6393
" />
<path d="M40.2222 3.6393
L40.2222 3.5184
" />
<path d="M40.2222 3.5184
L40.1617 3.3974
" />
<path d="M40.1617 3.3974
L40.1012 3.3369
" />
<path d="M40.1012 3.3369
L39.9803 3.2765
" />
<path d="M39.9803 3.2765
L39.7384 3.2160
" />
<path d="M39.7384 3.2160
L39.6174 3.1555
" />
<path d="M39.6174 3.1555
L39.5569 3.0950
" />
<path d="M39.5569 3.0950
L39.4965 2.9741
" />
<path d="M39.4965 2.9741
L39.4965 2.8531
" />
<path d="M39.4965 2.8531
L39.5569 2.7322
" />
<path d="M39.5569 2.7322
L39.6174 2.6717
" />
<path d="M39.6174 2.6717
L39.7384 2.6112
" />
<path d="M39.7384 2.6112
L40.0407 2.6112
" />
<path d="M40.0407 2.6112
L40.2222 2.6717
" />
<path d="M41.4317 3.8812
L40.7060 3.8812
" />
<path d="M41.0688 3.8812
L41.0688 2.6112
" />
<path d="M41.0688 2.6112
L40.9479 2.7927
" />
<path d="M40.9479 2.7927
L40.8269 2.9136
" />
<path d="M40.8269 2.9136
L40.7060 2.9741
" />
<path d="M42.5202 2.6112
L42.2783 2.6112
" />
<path d="M42.2783 2.6112
L42.1574 2.6717
" />
<path d="M42.1574 2.6717
L42.0969 2.7322
" />
<path d="M42.0969 2.7322
L41.9759 2.9136
" />
<path d="M41.9759 2.9136
L41.9155 3.1555
" />
<path d="M41.9155 3.1555
L41.9155 3.6393
" />
<path d="M41.9155 3.6393
L41.9759 3.7603
" />
<path d="M41.9759 3.7603
L42.0364 3.8208
" />
<path d="M42.0364 3.8208
L42.1574 3.8812
" />
<path d="M42.1574 3.8812
L42.3993 3.8812
" />
<path d="M42.3993 3.8812
L42.5202 3.8208
" />
<path d="M42.5202 3.8208
L42.5807 3.7603
" />
<path d="M42.5807 3.7603
L42.6412 3.6393
" />
<path d="M42.6412 3.6393
L42.6412 3.3369
" />
<path d="M42.6412 3.3369
L42.5807 3.2160
" />
<path d="M42.5807 3.2160
L42.5202 3.1555
" />
<path d="M42.5202 3.1555
L42.3993 3.0950
" />
<path d="M42.3993 3.0950
L42.1574 3.0950
" />
<path d="M42.1574 3.0950
L42.0364 3.1555
" />
<path d="M42.0364 3.1555
L41.9759 3.2160
" />
<path d="M41.9759 3.2160
L41.9155 3.3369
" />
<path d="M43.1250 2.7322
L43.1854 2.6717
" />
<path d="M43.1854 2.6717
L43.3064 2.6112
" />
<path d="M43.3064 2.6112
L43.6088 2.6112
" />
<path d="M43.6088 2.6112
L43.7297 2.6717
" />
<path d="M43.7297 2.6717
L43.7902 2.7322
" />
<path d="M43.7902 2.7322
L43.8507 2.8531
" />
<path d="M43.8507 2.8531
L43.8507 2.9741
" />
<path d="M43.8507 2.9741
L43.7902 3.1555
" />
<path d="M43.7902 3.1555
L43.0645 3.8812
" />
<path d="M43.0645 3.8812
L43.8507 3.8812
" />
<path d="M45.0602 3.8812
L44.3345 3.8812
" />
<path d="M44.6973 3.8812
L44.6973 2.6112
" />
<path d="M44.6973 2.6112
L44.5764 2.7927
" />
<path d="M44.5764 2.7927
L44.4554 2.9136
" />
<path d="M44.4554 2.9136
L44.3345 2.9741
" />
</g></g> 
</svg>
