<?xml version="1.0" standalone="no"?>
 <!DOCTYPE svg PUBLIC "-//W3C//DTD SVG 1.1//EN" 
 "http://www.w3.org/Graphics/SVG/1.1/DTD/svg11.dtd"> 
<svg
  xmlns:svg="http://www.w3.org/2000/svg"
  xmlns="http://www.w3.org/2000/svg"
  xmlns:xlink="http://www.w3.org/1999/xlink"
  version="1.1"
  width="52.8066mm" height="14.6558mm" viewBox="0.0000 0.0000 52.8066 14.6558">
<title>SVG Image created as l272d_1.svg date 2024/01/16 15:18:08 </title>
  <desc>Image generated by Eeschema-SVG </desc>
<g style="fill:#000000; fill-opacity:1.0000;stroke:#000000; stroke-opacity:1.0000;
stroke-linecap:round; stroke-linejoin:round;"
 transform="translate(0 0) scale(1 1)">
</g>
<g style="fill:#000000; fill-opacity:0.0; 
stroke:#000000; stroke-width:0.0000; stroke-opacity:1; 
stroke-linecap:round; stroke-linejoin:round;">
</g>
<g style="fill:#000000; fill-opacity:0.0; 
stroke:#000000; stroke-width:0.2540; stroke-opacity:1; 
stroke-linecap:round; stroke-linejoin:round;">
<path style="fill:#000000; fill-opacity:0.0; 
stroke:#000000; stroke-width:0.2540; stroke-opacity:1; 
stroke-linecap:round; stroke-linejoin:round;fill:none"
d="M 21.3233,2.2479
31.4833,7.3279
21.3233,12.4079
Z" /> 
</g>
<g style="fill:#000000; fill-opacity:0.0; 
stroke:#000000; stroke-width:0.1524; stroke-opacity:1; 
stroke-linecap:round; stroke-linejoin:round;">
<path d="M21.3233 4.7879
L18.7833 4.7879
" />
<text x="21.4503" y="5.4229"
textLength="1.7756" font-size="1.6933" lengthAdjust="spacingAndGlyphs"
text-anchor="start" opacity="0">+</text>
<g class="stroked-text"><desc>+</desc>
<path d="M21.8528 4.8836
L22.8205 4.8836
" />
<path d="M22.3366 5.3674
L22.3366 4.3998
" />
</g><text x="20.0533" y="4.5339"
textLength="2.6222" font-size="1.6933" lengthAdjust="spacingAndGlyphs"
text-anchor="middle" opacity="0">13</text>
<g class="stroked-text"><desc>13</desc>
<path d="M19.8114 4.3704
L19.0857 4.3704
" />
<path d="M19.4485 4.3704
L19.4485 3.1004
" />
<path d="M19.4485 3.1004
L19.3276 3.2819
" />
<path d="M19.3276 3.2819
L19.2066 3.4028
" />
<path d="M19.2066 3.4028
L19.0857 3.4633
" />
<path d="M20.2347 3.1004
L21.0209 3.1004
" />
<path d="M21.0209 3.1004
L20.5975 3.5842
" />
<path d="M20.5975 3.5842
L20.7790 3.5842
" />
<path d="M20.7790 3.5842
L20.8999 3.6447
" />
<path d="M20.8999 3.6447
L20.9604 3.7052
" />
<path d="M20.9604 3.7052
L21.0209 3.8261
" />
<path d="M21.0209 3.8261
L21.0209 4.1285
" />
<path d="M21.0209 4.1285
L20.9604 4.2495
" />
<path d="M20.9604 4.2495
L20.8999 4.3100
" />
<path d="M20.8999 4.3100
L20.7790 4.3704
" />
<path d="M20.7790 4.3704
L20.4161 4.3704
" />
<path d="M20.4161 4.3704
L20.2952 4.3100
" />
<path d="M20.2952 4.3100
L20.2347 4.2495
" />
</g><path d="M21.3233 9.8679
L18.7833 9.8679
" />
<text x="21.4503" y="10.5029"
textLength="1.7756" font-size="1.6933" lengthAdjust="spacingAndGlyphs"
text-anchor="start" opacity="0">-</text>
<g class="stroked-text"><desc>-</desc>
<path d="M21.8528 9.9636
L22.8205 9.9636
" />
</g><text x="20.0533" y="9.6139"
textLength="2.6222" font-size="1.6933" lengthAdjust="spacingAndGlyphs"
text-anchor="middle" opacity="0">14</text>
<g class="stroked-text"><desc>14</desc>
<path d="M19.8114 9.4504
L19.0857 9.4504
" />
<path d="M19.4485 9.4504
L19.4485 8.1804
" />
<path d="M19.4485 8.1804
L19.3276 8.3619
" />
<path d="M19.3276 8.3619
L19.2066 8.4828
" />
<path d="M19.2066 8.4828
L19.0857 8.5433
" />
<path d="M20.8999 8.6038
L20.8999 9.4504
" />
<path d="M20.5975 8.1200
L20.2952 9.0271
" />
<path d="M20.2952 9.0271
L21.0813 9.0271
" />
</g><path d="M31.4833 7.3279
L34.0233 7.3279
" />
<text x="32.7533" y="7.0739"
textLength="1.4127" font-size="1.6933" lengthAdjust="spacingAndGlyphs"
text-anchor="middle" opacity="0">3</text>
<g class="stroked-text"><desc>3</desc>
<path d="M32.3300 5.6404
L33.1162 5.6404
" />
<path d="M33.1162 5.6404
L32.6928 6.1242
" />
<path d="M32.6928 6.1242
L32.8743 6.1242
" />
<path d="M32.8743 6.1242
L32.9952 6.1847
" />
<path d="M32.9952 6.1847
L33.0557 6.2452
" />
<path d="M33.0557 6.2452
L33.1162 6.3661
" />
<path d="M33.1162 6.3661
L33.1162 6.6685
" />
<path d="M33.1162 6.6685
L33.0557 6.7895
" />
<path d="M33.0557 6.7895
L32.9952 6.8500
" />
<path d="M32.9952 6.8500
L32.8743 6.9104
" />
<path d="M32.8743 6.9104
L32.5114 6.9104
" />
<path d="M32.5114 6.9104
L32.3905 6.8500
" />
<path d="M32.3905 6.8500
L32.3300 6.7895
" />
</g></g>
<g style="fill:#000000; fill-opacity:0.0; 
stroke:#000000; stroke-width:0.1588; stroke-opacity:1; 
stroke-linecap:round; stroke-linejoin:round;">
<text x="28.2683" y="2.8829"
textLength="3.7301" font-size="1.6933" lengthAdjust="spacingAndGlyphs"
text-anchor="middle" opacity="0">U?A</text>
<g class="stroked-text"><desc>U?A</desc>
<path d="M26.8168 1.5571
L26.8168 2.5852
" />
<path d="M26.8168 2.5852
L26.8773 2.7062
" />
<path d="M26.8773 2.7062
L26.9378 2.7667
" />
<path d="M26.9378 2.7667
L27.0587 2.8271
" />
<path d="M27.0587 2.8271
L27.3006 2.8271
" />
<path d="M27.3006 2.8271
L27.4216 2.7667
" />
<path d="M27.4216 2.7667
L27.4821 2.7062
" />
<path d="M27.4821 2.7062
L27.5425 2.5852
" />
<path d="M27.5425 2.5852
L27.5425 1.5571
" />
<path d="M28.3288 2.7062
L28.3892 2.7667
" />
<path d="M28.3892 2.7667
L28.3288 2.8271
" />
<path d="M28.3288 2.8271
L28.2683 2.7667
" />
<path d="M28.2683 2.7667
L28.3288 2.7062
" />
<path d="M28.3288 2.7062
L28.3288 2.8271
" />
<path d="M28.0869 1.6176
L28.2078 1.5571
" />
<path d="M28.2078 1.5571
L28.5102 1.5571
" />
<path d="M28.5102 1.5571
L28.6311 1.6176
" />
<path d="M28.6311 1.6176
L28.6916 1.7386
" />
<path d="M28.6916 1.7386
L28.6916 1.8595
" />
<path d="M28.6916 1.8595
L28.6311 1.9805
" />
<path d="M28.6311 1.9805
L28.5707 2.0409
" />
<path d="M28.5707 2.0409
L28.4497 2.1014
" />
<path d="M28.4497 2.1014
L28.3892 2.1619
" />
<path d="M28.3892 2.1619
L28.3288 2.2828
" />
<path d="M28.3288 2.2828
L28.3288 2.3433
" />
<path d="M29.1755 2.4643
L29.7802 2.4643
" />
<path d="M29.0545 2.8271
L29.4778 1.5571
" />
<path d="M29.4778 1.5571
L29.9012 2.8271
" />
</g><text x="29.4778" y="13.0429"
textLength="6.1490" font-size="1.6933" lengthAdjust="spacingAndGlyphs"
text-anchor="middle" opacity="0">L272D</text>
<g class="stroked-text"><desc>L272D</desc>
<path d="M27.4216 12.9871
L26.8168 12.9871
" />
<path d="M26.8168 12.9871
L26.8168 11.7171
" />
<path d="M27.7845 11.8381
L27.8449 11.7776
" />
<path d="M27.8449 11.7776
L27.9659 11.7171
" />
<path d="M27.9659 11.7171
L28.2683 11.7171
" />
<path d="M28.2683 11.7171
L28.3892 11.7776
" />
<path d="M28.3892 11.7776
L28.4497 11.8381
" />
<path d="M28.4497 11.8381
L28.5102 11.9590
" />
<path d="M28.5102 11.9590
L28.5102 12.0800
" />
<path d="M28.5102 12.0800
L28.4497 12.2614
" />
<path d="M28.4497 12.2614
L27.7240 12.9871
" />
<path d="M27.7240 12.9871
L28.5102 12.9871
" />
<path d="M28.9335 11.7171
L29.7801 11.7171
" />
<path d="M29.7801 11.7171
L29.2359 12.9871
" />
<path d="M30.2035 11.8381
L30.2639 11.7776
" />
<path d="M30.2639 11.7776
L30.3849 11.7171
" />
<path d="M30.3849 11.7171
L30.6873 11.7171
" />
<path d="M30.6873 11.7171
L30.8082 11.7776
" />
<path d="M30.8082 11.7776
L30.8687 11.8381
" />
<path d="M30.8687 11.8381
L30.9292 11.9590
" />
<path d="M30.9292 11.9590
L30.9292 12.0800
" />
<path d="M30.9292 12.0800
L30.8687 12.2614
" />
<path d="M30.8687 12.2614
L30.1430 12.9871
" />
<path d="M30.1430 12.9871
L30.9292 12.9871
" />
<path d="M31.4734 12.9871
L31.4734 11.7171
" />
<path d="M31.4734 11.7171
L31.7758 11.7171
" />
<path d="M31.7758 11.7171
L31.9572 11.7776
" />
<path d="M31.9572 11.7776
L32.0782 11.8986
" />
<path d="M32.0782 11.8986
L32.1387 12.0195
" />
<path d="M32.1387 12.0195
L32.1991 12.2614
" />
<path d="M32.1991 12.2614
L32.1991 12.4428
" />
<path d="M32.1991 12.4428
L32.1387 12.6847
" />
<path d="M32.1387 12.6847
L32.0782 12.8057
" />
<path d="M32.0782 12.8057
L31.9572 12.9267
" />
<path d="M31.9572 12.9267
L31.7758 12.9871
" />
<path d="M31.7758 12.9871
L31.4734 12.9871
" />
</g></g> 
</svg>
