<?xml version="1.0" standalone="no"?>
 <!DOCTYPE svg PUBLIC "-//W3C//DTD SVG 1.1//EN" 
 "http://www.w3.org/Graphics/SVG/1.1/DTD/svg11.dtd"> 
<svg
  xmlns:svg="http://www.w3.org/2000/svg"
  xmlns="http://www.w3.org/2000/svg"
  xmlns:xlink="http://www.w3.org/1999/xlink"
  version="1.1"
  width="75.8952mm" height="18.2880mm" viewBox="0.0000 0.0000 75.8952 18.2880">
<title>SVG Image created as mcp6401ut-xot.svg date 2024/01/16 15:18:08 </title>
  <desc>Image generated by Eeschema-SVG </desc>
<g style="fill:#000000; fill-opacity:1.0000;stroke:#000000; stroke-opacity:1.0000;
stroke-linecap:round; stroke-linejoin:round;"
 transform="translate(0 0) scale(1 1)">
</g>
<g style="fill:#000000; fill-opacity:0.0; 
stroke:#000000; stroke-width:0.0000; stroke-opacity:1; 
stroke-linecap:round; stroke-linejoin:round;">
</g>
<g style="fill:#000000; fill-opacity:0.0; 
stroke:#000000; stroke-width:0.2540; stroke-opacity:1; 
stroke-linecap:round; stroke-linejoin:round;">
<path style="fill:#000000; fill-opacity:0.0; 
stroke:#000000; stroke-width:0.2540; stroke-opacity:1; 
stroke-linecap:round; stroke-linejoin:round;fill:none"
d="M 32.8676,4.0640
43.0276,9.1440
32.8676,14.2240
Z" /> 
</g>
<g style="fill:#000000; fill-opacity:0.0; 
stroke:#000000; stroke-width:0.1524; stroke-opacity:1; 
stroke-linecap:round; stroke-linejoin:round;">
<path d="M35.4076 12.9540
L35.4076 16.7640
" />
<g transform="rotate(-90.000000 35.4076 12.8270)">
<text x="35.4076" y="13.4620"
textLength="2.8642" font-size="1.6933" lengthAdjust="spacingAndGlyphs"
text-anchor="start" opacity="0">V-</text>
</g>
<g class="stroked-text"><desc>V-</desc>
<path d="M34.7171 12.6058
L35.9871 12.1825
" />
<path d="M35.9871 12.1825
L34.7171 11.7591
" />
<path d="M35.5033 11.3358
L35.5033 10.3682
" />
</g><g transform="rotate(-90.000000 35.1536 14.8590)">
<text x="35.1536" y="14.8590"
textLength="1.4127" font-size="1.6933" lengthAdjust="spacingAndGlyphs"
text-anchor="middle" opacity="0">2</text>
</g>
<g class="stroked-text"><desc>2</desc>
<path d="M33.8411 15.2217
L33.7806 15.1613
" />
<path d="M33.7806 15.1613
L33.7201 15.0403
" />
<path d="M33.7201 15.0403
L33.7201 14.7379
" />
<path d="M33.7201 14.7379
L33.7806 14.6170
" />
<path d="M33.7806 14.6170
L33.8411 14.5565
" />
<path d="M33.8411 14.5565
L33.9620 14.4960
" />
<path d="M33.9620 14.4960
L34.0830 14.4960
" />
<path d="M34.0830 14.4960
L34.2644 14.5565
" />
<path d="M34.2644 14.5565
L34.9901 15.2822
" />
<path d="M34.9901 15.2822
L34.9901 14.4960
" />
</g><path d="M35.4076 5.3340
L35.4076 1.5240
" />
<g transform="rotate(-90.000000 35.4076 5.4610)">
<text x="35.4076" y="6.0960"
textLength="2.8642" font-size="1.6933" lengthAdjust="spacingAndGlyphs"
text-anchor="end" opacity="0">V+</text>
</g>
<g class="stroked-text"><desc>V+</desc>
<path d="M34.7171 8.1012
L35.9871 7.6779
" />
<path d="M35.9871 7.6779
L34.7171 7.2545
" />
<path d="M35.5033 6.8312
L35.5033 5.8636
" />
<path d="M35.9871 6.3474
L35.0195 6.3474
" />
</g><g transform="rotate(-90.000000 35.1536 3.4290)">
<text x="35.1536" y="3.4290"
textLength="1.4127" font-size="1.6933" lengthAdjust="spacingAndGlyphs"
text-anchor="middle" opacity="0">5</text>
</g>
<g class="stroked-text"><desc>5</desc>
<path d="M33.7201 3.1265
L33.7201 3.7313
" />
<path d="M33.7201 3.7313
L34.3249 3.7917
" />
<path d="M34.3249 3.7917
L34.2644 3.7313
" />
<path d="M34.2644 3.7313
L34.2039 3.6103
" />
<path d="M34.2039 3.6103
L34.2039 3.3079
" />
<path d="M34.2039 3.3079
L34.2644 3.1870
" />
<path d="M34.2644 3.1870
L34.3249 3.1265
" />
<path d="M34.3249 3.1265
L34.4458 3.0660
" />
<path d="M34.4458 3.0660
L34.7482 3.0660
" />
<path d="M34.7482 3.0660
L34.8692 3.1265
" />
<path d="M34.8692 3.1265
L34.9297 3.1870
" />
<path d="M34.9297 3.1870
L34.9901 3.3079
" />
<path d="M34.9901 3.3079
L34.9901 3.6103
" />
<path d="M34.9901 3.6103
L34.9297 3.7313
" />
<path d="M34.9297 3.7313
L34.8692 3.7917
" />
</g><path d="M32.8676 6.6040
L30.3276 6.6040
" />
<text x="32.9946" y="7.2390"
textLength="1.7756" font-size="1.6933" lengthAdjust="spacingAndGlyphs"
text-anchor="start" opacity="0">+</text>
<g class="stroked-text"><desc>+</desc>
<path d="M33.3971 6.6997
L34.3648 6.6997
" />
<path d="M33.8809 7.1835
L33.8809 6.2159
" />
</g><text x="31.5976" y="6.3500"
textLength="1.4127" font-size="1.6933" lengthAdjust="spacingAndGlyphs"
text-anchor="middle" opacity="0">1</text>
<g class="stroked-text"><desc>1</desc>
<path d="M31.9605 6.1865
L31.2348 6.1865
" />
<path d="M31.5976 6.1865
L31.5976 4.9165
" />
<path d="M31.5976 4.9165
L31.4767 5.0980
" />
<path d="M31.4767 5.0980
L31.3557 5.2189
" />
<path d="M31.3557 5.2189
L31.2348 5.2794
" />
</g><path d="M32.8676 11.6840
L30.3276 11.6840
" />
<text x="32.9946" y="12.3190"
textLength="1.7756" font-size="1.6933" lengthAdjust="spacingAndGlyphs"
text-anchor="start" opacity="0">-</text>
<g class="stroked-text"><desc>-</desc>
<path d="M33.3971 11.7797
L34.3648 11.7797
" />
</g><text x="31.5976" y="11.4300"
textLength="1.4127" font-size="1.6933" lengthAdjust="spacingAndGlyphs"
text-anchor="middle" opacity="0">3</text>
<g class="stroked-text"><desc>3</desc>
<path d="M31.1743 9.9965
L31.9605 9.9965
" />
<path d="M31.9605 9.9965
L31.5371 10.4803
" />
<path d="M31.5371 10.4803
L31.7186 10.4803
" />
<path d="M31.7186 10.4803
L31.8395 10.5408
" />
<path d="M31.8395 10.5408
L31.9000 10.6013
" />
<path d="M31.9000 10.6013
L31.9605 10.7222
" />
<path d="M31.9605 10.7222
L31.9605 11.0246
" />
<path d="M31.9605 11.0246
L31.9000 11.1456
" />
<path d="M31.9000 11.1456
L31.8395 11.2061
" />
<path d="M31.8395 11.2061
L31.7186 11.2665
" />
<path d="M31.7186 11.2665
L31.3557 11.2665
" />
<path d="M31.3557 11.2665
L31.2348 11.2061
" />
<path d="M31.2348 11.2061
L31.1743 11.1456
" />
</g><path d="M43.0276 9.1440
L45.5676 9.1440
" />
<text x="44.2976" y="8.8900"
textLength="1.4127" font-size="1.6933" lengthAdjust="spacingAndGlyphs"
text-anchor="middle" opacity="0">4</text>
<g class="stroked-text"><desc>4</desc>
<path d="M44.5395 7.8799
L44.5395 8.7265
" />
<path d="M44.2371 7.3961
L43.9348 8.3032
" />
<path d="M43.9348 8.3032
L44.7209 8.3032
" />
</g></g>
<g style="fill:#000000; fill-opacity:0.0; 
stroke:#000000; stroke-width:0.1588; stroke-opacity:1; 
stroke-linecap:round; stroke-linejoin:round;">
<text x="39.2683" y="4.6990"
textLength="2.6415" font-size="1.6933" lengthAdjust="spacingAndGlyphs"
text-anchor="middle" opacity="0">U?</text>
<g class="stroked-text"><desc>U?</desc>
<path d="M38.3611 3.3732
L38.3611 4.4013
" />
<path d="M38.3611 4.4013
L38.4216 4.5223
" />
<path d="M38.4216 4.5223
L38.4821 4.5828
" />
<path d="M38.4821 4.5828
L38.6030 4.6432
" />
<path d="M38.6030 4.6432
L38.8449 4.6432
" />
<path d="M38.8449 4.6432
L38.9659 4.5828
" />
<path d="M38.9659 4.5828
L39.0264 4.5223
" />
<path d="M39.0264 4.5223
L39.0868 4.4013
" />
<path d="M39.0868 4.4013
L39.0868 3.3732
" />
<path d="M39.8731 4.5223
L39.9335 4.5828
" />
<path d="M39.9335 4.5828
L39.8731 4.6432
" />
<path d="M39.8731 4.6432
L39.8126 4.5828
" />
<path d="M39.8126 4.5828
L39.8731 4.5223
" />
<path d="M39.8731 4.5223
L39.8731 4.6432
" />
<path d="M39.6312 3.4337
L39.7521 3.3732
" />
<path d="M39.7521 3.3732
L40.0545 3.3732
" />
<path d="M40.0545 3.3732
L40.1754 3.4337
" />
<path d="M40.1754 3.4337
L40.2359 3.5547
" />
<path d="M40.2359 3.5547
L40.2359 3.6756
" />
<path d="M40.2359 3.6756
L40.1754 3.7966
" />
<path d="M40.1754 3.7966
L40.1150 3.8570
" />
<path d="M40.1150 3.8570
L39.9940 3.9175
" />
<path d="M39.9940 3.9175
L39.9335 3.9780
" />
<path d="M39.9335 3.9780
L39.8731 4.0989
" />
<path d="M39.8731 4.0989
L39.8731 4.1594
" />
</g><text x="46.0718" y="14.8590"
textLength="16.2485" font-size="1.6933" lengthAdjust="spacingAndGlyphs"
text-anchor="middle" opacity="0">MCP6401UT-xOT</text>
<g class="stroked-text"><desc>MCP6401UT-xOT</desc>
<path d="M38.3611 14.8032
L38.3611 13.5332
" />
<path d="M38.3611 13.5332
L38.7845 14.4404
" />
<path d="M38.7845 14.4404
L39.2078 13.5332
" />
<path d="M39.2078 13.5332
L39.2078 14.8032
" />
<path d="M40.5382 14.6823
L40.4778 14.7428
" />
<path d="M40.4778 14.7428
L40.2963 14.8032
" />
<path d="M40.2963 14.8032
L40.1754 14.8032
" />
<path d="M40.1754 14.8032
L39.9940 14.7428
" />
<path d="M39.9940 14.7428
L39.8730 14.6218
" />
<path d="M39.8730 14.6218
L39.8125 14.5008
" />
<path d="M39.8125 14.5008
L39.7521 14.2589
" />
<path d="M39.7521 14.2589
L39.7521 14.0775
" />
<path d="M39.7521 14.0775
L39.8125 13.8356
" />
<path d="M39.8125 13.8356
L39.8730 13.7147
" />
<path d="M39.8730 13.7147
L39.9940 13.5937
" />
<path d="M39.9940 13.5937
L40.1754 13.5332
" />
<path d="M40.1754 13.5332
L40.2963 13.5332
" />
<path d="M40.2963 13.5332
L40.4778 13.5937
" />
<path d="M40.4778 13.5937
L40.5382 13.6542
" />
<path d="M41.0825 14.8032
L41.0825 13.5332
" />
<path d="M41.0825 13.5332
L41.5663 13.5332
" />
<path d="M41.5663 13.5332
L41.6873 13.5937
" />
<path d="M41.6873 13.5937
L41.7478 13.6542
" />
<path d="M41.7478 13.6542
L41.8082 13.7751
" />
<path d="M41.8082 13.7751
L41.8082 13.9566
" />
<path d="M41.8082 13.9566
L41.7478 14.0775
" />
<path d="M41.7478 14.0775
L41.6873 14.1380
" />
<path d="M41.6873 14.1380
L41.5663 14.1985
" />
<path d="M41.5663 14.1985
L41.0825 14.1985
" />
<path d="M42.8968 13.5332
L42.6549 13.5332
" />
<path d="M42.6549 13.5332
L42.5340 13.5937
" />
<path d="M42.5340 13.5937
L42.4735 13.6542
" />
<path d="M42.4735 13.6542
L42.3525 13.8356
" />
<path d="M42.3525 13.8356
L42.2921 14.0775
" />
<path d="M42.2921 14.0775
L42.2921 14.5613
" />
<path d="M42.2921 14.5613
L42.3525 14.6823
" />
<path d="M42.3525 14.6823
L42.4130 14.7428
" />
<path d="M42.4130 14.7428
L42.5340 14.8032
" />
<path d="M42.5340 14.8032
L42.7759 14.8032
" />
<path d="M42.7759 14.8032
L42.8968 14.7428
" />
<path d="M42.8968 14.7428
L42.9573 14.6823
" />
<path d="M42.9573 14.6823
L43.0178 14.5613
" />
<path d="M43.0178 14.5613
L43.0178 14.2589
" />
<path d="M43.0178 14.2589
L42.9573 14.1380
" />
<path d="M42.9573 14.1380
L42.8968 14.0775
" />
<path d="M42.8968 14.0775
L42.7759 14.0170
" />
<path d="M42.7759 14.0170
L42.5340 14.0170
" />
<path d="M42.5340 14.0170
L42.4130 14.0775
" />
<path d="M42.4130 14.0775
L42.3525 14.1380
" />
<path d="M42.3525 14.1380
L42.2921 14.2589
" />
<path d="M44.1063 13.9566
L44.1063 14.8032
" />
<path d="M43.8039 13.4728
L43.5016 14.3799
" />
<path d="M43.5016 14.3799
L44.2877 14.3799
" />
<path d="M45.0134 13.5332
L45.1344 13.5332
" />
<path d="M45.1344 13.5332
L45.2553 13.5937
" />
<path d="M45.2553 13.5937
L45.3158 13.6542
" />
<path d="M45.3158 13.6542
L45.3763 13.7751
" />
<path d="M45.3763 13.7751
L45.4368 14.0170
" />
<path d="M45.4368 14.0170
L45.4368 14.3194
" />
<path d="M45.4368 14.3194
L45.3763 14.5613
" />
<path d="M45.3763 14.5613
L45.3158 14.6823
" />
<path d="M45.3158 14.6823
L45.2553 14.7428
" />
<path d="M45.2553 14.7428
L45.1344 14.8032
" />
<path d="M45.1344 14.8032
L45.0134 14.8032
" />
<path d="M45.0134 14.8032
L44.8925 14.7428
" />
<path d="M44.8925 14.7428
L44.8320 14.6823
" />
<path d="M44.8320 14.6823
L44.7715 14.5613
" />
<path d="M44.7715 14.5613
L44.7111 14.3194
" />
<path d="M44.7111 14.3194
L44.7111 14.0170
" />
<path d="M44.7111 14.0170
L44.7715 13.7751
" />
<path d="M44.7715 13.7751
L44.8320 13.6542
" />
<path d="M44.8320 13.6542
L44.8925 13.5937
" />
<path d="M44.8925 13.5937
L45.0134 13.5332
" />
<path d="M46.6463 14.8032
L45.9206 14.8032
" />
<path d="M46.2834 14.8032
L46.2834 13.5332
" />
<path d="M46.2834 13.5332
L46.1625 13.7147
" />
<path d="M46.1625 13.7147
L46.0415 13.8356
" />
<path d="M46.0415 13.8356
L45.9206 13.8961
" />
<path d="M47.1905 13.5332
L47.1905 14.5613
" />
<path d="M47.1905 14.5613
L47.2510 14.6823
" />
<path d="M47.2510 14.6823
L47.3115 14.7428
" />
<path d="M47.3115 14.7428
L47.4324 14.8032
" />
<path d="M47.4324 14.8032
L47.6743 14.8032
" />
<path d="M47.6743 14.8032
L47.7953 14.7428
" />
<path d="M47.7953 14.7428
L47.8558 14.6823
" />
<path d="M47.8558 14.6823
L47.9162 14.5613
" />
<path d="M47.9162 14.5613
L47.9162 13.5332
" />
<path d="M48.3396 13.5332
L49.0653 13.5332
" />
<path d="M48.7025 14.8032
L48.7025 13.5332
" />
<path d="M49.4886 14.3194
L50.4563 14.3194
" />
<path d="M50.9401 14.8032
L51.6053 13.9566
" />
<path d="M50.9401 13.9566
L51.6053 14.8032
" />
<path d="M52.3310 13.5332
L52.5729 13.5332
" />
<path d="M52.5729 13.5332
L52.6939 13.5937
" />
<path d="M52.6939 13.5937
L52.8148 13.7147
" />
<path d="M52.8148 13.7147
L52.8753 13.9566
" />
<path d="M52.8753 13.9566
L52.8753 14.3799
" />
<path d="M52.8753 14.3799
L52.8148 14.6218
" />
<path d="M52.8148 14.6218
L52.6939 14.7428
" />
<path d="M52.6939 14.7428
L52.5729 14.8032
" />
<path d="M52.5729 14.8032
L52.3310 14.8032
" />
<path d="M52.3310 14.8032
L52.2101 14.7428
" />
<path d="M52.2101 14.7428
L52.0891 14.6218
" />
<path d="M52.0891 14.6218
L52.0287 14.3799
" />
<path d="M52.0287 14.3799
L52.0287 13.9566
" />
<path d="M52.0287 13.9566
L52.0891 13.7147
" />
<path d="M52.0891 13.7147
L52.2101 13.5937
" />
<path d="M52.2101 13.5937
L52.3310 13.5332
" />
<path d="M53.2382 13.5332
L53.9639 13.5332
" />
<path d="M53.6011 14.8032
L53.6011 13.5332
" />
</g></g> 
</svg>
