<?xml version="1.0" standalone="no"?>
 <!DOCTYPE svg PUBLIC "-//W3C//DTD SVG 1.1//EN" 
 "http://www.w3.org/Graphics/SVG/1.1/DTD/svg11.dtd"> 
<svg
  xmlns:svg="http://www.w3.org/2000/svg"
  xmlns="http://www.w3.org/2000/svg"
  xmlns:xlink="http://www.w3.org/1999/xlink"
  version="1.1"
  width="54.0512mm" height="18.2880mm" viewBox="0.0000 0.0000 54.0512 18.2880">
<title>SVG Image created as opa330xxdck.svg date 2024/01/16 15:18:08 </title>
  <desc>Image generated by Eeschema-SVG </desc>
<g style="fill:#000000; fill-opacity:1.0000;stroke:#000000; stroke-opacity:1.0000;
stroke-linecap:round; stroke-linejoin:round;"
 transform="translate(0 0) scale(1 1)">
</g>
<g style="fill:#000000; fill-opacity:0.0; 
stroke:#000000; stroke-width:0.0000; stroke-opacity:1; 
stroke-linecap:round; stroke-linejoin:round;">
</g>
<g style="fill:#000000; fill-opacity:0.0; 
stroke:#000000; stroke-width:0.2540; stroke-opacity:1; 
stroke-linecap:round; stroke-linejoin:round;">
<path style="fill:#000000; fill-opacity:0.0; 
stroke:#000000; stroke-width:0.2540; stroke-opacity:1; 
stroke-linecap:round; stroke-linejoin:round;fill:none"
d="M 21.9456,4.0640
32.1056,9.1440
21.9456,14.2240
Z" /> 
</g>
<g style="fill:#000000; fill-opacity:0.0; 
stroke:#000000; stroke-width:0.1524; stroke-opacity:1; 
stroke-linecap:round; stroke-linejoin:round;">
<path d="M24.4856 12.9540
L24.4856 16.7640
" />
<g transform="rotate(-90.000000 24.4856 12.8270)">
<text x="24.4856" y="13.4620"
textLength="2.8642" font-size="1.6933" lengthAdjust="spacingAndGlyphs"
text-anchor="start" opacity="0">V-</text>
</g>
<g class="stroked-text"><desc>V-</desc>
<path d="M23.7951 12.6058
L25.0651 12.1825
" />
<path d="M25.0651 12.1825
L23.7951 11.7591
" />
<path d="M24.5813 11.3358
L24.5813 10.3682
" />
</g><g transform="rotate(-90.000000 24.2316 14.8590)">
<text x="24.2316" y="14.8590"
textLength="1.4127" font-size="1.6933" lengthAdjust="spacingAndGlyphs"
text-anchor="middle" opacity="0">2</text>
</g>
<g class="stroked-text"><desc>2</desc>
<path d="M22.9191 15.2217
L22.8586 15.1613
" />
<path d="M22.8586 15.1613
L22.7981 15.0403
" />
<path d="M22.7981 15.0403
L22.7981 14.7379
" />
<path d="M22.7981 14.7379
L22.8586 14.6170
" />
<path d="M22.8586 14.6170
L22.9191 14.5565
" />
<path d="M22.9191 14.5565
L23.0400 14.4960
" />
<path d="M23.0400 14.4960
L23.1610 14.4960
" />
<path d="M23.1610 14.4960
L23.3424 14.5565
" />
<path d="M23.3424 14.5565
L24.0681 15.2822
" />
<path d="M24.0681 15.2822
L24.0681 14.4960
" />
</g><path d="M24.4856 5.3340
L24.4856 1.5240
" />
<g transform="rotate(-90.000000 24.4856 5.4610)">
<text x="24.4856" y="6.0960"
textLength="2.8642" font-size="1.6933" lengthAdjust="spacingAndGlyphs"
text-anchor="end" opacity="0">V+</text>
</g>
<g class="stroked-text"><desc>V+</desc>
<path d="M23.7951 8.1012
L25.0651 7.6779
" />
<path d="M25.0651 7.6779
L23.7951 7.2545
" />
<path d="M24.5813 6.8312
L24.5813 5.8636
" />
<path d="M25.0651 6.3474
L24.0975 6.3474
" />
</g><g transform="rotate(-90.000000 24.2316 3.4290)">
<text x="24.2316" y="3.4290"
textLength="1.4127" font-size="1.6933" lengthAdjust="spacingAndGlyphs"
text-anchor="middle" opacity="0">5</text>
</g>
<g class="stroked-text"><desc>5</desc>
<path d="M22.7981 3.1265
L22.7981 3.7313
" />
<path d="M22.7981 3.7313
L23.4029 3.7917
" />
<path d="M23.4029 3.7917
L23.3424 3.7313
" />
<path d="M23.3424 3.7313
L23.2819 3.6103
" />
<path d="M23.2819 3.6103
L23.2819 3.3079
" />
<path d="M23.2819 3.3079
L23.3424 3.1870
" />
<path d="M23.3424 3.1870
L23.4029 3.1265
" />
<path d="M23.4029 3.1265
L23.5238 3.0660
" />
<path d="M23.5238 3.0660
L23.8262 3.0660
" />
<path d="M23.8262 3.0660
L23.9472 3.1265
" />
<path d="M23.9472 3.1265
L24.0077 3.1870
" />
<path d="M24.0077 3.1870
L24.0681 3.3079
" />
<path d="M24.0681 3.3079
L24.0681 3.6103
" />
<path d="M24.0681 3.6103
L24.0077 3.7313
" />
<path d="M24.0077 3.7313
L23.9472 3.7917
" />
</g><path d="M21.9456 6.6040
L19.4056 6.6040
" />
<text x="22.0726" y="7.2390"
textLength="1.7756" font-size="1.6933" lengthAdjust="spacingAndGlyphs"
text-anchor="start" opacity="0">+</text>
<g class="stroked-text"><desc>+</desc>
<path d="M22.4751 6.6997
L23.4428 6.6997
" />
<path d="M22.9589 7.1835
L22.9589 6.2159
" />
</g><text x="20.6756" y="6.3500"
textLength="1.4127" font-size="1.6933" lengthAdjust="spacingAndGlyphs"
text-anchor="middle" opacity="0">1</text>
<g class="stroked-text"><desc>1</desc>
<path d="M21.0385 6.1865
L20.3128 6.1865
" />
<path d="M20.6756 6.1865
L20.6756 4.9165
" />
<path d="M20.6756 4.9165
L20.5547 5.0980
" />
<path d="M20.5547 5.0980
L20.4337 5.2189
" />
<path d="M20.4337 5.2189
L20.3128 5.2794
" />
</g><path d="M21.9456 11.6840
L19.4056 11.6840
" />
<text x="22.0726" y="12.3190"
textLength="1.7756" font-size="1.6933" lengthAdjust="spacingAndGlyphs"
text-anchor="start" opacity="0">-</text>
<g class="stroked-text"><desc>-</desc>
<path d="M22.4751 11.7797
L23.4428 11.7797
" />
</g><text x="20.6756" y="11.4300"
textLength="1.4127" font-size="1.6933" lengthAdjust="spacingAndGlyphs"
text-anchor="middle" opacity="0">3</text>
<g class="stroked-text"><desc>3</desc>
<path d="M20.2523 9.9965
L21.0385 9.9965
" />
<path d="M21.0385 9.9965
L20.6151 10.4803
" />
<path d="M20.6151 10.4803
L20.7966 10.4803
" />
<path d="M20.7966 10.4803
L20.9175 10.5408
" />
<path d="M20.9175 10.5408
L20.9780 10.6013
" />
<path d="M20.9780 10.6013
L21.0385 10.7222
" />
<path d="M21.0385 10.7222
L21.0385 11.0246
" />
<path d="M21.0385 11.0246
L20.9780 11.1456
" />
<path d="M20.9780 11.1456
L20.9175 11.2061
" />
<path d="M20.9175 11.2061
L20.7966 11.2665
" />
<path d="M20.7966 11.2665
L20.4337 11.2665
" />
<path d="M20.4337 11.2665
L20.3128 11.2061
" />
<path d="M20.3128 11.2061
L20.2523 11.1456
" />
</g><path d="M32.1056 9.1440
L34.6456 9.1440
" />
<text x="33.3756" y="8.8900"
textLength="1.4127" font-size="1.6933" lengthAdjust="spacingAndGlyphs"
text-anchor="middle" opacity="0">4</text>
<g class="stroked-text"><desc>4</desc>
<path d="M33.6175 7.8799
L33.6175 8.7265
" />
<path d="M33.3151 7.3961
L33.0128 8.3032
" />
<path d="M33.0128 8.3032
L33.7989 8.3032
" />
</g></g>
<g style="fill:#000000; fill-opacity:0.0; 
stroke:#000000; stroke-width:0.1588; stroke-opacity:1; 
stroke-linecap:round; stroke-linejoin:round;">
<text x="28.3463" y="4.6990"
textLength="2.6415" font-size="1.6933" lengthAdjust="spacingAndGlyphs"
text-anchor="middle" opacity="0">U?</text>
<g class="stroked-text"><desc>U?</desc>
<path d="M27.4391 3.3732
L27.4391 4.4013
" />
<path d="M27.4391 4.4013
L27.4996 4.5223
" />
<path d="M27.4996 4.5223
L27.5601 4.5828
" />
<path d="M27.5601 4.5828
L27.6810 4.6432
" />
<path d="M27.6810 4.6432
L27.9229 4.6432
" />
<path d="M27.9229 4.6432
L28.0439 4.5828
" />
<path d="M28.0439 4.5828
L28.1044 4.5223
" />
<path d="M28.1044 4.5223
L28.1648 4.4013
" />
<path d="M28.1648 4.4013
L28.1648 3.3732
" />
<path d="M28.9511 4.5223
L29.0115 4.5828
" />
<path d="M29.0115 4.5828
L28.9511 4.6432
" />
<path d="M28.9511 4.6432
L28.8906 4.5828
" />
<path d="M28.8906 4.5828
L28.9511 4.5223
" />
<path d="M28.9511 4.5223
L28.9511 4.6432
" />
<path d="M28.7092 3.4337
L28.8301 3.3732
" />
<path d="M28.8301 3.3732
L29.1325 3.3732
" />
<path d="M29.1325 3.3732
L29.2534 3.4337
" />
<path d="M29.2534 3.4337
L29.3139 3.5547
" />
<path d="M29.3139 3.5547
L29.3139 3.6756
" />
<path d="M29.3139 3.6756
L29.2534 3.7966
" />
<path d="M29.2534 3.7966
L29.1930 3.8570
" />
<path d="M29.1930 3.8570
L29.0720 3.9175
" />
<path d="M29.0720 3.9175
L29.0115 3.9780
" />
<path d="M29.0115 3.9780
L28.9511 4.0989
" />
<path d="M28.9511 4.0989
L28.9511 4.1594
" />
</g><text x="33.7287" y="14.8590"
textLength="13.4062" font-size="1.6933" lengthAdjust="spacingAndGlyphs"
text-anchor="middle" opacity="0">OPA330xxDCK</text>
<g class="stroked-text"><desc>OPA330xxDCK</desc>
<path d="M27.6810 13.5332
L27.9229 13.5332
" />
<path d="M27.9229 13.5332
L28.0439 13.5937
" />
<path d="M28.0439 13.5937
L28.1648 13.7147
" />
<path d="M28.1648 13.7147
L28.2253 13.9566
" />
<path d="M28.2253 13.9566
L28.2253 14.3799
" />
<path d="M28.2253 14.3799
L28.1648 14.6218
" />
<path d="M28.1648 14.6218
L28.0439 14.7428
" />
<path d="M28.0439 14.7428
L27.9229 14.8032
" />
<path d="M27.9229 14.8032
L27.6810 14.8032
" />
<path d="M27.6810 14.8032
L27.5601 14.7428
" />
<path d="M27.5601 14.7428
L27.4391 14.6218
" />
<path d="M27.4391 14.6218
L27.3787 14.3799
" />
<path d="M27.3787 14.3799
L27.3787 13.9566
" />
<path d="M27.3787 13.9566
L27.4391 13.7147
" />
<path d="M27.4391 13.7147
L27.5601 13.5937
" />
<path d="M27.5601 13.5937
L27.6810 13.5332
" />
<path d="M28.7696 14.8032
L28.7696 13.5332
" />
<path d="M28.7696 13.5332
L29.2534 13.5332
" />
<path d="M29.2534 13.5332
L29.3744 13.5937
" />
<path d="M29.3744 13.5937
L29.4349 13.6542
" />
<path d="M29.4349 13.6542
L29.4953 13.7751
" />
<path d="M29.4953 13.7751
L29.4953 13.9566
" />
<path d="M29.4953 13.9566
L29.4349 14.0775
" />
<path d="M29.4349 14.0775
L29.3744 14.1380
" />
<path d="M29.3744 14.1380
L29.2534 14.1985
" />
<path d="M29.2534 14.1985
L28.7696 14.1985
" />
<path d="M29.9792 14.4404
L30.5839 14.4404
" />
<path d="M29.8582 14.8032
L30.2815 13.5332
" />
<path d="M30.2815 13.5332
L30.7049 14.8032
" />
<path d="M31.0073 13.5332
L31.7935 13.5332
" />
<path d="M31.7935 13.5332
L31.3701 14.0170
" />
<path d="M31.3701 14.0170
L31.5516 14.0170
" />
<path d="M31.5516 14.0170
L31.6725 14.0775
" />
<path d="M31.6725 14.0775
L31.7330 14.1380
" />
<path d="M31.7330 14.1380
L31.7935 14.2589
" />
<path d="M31.7935 14.2589
L31.7935 14.5613
" />
<path d="M31.7935 14.5613
L31.7330 14.6823
" />
<path d="M31.7330 14.6823
L31.6725 14.7428
" />
<path d="M31.6725 14.7428
L31.5516 14.8032
" />
<path d="M31.5516 14.8032
L31.1887 14.8032
" />
<path d="M31.1887 14.8032
L31.0678 14.7428
" />
<path d="M31.0678 14.7428
L31.0073 14.6823
" />
<path d="M32.2168 13.5332
L33.0030 13.5332
" />
<path d="M33.0030 13.5332
L32.5796 14.0170
" />
<path d="M32.5796 14.0170
L32.7611 14.0170
" />
<path d="M32.7611 14.0170
L32.8820 14.0775
" />
<path d="M32.8820 14.0775
L32.9425 14.1380
" />
<path d="M32.9425 14.1380
L33.0030 14.2589
" />
<path d="M33.0030 14.2589
L33.0030 14.5613
" />
<path d="M33.0030 14.5613
L32.9425 14.6823
" />
<path d="M32.9425 14.6823
L32.8820 14.7428
" />
<path d="M32.8820 14.7428
L32.7611 14.8032
" />
<path d="M32.7611 14.8032
L32.3982 14.8032
" />
<path d="M32.3982 14.8032
L32.2773 14.7428
" />
<path d="M32.2773 14.7428
L32.2168 14.6823
" />
<path d="M33.7891 13.5332
L33.9101 13.5332
" />
<path d="M33.9101 13.5332
L34.0310 13.5937
" />
<path d="M34.0310 13.5937
L34.0915 13.6542
" />
<path d="M34.0915 13.6542
L34.1520 13.7751
" />
<path d="M34.1520 13.7751
L34.2125 14.0170
" />
<path d="M34.2125 14.0170
L34.2125 14.3194
" />
<path d="M34.2125 14.3194
L34.1520 14.5613
" />
<path d="M34.1520 14.5613
L34.0915 14.6823
" />
<path d="M34.0915 14.6823
L34.0310 14.7428
" />
<path d="M34.0310 14.7428
L33.9101 14.8032
" />
<path d="M33.9101 14.8032
L33.7891 14.8032
" />
<path d="M33.7891 14.8032
L33.6682 14.7428
" />
<path d="M33.6682 14.7428
L33.6077 14.6823
" />
<path d="M33.6077 14.6823
L33.5472 14.5613
" />
<path d="M33.5472 14.5613
L33.4868 14.3194
" />
<path d="M33.4868 14.3194
L33.4868 14.0170
" />
<path d="M33.4868 14.0170
L33.5472 13.7751
" />
<path d="M33.5472 13.7751
L33.6077 13.6542
" />
<path d="M33.6077 13.6542
L33.6682 13.5937
" />
<path d="M33.6682 13.5937
L33.7891 13.5332
" />
<path d="M34.6358 14.8032
L35.3010 13.9566
" />
<path d="M34.6358 13.9566
L35.3010 14.8032
" />
<path d="M35.6639 14.8032
L36.3291 13.9566
" />
<path d="M35.6639 13.9566
L36.3291 14.8032
" />
<path d="M36.8129 14.8032
L36.8129 13.5332
" />
<path d="M36.8129 13.5332
L37.1153 13.5332
" />
<path d="M37.1153 13.5332
L37.2967 13.5937
" />
<path d="M37.2967 13.5937
L37.4177 13.7147
" />
<path d="M37.4177 13.7147
L37.4782 13.8356
" />
<path d="M37.4782 13.8356
L37.5386 14.0775
" />
<path d="M37.5386 14.0775
L37.5386 14.2589
" />
<path d="M37.5386 14.2589
L37.4782 14.5008
" />
<path d="M37.4782 14.5008
L37.4177 14.6218
" />
<path d="M37.4177 14.6218
L37.2967 14.7428
" />
<path d="M37.2967 14.7428
L37.1153 14.8032
" />
<path d="M37.1153 14.8032
L36.8129 14.8032
" />
<path d="M38.8086 14.6823
L38.7482 14.7428
" />
<path d="M38.7482 14.7428
L38.5667 14.8032
" />
<path d="M38.5667 14.8032
L38.4458 14.8032
" />
<path d="M38.4458 14.8032
L38.2644 14.7428
" />
<path d="M38.2644 14.7428
L38.1434 14.6218
" />
<path d="M38.1434 14.6218
L38.0829 14.5008
" />
<path d="M38.0829 14.5008
L38.0225 14.2589
" />
<path d="M38.0225 14.2589
L38.0225 14.0775
" />
<path d="M38.0225 14.0775
L38.0829 13.8356
" />
<path d="M38.0829 13.8356
L38.1434 13.7147
" />
<path d="M38.1434 13.7147
L38.2644 13.5937
" />
<path d="M38.2644 13.5937
L38.4458 13.5332
" />
<path d="M38.4458 13.5332
L38.5667 13.5332
" />
<path d="M38.5667 13.5332
L38.7482 13.5937
" />
<path d="M38.7482 13.5937
L38.8086 13.6542
" />
<path d="M39.3529 14.8032
L39.3529 13.5332
" />
<path d="M40.0786 14.8032
L39.5344 14.0775
" />
<path d="M40.0786 13.5332
L39.3529 14.2589
" />
</g></g> 
</svg>
