<?xml version="1.0" standalone="no"?>
 <!DOCTYPE svg PUBLIC "-//W3C//DTD SVG 1.1//EN" 
 "http://www.w3.org/Graphics/SVG/1.1/DTD/svg11.dtd"> 
<svg
  xmlns:svg="http://www.w3.org/2000/svg"
  xmlns="http://www.w3.org/2000/svg"
  xmlns:xlink="http://www.w3.org/1999/xlink"
  version="1.1"
  width="88.8238mm" height="18.7452mm" viewBox="0.0000 0.0000 88.8238 18.7452">
<title>SVG Image created as b80r.svg date 2024/01/16 15:18:30 </title>
  <desc>Image generated by Eeschema-SVG </desc>
<g style="fill:#000000; fill-opacity:1.0000;stroke:#000000; stroke-opacity:1.0000;
stroke-linecap:round; stroke-linejoin:round;"
 transform="translate(0 0) scale(1 1)">
</g>
<g style="fill:#000000; fill-opacity:0.0; 
stroke:#000000; stroke-width:0.0000; stroke-opacity:1; 
stroke-linecap:round; stroke-linejoin:round;">
</g>
<g style="fill:#000000; fill-opacity:0.0; 
stroke:#000000; stroke-width:0.1524; stroke-opacity:1; 
stroke-linecap:round; stroke-linejoin:round;">
<path style="fill:#000000; fill-opacity:0.0; 
stroke:#000000; stroke-width:0.1524; stroke-opacity:1; 
stroke-linecap:round; stroke-linejoin:round;fill:none"
d="M 41.8719,5.5626
43.1419,6.8326
" /> 
<path style="fill:#000000; fill-opacity:0.0; 
stroke:#000000; stroke-width:0.1524; stroke-opacity:1; 
stroke-linecap:round; stroke-linejoin:round;fill:none"
d="M 43.1419,11.9126
41.8719,13.1826
" /> 
<path style="fill:#000000; fill-opacity:0.0; 
stroke:#000000; stroke-width:0.1524; stroke-opacity:1; 
stroke-linecap:round; stroke-linejoin:round;fill:none"
d="M 46.9519,10.6426
48.2219,11.9126
" /> 
<path style="fill:#000000; fill-opacity:0.0; 
stroke:#000000; stroke-width:0.1524; stroke-opacity:1; 
stroke-linecap:round; stroke-linejoin:round;fill:none"
d="M 46.9519,8.1026
48.2219,6.8326
" /> 
<path style="fill:#000000; fill-opacity:0.0; 
stroke:#000000; stroke-width:0.1524; stroke-opacity:1; 
stroke-linecap:round; stroke-linejoin:round;fill:none"
d="M 40.6019,6.8326
41.8719,8.1026
42.5069,6.1976
Z" /> 
<path style="fill:#000000; fill-opacity:0.0; 
stroke:#000000; stroke-width:0.1524; stroke-opacity:1; 
stroke-linecap:round; stroke-linejoin:round;fill:none"
d="M 41.8719,10.6426
40.6019,11.9126
42.5069,12.5476
Z" /> 
<path style="fill:#000000; fill-opacity:0.0; 
stroke:#000000; stroke-width:0.1524; stroke-opacity:1; 
stroke-linecap:round; stroke-linejoin:round;fill:none"
d="M 45.6819,6.8326
46.9519,5.5626
47.5869,7.4676
Z" /> 
<path style="fill:#000000; fill-opacity:0.0; 
stroke:#000000; stroke-width:0.1524; stroke-opacity:1; 
stroke-linecap:round; stroke-linejoin:round;fill:none"
d="M 47.5869,11.2776
45.6819,11.9126
46.9519,13.1826
Z" /> 
<path style="fill:#000000; fill-opacity:0.0; 
stroke:#000000; stroke-width:0.1524; stroke-opacity:1; 
stroke-linecap:round; stroke-linejoin:round;fill:none"
d="M 39.3319,9.3726
44.4119,14.4526
49.4919,9.3726
44.4119,4.2926
Z" /> 
<path d="M49.4919 9.3726
L52.0319 9.3726
" />
<text x="50.7619" y="9.1186"
textLength="1.7756" font-size="1.6933" lengthAdjust="spacingAndGlyphs"
text-anchor="middle" opacity="0">+</text>
<g class="stroked-text"><desc>+</desc>
<path d="M50.2780 8.4713
L51.2457 8.4713
" />
<path d="M50.7618 8.9551
L50.7618 7.9875
" />
</g><text x="50.7619" y="10.8966"
textLength="1.4127" font-size="1.6933" lengthAdjust="spacingAndGlyphs"
text-anchor="middle" opacity="0">1</text>
<g class="stroked-text"><desc>1</desc>
<path d="M51.1248 10.9490
L50.3991 10.9490
" />
<path d="M50.7619 10.9490
L50.7619 9.6790
" />
<path d="M50.7619 9.6790
L50.6410 9.8605
" />
<path d="M50.6410 9.8605
L50.5200 9.9814
" />
<path d="M50.5200 9.9814
L50.3991 10.0419
" />
</g><path d="M44.4119 14.4526
L44.4119 16.9926
" />
<g transform="rotate(-90.000000 44.6659 15.7226)">
<text x="44.6659" y="16.9926"
textLength="1.4127" font-size="1.6933" lengthAdjust="spacingAndGlyphs"
text-anchor="middle" opacity="0">2</text>
</g>
<g class="stroked-text"><desc>2</desc>
<path d="M44.8393 16.0853
L44.7788 16.0249
" />
<path d="M44.7788 16.0249
L44.7183 15.9039
" />
<path d="M44.7183 15.9039
L44.7183 15.6015
" />
<path d="M44.7183 15.6015
L44.7788 15.4806
" />
<path d="M44.7788 15.4806
L44.8393 15.4201
" />
<path d="M44.8393 15.4201
L44.9602 15.3596
" />
<path d="M44.9602 15.3596
L45.0812 15.3596
" />
<path d="M45.0812 15.3596
L45.2626 15.4201
" />
<path d="M45.2626 15.4201
L45.9883 16.1458
" />
<path d="M45.9883 16.1458
L45.9883 15.3596
" />
</g><path d="M39.3319 9.3726
L36.7919 9.3726
" />
<text x="38.0619" y="9.1186"
textLength="1.7756" font-size="1.6933" lengthAdjust="spacingAndGlyphs"
text-anchor="middle" opacity="0">-</text>
<g class="stroked-text"><desc>-</desc>
<path d="M37.5780 8.4713
L38.5457 8.4713
" />
</g><text x="38.0619" y="10.8966"
textLength="1.4127" font-size="1.6933" lengthAdjust="spacingAndGlyphs"
text-anchor="middle" opacity="0">3</text>
<g class="stroked-text"><desc>3</desc>
<path d="M37.6386 9.6790
L38.4248 9.6790
" />
<path d="M38.4248 9.6790
L38.0014 10.1628
" />
<path d="M38.0014 10.1628
L38.1829 10.1628
" />
<path d="M38.1829 10.1628
L38.3038 10.2233
" />
<path d="M38.3038 10.2233
L38.3643 10.2838
" />
<path d="M38.3643 10.2838
L38.4248 10.4047
" />
<path d="M38.4248 10.4047
L38.4248 10.7071
" />
<path d="M38.4248 10.7071
L38.3643 10.8281
" />
<path d="M38.3643 10.8281
L38.3038 10.8886
" />
<path d="M38.3038 10.8886
L38.1829 10.9490
" />
<path d="M38.1829 10.9490
L37.8200 10.9490
" />
<path d="M37.8200 10.9490
L37.6991 10.8886
" />
<path d="M37.6991 10.8886
L37.6386 10.8281
" />
</g><path d="M44.4119 4.2926
L44.4119 1.7526
" />
<g transform="rotate(-90.000000 44.6659 3.0226)">
<text x="44.6659" y="4.2926"
textLength="1.4127" font-size="1.6933" lengthAdjust="spacingAndGlyphs"
text-anchor="middle" opacity="0">4</text>
</g>
<g class="stroked-text"><desc>4</desc>
<path d="M45.1417 2.7806
L45.9883 2.7806
" />
<path d="M44.6579 3.0830
L45.5650 3.3853
" />
<path d="M45.5650 3.3853
L45.5650 2.5992
" />
</g></g>
<g style="fill:#000000; fill-opacity:0.0; 
stroke:#000000; stroke-width:0.1588; stroke-opacity:1; 
stroke-linecap:round; stroke-linejoin:round;">
<text x="48.2424" y="3.0226"
textLength="2.5810" font-size="1.6933" lengthAdjust="spacingAndGlyphs"
text-anchor="middle" opacity="0">D?</text>
<g class="stroked-text"><desc>D?</desc>
<path d="M47.3654 2.9668
L47.3654 1.6968
" />
<path d="M47.3654 1.6968
L47.6678 1.6968
" />
<path d="M47.6678 1.6968
L47.8492 1.7573
" />
<path d="M47.8492 1.7573
L47.9702 1.8783
" />
<path d="M47.9702 1.8783
L48.0307 1.9992
" />
<path d="M48.0307 1.9992
L48.0911 2.2411
" />
<path d="M48.0911 2.2411
L48.0911 2.4225
" />
<path d="M48.0911 2.4225
L48.0307 2.6644
" />
<path d="M48.0307 2.6644
L47.9702 2.7854
" />
<path d="M47.9702 2.7854
L47.8492 2.9064
" />
<path d="M47.8492 2.9064
L47.6678 2.9668
" />
<path d="M47.6678 2.9668
L47.3654 2.9668
" />
<path d="M48.8169 2.8459
L48.8773 2.9064
" />
<path d="M48.8773 2.9064
L48.8169 2.9668
" />
<path d="M48.8169 2.9668
L48.7564 2.9064
" />
<path d="M48.7564 2.9064
L48.8169 2.8459
" />
<path d="M48.8169 2.8459
L48.8169 2.9668
" />
<path d="M48.5750 1.7573
L48.6959 1.6968
" />
<path d="M48.6959 1.6968
L48.9983 1.6968
" />
<path d="M48.9983 1.6968
L49.1192 1.7573
" />
<path d="M49.1192 1.7573
L49.1797 1.8783
" />
<path d="M49.1797 1.8783
L49.1797 1.9992
" />
<path d="M49.1797 1.9992
L49.1192 2.1202
" />
<path d="M49.1192 2.1202
L49.0588 2.1806
" />
<path d="M49.0588 2.1806
L48.9378 2.2411
" />
<path d="M48.9378 2.2411
L48.8773 2.3016
" />
<path d="M48.8773 2.3016
L48.8169 2.4225
" />
<path d="M48.8169 2.4225
L48.8169 2.4830
" />
</g><text x="49.5426" y="4.9276"
textLength="5.1814" font-size="1.6933" lengthAdjust="spacingAndGlyphs"
text-anchor="middle" opacity="0">B80R</text>
<g class="stroked-text"><desc>B80R</desc>
<path d="M47.7888 4.2066
L47.9702 4.2671
" />
<path d="M47.9702 4.2671
L48.0307 4.3275
" />
<path d="M48.0307 4.3275
L48.0911 4.4485
" />
<path d="M48.0911 4.4485
L48.0911 4.6299
" />
<path d="M48.0911 4.6299
L48.0307 4.7509
" />
<path d="M48.0307 4.7509
L47.9702 4.8114
" />
<path d="M47.9702 4.8114
L47.8492 4.8718
" />
<path d="M47.8492 4.8718
L47.3654 4.8718
" />
<path d="M47.3654 4.8718
L47.3654 3.6018
" />
<path d="M47.3654 3.6018
L47.7888 3.6018
" />
<path d="M47.7888 3.6018
L47.9097 3.6623
" />
<path d="M47.9097 3.6623
L47.9702 3.7228
" />
<path d="M47.9702 3.7228
L48.0307 3.8437
" />
<path d="M48.0307 3.8437
L48.0307 3.9647
" />
<path d="M48.0307 3.9647
L47.9702 4.0856
" />
<path d="M47.9702 4.0856
L47.9097 4.1461
" />
<path d="M47.9097 4.1461
L47.7888 4.2066
" />
<path d="M47.7888 4.2066
L47.3654 4.2066
" />
<path d="M48.8169 4.1461
L48.6959 4.0856
" />
<path d="M48.6959 4.0856
L48.6354 4.0252
" />
<path d="M48.6354 4.0252
L48.5750 3.9042
" />
<path d="M48.5750 3.9042
L48.5750 3.8437
" />
<path d="M48.5750 3.8437
L48.6354 3.7228
" />
<path d="M48.6354 3.7228
L48.6959 3.6623
" />
<path d="M48.6959 3.6623
L48.8169 3.6018
" />
<path d="M48.8169 3.6018
L49.0588 3.6018
" />
<path d="M49.0588 3.6018
L49.1797 3.6623
" />
<path d="M49.1797 3.6623
L49.2402 3.7228
" />
<path d="M49.2402 3.7228
L49.3007 3.8437
" />
<path d="M49.3007 3.8437
L49.3007 3.9042
" />
<path d="M49.3007 3.9042
L49.2402 4.0252
" />
<path d="M49.2402 4.0252
L49.1797 4.0856
" />
<path d="M49.1797 4.0856
L49.0588 4.1461
" />
<path d="M49.0588 4.1461
L48.8169 4.1461
" />
<path d="M48.8169 4.1461
L48.6959 4.2066
" />
<path d="M48.6959 4.2066
L48.6354 4.2671
" />
<path d="M48.6354 4.2671
L48.5750 4.3880
" />
<path d="M48.5750 4.3880
L48.5750 4.6299
" />
<path d="M48.5750 4.6299
L48.6354 4.7509
" />
<path d="M48.6354 4.7509
L48.6959 4.8114
" />
<path d="M48.6959 4.8114
L48.8169 4.8718
" />
<path d="M48.8169 4.8718
L49.0588 4.8718
" />
<path d="M49.0588 4.8718
L49.1797 4.8114
" />
<path d="M49.1797 4.8114
L49.2402 4.7509
" />
<path d="M49.2402 4.7509
L49.3007 4.6299
" />
<path d="M49.3007 4.6299
L49.3007 4.3880
" />
<path d="M49.3007 4.3880
L49.2402 4.2671
" />
<path d="M49.2402 4.2671
L49.1797 4.2066
" />
<path d="M49.1797 4.2066
L49.0588 4.1461
" />
<path d="M50.0868 3.6018
L50.2078 3.6018
" />
<path d="M50.2078 3.6018
L50.3287 3.6623
" />
<path d="M50.3287 3.6623
L50.3892 3.7228
" />
<path d="M50.3892 3.7228
L50.4497 3.8437
" />
<path d="M50.4497 3.8437
L50.5102 4.0856
" />
<path d="M50.5102 4.0856
L50.5102 4.3880
" />
<path d="M50.5102 4.3880
L50.4497 4.6299
" />
<path d="M50.4497 4.6299
L50.3892 4.7509
" />
<path d="M50.3892 4.7509
L50.3287 4.8114
" />
<path d="M50.3287 4.8114
L50.2078 4.8718
" />
<path d="M50.2078 4.8718
L50.0868 4.8718
" />
<path d="M50.0868 4.8718
L49.9659 4.8114
" />
<path d="M49.9659 4.8114
L49.9054 4.7509
" />
<path d="M49.9054 4.7509
L49.8449 4.6299
" />
<path d="M49.8449 4.6299
L49.7845 4.3880
" />
<path d="M49.7845 4.3880
L49.7845 4.0856
" />
<path d="M49.7845 4.0856
L49.8449 3.8437
" />
<path d="M49.8449 3.8437
L49.9054 3.7228
" />
<path d="M49.9054 3.7228
L49.9659 3.6623
" />
<path d="M49.9659 3.6623
L50.0868 3.6018
" />
<path d="M51.7801 4.8718
L51.3568 4.2671
" />
<path d="M51.0544 4.8718
L51.0544 3.6018
" />
<path d="M51.0544 3.6018
L51.5382 3.6018
" />
<path d="M51.5382 3.6018
L51.6592 3.6623
" />
<path d="M51.6592 3.6623
L51.7197 3.7228
" />
<path d="M51.7197 3.7228
L51.7801 3.8437
" />
<path d="M51.7801 3.8437
L51.7801 4.0252
" />
<path d="M51.7801 4.0252
L51.7197 4.1461
" />
<path d="M51.7197 4.1461
L51.6592 4.2066
" />
<path d="M51.6592 4.2066
L51.5382 4.2671
" />
<path d="M51.5382 4.2671
L51.0544 4.2671
" />
</g></g> 
</svg>
