<?xml version="1.0" standalone="no"?>
 <!DOCTYPE svg PUBLIC "-//W3C//DTD SVG 1.1//EN" 
 "http://www.w3.org/Graphics/SVG/1.1/DTD/svg11.dtd"> 
<svg
  xmlns:svg="http://www.w3.org/2000/svg"
  xmlns="http://www.w3.org/2000/svg"
  xmlns:xlink="http://www.w3.org/1999/xlink"
  version="1.1"
  width="11.7602mm" height="6.4770mm" viewBox="0.0000 0.0000 11.7602 6.4770">
<title>SVG Image created as R_Array_SIP4.svg date 2024/01/16 15:07:51 </title>
  <desc>Image generated by PCBNEW </desc>
<g style="fill:#000000; fill-opacity:1.0000;stroke:#000000; stroke-opacity:1.0000;
stroke-linecap:round; stroke-linejoin:round;"
 transform="translate(0 0) scale(1 1)">
</g>
<g style="fill:#000000; fill-opacity:0.0; 
stroke:#000000; stroke-width:0.0000; stroke-opacity:1; 
stroke-linecap:round; stroke-linejoin:round;">
</g>
<g style="fill:#000000; fill-opacity:1.0000; 
stroke:#000000; stroke-width:0.0212; stroke-opacity:1; 
stroke-linecap:round; stroke-linejoin:round;">
<rect x="-5.000000" y="-5.000000" width="21.763334" height="16.496500" rx="0.000000" />
</g>
<g style="fill:#FFFFFF; fill-opacity:1.0000; 
stroke:#FFFFFF; stroke-width:0.0212; stroke-opacity:1; 
stroke-linecap:round; stroke-linejoin:round;">
<g >
</g>
<g >
</g>
<g >
</g>
<g >
</g>
</g>
<g style="fill:#FFFFFF; fill-opacity:1.0000; 
stroke:#FFFFFF; stroke-width:0.0212; stroke-opacity:1; 
stroke-linecap:round; stroke-linejoin:round;">
<g >
</g>
<g >
</g>
<g >
</g>
<g >
</g>
</g>
<g style="fill:#FFFFFF; fill-opacity:1.0000; 
stroke:#FFFFFF; stroke-width:0.0212; stroke-opacity:1; 
stroke-linecap:round; stroke-linejoin:round;">
<g >
</g>
<g style="fill:#FFFFFF; fill-opacity:1.0000; 
stroke:#FFFFFF; stroke-width:0.0000; stroke-opacity:1; 
stroke-linecap:round; stroke-linejoin:round;">
<path style="fill:#FFFFFF; fill-opacity:1.0000; 
stroke:#FFFFFF; stroke-width:0.0000; stroke-opacity:1; 
stroke-linecap:round; stroke-linejoin:round;fill-rule:evenodd;"
d="M 0.9250,4.0482
0.9250,2.4482
2.5250,2.4482
2.5250,4.0482
Z" /> 
<circle cx="4.2650" cy="3.2482" r="0.8000" /> 
<circle cx="6.8050" cy="3.2482" r="0.8000" /> 
<circle cx="9.3450" cy="3.2482" r="0.8000" /> 
</g>
<g >
</g>
<g >
</g>
<g >
</g>
</g>
<g style="fill:#FFFFFF; fill-opacity:1.0000; 
stroke:#FFFFFF; stroke-width:0.0000; stroke-opacity:1; 
stroke-linecap:round; stroke-linejoin:round;">
<g >
<path style="fill:#FFFFFF; fill-opacity:1.0000; 
stroke:#FFFFFF; stroke-width:0.0000; stroke-opacity:1; 
stroke-linecap:round; stroke-linejoin:round;fill-rule:evenodd;"
d="M 0.9250,4.0482
0.9250,2.4482
2.5250,2.4482
2.5250,4.0482
Z" /> 
<circle cx="4.2650" cy="3.2482" r="0.8000" /> 
<circle cx="6.8050" cy="3.2482" r="0.8000" /> 
<circle cx="9.3450" cy="3.2482" r="0.8000" /> 
</g>
<g >
</g>
<g >
</g>
<g >
</g>
</g>
<g style="fill:#FFFFFF; fill-opacity:1.0000; 
stroke:#FFFFFF; stroke-width:0.0000; stroke-opacity:1; 
stroke-linecap:round; stroke-linejoin:round;">
<g >
<path style="fill:#FFFFFF; fill-opacity:1.0000; 
stroke:#FFFFFF; stroke-width:0.0000; stroke-opacity:1; 
stroke-linecap:round; stroke-linejoin:round;fill-rule:evenodd;"
d="M 0.9250,4.0482
0.9250,2.4482
2.5250,2.4482
2.5250,4.0482
Z" /> 
<circle cx="4.2650" cy="3.2482" r="0.8000" /> 
<circle cx="6.8050" cy="3.2482" r="0.8000" /> 
<circle cx="9.3450" cy="3.2482" r="0.8000" /> 
</g>
<g >
</g>
<g >
</g>
<g >
</g>
</g>
<g style="fill:#FFFFFF; fill-opacity:1.0000; 
stroke:#FFFFFF; stroke-width:0.0000; stroke-opacity:1; 
stroke-linecap:round; stroke-linejoin:round;">
<g >
<path style="fill:#FFFFFF; fill-opacity:1.0000; 
stroke:#FFFFFF; stroke-width:0.0000; stroke-opacity:1; 
stroke-linecap:round; stroke-linejoin:round;fill-rule:evenodd;"
d="M 0.9250,4.0482
0.9250,2.4482
2.5250,2.4482
2.5250,4.0482
Z" /> 
<circle cx="4.2650" cy="3.2482" r="0.8000" /> 
<circle cx="6.8050" cy="3.2482" r="0.8000" /> 
<circle cx="9.3450" cy="3.2482" r="0.8000" /> 
</g>
<g >
</g>
<g >
</g>
<g >
</g>
</g>
<g style="fill:#FFFFFF; fill-opacity:1.0000; 
stroke:#FFFFFF; stroke-width:0.0000; stroke-opacity:1; 
stroke-linecap:round; stroke-linejoin:round;">
<g >
<path style="fill:#FFFFFF; fill-opacity:1.0000; 
stroke:#FFFFFF; stroke-width:0.0000; stroke-opacity:1; 
stroke-linecap:round; stroke-linejoin:round;fill-rule:evenodd;"
d="M 0.9250,4.0482
0.9250,2.4482
2.5250,2.4482
2.5250,4.0482
Z" /> 
<circle cx="4.2650" cy="3.2482" r="0.8000" /> 
<circle cx="6.8050" cy="3.2482" r="0.8000" /> 
<circle cx="9.3450" cy="3.2482" r="0.8000" /> 
</g>
<g >
</g>
<g >
</g>
<g >
</g>
</g>
<g style="fill:#FFFFFF; fill-opacity:1.0000; 
stroke:#FFFFFF; stroke-width:0.0000; stroke-opacity:1; 
stroke-linecap:round; stroke-linejoin:round;">
<g >
<path style="fill:#FFFFFF; fill-opacity:1.0000; 
stroke:#FFFFFF; stroke-width:0.0000; stroke-opacity:1; 
stroke-linecap:round; stroke-linejoin:round;fill-rule:evenodd;"
d="M 0.9250,4.0482
0.9250,2.4482
2.5250,2.4482
2.5250,4.0482
Z" /> 
<circle cx="4.2650" cy="3.2482" r="0.8000" /> 
<circle cx="6.8050" cy="3.2482" r="0.8000" /> 
<circle cx="9.3450" cy="3.2482" r="0.8000" /> 
</g>
<g >
</g>
<g >
</g>
<g >
</g>
</g>
<g style="fill:#FFFFFF; fill-opacity:1.0000; 
stroke:#FFFFFF; stroke-width:0.0000; stroke-opacity:1; 
stroke-linecap:round; stroke-linejoin:round;">
<g >
<path style="fill:#FFFFFF; fill-opacity:1.0000; 
stroke:#FFFFFF; stroke-width:0.0000; stroke-opacity:1; 
stroke-linecap:round; stroke-linejoin:round;fill-rule:evenodd;"
d="M 0.9250,4.0482
0.9250,2.4482
2.5250,2.4482
2.5250,4.0482
Z" /> 
<circle cx="4.2650" cy="3.2482" r="0.8000" /> 
<circle cx="6.8050" cy="3.2482" r="0.8000" /> 
<circle cx="9.3450" cy="3.2482" r="0.8000" /> 
</g>
<g >
</g>
<g >
</g>
<g >
</g>
</g>
<g style="fill:#FFFFFF; fill-opacity:1.0000; 
stroke:#FFFFFF; stroke-width:0.0000; stroke-opacity:1; 
stroke-linecap:round; stroke-linejoin:round;">
<g >
<path style="fill:#FFFFFF; fill-opacity:1.0000; 
stroke:#FFFFFF; stroke-width:0.0000; stroke-opacity:1; 
stroke-linecap:round; stroke-linejoin:round;fill-rule:evenodd;"
d="M 0.9250,4.0482
0.9250,2.4482
2.5250,2.4482
2.5250,4.0482
Z" /> 
<circle cx="4.2650" cy="3.2482" r="0.8000" /> 
<circle cx="6.8050" cy="3.2482" r="0.8000" /> 
<circle cx="9.3450" cy="3.2482" r="0.8000" /> 
</g>
<g >
</g>
<g >
</g>
<g >
</g>
</g>
<g style="fill:#FFFFFF; fill-opacity:1.0000; 
stroke:#FFFFFF; stroke-width:0.0000; stroke-opacity:1; 
stroke-linecap:round; stroke-linejoin:round;">
<g >
<path style="fill:#FFFFFF; fill-opacity:1.0000; 
stroke:#FFFFFF; stroke-width:0.0000; stroke-opacity:1; 
stroke-linecap:round; stroke-linejoin:round;fill-rule:evenodd;"
d="M 0.9250,4.0482
0.9250,2.4482
2.5250,2.4482
2.5250,4.0482
Z" /> 
<circle cx="4.2650" cy="3.2482" r="0.8000" /> 
<circle cx="6.8050" cy="3.2482" r="0.8000" /> 
<circle cx="9.3450" cy="3.2482" r="0.8000" /> 
</g>
<g >
</g>
<g >
</g>
<g >
</g>
</g>
<g style="fill:#FFFFFF; fill-opacity:1.0000; 
stroke:#FFFFFF; stroke-width:0.0000; stroke-opacity:1; 
stroke-linecap:round; stroke-linejoin:round;">
<g >
<path style="fill:#FFFFFF; fill-opacity:1.0000; 
stroke:#FFFFFF; stroke-width:0.0000; stroke-opacity:1; 
stroke-linecap:round; stroke-linejoin:round;fill-rule:evenodd;"
d="M 0.9250,4.0482
0.9250,2.4482
2.5250,2.4482
2.5250,4.0482
Z" /> 
<circle cx="4.2650" cy="3.2482" r="0.8000" /> 
<circle cx="6.8050" cy="3.2482" r="0.8000" /> 
<circle cx="9.3450" cy="3.2482" r="0.8000" /> 
</g>
<g >
</g>
<g >
</g>
<g >
</g>
</g>
<g style="fill:#FFFFFF; fill-opacity:1.0000; 
stroke:#FFFFFF; stroke-width:0.0000; stroke-opacity:1; 
stroke-linecap:round; stroke-linejoin:round;">
<g >
<path style="fill:#FFFFFF; fill-opacity:1.0000; 
stroke:#FFFFFF; stroke-width:0.0000; stroke-opacity:1; 
stroke-linecap:round; stroke-linejoin:round;fill-rule:evenodd;"
d="M 0.9250,4.0482
0.9250,2.4482
2.5250,2.4482
2.5250,4.0482
Z" /> 
<circle cx="4.2650" cy="3.2482" r="0.8000" /> 
<circle cx="6.8050" cy="3.2482" r="0.8000" /> 
<circle cx="9.3450" cy="3.2482" r="0.8000" /> 
</g>
<g >
</g>
<g >
</g>
<g >
</g>
</g>
<g style="fill:#FFFFFF; fill-opacity:1.0000; 
stroke:#FFFFFF; stroke-width:0.0000; stroke-opacity:1; 
stroke-linecap:round; stroke-linejoin:round;">
<g >
<path style="fill:#FFFFFF; fill-opacity:1.0000; 
stroke:#FFFFFF; stroke-width:0.0000; stroke-opacity:1; 
stroke-linecap:round; stroke-linejoin:round;fill-rule:evenodd;"
d="M 0.9250,4.0482
0.9250,2.4482
2.5250,2.4482
2.5250,4.0482
Z" /> 
<circle cx="4.2650" cy="3.2482" r="0.8000" /> 
<circle cx="6.8050" cy="3.2482" r="0.8000" /> 
<circle cx="9.3450" cy="3.2482" r="0.8000" /> 
</g>
<g >
</g>
<g >
</g>
<g >
</g>
</g>
<g style="fill:#FFFFFF; fill-opacity:1.0000; 
stroke:#FFFFFF; stroke-width:0.0000; stroke-opacity:1; 
stroke-linecap:round; stroke-linejoin:round;">
<g >
<path style="fill:#FFFFFF; fill-opacity:1.0000; 
stroke:#FFFFFF; stroke-width:0.0000; stroke-opacity:1; 
stroke-linecap:round; stroke-linejoin:round;fill-rule:evenodd;"
d="M 0.9250,4.0482
0.9250,2.4482
2.5250,2.4482
2.5250,4.0482
Z" /> 
<circle cx="4.2650" cy="3.2482" r="0.8000" /> 
<circle cx="6.8050" cy="3.2482" r="0.8000" /> 
<circle cx="9.3450" cy="3.2482" r="0.8000" /> 
</g>
<g >
</g>
<g >
</g>
<g >
</g>
</g>
<g style="fill:#FFFFFF; fill-opacity:1.0000; 
stroke:#FFFFFF; stroke-width:0.0000; stroke-opacity:1; 
stroke-linecap:round; stroke-linejoin:round;">
<g >
<path style="fill:#FFFFFF; fill-opacity:1.0000; 
stroke:#FFFFFF; stroke-width:0.0000; stroke-opacity:1; 
stroke-linecap:round; stroke-linejoin:round;fill-rule:evenodd;"
d="M 0.9250,4.0482
0.9250,2.4482
2.5250,2.4482
2.5250,4.0482
Z" /> 
<circle cx="4.2650" cy="3.2482" r="0.8000" /> 
<circle cx="6.8050" cy="3.2482" r="0.8000" /> 
<circle cx="9.3450" cy="3.2482" r="0.8000" /> 
</g>
<g >
</g>
<g >
</g>
<g >
</g>
</g>
<g style="fill:#FFFFFF; fill-opacity:1.0000; 
stroke:#FFFFFF; stroke-width:0.0000; stroke-opacity:1; 
stroke-linecap:round; stroke-linejoin:round;">
<g >
<path style="fill:#FFFFFF; fill-opacity:1.0000; 
stroke:#FFFFFF; stroke-width:0.0000; stroke-opacity:1; 
stroke-linecap:round; stroke-linejoin:round;fill-rule:evenodd;"
d="M 0.9250,4.0482
0.9250,2.4482
2.5250,2.4482
2.5250,4.0482
Z" /> 
<circle cx="4.2650" cy="3.2482" r="0.8000" /> 
<circle cx="6.8050" cy="3.2482" r="0.8000" /> 
<circle cx="9.3450" cy="3.2482" r="0.8000" /> 
</g>
<g >
</g>
<g >
</g>
<g >
</g>
</g>
<g style="fill:#FFFFFF; fill-opacity:1.0000; 
stroke:#FFFFFF; stroke-width:0.0000; stroke-opacity:1; 
stroke-linecap:round; stroke-linejoin:round;">
<g >
<path style="fill:#FFFFFF; fill-opacity:1.0000; 
stroke:#FFFFFF; stroke-width:0.0000; stroke-opacity:1; 
stroke-linecap:round; stroke-linejoin:round;fill-rule:evenodd;"
d="M 0.9250,4.0482
0.9250,2.4482
2.5250,2.4482
2.5250,4.0482
Z" /> 
<circle cx="4.2650" cy="3.2482" r="0.8000" /> 
<circle cx="6.8050" cy="3.2482" r="0.8000" /> 
<circle cx="9.3450" cy="3.2482" r="0.8000" /> 
</g>
<g >
</g>
<g >
</g>
<g >
</g>
</g>
<g style="fill:#FFFFFF; fill-opacity:1.0000; 
stroke:#FFFFFF; stroke-width:0.0000; stroke-opacity:1; 
stroke-linecap:round; stroke-linejoin:round;">
<g >
<path style="fill:#FFFFFF; fill-opacity:1.0000; 
stroke:#FFFFFF; stroke-width:0.0000; stroke-opacity:1; 
stroke-linecap:round; stroke-linejoin:round;fill-rule:evenodd;"
d="M 0.9250,4.0482
0.9250,2.4482
2.5250,2.4482
2.5250,4.0482
Z" /> 
<circle cx="4.2650" cy="3.2482" r="0.8000" /> 
<circle cx="6.8050" cy="3.2482" r="0.8000" /> 
<circle cx="9.3450" cy="3.2482" r="0.8000" /> 
</g>
<g >
</g>
<g >
</g>
<g >
</g>
</g>
<g style="fill:#FFFFFF; fill-opacity:1.0000; 
stroke:#FFFFFF; stroke-width:0.0000; stroke-opacity:1; 
stroke-linecap:round; stroke-linejoin:round;">
<g >
<path style="fill:#FFFFFF; fill-opacity:1.0000; 
stroke:#FFFFFF; stroke-width:0.0000; stroke-opacity:1; 
stroke-linecap:round; stroke-linejoin:round;fill-rule:evenodd;"
d="M 0.9250,4.0482
0.9250,2.4482
2.5250,2.4482
2.5250,4.0482
Z" /> 
<circle cx="4.2650" cy="3.2482" r="0.8000" /> 
<circle cx="6.8050" cy="3.2482" r="0.8000" /> 
<circle cx="9.3450" cy="3.2482" r="0.8000" /> 
</g>
<g >
</g>
<g >
</g>
<g >
</g>
</g>
<g style="fill:#FFFFFF; fill-opacity:1.0000; 
stroke:#FFFFFF; stroke-width:0.0000; stroke-opacity:1; 
stroke-linecap:round; stroke-linejoin:round;">
<g >
<path style="fill:#FFFFFF; fill-opacity:1.0000; 
stroke:#FFFFFF; stroke-width:0.0000; stroke-opacity:1; 
stroke-linecap:round; stroke-linejoin:round;fill-rule:evenodd;"
d="M 0.9250,4.0482
0.9250,2.4482
2.5250,2.4482
2.5250,4.0482
Z" /> 
<circle cx="4.2650" cy="3.2482" r="0.8000" /> 
<circle cx="6.8050" cy="3.2482" r="0.8000" /> 
<circle cx="9.3450" cy="3.2482" r="0.8000" /> 
</g>
<g >
</g>
<g >
</g>
<g >
</g>
</g>
<g style="fill:#FFFFFF; fill-opacity:1.0000; 
stroke:#FFFFFF; stroke-width:0.0000; stroke-opacity:1; 
stroke-linecap:round; stroke-linejoin:round;">
<g >
<path style="fill:#FFFFFF; fill-opacity:1.0000; 
stroke:#FFFFFF; stroke-width:0.0000; stroke-opacity:1; 
stroke-linecap:round; stroke-linejoin:round;fill-rule:evenodd;"
d="M 0.9250,4.0482
0.9250,2.4482
2.5250,2.4482
2.5250,4.0482
Z" /> 
<circle cx="4.2650" cy="3.2482" r="0.8000" /> 
<circle cx="6.8050" cy="3.2482" r="0.8000" /> 
<circle cx="9.3450" cy="3.2482" r="0.8000" /> 
</g>
<g >
</g>
<g >
</g>
<g >
</g>
</g>
<g style="fill:#FFFFFF; fill-opacity:1.0000; 
stroke:#FFFFFF; stroke-width:0.0000; stroke-opacity:1; 
stroke-linecap:round; stroke-linejoin:round;">
<g >
<path style="fill:#FFFFFF; fill-opacity:1.0000; 
stroke:#FFFFFF; stroke-width:0.0000; stroke-opacity:1; 
stroke-linecap:round; stroke-linejoin:round;fill-rule:evenodd;"
d="M 0.9250,4.0482
0.9250,2.4482
2.5250,2.4482
2.5250,4.0482
Z" /> 
<circle cx="4.2650" cy="3.2482" r="0.8000" /> 
<circle cx="6.8050" cy="3.2482" r="0.8000" /> 
<circle cx="9.3450" cy="3.2482" r="0.8000" /> 
</g>
<g >
</g>
<g >
</g>
<g >
</g>
</g>
<g style="fill:#FFFFFF; fill-opacity:1.0000; 
stroke:#FFFFFF; stroke-width:0.0000; stroke-opacity:1; 
stroke-linecap:round; stroke-linejoin:round;">
<g >
<path style="fill:#FFFFFF; fill-opacity:1.0000; 
stroke:#FFFFFF; stroke-width:0.0000; stroke-opacity:1; 
stroke-linecap:round; stroke-linejoin:round;fill-rule:evenodd;"
d="M 0.9250,4.0482
0.9250,2.4482
2.5250,2.4482
2.5250,4.0482
Z" /> 
<circle cx="4.2650" cy="3.2482" r="0.8000" /> 
<circle cx="6.8050" cy="3.2482" r="0.8000" /> 
<circle cx="9.3450" cy="3.2482" r="0.8000" /> 
</g>
<g >
</g>
<g >
</g>
<g >
</g>
</g>
<g style="fill:#FFFFFF; fill-opacity:1.0000; 
stroke:#FFFFFF; stroke-width:0.0000; stroke-opacity:1; 
stroke-linecap:round; stroke-linejoin:round;">
<g >
<path style="fill:#FFFFFF; fill-opacity:1.0000; 
stroke:#FFFFFF; stroke-width:0.0000; stroke-opacity:1; 
stroke-linecap:round; stroke-linejoin:round;fill-rule:evenodd;"
d="M 0.9250,4.0482
0.9250,2.4482
2.5250,2.4482
2.5250,4.0482
Z" /> 
<circle cx="4.2650" cy="3.2482" r="0.8000" /> 
<circle cx="6.8050" cy="3.2482" r="0.8000" /> 
<circle cx="9.3450" cy="3.2482" r="0.8000" /> 
</g>
<g >
</g>
<g >
</g>
<g >
</g>
</g>
<g style="fill:#FFFFFF; fill-opacity:1.0000; 
stroke:#FFFFFF; stroke-width:0.0000; stroke-opacity:1; 
stroke-linecap:round; stroke-linejoin:round;">
<g >
<path style="fill:#FFFFFF; fill-opacity:1.0000; 
stroke:#FFFFFF; stroke-width:0.0000; stroke-opacity:1; 
stroke-linecap:round; stroke-linejoin:round;fill-rule:evenodd;"
d="M 0.9250,4.0482
0.9250,2.4482
2.5250,2.4482
2.5250,4.0482
Z" /> 
<circle cx="4.2650" cy="3.2482" r="0.8000" /> 
<circle cx="6.8050" cy="3.2482" r="0.8000" /> 
<circle cx="9.3450" cy="3.2482" r="0.8000" /> 
</g>
<g >
</g>
<g >
</g>
<g >
</g>
</g>
<g style="fill:#FFFFFF; fill-opacity:1.0000; 
stroke:#FFFFFF; stroke-width:0.0000; stroke-opacity:1; 
stroke-linecap:round; stroke-linejoin:round;">
<g >
<path style="fill:#FFFFFF; fill-opacity:1.0000; 
stroke:#FFFFFF; stroke-width:0.0000; stroke-opacity:1; 
stroke-linecap:round; stroke-linejoin:round;fill-rule:evenodd;"
d="M 0.9250,4.0482
0.9250,2.4482
2.5250,2.4482
2.5250,4.0482
Z" /> 
<circle cx="4.2650" cy="3.2482" r="0.8000" /> 
<circle cx="6.8050" cy="3.2482" r="0.8000" /> 
<circle cx="9.3450" cy="3.2482" r="0.8000" /> 
</g>
<g >
</g>
<g >
</g>
<g >
</g>
</g>
<g style="fill:#FFFFFF; fill-opacity:1.0000; 
stroke:#FFFFFF; stroke-width:0.0000; stroke-opacity:1; 
stroke-linecap:round; stroke-linejoin:round;">
<g >
<path style="fill:#FFFFFF; fill-opacity:1.0000; 
stroke:#FFFFFF; stroke-width:0.0000; stroke-opacity:1; 
stroke-linecap:round; stroke-linejoin:round;fill-rule:evenodd;"
d="M 0.9250,4.0482
0.9250,2.4482
2.5250,2.4482
2.5250,4.0482
Z" /> 
<circle cx="4.2650" cy="3.2482" r="0.8000" /> 
<circle cx="6.8050" cy="3.2482" r="0.8000" /> 
<circle cx="9.3450" cy="3.2482" r="0.8000" /> 
</g>
<g >
</g>
<g >
</g>
<g >
</g>
</g>
<g style="fill:#FFFFFF; fill-opacity:1.0000; 
stroke:#FFFFFF; stroke-width:0.0000; stroke-opacity:1; 
stroke-linecap:round; stroke-linejoin:round;">
<g >
<path style="fill:#FFFFFF; fill-opacity:1.0000; 
stroke:#FFFFFF; stroke-width:0.0000; stroke-opacity:1; 
stroke-linecap:round; stroke-linejoin:round;fill-rule:evenodd;"
d="M 0.9250,4.0482
0.9250,2.4482
2.5250,2.4482
2.5250,4.0482
Z" /> 
<circle cx="4.2650" cy="3.2482" r="0.8000" /> 
<circle cx="6.8050" cy="3.2482" r="0.8000" /> 
<circle cx="9.3450" cy="3.2482" r="0.8000" /> 
</g>
<g >
</g>
<g >
</g>
<g >
</g>
</g>
<g style="fill:#FFFFFF; fill-opacity:1.0000; 
stroke:#FFFFFF; stroke-width:0.0000; stroke-opacity:1; 
stroke-linecap:round; stroke-linejoin:round;">
<g >
<path style="fill:#FFFFFF; fill-opacity:1.0000; 
stroke:#FFFFFF; stroke-width:0.0000; stroke-opacity:1; 
stroke-linecap:round; stroke-linejoin:round;fill-rule:evenodd;"
d="M 0.9250,4.0482
0.9250,2.4482
2.5250,2.4482
2.5250,4.0482
Z" /> 
<circle cx="4.2650" cy="3.2482" r="0.8000" /> 
<circle cx="6.8050" cy="3.2482" r="0.8000" /> 
<circle cx="9.3450" cy="3.2482" r="0.8000" /> 
</g>
<g >
</g>
<g >
</g>
<g >
</g>
</g>
<g style="fill:#FFFFFF; fill-opacity:1.0000; 
stroke:#FFFFFF; stroke-width:0.0000; stroke-opacity:1; 
stroke-linecap:round; stroke-linejoin:round;">
<g >
<path style="fill:#FFFFFF; fill-opacity:1.0000; 
stroke:#FFFFFF; stroke-width:0.0000; stroke-opacity:1; 
stroke-linecap:round; stroke-linejoin:round;fill-rule:evenodd;"
d="M 0.9250,4.0482
0.9250,2.4482
2.5250,2.4482
2.5250,4.0482
Z" /> 
<circle cx="4.2650" cy="3.2482" r="0.8000" /> 
<circle cx="6.8050" cy="3.2482" r="0.8000" /> 
<circle cx="9.3450" cy="3.2482" r="0.8000" /> 
</g>
<g >
</g>
<g >
</g>
<g >
</g>
</g>
<g style="fill:#FFFFFF; fill-opacity:1.0000; 
stroke:#FFFFFF; stroke-width:0.0000; stroke-opacity:1; 
stroke-linecap:round; stroke-linejoin:round;">
<g >
<path style="fill:#FFFFFF; fill-opacity:1.0000; 
stroke:#FFFFFF; stroke-width:0.0000; stroke-opacity:1; 
stroke-linecap:round; stroke-linejoin:round;fill-rule:evenodd;"
d="M 0.9250,4.0482
0.9250,2.4482
2.5250,2.4482
2.5250,4.0482
Z" /> 
<circle cx="4.2650" cy="3.2482" r="0.8000" /> 
<circle cx="6.8050" cy="3.2482" r="0.8000" /> 
<circle cx="9.3450" cy="3.2482" r="0.8000" /> 
</g>
<g >
</g>
<g >
</g>
<g >
</g>
</g>
<g style="fill:#FFFFFF; fill-opacity:1.0000; 
stroke:#FFFFFF; stroke-width:0.0000; stroke-opacity:1; 
stroke-linecap:round; stroke-linejoin:round;">
<g >
<path style="fill:#FFFFFF; fill-opacity:1.0000; 
stroke:#FFFFFF; stroke-width:0.0000; stroke-opacity:1; 
stroke-linecap:round; stroke-linejoin:round;fill-rule:evenodd;"
d="M 0.9250,4.0482
0.9250,2.4482
2.5250,2.4482
2.5250,4.0482
Z" /> 
<circle cx="4.2650" cy="3.2482" r="0.8000" /> 
<circle cx="6.8050" cy="3.2482" r="0.8000" /> 
<circle cx="9.3450" cy="3.2482" r="0.8000" /> 
</g>
<g >
</g>
<g >
</g>
<g >
</g>
</g>
<g style="fill:#FFFFFF; fill-opacity:1.0000; 
stroke:#FFFFFF; stroke-width:0.0000; stroke-opacity:1; 
stroke-linecap:round; stroke-linejoin:round;">
<g >
<path style="fill:#FFFFFF; fill-opacity:1.0000; 
stroke:#FFFFFF; stroke-width:0.0000; stroke-opacity:1; 
stroke-linecap:round; stroke-linejoin:round;fill-rule:evenodd;"
d="M 0.9250,4.0482
0.9250,2.4482
2.5250,2.4482
2.5250,4.0482
Z" /> 
<circle cx="4.2650" cy="3.2482" r="0.8000" /> 
<circle cx="6.8050" cy="3.2482" r="0.8000" /> 
<circle cx="9.3450" cy="3.2482" r="0.8000" /> 
</g>
<g >
</g>
<g >
</g>
<g >
</g>
</g>
<g style="fill:#FFFFFF; fill-opacity:1.0000; 
stroke:#FFFFFF; stroke-width:0.0000; stroke-opacity:1; 
stroke-linecap:round; stroke-linejoin:round;">
<g >
</g>
<g >
</g>
<g >
</g>
<g >
</g>
</g>
<g style="fill:#FFFFFF; fill-opacity:1.0000; 
stroke:#FFFFFF; stroke-width:0.0000; stroke-opacity:1; 
stroke-linecap:round; stroke-linejoin:round;">
</g>
<g style="fill:#FFFFFF; fill-opacity:1.0000; 
stroke:#FFFFFF; stroke-width:0.1500; stroke-opacity:1; 
stroke-linecap:round; stroke-linejoin:round;">
</g>
<g style="fill:#FFFFFF; fill-opacity:0.0; 
stroke:#FFFFFF; stroke-width:0.1500; stroke-opacity:1; 
stroke-linecap:round; stroke-linejoin:round;">
<text x="6.8050" y="1.3482"
textLength="4.5357" font-size="1.3333" lengthAdjust="spacingAndGlyphs"
text-anchor="middle" opacity="0">REF**</text>
<g class="stroked-text"><desc>REF**</desc>
<path d="M5.4717 1.3031
L5.1383 0.8269
" />
<path d="M4.9002 1.3031
L4.9002 0.3031
" />
<path d="M4.9002 0.3031
L5.2812 0.3031
" />
<path d="M5.2812 0.3031
L5.3764 0.3507
" />
<path d="M5.3764 0.3507
L5.4240 0.3983
" />
<path d="M5.4240 0.3983
L5.4717 0.4935
" />
<path d="M5.4717 0.4935
L5.4717 0.6364
" />
<path d="M5.4717 0.6364
L5.4240 0.7316
" />
<path d="M5.4240 0.7316
L5.3764 0.7793
" />
<path d="M5.3764 0.7793
L5.2812 0.8269
" />
<path d="M5.2812 0.8269
L4.9002 0.8269
" />
<path d="M5.9002 0.7793
L6.2336 0.7793
" />
<path d="M6.3764 1.3031
L5.9002 1.3031
" />
<path d="M5.9002 1.3031
L5.9002 0.3031
" />
<path d="M5.9002 0.3031
L6.3764 0.3031
" />
<path d="M7.1383 0.7793
L6.8050 0.7793
" />
<path d="M6.8050 1.3031
L6.8050 0.3031
" />
<path d="M6.8050 0.3031
L7.2812 0.3031
" />
<path d="M7.8050 0.3031
L7.8050 0.5412
" />
<path d="M7.5669 0.4459
L7.8050 0.5412
" />
<path d="M7.8050 0.5412
L8.0431 0.4459
" />
<path d="M7.6621 0.7316
L7.8050 0.5412
" />
<path d="M7.8050 0.5412
L7.9479 0.7316
" />
<path d="M8.5669 0.3031
L8.5669 0.5412
" />
<path d="M8.3288 0.4459
L8.5669 0.5412
" />
<path d="M8.5669 0.5412
L8.8050 0.4459
" />
<path d="M8.4240 0.7316
L8.5669 0.5412
" />
<path d="M8.5669 0.5412
L8.7098 0.7316
" />
</g></g>
<g style="fill:#FFFFFF; fill-opacity:0.0; 
stroke:#FFFFFF; stroke-width:0.1200; stroke-opacity:1; 
stroke-linecap:round; stroke-linejoin:round;">
<path d="M10.7850 4.6482
L10.7850 1.8482
" />
<path d="M2.9950 1.8482
L2.9950 4.6482
" />
<path d="M0.2850 4.6482
L10.7850 4.6482
" />
<path d="M10.7850 1.8482
L0.2850 1.8482
" />
<path d="M0.2850 1.8482
L0.2850 4.6482
" />
<g >
</g>
<g >
</g>
<g >
</g>
<g >
</g>
</g> 
</svg>
