<?xml version="1.0" standalone="no"?>
 <!DOCTYPE svg PUBLIC "-//W3C//DTD SVG 1.1//EN" 
 "http://www.w3.org/Graphics/SVG/1.1/DTD/svg11.dtd"> 
<svg
  xmlns:svg="http://www.w3.org/2000/svg"
  xmlns="http://www.w3.org/2000/svg"
  xmlns:xlink="http://www.w3.org/1999/xlink"
  version="1.1"
  width="100.9142mm" height="31.6992mm" viewBox="0.0000 0.0000 100.9142 31.6992">
<title>SVG Image created as rj45_bel_si-60062-f.svg date 2024/01/16 15:09:07 </title>
  <desc>Image generated by Eeschema-SVG </desc>
<g style="fill:#000000; fill-opacity:1.0000;stroke:#000000; stroke-opacity:1.0000;
stroke-linecap:round; stroke-linejoin:round;"
 transform="translate(0 0) scale(1 1)">
</g>
<g style="fill:#840000; fill-opacity:0.0; 
stroke:#840000; stroke-width:0.0000; stroke-opacity:1; 
stroke-linecap:round; stroke-linejoin:round;">
</g>
<g style="fill:#FFFFC2; fill-opacity:0.0; 
stroke:#FFFFC2; stroke-width:0.0000; stroke-opacity:1; 
stroke-linecap:round; stroke-linejoin:round;">
</g>
<g style="fill:#FFFFC2; fill-opacity:1.0000; 
stroke:#FFFFC2; stroke-width:0.0000; stroke-opacity:1; 
stroke-linecap:round; stroke-linejoin:round;">
<rect x="32.677100" y="6.959600" width="38.100000" height="16.510000" rx="0.000000" />
</g>
<g style="fill:#840084; fill-opacity:1.0000; 
stroke:#840084; stroke-width:0.0000; stroke-opacity:1; 
stroke-linecap:round; stroke-linejoin:round;">
</g>
<g style="fill:#840000; fill-opacity:1.0000; 
stroke:#840000; stroke-width:0.0000; stroke-opacity:1; 
stroke-linecap:round; stroke-linejoin:round;">
</g>
<g style="fill:#840000; fill-opacity:0.0; 
stroke:#840000; stroke-width:0.5080; stroke-opacity:1; 
stroke-linecap:round; stroke-linejoin:round;">
</g>
<g style="fill:#840000; fill-opacity:1.0000; 
stroke:#840000; stroke-width:0.0000; stroke-opacity:1; 
stroke-linecap:round; stroke-linejoin:round;">
<circle cx="49.1871" cy="18.3896" r="0.2541" /> 
</g>
<g style="fill:#840000; fill-opacity:0.0; 
stroke:#840000; stroke-width:0.5080; stroke-opacity:1; 
stroke-linecap:round; stroke-linejoin:round;">
</g>
<g style="fill:#840000; fill-opacity:1.0000; 
stroke:#840000; stroke-width:0.0000; stroke-opacity:1; 
stroke-linecap:round; stroke-linejoin:round;">
<circle cx="49.1871" cy="10.7696" r="0.2541" /> 
</g>
<g style="fill:#840000; fill-opacity:0.0; 
stroke:#840000; stroke-width:0.1524; stroke-opacity:1; 
stroke-linecap:round; stroke-linejoin:round;">
<path style="fill:#840000; fill-opacity:0.0; 
stroke:#840000; stroke-width:0.1524; stroke-opacity:1; 
stroke-linecap:round; stroke-linejoin:round;fill:none"
d="M 49.1871,10.7696
49.1871,21.5646
" /> 
</g>
<g style="fill:#840000; fill-opacity:0.0; 
stroke:#840000; stroke-width:0.2540; stroke-opacity:1; 
stroke-linecap:round; stroke-linejoin:round;">
<path style="fill:#840000; fill-opacity:0.0; 
stroke:#840000; stroke-width:0.2540; stroke-opacity:1; 
stroke-linecap:round; stroke-linejoin:round;fill:none"
d="M 51.0921,20.9296
51.0921,22.1996
" /> 
<path style="fill:#840000; fill-opacity:0.0; 
stroke:#840000; stroke-width:0.2540; stroke-opacity:1; 
stroke-linecap:round; stroke-linejoin:round;fill:none"
d="M 51.7271,20.9296
51.7271,22.1996
" /> 
</g>
<g style="fill:#840000; fill-opacity:0.0; 
stroke:#840000; stroke-width:0.1524; stroke-opacity:1; 
stroke-linecap:round; stroke-linejoin:round;">
<path style="fill:#840000; fill-opacity:0.0; 
stroke:#840000; stroke-width:0.1524; stroke-opacity:1; 
stroke-linecap:round; stroke-linejoin:round;fill:none"
d="M 53.5051,18.3896
52.9971,18.3896
" /> 
<path style="fill:#840000; fill-opacity:0.0; 
stroke:#840000; stroke-width:0.1524; stroke-opacity:1; 
stroke-linecap:round; stroke-linejoin:round;fill:none"
d="M 53.5051,10.7696
52.9971,10.7696
" /> 
<path style="fill:#840000; fill-opacity:0.0; 
stroke:#840000; stroke-width:0.1524; stroke-opacity:1; 
stroke-linecap:round; stroke-linejoin:round;fill:none"
d="M 67.8561,19.0246
67.8561,18.3896
70.7771,18.3896
" /> 
<path style="fill:#840000; fill-opacity:0.0; 
stroke:#840000; stroke-width:0.1524; stroke-opacity:1; 
stroke-linecap:round; stroke-linejoin:round;fill:none"
d="M 67.8561,8.8646
67.8561,8.2296
70.7771,8.2296
" /> 
<path style="fill:#840000; fill-opacity:0.0; 
stroke:#840000; stroke-width:0.1524; stroke-opacity:1; 
stroke-linecap:round; stroke-linejoin:round;fill:none"
d="M 70.7771,20.9296
67.8561,20.9296
67.8561,20.4216
" /> 
<path style="fill:#840000; fill-opacity:0.0; 
stroke:#840000; stroke-width:0.1524; stroke-opacity:1; 
stroke-linecap:round; stroke-linejoin:round;fill:none"
d="M 70.7771,10.7696
67.8561,10.7696
67.8561,10.2616
" /> 
<path style="fill:#840000; fill-opacity:0.0; 
stroke:#840000; stroke-width:0.1524; stroke-opacity:1; 
stroke-linecap:round; stroke-linejoin:round;fill:none"
d="M 54.1401,17.7546
53.5051,17.7546
53.5051,19.0246
54.1401,19.0246
" /> 
<path style="fill:#840000; fill-opacity:0.0; 
stroke:#840000; stroke-width:0.1524; stroke-opacity:1; 
stroke-linecap:round; stroke-linejoin:round;fill:none"
d="M 54.1401,10.1346
53.5051,10.1346
53.5051,11.4046
54.1401,11.4046
" /> 
</g>
<g style="fill:#840000; fill-opacity:0.0; 
stroke:#840000; stroke-width:0.5080; stroke-opacity:1; 
stroke-linecap:round; stroke-linejoin:round;">
</g>
<g style="fill:#840000; fill-opacity:1.0000; 
stroke:#840000; stroke-width:0.0000; stroke-opacity:1; 
stroke-linecap:round; stroke-linejoin:round;">
<circle cx="53.5051" cy="18.3896" r="0.2541" /> 
</g>
<g style="fill:#840000; fill-opacity:0.0; 
stroke:#840000; stroke-width:0.5080; stroke-opacity:1; 
stroke-linecap:round; stroke-linejoin:round;">
</g>
<g style="fill:#840000; fill-opacity:1.0000; 
stroke:#840000; stroke-width:0.0000; stroke-opacity:1; 
stroke-linecap:round; stroke-linejoin:round;">
<circle cx="53.5051" cy="10.7696" r="0.2541" /> 
</g>
<g style="fill:#840000; fill-opacity:0.0; 
stroke:#840000; stroke-width:0.2540; stroke-opacity:1; 
stroke-linecap:round; stroke-linejoin:round;">
<rect x="32.677100" y="6.959600" width="38.100000" height="16.510000" rx="0.000000" />
</g>
<g style="fill:#840000; fill-opacity:0.0; 
stroke:#840000; stroke-width:0.1524; stroke-opacity:1; 
stroke-linecap:round; stroke-linejoin:round;">
<path style="fill:#840000; fill-opacity:0.0; 
stroke:#840000; stroke-width:0.1524; stroke-opacity:1; 
stroke-linecap:round; stroke-linejoin:round;fill:none"
d="M 37.7571,20.9296
37.3761,20.9296
" /> 
<path style="fill:#840000; fill-opacity:0.0; 
stroke:#840000; stroke-width:0.1524; stroke-opacity:1; 
stroke-linecap:round; stroke-linejoin:round;fill:none"
d="M 37.7571,18.3896
37.3761,18.3896
" /> 
<path style="fill:#840000; fill-opacity:0.0; 
stroke:#840000; stroke-width:0.1524; stroke-opacity:1; 
stroke-linecap:round; stroke-linejoin:round;fill:none"
d="M 37.7571,15.8496
37.3761,15.8496
" /> 
<path style="fill:#840000; fill-opacity:0.0; 
stroke:#840000; stroke-width:0.1524; stroke-opacity:1; 
stroke-linecap:round; stroke-linejoin:round;fill:none"
d="M 37.7571,13.3096
37.3761,13.3096
" /> 
<path style="fill:#840000; fill-opacity:0.0; 
stroke:#840000; stroke-width:0.1524; stroke-opacity:1; 
stroke-linecap:round; stroke-linejoin:round;fill:none"
d="M 37.7571,10.7696
37.3761,10.7696
" /> 
<path style="fill:#840000; fill-opacity:0.0; 
stroke:#840000; stroke-width:0.1524; stroke-opacity:1; 
stroke-linecap:round; stroke-linejoin:round;fill:none"
d="M 37.7571,8.2296
37.3761,8.2296
" /> 
<path style="fill:#840000; fill-opacity:0.0; 
stroke:#840000; stroke-width:0.1524; stroke-opacity:1; 
stroke-linecap:round; stroke-linejoin:round;fill:none"
d="M 44.1071,20.2946
54.1401,20.2946
" /> 
<path style="fill:#840000; fill-opacity:0.0; 
stroke:#840000; stroke-width:0.1524; stroke-opacity:1; 
stroke-linecap:round; stroke-linejoin:round;fill:none"
d="M 44.1071,12.6746
54.1401,12.6746
" /> 
<path style="fill:#840000; fill-opacity:0.0; 
stroke:#840000; stroke-width:0.1524; stroke-opacity:1; 
stroke-linecap:round; stroke-linejoin:round;fill:none"
d="M 44.1071,8.8646
54.1401,8.8646
" /> 
<path style="fill:#840000; fill-opacity:0.0; 
stroke:#840000; stroke-width:0.1524; stroke-opacity:1; 
stroke-linecap:round; stroke-linejoin:round;fill:none"
d="M 44.2341,16.4846
54.1401,16.4846
" /> 
<path style="fill:#840000; fill-opacity:0.0; 
stroke:#840000; stroke-width:0.1524; stroke-opacity:1; 
stroke-linecap:round; stroke-linejoin:round;fill:none"
d="M 45.3771,18.3896
40.2971,18.3896
" /> 
<path style="fill:#840000; fill-opacity:0.0; 
stroke:#840000; stroke-width:0.1524; stroke-opacity:1; 
stroke-linecap:round; stroke-linejoin:round;fill:none"
d="M 45.5041,10.7696
40.2971,10.7696
" /> 
<path style="fill:#840000; fill-opacity:0.0; 
stroke:#840000; stroke-width:0.1524; stroke-opacity:1; 
stroke-linecap:round; stroke-linejoin:round;fill:none"
d="M 48.2981,18.3896
50.0761,18.3896
" /> 
<path style="fill:#840000; fill-opacity:0.0; 
stroke:#840000; stroke-width:0.1524; stroke-opacity:1; 
stroke-linecap:round; stroke-linejoin:round;fill:none"
d="M 48.2981,10.7696
50.0761,10.7696
" /> 
<path style="fill:#840000; fill-opacity:0.0; 
stroke:#840000; stroke-width:0.1524; stroke-opacity:1; 
stroke-linecap:round; stroke-linejoin:round;fill:none"
d="M 51.0921,21.5646
49.1871,21.5646
" /> 
<path style="fill:#840000; fill-opacity:0.0; 
stroke:#840000; stroke-width:0.1524; stroke-opacity:1; 
stroke-linecap:round; stroke-linejoin:round;fill:none"
d="M 57.8866,17.8181
59.1566,17.8181
" /> 
<path style="fill:#840000; fill-opacity:0.0; 
stroke:#840000; stroke-width:0.1524; stroke-opacity:1; 
stroke-linecap:round; stroke-linejoin:round;fill:none"
d="M 57.8866,16.5481
59.1566,16.5481
" /> 
<path style="fill:#840000; fill-opacity:0.0; 
stroke:#840000; stroke-width:0.1524; stroke-opacity:1; 
stroke-linecap:round; stroke-linejoin:round;fill:none"
d="M 57.8866,15.2781
59.1566,15.2781
" /> 
<path style="fill:#840000; fill-opacity:0.0; 
stroke:#840000; stroke-width:0.1524; stroke-opacity:1; 
stroke-linecap:round; stroke-linejoin:round;fill:none"
d="M 57.8866,14.0081
59.1566,14.0081
" /> 
<path style="fill:#840000; fill-opacity:0.0; 
stroke:#840000; stroke-width:0.1524; stroke-opacity:1; 
stroke-linecap:round; stroke-linejoin:round;fill:none"
d="M 57.8866,12.7381
59.1566,12.7381
" /> 
<path style="fill:#840000; fill-opacity:0.0; 
stroke:#840000; stroke-width:0.1524; stroke-opacity:1; 
stroke-linecap:round; stroke-linejoin:round;fill:none"
d="M 59.1566,19.0881
57.8866,19.0881
" /> 
<path style="fill:#840000; fill-opacity:0.0; 
stroke:#840000; stroke-width:0.1524; stroke-opacity:1; 
stroke-linecap:round; stroke-linejoin:round;fill:none"
d="M 59.1566,11.4681
57.8866,11.4681
" /> 
<path style="fill:#840000; fill-opacity:0.0; 
stroke:#840000; stroke-width:0.1524; stroke-opacity:1; 
stroke-linecap:round; stroke-linejoin:round;fill:none"
d="M 59.1566,10.1981
57.8866,10.1981
" /> 
<path style="fill:#840000; fill-opacity:0.0; 
stroke:#840000; stroke-width:0.1524; stroke-opacity:1; 
stroke-linecap:round; stroke-linejoin:round;fill:none"
d="M 60.6171,21.5646
51.7271,21.5646
" /> 
<path style="fill:#840000; fill-opacity:0.0; 
stroke:#840000; stroke-width:0.1524; stroke-opacity:1; 
stroke-linecap:round; stroke-linejoin:round;fill:none"
d="M 60.6171,21.5646
60.6171,23.4696
" /> 
<path style="fill:#840000; fill-opacity:0.0; 
stroke:#840000; stroke-width:0.1524; stroke-opacity:1; 
stroke-linecap:round; stroke-linejoin:round;fill:none"
d="M 40.2971,15.8496
41.5671,15.8496
41.5671,16.4846
" /> 
<path style="fill:#840000; fill-opacity:0.0; 
stroke:#840000; stroke-width:0.1524; stroke-opacity:1; 
stroke-linecap:round; stroke-linejoin:round;fill:none"
d="M 40.2971,8.2296
41.5671,8.2296
41.5671,8.8646
" /> 
<path style="fill:#840000; fill-opacity:0.0; 
stroke:#840000; stroke-width:0.1524; stroke-opacity:1; 
stroke-linecap:round; stroke-linejoin:round;fill:none"
d="M 41.5671,20.2946
41.5671,20.9296
40.2971,20.9296
" /> 
<path style="fill:#840000; fill-opacity:0.0; 
stroke:#840000; stroke-width:0.1524; stroke-opacity:1; 
stroke-linecap:round; stroke-linejoin:round;fill:none"
d="M 41.5671,12.6746
41.5671,13.3096
40.2971,13.3096
" /> 
</g>
<g style="fill:#840000; fill-opacity:0.0; 
stroke:#840000; stroke-width:0.2540; stroke-opacity:1; 
stroke-linecap:round; stroke-linejoin:round;">
<path d="M37.7571 17.1196 A0.6350 0.6350 0.0 0 0 37.7571 15.8496" />
<path d="M37.7598 20.9296 A0.6350 0.6350 0.0 0 0 37.7598 19.6596" />
<path d="M37.7598 19.6596 A0.6350 0.6350 0.0 0 0 37.7598 18.3896" />
<path d="M37.7598 18.3896 A0.6350 0.6350 0.0 0 0 37.7598 17.1196" />
<path d="M37.7598 9.4996 A0.6350 0.6350 0.0 0 0 37.7598 8.2296" />
<path d="M37.7625 13.3096 A0.6350 0.6350 0.0 0 0 37.7625 12.0396" />
<path d="M37.7625 12.0396 A0.6350 0.6350 0.0 0 0 37.7625 10.7696" />
<path d="M37.7625 10.7696 A0.6350 0.6350 0.0 0 0 37.7625 9.4996" />
<path d="M40.2917 18.3896 A0.6350 0.6350 0.0 0 0 40.2917 19.6596" />
<path d="M40.2917 17.1196 A0.6350 0.6350 0.0 0 0 40.2917 18.3896" />
<path d="M40.2917 15.8496 A0.6350 0.6350 0.0 0 0 40.2917 17.1196" />
<path d="M40.2917 10.7696 A0.6350 0.6350 0.0 0 0 40.2917 12.0396" />
<path d="M40.2917 9.4996 A0.6350 0.6350 0.0 0 0 40.2917 10.7696" />
<path d="M40.2917 8.2296 A0.6350 0.6350 0.0 0 0 40.2917 9.4996" />
<path d="M40.2944 19.6596 A0.6350 0.6350 0.0 0 0 40.2944 20.9296" />
<path d="M40.2944 12.0396 A0.6350 0.6350 0.0 0 0 40.2944 13.3096" />
<path d="M41.5671 8.8673 A0.6350 0.6350 0.0 0 0 42.8371 8.8673" />
<path d="M41.6306 16.5508 A0.6350 0.6350 0.0 0 0 42.9006 16.5508" />
<path d="M42.8371 20.1649 A0.6350 0.6350 0.0 0 0 41.5671 20.1649" />
<path d="M42.8371 12.5449 A0.6350 0.6350 0.0 0 0 41.5671 12.5449" />
<path d="M42.8371 8.8646 A0.6350 0.6350 0.0 0 0 44.1071 8.8646" />
<path d="M42.9006 16.5481 A0.6350 0.6350 0.0 0 0 44.1706 16.5481" />
<path d="M44.1071 20.1622 A0.6350 0.6350 0.0 0 0 42.8371 20.1622" />
<path d="M44.1071 12.5422 A0.6350 0.6350 0.0 0 0 42.8371 12.5422" />
<rect x="45.504100" y="17.754600" width="2.794000" height="1.270000" rx="0.000000" />
<rect x="45.504100" y="10.134600" width="2.794000" height="1.270000" rx="0.000000" />
<rect x="50.076100" y="17.754600" width="2.794000" height="1.270000" rx="0.000000" />
<rect x="50.076100" y="10.134600" width="2.794000" height="1.270000" rx="0.000000" />
<path style="fill:#840000; fill-opacity:0.0; 
stroke:#840000; stroke-width:0.2540; stroke-opacity:1; 
stroke-linecap:round; stroke-linejoin:round;fill:none"
d="M 65.6971,23.4696
65.6971,20.4216
" /> 
<path style="fill:#840000; fill-opacity:0.0; 
stroke:#840000; stroke-width:0.2540; stroke-opacity:1; 
stroke-linecap:round; stroke-linejoin:round;fill:none"
d="M 68.6181,20.5486
67.0941,20.5486
" /> 
<path style="fill:#840000; fill-opacity:0.0; 
stroke:#840000; stroke-width:0.2540; stroke-opacity:1; 
stroke-linecap:round; stroke-linejoin:round;fill:none"
d="M 68.6181,10.3886
67.0941,10.3886
" /> 
</g>
<g style="fill:#840000; fill-opacity:0.0; 
stroke:#840000; stroke-width:0.1524; stroke-opacity:1; 
stroke-linecap:round; stroke-linejoin:round;">
<path style="fill:#840000; fill-opacity:0.0; 
stroke:#840000; stroke-width:0.1524; stroke-opacity:1; 
stroke-linecap:round; stroke-linejoin:round;fill:none"
d="M 69.2531,20.4216
69.2531,20.1676
" /> 
<path style="fill:#840000; fill-opacity:0.0; 
stroke:#840000; stroke-width:0.1524; stroke-opacity:1; 
stroke-linecap:round; stroke-linejoin:round;fill:none"
d="M 69.2531,10.2616
69.2531,10.0076
" /> 
<path style="fill:#840000; fill-opacity:0.0; 
stroke:#840000; stroke-width:0.1524; stroke-opacity:1; 
stroke-linecap:round; stroke-linejoin:round;fill:none"
d="M 69.5071,19.7866
69.5071,19.5326
" /> 
<path style="fill:#840000; fill-opacity:0.0; 
stroke:#840000; stroke-width:0.1524; stroke-opacity:1; 
stroke-linecap:round; stroke-linejoin:round;fill:none"
d="M 69.5071,9.6266
69.5071,9.3726
" /> 
<path style="fill:#840000; fill-opacity:0.0; 
stroke:#840000; stroke-width:0.1524; stroke-opacity:1; 
stroke-linecap:round; stroke-linejoin:round;fill:none"
d="M 68.7451,19.9136
69.2531,20.4216
68.9991,20.4216
" /> 
<path style="fill:#840000; fill-opacity:0.0; 
stroke:#840000; stroke-width:0.1524; stroke-opacity:1; 
stroke-linecap:round; stroke-linejoin:round;fill:none"
d="M 68.7451,9.7536
69.2531,10.2616
68.9991,10.2616
" /> 
<path style="fill:#840000; fill-opacity:0.0; 
stroke:#840000; stroke-width:0.1524; stroke-opacity:1; 
stroke-linecap:round; stroke-linejoin:round;fill:none"
d="M 68.9991,19.2786
69.5071,19.7866
69.2531,19.7866
" /> 
<path style="fill:#840000; fill-opacity:0.0; 
stroke:#840000; stroke-width:0.1524; stroke-opacity:1; 
stroke-linecap:round; stroke-linejoin:round;fill:none"
d="M 68.9991,9.1186
69.5071,9.6266
69.2531,9.6266
" /> 
</g>
<g style="fill:#840000; fill-opacity:0.0; 
stroke:#840000; stroke-width:0.2540; stroke-opacity:1; 
stroke-linecap:round; stroke-linejoin:round;">
<path style="fill:#840000; fill-opacity:0.0; 
stroke:#840000; stroke-width:0.2540; stroke-opacity:1; 
stroke-linecap:round; stroke-linejoin:round;fill:none"
d="M 68.7451,19.0246
66.8401,19.0246
67.8561,20.5486
Z" /> 
<path style="fill:#840000; fill-opacity:0.0; 
stroke:#840000; stroke-width:0.2540; stroke-opacity:1; 
stroke-linecap:round; stroke-linejoin:round;fill:none"
d="M 68.7451,8.8646
66.8401,8.8646
67.8561,10.3886
Z" /> 
<path style="fill:#840000; fill-opacity:0.0; 
stroke:#840000; stroke-width:0.2540; stroke-opacity:1; 
stroke-linecap:round; stroke-linejoin:round;fill:none"
d="M 57.7596,20.3581
57.7596,8.9281
65.5066,8.9281
65.5066,11.4681
66.7766,11.4681
66.7766,12.7381
68.0466,12.7381
68.0466,16.5481
66.7766,16.5481
66.7766,17.8181
65.5066,17.8181
65.5066,20.3581
Z" /> 
</g>
<g style="fill:#840000; fill-opacity:0.0; 
stroke:#840000; stroke-width:0.1111; stroke-opacity:1; 
stroke-linecap:round; stroke-linejoin:round;">
<text x="55.1561" y="9.3091"
textLength="1.8913" font-size="1.1853" lengthAdjust="spacingAndGlyphs"
text-anchor="middle" opacity="0">C1</text>
<g class="stroked-text"><desc>C1</desc>
<path d="M55.0079 9.1854
L54.9656 9.2278
" />
<path d="M54.9656 9.2278
L54.8386 9.2701
" />
<path d="M54.8386 9.2701
L54.7539 9.2701
" />
<path d="M54.7539 9.2701
L54.6269 9.2278
" />
<path d="M54.6269 9.2278
L54.5423 9.1431
" />
<path d="M54.5423 9.1431
L54.4999 9.0584
" />
<path d="M54.4999 9.0584
L54.4576 8.8891
" />
<path d="M54.4576 8.8891
L54.4576 8.7621
" />
<path d="M54.4576 8.7621
L54.4999 8.5928
" />
<path d="M54.4999 8.5928
L54.5423 8.5081
" />
<path d="M54.5423 8.5081
L54.6269 8.4234
" />
<path d="M54.6269 8.4234
L54.7539 8.3811
" />
<path d="M54.7539 8.3811
L54.8386 8.3811
" />
<path d="M54.8386 8.3811
L54.9656 8.4234
" />
<path d="M54.9656 8.4234
L55.0079 8.4658
" />
<path d="M55.8546 9.2701
L55.3466 9.2701
" />
<path d="M55.6006 9.2701
L55.6006 8.3811
" />
<path d="M55.6006 8.3811
L55.5159 8.5081
" />
<path d="M55.5159 8.5081
L55.4313 8.5928
" />
<path d="M55.4313 8.5928
L55.3466 8.6351
" />
</g><text x="60.6171" y="19.4691"
textLength="1.8913" font-size="1.1853" lengthAdjust="spacingAndGlyphs"
text-anchor="middle" opacity="0">C1</text>
<g class="stroked-text"><desc>C1</desc>
<path d="M60.4689 19.3454
L60.4266 19.3878
" />
<path d="M60.4266 19.3878
L60.2996 19.4301
" />
<path d="M60.2996 19.4301
L60.2149 19.4301
" />
<path d="M60.2149 19.4301
L60.0879 19.3878
" />
<path d="M60.0879 19.3878
L60.0033 19.3031
" />
<path d="M60.0033 19.3031
L59.9609 19.2184
" />
<path d="M59.9609 19.2184
L59.9186 19.0491
" />
<path d="M59.9186 19.0491
L59.9186 18.9221
" />
<path d="M59.9186 18.9221
L59.9609 18.7528
" />
<path d="M59.9609 18.7528
L60.0033 18.6681
" />
<path d="M60.0033 18.6681
L60.0879 18.5834
" />
<path d="M60.0879 18.5834
L60.2149 18.5411
" />
<path d="M60.2149 18.5411
L60.2996 18.5411
" />
<path d="M60.2996 18.5411
L60.4266 18.5834
" />
<path d="M60.4266 18.5834
L60.4689 18.6258
" />
<path d="M61.3156 19.4301
L60.8076 19.4301
" />
<path d="M61.0616 19.4301
L61.0616 18.5411
" />
<path d="M61.0616 18.5411
L60.9769 18.6681
" />
<path d="M60.9769 18.6681
L60.8923 18.7528
" />
<path d="M60.8923 18.7528
L60.8076 18.7951
" />
</g><text x="55.1561" y="13.1191"
textLength="1.8913" font-size="1.1853" lengthAdjust="spacingAndGlyphs"
text-anchor="middle" opacity="0">C2</text>
<g class="stroked-text"><desc>C2</desc>
<path d="M55.0079 12.9954
L54.9656 13.0378
" />
<path d="M54.9656 13.0378
L54.8386 13.0801
" />
<path d="M54.8386 13.0801
L54.7539 13.0801
" />
<path d="M54.7539 13.0801
L54.6269 13.0378
" />
<path d="M54.6269 13.0378
L54.5423 12.9531
" />
<path d="M54.5423 12.9531
L54.4999 12.8684
" />
<path d="M54.4999 12.8684
L54.4576 12.6991
" />
<path d="M54.4576 12.6991
L54.4576 12.5721
" />
<path d="M54.4576 12.5721
L54.4999 12.4028
" />
<path d="M54.4999 12.4028
L54.5423 12.3181
" />
<path d="M54.5423 12.3181
L54.6269 12.2334
" />
<path d="M54.6269 12.2334
L54.7539 12.1911
" />
<path d="M54.7539 12.1911
L54.8386 12.1911
" />
<path d="M54.8386 12.1911
L54.9656 12.2334
" />
<path d="M54.9656 12.2334
L55.0079 12.2758
" />
<path d="M55.3466 12.2758
L55.3889 12.2334
" />
<path d="M55.3889 12.2334
L55.4736 12.1911
" />
<path d="M55.4736 12.1911
L55.6853 12.1911
" />
<path d="M55.6853 12.1911
L55.7699 12.2334
" />
<path d="M55.7699 12.2334
L55.8123 12.2758
" />
<path d="M55.8123 12.2758
L55.8546 12.3604
" />
<path d="M55.8546 12.3604
L55.8546 12.4451
" />
<path d="M55.8546 12.4451
L55.8123 12.5721
" />
<path d="M55.8123 12.5721
L55.3043 13.0801
" />
<path d="M55.3043 13.0801
L55.8546 13.0801
" />
</g><text x="55.1561" y="16.9291"
textLength="1.8913" font-size="1.1853" lengthAdjust="spacingAndGlyphs"
text-anchor="middle" opacity="0">C3</text>
<g class="stroked-text"><desc>C3</desc>
<path d="M55.0079 16.8054
L54.9656 16.8478
" />
<path d="M54.9656 16.8478
L54.8386 16.8901
" />
<path d="M54.8386 16.8901
L54.7539 16.8901
" />
<path d="M54.7539 16.8901
L54.6269 16.8478
" />
<path d="M54.6269 16.8478
L54.5423 16.7631
" />
<path d="M54.5423 16.7631
L54.4999 16.6784
" />
<path d="M54.4999 16.6784
L54.4576 16.5091
" />
<path d="M54.4576 16.5091
L54.4576 16.3821
" />
<path d="M54.4576 16.3821
L54.4999 16.2128
" />
<path d="M54.4999 16.2128
L54.5423 16.1281
" />
<path d="M54.5423 16.1281
L54.6269 16.0434
" />
<path d="M54.6269 16.0434
L54.7539 16.0011
" />
<path d="M54.7539 16.0011
L54.8386 16.0011
" />
<path d="M54.8386 16.0011
L54.9656 16.0434
" />
<path d="M54.9656 16.0434
L55.0079 16.0858
" />
<path d="M55.3043 16.0011
L55.8546 16.0011
" />
<path d="M55.8546 16.0011
L55.5583 16.3398
" />
<path d="M55.5583 16.3398
L55.6853 16.3398
" />
<path d="M55.6853 16.3398
L55.7699 16.3821
" />
<path d="M55.7699 16.3821
L55.8123 16.4244
" />
<path d="M55.8123 16.4244
L55.8546 16.5091
" />
<path d="M55.8546 16.5091
L55.8546 16.7208
" />
<path d="M55.8546 16.7208
L55.8123 16.8054
" />
<path d="M55.8123 16.8054
L55.7699 16.8478
" />
<path d="M55.7699 16.8478
L55.6853 16.8901
" />
<path d="M55.6853 16.8901
L55.4313 16.8901
" />
<path d="M55.4313 16.8901
L55.3466 16.8478
" />
<path d="M55.3466 16.8478
L55.3043 16.8054
" />
</g><text x="55.1561" y="10.5791"
textLength="1.8913" font-size="1.1853" lengthAdjust="spacingAndGlyphs"
text-anchor="middle" opacity="0">C4</text>
<g class="stroked-text"><desc>C4</desc>
<path d="M55.0079 10.4554
L54.9656 10.4978
" />
<path d="M54.9656 10.4978
L54.8386 10.5401
" />
<path d="M54.8386 10.5401
L54.7539 10.5401
" />
<path d="M54.7539 10.5401
L54.6269 10.4978
" />
<path d="M54.6269 10.4978
L54.5423 10.4131
" />
<path d="M54.5423 10.4131
L54.4999 10.3284
" />
<path d="M54.4999 10.3284
L54.4576 10.1591
" />
<path d="M54.4576 10.1591
L54.4576 10.0321
" />
<path d="M54.4576 10.0321
L54.4999 9.8628
" />
<path d="M54.4999 9.8628
L54.5423 9.7781
" />
<path d="M54.5423 9.7781
L54.6269 9.6934
" />
<path d="M54.6269 9.6934
L54.7539 9.6511
" />
<path d="M54.7539 9.6511
L54.8386 9.6511
" />
<path d="M54.8386 9.6511
L54.9656 9.6934
" />
<path d="M54.9656 9.6934
L55.0079 9.7358
" />
<path d="M55.7699 9.9474
L55.7699 10.5401
" />
<path d="M55.5583 9.6088
L55.3466 10.2438
" />
<path d="M55.3466 10.2438
L55.8969 10.2438
" />
</g><text x="55.1561" y="11.8491"
textLength="1.8913" font-size="1.1853" lengthAdjust="spacingAndGlyphs"
text-anchor="middle" opacity="0">C5</text>
<g class="stroked-text"><desc>C5</desc>
<path d="M55.0079 11.7254
L54.9656 11.7678
" />
<path d="M54.9656 11.7678
L54.8386 11.8101
" />
<path d="M54.8386 11.8101
L54.7539 11.8101
" />
<path d="M54.7539 11.8101
L54.6269 11.7678
" />
<path d="M54.6269 11.7678
L54.5423 11.6831
" />
<path d="M54.5423 11.6831
L54.4999 11.5984
" />
<path d="M54.4999 11.5984
L54.4576 11.4291
" />
<path d="M54.4576 11.4291
L54.4576 11.3021
" />
<path d="M54.4576 11.3021
L54.4999 11.1328
" />
<path d="M54.4999 11.1328
L54.5423 11.0481
" />
<path d="M54.5423 11.0481
L54.6269 10.9634
" />
<path d="M54.6269 10.9634
L54.7539 10.9211
" />
<path d="M54.7539 10.9211
L54.8386 10.9211
" />
<path d="M54.8386 10.9211
L54.9656 10.9634
" />
<path d="M54.9656 10.9634
L55.0079 11.0058
" />
<path d="M55.8123 10.9211
L55.3889 10.9211
" />
<path d="M55.3889 10.9211
L55.3466 11.3444
" />
<path d="M55.3466 11.3444
L55.3889 11.3021
" />
<path d="M55.3889 11.3021
L55.4736 11.2598
" />
<path d="M55.4736 11.2598
L55.6853 11.2598
" />
<path d="M55.6853 11.2598
L55.7699 11.3021
" />
<path d="M55.7699 11.3021
L55.8123 11.3444
" />
<path d="M55.8123 11.3444
L55.8546 11.4291
" />
<path d="M55.8546 11.4291
L55.8546 11.6408
" />
<path d="M55.8546 11.6408
L55.8123 11.7254
" />
<path d="M55.8123 11.7254
L55.7699 11.7678
" />
<path d="M55.7699 11.7678
L55.6853 11.8101
" />
<path d="M55.6853 11.8101
L55.4736 11.8101
" />
<path d="M55.4736 11.8101
L55.3889 11.7678
" />
<path d="M55.3889 11.7678
L55.3466 11.7254
" />
</g><text x="55.1561" y="20.7391"
textLength="1.8913" font-size="1.1853" lengthAdjust="spacingAndGlyphs"
text-anchor="middle" opacity="0">C6</text>
<g class="stroked-text"><desc>C6</desc>
<path d="M55.0079 20.6154
L54.9656 20.6578
" />
<path d="M54.9656 20.6578
L54.8386 20.7001
" />
<path d="M54.8386 20.7001
L54.7539 20.7001
" />
<path d="M54.7539 20.7001
L54.6269 20.6578
" />
<path d="M54.6269 20.6578
L54.5423 20.5731
" />
<path d="M54.5423 20.5731
L54.4999 20.4884
" />
<path d="M54.4999 20.4884
L54.4576 20.3191
" />
<path d="M54.4576 20.3191
L54.4576 20.1921
" />
<path d="M54.4576 20.1921
L54.4999 20.0228
" />
<path d="M54.4999 20.0228
L54.5423 19.9381
" />
<path d="M54.5423 19.9381
L54.6269 19.8534
" />
<path d="M54.6269 19.8534
L54.7539 19.8111
" />
<path d="M54.7539 19.8111
L54.8386 19.8111
" />
<path d="M54.8386 19.8111
L54.9656 19.8534
" />
<path d="M54.9656 19.8534
L55.0079 19.8958
" />
<path d="M55.7699 19.8111
L55.6006 19.8111
" />
<path d="M55.6006 19.8111
L55.5159 19.8534
" />
<path d="M55.5159 19.8534
L55.4736 19.8958
" />
<path d="M55.4736 19.8958
L55.3889 20.0228
" />
<path d="M55.3889 20.0228
L55.3466 20.1921
" />
<path d="M55.3466 20.1921
L55.3466 20.5308
" />
<path d="M55.3466 20.5308
L55.3889 20.6154
" />
<path d="M55.3889 20.6154
L55.4313 20.6578
" />
<path d="M55.4313 20.6578
L55.5159 20.7001
" />
<path d="M55.5159 20.7001
L55.6853 20.7001
" />
<path d="M55.6853 20.7001
L55.7699 20.6578
" />
<path d="M55.7699 20.6578
L55.8123 20.6154
" />
<path d="M55.8123 20.6154
L55.8546 20.5308
" />
<path d="M55.8546 20.5308
L55.8546 20.3191
" />
<path d="M55.8546 20.3191
L55.8123 20.2344
" />
<path d="M55.8123 20.2344
L55.7699 20.1921
" />
<path d="M55.7699 20.1921
L55.6853 20.1498
" />
<path d="M55.6853 20.1498
L55.5159 20.1498
" />
<path d="M55.5159 20.1498
L55.4313 20.1921
" />
<path d="M55.4313 20.1921
L55.3889 20.2344
" />
<path d="M55.3889 20.2344
L55.3466 20.3191
" />
</g><text x="55.1561" y="18.1991"
textLength="1.8913" font-size="1.1853" lengthAdjust="spacingAndGlyphs"
text-anchor="middle" opacity="0">C7</text>
<g class="stroked-text"><desc>C7</desc>
<path d="M55.0079 18.0754
L54.9656 18.1178
" />
<path d="M54.9656 18.1178
L54.8386 18.1601
" />
<path d="M54.8386 18.1601
L54.7539 18.1601
" />
<path d="M54.7539 18.1601
L54.6269 18.1178
" />
<path d="M54.6269 18.1178
L54.5423 18.0331
" />
<path d="M54.5423 18.0331
L54.4999 17.9484
" />
<path d="M54.4999 17.9484
L54.4576 17.7791
" />
<path d="M54.4576 17.7791
L54.4576 17.6521
" />
<path d="M54.4576 17.6521
L54.4999 17.4828
" />
<path d="M54.4999 17.4828
L54.5423 17.3981
" />
<path d="M54.5423 17.3981
L54.6269 17.3134
" />
<path d="M54.6269 17.3134
L54.7539 17.2711
" />
<path d="M54.7539 17.2711
L54.8386 17.2711
" />
<path d="M54.8386 17.2711
L54.9656 17.3134
" />
<path d="M54.9656 17.3134
L55.0079 17.3558
" />
<path d="M55.3043 17.2711
L55.8969 17.2711
" />
<path d="M55.8969 17.2711
L55.5159 18.1601
" />
</g><text x="55.1561" y="19.4691"
textLength="1.8913" font-size="1.1853" lengthAdjust="spacingAndGlyphs"
text-anchor="middle" opacity="0">C8</text>
<g class="stroked-text"><desc>C8</desc>
<path d="M55.0079 19.3454
L54.9656 19.3878
" />
<path d="M54.9656 19.3878
L54.8386 19.4301
" />
<path d="M54.8386 19.4301
L54.7539 19.4301
" />
<path d="M54.7539 19.4301
L54.6269 19.3878
" />
<path d="M54.6269 19.3878
L54.5423 19.3031
" />
<path d="M54.5423 19.3031
L54.4999 19.2184
" />
<path d="M54.4999 19.2184
L54.4576 19.0491
" />
<path d="M54.4576 19.0491
L54.4576 18.9221
" />
<path d="M54.4576 18.9221
L54.4999 18.7528
" />
<path d="M54.4999 18.7528
L54.5423 18.6681
" />
<path d="M54.5423 18.6681
L54.6269 18.5834
" />
<path d="M54.6269 18.5834
L54.7539 18.5411
" />
<path d="M54.7539 18.5411
L54.8386 18.5411
" />
<path d="M54.8386 18.5411
L54.9656 18.5834
" />
<path d="M54.9656 18.5834
L55.0079 18.6258
" />
<path d="M55.5159 18.9221
L55.4313 18.8798
" />
<path d="M55.4313 18.8798
L55.3889 18.8374
" />
<path d="M55.3889 18.8374
L55.3466 18.7528
" />
<path d="M55.3466 18.7528
L55.3466 18.7104
" />
<path d="M55.3466 18.7104
L55.3889 18.6258
" />
<path d="M55.3889 18.6258
L55.4313 18.5834
" />
<path d="M55.4313 18.5834
L55.5159 18.5411
" />
<path d="M55.5159 18.5411
L55.6853 18.5411
" />
<path d="M55.6853 18.5411
L55.7699 18.5834
" />
<path d="M55.7699 18.5834
L55.8123 18.6258
" />
<path d="M55.8123 18.6258
L55.8546 18.7104
" />
<path d="M55.8546 18.7104
L55.8546 18.7528
" />
<path d="M55.8546 18.7528
L55.8123 18.8374
" />
<path d="M55.8123 18.8374
L55.7699 18.8798
" />
<path d="M55.7699 18.8798
L55.6853 18.9221
" />
<path d="M55.6853 18.9221
L55.5159 18.9221
" />
<path d="M55.5159 18.9221
L55.4313 18.9644
" />
<path d="M55.4313 18.9644
L55.3889 19.0068
" />
<path d="M55.3889 19.0068
L55.3466 19.0914
" />
<path d="M55.3466 19.0914
L55.3466 19.2608
" />
<path d="M55.3466 19.2608
L55.3889 19.3454
" />
<path d="M55.3889 19.3454
L55.4313 19.3878
" />
<path d="M55.4313 19.3878
L55.5159 19.4301
" />
<path d="M55.5159 19.4301
L55.6853 19.4301
" />
<path d="M55.6853 19.4301
L55.7699 19.3878
" />
<path d="M55.7699 19.3878
L55.8123 19.3454
" />
<path d="M55.8123 19.3454
L55.8546 19.2608
" />
<path d="M55.8546 19.2608
L55.8546 19.0914
" />
<path d="M55.8546 19.0914
L55.8123 19.0068
" />
<path d="M55.8123 19.0068
L55.7699 18.9644
" />
<path d="M55.7699 18.9644
L55.6853 18.9221
" />
</g></g>
<g style="fill:#840000; fill-opacity:0.0; 
stroke:#840000; stroke-width:0.1270; stroke-opacity:1; 
stroke-linecap:round; stroke-linejoin:round;">
<text x="43.7424" y="22.0726"
textLength="3.0807" font-size="1.3546" lengthAdjust="spacingAndGlyphs"
text-anchor="middle" opacity="0">RCV</text>
<g class="stroked-text"><desc>RCV</desc>
<path d="M43.1134 22.0279
L42.7748 21.5441
" />
<path d="M42.5329 22.0279
L42.5329 21.0119
" />
<path d="M42.5329 21.0119
L42.9199 21.0119
" />
<path d="M42.9199 21.0119
L43.0167 21.0603
" />
<path d="M43.0167 21.0603
L43.0650 21.1087
" />
<path d="M43.0650 21.1087
L43.1134 21.2055
" />
<path d="M43.1134 21.2055
L43.1134 21.3506
" />
<path d="M43.1134 21.3506
L43.0650 21.4474
" />
<path d="M43.0650 21.4474
L43.0167 21.4957
" />
<path d="M43.0167 21.4957
L42.9199 21.5441
" />
<path d="M42.9199 21.5441
L42.5329 21.5441
" />
<path d="M44.1294 21.9312
L44.0810 21.9796
" />
<path d="M44.0810 21.9796
L43.9359 22.0279
" />
<path d="M43.9359 22.0279
L43.8391 22.0279
" />
<path d="M43.8391 22.0279
L43.6940 21.9796
" />
<path d="M43.6940 21.9796
L43.5972 21.8828
" />
<path d="M43.5972 21.8828
L43.5489 21.7860
" />
<path d="M43.5489 21.7860
L43.5005 21.5925
" />
<path d="M43.5005 21.5925
L43.5005 21.4474
" />
<path d="M43.5005 21.4474
L43.5489 21.2538
" />
<path d="M43.5489 21.2538
L43.5972 21.1571
" />
<path d="M43.5972 21.1571
L43.6940 21.0603
" />
<path d="M43.6940 21.0603
L43.8391 21.0119
" />
<path d="M43.8391 21.0119
L43.9359 21.0119
" />
<path d="M43.9359 21.0119
L44.0810 21.0603
" />
<path d="M44.0810 21.0603
L44.1294 21.1087
" />
<path d="M44.4197 21.0119
L44.7584 22.0279
" />
<path d="M44.7584 22.0279
L45.0970 21.0119
" />
</g><text x="43.9843" y="14.4526"
textLength="3.5644" font-size="1.3546" lengthAdjust="spacingAndGlyphs"
text-anchor="middle" opacity="0">XMIT</text>
<g class="stroked-text"><desc>XMIT</desc>
<path d="M42.4361 13.3919
L43.1134 14.4079
" />
<path d="M43.1134 13.3919
L42.4361 14.4079
" />
<path d="M43.5005 14.4079
L43.5005 13.3919
" />
<path d="M43.5005 13.3919
L43.8391 14.1176
" />
<path d="M43.8391 14.1176
L44.1778 13.3919
" />
<path d="M44.1778 13.3919
L44.1778 14.4079
" />
<path d="M44.6616 14.4079
L44.6616 13.3919
" />
<path d="M45.0002 13.3919
L45.5808 13.3919
" />
<path d="M45.2905 14.4079
L45.2905 13.3919
" />
</g></g>
<g style="fill:#840000; fill-opacity:0.0; 
stroke:#840000; stroke-width:0.0794; stroke-opacity:1; 
stroke-linecap:round; stroke-linejoin:round;">
<text x="53.7591" y="22.6441"
textLength="3.6492" font-size="0.8466" lengthAdjust="spacingAndGlyphs"
text-anchor="middle" opacity="0">1000pF</text>
<g class="stroked-text"><desc>1000pF</desc>
<path d="M52.4739 22.6162
L52.1110 22.6162
" />
<path d="M52.2924 22.6162
L52.2924 21.9812
" />
<path d="M52.2924 21.9812
L52.2320 22.0719
" />
<path d="M52.2320 22.0719
L52.1715 22.1324
" />
<path d="M52.1715 22.1324
L52.1110 22.1626
" />
<path d="M52.8670 21.9812
L52.9275 21.9812
" />
<path d="M52.9275 21.9812
L52.9879 22.0114
" />
<path d="M52.9879 22.0114
L53.0182 22.0417
" />
<path d="M53.0182 22.0417
L53.0484 22.1021
" />
<path d="M53.0484 22.1021
L53.0787 22.2231
" />
<path d="M53.0787 22.2231
L53.0787 22.3743
" />
<path d="M53.0787 22.3743
L53.0484 22.4952
" />
<path d="M53.0484 22.4952
L53.0182 22.5557
" />
<path d="M53.0182 22.5557
L52.9879 22.5860
" />
<path d="M52.9879 22.5860
L52.9275 22.6162
" />
<path d="M52.9275 22.6162
L52.8670 22.6162
" />
<path d="M52.8670 22.6162
L52.8065 22.5860
" />
<path d="M52.8065 22.5860
L52.7763 22.5557
" />
<path d="M52.7763 22.5557
L52.7460 22.4952
" />
<path d="M52.7460 22.4952
L52.7158 22.3743
" />
<path d="M52.7158 22.3743
L52.7158 22.2231
" />
<path d="M52.7158 22.2231
L52.7460 22.1021
" />
<path d="M52.7460 22.1021
L52.7763 22.0417
" />
<path d="M52.7763 22.0417
L52.8065 22.0114
" />
<path d="M52.8065 22.0114
L52.8670 21.9812
" />
<path d="M53.4718 21.9812
L53.5323 21.9812
" />
<path d="M53.5323 21.9812
L53.5927 22.0114
" />
<path d="M53.5927 22.0114
L53.6230 22.0417
" />
<path d="M53.6230 22.0417
L53.6532 22.1021
" />
<path d="M53.6532 22.1021
L53.6835 22.2231
" />
<path d="M53.6835 22.2231
L53.6835 22.3743
" />
<path d="M53.6835 22.3743
L53.6532 22.4952
" />
<path d="M53.6532 22.4952
L53.6230 22.5557
" />
<path d="M53.6230 22.5557
L53.5927 22.5860
" />
<path d="M53.5927 22.5860
L53.5323 22.6162
" />
<path d="M53.5323 22.6162
L53.4718 22.6162
" />
<path d="M53.4718 22.6162
L53.4113 22.5860
" />
<path d="M53.4113 22.5860
L53.3811 22.5557
" />
<path d="M53.3811 22.5557
L53.3508 22.4952
" />
<path d="M53.3508 22.4952
L53.3206 22.3743
" />
<path d="M53.3206 22.3743
L53.3206 22.2231
" />
<path d="M53.3206 22.2231
L53.3508 22.1021
" />
<path d="M53.3508 22.1021
L53.3811 22.0417
" />
<path d="M53.3811 22.0417
L53.4113 22.0114
" />
<path d="M53.4113 22.0114
L53.4718 21.9812
" />
<path d="M54.0766 21.9812
L54.1371 21.9812
" />
<path d="M54.1371 21.9812
L54.1975 22.0114
" />
<path d="M54.1975 22.0114
L54.2278 22.0417
" />
<path d="M54.2278 22.0417
L54.2580 22.1021
" />
<path d="M54.2580 22.1021
L54.2883 22.2231
" />
<path d="M54.2883 22.2231
L54.2883 22.3743
" />
<path d="M54.2883 22.3743
L54.2580 22.4952
" />
<path d="M54.2580 22.4952
L54.2278 22.5557
" />
<path d="M54.2278 22.5557
L54.1975 22.5860
" />
<path d="M54.1975 22.5860
L54.1371 22.6162
" />
<path d="M54.1371 22.6162
L54.0766 22.6162
" />
<path d="M54.0766 22.6162
L54.0161 22.5860
" />
<path d="M54.0161 22.5860
L53.9859 22.5557
" />
<path d="M53.9859 22.5557
L53.9556 22.4952
" />
<path d="M53.9556 22.4952
L53.9254 22.3743
" />
<path d="M53.9254 22.3743
L53.9254 22.2231
" />
<path d="M53.9254 22.2231
L53.9556 22.1021
" />
<path d="M53.9556 22.1021
L53.9859 22.0417
" />
<path d="M53.9859 22.0417
L54.0161 22.0114
" />
<path d="M54.0161 22.0114
L54.0766 21.9812
" />
<path d="M54.5604 22.1929
L54.5604 22.8279
" />
<path d="M54.5604 22.2231
L54.6209 22.1929
" />
<path d="M54.6209 22.1929
L54.7419 22.1929
" />
<path d="M54.7419 22.1929
L54.8023 22.2231
" />
<path d="M54.8023 22.2231
L54.8326 22.2533
" />
<path d="M54.8326 22.2533
L54.8628 22.3138
" />
<path d="M54.8628 22.3138
L54.8628 22.4952
" />
<path d="M54.8628 22.4952
L54.8326 22.5557
" />
<path d="M54.8326 22.5557
L54.8023 22.5860
" />
<path d="M54.8023 22.5860
L54.7419 22.6162
" />
<path d="M54.7419 22.6162
L54.6209 22.6162
" />
<path d="M54.6209 22.6162
L54.5604 22.5860
" />
<path d="M55.3466 22.2836
L55.1349 22.2836
" />
<path d="M55.1349 22.6162
L55.1349 21.9812
" />
<path d="M55.1349 21.9812
L55.4373 21.9812
" />
</g><text x="46.9011" y="18.7071"
textLength="1.3208" font-size="0.8466" lengthAdjust="spacingAndGlyphs"
text-anchor="middle" opacity="0">75</text>
<g class="stroked-text"><desc>75</desc>
<path d="M46.3870 18.0442
L46.8103 18.0442
" />
<path d="M46.8103 18.0442
L46.5382 18.6792
" />
<path d="M47.3546 18.0442
L47.0522 18.0442
" />
<path d="M47.0522 18.0442
L47.0220 18.3466
" />
<path d="M47.0220 18.3466
L47.0522 18.3163
" />
<path d="M47.0522 18.3163
L47.1127 18.2861
" />
<path d="M47.1127 18.2861
L47.2639 18.2861
" />
<path d="M47.2639 18.2861
L47.3244 18.3163
" />
<path d="M47.3244 18.3163
L47.3546 18.3466
" />
<path d="M47.3546 18.3466
L47.3849 18.4070
" />
<path d="M47.3849 18.4070
L47.3849 18.5582
" />
<path d="M47.3849 18.5582
L47.3546 18.6187
" />
<path d="M47.3546 18.6187
L47.3244 18.6490
" />
<path d="M47.3244 18.6490
L47.2639 18.6792
" />
<path d="M47.2639 18.6792
L47.1127 18.6792
" />
<path d="M47.1127 18.6792
L47.0522 18.6490
" />
<path d="M47.0522 18.6490
L47.0220 18.6187
" />
</g><text x="46.9011" y="11.0871"
textLength="1.3208" font-size="0.8466" lengthAdjust="spacingAndGlyphs"
text-anchor="middle" opacity="0">75</text>
<g class="stroked-text"><desc>75</desc>
<path d="M46.3870 10.4242
L46.8103 10.4242
" />
<path d="M46.8103 10.4242
L46.5382 11.0592
" />
<path d="M47.3546 10.4242
L47.0522 10.4242
" />
<path d="M47.0522 10.4242
L47.0220 10.7266
" />
<path d="M47.0220 10.7266
L47.0522 10.6963
" />
<path d="M47.0522 10.6963
L47.1127 10.6661
" />
<path d="M47.1127 10.6661
L47.2639 10.6661
" />
<path d="M47.2639 10.6661
L47.3244 10.6963
" />
<path d="M47.3244 10.6963
L47.3546 10.7266
" />
<path d="M47.3546 10.7266
L47.3849 10.7870
" />
<path d="M47.3849 10.7870
L47.3849 10.9382
" />
<path d="M47.3849 10.9382
L47.3546 10.9987
" />
<path d="M47.3546 10.9987
L47.3244 11.0290
" />
<path d="M47.3244 11.0290
L47.2639 11.0592
" />
<path d="M47.2639 11.0592
L47.1127 11.0592
" />
<path d="M47.1127 11.0592
L47.0522 11.0290
" />
<path d="M47.0522 11.0290
L47.0220 10.9987
" />
</g><text x="51.4731" y="18.7071"
textLength="1.3208" font-size="0.8466" lengthAdjust="spacingAndGlyphs"
text-anchor="middle" opacity="0">75</text>
<g class="stroked-text"><desc>75</desc>
<path d="M50.9590 18.0442
L51.3823 18.0442
" />
<path d="M51.3823 18.0442
L51.1102 18.6792
" />
<path d="M51.9266 18.0442
L51.6242 18.0442
" />
<path d="M51.6242 18.0442
L51.5940 18.3466
" />
<path d="M51.5940 18.3466
L51.6242 18.3163
" />
<path d="M51.6242 18.3163
L51.6847 18.2861
" />
<path d="M51.6847 18.2861
L51.8359 18.2861
" />
<path d="M51.8359 18.2861
L51.8964 18.3163
" />
<path d="M51.8964 18.3163
L51.9266 18.3466
" />
<path d="M51.9266 18.3466
L51.9569 18.4070
" />
<path d="M51.9569 18.4070
L51.9569 18.5582
" />
<path d="M51.9569 18.5582
L51.9266 18.6187
" />
<path d="M51.9266 18.6187
L51.8964 18.6490
" />
<path d="M51.8964 18.6490
L51.8359 18.6792
" />
<path d="M51.8359 18.6792
L51.6847 18.6792
" />
<path d="M51.6847 18.6792
L51.6242 18.6490
" />
<path d="M51.6242 18.6490
L51.5940 18.6187
" />
</g><text x="51.4731" y="11.0871"
textLength="1.3208" font-size="0.8466" lengthAdjust="spacingAndGlyphs"
text-anchor="middle" opacity="0">75</text>
<g class="stroked-text"><desc>75</desc>
<path d="M50.9590 10.4242
L51.3823 10.4242
" />
<path d="M51.3823 10.4242
L51.1102 11.0592
" />
<path d="M51.9266 10.4242
L51.6242 10.4242
" />
<path d="M51.6242 10.4242
L51.5940 10.7266
" />
<path d="M51.5940 10.7266
L51.6242 10.6963
" />
<path d="M51.6242 10.6963
L51.6847 10.6661
" />
<path d="M51.6847 10.6661
L51.8359 10.6661
" />
<path d="M51.8359 10.6661
L51.8964 10.6963
" />
<path d="M51.8964 10.6963
L51.9266 10.7266
" />
<path d="M51.9266 10.7266
L51.9569 10.7870
" />
<path d="M51.9569 10.7870
L51.9569 10.9382
" />
<path d="M51.9569 10.9382
L51.9266 10.9987
" />
<path d="M51.9266 10.9987
L51.8964 11.0290
" />
<path d="M51.8964 11.0290
L51.8359 11.0592
" />
<path d="M51.8359 11.0592
L51.6847 11.0592
" />
<path d="M51.6847 11.0592
L51.6242 11.0290
" />
<path d="M51.6242 11.0290
L51.5940 10.9987
" />
</g></g>
<g style="fill:#840000; fill-opacity:0.0; 
stroke:#840000; stroke-width:0.1524; stroke-opacity:1; 
stroke-linecap:round; stroke-linejoin:round;">
<path d="M32.6771 8.2296
L30.1371 8.2296
" />
</g>
<g style="fill:#006464; fill-opacity:0.0; 
stroke:#006464; stroke-width:0.1524; stroke-opacity:1; 
stroke-linecap:round; stroke-linejoin:round;">
<text x="33.1851" y="8.8646"
textLength="4.0132" font-size="1.6933" lengthAdjust="spacingAndGlyphs"
text-anchor="start" opacity="0">TD+</text>
<g class="stroked-text"><desc>TD+</desc>
<path d="M33.4062 7.5391
L34.1319 7.5391
" />
<path d="M33.7691 8.8091
L33.7691 7.5391
" />
<path d="M34.5552 8.8091
L34.5552 7.5391
" />
<path d="M34.5552 7.5391
L34.8576 7.5391
" />
<path d="M34.8576 7.5391
L35.0390 7.5996
" />
<path d="M35.0390 7.5996
L35.1600 7.7206
" />
<path d="M35.1600 7.7206
L35.2205 7.8415
" />
<path d="M35.2205 7.8415
L35.2809 8.0834
" />
<path d="M35.2809 8.0834
L35.2809 8.2648
" />
<path d="M35.2809 8.2648
L35.2205 8.5067
" />
<path d="M35.2205 8.5067
L35.1600 8.6277
" />
<path d="M35.1600 8.6277
L35.0390 8.7487
" />
<path d="M35.0390 8.7487
L34.8576 8.8091
" />
<path d="M34.8576 8.8091
L34.5552 8.8091
" />
<path d="M35.8252 8.3253
L36.7929 8.3253
" />
<path d="M36.3090 8.8091
L36.3090 7.8415
" />
</g></g>
<g style="fill:#A90000; fill-opacity:0.0; 
stroke:#A90000; stroke-width:0.1524; stroke-opacity:1; 
stroke-linecap:round; stroke-linejoin:round;">
<text x="31.4071" y="7.9756"
textLength="1.4127" font-size="1.6933" lengthAdjust="spacingAndGlyphs"
text-anchor="middle" opacity="0">1</text>
<g class="stroked-text"><desc>1</desc>
<path d="M31.7700 7.8121
L31.0443 7.8121
" />
<path d="M31.4071 7.8121
L31.4071 6.5421
" />
<path d="M31.4071 6.5421
L31.2862 6.7236
" />
<path d="M31.2862 6.7236
L31.1652 6.8445
" />
<path d="M31.1652 6.8445
L31.0443 6.9050
" />
</g></g>
<g style="fill:#840000; fill-opacity:0.0; 
stroke:#840000; stroke-width:0.1524; stroke-opacity:1; 
stroke-linecap:round; stroke-linejoin:round;">
<path d="M32.6771 10.7696
L30.1371 10.7696
" />
</g>
<g style="fill:#006464; fill-opacity:0.0; 
stroke:#006464; stroke-width:0.1524; stroke-opacity:1; 
stroke-linecap:round; stroke-linejoin:round;">
<text x="33.1851" y="11.4046"
textLength="3.4084" font-size="1.6933" lengthAdjust="spacingAndGlyphs"
text-anchor="start" opacity="0">TCT</text>
<g class="stroked-text"><desc>TCT</desc>
<path d="M33.4062 10.0791
L34.1319 10.0791
" />
<path d="M33.7691 11.3491
L33.7691 10.0791
" />
<path d="M35.2809 11.2282
L35.2205 11.2887
" />
<path d="M35.2205 11.2887
L35.0390 11.3491
" />
<path d="M35.0390 11.3491
L34.9181 11.3491
" />
<path d="M34.9181 11.3491
L34.7367 11.2887
" />
<path d="M34.7367 11.2887
L34.6157 11.1677
" />
<path d="M34.6157 11.1677
L34.5552 11.0467
" />
<path d="M34.5552 11.0467
L34.4948 10.8048
" />
<path d="M34.4948 10.8048
L34.4948 10.6234
" />
<path d="M34.4948 10.6234
L34.5552 10.3815
" />
<path d="M34.5552 10.3815
L34.6157 10.2606
" />
<path d="M34.6157 10.2606
L34.7367 10.1396
" />
<path d="M34.7367 10.1396
L34.9181 10.0791
" />
<path d="M34.9181 10.0791
L35.0390 10.0791
" />
<path d="M35.0390 10.0791
L35.2205 10.1396
" />
<path d="M35.2205 10.1396
L35.2809 10.2001
" />
<path d="M35.6438 10.0791
L36.3695 10.0791
" />
<path d="M36.0067 11.3491
L36.0067 10.0791
" />
</g></g>
<g style="fill:#A90000; fill-opacity:0.0; 
stroke:#A90000; stroke-width:0.1524; stroke-opacity:1; 
stroke-linecap:round; stroke-linejoin:round;">
<text x="31.4071" y="10.5156"
textLength="1.4127" font-size="1.6933" lengthAdjust="spacingAndGlyphs"
text-anchor="middle" opacity="0">2</text>
<g class="stroked-text"><desc>2</desc>
<path d="M31.0443 9.2031
L31.1047 9.1426
" />
<path d="M31.1047 9.1426
L31.2257 9.0821
" />
<path d="M31.2257 9.0821
L31.5281 9.0821
" />
<path d="M31.5281 9.0821
L31.6490 9.1426
" />
<path d="M31.6490 9.1426
L31.7095 9.2031
" />
<path d="M31.7095 9.2031
L31.7700 9.3240
" />
<path d="M31.7700 9.3240
L31.7700 9.4450
" />
<path d="M31.7700 9.4450
L31.7095 9.6264
" />
<path d="M31.7095 9.6264
L30.9838 10.3521
" />
<path d="M30.9838 10.3521
L31.7700 10.3521
" />
</g></g>
<g style="fill:#840000; fill-opacity:0.0; 
stroke:#840000; stroke-width:0.1524; stroke-opacity:1; 
stroke-linecap:round; stroke-linejoin:round;">
<path d="M32.6771 13.3096
L30.1371 13.3096
" />
</g>
<g style="fill:#006464; fill-opacity:0.0; 
stroke:#006464; stroke-width:0.1524; stroke-opacity:1; 
stroke-linecap:round; stroke-linejoin:round;">
<text x="33.1851" y="13.9446"
textLength="4.0132" font-size="1.6933" lengthAdjust="spacingAndGlyphs"
text-anchor="start" opacity="0">TD-</text>
<g class="stroked-text"><desc>TD-</desc>
<path d="M33.4062 12.6191
L34.1319 12.6191
" />
<path d="M33.7691 13.8891
L33.7691 12.6191
" />
<path d="M34.5552 13.8891
L34.5552 12.6191
" />
<path d="M34.5552 12.6191
L34.8576 12.6191
" />
<path d="M34.8576 12.6191
L35.0390 12.6796
" />
<path d="M35.0390 12.6796
L35.1600 12.8006
" />
<path d="M35.1600 12.8006
L35.2205 12.9215
" />
<path d="M35.2205 12.9215
L35.2809 13.1634
" />
<path d="M35.2809 13.1634
L35.2809 13.3448
" />
<path d="M35.2809 13.3448
L35.2205 13.5867
" />
<path d="M35.2205 13.5867
L35.1600 13.7077
" />
<path d="M35.1600 13.7077
L35.0390 13.8287
" />
<path d="M35.0390 13.8287
L34.8576 13.8891
" />
<path d="M34.8576 13.8891
L34.5552 13.8891
" />
<path d="M35.8252 13.4053
L36.7929 13.4053
" />
</g></g>
<g style="fill:#A90000; fill-opacity:0.0; 
stroke:#A90000; stroke-width:0.1524; stroke-opacity:1; 
stroke-linecap:round; stroke-linejoin:round;">
<text x="31.4071" y="13.0556"
textLength="1.4127" font-size="1.6933" lengthAdjust="spacingAndGlyphs"
text-anchor="middle" opacity="0">3</text>
<g class="stroked-text"><desc>3</desc>
<path d="M30.9838 11.6221
L31.7700 11.6221
" />
<path d="M31.7700 11.6221
L31.3466 12.1059
" />
<path d="M31.3466 12.1059
L31.5281 12.1059
" />
<path d="M31.5281 12.1059
L31.6490 12.1664
" />
<path d="M31.6490 12.1664
L31.7095 12.2269
" />
<path d="M31.7095 12.2269
L31.7700 12.3478
" />
<path d="M31.7700 12.3478
L31.7700 12.6502
" />
<path d="M31.7700 12.6502
L31.7095 12.7712
" />
<path d="M31.7095 12.7712
L31.6490 12.8317
" />
<path d="M31.6490 12.8317
L31.5281 12.8921
" />
<path d="M31.5281 12.8921
L31.1652 12.8921
" />
<path d="M31.1652 12.8921
L31.0443 12.8317
" />
<path d="M31.0443 12.8317
L30.9838 12.7712
" />
</g></g>
<g style="fill:#840000; fill-opacity:0.0; 
stroke:#840000; stroke-width:0.1524; stroke-opacity:1; 
stroke-linecap:round; stroke-linejoin:round;">
<path d="M32.6771 15.8496
L30.1371 15.8496
" />
</g>
<g style="fill:#006464; fill-opacity:0.0; 
stroke:#006464; stroke-width:0.1524; stroke-opacity:1; 
stroke-linecap:round; stroke-linejoin:round;">
<text x="33.1851" y="16.4846"
textLength="4.3156" font-size="1.6933" lengthAdjust="spacingAndGlyphs"
text-anchor="start" opacity="0">RD+</text>
<g class="stroked-text"><desc>RD+</desc>
<path d="M34.3133 16.4291
L33.8900 15.8244
" />
<path d="M33.5876 16.4291
L33.5876 15.1591
" />
<path d="M33.5876 15.1591
L34.0714 15.1591
" />
<path d="M34.0714 15.1591
L34.1924 15.2196
" />
<path d="M34.1924 15.2196
L34.2529 15.2801
" />
<path d="M34.2529 15.2801
L34.3133 15.4010
" />
<path d="M34.3133 15.4010
L34.3133 15.5825
" />
<path d="M34.3133 15.5825
L34.2529 15.7034
" />
<path d="M34.2529 15.7034
L34.1924 15.7639
" />
<path d="M34.1924 15.7639
L34.0714 15.8244
" />
<path d="M34.0714 15.8244
L33.5876 15.8244
" />
<path d="M34.8576 16.4291
L34.8576 15.1591
" />
<path d="M34.8576 15.1591
L35.1600 15.1591
" />
<path d="M35.1600 15.1591
L35.3414 15.2196
" />
<path d="M35.3414 15.2196
L35.4624 15.3406
" />
<path d="M35.4624 15.3406
L35.5229 15.4615
" />
<path d="M35.5229 15.4615
L35.5833 15.7034
" />
<path d="M35.5833 15.7034
L35.5833 15.8848
" />
<path d="M35.5833 15.8848
L35.5229 16.1267
" />
<path d="M35.5229 16.1267
L35.4624 16.2477
" />
<path d="M35.4624 16.2477
L35.3414 16.3687
" />
<path d="M35.3414 16.3687
L35.1600 16.4291
" />
<path d="M35.1600 16.4291
L34.8576 16.4291
" />
<path d="M36.1276 15.9453
L37.0953 15.9453
" />
<path d="M36.6114 16.4291
L36.6114 15.4615
" />
</g></g>
<g style="fill:#A90000; fill-opacity:0.0; 
stroke:#A90000; stroke-width:0.1524; stroke-opacity:1; 
stroke-linecap:round; stroke-linejoin:round;">
<text x="31.4071" y="15.5956"
textLength="1.4127" font-size="1.6933" lengthAdjust="spacingAndGlyphs"
text-anchor="middle" opacity="0">4</text>
<g class="stroked-text"><desc>4</desc>
<path d="M31.6490 14.5855
L31.6490 15.4321
" />
<path d="M31.3466 14.1017
L31.0443 15.0088
" />
<path d="M31.0443 15.0088
L31.8304 15.0088
" />
</g></g>
<g style="fill:#840000; fill-opacity:0.0; 
stroke:#840000; stroke-width:0.1524; stroke-opacity:1; 
stroke-linecap:round; stroke-linejoin:round;">
<path d="M32.6771 18.3896
L30.1371 18.3896
" />
</g>
<g style="fill:#006464; fill-opacity:0.0; 
stroke:#006464; stroke-width:0.1524; stroke-opacity:1; 
stroke-linecap:round; stroke-linejoin:round;">
<text x="33.1851" y="19.0246"
textLength="3.7108" font-size="1.6933" lengthAdjust="spacingAndGlyphs"
text-anchor="start" opacity="0">RCT</text>
<g class="stroked-text"><desc>RCT</desc>
<path d="M34.3133 18.9691
L33.8900 18.3644
" />
<path d="M33.5876 18.9691
L33.5876 17.6991
" />
<path d="M33.5876 17.6991
L34.0714 17.6991
" />
<path d="M34.0714 17.6991
L34.1924 17.7596
" />
<path d="M34.1924 17.7596
L34.2529 17.8201
" />
<path d="M34.2529 17.8201
L34.3133 17.9410
" />
<path d="M34.3133 17.9410
L34.3133 18.1225
" />
<path d="M34.3133 18.1225
L34.2529 18.2434
" />
<path d="M34.2529 18.2434
L34.1924 18.3039
" />
<path d="M34.1924 18.3039
L34.0714 18.3644
" />
<path d="M34.0714 18.3644
L33.5876 18.3644
" />
<path d="M35.5833 18.8482
L35.5229 18.9087
" />
<path d="M35.5229 18.9087
L35.3414 18.9691
" />
<path d="M35.3414 18.9691
L35.2205 18.9691
" />
<path d="M35.2205 18.9691
L35.0391 18.9087
" />
<path d="M35.0391 18.9087
L34.9181 18.7877
" />
<path d="M34.9181 18.7877
L34.8576 18.6667
" />
<path d="M34.8576 18.6667
L34.7972 18.4248
" />
<path d="M34.7972 18.4248
L34.7972 18.2434
" />
<path d="M34.7972 18.2434
L34.8576 18.0015
" />
<path d="M34.8576 18.0015
L34.9181 17.8806
" />
<path d="M34.9181 17.8806
L35.0391 17.7596
" />
<path d="M35.0391 17.7596
L35.2205 17.6991
" />
<path d="M35.2205 17.6991
L35.3414 17.6991
" />
<path d="M35.3414 17.6991
L35.5229 17.7596
" />
<path d="M35.5229 17.7596
L35.5833 17.8201
" />
<path d="M35.9462 17.6991
L36.6719 17.6991
" />
<path d="M36.3091 18.9691
L36.3091 17.6991
" />
</g></g>
<g style="fill:#A90000; fill-opacity:0.0; 
stroke:#A90000; stroke-width:0.1524; stroke-opacity:1; 
stroke-linecap:round; stroke-linejoin:round;">
<text x="31.4071" y="18.1356"
textLength="1.4127" font-size="1.6933" lengthAdjust="spacingAndGlyphs"
text-anchor="middle" opacity="0">5</text>
<g class="stroked-text"><desc>5</desc>
<path d="M31.7095 16.7021
L31.1047 16.7021
" />
<path d="M31.1047 16.7021
L31.0443 17.3069
" />
<path d="M31.0443 17.3069
L31.1047 17.2464
" />
<path d="M31.1047 17.2464
L31.2257 17.1859
" />
<path d="M31.2257 17.1859
L31.5281 17.1859
" />
<path d="M31.5281 17.1859
L31.6490 17.2464
" />
<path d="M31.6490 17.2464
L31.7095 17.3069
" />
<path d="M31.7095 17.3069
L31.7700 17.4278
" />
<path d="M31.7700 17.4278
L31.7700 17.7302
" />
<path d="M31.7700 17.7302
L31.7095 17.8512
" />
<path d="M31.7095 17.8512
L31.6490 17.9117
" />
<path d="M31.6490 17.9117
L31.5281 17.9721
" />
<path d="M31.5281 17.9721
L31.2257 17.9721
" />
<path d="M31.2257 17.9721
L31.1047 17.9117
" />
<path d="M31.1047 17.9117
L31.0443 17.8512
" />
</g></g>
<g style="fill:#840000; fill-opacity:0.0; 
stroke:#840000; stroke-width:0.1524; stroke-opacity:1; 
stroke-linecap:round; stroke-linejoin:round;">
<path d="M32.6771 20.9296
L30.1371 20.9296
" />
</g>
<g style="fill:#006464; fill-opacity:0.0; 
stroke:#006464; stroke-width:0.1524; stroke-opacity:1; 
stroke-linecap:round; stroke-linejoin:round;">
<text x="33.1851" y="21.5646"
textLength="4.3156" font-size="1.6933" lengthAdjust="spacingAndGlyphs"
text-anchor="start" opacity="0">RD-</text>
<g class="stroked-text"><desc>RD-</desc>
<path d="M34.3133 21.5091
L33.8900 20.9044
" />
<path d="M33.5876 21.5091
L33.5876 20.2391
" />
<path d="M33.5876 20.2391
L34.0714 20.2391
" />
<path d="M34.0714 20.2391
L34.1924 20.2996
" />
<path d="M34.1924 20.2996
L34.2529 20.3601
" />
<path d="M34.2529 20.3601
L34.3133 20.4810
" />
<path d="M34.3133 20.4810
L34.3133 20.6625
" />
<path d="M34.3133 20.6625
L34.2529 20.7834
" />
<path d="M34.2529 20.7834
L34.1924 20.8439
" />
<path d="M34.1924 20.8439
L34.0714 20.9044
" />
<path d="M34.0714 20.9044
L33.5876 20.9044
" />
<path d="M34.8576 21.5091
L34.8576 20.2391
" />
<path d="M34.8576 20.2391
L35.1600 20.2391
" />
<path d="M35.1600 20.2391
L35.3414 20.2996
" />
<path d="M35.3414 20.2996
L35.4624 20.4206
" />
<path d="M35.4624 20.4206
L35.5229 20.5415
" />
<path d="M35.5229 20.5415
L35.5833 20.7834
" />
<path d="M35.5833 20.7834
L35.5833 20.9648
" />
<path d="M35.5833 20.9648
L35.5229 21.2067
" />
<path d="M35.5229 21.2067
L35.4624 21.3277
" />
<path d="M35.4624 21.3277
L35.3414 21.4487
" />
<path d="M35.3414 21.4487
L35.1600 21.5091
" />
<path d="M35.1600 21.5091
L34.8576 21.5091
" />
<path d="M36.1276 21.0253
L37.0953 21.0253
" />
</g></g>
<g style="fill:#A90000; fill-opacity:0.0; 
stroke:#A90000; stroke-width:0.1524; stroke-opacity:1; 
stroke-linecap:round; stroke-linejoin:round;">
<text x="31.4071" y="20.6756"
textLength="1.4127" font-size="1.6933" lengthAdjust="spacingAndGlyphs"
text-anchor="middle" opacity="0">6</text>
<g class="stroked-text"><desc>6</desc>
<path d="M31.6490 19.2421
L31.4071 19.2421
" />
<path d="M31.4071 19.2421
L31.2862 19.3026
" />
<path d="M31.2862 19.3026
L31.2257 19.3631
" />
<path d="M31.2257 19.3631
L31.1047 19.5445
" />
<path d="M31.1047 19.5445
L31.0443 19.7864
" />
<path d="M31.0443 19.7864
L31.0443 20.2702
" />
<path d="M31.0443 20.2702
L31.1047 20.3912
" />
<path d="M31.1047 20.3912
L31.1652 20.4517
" />
<path d="M31.1652 20.4517
L31.2862 20.5121
" />
<path d="M31.2862 20.5121
L31.5281 20.5121
" />
<path d="M31.5281 20.5121
L31.6490 20.4517
" />
<path d="M31.6490 20.4517
L31.7095 20.3912
" />
<path d="M31.7095 20.3912
L31.7700 20.2702
" />
<path d="M31.7700 20.2702
L31.7700 19.9678
" />
<path d="M31.7700 19.9678
L31.7095 19.8469
" />
<path d="M31.7095 19.8469
L31.6490 19.7864
" />
<path d="M31.6490 19.7864
L31.5281 19.7259
" />
<path d="M31.5281 19.7259
L31.2862 19.7259
" />
<path d="M31.2862 19.7259
L31.1652 19.7864
" />
<path d="M31.1652 19.7864
L31.1047 19.8469
" />
<path d="M31.1047 19.8469
L31.0443 19.9678
" />
</g></g>
<g style="fill:#840000; fill-opacity:0.0; 
stroke:#840000; stroke-width:0.1524; stroke-opacity:1; 
stroke-linecap:round; stroke-linejoin:round;">
<path d="M60.6171 23.4696
L60.6171 26.0096
" />
</g>
<g style="fill:#A90000; fill-opacity:0.0; 
stroke:#A90000; stroke-width:0.1524; stroke-opacity:1; 
stroke-linecap:round; stroke-linejoin:round;">
<g transform="rotate(-90.000000 60.3631 24.7396)">
<text x="60.3631" y="24.7396"
textLength="1.4127" font-size="1.6933" lengthAdjust="spacingAndGlyphs"
text-anchor="middle" opacity="0">8</text>
</g>
<g class="stroked-text"><desc>8</desc>
<path d="M59.4739 24.8604
L59.4134 24.9814
" />
<path d="M59.4134 24.9814
L59.3530 25.0419
" />
<path d="M59.3530 25.0419
L59.2320 25.1023
" />
<path d="M59.2320 25.1023
L59.1715 25.1023
" />
<path d="M59.1715 25.1023
L59.0506 25.0419
" />
<path d="M59.0506 25.0419
L58.9901 24.9814
" />
<path d="M58.9901 24.9814
L58.9296 24.8604
" />
<path d="M58.9296 24.8604
L58.9296 24.6185
" />
<path d="M58.9296 24.6185
L58.9901 24.4976
" />
<path d="M58.9901 24.4976
L59.0506 24.4371
" />
<path d="M59.0506 24.4371
L59.1715 24.3766
" />
<path d="M59.1715 24.3766
L59.2320 24.3766
" />
<path d="M59.2320 24.3766
L59.3530 24.4371
" />
<path d="M59.3530 24.4371
L59.4134 24.4976
" />
<path d="M59.4134 24.4976
L59.4739 24.6185
" />
<path d="M59.4739 24.6185
L59.4739 24.8604
" />
<path d="M59.4739 24.8604
L59.5344 24.9814
" />
<path d="M59.5344 24.9814
L59.5949 25.0419
" />
<path d="M59.5949 25.0419
L59.7158 25.1023
" />
<path d="M59.7158 25.1023
L59.9577 25.1023
" />
<path d="M59.9577 25.1023
L60.0787 25.0419
" />
<path d="M60.0787 25.0419
L60.1392 24.9814
" />
<path d="M60.1392 24.9814
L60.1996 24.8604
" />
<path d="M60.1996 24.8604
L60.1996 24.6185
" />
<path d="M60.1996 24.6185
L60.1392 24.4976
" />
<path d="M60.1392 24.4976
L60.0787 24.4371
" />
<path d="M60.0787 24.4371
L59.9577 24.3766
" />
<path d="M59.9577 24.3766
L59.7158 24.3766
" />
<path d="M59.7158 24.3766
L59.5949 24.4371
" />
<path d="M59.5949 24.4371
L59.5344 24.4976
" />
<path d="M59.5344 24.4976
L59.4739 24.6185
" />
</g></g>
<g style="fill:#840000; fill-opacity:0.0; 
stroke:#840000; stroke-width:0.1524; stroke-opacity:1; 
stroke-linecap:round; stroke-linejoin:round;">
<path d="M70.7771 18.3896
L73.3171 18.3896
" />
</g>
<g style="fill:#A90000; fill-opacity:0.0; 
stroke:#A90000; stroke-width:0.1524; stroke-opacity:1; 
stroke-linecap:round; stroke-linejoin:round;">
<text x="72.0471" y="18.1356"
textLength="2.4408" font-size="1.6933" lengthAdjust="spacingAndGlyphs"
text-anchor="middle" opacity="0">L1</text>
<g class="stroked-text"><desc>L1</desc>
<path d="M71.8354 17.9721
L71.2306 17.9721
" />
<path d="M71.2306 17.9721
L71.2306 16.7021
" />
<path d="M72.9240 17.9721
L72.1983 17.9721
" />
<path d="M72.5611 17.9721
L72.5611 16.7021
" />
<path d="M72.5611 16.7021
L72.4402 16.8836
" />
<path d="M72.4402 16.8836
L72.3192 17.0045
" />
<path d="M72.3192 17.0045
L72.1983 17.0650
" />
</g></g>
<g style="fill:#840000; fill-opacity:0.0; 
stroke:#840000; stroke-width:0.1524; stroke-opacity:1; 
stroke-linecap:round; stroke-linejoin:round;">
<path d="M70.7771 20.9296
L73.3171 20.9296
" />
</g>
<g style="fill:#A90000; fill-opacity:0.0; 
stroke:#A90000; stroke-width:0.1524; stroke-opacity:1; 
stroke-linecap:round; stroke-linejoin:round;">
<text x="72.0471" y="20.6756"
textLength="2.4408" font-size="1.6933" lengthAdjust="spacingAndGlyphs"
text-anchor="middle" opacity="0">L2</text>
<g class="stroked-text"><desc>L2</desc>
<path d="M71.8354 20.5121
L71.2306 20.5121
" />
<path d="M71.2306 20.5121
L71.2306 19.2421
" />
<path d="M72.1983 19.3631
L72.2587 19.3026
" />
<path d="M72.2587 19.3026
L72.3797 19.2421
" />
<path d="M72.3797 19.2421
L72.6821 19.2421
" />
<path d="M72.6821 19.2421
L72.8030 19.3026
" />
<path d="M72.8030 19.3026
L72.8635 19.3631
" />
<path d="M72.8635 19.3631
L72.9240 19.4840
" />
<path d="M72.9240 19.4840
L72.9240 19.6050
" />
<path d="M72.9240 19.6050
L72.8635 19.7864
" />
<path d="M72.8635 19.7864
L72.1378 20.5121
" />
<path d="M72.1378 20.5121
L72.9240 20.5121
" />
</g></g>
<g style="fill:#840000; fill-opacity:0.0; 
stroke:#840000; stroke-width:0.1524; stroke-opacity:1; 
stroke-linecap:round; stroke-linejoin:round;">
<path d="M70.7771 8.2296
L73.3171 8.2296
" />
</g>
<g style="fill:#A90000; fill-opacity:0.0; 
stroke:#A90000; stroke-width:0.1524; stroke-opacity:1; 
stroke-linecap:round; stroke-linejoin:round;">
<text x="72.0471" y="7.9756"
textLength="2.4408" font-size="1.6933" lengthAdjust="spacingAndGlyphs"
text-anchor="middle" opacity="0">L3</text>
<g class="stroked-text"><desc>L3</desc>
<path d="M71.8354 7.8121
L71.2306 7.8121
" />
<path d="M71.2306 7.8121
L71.2306 6.5421
" />
<path d="M72.1378 6.5421
L72.9240 6.5421
" />
<path d="M72.9240 6.5421
L72.5006 7.0259
" />
<path d="M72.5006 7.0259
L72.6821 7.0259
" />
<path d="M72.6821 7.0259
L72.8030 7.0864
" />
<path d="M72.8030 7.0864
L72.8635 7.1469
" />
<path d="M72.8635 7.1469
L72.9240 7.2678
" />
<path d="M72.9240 7.2678
L72.9240 7.5702
" />
<path d="M72.9240 7.5702
L72.8635 7.6912
" />
<path d="M72.8635 7.6912
L72.8030 7.7517
" />
<path d="M72.8030 7.7517
L72.6821 7.8121
" />
<path d="M72.6821 7.8121
L72.3192 7.8121
" />
<path d="M72.3192 7.8121
L72.1983 7.7517
" />
<path d="M72.1983 7.7517
L72.1378 7.6912
" />
</g></g>
<g style="fill:#840000; fill-opacity:0.0; 
stroke:#840000; stroke-width:0.1524; stroke-opacity:1; 
stroke-linecap:round; stroke-linejoin:round;">
<path d="M70.7771 10.7696
L73.3171 10.7696
" />
</g>
<g style="fill:#A90000; fill-opacity:0.0; 
stroke:#A90000; stroke-width:0.1524; stroke-opacity:1; 
stroke-linecap:round; stroke-linejoin:round;">
<text x="72.0471" y="10.5156"
textLength="2.4408" font-size="1.6933" lengthAdjust="spacingAndGlyphs"
text-anchor="middle" opacity="0">L4</text>
<g class="stroked-text"><desc>L4</desc>
<path d="M71.8354 10.3521
L71.2306 10.3521
" />
<path d="M71.2306 10.3521
L71.2306 9.0821
" />
<path d="M72.8030 9.5055
L72.8030 10.3521
" />
<path d="M72.5006 9.0217
L72.1983 9.9288
" />
<path d="M72.1983 9.9288
L72.9844 9.9288
" />
</g></g>
<g style="fill:#840000; fill-opacity:0.0; 
stroke:#840000; stroke-width:0.1524; stroke-opacity:1; 
stroke-linecap:round; stroke-linejoin:round;">
<path d="M65.6971 23.4696
L65.6971 26.0096
" />
</g>
<g style="fill:#A90000; fill-opacity:0.0; 
stroke:#A90000; stroke-width:0.1524; stroke-opacity:1; 
stroke-linecap:round; stroke-linejoin:round;">
<g transform="rotate(-90.000000 65.4431 24.7396)">
<text x="65.4431" y="24.7396"
textLength="2.7432" font-size="1.6933" lengthAdjust="spacingAndGlyphs"
text-anchor="middle" opacity="0">SH</text>
</g>
<g class="stroked-text"><desc>SH</desc>
<path d="M65.2192 25.7676
L65.2796 25.5862
" />
<path d="M65.2796 25.5862
L65.2796 25.2838
" />
<path d="M65.2796 25.2838
L65.2192 25.1629
" />
<path d="M65.2192 25.1629
L65.1587 25.1024
" />
<path d="M65.1587 25.1024
L65.0377 25.0419
" />
<path d="M65.0377 25.0419
L64.9168 25.0419
" />
<path d="M64.9168 25.0419
L64.7958 25.1024
" />
<path d="M64.7958 25.1024
L64.7353 25.1629
" />
<path d="M64.7353 25.1629
L64.6749 25.2838
" />
<path d="M64.6749 25.2838
L64.6144 25.5257
" />
<path d="M64.6144 25.5257
L64.5539 25.6467
" />
<path d="M64.5539 25.6467
L64.4934 25.7072
" />
<path d="M64.4934 25.7072
L64.3725 25.7676
" />
<path d="M64.3725 25.7676
L64.2515 25.7676
" />
<path d="M64.2515 25.7676
L64.1306 25.7072
" />
<path d="M64.1306 25.7072
L64.0701 25.6467
" />
<path d="M64.0701 25.6467
L64.0096 25.5257
" />
<path d="M64.0096 25.5257
L64.0096 25.2234
" />
<path d="M64.0096 25.2234
L64.0701 25.0419
" />
<path d="M65.2796 24.4977
L64.0096 24.4977
" />
<path d="M64.6144 24.4977
L64.6144 23.7720
" />
<path d="M65.2796 23.7720
L64.0096 23.7720
" />
</g></g>
<g style="fill:#840084; fill-opacity:0.0; 
stroke:#840084; stroke-width:0.1524; stroke-opacity:1; 
stroke-linecap:round; stroke-linejoin:round;">
</g>
<g style="fill:#006464; fill-opacity:0.0; 
stroke:#006464; stroke-width:0.1524; stroke-opacity:1; 
stroke-linecap:round; stroke-linejoin:round;">
</g>
<g style="fill:#006464; fill-opacity:0.0; 
stroke:#006464; stroke-width:0.1588; stroke-opacity:1; 
stroke-linecap:round; stroke-linejoin:round;">
<text x="68.3678" y="6.3246"
textLength="2.2786" font-size="1.6933" lengthAdjust="spacingAndGlyphs"
text-anchor="middle" opacity="0">J?</text>
<g class="stroked-text"><desc>J?</desc>
<path d="M68.0049 4.9988
L68.0049 5.9060
" />
<path d="M68.0049 5.9060
L67.9444 6.0874
" />
<path d="M67.9444 6.0874
L67.8235 6.2084
" />
<path d="M67.8235 6.2084
L67.6420 6.2688
" />
<path d="M67.6420 6.2688
L67.5211 6.2688
" />
<path d="M68.7911 6.1479
L68.8515 6.2084
" />
<path d="M68.8515 6.2084
L68.7911 6.2688
" />
<path d="M68.7911 6.2688
L68.7306 6.2084
" />
<path d="M68.7306 6.2084
L68.7911 6.1479
" />
<path d="M68.7911 6.1479
L68.7911 6.2688
" />
<path d="M68.5492 5.0593
L68.6701 4.9988
" />
<path d="M68.6701 4.9988
L68.9725 4.9988
" />
<path d="M68.9725 4.9988
L69.0934 5.0593
" />
<path d="M69.0934 5.0593
L69.1539 5.1803
" />
<path d="M69.1539 5.1803
L69.1539 5.3012
" />
<path d="M69.1539 5.3012
L69.0934 5.4222
" />
<path d="M69.0934 5.4222
L69.0330 5.4826
" />
<path d="M69.0330 5.4826
L68.9120 5.5431
" />
<path d="M68.9120 5.5431
L68.8515 5.6036
" />
<path d="M68.8515 5.6036
L68.7911 5.7245
" />
<path d="M68.7911 5.7245
L68.7911 5.7850
" />
</g><text x="42.3737" y="6.3246"
textLength="21.9332" font-size="1.6933" lengthAdjust="spacingAndGlyphs"
text-anchor="middle" opacity="0">RJ45_Bel_SI-60062-F</text>
<g class="stroked-text"><desc>RJ45_Bel_SI-60062-F</desc>
<path d="M32.5463 6.2688
L32.1230 5.6641
" />
<path d="M31.8206 6.2688
L31.8206 4.9988
" />
<path d="M31.8206 4.9988
L32.3044 4.9988
" />
<path d="M32.3044 4.9988
L32.4254 5.0593
" />
<path d="M32.4254 5.0593
L32.4859 5.1198
" />
<path d="M32.4859 5.1198
L32.5463 5.2407
" />
<path d="M32.5463 5.2407
L32.5463 5.4222
" />
<path d="M32.5463 5.4222
L32.4859 5.5431
" />
<path d="M32.4859 5.5431
L32.4254 5.6036
" />
<path d="M32.4254 5.6036
L32.3044 5.6641
" />
<path d="M32.3044 5.6641
L31.8206 5.6641
" />
<path d="M33.4535 4.9988
L33.4535 5.9060
" />
<path d="M33.4535 5.9060
L33.3930 6.0874
" />
<path d="M33.3930 6.0874
L33.2721 6.2084
" />
<path d="M33.2721 6.2084
L33.0906 6.2688
" />
<path d="M33.0906 6.2688
L32.9697 6.2688
" />
<path d="M34.6025 5.4222
L34.6025 6.2688
" />
<path d="M34.3001 4.9384
L33.9978 5.8455
" />
<path d="M33.9978 5.8455
L34.7839 5.8455
" />
<path d="M35.8725 4.9988
L35.2677 4.9988
" />
<path d="M35.2677 4.9988
L35.2073 5.6036
" />
<path d="M35.2073 5.6036
L35.2677 5.5431
" />
<path d="M35.2677 5.5431
L35.3887 5.4826
" />
<path d="M35.3887 5.4826
L35.6911 5.4826
" />
<path d="M35.6911 5.4826
L35.8120 5.5431
" />
<path d="M35.8120 5.5431
L35.8725 5.6036
" />
<path d="M35.8725 5.6036
L35.9330 5.7245
" />
<path d="M35.9330 5.7245
L35.9330 6.0269
" />
<path d="M35.9330 6.0269
L35.8725 6.1479
" />
<path d="M35.8725 6.1479
L35.8120 6.2084
" />
<path d="M35.8120 6.2084
L35.6911 6.2688
" />
<path d="M35.6911 6.2688
L35.3887 6.2688
" />
<path d="M35.3887 6.2688
L35.2677 6.2084
" />
<path d="M35.2677 6.2084
L35.2073 6.1479
" />
<path d="M36.1749 6.3898
L37.1425 6.3898
" />
<path d="M37.8682 5.6036
L38.0496 5.6641
" />
<path d="M38.0496 5.6641
L38.1101 5.7245
" />
<path d="M38.1101 5.7245
L38.1705 5.8455
" />
<path d="M38.1705 5.8455
L38.1705 6.0269
" />
<path d="M38.1705 6.0269
L38.1101 6.1479
" />
<path d="M38.1101 6.1479
L38.0496 6.2084
" />
<path d="M38.0496 6.2084
L37.9286 6.2688
" />
<path d="M37.9286 6.2688
L37.4448 6.2688
" />
<path d="M37.4448 6.2688
L37.4448 4.9988
" />
<path d="M37.4448 4.9988
L37.8682 4.9988
" />
<path d="M37.8682 4.9988
L37.9891 5.0593
" />
<path d="M37.9891 5.0593
L38.0496 5.1198
" />
<path d="M38.0496 5.1198
L38.1101 5.2407
" />
<path d="M38.1101 5.2407
L38.1101 5.3617
" />
<path d="M38.1101 5.3617
L38.0496 5.4826
" />
<path d="M38.0496 5.4826
L37.9891 5.5431
" />
<path d="M37.9891 5.5431
L37.8682 5.6036
" />
<path d="M37.8682 5.6036
L37.4448 5.6036
" />
<path d="M39.1986 6.2084
L39.0777 6.2688
" />
<path d="M39.0777 6.2688
L38.8358 6.2688
" />
<path d="M38.8358 6.2688
L38.7148 6.2084
" />
<path d="M38.7148 6.2084
L38.6544 6.0874
" />
<path d="M38.6544 6.0874
L38.6544 5.6036
" />
<path d="M38.6544 5.6036
L38.7148 5.4826
" />
<path d="M38.7148 5.4826
L38.8358 5.4222
" />
<path d="M38.8358 5.4222
L39.0777 5.4222
" />
<path d="M39.0777 5.4222
L39.1986 5.4826
" />
<path d="M39.1986 5.4826
L39.2591 5.6036
" />
<path d="M39.2591 5.6036
L39.2591 5.7245
" />
<path d="M39.2591 5.7245
L38.6544 5.8455
" />
<path d="M39.9849 6.2688
L39.8639 6.2084
" />
<path d="M39.8639 6.2084
L39.8034 6.0874
" />
<path d="M39.8034 6.0874
L39.8034 4.9988
" />
<path d="M40.1663 6.3898
L41.1339 6.3898
" />
<path d="M41.3758 6.2084
L41.5572 6.2688
" />
<path d="M41.5572 6.2688
L41.8596 6.2688
" />
<path d="M41.8596 6.2688
L41.9805 6.2084
" />
<path d="M41.9805 6.2084
L42.0410 6.1479
" />
<path d="M42.0410 6.1479
L42.1015 6.0269
" />
<path d="M42.1015 6.0269
L42.1015 5.9060
" />
<path d="M42.1015 5.9060
L42.0410 5.7850
" />
<path d="M42.0410 5.7850
L41.9805 5.7245
" />
<path d="M41.9805 5.7245
L41.8596 5.6641
" />
<path d="M41.8596 5.6641
L41.6177 5.6036
" />
<path d="M41.6177 5.6036
L41.4967 5.5431
" />
<path d="M41.4967 5.5431
L41.4362 5.4826
" />
<path d="M41.4362 5.4826
L41.3758 5.3617
" />
<path d="M41.3758 5.3617
L41.3758 5.2407
" />
<path d="M41.3758 5.2407
L41.4362 5.1198
" />
<path d="M41.4362 5.1198
L41.4967 5.0593
" />
<path d="M41.4967 5.0593
L41.6177 4.9988
" />
<path d="M41.6177 4.9988
L41.9200 4.9988
" />
<path d="M41.9200 4.9988
L42.1015 5.0593
" />
<path d="M42.6457 6.2688
L42.6457 4.9988
" />
<path d="M43.2505 5.7850
L44.2182 5.7850
" />
<path d="M45.3672 4.9988
L45.1253 4.9988
" />
<path d="M45.1253 4.9988
L45.0044 5.0593
" />
<path d="M45.0044 5.0593
L44.9439 5.1198
" />
<path d="M44.9439 5.1198
L44.8229 5.3012
" />
<path d="M44.8229 5.3012
L44.7625 5.5431
" />
<path d="M44.7625 5.5431
L44.7625 6.0269
" />
<path d="M44.7625 6.0269
L44.8229 6.1479
" />
<path d="M44.8229 6.1479
L44.8834 6.2084
" />
<path d="M44.8834 6.2084
L45.0044 6.2688
" />
<path d="M45.0044 6.2688
L45.2463 6.2688
" />
<path d="M45.2463 6.2688
L45.3672 6.2084
" />
<path d="M45.3672 6.2084
L45.4277 6.1479
" />
<path d="M45.4277 6.1479
L45.4882 6.0269
" />
<path d="M45.4882 6.0269
L45.4882 5.7245
" />
<path d="M45.4882 5.7245
L45.4277 5.6036
" />
<path d="M45.4277 5.6036
L45.3672 5.5431
" />
<path d="M45.3672 5.5431
L45.2463 5.4826
" />
<path d="M45.2463 5.4826
L45.0044 5.4826
" />
<path d="M45.0044 5.4826
L44.8834 5.5431
" />
<path d="M44.8834 5.5431
L44.8229 5.6036
" />
<path d="M44.8229 5.6036
L44.7625 5.7245
" />
<path d="M46.2743 4.9988
L46.3953 4.9988
" />
<path d="M46.3953 4.9988
L46.5162 5.0593
" />
<path d="M46.5162 5.0593
L46.5767 5.1198
" />
<path d="M46.5767 5.1198
L46.6372 5.2407
" />
<path d="M46.6372 5.2407
L46.6977 5.4826
" />
<path d="M46.6977 5.4826
L46.6977 5.7850
" />
<path d="M46.6977 5.7850
L46.6372 6.0269
" />
<path d="M46.6372 6.0269
L46.5767 6.1479
" />
<path d="M46.5767 6.1479
L46.5162 6.2084
" />
<path d="M46.5162 6.2084
L46.3953 6.2688
" />
<path d="M46.3953 6.2688
L46.2743 6.2688
" />
<path d="M46.2743 6.2688
L46.1534 6.2084
" />
<path d="M46.1534 6.2084
L46.0929 6.1479
" />
<path d="M46.0929 6.1479
L46.0324 6.0269
" />
<path d="M46.0324 6.0269
L45.9720 5.7850
" />
<path d="M45.9720 5.7850
L45.9720 5.4826
" />
<path d="M45.9720 5.4826
L46.0324 5.2407
" />
<path d="M46.0324 5.2407
L46.0929 5.1198
" />
<path d="M46.0929 5.1198
L46.1534 5.0593
" />
<path d="M46.1534 5.0593
L46.2743 4.9988
" />
<path d="M47.4838 4.9988
L47.6048 4.9988
" />
<path d="M47.6048 4.9988
L47.7257 5.0593
" />
<path d="M47.7257 5.0593
L47.7862 5.1198
" />
<path d="M47.7862 5.1198
L47.8467 5.2407
" />
<path d="M47.8467 5.2407
L47.9072 5.4826
" />
<path d="M47.9072 5.4826
L47.9072 5.7850
" />
<path d="M47.9072 5.7850
L47.8467 6.0269
" />
<path d="M47.8467 6.0269
L47.7862 6.1479
" />
<path d="M47.7862 6.1479
L47.7257 6.2084
" />
<path d="M47.7257 6.2084
L47.6048 6.2688
" />
<path d="M47.6048 6.2688
L47.4838 6.2688
" />
<path d="M47.4838 6.2688
L47.3629 6.2084
" />
<path d="M47.3629 6.2084
L47.3024 6.1479
" />
<path d="M47.3024 6.1479
L47.2419 6.0269
" />
<path d="M47.2419 6.0269
L47.1815 5.7850
" />
<path d="M47.1815 5.7850
L47.1815 5.4826
" />
<path d="M47.1815 5.4826
L47.2419 5.2407
" />
<path d="M47.2419 5.2407
L47.3024 5.1198
" />
<path d="M47.3024 5.1198
L47.3629 5.0593
" />
<path d="M47.3629 5.0593
L47.4838 4.9988
" />
<path d="M48.9957 4.9988
L48.7538 4.9988
" />
<path d="M48.7538 4.9988
L48.6329 5.0593
" />
<path d="M48.6329 5.0593
L48.5724 5.1198
" />
<path d="M48.5724 5.1198
L48.4514 5.3012
" />
<path d="M48.4514 5.3012
L48.3910 5.5431
" />
<path d="M48.3910 5.5431
L48.3910 6.0269
" />
<path d="M48.3910 6.0269
L48.4514 6.1479
" />
<path d="M48.4514 6.1479
L48.5119 6.2084
" />
<path d="M48.5119 6.2084
L48.6329 6.2688
" />
<path d="M48.6329 6.2688
L48.8748 6.2688
" />
<path d="M48.8748 6.2688
L48.9957 6.2084
" />
<path d="M48.9957 6.2084
L49.0562 6.1479
" />
<path d="M49.0562 6.1479
L49.1167 6.0269
" />
<path d="M49.1167 6.0269
L49.1167 5.7245
" />
<path d="M49.1167 5.7245
L49.0562 5.6036
" />
<path d="M49.0562 5.6036
L48.9957 5.5431
" />
<path d="M48.9957 5.5431
L48.8748 5.4826
" />
<path d="M48.8748 5.4826
L48.6329 5.4826
" />
<path d="M48.6329 5.4826
L48.5119 5.5431
" />
<path d="M48.5119 5.5431
L48.4514 5.6036
" />
<path d="M48.4514 5.6036
L48.3910 5.7245
" />
<path d="M49.6005 5.1198
L49.6609 5.0593
" />
<path d="M49.6609 5.0593
L49.7819 4.9988
" />
<path d="M49.7819 4.9988
L50.0843 4.9988
" />
<path d="M50.0843 4.9988
L50.2052 5.0593
" />
<path d="M50.2052 5.0593
L50.2657 5.1198
" />
<path d="M50.2657 5.1198
L50.3262 5.2407
" />
<path d="M50.3262 5.2407
L50.3262 5.3617
" />
<path d="M50.3262 5.3617
L50.2657 5.5431
" />
<path d="M50.2657 5.5431
L49.5400 6.2688
" />
<path d="M49.5400 6.2688
L50.3262 6.2688
" />
<path d="M50.8704 5.7850
L51.8381 5.7850
" />
<path d="M52.8662 5.6036
L52.4428 5.6036
" />
<path d="M52.4428 6.2688
L52.4428 4.9988
" />
<path d="M52.4428 4.9988
L53.0476 4.9988
" />
</g></g> 
</svg>
