<?xml version="1.0" standalone="no"?>
 <!DOCTYPE svg PUBLIC "-//W3C//DTD SVG 1.1//EN" 
 "http://www.w3.org/Graphics/SVG/1.1/DTD/svg11.dtd"> 
<svg
  xmlns:svg="http://www.w3.org/2000/svg"
  xmlns="http://www.w3.org/2000/svg"
  xmlns:xlink="http://www.w3.org/1999/xlink"
  version="1.1"
  width="13.1318mm" height="5.9944mm" viewBox="0.0000 0.0000 13.1318 5.9944">
<title>SVG Image created as AMS_TSL25911FN.svg date 2024/01/16 15:07:03 </title>
  <desc>Image generated by PCBNEW </desc>
<g style="fill:#000000; fill-opacity:1.0000;stroke:#000000; stroke-opacity:1.0000;
stroke-linecap:round; stroke-linejoin:round;"
 transform="translate(0 0) scale(1 1)">
</g>
<g style="fill:#000000; fill-opacity:0.0; 
stroke:#000000; stroke-width:0.0000; stroke-opacity:1; 
stroke-linecap:round; stroke-linejoin:round;">
</g>
<g style="fill:#000000; fill-opacity:1.0000; 
stroke:#000000; stroke-width:0.0212; stroke-opacity:1; 
stroke-linecap:round; stroke-linejoin:round;">
<rect x="-5.000000" y="-5.000000" width="23.154763" height="15.996500" rx="0.000000" />
</g>
<g style="fill:#FFFFFF; fill-opacity:1.0000; 
stroke:#FFFFFF; stroke-width:0.0212; stroke-opacity:1; 
stroke-linecap:round; stroke-linejoin:round;">
<g >
</g>
<g >
</g>
<g >
</g>
<g >
</g>
</g>
<g style="fill:#FFFFFF; fill-opacity:1.0000; 
stroke:#FFFFFF; stroke-width:0.0212; stroke-opacity:1; 
stroke-linecap:round; stroke-linejoin:round;">
<g >
</g>
<g >
</g>
<g >
</g>
<g >
</g>
</g>
<g style="fill:#FFFFFF; fill-opacity:1.0000; 
stroke:#FFFFFF; stroke-width:0.0212; stroke-opacity:1; 
stroke-linecap:round; stroke-linejoin:round;">
<g >
</g>
<g >
</g>
<g >
</g>
<g >
</g>
</g>
<g style="fill:#FFFFFF; fill-opacity:1.0000; 
stroke:#FFFFFF; stroke-width:0.0212; stroke-opacity:1; 
stroke-linecap:round; stroke-linejoin:round;">
<g >
</g>
<g >
</g>
<g >
</g>
<g >
</g>
</g>
<g style="fill:#FFFFFF; fill-opacity:1.0000; 
stroke:#FFFFFF; stroke-width:0.0212; stroke-opacity:1; 
stroke-linecap:round; stroke-linejoin:round;">
<g >
</g>
<g >
</g>
<g >
</g>
<g >
</g>
</g>
<g style="fill:#FFFFFF; fill-opacity:1.0000; 
stroke:#FFFFFF; stroke-width:0.0212; stroke-opacity:1; 
stroke-linecap:round; stroke-linejoin:round;">
<g >
</g>
<g >
</g>
<g >
</g>
<g >
</g>
</g>
<g style="fill:#FFFFFF; fill-opacity:1.0000; 
stroke:#FFFFFF; stroke-width:0.0212; stroke-opacity:1; 
stroke-linecap:round; stroke-linejoin:round;">
<g >
</g>
<g >
</g>
<g >
</g>
<g >
</g>
</g>
<g style="fill:#FFFFFF; fill-opacity:1.0000; 
stroke:#FFFFFF; stroke-width:0.0212; stroke-opacity:1; 
stroke-linecap:round; stroke-linejoin:round;">
<g >
</g>
<g >
</g>
<g >
</g>
<g >
</g>
</g>
<g style="fill:#FFFFFF; fill-opacity:1.0000; 
stroke:#FFFFFF; stroke-width:0.0212; stroke-opacity:1; 
stroke-linecap:round; stroke-linejoin:round;">
<g >
</g>
<g >
</g>
<g >
</g>
<g >
</g>
</g>
<g style="fill:#FFFFFF; fill-opacity:1.0000; 
stroke:#FFFFFF; stroke-width:0.0212; stroke-opacity:1; 
stroke-linecap:round; stroke-linejoin:round;">
<g >
</g>
<g >
</g>
<g >
</g>
<g >
</g>
</g>
<g style="fill:#FFFFFF; fill-opacity:1.0000; 
stroke:#FFFFFF; stroke-width:0.0212; stroke-opacity:1; 
stroke-linecap:round; stroke-linejoin:round;">
<g >
</g>
<g >
</g>
<g >
</g>
<g >
</g>
</g>
<g style="fill:#FFFFFF; fill-opacity:1.0000; 
stroke:#FFFFFF; stroke-width:0.0212; stroke-opacity:1; 
stroke-linecap:round; stroke-linejoin:round;">
<g >
</g>
<g >
</g>
<g >
</g>
<g >
</g>
</g>
<g style="fill:#FFFFFF; fill-opacity:1.0000; 
stroke:#FFFFFF; stroke-width:0.0212; stroke-opacity:1; 
stroke-linecap:round; stroke-linejoin:round;">
<g >
</g>
<g >
</g>
<g >
</g>
<g >
</g>
</g>
<g style="fill:#FFFFFF; fill-opacity:1.0000; 
stroke:#FFFFFF; stroke-width:0.0212; stroke-opacity:1; 
stroke-linecap:round; stroke-linejoin:round;">
<g >
</g>
<g >
</g>
<g >
</g>
<g >
</g>
</g>
<g style="fill:#FFFFFF; fill-opacity:1.0000; 
stroke:#FFFFFF; stroke-width:0.0212; stroke-opacity:1; 
stroke-linecap:round; stroke-linejoin:round;">
<g >
</g>
<g >
</g>
<g >
</g>
<g >
</g>
</g>
<g style="fill:#FFFFFF; fill-opacity:1.0000; 
stroke:#FFFFFF; stroke-width:0.0212; stroke-opacity:1; 
stroke-linecap:round; stroke-linejoin:round;">
<g >
</g>
<g >
</g>
<g >
</g>
<g >
</g>
</g>
<g style="fill:#FFFFFF; fill-opacity:1.0000; 
stroke:#FFFFFF; stroke-width:0.0212; stroke-opacity:1; 
stroke-linecap:round; stroke-linejoin:round;">
<g >
</g>
<g >
</g>
<g >
</g>
<g >
</g>
</g>
<g style="fill:#FFFFFF; fill-opacity:1.0000; 
stroke:#FFFFFF; stroke-width:0.0212; stroke-opacity:1; 
stroke-linecap:round; stroke-linejoin:round;">
<g >
</g>
<g >
</g>
<g >
</g>
<g >
</g>
</g>
<g style="fill:#FFFFFF; fill-opacity:1.0000; 
stroke:#FFFFFF; stroke-width:0.0212; stroke-opacity:1; 
stroke-linecap:round; stroke-linejoin:round;">
<g >
</g>
<g >
</g>
<g >
</g>
<g >
</g>
</g>
<g style="fill:#FFFFFF; fill-opacity:1.0000; 
stroke:#FFFFFF; stroke-width:0.0212; stroke-opacity:1; 
stroke-linecap:round; stroke-linejoin:round;">
<g >
</g>
<g >
</g>
<g >
</g>
<g >
</g>
</g>
<g style="fill:#FFFFFF; fill-opacity:1.0000; 
stroke:#FFFFFF; stroke-width:0.0212; stroke-opacity:1; 
stroke-linecap:round; stroke-linejoin:round;">
<g >
</g>
<g >
</g>
<g >
</g>
<g >
</g>
</g>
<g style="fill:#FFFFFF; fill-opacity:1.0000; 
stroke:#FFFFFF; stroke-width:0.0212; stroke-opacity:1; 
stroke-linecap:round; stroke-linejoin:round;">
<g >
</g>
<g >
</g>
<g >
</g>
<g >
</g>
</g>
<g style="fill:#FFFFFF; fill-opacity:1.0000; 
stroke:#FFFFFF; stroke-width:0.0212; stroke-opacity:1; 
stroke-linecap:round; stroke-linejoin:round;">
<g >
</g>
<g >
</g>
<g >
</g>
<g >
</g>
</g>
<g style="fill:#FFFFFF; fill-opacity:1.0000; 
stroke:#FFFFFF; stroke-width:0.0212; stroke-opacity:1; 
stroke-linecap:round; stroke-linejoin:round;">
<g >
</g>
<g >
</g>
<g >
</g>
<g >
</g>
</g>
<g style="fill:#FFFFFF; fill-opacity:1.0000; 
stroke:#FFFFFF; stroke-width:0.0212; stroke-opacity:1; 
stroke-linecap:round; stroke-linejoin:round;">
<g >
</g>
<g >
</g>
<g >
</g>
<g >
</g>
</g>
<g style="fill:#FFFFFF; fill-opacity:1.0000; 
stroke:#FFFFFF; stroke-width:0.0212; stroke-opacity:1; 
stroke-linecap:round; stroke-linejoin:round;">
<g >
</g>
<g >
</g>
<g >
</g>
<g >
</g>
</g>
<g style="fill:#FFFFFF; fill-opacity:1.0000; 
stroke:#FFFFFF; stroke-width:0.0212; stroke-opacity:1; 
stroke-linecap:round; stroke-linejoin:round;">
<g >
</g>
<g >
</g>
<g >
</g>
<g >
</g>
</g>
<g style="fill:#FFFFFF; fill-opacity:1.0000; 
stroke:#FFFFFF; stroke-width:0.0212; stroke-opacity:1; 
stroke-linecap:round; stroke-linejoin:round;">
<g >
</g>
<g >
</g>
<g >
</g>
<g >
</g>
</g>
<g style="fill:#FFFFFF; fill-opacity:1.0000; 
stroke:#FFFFFF; stroke-width:0.0212; stroke-opacity:1; 
stroke-linecap:round; stroke-linejoin:round;">
<g >
</g>
<g >
</g>
<g >
</g>
<g >
</g>
</g>
<g style="fill:#FFFFFF; fill-opacity:1.0000; 
stroke:#FFFFFF; stroke-width:0.0212; stroke-opacity:1; 
stroke-linecap:round; stroke-linejoin:round;">
<g >
</g>
<g >
</g>
<g >
</g>
<g >
</g>
</g>
<g style="fill:#FFFFFF; fill-opacity:1.0000; 
stroke:#FFFFFF; stroke-width:0.0212; stroke-opacity:1; 
stroke-linecap:round; stroke-linejoin:round;">
<g >
</g>
<g >
</g>
<g >
</g>
<g >
</g>
</g>
<g style="fill:#FFFFFF; fill-opacity:1.0000; 
stroke:#FFFFFF; stroke-width:0.0212; stroke-opacity:1; 
stroke-linecap:round; stroke-linejoin:round;">
<g >
</g>
<g >
</g>
<g >
</g>
<g >
</g>
</g>
<g style="fill:#FFFFFF; fill-opacity:1.0000; 
stroke:#FFFFFF; stroke-width:0.0212; stroke-opacity:1; 
stroke-linecap:round; stroke-linejoin:round;">
<g >
</g>
<g >
</g>
<g >
</g>
<g >
</g>
</g>
<g style="fill:#FFFFFF; fill-opacity:1.0000; 
stroke:#FFFFFF; stroke-width:0.0212; stroke-opacity:1; 
stroke-linecap:round; stroke-linejoin:round;">
<g >
</g>
<g style="fill:#FFFFFF; fill-opacity:1.0000; 
stroke:#FFFFFF; stroke-width:0.0000; stroke-opacity:1; 
stroke-linecap:round; stroke-linejoin:round;">
<path style="fill:#FFFFFF; fill-opacity:1.0000; 
stroke:#FFFFFF; stroke-width:0.0000; stroke-opacity:1; 
stroke-linecap:round; stroke-linejoin:round;fill-rule:evenodd;"
d="M 5.5024,2.2483
5.5100,2.2100
5.5317,2.1775
5.5641,2.1559
5.6024,2.1482
6.2774,2.1482
6.3156,2.1559
6.3481,2.1775
6.3698,2.2100
6.3774,2.2483
6.3774,2.4482
6.3698,2.4865
6.3481,2.5190
6.3156,2.5406
6.2774,2.5482
5.6024,2.5482
5.5641,2.5406
5.5317,2.5190
5.5100,2.4865
5.5024,2.4482
Z" /> 
<path style="fill:#FFFFFF; fill-opacity:1.0000; 
stroke:#FFFFFF; stroke-width:0.0000; stroke-opacity:1; 
stroke-linecap:round; stroke-linejoin:round;fill-rule:evenodd;"
d="M 5.5024,2.8982
5.5100,2.8600
5.5317,2.8275
5.5641,2.8059
5.6024,2.7982
6.2774,2.7982
6.3156,2.8059
6.3481,2.8275
6.3698,2.8600
6.3774,2.8982
6.3774,3.0982
6.3698,3.1365
6.3481,3.1690
6.3156,3.1906
6.2774,3.1982
5.6024,3.1982
5.5641,3.1906
5.5317,3.1690
5.5100,3.1365
5.5024,3.0982
Z" /> 
<path style="fill:#FFFFFF; fill-opacity:1.0000; 
stroke:#FFFFFF; stroke-width:0.0000; stroke-opacity:1; 
stroke-linecap:round; stroke-linejoin:round;fill-rule:evenodd;"
d="M 5.5024,3.5482
5.5100,3.5100
5.5317,3.4775
5.5641,3.4559
5.6024,3.4482
6.2774,3.4482
6.3156,3.4559
6.3481,3.4775
6.3698,3.5100
6.3774,3.5482
6.3774,3.7482
6.3698,3.7865
6.3481,3.8190
6.3156,3.8406
6.2774,3.8482
5.6024,3.8482
5.5641,3.8406
5.5317,3.8190
5.5100,3.7865
5.5024,3.7482
Z" /> 
<path style="fill:#FFFFFF; fill-opacity:1.0000; 
stroke:#FFFFFF; stroke-width:0.0000; stroke-opacity:1; 
stroke-linecap:round; stroke-linejoin:round;fill-rule:evenodd;"
d="M 6.7774,3.5482
6.7850,3.5100
6.8067,3.4775
6.8391,3.4559
6.8774,3.4482
7.5524,3.4482
7.5906,3.4559
7.6231,3.4775
7.6448,3.5100
7.6524,3.5482
7.6524,3.7482
7.6448,3.7865
7.6231,3.8190
7.5906,3.8406
7.5524,3.8482
6.8774,3.8482
6.8391,3.8406
6.8067,3.8190
6.7850,3.7865
6.7774,3.7482
Z" /> 
<path style="fill:#FFFFFF; fill-opacity:1.0000; 
stroke:#FFFFFF; stroke-width:0.0000; stroke-opacity:1; 
stroke-linecap:round; stroke-linejoin:round;fill-rule:evenodd;"
d="M 6.7774,2.8982
6.7850,2.8600
6.8067,2.8275
6.8391,2.8059
6.8774,2.7982
7.5524,2.7982
7.5906,2.8059
7.6231,2.8275
7.6448,2.8600
7.6524,2.8982
7.6524,3.0982
7.6448,3.1365
7.6231,3.1690
7.5906,3.1906
7.5524,3.1982
6.8774,3.1982
6.8391,3.1906
6.8067,3.1690
6.7850,3.1365
6.7774,3.0982
Z" /> 
<path style="fill:#FFFFFF; fill-opacity:1.0000; 
stroke:#FFFFFF; stroke-width:0.0000; stroke-opacity:1; 
stroke-linecap:round; stroke-linejoin:round;fill-rule:evenodd;"
d="M 6.7774,2.2483
6.7850,2.2100
6.8067,2.1775
6.8391,2.1559
6.8774,2.1482
7.5524,2.1482
7.5906,2.1559
7.6231,2.1775
7.6448,2.2100
7.6524,2.2483
7.6524,2.4482
7.6448,2.4865
7.6231,2.5190
7.5906,2.5406
7.5524,2.5482
6.8774,2.5482
6.8391,2.5406
6.8067,2.5190
6.7850,2.4865
6.7774,2.4482
Z" /> 
</g>
<g >
</g>
<g >
</g>
<g >
</g>
</g>
<g style="fill:#FFFFFF; fill-opacity:1.0000; 
stroke:#FFFFFF; stroke-width:0.0000; stroke-opacity:1; 
stroke-linecap:round; stroke-linejoin:round;">
<g >
<path style="fill:#FFFFFF; fill-opacity:1.0000; 
stroke:#FFFFFF; stroke-width:0.0000; stroke-opacity:1; 
stroke-linecap:round; stroke-linejoin:round;fill-rule:evenodd;"
d="M 5.5024,2.2483
5.5100,2.2100
5.5317,2.1775
5.5641,2.1559
5.6024,2.1482
6.2774,2.1482
6.3156,2.1559
6.3481,2.1775
6.3698,2.2100
6.3774,2.2483
6.3774,2.4482
6.3698,2.4865
6.3481,2.5190
6.3156,2.5406
6.2774,2.5482
5.6024,2.5482
5.5641,2.5406
5.5317,2.5190
5.5100,2.4865
5.5024,2.4482
Z" /> 
<path style="fill:#FFFFFF; fill-opacity:1.0000; 
stroke:#FFFFFF; stroke-width:0.0000; stroke-opacity:1; 
stroke-linecap:round; stroke-linejoin:round;fill-rule:evenodd;"
d="M 5.5024,2.8982
5.5100,2.8600
5.5317,2.8275
5.5641,2.8059
5.6024,2.7982
6.2774,2.7982
6.3156,2.8059
6.3481,2.8275
6.3698,2.8600
6.3774,2.8982
6.3774,3.0982
6.3698,3.1365
6.3481,3.1690
6.3156,3.1906
6.2774,3.1982
5.6024,3.1982
5.5641,3.1906
5.5317,3.1690
5.5100,3.1365
5.5024,3.0982
Z" /> 
<path style="fill:#FFFFFF; fill-opacity:1.0000; 
stroke:#FFFFFF; stroke-width:0.0000; stroke-opacity:1; 
stroke-linecap:round; stroke-linejoin:round;fill-rule:evenodd;"
d="M 5.5024,3.5482
5.5100,3.5100
5.5317,3.4775
5.5641,3.4559
5.6024,3.4482
6.2774,3.4482
6.3156,3.4559
6.3481,3.4775
6.3698,3.5100
6.3774,3.5482
6.3774,3.7482
6.3698,3.7865
6.3481,3.8190
6.3156,3.8406
6.2774,3.8482
5.6024,3.8482
5.5641,3.8406
5.5317,3.8190
5.5100,3.7865
5.5024,3.7482
Z" /> 
<path style="fill:#FFFFFF; fill-opacity:1.0000; 
stroke:#FFFFFF; stroke-width:0.0000; stroke-opacity:1; 
stroke-linecap:round; stroke-linejoin:round;fill-rule:evenodd;"
d="M 6.7774,3.5482
6.7850,3.5100
6.8067,3.4775
6.8391,3.4559
6.8774,3.4482
7.5524,3.4482
7.5906,3.4559
7.6231,3.4775
7.6448,3.5100
7.6524,3.5482
7.6524,3.7482
7.6448,3.7865
7.6231,3.8190
7.5906,3.8406
7.5524,3.8482
6.8774,3.8482
6.8391,3.8406
6.8067,3.8190
6.7850,3.7865
6.7774,3.7482
Z" /> 
<path style="fill:#FFFFFF; fill-opacity:1.0000; 
stroke:#FFFFFF; stroke-width:0.0000; stroke-opacity:1; 
stroke-linecap:round; stroke-linejoin:round;fill-rule:evenodd;"
d="M 6.7774,2.8982
6.7850,2.8600
6.8067,2.8275
6.8391,2.8059
6.8774,2.7982
7.5524,2.7982
7.5906,2.8059
7.6231,2.8275
7.6448,2.8600
7.6524,2.8982
7.6524,3.0982
7.6448,3.1365
7.6231,3.1690
7.5906,3.1906
7.5524,3.1982
6.8774,3.1982
6.8391,3.1906
6.8067,3.1690
6.7850,3.1365
6.7774,3.0982
Z" /> 
<path style="fill:#FFFFFF; fill-opacity:1.0000; 
stroke:#FFFFFF; stroke-width:0.0000; stroke-opacity:1; 
stroke-linecap:round; stroke-linejoin:round;fill-rule:evenodd;"
d="M 6.7774,2.2483
6.7850,2.2100
6.8067,2.1775
6.8391,2.1559
6.8774,2.1482
7.5524,2.1482
7.5906,2.1559
7.6231,2.1775
7.6448,2.2100
7.6524,2.2483
7.6524,2.4482
7.6448,2.4865
7.6231,2.5190
7.5906,2.5406
7.5524,2.5482
6.8774,2.5482
6.8391,2.5406
6.8067,2.5190
6.7850,2.4865
6.7774,2.4482
Z" /> 
</g>
<g >
</g>
<g >
</g>
<g >
</g>
</g>
<g style="fill:#FFFFFF; fill-opacity:1.0000; 
stroke:#FFFFFF; stroke-width:0.0000; stroke-opacity:1; 
stroke-linecap:round; stroke-linejoin:round;">
</g>
<g style="fill:#FFFFFF; fill-opacity:1.0000; 
stroke:#FFFFFF; stroke-width:0.1500; stroke-opacity:1; 
stroke-linecap:round; stroke-linejoin:round;">
</g>
<g style="fill:#FFFFFF; fill-opacity:0.0; 
stroke:#FFFFFF; stroke-width:0.1500; stroke-opacity:1; 
stroke-linecap:round; stroke-linejoin:round;">
<text x="6.5774" y="1.3482"
textLength="4.5357" font-size="1.3333" lengthAdjust="spacingAndGlyphs"
text-anchor="middle" opacity="0">REF**</text>
<g class="stroked-text"><desc>REF**</desc>
<path d="M5.2440 1.3031
L4.9107 0.8269
" />
<path d="M4.6726 1.3031
L4.6726 0.3031
" />
<path d="M4.6726 0.3031
L5.0536 0.3031
" />
<path d="M5.0536 0.3031
L5.1488 0.3507
" />
<path d="M5.1488 0.3507
L5.1964 0.3983
" />
<path d="M5.1964 0.3983
L5.2440 0.4935
" />
<path d="M5.2440 0.4935
L5.2440 0.6364
" />
<path d="M5.2440 0.6364
L5.1964 0.7316
" />
<path d="M5.1964 0.7316
L5.1488 0.7793
" />
<path d="M5.1488 0.7793
L5.0536 0.8269
" />
<path d="M5.0536 0.8269
L4.6726 0.8269
" />
<path d="M5.6726 0.7793
L6.0060 0.7793
" />
<path d="M6.1488 1.3031
L5.6726 1.3031
" />
<path d="M5.6726 1.3031
L5.6726 0.3031
" />
<path d="M5.6726 0.3031
L6.1488 0.3031
" />
<path d="M6.9107 0.7793
L6.5774 0.7793
" />
<path d="M6.5774 1.3031
L6.5774 0.3031
" />
<path d="M6.5774 0.3031
L7.0536 0.3031
" />
<path d="M7.5774 0.3031
L7.5774 0.5412
" />
<path d="M7.3393 0.4459
L7.5774 0.5412
" />
<path d="M7.5774 0.5412
L7.8155 0.4459
" />
<path d="M7.4345 0.7316
L7.5774 0.5412
" />
<path d="M7.5774 0.5412
L7.7202 0.7316
" />
<path d="M8.3393 0.3031
L8.3393 0.5412
" />
<path d="M8.1012 0.4459
L8.3393 0.5412
" />
<path d="M8.3393 0.5412
L8.5774 0.4459
" />
<path d="M8.1964 0.7316
L8.3393 0.5412
" />
<path d="M8.3393 0.5412
L8.4821 0.7316
" />
</g></g>
<g style="fill:#FFFFFF; fill-opacity:0.0; 
stroke:#FFFFFF; stroke-width:0.1200; stroke-opacity:1; 
stroke-linecap:round; stroke-linejoin:round;">
<path d="M5.5774 4.3083
L7.5774 4.3083
" />
<path d="M6.5774 1.6883
L7.5774 1.6883
" />
<g >
</g>
<g >
</g>
<g >
</g>
<g >
</g>
</g> 
</svg>
