<?xml version="1.0" standalone="no"?>
 <!DOCTYPE svg PUBLIC "-//W3C//DTD SVG 1.1//EN" 
 "http://www.w3.org/Graphics/SVG/1.1/DTD/svg11.dtd"> 
<svg
  xmlns:svg="http://www.w3.org/2000/svg"
  xmlns="http://www.w3.org/2000/svg"
  xmlns:xlink="http://www.w3.org/1999/xlink"
  version="1.1"
  width="10.7696mm" height="7.7216mm" viewBox="0.0000 0.0000 10.7696 7.7216">
<title>SVG Image created as Osram_BPW82.svg date 2024/01/16 15:07:03 </title>
  <desc>Image generated by PCBNEW </desc>
<g style="fill:#000000; fill-opacity:1.0000;stroke:#000000; stroke-opacity:1.0000;
stroke-linecap:round; stroke-linejoin:round;"
 transform="translate(0 0) scale(1 1)">
</g>
<g style="fill:#000000; fill-opacity:0.0; 
stroke:#000000; stroke-width:0.0000; stroke-opacity:1; 
stroke-linecap:round; stroke-linejoin:round;">
</g>
<g style="fill:#000000; fill-opacity:1.0000; 
stroke:#000000; stroke-width:0.0212; stroke-opacity:1; 
stroke-linecap:round; stroke-linejoin:round;">
<rect x="-5.000000" y="-5.000000" width="20.773810" height="17.736500" rx="0.000000" />
</g>
<g style="fill:#FFFFFF; fill-opacity:1.0000; 
stroke:#FFFFFF; stroke-width:0.0212; stroke-opacity:1; 
stroke-linecap:round; stroke-linejoin:round;">
<g >
</g>
<g >
</g>
<g >
</g>
<g >
</g>
</g>
<g style="fill:#FFFFFF; fill-opacity:1.0000; 
stroke:#FFFFFF; stroke-width:0.0212; stroke-opacity:1; 
stroke-linecap:round; stroke-linejoin:round;">
<g >
</g>
<g >
</g>
<g >
</g>
<g >
</g>
</g>
<g style="fill:#FFFFFF; fill-opacity:1.0000; 
stroke:#FFFFFF; stroke-width:0.0212; stroke-opacity:1; 
stroke-linecap:round; stroke-linejoin:round;">
<g >
</g>
<g style="fill:#FFFFFF; fill-opacity:1.0000; 
stroke:#FFFFFF; stroke-width:0.0000; stroke-opacity:1; 
stroke-linecap:round; stroke-linejoin:round;">
<path style="fill:#FFFFFF; fill-opacity:1.0000; 
stroke:#FFFFFF; stroke-width:0.0000; stroke-opacity:1; 
stroke-linecap:round; stroke-linejoin:round;fill-rule:evenodd;"
d="M 3.4369,3.8974
3.4559,3.8021
3.5099,3.7212
3.5907,3.6672
3.6861,3.6482
4.5877,3.6482
4.6831,3.6672
4.7639,3.7212
4.8179,3.8021
4.8369,3.8974
4.8369,4.7990
4.8179,4.8944
4.7639,4.9753
4.6831,5.0293
4.5877,5.0482
3.6861,5.0482
3.5907,5.0293
3.5099,4.9753
3.4559,4.8944
3.4369,4.7990
Z" /> 
<circle cx="6.6969" cy="4.3483" r="0.7000" /> 
</g>
<g style="fill:#FFFFFF; fill-opacity:1.0000; 
stroke:#FFFFFF; stroke-width:0.0212; stroke-opacity:1; 
stroke-linecap:round; stroke-linejoin:round;">
</g>
<g >
</g>
<g >
</g>
<g >
</g>
</g>
<g style="fill:#FFFFFF; fill-opacity:1.0000; 
stroke:#FFFFFF; stroke-width:0.0212; stroke-opacity:1; 
stroke-linecap:round; stroke-linejoin:round;">
<g >
</g>
<g style="fill:#FFFFFF; fill-opacity:1.0000; 
stroke:#FFFFFF; stroke-width:0.0000; stroke-opacity:1; 
stroke-linecap:round; stroke-linejoin:round;">
<path style="fill:#FFFFFF; fill-opacity:1.0000; 
stroke:#FFFFFF; stroke-width:0.0000; stroke-opacity:1; 
stroke-linecap:round; stroke-linejoin:round;fill-rule:evenodd;"
d="M 3.4369,3.8974
3.4559,3.8021
3.5099,3.7212
3.5907,3.6672
3.6861,3.6482
4.5877,3.6482
4.6831,3.6672
4.7639,3.7212
4.8179,3.8021
4.8369,3.8974
4.8369,4.7990
4.8179,4.8944
4.7639,4.9753
4.6831,5.0293
4.5877,5.0482
3.6861,5.0482
3.5907,5.0293
3.5099,4.9753
3.4559,4.8944
3.4369,4.7990
Z" /> 
<circle cx="6.6969" cy="4.3483" r="0.7000" /> 
</g>
<g style="fill:#FFFFFF; fill-opacity:1.0000; 
stroke:#FFFFFF; stroke-width:0.0212; stroke-opacity:1; 
stroke-linecap:round; stroke-linejoin:round;">
</g>
<g >
</g>
<g >
</g>
<g >
</g>
</g>
<g style="fill:#FFFFFF; fill-opacity:1.0000; 
stroke:#FFFFFF; stroke-width:0.0212; stroke-opacity:1; 
stroke-linecap:round; stroke-linejoin:round;">
<g >
</g>
<g style="fill:#FFFFFF; fill-opacity:1.0000; 
stroke:#FFFFFF; stroke-width:0.0000; stroke-opacity:1; 
stroke-linecap:round; stroke-linejoin:round;">
<path style="fill:#FFFFFF; fill-opacity:1.0000; 
stroke:#FFFFFF; stroke-width:0.0000; stroke-opacity:1; 
stroke-linecap:round; stroke-linejoin:round;fill-rule:evenodd;"
d="M 3.4369,3.8974
3.4559,3.8021
3.5099,3.7212
3.5907,3.6672
3.6861,3.6482
4.5877,3.6482
4.6831,3.6672
4.7639,3.7212
4.8179,3.8021
4.8369,3.8974
4.8369,4.7990
4.8179,4.8944
4.7639,4.9753
4.6831,5.0293
4.5877,5.0482
3.6861,5.0482
3.5907,5.0293
3.5099,4.9753
3.4559,4.8944
3.4369,4.7990
Z" /> 
<circle cx="6.6969" cy="4.3483" r="0.7000" /> 
</g>
<g style="fill:#FFFFFF; fill-opacity:1.0000; 
stroke:#FFFFFF; stroke-width:0.0212; stroke-opacity:1; 
stroke-linecap:round; stroke-linejoin:round;">
</g>
<g >
</g>
<g >
</g>
<g >
</g>
</g>
<g style="fill:#FFFFFF; fill-opacity:1.0000; 
stroke:#FFFFFF; stroke-width:0.0212; stroke-opacity:1; 
stroke-linecap:round; stroke-linejoin:round;">
<g >
</g>
<g style="fill:#FFFFFF; fill-opacity:1.0000; 
stroke:#FFFFFF; stroke-width:0.0000; stroke-opacity:1; 
stroke-linecap:round; stroke-linejoin:round;">
<path style="fill:#FFFFFF; fill-opacity:1.0000; 
stroke:#FFFFFF; stroke-width:0.0000; stroke-opacity:1; 
stroke-linecap:round; stroke-linejoin:round;fill-rule:evenodd;"
d="M 3.4369,3.8974
3.4559,3.8021
3.5099,3.7212
3.5907,3.6672
3.6861,3.6482
4.5877,3.6482
4.6831,3.6672
4.7639,3.7212
4.8179,3.8021
4.8369,3.8974
4.8369,4.7990
4.8179,4.8944
4.7639,4.9753
4.6831,5.0293
4.5877,5.0482
3.6861,5.0482
3.5907,5.0293
3.5099,4.9753
3.4559,4.8944
3.4369,4.7990
Z" /> 
<circle cx="6.6969" cy="4.3483" r="0.7000" /> 
</g>
<g style="fill:#FFFFFF; fill-opacity:1.0000; 
stroke:#FFFFFF; stroke-width:0.0212; stroke-opacity:1; 
stroke-linecap:round; stroke-linejoin:round;">
</g>
<g >
</g>
<g >
</g>
<g >
</g>
</g>
<g style="fill:#FFFFFF; fill-opacity:1.0000; 
stroke:#FFFFFF; stroke-width:0.0212; stroke-opacity:1; 
stroke-linecap:round; stroke-linejoin:round;">
<g >
</g>
<g style="fill:#FFFFFF; fill-opacity:1.0000; 
stroke:#FFFFFF; stroke-width:0.0000; stroke-opacity:1; 
stroke-linecap:round; stroke-linejoin:round;">
<path style="fill:#FFFFFF; fill-opacity:1.0000; 
stroke:#FFFFFF; stroke-width:0.0000; stroke-opacity:1; 
stroke-linecap:round; stroke-linejoin:round;fill-rule:evenodd;"
d="M 3.4369,3.8974
3.4559,3.8021
3.5099,3.7212
3.5907,3.6672
3.6861,3.6482
4.5877,3.6482
4.6831,3.6672
4.7639,3.7212
4.8179,3.8021
4.8369,3.8974
4.8369,4.7990
4.8179,4.8944
4.7639,4.9753
4.6831,5.0293
4.5877,5.0482
3.6861,5.0482
3.5907,5.0293
3.5099,4.9753
3.4559,4.8944
3.4369,4.7990
Z" /> 
<circle cx="6.6969" cy="4.3483" r="0.7000" /> 
</g>
<g style="fill:#FFFFFF; fill-opacity:1.0000; 
stroke:#FFFFFF; stroke-width:0.0212; stroke-opacity:1; 
stroke-linecap:round; stroke-linejoin:round;">
</g>
<g >
</g>
<g >
</g>
<g >
</g>
</g>
<g style="fill:#FFFFFF; fill-opacity:1.0000; 
stroke:#FFFFFF; stroke-width:0.0212; stroke-opacity:1; 
stroke-linecap:round; stroke-linejoin:round;">
<g >
</g>
<g style="fill:#FFFFFF; fill-opacity:1.0000; 
stroke:#FFFFFF; stroke-width:0.0000; stroke-opacity:1; 
stroke-linecap:round; stroke-linejoin:round;">
<path style="fill:#FFFFFF; fill-opacity:1.0000; 
stroke:#FFFFFF; stroke-width:0.0000; stroke-opacity:1; 
stroke-linecap:round; stroke-linejoin:round;fill-rule:evenodd;"
d="M 3.4369,3.8974
3.4559,3.8021
3.5099,3.7212
3.5907,3.6672
3.6861,3.6482
4.5877,3.6482
4.6831,3.6672
4.7639,3.7212
4.8179,3.8021
4.8369,3.8974
4.8369,4.7990
4.8179,4.8944
4.7639,4.9753
4.6831,5.0293
4.5877,5.0482
3.6861,5.0482
3.5907,5.0293
3.5099,4.9753
3.4559,4.8944
3.4369,4.7990
Z" /> 
<circle cx="6.6969" cy="4.3483" r="0.7000" /> 
</g>
<g style="fill:#FFFFFF; fill-opacity:1.0000; 
stroke:#FFFFFF; stroke-width:0.0212; stroke-opacity:1; 
stroke-linecap:round; stroke-linejoin:round;">
</g>
<g >
</g>
<g >
</g>
<g >
</g>
</g>
<g style="fill:#FFFFFF; fill-opacity:1.0000; 
stroke:#FFFFFF; stroke-width:0.0212; stroke-opacity:1; 
stroke-linecap:round; stroke-linejoin:round;">
<g >
</g>
<g style="fill:#FFFFFF; fill-opacity:1.0000; 
stroke:#FFFFFF; stroke-width:0.0000; stroke-opacity:1; 
stroke-linecap:round; stroke-linejoin:round;">
<path style="fill:#FFFFFF; fill-opacity:1.0000; 
stroke:#FFFFFF; stroke-width:0.0000; stroke-opacity:1; 
stroke-linecap:round; stroke-linejoin:round;fill-rule:evenodd;"
d="M 3.4369,3.8974
3.4559,3.8021
3.5099,3.7212
3.5907,3.6672
3.6861,3.6482
4.5877,3.6482
4.6831,3.6672
4.7639,3.7212
4.8179,3.8021
4.8369,3.8974
4.8369,4.7990
4.8179,4.8944
4.7639,4.9753
4.6831,5.0293
4.5877,5.0482
3.6861,5.0482
3.5907,5.0293
3.5099,4.9753
3.4559,4.8944
3.4369,4.7990
Z" /> 
<circle cx="6.6969" cy="4.3483" r="0.7000" /> 
</g>
<g style="fill:#FFFFFF; fill-opacity:1.0000; 
stroke:#FFFFFF; stroke-width:0.0212; stroke-opacity:1; 
stroke-linecap:round; stroke-linejoin:round;">
</g>
<g >
</g>
<g >
</g>
<g >
</g>
</g>
<g style="fill:#FFFFFF; fill-opacity:1.0000; 
stroke:#FFFFFF; stroke-width:0.0212; stroke-opacity:1; 
stroke-linecap:round; stroke-linejoin:round;">
<g >
</g>
<g style="fill:#FFFFFF; fill-opacity:1.0000; 
stroke:#FFFFFF; stroke-width:0.0000; stroke-opacity:1; 
stroke-linecap:round; stroke-linejoin:round;">
<path style="fill:#FFFFFF; fill-opacity:1.0000; 
stroke:#FFFFFF; stroke-width:0.0000; stroke-opacity:1; 
stroke-linecap:round; stroke-linejoin:round;fill-rule:evenodd;"
d="M 3.4369,3.8974
3.4559,3.8021
3.5099,3.7212
3.5907,3.6672
3.6861,3.6482
4.5877,3.6482
4.6831,3.6672
4.7639,3.7212
4.8179,3.8021
4.8369,3.8974
4.8369,4.7990
4.8179,4.8944
4.7639,4.9753
4.6831,5.0293
4.5877,5.0482
3.6861,5.0482
3.5907,5.0293
3.5099,4.9753
3.4559,4.8944
3.4369,4.7990
Z" /> 
<circle cx="6.6969" cy="4.3483" r="0.7000" /> 
</g>
<g style="fill:#FFFFFF; fill-opacity:1.0000; 
stroke:#FFFFFF; stroke-width:0.0212; stroke-opacity:1; 
stroke-linecap:round; stroke-linejoin:round;">
</g>
<g >
</g>
<g >
</g>
<g >
</g>
</g>
<g style="fill:#FFFFFF; fill-opacity:1.0000; 
stroke:#FFFFFF; stroke-width:0.0212; stroke-opacity:1; 
stroke-linecap:round; stroke-linejoin:round;">
<g >
</g>
<g style="fill:#FFFFFF; fill-opacity:1.0000; 
stroke:#FFFFFF; stroke-width:0.0000; stroke-opacity:1; 
stroke-linecap:round; stroke-linejoin:round;">
<path style="fill:#FFFFFF; fill-opacity:1.0000; 
stroke:#FFFFFF; stroke-width:0.0000; stroke-opacity:1; 
stroke-linecap:round; stroke-linejoin:round;fill-rule:evenodd;"
d="M 3.4369,3.8974
3.4559,3.8021
3.5099,3.7212
3.5907,3.6672
3.6861,3.6482
4.5877,3.6482
4.6831,3.6672
4.7639,3.7212
4.8179,3.8021
4.8369,3.8974
4.8369,4.7990
4.8179,4.8944
4.7639,4.9753
4.6831,5.0293
4.5877,5.0482
3.6861,5.0482
3.5907,5.0293
3.5099,4.9753
3.4559,4.8944
3.4369,4.7990
Z" /> 
<circle cx="6.6969" cy="4.3483" r="0.7000" /> 
</g>
<g style="fill:#FFFFFF; fill-opacity:1.0000; 
stroke:#FFFFFF; stroke-width:0.0212; stroke-opacity:1; 
stroke-linecap:round; stroke-linejoin:round;">
</g>
<g >
</g>
<g >
</g>
<g >
</g>
</g>
<g style="fill:#FFFFFF; fill-opacity:1.0000; 
stroke:#FFFFFF; stroke-width:0.0212; stroke-opacity:1; 
stroke-linecap:round; stroke-linejoin:round;">
<g >
</g>
<g style="fill:#FFFFFF; fill-opacity:1.0000; 
stroke:#FFFFFF; stroke-width:0.0000; stroke-opacity:1; 
stroke-linecap:round; stroke-linejoin:round;">
<path style="fill:#FFFFFF; fill-opacity:1.0000; 
stroke:#FFFFFF; stroke-width:0.0000; stroke-opacity:1; 
stroke-linecap:round; stroke-linejoin:round;fill-rule:evenodd;"
d="M 3.4369,3.8974
3.4559,3.8021
3.5099,3.7212
3.5907,3.6672
3.6861,3.6482
4.5877,3.6482
4.6831,3.6672
4.7639,3.7212
4.8179,3.8021
4.8369,3.8974
4.8369,4.7990
4.8179,4.8944
4.7639,4.9753
4.6831,5.0293
4.5877,5.0482
3.6861,5.0482
3.5907,5.0293
3.5099,4.9753
3.4559,4.8944
3.4369,4.7990
Z" /> 
<circle cx="6.6969" cy="4.3483" r="0.7000" /> 
</g>
<g style="fill:#FFFFFF; fill-opacity:1.0000; 
stroke:#FFFFFF; stroke-width:0.0212; stroke-opacity:1; 
stroke-linecap:round; stroke-linejoin:round;">
</g>
<g >
</g>
<g >
</g>
<g >
</g>
</g>
<g style="fill:#FFFFFF; fill-opacity:1.0000; 
stroke:#FFFFFF; stroke-width:0.0212; stroke-opacity:1; 
stroke-linecap:round; stroke-linejoin:round;">
<g >
</g>
<g style="fill:#FFFFFF; fill-opacity:1.0000; 
stroke:#FFFFFF; stroke-width:0.0000; stroke-opacity:1; 
stroke-linecap:round; stroke-linejoin:round;">
<path style="fill:#FFFFFF; fill-opacity:1.0000; 
stroke:#FFFFFF; stroke-width:0.0000; stroke-opacity:1; 
stroke-linecap:round; stroke-linejoin:round;fill-rule:evenodd;"
d="M 3.4369,3.8974
3.4559,3.8021
3.5099,3.7212
3.5907,3.6672
3.6861,3.6482
4.5877,3.6482
4.6831,3.6672
4.7639,3.7212
4.8179,3.8021
4.8369,3.8974
4.8369,4.7990
4.8179,4.8944
4.7639,4.9753
4.6831,5.0293
4.5877,5.0482
3.6861,5.0482
3.5907,5.0293
3.5099,4.9753
3.4559,4.8944
3.4369,4.7990
Z" /> 
<circle cx="6.6969" cy="4.3483" r="0.7000" /> 
</g>
<g style="fill:#FFFFFF; fill-opacity:1.0000; 
stroke:#FFFFFF; stroke-width:0.0212; stroke-opacity:1; 
stroke-linecap:round; stroke-linejoin:round;">
</g>
<g >
</g>
<g >
</g>
<g >
</g>
</g>
<g style="fill:#FFFFFF; fill-opacity:1.0000; 
stroke:#FFFFFF; stroke-width:0.0212; stroke-opacity:1; 
stroke-linecap:round; stroke-linejoin:round;">
<g >
</g>
<g style="fill:#FFFFFF; fill-opacity:1.0000; 
stroke:#FFFFFF; stroke-width:0.0000; stroke-opacity:1; 
stroke-linecap:round; stroke-linejoin:round;">
<path style="fill:#FFFFFF; fill-opacity:1.0000; 
stroke:#FFFFFF; stroke-width:0.0000; stroke-opacity:1; 
stroke-linecap:round; stroke-linejoin:round;fill-rule:evenodd;"
d="M 3.4369,3.8974
3.4559,3.8021
3.5099,3.7212
3.5907,3.6672
3.6861,3.6482
4.5877,3.6482
4.6831,3.6672
4.7639,3.7212
4.8179,3.8021
4.8369,3.8974
4.8369,4.7990
4.8179,4.8944
4.7639,4.9753
4.6831,5.0293
4.5877,5.0482
3.6861,5.0482
3.5907,5.0293
3.5099,4.9753
3.4559,4.8944
3.4369,4.7990
Z" /> 
<circle cx="6.6969" cy="4.3483" r="0.7000" /> 
</g>
<g style="fill:#FFFFFF; fill-opacity:1.0000; 
stroke:#FFFFFF; stroke-width:0.0212; stroke-opacity:1; 
stroke-linecap:round; stroke-linejoin:round;">
</g>
<g >
</g>
<g >
</g>
<g >
</g>
</g>
<g style="fill:#FFFFFF; fill-opacity:1.0000; 
stroke:#FFFFFF; stroke-width:0.0212; stroke-opacity:1; 
stroke-linecap:round; stroke-linejoin:round;">
<g >
</g>
<g style="fill:#FFFFFF; fill-opacity:1.0000; 
stroke:#FFFFFF; stroke-width:0.0000; stroke-opacity:1; 
stroke-linecap:round; stroke-linejoin:round;">
<path style="fill:#FFFFFF; fill-opacity:1.0000; 
stroke:#FFFFFF; stroke-width:0.0000; stroke-opacity:1; 
stroke-linecap:round; stroke-linejoin:round;fill-rule:evenodd;"
d="M 3.4369,3.8974
3.4559,3.8021
3.5099,3.7212
3.5907,3.6672
3.6861,3.6482
4.5877,3.6482
4.6831,3.6672
4.7639,3.7212
4.8179,3.8021
4.8369,3.8974
4.8369,4.7990
4.8179,4.8944
4.7639,4.9753
4.6831,5.0293
4.5877,5.0482
3.6861,5.0482
3.5907,5.0293
3.5099,4.9753
3.4559,4.8944
3.4369,4.7990
Z" /> 
<circle cx="6.6969" cy="4.3483" r="0.7000" /> 
</g>
<g style="fill:#FFFFFF; fill-opacity:1.0000; 
stroke:#FFFFFF; stroke-width:0.0212; stroke-opacity:1; 
stroke-linecap:round; stroke-linejoin:round;">
</g>
<g >
</g>
<g >
</g>
<g >
</g>
</g>
<g style="fill:#FFFFFF; fill-opacity:1.0000; 
stroke:#FFFFFF; stroke-width:0.0212; stroke-opacity:1; 
stroke-linecap:round; stroke-linejoin:round;">
<g >
</g>
<g style="fill:#FFFFFF; fill-opacity:1.0000; 
stroke:#FFFFFF; stroke-width:0.0000; stroke-opacity:1; 
stroke-linecap:round; stroke-linejoin:round;">
<path style="fill:#FFFFFF; fill-opacity:1.0000; 
stroke:#FFFFFF; stroke-width:0.0000; stroke-opacity:1; 
stroke-linecap:round; stroke-linejoin:round;fill-rule:evenodd;"
d="M 3.4369,3.8974
3.4559,3.8021
3.5099,3.7212
3.5907,3.6672
3.6861,3.6482
4.5877,3.6482
4.6831,3.6672
4.7639,3.7212
4.8179,3.8021
4.8369,3.8974
4.8369,4.7990
4.8179,4.8944
4.7639,4.9753
4.6831,5.0293
4.5877,5.0482
3.6861,5.0482
3.5907,5.0293
3.5099,4.9753
3.4559,4.8944
3.4369,4.7990
Z" /> 
<circle cx="6.6969" cy="4.3483" r="0.7000" /> 
</g>
<g style="fill:#FFFFFF; fill-opacity:1.0000; 
stroke:#FFFFFF; stroke-width:0.0212; stroke-opacity:1; 
stroke-linecap:round; stroke-linejoin:round;">
</g>
<g >
</g>
<g >
</g>
<g >
</g>
</g>
<g style="fill:#FFFFFF; fill-opacity:1.0000; 
stroke:#FFFFFF; stroke-width:0.0212; stroke-opacity:1; 
stroke-linecap:round; stroke-linejoin:round;">
<g >
</g>
<g style="fill:#FFFFFF; fill-opacity:1.0000; 
stroke:#FFFFFF; stroke-width:0.0000; stroke-opacity:1; 
stroke-linecap:round; stroke-linejoin:round;">
<path style="fill:#FFFFFF; fill-opacity:1.0000; 
stroke:#FFFFFF; stroke-width:0.0000; stroke-opacity:1; 
stroke-linecap:round; stroke-linejoin:round;fill-rule:evenodd;"
d="M 3.4369,3.8974
3.4559,3.8021
3.5099,3.7212
3.5907,3.6672
3.6861,3.6482
4.5877,3.6482
4.6831,3.6672
4.7639,3.7212
4.8179,3.8021
4.8369,3.8974
4.8369,4.7990
4.8179,4.8944
4.7639,4.9753
4.6831,5.0293
4.5877,5.0482
3.6861,5.0482
3.5907,5.0293
3.5099,4.9753
3.4559,4.8944
3.4369,4.7990
Z" /> 
<circle cx="6.6969" cy="4.3483" r="0.7000" /> 
</g>
<g style="fill:#FFFFFF; fill-opacity:1.0000; 
stroke:#FFFFFF; stroke-width:0.0212; stroke-opacity:1; 
stroke-linecap:round; stroke-linejoin:round;">
</g>
<g >
</g>
<g >
</g>
<g >
</g>
</g>
<g style="fill:#FFFFFF; fill-opacity:1.0000; 
stroke:#FFFFFF; stroke-width:0.0212; stroke-opacity:1; 
stroke-linecap:round; stroke-linejoin:round;">
<g >
</g>
<g style="fill:#FFFFFF; fill-opacity:1.0000; 
stroke:#FFFFFF; stroke-width:0.0000; stroke-opacity:1; 
stroke-linecap:round; stroke-linejoin:round;">
<path style="fill:#FFFFFF; fill-opacity:1.0000; 
stroke:#FFFFFF; stroke-width:0.0000; stroke-opacity:1; 
stroke-linecap:round; stroke-linejoin:round;fill-rule:evenodd;"
d="M 3.4369,3.8974
3.4559,3.8021
3.5099,3.7212
3.5907,3.6672
3.6861,3.6482
4.5877,3.6482
4.6831,3.6672
4.7639,3.7212
4.8179,3.8021
4.8369,3.8974
4.8369,4.7990
4.8179,4.8944
4.7639,4.9753
4.6831,5.0293
4.5877,5.0482
3.6861,5.0482
3.5907,5.0293
3.5099,4.9753
3.4559,4.8944
3.4369,4.7990
Z" /> 
<circle cx="6.6969" cy="4.3483" r="0.7000" /> 
</g>
<g style="fill:#FFFFFF; fill-opacity:1.0000; 
stroke:#FFFFFF; stroke-width:0.0212; stroke-opacity:1; 
stroke-linecap:round; stroke-linejoin:round;">
</g>
<g >
</g>
<g >
</g>
<g >
</g>
</g>
<g style="fill:#FFFFFF; fill-opacity:1.0000; 
stroke:#FFFFFF; stroke-width:0.0212; stroke-opacity:1; 
stroke-linecap:round; stroke-linejoin:round;">
<g >
</g>
<g style="fill:#FFFFFF; fill-opacity:1.0000; 
stroke:#FFFFFF; stroke-width:0.0000; stroke-opacity:1; 
stroke-linecap:round; stroke-linejoin:round;">
<path style="fill:#FFFFFF; fill-opacity:1.0000; 
stroke:#FFFFFF; stroke-width:0.0000; stroke-opacity:1; 
stroke-linecap:round; stroke-linejoin:round;fill-rule:evenodd;"
d="M 3.4369,3.8974
3.4559,3.8021
3.5099,3.7212
3.5907,3.6672
3.6861,3.6482
4.5877,3.6482
4.6831,3.6672
4.7639,3.7212
4.8179,3.8021
4.8369,3.8974
4.8369,4.7990
4.8179,4.8944
4.7639,4.9753
4.6831,5.0293
4.5877,5.0482
3.6861,5.0482
3.5907,5.0293
3.5099,4.9753
3.4559,4.8944
3.4369,4.7990
Z" /> 
<circle cx="6.6969" cy="4.3483" r="0.7000" /> 
</g>
<g style="fill:#FFFFFF; fill-opacity:1.0000; 
stroke:#FFFFFF; stroke-width:0.0212; stroke-opacity:1; 
stroke-linecap:round; stroke-linejoin:round;">
</g>
<g >
</g>
<g >
</g>
<g >
</g>
</g>
<g style="fill:#FFFFFF; fill-opacity:1.0000; 
stroke:#FFFFFF; stroke-width:0.0212; stroke-opacity:1; 
stroke-linecap:round; stroke-linejoin:round;">
<g >
</g>
<g style="fill:#FFFFFF; fill-opacity:1.0000; 
stroke:#FFFFFF; stroke-width:0.0000; stroke-opacity:1; 
stroke-linecap:round; stroke-linejoin:round;">
<path style="fill:#FFFFFF; fill-opacity:1.0000; 
stroke:#FFFFFF; stroke-width:0.0000; stroke-opacity:1; 
stroke-linecap:round; stroke-linejoin:round;fill-rule:evenodd;"
d="M 3.4369,3.8974
3.4559,3.8021
3.5099,3.7212
3.5907,3.6672
3.6861,3.6482
4.5877,3.6482
4.6831,3.6672
4.7639,3.7212
4.8179,3.8021
4.8369,3.8974
4.8369,4.7990
4.8179,4.8944
4.7639,4.9753
4.6831,5.0293
4.5877,5.0482
3.6861,5.0482
3.5907,5.0293
3.5099,4.9753
3.4559,4.8944
3.4369,4.7990
Z" /> 
<circle cx="6.6969" cy="4.3483" r="0.7000" /> 
</g>
<g style="fill:#FFFFFF; fill-opacity:1.0000; 
stroke:#FFFFFF; stroke-width:0.0212; stroke-opacity:1; 
stroke-linecap:round; stroke-linejoin:round;">
</g>
<g >
</g>
<g >
</g>
<g >
</g>
</g>
<g style="fill:#FFFFFF; fill-opacity:1.0000; 
stroke:#FFFFFF; stroke-width:0.0212; stroke-opacity:1; 
stroke-linecap:round; stroke-linejoin:round;">
<g >
</g>
<g style="fill:#FFFFFF; fill-opacity:1.0000; 
stroke:#FFFFFF; stroke-width:0.0000; stroke-opacity:1; 
stroke-linecap:round; stroke-linejoin:round;">
<path style="fill:#FFFFFF; fill-opacity:1.0000; 
stroke:#FFFFFF; stroke-width:0.0000; stroke-opacity:1; 
stroke-linecap:round; stroke-linejoin:round;fill-rule:evenodd;"
d="M 3.4369,3.8974
3.4559,3.8021
3.5099,3.7212
3.5907,3.6672
3.6861,3.6482
4.5877,3.6482
4.6831,3.6672
4.7639,3.7212
4.8179,3.8021
4.8369,3.8974
4.8369,4.7990
4.8179,4.8944
4.7639,4.9753
4.6831,5.0293
4.5877,5.0482
3.6861,5.0482
3.5907,5.0293
3.5099,4.9753
3.4559,4.8944
3.4369,4.7990
Z" /> 
<circle cx="6.6969" cy="4.3483" r="0.7000" /> 
</g>
<g style="fill:#FFFFFF; fill-opacity:1.0000; 
stroke:#FFFFFF; stroke-width:0.0212; stroke-opacity:1; 
stroke-linecap:round; stroke-linejoin:round;">
</g>
<g >
</g>
<g >
</g>
<g >
</g>
</g>
<g style="fill:#FFFFFF; fill-opacity:1.0000; 
stroke:#FFFFFF; stroke-width:0.0212; stroke-opacity:1; 
stroke-linecap:round; stroke-linejoin:round;">
<g >
</g>
<g style="fill:#FFFFFF; fill-opacity:1.0000; 
stroke:#FFFFFF; stroke-width:0.0000; stroke-opacity:1; 
stroke-linecap:round; stroke-linejoin:round;">
<path style="fill:#FFFFFF; fill-opacity:1.0000; 
stroke:#FFFFFF; stroke-width:0.0000; stroke-opacity:1; 
stroke-linecap:round; stroke-linejoin:round;fill-rule:evenodd;"
d="M 3.4369,3.8974
3.4559,3.8021
3.5099,3.7212
3.5907,3.6672
3.6861,3.6482
4.5877,3.6482
4.6831,3.6672
4.7639,3.7212
4.8179,3.8021
4.8369,3.8974
4.8369,4.7990
4.8179,4.8944
4.7639,4.9753
4.6831,5.0293
4.5877,5.0482
3.6861,5.0482
3.5907,5.0293
3.5099,4.9753
3.4559,4.8944
3.4369,4.7990
Z" /> 
<circle cx="6.6969" cy="4.3483" r="0.7000" /> 
</g>
<g style="fill:#FFFFFF; fill-opacity:1.0000; 
stroke:#FFFFFF; stroke-width:0.0212; stroke-opacity:1; 
stroke-linecap:round; stroke-linejoin:round;">
</g>
<g >
</g>
<g >
</g>
<g >
</g>
</g>
<g style="fill:#FFFFFF; fill-opacity:1.0000; 
stroke:#FFFFFF; stroke-width:0.0212; stroke-opacity:1; 
stroke-linecap:round; stroke-linejoin:round;">
<g >
</g>
<g style="fill:#FFFFFF; fill-opacity:1.0000; 
stroke:#FFFFFF; stroke-width:0.0000; stroke-opacity:1; 
stroke-linecap:round; stroke-linejoin:round;">
<path style="fill:#FFFFFF; fill-opacity:1.0000; 
stroke:#FFFFFF; stroke-width:0.0000; stroke-opacity:1; 
stroke-linecap:round; stroke-linejoin:round;fill-rule:evenodd;"
d="M 3.4369,3.8974
3.4559,3.8021
3.5099,3.7212
3.5907,3.6672
3.6861,3.6482
4.5877,3.6482
4.6831,3.6672
4.7639,3.7212
4.8179,3.8021
4.8369,3.8974
4.8369,4.7990
4.8179,4.8944
4.7639,4.9753
4.6831,5.0293
4.5877,5.0482
3.6861,5.0482
3.5907,5.0293
3.5099,4.9753
3.4559,4.8944
3.4369,4.7990
Z" /> 
<circle cx="6.6969" cy="4.3483" r="0.7000" /> 
</g>
<g style="fill:#FFFFFF; fill-opacity:1.0000; 
stroke:#FFFFFF; stroke-width:0.0212; stroke-opacity:1; 
stroke-linecap:round; stroke-linejoin:round;">
</g>
<g >
</g>
<g >
</g>
<g >
</g>
</g>
<g style="fill:#FFFFFF; fill-opacity:1.0000; 
stroke:#FFFFFF; stroke-width:0.0212; stroke-opacity:1; 
stroke-linecap:round; stroke-linejoin:round;">
<g >
</g>
<g style="fill:#FFFFFF; fill-opacity:1.0000; 
stroke:#FFFFFF; stroke-width:0.0000; stroke-opacity:1; 
stroke-linecap:round; stroke-linejoin:round;">
<path style="fill:#FFFFFF; fill-opacity:1.0000; 
stroke:#FFFFFF; stroke-width:0.0000; stroke-opacity:1; 
stroke-linecap:round; stroke-linejoin:round;fill-rule:evenodd;"
d="M 3.4369,3.8974
3.4559,3.8021
3.5099,3.7212
3.5907,3.6672
3.6861,3.6482
4.5877,3.6482
4.6831,3.6672
4.7639,3.7212
4.8179,3.8021
4.8369,3.8974
4.8369,4.7990
4.8179,4.8944
4.7639,4.9753
4.6831,5.0293
4.5877,5.0482
3.6861,5.0482
3.5907,5.0293
3.5099,4.9753
3.4559,4.8944
3.4369,4.7990
Z" /> 
<circle cx="6.6969" cy="4.3483" r="0.7000" /> 
</g>
<g style="fill:#FFFFFF; fill-opacity:1.0000; 
stroke:#FFFFFF; stroke-width:0.0212; stroke-opacity:1; 
stroke-linecap:round; stroke-linejoin:round;">
</g>
<g >
</g>
<g >
</g>
<g >
</g>
</g>
<g style="fill:#FFFFFF; fill-opacity:1.0000; 
stroke:#FFFFFF; stroke-width:0.0212; stroke-opacity:1; 
stroke-linecap:round; stroke-linejoin:round;">
<g >
</g>
<g style="fill:#FFFFFF; fill-opacity:1.0000; 
stroke:#FFFFFF; stroke-width:0.0000; stroke-opacity:1; 
stroke-linecap:round; stroke-linejoin:round;">
<path style="fill:#FFFFFF; fill-opacity:1.0000; 
stroke:#FFFFFF; stroke-width:0.0000; stroke-opacity:1; 
stroke-linecap:round; stroke-linejoin:round;fill-rule:evenodd;"
d="M 3.4369,3.8974
3.4559,3.8021
3.5099,3.7212
3.5907,3.6672
3.6861,3.6482
4.5877,3.6482
4.6831,3.6672
4.7639,3.7212
4.8179,3.8021
4.8369,3.8974
4.8369,4.7990
4.8179,4.8944
4.7639,4.9753
4.6831,5.0293
4.5877,5.0482
3.6861,5.0482
3.5907,5.0293
3.5099,4.9753
3.4559,4.8944
3.4369,4.7990
Z" /> 
<circle cx="6.6969" cy="4.3483" r="0.7000" /> 
</g>
<g style="fill:#FFFFFF; fill-opacity:1.0000; 
stroke:#FFFFFF; stroke-width:0.0212; stroke-opacity:1; 
stroke-linecap:round; stroke-linejoin:round;">
</g>
<g >
</g>
<g >
</g>
<g >
</g>
</g>
<g style="fill:#FFFFFF; fill-opacity:1.0000; 
stroke:#FFFFFF; stroke-width:0.0212; stroke-opacity:1; 
stroke-linecap:round; stroke-linejoin:round;">
<g >
</g>
<g style="fill:#FFFFFF; fill-opacity:1.0000; 
stroke:#FFFFFF; stroke-width:0.0000; stroke-opacity:1; 
stroke-linecap:round; stroke-linejoin:round;">
<path style="fill:#FFFFFF; fill-opacity:1.0000; 
stroke:#FFFFFF; stroke-width:0.0000; stroke-opacity:1; 
stroke-linecap:round; stroke-linejoin:round;fill-rule:evenodd;"
d="M 3.4369,3.8974
3.4559,3.8021
3.5099,3.7212
3.5907,3.6672
3.6861,3.6482
4.5877,3.6482
4.6831,3.6672
4.7639,3.7212
4.8179,3.8021
4.8369,3.8974
4.8369,4.7990
4.8179,4.8944
4.7639,4.9753
4.6831,5.0293
4.5877,5.0482
3.6861,5.0482
3.5907,5.0293
3.5099,4.9753
3.4559,4.8944
3.4369,4.7990
Z" /> 
<circle cx="6.6969" cy="4.3483" r="0.7000" /> 
</g>
<g style="fill:#FFFFFF; fill-opacity:1.0000; 
stroke:#FFFFFF; stroke-width:0.0212; stroke-opacity:1; 
stroke-linecap:round; stroke-linejoin:round;">
</g>
<g >
</g>
<g >
</g>
<g >
</g>
</g>
<g style="fill:#FFFFFF; fill-opacity:1.0000; 
stroke:#FFFFFF; stroke-width:0.0212; stroke-opacity:1; 
stroke-linecap:round; stroke-linejoin:round;">
<g >
</g>
<g style="fill:#FFFFFF; fill-opacity:1.0000; 
stroke:#FFFFFF; stroke-width:0.0000; stroke-opacity:1; 
stroke-linecap:round; stroke-linejoin:round;">
<path style="fill:#FFFFFF; fill-opacity:1.0000; 
stroke:#FFFFFF; stroke-width:0.0000; stroke-opacity:1; 
stroke-linecap:round; stroke-linejoin:round;fill-rule:evenodd;"
d="M 3.4369,3.8974
3.4559,3.8021
3.5099,3.7212
3.5907,3.6672
3.6861,3.6482
4.5877,3.6482
4.6831,3.6672
4.7639,3.7212
4.8179,3.8021
4.8369,3.8974
4.8369,4.7990
4.8179,4.8944
4.7639,4.9753
4.6831,5.0293
4.5877,5.0482
3.6861,5.0482
3.5907,5.0293
3.5099,4.9753
3.4559,4.8944
3.4369,4.7990
Z" /> 
<circle cx="6.6969" cy="4.3483" r="0.7000" /> 
</g>
<g style="fill:#FFFFFF; fill-opacity:1.0000; 
stroke:#FFFFFF; stroke-width:0.0212; stroke-opacity:1; 
stroke-linecap:round; stroke-linejoin:round;">
</g>
<g >
</g>
<g >
</g>
<g >
</g>
</g>
<g style="fill:#FFFFFF; fill-opacity:1.0000; 
stroke:#FFFFFF; stroke-width:0.0212; stroke-opacity:1; 
stroke-linecap:round; stroke-linejoin:round;">
<g >
</g>
<g style="fill:#FFFFFF; fill-opacity:1.0000; 
stroke:#FFFFFF; stroke-width:0.0000; stroke-opacity:1; 
stroke-linecap:round; stroke-linejoin:round;">
<path style="fill:#FFFFFF; fill-opacity:1.0000; 
stroke:#FFFFFF; stroke-width:0.0000; stroke-opacity:1; 
stroke-linecap:round; stroke-linejoin:round;fill-rule:evenodd;"
d="M 3.4369,3.8974
3.4559,3.8021
3.5099,3.7212
3.5907,3.6672
3.6861,3.6482
4.5877,3.6482
4.6831,3.6672
4.7639,3.7212
4.8179,3.8021
4.8369,3.8974
4.8369,4.7990
4.8179,4.8944
4.7639,4.9753
4.6831,5.0293
4.5877,5.0482
3.6861,5.0482
3.5907,5.0293
3.5099,4.9753
3.4559,4.8944
3.4369,4.7990
Z" /> 
<circle cx="6.6969" cy="4.3483" r="0.7000" /> 
</g>
<g style="fill:#FFFFFF; fill-opacity:1.0000; 
stroke:#FFFFFF; stroke-width:0.0212; stroke-opacity:1; 
stroke-linecap:round; stroke-linejoin:round;">
</g>
<g >
</g>
<g >
</g>
<g >
</g>
</g>
<g style="fill:#FFFFFF; fill-opacity:1.0000; 
stroke:#FFFFFF; stroke-width:0.0212; stroke-opacity:1; 
stroke-linecap:round; stroke-linejoin:round;">
<g >
</g>
<g style="fill:#FFFFFF; fill-opacity:1.0000; 
stroke:#FFFFFF; stroke-width:0.0000; stroke-opacity:1; 
stroke-linecap:round; stroke-linejoin:round;">
<path style="fill:#FFFFFF; fill-opacity:1.0000; 
stroke:#FFFFFF; stroke-width:0.0000; stroke-opacity:1; 
stroke-linecap:round; stroke-linejoin:round;fill-rule:evenodd;"
d="M 3.4369,3.8974
3.4559,3.8021
3.5099,3.7212
3.5907,3.6672
3.6861,3.6482
4.5877,3.6482
4.6831,3.6672
4.7639,3.7212
4.8179,3.8021
4.8369,3.8974
4.8369,4.7990
4.8179,4.8944
4.7639,4.9753
4.6831,5.0293
4.5877,5.0482
3.6861,5.0482
3.5907,5.0293
3.5099,4.9753
3.4559,4.8944
3.4369,4.7990
Z" /> 
<circle cx="6.6969" cy="4.3483" r="0.7000" /> 
</g>
<g style="fill:#FFFFFF; fill-opacity:1.0000; 
stroke:#FFFFFF; stroke-width:0.0212; stroke-opacity:1; 
stroke-linecap:round; stroke-linejoin:round;">
</g>
<g >
</g>
<g >
</g>
<g >
</g>
</g>
<g style="fill:#FFFFFF; fill-opacity:1.0000; 
stroke:#FFFFFF; stroke-width:0.0212; stroke-opacity:1; 
stroke-linecap:round; stroke-linejoin:round;">
<g >
</g>
<g style="fill:#FFFFFF; fill-opacity:1.0000; 
stroke:#FFFFFF; stroke-width:0.0000; stroke-opacity:1; 
stroke-linecap:round; stroke-linejoin:round;">
<path style="fill:#FFFFFF; fill-opacity:1.0000; 
stroke:#FFFFFF; stroke-width:0.0000; stroke-opacity:1; 
stroke-linecap:round; stroke-linejoin:round;fill-rule:evenodd;"
d="M 3.4369,3.8974
3.4559,3.8021
3.5099,3.7212
3.5907,3.6672
3.6861,3.6482
4.5877,3.6482
4.6831,3.6672
4.7639,3.7212
4.8179,3.8021
4.8369,3.8974
4.8369,4.7990
4.8179,4.8944
4.7639,4.9753
4.6831,5.0293
4.5877,5.0482
3.6861,5.0482
3.5907,5.0293
3.5099,4.9753
3.4559,4.8944
3.4369,4.7990
Z" /> 
<circle cx="6.6969" cy="4.3483" r="0.7000" /> 
</g>
<g style="fill:#FFFFFF; fill-opacity:1.0000; 
stroke:#FFFFFF; stroke-width:0.0212; stroke-opacity:1; 
stroke-linecap:round; stroke-linejoin:round;">
</g>
<g >
</g>
<g >
</g>
<g >
</g>
</g>
<g style="fill:#FFFFFF; fill-opacity:1.0000; 
stroke:#FFFFFF; stroke-width:0.0212; stroke-opacity:1; 
stroke-linecap:round; stroke-linejoin:round;">
<g >
</g>
<g style="fill:#FFFFFF; fill-opacity:1.0000; 
stroke:#FFFFFF; stroke-width:0.0000; stroke-opacity:1; 
stroke-linecap:round; stroke-linejoin:round;">
<path style="fill:#FFFFFF; fill-opacity:1.0000; 
stroke:#FFFFFF; stroke-width:0.0000; stroke-opacity:1; 
stroke-linecap:round; stroke-linejoin:round;fill-rule:evenodd;"
d="M 3.4369,3.8974
3.4559,3.8021
3.5099,3.7212
3.5907,3.6672
3.6861,3.6482
4.5877,3.6482
4.6831,3.6672
4.7639,3.7212
4.8179,3.8021
4.8369,3.8974
4.8369,4.7990
4.8179,4.8944
4.7639,4.9753
4.6831,5.0293
4.5877,5.0482
3.6861,5.0482
3.5907,5.0293
3.5099,4.9753
3.4559,4.8944
3.4369,4.7990
Z" /> 
<circle cx="6.6969" cy="4.3483" r="0.7000" /> 
</g>
<g style="fill:#FFFFFF; fill-opacity:1.0000; 
stroke:#FFFFFF; stroke-width:0.0212; stroke-opacity:1; 
stroke-linecap:round; stroke-linejoin:round;">
</g>
<g >
</g>
<g >
</g>
<g >
</g>
</g>
<g style="fill:#FFFFFF; fill-opacity:1.0000; 
stroke:#FFFFFF; stroke-width:0.0212; stroke-opacity:1; 
stroke-linecap:round; stroke-linejoin:round;">
<g >
</g>
<g style="fill:#FFFFFF; fill-opacity:1.0000; 
stroke:#FFFFFF; stroke-width:0.0000; stroke-opacity:1; 
stroke-linecap:round; stroke-linejoin:round;">
<path style="fill:#FFFFFF; fill-opacity:1.0000; 
stroke:#FFFFFF; stroke-width:0.0000; stroke-opacity:1; 
stroke-linecap:round; stroke-linejoin:round;fill-rule:evenodd;"
d="M 3.4369,3.8974
3.4559,3.8021
3.5099,3.7212
3.5907,3.6672
3.6861,3.6482
4.5877,3.6482
4.6831,3.6672
4.7639,3.7212
4.8179,3.8021
4.8369,3.8974
4.8369,4.7990
4.8179,4.8944
4.7639,4.9753
4.6831,5.0293
4.5877,5.0482
3.6861,5.0482
3.5907,5.0293
3.5099,4.9753
3.4559,4.8944
3.4369,4.7990
Z" /> 
<circle cx="6.6969" cy="4.3483" r="0.7000" /> 
</g>
<g style="fill:#FFFFFF; fill-opacity:1.0000; 
stroke:#FFFFFF; stroke-width:0.0212; stroke-opacity:1; 
stroke-linecap:round; stroke-linejoin:round;">
</g>
<g >
</g>
<g >
</g>
<g >
</g>
</g>
<g style="fill:#FFFFFF; fill-opacity:1.0000; 
stroke:#FFFFFF; stroke-width:0.0212; stroke-opacity:1; 
stroke-linecap:round; stroke-linejoin:round;">
<g >
</g>
<g style="fill:#FFFFFF; fill-opacity:1.0000; 
stroke:#FFFFFF; stroke-width:0.0000; stroke-opacity:1; 
stroke-linecap:round; stroke-linejoin:round;">
<path style="fill:#FFFFFF; fill-opacity:1.0000; 
stroke:#FFFFFF; stroke-width:0.0000; stroke-opacity:1; 
stroke-linecap:round; stroke-linejoin:round;fill-rule:evenodd;"
d="M 3.4369,3.8974
3.4559,3.8021
3.5099,3.7212
3.5907,3.6672
3.6861,3.6482
4.5877,3.6482
4.6831,3.6672
4.7639,3.7212
4.8179,3.8021
4.8369,3.8974
4.8369,4.7990
4.8179,4.8944
4.7639,4.9753
4.6831,5.0293
4.5877,5.0482
3.6861,5.0482
3.5907,5.0293
3.5099,4.9753
3.4559,4.8944
3.4369,4.7990
Z" /> 
<circle cx="6.6969" cy="4.3483" r="0.7000" /> 
</g>
<g style="fill:#FFFFFF; fill-opacity:1.0000; 
stroke:#FFFFFF; stroke-width:0.0212; stroke-opacity:1; 
stroke-linecap:round; stroke-linejoin:round;">
</g>
<g >
</g>
<g >
</g>
<g >
</g>
</g>
<g style="fill:#FFFFFF; fill-opacity:1.0000; 
stroke:#FFFFFF; stroke-width:0.0212; stroke-opacity:1; 
stroke-linecap:round; stroke-linejoin:round;">
<g >
</g>
<g style="fill:#FFFFFF; fill-opacity:1.0000; 
stroke:#FFFFFF; stroke-width:0.0000; stroke-opacity:1; 
stroke-linecap:round; stroke-linejoin:round;">
<path style="fill:#FFFFFF; fill-opacity:1.0000; 
stroke:#FFFFFF; stroke-width:0.0000; stroke-opacity:1; 
stroke-linecap:round; stroke-linejoin:round;fill-rule:evenodd;"
d="M 3.4369,3.8974
3.4559,3.8021
3.5099,3.7212
3.5907,3.6672
3.6861,3.6482
4.5877,3.6482
4.6831,3.6672
4.7639,3.7212
4.8179,3.8021
4.8369,3.8974
4.8369,4.7990
4.8179,4.8944
4.7639,4.9753
4.6831,5.0293
4.5877,5.0482
3.6861,5.0482
3.5907,5.0293
3.5099,4.9753
3.4559,4.8944
3.4369,4.7990
Z" /> 
<circle cx="6.6969" cy="4.3483" r="0.7000" /> 
</g>
<g style="fill:#FFFFFF; fill-opacity:1.0000; 
stroke:#FFFFFF; stroke-width:0.0212; stroke-opacity:1; 
stroke-linecap:round; stroke-linejoin:round;">
</g>
<g >
</g>
<g >
</g>
<g >
</g>
</g>
<g style="fill:#FFFFFF; fill-opacity:1.0000; 
stroke:#FFFFFF; stroke-width:0.0212; stroke-opacity:1; 
stroke-linecap:round; stroke-linejoin:round;">
<g >
</g>
<g >
</g>
<g >
</g>
<g >
</g>
</g>
<g style="fill:#FFFFFF; fill-opacity:1.0000; 
stroke:#FFFFFF; stroke-width:0.0212; stroke-opacity:1; 
stroke-linecap:round; stroke-linejoin:round;">
</g>
<g style="fill:#FFFFFF; fill-opacity:1.0000; 
stroke:#FFFFFF; stroke-width:0.1500; stroke-opacity:1; 
stroke-linecap:round; stroke-linejoin:round;">
</g>
<g style="fill:#FFFFFF; fill-opacity:0.0; 
stroke:#FFFFFF; stroke-width:0.1500; stroke-opacity:1; 
stroke-linecap:round; stroke-linejoin:round;">
<text x="5.4069" y="7.3882"
textLength="4.5357" font-size="1.3333" lengthAdjust="spacingAndGlyphs"
text-anchor="middle" opacity="0">REF**</text>
<g class="stroked-text"><desc>REF**</desc>
<path d="M4.0736 7.3431
L3.7402 6.8669
" />
<path d="M3.5021 7.3431
L3.5021 6.3431
" />
<path d="M3.5021 6.3431
L3.8831 6.3431
" />
<path d="M3.8831 6.3431
L3.9783 6.3907
" />
<path d="M3.9783 6.3907
L4.0260 6.4383
" />
<path d="M4.0260 6.4383
L4.0736 6.5335
" />
<path d="M4.0736 6.5335
L4.0736 6.6764
" />
<path d="M4.0736 6.6764
L4.0260 6.7716
" />
<path d="M4.0260 6.7716
L3.9783 6.8193
" />
<path d="M3.9783 6.8193
L3.8831 6.8669
" />
<path d="M3.8831 6.8669
L3.5021 6.8669
" />
<path d="M4.5021 6.8193
L4.8355 6.8193
" />
<path d="M4.9783 7.3431
L4.5021 7.3431
" />
<path d="M4.5021 7.3431
L4.5021 6.3431
" />
<path d="M4.5021 6.3431
L4.9783 6.3431
" />
<path d="M5.7402 6.8193
L5.4069 6.8193
" />
<path d="M5.4069 7.3431
L5.4069 6.3431
" />
<path d="M5.4069 6.3431
L5.8831 6.3431
" />
<path d="M6.4069 6.3431
L6.4069 6.5812
" />
<path d="M6.1688 6.4859
L6.4069 6.5812
" />
<path d="M6.4069 6.5812
L6.6450 6.4859
" />
<path d="M6.2640 6.7716
L6.4069 6.5812
" />
<path d="M6.4069 6.5812
L6.5498 6.7716
" />
<path d="M7.1688 6.3431
L7.1688 6.5812
" />
<path d="M6.9307 6.4859
L7.1688 6.5812
" />
<path d="M7.1688 6.5812
L7.4069 6.4859
" />
<path d="M7.0260 6.7716
L7.1688 6.5812
" />
<path d="M7.1688 6.5812
L7.3117 6.7716
" />
</g></g>
<g style="fill:#FFFFFF; fill-opacity:0.0; 
stroke:#FFFFFF; stroke-width:0.1200; stroke-opacity:1; 
stroke-linecap:round; stroke-linejoin:round;">
<path d="M2.8769 1.7882
L2.8769 4.3483
" />
<path d="M7.9469 4.9582
L7.0469 5.8582
" />
<path d="M4.1369 5.8582
L7.0469 5.8582
" />
<path d="M7.9469 1.7882
L7.9469 4.9582
" />
<path d="M2.8769 1.7882
L7.9469 1.7882
" />
<g >
</g>
<g >
</g>
<g >
</g>
<g >
</g>
</g> 
</svg>
