<?xml version="1.0" standalone="no"?>
 <!DOCTYPE svg PUBLIC "-//W3C//DTD SVG 1.1//EN" 
 "http://www.w3.org/Graphics/SVG/1.1/DTD/svg11.dtd"> 
<svg
  xmlns:svg="http://www.w3.org/2000/svg"
  xmlns="http://www.w3.org/2000/svg"
  xmlns:xlink="http://www.w3.org/1999/xlink"
  version="1.1"
  width="16.9926mm" height="8.6868mm" viewBox="0.0000 0.0000 16.9926 8.6868">
<title>SVG Image created as Vishay_MINICAST-3Pin.svg date 2024/01/16 15:07:03 </title>
  <desc>Image generated by PCBNEW </desc>
<g style="fill:#000000; fill-opacity:1.0000;stroke:#000000; stroke-opacity:1.0000;
stroke-linecap:round; stroke-linejoin:round;"
 transform="translate(0 0) scale(1 1)">
</g>
<g style="fill:#000000; fill-opacity:0.0; 
stroke:#000000; stroke-width:0.0000; stroke-opacity:1; 
stroke-linecap:round; stroke-linejoin:round;">
</g>
<g style="fill:#000000; fill-opacity:1.0000; 
stroke:#000000; stroke-width:0.0212; stroke-opacity:1; 
stroke-linecap:round; stroke-linejoin:round;">
<rect x="-5.000000" y="-5.000000" width="27.011904" height="18.696500" rx="0.000000" />
</g>
<g style="fill:#FFFFFF; fill-opacity:1.0000; 
stroke:#FFFFFF; stroke-width:0.0212; stroke-opacity:1; 
stroke-linecap:round; stroke-linejoin:round;">
<g >
</g>
<g >
</g>
<g >
</g>
<g >
</g>
</g>
<g style="fill:#FFFFFF; fill-opacity:1.0000; 
stroke:#FFFFFF; stroke-width:0.0212; stroke-opacity:1; 
stroke-linecap:round; stroke-linejoin:round;">
<g >
</g>
<g >
</g>
<g >
</g>
<g >
</g>
</g>
<g style="fill:#FFFFFF; fill-opacity:1.0000; 
stroke:#FFFFFF; stroke-width:0.0212; stroke-opacity:1; 
stroke-linecap:round; stroke-linejoin:round;">
<g >
</g>
<g style="fill:#FFFFFF; fill-opacity:1.0000; 
stroke:#FFFFFF; stroke-width:0.0000; stroke-opacity:1; 
stroke-linecap:round; stroke-linejoin:round;">
<path style="fill:#FFFFFF; fill-opacity:1.0000; 
stroke:#FFFFFF; stroke-width:0.0000; stroke-opacity:1; 
stroke-linecap:round; stroke-linejoin:round;fill-rule:evenodd;"
d="M 5.0560,2.5984
5.0750,2.5027
5.1292,2.4215
5.2104,2.3673
5.3062,2.3482
6.6058,2.3482
6.7015,2.3673
6.7827,2.4215
6.8369,2.5027
6.8560,2.5984
6.8560,3.8981
6.8369,3.9938
6.7827,4.0750
6.7015,4.1292
6.6058,4.1482
5.3062,4.1482
5.2104,4.1292
5.1292,4.0750
5.0750,3.9938
5.0560,3.8981
Z" /> 
<circle cx="8.4960" cy="3.2482" r="0.9000" /> 
</g>
<g style="fill:#FFFFFF; fill-opacity:1.0000; 
stroke:#FFFFFF; stroke-width:0.0212; stroke-opacity:1; 
stroke-linecap:round; stroke-linejoin:round;">
</g>
<g style="fill:#FFFFFF; fill-opacity:1.0000; 
stroke:#FFFFFF; stroke-width:0.0000; stroke-opacity:1; 
stroke-linecap:round; stroke-linejoin:round;">
<circle cx="11.0360" cy="3.2482" r="0.9000" /> 
</g>
<g style="fill:#FFFFFF; fill-opacity:1.0000; 
stroke:#FFFFFF; stroke-width:0.0212; stroke-opacity:1; 
stroke-linecap:round; stroke-linejoin:round;">
</g>
<g >
</g>
<g >
</g>
<g >
</g>
</g>
<g style="fill:#FFFFFF; fill-opacity:1.0000; 
stroke:#FFFFFF; stroke-width:0.0212; stroke-opacity:1; 
stroke-linecap:round; stroke-linejoin:round;">
<g >
</g>
<g style="fill:#FFFFFF; fill-opacity:1.0000; 
stroke:#FFFFFF; stroke-width:0.0000; stroke-opacity:1; 
stroke-linecap:round; stroke-linejoin:round;">
<path style="fill:#FFFFFF; fill-opacity:1.0000; 
stroke:#FFFFFF; stroke-width:0.0000; stroke-opacity:1; 
stroke-linecap:round; stroke-linejoin:round;fill-rule:evenodd;"
d="M 5.0560,2.5984
5.0750,2.5027
5.1292,2.4215
5.2104,2.3673
5.3062,2.3482
6.6058,2.3482
6.7015,2.3673
6.7827,2.4215
6.8369,2.5027
6.8560,2.5984
6.8560,3.8981
6.8369,3.9938
6.7827,4.0750
6.7015,4.1292
6.6058,4.1482
5.3062,4.1482
5.2104,4.1292
5.1292,4.0750
5.0750,3.9938
5.0560,3.8981
Z" /> 
<circle cx="8.4960" cy="3.2482" r="0.9000" /> 
</g>
<g style="fill:#FFFFFF; fill-opacity:1.0000; 
stroke:#FFFFFF; stroke-width:0.0212; stroke-opacity:1; 
stroke-linecap:round; stroke-linejoin:round;">
</g>
<g style="fill:#FFFFFF; fill-opacity:1.0000; 
stroke:#FFFFFF; stroke-width:0.0000; stroke-opacity:1; 
stroke-linecap:round; stroke-linejoin:round;">
<circle cx="11.0360" cy="3.2482" r="0.9000" /> 
</g>
<g style="fill:#FFFFFF; fill-opacity:1.0000; 
stroke:#FFFFFF; stroke-width:0.0212; stroke-opacity:1; 
stroke-linecap:round; stroke-linejoin:round;">
</g>
<g >
</g>
<g >
</g>
<g >
</g>
</g>
<g style="fill:#FFFFFF; fill-opacity:1.0000; 
stroke:#FFFFFF; stroke-width:0.0212; stroke-opacity:1; 
stroke-linecap:round; stroke-linejoin:round;">
<g >
</g>
<g style="fill:#FFFFFF; fill-opacity:1.0000; 
stroke:#FFFFFF; stroke-width:0.0000; stroke-opacity:1; 
stroke-linecap:round; stroke-linejoin:round;">
<path style="fill:#FFFFFF; fill-opacity:1.0000; 
stroke:#FFFFFF; stroke-width:0.0000; stroke-opacity:1; 
stroke-linecap:round; stroke-linejoin:round;fill-rule:evenodd;"
d="M 5.0560,2.5984
5.0750,2.5027
5.1292,2.4215
5.2104,2.3673
5.3062,2.3482
6.6058,2.3482
6.7015,2.3673
6.7827,2.4215
6.8369,2.5027
6.8560,2.5984
6.8560,3.8981
6.8369,3.9938
6.7827,4.0750
6.7015,4.1292
6.6058,4.1482
5.3062,4.1482
5.2104,4.1292
5.1292,4.0750
5.0750,3.9938
5.0560,3.8981
Z" /> 
<circle cx="8.4960" cy="3.2482" r="0.9000" /> 
</g>
<g style="fill:#FFFFFF; fill-opacity:1.0000; 
stroke:#FFFFFF; stroke-width:0.0212; stroke-opacity:1; 
stroke-linecap:round; stroke-linejoin:round;">
</g>
<g style="fill:#FFFFFF; fill-opacity:1.0000; 
stroke:#FFFFFF; stroke-width:0.0000; stroke-opacity:1; 
stroke-linecap:round; stroke-linejoin:round;">
<circle cx="11.0360" cy="3.2482" r="0.9000" /> 
</g>
<g style="fill:#FFFFFF; fill-opacity:1.0000; 
stroke:#FFFFFF; stroke-width:0.0212; stroke-opacity:1; 
stroke-linecap:round; stroke-linejoin:round;">
</g>
<g >
</g>
<g >
</g>
<g >
</g>
</g>
<g style="fill:#FFFFFF; fill-opacity:1.0000; 
stroke:#FFFFFF; stroke-width:0.0212; stroke-opacity:1; 
stroke-linecap:round; stroke-linejoin:round;">
<g >
</g>
<g style="fill:#FFFFFF; fill-opacity:1.0000; 
stroke:#FFFFFF; stroke-width:0.0000; stroke-opacity:1; 
stroke-linecap:round; stroke-linejoin:round;">
<path style="fill:#FFFFFF; fill-opacity:1.0000; 
stroke:#FFFFFF; stroke-width:0.0000; stroke-opacity:1; 
stroke-linecap:round; stroke-linejoin:round;fill-rule:evenodd;"
d="M 5.0560,2.5984
5.0750,2.5027
5.1292,2.4215
5.2104,2.3673
5.3062,2.3482
6.6058,2.3482
6.7015,2.3673
6.7827,2.4215
6.8369,2.5027
6.8560,2.5984
6.8560,3.8981
6.8369,3.9938
6.7827,4.0750
6.7015,4.1292
6.6058,4.1482
5.3062,4.1482
5.2104,4.1292
5.1292,4.0750
5.0750,3.9938
5.0560,3.8981
Z" /> 
<circle cx="8.4960" cy="3.2482" r="0.9000" /> 
</g>
<g style="fill:#FFFFFF; fill-opacity:1.0000; 
stroke:#FFFFFF; stroke-width:0.0212; stroke-opacity:1; 
stroke-linecap:round; stroke-linejoin:round;">
</g>
<g style="fill:#FFFFFF; fill-opacity:1.0000; 
stroke:#FFFFFF; stroke-width:0.0000; stroke-opacity:1; 
stroke-linecap:round; stroke-linejoin:round;">
<circle cx="11.0360" cy="3.2482" r="0.9000" /> 
</g>
<g style="fill:#FFFFFF; fill-opacity:1.0000; 
stroke:#FFFFFF; stroke-width:0.0212; stroke-opacity:1; 
stroke-linecap:round; stroke-linejoin:round;">
</g>
<g >
</g>
<g >
</g>
<g >
</g>
</g>
<g style="fill:#FFFFFF; fill-opacity:1.0000; 
stroke:#FFFFFF; stroke-width:0.0212; stroke-opacity:1; 
stroke-linecap:round; stroke-linejoin:round;">
<g >
</g>
<g style="fill:#FFFFFF; fill-opacity:1.0000; 
stroke:#FFFFFF; stroke-width:0.0000; stroke-opacity:1; 
stroke-linecap:round; stroke-linejoin:round;">
<path style="fill:#FFFFFF; fill-opacity:1.0000; 
stroke:#FFFFFF; stroke-width:0.0000; stroke-opacity:1; 
stroke-linecap:round; stroke-linejoin:round;fill-rule:evenodd;"
d="M 5.0560,2.5984
5.0750,2.5027
5.1292,2.4215
5.2104,2.3673
5.3062,2.3482
6.6058,2.3482
6.7015,2.3673
6.7827,2.4215
6.8369,2.5027
6.8560,2.5984
6.8560,3.8981
6.8369,3.9938
6.7827,4.0750
6.7015,4.1292
6.6058,4.1482
5.3062,4.1482
5.2104,4.1292
5.1292,4.0750
5.0750,3.9938
5.0560,3.8981
Z" /> 
<circle cx="8.4960" cy="3.2482" r="0.9000" /> 
</g>
<g style="fill:#FFFFFF; fill-opacity:1.0000; 
stroke:#FFFFFF; stroke-width:0.0212; stroke-opacity:1; 
stroke-linecap:round; stroke-linejoin:round;">
</g>
<g style="fill:#FFFFFF; fill-opacity:1.0000; 
stroke:#FFFFFF; stroke-width:0.0000; stroke-opacity:1; 
stroke-linecap:round; stroke-linejoin:round;">
<circle cx="11.0360" cy="3.2482" r="0.9000" /> 
</g>
<g style="fill:#FFFFFF; fill-opacity:1.0000; 
stroke:#FFFFFF; stroke-width:0.0212; stroke-opacity:1; 
stroke-linecap:round; stroke-linejoin:round;">
</g>
<g >
</g>
<g >
</g>
<g >
</g>
</g>
<g style="fill:#FFFFFF; fill-opacity:1.0000; 
stroke:#FFFFFF; stroke-width:0.0212; stroke-opacity:1; 
stroke-linecap:round; stroke-linejoin:round;">
<g >
</g>
<g style="fill:#FFFFFF; fill-opacity:1.0000; 
stroke:#FFFFFF; stroke-width:0.0000; stroke-opacity:1; 
stroke-linecap:round; stroke-linejoin:round;">
<path style="fill:#FFFFFF; fill-opacity:1.0000; 
stroke:#FFFFFF; stroke-width:0.0000; stroke-opacity:1; 
stroke-linecap:round; stroke-linejoin:round;fill-rule:evenodd;"
d="M 5.0560,2.5984
5.0750,2.5027
5.1292,2.4215
5.2104,2.3673
5.3062,2.3482
6.6058,2.3482
6.7015,2.3673
6.7827,2.4215
6.8369,2.5027
6.8560,2.5984
6.8560,3.8981
6.8369,3.9938
6.7827,4.0750
6.7015,4.1292
6.6058,4.1482
5.3062,4.1482
5.2104,4.1292
5.1292,4.0750
5.0750,3.9938
5.0560,3.8981
Z" /> 
<circle cx="8.4960" cy="3.2482" r="0.9000" /> 
</g>
<g style="fill:#FFFFFF; fill-opacity:1.0000; 
stroke:#FFFFFF; stroke-width:0.0212; stroke-opacity:1; 
stroke-linecap:round; stroke-linejoin:round;">
</g>
<g style="fill:#FFFFFF; fill-opacity:1.0000; 
stroke:#FFFFFF; stroke-width:0.0000; stroke-opacity:1; 
stroke-linecap:round; stroke-linejoin:round;">
<circle cx="11.0360" cy="3.2482" r="0.9000" /> 
</g>
<g style="fill:#FFFFFF; fill-opacity:1.0000; 
stroke:#FFFFFF; stroke-width:0.0212; stroke-opacity:1; 
stroke-linecap:round; stroke-linejoin:round;">
</g>
<g >
</g>
<g >
</g>
<g >
</g>
</g>
<g style="fill:#FFFFFF; fill-opacity:1.0000; 
stroke:#FFFFFF; stroke-width:0.0212; stroke-opacity:1; 
stroke-linecap:round; stroke-linejoin:round;">
<g >
</g>
<g style="fill:#FFFFFF; fill-opacity:1.0000; 
stroke:#FFFFFF; stroke-width:0.0000; stroke-opacity:1; 
stroke-linecap:round; stroke-linejoin:round;">
<path style="fill:#FFFFFF; fill-opacity:1.0000; 
stroke:#FFFFFF; stroke-width:0.0000; stroke-opacity:1; 
stroke-linecap:round; stroke-linejoin:round;fill-rule:evenodd;"
d="M 5.0560,2.5984
5.0750,2.5027
5.1292,2.4215
5.2104,2.3673
5.3062,2.3482
6.6058,2.3482
6.7015,2.3673
6.7827,2.4215
6.8369,2.5027
6.8560,2.5984
6.8560,3.8981
6.8369,3.9938
6.7827,4.0750
6.7015,4.1292
6.6058,4.1482
5.3062,4.1482
5.2104,4.1292
5.1292,4.0750
5.0750,3.9938
5.0560,3.8981
Z" /> 
<circle cx="8.4960" cy="3.2482" r="0.9000" /> 
</g>
<g style="fill:#FFFFFF; fill-opacity:1.0000; 
stroke:#FFFFFF; stroke-width:0.0212; stroke-opacity:1; 
stroke-linecap:round; stroke-linejoin:round;">
</g>
<g style="fill:#FFFFFF; fill-opacity:1.0000; 
stroke:#FFFFFF; stroke-width:0.0000; stroke-opacity:1; 
stroke-linecap:round; stroke-linejoin:round;">
<circle cx="11.0360" cy="3.2482" r="0.9000" /> 
</g>
<g style="fill:#FFFFFF; fill-opacity:1.0000; 
stroke:#FFFFFF; stroke-width:0.0212; stroke-opacity:1; 
stroke-linecap:round; stroke-linejoin:round;">
</g>
<g >
</g>
<g >
</g>
<g >
</g>
</g>
<g style="fill:#FFFFFF; fill-opacity:1.0000; 
stroke:#FFFFFF; stroke-width:0.0212; stroke-opacity:1; 
stroke-linecap:round; stroke-linejoin:round;">
<g >
</g>
<g style="fill:#FFFFFF; fill-opacity:1.0000; 
stroke:#FFFFFF; stroke-width:0.0000; stroke-opacity:1; 
stroke-linecap:round; stroke-linejoin:round;">
<path style="fill:#FFFFFF; fill-opacity:1.0000; 
stroke:#FFFFFF; stroke-width:0.0000; stroke-opacity:1; 
stroke-linecap:round; stroke-linejoin:round;fill-rule:evenodd;"
d="M 5.0560,2.5984
5.0750,2.5027
5.1292,2.4215
5.2104,2.3673
5.3062,2.3482
6.6058,2.3482
6.7015,2.3673
6.7827,2.4215
6.8369,2.5027
6.8560,2.5984
6.8560,3.8981
6.8369,3.9938
6.7827,4.0750
6.7015,4.1292
6.6058,4.1482
5.3062,4.1482
5.2104,4.1292
5.1292,4.0750
5.0750,3.9938
5.0560,3.8981
Z" /> 
<circle cx="8.4960" cy="3.2482" r="0.9000" /> 
</g>
<g style="fill:#FFFFFF; fill-opacity:1.0000; 
stroke:#FFFFFF; stroke-width:0.0212; stroke-opacity:1; 
stroke-linecap:round; stroke-linejoin:round;">
</g>
<g style="fill:#FFFFFF; fill-opacity:1.0000; 
stroke:#FFFFFF; stroke-width:0.0000; stroke-opacity:1; 
stroke-linecap:round; stroke-linejoin:round;">
<circle cx="11.0360" cy="3.2482" r="0.9000" /> 
</g>
<g style="fill:#FFFFFF; fill-opacity:1.0000; 
stroke:#FFFFFF; stroke-width:0.0212; stroke-opacity:1; 
stroke-linecap:round; stroke-linejoin:round;">
</g>
<g >
</g>
<g >
</g>
<g >
</g>
</g>
<g style="fill:#FFFFFF; fill-opacity:1.0000; 
stroke:#FFFFFF; stroke-width:0.0212; stroke-opacity:1; 
stroke-linecap:round; stroke-linejoin:round;">
<g >
</g>
<g style="fill:#FFFFFF; fill-opacity:1.0000; 
stroke:#FFFFFF; stroke-width:0.0000; stroke-opacity:1; 
stroke-linecap:round; stroke-linejoin:round;">
<path style="fill:#FFFFFF; fill-opacity:1.0000; 
stroke:#FFFFFF; stroke-width:0.0000; stroke-opacity:1; 
stroke-linecap:round; stroke-linejoin:round;fill-rule:evenodd;"
d="M 5.0560,2.5984
5.0750,2.5027
5.1292,2.4215
5.2104,2.3673
5.3062,2.3482
6.6058,2.3482
6.7015,2.3673
6.7827,2.4215
6.8369,2.5027
6.8560,2.5984
6.8560,3.8981
6.8369,3.9938
6.7827,4.0750
6.7015,4.1292
6.6058,4.1482
5.3062,4.1482
5.2104,4.1292
5.1292,4.0750
5.0750,3.9938
5.0560,3.8981
Z" /> 
<circle cx="8.4960" cy="3.2482" r="0.9000" /> 
</g>
<g style="fill:#FFFFFF; fill-opacity:1.0000; 
stroke:#FFFFFF; stroke-width:0.0212; stroke-opacity:1; 
stroke-linecap:round; stroke-linejoin:round;">
</g>
<g style="fill:#FFFFFF; fill-opacity:1.0000; 
stroke:#FFFFFF; stroke-width:0.0000; stroke-opacity:1; 
stroke-linecap:round; stroke-linejoin:round;">
<circle cx="11.0360" cy="3.2482" r="0.9000" /> 
</g>
<g style="fill:#FFFFFF; fill-opacity:1.0000; 
stroke:#FFFFFF; stroke-width:0.0212; stroke-opacity:1; 
stroke-linecap:round; stroke-linejoin:round;">
</g>
<g >
</g>
<g >
</g>
<g >
</g>
</g>
<g style="fill:#FFFFFF; fill-opacity:1.0000; 
stroke:#FFFFFF; stroke-width:0.0212; stroke-opacity:1; 
stroke-linecap:round; stroke-linejoin:round;">
<g >
</g>
<g style="fill:#FFFFFF; fill-opacity:1.0000; 
stroke:#FFFFFF; stroke-width:0.0000; stroke-opacity:1; 
stroke-linecap:round; stroke-linejoin:round;">
<path style="fill:#FFFFFF; fill-opacity:1.0000; 
stroke:#FFFFFF; stroke-width:0.0000; stroke-opacity:1; 
stroke-linecap:round; stroke-linejoin:round;fill-rule:evenodd;"
d="M 5.0560,2.5984
5.0750,2.5027
5.1292,2.4215
5.2104,2.3673
5.3062,2.3482
6.6058,2.3482
6.7015,2.3673
6.7827,2.4215
6.8369,2.5027
6.8560,2.5984
6.8560,3.8981
6.8369,3.9938
6.7827,4.0750
6.7015,4.1292
6.6058,4.1482
5.3062,4.1482
5.2104,4.1292
5.1292,4.0750
5.0750,3.9938
5.0560,3.8981
Z" /> 
<circle cx="8.4960" cy="3.2482" r="0.9000" /> 
</g>
<g style="fill:#FFFFFF; fill-opacity:1.0000; 
stroke:#FFFFFF; stroke-width:0.0212; stroke-opacity:1; 
stroke-linecap:round; stroke-linejoin:round;">
</g>
<g style="fill:#FFFFFF; fill-opacity:1.0000; 
stroke:#FFFFFF; stroke-width:0.0000; stroke-opacity:1; 
stroke-linecap:round; stroke-linejoin:round;">
<circle cx="11.0360" cy="3.2482" r="0.9000" /> 
</g>
<g style="fill:#FFFFFF; fill-opacity:1.0000; 
stroke:#FFFFFF; stroke-width:0.0212; stroke-opacity:1; 
stroke-linecap:round; stroke-linejoin:round;">
</g>
<g >
</g>
<g >
</g>
<g >
</g>
</g>
<g style="fill:#FFFFFF; fill-opacity:1.0000; 
stroke:#FFFFFF; stroke-width:0.0212; stroke-opacity:1; 
stroke-linecap:round; stroke-linejoin:round;">
<g >
</g>
<g style="fill:#FFFFFF; fill-opacity:1.0000; 
stroke:#FFFFFF; stroke-width:0.0000; stroke-opacity:1; 
stroke-linecap:round; stroke-linejoin:round;">
<path style="fill:#FFFFFF; fill-opacity:1.0000; 
stroke:#FFFFFF; stroke-width:0.0000; stroke-opacity:1; 
stroke-linecap:round; stroke-linejoin:round;fill-rule:evenodd;"
d="M 5.0560,2.5984
5.0750,2.5027
5.1292,2.4215
5.2104,2.3673
5.3062,2.3482
6.6058,2.3482
6.7015,2.3673
6.7827,2.4215
6.8369,2.5027
6.8560,2.5984
6.8560,3.8981
6.8369,3.9938
6.7827,4.0750
6.7015,4.1292
6.6058,4.1482
5.3062,4.1482
5.2104,4.1292
5.1292,4.0750
5.0750,3.9938
5.0560,3.8981
Z" /> 
<circle cx="8.4960" cy="3.2482" r="0.9000" /> 
</g>
<g style="fill:#FFFFFF; fill-opacity:1.0000; 
stroke:#FFFFFF; stroke-width:0.0212; stroke-opacity:1; 
stroke-linecap:round; stroke-linejoin:round;">
</g>
<g style="fill:#FFFFFF; fill-opacity:1.0000; 
stroke:#FFFFFF; stroke-width:0.0000; stroke-opacity:1; 
stroke-linecap:round; stroke-linejoin:round;">
<circle cx="11.0360" cy="3.2482" r="0.9000" /> 
</g>
<g style="fill:#FFFFFF; fill-opacity:1.0000; 
stroke:#FFFFFF; stroke-width:0.0212; stroke-opacity:1; 
stroke-linecap:round; stroke-linejoin:round;">
</g>
<g >
</g>
<g >
</g>
<g >
</g>
</g>
<g style="fill:#FFFFFF; fill-opacity:1.0000; 
stroke:#FFFFFF; stroke-width:0.0212; stroke-opacity:1; 
stroke-linecap:round; stroke-linejoin:round;">
<g >
</g>
<g style="fill:#FFFFFF; fill-opacity:1.0000; 
stroke:#FFFFFF; stroke-width:0.0000; stroke-opacity:1; 
stroke-linecap:round; stroke-linejoin:round;">
<path style="fill:#FFFFFF; fill-opacity:1.0000; 
stroke:#FFFFFF; stroke-width:0.0000; stroke-opacity:1; 
stroke-linecap:round; stroke-linejoin:round;fill-rule:evenodd;"
d="M 5.0560,2.5984
5.0750,2.5027
5.1292,2.4215
5.2104,2.3673
5.3062,2.3482
6.6058,2.3482
6.7015,2.3673
6.7827,2.4215
6.8369,2.5027
6.8560,2.5984
6.8560,3.8981
6.8369,3.9938
6.7827,4.0750
6.7015,4.1292
6.6058,4.1482
5.3062,4.1482
5.2104,4.1292
5.1292,4.0750
5.0750,3.9938
5.0560,3.8981
Z" /> 
<circle cx="8.4960" cy="3.2482" r="0.9000" /> 
</g>
<g style="fill:#FFFFFF; fill-opacity:1.0000; 
stroke:#FFFFFF; stroke-width:0.0212; stroke-opacity:1; 
stroke-linecap:round; stroke-linejoin:round;">
</g>
<g style="fill:#FFFFFF; fill-opacity:1.0000; 
stroke:#FFFFFF; stroke-width:0.0000; stroke-opacity:1; 
stroke-linecap:round; stroke-linejoin:round;">
<circle cx="11.0360" cy="3.2482" r="0.9000" /> 
</g>
<g style="fill:#FFFFFF; fill-opacity:1.0000; 
stroke:#FFFFFF; stroke-width:0.0212; stroke-opacity:1; 
stroke-linecap:round; stroke-linejoin:round;">
</g>
<g >
</g>
<g >
</g>
<g >
</g>
</g>
<g style="fill:#FFFFFF; fill-opacity:1.0000; 
stroke:#FFFFFF; stroke-width:0.0212; stroke-opacity:1; 
stroke-linecap:round; stroke-linejoin:round;">
<g >
</g>
<g style="fill:#FFFFFF; fill-opacity:1.0000; 
stroke:#FFFFFF; stroke-width:0.0000; stroke-opacity:1; 
stroke-linecap:round; stroke-linejoin:round;">
<path style="fill:#FFFFFF; fill-opacity:1.0000; 
stroke:#FFFFFF; stroke-width:0.0000; stroke-opacity:1; 
stroke-linecap:round; stroke-linejoin:round;fill-rule:evenodd;"
d="M 5.0560,2.5984
5.0750,2.5027
5.1292,2.4215
5.2104,2.3673
5.3062,2.3482
6.6058,2.3482
6.7015,2.3673
6.7827,2.4215
6.8369,2.5027
6.8560,2.5984
6.8560,3.8981
6.8369,3.9938
6.7827,4.0750
6.7015,4.1292
6.6058,4.1482
5.3062,4.1482
5.2104,4.1292
5.1292,4.0750
5.0750,3.9938
5.0560,3.8981
Z" /> 
<circle cx="8.4960" cy="3.2482" r="0.9000" /> 
</g>
<g style="fill:#FFFFFF; fill-opacity:1.0000; 
stroke:#FFFFFF; stroke-width:0.0212; stroke-opacity:1; 
stroke-linecap:round; stroke-linejoin:round;">
</g>
<g style="fill:#FFFFFF; fill-opacity:1.0000; 
stroke:#FFFFFF; stroke-width:0.0000; stroke-opacity:1; 
stroke-linecap:round; stroke-linejoin:round;">
<circle cx="11.0360" cy="3.2482" r="0.9000" /> 
</g>
<g style="fill:#FFFFFF; fill-opacity:1.0000; 
stroke:#FFFFFF; stroke-width:0.0212; stroke-opacity:1; 
stroke-linecap:round; stroke-linejoin:round;">
</g>
<g >
</g>
<g >
</g>
<g >
</g>
</g>
<g style="fill:#FFFFFF; fill-opacity:1.0000; 
stroke:#FFFFFF; stroke-width:0.0212; stroke-opacity:1; 
stroke-linecap:round; stroke-linejoin:round;">
<g >
</g>
<g style="fill:#FFFFFF; fill-opacity:1.0000; 
stroke:#FFFFFF; stroke-width:0.0000; stroke-opacity:1; 
stroke-linecap:round; stroke-linejoin:round;">
<path style="fill:#FFFFFF; fill-opacity:1.0000; 
stroke:#FFFFFF; stroke-width:0.0000; stroke-opacity:1; 
stroke-linecap:round; stroke-linejoin:round;fill-rule:evenodd;"
d="M 5.0560,2.5984
5.0750,2.5027
5.1292,2.4215
5.2104,2.3673
5.3062,2.3482
6.6058,2.3482
6.7015,2.3673
6.7827,2.4215
6.8369,2.5027
6.8560,2.5984
6.8560,3.8981
6.8369,3.9938
6.7827,4.0750
6.7015,4.1292
6.6058,4.1482
5.3062,4.1482
5.2104,4.1292
5.1292,4.0750
5.0750,3.9938
5.0560,3.8981
Z" /> 
<circle cx="8.4960" cy="3.2482" r="0.9000" /> 
</g>
<g style="fill:#FFFFFF; fill-opacity:1.0000; 
stroke:#FFFFFF; stroke-width:0.0212; stroke-opacity:1; 
stroke-linecap:round; stroke-linejoin:round;">
</g>
<g style="fill:#FFFFFF; fill-opacity:1.0000; 
stroke:#FFFFFF; stroke-width:0.0000; stroke-opacity:1; 
stroke-linecap:round; stroke-linejoin:round;">
<circle cx="11.0360" cy="3.2482" r="0.9000" /> 
</g>
<g style="fill:#FFFFFF; fill-opacity:1.0000; 
stroke:#FFFFFF; stroke-width:0.0212; stroke-opacity:1; 
stroke-linecap:round; stroke-linejoin:round;">
</g>
<g >
</g>
<g >
</g>
<g >
</g>
</g>
<g style="fill:#FFFFFF; fill-opacity:1.0000; 
stroke:#FFFFFF; stroke-width:0.0212; stroke-opacity:1; 
stroke-linecap:round; stroke-linejoin:round;">
<g >
</g>
<g style="fill:#FFFFFF; fill-opacity:1.0000; 
stroke:#FFFFFF; stroke-width:0.0000; stroke-opacity:1; 
stroke-linecap:round; stroke-linejoin:round;">
<path style="fill:#FFFFFF; fill-opacity:1.0000; 
stroke:#FFFFFF; stroke-width:0.0000; stroke-opacity:1; 
stroke-linecap:round; stroke-linejoin:round;fill-rule:evenodd;"
d="M 5.0560,2.5984
5.0750,2.5027
5.1292,2.4215
5.2104,2.3673
5.3062,2.3482
6.6058,2.3482
6.7015,2.3673
6.7827,2.4215
6.8369,2.5027
6.8560,2.5984
6.8560,3.8981
6.8369,3.9938
6.7827,4.0750
6.7015,4.1292
6.6058,4.1482
5.3062,4.1482
5.2104,4.1292
5.1292,4.0750
5.0750,3.9938
5.0560,3.8981
Z" /> 
<circle cx="8.4960" cy="3.2482" r="0.9000" /> 
</g>
<g style="fill:#FFFFFF; fill-opacity:1.0000; 
stroke:#FFFFFF; stroke-width:0.0212; stroke-opacity:1; 
stroke-linecap:round; stroke-linejoin:round;">
</g>
<g style="fill:#FFFFFF; fill-opacity:1.0000; 
stroke:#FFFFFF; stroke-width:0.0000; stroke-opacity:1; 
stroke-linecap:round; stroke-linejoin:round;">
<circle cx="11.0360" cy="3.2482" r="0.9000" /> 
</g>
<g style="fill:#FFFFFF; fill-opacity:1.0000; 
stroke:#FFFFFF; stroke-width:0.0212; stroke-opacity:1; 
stroke-linecap:round; stroke-linejoin:round;">
</g>
<g >
</g>
<g >
</g>
<g >
</g>
</g>
<g style="fill:#FFFFFF; fill-opacity:1.0000; 
stroke:#FFFFFF; stroke-width:0.0212; stroke-opacity:1; 
stroke-linecap:round; stroke-linejoin:round;">
<g >
</g>
<g style="fill:#FFFFFF; fill-opacity:1.0000; 
stroke:#FFFFFF; stroke-width:0.0000; stroke-opacity:1; 
stroke-linecap:round; stroke-linejoin:round;">
<path style="fill:#FFFFFF; fill-opacity:1.0000; 
stroke:#FFFFFF; stroke-width:0.0000; stroke-opacity:1; 
stroke-linecap:round; stroke-linejoin:round;fill-rule:evenodd;"
d="M 5.0560,2.5984
5.0750,2.5027
5.1292,2.4215
5.2104,2.3673
5.3062,2.3482
6.6058,2.3482
6.7015,2.3673
6.7827,2.4215
6.8369,2.5027
6.8560,2.5984
6.8560,3.8981
6.8369,3.9938
6.7827,4.0750
6.7015,4.1292
6.6058,4.1482
5.3062,4.1482
5.2104,4.1292
5.1292,4.0750
5.0750,3.9938
5.0560,3.8981
Z" /> 
<circle cx="8.4960" cy="3.2482" r="0.9000" /> 
</g>
<g style="fill:#FFFFFF; fill-opacity:1.0000; 
stroke:#FFFFFF; stroke-width:0.0212; stroke-opacity:1; 
stroke-linecap:round; stroke-linejoin:round;">
</g>
<g style="fill:#FFFFFF; fill-opacity:1.0000; 
stroke:#FFFFFF; stroke-width:0.0000; stroke-opacity:1; 
stroke-linecap:round; stroke-linejoin:round;">
<circle cx="11.0360" cy="3.2482" r="0.9000" /> 
</g>
<g style="fill:#FFFFFF; fill-opacity:1.0000; 
stroke:#FFFFFF; stroke-width:0.0212; stroke-opacity:1; 
stroke-linecap:round; stroke-linejoin:round;">
</g>
<g >
</g>
<g >
</g>
<g >
</g>
</g>
<g style="fill:#FFFFFF; fill-opacity:1.0000; 
stroke:#FFFFFF; stroke-width:0.0212; stroke-opacity:1; 
stroke-linecap:round; stroke-linejoin:round;">
<g >
</g>
<g style="fill:#FFFFFF; fill-opacity:1.0000; 
stroke:#FFFFFF; stroke-width:0.0000; stroke-opacity:1; 
stroke-linecap:round; stroke-linejoin:round;">
<path style="fill:#FFFFFF; fill-opacity:1.0000; 
stroke:#FFFFFF; stroke-width:0.0000; stroke-opacity:1; 
stroke-linecap:round; stroke-linejoin:round;fill-rule:evenodd;"
d="M 5.0560,2.5984
5.0750,2.5027
5.1292,2.4215
5.2104,2.3673
5.3062,2.3482
6.6058,2.3482
6.7015,2.3673
6.7827,2.4215
6.8369,2.5027
6.8560,2.5984
6.8560,3.8981
6.8369,3.9938
6.7827,4.0750
6.7015,4.1292
6.6058,4.1482
5.3062,4.1482
5.2104,4.1292
5.1292,4.0750
5.0750,3.9938
5.0560,3.8981
Z" /> 
<circle cx="8.4960" cy="3.2482" r="0.9000" /> 
</g>
<g style="fill:#FFFFFF; fill-opacity:1.0000; 
stroke:#FFFFFF; stroke-width:0.0212; stroke-opacity:1; 
stroke-linecap:round; stroke-linejoin:round;">
</g>
<g style="fill:#FFFFFF; fill-opacity:1.0000; 
stroke:#FFFFFF; stroke-width:0.0000; stroke-opacity:1; 
stroke-linecap:round; stroke-linejoin:round;">
<circle cx="11.0360" cy="3.2482" r="0.9000" /> 
</g>
<g style="fill:#FFFFFF; fill-opacity:1.0000; 
stroke:#FFFFFF; stroke-width:0.0212; stroke-opacity:1; 
stroke-linecap:round; stroke-linejoin:round;">
</g>
<g >
</g>
<g >
</g>
<g >
</g>
</g>
<g style="fill:#FFFFFF; fill-opacity:1.0000; 
stroke:#FFFFFF; stroke-width:0.0212; stroke-opacity:1; 
stroke-linecap:round; stroke-linejoin:round;">
<g >
</g>
<g style="fill:#FFFFFF; fill-opacity:1.0000; 
stroke:#FFFFFF; stroke-width:0.0000; stroke-opacity:1; 
stroke-linecap:round; stroke-linejoin:round;">
<path style="fill:#FFFFFF; fill-opacity:1.0000; 
stroke:#FFFFFF; stroke-width:0.0000; stroke-opacity:1; 
stroke-linecap:round; stroke-linejoin:round;fill-rule:evenodd;"
d="M 5.0560,2.5984
5.0750,2.5027
5.1292,2.4215
5.2104,2.3673
5.3062,2.3482
6.6058,2.3482
6.7015,2.3673
6.7827,2.4215
6.8369,2.5027
6.8560,2.5984
6.8560,3.8981
6.8369,3.9938
6.7827,4.0750
6.7015,4.1292
6.6058,4.1482
5.3062,4.1482
5.2104,4.1292
5.1292,4.0750
5.0750,3.9938
5.0560,3.8981
Z" /> 
<circle cx="8.4960" cy="3.2482" r="0.9000" /> 
</g>
<g style="fill:#FFFFFF; fill-opacity:1.0000; 
stroke:#FFFFFF; stroke-width:0.0212; stroke-opacity:1; 
stroke-linecap:round; stroke-linejoin:round;">
</g>
<g style="fill:#FFFFFF; fill-opacity:1.0000; 
stroke:#FFFFFF; stroke-width:0.0000; stroke-opacity:1; 
stroke-linecap:round; stroke-linejoin:round;">
<circle cx="11.0360" cy="3.2482" r="0.9000" /> 
</g>
<g style="fill:#FFFFFF; fill-opacity:1.0000; 
stroke:#FFFFFF; stroke-width:0.0212; stroke-opacity:1; 
stroke-linecap:round; stroke-linejoin:round;">
</g>
<g >
</g>
<g >
</g>
<g >
</g>
</g>
<g style="fill:#FFFFFF; fill-opacity:1.0000; 
stroke:#FFFFFF; stroke-width:0.0212; stroke-opacity:1; 
stroke-linecap:round; stroke-linejoin:round;">
<g >
</g>
<g style="fill:#FFFFFF; fill-opacity:1.0000; 
stroke:#FFFFFF; stroke-width:0.0000; stroke-opacity:1; 
stroke-linecap:round; stroke-linejoin:round;">
<path style="fill:#FFFFFF; fill-opacity:1.0000; 
stroke:#FFFFFF; stroke-width:0.0000; stroke-opacity:1; 
stroke-linecap:round; stroke-linejoin:round;fill-rule:evenodd;"
d="M 5.0560,2.5984
5.0750,2.5027
5.1292,2.4215
5.2104,2.3673
5.3062,2.3482
6.6058,2.3482
6.7015,2.3673
6.7827,2.4215
6.8369,2.5027
6.8560,2.5984
6.8560,3.8981
6.8369,3.9938
6.7827,4.0750
6.7015,4.1292
6.6058,4.1482
5.3062,4.1482
5.2104,4.1292
5.1292,4.0750
5.0750,3.9938
5.0560,3.8981
Z" /> 
<circle cx="8.4960" cy="3.2482" r="0.9000" /> 
</g>
<g style="fill:#FFFFFF; fill-opacity:1.0000; 
stroke:#FFFFFF; stroke-width:0.0212; stroke-opacity:1; 
stroke-linecap:round; stroke-linejoin:round;">
</g>
<g style="fill:#FFFFFF; fill-opacity:1.0000; 
stroke:#FFFFFF; stroke-width:0.0000; stroke-opacity:1; 
stroke-linecap:round; stroke-linejoin:round;">
<circle cx="11.0360" cy="3.2482" r="0.9000" /> 
</g>
<g style="fill:#FFFFFF; fill-opacity:1.0000; 
stroke:#FFFFFF; stroke-width:0.0212; stroke-opacity:1; 
stroke-linecap:round; stroke-linejoin:round;">
</g>
<g >
</g>
<g >
</g>
<g >
</g>
</g>
<g style="fill:#FFFFFF; fill-opacity:1.0000; 
stroke:#FFFFFF; stroke-width:0.0212; stroke-opacity:1; 
stroke-linecap:round; stroke-linejoin:round;">
<g >
</g>
<g style="fill:#FFFFFF; fill-opacity:1.0000; 
stroke:#FFFFFF; stroke-width:0.0000; stroke-opacity:1; 
stroke-linecap:round; stroke-linejoin:round;">
<path style="fill:#FFFFFF; fill-opacity:1.0000; 
stroke:#FFFFFF; stroke-width:0.0000; stroke-opacity:1; 
stroke-linecap:round; stroke-linejoin:round;fill-rule:evenodd;"
d="M 5.0560,2.5984
5.0750,2.5027
5.1292,2.4215
5.2104,2.3673
5.3062,2.3482
6.6058,2.3482
6.7015,2.3673
6.7827,2.4215
6.8369,2.5027
6.8560,2.5984
6.8560,3.8981
6.8369,3.9938
6.7827,4.0750
6.7015,4.1292
6.6058,4.1482
5.3062,4.1482
5.2104,4.1292
5.1292,4.0750
5.0750,3.9938
5.0560,3.8981
Z" /> 
<circle cx="8.4960" cy="3.2482" r="0.9000" /> 
</g>
<g style="fill:#FFFFFF; fill-opacity:1.0000; 
stroke:#FFFFFF; stroke-width:0.0212; stroke-opacity:1; 
stroke-linecap:round; stroke-linejoin:round;">
</g>
<g style="fill:#FFFFFF; fill-opacity:1.0000; 
stroke:#FFFFFF; stroke-width:0.0000; stroke-opacity:1; 
stroke-linecap:round; stroke-linejoin:round;">
<circle cx="11.0360" cy="3.2482" r="0.9000" /> 
</g>
<g style="fill:#FFFFFF; fill-opacity:1.0000; 
stroke:#FFFFFF; stroke-width:0.0212; stroke-opacity:1; 
stroke-linecap:round; stroke-linejoin:round;">
</g>
<g >
</g>
<g >
</g>
<g >
</g>
</g>
<g style="fill:#FFFFFF; fill-opacity:1.0000; 
stroke:#FFFFFF; stroke-width:0.0212; stroke-opacity:1; 
stroke-linecap:round; stroke-linejoin:round;">
<g >
</g>
<g style="fill:#FFFFFF; fill-opacity:1.0000; 
stroke:#FFFFFF; stroke-width:0.0000; stroke-opacity:1; 
stroke-linecap:round; stroke-linejoin:round;">
<path style="fill:#FFFFFF; fill-opacity:1.0000; 
stroke:#FFFFFF; stroke-width:0.0000; stroke-opacity:1; 
stroke-linecap:round; stroke-linejoin:round;fill-rule:evenodd;"
d="M 5.0560,2.5984
5.0750,2.5027
5.1292,2.4215
5.2104,2.3673
5.3062,2.3482
6.6058,2.3482
6.7015,2.3673
6.7827,2.4215
6.8369,2.5027
6.8560,2.5984
6.8560,3.8981
6.8369,3.9938
6.7827,4.0750
6.7015,4.1292
6.6058,4.1482
5.3062,4.1482
5.2104,4.1292
5.1292,4.0750
5.0750,3.9938
5.0560,3.8981
Z" /> 
<circle cx="8.4960" cy="3.2482" r="0.9000" /> 
</g>
<g style="fill:#FFFFFF; fill-opacity:1.0000; 
stroke:#FFFFFF; stroke-width:0.0212; stroke-opacity:1; 
stroke-linecap:round; stroke-linejoin:round;">
</g>
<g style="fill:#FFFFFF; fill-opacity:1.0000; 
stroke:#FFFFFF; stroke-width:0.0000; stroke-opacity:1; 
stroke-linecap:round; stroke-linejoin:round;">
<circle cx="11.0360" cy="3.2482" r="0.9000" /> 
</g>
<g style="fill:#FFFFFF; fill-opacity:1.0000; 
stroke:#FFFFFF; stroke-width:0.0212; stroke-opacity:1; 
stroke-linecap:round; stroke-linejoin:round;">
</g>
<g >
</g>
<g >
</g>
<g >
</g>
</g>
<g style="fill:#FFFFFF; fill-opacity:1.0000; 
stroke:#FFFFFF; stroke-width:0.0212; stroke-opacity:1; 
stroke-linecap:round; stroke-linejoin:round;">
<g >
</g>
<g style="fill:#FFFFFF; fill-opacity:1.0000; 
stroke:#FFFFFF; stroke-width:0.0000; stroke-opacity:1; 
stroke-linecap:round; stroke-linejoin:round;">
<path style="fill:#FFFFFF; fill-opacity:1.0000; 
stroke:#FFFFFF; stroke-width:0.0000; stroke-opacity:1; 
stroke-linecap:round; stroke-linejoin:round;fill-rule:evenodd;"
d="M 5.0560,2.5984
5.0750,2.5027
5.1292,2.4215
5.2104,2.3673
5.3062,2.3482
6.6058,2.3482
6.7015,2.3673
6.7827,2.4215
6.8369,2.5027
6.8560,2.5984
6.8560,3.8981
6.8369,3.9938
6.7827,4.0750
6.7015,4.1292
6.6058,4.1482
5.3062,4.1482
5.2104,4.1292
5.1292,4.0750
5.0750,3.9938
5.0560,3.8981
Z" /> 
<circle cx="8.4960" cy="3.2482" r="0.9000" /> 
</g>
<g style="fill:#FFFFFF; fill-opacity:1.0000; 
stroke:#FFFFFF; stroke-width:0.0212; stroke-opacity:1; 
stroke-linecap:round; stroke-linejoin:round;">
</g>
<g style="fill:#FFFFFF; fill-opacity:1.0000; 
stroke:#FFFFFF; stroke-width:0.0000; stroke-opacity:1; 
stroke-linecap:round; stroke-linejoin:round;">
<circle cx="11.0360" cy="3.2482" r="0.9000" /> 
</g>
<g style="fill:#FFFFFF; fill-opacity:1.0000; 
stroke:#FFFFFF; stroke-width:0.0212; stroke-opacity:1; 
stroke-linecap:round; stroke-linejoin:round;">
</g>
<g >
</g>
<g >
</g>
<g >
</g>
</g>
<g style="fill:#FFFFFF; fill-opacity:1.0000; 
stroke:#FFFFFF; stroke-width:0.0212; stroke-opacity:1; 
stroke-linecap:round; stroke-linejoin:round;">
<g >
</g>
<g style="fill:#FFFFFF; fill-opacity:1.0000; 
stroke:#FFFFFF; stroke-width:0.0000; stroke-opacity:1; 
stroke-linecap:round; stroke-linejoin:round;">
<path style="fill:#FFFFFF; fill-opacity:1.0000; 
stroke:#FFFFFF; stroke-width:0.0000; stroke-opacity:1; 
stroke-linecap:round; stroke-linejoin:round;fill-rule:evenodd;"
d="M 5.0560,2.5984
5.0750,2.5027
5.1292,2.4215
5.2104,2.3673
5.3062,2.3482
6.6058,2.3482
6.7015,2.3673
6.7827,2.4215
6.8369,2.5027
6.8560,2.5984
6.8560,3.8981
6.8369,3.9938
6.7827,4.0750
6.7015,4.1292
6.6058,4.1482
5.3062,4.1482
5.2104,4.1292
5.1292,4.0750
5.0750,3.9938
5.0560,3.8981
Z" /> 
<circle cx="8.4960" cy="3.2482" r="0.9000" /> 
</g>
<g style="fill:#FFFFFF; fill-opacity:1.0000; 
stroke:#FFFFFF; stroke-width:0.0212; stroke-opacity:1; 
stroke-linecap:round; stroke-linejoin:round;">
</g>
<g style="fill:#FFFFFF; fill-opacity:1.0000; 
stroke:#FFFFFF; stroke-width:0.0000; stroke-opacity:1; 
stroke-linecap:round; stroke-linejoin:round;">
<circle cx="11.0360" cy="3.2482" r="0.9000" /> 
</g>
<g style="fill:#FFFFFF; fill-opacity:1.0000; 
stroke:#FFFFFF; stroke-width:0.0212; stroke-opacity:1; 
stroke-linecap:round; stroke-linejoin:round;">
</g>
<g >
</g>
<g >
</g>
<g >
</g>
</g>
<g style="fill:#FFFFFF; fill-opacity:1.0000; 
stroke:#FFFFFF; stroke-width:0.0212; stroke-opacity:1; 
stroke-linecap:round; stroke-linejoin:round;">
<g >
</g>
<g style="fill:#FFFFFF; fill-opacity:1.0000; 
stroke:#FFFFFF; stroke-width:0.0000; stroke-opacity:1; 
stroke-linecap:round; stroke-linejoin:round;">
<path style="fill:#FFFFFF; fill-opacity:1.0000; 
stroke:#FFFFFF; stroke-width:0.0000; stroke-opacity:1; 
stroke-linecap:round; stroke-linejoin:round;fill-rule:evenodd;"
d="M 5.0560,2.5984
5.0750,2.5027
5.1292,2.4215
5.2104,2.3673
5.3062,2.3482
6.6058,2.3482
6.7015,2.3673
6.7827,2.4215
6.8369,2.5027
6.8560,2.5984
6.8560,3.8981
6.8369,3.9938
6.7827,4.0750
6.7015,4.1292
6.6058,4.1482
5.3062,4.1482
5.2104,4.1292
5.1292,4.0750
5.0750,3.9938
5.0560,3.8981
Z" /> 
<circle cx="8.4960" cy="3.2482" r="0.9000" /> 
</g>
<g style="fill:#FFFFFF; fill-opacity:1.0000; 
stroke:#FFFFFF; stroke-width:0.0212; stroke-opacity:1; 
stroke-linecap:round; stroke-linejoin:round;">
</g>
<g style="fill:#FFFFFF; fill-opacity:1.0000; 
stroke:#FFFFFF; stroke-width:0.0000; stroke-opacity:1; 
stroke-linecap:round; stroke-linejoin:round;">
<circle cx="11.0360" cy="3.2482" r="0.9000" /> 
</g>
<g style="fill:#FFFFFF; fill-opacity:1.0000; 
stroke:#FFFFFF; stroke-width:0.0212; stroke-opacity:1; 
stroke-linecap:round; stroke-linejoin:round;">
</g>
<g >
</g>
<g >
</g>
<g >
</g>
</g>
<g style="fill:#FFFFFF; fill-opacity:1.0000; 
stroke:#FFFFFF; stroke-width:0.0212; stroke-opacity:1; 
stroke-linecap:round; stroke-linejoin:round;">
<g >
</g>
<g style="fill:#FFFFFF; fill-opacity:1.0000; 
stroke:#FFFFFF; stroke-width:0.0000; stroke-opacity:1; 
stroke-linecap:round; stroke-linejoin:round;">
<path style="fill:#FFFFFF; fill-opacity:1.0000; 
stroke:#FFFFFF; stroke-width:0.0000; stroke-opacity:1; 
stroke-linecap:round; stroke-linejoin:round;fill-rule:evenodd;"
d="M 5.0560,2.5984
5.0750,2.5027
5.1292,2.4215
5.2104,2.3673
5.3062,2.3482
6.6058,2.3482
6.7015,2.3673
6.7827,2.4215
6.8369,2.5027
6.8560,2.5984
6.8560,3.8981
6.8369,3.9938
6.7827,4.0750
6.7015,4.1292
6.6058,4.1482
5.3062,4.1482
5.2104,4.1292
5.1292,4.0750
5.0750,3.9938
5.0560,3.8981
Z" /> 
<circle cx="8.4960" cy="3.2482" r="0.9000" /> 
</g>
<g style="fill:#FFFFFF; fill-opacity:1.0000; 
stroke:#FFFFFF; stroke-width:0.0212; stroke-opacity:1; 
stroke-linecap:round; stroke-linejoin:round;">
</g>
<g style="fill:#FFFFFF; fill-opacity:1.0000; 
stroke:#FFFFFF; stroke-width:0.0000; stroke-opacity:1; 
stroke-linecap:round; stroke-linejoin:round;">
<circle cx="11.0360" cy="3.2482" r="0.9000" /> 
</g>
<g style="fill:#FFFFFF; fill-opacity:1.0000; 
stroke:#FFFFFF; stroke-width:0.0212; stroke-opacity:1; 
stroke-linecap:round; stroke-linejoin:round;">
</g>
<g >
</g>
<g >
</g>
<g >
</g>
</g>
<g style="fill:#FFFFFF; fill-opacity:1.0000; 
stroke:#FFFFFF; stroke-width:0.0212; stroke-opacity:1; 
stroke-linecap:round; stroke-linejoin:round;">
<g >
</g>
<g style="fill:#FFFFFF; fill-opacity:1.0000; 
stroke:#FFFFFF; stroke-width:0.0000; stroke-opacity:1; 
stroke-linecap:round; stroke-linejoin:round;">
<path style="fill:#FFFFFF; fill-opacity:1.0000; 
stroke:#FFFFFF; stroke-width:0.0000; stroke-opacity:1; 
stroke-linecap:round; stroke-linejoin:round;fill-rule:evenodd;"
d="M 5.0560,2.5984
5.0750,2.5027
5.1292,2.4215
5.2104,2.3673
5.3062,2.3482
6.6058,2.3482
6.7015,2.3673
6.7827,2.4215
6.8369,2.5027
6.8560,2.5984
6.8560,3.8981
6.8369,3.9938
6.7827,4.0750
6.7015,4.1292
6.6058,4.1482
5.3062,4.1482
5.2104,4.1292
5.1292,4.0750
5.0750,3.9938
5.0560,3.8981
Z" /> 
<circle cx="8.4960" cy="3.2482" r="0.9000" /> 
</g>
<g style="fill:#FFFFFF; fill-opacity:1.0000; 
stroke:#FFFFFF; stroke-width:0.0212; stroke-opacity:1; 
stroke-linecap:round; stroke-linejoin:round;">
</g>
<g style="fill:#FFFFFF; fill-opacity:1.0000; 
stroke:#FFFFFF; stroke-width:0.0000; stroke-opacity:1; 
stroke-linecap:round; stroke-linejoin:round;">
<circle cx="11.0360" cy="3.2482" r="0.9000" /> 
</g>
<g style="fill:#FFFFFF; fill-opacity:1.0000; 
stroke:#FFFFFF; stroke-width:0.0212; stroke-opacity:1; 
stroke-linecap:round; stroke-linejoin:round;">
</g>
<g >
</g>
<g >
</g>
<g >
</g>
</g>
<g style="fill:#FFFFFF; fill-opacity:1.0000; 
stroke:#FFFFFF; stroke-width:0.0212; stroke-opacity:1; 
stroke-linecap:round; stroke-linejoin:round;">
<g >
</g>
<g style="fill:#FFFFFF; fill-opacity:1.0000; 
stroke:#FFFFFF; stroke-width:0.0000; stroke-opacity:1; 
stroke-linecap:round; stroke-linejoin:round;">
<path style="fill:#FFFFFF; fill-opacity:1.0000; 
stroke:#FFFFFF; stroke-width:0.0000; stroke-opacity:1; 
stroke-linecap:round; stroke-linejoin:round;fill-rule:evenodd;"
d="M 5.0560,2.5984
5.0750,2.5027
5.1292,2.4215
5.2104,2.3673
5.3062,2.3482
6.6058,2.3482
6.7015,2.3673
6.7827,2.4215
6.8369,2.5027
6.8560,2.5984
6.8560,3.8981
6.8369,3.9938
6.7827,4.0750
6.7015,4.1292
6.6058,4.1482
5.3062,4.1482
5.2104,4.1292
5.1292,4.0750
5.0750,3.9938
5.0560,3.8981
Z" /> 
<circle cx="8.4960" cy="3.2482" r="0.9000" /> 
</g>
<g style="fill:#FFFFFF; fill-opacity:1.0000; 
stroke:#FFFFFF; stroke-width:0.0212; stroke-opacity:1; 
stroke-linecap:round; stroke-linejoin:round;">
</g>
<g style="fill:#FFFFFF; fill-opacity:1.0000; 
stroke:#FFFFFF; stroke-width:0.0000; stroke-opacity:1; 
stroke-linecap:round; stroke-linejoin:round;">
<circle cx="11.0360" cy="3.2482" r="0.9000" /> 
</g>
<g style="fill:#FFFFFF; fill-opacity:1.0000; 
stroke:#FFFFFF; stroke-width:0.0212; stroke-opacity:1; 
stroke-linecap:round; stroke-linejoin:round;">
</g>
<g >
</g>
<g >
</g>
<g >
</g>
</g>
<g style="fill:#FFFFFF; fill-opacity:1.0000; 
stroke:#FFFFFF; stroke-width:0.0212; stroke-opacity:1; 
stroke-linecap:round; stroke-linejoin:round;">
<g >
</g>
<g style="fill:#FFFFFF; fill-opacity:1.0000; 
stroke:#FFFFFF; stroke-width:0.0000; stroke-opacity:1; 
stroke-linecap:round; stroke-linejoin:round;">
<path style="fill:#FFFFFF; fill-opacity:1.0000; 
stroke:#FFFFFF; stroke-width:0.0000; stroke-opacity:1; 
stroke-linecap:round; stroke-linejoin:round;fill-rule:evenodd;"
d="M 5.0560,2.5984
5.0750,2.5027
5.1292,2.4215
5.2104,2.3673
5.3062,2.3482
6.6058,2.3482
6.7015,2.3673
6.7827,2.4215
6.8369,2.5027
6.8560,2.5984
6.8560,3.8981
6.8369,3.9938
6.7827,4.0750
6.7015,4.1292
6.6058,4.1482
5.3062,4.1482
5.2104,4.1292
5.1292,4.0750
5.0750,3.9938
5.0560,3.8981
Z" /> 
<circle cx="8.4960" cy="3.2482" r="0.9000" /> 
</g>
<g style="fill:#FFFFFF; fill-opacity:1.0000; 
stroke:#FFFFFF; stroke-width:0.0212; stroke-opacity:1; 
stroke-linecap:round; stroke-linejoin:round;">
</g>
<g style="fill:#FFFFFF; fill-opacity:1.0000; 
stroke:#FFFFFF; stroke-width:0.0000; stroke-opacity:1; 
stroke-linecap:round; stroke-linejoin:round;">
<circle cx="11.0360" cy="3.2482" r="0.9000" /> 
</g>
<g style="fill:#FFFFFF; fill-opacity:1.0000; 
stroke:#FFFFFF; stroke-width:0.0212; stroke-opacity:1; 
stroke-linecap:round; stroke-linejoin:round;">
</g>
<g >
</g>
<g >
</g>
<g >
</g>
</g>
<g style="fill:#FFFFFF; fill-opacity:1.0000; 
stroke:#FFFFFF; stroke-width:0.0212; stroke-opacity:1; 
stroke-linecap:round; stroke-linejoin:round;">
<g >
</g>
<g style="fill:#FFFFFF; fill-opacity:1.0000; 
stroke:#FFFFFF; stroke-width:0.0000; stroke-opacity:1; 
stroke-linecap:round; stroke-linejoin:round;">
<path style="fill:#FFFFFF; fill-opacity:1.0000; 
stroke:#FFFFFF; stroke-width:0.0000; stroke-opacity:1; 
stroke-linecap:round; stroke-linejoin:round;fill-rule:evenodd;"
d="M 5.0560,2.5984
5.0750,2.5027
5.1292,2.4215
5.2104,2.3673
5.3062,2.3482
6.6058,2.3482
6.7015,2.3673
6.7827,2.4215
6.8369,2.5027
6.8560,2.5984
6.8560,3.8981
6.8369,3.9938
6.7827,4.0750
6.7015,4.1292
6.6058,4.1482
5.3062,4.1482
5.2104,4.1292
5.1292,4.0750
5.0750,3.9938
5.0560,3.8981
Z" /> 
<circle cx="8.4960" cy="3.2482" r="0.9000" /> 
</g>
<g style="fill:#FFFFFF; fill-opacity:1.0000; 
stroke:#FFFFFF; stroke-width:0.0212; stroke-opacity:1; 
stroke-linecap:round; stroke-linejoin:round;">
</g>
<g style="fill:#FFFFFF; fill-opacity:1.0000; 
stroke:#FFFFFF; stroke-width:0.0000; stroke-opacity:1; 
stroke-linecap:round; stroke-linejoin:round;">
<circle cx="11.0360" cy="3.2482" r="0.9000" /> 
</g>
<g style="fill:#FFFFFF; fill-opacity:1.0000; 
stroke:#FFFFFF; stroke-width:0.0212; stroke-opacity:1; 
stroke-linecap:round; stroke-linejoin:round;">
</g>
<g >
</g>
<g >
</g>
<g >
</g>
</g>
<g style="fill:#FFFFFF; fill-opacity:1.0000; 
stroke:#FFFFFF; stroke-width:0.0212; stroke-opacity:1; 
stroke-linecap:round; stroke-linejoin:round;">
<g >
</g>
<g style="fill:#FFFFFF; fill-opacity:1.0000; 
stroke:#FFFFFF; stroke-width:0.0000; stroke-opacity:1; 
stroke-linecap:round; stroke-linejoin:round;">
<path style="fill:#FFFFFF; fill-opacity:1.0000; 
stroke:#FFFFFF; stroke-width:0.0000; stroke-opacity:1; 
stroke-linecap:round; stroke-linejoin:round;fill-rule:evenodd;"
d="M 5.0560,2.5984
5.0750,2.5027
5.1292,2.4215
5.2104,2.3673
5.3062,2.3482
6.6058,2.3482
6.7015,2.3673
6.7827,2.4215
6.8369,2.5027
6.8560,2.5984
6.8560,3.8981
6.8369,3.9938
6.7827,4.0750
6.7015,4.1292
6.6058,4.1482
5.3062,4.1482
5.2104,4.1292
5.1292,4.0750
5.0750,3.9938
5.0560,3.8981
Z" /> 
<circle cx="8.4960" cy="3.2482" r="0.9000" /> 
</g>
<g style="fill:#FFFFFF; fill-opacity:1.0000; 
stroke:#FFFFFF; stroke-width:0.0212; stroke-opacity:1; 
stroke-linecap:round; stroke-linejoin:round;">
</g>
<g style="fill:#FFFFFF; fill-opacity:1.0000; 
stroke:#FFFFFF; stroke-width:0.0000; stroke-opacity:1; 
stroke-linecap:round; stroke-linejoin:round;">
<circle cx="11.0360" cy="3.2482" r="0.9000" /> 
</g>
<g style="fill:#FFFFFF; fill-opacity:1.0000; 
stroke:#FFFFFF; stroke-width:0.0212; stroke-opacity:1; 
stroke-linecap:round; stroke-linejoin:round;">
</g>
<g >
</g>
<g >
</g>
<g >
</g>
</g>
<g style="fill:#FFFFFF; fill-opacity:1.0000; 
stroke:#FFFFFF; stroke-width:0.0212; stroke-opacity:1; 
stroke-linecap:round; stroke-linejoin:round;">
<g >
</g>
<g style="fill:#FFFFFF; fill-opacity:1.0000; 
stroke:#FFFFFF; stroke-width:0.0000; stroke-opacity:1; 
stroke-linecap:round; stroke-linejoin:round;">
<path style="fill:#FFFFFF; fill-opacity:1.0000; 
stroke:#FFFFFF; stroke-width:0.0000; stroke-opacity:1; 
stroke-linecap:round; stroke-linejoin:round;fill-rule:evenodd;"
d="M 5.0560,2.5984
5.0750,2.5027
5.1292,2.4215
5.2104,2.3673
5.3062,2.3482
6.6058,2.3482
6.7015,2.3673
6.7827,2.4215
6.8369,2.5027
6.8560,2.5984
6.8560,3.8981
6.8369,3.9938
6.7827,4.0750
6.7015,4.1292
6.6058,4.1482
5.3062,4.1482
5.2104,4.1292
5.1292,4.0750
5.0750,3.9938
5.0560,3.8981
Z" /> 
<circle cx="8.4960" cy="3.2482" r="0.9000" /> 
</g>
<g style="fill:#FFFFFF; fill-opacity:1.0000; 
stroke:#FFFFFF; stroke-width:0.0212; stroke-opacity:1; 
stroke-linecap:round; stroke-linejoin:round;">
</g>
<g style="fill:#FFFFFF; fill-opacity:1.0000; 
stroke:#FFFFFF; stroke-width:0.0000; stroke-opacity:1; 
stroke-linecap:round; stroke-linejoin:round;">
<circle cx="11.0360" cy="3.2482" r="0.9000" /> 
</g>
<g style="fill:#FFFFFF; fill-opacity:1.0000; 
stroke:#FFFFFF; stroke-width:0.0212; stroke-opacity:1; 
stroke-linecap:round; stroke-linejoin:round;">
</g>
<g >
</g>
<g >
</g>
<g >
</g>
</g>
<g style="fill:#FFFFFF; fill-opacity:1.0000; 
stroke:#FFFFFF; stroke-width:0.0212; stroke-opacity:1; 
stroke-linecap:round; stroke-linejoin:round;">
<g >
</g>
<g style="fill:#FFFFFF; fill-opacity:1.0000; 
stroke:#FFFFFF; stroke-width:0.0000; stroke-opacity:1; 
stroke-linecap:round; stroke-linejoin:round;">
<path style="fill:#FFFFFF; fill-opacity:1.0000; 
stroke:#FFFFFF; stroke-width:0.0000; stroke-opacity:1; 
stroke-linecap:round; stroke-linejoin:round;fill-rule:evenodd;"
d="M 5.0560,2.5984
5.0750,2.5027
5.1292,2.4215
5.2104,2.3673
5.3062,2.3482
6.6058,2.3482
6.7015,2.3673
6.7827,2.4215
6.8369,2.5027
6.8560,2.5984
6.8560,3.8981
6.8369,3.9938
6.7827,4.0750
6.7015,4.1292
6.6058,4.1482
5.3062,4.1482
5.2104,4.1292
5.1292,4.0750
5.0750,3.9938
5.0560,3.8981
Z" /> 
<circle cx="8.4960" cy="3.2482" r="0.9000" /> 
</g>
<g style="fill:#FFFFFF; fill-opacity:1.0000; 
stroke:#FFFFFF; stroke-width:0.0212; stroke-opacity:1; 
stroke-linecap:round; stroke-linejoin:round;">
</g>
<g style="fill:#FFFFFF; fill-opacity:1.0000; 
stroke:#FFFFFF; stroke-width:0.0000; stroke-opacity:1; 
stroke-linecap:round; stroke-linejoin:round;">
<circle cx="11.0360" cy="3.2482" r="0.9000" /> 
</g>
<g style="fill:#FFFFFF; fill-opacity:1.0000; 
stroke:#FFFFFF; stroke-width:0.0212; stroke-opacity:1; 
stroke-linecap:round; stroke-linejoin:round;">
</g>
<g >
</g>
<g >
</g>
<g >
</g>
</g>
<g style="fill:#FFFFFF; fill-opacity:1.0000; 
stroke:#FFFFFF; stroke-width:0.0212; stroke-opacity:1; 
stroke-linecap:round; stroke-linejoin:round;">
<g >
</g>
<g >
</g>
<g >
</g>
<g >
</g>
</g>
<g style="fill:#FFFFFF; fill-opacity:1.0000; 
stroke:#FFFFFF; stroke-width:0.0212; stroke-opacity:1; 
stroke-linecap:round; stroke-linejoin:round;">
</g>
<g style="fill:#FFFFFF; fill-opacity:1.0000; 
stroke:#FFFFFF; stroke-width:0.1500; stroke-opacity:1; 
stroke-linecap:round; stroke-linejoin:round;">
</g>
<g style="fill:#FFFFFF; fill-opacity:0.0; 
stroke:#FFFFFF; stroke-width:0.1500; stroke-opacity:1; 
stroke-linecap:round; stroke-linejoin:round;">
<text x="8.4560" y="1.3482"
textLength="4.5357" font-size="1.3333" lengthAdjust="spacingAndGlyphs"
text-anchor="middle" opacity="0">REF**</text>
<g class="stroked-text"><desc>REF**</desc>
<path d="M7.1226 1.3031
L6.7893 0.8269
" />
<path d="M6.5512 1.3031
L6.5512 0.3031
" />
<path d="M6.5512 0.3031
L6.9321 0.3031
" />
<path d="M6.9321 0.3031
L7.0274 0.3507
" />
<path d="M7.0274 0.3507
L7.0750 0.3983
" />
<path d="M7.0750 0.3983
L7.1226 0.4935
" />
<path d="M7.1226 0.4935
L7.1226 0.6364
" />
<path d="M7.1226 0.6364
L7.0750 0.7316
" />
<path d="M7.0750 0.7316
L7.0274 0.7793
" />
<path d="M7.0274 0.7793
L6.9321 0.8269
" />
<path d="M6.9321 0.8269
L6.5512 0.8269
" />
<path d="M7.5512 0.7793
L7.8845 0.7793
" />
<path d="M8.0274 1.3031
L7.5512 1.3031
" />
<path d="M7.5512 1.3031
L7.5512 0.3031
" />
<path d="M7.5512 0.3031
L8.0274 0.3031
" />
<path d="M8.7893 0.7793
L8.4560 0.7793
" />
<path d="M8.4560 1.3031
L8.4560 0.3031
" />
<path d="M8.4560 0.3031
L8.9321 0.3031
" />
<path d="M9.4560 0.3031
L9.4560 0.5412
" />
<path d="M9.2179 0.4459
L9.4560 0.5412
" />
<path d="M9.4560 0.5412
L9.6940 0.4459
" />
<path d="M9.3131 0.7316
L9.4560 0.5412
" />
<path d="M9.4560 0.5412
L9.5988 0.7316
" />
<path d="M10.2179 0.3031
L10.2179 0.5412
" />
<path d="M9.9798 0.4459
L10.2179 0.5412
" />
<path d="M10.2179 0.5412
L10.4560 0.4459
" />
<path d="M10.0750 0.7316
L10.2179 0.5412
" />
<path d="M10.2179 0.5412
L10.3607 0.7316
" />
</g></g>
<g style="fill:#FFFFFF; fill-opacity:0.0; 
stroke:#FFFFFF; stroke-width:0.1200; stroke-opacity:1; 
stroke-linecap:round; stroke-linejoin:round;">
<path d="M11.0960 1.7382
L8.4960 1.7382
" />
<path d="M11.0960 4.7482
L6.0060 4.7482
" />
<path d="M11.0960 4.4082
L11.0960 4.7482
" />
<path d="M11.0960 2.0882
L11.0960 1.7382
" />
<path d="M6.3960 4.7500 A2.1024 2.1024 0.0 0 0 10.5960 4.7482" />
<g >
</g>
<g >
</g>
<g >
</g>
<g >
</g>
</g> 
</svg>
