<?xml version="1.0" standalone="no"?>
 <!DOCTYPE svg PUBLIC "-//W3C//DTD SVG 1.1//EN" 
 "http://www.w3.org/Graphics/SVG/1.1/DTD/svg11.dtd"> 
<svg
  xmlns:svg="http://www.w3.org/2000/svg"
  xmlns="http://www.w3.org/2000/svg"
  xmlns:xlink="http://www.w3.org/1999/xlink"
  version="1.1"
  width="35.1536mm" height="11.3284mm" viewBox="0.0000 0.0000 35.1536 11.3284">
<title>SVG Image created as VQFN-48-1EP_7x7mm_P0.5mm_EP4.1x4.1mm.svg date 2024/01/16 15:07:14 </title>
  <desc>Image generated by PCBNEW </desc>
<g style="fill:#000000; fill-opacity:1.0000;stroke:#000000; stroke-opacity:1.0000;
stroke-linecap:round; stroke-linejoin:round;"
 transform="translate(0 0) scale(1 1)">
</g>
<g style="fill:#000000; fill-opacity:0.0; 
stroke:#000000; stroke-width:0.0000; stroke-opacity:1; 
stroke-linecap:round; stroke-linejoin:round;">
</g>
<g style="fill:#000000; fill-opacity:1.0000; 
stroke:#000000; stroke-width:0.0212; stroke-opacity:1; 
stroke-linecap:round; stroke-linejoin:round;">
<rect x="-5.000000" y="-5.000000" width="45.154760" height="21.336500" rx="0.000000" />
</g>
<g style="fill:#FFFFFF; fill-opacity:1.0000; 
stroke:#FFFFFF; stroke-width:0.0212; stroke-opacity:1; 
stroke-linecap:round; stroke-linejoin:round;">
<g >
</g>
<g >
</g>
<g >
</g>
<g >
</g>
</g>
<g style="fill:#FFFFFF; fill-opacity:1.0000; 
stroke:#FFFFFF; stroke-width:0.0212; stroke-opacity:1; 
stroke-linecap:round; stroke-linejoin:round;">
<g >
</g>
<g >
</g>
<g >
</g>
<g >
</g>
</g>
<g style="fill:#FFFFFF; fill-opacity:1.0000; 
stroke:#FFFFFF; stroke-width:0.0212; stroke-opacity:1; 
stroke-linecap:round; stroke-linejoin:round;">
<g >
</g>
<g >
</g>
<g >
</g>
<g >
</g>
</g>
<g style="fill:#FFFFFF; fill-opacity:1.0000; 
stroke:#FFFFFF; stroke-width:0.0212; stroke-opacity:1; 
stroke-linecap:round; stroke-linejoin:round;">
<g >
</g>
<g >
</g>
<g >
</g>
<g >
</g>
</g>
<g style="fill:#FFFFFF; fill-opacity:1.0000; 
stroke:#FFFFFF; stroke-width:0.0212; stroke-opacity:1; 
stroke-linecap:round; stroke-linejoin:round;">
<g >
</g>
<g >
</g>
<g >
</g>
<g >
</g>
</g>
<g style="fill:#FFFFFF; fill-opacity:1.0000; 
stroke:#FFFFFF; stroke-width:0.0212; stroke-opacity:1; 
stroke-linecap:round; stroke-linejoin:round;">
<g >
</g>
<g >
</g>
<g >
</g>
<g >
</g>
</g>
<g style="fill:#FFFFFF; fill-opacity:1.0000; 
stroke:#FFFFFF; stroke-width:0.0212; stroke-opacity:1; 
stroke-linecap:round; stroke-linejoin:round;">
<g >
</g>
<g >
</g>
<g >
</g>
<g >
</g>
</g>
<g style="fill:#FFFFFF; fill-opacity:1.0000; 
stroke:#FFFFFF; stroke-width:0.0212; stroke-opacity:1; 
stroke-linecap:round; stroke-linejoin:round;">
<g >
</g>
<g >
</g>
<g >
</g>
<g >
</g>
</g>
<g style="fill:#FFFFFF; fill-opacity:1.0000; 
stroke:#FFFFFF; stroke-width:0.0212; stroke-opacity:1; 
stroke-linecap:round; stroke-linejoin:round;">
<g >
</g>
<g >
</g>
<g >
</g>
<g >
</g>
</g>
<g style="fill:#FFFFFF; fill-opacity:1.0000; 
stroke:#FFFFFF; stroke-width:0.0212; stroke-opacity:1; 
stroke-linecap:round; stroke-linejoin:round;">
<g >
</g>
<g >
</g>
<g >
</g>
<g >
</g>
</g>
<g style="fill:#FFFFFF; fill-opacity:1.0000; 
stroke:#FFFFFF; stroke-width:0.0212; stroke-opacity:1; 
stroke-linecap:round; stroke-linejoin:round;">
<g >
</g>
<g >
</g>
<g >
</g>
<g >
</g>
</g>
<g style="fill:#FFFFFF; fill-opacity:1.0000; 
stroke:#FFFFFF; stroke-width:0.0212; stroke-opacity:1; 
stroke-linecap:round; stroke-linejoin:round;">
<g >
</g>
<g >
</g>
<g >
</g>
<g >
</g>
</g>
<g style="fill:#FFFFFF; fill-opacity:1.0000; 
stroke:#FFFFFF; stroke-width:0.0212; stroke-opacity:1; 
stroke-linecap:round; stroke-linejoin:round;">
<g >
</g>
<g >
</g>
<g >
</g>
<g >
</g>
</g>
<g style="fill:#FFFFFF; fill-opacity:1.0000; 
stroke:#FFFFFF; stroke-width:0.0212; stroke-opacity:1; 
stroke-linecap:round; stroke-linejoin:round;">
<g >
</g>
<g >
</g>
<g >
</g>
<g >
</g>
</g>
<g style="fill:#FFFFFF; fill-opacity:1.0000; 
stroke:#FFFFFF; stroke-width:0.0212; stroke-opacity:1; 
stroke-linecap:round; stroke-linejoin:round;">
<g >
</g>
<g >
</g>
<g >
</g>
<g >
</g>
</g>
<g style="fill:#FFFFFF; fill-opacity:1.0000; 
stroke:#FFFFFF; stroke-width:0.0212; stroke-opacity:1; 
stroke-linecap:round; stroke-linejoin:round;">
<g >
</g>
<g >
</g>
<g >
</g>
<g >
</g>
</g>
<g style="fill:#FFFFFF; fill-opacity:1.0000; 
stroke:#FFFFFF; stroke-width:0.0212; stroke-opacity:1; 
stroke-linecap:round; stroke-linejoin:round;">
<g >
</g>
<g >
</g>
<g >
</g>
<g >
</g>
</g>
<g style="fill:#FFFFFF; fill-opacity:1.0000; 
stroke:#FFFFFF; stroke-width:0.0212; stroke-opacity:1; 
stroke-linecap:round; stroke-linejoin:round;">
<g >
</g>
<g >
</g>
<g >
</g>
<g >
</g>
</g>
<g style="fill:#FFFFFF; fill-opacity:1.0000; 
stroke:#FFFFFF; stroke-width:0.0212; stroke-opacity:1; 
stroke-linecap:round; stroke-linejoin:round;">
<g >
</g>
<g >
</g>
<g >
</g>
<g >
</g>
</g>
<g style="fill:#FFFFFF; fill-opacity:1.0000; 
stroke:#FFFFFF; stroke-width:0.0212; stroke-opacity:1; 
stroke-linecap:round; stroke-linejoin:round;">
<g >
</g>
<g >
</g>
<g >
</g>
<g >
</g>
</g>
<g style="fill:#FFFFFF; fill-opacity:1.0000; 
stroke:#FFFFFF; stroke-width:0.0212; stroke-opacity:1; 
stroke-linecap:round; stroke-linejoin:round;">
<g >
</g>
<g >
</g>
<g >
</g>
<g >
</g>
</g>
<g style="fill:#FFFFFF; fill-opacity:1.0000; 
stroke:#FFFFFF; stroke-width:0.0212; stroke-opacity:1; 
stroke-linecap:round; stroke-linejoin:round;">
<g >
</g>
<g >
</g>
<g >
</g>
<g >
</g>
</g>
<g style="fill:#FFFFFF; fill-opacity:1.0000; 
stroke:#FFFFFF; stroke-width:0.0212; stroke-opacity:1; 
stroke-linecap:round; stroke-linejoin:round;">
<g >
</g>
<g >
</g>
<g >
</g>
<g >
</g>
</g>
<g style="fill:#FFFFFF; fill-opacity:1.0000; 
stroke:#FFFFFF; stroke-width:0.0212; stroke-opacity:1; 
stroke-linecap:round; stroke-linejoin:round;">
<g >
</g>
<g >
</g>
<g >
</g>
<g >
</g>
</g>
<g style="fill:#FFFFFF; fill-opacity:1.0000; 
stroke:#FFFFFF; stroke-width:0.0212; stroke-opacity:1; 
stroke-linecap:round; stroke-linejoin:round;">
<g >
</g>
<g >
</g>
<g >
</g>
<g >
</g>
</g>
<g style="fill:#FFFFFF; fill-opacity:1.0000; 
stroke:#FFFFFF; stroke-width:0.0212; stroke-opacity:1; 
stroke-linecap:round; stroke-linejoin:round;">
<g >
</g>
<g >
</g>
<g >
</g>
<g >
</g>
</g>
<g style="fill:#FFFFFF; fill-opacity:1.0000; 
stroke:#FFFFFF; stroke-width:0.0212; stroke-opacity:1; 
stroke-linecap:round; stroke-linejoin:round;">
<g >
</g>
<g >
</g>
<g >
</g>
<g >
</g>
</g>
<g style="fill:#FFFFFF; fill-opacity:1.0000; 
stroke:#FFFFFF; stroke-width:0.0212; stroke-opacity:1; 
stroke-linecap:round; stroke-linejoin:round;">
<g >
</g>
<g >
</g>
<g >
</g>
<g >
</g>
</g>
<g style="fill:#FFFFFF; fill-opacity:1.0000; 
stroke:#FFFFFF; stroke-width:0.0212; stroke-opacity:1; 
stroke-linecap:round; stroke-linejoin:round;">
<g >
</g>
<g >
</g>
<g >
</g>
<g >
</g>
</g>
<g style="fill:#FFFFFF; fill-opacity:1.0000; 
stroke:#FFFFFF; stroke-width:0.0212; stroke-opacity:1; 
stroke-linecap:round; stroke-linejoin:round;">
<g >
</g>
<g >
</g>
<g >
</g>
<g >
</g>
</g>
<g style="fill:#FFFFFF; fill-opacity:1.0000; 
stroke:#FFFFFF; stroke-width:0.0212; stroke-opacity:1; 
stroke-linecap:round; stroke-linejoin:round;">
<g >
</g>
<g >
</g>
<g >
</g>
<g >
</g>
</g>
<g style="fill:#FFFFFF; fill-opacity:1.0000; 
stroke:#FFFFFF; stroke-width:0.0212; stroke-opacity:1; 
stroke-linecap:round; stroke-linejoin:round;">
<g >
</g>
<g >
</g>
<g >
</g>
<g >
</g>
</g>
<g style="fill:#FFFFFF; fill-opacity:1.0000; 
stroke:#FFFFFF; stroke-width:0.0212; stroke-opacity:1; 
stroke-linecap:round; stroke-linejoin:round;">
<g >
</g>
<g >
</g>
<g >
</g>
<g >
</g>
</g>
<g style="fill:#FFFFFF; fill-opacity:1.0000; 
stroke:#FFFFFF; stroke-width:0.0212; stroke-opacity:1; 
stroke-linecap:round; stroke-linejoin:round;">
<g >
</g>
<g style="fill:#37CBCB; fill-opacity:1.0000; 
stroke:#37CBCB; stroke-width:0.0212; stroke-opacity:1; 
stroke-linecap:round; stroke-linejoin:round;">
</g>
<g style="fill:#37CBCB; fill-opacity:1.0000; 
stroke:#37CBCB; stroke-width:0.0000; stroke-opacity:1; 
stroke-linecap:round; stroke-linejoin:round;">
<path style="fill:#37CBCB; fill-opacity:1.0000; 
stroke:#37CBCB; stroke-width:0.0000; stroke-opacity:1; 
stroke-linecap:round; stroke-linejoin:round;fill-rule:evenodd;"
d="M 13.7024,2.8558
13.7071,2.8318
13.7207,2.8116
13.7410,2.7980
13.7649,2.7933
14.5149,2.7933
14.5388,2.7980
14.5591,2.8116
14.5726,2.8318
14.5774,2.8558
14.5774,2.9808
14.5726,3.0047
14.5591,3.0249
14.5388,3.0385
14.5149,3.0433
13.7649,3.0433
13.7410,3.0385
13.7207,3.0249
13.7071,3.0047
13.7024,2.9808
Z" /> 
<path style="fill:#37CBCB; fill-opacity:1.0000; 
stroke:#37CBCB; stroke-width:0.0000; stroke-opacity:1; 
stroke-linecap:round; stroke-linejoin:round;fill-rule:evenodd;"
d="M 13.7024,3.3558
13.7071,3.3318
13.7207,3.3116
13.7410,3.2980
13.7649,3.2933
14.5149,3.2933
14.5388,3.2980
14.5591,3.3116
14.5726,3.3318
14.5774,3.3558
14.5774,3.4808
14.5726,3.5047
14.5591,3.5249
14.5388,3.5385
14.5149,3.5433
13.7649,3.5433
13.7410,3.5385
13.7207,3.5249
13.7071,3.5047
13.7024,3.4808
Z" /> 
<path style="fill:#37CBCB; fill-opacity:1.0000; 
stroke:#37CBCB; stroke-width:0.0000; stroke-opacity:1; 
stroke-linecap:round; stroke-linejoin:round;fill-rule:evenodd;"
d="M 13.7024,3.8558
13.7071,3.8318
13.7207,3.8116
13.7410,3.7980
13.7649,3.7933
14.5149,3.7933
14.5388,3.7980
14.5591,3.8116
14.5726,3.8318
14.5774,3.8558
14.5774,3.9808
14.5726,4.0047
14.5591,4.0249
14.5388,4.0385
14.5149,4.0432
13.7649,4.0432
13.7410,4.0385
13.7207,4.0249
13.7071,4.0047
13.7024,3.9808
Z" /> 
<path style="fill:#37CBCB; fill-opacity:1.0000; 
stroke:#37CBCB; stroke-width:0.0000; stroke-opacity:1; 
stroke-linecap:round; stroke-linejoin:round;fill-rule:evenodd;"
d="M 13.7024,4.3557
13.7071,4.3318
13.7207,4.3116
13.7410,4.2980
13.7649,4.2932
14.5149,4.2932
14.5388,4.2980
14.5591,4.3116
14.5726,4.3318
14.5774,4.3557
14.5774,4.4807
14.5726,4.5047
14.5591,4.5249
14.5388,4.5385
14.5149,4.5432
13.7649,4.5432
13.7410,4.5385
13.7207,4.5249
13.7071,4.5047
13.7024,4.4807
Z" /> 
<path style="fill:#37CBCB; fill-opacity:1.0000; 
stroke:#37CBCB; stroke-width:0.0000; stroke-opacity:1; 
stroke-linecap:round; stroke-linejoin:round;fill-rule:evenodd;"
d="M 13.7024,4.8557
13.7071,4.8318
13.7207,4.8116
13.7410,4.7980
13.7649,4.7932
14.5149,4.7932
14.5388,4.7980
14.5591,4.8116
14.5726,4.8318
14.5774,4.8557
14.5774,4.9807
14.5726,5.0047
14.5591,5.0249
14.5388,5.0385
14.5149,5.0432
13.7649,5.0432
13.7410,5.0385
13.7207,5.0249
13.7071,5.0047
13.7024,4.9807
Z" /> 
<path style="fill:#37CBCB; fill-opacity:1.0000; 
stroke:#37CBCB; stroke-width:0.0000; stroke-opacity:1; 
stroke-linecap:round; stroke-linejoin:round;fill-rule:evenodd;"
d="M 13.7024,5.3557
13.7071,5.3318
13.7207,5.3116
13.7410,5.2980
13.7649,5.2932
14.5149,5.2932
14.5388,5.2980
14.5591,5.3116
14.5726,5.3318
14.5774,5.3557
14.5774,5.4807
14.5726,5.5047
14.5591,5.5249
14.5388,5.5385
14.5149,5.5432
13.7649,5.5432
13.7410,5.5385
13.7207,5.5249
13.7071,5.5047
13.7024,5.4807
Z" /> 
<path style="fill:#37CBCB; fill-opacity:1.0000; 
stroke:#37CBCB; stroke-width:0.0000; stroke-opacity:1; 
stroke-linecap:round; stroke-linejoin:round;fill-rule:evenodd;"
d="M 13.7024,5.8557
13.7071,5.8318
13.7207,5.8116
13.7410,5.7980
13.7649,5.7932
14.5149,5.7932
14.5388,5.7980
14.5591,5.8116
14.5726,5.8318
14.5774,5.8557
14.5774,5.9807
14.5726,6.0047
14.5591,6.0249
14.5388,6.0385
14.5149,6.0432
13.7649,6.0432
13.7410,6.0385
13.7207,6.0249
13.7071,6.0047
13.7024,5.9807
Z" /> 
<path style="fill:#37CBCB; fill-opacity:1.0000; 
stroke:#37CBCB; stroke-width:0.0000; stroke-opacity:1; 
stroke-linecap:round; stroke-linejoin:round;fill-rule:evenodd;"
d="M 13.7024,6.3557
13.7071,6.3318
13.7207,6.3116
13.7410,6.2980
13.7649,6.2932
14.5149,6.2932
14.5388,6.2980
14.5591,6.3116
14.5726,6.3318
14.5774,6.3557
14.5774,6.4807
14.5726,6.5047
14.5591,6.5249
14.5388,6.5385
14.5149,6.5432
13.7649,6.5432
13.7410,6.5385
13.7207,6.5249
13.7071,6.5047
13.7024,6.4807
Z" /> 
<path style="fill:#37CBCB; fill-opacity:1.0000; 
stroke:#37CBCB; stroke-width:0.0000; stroke-opacity:1; 
stroke-linecap:round; stroke-linejoin:round;fill-rule:evenodd;"
d="M 13.7024,6.8557
13.7071,6.8318
13.7207,6.8116
13.7410,6.7980
13.7649,6.7932
14.5149,6.7932
14.5388,6.7980
14.5591,6.8116
14.5726,6.8318
14.5774,6.8557
14.5774,6.9807
14.5726,7.0047
14.5591,7.0249
14.5388,7.0385
14.5149,7.0432
13.7649,7.0432
13.7410,7.0385
13.7207,7.0249
13.7071,7.0047
13.7024,6.9807
Z" /> 
<path style="fill:#37CBCB; fill-opacity:1.0000; 
stroke:#37CBCB; stroke-width:0.0000; stroke-opacity:1; 
stroke-linecap:round; stroke-linejoin:round;fill-rule:evenodd;"
d="M 13.7024,7.3557
13.7071,7.3318
13.7207,7.3116
13.7410,7.2980
13.7649,7.2932
14.5149,7.2932
14.5388,7.2980
14.5591,7.3116
14.5726,7.3318
14.5774,7.3557
14.5774,7.4807
14.5726,7.5047
14.5591,7.5249
14.5388,7.5385
14.5149,7.5432
13.7649,7.5432
13.7410,7.5385
13.7207,7.5249
13.7071,7.5047
13.7024,7.4807
Z" /> 
<path style="fill:#37CBCB; fill-opacity:1.0000; 
stroke:#37CBCB; stroke-width:0.0000; stroke-opacity:1; 
stroke-linecap:round; stroke-linejoin:round;fill-rule:evenodd;"
d="M 13.7024,7.8557
13.7071,7.8318
13.7207,7.8116
13.7410,7.7980
13.7649,7.7932
14.5149,7.7932
14.5388,7.7980
14.5591,7.8116
14.5726,7.8318
14.5774,7.8557
14.5774,7.9807
14.5726,8.0047
14.5591,8.0249
14.5388,8.0385
14.5149,8.0433
13.7649,8.0433
13.7410,8.0385
13.7207,8.0249
13.7071,8.0047
13.7024,7.9807
Z" /> 
<path style="fill:#37CBCB; fill-opacity:1.0000; 
stroke:#37CBCB; stroke-width:0.0000; stroke-opacity:1; 
stroke-linecap:round; stroke-linejoin:round;fill-rule:evenodd;"
d="M 13.7024,8.3558
13.7071,8.3318
13.7207,8.3116
13.7410,8.2980
13.7649,8.2933
14.5149,8.2933
14.5388,8.2980
14.5591,8.3116
14.5726,8.3318
14.5774,8.3558
14.5774,8.4808
14.5726,8.5047
14.5591,8.5249
14.5388,8.5385
14.5149,8.5433
13.7649,8.5433
13.7410,8.5385
13.7207,8.5249
13.7071,8.5047
13.7024,8.4808
Z" /> 
<path style="fill:#37CBCB; fill-opacity:1.0000; 
stroke:#37CBCB; stroke-width:0.0000; stroke-opacity:1; 
stroke-linecap:round; stroke-linejoin:round;fill-rule:evenodd;"
d="M 14.7024,8.7308
14.7071,8.7068
14.7207,8.6866
14.7410,8.6730
14.7649,8.6683
14.8899,8.6683
14.9138,8.6730
14.9341,8.6866
14.9476,8.7068
14.9524,8.7308
14.9524,9.4808
14.9476,9.5047
14.9341,9.5249
14.9138,9.5385
14.8899,9.5433
14.7649,9.5433
14.7410,9.5385
14.7207,9.5249
14.7071,9.5047
14.7024,9.4808
Z" /> 
<path style="fill:#37CBCB; fill-opacity:1.0000; 
stroke:#37CBCB; stroke-width:0.0000; stroke-opacity:1; 
stroke-linecap:round; stroke-linejoin:round;fill-rule:evenodd;"
d="M 15.2024,8.7308
15.2071,8.7068
15.2207,8.6866
15.2410,8.6730
15.2649,8.6683
15.3899,8.6683
15.4138,8.6730
15.4341,8.6866
15.4476,8.7068
15.4524,8.7308
15.4524,9.4808
15.4476,9.5047
15.4341,9.5249
15.4138,9.5385
15.3899,9.5433
15.2649,9.5433
15.2410,9.5385
15.2207,9.5249
15.2071,9.5047
15.2024,9.4808
Z" /> 
<path style="fill:#37CBCB; fill-opacity:1.0000; 
stroke:#37CBCB; stroke-width:0.0000; stroke-opacity:1; 
stroke-linecap:round; stroke-linejoin:round;fill-rule:evenodd;"
d="M 15.7024,8.7308
15.7071,8.7068
15.7207,8.6866
15.7410,8.6730
15.7649,8.6683
15.8899,8.6683
15.9138,8.6730
15.9341,8.6866
15.9476,8.7068
15.9524,8.7308
15.9524,9.4808
15.9476,9.5047
15.9341,9.5249
15.9138,9.5385
15.8899,9.5433
15.7649,9.5433
15.7410,9.5385
15.7207,9.5249
15.7071,9.5047
15.7024,9.4808
Z" /> 
<path style="fill:#37CBCB; fill-opacity:1.0000; 
stroke:#37CBCB; stroke-width:0.0000; stroke-opacity:1; 
stroke-linecap:round; stroke-linejoin:round;fill-rule:evenodd;"
d="M 16.2024,8.7308
16.2071,8.7068
16.2207,8.6866
16.2410,8.6730
16.2649,8.6683
16.3899,8.6683
16.4138,8.6730
16.4341,8.6866
16.4476,8.7068
16.4524,8.7308
16.4524,9.4808
16.4476,9.5047
16.4341,9.5249
16.4138,9.5385
16.3899,9.5433
16.2649,9.5433
16.2410,9.5385
16.2207,9.5249
16.2071,9.5047
16.2024,9.4808
Z" /> 
<path style="fill:#37CBCB; fill-opacity:1.0000; 
stroke:#37CBCB; stroke-width:0.0000; stroke-opacity:1; 
stroke-linecap:round; stroke-linejoin:round;fill-rule:evenodd;"
d="M 16.7024,8.7308
16.7071,8.7068
16.7207,8.6866
16.7410,8.6730
16.7649,8.6683
16.8899,8.6683
16.9138,8.6730
16.9341,8.6866
16.9476,8.7068
16.9524,8.7308
16.9524,9.4808
16.9476,9.5047
16.9341,9.5249
16.9138,9.5385
16.8899,9.5433
16.7649,9.5433
16.7410,9.5385
16.7207,9.5249
16.7071,9.5047
16.7024,9.4808
Z" /> 
<path style="fill:#37CBCB; fill-opacity:1.0000; 
stroke:#37CBCB; stroke-width:0.0000; stroke-opacity:1; 
stroke-linecap:round; stroke-linejoin:round;fill-rule:evenodd;"
d="M 17.2024,8.7308
17.2071,8.7068
17.2207,8.6866
17.2410,8.6730
17.2649,8.6683
17.3899,8.6683
17.4138,8.6730
17.4341,8.6866
17.4476,8.7068
17.4524,8.7308
17.4524,9.4808
17.4476,9.5047
17.4341,9.5249
17.4138,9.5385
17.3899,9.5433
17.2649,9.5433
17.2410,9.5385
17.2207,9.5249
17.2071,9.5047
17.2024,9.4808
Z" /> 
<path style="fill:#37CBCB; fill-opacity:1.0000; 
stroke:#37CBCB; stroke-width:0.0000; stroke-opacity:1; 
stroke-linecap:round; stroke-linejoin:round;fill-rule:evenodd;"
d="M 17.7024,8.7308
17.7071,8.7068
17.7207,8.6866
17.7410,8.6730
17.7649,8.6683
17.8899,8.6683
17.9138,8.6730
17.9341,8.6866
17.9476,8.7068
17.9524,8.7308
17.9524,9.4808
17.9476,9.5047
17.9341,9.5249
17.9138,9.5385
17.8899,9.5433
17.7649,9.5433
17.7410,9.5385
17.7207,9.5249
17.7071,9.5047
17.7024,9.4808
Z" /> 
<path style="fill:#37CBCB; fill-opacity:1.0000; 
stroke:#37CBCB; stroke-width:0.0000; stroke-opacity:1; 
stroke-linecap:round; stroke-linejoin:round;fill-rule:evenodd;"
d="M 18.2024,8.7308
18.2071,8.7068
18.2207,8.6866
18.2410,8.6730
18.2649,8.6683
18.3899,8.6683
18.4138,8.6730
18.4341,8.6866
18.4476,8.7068
18.4524,8.7308
18.4524,9.4808
18.4476,9.5047
18.4341,9.5249
18.4138,9.5385
18.3899,9.5433
18.2649,9.5433
18.2410,9.5385
18.2207,9.5249
18.2071,9.5047
18.2024,9.4808
Z" /> 
<path style="fill:#37CBCB; fill-opacity:1.0000; 
stroke:#37CBCB; stroke-width:0.0000; stroke-opacity:1; 
stroke-linecap:round; stroke-linejoin:round;fill-rule:evenodd;"
d="M 18.7024,8.7308
18.7071,8.7068
18.7207,8.6866
18.7410,8.6730
18.7649,8.6683
18.8899,8.6683
18.9138,8.6730
18.9341,8.6866
18.9476,8.7068
18.9524,8.7308
18.9524,9.4808
18.9476,9.5047
18.9341,9.5249
18.9138,9.5385
18.8899,9.5433
18.7649,9.5433
18.7410,9.5385
18.7207,9.5249
18.7071,9.5047
18.7024,9.4808
Z" /> 
<path style="fill:#37CBCB; fill-opacity:1.0000; 
stroke:#37CBCB; stroke-width:0.0000; stroke-opacity:1; 
stroke-linecap:round; stroke-linejoin:round;fill-rule:evenodd;"
d="M 19.2024,8.7308
19.2071,8.7068
19.2207,8.6866
19.2410,8.6730
19.2649,8.6683
19.3899,8.6683
19.4138,8.6730
19.4341,8.6866
19.4476,8.7068
19.4524,8.7308
19.4524,9.4808
19.4476,9.5047
19.4341,9.5249
19.4138,9.5385
19.3899,9.5433
19.2649,9.5433
19.2410,9.5385
19.2207,9.5249
19.2071,9.5047
19.2024,9.4808
Z" /> 
<path style="fill:#37CBCB; fill-opacity:1.0000; 
stroke:#37CBCB; stroke-width:0.0000; stroke-opacity:1; 
stroke-linecap:round; stroke-linejoin:round;fill-rule:evenodd;"
d="M 19.7024,8.7308
19.7071,8.7068
19.7207,8.6866
19.7410,8.6730
19.7649,8.6683
19.8899,8.6683
19.9138,8.6730
19.9341,8.6866
19.9476,8.7068
19.9524,8.7308
19.9524,9.4808
19.9476,9.5047
19.9341,9.5249
19.9138,9.5385
19.8899,9.5433
19.7649,9.5433
19.7410,9.5385
19.7207,9.5249
19.7071,9.5047
19.7024,9.4808
Z" /> 
<path style="fill:#37CBCB; fill-opacity:1.0000; 
stroke:#37CBCB; stroke-width:0.0000; stroke-opacity:1; 
stroke-linecap:round; stroke-linejoin:round;fill-rule:evenodd;"
d="M 20.2024,8.7308
20.2071,8.7068
20.2207,8.6866
20.2410,8.6730
20.2649,8.6683
20.3899,8.6683
20.4138,8.6730
20.4341,8.6866
20.4476,8.7068
20.4524,8.7308
20.4524,9.4808
20.4476,9.5047
20.4341,9.5249
20.4138,9.5385
20.3899,9.5433
20.2649,9.5433
20.2410,9.5385
20.2207,9.5249
20.2071,9.5047
20.2024,9.4808
Z" /> 
<path style="fill:#37CBCB; fill-opacity:1.0000; 
stroke:#37CBCB; stroke-width:0.0000; stroke-opacity:1; 
stroke-linecap:round; stroke-linejoin:round;fill-rule:evenodd;"
d="M 20.5774,8.3558
20.5821,8.3318
20.5957,8.3116
20.6160,8.2980
20.6399,8.2933
21.3899,8.2933
21.4138,8.2980
21.4341,8.3116
21.4476,8.3318
21.4524,8.3558
21.4524,8.4808
21.4476,8.5047
21.4341,8.5249
21.4138,8.5385
21.3899,8.5433
20.6399,8.5433
20.6160,8.5385
20.5957,8.5249
20.5821,8.5047
20.5774,8.4808
Z" /> 
<path style="fill:#37CBCB; fill-opacity:1.0000; 
stroke:#37CBCB; stroke-width:0.0000; stroke-opacity:1; 
stroke-linecap:round; stroke-linejoin:round;fill-rule:evenodd;"
d="M 20.5774,7.8557
20.5821,7.8318
20.5957,7.8116
20.6160,7.7980
20.6399,7.7932
21.3899,7.7932
21.4138,7.7980
21.4341,7.8116
21.4476,7.8318
21.4524,7.8557
21.4524,7.9807
21.4476,8.0047
21.4341,8.0249
21.4138,8.0385
21.3899,8.0433
20.6399,8.0433
20.6160,8.0385
20.5957,8.0249
20.5821,8.0047
20.5774,7.9807
Z" /> 
<path style="fill:#37CBCB; fill-opacity:1.0000; 
stroke:#37CBCB; stroke-width:0.0000; stroke-opacity:1; 
stroke-linecap:round; stroke-linejoin:round;fill-rule:evenodd;"
d="M 20.5774,7.3557
20.5821,7.3318
20.5957,7.3116
20.6160,7.2980
20.6399,7.2932
21.3899,7.2932
21.4138,7.2980
21.4341,7.3116
21.4476,7.3318
21.4524,7.3557
21.4524,7.4807
21.4476,7.5047
21.4341,7.5249
21.4138,7.5385
21.3899,7.5432
20.6399,7.5432
20.6160,7.5385
20.5957,7.5249
20.5821,7.5047
20.5774,7.4807
Z" /> 
<path style="fill:#37CBCB; fill-opacity:1.0000; 
stroke:#37CBCB; stroke-width:0.0000; stroke-opacity:1; 
stroke-linecap:round; stroke-linejoin:round;fill-rule:evenodd;"
d="M 20.5774,6.8557
20.5821,6.8318
20.5957,6.8116
20.6160,6.7980
20.6399,6.7932
21.3899,6.7932
21.4138,6.7980
21.4341,6.8116
21.4476,6.8318
21.4524,6.8557
21.4524,6.9807
21.4476,7.0047
21.4341,7.0249
21.4138,7.0385
21.3899,7.0432
20.6399,7.0432
20.6160,7.0385
20.5957,7.0249
20.5821,7.0047
20.5774,6.9807
Z" /> 
<path style="fill:#37CBCB; fill-opacity:1.0000; 
stroke:#37CBCB; stroke-width:0.0000; stroke-opacity:1; 
stroke-linecap:round; stroke-linejoin:round;fill-rule:evenodd;"
d="M 20.5774,6.3557
20.5821,6.3318
20.5957,6.3116
20.6160,6.2980
20.6399,6.2932
21.3899,6.2932
21.4138,6.2980
21.4341,6.3116
21.4476,6.3318
21.4524,6.3557
21.4524,6.4807
21.4476,6.5047
21.4341,6.5249
21.4138,6.5385
21.3899,6.5432
20.6399,6.5432
20.6160,6.5385
20.5957,6.5249
20.5821,6.5047
20.5774,6.4807
Z" /> 
<path style="fill:#37CBCB; fill-opacity:1.0000; 
stroke:#37CBCB; stroke-width:0.0000; stroke-opacity:1; 
stroke-linecap:round; stroke-linejoin:round;fill-rule:evenodd;"
d="M 20.5774,5.8557
20.5821,5.8318
20.5957,5.8116
20.6160,5.7980
20.6399,5.7932
21.3899,5.7932
21.4138,5.7980
21.4341,5.8116
21.4476,5.8318
21.4524,5.8557
21.4524,5.9807
21.4476,6.0047
21.4341,6.0249
21.4138,6.0385
21.3899,6.0432
20.6399,6.0432
20.6160,6.0385
20.5957,6.0249
20.5821,6.0047
20.5774,5.9807
Z" /> 
<path style="fill:#37CBCB; fill-opacity:1.0000; 
stroke:#37CBCB; stroke-width:0.0000; stroke-opacity:1; 
stroke-linecap:round; stroke-linejoin:round;fill-rule:evenodd;"
d="M 20.5774,5.3557
20.5821,5.3318
20.5957,5.3116
20.6160,5.2980
20.6399,5.2932
21.3899,5.2932
21.4138,5.2980
21.4341,5.3116
21.4476,5.3318
21.4524,5.3557
21.4524,5.4807
21.4476,5.5047
21.4341,5.5249
21.4138,5.5385
21.3899,5.5432
20.6399,5.5432
20.6160,5.5385
20.5957,5.5249
20.5821,5.5047
20.5774,5.4807
Z" /> 
<path style="fill:#37CBCB; fill-opacity:1.0000; 
stroke:#37CBCB; stroke-width:0.0000; stroke-opacity:1; 
stroke-linecap:round; stroke-linejoin:round;fill-rule:evenodd;"
d="M 20.5774,4.8557
20.5821,4.8318
20.5957,4.8116
20.6160,4.7980
20.6399,4.7932
21.3899,4.7932
21.4138,4.7980
21.4341,4.8116
21.4476,4.8318
21.4524,4.8557
21.4524,4.9807
21.4476,5.0047
21.4341,5.0249
21.4138,5.0385
21.3899,5.0432
20.6399,5.0432
20.6160,5.0385
20.5957,5.0249
20.5821,5.0047
20.5774,4.9807
Z" /> 
<path style="fill:#37CBCB; fill-opacity:1.0000; 
stroke:#37CBCB; stroke-width:0.0000; stroke-opacity:1; 
stroke-linecap:round; stroke-linejoin:round;fill-rule:evenodd;"
d="M 20.5774,4.3557
20.5821,4.3318
20.5957,4.3116
20.6160,4.2980
20.6399,4.2932
21.3899,4.2932
21.4138,4.2980
21.4341,4.3116
21.4476,4.3318
21.4524,4.3557
21.4524,4.4807
21.4476,4.5047
21.4341,4.5249
21.4138,4.5385
21.3899,4.5432
20.6399,4.5432
20.6160,4.5385
20.5957,4.5249
20.5821,4.5047
20.5774,4.4807
Z" /> 
<path style="fill:#37CBCB; fill-opacity:1.0000; 
stroke:#37CBCB; stroke-width:0.0000; stroke-opacity:1; 
stroke-linecap:round; stroke-linejoin:round;fill-rule:evenodd;"
d="M 20.5774,3.8558
20.5821,3.8318
20.5957,3.8116
20.6160,3.7980
20.6399,3.7933
21.3899,3.7933
21.4138,3.7980
21.4341,3.8116
21.4476,3.8318
21.4524,3.8558
21.4524,3.9808
21.4476,4.0047
21.4341,4.0249
21.4138,4.0385
21.3899,4.0432
20.6399,4.0432
20.6160,4.0385
20.5957,4.0249
20.5821,4.0047
20.5774,3.9808
Z" /> 
<path style="fill:#37CBCB; fill-opacity:1.0000; 
stroke:#37CBCB; stroke-width:0.0000; stroke-opacity:1; 
stroke-linecap:round; stroke-linejoin:round;fill-rule:evenodd;"
d="M 20.5774,3.3558
20.5821,3.3318
20.5957,3.3116
20.6160,3.2980
20.6399,3.2933
21.3899,3.2933
21.4138,3.2980
21.4341,3.3116
21.4476,3.3318
21.4524,3.3558
21.4524,3.4808
21.4476,3.5047
21.4341,3.5249
21.4138,3.5385
21.3899,3.5433
20.6399,3.5433
20.6160,3.5385
20.5957,3.5249
20.5821,3.5047
20.5774,3.4808
Z" /> 
<path style="fill:#37CBCB; fill-opacity:1.0000; 
stroke:#37CBCB; stroke-width:0.0000; stroke-opacity:1; 
stroke-linecap:round; stroke-linejoin:round;fill-rule:evenodd;"
d="M 20.5774,2.8558
20.5821,2.8318
20.5957,2.8116
20.6160,2.7980
20.6399,2.7933
21.3899,2.7933
21.4138,2.7980
21.4341,2.8116
21.4476,2.8318
21.4524,2.8558
21.4524,2.9808
21.4476,3.0047
21.4341,3.0249
21.4138,3.0385
21.3899,3.0433
20.6399,3.0433
20.6160,3.0385
20.5957,3.0249
20.5821,3.0047
20.5774,2.9808
Z" /> 
<path style="fill:#37CBCB; fill-opacity:1.0000; 
stroke:#37CBCB; stroke-width:0.0000; stroke-opacity:1; 
stroke-linecap:round; stroke-linejoin:round;fill-rule:evenodd;"
d="M 20.2024,1.8558
20.2071,1.8318
20.2207,1.8116
20.2410,1.7980
20.2649,1.7933
20.3899,1.7933
20.4138,1.7980
20.4341,1.8116
20.4476,1.8318
20.4524,1.8558
20.4524,2.6058
20.4476,2.6297
20.4341,2.6499
20.4138,2.6635
20.3899,2.6683
20.2649,2.6683
20.2410,2.6635
20.2207,2.6499
20.2071,2.6297
20.2024,2.6058
Z" /> 
<path style="fill:#37CBCB; fill-opacity:1.0000; 
stroke:#37CBCB; stroke-width:0.0000; stroke-opacity:1; 
stroke-linecap:round; stroke-linejoin:round;fill-rule:evenodd;"
d="M 19.7024,1.8558
19.7071,1.8318
19.7207,1.8116
19.7410,1.7980
19.7649,1.7933
19.8899,1.7933
19.9138,1.7980
19.9341,1.8116
19.9476,1.8318
19.9524,1.8558
19.9524,2.6058
19.9476,2.6297
19.9341,2.6499
19.9138,2.6635
19.8899,2.6683
19.7649,2.6683
19.7410,2.6635
19.7207,2.6499
19.7071,2.6297
19.7024,2.6058
Z" /> 
<path style="fill:#37CBCB; fill-opacity:1.0000; 
stroke:#37CBCB; stroke-width:0.0000; stroke-opacity:1; 
stroke-linecap:round; stroke-linejoin:round;fill-rule:evenodd;"
d="M 19.2024,1.8558
19.2071,1.8318
19.2207,1.8116
19.2410,1.7980
19.2649,1.7933
19.3899,1.7933
19.4138,1.7980
19.4341,1.8116
19.4476,1.8318
19.4524,1.8558
19.4524,2.6058
19.4476,2.6297
19.4341,2.6499
19.4138,2.6635
19.3899,2.6683
19.2649,2.6683
19.2410,2.6635
19.2207,2.6499
19.2071,2.6297
19.2024,2.6058
Z" /> 
<path style="fill:#37CBCB; fill-opacity:1.0000; 
stroke:#37CBCB; stroke-width:0.0000; stroke-opacity:1; 
stroke-linecap:round; stroke-linejoin:round;fill-rule:evenodd;"
d="M 18.7024,1.8558
18.7071,1.8318
18.7207,1.8116
18.7410,1.7980
18.7649,1.7933
18.8899,1.7933
18.9138,1.7980
18.9341,1.8116
18.9476,1.8318
18.9524,1.8558
18.9524,2.6058
18.9476,2.6297
18.9341,2.6499
18.9138,2.6635
18.8899,2.6683
18.7649,2.6683
18.7410,2.6635
18.7207,2.6499
18.7071,2.6297
18.7024,2.6058
Z" /> 
<path style="fill:#37CBCB; fill-opacity:1.0000; 
stroke:#37CBCB; stroke-width:0.0000; stroke-opacity:1; 
stroke-linecap:round; stroke-linejoin:round;fill-rule:evenodd;"
d="M 18.2024,1.8558
18.2071,1.8318
18.2207,1.8116
18.2410,1.7980
18.2649,1.7933
18.3899,1.7933
18.4138,1.7980
18.4341,1.8116
18.4476,1.8318
18.4524,1.8558
18.4524,2.6058
18.4476,2.6297
18.4341,2.6499
18.4138,2.6635
18.3899,2.6683
18.2649,2.6683
18.2410,2.6635
18.2207,2.6499
18.2071,2.6297
18.2024,2.6058
Z" /> 
<path style="fill:#37CBCB; fill-opacity:1.0000; 
stroke:#37CBCB; stroke-width:0.0000; stroke-opacity:1; 
stroke-linecap:round; stroke-linejoin:round;fill-rule:evenodd;"
d="M 17.7024,1.8558
17.7071,1.8318
17.7207,1.8116
17.7410,1.7980
17.7649,1.7933
17.8899,1.7933
17.9138,1.7980
17.9341,1.8116
17.9476,1.8318
17.9524,1.8558
17.9524,2.6058
17.9476,2.6297
17.9341,2.6499
17.9138,2.6635
17.8899,2.6683
17.7649,2.6683
17.7410,2.6635
17.7207,2.6499
17.7071,2.6297
17.7024,2.6058
Z" /> 
<path style="fill:#37CBCB; fill-opacity:1.0000; 
stroke:#37CBCB; stroke-width:0.0000; stroke-opacity:1; 
stroke-linecap:round; stroke-linejoin:round;fill-rule:evenodd;"
d="M 17.2024,1.8558
17.2071,1.8318
17.2207,1.8116
17.2410,1.7980
17.2649,1.7933
17.3899,1.7933
17.4138,1.7980
17.4341,1.8116
17.4476,1.8318
17.4524,1.8558
17.4524,2.6058
17.4476,2.6297
17.4341,2.6499
17.4138,2.6635
17.3899,2.6683
17.2649,2.6683
17.2410,2.6635
17.2207,2.6499
17.2071,2.6297
17.2024,2.6058
Z" /> 
<path style="fill:#37CBCB; fill-opacity:1.0000; 
stroke:#37CBCB; stroke-width:0.0000; stroke-opacity:1; 
stroke-linecap:round; stroke-linejoin:round;fill-rule:evenodd;"
d="M 16.7024,1.8558
16.7071,1.8318
16.7207,1.8116
16.7410,1.7980
16.7649,1.7933
16.8899,1.7933
16.9138,1.7980
16.9341,1.8116
16.9476,1.8318
16.9524,1.8558
16.9524,2.6058
16.9476,2.6297
16.9341,2.6499
16.9138,2.6635
16.8899,2.6683
16.7649,2.6683
16.7410,2.6635
16.7207,2.6499
16.7071,2.6297
16.7024,2.6058
Z" /> 
<path style="fill:#37CBCB; fill-opacity:1.0000; 
stroke:#37CBCB; stroke-width:0.0000; stroke-opacity:1; 
stroke-linecap:round; stroke-linejoin:round;fill-rule:evenodd;"
d="M 16.2024,1.8558
16.2071,1.8318
16.2207,1.8116
16.2410,1.7980
16.2649,1.7933
16.3899,1.7933
16.4138,1.7980
16.4341,1.8116
16.4476,1.8318
16.4524,1.8558
16.4524,2.6058
16.4476,2.6297
16.4341,2.6499
16.4138,2.6635
16.3899,2.6683
16.2649,2.6683
16.2410,2.6635
16.2207,2.6499
16.2071,2.6297
16.2024,2.6058
Z" /> 
<path style="fill:#37CBCB; fill-opacity:1.0000; 
stroke:#37CBCB; stroke-width:0.0000; stroke-opacity:1; 
stroke-linecap:round; stroke-linejoin:round;fill-rule:evenodd;"
d="M 15.7024,1.8558
15.7071,1.8318
15.7207,1.8116
15.7410,1.7980
15.7649,1.7933
15.8899,1.7933
15.9138,1.7980
15.9341,1.8116
15.9476,1.8318
15.9524,1.8558
15.9524,2.6058
15.9476,2.6297
15.9341,2.6499
15.9138,2.6635
15.8899,2.6683
15.7649,2.6683
15.7410,2.6635
15.7207,2.6499
15.7071,2.6297
15.7024,2.6058
Z" /> 
<path style="fill:#37CBCB; fill-opacity:1.0000; 
stroke:#37CBCB; stroke-width:0.0000; stroke-opacity:1; 
stroke-linecap:round; stroke-linejoin:round;fill-rule:evenodd;"
d="M 15.2024,1.8558
15.2071,1.8318
15.2207,1.8116
15.2410,1.7980
15.2649,1.7933
15.3899,1.7933
15.4138,1.7980
15.4341,1.8116
15.4476,1.8318
15.4524,1.8558
15.4524,2.6058
15.4476,2.6297
15.4341,2.6499
15.4138,2.6635
15.3899,2.6683
15.2649,2.6683
15.2410,2.6635
15.2207,2.6499
15.2071,2.6297
15.2024,2.6058
Z" /> 
<path style="fill:#37CBCB; fill-opacity:1.0000; 
stroke:#37CBCB; stroke-width:0.0000; stroke-opacity:1; 
stroke-linecap:round; stroke-linejoin:round;fill-rule:evenodd;"
d="M 14.7024,1.8558
14.7071,1.8318
14.7207,1.8116
14.7410,1.7980
14.7649,1.7933
14.8899,1.7933
14.9138,1.7980
14.9341,1.8116
14.9476,1.8318
14.9524,1.8558
14.9524,2.6058
14.9476,2.6297
14.9341,2.6499
14.9138,2.6635
14.8899,2.6683
14.7649,2.6683
14.7410,2.6635
14.7207,2.6499
14.7071,2.6297
14.7024,2.6058
Z" /> 
<path style="fill:#37CBCB; fill-opacity:1.0000; 
stroke:#37CBCB; stroke-width:0.0000; stroke-opacity:1; 
stroke-linecap:round; stroke-linejoin:round;fill-rule:evenodd;"
d="M 15.5274,7.7182
15.5274,3.6182
19.6274,3.6182
19.6274,7.7182
Z" /> 
</g>
<g >
</g>
<g >
</g>
<g >
</g>
</g>
<g style="fill:#FFFFFF; fill-opacity:1.0000; 
stroke:#FFFFFF; stroke-width:0.0000; stroke-opacity:1; 
stroke-linecap:round; stroke-linejoin:round;">
<g >
</g>
<g style="fill:#4A5F65; fill-opacity:0.9000; 
stroke:#4A5F65; stroke-width:0.0000; stroke-opacity:1; 
stroke-linecap:round; stroke-linejoin:round;">
<path style="fill:#4A5F65; fill-opacity:0.9000; 
stroke:#4A5F65; stroke-width:0.0000; stroke-opacity:1; 
stroke-linecap:round; stroke-linejoin:round;fill-rule:evenodd;"
d="M 17.0274,5.3682
17.0464,5.2726
17.1006,5.1915
17.1817,5.1373
17.2774,5.1182
17.8774,5.1182
17.9731,5.1373
18.0542,5.1915
18.1083,5.2726
18.1274,5.3682
18.1274,5.9682
18.1083,6.0639
18.0542,6.1450
17.9731,6.1992
17.8774,6.2182
17.2774,6.2182
17.1817,6.1992
17.1006,6.1450
17.0464,6.0639
17.0274,5.9682
Z" /> 
<path style="fill:#4A5F65; fill-opacity:0.9000; 
stroke:#4A5F65; stroke-width:0.0000; stroke-opacity:1; 
stroke-linecap:round; stroke-linejoin:round;fill-rule:evenodd;"
d="M 15.6574,6.7382
15.6764,6.6426
15.7306,6.5615
15.8117,6.5073
15.9074,6.4882
16.5074,6.4882
16.6031,6.5073
16.6842,6.5615
16.7384,6.6426
16.7574,6.7382
16.7574,7.3382
16.7384,7.4339
16.6842,7.5150
16.6031,7.5692
16.5074,7.5882
15.9074,7.5882
15.8117,7.5692
15.7306,7.5150
15.6764,7.4339
15.6574,7.3382
Z" /> 
<path style="fill:#4A5F65; fill-opacity:0.9000; 
stroke:#4A5F65; stroke-width:0.0000; stroke-opacity:1; 
stroke-linecap:round; stroke-linejoin:round;fill-rule:evenodd;"
d="M 18.3974,5.3682
18.4164,5.2726
18.4706,5.1915
18.5517,5.1373
18.6474,5.1182
19.2474,5.1182
19.3431,5.1373
19.4242,5.1915
19.4783,5.2726
19.4974,5.3682
19.4974,5.9682
19.4783,6.0639
19.4242,6.1450
19.3431,6.1992
19.2474,6.2182
18.6474,6.2182
18.5517,6.1992
18.4706,6.1450
18.4164,6.0639
18.3974,5.9682
Z" /> 
<path style="fill:#4A5F65; fill-opacity:0.9000; 
stroke:#4A5F65; stroke-width:0.0000; stroke-opacity:1; 
stroke-linecap:round; stroke-linejoin:round;fill-rule:evenodd;"
d="M 18.3974,6.7382
18.4164,6.6426
18.4706,6.5615
18.5517,6.5073
18.6474,6.4882
19.2474,6.4882
19.3431,6.5073
19.4242,6.5615
19.4783,6.6426
19.4974,6.7382
19.4974,7.3382
19.4783,7.4339
19.4242,7.5150
19.3431,7.5692
19.2474,7.5882
18.6474,7.5882
18.5517,7.5692
18.4706,7.5150
18.4164,7.4339
18.3974,7.3382
Z" /> 
<path style="fill:#4A5F65; fill-opacity:0.9000; 
stroke:#4A5F65; stroke-width:0.0000; stroke-opacity:1; 
stroke-linecap:round; stroke-linejoin:round;fill-rule:evenodd;"
d="M 15.6574,5.3682
15.6764,5.2726
15.7306,5.1915
15.8117,5.1373
15.9074,5.1182
16.5074,5.1182
16.6031,5.1373
16.6842,5.1915
16.7384,5.2726
16.7574,5.3682
16.7574,5.9682
16.7384,6.0639
16.6842,6.1450
16.6031,6.1992
16.5074,6.2182
15.9074,6.2182
15.8117,6.1992
15.7306,6.1450
15.6764,6.0639
15.6574,5.9682
Z" /> 
<path style="fill:#4A5F65; fill-opacity:0.9000; 
stroke:#4A5F65; stroke-width:0.0000; stroke-opacity:1; 
stroke-linecap:round; stroke-linejoin:round;fill-rule:evenodd;"
d="M 17.0274,6.7382
17.0464,6.6426
17.1006,6.5615
17.1817,6.5073
17.2774,6.4882
17.8774,6.4882
17.9731,6.5073
18.0542,6.5615
18.1083,6.6426
18.1274,6.7382
18.1274,7.3382
18.1083,7.4339
18.0542,7.5150
17.9731,7.5692
17.8774,7.5882
17.2774,7.5882
17.1817,7.5692
17.1006,7.5150
17.0464,7.4339
17.0274,7.3382
Z" /> 
<path style="fill:#4A5F65; fill-opacity:0.9000; 
stroke:#4A5F65; stroke-width:0.0000; stroke-opacity:1; 
stroke-linecap:round; stroke-linejoin:round;fill-rule:evenodd;"
d="M 17.0274,3.9982
17.0464,3.9026
17.1006,3.8215
17.1817,3.7673
17.2774,3.7482
17.8774,3.7482
17.9731,3.7673
18.0542,3.8215
18.1083,3.9026
18.1274,3.9982
18.1274,4.5983
18.1083,4.6939
18.0542,4.7750
17.9731,4.8292
17.8774,4.8483
17.2774,4.8483
17.1817,4.8292
17.1006,4.7750
17.0464,4.6939
17.0274,4.5983
Z" /> 
<path style="fill:#4A5F65; fill-opacity:0.9000; 
stroke:#4A5F65; stroke-width:0.0000; stroke-opacity:1; 
stroke-linecap:round; stroke-linejoin:round;fill-rule:evenodd;"
d="M 18.3974,3.9982
18.4164,3.9026
18.4706,3.8215
18.5517,3.7673
18.6474,3.7482
19.2474,3.7482
19.3431,3.7673
19.4242,3.8215
19.4783,3.9026
19.4974,3.9982
19.4974,4.5983
19.4783,4.6939
19.4242,4.7750
19.3431,4.8292
19.2474,4.8483
18.6474,4.8483
18.5517,4.8292
18.4706,4.7750
18.4164,4.6939
18.3974,4.5983
Z" /> 
<path style="fill:#4A5F65; fill-opacity:0.9000; 
stroke:#4A5F65; stroke-width:0.0000; stroke-opacity:1; 
stroke-linecap:round; stroke-linejoin:round;fill-rule:evenodd;"
d="M 15.6574,3.9982
15.6764,3.9026
15.7306,3.8215
15.8117,3.7673
15.9074,3.7482
16.5074,3.7482
16.6031,3.7673
16.6842,3.8215
16.7384,3.9026
16.7574,3.9982
16.7574,4.5983
16.7384,4.6939
16.6842,4.7750
16.6031,4.8292
16.5074,4.8483
15.9074,4.8483
15.8117,4.8292
15.7306,4.7750
15.6764,4.6939
15.6574,4.5983
Z" /> 
<path style="fill:#4A5F65; fill-opacity:0.9000; 
stroke:#4A5F65; stroke-width:0.0000; stroke-opacity:1; 
stroke-linecap:round; stroke-linejoin:round;fill-rule:evenodd;"
d="M 13.7024,2.8558
13.7071,2.8318
13.7207,2.8116
13.7410,2.7980
13.7649,2.7933
14.5149,2.7933
14.5388,2.7980
14.5591,2.8116
14.5726,2.8318
14.5774,2.8558
14.5774,2.9808
14.5726,3.0047
14.5591,3.0249
14.5388,3.0385
14.5149,3.0433
13.7649,3.0433
13.7410,3.0385
13.7207,3.0249
13.7071,3.0047
13.7024,2.9808
Z" /> 
<path style="fill:#4A5F65; fill-opacity:0.9000; 
stroke:#4A5F65; stroke-width:0.0000; stroke-opacity:1; 
stroke-linecap:round; stroke-linejoin:round;fill-rule:evenodd;"
d="M 13.7024,3.3558
13.7071,3.3318
13.7207,3.3116
13.7410,3.2980
13.7649,3.2933
14.5149,3.2933
14.5388,3.2980
14.5591,3.3116
14.5726,3.3318
14.5774,3.3558
14.5774,3.4808
14.5726,3.5047
14.5591,3.5249
14.5388,3.5385
14.5149,3.5433
13.7649,3.5433
13.7410,3.5385
13.7207,3.5249
13.7071,3.5047
13.7024,3.4808
Z" /> 
<path style="fill:#4A5F65; fill-opacity:0.9000; 
stroke:#4A5F65; stroke-width:0.0000; stroke-opacity:1; 
stroke-linecap:round; stroke-linejoin:round;fill-rule:evenodd;"
d="M 13.7024,3.8558
13.7071,3.8318
13.7207,3.8116
13.7410,3.7980
13.7649,3.7933
14.5149,3.7933
14.5388,3.7980
14.5591,3.8116
14.5726,3.8318
14.5774,3.8558
14.5774,3.9808
14.5726,4.0047
14.5591,4.0249
14.5388,4.0385
14.5149,4.0432
13.7649,4.0432
13.7410,4.0385
13.7207,4.0249
13.7071,4.0047
13.7024,3.9808
Z" /> 
<path style="fill:#4A5F65; fill-opacity:0.9000; 
stroke:#4A5F65; stroke-width:0.0000; stroke-opacity:1; 
stroke-linecap:round; stroke-linejoin:round;fill-rule:evenodd;"
d="M 13.7024,4.3557
13.7071,4.3318
13.7207,4.3116
13.7410,4.2980
13.7649,4.2932
14.5149,4.2932
14.5388,4.2980
14.5591,4.3116
14.5726,4.3318
14.5774,4.3557
14.5774,4.4807
14.5726,4.5047
14.5591,4.5249
14.5388,4.5385
14.5149,4.5432
13.7649,4.5432
13.7410,4.5385
13.7207,4.5249
13.7071,4.5047
13.7024,4.4807
Z" /> 
<path style="fill:#4A5F65; fill-opacity:0.9000; 
stroke:#4A5F65; stroke-width:0.0000; stroke-opacity:1; 
stroke-linecap:round; stroke-linejoin:round;fill-rule:evenodd;"
d="M 13.7024,4.8557
13.7071,4.8318
13.7207,4.8116
13.7410,4.7980
13.7649,4.7932
14.5149,4.7932
14.5388,4.7980
14.5591,4.8116
14.5726,4.8318
14.5774,4.8557
14.5774,4.9807
14.5726,5.0047
14.5591,5.0249
14.5388,5.0385
14.5149,5.0432
13.7649,5.0432
13.7410,5.0385
13.7207,5.0249
13.7071,5.0047
13.7024,4.9807
Z" /> 
<path style="fill:#4A5F65; fill-opacity:0.9000; 
stroke:#4A5F65; stroke-width:0.0000; stroke-opacity:1; 
stroke-linecap:round; stroke-linejoin:round;fill-rule:evenodd;"
d="M 13.7024,5.3557
13.7071,5.3318
13.7207,5.3116
13.7410,5.2980
13.7649,5.2932
14.5149,5.2932
14.5388,5.2980
14.5591,5.3116
14.5726,5.3318
14.5774,5.3557
14.5774,5.4807
14.5726,5.5047
14.5591,5.5249
14.5388,5.5385
14.5149,5.5432
13.7649,5.5432
13.7410,5.5385
13.7207,5.5249
13.7071,5.5047
13.7024,5.4807
Z" /> 
<path style="fill:#4A5F65; fill-opacity:0.9000; 
stroke:#4A5F65; stroke-width:0.0000; stroke-opacity:1; 
stroke-linecap:round; stroke-linejoin:round;fill-rule:evenodd;"
d="M 13.7024,5.8557
13.7071,5.8318
13.7207,5.8116
13.7410,5.7980
13.7649,5.7932
14.5149,5.7932
14.5388,5.7980
14.5591,5.8116
14.5726,5.8318
14.5774,5.8557
14.5774,5.9807
14.5726,6.0047
14.5591,6.0249
14.5388,6.0385
14.5149,6.0432
13.7649,6.0432
13.7410,6.0385
13.7207,6.0249
13.7071,6.0047
13.7024,5.9807
Z" /> 
<path style="fill:#4A5F65; fill-opacity:0.9000; 
stroke:#4A5F65; stroke-width:0.0000; stroke-opacity:1; 
stroke-linecap:round; stroke-linejoin:round;fill-rule:evenodd;"
d="M 13.7024,6.3557
13.7071,6.3318
13.7207,6.3116
13.7410,6.2980
13.7649,6.2932
14.5149,6.2932
14.5388,6.2980
14.5591,6.3116
14.5726,6.3318
14.5774,6.3557
14.5774,6.4807
14.5726,6.5047
14.5591,6.5249
14.5388,6.5385
14.5149,6.5432
13.7649,6.5432
13.7410,6.5385
13.7207,6.5249
13.7071,6.5047
13.7024,6.4807
Z" /> 
<path style="fill:#4A5F65; fill-opacity:0.9000; 
stroke:#4A5F65; stroke-width:0.0000; stroke-opacity:1; 
stroke-linecap:round; stroke-linejoin:round;fill-rule:evenodd;"
d="M 13.7024,6.8557
13.7071,6.8318
13.7207,6.8116
13.7410,6.7980
13.7649,6.7932
14.5149,6.7932
14.5388,6.7980
14.5591,6.8116
14.5726,6.8318
14.5774,6.8557
14.5774,6.9807
14.5726,7.0047
14.5591,7.0249
14.5388,7.0385
14.5149,7.0432
13.7649,7.0432
13.7410,7.0385
13.7207,7.0249
13.7071,7.0047
13.7024,6.9807
Z" /> 
<path style="fill:#4A5F65; fill-opacity:0.9000; 
stroke:#4A5F65; stroke-width:0.0000; stroke-opacity:1; 
stroke-linecap:round; stroke-linejoin:round;fill-rule:evenodd;"
d="M 13.7024,7.3557
13.7071,7.3318
13.7207,7.3116
13.7410,7.2980
13.7649,7.2932
14.5149,7.2932
14.5388,7.2980
14.5591,7.3116
14.5726,7.3318
14.5774,7.3557
14.5774,7.4807
14.5726,7.5047
14.5591,7.5249
14.5388,7.5385
14.5149,7.5432
13.7649,7.5432
13.7410,7.5385
13.7207,7.5249
13.7071,7.5047
13.7024,7.4807
Z" /> 
<path style="fill:#4A5F65; fill-opacity:0.9000; 
stroke:#4A5F65; stroke-width:0.0000; stroke-opacity:1; 
stroke-linecap:round; stroke-linejoin:round;fill-rule:evenodd;"
d="M 13.7024,7.8557
13.7071,7.8318
13.7207,7.8116
13.7410,7.7980
13.7649,7.7932
14.5149,7.7932
14.5388,7.7980
14.5591,7.8116
14.5726,7.8318
14.5774,7.8557
14.5774,7.9807
14.5726,8.0047
14.5591,8.0249
14.5388,8.0385
14.5149,8.0433
13.7649,8.0433
13.7410,8.0385
13.7207,8.0249
13.7071,8.0047
13.7024,7.9807
Z" /> 
<path style="fill:#4A5F65; fill-opacity:0.9000; 
stroke:#4A5F65; stroke-width:0.0000; stroke-opacity:1; 
stroke-linecap:round; stroke-linejoin:round;fill-rule:evenodd;"
d="M 13.7024,8.3558
13.7071,8.3318
13.7207,8.3116
13.7410,8.2980
13.7649,8.2933
14.5149,8.2933
14.5388,8.2980
14.5591,8.3116
14.5726,8.3318
14.5774,8.3558
14.5774,8.4808
14.5726,8.5047
14.5591,8.5249
14.5388,8.5385
14.5149,8.5433
13.7649,8.5433
13.7410,8.5385
13.7207,8.5249
13.7071,8.5047
13.7024,8.4808
Z" /> 
<path style="fill:#4A5F65; fill-opacity:0.9000; 
stroke:#4A5F65; stroke-width:0.0000; stroke-opacity:1; 
stroke-linecap:round; stroke-linejoin:round;fill-rule:evenodd;"
d="M 14.7024,8.7308
14.7071,8.7068
14.7207,8.6866
14.7410,8.6730
14.7649,8.6683
14.8899,8.6683
14.9138,8.6730
14.9341,8.6866
14.9476,8.7068
14.9524,8.7308
14.9524,9.4808
14.9476,9.5047
14.9341,9.5249
14.9138,9.5385
14.8899,9.5433
14.7649,9.5433
14.7410,9.5385
14.7207,9.5249
14.7071,9.5047
14.7024,9.4808
Z" /> 
<path style="fill:#4A5F65; fill-opacity:0.9000; 
stroke:#4A5F65; stroke-width:0.0000; stroke-opacity:1; 
stroke-linecap:round; stroke-linejoin:round;fill-rule:evenodd;"
d="M 15.2024,8.7308
15.2071,8.7068
15.2207,8.6866
15.2410,8.6730
15.2649,8.6683
15.3899,8.6683
15.4138,8.6730
15.4341,8.6866
15.4476,8.7068
15.4524,8.7308
15.4524,9.4808
15.4476,9.5047
15.4341,9.5249
15.4138,9.5385
15.3899,9.5433
15.2649,9.5433
15.2410,9.5385
15.2207,9.5249
15.2071,9.5047
15.2024,9.4808
Z" /> 
<path style="fill:#4A5F65; fill-opacity:0.9000; 
stroke:#4A5F65; stroke-width:0.0000; stroke-opacity:1; 
stroke-linecap:round; stroke-linejoin:round;fill-rule:evenodd;"
d="M 15.7024,8.7308
15.7071,8.7068
15.7207,8.6866
15.7410,8.6730
15.7649,8.6683
15.8899,8.6683
15.9138,8.6730
15.9341,8.6866
15.9476,8.7068
15.9524,8.7308
15.9524,9.4808
15.9476,9.5047
15.9341,9.5249
15.9138,9.5385
15.8899,9.5433
15.7649,9.5433
15.7410,9.5385
15.7207,9.5249
15.7071,9.5047
15.7024,9.4808
Z" /> 
<path style="fill:#4A5F65; fill-opacity:0.9000; 
stroke:#4A5F65; stroke-width:0.0000; stroke-opacity:1; 
stroke-linecap:round; stroke-linejoin:round;fill-rule:evenodd;"
d="M 16.2024,8.7308
16.2071,8.7068
16.2207,8.6866
16.2410,8.6730
16.2649,8.6683
16.3899,8.6683
16.4138,8.6730
16.4341,8.6866
16.4476,8.7068
16.4524,8.7308
16.4524,9.4808
16.4476,9.5047
16.4341,9.5249
16.4138,9.5385
16.3899,9.5433
16.2649,9.5433
16.2410,9.5385
16.2207,9.5249
16.2071,9.5047
16.2024,9.4808
Z" /> 
<path style="fill:#4A5F65; fill-opacity:0.9000; 
stroke:#4A5F65; stroke-width:0.0000; stroke-opacity:1; 
stroke-linecap:round; stroke-linejoin:round;fill-rule:evenodd;"
d="M 16.7024,8.7308
16.7071,8.7068
16.7207,8.6866
16.7410,8.6730
16.7649,8.6683
16.8899,8.6683
16.9138,8.6730
16.9341,8.6866
16.9476,8.7068
16.9524,8.7308
16.9524,9.4808
16.9476,9.5047
16.9341,9.5249
16.9138,9.5385
16.8899,9.5433
16.7649,9.5433
16.7410,9.5385
16.7207,9.5249
16.7071,9.5047
16.7024,9.4808
Z" /> 
<path style="fill:#4A5F65; fill-opacity:0.9000; 
stroke:#4A5F65; stroke-width:0.0000; stroke-opacity:1; 
stroke-linecap:round; stroke-linejoin:round;fill-rule:evenodd;"
d="M 17.2024,8.7308
17.2071,8.7068
17.2207,8.6866
17.2410,8.6730
17.2649,8.6683
17.3899,8.6683
17.4138,8.6730
17.4341,8.6866
17.4476,8.7068
17.4524,8.7308
17.4524,9.4808
17.4476,9.5047
17.4341,9.5249
17.4138,9.5385
17.3899,9.5433
17.2649,9.5433
17.2410,9.5385
17.2207,9.5249
17.2071,9.5047
17.2024,9.4808
Z" /> 
<path style="fill:#4A5F65; fill-opacity:0.9000; 
stroke:#4A5F65; stroke-width:0.0000; stroke-opacity:1; 
stroke-linecap:round; stroke-linejoin:round;fill-rule:evenodd;"
d="M 17.7024,8.7308
17.7071,8.7068
17.7207,8.6866
17.7410,8.6730
17.7649,8.6683
17.8899,8.6683
17.9138,8.6730
17.9341,8.6866
17.9476,8.7068
17.9524,8.7308
17.9524,9.4808
17.9476,9.5047
17.9341,9.5249
17.9138,9.5385
17.8899,9.5433
17.7649,9.5433
17.7410,9.5385
17.7207,9.5249
17.7071,9.5047
17.7024,9.4808
Z" /> 
<path style="fill:#4A5F65; fill-opacity:0.9000; 
stroke:#4A5F65; stroke-width:0.0000; stroke-opacity:1; 
stroke-linecap:round; stroke-linejoin:round;fill-rule:evenodd;"
d="M 18.2024,8.7308
18.2071,8.7068
18.2207,8.6866
18.2410,8.6730
18.2649,8.6683
18.3899,8.6683
18.4138,8.6730
18.4341,8.6866
18.4476,8.7068
18.4524,8.7308
18.4524,9.4808
18.4476,9.5047
18.4341,9.5249
18.4138,9.5385
18.3899,9.5433
18.2649,9.5433
18.2410,9.5385
18.2207,9.5249
18.2071,9.5047
18.2024,9.4808
Z" /> 
<path style="fill:#4A5F65; fill-opacity:0.9000; 
stroke:#4A5F65; stroke-width:0.0000; stroke-opacity:1; 
stroke-linecap:round; stroke-linejoin:round;fill-rule:evenodd;"
d="M 18.7024,8.7308
18.7071,8.7068
18.7207,8.6866
18.7410,8.6730
18.7649,8.6683
18.8899,8.6683
18.9138,8.6730
18.9341,8.6866
18.9476,8.7068
18.9524,8.7308
18.9524,9.4808
18.9476,9.5047
18.9341,9.5249
18.9138,9.5385
18.8899,9.5433
18.7649,9.5433
18.7410,9.5385
18.7207,9.5249
18.7071,9.5047
18.7024,9.4808
Z" /> 
<path style="fill:#4A5F65; fill-opacity:0.9000; 
stroke:#4A5F65; stroke-width:0.0000; stroke-opacity:1; 
stroke-linecap:round; stroke-linejoin:round;fill-rule:evenodd;"
d="M 19.2024,8.7308
19.2071,8.7068
19.2207,8.6866
19.2410,8.6730
19.2649,8.6683
19.3899,8.6683
19.4138,8.6730
19.4341,8.6866
19.4476,8.7068
19.4524,8.7308
19.4524,9.4808
19.4476,9.5047
19.4341,9.5249
19.4138,9.5385
19.3899,9.5433
19.2649,9.5433
19.2410,9.5385
19.2207,9.5249
19.2071,9.5047
19.2024,9.4808
Z" /> 
<path style="fill:#4A5F65; fill-opacity:0.9000; 
stroke:#4A5F65; stroke-width:0.0000; stroke-opacity:1; 
stroke-linecap:round; stroke-linejoin:round;fill-rule:evenodd;"
d="M 19.7024,8.7308
19.7071,8.7068
19.7207,8.6866
19.7410,8.6730
19.7649,8.6683
19.8899,8.6683
19.9138,8.6730
19.9341,8.6866
19.9476,8.7068
19.9524,8.7308
19.9524,9.4808
19.9476,9.5047
19.9341,9.5249
19.9138,9.5385
19.8899,9.5433
19.7649,9.5433
19.7410,9.5385
19.7207,9.5249
19.7071,9.5047
19.7024,9.4808
Z" /> 
<path style="fill:#4A5F65; fill-opacity:0.9000; 
stroke:#4A5F65; stroke-width:0.0000; stroke-opacity:1; 
stroke-linecap:round; stroke-linejoin:round;fill-rule:evenodd;"
d="M 20.2024,8.7308
20.2071,8.7068
20.2207,8.6866
20.2410,8.6730
20.2649,8.6683
20.3899,8.6683
20.4138,8.6730
20.4341,8.6866
20.4476,8.7068
20.4524,8.7308
20.4524,9.4808
20.4476,9.5047
20.4341,9.5249
20.4138,9.5385
20.3899,9.5433
20.2649,9.5433
20.2410,9.5385
20.2207,9.5249
20.2071,9.5047
20.2024,9.4808
Z" /> 
<path style="fill:#4A5F65; fill-opacity:0.9000; 
stroke:#4A5F65; stroke-width:0.0000; stroke-opacity:1; 
stroke-linecap:round; stroke-linejoin:round;fill-rule:evenodd;"
d="M 20.5774,8.3558
20.5821,8.3318
20.5957,8.3116
20.6160,8.2980
20.6399,8.2933
21.3899,8.2933
21.4138,8.2980
21.4341,8.3116
21.4476,8.3318
21.4524,8.3558
21.4524,8.4808
21.4476,8.5047
21.4341,8.5249
21.4138,8.5385
21.3899,8.5433
20.6399,8.5433
20.6160,8.5385
20.5957,8.5249
20.5821,8.5047
20.5774,8.4808
Z" /> 
<path style="fill:#4A5F65; fill-opacity:0.9000; 
stroke:#4A5F65; stroke-width:0.0000; stroke-opacity:1; 
stroke-linecap:round; stroke-linejoin:round;fill-rule:evenodd;"
d="M 20.5774,7.8557
20.5821,7.8318
20.5957,7.8116
20.6160,7.7980
20.6399,7.7932
21.3899,7.7932
21.4138,7.7980
21.4341,7.8116
21.4476,7.8318
21.4524,7.8557
21.4524,7.9807
21.4476,8.0047
21.4341,8.0249
21.4138,8.0385
21.3899,8.0433
20.6399,8.0433
20.6160,8.0385
20.5957,8.0249
20.5821,8.0047
20.5774,7.9807
Z" /> 
<path style="fill:#4A5F65; fill-opacity:0.9000; 
stroke:#4A5F65; stroke-width:0.0000; stroke-opacity:1; 
stroke-linecap:round; stroke-linejoin:round;fill-rule:evenodd;"
d="M 20.5774,7.3557
20.5821,7.3318
20.5957,7.3116
20.6160,7.2980
20.6399,7.2932
21.3899,7.2932
21.4138,7.2980
21.4341,7.3116
21.4476,7.3318
21.4524,7.3557
21.4524,7.4807
21.4476,7.5047
21.4341,7.5249
21.4138,7.5385
21.3899,7.5432
20.6399,7.5432
20.6160,7.5385
20.5957,7.5249
20.5821,7.5047
20.5774,7.4807
Z" /> 
<path style="fill:#4A5F65; fill-opacity:0.9000; 
stroke:#4A5F65; stroke-width:0.0000; stroke-opacity:1; 
stroke-linecap:round; stroke-linejoin:round;fill-rule:evenodd;"
d="M 20.5774,6.8557
20.5821,6.8318
20.5957,6.8116
20.6160,6.7980
20.6399,6.7932
21.3899,6.7932
21.4138,6.7980
21.4341,6.8116
21.4476,6.8318
21.4524,6.8557
21.4524,6.9807
21.4476,7.0047
21.4341,7.0249
21.4138,7.0385
21.3899,7.0432
20.6399,7.0432
20.6160,7.0385
20.5957,7.0249
20.5821,7.0047
20.5774,6.9807
Z" /> 
<path style="fill:#4A5F65; fill-opacity:0.9000; 
stroke:#4A5F65; stroke-width:0.0000; stroke-opacity:1; 
stroke-linecap:round; stroke-linejoin:round;fill-rule:evenodd;"
d="M 20.5774,6.3557
20.5821,6.3318
20.5957,6.3116
20.6160,6.2980
20.6399,6.2932
21.3899,6.2932
21.4138,6.2980
21.4341,6.3116
21.4476,6.3318
21.4524,6.3557
21.4524,6.4807
21.4476,6.5047
21.4341,6.5249
21.4138,6.5385
21.3899,6.5432
20.6399,6.5432
20.6160,6.5385
20.5957,6.5249
20.5821,6.5047
20.5774,6.4807
Z" /> 
<path style="fill:#4A5F65; fill-opacity:0.9000; 
stroke:#4A5F65; stroke-width:0.0000; stroke-opacity:1; 
stroke-linecap:round; stroke-linejoin:round;fill-rule:evenodd;"
d="M 20.5774,5.8557
20.5821,5.8318
20.5957,5.8116
20.6160,5.7980
20.6399,5.7932
21.3899,5.7932
21.4138,5.7980
21.4341,5.8116
21.4476,5.8318
21.4524,5.8557
21.4524,5.9807
21.4476,6.0047
21.4341,6.0249
21.4138,6.0385
21.3899,6.0432
20.6399,6.0432
20.6160,6.0385
20.5957,6.0249
20.5821,6.0047
20.5774,5.9807
Z" /> 
<path style="fill:#4A5F65; fill-opacity:0.9000; 
stroke:#4A5F65; stroke-width:0.0000; stroke-opacity:1; 
stroke-linecap:round; stroke-linejoin:round;fill-rule:evenodd;"
d="M 20.5774,5.3557
20.5821,5.3318
20.5957,5.3116
20.6160,5.2980
20.6399,5.2932
21.3899,5.2932
21.4138,5.2980
21.4341,5.3116
21.4476,5.3318
21.4524,5.3557
21.4524,5.4807
21.4476,5.5047
21.4341,5.5249
21.4138,5.5385
21.3899,5.5432
20.6399,5.5432
20.6160,5.5385
20.5957,5.5249
20.5821,5.5047
20.5774,5.4807
Z" /> 
<path style="fill:#4A5F65; fill-opacity:0.9000; 
stroke:#4A5F65; stroke-width:0.0000; stroke-opacity:1; 
stroke-linecap:round; stroke-linejoin:round;fill-rule:evenodd;"
d="M 20.5774,4.8557
20.5821,4.8318
20.5957,4.8116
20.6160,4.7980
20.6399,4.7932
21.3899,4.7932
21.4138,4.7980
21.4341,4.8116
21.4476,4.8318
21.4524,4.8557
21.4524,4.9807
21.4476,5.0047
21.4341,5.0249
21.4138,5.0385
21.3899,5.0432
20.6399,5.0432
20.6160,5.0385
20.5957,5.0249
20.5821,5.0047
20.5774,4.9807
Z" /> 
<path style="fill:#4A5F65; fill-opacity:0.9000; 
stroke:#4A5F65; stroke-width:0.0000; stroke-opacity:1; 
stroke-linecap:round; stroke-linejoin:round;fill-rule:evenodd;"
d="M 20.5774,4.3557
20.5821,4.3318
20.5957,4.3116
20.6160,4.2980
20.6399,4.2932
21.3899,4.2932
21.4138,4.2980
21.4341,4.3116
21.4476,4.3318
21.4524,4.3557
21.4524,4.4807
21.4476,4.5047
21.4341,4.5249
21.4138,4.5385
21.3899,4.5432
20.6399,4.5432
20.6160,4.5385
20.5957,4.5249
20.5821,4.5047
20.5774,4.4807
Z" /> 
<path style="fill:#4A5F65; fill-opacity:0.9000; 
stroke:#4A5F65; stroke-width:0.0000; stroke-opacity:1; 
stroke-linecap:round; stroke-linejoin:round;fill-rule:evenodd;"
d="M 20.5774,3.8558
20.5821,3.8318
20.5957,3.8116
20.6160,3.7980
20.6399,3.7933
21.3899,3.7933
21.4138,3.7980
21.4341,3.8116
21.4476,3.8318
21.4524,3.8558
21.4524,3.9808
21.4476,4.0047
21.4341,4.0249
21.4138,4.0385
21.3899,4.0432
20.6399,4.0432
20.6160,4.0385
20.5957,4.0249
20.5821,4.0047
20.5774,3.9808
Z" /> 
<path style="fill:#4A5F65; fill-opacity:0.9000; 
stroke:#4A5F65; stroke-width:0.0000; stroke-opacity:1; 
stroke-linecap:round; stroke-linejoin:round;fill-rule:evenodd;"
d="M 20.5774,3.3558
20.5821,3.3318
20.5957,3.3116
20.6160,3.2980
20.6399,3.2933
21.3899,3.2933
21.4138,3.2980
21.4341,3.3116
21.4476,3.3318
21.4524,3.3558
21.4524,3.4808
21.4476,3.5047
21.4341,3.5249
21.4138,3.5385
21.3899,3.5433
20.6399,3.5433
20.6160,3.5385
20.5957,3.5249
20.5821,3.5047
20.5774,3.4808
Z" /> 
<path style="fill:#4A5F65; fill-opacity:0.9000; 
stroke:#4A5F65; stroke-width:0.0000; stroke-opacity:1; 
stroke-linecap:round; stroke-linejoin:round;fill-rule:evenodd;"
d="M 20.5774,2.8558
20.5821,2.8318
20.5957,2.8116
20.6160,2.7980
20.6399,2.7933
21.3899,2.7933
21.4138,2.7980
21.4341,2.8116
21.4476,2.8318
21.4524,2.8558
21.4524,2.9808
21.4476,3.0047
21.4341,3.0249
21.4138,3.0385
21.3899,3.0433
20.6399,3.0433
20.6160,3.0385
20.5957,3.0249
20.5821,3.0047
20.5774,2.9808
Z" /> 
<path style="fill:#4A5F65; fill-opacity:0.9000; 
stroke:#4A5F65; stroke-width:0.0000; stroke-opacity:1; 
stroke-linecap:round; stroke-linejoin:round;fill-rule:evenodd;"
d="M 20.2024,1.8558
20.2071,1.8318
20.2207,1.8116
20.2410,1.7980
20.2649,1.7933
20.3899,1.7933
20.4138,1.7980
20.4341,1.8116
20.4476,1.8318
20.4524,1.8558
20.4524,2.6058
20.4476,2.6297
20.4341,2.6499
20.4138,2.6635
20.3899,2.6683
20.2649,2.6683
20.2410,2.6635
20.2207,2.6499
20.2071,2.6297
20.2024,2.6058
Z" /> 
<path style="fill:#4A5F65; fill-opacity:0.9000; 
stroke:#4A5F65; stroke-width:0.0000; stroke-opacity:1; 
stroke-linecap:round; stroke-linejoin:round;fill-rule:evenodd;"
d="M 19.7024,1.8558
19.7071,1.8318
19.7207,1.8116
19.7410,1.7980
19.7649,1.7933
19.8899,1.7933
19.9138,1.7980
19.9341,1.8116
19.9476,1.8318
19.9524,1.8558
19.9524,2.6058
19.9476,2.6297
19.9341,2.6499
19.9138,2.6635
19.8899,2.6683
19.7649,2.6683
19.7410,2.6635
19.7207,2.6499
19.7071,2.6297
19.7024,2.6058
Z" /> 
<path style="fill:#4A5F65; fill-opacity:0.9000; 
stroke:#4A5F65; stroke-width:0.0000; stroke-opacity:1; 
stroke-linecap:round; stroke-linejoin:round;fill-rule:evenodd;"
d="M 19.2024,1.8558
19.2071,1.8318
19.2207,1.8116
19.2410,1.7980
19.2649,1.7933
19.3899,1.7933
19.4138,1.7980
19.4341,1.8116
19.4476,1.8318
19.4524,1.8558
19.4524,2.6058
19.4476,2.6297
19.4341,2.6499
19.4138,2.6635
19.3899,2.6683
19.2649,2.6683
19.2410,2.6635
19.2207,2.6499
19.2071,2.6297
19.2024,2.6058
Z" /> 
<path style="fill:#4A5F65; fill-opacity:0.9000; 
stroke:#4A5F65; stroke-width:0.0000; stroke-opacity:1; 
stroke-linecap:round; stroke-linejoin:round;fill-rule:evenodd;"
d="M 18.7024,1.8558
18.7071,1.8318
18.7207,1.8116
18.7410,1.7980
18.7649,1.7933
18.8899,1.7933
18.9138,1.7980
18.9341,1.8116
18.9476,1.8318
18.9524,1.8558
18.9524,2.6058
18.9476,2.6297
18.9341,2.6499
18.9138,2.6635
18.8899,2.6683
18.7649,2.6683
18.7410,2.6635
18.7207,2.6499
18.7071,2.6297
18.7024,2.6058
Z" /> 
<path style="fill:#4A5F65; fill-opacity:0.9000; 
stroke:#4A5F65; stroke-width:0.0000; stroke-opacity:1; 
stroke-linecap:round; stroke-linejoin:round;fill-rule:evenodd;"
d="M 18.2024,1.8558
18.2071,1.8318
18.2207,1.8116
18.2410,1.7980
18.2649,1.7933
18.3899,1.7933
18.4138,1.7980
18.4341,1.8116
18.4476,1.8318
18.4524,1.8558
18.4524,2.6058
18.4476,2.6297
18.4341,2.6499
18.4138,2.6635
18.3899,2.6683
18.2649,2.6683
18.2410,2.6635
18.2207,2.6499
18.2071,2.6297
18.2024,2.6058
Z" /> 
<path style="fill:#4A5F65; fill-opacity:0.9000; 
stroke:#4A5F65; stroke-width:0.0000; stroke-opacity:1; 
stroke-linecap:round; stroke-linejoin:round;fill-rule:evenodd;"
d="M 17.7024,1.8558
17.7071,1.8318
17.7207,1.8116
17.7410,1.7980
17.7649,1.7933
17.8899,1.7933
17.9138,1.7980
17.9341,1.8116
17.9476,1.8318
17.9524,1.8558
17.9524,2.6058
17.9476,2.6297
17.9341,2.6499
17.9138,2.6635
17.8899,2.6683
17.7649,2.6683
17.7410,2.6635
17.7207,2.6499
17.7071,2.6297
17.7024,2.6058
Z" /> 
<path style="fill:#4A5F65; fill-opacity:0.9000; 
stroke:#4A5F65; stroke-width:0.0000; stroke-opacity:1; 
stroke-linecap:round; stroke-linejoin:round;fill-rule:evenodd;"
d="M 17.2024,1.8558
17.2071,1.8318
17.2207,1.8116
17.2410,1.7980
17.2649,1.7933
17.3899,1.7933
17.4138,1.7980
17.4341,1.8116
17.4476,1.8318
17.4524,1.8558
17.4524,2.6058
17.4476,2.6297
17.4341,2.6499
17.4138,2.6635
17.3899,2.6683
17.2649,2.6683
17.2410,2.6635
17.2207,2.6499
17.2071,2.6297
17.2024,2.6058
Z" /> 
<path style="fill:#4A5F65; fill-opacity:0.9000; 
stroke:#4A5F65; stroke-width:0.0000; stroke-opacity:1; 
stroke-linecap:round; stroke-linejoin:round;fill-rule:evenodd;"
d="M 16.7024,1.8558
16.7071,1.8318
16.7207,1.8116
16.7410,1.7980
16.7649,1.7933
16.8899,1.7933
16.9138,1.7980
16.9341,1.8116
16.9476,1.8318
16.9524,1.8558
16.9524,2.6058
16.9476,2.6297
16.9341,2.6499
16.9138,2.6635
16.8899,2.6683
16.7649,2.6683
16.7410,2.6635
16.7207,2.6499
16.7071,2.6297
16.7024,2.6058
Z" /> 
<path style="fill:#4A5F65; fill-opacity:0.9000; 
stroke:#4A5F65; stroke-width:0.0000; stroke-opacity:1; 
stroke-linecap:round; stroke-linejoin:round;fill-rule:evenodd;"
d="M 16.2024,1.8558
16.2071,1.8318
16.2207,1.8116
16.2410,1.7980
16.2649,1.7933
16.3899,1.7933
16.4138,1.7980
16.4341,1.8116
16.4476,1.8318
16.4524,1.8558
16.4524,2.6058
16.4476,2.6297
16.4341,2.6499
16.4138,2.6635
16.3899,2.6683
16.2649,2.6683
16.2410,2.6635
16.2207,2.6499
16.2071,2.6297
16.2024,2.6058
Z" /> 
<path style="fill:#4A5F65; fill-opacity:0.9000; 
stroke:#4A5F65; stroke-width:0.0000; stroke-opacity:1; 
stroke-linecap:round; stroke-linejoin:round;fill-rule:evenodd;"
d="M 15.7024,1.8558
15.7071,1.8318
15.7207,1.8116
15.7410,1.7980
15.7649,1.7933
15.8899,1.7933
15.9138,1.7980
15.9341,1.8116
15.9476,1.8318
15.9524,1.8558
15.9524,2.6058
15.9476,2.6297
15.9341,2.6499
15.9138,2.6635
15.8899,2.6683
15.7649,2.6683
15.7410,2.6635
15.7207,2.6499
15.7071,2.6297
15.7024,2.6058
Z" /> 
<path style="fill:#4A5F65; fill-opacity:0.9000; 
stroke:#4A5F65; stroke-width:0.0000; stroke-opacity:1; 
stroke-linecap:round; stroke-linejoin:round;fill-rule:evenodd;"
d="M 15.2024,1.8558
15.2071,1.8318
15.2207,1.8116
15.2410,1.7980
15.2649,1.7933
15.3899,1.7933
15.4138,1.7980
15.4341,1.8116
15.4476,1.8318
15.4524,1.8558
15.4524,2.6058
15.4476,2.6297
15.4341,2.6499
15.4138,2.6635
15.3899,2.6683
15.2649,2.6683
15.2410,2.6635
15.2207,2.6499
15.2071,2.6297
15.2024,2.6058
Z" /> 
<path style="fill:#4A5F65; fill-opacity:0.9000; 
stroke:#4A5F65; stroke-width:0.0000; stroke-opacity:1; 
stroke-linecap:round; stroke-linejoin:round;fill-rule:evenodd;"
d="M 14.7024,1.8558
14.7071,1.8318
14.7207,1.8116
14.7410,1.7980
14.7649,1.7933
14.8899,1.7933
14.9138,1.7980
14.9341,1.8116
14.9476,1.8318
14.9524,1.8558
14.9524,2.6058
14.9476,2.6297
14.9341,2.6499
14.9138,2.6635
14.8899,2.6683
14.7649,2.6683
14.7410,2.6635
14.7207,2.6499
14.7071,2.6297
14.7024,2.6058
Z" /> 
</g>
<g >
</g>
<g >
</g>
<g >
</g>
</g>
<g style="fill:#FFFFFF; fill-opacity:1.0000; 
stroke:#FFFFFF; stroke-width:0.0000; stroke-opacity:1; 
stroke-linecap:round; stroke-linejoin:round;">
</g>
<g style="fill:#0D115E; fill-opacity:1.0000; 
stroke:#0D115E; stroke-width:0.0000; stroke-opacity:1; 
stroke-linecap:round; stroke-linejoin:round;">
</g>
<g style="fill:#0D115E; fill-opacity:1.0000; 
stroke:#0D115E; stroke-width:0.1500; stroke-opacity:1; 
stroke-linecap:round; stroke-linejoin:round;">
</g>
<g style="fill:#0D115E; fill-opacity:0.0; 
stroke:#0D115E; stroke-width:0.1500; stroke-opacity:1; 
stroke-linecap:round; stroke-linejoin:round;">
<text x="17.5774" y="1.3482"
textLength="4.5357" font-size="1.3333" lengthAdjust="spacingAndGlyphs"
text-anchor="middle" opacity="0">REF**</text>
<g class="stroked-text"><desc>REF**</desc>
<path d="M16.2440 1.3031
L15.9107 0.8269
" />
<path d="M15.6726 1.3031
L15.6726 0.3031
" />
<path d="M15.6726 0.3031
L16.0536 0.3031
" />
<path d="M16.0536 0.3031
L16.1488 0.3507
" />
<path d="M16.1488 0.3507
L16.1964 0.3983
" />
<path d="M16.1964 0.3983
L16.2440 0.4935
" />
<path d="M16.2440 0.4935
L16.2440 0.6364
" />
<path d="M16.2440 0.6364
L16.1964 0.7316
" />
<path d="M16.1964 0.7316
L16.1488 0.7793
" />
<path d="M16.1488 0.7793
L16.0536 0.8269
" />
<path d="M16.0536 0.8269
L15.6726 0.8269
" />
<path d="M16.6726 0.7793
L17.0060 0.7793
" />
<path d="M17.1488 1.3031
L16.6726 1.3031
" />
<path d="M16.6726 1.3031
L16.6726 0.3031
" />
<path d="M16.6726 0.3031
L17.1488 0.3031
" />
<path d="M17.9107 0.7793
L17.5774 0.7793
" />
<path d="M17.5774 1.3031
L17.5774 0.3031
" />
<path d="M17.5774 0.3031
L18.0536 0.3031
" />
<path d="M18.5774 0.3031
L18.5774 0.5412
" />
<path d="M18.3393 0.4459
L18.5774 0.5412
" />
<path d="M18.5774 0.5412
L18.8155 0.4459
" />
<path d="M18.4345 0.7316
L18.5774 0.5412
" />
<path d="M18.5774 0.5412
L18.7202 0.7316
" />
<path d="M19.3393 0.3031
L19.3393 0.5412
" />
<path d="M19.1012 0.4459
L19.3393 0.5412
" />
<path d="M19.3393 0.5412
L19.5774 0.4459
" />
<path d="M19.1964 0.7316
L19.3393 0.5412
" />
<path d="M19.3393 0.5412
L19.4821 0.7316
" />
</g></g>
<g style="fill:#0D115E; fill-opacity:0.0; 
stroke:#0D115E; stroke-width:0.1200; stroke-opacity:1; 
stroke-linecap:round; stroke-linejoin:round;">
<path d="M21.1874 9.2782
L21.1874 8.8033
" />
<path d="M21.1874 2.0582
L21.1874 2.5332
" />
<path d="M20.7124 2.0582
L21.1874 2.0582
" />
<path d="M14.4424 2.0582
L13.9674 2.0582
" />
<path d="M13.9674 9.2782
L13.9674 8.8033
" />
<path d="M14.4424 9.2782
L13.9674 9.2782
" />
<path d="M20.7124 9.2782
L21.1874 9.2782
" />
<g >
</g>
<g >
</g>
<g >
</g>
<g >
</g>
</g> 
</svg>
