<?xml version="1.0" standalone="no"?>
 <!DOCTYPE svg PUBLIC "-//W3C//DTD SVG 1.1//EN" 
 "http://www.w3.org/Graphics/SVG/1.1/DTD/svg11.dtd"> 
<svg
  xmlns:svg="http://www.w3.org/2000/svg"
  xmlns="http://www.w3.org/2000/svg"
  xmlns:xlink="http://www.w3.org/1999/xlink"
  version="1.1"
  width="61.2902mm" height="54.2798mm" viewBox="0.0000 0.0000 61.2902 54.2798">
<title>SVG Image created as t8q144xx_11.svg date 2024/01/16 15:09:27 </title>
  <desc>Image generated by Eeschema-SVG </desc>
<g style="fill:#000000; fill-opacity:1.0000;stroke:#000000; stroke-opacity:1.0000;
stroke-linecap:round; stroke-linejoin:round;"
 transform="translate(0 0) scale(1 1)">
</g>
<g style="fill:#840000; fill-opacity:0.0; 
stroke:#840000; stroke-width:0.0000; stroke-opacity:1; 
stroke-linecap:round; stroke-linejoin:round;">
</g>
<g style="fill:#FFFFC2; fill-opacity:0.0; 
stroke:#FFFFC2; stroke-width:0.0000; stroke-opacity:1; 
stroke-linecap:round; stroke-linejoin:round;">
</g>
<g style="fill:#FFFFC2; fill-opacity:1.0000; 
stroke:#FFFFC2; stroke-width:0.0000; stroke-opacity:1; 
stroke-linecap:round; stroke-linejoin:round;">
<rect x="12.865100" y="19.519900" width="35.560000" height="15.240000" rx="0.000000" />
</g>
<g style="fill:#840084; fill-opacity:1.0000; 
stroke:#840084; stroke-width:0.0000; stroke-opacity:1; 
stroke-linecap:round; stroke-linejoin:round;">
</g>
<g style="fill:#840000; fill-opacity:1.0000; 
stroke:#840000; stroke-width:0.0000; stroke-opacity:1; 
stroke-linecap:round; stroke-linejoin:round;">
</g>
<g style="fill:#840000; fill-opacity:0.0; 
stroke:#840000; stroke-width:0.2540; stroke-opacity:1; 
stroke-linecap:round; stroke-linejoin:round;">
<rect x="12.865100" y="19.519900" width="35.560000" height="15.240000" rx="0.000000" />
</g>
<g style="fill:#840000; fill-opacity:0.0; 
stroke:#840000; stroke-width:0.1524; stroke-opacity:1; 
stroke-linecap:round; stroke-linejoin:round;">
<path d="M30.6451 34.7599
L30.6451 39.8399
" />
</g>
<g style="fill:#006464; fill-opacity:0.0; 
stroke:#006464; stroke-width:0.1524; stroke-opacity:1; 
stroke-linecap:round; stroke-linejoin:round;">
<g transform="rotate(-90.000000 30.6451 34.2519)">
<text x="30.6451" y="34.8869"
textLength="4.0737" font-size="1.6933" lengthAdjust="spacingAndGlyphs"
text-anchor="start" opacity="0">GND</text>
</g>
<g class="stroked-text"><desc>GND</desc>
<path d="M30.0151 33.1840
L29.9546 33.3050
" />
<path d="M29.9546 33.3050
L29.9546 33.4864
" />
<path d="M29.9546 33.4864
L30.0151 33.6678
" />
<path d="M30.0151 33.6678
L30.1361 33.7888
" />
<path d="M30.1361 33.7888
L30.2570 33.8493
" />
<path d="M30.2570 33.8493
L30.4989 33.9097
" />
<path d="M30.4989 33.9097
L30.6803 33.9097
" />
<path d="M30.6803 33.9097
L30.9222 33.8493
" />
<path d="M30.9222 33.8493
L31.0432 33.7888
" />
<path d="M31.0432 33.7888
L31.1642 33.6678
" />
<path d="M31.1642 33.6678
L31.2246 33.4864
" />
<path d="M31.2246 33.4864
L31.2246 33.3655
" />
<path d="M31.2246 33.3655
L31.1642 33.1840
" />
<path d="M31.1642 33.1840
L31.1037 33.1236
" />
<path d="M31.1037 33.1236
L30.6803 33.1236
" />
<path d="M30.6803 33.1236
L30.6803 33.3655
" />
<path d="M31.2246 32.5793
L29.9546 32.5793
" />
<path d="M29.9546 32.5793
L31.2246 31.8536
" />
<path d="M31.2246 31.8536
L29.9546 31.8536
" />
<path d="M31.2246 31.2488
L29.9546 31.2488
" />
<path d="M29.9546 31.2488
L29.9546 30.9464
" />
<path d="M29.9546 30.9464
L30.0151 30.7650
" />
<path d="M30.0151 30.7650
L30.1361 30.6440
" />
<path d="M30.1361 30.6440
L30.2570 30.5835
" />
<path d="M30.2570 30.5835
L30.4989 30.5231
" />
<path d="M30.4989 30.5231
L30.6803 30.5231
" />
<path d="M30.6803 30.5231
L30.9222 30.5835
" />
<path d="M30.9222 30.5835
L31.0432 30.6440
" />
<path d="M31.0432 30.6440
L31.1642 30.7650
" />
<path d="M31.1642 30.7650
L31.2246 30.9464
" />
<path d="M31.2246 30.9464
L31.2246 31.2488
" />
</g></g>
<g style="fill:#A90000; fill-opacity:0.0; 
stroke:#A90000; stroke-width:0.1524; stroke-opacity:1; 
stroke-linecap:round; stroke-linejoin:round;">
<g transform="rotate(-90.000000 30.3911 37.2999)">
<text x="30.3911" y="37.2999"
textLength="1.4127" font-size="1.6933" lengthAdjust="spacingAndGlyphs"
text-anchor="middle" opacity="0">1</text>
</g>
<g class="stroked-text"><desc>1</desc>
<path d="M30.2276 36.9369
L30.2276 37.6626
" />
<path d="M30.2276 37.2998
L28.9576 37.2998
" />
<path d="M28.9576 37.2998
L29.1391 37.4207
" />
<path d="M29.1391 37.4207
L29.2600 37.5417
" />
<path d="M29.2600 37.5417
L29.3205 37.6626
" />
</g></g>
<g style="fill:#840000; fill-opacity:0.0; 
stroke:#840000; stroke-width:0.1524; stroke-opacity:1; 
stroke-linecap:round; stroke-linejoin:round;">
<path d="M45.8851 19.5199
L45.8851 14.4399
" />
</g>
<g style="fill:#006464; fill-opacity:0.0; 
stroke:#006464; stroke-width:0.1524; stroke-opacity:1; 
stroke-linecap:round; stroke-linejoin:round;">
<g transform="rotate(-90.000000 45.8851 20.0279)">
<text x="45.8851" y="20.6629"
textLength="8.1256" font-size="1.6933" lengthAdjust="spacingAndGlyphs"
text-anchor="end" opacity="0">VCCA_TR</text>
</g>
<g class="stroked-text"><desc>VCCA_TR</desc>
<path d="M45.1946 27.9295
L46.4646 27.5062
" />
<path d="M46.4646 27.5062
L45.1946 27.0828
" />
<path d="M46.3437 25.9338
L46.4042 25.9942
" />
<path d="M46.4042 25.9942
L46.4646 26.1757
" />
<path d="M46.4646 26.1757
L46.4646 26.2966
" />
<path d="M46.4646 26.2966
L46.4042 26.4780
" />
<path d="M46.4042 26.4780
L46.2832 26.5990
" />
<path d="M46.2832 26.5990
L46.1622 26.6595
" />
<path d="M46.1622 26.6595
L45.9203 26.7199
" />
<path d="M45.9203 26.7199
L45.7389 26.7199
" />
<path d="M45.7389 26.7199
L45.4970 26.6595
" />
<path d="M45.4970 26.6595
L45.3761 26.5990
" />
<path d="M45.3761 26.5990
L45.2551 26.4780
" />
<path d="M45.2551 26.4780
L45.1946 26.2966
" />
<path d="M45.1946 26.2966
L45.1946 26.1757
" />
<path d="M45.1946 26.1757
L45.2551 25.9942
" />
<path d="M45.2551 25.9942
L45.3156 25.9338
" />
<path d="M46.3437 24.6638
L46.4042 24.7242
" />
<path d="M46.4042 24.7242
L46.4646 24.9057
" />
<path d="M46.4646 24.9057
L46.4646 25.0266
" />
<path d="M46.4646 25.0266
L46.4042 25.2080
" />
<path d="M46.4042 25.2080
L46.2832 25.3290
" />
<path d="M46.2832 25.3290
L46.1622 25.3895
" />
<path d="M46.1622 25.3895
L45.9203 25.4499
" />
<path d="M45.9203 25.4499
L45.7389 25.4499
" />
<path d="M45.7389 25.4499
L45.4970 25.3895
" />
<path d="M45.4970 25.3895
L45.3761 25.3290
" />
<path d="M45.3761 25.3290
L45.2551 25.2080
" />
<path d="M45.2551 25.2080
L45.1946 25.0266
" />
<path d="M45.1946 25.0266
L45.1946 24.9057
" />
<path d="M45.1946 24.9057
L45.2551 24.7242
" />
<path d="M45.2551 24.7242
L45.3156 24.6638
" />
<path d="M46.1018 24.1799
L46.1018 23.5752
" />
<path d="M46.4646 24.3009
L45.1946 23.8776
" />
<path d="M45.1946 23.8776
L46.4646 23.4542
" />
<path d="M46.5856 23.3333
L46.5856 22.3656
" />
<path d="M45.1946 22.2447
L45.1946 21.5190
" />
<path d="M46.4646 21.8818
L45.1946 21.8818
" />
<path d="M46.4646 20.3700
L45.8599 20.7933
" />
<path d="M46.4646 21.0957
L45.1946 21.0957
" />
<path d="M45.1946 21.0957
L45.1946 20.6119
" />
<path d="M45.1946 20.6119
L45.2551 20.4909
" />
<path d="M45.2551 20.4909
L45.3156 20.4304
" />
<path d="M45.3156 20.4304
L45.4365 20.3700
" />
<path d="M45.4365 20.3700
L45.6180 20.3700
" />
<path d="M45.6180 20.3700
L45.7389 20.4304
" />
<path d="M45.7389 20.4304
L45.7994 20.4909
" />
<path d="M45.7994 20.4909
L45.8599 20.6119
" />
<path d="M45.8599 20.6119
L45.8599 21.0957
" />
</g></g>
<g style="fill:#A90000; fill-opacity:0.0; 
stroke:#A90000; stroke-width:0.1524; stroke-opacity:1; 
stroke-linecap:round; stroke-linejoin:round;">
<g transform="rotate(-90.000000 45.6311 16.9799)">
<text x="45.6311" y="16.9799"
textLength="3.8317" font-size="1.6933" lengthAdjust="spacingAndGlyphs"
text-anchor="middle" opacity="0">107</text>
</g>
<g class="stroked-text"><desc>107</desc>
<path d="M45.4676 17.8264
L45.4676 18.5521
" />
<path d="M45.4676 18.1893
L44.1976 18.1893
" />
<path d="M44.1976 18.1893
L44.3791 18.3102
" />
<path d="M44.3791 18.3102
L44.5000 18.4312
" />
<path d="M44.5000 18.4312
L44.5605 18.5521
" />
<path d="M44.1976 17.0403
L44.1976 16.9193
" />
<path d="M44.1976 16.9193
L44.2581 16.7984
" />
<path d="M44.2581 16.7984
L44.3186 16.7379
" />
<path d="M44.3186 16.7379
L44.4395 16.6774
" />
<path d="M44.4395 16.6774
L44.6814 16.6169
" />
<path d="M44.6814 16.6169
L44.9838 16.6169
" />
<path d="M44.9838 16.6169
L45.2257 16.6774
" />
<path d="M45.2257 16.6774
L45.3467 16.7379
" />
<path d="M45.3467 16.7379
L45.4072 16.7984
" />
<path d="M45.4072 16.7984
L45.4676 16.9193
" />
<path d="M45.4676 16.9193
L45.4676 17.0403
" />
<path d="M45.4676 17.0403
L45.4072 17.1612
" />
<path d="M45.4072 17.1612
L45.3467 17.2217
" />
<path d="M45.3467 17.2217
L45.2257 17.2822
" />
<path d="M45.2257 17.2822
L44.9838 17.3426
" />
<path d="M44.9838 17.3426
L44.6814 17.3426
" />
<path d="M44.6814 17.3426
L44.4395 17.2822
" />
<path d="M44.4395 17.2822
L44.3186 17.2217
" />
<path d="M44.3186 17.2217
L44.2581 17.1612
" />
<path d="M44.2581 17.1612
L44.1976 17.0403
" />
<path d="M44.1976 16.1936
L44.1976 15.3470
" />
<path d="M44.1976 15.3470
L45.4676 15.8912
" />
</g></g>
<g style="fill:#840000; fill-opacity:0.0; 
stroke:#840000; stroke-width:0.1524; stroke-opacity:1; 
stroke-linecap:round; stroke-linejoin:round;">
<path d="M30.6451 19.5199
L30.6451 14.4399
" />
</g>
<g style="fill:#006464; fill-opacity:0.0; 
stroke:#006464; stroke-width:0.1524; stroke-opacity:1; 
stroke-linecap:round; stroke-linejoin:round;">
<g transform="rotate(-90.000000 30.6451 20.0279)">
<text x="30.6451" y="20.6629"
textLength="3.8318" font-size="1.6933" lengthAdjust="spacingAndGlyphs"
text-anchor="end" opacity="0">VCC</text>
</g>
<g class="stroked-text"><desc>VCC</desc>
<path d="M29.9546 23.6357
L31.2246 23.2124
" />
<path d="M31.2246 23.2124
L29.9546 22.7890
" />
<path d="M31.1037 21.6400
L31.1642 21.7004
" />
<path d="M31.1642 21.7004
L31.2246 21.8819
" />
<path d="M31.2246 21.8819
L31.2246 22.0028
" />
<path d="M31.2246 22.0028
L31.1642 22.1842
" />
<path d="M31.1642 22.1842
L31.0432 22.3052
" />
<path d="M31.0432 22.3052
L30.9222 22.3657
" />
<path d="M30.9222 22.3657
L30.6803 22.4261
" />
<path d="M30.6803 22.4261
L30.4989 22.4261
" />
<path d="M30.4989 22.4261
L30.2570 22.3657
" />
<path d="M30.2570 22.3657
L30.1361 22.3052
" />
<path d="M30.1361 22.3052
L30.0151 22.1842
" />
<path d="M30.0151 22.1842
L29.9546 22.0028
" />
<path d="M29.9546 22.0028
L29.9546 21.8819
" />
<path d="M29.9546 21.8819
L30.0151 21.7004
" />
<path d="M30.0151 21.7004
L30.0756 21.6400
" />
<path d="M31.1037 20.3700
L31.1642 20.4304
" />
<path d="M31.1642 20.4304
L31.2246 20.6119
" />
<path d="M31.2246 20.6119
L31.2246 20.7328
" />
<path d="M31.2246 20.7328
L31.1642 20.9142
" />
<path d="M31.1642 20.9142
L31.0432 21.0352
" />
<path d="M31.0432 21.0352
L30.9222 21.0957
" />
<path d="M30.9222 21.0957
L30.6803 21.1561
" />
<path d="M30.6803 21.1561
L30.4989 21.1561
" />
<path d="M30.4989 21.1561
L30.2570 21.0957
" />
<path d="M30.2570 21.0957
L30.1361 21.0352
" />
<path d="M30.1361 21.0352
L30.0151 20.9142
" />
<path d="M30.0151 20.9142
L29.9546 20.7328
" />
<path d="M29.9546 20.7328
L29.9546 20.6119
" />
<path d="M29.9546 20.6119
L30.0151 20.4304
" />
<path d="M30.0151 20.4304
L30.0756 20.3700
" />
</g></g>
<g style="fill:#A90000; fill-opacity:0.0; 
stroke:#A90000; stroke-width:0.1524; stroke-opacity:1; 
stroke-linecap:round; stroke-linejoin:round;">
<g transform="rotate(-90.000000 30.3911 16.9799)">
<text x="30.3911" y="16.9799"
textLength="3.8317" font-size="1.6933" lengthAdjust="spacingAndGlyphs"
text-anchor="middle" opacity="0">125</text>
</g>
<g class="stroked-text"><desc>125</desc>
<path d="M30.2276 17.8264
L30.2276 18.5521
" />
<path d="M30.2276 18.1893
L28.9576 18.1893
" />
<path d="M28.9576 18.1893
L29.1391 18.3102
" />
<path d="M29.1391 18.3102
L29.2600 18.4312
" />
<path d="M29.2600 18.4312
L29.3205 18.5521
" />
<path d="M29.0786 17.3426
L29.0181 17.2822
" />
<path d="M29.0181 17.2822
L28.9576 17.1612
" />
<path d="M28.9576 17.1612
L28.9576 16.8588
" />
<path d="M28.9576 16.8588
L29.0181 16.7379
" />
<path d="M29.0181 16.7379
L29.0786 16.6774
" />
<path d="M29.0786 16.6774
L29.1995 16.6169
" />
<path d="M29.1995 16.6169
L29.3205 16.6169
" />
<path d="M29.3205 16.6169
L29.5019 16.6774
" />
<path d="M29.5019 16.6774
L30.2276 17.4031
" />
<path d="M30.2276 17.4031
L30.2276 16.6169
" />
<path d="M28.9576 15.4679
L28.9576 16.0727
" />
<path d="M28.9576 16.0727
L29.5624 16.1331
" />
<path d="M29.5624 16.1331
L29.5019 16.0727
" />
<path d="M29.5019 16.0727
L29.4414 15.9517
" />
<path d="M29.4414 15.9517
L29.4414 15.6493
" />
<path d="M29.4414 15.6493
L29.5019 15.5284
" />
<path d="M29.5019 15.5284
L29.5624 15.4679
" />
<path d="M29.5624 15.4679
L29.6833 15.4074
" />
<path d="M29.6833 15.4074
L29.9857 15.4074
" />
<path d="M29.9857 15.4074
L30.1067 15.4679
" />
<path d="M30.1067 15.4679
L30.1672 15.5284
" />
<path d="M30.1672 15.5284
L30.2276 15.6493
" />
<path d="M30.2276 15.6493
L30.2276 15.9517
" />
<path d="M30.2276 15.9517
L30.1672 16.0727
" />
<path d="M30.1672 16.0727
L30.1067 16.1331
" />
</g></g>
<g style="fill:#840000; fill-opacity:0.0; 
stroke:#840000; stroke-width:0.1524; stroke-opacity:1; 
stroke-linecap:round; stroke-linejoin:round;">
<path d="M33.1851 19.5199
L33.1851 14.4399
" />
</g>
<g style="fill:#006464; fill-opacity:0.0; 
stroke:#006464; stroke-width:0.1524; stroke-opacity:1; 
stroke-linecap:round; stroke-linejoin:round;">
<g transform="rotate(-90.000000 33.1851 20.0279)">
<text x="33.1851" y="20.6629"
textLength="3.8318" font-size="1.6933" lengthAdjust="spacingAndGlyphs"
text-anchor="end" opacity="0">VCC</text>
</g>
<g class="stroked-text"><desc>VCC</desc>
<path d="M32.4946 23.6357
L33.7646 23.2124
" />
<path d="M33.7646 23.2124
L32.4946 22.7890
" />
<path d="M33.6437 21.6400
L33.7042 21.7004
" />
<path d="M33.7042 21.7004
L33.7646 21.8819
" />
<path d="M33.7646 21.8819
L33.7646 22.0028
" />
<path d="M33.7646 22.0028
L33.7042 22.1842
" />
<path d="M33.7042 22.1842
L33.5832 22.3052
" />
<path d="M33.5832 22.3052
L33.4622 22.3657
" />
<path d="M33.4622 22.3657
L33.2203 22.4261
" />
<path d="M33.2203 22.4261
L33.0389 22.4261
" />
<path d="M33.0389 22.4261
L32.7970 22.3657
" />
<path d="M32.7970 22.3657
L32.6761 22.3052
" />
<path d="M32.6761 22.3052
L32.5551 22.1842
" />
<path d="M32.5551 22.1842
L32.4946 22.0028
" />
<path d="M32.4946 22.0028
L32.4946 21.8819
" />
<path d="M32.4946 21.8819
L32.5551 21.7004
" />
<path d="M32.5551 21.7004
L32.6156 21.6400
" />
<path d="M33.6437 20.3700
L33.7042 20.4304
" />
<path d="M33.7042 20.4304
L33.7646 20.6119
" />
<path d="M33.7646 20.6119
L33.7646 20.7328
" />
<path d="M33.7646 20.7328
L33.7042 20.9142
" />
<path d="M33.7042 20.9142
L33.5832 21.0352
" />
<path d="M33.5832 21.0352
L33.4622 21.0957
" />
<path d="M33.4622 21.0957
L33.2203 21.1561
" />
<path d="M33.2203 21.1561
L33.0389 21.1561
" />
<path d="M33.0389 21.1561
L32.7970 21.0957
" />
<path d="M32.7970 21.0957
L32.6761 21.0352
" />
<path d="M32.6761 21.0352
L32.5551 20.9142
" />
<path d="M32.5551 20.9142
L32.4946 20.7328
" />
<path d="M32.4946 20.7328
L32.4946 20.6119
" />
<path d="M32.4946 20.6119
L32.5551 20.4304
" />
<path d="M32.5551 20.4304
L32.6156 20.3700
" />
</g></g>
<g style="fill:#A90000; fill-opacity:0.0; 
stroke:#A90000; stroke-width:0.1524; stroke-opacity:1; 
stroke-linecap:round; stroke-linejoin:round;">
<g transform="rotate(-90.000000 32.9311 16.9799)">
<text x="32.9311" y="16.9799"
textLength="3.8317" font-size="1.6933" lengthAdjust="spacingAndGlyphs"
text-anchor="middle" opacity="0">128</text>
</g>
<g class="stroked-text"><desc>128</desc>
<path d="M32.7676 17.8264
L32.7676 18.5521
" />
<path d="M32.7676 18.1893
L31.4976 18.1893
" />
<path d="M31.4976 18.1893
L31.6791 18.3102
" />
<path d="M31.6791 18.3102
L31.8000 18.4312
" />
<path d="M31.8000 18.4312
L31.8605 18.5521
" />
<path d="M31.6186 17.3426
L31.5581 17.2822
" />
<path d="M31.5581 17.2822
L31.4976 17.1612
" />
<path d="M31.4976 17.1612
L31.4976 16.8588
" />
<path d="M31.4976 16.8588
L31.5581 16.7379
" />
<path d="M31.5581 16.7379
L31.6186 16.6774
" />
<path d="M31.6186 16.6774
L31.7395 16.6169
" />
<path d="M31.7395 16.6169
L31.8605 16.6169
" />
<path d="M31.8605 16.6169
L32.0419 16.6774
" />
<path d="M32.0419 16.6774
L32.7676 17.4031
" />
<path d="M32.7676 17.4031
L32.7676 16.6169
" />
<path d="M32.0419 15.8912
L31.9814 16.0122
" />
<path d="M31.9814 16.0122
L31.9210 16.0727
" />
<path d="M31.9210 16.0727
L31.8000 16.1331
" />
<path d="M31.8000 16.1331
L31.7395 16.1331
" />
<path d="M31.7395 16.1331
L31.6186 16.0727
" />
<path d="M31.6186 16.0727
L31.5581 16.0122
" />
<path d="M31.5581 16.0122
L31.4976 15.8912
" />
<path d="M31.4976 15.8912
L31.4976 15.6493
" />
<path d="M31.4976 15.6493
L31.5581 15.5284
" />
<path d="M31.5581 15.5284
L31.6186 15.4679
" />
<path d="M31.6186 15.4679
L31.7395 15.4074
" />
<path d="M31.7395 15.4074
L31.8000 15.4074
" />
<path d="M31.8000 15.4074
L31.9210 15.4679
" />
<path d="M31.9210 15.4679
L31.9814 15.5284
" />
<path d="M31.9814 15.5284
L32.0419 15.6493
" />
<path d="M32.0419 15.6493
L32.0419 15.8912
" />
<path d="M32.0419 15.8912
L32.1024 16.0122
" />
<path d="M32.1024 16.0122
L32.1629 16.0727
" />
<path d="M32.1629 16.0727
L32.2838 16.1331
" />
<path d="M32.2838 16.1331
L32.5257 16.1331
" />
<path d="M32.5257 16.1331
L32.6467 16.0727
" />
<path d="M32.6467 16.0727
L32.7072 16.0122
" />
<path d="M32.7072 16.0122
L32.7676 15.8912
" />
<path d="M32.7676 15.8912
L32.7676 15.6493
" />
<path d="M32.7676 15.6493
L32.7072 15.5284
" />
<path d="M32.7072 15.5284
L32.6467 15.4679
" />
<path d="M32.6467 15.4679
L32.5257 15.4074
" />
<path d="M32.5257 15.4074
L32.2838 15.4074
" />
<path d="M32.2838 15.4074
L32.1629 15.4679
" />
<path d="M32.1629 15.4679
L32.1024 15.5284
" />
<path d="M32.1024 15.5284
L32.0419 15.6493
" />
</g></g>
<g style="fill:#840000; fill-opacity:0.0; 
stroke:#840000; stroke-width:0.1524; stroke-opacity:1; 
stroke-linecap:round; stroke-linejoin:round;">
<path d="M15.4051 19.5199
L15.4051 14.4399
" />
</g>
<g style="fill:#006464; fill-opacity:0.0; 
stroke:#006464; stroke-width:0.1524; stroke-opacity:1; 
stroke-linecap:round; stroke-linejoin:round;">
<g transform="rotate(-90.000000 15.4051 20.0279)">
<text x="15.4051" y="20.6629"
textLength="3.8318" font-size="1.6933" lengthAdjust="spacingAndGlyphs"
text-anchor="end" opacity="0">VCC</text>
</g>
<g class="stroked-text"><desc>VCC</desc>
<path d="M14.7146 23.6357
L15.9846 23.2124
" />
<path d="M15.9846 23.2124
L14.7146 22.7890
" />
<path d="M15.8637 21.6400
L15.9242 21.7004
" />
<path d="M15.9242 21.7004
L15.9846 21.8819
" />
<path d="M15.9846 21.8819
L15.9846 22.0028
" />
<path d="M15.9846 22.0028
L15.9242 22.1842
" />
<path d="M15.9242 22.1842
L15.8032 22.3052
" />
<path d="M15.8032 22.3052
L15.6822 22.3657
" />
<path d="M15.6822 22.3657
L15.4403 22.4261
" />
<path d="M15.4403 22.4261
L15.2589 22.4261
" />
<path d="M15.2589 22.4261
L15.0170 22.3657
" />
<path d="M15.0170 22.3657
L14.8961 22.3052
" />
<path d="M14.8961 22.3052
L14.7751 22.1842
" />
<path d="M14.7751 22.1842
L14.7146 22.0028
" />
<path d="M14.7146 22.0028
L14.7146 21.8819
" />
<path d="M14.7146 21.8819
L14.7751 21.7004
" />
<path d="M14.7751 21.7004
L14.8356 21.6400
" />
<path d="M15.8637 20.3700
L15.9242 20.4304
" />
<path d="M15.9242 20.4304
L15.9846 20.6119
" />
<path d="M15.9846 20.6119
L15.9846 20.7328
" />
<path d="M15.9846 20.7328
L15.9242 20.9142
" />
<path d="M15.9242 20.9142
L15.8032 21.0352
" />
<path d="M15.8032 21.0352
L15.6822 21.0957
" />
<path d="M15.6822 21.0957
L15.4403 21.1561
" />
<path d="M15.4403 21.1561
L15.2589 21.1561
" />
<path d="M15.2589 21.1561
L15.0170 21.0957
" />
<path d="M15.0170 21.0957
L14.8961 21.0352
" />
<path d="M14.8961 21.0352
L14.7751 20.9142
" />
<path d="M14.7751 20.9142
L14.7146 20.7328
" />
<path d="M14.7146 20.7328
L14.7146 20.6119
" />
<path d="M14.7146 20.6119
L14.7751 20.4304
" />
<path d="M14.7751 20.4304
L14.8356 20.3700
" />
</g></g>
<g style="fill:#A90000; fill-opacity:0.0; 
stroke:#A90000; stroke-width:0.1524; stroke-opacity:1; 
stroke-linecap:round; stroke-linejoin:round;">
<g transform="rotate(-90.000000 15.1511 16.9799)">
<text x="15.1511" y="16.9799"
textLength="2.6222" font-size="1.6933" lengthAdjust="spacingAndGlyphs"
text-anchor="middle" opacity="0">13</text>
</g>
<g class="stroked-text"><desc>13</desc>
<path d="M14.9876 17.2217
L14.9876 17.9474
" />
<path d="M14.9876 17.5846
L13.7176 17.5846
" />
<path d="M13.7176 17.5846
L13.8991 17.7055
" />
<path d="M13.8991 17.7055
L14.0200 17.8265
" />
<path d="M14.0200 17.8265
L14.0805 17.9474
" />
<path d="M13.7176 16.7984
L13.7176 16.0122
" />
<path d="M13.7176 16.0122
L14.2014 16.4356
" />
<path d="M14.2014 16.4356
L14.2014 16.2541
" />
<path d="M14.2014 16.2541
L14.2619 16.1332
" />
<path d="M14.2619 16.1332
L14.3224 16.0727
" />
<path d="M14.3224 16.0727
L14.4433 16.0122
" />
<path d="M14.4433 16.0122
L14.7457 16.0122
" />
<path d="M14.7457 16.0122
L14.8667 16.0727
" />
<path d="M14.8667 16.0727
L14.9272 16.1332
" />
<path d="M14.9272 16.1332
L14.9876 16.2541
" />
<path d="M14.9876 16.2541
L14.9876 16.6170
" />
<path d="M14.9876 16.6170
L14.9272 16.7379
" />
<path d="M14.9272 16.7379
L14.8667 16.7984
" />
</g></g>
<g style="fill:#840000; fill-opacity:0.0; 
stroke:#840000; stroke-width:0.1524; stroke-opacity:1; 
stroke-linecap:round; stroke-linejoin:round;">
<path d="M35.7251 19.5199
L35.7251 14.4399
" />
</g>
<g style="fill:#006464; fill-opacity:0.0; 
stroke:#006464; stroke-width:0.1524; stroke-opacity:1; 
stroke-linecap:round; stroke-linejoin:round;">
<g transform="rotate(-90.000000 35.7251 20.0279)">
<text x="35.7251" y="20.6629"
textLength="3.8318" font-size="1.6933" lengthAdjust="spacingAndGlyphs"
text-anchor="end" opacity="0">VCC</text>
</g>
<g class="stroked-text"><desc>VCC</desc>
<path d="M35.0346 23.6357
L36.3046 23.2124
" />
<path d="M36.3046 23.2124
L35.0346 22.7890
" />
<path d="M36.1837 21.6400
L36.2442 21.7004
" />
<path d="M36.2442 21.7004
L36.3046 21.8819
" />
<path d="M36.3046 21.8819
L36.3046 22.0028
" />
<path d="M36.3046 22.0028
L36.2442 22.1842
" />
<path d="M36.2442 22.1842
L36.1232 22.3052
" />
<path d="M36.1232 22.3052
L36.0022 22.3657
" />
<path d="M36.0022 22.3657
L35.7603 22.4261
" />
<path d="M35.7603 22.4261
L35.5789 22.4261
" />
<path d="M35.5789 22.4261
L35.3370 22.3657
" />
<path d="M35.3370 22.3657
L35.2161 22.3052
" />
<path d="M35.2161 22.3052
L35.0951 22.1842
" />
<path d="M35.0951 22.1842
L35.0346 22.0028
" />
<path d="M35.0346 22.0028
L35.0346 21.8819
" />
<path d="M35.0346 21.8819
L35.0951 21.7004
" />
<path d="M35.0951 21.7004
L35.1556 21.6400
" />
<path d="M36.1837 20.3700
L36.2442 20.4304
" />
<path d="M36.2442 20.4304
L36.3046 20.6119
" />
<path d="M36.3046 20.6119
L36.3046 20.7328
" />
<path d="M36.3046 20.7328
L36.2442 20.9142
" />
<path d="M36.2442 20.9142
L36.1232 21.0352
" />
<path d="M36.1232 21.0352
L36.0022 21.0957
" />
<path d="M36.0022 21.0957
L35.7603 21.1561
" />
<path d="M35.7603 21.1561
L35.5789 21.1561
" />
<path d="M35.5789 21.1561
L35.3370 21.0957
" />
<path d="M35.3370 21.0957
L35.2161 21.0352
" />
<path d="M35.2161 21.0352
L35.0951 20.9142
" />
<path d="M35.0951 20.9142
L35.0346 20.7328
" />
<path d="M35.0346 20.7328
L35.0346 20.6119
" />
<path d="M35.0346 20.6119
L35.0951 20.4304
" />
<path d="M35.0951 20.4304
L35.1556 20.3700
" />
</g></g>
<g style="fill:#A90000; fill-opacity:0.0; 
stroke:#A90000; stroke-width:0.1524; stroke-opacity:1; 
stroke-linecap:round; stroke-linejoin:round;">
<g transform="rotate(-90.000000 35.4711 16.9799)">
<text x="35.4711" y="16.9799"
textLength="3.8317" font-size="1.6933" lengthAdjust="spacingAndGlyphs"
text-anchor="middle" opacity="0">130</text>
</g>
<g class="stroked-text"><desc>130</desc>
<path d="M35.3076 17.8264
L35.3076 18.5521
" />
<path d="M35.3076 18.1893
L34.0376 18.1893
" />
<path d="M34.0376 18.1893
L34.2191 18.3102
" />
<path d="M34.2191 18.3102
L34.3400 18.4312
" />
<path d="M34.3400 18.4312
L34.4005 18.5521
" />
<path d="M34.0376 17.4031
L34.0376 16.6169
" />
<path d="M34.0376 16.6169
L34.5214 17.0403
" />
<path d="M34.5214 17.0403
L34.5214 16.8588
" />
<path d="M34.5214 16.8588
L34.5819 16.7379
" />
<path d="M34.5819 16.7379
L34.6424 16.6774
" />
<path d="M34.6424 16.6774
L34.7633 16.6169
" />
<path d="M34.7633 16.6169
L35.0657 16.6169
" />
<path d="M35.0657 16.6169
L35.1867 16.6774
" />
<path d="M35.1867 16.6774
L35.2472 16.7379
" />
<path d="M35.2472 16.7379
L35.3076 16.8588
" />
<path d="M35.3076 16.8588
L35.3076 17.2217
" />
<path d="M35.3076 17.2217
L35.2472 17.3426
" />
<path d="M35.2472 17.3426
L35.1867 17.4031
" />
<path d="M34.0376 15.8308
L34.0376 15.7098
" />
<path d="M34.0376 15.7098
L34.0981 15.5889
" />
<path d="M34.0981 15.5889
L34.1586 15.5284
" />
<path d="M34.1586 15.5284
L34.2795 15.4679
" />
<path d="M34.2795 15.4679
L34.5214 15.4074
" />
<path d="M34.5214 15.4074
L34.8238 15.4074
" />
<path d="M34.8238 15.4074
L35.0657 15.4679
" />
<path d="M35.0657 15.4679
L35.1867 15.5284
" />
<path d="M35.1867 15.5284
L35.2472 15.5889
" />
<path d="M35.2472 15.5889
L35.3076 15.7098
" />
<path d="M35.3076 15.7098
L35.3076 15.8308
" />
<path d="M35.3076 15.8308
L35.2472 15.9517
" />
<path d="M35.2472 15.9517
L35.1867 16.0122
" />
<path d="M35.1867 16.0122
L35.0657 16.0727
" />
<path d="M35.0657 16.0727
L34.8238 16.1331
" />
<path d="M34.8238 16.1331
L34.5214 16.1331
" />
<path d="M34.5214 16.1331
L34.2795 16.0727
" />
<path d="M34.2795 16.0727
L34.1586 16.0122
" />
<path d="M34.1586 16.0122
L34.0981 15.9517
" />
<path d="M34.0981 15.9517
L34.0376 15.8308
" />
</g></g>
<g style="fill:#840000; fill-opacity:0.0; 
stroke:#840000; stroke-width:0.1524; stroke-opacity:1; 
stroke-linecap:round; stroke-linejoin:round;">
<path d="M43.3451 19.5199
L43.3451 14.4399
" />
</g>
<g style="fill:#006464; fill-opacity:0.0; 
stroke:#006464; stroke-width:0.1524; stroke-opacity:1; 
stroke-linecap:round; stroke-linejoin:round;">
<g transform="rotate(-90.000000 43.3451 20.0279)">
<text x="43.3451" y="20.6629"
textLength="7.8837" font-size="1.6933" lengthAdjust="spacingAndGlyphs"
text-anchor="end" opacity="0">VCCA_TL</text>
</g>
<g class="stroked-text"><desc>VCCA_TL</desc>
<path d="M42.6546 27.6876
L43.9246 27.2643
" />
<path d="M43.9246 27.2643
L42.6546 26.8409
" />
<path d="M43.8037 25.6919
L43.8642 25.7523
" />
<path d="M43.8642 25.7523
L43.9246 25.9338
" />
<path d="M43.9246 25.9338
L43.9246 26.0547
" />
<path d="M43.9246 26.0547
L43.8642 26.2361
" />
<path d="M43.8642 26.2361
L43.7432 26.3571
" />
<path d="M43.7432 26.3571
L43.6222 26.4176
" />
<path d="M43.6222 26.4176
L43.3803 26.4780
" />
<path d="M43.3803 26.4780
L43.1989 26.4780
" />
<path d="M43.1989 26.4780
L42.9570 26.4176
" />
<path d="M42.9570 26.4176
L42.8361 26.3571
" />
<path d="M42.8361 26.3571
L42.7151 26.2361
" />
<path d="M42.7151 26.2361
L42.6546 26.0547
" />
<path d="M42.6546 26.0547
L42.6546 25.9338
" />
<path d="M42.6546 25.9338
L42.7151 25.7523
" />
<path d="M42.7151 25.7523
L42.7756 25.6919
" />
<path d="M43.8037 24.4219
L43.8642 24.4823
" />
<path d="M43.8642 24.4823
L43.9246 24.6638
" />
<path d="M43.9246 24.6638
L43.9246 24.7847
" />
<path d="M43.9246 24.7847
L43.8642 24.9661
" />
<path d="M43.8642 24.9661
L43.7432 25.0871
" />
<path d="M43.7432 25.0871
L43.6222 25.1476
" />
<path d="M43.6222 25.1476
L43.3803 25.2080
" />
<path d="M43.3803 25.2080
L43.1989 25.2080
" />
<path d="M43.1989 25.2080
L42.9570 25.1476
" />
<path d="M42.9570 25.1476
L42.8361 25.0871
" />
<path d="M42.8361 25.0871
L42.7151 24.9661
" />
<path d="M42.7151 24.9661
L42.6546 24.7847
" />
<path d="M42.6546 24.7847
L42.6546 24.6638
" />
<path d="M42.6546 24.6638
L42.7151 24.4823
" />
<path d="M42.7151 24.4823
L42.7756 24.4219
" />
<path d="M43.5618 23.9380
L43.5618 23.3333
" />
<path d="M43.9246 24.0590
L42.6546 23.6357
" />
<path d="M42.6546 23.6357
L43.9246 23.2123
" />
<path d="M44.0456 23.0914
L44.0456 22.1237
" />
<path d="M42.6546 22.0028
L42.6546 21.2771
" />
<path d="M43.9246 21.6399
L42.6546 21.6399
" />
<path d="M43.9246 20.2490
L43.9246 20.8538
" />
<path d="M43.9246 20.8538
L42.6546 20.8538
" />
</g></g>
<g style="fill:#A90000; fill-opacity:0.0; 
stroke:#A90000; stroke-width:0.1524; stroke-opacity:1; 
stroke-linecap:round; stroke-linejoin:round;">
<g transform="rotate(-90.000000 43.0911 16.9799)">
<text x="43.0911" y="16.9799"
textLength="1.4127" font-size="1.6933" lengthAdjust="spacingAndGlyphs"
text-anchor="middle" opacity="0">2</text>
</g>
<g class="stroked-text"><desc>2</desc>
<path d="M41.7786 17.3426
L41.7181 17.2822
" />
<path d="M41.7181 17.2822
L41.6576 17.1612
" />
<path d="M41.6576 17.1612
L41.6576 16.8588
" />
<path d="M41.6576 16.8588
L41.7181 16.7379
" />
<path d="M41.7181 16.7379
L41.7786 16.6774
" />
<path d="M41.7786 16.6774
L41.8995 16.6169
" />
<path d="M41.8995 16.6169
L42.0205 16.6169
" />
<path d="M42.0205 16.6169
L42.2019 16.6774
" />
<path d="M42.2019 16.6774
L42.9276 17.4031
" />
<path d="M42.9276 17.4031
L42.9276 16.6169
" />
</g></g>
<g style="fill:#840000; fill-opacity:0.0; 
stroke:#840000; stroke-width:0.1524; stroke-opacity:1; 
stroke-linecap:round; stroke-linejoin:round;">
<path d="M17.9451 19.5199
L17.9451 14.4399
" />
</g>
<g style="fill:#006464; fill-opacity:0.0; 
stroke:#006464; stroke-width:0.1524; stroke-opacity:1; 
stroke-linecap:round; stroke-linejoin:round;">
<g transform="rotate(-90.000000 17.9451 20.0279)">
<text x="17.9451" y="20.6629"
textLength="3.8318" font-size="1.6933" lengthAdjust="spacingAndGlyphs"
text-anchor="end" opacity="0">VCC</text>
</g>
<g class="stroked-text"><desc>VCC</desc>
<path d="M17.2546 23.6357
L18.5246 23.2124
" />
<path d="M18.5246 23.2124
L17.2546 22.7890
" />
<path d="M18.4037 21.6400
L18.4642 21.7004
" />
<path d="M18.4642 21.7004
L18.5246 21.8819
" />
<path d="M18.5246 21.8819
L18.5246 22.0028
" />
<path d="M18.5246 22.0028
L18.4642 22.1842
" />
<path d="M18.4642 22.1842
L18.3432 22.3052
" />
<path d="M18.3432 22.3052
L18.2222 22.3657
" />
<path d="M18.2222 22.3657
L17.9803 22.4261
" />
<path d="M17.9803 22.4261
L17.7989 22.4261
" />
<path d="M17.7989 22.4261
L17.5570 22.3657
" />
<path d="M17.5570 22.3657
L17.4361 22.3052
" />
<path d="M17.4361 22.3052
L17.3151 22.1842
" />
<path d="M17.3151 22.1842
L17.2546 22.0028
" />
<path d="M17.2546 22.0028
L17.2546 21.8819
" />
<path d="M17.2546 21.8819
L17.3151 21.7004
" />
<path d="M17.3151 21.7004
L17.3756 21.6400
" />
<path d="M18.4037 20.3700
L18.4642 20.4304
" />
<path d="M18.4642 20.4304
L18.5246 20.6119
" />
<path d="M18.5246 20.6119
L18.5246 20.7328
" />
<path d="M18.5246 20.7328
L18.4642 20.9142
" />
<path d="M18.4642 20.9142
L18.3432 21.0352
" />
<path d="M18.3432 21.0352
L18.2222 21.0957
" />
<path d="M18.2222 21.0957
L17.9803 21.1561
" />
<path d="M17.9803 21.1561
L17.7989 21.1561
" />
<path d="M17.7989 21.1561
L17.5570 21.0957
" />
<path d="M17.5570 21.0957
L17.4361 21.0352
" />
<path d="M17.4361 21.0352
L17.3151 20.9142
" />
<path d="M17.3151 20.9142
L17.2546 20.7328
" />
<path d="M17.2546 20.7328
L17.2546 20.6119
" />
<path d="M17.2546 20.6119
L17.3151 20.4304
" />
<path d="M17.3151 20.4304
L17.3756 20.3700
" />
</g></g>
<g style="fill:#A90000; fill-opacity:0.0; 
stroke:#A90000; stroke-width:0.1524; stroke-opacity:1; 
stroke-linecap:round; stroke-linejoin:round;">
<g transform="rotate(-90.000000 17.6911 16.9799)">
<text x="17.6911" y="16.9799"
textLength="2.6222" font-size="1.6933" lengthAdjust="spacingAndGlyphs"
text-anchor="middle" opacity="0">22</text>
</g>
<g class="stroked-text"><desc>22</desc>
<path d="M16.3786 17.9474
L16.3181 17.8870
" />
<path d="M16.3181 17.8870
L16.2576 17.7660
" />
<path d="M16.2576 17.7660
L16.2576 17.4636
" />
<path d="M16.2576 17.4636
L16.3181 17.3427
" />
<path d="M16.3181 17.3427
L16.3786 17.2822
" />
<path d="M16.3786 17.2822
L16.4995 17.2217
" />
<path d="M16.4995 17.2217
L16.6205 17.2217
" />
<path d="M16.6205 17.2217
L16.8019 17.2822
" />
<path d="M16.8019 17.2822
L17.5276 18.0079
" />
<path d="M17.5276 18.0079
L17.5276 17.2217
" />
<path d="M16.3786 16.7379
L16.3181 16.6775
" />
<path d="M16.3181 16.6775
L16.2576 16.5565
" />
<path d="M16.2576 16.5565
L16.2576 16.2541
" />
<path d="M16.2576 16.2541
L16.3181 16.1332
" />
<path d="M16.3181 16.1332
L16.3786 16.0727
" />
<path d="M16.3786 16.0727
L16.4995 16.0122
" />
<path d="M16.4995 16.0122
L16.6205 16.0122
" />
<path d="M16.6205 16.0122
L16.8019 16.0727
" />
<path d="M16.8019 16.0727
L17.5276 16.7984
" />
<path d="M17.5276 16.7984
L17.5276 16.0122
" />
</g></g>
<g style="fill:#840000; fill-opacity:0.0; 
stroke:#840000; stroke-width:0.1524; stroke-opacity:1; 
stroke-linecap:round; stroke-linejoin:round;">
<path d="M20.4851 19.5199
L20.4851 14.4399
" />
</g>
<g style="fill:#006464; fill-opacity:0.0; 
stroke:#006464; stroke-width:0.1524; stroke-opacity:1; 
stroke-linecap:round; stroke-linejoin:round;">
<g transform="rotate(-90.000000 20.4851 20.0279)">
<text x="20.4851" y="20.6629"
textLength="3.8318" font-size="1.6933" lengthAdjust="spacingAndGlyphs"
text-anchor="end" opacity="0">VCC</text>
</g>
<g class="stroked-text"><desc>VCC</desc>
<path d="M19.7946 23.6357
L21.0646 23.2124
" />
<path d="M21.0646 23.2124
L19.7946 22.7890
" />
<path d="M20.9437 21.6400
L21.0042 21.7004
" />
<path d="M21.0042 21.7004
L21.0646 21.8819
" />
<path d="M21.0646 21.8819
L21.0646 22.0028
" />
<path d="M21.0646 22.0028
L21.0042 22.1842
" />
<path d="M21.0042 22.1842
L20.8832 22.3052
" />
<path d="M20.8832 22.3052
L20.7622 22.3657
" />
<path d="M20.7622 22.3657
L20.5203 22.4261
" />
<path d="M20.5203 22.4261
L20.3389 22.4261
" />
<path d="M20.3389 22.4261
L20.0970 22.3657
" />
<path d="M20.0970 22.3657
L19.9761 22.3052
" />
<path d="M19.9761 22.3052
L19.8551 22.1842
" />
<path d="M19.8551 22.1842
L19.7946 22.0028
" />
<path d="M19.7946 22.0028
L19.7946 21.8819
" />
<path d="M19.7946 21.8819
L19.8551 21.7004
" />
<path d="M19.8551 21.7004
L19.9156 21.6400
" />
<path d="M20.9437 20.3700
L21.0042 20.4304
" />
<path d="M21.0042 20.4304
L21.0646 20.6119
" />
<path d="M21.0646 20.6119
L21.0646 20.7328
" />
<path d="M21.0646 20.7328
L21.0042 20.9142
" />
<path d="M21.0042 20.9142
L20.8832 21.0352
" />
<path d="M20.8832 21.0352
L20.7622 21.0957
" />
<path d="M20.7622 21.0957
L20.5203 21.1561
" />
<path d="M20.5203 21.1561
L20.3389 21.1561
" />
<path d="M20.3389 21.1561
L20.0970 21.0957
" />
<path d="M20.0970 21.0957
L19.9761 21.0352
" />
<path d="M19.9761 21.0352
L19.8551 20.9142
" />
<path d="M19.8551 20.9142
L19.7946 20.7328
" />
<path d="M19.7946 20.7328
L19.7946 20.6119
" />
<path d="M19.7946 20.6119
L19.8551 20.4304
" />
<path d="M19.8551 20.4304
L19.9156 20.3700
" />
</g></g>
<g style="fill:#A90000; fill-opacity:0.0; 
stroke:#A90000; stroke-width:0.1524; stroke-opacity:1; 
stroke-linecap:round; stroke-linejoin:round;">
<g transform="rotate(-90.000000 20.2311 16.9799)">
<text x="20.2311" y="16.9799"
textLength="2.6222" font-size="1.6933" lengthAdjust="spacingAndGlyphs"
text-anchor="middle" opacity="0">49</text>
</g>
<g class="stroked-text"><desc>49</desc>
<path d="M19.2210 17.3427
L20.0676 17.3427
" />
<path d="M18.7372 17.6451
L19.6443 17.9474
" />
<path d="M19.6443 17.9474
L19.6443 17.1613
" />
<path d="M20.0676 16.6170
L20.0676 16.3751
" />
<path d="M20.0676 16.3751
L20.0072 16.2541
" />
<path d="M20.0072 16.2541
L19.9467 16.1937
" />
<path d="M19.9467 16.1937
L19.7652 16.0727
" />
<path d="M19.7652 16.0727
L19.5233 16.0122
" />
<path d="M19.5233 16.0122
L19.0395 16.0122
" />
<path d="M19.0395 16.0122
L18.9186 16.0727
" />
<path d="M18.9186 16.0727
L18.8581 16.1332
" />
<path d="M18.8581 16.1332
L18.7976 16.2541
" />
<path d="M18.7976 16.2541
L18.7976 16.4960
" />
<path d="M18.7976 16.4960
L18.8581 16.6170
" />
<path d="M18.8581 16.6170
L18.9186 16.6775
" />
<path d="M18.9186 16.6775
L19.0395 16.7379
" />
<path d="M19.0395 16.7379
L19.3419 16.7379
" />
<path d="M19.3419 16.7379
L19.4629 16.6775
" />
<path d="M19.4629 16.6775
L19.5233 16.6170
" />
<path d="M19.5233 16.6170
L19.5838 16.4960
" />
<path d="M19.5838 16.4960
L19.5838 16.2541
" />
<path d="M19.5838 16.2541
L19.5233 16.1332
" />
<path d="M19.5233 16.1332
L19.4629 16.0727
" />
<path d="M19.4629 16.0727
L19.3419 16.0122
" />
</g></g>
<g style="fill:#840000; fill-opacity:0.0; 
stroke:#840000; stroke-width:0.1524; stroke-opacity:1; 
stroke-linecap:round; stroke-linejoin:round;">
<path d="M23.0251 19.5199
L23.0251 14.4399
" />
</g>
<g style="fill:#006464; fill-opacity:0.0; 
stroke:#006464; stroke-width:0.1524; stroke-opacity:1; 
stroke-linecap:round; stroke-linejoin:round;">
<g transform="rotate(-90.000000 23.0251 20.0279)">
<text x="23.0251" y="20.6629"
textLength="3.8318" font-size="1.6933" lengthAdjust="spacingAndGlyphs"
text-anchor="end" opacity="0">VCC</text>
</g>
<g class="stroked-text"><desc>VCC</desc>
<path d="M22.3346 23.6357
L23.6046 23.2124
" />
<path d="M23.6046 23.2124
L22.3346 22.7890
" />
<path d="M23.4837 21.6400
L23.5442 21.7004
" />
<path d="M23.5442 21.7004
L23.6046 21.8819
" />
<path d="M23.6046 21.8819
L23.6046 22.0028
" />
<path d="M23.6046 22.0028
L23.5442 22.1842
" />
<path d="M23.5442 22.1842
L23.4232 22.3052
" />
<path d="M23.4232 22.3052
L23.3022 22.3657
" />
<path d="M23.3022 22.3657
L23.0603 22.4261
" />
<path d="M23.0603 22.4261
L22.8789 22.4261
" />
<path d="M22.8789 22.4261
L22.6370 22.3657
" />
<path d="M22.6370 22.3657
L22.5161 22.3052
" />
<path d="M22.5161 22.3052
L22.3951 22.1842
" />
<path d="M22.3951 22.1842
L22.3346 22.0028
" />
<path d="M22.3346 22.0028
L22.3346 21.8819
" />
<path d="M22.3346 21.8819
L22.3951 21.7004
" />
<path d="M22.3951 21.7004
L22.4556 21.6400
" />
<path d="M23.4837 20.3700
L23.5442 20.4304
" />
<path d="M23.5442 20.4304
L23.6046 20.6119
" />
<path d="M23.6046 20.6119
L23.6046 20.7328
" />
<path d="M23.6046 20.7328
L23.5442 20.9142
" />
<path d="M23.5442 20.9142
L23.4232 21.0352
" />
<path d="M23.4232 21.0352
L23.3022 21.0957
" />
<path d="M23.3022 21.0957
L23.0603 21.1561
" />
<path d="M23.0603 21.1561
L22.8789 21.1561
" />
<path d="M22.8789 21.1561
L22.6370 21.0957
" />
<path d="M22.6370 21.0957
L22.5161 21.0352
" />
<path d="M22.5161 21.0352
L22.3951 20.9142
" />
<path d="M22.3951 20.9142
L22.3346 20.7328
" />
<path d="M22.3346 20.7328
L22.3346 20.6119
" />
<path d="M22.3346 20.6119
L22.3951 20.4304
" />
<path d="M22.3951 20.4304
L22.4556 20.3700
" />
</g></g>
<g style="fill:#A90000; fill-opacity:0.0; 
stroke:#A90000; stroke-width:0.1524; stroke-opacity:1; 
stroke-linecap:round; stroke-linejoin:round;">
<g transform="rotate(-90.000000 22.7711 16.9799)">
<text x="22.7711" y="16.9799"
textLength="2.6222" font-size="1.6933" lengthAdjust="spacingAndGlyphs"
text-anchor="middle" opacity="0">57</text>
</g>
<g class="stroked-text"><desc>57</desc>
<path d="M21.3376 17.2822
L21.3376 17.8870
" />
<path d="M21.3376 17.8870
L21.9424 17.9474
" />
<path d="M21.9424 17.9474
L21.8819 17.8870
" />
<path d="M21.8819 17.8870
L21.8214 17.7660
" />
<path d="M21.8214 17.7660
L21.8214 17.4636
" />
<path d="M21.8214 17.4636
L21.8819 17.3427
" />
<path d="M21.8819 17.3427
L21.9424 17.2822
" />
<path d="M21.9424 17.2822
L22.0633 17.2217
" />
<path d="M22.0633 17.2217
L22.3657 17.2217
" />
<path d="M22.3657 17.2217
L22.4867 17.2822
" />
<path d="M22.4867 17.2822
L22.5472 17.3427
" />
<path d="M22.5472 17.3427
L22.6076 17.4636
" />
<path d="M22.6076 17.4636
L22.6076 17.7660
" />
<path d="M22.6076 17.7660
L22.5472 17.8870
" />
<path d="M22.5472 17.8870
L22.4867 17.9474
" />
<path d="M21.3376 16.7984
L21.3376 15.9518
" />
<path d="M21.3376 15.9518
L22.6076 16.4960
" />
</g></g>
<g style="fill:#840000; fill-opacity:0.0; 
stroke:#840000; stroke-width:0.1524; stroke-opacity:1; 
stroke-linecap:round; stroke-linejoin:round;">
<path d="M40.8051 19.5199
L40.8051 14.4399
" />
</g>
<g style="fill:#006464; fill-opacity:0.0; 
stroke:#006464; stroke-width:0.1524; stroke-opacity:1; 
stroke-linecap:round; stroke-linejoin:round;">
<g transform="rotate(-90.000000 40.8051 20.0279)">
<text x="40.8051" y="20.6629"
textLength="8.4280" font-size="1.6933" lengthAdjust="spacingAndGlyphs"
text-anchor="end" opacity="0">VCCA_BR</text>
</g>
<g class="stroked-text"><desc>VCCA_BR</desc>
<path d="M40.1146 28.2319
L41.3846 27.8086
" />
<path d="M41.3846 27.8086
L40.1146 27.3852
" />
<path d="M41.2637 26.2362
L41.3242 26.2966
" />
<path d="M41.3242 26.2966
L41.3846 26.4781
" />
<path d="M41.3846 26.4781
L41.3846 26.5990
" />
<path d="M41.3846 26.5990
L41.3242 26.7804
" />
<path d="M41.3242 26.7804
L41.2032 26.9014
" />
<path d="M41.2032 26.9014
L41.0822 26.9619
" />
<path d="M41.0822 26.9619
L40.8403 27.0223
" />
<path d="M40.8403 27.0223
L40.6589 27.0223
" />
<path d="M40.6589 27.0223
L40.4170 26.9619
" />
<path d="M40.4170 26.9619
L40.2961 26.9014
" />
<path d="M40.2961 26.9014
L40.1751 26.7804
" />
<path d="M40.1751 26.7804
L40.1146 26.5990
" />
<path d="M40.1146 26.5990
L40.1146 26.4781
" />
<path d="M40.1146 26.4781
L40.1751 26.2966
" />
<path d="M40.1751 26.2966
L40.2356 26.2362
" />
<path d="M41.2637 24.9662
L41.3242 25.0266
" />
<path d="M41.3242 25.0266
L41.3846 25.2081
" />
<path d="M41.3846 25.2081
L41.3846 25.3290
" />
<path d="M41.3846 25.3290
L41.3242 25.5104
" />
<path d="M41.3242 25.5104
L41.2032 25.6314
" />
<path d="M41.2032 25.6314
L41.0822 25.6919
" />
<path d="M41.0822 25.6919
L40.8403 25.7523
" />
<path d="M40.8403 25.7523
L40.6589 25.7523
" />
<path d="M40.6589 25.7523
L40.4170 25.6919
" />
<path d="M40.4170 25.6919
L40.2961 25.6314
" />
<path d="M40.2961 25.6314
L40.1751 25.5104
" />
<path d="M40.1751 25.5104
L40.1146 25.3290
" />
<path d="M40.1146 25.3290
L40.1146 25.2081
" />
<path d="M40.1146 25.2081
L40.1751 25.0266
" />
<path d="M40.1751 25.0266
L40.2356 24.9662
" />
<path d="M41.0218 24.4823
L41.0218 23.8776
" />
<path d="M41.3846 24.6033
L40.1146 24.1800
" />
<path d="M40.1146 24.1800
L41.3846 23.7566
" />
<path d="M41.5056 23.6357
L41.5056 22.6680
" />
<path d="M40.7194 21.9423
L40.7799 21.7609
" />
<path d="M40.7799 21.7609
L40.8403 21.7004
" />
<path d="M40.8403 21.7004
L40.9613 21.6400
" />
<path d="M40.9613 21.6400
L41.1427 21.6400
" />
<path d="M41.1427 21.6400
L41.2637 21.7004
" />
<path d="M41.2637 21.7004
L41.3242 21.7609
" />
<path d="M41.3242 21.7609
L41.3846 21.8819
" />
<path d="M41.3846 21.8819
L41.3846 22.3657
" />
<path d="M41.3846 22.3657
L40.1146 22.3657
" />
<path d="M40.1146 22.3657
L40.1146 21.9423
" />
<path d="M40.1146 21.9423
L40.1751 21.8214
" />
<path d="M40.1751 21.8214
L40.2356 21.7609
" />
<path d="M40.2356 21.7609
L40.3565 21.7004
" />
<path d="M40.3565 21.7004
L40.4775 21.7004
" />
<path d="M40.4775 21.7004
L40.5984 21.7609
" />
<path d="M40.5984 21.7609
L40.6589 21.8214
" />
<path d="M40.6589 21.8214
L40.7194 21.9423
" />
<path d="M40.7194 21.9423
L40.7194 22.3657
" />
<path d="M41.3846 20.3700
L40.7799 20.7933
" />
<path d="M41.3846 21.0957
L40.1146 21.0957
" />
<path d="M40.1146 21.0957
L40.1146 20.6119
" />
<path d="M40.1146 20.6119
L40.1751 20.4909
" />
<path d="M40.1751 20.4909
L40.2356 20.4304
" />
<path d="M40.2356 20.4304
L40.3565 20.3700
" />
<path d="M40.3565 20.3700
L40.5380 20.3700
" />
<path d="M40.5380 20.3700
L40.6589 20.4304
" />
<path d="M40.6589 20.4304
L40.7194 20.4909
" />
<path d="M40.7194 20.4909
L40.7799 20.6119
" />
<path d="M40.7799 20.6119
L40.7799 21.0957
" />
</g></g>
<g style="fill:#A90000; fill-opacity:0.0; 
stroke:#A90000; stroke-width:0.1524; stroke-opacity:1; 
stroke-linecap:round; stroke-linejoin:round;">
<g transform="rotate(-90.000000 40.5511 16.9799)">
<text x="40.5511" y="16.9799"
textLength="2.6222" font-size="1.6933" lengthAdjust="spacingAndGlyphs"
text-anchor="middle" opacity="0">73</text>
</g>
<g class="stroked-text"><desc>73</desc>
<path d="M39.1176 18.0079
L39.1176 17.1613
" />
<path d="M39.1176 17.1613
L40.3876 17.7055
" />
<path d="M39.1176 16.7984
L39.1176 16.0122
" />
<path d="M39.1176 16.0122
L39.6014 16.4356
" />
<path d="M39.6014 16.4356
L39.6014 16.2541
" />
<path d="M39.6014 16.2541
L39.6619 16.1332
" />
<path d="M39.6619 16.1332
L39.7224 16.0727
" />
<path d="M39.7224 16.0727
L39.8433 16.0122
" />
<path d="M39.8433 16.0122
L40.1457 16.0122
" />
<path d="M40.1457 16.0122
L40.2667 16.0727
" />
<path d="M40.2667 16.0727
L40.3272 16.1332
" />
<path d="M40.3272 16.1332
L40.3876 16.2541
" />
<path d="M40.3876 16.2541
L40.3876 16.6170
" />
<path d="M40.3876 16.6170
L40.3272 16.7379
" />
<path d="M40.3272 16.7379
L40.2667 16.7984
" />
</g></g>
<g style="fill:#840000; fill-opacity:0.0; 
stroke:#840000; stroke-width:0.1524; stroke-opacity:1; 
stroke-linecap:round; stroke-linejoin:round;">
<path d="M25.5651 19.5199
L25.5651 14.4399
" />
</g>
<g style="fill:#006464; fill-opacity:0.0; 
stroke:#006464; stroke-width:0.1524; stroke-opacity:1; 
stroke-linecap:round; stroke-linejoin:round;">
<g transform="rotate(-90.000000 25.5651 20.0279)">
<text x="25.5651" y="20.6629"
textLength="3.8318" font-size="1.6933" lengthAdjust="spacingAndGlyphs"
text-anchor="end" opacity="0">VCC</text>
</g>
<g class="stroked-text"><desc>VCC</desc>
<path d="M24.8746 23.6357
L26.1446 23.2124
" />
<path d="M26.1446 23.2124
L24.8746 22.7890
" />
<path d="M26.0237 21.6400
L26.0842 21.7004
" />
<path d="M26.0842 21.7004
L26.1446 21.8819
" />
<path d="M26.1446 21.8819
L26.1446 22.0028
" />
<path d="M26.1446 22.0028
L26.0842 22.1842
" />
<path d="M26.0842 22.1842
L25.9632 22.3052
" />
<path d="M25.9632 22.3052
L25.8422 22.3657
" />
<path d="M25.8422 22.3657
L25.6003 22.4261
" />
<path d="M25.6003 22.4261
L25.4189 22.4261
" />
<path d="M25.4189 22.4261
L25.1770 22.3657
" />
<path d="M25.1770 22.3657
L25.0561 22.3052
" />
<path d="M25.0561 22.3052
L24.9351 22.1842
" />
<path d="M24.9351 22.1842
L24.8746 22.0028
" />
<path d="M24.8746 22.0028
L24.8746 21.8819
" />
<path d="M24.8746 21.8819
L24.9351 21.7004
" />
<path d="M24.9351 21.7004
L24.9956 21.6400
" />
<path d="M26.0237 20.3700
L26.0842 20.4304
" />
<path d="M26.0842 20.4304
L26.1446 20.6119
" />
<path d="M26.1446 20.6119
L26.1446 20.7328
" />
<path d="M26.1446 20.7328
L26.0842 20.9142
" />
<path d="M26.0842 20.9142
L25.9632 21.0352
" />
<path d="M25.9632 21.0352
L25.8422 21.0957
" />
<path d="M25.8422 21.0957
L25.6003 21.1561
" />
<path d="M25.6003 21.1561
L25.4189 21.1561
" />
<path d="M25.4189 21.1561
L25.1770 21.0957
" />
<path d="M25.1770 21.0957
L25.0561 21.0352
" />
<path d="M25.0561 21.0352
L24.9351 20.9142
" />
<path d="M24.9351 20.9142
L24.8746 20.7328
" />
<path d="M24.8746 20.7328
L24.8746 20.6119
" />
<path d="M24.8746 20.6119
L24.9351 20.4304
" />
<path d="M24.9351 20.4304
L24.9956 20.3700
" />
</g></g>
<g style="fill:#A90000; fill-opacity:0.0; 
stroke:#A90000; stroke-width:0.1524; stroke-opacity:1; 
stroke-linecap:round; stroke-linejoin:round;">
<g transform="rotate(-90.000000 25.3111 16.9799)">
<text x="25.3111" y="16.9799"
textLength="2.6222" font-size="1.6933" lengthAdjust="spacingAndGlyphs"
text-anchor="middle" opacity="0">85</text>
</g>
<g class="stroked-text"><desc>85</desc>
<path d="M24.4219 17.7055
L24.3614 17.8265
" />
<path d="M24.3614 17.8265
L24.3010 17.8870
" />
<path d="M24.3010 17.8870
L24.1800 17.9474
" />
<path d="M24.1800 17.9474
L24.1195 17.9474
" />
<path d="M24.1195 17.9474
L23.9986 17.8870
" />
<path d="M23.9986 17.8870
L23.9381 17.8265
" />
<path d="M23.9381 17.8265
L23.8776 17.7055
" />
<path d="M23.8776 17.7055
L23.8776 17.4636
" />
<path d="M23.8776 17.4636
L23.9381 17.3427
" />
<path d="M23.9381 17.3427
L23.9986 17.2822
" />
<path d="M23.9986 17.2822
L24.1195 17.2217
" />
<path d="M24.1195 17.2217
L24.1800 17.2217
" />
<path d="M24.1800 17.2217
L24.3010 17.2822
" />
<path d="M24.3010 17.2822
L24.3614 17.3427
" />
<path d="M24.3614 17.3427
L24.4219 17.4636
" />
<path d="M24.4219 17.4636
L24.4219 17.7055
" />
<path d="M24.4219 17.7055
L24.4824 17.8265
" />
<path d="M24.4824 17.8265
L24.5429 17.8870
" />
<path d="M24.5429 17.8870
L24.6638 17.9474
" />
<path d="M24.6638 17.9474
L24.9057 17.9474
" />
<path d="M24.9057 17.9474
L25.0267 17.8870
" />
<path d="M25.0267 17.8870
L25.0872 17.8265
" />
<path d="M25.0872 17.8265
L25.1476 17.7055
" />
<path d="M25.1476 17.7055
L25.1476 17.4636
" />
<path d="M25.1476 17.4636
L25.0872 17.3427
" />
<path d="M25.0872 17.3427
L25.0267 17.2822
" />
<path d="M25.0267 17.2822
L24.9057 17.2217
" />
<path d="M24.9057 17.2217
L24.6638 17.2217
" />
<path d="M24.6638 17.2217
L24.5429 17.2822
" />
<path d="M24.5429 17.2822
L24.4824 17.3427
" />
<path d="M24.4824 17.3427
L24.4219 17.4636
" />
<path d="M23.8776 16.0727
L23.8776 16.6775
" />
<path d="M23.8776 16.6775
L24.4824 16.7379
" />
<path d="M24.4824 16.7379
L24.4219 16.6775
" />
<path d="M24.4219 16.6775
L24.3614 16.5565
" />
<path d="M24.3614 16.5565
L24.3614 16.2541
" />
<path d="M24.3614 16.2541
L24.4219 16.1332
" />
<path d="M24.4219 16.1332
L24.4824 16.0727
" />
<path d="M24.4824 16.0727
L24.6033 16.0122
" />
<path d="M24.6033 16.0122
L24.9057 16.0122
" />
<path d="M24.9057 16.0122
L25.0267 16.0727
" />
<path d="M25.0267 16.0727
L25.0872 16.1332
" />
<path d="M25.0872 16.1332
L25.1476 16.2541
" />
<path d="M25.1476 16.2541
L25.1476 16.5565
" />
<path d="M25.1476 16.5565
L25.0872 16.6775
" />
<path d="M25.0872 16.6775
L25.0267 16.7379
" />
</g></g>
<g style="fill:#840000; fill-opacity:0.0; 
stroke:#840000; stroke-width:0.1524; stroke-opacity:1; 
stroke-linecap:round; stroke-linejoin:round;">
<path d="M28.1051 19.5199
L28.1051 14.4399
" />
</g>
<g style="fill:#006464; fill-opacity:0.0; 
stroke:#006464; stroke-width:0.1524; stroke-opacity:1; 
stroke-linecap:round; stroke-linejoin:round;">
<g transform="rotate(-90.000000 28.1051 20.0279)">
<text x="28.1051" y="20.6629"
textLength="3.8318" font-size="1.6933" lengthAdjust="spacingAndGlyphs"
text-anchor="end" opacity="0">VCC</text>
</g>
<g class="stroked-text"><desc>VCC</desc>
<path d="M27.4146 23.6357
L28.6846 23.2124
" />
<path d="M28.6846 23.2124
L27.4146 22.7890
" />
<path d="M28.5637 21.6400
L28.6242 21.7004
" />
<path d="M28.6242 21.7004
L28.6846 21.8819
" />
<path d="M28.6846 21.8819
L28.6846 22.0028
" />
<path d="M28.6846 22.0028
L28.6242 22.1842
" />
<path d="M28.6242 22.1842
L28.5032 22.3052
" />
<path d="M28.5032 22.3052
L28.3822 22.3657
" />
<path d="M28.3822 22.3657
L28.1403 22.4261
" />
<path d="M28.1403 22.4261
L27.9589 22.4261
" />
<path d="M27.9589 22.4261
L27.7170 22.3657
" />
<path d="M27.7170 22.3657
L27.5961 22.3052
" />
<path d="M27.5961 22.3052
L27.4751 22.1842
" />
<path d="M27.4751 22.1842
L27.4146 22.0028
" />
<path d="M27.4146 22.0028
L27.4146 21.8819
" />
<path d="M27.4146 21.8819
L27.4751 21.7004
" />
<path d="M27.4751 21.7004
L27.5356 21.6400
" />
<path d="M28.5637 20.3700
L28.6242 20.4304
" />
<path d="M28.6242 20.4304
L28.6846 20.6119
" />
<path d="M28.6846 20.6119
L28.6846 20.7328
" />
<path d="M28.6846 20.7328
L28.6242 20.9142
" />
<path d="M28.6242 20.9142
L28.5032 21.0352
" />
<path d="M28.5032 21.0352
L28.3822 21.0957
" />
<path d="M28.3822 21.0957
L28.1403 21.1561
" />
<path d="M28.1403 21.1561
L27.9589 21.1561
" />
<path d="M27.9589 21.1561
L27.7170 21.0957
" />
<path d="M27.7170 21.0957
L27.5961 21.0352
" />
<path d="M27.5961 21.0352
L27.4751 20.9142
" />
<path d="M27.4751 20.9142
L27.4146 20.7328
" />
<path d="M27.4146 20.7328
L27.4146 20.6119
" />
<path d="M27.4146 20.6119
L27.4751 20.4304
" />
<path d="M27.4751 20.4304
L27.5356 20.3700
" />
</g></g>
<g style="fill:#A90000; fill-opacity:0.0; 
stroke:#A90000; stroke-width:0.1524; stroke-opacity:1; 
stroke-linecap:round; stroke-linejoin:round;">
<g transform="rotate(-90.000000 27.8511 16.9799)">
<text x="27.8511" y="16.9799"
textLength="2.6222" font-size="1.6933" lengthAdjust="spacingAndGlyphs"
text-anchor="middle" opacity="0">96</text>
</g>
<g class="stroked-text"><desc>96</desc>
<path d="M27.6876 17.8265
L27.6876 17.5846
" />
<path d="M27.6876 17.5846
L27.6272 17.4636
" />
<path d="M27.6272 17.4636
L27.5667 17.4032
" />
<path d="M27.5667 17.4032
L27.3852 17.2822
" />
<path d="M27.3852 17.2822
L27.1433 17.2217
" />
<path d="M27.1433 17.2217
L26.6595 17.2217
" />
<path d="M26.6595 17.2217
L26.5386 17.2822
" />
<path d="M26.5386 17.2822
L26.4781 17.3427
" />
<path d="M26.4781 17.3427
L26.4176 17.4636
" />
<path d="M26.4176 17.4636
L26.4176 17.7055
" />
<path d="M26.4176 17.7055
L26.4781 17.8265
" />
<path d="M26.4781 17.8265
L26.5386 17.8870
" />
<path d="M26.5386 17.8870
L26.6595 17.9474
" />
<path d="M26.6595 17.9474
L26.9619 17.9474
" />
<path d="M26.9619 17.9474
L27.0829 17.8870
" />
<path d="M27.0829 17.8870
L27.1433 17.8265
" />
<path d="M27.1433 17.8265
L27.2038 17.7055
" />
<path d="M27.2038 17.7055
L27.2038 17.4636
" />
<path d="M27.2038 17.4636
L27.1433 17.3427
" />
<path d="M27.1433 17.3427
L27.0829 17.2822
" />
<path d="M27.0829 17.2822
L26.9619 17.2217
" />
<path d="M26.4176 16.1332
L26.4176 16.3751
" />
<path d="M26.4176 16.3751
L26.4781 16.4960
" />
<path d="M26.4781 16.4960
L26.5386 16.5565
" />
<path d="M26.5386 16.5565
L26.7200 16.6775
" />
<path d="M26.7200 16.6775
L26.9619 16.7379
" />
<path d="M26.9619 16.7379
L27.4457 16.7379
" />
<path d="M27.4457 16.7379
L27.5667 16.6775
" />
<path d="M27.5667 16.6775
L27.6272 16.6170
" />
<path d="M27.6272 16.6170
L27.6876 16.4960
" />
<path d="M27.6876 16.4960
L27.6876 16.2541
" />
<path d="M27.6876 16.2541
L27.6272 16.1332
" />
<path d="M27.6272 16.1332
L27.5667 16.0727
" />
<path d="M27.5667 16.0727
L27.4457 16.0122
" />
<path d="M27.4457 16.0122
L27.1433 16.0122
" />
<path d="M27.1433 16.0122
L27.0224 16.0727
" />
<path d="M27.0224 16.0727
L26.9619 16.1332
" />
<path d="M26.9619 16.1332
L26.9014 16.2541
" />
<path d="M26.9014 16.2541
L26.9014 16.4960
" />
<path d="M26.9014 16.4960
L26.9619 16.6170
" />
<path d="M26.9619 16.6170
L27.0224 16.6775
" />
<path d="M27.0224 16.6775
L27.1433 16.7379
" />
</g></g>
<g style="fill:#840084; fill-opacity:0.0; 
stroke:#840084; stroke-width:0.1524; stroke-opacity:1; 
stroke-linecap:round; stroke-linejoin:round;">
</g>
<g style="fill:#006464; fill-opacity:0.0; 
stroke:#006464; stroke-width:0.1524; stroke-opacity:1; 
stroke-linecap:round; stroke-linejoin:round;">
</g>
<g style="fill:#006464; fill-opacity:0.0; 
stroke:#006464; stroke-width:0.1588; stroke-opacity:1; 
stroke-linecap:round; stroke-linejoin:round;">
<text x="6.5151" y="11.2649"
textLength="3.9115" font-size="1.6933" lengthAdjust="spacingAndGlyphs"
text-anchor="middle" opacity="0">U?K</text>
<g class="stroked-text"><desc>U?K</desc>
<path d="M4.9729 9.9391
L4.9729 10.9672
" />
<path d="M4.9729 10.9672
L5.0334 11.0882
" />
<path d="M5.0334 11.0882
L5.0939 11.1487
" />
<path d="M5.0939 11.1487
L5.2148 11.2091
" />
<path d="M5.2148 11.2091
L5.4567 11.2091
" />
<path d="M5.4567 11.2091
L5.5777 11.1487
" />
<path d="M5.5777 11.1487
L5.6382 11.0882
" />
<path d="M5.6382 11.0882
L5.6986 10.9672
" />
<path d="M5.6986 10.9672
L5.6986 9.9391
" />
<path d="M6.4849 11.0882
L6.5453 11.1487
" />
<path d="M6.5453 11.1487
L6.4849 11.2091
" />
<path d="M6.4849 11.2091
L6.4244 11.1487
" />
<path d="M6.4244 11.1487
L6.4849 11.0882
" />
<path d="M6.4849 11.0882
L6.4849 11.2091
" />
<path d="M6.2430 9.9996
L6.3639 9.9391
" />
<path d="M6.3639 9.9391
L6.6663 9.9391
" />
<path d="M6.6663 9.9391
L6.7872 9.9996
" />
<path d="M6.7872 9.9996
L6.8477 10.1206
" />
<path d="M6.8477 10.1206
L6.8477 10.2415
" />
<path d="M6.8477 10.2415
L6.7872 10.3625
" />
<path d="M6.7872 10.3625
L6.7268 10.4229
" />
<path d="M6.7268 10.4229
L6.6058 10.4834
" />
<path d="M6.6058 10.4834
L6.5453 10.5439
" />
<path d="M6.5453 10.5439
L6.4849 10.6648
" />
<path d="M6.4849 10.6648
L6.4849 10.7253
" />
<path d="M7.3920 11.2091
L7.3920 9.9391
" />
<path d="M8.1177 11.2091
L7.5735 10.4834
" />
<path d="M8.1177 9.9391
L7.3920 10.6648
" />
</g><text x="49.6951" y="44.2849"
textLength="9.4147" font-size="1.6933" lengthAdjust="spacingAndGlyphs"
text-anchor="middle" opacity="0">T8Q144xx</text>
<g class="stroked-text"><desc>T8Q144xx</desc>
<path d="M45.2199 42.9591
L45.9456 42.9591
" />
<path d="M45.5828 44.2291
L45.5828 42.9591
" />
<path d="M46.5504 43.5034
L46.4294 43.4429
" />
<path d="M46.4294 43.4429
L46.3689 43.3825
" />
<path d="M46.3689 43.3825
L46.3085 43.2615
" />
<path d="M46.3085 43.2615
L46.3085 43.2010
" />
<path d="M46.3085 43.2010
L46.3689 43.0801
" />
<path d="M46.3689 43.0801
L46.4294 43.0196
" />
<path d="M46.4294 43.0196
L46.5504 42.9591
" />
<path d="M46.5504 42.9591
L46.7923 42.9591
" />
<path d="M46.7923 42.9591
L46.9132 43.0196
" />
<path d="M46.9132 43.0196
L46.9737 43.0801
" />
<path d="M46.9737 43.0801
L47.0342 43.2010
" />
<path d="M47.0342 43.2010
L47.0342 43.2615
" />
<path d="M47.0342 43.2615
L46.9737 43.3825
" />
<path d="M46.9737 43.3825
L46.9132 43.4429
" />
<path d="M46.9132 43.4429
L46.7923 43.5034
" />
<path d="M46.7923 43.5034
L46.5504 43.5034
" />
<path d="M46.5504 43.5034
L46.4294 43.5639
" />
<path d="M46.4294 43.5639
L46.3689 43.6244
" />
<path d="M46.3689 43.6244
L46.3085 43.7453
" />
<path d="M46.3085 43.7453
L46.3085 43.9872
" />
<path d="M46.3085 43.9872
L46.3689 44.1082
" />
<path d="M46.3689 44.1082
L46.4294 44.1687
" />
<path d="M46.4294 44.1687
L46.5504 44.2291
" />
<path d="M46.5504 44.2291
L46.7923 44.2291
" />
<path d="M46.7923 44.2291
L46.9132 44.1687
" />
<path d="M46.9132 44.1687
L46.9737 44.1082
" />
<path d="M46.9737 44.1082
L47.0342 43.9872
" />
<path d="M47.0342 43.9872
L47.0342 43.7453
" />
<path d="M47.0342 43.7453
L46.9737 43.6244
" />
<path d="M46.9737 43.6244
L46.9132 43.5639
" />
<path d="M46.9132 43.5639
L46.7923 43.5034
" />
<path d="M48.4251 44.3501
L48.3041 44.2896
" />
<path d="M48.3041 44.2896
L48.1832 44.1687
" />
<path d="M48.1832 44.1687
L48.0018 43.9872
" />
<path d="M48.0018 43.9872
L47.8808 43.9267
" />
<path d="M47.8808 43.9267
L47.7599 43.9267
" />
<path d="M47.8203 44.2291
L47.6994 44.1687
" />
<path d="M47.6994 44.1687
L47.5784 44.0477
" />
<path d="M47.5784 44.0477
L47.5180 43.8058
" />
<path d="M47.5180 43.8058
L47.5180 43.3825
" />
<path d="M47.5180 43.3825
L47.5784 43.1406
" />
<path d="M47.5784 43.1406
L47.6994 43.0196
" />
<path d="M47.6994 43.0196
L47.8203 42.9591
" />
<path d="M47.8203 42.9591
L48.0622 42.9591
" />
<path d="M48.0622 42.9591
L48.1832 43.0196
" />
<path d="M48.1832 43.0196
L48.3041 43.1406
" />
<path d="M48.3041 43.1406
L48.3646 43.3825
" />
<path d="M48.3646 43.3825
L48.3646 43.8058
" />
<path d="M48.3646 43.8058
L48.3041 44.0477
" />
<path d="M48.3041 44.0477
L48.1832 44.1687
" />
<path d="M48.1832 44.1687
L48.0622 44.2291
" />
<path d="M48.0622 44.2291
L47.8203 44.2291
" />
<path d="M49.5742 44.2291
L48.8485 44.2291
" />
<path d="M49.2113 44.2291
L49.2113 42.9591
" />
<path d="M49.2113 42.9591
L49.0904 43.1406
" />
<path d="M49.0904 43.1406
L48.9694 43.2615
" />
<path d="M48.9694 43.2615
L48.8485 43.3220
" />
<path d="M50.6627 43.3825
L50.6627 44.2291
" />
<path d="M50.3603 42.8987
L50.0580 43.8058
" />
<path d="M50.0580 43.8058
L50.8441 43.8058
" />
<path d="M51.8722 43.3825
L51.8722 44.2291
" />
<path d="M51.5698 42.8987
L51.2675 43.8058
" />
<path d="M51.2675 43.8058
L52.0536 43.8058
" />
<path d="M52.4165 44.2291
L53.0817 43.3825
" />
<path d="M52.4165 43.3825
L53.0817 44.2291
" />
<path d="M53.4446 44.2291
L54.1098 43.3825
" />
<path d="M53.4446 43.3825
L54.1098 44.2291
" />
</g></g> 
</svg>
