<?xml version="1.0" standalone="no"?>
 <!DOCTYPE svg PUBLIC "-//W3C//DTD SVG 1.1//EN" 
 "http://www.w3.org/Graphics/SVG/1.1/DTD/svg11.dtd"> 
<svg
  xmlns:svg="http://www.w3.org/2000/svg"
  xmlns="http://www.w3.org/2000/svg"
  xmlns:xlink="http://www.w3.org/1999/xlink"
  version="1.1"
  width="32.3342mm" height="125.8824mm" viewBox="0.0000 0.0000 32.3342 125.8824">
<title>SVG Image created as conn_01x39_shielded.svg date 2024/01/16 15:09:13 </title>
  <desc>Image generated by Eeschema-SVG </desc>
<g style="fill:#000000; fill-opacity:1.0000;stroke:#000000; stroke-opacity:1.0000;
stroke-linecap:round; stroke-linejoin:round;"
 transform="translate(0 0) scale(1 1)">
</g>
<g style="fill:#840000; fill-opacity:0.0; 
stroke:#840000; stroke-width:0.0000; stroke-opacity:1; 
stroke-linecap:round; stroke-linejoin:round;">
</g>
<g style="fill:#FFFFC2; fill-opacity:0.0; 
stroke:#FFFFC2; stroke-width:0.0000; stroke-opacity:1; 
stroke-linecap:round; stroke-linejoin:round;">
</g>
<g style="fill:#FFFFC2; fill-opacity:1.0000; 
stroke:#FFFFC2; stroke-width:0.0000; stroke-opacity:1; 
stroke-linecap:round; stroke-linejoin:round;">
<rect x="15.151100" y="13.665200" width="2.032000" height="98.552000" rx="0.000000" />
</g>
<g style="fill:#840084; fill-opacity:1.0000; 
stroke:#840084; stroke-width:0.0000; stroke-opacity:1; 
stroke-linecap:round; stroke-linejoin:round;">
</g>
<g style="fill:#840000; fill-opacity:1.0000; 
stroke:#840000; stroke-width:0.0000; stroke-opacity:1; 
stroke-linecap:round; stroke-linejoin:round;">
</g>
<g style="fill:#840000; fill-opacity:0.0; 
stroke:#840000; stroke-width:0.1524; stroke-opacity:1; 
stroke-linecap:round; stroke-linejoin:round;">
<rect x="14.897100" y="13.411200" width="2.540000" height="99.060000" rx="0.000000" />
<rect x="15.151100" y="111.074200" width="1.270000" height="0.254000" rx="0.000000" />
<rect x="15.151100" y="108.534200" width="1.270000" height="0.254000" rx="0.000000" />
<rect x="15.151100" y="105.994200" width="1.270000" height="0.254000" rx="0.000000" />
<rect x="15.151100" y="103.454200" width="1.270000" height="0.254000" rx="0.000000" />
<rect x="15.151100" y="100.914200" width="1.270000" height="0.254000" rx="0.000000" />
<rect x="15.151100" y="98.374200" width="1.270000" height="0.254000" rx="0.000000" />
<rect x="15.151100" y="95.834200" width="1.270000" height="0.254000" rx="0.000000" />
<rect x="15.151100" y="93.294200" width="1.270000" height="0.254000" rx="0.000000" />
<rect x="15.151100" y="90.754200" width="1.270000" height="0.254000" rx="0.000000" />
<rect x="15.151100" y="88.214200" width="1.270000" height="0.254000" rx="0.000000" />
<rect x="15.151100" y="85.674200" width="1.270000" height="0.254000" rx="0.000000" />
<rect x="15.151100" y="83.134200" width="1.270000" height="0.254000" rx="0.000000" />
<rect x="15.151100" y="80.594200" width="1.270000" height="0.254000" rx="0.000000" />
<rect x="15.151100" y="78.054200" width="1.270000" height="0.254000" rx="0.000000" />
<rect x="15.151100" y="75.514200" width="1.270000" height="0.254000" rx="0.000000" />
<rect x="15.151100" y="72.974200" width="1.270000" height="0.254000" rx="0.000000" />
<rect x="15.151100" y="70.434200" width="1.270000" height="0.254000" rx="0.000000" />
<rect x="15.151100" y="67.894200" width="1.270000" height="0.254000" rx="0.000000" />
<rect x="15.151100" y="65.354200" width="1.270000" height="0.254000" rx="0.000000" />
<rect x="15.151100" y="62.814200" width="1.270000" height="0.254000" rx="0.000000" />
<rect x="15.151100" y="60.274200" width="1.270000" height="0.254000" rx="0.000000" />
<rect x="15.151100" y="57.734200" width="1.270000" height="0.254000" rx="0.000000" />
<rect x="15.151100" y="55.194200" width="1.270000" height="0.254000" rx="0.000000" />
<rect x="15.151100" y="52.654200" width="1.270000" height="0.254000" rx="0.000000" />
<rect x="15.151100" y="50.114200" width="1.270000" height="0.254000" rx="0.000000" />
<rect x="15.151100" y="47.574200" width="1.270000" height="0.254000" rx="0.000000" />
<rect x="15.151100" y="45.034200" width="1.270000" height="0.254000" rx="0.000000" />
<rect x="15.151100" y="42.494200" width="1.270000" height="0.254000" rx="0.000000" />
<rect x="15.151100" y="39.954200" width="1.270000" height="0.254000" rx="0.000000" />
<rect x="15.151100" y="37.414200" width="1.270000" height="0.254000" rx="0.000000" />
<rect x="15.151100" y="34.874200" width="1.270000" height="0.254000" rx="0.000000" />
<rect x="15.151100" y="32.334200" width="1.270000" height="0.254000" rx="0.000000" />
<rect x="15.151100" y="29.794200" width="1.270000" height="0.254000" rx="0.000000" />
<rect x="15.151100" y="27.254200" width="1.270000" height="0.254000" rx="0.000000" />
<rect x="15.151100" y="24.714200" width="1.270000" height="0.254000" rx="0.000000" />
<rect x="15.151100" y="22.174200" width="1.270000" height="0.254000" rx="0.000000" />
<rect x="15.151100" y="19.634200" width="1.270000" height="0.254000" rx="0.000000" />
<rect x="15.151100" y="17.094200" width="1.270000" height="0.254000" rx="0.000000" />
<rect x="15.151100" y="14.554200" width="1.270000" height="0.254000" rx="0.000000" />
</g>
<g style="fill:#840000; fill-opacity:0.0; 
stroke:#840000; stroke-width:0.2540; stroke-opacity:1; 
stroke-linecap:round; stroke-linejoin:round;">
<rect x="15.151100" y="13.665200" width="2.032000" height="98.552000" rx="0.000000" />
</g>
<g style="fill:#840000; fill-opacity:0.0; 
stroke:#840000; stroke-width:0.1524; stroke-opacity:1; 
stroke-linecap:round; stroke-linejoin:round;">
<path d="M15.1511 14.6812
L11.0871 14.6812
" />
</g>
<g style="fill:#A90000; fill-opacity:0.0; 
stroke:#A90000; stroke-width:0.1524; stroke-opacity:1; 
stroke-linecap:round; stroke-linejoin:round;">
<text x="13.1191" y="14.4272"
textLength="1.4127" font-size="1.6933" lengthAdjust="spacingAndGlyphs"
text-anchor="middle" opacity="0">1</text>
<g class="stroked-text"><desc>1</desc>
<path d="M13.4820 14.2637
L12.7563 14.2637
" />
<path d="M13.1191 14.2637
L13.1191 12.9937
" />
<path d="M13.1191 12.9937
L12.9982 13.1752
" />
<path d="M12.9982 13.1752
L12.8772 13.2961
" />
<path d="M12.8772 13.2961
L12.7563 13.3566
" />
</g></g>
<g style="fill:#840000; fill-opacity:0.0; 
stroke:#840000; stroke-width:0.1524; stroke-opacity:1; 
stroke-linecap:round; stroke-linejoin:round;">
<path d="M15.1511 37.5412
L11.0871 37.5412
" />
</g>
<g style="fill:#A90000; fill-opacity:0.0; 
stroke:#A90000; stroke-width:0.1524; stroke-opacity:1; 
stroke-linecap:round; stroke-linejoin:round;">
<text x="13.1191" y="37.2872"
textLength="2.6222" font-size="1.6933" lengthAdjust="spacingAndGlyphs"
text-anchor="middle" opacity="0">10</text>
<g class="stroked-text"><desc>10</desc>
<path d="M12.8772 37.1237
L12.1515 37.1237
" />
<path d="M12.5143 37.1237
L12.5143 35.8537
" />
<path d="M12.5143 35.8537
L12.3934 36.0352
" />
<path d="M12.3934 36.0352
L12.2724 36.1561
" />
<path d="M12.2724 36.1561
L12.1515 36.2166
" />
<path d="M13.6633 35.8537
L13.7843 35.8537
" />
<path d="M13.7843 35.8537
L13.9052 35.9142
" />
<path d="M13.9052 35.9142
L13.9657 35.9747
" />
<path d="M13.9657 35.9747
L14.0262 36.0956
" />
<path d="M14.0262 36.0956
L14.0867 36.3375
" />
<path d="M14.0867 36.3375
L14.0867 36.6399
" />
<path d="M14.0867 36.6399
L14.0262 36.8818
" />
<path d="M14.0262 36.8818
L13.9657 37.0028
" />
<path d="M13.9657 37.0028
L13.9052 37.0633
" />
<path d="M13.9052 37.0633
L13.7843 37.1237
" />
<path d="M13.7843 37.1237
L13.6633 37.1237
" />
<path d="M13.6633 37.1237
L13.5424 37.0633
" />
<path d="M13.5424 37.0633
L13.4819 37.0028
" />
<path d="M13.4819 37.0028
L13.4214 36.8818
" />
<path d="M13.4214 36.8818
L13.3610 36.6399
" />
<path d="M13.3610 36.6399
L13.3610 36.3375
" />
<path d="M13.3610 36.3375
L13.4214 36.0956
" />
<path d="M13.4214 36.0956
L13.4819 35.9747
" />
<path d="M13.4819 35.9747
L13.5424 35.9142
" />
<path d="M13.5424 35.9142
L13.6633 35.8537
" />
</g></g>
<g style="fill:#840000; fill-opacity:0.0; 
stroke:#840000; stroke-width:0.1524; stroke-opacity:1; 
stroke-linecap:round; stroke-linejoin:round;">
<path d="M15.1511 40.0812
L11.0871 40.0812
" />
</g>
<g style="fill:#A90000; fill-opacity:0.0; 
stroke:#A90000; stroke-width:0.1524; stroke-opacity:1; 
stroke-linecap:round; stroke-linejoin:round;">
<text x="13.1191" y="39.8272"
textLength="2.6222" font-size="1.6933" lengthAdjust="spacingAndGlyphs"
text-anchor="middle" opacity="0">11</text>
<g class="stroked-text"><desc>11</desc>
<path d="M12.8772 39.6637
L12.1515 39.6637
" />
<path d="M12.5143 39.6637
L12.5143 38.3937
" />
<path d="M12.5143 38.3937
L12.3934 38.5752
" />
<path d="M12.3934 38.5752
L12.2724 38.6961
" />
<path d="M12.2724 38.6961
L12.1515 38.7566
" />
<path d="M14.0867 39.6637
L13.3610 39.6637
" />
<path d="M13.7238 39.6637
L13.7238 38.3937
" />
<path d="M13.7238 38.3937
L13.6029 38.5752
" />
<path d="M13.6029 38.5752
L13.4819 38.6961
" />
<path d="M13.4819 38.6961
L13.3610 38.7566
" />
</g></g>
<g style="fill:#840000; fill-opacity:0.0; 
stroke:#840000; stroke-width:0.1524; stroke-opacity:1; 
stroke-linecap:round; stroke-linejoin:round;">
<path d="M15.1511 42.6212
L11.0871 42.6212
" />
</g>
<g style="fill:#A90000; fill-opacity:0.0; 
stroke:#A90000; stroke-width:0.1524; stroke-opacity:1; 
stroke-linecap:round; stroke-linejoin:round;">
<text x="13.1191" y="42.3672"
textLength="2.6222" font-size="1.6933" lengthAdjust="spacingAndGlyphs"
text-anchor="middle" opacity="0">12</text>
<g class="stroked-text"><desc>12</desc>
<path d="M12.8772 42.2037
L12.1515 42.2037
" />
<path d="M12.5143 42.2037
L12.5143 40.9337
" />
<path d="M12.5143 40.9337
L12.3934 41.1152
" />
<path d="M12.3934 41.1152
L12.2724 41.2361
" />
<path d="M12.2724 41.2361
L12.1515 41.2966
" />
<path d="M13.3610 41.0547
L13.4214 40.9942
" />
<path d="M13.4214 40.9942
L13.5424 40.9337
" />
<path d="M13.5424 40.9337
L13.8448 40.9337
" />
<path d="M13.8448 40.9337
L13.9657 40.9942
" />
<path d="M13.9657 40.9942
L14.0262 41.0547
" />
<path d="M14.0262 41.0547
L14.0867 41.1756
" />
<path d="M14.0867 41.1756
L14.0867 41.2966
" />
<path d="M14.0867 41.2966
L14.0262 41.4780
" />
<path d="M14.0262 41.4780
L13.3005 42.2037
" />
<path d="M13.3005 42.2037
L14.0867 42.2037
" />
</g></g>
<g style="fill:#840000; fill-opacity:0.0; 
stroke:#840000; stroke-width:0.1524; stroke-opacity:1; 
stroke-linecap:round; stroke-linejoin:round;">
<path d="M15.1511 45.1612
L11.0871 45.1612
" />
</g>
<g style="fill:#A90000; fill-opacity:0.0; 
stroke:#A90000; stroke-width:0.1524; stroke-opacity:1; 
stroke-linecap:round; stroke-linejoin:round;">
<text x="13.1191" y="44.9072"
textLength="2.6222" font-size="1.6933" lengthAdjust="spacingAndGlyphs"
text-anchor="middle" opacity="0">13</text>
<g class="stroked-text"><desc>13</desc>
<path d="M12.8772 44.7437
L12.1515 44.7437
" />
<path d="M12.5143 44.7437
L12.5143 43.4737
" />
<path d="M12.5143 43.4737
L12.3934 43.6552
" />
<path d="M12.3934 43.6552
L12.2724 43.7761
" />
<path d="M12.2724 43.7761
L12.1515 43.8366
" />
<path d="M13.3005 43.4737
L14.0867 43.4737
" />
<path d="M14.0867 43.4737
L13.6633 43.9575
" />
<path d="M13.6633 43.9575
L13.8448 43.9575
" />
<path d="M13.8448 43.9575
L13.9657 44.0180
" />
<path d="M13.9657 44.0180
L14.0262 44.0785
" />
<path d="M14.0262 44.0785
L14.0867 44.1994
" />
<path d="M14.0867 44.1994
L14.0867 44.5018
" />
<path d="M14.0867 44.5018
L14.0262 44.6228
" />
<path d="M14.0262 44.6228
L13.9657 44.6833
" />
<path d="M13.9657 44.6833
L13.8448 44.7437
" />
<path d="M13.8448 44.7437
L13.4819 44.7437
" />
<path d="M13.4819 44.7437
L13.3610 44.6833
" />
<path d="M13.3610 44.6833
L13.3005 44.6228
" />
</g></g>
<g style="fill:#840000; fill-opacity:0.0; 
stroke:#840000; stroke-width:0.1524; stroke-opacity:1; 
stroke-linecap:round; stroke-linejoin:round;">
<path d="M15.1511 47.7012
L11.0871 47.7012
" />
</g>
<g style="fill:#A90000; fill-opacity:0.0; 
stroke:#A90000; stroke-width:0.1524; stroke-opacity:1; 
stroke-linecap:round; stroke-linejoin:round;">
<text x="13.1191" y="47.4472"
textLength="2.6222" font-size="1.6933" lengthAdjust="spacingAndGlyphs"
text-anchor="middle" opacity="0">14</text>
<g class="stroked-text"><desc>14</desc>
<path d="M12.8772 47.2837
L12.1515 47.2837
" />
<path d="M12.5143 47.2837
L12.5143 46.0137
" />
<path d="M12.5143 46.0137
L12.3934 46.1952
" />
<path d="M12.3934 46.1952
L12.2724 46.3161
" />
<path d="M12.2724 46.3161
L12.1515 46.3766
" />
<path d="M13.9657 46.4371
L13.9657 47.2837
" />
<path d="M13.6633 45.9533
L13.3610 46.8604
" />
<path d="M13.3610 46.8604
L14.1471 46.8604
" />
</g></g>
<g style="fill:#840000; fill-opacity:0.0; 
stroke:#840000; stroke-width:0.1524; stroke-opacity:1; 
stroke-linecap:round; stroke-linejoin:round;">
<path d="M15.1511 50.2412
L11.0871 50.2412
" />
</g>
<g style="fill:#A90000; fill-opacity:0.0; 
stroke:#A90000; stroke-width:0.1524; stroke-opacity:1; 
stroke-linecap:round; stroke-linejoin:round;">
<text x="13.1191" y="49.9872"
textLength="2.6222" font-size="1.6933" lengthAdjust="spacingAndGlyphs"
text-anchor="middle" opacity="0">15</text>
<g class="stroked-text"><desc>15</desc>
<path d="M12.8772 49.8237
L12.1515 49.8237
" />
<path d="M12.5143 49.8237
L12.5143 48.5537
" />
<path d="M12.5143 48.5537
L12.3934 48.7352
" />
<path d="M12.3934 48.7352
L12.2724 48.8561
" />
<path d="M12.2724 48.8561
L12.1515 48.9166
" />
<path d="M14.0262 48.5537
L13.4214 48.5537
" />
<path d="M13.4214 48.5537
L13.3610 49.1585
" />
<path d="M13.3610 49.1585
L13.4214 49.0980
" />
<path d="M13.4214 49.0980
L13.5424 49.0375
" />
<path d="M13.5424 49.0375
L13.8448 49.0375
" />
<path d="M13.8448 49.0375
L13.9657 49.0980
" />
<path d="M13.9657 49.0980
L14.0262 49.1585
" />
<path d="M14.0262 49.1585
L14.0867 49.2794
" />
<path d="M14.0867 49.2794
L14.0867 49.5818
" />
<path d="M14.0867 49.5818
L14.0262 49.7028
" />
<path d="M14.0262 49.7028
L13.9657 49.7633
" />
<path d="M13.9657 49.7633
L13.8448 49.8237
" />
<path d="M13.8448 49.8237
L13.5424 49.8237
" />
<path d="M13.5424 49.8237
L13.4214 49.7633
" />
<path d="M13.4214 49.7633
L13.3610 49.7028
" />
</g></g>
<g style="fill:#840000; fill-opacity:0.0; 
stroke:#840000; stroke-width:0.1524; stroke-opacity:1; 
stroke-linecap:round; stroke-linejoin:round;">
<path d="M15.1511 52.7812
L11.0871 52.7812
" />
</g>
<g style="fill:#A90000; fill-opacity:0.0; 
stroke:#A90000; stroke-width:0.1524; stroke-opacity:1; 
stroke-linecap:round; stroke-linejoin:round;">
<text x="13.1191" y="52.5272"
textLength="2.6222" font-size="1.6933" lengthAdjust="spacingAndGlyphs"
text-anchor="middle" opacity="0">16</text>
<g class="stroked-text"><desc>16</desc>
<path d="M12.8772 52.3637
L12.1515 52.3637
" />
<path d="M12.5143 52.3637
L12.5143 51.0937
" />
<path d="M12.5143 51.0937
L12.3934 51.2752
" />
<path d="M12.3934 51.2752
L12.2724 51.3961
" />
<path d="M12.2724 51.3961
L12.1515 51.4566
" />
<path d="M13.9657 51.0937
L13.7238 51.0937
" />
<path d="M13.7238 51.0937
L13.6029 51.1542
" />
<path d="M13.6029 51.1542
L13.5424 51.2147
" />
<path d="M13.5424 51.2147
L13.4214 51.3961
" />
<path d="M13.4214 51.3961
L13.3610 51.6380
" />
<path d="M13.3610 51.6380
L13.3610 52.1218
" />
<path d="M13.3610 52.1218
L13.4214 52.2428
" />
<path d="M13.4214 52.2428
L13.4819 52.3033
" />
<path d="M13.4819 52.3033
L13.6029 52.3637
" />
<path d="M13.6029 52.3637
L13.8448 52.3637
" />
<path d="M13.8448 52.3637
L13.9657 52.3033
" />
<path d="M13.9657 52.3033
L14.0262 52.2428
" />
<path d="M14.0262 52.2428
L14.0867 52.1218
" />
<path d="M14.0867 52.1218
L14.0867 51.8194
" />
<path d="M14.0867 51.8194
L14.0262 51.6985
" />
<path d="M14.0262 51.6985
L13.9657 51.6380
" />
<path d="M13.9657 51.6380
L13.8448 51.5775
" />
<path d="M13.8448 51.5775
L13.6029 51.5775
" />
<path d="M13.6029 51.5775
L13.4819 51.6380
" />
<path d="M13.4819 51.6380
L13.4214 51.6985
" />
<path d="M13.4214 51.6985
L13.3610 51.8194
" />
</g></g>
<g style="fill:#840000; fill-opacity:0.0; 
stroke:#840000; stroke-width:0.1524; stroke-opacity:1; 
stroke-linecap:round; stroke-linejoin:round;">
<path d="M15.1511 55.3212
L11.0871 55.3212
" />
</g>
<g style="fill:#A90000; fill-opacity:0.0; 
stroke:#A90000; stroke-width:0.1524; stroke-opacity:1; 
stroke-linecap:round; stroke-linejoin:round;">
<text x="13.1191" y="55.0672"
textLength="2.6222" font-size="1.6933" lengthAdjust="spacingAndGlyphs"
text-anchor="middle" opacity="0">17</text>
<g class="stroked-text"><desc>17</desc>
<path d="M12.8772 54.9037
L12.1515 54.9037
" />
<path d="M12.5143 54.9037
L12.5143 53.6337
" />
<path d="M12.5143 53.6337
L12.3934 53.8152
" />
<path d="M12.3934 53.8152
L12.2724 53.9361
" />
<path d="M12.2724 53.9361
L12.1515 53.9966
" />
<path d="M13.3005 53.6337
L14.1471 53.6337
" />
<path d="M14.1471 53.6337
L13.6029 54.9037
" />
</g></g>
<g style="fill:#840000; fill-opacity:0.0; 
stroke:#840000; stroke-width:0.1524; stroke-opacity:1; 
stroke-linecap:round; stroke-linejoin:round;">
<path d="M15.1511 57.8612
L11.0871 57.8612
" />
</g>
<g style="fill:#A90000; fill-opacity:0.0; 
stroke:#A90000; stroke-width:0.1524; stroke-opacity:1; 
stroke-linecap:round; stroke-linejoin:round;">
<text x="13.1191" y="57.6072"
textLength="2.6222" font-size="1.6933" lengthAdjust="spacingAndGlyphs"
text-anchor="middle" opacity="0">18</text>
<g class="stroked-text"><desc>18</desc>
<path d="M12.8772 57.4437
L12.1515 57.4437
" />
<path d="M12.5143 57.4437
L12.5143 56.1737
" />
<path d="M12.5143 56.1737
L12.3934 56.3552
" />
<path d="M12.3934 56.3552
L12.2724 56.4761
" />
<path d="M12.2724 56.4761
L12.1515 56.5366
" />
<path d="M13.6029 56.7180
L13.4819 56.6575
" />
<path d="M13.4819 56.6575
L13.4214 56.5971
" />
<path d="M13.4214 56.5971
L13.3610 56.4761
" />
<path d="M13.3610 56.4761
L13.3610 56.4156
" />
<path d="M13.3610 56.4156
L13.4214 56.2947
" />
<path d="M13.4214 56.2947
L13.4819 56.2342
" />
<path d="M13.4819 56.2342
L13.6029 56.1737
" />
<path d="M13.6029 56.1737
L13.8448 56.1737
" />
<path d="M13.8448 56.1737
L13.9657 56.2342
" />
<path d="M13.9657 56.2342
L14.0262 56.2947
" />
<path d="M14.0262 56.2947
L14.0867 56.4156
" />
<path d="M14.0867 56.4156
L14.0867 56.4761
" />
<path d="M14.0867 56.4761
L14.0262 56.5971
" />
<path d="M14.0262 56.5971
L13.9657 56.6575
" />
<path d="M13.9657 56.6575
L13.8448 56.7180
" />
<path d="M13.8448 56.7180
L13.6029 56.7180
" />
<path d="M13.6029 56.7180
L13.4819 56.7785
" />
<path d="M13.4819 56.7785
L13.4214 56.8390
" />
<path d="M13.4214 56.8390
L13.3610 56.9599
" />
<path d="M13.3610 56.9599
L13.3610 57.2018
" />
<path d="M13.3610 57.2018
L13.4214 57.3228
" />
<path d="M13.4214 57.3228
L13.4819 57.3833
" />
<path d="M13.4819 57.3833
L13.6029 57.4437
" />
<path d="M13.6029 57.4437
L13.8448 57.4437
" />
<path d="M13.8448 57.4437
L13.9657 57.3833
" />
<path d="M13.9657 57.3833
L14.0262 57.3228
" />
<path d="M14.0262 57.3228
L14.0867 57.2018
" />
<path d="M14.0867 57.2018
L14.0867 56.9599
" />
<path d="M14.0867 56.9599
L14.0262 56.8390
" />
<path d="M14.0262 56.8390
L13.9657 56.7785
" />
<path d="M13.9657 56.7785
L13.8448 56.7180
" />
</g></g>
<g style="fill:#840000; fill-opacity:0.0; 
stroke:#840000; stroke-width:0.1524; stroke-opacity:1; 
stroke-linecap:round; stroke-linejoin:round;">
<path d="M15.1511 60.4012
L11.0871 60.4012
" />
</g>
<g style="fill:#A90000; fill-opacity:0.0; 
stroke:#A90000; stroke-width:0.1524; stroke-opacity:1; 
stroke-linecap:round; stroke-linejoin:round;">
<text x="13.1191" y="60.1472"
textLength="2.6222" font-size="1.6933" lengthAdjust="spacingAndGlyphs"
text-anchor="middle" opacity="0">19</text>
<g class="stroked-text"><desc>19</desc>
<path d="M12.8772 59.9837
L12.1515 59.9837
" />
<path d="M12.5143 59.9837
L12.5143 58.7137
" />
<path d="M12.5143 58.7137
L12.3934 58.8952
" />
<path d="M12.3934 58.8952
L12.2724 59.0161
" />
<path d="M12.2724 59.0161
L12.1515 59.0766
" />
<path d="M13.4819 59.9837
L13.7238 59.9837
" />
<path d="M13.7238 59.9837
L13.8448 59.9233
" />
<path d="M13.8448 59.9233
L13.9052 59.8628
" />
<path d="M13.9052 59.8628
L14.0262 59.6813
" />
<path d="M14.0262 59.6813
L14.0867 59.4394
" />
<path d="M14.0867 59.4394
L14.0867 58.9556
" />
<path d="M14.0867 58.9556
L14.0262 58.8347
" />
<path d="M14.0262 58.8347
L13.9657 58.7742
" />
<path d="M13.9657 58.7742
L13.8448 58.7137
" />
<path d="M13.8448 58.7137
L13.6029 58.7137
" />
<path d="M13.6029 58.7137
L13.4819 58.7742
" />
<path d="M13.4819 58.7742
L13.4214 58.8347
" />
<path d="M13.4214 58.8347
L13.3610 58.9556
" />
<path d="M13.3610 58.9556
L13.3610 59.2580
" />
<path d="M13.3610 59.2580
L13.4214 59.3790
" />
<path d="M13.4214 59.3790
L13.4819 59.4394
" />
<path d="M13.4819 59.4394
L13.6029 59.4999
" />
<path d="M13.6029 59.4999
L13.8448 59.4999
" />
<path d="M13.8448 59.4999
L13.9657 59.4394
" />
<path d="M13.9657 59.4394
L14.0262 59.3790
" />
<path d="M14.0262 59.3790
L14.0867 59.2580
" />
</g></g>
<g style="fill:#840000; fill-opacity:0.0; 
stroke:#840000; stroke-width:0.1524; stroke-opacity:1; 
stroke-linecap:round; stroke-linejoin:round;">
<path d="M15.1511 17.2212
L11.0871 17.2212
" />
</g>
<g style="fill:#A90000; fill-opacity:0.0; 
stroke:#A90000; stroke-width:0.1524; stroke-opacity:1; 
stroke-linecap:round; stroke-linejoin:round;">
<text x="13.1191" y="16.9672"
textLength="1.4127" font-size="1.6933" lengthAdjust="spacingAndGlyphs"
text-anchor="middle" opacity="0">2</text>
<g class="stroked-text"><desc>2</desc>
<path d="M12.7563 15.6547
L12.8167 15.5942
" />
<path d="M12.8167 15.5942
L12.9377 15.5337
" />
<path d="M12.9377 15.5337
L13.2401 15.5337
" />
<path d="M13.2401 15.5337
L13.3610 15.5942
" />
<path d="M13.3610 15.5942
L13.4215 15.6547
" />
<path d="M13.4215 15.6547
L13.4820 15.7756
" />
<path d="M13.4820 15.7756
L13.4820 15.8966
" />
<path d="M13.4820 15.8966
L13.4215 16.0780
" />
<path d="M13.4215 16.0780
L12.6958 16.8037
" />
<path d="M12.6958 16.8037
L13.4820 16.8037
" />
</g></g>
<g style="fill:#840000; fill-opacity:0.0; 
stroke:#840000; stroke-width:0.1524; stroke-opacity:1; 
stroke-linecap:round; stroke-linejoin:round;">
<path d="M15.1511 62.9412
L11.0871 62.9412
" />
</g>
<g style="fill:#A90000; fill-opacity:0.0; 
stroke:#A90000; stroke-width:0.1524; stroke-opacity:1; 
stroke-linecap:round; stroke-linejoin:round;">
<text x="13.1191" y="62.6872"
textLength="2.6222" font-size="1.6933" lengthAdjust="spacingAndGlyphs"
text-anchor="middle" opacity="0">20</text>
<g class="stroked-text"><desc>20</desc>
<path d="M12.1515 61.3747
L12.2119 61.3142
" />
<path d="M12.2119 61.3142
L12.3329 61.2537
" />
<path d="M12.3329 61.2537
L12.6353 61.2537
" />
<path d="M12.6353 61.2537
L12.7562 61.3142
" />
<path d="M12.7562 61.3142
L12.8167 61.3747
" />
<path d="M12.8167 61.3747
L12.8772 61.4956
" />
<path d="M12.8772 61.4956
L12.8772 61.6166
" />
<path d="M12.8772 61.6166
L12.8167 61.7980
" />
<path d="M12.8167 61.7980
L12.0910 62.5237
" />
<path d="M12.0910 62.5237
L12.8772 62.5237
" />
<path d="M13.6633 61.2537
L13.7843 61.2537
" />
<path d="M13.7843 61.2537
L13.9052 61.3142
" />
<path d="M13.9052 61.3142
L13.9657 61.3747
" />
<path d="M13.9657 61.3747
L14.0262 61.4956
" />
<path d="M14.0262 61.4956
L14.0867 61.7375
" />
<path d="M14.0867 61.7375
L14.0867 62.0399
" />
<path d="M14.0867 62.0399
L14.0262 62.2818
" />
<path d="M14.0262 62.2818
L13.9657 62.4028
" />
<path d="M13.9657 62.4028
L13.9052 62.4633
" />
<path d="M13.9052 62.4633
L13.7843 62.5237
" />
<path d="M13.7843 62.5237
L13.6633 62.5237
" />
<path d="M13.6633 62.5237
L13.5424 62.4633
" />
<path d="M13.5424 62.4633
L13.4819 62.4028
" />
<path d="M13.4819 62.4028
L13.4214 62.2818
" />
<path d="M13.4214 62.2818
L13.3610 62.0399
" />
<path d="M13.3610 62.0399
L13.3610 61.7375
" />
<path d="M13.3610 61.7375
L13.4214 61.4956
" />
<path d="M13.4214 61.4956
L13.4819 61.3747
" />
<path d="M13.4819 61.3747
L13.5424 61.3142
" />
<path d="M13.5424 61.3142
L13.6633 61.2537
" />
</g></g>
<g style="fill:#840000; fill-opacity:0.0; 
stroke:#840000; stroke-width:0.1524; stroke-opacity:1; 
stroke-linecap:round; stroke-linejoin:round;">
<path d="M15.1511 65.4812
L11.0871 65.4812
" />
</g>
<g style="fill:#A90000; fill-opacity:0.0; 
stroke:#A90000; stroke-width:0.1524; stroke-opacity:1; 
stroke-linecap:round; stroke-linejoin:round;">
<text x="13.1191" y="65.2272"
textLength="2.6222" font-size="1.6933" lengthAdjust="spacingAndGlyphs"
text-anchor="middle" opacity="0">21</text>
<g class="stroked-text"><desc>21</desc>
<path d="M12.1515 63.9147
L12.2119 63.8542
" />
<path d="M12.2119 63.8542
L12.3329 63.7937
" />
<path d="M12.3329 63.7937
L12.6353 63.7937
" />
<path d="M12.6353 63.7937
L12.7562 63.8542
" />
<path d="M12.7562 63.8542
L12.8167 63.9147
" />
<path d="M12.8167 63.9147
L12.8772 64.0356
" />
<path d="M12.8772 64.0356
L12.8772 64.1566
" />
<path d="M12.8772 64.1566
L12.8167 64.3380
" />
<path d="M12.8167 64.3380
L12.0910 65.0637
" />
<path d="M12.0910 65.0637
L12.8772 65.0637
" />
<path d="M14.0867 65.0637
L13.3610 65.0637
" />
<path d="M13.7238 65.0637
L13.7238 63.7937
" />
<path d="M13.7238 63.7937
L13.6029 63.9752
" />
<path d="M13.6029 63.9752
L13.4819 64.0961
" />
<path d="M13.4819 64.0961
L13.3610 64.1566
" />
</g></g>
<g style="fill:#840000; fill-opacity:0.0; 
stroke:#840000; stroke-width:0.1524; stroke-opacity:1; 
stroke-linecap:round; stroke-linejoin:round;">
<path d="M15.1511 68.0212
L11.0871 68.0212
" />
</g>
<g style="fill:#A90000; fill-opacity:0.0; 
stroke:#A90000; stroke-width:0.1524; stroke-opacity:1; 
stroke-linecap:round; stroke-linejoin:round;">
<text x="13.1191" y="67.7672"
textLength="2.6222" font-size="1.6933" lengthAdjust="spacingAndGlyphs"
text-anchor="middle" opacity="0">22</text>
<g class="stroked-text"><desc>22</desc>
<path d="M12.1515 66.4547
L12.2119 66.3942
" />
<path d="M12.2119 66.3942
L12.3329 66.3337
" />
<path d="M12.3329 66.3337
L12.6353 66.3337
" />
<path d="M12.6353 66.3337
L12.7562 66.3942
" />
<path d="M12.7562 66.3942
L12.8167 66.4547
" />
<path d="M12.8167 66.4547
L12.8772 66.5756
" />
<path d="M12.8772 66.5756
L12.8772 66.6966
" />
<path d="M12.8772 66.6966
L12.8167 66.8780
" />
<path d="M12.8167 66.8780
L12.0910 67.6037
" />
<path d="M12.0910 67.6037
L12.8772 67.6037
" />
<path d="M13.3610 66.4547
L13.4214 66.3942
" />
<path d="M13.4214 66.3942
L13.5424 66.3337
" />
<path d="M13.5424 66.3337
L13.8448 66.3337
" />
<path d="M13.8448 66.3337
L13.9657 66.3942
" />
<path d="M13.9657 66.3942
L14.0262 66.4547
" />
<path d="M14.0262 66.4547
L14.0867 66.5756
" />
<path d="M14.0867 66.5756
L14.0867 66.6966
" />
<path d="M14.0867 66.6966
L14.0262 66.8780
" />
<path d="M14.0262 66.8780
L13.3005 67.6037
" />
<path d="M13.3005 67.6037
L14.0867 67.6037
" />
</g></g>
<g style="fill:#840000; fill-opacity:0.0; 
stroke:#840000; stroke-width:0.1524; stroke-opacity:1; 
stroke-linecap:round; stroke-linejoin:round;">
<path d="M15.1511 70.5612
L11.0871 70.5612
" />
</g>
<g style="fill:#A90000; fill-opacity:0.0; 
stroke:#A90000; stroke-width:0.1524; stroke-opacity:1; 
stroke-linecap:round; stroke-linejoin:round;">
<text x="13.1191" y="70.3072"
textLength="2.6222" font-size="1.6933" lengthAdjust="spacingAndGlyphs"
text-anchor="middle" opacity="0">23</text>
<g class="stroked-text"><desc>23</desc>
<path d="M12.1515 68.9947
L12.2119 68.9342
" />
<path d="M12.2119 68.9342
L12.3329 68.8737
" />
<path d="M12.3329 68.8737
L12.6353 68.8737
" />
<path d="M12.6353 68.8737
L12.7562 68.9342
" />
<path d="M12.7562 68.9342
L12.8167 68.9947
" />
<path d="M12.8167 68.9947
L12.8772 69.1156
" />
<path d="M12.8772 69.1156
L12.8772 69.2366
" />
<path d="M12.8772 69.2366
L12.8167 69.4180
" />
<path d="M12.8167 69.4180
L12.0910 70.1437
" />
<path d="M12.0910 70.1437
L12.8772 70.1437
" />
<path d="M13.3005 68.8737
L14.0867 68.8737
" />
<path d="M14.0867 68.8737
L13.6633 69.3575
" />
<path d="M13.6633 69.3575
L13.8448 69.3575
" />
<path d="M13.8448 69.3575
L13.9657 69.4180
" />
<path d="M13.9657 69.4180
L14.0262 69.4785
" />
<path d="M14.0262 69.4785
L14.0867 69.5994
" />
<path d="M14.0867 69.5994
L14.0867 69.9018
" />
<path d="M14.0867 69.9018
L14.0262 70.0228
" />
<path d="M14.0262 70.0228
L13.9657 70.0833
" />
<path d="M13.9657 70.0833
L13.8448 70.1437
" />
<path d="M13.8448 70.1437
L13.4819 70.1437
" />
<path d="M13.4819 70.1437
L13.3610 70.0833
" />
<path d="M13.3610 70.0833
L13.3005 70.0228
" />
</g></g>
<g style="fill:#840000; fill-opacity:0.0; 
stroke:#840000; stroke-width:0.1524; stroke-opacity:1; 
stroke-linecap:round; stroke-linejoin:round;">
<path d="M15.1511 73.1012
L11.0871 73.1012
" />
</g>
<g style="fill:#A90000; fill-opacity:0.0; 
stroke:#A90000; stroke-width:0.1524; stroke-opacity:1; 
stroke-linecap:round; stroke-linejoin:round;">
<text x="13.1191" y="72.8472"
textLength="2.6222" font-size="1.6933" lengthAdjust="spacingAndGlyphs"
text-anchor="middle" opacity="0">24</text>
<g class="stroked-text"><desc>24</desc>
<path d="M12.1515 71.5347
L12.2119 71.4742
" />
<path d="M12.2119 71.4742
L12.3329 71.4137
" />
<path d="M12.3329 71.4137
L12.6353 71.4137
" />
<path d="M12.6353 71.4137
L12.7562 71.4742
" />
<path d="M12.7562 71.4742
L12.8167 71.5347
" />
<path d="M12.8167 71.5347
L12.8772 71.6556
" />
<path d="M12.8772 71.6556
L12.8772 71.7766
" />
<path d="M12.8772 71.7766
L12.8167 71.9580
" />
<path d="M12.8167 71.9580
L12.0910 72.6837
" />
<path d="M12.0910 72.6837
L12.8772 72.6837
" />
<path d="M13.9657 71.8371
L13.9657 72.6837
" />
<path d="M13.6633 71.3533
L13.3610 72.2604
" />
<path d="M13.3610 72.2604
L14.1471 72.2604
" />
</g></g>
<g style="fill:#840000; fill-opacity:0.0; 
stroke:#840000; stroke-width:0.1524; stroke-opacity:1; 
stroke-linecap:round; stroke-linejoin:round;">
<path d="M15.1511 75.6412
L11.0871 75.6412
" />
</g>
<g style="fill:#A90000; fill-opacity:0.0; 
stroke:#A90000; stroke-width:0.1524; stroke-opacity:1; 
stroke-linecap:round; stroke-linejoin:round;">
<text x="13.1191" y="75.3872"
textLength="2.6222" font-size="1.6933" lengthAdjust="spacingAndGlyphs"
text-anchor="middle" opacity="0">25</text>
<g class="stroked-text"><desc>25</desc>
<path d="M12.1515 74.0747
L12.2119 74.0142
" />
<path d="M12.2119 74.0142
L12.3329 73.9537
" />
<path d="M12.3329 73.9537
L12.6353 73.9537
" />
<path d="M12.6353 73.9537
L12.7562 74.0142
" />
<path d="M12.7562 74.0142
L12.8167 74.0747
" />
<path d="M12.8167 74.0747
L12.8772 74.1956
" />
<path d="M12.8772 74.1956
L12.8772 74.3166
" />
<path d="M12.8772 74.3166
L12.8167 74.4980
" />
<path d="M12.8167 74.4980
L12.0910 75.2237
" />
<path d="M12.0910 75.2237
L12.8772 75.2237
" />
<path d="M14.0262 73.9537
L13.4214 73.9537
" />
<path d="M13.4214 73.9537
L13.3610 74.5585
" />
<path d="M13.3610 74.5585
L13.4214 74.4980
" />
<path d="M13.4214 74.4980
L13.5424 74.4375
" />
<path d="M13.5424 74.4375
L13.8448 74.4375
" />
<path d="M13.8448 74.4375
L13.9657 74.4980
" />
<path d="M13.9657 74.4980
L14.0262 74.5585
" />
<path d="M14.0262 74.5585
L14.0867 74.6794
" />
<path d="M14.0867 74.6794
L14.0867 74.9818
" />
<path d="M14.0867 74.9818
L14.0262 75.1028
" />
<path d="M14.0262 75.1028
L13.9657 75.1633
" />
<path d="M13.9657 75.1633
L13.8448 75.2237
" />
<path d="M13.8448 75.2237
L13.5424 75.2237
" />
<path d="M13.5424 75.2237
L13.4214 75.1633
" />
<path d="M13.4214 75.1633
L13.3610 75.1028
" />
</g></g>
<g style="fill:#840000; fill-opacity:0.0; 
stroke:#840000; stroke-width:0.1524; stroke-opacity:1; 
stroke-linecap:round; stroke-linejoin:round;">
<path d="M15.1511 78.1812
L11.0871 78.1812
" />
</g>
<g style="fill:#A90000; fill-opacity:0.0; 
stroke:#A90000; stroke-width:0.1524; stroke-opacity:1; 
stroke-linecap:round; stroke-linejoin:round;">
<text x="13.1191" y="77.9272"
textLength="2.6222" font-size="1.6933" lengthAdjust="spacingAndGlyphs"
text-anchor="middle" opacity="0">26</text>
<g class="stroked-text"><desc>26</desc>
<path d="M12.1515 76.6147
L12.2119 76.5542
" />
<path d="M12.2119 76.5542
L12.3329 76.4937
" />
<path d="M12.3329 76.4937
L12.6353 76.4937
" />
<path d="M12.6353 76.4937
L12.7562 76.5542
" />
<path d="M12.7562 76.5542
L12.8167 76.6147
" />
<path d="M12.8167 76.6147
L12.8772 76.7356
" />
<path d="M12.8772 76.7356
L12.8772 76.8566
" />
<path d="M12.8772 76.8566
L12.8167 77.0380
" />
<path d="M12.8167 77.0380
L12.0910 77.7637
" />
<path d="M12.0910 77.7637
L12.8772 77.7637
" />
<path d="M13.9657 76.4937
L13.7238 76.4937
" />
<path d="M13.7238 76.4937
L13.6029 76.5542
" />
<path d="M13.6029 76.5542
L13.5424 76.6147
" />
<path d="M13.5424 76.6147
L13.4214 76.7961
" />
<path d="M13.4214 76.7961
L13.3610 77.0380
" />
<path d="M13.3610 77.0380
L13.3610 77.5218
" />
<path d="M13.3610 77.5218
L13.4214 77.6428
" />
<path d="M13.4214 77.6428
L13.4819 77.7033
" />
<path d="M13.4819 77.7033
L13.6029 77.7637
" />
<path d="M13.6029 77.7637
L13.8448 77.7637
" />
<path d="M13.8448 77.7637
L13.9657 77.7033
" />
<path d="M13.9657 77.7033
L14.0262 77.6428
" />
<path d="M14.0262 77.6428
L14.0867 77.5218
" />
<path d="M14.0867 77.5218
L14.0867 77.2194
" />
<path d="M14.0867 77.2194
L14.0262 77.0985
" />
<path d="M14.0262 77.0985
L13.9657 77.0380
" />
<path d="M13.9657 77.0380
L13.8448 76.9775
" />
<path d="M13.8448 76.9775
L13.6029 76.9775
" />
<path d="M13.6029 76.9775
L13.4819 77.0380
" />
<path d="M13.4819 77.0380
L13.4214 77.0985
" />
<path d="M13.4214 77.0985
L13.3610 77.2194
" />
</g></g>
<g style="fill:#840000; fill-opacity:0.0; 
stroke:#840000; stroke-width:0.1524; stroke-opacity:1; 
stroke-linecap:round; stroke-linejoin:round;">
<path d="M15.1511 80.7212
L11.0871 80.7212
" />
</g>
<g style="fill:#A90000; fill-opacity:0.0; 
stroke:#A90000; stroke-width:0.1524; stroke-opacity:1; 
stroke-linecap:round; stroke-linejoin:round;">
<text x="13.1191" y="80.4672"
textLength="2.6222" font-size="1.6933" lengthAdjust="spacingAndGlyphs"
text-anchor="middle" opacity="0">27</text>
<g class="stroked-text"><desc>27</desc>
<path d="M12.1515 79.1547
L12.2119 79.0942
" />
<path d="M12.2119 79.0942
L12.3329 79.0337
" />
<path d="M12.3329 79.0337
L12.6353 79.0337
" />
<path d="M12.6353 79.0337
L12.7562 79.0942
" />
<path d="M12.7562 79.0942
L12.8167 79.1547
" />
<path d="M12.8167 79.1547
L12.8772 79.2756
" />
<path d="M12.8772 79.2756
L12.8772 79.3966
" />
<path d="M12.8772 79.3966
L12.8167 79.5780
" />
<path d="M12.8167 79.5780
L12.0910 80.3037
" />
<path d="M12.0910 80.3037
L12.8772 80.3037
" />
<path d="M13.3005 79.0337
L14.1471 79.0337
" />
<path d="M14.1471 79.0337
L13.6029 80.3037
" />
</g></g>
<g style="fill:#840000; fill-opacity:0.0; 
stroke:#840000; stroke-width:0.1524; stroke-opacity:1; 
stroke-linecap:round; stroke-linejoin:round;">
<path d="M15.1511 83.2612
L11.0871 83.2612
" />
</g>
<g style="fill:#A90000; fill-opacity:0.0; 
stroke:#A90000; stroke-width:0.1524; stroke-opacity:1; 
stroke-linecap:round; stroke-linejoin:round;">
<text x="13.1191" y="83.0072"
textLength="2.6222" font-size="1.6933" lengthAdjust="spacingAndGlyphs"
text-anchor="middle" opacity="0">28</text>
<g class="stroked-text"><desc>28</desc>
<path d="M12.1515 81.6947
L12.2119 81.6342
" />
<path d="M12.2119 81.6342
L12.3329 81.5737
" />
<path d="M12.3329 81.5737
L12.6353 81.5737
" />
<path d="M12.6353 81.5737
L12.7562 81.6342
" />
<path d="M12.7562 81.6342
L12.8167 81.6947
" />
<path d="M12.8167 81.6947
L12.8772 81.8156
" />
<path d="M12.8772 81.8156
L12.8772 81.9366
" />
<path d="M12.8772 81.9366
L12.8167 82.1180
" />
<path d="M12.8167 82.1180
L12.0910 82.8437
" />
<path d="M12.0910 82.8437
L12.8772 82.8437
" />
<path d="M13.6029 82.1180
L13.4819 82.0575
" />
<path d="M13.4819 82.0575
L13.4214 81.9971
" />
<path d="M13.4214 81.9971
L13.3610 81.8761
" />
<path d="M13.3610 81.8761
L13.3610 81.8156
" />
<path d="M13.3610 81.8156
L13.4214 81.6947
" />
<path d="M13.4214 81.6947
L13.4819 81.6342
" />
<path d="M13.4819 81.6342
L13.6029 81.5737
" />
<path d="M13.6029 81.5737
L13.8448 81.5737
" />
<path d="M13.8448 81.5737
L13.9657 81.6342
" />
<path d="M13.9657 81.6342
L14.0262 81.6947
" />
<path d="M14.0262 81.6947
L14.0867 81.8156
" />
<path d="M14.0867 81.8156
L14.0867 81.8761
" />
<path d="M14.0867 81.8761
L14.0262 81.9971
" />
<path d="M14.0262 81.9971
L13.9657 82.0575
" />
<path d="M13.9657 82.0575
L13.8448 82.1180
" />
<path d="M13.8448 82.1180
L13.6029 82.1180
" />
<path d="M13.6029 82.1180
L13.4819 82.1785
" />
<path d="M13.4819 82.1785
L13.4214 82.2390
" />
<path d="M13.4214 82.2390
L13.3610 82.3599
" />
<path d="M13.3610 82.3599
L13.3610 82.6018
" />
<path d="M13.3610 82.6018
L13.4214 82.7228
" />
<path d="M13.4214 82.7228
L13.4819 82.7833
" />
<path d="M13.4819 82.7833
L13.6029 82.8437
" />
<path d="M13.6029 82.8437
L13.8448 82.8437
" />
<path d="M13.8448 82.8437
L13.9657 82.7833
" />
<path d="M13.9657 82.7833
L14.0262 82.7228
" />
<path d="M14.0262 82.7228
L14.0867 82.6018
" />
<path d="M14.0867 82.6018
L14.0867 82.3599
" />
<path d="M14.0867 82.3599
L14.0262 82.2390
" />
<path d="M14.0262 82.2390
L13.9657 82.1785
" />
<path d="M13.9657 82.1785
L13.8448 82.1180
" />
</g></g>
<g style="fill:#840000; fill-opacity:0.0; 
stroke:#840000; stroke-width:0.1524; stroke-opacity:1; 
stroke-linecap:round; stroke-linejoin:round;">
<path d="M15.1511 85.8012
L11.0871 85.8012
" />
</g>
<g style="fill:#A90000; fill-opacity:0.0; 
stroke:#A90000; stroke-width:0.1524; stroke-opacity:1; 
stroke-linecap:round; stroke-linejoin:round;">
<text x="13.1191" y="85.5472"
textLength="2.6222" font-size="1.6933" lengthAdjust="spacingAndGlyphs"
text-anchor="middle" opacity="0">29</text>
<g class="stroked-text"><desc>29</desc>
<path d="M12.1515 84.2347
L12.2119 84.1742
" />
<path d="M12.2119 84.1742
L12.3329 84.1137
" />
<path d="M12.3329 84.1137
L12.6353 84.1137
" />
<path d="M12.6353 84.1137
L12.7562 84.1742
" />
<path d="M12.7562 84.1742
L12.8167 84.2347
" />
<path d="M12.8167 84.2347
L12.8772 84.3556
" />
<path d="M12.8772 84.3556
L12.8772 84.4766
" />
<path d="M12.8772 84.4766
L12.8167 84.6580
" />
<path d="M12.8167 84.6580
L12.0910 85.3837
" />
<path d="M12.0910 85.3837
L12.8772 85.3837
" />
<path d="M13.4819 85.3837
L13.7238 85.3837
" />
<path d="M13.7238 85.3837
L13.8448 85.3233
" />
<path d="M13.8448 85.3233
L13.9052 85.2628
" />
<path d="M13.9052 85.2628
L14.0262 85.0813
" />
<path d="M14.0262 85.0813
L14.0867 84.8394
" />
<path d="M14.0867 84.8394
L14.0867 84.3556
" />
<path d="M14.0867 84.3556
L14.0262 84.2347
" />
<path d="M14.0262 84.2347
L13.9657 84.1742
" />
<path d="M13.9657 84.1742
L13.8448 84.1137
" />
<path d="M13.8448 84.1137
L13.6029 84.1137
" />
<path d="M13.6029 84.1137
L13.4819 84.1742
" />
<path d="M13.4819 84.1742
L13.4214 84.2347
" />
<path d="M13.4214 84.2347
L13.3610 84.3556
" />
<path d="M13.3610 84.3556
L13.3610 84.6580
" />
<path d="M13.3610 84.6580
L13.4214 84.7790
" />
<path d="M13.4214 84.7790
L13.4819 84.8394
" />
<path d="M13.4819 84.8394
L13.6029 84.8999
" />
<path d="M13.6029 84.8999
L13.8448 84.8999
" />
<path d="M13.8448 84.8999
L13.9657 84.8394
" />
<path d="M13.9657 84.8394
L14.0262 84.7790
" />
<path d="M14.0262 84.7790
L14.0867 84.6580
" />
</g></g>
<g style="fill:#840000; fill-opacity:0.0; 
stroke:#840000; stroke-width:0.1524; stroke-opacity:1; 
stroke-linecap:round; stroke-linejoin:round;">
<path d="M15.1511 19.7612
L11.0871 19.7612
" />
</g>
<g style="fill:#A90000; fill-opacity:0.0; 
stroke:#A90000; stroke-width:0.1524; stroke-opacity:1; 
stroke-linecap:round; stroke-linejoin:round;">
<text x="13.1191" y="19.5072"
textLength="1.4127" font-size="1.6933" lengthAdjust="spacingAndGlyphs"
text-anchor="middle" opacity="0">3</text>
<g class="stroked-text"><desc>3</desc>
<path d="M12.6958 18.0737
L13.4820 18.0737
" />
<path d="M13.4820 18.0737
L13.0586 18.5575
" />
<path d="M13.0586 18.5575
L13.2401 18.5575
" />
<path d="M13.2401 18.5575
L13.3610 18.6180
" />
<path d="M13.3610 18.6180
L13.4215 18.6785
" />
<path d="M13.4215 18.6785
L13.4820 18.7994
" />
<path d="M13.4820 18.7994
L13.4820 19.1018
" />
<path d="M13.4820 19.1018
L13.4215 19.2228
" />
<path d="M13.4215 19.2228
L13.3610 19.2833
" />
<path d="M13.3610 19.2833
L13.2401 19.3437
" />
<path d="M13.2401 19.3437
L12.8772 19.3437
" />
<path d="M12.8772 19.3437
L12.7563 19.2833
" />
<path d="M12.7563 19.2833
L12.6958 19.2228
" />
</g></g>
<g style="fill:#840000; fill-opacity:0.0; 
stroke:#840000; stroke-width:0.1524; stroke-opacity:1; 
stroke-linecap:round; stroke-linejoin:round;">
<path d="M15.1511 88.3412
L11.0871 88.3412
" />
</g>
<g style="fill:#A90000; fill-opacity:0.0; 
stroke:#A90000; stroke-width:0.1524; stroke-opacity:1; 
stroke-linecap:round; stroke-linejoin:round;">
<text x="13.1191" y="88.0872"
textLength="2.6222" font-size="1.6933" lengthAdjust="spacingAndGlyphs"
text-anchor="middle" opacity="0">30</text>
<g class="stroked-text"><desc>30</desc>
<path d="M12.0910 86.6537
L12.8772 86.6537
" />
<path d="M12.8772 86.6537
L12.4538 87.1375
" />
<path d="M12.4538 87.1375
L12.6353 87.1375
" />
<path d="M12.6353 87.1375
L12.7562 87.1980
" />
<path d="M12.7562 87.1980
L12.8167 87.2585
" />
<path d="M12.8167 87.2585
L12.8772 87.3794
" />
<path d="M12.8772 87.3794
L12.8772 87.6818
" />
<path d="M12.8772 87.6818
L12.8167 87.8028
" />
<path d="M12.8167 87.8028
L12.7562 87.8633
" />
<path d="M12.7562 87.8633
L12.6353 87.9237
" />
<path d="M12.6353 87.9237
L12.2724 87.9237
" />
<path d="M12.2724 87.9237
L12.1515 87.8633
" />
<path d="M12.1515 87.8633
L12.0910 87.8028
" />
<path d="M13.6633 86.6537
L13.7843 86.6537
" />
<path d="M13.7843 86.6537
L13.9052 86.7142
" />
<path d="M13.9052 86.7142
L13.9657 86.7747
" />
<path d="M13.9657 86.7747
L14.0262 86.8956
" />
<path d="M14.0262 86.8956
L14.0867 87.1375
" />
<path d="M14.0867 87.1375
L14.0867 87.4399
" />
<path d="M14.0867 87.4399
L14.0262 87.6818
" />
<path d="M14.0262 87.6818
L13.9657 87.8028
" />
<path d="M13.9657 87.8028
L13.9052 87.8633
" />
<path d="M13.9052 87.8633
L13.7843 87.9237
" />
<path d="M13.7843 87.9237
L13.6633 87.9237
" />
<path d="M13.6633 87.9237
L13.5424 87.8633
" />
<path d="M13.5424 87.8633
L13.4819 87.8028
" />
<path d="M13.4819 87.8028
L13.4214 87.6818
" />
<path d="M13.4214 87.6818
L13.3610 87.4399
" />
<path d="M13.3610 87.4399
L13.3610 87.1375
" />
<path d="M13.3610 87.1375
L13.4214 86.8956
" />
<path d="M13.4214 86.8956
L13.4819 86.7747
" />
<path d="M13.4819 86.7747
L13.5424 86.7142
" />
<path d="M13.5424 86.7142
L13.6633 86.6537
" />
</g></g>
<g style="fill:#840000; fill-opacity:0.0; 
stroke:#840000; stroke-width:0.1524; stroke-opacity:1; 
stroke-linecap:round; stroke-linejoin:round;">
<path d="M15.1511 90.8812
L11.0871 90.8812
" />
</g>
<g style="fill:#A90000; fill-opacity:0.0; 
stroke:#A90000; stroke-width:0.1524; stroke-opacity:1; 
stroke-linecap:round; stroke-linejoin:round;">
<text x="13.1191" y="90.6272"
textLength="2.6222" font-size="1.6933" lengthAdjust="spacingAndGlyphs"
text-anchor="middle" opacity="0">31</text>
<g class="stroked-text"><desc>31</desc>
<path d="M12.0910 89.1937
L12.8772 89.1937
" />
<path d="M12.8772 89.1937
L12.4538 89.6775
" />
<path d="M12.4538 89.6775
L12.6353 89.6775
" />
<path d="M12.6353 89.6775
L12.7562 89.7380
" />
<path d="M12.7562 89.7380
L12.8167 89.7985
" />
<path d="M12.8167 89.7985
L12.8772 89.9194
" />
<path d="M12.8772 89.9194
L12.8772 90.2218
" />
<path d="M12.8772 90.2218
L12.8167 90.3428
" />
<path d="M12.8167 90.3428
L12.7562 90.4033
" />
<path d="M12.7562 90.4033
L12.6353 90.4637
" />
<path d="M12.6353 90.4637
L12.2724 90.4637
" />
<path d="M12.2724 90.4637
L12.1515 90.4033
" />
<path d="M12.1515 90.4033
L12.0910 90.3428
" />
<path d="M14.0867 90.4637
L13.3610 90.4637
" />
<path d="M13.7238 90.4637
L13.7238 89.1937
" />
<path d="M13.7238 89.1937
L13.6029 89.3752
" />
<path d="M13.6029 89.3752
L13.4819 89.4961
" />
<path d="M13.4819 89.4961
L13.3610 89.5566
" />
</g></g>
<g style="fill:#840000; fill-opacity:0.0; 
stroke:#840000; stroke-width:0.1524; stroke-opacity:1; 
stroke-linecap:round; stroke-linejoin:round;">
<path d="M15.1511 93.4212
L11.0871 93.4212
" />
</g>
<g style="fill:#A90000; fill-opacity:0.0; 
stroke:#A90000; stroke-width:0.1524; stroke-opacity:1; 
stroke-linecap:round; stroke-linejoin:round;">
<text x="13.1191" y="93.1672"
textLength="2.6222" font-size="1.6933" lengthAdjust="spacingAndGlyphs"
text-anchor="middle" opacity="0">32</text>
<g class="stroked-text"><desc>32</desc>
<path d="M12.0910 91.7337
L12.8772 91.7337
" />
<path d="M12.8772 91.7337
L12.4538 92.2175
" />
<path d="M12.4538 92.2175
L12.6353 92.2175
" />
<path d="M12.6353 92.2175
L12.7562 92.2780
" />
<path d="M12.7562 92.2780
L12.8167 92.3385
" />
<path d="M12.8167 92.3385
L12.8772 92.4594
" />
<path d="M12.8772 92.4594
L12.8772 92.7618
" />
<path d="M12.8772 92.7618
L12.8167 92.8828
" />
<path d="M12.8167 92.8828
L12.7562 92.9433
" />
<path d="M12.7562 92.9433
L12.6353 93.0037
" />
<path d="M12.6353 93.0037
L12.2724 93.0037
" />
<path d="M12.2724 93.0037
L12.1515 92.9433
" />
<path d="M12.1515 92.9433
L12.0910 92.8828
" />
<path d="M13.3610 91.8547
L13.4214 91.7942
" />
<path d="M13.4214 91.7942
L13.5424 91.7337
" />
<path d="M13.5424 91.7337
L13.8448 91.7337
" />
<path d="M13.8448 91.7337
L13.9657 91.7942
" />
<path d="M13.9657 91.7942
L14.0262 91.8547
" />
<path d="M14.0262 91.8547
L14.0867 91.9756
" />
<path d="M14.0867 91.9756
L14.0867 92.0966
" />
<path d="M14.0867 92.0966
L14.0262 92.2780
" />
<path d="M14.0262 92.2780
L13.3005 93.0037
" />
<path d="M13.3005 93.0037
L14.0867 93.0037
" />
</g></g>
<g style="fill:#840000; fill-opacity:0.0; 
stroke:#840000; stroke-width:0.1524; stroke-opacity:1; 
stroke-linecap:round; stroke-linejoin:round;">
<path d="M15.1511 95.9612
L11.0871 95.9612
" />
</g>
<g style="fill:#A90000; fill-opacity:0.0; 
stroke:#A90000; stroke-width:0.1524; stroke-opacity:1; 
stroke-linecap:round; stroke-linejoin:round;">
<text x="13.1191" y="95.7072"
textLength="2.6222" font-size="1.6933" lengthAdjust="spacingAndGlyphs"
text-anchor="middle" opacity="0">33</text>
<g class="stroked-text"><desc>33</desc>
<path d="M12.0910 94.2737
L12.8772 94.2737
" />
<path d="M12.8772 94.2737
L12.4538 94.7575
" />
<path d="M12.4538 94.7575
L12.6353 94.7575
" />
<path d="M12.6353 94.7575
L12.7562 94.8180
" />
<path d="M12.7562 94.8180
L12.8167 94.8785
" />
<path d="M12.8167 94.8785
L12.8772 94.9994
" />
<path d="M12.8772 94.9994
L12.8772 95.3018
" />
<path d="M12.8772 95.3018
L12.8167 95.4228
" />
<path d="M12.8167 95.4228
L12.7562 95.4833
" />
<path d="M12.7562 95.4833
L12.6353 95.5437
" />
<path d="M12.6353 95.5437
L12.2724 95.5437
" />
<path d="M12.2724 95.5437
L12.1515 95.4833
" />
<path d="M12.1515 95.4833
L12.0910 95.4228
" />
<path d="M13.3005 94.2737
L14.0867 94.2737
" />
<path d="M14.0867 94.2737
L13.6633 94.7575
" />
<path d="M13.6633 94.7575
L13.8448 94.7575
" />
<path d="M13.8448 94.7575
L13.9657 94.8180
" />
<path d="M13.9657 94.8180
L14.0262 94.8785
" />
<path d="M14.0262 94.8785
L14.0867 94.9994
" />
<path d="M14.0867 94.9994
L14.0867 95.3018
" />
<path d="M14.0867 95.3018
L14.0262 95.4228
" />
<path d="M14.0262 95.4228
L13.9657 95.4833
" />
<path d="M13.9657 95.4833
L13.8448 95.5437
" />
<path d="M13.8448 95.5437
L13.4819 95.5437
" />
<path d="M13.4819 95.5437
L13.3610 95.4833
" />
<path d="M13.3610 95.4833
L13.3005 95.4228
" />
</g></g>
<g style="fill:#840000; fill-opacity:0.0; 
stroke:#840000; stroke-width:0.1524; stroke-opacity:1; 
stroke-linecap:round; stroke-linejoin:round;">
<path d="M15.1511 98.5012
L11.0871 98.5012
" />
</g>
<g style="fill:#A90000; fill-opacity:0.0; 
stroke:#A90000; stroke-width:0.1524; stroke-opacity:1; 
stroke-linecap:round; stroke-linejoin:round;">
<text x="13.1191" y="98.2472"
textLength="2.6222" font-size="1.6933" lengthAdjust="spacingAndGlyphs"
text-anchor="middle" opacity="0">34</text>
<g class="stroked-text"><desc>34</desc>
<path d="M12.0910 96.8137
L12.8772 96.8137
" />
<path d="M12.8772 96.8137
L12.4538 97.2975
" />
<path d="M12.4538 97.2975
L12.6353 97.2975
" />
<path d="M12.6353 97.2975
L12.7562 97.3580
" />
<path d="M12.7562 97.3580
L12.8167 97.4185
" />
<path d="M12.8167 97.4185
L12.8772 97.5394
" />
<path d="M12.8772 97.5394
L12.8772 97.8418
" />
<path d="M12.8772 97.8418
L12.8167 97.9628
" />
<path d="M12.8167 97.9628
L12.7562 98.0233
" />
<path d="M12.7562 98.0233
L12.6353 98.0837
" />
<path d="M12.6353 98.0837
L12.2724 98.0837
" />
<path d="M12.2724 98.0837
L12.1515 98.0233
" />
<path d="M12.1515 98.0233
L12.0910 97.9628
" />
<path d="M13.9657 97.2371
L13.9657 98.0837
" />
<path d="M13.6633 96.7533
L13.3610 97.6604
" />
<path d="M13.3610 97.6604
L14.1471 97.6604
" />
</g></g>
<g style="fill:#840000; fill-opacity:0.0; 
stroke:#840000; stroke-width:0.1524; stroke-opacity:1; 
stroke-linecap:round; stroke-linejoin:round;">
<path d="M15.1511 101.0412
L11.0871 101.0412
" />
</g>
<g style="fill:#A90000; fill-opacity:0.0; 
stroke:#A90000; stroke-width:0.1524; stroke-opacity:1; 
stroke-linecap:round; stroke-linejoin:round;">
<text x="13.1191" y="100.7872"
textLength="2.6222" font-size="1.6933" lengthAdjust="spacingAndGlyphs"
text-anchor="middle" opacity="0">35</text>
<g class="stroked-text"><desc>35</desc>
<path d="M12.0910 99.3537
L12.8772 99.3537
" />
<path d="M12.8772 99.3537
L12.4538 99.8375
" />
<path d="M12.4538 99.8375
L12.6353 99.8375
" />
<path d="M12.6353 99.8375
L12.7562 99.8980
" />
<path d="M12.7562 99.8980
L12.8167 99.9585
" />
<path d="M12.8167 99.9585
L12.8772 100.0794
" />
<path d="M12.8772 100.0794
L12.8772 100.3818
" />
<path d="M12.8772 100.3818
L12.8167 100.5028
" />
<path d="M12.8167 100.5028
L12.7562 100.5633
" />
<path d="M12.7562 100.5633
L12.6353 100.6237
" />
<path d="M12.6353 100.6237
L12.2724 100.6237
" />
<path d="M12.2724 100.6237
L12.1515 100.5633
" />
<path d="M12.1515 100.5633
L12.0910 100.5028
" />
<path d="M14.0262 99.3537
L13.4214 99.3537
" />
<path d="M13.4214 99.3537
L13.3610 99.9585
" />
<path d="M13.3610 99.9585
L13.4214 99.8980
" />
<path d="M13.4214 99.8980
L13.5424 99.8375
" />
<path d="M13.5424 99.8375
L13.8448 99.8375
" />
<path d="M13.8448 99.8375
L13.9657 99.8980
" />
<path d="M13.9657 99.8980
L14.0262 99.9585
" />
<path d="M14.0262 99.9585
L14.0867 100.0794
" />
<path d="M14.0867 100.0794
L14.0867 100.3818
" />
<path d="M14.0867 100.3818
L14.0262 100.5028
" />
<path d="M14.0262 100.5028
L13.9657 100.5633
" />
<path d="M13.9657 100.5633
L13.8448 100.6237
" />
<path d="M13.8448 100.6237
L13.5424 100.6237
" />
<path d="M13.5424 100.6237
L13.4214 100.5633
" />
<path d="M13.4214 100.5633
L13.3610 100.5028
" />
</g></g>
<g style="fill:#840000; fill-opacity:0.0; 
stroke:#840000; stroke-width:0.1524; stroke-opacity:1; 
stroke-linecap:round; stroke-linejoin:round;">
<path d="M15.1511 103.5812
L11.0871 103.5812
" />
</g>
<g style="fill:#A90000; fill-opacity:0.0; 
stroke:#A90000; stroke-width:0.1524; stroke-opacity:1; 
stroke-linecap:round; stroke-linejoin:round;">
<text x="13.1191" y="103.3272"
textLength="2.6222" font-size="1.6933" lengthAdjust="spacingAndGlyphs"
text-anchor="middle" opacity="0">36</text>
<g class="stroked-text"><desc>36</desc>
<path d="M12.0910 101.8937
L12.8772 101.8937
" />
<path d="M12.8772 101.8937
L12.4538 102.3775
" />
<path d="M12.4538 102.3775
L12.6353 102.3775
" />
<path d="M12.6353 102.3775
L12.7562 102.4380
" />
<path d="M12.7562 102.4380
L12.8167 102.4985
" />
<path d="M12.8167 102.4985
L12.8772 102.6194
" />
<path d="M12.8772 102.6194
L12.8772 102.9218
" />
<path d="M12.8772 102.9218
L12.8167 103.0428
" />
<path d="M12.8167 103.0428
L12.7562 103.1033
" />
<path d="M12.7562 103.1033
L12.6353 103.1637
" />
<path d="M12.6353 103.1637
L12.2724 103.1637
" />
<path d="M12.2724 103.1637
L12.1515 103.1033
" />
<path d="M12.1515 103.1033
L12.0910 103.0428
" />
<path d="M13.9657 101.8937
L13.7238 101.8937
" />
<path d="M13.7238 101.8937
L13.6029 101.9542
" />
<path d="M13.6029 101.9542
L13.5424 102.0147
" />
<path d="M13.5424 102.0147
L13.4214 102.1961
" />
<path d="M13.4214 102.1961
L13.3610 102.4380
" />
<path d="M13.3610 102.4380
L13.3610 102.9218
" />
<path d="M13.3610 102.9218
L13.4214 103.0428
" />
<path d="M13.4214 103.0428
L13.4819 103.1033
" />
<path d="M13.4819 103.1033
L13.6029 103.1637
" />
<path d="M13.6029 103.1637
L13.8448 103.1637
" />
<path d="M13.8448 103.1637
L13.9657 103.1033
" />
<path d="M13.9657 103.1033
L14.0262 103.0428
" />
<path d="M14.0262 103.0428
L14.0867 102.9218
" />
<path d="M14.0867 102.9218
L14.0867 102.6194
" />
<path d="M14.0867 102.6194
L14.0262 102.4985
" />
<path d="M14.0262 102.4985
L13.9657 102.4380
" />
<path d="M13.9657 102.4380
L13.8448 102.3775
" />
<path d="M13.8448 102.3775
L13.6029 102.3775
" />
<path d="M13.6029 102.3775
L13.4819 102.4380
" />
<path d="M13.4819 102.4380
L13.4214 102.4985
" />
<path d="M13.4214 102.4985
L13.3610 102.6194
" />
</g></g>
<g style="fill:#840000; fill-opacity:0.0; 
stroke:#840000; stroke-width:0.1524; stroke-opacity:1; 
stroke-linecap:round; stroke-linejoin:round;">
<path d="M15.1511 106.1212
L11.0871 106.1212
" />
</g>
<g style="fill:#A90000; fill-opacity:0.0; 
stroke:#A90000; stroke-width:0.1524; stroke-opacity:1; 
stroke-linecap:round; stroke-linejoin:round;">
<text x="13.1191" y="105.8672"
textLength="2.6222" font-size="1.6933" lengthAdjust="spacingAndGlyphs"
text-anchor="middle" opacity="0">37</text>
<g class="stroked-text"><desc>37</desc>
<path d="M12.0910 104.4337
L12.8772 104.4337
" />
<path d="M12.8772 104.4337
L12.4538 104.9175
" />
<path d="M12.4538 104.9175
L12.6353 104.9175
" />
<path d="M12.6353 104.9175
L12.7562 104.9780
" />
<path d="M12.7562 104.9780
L12.8167 105.0385
" />
<path d="M12.8167 105.0385
L12.8772 105.1594
" />
<path d="M12.8772 105.1594
L12.8772 105.4618
" />
<path d="M12.8772 105.4618
L12.8167 105.5828
" />
<path d="M12.8167 105.5828
L12.7562 105.6433
" />
<path d="M12.7562 105.6433
L12.6353 105.7037
" />
<path d="M12.6353 105.7037
L12.2724 105.7037
" />
<path d="M12.2724 105.7037
L12.1515 105.6433
" />
<path d="M12.1515 105.6433
L12.0910 105.5828
" />
<path d="M13.3005 104.4337
L14.1471 104.4337
" />
<path d="M14.1471 104.4337
L13.6029 105.7037
" />
</g></g>
<g style="fill:#840000; fill-opacity:0.0; 
stroke:#840000; stroke-width:0.1524; stroke-opacity:1; 
stroke-linecap:round; stroke-linejoin:round;">
<path d="M15.1511 108.6612
L11.0871 108.6612
" />
</g>
<g style="fill:#A90000; fill-opacity:0.0; 
stroke:#A90000; stroke-width:0.1524; stroke-opacity:1; 
stroke-linecap:round; stroke-linejoin:round;">
<text x="13.1191" y="108.4072"
textLength="2.6222" font-size="1.6933" lengthAdjust="spacingAndGlyphs"
text-anchor="middle" opacity="0">38</text>
<g class="stroked-text"><desc>38</desc>
<path d="M12.0910 106.9737
L12.8772 106.9737
" />
<path d="M12.8772 106.9737
L12.4538 107.4575
" />
<path d="M12.4538 107.4575
L12.6353 107.4575
" />
<path d="M12.6353 107.4575
L12.7562 107.5180
" />
<path d="M12.7562 107.5180
L12.8167 107.5785
" />
<path d="M12.8167 107.5785
L12.8772 107.6994
" />
<path d="M12.8772 107.6994
L12.8772 108.0018
" />
<path d="M12.8772 108.0018
L12.8167 108.1228
" />
<path d="M12.8167 108.1228
L12.7562 108.1833
" />
<path d="M12.7562 108.1833
L12.6353 108.2437
" />
<path d="M12.6353 108.2437
L12.2724 108.2437
" />
<path d="M12.2724 108.2437
L12.1515 108.1833
" />
<path d="M12.1515 108.1833
L12.0910 108.1228
" />
<path d="M13.6029 107.5180
L13.4819 107.4575
" />
<path d="M13.4819 107.4575
L13.4214 107.3971
" />
<path d="M13.4214 107.3971
L13.3610 107.2761
" />
<path d="M13.3610 107.2761
L13.3610 107.2156
" />
<path d="M13.3610 107.2156
L13.4214 107.0947
" />
<path d="M13.4214 107.0947
L13.4819 107.0342
" />
<path d="M13.4819 107.0342
L13.6029 106.9737
" />
<path d="M13.6029 106.9737
L13.8448 106.9737
" />
<path d="M13.8448 106.9737
L13.9657 107.0342
" />
<path d="M13.9657 107.0342
L14.0262 107.0947
" />
<path d="M14.0262 107.0947
L14.0867 107.2156
" />
<path d="M14.0867 107.2156
L14.0867 107.2761
" />
<path d="M14.0867 107.2761
L14.0262 107.3971
" />
<path d="M14.0262 107.3971
L13.9657 107.4575
" />
<path d="M13.9657 107.4575
L13.8448 107.5180
" />
<path d="M13.8448 107.5180
L13.6029 107.5180
" />
<path d="M13.6029 107.5180
L13.4819 107.5785
" />
<path d="M13.4819 107.5785
L13.4214 107.6390
" />
<path d="M13.4214 107.6390
L13.3610 107.7599
" />
<path d="M13.3610 107.7599
L13.3610 108.0018
" />
<path d="M13.3610 108.0018
L13.4214 108.1228
" />
<path d="M13.4214 108.1228
L13.4819 108.1833
" />
<path d="M13.4819 108.1833
L13.6029 108.2437
" />
<path d="M13.6029 108.2437
L13.8448 108.2437
" />
<path d="M13.8448 108.2437
L13.9657 108.1833
" />
<path d="M13.9657 108.1833
L14.0262 108.1228
" />
<path d="M14.0262 108.1228
L14.0867 108.0018
" />
<path d="M14.0867 108.0018
L14.0867 107.7599
" />
<path d="M14.0867 107.7599
L14.0262 107.6390
" />
<path d="M14.0262 107.6390
L13.9657 107.5785
" />
<path d="M13.9657 107.5785
L13.8448 107.5180
" />
</g></g>
<g style="fill:#840000; fill-opacity:0.0; 
stroke:#840000; stroke-width:0.1524; stroke-opacity:1; 
stroke-linecap:round; stroke-linejoin:round;">
<path d="M15.1511 111.2012
L11.0871 111.2012
" />
</g>
<g style="fill:#A90000; fill-opacity:0.0; 
stroke:#A90000; stroke-width:0.1524; stroke-opacity:1; 
stroke-linecap:round; stroke-linejoin:round;">
<text x="13.1191" y="110.9472"
textLength="2.6222" font-size="1.6933" lengthAdjust="spacingAndGlyphs"
text-anchor="middle" opacity="0">39</text>
<g class="stroked-text"><desc>39</desc>
<path d="M12.0910 109.5137
L12.8772 109.5137
" />
<path d="M12.8772 109.5137
L12.4538 109.9975
" />
<path d="M12.4538 109.9975
L12.6353 109.9975
" />
<path d="M12.6353 109.9975
L12.7562 110.0580
" />
<path d="M12.7562 110.0580
L12.8167 110.1185
" />
<path d="M12.8167 110.1185
L12.8772 110.2394
" />
<path d="M12.8772 110.2394
L12.8772 110.5418
" />
<path d="M12.8772 110.5418
L12.8167 110.6628
" />
<path d="M12.8167 110.6628
L12.7562 110.7233
" />
<path d="M12.7562 110.7233
L12.6353 110.7837
" />
<path d="M12.6353 110.7837
L12.2724 110.7837
" />
<path d="M12.2724 110.7837
L12.1515 110.7233
" />
<path d="M12.1515 110.7233
L12.0910 110.6628
" />
<path d="M13.4819 110.7837
L13.7238 110.7837
" />
<path d="M13.7238 110.7837
L13.8448 110.7233
" />
<path d="M13.8448 110.7233
L13.9052 110.6628
" />
<path d="M13.9052 110.6628
L14.0262 110.4813
" />
<path d="M14.0262 110.4813
L14.0867 110.2394
" />
<path d="M14.0867 110.2394
L14.0867 109.7556
" />
<path d="M14.0867 109.7556
L14.0262 109.6347
" />
<path d="M14.0262 109.6347
L13.9657 109.5742
" />
<path d="M13.9657 109.5742
L13.8448 109.5137
" />
<path d="M13.8448 109.5137
L13.6029 109.5137
" />
<path d="M13.6029 109.5137
L13.4819 109.5742
" />
<path d="M13.4819 109.5742
L13.4214 109.6347
" />
<path d="M13.4214 109.6347
L13.3610 109.7556
" />
<path d="M13.3610 109.7556
L13.3610 110.0580
" />
<path d="M13.3610 110.0580
L13.4214 110.1790
" />
<path d="M13.4214 110.1790
L13.4819 110.2394
" />
<path d="M13.4819 110.2394
L13.6029 110.2999
" />
<path d="M13.6029 110.2999
L13.8448 110.2999
" />
<path d="M13.8448 110.2999
L13.9657 110.2394
" />
<path d="M13.9657 110.2394
L14.0262 110.1790
" />
<path d="M14.0262 110.1790
L14.0867 110.0580
" />
</g></g>
<g style="fill:#840000; fill-opacity:0.0; 
stroke:#840000; stroke-width:0.1524; stroke-opacity:1; 
stroke-linecap:round; stroke-linejoin:round;">
<path d="M15.1511 22.3012
L11.0871 22.3012
" />
</g>
<g style="fill:#A90000; fill-opacity:0.0; 
stroke:#A90000; stroke-width:0.1524; stroke-opacity:1; 
stroke-linecap:round; stroke-linejoin:round;">
<text x="13.1191" y="22.0472"
textLength="1.4127" font-size="1.6933" lengthAdjust="spacingAndGlyphs"
text-anchor="middle" opacity="0">4</text>
<g class="stroked-text"><desc>4</desc>
<path d="M13.3610 21.0371
L13.3610 21.8837
" />
<path d="M13.0586 20.5533
L12.7563 21.4604
" />
<path d="M12.7563 21.4604
L13.5424 21.4604
" />
</g></g>
<g style="fill:#840000; fill-opacity:0.0; 
stroke:#840000; stroke-width:0.1524; stroke-opacity:1; 
stroke-linecap:round; stroke-linejoin:round;">
<path d="M15.1511 24.8412
L11.0871 24.8412
" />
</g>
<g style="fill:#A90000; fill-opacity:0.0; 
stroke:#A90000; stroke-width:0.1524; stroke-opacity:1; 
stroke-linecap:round; stroke-linejoin:round;">
<text x="13.1191" y="24.5872"
textLength="1.4127" font-size="1.6933" lengthAdjust="spacingAndGlyphs"
text-anchor="middle" opacity="0">5</text>
<g class="stroked-text"><desc>5</desc>
<path d="M13.4215 23.1537
L12.8167 23.1537
" />
<path d="M12.8167 23.1537
L12.7563 23.7585
" />
<path d="M12.7563 23.7585
L12.8167 23.6980
" />
<path d="M12.8167 23.6980
L12.9377 23.6375
" />
<path d="M12.9377 23.6375
L13.2401 23.6375
" />
<path d="M13.2401 23.6375
L13.3610 23.6980
" />
<path d="M13.3610 23.6980
L13.4215 23.7585
" />
<path d="M13.4215 23.7585
L13.4820 23.8794
" />
<path d="M13.4820 23.8794
L13.4820 24.1818
" />
<path d="M13.4820 24.1818
L13.4215 24.3028
" />
<path d="M13.4215 24.3028
L13.3610 24.3633
" />
<path d="M13.3610 24.3633
L13.2401 24.4237
" />
<path d="M13.2401 24.4237
L12.9377 24.4237
" />
<path d="M12.9377 24.4237
L12.8167 24.3633
" />
<path d="M12.8167 24.3633
L12.7563 24.3028
" />
</g></g>
<g style="fill:#840000; fill-opacity:0.0; 
stroke:#840000; stroke-width:0.1524; stroke-opacity:1; 
stroke-linecap:round; stroke-linejoin:round;">
<path d="M15.1511 27.3812
L11.0871 27.3812
" />
</g>
<g style="fill:#A90000; fill-opacity:0.0; 
stroke:#A90000; stroke-width:0.1524; stroke-opacity:1; 
stroke-linecap:round; stroke-linejoin:round;">
<text x="13.1191" y="27.1272"
textLength="1.4127" font-size="1.6933" lengthAdjust="spacingAndGlyphs"
text-anchor="middle" opacity="0">6</text>
<g class="stroked-text"><desc>6</desc>
<path d="M13.3610 25.6937
L13.1191 25.6937
" />
<path d="M13.1191 25.6937
L12.9982 25.7542
" />
<path d="M12.9982 25.7542
L12.9377 25.8147
" />
<path d="M12.9377 25.8147
L12.8167 25.9961
" />
<path d="M12.8167 25.9961
L12.7563 26.2380
" />
<path d="M12.7563 26.2380
L12.7563 26.7218
" />
<path d="M12.7563 26.7218
L12.8167 26.8428
" />
<path d="M12.8167 26.8428
L12.8772 26.9033
" />
<path d="M12.8772 26.9033
L12.9982 26.9637
" />
<path d="M12.9982 26.9637
L13.2401 26.9637
" />
<path d="M13.2401 26.9637
L13.3610 26.9033
" />
<path d="M13.3610 26.9033
L13.4215 26.8428
" />
<path d="M13.4215 26.8428
L13.4820 26.7218
" />
<path d="M13.4820 26.7218
L13.4820 26.4194
" />
<path d="M13.4820 26.4194
L13.4215 26.2985
" />
<path d="M13.4215 26.2985
L13.3610 26.2380
" />
<path d="M13.3610 26.2380
L13.2401 26.1775
" />
<path d="M13.2401 26.1775
L12.9982 26.1775
" />
<path d="M12.9982 26.1775
L12.8772 26.2380
" />
<path d="M12.8772 26.2380
L12.8167 26.2985
" />
<path d="M12.8167 26.2985
L12.7563 26.4194
" />
</g></g>
<g style="fill:#840000; fill-opacity:0.0; 
stroke:#840000; stroke-width:0.1524; stroke-opacity:1; 
stroke-linecap:round; stroke-linejoin:round;">
<path d="M15.1511 29.9212
L11.0871 29.9212
" />
</g>
<g style="fill:#A90000; fill-opacity:0.0; 
stroke:#A90000; stroke-width:0.1524; stroke-opacity:1; 
stroke-linecap:round; stroke-linejoin:round;">
<text x="13.1191" y="29.6672"
textLength="1.4127" font-size="1.6933" lengthAdjust="spacingAndGlyphs"
text-anchor="middle" opacity="0">7</text>
<g class="stroked-text"><desc>7</desc>
<path d="M12.6958 28.2337
L13.5424 28.2337
" />
<path d="M13.5424 28.2337
L12.9982 29.5037
" />
</g></g>
<g style="fill:#840000; fill-opacity:0.0; 
stroke:#840000; stroke-width:0.1524; stroke-opacity:1; 
stroke-linecap:round; stroke-linejoin:round;">
<path d="M15.1511 32.4612
L11.0871 32.4612
" />
</g>
<g style="fill:#A90000; fill-opacity:0.0; 
stroke:#A90000; stroke-width:0.1524; stroke-opacity:1; 
stroke-linecap:round; stroke-linejoin:round;">
<text x="13.1191" y="32.2072"
textLength="1.4127" font-size="1.6933" lengthAdjust="spacingAndGlyphs"
text-anchor="middle" opacity="0">8</text>
<g class="stroked-text"><desc>8</desc>
<path d="M12.9982 31.3180
L12.8772 31.2575
" />
<path d="M12.8772 31.2575
L12.8167 31.1971
" />
<path d="M12.8167 31.1971
L12.7563 31.0761
" />
<path d="M12.7563 31.0761
L12.7563 31.0156
" />
<path d="M12.7563 31.0156
L12.8167 30.8947
" />
<path d="M12.8167 30.8947
L12.8772 30.8342
" />
<path d="M12.8772 30.8342
L12.9982 30.7737
" />
<path d="M12.9982 30.7737
L13.2401 30.7737
" />
<path d="M13.2401 30.7737
L13.3610 30.8342
" />
<path d="M13.3610 30.8342
L13.4215 30.8947
" />
<path d="M13.4215 30.8947
L13.4820 31.0156
" />
<path d="M13.4820 31.0156
L13.4820 31.0761
" />
<path d="M13.4820 31.0761
L13.4215 31.1971
" />
<path d="M13.4215 31.1971
L13.3610 31.2575
" />
<path d="M13.3610 31.2575
L13.2401 31.3180
" />
<path d="M13.2401 31.3180
L12.9982 31.3180
" />
<path d="M12.9982 31.3180
L12.8772 31.3785
" />
<path d="M12.8772 31.3785
L12.8167 31.4390
" />
<path d="M12.8167 31.4390
L12.7563 31.5599
" />
<path d="M12.7563 31.5599
L12.7563 31.8018
" />
<path d="M12.7563 31.8018
L12.8167 31.9228
" />
<path d="M12.8167 31.9228
L12.8772 31.9833
" />
<path d="M12.8772 31.9833
L12.9982 32.0437
" />
<path d="M12.9982 32.0437
L13.2401 32.0437
" />
<path d="M13.2401 32.0437
L13.3610 31.9833
" />
<path d="M13.3610 31.9833
L13.4215 31.9228
" />
<path d="M13.4215 31.9228
L13.4820 31.8018
" />
<path d="M13.4820 31.8018
L13.4820 31.5599
" />
<path d="M13.4820 31.5599
L13.4215 31.4390
" />
<path d="M13.4215 31.4390
L13.3610 31.3785
" />
<path d="M13.3610 31.3785
L13.2401 31.3180
" />
</g></g>
<g style="fill:#840000; fill-opacity:0.0; 
stroke:#840000; stroke-width:0.1524; stroke-opacity:1; 
stroke-linecap:round; stroke-linejoin:round;">
<path d="M15.1511 35.0012
L11.0871 35.0012
" />
</g>
<g style="fill:#A90000; fill-opacity:0.0; 
stroke:#A90000; stroke-width:0.1524; stroke-opacity:1; 
stroke-linecap:round; stroke-linejoin:round;">
<text x="13.1191" y="34.7472"
textLength="1.4127" font-size="1.6933" lengthAdjust="spacingAndGlyphs"
text-anchor="middle" opacity="0">9</text>
<g class="stroked-text"><desc>9</desc>
<path d="M12.8772 34.5837
L13.1191 34.5837
" />
<path d="M13.1191 34.5837
L13.2401 34.5233
" />
<path d="M13.2401 34.5233
L13.3005 34.4628
" />
<path d="M13.3005 34.4628
L13.4215 34.2813
" />
<path d="M13.4215 34.2813
L13.4820 34.0394
" />
<path d="M13.4820 34.0394
L13.4820 33.5556
" />
<path d="M13.4820 33.5556
L13.4215 33.4347
" />
<path d="M13.4215 33.4347
L13.3610 33.3742
" />
<path d="M13.3610 33.3742
L13.2401 33.3137
" />
<path d="M13.2401 33.3137
L12.9982 33.3137
" />
<path d="M12.9982 33.3137
L12.8772 33.3742
" />
<path d="M12.8772 33.3742
L12.8167 33.4347
" />
<path d="M12.8167 33.4347
L12.7563 33.5556
" />
<path d="M12.7563 33.5556
L12.7563 33.8580
" />
<path d="M12.7563 33.8580
L12.8167 33.9790
" />
<path d="M12.8167 33.9790
L12.8772 34.0394
" />
<path d="M12.8772 34.0394
L12.9982 34.0999
" />
<path d="M12.9982 34.0999
L13.2401 34.0999
" />
<path d="M13.2401 34.0999
L13.3610 34.0394
" />
<path d="M13.3610 34.0394
L13.4215 33.9790
" />
<path d="M13.4215 33.9790
L13.4820 33.8580
" />
</g></g>
<g style="fill:#840000; fill-opacity:0.0; 
stroke:#840000; stroke-width:0.1524; stroke-opacity:1; 
stroke-linecap:round; stroke-linejoin:round;">
<path d="M16.1671 112.4712
L16.1671 116.2812
" />
</g>
<g style="fill:#A90000; fill-opacity:0.0; 
stroke:#A90000; stroke-width:0.1524; stroke-opacity:1; 
stroke-linecap:round; stroke-linejoin:round;">
<g transform="rotate(-90.000000 15.9131 114.3762)">
<text x="15.9131" y="114.3762"
textLength="2.7432" font-size="1.6933" lengthAdjust="spacingAndGlyphs"
text-anchor="middle" opacity="0">SH</text>
</g>
<g class="stroked-text"><desc>SH</desc>
<path d="M15.6892 115.4042
L15.7496 115.2228
" />
<path d="M15.7496 115.2228
L15.7496 114.9204
" />
<path d="M15.7496 114.9204
L15.6892 114.7995
" />
<path d="M15.6892 114.7995
L15.6287 114.7390
" />
<path d="M15.6287 114.7390
L15.5077 114.6785
" />
<path d="M15.5077 114.6785
L15.3868 114.6785
" />
<path d="M15.3868 114.6785
L15.2658 114.7390
" />
<path d="M15.2658 114.7390
L15.2053 114.7995
" />
<path d="M15.2053 114.7995
L15.1449 114.9204
" />
<path d="M15.1449 114.9204
L15.0844 115.1623
" />
<path d="M15.0844 115.1623
L15.0239 115.2833
" />
<path d="M15.0239 115.2833
L14.9634 115.3438
" />
<path d="M14.9634 115.3438
L14.8425 115.4042
" />
<path d="M14.8425 115.4042
L14.7215 115.4042
" />
<path d="M14.7215 115.4042
L14.6006 115.3438
" />
<path d="M14.6006 115.3438
L14.5401 115.2833
" />
<path d="M14.5401 115.2833
L14.4796 115.1623
" />
<path d="M14.4796 115.1623
L14.4796 114.8600
" />
<path d="M14.4796 114.8600
L14.5401 114.6785
" />
<path d="M15.7496 114.1343
L14.4796 114.1343
" />
<path d="M15.0844 114.1343
L15.0844 113.4086
" />
<path d="M15.7496 113.4086
L14.4796 113.4086
" />
</g></g>
<g style="fill:#840084; fill-opacity:0.0; 
stroke:#840084; stroke-width:0.1524; stroke-opacity:1; 
stroke-linecap:round; stroke-linejoin:round;">
</g>
<g style="fill:#006464; fill-opacity:0.0; 
stroke:#006464; stroke-width:0.1524; stroke-opacity:1; 
stroke-linecap:round; stroke-linejoin:round;">
</g>
<g style="fill:#006464; fill-opacity:0.0; 
stroke:#006464; stroke-width:0.1588; stroke-opacity:1; 
stroke-linecap:round; stroke-linejoin:round;">
<text x="16.4211" y="13.0302"
textLength="2.2786" font-size="1.6933" lengthAdjust="spacingAndGlyphs"
text-anchor="middle" opacity="0">J?</text>
<g class="stroked-text"><desc>J?</desc>
<path d="M16.0582 11.7044
L16.0582 12.6116
" />
<path d="M16.0582 12.6116
L15.9977 12.7930
" />
<path d="M15.9977 12.7930
L15.8768 12.9140
" />
<path d="M15.8768 12.9140
L15.6953 12.9744
" />
<path d="M15.6953 12.9744
L15.5744 12.9744
" />
<path d="M16.8444 12.8535
L16.9048 12.9140
" />
<path d="M16.9048 12.9140
L16.8444 12.9744
" />
<path d="M16.8444 12.9744
L16.7839 12.9140
" />
<path d="M16.7839 12.9140
L16.8444 12.8535
" />
<path d="M16.8444 12.8535
L16.8444 12.9744
" />
<path d="M16.6025 11.7649
L16.7234 11.7044
" />
<path d="M16.7234 11.7044
L17.0258 11.7044
" />
<path d="M17.0258 11.7044
L17.1467 11.7649
" />
<path d="M17.1467 11.7649
L17.2072 11.8859
" />
<path d="M17.2072 11.8859
L17.2072 12.0068
" />
<path d="M17.2072 12.0068
L17.1467 12.1278
" />
<path d="M17.1467 12.1278
L17.0863 12.1882
" />
<path d="M17.0863 12.1882
L16.9653 12.2487
" />
<path d="M16.9653 12.2487
L16.9048 12.3092
" />
<path d="M16.9048 12.3092
L16.8444 12.4301
" />
<path d="M16.8444 12.4301
L16.8444 12.4906
" />
</g><text x="27.6053" y="114.1222"
textLength="20.8444" font-size="1.6933" lengthAdjust="spacingAndGlyphs"
text-anchor="middle" opacity="0">Conn_01x39_Shielded</text>
<g class="stroked-text"><desc>Conn_01x39_Shielded</desc>
<path d="M18.3223 113.9455
L18.2619 114.0060
" />
<path d="M18.2619 114.0060
L18.0804 114.0664
" />
<path d="M18.0804 114.0664
L17.9595 114.0664
" />
<path d="M17.9595 114.0664
L17.7781 114.0060
" />
<path d="M17.7781 114.0060
L17.6571 113.8850
" />
<path d="M17.6571 113.8850
L17.5966 113.7640
" />
<path d="M17.5966 113.7640
L17.5362 113.5221
" />
<path d="M17.5362 113.5221
L17.5362 113.3407
" />
<path d="M17.5362 113.3407
L17.5966 113.0988
" />
<path d="M17.5966 113.0988
L17.6571 112.9779
" />
<path d="M17.6571 112.9779
L17.7781 112.8569
" />
<path d="M17.7781 112.8569
L17.9595 112.7964
" />
<path d="M17.9595 112.7964
L18.0804 112.7964
" />
<path d="M18.0804 112.7964
L18.2619 112.8569
" />
<path d="M18.2619 112.8569
L18.3223 112.9174
" />
<path d="M19.0481 114.0664
L18.9271 114.0060
" />
<path d="M18.9271 114.0060
L18.8666 113.9455
" />
<path d="M18.8666 113.9455
L18.8062 113.8245
" />
<path d="M18.8062 113.8245
L18.8062 113.4617
" />
<path d="M18.8062 113.4617
L18.8666 113.3407
" />
<path d="M18.8666 113.3407
L18.9271 113.2802
" />
<path d="M18.9271 113.2802
L19.0481 113.2198
" />
<path d="M19.0481 113.2198
L19.2295 113.2198
" />
<path d="M19.2295 113.2198
L19.3504 113.2802
" />
<path d="M19.3504 113.2802
L19.4109 113.3407
" />
<path d="M19.4109 113.3407
L19.4714 113.4617
" />
<path d="M19.4714 113.4617
L19.4714 113.8245
" />
<path d="M19.4714 113.8245
L19.4109 113.9455
" />
<path d="M19.4109 113.9455
L19.3504 114.0060
" />
<path d="M19.3504 114.0060
L19.2295 114.0664
" />
<path d="M19.2295 114.0664
L19.0481 114.0664
" />
<path d="M20.0156 113.2198
L20.0156 114.0664
" />
<path d="M20.0156 113.3407
L20.0761 113.2802
" />
<path d="M20.0761 113.2802
L20.1971 113.2198
" />
<path d="M20.1971 113.2198
L20.3785 113.2198
" />
<path d="M20.3785 113.2198
L20.4994 113.2802
" />
<path d="M20.4994 113.2802
L20.5599 113.4012
" />
<path d="M20.5599 113.4012
L20.5599 114.0664
" />
<path d="M21.1646 113.2198
L21.1646 114.0664
" />
<path d="M21.1646 113.3407
L21.2251 113.2802
" />
<path d="M21.2251 113.2802
L21.3461 113.2198
" />
<path d="M21.3461 113.2198
L21.5275 113.2198
" />
<path d="M21.5275 113.2198
L21.6484 113.2802
" />
<path d="M21.6484 113.2802
L21.7089 113.4012
" />
<path d="M21.7089 113.4012
L21.7089 114.0664
" />
<path d="M22.0113 114.1874
L22.9789 114.1874
" />
<path d="M23.5231 112.7964
L23.6441 112.7964
" />
<path d="M23.6441 112.7964
L23.7650 112.8569
" />
<path d="M23.7650 112.8569
L23.8255 112.9174
" />
<path d="M23.8255 112.9174
L23.8860 113.0383
" />
<path d="M23.8860 113.0383
L23.9465 113.2802
" />
<path d="M23.9465 113.2802
L23.9465 113.5826
" />
<path d="M23.9465 113.5826
L23.8860 113.8245
" />
<path d="M23.8860 113.8245
L23.8255 113.9455
" />
<path d="M23.8255 113.9455
L23.7650 114.0060
" />
<path d="M23.7650 114.0060
L23.6441 114.0664
" />
<path d="M23.6441 114.0664
L23.5231 114.0664
" />
<path d="M23.5231 114.0664
L23.4022 114.0060
" />
<path d="M23.4022 114.0060
L23.3417 113.9455
" />
<path d="M23.3417 113.9455
L23.2812 113.8245
" />
<path d="M23.2812 113.8245
L23.2208 113.5826
" />
<path d="M23.2208 113.5826
L23.2208 113.2802
" />
<path d="M23.2208 113.2802
L23.2812 113.0383
" />
<path d="M23.2812 113.0383
L23.3417 112.9174
" />
<path d="M23.3417 112.9174
L23.4022 112.8569
" />
<path d="M23.4022 112.8569
L23.5231 112.7964
" />
<path d="M25.1560 114.0664
L24.4303 114.0664
" />
<path d="M24.7931 114.0664
L24.7931 112.7964
" />
<path d="M24.7931 112.7964
L24.6722 112.9779
" />
<path d="M24.6722 112.9779
L24.5512 113.0988
" />
<path d="M24.5512 113.0988
L24.4303 113.1593
" />
<path d="M25.5793 114.0664
L26.2445 113.2198
" />
<path d="M25.5793 113.2198
L26.2445 114.0664
" />
<path d="M26.6074 112.7964
L27.3936 112.7964
" />
<path d="M27.3936 112.7964
L26.9702 113.2802
" />
<path d="M26.9702 113.2802
L27.1517 113.2802
" />
<path d="M27.1517 113.2802
L27.2726 113.3407
" />
<path d="M27.2726 113.3407
L27.3331 113.4012
" />
<path d="M27.3331 113.4012
L27.3936 113.5221
" />
<path d="M27.3936 113.5221
L27.3936 113.8245
" />
<path d="M27.3936 113.8245
L27.3331 113.9455
" />
<path d="M27.3331 113.9455
L27.2726 114.0060
" />
<path d="M27.2726 114.0060
L27.1517 114.0664
" />
<path d="M27.1517 114.0664
L26.7888 114.0664
" />
<path d="M26.7888 114.0664
L26.6679 114.0060
" />
<path d="M26.6679 114.0060
L26.6074 113.9455
" />
<path d="M27.9983 114.0664
L28.2402 114.0664
" />
<path d="M28.2402 114.0664
L28.3612 114.0060
" />
<path d="M28.3612 114.0060
L28.4216 113.9455
" />
<path d="M28.4216 113.9455
L28.5426 113.7640
" />
<path d="M28.5426 113.7640
L28.6031 113.5221
" />
<path d="M28.6031 113.5221
L28.6031 113.0383
" />
<path d="M28.6031 113.0383
L28.5426 112.9174
" />
<path d="M28.5426 112.9174
L28.4821 112.8569
" />
<path d="M28.4821 112.8569
L28.3612 112.7964
" />
<path d="M28.3612 112.7964
L28.1193 112.7964
" />
<path d="M28.1193 112.7964
L27.9983 112.8569
" />
<path d="M27.9983 112.8569
L27.9378 112.9174
" />
<path d="M27.9378 112.9174
L27.8774 113.0383
" />
<path d="M27.8774 113.0383
L27.8774 113.3407
" />
<path d="M27.8774 113.3407
L27.9378 113.4617
" />
<path d="M27.9378 113.4617
L27.9983 113.5221
" />
<path d="M27.9983 113.5221
L28.1193 113.5826
" />
<path d="M28.1193 113.5826
L28.3612 113.5826
" />
<path d="M28.3612 113.5826
L28.4821 113.5221
" />
<path d="M28.4821 113.5221
L28.5426 113.4617
" />
<path d="M28.5426 113.4617
L28.6031 113.3407
" />
<path d="M28.8450 114.1874
L29.8126 114.1874
" />
<path d="M30.0545 114.0060
L30.2359 114.0664
" />
<path d="M30.2359 114.0664
L30.5383 114.0664
" />
<path d="M30.5383 114.0664
L30.6592 114.0060
" />
<path d="M30.6592 114.0060
L30.7197 113.9455
" />
<path d="M30.7197 113.9455
L30.7802 113.8245
" />
<path d="M30.7802 113.8245
L30.7802 113.7036
" />
<path d="M30.7802 113.7036
L30.7197 113.5826
" />
<path d="M30.7197 113.5826
L30.6592 113.5221
" />
<path d="M30.6592 113.5221
L30.5383 113.4617
" />
<path d="M30.5383 113.4617
L30.2964 113.4012
" />
<path d="M30.2964 113.4012
L30.1754 113.3407
" />
<path d="M30.1754 113.3407
L30.1149 113.2802
" />
<path d="M30.1149 113.2802
L30.0545 113.1593
" />
<path d="M30.0545 113.1593
L30.0545 113.0383
" />
<path d="M30.0545 113.0383
L30.1149 112.9174
" />
<path d="M30.1149 112.9174
L30.1754 112.8569
" />
<path d="M30.1754 112.8569
L30.2964 112.7964
" />
<path d="M30.2964 112.7964
L30.5987 112.7964
" />
<path d="M30.5987 112.7964
L30.7802 112.8569
" />
<path d="M31.3244 114.0664
L31.3244 112.7964
" />
<path d="M31.8687 114.0664
L31.8687 113.4012
" />
<path d="M31.8687 113.4012
L31.8082 113.2802
" />
<path d="M31.8082 113.2802
L31.6873 113.2198
" />
<path d="M31.6873 113.2198
L31.5059 113.2198
" />
<path d="M31.5059 113.2198
L31.3849 113.2802
" />
<path d="M31.3849 113.2802
L31.3244 113.3407
" />
<path d="M32.4734 114.0664
L32.4734 113.2198
" />
<path d="M32.4734 112.7964
L32.4130 112.8569
" />
<path d="M32.4130 112.8569
L32.4734 112.9174
" />
<path d="M32.4734 112.9174
L32.5339 112.8569
" />
<path d="M32.5339 112.8569
L32.4734 112.7964
" />
<path d="M32.4734 112.7964
L32.4734 112.9174
" />
<path d="M33.5620 114.0060
L33.4411 114.0664
" />
<path d="M33.4411 114.0664
L33.1992 114.0664
" />
<path d="M33.1992 114.0664
L33.0782 114.0060
" />
<path d="M33.0782 114.0060
L33.0178 113.8850
" />
<path d="M33.0178 113.8850
L33.0178 113.4012
" />
<path d="M33.0178 113.4012
L33.0782 113.2802
" />
<path d="M33.0782 113.2802
L33.1992 113.2198
" />
<path d="M33.1992 113.2198
L33.4411 113.2198
" />
<path d="M33.4411 113.2198
L33.5620 113.2802
" />
<path d="M33.5620 113.2802
L33.6225 113.4012
" />
<path d="M33.6225 113.4012
L33.6225 113.5221
" />
<path d="M33.6225 113.5221
L33.0178 113.6431
" />
<path d="M34.3483 114.0664
L34.2273 114.0060
" />
<path d="M34.2273 114.0060
L34.1668 113.8850
" />
<path d="M34.1668 113.8850
L34.1668 112.7964
" />
<path d="M35.3763 114.0664
L35.3763 112.7964
" />
<path d="M35.3763 114.0060
L35.2554 114.0664
" />
<path d="M35.2554 114.0664
L35.0135 114.0664
" />
<path d="M35.0135 114.0664
L34.8925 114.0060
" />
<path d="M34.8925 114.0060
L34.8320 113.9455
" />
<path d="M34.8320 113.9455
L34.7716 113.8245
" />
<path d="M34.7716 113.8245
L34.7716 113.4617
" />
<path d="M34.7716 113.4617
L34.8320 113.3407
" />
<path d="M34.8320 113.3407
L34.8925 113.2802
" />
<path d="M34.8925 113.2802
L35.0135 113.2198
" />
<path d="M35.0135 113.2198
L35.2554 113.2198
" />
<path d="M35.2554 113.2198
L35.3763 113.2802
" />
<path d="M36.4648 114.0060
L36.3439 114.0664
" />
<path d="M36.3439 114.0664
L36.1020 114.0664
" />
<path d="M36.1020 114.0664
L35.9810 114.0060
" />
<path d="M35.9810 114.0060
L35.9206 113.8850
" />
<path d="M35.9206 113.8850
L35.9206 113.4012
" />
<path d="M35.9206 113.4012
L35.9810 113.2802
" />
<path d="M35.9810 113.2802
L36.1020 113.2198
" />
<path d="M36.1020 113.2198
L36.3439 113.2198
" />
<path d="M36.3439 113.2198
L36.4648 113.2802
" />
<path d="M36.4648 113.2802
L36.5253 113.4012
" />
<path d="M36.5253 113.4012
L36.5253 113.5221
" />
<path d="M36.5253 113.5221
L35.9206 113.6431
" />
<path d="M37.6139 114.0664
L37.6139 112.7964
" />
<path d="M37.6139 114.0060
L37.4930 114.0664
" />
<path d="M37.4930 114.0664
L37.2511 114.0664
" />
<path d="M37.2511 114.0664
L37.1301 114.0060
" />
<path d="M37.1301 114.0060
L37.0696 113.9455
" />
<path d="M37.0696 113.9455
L37.0092 113.8245
" />
<path d="M37.0092 113.8245
L37.0092 113.4617
" />
<path d="M37.0092 113.4617
L37.0696 113.3407
" />
<path d="M37.0696 113.3407
L37.1301 113.2802
" />
<path d="M37.1301 113.2802
L37.2511 113.2198
" />
<path d="M37.2511 113.2198
L37.4930 113.2198
" />
<path d="M37.4930 113.2198
L37.6139 113.2802
" />
</g></g> 
</svg>
