<?xml version="1.0" standalone="no"?>
 <!DOCTYPE svg PUBLIC "-//W3C//DTD SVG 1.1//EN" 
 "http://www.w3.org/Graphics/SVG/1.1/DTD/svg11.dtd"> 
<svg
  xmlns:svg="http://www.w3.org/2000/svg"
  xmlns="http://www.w3.org/2000/svg"
  xmlns:xlink="http://www.w3.org/1999/xlink"
  version="1.1"
  width="77.6224mm" height="17.2212mm" viewBox="0.0000 0.0000 77.6224 17.2212">
<title>SVG Image created as lm7808_to220.svg date 2024/01/16 15:21:23 </title>
  <desc>Image generated by Eeschema-SVG </desc>
<g style="fill:#000000; fill-opacity:1.0000;stroke:#000000; stroke-opacity:1.0000;
stroke-linecap:round; stroke-linejoin:round;"
 transform="translate(0 0) scale(1 1)">
</g>
<g style="fill:#000000; fill-opacity:0.0; 
stroke:#000000; stroke-width:0.0000; stroke-opacity:1; 
stroke-linecap:round; stroke-linejoin:round;">
</g>
<g style="fill:#000000; fill-opacity:0.0; 
stroke:#000000; stroke-width:0.2540; stroke-opacity:1; 
stroke-linecap:round; stroke-linejoin:round;">
<rect x="33.731200" y="6.705600" width="10.160000" height="6.985000" rx="0.000000" />
</g>
<g style="fill:#000000; fill-opacity:0.0; 
stroke:#000000; stroke-width:0.1524; stroke-opacity:1; 
stroke-linecap:round; stroke-linejoin:round;">
<path d="M33.7312 8.6106
L31.1912 8.6106
" />
<text x="33.9852" y="9.2456"
textLength="1.8966" font-size="1.6933" lengthAdjust="spacingAndGlyphs"
text-anchor="start" opacity="0">VI</text>
<g class="stroked-text"><desc>VI</desc>
<path d="M34.2063 7.9201
L34.6296 9.1901
" />
<path d="M34.6296 9.1901
L35.0530 7.9201
" />
<path d="M35.4763 9.1901
L35.4763 7.9201
" />
</g><text x="32.4612" y="8.3566"
textLength="1.4127" font-size="1.6933" lengthAdjust="spacingAndGlyphs"
text-anchor="middle" opacity="0">1</text>
<g class="stroked-text"><desc>1</desc>
<path d="M32.8241 8.1931
L32.0984 8.1931
" />
<path d="M32.4612 8.1931
L32.4612 6.9231
" />
<path d="M32.4612 6.9231
L32.3403 7.1046
" />
<path d="M32.3403 7.1046
L32.2193 7.2255
" />
<path d="M32.2193 7.2255
L32.0984 7.2860
" />
</g><path d="M38.8112 13.6906
L38.8112 16.2306
" />
<g transform="rotate(-90.000000 38.8112 13.4366)">
<text x="38.8112" y="14.0716"
textLength="4.0737" font-size="1.6933" lengthAdjust="spacingAndGlyphs"
text-anchor="start" opacity="0">GND</text>
</g>
<g class="stroked-text"><desc>GND</desc>
<path d="M38.1812 12.3687
L38.1207 12.4897
" />
<path d="M38.1207 12.4897
L38.1207 12.6711
" />
<path d="M38.1207 12.6711
L38.1812 12.8525
" />
<path d="M38.1812 12.8525
L38.3022 12.9735
" />
<path d="M38.3022 12.9735
L38.4231 13.0340
" />
<path d="M38.4231 13.0340
L38.6650 13.0944
" />
<path d="M38.6650 13.0944
L38.8464 13.0944
" />
<path d="M38.8464 13.0944
L39.0883 13.0340
" />
<path d="M39.0883 13.0340
L39.2093 12.9735
" />
<path d="M39.2093 12.9735
L39.3303 12.8525
" />
<path d="M39.3303 12.8525
L39.3907 12.6711
" />
<path d="M39.3907 12.6711
L39.3907 12.5502
" />
<path d="M39.3907 12.5502
L39.3303 12.3687
" />
<path d="M39.3303 12.3687
L39.2698 12.3083
" />
<path d="M39.2698 12.3083
L38.8464 12.3083
" />
<path d="M38.8464 12.3083
L38.8464 12.5502
" />
<path d="M39.3907 11.7640
L38.1207 11.7640
" />
<path d="M38.1207 11.7640
L39.3907 11.0383
" />
<path d="M39.3907 11.0383
L38.1207 11.0383
" />
<path d="M39.3907 10.4335
L38.1207 10.4335
" />
<path d="M38.1207 10.4335
L38.1207 10.1311
" />
<path d="M38.1207 10.1311
L38.1812 9.9497
" />
<path d="M38.1812 9.9497
L38.3022 9.8287
" />
<path d="M38.3022 9.8287
L38.4231 9.7682
" />
<path d="M38.4231 9.7682
L38.6650 9.7078
" />
<path d="M38.6650 9.7078
L38.8464 9.7078
" />
<path d="M38.8464 9.7078
L39.0883 9.7682
" />
<path d="M39.0883 9.7682
L39.2093 9.8287
" />
<path d="M39.2093 9.8287
L39.3303 9.9497
" />
<path d="M39.3303 9.9497
L39.3907 10.1311
" />
<path d="M39.3907 10.1311
L39.3907 10.4335
" />
</g><g transform="rotate(-90.000000 38.5572 14.9606)">
<text x="38.5572" y="14.9606"
textLength="1.4127" font-size="1.6933" lengthAdjust="spacingAndGlyphs"
text-anchor="middle" opacity="0">2</text>
</g>
<g class="stroked-text"><desc>2</desc>
<path d="M37.2447 15.3233
L37.1842 15.2629
" />
<path d="M37.1842 15.2629
L37.1237 15.1419
" />
<path d="M37.1237 15.1419
L37.1237 14.8395
" />
<path d="M37.1237 14.8395
L37.1842 14.7186
" />
<path d="M37.1842 14.7186
L37.2447 14.6581
" />
<path d="M37.2447 14.6581
L37.3656 14.5976
" />
<path d="M37.3656 14.5976
L37.4866 14.5976
" />
<path d="M37.4866 14.5976
L37.6680 14.6581
" />
<path d="M37.6680 14.6581
L38.3937 15.3838
" />
<path d="M38.3937 15.3838
L38.3937 14.5976
" />
</g><path d="M43.8912 8.6106
L46.4312 8.6106
" />
<text x="43.6372" y="9.2456"
textLength="2.6223" font-size="1.6933" lengthAdjust="spacingAndGlyphs"
text-anchor="end" opacity="0">VO</text>
<g class="stroked-text"><desc>VO</desc>
<path d="M41.2388 7.9201
L41.6621 9.1901
" />
<path d="M41.6621 9.1901
L42.0855 7.9201
" />
<path d="M42.7507 7.9201
L42.9926 7.9201
" />
<path d="M42.9926 7.9201
L43.1136 7.9806
" />
<path d="M43.1136 7.9806
L43.2345 8.1016
" />
<path d="M43.2345 8.1016
L43.2950 8.3435
" />
<path d="M43.2950 8.3435
L43.2950 8.7668
" />
<path d="M43.2950 8.7668
L43.2345 9.0087
" />
<path d="M43.2345 9.0087
L43.1136 9.1297
" />
<path d="M43.1136 9.1297
L42.9926 9.1901
" />
<path d="M42.9926 9.1901
L42.7507 9.1901
" />
<path d="M42.7507 9.1901
L42.6298 9.1297
" />
<path d="M42.6298 9.1297
L42.5088 9.0087
" />
<path d="M42.5088 9.0087
L42.4484 8.7668
" />
<path d="M42.4484 8.7668
L42.4484 8.3435
" />
<path d="M42.4484 8.3435
L42.5088 8.1016
" />
<path d="M42.5088 8.1016
L42.6298 7.9806
" />
<path d="M42.6298 7.9806
L42.7507 7.9201
" />
</g><text x="45.1612" y="8.3566"
textLength="1.4127" font-size="1.6933" lengthAdjust="spacingAndGlyphs"
text-anchor="middle" opacity="0">3</text>
<g class="stroked-text"><desc>3</desc>
<path d="M44.7379 6.9231
L45.5241 6.9231
" />
<path d="M45.5241 6.9231
L45.1007 7.4069
" />
<path d="M45.1007 7.4069
L45.2822 7.4069
" />
<path d="M45.2822 7.4069
L45.4031 7.4674
" />
<path d="M45.4031 7.4674
L45.4636 7.5279
" />
<path d="M45.4636 7.5279
L45.5241 7.6488
" />
<path d="M45.5241 7.6488
L45.5241 7.9512
" />
<path d="M45.5241 7.9512
L45.4636 8.0722
" />
<path d="M45.4636 8.0722
L45.4031 8.1327
" />
<path d="M45.4031 8.1327
L45.2822 8.1931
" />
<path d="M45.2822 8.1931
L44.9193 8.1931
" />
<path d="M44.9193 8.1931
L44.7984 8.1327
" />
<path d="M44.7984 8.1327
L44.7379 8.0722
" />
</g></g>
<g style="fill:#000000; fill-opacity:0.0; 
stroke:#000000; stroke-width:0.1588; stroke-opacity:1; 
stroke-linecap:round; stroke-linejoin:round;">
<text x="35.0012" y="6.0706"
textLength="2.6415" font-size="1.6933" lengthAdjust="spacingAndGlyphs"
text-anchor="middle" opacity="0">U?</text>
<g class="stroked-text"><desc>U?</desc>
<path d="M34.0940 4.7448
L34.0940 5.7729
" />
<path d="M34.0940 5.7729
L34.1545 5.8939
" />
<path d="M34.1545 5.8939
L34.2150 5.9544
" />
<path d="M34.2150 5.9544
L34.3359 6.0148
" />
<path d="M34.3359 6.0148
L34.5778 6.0148
" />
<path d="M34.5778 6.0148
L34.6988 5.9544
" />
<path d="M34.6988 5.9544
L34.7593 5.8939
" />
<path d="M34.7593 5.8939
L34.8197 5.7729
" />
<path d="M34.8197 5.7729
L34.8197 4.7448
" />
<path d="M35.6060 5.8939
L35.6664 5.9544
" />
<path d="M35.6664 5.9544
L35.6060 6.0148
" />
<path d="M35.6060 6.0148
L35.5455 5.9544
" />
<path d="M35.5455 5.9544
L35.6060 5.8939
" />
<path d="M35.6060 5.8939
L35.6060 6.0148
" />
<path d="M35.3641 4.8053
L35.4850 4.7448
" />
<path d="M35.4850 4.7448
L35.7874 4.7448
" />
<path d="M35.7874 4.7448
L35.9083 4.8053
" />
<path d="M35.9083 4.8053
L35.9688 4.9263
" />
<path d="M35.9688 4.9263
L35.9688 5.0472
" />
<path d="M35.9688 5.0472
L35.9083 5.1682
" />
<path d="M35.9083 5.1682
L35.8479 5.2286
" />
<path d="M35.8479 5.2286
L35.7269 5.2891
" />
<path d="M35.7269 5.2891
L35.6664 5.3496
" />
<path d="M35.6664 5.3496
L35.6060 5.4705
" />
<path d="M35.6060 5.4705
L35.6060 5.5310
" />
</g><text x="46.0282" y="6.0706"
textLength="14.4341" font-size="1.6933" lengthAdjust="spacingAndGlyphs"
text-anchor="middle" opacity="0">LM7808_TO220</text>
<g class="stroked-text"><desc>LM7808_TO220</desc>
<path d="M39.8295 6.0148
L39.2247 6.0148
" />
<path d="M39.2247 6.0148
L39.2247 4.7448
" />
<path d="M40.2528 6.0148
L40.2528 4.7448
" />
<path d="M40.2528 4.7448
L40.6762 5.6520
" />
<path d="M40.6762 5.6520
L41.0995 4.7448
" />
<path d="M41.0995 4.7448
L41.0995 6.0148
" />
<path d="M41.5833 4.7448
L42.4299 4.7448
" />
<path d="M42.4299 4.7448
L41.8857 6.0148
" />
<path d="M43.0952 5.2891
L42.9742 5.2286
" />
<path d="M42.9742 5.2286
L42.9137 5.1682
" />
<path d="M42.9137 5.1682
L42.8533 5.0472
" />
<path d="M42.8533 5.0472
L42.8533 4.9867
" />
<path d="M42.8533 4.9867
L42.9137 4.8658
" />
<path d="M42.9137 4.8658
L42.9742 4.8053
" />
<path d="M42.9742 4.8053
L43.0952 4.7448
" />
<path d="M43.0952 4.7448
L43.3371 4.7448
" />
<path d="M43.3371 4.7448
L43.4580 4.8053
" />
<path d="M43.4580 4.8053
L43.5185 4.8658
" />
<path d="M43.5185 4.8658
L43.5790 4.9867
" />
<path d="M43.5790 4.9867
L43.5790 5.0472
" />
<path d="M43.5790 5.0472
L43.5185 5.1682
" />
<path d="M43.5185 5.1682
L43.4580 5.2286
" />
<path d="M43.4580 5.2286
L43.3371 5.2891
" />
<path d="M43.3371 5.2891
L43.0952 5.2891
" />
<path d="M43.0952 5.2891
L42.9742 5.3496
" />
<path d="M42.9742 5.3496
L42.9137 5.4101
" />
<path d="M42.9137 5.4101
L42.8533 5.5310
" />
<path d="M42.8533 5.5310
L42.8533 5.7729
" />
<path d="M42.8533 5.7729
L42.9137 5.8939
" />
<path d="M42.9137 5.8939
L42.9742 5.9544
" />
<path d="M42.9742 5.9544
L43.0952 6.0148
" />
<path d="M43.0952 6.0148
L43.3371 6.0148
" />
<path d="M43.3371 6.0148
L43.4580 5.9544
" />
<path d="M43.4580 5.9544
L43.5185 5.8939
" />
<path d="M43.5185 5.8939
L43.5790 5.7729
" />
<path d="M43.5790 5.7729
L43.5790 5.5310
" />
<path d="M43.5790 5.5310
L43.5185 5.4101
" />
<path d="M43.5185 5.4101
L43.4580 5.3496
" />
<path d="M43.4580 5.3496
L43.3371 5.2891
" />
<path d="M44.3651 4.7448
L44.4861 4.7448
" />
<path d="M44.4861 4.7448
L44.6070 4.8053
" />
<path d="M44.6070 4.8053
L44.6675 4.8658
" />
<path d="M44.6675 4.8658
L44.7280 4.9867
" />
<path d="M44.7280 4.9867
L44.7885 5.2286
" />
<path d="M44.7885 5.2286
L44.7885 5.5310
" />
<path d="M44.7885 5.5310
L44.7280 5.7729
" />
<path d="M44.7280 5.7729
L44.6675 5.8939
" />
<path d="M44.6675 5.8939
L44.6070 5.9544
" />
<path d="M44.6070 5.9544
L44.4861 6.0148
" />
<path d="M44.4861 6.0148
L44.3651 6.0148
" />
<path d="M44.3651 6.0148
L44.2442 5.9544
" />
<path d="M44.2442 5.9544
L44.1837 5.8939
" />
<path d="M44.1837 5.8939
L44.1232 5.7729
" />
<path d="M44.1232 5.7729
L44.0628 5.5310
" />
<path d="M44.0628 5.5310
L44.0628 5.2286
" />
<path d="M44.0628 5.2286
L44.1232 4.9867
" />
<path d="M44.1232 4.9867
L44.1837 4.8658
" />
<path d="M44.1837 4.8658
L44.2442 4.8053
" />
<path d="M44.2442 4.8053
L44.3651 4.7448
" />
<path d="M45.5142 5.2891
L45.3932 5.2286
" />
<path d="M45.3932 5.2286
L45.3327 5.1682
" />
<path d="M45.3327 5.1682
L45.2723 5.0472
" />
<path d="M45.2723 5.0472
L45.2723 4.9867
" />
<path d="M45.2723 4.9867
L45.3327 4.8658
" />
<path d="M45.3327 4.8658
L45.3932 4.8053
" />
<path d="M45.3932 4.8053
L45.5142 4.7448
" />
<path d="M45.5142 4.7448
L45.7561 4.7448
" />
<path d="M45.7561 4.7448
L45.8770 4.8053
" />
<path d="M45.8770 4.8053
L45.9375 4.8658
" />
<path d="M45.9375 4.8658
L45.9980 4.9867
" />
<path d="M45.9980 4.9867
L45.9980 5.0472
" />
<path d="M45.9980 5.0472
L45.9375 5.1682
" />
<path d="M45.9375 5.1682
L45.8770 5.2286
" />
<path d="M45.8770 5.2286
L45.7561 5.2891
" />
<path d="M45.7561 5.2891
L45.5142 5.2891
" />
<path d="M45.5142 5.2891
L45.3932 5.3496
" />
<path d="M45.3932 5.3496
L45.3327 5.4101
" />
<path d="M45.3327 5.4101
L45.2723 5.5310
" />
<path d="M45.2723 5.5310
L45.2723 5.7729
" />
<path d="M45.2723 5.7729
L45.3327 5.8939
" />
<path d="M45.3327 5.8939
L45.3932 5.9544
" />
<path d="M45.3932 5.9544
L45.5142 6.0148
" />
<path d="M45.5142 6.0148
L45.7561 6.0148
" />
<path d="M45.7561 6.0148
L45.8770 5.9544
" />
<path d="M45.8770 5.9544
L45.9375 5.8939
" />
<path d="M45.9375 5.8939
L45.9980 5.7729
" />
<path d="M45.9980 5.7729
L45.9980 5.5310
" />
<path d="M45.9980 5.5310
L45.9375 5.4101
" />
<path d="M45.9375 5.4101
L45.8770 5.3496
" />
<path d="M45.8770 5.3496
L45.7561 5.2891
" />
<path d="M46.2399 6.1358
L47.2075 6.1358
" />
<path d="M47.3284 4.7448
L48.0541 4.7448
" />
<path d="M47.6913 6.0148
L47.6913 4.7448
" />
<path d="M48.7193 4.7448
L48.9612 4.7448
" />
<path d="M48.9612 4.7448
L49.0822 4.8053
" />
<path d="M49.0822 4.8053
L49.2031 4.9263
" />
<path d="M49.2031 4.9263
L49.2636 5.1682
" />
<path d="M49.2636 5.1682
L49.2636 5.5915
" />
<path d="M49.2636 5.5915
L49.2031 5.8334
" />
<path d="M49.2031 5.8334
L49.0822 5.9544
" />
<path d="M49.0822 5.9544
L48.9612 6.0148
" />
<path d="M48.9612 6.0148
L48.7193 6.0148
" />
<path d="M48.7193 6.0148
L48.5984 5.9544
" />
<path d="M48.5984 5.9544
L48.4774 5.8334
" />
<path d="M48.4774 5.8334
L48.4170 5.5915
" />
<path d="M48.4170 5.5915
L48.4170 5.1682
" />
<path d="M48.4170 5.1682
L48.4774 4.9263
" />
<path d="M48.4774 4.9263
L48.5984 4.8053
" />
<path d="M48.5984 4.8053
L48.7193 4.7448
" />
<path d="M49.7475 4.8658
L49.8079 4.8053
" />
<path d="M49.8079 4.8053
L49.9289 4.7448
" />
<path d="M49.9289 4.7448
L50.2313 4.7448
" />
<path d="M50.2313 4.7448
L50.3522 4.8053
" />
<path d="M50.3522 4.8053
L50.4127 4.8658
" />
<path d="M50.4127 4.8658
L50.4732 4.9867
" />
<path d="M50.4732 4.9867
L50.4732 5.1077
" />
<path d="M50.4732 5.1077
L50.4127 5.2891
" />
<path d="M50.4127 5.2891
L49.6870 6.0148
" />
<path d="M49.6870 6.0148
L50.4732 6.0148
" />
<path d="M50.9570 4.8658
L51.0174 4.8053
" />
<path d="M51.0174 4.8053
L51.1384 4.7448
" />
<path d="M51.1384 4.7448
L51.4408 4.7448
" />
<path d="M51.4408 4.7448
L51.5617 4.8053
" />
<path d="M51.5617 4.8053
L51.6222 4.8658
" />
<path d="M51.6222 4.8658
L51.6827 4.9867
" />
<path d="M51.6827 4.9867
L51.6827 5.1077
" />
<path d="M51.6827 5.1077
L51.6222 5.2891
" />
<path d="M51.6222 5.2891
L50.8965 6.0148
" />
<path d="M50.8965 6.0148
L51.6827 6.0148
" />
<path d="M52.4688 4.7448
L52.5898 4.7448
" />
<path d="M52.5898 4.7448
L52.7107 4.8053
" />
<path d="M52.7107 4.8053
L52.7712 4.8658
" />
<path d="M52.7712 4.8658
L52.8317 4.9867
" />
<path d="M52.8317 4.9867
L52.8922 5.2286
" />
<path d="M52.8922 5.2286
L52.8922 5.5310
" />
<path d="M52.8922 5.5310
L52.8317 5.7729
" />
<path d="M52.8317 5.7729
L52.7712 5.8939
" />
<path d="M52.7712 5.8939
L52.7107 5.9544
" />
<path d="M52.7107 5.9544
L52.5898 6.0148
" />
<path d="M52.5898 6.0148
L52.4688 6.0148
" />
<path d="M52.4688 6.0148
L52.3479 5.9544
" />
<path d="M52.3479 5.9544
L52.2874 5.8939
" />
<path d="M52.2874 5.8939
L52.2269 5.7729
" />
<path d="M52.2269 5.7729
L52.1665 5.5310
" />
<path d="M52.1665 5.5310
L52.1665 5.2286
" />
<path d="M52.1665 5.2286
L52.2269 4.9867
" />
<path d="M52.2269 4.9867
L52.2874 4.8658
" />
<path d="M52.2874 4.8658
L52.3479 4.8053
" />
<path d="M52.3479 4.8053
L52.4688 4.7448
" />
</g></g> 
</svg>
