<?xml version="1.0" standalone="no"?>
 <!DOCTYPE svg PUBLIC "-//W3C//DTD SVG 1.1//EN" 
 "http://www.w3.org/Graphics/SVG/1.1/DTD/svg11.dtd"> 
<svg
  xmlns:svg="http://www.w3.org/2000/svg"
  xmlns="http://www.w3.org/2000/svg"
  xmlns:xlink="http://www.w3.org/1999/xlink"
  version="1.1"
  width="64.5668mm" height="13.7414mm" viewBox="0.0000 0.0000 64.5668 13.7414">
<title>SVG Image created as ild74_2.svg date 2024/01/16 15:10:40 </title>
  <desc>Image generated by Eeschema-SVG </desc>
<g style="fill:#000000; fill-opacity:1.0000;stroke:#000000; stroke-opacity:1.0000;
stroke-linecap:round; stroke-linejoin:round;"
 transform="translate(0 0) scale(1 1)">
</g>
<g style="fill:#840000; fill-opacity:0.0; 
stroke:#840000; stroke-width:0.0000; stroke-opacity:1; 
stroke-linecap:round; stroke-linejoin:round;">
</g>
<g style="fill:#FFFFC2; fill-opacity:0.0; 
stroke:#FFFFC2; stroke-width:0.0000; stroke-opacity:1; 
stroke-linecap:round; stroke-linejoin:round;">
</g>
<g style="fill:#FFFFC2; fill-opacity:1.0000; 
stroke:#FFFFC2; stroke-width:0.0000; stroke-opacity:1; 
stroke-linecap:round; stroke-linejoin:round;">
<rect x="27.203400" y="3.060700" width="10.160000" height="7.620000" rx="0.000000" />
</g>
<g style="fill:#840084; fill-opacity:1.0000; 
stroke:#840084; stroke-width:0.0000; stroke-opacity:1; 
stroke-linecap:round; stroke-linejoin:round;">
</g>
<g style="fill:#840000; fill-opacity:1.0000; 
stroke:#840000; stroke-width:0.0000; stroke-opacity:1; 
stroke-linecap:round; stroke-linejoin:round;">
</g>
<g style="fill:#840000; fill-opacity:0.0; 
stroke:#840000; stroke-width:0.2540; stroke-opacity:1; 
stroke-linecap:round; stroke-linejoin:round;">
<rect x="27.203400" y="3.060700" width="10.160000" height="7.620000" rx="0.000000" />
<path style="fill:#840000; fill-opacity:0.0; 
stroke:#840000; stroke-width:0.2540; stroke-opacity:1; 
stroke-linecap:round; stroke-linejoin:round;fill:none"
d="M 29.1084,7.5057
30.3784,7.5057
" /> 
</g>
<g style="fill:#840000; fill-opacity:0.0; 
stroke:#840000; stroke-width:0.1524; stroke-opacity:1; 
stroke-linecap:round; stroke-linejoin:round;">
<path style="fill:#840000; fill-opacity:0.0; 
stroke:#840000; stroke-width:0.1524; stroke-opacity:1; 
stroke-linecap:round; stroke-linejoin:round;fill:none"
d="M 34.8234,6.2357
36.7284,4.3307
" /> 
</g>
<g style="fill:#840000; fill-opacity:1.0000; 
stroke:#840000; stroke-width:0.1524; stroke-opacity:1; 
stroke-linecap:round; stroke-linejoin:round;">
<path style="fill:#840000; fill-opacity:1.0000; 
stroke:#840000; stroke-width:0.1524; stroke-opacity:1; 
stroke-linecap:round; stroke-linejoin:round;fill-rule:evenodd;"
d="M 36.7284,9.4107
34.8234,7.5057
" /> 
</g>
<g style="fill:#840000; fill-opacity:0.0; 
stroke:#840000; stroke-width:0.1524; stroke-opacity:1; 
stroke-linecap:round; stroke-linejoin:round;">
<path style="fill:#840000; fill-opacity:0.0; 
stroke:#840000; stroke-width:0.1524; stroke-opacity:1; 
stroke-linecap:round; stroke-linejoin:round;fill:none"
d="M 36.7284,9.4107
37.3634,9.4107
" /> 
<path style="fill:#840000; fill-opacity:0.0; 
stroke:#840000; stroke-width:0.1524; stroke-opacity:1; 
stroke-linecap:round; stroke-linejoin:round;fill:none"
d="M 36.7284,4.3307
37.3634,4.3307
" /> 
<path style="fill:#840000; fill-opacity:0.0; 
stroke:#840000; stroke-width:0.1524; stroke-opacity:1; 
stroke-linecap:round; stroke-linejoin:round;fill:none"
d="M 27.2034,4.3307
29.7434,4.3307
29.7434,6.2357
" /> 
</g>
<g style="fill:#840000; fill-opacity:0.0; 
stroke:#840000; stroke-width:0.5080; stroke-opacity:1; 
stroke-linecap:round; stroke-linejoin:round;">
<path style="fill:#840000; fill-opacity:0.0; 
stroke:#840000; stroke-width:0.5080; stroke-opacity:1; 
stroke-linecap:round; stroke-linejoin:round;fill:none"
d="M 34.8234,4.9657
34.8234,8.7757
34.8234,8.7757
" /> 
</g>
<g style="fill:#840000; fill-opacity:0.0; 
stroke:#840000; stroke-width:0.2540; stroke-opacity:1; 
stroke-linecap:round; stroke-linejoin:round;">
<path style="fill:#840000; fill-opacity:0.0; 
stroke:#840000; stroke-width:0.2540; stroke-opacity:1; 
stroke-linecap:round; stroke-linejoin:round;fill:none"
d="M 29.7434,7.5057
29.1084,6.2357
30.3784,6.2357
Z" /> 
</g>
<g style="fill:#840000; fill-opacity:0.0; 
stroke:#840000; stroke-width:0.1524; stroke-opacity:1; 
stroke-linecap:round; stroke-linejoin:round;">
<path style="fill:#840000; fill-opacity:0.0; 
stroke:#840000; stroke-width:0.1524; stroke-opacity:1; 
stroke-linecap:round; stroke-linejoin:round;fill:none"
d="M 29.7434,7.5057
29.7434,5.6007
29.7434,9.4107
27.2034,9.4107
" /> 
<path style="fill:#840000; fill-opacity:0.0; 
stroke:#840000; stroke-width:0.1524; stroke-opacity:1; 
stroke-linecap:round; stroke-linejoin:round;fill:none"
d="M 31.7754,7.3787
33.0454,7.3787
32.6644,7.5057
32.6644,7.2517
33.0454,7.3787
" /> 
<path style="fill:#840000; fill-opacity:0.0; 
stroke:#840000; stroke-width:0.1524; stroke-opacity:1; 
stroke-linecap:round; stroke-linejoin:round;fill:none"
d="M 31.7754,6.3627
33.0454,6.3627
32.6644,6.4897
32.6644,6.2357
33.0454,6.3627
" /> 
</g>
<g style="fill:#840000; fill-opacity:1.0000; 
stroke:#840000; stroke-width:0.1524; stroke-opacity:1; 
stroke-linecap:round; stroke-linejoin:round;">
<path style="fill:#840000; fill-opacity:1.0000; 
stroke:#840000; stroke-width:0.1524; stroke-opacity:1; 
stroke-linecap:round; stroke-linejoin:round;fill-rule:evenodd;"
d="M 35.3314,8.5217
35.8394,8.0137
36.3474,9.0297
35.3314,8.5217
Z" /> 
</g>
<g style="fill:#840000; fill-opacity:0.0; 
stroke:#840000; stroke-width:0.1524; stroke-opacity:1; 
stroke-linecap:round; stroke-linejoin:round;">
<path d="M27.2034 9.4107
L24.6634 9.4107
" />
</g>
<g style="fill:#A90000; fill-opacity:0.0; 
stroke:#A90000; stroke-width:0.1524; stroke-opacity:1; 
stroke-linecap:round; stroke-linejoin:round;">
<text x="25.9334" y="9.1567"
textLength="1.4127" font-size="1.6933" lengthAdjust="spacingAndGlyphs"
text-anchor="middle" opacity="0">3</text>
<g class="stroked-text"><desc>3</desc>
<path d="M25.5101 7.7232
L26.2963 7.7232
" />
<path d="M26.2963 7.7232
L25.8729 8.2070
" />
<path d="M25.8729 8.2070
L26.0544 8.2070
" />
<path d="M26.0544 8.2070
L26.1753 8.2675
" />
<path d="M26.1753 8.2675
L26.2358 8.3280
" />
<path d="M26.2358 8.3280
L26.2963 8.4489
" />
<path d="M26.2963 8.4489
L26.2963 8.7513
" />
<path d="M26.2963 8.7513
L26.2358 8.8723
" />
<path d="M26.2358 8.8723
L26.1753 8.9328
" />
<path d="M26.1753 8.9328
L26.0544 8.9932
" />
<path d="M26.0544 8.9932
L25.6915 8.9932
" />
<path d="M25.6915 8.9932
L25.5706 8.9328
" />
<path d="M25.5706 8.9328
L25.5101 8.8723
" />
</g></g>
<g style="fill:#840000; fill-opacity:0.0; 
stroke:#840000; stroke-width:0.1524; stroke-opacity:1; 
stroke-linecap:round; stroke-linejoin:round;">
<path d="M27.2034 4.3307
L24.6634 4.3307
" />
</g>
<g style="fill:#A90000; fill-opacity:0.0; 
stroke:#A90000; stroke-width:0.1524; stroke-opacity:1; 
stroke-linecap:round; stroke-linejoin:round;">
<text x="25.9334" y="4.0767"
textLength="1.4127" font-size="1.6933" lengthAdjust="spacingAndGlyphs"
text-anchor="middle" opacity="0">4</text>
<g class="stroked-text"><desc>4</desc>
<path d="M26.1753 3.0666
L26.1753 3.9132
" />
<path d="M25.8729 2.5828
L25.5706 3.4899
" />
<path d="M25.5706 3.4899
L26.3567 3.4899
" />
</g></g>
<g style="fill:#840000; fill-opacity:0.0; 
stroke:#840000; stroke-width:0.1524; stroke-opacity:1; 
stroke-linecap:round; stroke-linejoin:round;">
<path d="M37.3634 9.4107
L39.9034 9.4107
" />
</g>
<g style="fill:#A90000; fill-opacity:0.0; 
stroke:#A90000; stroke-width:0.1524; stroke-opacity:1; 
stroke-linecap:round; stroke-linejoin:round;">
<text x="38.6334" y="9.1567"
textLength="1.4127" font-size="1.6933" lengthAdjust="spacingAndGlyphs"
text-anchor="middle" opacity="0">5</text>
<g class="stroked-text"><desc>5</desc>
<path d="M38.9358 7.7232
L38.3310 7.7232
" />
<path d="M38.3310 7.7232
L38.2706 8.3280
" />
<path d="M38.2706 8.3280
L38.3310 8.2675
" />
<path d="M38.3310 8.2675
L38.4520 8.2070
" />
<path d="M38.4520 8.2070
L38.7544 8.2070
" />
<path d="M38.7544 8.2070
L38.8753 8.2675
" />
<path d="M38.8753 8.2675
L38.9358 8.3280
" />
<path d="M38.9358 8.3280
L38.9963 8.4489
" />
<path d="M38.9963 8.4489
L38.9963 8.7513
" />
<path d="M38.9963 8.7513
L38.9358 8.8723
" />
<path d="M38.9358 8.8723
L38.8753 8.9328
" />
<path d="M38.8753 8.9328
L38.7544 8.9932
" />
<path d="M38.7544 8.9932
L38.4520 8.9932
" />
<path d="M38.4520 8.9932
L38.3310 8.9328
" />
<path d="M38.3310 8.9328
L38.2706 8.8723
" />
</g></g>
<g style="fill:#840000; fill-opacity:0.0; 
stroke:#840000; stroke-width:0.1524; stroke-opacity:1; 
stroke-linecap:round; stroke-linejoin:round;">
<path d="M37.3634 4.3307
L39.9034 4.3307
" />
</g>
<g style="fill:#A90000; fill-opacity:0.0; 
stroke:#A90000; stroke-width:0.1524; stroke-opacity:1; 
stroke-linecap:round; stroke-linejoin:round;">
<text x="38.6334" y="4.0767"
textLength="1.4127" font-size="1.6933" lengthAdjust="spacingAndGlyphs"
text-anchor="middle" opacity="0">6</text>
<g class="stroked-text"><desc>6</desc>
<path d="M38.8753 2.6432
L38.6334 2.6432
" />
<path d="M38.6334 2.6432
L38.5125 2.7037
" />
<path d="M38.5125 2.7037
L38.4520 2.7642
" />
<path d="M38.4520 2.7642
L38.3310 2.9456
" />
<path d="M38.3310 2.9456
L38.2706 3.1875
" />
<path d="M38.2706 3.1875
L38.2706 3.6713
" />
<path d="M38.2706 3.6713
L38.3310 3.7923
" />
<path d="M38.3310 3.7923
L38.3915 3.8528
" />
<path d="M38.3915 3.8528
L38.5125 3.9132
" />
<path d="M38.5125 3.9132
L38.7544 3.9132
" />
<path d="M38.7544 3.9132
L38.8753 3.8528
" />
<path d="M38.8753 3.8528
L38.9358 3.7923
" />
<path d="M38.9358 3.7923
L38.9963 3.6713
" />
<path d="M38.9963 3.6713
L38.9963 3.3689
" />
<path d="M38.9963 3.3689
L38.9358 3.2480
" />
<path d="M38.9358 3.2480
L38.8753 3.1875
" />
<path d="M38.8753 3.1875
L38.7544 3.1270
" />
<path d="M38.7544 3.1270
L38.5125 3.1270
" />
<path d="M38.5125 3.1270
L38.3915 3.1875
" />
<path d="M38.3915 3.1875
L38.3310 3.2480
" />
<path d="M38.3310 3.2480
L38.2706 3.3689
" />
</g></g>
<g style="fill:#840084; fill-opacity:0.0; 
stroke:#840084; stroke-width:0.1524; stroke-opacity:1; 
stroke-linecap:round; stroke-linejoin:round;">
</g>
<g style="fill:#006464; fill-opacity:0.0; 
stroke:#006464; stroke-width:0.1524; stroke-opacity:1; 
stroke-linecap:round; stroke-linejoin:round;">
</g>
<g style="fill:#006464; fill-opacity:0.0; 
stroke:#006464; stroke-width:0.1588; stroke-opacity:1; 
stroke-linecap:round; stroke-linejoin:round;">
<text x="29.1591" y="2.4257"
textLength="3.9115" font-size="1.6933" lengthAdjust="spacingAndGlyphs"
text-anchor="middle" opacity="0">U?B</text>
<g class="stroked-text"><desc>U?B</desc>
<path d="M27.6169 1.0999
L27.6169 2.1280
" />
<path d="M27.6169 2.1280
L27.6774 2.2490
" />
<path d="M27.6774 2.2490
L27.7379 2.3095
" />
<path d="M27.7379 2.3095
L27.8588 2.3699
" />
<path d="M27.8588 2.3699
L28.1007 2.3699
" />
<path d="M28.1007 2.3699
L28.2217 2.3095
" />
<path d="M28.2217 2.3095
L28.2822 2.2490
" />
<path d="M28.2822 2.2490
L28.3426 2.1280
" />
<path d="M28.3426 2.1280
L28.3426 1.0999
" />
<path d="M29.1289 2.2490
L29.1893 2.3095
" />
<path d="M29.1893 2.3095
L29.1289 2.3699
" />
<path d="M29.1289 2.3699
L29.0684 2.3095
" />
<path d="M29.0684 2.3095
L29.1289 2.2490
" />
<path d="M29.1289 2.2490
L29.1289 2.3699
" />
<path d="M28.8870 1.1604
L29.0079 1.0999
" />
<path d="M29.0079 1.0999
L29.3103 1.0999
" />
<path d="M29.3103 1.0999
L29.4312 1.1604
" />
<path d="M29.4312 1.1604
L29.4917 1.2814
" />
<path d="M29.4917 1.2814
L29.4917 1.4023
" />
<path d="M29.4917 1.4023
L29.4312 1.5233
" />
<path d="M29.4312 1.5233
L29.3708 1.5837
" />
<path d="M29.3708 1.5837
L29.2498 1.6442
" />
<path d="M29.2498 1.6442
L29.1893 1.7047
" />
<path d="M29.1893 1.7047
L29.1289 1.8256
" />
<path d="M29.1289 1.8256
L29.1289 1.8861
" />
<path d="M30.4594 1.7047
L30.6408 1.7652
" />
<path d="M30.6408 1.7652
L30.7013 1.8256
" />
<path d="M30.7013 1.8256
L30.7617 1.9466
" />
<path d="M30.7617 1.9466
L30.7617 2.1280
" />
<path d="M30.7617 2.1280
L30.7013 2.2490
" />
<path d="M30.7013 2.2490
L30.6408 2.3095
" />
<path d="M30.6408 2.3095
L30.5198 2.3699
" />
<path d="M30.5198 2.3699
L30.0360 2.3699
" />
<path d="M30.0360 2.3699
L30.0360 1.0999
" />
<path d="M30.0360 1.0999
L30.4594 1.0999
" />
<path d="M30.4594 1.0999
L30.5803 1.1604
" />
<path d="M30.5803 1.1604
L30.6408 1.2209
" />
<path d="M30.6408 1.2209
L30.7013 1.3418
" />
<path d="M30.7013 1.3418
L30.7013 1.4628
" />
<path d="M30.7013 1.4628
L30.6408 1.5837
" />
<path d="M30.6408 1.5837
L30.5803 1.6442
" />
<path d="M30.5803 1.6442
L30.4594 1.7047
" />
<path d="M30.4594 1.7047
L30.0360 1.7047
" />
</g><text x="35.0555" y="2.4257"
textLength="5.5443" font-size="1.6933" lengthAdjust="spacingAndGlyphs"
text-anchor="middle" opacity="0">ILD74</text>
<g class="stroked-text"><desc>ILD74</desc>
<path d="M32.6969 2.3699
L32.6969 1.0999
" />
<path d="M33.9065 2.3699
L33.3017 2.3699
" />
<path d="M33.3017 2.3699
L33.3017 1.0999
" />
<path d="M34.3298 2.3699
L34.3298 1.0999
" />
<path d="M34.3298 1.0999
L34.6322 1.0999
" />
<path d="M34.6322 1.0999
L34.8136 1.1604
" />
<path d="M34.8136 1.1604
L34.9346 1.2814
" />
<path d="M34.9346 1.2814
L34.9951 1.4023
" />
<path d="M34.9951 1.4023
L35.0555 1.6442
" />
<path d="M35.0555 1.6442
L35.0555 1.8256
" />
<path d="M35.0555 1.8256
L34.9951 2.0675
" />
<path d="M34.9951 2.0675
L34.9346 2.1885
" />
<path d="M34.9346 2.1885
L34.8136 2.3095
" />
<path d="M34.8136 2.3095
L34.6322 2.3699
" />
<path d="M34.6322 2.3699
L34.3298 2.3699
" />
<path d="M35.4789 1.0999
L36.3255 1.0999
" />
<path d="M36.3255 1.0999
L35.7813 2.3699
" />
<path d="M37.3536 1.5233
L37.3536 2.3699
" />
<path d="M37.0512 1.0395
L36.7489 1.9466
" />
<path d="M36.7489 1.9466
L37.5350 1.9466
" />
</g></g> 
</svg>
