<?xml version="1.0" standalone="no"?>
 <!DOCTYPE svg PUBLIC "-//W3C//DTD SVG 1.1//EN" 
 "http://www.w3.org/Graphics/SVG/1.1/DTD/svg11.dtd"> 
<svg
  xmlns:svg="http://www.w3.org/2000/svg"
  xmlns="http://www.w3.org/2000/svg"
  xmlns:xlink="http://www.w3.org/1999/xlink"
  version="1.1"
  width="54.4068mm" height="24.3840mm" viewBox="0.0000 0.0000 54.4068 24.3840">
<title>SVG Image created as tpl5010.svg date 2024/01/16 15:21:33 </title>
  <desc>Image generated by Eeschema-SVG </desc>
<g style="fill:#000000; fill-opacity:1.0000;stroke:#000000; stroke-opacity:1.0000;
stroke-linecap:round; stroke-linejoin:round;"
 transform="translate(0 0) scale(1 1)">
</g>
<g style="fill:#000000; fill-opacity:0.0; 
stroke:#000000; stroke-width:0.0000; stroke-opacity:1; 
stroke-linecap:round; stroke-linejoin:round;">
</g>
<g style="fill:#000000; fill-opacity:0.0; 
stroke:#000000; stroke-width:0.2540; stroke-opacity:1; 
stroke-linecap:round; stroke-linejoin:round;">
<rect x="14.503400" y="4.572000" width="22.860000" height="15.240000" rx="0.000000" />
</g>
<g style="fill:#000000; fill-opacity:0.0; 
stroke:#000000; stroke-width:0.1524; stroke-opacity:1; 
stroke-linecap:round; stroke-linejoin:round;">
<path d="M27.2034 4.5720
L27.2034 2.0320
" />
<g transform="rotate(-90.000000 27.2034 5.0800)">
<text x="27.2034" y="5.7150"
textLength="3.8318" font-size="1.6933" lengthAdjust="spacingAndGlyphs"
text-anchor="end" opacity="0">VDD</text>
</g>
<g class="stroked-text"><desc>VDD</desc>
<path d="M26.5129 8.6878
L27.7829 8.2645
" />
<path d="M27.7829 8.2645
L26.5129 7.8411
" />
<path d="M27.7829 7.4178
L26.5129 7.4178
" />
<path d="M26.5129 7.4178
L26.5129 7.1154
" />
<path d="M26.5129 7.1154
L26.5734 6.9340
" />
<path d="M26.5734 6.9340
L26.6944 6.8130
" />
<path d="M26.6944 6.8130
L26.8153 6.7525
" />
<path d="M26.8153 6.7525
L27.0572 6.6921
" />
<path d="M27.0572 6.6921
L27.2386 6.6921
" />
<path d="M27.2386 6.6921
L27.4805 6.7525
" />
<path d="M27.4805 6.7525
L27.6015 6.8130
" />
<path d="M27.6015 6.8130
L27.7225 6.9340
" />
<path d="M27.7225 6.9340
L27.7829 7.1154
" />
<path d="M27.7829 7.1154
L27.7829 7.4178
" />
<path d="M27.7829 6.1478
L26.5129 6.1478
" />
<path d="M26.5129 6.1478
L26.5129 5.8454
" />
<path d="M26.5129 5.8454
L26.5734 5.6640
" />
<path d="M26.5734 5.6640
L26.6944 5.5430
" />
<path d="M26.6944 5.5430
L26.8153 5.4825
" />
<path d="M26.8153 5.4825
L27.0572 5.4221
" />
<path d="M27.0572 5.4221
L27.2386 5.4221
" />
<path d="M27.2386 5.4221
L27.4805 5.4825
" />
<path d="M27.4805 5.4825
L27.6015 5.5430
" />
<path d="M27.6015 5.5430
L27.7225 5.6640
" />
<path d="M27.7225 5.6640
L27.7829 5.8454
" />
<path d="M27.7829 5.8454
L27.7829 6.1478
" />
</g><g transform="rotate(-90.000000 26.9494 3.3020)">
<text x="26.9494" y="3.3020"
textLength="1.4127" font-size="1.6933" lengthAdjust="spacingAndGlyphs"
text-anchor="middle" opacity="0">1</text>
</g>
<g class="stroked-text"><desc>1</desc>
<path d="M26.7859 2.9390
L26.7859 3.6647
" />
<path d="M26.7859 3.3019
L25.5159 3.3019
" />
<path d="M25.5159 3.3019
L25.6974 3.4228
" />
<path d="M25.6974 3.4228
L25.8183 3.5438
" />
<path d="M25.8183 3.5438
L25.8788 3.6647
" />
</g><path d="M27.2034 19.8120
L27.2034 22.3520
" />
<g transform="rotate(-90.000000 27.2034 19.3040)">
<text x="27.2034" y="19.9390"
textLength="4.0737" font-size="1.6933" lengthAdjust="spacingAndGlyphs"
text-anchor="start" opacity="0">GND</text>
</g>
<g class="stroked-text"><desc>GND</desc>
<path d="M26.5734 18.2361
L26.5129 18.3571
" />
<path d="M26.5129 18.3571
L26.5129 18.5385
" />
<path d="M26.5129 18.5385
L26.5734 18.7199
" />
<path d="M26.5734 18.7199
L26.6944 18.8409
" />
<path d="M26.6944 18.8409
L26.8153 18.9014
" />
<path d="M26.8153 18.9014
L27.0572 18.9618
" />
<path d="M27.0572 18.9618
L27.2386 18.9618
" />
<path d="M27.2386 18.9618
L27.4805 18.9014
" />
<path d="M27.4805 18.9014
L27.6015 18.8409
" />
<path d="M27.6015 18.8409
L27.7225 18.7199
" />
<path d="M27.7225 18.7199
L27.7829 18.5385
" />
<path d="M27.7829 18.5385
L27.7829 18.4176
" />
<path d="M27.7829 18.4176
L27.7225 18.2361
" />
<path d="M27.7225 18.2361
L27.6620 18.1757
" />
<path d="M27.6620 18.1757
L27.2386 18.1757
" />
<path d="M27.2386 18.1757
L27.2386 18.4176
" />
<path d="M27.7829 17.6314
L26.5129 17.6314
" />
<path d="M26.5129 17.6314
L27.7829 16.9057
" />
<path d="M27.7829 16.9057
L26.5129 16.9057
" />
<path d="M27.7829 16.3009
L26.5129 16.3009
" />
<path d="M26.5129 16.3009
L26.5129 15.9985
" />
<path d="M26.5129 15.9985
L26.5734 15.8171
" />
<path d="M26.5734 15.8171
L26.6944 15.6961
" />
<path d="M26.6944 15.6961
L26.8153 15.6356
" />
<path d="M26.8153 15.6356
L27.0572 15.5752
" />
<path d="M27.0572 15.5752
L27.2386 15.5752
" />
<path d="M27.2386 15.5752
L27.4805 15.6356
" />
<path d="M27.4805 15.6356
L27.6015 15.6961
" />
<path d="M27.6015 15.6961
L27.7225 15.8171
" />
<path d="M27.7225 15.8171
L27.7829 15.9985
" />
<path d="M27.7829 15.9985
L27.7829 16.3009
" />
</g><g transform="rotate(-90.000000 26.9494 21.0820)">
<text x="26.9494" y="21.0820"
textLength="1.4127" font-size="1.6933" lengthAdjust="spacingAndGlyphs"
text-anchor="middle" opacity="0">2</text>
</g>
<g class="stroked-text"><desc>2</desc>
<path d="M25.6369 21.4447
L25.5764 21.3843
" />
<path d="M25.5764 21.3843
L25.5159 21.2633
" />
<path d="M25.5159 21.2633
L25.5159 20.9609
" />
<path d="M25.5159 20.9609
L25.5764 20.8400
" />
<path d="M25.5764 20.8400
L25.6369 20.7795
" />
<path d="M25.6369 20.7795
L25.7578 20.7190
" />
<path d="M25.7578 20.7190
L25.8788 20.7190
" />
<path d="M25.8788 20.7190
L26.0602 20.7795
" />
<path d="M26.0602 20.7795
L26.7859 21.5052
" />
<path d="M26.7859 21.5052
L26.7859 20.7190
" />
</g><path d="M14.5034 12.1920
L11.9634 12.1920
" />
<text x="15.0114" y="12.8270"
textLength="13.0241" font-size="1.6933" lengthAdjust="spacingAndGlyphs"
text-anchor="start" opacity="0">DELAY/M_RST</text>
<g class="stroked-text"><desc>DELAY/M_RST</desc>
<path d="M15.4139 12.7715
L15.4139 11.5015
" />
<path d="M15.4139 11.5015
L15.7163 11.5015
" />
<path d="M15.7163 11.5015
L15.8977 11.5620
" />
<path d="M15.8977 11.5620
L16.0187 11.6830
" />
<path d="M16.0187 11.6830
L16.0792 11.8039
" />
<path d="M16.0792 11.8039
L16.1396 12.0458
" />
<path d="M16.1396 12.0458
L16.1396 12.2272
" />
<path d="M16.1396 12.2272
L16.0792 12.4691
" />
<path d="M16.0792 12.4691
L16.0187 12.5901
" />
<path d="M16.0187 12.5901
L15.8977 12.7111
" />
<path d="M15.8977 12.7111
L15.7163 12.7715
" />
<path d="M15.7163 12.7715
L15.4139 12.7715
" />
<path d="M16.6839 12.1063
L17.1073 12.1063
" />
<path d="M17.2887 12.7715
L16.6839 12.7715
" />
<path d="M16.6839 12.7715
L16.6839 11.5015
" />
<path d="M16.6839 11.5015
L17.2887 11.5015
" />
<path d="M18.4377 12.7715
L17.8329 12.7715
" />
<path d="M17.8329 12.7715
L17.8329 11.5015
" />
<path d="M18.8006 12.4087
L19.4053 12.4087
" />
<path d="M18.6796 12.7715
L19.1029 11.5015
" />
<path d="M19.1029 11.5015
L19.5263 12.7715
" />
<path d="M20.1915 12.1668
L20.1915 12.7715
" />
<path d="M19.7682 11.5015
L20.1915 12.1668
" />
<path d="M20.1915 12.1668
L20.6149 11.5015
" />
<path d="M21.9454 11.4411
L20.8568 13.0739
" />
<path d="M22.3687 12.7715
L22.3687 11.5015
" />
<path d="M22.3687 11.5015
L22.7921 12.4087
" />
<path d="M22.7921 12.4087
L23.2154 11.5015
" />
<path d="M23.2154 11.5015
L23.2154 12.7715
" />
<path d="M23.5178 12.8925
L24.4854 12.8925
" />
<path d="M25.5134 12.7715
L25.0901 12.1668
" />
<path d="M24.7877 12.7715
L24.7877 11.5015
" />
<path d="M24.7877 11.5015
L25.2715 11.5015
" />
<path d="M25.2715 11.5015
L25.3925 11.5620
" />
<path d="M25.3925 11.5620
L25.4530 11.6225
" />
<path d="M25.4530 11.6225
L25.5134 11.7434
" />
<path d="M25.5134 11.7434
L25.5134 11.9249
" />
<path d="M25.5134 11.9249
L25.4530 12.0458
" />
<path d="M25.4530 12.0458
L25.3925 12.1063
" />
<path d="M25.3925 12.1063
L25.2715 12.1668
" />
<path d="M25.2715 12.1668
L24.7877 12.1668
" />
<path d="M25.9973 12.7111
L26.1787 12.7715
" />
<path d="M26.1787 12.7715
L26.4811 12.7715
" />
<path d="M26.4811 12.7715
L26.6020 12.7111
" />
<path d="M26.6020 12.7111
L26.6625 12.6506
" />
<path d="M26.6625 12.6506
L26.7230 12.5296
" />
<path d="M26.7230 12.5296
L26.7230 12.4087
" />
<path d="M26.7230 12.4087
L26.6625 12.2877
" />
<path d="M26.6625 12.2877
L26.6020 12.2272
" />
<path d="M26.6020 12.2272
L26.4811 12.1668
" />
<path d="M26.4811 12.1668
L26.2392 12.1063
" />
<path d="M26.2392 12.1063
L26.1182 12.0458
" />
<path d="M26.1182 12.0458
L26.0577 11.9853
" />
<path d="M26.0577 11.9853
L25.9973 11.8644
" />
<path d="M25.9973 11.8644
L25.9973 11.7434
" />
<path d="M25.9973 11.7434
L26.0577 11.6225
" />
<path d="M26.0577 11.6225
L26.1182 11.5620
" />
<path d="M26.1182 11.5620
L26.2392 11.5015
" />
<path d="M26.2392 11.5015
L26.5415 11.5015
" />
<path d="M26.5415 11.5015
L26.7230 11.5620
" />
<path d="M27.0858 11.5015
L27.8115 11.5015
" />
<path d="M27.4487 12.7715
L27.4487 11.5015
" />
</g><text x="13.2334" y="11.9380"
textLength="1.4127" font-size="1.6933" lengthAdjust="spacingAndGlyphs"
text-anchor="middle" opacity="0">3</text>
<g class="stroked-text"><desc>3</desc>
<path d="M12.8101 10.5045
L13.5963 10.5045
" />
<path d="M13.5963 10.5045
L13.1729 10.9883
" />
<path d="M13.1729 10.9883
L13.3544 10.9883
" />
<path d="M13.3544 10.9883
L13.4753 11.0488
" />
<path d="M13.4753 11.0488
L13.5358 11.1093
" />
<path d="M13.5358 11.1093
L13.5963 11.2302
" />
<path d="M13.5963 11.2302
L13.5963 11.5326
" />
<path d="M13.5963 11.5326
L13.5358 11.6536
" />
<path d="M13.5358 11.6536
L13.4753 11.7141
" />
<path d="M13.4753 11.7141
L13.3544 11.7745
" />
<path d="M13.3544 11.7745
L12.9915 11.7745
" />
<path d="M12.9915 11.7745
L12.8706 11.7141
" />
<path d="M12.8706 11.7141
L12.8101 11.6536
" />
</g><path d="M37.3634 12.1920
L39.9034 12.1920
" />
<text x="36.8554" y="12.8270"
textLength="5.2832" font-size="1.6933" lengthAdjust="spacingAndGlyphs"
text-anchor="end" opacity="0">DONE</text>
<g class="stroked-text"><desc>DONE</desc>
<path d="M31.9775 12.7715
L31.9775 11.5015
" />
<path d="M31.9775 11.5015
L32.2799 11.5015
" />
<path d="M32.2799 11.5015
L32.4613 11.5620
" />
<path d="M32.4613 11.5620
L32.5823 11.6830
" />
<path d="M32.5823 11.6830
L32.6428 11.8039
" />
<path d="M32.6428 11.8039
L32.7032 12.0458
" />
<path d="M32.7032 12.0458
L32.7032 12.2272
" />
<path d="M32.7032 12.2272
L32.6428 12.4691
" />
<path d="M32.6428 12.4691
L32.5823 12.5901
" />
<path d="M32.5823 12.5901
L32.4613 12.7111
" />
<path d="M32.4613 12.7111
L32.2799 12.7715
" />
<path d="M32.2799 12.7715
L31.9775 12.7715
" />
<path d="M33.4894 11.5015
L33.7313 11.5015
" />
<path d="M33.7313 11.5015
L33.8523 11.5620
" />
<path d="M33.8523 11.5620
L33.9732 11.6830
" />
<path d="M33.9732 11.6830
L34.0337 11.9249
" />
<path d="M34.0337 11.9249
L34.0337 12.3482
" />
<path d="M34.0337 12.3482
L33.9732 12.5901
" />
<path d="M33.9732 12.5901
L33.8523 12.7111
" />
<path d="M33.8523 12.7111
L33.7313 12.7715
" />
<path d="M33.7313 12.7715
L33.4894 12.7715
" />
<path d="M33.4894 12.7715
L33.3685 12.7111
" />
<path d="M33.3685 12.7111
L33.2475 12.5901
" />
<path d="M33.2475 12.5901
L33.1871 12.3482
" />
<path d="M33.1871 12.3482
L33.1871 11.9249
" />
<path d="M33.1871 11.9249
L33.2475 11.6830
" />
<path d="M33.2475 11.6830
L33.3685 11.5620
" />
<path d="M33.3685 11.5620
L33.4894 11.5015
" />
<path d="M34.5780 12.7715
L34.5780 11.5015
" />
<path d="M34.5780 11.5015
L35.3037 12.7715
" />
<path d="M35.3037 12.7715
L35.3037 11.5015
" />
<path d="M35.9085 12.1063
L36.3319 12.1063
" />
<path d="M36.5133 12.7715
L35.9085 12.7715
" />
<path d="M35.9085 12.7715
L35.9085 11.5015
" />
<path d="M35.9085 11.5015
L36.5133 11.5015
" />
</g><text x="38.6334" y="11.9380"
textLength="1.4127" font-size="1.6933" lengthAdjust="spacingAndGlyphs"
text-anchor="middle" opacity="0">4</text>
<g class="stroked-text"><desc>4</desc>
<path d="M38.8753 10.9279
L38.8753 11.7745
" />
<path d="M38.5729 10.4441
L38.2706 11.3512
" />
<path d="M38.2706 11.3512
L39.0567 11.3512
" />
</g><path d="M37.3634 14.7320
L39.9034 14.7320
" />
<text x="36.8554" y="15.3670"
textLength="5.1622" font-size="1.6933" lengthAdjust="spacingAndGlyphs"
text-anchor="end" opacity="0">WAKE</text>
<g class="stroked-text"><desc>WAKE</desc>
<path d="M31.9776 14.0415
L32.2800 15.3115
" />
<path d="M32.2800 15.3115
L32.5219 14.4044
" />
<path d="M32.5219 14.4044
L32.7638 15.3115
" />
<path d="M32.7638 15.3115
L33.0662 14.0415
" />
<path d="M33.4895 14.9487
L34.0942 14.9487
" />
<path d="M33.3685 15.3115
L33.7918 14.0415
" />
<path d="M33.7918 14.0415
L34.2152 15.3115
" />
<path d="M34.6385 15.3115
L34.6385 14.0415
" />
<path d="M35.3642 15.3115
L34.8200 14.5858
" />
<path d="M35.3642 14.0415
L34.6385 14.7672
" />
<path d="M35.9085 14.6463
L36.3319 14.6463
" />
<path d="M36.5133 15.3115
L35.9085 15.3115
" />
<path d="M35.9085 15.3115
L35.9085 14.0415
" />
<path d="M35.9085 14.0415
L36.5133 14.0415
" />
</g><text x="38.6334" y="14.4780"
textLength="1.4127" font-size="1.6933" lengthAdjust="spacingAndGlyphs"
text-anchor="middle" opacity="0">5</text>
<g class="stroked-text"><desc>5</desc>
<path d="M38.9358 13.0445
L38.3310 13.0445
" />
<path d="M38.3310 13.0445
L38.2706 13.6493
" />
<path d="M38.2706 13.6493
L38.3310 13.5888
" />
<path d="M38.3310 13.5888
L38.4520 13.5283
" />
<path d="M38.4520 13.5283
L38.7544 13.5283
" />
<path d="M38.7544 13.5283
L38.8753 13.5888
" />
<path d="M38.8753 13.5888
L38.9358 13.6493
" />
<path d="M38.9358 13.6493
L38.9963 13.7702
" />
<path d="M38.9963 13.7702
L38.9963 14.0726
" />
<path d="M38.9963 14.0726
L38.9358 14.1936
" />
<path d="M38.9358 14.1936
L38.8753 14.2541
" />
<path d="M38.8753 14.2541
L38.7544 14.3145
" />
<path d="M38.7544 14.3145
L38.4520 14.3145
" />
<path d="M38.4520 14.3145
L38.3310 14.2541
" />
<path d="M38.3310 14.2541
L38.2706 14.1936
" />
</g><path d="M37.3634 9.6520
L39.9034 9.6520
" />
<text x="36.8554" y="10.2870"
textLength="3.6503" font-size="1.6933" lengthAdjust="spacingAndGlyphs"
text-anchor="end" opacity="0">~{RST}</text>
<g class="stroked-text"><desc>~{RST}</desc>
<path d="M34.3361 10.2315
L33.9128 9.6268
" />
<path d="M33.6104 10.2315
L33.6104 8.9615
" />
<path d="M33.6104 8.9615
L34.0942 8.9615
" />
<path d="M34.0942 8.9615
L34.2152 9.0220
" />
<path d="M34.2152 9.0220
L34.2757 9.0825
" />
<path d="M34.2757 9.0825
L34.3361 9.2034
" />
<path d="M34.3361 9.2034
L34.3361 9.3849
" />
<path d="M34.3361 9.3849
L34.2757 9.5058
" />
<path d="M34.2757 9.5058
L34.2152 9.5663
" />
<path d="M34.2152 9.5663
L34.0942 9.6268
" />
<path d="M34.0942 9.6268
L33.6104 9.6268
" />
<path d="M34.8200 10.1711
L35.0014 10.2315
" />
<path d="M35.0014 10.2315
L35.3038 10.2315
" />
<path d="M35.3038 10.2315
L35.4247 10.1711
" />
<path d="M35.4247 10.1711
L35.4852 10.1106
" />
<path d="M35.4852 10.1106
L35.5457 9.9896
" />
<path d="M35.5457 9.9896
L35.5457 9.8687
" />
<path d="M35.5457 9.8687
L35.4852 9.7477
" />
<path d="M35.4852 9.7477
L35.4247 9.6872
" />
<path d="M35.4247 9.6872
L35.3038 9.6268
" />
<path d="M35.3038 9.6268
L35.0619 9.5663
" />
<path d="M35.0619 9.5663
L34.9409 9.5058
" />
<path d="M34.9409 9.5058
L34.8804 9.4453
" />
<path d="M34.8804 9.4453
L34.8200 9.3244
" />
<path d="M34.8200 9.3244
L34.8200 9.2034
" />
<path d="M34.8200 9.2034
L34.8804 9.0825
" />
<path d="M34.8804 9.0825
L34.9409 9.0220
" />
<path d="M34.9409 9.0220
L35.0619 8.9615
" />
<path d="M35.0619 8.9615
L35.3642 8.9615
" />
<path d="M35.3642 8.9615
L35.5457 9.0220
" />
<path d="M35.9085 8.9615
L36.6342 8.9615
" />
<path d="M36.2714 10.2315
L36.2714 8.9615
" />
<path d="M33.4351 8.6090
L36.6282 8.6090
" />
</g><text x="38.6334" y="9.3980"
textLength="1.4127" font-size="1.6933" lengthAdjust="spacingAndGlyphs"
text-anchor="middle" opacity="0">6</text>
<g class="stroked-text"><desc>6</desc>
<path d="M38.8753 7.9645
L38.6334 7.9645
" />
<path d="M38.6334 7.9645
L38.5125 8.0250
" />
<path d="M38.5125 8.0250
L38.4520 8.0855
" />
<path d="M38.4520 8.0855
L38.3310 8.2669
" />
<path d="M38.3310 8.2669
L38.2706 8.5088
" />
<path d="M38.2706 8.5088
L38.2706 8.9926
" />
<path d="M38.2706 8.9926
L38.3310 9.1136
" />
<path d="M38.3310 9.1136
L38.3915 9.1741
" />
<path d="M38.3915 9.1741
L38.5125 9.2345
" />
<path d="M38.5125 9.2345
L38.7544 9.2345
" />
<path d="M38.7544 9.2345
L38.8753 9.1741
" />
<path d="M38.8753 9.1741
L38.9358 9.1136
" />
<path d="M38.9358 9.1136
L38.9963 8.9926
" />
<path d="M38.9963 8.9926
L38.9963 8.6902
" />
<path d="M38.9963 8.6902
L38.9358 8.5693
" />
<path d="M38.9358 8.5693
L38.8753 8.5088
" />
<path d="M38.8753 8.5088
L38.7544 8.4483
" />
<path d="M38.7544 8.4483
L38.5125 8.4483
" />
<path d="M38.5125 8.4483
L38.3915 8.5088
" />
<path d="M38.3915 8.5088
L38.3310 8.5693
" />
<path d="M38.3310 8.5693
L38.2706 8.6902
" />
</g></g>
<g style="fill:#000000; fill-opacity:0.0; 
stroke:#000000; stroke-width:0.1588; stroke-opacity:1; 
stroke-linecap:round; stroke-linejoin:round;">
<text x="18.3134" y="3.9370"
textLength="2.6415" font-size="1.6933" lengthAdjust="spacingAndGlyphs"
text-anchor="middle" opacity="0">U?</text>
<g class="stroked-text"><desc>U?</desc>
<path d="M17.4062 2.6112
L17.4062 3.6393
" />
<path d="M17.4062 3.6393
L17.4667 3.7603
" />
<path d="M17.4667 3.7603
L17.5272 3.8208
" />
<path d="M17.5272 3.8208
L17.6481 3.8812
" />
<path d="M17.6481 3.8812
L17.8900 3.8812
" />
<path d="M17.8900 3.8812
L18.0110 3.8208
" />
<path d="M18.0110 3.8208
L18.0715 3.7603
" />
<path d="M18.0715 3.7603
L18.1319 3.6393
" />
<path d="M18.1319 3.6393
L18.1319 2.6112
" />
<path d="M18.9182 3.7603
L18.9786 3.8208
" />
<path d="M18.9786 3.8208
L18.9182 3.8812
" />
<path d="M18.9182 3.8812
L18.8577 3.8208
" />
<path d="M18.8577 3.8208
L18.9182 3.7603
" />
<path d="M18.9182 3.7603
L18.9182 3.8812
" />
<path d="M18.6763 2.6717
L18.7972 2.6112
" />
<path d="M18.7972 2.6112
L19.0996 2.6112
" />
<path d="M19.0996 2.6112
L19.2205 2.6717
" />
<path d="M19.2205 2.6717
L19.2810 2.7927
" />
<path d="M19.2810 2.7927
L19.2810 2.9136
" />
<path d="M19.2810 2.9136
L19.2205 3.0346
" />
<path d="M19.2205 3.0346
L19.1601 3.0950
" />
<path d="M19.1601 3.0950
L19.0391 3.1555
" />
<path d="M19.0391 3.1555
L18.9786 3.2160
" />
<path d="M18.9786 3.2160
L18.9182 3.3369
" />
<path d="M18.9182 3.3369
L18.9182 3.3974
" />
</g><text x="33.5534" y="3.9370"
textLength="8.3261" font-size="1.6933" lengthAdjust="spacingAndGlyphs"
text-anchor="middle" opacity="0">TPL5010</text>
<g class="stroked-text"><desc>TPL5010</desc>
<path d="M29.6225 2.6112
L30.3482 2.6112
" />
<path d="M29.9854 3.8812
L29.9854 2.6112
" />
<path d="M30.7715 3.8812
L30.7715 2.6112
" />
<path d="M30.7715 2.6112
L31.2553 2.6112
" />
<path d="M31.2553 2.6112
L31.3763 2.6717
" />
<path d="M31.3763 2.6717
L31.4368 2.7322
" />
<path d="M31.4368 2.7322
L31.4972 2.8531
" />
<path d="M31.4972 2.8531
L31.4972 3.0346
" />
<path d="M31.4972 3.0346
L31.4368 3.1555
" />
<path d="M31.4368 3.1555
L31.3763 3.2160
" />
<path d="M31.3763 3.2160
L31.2553 3.2765
" />
<path d="M31.2553 3.2765
L30.7715 3.2765
" />
<path d="M32.6463 3.8812
L32.0415 3.8812
" />
<path d="M32.0415 3.8812
L32.0415 2.6112
" />
<path d="M33.6744 2.6112
L33.0696 2.6112
" />
<path d="M33.0696 2.6112
L33.0092 3.2160
" />
<path d="M33.0092 3.2160
L33.0696 3.1555
" />
<path d="M33.0696 3.1555
L33.1906 3.0950
" />
<path d="M33.1906 3.0950
L33.4930 3.0950
" />
<path d="M33.4930 3.0950
L33.6139 3.1555
" />
<path d="M33.6139 3.1555
L33.6744 3.2160
" />
<path d="M33.6744 3.2160
L33.7349 3.3369
" />
<path d="M33.7349 3.3369
L33.7349 3.6393
" />
<path d="M33.7349 3.6393
L33.6744 3.7603
" />
<path d="M33.6744 3.7603
L33.6139 3.8208
" />
<path d="M33.6139 3.8208
L33.4930 3.8812
" />
<path d="M33.4930 3.8812
L33.1906 3.8812
" />
<path d="M33.1906 3.8812
L33.0696 3.8208
" />
<path d="M33.0696 3.8208
L33.0092 3.7603
" />
<path d="M34.5210 2.6112
L34.6420 2.6112
" />
<path d="M34.6420 2.6112
L34.7629 2.6717
" />
<path d="M34.7629 2.6717
L34.8234 2.7322
" />
<path d="M34.8234 2.7322
L34.8839 2.8531
" />
<path d="M34.8839 2.8531
L34.9444 3.0950
" />
<path d="M34.9444 3.0950
L34.9444 3.3974
" />
<path d="M34.9444 3.3974
L34.8839 3.6393
" />
<path d="M34.8839 3.6393
L34.8234 3.7603
" />
<path d="M34.8234 3.7603
L34.7629 3.8208
" />
<path d="M34.7629 3.8208
L34.6420 3.8812
" />
<path d="M34.6420 3.8812
L34.5210 3.8812
" />
<path d="M34.5210 3.8812
L34.4001 3.8208
" />
<path d="M34.4001 3.8208
L34.3396 3.7603
" />
<path d="M34.3396 3.7603
L34.2791 3.6393
" />
<path d="M34.2791 3.6393
L34.2187 3.3974
" />
<path d="M34.2187 3.3974
L34.2187 3.0950
" />
<path d="M34.2187 3.0950
L34.2791 2.8531
" />
<path d="M34.2791 2.8531
L34.3396 2.7322
" />
<path d="M34.3396 2.7322
L34.4001 2.6717
" />
<path d="M34.4001 2.6717
L34.5210 2.6112
" />
<path d="M36.1539 3.8812
L35.4282 3.8812
" />
<path d="M35.7910 3.8812
L35.7910 2.6112
" />
<path d="M35.7910 2.6112
L35.6701 2.7927
" />
<path d="M35.6701 2.7927
L35.5491 2.9136
" />
<path d="M35.5491 2.9136
L35.4282 2.9741
" />
<path d="M36.9400 2.6112
L37.0610 2.6112
" />
<path d="M37.0610 2.6112
L37.1819 2.6717
" />
<path d="M37.1819 2.6717
L37.2424 2.7322
" />
<path d="M37.2424 2.7322
L37.3029 2.8531
" />
<path d="M37.3029 2.8531
L37.3634 3.0950
" />
<path d="M37.3634 3.0950
L37.3634 3.3974
" />
<path d="M37.3634 3.3974
L37.3029 3.6393
" />
<path d="M37.3029 3.6393
L37.2424 3.7603
" />
<path d="M37.2424 3.7603
L37.1819 3.8208
" />
<path d="M37.1819 3.8208
L37.0610 3.8812
" />
<path d="M37.0610 3.8812
L36.9400 3.8812
" />
<path d="M36.9400 3.8812
L36.8191 3.8208
" />
<path d="M36.8191 3.8208
L36.7586 3.7603
" />
<path d="M36.7586 3.7603
L36.6981 3.6393
" />
<path d="M36.6981 3.6393
L36.6377 3.3974
" />
<path d="M36.6377 3.3974
L36.6377 3.0950
" />
<path d="M36.6377 3.0950
L36.6981 2.8531
" />
<path d="M36.6981 2.8531
L36.7586 2.7322
" />
<path d="M36.7586 2.7322
L36.8191 2.6717
" />
<path d="M36.8191 2.6717
L36.9400 2.6112
" />
</g></g> 
</svg>
