<?xml version="1.0" standalone="no"?>
 <!DOCTYPE svg PUBLIC "-//W3C//DTD SVG 1.1//EN" 
 "http://www.w3.org/Graphics/SVG/1.1/DTD/svg11.dtd"> 
<svg
  xmlns:svg="http://www.w3.org/2000/svg"
  xmlns="http://www.w3.org/2000/svg"
  xmlns:xlink="http://www.w3.org/1999/xlink"
  version="1.1"
  width="63.6270mm" height="21.0312mm" viewBox="0.0000 0.0000 63.6270 21.0312">
<title>SVG Image created as nc5fav-da.svg date 2024/01/16 15:09:08 </title>
  <desc>Image generated by Eeschema-SVG </desc>
<g style="fill:#000000; fill-opacity:1.0000;stroke:#000000; stroke-opacity:1.0000;
stroke-linecap:round; stroke-linejoin:round;"
 transform="translate(0 0) scale(1 1)">
</g>
<g style="fill:#840000; fill-opacity:0.0; 
stroke:#840000; stroke-width:0.0000; stroke-opacity:1; 
stroke-linecap:round; stroke-linejoin:round;">
</g>
<g style="fill:#FFFFC2; fill-opacity:0.0; 
stroke:#FFFFC2; stroke-width:0.0000; stroke-opacity:1; 
stroke-linecap:round; stroke-linejoin:round;">
</g>
<g style="fill:#FFFFC2; fill-opacity:1.0000; 
stroke:#FFFFC2; stroke-width:0.0000; stroke-opacity:1; 
stroke-linecap:round; stroke-linejoin:round;">
<circle cx="31.8135" cy="10.5156" r="5.0800" /> 
</g>
<g style="fill:#840084; fill-opacity:1.0000; 
stroke:#840084; stroke-width:0.0000; stroke-opacity:1; 
stroke-linecap:round; stroke-linejoin:round;">
</g>
<g style="fill:#840000; fill-opacity:1.0000; 
stroke:#840000; stroke-width:0.0000; stroke-opacity:1; 
stroke-linecap:round; stroke-linejoin:round;">
</g>
<g style="fill:#840000; fill-opacity:0.0; 
stroke:#840000; stroke-width:0.1524; stroke-opacity:1; 
stroke-linecap:round; stroke-linejoin:round;">
<circle cx="28.2575" cy="10.5156" r="1.0160" /> 
<circle cx="29.5275" cy="13.0556" r="1.0160" /> 
<circle cx="31.8135" cy="14.0716" r="1.0160" /> 
<path style="fill:#840000; fill-opacity:0.0; 
stroke:#840000; stroke-width:0.1524; stroke-opacity:1; 
stroke-linecap:round; stroke-linejoin:round;fill:none"
d="M 26.7335,13.0556
27.3685,13.0556
" /> 
<path style="fill:#840000; fill-opacity:0.0; 
stroke:#840000; stroke-width:0.1524; stroke-opacity:1; 
stroke-linecap:round; stroke-linejoin:round;fill:none"
d="M 26.7335,10.5156
27.2415,10.5156
" /> 
<path style="fill:#840000; fill-opacity:0.0; 
stroke:#840000; stroke-width:0.1524; stroke-opacity:1; 
stroke-linecap:round; stroke-linejoin:round;fill:none"
d="M 27.2415,13.0556
28.5115,13.0556
" /> 
<path style="fill:#840000; fill-opacity:0.0; 
stroke:#840000; stroke-width:0.1524; stroke-opacity:1; 
stroke-linecap:round; stroke-linejoin:round;fill:none"
d="M 29.2735,15.5956
29.2735,14.9606
" /> 
<path style="fill:#840000; fill-opacity:0.0; 
stroke:#840000; stroke-width:0.1524; stroke-opacity:1; 
stroke-linecap:round; stroke-linejoin:round;fill:none"
d="M 31.8135,15.5956
31.8135,15.0876
" /> 
<path style="fill:#840000; fill-opacity:0.0; 
stroke:#840000; stroke-width:0.1524; stroke-opacity:1; 
stroke-linecap:round; stroke-linejoin:round;fill:none"
d="M 36.3855,13.0556
35.1155,13.0556
" /> 
<path style="fill:#840000; fill-opacity:0.0; 
stroke:#840000; stroke-width:0.1524; stroke-opacity:1; 
stroke-linecap:round; stroke-linejoin:round;fill:none"
d="M 36.8935,13.0556
36.2585,13.0556
" /> 
<path style="fill:#840000; fill-opacity:0.0; 
stroke:#840000; stroke-width:0.1524; stroke-opacity:1; 
stroke-linecap:round; stroke-linejoin:round;fill:none"
d="M 36.8935,10.5156
36.3855,10.5156
" /> 
<circle cx="31.8135" cy="10.5156" r="5.0800" /> 
<circle cx="34.0995" cy="13.0556" r="1.0160" /> 
<circle cx="35.3695" cy="10.5156" r="1.0160" /> 
</g>
<g style="fill:#840000; fill-opacity:0.0; 
stroke:#840000; stroke-width:0.2032; stroke-opacity:1; 
stroke-linecap:round; stroke-linejoin:round;">
<text x="28.2575" y="9.2457"
textLength="1.3740" font-size="1.3546" lengthAdjust="spacingAndGlyphs"
text-anchor="middle" opacity="0">1</text>
<g class="stroked-text"><desc>1</desc>
<path d="M28.5477 9.1971
L27.9672 9.1971
" />
<path d="M28.2575 9.1971
L28.2575 8.1811
" />
<path d="M28.2575 8.1811
L28.1607 8.3263
" />
<path d="M28.1607 8.3263
L28.0639 8.4230
" />
<path d="M28.0639 8.4230
L27.9672 8.4714
" />
</g><text x="29.7815" y="11.7857"
textLength="1.3740" font-size="1.3546" lengthAdjust="spacingAndGlyphs"
text-anchor="middle" opacity="0">2</text>
<g class="stroked-text"><desc>2</desc>
<path d="M29.4912 10.8179
L29.5396 10.7695
" />
<path d="M29.5396 10.7695
L29.6363 10.7211
" />
<path d="M29.6363 10.7211
L29.8782 10.7211
" />
<path d="M29.8782 10.7211
L29.9750 10.7695
" />
<path d="M29.9750 10.7695
L30.0234 10.8179
" />
<path d="M30.0234 10.8179
L30.0717 10.9147
" />
<path d="M30.0717 10.9147
L30.0717 11.0114
" />
<path d="M30.0717 11.0114
L30.0234 11.1566
" />
<path d="M30.0234 11.1566
L29.4428 11.7371
" />
<path d="M29.4428 11.7371
L30.0717 11.7371
" />
</g><text x="31.8135" y="12.8017"
textLength="1.3740" font-size="1.3546" lengthAdjust="spacingAndGlyphs"
text-anchor="middle" opacity="0">3</text>
<g class="stroked-text"><desc>3</desc>
<path d="M31.4748 11.7371
L32.1037 11.7371
" />
<path d="M32.1037 11.7371
L31.7651 12.1242
" />
<path d="M31.7651 12.1242
L31.9102 12.1242
" />
<path d="M31.9102 12.1242
L32.0070 12.1726
" />
<path d="M32.0070 12.1726
L32.0554 12.2209
" />
<path d="M32.0554 12.2209
L32.1037 12.3177
" />
<path d="M32.1037 12.3177
L32.1037 12.5596
" />
<path d="M32.1037 12.5596
L32.0554 12.6564
" />
<path d="M32.0554 12.6564
L32.0070 12.7048
" />
<path d="M32.0070 12.7048
L31.9102 12.7531
" />
<path d="M31.9102 12.7531
L31.6199 12.7531
" />
<path d="M31.6199 12.7531
L31.5232 12.7048
" />
<path d="M31.5232 12.7048
L31.4748 12.6564
" />
</g><text x="33.8455" y="11.7857"
textLength="1.3740" font-size="1.3546" lengthAdjust="spacingAndGlyphs"
text-anchor="middle" opacity="0">4</text>
<g class="stroked-text"><desc>4</desc>
<path d="M34.0390 11.0598
L34.0390 11.7371
" />
<path d="M33.7971 10.6728
L33.5552 11.3985
" />
<path d="M33.5552 11.3985
L34.1841 11.3985
" />
</g><text x="35.3695" y="9.2457"
textLength="1.3740" font-size="1.3546" lengthAdjust="spacingAndGlyphs"
text-anchor="middle" opacity="0">5</text>
<g class="stroked-text"><desc>5</desc>
<path d="M35.6114 8.1811
L35.1276 8.1811
" />
<path d="M35.1276 8.1811
L35.0792 8.6649
" />
<path d="M35.0792 8.6649
L35.1276 8.6166
" />
<path d="M35.1276 8.6166
L35.2243 8.5682
" />
<path d="M35.2243 8.5682
L35.4662 8.5682
" />
<path d="M35.4662 8.5682
L35.5630 8.6166
" />
<path d="M35.5630 8.6166
L35.6114 8.6649
" />
<path d="M35.6114 8.6649
L35.6597 8.7617
" />
<path d="M35.6597 8.7617
L35.6597 9.0036
" />
<path d="M35.6597 9.0036
L35.6114 9.1004
" />
<path d="M35.6114 9.1004
L35.5630 9.1488
" />
<path d="M35.5630 9.1488
L35.4662 9.1971
" />
<path d="M35.4662 9.1971
L35.2243 9.1971
" />
<path d="M35.2243 9.1971
L35.1276 9.1488
" />
<path d="M35.1276 9.1488
L35.0792 9.1004
" />
</g></g>
<g style="fill:#840000; fill-opacity:0.0; 
stroke:#840000; stroke-width:0.1524; stroke-opacity:1; 
stroke-linecap:round; stroke-linejoin:round;">
<path d="M26.7335 10.5156
L24.1935 10.5156
" />
</g>
<g style="fill:#A90000; fill-opacity:0.0; 
stroke:#A90000; stroke-width:0.1524; stroke-opacity:1; 
stroke-linecap:round; stroke-linejoin:round;">
<text x="25.4635" y="10.2616"
textLength="1.4127" font-size="1.6933" lengthAdjust="spacingAndGlyphs"
text-anchor="middle" opacity="0">1</text>
<g class="stroked-text"><desc>1</desc>
<path d="M25.8264 10.0981
L25.1007 10.0981
" />
<path d="M25.4635 10.0981
L25.4635 8.8281
" />
<path d="M25.4635 8.8281
L25.3426 9.0096
" />
<path d="M25.3426 9.0096
L25.2216 9.1305
" />
<path d="M25.2216 9.1305
L25.1007 9.1910
" />
</g></g>
<g style="fill:#840000; fill-opacity:0.0; 
stroke:#840000; stroke-width:0.1524; stroke-opacity:1; 
stroke-linecap:round; stroke-linejoin:round;">
<path d="M26.7335 13.0556
L24.1935 13.0556
" />
</g>
<g style="fill:#A90000; fill-opacity:0.0; 
stroke:#A90000; stroke-width:0.1524; stroke-opacity:1; 
stroke-linecap:round; stroke-linejoin:round;">
<text x="25.4635" y="12.8016"
textLength="1.4127" font-size="1.6933" lengthAdjust="spacingAndGlyphs"
text-anchor="middle" opacity="0">2</text>
<g class="stroked-text"><desc>2</desc>
<path d="M25.1007 11.4891
L25.1611 11.4286
" />
<path d="M25.1611 11.4286
L25.2821 11.3681
" />
<path d="M25.2821 11.3681
L25.5845 11.3681
" />
<path d="M25.5845 11.3681
L25.7054 11.4286
" />
<path d="M25.7054 11.4286
L25.7659 11.4891
" />
<path d="M25.7659 11.4891
L25.8264 11.6100
" />
<path d="M25.8264 11.6100
L25.8264 11.7310
" />
<path d="M25.8264 11.7310
L25.7659 11.9124
" />
<path d="M25.7659 11.9124
L25.0402 12.6381
" />
<path d="M25.0402 12.6381
L25.8264 12.6381
" />
</g></g>
<g style="fill:#840000; fill-opacity:0.0; 
stroke:#840000; stroke-width:0.1524; stroke-opacity:1; 
stroke-linecap:round; stroke-linejoin:round;">
<path d="M31.8135 15.5956
L31.8135 18.1356
" />
</g>
<g style="fill:#A90000; fill-opacity:0.0; 
stroke:#A90000; stroke-width:0.1524; stroke-opacity:1; 
stroke-linecap:round; stroke-linejoin:round;">
<g transform="rotate(-90.000000 31.5595 16.8656)">
<text x="31.5595" y="16.8656"
textLength="1.4127" font-size="1.6933" lengthAdjust="spacingAndGlyphs"
text-anchor="middle" opacity="0">3</text>
</g>
<g class="stroked-text"><desc>3</desc>
<path d="M30.1260 17.2888
L30.1260 16.5026
" />
<path d="M30.1260 16.5026
L30.6098 16.9260
" />
<path d="M30.6098 16.9260
L30.6098 16.7445
" />
<path d="M30.6098 16.7445
L30.6703 16.6236
" />
<path d="M30.6703 16.6236
L30.7308 16.5631
" />
<path d="M30.7308 16.5631
L30.8517 16.5026
" />
<path d="M30.8517 16.5026
L31.1541 16.5026
" />
<path d="M31.1541 16.5026
L31.2751 16.5631
" />
<path d="M31.2751 16.5631
L31.3356 16.6236
" />
<path d="M31.3356 16.6236
L31.3960 16.7445
" />
<path d="M31.3960 16.7445
L31.3960 17.1074
" />
<path d="M31.3960 17.1074
L31.3356 17.2283
" />
<path d="M31.3356 17.2283
L31.2751 17.2888
" />
</g></g>
<g style="fill:#840000; fill-opacity:0.0; 
stroke:#840000; stroke-width:0.1524; stroke-opacity:1; 
stroke-linecap:round; stroke-linejoin:round;">
<path d="M36.8935 13.0556
L39.4335 13.0556
" />
</g>
<g style="fill:#A90000; fill-opacity:0.0; 
stroke:#A90000; stroke-width:0.1524; stroke-opacity:1; 
stroke-linecap:round; stroke-linejoin:round;">
<text x="38.1635" y="12.8016"
textLength="1.4127" font-size="1.6933" lengthAdjust="spacingAndGlyphs"
text-anchor="middle" opacity="0">4</text>
<g class="stroked-text"><desc>4</desc>
<path d="M38.4054 11.7915
L38.4054 12.6381
" />
<path d="M38.1030 11.3077
L37.8007 12.2148
" />
<path d="M37.8007 12.2148
L38.5868 12.2148
" />
</g></g>
<g style="fill:#840000; fill-opacity:0.0; 
stroke:#840000; stroke-width:0.1524; stroke-opacity:1; 
stroke-linecap:round; stroke-linejoin:round;">
<path d="M36.8935 10.5156
L39.4335 10.5156
" />
</g>
<g style="fill:#A90000; fill-opacity:0.0; 
stroke:#A90000; stroke-width:0.1524; stroke-opacity:1; 
stroke-linecap:round; stroke-linejoin:round;">
<text x="38.1635" y="10.2616"
textLength="1.4127" font-size="1.6933" lengthAdjust="spacingAndGlyphs"
text-anchor="middle" opacity="0">5</text>
<g class="stroked-text"><desc>5</desc>
<path d="M38.4659 8.8281
L37.8611 8.8281
" />
<path d="M37.8611 8.8281
L37.8007 9.4329
" />
<path d="M37.8007 9.4329
L37.8611 9.3724
" />
<path d="M37.8611 9.3724
L37.9821 9.3119
" />
<path d="M37.9821 9.3119
L38.2845 9.3119
" />
<path d="M38.2845 9.3119
L38.4054 9.3724
" />
<path d="M38.4054 9.3724
L38.4659 9.4329
" />
<path d="M38.4659 9.4329
L38.5264 9.5538
" />
<path d="M38.5264 9.5538
L38.5264 9.8562
" />
<path d="M38.5264 9.8562
L38.4659 9.9772
" />
<path d="M38.4659 9.9772
L38.4054 10.0377
" />
<path d="M38.4054 10.0377
L38.2845 10.0981
" />
<path d="M38.2845 10.0981
L37.9821 10.0981
" />
<path d="M37.9821 10.0981
L37.8611 10.0377
" />
<path d="M37.8611 10.0377
L37.8007 9.9772
" />
</g></g>
<g style="fill:#840000; fill-opacity:0.0; 
stroke:#840000; stroke-width:0.1524; stroke-opacity:1; 
stroke-linecap:round; stroke-linejoin:round;">
<path d="M29.2735 15.5956
L29.2735 18.1356
" />
</g>
<g style="fill:#A90000; fill-opacity:0.0; 
stroke:#A90000; stroke-width:0.1524; stroke-opacity:1; 
stroke-linecap:round; stroke-linejoin:round;">
<g transform="rotate(-90.000000 29.0195 16.8656)">
<text x="29.0195" y="16.8656"
textLength="1.4732" font-size="1.6933" lengthAdjust="spacingAndGlyphs"
text-anchor="middle" opacity="0">G</text>
</g>
<g class="stroked-text"><desc>G</desc>
<path d="M27.6465 16.5329
L27.5860 16.6539
" />
<path d="M27.5860 16.6539
L27.5860 16.8353
" />
<path d="M27.5860 16.8353
L27.6465 17.0167
" />
<path d="M27.6465 17.0167
L27.7675 17.1377
" />
<path d="M27.7675 17.1377
L27.8884 17.1982
" />
<path d="M27.8884 17.1982
L28.1303 17.2586
" />
<path d="M28.1303 17.2586
L28.3117 17.2586
" />
<path d="M28.3117 17.2586
L28.5536 17.1982
" />
<path d="M28.5536 17.1982
L28.6746 17.1377
" />
<path d="M28.6746 17.1377
L28.7956 17.0167
" />
<path d="M28.7956 17.0167
L28.8560 16.8353
" />
<path d="M28.8560 16.8353
L28.8560 16.7144
" />
<path d="M28.8560 16.7144
L28.7956 16.5329
" />
<path d="M28.7956 16.5329
L28.7351 16.4725
" />
<path d="M28.7351 16.4725
L28.3117 16.4725
" />
<path d="M28.3117 16.4725
L28.3117 16.7144
" />
</g></g>
<g style="fill:#840084; fill-opacity:0.0; 
stroke:#840084; stroke-width:0.1524; stroke-opacity:1; 
stroke-linecap:round; stroke-linejoin:round;">
</g>
<g style="fill:#006464; fill-opacity:0.0; 
stroke:#006464; stroke-width:0.1524; stroke-opacity:1; 
stroke-linecap:round; stroke-linejoin:round;">
</g>
<g style="fill:#006464; fill-opacity:0.0; 
stroke:#006464; stroke-width:0.1588; stroke-opacity:1; 
stroke-linecap:round; stroke-linejoin:round;">
<text x="31.8135" y="2.2606"
textLength="2.2786" font-size="1.6933" lengthAdjust="spacingAndGlyphs"
text-anchor="middle" opacity="0">J?</text>
<g class="stroked-text"><desc>J?</desc>
<path d="M31.4506 0.9348
L31.4506 1.8420
" />
<path d="M31.4506 1.8420
L31.3901 2.0234
" />
<path d="M31.3901 2.0234
L31.2692 2.1444
" />
<path d="M31.2692 2.1444
L31.0877 2.2048
" />
<path d="M31.0877 2.2048
L30.9668 2.2048
" />
<path d="M32.2368 2.0839
L32.2972 2.1444
" />
<path d="M32.2972 2.1444
L32.2368 2.2048
" />
<path d="M32.2368 2.2048
L32.1763 2.1444
" />
<path d="M32.1763 2.1444
L32.2368 2.0839
" />
<path d="M32.2368 2.0839
L32.2368 2.2048
" />
<path d="M31.9949 0.9953
L32.1158 0.9348
" />
<path d="M32.1158 0.9348
L32.4182 0.9348
" />
<path d="M32.4182 0.9348
L32.5391 0.9953
" />
<path d="M32.5391 0.9953
L32.5996 1.1163
" />
<path d="M32.5996 1.1163
L32.5996 1.2372
" />
<path d="M32.5996 1.2372
L32.5391 1.3582
" />
<path d="M32.5391 1.3582
L32.4787 1.4186
" />
<path d="M32.4787 1.4186
L32.3577 1.4791
" />
<path d="M32.3577 1.4791
L32.2972 1.5396
" />
<path d="M32.2972 1.5396
L32.2368 1.6605
" />
<path d="M32.2368 1.6605
L32.2368 1.7210
" />
</g><text x="31.8135" y="4.8006"
textLength="11.2292" font-size="1.6933" lengthAdjust="spacingAndGlyphs"
text-anchor="middle" opacity="0">NC5FAV-DA</text>
<g class="stroked-text"><desc>NC5FAV-DA</desc>
<path d="M26.6124 4.7448
L26.6124 3.4748
" />
<path d="M26.6124 3.4748
L27.3381 4.7448
" />
<path d="M27.3381 4.7448
L27.3381 3.4748
" />
<path d="M28.6686 4.6239
L28.6082 4.6844
" />
<path d="M28.6082 4.6844
L28.4267 4.7448
" />
<path d="M28.4267 4.7448
L28.3058 4.7448
" />
<path d="M28.3058 4.7448
L28.1244 4.6844
" />
<path d="M28.1244 4.6844
L28.0034 4.5634
" />
<path d="M28.0034 4.5634
L27.9429 4.4424
" />
<path d="M27.9429 4.4424
L27.8825 4.2005
" />
<path d="M27.8825 4.2005
L27.8825 4.0191
" />
<path d="M27.8825 4.0191
L27.9429 3.7772
" />
<path d="M27.9429 3.7772
L28.0034 3.6563
" />
<path d="M28.0034 3.6563
L28.1244 3.5353
" />
<path d="M28.1244 3.5353
L28.3058 3.4748
" />
<path d="M28.3058 3.4748
L28.4267 3.4748
" />
<path d="M28.4267 3.4748
L28.6082 3.5353
" />
<path d="M28.6082 3.5353
L28.6686 3.5958
" />
<path d="M29.8177 3.4748
L29.2129 3.4748
" />
<path d="M29.2129 3.4748
L29.1525 4.0796
" />
<path d="M29.1525 4.0796
L29.2129 4.0191
" />
<path d="M29.2129 4.0191
L29.3339 3.9586
" />
<path d="M29.3339 3.9586
L29.6363 3.9586
" />
<path d="M29.6363 3.9586
L29.7572 4.0191
" />
<path d="M29.7572 4.0191
L29.8177 4.0796
" />
<path d="M29.8177 4.0796
L29.8782 4.2005
" />
<path d="M29.8782 4.2005
L29.8782 4.5029
" />
<path d="M29.8782 4.5029
L29.8177 4.6239
" />
<path d="M29.8177 4.6239
L29.7572 4.6844
" />
<path d="M29.7572 4.6844
L29.6363 4.7448
" />
<path d="M29.6363 4.7448
L29.3339 4.7448
" />
<path d="M29.3339 4.7448
L29.2129 4.6844
" />
<path d="M29.2129 4.6844
L29.1525 4.6239
" />
<path d="M30.8458 4.0796
L30.4224 4.0796
" />
<path d="M30.4224 4.7448
L30.4224 3.4748
" />
<path d="M30.4224 3.4748
L31.0272 3.4748
" />
<path d="M31.4506 4.3820
L32.0553 4.3820
" />
<path d="M31.3296 4.7448
L31.7529 3.4748
" />
<path d="M31.7529 3.4748
L32.1763 4.7448
" />
<path d="M32.4182 3.4748
L32.8415 4.7448
" />
<path d="M32.8415 4.7448
L33.2649 3.4748
" />
<path d="M33.6882 4.2610
L34.6559 4.2610
" />
<path d="M35.2606 4.7448
L35.2606 3.4748
" />
<path d="M35.2606 3.4748
L35.5630 3.4748
" />
<path d="M35.5630 3.4748
L35.7444 3.5353
" />
<path d="M35.7444 3.5353
L35.8654 3.6563
" />
<path d="M35.8654 3.6563
L35.9259 3.7772
" />
<path d="M35.9259 3.7772
L35.9863 4.0191
" />
<path d="M35.9863 4.0191
L35.9863 4.2005
" />
<path d="M35.9863 4.2005
L35.9259 4.4424
" />
<path d="M35.9259 4.4424
L35.8654 4.5634
" />
<path d="M35.8654 4.5634
L35.7444 4.6844
" />
<path d="M35.7444 4.6844
L35.5630 4.7448
" />
<path d="M35.5630 4.7448
L35.2606 4.7448
" />
<path d="M36.4702 4.3820
L37.0749 4.3820
" />
<path d="M36.3492 4.7448
L36.7725 3.4748
" />
<path d="M36.7725 3.4748
L37.1959 4.7448
" />
</g></g> 
</svg>
