<?xml version="1.0" standalone="no"?>
 <!DOCTYPE svg PUBLIC "-//W3C//DTD SVG 1.1//EN" 
 "http://www.w3.org/Graphics/SVG/1.1/DTD/svg11.dtd"> 
<svg
  xmlns:svg="http://www.w3.org/2000/svg"
  xmlns="http://www.w3.org/2000/svg"
  xmlns:xlink="http://www.w3.org/1999/xlink"
  version="1.1"
  width="23.6982mm" height="54.2798mm" viewBox="0.0000 0.0000 23.6982 54.2798">
<title>SVG Image created as din41612_02x16_zb.svg date 2024/01/16 15:18:19 </title>
  <desc>Image generated by Eeschema-SVG </desc>
<g style="fill:#000000; fill-opacity:1.0000;stroke:#000000; stroke-opacity:1.0000;
stroke-linecap:round; stroke-linejoin:round;"
 transform="translate(0 0) scale(1 1)">
</g>
<g style="fill:#000000; fill-opacity:0.0; 
stroke:#000000; stroke-width:0.0000; stroke-opacity:1; 
stroke-linecap:round; stroke-linejoin:round;">
</g>
<g style="fill:#000000; fill-opacity:0.0; 
stroke:#000000; stroke-width:0.1524; stroke-opacity:1; 
stroke-linecap:round; stroke-linejoin:round;">
<rect x="10.579100" y="47.332900" width="1.270000" height="0.254000" rx="0.000000" />
<rect x="10.579100" y="44.792900" width="1.270000" height="0.254000" rx="0.000000" />
<rect x="10.579100" y="42.252900" width="1.270000" height="0.254000" rx="0.000000" />
<rect x="10.579100" y="39.712900" width="1.270000" height="0.254000" rx="0.000000" />
<rect x="10.579100" y="37.172900" width="1.270000" height="0.254000" rx="0.000000" />
<rect x="10.579100" y="34.632900" width="1.270000" height="0.254000" rx="0.000000" />
<rect x="10.579100" y="32.092900" width="1.270000" height="0.254000" rx="0.000000" />
<rect x="10.579100" y="29.552900" width="1.270000" height="0.254000" rx="0.000000" />
<rect x="10.579100" y="27.012900" width="1.270000" height="0.254000" rx="0.000000" />
<rect x="10.579100" y="24.472900" width="1.270000" height="0.254000" rx="0.000000" />
<rect x="10.579100" y="21.932900" width="1.270000" height="0.254000" rx="0.000000" />
<rect x="10.579100" y="19.392900" width="1.270000" height="0.254000" rx="0.000000" />
<rect x="10.579100" y="16.852900" width="1.270000" height="0.254000" rx="0.000000" />
<rect x="10.579100" y="14.312900" width="1.270000" height="0.254000" rx="0.000000" />
<rect x="10.579100" y="11.772900" width="1.270000" height="0.254000" rx="0.000000" />
<rect x="10.579100" y="9.232900" width="1.270000" height="0.254000" rx="0.000000" />
</g>
<g style="fill:#000000; fill-opacity:0.0; 
stroke:#000000; stroke-width:0.2540; stroke-opacity:1; 
stroke-linecap:round; stroke-linejoin:round;">
<rect x="10.579100" y="8.089900" width="5.080000" height="40.640000" rx="0.000000" />
</g>
<g style="fill:#000000; fill-opacity:0.0; 
stroke:#000000; stroke-width:0.1524; stroke-opacity:1; 
stroke-linecap:round; stroke-linejoin:round;">
<rect x="14.389100" y="47.332900" width="1.270000" height="0.254000" rx="0.000000" />
<rect x="14.389100" y="44.792900" width="1.270000" height="0.254000" rx="0.000000" />
<rect x="14.389100" y="42.252900" width="1.270000" height="0.254000" rx="0.000000" />
<rect x="14.389100" y="39.712900" width="1.270000" height="0.254000" rx="0.000000" />
<rect x="14.389100" y="37.172900" width="1.270000" height="0.254000" rx="0.000000" />
<rect x="14.389100" y="34.632900" width="1.270000" height="0.254000" rx="0.000000" />
<rect x="14.389100" y="32.092900" width="1.270000" height="0.254000" rx="0.000000" />
<rect x="14.389100" y="29.552900" width="1.270000" height="0.254000" rx="0.000000" />
<rect x="14.389100" y="27.012900" width="1.270000" height="0.254000" rx="0.000000" />
<rect x="14.389100" y="24.472900" width="1.270000" height="0.254000" rx="0.000000" />
<rect x="14.389100" y="21.932900" width="1.270000" height="0.254000" rx="0.000000" />
<rect x="14.389100" y="19.392900" width="1.270000" height="0.254000" rx="0.000000" />
<rect x="14.389100" y="16.852900" width="1.270000" height="0.254000" rx="0.000000" />
<rect x="14.389100" y="14.312900" width="1.270000" height="0.254000" rx="0.000000" />
<rect x="14.389100" y="11.772900" width="1.270000" height="0.254000" rx="0.000000" />
<rect x="14.389100" y="9.232900" width="1.270000" height="0.254000" rx="0.000000" />
<path d="M15.6591 9.3599
L19.4691 9.3599
" />
<text x="17.5641" y="9.1059"
textLength="2.5617" font-size="1.6933" lengthAdjust="spacingAndGlyphs"
text-anchor="middle" opacity="0">b1</text>
<g class="stroked-text"><desc>b1</desc>
<path d="M16.6872 8.9424
L16.6872 7.6724
" />
<path d="M16.6872 8.1562
L16.8082 8.0958
" />
<path d="M16.8082 8.0958
L17.0501 8.0958
" />
<path d="M17.0501 8.0958
L17.1710 8.1562
" />
<path d="M17.1710 8.1562
L17.2315 8.2167
" />
<path d="M17.2315 8.2167
L17.2920 8.3377
" />
<path d="M17.2920 8.3377
L17.2920 8.7005
" />
<path d="M17.2920 8.7005
L17.2315 8.8215
" />
<path d="M17.2315 8.8215
L17.1710 8.8820
" />
<path d="M17.1710 8.8820
L17.0501 8.9424
" />
<path d="M17.0501 8.9424
L16.8082 8.9424
" />
<path d="M16.8082 8.9424
L16.6872 8.8820
" />
<path d="M18.5015 8.9424
L17.7758 8.9424
" />
<path d="M18.1386 8.9424
L18.1386 7.6724
" />
<path d="M18.1386 7.6724
L18.0177 7.8539
" />
<path d="M18.0177 7.8539
L17.8967 7.9748
" />
<path d="M17.8967 7.9748
L17.7758 8.0353
" />
</g><path d="M15.6591 32.2199
L19.4691 32.2199
" />
<text x="17.5641" y="31.9659"
textLength="3.7712" font-size="1.6933" lengthAdjust="spacingAndGlyphs"
text-anchor="middle" opacity="0">b10</text>
<g class="stroked-text"><desc>b10</desc>
<path d="M16.0824 31.8024
L16.0824 30.5324
" />
<path d="M16.0824 31.0162
L16.2034 30.9558
" />
<path d="M16.2034 30.9558
L16.4453 30.9558
" />
<path d="M16.4453 30.9558
L16.5662 31.0162
" />
<path d="M16.5662 31.0162
L16.6267 31.0767
" />
<path d="M16.6267 31.0767
L16.6872 31.1977
" />
<path d="M16.6872 31.1977
L16.6872 31.5605
" />
<path d="M16.6872 31.5605
L16.6267 31.6815
" />
<path d="M16.6267 31.6815
L16.5662 31.7420
" />
<path d="M16.5662 31.7420
L16.4453 31.8024
" />
<path d="M16.4453 31.8024
L16.2034 31.8024
" />
<path d="M16.2034 31.8024
L16.0824 31.7420
" />
<path d="M17.8967 31.8024
L17.1710 31.8024
" />
<path d="M17.5338 31.8024
L17.5338 30.5324
" />
<path d="M17.5338 30.5324
L17.4129 30.7139
" />
<path d="M17.4129 30.7139
L17.2919 30.8348
" />
<path d="M17.2919 30.8348
L17.1710 30.8953
" />
<path d="M18.6828 30.5324
L18.8038 30.5324
" />
<path d="M18.8038 30.5324
L18.9247 30.5929
" />
<path d="M18.9247 30.5929
L18.9852 30.6534
" />
<path d="M18.9852 30.6534
L19.0457 30.7743
" />
<path d="M19.0457 30.7743
L19.1062 31.0162
" />
<path d="M19.1062 31.0162
L19.1062 31.3186
" />
<path d="M19.1062 31.3186
L19.0457 31.5605
" />
<path d="M19.0457 31.5605
L18.9852 31.6815
" />
<path d="M18.9852 31.6815
L18.9247 31.7420
" />
<path d="M18.9247 31.7420
L18.8038 31.8024
" />
<path d="M18.8038 31.8024
L18.6828 31.8024
" />
<path d="M18.6828 31.8024
L18.5619 31.7420
" />
<path d="M18.5619 31.7420
L18.5014 31.6815
" />
<path d="M18.5014 31.6815
L18.4409 31.5605
" />
<path d="M18.4409 31.5605
L18.3805 31.3186
" />
<path d="M18.3805 31.3186
L18.3805 31.0162
" />
<path d="M18.3805 31.0162
L18.4409 30.7743
" />
<path d="M18.4409 30.7743
L18.5014 30.6534
" />
<path d="M18.5014 30.6534
L18.5619 30.5929
" />
<path d="M18.5619 30.5929
L18.6828 30.5324
" />
</g><path d="M15.6591 34.7599
L19.4691 34.7599
" />
<text x="17.5641" y="34.5059"
textLength="3.7712" font-size="1.6933" lengthAdjust="spacingAndGlyphs"
text-anchor="middle" opacity="0">b11</text>
<g class="stroked-text"><desc>b11</desc>
<path d="M16.0824 34.3424
L16.0824 33.0724
" />
<path d="M16.0824 33.5562
L16.2034 33.4958
" />
<path d="M16.2034 33.4958
L16.4453 33.4958
" />
<path d="M16.4453 33.4958
L16.5662 33.5562
" />
<path d="M16.5662 33.5562
L16.6267 33.6167
" />
<path d="M16.6267 33.6167
L16.6872 33.7377
" />
<path d="M16.6872 33.7377
L16.6872 34.1005
" />
<path d="M16.6872 34.1005
L16.6267 34.2215
" />
<path d="M16.6267 34.2215
L16.5662 34.2820
" />
<path d="M16.5662 34.2820
L16.4453 34.3424
" />
<path d="M16.4453 34.3424
L16.2034 34.3424
" />
<path d="M16.2034 34.3424
L16.0824 34.2820
" />
<path d="M17.8967 34.3424
L17.1710 34.3424
" />
<path d="M17.5338 34.3424
L17.5338 33.0724
" />
<path d="M17.5338 33.0724
L17.4129 33.2539
" />
<path d="M17.4129 33.2539
L17.2919 33.3748
" />
<path d="M17.2919 33.3748
L17.1710 33.4353
" />
<path d="M19.1062 34.3424
L18.3805 34.3424
" />
<path d="M18.7433 34.3424
L18.7433 33.0724
" />
<path d="M18.7433 33.0724
L18.6224 33.2539
" />
<path d="M18.6224 33.2539
L18.5014 33.3748
" />
<path d="M18.5014 33.3748
L18.3805 33.4353
" />
</g><path d="M15.6591 37.2999
L19.4691 37.2999
" />
<text x="17.5641" y="37.0459"
textLength="3.7712" font-size="1.6933" lengthAdjust="spacingAndGlyphs"
text-anchor="middle" opacity="0">b12</text>
<g class="stroked-text"><desc>b12</desc>
<path d="M16.0824 36.8824
L16.0824 35.6124
" />
<path d="M16.0824 36.0962
L16.2034 36.0358
" />
<path d="M16.2034 36.0358
L16.4453 36.0358
" />
<path d="M16.4453 36.0358
L16.5662 36.0962
" />
<path d="M16.5662 36.0962
L16.6267 36.1567
" />
<path d="M16.6267 36.1567
L16.6872 36.2777
" />
<path d="M16.6872 36.2777
L16.6872 36.6405
" />
<path d="M16.6872 36.6405
L16.6267 36.7615
" />
<path d="M16.6267 36.7615
L16.5662 36.8220
" />
<path d="M16.5662 36.8220
L16.4453 36.8824
" />
<path d="M16.4453 36.8824
L16.2034 36.8824
" />
<path d="M16.2034 36.8824
L16.0824 36.8220
" />
<path d="M17.8967 36.8824
L17.1710 36.8824
" />
<path d="M17.5338 36.8824
L17.5338 35.6124
" />
<path d="M17.5338 35.6124
L17.4129 35.7939
" />
<path d="M17.4129 35.7939
L17.2919 35.9148
" />
<path d="M17.2919 35.9148
L17.1710 35.9753
" />
<path d="M18.3805 35.7334
L18.4409 35.6729
" />
<path d="M18.4409 35.6729
L18.5619 35.6124
" />
<path d="M18.5619 35.6124
L18.8643 35.6124
" />
<path d="M18.8643 35.6124
L18.9852 35.6729
" />
<path d="M18.9852 35.6729
L19.0457 35.7334
" />
<path d="M19.0457 35.7334
L19.1062 35.8543
" />
<path d="M19.1062 35.8543
L19.1062 35.9753
" />
<path d="M19.1062 35.9753
L19.0457 36.1567
" />
<path d="M19.0457 36.1567
L18.3200 36.8824
" />
<path d="M18.3200 36.8824
L19.1062 36.8824
" />
</g><path d="M15.6591 39.8399
L19.4691 39.8399
" />
<text x="17.5641" y="39.5859"
textLength="3.7712" font-size="1.6933" lengthAdjust="spacingAndGlyphs"
text-anchor="middle" opacity="0">b13</text>
<g class="stroked-text"><desc>b13</desc>
<path d="M16.0824 39.4224
L16.0824 38.1524
" />
<path d="M16.0824 38.6362
L16.2034 38.5758
" />
<path d="M16.2034 38.5758
L16.4453 38.5758
" />
<path d="M16.4453 38.5758
L16.5662 38.6362
" />
<path d="M16.5662 38.6362
L16.6267 38.6967
" />
<path d="M16.6267 38.6967
L16.6872 38.8177
" />
<path d="M16.6872 38.8177
L16.6872 39.1805
" />
<path d="M16.6872 39.1805
L16.6267 39.3015
" />
<path d="M16.6267 39.3015
L16.5662 39.3620
" />
<path d="M16.5662 39.3620
L16.4453 39.4224
" />
<path d="M16.4453 39.4224
L16.2034 39.4224
" />
<path d="M16.2034 39.4224
L16.0824 39.3620
" />
<path d="M17.8967 39.4224
L17.1710 39.4224
" />
<path d="M17.5338 39.4224
L17.5338 38.1524
" />
<path d="M17.5338 38.1524
L17.4129 38.3339
" />
<path d="M17.4129 38.3339
L17.2919 38.4548
" />
<path d="M17.2919 38.4548
L17.1710 38.5153
" />
<path d="M18.3200 38.1524
L19.1062 38.1524
" />
<path d="M19.1062 38.1524
L18.6828 38.6362
" />
<path d="M18.6828 38.6362
L18.8643 38.6362
" />
<path d="M18.8643 38.6362
L18.9852 38.6967
" />
<path d="M18.9852 38.6967
L19.0457 38.7572
" />
<path d="M19.0457 38.7572
L19.1062 38.8781
" />
<path d="M19.1062 38.8781
L19.1062 39.1805
" />
<path d="M19.1062 39.1805
L19.0457 39.3015
" />
<path d="M19.0457 39.3015
L18.9852 39.3620
" />
<path d="M18.9852 39.3620
L18.8643 39.4224
" />
<path d="M18.8643 39.4224
L18.5014 39.4224
" />
<path d="M18.5014 39.4224
L18.3805 39.3620
" />
<path d="M18.3805 39.3620
L18.3200 39.3015
" />
</g><path d="M15.6591 42.3799
L19.4691 42.3799
" />
<text x="17.5641" y="42.1259"
textLength="3.7712" font-size="1.6933" lengthAdjust="spacingAndGlyphs"
text-anchor="middle" opacity="0">b14</text>
<g class="stroked-text"><desc>b14</desc>
<path d="M16.0824 41.9624
L16.0824 40.6924
" />
<path d="M16.0824 41.1762
L16.2034 41.1158
" />
<path d="M16.2034 41.1158
L16.4453 41.1158
" />
<path d="M16.4453 41.1158
L16.5662 41.1762
" />
<path d="M16.5662 41.1762
L16.6267 41.2367
" />
<path d="M16.6267 41.2367
L16.6872 41.3577
" />
<path d="M16.6872 41.3577
L16.6872 41.7205
" />
<path d="M16.6872 41.7205
L16.6267 41.8415
" />
<path d="M16.6267 41.8415
L16.5662 41.9020
" />
<path d="M16.5662 41.9020
L16.4453 41.9624
" />
<path d="M16.4453 41.9624
L16.2034 41.9624
" />
<path d="M16.2034 41.9624
L16.0824 41.9020
" />
<path d="M17.8967 41.9624
L17.1710 41.9624
" />
<path d="M17.5338 41.9624
L17.5338 40.6924
" />
<path d="M17.5338 40.6924
L17.4129 40.8739
" />
<path d="M17.4129 40.8739
L17.2919 40.9948
" />
<path d="M17.2919 40.9948
L17.1710 41.0553
" />
<path d="M18.9852 41.1158
L18.9852 41.9624
" />
<path d="M18.6828 40.6320
L18.3805 41.5391
" />
<path d="M18.3805 41.5391
L19.1666 41.5391
" />
</g><path d="M15.6591 44.9199
L19.4691 44.9199
" />
<text x="17.5641" y="44.6659"
textLength="3.7712" font-size="1.6933" lengthAdjust="spacingAndGlyphs"
text-anchor="middle" opacity="0">b15</text>
<g class="stroked-text"><desc>b15</desc>
<path d="M16.0824 44.5024
L16.0824 43.2324
" />
<path d="M16.0824 43.7162
L16.2034 43.6558
" />
<path d="M16.2034 43.6558
L16.4453 43.6558
" />
<path d="M16.4453 43.6558
L16.5662 43.7162
" />
<path d="M16.5662 43.7162
L16.6267 43.7767
" />
<path d="M16.6267 43.7767
L16.6872 43.8977
" />
<path d="M16.6872 43.8977
L16.6872 44.2605
" />
<path d="M16.6872 44.2605
L16.6267 44.3815
" />
<path d="M16.6267 44.3815
L16.5662 44.4420
" />
<path d="M16.5662 44.4420
L16.4453 44.5024
" />
<path d="M16.4453 44.5024
L16.2034 44.5024
" />
<path d="M16.2034 44.5024
L16.0824 44.4420
" />
<path d="M17.8967 44.5024
L17.1710 44.5024
" />
<path d="M17.5338 44.5024
L17.5338 43.2324
" />
<path d="M17.5338 43.2324
L17.4129 43.4139
" />
<path d="M17.4129 43.4139
L17.2919 43.5348
" />
<path d="M17.2919 43.5348
L17.1710 43.5953
" />
<path d="M19.0457 43.2324
L18.4409 43.2324
" />
<path d="M18.4409 43.2324
L18.3805 43.8372
" />
<path d="M18.3805 43.8372
L18.4409 43.7767
" />
<path d="M18.4409 43.7767
L18.5619 43.7162
" />
<path d="M18.5619 43.7162
L18.8643 43.7162
" />
<path d="M18.8643 43.7162
L18.9852 43.7767
" />
<path d="M18.9852 43.7767
L19.0457 43.8372
" />
<path d="M19.0457 43.8372
L19.1062 43.9581
" />
<path d="M19.1062 43.9581
L19.1062 44.2605
" />
<path d="M19.1062 44.2605
L19.0457 44.3815
" />
<path d="M19.0457 44.3815
L18.9852 44.4420
" />
<path d="M18.9852 44.4420
L18.8643 44.5024
" />
<path d="M18.8643 44.5024
L18.5619 44.5024
" />
<path d="M18.5619 44.5024
L18.4409 44.4420
" />
<path d="M18.4409 44.4420
L18.3805 44.3815
" />
</g><path d="M15.6591 47.4599
L19.4691 47.4599
" />
<text x="17.5641" y="47.2059"
textLength="3.7712" font-size="1.6933" lengthAdjust="spacingAndGlyphs"
text-anchor="middle" opacity="0">b16</text>
<g class="stroked-text"><desc>b16</desc>
<path d="M16.0824 47.0424
L16.0824 45.7724
" />
<path d="M16.0824 46.2562
L16.2034 46.1958
" />
<path d="M16.2034 46.1958
L16.4453 46.1958
" />
<path d="M16.4453 46.1958
L16.5662 46.2562
" />
<path d="M16.5662 46.2562
L16.6267 46.3167
" />
<path d="M16.6267 46.3167
L16.6872 46.4377
" />
<path d="M16.6872 46.4377
L16.6872 46.8005
" />
<path d="M16.6872 46.8005
L16.6267 46.9215
" />
<path d="M16.6267 46.9215
L16.5662 46.9820
" />
<path d="M16.5662 46.9820
L16.4453 47.0424
" />
<path d="M16.4453 47.0424
L16.2034 47.0424
" />
<path d="M16.2034 47.0424
L16.0824 46.9820
" />
<path d="M17.8967 47.0424
L17.1710 47.0424
" />
<path d="M17.5338 47.0424
L17.5338 45.7724
" />
<path d="M17.5338 45.7724
L17.4129 45.9539
" />
<path d="M17.4129 45.9539
L17.2919 46.0748
" />
<path d="M17.2919 46.0748
L17.1710 46.1353
" />
<path d="M18.9852 45.7724
L18.7433 45.7724
" />
<path d="M18.7433 45.7724
L18.6224 45.8329
" />
<path d="M18.6224 45.8329
L18.5619 45.8934
" />
<path d="M18.5619 45.8934
L18.4409 46.0748
" />
<path d="M18.4409 46.0748
L18.3805 46.3167
" />
<path d="M18.3805 46.3167
L18.3805 46.8005
" />
<path d="M18.3805 46.8005
L18.4409 46.9215
" />
<path d="M18.4409 46.9215
L18.5014 46.9820
" />
<path d="M18.5014 46.9820
L18.6224 47.0424
" />
<path d="M18.6224 47.0424
L18.8643 47.0424
" />
<path d="M18.8643 47.0424
L18.9852 46.9820
" />
<path d="M18.9852 46.9820
L19.0457 46.9215
" />
<path d="M19.0457 46.9215
L19.1062 46.8005
" />
<path d="M19.1062 46.8005
L19.1062 46.4981
" />
<path d="M19.1062 46.4981
L19.0457 46.3772
" />
<path d="M19.0457 46.3772
L18.9852 46.3167
" />
<path d="M18.9852 46.3167
L18.8643 46.2562
" />
<path d="M18.8643 46.2562
L18.6224 46.2562
" />
<path d="M18.6224 46.2562
L18.5014 46.3167
" />
<path d="M18.5014 46.3167
L18.4409 46.3772
" />
<path d="M18.4409 46.3772
L18.3805 46.4981
" />
</g><path d="M15.6591 11.8999
L19.4691 11.8999
" />
<text x="17.5641" y="11.6459"
textLength="2.5617" font-size="1.6933" lengthAdjust="spacingAndGlyphs"
text-anchor="middle" opacity="0">b2</text>
<g class="stroked-text"><desc>b2</desc>
<path d="M16.6872 11.4824
L16.6872 10.2124
" />
<path d="M16.6872 10.6962
L16.8082 10.6358
" />
<path d="M16.8082 10.6358
L17.0501 10.6358
" />
<path d="M17.0501 10.6358
L17.1710 10.6962
" />
<path d="M17.1710 10.6962
L17.2315 10.7567
" />
<path d="M17.2315 10.7567
L17.2920 10.8777
" />
<path d="M17.2920 10.8777
L17.2920 11.2405
" />
<path d="M17.2920 11.2405
L17.2315 11.3615
" />
<path d="M17.2315 11.3615
L17.1710 11.4220
" />
<path d="M17.1710 11.4220
L17.0501 11.4824
" />
<path d="M17.0501 11.4824
L16.8082 11.4824
" />
<path d="M16.8082 11.4824
L16.6872 11.4220
" />
<path d="M17.7758 10.3334
L17.8362 10.2729
" />
<path d="M17.8362 10.2729
L17.9572 10.2124
" />
<path d="M17.9572 10.2124
L18.2596 10.2124
" />
<path d="M18.2596 10.2124
L18.3805 10.2729
" />
<path d="M18.3805 10.2729
L18.4410 10.3334
" />
<path d="M18.4410 10.3334
L18.5015 10.4543
" />
<path d="M18.5015 10.4543
L18.5015 10.5753
" />
<path d="M18.5015 10.5753
L18.4410 10.7567
" />
<path d="M18.4410 10.7567
L17.7153 11.4824
" />
<path d="M17.7153 11.4824
L18.5015 11.4824
" />
</g><path d="M15.6591 14.4399
L19.4691 14.4399
" />
<text x="17.5641" y="14.1859"
textLength="2.5617" font-size="1.6933" lengthAdjust="spacingAndGlyphs"
text-anchor="middle" opacity="0">b3</text>
<g class="stroked-text"><desc>b3</desc>
<path d="M16.6872 14.0224
L16.6872 12.7524
" />
<path d="M16.6872 13.2362
L16.8082 13.1758
" />
<path d="M16.8082 13.1758
L17.0501 13.1758
" />
<path d="M17.0501 13.1758
L17.1710 13.2362
" />
<path d="M17.1710 13.2362
L17.2315 13.2967
" />
<path d="M17.2315 13.2967
L17.2920 13.4177
" />
<path d="M17.2920 13.4177
L17.2920 13.7805
" />
<path d="M17.2920 13.7805
L17.2315 13.9015
" />
<path d="M17.2315 13.9015
L17.1710 13.9620
" />
<path d="M17.1710 13.9620
L17.0501 14.0224
" />
<path d="M17.0501 14.0224
L16.8082 14.0224
" />
<path d="M16.8082 14.0224
L16.6872 13.9620
" />
<path d="M17.7153 12.7524
L18.5015 12.7524
" />
<path d="M18.5015 12.7524
L18.0781 13.2362
" />
<path d="M18.0781 13.2362
L18.2596 13.2362
" />
<path d="M18.2596 13.2362
L18.3805 13.2967
" />
<path d="M18.3805 13.2967
L18.4410 13.3572
" />
<path d="M18.4410 13.3572
L18.5015 13.4781
" />
<path d="M18.5015 13.4781
L18.5015 13.7805
" />
<path d="M18.5015 13.7805
L18.4410 13.9015
" />
<path d="M18.4410 13.9015
L18.3805 13.9620
" />
<path d="M18.3805 13.9620
L18.2596 14.0224
" />
<path d="M18.2596 14.0224
L17.8967 14.0224
" />
<path d="M17.8967 14.0224
L17.7758 13.9620
" />
<path d="M17.7758 13.9620
L17.7153 13.9015
" />
</g><path d="M15.6591 16.9799
L19.4691 16.9799
" />
<text x="17.5641" y="16.7259"
textLength="2.5617" font-size="1.6933" lengthAdjust="spacingAndGlyphs"
text-anchor="middle" opacity="0">b4</text>
<g class="stroked-text"><desc>b4</desc>
<path d="M16.6872 16.5624
L16.6872 15.2924
" />
<path d="M16.6872 15.7762
L16.8082 15.7158
" />
<path d="M16.8082 15.7158
L17.0501 15.7158
" />
<path d="M17.0501 15.7158
L17.1710 15.7762
" />
<path d="M17.1710 15.7762
L17.2315 15.8367
" />
<path d="M17.2315 15.8367
L17.2920 15.9577
" />
<path d="M17.2920 15.9577
L17.2920 16.3205
" />
<path d="M17.2920 16.3205
L17.2315 16.4415
" />
<path d="M17.2315 16.4415
L17.1710 16.5020
" />
<path d="M17.1710 16.5020
L17.0501 16.5624
" />
<path d="M17.0501 16.5624
L16.8082 16.5624
" />
<path d="M16.8082 16.5624
L16.6872 16.5020
" />
<path d="M18.3805 15.7158
L18.3805 16.5624
" />
<path d="M18.0781 15.2320
L17.7758 16.1391
" />
<path d="M17.7758 16.1391
L18.5619 16.1391
" />
</g><path d="M15.6591 19.5199
L19.4691 19.5199
" />
<text x="17.5641" y="19.2659"
textLength="2.5617" font-size="1.6933" lengthAdjust="spacingAndGlyphs"
text-anchor="middle" opacity="0">b5</text>
<g class="stroked-text"><desc>b5</desc>
<path d="M16.6872 19.1024
L16.6872 17.8324
" />
<path d="M16.6872 18.3162
L16.8082 18.2558
" />
<path d="M16.8082 18.2558
L17.0501 18.2558
" />
<path d="M17.0501 18.2558
L17.1710 18.3162
" />
<path d="M17.1710 18.3162
L17.2315 18.3767
" />
<path d="M17.2315 18.3767
L17.2920 18.4977
" />
<path d="M17.2920 18.4977
L17.2920 18.8605
" />
<path d="M17.2920 18.8605
L17.2315 18.9815
" />
<path d="M17.2315 18.9815
L17.1710 19.0420
" />
<path d="M17.1710 19.0420
L17.0501 19.1024
" />
<path d="M17.0501 19.1024
L16.8082 19.1024
" />
<path d="M16.8082 19.1024
L16.6872 19.0420
" />
<path d="M18.4410 17.8324
L17.8362 17.8324
" />
<path d="M17.8362 17.8324
L17.7758 18.4372
" />
<path d="M17.7758 18.4372
L17.8362 18.3767
" />
<path d="M17.8362 18.3767
L17.9572 18.3162
" />
<path d="M17.9572 18.3162
L18.2596 18.3162
" />
<path d="M18.2596 18.3162
L18.3805 18.3767
" />
<path d="M18.3805 18.3767
L18.4410 18.4372
" />
<path d="M18.4410 18.4372
L18.5015 18.5581
" />
<path d="M18.5015 18.5581
L18.5015 18.8605
" />
<path d="M18.5015 18.8605
L18.4410 18.9815
" />
<path d="M18.4410 18.9815
L18.3805 19.0420
" />
<path d="M18.3805 19.0420
L18.2596 19.1024
" />
<path d="M18.2596 19.1024
L17.9572 19.1024
" />
<path d="M17.9572 19.1024
L17.8362 19.0420
" />
<path d="M17.8362 19.0420
L17.7758 18.9815
" />
</g><path d="M15.6591 22.0599
L19.4691 22.0599
" />
<text x="17.5641" y="21.8059"
textLength="2.5617" font-size="1.6933" lengthAdjust="spacingAndGlyphs"
text-anchor="middle" opacity="0">b6</text>
<g class="stroked-text"><desc>b6</desc>
<path d="M16.6872 21.6424
L16.6872 20.3724
" />
<path d="M16.6872 20.8562
L16.8082 20.7958
" />
<path d="M16.8082 20.7958
L17.0501 20.7958
" />
<path d="M17.0501 20.7958
L17.1710 20.8562
" />
<path d="M17.1710 20.8562
L17.2315 20.9167
" />
<path d="M17.2315 20.9167
L17.2920 21.0377
" />
<path d="M17.2920 21.0377
L17.2920 21.4005
" />
<path d="M17.2920 21.4005
L17.2315 21.5215
" />
<path d="M17.2315 21.5215
L17.1710 21.5820
" />
<path d="M17.1710 21.5820
L17.0501 21.6424
" />
<path d="M17.0501 21.6424
L16.8082 21.6424
" />
<path d="M16.8082 21.6424
L16.6872 21.5820
" />
<path d="M18.3805 20.3724
L18.1386 20.3724
" />
<path d="M18.1386 20.3724
L18.0177 20.4329
" />
<path d="M18.0177 20.4329
L17.9572 20.4934
" />
<path d="M17.9572 20.4934
L17.8362 20.6748
" />
<path d="M17.8362 20.6748
L17.7758 20.9167
" />
<path d="M17.7758 20.9167
L17.7758 21.4005
" />
<path d="M17.7758 21.4005
L17.8362 21.5215
" />
<path d="M17.8362 21.5215
L17.8967 21.5820
" />
<path d="M17.8967 21.5820
L18.0177 21.6424
" />
<path d="M18.0177 21.6424
L18.2596 21.6424
" />
<path d="M18.2596 21.6424
L18.3805 21.5820
" />
<path d="M18.3805 21.5820
L18.4410 21.5215
" />
<path d="M18.4410 21.5215
L18.5015 21.4005
" />
<path d="M18.5015 21.4005
L18.5015 21.0981
" />
<path d="M18.5015 21.0981
L18.4410 20.9772
" />
<path d="M18.4410 20.9772
L18.3805 20.9167
" />
<path d="M18.3805 20.9167
L18.2596 20.8562
" />
<path d="M18.2596 20.8562
L18.0177 20.8562
" />
<path d="M18.0177 20.8562
L17.8967 20.9167
" />
<path d="M17.8967 20.9167
L17.8362 20.9772
" />
<path d="M17.8362 20.9772
L17.7758 21.0981
" />
</g><path d="M15.6591 24.5999
L19.4691 24.5999
" />
<text x="17.5641" y="24.3459"
textLength="2.5617" font-size="1.6933" lengthAdjust="spacingAndGlyphs"
text-anchor="middle" opacity="0">b7</text>
<g class="stroked-text"><desc>b7</desc>
<path d="M16.6872 24.1824
L16.6872 22.9124
" />
<path d="M16.6872 23.3962
L16.8082 23.3358
" />
<path d="M16.8082 23.3358
L17.0501 23.3358
" />
<path d="M17.0501 23.3358
L17.1710 23.3962
" />
<path d="M17.1710 23.3962
L17.2315 23.4567
" />
<path d="M17.2315 23.4567
L17.2920 23.5777
" />
<path d="M17.2920 23.5777
L17.2920 23.9405
" />
<path d="M17.2920 23.9405
L17.2315 24.0615
" />
<path d="M17.2315 24.0615
L17.1710 24.1220
" />
<path d="M17.1710 24.1220
L17.0501 24.1824
" />
<path d="M17.0501 24.1824
L16.8082 24.1824
" />
<path d="M16.8082 24.1824
L16.6872 24.1220
" />
<path d="M17.7153 22.9124
L18.5619 22.9124
" />
<path d="M18.5619 22.9124
L18.0177 24.1824
" />
</g><path d="M15.6591 27.1399
L19.4691 27.1399
" />
<text x="17.5641" y="26.8859"
textLength="2.5617" font-size="1.6933" lengthAdjust="spacingAndGlyphs"
text-anchor="middle" opacity="0">b8</text>
<g class="stroked-text"><desc>b8</desc>
<path d="M16.6872 26.7224
L16.6872 25.4524
" />
<path d="M16.6872 25.9362
L16.8082 25.8758
" />
<path d="M16.8082 25.8758
L17.0501 25.8758
" />
<path d="M17.0501 25.8758
L17.1710 25.9362
" />
<path d="M17.1710 25.9362
L17.2315 25.9967
" />
<path d="M17.2315 25.9967
L17.2920 26.1177
" />
<path d="M17.2920 26.1177
L17.2920 26.4805
" />
<path d="M17.2920 26.4805
L17.2315 26.6015
" />
<path d="M17.2315 26.6015
L17.1710 26.6620
" />
<path d="M17.1710 26.6620
L17.0501 26.7224
" />
<path d="M17.0501 26.7224
L16.8082 26.7224
" />
<path d="M16.8082 26.7224
L16.6872 26.6620
" />
<path d="M18.0177 25.9967
L17.8967 25.9362
" />
<path d="M17.8967 25.9362
L17.8362 25.8758
" />
<path d="M17.8362 25.8758
L17.7758 25.7548
" />
<path d="M17.7758 25.7548
L17.7758 25.6943
" />
<path d="M17.7758 25.6943
L17.8362 25.5734
" />
<path d="M17.8362 25.5734
L17.8967 25.5129
" />
<path d="M17.8967 25.5129
L18.0177 25.4524
" />
<path d="M18.0177 25.4524
L18.2596 25.4524
" />
<path d="M18.2596 25.4524
L18.3805 25.5129
" />
<path d="M18.3805 25.5129
L18.4410 25.5734
" />
<path d="M18.4410 25.5734
L18.5015 25.6943
" />
<path d="M18.5015 25.6943
L18.5015 25.7548
" />
<path d="M18.5015 25.7548
L18.4410 25.8758
" />
<path d="M18.4410 25.8758
L18.3805 25.9362
" />
<path d="M18.3805 25.9362
L18.2596 25.9967
" />
<path d="M18.2596 25.9967
L18.0177 25.9967
" />
<path d="M18.0177 25.9967
L17.8967 26.0572
" />
<path d="M17.8967 26.0572
L17.8362 26.1177
" />
<path d="M17.8362 26.1177
L17.7758 26.2386
" />
<path d="M17.7758 26.2386
L17.7758 26.4805
" />
<path d="M17.7758 26.4805
L17.8362 26.6015
" />
<path d="M17.8362 26.6015
L17.8967 26.6620
" />
<path d="M17.8967 26.6620
L18.0177 26.7224
" />
<path d="M18.0177 26.7224
L18.2596 26.7224
" />
<path d="M18.2596 26.7224
L18.3805 26.6620
" />
<path d="M18.3805 26.6620
L18.4410 26.6015
" />
<path d="M18.4410 26.6015
L18.5015 26.4805
" />
<path d="M18.5015 26.4805
L18.5015 26.2386
" />
<path d="M18.5015 26.2386
L18.4410 26.1177
" />
<path d="M18.4410 26.1177
L18.3805 26.0572
" />
<path d="M18.3805 26.0572
L18.2596 25.9967
" />
</g><path d="M15.6591 29.6799
L19.4691 29.6799
" />
<text x="17.5641" y="29.4259"
textLength="2.5617" font-size="1.6933" lengthAdjust="spacingAndGlyphs"
text-anchor="middle" opacity="0">b9</text>
<g class="stroked-text"><desc>b9</desc>
<path d="M16.6872 29.2624
L16.6872 27.9924
" />
<path d="M16.6872 28.4762
L16.8082 28.4158
" />
<path d="M16.8082 28.4158
L17.0501 28.4158
" />
<path d="M17.0501 28.4158
L17.1710 28.4762
" />
<path d="M17.1710 28.4762
L17.2315 28.5367
" />
<path d="M17.2315 28.5367
L17.2920 28.6577
" />
<path d="M17.2920 28.6577
L17.2920 29.0205
" />
<path d="M17.2920 29.0205
L17.2315 29.1415
" />
<path d="M17.2315 29.1415
L17.1710 29.2020
" />
<path d="M17.1710 29.2020
L17.0501 29.2624
" />
<path d="M17.0501 29.2624
L16.8082 29.2624
" />
<path d="M16.8082 29.2624
L16.6872 29.2020
" />
<path d="M17.8967 29.2624
L18.1386 29.2624
" />
<path d="M18.1386 29.2624
L18.2596 29.2020
" />
<path d="M18.2596 29.2020
L18.3200 29.1415
" />
<path d="M18.3200 29.1415
L18.4410 28.9600
" />
<path d="M18.4410 28.9600
L18.5015 28.7181
" />
<path d="M18.5015 28.7181
L18.5015 28.2343
" />
<path d="M18.5015 28.2343
L18.4410 28.1134
" />
<path d="M18.4410 28.1134
L18.3805 28.0529
" />
<path d="M18.3805 28.0529
L18.2596 27.9924
" />
<path d="M18.2596 27.9924
L18.0177 27.9924
" />
<path d="M18.0177 27.9924
L17.8967 28.0529
" />
<path d="M17.8967 28.0529
L17.8362 28.1134
" />
<path d="M17.8362 28.1134
L17.7758 28.2343
" />
<path d="M17.7758 28.2343
L17.7758 28.5367
" />
<path d="M17.7758 28.5367
L17.8362 28.6577
" />
<path d="M17.8362 28.6577
L17.8967 28.7181
" />
<path d="M17.8967 28.7181
L18.0177 28.7786
" />
<path d="M18.0177 28.7786
L18.2596 28.7786
" />
<path d="M18.2596 28.7786
L18.3805 28.7181
" />
<path d="M18.3805 28.7181
L18.4410 28.6577
" />
<path d="M18.4410 28.6577
L18.5015 28.5367
" />
</g><path d="M10.5791 9.3599
L6.7691 9.3599
" />
<text x="8.6741" y="9.1059"
textLength="2.4408" font-size="1.6933" lengthAdjust="spacingAndGlyphs"
text-anchor="middle" opacity="0">z1</text>
<g class="stroked-text"><desc>z1</desc>
<path d="M7.7367 8.0958
L8.4019 8.0958
" />
<path d="M8.4019 8.0958
L7.7367 8.9424
" />
<path d="M7.7367 8.9424
L8.4019 8.9424
" />
<path d="M9.5510 8.9424
L8.8253 8.9424
" />
<path d="M9.1881 8.9424
L9.1881 7.6724
" />
<path d="M9.1881 7.6724
L9.0672 7.8539
" />
<path d="M9.0672 7.8539
L8.9462 7.9748
" />
<path d="M8.9462 7.9748
L8.8253 8.0353
" />
</g><path d="M10.5791 32.2199
L6.7691 32.2199
" />
<text x="8.6741" y="31.9659"
textLength="3.6503" font-size="1.6933" lengthAdjust="spacingAndGlyphs"
text-anchor="middle" opacity="0">z10</text>
<g class="stroked-text"><desc>z10</desc>
<path d="M7.1320 30.9558
L7.7972 30.9558
" />
<path d="M7.7972 30.9558
L7.1320 31.8024
" />
<path d="M7.1320 31.8024
L7.7972 31.8024
" />
<path d="M8.9463 31.8024
L8.2206 31.8024
" />
<path d="M8.5834 31.8024
L8.5834 30.5324
" />
<path d="M8.5834 30.5324
L8.4625 30.7139
" />
<path d="M8.4625 30.7139
L8.3415 30.8348
" />
<path d="M8.3415 30.8348
L8.2206 30.8953
" />
<path d="M9.7324 30.5324
L9.8534 30.5324
" />
<path d="M9.8534 30.5324
L9.9743 30.5929
" />
<path d="M9.9743 30.5929
L10.0348 30.6534
" />
<path d="M10.0348 30.6534
L10.0953 30.7743
" />
<path d="M10.0953 30.7743
L10.1558 31.0162
" />
<path d="M10.1558 31.0162
L10.1558 31.3186
" />
<path d="M10.1558 31.3186
L10.0953 31.5605
" />
<path d="M10.0953 31.5605
L10.0348 31.6815
" />
<path d="M10.0348 31.6815
L9.9743 31.7420
" />
<path d="M9.9743 31.7420
L9.8534 31.8024
" />
<path d="M9.8534 31.8024
L9.7324 31.8024
" />
<path d="M9.7324 31.8024
L9.6115 31.7420
" />
<path d="M9.6115 31.7420
L9.5510 31.6815
" />
<path d="M9.5510 31.6815
L9.4905 31.5605
" />
<path d="M9.4905 31.5605
L9.4301 31.3186
" />
<path d="M9.4301 31.3186
L9.4301 31.0162
" />
<path d="M9.4301 31.0162
L9.4905 30.7743
" />
<path d="M9.4905 30.7743
L9.5510 30.6534
" />
<path d="M9.5510 30.6534
L9.6115 30.5929
" />
<path d="M9.6115 30.5929
L9.7324 30.5324
" />
</g><path d="M10.5791 34.7599
L6.7691 34.7599
" />
<text x="8.6741" y="34.5059"
textLength="3.6503" font-size="1.6933" lengthAdjust="spacingAndGlyphs"
text-anchor="middle" opacity="0">z11</text>
<g class="stroked-text"><desc>z11</desc>
<path d="M7.1320 33.4958
L7.7972 33.4958
" />
<path d="M7.7972 33.4958
L7.1320 34.3424
" />
<path d="M7.1320 34.3424
L7.7972 34.3424
" />
<path d="M8.9463 34.3424
L8.2206 34.3424
" />
<path d="M8.5834 34.3424
L8.5834 33.0724
" />
<path d="M8.5834 33.0724
L8.4625 33.2539
" />
<path d="M8.4625 33.2539
L8.3415 33.3748
" />
<path d="M8.3415 33.3748
L8.2206 33.4353
" />
<path d="M10.1558 34.3424
L9.4301 34.3424
" />
<path d="M9.7929 34.3424
L9.7929 33.0724
" />
<path d="M9.7929 33.0724
L9.6720 33.2539
" />
<path d="M9.6720 33.2539
L9.5510 33.3748
" />
<path d="M9.5510 33.3748
L9.4301 33.4353
" />
</g><path d="M10.5791 37.2999
L6.7691 37.2999
" />
<text x="8.6741" y="37.0459"
textLength="3.6503" font-size="1.6933" lengthAdjust="spacingAndGlyphs"
text-anchor="middle" opacity="0">z12</text>
<g class="stroked-text"><desc>z12</desc>
<path d="M7.1320 36.0358
L7.7972 36.0358
" />
<path d="M7.7972 36.0358
L7.1320 36.8824
" />
<path d="M7.1320 36.8824
L7.7972 36.8824
" />
<path d="M8.9463 36.8824
L8.2206 36.8824
" />
<path d="M8.5834 36.8824
L8.5834 35.6124
" />
<path d="M8.5834 35.6124
L8.4625 35.7939
" />
<path d="M8.4625 35.7939
L8.3415 35.9148
" />
<path d="M8.3415 35.9148
L8.2206 35.9753
" />
<path d="M9.4301 35.7334
L9.4905 35.6729
" />
<path d="M9.4905 35.6729
L9.6115 35.6124
" />
<path d="M9.6115 35.6124
L9.9139 35.6124
" />
<path d="M9.9139 35.6124
L10.0348 35.6729
" />
<path d="M10.0348 35.6729
L10.0953 35.7334
" />
<path d="M10.0953 35.7334
L10.1558 35.8543
" />
<path d="M10.1558 35.8543
L10.1558 35.9753
" />
<path d="M10.1558 35.9753
L10.0953 36.1567
" />
<path d="M10.0953 36.1567
L9.3696 36.8824
" />
<path d="M9.3696 36.8824
L10.1558 36.8824
" />
</g><path d="M10.5791 39.8399
L6.7691 39.8399
" />
<text x="8.6741" y="39.5859"
textLength="3.6503" font-size="1.6933" lengthAdjust="spacingAndGlyphs"
text-anchor="middle" opacity="0">z13</text>
<g class="stroked-text"><desc>z13</desc>
<path d="M7.1320 38.5758
L7.7972 38.5758
" />
<path d="M7.7972 38.5758
L7.1320 39.4224
" />
<path d="M7.1320 39.4224
L7.7972 39.4224
" />
<path d="M8.9463 39.4224
L8.2206 39.4224
" />
<path d="M8.5834 39.4224
L8.5834 38.1524
" />
<path d="M8.5834 38.1524
L8.4625 38.3339
" />
<path d="M8.4625 38.3339
L8.3415 38.4548
" />
<path d="M8.3415 38.4548
L8.2206 38.5153
" />
<path d="M9.3696 38.1524
L10.1558 38.1524
" />
<path d="M10.1558 38.1524
L9.7324 38.6362
" />
<path d="M9.7324 38.6362
L9.9139 38.6362
" />
<path d="M9.9139 38.6362
L10.0348 38.6967
" />
<path d="M10.0348 38.6967
L10.0953 38.7572
" />
<path d="M10.0953 38.7572
L10.1558 38.8781
" />
<path d="M10.1558 38.8781
L10.1558 39.1805
" />
<path d="M10.1558 39.1805
L10.0953 39.3015
" />
<path d="M10.0953 39.3015
L10.0348 39.3620
" />
<path d="M10.0348 39.3620
L9.9139 39.4224
" />
<path d="M9.9139 39.4224
L9.5510 39.4224
" />
<path d="M9.5510 39.4224
L9.4301 39.3620
" />
<path d="M9.4301 39.3620
L9.3696 39.3015
" />
</g><path d="M10.5791 42.3799
L6.7691 42.3799
" />
<text x="8.6741" y="42.1259"
textLength="3.6503" font-size="1.6933" lengthAdjust="spacingAndGlyphs"
text-anchor="middle" opacity="0">z14</text>
<g class="stroked-text"><desc>z14</desc>
<path d="M7.1320 41.1158
L7.7972 41.1158
" />
<path d="M7.7972 41.1158
L7.1320 41.9624
" />
<path d="M7.1320 41.9624
L7.7972 41.9624
" />
<path d="M8.9463 41.9624
L8.2206 41.9624
" />
<path d="M8.5834 41.9624
L8.5834 40.6924
" />
<path d="M8.5834 40.6924
L8.4625 40.8739
" />
<path d="M8.4625 40.8739
L8.3415 40.9948
" />
<path d="M8.3415 40.9948
L8.2206 41.0553
" />
<path d="M10.0348 41.1158
L10.0348 41.9624
" />
<path d="M9.7324 40.6320
L9.4301 41.5391
" />
<path d="M9.4301 41.5391
L10.2162 41.5391
" />
</g><path d="M10.5791 44.9199
L6.7691 44.9199
" />
<text x="8.6741" y="44.6659"
textLength="3.6503" font-size="1.6933" lengthAdjust="spacingAndGlyphs"
text-anchor="middle" opacity="0">z15</text>
<g class="stroked-text"><desc>z15</desc>
<path d="M7.1320 43.6558
L7.7972 43.6558
" />
<path d="M7.7972 43.6558
L7.1320 44.5024
" />
<path d="M7.1320 44.5024
L7.7972 44.5024
" />
<path d="M8.9463 44.5024
L8.2206 44.5024
" />
<path d="M8.5834 44.5024
L8.5834 43.2324
" />
<path d="M8.5834 43.2324
L8.4625 43.4139
" />
<path d="M8.4625 43.4139
L8.3415 43.5348
" />
<path d="M8.3415 43.5348
L8.2206 43.5953
" />
<path d="M10.0953 43.2324
L9.4905 43.2324
" />
<path d="M9.4905 43.2324
L9.4301 43.8372
" />
<path d="M9.4301 43.8372
L9.4905 43.7767
" />
<path d="M9.4905 43.7767
L9.6115 43.7162
" />
<path d="M9.6115 43.7162
L9.9139 43.7162
" />
<path d="M9.9139 43.7162
L10.0348 43.7767
" />
<path d="M10.0348 43.7767
L10.0953 43.8372
" />
<path d="M10.0953 43.8372
L10.1558 43.9581
" />
<path d="M10.1558 43.9581
L10.1558 44.2605
" />
<path d="M10.1558 44.2605
L10.0953 44.3815
" />
<path d="M10.0953 44.3815
L10.0348 44.4420
" />
<path d="M10.0348 44.4420
L9.9139 44.5024
" />
<path d="M9.9139 44.5024
L9.6115 44.5024
" />
<path d="M9.6115 44.5024
L9.4905 44.4420
" />
<path d="M9.4905 44.4420
L9.4301 44.3815
" />
</g><path d="M10.5791 47.4599
L6.7691 47.4599
" />
<text x="8.6741" y="47.2059"
textLength="3.6503" font-size="1.6933" lengthAdjust="spacingAndGlyphs"
text-anchor="middle" opacity="0">z16</text>
<g class="stroked-text"><desc>z16</desc>
<path d="M7.1320 46.1958
L7.7972 46.1958
" />
<path d="M7.7972 46.1958
L7.1320 47.0424
" />
<path d="M7.1320 47.0424
L7.7972 47.0424
" />
<path d="M8.9463 47.0424
L8.2206 47.0424
" />
<path d="M8.5834 47.0424
L8.5834 45.7724
" />
<path d="M8.5834 45.7724
L8.4625 45.9539
" />
<path d="M8.4625 45.9539
L8.3415 46.0748
" />
<path d="M8.3415 46.0748
L8.2206 46.1353
" />
<path d="M10.0348 45.7724
L9.7929 45.7724
" />
<path d="M9.7929 45.7724
L9.6720 45.8329
" />
<path d="M9.6720 45.8329
L9.6115 45.8934
" />
<path d="M9.6115 45.8934
L9.4905 46.0748
" />
<path d="M9.4905 46.0748
L9.4301 46.3167
" />
<path d="M9.4301 46.3167
L9.4301 46.8005
" />
<path d="M9.4301 46.8005
L9.4905 46.9215
" />
<path d="M9.4905 46.9215
L9.5510 46.9820
" />
<path d="M9.5510 46.9820
L9.6720 47.0424
" />
<path d="M9.6720 47.0424
L9.9139 47.0424
" />
<path d="M9.9139 47.0424
L10.0348 46.9820
" />
<path d="M10.0348 46.9820
L10.0953 46.9215
" />
<path d="M10.0953 46.9215
L10.1558 46.8005
" />
<path d="M10.1558 46.8005
L10.1558 46.4981
" />
<path d="M10.1558 46.4981
L10.0953 46.3772
" />
<path d="M10.0953 46.3772
L10.0348 46.3167
" />
<path d="M10.0348 46.3167
L9.9139 46.2562
" />
<path d="M9.9139 46.2562
L9.6720 46.2562
" />
<path d="M9.6720 46.2562
L9.5510 46.3167
" />
<path d="M9.5510 46.3167
L9.4905 46.3772
" />
<path d="M9.4905 46.3772
L9.4301 46.4981
" />
</g><path d="M10.5791 11.8999
L6.7691 11.8999
" />
<text x="8.6741" y="11.6459"
textLength="2.4408" font-size="1.6933" lengthAdjust="spacingAndGlyphs"
text-anchor="middle" opacity="0">z2</text>
<g class="stroked-text"><desc>z2</desc>
<path d="M7.7367 10.6358
L8.4019 10.6358
" />
<path d="M8.4019 10.6358
L7.7367 11.4824
" />
<path d="M7.7367 11.4824
L8.4019 11.4824
" />
<path d="M8.8253 10.3334
L8.8857 10.2729
" />
<path d="M8.8857 10.2729
L9.0067 10.2124
" />
<path d="M9.0067 10.2124
L9.3091 10.2124
" />
<path d="M9.3091 10.2124
L9.4300 10.2729
" />
<path d="M9.4300 10.2729
L9.4905 10.3334
" />
<path d="M9.4905 10.3334
L9.5510 10.4543
" />
<path d="M9.5510 10.4543
L9.5510 10.5753
" />
<path d="M9.5510 10.5753
L9.4905 10.7567
" />
<path d="M9.4905 10.7567
L8.7648 11.4824
" />
<path d="M8.7648 11.4824
L9.5510 11.4824
" />
</g><path d="M10.5791 14.4399
L6.7691 14.4399
" />
<text x="8.6741" y="14.1859"
textLength="2.4408" font-size="1.6933" lengthAdjust="spacingAndGlyphs"
text-anchor="middle" opacity="0">z3</text>
<g class="stroked-text"><desc>z3</desc>
<path d="M7.7367 13.1758
L8.4019 13.1758
" />
<path d="M8.4019 13.1758
L7.7367 14.0224
" />
<path d="M7.7367 14.0224
L8.4019 14.0224
" />
<path d="M8.7648 12.7524
L9.5510 12.7524
" />
<path d="M9.5510 12.7524
L9.1276 13.2362
" />
<path d="M9.1276 13.2362
L9.3091 13.2362
" />
<path d="M9.3091 13.2362
L9.4300 13.2967
" />
<path d="M9.4300 13.2967
L9.4905 13.3572
" />
<path d="M9.4905 13.3572
L9.5510 13.4781
" />
<path d="M9.5510 13.4781
L9.5510 13.7805
" />
<path d="M9.5510 13.7805
L9.4905 13.9015
" />
<path d="M9.4905 13.9015
L9.4300 13.9620
" />
<path d="M9.4300 13.9620
L9.3091 14.0224
" />
<path d="M9.3091 14.0224
L8.9462 14.0224
" />
<path d="M8.9462 14.0224
L8.8253 13.9620
" />
<path d="M8.8253 13.9620
L8.7648 13.9015
" />
</g><path d="M10.5791 16.9799
L6.7691 16.9799
" />
<text x="8.6741" y="16.7259"
textLength="2.4408" font-size="1.6933" lengthAdjust="spacingAndGlyphs"
text-anchor="middle" opacity="0">z4</text>
<g class="stroked-text"><desc>z4</desc>
<path d="M7.7367 15.7158
L8.4019 15.7158
" />
<path d="M8.4019 15.7158
L7.7367 16.5624
" />
<path d="M7.7367 16.5624
L8.4019 16.5624
" />
<path d="M9.4300 15.7158
L9.4300 16.5624
" />
<path d="M9.1276 15.2320
L8.8253 16.1391
" />
<path d="M8.8253 16.1391
L9.6114 16.1391
" />
</g><path d="M10.5791 19.5199
L6.7691 19.5199
" />
<text x="8.6741" y="19.2659"
textLength="2.4408" font-size="1.6933" lengthAdjust="spacingAndGlyphs"
text-anchor="middle" opacity="0">z5</text>
<g class="stroked-text"><desc>z5</desc>
<path d="M7.7367 18.2558
L8.4019 18.2558
" />
<path d="M8.4019 18.2558
L7.7367 19.1024
" />
<path d="M7.7367 19.1024
L8.4019 19.1024
" />
<path d="M9.4905 17.8324
L8.8857 17.8324
" />
<path d="M8.8857 17.8324
L8.8253 18.4372
" />
<path d="M8.8253 18.4372
L8.8857 18.3767
" />
<path d="M8.8857 18.3767
L9.0067 18.3162
" />
<path d="M9.0067 18.3162
L9.3091 18.3162
" />
<path d="M9.3091 18.3162
L9.4300 18.3767
" />
<path d="M9.4300 18.3767
L9.4905 18.4372
" />
<path d="M9.4905 18.4372
L9.5510 18.5581
" />
<path d="M9.5510 18.5581
L9.5510 18.8605
" />
<path d="M9.5510 18.8605
L9.4905 18.9815
" />
<path d="M9.4905 18.9815
L9.4300 19.0420
" />
<path d="M9.4300 19.0420
L9.3091 19.1024
" />
<path d="M9.3091 19.1024
L9.0067 19.1024
" />
<path d="M9.0067 19.1024
L8.8857 19.0420
" />
<path d="M8.8857 19.0420
L8.8253 18.9815
" />
</g><path d="M10.5791 22.0599
L6.7691 22.0599
" />
<text x="8.6741" y="21.8059"
textLength="2.4408" font-size="1.6933" lengthAdjust="spacingAndGlyphs"
text-anchor="middle" opacity="0">z6</text>
<g class="stroked-text"><desc>z6</desc>
<path d="M7.7367 20.7958
L8.4019 20.7958
" />
<path d="M8.4019 20.7958
L7.7367 21.6424
" />
<path d="M7.7367 21.6424
L8.4019 21.6424
" />
<path d="M9.4300 20.3724
L9.1881 20.3724
" />
<path d="M9.1881 20.3724
L9.0672 20.4329
" />
<path d="M9.0672 20.4329
L9.0067 20.4934
" />
<path d="M9.0067 20.4934
L8.8857 20.6748
" />
<path d="M8.8857 20.6748
L8.8253 20.9167
" />
<path d="M8.8253 20.9167
L8.8253 21.4005
" />
<path d="M8.8253 21.4005
L8.8857 21.5215
" />
<path d="M8.8857 21.5215
L8.9462 21.5820
" />
<path d="M8.9462 21.5820
L9.0672 21.6424
" />
<path d="M9.0672 21.6424
L9.3091 21.6424
" />
<path d="M9.3091 21.6424
L9.4300 21.5820
" />
<path d="M9.4300 21.5820
L9.4905 21.5215
" />
<path d="M9.4905 21.5215
L9.5510 21.4005
" />
<path d="M9.5510 21.4005
L9.5510 21.0981
" />
<path d="M9.5510 21.0981
L9.4905 20.9772
" />
<path d="M9.4905 20.9772
L9.4300 20.9167
" />
<path d="M9.4300 20.9167
L9.3091 20.8562
" />
<path d="M9.3091 20.8562
L9.0672 20.8562
" />
<path d="M9.0672 20.8562
L8.9462 20.9167
" />
<path d="M8.9462 20.9167
L8.8857 20.9772
" />
<path d="M8.8857 20.9772
L8.8253 21.0981
" />
</g><path d="M10.5791 24.5999
L6.7691 24.5999
" />
<text x="8.6741" y="24.3459"
textLength="2.4408" font-size="1.6933" lengthAdjust="spacingAndGlyphs"
text-anchor="middle" opacity="0">z7</text>
<g class="stroked-text"><desc>z7</desc>
<path d="M7.7367 23.3358
L8.4019 23.3358
" />
<path d="M8.4019 23.3358
L7.7367 24.1824
" />
<path d="M7.7367 24.1824
L8.4019 24.1824
" />
<path d="M8.7648 22.9124
L9.6114 22.9124
" />
<path d="M9.6114 22.9124
L9.0672 24.1824
" />
</g><path d="M10.5791 27.1399
L6.7691 27.1399
" />
<text x="8.6741" y="26.8859"
textLength="2.4408" font-size="1.6933" lengthAdjust="spacingAndGlyphs"
text-anchor="middle" opacity="0">z8</text>
<g class="stroked-text"><desc>z8</desc>
<path d="M7.7367 25.8758
L8.4019 25.8758
" />
<path d="M8.4019 25.8758
L7.7367 26.7224
" />
<path d="M7.7367 26.7224
L8.4019 26.7224
" />
<path d="M9.0672 25.9967
L8.9462 25.9362
" />
<path d="M8.9462 25.9362
L8.8857 25.8758
" />
<path d="M8.8857 25.8758
L8.8253 25.7548
" />
<path d="M8.8253 25.7548
L8.8253 25.6943
" />
<path d="M8.8253 25.6943
L8.8857 25.5734
" />
<path d="M8.8857 25.5734
L8.9462 25.5129
" />
<path d="M8.9462 25.5129
L9.0672 25.4524
" />
<path d="M9.0672 25.4524
L9.3091 25.4524
" />
<path d="M9.3091 25.4524
L9.4300 25.5129
" />
<path d="M9.4300 25.5129
L9.4905 25.5734
" />
<path d="M9.4905 25.5734
L9.5510 25.6943
" />
<path d="M9.5510 25.6943
L9.5510 25.7548
" />
<path d="M9.5510 25.7548
L9.4905 25.8758
" />
<path d="M9.4905 25.8758
L9.4300 25.9362
" />
<path d="M9.4300 25.9362
L9.3091 25.9967
" />
<path d="M9.3091 25.9967
L9.0672 25.9967
" />
<path d="M9.0672 25.9967
L8.9462 26.0572
" />
<path d="M8.9462 26.0572
L8.8857 26.1177
" />
<path d="M8.8857 26.1177
L8.8253 26.2386
" />
<path d="M8.8253 26.2386
L8.8253 26.4805
" />
<path d="M8.8253 26.4805
L8.8857 26.6015
" />
<path d="M8.8857 26.6015
L8.9462 26.6620
" />
<path d="M8.9462 26.6620
L9.0672 26.7224
" />
<path d="M9.0672 26.7224
L9.3091 26.7224
" />
<path d="M9.3091 26.7224
L9.4300 26.6620
" />
<path d="M9.4300 26.6620
L9.4905 26.6015
" />
<path d="M9.4905 26.6015
L9.5510 26.4805
" />
<path d="M9.5510 26.4805
L9.5510 26.2386
" />
<path d="M9.5510 26.2386
L9.4905 26.1177
" />
<path d="M9.4905 26.1177
L9.4300 26.0572
" />
<path d="M9.4300 26.0572
L9.3091 25.9967
" />
</g><path d="M10.5791 29.6799
L6.7691 29.6799
" />
<text x="8.6741" y="29.4259"
textLength="2.4408" font-size="1.6933" lengthAdjust="spacingAndGlyphs"
text-anchor="middle" opacity="0">z9</text>
<g class="stroked-text"><desc>z9</desc>
<path d="M7.7367 28.4158
L8.4019 28.4158
" />
<path d="M8.4019 28.4158
L7.7367 29.2624
" />
<path d="M7.7367 29.2624
L8.4019 29.2624
" />
<path d="M8.9462 29.2624
L9.1881 29.2624
" />
<path d="M9.1881 29.2624
L9.3091 29.2020
" />
<path d="M9.3091 29.2020
L9.3695 29.1415
" />
<path d="M9.3695 29.1415
L9.4905 28.9600
" />
<path d="M9.4905 28.9600
L9.5510 28.7181
" />
<path d="M9.5510 28.7181
L9.5510 28.2343
" />
<path d="M9.5510 28.2343
L9.4905 28.1134
" />
<path d="M9.4905 28.1134
L9.4300 28.0529
" />
<path d="M9.4300 28.0529
L9.3091 27.9924
" />
<path d="M9.3091 27.9924
L9.0672 27.9924
" />
<path d="M9.0672 27.9924
L8.9462 28.0529
" />
<path d="M8.9462 28.0529
L8.8857 28.1134
" />
<path d="M8.8857 28.1134
L8.8253 28.2343
" />
<path d="M8.8253 28.2343
L8.8253 28.5367
" />
<path d="M8.8253 28.5367
L8.8857 28.6577
" />
<path d="M8.8857 28.6577
L8.9462 28.7181
" />
<path d="M8.9462 28.7181
L9.0672 28.7786
" />
<path d="M9.0672 28.7786
L9.3091 28.7786
" />
<path d="M9.3091 28.7786
L9.4300 28.7181
" />
<path d="M9.4300 28.7181
L9.4905 28.6577
" />
<path d="M9.4905 28.6577
L9.5510 28.5367
" />
</g></g>
<g style="fill:#000000; fill-opacity:0.0; 
stroke:#000000; stroke-width:0.1588; stroke-opacity:1; 
stroke-linecap:round; stroke-linejoin:round;">
<text x="13.1191" y="7.4549"
textLength="2.2786" font-size="1.6933" lengthAdjust="spacingAndGlyphs"
text-anchor="middle" opacity="0">J?</text>
<g class="stroked-text"><desc>J?</desc>
<path d="M12.7562 6.1291
L12.7562 7.0363
" />
<path d="M12.7562 7.0363
L12.6957 7.2177
" />
<path d="M12.6957 7.2177
L12.5748 7.3387
" />
<path d="M12.5748 7.3387
L12.3933 7.3991
" />
<path d="M12.3933 7.3991
L12.2724 7.3991
" />
<path d="M13.5424 7.2782
L13.6028 7.3387
" />
<path d="M13.6028 7.3387
L13.5424 7.3991
" />
<path d="M13.5424 7.3991
L13.4819 7.3387
" />
<path d="M13.4819 7.3387
L13.5424 7.2782
" />
<path d="M13.5424 7.2782
L13.5424 7.3991
" />
<path d="M13.3005 6.1896
L13.4214 6.1291
" />
<path d="M13.4214 6.1291
L13.7238 6.1291
" />
<path d="M13.7238 6.1291
L13.8447 6.1896
" />
<path d="M13.8447 6.1896
L13.9052 6.3106
" />
<path d="M13.9052 6.3106
L13.9052 6.4315
" />
<path d="M13.9052 6.4315
L13.8447 6.5525
" />
<path d="M13.8447 6.5525
L13.7843 6.6129
" />
<path d="M13.7843 6.6129
L13.6633 6.6734
" />
<path d="M13.6633 6.6734
L13.6028 6.7339
" />
<path d="M13.6028 6.7339
L13.5424 6.8548
" />
<path d="M13.5424 6.8548
L13.5424 6.9153
" />
</g><text x="13.1191" y="50.6349"
textLength="19.7560" font-size="1.6933" lengthAdjust="spacingAndGlyphs"
text-anchor="middle" opacity="0">DIN41612_02x16_ZB</text>
<g class="stroked-text"><desc>DIN41612_02x16_ZB</desc>
<path d="M3.6546 50.5791
L3.6546 49.3091
" />
<path d="M3.6546 49.3091
L3.9570 49.3091
" />
<path d="M3.9570 49.3091
L4.1384 49.3696
" />
<path d="M4.1384 49.3696
L4.2594 49.4906
" />
<path d="M4.2594 49.4906
L4.3199 49.6115
" />
<path d="M4.3199 49.6115
L4.3803 49.8534
" />
<path d="M4.3803 49.8534
L4.3803 50.0348
" />
<path d="M4.3803 50.0348
L4.3199 50.2767
" />
<path d="M4.3199 50.2767
L4.2594 50.3977
" />
<path d="M4.2594 50.3977
L4.1384 50.5187
" />
<path d="M4.1384 50.5187
L3.9570 50.5791
" />
<path d="M3.9570 50.5791
L3.6546 50.5791
" />
<path d="M4.9246 50.5791
L4.9246 49.3091
" />
<path d="M5.5294 50.5791
L5.5294 49.3091
" />
<path d="M5.5294 49.3091
L6.2551 50.5791
" />
<path d="M6.2551 50.5791
L6.2551 49.3091
" />
<path d="M7.4042 49.7325
L7.4042 50.5791
" />
<path d="M7.1018 49.2487
L6.7995 50.1558
" />
<path d="M6.7995 50.1558
L7.5856 50.1558
" />
<path d="M8.7347 50.5791
L8.0090 50.5791
" />
<path d="M8.3718 50.5791
L8.3718 49.3091
" />
<path d="M8.3718 49.3091
L8.2509 49.4906
" />
<path d="M8.2509 49.4906
L8.1299 49.6115
" />
<path d="M8.1299 49.6115
L8.0090 49.6720
" />
<path d="M9.8232 49.3091
L9.5813 49.3091
" />
<path d="M9.5813 49.3091
L9.4604 49.3696
" />
<path d="M9.4604 49.3696
L9.3999 49.4301
" />
<path d="M9.3999 49.4301
L9.2789 49.6115
" />
<path d="M9.2789 49.6115
L9.2185 49.8534
" />
<path d="M9.2185 49.8534
L9.2185 50.3372
" />
<path d="M9.2185 50.3372
L9.2789 50.4582
" />
<path d="M9.2789 50.4582
L9.3394 50.5187
" />
<path d="M9.3394 50.5187
L9.4604 50.5791
" />
<path d="M9.4604 50.5791
L9.7023 50.5791
" />
<path d="M9.7023 50.5791
L9.8232 50.5187
" />
<path d="M9.8232 50.5187
L9.8837 50.4582
" />
<path d="M9.8837 50.4582
L9.9442 50.3372
" />
<path d="M9.9442 50.3372
L9.9442 50.0348
" />
<path d="M9.9442 50.0348
L9.8837 49.9139
" />
<path d="M9.8837 49.9139
L9.8232 49.8534
" />
<path d="M9.8232 49.8534
L9.7023 49.7929
" />
<path d="M9.7023 49.7929
L9.4604 49.7929
" />
<path d="M9.4604 49.7929
L9.3394 49.8534
" />
<path d="M9.3394 49.8534
L9.2789 49.9139
" />
<path d="M9.2789 49.9139
L9.2185 50.0348
" />
<path d="M11.1537 50.5791
L10.4280 50.5791
" />
<path d="M10.7908 50.5791
L10.7908 49.3091
" />
<path d="M10.7908 49.3091
L10.6699 49.4906
" />
<path d="M10.6699 49.4906
L10.5489 49.6115
" />
<path d="M10.5489 49.6115
L10.4280 49.6720
" />
<path d="M11.6375 49.4301
L11.6979 49.3696
" />
<path d="M11.6979 49.3696
L11.8189 49.3091
" />
<path d="M11.8189 49.3091
L12.1213 49.3091
" />
<path d="M12.1213 49.3091
L12.2422 49.3696
" />
<path d="M12.2422 49.3696
L12.3027 49.4301
" />
<path d="M12.3027 49.4301
L12.3632 49.5510
" />
<path d="M12.3632 49.5510
L12.3632 49.6720
" />
<path d="M12.3632 49.6720
L12.3027 49.8534
" />
<path d="M12.3027 49.8534
L11.5770 50.5791
" />
<path d="M11.5770 50.5791
L12.3632 50.5791
" />
<path d="M12.6051 50.7001
L13.5727 50.7001
" />
<path d="M14.1169 49.3091
L14.2379 49.3091
" />
<path d="M14.2379 49.3091
L14.3588 49.3696
" />
<path d="M14.3588 49.3696
L14.4193 49.4301
" />
<path d="M14.4193 49.4301
L14.4798 49.5510
" />
<path d="M14.4798 49.5510
L14.5403 49.7929
" />
<path d="M14.5403 49.7929
L14.5403 50.0953
" />
<path d="M14.5403 50.0953
L14.4798 50.3372
" />
<path d="M14.4798 50.3372
L14.4193 50.4582
" />
<path d="M14.4193 50.4582
L14.3588 50.5187
" />
<path d="M14.3588 50.5187
L14.2379 50.5791
" />
<path d="M14.2379 50.5791
L14.1169 50.5791
" />
<path d="M14.1169 50.5791
L13.9960 50.5187
" />
<path d="M13.9960 50.5187
L13.9355 50.4582
" />
<path d="M13.9355 50.4582
L13.8750 50.3372
" />
<path d="M13.8750 50.3372
L13.8146 50.0953
" />
<path d="M13.8146 50.0953
L13.8146 49.7929
" />
<path d="M13.8146 49.7929
L13.8750 49.5510
" />
<path d="M13.8750 49.5510
L13.9355 49.4301
" />
<path d="M13.9355 49.4301
L13.9960 49.3696
" />
<path d="M13.9960 49.3696
L14.1169 49.3091
" />
<path d="M15.0241 49.4301
L15.0845 49.3696
" />
<path d="M15.0845 49.3696
L15.2055 49.3091
" />
<path d="M15.2055 49.3091
L15.5079 49.3091
" />
<path d="M15.5079 49.3091
L15.6288 49.3696
" />
<path d="M15.6288 49.3696
L15.6893 49.4301
" />
<path d="M15.6893 49.4301
L15.7498 49.5510
" />
<path d="M15.7498 49.5510
L15.7498 49.6720
" />
<path d="M15.7498 49.6720
L15.6893 49.8534
" />
<path d="M15.6893 49.8534
L14.9636 50.5791
" />
<path d="M14.9636 50.5791
L15.7498 50.5791
" />
<path d="M16.1731 50.5791
L16.8383 49.7325
" />
<path d="M16.1731 49.7325
L16.8383 50.5791
" />
<path d="M17.9874 50.5791
L17.2617 50.5791
" />
<path d="M17.6245 50.5791
L17.6245 49.3091
" />
<path d="M17.6245 49.3091
L17.5036 49.4906
" />
<path d="M17.5036 49.4906
L17.3826 49.6115
" />
<path d="M17.3826 49.6115
L17.2617 49.6720
" />
<path d="M19.0759 49.3091
L18.8340 49.3091
" />
<path d="M18.8340 49.3091
L18.7131 49.3696
" />
<path d="M18.7131 49.3696
L18.6526 49.4301
" />
<path d="M18.6526 49.4301
L18.5316 49.6115
" />
<path d="M18.5316 49.6115
L18.4712 49.8534
" />
<path d="M18.4712 49.8534
L18.4712 50.3372
" />
<path d="M18.4712 50.3372
L18.5316 50.4582
" />
<path d="M18.5316 50.4582
L18.5921 50.5187
" />
<path d="M18.5921 50.5187
L18.7131 50.5791
" />
<path d="M18.7131 50.5791
L18.9550 50.5791
" />
<path d="M18.9550 50.5791
L19.0759 50.5187
" />
<path d="M19.0759 50.5187
L19.1364 50.4582
" />
<path d="M19.1364 50.4582
L19.1969 50.3372
" />
<path d="M19.1969 50.3372
L19.1969 50.0348
" />
<path d="M19.1969 50.0348
L19.1364 49.9139
" />
<path d="M19.1364 49.9139
L19.0759 49.8534
" />
<path d="M19.0759 49.8534
L18.9550 49.7929
" />
<path d="M18.9550 49.7929
L18.7131 49.7929
" />
<path d="M18.7131 49.7929
L18.5921 49.8534
" />
<path d="M18.5921 49.8534
L18.5316 49.9139
" />
<path d="M18.5316 49.9139
L18.4712 50.0348
" />
<path d="M19.4388 50.7001
L20.4064 50.7001
" />
<path d="M20.5878 49.3091
L21.4344 49.3091
" />
<path d="M21.4344 49.3091
L20.5878 50.5791
" />
<path d="M20.5878 50.5791
L21.4344 50.5791
" />
<path d="M22.3416 49.9139
L22.5230 49.9744
" />
<path d="M22.5230 49.9744
L22.5835 50.0348
" />
<path d="M22.5835 50.0348
L22.6439 50.1558
" />
<path d="M22.6439 50.1558
L22.6439 50.3372
" />
<path d="M22.6439 50.3372
L22.5835 50.4582
" />
<path d="M22.5835 50.4582
L22.5230 50.5187
" />
<path d="M22.5230 50.5187
L22.4020 50.5791
" />
<path d="M22.4020 50.5791
L21.9182 50.5791
" />
<path d="M21.9182 50.5791
L21.9182 49.3091
" />
<path d="M21.9182 49.3091
L22.3416 49.3091
" />
<path d="M22.3416 49.3091
L22.4625 49.3696
" />
<path d="M22.4625 49.3696
L22.5230 49.4301
" />
<path d="M22.5230 49.4301
L22.5835 49.5510
" />
<path d="M22.5835 49.5510
L22.5835 49.6720
" />
<path d="M22.5835 49.6720
L22.5230 49.7929
" />
<path d="M22.5230 49.7929
L22.4625 49.8534
" />
<path d="M22.4625 49.8534
L22.3416 49.9139
" />
<path d="M22.3416 49.9139
L21.9182 49.9139
" />
</g></g> 
</svg>
