<?xml version="1.0" standalone="no"?>
 <!DOCTYPE svg PUBLIC "-//W3C//DTD SVG 1.1//EN" 
 "http://www.w3.org/Graphics/SVG/1.1/DTD/svg11.dtd"> 
<svg
  xmlns:svg="http://www.w3.org/2000/svg"
  xmlns="http://www.w3.org/2000/svg"
  xmlns:xlink="http://www.w3.org/1999/xlink"
  version="1.1"
  width="30.5308mm" height="16.3830mm" viewBox="0.0000 0.0000 30.5308 16.3830">
<title>SVG Image created as Infineon_PG-DSO-20-U03_7.5x12.8mm.svg date 2024/01/16 15:07:28 </title>
  <desc>Image generated by PCBNEW </desc>
<g style="fill:#000000; fill-opacity:1.0000;stroke:#000000; stroke-opacity:1.0000;
stroke-linecap:round; stroke-linejoin:round;"
 transform="translate(0 0) scale(1 1)">
</g>
<g style="fill:#000000; fill-opacity:0.0; 
stroke:#000000; stroke-width:0.0000; stroke-opacity:1; 
stroke-linecap:round; stroke-linejoin:round;">
</g>
<g style="fill:#000000; fill-opacity:1.0000; 
stroke:#000000; stroke-width:0.0212; stroke-opacity:1; 
stroke-linecap:round; stroke-linejoin:round;">
<rect x="-5.000000" y="-5.000000" width="40.535713" height="26.396500" rx="0.000000" />
</g>
<g style="fill:#FFFFFF; fill-opacity:1.0000; 
stroke:#FFFFFF; stroke-width:0.0212; stroke-opacity:1; 
stroke-linecap:round; stroke-linejoin:round;">
<g >
</g>
<g >
</g>
<g >
</g>
<g >
</g>
</g>
<g style="fill:#FFFFFF; fill-opacity:1.0000; 
stroke:#FFFFFF; stroke-width:0.0212; stroke-opacity:1; 
stroke-linecap:round; stroke-linejoin:round;">
<g >
</g>
<g >
</g>
<g >
</g>
<g >
</g>
</g>
<g style="fill:#FFFFFF; fill-opacity:1.0000; 
stroke:#FFFFFF; stroke-width:0.0212; stroke-opacity:1; 
stroke-linecap:round; stroke-linejoin:round;">
<g >
</g>
<g >
</g>
<g >
</g>
<g >
</g>
</g>
<g style="fill:#FFFFFF; fill-opacity:1.0000; 
stroke:#FFFFFF; stroke-width:0.0212; stroke-opacity:1; 
stroke-linecap:round; stroke-linejoin:round;">
<g >
</g>
<g >
</g>
<g >
</g>
<g >
</g>
</g>
<g style="fill:#FFFFFF; fill-opacity:1.0000; 
stroke:#FFFFFF; stroke-width:0.0212; stroke-opacity:1; 
stroke-linecap:round; stroke-linejoin:round;">
<g >
</g>
<g >
</g>
<g >
</g>
<g >
</g>
</g>
<g style="fill:#FFFFFF; fill-opacity:1.0000; 
stroke:#FFFFFF; stroke-width:0.0212; stroke-opacity:1; 
stroke-linecap:round; stroke-linejoin:round;">
<g >
</g>
<g >
</g>
<g >
</g>
<g >
</g>
</g>
<g style="fill:#FFFFFF; fill-opacity:1.0000; 
stroke:#FFFFFF; stroke-width:0.0212; stroke-opacity:1; 
stroke-linecap:round; stroke-linejoin:round;">
<g >
</g>
<g >
</g>
<g >
</g>
<g >
</g>
</g>
<g style="fill:#FFFFFF; fill-opacity:1.0000; 
stroke:#FFFFFF; stroke-width:0.0212; stroke-opacity:1; 
stroke-linecap:round; stroke-linejoin:round;">
<g >
</g>
<g >
</g>
<g >
</g>
<g >
</g>
</g>
<g style="fill:#FFFFFF; fill-opacity:1.0000; 
stroke:#FFFFFF; stroke-width:0.0212; stroke-opacity:1; 
stroke-linecap:round; stroke-linejoin:round;">
<g >
</g>
<g >
</g>
<g >
</g>
<g >
</g>
</g>
<g style="fill:#FFFFFF; fill-opacity:1.0000; 
stroke:#FFFFFF; stroke-width:0.0212; stroke-opacity:1; 
stroke-linecap:round; stroke-linejoin:round;">
<g >
</g>
<g >
</g>
<g >
</g>
<g >
</g>
</g>
<g style="fill:#FFFFFF; fill-opacity:1.0000; 
stroke:#FFFFFF; stroke-width:0.0212; stroke-opacity:1; 
stroke-linecap:round; stroke-linejoin:round;">
<g >
</g>
<g >
</g>
<g >
</g>
<g >
</g>
</g>
<g style="fill:#FFFFFF; fill-opacity:1.0000; 
stroke:#FFFFFF; stroke-width:0.0212; stroke-opacity:1; 
stroke-linecap:round; stroke-linejoin:round;">
<g >
</g>
<g >
</g>
<g >
</g>
<g >
</g>
</g>
<g style="fill:#FFFFFF; fill-opacity:1.0000; 
stroke:#FFFFFF; stroke-width:0.0212; stroke-opacity:1; 
stroke-linecap:round; stroke-linejoin:round;">
<g >
</g>
<g >
</g>
<g >
</g>
<g >
</g>
</g>
<g style="fill:#FFFFFF; fill-opacity:1.0000; 
stroke:#FFFFFF; stroke-width:0.0212; stroke-opacity:1; 
stroke-linecap:round; stroke-linejoin:round;">
<g >
</g>
<g >
</g>
<g >
</g>
<g >
</g>
</g>
<g style="fill:#FFFFFF; fill-opacity:1.0000; 
stroke:#FFFFFF; stroke-width:0.0212; stroke-opacity:1; 
stroke-linecap:round; stroke-linejoin:round;">
<g >
</g>
<g >
</g>
<g >
</g>
<g >
</g>
</g>
<g style="fill:#FFFFFF; fill-opacity:1.0000; 
stroke:#FFFFFF; stroke-width:0.0212; stroke-opacity:1; 
stroke-linecap:round; stroke-linejoin:round;">
<g >
</g>
<g >
</g>
<g >
</g>
<g >
</g>
</g>
<g style="fill:#FFFFFF; fill-opacity:1.0000; 
stroke:#FFFFFF; stroke-width:0.0212; stroke-opacity:1; 
stroke-linecap:round; stroke-linejoin:round;">
<g >
</g>
<g >
</g>
<g >
</g>
<g >
</g>
</g>
<g style="fill:#FFFFFF; fill-opacity:1.0000; 
stroke:#FFFFFF; stroke-width:0.0212; stroke-opacity:1; 
stroke-linecap:round; stroke-linejoin:round;">
<g >
</g>
<g >
</g>
<g >
</g>
<g >
</g>
</g>
<g style="fill:#FFFFFF; fill-opacity:1.0000; 
stroke:#FFFFFF; stroke-width:0.0212; stroke-opacity:1; 
stroke-linecap:round; stroke-linejoin:round;">
<g >
</g>
<g >
</g>
<g >
</g>
<g >
</g>
</g>
<g style="fill:#FFFFFF; fill-opacity:1.0000; 
stroke:#FFFFFF; stroke-width:0.0212; stroke-opacity:1; 
stroke-linecap:round; stroke-linejoin:round;">
<g >
</g>
<g >
</g>
<g >
</g>
<g >
</g>
</g>
<g style="fill:#FFFFFF; fill-opacity:1.0000; 
stroke:#FFFFFF; stroke-width:0.0212; stroke-opacity:1; 
stroke-linecap:round; stroke-linejoin:round;">
<g >
</g>
<g >
</g>
<g >
</g>
<g >
</g>
</g>
<g style="fill:#FFFFFF; fill-opacity:1.0000; 
stroke:#FFFFFF; stroke-width:0.0212; stroke-opacity:1; 
stroke-linecap:round; stroke-linejoin:round;">
<g >
</g>
<g >
</g>
<g >
</g>
<g >
</g>
</g>
<g style="fill:#FFFFFF; fill-opacity:1.0000; 
stroke:#FFFFFF; stroke-width:0.0212; stroke-opacity:1; 
stroke-linecap:round; stroke-linejoin:round;">
<g >
</g>
<g >
</g>
<g >
</g>
<g >
</g>
</g>
<g style="fill:#FFFFFF; fill-opacity:1.0000; 
stroke:#FFFFFF; stroke-width:0.0212; stroke-opacity:1; 
stroke-linecap:round; stroke-linejoin:round;">
<g >
</g>
<g >
</g>
<g >
</g>
<g >
</g>
</g>
<g style="fill:#FFFFFF; fill-opacity:1.0000; 
stroke:#FFFFFF; stroke-width:0.0212; stroke-opacity:1; 
stroke-linecap:round; stroke-linejoin:round;">
<g >
</g>
<g >
</g>
<g >
</g>
<g >
</g>
</g>
<g style="fill:#FFFFFF; fill-opacity:1.0000; 
stroke:#FFFFFF; stroke-width:0.0212; stroke-opacity:1; 
stroke-linecap:round; stroke-linejoin:round;">
<g >
</g>
<g >
</g>
<g >
</g>
<g >
</g>
</g>
<g style="fill:#FFFFFF; fill-opacity:1.0000; 
stroke:#FFFFFF; stroke-width:0.0212; stroke-opacity:1; 
stroke-linecap:round; stroke-linejoin:round;">
<g >
</g>
<g >
</g>
<g >
</g>
<g >
</g>
</g>
<g style="fill:#FFFFFF; fill-opacity:1.0000; 
stroke:#FFFFFF; stroke-width:0.0212; stroke-opacity:1; 
stroke-linecap:round; stroke-linejoin:round;">
<g >
</g>
<g >
</g>
<g >
</g>
<g >
</g>
</g>
<g style="fill:#FFFFFF; fill-opacity:1.0000; 
stroke:#FFFFFF; stroke-width:0.0212; stroke-opacity:1; 
stroke-linecap:round; stroke-linejoin:round;">
<g >
</g>
<g >
</g>
<g >
</g>
<g >
</g>
</g>
<g style="fill:#FFFFFF; fill-opacity:1.0000; 
stroke:#FFFFFF; stroke-width:0.0212; stroke-opacity:1; 
stroke-linecap:round; stroke-linejoin:round;">
<g >
</g>
<g >
</g>
<g >
</g>
<g >
</g>
</g>
<g style="fill:#FFFFFF; fill-opacity:1.0000; 
stroke:#FFFFFF; stroke-width:0.0212; stroke-opacity:1; 
stroke-linecap:round; stroke-linejoin:round;">
<g >
</g>
<g >
</g>
<g >
</g>
<g >
</g>
</g>
<g style="fill:#FFFFFF; fill-opacity:1.0000; 
stroke:#FFFFFF; stroke-width:0.0212; stroke-opacity:1; 
stroke-linecap:round; stroke-linejoin:round;">
<g >
</g>
<g >
</g>
<g >
</g>
<g >
</g>
</g>
<g style="fill:#FFFFFF; fill-opacity:1.0000; 
stroke:#FFFFFF; stroke-width:0.0212; stroke-opacity:1; 
stroke-linecap:round; stroke-linejoin:round;">
<g >
</g>
<g >
</g>
<g >
</g>
<g >
</g>
</g>
<g style="fill:#FFFFFF; fill-opacity:1.0000; 
stroke:#FFFFFF; stroke-width:0.0212; stroke-opacity:1; 
stroke-linecap:round; stroke-linejoin:round;">
<g >
</g>
<g style="fill:#FFFFFF; fill-opacity:1.0000; 
stroke:#FFFFFF; stroke-width:0.0000; stroke-opacity:1; 
stroke-linecap:round; stroke-linejoin:round;">
<path style="fill:#FFFFFF; fill-opacity:1.0000; 
stroke:#FFFFFF; stroke-width:0.0000; stroke-opacity:1; 
stroke-linecap:round; stroke-linejoin:round;fill-rule:evenodd;"
d="M 9.6429,2.5482
9.6524,2.5004
9.6795,2.4599
9.7200,2.4328
9.7679,2.4232
11.4679,2.4232
11.5157,2.4328
11.5562,2.4599
11.5833,2.5004
11.5929,2.5482
11.5929,2.7982
11.5833,2.8461
11.5562,2.8866
11.5157,2.9137
11.4679,2.9232
9.7679,2.9232
9.7200,2.9137
9.6795,2.8866
9.6524,2.8461
9.6429,2.7982
Z" /> 
<path style="fill:#FFFFFF; fill-opacity:1.0000; 
stroke:#FFFFFF; stroke-width:0.0000; stroke-opacity:1; 
stroke-linecap:round; stroke-linejoin:round;fill-rule:evenodd;"
d="M 9.6429,3.1982
9.6524,3.1504
9.6795,3.1099
9.7200,3.0828
9.7679,3.0732
11.4679,3.0732
11.5157,3.0828
11.5562,3.1099
11.5833,3.1504
11.5929,3.1982
11.5929,3.4482
11.5833,3.4961
11.5562,3.5366
11.5157,3.5637
11.4679,3.5732
9.7679,3.5732
9.7200,3.5637
9.6795,3.5366
9.6524,3.4961
9.6429,3.4482
Z" /> 
<path style="fill:#FFFFFF; fill-opacity:1.0000; 
stroke:#FFFFFF; stroke-width:0.0000; stroke-opacity:1; 
stroke-linecap:round; stroke-linejoin:round;fill-rule:evenodd;"
d="M 9.6429,5.1482
9.6524,5.1004
9.6795,5.0599
9.7200,5.0328
9.7679,5.0232
11.4679,5.0232
11.5157,5.0328
11.5562,5.0599
11.5833,5.1004
11.5929,5.1482
11.5929,5.3982
11.5833,5.4461
11.5562,5.4866
11.5157,5.5137
11.4679,5.5232
9.7679,5.5232
9.7200,5.5137
9.6795,5.4866
9.6524,5.4461
9.6429,5.3982
Z" /> 
<path style="fill:#FFFFFF; fill-opacity:1.0000; 
stroke:#FFFFFF; stroke-width:0.0000; stroke-opacity:1; 
stroke-linecap:round; stroke-linejoin:round;fill-rule:evenodd;"
d="M 9.6429,5.7982
9.6524,5.7504
9.6795,5.7099
9.7200,5.6828
9.7679,5.6732
11.4679,5.6732
11.5157,5.6828
11.5562,5.7099
11.5833,5.7504
11.5929,5.7982
11.5929,6.0482
11.5833,6.0961
11.5562,6.1366
11.5157,6.1637
11.4679,6.1732
9.7679,6.1732
9.7200,6.1637
9.6795,6.1366
9.6524,6.0961
9.6429,6.0482
Z" /> 
<path style="fill:#FFFFFF; fill-opacity:1.0000; 
stroke:#FFFFFF; stroke-width:0.0000; stroke-opacity:1; 
stroke-linecap:round; stroke-linejoin:round;fill-rule:evenodd;"
d="M 9.6429,6.4482
9.6524,6.4004
9.6795,6.3599
9.7200,6.3328
9.7679,6.3232
11.4679,6.3232
11.5157,6.3328
11.5562,6.3599
11.5833,6.4004
11.5929,6.4482
11.5929,6.6982
11.5833,6.7461
11.5562,6.7866
11.5157,6.8137
11.4679,6.8232
9.7679,6.8232
9.7200,6.8137
9.6795,6.7866
9.6524,6.7461
9.6429,6.6982
Z" /> 
<path style="fill:#FFFFFF; fill-opacity:1.0000; 
stroke:#FFFFFF; stroke-width:0.0000; stroke-opacity:1; 
stroke-linecap:round; stroke-linejoin:round;fill-rule:evenodd;"
d="M 9.6429,7.0982
9.6524,7.0504
9.6795,7.0099
9.7200,6.9828
9.7679,6.9732
11.4679,6.9732
11.5157,6.9828
11.5562,7.0099
11.5833,7.0504
11.5929,7.0982
11.5929,7.3482
11.5833,7.3961
11.5562,7.4366
11.5157,7.4637
11.4679,7.4732
9.7679,7.4732
9.7200,7.4637
9.6795,7.4366
9.6524,7.3961
9.6429,7.3482
Z" /> 
<path style="fill:#FFFFFF; fill-opacity:1.0000; 
stroke:#FFFFFF; stroke-width:0.0000; stroke-opacity:1; 
stroke-linecap:round; stroke-linejoin:round;fill-rule:evenodd;"
d="M 9.6429,7.7482
9.6524,7.7004
9.6795,7.6599
9.7200,7.6328
9.7679,7.6232
11.4679,7.6232
11.5157,7.6328
11.5562,7.6599
11.5833,7.7004
11.5929,7.7482
11.5929,7.9982
11.5833,8.0461
11.5562,8.0866
11.5157,8.1137
11.4679,8.1232
9.7679,8.1232
9.7200,8.1137
9.6795,8.0866
9.6524,8.0461
9.6429,7.9982
Z" /> 
<path style="fill:#FFFFFF; fill-opacity:1.0000; 
stroke:#FFFFFF; stroke-width:0.0000; stroke-opacity:1; 
stroke-linecap:round; stroke-linejoin:round;fill-rule:evenodd;"
d="M 9.6429,8.3982
9.6524,8.3504
9.6795,8.3099
9.7200,8.2828
9.7679,8.2732
11.4679,8.2732
11.5157,8.2828
11.5562,8.3099
11.5833,8.3504
11.5929,8.3982
11.5929,8.6482
11.5833,8.6961
11.5562,8.7366
11.5157,8.7637
11.4679,8.7732
9.7679,8.7732
9.7200,8.7637
9.6795,8.7366
9.6524,8.6961
9.6429,8.6482
Z" /> 
<path style="fill:#FFFFFF; fill-opacity:1.0000; 
stroke:#FFFFFF; stroke-width:0.0000; stroke-opacity:1; 
stroke-linecap:round; stroke-linejoin:round;fill-rule:evenodd;"
d="M 9.6429,9.0482
9.6524,9.0004
9.6795,8.9599
9.7200,8.9328
9.7679,8.9232
11.4679,8.9232
11.5157,8.9328
11.5562,8.9599
11.5833,9.0004
11.5929,9.0482
11.5929,9.2982
11.5833,9.3461
11.5562,9.3866
11.5157,9.4137
11.4679,9.4232
9.7679,9.4232
9.7200,9.4137
9.6795,9.3866
9.6524,9.3461
9.6429,9.2982
Z" /> 
<path style="fill:#FFFFFF; fill-opacity:1.0000; 
stroke:#FFFFFF; stroke-width:0.0000; stroke-opacity:1; 
stroke-linecap:round; stroke-linejoin:round;fill-rule:evenodd;"
d="M 9.6429,9.6982
9.6524,9.6504
9.6795,9.6099
9.7200,9.5828
9.7679,9.5732
11.4679,9.5732
11.5157,9.5828
11.5562,9.6099
11.5833,9.6504
11.5929,9.6982
11.5929,9.9482
11.5833,9.9961
11.5562,10.0366
11.5157,10.0637
11.4679,10.0732
9.7679,10.0732
9.7200,10.0637
9.6795,10.0366
9.6524,9.9961
9.6429,9.9482
Z" /> 
<path style="fill:#FFFFFF; fill-opacity:1.0000; 
stroke:#FFFFFF; stroke-width:0.0000; stroke-opacity:1; 
stroke-linecap:round; stroke-linejoin:round;fill-rule:evenodd;"
d="M 9.6429,10.3483
9.6524,10.3004
9.6795,10.2599
9.7200,10.2328
9.7679,10.2233
11.4679,10.2233
11.5157,10.2328
11.5562,10.2599
11.5833,10.3004
11.5929,10.3483
11.5929,10.5983
11.5833,10.6461
11.5562,10.6866
11.5157,10.7137
11.4679,10.7233
9.7679,10.7233
9.7200,10.7137
9.6795,10.6866
9.6524,10.6461
9.6429,10.5983
Z" /> 
<path style="fill:#FFFFFF; fill-opacity:1.0000; 
stroke:#FFFFFF; stroke-width:0.0000; stroke-opacity:1; 
stroke-linecap:round; stroke-linejoin:round;fill-rule:evenodd;"
d="M 9.6429,10.9982
9.6524,10.9504
9.6795,10.9099
9.7200,10.8828
9.7679,10.8732
11.4679,10.8732
11.5157,10.8828
11.5562,10.9099
11.5833,10.9504
11.5929,10.9982
11.5929,11.2482
11.5833,11.2961
11.5562,11.3366
11.5157,11.3637
11.4679,11.3732
9.7679,11.3732
9.7200,11.3637
9.6795,11.3366
9.6524,11.2961
9.6429,11.2482
Z" /> 
<path style="fill:#FFFFFF; fill-opacity:1.0000; 
stroke:#FFFFFF; stroke-width:0.0000; stroke-opacity:1; 
stroke-linecap:round; stroke-linejoin:round;fill-rule:evenodd;"
d="M 9.6429,11.6482
9.6524,11.6004
9.6795,11.5599
9.7200,11.5328
9.7679,11.5232
11.4679,11.5232
11.5157,11.5328
11.5562,11.5599
11.5833,11.6004
11.5929,11.6482
11.5929,11.8982
11.5833,11.9461
11.5562,11.9866
11.5157,12.0137
11.4679,12.0232
9.7679,12.0232
9.7200,12.0137
9.6795,11.9866
9.6524,11.9461
9.6429,11.8982
Z" /> 
<path style="fill:#FFFFFF; fill-opacity:1.0000; 
stroke:#FFFFFF; stroke-width:0.0000; stroke-opacity:1; 
stroke-linecap:round; stroke-linejoin:round;fill-rule:evenodd;"
d="M 18.9429,11.6482
18.9524,11.6004
18.9795,11.5599
19.0200,11.5328
19.0679,11.5232
20.7679,11.5232
20.8157,11.5328
20.8562,11.5599
20.8833,11.6004
20.8929,11.6482
20.8929,11.8982
20.8833,11.9461
20.8562,11.9866
20.8157,12.0137
20.7679,12.0232
19.0679,12.0232
19.0200,12.0137
18.9795,11.9866
18.9524,11.9461
18.9429,11.8982
Z" /> 
<path style="fill:#FFFFFF; fill-opacity:1.0000; 
stroke:#FFFFFF; stroke-width:0.0000; stroke-opacity:1; 
stroke-linecap:round; stroke-linejoin:round;fill-rule:evenodd;"
d="M 18.9429,10.9982
18.9524,10.9504
18.9795,10.9099
19.0200,10.8828
19.0679,10.8732
20.7679,10.8732
20.8157,10.8828
20.8562,10.9099
20.8833,10.9504
20.8929,10.9982
20.8929,11.2482
20.8833,11.2961
20.8562,11.3366
20.8157,11.3637
20.7679,11.3732
19.0679,11.3732
19.0200,11.3637
18.9795,11.3366
18.9524,11.2961
18.9429,11.2482
Z" /> 
<path style="fill:#FFFFFF; fill-opacity:1.0000; 
stroke:#FFFFFF; stroke-width:0.0000; stroke-opacity:1; 
stroke-linecap:round; stroke-linejoin:round;fill-rule:evenodd;"
d="M 18.9429,10.3483
18.9524,10.3004
18.9795,10.2599
19.0200,10.2328
19.0679,10.2233
20.7679,10.2233
20.8157,10.2328
20.8562,10.2599
20.8833,10.3004
20.8929,10.3483
20.8929,10.5983
20.8833,10.6461
20.8562,10.6866
20.8157,10.7137
20.7679,10.7233
19.0679,10.7233
19.0200,10.7137
18.9795,10.6866
18.9524,10.6461
18.9429,10.5983
Z" /> 
<path style="fill:#FFFFFF; fill-opacity:1.0000; 
stroke:#FFFFFF; stroke-width:0.0000; stroke-opacity:1; 
stroke-linecap:round; stroke-linejoin:round;fill-rule:evenodd;"
d="M 18.9429,9.6982
18.9524,9.6504
18.9795,9.6099
19.0200,9.5828
19.0679,9.5732
20.7679,9.5732
20.8157,9.5828
20.8562,9.6099
20.8833,9.6504
20.8929,9.6982
20.8929,9.9482
20.8833,9.9961
20.8562,10.0366
20.8157,10.0637
20.7679,10.0732
19.0679,10.0732
19.0200,10.0637
18.9795,10.0366
18.9524,9.9961
18.9429,9.9482
Z" /> 
<path style="fill:#FFFFFF; fill-opacity:1.0000; 
stroke:#FFFFFF; stroke-width:0.0000; stroke-opacity:1; 
stroke-linecap:round; stroke-linejoin:round;fill-rule:evenodd;"
d="M 18.9429,9.0482
18.9524,9.0004
18.9795,8.9599
19.0200,8.9328
19.0679,8.9232
20.7679,8.9232
20.8157,8.9328
20.8562,8.9599
20.8833,9.0004
20.8929,9.0482
20.8929,9.2982
20.8833,9.3461
20.8562,9.3866
20.8157,9.4137
20.7679,9.4232
19.0679,9.4232
19.0200,9.4137
18.9795,9.3866
18.9524,9.3461
18.9429,9.2982
Z" /> 
<path style="fill:#FFFFFF; fill-opacity:1.0000; 
stroke:#FFFFFF; stroke-width:0.0000; stroke-opacity:1; 
stroke-linecap:round; stroke-linejoin:round;fill-rule:evenodd;"
d="M 18.9429,3.1982
18.9524,3.1504
18.9795,3.1099
19.0200,3.0828
19.0679,3.0732
20.7679,3.0732
20.8157,3.0828
20.8562,3.1099
20.8833,3.1504
20.8929,3.1982
20.8929,3.4482
20.8833,3.4961
20.8562,3.5366
20.8157,3.5637
20.7679,3.5732
19.0679,3.5732
19.0200,3.5637
18.9795,3.5366
18.9524,3.4961
18.9429,3.4482
Z" /> 
<path style="fill:#FFFFFF; fill-opacity:1.0000; 
stroke:#FFFFFF; stroke-width:0.0000; stroke-opacity:1; 
stroke-linecap:round; stroke-linejoin:round;fill-rule:evenodd;"
d="M 18.9429,2.5482
18.9524,2.5004
18.9795,2.4599
19.0200,2.4328
19.0679,2.4232
20.7679,2.4232
20.8157,2.4328
20.8562,2.4599
20.8833,2.5004
20.8929,2.5482
20.8929,2.7982
20.8833,2.8461
20.8562,2.8866
20.8157,2.9137
20.7679,2.9232
19.0679,2.9232
19.0200,2.9137
18.9795,2.8866
18.9524,2.8461
18.9429,2.7982
Z" /> 
</g>
<g >
</g>
<g >
</g>
<g >
</g>
</g>
<g style="fill:#FFFFFF; fill-opacity:1.0000; 
stroke:#FFFFFF; stroke-width:0.0000; stroke-opacity:1; 
stroke-linecap:round; stroke-linejoin:round;">
<g >
<path style="fill:#FFFFFF; fill-opacity:1.0000; 
stroke:#FFFFFF; stroke-width:0.0000; stroke-opacity:1; 
stroke-linecap:round; stroke-linejoin:round;fill-rule:evenodd;"
d="M 9.6429,2.5482
9.6524,2.5004
9.6795,2.4599
9.7200,2.4328
9.7679,2.4232
11.4679,2.4232
11.5157,2.4328
11.5562,2.4599
11.5833,2.5004
11.5929,2.5482
11.5929,2.7982
11.5833,2.8461
11.5562,2.8866
11.5157,2.9137
11.4679,2.9232
9.7679,2.9232
9.7200,2.9137
9.6795,2.8866
9.6524,2.8461
9.6429,2.7982
Z" /> 
<path style="fill:#FFFFFF; fill-opacity:1.0000; 
stroke:#FFFFFF; stroke-width:0.0000; stroke-opacity:1; 
stroke-linecap:round; stroke-linejoin:round;fill-rule:evenodd;"
d="M 9.6429,3.1982
9.6524,3.1504
9.6795,3.1099
9.7200,3.0828
9.7679,3.0732
11.4679,3.0732
11.5157,3.0828
11.5562,3.1099
11.5833,3.1504
11.5929,3.1982
11.5929,3.4482
11.5833,3.4961
11.5562,3.5366
11.5157,3.5637
11.4679,3.5732
9.7679,3.5732
9.7200,3.5637
9.6795,3.5366
9.6524,3.4961
9.6429,3.4482
Z" /> 
<path style="fill:#FFFFFF; fill-opacity:1.0000; 
stroke:#FFFFFF; stroke-width:0.0000; stroke-opacity:1; 
stroke-linecap:round; stroke-linejoin:round;fill-rule:evenodd;"
d="M 9.6429,5.1482
9.6524,5.1004
9.6795,5.0599
9.7200,5.0328
9.7679,5.0232
11.4679,5.0232
11.5157,5.0328
11.5562,5.0599
11.5833,5.1004
11.5929,5.1482
11.5929,5.3982
11.5833,5.4461
11.5562,5.4866
11.5157,5.5137
11.4679,5.5232
9.7679,5.5232
9.7200,5.5137
9.6795,5.4866
9.6524,5.4461
9.6429,5.3982
Z" /> 
<path style="fill:#FFFFFF; fill-opacity:1.0000; 
stroke:#FFFFFF; stroke-width:0.0000; stroke-opacity:1; 
stroke-linecap:round; stroke-linejoin:round;fill-rule:evenodd;"
d="M 9.6429,5.7982
9.6524,5.7504
9.6795,5.7099
9.7200,5.6828
9.7679,5.6732
11.4679,5.6732
11.5157,5.6828
11.5562,5.7099
11.5833,5.7504
11.5929,5.7982
11.5929,6.0482
11.5833,6.0961
11.5562,6.1366
11.5157,6.1637
11.4679,6.1732
9.7679,6.1732
9.7200,6.1637
9.6795,6.1366
9.6524,6.0961
9.6429,6.0482
Z" /> 
<path style="fill:#FFFFFF; fill-opacity:1.0000; 
stroke:#FFFFFF; stroke-width:0.0000; stroke-opacity:1; 
stroke-linecap:round; stroke-linejoin:round;fill-rule:evenodd;"
d="M 9.6429,6.4482
9.6524,6.4004
9.6795,6.3599
9.7200,6.3328
9.7679,6.3232
11.4679,6.3232
11.5157,6.3328
11.5562,6.3599
11.5833,6.4004
11.5929,6.4482
11.5929,6.6982
11.5833,6.7461
11.5562,6.7866
11.5157,6.8137
11.4679,6.8232
9.7679,6.8232
9.7200,6.8137
9.6795,6.7866
9.6524,6.7461
9.6429,6.6982
Z" /> 
<path style="fill:#FFFFFF; fill-opacity:1.0000; 
stroke:#FFFFFF; stroke-width:0.0000; stroke-opacity:1; 
stroke-linecap:round; stroke-linejoin:round;fill-rule:evenodd;"
d="M 9.6429,7.0982
9.6524,7.0504
9.6795,7.0099
9.7200,6.9828
9.7679,6.9732
11.4679,6.9732
11.5157,6.9828
11.5562,7.0099
11.5833,7.0504
11.5929,7.0982
11.5929,7.3482
11.5833,7.3961
11.5562,7.4366
11.5157,7.4637
11.4679,7.4732
9.7679,7.4732
9.7200,7.4637
9.6795,7.4366
9.6524,7.3961
9.6429,7.3482
Z" /> 
<path style="fill:#FFFFFF; fill-opacity:1.0000; 
stroke:#FFFFFF; stroke-width:0.0000; stroke-opacity:1; 
stroke-linecap:round; stroke-linejoin:round;fill-rule:evenodd;"
d="M 9.6429,7.7482
9.6524,7.7004
9.6795,7.6599
9.7200,7.6328
9.7679,7.6232
11.4679,7.6232
11.5157,7.6328
11.5562,7.6599
11.5833,7.7004
11.5929,7.7482
11.5929,7.9982
11.5833,8.0461
11.5562,8.0866
11.5157,8.1137
11.4679,8.1232
9.7679,8.1232
9.7200,8.1137
9.6795,8.0866
9.6524,8.0461
9.6429,7.9982
Z" /> 
<path style="fill:#FFFFFF; fill-opacity:1.0000; 
stroke:#FFFFFF; stroke-width:0.0000; stroke-opacity:1; 
stroke-linecap:round; stroke-linejoin:round;fill-rule:evenodd;"
d="M 9.6429,8.3982
9.6524,8.3504
9.6795,8.3099
9.7200,8.2828
9.7679,8.2732
11.4679,8.2732
11.5157,8.2828
11.5562,8.3099
11.5833,8.3504
11.5929,8.3982
11.5929,8.6482
11.5833,8.6961
11.5562,8.7366
11.5157,8.7637
11.4679,8.7732
9.7679,8.7732
9.7200,8.7637
9.6795,8.7366
9.6524,8.6961
9.6429,8.6482
Z" /> 
<path style="fill:#FFFFFF; fill-opacity:1.0000; 
stroke:#FFFFFF; stroke-width:0.0000; stroke-opacity:1; 
stroke-linecap:round; stroke-linejoin:round;fill-rule:evenodd;"
d="M 9.6429,9.0482
9.6524,9.0004
9.6795,8.9599
9.7200,8.9328
9.7679,8.9232
11.4679,8.9232
11.5157,8.9328
11.5562,8.9599
11.5833,9.0004
11.5929,9.0482
11.5929,9.2982
11.5833,9.3461
11.5562,9.3866
11.5157,9.4137
11.4679,9.4232
9.7679,9.4232
9.7200,9.4137
9.6795,9.3866
9.6524,9.3461
9.6429,9.2982
Z" /> 
<path style="fill:#FFFFFF; fill-opacity:1.0000; 
stroke:#FFFFFF; stroke-width:0.0000; stroke-opacity:1; 
stroke-linecap:round; stroke-linejoin:round;fill-rule:evenodd;"
d="M 9.6429,9.6982
9.6524,9.6504
9.6795,9.6099
9.7200,9.5828
9.7679,9.5732
11.4679,9.5732
11.5157,9.5828
11.5562,9.6099
11.5833,9.6504
11.5929,9.6982
11.5929,9.9482
11.5833,9.9961
11.5562,10.0366
11.5157,10.0637
11.4679,10.0732
9.7679,10.0732
9.7200,10.0637
9.6795,10.0366
9.6524,9.9961
9.6429,9.9482
Z" /> 
<path style="fill:#FFFFFF; fill-opacity:1.0000; 
stroke:#FFFFFF; stroke-width:0.0000; stroke-opacity:1; 
stroke-linecap:round; stroke-linejoin:round;fill-rule:evenodd;"
d="M 9.6429,10.3483
9.6524,10.3004
9.6795,10.2599
9.7200,10.2328
9.7679,10.2233
11.4679,10.2233
11.5157,10.2328
11.5562,10.2599
11.5833,10.3004
11.5929,10.3483
11.5929,10.5983
11.5833,10.6461
11.5562,10.6866
11.5157,10.7137
11.4679,10.7233
9.7679,10.7233
9.7200,10.7137
9.6795,10.6866
9.6524,10.6461
9.6429,10.5983
Z" /> 
<path style="fill:#FFFFFF; fill-opacity:1.0000; 
stroke:#FFFFFF; stroke-width:0.0000; stroke-opacity:1; 
stroke-linecap:round; stroke-linejoin:round;fill-rule:evenodd;"
d="M 9.6429,10.9982
9.6524,10.9504
9.6795,10.9099
9.7200,10.8828
9.7679,10.8732
11.4679,10.8732
11.5157,10.8828
11.5562,10.9099
11.5833,10.9504
11.5929,10.9982
11.5929,11.2482
11.5833,11.2961
11.5562,11.3366
11.5157,11.3637
11.4679,11.3732
9.7679,11.3732
9.7200,11.3637
9.6795,11.3366
9.6524,11.2961
9.6429,11.2482
Z" /> 
<path style="fill:#FFFFFF; fill-opacity:1.0000; 
stroke:#FFFFFF; stroke-width:0.0000; stroke-opacity:1; 
stroke-linecap:round; stroke-linejoin:round;fill-rule:evenodd;"
d="M 9.6429,11.6482
9.6524,11.6004
9.6795,11.5599
9.7200,11.5328
9.7679,11.5232
11.4679,11.5232
11.5157,11.5328
11.5562,11.5599
11.5833,11.6004
11.5929,11.6482
11.5929,11.8982
11.5833,11.9461
11.5562,11.9866
11.5157,12.0137
11.4679,12.0232
9.7679,12.0232
9.7200,12.0137
9.6795,11.9866
9.6524,11.9461
9.6429,11.8982
Z" /> 
<path style="fill:#FFFFFF; fill-opacity:1.0000; 
stroke:#FFFFFF; stroke-width:0.0000; stroke-opacity:1; 
stroke-linecap:round; stroke-linejoin:round;fill-rule:evenodd;"
d="M 18.9429,11.6482
18.9524,11.6004
18.9795,11.5599
19.0200,11.5328
19.0679,11.5232
20.7679,11.5232
20.8157,11.5328
20.8562,11.5599
20.8833,11.6004
20.8929,11.6482
20.8929,11.8982
20.8833,11.9461
20.8562,11.9866
20.8157,12.0137
20.7679,12.0232
19.0679,12.0232
19.0200,12.0137
18.9795,11.9866
18.9524,11.9461
18.9429,11.8982
Z" /> 
<path style="fill:#FFFFFF; fill-opacity:1.0000; 
stroke:#FFFFFF; stroke-width:0.0000; stroke-opacity:1; 
stroke-linecap:round; stroke-linejoin:round;fill-rule:evenodd;"
d="M 18.9429,10.9982
18.9524,10.9504
18.9795,10.9099
19.0200,10.8828
19.0679,10.8732
20.7679,10.8732
20.8157,10.8828
20.8562,10.9099
20.8833,10.9504
20.8929,10.9982
20.8929,11.2482
20.8833,11.2961
20.8562,11.3366
20.8157,11.3637
20.7679,11.3732
19.0679,11.3732
19.0200,11.3637
18.9795,11.3366
18.9524,11.2961
18.9429,11.2482
Z" /> 
<path style="fill:#FFFFFF; fill-opacity:1.0000; 
stroke:#FFFFFF; stroke-width:0.0000; stroke-opacity:1; 
stroke-linecap:round; stroke-linejoin:round;fill-rule:evenodd;"
d="M 18.9429,10.3483
18.9524,10.3004
18.9795,10.2599
19.0200,10.2328
19.0679,10.2233
20.7679,10.2233
20.8157,10.2328
20.8562,10.2599
20.8833,10.3004
20.8929,10.3483
20.8929,10.5983
20.8833,10.6461
20.8562,10.6866
20.8157,10.7137
20.7679,10.7233
19.0679,10.7233
19.0200,10.7137
18.9795,10.6866
18.9524,10.6461
18.9429,10.5983
Z" /> 
<path style="fill:#FFFFFF; fill-opacity:1.0000; 
stroke:#FFFFFF; stroke-width:0.0000; stroke-opacity:1; 
stroke-linecap:round; stroke-linejoin:round;fill-rule:evenodd;"
d="M 18.9429,9.6982
18.9524,9.6504
18.9795,9.6099
19.0200,9.5828
19.0679,9.5732
20.7679,9.5732
20.8157,9.5828
20.8562,9.6099
20.8833,9.6504
20.8929,9.6982
20.8929,9.9482
20.8833,9.9961
20.8562,10.0366
20.8157,10.0637
20.7679,10.0732
19.0679,10.0732
19.0200,10.0637
18.9795,10.0366
18.9524,9.9961
18.9429,9.9482
Z" /> 
<path style="fill:#FFFFFF; fill-opacity:1.0000; 
stroke:#FFFFFF; stroke-width:0.0000; stroke-opacity:1; 
stroke-linecap:round; stroke-linejoin:round;fill-rule:evenodd;"
d="M 18.9429,9.0482
18.9524,9.0004
18.9795,8.9599
19.0200,8.9328
19.0679,8.9232
20.7679,8.9232
20.8157,8.9328
20.8562,8.9599
20.8833,9.0004
20.8929,9.0482
20.8929,9.2982
20.8833,9.3461
20.8562,9.3866
20.8157,9.4137
20.7679,9.4232
19.0679,9.4232
19.0200,9.4137
18.9795,9.3866
18.9524,9.3461
18.9429,9.2982
Z" /> 
<path style="fill:#FFFFFF; fill-opacity:1.0000; 
stroke:#FFFFFF; stroke-width:0.0000; stroke-opacity:1; 
stroke-linecap:round; stroke-linejoin:round;fill-rule:evenodd;"
d="M 18.9429,3.1982
18.9524,3.1504
18.9795,3.1099
19.0200,3.0828
19.0679,3.0732
20.7679,3.0732
20.8157,3.0828
20.8562,3.1099
20.8833,3.1504
20.8929,3.1982
20.8929,3.4482
20.8833,3.4961
20.8562,3.5366
20.8157,3.5637
20.7679,3.5732
19.0679,3.5732
19.0200,3.5637
18.9795,3.5366
18.9524,3.4961
18.9429,3.4482
Z" /> 
<path style="fill:#FFFFFF; fill-opacity:1.0000; 
stroke:#FFFFFF; stroke-width:0.0000; stroke-opacity:1; 
stroke-linecap:round; stroke-linejoin:round;fill-rule:evenodd;"
d="M 18.9429,2.5482
18.9524,2.5004
18.9795,2.4599
19.0200,2.4328
19.0679,2.4232
20.7679,2.4232
20.8157,2.4328
20.8562,2.4599
20.8833,2.5004
20.8929,2.5482
20.8929,2.7982
20.8833,2.8461
20.8562,2.8866
20.8157,2.9137
20.7679,2.9232
19.0679,2.9232
19.0200,2.9137
18.9795,2.8866
18.9524,2.8461
18.9429,2.7982
Z" /> 
</g>
<g >
</g>
<g >
</g>
<g >
</g>
</g>
<g style="fill:#FFFFFF; fill-opacity:1.0000; 
stroke:#FFFFFF; stroke-width:0.0000; stroke-opacity:1; 
stroke-linecap:round; stroke-linejoin:round;">
</g>
<g style="fill:#FFFFFF; fill-opacity:1.0000; 
stroke:#FFFFFF; stroke-width:0.1500; stroke-opacity:1; 
stroke-linecap:round; stroke-linejoin:round;">
</g>
<g style="fill:#FFFFFF; fill-opacity:0.0; 
stroke:#FFFFFF; stroke-width:0.1500; stroke-opacity:1; 
stroke-linecap:round; stroke-linejoin:round;">
<text x="15.2679" y="1.3482"
textLength="4.5357" font-size="1.3333" lengthAdjust="spacingAndGlyphs"
text-anchor="middle" opacity="0">REF**</text>
<g class="stroked-text"><desc>REF**</desc>
<path d="M13.9345 1.3031
L13.6012 0.8269
" />
<path d="M13.3631 1.3031
L13.3631 0.3031
" />
<path d="M13.3631 0.3031
L13.7440 0.3031
" />
<path d="M13.7440 0.3031
L13.8393 0.3507
" />
<path d="M13.8393 0.3507
L13.8869 0.3983
" />
<path d="M13.8869 0.3983
L13.9345 0.4935
" />
<path d="M13.9345 0.4935
L13.9345 0.6364
" />
<path d="M13.9345 0.6364
L13.8869 0.7316
" />
<path d="M13.8869 0.7316
L13.8393 0.7793
" />
<path d="M13.8393 0.7793
L13.7440 0.8269
" />
<path d="M13.7440 0.8269
L13.3631 0.8269
" />
<path d="M14.3631 0.7793
L14.6964 0.7793
" />
<path d="M14.8393 1.3031
L14.3631 1.3031
" />
<path d="M14.3631 1.3031
L14.3631 0.3031
" />
<path d="M14.3631 0.3031
L14.8393 0.3031
" />
<path d="M15.6012 0.7793
L15.2679 0.7793
" />
<path d="M15.2679 1.3031
L15.2679 0.3031
" />
<path d="M15.2679 0.3031
L15.7440 0.3031
" />
<path d="M16.2679 0.3031
L16.2679 0.5412
" />
<path d="M16.0298 0.4459
L16.2679 0.5412
" />
<path d="M16.2679 0.5412
L16.5060 0.4459
" />
<path d="M16.1250 0.7316
L16.2679 0.5412
" />
<path d="M16.2679 0.5412
L16.4107 0.7316
" />
<path d="M17.0298 0.3031
L17.0298 0.5412
" />
<path d="M16.7917 0.4459
L17.0298 0.5412
" />
<path d="M17.0298 0.5412
L17.2679 0.4459
" />
<path d="M16.8869 0.7316
L17.0298 0.5412
" />
<path d="M17.0298 0.5412
L17.1726 0.7316
" />
</g></g>
<g style="fill:#FFFFFF; fill-opacity:0.0; 
stroke:#FFFFFF; stroke-width:0.1200; stroke-opacity:1; 
stroke-linecap:round; stroke-linejoin:round;">
<path d="M15.2679 14.7082
L19.1279 14.7082
" />
<path d="M19.1279 14.7082
L19.1279 14.2332
" />
<path d="M15.2679 14.7082
L11.4079 14.7082
" />
<path d="M11.4079 14.7082
L11.4079 14.2332
" />
<path d="M15.2679 1.6883
L19.1279 1.6883
" />
<path d="M19.1279 1.6883
L19.1279 2.1633
" />
<path d="M15.2679 1.6883
L11.4079 1.6883
" />
<path d="M11.4079 1.6883
L11.4079 2.1633
" />
<path d="M11.4079 2.1633
L9.6429 2.1633
" />
<g >
</g>
<g >
</g>
<g >
</g>
<g >
</g>
</g> 
</svg>
