<?xml version="1.0" standalone="no"?>
 <!DOCTYPE svg PUBLIC "-//W3C//DTD SVG 1.1//EN" 
 "http://www.w3.org/Graphics/SVG/1.1/DTD/svg11.dtd"> 
<svg
  xmlns:svg="http://www.w3.org/2000/svg"
  xmlns="http://www.w3.org/2000/svg"
  xmlns:xlink="http://www.w3.org/1999/xlink"
  version="1.1"
  width="87.5792mm" height="34.7472mm" viewBox="0.0000 0.0000 87.5792 34.7472">
<title>SVG Image created as at25sf081-sshd-x.svg date 2024/01/16 15:21:12 </title>
  <desc>Image generated by Eeschema-SVG </desc>
<g style="fill:#000000; fill-opacity:1.0000;stroke:#000000; stroke-opacity:1.0000;
stroke-linecap:round; stroke-linejoin:round;"
 transform="translate(0 0) scale(1 1)">
</g>
<g style="fill:#000000; fill-opacity:0.0; 
stroke:#000000; stroke-width:0.0000; stroke-opacity:1; 
stroke-linecap:round; stroke-linejoin:round;">
</g>
<g style="fill:#000000; fill-opacity:0.0; 
stroke:#000000; stroke-width:0.2540; stroke-opacity:1; 
stroke-linecap:round; stroke-linejoin:round;">
<rect x="36.169600" y="7.213600" width="15.240000" height="20.320000" rx="0.000000" />
</g>
<g style="fill:#000000; fill-opacity:0.0; 
stroke:#000000; stroke-width:0.1524; stroke-opacity:1; 
stroke-linecap:round; stroke-linejoin:round;">
<path d="M36.1696 9.7536
L33.6296 9.7536
" />
<text x="36.6776" y="10.3886"
textLength="2.6827" font-size="1.6933" lengthAdjust="spacingAndGlyphs"
text-anchor="start" opacity="0">~{CS}</text>
<g class="stroked-text"><desc>~{CS}</desc>
<path d="M37.8058 10.2122
L37.7454 10.2727
" />
<path d="M37.7454 10.2727
L37.5639 10.3331
" />
<path d="M37.5639 10.3331
L37.4430 10.3331
" />
<path d="M37.4430 10.3331
L37.2616 10.2727
" />
<path d="M37.2616 10.2727
L37.1406 10.1517
" />
<path d="M37.1406 10.1517
L37.0801 10.0307
" />
<path d="M37.0801 10.0307
L37.0197 9.7888
" />
<path d="M37.0197 9.7888
L37.0197 9.6074
" />
<path d="M37.0197 9.6074
L37.0801 9.3655
" />
<path d="M37.0801 9.3655
L37.1406 9.2446
" />
<path d="M37.1406 9.2446
L37.2616 9.1236
" />
<path d="M37.2616 9.1236
L37.4430 9.0631
" />
<path d="M37.4430 9.0631
L37.5639 9.0631
" />
<path d="M37.5639 9.0631
L37.7454 9.1236
" />
<path d="M37.7454 9.1236
L37.8058 9.1841
" />
<path d="M38.2897 10.2727
L38.4711 10.3331
" />
<path d="M38.4711 10.3331
L38.7735 10.3331
" />
<path d="M38.7735 10.3331
L38.8944 10.2727
" />
<path d="M38.8944 10.2727
L38.9549 10.2122
" />
<path d="M38.9549 10.2122
L39.0154 10.0912
" />
<path d="M39.0154 10.0912
L39.0154 9.9703
" />
<path d="M39.0154 9.9703
L38.9549 9.8493
" />
<path d="M38.9549 9.8493
L38.8944 9.7888
" />
<path d="M38.8944 9.7888
L38.7735 9.7284
" />
<path d="M38.7735 9.7284
L38.5316 9.6679
" />
<path d="M38.5316 9.6679
L38.4106 9.6074
" />
<path d="M38.4106 9.6074
L38.3501 9.5469
" />
<path d="M38.3501 9.5469
L38.2897 9.4260
" />
<path d="M38.2897 9.4260
L38.2897 9.3050
" />
<path d="M38.2897 9.3050
L38.3501 9.1841
" />
<path d="M38.3501 9.1841
L38.4106 9.1236
" />
<path d="M38.4106 9.1236
L38.5316 9.0631
" />
<path d="M38.5316 9.0631
L38.8339 9.0631
" />
<path d="M38.8339 9.0631
L39.0154 9.1236
" />
<path d="M36.9048 8.7106
L39.1303 8.7106
" />
</g><text x="34.8996" y="9.4996"
textLength="1.4127" font-size="1.6933" lengthAdjust="spacingAndGlyphs"
text-anchor="middle" opacity="0">1</text>
<g class="stroked-text"><desc>1</desc>
<path d="M35.2625 9.3361
L34.5368 9.3361
" />
<path d="M34.8996 9.3361
L34.8996 8.0661
" />
<path d="M34.8996 8.0661
L34.7787 8.2476
" />
<path d="M34.7787 8.2476
L34.6577 8.3685
" />
<path d="M34.6577 8.3685
L34.5368 8.4290
" />
</g><path d="M36.1696 17.3736
L33.6296 17.3736
" />
<text x="36.6776" y="18.0086"
textLength="7.2185" font-size="1.6933" lengthAdjust="spacingAndGlyphs"
text-anchor="start" opacity="0">SO/IO1</text>
<g class="stroked-text"><desc>SO/IO1</desc>
<path d="M37.0197 17.8927
L37.2011 17.9531
" />
<path d="M37.2011 17.9531
L37.5035 17.9531
" />
<path d="M37.5035 17.9531
L37.6244 17.8927
" />
<path d="M37.6244 17.8927
L37.6849 17.8322
" />
<path d="M37.6849 17.8322
L37.7454 17.7112
" />
<path d="M37.7454 17.7112
L37.7454 17.5903
" />
<path d="M37.7454 17.5903
L37.6849 17.4693
" />
<path d="M37.6849 17.4693
L37.6244 17.4088
" />
<path d="M37.6244 17.4088
L37.5035 17.3484
" />
<path d="M37.5035 17.3484
L37.2616 17.2879
" />
<path d="M37.2616 17.2879
L37.1406 17.2274
" />
<path d="M37.1406 17.2274
L37.0801 17.1669
" />
<path d="M37.0801 17.1669
L37.0197 17.0460
" />
<path d="M37.0197 17.0460
L37.0197 16.9250
" />
<path d="M37.0197 16.9250
L37.0801 16.8041
" />
<path d="M37.0801 16.8041
L37.1406 16.7436
" />
<path d="M37.1406 16.7436
L37.2616 16.6831
" />
<path d="M37.2616 16.6831
L37.5639 16.6831
" />
<path d="M37.5639 16.6831
L37.7454 16.7436
" />
<path d="M38.5315 16.6831
L38.7734 16.6831
" />
<path d="M38.7734 16.6831
L38.8944 16.7436
" />
<path d="M38.8944 16.7436
L39.0153 16.8646
" />
<path d="M39.0153 16.8646
L39.0758 17.1065
" />
<path d="M39.0758 17.1065
L39.0758 17.5298
" />
<path d="M39.0758 17.5298
L39.0153 17.7717
" />
<path d="M39.0153 17.7717
L38.8944 17.8927
" />
<path d="M38.8944 17.8927
L38.7734 17.9531
" />
<path d="M38.7734 17.9531
L38.5315 17.9531
" />
<path d="M38.5315 17.9531
L38.4106 17.8927
" />
<path d="M38.4106 17.8927
L38.2896 17.7717
" />
<path d="M38.2896 17.7717
L38.2292 17.5298
" />
<path d="M38.2292 17.5298
L38.2292 17.1065
" />
<path d="M38.2292 17.1065
L38.2896 16.8646
" />
<path d="M38.2896 16.8646
L38.4106 16.7436
" />
<path d="M38.4106 16.7436
L38.5315 16.6831
" />
<path d="M40.5273 16.6227
L39.4387 18.2555
" />
<path d="M40.9506 17.9531
L40.9506 16.6831
" />
<path d="M41.7973 16.6831
L42.0392 16.6831
" />
<path d="M42.0392 16.6831
L42.1602 16.7436
" />
<path d="M42.1602 16.7436
L42.2811 16.8646
" />
<path d="M42.2811 16.8646
L42.3416 17.1065
" />
<path d="M42.3416 17.1065
L42.3416 17.5298
" />
<path d="M42.3416 17.5298
L42.2811 17.7717
" />
<path d="M42.2811 17.7717
L42.1602 17.8927
" />
<path d="M42.1602 17.8927
L42.0392 17.9531
" />
<path d="M42.0392 17.9531
L41.7973 17.9531
" />
<path d="M41.7973 17.9531
L41.6764 17.8927
" />
<path d="M41.6764 17.8927
L41.5554 17.7717
" />
<path d="M41.5554 17.7717
L41.4950 17.5298
" />
<path d="M41.4950 17.5298
L41.4950 17.1065
" />
<path d="M41.4950 17.1065
L41.5554 16.8646
" />
<path d="M41.5554 16.8646
L41.6764 16.7436
" />
<path d="M41.6764 16.7436
L41.7973 16.6831
" />
<path d="M43.5512 17.9531
L42.8255 17.9531
" />
<path d="M43.1883 17.9531
L43.1883 16.6831
" />
<path d="M43.1883 16.6831
L43.0674 16.8646
" />
<path d="M43.0674 16.8646
L42.9464 16.9855
" />
<path d="M42.9464 16.9855
L42.8255 17.0460
" />
</g><text x="34.8996" y="17.1196"
textLength="1.4127" font-size="1.6933" lengthAdjust="spacingAndGlyphs"
text-anchor="middle" opacity="0">2</text>
<g class="stroked-text"><desc>2</desc>
<path d="M34.5368 15.8071
L34.5972 15.7466
" />
<path d="M34.5972 15.7466
L34.7182 15.6861
" />
<path d="M34.7182 15.6861
L35.0206 15.6861
" />
<path d="M35.0206 15.6861
L35.1415 15.7466
" />
<path d="M35.1415 15.7466
L35.2020 15.8071
" />
<path d="M35.2020 15.8071
L35.2625 15.9280
" />
<path d="M35.2625 15.9280
L35.2625 16.0490
" />
<path d="M35.2625 16.0490
L35.2020 16.2304
" />
<path d="M35.2020 16.2304
L34.4763 16.9561
" />
<path d="M34.4763 16.9561
L35.2625 16.9561
" />
</g><path d="M36.1696 19.9136
L33.6296 19.9136
" />
<text x="36.6776" y="20.5486"
textLength="7.3999" font-size="1.6933" lengthAdjust="spacingAndGlyphs"
text-anchor="start" opacity="0">~{WP}/IO2</text>
<g class="stroked-text"><desc>~{WP}/IO2</desc>
<path d="M36.9592 19.2231
L37.2616 20.4931
" />
<path d="M37.2616 20.4931
L37.5035 19.5860
" />
<path d="M37.5035 19.5860
L37.7454 20.4931
" />
<path d="M37.7454 20.4931
L38.0478 19.2231
" />
<path d="M38.5315 20.4931
L38.5315 19.2231
" />
<path d="M38.5315 19.2231
L39.0153 19.2231
" />
<path d="M39.0153 19.2231
L39.1363 19.2836
" />
<path d="M39.1363 19.2836
L39.1968 19.3441
" />
<path d="M39.1968 19.3441
L39.2572 19.4650
" />
<path d="M39.2572 19.4650
L39.2572 19.6465
" />
<path d="M39.2572 19.6465
L39.1968 19.7674
" />
<path d="M39.1968 19.7674
L39.1363 19.8279
" />
<path d="M39.1363 19.8279
L39.0153 19.8884
" />
<path d="M39.0153 19.8884
L38.5315 19.8884
" />
<path d="M36.9048 18.8706
L39.3722 18.8706
" />
<path d="M40.7087 19.1627
L39.6201 20.7955
" />
<path d="M41.1320 20.4931
L41.1320 19.2231
" />
<path d="M41.9787 19.2231
L42.2206 19.2231
" />
<path d="M42.2206 19.2231
L42.3416 19.2836
" />
<path d="M42.3416 19.2836
L42.4625 19.4046
" />
<path d="M42.4625 19.4046
L42.5230 19.6465
" />
<path d="M42.5230 19.6465
L42.5230 20.0698
" />
<path d="M42.5230 20.0698
L42.4625 20.3117
" />
<path d="M42.4625 20.3117
L42.3416 20.4327
" />
<path d="M42.3416 20.4327
L42.2206 20.4931
" />
<path d="M42.2206 20.4931
L41.9787 20.4931
" />
<path d="M41.9787 20.4931
L41.8578 20.4327
" />
<path d="M41.8578 20.4327
L41.7368 20.3117
" />
<path d="M41.7368 20.3117
L41.6764 20.0698
" />
<path d="M41.6764 20.0698
L41.6764 19.6465
" />
<path d="M41.6764 19.6465
L41.7368 19.4046
" />
<path d="M41.7368 19.4046
L41.8578 19.2836
" />
<path d="M41.8578 19.2836
L41.9787 19.2231
" />
<path d="M43.0069 19.3441
L43.0673 19.2836
" />
<path d="M43.0673 19.2836
L43.1883 19.2231
" />
<path d="M43.1883 19.2231
L43.4907 19.2231
" />
<path d="M43.4907 19.2231
L43.6116 19.2836
" />
<path d="M43.6116 19.2836
L43.6721 19.3441
" />
<path d="M43.6721 19.3441
L43.7326 19.4650
" />
<path d="M43.7326 19.4650
L43.7326 19.5860
" />
<path d="M43.7326 19.5860
L43.6721 19.7674
" />
<path d="M43.6721 19.7674
L42.9464 20.4931
" />
<path d="M42.9464 20.4931
L43.7326 20.4931
" />
</g><text x="34.8996" y="19.6596"
textLength="1.4127" font-size="1.6933" lengthAdjust="spacingAndGlyphs"
text-anchor="middle" opacity="0">3</text>
<g class="stroked-text"><desc>3</desc>
<path d="M34.4763 18.2261
L35.2625 18.2261
" />
<path d="M35.2625 18.2261
L34.8391 18.7099
" />
<path d="M34.8391 18.7099
L35.0206 18.7099
" />
<path d="M35.0206 18.7099
L35.1415 18.7704
" />
<path d="M35.1415 18.7704
L35.2020 18.8309
" />
<path d="M35.2020 18.8309
L35.2625 18.9518
" />
<path d="M35.2625 18.9518
L35.2625 19.2542
" />
<path d="M35.2625 19.2542
L35.2020 19.3752
" />
<path d="M35.2020 19.3752
L35.1415 19.4357
" />
<path d="M35.1415 19.4357
L35.0206 19.4961
" />
<path d="M35.0206 19.4961
L34.6577 19.4961
" />
<path d="M34.6577 19.4961
L34.5368 19.4357
" />
<path d="M34.5368 19.4357
L34.4763 19.3752
" />
</g><path d="M43.7896 27.5336
L43.7896 30.0736
" />
<g transform="rotate(-90.000000 43.7896 27.0256)">
<text x="43.7896" y="27.6606"
textLength="4.0737" font-size="1.6933" lengthAdjust="spacingAndGlyphs"
text-anchor="start" opacity="0">GND</text>
</g>
<g class="stroked-text"><desc>GND</desc>
<path d="M43.1596 25.9577
L43.0991 26.0787
" />
<path d="M43.0991 26.0787
L43.0991 26.2601
" />
<path d="M43.0991 26.2601
L43.1596 26.4415
" />
<path d="M43.1596 26.4415
L43.2806 26.5625
" />
<path d="M43.2806 26.5625
L43.4015 26.6230
" />
<path d="M43.4015 26.6230
L43.6434 26.6834
" />
<path d="M43.6434 26.6834
L43.8248 26.6834
" />
<path d="M43.8248 26.6834
L44.0667 26.6230
" />
<path d="M44.0667 26.6230
L44.1877 26.5625
" />
<path d="M44.1877 26.5625
L44.3087 26.4415
" />
<path d="M44.3087 26.4415
L44.3691 26.2601
" />
<path d="M44.3691 26.2601
L44.3691 26.1392
" />
<path d="M44.3691 26.1392
L44.3087 25.9577
" />
<path d="M44.3087 25.9577
L44.2482 25.8973
" />
<path d="M44.2482 25.8973
L43.8248 25.8973
" />
<path d="M43.8248 25.8973
L43.8248 26.1392
" />
<path d="M44.3691 25.3530
L43.0991 25.3530
" />
<path d="M43.0991 25.3530
L44.3691 24.6273
" />
<path d="M44.3691 24.6273
L43.0991 24.6273
" />
<path d="M44.3691 24.0225
L43.0991 24.0225
" />
<path d="M43.0991 24.0225
L43.0991 23.7201
" />
<path d="M43.0991 23.7201
L43.1596 23.5387
" />
<path d="M43.1596 23.5387
L43.2806 23.4177
" />
<path d="M43.2806 23.4177
L43.4015 23.3572
" />
<path d="M43.4015 23.3572
L43.6434 23.2968
" />
<path d="M43.6434 23.2968
L43.8248 23.2968
" />
<path d="M43.8248 23.2968
L44.0667 23.3572
" />
<path d="M44.0667 23.3572
L44.1877 23.4177
" />
<path d="M44.1877 23.4177
L44.3087 23.5387
" />
<path d="M44.3087 23.5387
L44.3691 23.7201
" />
<path d="M44.3691 23.7201
L44.3691 24.0225
" />
</g><g transform="rotate(-90.000000 43.5356 28.8036)">
<text x="43.5356" y="28.8036"
textLength="1.4127" font-size="1.6933" lengthAdjust="spacingAndGlyphs"
text-anchor="middle" opacity="0">4</text>
</g>
<g class="stroked-text"><desc>4</desc>
<path d="M42.5255 28.5616
L43.3721 28.5616
" />
<path d="M42.0417 28.8640
L42.9488 29.1663
" />
<path d="M42.9488 29.1663
L42.9488 28.3802
" />
</g><path d="M36.1696 14.8336
L33.6296 14.8336
" />
<text x="36.6776" y="15.4686"
textLength="6.4928" font-size="1.6933" lengthAdjust="spacingAndGlyphs"
text-anchor="start" opacity="0">SI/IO0</text>
<g class="stroked-text"><desc>SI/IO0</desc>
<path d="M37.0197 15.3527
L37.2011 15.4131
" />
<path d="M37.2011 15.4131
L37.5035 15.4131
" />
<path d="M37.5035 15.4131
L37.6244 15.3527
" />
<path d="M37.6244 15.3527
L37.6849 15.2922
" />
<path d="M37.6849 15.2922
L37.7454 15.1712
" />
<path d="M37.7454 15.1712
L37.7454 15.0503
" />
<path d="M37.7454 15.0503
L37.6849 14.9293
" />
<path d="M37.6849 14.9293
L37.6244 14.8688
" />
<path d="M37.6244 14.8688
L37.5035 14.8084
" />
<path d="M37.5035 14.8084
L37.2616 14.7479
" />
<path d="M37.2616 14.7479
L37.1406 14.6874
" />
<path d="M37.1406 14.6874
L37.0801 14.6269
" />
<path d="M37.0801 14.6269
L37.0197 14.5060
" />
<path d="M37.0197 14.5060
L37.0197 14.3850
" />
<path d="M37.0197 14.3850
L37.0801 14.2641
" />
<path d="M37.0801 14.2641
L37.1406 14.2036
" />
<path d="M37.1406 14.2036
L37.2616 14.1431
" />
<path d="M37.2616 14.1431
L37.5639 14.1431
" />
<path d="M37.5639 14.1431
L37.7454 14.2036
" />
<path d="M38.2896 15.4131
L38.2896 14.1431
" />
<path d="M39.8016 14.0827
L38.7130 15.7155
" />
<path d="M40.2249 15.4131
L40.2249 14.1431
" />
<path d="M41.0716 14.1431
L41.3135 14.1431
" />
<path d="M41.3135 14.1431
L41.4345 14.2036
" />
<path d="M41.4345 14.2036
L41.5554 14.3246
" />
<path d="M41.5554 14.3246
L41.6159 14.5665
" />
<path d="M41.6159 14.5665
L41.6159 14.9898
" />
<path d="M41.6159 14.9898
L41.5554 15.2317
" />
<path d="M41.5554 15.2317
L41.4345 15.3527
" />
<path d="M41.4345 15.3527
L41.3135 15.4131
" />
<path d="M41.3135 15.4131
L41.0716 15.4131
" />
<path d="M41.0716 15.4131
L40.9507 15.3527
" />
<path d="M40.9507 15.3527
L40.8297 15.2317
" />
<path d="M40.8297 15.2317
L40.7693 14.9898
" />
<path d="M40.7693 14.9898
L40.7693 14.5665
" />
<path d="M40.7693 14.5665
L40.8297 14.3246
" />
<path d="M40.8297 14.3246
L40.9507 14.2036
" />
<path d="M40.9507 14.2036
L41.0716 14.1431
" />
<path d="M42.4021 14.1431
L42.5231 14.1431
" />
<path d="M42.5231 14.1431
L42.6440 14.2036
" />
<path d="M42.6440 14.2036
L42.7045 14.2641
" />
<path d="M42.7045 14.2641
L42.7650 14.3850
" />
<path d="M42.7650 14.3850
L42.8255 14.6269
" />
<path d="M42.8255 14.6269
L42.8255 14.9293
" />
<path d="M42.8255 14.9293
L42.7650 15.1712
" />
<path d="M42.7650 15.1712
L42.7045 15.2922
" />
<path d="M42.7045 15.2922
L42.6440 15.3527
" />
<path d="M42.6440 15.3527
L42.5231 15.4131
" />
<path d="M42.5231 15.4131
L42.4021 15.4131
" />
<path d="M42.4021 15.4131
L42.2812 15.3527
" />
<path d="M42.2812 15.3527
L42.2207 15.2922
" />
<path d="M42.2207 15.2922
L42.1602 15.1712
" />
<path d="M42.1602 15.1712
L42.0998 14.9293
" />
<path d="M42.0998 14.9293
L42.0998 14.6269
" />
<path d="M42.0998 14.6269
L42.1602 14.3850
" />
<path d="M42.1602 14.3850
L42.2207 14.2641
" />
<path d="M42.2207 14.2641
L42.2812 14.2036
" />
<path d="M42.2812 14.2036
L42.4021 14.1431
" />
</g><text x="34.8996" y="14.5796"
textLength="1.4127" font-size="1.6933" lengthAdjust="spacingAndGlyphs"
text-anchor="middle" opacity="0">5</text>
<g class="stroked-text"><desc>5</desc>
<path d="M35.2020 13.1461
L34.5972 13.1461
" />
<path d="M34.5972 13.1461
L34.5368 13.7509
" />
<path d="M34.5368 13.7509
L34.5972 13.6904
" />
<path d="M34.5972 13.6904
L34.7182 13.6299
" />
<path d="M34.7182 13.6299
L35.0206 13.6299
" />
<path d="M35.0206 13.6299
L35.1415 13.6904
" />
<path d="M35.1415 13.6904
L35.2020 13.7509
" />
<path d="M35.2020 13.7509
L35.2625 13.8718
" />
<path d="M35.2625 13.8718
L35.2625 14.1742
" />
<path d="M35.2625 14.1742
L35.2020 14.2952
" />
<path d="M35.2020 14.2952
L35.1415 14.3557
" />
<path d="M35.1415 14.3557
L35.0206 14.4161
" />
<path d="M35.0206 14.4161
L34.7182 14.4161
" />
<path d="M34.7182 14.4161
L34.5972 14.3557
" />
<path d="M34.5972 14.3557
L34.5368 14.2952
" />
</g><path d="M36.1696 12.2936
L33.6296 12.2936
" />
<text x="36.6776" y="12.9286"
textLength="3.9527" font-size="1.6933" lengthAdjust="spacingAndGlyphs"
text-anchor="start" opacity="0">SCK</text>
<g class="stroked-text"><desc>SCK</desc>
<path d="M37.0197 12.8127
L37.2011 12.8731
" />
<path d="M37.2011 12.8731
L37.5035 12.8731
" />
<path d="M37.5035 12.8731
L37.6244 12.8127
" />
<path d="M37.6244 12.8127
L37.6849 12.7522
" />
<path d="M37.6849 12.7522
L37.7454 12.6312
" />
<path d="M37.7454 12.6312
L37.7454 12.5103
" />
<path d="M37.7454 12.5103
L37.6849 12.3893
" />
<path d="M37.6849 12.3893
L37.6244 12.3288
" />
<path d="M37.6244 12.3288
L37.5035 12.2684
" />
<path d="M37.5035 12.2684
L37.2616 12.2079
" />
<path d="M37.2616 12.2079
L37.1406 12.1474
" />
<path d="M37.1406 12.1474
L37.0801 12.0869
" />
<path d="M37.0801 12.0869
L37.0197 11.9660
" />
<path d="M37.0197 11.9660
L37.0197 11.8450
" />
<path d="M37.0197 11.8450
L37.0801 11.7241
" />
<path d="M37.0801 11.7241
L37.1406 11.6636
" />
<path d="M37.1406 11.6636
L37.2616 11.6031
" />
<path d="M37.2616 11.6031
L37.5639 11.6031
" />
<path d="M37.5639 11.6031
L37.7454 11.6636
" />
<path d="M39.0153 12.7522
L38.9549 12.8127
" />
<path d="M38.9549 12.8127
L38.7734 12.8731
" />
<path d="M38.7734 12.8731
L38.6525 12.8731
" />
<path d="M38.6525 12.8731
L38.4711 12.8127
" />
<path d="M38.4711 12.8127
L38.3501 12.6917
" />
<path d="M38.3501 12.6917
L38.2896 12.5707
" />
<path d="M38.2896 12.5707
L38.2292 12.3288
" />
<path d="M38.2292 12.3288
L38.2292 12.1474
" />
<path d="M38.2292 12.1474
L38.2896 11.9055
" />
<path d="M38.2896 11.9055
L38.3501 11.7846
" />
<path d="M38.3501 11.7846
L38.4711 11.6636
" />
<path d="M38.4711 11.6636
L38.6525 11.6031
" />
<path d="M38.6525 11.6031
L38.7734 11.6031
" />
<path d="M38.7734 11.6031
L38.9549 11.6636
" />
<path d="M38.9549 11.6636
L39.0153 11.7241
" />
<path d="M39.5596 12.8731
L39.5596 11.6031
" />
<path d="M40.2853 12.8731
L39.7411 12.1474
" />
<path d="M40.2853 11.6031
L39.5596 12.3288
" />
</g><text x="34.8996" y="12.0396"
textLength="1.4127" font-size="1.6933" lengthAdjust="spacingAndGlyphs"
text-anchor="middle" opacity="0">6</text>
<g class="stroked-text"><desc>6</desc>
<path d="M35.1415 10.6061
L34.8996 10.6061
" />
<path d="M34.8996 10.6061
L34.7787 10.6666
" />
<path d="M34.7787 10.6666
L34.7182 10.7271
" />
<path d="M34.7182 10.7271
L34.5972 10.9085
" />
<path d="M34.5972 10.9085
L34.5368 11.1504
" />
<path d="M34.5368 11.1504
L34.5368 11.6342
" />
<path d="M34.5368 11.6342
L34.5972 11.7552
" />
<path d="M34.5972 11.7552
L34.6577 11.8157
" />
<path d="M34.6577 11.8157
L34.7787 11.8761
" />
<path d="M34.7787 11.8761
L35.0206 11.8761
" />
<path d="M35.0206 11.8761
L35.1415 11.8157
" />
<path d="M35.1415 11.8157
L35.2020 11.7552
" />
<path d="M35.2020 11.7552
L35.2625 11.6342
" />
<path d="M35.2625 11.6342
L35.2625 11.3318
" />
<path d="M35.2625 11.3318
L35.2020 11.2109
" />
<path d="M35.2020 11.2109
L35.1415 11.1504
" />
<path d="M35.1415 11.1504
L35.0206 11.0899
" />
<path d="M35.0206 11.0899
L34.7787 11.0899
" />
<path d="M34.7787 11.0899
L34.6577 11.1504
" />
<path d="M34.6577 11.1504
L34.5972 11.2109
" />
<path d="M34.5972 11.2109
L34.5368 11.3318
" />
</g><path d="M36.1696 22.4536
L33.6296 22.4536
" />
<text x="36.6776" y="23.0886"
textLength="9.6376" font-size="1.6933" lengthAdjust="spacingAndGlyphs"
text-anchor="start" opacity="0">~{HOLD}/IO3</text>
<g class="stroked-text"><desc>~{HOLD}/IO3</desc>
<path d="M37.0801 23.0331
L37.0801 21.7631
" />
<path d="M37.0801 22.3679
L37.8058 22.3679
" />
<path d="M37.8058 23.0331
L37.8058 21.7631
" />
<path d="M38.6525 21.7631
L38.8944 21.7631
" />
<path d="M38.8944 21.7631
L39.0154 21.8236
" />
<path d="M39.0154 21.8236
L39.1363 21.9446
" />
<path d="M39.1363 21.9446
L39.1968 22.1865
" />
<path d="M39.1968 22.1865
L39.1968 22.6098
" />
<path d="M39.1968 22.6098
L39.1363 22.8517
" />
<path d="M39.1363 22.8517
L39.0154 22.9727
" />
<path d="M39.0154 22.9727
L38.8944 23.0331
" />
<path d="M38.8944 23.0331
L38.6525 23.0331
" />
<path d="M38.6525 23.0331
L38.5316 22.9727
" />
<path d="M38.5316 22.9727
L38.4106 22.8517
" />
<path d="M38.4106 22.8517
L38.3502 22.6098
" />
<path d="M38.3502 22.6098
L38.3502 22.1865
" />
<path d="M38.3502 22.1865
L38.4106 21.9446
" />
<path d="M38.4106 21.9446
L38.5316 21.8236
" />
<path d="M38.5316 21.8236
L38.6525 21.7631
" />
<path d="M40.3459 23.0331
L39.7411 23.0331
" />
<path d="M39.7411 23.0331
L39.7411 21.7631
" />
<path d="M40.7692 23.0331
L40.7692 21.7631
" />
<path d="M40.7692 21.7631
L41.0716 21.7631
" />
<path d="M41.0716 21.7631
L41.2530 21.8236
" />
<path d="M41.2530 21.8236
L41.3740 21.9446
" />
<path d="M41.3740 21.9446
L41.4345 22.0655
" />
<path d="M41.4345 22.0655
L41.4949 22.3074
" />
<path d="M41.4949 22.3074
L41.4949 22.4888
" />
<path d="M41.4949 22.4888
L41.4345 22.7307
" />
<path d="M41.4345 22.7307
L41.3740 22.8517
" />
<path d="M41.3740 22.8517
L41.2530 22.9727
" />
<path d="M41.2530 22.9727
L41.0716 23.0331
" />
<path d="M41.0716 23.0331
L40.7692 23.0331
" />
<path d="M36.9048 21.4106
L41.6099 21.4106
" />
<path d="M42.9464 21.7027
L41.8578 23.3355
" />
<path d="M43.3697 23.0331
L43.3697 21.7631
" />
<path d="M44.2164 21.7631
L44.4583 21.7631
" />
<path d="M44.4583 21.7631
L44.5793 21.8236
" />
<path d="M44.5793 21.8236
L44.7002 21.9446
" />
<path d="M44.7002 21.9446
L44.7607 22.1865
" />
<path d="M44.7607 22.1865
L44.7607 22.6098
" />
<path d="M44.7607 22.6098
L44.7002 22.8517
" />
<path d="M44.7002 22.8517
L44.5793 22.9727
" />
<path d="M44.5793 22.9727
L44.4583 23.0331
" />
<path d="M44.4583 23.0331
L44.2164 23.0331
" />
<path d="M44.2164 23.0331
L44.0955 22.9727
" />
<path d="M44.0955 22.9727
L43.9745 22.8517
" />
<path d="M43.9745 22.8517
L43.9141 22.6098
" />
<path d="M43.9141 22.6098
L43.9141 22.1865
" />
<path d="M43.9141 22.1865
L43.9745 21.9446
" />
<path d="M43.9745 21.9446
L44.0955 21.8236
" />
<path d="M44.0955 21.8236
L44.2164 21.7631
" />
<path d="M45.1841 21.7631
L45.9703 21.7631
" />
<path d="M45.9703 21.7631
L45.5469 22.2469
" />
<path d="M45.5469 22.2469
L45.7284 22.2469
" />
<path d="M45.7284 22.2469
L45.8493 22.3074
" />
<path d="M45.8493 22.3074
L45.9098 22.3679
" />
<path d="M45.9098 22.3679
L45.9703 22.4888
" />
<path d="M45.9703 22.4888
L45.9703 22.7912
" />
<path d="M45.9703 22.7912
L45.9098 22.9122
" />
<path d="M45.9098 22.9122
L45.8493 22.9727
" />
<path d="M45.8493 22.9727
L45.7284 23.0331
" />
<path d="M45.7284 23.0331
L45.3655 23.0331
" />
<path d="M45.3655 23.0331
L45.2446 22.9727
" />
<path d="M45.2446 22.9727
L45.1841 22.9122
" />
</g><text x="34.8996" y="22.1996"
textLength="1.4127" font-size="1.6933" lengthAdjust="spacingAndGlyphs"
text-anchor="middle" opacity="0">7</text>
<g class="stroked-text"><desc>7</desc>
<path d="M34.4763 20.7661
L35.3229 20.7661
" />
<path d="M35.3229 20.7661
L34.7787 22.0361
" />
</g><path d="M43.7896 7.2136
L43.7896 4.6736
" />
<g transform="rotate(-90.000000 43.7896 7.7216)">
<text x="43.7896" y="8.3566"
textLength="3.8318" font-size="1.6933" lengthAdjust="spacingAndGlyphs"
text-anchor="end" opacity="0">VCC</text>
</g>
<g class="stroked-text"><desc>VCC</desc>
<path d="M43.0991 11.3294
L44.3691 10.9061
" />
<path d="M44.3691 10.9061
L43.0991 10.4827
" />
<path d="M44.2482 9.3337
L44.3087 9.3941
" />
<path d="M44.3087 9.3941
L44.3691 9.5756
" />
<path d="M44.3691 9.5756
L44.3691 9.6965
" />
<path d="M44.3691 9.6965
L44.3087 9.8779
" />
<path d="M44.3087 9.8779
L44.1877 9.9989
" />
<path d="M44.1877 9.9989
L44.0667 10.0594
" />
<path d="M44.0667 10.0594
L43.8248 10.1198
" />
<path d="M43.8248 10.1198
L43.6434 10.1198
" />
<path d="M43.6434 10.1198
L43.4015 10.0594
" />
<path d="M43.4015 10.0594
L43.2806 9.9989
" />
<path d="M43.2806 9.9989
L43.1596 9.8779
" />
<path d="M43.1596 9.8779
L43.0991 9.6965
" />
<path d="M43.0991 9.6965
L43.0991 9.5756
" />
<path d="M43.0991 9.5756
L43.1596 9.3941
" />
<path d="M43.1596 9.3941
L43.2201 9.3337
" />
<path d="M44.2482 8.0637
L44.3087 8.1241
" />
<path d="M44.3087 8.1241
L44.3691 8.3056
" />
<path d="M44.3691 8.3056
L44.3691 8.4265
" />
<path d="M44.3691 8.4265
L44.3087 8.6079
" />
<path d="M44.3087 8.6079
L44.1877 8.7289
" />
<path d="M44.1877 8.7289
L44.0667 8.7894
" />
<path d="M44.0667 8.7894
L43.8248 8.8498
" />
<path d="M43.8248 8.8498
L43.6434 8.8498
" />
<path d="M43.6434 8.8498
L43.4015 8.7894
" />
<path d="M43.4015 8.7894
L43.2806 8.7289
" />
<path d="M43.2806 8.7289
L43.1596 8.6079
" />
<path d="M43.1596 8.6079
L43.0991 8.4265
" />
<path d="M43.0991 8.4265
L43.0991 8.3056
" />
<path d="M43.0991 8.3056
L43.1596 8.1241
" />
<path d="M43.1596 8.1241
L43.2201 8.0637
" />
</g><g transform="rotate(-90.000000 43.5356 5.9436)">
<text x="43.5356" y="5.9436"
textLength="1.4127" font-size="1.6933" lengthAdjust="spacingAndGlyphs"
text-anchor="middle" opacity="0">8</text>
</g>
<g class="stroked-text"><desc>8</desc>
<path d="M42.6464 6.0644
L42.5859 6.1854
" />
<path d="M42.5859 6.1854
L42.5255 6.2459
" />
<path d="M42.5255 6.2459
L42.4045 6.3063
" />
<path d="M42.4045 6.3063
L42.3440 6.3063
" />
<path d="M42.3440 6.3063
L42.2231 6.2459
" />
<path d="M42.2231 6.2459
L42.1626 6.1854
" />
<path d="M42.1626 6.1854
L42.1021 6.0644
" />
<path d="M42.1021 6.0644
L42.1021 5.8225
" />
<path d="M42.1021 5.8225
L42.1626 5.7016
" />
<path d="M42.1626 5.7016
L42.2231 5.6411
" />
<path d="M42.2231 5.6411
L42.3440 5.5806
" />
<path d="M42.3440 5.5806
L42.4045 5.5806
" />
<path d="M42.4045 5.5806
L42.5255 5.6411
" />
<path d="M42.5255 5.6411
L42.5859 5.7016
" />
<path d="M42.5859 5.7016
L42.6464 5.8225
" />
<path d="M42.6464 5.8225
L42.6464 6.0644
" />
<path d="M42.6464 6.0644
L42.7069 6.1854
" />
<path d="M42.7069 6.1854
L42.7674 6.2459
" />
<path d="M42.7674 6.2459
L42.8883 6.3063
" />
<path d="M42.8883 6.3063
L43.1302 6.3063
" />
<path d="M43.1302 6.3063
L43.2512 6.2459
" />
<path d="M43.2512 6.2459
L43.3117 6.1854
" />
<path d="M43.3117 6.1854
L43.3721 6.0644
" />
<path d="M43.3721 6.0644
L43.3721 5.8225
" />
<path d="M43.3721 5.8225
L43.3117 5.7016
" />
<path d="M43.3117 5.7016
L43.2512 5.6411
" />
<path d="M43.2512 5.6411
L43.1302 5.5806
" />
<path d="M43.1302 5.5806
L42.8883 5.5806
" />
<path d="M42.8883 5.5806
L42.7674 5.6411
" />
<path d="M42.7674 5.6411
L42.7069 5.7016
" />
<path d="M42.7069 5.7016
L42.6464 5.8225
" />
</g></g>
<g style="fill:#000000; fill-opacity:0.0; 
stroke:#000000; stroke-width:0.1588; stroke-opacity:1; 
stroke-linecap:round; stroke-linejoin:round;">
<text x="37.4396" y="6.5786"
textLength="2.6415" font-size="1.6933" lengthAdjust="spacingAndGlyphs"
text-anchor="middle" opacity="0">U?</text>
<g class="stroked-text"><desc>U?</desc>
<path d="M36.5324 5.2528
L36.5324 6.2809
" />
<path d="M36.5324 6.2809
L36.5929 6.4019
" />
<path d="M36.5929 6.4019
L36.6534 6.4624
" />
<path d="M36.6534 6.4624
L36.7743 6.5228
" />
<path d="M36.7743 6.5228
L37.0162 6.5228
" />
<path d="M37.0162 6.5228
L37.1372 6.4624
" />
<path d="M37.1372 6.4624
L37.1977 6.4019
" />
<path d="M37.1977 6.4019
L37.2581 6.2809
" />
<path d="M37.2581 6.2809
L37.2581 5.2528
" />
<path d="M38.0444 6.4019
L38.1048 6.4624
" />
<path d="M38.1048 6.4624
L38.0444 6.5228
" />
<path d="M38.0444 6.5228
L37.9839 6.4624
" />
<path d="M37.9839 6.4624
L38.0444 6.4019
" />
<path d="M38.0444 6.4019
L38.0444 6.5228
" />
<path d="M37.8025 5.3133
L37.9234 5.2528
" />
<path d="M37.9234 5.2528
L38.2258 5.2528
" />
<path d="M38.2258 5.2528
L38.3467 5.3133
" />
<path d="M38.3467 5.3133
L38.4072 5.4343
" />
<path d="M38.4072 5.4343
L38.4072 5.5552
" />
<path d="M38.4072 5.5552
L38.3467 5.6762
" />
<path d="M38.3467 5.6762
L38.2863 5.7366
" />
<path d="M38.2863 5.7366
L38.1653 5.7971
" />
<path d="M38.1653 5.7971
L38.1048 5.8576
" />
<path d="M38.1048 5.8576
L38.0444 5.9785
" />
<path d="M38.0444 5.9785
L38.0444 6.0390
" />
</g><text x="55.2196" y="6.5786"
textLength="19.9980" font-size="1.6933" lengthAdjust="spacingAndGlyphs"
text-anchor="middle" opacity="0">AT25SF081-SSHD-X</text>
<g class="stroked-text"><desc>AT25SF081-SSHD-X</desc>
<path d="M45.5737 6.1600
L46.1784 6.1600
" />
<path d="M45.4527 6.5228
L45.8760 5.2528
" />
<path d="M45.8760 5.2528
L46.2994 6.5228
" />
<path d="M46.5413 5.2528
L47.2670 5.2528
" />
<path d="M46.9042 6.5228
L46.9042 5.2528
" />
<path d="M47.6299 5.3738
L47.6903 5.3133
" />
<path d="M47.6903 5.3133
L47.8113 5.2528
" />
<path d="M47.8113 5.2528
L48.1137 5.2528
" />
<path d="M48.1137 5.2528
L48.2346 5.3133
" />
<path d="M48.2346 5.3133
L48.2951 5.3738
" />
<path d="M48.2951 5.3738
L48.3556 5.4947
" />
<path d="M48.3556 5.4947
L48.3556 5.6157
" />
<path d="M48.3556 5.6157
L48.2951 5.7971
" />
<path d="M48.2951 5.7971
L47.5694 6.5228
" />
<path d="M47.5694 6.5228
L48.3556 6.5228
" />
<path d="M49.5046 5.2528
L48.8998 5.2528
" />
<path d="M48.8998 5.2528
L48.8394 5.8576
" />
<path d="M48.8394 5.8576
L48.8998 5.7971
" />
<path d="M48.8998 5.7971
L49.0208 5.7366
" />
<path d="M49.0208 5.7366
L49.3232 5.7366
" />
<path d="M49.3232 5.7366
L49.4441 5.7971
" />
<path d="M49.4441 5.7971
L49.5046 5.8576
" />
<path d="M49.5046 5.8576
L49.5651 5.9785
" />
<path d="M49.5651 5.9785
L49.5651 6.2809
" />
<path d="M49.5651 6.2809
L49.5046 6.4019
" />
<path d="M49.5046 6.4019
L49.4441 6.4624
" />
<path d="M49.4441 6.4624
L49.3232 6.5228
" />
<path d="M49.3232 6.5228
L49.0208 6.5228
" />
<path d="M49.0208 6.5228
L48.8998 6.4624
" />
<path d="M48.8998 6.4624
L48.8394 6.4019
" />
<path d="M50.0489 6.4624
L50.2303 6.5228
" />
<path d="M50.2303 6.5228
L50.5327 6.5228
" />
<path d="M50.5327 6.5228
L50.6536 6.4624
" />
<path d="M50.6536 6.4624
L50.7141 6.4019
" />
<path d="M50.7141 6.4019
L50.7746 6.2809
" />
<path d="M50.7746 6.2809
L50.7746 6.1600
" />
<path d="M50.7746 6.1600
L50.7141 6.0390
" />
<path d="M50.7141 6.0390
L50.6536 5.9785
" />
<path d="M50.6536 5.9785
L50.5327 5.9181
" />
<path d="M50.5327 5.9181
L50.2908 5.8576
" />
<path d="M50.2908 5.8576
L50.1698 5.7971
" />
<path d="M50.1698 5.7971
L50.1093 5.7366
" />
<path d="M50.1093 5.7366
L50.0489 5.6157
" />
<path d="M50.0489 5.6157
L50.0489 5.4947
" />
<path d="M50.0489 5.4947
L50.1093 5.3738
" />
<path d="M50.1093 5.3738
L50.1698 5.3133
" />
<path d="M50.1698 5.3133
L50.2908 5.2528
" />
<path d="M50.2908 5.2528
L50.5931 5.2528
" />
<path d="M50.5931 5.2528
L50.7746 5.3133
" />
<path d="M51.7422 5.8576
L51.3188 5.8576
" />
<path d="M51.3188 6.5228
L51.3188 5.2528
" />
<path d="M51.3188 5.2528
L51.9236 5.2528
" />
<path d="M52.6493 5.2528
L52.7703 5.2528
" />
<path d="M52.7703 5.2528
L52.8912 5.3133
" />
<path d="M52.8912 5.3133
L52.9517 5.3738
" />
<path d="M52.9517 5.3738
L53.0122 5.4947
" />
<path d="M53.0122 5.4947
L53.0727 5.7366
" />
<path d="M53.0727 5.7366
L53.0727 6.0390
" />
<path d="M53.0727 6.0390
L53.0122 6.2809
" />
<path d="M53.0122 6.2809
L52.9517 6.4019
" />
<path d="M52.9517 6.4019
L52.8912 6.4624
" />
<path d="M52.8912 6.4624
L52.7703 6.5228
" />
<path d="M52.7703 6.5228
L52.6493 6.5228
" />
<path d="M52.6493 6.5228
L52.5284 6.4624
" />
<path d="M52.5284 6.4624
L52.4679 6.4019
" />
<path d="M52.4679 6.4019
L52.4074 6.2809
" />
<path d="M52.4074 6.2809
L52.3470 6.0390
" />
<path d="M52.3470 6.0390
L52.3470 5.7366
" />
<path d="M52.3470 5.7366
L52.4074 5.4947
" />
<path d="M52.4074 5.4947
L52.4679 5.3738
" />
<path d="M52.4679 5.3738
L52.5284 5.3133
" />
<path d="M52.5284 5.3133
L52.6493 5.2528
" />
<path d="M53.7984 5.7971
L53.6774 5.7366
" />
<path d="M53.6774 5.7366
L53.6169 5.6762
" />
<path d="M53.6169 5.6762
L53.5565 5.5552
" />
<path d="M53.5565 5.5552
L53.5565 5.4947
" />
<path d="M53.5565 5.4947
L53.6169 5.3738
" />
<path d="M53.6169 5.3738
L53.6774 5.3133
" />
<path d="M53.6774 5.3133
L53.7984 5.2528
" />
<path d="M53.7984 5.2528
L54.0403 5.2528
" />
<path d="M54.0403 5.2528
L54.1612 5.3133
" />
<path d="M54.1612 5.3133
L54.2217 5.3738
" />
<path d="M54.2217 5.3738
L54.2822 5.4947
" />
<path d="M54.2822 5.4947
L54.2822 5.5552
" />
<path d="M54.2822 5.5552
L54.2217 5.6762
" />
<path d="M54.2217 5.6762
L54.1612 5.7366
" />
<path d="M54.1612 5.7366
L54.0403 5.7971
" />
<path d="M54.0403 5.7971
L53.7984 5.7971
" />
<path d="M53.7984 5.7971
L53.6774 5.8576
" />
<path d="M53.6774 5.8576
L53.6169 5.9181
" />
<path d="M53.6169 5.9181
L53.5565 6.0390
" />
<path d="M53.5565 6.0390
L53.5565 6.2809
" />
<path d="M53.5565 6.2809
L53.6169 6.4019
" />
<path d="M53.6169 6.4019
L53.6774 6.4624
" />
<path d="M53.6774 6.4624
L53.7984 6.5228
" />
<path d="M53.7984 6.5228
L54.0403 6.5228
" />
<path d="M54.0403 6.5228
L54.1612 6.4624
" />
<path d="M54.1612 6.4624
L54.2217 6.4019
" />
<path d="M54.2217 6.4019
L54.2822 6.2809
" />
<path d="M54.2822 6.2809
L54.2822 6.0390
" />
<path d="M54.2822 6.0390
L54.2217 5.9181
" />
<path d="M54.2217 5.9181
L54.1612 5.8576
" />
<path d="M54.1612 5.8576
L54.0403 5.7971
" />
<path d="M55.4917 6.5228
L54.7660 6.5228
" />
<path d="M55.1288 6.5228
L55.1288 5.2528
" />
<path d="M55.1288 5.2528
L55.0079 5.4343
" />
<path d="M55.0079 5.4343
L54.8869 5.5552
" />
<path d="M54.8869 5.5552
L54.7660 5.6157
" />
<path d="M56.0359 6.0390
L57.0036 6.0390
" />
<path d="M57.5479 6.4624
L57.7293 6.5228
" />
<path d="M57.7293 6.5228
L58.0317 6.5228
" />
<path d="M58.0317 6.5228
L58.1526 6.4624
" />
<path d="M58.1526 6.4624
L58.2131 6.4019
" />
<path d="M58.2131 6.4019
L58.2736 6.2809
" />
<path d="M58.2736 6.2809
L58.2736 6.1600
" />
<path d="M58.2736 6.1600
L58.2131 6.0390
" />
<path d="M58.2131 6.0390
L58.1526 5.9785
" />
<path d="M58.1526 5.9785
L58.0317 5.9181
" />
<path d="M58.0317 5.9181
L57.7898 5.8576
" />
<path d="M57.7898 5.8576
L57.6688 5.7971
" />
<path d="M57.6688 5.7971
L57.6083 5.7366
" />
<path d="M57.6083 5.7366
L57.5479 5.6157
" />
<path d="M57.5479 5.6157
L57.5479 5.4947
" />
<path d="M57.5479 5.4947
L57.6083 5.3738
" />
<path d="M57.6083 5.3738
L57.6688 5.3133
" />
<path d="M57.6688 5.3133
L57.7898 5.2528
" />
<path d="M57.7898 5.2528
L58.0921 5.2528
" />
<path d="M58.0921 5.2528
L58.2736 5.3133
" />
<path d="M58.7574 6.4624
L58.9388 6.5228
" />
<path d="M58.9388 6.5228
L59.2412 6.5228
" />
<path d="M59.2412 6.5228
L59.3621 6.4624
" />
<path d="M59.3621 6.4624
L59.4226 6.4019
" />
<path d="M59.4226 6.4019
L59.4831 6.2809
" />
<path d="M59.4831 6.2809
L59.4831 6.1600
" />
<path d="M59.4831 6.1600
L59.4226 6.0390
" />
<path d="M59.4226 6.0390
L59.3621 5.9785
" />
<path d="M59.3621 5.9785
L59.2412 5.9181
" />
<path d="M59.2412 5.9181
L58.9993 5.8576
" />
<path d="M58.9993 5.8576
L58.8783 5.7971
" />
<path d="M58.8783 5.7971
L58.8178 5.7366
" />
<path d="M58.8178 5.7366
L58.7574 5.6157
" />
<path d="M58.7574 5.6157
L58.7574 5.4947
" />
<path d="M58.7574 5.4947
L58.8178 5.3738
" />
<path d="M58.8178 5.3738
L58.8783 5.3133
" />
<path d="M58.8783 5.3133
L58.9993 5.2528
" />
<path d="M58.9993 5.2528
L59.3016 5.2528
" />
<path d="M59.3016 5.2528
L59.4831 5.3133
" />
<path d="M60.0273 6.5228
L60.0273 5.2528
" />
<path d="M60.0273 5.8576
L60.7530 5.8576
" />
<path d="M60.7530 6.5228
L60.7530 5.2528
" />
<path d="M61.3578 6.5228
L61.3578 5.2528
" />
<path d="M61.3578 5.2528
L61.6602 5.2528
" />
<path d="M61.6602 5.2528
L61.8416 5.3133
" />
<path d="M61.8416 5.3133
L61.9626 5.4343
" />
<path d="M61.9626 5.4343
L62.0231 5.5552
" />
<path d="M62.0231 5.5552
L62.0835 5.7971
" />
<path d="M62.0835 5.7971
L62.0835 5.9785
" />
<path d="M62.0835 5.9785
L62.0231 6.2204
" />
<path d="M62.0231 6.2204
L61.9626 6.3414
" />
<path d="M61.9626 6.3414
L61.8416 6.4624
" />
<path d="M61.8416 6.4624
L61.6602 6.5228
" />
<path d="M61.6602 6.5228
L61.3578 6.5228
" />
<path d="M62.6278 6.0390
L63.5955 6.0390
" />
<path d="M64.0793 5.2528
L64.9259 6.5228
" />
<path d="M64.9259 5.2528
L64.0793 6.5228
" />
</g></g> 
</svg>
