<?xml version="1.0" standalone="no"?>
 <!DOCTYPE svg PUBLIC "-//W3C//DTD SVG 1.1//EN" 
 "http://www.w3.org/Graphics/SVG/1.1/DTD/svg11.dtd"> 
<svg
  xmlns:svg="http://www.w3.org/2000/svg"
  xmlns="http://www.w3.org/2000/svg"
  xmlns:xlink="http://www.w3.org/1999/xlink"
  version="1.1"
  width="105.2830mm" height="32.4612mm" viewBox="0.0000 0.0000 105.2830 32.4612">
<title>SVG Image created as ir21091.svg date 2024/01/16 15:09:23 </title>
  <desc>Image generated by Eeschema-SVG </desc>
<g style="fill:#000000; fill-opacity:1.0000;stroke:#000000; stroke-opacity:1.0000;
stroke-linecap:round; stroke-linejoin:round;"
 transform="translate(0 0) scale(1 1)">
</g>
<g style="fill:#840000; fill-opacity:0.0; 
stroke:#840000; stroke-width:0.0000; stroke-opacity:1; 
stroke-linecap:round; stroke-linejoin:round;">
</g>
<g style="fill:#FFFFC2; fill-opacity:0.0; 
stroke:#FFFFC2; stroke-width:0.0000; stroke-opacity:1; 
stroke-linecap:round; stroke-linejoin:round;">
</g>
<g style="fill:#FFFFC2; fill-opacity:1.0000; 
stroke:#FFFFC2; stroke-width:0.0000; stroke-opacity:1; 
stroke-linecap:round; stroke-linejoin:round;">
<rect x="47.561500" y="6.070600" width="10.160000" height="20.320000" rx="0.000000" />
</g>
<g style="fill:#840084; fill-opacity:1.0000; 
stroke:#840084; stroke-width:0.0000; stroke-opacity:1; 
stroke-linecap:round; stroke-linejoin:round;">
</g>
<g style="fill:#840000; fill-opacity:1.0000; 
stroke:#840000; stroke-width:0.0000; stroke-opacity:1; 
stroke-linecap:round; stroke-linejoin:round;">
</g>
<g style="fill:#840000; fill-opacity:0.0; 
stroke:#840000; stroke-width:0.2540; stroke-opacity:1; 
stroke-linecap:round; stroke-linejoin:round;">
<rect x="47.561500" y="6.070600" width="10.160000" height="20.320000" rx="0.000000" />
</g>
<g style="fill:#840000; fill-opacity:0.0; 
stroke:#840000; stroke-width:0.1524; stroke-opacity:1; 
stroke-linecap:round; stroke-linejoin:round;">
<path d="M52.6415 6.0706
L52.6415 3.5306
" />
</g>
<g style="fill:#006464; fill-opacity:0.0; 
stroke:#006464; stroke-width:0.1524; stroke-opacity:1; 
stroke-linecap:round; stroke-linejoin:round;">
<g transform="rotate(-90.000000 52.6415 6.5786)">
<text x="52.6415" y="7.2136"
textLength="3.8318" font-size="1.6933" lengthAdjust="spacingAndGlyphs"
text-anchor="end" opacity="0">VCC</text>
</g>
<g class="stroked-text"><desc>VCC</desc>
<path d="M51.9510 10.1864
L53.2210 9.7631
" />
<path d="M53.2210 9.7631
L51.9510 9.3397
" />
<path d="M53.1001 8.1907
L53.1606 8.2511
" />
<path d="M53.1606 8.2511
L53.2210 8.4326
" />
<path d="M53.2210 8.4326
L53.2210 8.5535
" />
<path d="M53.2210 8.5535
L53.1606 8.7349
" />
<path d="M53.1606 8.7349
L53.0396 8.8559
" />
<path d="M53.0396 8.8559
L52.9186 8.9164
" />
<path d="M52.9186 8.9164
L52.6767 8.9768
" />
<path d="M52.6767 8.9768
L52.4953 8.9768
" />
<path d="M52.4953 8.9768
L52.2534 8.9164
" />
<path d="M52.2534 8.9164
L52.1325 8.8559
" />
<path d="M52.1325 8.8559
L52.0115 8.7349
" />
<path d="M52.0115 8.7349
L51.9510 8.5535
" />
<path d="M51.9510 8.5535
L51.9510 8.4326
" />
<path d="M51.9510 8.4326
L52.0115 8.2511
" />
<path d="M52.0115 8.2511
L52.0720 8.1907
" />
<path d="M53.1001 6.9207
L53.1606 6.9811
" />
<path d="M53.1606 6.9811
L53.2210 7.1626
" />
<path d="M53.2210 7.1626
L53.2210 7.2835
" />
<path d="M53.2210 7.2835
L53.1606 7.4649
" />
<path d="M53.1606 7.4649
L53.0396 7.5859
" />
<path d="M53.0396 7.5859
L52.9186 7.6464
" />
<path d="M52.9186 7.6464
L52.6767 7.7068
" />
<path d="M52.6767 7.7068
L52.4953 7.7068
" />
<path d="M52.4953 7.7068
L52.2534 7.6464
" />
<path d="M52.2534 7.6464
L52.1325 7.5859
" />
<path d="M52.1325 7.5859
L52.0115 7.4649
" />
<path d="M52.0115 7.4649
L51.9510 7.2835
" />
<path d="M51.9510 7.2835
L51.9510 7.1626
" />
<path d="M51.9510 7.1626
L52.0115 6.9811
" />
<path d="M52.0115 6.9811
L52.0720 6.9207
" />
</g></g>
<g style="fill:#A90000; fill-opacity:0.0; 
stroke:#A90000; stroke-width:0.1524; stroke-opacity:1; 
stroke-linecap:round; stroke-linejoin:round;">
<g transform="rotate(-90.000000 52.3875 4.8006)">
<text x="52.3875" y="4.8006"
textLength="1.4127" font-size="1.6933" lengthAdjust="spacingAndGlyphs"
text-anchor="middle" opacity="0">1</text>
</g>
<g class="stroked-text"><desc>1</desc>
<path d="M52.2240 4.4376
L52.2240 5.1633
" />
<path d="M52.2240 4.8005
L50.9540 4.8005
" />
<path d="M50.9540 4.8005
L51.1355 4.9214
" />
<path d="M51.1355 4.9214
L51.2564 5.0424
" />
<path d="M51.2564 5.0424
L51.3169 5.1633
" />
</g></g>
<g style="fill:#840000; fill-opacity:0.0; 
stroke:#840000; stroke-width:0.1524; stroke-opacity:1; 
stroke-linecap:round; stroke-linejoin:round;">
<path d="M47.5615 16.2306
L45.0215 16.2306
" />
</g>
<g style="fill:#006464; fill-opacity:0.0; 
stroke:#006464; stroke-width:0.1524; stroke-opacity:1; 
stroke-linecap:round; stroke-linejoin:round;">
<text x="48.0695" y="16.8656"
textLength="2.1385" font-size="1.6933" lengthAdjust="spacingAndGlyphs"
text-anchor="start" opacity="0">IN</text>
<g class="stroked-text"><desc>IN</desc>
<path d="M48.4720 16.8101
L48.4720 15.5401
" />
<path d="M49.0768 16.8101
L49.0768 15.5401
" />
<path d="M49.0768 15.5401
L49.8025 16.8101
" />
<path d="M49.8025 16.8101
L49.8025 15.5401
" />
</g></g>
<g style="fill:#A90000; fill-opacity:0.0; 
stroke:#A90000; stroke-width:0.1524; stroke-opacity:1; 
stroke-linecap:round; stroke-linejoin:round;">
<text x="46.2915" y="15.9766"
textLength="1.4127" font-size="1.6933" lengthAdjust="spacingAndGlyphs"
text-anchor="middle" opacity="0">2</text>
<g class="stroked-text"><desc>2</desc>
<path d="M45.9287 14.6641
L45.9891 14.6036
" />
<path d="M45.9891 14.6036
L46.1101 14.5431
" />
<path d="M46.1101 14.5431
L46.4125 14.5431
" />
<path d="M46.4125 14.5431
L46.5334 14.6036
" />
<path d="M46.5334 14.6036
L46.5939 14.6641
" />
<path d="M46.5939 14.6641
L46.6544 14.7850
" />
<path d="M46.6544 14.7850
L46.6544 14.9060
" />
<path d="M46.6544 14.9060
L46.5939 15.0874
" />
<path d="M46.5939 15.0874
L45.8682 15.8131
" />
<path d="M45.8682 15.8131
L46.6544 15.8131
" />
</g></g>
<g style="fill:#840000; fill-opacity:0.0; 
stroke:#840000; stroke-width:0.1524; stroke-opacity:1; 
stroke-linecap:round; stroke-linejoin:round;">
<path d="M47.5615 18.7706
L45.0215 18.7706
" />
</g>
<g style="fill:#006464; fill-opacity:0.0; 
stroke:#006464; stroke-width:0.1524; stroke-opacity:1; 
stroke-linecap:round; stroke-linejoin:round;">
<text x="48.0695" y="19.4056"
textLength="6.2508" font-size="1.6933" lengthAdjust="spacingAndGlyphs"
text-anchor="start" opacity="0">DT/SD</text>
<g class="stroked-text"><desc>DT/SD</desc>
<path d="M48.4720 19.3501
L48.4720 18.0801
" />
<path d="M48.4720 18.0801
L48.7744 18.0801
" />
<path d="M48.7744 18.0801
L48.9558 18.1406
" />
<path d="M48.9558 18.1406
L49.0768 18.2616
" />
<path d="M49.0768 18.2616
L49.1373 18.3825
" />
<path d="M49.1373 18.3825
L49.1977 18.6244
" />
<path d="M49.1977 18.6244
L49.1977 18.8058
" />
<path d="M49.1977 18.8058
L49.1373 19.0477
" />
<path d="M49.1373 19.0477
L49.0768 19.1687
" />
<path d="M49.0768 19.1687
L48.9558 19.2897
" />
<path d="M48.9558 19.2897
L48.7744 19.3501
" />
<path d="M48.7744 19.3501
L48.4720 19.3501
" />
<path d="M49.5606 18.0801
L50.2863 18.0801
" />
<path d="M49.9235 19.3501
L49.9235 18.0801
" />
<path d="M51.6168 18.0197
L50.5282 19.6525
" />
<path d="M51.9797 19.2897
L52.1611 19.3501
" />
<path d="M52.1611 19.3501
L52.4635 19.3501
" />
<path d="M52.4635 19.3501
L52.5844 19.2897
" />
<path d="M52.5844 19.2897
L52.6449 19.2292
" />
<path d="M52.6449 19.2292
L52.7054 19.1082
" />
<path d="M52.7054 19.1082
L52.7054 18.9873
" />
<path d="M52.7054 18.9873
L52.6449 18.8663
" />
<path d="M52.6449 18.8663
L52.5844 18.8058
" />
<path d="M52.5844 18.8058
L52.4635 18.7454
" />
<path d="M52.4635 18.7454
L52.2216 18.6849
" />
<path d="M52.2216 18.6849
L52.1006 18.6244
" />
<path d="M52.1006 18.6244
L52.0401 18.5639
" />
<path d="M52.0401 18.5639
L51.9797 18.4430
" />
<path d="M51.9797 18.4430
L51.9797 18.3220
" />
<path d="M51.9797 18.3220
L52.0401 18.2011
" />
<path d="M52.0401 18.2011
L52.1006 18.1406
" />
<path d="M52.1006 18.1406
L52.2216 18.0801
" />
<path d="M52.2216 18.0801
L52.5239 18.0801
" />
<path d="M52.5239 18.0801
L52.7054 18.1406
" />
<path d="M53.2496 19.3501
L53.2496 18.0801
" />
<path d="M53.2496 18.0801
L53.5520 18.0801
" />
<path d="M53.5520 18.0801
L53.7334 18.1406
" />
<path d="M53.7334 18.1406
L53.8544 18.2616
" />
<path d="M53.8544 18.2616
L53.9149 18.3825
" />
<path d="M53.9149 18.3825
L53.9753 18.6244
" />
<path d="M53.9753 18.6244
L53.9753 18.8058
" />
<path d="M53.9753 18.8058
L53.9149 19.0477
" />
<path d="M53.9149 19.0477
L53.8544 19.1687
" />
<path d="M53.8544 19.1687
L53.7334 19.2897
" />
<path d="M53.7334 19.2897
L53.5520 19.3501
" />
<path d="M53.5520 19.3501
L53.2496 19.3501
" />
</g></g>
<g style="fill:#A90000; fill-opacity:0.0; 
stroke:#A90000; stroke-width:0.1524; stroke-opacity:1; 
stroke-linecap:round; stroke-linejoin:round;">
<text x="46.2915" y="18.5166"
textLength="1.4127" font-size="1.6933" lengthAdjust="spacingAndGlyphs"
text-anchor="middle" opacity="0">3</text>
<g class="stroked-text"><desc>3</desc>
<path d="M45.8682 17.0831
L46.6544 17.0831
" />
<path d="M46.6544 17.0831
L46.2310 17.5669
" />
<path d="M46.2310 17.5669
L46.4125 17.5669
" />
<path d="M46.4125 17.5669
L46.5334 17.6274
" />
<path d="M46.5334 17.6274
L46.5939 17.6879
" />
<path d="M46.5939 17.6879
L46.6544 17.8088
" />
<path d="M46.6544 17.8088
L46.6544 18.1112
" />
<path d="M46.6544 18.1112
L46.5939 18.2322
" />
<path d="M46.5939 18.2322
L46.5334 18.2927
" />
<path d="M46.5334 18.2927
L46.4125 18.3531
" />
<path d="M46.4125 18.3531
L46.0496 18.3531
" />
<path d="M46.0496 18.3531
L45.9287 18.2927
" />
<path d="M45.9287 18.2927
L45.8682 18.2322
" />
</g></g>
<g style="fill:#840000; fill-opacity:0.0; 
stroke:#840000; stroke-width:0.1524; stroke-opacity:1; 
stroke-linecap:round; stroke-linejoin:round;">
<path d="M52.6415 26.3906
L52.6415 28.9306
" />
</g>
<g style="fill:#006464; fill-opacity:0.0; 
stroke:#006464; stroke-width:0.1524; stroke-opacity:1; 
stroke-linecap:round; stroke-linejoin:round;">
<g transform="rotate(-90.000000 52.6415 25.8826)">
<text x="52.6415" y="26.5176"
textLength="4.2551" font-size="1.6933" lengthAdjust="spacingAndGlyphs"
text-anchor="start" opacity="0">COM</text>
</g>
<g class="stroked-text"><desc>COM</desc>
<path d="M53.1001 24.7543
L53.1606 24.8147
" />
<path d="M53.1606 24.8147
L53.2210 24.9962
" />
<path d="M53.2210 24.9962
L53.2210 25.1171
" />
<path d="M53.2210 25.1171
L53.1606 25.2985
" />
<path d="M53.1606 25.2985
L53.0396 25.4195
" />
<path d="M53.0396 25.4195
L52.9186 25.4800
" />
<path d="M52.9186 25.4800
L52.6767 25.5404
" />
<path d="M52.6767 25.5404
L52.4953 25.5404
" />
<path d="M52.4953 25.5404
L52.2534 25.4800
" />
<path d="M52.2534 25.4800
L52.1325 25.4195
" />
<path d="M52.1325 25.4195
L52.0115 25.2985
" />
<path d="M52.0115 25.2985
L51.9510 25.1171
" />
<path d="M51.9510 25.1171
L51.9510 24.9962
" />
<path d="M51.9510 24.9962
L52.0115 24.8147
" />
<path d="M52.0115 24.8147
L52.0720 24.7543
" />
<path d="M51.9510 23.9681
L51.9510 23.7262
" />
<path d="M51.9510 23.7262
L52.0115 23.6052
" />
<path d="M52.0115 23.6052
L52.1325 23.4843
" />
<path d="M52.1325 23.4843
L52.3744 23.4238
" />
<path d="M52.3744 23.4238
L52.7977 23.4238
" />
<path d="M52.7977 23.4238
L53.0396 23.4843
" />
<path d="M53.0396 23.4843
L53.1606 23.6052
" />
<path d="M53.1606 23.6052
L53.2210 23.7262
" />
<path d="M53.2210 23.7262
L53.2210 23.9681
" />
<path d="M53.2210 23.9681
L53.1606 24.0890
" />
<path d="M53.1606 24.0890
L53.0396 24.2100
" />
<path d="M53.0396 24.2100
L52.7977 24.2704
" />
<path d="M52.7977 24.2704
L52.3744 24.2704
" />
<path d="M52.3744 24.2704
L52.1325 24.2100
" />
<path d="M52.1325 24.2100
L52.0115 24.0890
" />
<path d="M52.0115 24.0890
L51.9510 23.9681
" />
<path d="M53.2210 22.8795
L51.9510 22.8795
" />
<path d="M51.9510 22.8795
L52.8582 22.4561
" />
<path d="M52.8582 22.4561
L51.9510 22.0328
" />
<path d="M51.9510 22.0328
L53.2210 22.0328
" />
</g></g>
<g style="fill:#A90000; fill-opacity:0.0; 
stroke:#A90000; stroke-width:0.1524; stroke-opacity:1; 
stroke-linecap:round; stroke-linejoin:round;">
<g transform="rotate(-90.000000 52.3875 27.6606)">
<text x="52.3875" y="27.6606"
textLength="1.4127" font-size="1.6933" lengthAdjust="spacingAndGlyphs"
text-anchor="middle" opacity="0">4</text>
</g>
<g class="stroked-text"><desc>4</desc>
<path d="M51.3774 27.4186
L52.2240 27.4186
" />
<path d="M50.8936 27.7210
L51.8007 28.0233
" />
<path d="M51.8007 28.0233
L51.8007 27.2372
" />
</g></g>
<g style="fill:#840000; fill-opacity:0.0; 
stroke:#840000; stroke-width:0.1524; stroke-opacity:1; 
stroke-linecap:round; stroke-linejoin:round;">
<path d="M57.7215 23.8506
L60.2615 23.8506
" />
</g>
<g style="fill:#006464; fill-opacity:0.0; 
stroke:#006464; stroke-width:0.1524; stroke-opacity:1; 
stroke-linecap:round; stroke-linejoin:round;">
<text x="57.2135" y="24.4856"
textLength="2.5618" font-size="1.6933" lengthAdjust="spacingAndGlyphs"
text-anchor="end" opacity="0">LO</text>
<g class="stroked-text"><desc>LO</desc>
<path d="M55.6618 24.4301
L55.0570 24.4301
" />
<path d="M55.0570 24.4301
L55.0570 23.1601
" />
<path d="M56.3270 23.1601
L56.5689 23.1601
" />
<path d="M56.5689 23.1601
L56.6899 23.2206
" />
<path d="M56.6899 23.2206
L56.8108 23.3416
" />
<path d="M56.8108 23.3416
L56.8713 23.5835
" />
<path d="M56.8713 23.5835
L56.8713 24.0068
" />
<path d="M56.8713 24.0068
L56.8108 24.2487
" />
<path d="M56.8108 24.2487
L56.6899 24.3697
" />
<path d="M56.6899 24.3697
L56.5689 24.4301
" />
<path d="M56.5689 24.4301
L56.3270 24.4301
" />
<path d="M56.3270 24.4301
L56.2061 24.3697
" />
<path d="M56.2061 24.3697
L56.0851 24.2487
" />
<path d="M56.0851 24.2487
L56.0247 24.0068
" />
<path d="M56.0247 24.0068
L56.0247 23.5835
" />
<path d="M56.0247 23.5835
L56.0851 23.3416
" />
<path d="M56.0851 23.3416
L56.2061 23.2206
" />
<path d="M56.2061 23.2206
L56.3270 23.1601
" />
</g></g>
<g style="fill:#A90000; fill-opacity:0.0; 
stroke:#A90000; stroke-width:0.1524; stroke-opacity:1; 
stroke-linecap:round; stroke-linejoin:round;">
<text x="58.9915" y="23.5966"
textLength="1.4127" font-size="1.6933" lengthAdjust="spacingAndGlyphs"
text-anchor="middle" opacity="0">5</text>
<g class="stroked-text"><desc>5</desc>
<path d="M59.2939 22.1631
L58.6891 22.1631
" />
<path d="M58.6891 22.1631
L58.6287 22.7679
" />
<path d="M58.6287 22.7679
L58.6891 22.7074
" />
<path d="M58.6891 22.7074
L58.8101 22.6469
" />
<path d="M58.8101 22.6469
L59.1125 22.6469
" />
<path d="M59.1125 22.6469
L59.2334 22.7074
" />
<path d="M59.2334 22.7074
L59.2939 22.7679
" />
<path d="M59.2939 22.7679
L59.3544 22.8888
" />
<path d="M59.3544 22.8888
L59.3544 23.1912
" />
<path d="M59.3544 23.1912
L59.2939 23.3122
" />
<path d="M59.2939 23.3122
L59.2334 23.3727
" />
<path d="M59.2334 23.3727
L59.1125 23.4331
" />
<path d="M59.1125 23.4331
L58.8101 23.4331
" />
<path d="M58.8101 23.4331
L58.6891 23.3727
" />
<path d="M58.6891 23.3727
L58.6287 23.3122
" />
</g></g>
<g style="fill:#840000; fill-opacity:0.0; 
stroke:#840000; stroke-width:0.1524; stroke-opacity:1; 
stroke-linecap:round; stroke-linejoin:round;">
<path d="M57.7215 21.3106
L60.2615 21.3106
" />
</g>
<g style="fill:#006464; fill-opacity:0.0; 
stroke:#006464; stroke-width:0.1524; stroke-opacity:1; 
stroke-linecap:round; stroke-linejoin:round;">
<text x="57.2135" y="21.9456"
textLength="2.5013" font-size="1.6933" lengthAdjust="spacingAndGlyphs"
text-anchor="end" opacity="0">VS</text>
<g class="stroked-text"><desc>VS</desc>
<path d="M54.9361 20.6201
L55.3594 21.8901
" />
<path d="M55.3594 21.8901
L55.7828 20.6201
" />
<path d="M56.1457 21.8297
L56.3271 21.8901
" />
<path d="M56.3271 21.8901
L56.6295 21.8901
" />
<path d="M56.6295 21.8901
L56.7504 21.8297
" />
<path d="M56.7504 21.8297
L56.8109 21.7692
" />
<path d="M56.8109 21.7692
L56.8714 21.6482
" />
<path d="M56.8714 21.6482
L56.8714 21.5273
" />
<path d="M56.8714 21.5273
L56.8109 21.4063
" />
<path d="M56.8109 21.4063
L56.7504 21.3458
" />
<path d="M56.7504 21.3458
L56.6295 21.2854
" />
<path d="M56.6295 21.2854
L56.3876 21.2249
" />
<path d="M56.3876 21.2249
L56.2666 21.1644
" />
<path d="M56.2666 21.1644
L56.2061 21.1039
" />
<path d="M56.2061 21.1039
L56.1457 20.9830
" />
<path d="M56.1457 20.9830
L56.1457 20.8620
" />
<path d="M56.1457 20.8620
L56.2061 20.7411
" />
<path d="M56.2061 20.7411
L56.2666 20.6806
" />
<path d="M56.2666 20.6806
L56.3876 20.6201
" />
<path d="M56.3876 20.6201
L56.6899 20.6201
" />
<path d="M56.6899 20.6201
L56.8714 20.6806
" />
</g></g>
<g style="fill:#A90000; fill-opacity:0.0; 
stroke:#A90000; stroke-width:0.1524; stroke-opacity:1; 
stroke-linecap:round; stroke-linejoin:round;">
<text x="58.9915" y="21.0566"
textLength="1.4127" font-size="1.6933" lengthAdjust="spacingAndGlyphs"
text-anchor="middle" opacity="0">6</text>
<g class="stroked-text"><desc>6</desc>
<path d="M59.2334 19.6231
L58.9915 19.6231
" />
<path d="M58.9915 19.6231
L58.8706 19.6836
" />
<path d="M58.8706 19.6836
L58.8101 19.7441
" />
<path d="M58.8101 19.7441
L58.6891 19.9255
" />
<path d="M58.6891 19.9255
L58.6287 20.1674
" />
<path d="M58.6287 20.1674
L58.6287 20.6512
" />
<path d="M58.6287 20.6512
L58.6891 20.7722
" />
<path d="M58.6891 20.7722
L58.7496 20.8327
" />
<path d="M58.7496 20.8327
L58.8706 20.8931
" />
<path d="M58.8706 20.8931
L59.1125 20.8931
" />
<path d="M59.1125 20.8931
L59.2334 20.8327
" />
<path d="M59.2334 20.8327
L59.2939 20.7722
" />
<path d="M59.2939 20.7722
L59.3544 20.6512
" />
<path d="M59.3544 20.6512
L59.3544 20.3488
" />
<path d="M59.3544 20.3488
L59.2939 20.2279
" />
<path d="M59.2939 20.2279
L59.2334 20.1674
" />
<path d="M59.2334 20.1674
L59.1125 20.1069
" />
<path d="M59.1125 20.1069
L58.8706 20.1069
" />
<path d="M58.8706 20.1069
L58.7496 20.1674
" />
<path d="M58.7496 20.1674
L58.6891 20.2279
" />
<path d="M58.6891 20.2279
L58.6287 20.3488
" />
</g></g>
<g style="fill:#840000; fill-opacity:0.0; 
stroke:#840000; stroke-width:0.1524; stroke-opacity:1; 
stroke-linecap:round; stroke-linejoin:round;">
<path d="M57.7215 11.1506
L60.2615 11.1506
" />
</g>
<g style="fill:#006464; fill-opacity:0.0; 
stroke:#006464; stroke-width:0.1524; stroke-opacity:1; 
stroke-linecap:round; stroke-linejoin:round;">
<text x="57.2135" y="11.7856"
textLength="2.8642" font-size="1.6933" lengthAdjust="spacingAndGlyphs"
text-anchor="end" opacity="0">HO</text>
<g class="stroked-text"><desc>HO</desc>
<path d="M54.7546 11.7301
L54.7546 10.4601
" />
<path d="M54.7546 11.0649
L55.4803 11.0649
" />
<path d="M55.4803 11.7301
L55.4803 10.4601
" />
<path d="M56.3270 10.4601
L56.5689 10.4601
" />
<path d="M56.5689 10.4601
L56.6899 10.5206
" />
<path d="M56.6899 10.5206
L56.8108 10.6416
" />
<path d="M56.8108 10.6416
L56.8713 10.8835
" />
<path d="M56.8713 10.8835
L56.8713 11.3068
" />
<path d="M56.8713 11.3068
L56.8108 11.5487
" />
<path d="M56.8108 11.5487
L56.6899 11.6697
" />
<path d="M56.6899 11.6697
L56.5689 11.7301
" />
<path d="M56.5689 11.7301
L56.3270 11.7301
" />
<path d="M56.3270 11.7301
L56.2061 11.6697
" />
<path d="M56.2061 11.6697
L56.0851 11.5487
" />
<path d="M56.0851 11.5487
L56.0247 11.3068
" />
<path d="M56.0247 11.3068
L56.0247 10.8835
" />
<path d="M56.0247 10.8835
L56.0851 10.6416
" />
<path d="M56.0851 10.6416
L56.2061 10.5206
" />
<path d="M56.2061 10.5206
L56.3270 10.4601
" />
</g></g>
<g style="fill:#A90000; fill-opacity:0.0; 
stroke:#A90000; stroke-width:0.1524; stroke-opacity:1; 
stroke-linecap:round; stroke-linejoin:round;">
<text x="58.9915" y="10.8966"
textLength="1.4127" font-size="1.6933" lengthAdjust="spacingAndGlyphs"
text-anchor="middle" opacity="0">7</text>
<g class="stroked-text"><desc>7</desc>
<path d="M58.5682 9.4631
L59.4148 9.4631
" />
<path d="M59.4148 9.4631
L58.8706 10.7331
" />
</g></g>
<g style="fill:#840000; fill-opacity:0.0; 
stroke:#840000; stroke-width:0.1524; stroke-opacity:1; 
stroke-linecap:round; stroke-linejoin:round;">
<path d="M57.7215 8.6106
L60.2615 8.6106
" />
</g>
<g style="fill:#006464; fill-opacity:0.0; 
stroke:#006464; stroke-width:0.1524; stroke-opacity:1; 
stroke-linecap:round; stroke-linejoin:round;">
<text x="57.2135" y="9.2456"
textLength="2.5618" font-size="1.6933" lengthAdjust="spacingAndGlyphs"
text-anchor="end" opacity="0">VB</text>
<g class="stroked-text"><desc>VB</desc>
<path d="M54.8756 7.9201
L55.2989 9.1901
" />
<path d="M55.2989 9.1901
L55.7223 7.9201
" />
<path d="M56.5690 8.5249
L56.7504 8.5854
" />
<path d="M56.7504 8.5854
L56.8109 8.6458
" />
<path d="M56.8109 8.6458
L56.8713 8.7668
" />
<path d="M56.8713 8.7668
L56.8713 8.9482
" />
<path d="M56.8713 8.9482
L56.8109 9.0692
" />
<path d="M56.8109 9.0692
L56.7504 9.1297
" />
<path d="M56.7504 9.1297
L56.6294 9.1901
" />
<path d="M56.6294 9.1901
L56.1456 9.1901
" />
<path d="M56.1456 9.1901
L56.1456 7.9201
" />
<path d="M56.1456 7.9201
L56.5690 7.9201
" />
<path d="M56.5690 7.9201
L56.6899 7.9806
" />
<path d="M56.6899 7.9806
L56.7504 8.0411
" />
<path d="M56.7504 8.0411
L56.8109 8.1620
" />
<path d="M56.8109 8.1620
L56.8109 8.2830
" />
<path d="M56.8109 8.2830
L56.7504 8.4039
" />
<path d="M56.7504 8.4039
L56.6899 8.4644
" />
<path d="M56.6899 8.4644
L56.5690 8.5249
" />
<path d="M56.5690 8.5249
L56.1456 8.5249
" />
</g></g>
<g style="fill:#A90000; fill-opacity:0.0; 
stroke:#A90000; stroke-width:0.1524; stroke-opacity:1; 
stroke-linecap:round; stroke-linejoin:round;">
<text x="58.9915" y="8.3566"
textLength="1.4127" font-size="1.6933" lengthAdjust="spacingAndGlyphs"
text-anchor="middle" opacity="0">8</text>
<g class="stroked-text"><desc>8</desc>
<path d="M58.8706 7.4674
L58.7496 7.4069
" />
<path d="M58.7496 7.4069
L58.6891 7.3465
" />
<path d="M58.6891 7.3465
L58.6287 7.2255
" />
<path d="M58.6287 7.2255
L58.6287 7.1650
" />
<path d="M58.6287 7.1650
L58.6891 7.0441
" />
<path d="M58.6891 7.0441
L58.7496 6.9836
" />
<path d="M58.7496 6.9836
L58.8706 6.9231
" />
<path d="M58.8706 6.9231
L59.1125 6.9231
" />
<path d="M59.1125 6.9231
L59.2334 6.9836
" />
<path d="M59.2334 6.9836
L59.2939 7.0441
" />
<path d="M59.2939 7.0441
L59.3544 7.1650
" />
<path d="M59.3544 7.1650
L59.3544 7.2255
" />
<path d="M59.3544 7.2255
L59.2939 7.3465
" />
<path d="M59.2939 7.3465
L59.2334 7.4069
" />
<path d="M59.2334 7.4069
L59.1125 7.4674
" />
<path d="M59.1125 7.4674
L58.8706 7.4674
" />
<path d="M58.8706 7.4674
L58.7496 7.5279
" />
<path d="M58.7496 7.5279
L58.6891 7.5884
" />
<path d="M58.6891 7.5884
L58.6287 7.7093
" />
<path d="M58.6287 7.7093
L58.6287 7.9512
" />
<path d="M58.6287 7.9512
L58.6891 8.0722
" />
<path d="M58.6891 8.0722
L58.7496 8.1327
" />
<path d="M58.7496 8.1327
L58.8706 8.1931
" />
<path d="M58.8706 8.1931
L59.1125 8.1931
" />
<path d="M59.1125 8.1931
L59.2334 8.1327
" />
<path d="M59.2334 8.1327
L59.2939 8.0722
" />
<path d="M59.2939 8.0722
L59.3544 7.9512
" />
<path d="M59.3544 7.9512
L59.3544 7.7093
" />
<path d="M59.3544 7.7093
L59.2939 7.5884
" />
<path d="M59.2939 7.5884
L59.2334 7.5279
" />
<path d="M59.2334 7.5279
L59.1125 7.4674
" />
</g></g>
<g style="fill:#840084; fill-opacity:0.0; 
stroke:#840084; stroke-width:0.1524; stroke-opacity:1; 
stroke-linecap:round; stroke-linejoin:round;">
</g>
<g style="fill:#006464; fill-opacity:0.0; 
stroke:#006464; stroke-width:0.1524; stroke-opacity:1; 
stroke-linecap:round; stroke-linejoin:round;">
</g>
<g style="fill:#006464; fill-opacity:0.0; 
stroke:#006464; stroke-width:0.1588; stroke-opacity:1; 
stroke-linecap:round; stroke-linejoin:round;">
<text x="55.2322" y="3.5306"
textLength="2.6415" font-size="1.6933" lengthAdjust="spacingAndGlyphs"
text-anchor="middle" opacity="0">U?</text>
<g class="stroked-text"><desc>U?</desc>
<path d="M54.3250 2.2048
L54.3250 3.2329
" />
<path d="M54.3250 3.2329
L54.3855 3.3539
" />
<path d="M54.3855 3.3539
L54.4460 3.4144
" />
<path d="M54.4460 3.4144
L54.5669 3.4748
" />
<path d="M54.5669 3.4748
L54.8088 3.4748
" />
<path d="M54.8088 3.4748
L54.9298 3.4144
" />
<path d="M54.9298 3.4144
L54.9903 3.3539
" />
<path d="M54.9903 3.3539
L55.0507 3.2329
" />
<path d="M55.0507 3.2329
L55.0507 2.2048
" />
<path d="M55.8370 3.3539
L55.8974 3.4144
" />
<path d="M55.8974 3.4144
L55.8370 3.4748
" />
<path d="M55.8370 3.4748
L55.7765 3.4144
" />
<path d="M55.7765 3.4144
L55.8370 3.3539
" />
<path d="M55.8370 3.3539
L55.8370 3.4748
" />
<path d="M55.5951 2.2653
L55.7160 2.2048
" />
<path d="M55.7160 2.2048
L56.0184 2.2048
" />
<path d="M56.0184 2.2048
L56.1393 2.2653
" />
<path d="M56.1393 2.2653
L56.1998 2.3863
" />
<path d="M56.1998 2.3863
L56.1998 2.5072
" />
<path d="M56.1998 2.5072
L56.1393 2.6282
" />
<path d="M56.1393 2.6282
L56.0789 2.6886
" />
<path d="M56.0789 2.6886
L55.9579 2.7491
" />
<path d="M55.9579 2.7491
L55.8974 2.8096
" />
<path d="M55.8974 2.8096
L55.8370 2.9305
" />
<path d="M55.8370 2.9305
L55.8370 2.9910
" />
</g><text x="57.9838" y="5.4356"
textLength="8.1447" font-size="1.6933" lengthAdjust="spacingAndGlyphs"
text-anchor="middle" opacity="0">IR21091</text>
<g class="stroked-text"><desc>IR21091</desc>
<path d="M54.3250 5.3798
L54.3250 4.1098
" />
<path d="M55.6555 5.3798
L55.2322 4.7751
" />
<path d="M54.9298 5.3798
L54.9298 4.1098
" />
<path d="M54.9298 4.1098
L55.4136 4.1098
" />
<path d="M55.4136 4.1098
L55.5346 4.1703
" />
<path d="M55.5346 4.1703
L55.5951 4.2308
" />
<path d="M55.5951 4.2308
L55.6555 4.3517
" />
<path d="M55.6555 4.3517
L55.6555 4.5332
" />
<path d="M55.6555 4.5332
L55.5951 4.6541
" />
<path d="M55.5951 4.6541
L55.5346 4.7146
" />
<path d="M55.5346 4.7146
L55.4136 4.7751
" />
<path d="M55.4136 4.7751
L54.9298 4.7751
" />
<path d="M56.1394 4.2308
L56.1998 4.1703
" />
<path d="M56.1998 4.1703
L56.3208 4.1098
" />
<path d="M56.3208 4.1098
L56.6232 4.1098
" />
<path d="M56.6232 4.1098
L56.7441 4.1703
" />
<path d="M56.7441 4.1703
L56.8046 4.2308
" />
<path d="M56.8046 4.2308
L56.8651 4.3517
" />
<path d="M56.8651 4.3517
L56.8651 4.4727
" />
<path d="M56.8651 4.4727
L56.8046 4.6541
" />
<path d="M56.8046 4.6541
L56.0789 5.3798
" />
<path d="M56.0789 5.3798
L56.8651 5.3798
" />
<path d="M58.0746 5.3798
L57.3489 5.3798
" />
<path d="M57.7117 5.3798
L57.7117 4.1098
" />
<path d="M57.7117 4.1098
L57.5908 4.2913
" />
<path d="M57.5908 4.2913
L57.4698 4.4122
" />
<path d="M57.4698 4.4122
L57.3489 4.4727
" />
<path d="M58.8607 4.1098
L58.9817 4.1098
" />
<path d="M58.9817 4.1098
L59.1026 4.1703
" />
<path d="M59.1026 4.1703
L59.1631 4.2308
" />
<path d="M59.1631 4.2308
L59.2236 4.3517
" />
<path d="M59.2236 4.3517
L59.2841 4.5936
" />
<path d="M59.2841 4.5936
L59.2841 4.8960
" />
<path d="M59.2841 4.8960
L59.2236 5.1379
" />
<path d="M59.2236 5.1379
L59.1631 5.2589
" />
<path d="M59.1631 5.2589
L59.1026 5.3194
" />
<path d="M59.1026 5.3194
L58.9817 5.3798
" />
<path d="M58.9817 5.3798
L58.8607 5.3798
" />
<path d="M58.8607 5.3798
L58.7398 5.3194
" />
<path d="M58.7398 5.3194
L58.6793 5.2589
" />
<path d="M58.6793 5.2589
L58.6188 5.1379
" />
<path d="M58.6188 5.1379
L58.5584 4.8960
" />
<path d="M58.5584 4.8960
L58.5584 4.5936
" />
<path d="M58.5584 4.5936
L58.6188 4.3517
" />
<path d="M58.6188 4.3517
L58.6793 4.2308
" />
<path d="M58.6793 4.2308
L58.7398 4.1703
" />
<path d="M58.7398 4.1703
L58.8607 4.1098
" />
<path d="M59.8888 5.3798
L60.1307 5.3798
" />
<path d="M60.1307 5.3798
L60.2517 5.3194
" />
<path d="M60.2517 5.3194
L60.3121 5.2589
" />
<path d="M60.3121 5.2589
L60.4331 5.0774
" />
<path d="M60.4331 5.0774
L60.4936 4.8355
" />
<path d="M60.4936 4.8355
L60.4936 4.3517
" />
<path d="M60.4936 4.3517
L60.4331 4.2308
" />
<path d="M60.4331 4.2308
L60.3726 4.1703
" />
<path d="M60.3726 4.1703
L60.2517 4.1098
" />
<path d="M60.2517 4.1098
L60.0098 4.1098
" />
<path d="M60.0098 4.1098
L59.8888 4.1703
" />
<path d="M59.8888 4.1703
L59.8283 4.2308
" />
<path d="M59.8283 4.2308
L59.7679 4.3517
" />
<path d="M59.7679 4.3517
L59.7679 4.6541
" />
<path d="M59.7679 4.6541
L59.8283 4.7751
" />
<path d="M59.8283 4.7751
L59.8888 4.8355
" />
<path d="M59.8888 4.8355
L60.0098 4.8960
" />
<path d="M60.0098 4.8960
L60.2517 4.8960
" />
<path d="M60.2517 4.8960
L60.3726 4.8355
" />
<path d="M60.3726 4.8355
L60.4331 4.7751
" />
<path d="M60.4331 4.7751
L60.4936 4.6541
" />
<path d="M61.7031 5.3798
L60.9774 5.3798
" />
<path d="M61.3402 5.3798
L61.3402 4.1098
" />
<path d="M61.3402 4.1098
L61.2193 4.2913
" />
<path d="M61.2193 4.2913
L61.0983 4.4122
" />
<path d="M61.0983 4.4122
L60.9774 4.4727
" />
</g></g> 
</svg>
