<?xml version="1.0" standalone="no"?>
 <!DOCTYPE svg PUBLIC "-//W3C//DTD SVG 1.1//EN" 
 "http://www.w3.org/Graphics/SVG/1.1/DTD/svg11.dtd"> 
<svg
  xmlns:svg="http://www.w3.org/2000/svg"
  xmlns="http://www.w3.org/2000/svg"
  xmlns:xlink="http://www.w3.org/1999/xlink"
  version="1.1"
  width="80.4672mm" height="37.7952mm" viewBox="0.0000 0.0000 80.4672 37.7952">
<title>SVG Image created as tc4422.svg date 2024/01/16 15:09:24 </title>
  <desc>Image generated by Eeschema-SVG </desc>
<g style="fill:#000000; fill-opacity:1.0000;stroke:#000000; stroke-opacity:1.0000;
stroke-linecap:round; stroke-linejoin:round;"
 transform="translate(0 0) scale(1 1)">
</g>
<g style="fill:#840000; fill-opacity:0.0; 
stroke:#840000; stroke-width:0.0000; stroke-opacity:1; 
stroke-linecap:round; stroke-linejoin:round;">
</g>
<g style="fill:#FFFFC2; fill-opacity:0.0; 
stroke:#FFFFC2; stroke-width:0.0000; stroke-opacity:1; 
stroke-linecap:round; stroke-linejoin:round;">
</g>
<g style="fill:#FFFFC2; fill-opacity:1.0000; 
stroke:#FFFFC2; stroke-width:0.0000; stroke-opacity:1; 
stroke-linecap:round; stroke-linejoin:round;">
<rect x="30.073600" y="13.817600" width="20.320000" height="10.160000" rx="0.000000" />
</g>
<g style="fill:#840084; fill-opacity:1.0000; 
stroke:#840084; stroke-width:0.0000; stroke-opacity:1; 
stroke-linecap:round; stroke-linejoin:round;">
</g>
<g style="fill:#840000; fill-opacity:1.0000; 
stroke:#840000; stroke-width:0.0000; stroke-opacity:1; 
stroke-linecap:round; stroke-linejoin:round;">
</g>
<g style="fill:#840000; fill-opacity:0.0; 
stroke:#840000; stroke-width:0.2540; stroke-opacity:1; 
stroke-linecap:round; stroke-linejoin:round;">
<rect x="30.073600" y="13.817600" width="20.320000" height="10.160000" rx="0.000000" />
</g>
<g style="fill:#840000; fill-opacity:0.0; 
stroke:#840000; stroke-width:0.1524; stroke-opacity:1; 
stroke-linecap:round; stroke-linejoin:round;">
<path d="M40.2336 13.8176
L40.2336 11.2776
" />
</g>
<g style="fill:#006464; fill-opacity:0.0; 
stroke:#006464; stroke-width:0.1524; stroke-opacity:1; 
stroke-linecap:round; stroke-linejoin:round;">
<g transform="rotate(-90.000000 40.2336 14.3256)">
<text x="40.2336" y="14.9606"
textLength="3.8318" font-size="1.6933" lengthAdjust="spacingAndGlyphs"
text-anchor="end" opacity="0">VDD</text>
</g>
<g class="stroked-text"><desc>VDD</desc>
<path d="M39.5431 17.9334
L40.8131 17.5101
" />
<path d="M40.8131 17.5101
L39.5431 17.0867
" />
<path d="M40.8131 16.6634
L39.5431 16.6634
" />
<path d="M39.5431 16.6634
L39.5431 16.3610
" />
<path d="M39.5431 16.3610
L39.6036 16.1796
" />
<path d="M39.6036 16.1796
L39.7246 16.0586
" />
<path d="M39.7246 16.0586
L39.8455 15.9981
" />
<path d="M39.8455 15.9981
L40.0874 15.9377
" />
<path d="M40.0874 15.9377
L40.2688 15.9377
" />
<path d="M40.2688 15.9377
L40.5107 15.9981
" />
<path d="M40.5107 15.9981
L40.6317 16.0586
" />
<path d="M40.6317 16.0586
L40.7527 16.1796
" />
<path d="M40.7527 16.1796
L40.8131 16.3610
" />
<path d="M40.8131 16.3610
L40.8131 16.6634
" />
<path d="M40.8131 15.3934
L39.5431 15.3934
" />
<path d="M39.5431 15.3934
L39.5431 15.0910
" />
<path d="M39.5431 15.0910
L39.6036 14.9096
" />
<path d="M39.6036 14.9096
L39.7246 14.7886
" />
<path d="M39.7246 14.7886
L39.8455 14.7281
" />
<path d="M39.8455 14.7281
L40.0874 14.6677
" />
<path d="M40.0874 14.6677
L40.2688 14.6677
" />
<path d="M40.2688 14.6677
L40.5107 14.7281
" />
<path d="M40.5107 14.7281
L40.6317 14.7886
" />
<path d="M40.6317 14.7886
L40.7527 14.9096
" />
<path d="M40.7527 14.9096
L40.8131 15.0910
" />
<path d="M40.8131 15.0910
L40.8131 15.3934
" />
</g></g>
<g style="fill:#A90000; fill-opacity:0.0; 
stroke:#A90000; stroke-width:0.1524; stroke-opacity:1; 
stroke-linecap:round; stroke-linejoin:round;">
<g transform="rotate(-90.000000 39.9796 12.5476)">
<text x="39.9796" y="12.5476"
textLength="1.4127" font-size="1.6933" lengthAdjust="spacingAndGlyphs"
text-anchor="middle" opacity="0">1</text>
</g>
<g class="stroked-text"><desc>1</desc>
<path d="M39.8161 12.1846
L39.8161 12.9103
" />
<path d="M39.8161 12.5475
L38.5461 12.5475
" />
<path d="M38.5461 12.5475
L38.7276 12.6684
" />
<path d="M38.7276 12.6684
L38.8485 12.7894
" />
<path d="M38.8485 12.7894
L38.9090 12.9103
" />
</g></g>
<g style="fill:#840000; fill-opacity:0.0; 
stroke:#840000; stroke-width:0.1524; stroke-opacity:1; 
stroke-linecap:round; stroke-linejoin:round;">
<path d="M30.0736 18.8976
L27.5336 18.8976
" />
</g>
<g style="fill:#006464; fill-opacity:0.0; 
stroke:#006464; stroke-width:0.1524; stroke-opacity:1; 
stroke-linecap:round; stroke-linejoin:round;">
<text x="30.5816" y="19.5326"
textLength="5.7066" font-size="1.6933" lengthAdjust="spacingAndGlyphs"
text-anchor="start" opacity="0">INPUT</text>
<g class="stroked-text"><desc>INPUT</desc>
<path d="M30.9841 19.4771
L30.9841 18.2071
" />
<path d="M31.5889 19.4771
L31.5889 18.2071
" />
<path d="M31.5889 18.2071
L32.3146 19.4771
" />
<path d="M32.3146 19.4771
L32.3146 18.2071
" />
<path d="M32.9194 19.4771
L32.9194 18.2071
" />
<path d="M32.9194 18.2071
L33.4032 18.2071
" />
<path d="M33.4032 18.2071
L33.5242 18.2676
" />
<path d="M33.5242 18.2676
L33.5847 18.3281
" />
<path d="M33.5847 18.3281
L33.6451 18.4490
" />
<path d="M33.6451 18.4490
L33.6451 18.6305
" />
<path d="M33.6451 18.6305
L33.5847 18.7514
" />
<path d="M33.5847 18.7514
L33.5242 18.8119
" />
<path d="M33.5242 18.8119
L33.4032 18.8724
" />
<path d="M33.4032 18.8724
L32.9194 18.8724
" />
<path d="M34.1894 18.2071
L34.1894 19.2352
" />
<path d="M34.1894 19.2352
L34.2499 19.3562
" />
<path d="M34.2499 19.3562
L34.3104 19.4167
" />
<path d="M34.3104 19.4167
L34.4313 19.4771
" />
<path d="M34.4313 19.4771
L34.6732 19.4771
" />
<path d="M34.6732 19.4771
L34.7942 19.4167
" />
<path d="M34.7942 19.4167
L34.8547 19.3562
" />
<path d="M34.8547 19.3562
L34.9151 19.2352
" />
<path d="M34.9151 19.2352
L34.9151 18.2071
" />
<path d="M35.3385 18.2071
L36.0642 18.2071
" />
<path d="M35.7014 19.4771
L35.7014 18.2071
" />
</g></g>
<g style="fill:#A90000; fill-opacity:0.0; 
stroke:#A90000; stroke-width:0.1524; stroke-opacity:1; 
stroke-linecap:round; stroke-linejoin:round;">
<text x="28.8036" y="18.6436"
textLength="1.4127" font-size="1.6933" lengthAdjust="spacingAndGlyphs"
text-anchor="middle" opacity="0">2</text>
<g class="stroked-text"><desc>2</desc>
<path d="M28.4408 17.3311
L28.5012 17.2706
" />
<path d="M28.5012 17.2706
L28.6222 17.2101
" />
<path d="M28.6222 17.2101
L28.9246 17.2101
" />
<path d="M28.9246 17.2101
L29.0455 17.2706
" />
<path d="M29.0455 17.2706
L29.1060 17.3311
" />
<path d="M29.1060 17.3311
L29.1665 17.4520
" />
<path d="M29.1665 17.4520
L29.1665 17.5730
" />
<path d="M29.1665 17.5730
L29.1060 17.7544
" />
<path d="M29.1060 17.7544
L28.3803 18.4801
" />
<path d="M28.3803 18.4801
L29.1665 18.4801
" />
</g></g>
<g style="fill:#840000; fill-opacity:0.0; 
stroke:#840000; stroke-width:0.1524; stroke-opacity:1; 
stroke-linecap:round; stroke-linejoin:round;">
<path d="M40.2336 23.9776
L40.2336 26.5176
" />
</g>
<g style="fill:#006464; fill-opacity:0.0; 
stroke:#006464; stroke-width:0.1524; stroke-opacity:1; 
stroke-linecap:round; stroke-linejoin:round;">
<g transform="rotate(-90.000000 40.2336 23.4696)">
<text x="40.2336" y="24.1046"
textLength="4.0737" font-size="1.6933" lengthAdjust="spacingAndGlyphs"
text-anchor="start" opacity="0">GND</text>
</g>
<g class="stroked-text"><desc>GND</desc>
<path d="M39.6036 22.4017
L39.5431 22.5227
" />
<path d="M39.5431 22.5227
L39.5431 22.7041
" />
<path d="M39.5431 22.7041
L39.6036 22.8855
" />
<path d="M39.6036 22.8855
L39.7246 23.0065
" />
<path d="M39.7246 23.0065
L39.8455 23.0670
" />
<path d="M39.8455 23.0670
L40.0874 23.1274
" />
<path d="M40.0874 23.1274
L40.2688 23.1274
" />
<path d="M40.2688 23.1274
L40.5107 23.0670
" />
<path d="M40.5107 23.0670
L40.6317 23.0065
" />
<path d="M40.6317 23.0065
L40.7527 22.8855
" />
<path d="M40.7527 22.8855
L40.8131 22.7041
" />
<path d="M40.8131 22.7041
L40.8131 22.5832
" />
<path d="M40.8131 22.5832
L40.7527 22.4017
" />
<path d="M40.7527 22.4017
L40.6922 22.3413
" />
<path d="M40.6922 22.3413
L40.2688 22.3413
" />
<path d="M40.2688 22.3413
L40.2688 22.5832
" />
<path d="M40.8131 21.7970
L39.5431 21.7970
" />
<path d="M39.5431 21.7970
L40.8131 21.0713
" />
<path d="M40.8131 21.0713
L39.5431 21.0713
" />
<path d="M40.8131 20.4665
L39.5431 20.4665
" />
<path d="M39.5431 20.4665
L39.5431 20.1641
" />
<path d="M39.5431 20.1641
L39.6036 19.9827
" />
<path d="M39.6036 19.9827
L39.7246 19.8617
" />
<path d="M39.7246 19.8617
L39.8455 19.8012
" />
<path d="M39.8455 19.8012
L40.0874 19.7408
" />
<path d="M40.0874 19.7408
L40.2688 19.7408
" />
<path d="M40.2688 19.7408
L40.5107 19.8012
" />
<path d="M40.5107 19.8012
L40.6317 19.8617
" />
<path d="M40.6317 19.8617
L40.7527 19.9827
" />
<path d="M40.7527 19.9827
L40.8131 20.1641
" />
<path d="M40.8131 20.1641
L40.8131 20.4665
" />
</g></g>
<g style="fill:#A90000; fill-opacity:0.0; 
stroke:#A90000; stroke-width:0.1524; stroke-opacity:1; 
stroke-linecap:round; stroke-linejoin:round;">
<g transform="rotate(-90.000000 39.9796 25.2476)">
<text x="39.9796" y="25.2476"
textLength="1.4127" font-size="1.6933" lengthAdjust="spacingAndGlyphs"
text-anchor="middle" opacity="0">4</text>
</g>
<g class="stroked-text"><desc>4</desc>
<path d="M38.9695 25.0056
L39.8161 25.0056
" />
<path d="M38.4857 25.3080
L39.3928 25.6103
" />
<path d="M39.3928 25.6103
L39.3928 24.8242
" />
</g></g>
<g style="fill:#840000; fill-opacity:0.0; 
stroke:#840000; stroke-width:0.1524; stroke-opacity:1; 
stroke-linecap:round; stroke-linejoin:round;">
<path d="M50.3936 18.8976
L52.9336 18.8976
" />
</g>
<g style="fill:#006464; fill-opacity:0.0; 
stroke:#006464; stroke-width:0.1524; stroke-opacity:1; 
stroke-linecap:round; stroke-linejoin:round;">
<text x="49.8856" y="19.5326"
textLength="7.3999" font-size="1.6933" lengthAdjust="spacingAndGlyphs"
text-anchor="end" opacity="0">OUTPUT</text>
<g class="stroked-text"><desc>OUTPUT</desc>
<path d="M43.1329 18.2071
L43.3748 18.2071
" />
<path d="M43.3748 18.2071
L43.4958 18.2676
" />
<path d="M43.4958 18.2676
L43.6167 18.3886
" />
<path d="M43.6167 18.3886
L43.6772 18.6305
" />
<path d="M43.6772 18.6305
L43.6772 19.0538
" />
<path d="M43.6772 19.0538
L43.6167 19.2957
" />
<path d="M43.6167 19.2957
L43.4958 19.4167
" />
<path d="M43.4958 19.4167
L43.3748 19.4771
" />
<path d="M43.3748 19.4771
L43.1329 19.4771
" />
<path d="M43.1329 19.4771
L43.0120 19.4167
" />
<path d="M43.0120 19.4167
L42.8910 19.2957
" />
<path d="M42.8910 19.2957
L42.8306 19.0538
" />
<path d="M42.8306 19.0538
L42.8306 18.6305
" />
<path d="M42.8306 18.6305
L42.8910 18.3886
" />
<path d="M42.8910 18.3886
L43.0120 18.2676
" />
<path d="M43.0120 18.2676
L43.1329 18.2071
" />
<path d="M44.2215 18.2071
L44.2215 19.2352
" />
<path d="M44.2215 19.2352
L44.2820 19.3562
" />
<path d="M44.2820 19.3562
L44.3425 19.4167
" />
<path d="M44.3425 19.4167
L44.4634 19.4771
" />
<path d="M44.4634 19.4771
L44.7053 19.4771
" />
<path d="M44.7053 19.4771
L44.8263 19.4167
" />
<path d="M44.8263 19.4167
L44.8868 19.3562
" />
<path d="M44.8868 19.3562
L44.9472 19.2352
" />
<path d="M44.9472 19.2352
L44.9472 18.2071
" />
<path d="M45.3706 18.2071
L46.0963 18.2071
" />
<path d="M45.7335 19.4771
L45.7335 18.2071
" />
<path d="M46.5196 19.4771
L46.5196 18.2071
" />
<path d="M46.5196 18.2071
L47.0034 18.2071
" />
<path d="M47.0034 18.2071
L47.1244 18.2676
" />
<path d="M47.1244 18.2676
L47.1849 18.3281
" />
<path d="M47.1849 18.3281
L47.2453 18.4490
" />
<path d="M47.2453 18.4490
L47.2453 18.6305
" />
<path d="M47.2453 18.6305
L47.1849 18.7514
" />
<path d="M47.1849 18.7514
L47.1244 18.8119
" />
<path d="M47.1244 18.8119
L47.0034 18.8724
" />
<path d="M47.0034 18.8724
L46.5196 18.8724
" />
<path d="M47.7896 18.2071
L47.7896 19.2352
" />
<path d="M47.7896 19.2352
L47.8501 19.3562
" />
<path d="M47.8501 19.3562
L47.9106 19.4167
" />
<path d="M47.9106 19.4167
L48.0315 19.4771
" />
<path d="M48.0315 19.4771
L48.2734 19.4771
" />
<path d="M48.2734 19.4771
L48.3944 19.4167
" />
<path d="M48.3944 19.4167
L48.4549 19.3562
" />
<path d="M48.4549 19.3562
L48.5153 19.2352
" />
<path d="M48.5153 19.2352
L48.5153 18.2071
" />
<path d="M48.9387 18.2071
L49.6644 18.2071
" />
<path d="M49.3016 19.4771
L49.3016 18.2071
" />
</g></g>
<g style="fill:#A90000; fill-opacity:0.0; 
stroke:#A90000; stroke-width:0.1524; stroke-opacity:1; 
stroke-linecap:round; stroke-linejoin:round;">
<text x="51.6636" y="18.6436"
textLength="1.4127" font-size="1.6933" lengthAdjust="spacingAndGlyphs"
text-anchor="middle" opacity="0">6</text>
<g class="stroked-text"><desc>6</desc>
<path d="M51.9055 17.2101
L51.6636 17.2101
" />
<path d="M51.6636 17.2101
L51.5427 17.2706
" />
<path d="M51.5427 17.2706
L51.4822 17.3311
" />
<path d="M51.4822 17.3311
L51.3612 17.5125
" />
<path d="M51.3612 17.5125
L51.3008 17.7544
" />
<path d="M51.3008 17.7544
L51.3008 18.2382
" />
<path d="M51.3008 18.2382
L51.3612 18.3592
" />
<path d="M51.3612 18.3592
L51.4217 18.4197
" />
<path d="M51.4217 18.4197
L51.5427 18.4801
" />
<path d="M51.5427 18.4801
L51.7846 18.4801
" />
<path d="M51.7846 18.4801
L51.9055 18.4197
" />
<path d="M51.9055 18.4197
L51.9660 18.3592
" />
<path d="M51.9660 18.3592
L52.0265 18.2382
" />
<path d="M52.0265 18.2382
L52.0265 17.9358
" />
<path d="M52.0265 17.9358
L51.9660 17.8149
" />
<path d="M51.9660 17.8149
L51.9055 17.7544
" />
<path d="M51.9055 17.7544
L51.7846 17.6939
" />
<path d="M51.7846 17.6939
L51.5427 17.6939
" />
<path d="M51.5427 17.6939
L51.4217 17.7544
" />
<path d="M51.4217 17.7544
L51.3612 17.8149
" />
<path d="M51.3612 17.8149
L51.3008 17.9358
" />
</g></g>
<g style="fill:#840084; fill-opacity:0.0; 
stroke:#840084; stroke-width:0.1524; stroke-opacity:1; 
stroke-linecap:round; stroke-linejoin:round;">
</g>
<g style="fill:#006464; fill-opacity:0.0; 
stroke:#006464; stroke-width:0.1524; stroke-opacity:1; 
stroke-linecap:round; stroke-linejoin:round;">
</g>
<g style="fill:#006464; fill-opacity:0.0; 
stroke:#006464; stroke-width:0.1588; stroke-opacity:1; 
stroke-linecap:round; stroke-linejoin:round;">
<text x="31.3436" y="13.1826"
textLength="2.6415" font-size="1.6933" lengthAdjust="spacingAndGlyphs"
text-anchor="middle" opacity="0">U?</text>
<g class="stroked-text"><desc>U?</desc>
<path d="M30.4364 11.8568
L30.4364 12.8849
" />
<path d="M30.4364 12.8849
L30.4969 13.0059
" />
<path d="M30.4969 13.0059
L30.5574 13.0664
" />
<path d="M30.5574 13.0664
L30.6783 13.1268
" />
<path d="M30.6783 13.1268
L30.9202 13.1268
" />
<path d="M30.9202 13.1268
L31.0412 13.0664
" />
<path d="M31.0412 13.0664
L31.1017 13.0059
" />
<path d="M31.1017 13.0059
L31.1621 12.8849
" />
<path d="M31.1621 12.8849
L31.1621 11.8568
" />
<path d="M31.9484 13.0059
L32.0088 13.0664
" />
<path d="M32.0088 13.0664
L31.9484 13.1268
" />
<path d="M31.9484 13.1268
L31.8879 13.0664
" />
<path d="M31.8879 13.0664
L31.9484 13.0059
" />
<path d="M31.9484 13.0059
L31.9484 13.1268
" />
<path d="M31.7065 11.9173
L31.8274 11.8568
" />
<path d="M31.8274 11.8568
L32.1298 11.8568
" />
<path d="M32.1298 11.8568
L32.2507 11.9173
" />
<path d="M32.2507 11.9173
L32.3112 12.0383
" />
<path d="M32.3112 12.0383
L32.3112 12.1592
" />
<path d="M32.3112 12.1592
L32.2507 12.2802
" />
<path d="M32.2507 12.2802
L32.1903 12.3406
" />
<path d="M32.1903 12.3406
L32.0693 12.4011
" />
<path d="M32.0693 12.4011
L32.0088 12.4616
" />
<path d="M32.0088 12.4616
L31.9484 12.5825
" />
<path d="M31.9484 12.5825
L31.9484 12.6430
" />
</g><text x="46.5836" y="13.1826"
textLength="7.2980" font-size="1.6933" lengthAdjust="spacingAndGlyphs"
text-anchor="middle" opacity="0">TC4422</text>
<g class="stroked-text"><desc>TC4422</desc>
<path d="M43.1667 11.8568
L43.8924 11.8568
" />
<path d="M43.5296 13.1268
L43.5296 11.8568
" />
<path d="M45.0414 13.0059
L44.9810 13.0664
" />
<path d="M44.9810 13.0664
L44.7995 13.1268
" />
<path d="M44.7995 13.1268
L44.6786 13.1268
" />
<path d="M44.6786 13.1268
L44.4972 13.0664
" />
<path d="M44.4972 13.0664
L44.3762 12.9454
" />
<path d="M44.3762 12.9454
L44.3157 12.8244
" />
<path d="M44.3157 12.8244
L44.2553 12.5825
" />
<path d="M44.2553 12.5825
L44.2553 12.4011
" />
<path d="M44.2553 12.4011
L44.3157 12.1592
" />
<path d="M44.3157 12.1592
L44.3762 12.0383
" />
<path d="M44.3762 12.0383
L44.4972 11.9173
" />
<path d="M44.4972 11.9173
L44.6786 11.8568
" />
<path d="M44.6786 11.8568
L44.7995 11.8568
" />
<path d="M44.7995 11.8568
L44.9810 11.9173
" />
<path d="M44.9810 11.9173
L45.0414 11.9778
" />
<path d="M46.1300 12.2802
L46.1300 13.1268
" />
<path d="M45.8276 11.7964
L45.5253 12.7035
" />
<path d="M45.5253 12.7035
L46.3114 12.7035
" />
<path d="M47.3395 12.2802
L47.3395 13.1268
" />
<path d="M47.0371 11.7964
L46.7348 12.7035
" />
<path d="M46.7348 12.7035
L47.5209 12.7035
" />
<path d="M47.9443 11.9778
L48.0047 11.9173
" />
<path d="M48.0047 11.9173
L48.1257 11.8568
" />
<path d="M48.1257 11.8568
L48.4281 11.8568
" />
<path d="M48.4281 11.8568
L48.5490 11.9173
" />
<path d="M48.5490 11.9173
L48.6095 11.9778
" />
<path d="M48.6095 11.9778
L48.6700 12.0987
" />
<path d="M48.6700 12.0987
L48.6700 12.2197
" />
<path d="M48.6700 12.2197
L48.6095 12.4011
" />
<path d="M48.6095 12.4011
L47.8838 13.1268
" />
<path d="M47.8838 13.1268
L48.6700 13.1268
" />
<path d="M49.1538 11.9778
L49.2142 11.9173
" />
<path d="M49.2142 11.9173
L49.3352 11.8568
" />
<path d="M49.3352 11.8568
L49.6376 11.8568
" />
<path d="M49.6376 11.8568
L49.7585 11.9173
" />
<path d="M49.7585 11.9173
L49.8190 11.9778
" />
<path d="M49.8190 11.9778
L49.8795 12.0987
" />
<path d="M49.8795 12.0987
L49.8795 12.2197
" />
<path d="M49.8795 12.2197
L49.8190 12.4011
" />
<path d="M49.8190 12.4011
L49.0933 13.1268
" />
<path d="M49.0933 13.1268
L49.8795 13.1268
" />
</g></g> 
</svg>
