<?xml version="1.0" standalone="no"?>
 <!DOCTYPE svg PUBLIC "-//W3C//DTD SVG 1.1//EN" 
 "http://www.w3.org/Graphics/SVG/1.1/DTD/svg11.dtd"> 
<svg
  xmlns:svg="http://www.w3.org/2000/svg"
  xmlns="http://www.w3.org/2000/svg"
  xmlns:xlink="http://www.w3.org/1999/xlink"
  version="1.1"
  width="56.7944mm" height="30.4800mm" viewBox="0.0000 0.0000 56.7944 30.4800">
<title>SVG Image created as ucc27714d.svg date 2024/01/16 15:09:24 </title>
  <desc>Image generated by Eeschema-SVG </desc>
<g style="fill:#000000; fill-opacity:1.0000;stroke:#000000; stroke-opacity:1.0000;
stroke-linecap:round; stroke-linejoin:round;"
 transform="translate(0 0) scale(1 1)">
</g>
<g style="fill:#840000; fill-opacity:0.0; 
stroke:#840000; stroke-width:0.0000; stroke-opacity:1; 
stroke-linecap:round; stroke-linejoin:round;">
</g>
<g style="fill:#FFFFC2; fill-opacity:0.0; 
stroke:#FFFFC2; stroke-width:0.0000; stroke-opacity:1; 
stroke-linecap:round; stroke-linejoin:round;">
</g>
<g style="fill:#FFFFC2; fill-opacity:1.0000; 
stroke:#FFFFC2; stroke-width:0.0000; stroke-opacity:1; 
stroke-linecap:round; stroke-linejoin:round;">
<rect x="20.777200" y="5.080000" width="15.240000" height="20.320000" rx="0.000000" />
</g>
<g style="fill:#840084; fill-opacity:1.0000; 
stroke:#840084; stroke-width:0.0000; stroke-opacity:1; 
stroke-linecap:round; stroke-linejoin:round;">
</g>
<g style="fill:#840000; fill-opacity:1.0000; 
stroke:#840000; stroke-width:0.0000; stroke-opacity:1; 
stroke-linecap:round; stroke-linejoin:round;">
</g>
<g style="fill:#840000; fill-opacity:0.0; 
stroke:#840000; stroke-width:0.2540; stroke-opacity:1; 
stroke-linecap:round; stroke-linejoin:round;">
<rect x="20.777200" y="5.080000" width="15.240000" height="20.320000" rx="0.000000" />
</g>
<g style="fill:#840000; fill-opacity:0.0; 
stroke:#840000; stroke-width:0.1524; stroke-opacity:1; 
stroke-linecap:round; stroke-linejoin:round;">
<path d="M20.7772 7.6200
L18.2372 7.6200
" />
</g>
<g style="fill:#006464; fill-opacity:0.0; 
stroke:#006464; stroke-width:0.1524; stroke-opacity:1; 
stroke-linecap:round; stroke-linejoin:round;">
<text x="21.2852" y="8.2550"
textLength="2.1385" font-size="1.6933" lengthAdjust="spacingAndGlyphs"
text-anchor="start" opacity="0">HI</text>
<g class="stroked-text"><desc>HI</desc>
<path d="M21.6877 8.1995
L21.6877 6.9295
" />
<path d="M21.6877 7.5343
L22.4134 7.5343
" />
<path d="M22.4134 8.1995
L22.4134 6.9295
" />
<path d="M23.0182 8.1995
L23.0182 6.9295
" />
</g></g>
<g style="fill:#A90000; fill-opacity:0.0; 
stroke:#A90000; stroke-width:0.1524; stroke-opacity:1; 
stroke-linecap:round; stroke-linejoin:round;">
<text x="19.5072" y="7.3660"
textLength="1.4127" font-size="1.6933" lengthAdjust="spacingAndGlyphs"
text-anchor="middle" opacity="0">1</text>
<g class="stroked-text"><desc>1</desc>
<path d="M19.8701 7.2025
L19.1444 7.2025
" />
<path d="M19.5072 7.2025
L19.5072 5.9325
" />
<path d="M19.5072 5.9325
L19.3863 6.1140
" />
<path d="M19.3863 6.1140
L19.2653 6.2349
" />
<path d="M19.2653 6.2349
L19.1444 6.2954
" />
</g></g>
<g style="fill:#840000; fill-opacity:0.0; 
stroke:#840000; stroke-width:0.1524; stroke-opacity:1; 
stroke-linecap:round; stroke-linejoin:round;">
<path d="M36.0172 15.2400
L38.5572 15.2400
" />
</g>
<g style="fill:#006464; fill-opacity:0.0; 
stroke:#006464; stroke-width:0.1524; stroke-opacity:1; 
stroke-linecap:round; stroke-linejoin:round;">
<text x="35.5092" y="15.8750"
textLength="2.7432" font-size="1.6933" lengthAdjust="spacingAndGlyphs"
text-anchor="end" opacity="0">HS</text>
<g class="stroked-text"><desc>HS</desc>
<path d="M33.1713 15.8195
L33.1713 14.5495
" />
<path d="M33.1713 15.1543
L33.8970 15.1543
" />
<path d="M33.8970 15.8195
L33.8970 14.5495
" />
<path d="M34.4414 15.7591
L34.6228 15.8195
" />
<path d="M34.6228 15.8195
L34.9252 15.8195
" />
<path d="M34.9252 15.8195
L35.0461 15.7591
" />
<path d="M35.0461 15.7591
L35.1066 15.6986
" />
<path d="M35.1066 15.6986
L35.1671 15.5776
" />
<path d="M35.1671 15.5776
L35.1671 15.4567
" />
<path d="M35.1671 15.4567
L35.1066 15.3357
" />
<path d="M35.1066 15.3357
L35.0461 15.2752
" />
<path d="M35.0461 15.2752
L34.9252 15.2148
" />
<path d="M34.9252 15.2148
L34.6833 15.1543
" />
<path d="M34.6833 15.1543
L34.5623 15.0938
" />
<path d="M34.5623 15.0938
L34.5018 15.0333
" />
<path d="M34.5018 15.0333
L34.4414 14.9124
" />
<path d="M34.4414 14.9124
L34.4414 14.7914
" />
<path d="M34.4414 14.7914
L34.5018 14.6705
" />
<path d="M34.5018 14.6705
L34.5623 14.6100
" />
<path d="M34.5623 14.6100
L34.6833 14.5495
" />
<path d="M34.6833 14.5495
L34.9856 14.5495
" />
<path d="M34.9856 14.5495
L35.1671 14.6100
" />
</g></g>
<g style="fill:#A90000; fill-opacity:0.0; 
stroke:#A90000; stroke-width:0.1524; stroke-opacity:1; 
stroke-linecap:round; stroke-linejoin:round;">
<text x="37.2872" y="14.9860"
textLength="2.6222" font-size="1.6933" lengthAdjust="spacingAndGlyphs"
text-anchor="middle" opacity="0">11</text>
<g class="stroked-text"><desc>11</desc>
<path d="M37.0453 14.8225
L36.3196 14.8225
" />
<path d="M36.6824 14.8225
L36.6824 13.5525
" />
<path d="M36.6824 13.5525
L36.5615 13.7340
" />
<path d="M36.5615 13.7340
L36.4405 13.8549
" />
<path d="M36.4405 13.8549
L36.3196 13.9154
" />
<path d="M38.2548 14.8225
L37.5291 14.8225
" />
<path d="M37.8919 14.8225
L37.8919 13.5525
" />
<path d="M37.8919 13.5525
L37.7710 13.7340
" />
<path d="M37.7710 13.7340
L37.6500 13.8549
" />
<path d="M37.6500 13.8549
L37.5291 13.9154
" />
</g></g>
<g style="fill:#840000; fill-opacity:0.0; 
stroke:#840000; stroke-width:0.1524; stroke-opacity:1; 
stroke-linecap:round; stroke-linejoin:round;">
<path d="M36.0172 12.7000
L38.5572 12.7000
" />
</g>
<g style="fill:#006464; fill-opacity:0.0; 
stroke:#006464; stroke-width:0.1524; stroke-opacity:1; 
stroke-linecap:round; stroke-linejoin:round;">
<text x="35.5092" y="13.3350"
textLength="2.8642" font-size="1.6933" lengthAdjust="spacingAndGlyphs"
text-anchor="end" opacity="0">HO</text>
<g class="stroked-text"><desc>HO</desc>
<path d="M33.0503 13.2795
L33.0503 12.0095
" />
<path d="M33.0503 12.6143
L33.7760 12.6143
" />
<path d="M33.7760 13.2795
L33.7760 12.0095
" />
<path d="M34.6227 12.0095
L34.8646 12.0095
" />
<path d="M34.8646 12.0095
L34.9856 12.0700
" />
<path d="M34.9856 12.0700
L35.1065 12.1910
" />
<path d="M35.1065 12.1910
L35.1670 12.4329
" />
<path d="M35.1670 12.4329
L35.1670 12.8562
" />
<path d="M35.1670 12.8562
L35.1065 13.0981
" />
<path d="M35.1065 13.0981
L34.9856 13.2191
" />
<path d="M34.9856 13.2191
L34.8646 13.2795
" />
<path d="M34.8646 13.2795
L34.6227 13.2795
" />
<path d="M34.6227 13.2795
L34.5018 13.2191
" />
<path d="M34.5018 13.2191
L34.3808 13.0981
" />
<path d="M34.3808 13.0981
L34.3204 12.8562
" />
<path d="M34.3204 12.8562
L34.3204 12.4329
" />
<path d="M34.3204 12.4329
L34.3808 12.1910
" />
<path d="M34.3808 12.1910
L34.5018 12.0700
" />
<path d="M34.5018 12.0700
L34.6227 12.0095
" />
</g></g>
<g style="fill:#A90000; fill-opacity:0.0; 
stroke:#A90000; stroke-width:0.1524; stroke-opacity:1; 
stroke-linecap:round; stroke-linejoin:round;">
<text x="37.2872" y="12.4460"
textLength="2.6222" font-size="1.6933" lengthAdjust="spacingAndGlyphs"
text-anchor="middle" opacity="0">12</text>
<g class="stroked-text"><desc>12</desc>
<path d="M37.0453 12.2825
L36.3196 12.2825
" />
<path d="M36.6824 12.2825
L36.6824 11.0125
" />
<path d="M36.6824 11.0125
L36.5615 11.1940
" />
<path d="M36.5615 11.1940
L36.4405 11.3149
" />
<path d="M36.4405 11.3149
L36.3196 11.3754
" />
<path d="M37.5291 11.1335
L37.5895 11.0730
" />
<path d="M37.5895 11.0730
L37.7105 11.0125
" />
<path d="M37.7105 11.0125
L38.0129 11.0125
" />
<path d="M38.0129 11.0125
L38.1338 11.0730
" />
<path d="M38.1338 11.0730
L38.1943 11.1335
" />
<path d="M38.1943 11.1335
L38.2548 11.2544
" />
<path d="M38.2548 11.2544
L38.2548 11.3754
" />
<path d="M38.2548 11.3754
L38.1943 11.5568
" />
<path d="M38.1943 11.5568
L37.4686 12.2825
" />
<path d="M37.4686 12.2825
L38.2548 12.2825
" />
</g></g>
<g style="fill:#840000; fill-opacity:0.0; 
stroke:#840000; stroke-width:0.1524; stroke-opacity:1; 
stroke-linecap:round; stroke-linejoin:round;">
<path d="M36.0172 7.6200
L38.5572 7.6200
" />
</g>
<g style="fill:#006464; fill-opacity:0.0; 
stroke:#006464; stroke-width:0.1524; stroke-opacity:1; 
stroke-linecap:round; stroke-linejoin:round;">
<text x="35.5092" y="8.2550"
textLength="2.8037" font-size="1.6933" lengthAdjust="spacingAndGlyphs"
text-anchor="end" opacity="0">HB</text>
<g class="stroked-text"><desc>HB</desc>
<path d="M33.1108 8.1995
L33.1108 6.9295
" />
<path d="M33.1108 7.5343
L33.8365 7.5343
" />
<path d="M33.8365 8.1995
L33.8365 6.9295
" />
<path d="M34.8647 7.5343
L35.0461 7.5948
" />
<path d="M35.0461 7.5948
L35.1066 7.6552
" />
<path d="M35.1066 7.6552
L35.1670 7.7762
" />
<path d="M35.1670 7.7762
L35.1670 7.9576
" />
<path d="M35.1670 7.9576
L35.1066 8.0786
" />
<path d="M35.1066 8.0786
L35.0461 8.1391
" />
<path d="M35.0461 8.1391
L34.9251 8.1995
" />
<path d="M34.9251 8.1995
L34.4413 8.1995
" />
<path d="M34.4413 8.1995
L34.4413 6.9295
" />
<path d="M34.4413 6.9295
L34.8647 6.9295
" />
<path d="M34.8647 6.9295
L34.9856 6.9900
" />
<path d="M34.9856 6.9900
L35.0461 7.0505
" />
<path d="M35.0461 7.0505
L35.1066 7.1714
" />
<path d="M35.1066 7.1714
L35.1066 7.2924
" />
<path d="M35.1066 7.2924
L35.0461 7.4133
" />
<path d="M35.0461 7.4133
L34.9856 7.4738
" />
<path d="M34.9856 7.4738
L34.8647 7.5343
" />
<path d="M34.8647 7.5343
L34.4413 7.5343
" />
</g></g>
<g style="fill:#A90000; fill-opacity:0.0; 
stroke:#A90000; stroke-width:0.1524; stroke-opacity:1; 
stroke-linecap:round; stroke-linejoin:round;">
<text x="37.2872" y="7.3660"
textLength="2.6222" font-size="1.6933" lengthAdjust="spacingAndGlyphs"
text-anchor="middle" opacity="0">13</text>
<g class="stroked-text"><desc>13</desc>
<path d="M37.0453 7.2025
L36.3196 7.2025
" />
<path d="M36.6824 7.2025
L36.6824 5.9325
" />
<path d="M36.6824 5.9325
L36.5615 6.1140
" />
<path d="M36.5615 6.1140
L36.4405 6.2349
" />
<path d="M36.4405 6.2349
L36.3196 6.2954
" />
<path d="M37.4686 5.9325
L38.2548 5.9325
" />
<path d="M38.2548 5.9325
L37.8314 6.4163
" />
<path d="M37.8314 6.4163
L38.0129 6.4163
" />
<path d="M38.0129 6.4163
L38.1338 6.4768
" />
<path d="M38.1338 6.4768
L38.1943 6.5373
" />
<path d="M38.1943 6.5373
L38.2548 6.6582
" />
<path d="M38.2548 6.6582
L38.2548 6.9606
" />
<path d="M38.2548 6.9606
L38.1943 7.0816
" />
<path d="M38.1943 7.0816
L38.1338 7.1421
" />
<path d="M38.1338 7.1421
L38.0129 7.2025
" />
<path d="M38.0129 7.2025
L37.6500 7.2025
" />
<path d="M37.6500 7.2025
L37.5291 7.1421
" />
<path d="M37.5291 7.1421
L37.4686 7.0816
" />
</g></g>
<g style="fill:#840000; fill-opacity:0.0; 
stroke:#840000; stroke-width:0.1524; stroke-opacity:1; 
stroke-linecap:round; stroke-linejoin:round;">
<path d="M20.7772 10.1600
L18.2372 10.1600
" />
</g>
<g style="fill:#006464; fill-opacity:0.0; 
stroke:#006464; stroke-width:0.1524; stroke-opacity:1; 
stroke-linecap:round; stroke-linejoin:round;">
<text x="21.2852" y="10.7950"
textLength="1.8361" font-size="1.6933" lengthAdjust="spacingAndGlyphs"
text-anchor="start" opacity="0">LI</text>
<g class="stroked-text"><desc>LI</desc>
<path d="M22.2925 10.7395
L21.6877 10.7395
" />
<path d="M21.6877 10.7395
L21.6877 9.4695
" />
<path d="M22.7158 10.7395
L22.7158 9.4695
" />
</g></g>
<g style="fill:#A90000; fill-opacity:0.0; 
stroke:#A90000; stroke-width:0.1524; stroke-opacity:1; 
stroke-linecap:round; stroke-linejoin:round;">
<text x="19.5072" y="9.9060"
textLength="1.4127" font-size="1.6933" lengthAdjust="spacingAndGlyphs"
text-anchor="middle" opacity="0">2</text>
<g class="stroked-text"><desc>2</desc>
<path d="M19.1444 8.5935
L19.2048 8.5330
" />
<path d="M19.2048 8.5330
L19.3258 8.4725
" />
<path d="M19.3258 8.4725
L19.6282 8.4725
" />
<path d="M19.6282 8.4725
L19.7491 8.5330
" />
<path d="M19.7491 8.5330
L19.8096 8.5935
" />
<path d="M19.8096 8.5935
L19.8701 8.7144
" />
<path d="M19.8701 8.7144
L19.8701 8.8354
" />
<path d="M19.8701 8.8354
L19.8096 9.0168
" />
<path d="M19.8096 9.0168
L19.0839 9.7425
" />
<path d="M19.0839 9.7425
L19.8701 9.7425
" />
</g></g>
<g style="fill:#840000; fill-opacity:0.0; 
stroke:#840000; stroke-width:0.1524; stroke-opacity:1; 
stroke-linecap:round; stroke-linejoin:round;">
<path d="M28.3972 25.4000
L28.3972 27.9400
" />
</g>
<g style="fill:#006464; fill-opacity:0.0; 
stroke:#006464; stroke-width:0.1524; stroke-opacity:1; 
stroke-linecap:round; stroke-linejoin:round;">
<g transform="rotate(-90.000000 28.3972 24.8920)">
<text x="28.3972" y="25.5270"
textLength="3.7108" font-size="1.6933" lengthAdjust="spacingAndGlyphs"
text-anchor="start" opacity="0">VSS</text>
</g>
<g class="stroked-text"><desc>VSS</desc>
<path d="M27.7067 24.6708
L28.9767 24.2475
" />
<path d="M28.9767 24.2475
L27.7067 23.8241
" />
<path d="M28.9163 23.4612
L28.9767 23.2798
" />
<path d="M28.9767 23.2798
L28.9767 22.9774
" />
<path d="M28.9767 22.9774
L28.9163 22.8565
" />
<path d="M28.9163 22.8565
L28.8558 22.7960
" />
<path d="M28.8558 22.7960
L28.7348 22.7355
" />
<path d="M28.7348 22.7355
L28.6139 22.7355
" />
<path d="M28.6139 22.7355
L28.4929 22.7960
" />
<path d="M28.4929 22.7960
L28.4324 22.8565
" />
<path d="M28.4324 22.8565
L28.3720 22.9774
" />
<path d="M28.3720 22.9774
L28.3115 23.2193
" />
<path d="M28.3115 23.2193
L28.2510 23.3403
" />
<path d="M28.2510 23.3403
L28.1905 23.4008
" />
<path d="M28.1905 23.4008
L28.0696 23.4612
" />
<path d="M28.0696 23.4612
L27.9486 23.4612
" />
<path d="M27.9486 23.4612
L27.8277 23.4008
" />
<path d="M27.8277 23.4008
L27.7672 23.3403
" />
<path d="M27.7672 23.3403
L27.7067 23.2193
" />
<path d="M27.7067 23.2193
L27.7067 22.9170
" />
<path d="M27.7067 22.9170
L27.7672 22.7355
" />
<path d="M28.9163 22.2517
L28.9767 22.0703
" />
<path d="M28.9767 22.0703
L28.9767 21.7679
" />
<path d="M28.9767 21.7679
L28.9163 21.6470
" />
<path d="M28.9163 21.6470
L28.8558 21.5865
" />
<path d="M28.8558 21.5865
L28.7348 21.5260
" />
<path d="M28.7348 21.5260
L28.6139 21.5260
" />
<path d="M28.6139 21.5260
L28.4929 21.5865
" />
<path d="M28.4929 21.5865
L28.4324 21.6470
" />
<path d="M28.4324 21.6470
L28.3720 21.7679
" />
<path d="M28.3720 21.7679
L28.3115 22.0098
" />
<path d="M28.3115 22.0098
L28.2510 22.1308
" />
<path d="M28.2510 22.1308
L28.1905 22.1913
" />
<path d="M28.1905 22.1913
L28.0696 22.2517
" />
<path d="M28.0696 22.2517
L27.9486 22.2517
" />
<path d="M27.9486 22.2517
L27.8277 22.1913
" />
<path d="M27.8277 22.1913
L27.7672 22.1308
" />
<path d="M27.7672 22.1308
L27.7067 22.0098
" />
<path d="M27.7067 22.0098
L27.7067 21.7075
" />
<path d="M27.7067 21.7075
L27.7672 21.5260
" />
</g></g>
<g style="fill:#A90000; fill-opacity:0.0; 
stroke:#A90000; stroke-width:0.1524; stroke-opacity:1; 
stroke-linecap:round; stroke-linejoin:round;">
<g transform="rotate(-90.000000 28.1432 26.6700)">
<text x="28.1432" y="26.6700"
textLength="1.4127" font-size="1.6933" lengthAdjust="spacingAndGlyphs"
text-anchor="middle" opacity="0">3</text>
</g>
<g class="stroked-text"><desc>3</desc>
<path d="M26.7097 27.0932
L26.7097 26.3070
" />
<path d="M26.7097 26.3070
L27.1935 26.7304
" />
<path d="M27.1935 26.7304
L27.1935 26.5489
" />
<path d="M27.1935 26.5489
L27.2540 26.4280
" />
<path d="M27.2540 26.4280
L27.3145 26.3675
" />
<path d="M27.3145 26.3675
L27.4354 26.3070
" />
<path d="M27.4354 26.3070
L27.7378 26.3070
" />
<path d="M27.7378 26.3070
L27.8588 26.3675
" />
<path d="M27.8588 26.3675
L27.9193 26.4280
" />
<path d="M27.9193 26.4280
L27.9797 26.5489
" />
<path d="M27.9797 26.5489
L27.9797 26.9118
" />
<path d="M27.9797 26.9118
L27.9193 27.0327
" />
<path d="M27.9193 27.0327
L27.8588 27.0932
" />
</g></g>
<g style="fill:#840000; fill-opacity:0.0; 
stroke:#840000; stroke-width:0.1524; stroke-opacity:1; 
stroke-linecap:round; stroke-linejoin:round;">
<path d="M20.7772 12.7000
L18.2372 12.7000
" />
</g>
<g style="fill:#006464; fill-opacity:0.0; 
stroke:#006464; stroke-width:0.1524; stroke-opacity:1; 
stroke-linecap:round; stroke-linejoin:round;">
<text x="21.2852" y="13.3350"
textLength="6.6137" font-size="1.6933" lengthAdjust="spacingAndGlyphs"
text-anchor="start" opacity="0">EN/NC</text>
<g class="stroked-text"><desc>EN/NC</desc>
<path d="M21.6877 12.6143
L22.1111 12.6143
" />
<path d="M22.2925 13.2795
L21.6877 13.2795
" />
<path d="M21.6877 13.2795
L21.6877 12.0095
" />
<path d="M21.6877 12.0095
L22.2925 12.0095
" />
<path d="M22.8367 13.2795
L22.8367 12.0095
" />
<path d="M22.8367 12.0095
L23.5624 13.2795
" />
<path d="M23.5624 13.2795
L23.5624 12.0095
" />
<path d="M25.0744 11.9491
L23.9858 13.5819
" />
<path d="M25.4977 13.2795
L25.4977 12.0095
" />
<path d="M25.4977 12.0095
L26.2234 13.2795
" />
<path d="M26.2234 13.2795
L26.2234 12.0095
" />
<path d="M27.5539 13.1586
L27.4935 13.2191
" />
<path d="M27.4935 13.2191
L27.3120 13.2795
" />
<path d="M27.3120 13.2795
L27.1911 13.2795
" />
<path d="M27.1911 13.2795
L27.0097 13.2191
" />
<path d="M27.0097 13.2191
L26.8887 13.0981
" />
<path d="M26.8887 13.0981
L26.8282 12.9771
" />
<path d="M26.8282 12.9771
L26.7678 12.7352
" />
<path d="M26.7678 12.7352
L26.7678 12.5538
" />
<path d="M26.7678 12.5538
L26.8282 12.3119
" />
<path d="M26.8282 12.3119
L26.8887 12.1910
" />
<path d="M26.8887 12.1910
L27.0097 12.0700
" />
<path d="M27.0097 12.0700
L27.1911 12.0095
" />
<path d="M27.1911 12.0095
L27.3120 12.0095
" />
<path d="M27.3120 12.0095
L27.4935 12.0700
" />
<path d="M27.4935 12.0700
L27.5539 12.1305
" />
</g></g>
<g style="fill:#A90000; fill-opacity:0.0; 
stroke:#A90000; stroke-width:0.1524; stroke-opacity:1; 
stroke-linecap:round; stroke-linejoin:round;">
<text x="19.5072" y="12.4460"
textLength="1.4127" font-size="1.6933" lengthAdjust="spacingAndGlyphs"
text-anchor="middle" opacity="0">4</text>
<g class="stroked-text"><desc>4</desc>
<path d="M19.7491 11.4359
L19.7491 12.2825
" />
<path d="M19.4467 10.9521
L19.1444 11.8592
" />
<path d="M19.1444 11.8592
L19.9305 11.8592
" />
</g></g>
<g style="fill:#840000; fill-opacity:0.0; 
stroke:#840000; stroke-width:0.1524; stroke-opacity:1; 
stroke-linecap:round; stroke-linejoin:round;">
<path d="M36.0172 22.8600
L38.5572 22.8600
" />
</g>
<g style="fill:#006464; fill-opacity:0.0; 
stroke:#006464; stroke-width:0.1524; stroke-opacity:1; 
stroke-linecap:round; stroke-linejoin:round;">
<text x="35.5092" y="23.4950"
textLength="4.2551" font-size="1.6933" lengthAdjust="spacingAndGlyphs"
text-anchor="end" opacity="0">COM</text>
<g class="stroked-text"><desc>COM</desc>
<path d="M32.3851 23.3186
L32.3247 23.3791
" />
<path d="M32.3247 23.3791
L32.1432 23.4395
" />
<path d="M32.1432 23.4395
L32.0223 23.4395
" />
<path d="M32.0223 23.4395
L31.8409 23.3791
" />
<path d="M31.8409 23.3791
L31.7199 23.2581
" />
<path d="M31.7199 23.2581
L31.6594 23.1371
" />
<path d="M31.6594 23.1371
L31.5990 22.8952
" />
<path d="M31.5990 22.8952
L31.5990 22.7138
" />
<path d="M31.5990 22.7138
L31.6594 22.4719
" />
<path d="M31.6594 22.4719
L31.7199 22.3510
" />
<path d="M31.7199 22.3510
L31.8409 22.2300
" />
<path d="M31.8409 22.2300
L32.0223 22.1695
" />
<path d="M32.0223 22.1695
L32.1432 22.1695
" />
<path d="M32.1432 22.1695
L32.3247 22.2300
" />
<path d="M32.3247 22.2300
L32.3851 22.2905
" />
<path d="M33.1713 22.1695
L33.4132 22.1695
" />
<path d="M33.4132 22.1695
L33.5342 22.2300
" />
<path d="M33.5342 22.2300
L33.6551 22.3510
" />
<path d="M33.6551 22.3510
L33.7156 22.5929
" />
<path d="M33.7156 22.5929
L33.7156 23.0162
" />
<path d="M33.7156 23.0162
L33.6551 23.2581
" />
<path d="M33.6551 23.2581
L33.5342 23.3791
" />
<path d="M33.5342 23.3791
L33.4132 23.4395
" />
<path d="M33.4132 23.4395
L33.1713 23.4395
" />
<path d="M33.1713 23.4395
L33.0504 23.3791
" />
<path d="M33.0504 23.3791
L32.9294 23.2581
" />
<path d="M32.9294 23.2581
L32.8690 23.0162
" />
<path d="M32.8690 23.0162
L32.8690 22.5929
" />
<path d="M32.8690 22.5929
L32.9294 22.3510
" />
<path d="M32.9294 22.3510
L33.0504 22.2300
" />
<path d="M33.0504 22.2300
L33.1713 22.1695
" />
<path d="M34.2599 23.4395
L34.2599 22.1695
" />
<path d="M34.2599 22.1695
L34.6833 23.0767
" />
<path d="M34.6833 23.0767
L35.1066 22.1695
" />
<path d="M35.1066 22.1695
L35.1066 23.4395
" />
</g></g>
<g style="fill:#A90000; fill-opacity:0.0; 
stroke:#A90000; stroke-width:0.1524; stroke-opacity:1; 
stroke-linecap:round; stroke-linejoin:round;">
<text x="37.2872" y="22.6060"
textLength="1.4127" font-size="1.6933" lengthAdjust="spacingAndGlyphs"
text-anchor="middle" opacity="0">5</text>
<g class="stroked-text"><desc>5</desc>
<path d="M37.5896 21.1725
L36.9848 21.1725
" />
<path d="M36.9848 21.1725
L36.9244 21.7773
" />
<path d="M36.9244 21.7773
L36.9848 21.7168
" />
<path d="M36.9848 21.7168
L37.1058 21.6563
" />
<path d="M37.1058 21.6563
L37.4082 21.6563
" />
<path d="M37.4082 21.6563
L37.5291 21.7168
" />
<path d="M37.5291 21.7168
L37.5896 21.7773
" />
<path d="M37.5896 21.7773
L37.6501 21.8982
" />
<path d="M37.6501 21.8982
L37.6501 22.2006
" />
<path d="M37.6501 22.2006
L37.5896 22.3216
" />
<path d="M37.5896 22.3216
L37.5291 22.3821
" />
<path d="M37.5291 22.3821
L37.4082 22.4425
" />
<path d="M37.4082 22.4425
L37.1058 22.4425
" />
<path d="M37.1058 22.4425
L36.9848 22.3821
" />
<path d="M36.9848 22.3821
L36.9244 22.3216
" />
</g></g>
<g style="fill:#840000; fill-opacity:0.0; 
stroke:#840000; stroke-width:0.1524; stroke-opacity:1; 
stroke-linecap:round; stroke-linejoin:round;">
<path d="M36.0172 20.3200
L38.5572 20.3200
" />
</g>
<g style="fill:#006464; fill-opacity:0.0; 
stroke:#006464; stroke-width:0.1524; stroke-opacity:1; 
stroke-linecap:round; stroke-linejoin:round;">
<text x="35.5092" y="20.9550"
textLength="2.5618" font-size="1.6933" lengthAdjust="spacingAndGlyphs"
text-anchor="end" opacity="0">LO</text>
<g class="stroked-text"><desc>LO</desc>
<path d="M33.9575 20.8995
L33.3527 20.8995
" />
<path d="M33.3527 20.8995
L33.3527 19.6295
" />
<path d="M34.6227 19.6295
L34.8646 19.6295
" />
<path d="M34.8646 19.6295
L34.9856 19.6900
" />
<path d="M34.9856 19.6900
L35.1065 19.8110
" />
<path d="M35.1065 19.8110
L35.1670 20.0529
" />
<path d="M35.1670 20.0529
L35.1670 20.4762
" />
<path d="M35.1670 20.4762
L35.1065 20.7181
" />
<path d="M35.1065 20.7181
L34.9856 20.8391
" />
<path d="M34.9856 20.8391
L34.8646 20.8995
" />
<path d="M34.8646 20.8995
L34.6227 20.8995
" />
<path d="M34.6227 20.8995
L34.5018 20.8391
" />
<path d="M34.5018 20.8391
L34.3808 20.7181
" />
<path d="M34.3808 20.7181
L34.3204 20.4762
" />
<path d="M34.3204 20.4762
L34.3204 20.0529
" />
<path d="M34.3204 20.0529
L34.3808 19.8110
" />
<path d="M34.3808 19.8110
L34.5018 19.6900
" />
<path d="M34.5018 19.6900
L34.6227 19.6295
" />
</g></g>
<g style="fill:#A90000; fill-opacity:0.0; 
stroke:#A90000; stroke-width:0.1524; stroke-opacity:1; 
stroke-linecap:round; stroke-linejoin:round;">
<text x="37.2872" y="20.0660"
textLength="1.4127" font-size="1.6933" lengthAdjust="spacingAndGlyphs"
text-anchor="middle" opacity="0">6</text>
<g class="stroked-text"><desc>6</desc>
<path d="M37.5291 18.6325
L37.2872 18.6325
" />
<path d="M37.2872 18.6325
L37.1663 18.6930
" />
<path d="M37.1663 18.6930
L37.1058 18.7535
" />
<path d="M37.1058 18.7535
L36.9848 18.9349
" />
<path d="M36.9848 18.9349
L36.9244 19.1768
" />
<path d="M36.9244 19.1768
L36.9244 19.6606
" />
<path d="M36.9244 19.6606
L36.9848 19.7816
" />
<path d="M36.9848 19.7816
L37.0453 19.8421
" />
<path d="M37.0453 19.8421
L37.1663 19.9025
" />
<path d="M37.1663 19.9025
L37.4082 19.9025
" />
<path d="M37.4082 19.9025
L37.5291 19.8421
" />
<path d="M37.5291 19.8421
L37.5896 19.7816
" />
<path d="M37.5896 19.7816
L37.6501 19.6606
" />
<path d="M37.6501 19.6606
L37.6501 19.3582
" />
<path d="M37.6501 19.3582
L37.5896 19.2373
" />
<path d="M37.5896 19.2373
L37.5291 19.1768
" />
<path d="M37.5291 19.1768
L37.4082 19.1163
" />
<path d="M37.4082 19.1163
L37.1663 19.1163
" />
<path d="M37.1663 19.1163
L37.0453 19.1768
" />
<path d="M37.0453 19.1768
L36.9848 19.2373
" />
<path d="M36.9848 19.2373
L36.9244 19.3582
" />
</g></g>
<g style="fill:#840000; fill-opacity:0.0; 
stroke:#840000; stroke-width:0.1524; stroke-opacity:1; 
stroke-linecap:round; stroke-linejoin:round;">
<path d="M28.3972 5.0800
L28.3972 2.5400
" />
</g>
<g style="fill:#006464; fill-opacity:0.0; 
stroke:#006464; stroke-width:0.1524; stroke-opacity:1; 
stroke-linecap:round; stroke-linejoin:round;">
<g transform="rotate(-90.000000 28.3972 5.5880)">
<text x="28.3972" y="6.2230"
textLength="3.8318" font-size="1.6933" lengthAdjust="spacingAndGlyphs"
text-anchor="end" opacity="0">VDD</text>
</g>
<g class="stroked-text"><desc>VDD</desc>
<path d="M27.7067 9.1958
L28.9767 8.7725
" />
<path d="M28.9767 8.7725
L27.7067 8.3491
" />
<path d="M28.9767 7.9258
L27.7067 7.9258
" />
<path d="M27.7067 7.9258
L27.7067 7.6234
" />
<path d="M27.7067 7.6234
L27.7672 7.4420
" />
<path d="M27.7672 7.4420
L27.8882 7.3210
" />
<path d="M27.8882 7.3210
L28.0091 7.2605
" />
<path d="M28.0091 7.2605
L28.2510 7.2001
" />
<path d="M28.2510 7.2001
L28.4324 7.2001
" />
<path d="M28.4324 7.2001
L28.6743 7.2605
" />
<path d="M28.6743 7.2605
L28.7953 7.3210
" />
<path d="M28.7953 7.3210
L28.9163 7.4420
" />
<path d="M28.9163 7.4420
L28.9767 7.6234
" />
<path d="M28.9767 7.6234
L28.9767 7.9258
" />
<path d="M28.9767 6.6558
L27.7067 6.6558
" />
<path d="M27.7067 6.6558
L27.7067 6.3534
" />
<path d="M27.7067 6.3534
L27.7672 6.1720
" />
<path d="M27.7672 6.1720
L27.8882 6.0510
" />
<path d="M27.8882 6.0510
L28.0091 5.9905
" />
<path d="M28.0091 5.9905
L28.2510 5.9301
" />
<path d="M28.2510 5.9301
L28.4324 5.9301
" />
<path d="M28.4324 5.9301
L28.6743 5.9905
" />
<path d="M28.6743 5.9905
L28.7953 6.0510
" />
<path d="M28.7953 6.0510
L28.9163 6.1720
" />
<path d="M28.9163 6.1720
L28.9767 6.3534
" />
<path d="M28.9767 6.3534
L28.9767 6.6558
" />
</g></g>
<g style="fill:#A90000; fill-opacity:0.0; 
stroke:#A90000; stroke-width:0.1524; stroke-opacity:1; 
stroke-linecap:round; stroke-linejoin:round;">
<g transform="rotate(-90.000000 28.1432 3.8100)">
<text x="28.1432" y="3.8100"
textLength="1.4127" font-size="1.6933" lengthAdjust="spacingAndGlyphs"
text-anchor="middle" opacity="0">7</text>
</g>
<g class="stroked-text"><desc>7</desc>
<path d="M26.7097 4.2332
L26.7097 3.3866
" />
<path d="M26.7097 3.3866
L27.9797 3.9308
" />
</g></g>
<g style="fill:#840084; fill-opacity:0.0; 
stroke:#840084; stroke-width:0.1524; stroke-opacity:1; 
stroke-linecap:round; stroke-linejoin:round;">
</g>
<g style="fill:#006464; fill-opacity:0.0; 
stroke:#006464; stroke-width:0.1524; stroke-opacity:1; 
stroke-linecap:round; stroke-linejoin:round;">
</g>
<g style="fill:#006464; fill-opacity:0.0; 
stroke:#006464; stroke-width:0.1588; stroke-opacity:1; 
stroke-linecap:round; stroke-linejoin:round;">
<text x="22.0979" y="4.4450"
textLength="2.6415" font-size="1.6933" lengthAdjust="spacingAndGlyphs"
text-anchor="middle" opacity="0">U?</text>
<g class="stroked-text"><desc>U?</desc>
<path d="M21.1907 3.1192
L21.1907 4.1473
" />
<path d="M21.1907 4.1473
L21.2512 4.2683
" />
<path d="M21.2512 4.2683
L21.3117 4.3288
" />
<path d="M21.3117 4.3288
L21.4326 4.3892
" />
<path d="M21.4326 4.3892
L21.6745 4.3892
" />
<path d="M21.6745 4.3892
L21.7955 4.3288
" />
<path d="M21.7955 4.3288
L21.8560 4.2683
" />
<path d="M21.8560 4.2683
L21.9164 4.1473
" />
<path d="M21.9164 4.1473
L21.9164 3.1192
" />
<path d="M22.7027 4.2683
L22.7631 4.3288
" />
<path d="M22.7631 4.3288
L22.7027 4.3892
" />
<path d="M22.7027 4.3892
L22.6422 4.3288
" />
<path d="M22.6422 4.3288
L22.7027 4.2683
" />
<path d="M22.7027 4.2683
L22.7027 4.3892
" />
<path d="M22.4608 3.1797
L22.5817 3.1192
" />
<path d="M22.5817 3.1192
L22.8841 3.1192
" />
<path d="M22.8841 3.1192
L23.0050 3.1797
" />
<path d="M23.0050 3.1797
L23.0655 3.3007
" />
<path d="M23.0655 3.3007
L23.0655 3.4216
" />
<path d="M23.0655 3.4216
L23.0050 3.5426
" />
<path d="M23.0050 3.5426
L22.9446 3.6030
" />
<path d="M22.9446 3.6030
L22.8236 3.6635
" />
<path d="M22.8236 3.6635
L22.7631 3.7240
" />
<path d="M22.7631 3.7240
L22.7027 3.8449
" />
<path d="M22.7027 3.8449
L22.7027 3.9054
" />
</g><text x="35.3724" y="4.4450"
textLength="11.4104" font-size="1.6933" lengthAdjust="spacingAndGlyphs"
text-anchor="middle" opacity="0">UCC27714D</text>
<g class="stroked-text"><desc>UCC27714D</desc>
<path d="M30.0807 3.1192
L30.0807 4.1473
" />
<path d="M30.0807 4.1473
L30.1412 4.2683
" />
<path d="M30.1412 4.2683
L30.2017 4.3288
" />
<path d="M30.2017 4.3288
L30.3226 4.3892
" />
<path d="M30.3226 4.3892
L30.5645 4.3892
" />
<path d="M30.5645 4.3892
L30.6855 4.3288
" />
<path d="M30.6855 4.3288
L30.7460 4.2683
" />
<path d="M30.7460 4.2683
L30.8064 4.1473
" />
<path d="M30.8064 4.1473
L30.8064 3.1192
" />
<path d="M32.1369 4.2683
L32.0765 4.3288
" />
<path d="M32.0765 4.3288
L31.8950 4.3892
" />
<path d="M31.8950 4.3892
L31.7741 4.3892
" />
<path d="M31.7741 4.3892
L31.5927 4.3288
" />
<path d="M31.5927 4.3288
L31.4717 4.2078
" />
<path d="M31.4717 4.2078
L31.4112 4.0868
" />
<path d="M31.4112 4.0868
L31.3508 3.8449
" />
<path d="M31.3508 3.8449
L31.3508 3.6635
" />
<path d="M31.3508 3.6635
L31.4112 3.4216
" />
<path d="M31.4112 3.4216
L31.4717 3.3007
" />
<path d="M31.4717 3.3007
L31.5927 3.1797
" />
<path d="M31.5927 3.1797
L31.7741 3.1192
" />
<path d="M31.7741 3.1192
L31.8950 3.1192
" />
<path d="M31.8950 3.1192
L32.0765 3.1797
" />
<path d="M32.0765 3.1797
L32.1369 3.2402
" />
<path d="M33.4069 4.2683
L33.3465 4.3288
" />
<path d="M33.3465 4.3288
L33.1650 4.3892
" />
<path d="M33.1650 4.3892
L33.0441 4.3892
" />
<path d="M33.0441 4.3892
L32.8627 4.3288
" />
<path d="M32.8627 4.3288
L32.7417 4.2078
" />
<path d="M32.7417 4.2078
L32.6812 4.0868
" />
<path d="M32.6812 4.0868
L32.6208 3.8449
" />
<path d="M32.6208 3.8449
L32.6208 3.6635
" />
<path d="M32.6208 3.6635
L32.6812 3.4216
" />
<path d="M32.6812 3.4216
L32.7417 3.3007
" />
<path d="M32.7417 3.3007
L32.8627 3.1797
" />
<path d="M32.8627 3.1797
L33.0441 3.1192
" />
<path d="M33.0441 3.1192
L33.1650 3.1192
" />
<path d="M33.1650 3.1192
L33.3465 3.1797
" />
<path d="M33.3465 3.1797
L33.4069 3.2402
" />
<path d="M33.8908 3.2402
L33.9512 3.1797
" />
<path d="M33.9512 3.1797
L34.0722 3.1192
" />
<path d="M34.0722 3.1192
L34.3746 3.1192
" />
<path d="M34.3746 3.1192
L34.4955 3.1797
" />
<path d="M34.4955 3.1797
L34.5560 3.2402
" />
<path d="M34.5560 3.2402
L34.6165 3.3611
" />
<path d="M34.6165 3.3611
L34.6165 3.4821
" />
<path d="M34.6165 3.4821
L34.5560 3.6635
" />
<path d="M34.5560 3.6635
L33.8303 4.3892
" />
<path d="M33.8303 4.3892
L34.6165 4.3892
" />
<path d="M35.0398 3.1192
L35.8864 3.1192
" />
<path d="M35.8864 3.1192
L35.3422 4.3892
" />
<path d="M36.2493 3.1192
L37.0959 3.1192
" />
<path d="M37.0959 3.1192
L36.5517 4.3892
" />
<path d="M38.2450 4.3892
L37.5193 4.3892
" />
<path d="M37.8821 4.3892
L37.8821 3.1192
" />
<path d="M37.8821 3.1192
L37.7612 3.3007
" />
<path d="M37.7612 3.3007
L37.6402 3.4216
" />
<path d="M37.6402 3.4216
L37.5193 3.4821
" />
<path d="M39.3335 3.5426
L39.3335 4.3892
" />
<path d="M39.0311 3.0588
L38.7288 3.9659
" />
<path d="M38.7288 3.9659
L39.5149 3.9659
" />
<path d="M39.9987 4.3892
L39.9987 3.1192
" />
<path d="M39.9987 3.1192
L40.3011 3.1192
" />
<path d="M40.3011 3.1192
L40.4825 3.1797
" />
<path d="M40.4825 3.1797
L40.6035 3.3007
" />
<path d="M40.6035 3.3007
L40.6640 3.4216
" />
<path d="M40.6640 3.4216
L40.7244 3.6635
" />
<path d="M40.7244 3.6635
L40.7244 3.8449
" />
<path d="M40.7244 3.8449
L40.6640 4.0868
" />
<path d="M40.6640 4.0868
L40.6035 4.2078
" />
<path d="M40.6035 4.2078
L40.4825 4.3288
" />
<path d="M40.4825 4.3288
L40.3011 4.3892
" />
<path d="M40.3011 4.3892
L39.9987 4.3892
" />
</g></g> 
</svg>
