<?xml version="1.0" standalone="no"?>
 <!DOCTYPE svg PUBLIC "-//W3C//DTD SVG 1.1//EN" 
 "http://www.w3.org/Graphics/SVG/1.1/DTD/svg11.dtd"> 
<svg
  xmlns:svg="http://www.w3.org/2000/svg"
  xmlns="http://www.w3.org/2000/svg"
  xmlns:xlink="http://www.w3.org/1999/xlink"
  version="1.1"
  width="45.1104mm" height="8.5598mm" viewBox="0.0000 0.0000 45.1104 8.5598">
<title>SVG Image created as d_zener_dual_commonanode_kak_split_1.svg date 2024/01/16 15:09:19 </title>
  <desc>Image generated by Eeschema-SVG </desc>
<g style="fill:#000000; fill-opacity:1.0000;stroke:#000000; stroke-opacity:1.0000;
stroke-linecap:round; stroke-linejoin:round;"
 transform="translate(0 0) scale(1 1)">
</g>
<g style="fill:#840000; fill-opacity:0.0; 
stroke:#840000; stroke-width:0.0000; stroke-opacity:1; 
stroke-linecap:round; stroke-linejoin:round;">
</g>
<g style="fill:#840084; fill-opacity:0.0; 
stroke:#840084; stroke-width:0.0000; stroke-opacity:1; 
stroke-linecap:round; stroke-linejoin:round;">
</g>
<g style="fill:#840000; fill-opacity:0.0; 
stroke:#840000; stroke-width:0.0000; stroke-opacity:1; 
stroke-linecap:round; stroke-linejoin:round;">
</g>
<g style="fill:#840000; fill-opacity:0.0; 
stroke:#840000; stroke-width:0.2540; stroke-opacity:1; 
stroke-linecap:round; stroke-linejoin:round;">
<path style="fill:#840000; fill-opacity:0.0; 
stroke:#840000; stroke-width:0.2540; stroke-opacity:1; 
stroke-linecap:round; stroke-linejoin:round;fill:none"
d="M 23.8252,3.0099
23.8252,5.5499
23.3172,5.5499
" /> 
</g>
<g style="fill:#840000; fill-opacity:0.0; 
stroke:#840000; stroke-width:0.1524; stroke-opacity:1; 
stroke-linecap:round; stroke-linejoin:round;">
<path style="fill:#840000; fill-opacity:0.0; 
stroke:#840000; stroke-width:0.1524; stroke-opacity:1; 
stroke-linecap:round; stroke-linejoin:round;fill:none"
d="M 23.8252,4.2799
21.2852,4.2799
" /> 
</g>
<g style="fill:#840000; fill-opacity:0.0; 
stroke:#840000; stroke-width:0.2540; stroke-opacity:1; 
stroke-linecap:round; stroke-linejoin:round;">
<path style="fill:#840000; fill-opacity:0.0; 
stroke:#840000; stroke-width:0.2540; stroke-opacity:1; 
stroke-linecap:round; stroke-linejoin:round;fill:none"
d="M 21.2852,3.0099
23.8252,4.2799
21.2852,5.5499
21.2852,3.0099
21.2852,3.0099
Z" /> 
</g>
<g style="fill:#840000; fill-opacity:0.0; 
stroke:#840000; stroke-width:0.1524; stroke-opacity:1; 
stroke-linecap:round; stroke-linejoin:round;">
<path d="M21.2852 4.2799
L18.7452 4.2799
" />
</g>
<g style="fill:#A90000; fill-opacity:0.0; 
stroke:#A90000; stroke-width:0.1524; stroke-opacity:1; 
stroke-linecap:round; stroke-linejoin:round;">
<text x="20.0152" y="4.0259"
textLength="1.4127" font-size="1.6933" lengthAdjust="spacingAndGlyphs"
text-anchor="middle" opacity="0">2</text>
<g class="stroked-text"><desc>2</desc>
<path d="M19.6524 2.7134
L19.7128 2.6529
" />
<path d="M19.7128 2.6529
L19.8338 2.5924
" />
<path d="M19.8338 2.5924
L20.1362 2.5924
" />
<path d="M20.1362 2.5924
L20.2571 2.6529
" />
<path d="M20.2571 2.6529
L20.3176 2.7134
" />
<path d="M20.3176 2.7134
L20.3781 2.8343
" />
<path d="M20.3781 2.8343
L20.3781 2.9553
" />
<path d="M20.3781 2.9553
L20.3176 3.1367
" />
<path d="M20.3176 3.1367
L19.5919 3.8624
" />
<path d="M19.5919 3.8624
L20.3781 3.8624
" />
</g></g>
<g style="fill:#840000; fill-opacity:0.0; 
stroke:#840000; stroke-width:0.1524; stroke-opacity:1; 
stroke-linecap:round; stroke-linejoin:round;">
<path d="M23.8252 4.2799
L26.3652 4.2799
" />
</g>
<g style="fill:#A90000; fill-opacity:0.0; 
stroke:#A90000; stroke-width:0.1524; stroke-opacity:1; 
stroke-linecap:round; stroke-linejoin:round;">
<text x="25.0952" y="4.0259"
textLength="1.4127" font-size="1.6933" lengthAdjust="spacingAndGlyphs"
text-anchor="middle" opacity="0">1</text>
<g class="stroked-text"><desc>1</desc>
<path d="M25.4581 3.8624
L24.7324 3.8624
" />
<path d="M25.0952 3.8624
L25.0952 2.5924
" />
<path d="M25.0952 2.5924
L24.9743 2.7739
" />
<path d="M24.9743 2.7739
L24.8533 2.8948
" />
<path d="M24.8533 2.8948
L24.7324 2.9553
" />
</g></g>
<g style="fill:#840084; fill-opacity:0.0; 
stroke:#840084; stroke-width:0.1524; stroke-opacity:1; 
stroke-linecap:round; stroke-linejoin:round;">
</g>
<g style="fill:#006464; fill-opacity:0.0; 
stroke:#006464; stroke-width:0.1524; stroke-opacity:1; 
stroke-linecap:round; stroke-linejoin:round;">
</g>
<g style="fill:#006464; fill-opacity:0.0; 
stroke:#006464; stroke-width:0.1588; stroke-opacity:1; 
stroke-linecap:round; stroke-linejoin:round;">
<text x="22.5552" y="2.3749"
textLength="3.6696" font-size="1.6933" lengthAdjust="spacingAndGlyphs"
text-anchor="middle" opacity="0">D?A</text>
<g class="stroked-text"><desc>D?A</desc>
<path d="M21.1339 2.3191
L21.1339 1.0491
" />
<path d="M21.1339 1.0491
L21.4363 1.0491
" />
<path d="M21.4363 1.0491
L21.6177 1.1096
" />
<path d="M21.6177 1.1096
L21.7387 1.2306
" />
<path d="M21.7387 1.2306
L21.7992 1.3515
" />
<path d="M21.7992 1.3515
L21.8596 1.5934
" />
<path d="M21.8596 1.5934
L21.8596 1.7748
" />
<path d="M21.8596 1.7748
L21.7992 2.0167
" />
<path d="M21.7992 2.0167
L21.7387 2.1377
" />
<path d="M21.7387 2.1377
L21.6177 2.2587
" />
<path d="M21.6177 2.2587
L21.4363 2.3191
" />
<path d="M21.4363 2.3191
L21.1339 2.3191
" />
<path d="M22.5854 2.1982
L22.6458 2.2587
" />
<path d="M22.6458 2.2587
L22.5854 2.3191
" />
<path d="M22.5854 2.3191
L22.5249 2.2587
" />
<path d="M22.5249 2.2587
L22.5854 2.1982
" />
<path d="M22.5854 2.1982
L22.5854 2.3191
" />
<path d="M22.3435 1.1096
L22.4644 1.0491
" />
<path d="M22.4644 1.0491
L22.7668 1.0491
" />
<path d="M22.7668 1.0491
L22.8877 1.1096
" />
<path d="M22.8877 1.1096
L22.9482 1.2306
" />
<path d="M22.9482 1.2306
L22.9482 1.3515
" />
<path d="M22.9482 1.3515
L22.8877 1.4725
" />
<path d="M22.8877 1.4725
L22.8273 1.5329
" />
<path d="M22.8273 1.5329
L22.7063 1.5934
" />
<path d="M22.7063 1.5934
L22.6458 1.6539
" />
<path d="M22.6458 1.6539
L22.5854 1.7748
" />
<path d="M22.5854 1.7748
L22.5854 1.8353
" />
<path d="M23.4321 1.9563
L24.0368 1.9563
" />
<path d="M23.3111 2.3191
L23.7344 1.0491
" />
<path d="M23.7344 1.0491
L24.1578 2.3191
" />
</g><text x="22.5552" y="7.4549"
textLength="37.5961" font-size="1.6933" lengthAdjust="spacingAndGlyphs"
text-anchor="middle" opacity="0">D_Zener_Dual_CommonAnode_KAK_Split</text>
<g class="stroked-text"><desc>D_Zener_Dual_CommonAnode_KAK_Split</desc>
<path d="M4.1707 7.3991
L4.1707 6.1291
" />
<path d="M4.1707 6.1291
L4.4731 6.1291
" />
<path d="M4.4731 6.1291
L4.6545 6.1896
" />
<path d="M4.6545 6.1896
L4.7755 6.3106
" />
<path d="M4.7755 6.3106
L4.8360 6.4315
" />
<path d="M4.8360 6.4315
L4.8964 6.6734
" />
<path d="M4.8964 6.6734
L4.8964 6.8548
" />
<path d="M4.8964 6.8548
L4.8360 7.0967
" />
<path d="M4.8360 7.0967
L4.7755 7.2177
" />
<path d="M4.7755 7.2177
L4.6545 7.3387
" />
<path d="M4.6545 7.3387
L4.4731 7.3991
" />
<path d="M4.4731 7.3991
L4.1707 7.3991
" />
<path d="M5.1384 7.5201
L6.1060 7.5201
" />
<path d="M6.2874 6.1291
L7.1340 6.1291
" />
<path d="M7.1340 6.1291
L6.2874 7.3991
" />
<path d="M6.2874 7.3991
L7.1340 7.3991
" />
<path d="M8.1016 7.3387
L7.9807 7.3991
" />
<path d="M7.9807 7.3991
L7.7388 7.3991
" />
<path d="M7.7388 7.3991
L7.6178 7.3387
" />
<path d="M7.6178 7.3387
L7.5574 7.2177
" />
<path d="M7.5574 7.2177
L7.5574 6.7339
" />
<path d="M7.5574 6.7339
L7.6178 6.6129
" />
<path d="M7.6178 6.6129
L7.7388 6.5525
" />
<path d="M7.7388 6.5525
L7.9807 6.5525
" />
<path d="M7.9807 6.5525
L8.1016 6.6129
" />
<path d="M8.1016 6.6129
L8.1621 6.7339
" />
<path d="M8.1621 6.7339
L8.1621 6.8548
" />
<path d="M8.1621 6.8548
L7.5574 6.9758
" />
<path d="M8.7064 6.5525
L8.7064 7.3991
" />
<path d="M8.7064 6.6734
L8.7669 6.6129
" />
<path d="M8.7669 6.6129
L8.8879 6.5525
" />
<path d="M8.8879 6.5525
L9.0693 6.5525
" />
<path d="M9.0693 6.5525
L9.1902 6.6129
" />
<path d="M9.1902 6.6129
L9.2507 6.7339
" />
<path d="M9.2507 6.7339
L9.2507 7.3991
" />
<path d="M10.3392 7.3387
L10.2183 7.3991
" />
<path d="M10.2183 7.3991
L9.9764 7.3991
" />
<path d="M9.9764 7.3991
L9.8554 7.3387
" />
<path d="M9.8554 7.3387
L9.7950 7.2177
" />
<path d="M9.7950 7.2177
L9.7950 6.7339
" />
<path d="M9.7950 6.7339
L9.8554 6.6129
" />
<path d="M9.8554 6.6129
L9.9764 6.5525
" />
<path d="M9.9764 6.5525
L10.2183 6.5525
" />
<path d="M10.2183 6.5525
L10.3392 6.6129
" />
<path d="M10.3392 6.6129
L10.3997 6.7339
" />
<path d="M10.3997 6.7339
L10.3997 6.8548
" />
<path d="M10.3997 6.8548
L9.7950 6.9758
" />
<path d="M10.9440 7.3991
L10.9440 6.5525
" />
<path d="M10.9440 6.7944
L11.0045 6.6734
" />
<path d="M11.0045 6.6734
L11.0650 6.6129
" />
<path d="M11.0650 6.6129
L11.1859 6.5525
" />
<path d="M11.1859 6.5525
L11.3069 6.5525
" />
<path d="M11.4279 7.5201
L12.3955 7.5201
" />
<path d="M12.6978 7.3991
L12.6978 6.1291
" />
<path d="M12.6978 6.1291
L13.0002 6.1291
" />
<path d="M13.0002 6.1291
L13.1816 6.1896
" />
<path d="M13.1816 6.1896
L13.3026 6.3106
" />
<path d="M13.3026 6.3106
L13.3631 6.4315
" />
<path d="M13.3631 6.4315
L13.4235 6.6734
" />
<path d="M13.4235 6.6734
L13.4235 6.8548
" />
<path d="M13.4235 6.8548
L13.3631 7.0967
" />
<path d="M13.3631 7.0967
L13.3026 7.2177
" />
<path d="M13.3026 7.2177
L13.1816 7.3387
" />
<path d="M13.1816 7.3387
L13.0002 7.3991
" />
<path d="M13.0002 7.3991
L12.6978 7.3991
" />
<path d="M14.5121 6.5525
L14.5121 7.3991
" />
<path d="M13.9678 6.5525
L13.9678 7.2177
" />
<path d="M13.9678 7.2177
L14.0283 7.3387
" />
<path d="M14.0283 7.3387
L14.1493 7.3991
" />
<path d="M14.1493 7.3991
L14.3307 7.3991
" />
<path d="M14.3307 7.3991
L14.4516 7.3387
" />
<path d="M14.4516 7.3387
L14.5121 7.2782
" />
<path d="M15.6611 7.3991
L15.6611 6.7339
" />
<path d="M15.6611 6.7339
L15.6006 6.6129
" />
<path d="M15.6006 6.6129
L15.4797 6.5525
" />
<path d="M15.4797 6.5525
L15.2378 6.5525
" />
<path d="M15.2378 6.5525
L15.1168 6.6129
" />
<path d="M15.6611 7.3387
L15.5402 7.3991
" />
<path d="M15.5402 7.3991
L15.2378 7.3991
" />
<path d="M15.2378 7.3991
L15.1168 7.3387
" />
<path d="M15.1168 7.3387
L15.0564 7.2177
" />
<path d="M15.0564 7.2177
L15.0564 7.0967
" />
<path d="M15.0564 7.0967
L15.1168 6.9758
" />
<path d="M15.1168 6.9758
L15.2378 6.9153
" />
<path d="M15.2378 6.9153
L15.5402 6.9153
" />
<path d="M15.5402 6.9153
L15.6611 6.8548
" />
<path d="M16.4473 7.3991
L16.3263 7.3387
" />
<path d="M16.3263 7.3387
L16.2658 7.2177
" />
<path d="M16.2658 7.2177
L16.2658 6.1291
" />
<path d="M16.6287 7.5201
L17.5963 7.5201
" />
<path d="M18.6243 7.2782
L18.5639 7.3387
" />
<path d="M18.5639 7.3387
L18.3824 7.3991
" />
<path d="M18.3824 7.3991
L18.2615 7.3991
" />
<path d="M18.2615 7.3991
L18.0801 7.3387
" />
<path d="M18.0801 7.3387
L17.9591 7.2177
" />
<path d="M17.9591 7.2177
L17.8986 7.0967
" />
<path d="M17.8986 7.0967
L17.8382 6.8548
" />
<path d="M17.8382 6.8548
L17.8382 6.6734
" />
<path d="M17.8382 6.6734
L17.8986 6.4315
" />
<path d="M17.8986 6.4315
L17.9591 6.3106
" />
<path d="M17.9591 6.3106
L18.0801 6.1896
" />
<path d="M18.0801 6.1896
L18.2615 6.1291
" />
<path d="M18.2615 6.1291
L18.3824 6.1291
" />
<path d="M18.3824 6.1291
L18.5639 6.1896
" />
<path d="M18.5639 6.1896
L18.6243 6.2501
" />
<path d="M19.3501 7.3991
L19.2291 7.3387
" />
<path d="M19.2291 7.3387
L19.1686 7.2782
" />
<path d="M19.1686 7.2782
L19.1082 7.1572
" />
<path d="M19.1082 7.1572
L19.1082 6.7944
" />
<path d="M19.1082 6.7944
L19.1686 6.6734
" />
<path d="M19.1686 6.6734
L19.2291 6.6129
" />
<path d="M19.2291 6.6129
L19.3501 6.5525
" />
<path d="M19.3501 6.5525
L19.5315 6.5525
" />
<path d="M19.5315 6.5525
L19.6524 6.6129
" />
<path d="M19.6524 6.6129
L19.7129 6.6734
" />
<path d="M19.7129 6.6734
L19.7734 6.7944
" />
<path d="M19.7734 6.7944
L19.7734 7.1572
" />
<path d="M19.7734 7.1572
L19.7129 7.2782
" />
<path d="M19.7129 7.2782
L19.6524 7.3387
" />
<path d="M19.6524 7.3387
L19.5315 7.3991
" />
<path d="M19.5315 7.3991
L19.3501 7.3991
" />
<path d="M20.3176 7.3991
L20.3176 6.5525
" />
<path d="M20.3176 6.6734
L20.3781 6.6129
" />
<path d="M20.3781 6.6129
L20.4991 6.5525
" />
<path d="M20.4991 6.5525
L20.6805 6.5525
" />
<path d="M20.6805 6.5525
L20.8014 6.6129
" />
<path d="M20.8014 6.6129
L20.8619 6.7339
" />
<path d="M20.8619 6.7339
L20.8619 7.3991
" />
<path d="M20.8619 6.7339
L20.9224 6.6129
" />
<path d="M20.9224 6.6129
L21.0433 6.5525
" />
<path d="M21.0433 6.5525
L21.2248 6.5525
" />
<path d="M21.2248 6.5525
L21.3457 6.6129
" />
<path d="M21.3457 6.6129
L21.4062 6.7339
" />
<path d="M21.4062 6.7339
L21.4062 7.3991
" />
<path d="M22.0109 7.3991
L22.0109 6.5525
" />
<path d="M22.0109 6.6734
L22.0714 6.6129
" />
<path d="M22.0714 6.6129
L22.1924 6.5525
" />
<path d="M22.1924 6.5525
L22.3738 6.5525
" />
<path d="M22.3738 6.5525
L22.4947 6.6129
" />
<path d="M22.4947 6.6129
L22.5552 6.7339
" />
<path d="M22.5552 6.7339
L22.5552 7.3991
" />
<path d="M22.5552 6.7339
L22.6157 6.6129
" />
<path d="M22.6157 6.6129
L22.7366 6.5525
" />
<path d="M22.7366 6.5525
L22.9181 6.5525
" />
<path d="M22.9181 6.5525
L23.0390 6.6129
" />
<path d="M23.0390 6.6129
L23.0995 6.7339
" />
<path d="M23.0995 6.7339
L23.0995 7.3991
" />
<path d="M23.8857 7.3991
L23.7647 7.3387
" />
<path d="M23.7647 7.3387
L23.7042 7.2782
" />
<path d="M23.7042 7.2782
L23.6438 7.1572
" />
<path d="M23.6438 7.1572
L23.6438 6.7944
" />
<path d="M23.6438 6.7944
L23.7042 6.6734
" />
<path d="M23.7042 6.6734
L23.7647 6.6129
" />
<path d="M23.7647 6.6129
L23.8857 6.5525
" />
<path d="M23.8857 6.5525
L24.0671 6.5525
" />
<path d="M24.0671 6.5525
L24.1880 6.6129
" />
<path d="M24.1880 6.6129
L24.2485 6.6734
" />
<path d="M24.2485 6.6734
L24.3090 6.7944
" />
<path d="M24.3090 6.7944
L24.3090 7.1572
" />
<path d="M24.3090 7.1572
L24.2485 7.2782
" />
<path d="M24.2485 7.2782
L24.1880 7.3387
" />
<path d="M24.1880 7.3387
L24.0671 7.3991
" />
<path d="M24.0671 7.3991
L23.8857 7.3991
" />
<path d="M24.8532 6.5525
L24.8532 7.3991
" />
<path d="M24.8532 6.6734
L24.9137 6.6129
" />
<path d="M24.9137 6.6129
L25.0347 6.5525
" />
<path d="M25.0347 6.5525
L25.2161 6.5525
" />
<path d="M25.2161 6.5525
L25.3370 6.6129
" />
<path d="M25.3370 6.6129
L25.3975 6.7339
" />
<path d="M25.3975 6.7339
L25.3975 7.3991
" />
<path d="M25.9418 7.0363
L26.5465 7.0363
" />
<path d="M25.8208 7.3991
L26.2441 6.1291
" />
<path d="M26.2441 6.1291
L26.6675 7.3991
" />
<path d="M27.0908 6.5525
L27.0908 7.3991
" />
<path d="M27.0908 6.6734
L27.1513 6.6129
" />
<path d="M27.1513 6.6129
L27.2723 6.5525
" />
<path d="M27.2723 6.5525
L27.4537 6.5525
" />
<path d="M27.4537 6.5525
L27.5746 6.6129
" />
<path d="M27.5746 6.6129
L27.6351 6.7339
" />
<path d="M27.6351 6.7339
L27.6351 7.3991
" />
<path d="M28.4213 7.3991
L28.3003 7.3387
" />
<path d="M28.3003 7.3387
L28.2398 7.2782
" />
<path d="M28.2398 7.2782
L28.1794 7.1572
" />
<path d="M28.1794 7.1572
L28.1794 6.7944
" />
<path d="M28.1794 6.7944
L28.2398 6.6734
" />
<path d="M28.2398 6.6734
L28.3003 6.6129
" />
<path d="M28.3003 6.6129
L28.4213 6.5525
" />
<path d="M28.4213 6.5525
L28.6027 6.5525
" />
<path d="M28.6027 6.5525
L28.7236 6.6129
" />
<path d="M28.7236 6.6129
L28.7841 6.6734
" />
<path d="M28.7841 6.6734
L28.8446 6.7944
" />
<path d="M28.8446 6.7944
L28.8446 7.1572
" />
<path d="M28.8446 7.1572
L28.7841 7.2782
" />
<path d="M28.7841 7.2782
L28.7236 7.3387
" />
<path d="M28.7236 7.3387
L28.6027 7.3991
" />
<path d="M28.6027 7.3991
L28.4213 7.3991
" />
<path d="M29.9331 7.3991
L29.9331 6.1291
" />
<path d="M29.9331 7.3387
L29.8122 7.3991
" />
<path d="M29.8122 7.3991
L29.5703 7.3991
" />
<path d="M29.5703 7.3991
L29.4493 7.3387
" />
<path d="M29.4493 7.3387
L29.3888 7.2782
" />
<path d="M29.3888 7.2782
L29.3284 7.1572
" />
<path d="M29.3284 7.1572
L29.3284 6.7944
" />
<path d="M29.3284 6.7944
L29.3888 6.6734
" />
<path d="M29.3888 6.6734
L29.4493 6.6129
" />
<path d="M29.4493 6.6129
L29.5703 6.5525
" />
<path d="M29.5703 6.5525
L29.8122 6.5525
" />
<path d="M29.8122 6.5525
L29.9331 6.6129
" />
<path d="M31.0216 7.3387
L30.9007 7.3991
" />
<path d="M30.9007 7.3991
L30.6588 7.3991
" />
<path d="M30.6588 7.3991
L30.5378 7.3387
" />
<path d="M30.5378 7.3387
L30.4774 7.2177
" />
<path d="M30.4774 7.2177
L30.4774 6.7339
" />
<path d="M30.4774 6.7339
L30.5378 6.6129
" />
<path d="M30.5378 6.6129
L30.6588 6.5525
" />
<path d="M30.6588 6.5525
L30.9007 6.5525
" />
<path d="M30.9007 6.5525
L31.0216 6.6129
" />
<path d="M31.0216 6.6129
L31.0821 6.7339
" />
<path d="M31.0821 6.7339
L31.0821 6.8548
" />
<path d="M31.0821 6.8548
L30.4774 6.9758
" />
<path d="M31.3241 7.5201
L32.2917 7.5201
" />
<path d="M32.5940 7.3991
L32.5940 6.1291
" />
<path d="M33.3197 7.3991
L32.7755 6.6734
" />
<path d="M33.3197 6.1291
L32.5940 6.8548
" />
<path d="M33.8036 7.0363
L34.4083 7.0363
" />
<path d="M33.6826 7.3991
L34.1059 6.1291
" />
<path d="M34.1059 6.1291
L34.5293 7.3991
" />
<path d="M34.9526 7.3991
L34.9526 6.1291
" />
<path d="M35.6783 7.3991
L35.1341 6.6734
" />
<path d="M35.6783 6.1291
L34.9526 6.8548
" />
<path d="M35.9203 7.5201
L36.8879 7.5201
" />
<path d="M37.1298 7.3387
L37.3112 7.3991
" />
<path d="M37.3112 7.3991
L37.6136 7.3991
" />
<path d="M37.6136 7.3991
L37.7345 7.3387
" />
<path d="M37.7345 7.3387
L37.7950 7.2782
" />
<path d="M37.7950 7.2782
L37.8555 7.1572
" />
<path d="M37.8555 7.1572
L37.8555 7.0363
" />
<path d="M37.8555 7.0363
L37.7950 6.9153
" />
<path d="M37.7950 6.9153
L37.7345 6.8548
" />
<path d="M37.7345 6.8548
L37.6136 6.7944
" />
<path d="M37.6136 6.7944
L37.3717 6.7339
" />
<path d="M37.3717 6.7339
L37.2507 6.6734
" />
<path d="M37.2507 6.6734
L37.1902 6.6129
" />
<path d="M37.1902 6.6129
L37.1298 6.4920
" />
<path d="M37.1298 6.4920
L37.1298 6.3710
" />
<path d="M37.1298 6.3710
L37.1902 6.2501
" />
<path d="M37.1902 6.2501
L37.2507 6.1896
" />
<path d="M37.2507 6.1896
L37.3717 6.1291
" />
<path d="M37.3717 6.1291
L37.6740 6.1291
" />
<path d="M37.6740 6.1291
L37.8555 6.1896
" />
<path d="M38.3997 6.5525
L38.3997 7.8225
" />
<path d="M38.3997 6.6129
L38.5207 6.5525
" />
<path d="M38.5207 6.5525
L38.7626 6.5525
" />
<path d="M38.7626 6.5525
L38.8835 6.6129
" />
<path d="M38.8835 6.6129
L38.9440 6.6734
" />
<path d="M38.9440 6.6734
L39.0045 6.7944
" />
<path d="M39.0045 6.7944
L39.0045 7.1572
" />
<path d="M39.0045 7.1572
L38.9440 7.2782
" />
<path d="M38.9440 7.2782
L38.8835 7.3387
" />
<path d="M38.8835 7.3387
L38.7626 7.3991
" />
<path d="M38.7626 7.3991
L38.5207 7.3991
" />
<path d="M38.5207 7.3991
L38.3997 7.3387
" />
<path d="M39.7302 7.3991
L39.6092 7.3387
" />
<path d="M39.6092 7.3387
L39.5487 7.2177
" />
<path d="M39.5487 7.2177
L39.5487 6.1291
" />
<path d="M40.2139 7.3991
L40.2139 6.5525
" />
<path d="M40.2139 6.1291
L40.1535 6.1896
" />
<path d="M40.1535 6.1896
L40.2139 6.2501
" />
<path d="M40.2139 6.2501
L40.2744 6.1896
" />
<path d="M40.2744 6.1896
L40.2139 6.1291
" />
<path d="M40.2139 6.1291
L40.2139 6.2501
" />
<path d="M40.6373 6.5525
L41.1211 6.5525
" />
<path d="M40.8187 6.1291
L40.8187 7.2177
" />
<path d="M40.8187 7.2177
L40.8792 7.3387
" />
<path d="M40.8792 7.3387
L41.0002 7.3991
" />
<path d="M41.0002 7.3991
L41.1211 7.3991
" />
</g></g> 
</svg>
