<?xml version="1.0" standalone="no"?>
 <!DOCTYPE svg PUBLIC "-//W3C//DTD SVG 1.1//EN" 
 "http://www.w3.org/Graphics/SVG/1.1/DTD/svg11.dtd"> 
<svg
  xmlns:svg="http://www.w3.org/2000/svg"
  xmlns="http://www.w3.org/2000/svg"
  xmlns:xlink="http://www.w3.org/1999/xlink"
  version="1.1"
  width="13.9192mm" height="134.0104mm" viewBox="0.0000 0.0000 13.9192 134.0104">
<title>SVG Image created as filter_emi_c.svg date 2024/01/16 15:09:19 </title>
  <desc>Image generated by Eeschema-SVG </desc>
<g style="fill:#000000; fill-opacity:1.0000;stroke:#000000; stroke-opacity:1.0000;
stroke-linecap:round; stroke-linejoin:round;"
 transform="translate(0 0) scale(1 1)">
</g>
<g style="fill:#840000; fill-opacity:0.0; 
stroke:#840000; stroke-width:0.0000; stroke-opacity:1; 
stroke-linecap:round; stroke-linejoin:round;">
</g>
<g style="fill:#840084; fill-opacity:0.0; 
stroke:#840084; stroke-width:0.0000; stroke-opacity:1; 
stroke-linecap:round; stroke-linejoin:round;">
</g>
<g style="fill:#840000; fill-opacity:0.0; 
stroke:#840000; stroke-width:0.0000; stroke-opacity:1; 
stroke-linecap:round; stroke-linejoin:round;">
</g>
<g style="fill:#840000; fill-opacity:1.0000; 
stroke:#840000; stroke-width:0.1524; stroke-opacity:1; 
stroke-linecap:round; stroke-linejoin:round;">
<rect x="5.308600" y="64.973200" width="3.175000" height="0.508000" rx="0.000000" />
</g>
<g style="fill:#840000; fill-opacity:0.0; 
stroke:#840000; stroke-width:0.1524; stroke-opacity:1; 
stroke-linecap:round; stroke-linejoin:round;">
<path style="fill:#840000; fill-opacity:0.0; 
stroke:#840000; stroke-width:0.1524; stroke-opacity:1; 
stroke-linecap:round; stroke-linejoin:round;fill:none"
d="M 4.4196,64.4652
9.4996,64.4652
" /> 
<path style="fill:#840000; fill-opacity:0.0; 
stroke:#840000; stroke-width:0.1524; stroke-opacity:1; 
stroke-linecap:round; stroke-linejoin:round;fill:none"
d="M 6.9596,67.0052
6.9596,65.2272
" /> 
</g>
<g style="fill:#840000; fill-opacity:1.0000; 
stroke:#840000; stroke-width:0.1524; stroke-opacity:1; 
stroke-linecap:round; stroke-linejoin:round;">
<rect x="5.308600" y="63.449200" width="3.175000" height="0.508000" rx="0.000000" />
</g>
<g style="fill:#840000; fill-opacity:0.0; 
stroke:#840000; stroke-width:0.1524; stroke-opacity:1; 
stroke-linecap:round; stroke-linejoin:round;">
<path d="M4.4196 64.4652
L1.8796 64.4652
" />
</g>
<g style="fill:#A90000; fill-opacity:0.0; 
stroke:#A90000; stroke-width:0.1524; stroke-opacity:1; 
stroke-linecap:round; stroke-linejoin:round;">
<text x="3.1496" y="64.2112"
textLength="1.4127" font-size="1.6933" lengthAdjust="spacingAndGlyphs"
text-anchor="middle" opacity="0">1</text>
<g class="stroked-text"><desc>1</desc>
<path d="M3.5125 64.0477
L2.7868 64.0477
" />
<path d="M3.1496 64.0477
L3.1496 62.7777
" />
<path d="M3.1496 62.7777
L3.0287 62.9592
" />
<path d="M3.0287 62.9592
L2.9077 63.0801
" />
<path d="M2.9077 63.0801
L2.7868 63.1406
" />
</g></g>
<g style="fill:#840000; fill-opacity:0.0; 
stroke:#840000; stroke-width:0.1524; stroke-opacity:1; 
stroke-linecap:round; stroke-linejoin:round;">
<path d="M6.9596 67.0052
L6.9596 69.5452
" />
</g>
<g style="fill:#A90000; fill-opacity:0.0; 
stroke:#A90000; stroke-width:0.1524; stroke-opacity:1; 
stroke-linecap:round; stroke-linejoin:round;">
<g transform="rotate(-90.000000 6.7056 68.2752)">
<text x="6.7056" y="68.2752"
textLength="1.4127" font-size="1.6933" lengthAdjust="spacingAndGlyphs"
text-anchor="middle" opacity="0">2</text>
</g>
<g class="stroked-text"><desc>2</desc>
<path d="M5.3931 68.6379
L5.3326 68.5775
" />
<path d="M5.3326 68.5775
L5.2721 68.4565
" />
<path d="M5.2721 68.4565
L5.2721 68.1541
" />
<path d="M5.2721 68.1541
L5.3326 68.0332
" />
<path d="M5.3326 68.0332
L5.3931 67.9727
" />
<path d="M5.3931 67.9727
L5.5140 67.9122
" />
<path d="M5.5140 67.9122
L5.6350 67.9122
" />
<path d="M5.6350 67.9122
L5.8164 67.9727
" />
<path d="M5.8164 67.9727
L6.5421 68.6984
" />
<path d="M6.5421 68.6984
L6.5421 67.9122
" />
</g></g>
<g style="fill:#840000; fill-opacity:0.0; 
stroke:#840000; stroke-width:0.1524; stroke-opacity:1; 
stroke-linecap:round; stroke-linejoin:round;">
<path d="M9.4996 64.4652
L12.0396 64.4652
" />
</g>
<g style="fill:#A90000; fill-opacity:0.0; 
stroke:#A90000; stroke-width:0.1524; stroke-opacity:1; 
stroke-linecap:round; stroke-linejoin:round;">
<text x="10.7696" y="64.2112"
textLength="1.4127" font-size="1.6933" lengthAdjust="spacingAndGlyphs"
text-anchor="middle" opacity="0">3</text>
<g class="stroked-text"><desc>3</desc>
<path d="M10.3463 62.7777
L11.1325 62.7777
" />
<path d="M11.1325 62.7777
L10.7091 63.2615
" />
<path d="M10.7091 63.2615
L10.8906 63.2615
" />
<path d="M10.8906 63.2615
L11.0115 63.3220
" />
<path d="M11.0115 63.3220
L11.0720 63.3825
" />
<path d="M11.0720 63.3825
L11.1325 63.5034
" />
<path d="M11.1325 63.5034
L11.1325 63.8058
" />
<path d="M11.1325 63.8058
L11.0720 63.9268
" />
<path d="M11.0720 63.9268
L11.0115 63.9873
" />
<path d="M11.0115 63.9873
L10.8906 64.0477
" />
<path d="M10.8906 64.0477
L10.5277 64.0477
" />
<path d="M10.5277 64.0477
L10.4068 63.9873
" />
<path d="M10.4068 63.9873
L10.3463 63.9268
" />
</g></g>
<g style="fill:#840084; fill-opacity:0.0; 
stroke:#840084; stroke-width:0.1524; stroke-opacity:1; 
stroke-linecap:round; stroke-linejoin:round;">
</g>
<g style="fill:#006464; fill-opacity:0.0; 
stroke:#006464; stroke-width:0.1524; stroke-opacity:1; 
stroke-linecap:round; stroke-linejoin:round;">
</g>
<g style="fill:#006464; fill-opacity:0.0; 
stroke:#006464; stroke-width:0.1588; stroke-opacity:1; 
stroke-linecap:round; stroke-linejoin:round;">
<text x="6.9596" y="60.0202"
textLength="2.5810" font-size="1.6933" lengthAdjust="spacingAndGlyphs"
text-anchor="middle" opacity="0">C?</text>
<g class="stroked-text"><desc>C?</desc>
<path d="M6.8083 59.8435
L6.7479 59.9040
" />
<path d="M6.7479 59.9040
L6.5664 59.9644
" />
<path d="M6.5664 59.9644
L6.4455 59.9644
" />
<path d="M6.4455 59.9644
L6.2641 59.9040
" />
<path d="M6.2641 59.9040
L6.1431 59.7830
" />
<path d="M6.1431 59.7830
L6.0826 59.6620
" />
<path d="M6.0826 59.6620
L6.0222 59.4201
" />
<path d="M6.0222 59.4201
L6.0222 59.2387
" />
<path d="M6.0222 59.2387
L6.0826 58.9968
" />
<path d="M6.0826 58.9968
L6.1431 58.8759
" />
<path d="M6.1431 58.8759
L6.2641 58.7549
" />
<path d="M6.2641 58.7549
L6.4455 58.6944
" />
<path d="M6.4455 58.6944
L6.5664 58.6944
" />
<path d="M6.5664 58.6944
L6.7479 58.7549
" />
<path d="M6.7479 58.7549
L6.8083 58.8154
" />
<path d="M7.5341 59.8435
L7.5945 59.9040
" />
<path d="M7.5945 59.9040
L7.5341 59.9644
" />
<path d="M7.5341 59.9644
L7.4736 59.9040
" />
<path d="M7.4736 59.9040
L7.5341 59.8435
" />
<path d="M7.5341 59.8435
L7.5341 59.9644
" />
<path d="M7.2922 58.7549
L7.4131 58.6944
" />
<path d="M7.4131 58.6944
L7.7155 58.6944
" />
<path d="M7.7155 58.6944
L7.8364 58.7549
" />
<path d="M7.8364 58.7549
L7.8969 58.8759
" />
<path d="M7.8969 58.8759
L7.8969 58.9968
" />
<path d="M7.8969 58.9968
L7.8364 59.1178
" />
<path d="M7.8364 59.1178
L7.7760 59.1782
" />
<path d="M7.7760 59.1782
L7.6550 59.2387
" />
<path d="M7.6550 59.2387
L7.5945 59.2992
" />
<path d="M7.5945 59.2992
L7.5341 59.4201
" />
<path d="M7.5341 59.4201
L7.5341 59.4806
" />
</g><text x="6.9596" y="61.9252"
textLength="11.5919" font-size="1.6933" lengthAdjust="spacingAndGlyphs"
text-anchor="middle" opacity="0">Filter_EMI_C</text>
<g class="stroked-text"><desc>Filter_EMI_C</desc>
<path d="M2.0006 61.2042
L1.5772 61.2042
" />
<path d="M1.5772 61.8694
L1.5772 60.5994
" />
<path d="M1.5772 60.5994
L2.1820 60.5994
" />
<path d="M2.6658 61.8694
L2.6658 61.0228
" />
<path d="M2.6658 60.5994
L2.6054 60.6599
" />
<path d="M2.6054 60.6599
L2.6658 60.7204
" />
<path d="M2.6658 60.7204
L2.7263 60.6599
" />
<path d="M2.7263 60.6599
L2.6658 60.5994
" />
<path d="M2.6658 60.5994
L2.6658 60.7204
" />
<path d="M3.4521 61.8694
L3.3311 61.8090
" />
<path d="M3.3311 61.8090
L3.2706 61.6880
" />
<path d="M3.2706 61.6880
L3.2706 60.5994
" />
<path d="M3.7544 61.0228
L4.2382 61.0228
" />
<path d="M3.9358 60.5994
L3.9358 61.6880
" />
<path d="M3.9358 61.6880
L3.9963 61.8090
" />
<path d="M3.9963 61.8090
L4.1173 61.8694
" />
<path d="M4.1173 61.8694
L4.2382 61.8694
" />
<path d="M5.1453 61.8090
L5.0244 61.8694
" />
<path d="M5.0244 61.8694
L4.7825 61.8694
" />
<path d="M4.7825 61.8694
L4.6615 61.8090
" />
<path d="M4.6615 61.8090
L4.6011 61.6880
" />
<path d="M4.6011 61.6880
L4.6011 61.2042
" />
<path d="M4.6011 61.2042
L4.6615 61.0832
" />
<path d="M4.6615 61.0832
L4.7825 61.0228
" />
<path d="M4.7825 61.0228
L5.0244 61.0228
" />
<path d="M5.0244 61.0228
L5.1453 61.0832
" />
<path d="M5.1453 61.0832
L5.2058 61.2042
" />
<path d="M5.2058 61.2042
L5.2058 61.3251
" />
<path d="M5.2058 61.3251
L4.6011 61.4461
" />
<path d="M5.7501 61.8694
L5.7501 61.0228
" />
<path d="M5.7501 61.2647
L5.8106 61.1437
" />
<path d="M5.8106 61.1437
L5.8711 61.0832
" />
<path d="M5.8711 61.0832
L5.9920 61.0228
" />
<path d="M5.9920 61.0228
L6.1130 61.0228
" />
<path d="M6.2340 61.9904
L7.2016 61.9904
" />
<path d="M7.5039 61.2042
L7.9273 61.2042
" />
<path d="M8.1087 61.8694
L7.5039 61.8694
" />
<path d="M7.5039 61.8694
L7.5039 60.5994
" />
<path d="M7.5039 60.5994
L8.1087 60.5994
" />
<path d="M8.6529 61.8694
L8.6529 60.5994
" />
<path d="M8.6529 60.5994
L9.0763 61.5066
" />
<path d="M9.0763 61.5066
L9.4996 60.5994
" />
<path d="M9.4996 60.5994
L9.4996 61.8694
" />
<path d="M10.1043 61.8694
L10.1043 60.5994
" />
<path d="M10.4068 61.9904
L11.3744 61.9904
" />
<path d="M12.4024 61.7485
L12.3420 61.8090
" />
<path d="M12.3420 61.8090
L12.1605 61.8694
" />
<path d="M12.1605 61.8694
L12.0396 61.8694
" />
<path d="M12.0396 61.8694
L11.8582 61.8090
" />
<path d="M11.8582 61.8090
L11.7372 61.6880
" />
<path d="M11.7372 61.6880
L11.6767 61.5670
" />
<path d="M11.6767 61.5670
L11.6163 61.3251
" />
<path d="M11.6163 61.3251
L11.6163 61.1437
" />
<path d="M11.6163 61.1437
L11.6767 60.9018
" />
<path d="M11.6767 60.9018
L11.7372 60.7809
" />
<path d="M11.7372 60.7809
L11.8582 60.6599
" />
<path d="M11.8582 60.6599
L12.0396 60.5994
" />
<path d="M12.0396 60.5994
L12.1605 60.5994
" />
<path d="M12.1605 60.5994
L12.3420 60.6599
" />
<path d="M12.3420 60.6599
L12.4024 60.7204
" />
</g></g> 
</svg>
