<?xml version="1.0" standalone="no"?>
 <!DOCTYPE svg PUBLIC "-//W3C//DTD SVG 1.1//EN" 
 "http://www.w3.org/Graphics/SVG/1.1/DTD/svg11.dtd"> 
<svg
  xmlns:svg="http://www.w3.org/2000/svg"
  xmlns="http://www.w3.org/2000/svg"
  xmlns:xlink="http://www.w3.org/1999/xlink"
  version="1.1"
  width="37.7444mm" height="12.1920mm" viewBox="0.0000 0.0000 37.7444 12.1920">
<title>SVG Image created as q_pnp_darlington_bce.svg date 2024/01/16 15:09:19 </title>
  <desc>Image generated by Eeschema-SVG </desc>
<g style="fill:#000000; fill-opacity:1.0000;stroke:#000000; stroke-opacity:1.0000;
stroke-linecap:round; stroke-linejoin:round;"
 transform="translate(0 0) scale(1 1)">
</g>
<g style="fill:#840000; fill-opacity:0.0; 
stroke:#840000; stroke-width:0.0000; stroke-opacity:1; 
stroke-linecap:round; stroke-linejoin:round;">
</g>
<g style="fill:#840084; fill-opacity:0.0; 
stroke:#840084; stroke-width:0.0000; stroke-opacity:1; 
stroke-linecap:round; stroke-linejoin:round;">
</g>
<g style="fill:#840000; fill-opacity:0.0; 
stroke:#840000; stroke-width:0.0000; stroke-opacity:1; 
stroke-linecap:round; stroke-linejoin:round;">
</g>
<g style="fill:#840000; fill-opacity:0.0; 
stroke:#840000; stroke-width:0.1524; stroke-opacity:1; 
stroke-linecap:round; stroke-linejoin:round;">
<path style="fill:#840000; fill-opacity:0.0; 
stroke:#840000; stroke-width:0.1524; stroke-opacity:1; 
stroke-linecap:round; stroke-linejoin:round;fill:none"
d="M 19.5072,5.4610
21.4122,3.5560
" /> 
<path style="fill:#840000; fill-opacity:0.0; 
stroke:#840000; stroke-width:0.1524; stroke-opacity:1; 
stroke-linecap:round; stroke-linejoin:round;fill:none"
d="M 19.5072,6.7310
21.4122,8.6360
21.4122,8.6360
" /> 
<path style="fill:#840000; fill-opacity:0.0; 
stroke:#840000; stroke-width:0.1524; stroke-opacity:1; 
stroke-linecap:round; stroke-linejoin:round;fill:none"
d="M 19.5072,6.0960
21.4122,4.1910
21.4122,3.5560
" /> 
</g>
<g style="fill:#840000; fill-opacity:0.0; 
stroke:#840000; stroke-width:0.5080; stroke-opacity:1; 
stroke-linecap:round; stroke-linejoin:round;">
<path style="fill:#840000; fill-opacity:0.0; 
stroke:#840000; stroke-width:0.5080; stroke-opacity:1; 
stroke-linecap:round; stroke-linejoin:round;fill:none"
d="M 19.5072,4.1910
19.5072,8.0010
19.5072,8.0010
" /> 
</g>
<g style="fill:#840000; fill-opacity:1.0000; 
stroke:#840000; stroke-width:0.1524; stroke-opacity:1; 
stroke-linecap:round; stroke-linejoin:round;">
<path style="fill:#840000; fill-opacity:1.0000; 
stroke:#840000; stroke-width:0.1524; stroke-opacity:1; 
stroke-linecap:round; stroke-linejoin:round;fill-rule:evenodd;"
d="M 21.1582,7.8740
20.6502,8.3820
20.1422,7.3660
21.1582,7.8740
Z" /> 
</g>
<g style="fill:#840000; fill-opacity:0.0; 
stroke:#840000; stroke-width:0.2540; stroke-opacity:1; 
stroke-linecap:round; stroke-linejoin:round;">
<circle cx="20.1422" cy="6.0960" r="2.8194" /> 
</g>
<g style="fill:#840000; fill-opacity:0.0; 
stroke:#840000; stroke-width:0.1524; stroke-opacity:1; 
stroke-linecap:round; stroke-linejoin:round;">
<path d="M19.5072 6.0960
L13.7922 6.0960
" />
</g>
<g style="fill:#A90000; fill-opacity:0.0; 
stroke:#A90000; stroke-width:0.1524; stroke-opacity:1; 
stroke-linecap:round; stroke-linejoin:round;">
<text x="16.6497" y="7.6200"
textLength="1.4127" font-size="1.6933" lengthAdjust="spacingAndGlyphs"
text-anchor="middle" opacity="0">1</text>
<g class="stroked-text"><desc>1</desc>
<path d="M17.0126 7.6724
L16.2869 7.6724
" />
<path d="M16.6497 7.6724
L16.6497 6.4024
" />
<path d="M16.6497 6.4024
L16.5288 6.5839
" />
<path d="M16.5288 6.5839
L16.4078 6.7048
" />
<path d="M16.4078 6.7048
L16.2869 6.7653
" />
</g></g>
<g style="fill:#840000; fill-opacity:0.0; 
stroke:#840000; stroke-width:0.1524; stroke-opacity:1; 
stroke-linecap:round; stroke-linejoin:round;">
<path d="M21.4122 3.5560
L21.4122 1.0160
" />
</g>
<g style="fill:#A90000; fill-opacity:0.0; 
stroke:#A90000; stroke-width:0.1524; stroke-opacity:1; 
stroke-linecap:round; stroke-linejoin:round;">
<g transform="rotate(-90.000000 21.6662 2.2860)">
<text x="21.6662" y="3.5560"
textLength="1.4127" font-size="1.6933" lengthAdjust="spacingAndGlyphs"
text-anchor="middle" opacity="0">2</text>
</g>
<g class="stroked-text"><desc>2</desc>
<path d="M21.8396 2.6487
L21.7791 2.5883
" />
<path d="M21.7791 2.5883
L21.7186 2.4673
" />
<path d="M21.7186 2.4673
L21.7186 2.1649
" />
<path d="M21.7186 2.1649
L21.7791 2.0440
" />
<path d="M21.7791 2.0440
L21.8396 1.9835
" />
<path d="M21.8396 1.9835
L21.9605 1.9230
" />
<path d="M21.9605 1.9230
L22.0815 1.9230
" />
<path d="M22.0815 1.9230
L22.2629 1.9835
" />
<path d="M22.2629 1.9835
L22.9886 2.7092
" />
<path d="M22.9886 2.7092
L22.9886 1.9230
" />
</g></g>
<g style="fill:#840000; fill-opacity:0.0; 
stroke:#840000; stroke-width:0.1524; stroke-opacity:1; 
stroke-linecap:round; stroke-linejoin:round;">
<path d="M21.4122 8.6360
L21.4122 11.1760
" />
</g>
<g style="fill:#A90000; fill-opacity:0.0; 
stroke:#A90000; stroke-width:0.1524; stroke-opacity:1; 
stroke-linecap:round; stroke-linejoin:round;">
<g transform="rotate(-90.000000 21.6662 9.9060)">
<text x="21.6662" y="11.1760"
textLength="1.4127" font-size="1.6933" lengthAdjust="spacingAndGlyphs"
text-anchor="middle" opacity="0">3</text>
</g>
<g class="stroked-text"><desc>3</desc>
<path d="M21.7186 10.3292
L21.7186 9.5430
" />
<path d="M21.7186 9.5430
L22.2024 9.9664
" />
<path d="M22.2024 9.9664
L22.2024 9.7849
" />
<path d="M22.2024 9.7849
L22.2629 9.6640
" />
<path d="M22.2629 9.6640
L22.3234 9.6035
" />
<path d="M22.3234 9.6035
L22.4443 9.5430
" />
<path d="M22.4443 9.5430
L22.7467 9.5430
" />
<path d="M22.7467 9.5430
L22.8677 9.6035
" />
<path d="M22.8677 9.6035
L22.9282 9.6640
" />
<path d="M22.9282 9.6640
L22.9886 9.7849
" />
<path d="M22.9886 9.7849
L22.9886 10.1478
" />
<path d="M22.9886 10.1478
L22.9282 10.2687
" />
<path d="M22.9282 10.2687
L22.8677 10.3292
" />
</g></g>
<g style="fill:#840084; fill-opacity:0.0; 
stroke:#840084; stroke-width:0.1524; stroke-opacity:1; 
stroke-linecap:round; stroke-linejoin:round;">
</g>
<g style="fill:#006464; fill-opacity:0.0; 
stroke:#006464; stroke-width:0.1524; stroke-opacity:1; 
stroke-linecap:round; stroke-linejoin:round;">
</g>
<g style="fill:#006464; fill-opacity:0.0; 
stroke:#006464; stroke-width:0.1588; stroke-opacity:1; 
stroke-linecap:round; stroke-linejoin:round;">
<text x="24.7649" y="5.4610"
textLength="2.6415" font-size="1.6933" lengthAdjust="spacingAndGlyphs"
text-anchor="middle" opacity="0">Q?</text>
<g class="stroked-text"><desc>Q?</desc>
<path d="M24.7044 5.5262
L24.5834 5.4657
" />
<path d="M24.5834 5.4657
L24.4625 5.3448
" />
<path d="M24.4625 5.3448
L24.2811 5.1633
" />
<path d="M24.2811 5.1633
L24.1601 5.1028
" />
<path d="M24.1601 5.1028
L24.0392 5.1028
" />
<path d="M24.0996 5.4052
L23.9787 5.3448
" />
<path d="M23.9787 5.3448
L23.8577 5.2238
" />
<path d="M23.8577 5.2238
L23.7973 4.9819
" />
<path d="M23.7973 4.9819
L23.7973 4.5586
" />
<path d="M23.7973 4.5586
L23.8577 4.3167
" />
<path d="M23.8577 4.3167
L23.9787 4.1957
" />
<path d="M23.9787 4.1957
L24.0996 4.1352
" />
<path d="M24.0996 4.1352
L24.3415 4.1352
" />
<path d="M24.3415 4.1352
L24.4625 4.1957
" />
<path d="M24.4625 4.1957
L24.5834 4.3167
" />
<path d="M24.5834 4.3167
L24.6439 4.5586
" />
<path d="M24.6439 4.5586
L24.6439 4.9819
" />
<path d="M24.6439 4.9819
L24.5834 5.2238
" />
<path d="M24.5834 5.2238
L24.4625 5.3448
" />
<path d="M24.4625 5.3448
L24.3415 5.4052
" />
<path d="M24.3415 5.4052
L24.0996 5.4052
" />
<path d="M25.3697 5.2843
L25.4301 5.3448
" />
<path d="M25.4301 5.3448
L25.3697 5.4052
" />
<path d="M25.3697 5.4052
L25.3092 5.3448
" />
<path d="M25.3092 5.3448
L25.3697 5.2843
" />
<path d="M25.3697 5.2843
L25.3697 5.4052
" />
<path d="M25.1278 4.1957
L25.2487 4.1352
" />
<path d="M25.2487 4.1352
L25.5511 4.1352
" />
<path d="M25.5511 4.1352
L25.6720 4.1957
" />
<path d="M25.6720 4.1957
L25.7325 4.3167
" />
<path d="M25.7325 4.3167
L25.7325 4.4376
" />
<path d="M25.7325 4.4376
L25.6720 4.5586
" />
<path d="M25.6720 4.5586
L25.6116 4.6190
" />
<path d="M25.6116 4.6190
L25.4906 4.6795
" />
<path d="M25.4906 4.6795
L25.4301 4.7400
" />
<path d="M25.4301 4.7400
L25.3697 4.8609
" />
<path d="M25.3697 4.8609
L25.3697 4.9214
" />
</g><text x="34.3502" y="8.0010"
textLength="21.8121" font-size="1.6933" lengthAdjust="spacingAndGlyphs"
text-anchor="middle" opacity="0">Q_PNP_Darlington_BCE</text>
<g class="stroked-text"><desc>Q_PNP_Darlington_BCE</desc>
<path d="M24.7044 8.0662
L24.5834 8.0057
" />
<path d="M24.5834 8.0057
L24.4625 7.8848
" />
<path d="M24.4625 7.8848
L24.2811 7.7033
" />
<path d="M24.2811 7.7033
L24.1601 7.6428
" />
<path d="M24.1601 7.6428
L24.0392 7.6428
" />
<path d="M24.0996 7.9452
L23.9787 7.8848
" />
<path d="M23.9787 7.8848
L23.8577 7.7638
" />
<path d="M23.8577 7.7638
L23.7973 7.5219
" />
<path d="M23.7973 7.5219
L23.7973 7.0986
" />
<path d="M23.7973 7.0986
L23.8577 6.8567
" />
<path d="M23.8577 6.8567
L23.9787 6.7357
" />
<path d="M23.9787 6.7357
L24.0996 6.6752
" />
<path d="M24.0996 6.6752
L24.3415 6.6752
" />
<path d="M24.3415 6.6752
L24.4625 6.7357
" />
<path d="M24.4625 6.7357
L24.5834 6.8567
" />
<path d="M24.5834 6.8567
L24.6439 7.0986
" />
<path d="M24.6439 7.0986
L24.6439 7.5219
" />
<path d="M24.6439 7.5219
L24.5834 7.7638
" />
<path d="M24.5834 7.7638
L24.4625 7.8848
" />
<path d="M24.4625 7.8848
L24.3415 7.9452
" />
<path d="M24.3415 7.9452
L24.0996 7.9452
" />
<path d="M24.8859 8.0662
L25.8535 8.0662
" />
<path d="M26.1558 7.9452
L26.1558 6.6752
" />
<path d="M26.1558 6.6752
L26.6396 6.6752
" />
<path d="M26.6396 6.6752
L26.7606 6.7357
" />
<path d="M26.7606 6.7357
L26.8211 6.7962
" />
<path d="M26.8211 6.7962
L26.8815 6.9171
" />
<path d="M26.8815 6.9171
L26.8815 7.0986
" />
<path d="M26.8815 7.0986
L26.8211 7.2195
" />
<path d="M26.8211 7.2195
L26.7606 7.2800
" />
<path d="M26.7606 7.2800
L26.6396 7.3405
" />
<path d="M26.6396 7.3405
L26.1558 7.3405
" />
<path d="M27.4258 7.9452
L27.4258 6.6752
" />
<path d="M27.4258 6.6752
L28.1515 7.9452
" />
<path d="M28.1515 7.9452
L28.1515 6.6752
" />
<path d="M28.7563 7.9452
L28.7563 6.6752
" />
<path d="M28.7563 6.6752
L29.2401 6.6752
" />
<path d="M29.2401 6.6752
L29.3611 6.7357
" />
<path d="M29.3611 6.7357
L29.4216 6.7962
" />
<path d="M29.4216 6.7962
L29.4820 6.9171
" />
<path d="M29.4820 6.9171
L29.4820 7.0986
" />
<path d="M29.4820 7.0986
L29.4216 7.2195
" />
<path d="M29.4216 7.2195
L29.3611 7.2800
" />
<path d="M29.3611 7.2800
L29.2401 7.3405
" />
<path d="M29.2401 7.3405
L28.7563 7.3405
" />
<path d="M29.7240 8.0662
L30.6916 8.0662
" />
<path d="M30.9939 7.9452
L30.9939 6.6752
" />
<path d="M30.9939 6.6752
L31.2963 6.6752
" />
<path d="M31.2963 6.6752
L31.4777 6.7357
" />
<path d="M31.4777 6.7357
L31.5987 6.8567
" />
<path d="M31.5987 6.8567
L31.6592 6.9776
" />
<path d="M31.6592 6.9776
L31.7196 7.2195
" />
<path d="M31.7196 7.2195
L31.7196 7.4009
" />
<path d="M31.7196 7.4009
L31.6592 7.6428
" />
<path d="M31.6592 7.6428
L31.5987 7.7638
" />
<path d="M31.5987 7.7638
L31.4777 7.8848
" />
<path d="M31.4777 7.8848
L31.2963 7.9452
" />
<path d="M31.2963 7.9452
L30.9939 7.9452
" />
<path d="M32.8082 7.9452
L32.8082 7.2800
" />
<path d="M32.8082 7.2800
L32.7477 7.1590
" />
<path d="M32.7477 7.1590
L32.6268 7.0986
" />
<path d="M32.6268 7.0986
L32.3849 7.0986
" />
<path d="M32.3849 7.0986
L32.2639 7.1590
" />
<path d="M32.8082 7.8848
L32.6873 7.9452
" />
<path d="M32.6873 7.9452
L32.3849 7.9452
" />
<path d="M32.3849 7.9452
L32.2639 7.8848
" />
<path d="M32.2639 7.8848
L32.2035 7.7638
" />
<path d="M32.2035 7.7638
L32.2035 7.6428
" />
<path d="M32.2035 7.6428
L32.2639 7.5219
" />
<path d="M32.2639 7.5219
L32.3849 7.4614
" />
<path d="M32.3849 7.4614
L32.6873 7.4614
" />
<path d="M32.6873 7.4614
L32.8082 7.4009
" />
<path d="M33.4129 7.9452
L33.4129 7.0986
" />
<path d="M33.4129 7.3405
L33.4734 7.2195
" />
<path d="M33.4734 7.2195
L33.5339 7.1590
" />
<path d="M33.5339 7.1590
L33.6548 7.0986
" />
<path d="M33.6548 7.0986
L33.7758 7.0986
" />
<path d="M34.3806 7.9452
L34.2596 7.8848
" />
<path d="M34.2596 7.8848
L34.1991 7.7638
" />
<path d="M34.1991 7.7638
L34.1991 6.6752
" />
<path d="M34.8643 7.9452
L34.8643 7.0986
" />
<path d="M34.8643 6.6752
L34.8039 6.7357
" />
<path d="M34.8039 6.7357
L34.8643 6.7962
" />
<path d="M34.8643 6.7962
L34.9248 6.7357
" />
<path d="M34.9248 6.7357
L34.8643 6.6752
" />
<path d="M34.8643 6.6752
L34.8643 6.7962
" />
<path d="M35.4691 7.0986
L35.4691 7.9452
" />
<path d="M35.4691 7.2195
L35.5296 7.1590
" />
<path d="M35.5296 7.1590
L35.6506 7.0986
" />
<path d="M35.6506 7.0986
L35.8320 7.0986
" />
<path d="M35.8320 7.0986
L35.9529 7.1590
" />
<path d="M35.9529 7.1590
L36.0134 7.2800
" />
<path d="M36.0134 7.2800
L36.0134 7.9452
" />
<path d="M37.1624 7.0986
L37.1624 8.1267
" />
<path d="M37.1624 8.1267
L37.1019 8.2476
" />
<path d="M37.1019 8.2476
L37.0415 8.3081
" />
<path d="M37.0415 8.3081
L36.9205 8.3686
" />
<path d="M36.9205 8.3686
L36.7391 8.3686
" />
<path d="M36.7391 8.3686
L36.6181 8.3081
" />
<path d="M37.1624 7.8848
L37.0415 7.9452
" />
<path d="M37.0415 7.9452
L36.7996 7.9452
" />
<path d="M36.7996 7.9452
L36.6786 7.8848
" />
<path d="M36.6786 7.8848
L36.6181 7.8243
" />
<path d="M36.6181 7.8243
L36.5577 7.7033
" />
<path d="M36.5577 7.7033
L36.5577 7.3405
" />
<path d="M36.5577 7.3405
L36.6181 7.2195
" />
<path d="M36.6181 7.2195
L36.6786 7.1590
" />
<path d="M36.6786 7.1590
L36.7996 7.0986
" />
<path d="M36.7996 7.0986
L37.0415 7.0986
" />
<path d="M37.0415 7.0986
L37.1624 7.1590
" />
<path d="M37.5857 7.0986
L38.0695 7.0986
" />
<path d="M37.7671 6.6752
L37.7671 7.7638
" />
<path d="M37.7671 7.7638
L37.8276 7.8848
" />
<path d="M37.8276 7.8848
L37.9486 7.9452
" />
<path d="M37.9486 7.9452
L38.0695 7.9452
" />
<path d="M38.6743 7.9452
L38.5533 7.8848
" />
<path d="M38.5533 7.8848
L38.4928 7.8243
" />
<path d="M38.4928 7.8243
L38.4324 7.7033
" />
<path d="M38.4324 7.7033
L38.4324 7.3405
" />
<path d="M38.4324 7.3405
L38.4928 7.2195
" />
<path d="M38.4928 7.2195
L38.5533 7.1590
" />
<path d="M38.5533 7.1590
L38.6743 7.0986
" />
<path d="M38.6743 7.0986
L38.8557 7.0986
" />
<path d="M38.8557 7.0986
L38.9766 7.1590
" />
<path d="M38.9766 7.1590
L39.0371 7.2195
" />
<path d="M39.0371 7.2195
L39.0976 7.3405
" />
<path d="M39.0976 7.3405
L39.0976 7.7033
" />
<path d="M39.0976 7.7033
L39.0371 7.8243
" />
<path d="M39.0371 7.8243
L38.9766 7.8848
" />
<path d="M38.9766 7.8848
L38.8557 7.9452
" />
<path d="M38.8557 7.9452
L38.6743 7.9452
" />
<path d="M39.6418 7.0986
L39.6418 7.9452
" />
<path d="M39.6418 7.2195
L39.7023 7.1590
" />
<path d="M39.7023 7.1590
L39.8233 7.0986
" />
<path d="M39.8233 7.0986
L40.0047 7.0986
" />
<path d="M40.0047 7.0986
L40.1256 7.1590
" />
<path d="M40.1256 7.1590
L40.1861 7.2800
" />
<path d="M40.1861 7.2800
L40.1861 7.9452
" />
<path d="M40.4885 8.0662
L41.4561 8.0662
" />
<path d="M42.1818 7.2800
L42.3632 7.3405
" />
<path d="M42.3632 7.3405
L42.4237 7.4009
" />
<path d="M42.4237 7.4009
L42.4841 7.5219
" />
<path d="M42.4841 7.5219
L42.4841 7.7033
" />
<path d="M42.4841 7.7033
L42.4237 7.8243
" />
<path d="M42.4237 7.8243
L42.3632 7.8848
" />
<path d="M42.3632 7.8848
L42.2422 7.9452
" />
<path d="M42.2422 7.9452
L41.7584 7.9452
" />
<path d="M41.7584 7.9452
L41.7584 6.6752
" />
<path d="M41.7584 6.6752
L42.1818 6.6752
" />
<path d="M42.1818 6.6752
L42.3027 6.7357
" />
<path d="M42.3027 6.7357
L42.3632 6.7962
" />
<path d="M42.3632 6.7962
L42.4237 6.9171
" />
<path d="M42.4237 6.9171
L42.4237 7.0381
" />
<path d="M42.4237 7.0381
L42.3632 7.1590
" />
<path d="M42.3632 7.1590
L42.3027 7.2195
" />
<path d="M42.3027 7.2195
L42.1818 7.2800
" />
<path d="M42.1818 7.2800
L41.7584 7.2800
" />
<path d="M43.7541 7.8243
L43.6937 7.8848
" />
<path d="M43.6937 7.8848
L43.5122 7.9452
" />
<path d="M43.5122 7.9452
L43.3913 7.9452
" />
<path d="M43.3913 7.9452
L43.2099 7.8848
" />
<path d="M43.2099 7.8848
L43.0889 7.7638
" />
<path d="M43.0889 7.7638
L43.0284 7.6428
" />
<path d="M43.0284 7.6428
L42.9680 7.4009
" />
<path d="M42.9680 7.4009
L42.9680 7.2195
" />
<path d="M42.9680 7.2195
L43.0284 6.9776
" />
<path d="M43.0284 6.9776
L43.0889 6.8567
" />
<path d="M43.0889 6.8567
L43.2099 6.7357
" />
<path d="M43.2099 6.7357
L43.3913 6.6752
" />
<path d="M43.3913 6.6752
L43.5122 6.6752
" />
<path d="M43.5122 6.6752
L43.6937 6.7357
" />
<path d="M43.6937 6.7357
L43.7541 6.7962
" />
<path d="M44.2984 7.2800
L44.7218 7.2800
" />
<path d="M44.9032 7.9452
L44.2984 7.9452
" />
<path d="M44.2984 7.9452
L44.2984 6.6752
" />
<path d="M44.2984 6.6752
L44.9032 6.6752
" />
</g></g> 
</svg>
