<?xml version="1.0" standalone="no"?>
 <!DOCTYPE svg PUBLIC "-//W3C//DTD SVG 1.1//EN" 
 "http://www.w3.org/Graphics/SVG/1.1/DTD/svg11.dtd"> 
<svg
  xmlns:svg="http://www.w3.org/2000/svg"
  xmlns="http://www.w3.org/2000/svg"
  xmlns:xlink="http://www.w3.org/1999/xlink"
  version="1.1"
  width="26.2382mm" height="12.1920mm" viewBox="0.0000 0.0000 26.2382 12.1920">
<title>SVG Image created as q_pujt_beb.svg date 2024/01/16 15:09:19 </title>
  <desc>Image generated by Eeschema-SVG </desc>
<g style="fill:#000000; fill-opacity:1.0000;stroke:#000000; stroke-opacity:1.0000;
stroke-linecap:round; stroke-linejoin:round;"
 transform="translate(0 0) scale(1 1)">
</g>
<g style="fill:#840000; fill-opacity:0.0; 
stroke:#840000; stroke-width:0.0000; stroke-opacity:1; 
stroke-linecap:round; stroke-linejoin:round;">
</g>
<g style="fill:#840084; fill-opacity:0.0; 
stroke:#840084; stroke-width:0.0000; stroke-opacity:1; 
stroke-linecap:round; stroke-linejoin:round;">
</g>
<g style="fill:#840000; fill-opacity:0.0; 
stroke:#840000; stroke-width:0.0000; stroke-opacity:1; 
stroke-linecap:round; stroke-linejoin:round;">
</g>
<g style="fill:#840000; fill-opacity:0.0; 
stroke:#840000; stroke-width:0.1524; stroke-opacity:1; 
stroke-linecap:round; stroke-linejoin:round;">
<path style="fill:#840000; fill-opacity:0.0; 
stroke:#840000; stroke-width:0.1524; stroke-opacity:1; 
stroke-linecap:round; stroke-linejoin:round;fill:none"
d="M 10.5791,6.0960
12.1031,6.0960
13.6271,7.6200
" /> 
</g>
<g style="fill:#840000; fill-opacity:0.0; 
stroke:#840000; stroke-width:0.2540; stroke-opacity:1; 
stroke-linecap:round; stroke-linejoin:round;">
<path style="fill:#840000; fill-opacity:0.0; 
stroke:#840000; stroke-width:0.2540; stroke-opacity:1; 
stroke-linecap:round; stroke-linejoin:round;fill:none"
d="M 13.6271,4.1910
13.6271,8.0010
13.6271,8.0010
" /> 
</g>
<g style="fill:#840000; fill-opacity:0.0; 
stroke:#840000; stroke-width:0.1524; stroke-opacity:1; 
stroke-linecap:round; stroke-linejoin:round;">
<path style="fill:#840000; fill-opacity:0.0; 
stroke:#840000; stroke-width:0.1524; stroke-opacity:1; 
stroke-linecap:round; stroke-linejoin:round;fill:none"
d="M 15.6591,8.6360
15.6591,7.3660
13.6271,7.3660
" /> 
<path style="fill:#840000; fill-opacity:0.0; 
stroke:#840000; stroke-width:0.1524; stroke-opacity:1; 
stroke-linecap:round; stroke-linejoin:round;fill:none"
d="M 15.6591,3.5560
15.6591,4.6990
13.6271,4.6990
" /> 
</g>
<g style="fill:#840000; fill-opacity:1.0000; 
stroke:#840000; stroke-width:0.1524; stroke-opacity:1; 
stroke-linecap:round; stroke-linejoin:round;">
<path style="fill:#840000; fill-opacity:1.0000; 
stroke:#840000; stroke-width:0.1524; stroke-opacity:1; 
stroke-linecap:round; stroke-linejoin:round;fill-rule:evenodd;"
d="M 13.1191,7.1120
12.7381,5.9690
11.9761,6.7310
Z" /> 
</g>
<g style="fill:#840000; fill-opacity:0.0; 
stroke:#840000; stroke-width:0.2540; stroke-opacity:1; 
stroke-linecap:round; stroke-linejoin:round;">
<circle cx="14.3891" cy="6.0960" r="2.8194" /> 
</g>
<g style="fill:#840000; fill-opacity:0.0; 
stroke:#840000; stroke-width:0.1524; stroke-opacity:1; 
stroke-linecap:round; stroke-linejoin:round;">
<path d="M15.6591 3.5560
L15.6591 1.0160
" />
</g>
<g style="fill:#A90000; fill-opacity:0.0; 
stroke:#A90000; stroke-width:0.1524; stroke-opacity:1; 
stroke-linecap:round; stroke-linejoin:round;">
<g transform="rotate(-90.000000 15.9131 2.2860)">
<text x="15.9131" y="3.5560"
textLength="1.4127" font-size="1.6933" lengthAdjust="spacingAndGlyphs"
text-anchor="middle" opacity="0">1</text>
</g>
<g class="stroked-text"><desc>1</desc>
<path d="M17.2355 1.9230
L17.2355 2.6487
" />
<path d="M17.2355 2.2859
L15.9655 2.2859
" />
<path d="M15.9655 2.2859
L16.1470 2.4068
" />
<path d="M16.1470 2.4068
L16.2679 2.5278
" />
<path d="M16.2679 2.5278
L16.3284 2.6487
" />
</g></g>
<g style="fill:#840000; fill-opacity:0.0; 
stroke:#840000; stroke-width:0.1524; stroke-opacity:1; 
stroke-linecap:round; stroke-linejoin:round;">
<path d="M10.5791 6.0960
L8.0391 6.0960
" />
</g>
<g style="fill:#A90000; fill-opacity:0.0; 
stroke:#A90000; stroke-width:0.1524; stroke-opacity:1; 
stroke-linecap:round; stroke-linejoin:round;">
<text x="9.3091" y="7.6200"
textLength="1.4127" font-size="1.6933" lengthAdjust="spacingAndGlyphs"
text-anchor="middle" opacity="0">2</text>
<g class="stroked-text"><desc>2</desc>
<path d="M8.9463 6.5234
L9.0067 6.4629
" />
<path d="M9.0067 6.4629
L9.1277 6.4024
" />
<path d="M9.1277 6.4024
L9.4301 6.4024
" />
<path d="M9.4301 6.4024
L9.5510 6.4629
" />
<path d="M9.5510 6.4629
L9.6115 6.5234
" />
<path d="M9.6115 6.5234
L9.6720 6.6443
" />
<path d="M9.6720 6.6443
L9.6720 6.7653
" />
<path d="M9.6720 6.7653
L9.6115 6.9467
" />
<path d="M9.6115 6.9467
L8.8858 7.6724
" />
<path d="M8.8858 7.6724
L9.6720 7.6724
" />
</g></g>
<g style="fill:#840000; fill-opacity:0.0; 
stroke:#840000; stroke-width:0.1524; stroke-opacity:1; 
stroke-linecap:round; stroke-linejoin:round;">
<path d="M15.6591 8.6360
L15.6591 11.1760
" />
</g>
<g style="fill:#A90000; fill-opacity:0.0; 
stroke:#A90000; stroke-width:0.1524; stroke-opacity:1; 
stroke-linecap:round; stroke-linejoin:round;">
<g transform="rotate(-90.000000 15.9131 9.9060)">
<text x="15.9131" y="11.1760"
textLength="1.4127" font-size="1.6933" lengthAdjust="spacingAndGlyphs"
text-anchor="middle" opacity="0">3</text>
</g>
<g class="stroked-text"><desc>3</desc>
<path d="M15.9655 10.3292
L15.9655 9.5430
" />
<path d="M15.9655 9.5430
L16.4493 9.9664
" />
<path d="M16.4493 9.9664
L16.4493 9.7849
" />
<path d="M16.4493 9.7849
L16.5098 9.6640
" />
<path d="M16.5098 9.6640
L16.5703 9.6035
" />
<path d="M16.5703 9.6035
L16.6912 9.5430
" />
<path d="M16.6912 9.5430
L16.9936 9.5430
" />
<path d="M16.9936 9.5430
L17.1146 9.6035
" />
<path d="M17.1146 9.6035
L17.1751 9.6640
" />
<path d="M17.1751 9.6640
L17.2355 9.7849
" />
<path d="M17.2355 9.7849
L17.2355 10.1478
" />
<path d="M17.2355 10.1478
L17.1751 10.2687
" />
<path d="M17.1751 10.2687
L17.1146 10.3292
" />
</g></g>
<g style="fill:#840084; fill-opacity:0.0; 
stroke:#840084; stroke-width:0.1524; stroke-opacity:1; 
stroke-linecap:round; stroke-linejoin:round;">
</g>
<g style="fill:#006464; fill-opacity:0.0; 
stroke:#006464; stroke-width:0.1524; stroke-opacity:1; 
stroke-linecap:round; stroke-linejoin:round;">
</g>
<g style="fill:#006464; fill-opacity:0.0; 
stroke:#006464; stroke-width:0.1588; stroke-opacity:1; 
stroke-linecap:round; stroke-linejoin:round;">
<text x="19.5198" y="5.4610"
textLength="2.6415" font-size="1.6933" lengthAdjust="spacingAndGlyphs"
text-anchor="middle" opacity="0">Q?</text>
<g class="stroked-text"><desc>Q?</desc>
<path d="M19.4593 5.5262
L19.3383 5.4657
" />
<path d="M19.3383 5.4657
L19.2174 5.3448
" />
<path d="M19.2174 5.3448
L19.0360 5.1633
" />
<path d="M19.0360 5.1633
L18.9150 5.1028
" />
<path d="M18.9150 5.1028
L18.7941 5.1028
" />
<path d="M18.8545 5.4052
L18.7336 5.3448
" />
<path d="M18.7336 5.3448
L18.6126 5.2238
" />
<path d="M18.6126 5.2238
L18.5522 4.9819
" />
<path d="M18.5522 4.9819
L18.5522 4.5586
" />
<path d="M18.5522 4.5586
L18.6126 4.3167
" />
<path d="M18.6126 4.3167
L18.7336 4.1957
" />
<path d="M18.7336 4.1957
L18.8545 4.1352
" />
<path d="M18.8545 4.1352
L19.0964 4.1352
" />
<path d="M19.0964 4.1352
L19.2174 4.1957
" />
<path d="M19.2174 4.1957
L19.3383 4.3167
" />
<path d="M19.3383 4.3167
L19.3988 4.5586
" />
<path d="M19.3988 4.5586
L19.3988 4.9819
" />
<path d="M19.3988 4.9819
L19.3383 5.2238
" />
<path d="M19.3383 5.2238
L19.2174 5.3448
" />
<path d="M19.2174 5.3448
L19.0964 5.4052
" />
<path d="M19.0964 5.4052
L18.8545 5.4052
" />
<path d="M20.1246 5.2843
L20.1850 5.3448
" />
<path d="M20.1850 5.3448
L20.1246 5.4052
" />
<path d="M20.1246 5.4052
L20.0641 5.3448
" />
<path d="M20.0641 5.3448
L20.1246 5.2843
" />
<path d="M20.1246 5.2843
L20.1246 5.4052
" />
<path d="M19.8827 4.1957
L20.0036 4.1352
" />
<path d="M20.0036 4.1352
L20.3060 4.1352
" />
<path d="M20.3060 4.1352
L20.4269 4.1957
" />
<path d="M20.4269 4.1957
L20.4874 4.3167
" />
<path d="M20.4874 4.3167
L20.4874 4.4376
" />
<path d="M20.4874 4.4376
L20.4269 4.5586
" />
<path d="M20.4269 4.5586
L20.3665 4.6190
" />
<path d="M20.3665 4.6190
L20.2455 4.6795
" />
<path d="M20.2455 4.6795
L20.1850 4.7400
" />
<path d="M20.1850 4.7400
L20.1246 4.8609
" />
<path d="M20.1246 4.8609
L20.1246 4.9214
" />
</g><text x="24.0555" y="8.0010"
textLength="11.7128" font-size="1.6933" lengthAdjust="spacingAndGlyphs"
text-anchor="middle" opacity="0">Q_PUJT_BEB</text>
<g class="stroked-text"><desc>Q_PUJT_BEB</desc>
<path d="M19.4593 8.0662
L19.3383 8.0057
" />
<path d="M19.3383 8.0057
L19.2174 7.8848
" />
<path d="M19.2174 7.8848
L19.0360 7.7033
" />
<path d="M19.0360 7.7033
L18.9150 7.6428
" />
<path d="M18.9150 7.6428
L18.7941 7.6428
" />
<path d="M18.8545 7.9452
L18.7336 7.8848
" />
<path d="M18.7336 7.8848
L18.6126 7.7638
" />
<path d="M18.6126 7.7638
L18.5522 7.5219
" />
<path d="M18.5522 7.5219
L18.5522 7.0986
" />
<path d="M18.5522 7.0986
L18.6126 6.8567
" />
<path d="M18.6126 6.8567
L18.7336 6.7357
" />
<path d="M18.7336 6.7357
L18.8545 6.6752
" />
<path d="M18.8545 6.6752
L19.0964 6.6752
" />
<path d="M19.0964 6.6752
L19.2174 6.7357
" />
<path d="M19.2174 6.7357
L19.3383 6.8567
" />
<path d="M19.3383 6.8567
L19.3988 7.0986
" />
<path d="M19.3988 7.0986
L19.3988 7.5219
" />
<path d="M19.3988 7.5219
L19.3383 7.7638
" />
<path d="M19.3383 7.7638
L19.2174 7.8848
" />
<path d="M19.2174 7.8848
L19.0964 7.9452
" />
<path d="M19.0964 7.9452
L18.8545 7.9452
" />
<path d="M19.6408 8.0662
L20.6084 8.0662
" />
<path d="M20.9107 7.9452
L20.9107 6.6752
" />
<path d="M20.9107 6.6752
L21.3945 6.6752
" />
<path d="M21.3945 6.6752
L21.5155 6.7357
" />
<path d="M21.5155 6.7357
L21.5760 6.7962
" />
<path d="M21.5760 6.7962
L21.6364 6.9171
" />
<path d="M21.6364 6.9171
L21.6364 7.0986
" />
<path d="M21.6364 7.0986
L21.5760 7.2195
" />
<path d="M21.5760 7.2195
L21.5155 7.2800
" />
<path d="M21.5155 7.2800
L21.3945 7.3405
" />
<path d="M21.3945 7.3405
L20.9107 7.3405
" />
<path d="M22.1807 6.6752
L22.1807 7.7033
" />
<path d="M22.1807 7.7033
L22.2412 7.8243
" />
<path d="M22.2412 7.8243
L22.3017 7.8848
" />
<path d="M22.3017 7.8848
L22.4226 7.9452
" />
<path d="M22.4226 7.9452
L22.6645 7.9452
" />
<path d="M22.6645 7.9452
L22.7855 7.8848
" />
<path d="M22.7855 7.8848
L22.8460 7.8243
" />
<path d="M22.8460 7.8243
L22.9064 7.7033
" />
<path d="M22.9064 7.7033
L22.9064 6.6752
" />
<path d="M23.8741 6.6752
L23.8741 7.5824
" />
<path d="M23.8741 7.5824
L23.8136 7.7638
" />
<path d="M23.8136 7.7638
L23.6927 7.8848
" />
<path d="M23.6927 7.8848
L23.5112 7.9452
" />
<path d="M23.5112 7.9452
L23.3903 7.9452
" />
<path d="M24.2974 6.6752
L25.0231 6.6752
" />
<path d="M24.6603 7.9452
L24.6603 6.6752
" />
<path d="M25.1441 8.0662
L26.1117 8.0662
" />
<path d="M26.8374 7.2800
L27.0188 7.3405
" />
<path d="M27.0188 7.3405
L27.0793 7.4009
" />
<path d="M27.0793 7.4009
L27.1397 7.5219
" />
<path d="M27.1397 7.5219
L27.1397 7.7033
" />
<path d="M27.1397 7.7033
L27.0793 7.8243
" />
<path d="M27.0793 7.8243
L27.0188 7.8848
" />
<path d="M27.0188 7.8848
L26.8978 7.9452
" />
<path d="M26.8978 7.9452
L26.4140 7.9452
" />
<path d="M26.4140 7.9452
L26.4140 6.6752
" />
<path d="M26.4140 6.6752
L26.8374 6.6752
" />
<path d="M26.8374 6.6752
L26.9583 6.7357
" />
<path d="M26.9583 6.7357
L27.0188 6.7962
" />
<path d="M27.0188 6.7962
L27.0793 6.9171
" />
<path d="M27.0793 6.9171
L27.0793 7.0381
" />
<path d="M27.0793 7.0381
L27.0188 7.1590
" />
<path d="M27.0188 7.1590
L26.9583 7.2195
" />
<path d="M26.9583 7.2195
L26.8374 7.2800
" />
<path d="M26.8374 7.2800
L26.4140 7.2800
" />
<path d="M27.6840 7.2800
L28.1074 7.2800
" />
<path d="M28.2888 7.9452
L27.6840 7.9452
" />
<path d="M27.6840 7.9452
L27.6840 6.6752
" />
<path d="M27.6840 6.6752
L28.2888 6.6752
" />
<path d="M29.2564 7.2800
L29.4378 7.3405
" />
<path d="M29.4378 7.3405
L29.4983 7.4009
" />
<path d="M29.4983 7.4009
L29.5587 7.5219
" />
<path d="M29.5587 7.5219
L29.5587 7.7033
" />
<path d="M29.5587 7.7033
L29.4983 7.8243
" />
<path d="M29.4983 7.8243
L29.4378 7.8848
" />
<path d="M29.4378 7.8848
L29.3168 7.9452
" />
<path d="M29.3168 7.9452
L28.8330 7.9452
" />
<path d="M28.8330 7.9452
L28.8330 6.6752
" />
<path d="M28.8330 6.6752
L29.2564 6.6752
" />
<path d="M29.2564 6.6752
L29.3773 6.7357
" />
<path d="M29.3773 6.7357
L29.4378 6.7962
" />
<path d="M29.4378 6.7962
L29.4983 6.9171
" />
<path d="M29.4983 6.9171
L29.4983 7.0381
" />
<path d="M29.4983 7.0381
L29.4378 7.1590
" />
<path d="M29.4378 7.1590
L29.3773 7.2195
" />
<path d="M29.3773 7.2195
L29.2564 7.2800
" />
<path d="M29.2564 7.2800
L28.8330 7.2800
" />
</g></g> 
</svg>
