<?xml version="1.0" standalone="no"?>
 <!DOCTYPE svg PUBLIC "-//W3C//DTD SVG 1.1//EN" 
 "http://www.w3.org/Graphics/SVG/1.1/DTD/svg11.dtd"> 
<svg
  xmlns:svg="http://www.w3.org/2000/svg"
  xmlns="http://www.w3.org/2000/svg"
  xmlns:xlink="http://www.w3.org/1999/xlink"
  version="1.1"
  width="59.9440mm" height="34.7472mm" viewBox="0.0000 0.0000 59.9440 34.7472">
<title>SVG Image created as ads7843e-2k5.svg date 2024/01/16 15:18:31 </title>
  <desc>Image generated by Eeschema-SVG </desc>
<g style="fill:#000000; fill-opacity:1.0000;stroke:#000000; stroke-opacity:1.0000;
stroke-linecap:round; stroke-linejoin:round;"
 transform="translate(0 0) scale(1 1)">
</g>
<g style="fill:#000000; fill-opacity:0.0; 
stroke:#000000; stroke-width:0.0000; stroke-opacity:1; 
stroke-linecap:round; stroke-linejoin:round;">
</g>
<g style="fill:#000000; fill-opacity:0.0; 
stroke:#000000; stroke-width:0.2540; stroke-opacity:1; 
stroke-linecap:round; stroke-linejoin:round;">
<rect x="19.812000" y="7.213600" width="20.320000" height="20.320000" rx="0.000000" />
</g>
<g style="fill:#000000; fill-opacity:0.0; 
stroke:#000000; stroke-width:0.1524; stroke-opacity:1; 
stroke-linecap:round; stroke-linejoin:round;">
<path d="M29.9720 7.2136
L29.9720 4.6736
" />
<g transform="rotate(-90.000000 29.9720 8.2296)">
<text x="29.9720" y="8.8646"
textLength="5.4042" font-size="1.6933" lengthAdjust="spacingAndGlyphs"
text-anchor="end" opacity="0">+VCC</text>
</g>
<g class="stroked-text"><desc>+VCC</desc>
<path d="M30.0677 13.2284
L30.0677 12.2608
" />
<path d="M30.5515 12.7446
L29.5839 12.7446
" />
<path d="M29.2815 11.8374
L30.5515 11.4141
" />
<path d="M30.5515 11.4141
L29.2815 10.9907
" />
<path d="M30.4306 9.8417
L30.4911 9.9021
" />
<path d="M30.4911 9.9021
L30.5515 10.0836
" />
<path d="M30.5515 10.0836
L30.5515 10.2045
" />
<path d="M30.5515 10.2045
L30.4911 10.3859
" />
<path d="M30.4911 10.3859
L30.3701 10.5069
" />
<path d="M30.3701 10.5069
L30.2491 10.5674
" />
<path d="M30.2491 10.5674
L30.0072 10.6278
" />
<path d="M30.0072 10.6278
L29.8258 10.6278
" />
<path d="M29.8258 10.6278
L29.5839 10.5674
" />
<path d="M29.5839 10.5674
L29.4630 10.5069
" />
<path d="M29.4630 10.5069
L29.3420 10.3859
" />
<path d="M29.3420 10.3859
L29.2815 10.2045
" />
<path d="M29.2815 10.2045
L29.2815 10.0836
" />
<path d="M29.2815 10.0836
L29.3420 9.9021
" />
<path d="M29.3420 9.9021
L29.4025 9.8417
" />
<path d="M30.4306 8.5717
L30.4911 8.6321
" />
<path d="M30.4911 8.6321
L30.5515 8.8136
" />
<path d="M30.5515 8.8136
L30.5515 8.9345
" />
<path d="M30.5515 8.9345
L30.4911 9.1159
" />
<path d="M30.4911 9.1159
L30.3701 9.2369
" />
<path d="M30.3701 9.2369
L30.2491 9.2974
" />
<path d="M30.2491 9.2974
L30.0072 9.3578
" />
<path d="M30.0072 9.3578
L29.8258 9.3578
" />
<path d="M29.8258 9.3578
L29.5839 9.2974
" />
<path d="M29.5839 9.2974
L29.4630 9.2369
" />
<path d="M29.4630 9.2369
L29.3420 9.1159
" />
<path d="M29.3420 9.1159
L29.2815 8.9345
" />
<path d="M29.2815 8.9345
L29.2815 8.8136
" />
<path d="M29.2815 8.8136
L29.3420 8.6321
" />
<path d="M29.3420 8.6321
L29.4025 8.5717
" />
</g><g transform="rotate(-90.000000 29.7180 5.9436)">
<text x="29.7180" y="5.9436"
textLength="2.6222" font-size="1.6933" lengthAdjust="spacingAndGlyphs"
text-anchor="middle" opacity="0">10</text>
</g>
<g class="stroked-text"><desc>10</desc>
<path d="M29.5545 6.1854
L29.5545 6.9111
" />
<path d="M29.5545 6.5483
L28.2845 6.5483
" />
<path d="M28.2845 6.5483
L28.4660 6.6692
" />
<path d="M28.4660 6.6692
L28.5869 6.7902
" />
<path d="M28.5869 6.7902
L28.6474 6.9111
" />
<path d="M28.2845 5.3993
L28.2845 5.2783
" />
<path d="M28.2845 5.2783
L28.3450 5.1574
" />
<path d="M28.3450 5.1574
L28.4055 5.0969
" />
<path d="M28.4055 5.0969
L28.5264 5.0364
" />
<path d="M28.5264 5.0364
L28.7683 4.9759
" />
<path d="M28.7683 4.9759
L29.0707 4.9759
" />
<path d="M29.0707 4.9759
L29.3126 5.0364
" />
<path d="M29.3126 5.0364
L29.4336 5.0969
" />
<path d="M29.4336 5.0969
L29.4941 5.1574
" />
<path d="M29.4941 5.1574
L29.5545 5.2783
" />
<path d="M29.5545 5.2783
L29.5545 5.3993
" />
<path d="M29.5545 5.3993
L29.4941 5.5202
" />
<path d="M29.4941 5.5202
L29.4336 5.5807
" />
<path d="M29.4336 5.5807
L29.3126 5.6412
" />
<path d="M29.3126 5.6412
L29.0707 5.7016
" />
<path d="M29.0707 5.7016
L28.7683 5.7016
" />
<path d="M28.7683 5.7016
L28.5264 5.6412
" />
<path d="M28.5264 5.6412
L28.4055 5.5807
" />
<path d="M28.4055 5.5807
L28.3450 5.5202
" />
<path d="M28.3450 5.5202
L28.2845 5.3993
" />
</g><path d="M40.1320 22.4536
L42.6720 22.4536
" />
<text x="39.1160" y="23.0886"
textLength="7.1580" font-size="1.6933" lengthAdjust="spacingAndGlyphs"
text-anchor="end" opacity="0">~{PENIRQ}</text>
<g class="stroked-text"><desc>~{PENIRQ}</desc>
<path d="M32.3633 23.0331
L32.3633 21.7631
" />
<path d="M32.3633 21.7631
L32.8471 21.7631
" />
<path d="M32.8471 21.7631
L32.9681 21.8236
" />
<path d="M32.9681 21.8236
L33.0286 21.8841
" />
<path d="M33.0286 21.8841
L33.0890 22.0050
" />
<path d="M33.0890 22.0050
L33.0890 22.1865
" />
<path d="M33.0890 22.1865
L33.0286 22.3074
" />
<path d="M33.0286 22.3074
L32.9681 22.3679
" />
<path d="M32.9681 22.3679
L32.8471 22.4284
" />
<path d="M32.8471 22.4284
L32.3633 22.4284
" />
<path d="M33.6333 22.3679
L34.0567 22.3679
" />
<path d="M34.2381 23.0331
L33.6333 23.0331
" />
<path d="M33.6333 23.0331
L33.6333 21.7631
" />
<path d="M33.6333 21.7631
L34.2381 21.7631
" />
<path d="M34.7823 23.0331
L34.7823 21.7631
" />
<path d="M34.7823 21.7631
L35.5080 23.0331
" />
<path d="M35.5080 23.0331
L35.5080 21.7631
" />
<path d="M36.1128 23.0331
L36.1128 21.7631
" />
<path d="M37.4433 23.0331
L37.0200 22.4284
" />
<path d="M36.7176 23.0331
L36.7176 21.7631
" />
<path d="M36.7176 21.7631
L37.2014 21.7631
" />
<path d="M37.2014 21.7631
L37.3224 21.8236
" />
<path d="M37.3224 21.8236
L37.3829 21.8841
" />
<path d="M37.3829 21.8841
L37.4433 22.0050
" />
<path d="M37.4433 22.0050
L37.4433 22.1865
" />
<path d="M37.4433 22.1865
L37.3829 22.3074
" />
<path d="M37.3829 22.3074
L37.3224 22.3679
" />
<path d="M37.3224 22.3679
L37.2014 22.4284
" />
<path d="M37.2014 22.4284
L36.7176 22.4284
" />
<path d="M38.8343 23.1541
L38.7133 23.0936
" />
<path d="M38.7133 23.0936
L38.5924 22.9727
" />
<path d="M38.5924 22.9727
L38.4110 22.7912
" />
<path d="M38.4110 22.7912
L38.2900 22.7307
" />
<path d="M38.2900 22.7307
L38.1691 22.7307
" />
<path d="M38.2295 23.0331
L38.1086 22.9727
" />
<path d="M38.1086 22.9727
L37.9876 22.8517
" />
<path d="M37.9876 22.8517
L37.9272 22.6098
" />
<path d="M37.9272 22.6098
L37.9272 22.1865
" />
<path d="M37.9272 22.1865
L37.9876 21.9446
" />
<path d="M37.9876 21.9446
L38.1086 21.8236
" />
<path d="M38.1086 21.8236
L38.2295 21.7631
" />
<path d="M38.2295 21.7631
L38.4714 21.7631
" />
<path d="M38.4714 21.7631
L38.5924 21.8236
" />
<path d="M38.5924 21.8236
L38.7133 21.9446
" />
<path d="M38.7133 21.9446
L38.7738 22.1865
" />
<path d="M38.7738 22.1865
L38.7738 22.6098
" />
<path d="M38.7738 22.6098
L38.7133 22.8517
" />
<path d="M38.7133 22.8517
L38.5924 22.9727
" />
<path d="M38.5924 22.9727
L38.4714 23.0331
" />
<path d="M38.4714 23.0331
L38.2295 23.0331
" />
<path d="M32.1880 21.4106
L38.8888 21.4106
" />
</g><text x="41.4020" y="22.1996"
textLength="2.6222" font-size="1.6933" lengthAdjust="spacingAndGlyphs"
text-anchor="middle" opacity="0">11</text>
<g class="stroked-text"><desc>11</desc>
<path d="M41.1601 22.0361
L40.4344 22.0361
" />
<path d="M40.7972 22.0361
L40.7972 20.7661
" />
<path d="M40.7972 20.7661
L40.6763 20.9476
" />
<path d="M40.6763 20.9476
L40.5553 21.0685
" />
<path d="M40.5553 21.0685
L40.4344 21.1290
" />
<path d="M42.3696 22.0361
L41.6439 22.0361
" />
<path d="M42.0067 22.0361
L42.0067 20.7661
" />
<path d="M42.0067 20.7661
L41.8858 20.9476
" />
<path d="M41.8858 20.9476
L41.7648 21.0685
" />
<path d="M41.7648 21.0685
L41.6439 21.1290
" />
</g><path d="M40.1320 12.2936
L42.6720 12.2936
" />
<text x="39.1160" y="12.9286"
textLength="5.1018" font-size="1.6933" lengthAdjust="spacingAndGlyphs"
text-anchor="end" opacity="0">DOUT</text>
<g class="stroked-text"><desc>DOUT</desc>
<path d="M34.4195 12.8731
L34.4195 11.6031
" />
<path d="M34.4195 11.6031
L34.7219 11.6031
" />
<path d="M34.7219 11.6031
L34.9033 11.6636
" />
<path d="M34.9033 11.6636
L35.0243 11.7846
" />
<path d="M35.0243 11.7846
L35.0848 11.9055
" />
<path d="M35.0848 11.9055
L35.1452 12.1474
" />
<path d="M35.1452 12.1474
L35.1452 12.3288
" />
<path d="M35.1452 12.3288
L35.0848 12.5707
" />
<path d="M35.0848 12.5707
L35.0243 12.6917
" />
<path d="M35.0243 12.6917
L34.9033 12.8127
" />
<path d="M34.9033 12.8127
L34.7219 12.8731
" />
<path d="M34.7219 12.8731
L34.4195 12.8731
" />
<path d="M35.9314 11.6031
L36.1733 11.6031
" />
<path d="M36.1733 11.6031
L36.2943 11.6636
" />
<path d="M36.2943 11.6636
L36.4152 11.7846
" />
<path d="M36.4152 11.7846
L36.4757 12.0265
" />
<path d="M36.4757 12.0265
L36.4757 12.4498
" />
<path d="M36.4757 12.4498
L36.4152 12.6917
" />
<path d="M36.4152 12.6917
L36.2943 12.8127
" />
<path d="M36.2943 12.8127
L36.1733 12.8731
" />
<path d="M36.1733 12.8731
L35.9314 12.8731
" />
<path d="M35.9314 12.8731
L35.8105 12.8127
" />
<path d="M35.8105 12.8127
L35.6895 12.6917
" />
<path d="M35.6895 12.6917
L35.6291 12.4498
" />
<path d="M35.6291 12.4498
L35.6291 12.0265
" />
<path d="M35.6291 12.0265
L35.6895 11.7846
" />
<path d="M35.6895 11.7846
L35.8105 11.6636
" />
<path d="M35.8105 11.6636
L35.9314 11.6031
" />
<path d="M37.0200 11.6031
L37.0200 12.6312
" />
<path d="M37.0200 12.6312
L37.0805 12.7522
" />
<path d="M37.0805 12.7522
L37.1410 12.8127
" />
<path d="M37.1410 12.8127
L37.2619 12.8731
" />
<path d="M37.2619 12.8731
L37.5038 12.8731
" />
<path d="M37.5038 12.8731
L37.6248 12.8127
" />
<path d="M37.6248 12.8127
L37.6853 12.7522
" />
<path d="M37.6853 12.7522
L37.7457 12.6312
" />
<path d="M37.7457 12.6312
L37.7457 11.6031
" />
<path d="M38.1691 11.6031
L38.8948 11.6031
" />
<path d="M38.5320 12.8731
L38.5320 11.6031
" />
</g><text x="41.4020" y="12.0396"
textLength="2.6222" font-size="1.6933" lengthAdjust="spacingAndGlyphs"
text-anchor="middle" opacity="0">12</text>
<g class="stroked-text"><desc>12</desc>
<path d="M41.1601 11.8761
L40.4344 11.8761
" />
<path d="M40.7972 11.8761
L40.7972 10.6061
" />
<path d="M40.7972 10.6061
L40.6763 10.7876
" />
<path d="M40.6763 10.7876
L40.5553 10.9085
" />
<path d="M40.5553 10.9085
L40.4344 10.9690
" />
<path d="M41.6439 10.7271
L41.7043 10.6666
" />
<path d="M41.7043 10.6666
L41.8253 10.6061
" />
<path d="M41.8253 10.6061
L42.1277 10.6061
" />
<path d="M42.1277 10.6061
L42.2486 10.6666
" />
<path d="M42.2486 10.6666
L42.3091 10.7271
" />
<path d="M42.3091 10.7271
L42.3696 10.8480
" />
<path d="M42.3696 10.8480
L42.3696 10.9690
" />
<path d="M42.3696 10.9690
L42.3091 11.1504
" />
<path d="M42.3091 11.1504
L41.5834 11.8761
" />
<path d="M41.5834 11.8761
L42.3696 11.8761
" />
</g><path d="M40.1320 17.3736
L42.6720 17.3736
" />
<text x="39.1160" y="18.0086"
textLength="5.1018" font-size="1.6933" lengthAdjust="spacingAndGlyphs"
text-anchor="end" opacity="0">BUSY</text>
<g class="stroked-text"><desc>BUSY</desc>
<path d="M34.8429 17.2879
L35.0243 17.3484
" />
<path d="M35.0243 17.3484
L35.0848 17.4088
" />
<path d="M35.0848 17.4088
L35.1452 17.5298
" />
<path d="M35.1452 17.5298
L35.1452 17.7112
" />
<path d="M35.1452 17.7112
L35.0848 17.8322
" />
<path d="M35.0848 17.8322
L35.0243 17.8927
" />
<path d="M35.0243 17.8927
L34.9033 17.9531
" />
<path d="M34.9033 17.9531
L34.4195 17.9531
" />
<path d="M34.4195 17.9531
L34.4195 16.6831
" />
<path d="M34.4195 16.6831
L34.8429 16.6831
" />
<path d="M34.8429 16.6831
L34.9638 16.7436
" />
<path d="M34.9638 16.7436
L35.0243 16.8041
" />
<path d="M35.0243 16.8041
L35.0848 16.9250
" />
<path d="M35.0848 16.9250
L35.0848 17.0460
" />
<path d="M35.0848 17.0460
L35.0243 17.1669
" />
<path d="M35.0243 17.1669
L34.9638 17.2274
" />
<path d="M34.9638 17.2274
L34.8429 17.2879
" />
<path d="M34.8429 17.2879
L34.4195 17.2879
" />
<path d="M35.6895 16.6831
L35.6895 17.7112
" />
<path d="M35.6895 17.7112
L35.7500 17.8322
" />
<path d="M35.7500 17.8322
L35.8105 17.8927
" />
<path d="M35.8105 17.8927
L35.9314 17.9531
" />
<path d="M35.9314 17.9531
L36.1733 17.9531
" />
<path d="M36.1733 17.9531
L36.2943 17.8927
" />
<path d="M36.2943 17.8927
L36.3548 17.8322
" />
<path d="M36.3548 17.8322
L36.4152 17.7112
" />
<path d="M36.4152 17.7112
L36.4152 16.6831
" />
<path d="M36.9596 17.8927
L37.1410 17.9531
" />
<path d="M37.1410 17.9531
L37.4434 17.9531
" />
<path d="M37.4434 17.9531
L37.5643 17.8927
" />
<path d="M37.5643 17.8927
L37.6248 17.8322
" />
<path d="M37.6248 17.8322
L37.6853 17.7112
" />
<path d="M37.6853 17.7112
L37.6853 17.5903
" />
<path d="M37.6853 17.5903
L37.6248 17.4693
" />
<path d="M37.6248 17.4693
L37.5643 17.4088
" />
<path d="M37.5643 17.4088
L37.4434 17.3484
" />
<path d="M37.4434 17.3484
L37.2015 17.2879
" />
<path d="M37.2015 17.2879
L37.0805 17.2274
" />
<path d="M37.0805 17.2274
L37.0200 17.1669
" />
<path d="M37.0200 17.1669
L36.9596 17.0460
" />
<path d="M36.9596 17.0460
L36.9596 16.9250
" />
<path d="M36.9596 16.9250
L37.0200 16.8041
" />
<path d="M37.0200 16.8041
L37.0805 16.7436
" />
<path d="M37.0805 16.7436
L37.2015 16.6831
" />
<path d="M37.2015 16.6831
L37.5038 16.6831
" />
<path d="M37.5038 16.6831
L37.6853 16.7436
" />
<path d="M38.4714 17.3484
L38.4714 17.9531
" />
<path d="M38.0481 16.6831
L38.4714 17.3484
" />
<path d="M38.4714 17.3484
L38.8948 16.6831
" />
</g><text x="41.4020" y="17.1196"
textLength="2.6222" font-size="1.6933" lengthAdjust="spacingAndGlyphs"
text-anchor="middle" opacity="0">13</text>
<g class="stroked-text"><desc>13</desc>
<path d="M41.1601 16.9561
L40.4344 16.9561
" />
<path d="M40.7972 16.9561
L40.7972 15.6861
" />
<path d="M40.7972 15.6861
L40.6763 15.8676
" />
<path d="M40.6763 15.8676
L40.5553 15.9885
" />
<path d="M40.5553 15.9885
L40.4344 16.0490
" />
<path d="M41.5834 15.6861
L42.3696 15.6861
" />
<path d="M42.3696 15.6861
L41.9462 16.1699
" />
<path d="M41.9462 16.1699
L42.1277 16.1699
" />
<path d="M42.1277 16.1699
L42.2486 16.2304
" />
<path d="M42.2486 16.2304
L42.3091 16.2909
" />
<path d="M42.3091 16.2909
L42.3696 16.4118
" />
<path d="M42.3696 16.4118
L42.3696 16.7142
" />
<path d="M42.3696 16.7142
L42.3091 16.8352
" />
<path d="M42.3091 16.8352
L42.2486 16.8957
" />
<path d="M42.2486 16.8957
L42.1277 16.9561
" />
<path d="M42.1277 16.9561
L41.7648 16.9561
" />
<path d="M41.7648 16.9561
L41.6439 16.8957
" />
<path d="M41.6439 16.8957
L41.5834 16.8352
" />
</g><path d="M40.1320 9.7536
L42.6720 9.7536
" />
<text x="39.1160" y="10.3886"
textLength="3.4085" font-size="1.6933" lengthAdjust="spacingAndGlyphs"
text-anchor="end" opacity="0">DIN</text>
<g class="stroked-text"><desc>DIN</desc>
<path d="M36.1128 10.3331
L36.1128 9.0631
" />
<path d="M36.1128 9.0631
L36.4152 9.0631
" />
<path d="M36.4152 9.0631
L36.5966 9.1236
" />
<path d="M36.5966 9.1236
L36.7176 9.2446
" />
<path d="M36.7176 9.2446
L36.7781 9.3655
" />
<path d="M36.7781 9.3655
L36.8385 9.6074
" />
<path d="M36.8385 9.6074
L36.8385 9.7888
" />
<path d="M36.8385 9.7888
L36.7781 10.0307
" />
<path d="M36.7781 10.0307
L36.7176 10.1517
" />
<path d="M36.7176 10.1517
L36.5966 10.2727
" />
<path d="M36.5966 10.2727
L36.4152 10.3331
" />
<path d="M36.4152 10.3331
L36.1128 10.3331
" />
<path d="M37.3828 10.3331
L37.3828 9.0631
" />
<path d="M37.9876 10.3331
L37.9876 9.0631
" />
<path d="M37.9876 9.0631
L38.7133 10.3331
" />
<path d="M38.7133 10.3331
L38.7133 9.0631
" />
</g><text x="41.4020" y="9.4996"
textLength="2.6222" font-size="1.6933" lengthAdjust="spacingAndGlyphs"
text-anchor="middle" opacity="0">14</text>
<g class="stroked-text"><desc>14</desc>
<path d="M41.1601 9.3361
L40.4344 9.3361
" />
<path d="M40.7972 9.3361
L40.7972 8.0661
" />
<path d="M40.7972 8.0661
L40.6763 8.2476
" />
<path d="M40.6763 8.2476
L40.5553 8.3685
" />
<path d="M40.5553 8.3685
L40.4344 8.4290
" />
<path d="M42.2486 8.4895
L42.2486 9.3361
" />
<path d="M41.9462 8.0057
L41.6439 8.9128
" />
<path d="M41.6439 8.9128
L42.4300 8.9128
" />
</g><path d="M40.1320 19.9136
L42.6720 19.9136
" />
<text x="39.1160" y="20.5486"
textLength="2.6827" font-size="1.6933" lengthAdjust="spacingAndGlyphs"
text-anchor="end" opacity="0">~{CS}</text>
<g class="stroked-text"><desc>~{CS}</desc>
<path d="M37.5643 20.3722
L37.5039 20.4327
" />
<path d="M37.5039 20.4327
L37.3224 20.4931
" />
<path d="M37.3224 20.4931
L37.2015 20.4931
" />
<path d="M37.2015 20.4931
L37.0201 20.4327
" />
<path d="M37.0201 20.4327
L36.8991 20.3117
" />
<path d="M36.8991 20.3117
L36.8386 20.1907
" />
<path d="M36.8386 20.1907
L36.7782 19.9488
" />
<path d="M36.7782 19.9488
L36.7782 19.7674
" />
<path d="M36.7782 19.7674
L36.8386 19.5255
" />
<path d="M36.8386 19.5255
L36.8991 19.4046
" />
<path d="M36.8991 19.4046
L37.0201 19.2836
" />
<path d="M37.0201 19.2836
L37.2015 19.2231
" />
<path d="M37.2015 19.2231
L37.3224 19.2231
" />
<path d="M37.3224 19.2231
L37.5039 19.2836
" />
<path d="M37.5039 19.2836
L37.5643 19.3441
" />
<path d="M38.0482 20.4327
L38.2296 20.4931
" />
<path d="M38.2296 20.4931
L38.5320 20.4931
" />
<path d="M38.5320 20.4931
L38.6529 20.4327
" />
<path d="M38.6529 20.4327
L38.7134 20.3722
" />
<path d="M38.7134 20.3722
L38.7739 20.2512
" />
<path d="M38.7739 20.2512
L38.7739 20.1303
" />
<path d="M38.7739 20.1303
L38.7134 20.0093
" />
<path d="M38.7134 20.0093
L38.6529 19.9488
" />
<path d="M38.6529 19.9488
L38.5320 19.8884
" />
<path d="M38.5320 19.8884
L38.2901 19.8279
" />
<path d="M38.2901 19.8279
L38.1691 19.7674
" />
<path d="M38.1691 19.7674
L38.1086 19.7069
" />
<path d="M38.1086 19.7069
L38.0482 19.5860
" />
<path d="M38.0482 19.5860
L38.0482 19.4650
" />
<path d="M38.0482 19.4650
L38.1086 19.3441
" />
<path d="M38.1086 19.3441
L38.1691 19.2836
" />
<path d="M38.1691 19.2836
L38.2901 19.2231
" />
<path d="M38.2901 19.2231
L38.5924 19.2231
" />
<path d="M38.5924 19.2231
L38.7739 19.2836
" />
<path d="M36.6633 18.8706
L38.8888 18.8706
" />
</g><text x="41.4020" y="19.6596"
textLength="2.6222" font-size="1.6933" lengthAdjust="spacingAndGlyphs"
text-anchor="middle" opacity="0">15</text>
<g class="stroked-text"><desc>15</desc>
<path d="M41.1601 19.4961
L40.4344 19.4961
" />
<path d="M40.7972 19.4961
L40.7972 18.2261
" />
<path d="M40.7972 18.2261
L40.6763 18.4076
" />
<path d="M40.6763 18.4076
L40.5553 18.5285
" />
<path d="M40.5553 18.5285
L40.4344 18.5890
" />
<path d="M42.3091 18.2261
L41.7043 18.2261
" />
<path d="M41.7043 18.2261
L41.6439 18.8309
" />
<path d="M41.6439 18.8309
L41.7043 18.7704
" />
<path d="M41.7043 18.7704
L41.8253 18.7099
" />
<path d="M41.8253 18.7099
L42.1277 18.7099
" />
<path d="M42.1277 18.7099
L42.2486 18.7704
" />
<path d="M42.2486 18.7704
L42.3091 18.8309
" />
<path d="M42.3091 18.8309
L42.3696 18.9518
" />
<path d="M42.3696 18.9518
L42.3696 19.2542
" />
<path d="M42.3696 19.2542
L42.3091 19.3752
" />
<path d="M42.3091 19.3752
L42.2486 19.4357
" />
<path d="M42.2486 19.4357
L42.1277 19.4961
" />
<path d="M42.1277 19.4961
L41.8253 19.4961
" />
<path d="M41.8253 19.4961
L41.7043 19.4357
" />
<path d="M41.7043 19.4357
L41.6439 19.3752
" />
</g><path d="M40.1320 14.8336
L42.6720 14.8336
" />
<text x="39.1160" y="15.4686"
textLength="5.0413" font-size="1.6933" lengthAdjust="spacingAndGlyphs"
text-anchor="end" opacity="0">DCLK</text>
<g class="stroked-text"><desc>DCLK</desc>
<path d="M34.4800 15.4131
L34.4800 14.1431
" />
<path d="M34.4800 14.1431
L34.7824 14.1431
" />
<path d="M34.7824 14.1431
L34.9638 14.2036
" />
<path d="M34.9638 14.2036
L35.0848 14.3246
" />
<path d="M35.0848 14.3246
L35.1453 14.4455
" />
<path d="M35.1453 14.4455
L35.2057 14.6874
" />
<path d="M35.2057 14.6874
L35.2057 14.8688
" />
<path d="M35.2057 14.8688
L35.1453 15.1107
" />
<path d="M35.1453 15.1107
L35.0848 15.2317
" />
<path d="M35.0848 15.2317
L34.9638 15.3527
" />
<path d="M34.9638 15.3527
L34.7824 15.4131
" />
<path d="M34.7824 15.4131
L34.4800 15.4131
" />
<path d="M36.4757 15.2922
L36.4153 15.3527
" />
<path d="M36.4153 15.3527
L36.2338 15.4131
" />
<path d="M36.2338 15.4131
L36.1129 15.4131
" />
<path d="M36.1129 15.4131
L35.9315 15.3527
" />
<path d="M35.9315 15.3527
L35.8105 15.2317
" />
<path d="M35.8105 15.2317
L35.7500 15.1107
" />
<path d="M35.7500 15.1107
L35.6896 14.8688
" />
<path d="M35.6896 14.8688
L35.6896 14.6874
" />
<path d="M35.6896 14.6874
L35.7500 14.4455
" />
<path d="M35.7500 14.4455
L35.8105 14.3246
" />
<path d="M35.8105 14.3246
L35.9315 14.2036
" />
<path d="M35.9315 14.2036
L36.1129 14.1431
" />
<path d="M36.1129 14.1431
L36.2338 14.1431
" />
<path d="M36.2338 14.1431
L36.4153 14.2036
" />
<path d="M36.4153 14.2036
L36.4757 14.2641
" />
<path d="M37.6248 15.4131
L37.0200 15.4131
" />
<path d="M37.0200 15.4131
L37.0200 14.1431
" />
<path d="M38.0481 15.4131
L38.0481 14.1431
" />
<path d="M38.7738 15.4131
L38.2296 14.6874
" />
<path d="M38.7738 14.1431
L38.0481 14.8688
" />
</g><text x="41.4020" y="14.5796"
textLength="2.6222" font-size="1.6933" lengthAdjust="spacingAndGlyphs"
text-anchor="middle" opacity="0">16</text>
<g class="stroked-text"><desc>16</desc>
<path d="M41.1601 14.4161
L40.4344 14.4161
" />
<path d="M40.7972 14.4161
L40.7972 13.1461
" />
<path d="M40.7972 13.1461
L40.6763 13.3276
" />
<path d="M40.6763 13.3276
L40.5553 13.4485
" />
<path d="M40.5553 13.4485
L40.4344 13.5090
" />
<path d="M42.2486 13.1461
L42.0067 13.1461
" />
<path d="M42.0067 13.1461
L41.8858 13.2066
" />
<path d="M41.8858 13.2066
L41.8253 13.2671
" />
<path d="M41.8253 13.2671
L41.7043 13.4485
" />
<path d="M41.7043 13.4485
L41.6439 13.6904
" />
<path d="M41.6439 13.6904
L41.6439 14.1742
" />
<path d="M41.6439 14.1742
L41.7043 14.2952
" />
<path d="M41.7043 14.2952
L41.7648 14.3557
" />
<path d="M41.7648 14.3557
L41.8858 14.4161
" />
<path d="M41.8858 14.4161
L42.1277 14.4161
" />
<path d="M42.1277 14.4161
L42.2486 14.3557
" />
<path d="M42.2486 14.3557
L42.3091 14.2952
" />
<path d="M42.3091 14.2952
L42.3696 14.1742
" />
<path d="M42.3696 14.1742
L42.3696 13.8718
" />
<path d="M42.3696 13.8718
L42.3091 13.7509
" />
<path d="M42.3091 13.7509
L42.2486 13.6904
" />
<path d="M42.2486 13.6904
L42.1277 13.6299
" />
<path d="M42.1277 13.6299
L41.8858 13.6299
" />
<path d="M41.8858 13.6299
L41.7648 13.6904
" />
<path d="M41.7648 13.6904
L41.7043 13.7509
" />
<path d="M41.7043 13.7509
L41.6439 13.8718
" />
</g><path d="M19.8120 9.7536
L17.2720 9.7536
" />
<text x="20.8280" y="10.3886"
textLength="2.9851" font-size="1.6933" lengthAdjust="spacingAndGlyphs"
text-anchor="start" opacity="0">X+</text>
<g class="stroked-text"><desc>X+</desc>
<path d="M21.1096 9.0631
L21.9562 10.3331
" />
<path d="M21.9562 9.0631
L21.1096 10.3331
" />
<path d="M22.4400 9.8493
L23.4077 9.8493
" />
<path d="M22.9238 10.3331
L22.9238 9.3655
" />
</g><text x="18.5420" y="9.4996"
textLength="1.4127" font-size="1.6933" lengthAdjust="spacingAndGlyphs"
text-anchor="middle" opacity="0">2</text>
<g class="stroked-text"><desc>2</desc>
<path d="M18.1792 8.1871
L18.2396 8.1266
" />
<path d="M18.2396 8.1266
L18.3606 8.0661
" />
<path d="M18.3606 8.0661
L18.6630 8.0661
" />
<path d="M18.6630 8.0661
L18.7839 8.1266
" />
<path d="M18.7839 8.1266
L18.8444 8.1871
" />
<path d="M18.8444 8.1871
L18.9049 8.3080
" />
<path d="M18.9049 8.3080
L18.9049 8.4290
" />
<path d="M18.9049 8.4290
L18.8444 8.6104
" />
<path d="M18.8444 8.6104
L18.1187 9.3361
" />
<path d="M18.1187 9.3361
L18.9049 9.3361
" />
</g><path d="M19.8120 12.2936
L17.2720 12.2936
" />
<text x="20.8280" y="12.9286"
textLength="2.8642" font-size="1.6933" lengthAdjust="spacingAndGlyphs"
text-anchor="start" opacity="0">Y+</text>
<g class="stroked-text"><desc>Y+</desc>
<path d="M21.4724 12.2684
L21.4724 12.8731
" />
<path d="M21.0491 11.6031
L21.4724 12.2684
" />
<path d="M21.4724 12.2684
L21.8958 11.6031
" />
<path d="M22.3191 12.3893
L23.2868 12.3893
" />
<path d="M22.8029 12.8731
L22.8029 11.9055
" />
</g><text x="18.5420" y="12.0396"
textLength="1.4127" font-size="1.6933" lengthAdjust="spacingAndGlyphs"
text-anchor="middle" opacity="0">3</text>
<g class="stroked-text"><desc>3</desc>
<path d="M18.1187 10.6061
L18.9049 10.6061
" />
<path d="M18.9049 10.6061
L18.4815 11.0899
" />
<path d="M18.4815 11.0899
L18.6630 11.0899
" />
<path d="M18.6630 11.0899
L18.7839 11.1504
" />
<path d="M18.7839 11.1504
L18.8444 11.2109
" />
<path d="M18.8444 11.2109
L18.9049 11.3318
" />
<path d="M18.9049 11.3318
L18.9049 11.6342
" />
<path d="M18.9049 11.6342
L18.8444 11.7552
" />
<path d="M18.8444 11.7552
L18.7839 11.8157
" />
<path d="M18.7839 11.8157
L18.6630 11.8761
" />
<path d="M18.6630 11.8761
L18.3001 11.8761
" />
<path d="M18.3001 11.8761
L18.1792 11.8157
" />
<path d="M18.1792 11.8157
L18.1187 11.7552
" />
</g><path d="M19.8120 14.8336
L17.2720 14.8336
" />
<text x="20.8280" y="15.4686"
textLength="2.9851" font-size="1.6933" lengthAdjust="spacingAndGlyphs"
text-anchor="start" opacity="0">X-</text>
<g class="stroked-text"><desc>X-</desc>
<path d="M21.1096 14.1431
L21.9562 15.4131
" />
<path d="M21.9562 14.1431
L21.1096 15.4131
" />
<path d="M22.4400 14.9293
L23.4077 14.9293
" />
</g><text x="18.5420" y="14.5796"
textLength="1.4127" font-size="1.6933" lengthAdjust="spacingAndGlyphs"
text-anchor="middle" opacity="0">4</text>
<g class="stroked-text"><desc>4</desc>
<path d="M18.7839 13.5695
L18.7839 14.4161
" />
<path d="M18.4815 13.0857
L18.1792 13.9928
" />
<path d="M18.1792 13.9928
L18.9653 13.9928
" />
</g><path d="M19.8120 17.3736
L17.2720 17.3736
" />
<text x="20.8280" y="18.0086"
textLength="2.8642" font-size="1.6933" lengthAdjust="spacingAndGlyphs"
text-anchor="start" opacity="0">Y-</text>
<g class="stroked-text"><desc>Y-</desc>
<path d="M21.4724 17.3484
L21.4724 17.9531
" />
<path d="M21.0491 16.6831
L21.4724 17.3484
" />
<path d="M21.4724 17.3484
L21.8958 16.6831
" />
<path d="M22.3191 17.4693
L23.2868 17.4693
" />
</g><text x="18.5420" y="17.1196"
textLength="1.4127" font-size="1.6933" lengthAdjust="spacingAndGlyphs"
text-anchor="middle" opacity="0">5</text>
<g class="stroked-text"><desc>5</desc>
<path d="M18.8444 15.6861
L18.2396 15.6861
" />
<path d="M18.2396 15.6861
L18.1792 16.2909
" />
<path d="M18.1792 16.2909
L18.2396 16.2304
" />
<path d="M18.2396 16.2304
L18.3606 16.1699
" />
<path d="M18.3606 16.1699
L18.6630 16.1699
" />
<path d="M18.6630 16.1699
L18.7839 16.2304
" />
<path d="M18.7839 16.2304
L18.8444 16.2909
" />
<path d="M18.8444 16.2909
L18.9049 16.4118
" />
<path d="M18.9049 16.4118
L18.9049 16.7142
" />
<path d="M18.9049 16.7142
L18.8444 16.8352
" />
<path d="M18.8444 16.8352
L18.7839 16.8957
" />
<path d="M18.7839 16.8957
L18.6630 16.9561
" />
<path d="M18.6630 16.9561
L18.3606 16.9561
" />
<path d="M18.3606 16.9561
L18.2396 16.8957
" />
<path d="M18.2396 16.8957
L18.1792 16.8352
" />
</g><path d="M29.9720 27.5336
L29.9720 30.0736
" />
<g transform="rotate(-90.000000 29.9720 26.5176)">
<text x="29.9720" y="27.1526"
textLength="4.0737" font-size="1.6933" lengthAdjust="spacingAndGlyphs"
text-anchor="start" opacity="0">GND</text>
</g>
<g class="stroked-text"><desc>GND</desc>
<path d="M29.3420 25.4497
L29.2815 25.5707
" />
<path d="M29.2815 25.5707
L29.2815 25.7521
" />
<path d="M29.2815 25.7521
L29.3420 25.9335
" />
<path d="M29.3420 25.9335
L29.4630 26.0545
" />
<path d="M29.4630 26.0545
L29.5839 26.1150
" />
<path d="M29.5839 26.1150
L29.8258 26.1754
" />
<path d="M29.8258 26.1754
L30.0072 26.1754
" />
<path d="M30.0072 26.1754
L30.2491 26.1150
" />
<path d="M30.2491 26.1150
L30.3701 26.0545
" />
<path d="M30.3701 26.0545
L30.4911 25.9335
" />
<path d="M30.4911 25.9335
L30.5515 25.7521
" />
<path d="M30.5515 25.7521
L30.5515 25.6312
" />
<path d="M30.5515 25.6312
L30.4911 25.4497
" />
<path d="M30.4911 25.4497
L30.4306 25.3893
" />
<path d="M30.4306 25.3893
L30.0072 25.3893
" />
<path d="M30.0072 25.3893
L30.0072 25.6312
" />
<path d="M30.5515 24.8450
L29.2815 24.8450
" />
<path d="M29.2815 24.8450
L30.5515 24.1193
" />
<path d="M30.5515 24.1193
L29.2815 24.1193
" />
<path d="M30.5515 23.5145
L29.2815 23.5145
" />
<path d="M29.2815 23.5145
L29.2815 23.2121
" />
<path d="M29.2815 23.2121
L29.3420 23.0307
" />
<path d="M29.3420 23.0307
L29.4630 22.9097
" />
<path d="M29.4630 22.9097
L29.5839 22.8492
" />
<path d="M29.5839 22.8492
L29.8258 22.7888
" />
<path d="M29.8258 22.7888
L30.0072 22.7888
" />
<path d="M30.0072 22.7888
L30.2491 22.8492
" />
<path d="M30.2491 22.8492
L30.3701 22.9097
" />
<path d="M30.3701 22.9097
L30.4911 23.0307
" />
<path d="M30.4911 23.0307
L30.5515 23.2121
" />
<path d="M30.5515 23.2121
L30.5515 23.5145
" />
</g><g transform="rotate(-90.000000 29.7180 28.8036)">
<text x="29.7180" y="28.8036"
textLength="1.4127" font-size="1.6933" lengthAdjust="spacingAndGlyphs"
text-anchor="middle" opacity="0">6</text>
</g>
<g class="stroked-text"><desc>6</desc>
<path d="M28.2845 28.5616
L28.2845 28.8035
" />
<path d="M28.2845 28.8035
L28.3450 28.9244
" />
<path d="M28.3450 28.9244
L28.4055 28.9849
" />
<path d="M28.4055 28.9849
L28.5869 29.1059
" />
<path d="M28.5869 29.1059
L28.8288 29.1663
" />
<path d="M28.8288 29.1663
L29.3126 29.1663
" />
<path d="M29.3126 29.1663
L29.4336 29.1059
" />
<path d="M29.4336 29.1059
L29.4941 29.0454
" />
<path d="M29.4941 29.0454
L29.5545 28.9244
" />
<path d="M29.5545 28.9244
L29.5545 28.6825
" />
<path d="M29.5545 28.6825
L29.4941 28.5616
" />
<path d="M29.4941 28.5616
L29.4336 28.5011
" />
<path d="M29.4336 28.5011
L29.3126 28.4406
" />
<path d="M29.3126 28.4406
L29.0102 28.4406
" />
<path d="M29.0102 28.4406
L28.8893 28.5011
" />
<path d="M28.8893 28.5011
L28.8288 28.5616
" />
<path d="M28.8288 28.5616
L28.7683 28.6825
" />
<path d="M28.7683 28.6825
L28.7683 28.9244
" />
<path d="M28.7683 28.9244
L28.8288 29.0454
" />
<path d="M28.8288 29.0454
L28.8893 29.1059
" />
<path d="M28.8893 29.1059
L29.0102 29.1663
" />
</g><path d="M19.8120 19.9136
L17.2720 19.9136
" />
<text x="20.8280" y="20.5486"
textLength="3.3480" font-size="1.6933" lengthAdjust="spacingAndGlyphs"
text-anchor="start" opacity="0">IN3</text>
<g class="stroked-text"><desc>IN3</desc>
<path d="M21.2305 20.4931
L21.2305 19.2231
" />
<path d="M21.8353 20.4931
L21.8353 19.2231
" />
<path d="M21.8353 19.2231
L22.5610 20.4931
" />
<path d="M22.5610 20.4931
L22.5610 19.2231
" />
<path d="M23.0449 19.2231
L23.8311 19.2231
" />
<path d="M23.8311 19.2231
L23.4077 19.7069
" />
<path d="M23.4077 19.7069
L23.5892 19.7069
" />
<path d="M23.5892 19.7069
L23.7101 19.7674
" />
<path d="M23.7101 19.7674
L23.7706 19.8279
" />
<path d="M23.7706 19.8279
L23.8311 19.9488
" />
<path d="M23.8311 19.9488
L23.8311 20.2512
" />
<path d="M23.8311 20.2512
L23.7706 20.3722
" />
<path d="M23.7706 20.3722
L23.7101 20.4327
" />
<path d="M23.7101 20.4327
L23.5892 20.4931
" />
<path d="M23.5892 20.4931
L23.2263 20.4931
" />
<path d="M23.2263 20.4931
L23.1054 20.4327
" />
<path d="M23.1054 20.4327
L23.0449 20.3722
" />
</g><text x="18.5420" y="19.6596"
textLength="1.4127" font-size="1.6933" lengthAdjust="spacingAndGlyphs"
text-anchor="middle" opacity="0">7</text>
<g class="stroked-text"><desc>7</desc>
<path d="M18.1187 18.2261
L18.9653 18.2261
" />
<path d="M18.9653 18.2261
L18.4211 19.4961
" />
</g><path d="M19.8120 22.4536
L17.2720 22.4536
" />
<text x="20.8280" y="23.0886"
textLength="3.3480" font-size="1.6933" lengthAdjust="spacingAndGlyphs"
text-anchor="start" opacity="0">IN4</text>
<g class="stroked-text"><desc>IN4</desc>
<path d="M21.2305 23.0331
L21.2305 21.7631
" />
<path d="M21.8353 23.0331
L21.8353 21.7631
" />
<path d="M21.8353 21.7631
L22.5610 23.0331
" />
<path d="M22.5610 23.0331
L22.5610 21.7631
" />
<path d="M23.7101 22.1865
L23.7101 23.0331
" />
<path d="M23.4077 21.7027
L23.1054 22.6098
" />
<path d="M23.1054 22.6098
L23.8915 22.6098
" />
</g><text x="18.5420" y="22.1996"
textLength="1.4127" font-size="1.6933" lengthAdjust="spacingAndGlyphs"
text-anchor="middle" opacity="0">8</text>
<g class="stroked-text"><desc>8</desc>
<path d="M18.4211 21.3104
L18.3001 21.2499
" />
<path d="M18.3001 21.2499
L18.2396 21.1895
" />
<path d="M18.2396 21.1895
L18.1792 21.0685
" />
<path d="M18.1792 21.0685
L18.1792 21.0080
" />
<path d="M18.1792 21.0080
L18.2396 20.8871
" />
<path d="M18.2396 20.8871
L18.3001 20.8266
" />
<path d="M18.3001 20.8266
L18.4211 20.7661
" />
<path d="M18.4211 20.7661
L18.6630 20.7661
" />
<path d="M18.6630 20.7661
L18.7839 20.8266
" />
<path d="M18.7839 20.8266
L18.8444 20.8871
" />
<path d="M18.8444 20.8871
L18.9049 21.0080
" />
<path d="M18.9049 21.0080
L18.9049 21.0685
" />
<path d="M18.9049 21.0685
L18.8444 21.1895
" />
<path d="M18.8444 21.1895
L18.7839 21.2499
" />
<path d="M18.7839 21.2499
L18.6630 21.3104
" />
<path d="M18.6630 21.3104
L18.4211 21.3104
" />
<path d="M18.4211 21.3104
L18.3001 21.3709
" />
<path d="M18.3001 21.3709
L18.2396 21.4314
" />
<path d="M18.2396 21.4314
L18.1792 21.5523
" />
<path d="M18.1792 21.5523
L18.1792 21.7942
" />
<path d="M18.1792 21.7942
L18.2396 21.9152
" />
<path d="M18.2396 21.9152
L18.3001 21.9757
" />
<path d="M18.3001 21.9757
L18.4211 22.0361
" />
<path d="M18.4211 22.0361
L18.6630 22.0361
" />
<path d="M18.6630 22.0361
L18.7839 21.9757
" />
<path d="M18.7839 21.9757
L18.8444 21.9152
" />
<path d="M18.8444 21.9152
L18.9049 21.7942
" />
<path d="M18.9049 21.7942
L18.9049 21.5523
" />
<path d="M18.9049 21.5523
L18.8444 21.4314
" />
<path d="M18.8444 21.4314
L18.7839 21.3709
" />
<path d="M18.7839 21.3709
L18.6630 21.3104
" />
</g><path d="M19.8120 24.9936
L17.2720 24.9936
" />
<text x="20.8280" y="25.6286"
textLength="4.7994" font-size="1.6933" lengthAdjust="spacingAndGlyphs"
text-anchor="start" opacity="0">VREF</text>
<g class="stroked-text"><desc>VREF</desc>
<path d="M21.0491 24.3031
L21.4724 25.5731
" />
<path d="M21.4724 25.5731
L21.8958 24.3031
" />
<path d="M23.0448 25.5731
L22.6215 24.9684
" />
<path d="M22.3191 25.5731
L22.3191 24.3031
" />
<path d="M22.3191 24.3031
L22.8029 24.3031
" />
<path d="M22.8029 24.3031
L22.9239 24.3636
" />
<path d="M22.9239 24.3636
L22.9844 24.4241
" />
<path d="M22.9844 24.4241
L23.0448 24.5450
" />
<path d="M23.0448 24.5450
L23.0448 24.7265
" />
<path d="M23.0448 24.7265
L22.9844 24.8474
" />
<path d="M22.9844 24.8474
L22.9239 24.9079
" />
<path d="M22.9239 24.9079
L22.8029 24.9684
" />
<path d="M22.8029 24.9684
L22.3191 24.9684
" />
<path d="M23.5891 24.9079
L24.0125 24.9079
" />
<path d="M24.1939 25.5731
L23.5891 25.5731
" />
<path d="M23.5891 25.5731
L23.5891 24.3031
" />
<path d="M23.5891 24.3031
L24.1939 24.3031
" />
<path d="M25.1615 24.9079
L24.7381 24.9079
" />
<path d="M24.7381 25.5731
L24.7381 24.3031
" />
<path d="M24.7381 24.3031
L25.3429 24.3031
" />
</g><text x="18.5420" y="24.7396"
textLength="1.4127" font-size="1.6933" lengthAdjust="spacingAndGlyphs"
text-anchor="middle" opacity="0">9</text>
<g class="stroked-text"><desc>9</desc>
<path d="M18.3001 24.5761
L18.5420 24.5761
" />
<path d="M18.5420 24.5761
L18.6630 24.5157
" />
<path d="M18.6630 24.5157
L18.7234 24.4552
" />
<path d="M18.7234 24.4552
L18.8444 24.2737
" />
<path d="M18.8444 24.2737
L18.9049 24.0318
" />
<path d="M18.9049 24.0318
L18.9049 23.5480
" />
<path d="M18.9049 23.5480
L18.8444 23.4271
" />
<path d="M18.8444 23.4271
L18.7839 23.3666
" />
<path d="M18.7839 23.3666
L18.6630 23.3061
" />
<path d="M18.6630 23.3061
L18.4211 23.3061
" />
<path d="M18.4211 23.3061
L18.3001 23.3666
" />
<path d="M18.3001 23.3666
L18.2396 23.4271
" />
<path d="M18.2396 23.4271
L18.1792 23.5480
" />
<path d="M18.1792 23.5480
L18.1792 23.8504
" />
<path d="M18.1792 23.8504
L18.2396 23.9714
" />
<path d="M18.2396 23.9714
L18.3001 24.0318
" />
<path d="M18.3001 24.0318
L18.4211 24.0923
" />
<path d="M18.4211 24.0923
L18.6630 24.0923
" />
<path d="M18.6630 24.0923
L18.7839 24.0318
" />
<path d="M18.7839 24.0318
L18.8444 23.9714
" />
<path d="M18.8444 23.9714
L18.9049 23.8504
" />
</g></g>
<g style="fill:#000000; fill-opacity:0.0; 
stroke:#000000; stroke-width:0.1588; stroke-opacity:1; 
stroke-linecap:round; stroke-linejoin:round;">
<text x="21.1327" y="6.8326"
textLength="2.6415" font-size="1.6933" lengthAdjust="spacingAndGlyphs"
text-anchor="middle" opacity="0">U?</text>
<g class="stroked-text"><desc>U?</desc>
<path d="M20.2255 5.5068
L20.2255 6.5349
" />
<path d="M20.2255 6.5349
L20.2860 6.6559
" />
<path d="M20.2860 6.6559
L20.3465 6.7164
" />
<path d="M20.3465 6.7164
L20.4674 6.7768
" />
<path d="M20.4674 6.7768
L20.7093 6.7768
" />
<path d="M20.7093 6.7768
L20.8303 6.7164
" />
<path d="M20.8303 6.7164
L20.8908 6.6559
" />
<path d="M20.8908 6.6559
L20.9512 6.5349
" />
<path d="M20.9512 6.5349
L20.9512 5.5068
" />
<path d="M21.7375 6.6559
L21.7979 6.7164
" />
<path d="M21.7979 6.7164
L21.7375 6.7768
" />
<path d="M21.7375 6.7768
L21.6770 6.7164
" />
<path d="M21.6770 6.7164
L21.7375 6.6559
" />
<path d="M21.7375 6.6559
L21.7375 6.7768
" />
<path d="M21.4956 5.5673
L21.6165 5.5068
" />
<path d="M21.6165 5.5068
L21.9189 5.5068
" />
<path d="M21.9189 5.5068
L22.0398 5.5673
" />
<path d="M22.0398 5.5673
L22.1003 5.6883
" />
<path d="M22.1003 5.6883
L22.1003 5.8092
" />
<path d="M22.1003 5.8092
L22.0398 5.9302
" />
<path d="M22.0398 5.9302
L21.9794 5.9906
" />
<path d="M21.9794 5.9906
L21.8584 6.0511
" />
<path d="M21.8584 6.0511
L21.7979 6.1116
" />
<path d="M21.7979 6.1116
L21.7375 6.2325
" />
<path d="M21.7375 6.2325
L21.7375 6.2930
" />
</g><text x="41.0474" y="6.5786"
textLength="15.0389" font-size="1.6933" lengthAdjust="spacingAndGlyphs"
text-anchor="middle" opacity="0">ADS7843E-2K5</text>
<g class="stroked-text"><desc>ADS7843E-2K5</desc>
<path d="M33.8811 6.1600
L34.4858 6.1600
" />
<path d="M33.7601 6.5228
L34.1834 5.2528
" />
<path d="M34.1834 5.2528
L34.6068 6.5228
" />
<path d="M35.0301 6.5228
L35.0301 5.2528
" />
<path d="M35.0301 5.2528
L35.3325 5.2528
" />
<path d="M35.3325 5.2528
L35.5139 5.3133
" />
<path d="M35.5139 5.3133
L35.6349 5.4343
" />
<path d="M35.6349 5.4343
L35.6954 5.5552
" />
<path d="M35.6954 5.5552
L35.7558 5.7971
" />
<path d="M35.7558 5.7971
L35.7558 5.9785
" />
<path d="M35.7558 5.9785
L35.6954 6.2204
" />
<path d="M35.6954 6.2204
L35.6349 6.3414
" />
<path d="M35.6349 6.3414
L35.5139 6.4624
" />
<path d="M35.5139 6.4624
L35.3325 6.5228
" />
<path d="M35.3325 6.5228
L35.0301 6.5228
" />
<path d="M36.2397 6.4624
L36.4211 6.5228
" />
<path d="M36.4211 6.5228
L36.7235 6.5228
" />
<path d="M36.7235 6.5228
L36.8444 6.4624
" />
<path d="M36.8444 6.4624
L36.9049 6.4019
" />
<path d="M36.9049 6.4019
L36.9654 6.2809
" />
<path d="M36.9654 6.2809
L36.9654 6.1600
" />
<path d="M36.9654 6.1600
L36.9049 6.0390
" />
<path d="M36.9049 6.0390
L36.8444 5.9785
" />
<path d="M36.8444 5.9785
L36.7235 5.9181
" />
<path d="M36.7235 5.9181
L36.4816 5.8576
" />
<path d="M36.4816 5.8576
L36.3606 5.7971
" />
<path d="M36.3606 5.7971
L36.3001 5.7366
" />
<path d="M36.3001 5.7366
L36.2397 5.6157
" />
<path d="M36.2397 5.6157
L36.2397 5.4947
" />
<path d="M36.2397 5.4947
L36.3001 5.3738
" />
<path d="M36.3001 5.3738
L36.3606 5.3133
" />
<path d="M36.3606 5.3133
L36.4816 5.2528
" />
<path d="M36.4816 5.2528
L36.7839 5.2528
" />
<path d="M36.7839 5.2528
L36.9654 5.3133
" />
<path d="M37.3887 5.2528
L38.2353 5.2528
" />
<path d="M38.2353 5.2528
L37.6911 6.5228
" />
<path d="M38.9006 5.7971
L38.7796 5.7366
" />
<path d="M38.7796 5.7366
L38.7191 5.6762
" />
<path d="M38.7191 5.6762
L38.6587 5.5552
" />
<path d="M38.6587 5.5552
L38.6587 5.4947
" />
<path d="M38.6587 5.4947
L38.7191 5.3738
" />
<path d="M38.7191 5.3738
L38.7796 5.3133
" />
<path d="M38.7796 5.3133
L38.9006 5.2528
" />
<path d="M38.9006 5.2528
L39.1425 5.2528
" />
<path d="M39.1425 5.2528
L39.2634 5.3133
" />
<path d="M39.2634 5.3133
L39.3239 5.3738
" />
<path d="M39.3239 5.3738
L39.3844 5.4947
" />
<path d="M39.3844 5.4947
L39.3844 5.5552
" />
<path d="M39.3844 5.5552
L39.3239 5.6762
" />
<path d="M39.3239 5.6762
L39.2634 5.7366
" />
<path d="M39.2634 5.7366
L39.1425 5.7971
" />
<path d="M39.1425 5.7971
L38.9006 5.7971
" />
<path d="M38.9006 5.7971
L38.7796 5.8576
" />
<path d="M38.7796 5.8576
L38.7191 5.9181
" />
<path d="M38.7191 5.9181
L38.6587 6.0390
" />
<path d="M38.6587 6.0390
L38.6587 6.2809
" />
<path d="M38.6587 6.2809
L38.7191 6.4019
" />
<path d="M38.7191 6.4019
L38.7796 6.4624
" />
<path d="M38.7796 6.4624
L38.9006 6.5228
" />
<path d="M38.9006 6.5228
L39.1425 6.5228
" />
<path d="M39.1425 6.5228
L39.2634 6.4624
" />
<path d="M39.2634 6.4624
L39.3239 6.4019
" />
<path d="M39.3239 6.4019
L39.3844 6.2809
" />
<path d="M39.3844 6.2809
L39.3844 6.0390
" />
<path d="M39.3844 6.0390
L39.3239 5.9181
" />
<path d="M39.3239 5.9181
L39.2634 5.8576
" />
<path d="M39.2634 5.8576
L39.1425 5.7971
" />
<path d="M40.4729 5.6762
L40.4729 6.5228
" />
<path d="M40.1705 5.1924
L39.8682 6.0995
" />
<path d="M39.8682 6.0995
L40.6543 6.0995
" />
<path d="M41.0172 5.2528
L41.8034 5.2528
" />
<path d="M41.8034 5.2528
L41.3800 5.7366
" />
<path d="M41.3800 5.7366
L41.5615 5.7366
" />
<path d="M41.5615 5.7366
L41.6824 5.7971
" />
<path d="M41.6824 5.7971
L41.7429 5.8576
" />
<path d="M41.7429 5.8576
L41.8034 5.9785
" />
<path d="M41.8034 5.9785
L41.8034 6.2809
" />
<path d="M41.8034 6.2809
L41.7429 6.4019
" />
<path d="M41.7429 6.4019
L41.6824 6.4624
" />
<path d="M41.6824 6.4624
L41.5615 6.5228
" />
<path d="M41.5615 6.5228
L41.1986 6.5228
" />
<path d="M41.1986 6.5228
L41.0777 6.4624
" />
<path d="M41.0777 6.4624
L41.0172 6.4019
" />
<path d="M42.3476 5.8576
L42.7710 5.8576
" />
<path d="M42.9524 6.5228
L42.3476 6.5228
" />
<path d="M42.3476 6.5228
L42.3476 5.2528
" />
<path d="M42.3476 5.2528
L42.9524 5.2528
" />
<path d="M43.4966 6.0390
L44.4643 6.0390
" />
<path d="M45.0086 5.3738
L45.0690 5.3133
" />
<path d="M45.0690 5.3133
L45.1900 5.2528
" />
<path d="M45.1900 5.2528
L45.4924 5.2528
" />
<path d="M45.4924 5.2528
L45.6133 5.3133
" />
<path d="M45.6133 5.3133
L45.6738 5.3738
" />
<path d="M45.6738 5.3738
L45.7343 5.4947
" />
<path d="M45.7343 5.4947
L45.7343 5.6157
" />
<path d="M45.7343 5.6157
L45.6738 5.7971
" />
<path d="M45.6738 5.7971
L44.9481 6.5228
" />
<path d="M44.9481 6.5228
L45.7343 6.5228
" />
<path d="M46.2785 6.5228
L46.2785 5.2528
" />
<path d="M47.0042 6.5228
L46.4600 5.7971
" />
<path d="M47.0042 5.2528
L46.2785 5.9785
" />
<path d="M48.1533 5.2528
L47.5485 5.2528
" />
<path d="M47.5485 5.2528
L47.4881 5.8576
" />
<path d="M47.4881 5.8576
L47.5485 5.7971
" />
<path d="M47.5485 5.7971
L47.6695 5.7366
" />
<path d="M47.6695 5.7366
L47.9719 5.7366
" />
<path d="M47.9719 5.7366
L48.0928 5.7971
" />
<path d="M48.0928 5.7971
L48.1533 5.8576
" />
<path d="M48.1533 5.8576
L48.2138 5.9785
" />
<path d="M48.2138 5.9785
L48.2138 6.2809
" />
<path d="M48.2138 6.2809
L48.1533 6.4019
" />
<path d="M48.1533 6.4019
L48.0928 6.4624
" />
<path d="M48.0928 6.4624
L47.9719 6.5228
" />
<path d="M47.9719 6.5228
L47.6695 6.5228
" />
<path d="M47.6695 6.5228
L47.5485 6.4624
" />
<path d="M47.5485 6.4624
L47.4881 6.4019
" />
</g></g> 
</svg>
