<?xml version="1.0" standalone="no"?>
 <!DOCTYPE svg PUBLIC "-//W3C//DTD SVG 1.1//EN" 
 "http://www.w3.org/Graphics/SVG/1.1/DTD/svg11.dtd"> 
<svg
  xmlns:svg="http://www.w3.org/2000/svg"
  xmlns="http://www.w3.org/2000/svg"
  xmlns:xlink="http://www.w3.org/1999/xlink"
  version="1.1"
  width="72.5424mm" height="12.1920mm" viewBox="0.0000 0.0000 72.5424 12.1920">
<title>SVG Image created as pn2222a.svg date 2024/01/16 15:12:39 </title>
  <desc>Image generated by Eeschema-SVG </desc>
<g style="fill:#000000; fill-opacity:1.0000;stroke:#000000; stroke-opacity:1.0000;
stroke-linecap:round; stroke-linejoin:round;"
 transform="translate(0 0) scale(1 1)">
</g>
<g style="fill:#840000; fill-opacity:0.0; 
stroke:#840000; stroke-width:0.0000; stroke-opacity:1; 
stroke-linecap:round; stroke-linejoin:round;">
</g>
<g style="fill:#840084; fill-opacity:0.0; 
stroke:#840084; stroke-width:0.0000; stroke-opacity:1; 
stroke-linecap:round; stroke-linejoin:round;">
</g>
<g style="fill:#840000; fill-opacity:0.0; 
stroke:#840000; stroke-width:0.0000; stroke-opacity:1; 
stroke-linecap:round; stroke-linejoin:round;">
</g>
<g style="fill:#840000; fill-opacity:0.0; 
stroke:#840000; stroke-width:0.1524; stroke-opacity:1; 
stroke-linecap:round; stroke-linejoin:round;">
<path style="fill:#840000; fill-opacity:0.0; 
stroke:#840000; stroke-width:0.1524; stroke-opacity:1; 
stroke-linecap:round; stroke-linejoin:round;fill:none"
d="M 36.2712,6.0960
36.9062,6.0960
" /> 
<path style="fill:#840000; fill-opacity:0.0; 
stroke:#840000; stroke-width:0.1524; stroke-opacity:1; 
stroke-linecap:round; stroke-linejoin:round;fill:none"
d="M 38.8112,8.6360
36.9062,6.7310
" /> 
<path style="fill:#840000; fill-opacity:0.0; 
stroke:#840000; stroke-width:0.1524; stroke-opacity:1; 
stroke-linecap:round; stroke-linejoin:round;fill:none"
d="M 38.8112,3.5560
36.9062,5.4610
" /> 
</g>
<g style="fill:#840000; fill-opacity:0.0; 
stroke:#840000; stroke-width:0.5080; stroke-opacity:1; 
stroke-linecap:round; stroke-linejoin:round;">
<path style="fill:#840000; fill-opacity:0.0; 
stroke:#840000; stroke-width:0.5080; stroke-opacity:1; 
stroke-linecap:round; stroke-linejoin:round;fill:none"
d="M 36.9062,4.1910
36.9062,8.0010
36.9062,8.0010
" /> 
</g>
<g style="fill:#840000; fill-opacity:0.0; 
stroke:#840000; stroke-width:0.1524; stroke-opacity:1; 
stroke-linecap:round; stroke-linejoin:round;">
<path style="fill:#840000; fill-opacity:0.0; 
stroke:#840000; stroke-width:0.1524; stroke-opacity:1; 
stroke-linecap:round; stroke-linejoin:round;fill:none"
d="M 38.6842,8.5090
38.1762,8.0010
38.1762,8.0010
" /> 
</g>
<g style="fill:#840000; fill-opacity:1.0000; 
stroke:#840000; stroke-width:0.1524; stroke-opacity:1; 
stroke-linecap:round; stroke-linejoin:round;">
<path style="fill:#840000; fill-opacity:1.0000; 
stroke:#840000; stroke-width:0.1524; stroke-opacity:1; 
stroke-linecap:round; stroke-linejoin:round;fill-rule:evenodd;"
d="M 37.4142,7.7470
37.9222,7.2390
38.4302,8.2550
37.4142,7.7470
Z" /> 
</g>
<g style="fill:#840000; fill-opacity:0.0; 
stroke:#840000; stroke-width:0.2540; stroke-opacity:1; 
stroke-linecap:round; stroke-linejoin:round;">
<circle cx="37.5412" cy="6.0960" r="2.8194" /> 
</g>
<g style="fill:#840000; fill-opacity:0.0; 
stroke:#840000; stroke-width:0.1524; stroke-opacity:1; 
stroke-linecap:round; stroke-linejoin:round;">
<path d="M38.8112 8.6360
L38.8112 11.1760
" />
</g>
<g style="fill:#A90000; fill-opacity:0.0; 
stroke:#A90000; stroke-width:0.1524; stroke-opacity:1; 
stroke-linecap:round; stroke-linejoin:round;">
<g transform="rotate(-90.000000 39.0652 9.9060)">
<text x="39.0652" y="11.1760"
textLength="1.4127" font-size="1.6933" lengthAdjust="spacingAndGlyphs"
text-anchor="middle" opacity="0">1</text>
</g>
<g class="stroked-text"><desc>1</desc>
<path d="M40.3876 9.5430
L40.3876 10.2687
" />
<path d="M40.3876 9.9059
L39.1176 9.9059
" />
<path d="M39.1176 9.9059
L39.2991 10.0268
" />
<path d="M39.2991 10.0268
L39.4200 10.1478
" />
<path d="M39.4200 10.1478
L39.4805 10.2687
" />
</g></g>
<g style="fill:#840000; fill-opacity:0.0; 
stroke:#840000; stroke-width:0.1524; stroke-opacity:1; 
stroke-linecap:round; stroke-linejoin:round;">
<path d="M36.2712 6.0960
L31.1912 6.0960
" />
</g>
<g style="fill:#A90000; fill-opacity:0.0; 
stroke:#A90000; stroke-width:0.1524; stroke-opacity:1; 
stroke-linecap:round; stroke-linejoin:round;">
<text x="33.7312" y="7.6200"
textLength="1.4127" font-size="1.6933" lengthAdjust="spacingAndGlyphs"
text-anchor="middle" opacity="0">2</text>
<g class="stroked-text"><desc>2</desc>
<path d="M33.3684 6.5234
L33.4288 6.4629
" />
<path d="M33.4288 6.4629
L33.5498 6.4024
" />
<path d="M33.5498 6.4024
L33.8522 6.4024
" />
<path d="M33.8522 6.4024
L33.9731 6.4629
" />
<path d="M33.9731 6.4629
L34.0336 6.5234
" />
<path d="M34.0336 6.5234
L34.0941 6.6443
" />
<path d="M34.0941 6.6443
L34.0941 6.7653
" />
<path d="M34.0941 6.7653
L34.0336 6.9467
" />
<path d="M34.0336 6.9467
L33.3079 7.6724
" />
<path d="M33.3079 7.6724
L34.0941 7.6724
" />
</g></g>
<g style="fill:#840000; fill-opacity:0.0; 
stroke:#840000; stroke-width:0.1524; stroke-opacity:1; 
stroke-linecap:round; stroke-linejoin:round;">
<path d="M38.8112 3.5560
L38.8112 1.0160
" />
</g>
<g style="fill:#A90000; fill-opacity:0.0; 
stroke:#A90000; stroke-width:0.1524; stroke-opacity:1; 
stroke-linecap:round; stroke-linejoin:round;">
<g transform="rotate(-90.000000 39.0652 2.2860)">
<text x="39.0652" y="3.5560"
textLength="1.4127" font-size="1.6933" lengthAdjust="spacingAndGlyphs"
text-anchor="middle" opacity="0">3</text>
</g>
<g class="stroked-text"><desc>3</desc>
<path d="M39.1176 2.7092
L39.1176 1.9230
" />
<path d="M39.1176 1.9230
L39.6014 2.3464
" />
<path d="M39.6014 2.3464
L39.6014 2.1649
" />
<path d="M39.6014 2.1649
L39.6619 2.0440
" />
<path d="M39.6619 2.0440
L39.7224 1.9835
" />
<path d="M39.7224 1.9835
L39.8433 1.9230
" />
<path d="M39.8433 1.9230
L40.1457 1.9230
" />
<path d="M40.1457 1.9230
L40.2667 1.9835
" />
<path d="M40.2667 1.9835
L40.3272 2.0440
" />
<path d="M40.3272 2.0440
L40.3876 2.1649
" />
<path d="M40.3876 2.1649
L40.3876 2.5278
" />
<path d="M40.3876 2.5278
L40.3272 2.6487
" />
<path d="M40.3272 2.6487
L40.2667 2.7092
" />
</g></g>
<g style="fill:#840084; fill-opacity:0.0; 
stroke:#840084; stroke-width:0.1524; stroke-opacity:1; 
stroke-linecap:round; stroke-linejoin:round;">
</g>
<g style="fill:#006464; fill-opacity:0.0; 
stroke:#006464; stroke-width:0.1524; stroke-opacity:1; 
stroke-linecap:round; stroke-linejoin:round;">
</g>
<g style="fill:#006464; fill-opacity:0.0; 
stroke:#006464; stroke-width:0.1588; stroke-opacity:1; 
stroke-linecap:round; stroke-linejoin:round;">
<text x="42.6719" y="4.8260"
textLength="2.6415" font-size="1.6933" lengthAdjust="spacingAndGlyphs"
text-anchor="middle" opacity="0">Q?</text>
<g class="stroked-text"><desc>Q?</desc>
<path d="M42.6114 4.8912
L42.4904 4.8307
" />
<path d="M42.4904 4.8307
L42.3695 4.7098
" />
<path d="M42.3695 4.7098
L42.1881 4.5283
" />
<path d="M42.1881 4.5283
L42.0671 4.4678
" />
<path d="M42.0671 4.4678
L41.9462 4.4678
" />
<path d="M42.0066 4.7702
L41.8857 4.7098
" />
<path d="M41.8857 4.7098
L41.7647 4.5888
" />
<path d="M41.7647 4.5888
L41.7043 4.3469
" />
<path d="M41.7043 4.3469
L41.7043 3.9236
" />
<path d="M41.7043 3.9236
L41.7647 3.6817
" />
<path d="M41.7647 3.6817
L41.8857 3.5607
" />
<path d="M41.8857 3.5607
L42.0066 3.5002
" />
<path d="M42.0066 3.5002
L42.2485 3.5002
" />
<path d="M42.2485 3.5002
L42.3695 3.5607
" />
<path d="M42.3695 3.5607
L42.4904 3.6817
" />
<path d="M42.4904 3.6817
L42.5509 3.9236
" />
<path d="M42.5509 3.9236
L42.5509 4.3469
" />
<path d="M42.5509 4.3469
L42.4904 4.5888
" />
<path d="M42.4904 4.5888
L42.3695 4.7098
" />
<path d="M42.3695 4.7098
L42.2485 4.7702
" />
<path d="M42.2485 4.7702
L42.0066 4.7702
" />
<path d="M43.2767 4.6493
L43.3371 4.7098
" />
<path d="M43.3371 4.7098
L43.2767 4.7702
" />
<path d="M43.2767 4.7702
L43.2162 4.7098
" />
<path d="M43.2162 4.7098
L43.2767 4.6493
" />
<path d="M43.2767 4.6493
L43.2767 4.7702
" />
<path d="M43.0348 3.5607
L43.1557 3.5002
" />
<path d="M43.1557 3.5002
L43.4581 3.5002
" />
<path d="M43.4581 3.5002
L43.5790 3.5607
" />
<path d="M43.5790 3.5607
L43.6395 3.6817
" />
<path d="M43.6395 3.6817
L43.6395 3.8026
" />
<path d="M43.6395 3.8026
L43.5790 3.9236
" />
<path d="M43.5790 3.9236
L43.5186 3.9840
" />
<path d="M43.5186 3.9840
L43.3976 4.0445
" />
<path d="M43.3976 4.0445
L43.3371 4.1050
" />
<path d="M43.3371 4.1050
L43.2767 4.2259
" />
<path d="M43.2767 4.2259
L43.2767 4.2864
" />
</g><text x="45.7259" y="6.7310"
textLength="8.7495" font-size="1.6933" lengthAdjust="spacingAndGlyphs"
text-anchor="middle" opacity="0">PN2222A</text>
<g class="stroked-text"><desc>PN2222A</desc>
<path d="M41.7647 6.6752
L41.7647 5.4052
" />
<path d="M41.7647 5.4052
L42.2485 5.4052
" />
<path d="M42.2485 5.4052
L42.3695 5.4657
" />
<path d="M42.3695 5.4657
L42.4300 5.5262
" />
<path d="M42.4300 5.5262
L42.4904 5.6471
" />
<path d="M42.4904 5.6471
L42.4904 5.8286
" />
<path d="M42.4904 5.8286
L42.4300 5.9495
" />
<path d="M42.4300 5.9495
L42.3695 6.0100
" />
<path d="M42.3695 6.0100
L42.2485 6.0705
" />
<path d="M42.2485 6.0705
L41.7647 6.0705
" />
<path d="M43.0347 6.6752
L43.0347 5.4052
" />
<path d="M43.0347 5.4052
L43.7604 6.6752
" />
<path d="M43.7604 6.6752
L43.7604 5.4052
" />
<path d="M44.3048 5.5262
L44.3652 5.4657
" />
<path d="M44.3652 5.4657
L44.4862 5.4052
" />
<path d="M44.4862 5.4052
L44.7886 5.4052
" />
<path d="M44.7886 5.4052
L44.9095 5.4657
" />
<path d="M44.9095 5.4657
L44.9700 5.5262
" />
<path d="M44.9700 5.5262
L45.0305 5.6471
" />
<path d="M45.0305 5.6471
L45.0305 5.7681
" />
<path d="M45.0305 5.7681
L44.9700 5.9495
" />
<path d="M44.9700 5.9495
L44.2443 6.6752
" />
<path d="M44.2443 6.6752
L45.0305 6.6752
" />
<path d="M45.5143 5.5262
L45.5747 5.4657
" />
<path d="M45.5747 5.4657
L45.6957 5.4052
" />
<path d="M45.6957 5.4052
L45.9981 5.4052
" />
<path d="M45.9981 5.4052
L46.1190 5.4657
" />
<path d="M46.1190 5.4657
L46.1795 5.5262
" />
<path d="M46.1795 5.5262
L46.2400 5.6471
" />
<path d="M46.2400 5.6471
L46.2400 5.7681
" />
<path d="M46.2400 5.7681
L46.1795 5.9495
" />
<path d="M46.1795 5.9495
L45.4538 6.6752
" />
<path d="M45.4538 6.6752
L46.2400 6.6752
" />
<path d="M46.7238 5.5262
L46.7842 5.4657
" />
<path d="M46.7842 5.4657
L46.9052 5.4052
" />
<path d="M46.9052 5.4052
L47.2076 5.4052
" />
<path d="M47.2076 5.4052
L47.3285 5.4657
" />
<path d="M47.3285 5.4657
L47.3890 5.5262
" />
<path d="M47.3890 5.5262
L47.4495 5.6471
" />
<path d="M47.4495 5.6471
L47.4495 5.7681
" />
<path d="M47.4495 5.7681
L47.3890 5.9495
" />
<path d="M47.3890 5.9495
L46.6633 6.6752
" />
<path d="M46.6633 6.6752
L47.4495 6.6752
" />
<path d="M47.9333 5.5262
L47.9937 5.4657
" />
<path d="M47.9937 5.4657
L48.1147 5.4052
" />
<path d="M48.1147 5.4052
L48.4171 5.4052
" />
<path d="M48.4171 5.4052
L48.5380 5.4657
" />
<path d="M48.5380 5.4657
L48.5985 5.5262
" />
<path d="M48.5985 5.5262
L48.6590 5.6471
" />
<path d="M48.6590 5.6471
L48.6590 5.7681
" />
<path d="M48.6590 5.7681
L48.5985 5.9495
" />
<path d="M48.5985 5.9495
L47.8728 6.6752
" />
<path d="M47.8728 6.6752
L48.6590 6.6752
" />
<path d="M49.1428 6.3124
L49.7475 6.3124
" />
<path d="M49.0218 6.6752
L49.4451 5.4052
" />
<path d="M49.4451 5.4052
L49.8685 6.6752
" />
</g></g> 
</svg>
