<?xml version="1.0" standalone="no"?>
 <!DOCTYPE svg PUBLIC "-//W3C//DTD SVG 1.1//EN" 
 "http://www.w3.org/Graphics/SVG/1.1/DTD/svg11.dtd"> 
<svg
  xmlns:svg="http://www.w3.org/2000/svg"
  xmlns="http://www.w3.org/2000/svg"
  xmlns:xlink="http://www.w3.org/1999/xlink"
  version="1.1"
  width="101.2952mm" height="13.4112mm" viewBox="0.0000 0.0000 101.2952 13.4112">
<title>SVG Image created as lt1634ccz-2.5.svg date 2024/01/16 15:21:21 </title>
  <desc>Image generated by Eeschema-SVG </desc>
<g style="fill:#000000; fill-opacity:1.0000;stroke:#000000; stroke-opacity:1.0000;
stroke-linecap:round; stroke-linejoin:round;"
 transform="translate(0 0) scale(1 1)">
</g>
<g style="fill:#000000; fill-opacity:0.0; 
stroke:#000000; stroke-width:0.0000; stroke-opacity:1; 
stroke-linecap:round; stroke-linejoin:round;">
</g>
<g style="fill:#000000; fill-opacity:0.0; 
stroke:#000000; stroke-width:0.1524; stroke-opacity:1; 
stroke-linecap:round; stroke-linejoin:round;">
<path style="fill:#000000; fill-opacity:0.0; 
stroke:#000000; stroke-width:0.1524; stroke-opacity:1; 
stroke-linecap:round; stroke-linejoin:round;fill:none"
d="M 50.6476,4.1656
50.6476,6.3246
" /> 
<path style="fill:#000000; fill-opacity:0.0; 
stroke:#000000; stroke-width:0.1524; stroke-opacity:1; 
stroke-linecap:round; stroke-linejoin:round;fill:none"
d="M 49.3776,6.7056
50.6476,6.7056
51.9176,6.7056
" /> 
</g>
<g style="fill:#000000; fill-opacity:0.0; 
stroke:#000000; stroke-width:0.2032; stroke-opacity:1; 
stroke-linecap:round; stroke-linejoin:round;">
<path style="fill:#000000; fill-opacity:0.0; 
stroke:#000000; stroke-width:0.2032; stroke-opacity:1; 
stroke-linecap:round; stroke-linejoin:round;fill:none"
d="M 49.3776,7.9756
51.2826,6.7056
49.3776,5.4356
Z" /> 
<path style="fill:#000000; fill-opacity:0.0; 
stroke:#000000; stroke-width:0.2032; stroke-opacity:1; 
stroke-linecap:round; stroke-linejoin:round;fill:none"
d="M 50.6476,7.9756
51.2826,7.9756
51.2826,5.4356
51.9176,5.4356
" /> 
</g>
<g style="fill:#000000; fill-opacity:0.0; 
stroke:#000000; stroke-width:0.1524; stroke-opacity:1; 
stroke-linecap:round; stroke-linejoin:round;">
<path d="M50.6476 4.1656
L50.6476 1.6256
" />
<g transform="rotate(-90.000000 50.3936 2.8956)">
<text x="50.3936" y="2.8956"
textLength="1.4127" font-size="1.6933" lengthAdjust="spacingAndGlyphs"
text-anchor="middle" opacity="0">1</text>
</g>
<g class="stroked-text"><desc>1</desc>
<path d="M50.2301 2.5326
L50.2301 3.2583
" />
<path d="M50.2301 2.8955
L48.9601 2.8955
" />
<path d="M48.9601 2.8955
L49.1416 3.0164
" />
<path d="M49.1416 3.0164
L49.2625 3.1374
" />
<path d="M49.2625 3.1374
L49.3230 3.2583
" />
</g><path d="M51.9176 6.7056
L54.4576 6.7056
" />
<text x="53.1876" y="6.4516"
textLength="1.4127" font-size="1.6933" lengthAdjust="spacingAndGlyphs"
text-anchor="middle" opacity="0">2</text>
<g class="stroked-text"><desc>2</desc>
<path d="M52.8248 5.1391
L52.8852 5.0786
" />
<path d="M52.8852 5.0786
L53.0062 5.0181
" />
<path d="M53.0062 5.0181
L53.3086 5.0181
" />
<path d="M53.3086 5.0181
L53.4295 5.0786
" />
<path d="M53.4295 5.0786
L53.4900 5.1391
" />
<path d="M53.4900 5.1391
L53.5505 5.2600
" />
<path d="M53.5505 5.2600
L53.5505 5.3810
" />
<path d="M53.5505 5.3810
L53.4900 5.5624
" />
<path d="M53.4900 5.5624
L52.7643 6.2881
" />
<path d="M52.7643 6.2881
L53.5505 6.2881
" />
</g><path d="M49.3776 6.7056
L46.8376 6.7056
" />
<text x="48.1076" y="6.4516"
textLength="1.4127" font-size="1.6933" lengthAdjust="spacingAndGlyphs"
text-anchor="middle" opacity="0">3</text>
<g class="stroked-text"><desc>3</desc>
<path d="M47.6843 5.0181
L48.4705 5.0181
" />
<path d="M48.4705 5.0181
L48.0471 5.5019
" />
<path d="M48.0471 5.5019
L48.2286 5.5019
" />
<path d="M48.2286 5.5019
L48.3495 5.5624
" />
<path d="M48.3495 5.5624
L48.4100 5.6229
" />
<path d="M48.4100 5.6229
L48.4705 5.7438
" />
<path d="M48.4705 5.7438
L48.4705 6.0462
" />
<path d="M48.4705 6.0462
L48.4100 6.1672
" />
<path d="M48.4100 6.1672
L48.3495 6.2277
" />
<path d="M48.3495 6.2277
L48.2286 6.2881
" />
<path d="M48.2286 6.2881
L47.8657 6.2881
" />
<path d="M47.8657 6.2881
L47.7448 6.2277
" />
<path d="M47.7448 6.2277
L47.6843 6.1672
" />
</g></g>
<g style="fill:#000000; fill-opacity:0.0; 
stroke:#000000; stroke-width:0.1588; stroke-opacity:1; 
stroke-linecap:round; stroke-linejoin:round;">
<text x="51.9176" y="3.5306"
textLength="2.6415" font-size="1.6933" lengthAdjust="spacingAndGlyphs"
text-anchor="middle" opacity="0">U?</text>
<g class="stroked-text"><desc>U?</desc>
<path d="M51.0104 2.2048
L51.0104 3.2329
" />
<path d="M51.0104 3.2329
L51.0709 3.3539
" />
<path d="M51.0709 3.3539
L51.1314 3.4144
" />
<path d="M51.1314 3.4144
L51.2523 3.4748
" />
<path d="M51.2523 3.4748
L51.4942 3.4748
" />
<path d="M51.4942 3.4748
L51.6152 3.4144
" />
<path d="M51.6152 3.4144
L51.6757 3.3539
" />
<path d="M51.6757 3.3539
L51.7361 3.2329
" />
<path d="M51.7361 3.2329
L51.7361 2.2048
" />
<path d="M52.5224 3.3539
L52.5828 3.4144
" />
<path d="M52.5828 3.4144
L52.5224 3.4748
" />
<path d="M52.5224 3.4748
L52.4619 3.4144
" />
<path d="M52.4619 3.4144
L52.5224 3.3539
" />
<path d="M52.5224 3.3539
L52.5224 3.4748
" />
<path d="M52.2805 2.2653
L52.4014 2.2048
" />
<path d="M52.4014 2.2048
L52.7038 2.2048
" />
<path d="M52.7038 2.2048
L52.8247 2.2653
" />
<path d="M52.8247 2.2653
L52.8852 2.3863
" />
<path d="M52.8852 2.3863
L52.8852 2.5072
" />
<path d="M52.8852 2.5072
L52.8247 2.6282
" />
<path d="M52.8247 2.6282
L52.7643 2.6886
" />
<path d="M52.7643 2.6886
L52.6433 2.7491
" />
<path d="M52.6433 2.7491
L52.5828 2.8096
" />
<path d="M52.5828 2.8096
L52.5224 2.9305
" />
<path d="M52.5224 2.9305
L52.5224 2.9910
" />
</g><text x="50.6476" y="9.8806"
textLength="15.4018" font-size="1.6933" lengthAdjust="spacingAndGlyphs"
text-anchor="middle" opacity="0">LT1634CCZ-2.5</text>
<g class="stroked-text"><desc>LT1634CCZ-2.5</desc>
<path d="M43.9650 9.8248
L43.3602 9.8248
" />
<path d="M43.3602 9.8248
L43.3602 8.5548
" />
<path d="M44.2069 8.5548
L44.9326 8.5548
" />
<path d="M44.5698 9.8248
L44.5698 8.5548
" />
<path d="M46.0212 9.8248
L45.2955 9.8248
" />
<path d="M45.6583 9.8248
L45.6583 8.5548
" />
<path d="M45.6583 8.5548
L45.5374 8.7363
" />
<path d="M45.5374 8.7363
L45.4164 8.8572
" />
<path d="M45.4164 8.8572
L45.2955 8.9177
" />
<path d="M47.1097 8.5548
L46.8678 8.5548
" />
<path d="M46.8678 8.5548
L46.7469 8.6153
" />
<path d="M46.7469 8.6153
L46.6864 8.6758
" />
<path d="M46.6864 8.6758
L46.5654 8.8572
" />
<path d="M46.5654 8.8572
L46.5050 9.0991
" />
<path d="M46.5050 9.0991
L46.5050 9.5829
" />
<path d="M46.5050 9.5829
L46.5654 9.7039
" />
<path d="M46.5654 9.7039
L46.6259 9.7644
" />
<path d="M46.6259 9.7644
L46.7469 9.8248
" />
<path d="M46.7469 9.8248
L46.9888 9.8248
" />
<path d="M46.9888 9.8248
L47.1097 9.7644
" />
<path d="M47.1097 9.7644
L47.1702 9.7039
" />
<path d="M47.1702 9.7039
L47.2307 9.5829
" />
<path d="M47.2307 9.5829
L47.2307 9.2805
" />
<path d="M47.2307 9.2805
L47.1702 9.1596
" />
<path d="M47.1702 9.1596
L47.1097 9.0991
" />
<path d="M47.1097 9.0991
L46.9888 9.0386
" />
<path d="M46.9888 9.0386
L46.7469 9.0386
" />
<path d="M46.7469 9.0386
L46.6259 9.0991
" />
<path d="M46.6259 9.0991
L46.5654 9.1596
" />
<path d="M46.5654 9.1596
L46.5050 9.2805
" />
<path d="M47.6540 8.5548
L48.4402 8.5548
" />
<path d="M48.4402 8.5548
L48.0168 9.0386
" />
<path d="M48.0168 9.0386
L48.1983 9.0386
" />
<path d="M48.1983 9.0386
L48.3192 9.0991
" />
<path d="M48.3192 9.0991
L48.3797 9.1596
" />
<path d="M48.3797 9.1596
L48.4402 9.2805
" />
<path d="M48.4402 9.2805
L48.4402 9.5829
" />
<path d="M48.4402 9.5829
L48.3797 9.7039
" />
<path d="M48.3797 9.7039
L48.3192 9.7644
" />
<path d="M48.3192 9.7644
L48.1983 9.8248
" />
<path d="M48.1983 9.8248
L47.8354 9.8248
" />
<path d="M47.8354 9.8248
L47.7145 9.7644
" />
<path d="M47.7145 9.7644
L47.6540 9.7039
" />
<path d="M49.5287 8.9782
L49.5287 9.8248
" />
<path d="M49.2263 8.4944
L48.9240 9.4015
" />
<path d="M48.9240 9.4015
L49.7101 9.4015
" />
<path d="M50.9196 9.7039
L50.8592 9.7644
" />
<path d="M50.8592 9.7644
L50.6777 9.8248
" />
<path d="M50.6777 9.8248
L50.5568 9.8248
" />
<path d="M50.5568 9.8248
L50.3754 9.7644
" />
<path d="M50.3754 9.7644
L50.2544 9.6434
" />
<path d="M50.2544 9.6434
L50.1939 9.5224
" />
<path d="M50.1939 9.5224
L50.1335 9.2805
" />
<path d="M50.1335 9.2805
L50.1335 9.0991
" />
<path d="M50.1335 9.0991
L50.1939 8.8572
" />
<path d="M50.1939 8.8572
L50.2544 8.7363
" />
<path d="M50.2544 8.7363
L50.3754 8.6153
" />
<path d="M50.3754 8.6153
L50.5568 8.5548
" />
<path d="M50.5568 8.5548
L50.6777 8.5548
" />
<path d="M50.6777 8.5548
L50.8592 8.6153
" />
<path d="M50.8592 8.6153
L50.9196 8.6758
" />
<path d="M52.1896 9.7039
L52.1292 9.7644
" />
<path d="M52.1292 9.7644
L51.9477 9.8248
" />
<path d="M51.9477 9.8248
L51.8268 9.8248
" />
<path d="M51.8268 9.8248
L51.6454 9.7644
" />
<path d="M51.6454 9.7644
L51.5244 9.6434
" />
<path d="M51.5244 9.6434
L51.4639 9.5224
" />
<path d="M51.4639 9.5224
L51.4035 9.2805
" />
<path d="M51.4035 9.2805
L51.4035 9.0991
" />
<path d="M51.4035 9.0991
L51.4639 8.8572
" />
<path d="M51.4639 8.8572
L51.5244 8.7363
" />
<path d="M51.5244 8.7363
L51.6454 8.6153
" />
<path d="M51.6454 8.6153
L51.8268 8.5548
" />
<path d="M51.8268 8.5548
L51.9477 8.5548
" />
<path d="M51.9477 8.5548
L52.1292 8.6153
" />
<path d="M52.1292 8.6153
L52.1896 8.6758
" />
<path d="M52.6130 8.5548
L53.4596 8.5548
" />
<path d="M53.4596 8.5548
L52.6130 9.8248
" />
<path d="M52.6130 9.8248
L53.4596 9.8248
" />
<path d="M53.9434 9.3410
L54.9111 9.3410
" />
<path d="M55.4554 8.6758
L55.5158 8.6153
" />
<path d="M55.5158 8.6153
L55.6368 8.5548
" />
<path d="M55.6368 8.5548
L55.9392 8.5548
" />
<path d="M55.9392 8.5548
L56.0601 8.6153
" />
<path d="M56.0601 8.6153
L56.1206 8.6758
" />
<path d="M56.1206 8.6758
L56.1811 8.7967
" />
<path d="M56.1811 8.7967
L56.1811 8.9177
" />
<path d="M56.1811 8.9177
L56.1206 9.0991
" />
<path d="M56.1206 9.0991
L55.3949 9.8248
" />
<path d="M55.3949 9.8248
L56.1811 9.8248
" />
<path d="M56.7253 9.7039
L56.7858 9.7644
" />
<path d="M56.7858 9.7644
L56.7253 9.8248
" />
<path d="M56.7253 9.8248
L56.6649 9.7644
" />
<path d="M56.6649 9.7644
L56.7253 9.7039
" />
<path d="M56.7253 9.7039
L56.7253 9.8248
" />
<path d="M57.9349 8.5548
L57.3301 8.5548
" />
<path d="M57.3301 8.5548
L57.2697 9.1596
" />
<path d="M57.2697 9.1596
L57.3301 9.0991
" />
<path d="M57.3301 9.0991
L57.4511 9.0386
" />
<path d="M57.4511 9.0386
L57.7535 9.0386
" />
<path d="M57.7535 9.0386
L57.8744 9.0991
" />
<path d="M57.8744 9.0991
L57.9349 9.1596
" />
<path d="M57.9349 9.1596
L57.9954 9.2805
" />
<path d="M57.9954 9.2805
L57.9954 9.5829
" />
<path d="M57.9954 9.5829
L57.9349 9.7039
" />
<path d="M57.9349 9.7039
L57.8744 9.7644
" />
<path d="M57.8744 9.7644
L57.7535 9.8248
" />
<path d="M57.7535 9.8248
L57.4511 9.8248
" />
<path d="M57.4511 9.8248
L57.3301 9.7644
" />
<path d="M57.3301 9.7644
L57.2697 9.7039
" />
</g></g> 
</svg>
