<?xml version="1.0" standalone="no"?>
 <!DOCTYPE svg PUBLIC "-//W3C//DTD SVG 1.1//EN" 
 "http://www.w3.org/Graphics/SVG/1.1/DTD/svg11.dtd"> 
<svg
  xmlns:svg="http://www.w3.org/2000/svg"
  xmlns="http://www.w3.org/2000/svg"
  xmlns:xlink="http://www.w3.org/1999/xlink"
  version="1.1"
  width="163.2204mm" height="36.2712mm" viewBox="0.0000 0.0000 163.2204 36.2712">
<title>SVG Image created as tbd62785afwg.svg date 2024/01/16 15:12:39 </title>
  <desc>Image generated by Eeschema-SVG </desc>
<g style="fill:#000000; fill-opacity:1.0000;stroke:#000000; stroke-opacity:1.0000;
stroke-linecap:round; stroke-linejoin:round;"
 transform="translate(0 0) scale(1 1)">
</g>
<g style="fill:#840000; fill-opacity:0.0; 
stroke:#840000; stroke-width:0.0000; stroke-opacity:1; 
stroke-linecap:round; stroke-linejoin:round;">
</g>
<g style="fill:#FFFFC2; fill-opacity:0.0; 
stroke:#FFFFC2; stroke-width:0.0000; stroke-opacity:1; 
stroke-linecap:round; stroke-linejoin:round;">
</g>
<g style="fill:#FFFFC2; fill-opacity:1.0000; 
stroke:#FFFFC2; stroke-width:0.0000; stroke-opacity:1; 
stroke-linecap:round; stroke-linejoin:round;">
<rect x="73.990200" y="7.975600" width="15.240000" height="22.860000" rx="0.000000" />
</g>
<g style="fill:#840084; fill-opacity:1.0000; 
stroke:#840084; stroke-width:0.0000; stroke-opacity:1; 
stroke-linecap:round; stroke-linejoin:round;">
</g>
<g style="fill:#840000; fill-opacity:1.0000; 
stroke:#840000; stroke-width:0.0000; stroke-opacity:1; 
stroke-linecap:round; stroke-linejoin:round;">
</g>
<g style="fill:#840000; fill-opacity:0.0; 
stroke:#840000; stroke-width:0.2540; stroke-opacity:1; 
stroke-linecap:round; stroke-linejoin:round;">
<rect x="73.990200" y="7.975600" width="15.240000" height="22.860000" rx="0.000000" />
</g>
<g style="fill:#840000; fill-opacity:0.0; 
stroke:#840000; stroke-width:0.1524; stroke-opacity:1; 
stroke-linecap:round; stroke-linejoin:round;">
<circle cx="78.8162" cy="18.1356" r="0.2540" /> 
</g>
<g style="fill:#840000; fill-opacity:1.0000; 
stroke:#840000; stroke-width:0.1524; stroke-opacity:1; 
stroke-linecap:round; stroke-linejoin:round;">
<rect x="81.102200" y="21.437600" width="1.016000" height="0.254000" rx="0.000000" />
</g>
<g style="fill:#840000; fill-opacity:0.0; 
stroke:#840000; stroke-width:0.1524; stroke-opacity:1; 
stroke-linecap:round; stroke-linejoin:round;">
<path style="fill:#840000; fill-opacity:0.0; 
stroke:#840000; stroke-width:0.1524; stroke-opacity:1; 
stroke-linecap:round; stroke-linejoin:round;fill:none"
d="M 77.5462,18.1356
78.5622,18.1356
" /> 
</g>
<g style="fill:#840000; fill-opacity:0.0; 
stroke:#840000; stroke-width:0.2540; stroke-opacity:1; 
stroke-linecap:round; stroke-linejoin:round;">
<path style="fill:#840000; fill-opacity:0.0; 
stroke:#840000; stroke-width:0.2540; stroke-opacity:1; 
stroke-linecap:round; stroke-linejoin:round;fill:none"
d="M 79.8322,20.9296
Z" /> 
<path style="fill:#840000; fill-opacity:0.0; 
stroke:#840000; stroke-width:0.2540; stroke-opacity:1; 
stroke-linecap:round; stroke-linejoin:round;fill:none"
d="M 79.8322,20.1676
Z" /> 
<path style="fill:#840000; fill-opacity:0.0; 
stroke:#840000; stroke-width:0.2540; stroke-opacity:1; 
stroke-linecap:round; stroke-linejoin:round;fill:none"
d="M 79.8322,19.4056
Z" /> 
<path style="fill:#840000; fill-opacity:0.0; 
stroke:#840000; stroke-width:0.2540; stroke-opacity:1; 
stroke-linecap:round; stroke-linejoin:round;fill:none"
d="M 79.8322,16.8656
Z" /> 
<path style="fill:#840000; fill-opacity:0.0; 
stroke:#840000; stroke-width:0.2540; stroke-opacity:1; 
stroke-linecap:round; stroke-linejoin:round;fill:none"
d="M 79.8322,16.1036
Z" /> 
<path style="fill:#840000; fill-opacity:0.0; 
stroke:#840000; stroke-width:0.2540; stroke-opacity:1; 
stroke-linecap:round; stroke-linejoin:round;fill:none"
d="M 79.8322,15.3416
Z" /> 
</g>
<g style="fill:#840000; fill-opacity:0.0; 
stroke:#840000; stroke-width:0.1524; stroke-opacity:1; 
stroke-linecap:round; stroke-linejoin:round;">
<path style="fill:#840000; fill-opacity:0.0; 
stroke:#840000; stroke-width:0.1524; stroke-opacity:1; 
stroke-linecap:round; stroke-linejoin:round;fill:none"
d="M 80.8482,18.1356
85.6742,18.1356
" /> 
<path style="fill:#840000; fill-opacity:0.0; 
stroke:#840000; stroke-width:0.1524; stroke-opacity:1; 
stroke-linecap:round; stroke-linejoin:round;fill:none"
d="M 81.1022,19.4056
82.1182,19.4056
" /> 
<path style="fill:#840000; fill-opacity:0.0; 
stroke:#840000; stroke-width:0.1524; stroke-opacity:1; 
stroke-linecap:round; stroke-linejoin:round;fill:none"
d="M 81.6102,18.1356
81.6102,21.4376
" /> 
</g>
<g style="fill:#840000; fill-opacity:0.0; 
stroke:#840000; stroke-width:0.5080; stroke-opacity:1; 
stroke-linecap:round; stroke-linejoin:round;">
<path style="fill:#840000; fill-opacity:0.0; 
stroke:#840000; stroke-width:0.5080; stroke-opacity:1; 
stroke-linecap:round; stroke-linejoin:round;fill:none"
d="M 81.6102,18.1356
Z" /> 
</g>
<g style="fill:#840000; fill-opacity:0.0; 
stroke:#840000; stroke-width:0.1524; stroke-opacity:1; 
stroke-linecap:round; stroke-linejoin:round;">
<path style="fill:#840000; fill-opacity:0.0; 
stroke:#840000; stroke-width:0.1524; stroke-opacity:1; 
stroke-linecap:round; stroke-linejoin:round;fill:none"
d="M 81.6102,19.4056
81.1022,20.4216
82.1182,20.4216
Z" /> 
<path style="fill:#840000; fill-opacity:0.0; 
stroke:#840000; stroke-width:0.1524; stroke-opacity:1; 
stroke-linecap:round; stroke-linejoin:round;fill:none"
d="M 79.0702,18.1356
79.0702,18.1356
79.0702,17.1196
80.8482,18.1356
79.0702,19.1516
Z" /> 
<path d="M73.9902 10.5156
L71.4502 10.5156
" />
</g>
<g style="fill:#006464; fill-opacity:0.0; 
stroke:#006464; stroke-width:0.1524; stroke-opacity:1; 
stroke-linecap:round; stroke-linejoin:round;">
<text x="74.4982" y="11.1506"
textLength="2.0175" font-size="1.6933" lengthAdjust="spacingAndGlyphs"
text-anchor="start" opacity="0">I1</text>
<g class="stroked-text"><desc>I1</desc>
<path d="M74.9007 11.0951
L74.9007 9.8251
" />
<path d="M76.1708 11.0951
L75.4451 11.0951
" />
<path d="M75.8079 11.0951
L75.8079 9.8251
" />
<path d="M75.8079 9.8251
L75.6870 10.0066
" />
<path d="M75.6870 10.0066
L75.5660 10.1275
" />
<path d="M75.5660 10.1275
L75.4451 10.1880
" />
</g></g>
<g style="fill:#A90000; fill-opacity:0.0; 
stroke:#A90000; stroke-width:0.1524; stroke-opacity:1; 
stroke-linecap:round; stroke-linejoin:round;">
<text x="72.7202" y="10.2616"
textLength="1.4127" font-size="1.6933" lengthAdjust="spacingAndGlyphs"
text-anchor="middle" opacity="0">1</text>
<g class="stroked-text"><desc>1</desc>
<path d="M73.0831 10.0981
L72.3574 10.0981
" />
<path d="M72.7202 10.0981
L72.7202 8.8281
" />
<path d="M72.7202 8.8281
L72.5993 9.0096
" />
<path d="M72.5993 9.0096
L72.4783 9.1305
" />
<path d="M72.4783 9.1305
L72.3574 9.1910
" />
</g></g>
<g style="fill:#840000; fill-opacity:0.0; 
stroke:#840000; stroke-width:0.1524; stroke-opacity:1; 
stroke-linecap:round; stroke-linejoin:round;">
<path d="M81.6102 30.8356
L81.6102 33.3756
" />
</g>
<g style="fill:#006464; fill-opacity:0.0; 
stroke:#006464; stroke-width:0.1524; stroke-opacity:1; 
stroke-linecap:round; stroke-linejoin:round;">
<g transform="rotate(-90.000000 81.6102 30.3276)">
<text x="81.6102" y="30.9626"
textLength="4.0737" font-size="1.6933" lengthAdjust="spacingAndGlyphs"
text-anchor="start" opacity="0">GND</text>
</g>
<g class="stroked-text"><desc>GND</desc>
<path d="M80.9802 29.2597
L80.9197 29.3807
" />
<path d="M80.9197 29.3807
L80.9197 29.5621
" />
<path d="M80.9197 29.5621
L80.9802 29.7435
" />
<path d="M80.9802 29.7435
L81.1012 29.8645
" />
<path d="M81.1012 29.8645
L81.2221 29.9250
" />
<path d="M81.2221 29.9250
L81.4640 29.9854
" />
<path d="M81.4640 29.9854
L81.6454 29.9854
" />
<path d="M81.6454 29.9854
L81.8873 29.9250
" />
<path d="M81.8873 29.9250
L82.0083 29.8645
" />
<path d="M82.0083 29.8645
L82.1293 29.7435
" />
<path d="M82.1293 29.7435
L82.1897 29.5621
" />
<path d="M82.1897 29.5621
L82.1897 29.4412
" />
<path d="M82.1897 29.4412
L82.1293 29.2597
" />
<path d="M82.1293 29.2597
L82.0688 29.1993
" />
<path d="M82.0688 29.1993
L81.6454 29.1993
" />
<path d="M81.6454 29.1993
L81.6454 29.4412
" />
<path d="M82.1897 28.6550
L80.9197 28.6550
" />
<path d="M80.9197 28.6550
L82.1897 27.9293
" />
<path d="M82.1897 27.9293
L80.9197 27.9293
" />
<path d="M82.1897 27.3245
L80.9197 27.3245
" />
<path d="M80.9197 27.3245
L80.9197 27.0221
" />
<path d="M80.9197 27.0221
L80.9802 26.8407
" />
<path d="M80.9802 26.8407
L81.1012 26.7197
" />
<path d="M81.1012 26.7197
L81.2221 26.6592
" />
<path d="M81.2221 26.6592
L81.4640 26.5988
" />
<path d="M81.4640 26.5988
L81.6454 26.5988
" />
<path d="M81.6454 26.5988
L81.8873 26.6592
" />
<path d="M81.8873 26.6592
L82.0083 26.7197
" />
<path d="M82.0083 26.7197
L82.1293 26.8407
" />
<path d="M82.1293 26.8407
L82.1897 27.0221
" />
<path d="M82.1897 27.0221
L82.1897 27.3245
" />
</g></g>
<g style="fill:#A90000; fill-opacity:0.0; 
stroke:#A90000; stroke-width:0.1524; stroke-opacity:1; 
stroke-linecap:round; stroke-linejoin:round;">
<g transform="rotate(-90.000000 81.3562 32.1056)">
<text x="81.3562" y="32.1056"
textLength="2.6222" font-size="1.6933" lengthAdjust="spacingAndGlyphs"
text-anchor="middle" opacity="0">10</text>
</g>
<g class="stroked-text"><desc>10</desc>
<path d="M81.1927 32.3474
L81.1927 33.0731
" />
<path d="M81.1927 32.7103
L79.9227 32.7103
" />
<path d="M79.9227 32.7103
L80.1042 32.8312
" />
<path d="M80.1042 32.8312
L80.2251 32.9522
" />
<path d="M80.2251 32.9522
L80.2856 33.0731
" />
<path d="M79.9227 31.5613
L79.9227 31.4403
" />
<path d="M79.9227 31.4403
L79.9832 31.3194
" />
<path d="M79.9832 31.3194
L80.0437 31.2589
" />
<path d="M80.0437 31.2589
L80.1646 31.1984
" />
<path d="M80.1646 31.1984
L80.4065 31.1379
" />
<path d="M80.4065 31.1379
L80.7089 31.1379
" />
<path d="M80.7089 31.1379
L80.9508 31.1984
" />
<path d="M80.9508 31.1984
L81.0718 31.2589
" />
<path d="M81.0718 31.2589
L81.1323 31.3194
" />
<path d="M81.1323 31.3194
L81.1927 31.4403
" />
<path d="M81.1927 31.4403
L81.1927 31.5613
" />
<path d="M81.1927 31.5613
L81.1323 31.6822
" />
<path d="M81.1323 31.6822
L81.0718 31.7427
" />
<path d="M81.0718 31.7427
L80.9508 31.8032
" />
<path d="M80.9508 31.8032
L80.7089 31.8636
" />
<path d="M80.7089 31.8636
L80.4065 31.8636
" />
<path d="M80.4065 31.8636
L80.1646 31.8032
" />
<path d="M80.1646 31.8032
L80.0437 31.7427
" />
<path d="M80.0437 31.7427
L79.9832 31.6822
" />
<path d="M79.9832 31.6822
L79.9227 31.5613
" />
</g></g>
<g style="fill:#840000; fill-opacity:0.0; 
stroke:#840000; stroke-width:0.1524; stroke-opacity:1; 
stroke-linecap:round; stroke-linejoin:round;">
<path d="M89.2302 28.2956
L91.7702 28.2956
" />
</g>
<g style="fill:#006464; fill-opacity:0.0; 
stroke:#006464; stroke-width:0.1524; stroke-opacity:1; 
stroke-linecap:round; stroke-linejoin:round;">
<text x="88.7222" y="28.9306"
textLength="2.7432" font-size="1.6933" lengthAdjust="spacingAndGlyphs"
text-anchor="end" opacity="0">O8</text>
<g class="stroked-text"><desc>O8</desc>
<path d="M86.6262 27.6051
L86.8681 27.6051
" />
<path d="M86.8681 27.6051
L86.9891 27.6656
" />
<path d="M86.9891 27.6656
L87.1100 27.7866
" />
<path d="M87.1100 27.7866
L87.1705 28.0285
" />
<path d="M87.1705 28.0285
L87.1705 28.4518
" />
<path d="M87.1705 28.4518
L87.1100 28.6937
" />
<path d="M87.1100 28.6937
L86.9891 28.8147
" />
<path d="M86.9891 28.8147
L86.8681 28.8751
" />
<path d="M86.8681 28.8751
L86.6262 28.8751
" />
<path d="M86.6262 28.8751
L86.5053 28.8147
" />
<path d="M86.5053 28.8147
L86.3843 28.6937
" />
<path d="M86.3843 28.6937
L86.3239 28.4518
" />
<path d="M86.3239 28.4518
L86.3239 28.0285
" />
<path d="M86.3239 28.0285
L86.3843 27.7866
" />
<path d="M86.3843 27.7866
L86.5053 27.6656
" />
<path d="M86.5053 27.6656
L86.6262 27.6051
" />
<path d="M87.8963 28.1494
L87.7753 28.0889
" />
<path d="M87.7753 28.0889
L87.7148 28.0285
" />
<path d="M87.7148 28.0285
L87.6544 27.9075
" />
<path d="M87.6544 27.9075
L87.6544 27.8470
" />
<path d="M87.6544 27.8470
L87.7148 27.7261
" />
<path d="M87.7148 27.7261
L87.7753 27.6656
" />
<path d="M87.7753 27.6656
L87.8963 27.6051
" />
<path d="M87.8963 27.6051
L88.1382 27.6051
" />
<path d="M88.1382 27.6051
L88.2591 27.6656
" />
<path d="M88.2591 27.6656
L88.3196 27.7261
" />
<path d="M88.3196 27.7261
L88.3801 27.8470
" />
<path d="M88.3801 27.8470
L88.3801 27.9075
" />
<path d="M88.3801 27.9075
L88.3196 28.0285
" />
<path d="M88.3196 28.0285
L88.2591 28.0889
" />
<path d="M88.2591 28.0889
L88.1382 28.1494
" />
<path d="M88.1382 28.1494
L87.8963 28.1494
" />
<path d="M87.8963 28.1494
L87.7753 28.2099
" />
<path d="M87.7753 28.2099
L87.7148 28.2704
" />
<path d="M87.7148 28.2704
L87.6544 28.3913
" />
<path d="M87.6544 28.3913
L87.6544 28.6332
" />
<path d="M87.6544 28.6332
L87.7148 28.7542
" />
<path d="M87.7148 28.7542
L87.7753 28.8147
" />
<path d="M87.7753 28.8147
L87.8963 28.8751
" />
<path d="M87.8963 28.8751
L88.1382 28.8751
" />
<path d="M88.1382 28.8751
L88.2591 28.8147
" />
<path d="M88.2591 28.8147
L88.3196 28.7542
" />
<path d="M88.3196 28.7542
L88.3801 28.6332
" />
<path d="M88.3801 28.6332
L88.3801 28.3913
" />
<path d="M88.3801 28.3913
L88.3196 28.2704
" />
<path d="M88.3196 28.2704
L88.2591 28.2099
" />
<path d="M88.2591 28.2099
L88.1382 28.1494
" />
</g></g>
<g style="fill:#A90000; fill-opacity:0.0; 
stroke:#A90000; stroke-width:0.1524; stroke-opacity:1; 
stroke-linecap:round; stroke-linejoin:round;">
<text x="90.5002" y="28.0416"
textLength="2.6222" font-size="1.6933" lengthAdjust="spacingAndGlyphs"
text-anchor="middle" opacity="0">11</text>
<g class="stroked-text"><desc>11</desc>
<path d="M90.2583 27.8781
L89.5326 27.8781
" />
<path d="M89.8954 27.8781
L89.8954 26.6081
" />
<path d="M89.8954 26.6081
L89.7745 26.7896
" />
<path d="M89.7745 26.7896
L89.6535 26.9105
" />
<path d="M89.6535 26.9105
L89.5326 26.9710
" />
<path d="M91.4678 27.8781
L90.7421 27.8781
" />
<path d="M91.1049 27.8781
L91.1049 26.6081
" />
<path d="M91.1049 26.6081
L90.9840 26.7896
" />
<path d="M90.9840 26.7896
L90.8630 26.9105
" />
<path d="M90.8630 26.9105
L90.7421 26.9710
" />
</g></g>
<g style="fill:#840000; fill-opacity:0.0; 
stroke:#840000; stroke-width:0.1524; stroke-opacity:1; 
stroke-linecap:round; stroke-linejoin:round;">
<path d="M89.2302 25.7556
L91.7702 25.7556
" />
</g>
<g style="fill:#006464; fill-opacity:0.0; 
stroke:#006464; stroke-width:0.1524; stroke-opacity:1; 
stroke-linecap:round; stroke-linejoin:round;">
<text x="88.7222" y="26.3906"
textLength="2.7432" font-size="1.6933" lengthAdjust="spacingAndGlyphs"
text-anchor="end" opacity="0">O7</text>
<g class="stroked-text"><desc>O7</desc>
<path d="M86.6262 25.0651
L86.8681 25.0651
" />
<path d="M86.8681 25.0651
L86.9891 25.1256
" />
<path d="M86.9891 25.1256
L87.1100 25.2466
" />
<path d="M87.1100 25.2466
L87.1705 25.4885
" />
<path d="M87.1705 25.4885
L87.1705 25.9118
" />
<path d="M87.1705 25.9118
L87.1100 26.1537
" />
<path d="M87.1100 26.1537
L86.9891 26.2747
" />
<path d="M86.9891 26.2747
L86.8681 26.3351
" />
<path d="M86.8681 26.3351
L86.6262 26.3351
" />
<path d="M86.6262 26.3351
L86.5053 26.2747
" />
<path d="M86.5053 26.2747
L86.3843 26.1537
" />
<path d="M86.3843 26.1537
L86.3239 25.9118
" />
<path d="M86.3239 25.9118
L86.3239 25.4885
" />
<path d="M86.3239 25.4885
L86.3843 25.2466
" />
<path d="M86.3843 25.2466
L86.5053 25.1256
" />
<path d="M86.5053 25.1256
L86.6262 25.0651
" />
<path d="M87.5939 25.0651
L88.4405 25.0651
" />
<path d="M88.4405 25.0651
L87.8963 26.3351
" />
</g></g>
<g style="fill:#A90000; fill-opacity:0.0; 
stroke:#A90000; stroke-width:0.1524; stroke-opacity:1; 
stroke-linecap:round; stroke-linejoin:round;">
<text x="90.5002" y="25.5016"
textLength="2.6222" font-size="1.6933" lengthAdjust="spacingAndGlyphs"
text-anchor="middle" opacity="0">12</text>
<g class="stroked-text"><desc>12</desc>
<path d="M90.2583 25.3381
L89.5326 25.3381
" />
<path d="M89.8954 25.3381
L89.8954 24.0681
" />
<path d="M89.8954 24.0681
L89.7745 24.2496
" />
<path d="M89.7745 24.2496
L89.6535 24.3705
" />
<path d="M89.6535 24.3705
L89.5326 24.4310
" />
<path d="M90.7421 24.1891
L90.8025 24.1286
" />
<path d="M90.8025 24.1286
L90.9235 24.0681
" />
<path d="M90.9235 24.0681
L91.2259 24.0681
" />
<path d="M91.2259 24.0681
L91.3468 24.1286
" />
<path d="M91.3468 24.1286
L91.4073 24.1891
" />
<path d="M91.4073 24.1891
L91.4678 24.3100
" />
<path d="M91.4678 24.3100
L91.4678 24.4310
" />
<path d="M91.4678 24.4310
L91.4073 24.6124
" />
<path d="M91.4073 24.6124
L90.6816 25.3381
" />
<path d="M90.6816 25.3381
L91.4678 25.3381
" />
</g></g>
<g style="fill:#840000; fill-opacity:0.0; 
stroke:#840000; stroke-width:0.1524; stroke-opacity:1; 
stroke-linecap:round; stroke-linejoin:round;">
<path d="M89.2302 23.2156
L91.7702 23.2156
" />
</g>
<g style="fill:#006464; fill-opacity:0.0; 
stroke:#006464; stroke-width:0.1524; stroke-opacity:1; 
stroke-linecap:round; stroke-linejoin:round;">
<text x="88.7222" y="23.8506"
textLength="2.7432" font-size="1.6933" lengthAdjust="spacingAndGlyphs"
text-anchor="end" opacity="0">O6</text>
<g class="stroked-text"><desc>O6</desc>
<path d="M86.6262 22.5251
L86.8681 22.5251
" />
<path d="M86.8681 22.5251
L86.9891 22.5856
" />
<path d="M86.9891 22.5856
L87.1100 22.7066
" />
<path d="M87.1100 22.7066
L87.1705 22.9485
" />
<path d="M87.1705 22.9485
L87.1705 23.3718
" />
<path d="M87.1705 23.3718
L87.1100 23.6137
" />
<path d="M87.1100 23.6137
L86.9891 23.7347
" />
<path d="M86.9891 23.7347
L86.8681 23.7951
" />
<path d="M86.8681 23.7951
L86.6262 23.7951
" />
<path d="M86.6262 23.7951
L86.5053 23.7347
" />
<path d="M86.5053 23.7347
L86.3843 23.6137
" />
<path d="M86.3843 23.6137
L86.3239 23.3718
" />
<path d="M86.3239 23.3718
L86.3239 22.9485
" />
<path d="M86.3239 22.9485
L86.3843 22.7066
" />
<path d="M86.3843 22.7066
L86.5053 22.5856
" />
<path d="M86.5053 22.5856
L86.6262 22.5251
" />
<path d="M88.2591 22.5251
L88.0172 22.5251
" />
<path d="M88.0172 22.5251
L87.8963 22.5856
" />
<path d="M87.8963 22.5856
L87.8358 22.6461
" />
<path d="M87.8358 22.6461
L87.7148 22.8275
" />
<path d="M87.7148 22.8275
L87.6544 23.0694
" />
<path d="M87.6544 23.0694
L87.6544 23.5532
" />
<path d="M87.6544 23.5532
L87.7148 23.6742
" />
<path d="M87.7148 23.6742
L87.7753 23.7347
" />
<path d="M87.7753 23.7347
L87.8963 23.7951
" />
<path d="M87.8963 23.7951
L88.1382 23.7951
" />
<path d="M88.1382 23.7951
L88.2591 23.7347
" />
<path d="M88.2591 23.7347
L88.3196 23.6742
" />
<path d="M88.3196 23.6742
L88.3801 23.5532
" />
<path d="M88.3801 23.5532
L88.3801 23.2508
" />
<path d="M88.3801 23.2508
L88.3196 23.1299
" />
<path d="M88.3196 23.1299
L88.2591 23.0694
" />
<path d="M88.2591 23.0694
L88.1382 23.0089
" />
<path d="M88.1382 23.0089
L87.8963 23.0089
" />
<path d="M87.8963 23.0089
L87.7753 23.0694
" />
<path d="M87.7753 23.0694
L87.7148 23.1299
" />
<path d="M87.7148 23.1299
L87.6544 23.2508
" />
</g></g>
<g style="fill:#A90000; fill-opacity:0.0; 
stroke:#A90000; stroke-width:0.1524; stroke-opacity:1; 
stroke-linecap:round; stroke-linejoin:round;">
<text x="90.5002" y="22.9616"
textLength="2.6222" font-size="1.6933" lengthAdjust="spacingAndGlyphs"
text-anchor="middle" opacity="0">13</text>
<g class="stroked-text"><desc>13</desc>
<path d="M90.2583 22.7981
L89.5326 22.7981
" />
<path d="M89.8954 22.7981
L89.8954 21.5281
" />
<path d="M89.8954 21.5281
L89.7745 21.7096
" />
<path d="M89.7745 21.7096
L89.6535 21.8305
" />
<path d="M89.6535 21.8305
L89.5326 21.8910
" />
<path d="M90.6816 21.5281
L91.4678 21.5281
" />
<path d="M91.4678 21.5281
L91.0444 22.0119
" />
<path d="M91.0444 22.0119
L91.2259 22.0119
" />
<path d="M91.2259 22.0119
L91.3468 22.0724
" />
<path d="M91.3468 22.0724
L91.4073 22.1329
" />
<path d="M91.4073 22.1329
L91.4678 22.2538
" />
<path d="M91.4678 22.2538
L91.4678 22.5562
" />
<path d="M91.4678 22.5562
L91.4073 22.6772
" />
<path d="M91.4073 22.6772
L91.3468 22.7377
" />
<path d="M91.3468 22.7377
L91.2259 22.7981
" />
<path d="M91.2259 22.7981
L90.8630 22.7981
" />
<path d="M90.8630 22.7981
L90.7421 22.7377
" />
<path d="M90.7421 22.7377
L90.6816 22.6772
" />
</g></g>
<g style="fill:#840000; fill-opacity:0.0; 
stroke:#840000; stroke-width:0.1524; stroke-opacity:1; 
stroke-linecap:round; stroke-linejoin:round;">
<path d="M89.2302 20.6756
L91.7702 20.6756
" />
</g>
<g style="fill:#006464; fill-opacity:0.0; 
stroke:#006464; stroke-width:0.1524; stroke-opacity:1; 
stroke-linecap:round; stroke-linejoin:round;">
<text x="88.7222" y="21.3106"
textLength="2.7432" font-size="1.6933" lengthAdjust="spacingAndGlyphs"
text-anchor="end" opacity="0">O5</text>
<g class="stroked-text"><desc>O5</desc>
<path d="M86.6262 19.9851
L86.8681 19.9851
" />
<path d="M86.8681 19.9851
L86.9891 20.0456
" />
<path d="M86.9891 20.0456
L87.1100 20.1666
" />
<path d="M87.1100 20.1666
L87.1705 20.4085
" />
<path d="M87.1705 20.4085
L87.1705 20.8318
" />
<path d="M87.1705 20.8318
L87.1100 21.0737
" />
<path d="M87.1100 21.0737
L86.9891 21.1947
" />
<path d="M86.9891 21.1947
L86.8681 21.2551
" />
<path d="M86.8681 21.2551
L86.6262 21.2551
" />
<path d="M86.6262 21.2551
L86.5053 21.1947
" />
<path d="M86.5053 21.1947
L86.3843 21.0737
" />
<path d="M86.3843 21.0737
L86.3239 20.8318
" />
<path d="M86.3239 20.8318
L86.3239 20.4085
" />
<path d="M86.3239 20.4085
L86.3843 20.1666
" />
<path d="M86.3843 20.1666
L86.5053 20.0456
" />
<path d="M86.5053 20.0456
L86.6262 19.9851
" />
<path d="M88.3196 19.9851
L87.7148 19.9851
" />
<path d="M87.7148 19.9851
L87.6544 20.5899
" />
<path d="M87.6544 20.5899
L87.7148 20.5294
" />
<path d="M87.7148 20.5294
L87.8358 20.4689
" />
<path d="M87.8358 20.4689
L88.1382 20.4689
" />
<path d="M88.1382 20.4689
L88.2591 20.5294
" />
<path d="M88.2591 20.5294
L88.3196 20.5899
" />
<path d="M88.3196 20.5899
L88.3801 20.7108
" />
<path d="M88.3801 20.7108
L88.3801 21.0132
" />
<path d="M88.3801 21.0132
L88.3196 21.1342
" />
<path d="M88.3196 21.1342
L88.2591 21.1947
" />
<path d="M88.2591 21.1947
L88.1382 21.2551
" />
<path d="M88.1382 21.2551
L87.8358 21.2551
" />
<path d="M87.8358 21.2551
L87.7148 21.1947
" />
<path d="M87.7148 21.1947
L87.6544 21.1342
" />
</g></g>
<g style="fill:#A90000; fill-opacity:0.0; 
stroke:#A90000; stroke-width:0.1524; stroke-opacity:1; 
stroke-linecap:round; stroke-linejoin:round;">
<text x="90.5002" y="20.4216"
textLength="2.6222" font-size="1.6933" lengthAdjust="spacingAndGlyphs"
text-anchor="middle" opacity="0">14</text>
<g class="stroked-text"><desc>14</desc>
<path d="M90.2583 20.2581
L89.5326 20.2581
" />
<path d="M89.8954 20.2581
L89.8954 18.9881
" />
<path d="M89.8954 18.9881
L89.7745 19.1696
" />
<path d="M89.7745 19.1696
L89.6535 19.2905
" />
<path d="M89.6535 19.2905
L89.5326 19.3510
" />
<path d="M91.3468 19.4115
L91.3468 20.2581
" />
<path d="M91.0444 18.9277
L90.7421 19.8348
" />
<path d="M90.7421 19.8348
L91.5282 19.8348
" />
</g></g>
<g style="fill:#840000; fill-opacity:0.0; 
stroke:#840000; stroke-width:0.1524; stroke-opacity:1; 
stroke-linecap:round; stroke-linejoin:round;">
<path d="M89.2302 18.1356
L91.7702 18.1356
" />
</g>
<g style="fill:#006464; fill-opacity:0.0; 
stroke:#006464; stroke-width:0.1524; stroke-opacity:1; 
stroke-linecap:round; stroke-linejoin:round;">
<text x="88.7222" y="18.7706"
textLength="2.7432" font-size="1.6933" lengthAdjust="spacingAndGlyphs"
text-anchor="end" opacity="0">O4</text>
<g class="stroked-text"><desc>O4</desc>
<path d="M86.6262 17.4451
L86.8681 17.4451
" />
<path d="M86.8681 17.4451
L86.9891 17.5056
" />
<path d="M86.9891 17.5056
L87.1100 17.6266
" />
<path d="M87.1100 17.6266
L87.1705 17.8685
" />
<path d="M87.1705 17.8685
L87.1705 18.2918
" />
<path d="M87.1705 18.2918
L87.1100 18.5337
" />
<path d="M87.1100 18.5337
L86.9891 18.6547
" />
<path d="M86.9891 18.6547
L86.8681 18.7151
" />
<path d="M86.8681 18.7151
L86.6262 18.7151
" />
<path d="M86.6262 18.7151
L86.5053 18.6547
" />
<path d="M86.5053 18.6547
L86.3843 18.5337
" />
<path d="M86.3843 18.5337
L86.3239 18.2918
" />
<path d="M86.3239 18.2918
L86.3239 17.8685
" />
<path d="M86.3239 17.8685
L86.3843 17.6266
" />
<path d="M86.3843 17.6266
L86.5053 17.5056
" />
<path d="M86.5053 17.5056
L86.6262 17.4451
" />
<path d="M88.2591 17.8685
L88.2591 18.7151
" />
<path d="M87.9567 17.3847
L87.6544 18.2918
" />
<path d="M87.6544 18.2918
L88.4405 18.2918
" />
</g></g>
<g style="fill:#A90000; fill-opacity:0.0; 
stroke:#A90000; stroke-width:0.1524; stroke-opacity:1; 
stroke-linecap:round; stroke-linejoin:round;">
<text x="90.5002" y="17.8816"
textLength="2.6222" font-size="1.6933" lengthAdjust="spacingAndGlyphs"
text-anchor="middle" opacity="0">15</text>
<g class="stroked-text"><desc>15</desc>
<path d="M90.2583 17.7181
L89.5326 17.7181
" />
<path d="M89.8954 17.7181
L89.8954 16.4481
" />
<path d="M89.8954 16.4481
L89.7745 16.6296
" />
<path d="M89.7745 16.6296
L89.6535 16.7505
" />
<path d="M89.6535 16.7505
L89.5326 16.8110
" />
<path d="M91.4073 16.4481
L90.8025 16.4481
" />
<path d="M90.8025 16.4481
L90.7421 17.0529
" />
<path d="M90.7421 17.0529
L90.8025 16.9924
" />
<path d="M90.8025 16.9924
L90.9235 16.9319
" />
<path d="M90.9235 16.9319
L91.2259 16.9319
" />
<path d="M91.2259 16.9319
L91.3468 16.9924
" />
<path d="M91.3468 16.9924
L91.4073 17.0529
" />
<path d="M91.4073 17.0529
L91.4678 17.1738
" />
<path d="M91.4678 17.1738
L91.4678 17.4762
" />
<path d="M91.4678 17.4762
L91.4073 17.5972
" />
<path d="M91.4073 17.5972
L91.3468 17.6577
" />
<path d="M91.3468 17.6577
L91.2259 17.7181
" />
<path d="M91.2259 17.7181
L90.9235 17.7181
" />
<path d="M90.9235 17.7181
L90.8025 17.6577
" />
<path d="M90.8025 17.6577
L90.7421 17.5972
" />
</g></g>
<g style="fill:#840000; fill-opacity:0.0; 
stroke:#840000; stroke-width:0.1524; stroke-opacity:1; 
stroke-linecap:round; stroke-linejoin:round;">
<path d="M89.2302 15.5956
L91.7702 15.5956
" />
</g>
<g style="fill:#006464; fill-opacity:0.0; 
stroke:#006464; stroke-width:0.1524; stroke-opacity:1; 
stroke-linecap:round; stroke-linejoin:round;">
<text x="88.7222" y="16.2306"
textLength="2.7432" font-size="1.6933" lengthAdjust="spacingAndGlyphs"
text-anchor="end" opacity="0">O3</text>
<g class="stroked-text"><desc>O3</desc>
<path d="M86.6262 14.9051
L86.8681 14.9051
" />
<path d="M86.8681 14.9051
L86.9891 14.9656
" />
<path d="M86.9891 14.9656
L87.1100 15.0866
" />
<path d="M87.1100 15.0866
L87.1705 15.3285
" />
<path d="M87.1705 15.3285
L87.1705 15.7518
" />
<path d="M87.1705 15.7518
L87.1100 15.9937
" />
<path d="M87.1100 15.9937
L86.9891 16.1147
" />
<path d="M86.9891 16.1147
L86.8681 16.1751
" />
<path d="M86.8681 16.1751
L86.6262 16.1751
" />
<path d="M86.6262 16.1751
L86.5053 16.1147
" />
<path d="M86.5053 16.1147
L86.3843 15.9937
" />
<path d="M86.3843 15.9937
L86.3239 15.7518
" />
<path d="M86.3239 15.7518
L86.3239 15.3285
" />
<path d="M86.3239 15.3285
L86.3843 15.0866
" />
<path d="M86.3843 15.0866
L86.5053 14.9656
" />
<path d="M86.5053 14.9656
L86.6262 14.9051
" />
<path d="M87.5939 14.9051
L88.3801 14.9051
" />
<path d="M88.3801 14.9051
L87.9567 15.3889
" />
<path d="M87.9567 15.3889
L88.1382 15.3889
" />
<path d="M88.1382 15.3889
L88.2591 15.4494
" />
<path d="M88.2591 15.4494
L88.3196 15.5099
" />
<path d="M88.3196 15.5099
L88.3801 15.6308
" />
<path d="M88.3801 15.6308
L88.3801 15.9332
" />
<path d="M88.3801 15.9332
L88.3196 16.0542
" />
<path d="M88.3196 16.0542
L88.2591 16.1147
" />
<path d="M88.2591 16.1147
L88.1382 16.1751
" />
<path d="M88.1382 16.1751
L87.7753 16.1751
" />
<path d="M87.7753 16.1751
L87.6544 16.1147
" />
<path d="M87.6544 16.1147
L87.5939 16.0542
" />
</g></g>
<g style="fill:#A90000; fill-opacity:0.0; 
stroke:#A90000; stroke-width:0.1524; stroke-opacity:1; 
stroke-linecap:round; stroke-linejoin:round;">
<text x="90.5002" y="15.3416"
textLength="2.6222" font-size="1.6933" lengthAdjust="spacingAndGlyphs"
text-anchor="middle" opacity="0">16</text>
<g class="stroked-text"><desc>16</desc>
<path d="M90.2583 15.1781
L89.5326 15.1781
" />
<path d="M89.8954 15.1781
L89.8954 13.9081
" />
<path d="M89.8954 13.9081
L89.7745 14.0896
" />
<path d="M89.7745 14.0896
L89.6535 14.2105
" />
<path d="M89.6535 14.2105
L89.5326 14.2710
" />
<path d="M91.3468 13.9081
L91.1049 13.9081
" />
<path d="M91.1049 13.9081
L90.9840 13.9686
" />
<path d="M90.9840 13.9686
L90.9235 14.0291
" />
<path d="M90.9235 14.0291
L90.8025 14.2105
" />
<path d="M90.8025 14.2105
L90.7421 14.4524
" />
<path d="M90.7421 14.4524
L90.7421 14.9362
" />
<path d="M90.7421 14.9362
L90.8025 15.0572
" />
<path d="M90.8025 15.0572
L90.8630 15.1177
" />
<path d="M90.8630 15.1177
L90.9840 15.1781
" />
<path d="M90.9840 15.1781
L91.2259 15.1781
" />
<path d="M91.2259 15.1781
L91.3468 15.1177
" />
<path d="M91.3468 15.1177
L91.4073 15.0572
" />
<path d="M91.4073 15.0572
L91.4678 14.9362
" />
<path d="M91.4678 14.9362
L91.4678 14.6338
" />
<path d="M91.4678 14.6338
L91.4073 14.5129
" />
<path d="M91.4073 14.5129
L91.3468 14.4524
" />
<path d="M91.3468 14.4524
L91.2259 14.3919
" />
<path d="M91.2259 14.3919
L90.9840 14.3919
" />
<path d="M90.9840 14.3919
L90.8630 14.4524
" />
<path d="M90.8630 14.4524
L90.8025 14.5129
" />
<path d="M90.8025 14.5129
L90.7421 14.6338
" />
</g></g>
<g style="fill:#840000; fill-opacity:0.0; 
stroke:#840000; stroke-width:0.1524; stroke-opacity:1; 
stroke-linecap:round; stroke-linejoin:round;">
<path d="M89.2302 13.0556
L91.7702 13.0556
" />
</g>
<g style="fill:#006464; fill-opacity:0.0; 
stroke:#006464; stroke-width:0.1524; stroke-opacity:1; 
stroke-linecap:round; stroke-linejoin:round;">
<text x="88.7222" y="13.6906"
textLength="2.7432" font-size="1.6933" lengthAdjust="spacingAndGlyphs"
text-anchor="end" opacity="0">O2</text>
<g class="stroked-text"><desc>O2</desc>
<path d="M86.6262 12.3651
L86.8681 12.3651
" />
<path d="M86.8681 12.3651
L86.9891 12.4256
" />
<path d="M86.9891 12.4256
L87.1100 12.5466
" />
<path d="M87.1100 12.5466
L87.1705 12.7885
" />
<path d="M87.1705 12.7885
L87.1705 13.2118
" />
<path d="M87.1705 13.2118
L87.1100 13.4537
" />
<path d="M87.1100 13.4537
L86.9891 13.5747
" />
<path d="M86.9891 13.5747
L86.8681 13.6351
" />
<path d="M86.8681 13.6351
L86.6262 13.6351
" />
<path d="M86.6262 13.6351
L86.5053 13.5747
" />
<path d="M86.5053 13.5747
L86.3843 13.4537
" />
<path d="M86.3843 13.4537
L86.3239 13.2118
" />
<path d="M86.3239 13.2118
L86.3239 12.7885
" />
<path d="M86.3239 12.7885
L86.3843 12.5466
" />
<path d="M86.3843 12.5466
L86.5053 12.4256
" />
<path d="M86.5053 12.4256
L86.6262 12.3651
" />
<path d="M87.6544 12.4861
L87.7148 12.4256
" />
<path d="M87.7148 12.4256
L87.8358 12.3651
" />
<path d="M87.8358 12.3651
L88.1382 12.3651
" />
<path d="M88.1382 12.3651
L88.2591 12.4256
" />
<path d="M88.2591 12.4256
L88.3196 12.4861
" />
<path d="M88.3196 12.4861
L88.3801 12.6070
" />
<path d="M88.3801 12.6070
L88.3801 12.7280
" />
<path d="M88.3801 12.7280
L88.3196 12.9094
" />
<path d="M88.3196 12.9094
L87.5939 13.6351
" />
<path d="M87.5939 13.6351
L88.3801 13.6351
" />
</g></g>
<g style="fill:#A90000; fill-opacity:0.0; 
stroke:#A90000; stroke-width:0.1524; stroke-opacity:1; 
stroke-linecap:round; stroke-linejoin:round;">
<text x="90.5002" y="12.8016"
textLength="2.6222" font-size="1.6933" lengthAdjust="spacingAndGlyphs"
text-anchor="middle" opacity="0">17</text>
<g class="stroked-text"><desc>17</desc>
<path d="M90.2583 12.6381
L89.5326 12.6381
" />
<path d="M89.8954 12.6381
L89.8954 11.3681
" />
<path d="M89.8954 11.3681
L89.7745 11.5496
" />
<path d="M89.7745 11.5496
L89.6535 11.6705
" />
<path d="M89.6535 11.6705
L89.5326 11.7310
" />
<path d="M90.6816 11.3681
L91.5282 11.3681
" />
<path d="M91.5282 11.3681
L90.9840 12.6381
" />
</g></g>
<g style="fill:#840000; fill-opacity:0.0; 
stroke:#840000; stroke-width:0.1524; stroke-opacity:1; 
stroke-linecap:round; stroke-linejoin:round;">
<path d="M89.2302 10.5156
L91.7702 10.5156
" />
</g>
<g style="fill:#006464; fill-opacity:0.0; 
stroke:#006464; stroke-width:0.1524; stroke-opacity:1; 
stroke-linecap:round; stroke-linejoin:round;">
<text x="88.7222" y="11.1506"
textLength="2.7432" font-size="1.6933" lengthAdjust="spacingAndGlyphs"
text-anchor="end" opacity="0">O1</text>
<g class="stroked-text"><desc>O1</desc>
<path d="M86.6262 9.8251
L86.8681 9.8251
" />
<path d="M86.8681 9.8251
L86.9891 9.8856
" />
<path d="M86.9891 9.8856
L87.1100 10.0066
" />
<path d="M87.1100 10.0066
L87.1705 10.2485
" />
<path d="M87.1705 10.2485
L87.1705 10.6718
" />
<path d="M87.1705 10.6718
L87.1100 10.9137
" />
<path d="M87.1100 10.9137
L86.9891 11.0347
" />
<path d="M86.9891 11.0347
L86.8681 11.0951
" />
<path d="M86.8681 11.0951
L86.6262 11.0951
" />
<path d="M86.6262 11.0951
L86.5053 11.0347
" />
<path d="M86.5053 11.0347
L86.3843 10.9137
" />
<path d="M86.3843 10.9137
L86.3239 10.6718
" />
<path d="M86.3239 10.6718
L86.3239 10.2485
" />
<path d="M86.3239 10.2485
L86.3843 10.0066
" />
<path d="M86.3843 10.0066
L86.5053 9.8856
" />
<path d="M86.5053 9.8856
L86.6262 9.8251
" />
<path d="M88.3801 11.0951
L87.6544 11.0951
" />
<path d="M88.0172 11.0951
L88.0172 9.8251
" />
<path d="M88.0172 9.8251
L87.8963 10.0066
" />
<path d="M87.8963 10.0066
L87.7753 10.1275
" />
<path d="M87.7753 10.1275
L87.6544 10.1880
" />
</g></g>
<g style="fill:#A90000; fill-opacity:0.0; 
stroke:#A90000; stroke-width:0.1524; stroke-opacity:1; 
stroke-linecap:round; stroke-linejoin:round;">
<text x="90.5002" y="10.2616"
textLength="2.6222" font-size="1.6933" lengthAdjust="spacingAndGlyphs"
text-anchor="middle" opacity="0">18</text>
<g class="stroked-text"><desc>18</desc>
<path d="M90.2583 10.0981
L89.5326 10.0981
" />
<path d="M89.8954 10.0981
L89.8954 8.8281
" />
<path d="M89.8954 8.8281
L89.7745 9.0096
" />
<path d="M89.7745 9.0096
L89.6535 9.1305
" />
<path d="M89.6535 9.1305
L89.5326 9.1910
" />
<path d="M90.9840 9.3724
L90.8630 9.3119
" />
<path d="M90.8630 9.3119
L90.8025 9.2515
" />
<path d="M90.8025 9.2515
L90.7421 9.1305
" />
<path d="M90.7421 9.1305
L90.7421 9.0700
" />
<path d="M90.7421 9.0700
L90.8025 8.9491
" />
<path d="M90.8025 8.9491
L90.8630 8.8886
" />
<path d="M90.8630 8.8886
L90.9840 8.8281
" />
<path d="M90.9840 8.8281
L91.2259 8.8281
" />
<path d="M91.2259 8.8281
L91.3468 8.8886
" />
<path d="M91.3468 8.8886
L91.4073 8.9491
" />
<path d="M91.4073 8.9491
L91.4678 9.0700
" />
<path d="M91.4678 9.0700
L91.4678 9.1305
" />
<path d="M91.4678 9.1305
L91.4073 9.2515
" />
<path d="M91.4073 9.2515
L91.3468 9.3119
" />
<path d="M91.3468 9.3119
L91.2259 9.3724
" />
<path d="M91.2259 9.3724
L90.9840 9.3724
" />
<path d="M90.9840 9.3724
L90.8630 9.4329
" />
<path d="M90.8630 9.4329
L90.8025 9.4934
" />
<path d="M90.8025 9.4934
L90.7421 9.6143
" />
<path d="M90.7421 9.6143
L90.7421 9.8562
" />
<path d="M90.7421 9.8562
L90.8025 9.9772
" />
<path d="M90.8025 9.9772
L90.8630 10.0377
" />
<path d="M90.8630 10.0377
L90.9840 10.0981
" />
<path d="M90.9840 10.0981
L91.2259 10.0981
" />
<path d="M91.2259 10.0981
L91.3468 10.0377
" />
<path d="M91.3468 10.0377
L91.4073 9.9772
" />
<path d="M91.4073 9.9772
L91.4678 9.8562
" />
<path d="M91.4678 9.8562
L91.4678 9.6143
" />
<path d="M91.4678 9.6143
L91.4073 9.4934
" />
<path d="M91.4073 9.4934
L91.3468 9.4329
" />
<path d="M91.3468 9.4329
L91.2259 9.3724
" />
</g></g>
<g style="fill:#840000; fill-opacity:0.0; 
stroke:#840000; stroke-width:0.1524; stroke-opacity:1; 
stroke-linecap:round; stroke-linejoin:round;">
<path d="M73.9902 13.0556
L71.4502 13.0556
" />
</g>
<g style="fill:#006464; fill-opacity:0.0; 
stroke:#006464; stroke-width:0.1524; stroke-opacity:1; 
stroke-linecap:round; stroke-linejoin:round;">
<text x="74.4982" y="13.6906"
textLength="2.0175" font-size="1.6933" lengthAdjust="spacingAndGlyphs"
text-anchor="start" opacity="0">I2</text>
<g class="stroked-text"><desc>I2</desc>
<path d="M74.9007 13.6351
L74.9007 12.3651
" />
<path d="M75.4451 12.4861
L75.5055 12.4256
" />
<path d="M75.5055 12.4256
L75.6265 12.3651
" />
<path d="M75.6265 12.3651
L75.9289 12.3651
" />
<path d="M75.9289 12.3651
L76.0498 12.4256
" />
<path d="M76.0498 12.4256
L76.1103 12.4861
" />
<path d="M76.1103 12.4861
L76.1708 12.6070
" />
<path d="M76.1708 12.6070
L76.1708 12.7280
" />
<path d="M76.1708 12.7280
L76.1103 12.9094
" />
<path d="M76.1103 12.9094
L75.3846 13.6351
" />
<path d="M75.3846 13.6351
L76.1708 13.6351
" />
</g></g>
<g style="fill:#A90000; fill-opacity:0.0; 
stroke:#A90000; stroke-width:0.1524; stroke-opacity:1; 
stroke-linecap:round; stroke-linejoin:round;">
<text x="72.7202" y="12.8016"
textLength="1.4127" font-size="1.6933" lengthAdjust="spacingAndGlyphs"
text-anchor="middle" opacity="0">2</text>
<g class="stroked-text"><desc>2</desc>
<path d="M72.3574 11.4891
L72.4178 11.4286
" />
<path d="M72.4178 11.4286
L72.5388 11.3681
" />
<path d="M72.5388 11.3681
L72.8412 11.3681
" />
<path d="M72.8412 11.3681
L72.9621 11.4286
" />
<path d="M72.9621 11.4286
L73.0226 11.4891
" />
<path d="M73.0226 11.4891
L73.0831 11.6100
" />
<path d="M73.0831 11.6100
L73.0831 11.7310
" />
<path d="M73.0831 11.7310
L73.0226 11.9124
" />
<path d="M73.0226 11.9124
L72.2969 12.6381
" />
<path d="M72.2969 12.6381
L73.0831 12.6381
" />
</g></g>
<g style="fill:#840000; fill-opacity:0.0; 
stroke:#840000; stroke-width:0.1524; stroke-opacity:1; 
stroke-linecap:round; stroke-linejoin:round;">
<path d="M73.9902 15.5956
L71.4502 15.5956
" />
</g>
<g style="fill:#006464; fill-opacity:0.0; 
stroke:#006464; stroke-width:0.1524; stroke-opacity:1; 
stroke-linecap:round; stroke-linejoin:round;">
<text x="74.4982" y="16.2306"
textLength="2.0175" font-size="1.6933" lengthAdjust="spacingAndGlyphs"
text-anchor="start" opacity="0">I3</text>
<g class="stroked-text"><desc>I3</desc>
<path d="M74.9007 16.1751
L74.9007 14.9051
" />
<path d="M75.3846 14.9051
L76.1708 14.9051
" />
<path d="M76.1708 14.9051
L75.7474 15.3889
" />
<path d="M75.7474 15.3889
L75.9289 15.3889
" />
<path d="M75.9289 15.3889
L76.0498 15.4494
" />
<path d="M76.0498 15.4494
L76.1103 15.5099
" />
<path d="M76.1103 15.5099
L76.1708 15.6308
" />
<path d="M76.1708 15.6308
L76.1708 15.9332
" />
<path d="M76.1708 15.9332
L76.1103 16.0542
" />
<path d="M76.1103 16.0542
L76.0498 16.1147
" />
<path d="M76.0498 16.1147
L75.9289 16.1751
" />
<path d="M75.9289 16.1751
L75.5660 16.1751
" />
<path d="M75.5660 16.1751
L75.4451 16.1147
" />
<path d="M75.4451 16.1147
L75.3846 16.0542
" />
</g></g>
<g style="fill:#A90000; fill-opacity:0.0; 
stroke:#A90000; stroke-width:0.1524; stroke-opacity:1; 
stroke-linecap:round; stroke-linejoin:round;">
<text x="72.7202" y="15.3416"
textLength="1.4127" font-size="1.6933" lengthAdjust="spacingAndGlyphs"
text-anchor="middle" opacity="0">3</text>
<g class="stroked-text"><desc>3</desc>
<path d="M72.2969 13.9081
L73.0831 13.9081
" />
<path d="M73.0831 13.9081
L72.6597 14.3919
" />
<path d="M72.6597 14.3919
L72.8412 14.3919
" />
<path d="M72.8412 14.3919
L72.9621 14.4524
" />
<path d="M72.9621 14.4524
L73.0226 14.5129
" />
<path d="M73.0226 14.5129
L73.0831 14.6338
" />
<path d="M73.0831 14.6338
L73.0831 14.9362
" />
<path d="M73.0831 14.9362
L73.0226 15.0572
" />
<path d="M73.0226 15.0572
L72.9621 15.1177
" />
<path d="M72.9621 15.1177
L72.8412 15.1781
" />
<path d="M72.8412 15.1781
L72.4783 15.1781
" />
<path d="M72.4783 15.1781
L72.3574 15.1177
" />
<path d="M72.3574 15.1177
L72.2969 15.0572
" />
</g></g>
<g style="fill:#840000; fill-opacity:0.0; 
stroke:#840000; stroke-width:0.1524; stroke-opacity:1; 
stroke-linecap:round; stroke-linejoin:round;">
<path d="M73.9902 18.1356
L71.4502 18.1356
" />
</g>
<g style="fill:#006464; fill-opacity:0.0; 
stroke:#006464; stroke-width:0.1524; stroke-opacity:1; 
stroke-linecap:round; stroke-linejoin:round;">
<text x="74.4982" y="18.7706"
textLength="2.0175" font-size="1.6933" lengthAdjust="spacingAndGlyphs"
text-anchor="start" opacity="0">I4</text>
<g class="stroked-text"><desc>I4</desc>
<path d="M74.9007 18.7151
L74.9007 17.4451
" />
<path d="M76.0498 17.8685
L76.0498 18.7151
" />
<path d="M75.7474 17.3847
L75.4451 18.2918
" />
<path d="M75.4451 18.2918
L76.2312 18.2918
" />
</g></g>
<g style="fill:#A90000; fill-opacity:0.0; 
stroke:#A90000; stroke-width:0.1524; stroke-opacity:1; 
stroke-linecap:round; stroke-linejoin:round;">
<text x="72.7202" y="17.8816"
textLength="1.4127" font-size="1.6933" lengthAdjust="spacingAndGlyphs"
text-anchor="middle" opacity="0">4</text>
<g class="stroked-text"><desc>4</desc>
<path d="M72.9621 16.8715
L72.9621 17.7181
" />
<path d="M72.6597 16.3877
L72.3574 17.2948
" />
<path d="M72.3574 17.2948
L73.1435 17.2948
" />
</g></g>
<g style="fill:#840000; fill-opacity:0.0; 
stroke:#840000; stroke-width:0.1524; stroke-opacity:1; 
stroke-linecap:round; stroke-linejoin:round;">
<path d="M73.9902 20.6756
L71.4502 20.6756
" />
</g>
<g style="fill:#006464; fill-opacity:0.0; 
stroke:#006464; stroke-width:0.1524; stroke-opacity:1; 
stroke-linecap:round; stroke-linejoin:round;">
<text x="74.4982" y="21.3106"
textLength="2.0175" font-size="1.6933" lengthAdjust="spacingAndGlyphs"
text-anchor="start" opacity="0">I5</text>
<g class="stroked-text"><desc>I5</desc>
<path d="M74.9007 21.2551
L74.9007 19.9851
" />
<path d="M76.1103 19.9851
L75.5055 19.9851
" />
<path d="M75.5055 19.9851
L75.4451 20.5899
" />
<path d="M75.4451 20.5899
L75.5055 20.5294
" />
<path d="M75.5055 20.5294
L75.6265 20.4689
" />
<path d="M75.6265 20.4689
L75.9289 20.4689
" />
<path d="M75.9289 20.4689
L76.0498 20.5294
" />
<path d="M76.0498 20.5294
L76.1103 20.5899
" />
<path d="M76.1103 20.5899
L76.1708 20.7108
" />
<path d="M76.1708 20.7108
L76.1708 21.0132
" />
<path d="M76.1708 21.0132
L76.1103 21.1342
" />
<path d="M76.1103 21.1342
L76.0498 21.1947
" />
<path d="M76.0498 21.1947
L75.9289 21.2551
" />
<path d="M75.9289 21.2551
L75.6265 21.2551
" />
<path d="M75.6265 21.2551
L75.5055 21.1947
" />
<path d="M75.5055 21.1947
L75.4451 21.1342
" />
</g></g>
<g style="fill:#A90000; fill-opacity:0.0; 
stroke:#A90000; stroke-width:0.1524; stroke-opacity:1; 
stroke-linecap:round; stroke-linejoin:round;">
<text x="72.7202" y="20.4216"
textLength="1.4127" font-size="1.6933" lengthAdjust="spacingAndGlyphs"
text-anchor="middle" opacity="0">5</text>
<g class="stroked-text"><desc>5</desc>
<path d="M73.0226 18.9881
L72.4178 18.9881
" />
<path d="M72.4178 18.9881
L72.3574 19.5929
" />
<path d="M72.3574 19.5929
L72.4178 19.5324
" />
<path d="M72.4178 19.5324
L72.5388 19.4719
" />
<path d="M72.5388 19.4719
L72.8412 19.4719
" />
<path d="M72.8412 19.4719
L72.9621 19.5324
" />
<path d="M72.9621 19.5324
L73.0226 19.5929
" />
<path d="M73.0226 19.5929
L73.0831 19.7138
" />
<path d="M73.0831 19.7138
L73.0831 20.0162
" />
<path d="M73.0831 20.0162
L73.0226 20.1372
" />
<path d="M73.0226 20.1372
L72.9621 20.1977
" />
<path d="M72.9621 20.1977
L72.8412 20.2581
" />
<path d="M72.8412 20.2581
L72.5388 20.2581
" />
<path d="M72.5388 20.2581
L72.4178 20.1977
" />
<path d="M72.4178 20.1977
L72.3574 20.1372
" />
</g></g>
<g style="fill:#840000; fill-opacity:0.0; 
stroke:#840000; stroke-width:0.1524; stroke-opacity:1; 
stroke-linecap:round; stroke-linejoin:round;">
<path d="M73.9902 23.2156
L71.4502 23.2156
" />
</g>
<g style="fill:#006464; fill-opacity:0.0; 
stroke:#006464; stroke-width:0.1524; stroke-opacity:1; 
stroke-linecap:round; stroke-linejoin:round;">
<text x="74.4982" y="23.8506"
textLength="2.0175" font-size="1.6933" lengthAdjust="spacingAndGlyphs"
text-anchor="start" opacity="0">I6</text>
<g class="stroked-text"><desc>I6</desc>
<path d="M74.9007 23.7951
L74.9007 22.5251
" />
<path d="M76.0498 22.5251
L75.8079 22.5251
" />
<path d="M75.8079 22.5251
L75.6870 22.5856
" />
<path d="M75.6870 22.5856
L75.6265 22.6461
" />
<path d="M75.6265 22.6461
L75.5055 22.8275
" />
<path d="M75.5055 22.8275
L75.4451 23.0694
" />
<path d="M75.4451 23.0694
L75.4451 23.5532
" />
<path d="M75.4451 23.5532
L75.5055 23.6742
" />
<path d="M75.5055 23.6742
L75.5660 23.7347
" />
<path d="M75.5660 23.7347
L75.6870 23.7951
" />
<path d="M75.6870 23.7951
L75.9289 23.7951
" />
<path d="M75.9289 23.7951
L76.0498 23.7347
" />
<path d="M76.0498 23.7347
L76.1103 23.6742
" />
<path d="M76.1103 23.6742
L76.1708 23.5532
" />
<path d="M76.1708 23.5532
L76.1708 23.2508
" />
<path d="M76.1708 23.2508
L76.1103 23.1299
" />
<path d="M76.1103 23.1299
L76.0498 23.0694
" />
<path d="M76.0498 23.0694
L75.9289 23.0089
" />
<path d="M75.9289 23.0089
L75.6870 23.0089
" />
<path d="M75.6870 23.0089
L75.5660 23.0694
" />
<path d="M75.5660 23.0694
L75.5055 23.1299
" />
<path d="M75.5055 23.1299
L75.4451 23.2508
" />
</g></g>
<g style="fill:#A90000; fill-opacity:0.0; 
stroke:#A90000; stroke-width:0.1524; stroke-opacity:1; 
stroke-linecap:round; stroke-linejoin:round;">
<text x="72.7202" y="22.9616"
textLength="1.4127" font-size="1.6933" lengthAdjust="spacingAndGlyphs"
text-anchor="middle" opacity="0">6</text>
<g class="stroked-text"><desc>6</desc>
<path d="M72.9621 21.5281
L72.7202 21.5281
" />
<path d="M72.7202 21.5281
L72.5993 21.5886
" />
<path d="M72.5993 21.5886
L72.5388 21.6491
" />
<path d="M72.5388 21.6491
L72.4178 21.8305
" />
<path d="M72.4178 21.8305
L72.3574 22.0724
" />
<path d="M72.3574 22.0724
L72.3574 22.5562
" />
<path d="M72.3574 22.5562
L72.4178 22.6772
" />
<path d="M72.4178 22.6772
L72.4783 22.7377
" />
<path d="M72.4783 22.7377
L72.5993 22.7981
" />
<path d="M72.5993 22.7981
L72.8412 22.7981
" />
<path d="M72.8412 22.7981
L72.9621 22.7377
" />
<path d="M72.9621 22.7377
L73.0226 22.6772
" />
<path d="M73.0226 22.6772
L73.0831 22.5562
" />
<path d="M73.0831 22.5562
L73.0831 22.2538
" />
<path d="M73.0831 22.2538
L73.0226 22.1329
" />
<path d="M73.0226 22.1329
L72.9621 22.0724
" />
<path d="M72.9621 22.0724
L72.8412 22.0119
" />
<path d="M72.8412 22.0119
L72.5993 22.0119
" />
<path d="M72.5993 22.0119
L72.4783 22.0724
" />
<path d="M72.4783 22.0724
L72.4178 22.1329
" />
<path d="M72.4178 22.1329
L72.3574 22.2538
" />
</g></g>
<g style="fill:#840000; fill-opacity:0.0; 
stroke:#840000; stroke-width:0.1524; stroke-opacity:1; 
stroke-linecap:round; stroke-linejoin:round;">
<path d="M73.9902 25.7556
L71.4502 25.7556
" />
</g>
<g style="fill:#006464; fill-opacity:0.0; 
stroke:#006464; stroke-width:0.1524; stroke-opacity:1; 
stroke-linecap:round; stroke-linejoin:round;">
<text x="74.4982" y="26.3906"
textLength="2.0175" font-size="1.6933" lengthAdjust="spacingAndGlyphs"
text-anchor="start" opacity="0">I7</text>
<g class="stroked-text"><desc>I7</desc>
<path d="M74.9007 26.3351
L74.9007 25.0651
" />
<path d="M75.3846 25.0651
L76.2312 25.0651
" />
<path d="M76.2312 25.0651
L75.6870 26.3351
" />
</g></g>
<g style="fill:#A90000; fill-opacity:0.0; 
stroke:#A90000; stroke-width:0.1524; stroke-opacity:1; 
stroke-linecap:round; stroke-linejoin:round;">
<text x="72.7202" y="25.5016"
textLength="1.4127" font-size="1.6933" lengthAdjust="spacingAndGlyphs"
text-anchor="middle" opacity="0">7</text>
<g class="stroked-text"><desc>7</desc>
<path d="M72.2969 24.0681
L73.1435 24.0681
" />
<path d="M73.1435 24.0681
L72.5993 25.3381
" />
</g></g>
<g style="fill:#840000; fill-opacity:0.0; 
stroke:#840000; stroke-width:0.1524; stroke-opacity:1; 
stroke-linecap:round; stroke-linejoin:round;">
<path d="M73.9902 28.2956
L71.4502 28.2956
" />
</g>
<g style="fill:#006464; fill-opacity:0.0; 
stroke:#006464; stroke-width:0.1524; stroke-opacity:1; 
stroke-linecap:round; stroke-linejoin:round;">
<text x="74.4982" y="28.9306"
textLength="2.0175" font-size="1.6933" lengthAdjust="spacingAndGlyphs"
text-anchor="start" opacity="0">I8</text>
<g class="stroked-text"><desc>I8</desc>
<path d="M74.9007 28.8751
L74.9007 27.6051
" />
<path d="M75.6870 28.1494
L75.5660 28.0889
" />
<path d="M75.5660 28.0889
L75.5055 28.0285
" />
<path d="M75.5055 28.0285
L75.4451 27.9075
" />
<path d="M75.4451 27.9075
L75.4451 27.8470
" />
<path d="M75.4451 27.8470
L75.5055 27.7261
" />
<path d="M75.5055 27.7261
L75.5660 27.6656
" />
<path d="M75.5660 27.6656
L75.6870 27.6051
" />
<path d="M75.6870 27.6051
L75.9289 27.6051
" />
<path d="M75.9289 27.6051
L76.0498 27.6656
" />
<path d="M76.0498 27.6656
L76.1103 27.7261
" />
<path d="M76.1103 27.7261
L76.1708 27.8470
" />
<path d="M76.1708 27.8470
L76.1708 27.9075
" />
<path d="M76.1708 27.9075
L76.1103 28.0285
" />
<path d="M76.1103 28.0285
L76.0498 28.0889
" />
<path d="M76.0498 28.0889
L75.9289 28.1494
" />
<path d="M75.9289 28.1494
L75.6870 28.1494
" />
<path d="M75.6870 28.1494
L75.5660 28.2099
" />
<path d="M75.5660 28.2099
L75.5055 28.2704
" />
<path d="M75.5055 28.2704
L75.4451 28.3913
" />
<path d="M75.4451 28.3913
L75.4451 28.6332
" />
<path d="M75.4451 28.6332
L75.5055 28.7542
" />
<path d="M75.5055 28.7542
L75.5660 28.8147
" />
<path d="M75.5660 28.8147
L75.6870 28.8751
" />
<path d="M75.6870 28.8751
L75.9289 28.8751
" />
<path d="M75.9289 28.8751
L76.0498 28.8147
" />
<path d="M76.0498 28.8147
L76.1103 28.7542
" />
<path d="M76.1103 28.7542
L76.1708 28.6332
" />
<path d="M76.1708 28.6332
L76.1708 28.3913
" />
<path d="M76.1708 28.3913
L76.1103 28.2704
" />
<path d="M76.1103 28.2704
L76.0498 28.2099
" />
<path d="M76.0498 28.2099
L75.9289 28.1494
" />
</g></g>
<g style="fill:#A90000; fill-opacity:0.0; 
stroke:#A90000; stroke-width:0.1524; stroke-opacity:1; 
stroke-linecap:round; stroke-linejoin:round;">
<text x="72.7202" y="28.0416"
textLength="1.4127" font-size="1.6933" lengthAdjust="spacingAndGlyphs"
text-anchor="middle" opacity="0">8</text>
<g class="stroked-text"><desc>8</desc>
<path d="M72.5993 27.1524
L72.4783 27.0919
" />
<path d="M72.4783 27.0919
L72.4178 27.0315
" />
<path d="M72.4178 27.0315
L72.3574 26.9105
" />
<path d="M72.3574 26.9105
L72.3574 26.8500
" />
<path d="M72.3574 26.8500
L72.4178 26.7291
" />
<path d="M72.4178 26.7291
L72.4783 26.6686
" />
<path d="M72.4783 26.6686
L72.5993 26.6081
" />
<path d="M72.5993 26.6081
L72.8412 26.6081
" />
<path d="M72.8412 26.6081
L72.9621 26.6686
" />
<path d="M72.9621 26.6686
L73.0226 26.7291
" />
<path d="M73.0226 26.7291
L73.0831 26.8500
" />
<path d="M73.0831 26.8500
L73.0831 26.9105
" />
<path d="M73.0831 26.9105
L73.0226 27.0315
" />
<path d="M73.0226 27.0315
L72.9621 27.0919
" />
<path d="M72.9621 27.0919
L72.8412 27.1524
" />
<path d="M72.8412 27.1524
L72.5993 27.1524
" />
<path d="M72.5993 27.1524
L72.4783 27.2129
" />
<path d="M72.4783 27.2129
L72.4178 27.2734
" />
<path d="M72.4178 27.2734
L72.3574 27.3943
" />
<path d="M72.3574 27.3943
L72.3574 27.6362
" />
<path d="M72.3574 27.6362
L72.4178 27.7572
" />
<path d="M72.4178 27.7572
L72.4783 27.8177
" />
<path d="M72.4783 27.8177
L72.5993 27.8781
" />
<path d="M72.5993 27.8781
L72.8412 27.8781
" />
<path d="M72.8412 27.8781
L72.9621 27.8177
" />
<path d="M72.9621 27.8177
L73.0226 27.7572
" />
<path d="M73.0226 27.7572
L73.0831 27.6362
" />
<path d="M73.0831 27.6362
L73.0831 27.3943
" />
<path d="M73.0831 27.3943
L73.0226 27.2734
" />
<path d="M73.0226 27.2734
L72.9621 27.2129
" />
<path d="M72.9621 27.2129
L72.8412 27.1524
" />
</g></g>
<g style="fill:#840000; fill-opacity:0.0; 
stroke:#840000; stroke-width:0.1524; stroke-opacity:1; 
stroke-linecap:round; stroke-linejoin:round;">
<path d="M81.6102 7.9756
L81.6102 5.4356
" />
</g>
<g style="fill:#006464; fill-opacity:0.0; 
stroke:#006464; stroke-width:0.1524; stroke-opacity:1; 
stroke-linecap:round; stroke-linejoin:round;">
<g transform="rotate(-90.000000 81.6102 8.4836)">
<text x="81.6102" y="9.1186"
textLength="3.8318" font-size="1.6933" lengthAdjust="spacingAndGlyphs"
text-anchor="end" opacity="0">VCC</text>
</g>
<g class="stroked-text"><desc>VCC</desc>
<path d="M80.9197 12.0914
L82.1897 11.6681
" />
<path d="M82.1897 11.6681
L80.9197 11.2447
" />
<path d="M82.0688 10.0957
L82.1293 10.1561
" />
<path d="M82.1293 10.1561
L82.1897 10.3376
" />
<path d="M82.1897 10.3376
L82.1897 10.4585
" />
<path d="M82.1897 10.4585
L82.1293 10.6399
" />
<path d="M82.1293 10.6399
L82.0083 10.7609
" />
<path d="M82.0083 10.7609
L81.8873 10.8214
" />
<path d="M81.8873 10.8214
L81.6454 10.8818
" />
<path d="M81.6454 10.8818
L81.4640 10.8818
" />
<path d="M81.4640 10.8818
L81.2221 10.8214
" />
<path d="M81.2221 10.8214
L81.1012 10.7609
" />
<path d="M81.1012 10.7609
L80.9802 10.6399
" />
<path d="M80.9802 10.6399
L80.9197 10.4585
" />
<path d="M80.9197 10.4585
L80.9197 10.3376
" />
<path d="M80.9197 10.3376
L80.9802 10.1561
" />
<path d="M80.9802 10.1561
L81.0407 10.0957
" />
<path d="M82.0688 8.8257
L82.1293 8.8861
" />
<path d="M82.1293 8.8861
L82.1897 9.0676
" />
<path d="M82.1897 9.0676
L82.1897 9.1885
" />
<path d="M82.1897 9.1885
L82.1293 9.3699
" />
<path d="M82.1293 9.3699
L82.0083 9.4909
" />
<path d="M82.0083 9.4909
L81.8873 9.5514
" />
<path d="M81.8873 9.5514
L81.6454 9.6118
" />
<path d="M81.6454 9.6118
L81.4640 9.6118
" />
<path d="M81.4640 9.6118
L81.2221 9.5514
" />
<path d="M81.2221 9.5514
L81.1012 9.4909
" />
<path d="M81.1012 9.4909
L80.9802 9.3699
" />
<path d="M80.9802 9.3699
L80.9197 9.1885
" />
<path d="M80.9197 9.1885
L80.9197 9.0676
" />
<path d="M80.9197 9.0676
L80.9802 8.8861
" />
<path d="M80.9802 8.8861
L81.0407 8.8257
" />
</g></g>
<g style="fill:#A90000; fill-opacity:0.0; 
stroke:#A90000; stroke-width:0.1524; stroke-opacity:1; 
stroke-linecap:round; stroke-linejoin:round;">
<g transform="rotate(-90.000000 81.3562 6.7056)">
<text x="81.3562" y="6.7056"
textLength="1.4127" font-size="1.6933" lengthAdjust="spacingAndGlyphs"
text-anchor="middle" opacity="0">9</text>
</g>
<g class="stroked-text"><desc>9</desc>
<path d="M81.1927 6.9474
L81.1927 6.7055
" />
<path d="M81.1927 6.7055
L81.1323 6.5845
" />
<path d="M81.1323 6.5845
L81.0718 6.5241
" />
<path d="M81.0718 6.5241
L80.8903 6.4031
" />
<path d="M80.8903 6.4031
L80.6484 6.3426
" />
<path d="M80.6484 6.3426
L80.1646 6.3426
" />
<path d="M80.1646 6.3426
L80.0437 6.4031
" />
<path d="M80.0437 6.4031
L79.9832 6.4636
" />
<path d="M79.9832 6.4636
L79.9227 6.5845
" />
<path d="M79.9227 6.5845
L79.9227 6.8264
" />
<path d="M79.9227 6.8264
L79.9832 6.9474
" />
<path d="M79.9832 6.9474
L80.0437 7.0079
" />
<path d="M80.0437 7.0079
L80.1646 7.0683
" />
<path d="M80.1646 7.0683
L80.4670 7.0683
" />
<path d="M80.4670 7.0683
L80.5880 7.0079
" />
<path d="M80.5880 7.0079
L80.6484 6.9474
" />
<path d="M80.6484 6.9474
L80.7089 6.8264
" />
<path d="M80.7089 6.8264
L80.7089 6.5845
" />
<path d="M80.7089 6.5845
L80.6484 6.4636
" />
<path d="M80.6484 6.4636
L80.5880 6.4031
" />
<path d="M80.5880 6.4031
L80.4670 6.3426
" />
</g></g>
<g style="fill:#840084; fill-opacity:0.0; 
stroke:#840084; stroke-width:0.1524; stroke-opacity:1; 
stroke-linecap:round; stroke-linejoin:round;">
</g>
<g style="fill:#006464; fill-opacity:0.0; 
stroke:#006464; stroke-width:0.1524; stroke-opacity:1; 
stroke-linecap:round; stroke-linejoin:round;">
</g>
<g style="fill:#006464; fill-opacity:0.0; 
stroke:#006464; stroke-width:0.1588; stroke-opacity:1; 
stroke-linecap:round; stroke-linejoin:round;">
<text x="75.3109" y="7.3406"
textLength="2.6415" font-size="1.6933" lengthAdjust="spacingAndGlyphs"
text-anchor="middle" opacity="0">U?</text>
<g class="stroked-text"><desc>U?</desc>
<path d="M74.4037 6.0148
L74.4037 7.0429
" />
<path d="M74.4037 7.0429
L74.4642 7.1639
" />
<path d="M74.4642 7.1639
L74.5247 7.2244
" />
<path d="M74.5247 7.2244
L74.6456 7.2848
" />
<path d="M74.6456 7.2848
L74.8875 7.2848
" />
<path d="M74.8875 7.2848
L75.0085 7.2244
" />
<path d="M75.0085 7.2244
L75.0690 7.1639
" />
<path d="M75.0690 7.1639
L75.1294 7.0429
" />
<path d="M75.1294 7.0429
L75.1294 6.0148
" />
<path d="M75.9157 7.1639
L75.9761 7.2244
" />
<path d="M75.9761 7.2244
L75.9157 7.2848
" />
<path d="M75.9157 7.2848
L75.8552 7.2244
" />
<path d="M75.8552 7.2244
L75.9157 7.1639
" />
<path d="M75.9157 7.1639
L75.9157 7.2848
" />
<path d="M75.6738 6.0753
L75.7947 6.0148
" />
<path d="M75.7947 6.0148
L76.0971 6.0148
" />
<path d="M76.0971 6.0148
L76.2180 6.0753
" />
<path d="M76.2180 6.0753
L76.2785 6.1963
" />
<path d="M76.2785 6.1963
L76.2785 6.3172
" />
<path d="M76.2785 6.3172
L76.2180 6.4382
" />
<path d="M76.2180 6.4382
L76.1576 6.4986
" />
<path d="M76.1576 6.4986
L76.0366 6.5591
" />
<path d="M76.0366 6.5591
L75.9761 6.6196
" />
<path d="M75.9761 6.6196
L75.9157 6.7405
" />
<path d="M75.9157 6.7405
L75.9157 6.8010
" />
</g><text x="89.7382" y="7.3406"
textLength="14.6761" font-size="1.6933" lengthAdjust="spacingAndGlyphs"
text-anchor="middle" opacity="0">TBD62785AFWG</text>
<g class="stroked-text"><desc>TBD62785AFWG</desc>
<path d="M82.6323 6.0148
L83.3580 6.0148
" />
<path d="M82.9952 7.2848
L82.9952 6.0148
" />
<path d="M84.2047 6.6196
L84.3861 6.6801
" />
<path d="M84.3861 6.6801
L84.4466 6.7405
" />
<path d="M84.4466 6.7405
L84.5070 6.8615
" />
<path d="M84.5070 6.8615
L84.5070 7.0429
" />
<path d="M84.5070 7.0429
L84.4466 7.1639
" />
<path d="M84.4466 7.1639
L84.3861 7.2244
" />
<path d="M84.3861 7.2244
L84.2651 7.2848
" />
<path d="M84.2651 7.2848
L83.7813 7.2848
" />
<path d="M83.7813 7.2848
L83.7813 6.0148
" />
<path d="M83.7813 6.0148
L84.2047 6.0148
" />
<path d="M84.2047 6.0148
L84.3256 6.0753
" />
<path d="M84.3256 6.0753
L84.3861 6.1358
" />
<path d="M84.3861 6.1358
L84.4466 6.2567
" />
<path d="M84.4466 6.2567
L84.4466 6.3777
" />
<path d="M84.4466 6.3777
L84.3861 6.4986
" />
<path d="M84.3861 6.4986
L84.3256 6.5591
" />
<path d="M84.3256 6.5591
L84.2047 6.6196
" />
<path d="M84.2047 6.6196
L83.7813 6.6196
" />
<path d="M85.0513 7.2848
L85.0513 6.0148
" />
<path d="M85.0513 6.0148
L85.3537 6.0148
" />
<path d="M85.3537 6.0148
L85.5351 6.0753
" />
<path d="M85.5351 6.0753
L85.6561 6.1963
" />
<path d="M85.6561 6.1963
L85.7166 6.3172
" />
<path d="M85.7166 6.3172
L85.7770 6.5591
" />
<path d="M85.7770 6.5591
L85.7770 6.7405
" />
<path d="M85.7770 6.7405
L85.7166 6.9824
" />
<path d="M85.7166 6.9824
L85.6561 7.1034
" />
<path d="M85.6561 7.1034
L85.5351 7.2244
" />
<path d="M85.5351 7.2244
L85.3537 7.2848
" />
<path d="M85.3537 7.2848
L85.0513 7.2848
" />
<path d="M86.8656 6.0148
L86.6237 6.0148
" />
<path d="M86.6237 6.0148
L86.5028 6.0753
" />
<path d="M86.5028 6.0753
L86.4423 6.1358
" />
<path d="M86.4423 6.1358
L86.3213 6.3172
" />
<path d="M86.3213 6.3172
L86.2609 6.5591
" />
<path d="M86.2609 6.5591
L86.2609 7.0429
" />
<path d="M86.2609 7.0429
L86.3213 7.1639
" />
<path d="M86.3213 7.1639
L86.3818 7.2244
" />
<path d="M86.3818 7.2244
L86.5028 7.2848
" />
<path d="M86.5028 7.2848
L86.7447 7.2848
" />
<path d="M86.7447 7.2848
L86.8656 7.2244
" />
<path d="M86.8656 7.2244
L86.9261 7.1639
" />
<path d="M86.9261 7.1639
L86.9866 7.0429
" />
<path d="M86.9866 7.0429
L86.9866 6.7405
" />
<path d="M86.9866 6.7405
L86.9261 6.6196
" />
<path d="M86.9261 6.6196
L86.8656 6.5591
" />
<path d="M86.8656 6.5591
L86.7447 6.4986
" />
<path d="M86.7447 6.4986
L86.5028 6.4986
" />
<path d="M86.5028 6.4986
L86.3818 6.5591
" />
<path d="M86.3818 6.5591
L86.3213 6.6196
" />
<path d="M86.3213 6.6196
L86.2609 6.7405
" />
<path d="M87.4704 6.1358
L87.5308 6.0753
" />
<path d="M87.5308 6.0753
L87.6518 6.0148
" />
<path d="M87.6518 6.0148
L87.9542 6.0148
" />
<path d="M87.9542 6.0148
L88.0751 6.0753
" />
<path d="M88.0751 6.0753
L88.1356 6.1358
" />
<path d="M88.1356 6.1358
L88.1961 6.2567
" />
<path d="M88.1961 6.2567
L88.1961 6.3777
" />
<path d="M88.1961 6.3777
L88.1356 6.5591
" />
<path d="M88.1356 6.5591
L87.4099 7.2848
" />
<path d="M87.4099 7.2848
L88.1961 7.2848
" />
<path d="M88.6194 6.0148
L89.4660 6.0148
" />
<path d="M89.4660 6.0148
L88.9218 7.2848
" />
<path d="M90.1313 6.5591
L90.0103 6.4986
" />
<path d="M90.0103 6.4986
L89.9498 6.4382
" />
<path d="M89.9498 6.4382
L89.8894 6.3172
" />
<path d="M89.8894 6.3172
L89.8894 6.2567
" />
<path d="M89.8894 6.2567
L89.9498 6.1358
" />
<path d="M89.9498 6.1358
L90.0103 6.0753
" />
<path d="M90.0103 6.0753
L90.1313 6.0148
" />
<path d="M90.1313 6.0148
L90.3732 6.0148
" />
<path d="M90.3732 6.0148
L90.4941 6.0753
" />
<path d="M90.4941 6.0753
L90.5546 6.1358
" />
<path d="M90.5546 6.1358
L90.6151 6.2567
" />
<path d="M90.6151 6.2567
L90.6151 6.3172
" />
<path d="M90.6151 6.3172
L90.5546 6.4382
" />
<path d="M90.5546 6.4382
L90.4941 6.4986
" />
<path d="M90.4941 6.4986
L90.3732 6.5591
" />
<path d="M90.3732 6.5591
L90.1313 6.5591
" />
<path d="M90.1313 6.5591
L90.0103 6.6196
" />
<path d="M90.0103 6.6196
L89.9498 6.6801
" />
<path d="M89.9498 6.6801
L89.8894 6.8010
" />
<path d="M89.8894 6.8010
L89.8894 7.0429
" />
<path d="M89.8894 7.0429
L89.9498 7.1639
" />
<path d="M89.9498 7.1639
L90.0103 7.2244
" />
<path d="M90.0103 7.2244
L90.1313 7.2848
" />
<path d="M90.1313 7.2848
L90.3732 7.2848
" />
<path d="M90.3732 7.2848
L90.4941 7.2244
" />
<path d="M90.4941 7.2244
L90.5546 7.1639
" />
<path d="M90.5546 7.1639
L90.6151 7.0429
" />
<path d="M90.6151 7.0429
L90.6151 6.8010
" />
<path d="M90.6151 6.8010
L90.5546 6.6801
" />
<path d="M90.5546 6.6801
L90.4941 6.6196
" />
<path d="M90.4941 6.6196
L90.3732 6.5591
" />
<path d="M91.7641 6.0148
L91.1593 6.0148
" />
<path d="M91.1593 6.0148
L91.0989 6.6196
" />
<path d="M91.0989 6.6196
L91.1593 6.5591
" />
<path d="M91.1593 6.5591
L91.2803 6.4986
" />
<path d="M91.2803 6.4986
L91.5827 6.4986
" />
<path d="M91.5827 6.4986
L91.7036 6.5591
" />
<path d="M91.7036 6.5591
L91.7641 6.6196
" />
<path d="M91.7641 6.6196
L91.8246 6.7405
" />
<path d="M91.8246 6.7405
L91.8246 7.0429
" />
<path d="M91.8246 7.0429
L91.7641 7.1639
" />
<path d="M91.7641 7.1639
L91.7036 7.2244
" />
<path d="M91.7036 7.2244
L91.5827 7.2848
" />
<path d="M91.5827 7.2848
L91.2803 7.2848
" />
<path d="M91.2803 7.2848
L91.1593 7.2244
" />
<path d="M91.1593 7.2244
L91.0989 7.1639
" />
<path d="M92.3084 6.9220
L92.9131 6.9220
" />
<path d="M92.1874 7.2848
L92.6107 6.0148
" />
<path d="M92.6107 6.0148
L93.0341 7.2848
" />
<path d="M93.8808 6.6196
L93.4574 6.6196
" />
<path d="M93.4574 7.2848
L93.4574 6.0148
" />
<path d="M93.4574 6.0148
L94.0622 6.0148
" />
<path d="M94.4251 6.0148
L94.7275 7.2848
" />
<path d="M94.7275 7.2848
L94.9694 6.3777
" />
<path d="M94.9694 6.3777
L95.2113 7.2848
" />
<path d="M95.2113 7.2848
L95.5137 6.0148
" />
<path d="M96.6627 6.0753
L96.5417 6.0148
" />
<path d="M96.5417 6.0148
L96.3603 6.0148
" />
<path d="M96.3603 6.0148
L96.1789 6.0753
" />
<path d="M96.1789 6.0753
L96.0579 6.1963
" />
<path d="M96.0579 6.1963
L95.9974 6.3172
" />
<path d="M95.9974 6.3172
L95.9370 6.5591
" />
<path d="M95.9370 6.5591
L95.9370 6.7405
" />
<path d="M95.9370 6.7405
L95.9974 6.9824
" />
<path d="M95.9974 6.9824
L96.0579 7.1034
" />
<path d="M96.0579 7.1034
L96.1789 7.2244
" />
<path d="M96.1789 7.2244
L96.3603 7.2848
" />
<path d="M96.3603 7.2848
L96.4812 7.2848
" />
<path d="M96.4812 7.2848
L96.6627 7.2244
" />
<path d="M96.6627 7.2244
L96.7231 7.1639
" />
<path d="M96.7231 7.1639
L96.7231 6.7405
" />
<path d="M96.7231 6.7405
L96.4812 6.7405
" />
</g></g> 
</svg>
