<?xml version="1.0" standalone="no"?>
 <!DOCTYPE svg PUBLIC "-//W3C//DTD SVG 1.1//EN" 
 "http://www.w3.org/Graphics/SVG/1.1/DTD/svg11.dtd"> 
<svg
  xmlns:svg="http://www.w3.org/2000/svg"
  xmlns="http://www.w3.org/2000/svg"
  xmlns:xlink="http://www.w3.org/1999/xlink"
  version="1.1"
  width="34.2900mm" height="13.2842mm" viewBox="0.0000 0.0000 34.2900 13.2842">
<title>SVG Image created as QFN-76-1EP_9x9mm_P0.4mm_EP3.8x3.8mm.svg date 2024/01/16 15:07:16 </title>
  <desc>Image generated by PCBNEW </desc>
<g style="fill:#000000; fill-opacity:1.0000;stroke:#000000; stroke-opacity:1.0000;
stroke-linecap:round; stroke-linejoin:round;"
 transform="translate(0 0) scale(1 1)">
</g>
<g style="fill:#000000; fill-opacity:0.0; 
stroke:#000000; stroke-width:0.0000; stroke-opacity:1; 
stroke-linecap:round; stroke-linejoin:round;">
</g>
<g style="fill:#000000; fill-opacity:1.0000; 
stroke:#000000; stroke-width:0.0212; stroke-opacity:1; 
stroke-linecap:round; stroke-linejoin:round;">
<rect x="-5.000000" y="-5.000000" width="44.297617" height="23.296500" rx="0.000000" />
</g>
<g style="fill:#FFFFFF; fill-opacity:1.0000; 
stroke:#FFFFFF; stroke-width:0.0212; stroke-opacity:1; 
stroke-linecap:round; stroke-linejoin:round;">
<g >
</g>
<g >
</g>
<g >
</g>
<g >
</g>
</g>
<g style="fill:#FFFFFF; fill-opacity:1.0000; 
stroke:#FFFFFF; stroke-width:0.0212; stroke-opacity:1; 
stroke-linecap:round; stroke-linejoin:round;">
<g >
</g>
<g >
</g>
<g >
</g>
<g >
</g>
</g>
<g style="fill:#FFFFFF; fill-opacity:1.0000; 
stroke:#FFFFFF; stroke-width:0.0212; stroke-opacity:1; 
stroke-linecap:round; stroke-linejoin:round;">
<g >
</g>
<g >
</g>
<g >
</g>
<g >
</g>
</g>
<g style="fill:#FFFFFF; fill-opacity:1.0000; 
stroke:#FFFFFF; stroke-width:0.0212; stroke-opacity:1; 
stroke-linecap:round; stroke-linejoin:round;">
<g >
</g>
<g >
</g>
<g >
</g>
<g >
</g>
</g>
<g style="fill:#FFFFFF; fill-opacity:1.0000; 
stroke:#FFFFFF; stroke-width:0.0212; stroke-opacity:1; 
stroke-linecap:round; stroke-linejoin:round;">
<g >
</g>
<g >
</g>
<g >
</g>
<g >
</g>
</g>
<g style="fill:#FFFFFF; fill-opacity:1.0000; 
stroke:#FFFFFF; stroke-width:0.0212; stroke-opacity:1; 
stroke-linecap:round; stroke-linejoin:round;">
<g >
</g>
<g >
</g>
<g >
</g>
<g >
</g>
</g>
<g style="fill:#FFFFFF; fill-opacity:1.0000; 
stroke:#FFFFFF; stroke-width:0.0212; stroke-opacity:1; 
stroke-linecap:round; stroke-linejoin:round;">
<g >
</g>
<g >
</g>
<g >
</g>
<g >
</g>
</g>
<g style="fill:#FFFFFF; fill-opacity:1.0000; 
stroke:#FFFFFF; stroke-width:0.0212; stroke-opacity:1; 
stroke-linecap:round; stroke-linejoin:round;">
<g >
</g>
<g >
</g>
<g >
</g>
<g >
</g>
</g>
<g style="fill:#FFFFFF; fill-opacity:1.0000; 
stroke:#FFFFFF; stroke-width:0.0212; stroke-opacity:1; 
stroke-linecap:round; stroke-linejoin:round;">
<g >
</g>
<g >
</g>
<g >
</g>
<g >
</g>
</g>
<g style="fill:#FFFFFF; fill-opacity:1.0000; 
stroke:#FFFFFF; stroke-width:0.0212; stroke-opacity:1; 
stroke-linecap:round; stroke-linejoin:round;">
<g >
</g>
<g >
</g>
<g >
</g>
<g >
</g>
</g>
<g style="fill:#FFFFFF; fill-opacity:1.0000; 
stroke:#FFFFFF; stroke-width:0.0212; stroke-opacity:1; 
stroke-linecap:round; stroke-linejoin:round;">
<g >
</g>
<g >
</g>
<g >
</g>
<g >
</g>
</g>
<g style="fill:#FFFFFF; fill-opacity:1.0000; 
stroke:#FFFFFF; stroke-width:0.0212; stroke-opacity:1; 
stroke-linecap:round; stroke-linejoin:round;">
<g >
</g>
<g >
</g>
<g >
</g>
<g >
</g>
</g>
<g style="fill:#FFFFFF; fill-opacity:1.0000; 
stroke:#FFFFFF; stroke-width:0.0212; stroke-opacity:1; 
stroke-linecap:round; stroke-linejoin:round;">
<g >
</g>
<g >
</g>
<g >
</g>
<g >
</g>
</g>
<g style="fill:#FFFFFF; fill-opacity:1.0000; 
stroke:#FFFFFF; stroke-width:0.0212; stroke-opacity:1; 
stroke-linecap:round; stroke-linejoin:round;">
<g >
</g>
<g >
</g>
<g >
</g>
<g >
</g>
</g>
<g style="fill:#FFFFFF; fill-opacity:1.0000; 
stroke:#FFFFFF; stroke-width:0.0212; stroke-opacity:1; 
stroke-linecap:round; stroke-linejoin:round;">
<g >
</g>
<g >
</g>
<g >
</g>
<g >
</g>
</g>
<g style="fill:#FFFFFF; fill-opacity:1.0000; 
stroke:#FFFFFF; stroke-width:0.0212; stroke-opacity:1; 
stroke-linecap:round; stroke-linejoin:round;">
<g >
</g>
<g >
</g>
<g >
</g>
<g >
</g>
</g>
<g style="fill:#FFFFFF; fill-opacity:1.0000; 
stroke:#FFFFFF; stroke-width:0.0212; stroke-opacity:1; 
stroke-linecap:round; stroke-linejoin:round;">
<g >
</g>
<g >
</g>
<g >
</g>
<g >
</g>
</g>
<g style="fill:#FFFFFF; fill-opacity:1.0000; 
stroke:#FFFFFF; stroke-width:0.0212; stroke-opacity:1; 
stroke-linecap:round; stroke-linejoin:round;">
<g >
</g>
<g >
</g>
<g >
</g>
<g >
</g>
</g>
<g style="fill:#FFFFFF; fill-opacity:1.0000; 
stroke:#FFFFFF; stroke-width:0.0212; stroke-opacity:1; 
stroke-linecap:round; stroke-linejoin:round;">
<g >
</g>
<g >
</g>
<g >
</g>
<g >
</g>
</g>
<g style="fill:#FFFFFF; fill-opacity:1.0000; 
stroke:#FFFFFF; stroke-width:0.0212; stroke-opacity:1; 
stroke-linecap:round; stroke-linejoin:round;">
<g >
</g>
<g >
</g>
<g >
</g>
<g >
</g>
</g>
<g style="fill:#FFFFFF; fill-opacity:1.0000; 
stroke:#FFFFFF; stroke-width:0.0212; stroke-opacity:1; 
stroke-linecap:round; stroke-linejoin:round;">
<g >
</g>
<g >
</g>
<g >
</g>
<g >
</g>
</g>
<g style="fill:#FFFFFF; fill-opacity:1.0000; 
stroke:#FFFFFF; stroke-width:0.0212; stroke-opacity:1; 
stroke-linecap:round; stroke-linejoin:round;">
<g >
</g>
<g >
</g>
<g >
</g>
<g >
</g>
</g>
<g style="fill:#FFFFFF; fill-opacity:1.0000; 
stroke:#FFFFFF; stroke-width:0.0212; stroke-opacity:1; 
stroke-linecap:round; stroke-linejoin:round;">
<g >
</g>
<g >
</g>
<g >
</g>
<g >
</g>
</g>
<g style="fill:#FFFFFF; fill-opacity:1.0000; 
stroke:#FFFFFF; stroke-width:0.0212; stroke-opacity:1; 
stroke-linecap:round; stroke-linejoin:round;">
<g >
</g>
<g >
</g>
<g >
</g>
<g >
</g>
</g>
<g style="fill:#FFFFFF; fill-opacity:1.0000; 
stroke:#FFFFFF; stroke-width:0.0212; stroke-opacity:1; 
stroke-linecap:round; stroke-linejoin:round;">
<g >
</g>
<g >
</g>
<g >
</g>
<g >
</g>
</g>
<g style="fill:#FFFFFF; fill-opacity:1.0000; 
stroke:#FFFFFF; stroke-width:0.0212; stroke-opacity:1; 
stroke-linecap:round; stroke-linejoin:round;">
<g >
</g>
<g >
</g>
<g >
</g>
<g >
</g>
</g>
<g style="fill:#FFFFFF; fill-opacity:1.0000; 
stroke:#FFFFFF; stroke-width:0.0212; stroke-opacity:1; 
stroke-linecap:round; stroke-linejoin:round;">
<g >
</g>
<g >
</g>
<g >
</g>
<g >
</g>
</g>
<g style="fill:#FFFFFF; fill-opacity:1.0000; 
stroke:#FFFFFF; stroke-width:0.0212; stroke-opacity:1; 
stroke-linecap:round; stroke-linejoin:round;">
<g >
</g>
<g >
</g>
<g >
</g>
<g >
</g>
</g>
<g style="fill:#FFFFFF; fill-opacity:1.0000; 
stroke:#FFFFFF; stroke-width:0.0212; stroke-opacity:1; 
stroke-linecap:round; stroke-linejoin:round;">
<g >
</g>
<g >
</g>
<g >
</g>
<g >
</g>
</g>
<g style="fill:#FFFFFF; fill-opacity:1.0000; 
stroke:#FFFFFF; stroke-width:0.0212; stroke-opacity:1; 
stroke-linecap:round; stroke-linejoin:round;">
<g >
</g>
<g >
</g>
<g >
</g>
<g >
</g>
</g>
<g style="fill:#FFFFFF; fill-opacity:1.0000; 
stroke:#FFFFFF; stroke-width:0.0212; stroke-opacity:1; 
stroke-linecap:round; stroke-linejoin:round;">
<g >
</g>
<g >
</g>
<g >
</g>
<g >
</g>
</g>
<g style="fill:#FFFFFF; fill-opacity:1.0000; 
stroke:#FFFFFF; stroke-width:0.0212; stroke-opacity:1; 
stroke-linecap:round; stroke-linejoin:round;">
<g >
</g>
<g >
</g>
<g >
</g>
<g >
</g>
</g>
<g style="fill:#FFFFFF; fill-opacity:1.0000; 
stroke:#FFFFFF; stroke-width:0.0212; stroke-opacity:1; 
stroke-linecap:round; stroke-linejoin:round;">
<g >
</g>
<g >
</g>
<g >
</g>
<g >
</g>
</g>
<g style="fill:#FFFFFF; fill-opacity:1.0000; 
stroke:#FFFFFF; stroke-width:0.0212; stroke-opacity:1; 
stroke-linecap:round; stroke-linejoin:round;">
<g >
</g>
<g style="fill:#FFFFFF; fill-opacity:1.0000; 
stroke:#FFFFFF; stroke-width:0.0000; stroke-opacity:1; 
stroke-linecap:round; stroke-linejoin:round;">
<path style="fill:#FFFFFF; fill-opacity:1.0000; 
stroke:#FFFFFF; stroke-width:0.0000; stroke-opacity:1; 
stroke-linecap:round; stroke-linejoin:round;fill-rule:evenodd;"
d="M 12.2988,2.9983
12.3026,2.9791
12.3135,2.9629
12.3297,2.9521
12.3488,2.9482
13.0738,2.9482
13.0929,2.9521
13.1092,2.9629
13.1200,2.9791
13.1238,2.9983
13.1238,3.0982
13.1200,3.1174
13.1092,3.1336
13.0929,3.1444
13.0738,3.1482
12.3488,3.1482
12.3297,3.1444
12.3135,3.1336
12.3026,3.1174
12.2988,3.0982
Z" /> 
<path style="fill:#FFFFFF; fill-opacity:1.0000; 
stroke:#FFFFFF; stroke-width:0.0000; stroke-opacity:1; 
stroke-linecap:round; stroke-linejoin:round;fill-rule:evenodd;"
d="M 12.2988,3.3982
12.3026,3.3791
12.3135,3.3629
12.3297,3.3521
12.3488,3.3482
13.0738,3.3482
13.0929,3.3521
13.1092,3.3629
13.1200,3.3791
13.1238,3.3982
13.1238,3.4982
13.1200,3.5174
13.1092,3.5336
13.0929,3.5444
13.0738,3.5482
12.3488,3.5482
12.3297,3.5444
12.3135,3.5336
12.3026,3.5174
12.2988,3.4982
Z" /> 
<path style="fill:#FFFFFF; fill-opacity:1.0000; 
stroke:#FFFFFF; stroke-width:0.0000; stroke-opacity:1; 
stroke-linecap:round; stroke-linejoin:round;fill-rule:evenodd;"
d="M 12.2988,3.7982
12.3026,3.7791
12.3135,3.7629
12.3297,3.7521
12.3488,3.7482
13.0738,3.7482
13.0929,3.7521
13.1092,3.7629
13.1200,3.7791
13.1238,3.7982
13.1238,3.8982
13.1200,3.9174
13.1092,3.9336
13.0929,3.9444
13.0738,3.9482
12.3488,3.9482
12.3297,3.9444
12.3135,3.9336
12.3026,3.9174
12.2988,3.8982
Z" /> 
<path style="fill:#FFFFFF; fill-opacity:1.0000; 
stroke:#FFFFFF; stroke-width:0.0000; stroke-opacity:1; 
stroke-linecap:round; stroke-linejoin:round;fill-rule:evenodd;"
d="M 12.2988,4.1982
12.3026,4.1791
12.3135,4.1629
12.3297,4.1521
12.3488,4.1482
13.0738,4.1482
13.0929,4.1521
13.1092,4.1629
13.1200,4.1791
13.1238,4.1982
13.1238,4.2982
13.1200,4.3174
13.1092,4.3336
13.0929,4.3444
13.0738,4.3483
12.3488,4.3483
12.3297,4.3444
12.3135,4.3336
12.3026,4.3174
12.2988,4.2982
Z" /> 
<path style="fill:#FFFFFF; fill-opacity:1.0000; 
stroke:#FFFFFF; stroke-width:0.0000; stroke-opacity:1; 
stroke-linecap:round; stroke-linejoin:round;fill-rule:evenodd;"
d="M 12.2988,4.5983
12.3026,4.5791
12.3135,4.5629
12.3297,4.5521
12.3488,4.5482
13.0738,4.5482
13.0929,4.5521
13.1092,4.5629
13.1200,4.5791
13.1238,4.5983
13.1238,4.6982
13.1200,4.7174
13.1092,4.7336
13.0929,4.7444
13.0738,4.7482
12.3488,4.7482
12.3297,4.7444
12.3135,4.7336
12.3026,4.7174
12.2988,4.6982
Z" /> 
<path style="fill:#FFFFFF; fill-opacity:1.0000; 
stroke:#FFFFFF; stroke-width:0.0000; stroke-opacity:1; 
stroke-linecap:round; stroke-linejoin:round;fill-rule:evenodd;"
d="M 12.2988,4.9982
12.3026,4.9791
12.3135,4.9629
12.3297,4.9521
12.3488,4.9482
13.0738,4.9482
13.0929,4.9521
13.1092,4.9629
13.1200,4.9791
13.1238,4.9982
13.1238,5.0983
13.1200,5.1174
13.1092,5.1336
13.0929,5.1444
13.0738,5.1482
12.3488,5.1482
12.3297,5.1444
12.3135,5.1336
12.3026,5.1174
12.2988,5.0983
Z" /> 
<path style="fill:#FFFFFF; fill-opacity:1.0000; 
stroke:#FFFFFF; stroke-width:0.0000; stroke-opacity:1; 
stroke-linecap:round; stroke-linejoin:round;fill-rule:evenodd;"
d="M 12.2988,5.3982
12.3026,5.3791
12.3135,5.3629
12.3297,5.3521
12.3488,5.3483
13.0738,5.3483
13.0929,5.3521
13.1092,5.3629
13.1200,5.3791
13.1238,5.3982
13.1238,5.4982
13.1200,5.5174
13.1092,5.5336
13.0929,5.5444
13.0738,5.5482
12.3488,5.5482
12.3297,5.5444
12.3135,5.5336
12.3026,5.5174
12.2988,5.4982
Z" /> 
<path style="fill:#FFFFFF; fill-opacity:1.0000; 
stroke:#FFFFFF; stroke-width:0.0000; stroke-opacity:1; 
stroke-linecap:round; stroke-linejoin:round;fill-rule:evenodd;"
d="M 12.2988,5.7982
12.3026,5.7791
12.3135,5.7629
12.3297,5.7521
12.3488,5.7482
13.0738,5.7482
13.0929,5.7521
13.1092,5.7629
13.1200,5.7791
13.1238,5.7982
13.1238,5.8982
13.1200,5.9174
13.1092,5.9336
13.0929,5.9444
13.0738,5.9482
12.3488,5.9482
12.3297,5.9444
12.3135,5.9336
12.3026,5.9174
12.2988,5.8982
Z" /> 
<path style="fill:#FFFFFF; fill-opacity:1.0000; 
stroke:#FFFFFF; stroke-width:0.0000; stroke-opacity:1; 
stroke-linecap:round; stroke-linejoin:round;fill-rule:evenodd;"
d="M 12.2988,6.1982
12.3026,6.1791
12.3135,6.1629
12.3297,6.1521
12.3488,6.1482
13.0738,6.1482
13.0929,6.1521
13.1092,6.1629
13.1200,6.1791
13.1238,6.1982
13.1238,6.2982
13.1200,6.3174
13.1092,6.3336
13.0929,6.3444
13.0738,6.3482
12.3488,6.3482
12.3297,6.3444
12.3135,6.3336
12.3026,6.3174
12.2988,6.2982
Z" /> 
<path style="fill:#FFFFFF; fill-opacity:1.0000; 
stroke:#FFFFFF; stroke-width:0.0000; stroke-opacity:1; 
stroke-linecap:round; stroke-linejoin:round;fill-rule:evenodd;"
d="M 12.2988,6.5982
12.3026,6.5791
12.3135,6.5629
12.3297,6.5521
12.3488,6.5482
13.0738,6.5482
13.0929,6.5521
13.1092,6.5629
13.1200,6.5791
13.1238,6.5982
13.1238,6.6982
13.1200,6.7174
13.1092,6.7336
13.0929,6.7444
13.0738,6.7482
12.3488,6.7482
12.3297,6.7444
12.3135,6.7336
12.3026,6.7174
12.2988,6.6982
Z" /> 
<path style="fill:#FFFFFF; fill-opacity:1.0000; 
stroke:#FFFFFF; stroke-width:0.0000; stroke-opacity:1; 
stroke-linecap:round; stroke-linejoin:round;fill-rule:evenodd;"
d="M 12.2988,6.9982
12.3026,6.9791
12.3135,6.9629
12.3297,6.9521
12.3488,6.9482
13.0738,6.9482
13.0929,6.9521
13.1092,6.9629
13.1200,6.9791
13.1238,6.9982
13.1238,7.0982
13.1200,7.1174
13.1092,7.1336
13.0929,7.1444
13.0738,7.1482
12.3488,7.1482
12.3297,7.1444
12.3135,7.1336
12.3026,7.1174
12.2988,7.0982
Z" /> 
<path style="fill:#FFFFFF; fill-opacity:1.0000; 
stroke:#FFFFFF; stroke-width:0.0000; stroke-opacity:1; 
stroke-linecap:round; stroke-linejoin:round;fill-rule:evenodd;"
d="M 12.2988,7.3982
12.3026,7.3791
12.3135,7.3629
12.3297,7.3521
12.3488,7.3482
13.0738,7.3482
13.0929,7.3521
13.1092,7.3629
13.1200,7.3791
13.1238,7.3982
13.1238,7.4982
13.1200,7.5174
13.1092,7.5336
13.0929,7.5444
13.0738,7.5482
12.3488,7.5482
12.3297,7.5444
12.3135,7.5336
12.3026,7.5174
12.2988,7.4982
Z" /> 
<path style="fill:#FFFFFF; fill-opacity:1.0000; 
stroke:#FFFFFF; stroke-width:0.0000; stroke-opacity:1; 
stroke-linecap:round; stroke-linejoin:round;fill-rule:evenodd;"
d="M 12.2988,7.7982
12.3026,7.7791
12.3135,7.7629
12.3297,7.7521
12.3488,7.7482
13.0738,7.7482
13.0929,7.7521
13.1092,7.7629
13.1200,7.7791
13.1238,7.7982
13.1238,7.8982
13.1200,7.9174
13.1092,7.9336
13.0929,7.9444
13.0738,7.9482
12.3488,7.9482
12.3297,7.9444
12.3135,7.9336
12.3026,7.9174
12.2988,7.8982
Z" /> 
<path style="fill:#FFFFFF; fill-opacity:1.0000; 
stroke:#FFFFFF; stroke-width:0.0000; stroke-opacity:1; 
stroke-linecap:round; stroke-linejoin:round;fill-rule:evenodd;"
d="M 12.2988,8.1982
12.3026,8.1791
12.3135,8.1629
12.3297,8.1521
12.3488,8.1482
13.0738,8.1482
13.0929,8.1521
13.1092,8.1629
13.1200,8.1791
13.1238,8.1982
13.1238,8.2982
13.1200,8.3174
13.1092,8.3336
13.0929,8.3444
13.0738,8.3483
12.3488,8.3483
12.3297,8.3444
12.3135,8.3336
12.3026,8.3174
12.2988,8.2982
Z" /> 
<path style="fill:#FFFFFF; fill-opacity:1.0000; 
stroke:#FFFFFF; stroke-width:0.0000; stroke-opacity:1; 
stroke-linecap:round; stroke-linejoin:round;fill-rule:evenodd;"
d="M 12.2988,8.5983
12.3026,8.5791
12.3135,8.5629
12.3297,8.5521
12.3488,8.5482
13.0738,8.5482
13.0929,8.5521
13.1092,8.5629
13.1200,8.5791
13.1238,8.5983
13.1238,8.6982
13.1200,8.7174
13.1092,8.7336
13.0929,8.7444
13.0738,8.7482
12.3488,8.7482
12.3297,8.7444
12.3135,8.7336
12.3026,8.7174
12.2988,8.6982
Z" /> 
<path style="fill:#FFFFFF; fill-opacity:1.0000; 
stroke:#FFFFFF; stroke-width:0.0000; stroke-opacity:1; 
stroke-linecap:round; stroke-linejoin:round;fill-rule:evenodd;"
d="M 12.2988,8.9982
12.3026,8.9791
12.3135,8.9629
12.3297,8.9521
12.3488,8.9482
13.0738,8.9482
13.0929,8.9521
13.1092,8.9629
13.1200,8.9791
13.1238,8.9982
13.1238,9.0983
13.1200,9.1174
13.1092,9.1336
13.0929,9.1444
13.0738,9.1482
12.3488,9.1482
12.3297,9.1444
12.3135,9.1336
12.3026,9.1174
12.2988,9.0983
Z" /> 
<path style="fill:#FFFFFF; fill-opacity:1.0000; 
stroke:#FFFFFF; stroke-width:0.0000; stroke-opacity:1; 
stroke-linecap:round; stroke-linejoin:round;fill-rule:evenodd;"
d="M 12.2988,9.3982
12.3026,9.3791
12.3135,9.3629
12.3297,9.3521
12.3488,9.3483
13.0738,9.3483
13.0929,9.3521
13.1092,9.3629
13.1200,9.3791
13.1238,9.3982
13.1238,9.4982
13.1200,9.5174
13.1092,9.5336
13.0929,9.5444
13.0738,9.5482
12.3488,9.5482
12.3297,9.5444
12.3135,9.5336
12.3026,9.5174
12.2988,9.4982
Z" /> 
<path style="fill:#FFFFFF; fill-opacity:1.0000; 
stroke:#FFFFFF; stroke-width:0.0000; stroke-opacity:1; 
stroke-linecap:round; stroke-linejoin:round;fill-rule:evenodd;"
d="M 12.2988,9.7982
12.3026,9.7791
12.3135,9.7629
12.3297,9.7521
12.3488,9.7482
13.0738,9.7482
13.0929,9.7521
13.1092,9.7629
13.1200,9.7791
13.1238,9.7982
13.1238,9.8982
13.1200,9.9174
13.1092,9.9336
13.0929,9.9444
13.0738,9.9482
12.3488,9.9482
12.3297,9.9444
12.3135,9.9336
12.3026,9.9174
12.2988,9.8982
Z" /> 
<path style="fill:#FFFFFF; fill-opacity:1.0000; 
stroke:#FFFFFF; stroke-width:0.0000; stroke-opacity:1; 
stroke-linecap:round; stroke-linejoin:round;fill-rule:evenodd;"
d="M 12.2988,10.1982
12.3026,10.1791
12.3135,10.1629
12.3297,10.1521
12.3488,10.1482
13.0738,10.1482
13.0929,10.1521
13.1092,10.1629
13.1200,10.1791
13.1238,10.1982
13.1238,10.2982
13.1200,10.3174
13.1092,10.3336
13.0929,10.3444
13.0738,10.3483
12.3488,10.3483
12.3297,10.3444
12.3135,10.3336
12.3026,10.3174
12.2988,10.2982
Z" /> 
<path style="fill:#FFFFFF; fill-opacity:1.0000; 
stroke:#FFFFFF; stroke-width:0.0000; stroke-opacity:1; 
stroke-linecap:round; stroke-linejoin:round;fill-rule:evenodd;"
d="M 13.4488,10.7233
13.4526,10.7041
13.4635,10.6879
13.4797,10.6771
13.4988,10.6732
13.5988,10.6732
13.6179,10.6771
13.6342,10.6879
13.6450,10.7041
13.6488,10.7233
13.6488,11.4482
13.6450,11.4674
13.6342,11.4836
13.6179,11.4944
13.5988,11.4982
13.4988,11.4982
13.4797,11.4944
13.4635,11.4836
13.4526,11.4674
13.4488,11.4482
Z" /> 
<path style="fill:#FFFFFF; fill-opacity:1.0000; 
stroke:#FFFFFF; stroke-width:0.0000; stroke-opacity:1; 
stroke-linecap:round; stroke-linejoin:round;fill-rule:evenodd;"
d="M 13.8488,10.7233
13.8526,10.7041
13.8635,10.6879
13.8797,10.6771
13.8988,10.6732
13.9988,10.6732
14.0179,10.6771
14.0342,10.6879
14.0450,10.7041
14.0488,10.7233
14.0488,11.4482
14.0450,11.4674
14.0342,11.4836
14.0179,11.4944
13.9988,11.4982
13.8988,11.4982
13.8797,11.4944
13.8635,11.4836
13.8526,11.4674
13.8488,11.4482
Z" /> 
<path style="fill:#FFFFFF; fill-opacity:1.0000; 
stroke:#FFFFFF; stroke-width:0.0000; stroke-opacity:1; 
stroke-linecap:round; stroke-linejoin:round;fill-rule:evenodd;"
d="M 14.2488,10.7233
14.2526,10.7041
14.2635,10.6879
14.2797,10.6771
14.2988,10.6732
14.3988,10.6732
14.4179,10.6771
14.4342,10.6879
14.4450,10.7041
14.4488,10.7233
14.4488,11.4482
14.4450,11.4674
14.4342,11.4836
14.4179,11.4944
14.3988,11.4982
14.2988,11.4982
14.2797,11.4944
14.2635,11.4836
14.2526,11.4674
14.2488,11.4482
Z" /> 
<path style="fill:#FFFFFF; fill-opacity:1.0000; 
stroke:#FFFFFF; stroke-width:0.0000; stroke-opacity:1; 
stroke-linecap:round; stroke-linejoin:round;fill-rule:evenodd;"
d="M 14.6488,10.7233
14.6526,10.7041
14.6635,10.6879
14.6797,10.6771
14.6988,10.6732
14.7988,10.6732
14.8179,10.6771
14.8342,10.6879
14.8450,10.7041
14.8488,10.7233
14.8488,11.4482
14.8450,11.4674
14.8342,11.4836
14.8179,11.4944
14.7988,11.4982
14.6988,11.4982
14.6797,11.4944
14.6635,11.4836
14.6526,11.4674
14.6488,11.4482
Z" /> 
<path style="fill:#FFFFFF; fill-opacity:1.0000; 
stroke:#FFFFFF; stroke-width:0.0000; stroke-opacity:1; 
stroke-linecap:round; stroke-linejoin:round;fill-rule:evenodd;"
d="M 15.0488,10.7233
15.0526,10.7041
15.0635,10.6879
15.0797,10.6771
15.0988,10.6732
15.1988,10.6732
15.2179,10.6771
15.2342,10.6879
15.2450,10.7041
15.2488,10.7233
15.2488,11.4482
15.2450,11.4674
15.2342,11.4836
15.2179,11.4944
15.1988,11.4982
15.0988,11.4982
15.0797,11.4944
15.0635,11.4836
15.0526,11.4674
15.0488,11.4482
Z" /> 
<path style="fill:#FFFFFF; fill-opacity:1.0000; 
stroke:#FFFFFF; stroke-width:0.0000; stroke-opacity:1; 
stroke-linecap:round; stroke-linejoin:round;fill-rule:evenodd;"
d="M 15.4488,10.7233
15.4526,10.7041
15.4635,10.6879
15.4797,10.6771
15.4988,10.6732
15.5988,10.6732
15.6179,10.6771
15.6342,10.6879
15.6450,10.7041
15.6488,10.7233
15.6488,11.4482
15.6450,11.4674
15.6342,11.4836
15.6179,11.4944
15.5988,11.4982
15.4988,11.4982
15.4797,11.4944
15.4635,11.4836
15.4526,11.4674
15.4488,11.4482
Z" /> 
<path style="fill:#FFFFFF; fill-opacity:1.0000; 
stroke:#FFFFFF; stroke-width:0.0000; stroke-opacity:1; 
stroke-linecap:round; stroke-linejoin:round;fill-rule:evenodd;"
d="M 15.8488,10.7233
15.8526,10.7041
15.8635,10.6879
15.8797,10.6771
15.8988,10.6732
15.9988,10.6732
16.0179,10.6771
16.0342,10.6879
16.0450,10.7041
16.0488,10.7233
16.0488,11.4482
16.0450,11.4674
16.0342,11.4836
16.0179,11.4944
15.9988,11.4982
15.8988,11.4982
15.8797,11.4944
15.8635,11.4836
15.8526,11.4674
15.8488,11.4482
Z" /> 
<path style="fill:#FFFFFF; fill-opacity:1.0000; 
stroke:#FFFFFF; stroke-width:0.0000; stroke-opacity:1; 
stroke-linecap:round; stroke-linejoin:round;fill-rule:evenodd;"
d="M 16.2488,10.7233
16.2526,10.7041
16.2635,10.6879
16.2797,10.6771
16.2988,10.6732
16.3988,10.6732
16.4179,10.6771
16.4342,10.6879
16.4450,10.7041
16.4488,10.7233
16.4488,11.4482
16.4450,11.4674
16.4342,11.4836
16.4179,11.4944
16.3988,11.4982
16.2988,11.4982
16.2797,11.4944
16.2635,11.4836
16.2526,11.4674
16.2488,11.4482
Z" /> 
<path style="fill:#FFFFFF; fill-opacity:1.0000; 
stroke:#FFFFFF; stroke-width:0.0000; stroke-opacity:1; 
stroke-linecap:round; stroke-linejoin:round;fill-rule:evenodd;"
d="M 16.6488,10.7233
16.6526,10.7041
16.6635,10.6879
16.6797,10.6771
16.6988,10.6732
16.7988,10.6732
16.8179,10.6771
16.8342,10.6879
16.8450,10.7041
16.8488,10.7233
16.8488,11.4482
16.8450,11.4674
16.8342,11.4836
16.8179,11.4944
16.7988,11.4982
16.6988,11.4982
16.6797,11.4944
16.6635,11.4836
16.6526,11.4674
16.6488,11.4482
Z" /> 
<path style="fill:#FFFFFF; fill-opacity:1.0000; 
stroke:#FFFFFF; stroke-width:0.0000; stroke-opacity:1; 
stroke-linecap:round; stroke-linejoin:round;fill-rule:evenodd;"
d="M 17.0488,10.7233
17.0526,10.7041
17.0635,10.6879
17.0797,10.6771
17.0988,10.6732
17.1988,10.6732
17.2179,10.6771
17.2342,10.6879
17.2450,10.7041
17.2488,10.7233
17.2488,11.4482
17.2450,11.4674
17.2342,11.4836
17.2179,11.4944
17.1988,11.4982
17.0988,11.4982
17.0797,11.4944
17.0635,11.4836
17.0526,11.4674
17.0488,11.4482
Z" /> 
<path style="fill:#FFFFFF; fill-opacity:1.0000; 
stroke:#FFFFFF; stroke-width:0.0000; stroke-opacity:1; 
stroke-linecap:round; stroke-linejoin:round;fill-rule:evenodd;"
d="M 17.4488,10.7233
17.4526,10.7041
17.4635,10.6879
17.4797,10.6771
17.4988,10.6732
17.5988,10.6732
17.6179,10.6771
17.6342,10.6879
17.6450,10.7041
17.6488,10.7233
17.6488,11.4482
17.6450,11.4674
17.6342,11.4836
17.6179,11.4944
17.5988,11.4982
17.4988,11.4982
17.4797,11.4944
17.4635,11.4836
17.4526,11.4674
17.4488,11.4482
Z" /> 
<path style="fill:#FFFFFF; fill-opacity:1.0000; 
stroke:#FFFFFF; stroke-width:0.0000; stroke-opacity:1; 
stroke-linecap:round; stroke-linejoin:round;fill-rule:evenodd;"
d="M 17.8488,10.7233
17.8526,10.7041
17.8635,10.6879
17.8797,10.6771
17.8988,10.6732
17.9988,10.6732
18.0179,10.6771
18.0342,10.6879
18.0450,10.7041
18.0488,10.7233
18.0488,11.4482
18.0450,11.4674
18.0342,11.4836
18.0179,11.4944
17.9988,11.4982
17.8988,11.4982
17.8797,11.4944
17.8635,11.4836
17.8526,11.4674
17.8488,11.4482
Z" /> 
<path style="fill:#FFFFFF; fill-opacity:1.0000; 
stroke:#FFFFFF; stroke-width:0.0000; stroke-opacity:1; 
stroke-linecap:round; stroke-linejoin:round;fill-rule:evenodd;"
d="M 18.2488,10.7233
18.2526,10.7041
18.2635,10.6879
18.2797,10.6771
18.2988,10.6732
18.3988,10.6732
18.4179,10.6771
18.4342,10.6879
18.4450,10.7041
18.4488,10.7233
18.4488,11.4482
18.4450,11.4674
18.4342,11.4836
18.4179,11.4944
18.3988,11.4982
18.2988,11.4982
18.2797,11.4944
18.2635,11.4836
18.2526,11.4674
18.2488,11.4482
Z" /> 
<path style="fill:#FFFFFF; fill-opacity:1.0000; 
stroke:#FFFFFF; stroke-width:0.0000; stroke-opacity:1; 
stroke-linecap:round; stroke-linejoin:round;fill-rule:evenodd;"
d="M 18.6488,10.7233
18.6526,10.7041
18.6635,10.6879
18.6797,10.6771
18.6988,10.6732
18.7988,10.6732
18.8179,10.6771
18.8342,10.6879
18.8450,10.7041
18.8488,10.7233
18.8488,11.4482
18.8450,11.4674
18.8342,11.4836
18.8179,11.4944
18.7988,11.4982
18.6988,11.4982
18.6797,11.4944
18.6635,11.4836
18.6526,11.4674
18.6488,11.4482
Z" /> 
<path style="fill:#FFFFFF; fill-opacity:1.0000; 
stroke:#FFFFFF; stroke-width:0.0000; stroke-opacity:1; 
stroke-linecap:round; stroke-linejoin:round;fill-rule:evenodd;"
d="M 19.0488,10.7233
19.0526,10.7041
19.0635,10.6879
19.0797,10.6771
19.0988,10.6732
19.1988,10.6732
19.2179,10.6771
19.2342,10.6879
19.2450,10.7041
19.2488,10.7233
19.2488,11.4482
19.2450,11.4674
19.2342,11.4836
19.2179,11.4944
19.1988,11.4982
19.0988,11.4982
19.0797,11.4944
19.0635,11.4836
19.0526,11.4674
19.0488,11.4482
Z" /> 
<path style="fill:#FFFFFF; fill-opacity:1.0000; 
stroke:#FFFFFF; stroke-width:0.0000; stroke-opacity:1; 
stroke-linecap:round; stroke-linejoin:round;fill-rule:evenodd;"
d="M 19.4488,10.7233
19.4526,10.7041
19.4635,10.6879
19.4797,10.6771
19.4988,10.6732
19.5988,10.6732
19.6179,10.6771
19.6342,10.6879
19.6450,10.7041
19.6488,10.7233
19.6488,11.4482
19.6450,11.4674
19.6342,11.4836
19.6179,11.4944
19.5988,11.4982
19.4988,11.4982
19.4797,11.4944
19.4635,11.4836
19.4526,11.4674
19.4488,11.4482
Z" /> 
<path style="fill:#FFFFFF; fill-opacity:1.0000; 
stroke:#FFFFFF; stroke-width:0.0000; stroke-opacity:1; 
stroke-linecap:round; stroke-linejoin:round;fill-rule:evenodd;"
d="M 19.8488,10.7233
19.8526,10.7041
19.8635,10.6879
19.8797,10.6771
19.8988,10.6732
19.9988,10.6732
20.0179,10.6771
20.0342,10.6879
20.0450,10.7041
20.0488,10.7233
20.0488,11.4482
20.0450,11.4674
20.0342,11.4836
20.0179,11.4944
19.9988,11.4982
19.8988,11.4982
19.8797,11.4944
19.8635,11.4836
19.8526,11.4674
19.8488,11.4482
Z" /> 
<path style="fill:#FFFFFF; fill-opacity:1.0000; 
stroke:#FFFFFF; stroke-width:0.0000; stroke-opacity:1; 
stroke-linecap:round; stroke-linejoin:round;fill-rule:evenodd;"
d="M 20.2488,10.7233
20.2526,10.7041
20.2635,10.6879
20.2797,10.6771
20.2988,10.6732
20.3988,10.6732
20.4179,10.6771
20.4342,10.6879
20.4450,10.7041
20.4488,10.7233
20.4488,11.4482
20.4450,11.4674
20.4342,11.4836
20.4179,11.4944
20.3988,11.4982
20.2988,11.4982
20.2797,11.4944
20.2635,11.4836
20.2526,11.4674
20.2488,11.4482
Z" /> 
<path style="fill:#FFFFFF; fill-opacity:1.0000; 
stroke:#FFFFFF; stroke-width:0.0000; stroke-opacity:1; 
stroke-linecap:round; stroke-linejoin:round;fill-rule:evenodd;"
d="M 20.6488,10.7233
20.6526,10.7041
20.6635,10.6879
20.6797,10.6771
20.6988,10.6732
20.7988,10.6732
20.8179,10.6771
20.8342,10.6879
20.8450,10.7041
20.8488,10.7233
20.8488,11.4482
20.8450,11.4674
20.8342,11.4836
20.8179,11.4944
20.7988,11.4982
20.6988,11.4982
20.6797,11.4944
20.6635,11.4836
20.6526,11.4674
20.6488,11.4482
Z" /> 
<path style="fill:#FFFFFF; fill-opacity:1.0000; 
stroke:#FFFFFF; stroke-width:0.0000; stroke-opacity:1; 
stroke-linecap:round; stroke-linejoin:round;fill-rule:evenodd;"
d="M 21.1738,10.1982
21.1776,10.1791
21.1885,10.1629
21.2047,10.1521
21.2238,10.1482
21.9488,10.1482
21.9679,10.1521
21.9842,10.1629
21.9950,10.1791
21.9988,10.1982
21.9988,10.2982
21.9950,10.3174
21.9842,10.3336
21.9679,10.3444
21.9488,10.3483
21.2238,10.3483
21.2047,10.3444
21.1885,10.3336
21.1776,10.3174
21.1738,10.2982
Z" /> 
<path style="fill:#FFFFFF; fill-opacity:1.0000; 
stroke:#FFFFFF; stroke-width:0.0000; stroke-opacity:1; 
stroke-linecap:round; stroke-linejoin:round;fill-rule:evenodd;"
d="M 21.1738,9.7982
21.1776,9.7791
21.1885,9.7629
21.2047,9.7521
21.2238,9.7482
21.9488,9.7482
21.9679,9.7521
21.9842,9.7629
21.9950,9.7791
21.9988,9.7982
21.9988,9.8982
21.9950,9.9174
21.9842,9.9336
21.9679,9.9444
21.9488,9.9482
21.2238,9.9482
21.2047,9.9444
21.1885,9.9336
21.1776,9.9174
21.1738,9.8982
Z" /> 
<path style="fill:#FFFFFF; fill-opacity:1.0000; 
stroke:#FFFFFF; stroke-width:0.0000; stroke-opacity:1; 
stroke-linecap:round; stroke-linejoin:round;fill-rule:evenodd;"
d="M 21.1738,9.3982
21.1776,9.3791
21.1885,9.3629
21.2047,9.3521
21.2238,9.3483
21.9488,9.3483
21.9679,9.3521
21.9842,9.3629
21.9950,9.3791
21.9988,9.3982
21.9988,9.4982
21.9950,9.5174
21.9842,9.5336
21.9679,9.5444
21.9488,9.5482
21.2238,9.5482
21.2047,9.5444
21.1885,9.5336
21.1776,9.5174
21.1738,9.4982
Z" /> 
<path style="fill:#FFFFFF; fill-opacity:1.0000; 
stroke:#FFFFFF; stroke-width:0.0000; stroke-opacity:1; 
stroke-linecap:round; stroke-linejoin:round;fill-rule:evenodd;"
d="M 21.1738,8.9982
21.1776,8.9791
21.1885,8.9629
21.2047,8.9521
21.2238,8.9482
21.9488,8.9482
21.9679,8.9521
21.9842,8.9629
21.9950,8.9791
21.9988,8.9982
21.9988,9.0983
21.9950,9.1174
21.9842,9.1336
21.9679,9.1444
21.9488,9.1482
21.2238,9.1482
21.2047,9.1444
21.1885,9.1336
21.1776,9.1174
21.1738,9.0983
Z" /> 
<path style="fill:#FFFFFF; fill-opacity:1.0000; 
stroke:#FFFFFF; stroke-width:0.0000; stroke-opacity:1; 
stroke-linecap:round; stroke-linejoin:round;fill-rule:evenodd;"
d="M 21.1738,8.5983
21.1776,8.5791
21.1885,8.5629
21.2047,8.5521
21.2238,8.5482
21.9488,8.5482
21.9679,8.5521
21.9842,8.5629
21.9950,8.5791
21.9988,8.5983
21.9988,8.6982
21.9950,8.7174
21.9842,8.7336
21.9679,8.7444
21.9488,8.7482
21.2238,8.7482
21.2047,8.7444
21.1885,8.7336
21.1776,8.7174
21.1738,8.6982
Z" /> 
<path style="fill:#FFFFFF; fill-opacity:1.0000; 
stroke:#FFFFFF; stroke-width:0.0000; stroke-opacity:1; 
stroke-linecap:round; stroke-linejoin:round;fill-rule:evenodd;"
d="M 21.1738,8.1982
21.1776,8.1791
21.1885,8.1629
21.2047,8.1521
21.2238,8.1482
21.9488,8.1482
21.9679,8.1521
21.9842,8.1629
21.9950,8.1791
21.9988,8.1982
21.9988,8.2982
21.9950,8.3174
21.9842,8.3336
21.9679,8.3444
21.9488,8.3483
21.2238,8.3483
21.2047,8.3444
21.1885,8.3336
21.1776,8.3174
21.1738,8.2982
Z" /> 
<path style="fill:#FFFFFF; fill-opacity:1.0000; 
stroke:#FFFFFF; stroke-width:0.0000; stroke-opacity:1; 
stroke-linecap:round; stroke-linejoin:round;fill-rule:evenodd;"
d="M 21.1738,7.7982
21.1776,7.7791
21.1885,7.7629
21.2047,7.7521
21.2238,7.7482
21.9488,7.7482
21.9679,7.7521
21.9842,7.7629
21.9950,7.7791
21.9988,7.7982
21.9988,7.8982
21.9950,7.9174
21.9842,7.9336
21.9679,7.9444
21.9488,7.9482
21.2238,7.9482
21.2047,7.9444
21.1885,7.9336
21.1776,7.9174
21.1738,7.8982
Z" /> 
<path style="fill:#FFFFFF; fill-opacity:1.0000; 
stroke:#FFFFFF; stroke-width:0.0000; stroke-opacity:1; 
stroke-linecap:round; stroke-linejoin:round;fill-rule:evenodd;"
d="M 21.1738,7.3982
21.1776,7.3791
21.1885,7.3629
21.2047,7.3521
21.2238,7.3482
21.9488,7.3482
21.9679,7.3521
21.9842,7.3629
21.9950,7.3791
21.9988,7.3982
21.9988,7.4982
21.9950,7.5174
21.9842,7.5336
21.9679,7.5444
21.9488,7.5482
21.2238,7.5482
21.2047,7.5444
21.1885,7.5336
21.1776,7.5174
21.1738,7.4982
Z" /> 
<path style="fill:#FFFFFF; fill-opacity:1.0000; 
stroke:#FFFFFF; stroke-width:0.0000; stroke-opacity:1; 
stroke-linecap:round; stroke-linejoin:round;fill-rule:evenodd;"
d="M 21.1738,6.9982
21.1776,6.9791
21.1885,6.9629
21.2047,6.9521
21.2238,6.9482
21.9488,6.9482
21.9679,6.9521
21.9842,6.9629
21.9950,6.9791
21.9988,6.9982
21.9988,7.0982
21.9950,7.1174
21.9842,7.1336
21.9679,7.1444
21.9488,7.1482
21.2238,7.1482
21.2047,7.1444
21.1885,7.1336
21.1776,7.1174
21.1738,7.0982
Z" /> 
<path style="fill:#FFFFFF; fill-opacity:1.0000; 
stroke:#FFFFFF; stroke-width:0.0000; stroke-opacity:1; 
stroke-linecap:round; stroke-linejoin:round;fill-rule:evenodd;"
d="M 21.1738,6.5982
21.1776,6.5791
21.1885,6.5629
21.2047,6.5521
21.2238,6.5482
21.9488,6.5482
21.9679,6.5521
21.9842,6.5629
21.9950,6.5791
21.9988,6.5982
21.9988,6.6982
21.9950,6.7174
21.9842,6.7336
21.9679,6.7444
21.9488,6.7482
21.2238,6.7482
21.2047,6.7444
21.1885,6.7336
21.1776,6.7174
21.1738,6.6982
Z" /> 
<path style="fill:#FFFFFF; fill-opacity:1.0000; 
stroke:#FFFFFF; stroke-width:0.0000; stroke-opacity:1; 
stroke-linecap:round; stroke-linejoin:round;fill-rule:evenodd;"
d="M 21.1738,6.1982
21.1776,6.1791
21.1885,6.1629
21.2047,6.1521
21.2238,6.1482
21.9488,6.1482
21.9679,6.1521
21.9842,6.1629
21.9950,6.1791
21.9988,6.1982
21.9988,6.2982
21.9950,6.3174
21.9842,6.3336
21.9679,6.3444
21.9488,6.3482
21.2238,6.3482
21.2047,6.3444
21.1885,6.3336
21.1776,6.3174
21.1738,6.2982
Z" /> 
<path style="fill:#FFFFFF; fill-opacity:1.0000; 
stroke:#FFFFFF; stroke-width:0.0000; stroke-opacity:1; 
stroke-linecap:round; stroke-linejoin:round;fill-rule:evenodd;"
d="M 21.1738,5.7982
21.1776,5.7791
21.1885,5.7629
21.2047,5.7521
21.2238,5.7482
21.9488,5.7482
21.9679,5.7521
21.9842,5.7629
21.9950,5.7791
21.9988,5.7982
21.9988,5.8982
21.9950,5.9174
21.9842,5.9336
21.9679,5.9444
21.9488,5.9482
21.2238,5.9482
21.2047,5.9444
21.1885,5.9336
21.1776,5.9174
21.1738,5.8982
Z" /> 
<path style="fill:#FFFFFF; fill-opacity:1.0000; 
stroke:#FFFFFF; stroke-width:0.0000; stroke-opacity:1; 
stroke-linecap:round; stroke-linejoin:round;fill-rule:evenodd;"
d="M 21.1738,5.3982
21.1776,5.3791
21.1885,5.3629
21.2047,5.3521
21.2238,5.3483
21.9488,5.3483
21.9679,5.3521
21.9842,5.3629
21.9950,5.3791
21.9988,5.3982
21.9988,5.4982
21.9950,5.5174
21.9842,5.5336
21.9679,5.5444
21.9488,5.5482
21.2238,5.5482
21.2047,5.5444
21.1885,5.5336
21.1776,5.5174
21.1738,5.4982
Z" /> 
<path style="fill:#FFFFFF; fill-opacity:1.0000; 
stroke:#FFFFFF; stroke-width:0.0000; stroke-opacity:1; 
stroke-linecap:round; stroke-linejoin:round;fill-rule:evenodd;"
d="M 21.1738,4.9982
21.1776,4.9791
21.1885,4.9629
21.2047,4.9521
21.2238,4.9482
21.9488,4.9482
21.9679,4.9521
21.9842,4.9629
21.9950,4.9791
21.9988,4.9982
21.9988,5.0983
21.9950,5.1174
21.9842,5.1336
21.9679,5.1444
21.9488,5.1482
21.2238,5.1482
21.2047,5.1444
21.1885,5.1336
21.1776,5.1174
21.1738,5.0983
Z" /> 
<path style="fill:#FFFFFF; fill-opacity:1.0000; 
stroke:#FFFFFF; stroke-width:0.0000; stroke-opacity:1; 
stroke-linecap:round; stroke-linejoin:round;fill-rule:evenodd;"
d="M 21.1738,4.5983
21.1776,4.5791
21.1885,4.5629
21.2047,4.5521
21.2238,4.5482
21.9488,4.5482
21.9679,4.5521
21.9842,4.5629
21.9950,4.5791
21.9988,4.5983
21.9988,4.6982
21.9950,4.7174
21.9842,4.7336
21.9679,4.7444
21.9488,4.7482
21.2238,4.7482
21.2047,4.7444
21.1885,4.7336
21.1776,4.7174
21.1738,4.6982
Z" /> 
<path style="fill:#FFFFFF; fill-opacity:1.0000; 
stroke:#FFFFFF; stroke-width:0.0000; stroke-opacity:1; 
stroke-linecap:round; stroke-linejoin:round;fill-rule:evenodd;"
d="M 21.1738,4.1982
21.1776,4.1791
21.1885,4.1629
21.2047,4.1521
21.2238,4.1482
21.9488,4.1482
21.9679,4.1521
21.9842,4.1629
21.9950,4.1791
21.9988,4.1982
21.9988,4.2982
21.9950,4.3174
21.9842,4.3336
21.9679,4.3444
21.9488,4.3483
21.2238,4.3483
21.2047,4.3444
21.1885,4.3336
21.1776,4.3174
21.1738,4.2982
Z" /> 
<path style="fill:#FFFFFF; fill-opacity:1.0000; 
stroke:#FFFFFF; stroke-width:0.0000; stroke-opacity:1; 
stroke-linecap:round; stroke-linejoin:round;fill-rule:evenodd;"
d="M 21.1738,3.7982
21.1776,3.7791
21.1885,3.7629
21.2047,3.7521
21.2238,3.7482
21.9488,3.7482
21.9679,3.7521
21.9842,3.7629
21.9950,3.7791
21.9988,3.7982
21.9988,3.8982
21.9950,3.9174
21.9842,3.9336
21.9679,3.9444
21.9488,3.9482
21.2238,3.9482
21.2047,3.9444
21.1885,3.9336
21.1776,3.9174
21.1738,3.8982
Z" /> 
<path style="fill:#FFFFFF; fill-opacity:1.0000; 
stroke:#FFFFFF; stroke-width:0.0000; stroke-opacity:1; 
stroke-linecap:round; stroke-linejoin:round;fill-rule:evenodd;"
d="M 21.1738,3.3982
21.1776,3.3791
21.1885,3.3629
21.2047,3.3521
21.2238,3.3482
21.9488,3.3482
21.9679,3.3521
21.9842,3.3629
21.9950,3.3791
21.9988,3.3982
21.9988,3.4982
21.9950,3.5174
21.9842,3.5336
21.9679,3.5444
21.9488,3.5482
21.2238,3.5482
21.2047,3.5444
21.1885,3.5336
21.1776,3.5174
21.1738,3.4982
Z" /> 
<path style="fill:#FFFFFF; fill-opacity:1.0000; 
stroke:#FFFFFF; stroke-width:0.0000; stroke-opacity:1; 
stroke-linecap:round; stroke-linejoin:round;fill-rule:evenodd;"
d="M 21.1738,2.9983
21.1776,2.9791
21.1885,2.9629
21.2047,2.9521
21.2238,2.9482
21.9488,2.9482
21.9679,2.9521
21.9842,2.9629
21.9950,2.9791
21.9988,2.9983
21.9988,3.0982
21.9950,3.1174
21.9842,3.1336
21.9679,3.1444
21.9488,3.1482
21.2238,3.1482
21.2047,3.1444
21.1885,3.1336
21.1776,3.1174
21.1738,3.0982
Z" /> 
<path style="fill:#FFFFFF; fill-opacity:1.0000; 
stroke:#FFFFFF; stroke-width:0.0000; stroke-opacity:1; 
stroke-linecap:round; stroke-linejoin:round;fill-rule:evenodd;"
d="M 20.6488,1.8482
20.6526,1.8291
20.6635,1.8129
20.6797,1.8021
20.6988,1.7982
20.7988,1.7982
20.8179,1.8021
20.8342,1.8129
20.8450,1.8291
20.8488,1.8482
20.8488,2.5732
20.8450,2.5924
20.8342,2.6086
20.8179,2.6194
20.7988,2.6233
20.6988,2.6233
20.6797,2.6194
20.6635,2.6086
20.6526,2.5924
20.6488,2.5732
Z" /> 
<path style="fill:#FFFFFF; fill-opacity:1.0000; 
stroke:#FFFFFF; stroke-width:0.0000; stroke-opacity:1; 
stroke-linecap:round; stroke-linejoin:round;fill-rule:evenodd;"
d="M 20.2488,1.8482
20.2526,1.8291
20.2635,1.8129
20.2797,1.8021
20.2988,1.7982
20.3988,1.7982
20.4179,1.8021
20.4342,1.8129
20.4450,1.8291
20.4488,1.8482
20.4488,2.5732
20.4450,2.5924
20.4342,2.6086
20.4179,2.6194
20.3988,2.6233
20.2988,2.6233
20.2797,2.6194
20.2635,2.6086
20.2526,2.5924
20.2488,2.5732
Z" /> 
<path style="fill:#FFFFFF; fill-opacity:1.0000; 
stroke:#FFFFFF; stroke-width:0.0000; stroke-opacity:1; 
stroke-linecap:round; stroke-linejoin:round;fill-rule:evenodd;"
d="M 19.8488,1.8482
19.8526,1.8291
19.8635,1.8129
19.8797,1.8021
19.8988,1.7982
19.9988,1.7982
20.0179,1.8021
20.0342,1.8129
20.0450,1.8291
20.0488,1.8482
20.0488,2.5732
20.0450,2.5924
20.0342,2.6086
20.0179,2.6194
19.9988,2.6233
19.8988,2.6233
19.8797,2.6194
19.8635,2.6086
19.8526,2.5924
19.8488,2.5732
Z" /> 
<path style="fill:#FFFFFF; fill-opacity:1.0000; 
stroke:#FFFFFF; stroke-width:0.0000; stroke-opacity:1; 
stroke-linecap:round; stroke-linejoin:round;fill-rule:evenodd;"
d="M 19.4488,1.8482
19.4526,1.8291
19.4635,1.8129
19.4797,1.8021
19.4988,1.7982
19.5988,1.7982
19.6179,1.8021
19.6342,1.8129
19.6450,1.8291
19.6488,1.8482
19.6488,2.5732
19.6450,2.5924
19.6342,2.6086
19.6179,2.6194
19.5988,2.6233
19.4988,2.6233
19.4797,2.6194
19.4635,2.6086
19.4526,2.5924
19.4488,2.5732
Z" /> 
<path style="fill:#FFFFFF; fill-opacity:1.0000; 
stroke:#FFFFFF; stroke-width:0.0000; stroke-opacity:1; 
stroke-linecap:round; stroke-linejoin:round;fill-rule:evenodd;"
d="M 19.0488,1.8482
19.0526,1.8291
19.0635,1.8129
19.0797,1.8021
19.0988,1.7982
19.1988,1.7982
19.2179,1.8021
19.2342,1.8129
19.2450,1.8291
19.2488,1.8482
19.2488,2.5732
19.2450,2.5924
19.2342,2.6086
19.2179,2.6194
19.1988,2.6233
19.0988,2.6233
19.0797,2.6194
19.0635,2.6086
19.0526,2.5924
19.0488,2.5732
Z" /> 
<path style="fill:#FFFFFF; fill-opacity:1.0000; 
stroke:#FFFFFF; stroke-width:0.0000; stroke-opacity:1; 
stroke-linecap:round; stroke-linejoin:round;fill-rule:evenodd;"
d="M 18.6488,1.8482
18.6526,1.8291
18.6635,1.8129
18.6797,1.8021
18.6988,1.7982
18.7988,1.7982
18.8179,1.8021
18.8342,1.8129
18.8450,1.8291
18.8488,1.8482
18.8488,2.5732
18.8450,2.5924
18.8342,2.6086
18.8179,2.6194
18.7988,2.6233
18.6988,2.6233
18.6797,2.6194
18.6635,2.6086
18.6526,2.5924
18.6488,2.5732
Z" /> 
<path style="fill:#FFFFFF; fill-opacity:1.0000; 
stroke:#FFFFFF; stroke-width:0.0000; stroke-opacity:1; 
stroke-linecap:round; stroke-linejoin:round;fill-rule:evenodd;"
d="M 18.2488,1.8482
18.2526,1.8291
18.2635,1.8129
18.2797,1.8021
18.2988,1.7982
18.3988,1.7982
18.4179,1.8021
18.4342,1.8129
18.4450,1.8291
18.4488,1.8482
18.4488,2.5732
18.4450,2.5924
18.4342,2.6086
18.4179,2.6194
18.3988,2.6233
18.2988,2.6233
18.2797,2.6194
18.2635,2.6086
18.2526,2.5924
18.2488,2.5732
Z" /> 
<path style="fill:#FFFFFF; fill-opacity:1.0000; 
stroke:#FFFFFF; stroke-width:0.0000; stroke-opacity:1; 
stroke-linecap:round; stroke-linejoin:round;fill-rule:evenodd;"
d="M 17.8488,1.8482
17.8526,1.8291
17.8635,1.8129
17.8797,1.8021
17.8988,1.7982
17.9988,1.7982
18.0179,1.8021
18.0342,1.8129
18.0450,1.8291
18.0488,1.8482
18.0488,2.5732
18.0450,2.5924
18.0342,2.6086
18.0179,2.6194
17.9988,2.6233
17.8988,2.6233
17.8797,2.6194
17.8635,2.6086
17.8526,2.5924
17.8488,2.5732
Z" /> 
<path style="fill:#FFFFFF; fill-opacity:1.0000; 
stroke:#FFFFFF; stroke-width:0.0000; stroke-opacity:1; 
stroke-linecap:round; stroke-linejoin:round;fill-rule:evenodd;"
d="M 17.4488,1.8482
17.4526,1.8291
17.4635,1.8129
17.4797,1.8021
17.4988,1.7982
17.5988,1.7982
17.6179,1.8021
17.6342,1.8129
17.6450,1.8291
17.6488,1.8482
17.6488,2.5732
17.6450,2.5924
17.6342,2.6086
17.6179,2.6194
17.5988,2.6233
17.4988,2.6233
17.4797,2.6194
17.4635,2.6086
17.4526,2.5924
17.4488,2.5732
Z" /> 
<path style="fill:#FFFFFF; fill-opacity:1.0000; 
stroke:#FFFFFF; stroke-width:0.0000; stroke-opacity:1; 
stroke-linecap:round; stroke-linejoin:round;fill-rule:evenodd;"
d="M 17.0488,1.8482
17.0526,1.8291
17.0635,1.8129
17.0797,1.8021
17.0988,1.7982
17.1988,1.7982
17.2179,1.8021
17.2342,1.8129
17.2450,1.8291
17.2488,1.8482
17.2488,2.5732
17.2450,2.5924
17.2342,2.6086
17.2179,2.6194
17.1988,2.6233
17.0988,2.6233
17.0797,2.6194
17.0635,2.6086
17.0526,2.5924
17.0488,2.5732
Z" /> 
<path style="fill:#FFFFFF; fill-opacity:1.0000; 
stroke:#FFFFFF; stroke-width:0.0000; stroke-opacity:1; 
stroke-linecap:round; stroke-linejoin:round;fill-rule:evenodd;"
d="M 16.6488,1.8482
16.6526,1.8291
16.6635,1.8129
16.6797,1.8021
16.6988,1.7982
16.7988,1.7982
16.8179,1.8021
16.8342,1.8129
16.8450,1.8291
16.8488,1.8482
16.8488,2.5732
16.8450,2.5924
16.8342,2.6086
16.8179,2.6194
16.7988,2.6233
16.6988,2.6233
16.6797,2.6194
16.6635,2.6086
16.6526,2.5924
16.6488,2.5732
Z" /> 
<path style="fill:#FFFFFF; fill-opacity:1.0000; 
stroke:#FFFFFF; stroke-width:0.0000; stroke-opacity:1; 
stroke-linecap:round; stroke-linejoin:round;fill-rule:evenodd;"
d="M 16.2488,1.8482
16.2526,1.8291
16.2635,1.8129
16.2797,1.8021
16.2988,1.7982
16.3988,1.7982
16.4179,1.8021
16.4342,1.8129
16.4450,1.8291
16.4488,1.8482
16.4488,2.5732
16.4450,2.5924
16.4342,2.6086
16.4179,2.6194
16.3988,2.6233
16.2988,2.6233
16.2797,2.6194
16.2635,2.6086
16.2526,2.5924
16.2488,2.5732
Z" /> 
<path style="fill:#FFFFFF; fill-opacity:1.0000; 
stroke:#FFFFFF; stroke-width:0.0000; stroke-opacity:1; 
stroke-linecap:round; stroke-linejoin:round;fill-rule:evenodd;"
d="M 15.8488,1.8482
15.8526,1.8291
15.8635,1.8129
15.8797,1.8021
15.8988,1.7982
15.9988,1.7982
16.0179,1.8021
16.0342,1.8129
16.0450,1.8291
16.0488,1.8482
16.0488,2.5732
16.0450,2.5924
16.0342,2.6086
16.0179,2.6194
15.9988,2.6233
15.8988,2.6233
15.8797,2.6194
15.8635,2.6086
15.8526,2.5924
15.8488,2.5732
Z" /> 
<path style="fill:#FFFFFF; fill-opacity:1.0000; 
stroke:#FFFFFF; stroke-width:0.0000; stroke-opacity:1; 
stroke-linecap:round; stroke-linejoin:round;fill-rule:evenodd;"
d="M 15.4488,1.8482
15.4526,1.8291
15.4635,1.8129
15.4797,1.8021
15.4988,1.7982
15.5988,1.7982
15.6179,1.8021
15.6342,1.8129
15.6450,1.8291
15.6488,1.8482
15.6488,2.5732
15.6450,2.5924
15.6342,2.6086
15.6179,2.6194
15.5988,2.6233
15.4988,2.6233
15.4797,2.6194
15.4635,2.6086
15.4526,2.5924
15.4488,2.5732
Z" /> 
<path style="fill:#FFFFFF; fill-opacity:1.0000; 
stroke:#FFFFFF; stroke-width:0.0000; stroke-opacity:1; 
stroke-linecap:round; stroke-linejoin:round;fill-rule:evenodd;"
d="M 15.0488,1.8482
15.0526,1.8291
15.0635,1.8129
15.0797,1.8021
15.0988,1.7982
15.1988,1.7982
15.2179,1.8021
15.2342,1.8129
15.2450,1.8291
15.2488,1.8482
15.2488,2.5732
15.2450,2.5924
15.2342,2.6086
15.2179,2.6194
15.1988,2.6233
15.0988,2.6233
15.0797,2.6194
15.0635,2.6086
15.0526,2.5924
15.0488,2.5732
Z" /> 
<path style="fill:#FFFFFF; fill-opacity:1.0000; 
stroke:#FFFFFF; stroke-width:0.0000; stroke-opacity:1; 
stroke-linecap:round; stroke-linejoin:round;fill-rule:evenodd;"
d="M 14.6488,1.8482
14.6526,1.8291
14.6635,1.8129
14.6797,1.8021
14.6988,1.7982
14.7988,1.7982
14.8179,1.8021
14.8342,1.8129
14.8450,1.8291
14.8488,1.8482
14.8488,2.5732
14.8450,2.5924
14.8342,2.6086
14.8179,2.6194
14.7988,2.6233
14.6988,2.6233
14.6797,2.6194
14.6635,2.6086
14.6526,2.5924
14.6488,2.5732
Z" /> 
<path style="fill:#FFFFFF; fill-opacity:1.0000; 
stroke:#FFFFFF; stroke-width:0.0000; stroke-opacity:1; 
stroke-linecap:round; stroke-linejoin:round;fill-rule:evenodd;"
d="M 14.2488,1.8482
14.2526,1.8291
14.2635,1.8129
14.2797,1.8021
14.2988,1.7982
14.3988,1.7982
14.4179,1.8021
14.4342,1.8129
14.4450,1.8291
14.4488,1.8482
14.4488,2.5732
14.4450,2.5924
14.4342,2.6086
14.4179,2.6194
14.3988,2.6233
14.2988,2.6233
14.2797,2.6194
14.2635,2.6086
14.2526,2.5924
14.2488,2.5732
Z" /> 
<path style="fill:#FFFFFF; fill-opacity:1.0000; 
stroke:#FFFFFF; stroke-width:0.0000; stroke-opacity:1; 
stroke-linecap:round; stroke-linejoin:round;fill-rule:evenodd;"
d="M 13.8488,1.8482
13.8526,1.8291
13.8635,1.8129
13.8797,1.8021
13.8988,1.7982
13.9988,1.7982
14.0179,1.8021
14.0342,1.8129
14.0450,1.8291
14.0488,1.8482
14.0488,2.5732
14.0450,2.5924
14.0342,2.6086
14.0179,2.6194
13.9988,2.6233
13.8988,2.6233
13.8797,2.6194
13.8635,2.6086
13.8526,2.5924
13.8488,2.5732
Z" /> 
<path style="fill:#FFFFFF; fill-opacity:1.0000; 
stroke:#FFFFFF; stroke-width:0.0000; stroke-opacity:1; 
stroke-linecap:round; stroke-linejoin:round;fill-rule:evenodd;"
d="M 13.4488,1.8482
13.4526,1.8291
13.4635,1.8129
13.4797,1.8021
13.4988,1.7982
13.5988,1.7982
13.6179,1.8021
13.6342,1.8129
13.6450,1.8291
13.6488,1.8482
13.6488,2.5732
13.6450,2.5924
13.6342,2.6086
13.6179,2.6194
13.5988,2.6233
13.4988,2.6233
13.4797,2.6194
13.4635,2.6086
13.4526,2.5924
13.4488,2.5732
Z" /> 
<path style="fill:#FFFFFF; fill-opacity:1.0000; 
stroke:#FFFFFF; stroke-width:0.0000; stroke-opacity:1; 
stroke-linecap:round; stroke-linejoin:round;fill-rule:evenodd;"
d="M 15.2488,8.5482
15.2488,4.7482
19.0488,4.7482
19.0488,8.5482
Z" /> 
</g>
<g >
</g>
<g >
</g>
<g >
</g>
</g>
<g style="fill:#FFFFFF; fill-opacity:1.0000; 
stroke:#FFFFFF; stroke-width:0.0000; stroke-opacity:1; 
stroke-linecap:round; stroke-linejoin:round;">
<g >
<path style="fill:#FFFFFF; fill-opacity:1.0000; 
stroke:#FFFFFF; stroke-width:0.0000; stroke-opacity:1; 
stroke-linecap:round; stroke-linejoin:round;fill-rule:evenodd;"
d="M 17.9088,5.1182
17.9278,5.0226
17.9820,4.9415
18.0631,4.8873
18.1588,4.8682
18.6788,4.8682
18.7745,4.8873
18.8556,4.9415
18.9098,5.0226
18.9288,5.1182
18.9288,5.6382
18.9098,5.7339
18.8556,5.8150
18.7745,5.8692
18.6788,5.8882
18.1588,5.8882
18.0631,5.8692
17.9820,5.8150
17.9278,5.7339
17.9088,5.6382
Z" /> 
<path style="fill:#FFFFFF; fill-opacity:1.0000; 
stroke:#FFFFFF; stroke-width:0.0000; stroke-opacity:1; 
stroke-linecap:round; stroke-linejoin:round;fill-rule:evenodd;"
d="M 16.6388,7.6582
16.6578,7.5626
16.7120,7.4815
16.7931,7.4273
16.8888,7.4082
17.4088,7.4082
17.5045,7.4273
17.5856,7.4815
17.6398,7.5626
17.6588,7.6582
17.6588,8.1783
17.6398,8.2739
17.5856,8.3550
17.5045,8.4092
17.4088,8.4283
16.8888,8.4283
16.7931,8.4092
16.7120,8.3550
16.6578,8.2739
16.6388,8.1783
Z" /> 
<path style="fill:#FFFFFF; fill-opacity:1.0000; 
stroke:#FFFFFF; stroke-width:0.0000; stroke-opacity:1; 
stroke-linecap:round; stroke-linejoin:round;fill-rule:evenodd;"
d="M 16.6388,6.3882
16.6578,6.2926
16.7120,6.2115
16.7931,6.1573
16.8888,6.1382
17.4088,6.1382
17.5045,6.1573
17.5856,6.2115
17.6398,6.2926
17.6588,6.3882
17.6588,6.9082
17.6398,7.0039
17.5856,7.0850
17.5045,7.1392
17.4088,7.1582
16.8888,7.1582
16.7931,7.1392
16.7120,7.0850
16.6578,7.0039
16.6388,6.9082
Z" /> 
<path style="fill:#FFFFFF; fill-opacity:1.0000; 
stroke:#FFFFFF; stroke-width:0.0000; stroke-opacity:1; 
stroke-linecap:round; stroke-linejoin:round;fill-rule:evenodd;"
d="M 17.9088,6.3882
17.9278,6.2926
17.9820,6.2115
18.0631,6.1573
18.1588,6.1382
18.6788,6.1382
18.7745,6.1573
18.8556,6.2115
18.9098,6.2926
18.9288,6.3882
18.9288,6.9082
18.9098,7.0039
18.8556,7.0850
18.7745,7.1392
18.6788,7.1582
18.1588,7.1582
18.0631,7.1392
17.9820,7.0850
17.9278,7.0039
17.9088,6.9082
Z" /> 
<path style="fill:#FFFFFF; fill-opacity:1.0000; 
stroke:#FFFFFF; stroke-width:0.0000; stroke-opacity:1; 
stroke-linecap:round; stroke-linejoin:round;fill-rule:evenodd;"
d="M 17.9088,7.6582
17.9278,7.5626
17.9820,7.4815
18.0631,7.4273
18.1588,7.4082
18.6788,7.4082
18.7745,7.4273
18.8556,7.4815
18.9098,7.5626
18.9288,7.6582
18.9288,8.1783
18.9098,8.2739
18.8556,8.3550
18.7745,8.4092
18.6788,8.4283
18.1588,8.4283
18.0631,8.4092
17.9820,8.3550
17.9278,8.2739
17.9088,8.1783
Z" /> 
<path style="fill:#FFFFFF; fill-opacity:1.0000; 
stroke:#FFFFFF; stroke-width:0.0000; stroke-opacity:1; 
stroke-linecap:round; stroke-linejoin:round;fill-rule:evenodd;"
d="M 15.3688,5.1182
15.3878,5.0226
15.4420,4.9415
15.5231,4.8873
15.6188,4.8682
16.1388,4.8682
16.2345,4.8873
16.3156,4.9415
16.3698,5.0226
16.3888,5.1182
16.3888,5.6382
16.3698,5.7339
16.3156,5.8150
16.2345,5.8692
16.1388,5.8882
15.6188,5.8882
15.5231,5.8692
15.4420,5.8150
15.3878,5.7339
15.3688,5.6382
Z" /> 
<path style="fill:#FFFFFF; fill-opacity:1.0000; 
stroke:#FFFFFF; stroke-width:0.0000; stroke-opacity:1; 
stroke-linecap:round; stroke-linejoin:round;fill-rule:evenodd;"
d="M 15.3688,7.6582
15.3878,7.5626
15.4420,7.4815
15.5231,7.4273
15.6188,7.4082
16.1388,7.4082
16.2345,7.4273
16.3156,7.4815
16.3698,7.5626
16.3888,7.6582
16.3888,8.1783
16.3698,8.2739
16.3156,8.3550
16.2345,8.4092
16.1388,8.4283
15.6188,8.4283
15.5231,8.4092
15.4420,8.3550
15.3878,8.2739
15.3688,8.1783
Z" /> 
<path style="fill:#FFFFFF; fill-opacity:1.0000; 
stroke:#FFFFFF; stroke-width:0.0000; stroke-opacity:1; 
stroke-linecap:round; stroke-linejoin:round;fill-rule:evenodd;"
d="M 15.3688,6.3882
15.3878,6.2926
15.4420,6.2115
15.5231,6.1573
15.6188,6.1382
16.1388,6.1382
16.2345,6.1573
16.3156,6.2115
16.3698,6.2926
16.3888,6.3882
16.3888,6.9082
16.3698,7.0039
16.3156,7.0850
16.2345,7.1392
16.1388,7.1582
15.6188,7.1582
15.5231,7.1392
15.4420,7.0850
15.3878,7.0039
15.3688,6.9082
Z" /> 
<path style="fill:#FFFFFF; fill-opacity:1.0000; 
stroke:#FFFFFF; stroke-width:0.0000; stroke-opacity:1; 
stroke-linecap:round; stroke-linejoin:round;fill-rule:evenodd;"
d="M 16.6388,5.1182
16.6578,5.0226
16.7120,4.9415
16.7931,4.8873
16.8888,4.8682
17.4088,4.8682
17.5045,4.8873
17.5856,4.9415
17.6398,5.0226
17.6588,5.1182
17.6588,5.6382
17.6398,5.7339
17.5856,5.8150
17.5045,5.8692
17.4088,5.8882
16.8888,5.8882
16.7931,5.8692
16.7120,5.8150
16.6578,5.7339
16.6388,5.6382
Z" /> 
<path style="fill:#FFFFFF; fill-opacity:1.0000; 
stroke:#FFFFFF; stroke-width:0.0000; stroke-opacity:1; 
stroke-linecap:round; stroke-linejoin:round;fill-rule:evenodd;"
d="M 12.2988,2.9983
12.3026,2.9791
12.3135,2.9629
12.3297,2.9521
12.3488,2.9482
13.0738,2.9482
13.0929,2.9521
13.1092,2.9629
13.1200,2.9791
13.1238,2.9983
13.1238,3.0982
13.1200,3.1174
13.1092,3.1336
13.0929,3.1444
13.0738,3.1482
12.3488,3.1482
12.3297,3.1444
12.3135,3.1336
12.3026,3.1174
12.2988,3.0982
Z" /> 
<path style="fill:#FFFFFF; fill-opacity:1.0000; 
stroke:#FFFFFF; stroke-width:0.0000; stroke-opacity:1; 
stroke-linecap:round; stroke-linejoin:round;fill-rule:evenodd;"
d="M 12.2988,3.3982
12.3026,3.3791
12.3135,3.3629
12.3297,3.3521
12.3488,3.3482
13.0738,3.3482
13.0929,3.3521
13.1092,3.3629
13.1200,3.3791
13.1238,3.3982
13.1238,3.4982
13.1200,3.5174
13.1092,3.5336
13.0929,3.5444
13.0738,3.5482
12.3488,3.5482
12.3297,3.5444
12.3135,3.5336
12.3026,3.5174
12.2988,3.4982
Z" /> 
<path style="fill:#FFFFFF; fill-opacity:1.0000; 
stroke:#FFFFFF; stroke-width:0.0000; stroke-opacity:1; 
stroke-linecap:round; stroke-linejoin:round;fill-rule:evenodd;"
d="M 12.2988,3.7982
12.3026,3.7791
12.3135,3.7629
12.3297,3.7521
12.3488,3.7482
13.0738,3.7482
13.0929,3.7521
13.1092,3.7629
13.1200,3.7791
13.1238,3.7982
13.1238,3.8982
13.1200,3.9174
13.1092,3.9336
13.0929,3.9444
13.0738,3.9482
12.3488,3.9482
12.3297,3.9444
12.3135,3.9336
12.3026,3.9174
12.2988,3.8982
Z" /> 
<path style="fill:#FFFFFF; fill-opacity:1.0000; 
stroke:#FFFFFF; stroke-width:0.0000; stroke-opacity:1; 
stroke-linecap:round; stroke-linejoin:round;fill-rule:evenodd;"
d="M 12.2988,4.1982
12.3026,4.1791
12.3135,4.1629
12.3297,4.1521
12.3488,4.1482
13.0738,4.1482
13.0929,4.1521
13.1092,4.1629
13.1200,4.1791
13.1238,4.1982
13.1238,4.2982
13.1200,4.3174
13.1092,4.3336
13.0929,4.3444
13.0738,4.3483
12.3488,4.3483
12.3297,4.3444
12.3135,4.3336
12.3026,4.3174
12.2988,4.2982
Z" /> 
<path style="fill:#FFFFFF; fill-opacity:1.0000; 
stroke:#FFFFFF; stroke-width:0.0000; stroke-opacity:1; 
stroke-linecap:round; stroke-linejoin:round;fill-rule:evenodd;"
d="M 12.2988,4.5983
12.3026,4.5791
12.3135,4.5629
12.3297,4.5521
12.3488,4.5482
13.0738,4.5482
13.0929,4.5521
13.1092,4.5629
13.1200,4.5791
13.1238,4.5983
13.1238,4.6982
13.1200,4.7174
13.1092,4.7336
13.0929,4.7444
13.0738,4.7482
12.3488,4.7482
12.3297,4.7444
12.3135,4.7336
12.3026,4.7174
12.2988,4.6982
Z" /> 
<path style="fill:#FFFFFF; fill-opacity:1.0000; 
stroke:#FFFFFF; stroke-width:0.0000; stroke-opacity:1; 
stroke-linecap:round; stroke-linejoin:round;fill-rule:evenodd;"
d="M 12.2988,4.9982
12.3026,4.9791
12.3135,4.9629
12.3297,4.9521
12.3488,4.9482
13.0738,4.9482
13.0929,4.9521
13.1092,4.9629
13.1200,4.9791
13.1238,4.9982
13.1238,5.0983
13.1200,5.1174
13.1092,5.1336
13.0929,5.1444
13.0738,5.1482
12.3488,5.1482
12.3297,5.1444
12.3135,5.1336
12.3026,5.1174
12.2988,5.0983
Z" /> 
<path style="fill:#FFFFFF; fill-opacity:1.0000; 
stroke:#FFFFFF; stroke-width:0.0000; stroke-opacity:1; 
stroke-linecap:round; stroke-linejoin:round;fill-rule:evenodd;"
d="M 12.2988,5.3982
12.3026,5.3791
12.3135,5.3629
12.3297,5.3521
12.3488,5.3483
13.0738,5.3483
13.0929,5.3521
13.1092,5.3629
13.1200,5.3791
13.1238,5.3982
13.1238,5.4982
13.1200,5.5174
13.1092,5.5336
13.0929,5.5444
13.0738,5.5482
12.3488,5.5482
12.3297,5.5444
12.3135,5.5336
12.3026,5.5174
12.2988,5.4982
Z" /> 
<path style="fill:#FFFFFF; fill-opacity:1.0000; 
stroke:#FFFFFF; stroke-width:0.0000; stroke-opacity:1; 
stroke-linecap:round; stroke-linejoin:round;fill-rule:evenodd;"
d="M 12.2988,5.7982
12.3026,5.7791
12.3135,5.7629
12.3297,5.7521
12.3488,5.7482
13.0738,5.7482
13.0929,5.7521
13.1092,5.7629
13.1200,5.7791
13.1238,5.7982
13.1238,5.8982
13.1200,5.9174
13.1092,5.9336
13.0929,5.9444
13.0738,5.9482
12.3488,5.9482
12.3297,5.9444
12.3135,5.9336
12.3026,5.9174
12.2988,5.8982
Z" /> 
<path style="fill:#FFFFFF; fill-opacity:1.0000; 
stroke:#FFFFFF; stroke-width:0.0000; stroke-opacity:1; 
stroke-linecap:round; stroke-linejoin:round;fill-rule:evenodd;"
d="M 12.2988,6.1982
12.3026,6.1791
12.3135,6.1629
12.3297,6.1521
12.3488,6.1482
13.0738,6.1482
13.0929,6.1521
13.1092,6.1629
13.1200,6.1791
13.1238,6.1982
13.1238,6.2982
13.1200,6.3174
13.1092,6.3336
13.0929,6.3444
13.0738,6.3482
12.3488,6.3482
12.3297,6.3444
12.3135,6.3336
12.3026,6.3174
12.2988,6.2982
Z" /> 
<path style="fill:#FFFFFF; fill-opacity:1.0000; 
stroke:#FFFFFF; stroke-width:0.0000; stroke-opacity:1; 
stroke-linecap:round; stroke-linejoin:round;fill-rule:evenodd;"
d="M 12.2988,6.5982
12.3026,6.5791
12.3135,6.5629
12.3297,6.5521
12.3488,6.5482
13.0738,6.5482
13.0929,6.5521
13.1092,6.5629
13.1200,6.5791
13.1238,6.5982
13.1238,6.6982
13.1200,6.7174
13.1092,6.7336
13.0929,6.7444
13.0738,6.7482
12.3488,6.7482
12.3297,6.7444
12.3135,6.7336
12.3026,6.7174
12.2988,6.6982
Z" /> 
<path style="fill:#FFFFFF; fill-opacity:1.0000; 
stroke:#FFFFFF; stroke-width:0.0000; stroke-opacity:1; 
stroke-linecap:round; stroke-linejoin:round;fill-rule:evenodd;"
d="M 12.2988,6.9982
12.3026,6.9791
12.3135,6.9629
12.3297,6.9521
12.3488,6.9482
13.0738,6.9482
13.0929,6.9521
13.1092,6.9629
13.1200,6.9791
13.1238,6.9982
13.1238,7.0982
13.1200,7.1174
13.1092,7.1336
13.0929,7.1444
13.0738,7.1482
12.3488,7.1482
12.3297,7.1444
12.3135,7.1336
12.3026,7.1174
12.2988,7.0982
Z" /> 
<path style="fill:#FFFFFF; fill-opacity:1.0000; 
stroke:#FFFFFF; stroke-width:0.0000; stroke-opacity:1; 
stroke-linecap:round; stroke-linejoin:round;fill-rule:evenodd;"
d="M 12.2988,7.3982
12.3026,7.3791
12.3135,7.3629
12.3297,7.3521
12.3488,7.3482
13.0738,7.3482
13.0929,7.3521
13.1092,7.3629
13.1200,7.3791
13.1238,7.3982
13.1238,7.4982
13.1200,7.5174
13.1092,7.5336
13.0929,7.5444
13.0738,7.5482
12.3488,7.5482
12.3297,7.5444
12.3135,7.5336
12.3026,7.5174
12.2988,7.4982
Z" /> 
<path style="fill:#FFFFFF; fill-opacity:1.0000; 
stroke:#FFFFFF; stroke-width:0.0000; stroke-opacity:1; 
stroke-linecap:round; stroke-linejoin:round;fill-rule:evenodd;"
d="M 12.2988,7.7982
12.3026,7.7791
12.3135,7.7629
12.3297,7.7521
12.3488,7.7482
13.0738,7.7482
13.0929,7.7521
13.1092,7.7629
13.1200,7.7791
13.1238,7.7982
13.1238,7.8982
13.1200,7.9174
13.1092,7.9336
13.0929,7.9444
13.0738,7.9482
12.3488,7.9482
12.3297,7.9444
12.3135,7.9336
12.3026,7.9174
12.2988,7.8982
Z" /> 
<path style="fill:#FFFFFF; fill-opacity:1.0000; 
stroke:#FFFFFF; stroke-width:0.0000; stroke-opacity:1; 
stroke-linecap:round; stroke-linejoin:round;fill-rule:evenodd;"
d="M 12.2988,8.1982
12.3026,8.1791
12.3135,8.1629
12.3297,8.1521
12.3488,8.1482
13.0738,8.1482
13.0929,8.1521
13.1092,8.1629
13.1200,8.1791
13.1238,8.1982
13.1238,8.2982
13.1200,8.3174
13.1092,8.3336
13.0929,8.3444
13.0738,8.3483
12.3488,8.3483
12.3297,8.3444
12.3135,8.3336
12.3026,8.3174
12.2988,8.2982
Z" /> 
<path style="fill:#FFFFFF; fill-opacity:1.0000; 
stroke:#FFFFFF; stroke-width:0.0000; stroke-opacity:1; 
stroke-linecap:round; stroke-linejoin:round;fill-rule:evenodd;"
d="M 12.2988,8.5983
12.3026,8.5791
12.3135,8.5629
12.3297,8.5521
12.3488,8.5482
13.0738,8.5482
13.0929,8.5521
13.1092,8.5629
13.1200,8.5791
13.1238,8.5983
13.1238,8.6982
13.1200,8.7174
13.1092,8.7336
13.0929,8.7444
13.0738,8.7482
12.3488,8.7482
12.3297,8.7444
12.3135,8.7336
12.3026,8.7174
12.2988,8.6982
Z" /> 
<path style="fill:#FFFFFF; fill-opacity:1.0000; 
stroke:#FFFFFF; stroke-width:0.0000; stroke-opacity:1; 
stroke-linecap:round; stroke-linejoin:round;fill-rule:evenodd;"
d="M 12.2988,8.9982
12.3026,8.9791
12.3135,8.9629
12.3297,8.9521
12.3488,8.9482
13.0738,8.9482
13.0929,8.9521
13.1092,8.9629
13.1200,8.9791
13.1238,8.9982
13.1238,9.0983
13.1200,9.1174
13.1092,9.1336
13.0929,9.1444
13.0738,9.1482
12.3488,9.1482
12.3297,9.1444
12.3135,9.1336
12.3026,9.1174
12.2988,9.0983
Z" /> 
<path style="fill:#FFFFFF; fill-opacity:1.0000; 
stroke:#FFFFFF; stroke-width:0.0000; stroke-opacity:1; 
stroke-linecap:round; stroke-linejoin:round;fill-rule:evenodd;"
d="M 12.2988,9.3982
12.3026,9.3791
12.3135,9.3629
12.3297,9.3521
12.3488,9.3483
13.0738,9.3483
13.0929,9.3521
13.1092,9.3629
13.1200,9.3791
13.1238,9.3982
13.1238,9.4982
13.1200,9.5174
13.1092,9.5336
13.0929,9.5444
13.0738,9.5482
12.3488,9.5482
12.3297,9.5444
12.3135,9.5336
12.3026,9.5174
12.2988,9.4982
Z" /> 
<path style="fill:#FFFFFF; fill-opacity:1.0000; 
stroke:#FFFFFF; stroke-width:0.0000; stroke-opacity:1; 
stroke-linecap:round; stroke-linejoin:round;fill-rule:evenodd;"
d="M 12.2988,9.7982
12.3026,9.7791
12.3135,9.7629
12.3297,9.7521
12.3488,9.7482
13.0738,9.7482
13.0929,9.7521
13.1092,9.7629
13.1200,9.7791
13.1238,9.7982
13.1238,9.8982
13.1200,9.9174
13.1092,9.9336
13.0929,9.9444
13.0738,9.9482
12.3488,9.9482
12.3297,9.9444
12.3135,9.9336
12.3026,9.9174
12.2988,9.8982
Z" /> 
<path style="fill:#FFFFFF; fill-opacity:1.0000; 
stroke:#FFFFFF; stroke-width:0.0000; stroke-opacity:1; 
stroke-linecap:round; stroke-linejoin:round;fill-rule:evenodd;"
d="M 12.2988,10.1982
12.3026,10.1791
12.3135,10.1629
12.3297,10.1521
12.3488,10.1482
13.0738,10.1482
13.0929,10.1521
13.1092,10.1629
13.1200,10.1791
13.1238,10.1982
13.1238,10.2982
13.1200,10.3174
13.1092,10.3336
13.0929,10.3444
13.0738,10.3483
12.3488,10.3483
12.3297,10.3444
12.3135,10.3336
12.3026,10.3174
12.2988,10.2982
Z" /> 
<path style="fill:#FFFFFF; fill-opacity:1.0000; 
stroke:#FFFFFF; stroke-width:0.0000; stroke-opacity:1; 
stroke-linecap:round; stroke-linejoin:round;fill-rule:evenodd;"
d="M 13.4488,10.7233
13.4526,10.7041
13.4635,10.6879
13.4797,10.6771
13.4988,10.6732
13.5988,10.6732
13.6179,10.6771
13.6342,10.6879
13.6450,10.7041
13.6488,10.7233
13.6488,11.4482
13.6450,11.4674
13.6342,11.4836
13.6179,11.4944
13.5988,11.4982
13.4988,11.4982
13.4797,11.4944
13.4635,11.4836
13.4526,11.4674
13.4488,11.4482
Z" /> 
<path style="fill:#FFFFFF; fill-opacity:1.0000; 
stroke:#FFFFFF; stroke-width:0.0000; stroke-opacity:1; 
stroke-linecap:round; stroke-linejoin:round;fill-rule:evenodd;"
d="M 13.8488,10.7233
13.8526,10.7041
13.8635,10.6879
13.8797,10.6771
13.8988,10.6732
13.9988,10.6732
14.0179,10.6771
14.0342,10.6879
14.0450,10.7041
14.0488,10.7233
14.0488,11.4482
14.0450,11.4674
14.0342,11.4836
14.0179,11.4944
13.9988,11.4982
13.8988,11.4982
13.8797,11.4944
13.8635,11.4836
13.8526,11.4674
13.8488,11.4482
Z" /> 
<path style="fill:#FFFFFF; fill-opacity:1.0000; 
stroke:#FFFFFF; stroke-width:0.0000; stroke-opacity:1; 
stroke-linecap:round; stroke-linejoin:round;fill-rule:evenodd;"
d="M 14.2488,10.7233
14.2526,10.7041
14.2635,10.6879
14.2797,10.6771
14.2988,10.6732
14.3988,10.6732
14.4179,10.6771
14.4342,10.6879
14.4450,10.7041
14.4488,10.7233
14.4488,11.4482
14.4450,11.4674
14.4342,11.4836
14.4179,11.4944
14.3988,11.4982
14.2988,11.4982
14.2797,11.4944
14.2635,11.4836
14.2526,11.4674
14.2488,11.4482
Z" /> 
<path style="fill:#FFFFFF; fill-opacity:1.0000; 
stroke:#FFFFFF; stroke-width:0.0000; stroke-opacity:1; 
stroke-linecap:round; stroke-linejoin:round;fill-rule:evenodd;"
d="M 14.6488,10.7233
14.6526,10.7041
14.6635,10.6879
14.6797,10.6771
14.6988,10.6732
14.7988,10.6732
14.8179,10.6771
14.8342,10.6879
14.8450,10.7041
14.8488,10.7233
14.8488,11.4482
14.8450,11.4674
14.8342,11.4836
14.8179,11.4944
14.7988,11.4982
14.6988,11.4982
14.6797,11.4944
14.6635,11.4836
14.6526,11.4674
14.6488,11.4482
Z" /> 
<path style="fill:#FFFFFF; fill-opacity:1.0000; 
stroke:#FFFFFF; stroke-width:0.0000; stroke-opacity:1; 
stroke-linecap:round; stroke-linejoin:round;fill-rule:evenodd;"
d="M 15.0488,10.7233
15.0526,10.7041
15.0635,10.6879
15.0797,10.6771
15.0988,10.6732
15.1988,10.6732
15.2179,10.6771
15.2342,10.6879
15.2450,10.7041
15.2488,10.7233
15.2488,11.4482
15.2450,11.4674
15.2342,11.4836
15.2179,11.4944
15.1988,11.4982
15.0988,11.4982
15.0797,11.4944
15.0635,11.4836
15.0526,11.4674
15.0488,11.4482
Z" /> 
<path style="fill:#FFFFFF; fill-opacity:1.0000; 
stroke:#FFFFFF; stroke-width:0.0000; stroke-opacity:1; 
stroke-linecap:round; stroke-linejoin:round;fill-rule:evenodd;"
d="M 15.4488,10.7233
15.4526,10.7041
15.4635,10.6879
15.4797,10.6771
15.4988,10.6732
15.5988,10.6732
15.6179,10.6771
15.6342,10.6879
15.6450,10.7041
15.6488,10.7233
15.6488,11.4482
15.6450,11.4674
15.6342,11.4836
15.6179,11.4944
15.5988,11.4982
15.4988,11.4982
15.4797,11.4944
15.4635,11.4836
15.4526,11.4674
15.4488,11.4482
Z" /> 
<path style="fill:#FFFFFF; fill-opacity:1.0000; 
stroke:#FFFFFF; stroke-width:0.0000; stroke-opacity:1; 
stroke-linecap:round; stroke-linejoin:round;fill-rule:evenodd;"
d="M 15.8488,10.7233
15.8526,10.7041
15.8635,10.6879
15.8797,10.6771
15.8988,10.6732
15.9988,10.6732
16.0179,10.6771
16.0342,10.6879
16.0450,10.7041
16.0488,10.7233
16.0488,11.4482
16.0450,11.4674
16.0342,11.4836
16.0179,11.4944
15.9988,11.4982
15.8988,11.4982
15.8797,11.4944
15.8635,11.4836
15.8526,11.4674
15.8488,11.4482
Z" /> 
<path style="fill:#FFFFFF; fill-opacity:1.0000; 
stroke:#FFFFFF; stroke-width:0.0000; stroke-opacity:1; 
stroke-linecap:round; stroke-linejoin:round;fill-rule:evenodd;"
d="M 16.2488,10.7233
16.2526,10.7041
16.2635,10.6879
16.2797,10.6771
16.2988,10.6732
16.3988,10.6732
16.4179,10.6771
16.4342,10.6879
16.4450,10.7041
16.4488,10.7233
16.4488,11.4482
16.4450,11.4674
16.4342,11.4836
16.4179,11.4944
16.3988,11.4982
16.2988,11.4982
16.2797,11.4944
16.2635,11.4836
16.2526,11.4674
16.2488,11.4482
Z" /> 
<path style="fill:#FFFFFF; fill-opacity:1.0000; 
stroke:#FFFFFF; stroke-width:0.0000; stroke-opacity:1; 
stroke-linecap:round; stroke-linejoin:round;fill-rule:evenodd;"
d="M 16.6488,10.7233
16.6526,10.7041
16.6635,10.6879
16.6797,10.6771
16.6988,10.6732
16.7988,10.6732
16.8179,10.6771
16.8342,10.6879
16.8450,10.7041
16.8488,10.7233
16.8488,11.4482
16.8450,11.4674
16.8342,11.4836
16.8179,11.4944
16.7988,11.4982
16.6988,11.4982
16.6797,11.4944
16.6635,11.4836
16.6526,11.4674
16.6488,11.4482
Z" /> 
<path style="fill:#FFFFFF; fill-opacity:1.0000; 
stroke:#FFFFFF; stroke-width:0.0000; stroke-opacity:1; 
stroke-linecap:round; stroke-linejoin:round;fill-rule:evenodd;"
d="M 17.0488,10.7233
17.0526,10.7041
17.0635,10.6879
17.0797,10.6771
17.0988,10.6732
17.1988,10.6732
17.2179,10.6771
17.2342,10.6879
17.2450,10.7041
17.2488,10.7233
17.2488,11.4482
17.2450,11.4674
17.2342,11.4836
17.2179,11.4944
17.1988,11.4982
17.0988,11.4982
17.0797,11.4944
17.0635,11.4836
17.0526,11.4674
17.0488,11.4482
Z" /> 
<path style="fill:#FFFFFF; fill-opacity:1.0000; 
stroke:#FFFFFF; stroke-width:0.0000; stroke-opacity:1; 
stroke-linecap:round; stroke-linejoin:round;fill-rule:evenodd;"
d="M 17.4488,10.7233
17.4526,10.7041
17.4635,10.6879
17.4797,10.6771
17.4988,10.6732
17.5988,10.6732
17.6179,10.6771
17.6342,10.6879
17.6450,10.7041
17.6488,10.7233
17.6488,11.4482
17.6450,11.4674
17.6342,11.4836
17.6179,11.4944
17.5988,11.4982
17.4988,11.4982
17.4797,11.4944
17.4635,11.4836
17.4526,11.4674
17.4488,11.4482
Z" /> 
<path style="fill:#FFFFFF; fill-opacity:1.0000; 
stroke:#FFFFFF; stroke-width:0.0000; stroke-opacity:1; 
stroke-linecap:round; stroke-linejoin:round;fill-rule:evenodd;"
d="M 17.8488,10.7233
17.8526,10.7041
17.8635,10.6879
17.8797,10.6771
17.8988,10.6732
17.9988,10.6732
18.0179,10.6771
18.0342,10.6879
18.0450,10.7041
18.0488,10.7233
18.0488,11.4482
18.0450,11.4674
18.0342,11.4836
18.0179,11.4944
17.9988,11.4982
17.8988,11.4982
17.8797,11.4944
17.8635,11.4836
17.8526,11.4674
17.8488,11.4482
Z" /> 
<path style="fill:#FFFFFF; fill-opacity:1.0000; 
stroke:#FFFFFF; stroke-width:0.0000; stroke-opacity:1; 
stroke-linecap:round; stroke-linejoin:round;fill-rule:evenodd;"
d="M 18.2488,10.7233
18.2526,10.7041
18.2635,10.6879
18.2797,10.6771
18.2988,10.6732
18.3988,10.6732
18.4179,10.6771
18.4342,10.6879
18.4450,10.7041
18.4488,10.7233
18.4488,11.4482
18.4450,11.4674
18.4342,11.4836
18.4179,11.4944
18.3988,11.4982
18.2988,11.4982
18.2797,11.4944
18.2635,11.4836
18.2526,11.4674
18.2488,11.4482
Z" /> 
<path style="fill:#FFFFFF; fill-opacity:1.0000; 
stroke:#FFFFFF; stroke-width:0.0000; stroke-opacity:1; 
stroke-linecap:round; stroke-linejoin:round;fill-rule:evenodd;"
d="M 18.6488,10.7233
18.6526,10.7041
18.6635,10.6879
18.6797,10.6771
18.6988,10.6732
18.7988,10.6732
18.8179,10.6771
18.8342,10.6879
18.8450,10.7041
18.8488,10.7233
18.8488,11.4482
18.8450,11.4674
18.8342,11.4836
18.8179,11.4944
18.7988,11.4982
18.6988,11.4982
18.6797,11.4944
18.6635,11.4836
18.6526,11.4674
18.6488,11.4482
Z" /> 
<path style="fill:#FFFFFF; fill-opacity:1.0000; 
stroke:#FFFFFF; stroke-width:0.0000; stroke-opacity:1; 
stroke-linecap:round; stroke-linejoin:round;fill-rule:evenodd;"
d="M 19.0488,10.7233
19.0526,10.7041
19.0635,10.6879
19.0797,10.6771
19.0988,10.6732
19.1988,10.6732
19.2179,10.6771
19.2342,10.6879
19.2450,10.7041
19.2488,10.7233
19.2488,11.4482
19.2450,11.4674
19.2342,11.4836
19.2179,11.4944
19.1988,11.4982
19.0988,11.4982
19.0797,11.4944
19.0635,11.4836
19.0526,11.4674
19.0488,11.4482
Z" /> 
<path style="fill:#FFFFFF; fill-opacity:1.0000; 
stroke:#FFFFFF; stroke-width:0.0000; stroke-opacity:1; 
stroke-linecap:round; stroke-linejoin:round;fill-rule:evenodd;"
d="M 19.4488,10.7233
19.4526,10.7041
19.4635,10.6879
19.4797,10.6771
19.4988,10.6732
19.5988,10.6732
19.6179,10.6771
19.6342,10.6879
19.6450,10.7041
19.6488,10.7233
19.6488,11.4482
19.6450,11.4674
19.6342,11.4836
19.6179,11.4944
19.5988,11.4982
19.4988,11.4982
19.4797,11.4944
19.4635,11.4836
19.4526,11.4674
19.4488,11.4482
Z" /> 
<path style="fill:#FFFFFF; fill-opacity:1.0000; 
stroke:#FFFFFF; stroke-width:0.0000; stroke-opacity:1; 
stroke-linecap:round; stroke-linejoin:round;fill-rule:evenodd;"
d="M 19.8488,10.7233
19.8526,10.7041
19.8635,10.6879
19.8797,10.6771
19.8988,10.6732
19.9988,10.6732
20.0179,10.6771
20.0342,10.6879
20.0450,10.7041
20.0488,10.7233
20.0488,11.4482
20.0450,11.4674
20.0342,11.4836
20.0179,11.4944
19.9988,11.4982
19.8988,11.4982
19.8797,11.4944
19.8635,11.4836
19.8526,11.4674
19.8488,11.4482
Z" /> 
<path style="fill:#FFFFFF; fill-opacity:1.0000; 
stroke:#FFFFFF; stroke-width:0.0000; stroke-opacity:1; 
stroke-linecap:round; stroke-linejoin:round;fill-rule:evenodd;"
d="M 20.2488,10.7233
20.2526,10.7041
20.2635,10.6879
20.2797,10.6771
20.2988,10.6732
20.3988,10.6732
20.4179,10.6771
20.4342,10.6879
20.4450,10.7041
20.4488,10.7233
20.4488,11.4482
20.4450,11.4674
20.4342,11.4836
20.4179,11.4944
20.3988,11.4982
20.2988,11.4982
20.2797,11.4944
20.2635,11.4836
20.2526,11.4674
20.2488,11.4482
Z" /> 
<path style="fill:#FFFFFF; fill-opacity:1.0000; 
stroke:#FFFFFF; stroke-width:0.0000; stroke-opacity:1; 
stroke-linecap:round; stroke-linejoin:round;fill-rule:evenodd;"
d="M 20.6488,10.7233
20.6526,10.7041
20.6635,10.6879
20.6797,10.6771
20.6988,10.6732
20.7988,10.6732
20.8179,10.6771
20.8342,10.6879
20.8450,10.7041
20.8488,10.7233
20.8488,11.4482
20.8450,11.4674
20.8342,11.4836
20.8179,11.4944
20.7988,11.4982
20.6988,11.4982
20.6797,11.4944
20.6635,11.4836
20.6526,11.4674
20.6488,11.4482
Z" /> 
<path style="fill:#FFFFFF; fill-opacity:1.0000; 
stroke:#FFFFFF; stroke-width:0.0000; stroke-opacity:1; 
stroke-linecap:round; stroke-linejoin:round;fill-rule:evenodd;"
d="M 21.1738,10.1982
21.1776,10.1791
21.1885,10.1629
21.2047,10.1521
21.2238,10.1482
21.9488,10.1482
21.9679,10.1521
21.9842,10.1629
21.9950,10.1791
21.9988,10.1982
21.9988,10.2982
21.9950,10.3174
21.9842,10.3336
21.9679,10.3444
21.9488,10.3483
21.2238,10.3483
21.2047,10.3444
21.1885,10.3336
21.1776,10.3174
21.1738,10.2982
Z" /> 
<path style="fill:#FFFFFF; fill-opacity:1.0000; 
stroke:#FFFFFF; stroke-width:0.0000; stroke-opacity:1; 
stroke-linecap:round; stroke-linejoin:round;fill-rule:evenodd;"
d="M 21.1738,9.7982
21.1776,9.7791
21.1885,9.7629
21.2047,9.7521
21.2238,9.7482
21.9488,9.7482
21.9679,9.7521
21.9842,9.7629
21.9950,9.7791
21.9988,9.7982
21.9988,9.8982
21.9950,9.9174
21.9842,9.9336
21.9679,9.9444
21.9488,9.9482
21.2238,9.9482
21.2047,9.9444
21.1885,9.9336
21.1776,9.9174
21.1738,9.8982
Z" /> 
<path style="fill:#FFFFFF; fill-opacity:1.0000; 
stroke:#FFFFFF; stroke-width:0.0000; stroke-opacity:1; 
stroke-linecap:round; stroke-linejoin:round;fill-rule:evenodd;"
d="M 21.1738,9.3982
21.1776,9.3791
21.1885,9.3629
21.2047,9.3521
21.2238,9.3483
21.9488,9.3483
21.9679,9.3521
21.9842,9.3629
21.9950,9.3791
21.9988,9.3982
21.9988,9.4982
21.9950,9.5174
21.9842,9.5336
21.9679,9.5444
21.9488,9.5482
21.2238,9.5482
21.2047,9.5444
21.1885,9.5336
21.1776,9.5174
21.1738,9.4982
Z" /> 
<path style="fill:#FFFFFF; fill-opacity:1.0000; 
stroke:#FFFFFF; stroke-width:0.0000; stroke-opacity:1; 
stroke-linecap:round; stroke-linejoin:round;fill-rule:evenodd;"
d="M 21.1738,8.9982
21.1776,8.9791
21.1885,8.9629
21.2047,8.9521
21.2238,8.9482
21.9488,8.9482
21.9679,8.9521
21.9842,8.9629
21.9950,8.9791
21.9988,8.9982
21.9988,9.0983
21.9950,9.1174
21.9842,9.1336
21.9679,9.1444
21.9488,9.1482
21.2238,9.1482
21.2047,9.1444
21.1885,9.1336
21.1776,9.1174
21.1738,9.0983
Z" /> 
<path style="fill:#FFFFFF; fill-opacity:1.0000; 
stroke:#FFFFFF; stroke-width:0.0000; stroke-opacity:1; 
stroke-linecap:round; stroke-linejoin:round;fill-rule:evenodd;"
d="M 21.1738,8.5983
21.1776,8.5791
21.1885,8.5629
21.2047,8.5521
21.2238,8.5482
21.9488,8.5482
21.9679,8.5521
21.9842,8.5629
21.9950,8.5791
21.9988,8.5983
21.9988,8.6982
21.9950,8.7174
21.9842,8.7336
21.9679,8.7444
21.9488,8.7482
21.2238,8.7482
21.2047,8.7444
21.1885,8.7336
21.1776,8.7174
21.1738,8.6982
Z" /> 
<path style="fill:#FFFFFF; fill-opacity:1.0000; 
stroke:#FFFFFF; stroke-width:0.0000; stroke-opacity:1; 
stroke-linecap:round; stroke-linejoin:round;fill-rule:evenodd;"
d="M 21.1738,8.1982
21.1776,8.1791
21.1885,8.1629
21.2047,8.1521
21.2238,8.1482
21.9488,8.1482
21.9679,8.1521
21.9842,8.1629
21.9950,8.1791
21.9988,8.1982
21.9988,8.2982
21.9950,8.3174
21.9842,8.3336
21.9679,8.3444
21.9488,8.3483
21.2238,8.3483
21.2047,8.3444
21.1885,8.3336
21.1776,8.3174
21.1738,8.2982
Z" /> 
<path style="fill:#FFFFFF; fill-opacity:1.0000; 
stroke:#FFFFFF; stroke-width:0.0000; stroke-opacity:1; 
stroke-linecap:round; stroke-linejoin:round;fill-rule:evenodd;"
d="M 21.1738,7.7982
21.1776,7.7791
21.1885,7.7629
21.2047,7.7521
21.2238,7.7482
21.9488,7.7482
21.9679,7.7521
21.9842,7.7629
21.9950,7.7791
21.9988,7.7982
21.9988,7.8982
21.9950,7.9174
21.9842,7.9336
21.9679,7.9444
21.9488,7.9482
21.2238,7.9482
21.2047,7.9444
21.1885,7.9336
21.1776,7.9174
21.1738,7.8982
Z" /> 
<path style="fill:#FFFFFF; fill-opacity:1.0000; 
stroke:#FFFFFF; stroke-width:0.0000; stroke-opacity:1; 
stroke-linecap:round; stroke-linejoin:round;fill-rule:evenodd;"
d="M 21.1738,7.3982
21.1776,7.3791
21.1885,7.3629
21.2047,7.3521
21.2238,7.3482
21.9488,7.3482
21.9679,7.3521
21.9842,7.3629
21.9950,7.3791
21.9988,7.3982
21.9988,7.4982
21.9950,7.5174
21.9842,7.5336
21.9679,7.5444
21.9488,7.5482
21.2238,7.5482
21.2047,7.5444
21.1885,7.5336
21.1776,7.5174
21.1738,7.4982
Z" /> 
<path style="fill:#FFFFFF; fill-opacity:1.0000; 
stroke:#FFFFFF; stroke-width:0.0000; stroke-opacity:1; 
stroke-linecap:round; stroke-linejoin:round;fill-rule:evenodd;"
d="M 21.1738,6.9982
21.1776,6.9791
21.1885,6.9629
21.2047,6.9521
21.2238,6.9482
21.9488,6.9482
21.9679,6.9521
21.9842,6.9629
21.9950,6.9791
21.9988,6.9982
21.9988,7.0982
21.9950,7.1174
21.9842,7.1336
21.9679,7.1444
21.9488,7.1482
21.2238,7.1482
21.2047,7.1444
21.1885,7.1336
21.1776,7.1174
21.1738,7.0982
Z" /> 
<path style="fill:#FFFFFF; fill-opacity:1.0000; 
stroke:#FFFFFF; stroke-width:0.0000; stroke-opacity:1; 
stroke-linecap:round; stroke-linejoin:round;fill-rule:evenodd;"
d="M 21.1738,6.5982
21.1776,6.5791
21.1885,6.5629
21.2047,6.5521
21.2238,6.5482
21.9488,6.5482
21.9679,6.5521
21.9842,6.5629
21.9950,6.5791
21.9988,6.5982
21.9988,6.6982
21.9950,6.7174
21.9842,6.7336
21.9679,6.7444
21.9488,6.7482
21.2238,6.7482
21.2047,6.7444
21.1885,6.7336
21.1776,6.7174
21.1738,6.6982
Z" /> 
<path style="fill:#FFFFFF; fill-opacity:1.0000; 
stroke:#FFFFFF; stroke-width:0.0000; stroke-opacity:1; 
stroke-linecap:round; stroke-linejoin:round;fill-rule:evenodd;"
d="M 21.1738,6.1982
21.1776,6.1791
21.1885,6.1629
21.2047,6.1521
21.2238,6.1482
21.9488,6.1482
21.9679,6.1521
21.9842,6.1629
21.9950,6.1791
21.9988,6.1982
21.9988,6.2982
21.9950,6.3174
21.9842,6.3336
21.9679,6.3444
21.9488,6.3482
21.2238,6.3482
21.2047,6.3444
21.1885,6.3336
21.1776,6.3174
21.1738,6.2982
Z" /> 
<path style="fill:#FFFFFF; fill-opacity:1.0000; 
stroke:#FFFFFF; stroke-width:0.0000; stroke-opacity:1; 
stroke-linecap:round; stroke-linejoin:round;fill-rule:evenodd;"
d="M 21.1738,5.7982
21.1776,5.7791
21.1885,5.7629
21.2047,5.7521
21.2238,5.7482
21.9488,5.7482
21.9679,5.7521
21.9842,5.7629
21.9950,5.7791
21.9988,5.7982
21.9988,5.8982
21.9950,5.9174
21.9842,5.9336
21.9679,5.9444
21.9488,5.9482
21.2238,5.9482
21.2047,5.9444
21.1885,5.9336
21.1776,5.9174
21.1738,5.8982
Z" /> 
<path style="fill:#FFFFFF; fill-opacity:1.0000; 
stroke:#FFFFFF; stroke-width:0.0000; stroke-opacity:1; 
stroke-linecap:round; stroke-linejoin:round;fill-rule:evenodd;"
d="M 21.1738,5.3982
21.1776,5.3791
21.1885,5.3629
21.2047,5.3521
21.2238,5.3483
21.9488,5.3483
21.9679,5.3521
21.9842,5.3629
21.9950,5.3791
21.9988,5.3982
21.9988,5.4982
21.9950,5.5174
21.9842,5.5336
21.9679,5.5444
21.9488,5.5482
21.2238,5.5482
21.2047,5.5444
21.1885,5.5336
21.1776,5.5174
21.1738,5.4982
Z" /> 
<path style="fill:#FFFFFF; fill-opacity:1.0000; 
stroke:#FFFFFF; stroke-width:0.0000; stroke-opacity:1; 
stroke-linecap:round; stroke-linejoin:round;fill-rule:evenodd;"
d="M 21.1738,4.9982
21.1776,4.9791
21.1885,4.9629
21.2047,4.9521
21.2238,4.9482
21.9488,4.9482
21.9679,4.9521
21.9842,4.9629
21.9950,4.9791
21.9988,4.9982
21.9988,5.0983
21.9950,5.1174
21.9842,5.1336
21.9679,5.1444
21.9488,5.1482
21.2238,5.1482
21.2047,5.1444
21.1885,5.1336
21.1776,5.1174
21.1738,5.0983
Z" /> 
<path style="fill:#FFFFFF; fill-opacity:1.0000; 
stroke:#FFFFFF; stroke-width:0.0000; stroke-opacity:1; 
stroke-linecap:round; stroke-linejoin:round;fill-rule:evenodd;"
d="M 21.1738,4.5983
21.1776,4.5791
21.1885,4.5629
21.2047,4.5521
21.2238,4.5482
21.9488,4.5482
21.9679,4.5521
21.9842,4.5629
21.9950,4.5791
21.9988,4.5983
21.9988,4.6982
21.9950,4.7174
21.9842,4.7336
21.9679,4.7444
21.9488,4.7482
21.2238,4.7482
21.2047,4.7444
21.1885,4.7336
21.1776,4.7174
21.1738,4.6982
Z" /> 
<path style="fill:#FFFFFF; fill-opacity:1.0000; 
stroke:#FFFFFF; stroke-width:0.0000; stroke-opacity:1; 
stroke-linecap:round; stroke-linejoin:round;fill-rule:evenodd;"
d="M 21.1738,4.1982
21.1776,4.1791
21.1885,4.1629
21.2047,4.1521
21.2238,4.1482
21.9488,4.1482
21.9679,4.1521
21.9842,4.1629
21.9950,4.1791
21.9988,4.1982
21.9988,4.2982
21.9950,4.3174
21.9842,4.3336
21.9679,4.3444
21.9488,4.3483
21.2238,4.3483
21.2047,4.3444
21.1885,4.3336
21.1776,4.3174
21.1738,4.2982
Z" /> 
<path style="fill:#FFFFFF; fill-opacity:1.0000; 
stroke:#FFFFFF; stroke-width:0.0000; stroke-opacity:1; 
stroke-linecap:round; stroke-linejoin:round;fill-rule:evenodd;"
d="M 21.1738,3.7982
21.1776,3.7791
21.1885,3.7629
21.2047,3.7521
21.2238,3.7482
21.9488,3.7482
21.9679,3.7521
21.9842,3.7629
21.9950,3.7791
21.9988,3.7982
21.9988,3.8982
21.9950,3.9174
21.9842,3.9336
21.9679,3.9444
21.9488,3.9482
21.2238,3.9482
21.2047,3.9444
21.1885,3.9336
21.1776,3.9174
21.1738,3.8982
Z" /> 
<path style="fill:#FFFFFF; fill-opacity:1.0000; 
stroke:#FFFFFF; stroke-width:0.0000; stroke-opacity:1; 
stroke-linecap:round; stroke-linejoin:round;fill-rule:evenodd;"
d="M 21.1738,3.3982
21.1776,3.3791
21.1885,3.3629
21.2047,3.3521
21.2238,3.3482
21.9488,3.3482
21.9679,3.3521
21.9842,3.3629
21.9950,3.3791
21.9988,3.3982
21.9988,3.4982
21.9950,3.5174
21.9842,3.5336
21.9679,3.5444
21.9488,3.5482
21.2238,3.5482
21.2047,3.5444
21.1885,3.5336
21.1776,3.5174
21.1738,3.4982
Z" /> 
<path style="fill:#FFFFFF; fill-opacity:1.0000; 
stroke:#FFFFFF; stroke-width:0.0000; stroke-opacity:1; 
stroke-linecap:round; stroke-linejoin:round;fill-rule:evenodd;"
d="M 21.1738,2.9983
21.1776,2.9791
21.1885,2.9629
21.2047,2.9521
21.2238,2.9482
21.9488,2.9482
21.9679,2.9521
21.9842,2.9629
21.9950,2.9791
21.9988,2.9983
21.9988,3.0982
21.9950,3.1174
21.9842,3.1336
21.9679,3.1444
21.9488,3.1482
21.2238,3.1482
21.2047,3.1444
21.1885,3.1336
21.1776,3.1174
21.1738,3.0982
Z" /> 
<path style="fill:#FFFFFF; fill-opacity:1.0000; 
stroke:#FFFFFF; stroke-width:0.0000; stroke-opacity:1; 
stroke-linecap:round; stroke-linejoin:round;fill-rule:evenodd;"
d="M 20.6488,1.8482
20.6526,1.8291
20.6635,1.8129
20.6797,1.8021
20.6988,1.7982
20.7988,1.7982
20.8179,1.8021
20.8342,1.8129
20.8450,1.8291
20.8488,1.8482
20.8488,2.5732
20.8450,2.5924
20.8342,2.6086
20.8179,2.6194
20.7988,2.6233
20.6988,2.6233
20.6797,2.6194
20.6635,2.6086
20.6526,2.5924
20.6488,2.5732
Z" /> 
<path style="fill:#FFFFFF; fill-opacity:1.0000; 
stroke:#FFFFFF; stroke-width:0.0000; stroke-opacity:1; 
stroke-linecap:round; stroke-linejoin:round;fill-rule:evenodd;"
d="M 20.2488,1.8482
20.2526,1.8291
20.2635,1.8129
20.2797,1.8021
20.2988,1.7982
20.3988,1.7982
20.4179,1.8021
20.4342,1.8129
20.4450,1.8291
20.4488,1.8482
20.4488,2.5732
20.4450,2.5924
20.4342,2.6086
20.4179,2.6194
20.3988,2.6233
20.2988,2.6233
20.2797,2.6194
20.2635,2.6086
20.2526,2.5924
20.2488,2.5732
Z" /> 
<path style="fill:#FFFFFF; fill-opacity:1.0000; 
stroke:#FFFFFF; stroke-width:0.0000; stroke-opacity:1; 
stroke-linecap:round; stroke-linejoin:round;fill-rule:evenodd;"
d="M 19.8488,1.8482
19.8526,1.8291
19.8635,1.8129
19.8797,1.8021
19.8988,1.7982
19.9988,1.7982
20.0179,1.8021
20.0342,1.8129
20.0450,1.8291
20.0488,1.8482
20.0488,2.5732
20.0450,2.5924
20.0342,2.6086
20.0179,2.6194
19.9988,2.6233
19.8988,2.6233
19.8797,2.6194
19.8635,2.6086
19.8526,2.5924
19.8488,2.5732
Z" /> 
<path style="fill:#FFFFFF; fill-opacity:1.0000; 
stroke:#FFFFFF; stroke-width:0.0000; stroke-opacity:1; 
stroke-linecap:round; stroke-linejoin:round;fill-rule:evenodd;"
d="M 19.4488,1.8482
19.4526,1.8291
19.4635,1.8129
19.4797,1.8021
19.4988,1.7982
19.5988,1.7982
19.6179,1.8021
19.6342,1.8129
19.6450,1.8291
19.6488,1.8482
19.6488,2.5732
19.6450,2.5924
19.6342,2.6086
19.6179,2.6194
19.5988,2.6233
19.4988,2.6233
19.4797,2.6194
19.4635,2.6086
19.4526,2.5924
19.4488,2.5732
Z" /> 
<path style="fill:#FFFFFF; fill-opacity:1.0000; 
stroke:#FFFFFF; stroke-width:0.0000; stroke-opacity:1; 
stroke-linecap:round; stroke-linejoin:round;fill-rule:evenodd;"
d="M 19.0488,1.8482
19.0526,1.8291
19.0635,1.8129
19.0797,1.8021
19.0988,1.7982
19.1988,1.7982
19.2179,1.8021
19.2342,1.8129
19.2450,1.8291
19.2488,1.8482
19.2488,2.5732
19.2450,2.5924
19.2342,2.6086
19.2179,2.6194
19.1988,2.6233
19.0988,2.6233
19.0797,2.6194
19.0635,2.6086
19.0526,2.5924
19.0488,2.5732
Z" /> 
<path style="fill:#FFFFFF; fill-opacity:1.0000; 
stroke:#FFFFFF; stroke-width:0.0000; stroke-opacity:1; 
stroke-linecap:round; stroke-linejoin:round;fill-rule:evenodd;"
d="M 18.6488,1.8482
18.6526,1.8291
18.6635,1.8129
18.6797,1.8021
18.6988,1.7982
18.7988,1.7982
18.8179,1.8021
18.8342,1.8129
18.8450,1.8291
18.8488,1.8482
18.8488,2.5732
18.8450,2.5924
18.8342,2.6086
18.8179,2.6194
18.7988,2.6233
18.6988,2.6233
18.6797,2.6194
18.6635,2.6086
18.6526,2.5924
18.6488,2.5732
Z" /> 
<path style="fill:#FFFFFF; fill-opacity:1.0000; 
stroke:#FFFFFF; stroke-width:0.0000; stroke-opacity:1; 
stroke-linecap:round; stroke-linejoin:round;fill-rule:evenodd;"
d="M 18.2488,1.8482
18.2526,1.8291
18.2635,1.8129
18.2797,1.8021
18.2988,1.7982
18.3988,1.7982
18.4179,1.8021
18.4342,1.8129
18.4450,1.8291
18.4488,1.8482
18.4488,2.5732
18.4450,2.5924
18.4342,2.6086
18.4179,2.6194
18.3988,2.6233
18.2988,2.6233
18.2797,2.6194
18.2635,2.6086
18.2526,2.5924
18.2488,2.5732
Z" /> 
<path style="fill:#FFFFFF; fill-opacity:1.0000; 
stroke:#FFFFFF; stroke-width:0.0000; stroke-opacity:1; 
stroke-linecap:round; stroke-linejoin:round;fill-rule:evenodd;"
d="M 17.8488,1.8482
17.8526,1.8291
17.8635,1.8129
17.8797,1.8021
17.8988,1.7982
17.9988,1.7982
18.0179,1.8021
18.0342,1.8129
18.0450,1.8291
18.0488,1.8482
18.0488,2.5732
18.0450,2.5924
18.0342,2.6086
18.0179,2.6194
17.9988,2.6233
17.8988,2.6233
17.8797,2.6194
17.8635,2.6086
17.8526,2.5924
17.8488,2.5732
Z" /> 
<path style="fill:#FFFFFF; fill-opacity:1.0000; 
stroke:#FFFFFF; stroke-width:0.0000; stroke-opacity:1; 
stroke-linecap:round; stroke-linejoin:round;fill-rule:evenodd;"
d="M 17.4488,1.8482
17.4526,1.8291
17.4635,1.8129
17.4797,1.8021
17.4988,1.7982
17.5988,1.7982
17.6179,1.8021
17.6342,1.8129
17.6450,1.8291
17.6488,1.8482
17.6488,2.5732
17.6450,2.5924
17.6342,2.6086
17.6179,2.6194
17.5988,2.6233
17.4988,2.6233
17.4797,2.6194
17.4635,2.6086
17.4526,2.5924
17.4488,2.5732
Z" /> 
<path style="fill:#FFFFFF; fill-opacity:1.0000; 
stroke:#FFFFFF; stroke-width:0.0000; stroke-opacity:1; 
stroke-linecap:round; stroke-linejoin:round;fill-rule:evenodd;"
d="M 17.0488,1.8482
17.0526,1.8291
17.0635,1.8129
17.0797,1.8021
17.0988,1.7982
17.1988,1.7982
17.2179,1.8021
17.2342,1.8129
17.2450,1.8291
17.2488,1.8482
17.2488,2.5732
17.2450,2.5924
17.2342,2.6086
17.2179,2.6194
17.1988,2.6233
17.0988,2.6233
17.0797,2.6194
17.0635,2.6086
17.0526,2.5924
17.0488,2.5732
Z" /> 
<path style="fill:#FFFFFF; fill-opacity:1.0000; 
stroke:#FFFFFF; stroke-width:0.0000; stroke-opacity:1; 
stroke-linecap:round; stroke-linejoin:round;fill-rule:evenodd;"
d="M 16.6488,1.8482
16.6526,1.8291
16.6635,1.8129
16.6797,1.8021
16.6988,1.7982
16.7988,1.7982
16.8179,1.8021
16.8342,1.8129
16.8450,1.8291
16.8488,1.8482
16.8488,2.5732
16.8450,2.5924
16.8342,2.6086
16.8179,2.6194
16.7988,2.6233
16.6988,2.6233
16.6797,2.6194
16.6635,2.6086
16.6526,2.5924
16.6488,2.5732
Z" /> 
<path style="fill:#FFFFFF; fill-opacity:1.0000; 
stroke:#FFFFFF; stroke-width:0.0000; stroke-opacity:1; 
stroke-linecap:round; stroke-linejoin:round;fill-rule:evenodd;"
d="M 16.2488,1.8482
16.2526,1.8291
16.2635,1.8129
16.2797,1.8021
16.2988,1.7982
16.3988,1.7982
16.4179,1.8021
16.4342,1.8129
16.4450,1.8291
16.4488,1.8482
16.4488,2.5732
16.4450,2.5924
16.4342,2.6086
16.4179,2.6194
16.3988,2.6233
16.2988,2.6233
16.2797,2.6194
16.2635,2.6086
16.2526,2.5924
16.2488,2.5732
Z" /> 
<path style="fill:#FFFFFF; fill-opacity:1.0000; 
stroke:#FFFFFF; stroke-width:0.0000; stroke-opacity:1; 
stroke-linecap:round; stroke-linejoin:round;fill-rule:evenodd;"
d="M 15.8488,1.8482
15.8526,1.8291
15.8635,1.8129
15.8797,1.8021
15.8988,1.7982
15.9988,1.7982
16.0179,1.8021
16.0342,1.8129
16.0450,1.8291
16.0488,1.8482
16.0488,2.5732
16.0450,2.5924
16.0342,2.6086
16.0179,2.6194
15.9988,2.6233
15.8988,2.6233
15.8797,2.6194
15.8635,2.6086
15.8526,2.5924
15.8488,2.5732
Z" /> 
<path style="fill:#FFFFFF; fill-opacity:1.0000; 
stroke:#FFFFFF; stroke-width:0.0000; stroke-opacity:1; 
stroke-linecap:round; stroke-linejoin:round;fill-rule:evenodd;"
d="M 15.4488,1.8482
15.4526,1.8291
15.4635,1.8129
15.4797,1.8021
15.4988,1.7982
15.5988,1.7982
15.6179,1.8021
15.6342,1.8129
15.6450,1.8291
15.6488,1.8482
15.6488,2.5732
15.6450,2.5924
15.6342,2.6086
15.6179,2.6194
15.5988,2.6233
15.4988,2.6233
15.4797,2.6194
15.4635,2.6086
15.4526,2.5924
15.4488,2.5732
Z" /> 
<path style="fill:#FFFFFF; fill-opacity:1.0000; 
stroke:#FFFFFF; stroke-width:0.0000; stroke-opacity:1; 
stroke-linecap:round; stroke-linejoin:round;fill-rule:evenodd;"
d="M 15.0488,1.8482
15.0526,1.8291
15.0635,1.8129
15.0797,1.8021
15.0988,1.7982
15.1988,1.7982
15.2179,1.8021
15.2342,1.8129
15.2450,1.8291
15.2488,1.8482
15.2488,2.5732
15.2450,2.5924
15.2342,2.6086
15.2179,2.6194
15.1988,2.6233
15.0988,2.6233
15.0797,2.6194
15.0635,2.6086
15.0526,2.5924
15.0488,2.5732
Z" /> 
<path style="fill:#FFFFFF; fill-opacity:1.0000; 
stroke:#FFFFFF; stroke-width:0.0000; stroke-opacity:1; 
stroke-linecap:round; stroke-linejoin:round;fill-rule:evenodd;"
d="M 14.6488,1.8482
14.6526,1.8291
14.6635,1.8129
14.6797,1.8021
14.6988,1.7982
14.7988,1.7982
14.8179,1.8021
14.8342,1.8129
14.8450,1.8291
14.8488,1.8482
14.8488,2.5732
14.8450,2.5924
14.8342,2.6086
14.8179,2.6194
14.7988,2.6233
14.6988,2.6233
14.6797,2.6194
14.6635,2.6086
14.6526,2.5924
14.6488,2.5732
Z" /> 
<path style="fill:#FFFFFF; fill-opacity:1.0000; 
stroke:#FFFFFF; stroke-width:0.0000; stroke-opacity:1; 
stroke-linecap:round; stroke-linejoin:round;fill-rule:evenodd;"
d="M 14.2488,1.8482
14.2526,1.8291
14.2635,1.8129
14.2797,1.8021
14.2988,1.7982
14.3988,1.7982
14.4179,1.8021
14.4342,1.8129
14.4450,1.8291
14.4488,1.8482
14.4488,2.5732
14.4450,2.5924
14.4342,2.6086
14.4179,2.6194
14.3988,2.6233
14.2988,2.6233
14.2797,2.6194
14.2635,2.6086
14.2526,2.5924
14.2488,2.5732
Z" /> 
<path style="fill:#FFFFFF; fill-opacity:1.0000; 
stroke:#FFFFFF; stroke-width:0.0000; stroke-opacity:1; 
stroke-linecap:round; stroke-linejoin:round;fill-rule:evenodd;"
d="M 13.8488,1.8482
13.8526,1.8291
13.8635,1.8129
13.8797,1.8021
13.8988,1.7982
13.9988,1.7982
14.0179,1.8021
14.0342,1.8129
14.0450,1.8291
14.0488,1.8482
14.0488,2.5732
14.0450,2.5924
14.0342,2.6086
14.0179,2.6194
13.9988,2.6233
13.8988,2.6233
13.8797,2.6194
13.8635,2.6086
13.8526,2.5924
13.8488,2.5732
Z" /> 
<path style="fill:#FFFFFF; fill-opacity:1.0000; 
stroke:#FFFFFF; stroke-width:0.0000; stroke-opacity:1; 
stroke-linecap:round; stroke-linejoin:round;fill-rule:evenodd;"
d="M 13.4488,1.8482
13.4526,1.8291
13.4635,1.8129
13.4797,1.8021
13.4988,1.7982
13.5988,1.7982
13.6179,1.8021
13.6342,1.8129
13.6450,1.8291
13.6488,1.8482
13.6488,2.5732
13.6450,2.5924
13.6342,2.6086
13.6179,2.6194
13.5988,2.6233
13.4988,2.6233
13.4797,2.6194
13.4635,2.6086
13.4526,2.5924
13.4488,2.5732
Z" /> 
</g>
<g >
</g>
<g >
</g>
<g >
</g>
</g>
<g style="fill:#FFFFFF; fill-opacity:1.0000; 
stroke:#FFFFFF; stroke-width:0.0000; stroke-opacity:1; 
stroke-linecap:round; stroke-linejoin:round;">
</g>
<g style="fill:#FFFFFF; fill-opacity:1.0000; 
stroke:#FFFFFF; stroke-width:0.1500; stroke-opacity:1; 
stroke-linecap:round; stroke-linejoin:round;">
</g>
<g style="fill:#FFFFFF; fill-opacity:0.0; 
stroke:#FFFFFF; stroke-width:0.1500; stroke-opacity:1; 
stroke-linecap:round; stroke-linejoin:round;">
<text x="17.1488" y="1.3482"
textLength="4.5357" font-size="1.3333" lengthAdjust="spacingAndGlyphs"
text-anchor="middle" opacity="0">REF**</text>
<g class="stroked-text"><desc>REF**</desc>
<path d="M15.8155 1.3031
L15.4821 0.8269
" />
<path d="M15.2440 1.3031
L15.2440 0.3031
" />
<path d="M15.2440 0.3031
L15.6250 0.3031
" />
<path d="M15.6250 0.3031
L15.7202 0.3507
" />
<path d="M15.7202 0.3507
L15.7679 0.3983
" />
<path d="M15.7679 0.3983
L15.8155 0.4935
" />
<path d="M15.8155 0.4935
L15.8155 0.6364
" />
<path d="M15.8155 0.6364
L15.7679 0.7316
" />
<path d="M15.7679 0.7316
L15.7202 0.7793
" />
<path d="M15.7202 0.7793
L15.6250 0.8269
" />
<path d="M15.6250 0.8269
L15.2440 0.8269
" />
<path d="M16.2440 0.7793
L16.5774 0.7793
" />
<path d="M16.7202 1.3031
L16.2440 1.3031
" />
<path d="M16.2440 1.3031
L16.2440 0.3031
" />
<path d="M16.2440 0.3031
L16.7202 0.3031
" />
<path d="M17.4821 0.7793
L17.1488 0.7793
" />
<path d="M17.1488 1.3031
L17.1488 0.3031
" />
<path d="M17.1488 0.3031
L17.6250 0.3031
" />
<path d="M18.1488 0.3031
L18.1488 0.5412
" />
<path d="M17.9107 0.4459
L18.1488 0.5412
" />
<path d="M18.1488 0.5412
L18.3869 0.4459
" />
<path d="M18.0060 0.7316
L18.1488 0.5412
" />
<path d="M18.1488 0.5412
L18.2917 0.7316
" />
<path d="M18.9107 0.3031
L18.9107 0.5412
" />
<path d="M18.6726 0.4459
L18.9107 0.5412
" />
<path d="M18.9107 0.5412
L19.1488 0.4459
" />
<path d="M18.7679 0.7316
L18.9107 0.5412
" />
<path d="M18.9107 0.5412
L19.0536 0.7316
" />
</g></g>
<g style="fill:#FFFFFF; fill-opacity:0.0; 
stroke:#FFFFFF; stroke-width:0.1200; stroke-opacity:1; 
stroke-linecap:round; stroke-linejoin:round;">
<path d="M21.7588 11.2583
L21.7588 10.6082
" />
<path d="M21.1088 2.0383
L21.7588 2.0383
" />
<path d="M13.1888 2.0383
L12.5388 2.0383
" />
<path d="M12.5388 11.2583
L12.5388 10.6082
" />
<path d="M13.1888 11.2583
L12.5388 11.2583
" />
<path d="M21.1088 11.2583
L21.7588 11.2583
" />
<path d="M21.7588 2.0383
L21.7588 2.6883
" />
<g >
</g>
<g >
</g>
<g >
</g>
<g >
</g>
</g> 
</svg>
