<?xml version="1.0" standalone="no"?>
 <!DOCTYPE svg PUBLIC "-//W3C//DTD SVG 1.1//EN" 
 "http://www.w3.org/Graphics/SVG/1.1/DTD/svg11.dtd"> 
<svg
  xmlns:svg="http://www.w3.org/2000/svg"
  xmlns="http://www.w3.org/2000/svg"
  xmlns:xlink="http://www.w3.org/1999/xlink"
  version="1.1"
  width="34.2900mm" height="13.2842mm" viewBox="0.0000 0.0000 34.2900 13.2842">
<title>SVG Image created as QFN-64-1EP_9x9mm_P0.5mm_EP5.4x5.4mm.svg date 2024/01/16 15:07:16 </title>
  <desc>Image generated by PCBNEW </desc>
<g style="fill:#000000; fill-opacity:1.0000;stroke:#000000; stroke-opacity:1.0000;
stroke-linecap:round; stroke-linejoin:round;"
 transform="translate(0 0) scale(1 1)">
</g>
<g style="fill:#000000; fill-opacity:0.0; 
stroke:#000000; stroke-width:0.0000; stroke-opacity:1; 
stroke-linecap:round; stroke-linejoin:round;">
</g>
<g style="fill:#000000; fill-opacity:1.0000; 
stroke:#000000; stroke-width:0.0212; stroke-opacity:1; 
stroke-linecap:round; stroke-linejoin:round;">
<rect x="-5.000000" y="-5.000000" width="44.297617" height="23.296500" rx="0.000000" />
</g>
<g style="fill:#FFFFFF; fill-opacity:1.0000; 
stroke:#FFFFFF; stroke-width:0.0212; stroke-opacity:1; 
stroke-linecap:round; stroke-linejoin:round;">
<g >
</g>
<g >
</g>
<g >
</g>
<g >
</g>
</g>
<g style="fill:#FFFFFF; fill-opacity:1.0000; 
stroke:#FFFFFF; stroke-width:0.0212; stroke-opacity:1; 
stroke-linecap:round; stroke-linejoin:round;">
<g >
</g>
<g >
</g>
<g >
</g>
<g >
</g>
</g>
<g style="fill:#FFFFFF; fill-opacity:1.0000; 
stroke:#FFFFFF; stroke-width:0.0212; stroke-opacity:1; 
stroke-linecap:round; stroke-linejoin:round;">
<g >
</g>
<g >
</g>
<g >
</g>
<g >
</g>
</g>
<g style="fill:#FFFFFF; fill-opacity:1.0000; 
stroke:#FFFFFF; stroke-width:0.0212; stroke-opacity:1; 
stroke-linecap:round; stroke-linejoin:round;">
<g >
</g>
<g >
</g>
<g >
</g>
<g >
</g>
</g>
<g style="fill:#FFFFFF; fill-opacity:1.0000; 
stroke:#FFFFFF; stroke-width:0.0212; stroke-opacity:1; 
stroke-linecap:round; stroke-linejoin:round;">
<g >
</g>
<g >
</g>
<g >
</g>
<g >
</g>
</g>
<g style="fill:#FFFFFF; fill-opacity:1.0000; 
stroke:#FFFFFF; stroke-width:0.0212; stroke-opacity:1; 
stroke-linecap:round; stroke-linejoin:round;">
<g >
</g>
<g >
</g>
<g >
</g>
<g >
</g>
</g>
<g style="fill:#FFFFFF; fill-opacity:1.0000; 
stroke:#FFFFFF; stroke-width:0.0212; stroke-opacity:1; 
stroke-linecap:round; stroke-linejoin:round;">
<g >
</g>
<g >
</g>
<g >
</g>
<g >
</g>
</g>
<g style="fill:#FFFFFF; fill-opacity:1.0000; 
stroke:#FFFFFF; stroke-width:0.0212; stroke-opacity:1; 
stroke-linecap:round; stroke-linejoin:round;">
<g >
</g>
<g >
</g>
<g >
</g>
<g >
</g>
</g>
<g style="fill:#FFFFFF; fill-opacity:1.0000; 
stroke:#FFFFFF; stroke-width:0.0212; stroke-opacity:1; 
stroke-linecap:round; stroke-linejoin:round;">
<g >
</g>
<g >
</g>
<g >
</g>
<g >
</g>
</g>
<g style="fill:#FFFFFF; fill-opacity:1.0000; 
stroke:#FFFFFF; stroke-width:0.0212; stroke-opacity:1; 
stroke-linecap:round; stroke-linejoin:round;">
<g >
</g>
<g >
</g>
<g >
</g>
<g >
</g>
</g>
<g style="fill:#FFFFFF; fill-opacity:1.0000; 
stroke:#FFFFFF; stroke-width:0.0212; stroke-opacity:1; 
stroke-linecap:round; stroke-linejoin:round;">
<g >
</g>
<g >
</g>
<g >
</g>
<g >
</g>
</g>
<g style="fill:#FFFFFF; fill-opacity:1.0000; 
stroke:#FFFFFF; stroke-width:0.0212; stroke-opacity:1; 
stroke-linecap:round; stroke-linejoin:round;">
<g >
</g>
<g >
</g>
<g >
</g>
<g >
</g>
</g>
<g style="fill:#FFFFFF; fill-opacity:1.0000; 
stroke:#FFFFFF; stroke-width:0.0212; stroke-opacity:1; 
stroke-linecap:round; stroke-linejoin:round;">
<g >
</g>
<g >
</g>
<g >
</g>
<g >
</g>
</g>
<g style="fill:#FFFFFF; fill-opacity:1.0000; 
stroke:#FFFFFF; stroke-width:0.0212; stroke-opacity:1; 
stroke-linecap:round; stroke-linejoin:round;">
<g >
</g>
<g >
</g>
<g >
</g>
<g >
</g>
</g>
<g style="fill:#FFFFFF; fill-opacity:1.0000; 
stroke:#FFFFFF; stroke-width:0.0212; stroke-opacity:1; 
stroke-linecap:round; stroke-linejoin:round;">
<g >
</g>
<g >
</g>
<g >
</g>
<g >
</g>
</g>
<g style="fill:#FFFFFF; fill-opacity:1.0000; 
stroke:#FFFFFF; stroke-width:0.0212; stroke-opacity:1; 
stroke-linecap:round; stroke-linejoin:round;">
<g >
</g>
<g >
</g>
<g >
</g>
<g >
</g>
</g>
<g style="fill:#FFFFFF; fill-opacity:1.0000; 
stroke:#FFFFFF; stroke-width:0.0212; stroke-opacity:1; 
stroke-linecap:round; stroke-linejoin:round;">
<g >
</g>
<g >
</g>
<g >
</g>
<g >
</g>
</g>
<g style="fill:#FFFFFF; fill-opacity:1.0000; 
stroke:#FFFFFF; stroke-width:0.0212; stroke-opacity:1; 
stroke-linecap:round; stroke-linejoin:round;">
<g >
</g>
<g >
</g>
<g >
</g>
<g >
</g>
</g>
<g style="fill:#FFFFFF; fill-opacity:1.0000; 
stroke:#FFFFFF; stroke-width:0.0212; stroke-opacity:1; 
stroke-linecap:round; stroke-linejoin:round;">
<g >
</g>
<g >
</g>
<g >
</g>
<g >
</g>
</g>
<g style="fill:#FFFFFF; fill-opacity:1.0000; 
stroke:#FFFFFF; stroke-width:0.0212; stroke-opacity:1; 
stroke-linecap:round; stroke-linejoin:round;">
<g >
</g>
<g >
</g>
<g >
</g>
<g >
</g>
</g>
<g style="fill:#FFFFFF; fill-opacity:1.0000; 
stroke:#FFFFFF; stroke-width:0.0212; stroke-opacity:1; 
stroke-linecap:round; stroke-linejoin:round;">
<g >
</g>
<g >
</g>
<g >
</g>
<g >
</g>
</g>
<g style="fill:#FFFFFF; fill-opacity:1.0000; 
stroke:#FFFFFF; stroke-width:0.0212; stroke-opacity:1; 
stroke-linecap:round; stroke-linejoin:round;">
<g >
</g>
<g >
</g>
<g >
</g>
<g >
</g>
</g>
<g style="fill:#FFFFFF; fill-opacity:1.0000; 
stroke:#FFFFFF; stroke-width:0.0212; stroke-opacity:1; 
stroke-linecap:round; stroke-linejoin:round;">
<g >
</g>
<g >
</g>
<g >
</g>
<g >
</g>
</g>
<g style="fill:#FFFFFF; fill-opacity:1.0000; 
stroke:#FFFFFF; stroke-width:0.0212; stroke-opacity:1; 
stroke-linecap:round; stroke-linejoin:round;">
<g >
</g>
<g >
</g>
<g >
</g>
<g >
</g>
</g>
<g style="fill:#FFFFFF; fill-opacity:1.0000; 
stroke:#FFFFFF; stroke-width:0.0212; stroke-opacity:1; 
stroke-linecap:round; stroke-linejoin:round;">
<g >
</g>
<g >
</g>
<g >
</g>
<g >
</g>
</g>
<g style="fill:#FFFFFF; fill-opacity:1.0000; 
stroke:#FFFFFF; stroke-width:0.0212; stroke-opacity:1; 
stroke-linecap:round; stroke-linejoin:round;">
<g >
</g>
<g >
</g>
<g >
</g>
<g >
</g>
</g>
<g style="fill:#FFFFFF; fill-opacity:1.0000; 
stroke:#FFFFFF; stroke-width:0.0212; stroke-opacity:1; 
stroke-linecap:round; stroke-linejoin:round;">
<g >
</g>
<g >
</g>
<g >
</g>
<g >
</g>
</g>
<g style="fill:#FFFFFF; fill-opacity:1.0000; 
stroke:#FFFFFF; stroke-width:0.0212; stroke-opacity:1; 
stroke-linecap:round; stroke-linejoin:round;">
<g >
</g>
<g >
</g>
<g >
</g>
<g >
</g>
</g>
<g style="fill:#FFFFFF; fill-opacity:1.0000; 
stroke:#FFFFFF; stroke-width:0.0212; stroke-opacity:1; 
stroke-linecap:round; stroke-linejoin:round;">
<g >
</g>
<g >
</g>
<g >
</g>
<g >
</g>
</g>
<g style="fill:#FFFFFF; fill-opacity:1.0000; 
stroke:#FFFFFF; stroke-width:0.0212; stroke-opacity:1; 
stroke-linecap:round; stroke-linejoin:round;">
<g >
</g>
<g >
</g>
<g >
</g>
<g >
</g>
</g>
<g style="fill:#FFFFFF; fill-opacity:1.0000; 
stroke:#FFFFFF; stroke-width:0.0212; stroke-opacity:1; 
stroke-linecap:round; stroke-linejoin:round;">
<g >
</g>
<g >
</g>
<g >
</g>
<g >
</g>
</g>
<g style="fill:#FFFFFF; fill-opacity:1.0000; 
stroke:#FFFFFF; stroke-width:0.0212; stroke-opacity:1; 
stroke-linecap:round; stroke-linejoin:round;">
<g >
</g>
<g >
</g>
<g >
</g>
<g >
</g>
</g>
<g style="fill:#FFFFFF; fill-opacity:1.0000; 
stroke:#FFFFFF; stroke-width:0.0212; stroke-opacity:1; 
stroke-linecap:round; stroke-linejoin:round;">
<g >
</g>
<g >
</g>
<g >
</g>
<g >
</g>
</g>
<g style="fill:#FFFFFF; fill-opacity:1.0000; 
stroke:#FFFFFF; stroke-width:0.0212; stroke-opacity:1; 
stroke-linecap:round; stroke-linejoin:round;">
<g >
</g>
<g style="fill:#FFFFFF; fill-opacity:1.0000; 
stroke:#FFFFFF; stroke-width:0.0000; stroke-opacity:1; 
stroke-linecap:round; stroke-linejoin:round;">
<path style="fill:#FFFFFF; fill-opacity:1.0000; 
stroke:#FFFFFF; stroke-width:0.0000; stroke-opacity:1; 
stroke-linecap:round; stroke-linejoin:round;fill-rule:evenodd;"
d="M 12.2988,2.8357
12.3036,2.8118
12.3171,2.7916
12.3374,2.7780
12.3613,2.7732
13.0613,2.7732
13.0852,2.7780
13.1055,2.7916
13.1190,2.8118
13.1238,2.8357
13.1238,2.9607
13.1190,2.9847
13.1055,3.0049
13.0852,3.0185
13.0613,3.0232
12.3613,3.0232
12.3374,3.0185
12.3171,3.0049
12.3036,2.9847
12.2988,2.9607
Z" /> 
<path style="fill:#FFFFFF; fill-opacity:1.0000; 
stroke:#FFFFFF; stroke-width:0.0000; stroke-opacity:1; 
stroke-linecap:round; stroke-linejoin:round;fill-rule:evenodd;"
d="M 12.2988,3.3357
12.3036,3.3118
12.3171,3.2916
12.3374,3.2780
12.3613,3.2732
13.0613,3.2732
13.0852,3.2780
13.1055,3.2916
13.1190,3.3118
13.1238,3.3357
13.1238,3.4607
13.1190,3.4847
13.1055,3.5049
13.0852,3.5185
13.0613,3.5232
12.3613,3.5232
12.3374,3.5185
12.3171,3.5049
12.3036,3.4847
12.2988,3.4607
Z" /> 
<path style="fill:#FFFFFF; fill-opacity:1.0000; 
stroke:#FFFFFF; stroke-width:0.0000; stroke-opacity:1; 
stroke-linecap:round; stroke-linejoin:round;fill-rule:evenodd;"
d="M 12.2988,3.8357
12.3036,3.8118
12.3171,3.7916
12.3374,3.7780
12.3613,3.7732
13.0613,3.7732
13.0852,3.7780
13.1055,3.7916
13.1190,3.8118
13.1238,3.8357
13.1238,3.9607
13.1190,3.9847
13.1055,4.0049
13.0852,4.0185
13.0613,4.0232
12.3613,4.0232
12.3374,4.0185
12.3171,4.0049
12.3036,3.9847
12.2988,3.9607
Z" /> 
<path style="fill:#FFFFFF; fill-opacity:1.0000; 
stroke:#FFFFFF; stroke-width:0.0000; stroke-opacity:1; 
stroke-linecap:round; stroke-linejoin:round;fill-rule:evenodd;"
d="M 12.2988,4.3357
12.3036,4.3118
12.3171,4.2916
12.3374,4.2780
12.3613,4.2732
13.0613,4.2732
13.0852,4.2780
13.1055,4.2916
13.1190,4.3118
13.1238,4.3357
13.1238,4.4607
13.1190,4.4847
13.1055,4.5049
13.0852,4.5185
13.0613,4.5232
12.3613,4.5232
12.3374,4.5185
12.3171,4.5049
12.3036,4.4847
12.2988,4.4607
Z" /> 
<path style="fill:#FFFFFF; fill-opacity:1.0000; 
stroke:#FFFFFF; stroke-width:0.0000; stroke-opacity:1; 
stroke-linecap:round; stroke-linejoin:round;fill-rule:evenodd;"
d="M 12.2988,4.8357
12.3036,4.8118
12.3171,4.7916
12.3374,4.7780
12.3613,4.7732
13.0613,4.7732
13.0852,4.7780
13.1055,4.7916
13.1190,4.8118
13.1238,4.8357
13.1238,4.9607
13.1190,4.9847
13.1055,5.0049
13.0852,5.0185
13.0613,5.0232
12.3613,5.0232
12.3374,5.0185
12.3171,5.0049
12.3036,4.9847
12.2988,4.9607
Z" /> 
<path style="fill:#FFFFFF; fill-opacity:1.0000; 
stroke:#FFFFFF; stroke-width:0.0000; stroke-opacity:1; 
stroke-linecap:round; stroke-linejoin:round;fill-rule:evenodd;"
d="M 12.2988,5.3357
12.3036,5.3118
12.3171,5.2916
12.3374,5.2780
12.3613,5.2732
13.0613,5.2732
13.0852,5.2780
13.1055,5.2916
13.1190,5.3118
13.1238,5.3357
13.1238,5.4607
13.1190,5.4847
13.1055,5.5049
13.0852,5.5185
13.0613,5.5232
12.3613,5.5232
12.3374,5.5185
12.3171,5.5049
12.3036,5.4847
12.2988,5.4607
Z" /> 
<path style="fill:#FFFFFF; fill-opacity:1.0000; 
stroke:#FFFFFF; stroke-width:0.0000; stroke-opacity:1; 
stroke-linecap:round; stroke-linejoin:round;fill-rule:evenodd;"
d="M 12.2988,5.8357
12.3036,5.8118
12.3171,5.7916
12.3374,5.7780
12.3613,5.7732
13.0613,5.7732
13.0852,5.7780
13.1055,5.7916
13.1190,5.8118
13.1238,5.8357
13.1238,5.9607
13.1190,5.9847
13.1055,6.0049
13.0852,6.0185
13.0613,6.0232
12.3613,6.0232
12.3374,6.0185
12.3171,6.0049
12.3036,5.9847
12.2988,5.9607
Z" /> 
<path style="fill:#FFFFFF; fill-opacity:1.0000; 
stroke:#FFFFFF; stroke-width:0.0000; stroke-opacity:1; 
stroke-linecap:round; stroke-linejoin:round;fill-rule:evenodd;"
d="M 12.2988,6.3357
12.3036,6.3118
12.3171,6.2916
12.3374,6.2780
12.3613,6.2732
13.0613,6.2732
13.0852,6.2780
13.1055,6.2916
13.1190,6.3118
13.1238,6.3357
13.1238,6.4607
13.1190,6.4847
13.1055,6.5049
13.0852,6.5185
13.0613,6.5232
12.3613,6.5232
12.3374,6.5185
12.3171,6.5049
12.3036,6.4847
12.2988,6.4607
Z" /> 
<path style="fill:#FFFFFF; fill-opacity:1.0000; 
stroke:#FFFFFF; stroke-width:0.0000; stroke-opacity:1; 
stroke-linecap:round; stroke-linejoin:round;fill-rule:evenodd;"
d="M 12.2988,6.8357
12.3036,6.8118
12.3171,6.7916
12.3374,6.7780
12.3613,6.7732
13.0613,6.7732
13.0852,6.7780
13.1055,6.7916
13.1190,6.8118
13.1238,6.8357
13.1238,6.9607
13.1190,6.9847
13.1055,7.0049
13.0852,7.0185
13.0613,7.0232
12.3613,7.0232
12.3374,7.0185
12.3171,7.0049
12.3036,6.9847
12.2988,6.9607
Z" /> 
<path style="fill:#FFFFFF; fill-opacity:1.0000; 
stroke:#FFFFFF; stroke-width:0.0000; stroke-opacity:1; 
stroke-linecap:round; stroke-linejoin:round;fill-rule:evenodd;"
d="M 12.2988,7.3357
12.3036,7.3118
12.3171,7.2916
12.3374,7.2780
12.3613,7.2732
13.0613,7.2732
13.0852,7.2780
13.1055,7.2916
13.1190,7.3118
13.1238,7.3357
13.1238,7.4607
13.1190,7.4847
13.1055,7.5049
13.0852,7.5185
13.0613,7.5232
12.3613,7.5232
12.3374,7.5185
12.3171,7.5049
12.3036,7.4847
12.2988,7.4607
Z" /> 
<path style="fill:#FFFFFF; fill-opacity:1.0000; 
stroke:#FFFFFF; stroke-width:0.0000; stroke-opacity:1; 
stroke-linecap:round; stroke-linejoin:round;fill-rule:evenodd;"
d="M 12.2988,7.8357
12.3036,7.8118
12.3171,7.7916
12.3374,7.7780
12.3613,7.7732
13.0613,7.7732
13.0852,7.7780
13.1055,7.7916
13.1190,7.8118
13.1238,7.8357
13.1238,7.9607
13.1190,7.9847
13.1055,8.0049
13.0852,8.0185
13.0613,8.0232
12.3613,8.0232
12.3374,8.0185
12.3171,8.0049
12.3036,7.9847
12.2988,7.9607
Z" /> 
<path style="fill:#FFFFFF; fill-opacity:1.0000; 
stroke:#FFFFFF; stroke-width:0.0000; stroke-opacity:1; 
stroke-linecap:round; stroke-linejoin:round;fill-rule:evenodd;"
d="M 12.2988,8.3357
12.3036,8.3118
12.3171,8.2916
12.3374,8.2780
12.3613,8.2732
13.0613,8.2732
13.0852,8.2780
13.1055,8.2916
13.1190,8.3118
13.1238,8.3357
13.1238,8.4607
13.1190,8.4847
13.1055,8.5049
13.0852,8.5185
13.0613,8.5232
12.3613,8.5232
12.3374,8.5185
12.3171,8.5049
12.3036,8.4847
12.2988,8.4607
Z" /> 
<path style="fill:#FFFFFF; fill-opacity:1.0000; 
stroke:#FFFFFF; stroke-width:0.0000; stroke-opacity:1; 
stroke-linecap:round; stroke-linejoin:round;fill-rule:evenodd;"
d="M 12.2988,8.8357
12.3036,8.8118
12.3171,8.7916
12.3374,8.7780
12.3613,8.7732
13.0613,8.7732
13.0852,8.7780
13.1055,8.7916
13.1190,8.8118
13.1238,8.8357
13.1238,8.9607
13.1190,8.9847
13.1055,9.0049
13.0852,9.0185
13.0613,9.0232
12.3613,9.0232
12.3374,9.0185
12.3171,9.0049
12.3036,8.9847
12.2988,8.9607
Z" /> 
<path style="fill:#FFFFFF; fill-opacity:1.0000; 
stroke:#FFFFFF; stroke-width:0.0000; stroke-opacity:1; 
stroke-linecap:round; stroke-linejoin:round;fill-rule:evenodd;"
d="M 12.2988,9.3357
12.3036,9.3118
12.3171,9.2916
12.3374,9.2780
12.3613,9.2732
13.0613,9.2732
13.0852,9.2780
13.1055,9.2916
13.1190,9.3118
13.1238,9.3357
13.1238,9.4607
13.1190,9.4847
13.1055,9.5049
13.0852,9.5185
13.0613,9.5232
12.3613,9.5232
12.3374,9.5185
12.3171,9.5049
12.3036,9.4847
12.2988,9.4607
Z" /> 
<path style="fill:#FFFFFF; fill-opacity:1.0000; 
stroke:#FFFFFF; stroke-width:0.0000; stroke-opacity:1; 
stroke-linecap:round; stroke-linejoin:round;fill-rule:evenodd;"
d="M 12.2988,9.8357
12.3036,9.8118
12.3171,9.7916
12.3374,9.7780
12.3613,9.7732
13.0613,9.7732
13.0852,9.7780
13.1055,9.7916
13.1190,9.8118
13.1238,9.8357
13.1238,9.9607
13.1190,9.9847
13.1055,10.0049
13.0852,10.0185
13.0613,10.0232
12.3613,10.0232
12.3374,10.0185
12.3171,10.0049
12.3036,9.9847
12.2988,9.9607
Z" /> 
<path style="fill:#FFFFFF; fill-opacity:1.0000; 
stroke:#FFFFFF; stroke-width:0.0000; stroke-opacity:1; 
stroke-linecap:round; stroke-linejoin:round;fill-rule:evenodd;"
d="M 12.2988,10.3357
12.3036,10.3118
12.3171,10.2916
12.3374,10.2780
12.3613,10.2732
13.0613,10.2732
13.0852,10.2780
13.1055,10.2916
13.1190,10.3118
13.1238,10.3357
13.1238,10.4607
13.1190,10.4847
13.1055,10.5049
13.0852,10.5185
13.0613,10.5232
12.3613,10.5232
12.3374,10.5185
12.3171,10.5049
12.3036,10.4847
12.2988,10.4607
Z" /> 
<path style="fill:#FFFFFF; fill-opacity:1.0000; 
stroke:#FFFFFF; stroke-width:0.0000; stroke-opacity:1; 
stroke-linecap:round; stroke-linejoin:round;fill-rule:evenodd;"
d="M 13.2738,10.7357
13.2786,10.7118
13.2921,10.6916
13.3124,10.6780
13.3363,10.6732
13.4613,10.6732
13.4852,10.6780
13.5055,10.6916
13.5191,10.7118
13.5238,10.7357
13.5238,11.4357
13.5191,11.4597
13.5055,11.4799
13.4852,11.4935
13.4613,11.4982
13.3363,11.4982
13.3124,11.4935
13.2921,11.4799
13.2786,11.4597
13.2738,11.4357
Z" /> 
<path style="fill:#FFFFFF; fill-opacity:1.0000; 
stroke:#FFFFFF; stroke-width:0.0000; stroke-opacity:1; 
stroke-linecap:round; stroke-linejoin:round;fill-rule:evenodd;"
d="M 13.7738,10.7357
13.7786,10.7118
13.7921,10.6916
13.8124,10.6780
13.8363,10.6732
13.9613,10.6732
13.9852,10.6780
14.0055,10.6916
14.0191,10.7118
14.0238,10.7357
14.0238,11.4357
14.0191,11.4597
14.0055,11.4799
13.9852,11.4935
13.9613,11.4982
13.8363,11.4982
13.8124,11.4935
13.7921,11.4799
13.7786,11.4597
13.7738,11.4357
Z" /> 
<path style="fill:#FFFFFF; fill-opacity:1.0000; 
stroke:#FFFFFF; stroke-width:0.0000; stroke-opacity:1; 
stroke-linecap:round; stroke-linejoin:round;fill-rule:evenodd;"
d="M 14.2738,10.7357
14.2786,10.7118
14.2921,10.6916
14.3124,10.6780
14.3363,10.6732
14.4613,10.6732
14.4852,10.6780
14.5055,10.6916
14.5191,10.7118
14.5238,10.7357
14.5238,11.4357
14.5191,11.4597
14.5055,11.4799
14.4852,11.4935
14.4613,11.4982
14.3363,11.4982
14.3124,11.4935
14.2921,11.4799
14.2786,11.4597
14.2738,11.4357
Z" /> 
<path style="fill:#FFFFFF; fill-opacity:1.0000; 
stroke:#FFFFFF; stroke-width:0.0000; stroke-opacity:1; 
stroke-linecap:round; stroke-linejoin:round;fill-rule:evenodd;"
d="M 14.7738,10.7357
14.7786,10.7118
14.7921,10.6916
14.8124,10.6780
14.8363,10.6732
14.9613,10.6732
14.9852,10.6780
15.0055,10.6916
15.0191,10.7118
15.0238,10.7357
15.0238,11.4357
15.0191,11.4597
15.0055,11.4799
14.9852,11.4935
14.9613,11.4982
14.8363,11.4982
14.8124,11.4935
14.7921,11.4799
14.7786,11.4597
14.7738,11.4357
Z" /> 
<path style="fill:#FFFFFF; fill-opacity:1.0000; 
stroke:#FFFFFF; stroke-width:0.0000; stroke-opacity:1; 
stroke-linecap:round; stroke-linejoin:round;fill-rule:evenodd;"
d="M 15.2738,10.7357
15.2786,10.7118
15.2921,10.6916
15.3124,10.6780
15.3363,10.6732
15.4613,10.6732
15.4852,10.6780
15.5055,10.6916
15.5191,10.7118
15.5238,10.7357
15.5238,11.4357
15.5191,11.4597
15.5055,11.4799
15.4852,11.4935
15.4613,11.4982
15.3363,11.4982
15.3124,11.4935
15.2921,11.4799
15.2786,11.4597
15.2738,11.4357
Z" /> 
<path style="fill:#FFFFFF; fill-opacity:1.0000; 
stroke:#FFFFFF; stroke-width:0.0000; stroke-opacity:1; 
stroke-linecap:round; stroke-linejoin:round;fill-rule:evenodd;"
d="M 15.7738,10.7357
15.7786,10.7118
15.7921,10.6916
15.8124,10.6780
15.8363,10.6732
15.9613,10.6732
15.9852,10.6780
16.0055,10.6916
16.0191,10.7118
16.0238,10.7357
16.0238,11.4357
16.0191,11.4597
16.0055,11.4799
15.9852,11.4935
15.9613,11.4982
15.8363,11.4982
15.8124,11.4935
15.7921,11.4799
15.7786,11.4597
15.7738,11.4357
Z" /> 
<path style="fill:#FFFFFF; fill-opacity:1.0000; 
stroke:#FFFFFF; stroke-width:0.0000; stroke-opacity:1; 
stroke-linecap:round; stroke-linejoin:round;fill-rule:evenodd;"
d="M 16.2738,10.7357
16.2786,10.7118
16.2921,10.6916
16.3124,10.6780
16.3363,10.6732
16.4613,10.6732
16.4852,10.6780
16.5055,10.6916
16.5191,10.7118
16.5238,10.7357
16.5238,11.4357
16.5191,11.4597
16.5055,11.4799
16.4852,11.4935
16.4613,11.4982
16.3363,11.4982
16.3124,11.4935
16.2921,11.4799
16.2786,11.4597
16.2738,11.4357
Z" /> 
<path style="fill:#FFFFFF; fill-opacity:1.0000; 
stroke:#FFFFFF; stroke-width:0.0000; stroke-opacity:1; 
stroke-linecap:round; stroke-linejoin:round;fill-rule:evenodd;"
d="M 16.7738,10.7357
16.7786,10.7118
16.7921,10.6916
16.8124,10.6780
16.8363,10.6732
16.9613,10.6732
16.9852,10.6780
17.0055,10.6916
17.0191,10.7118
17.0238,10.7357
17.0238,11.4357
17.0191,11.4597
17.0055,11.4799
16.9852,11.4935
16.9613,11.4982
16.8363,11.4982
16.8124,11.4935
16.7921,11.4799
16.7786,11.4597
16.7738,11.4357
Z" /> 
<path style="fill:#FFFFFF; fill-opacity:1.0000; 
stroke:#FFFFFF; stroke-width:0.0000; stroke-opacity:1; 
stroke-linecap:round; stroke-linejoin:round;fill-rule:evenodd;"
d="M 17.2738,10.7357
17.2786,10.7118
17.2921,10.6916
17.3124,10.6780
17.3363,10.6732
17.4613,10.6732
17.4852,10.6780
17.5055,10.6916
17.5191,10.7118
17.5238,10.7357
17.5238,11.4357
17.5191,11.4597
17.5055,11.4799
17.4852,11.4935
17.4613,11.4982
17.3363,11.4982
17.3124,11.4935
17.2921,11.4799
17.2786,11.4597
17.2738,11.4357
Z" /> 
<path style="fill:#FFFFFF; fill-opacity:1.0000; 
stroke:#FFFFFF; stroke-width:0.0000; stroke-opacity:1; 
stroke-linecap:round; stroke-linejoin:round;fill-rule:evenodd;"
d="M 17.7738,10.7357
17.7786,10.7118
17.7921,10.6916
17.8124,10.6780
17.8363,10.6732
17.9613,10.6732
17.9852,10.6780
18.0055,10.6916
18.0191,10.7118
18.0238,10.7357
18.0238,11.4357
18.0191,11.4597
18.0055,11.4799
17.9852,11.4935
17.9613,11.4982
17.8363,11.4982
17.8124,11.4935
17.7921,11.4799
17.7786,11.4597
17.7738,11.4357
Z" /> 
<path style="fill:#FFFFFF; fill-opacity:1.0000; 
stroke:#FFFFFF; stroke-width:0.0000; stroke-opacity:1; 
stroke-linecap:round; stroke-linejoin:round;fill-rule:evenodd;"
d="M 18.2738,10.7357
18.2786,10.7118
18.2921,10.6916
18.3124,10.6780
18.3363,10.6732
18.4613,10.6732
18.4852,10.6780
18.5055,10.6916
18.5191,10.7118
18.5238,10.7357
18.5238,11.4357
18.5191,11.4597
18.5055,11.4799
18.4852,11.4935
18.4613,11.4982
18.3363,11.4982
18.3124,11.4935
18.2921,11.4799
18.2786,11.4597
18.2738,11.4357
Z" /> 
<path style="fill:#FFFFFF; fill-opacity:1.0000; 
stroke:#FFFFFF; stroke-width:0.0000; stroke-opacity:1; 
stroke-linecap:round; stroke-linejoin:round;fill-rule:evenodd;"
d="M 18.7738,10.7357
18.7786,10.7118
18.7921,10.6916
18.8124,10.6780
18.8363,10.6732
18.9613,10.6732
18.9852,10.6780
19.0055,10.6916
19.0191,10.7118
19.0238,10.7357
19.0238,11.4357
19.0191,11.4597
19.0055,11.4799
18.9852,11.4935
18.9613,11.4982
18.8363,11.4982
18.8124,11.4935
18.7921,11.4799
18.7786,11.4597
18.7738,11.4357
Z" /> 
<path style="fill:#FFFFFF; fill-opacity:1.0000; 
stroke:#FFFFFF; stroke-width:0.0000; stroke-opacity:1; 
stroke-linecap:round; stroke-linejoin:round;fill-rule:evenodd;"
d="M 19.2738,10.7357
19.2786,10.7118
19.2921,10.6916
19.3124,10.6780
19.3363,10.6732
19.4613,10.6732
19.4852,10.6780
19.5055,10.6916
19.5191,10.7118
19.5238,10.7357
19.5238,11.4357
19.5191,11.4597
19.5055,11.4799
19.4852,11.4935
19.4613,11.4982
19.3363,11.4982
19.3124,11.4935
19.2921,11.4799
19.2786,11.4597
19.2738,11.4357
Z" /> 
<path style="fill:#FFFFFF; fill-opacity:1.0000; 
stroke:#FFFFFF; stroke-width:0.0000; stroke-opacity:1; 
stroke-linecap:round; stroke-linejoin:round;fill-rule:evenodd;"
d="M 19.7738,10.7357
19.7786,10.7118
19.7921,10.6916
19.8124,10.6780
19.8363,10.6732
19.9613,10.6732
19.9852,10.6780
20.0055,10.6916
20.0191,10.7118
20.0238,10.7357
20.0238,11.4357
20.0191,11.4597
20.0055,11.4799
19.9852,11.4935
19.9613,11.4982
19.8363,11.4982
19.8124,11.4935
19.7921,11.4799
19.7786,11.4597
19.7738,11.4357
Z" /> 
<path style="fill:#FFFFFF; fill-opacity:1.0000; 
stroke:#FFFFFF; stroke-width:0.0000; stroke-opacity:1; 
stroke-linecap:round; stroke-linejoin:round;fill-rule:evenodd;"
d="M 20.2738,10.7357
20.2786,10.7118
20.2921,10.6916
20.3124,10.6780
20.3363,10.6732
20.4613,10.6732
20.4852,10.6780
20.5055,10.6916
20.5191,10.7118
20.5238,10.7357
20.5238,11.4357
20.5191,11.4597
20.5055,11.4799
20.4852,11.4935
20.4613,11.4982
20.3363,11.4982
20.3124,11.4935
20.2921,11.4799
20.2786,11.4597
20.2738,11.4357
Z" /> 
<path style="fill:#FFFFFF; fill-opacity:1.0000; 
stroke:#FFFFFF; stroke-width:0.0000; stroke-opacity:1; 
stroke-linecap:round; stroke-linejoin:round;fill-rule:evenodd;"
d="M 20.7738,10.7357
20.7786,10.7118
20.7921,10.6916
20.8124,10.6780
20.8363,10.6732
20.9613,10.6732
20.9852,10.6780
21.0055,10.6916
21.0191,10.7118
21.0238,10.7357
21.0238,11.4357
21.0191,11.4597
21.0055,11.4799
20.9852,11.4935
20.9613,11.4982
20.8363,11.4982
20.8124,11.4935
20.7921,11.4799
20.7786,11.4597
20.7738,11.4357
Z" /> 
<path style="fill:#FFFFFF; fill-opacity:1.0000; 
stroke:#FFFFFF; stroke-width:0.0000; stroke-opacity:1; 
stroke-linecap:round; stroke-linejoin:round;fill-rule:evenodd;"
d="M 21.1738,10.3357
21.1786,10.3118
21.1921,10.2916
21.2124,10.2780
21.2363,10.2732
21.9363,10.2732
21.9602,10.2780
21.9805,10.2916
21.9940,10.3118
21.9988,10.3357
21.9988,10.4607
21.9940,10.4847
21.9805,10.5049
21.9602,10.5185
21.9363,10.5232
21.2363,10.5232
21.2124,10.5185
21.1921,10.5049
21.1786,10.4847
21.1738,10.4607
Z" /> 
<path style="fill:#FFFFFF; fill-opacity:1.0000; 
stroke:#FFFFFF; stroke-width:0.0000; stroke-opacity:1; 
stroke-linecap:round; stroke-linejoin:round;fill-rule:evenodd;"
d="M 21.1738,9.8357
21.1786,9.8118
21.1921,9.7916
21.2124,9.7780
21.2363,9.7732
21.9363,9.7732
21.9602,9.7780
21.9805,9.7916
21.9940,9.8118
21.9988,9.8357
21.9988,9.9607
21.9940,9.9847
21.9805,10.0049
21.9602,10.0185
21.9363,10.0232
21.2363,10.0232
21.2124,10.0185
21.1921,10.0049
21.1786,9.9847
21.1738,9.9607
Z" /> 
<path style="fill:#FFFFFF; fill-opacity:1.0000; 
stroke:#FFFFFF; stroke-width:0.0000; stroke-opacity:1; 
stroke-linecap:round; stroke-linejoin:round;fill-rule:evenodd;"
d="M 21.1738,9.3357
21.1786,9.3118
21.1921,9.2916
21.2124,9.2780
21.2363,9.2732
21.9363,9.2732
21.9602,9.2780
21.9805,9.2916
21.9940,9.3118
21.9988,9.3357
21.9988,9.4607
21.9940,9.4847
21.9805,9.5049
21.9602,9.5185
21.9363,9.5232
21.2363,9.5232
21.2124,9.5185
21.1921,9.5049
21.1786,9.4847
21.1738,9.4607
Z" /> 
<path style="fill:#FFFFFF; fill-opacity:1.0000; 
stroke:#FFFFFF; stroke-width:0.0000; stroke-opacity:1; 
stroke-linecap:round; stroke-linejoin:round;fill-rule:evenodd;"
d="M 21.1738,8.8357
21.1786,8.8118
21.1921,8.7916
21.2124,8.7780
21.2363,8.7732
21.9363,8.7732
21.9602,8.7780
21.9805,8.7916
21.9940,8.8118
21.9988,8.8357
21.9988,8.9607
21.9940,8.9847
21.9805,9.0049
21.9602,9.0185
21.9363,9.0232
21.2363,9.0232
21.2124,9.0185
21.1921,9.0049
21.1786,8.9847
21.1738,8.9607
Z" /> 
<path style="fill:#FFFFFF; fill-opacity:1.0000; 
stroke:#FFFFFF; stroke-width:0.0000; stroke-opacity:1; 
stroke-linecap:round; stroke-linejoin:round;fill-rule:evenodd;"
d="M 21.1738,8.3357
21.1786,8.3118
21.1921,8.2916
21.2124,8.2780
21.2363,8.2732
21.9363,8.2732
21.9602,8.2780
21.9805,8.2916
21.9940,8.3118
21.9988,8.3357
21.9988,8.4607
21.9940,8.4847
21.9805,8.5049
21.9602,8.5185
21.9363,8.5232
21.2363,8.5232
21.2124,8.5185
21.1921,8.5049
21.1786,8.4847
21.1738,8.4607
Z" /> 
<path style="fill:#FFFFFF; fill-opacity:1.0000; 
stroke:#FFFFFF; stroke-width:0.0000; stroke-opacity:1; 
stroke-linecap:round; stroke-linejoin:round;fill-rule:evenodd;"
d="M 21.1738,7.8357
21.1786,7.8118
21.1921,7.7916
21.2124,7.7780
21.2363,7.7732
21.9363,7.7732
21.9602,7.7780
21.9805,7.7916
21.9940,7.8118
21.9988,7.8357
21.9988,7.9607
21.9940,7.9847
21.9805,8.0049
21.9602,8.0185
21.9363,8.0232
21.2363,8.0232
21.2124,8.0185
21.1921,8.0049
21.1786,7.9847
21.1738,7.9607
Z" /> 
<path style="fill:#FFFFFF; fill-opacity:1.0000; 
stroke:#FFFFFF; stroke-width:0.0000; stroke-opacity:1; 
stroke-linecap:round; stroke-linejoin:round;fill-rule:evenodd;"
d="M 21.1738,7.3357
21.1786,7.3118
21.1921,7.2916
21.2124,7.2780
21.2363,7.2732
21.9363,7.2732
21.9602,7.2780
21.9805,7.2916
21.9940,7.3118
21.9988,7.3357
21.9988,7.4607
21.9940,7.4847
21.9805,7.5049
21.9602,7.5185
21.9363,7.5232
21.2363,7.5232
21.2124,7.5185
21.1921,7.5049
21.1786,7.4847
21.1738,7.4607
Z" /> 
<path style="fill:#FFFFFF; fill-opacity:1.0000; 
stroke:#FFFFFF; stroke-width:0.0000; stroke-opacity:1; 
stroke-linecap:round; stroke-linejoin:round;fill-rule:evenodd;"
d="M 21.1738,6.8357
21.1786,6.8118
21.1921,6.7916
21.2124,6.7780
21.2363,6.7732
21.9363,6.7732
21.9602,6.7780
21.9805,6.7916
21.9940,6.8118
21.9988,6.8357
21.9988,6.9607
21.9940,6.9847
21.9805,7.0049
21.9602,7.0185
21.9363,7.0232
21.2363,7.0232
21.2124,7.0185
21.1921,7.0049
21.1786,6.9847
21.1738,6.9607
Z" /> 
<path style="fill:#FFFFFF; fill-opacity:1.0000; 
stroke:#FFFFFF; stroke-width:0.0000; stroke-opacity:1; 
stroke-linecap:round; stroke-linejoin:round;fill-rule:evenodd;"
d="M 21.1738,6.3357
21.1786,6.3118
21.1921,6.2916
21.2124,6.2780
21.2363,6.2732
21.9363,6.2732
21.9602,6.2780
21.9805,6.2916
21.9940,6.3118
21.9988,6.3357
21.9988,6.4607
21.9940,6.4847
21.9805,6.5049
21.9602,6.5185
21.9363,6.5232
21.2363,6.5232
21.2124,6.5185
21.1921,6.5049
21.1786,6.4847
21.1738,6.4607
Z" /> 
<path style="fill:#FFFFFF; fill-opacity:1.0000; 
stroke:#FFFFFF; stroke-width:0.0000; stroke-opacity:1; 
stroke-linecap:round; stroke-linejoin:round;fill-rule:evenodd;"
d="M 21.1738,5.8357
21.1786,5.8118
21.1921,5.7916
21.2124,5.7780
21.2363,5.7732
21.9363,5.7732
21.9602,5.7780
21.9805,5.7916
21.9940,5.8118
21.9988,5.8357
21.9988,5.9607
21.9940,5.9847
21.9805,6.0049
21.9602,6.0185
21.9363,6.0232
21.2363,6.0232
21.2124,6.0185
21.1921,6.0049
21.1786,5.9847
21.1738,5.9607
Z" /> 
<path style="fill:#FFFFFF; fill-opacity:1.0000; 
stroke:#FFFFFF; stroke-width:0.0000; stroke-opacity:1; 
stroke-linecap:round; stroke-linejoin:round;fill-rule:evenodd;"
d="M 21.1738,5.3357
21.1786,5.3118
21.1921,5.2916
21.2124,5.2780
21.2363,5.2732
21.9363,5.2732
21.9602,5.2780
21.9805,5.2916
21.9940,5.3118
21.9988,5.3357
21.9988,5.4607
21.9940,5.4847
21.9805,5.5049
21.9602,5.5185
21.9363,5.5232
21.2363,5.5232
21.2124,5.5185
21.1921,5.5049
21.1786,5.4847
21.1738,5.4607
Z" /> 
<path style="fill:#FFFFFF; fill-opacity:1.0000; 
stroke:#FFFFFF; stroke-width:0.0000; stroke-opacity:1; 
stroke-linecap:round; stroke-linejoin:round;fill-rule:evenodd;"
d="M 21.1738,4.8357
21.1786,4.8118
21.1921,4.7916
21.2124,4.7780
21.2363,4.7732
21.9363,4.7732
21.9602,4.7780
21.9805,4.7916
21.9940,4.8118
21.9988,4.8357
21.9988,4.9607
21.9940,4.9847
21.9805,5.0049
21.9602,5.0185
21.9363,5.0232
21.2363,5.0232
21.2124,5.0185
21.1921,5.0049
21.1786,4.9847
21.1738,4.9607
Z" /> 
<path style="fill:#FFFFFF; fill-opacity:1.0000; 
stroke:#FFFFFF; stroke-width:0.0000; stroke-opacity:1; 
stroke-linecap:round; stroke-linejoin:round;fill-rule:evenodd;"
d="M 21.1738,4.3357
21.1786,4.3118
21.1921,4.2916
21.2124,4.2780
21.2363,4.2732
21.9363,4.2732
21.9602,4.2780
21.9805,4.2916
21.9940,4.3118
21.9988,4.3357
21.9988,4.4607
21.9940,4.4847
21.9805,4.5049
21.9602,4.5185
21.9363,4.5232
21.2363,4.5232
21.2124,4.5185
21.1921,4.5049
21.1786,4.4847
21.1738,4.4607
Z" /> 
<path style="fill:#FFFFFF; fill-opacity:1.0000; 
stroke:#FFFFFF; stroke-width:0.0000; stroke-opacity:1; 
stroke-linecap:round; stroke-linejoin:round;fill-rule:evenodd;"
d="M 21.1738,3.8357
21.1786,3.8118
21.1921,3.7916
21.2124,3.7780
21.2363,3.7732
21.9363,3.7732
21.9602,3.7780
21.9805,3.7916
21.9940,3.8118
21.9988,3.8357
21.9988,3.9607
21.9940,3.9847
21.9805,4.0049
21.9602,4.0185
21.9363,4.0232
21.2363,4.0232
21.2124,4.0185
21.1921,4.0049
21.1786,3.9847
21.1738,3.9607
Z" /> 
<path style="fill:#FFFFFF; fill-opacity:1.0000; 
stroke:#FFFFFF; stroke-width:0.0000; stroke-opacity:1; 
stroke-linecap:round; stroke-linejoin:round;fill-rule:evenodd;"
d="M 21.1738,3.3357
21.1786,3.3118
21.1921,3.2916
21.2124,3.2780
21.2363,3.2732
21.9363,3.2732
21.9602,3.2780
21.9805,3.2916
21.9940,3.3118
21.9988,3.3357
21.9988,3.4607
21.9940,3.4847
21.9805,3.5049
21.9602,3.5185
21.9363,3.5232
21.2363,3.5232
21.2124,3.5185
21.1921,3.5049
21.1786,3.4847
21.1738,3.4607
Z" /> 
<path style="fill:#FFFFFF; fill-opacity:1.0000; 
stroke:#FFFFFF; stroke-width:0.0000; stroke-opacity:1; 
stroke-linecap:round; stroke-linejoin:round;fill-rule:evenodd;"
d="M 21.1738,2.8357
21.1786,2.8118
21.1921,2.7916
21.2124,2.7780
21.2363,2.7732
21.9363,2.7732
21.9602,2.7780
21.9805,2.7916
21.9940,2.8118
21.9988,2.8357
21.9988,2.9607
21.9940,2.9847
21.9805,3.0049
21.9602,3.0185
21.9363,3.0232
21.2363,3.0232
21.2124,3.0185
21.1921,3.0049
21.1786,2.9847
21.1738,2.9607
Z" /> 
<path style="fill:#FFFFFF; fill-opacity:1.0000; 
stroke:#FFFFFF; stroke-width:0.0000; stroke-opacity:1; 
stroke-linecap:round; stroke-linejoin:round;fill-rule:evenodd;"
d="M 20.7738,1.8607
20.7786,1.8368
20.7921,1.8166
20.8124,1.8030
20.8363,1.7982
20.9613,1.7982
20.9852,1.8030
21.0055,1.8166
21.0191,1.8368
21.0238,1.8607
21.0238,2.5608
21.0191,2.5847
21.0055,2.6049
20.9852,2.6185
20.9613,2.6233
20.8363,2.6233
20.8124,2.6185
20.7921,2.6049
20.7786,2.5847
20.7738,2.5608
Z" /> 
<path style="fill:#FFFFFF; fill-opacity:1.0000; 
stroke:#FFFFFF; stroke-width:0.0000; stroke-opacity:1; 
stroke-linecap:round; stroke-linejoin:round;fill-rule:evenodd;"
d="M 20.2738,1.8607
20.2786,1.8368
20.2921,1.8166
20.3124,1.8030
20.3363,1.7982
20.4613,1.7982
20.4852,1.8030
20.5055,1.8166
20.5191,1.8368
20.5238,1.8607
20.5238,2.5608
20.5191,2.5847
20.5055,2.6049
20.4852,2.6185
20.4613,2.6233
20.3363,2.6233
20.3124,2.6185
20.2921,2.6049
20.2786,2.5847
20.2738,2.5608
Z" /> 
<path style="fill:#FFFFFF; fill-opacity:1.0000; 
stroke:#FFFFFF; stroke-width:0.0000; stroke-opacity:1; 
stroke-linecap:round; stroke-linejoin:round;fill-rule:evenodd;"
d="M 19.7738,1.8607
19.7786,1.8368
19.7921,1.8166
19.8124,1.8030
19.8363,1.7982
19.9613,1.7982
19.9852,1.8030
20.0055,1.8166
20.0191,1.8368
20.0238,1.8607
20.0238,2.5608
20.0191,2.5847
20.0055,2.6049
19.9852,2.6185
19.9613,2.6233
19.8363,2.6233
19.8124,2.6185
19.7921,2.6049
19.7786,2.5847
19.7738,2.5608
Z" /> 
<path style="fill:#FFFFFF; fill-opacity:1.0000; 
stroke:#FFFFFF; stroke-width:0.0000; stroke-opacity:1; 
stroke-linecap:round; stroke-linejoin:round;fill-rule:evenodd;"
d="M 19.2738,1.8607
19.2786,1.8368
19.2921,1.8166
19.3124,1.8030
19.3363,1.7982
19.4613,1.7982
19.4852,1.8030
19.5055,1.8166
19.5191,1.8368
19.5238,1.8607
19.5238,2.5608
19.5191,2.5847
19.5055,2.6049
19.4852,2.6185
19.4613,2.6233
19.3363,2.6233
19.3124,2.6185
19.2921,2.6049
19.2786,2.5847
19.2738,2.5608
Z" /> 
<path style="fill:#FFFFFF; fill-opacity:1.0000; 
stroke:#FFFFFF; stroke-width:0.0000; stroke-opacity:1; 
stroke-linecap:round; stroke-linejoin:round;fill-rule:evenodd;"
d="M 18.7738,1.8607
18.7786,1.8368
18.7921,1.8166
18.8124,1.8030
18.8363,1.7982
18.9613,1.7982
18.9852,1.8030
19.0055,1.8166
19.0191,1.8368
19.0238,1.8607
19.0238,2.5608
19.0191,2.5847
19.0055,2.6049
18.9852,2.6185
18.9613,2.6233
18.8363,2.6233
18.8124,2.6185
18.7921,2.6049
18.7786,2.5847
18.7738,2.5608
Z" /> 
<path style="fill:#FFFFFF; fill-opacity:1.0000; 
stroke:#FFFFFF; stroke-width:0.0000; stroke-opacity:1; 
stroke-linecap:round; stroke-linejoin:round;fill-rule:evenodd;"
d="M 18.2738,1.8607
18.2786,1.8368
18.2921,1.8166
18.3124,1.8030
18.3363,1.7982
18.4613,1.7982
18.4852,1.8030
18.5055,1.8166
18.5191,1.8368
18.5238,1.8607
18.5238,2.5608
18.5191,2.5847
18.5055,2.6049
18.4852,2.6185
18.4613,2.6233
18.3363,2.6233
18.3124,2.6185
18.2921,2.6049
18.2786,2.5847
18.2738,2.5608
Z" /> 
<path style="fill:#FFFFFF; fill-opacity:1.0000; 
stroke:#FFFFFF; stroke-width:0.0000; stroke-opacity:1; 
stroke-linecap:round; stroke-linejoin:round;fill-rule:evenodd;"
d="M 17.7738,1.8607
17.7786,1.8368
17.7921,1.8166
17.8124,1.8030
17.8363,1.7982
17.9613,1.7982
17.9852,1.8030
18.0055,1.8166
18.0191,1.8368
18.0238,1.8607
18.0238,2.5608
18.0191,2.5847
18.0055,2.6049
17.9852,2.6185
17.9613,2.6233
17.8363,2.6233
17.8124,2.6185
17.7921,2.6049
17.7786,2.5847
17.7738,2.5608
Z" /> 
<path style="fill:#FFFFFF; fill-opacity:1.0000; 
stroke:#FFFFFF; stroke-width:0.0000; stroke-opacity:1; 
stroke-linecap:round; stroke-linejoin:round;fill-rule:evenodd;"
d="M 17.2738,1.8607
17.2786,1.8368
17.2921,1.8166
17.3124,1.8030
17.3363,1.7982
17.4613,1.7982
17.4852,1.8030
17.5055,1.8166
17.5191,1.8368
17.5238,1.8607
17.5238,2.5608
17.5191,2.5847
17.5055,2.6049
17.4852,2.6185
17.4613,2.6233
17.3363,2.6233
17.3124,2.6185
17.2921,2.6049
17.2786,2.5847
17.2738,2.5608
Z" /> 
<path style="fill:#FFFFFF; fill-opacity:1.0000; 
stroke:#FFFFFF; stroke-width:0.0000; stroke-opacity:1; 
stroke-linecap:round; stroke-linejoin:round;fill-rule:evenodd;"
d="M 16.7738,1.8607
16.7786,1.8368
16.7921,1.8166
16.8124,1.8030
16.8363,1.7982
16.9613,1.7982
16.9852,1.8030
17.0055,1.8166
17.0191,1.8368
17.0238,1.8607
17.0238,2.5608
17.0191,2.5847
17.0055,2.6049
16.9852,2.6185
16.9613,2.6233
16.8363,2.6233
16.8124,2.6185
16.7921,2.6049
16.7786,2.5847
16.7738,2.5608
Z" /> 
<path style="fill:#FFFFFF; fill-opacity:1.0000; 
stroke:#FFFFFF; stroke-width:0.0000; stroke-opacity:1; 
stroke-linecap:round; stroke-linejoin:round;fill-rule:evenodd;"
d="M 16.2738,1.8607
16.2786,1.8368
16.2921,1.8166
16.3124,1.8030
16.3363,1.7982
16.4613,1.7982
16.4852,1.8030
16.5055,1.8166
16.5191,1.8368
16.5238,1.8607
16.5238,2.5608
16.5191,2.5847
16.5055,2.6049
16.4852,2.6185
16.4613,2.6233
16.3363,2.6233
16.3124,2.6185
16.2921,2.6049
16.2786,2.5847
16.2738,2.5608
Z" /> 
<path style="fill:#FFFFFF; fill-opacity:1.0000; 
stroke:#FFFFFF; stroke-width:0.0000; stroke-opacity:1; 
stroke-linecap:round; stroke-linejoin:round;fill-rule:evenodd;"
d="M 15.7738,1.8607
15.7786,1.8368
15.7921,1.8166
15.8124,1.8030
15.8363,1.7982
15.9613,1.7982
15.9852,1.8030
16.0055,1.8166
16.0191,1.8368
16.0238,1.8607
16.0238,2.5608
16.0191,2.5847
16.0055,2.6049
15.9852,2.6185
15.9613,2.6233
15.8363,2.6233
15.8124,2.6185
15.7921,2.6049
15.7786,2.5847
15.7738,2.5608
Z" /> 
<path style="fill:#FFFFFF; fill-opacity:1.0000; 
stroke:#FFFFFF; stroke-width:0.0000; stroke-opacity:1; 
stroke-linecap:round; stroke-linejoin:round;fill-rule:evenodd;"
d="M 15.2738,1.8607
15.2786,1.8368
15.2921,1.8166
15.3124,1.8030
15.3363,1.7982
15.4613,1.7982
15.4852,1.8030
15.5055,1.8166
15.5191,1.8368
15.5238,1.8607
15.5238,2.5608
15.5191,2.5847
15.5055,2.6049
15.4852,2.6185
15.4613,2.6233
15.3363,2.6233
15.3124,2.6185
15.2921,2.6049
15.2786,2.5847
15.2738,2.5608
Z" /> 
<path style="fill:#FFFFFF; fill-opacity:1.0000; 
stroke:#FFFFFF; stroke-width:0.0000; stroke-opacity:1; 
stroke-linecap:round; stroke-linejoin:round;fill-rule:evenodd;"
d="M 14.7738,1.8607
14.7786,1.8368
14.7921,1.8166
14.8124,1.8030
14.8363,1.7982
14.9613,1.7982
14.9852,1.8030
15.0055,1.8166
15.0191,1.8368
15.0238,1.8607
15.0238,2.5608
15.0191,2.5847
15.0055,2.6049
14.9852,2.6185
14.9613,2.6233
14.8363,2.6233
14.8124,2.6185
14.7921,2.6049
14.7786,2.5847
14.7738,2.5608
Z" /> 
<path style="fill:#FFFFFF; fill-opacity:1.0000; 
stroke:#FFFFFF; stroke-width:0.0000; stroke-opacity:1; 
stroke-linecap:round; stroke-linejoin:round;fill-rule:evenodd;"
d="M 14.2738,1.8607
14.2786,1.8368
14.2921,1.8166
14.3124,1.8030
14.3363,1.7982
14.4613,1.7982
14.4852,1.8030
14.5055,1.8166
14.5191,1.8368
14.5238,1.8607
14.5238,2.5608
14.5191,2.5847
14.5055,2.6049
14.4852,2.6185
14.4613,2.6233
14.3363,2.6233
14.3124,2.6185
14.2921,2.6049
14.2786,2.5847
14.2738,2.5608
Z" /> 
<path style="fill:#FFFFFF; fill-opacity:1.0000; 
stroke:#FFFFFF; stroke-width:0.0000; stroke-opacity:1; 
stroke-linecap:round; stroke-linejoin:round;fill-rule:evenodd;"
d="M 13.7738,1.8607
13.7786,1.8368
13.7921,1.8166
13.8124,1.8030
13.8363,1.7982
13.9613,1.7982
13.9852,1.8030
14.0055,1.8166
14.0191,1.8368
14.0238,1.8607
14.0238,2.5608
14.0191,2.5847
14.0055,2.6049
13.9852,2.6185
13.9613,2.6233
13.8363,2.6233
13.8124,2.6185
13.7921,2.6049
13.7786,2.5847
13.7738,2.5608
Z" /> 
<path style="fill:#FFFFFF; fill-opacity:1.0000; 
stroke:#FFFFFF; stroke-width:0.0000; stroke-opacity:1; 
stroke-linecap:round; stroke-linejoin:round;fill-rule:evenodd;"
d="M 13.2738,1.8607
13.2786,1.8368
13.2921,1.8166
13.3124,1.8030
13.3363,1.7982
13.4613,1.7982
13.4852,1.8030
13.5055,1.8166
13.5191,1.8368
13.5238,1.8607
13.5238,2.5608
13.5191,2.5847
13.5055,2.6049
13.4852,2.6185
13.4613,2.6233
13.3363,2.6233
13.3124,2.6185
13.2921,2.6049
13.2786,2.5847
13.2738,2.5608
Z" /> 
<path style="fill:#FFFFFF; fill-opacity:1.0000; 
stroke:#FFFFFF; stroke-width:0.0000; stroke-opacity:1; 
stroke-linecap:round; stroke-linejoin:round;fill-rule:evenodd;"
d="M 14.4488,9.3483
14.4488,3.9482
19.8488,3.9482
19.8488,9.3483
Z" /> 
</g>
<g >
</g>
<g >
</g>
<g >
</g>
</g>
<g style="fill:#FFFFFF; fill-opacity:1.0000; 
stroke:#FFFFFF; stroke-width:0.0000; stroke-opacity:1; 
stroke-linecap:round; stroke-linejoin:round;">
<g >
<path style="fill:#FFFFFF; fill-opacity:1.0000; 
stroke:#FFFFFF; stroke-width:0.0000; stroke-opacity:1; 
stroke-linecap:round; stroke-linejoin:round;fill-rule:evenodd;"
d="M 14.5788,7.0282
14.5978,6.9326
14.6520,6.8515
14.7331,6.7973
14.8288,6.7782
15.4188,6.7782
15.5145,6.7973
15.5956,6.8515
15.6498,6.9326
15.6688,7.0282
15.6688,7.6182
15.6498,7.7139
15.5956,7.7950
15.5145,7.8492
15.4188,7.8682
14.8288,7.8682
14.7331,7.8492
14.6520,7.7950
14.5978,7.7139
14.5788,7.6182
Z" /> 
<path style="fill:#FFFFFF; fill-opacity:1.0000; 
stroke:#FFFFFF; stroke-width:0.0000; stroke-opacity:1; 
stroke-linecap:round; stroke-linejoin:round;fill-rule:evenodd;"
d="M 15.9288,5.6782
15.9478,5.5826
16.0020,5.5015
16.0831,5.4473
16.1788,5.4282
16.7688,5.4282
16.8645,5.4473
16.9456,5.5015
16.9998,5.5826
17.0188,5.6782
17.0188,6.2683
16.9998,6.3639
16.9456,6.4450
16.8645,6.4992
16.7688,6.5183
16.1788,6.5183
16.0831,6.4992
16.0020,6.4450
15.9478,6.3639
15.9288,6.2683
Z" /> 
<path style="fill:#FFFFFF; fill-opacity:1.0000; 
stroke:#FFFFFF; stroke-width:0.0000; stroke-opacity:1; 
stroke-linecap:round; stroke-linejoin:round;fill-rule:evenodd;"
d="M 18.6288,7.0282
18.6478,6.9326
18.7020,6.8515
18.7831,6.7973
18.8788,6.7782
19.4688,6.7782
19.5645,6.7973
19.6456,6.8515
19.6998,6.9326
19.7188,7.0282
19.7188,7.6182
19.6998,7.7139
19.6456,7.7950
19.5645,7.8492
19.4688,7.8682
18.8788,7.8682
18.7831,7.8492
18.7020,7.7950
18.6478,7.7139
18.6288,7.6182
Z" /> 
<path style="fill:#FFFFFF; fill-opacity:1.0000; 
stroke:#FFFFFF; stroke-width:0.0000; stroke-opacity:1; 
stroke-linecap:round; stroke-linejoin:round;fill-rule:evenodd;"
d="M 18.6288,8.3782
18.6478,8.2826
18.7020,8.2015
18.7831,8.1473
18.8788,8.1282
19.4688,8.1282
19.5645,8.1473
19.6456,8.2015
19.6998,8.2826
19.7188,8.3782
19.7188,8.9682
19.6998,9.0639
19.6456,9.1450
19.5645,9.1992
19.4688,9.2182
18.8788,9.2182
18.7831,9.1992
18.7020,9.1450
18.6478,9.0639
18.6288,8.9682
Z" /> 
<path style="fill:#FFFFFF; fill-opacity:1.0000; 
stroke:#FFFFFF; stroke-width:0.0000; stroke-opacity:1; 
stroke-linecap:round; stroke-linejoin:round;fill-rule:evenodd;"
d="M 17.2788,5.6782
17.2978,5.5826
17.3520,5.5015
17.4331,5.4473
17.5288,5.4282
18.1188,5.4282
18.2145,5.4473
18.2956,5.5015
18.3498,5.5826
18.3688,5.6782
18.3688,6.2683
18.3498,6.3639
18.2956,6.4450
18.2145,6.4992
18.1188,6.5183
17.5288,6.5183
17.4331,6.4992
17.3520,6.4450
17.2978,6.3639
17.2788,6.2683
Z" /> 
<path style="fill:#FFFFFF; fill-opacity:1.0000; 
stroke:#FFFFFF; stroke-width:0.0000; stroke-opacity:1; 
stroke-linecap:round; stroke-linejoin:round;fill-rule:evenodd;"
d="M 14.5788,5.6782
14.5978,5.5826
14.6520,5.5015
14.7331,5.4473
14.8288,5.4282
15.4188,5.4282
15.5145,5.4473
15.5956,5.5015
15.6498,5.5826
15.6688,5.6782
15.6688,6.2683
15.6498,6.3639
15.5956,6.4450
15.5145,6.4992
15.4188,6.5183
14.8288,6.5183
14.7331,6.4992
14.6520,6.4450
14.5978,6.3639
14.5788,6.2683
Z" /> 
<path style="fill:#FFFFFF; fill-opacity:1.0000; 
stroke:#FFFFFF; stroke-width:0.0000; stroke-opacity:1; 
stroke-linecap:round; stroke-linejoin:round;fill-rule:evenodd;"
d="M 18.6288,4.3282
18.6478,4.2326
18.7020,4.1515
18.7831,4.0973
18.8788,4.0782
19.4688,4.0782
19.5645,4.0973
19.6456,4.1515
19.6998,4.2326
19.7188,4.3282
19.7188,4.9182
19.6998,5.0139
19.6456,5.0950
19.5645,5.1492
19.4688,5.1682
18.8788,5.1682
18.7831,5.1492
18.7020,5.0950
18.6478,5.0139
18.6288,4.9182
Z" /> 
<path style="fill:#FFFFFF; fill-opacity:1.0000; 
stroke:#FFFFFF; stroke-width:0.0000; stroke-opacity:1; 
stroke-linecap:round; stroke-linejoin:round;fill-rule:evenodd;"
d="M 15.9288,4.3282
15.9478,4.2326
16.0020,4.1515
16.0831,4.0973
16.1788,4.0782
16.7688,4.0782
16.8645,4.0973
16.9456,4.1515
16.9998,4.2326
17.0188,4.3282
17.0188,4.9182
16.9998,5.0139
16.9456,5.0950
16.8645,5.1492
16.7688,5.1682
16.1788,5.1682
16.0831,5.1492
16.0020,5.0950
15.9478,5.0139
15.9288,4.9182
Z" /> 
<path style="fill:#FFFFFF; fill-opacity:1.0000; 
stroke:#FFFFFF; stroke-width:0.0000; stroke-opacity:1; 
stroke-linecap:round; stroke-linejoin:round;fill-rule:evenodd;"
d="M 17.2788,4.3282
17.2978,4.2326
17.3520,4.1515
17.4331,4.0973
17.5288,4.0782
18.1188,4.0782
18.2145,4.0973
18.2956,4.1515
18.3498,4.2326
18.3688,4.3282
18.3688,4.9182
18.3498,5.0139
18.2956,5.0950
18.2145,5.1492
18.1188,5.1682
17.5288,5.1682
17.4331,5.1492
17.3520,5.0950
17.2978,5.0139
17.2788,4.9182
Z" /> 
<path style="fill:#FFFFFF; fill-opacity:1.0000; 
stroke:#FFFFFF; stroke-width:0.0000; stroke-opacity:1; 
stroke-linecap:round; stroke-linejoin:round;fill-rule:evenodd;"
d="M 15.9288,8.3782
15.9478,8.2826
16.0020,8.2015
16.0831,8.1473
16.1788,8.1282
16.7688,8.1282
16.8645,8.1473
16.9456,8.2015
16.9998,8.2826
17.0188,8.3782
17.0188,8.9682
16.9998,9.0639
16.9456,9.1450
16.8645,9.1992
16.7688,9.2182
16.1788,9.2182
16.0831,9.1992
16.0020,9.1450
15.9478,9.0639
15.9288,8.9682
Z" /> 
<path style="fill:#FFFFFF; fill-opacity:1.0000; 
stroke:#FFFFFF; stroke-width:0.0000; stroke-opacity:1; 
stroke-linecap:round; stroke-linejoin:round;fill-rule:evenodd;"
d="M 17.2788,7.0282
17.2978,6.9326
17.3520,6.8515
17.4331,6.7973
17.5288,6.7782
18.1188,6.7782
18.2145,6.7973
18.2956,6.8515
18.3498,6.9326
18.3688,7.0282
18.3688,7.6182
18.3498,7.7139
18.2956,7.7950
18.2145,7.8492
18.1188,7.8682
17.5288,7.8682
17.4331,7.8492
17.3520,7.7950
17.2978,7.7139
17.2788,7.6182
Z" /> 
<path style="fill:#FFFFFF; fill-opacity:1.0000; 
stroke:#FFFFFF; stroke-width:0.0000; stroke-opacity:1; 
stroke-linecap:round; stroke-linejoin:round;fill-rule:evenodd;"
d="M 17.2788,8.3782
17.2978,8.2826
17.3520,8.2015
17.4331,8.1473
17.5288,8.1282
18.1188,8.1282
18.2145,8.1473
18.2956,8.2015
18.3498,8.2826
18.3688,8.3782
18.3688,8.9682
18.3498,9.0639
18.2956,9.1450
18.2145,9.1992
18.1188,9.2182
17.5288,9.2182
17.4331,9.1992
17.3520,9.1450
17.2978,9.0639
17.2788,8.9682
Z" /> 
<path style="fill:#FFFFFF; fill-opacity:1.0000; 
stroke:#FFFFFF; stroke-width:0.0000; stroke-opacity:1; 
stroke-linecap:round; stroke-linejoin:round;fill-rule:evenodd;"
d="M 15.9288,7.0282
15.9478,6.9326
16.0020,6.8515
16.0831,6.7973
16.1788,6.7782
16.7688,6.7782
16.8645,6.7973
16.9456,6.8515
16.9998,6.9326
17.0188,7.0282
17.0188,7.6182
16.9998,7.7139
16.9456,7.7950
16.8645,7.8492
16.7688,7.8682
16.1788,7.8682
16.0831,7.8492
16.0020,7.7950
15.9478,7.7139
15.9288,7.6182
Z" /> 
<path style="fill:#FFFFFF; fill-opacity:1.0000; 
stroke:#FFFFFF; stroke-width:0.0000; stroke-opacity:1; 
stroke-linecap:round; stroke-linejoin:round;fill-rule:evenodd;"
d="M 14.5788,8.3782
14.5978,8.2826
14.6520,8.2015
14.7331,8.1473
14.8288,8.1282
15.4188,8.1282
15.5145,8.1473
15.5956,8.2015
15.6498,8.2826
15.6688,8.3782
15.6688,8.9682
15.6498,9.0639
15.5956,9.1450
15.5145,9.1992
15.4188,9.2182
14.8288,9.2182
14.7331,9.1992
14.6520,9.1450
14.5978,9.0639
14.5788,8.9682
Z" /> 
<path style="fill:#FFFFFF; fill-opacity:1.0000; 
stroke:#FFFFFF; stroke-width:0.0000; stroke-opacity:1; 
stroke-linecap:round; stroke-linejoin:round;fill-rule:evenodd;"
d="M 18.6288,5.6782
18.6478,5.5826
18.7020,5.5015
18.7831,5.4473
18.8788,5.4282
19.4688,5.4282
19.5645,5.4473
19.6456,5.5015
19.6998,5.5826
19.7188,5.6782
19.7188,6.2683
19.6998,6.3639
19.6456,6.4450
19.5645,6.4992
19.4688,6.5183
18.8788,6.5183
18.7831,6.4992
18.7020,6.4450
18.6478,6.3639
18.6288,6.2683
Z" /> 
<path style="fill:#FFFFFF; fill-opacity:1.0000; 
stroke:#FFFFFF; stroke-width:0.0000; stroke-opacity:1; 
stroke-linecap:round; stroke-linejoin:round;fill-rule:evenodd;"
d="M 14.5788,4.3282
14.5978,4.2326
14.6520,4.1515
14.7331,4.0973
14.8288,4.0782
15.4188,4.0782
15.5145,4.0973
15.5956,4.1515
15.6498,4.2326
15.6688,4.3282
15.6688,4.9182
15.6498,5.0139
15.5956,5.0950
15.5145,5.1492
15.4188,5.1682
14.8288,5.1682
14.7331,5.1492
14.6520,5.0950
14.5978,5.0139
14.5788,4.9182
Z" /> 
<path style="fill:#FFFFFF; fill-opacity:1.0000; 
stroke:#FFFFFF; stroke-width:0.0000; stroke-opacity:1; 
stroke-linecap:round; stroke-linejoin:round;fill-rule:evenodd;"
d="M 12.2988,2.8357
12.3036,2.8118
12.3171,2.7916
12.3374,2.7780
12.3613,2.7732
13.0613,2.7732
13.0852,2.7780
13.1055,2.7916
13.1190,2.8118
13.1238,2.8357
13.1238,2.9607
13.1190,2.9847
13.1055,3.0049
13.0852,3.0185
13.0613,3.0232
12.3613,3.0232
12.3374,3.0185
12.3171,3.0049
12.3036,2.9847
12.2988,2.9607
Z" /> 
<path style="fill:#FFFFFF; fill-opacity:1.0000; 
stroke:#FFFFFF; stroke-width:0.0000; stroke-opacity:1; 
stroke-linecap:round; stroke-linejoin:round;fill-rule:evenodd;"
d="M 12.2988,3.3357
12.3036,3.3118
12.3171,3.2916
12.3374,3.2780
12.3613,3.2732
13.0613,3.2732
13.0852,3.2780
13.1055,3.2916
13.1190,3.3118
13.1238,3.3357
13.1238,3.4607
13.1190,3.4847
13.1055,3.5049
13.0852,3.5185
13.0613,3.5232
12.3613,3.5232
12.3374,3.5185
12.3171,3.5049
12.3036,3.4847
12.2988,3.4607
Z" /> 
<path style="fill:#FFFFFF; fill-opacity:1.0000; 
stroke:#FFFFFF; stroke-width:0.0000; stroke-opacity:1; 
stroke-linecap:round; stroke-linejoin:round;fill-rule:evenodd;"
d="M 12.2988,3.8357
12.3036,3.8118
12.3171,3.7916
12.3374,3.7780
12.3613,3.7732
13.0613,3.7732
13.0852,3.7780
13.1055,3.7916
13.1190,3.8118
13.1238,3.8357
13.1238,3.9607
13.1190,3.9847
13.1055,4.0049
13.0852,4.0185
13.0613,4.0232
12.3613,4.0232
12.3374,4.0185
12.3171,4.0049
12.3036,3.9847
12.2988,3.9607
Z" /> 
<path style="fill:#FFFFFF; fill-opacity:1.0000; 
stroke:#FFFFFF; stroke-width:0.0000; stroke-opacity:1; 
stroke-linecap:round; stroke-linejoin:round;fill-rule:evenodd;"
d="M 12.2988,4.3357
12.3036,4.3118
12.3171,4.2916
12.3374,4.2780
12.3613,4.2732
13.0613,4.2732
13.0852,4.2780
13.1055,4.2916
13.1190,4.3118
13.1238,4.3357
13.1238,4.4607
13.1190,4.4847
13.1055,4.5049
13.0852,4.5185
13.0613,4.5232
12.3613,4.5232
12.3374,4.5185
12.3171,4.5049
12.3036,4.4847
12.2988,4.4607
Z" /> 
<path style="fill:#FFFFFF; fill-opacity:1.0000; 
stroke:#FFFFFF; stroke-width:0.0000; stroke-opacity:1; 
stroke-linecap:round; stroke-linejoin:round;fill-rule:evenodd;"
d="M 12.2988,4.8357
12.3036,4.8118
12.3171,4.7916
12.3374,4.7780
12.3613,4.7732
13.0613,4.7732
13.0852,4.7780
13.1055,4.7916
13.1190,4.8118
13.1238,4.8357
13.1238,4.9607
13.1190,4.9847
13.1055,5.0049
13.0852,5.0185
13.0613,5.0232
12.3613,5.0232
12.3374,5.0185
12.3171,5.0049
12.3036,4.9847
12.2988,4.9607
Z" /> 
<path style="fill:#FFFFFF; fill-opacity:1.0000; 
stroke:#FFFFFF; stroke-width:0.0000; stroke-opacity:1; 
stroke-linecap:round; stroke-linejoin:round;fill-rule:evenodd;"
d="M 12.2988,5.3357
12.3036,5.3118
12.3171,5.2916
12.3374,5.2780
12.3613,5.2732
13.0613,5.2732
13.0852,5.2780
13.1055,5.2916
13.1190,5.3118
13.1238,5.3357
13.1238,5.4607
13.1190,5.4847
13.1055,5.5049
13.0852,5.5185
13.0613,5.5232
12.3613,5.5232
12.3374,5.5185
12.3171,5.5049
12.3036,5.4847
12.2988,5.4607
Z" /> 
<path style="fill:#FFFFFF; fill-opacity:1.0000; 
stroke:#FFFFFF; stroke-width:0.0000; stroke-opacity:1; 
stroke-linecap:round; stroke-linejoin:round;fill-rule:evenodd;"
d="M 12.2988,5.8357
12.3036,5.8118
12.3171,5.7916
12.3374,5.7780
12.3613,5.7732
13.0613,5.7732
13.0852,5.7780
13.1055,5.7916
13.1190,5.8118
13.1238,5.8357
13.1238,5.9607
13.1190,5.9847
13.1055,6.0049
13.0852,6.0185
13.0613,6.0232
12.3613,6.0232
12.3374,6.0185
12.3171,6.0049
12.3036,5.9847
12.2988,5.9607
Z" /> 
<path style="fill:#FFFFFF; fill-opacity:1.0000; 
stroke:#FFFFFF; stroke-width:0.0000; stroke-opacity:1; 
stroke-linecap:round; stroke-linejoin:round;fill-rule:evenodd;"
d="M 12.2988,6.3357
12.3036,6.3118
12.3171,6.2916
12.3374,6.2780
12.3613,6.2732
13.0613,6.2732
13.0852,6.2780
13.1055,6.2916
13.1190,6.3118
13.1238,6.3357
13.1238,6.4607
13.1190,6.4847
13.1055,6.5049
13.0852,6.5185
13.0613,6.5232
12.3613,6.5232
12.3374,6.5185
12.3171,6.5049
12.3036,6.4847
12.2988,6.4607
Z" /> 
<path style="fill:#FFFFFF; fill-opacity:1.0000; 
stroke:#FFFFFF; stroke-width:0.0000; stroke-opacity:1; 
stroke-linecap:round; stroke-linejoin:round;fill-rule:evenodd;"
d="M 12.2988,6.8357
12.3036,6.8118
12.3171,6.7916
12.3374,6.7780
12.3613,6.7732
13.0613,6.7732
13.0852,6.7780
13.1055,6.7916
13.1190,6.8118
13.1238,6.8357
13.1238,6.9607
13.1190,6.9847
13.1055,7.0049
13.0852,7.0185
13.0613,7.0232
12.3613,7.0232
12.3374,7.0185
12.3171,7.0049
12.3036,6.9847
12.2988,6.9607
Z" /> 
<path style="fill:#FFFFFF; fill-opacity:1.0000; 
stroke:#FFFFFF; stroke-width:0.0000; stroke-opacity:1; 
stroke-linecap:round; stroke-linejoin:round;fill-rule:evenodd;"
d="M 12.2988,7.3357
12.3036,7.3118
12.3171,7.2916
12.3374,7.2780
12.3613,7.2732
13.0613,7.2732
13.0852,7.2780
13.1055,7.2916
13.1190,7.3118
13.1238,7.3357
13.1238,7.4607
13.1190,7.4847
13.1055,7.5049
13.0852,7.5185
13.0613,7.5232
12.3613,7.5232
12.3374,7.5185
12.3171,7.5049
12.3036,7.4847
12.2988,7.4607
Z" /> 
<path style="fill:#FFFFFF; fill-opacity:1.0000; 
stroke:#FFFFFF; stroke-width:0.0000; stroke-opacity:1; 
stroke-linecap:round; stroke-linejoin:round;fill-rule:evenodd;"
d="M 12.2988,7.8357
12.3036,7.8118
12.3171,7.7916
12.3374,7.7780
12.3613,7.7732
13.0613,7.7732
13.0852,7.7780
13.1055,7.7916
13.1190,7.8118
13.1238,7.8357
13.1238,7.9607
13.1190,7.9847
13.1055,8.0049
13.0852,8.0185
13.0613,8.0232
12.3613,8.0232
12.3374,8.0185
12.3171,8.0049
12.3036,7.9847
12.2988,7.9607
Z" /> 
<path style="fill:#FFFFFF; fill-opacity:1.0000; 
stroke:#FFFFFF; stroke-width:0.0000; stroke-opacity:1; 
stroke-linecap:round; stroke-linejoin:round;fill-rule:evenodd;"
d="M 12.2988,8.3357
12.3036,8.3118
12.3171,8.2916
12.3374,8.2780
12.3613,8.2732
13.0613,8.2732
13.0852,8.2780
13.1055,8.2916
13.1190,8.3118
13.1238,8.3357
13.1238,8.4607
13.1190,8.4847
13.1055,8.5049
13.0852,8.5185
13.0613,8.5232
12.3613,8.5232
12.3374,8.5185
12.3171,8.5049
12.3036,8.4847
12.2988,8.4607
Z" /> 
<path style="fill:#FFFFFF; fill-opacity:1.0000; 
stroke:#FFFFFF; stroke-width:0.0000; stroke-opacity:1; 
stroke-linecap:round; stroke-linejoin:round;fill-rule:evenodd;"
d="M 12.2988,8.8357
12.3036,8.8118
12.3171,8.7916
12.3374,8.7780
12.3613,8.7732
13.0613,8.7732
13.0852,8.7780
13.1055,8.7916
13.1190,8.8118
13.1238,8.8357
13.1238,8.9607
13.1190,8.9847
13.1055,9.0049
13.0852,9.0185
13.0613,9.0232
12.3613,9.0232
12.3374,9.0185
12.3171,9.0049
12.3036,8.9847
12.2988,8.9607
Z" /> 
<path style="fill:#FFFFFF; fill-opacity:1.0000; 
stroke:#FFFFFF; stroke-width:0.0000; stroke-opacity:1; 
stroke-linecap:round; stroke-linejoin:round;fill-rule:evenodd;"
d="M 12.2988,9.3357
12.3036,9.3118
12.3171,9.2916
12.3374,9.2780
12.3613,9.2732
13.0613,9.2732
13.0852,9.2780
13.1055,9.2916
13.1190,9.3118
13.1238,9.3357
13.1238,9.4607
13.1190,9.4847
13.1055,9.5049
13.0852,9.5185
13.0613,9.5232
12.3613,9.5232
12.3374,9.5185
12.3171,9.5049
12.3036,9.4847
12.2988,9.4607
Z" /> 
<path style="fill:#FFFFFF; fill-opacity:1.0000; 
stroke:#FFFFFF; stroke-width:0.0000; stroke-opacity:1; 
stroke-linecap:round; stroke-linejoin:round;fill-rule:evenodd;"
d="M 12.2988,9.8357
12.3036,9.8118
12.3171,9.7916
12.3374,9.7780
12.3613,9.7732
13.0613,9.7732
13.0852,9.7780
13.1055,9.7916
13.1190,9.8118
13.1238,9.8357
13.1238,9.9607
13.1190,9.9847
13.1055,10.0049
13.0852,10.0185
13.0613,10.0232
12.3613,10.0232
12.3374,10.0185
12.3171,10.0049
12.3036,9.9847
12.2988,9.9607
Z" /> 
<path style="fill:#FFFFFF; fill-opacity:1.0000; 
stroke:#FFFFFF; stroke-width:0.0000; stroke-opacity:1; 
stroke-linecap:round; stroke-linejoin:round;fill-rule:evenodd;"
d="M 12.2988,10.3357
12.3036,10.3118
12.3171,10.2916
12.3374,10.2780
12.3613,10.2732
13.0613,10.2732
13.0852,10.2780
13.1055,10.2916
13.1190,10.3118
13.1238,10.3357
13.1238,10.4607
13.1190,10.4847
13.1055,10.5049
13.0852,10.5185
13.0613,10.5232
12.3613,10.5232
12.3374,10.5185
12.3171,10.5049
12.3036,10.4847
12.2988,10.4607
Z" /> 
<path style="fill:#FFFFFF; fill-opacity:1.0000; 
stroke:#FFFFFF; stroke-width:0.0000; stroke-opacity:1; 
stroke-linecap:round; stroke-linejoin:round;fill-rule:evenodd;"
d="M 13.2738,10.7357
13.2786,10.7118
13.2921,10.6916
13.3124,10.6780
13.3363,10.6732
13.4613,10.6732
13.4852,10.6780
13.5055,10.6916
13.5191,10.7118
13.5238,10.7357
13.5238,11.4357
13.5191,11.4597
13.5055,11.4799
13.4852,11.4935
13.4613,11.4982
13.3363,11.4982
13.3124,11.4935
13.2921,11.4799
13.2786,11.4597
13.2738,11.4357
Z" /> 
<path style="fill:#FFFFFF; fill-opacity:1.0000; 
stroke:#FFFFFF; stroke-width:0.0000; stroke-opacity:1; 
stroke-linecap:round; stroke-linejoin:round;fill-rule:evenodd;"
d="M 13.7738,10.7357
13.7786,10.7118
13.7921,10.6916
13.8124,10.6780
13.8363,10.6732
13.9613,10.6732
13.9852,10.6780
14.0055,10.6916
14.0191,10.7118
14.0238,10.7357
14.0238,11.4357
14.0191,11.4597
14.0055,11.4799
13.9852,11.4935
13.9613,11.4982
13.8363,11.4982
13.8124,11.4935
13.7921,11.4799
13.7786,11.4597
13.7738,11.4357
Z" /> 
<path style="fill:#FFFFFF; fill-opacity:1.0000; 
stroke:#FFFFFF; stroke-width:0.0000; stroke-opacity:1; 
stroke-linecap:round; stroke-linejoin:round;fill-rule:evenodd;"
d="M 14.2738,10.7357
14.2786,10.7118
14.2921,10.6916
14.3124,10.6780
14.3363,10.6732
14.4613,10.6732
14.4852,10.6780
14.5055,10.6916
14.5191,10.7118
14.5238,10.7357
14.5238,11.4357
14.5191,11.4597
14.5055,11.4799
14.4852,11.4935
14.4613,11.4982
14.3363,11.4982
14.3124,11.4935
14.2921,11.4799
14.2786,11.4597
14.2738,11.4357
Z" /> 
<path style="fill:#FFFFFF; fill-opacity:1.0000; 
stroke:#FFFFFF; stroke-width:0.0000; stroke-opacity:1; 
stroke-linecap:round; stroke-linejoin:round;fill-rule:evenodd;"
d="M 14.7738,10.7357
14.7786,10.7118
14.7921,10.6916
14.8124,10.6780
14.8363,10.6732
14.9613,10.6732
14.9852,10.6780
15.0055,10.6916
15.0191,10.7118
15.0238,10.7357
15.0238,11.4357
15.0191,11.4597
15.0055,11.4799
14.9852,11.4935
14.9613,11.4982
14.8363,11.4982
14.8124,11.4935
14.7921,11.4799
14.7786,11.4597
14.7738,11.4357
Z" /> 
<path style="fill:#FFFFFF; fill-opacity:1.0000; 
stroke:#FFFFFF; stroke-width:0.0000; stroke-opacity:1; 
stroke-linecap:round; stroke-linejoin:round;fill-rule:evenodd;"
d="M 15.2738,10.7357
15.2786,10.7118
15.2921,10.6916
15.3124,10.6780
15.3363,10.6732
15.4613,10.6732
15.4852,10.6780
15.5055,10.6916
15.5191,10.7118
15.5238,10.7357
15.5238,11.4357
15.5191,11.4597
15.5055,11.4799
15.4852,11.4935
15.4613,11.4982
15.3363,11.4982
15.3124,11.4935
15.2921,11.4799
15.2786,11.4597
15.2738,11.4357
Z" /> 
<path style="fill:#FFFFFF; fill-opacity:1.0000; 
stroke:#FFFFFF; stroke-width:0.0000; stroke-opacity:1; 
stroke-linecap:round; stroke-linejoin:round;fill-rule:evenodd;"
d="M 15.7738,10.7357
15.7786,10.7118
15.7921,10.6916
15.8124,10.6780
15.8363,10.6732
15.9613,10.6732
15.9852,10.6780
16.0055,10.6916
16.0191,10.7118
16.0238,10.7357
16.0238,11.4357
16.0191,11.4597
16.0055,11.4799
15.9852,11.4935
15.9613,11.4982
15.8363,11.4982
15.8124,11.4935
15.7921,11.4799
15.7786,11.4597
15.7738,11.4357
Z" /> 
<path style="fill:#FFFFFF; fill-opacity:1.0000; 
stroke:#FFFFFF; stroke-width:0.0000; stroke-opacity:1; 
stroke-linecap:round; stroke-linejoin:round;fill-rule:evenodd;"
d="M 16.2738,10.7357
16.2786,10.7118
16.2921,10.6916
16.3124,10.6780
16.3363,10.6732
16.4613,10.6732
16.4852,10.6780
16.5055,10.6916
16.5191,10.7118
16.5238,10.7357
16.5238,11.4357
16.5191,11.4597
16.5055,11.4799
16.4852,11.4935
16.4613,11.4982
16.3363,11.4982
16.3124,11.4935
16.2921,11.4799
16.2786,11.4597
16.2738,11.4357
Z" /> 
<path style="fill:#FFFFFF; fill-opacity:1.0000; 
stroke:#FFFFFF; stroke-width:0.0000; stroke-opacity:1; 
stroke-linecap:round; stroke-linejoin:round;fill-rule:evenodd;"
d="M 16.7738,10.7357
16.7786,10.7118
16.7921,10.6916
16.8124,10.6780
16.8363,10.6732
16.9613,10.6732
16.9852,10.6780
17.0055,10.6916
17.0191,10.7118
17.0238,10.7357
17.0238,11.4357
17.0191,11.4597
17.0055,11.4799
16.9852,11.4935
16.9613,11.4982
16.8363,11.4982
16.8124,11.4935
16.7921,11.4799
16.7786,11.4597
16.7738,11.4357
Z" /> 
<path style="fill:#FFFFFF; fill-opacity:1.0000; 
stroke:#FFFFFF; stroke-width:0.0000; stroke-opacity:1; 
stroke-linecap:round; stroke-linejoin:round;fill-rule:evenodd;"
d="M 17.2738,10.7357
17.2786,10.7118
17.2921,10.6916
17.3124,10.6780
17.3363,10.6732
17.4613,10.6732
17.4852,10.6780
17.5055,10.6916
17.5191,10.7118
17.5238,10.7357
17.5238,11.4357
17.5191,11.4597
17.5055,11.4799
17.4852,11.4935
17.4613,11.4982
17.3363,11.4982
17.3124,11.4935
17.2921,11.4799
17.2786,11.4597
17.2738,11.4357
Z" /> 
<path style="fill:#FFFFFF; fill-opacity:1.0000; 
stroke:#FFFFFF; stroke-width:0.0000; stroke-opacity:1; 
stroke-linecap:round; stroke-linejoin:round;fill-rule:evenodd;"
d="M 17.7738,10.7357
17.7786,10.7118
17.7921,10.6916
17.8124,10.6780
17.8363,10.6732
17.9613,10.6732
17.9852,10.6780
18.0055,10.6916
18.0191,10.7118
18.0238,10.7357
18.0238,11.4357
18.0191,11.4597
18.0055,11.4799
17.9852,11.4935
17.9613,11.4982
17.8363,11.4982
17.8124,11.4935
17.7921,11.4799
17.7786,11.4597
17.7738,11.4357
Z" /> 
<path style="fill:#FFFFFF; fill-opacity:1.0000; 
stroke:#FFFFFF; stroke-width:0.0000; stroke-opacity:1; 
stroke-linecap:round; stroke-linejoin:round;fill-rule:evenodd;"
d="M 18.2738,10.7357
18.2786,10.7118
18.2921,10.6916
18.3124,10.6780
18.3363,10.6732
18.4613,10.6732
18.4852,10.6780
18.5055,10.6916
18.5191,10.7118
18.5238,10.7357
18.5238,11.4357
18.5191,11.4597
18.5055,11.4799
18.4852,11.4935
18.4613,11.4982
18.3363,11.4982
18.3124,11.4935
18.2921,11.4799
18.2786,11.4597
18.2738,11.4357
Z" /> 
<path style="fill:#FFFFFF; fill-opacity:1.0000; 
stroke:#FFFFFF; stroke-width:0.0000; stroke-opacity:1; 
stroke-linecap:round; stroke-linejoin:round;fill-rule:evenodd;"
d="M 18.7738,10.7357
18.7786,10.7118
18.7921,10.6916
18.8124,10.6780
18.8363,10.6732
18.9613,10.6732
18.9852,10.6780
19.0055,10.6916
19.0191,10.7118
19.0238,10.7357
19.0238,11.4357
19.0191,11.4597
19.0055,11.4799
18.9852,11.4935
18.9613,11.4982
18.8363,11.4982
18.8124,11.4935
18.7921,11.4799
18.7786,11.4597
18.7738,11.4357
Z" /> 
<path style="fill:#FFFFFF; fill-opacity:1.0000; 
stroke:#FFFFFF; stroke-width:0.0000; stroke-opacity:1; 
stroke-linecap:round; stroke-linejoin:round;fill-rule:evenodd;"
d="M 19.2738,10.7357
19.2786,10.7118
19.2921,10.6916
19.3124,10.6780
19.3363,10.6732
19.4613,10.6732
19.4852,10.6780
19.5055,10.6916
19.5191,10.7118
19.5238,10.7357
19.5238,11.4357
19.5191,11.4597
19.5055,11.4799
19.4852,11.4935
19.4613,11.4982
19.3363,11.4982
19.3124,11.4935
19.2921,11.4799
19.2786,11.4597
19.2738,11.4357
Z" /> 
<path style="fill:#FFFFFF; fill-opacity:1.0000; 
stroke:#FFFFFF; stroke-width:0.0000; stroke-opacity:1; 
stroke-linecap:round; stroke-linejoin:round;fill-rule:evenodd;"
d="M 19.7738,10.7357
19.7786,10.7118
19.7921,10.6916
19.8124,10.6780
19.8363,10.6732
19.9613,10.6732
19.9852,10.6780
20.0055,10.6916
20.0191,10.7118
20.0238,10.7357
20.0238,11.4357
20.0191,11.4597
20.0055,11.4799
19.9852,11.4935
19.9613,11.4982
19.8363,11.4982
19.8124,11.4935
19.7921,11.4799
19.7786,11.4597
19.7738,11.4357
Z" /> 
<path style="fill:#FFFFFF; fill-opacity:1.0000; 
stroke:#FFFFFF; stroke-width:0.0000; stroke-opacity:1; 
stroke-linecap:round; stroke-linejoin:round;fill-rule:evenodd;"
d="M 20.2738,10.7357
20.2786,10.7118
20.2921,10.6916
20.3124,10.6780
20.3363,10.6732
20.4613,10.6732
20.4852,10.6780
20.5055,10.6916
20.5191,10.7118
20.5238,10.7357
20.5238,11.4357
20.5191,11.4597
20.5055,11.4799
20.4852,11.4935
20.4613,11.4982
20.3363,11.4982
20.3124,11.4935
20.2921,11.4799
20.2786,11.4597
20.2738,11.4357
Z" /> 
<path style="fill:#FFFFFF; fill-opacity:1.0000; 
stroke:#FFFFFF; stroke-width:0.0000; stroke-opacity:1; 
stroke-linecap:round; stroke-linejoin:round;fill-rule:evenodd;"
d="M 20.7738,10.7357
20.7786,10.7118
20.7921,10.6916
20.8124,10.6780
20.8363,10.6732
20.9613,10.6732
20.9852,10.6780
21.0055,10.6916
21.0191,10.7118
21.0238,10.7357
21.0238,11.4357
21.0191,11.4597
21.0055,11.4799
20.9852,11.4935
20.9613,11.4982
20.8363,11.4982
20.8124,11.4935
20.7921,11.4799
20.7786,11.4597
20.7738,11.4357
Z" /> 
<path style="fill:#FFFFFF; fill-opacity:1.0000; 
stroke:#FFFFFF; stroke-width:0.0000; stroke-opacity:1; 
stroke-linecap:round; stroke-linejoin:round;fill-rule:evenodd;"
d="M 21.1738,10.3357
21.1786,10.3118
21.1921,10.2916
21.2124,10.2780
21.2363,10.2732
21.9363,10.2732
21.9602,10.2780
21.9805,10.2916
21.9940,10.3118
21.9988,10.3357
21.9988,10.4607
21.9940,10.4847
21.9805,10.5049
21.9602,10.5185
21.9363,10.5232
21.2363,10.5232
21.2124,10.5185
21.1921,10.5049
21.1786,10.4847
21.1738,10.4607
Z" /> 
<path style="fill:#FFFFFF; fill-opacity:1.0000; 
stroke:#FFFFFF; stroke-width:0.0000; stroke-opacity:1; 
stroke-linecap:round; stroke-linejoin:round;fill-rule:evenodd;"
d="M 21.1738,9.8357
21.1786,9.8118
21.1921,9.7916
21.2124,9.7780
21.2363,9.7732
21.9363,9.7732
21.9602,9.7780
21.9805,9.7916
21.9940,9.8118
21.9988,9.8357
21.9988,9.9607
21.9940,9.9847
21.9805,10.0049
21.9602,10.0185
21.9363,10.0232
21.2363,10.0232
21.2124,10.0185
21.1921,10.0049
21.1786,9.9847
21.1738,9.9607
Z" /> 
<path style="fill:#FFFFFF; fill-opacity:1.0000; 
stroke:#FFFFFF; stroke-width:0.0000; stroke-opacity:1; 
stroke-linecap:round; stroke-linejoin:round;fill-rule:evenodd;"
d="M 21.1738,9.3357
21.1786,9.3118
21.1921,9.2916
21.2124,9.2780
21.2363,9.2732
21.9363,9.2732
21.9602,9.2780
21.9805,9.2916
21.9940,9.3118
21.9988,9.3357
21.9988,9.4607
21.9940,9.4847
21.9805,9.5049
21.9602,9.5185
21.9363,9.5232
21.2363,9.5232
21.2124,9.5185
21.1921,9.5049
21.1786,9.4847
21.1738,9.4607
Z" /> 
<path style="fill:#FFFFFF; fill-opacity:1.0000; 
stroke:#FFFFFF; stroke-width:0.0000; stroke-opacity:1; 
stroke-linecap:round; stroke-linejoin:round;fill-rule:evenodd;"
d="M 21.1738,8.8357
21.1786,8.8118
21.1921,8.7916
21.2124,8.7780
21.2363,8.7732
21.9363,8.7732
21.9602,8.7780
21.9805,8.7916
21.9940,8.8118
21.9988,8.8357
21.9988,8.9607
21.9940,8.9847
21.9805,9.0049
21.9602,9.0185
21.9363,9.0232
21.2363,9.0232
21.2124,9.0185
21.1921,9.0049
21.1786,8.9847
21.1738,8.9607
Z" /> 
<path style="fill:#FFFFFF; fill-opacity:1.0000; 
stroke:#FFFFFF; stroke-width:0.0000; stroke-opacity:1; 
stroke-linecap:round; stroke-linejoin:round;fill-rule:evenodd;"
d="M 21.1738,8.3357
21.1786,8.3118
21.1921,8.2916
21.2124,8.2780
21.2363,8.2732
21.9363,8.2732
21.9602,8.2780
21.9805,8.2916
21.9940,8.3118
21.9988,8.3357
21.9988,8.4607
21.9940,8.4847
21.9805,8.5049
21.9602,8.5185
21.9363,8.5232
21.2363,8.5232
21.2124,8.5185
21.1921,8.5049
21.1786,8.4847
21.1738,8.4607
Z" /> 
<path style="fill:#FFFFFF; fill-opacity:1.0000; 
stroke:#FFFFFF; stroke-width:0.0000; stroke-opacity:1; 
stroke-linecap:round; stroke-linejoin:round;fill-rule:evenodd;"
d="M 21.1738,7.8357
21.1786,7.8118
21.1921,7.7916
21.2124,7.7780
21.2363,7.7732
21.9363,7.7732
21.9602,7.7780
21.9805,7.7916
21.9940,7.8118
21.9988,7.8357
21.9988,7.9607
21.9940,7.9847
21.9805,8.0049
21.9602,8.0185
21.9363,8.0232
21.2363,8.0232
21.2124,8.0185
21.1921,8.0049
21.1786,7.9847
21.1738,7.9607
Z" /> 
<path style="fill:#FFFFFF; fill-opacity:1.0000; 
stroke:#FFFFFF; stroke-width:0.0000; stroke-opacity:1; 
stroke-linecap:round; stroke-linejoin:round;fill-rule:evenodd;"
d="M 21.1738,7.3357
21.1786,7.3118
21.1921,7.2916
21.2124,7.2780
21.2363,7.2732
21.9363,7.2732
21.9602,7.2780
21.9805,7.2916
21.9940,7.3118
21.9988,7.3357
21.9988,7.4607
21.9940,7.4847
21.9805,7.5049
21.9602,7.5185
21.9363,7.5232
21.2363,7.5232
21.2124,7.5185
21.1921,7.5049
21.1786,7.4847
21.1738,7.4607
Z" /> 
<path style="fill:#FFFFFF; fill-opacity:1.0000; 
stroke:#FFFFFF; stroke-width:0.0000; stroke-opacity:1; 
stroke-linecap:round; stroke-linejoin:round;fill-rule:evenodd;"
d="M 21.1738,6.8357
21.1786,6.8118
21.1921,6.7916
21.2124,6.7780
21.2363,6.7732
21.9363,6.7732
21.9602,6.7780
21.9805,6.7916
21.9940,6.8118
21.9988,6.8357
21.9988,6.9607
21.9940,6.9847
21.9805,7.0049
21.9602,7.0185
21.9363,7.0232
21.2363,7.0232
21.2124,7.0185
21.1921,7.0049
21.1786,6.9847
21.1738,6.9607
Z" /> 
<path style="fill:#FFFFFF; fill-opacity:1.0000; 
stroke:#FFFFFF; stroke-width:0.0000; stroke-opacity:1; 
stroke-linecap:round; stroke-linejoin:round;fill-rule:evenodd;"
d="M 21.1738,6.3357
21.1786,6.3118
21.1921,6.2916
21.2124,6.2780
21.2363,6.2732
21.9363,6.2732
21.9602,6.2780
21.9805,6.2916
21.9940,6.3118
21.9988,6.3357
21.9988,6.4607
21.9940,6.4847
21.9805,6.5049
21.9602,6.5185
21.9363,6.5232
21.2363,6.5232
21.2124,6.5185
21.1921,6.5049
21.1786,6.4847
21.1738,6.4607
Z" /> 
<path style="fill:#FFFFFF; fill-opacity:1.0000; 
stroke:#FFFFFF; stroke-width:0.0000; stroke-opacity:1; 
stroke-linecap:round; stroke-linejoin:round;fill-rule:evenodd;"
d="M 21.1738,5.8357
21.1786,5.8118
21.1921,5.7916
21.2124,5.7780
21.2363,5.7732
21.9363,5.7732
21.9602,5.7780
21.9805,5.7916
21.9940,5.8118
21.9988,5.8357
21.9988,5.9607
21.9940,5.9847
21.9805,6.0049
21.9602,6.0185
21.9363,6.0232
21.2363,6.0232
21.2124,6.0185
21.1921,6.0049
21.1786,5.9847
21.1738,5.9607
Z" /> 
<path style="fill:#FFFFFF; fill-opacity:1.0000; 
stroke:#FFFFFF; stroke-width:0.0000; stroke-opacity:1; 
stroke-linecap:round; stroke-linejoin:round;fill-rule:evenodd;"
d="M 21.1738,5.3357
21.1786,5.3118
21.1921,5.2916
21.2124,5.2780
21.2363,5.2732
21.9363,5.2732
21.9602,5.2780
21.9805,5.2916
21.9940,5.3118
21.9988,5.3357
21.9988,5.4607
21.9940,5.4847
21.9805,5.5049
21.9602,5.5185
21.9363,5.5232
21.2363,5.5232
21.2124,5.5185
21.1921,5.5049
21.1786,5.4847
21.1738,5.4607
Z" /> 
<path style="fill:#FFFFFF; fill-opacity:1.0000; 
stroke:#FFFFFF; stroke-width:0.0000; stroke-opacity:1; 
stroke-linecap:round; stroke-linejoin:round;fill-rule:evenodd;"
d="M 21.1738,4.8357
21.1786,4.8118
21.1921,4.7916
21.2124,4.7780
21.2363,4.7732
21.9363,4.7732
21.9602,4.7780
21.9805,4.7916
21.9940,4.8118
21.9988,4.8357
21.9988,4.9607
21.9940,4.9847
21.9805,5.0049
21.9602,5.0185
21.9363,5.0232
21.2363,5.0232
21.2124,5.0185
21.1921,5.0049
21.1786,4.9847
21.1738,4.9607
Z" /> 
<path style="fill:#FFFFFF; fill-opacity:1.0000; 
stroke:#FFFFFF; stroke-width:0.0000; stroke-opacity:1; 
stroke-linecap:round; stroke-linejoin:round;fill-rule:evenodd;"
d="M 21.1738,4.3357
21.1786,4.3118
21.1921,4.2916
21.2124,4.2780
21.2363,4.2732
21.9363,4.2732
21.9602,4.2780
21.9805,4.2916
21.9940,4.3118
21.9988,4.3357
21.9988,4.4607
21.9940,4.4847
21.9805,4.5049
21.9602,4.5185
21.9363,4.5232
21.2363,4.5232
21.2124,4.5185
21.1921,4.5049
21.1786,4.4847
21.1738,4.4607
Z" /> 
<path style="fill:#FFFFFF; fill-opacity:1.0000; 
stroke:#FFFFFF; stroke-width:0.0000; stroke-opacity:1; 
stroke-linecap:round; stroke-linejoin:round;fill-rule:evenodd;"
d="M 21.1738,3.8357
21.1786,3.8118
21.1921,3.7916
21.2124,3.7780
21.2363,3.7732
21.9363,3.7732
21.9602,3.7780
21.9805,3.7916
21.9940,3.8118
21.9988,3.8357
21.9988,3.9607
21.9940,3.9847
21.9805,4.0049
21.9602,4.0185
21.9363,4.0232
21.2363,4.0232
21.2124,4.0185
21.1921,4.0049
21.1786,3.9847
21.1738,3.9607
Z" /> 
<path style="fill:#FFFFFF; fill-opacity:1.0000; 
stroke:#FFFFFF; stroke-width:0.0000; stroke-opacity:1; 
stroke-linecap:round; stroke-linejoin:round;fill-rule:evenodd;"
d="M 21.1738,3.3357
21.1786,3.3118
21.1921,3.2916
21.2124,3.2780
21.2363,3.2732
21.9363,3.2732
21.9602,3.2780
21.9805,3.2916
21.9940,3.3118
21.9988,3.3357
21.9988,3.4607
21.9940,3.4847
21.9805,3.5049
21.9602,3.5185
21.9363,3.5232
21.2363,3.5232
21.2124,3.5185
21.1921,3.5049
21.1786,3.4847
21.1738,3.4607
Z" /> 
<path style="fill:#FFFFFF; fill-opacity:1.0000; 
stroke:#FFFFFF; stroke-width:0.0000; stroke-opacity:1; 
stroke-linecap:round; stroke-linejoin:round;fill-rule:evenodd;"
d="M 21.1738,2.8357
21.1786,2.8118
21.1921,2.7916
21.2124,2.7780
21.2363,2.7732
21.9363,2.7732
21.9602,2.7780
21.9805,2.7916
21.9940,2.8118
21.9988,2.8357
21.9988,2.9607
21.9940,2.9847
21.9805,3.0049
21.9602,3.0185
21.9363,3.0232
21.2363,3.0232
21.2124,3.0185
21.1921,3.0049
21.1786,2.9847
21.1738,2.9607
Z" /> 
<path style="fill:#FFFFFF; fill-opacity:1.0000; 
stroke:#FFFFFF; stroke-width:0.0000; stroke-opacity:1; 
stroke-linecap:round; stroke-linejoin:round;fill-rule:evenodd;"
d="M 20.7738,1.8607
20.7786,1.8368
20.7921,1.8166
20.8124,1.8030
20.8363,1.7982
20.9613,1.7982
20.9852,1.8030
21.0055,1.8166
21.0191,1.8368
21.0238,1.8607
21.0238,2.5608
21.0191,2.5847
21.0055,2.6049
20.9852,2.6185
20.9613,2.6233
20.8363,2.6233
20.8124,2.6185
20.7921,2.6049
20.7786,2.5847
20.7738,2.5608
Z" /> 
<path style="fill:#FFFFFF; fill-opacity:1.0000; 
stroke:#FFFFFF; stroke-width:0.0000; stroke-opacity:1; 
stroke-linecap:round; stroke-linejoin:round;fill-rule:evenodd;"
d="M 20.2738,1.8607
20.2786,1.8368
20.2921,1.8166
20.3124,1.8030
20.3363,1.7982
20.4613,1.7982
20.4852,1.8030
20.5055,1.8166
20.5191,1.8368
20.5238,1.8607
20.5238,2.5608
20.5191,2.5847
20.5055,2.6049
20.4852,2.6185
20.4613,2.6233
20.3363,2.6233
20.3124,2.6185
20.2921,2.6049
20.2786,2.5847
20.2738,2.5608
Z" /> 
<path style="fill:#FFFFFF; fill-opacity:1.0000; 
stroke:#FFFFFF; stroke-width:0.0000; stroke-opacity:1; 
stroke-linecap:round; stroke-linejoin:round;fill-rule:evenodd;"
d="M 19.7738,1.8607
19.7786,1.8368
19.7921,1.8166
19.8124,1.8030
19.8363,1.7982
19.9613,1.7982
19.9852,1.8030
20.0055,1.8166
20.0191,1.8368
20.0238,1.8607
20.0238,2.5608
20.0191,2.5847
20.0055,2.6049
19.9852,2.6185
19.9613,2.6233
19.8363,2.6233
19.8124,2.6185
19.7921,2.6049
19.7786,2.5847
19.7738,2.5608
Z" /> 
<path style="fill:#FFFFFF; fill-opacity:1.0000; 
stroke:#FFFFFF; stroke-width:0.0000; stroke-opacity:1; 
stroke-linecap:round; stroke-linejoin:round;fill-rule:evenodd;"
d="M 19.2738,1.8607
19.2786,1.8368
19.2921,1.8166
19.3124,1.8030
19.3363,1.7982
19.4613,1.7982
19.4852,1.8030
19.5055,1.8166
19.5191,1.8368
19.5238,1.8607
19.5238,2.5608
19.5191,2.5847
19.5055,2.6049
19.4852,2.6185
19.4613,2.6233
19.3363,2.6233
19.3124,2.6185
19.2921,2.6049
19.2786,2.5847
19.2738,2.5608
Z" /> 
<path style="fill:#FFFFFF; fill-opacity:1.0000; 
stroke:#FFFFFF; stroke-width:0.0000; stroke-opacity:1; 
stroke-linecap:round; stroke-linejoin:round;fill-rule:evenodd;"
d="M 18.7738,1.8607
18.7786,1.8368
18.7921,1.8166
18.8124,1.8030
18.8363,1.7982
18.9613,1.7982
18.9852,1.8030
19.0055,1.8166
19.0191,1.8368
19.0238,1.8607
19.0238,2.5608
19.0191,2.5847
19.0055,2.6049
18.9852,2.6185
18.9613,2.6233
18.8363,2.6233
18.8124,2.6185
18.7921,2.6049
18.7786,2.5847
18.7738,2.5608
Z" /> 
<path style="fill:#FFFFFF; fill-opacity:1.0000; 
stroke:#FFFFFF; stroke-width:0.0000; stroke-opacity:1; 
stroke-linecap:round; stroke-linejoin:round;fill-rule:evenodd;"
d="M 18.2738,1.8607
18.2786,1.8368
18.2921,1.8166
18.3124,1.8030
18.3363,1.7982
18.4613,1.7982
18.4852,1.8030
18.5055,1.8166
18.5191,1.8368
18.5238,1.8607
18.5238,2.5608
18.5191,2.5847
18.5055,2.6049
18.4852,2.6185
18.4613,2.6233
18.3363,2.6233
18.3124,2.6185
18.2921,2.6049
18.2786,2.5847
18.2738,2.5608
Z" /> 
<path style="fill:#FFFFFF; fill-opacity:1.0000; 
stroke:#FFFFFF; stroke-width:0.0000; stroke-opacity:1; 
stroke-linecap:round; stroke-linejoin:round;fill-rule:evenodd;"
d="M 17.7738,1.8607
17.7786,1.8368
17.7921,1.8166
17.8124,1.8030
17.8363,1.7982
17.9613,1.7982
17.9852,1.8030
18.0055,1.8166
18.0191,1.8368
18.0238,1.8607
18.0238,2.5608
18.0191,2.5847
18.0055,2.6049
17.9852,2.6185
17.9613,2.6233
17.8363,2.6233
17.8124,2.6185
17.7921,2.6049
17.7786,2.5847
17.7738,2.5608
Z" /> 
<path style="fill:#FFFFFF; fill-opacity:1.0000; 
stroke:#FFFFFF; stroke-width:0.0000; stroke-opacity:1; 
stroke-linecap:round; stroke-linejoin:round;fill-rule:evenodd;"
d="M 17.2738,1.8607
17.2786,1.8368
17.2921,1.8166
17.3124,1.8030
17.3363,1.7982
17.4613,1.7982
17.4852,1.8030
17.5055,1.8166
17.5191,1.8368
17.5238,1.8607
17.5238,2.5608
17.5191,2.5847
17.5055,2.6049
17.4852,2.6185
17.4613,2.6233
17.3363,2.6233
17.3124,2.6185
17.2921,2.6049
17.2786,2.5847
17.2738,2.5608
Z" /> 
<path style="fill:#FFFFFF; fill-opacity:1.0000; 
stroke:#FFFFFF; stroke-width:0.0000; stroke-opacity:1; 
stroke-linecap:round; stroke-linejoin:round;fill-rule:evenodd;"
d="M 16.7738,1.8607
16.7786,1.8368
16.7921,1.8166
16.8124,1.8030
16.8363,1.7982
16.9613,1.7982
16.9852,1.8030
17.0055,1.8166
17.0191,1.8368
17.0238,1.8607
17.0238,2.5608
17.0191,2.5847
17.0055,2.6049
16.9852,2.6185
16.9613,2.6233
16.8363,2.6233
16.8124,2.6185
16.7921,2.6049
16.7786,2.5847
16.7738,2.5608
Z" /> 
<path style="fill:#FFFFFF; fill-opacity:1.0000; 
stroke:#FFFFFF; stroke-width:0.0000; stroke-opacity:1; 
stroke-linecap:round; stroke-linejoin:round;fill-rule:evenodd;"
d="M 16.2738,1.8607
16.2786,1.8368
16.2921,1.8166
16.3124,1.8030
16.3363,1.7982
16.4613,1.7982
16.4852,1.8030
16.5055,1.8166
16.5191,1.8368
16.5238,1.8607
16.5238,2.5608
16.5191,2.5847
16.5055,2.6049
16.4852,2.6185
16.4613,2.6233
16.3363,2.6233
16.3124,2.6185
16.2921,2.6049
16.2786,2.5847
16.2738,2.5608
Z" /> 
<path style="fill:#FFFFFF; fill-opacity:1.0000; 
stroke:#FFFFFF; stroke-width:0.0000; stroke-opacity:1; 
stroke-linecap:round; stroke-linejoin:round;fill-rule:evenodd;"
d="M 15.7738,1.8607
15.7786,1.8368
15.7921,1.8166
15.8124,1.8030
15.8363,1.7982
15.9613,1.7982
15.9852,1.8030
16.0055,1.8166
16.0191,1.8368
16.0238,1.8607
16.0238,2.5608
16.0191,2.5847
16.0055,2.6049
15.9852,2.6185
15.9613,2.6233
15.8363,2.6233
15.8124,2.6185
15.7921,2.6049
15.7786,2.5847
15.7738,2.5608
Z" /> 
<path style="fill:#FFFFFF; fill-opacity:1.0000; 
stroke:#FFFFFF; stroke-width:0.0000; stroke-opacity:1; 
stroke-linecap:round; stroke-linejoin:round;fill-rule:evenodd;"
d="M 15.2738,1.8607
15.2786,1.8368
15.2921,1.8166
15.3124,1.8030
15.3363,1.7982
15.4613,1.7982
15.4852,1.8030
15.5055,1.8166
15.5191,1.8368
15.5238,1.8607
15.5238,2.5608
15.5191,2.5847
15.5055,2.6049
15.4852,2.6185
15.4613,2.6233
15.3363,2.6233
15.3124,2.6185
15.2921,2.6049
15.2786,2.5847
15.2738,2.5608
Z" /> 
<path style="fill:#FFFFFF; fill-opacity:1.0000; 
stroke:#FFFFFF; stroke-width:0.0000; stroke-opacity:1; 
stroke-linecap:round; stroke-linejoin:round;fill-rule:evenodd;"
d="M 14.7738,1.8607
14.7786,1.8368
14.7921,1.8166
14.8124,1.8030
14.8363,1.7982
14.9613,1.7982
14.9852,1.8030
15.0055,1.8166
15.0191,1.8368
15.0238,1.8607
15.0238,2.5608
15.0191,2.5847
15.0055,2.6049
14.9852,2.6185
14.9613,2.6233
14.8363,2.6233
14.8124,2.6185
14.7921,2.6049
14.7786,2.5847
14.7738,2.5608
Z" /> 
<path style="fill:#FFFFFF; fill-opacity:1.0000; 
stroke:#FFFFFF; stroke-width:0.0000; stroke-opacity:1; 
stroke-linecap:round; stroke-linejoin:round;fill-rule:evenodd;"
d="M 14.2738,1.8607
14.2786,1.8368
14.2921,1.8166
14.3124,1.8030
14.3363,1.7982
14.4613,1.7982
14.4852,1.8030
14.5055,1.8166
14.5191,1.8368
14.5238,1.8607
14.5238,2.5608
14.5191,2.5847
14.5055,2.6049
14.4852,2.6185
14.4613,2.6233
14.3363,2.6233
14.3124,2.6185
14.2921,2.6049
14.2786,2.5847
14.2738,2.5608
Z" /> 
<path style="fill:#FFFFFF; fill-opacity:1.0000; 
stroke:#FFFFFF; stroke-width:0.0000; stroke-opacity:1; 
stroke-linecap:round; stroke-linejoin:round;fill-rule:evenodd;"
d="M 13.7738,1.8607
13.7786,1.8368
13.7921,1.8166
13.8124,1.8030
13.8363,1.7982
13.9613,1.7982
13.9852,1.8030
14.0055,1.8166
14.0191,1.8368
14.0238,1.8607
14.0238,2.5608
14.0191,2.5847
14.0055,2.6049
13.9852,2.6185
13.9613,2.6233
13.8363,2.6233
13.8124,2.6185
13.7921,2.6049
13.7786,2.5847
13.7738,2.5608
Z" /> 
<path style="fill:#FFFFFF; fill-opacity:1.0000; 
stroke:#FFFFFF; stroke-width:0.0000; stroke-opacity:1; 
stroke-linecap:round; stroke-linejoin:round;fill-rule:evenodd;"
d="M 13.2738,1.8607
13.2786,1.8368
13.2921,1.8166
13.3124,1.8030
13.3363,1.7982
13.4613,1.7982
13.4852,1.8030
13.5055,1.8166
13.5191,1.8368
13.5238,1.8607
13.5238,2.5608
13.5191,2.5847
13.5055,2.6049
13.4852,2.6185
13.4613,2.6233
13.3363,2.6233
13.3124,2.6185
13.2921,2.6049
13.2786,2.5847
13.2738,2.5608
Z" /> 
</g>
<g >
</g>
<g >
</g>
<g >
</g>
</g>
<g style="fill:#FFFFFF; fill-opacity:1.0000; 
stroke:#FFFFFF; stroke-width:0.0000; stroke-opacity:1; 
stroke-linecap:round; stroke-linejoin:round;">
</g>
<g style="fill:#FFFFFF; fill-opacity:1.0000; 
stroke:#FFFFFF; stroke-width:0.1500; stroke-opacity:1; 
stroke-linecap:round; stroke-linejoin:round;">
</g>
<g style="fill:#FFFFFF; fill-opacity:0.0; 
stroke:#FFFFFF; stroke-width:0.1500; stroke-opacity:1; 
stroke-linecap:round; stroke-linejoin:round;">
<text x="17.1488" y="1.3482"
textLength="4.5357" font-size="1.3333" lengthAdjust="spacingAndGlyphs"
text-anchor="middle" opacity="0">REF**</text>
<g class="stroked-text"><desc>REF**</desc>
<path d="M15.8155 1.3031
L15.4821 0.8269
" />
<path d="M15.2440 1.3031
L15.2440 0.3031
" />
<path d="M15.2440 0.3031
L15.6250 0.3031
" />
<path d="M15.6250 0.3031
L15.7202 0.3507
" />
<path d="M15.7202 0.3507
L15.7679 0.3983
" />
<path d="M15.7679 0.3983
L15.8155 0.4935
" />
<path d="M15.8155 0.4935
L15.8155 0.6364
" />
<path d="M15.8155 0.6364
L15.7679 0.7316
" />
<path d="M15.7679 0.7316
L15.7202 0.7793
" />
<path d="M15.7202 0.7793
L15.6250 0.8269
" />
<path d="M15.6250 0.8269
L15.2440 0.8269
" />
<path d="M16.2440 0.7793
L16.5774 0.7793
" />
<path d="M16.7202 1.3031
L16.2440 1.3031
" />
<path d="M16.2440 1.3031
L16.2440 0.3031
" />
<path d="M16.2440 0.3031
L16.7202 0.3031
" />
<path d="M17.4821 0.7793
L17.1488 0.7793
" />
<path d="M17.1488 1.3031
L17.1488 0.3031
" />
<path d="M17.1488 0.3031
L17.6250 0.3031
" />
<path d="M18.1488 0.3031
L18.1488 0.5412
" />
<path d="M17.9107 0.4459
L18.1488 0.5412
" />
<path d="M18.1488 0.5412
L18.3869 0.4459
" />
<path d="M18.0060 0.7316
L18.1488 0.5412
" />
<path d="M18.1488 0.5412
L18.2917 0.7316
" />
<path d="M18.9107 0.3031
L18.9107 0.5412
" />
<path d="M18.6726 0.4459
L18.9107 0.5412
" />
<path d="M18.9107 0.5412
L19.1488 0.4459
" />
<path d="M18.7679 0.7316
L18.9107 0.5412
" />
<path d="M18.9107 0.5412
L19.0536 0.7316
" />
</g></g>
<g style="fill:#FFFFFF; fill-opacity:0.0; 
stroke:#FFFFFF; stroke-width:0.1200; stroke-opacity:1; 
stroke-linecap:round; stroke-linejoin:round;">
<path d="M13.0138 2.0383
L12.5388 2.0383
" />
<path d="M21.7588 2.0383
L21.7588 2.5132
" />
<path d="M21.7588 11.2583
L21.7588 10.7832
" />
<path d="M13.0138 11.2583
L12.5388 11.2583
" />
<path d="M21.2838 2.0383
L21.7588 2.0383
" />
<path d="M21.2838 11.2583
L21.7588 11.2583
" />
<path d="M12.5388 11.2583
L12.5388 10.7832
" />
<g >
</g>
<g >
</g>
<g >
</g>
<g >
</g>
</g> 
</svg>
