<?xml version="1.0" standalone="no"?>
 <!DOCTYPE svg PUBLIC "-//W3C//DTD SVG 1.1//EN" 
 "http://www.w3.org/Graphics/SVG/1.1/DTD/svg11.dtd"> 
<svg
  xmlns:svg="http://www.w3.org/2000/svg"
  xmlns="http://www.w3.org/2000/svg"
  xmlns:xlink="http://www.w3.org/1999/xlink"
  version="1.1"
  width="34.2900mm" height="7.2898mm" viewBox="0.0000 0.0000 34.2900 7.2898">
<title>SVG Image created as QFN-16-1EP_3x3mm_P0.5mm_EP1.9x1.9mm.svg date 2024/01/16 15:07:15 </title>
  <desc>Image generated by PCBNEW </desc>
<g style="fill:#000000; fill-opacity:1.0000;stroke:#000000; stroke-opacity:1.0000;
stroke-linecap:round; stroke-linejoin:round;"
 transform="translate(0 0) scale(1 1)">
</g>
<g style="fill:#000000; fill-opacity:0.0; 
stroke:#000000; stroke-width:0.0000; stroke-opacity:1; 
stroke-linecap:round; stroke-linejoin:round;">
</g>
<g style="fill:#000000; fill-opacity:1.0000; 
stroke:#000000; stroke-width:0.0212; stroke-opacity:1; 
stroke-linecap:round; stroke-linejoin:round;">
<rect x="-5.000000" y="-5.000000" width="44.297617" height="17.296500" rx="0.000000" />
</g>
<g style="fill:#FFFFFF; fill-opacity:1.0000; 
stroke:#FFFFFF; stroke-width:0.0212; stroke-opacity:1; 
stroke-linecap:round; stroke-linejoin:round;">
<g >
</g>
<g >
</g>
<g >
</g>
<g >
</g>
</g>
<g style="fill:#FFFFFF; fill-opacity:1.0000; 
stroke:#FFFFFF; stroke-width:0.0212; stroke-opacity:1; 
stroke-linecap:round; stroke-linejoin:round;">
<g >
</g>
<g >
</g>
<g >
</g>
<g >
</g>
</g>
<g style="fill:#FFFFFF; fill-opacity:1.0000; 
stroke:#FFFFFF; stroke-width:0.0212; stroke-opacity:1; 
stroke-linecap:round; stroke-linejoin:round;">
<g >
</g>
<g >
</g>
<g >
</g>
<g >
</g>
</g>
<g style="fill:#FFFFFF; fill-opacity:1.0000; 
stroke:#FFFFFF; stroke-width:0.0212; stroke-opacity:1; 
stroke-linecap:round; stroke-linejoin:round;">
<g >
</g>
<g >
</g>
<g >
</g>
<g >
</g>
</g>
<g style="fill:#FFFFFF; fill-opacity:1.0000; 
stroke:#FFFFFF; stroke-width:0.0212; stroke-opacity:1; 
stroke-linecap:round; stroke-linejoin:round;">
<g >
</g>
<g >
</g>
<g >
</g>
<g >
</g>
</g>
<g style="fill:#FFFFFF; fill-opacity:1.0000; 
stroke:#FFFFFF; stroke-width:0.0212; stroke-opacity:1; 
stroke-linecap:round; stroke-linejoin:round;">
<g >
</g>
<g >
</g>
<g >
</g>
<g >
</g>
</g>
<g style="fill:#FFFFFF; fill-opacity:1.0000; 
stroke:#FFFFFF; stroke-width:0.0212; stroke-opacity:1; 
stroke-linecap:round; stroke-linejoin:round;">
<g >
</g>
<g >
</g>
<g >
</g>
<g >
</g>
</g>
<g style="fill:#FFFFFF; fill-opacity:1.0000; 
stroke:#FFFFFF; stroke-width:0.0212; stroke-opacity:1; 
stroke-linecap:round; stroke-linejoin:round;">
<g >
</g>
<g >
</g>
<g >
</g>
<g >
</g>
</g>
<g style="fill:#FFFFFF; fill-opacity:1.0000; 
stroke:#FFFFFF; stroke-width:0.0212; stroke-opacity:1; 
stroke-linecap:round; stroke-linejoin:round;">
<g >
</g>
<g >
</g>
<g >
</g>
<g >
</g>
</g>
<g style="fill:#FFFFFF; fill-opacity:1.0000; 
stroke:#FFFFFF; stroke-width:0.0212; stroke-opacity:1; 
stroke-linecap:round; stroke-linejoin:round;">
<g >
</g>
<g >
</g>
<g >
</g>
<g >
</g>
</g>
<g style="fill:#FFFFFF; fill-opacity:1.0000; 
stroke:#FFFFFF; stroke-width:0.0212; stroke-opacity:1; 
stroke-linecap:round; stroke-linejoin:round;">
<g >
</g>
<g >
</g>
<g >
</g>
<g >
</g>
</g>
<g style="fill:#FFFFFF; fill-opacity:1.0000; 
stroke:#FFFFFF; stroke-width:0.0212; stroke-opacity:1; 
stroke-linecap:round; stroke-linejoin:round;">
<g >
</g>
<g >
</g>
<g >
</g>
<g >
</g>
</g>
<g style="fill:#FFFFFF; fill-opacity:1.0000; 
stroke:#FFFFFF; stroke-width:0.0212; stroke-opacity:1; 
stroke-linecap:round; stroke-linejoin:round;">
<g >
</g>
<g >
</g>
<g >
</g>
<g >
</g>
</g>
<g style="fill:#FFFFFF; fill-opacity:1.0000; 
stroke:#FFFFFF; stroke-width:0.0212; stroke-opacity:1; 
stroke-linecap:round; stroke-linejoin:round;">
<g >
</g>
<g >
</g>
<g >
</g>
<g >
</g>
</g>
<g style="fill:#FFFFFF; fill-opacity:1.0000; 
stroke:#FFFFFF; stroke-width:0.0212; stroke-opacity:1; 
stroke-linecap:round; stroke-linejoin:round;">
<g >
</g>
<g >
</g>
<g >
</g>
<g >
</g>
</g>
<g style="fill:#FFFFFF; fill-opacity:1.0000; 
stroke:#FFFFFF; stroke-width:0.0212; stroke-opacity:1; 
stroke-linecap:round; stroke-linejoin:round;">
<g >
</g>
<g >
</g>
<g >
</g>
<g >
</g>
</g>
<g style="fill:#FFFFFF; fill-opacity:1.0000; 
stroke:#FFFFFF; stroke-width:0.0212; stroke-opacity:1; 
stroke-linecap:round; stroke-linejoin:round;">
<g >
</g>
<g >
</g>
<g >
</g>
<g >
</g>
</g>
<g style="fill:#FFFFFF; fill-opacity:1.0000; 
stroke:#FFFFFF; stroke-width:0.0212; stroke-opacity:1; 
stroke-linecap:round; stroke-linejoin:round;">
<g >
</g>
<g >
</g>
<g >
</g>
<g >
</g>
</g>
<g style="fill:#FFFFFF; fill-opacity:1.0000; 
stroke:#FFFFFF; stroke-width:0.0212; stroke-opacity:1; 
stroke-linecap:round; stroke-linejoin:round;">
<g >
</g>
<g >
</g>
<g >
</g>
<g >
</g>
</g>
<g style="fill:#FFFFFF; fill-opacity:1.0000; 
stroke:#FFFFFF; stroke-width:0.0212; stroke-opacity:1; 
stroke-linecap:round; stroke-linejoin:round;">
<g >
</g>
<g >
</g>
<g >
</g>
<g >
</g>
</g>
<g style="fill:#FFFFFF; fill-opacity:1.0000; 
stroke:#FFFFFF; stroke-width:0.0212; stroke-opacity:1; 
stroke-linecap:round; stroke-linejoin:round;">
<g >
</g>
<g >
</g>
<g >
</g>
<g >
</g>
</g>
<g style="fill:#FFFFFF; fill-opacity:1.0000; 
stroke:#FFFFFF; stroke-width:0.0212; stroke-opacity:1; 
stroke-linecap:round; stroke-linejoin:round;">
<g >
</g>
<g >
</g>
<g >
</g>
<g >
</g>
</g>
<g style="fill:#FFFFFF; fill-opacity:1.0000; 
stroke:#FFFFFF; stroke-width:0.0212; stroke-opacity:1; 
stroke-linecap:round; stroke-linejoin:round;">
<g >
</g>
<g >
</g>
<g >
</g>
<g >
</g>
</g>
<g style="fill:#FFFFFF; fill-opacity:1.0000; 
stroke:#FFFFFF; stroke-width:0.0212; stroke-opacity:1; 
stroke-linecap:round; stroke-linejoin:round;">
<g >
</g>
<g >
</g>
<g >
</g>
<g >
</g>
</g>
<g style="fill:#FFFFFF; fill-opacity:1.0000; 
stroke:#FFFFFF; stroke-width:0.0212; stroke-opacity:1; 
stroke-linecap:round; stroke-linejoin:round;">
<g >
</g>
<g >
</g>
<g >
</g>
<g >
</g>
</g>
<g style="fill:#FFFFFF; fill-opacity:1.0000; 
stroke:#FFFFFF; stroke-width:0.0212; stroke-opacity:1; 
stroke-linecap:round; stroke-linejoin:round;">
<g >
</g>
<g >
</g>
<g >
</g>
<g >
</g>
</g>
<g style="fill:#FFFFFF; fill-opacity:1.0000; 
stroke:#FFFFFF; stroke-width:0.0212; stroke-opacity:1; 
stroke-linecap:round; stroke-linejoin:round;">
<g >
</g>
<g >
</g>
<g >
</g>
<g >
</g>
</g>
<g style="fill:#FFFFFF; fill-opacity:1.0000; 
stroke:#FFFFFF; stroke-width:0.0212; stroke-opacity:1; 
stroke-linecap:round; stroke-linejoin:round;">
<g >
</g>
<g >
</g>
<g >
</g>
<g >
</g>
</g>
<g style="fill:#FFFFFF; fill-opacity:1.0000; 
stroke:#FFFFFF; stroke-width:0.0212; stroke-opacity:1; 
stroke-linecap:round; stroke-linejoin:round;">
<g >
</g>
<g >
</g>
<g >
</g>
<g >
</g>
</g>
<g style="fill:#FFFFFF; fill-opacity:1.0000; 
stroke:#FFFFFF; stroke-width:0.0212; stroke-opacity:1; 
stroke-linecap:round; stroke-linejoin:round;">
<g >
</g>
<g >
</g>
<g >
</g>
<g >
</g>
</g>
<g style="fill:#FFFFFF; fill-opacity:1.0000; 
stroke:#FFFFFF; stroke-width:0.0212; stroke-opacity:1; 
stroke-linecap:round; stroke-linejoin:round;">
<g >
</g>
<g >
</g>
<g >
</g>
<g >
</g>
</g>
<g style="fill:#FFFFFF; fill-opacity:1.0000; 
stroke:#FFFFFF; stroke-width:0.0212; stroke-opacity:1; 
stroke-linecap:round; stroke-linejoin:round;">
<g >
</g>
<g >
</g>
<g >
</g>
<g >
</g>
</g>
<g style="fill:#FFFFFF; fill-opacity:1.0000; 
stroke:#FFFFFF; stroke-width:0.0212; stroke-opacity:1; 
stroke-linecap:round; stroke-linejoin:round;">
<g >
</g>
<g >
</g>
<g >
</g>
<g >
</g>
</g>
<g style="fill:#FFFFFF; fill-opacity:1.0000; 
stroke:#FFFFFF; stroke-width:0.0212; stroke-opacity:1; 
stroke-linecap:round; stroke-linejoin:round;">
<g >
</g>
<g style="fill:#FFFFFF; fill-opacity:1.0000; 
stroke:#FFFFFF; stroke-width:0.0000; stroke-opacity:1; 
stroke-linecap:round; stroke-linejoin:round;">
<path style="fill:#FFFFFF; fill-opacity:1.0000; 
stroke:#FFFFFF; stroke-width:0.0000; stroke-opacity:1; 
stroke-linecap:round; stroke-linejoin:round;fill-rule:evenodd;"
d="M 15.2988,2.8357
15.3036,2.8118
15.3171,2.7916
15.3374,2.7780
15.3613,2.7732
15.9113,2.7732
15.9352,2.7780
15.9555,2.7916
15.9690,2.8118
15.9738,2.8357
15.9738,2.9607
15.9690,2.9847
15.9555,3.0049
15.9352,3.0185
15.9113,3.0232
15.3613,3.0232
15.3374,3.0185
15.3171,3.0049
15.3036,2.9847
15.2988,2.9607
Z" /> 
<path style="fill:#FFFFFF; fill-opacity:1.0000; 
stroke:#FFFFFF; stroke-width:0.0000; stroke-opacity:1; 
stroke-linecap:round; stroke-linejoin:round;fill-rule:evenodd;"
d="M 15.2988,3.3357
15.3036,3.3118
15.3171,3.2916
15.3374,3.2780
15.3613,3.2732
15.9113,3.2732
15.9352,3.2780
15.9555,3.2916
15.9690,3.3118
15.9738,3.3357
15.9738,3.4607
15.9690,3.4847
15.9555,3.5049
15.9352,3.5185
15.9113,3.5232
15.3613,3.5232
15.3374,3.5185
15.3171,3.5049
15.3036,3.4847
15.2988,3.4607
Z" /> 
<path style="fill:#FFFFFF; fill-opacity:1.0000; 
stroke:#FFFFFF; stroke-width:0.0000; stroke-opacity:1; 
stroke-linecap:round; stroke-linejoin:round;fill-rule:evenodd;"
d="M 15.2988,3.8357
15.3036,3.8118
15.3171,3.7916
15.3374,3.7780
15.3613,3.7732
15.9113,3.7732
15.9352,3.7780
15.9555,3.7916
15.9690,3.8118
15.9738,3.8357
15.9738,3.9607
15.9690,3.9847
15.9555,4.0049
15.9352,4.0185
15.9113,4.0232
15.3613,4.0232
15.3374,4.0185
15.3171,4.0049
15.3036,3.9847
15.2988,3.9607
Z" /> 
<path style="fill:#FFFFFF; fill-opacity:1.0000; 
stroke:#FFFFFF; stroke-width:0.0000; stroke-opacity:1; 
stroke-linecap:round; stroke-linejoin:round;fill-rule:evenodd;"
d="M 15.2988,4.3357
15.3036,4.3118
15.3171,4.2916
15.3374,4.2780
15.3613,4.2732
15.9113,4.2732
15.9352,4.2780
15.9555,4.2916
15.9690,4.3118
15.9738,4.3357
15.9738,4.4607
15.9690,4.4847
15.9555,4.5049
15.9352,4.5185
15.9113,4.5232
15.3613,4.5232
15.3374,4.5185
15.3171,4.5049
15.3036,4.4847
15.2988,4.4607
Z" /> 
<path style="fill:#FFFFFF; fill-opacity:1.0000; 
stroke:#FFFFFF; stroke-width:0.0000; stroke-opacity:1; 
stroke-linecap:round; stroke-linejoin:round;fill-rule:evenodd;"
d="M 16.2738,4.8857
16.2786,4.8618
16.2921,4.8416
16.3124,4.8280
16.3363,4.8232
16.4613,4.8232
16.4852,4.8280
16.5055,4.8416
16.5191,4.8618
16.5238,4.8857
16.5238,5.4357
16.5191,5.4597
16.5055,5.4799
16.4852,5.4935
16.4613,5.4982
16.3363,5.4982
16.3124,5.4935
16.2921,5.4799
16.2786,5.4597
16.2738,5.4357
Z" /> 
<path style="fill:#FFFFFF; fill-opacity:1.0000; 
stroke:#FFFFFF; stroke-width:0.0000; stroke-opacity:1; 
stroke-linecap:round; stroke-linejoin:round;fill-rule:evenodd;"
d="M 16.7738,4.8857
16.7786,4.8618
16.7921,4.8416
16.8124,4.8280
16.8363,4.8232
16.9613,4.8232
16.9852,4.8280
17.0055,4.8416
17.0191,4.8618
17.0238,4.8857
17.0238,5.4357
17.0191,5.4597
17.0055,5.4799
16.9852,5.4935
16.9613,5.4982
16.8363,5.4982
16.8124,5.4935
16.7921,5.4799
16.7786,5.4597
16.7738,5.4357
Z" /> 
<path style="fill:#FFFFFF; fill-opacity:1.0000; 
stroke:#FFFFFF; stroke-width:0.0000; stroke-opacity:1; 
stroke-linecap:round; stroke-linejoin:round;fill-rule:evenodd;"
d="M 17.2738,4.8857
17.2786,4.8618
17.2921,4.8416
17.3124,4.8280
17.3363,4.8232
17.4613,4.8232
17.4852,4.8280
17.5055,4.8416
17.5191,4.8618
17.5238,4.8857
17.5238,5.4357
17.5191,5.4597
17.5055,5.4799
17.4852,5.4935
17.4613,5.4982
17.3363,5.4982
17.3124,5.4935
17.2921,5.4799
17.2786,5.4597
17.2738,5.4357
Z" /> 
<path style="fill:#FFFFFF; fill-opacity:1.0000; 
stroke:#FFFFFF; stroke-width:0.0000; stroke-opacity:1; 
stroke-linecap:round; stroke-linejoin:round;fill-rule:evenodd;"
d="M 17.7738,4.8857
17.7786,4.8618
17.7921,4.8416
17.8124,4.8280
17.8363,4.8232
17.9613,4.8232
17.9852,4.8280
18.0055,4.8416
18.0191,4.8618
18.0238,4.8857
18.0238,5.4357
18.0191,5.4597
18.0055,5.4799
17.9852,5.4935
17.9613,5.4982
17.8363,5.4982
17.8124,5.4935
17.7921,5.4799
17.7786,5.4597
17.7738,5.4357
Z" /> 
<path style="fill:#FFFFFF; fill-opacity:1.0000; 
stroke:#FFFFFF; stroke-width:0.0000; stroke-opacity:1; 
stroke-linecap:round; stroke-linejoin:round;fill-rule:evenodd;"
d="M 18.3238,4.3357
18.3286,4.3118
18.3421,4.2916
18.3624,4.2780
18.3863,4.2732
18.9363,4.2732
18.9602,4.2780
18.9805,4.2916
18.9940,4.3118
18.9988,4.3357
18.9988,4.4607
18.9940,4.4847
18.9805,4.5049
18.9602,4.5185
18.9363,4.5232
18.3863,4.5232
18.3624,4.5185
18.3421,4.5049
18.3286,4.4847
18.3238,4.4607
Z" /> 
<path style="fill:#FFFFFF; fill-opacity:1.0000; 
stroke:#FFFFFF; stroke-width:0.0000; stroke-opacity:1; 
stroke-linecap:round; stroke-linejoin:round;fill-rule:evenodd;"
d="M 18.3238,3.8357
18.3286,3.8118
18.3421,3.7916
18.3624,3.7780
18.3863,3.7732
18.9363,3.7732
18.9602,3.7780
18.9805,3.7916
18.9940,3.8118
18.9988,3.8357
18.9988,3.9607
18.9940,3.9847
18.9805,4.0049
18.9602,4.0185
18.9363,4.0232
18.3863,4.0232
18.3624,4.0185
18.3421,4.0049
18.3286,3.9847
18.3238,3.9607
Z" /> 
<path style="fill:#FFFFFF; fill-opacity:1.0000; 
stroke:#FFFFFF; stroke-width:0.0000; stroke-opacity:1; 
stroke-linecap:round; stroke-linejoin:round;fill-rule:evenodd;"
d="M 18.3238,3.3357
18.3286,3.3118
18.3421,3.2916
18.3624,3.2780
18.3863,3.2732
18.9363,3.2732
18.9602,3.2780
18.9805,3.2916
18.9940,3.3118
18.9988,3.3357
18.9988,3.4607
18.9940,3.4847
18.9805,3.5049
18.9602,3.5185
18.9363,3.5232
18.3863,3.5232
18.3624,3.5185
18.3421,3.5049
18.3286,3.4847
18.3238,3.4607
Z" /> 
<path style="fill:#FFFFFF; fill-opacity:1.0000; 
stroke:#FFFFFF; stroke-width:0.0000; stroke-opacity:1; 
stroke-linecap:round; stroke-linejoin:round;fill-rule:evenodd;"
d="M 18.3238,2.8357
18.3286,2.8118
18.3421,2.7916
18.3624,2.7780
18.3863,2.7732
18.9363,2.7732
18.9602,2.7780
18.9805,2.7916
18.9940,2.8118
18.9988,2.8357
18.9988,2.9607
18.9940,2.9847
18.9805,3.0049
18.9602,3.0185
18.9363,3.0232
18.3863,3.0232
18.3624,3.0185
18.3421,3.0049
18.3286,2.9847
18.3238,2.9607
Z" /> 
<path style="fill:#FFFFFF; fill-opacity:1.0000; 
stroke:#FFFFFF; stroke-width:0.0000; stroke-opacity:1; 
stroke-linecap:round; stroke-linejoin:round;fill-rule:evenodd;"
d="M 17.7738,1.8607
17.7786,1.8368
17.7921,1.8166
17.8124,1.8030
17.8363,1.7982
17.9613,1.7982
17.9852,1.8030
18.0055,1.8166
18.0191,1.8368
18.0238,1.8607
18.0238,2.4107
18.0191,2.4347
18.0055,2.4549
17.9852,2.4685
17.9613,2.4732
17.8363,2.4732
17.8124,2.4685
17.7921,2.4549
17.7786,2.4347
17.7738,2.4107
Z" /> 
<path style="fill:#FFFFFF; fill-opacity:1.0000; 
stroke:#FFFFFF; stroke-width:0.0000; stroke-opacity:1; 
stroke-linecap:round; stroke-linejoin:round;fill-rule:evenodd;"
d="M 17.2738,1.8607
17.2786,1.8368
17.2921,1.8166
17.3124,1.8030
17.3363,1.7982
17.4613,1.7982
17.4852,1.8030
17.5055,1.8166
17.5191,1.8368
17.5238,1.8607
17.5238,2.4107
17.5191,2.4347
17.5055,2.4549
17.4852,2.4685
17.4613,2.4732
17.3363,2.4732
17.3124,2.4685
17.2921,2.4549
17.2786,2.4347
17.2738,2.4107
Z" /> 
<path style="fill:#FFFFFF; fill-opacity:1.0000; 
stroke:#FFFFFF; stroke-width:0.0000; stroke-opacity:1; 
stroke-linecap:round; stroke-linejoin:round;fill-rule:evenodd;"
d="M 16.7738,1.8607
16.7786,1.8368
16.7921,1.8166
16.8124,1.8030
16.8363,1.7982
16.9613,1.7982
16.9852,1.8030
17.0055,1.8166
17.0191,1.8368
17.0238,1.8607
17.0238,2.4107
17.0191,2.4347
17.0055,2.4549
16.9852,2.4685
16.9613,2.4732
16.8363,2.4732
16.8124,2.4685
16.7921,2.4549
16.7786,2.4347
16.7738,2.4107
Z" /> 
<path style="fill:#FFFFFF; fill-opacity:1.0000; 
stroke:#FFFFFF; stroke-width:0.0000; stroke-opacity:1; 
stroke-linecap:round; stroke-linejoin:round;fill-rule:evenodd;"
d="M 16.2738,1.8607
16.2786,1.8368
16.2921,1.8166
16.3124,1.8030
16.3363,1.7982
16.4613,1.7982
16.4852,1.8030
16.5055,1.8166
16.5191,1.8368
16.5238,1.8607
16.5238,2.4107
16.5191,2.4347
16.5055,2.4549
16.4852,2.4685
16.4613,2.4732
16.3363,2.4732
16.3124,2.4685
16.2921,2.4549
16.2786,2.4347
16.2738,2.4107
Z" /> 
<path style="fill:#FFFFFF; fill-opacity:1.0000; 
stroke:#FFFFFF; stroke-width:0.0000; stroke-opacity:1; 
stroke-linecap:round; stroke-linejoin:round;fill-rule:evenodd;"
d="M 16.1988,4.5983
16.1988,2.6982
18.0988,2.6982
18.0988,4.5983
Z" /> 
</g>
<g >
</g>
<g >
</g>
<g >
</g>
</g>
<g style="fill:#FFFFFF; fill-opacity:1.0000; 
stroke:#FFFFFF; stroke-width:0.0000; stroke-opacity:1; 
stroke-linecap:round; stroke-linejoin:round;">
<g >
<path style="fill:#FFFFFF; fill-opacity:1.0000; 
stroke:#FFFFFF; stroke-width:0.0000; stroke-opacity:1; 
stroke-linecap:round; stroke-linejoin:round;fill-rule:evenodd;"
d="M 16.2888,2.9808
16.3035,2.9071
16.3452,2.8446
16.4076,2.8029
16.4813,2.7882
16.8663,2.7882
16.9400,2.8029
17.0024,2.8446
17.0442,2.9071
17.0588,2.9808
17.0588,3.3657
17.0442,3.4394
17.0024,3.5019
16.9400,3.5436
16.8663,3.5582
16.4813,3.5582
16.4076,3.5436
16.3452,3.5019
16.3035,3.4394
16.2888,3.3657
Z" /> 
<path style="fill:#FFFFFF; fill-opacity:1.0000; 
stroke:#FFFFFF; stroke-width:0.0000; stroke-opacity:1; 
stroke-linecap:round; stroke-linejoin:round;fill-rule:evenodd;"
d="M 16.2888,3.9307
16.3035,3.8571
16.3452,3.7946
16.4076,3.7529
16.4813,3.7382
16.8663,3.7382
16.9400,3.7529
17.0024,3.7946
17.0442,3.8571
17.0588,3.9307
17.0588,4.3157
17.0442,4.3894
17.0024,4.4519
16.9400,4.4936
16.8663,4.5082
16.4813,4.5082
16.4076,4.4936
16.3452,4.4519
16.3035,4.3894
16.2888,4.3157
Z" /> 
<path style="fill:#FFFFFF; fill-opacity:1.0000; 
stroke:#FFFFFF; stroke-width:0.0000; stroke-opacity:1; 
stroke-linecap:round; stroke-linejoin:round;fill-rule:evenodd;"
d="M 17.2388,3.9307
17.2535,3.8571
17.2952,3.7946
17.3576,3.7529
17.4313,3.7382
17.8163,3.7382
17.8900,3.7529
17.9524,3.7946
17.9942,3.8571
18.0088,3.9307
18.0088,4.3157
17.9942,4.3894
17.9524,4.4519
17.8900,4.4936
17.8163,4.5082
17.4313,4.5082
17.3576,4.4936
17.2952,4.4519
17.2535,4.3894
17.2388,4.3157
Z" /> 
<path style="fill:#FFFFFF; fill-opacity:1.0000; 
stroke:#FFFFFF; stroke-width:0.0000; stroke-opacity:1; 
stroke-linecap:round; stroke-linejoin:round;fill-rule:evenodd;"
d="M 17.2388,2.9808
17.2535,2.9071
17.2952,2.8446
17.3576,2.8029
17.4313,2.7882
17.8163,2.7882
17.8900,2.8029
17.9524,2.8446
17.9942,2.9071
18.0088,2.9808
18.0088,3.3657
17.9942,3.4394
17.9524,3.5019
17.8900,3.5436
17.8163,3.5582
17.4313,3.5582
17.3576,3.5436
17.2952,3.5019
17.2535,3.4394
17.2388,3.3657
Z" /> 
<path style="fill:#FFFFFF; fill-opacity:1.0000; 
stroke:#FFFFFF; stroke-width:0.0000; stroke-opacity:1; 
stroke-linecap:round; stroke-linejoin:round;fill-rule:evenodd;"
d="M 15.2988,2.8357
15.3036,2.8118
15.3171,2.7916
15.3374,2.7780
15.3613,2.7732
15.9113,2.7732
15.9352,2.7780
15.9555,2.7916
15.9690,2.8118
15.9738,2.8357
15.9738,2.9607
15.9690,2.9847
15.9555,3.0049
15.9352,3.0185
15.9113,3.0232
15.3613,3.0232
15.3374,3.0185
15.3171,3.0049
15.3036,2.9847
15.2988,2.9607
Z" /> 
<path style="fill:#FFFFFF; fill-opacity:1.0000; 
stroke:#FFFFFF; stroke-width:0.0000; stroke-opacity:1; 
stroke-linecap:round; stroke-linejoin:round;fill-rule:evenodd;"
d="M 15.2988,3.3357
15.3036,3.3118
15.3171,3.2916
15.3374,3.2780
15.3613,3.2732
15.9113,3.2732
15.9352,3.2780
15.9555,3.2916
15.9690,3.3118
15.9738,3.3357
15.9738,3.4607
15.9690,3.4847
15.9555,3.5049
15.9352,3.5185
15.9113,3.5232
15.3613,3.5232
15.3374,3.5185
15.3171,3.5049
15.3036,3.4847
15.2988,3.4607
Z" /> 
<path style="fill:#FFFFFF; fill-opacity:1.0000; 
stroke:#FFFFFF; stroke-width:0.0000; stroke-opacity:1; 
stroke-linecap:round; stroke-linejoin:round;fill-rule:evenodd;"
d="M 15.2988,3.8357
15.3036,3.8118
15.3171,3.7916
15.3374,3.7780
15.3613,3.7732
15.9113,3.7732
15.9352,3.7780
15.9555,3.7916
15.9690,3.8118
15.9738,3.8357
15.9738,3.9607
15.9690,3.9847
15.9555,4.0049
15.9352,4.0185
15.9113,4.0232
15.3613,4.0232
15.3374,4.0185
15.3171,4.0049
15.3036,3.9847
15.2988,3.9607
Z" /> 
<path style="fill:#FFFFFF; fill-opacity:1.0000; 
stroke:#FFFFFF; stroke-width:0.0000; stroke-opacity:1; 
stroke-linecap:round; stroke-linejoin:round;fill-rule:evenodd;"
d="M 15.2988,4.3357
15.3036,4.3118
15.3171,4.2916
15.3374,4.2780
15.3613,4.2732
15.9113,4.2732
15.9352,4.2780
15.9555,4.2916
15.9690,4.3118
15.9738,4.3357
15.9738,4.4607
15.9690,4.4847
15.9555,4.5049
15.9352,4.5185
15.9113,4.5232
15.3613,4.5232
15.3374,4.5185
15.3171,4.5049
15.3036,4.4847
15.2988,4.4607
Z" /> 
<path style="fill:#FFFFFF; fill-opacity:1.0000; 
stroke:#FFFFFF; stroke-width:0.0000; stroke-opacity:1; 
stroke-linecap:round; stroke-linejoin:round;fill-rule:evenodd;"
d="M 16.2738,4.8857
16.2786,4.8618
16.2921,4.8416
16.3124,4.8280
16.3363,4.8232
16.4613,4.8232
16.4852,4.8280
16.5055,4.8416
16.5191,4.8618
16.5238,4.8857
16.5238,5.4357
16.5191,5.4597
16.5055,5.4799
16.4852,5.4935
16.4613,5.4982
16.3363,5.4982
16.3124,5.4935
16.2921,5.4799
16.2786,5.4597
16.2738,5.4357
Z" /> 
<path style="fill:#FFFFFF; fill-opacity:1.0000; 
stroke:#FFFFFF; stroke-width:0.0000; stroke-opacity:1; 
stroke-linecap:round; stroke-linejoin:round;fill-rule:evenodd;"
d="M 16.7738,4.8857
16.7786,4.8618
16.7921,4.8416
16.8124,4.8280
16.8363,4.8232
16.9613,4.8232
16.9852,4.8280
17.0055,4.8416
17.0191,4.8618
17.0238,4.8857
17.0238,5.4357
17.0191,5.4597
17.0055,5.4799
16.9852,5.4935
16.9613,5.4982
16.8363,5.4982
16.8124,5.4935
16.7921,5.4799
16.7786,5.4597
16.7738,5.4357
Z" /> 
<path style="fill:#FFFFFF; fill-opacity:1.0000; 
stroke:#FFFFFF; stroke-width:0.0000; stroke-opacity:1; 
stroke-linecap:round; stroke-linejoin:round;fill-rule:evenodd;"
d="M 17.2738,4.8857
17.2786,4.8618
17.2921,4.8416
17.3124,4.8280
17.3363,4.8232
17.4613,4.8232
17.4852,4.8280
17.5055,4.8416
17.5191,4.8618
17.5238,4.8857
17.5238,5.4357
17.5191,5.4597
17.5055,5.4799
17.4852,5.4935
17.4613,5.4982
17.3363,5.4982
17.3124,5.4935
17.2921,5.4799
17.2786,5.4597
17.2738,5.4357
Z" /> 
<path style="fill:#FFFFFF; fill-opacity:1.0000; 
stroke:#FFFFFF; stroke-width:0.0000; stroke-opacity:1; 
stroke-linecap:round; stroke-linejoin:round;fill-rule:evenodd;"
d="M 17.7738,4.8857
17.7786,4.8618
17.7921,4.8416
17.8124,4.8280
17.8363,4.8232
17.9613,4.8232
17.9852,4.8280
18.0055,4.8416
18.0191,4.8618
18.0238,4.8857
18.0238,5.4357
18.0191,5.4597
18.0055,5.4799
17.9852,5.4935
17.9613,5.4982
17.8363,5.4982
17.8124,5.4935
17.7921,5.4799
17.7786,5.4597
17.7738,5.4357
Z" /> 
<path style="fill:#FFFFFF; fill-opacity:1.0000; 
stroke:#FFFFFF; stroke-width:0.0000; stroke-opacity:1; 
stroke-linecap:round; stroke-linejoin:round;fill-rule:evenodd;"
d="M 18.3238,4.3357
18.3286,4.3118
18.3421,4.2916
18.3624,4.2780
18.3863,4.2732
18.9363,4.2732
18.9602,4.2780
18.9805,4.2916
18.9940,4.3118
18.9988,4.3357
18.9988,4.4607
18.9940,4.4847
18.9805,4.5049
18.9602,4.5185
18.9363,4.5232
18.3863,4.5232
18.3624,4.5185
18.3421,4.5049
18.3286,4.4847
18.3238,4.4607
Z" /> 
<path style="fill:#FFFFFF; fill-opacity:1.0000; 
stroke:#FFFFFF; stroke-width:0.0000; stroke-opacity:1; 
stroke-linecap:round; stroke-linejoin:round;fill-rule:evenodd;"
d="M 18.3238,3.8357
18.3286,3.8118
18.3421,3.7916
18.3624,3.7780
18.3863,3.7732
18.9363,3.7732
18.9602,3.7780
18.9805,3.7916
18.9940,3.8118
18.9988,3.8357
18.9988,3.9607
18.9940,3.9847
18.9805,4.0049
18.9602,4.0185
18.9363,4.0232
18.3863,4.0232
18.3624,4.0185
18.3421,4.0049
18.3286,3.9847
18.3238,3.9607
Z" /> 
<path style="fill:#FFFFFF; fill-opacity:1.0000; 
stroke:#FFFFFF; stroke-width:0.0000; stroke-opacity:1; 
stroke-linecap:round; stroke-linejoin:round;fill-rule:evenodd;"
d="M 18.3238,3.3357
18.3286,3.3118
18.3421,3.2916
18.3624,3.2780
18.3863,3.2732
18.9363,3.2732
18.9602,3.2780
18.9805,3.2916
18.9940,3.3118
18.9988,3.3357
18.9988,3.4607
18.9940,3.4847
18.9805,3.5049
18.9602,3.5185
18.9363,3.5232
18.3863,3.5232
18.3624,3.5185
18.3421,3.5049
18.3286,3.4847
18.3238,3.4607
Z" /> 
<path style="fill:#FFFFFF; fill-opacity:1.0000; 
stroke:#FFFFFF; stroke-width:0.0000; stroke-opacity:1; 
stroke-linecap:round; stroke-linejoin:round;fill-rule:evenodd;"
d="M 18.3238,2.8357
18.3286,2.8118
18.3421,2.7916
18.3624,2.7780
18.3863,2.7732
18.9363,2.7732
18.9602,2.7780
18.9805,2.7916
18.9940,2.8118
18.9988,2.8357
18.9988,2.9607
18.9940,2.9847
18.9805,3.0049
18.9602,3.0185
18.9363,3.0232
18.3863,3.0232
18.3624,3.0185
18.3421,3.0049
18.3286,2.9847
18.3238,2.9607
Z" /> 
<path style="fill:#FFFFFF; fill-opacity:1.0000; 
stroke:#FFFFFF; stroke-width:0.0000; stroke-opacity:1; 
stroke-linecap:round; stroke-linejoin:round;fill-rule:evenodd;"
d="M 17.7738,1.8607
17.7786,1.8368
17.7921,1.8166
17.8124,1.8030
17.8363,1.7982
17.9613,1.7982
17.9852,1.8030
18.0055,1.8166
18.0191,1.8368
18.0238,1.8607
18.0238,2.4107
18.0191,2.4347
18.0055,2.4549
17.9852,2.4685
17.9613,2.4732
17.8363,2.4732
17.8124,2.4685
17.7921,2.4549
17.7786,2.4347
17.7738,2.4107
Z" /> 
<path style="fill:#FFFFFF; fill-opacity:1.0000; 
stroke:#FFFFFF; stroke-width:0.0000; stroke-opacity:1; 
stroke-linecap:round; stroke-linejoin:round;fill-rule:evenodd;"
d="M 17.2738,1.8607
17.2786,1.8368
17.2921,1.8166
17.3124,1.8030
17.3363,1.7982
17.4613,1.7982
17.4852,1.8030
17.5055,1.8166
17.5191,1.8368
17.5238,1.8607
17.5238,2.4107
17.5191,2.4347
17.5055,2.4549
17.4852,2.4685
17.4613,2.4732
17.3363,2.4732
17.3124,2.4685
17.2921,2.4549
17.2786,2.4347
17.2738,2.4107
Z" /> 
<path style="fill:#FFFFFF; fill-opacity:1.0000; 
stroke:#FFFFFF; stroke-width:0.0000; stroke-opacity:1; 
stroke-linecap:round; stroke-linejoin:round;fill-rule:evenodd;"
d="M 16.7738,1.8607
16.7786,1.8368
16.7921,1.8166
16.8124,1.8030
16.8363,1.7982
16.9613,1.7982
16.9852,1.8030
17.0055,1.8166
17.0191,1.8368
17.0238,1.8607
17.0238,2.4107
17.0191,2.4347
17.0055,2.4549
16.9852,2.4685
16.9613,2.4732
16.8363,2.4732
16.8124,2.4685
16.7921,2.4549
16.7786,2.4347
16.7738,2.4107
Z" /> 
<path style="fill:#FFFFFF; fill-opacity:1.0000; 
stroke:#FFFFFF; stroke-width:0.0000; stroke-opacity:1; 
stroke-linecap:round; stroke-linejoin:round;fill-rule:evenodd;"
d="M 16.2738,1.8607
16.2786,1.8368
16.2921,1.8166
16.3124,1.8030
16.3363,1.7982
16.4613,1.7982
16.4852,1.8030
16.5055,1.8166
16.5191,1.8368
16.5238,1.8607
16.5238,2.4107
16.5191,2.4347
16.5055,2.4549
16.4852,2.4685
16.4613,2.4732
16.3363,2.4732
16.3124,2.4685
16.2921,2.4549
16.2786,2.4347
16.2738,2.4107
Z" /> 
</g>
<g >
</g>
<g >
</g>
<g >
</g>
</g>
<g style="fill:#FFFFFF; fill-opacity:1.0000; 
stroke:#FFFFFF; stroke-width:0.0000; stroke-opacity:1; 
stroke-linecap:round; stroke-linejoin:round;">
</g>
<g style="fill:#FFFFFF; fill-opacity:1.0000; 
stroke:#FFFFFF; stroke-width:0.1500; stroke-opacity:1; 
stroke-linecap:round; stroke-linejoin:round;">
</g>
<g style="fill:#FFFFFF; fill-opacity:0.0; 
stroke:#FFFFFF; stroke-width:0.1500; stroke-opacity:1; 
stroke-linecap:round; stroke-linejoin:round;">
<text x="17.1488" y="1.3482"
textLength="4.5357" font-size="1.3333" lengthAdjust="spacingAndGlyphs"
text-anchor="middle" opacity="0">REF**</text>
<g class="stroked-text"><desc>REF**</desc>
<path d="M15.8155 1.3031
L15.4821 0.8269
" />
<path d="M15.2440 1.3031
L15.2440 0.3031
" />
<path d="M15.2440 0.3031
L15.6250 0.3031
" />
<path d="M15.6250 0.3031
L15.7202 0.3507
" />
<path d="M15.7202 0.3507
L15.7679 0.3983
" />
<path d="M15.7679 0.3983
L15.8155 0.4935
" />
<path d="M15.8155 0.4935
L15.8155 0.6364
" />
<path d="M15.8155 0.6364
L15.7679 0.7316
" />
<path d="M15.7679 0.7316
L15.7202 0.7793
" />
<path d="M15.7202 0.7793
L15.6250 0.8269
" />
<path d="M15.6250 0.8269
L15.2440 0.8269
" />
<path d="M16.2440 0.7793
L16.5774 0.7793
" />
<path d="M16.7202 1.3031
L16.2440 1.3031
" />
<path d="M16.2440 1.3031
L16.2440 0.3031
" />
<path d="M16.2440 0.3031
L16.7202 0.3031
" />
<path d="M17.4821 0.7793
L17.1488 0.7793
" />
<path d="M17.1488 1.3031
L17.1488 0.3031
" />
<path d="M17.1488 0.3031
L17.6250 0.3031
" />
<path d="M18.1488 0.3031
L18.1488 0.5412
" />
<path d="M17.9107 0.4459
L18.1488 0.5412
" />
<path d="M18.1488 0.5412
L18.3869 0.4459
" />
<path d="M18.0060 0.7316
L18.1488 0.5412
" />
<path d="M18.1488 0.5412
L18.2917 0.7316
" />
<path d="M18.9107 0.3031
L18.9107 0.5412
" />
<path d="M18.6726 0.4459
L18.9107 0.5412
" />
<path d="M18.9107 0.5412
L19.1488 0.4459
" />
<path d="M18.7679 0.7316
L18.9107 0.5412
" />
<path d="M18.9107 0.5412
L19.0536 0.7316
" />
</g></g>
<g style="fill:#FFFFFF; fill-opacity:0.0; 
stroke:#FFFFFF; stroke-width:0.1200; stroke-opacity:1; 
stroke-linecap:round; stroke-linejoin:round;">
<path d="M16.0138 2.0383
L15.5388 2.0383
" />
<path d="M15.5388 5.2582
L15.5388 4.7832
" />
<path d="M18.7588 5.2582
L18.7588 4.7832
" />
<path d="M18.7588 2.0383
L18.7588 2.5132
" />
<path d="M16.0138 5.2582
L15.5388 5.2582
" />
<path d="M18.2838 2.0383
L18.7588 2.0383
" />
<path d="M18.2838 5.2582
L18.7588 5.2582
" />
<g >
</g>
<g >
</g>
<g >
</g>
<g >
</g>
</g> 
</svg>
