<?xml version="1.0" standalone="no"?>
 <!DOCTYPE svg PUBLIC "-//W3C//DTD SVG 1.1//EN" 
 "http://www.w3.org/Graphics/SVG/1.1/DTD/svg11.dtd"> 
<svg
  xmlns:svg="http://www.w3.org/2000/svg"
  xmlns="http://www.w3.org/2000/svg"
  xmlns:xlink="http://www.w3.org/1999/xlink"
  version="1.1"
  width="35.0520mm" height="9.2964mm" viewBox="0.0000 0.0000 35.0520 9.2964">
<title>SVG Image created as TQFN-32-1EP_5x5mm_P0.5mm_EP2.1x2.1mm.svg date 2024/01/16 15:07:16 </title>
  <desc>Image generated by PCBNEW </desc>
<g style="fill:#000000; fill-opacity:1.0000;stroke:#000000; stroke-opacity:1.0000;
stroke-linecap:round; stroke-linejoin:round;"
 transform="translate(0 0) scale(1 1)">
</g>
<g style="fill:#000000; fill-opacity:0.0; 
stroke:#000000; stroke-width:0.0000; stroke-opacity:1; 
stroke-linecap:round; stroke-linejoin:round;">
</g>
<g style="fill:#000000; fill-opacity:1.0000; 
stroke:#000000; stroke-width:0.0212; stroke-opacity:1; 
stroke-linecap:round; stroke-linejoin:round;">
<rect x="-5.000000" y="-5.000000" width="45.059522" height="19.296500" rx="0.000000" />
</g>
<g style="fill:#FFFFFF; fill-opacity:1.0000; 
stroke:#FFFFFF; stroke-width:0.0212; stroke-opacity:1; 
stroke-linecap:round; stroke-linejoin:round;">
<g >
</g>
<g >
</g>
<g >
</g>
<g >
</g>
</g>
<g style="fill:#FFFFFF; fill-opacity:1.0000; 
stroke:#FFFFFF; stroke-width:0.0212; stroke-opacity:1; 
stroke-linecap:round; stroke-linejoin:round;">
<g >
</g>
<g >
</g>
<g >
</g>
<g >
</g>
</g>
<g style="fill:#FFFFFF; fill-opacity:1.0000; 
stroke:#FFFFFF; stroke-width:0.0212; stroke-opacity:1; 
stroke-linecap:round; stroke-linejoin:round;">
<g >
</g>
<g >
</g>
<g >
</g>
<g >
</g>
</g>
<g style="fill:#FFFFFF; fill-opacity:1.0000; 
stroke:#FFFFFF; stroke-width:0.0212; stroke-opacity:1; 
stroke-linecap:round; stroke-linejoin:round;">
<g >
</g>
<g >
</g>
<g >
</g>
<g >
</g>
</g>
<g style="fill:#FFFFFF; fill-opacity:1.0000; 
stroke:#FFFFFF; stroke-width:0.0212; stroke-opacity:1; 
stroke-linecap:round; stroke-linejoin:round;">
<g >
</g>
<g >
</g>
<g >
</g>
<g >
</g>
</g>
<g style="fill:#FFFFFF; fill-opacity:1.0000; 
stroke:#FFFFFF; stroke-width:0.0212; stroke-opacity:1; 
stroke-linecap:round; stroke-linejoin:round;">
<g >
</g>
<g >
</g>
<g >
</g>
<g >
</g>
</g>
<g style="fill:#FFFFFF; fill-opacity:1.0000; 
stroke:#FFFFFF; stroke-width:0.0212; stroke-opacity:1; 
stroke-linecap:round; stroke-linejoin:round;">
<g >
</g>
<g >
</g>
<g >
</g>
<g >
</g>
</g>
<g style="fill:#FFFFFF; fill-opacity:1.0000; 
stroke:#FFFFFF; stroke-width:0.0212; stroke-opacity:1; 
stroke-linecap:round; stroke-linejoin:round;">
<g >
</g>
<g >
</g>
<g >
</g>
<g >
</g>
</g>
<g style="fill:#FFFFFF; fill-opacity:1.0000; 
stroke:#FFFFFF; stroke-width:0.0212; stroke-opacity:1; 
stroke-linecap:round; stroke-linejoin:round;">
<g >
</g>
<g >
</g>
<g >
</g>
<g >
</g>
</g>
<g style="fill:#FFFFFF; fill-opacity:1.0000; 
stroke:#FFFFFF; stroke-width:0.0212; stroke-opacity:1; 
stroke-linecap:round; stroke-linejoin:round;">
<g >
</g>
<g >
</g>
<g >
</g>
<g >
</g>
</g>
<g style="fill:#FFFFFF; fill-opacity:1.0000; 
stroke:#FFFFFF; stroke-width:0.0212; stroke-opacity:1; 
stroke-linecap:round; stroke-linejoin:round;">
<g >
</g>
<g >
</g>
<g >
</g>
<g >
</g>
</g>
<g style="fill:#FFFFFF; fill-opacity:1.0000; 
stroke:#FFFFFF; stroke-width:0.0212; stroke-opacity:1; 
stroke-linecap:round; stroke-linejoin:round;">
<g >
</g>
<g >
</g>
<g >
</g>
<g >
</g>
</g>
<g style="fill:#FFFFFF; fill-opacity:1.0000; 
stroke:#FFFFFF; stroke-width:0.0212; stroke-opacity:1; 
stroke-linecap:round; stroke-linejoin:round;">
<g >
</g>
<g >
</g>
<g >
</g>
<g >
</g>
</g>
<g style="fill:#FFFFFF; fill-opacity:1.0000; 
stroke:#FFFFFF; stroke-width:0.0212; stroke-opacity:1; 
stroke-linecap:round; stroke-linejoin:round;">
<g >
</g>
<g >
</g>
<g >
</g>
<g >
</g>
</g>
<g style="fill:#FFFFFF; fill-opacity:1.0000; 
stroke:#FFFFFF; stroke-width:0.0212; stroke-opacity:1; 
stroke-linecap:round; stroke-linejoin:round;">
<g >
</g>
<g >
</g>
<g >
</g>
<g >
</g>
</g>
<g style="fill:#FFFFFF; fill-opacity:1.0000; 
stroke:#FFFFFF; stroke-width:0.0212; stroke-opacity:1; 
stroke-linecap:round; stroke-linejoin:round;">
<g >
</g>
<g >
</g>
<g >
</g>
<g >
</g>
</g>
<g style="fill:#FFFFFF; fill-opacity:1.0000; 
stroke:#FFFFFF; stroke-width:0.0212; stroke-opacity:1; 
stroke-linecap:round; stroke-linejoin:round;">
<g >
</g>
<g >
</g>
<g >
</g>
<g >
</g>
</g>
<g style="fill:#FFFFFF; fill-opacity:1.0000; 
stroke:#FFFFFF; stroke-width:0.0212; stroke-opacity:1; 
stroke-linecap:round; stroke-linejoin:round;">
<g >
</g>
<g >
</g>
<g >
</g>
<g >
</g>
</g>
<g style="fill:#FFFFFF; fill-opacity:1.0000; 
stroke:#FFFFFF; stroke-width:0.0212; stroke-opacity:1; 
stroke-linecap:round; stroke-linejoin:round;">
<g >
</g>
<g >
</g>
<g >
</g>
<g >
</g>
</g>
<g style="fill:#FFFFFF; fill-opacity:1.0000; 
stroke:#FFFFFF; stroke-width:0.0212; stroke-opacity:1; 
stroke-linecap:round; stroke-linejoin:round;">
<g >
</g>
<g >
</g>
<g >
</g>
<g >
</g>
</g>
<g style="fill:#FFFFFF; fill-opacity:1.0000; 
stroke:#FFFFFF; stroke-width:0.0212; stroke-opacity:1; 
stroke-linecap:round; stroke-linejoin:round;">
<g >
</g>
<g >
</g>
<g >
</g>
<g >
</g>
</g>
<g style="fill:#FFFFFF; fill-opacity:1.0000; 
stroke:#FFFFFF; stroke-width:0.0212; stroke-opacity:1; 
stroke-linecap:round; stroke-linejoin:round;">
<g >
</g>
<g >
</g>
<g >
</g>
<g >
</g>
</g>
<g style="fill:#FFFFFF; fill-opacity:1.0000; 
stroke:#FFFFFF; stroke-width:0.0212; stroke-opacity:1; 
stroke-linecap:round; stroke-linejoin:round;">
<g >
</g>
<g >
</g>
<g >
</g>
<g >
</g>
</g>
<g style="fill:#FFFFFF; fill-opacity:1.0000; 
stroke:#FFFFFF; stroke-width:0.0212; stroke-opacity:1; 
stroke-linecap:round; stroke-linejoin:round;">
<g >
</g>
<g >
</g>
<g >
</g>
<g >
</g>
</g>
<g style="fill:#FFFFFF; fill-opacity:1.0000; 
stroke:#FFFFFF; stroke-width:0.0212; stroke-opacity:1; 
stroke-linecap:round; stroke-linejoin:round;">
<g >
</g>
<g >
</g>
<g >
</g>
<g >
</g>
</g>
<g style="fill:#FFFFFF; fill-opacity:1.0000; 
stroke:#FFFFFF; stroke-width:0.0212; stroke-opacity:1; 
stroke-linecap:round; stroke-linejoin:round;">
<g >
</g>
<g >
</g>
<g >
</g>
<g >
</g>
</g>
<g style="fill:#FFFFFF; fill-opacity:1.0000; 
stroke:#FFFFFF; stroke-width:0.0212; stroke-opacity:1; 
stroke-linecap:round; stroke-linejoin:round;">
<g >
</g>
<g >
</g>
<g >
</g>
<g >
</g>
</g>
<g style="fill:#FFFFFF; fill-opacity:1.0000; 
stroke:#FFFFFF; stroke-width:0.0212; stroke-opacity:1; 
stroke-linecap:round; stroke-linejoin:round;">
<g >
</g>
<g >
</g>
<g >
</g>
<g >
</g>
</g>
<g style="fill:#FFFFFF; fill-opacity:1.0000; 
stroke:#FFFFFF; stroke-width:0.0212; stroke-opacity:1; 
stroke-linecap:round; stroke-linejoin:round;">
<g >
</g>
<g >
</g>
<g >
</g>
<g >
</g>
</g>
<g style="fill:#FFFFFF; fill-opacity:1.0000; 
stroke:#FFFFFF; stroke-width:0.0212; stroke-opacity:1; 
stroke-linecap:round; stroke-linejoin:round;">
<g >
</g>
<g >
</g>
<g >
</g>
<g >
</g>
</g>
<g style="fill:#FFFFFF; fill-opacity:1.0000; 
stroke:#FFFFFF; stroke-width:0.0212; stroke-opacity:1; 
stroke-linecap:round; stroke-linejoin:round;">
<g >
</g>
<g >
</g>
<g >
</g>
<g >
</g>
</g>
<g style="fill:#FFFFFF; fill-opacity:1.0000; 
stroke:#FFFFFF; stroke-width:0.0212; stroke-opacity:1; 
stroke-linecap:round; stroke-linejoin:round;">
<g >
</g>
<g >
</g>
<g >
</g>
<g >
</g>
</g>
<g style="fill:#FFFFFF; fill-opacity:1.0000; 
stroke:#FFFFFF; stroke-width:0.0212; stroke-opacity:1; 
stroke-linecap:round; stroke-linejoin:round;">
<g >
</g>
<g >
</g>
<g >
</g>
<g >
</g>
</g>
<g style="fill:#FFFFFF; fill-opacity:1.0000; 
stroke:#FFFFFF; stroke-width:0.0212; stroke-opacity:1; 
stroke-linecap:round; stroke-linejoin:round;">
<g >
</g>
<g style="fill:#FFFFFF; fill-opacity:1.0000; 
stroke:#FFFFFF; stroke-width:0.0000; stroke-opacity:1; 
stroke-linecap:round; stroke-linejoin:round;">
<path style="fill:#FFFFFF; fill-opacity:1.0000; 
stroke:#FFFFFF; stroke-width:0.0000; stroke-opacity:1; 
stroke-linecap:round; stroke-linejoin:round;fill-rule:evenodd;"
d="M 15.4331,2.7916
15.4865,2.8449
15.5048,2.8891
15.5048,2.9607
15.4865,3.0049
15.4423,3.0232
14.7423,3.0232
14.6981,3.0049
14.6798,2.9607
14.6798,2.8357
14.6981,2.7916
14.7423,2.7732
15.3889,2.7732
Z" /> 
<path style="fill:#FFFFFF; fill-opacity:1.0000; 
stroke:#FFFFFF; stroke-width:0.0000; stroke-opacity:1; 
stroke-linecap:round; stroke-linejoin:round;fill-rule:evenodd;"
d="M 14.6798,3.3357
14.6845,3.3118
14.6981,3.2916
14.7183,3.2780
14.7423,3.2732
15.4423,3.2732
15.4662,3.2780
15.4865,3.2916
15.5000,3.3118
15.5048,3.3357
15.5048,3.4607
15.5000,3.4847
15.4865,3.5049
15.4662,3.5185
15.4423,3.5232
14.7423,3.5232
14.7183,3.5185
14.6981,3.5049
14.6845,3.4847
14.6798,3.4607
Z" /> 
<path style="fill:#FFFFFF; fill-opacity:1.0000; 
stroke:#FFFFFF; stroke-width:0.0000; stroke-opacity:1; 
stroke-linecap:round; stroke-linejoin:round;fill-rule:evenodd;"
d="M 14.6798,3.8357
14.6845,3.8118
14.6981,3.7916
14.7183,3.7780
14.7423,3.7732
15.4423,3.7732
15.4662,3.7780
15.4865,3.7916
15.5000,3.8118
15.5048,3.8357
15.5048,3.9607
15.5000,3.9847
15.4865,4.0049
15.4662,4.0185
15.4423,4.0232
14.7423,4.0232
14.7183,4.0185
14.6981,4.0049
14.6845,3.9847
14.6798,3.9607
Z" /> 
<path style="fill:#FFFFFF; fill-opacity:1.0000; 
stroke:#FFFFFF; stroke-width:0.0000; stroke-opacity:1; 
stroke-linecap:round; stroke-linejoin:round;fill-rule:evenodd;"
d="M 14.6798,4.3357
14.6845,4.3118
14.6981,4.2916
14.7183,4.2780
14.7423,4.2732
15.4423,4.2732
15.4662,4.2780
15.4865,4.2916
15.5000,4.3118
15.5048,4.3357
15.5048,4.4607
15.5000,4.4847
15.4865,4.5049
15.4662,4.5185
15.4423,4.5232
14.7423,4.5232
14.7183,4.5185
14.6981,4.5049
14.6845,4.4847
14.6798,4.4607
Z" /> 
<path style="fill:#FFFFFF; fill-opacity:1.0000; 
stroke:#FFFFFF; stroke-width:0.0000; stroke-opacity:1; 
stroke-linecap:round; stroke-linejoin:round;fill-rule:evenodd;"
d="M 14.6798,4.8357
14.6845,4.8118
14.6981,4.7916
14.7183,4.7780
14.7423,4.7732
15.4423,4.7732
15.4662,4.7780
15.4865,4.7916
15.5000,4.8118
15.5048,4.8357
15.5048,4.9607
15.5000,4.9847
15.4865,5.0049
15.4662,5.0185
15.4423,5.0232
14.7423,5.0232
14.7183,5.0185
14.6981,5.0049
14.6845,4.9847
14.6798,4.9607
Z" /> 
<path style="fill:#FFFFFF; fill-opacity:1.0000; 
stroke:#FFFFFF; stroke-width:0.0000; stroke-opacity:1; 
stroke-linecap:round; stroke-linejoin:round;fill-rule:evenodd;"
d="M 14.6798,5.3357
14.6845,5.3118
14.6981,5.2916
14.7183,5.2780
14.7423,5.2732
15.4423,5.2732
15.4662,5.2780
15.4865,5.2916
15.5000,5.3118
15.5048,5.3357
15.5048,5.4607
15.5000,5.4847
15.4865,5.5049
15.4662,5.5185
15.4423,5.5232
14.7423,5.5232
14.7183,5.5185
14.6981,5.5049
14.6845,5.4847
14.6798,5.4607
Z" /> 
<path style="fill:#FFFFFF; fill-opacity:1.0000; 
stroke:#FFFFFF; stroke-width:0.0000; stroke-opacity:1; 
stroke-linecap:round; stroke-linejoin:round;fill-rule:evenodd;"
d="M 14.6798,5.8357
14.6845,5.8118
14.6981,5.7916
14.7183,5.7780
14.7423,5.7732
15.4423,5.7732
15.4662,5.7780
15.4865,5.7916
15.5000,5.8118
15.5048,5.8357
15.5048,5.9607
15.5000,5.9847
15.4865,6.0049
15.4662,6.0185
15.4423,6.0232
14.7423,6.0232
14.7183,6.0185
14.6981,6.0049
14.6845,5.9847
14.6798,5.9607
Z" /> 
<path style="fill:#FFFFFF; fill-opacity:1.0000; 
stroke:#FFFFFF; stroke-width:0.0000; stroke-opacity:1; 
stroke-linecap:round; stroke-linejoin:round;fill-rule:evenodd;"
d="M 15.4865,6.2916
15.5048,6.3357
15.5048,6.4074
15.4865,6.4516
15.4331,6.5049
15.3889,6.5232
14.7423,6.5232
14.6981,6.5049
14.6798,6.4607
14.6798,6.3357
14.6981,6.2916
14.7423,6.2732
15.4423,6.2732
Z" /> 
<path style="fill:#FFFFFF; fill-opacity:1.0000; 
stroke:#FFFFFF; stroke-width:0.0000; stroke-opacity:1; 
stroke-linecap:round; stroke-linejoin:round;fill-rule:evenodd;"
d="M 15.8865,6.6916
15.9048,6.7357
15.9048,7.4357
15.8865,7.4799
15.8423,7.4982
15.7173,7.4982
15.6731,7.4799
15.6548,7.4357
15.6548,6.7891
15.6731,6.7449
15.7265,6.6916
15.7706,6.6732
15.8423,6.6732
Z" /> 
<path style="fill:#FFFFFF; fill-opacity:1.0000; 
stroke:#FFFFFF; stroke-width:0.0000; stroke-opacity:1; 
stroke-linecap:round; stroke-linejoin:round;fill-rule:evenodd;"
d="M 16.1548,6.7357
16.1595,6.7118
16.1731,6.6916
16.1933,6.6780
16.2173,6.6732
16.3423,6.6732
16.3662,6.6780
16.3865,6.6916
16.4000,6.7118
16.4048,6.7357
16.4048,7.4357
16.4000,7.4597
16.3865,7.4799
16.3662,7.4935
16.3423,7.4982
16.2173,7.4982
16.1933,7.4935
16.1731,7.4799
16.1595,7.4597
16.1548,7.4357
Z" /> 
<path style="fill:#FFFFFF; fill-opacity:1.0000; 
stroke:#FFFFFF; stroke-width:0.0000; stroke-opacity:1; 
stroke-linecap:round; stroke-linejoin:round;fill-rule:evenodd;"
d="M 16.6548,6.7357
16.6595,6.7118
16.6731,6.6916
16.6933,6.6780
16.7173,6.6732
16.8423,6.6732
16.8662,6.6780
16.8865,6.6916
16.9000,6.7118
16.9048,6.7357
16.9048,7.4357
16.9000,7.4597
16.8865,7.4799
16.8662,7.4935
16.8423,7.4982
16.7173,7.4982
16.6933,7.4935
16.6731,7.4799
16.6595,7.4597
16.6548,7.4357
Z" /> 
<path style="fill:#FFFFFF; fill-opacity:1.0000; 
stroke:#FFFFFF; stroke-width:0.0000; stroke-opacity:1; 
stroke-linecap:round; stroke-linejoin:round;fill-rule:evenodd;"
d="M 17.1548,6.7357
17.1595,6.7118
17.1731,6.6916
17.1933,6.6780
17.2173,6.6732
17.3423,6.6732
17.3662,6.6780
17.3865,6.6916
17.4000,6.7118
17.4048,6.7357
17.4048,7.4357
17.4000,7.4597
17.3865,7.4799
17.3662,7.4935
17.3423,7.4982
17.2173,7.4982
17.1933,7.4935
17.1731,7.4799
17.1595,7.4597
17.1548,7.4357
Z" /> 
<path style="fill:#FFFFFF; fill-opacity:1.0000; 
stroke:#FFFFFF; stroke-width:0.0000; stroke-opacity:1; 
stroke-linecap:round; stroke-linejoin:round;fill-rule:evenodd;"
d="M 17.6548,6.7357
17.6595,6.7118
17.6731,6.6916
17.6933,6.6780
17.7173,6.6732
17.8423,6.6732
17.8662,6.6780
17.8865,6.6916
17.9000,6.7118
17.9048,6.7357
17.9048,7.4357
17.9000,7.4597
17.8865,7.4799
17.8662,7.4935
17.8423,7.4982
17.7173,7.4982
17.6933,7.4935
17.6731,7.4799
17.6595,7.4597
17.6548,7.4357
Z" /> 
<path style="fill:#FFFFFF; fill-opacity:1.0000; 
stroke:#FFFFFF; stroke-width:0.0000; stroke-opacity:1; 
stroke-linecap:round; stroke-linejoin:round;fill-rule:evenodd;"
d="M 18.1548,6.7357
18.1595,6.7118
18.1731,6.6916
18.1933,6.6780
18.2173,6.6732
18.3423,6.6732
18.3662,6.6780
18.3865,6.6916
18.4000,6.7118
18.4048,6.7357
18.4048,7.4357
18.4000,7.4597
18.3865,7.4799
18.3662,7.4935
18.3423,7.4982
18.2173,7.4982
18.1933,7.4935
18.1731,7.4799
18.1595,7.4597
18.1548,7.4357
Z" /> 
<path style="fill:#FFFFFF; fill-opacity:1.0000; 
stroke:#FFFFFF; stroke-width:0.0000; stroke-opacity:1; 
stroke-linecap:round; stroke-linejoin:round;fill-rule:evenodd;"
d="M 18.6548,6.7357
18.6595,6.7118
18.6731,6.6916
18.6933,6.6780
18.7173,6.6732
18.8423,6.6732
18.8662,6.6780
18.8865,6.6916
18.9000,6.7118
18.9048,6.7357
18.9048,7.4357
18.9000,7.4597
18.8865,7.4799
18.8662,7.4935
18.8423,7.4982
18.7173,7.4982
18.6933,7.4935
18.6731,7.4799
18.6595,7.4597
18.6548,7.4357
Z" /> 
<path style="fill:#FFFFFF; fill-opacity:1.0000; 
stroke:#FFFFFF; stroke-width:0.0000; stroke-opacity:1; 
stroke-linecap:round; stroke-linejoin:round;fill-rule:evenodd;"
d="M 19.3331,6.6916
19.3865,6.7449
19.4048,6.7891
19.4048,7.4357
19.3865,7.4799
19.3423,7.4982
19.2173,7.4982
19.1731,7.4799
19.1548,7.4357
19.1548,6.7357
19.1731,6.6916
19.2173,6.6732
19.2889,6.6732
Z" /> 
<path style="fill:#FFFFFF; fill-opacity:1.0000; 
stroke:#FFFFFF; stroke-width:0.0000; stroke-opacity:1; 
stroke-linecap:round; stroke-linejoin:round;fill-rule:evenodd;"
d="M 20.3615,6.2916
20.3798,6.3357
20.3798,6.4607
20.3615,6.5049
20.3173,6.5232
19.6706,6.5232
19.6265,6.5049
19.5731,6.4516
19.5548,6.4074
19.5548,6.3357
19.5731,6.2916
19.6173,6.2732
20.3173,6.2732
Z" /> 
<path style="fill:#FFFFFF; fill-opacity:1.0000; 
stroke:#FFFFFF; stroke-width:0.0000; stroke-opacity:1; 
stroke-linecap:round; stroke-linejoin:round;fill-rule:evenodd;"
d="M 19.5548,5.8357
19.5595,5.8118
19.5731,5.7916
19.5933,5.7780
19.6173,5.7732
20.3173,5.7732
20.3412,5.7780
20.3615,5.7916
20.3750,5.8118
20.3798,5.8357
20.3798,5.9607
20.3750,5.9847
20.3615,6.0049
20.3412,6.0185
20.3173,6.0232
19.6173,6.0232
19.5933,6.0185
19.5731,6.0049
19.5595,5.9847
19.5548,5.9607
Z" /> 
<path style="fill:#FFFFFF; fill-opacity:1.0000; 
stroke:#FFFFFF; stroke-width:0.0000; stroke-opacity:1; 
stroke-linecap:round; stroke-linejoin:round;fill-rule:evenodd;"
d="M 19.5548,5.3357
19.5595,5.3118
19.5731,5.2916
19.5933,5.2780
19.6173,5.2732
20.3173,5.2732
20.3412,5.2780
20.3615,5.2916
20.3750,5.3118
20.3798,5.3357
20.3798,5.4607
20.3750,5.4847
20.3615,5.5049
20.3412,5.5185
20.3173,5.5232
19.6173,5.5232
19.5933,5.5185
19.5731,5.5049
19.5595,5.4847
19.5548,5.4607
Z" /> 
<path style="fill:#FFFFFF; fill-opacity:1.0000; 
stroke:#FFFFFF; stroke-width:0.0000; stroke-opacity:1; 
stroke-linecap:round; stroke-linejoin:round;fill-rule:evenodd;"
d="M 19.5548,4.8357
19.5595,4.8118
19.5731,4.7916
19.5933,4.7780
19.6173,4.7732
20.3173,4.7732
20.3412,4.7780
20.3615,4.7916
20.3750,4.8118
20.3798,4.8357
20.3798,4.9607
20.3750,4.9847
20.3615,5.0049
20.3412,5.0185
20.3173,5.0232
19.6173,5.0232
19.5933,5.0185
19.5731,5.0049
19.5595,4.9847
19.5548,4.9607
Z" /> 
<path style="fill:#FFFFFF; fill-opacity:1.0000; 
stroke:#FFFFFF; stroke-width:0.0000; stroke-opacity:1; 
stroke-linecap:round; stroke-linejoin:round;fill-rule:evenodd;"
d="M 19.5548,4.3357
19.5595,4.3118
19.5731,4.2916
19.5933,4.2780
19.6173,4.2732
20.3173,4.2732
20.3412,4.2780
20.3615,4.2916
20.3750,4.3118
20.3798,4.3357
20.3798,4.4607
20.3750,4.4847
20.3615,4.5049
20.3412,4.5185
20.3173,4.5232
19.6173,4.5232
19.5933,4.5185
19.5731,4.5049
19.5595,4.4847
19.5548,4.4607
Z" /> 
<path style="fill:#FFFFFF; fill-opacity:1.0000; 
stroke:#FFFFFF; stroke-width:0.0000; stroke-opacity:1; 
stroke-linecap:round; stroke-linejoin:round;fill-rule:evenodd;"
d="M 19.5548,3.8357
19.5595,3.8118
19.5731,3.7916
19.5933,3.7780
19.6173,3.7732
20.3173,3.7732
20.3412,3.7780
20.3615,3.7916
20.3750,3.8118
20.3798,3.8357
20.3798,3.9607
20.3750,3.9847
20.3615,4.0049
20.3412,4.0185
20.3173,4.0232
19.6173,4.0232
19.5933,4.0185
19.5731,4.0049
19.5595,3.9847
19.5548,3.9607
Z" /> 
<path style="fill:#FFFFFF; fill-opacity:1.0000; 
stroke:#FFFFFF; stroke-width:0.0000; stroke-opacity:1; 
stroke-linecap:round; stroke-linejoin:round;fill-rule:evenodd;"
d="M 19.5548,3.3357
19.5595,3.3118
19.5731,3.2916
19.5933,3.2780
19.6173,3.2732
20.3173,3.2732
20.3412,3.2780
20.3615,3.2916
20.3750,3.3118
20.3798,3.3357
20.3798,3.4607
20.3750,3.4847
20.3615,3.5049
20.3412,3.5185
20.3173,3.5232
19.6173,3.5232
19.5933,3.5185
19.5731,3.5049
19.5595,3.4847
19.5548,3.4607
Z" /> 
<path style="fill:#FFFFFF; fill-opacity:1.0000; 
stroke:#FFFFFF; stroke-width:0.0000; stroke-opacity:1; 
stroke-linecap:round; stroke-linejoin:round;fill-rule:evenodd;"
d="M 20.3615,2.7916
20.3798,2.8357
20.3798,2.9607
20.3615,3.0049
20.3173,3.0232
19.6173,3.0232
19.5731,3.0049
19.5548,2.9607
19.5548,2.8891
19.5731,2.8449
19.6265,2.7916
19.6706,2.7732
20.3173,2.7732
Z" /> 
<path style="fill:#FFFFFF; fill-opacity:1.0000; 
stroke:#FFFFFF; stroke-width:0.0000; stroke-opacity:1; 
stroke-linecap:round; stroke-linejoin:round;fill-rule:evenodd;"
d="M 19.3865,1.8166
19.4048,1.8607
19.4048,2.5074
19.3865,2.5516
19.3331,2.6049
19.2889,2.6233
19.2173,2.6233
19.1731,2.6049
19.1548,2.5608
19.1548,1.8607
19.1731,1.8166
19.2173,1.7982
19.3423,1.7982
Z" /> 
<path style="fill:#FFFFFF; fill-opacity:1.0000; 
stroke:#FFFFFF; stroke-width:0.0000; stroke-opacity:1; 
stroke-linecap:round; stroke-linejoin:round;fill-rule:evenodd;"
d="M 18.6548,1.8607
18.6595,1.8368
18.6731,1.8166
18.6933,1.8030
18.7173,1.7982
18.8423,1.7982
18.8662,1.8030
18.8865,1.8166
18.9000,1.8368
18.9048,1.8607
18.9048,2.5608
18.9000,2.5847
18.8865,2.6049
18.8662,2.6185
18.8423,2.6233
18.7173,2.6233
18.6933,2.6185
18.6731,2.6049
18.6595,2.5847
18.6548,2.5608
Z" /> 
<path style="fill:#FFFFFF; fill-opacity:1.0000; 
stroke:#FFFFFF; stroke-width:0.0000; stroke-opacity:1; 
stroke-linecap:round; stroke-linejoin:round;fill-rule:evenodd;"
d="M 18.1548,1.8607
18.1595,1.8368
18.1731,1.8166
18.1933,1.8030
18.2173,1.7982
18.3423,1.7982
18.3662,1.8030
18.3865,1.8166
18.4000,1.8368
18.4048,1.8607
18.4048,2.5608
18.4000,2.5847
18.3865,2.6049
18.3662,2.6185
18.3423,2.6233
18.2173,2.6233
18.1933,2.6185
18.1731,2.6049
18.1595,2.5847
18.1548,2.5608
Z" /> 
<path style="fill:#FFFFFF; fill-opacity:1.0000; 
stroke:#FFFFFF; stroke-width:0.0000; stroke-opacity:1; 
stroke-linecap:round; stroke-linejoin:round;fill-rule:evenodd;"
d="M 17.6548,1.8607
17.6595,1.8368
17.6731,1.8166
17.6933,1.8030
17.7173,1.7982
17.8423,1.7982
17.8662,1.8030
17.8865,1.8166
17.9000,1.8368
17.9048,1.8607
17.9048,2.5608
17.9000,2.5847
17.8865,2.6049
17.8662,2.6185
17.8423,2.6233
17.7173,2.6233
17.6933,2.6185
17.6731,2.6049
17.6595,2.5847
17.6548,2.5608
Z" /> 
<path style="fill:#FFFFFF; fill-opacity:1.0000; 
stroke:#FFFFFF; stroke-width:0.0000; stroke-opacity:1; 
stroke-linecap:round; stroke-linejoin:round;fill-rule:evenodd;"
d="M 17.1548,1.8607
17.1595,1.8368
17.1731,1.8166
17.1933,1.8030
17.2173,1.7982
17.3423,1.7982
17.3662,1.8030
17.3865,1.8166
17.4000,1.8368
17.4048,1.8607
17.4048,2.5608
17.4000,2.5847
17.3865,2.6049
17.3662,2.6185
17.3423,2.6233
17.2173,2.6233
17.1933,2.6185
17.1731,2.6049
17.1595,2.5847
17.1548,2.5608
Z" /> 
<path style="fill:#FFFFFF; fill-opacity:1.0000; 
stroke:#FFFFFF; stroke-width:0.0000; stroke-opacity:1; 
stroke-linecap:round; stroke-linejoin:round;fill-rule:evenodd;"
d="M 16.6548,1.8607
16.6595,1.8368
16.6731,1.8166
16.6933,1.8030
16.7173,1.7982
16.8423,1.7982
16.8662,1.8030
16.8865,1.8166
16.9000,1.8368
16.9048,1.8607
16.9048,2.5608
16.9000,2.5847
16.8865,2.6049
16.8662,2.6185
16.8423,2.6233
16.7173,2.6233
16.6933,2.6185
16.6731,2.6049
16.6595,2.5847
16.6548,2.5608
Z" /> 
<path style="fill:#FFFFFF; fill-opacity:1.0000; 
stroke:#FFFFFF; stroke-width:0.0000; stroke-opacity:1; 
stroke-linecap:round; stroke-linejoin:round;fill-rule:evenodd;"
d="M 16.1548,1.8607
16.1595,1.8368
16.1731,1.8166
16.1933,1.8030
16.2173,1.7982
16.3423,1.7982
16.3662,1.8030
16.3865,1.8166
16.4000,1.8368
16.4048,1.8607
16.4048,2.5608
16.4000,2.5847
16.3865,2.6049
16.3662,2.6185
16.3423,2.6233
16.2173,2.6233
16.1933,2.6185
16.1731,2.6049
16.1595,2.5847
16.1548,2.5608
Z" /> 
<path style="fill:#FFFFFF; fill-opacity:1.0000; 
stroke:#FFFFFF; stroke-width:0.0000; stroke-opacity:1; 
stroke-linecap:round; stroke-linejoin:round;fill-rule:evenodd;"
d="M 15.8865,1.8166
15.9048,1.8607
15.9048,2.5608
15.8865,2.6049
15.8423,2.6233
15.7706,2.6233
15.7265,2.6049
15.6731,2.5516
15.6548,2.5074
15.6548,1.8607
15.6731,1.8166
15.7173,1.7982
15.8423,1.7982
Z" /> 
<path style="fill:#FFFFFF; fill-opacity:1.0000; 
stroke:#FFFFFF; stroke-width:0.0000; stroke-opacity:1; 
stroke-linecap:round; stroke-linejoin:round;fill-rule:evenodd;"
d="M 16.4798,5.6982
16.4798,3.5982
18.5798,3.5982
18.5798,5.6982
Z" /> 
</g>
<g >
</g>
<g >
</g>
<g >
</g>
</g>
<g style="fill:#FFFFFF; fill-opacity:1.0000; 
stroke:#FFFFFF; stroke-width:0.0000; stroke-opacity:1; 
stroke-linecap:round; stroke-linejoin:round;">
<g >
<path style="fill:#FFFFFF; fill-opacity:1.0000; 
stroke:#FFFFFF; stroke-width:0.0000; stroke-opacity:1; 
stroke-linecap:round; stroke-linejoin:round;fill-rule:evenodd;"
d="M 17.6298,4.9607
17.6459,4.8794
17.6920,4.8105
17.7609,4.7644
17.8423,4.7482
18.2673,4.7482
18.3486,4.7644
18.4175,4.8105
18.4636,4.8794
18.4798,4.9607
18.4798,5.3857
18.4636,5.4671
18.4175,5.5360
18.3486,5.5821
18.2673,5.5983
17.8423,5.5983
17.7609,5.5821
17.6920,5.5360
17.6459,5.4671
17.6298,5.3857
Z" /> 
<path style="fill:#FFFFFF; fill-opacity:1.0000; 
stroke:#FFFFFF; stroke-width:0.0000; stroke-opacity:1; 
stroke-linecap:round; stroke-linejoin:round;fill-rule:evenodd;"
d="M 17.6298,3.9107
17.6459,3.8294
17.6920,3.7605
17.7609,3.7144
17.8423,3.6982
18.2673,3.6982
18.3486,3.7144
18.4175,3.7605
18.4636,3.8294
18.4798,3.9107
18.4798,4.3357
18.4636,4.4171
18.4175,4.4860
18.3486,4.5321
18.2673,4.5482
17.8423,4.5482
17.7609,4.5321
17.6920,4.4860
17.6459,4.4171
17.6298,4.3357
Z" /> 
<path style="fill:#FFFFFF; fill-opacity:1.0000; 
stroke:#FFFFFF; stroke-width:0.0000; stroke-opacity:1; 
stroke-linecap:round; stroke-linejoin:round;fill-rule:evenodd;"
d="M 16.5798,3.9107
16.5959,3.8294
16.6420,3.7605
16.7109,3.7144
16.7923,3.6982
17.2173,3.6982
17.2986,3.7144
17.3675,3.7605
17.4136,3.8294
17.4298,3.9107
17.4298,4.3357
17.4136,4.4171
17.3675,4.4860
17.2986,4.5321
17.2173,4.5482
16.7923,4.5482
16.7109,4.5321
16.6420,4.4860
16.5959,4.4171
16.5798,4.3357
Z" /> 
<path style="fill:#FFFFFF; fill-opacity:1.0000; 
stroke:#FFFFFF; stroke-width:0.0000; stroke-opacity:1; 
stroke-linecap:round; stroke-linejoin:round;fill-rule:evenodd;"
d="M 16.5798,4.9607
16.5959,4.8794
16.6420,4.8105
16.7109,4.7644
16.7923,4.7482
17.2173,4.7482
17.2986,4.7644
17.3675,4.8105
17.4136,4.8794
17.4298,4.9607
17.4298,5.3857
17.4136,5.4671
17.3675,5.5360
17.2986,5.5821
17.2173,5.5983
16.7923,5.5983
16.7109,5.5821
16.6420,5.5360
16.5959,5.4671
16.5798,5.3857
Z" /> 
<path style="fill:#FFFFFF; fill-opacity:1.0000; 
stroke:#FFFFFF; stroke-width:0.0000; stroke-opacity:1; 
stroke-linecap:round; stroke-linejoin:round;fill-rule:evenodd;"
d="M 15.4331,2.7916
15.4865,2.8449
15.5048,2.8891
15.5048,2.9607
15.4865,3.0049
15.4423,3.0232
14.7423,3.0232
14.6981,3.0049
14.6798,2.9607
14.6798,2.8357
14.6981,2.7916
14.7423,2.7732
15.3889,2.7732
Z" /> 
<path style="fill:#FFFFFF; fill-opacity:1.0000; 
stroke:#FFFFFF; stroke-width:0.0000; stroke-opacity:1; 
stroke-linecap:round; stroke-linejoin:round;fill-rule:evenodd;"
d="M 14.6798,3.3357
14.6845,3.3118
14.6981,3.2916
14.7183,3.2780
14.7423,3.2732
15.4423,3.2732
15.4662,3.2780
15.4865,3.2916
15.5000,3.3118
15.5048,3.3357
15.5048,3.4607
15.5000,3.4847
15.4865,3.5049
15.4662,3.5185
15.4423,3.5232
14.7423,3.5232
14.7183,3.5185
14.6981,3.5049
14.6845,3.4847
14.6798,3.4607
Z" /> 
<path style="fill:#FFFFFF; fill-opacity:1.0000; 
stroke:#FFFFFF; stroke-width:0.0000; stroke-opacity:1; 
stroke-linecap:round; stroke-linejoin:round;fill-rule:evenodd;"
d="M 14.6798,3.8357
14.6845,3.8118
14.6981,3.7916
14.7183,3.7780
14.7423,3.7732
15.4423,3.7732
15.4662,3.7780
15.4865,3.7916
15.5000,3.8118
15.5048,3.8357
15.5048,3.9607
15.5000,3.9847
15.4865,4.0049
15.4662,4.0185
15.4423,4.0232
14.7423,4.0232
14.7183,4.0185
14.6981,4.0049
14.6845,3.9847
14.6798,3.9607
Z" /> 
<path style="fill:#FFFFFF; fill-opacity:1.0000; 
stroke:#FFFFFF; stroke-width:0.0000; stroke-opacity:1; 
stroke-linecap:round; stroke-linejoin:round;fill-rule:evenodd;"
d="M 14.6798,4.3357
14.6845,4.3118
14.6981,4.2916
14.7183,4.2780
14.7423,4.2732
15.4423,4.2732
15.4662,4.2780
15.4865,4.2916
15.5000,4.3118
15.5048,4.3357
15.5048,4.4607
15.5000,4.4847
15.4865,4.5049
15.4662,4.5185
15.4423,4.5232
14.7423,4.5232
14.7183,4.5185
14.6981,4.5049
14.6845,4.4847
14.6798,4.4607
Z" /> 
<path style="fill:#FFFFFF; fill-opacity:1.0000; 
stroke:#FFFFFF; stroke-width:0.0000; stroke-opacity:1; 
stroke-linecap:round; stroke-linejoin:round;fill-rule:evenodd;"
d="M 14.6798,4.8357
14.6845,4.8118
14.6981,4.7916
14.7183,4.7780
14.7423,4.7732
15.4423,4.7732
15.4662,4.7780
15.4865,4.7916
15.5000,4.8118
15.5048,4.8357
15.5048,4.9607
15.5000,4.9847
15.4865,5.0049
15.4662,5.0185
15.4423,5.0232
14.7423,5.0232
14.7183,5.0185
14.6981,5.0049
14.6845,4.9847
14.6798,4.9607
Z" /> 
<path style="fill:#FFFFFF; fill-opacity:1.0000; 
stroke:#FFFFFF; stroke-width:0.0000; stroke-opacity:1; 
stroke-linecap:round; stroke-linejoin:round;fill-rule:evenodd;"
d="M 14.6798,5.3357
14.6845,5.3118
14.6981,5.2916
14.7183,5.2780
14.7423,5.2732
15.4423,5.2732
15.4662,5.2780
15.4865,5.2916
15.5000,5.3118
15.5048,5.3357
15.5048,5.4607
15.5000,5.4847
15.4865,5.5049
15.4662,5.5185
15.4423,5.5232
14.7423,5.5232
14.7183,5.5185
14.6981,5.5049
14.6845,5.4847
14.6798,5.4607
Z" /> 
<path style="fill:#FFFFFF; fill-opacity:1.0000; 
stroke:#FFFFFF; stroke-width:0.0000; stroke-opacity:1; 
stroke-linecap:round; stroke-linejoin:round;fill-rule:evenodd;"
d="M 14.6798,5.8357
14.6845,5.8118
14.6981,5.7916
14.7183,5.7780
14.7423,5.7732
15.4423,5.7732
15.4662,5.7780
15.4865,5.7916
15.5000,5.8118
15.5048,5.8357
15.5048,5.9607
15.5000,5.9847
15.4865,6.0049
15.4662,6.0185
15.4423,6.0232
14.7423,6.0232
14.7183,6.0185
14.6981,6.0049
14.6845,5.9847
14.6798,5.9607
Z" /> 
<path style="fill:#FFFFFF; fill-opacity:1.0000; 
stroke:#FFFFFF; stroke-width:0.0000; stroke-opacity:1; 
stroke-linecap:round; stroke-linejoin:round;fill-rule:evenodd;"
d="M 15.4865,6.2916
15.5048,6.3357
15.5048,6.4074
15.4865,6.4516
15.4331,6.5049
15.3889,6.5232
14.7423,6.5232
14.6981,6.5049
14.6798,6.4607
14.6798,6.3357
14.6981,6.2916
14.7423,6.2732
15.4423,6.2732
Z" /> 
<path style="fill:#FFFFFF; fill-opacity:1.0000; 
stroke:#FFFFFF; stroke-width:0.0000; stroke-opacity:1; 
stroke-linecap:round; stroke-linejoin:round;fill-rule:evenodd;"
d="M 15.8865,6.6916
15.9048,6.7357
15.9048,7.4357
15.8865,7.4799
15.8423,7.4982
15.7173,7.4982
15.6731,7.4799
15.6548,7.4357
15.6548,6.7891
15.6731,6.7449
15.7265,6.6916
15.7706,6.6732
15.8423,6.6732
Z" /> 
<path style="fill:#FFFFFF; fill-opacity:1.0000; 
stroke:#FFFFFF; stroke-width:0.0000; stroke-opacity:1; 
stroke-linecap:round; stroke-linejoin:round;fill-rule:evenodd;"
d="M 16.1548,6.7357
16.1595,6.7118
16.1731,6.6916
16.1933,6.6780
16.2173,6.6732
16.3423,6.6732
16.3662,6.6780
16.3865,6.6916
16.4000,6.7118
16.4048,6.7357
16.4048,7.4357
16.4000,7.4597
16.3865,7.4799
16.3662,7.4935
16.3423,7.4982
16.2173,7.4982
16.1933,7.4935
16.1731,7.4799
16.1595,7.4597
16.1548,7.4357
Z" /> 
<path style="fill:#FFFFFF; fill-opacity:1.0000; 
stroke:#FFFFFF; stroke-width:0.0000; stroke-opacity:1; 
stroke-linecap:round; stroke-linejoin:round;fill-rule:evenodd;"
d="M 16.6548,6.7357
16.6595,6.7118
16.6731,6.6916
16.6933,6.6780
16.7173,6.6732
16.8423,6.6732
16.8662,6.6780
16.8865,6.6916
16.9000,6.7118
16.9048,6.7357
16.9048,7.4357
16.9000,7.4597
16.8865,7.4799
16.8662,7.4935
16.8423,7.4982
16.7173,7.4982
16.6933,7.4935
16.6731,7.4799
16.6595,7.4597
16.6548,7.4357
Z" /> 
<path style="fill:#FFFFFF; fill-opacity:1.0000; 
stroke:#FFFFFF; stroke-width:0.0000; stroke-opacity:1; 
stroke-linecap:round; stroke-linejoin:round;fill-rule:evenodd;"
d="M 17.1548,6.7357
17.1595,6.7118
17.1731,6.6916
17.1933,6.6780
17.2173,6.6732
17.3423,6.6732
17.3662,6.6780
17.3865,6.6916
17.4000,6.7118
17.4048,6.7357
17.4048,7.4357
17.4000,7.4597
17.3865,7.4799
17.3662,7.4935
17.3423,7.4982
17.2173,7.4982
17.1933,7.4935
17.1731,7.4799
17.1595,7.4597
17.1548,7.4357
Z" /> 
<path style="fill:#FFFFFF; fill-opacity:1.0000; 
stroke:#FFFFFF; stroke-width:0.0000; stroke-opacity:1; 
stroke-linecap:round; stroke-linejoin:round;fill-rule:evenodd;"
d="M 17.6548,6.7357
17.6595,6.7118
17.6731,6.6916
17.6933,6.6780
17.7173,6.6732
17.8423,6.6732
17.8662,6.6780
17.8865,6.6916
17.9000,6.7118
17.9048,6.7357
17.9048,7.4357
17.9000,7.4597
17.8865,7.4799
17.8662,7.4935
17.8423,7.4982
17.7173,7.4982
17.6933,7.4935
17.6731,7.4799
17.6595,7.4597
17.6548,7.4357
Z" /> 
<path style="fill:#FFFFFF; fill-opacity:1.0000; 
stroke:#FFFFFF; stroke-width:0.0000; stroke-opacity:1; 
stroke-linecap:round; stroke-linejoin:round;fill-rule:evenodd;"
d="M 18.1548,6.7357
18.1595,6.7118
18.1731,6.6916
18.1933,6.6780
18.2173,6.6732
18.3423,6.6732
18.3662,6.6780
18.3865,6.6916
18.4000,6.7118
18.4048,6.7357
18.4048,7.4357
18.4000,7.4597
18.3865,7.4799
18.3662,7.4935
18.3423,7.4982
18.2173,7.4982
18.1933,7.4935
18.1731,7.4799
18.1595,7.4597
18.1548,7.4357
Z" /> 
<path style="fill:#FFFFFF; fill-opacity:1.0000; 
stroke:#FFFFFF; stroke-width:0.0000; stroke-opacity:1; 
stroke-linecap:round; stroke-linejoin:round;fill-rule:evenodd;"
d="M 18.6548,6.7357
18.6595,6.7118
18.6731,6.6916
18.6933,6.6780
18.7173,6.6732
18.8423,6.6732
18.8662,6.6780
18.8865,6.6916
18.9000,6.7118
18.9048,6.7357
18.9048,7.4357
18.9000,7.4597
18.8865,7.4799
18.8662,7.4935
18.8423,7.4982
18.7173,7.4982
18.6933,7.4935
18.6731,7.4799
18.6595,7.4597
18.6548,7.4357
Z" /> 
<path style="fill:#FFFFFF; fill-opacity:1.0000; 
stroke:#FFFFFF; stroke-width:0.0000; stroke-opacity:1; 
stroke-linecap:round; stroke-linejoin:round;fill-rule:evenodd;"
d="M 19.3331,6.6916
19.3865,6.7449
19.4048,6.7891
19.4048,7.4357
19.3865,7.4799
19.3423,7.4982
19.2173,7.4982
19.1731,7.4799
19.1548,7.4357
19.1548,6.7357
19.1731,6.6916
19.2173,6.6732
19.2889,6.6732
Z" /> 
<path style="fill:#FFFFFF; fill-opacity:1.0000; 
stroke:#FFFFFF; stroke-width:0.0000; stroke-opacity:1; 
stroke-linecap:round; stroke-linejoin:round;fill-rule:evenodd;"
d="M 20.3615,6.2916
20.3798,6.3357
20.3798,6.4607
20.3615,6.5049
20.3173,6.5232
19.6706,6.5232
19.6265,6.5049
19.5731,6.4516
19.5548,6.4074
19.5548,6.3357
19.5731,6.2916
19.6173,6.2732
20.3173,6.2732
Z" /> 
<path style="fill:#FFFFFF; fill-opacity:1.0000; 
stroke:#FFFFFF; stroke-width:0.0000; stroke-opacity:1; 
stroke-linecap:round; stroke-linejoin:round;fill-rule:evenodd;"
d="M 19.5548,5.8357
19.5595,5.8118
19.5731,5.7916
19.5933,5.7780
19.6173,5.7732
20.3173,5.7732
20.3412,5.7780
20.3615,5.7916
20.3750,5.8118
20.3798,5.8357
20.3798,5.9607
20.3750,5.9847
20.3615,6.0049
20.3412,6.0185
20.3173,6.0232
19.6173,6.0232
19.5933,6.0185
19.5731,6.0049
19.5595,5.9847
19.5548,5.9607
Z" /> 
<path style="fill:#FFFFFF; fill-opacity:1.0000; 
stroke:#FFFFFF; stroke-width:0.0000; stroke-opacity:1; 
stroke-linecap:round; stroke-linejoin:round;fill-rule:evenodd;"
d="M 19.5548,5.3357
19.5595,5.3118
19.5731,5.2916
19.5933,5.2780
19.6173,5.2732
20.3173,5.2732
20.3412,5.2780
20.3615,5.2916
20.3750,5.3118
20.3798,5.3357
20.3798,5.4607
20.3750,5.4847
20.3615,5.5049
20.3412,5.5185
20.3173,5.5232
19.6173,5.5232
19.5933,5.5185
19.5731,5.5049
19.5595,5.4847
19.5548,5.4607
Z" /> 
<path style="fill:#FFFFFF; fill-opacity:1.0000; 
stroke:#FFFFFF; stroke-width:0.0000; stroke-opacity:1; 
stroke-linecap:round; stroke-linejoin:round;fill-rule:evenodd;"
d="M 19.5548,4.8357
19.5595,4.8118
19.5731,4.7916
19.5933,4.7780
19.6173,4.7732
20.3173,4.7732
20.3412,4.7780
20.3615,4.7916
20.3750,4.8118
20.3798,4.8357
20.3798,4.9607
20.3750,4.9847
20.3615,5.0049
20.3412,5.0185
20.3173,5.0232
19.6173,5.0232
19.5933,5.0185
19.5731,5.0049
19.5595,4.9847
19.5548,4.9607
Z" /> 
<path style="fill:#FFFFFF; fill-opacity:1.0000; 
stroke:#FFFFFF; stroke-width:0.0000; stroke-opacity:1; 
stroke-linecap:round; stroke-linejoin:round;fill-rule:evenodd;"
d="M 19.5548,4.3357
19.5595,4.3118
19.5731,4.2916
19.5933,4.2780
19.6173,4.2732
20.3173,4.2732
20.3412,4.2780
20.3615,4.2916
20.3750,4.3118
20.3798,4.3357
20.3798,4.4607
20.3750,4.4847
20.3615,4.5049
20.3412,4.5185
20.3173,4.5232
19.6173,4.5232
19.5933,4.5185
19.5731,4.5049
19.5595,4.4847
19.5548,4.4607
Z" /> 
<path style="fill:#FFFFFF; fill-opacity:1.0000; 
stroke:#FFFFFF; stroke-width:0.0000; stroke-opacity:1; 
stroke-linecap:round; stroke-linejoin:round;fill-rule:evenodd;"
d="M 19.5548,3.8357
19.5595,3.8118
19.5731,3.7916
19.5933,3.7780
19.6173,3.7732
20.3173,3.7732
20.3412,3.7780
20.3615,3.7916
20.3750,3.8118
20.3798,3.8357
20.3798,3.9607
20.3750,3.9847
20.3615,4.0049
20.3412,4.0185
20.3173,4.0232
19.6173,4.0232
19.5933,4.0185
19.5731,4.0049
19.5595,3.9847
19.5548,3.9607
Z" /> 
<path style="fill:#FFFFFF; fill-opacity:1.0000; 
stroke:#FFFFFF; stroke-width:0.0000; stroke-opacity:1; 
stroke-linecap:round; stroke-linejoin:round;fill-rule:evenodd;"
d="M 19.5548,3.3357
19.5595,3.3118
19.5731,3.2916
19.5933,3.2780
19.6173,3.2732
20.3173,3.2732
20.3412,3.2780
20.3615,3.2916
20.3750,3.3118
20.3798,3.3357
20.3798,3.4607
20.3750,3.4847
20.3615,3.5049
20.3412,3.5185
20.3173,3.5232
19.6173,3.5232
19.5933,3.5185
19.5731,3.5049
19.5595,3.4847
19.5548,3.4607
Z" /> 
<path style="fill:#FFFFFF; fill-opacity:1.0000; 
stroke:#FFFFFF; stroke-width:0.0000; stroke-opacity:1; 
stroke-linecap:round; stroke-linejoin:round;fill-rule:evenodd;"
d="M 20.3615,2.7916
20.3798,2.8357
20.3798,2.9607
20.3615,3.0049
20.3173,3.0232
19.6173,3.0232
19.5731,3.0049
19.5548,2.9607
19.5548,2.8891
19.5731,2.8449
19.6265,2.7916
19.6706,2.7732
20.3173,2.7732
Z" /> 
<path style="fill:#FFFFFF; fill-opacity:1.0000; 
stroke:#FFFFFF; stroke-width:0.0000; stroke-opacity:1; 
stroke-linecap:round; stroke-linejoin:round;fill-rule:evenodd;"
d="M 19.3865,1.8166
19.4048,1.8607
19.4048,2.5074
19.3865,2.5516
19.3331,2.6049
19.2889,2.6233
19.2173,2.6233
19.1731,2.6049
19.1548,2.5608
19.1548,1.8607
19.1731,1.8166
19.2173,1.7982
19.3423,1.7982
Z" /> 
<path style="fill:#FFFFFF; fill-opacity:1.0000; 
stroke:#FFFFFF; stroke-width:0.0000; stroke-opacity:1; 
stroke-linecap:round; stroke-linejoin:round;fill-rule:evenodd;"
d="M 18.6548,1.8607
18.6595,1.8368
18.6731,1.8166
18.6933,1.8030
18.7173,1.7982
18.8423,1.7982
18.8662,1.8030
18.8865,1.8166
18.9000,1.8368
18.9048,1.8607
18.9048,2.5608
18.9000,2.5847
18.8865,2.6049
18.8662,2.6185
18.8423,2.6233
18.7173,2.6233
18.6933,2.6185
18.6731,2.6049
18.6595,2.5847
18.6548,2.5608
Z" /> 
<path style="fill:#FFFFFF; fill-opacity:1.0000; 
stroke:#FFFFFF; stroke-width:0.0000; stroke-opacity:1; 
stroke-linecap:round; stroke-linejoin:round;fill-rule:evenodd;"
d="M 18.1548,1.8607
18.1595,1.8368
18.1731,1.8166
18.1933,1.8030
18.2173,1.7982
18.3423,1.7982
18.3662,1.8030
18.3865,1.8166
18.4000,1.8368
18.4048,1.8607
18.4048,2.5608
18.4000,2.5847
18.3865,2.6049
18.3662,2.6185
18.3423,2.6233
18.2173,2.6233
18.1933,2.6185
18.1731,2.6049
18.1595,2.5847
18.1548,2.5608
Z" /> 
<path style="fill:#FFFFFF; fill-opacity:1.0000; 
stroke:#FFFFFF; stroke-width:0.0000; stroke-opacity:1; 
stroke-linecap:round; stroke-linejoin:round;fill-rule:evenodd;"
d="M 17.6548,1.8607
17.6595,1.8368
17.6731,1.8166
17.6933,1.8030
17.7173,1.7982
17.8423,1.7982
17.8662,1.8030
17.8865,1.8166
17.9000,1.8368
17.9048,1.8607
17.9048,2.5608
17.9000,2.5847
17.8865,2.6049
17.8662,2.6185
17.8423,2.6233
17.7173,2.6233
17.6933,2.6185
17.6731,2.6049
17.6595,2.5847
17.6548,2.5608
Z" /> 
<path style="fill:#FFFFFF; fill-opacity:1.0000; 
stroke:#FFFFFF; stroke-width:0.0000; stroke-opacity:1; 
stroke-linecap:round; stroke-linejoin:round;fill-rule:evenodd;"
d="M 17.1548,1.8607
17.1595,1.8368
17.1731,1.8166
17.1933,1.8030
17.2173,1.7982
17.3423,1.7982
17.3662,1.8030
17.3865,1.8166
17.4000,1.8368
17.4048,1.8607
17.4048,2.5608
17.4000,2.5847
17.3865,2.6049
17.3662,2.6185
17.3423,2.6233
17.2173,2.6233
17.1933,2.6185
17.1731,2.6049
17.1595,2.5847
17.1548,2.5608
Z" /> 
<path style="fill:#FFFFFF; fill-opacity:1.0000; 
stroke:#FFFFFF; stroke-width:0.0000; stroke-opacity:1; 
stroke-linecap:round; stroke-linejoin:round;fill-rule:evenodd;"
d="M 16.6548,1.8607
16.6595,1.8368
16.6731,1.8166
16.6933,1.8030
16.7173,1.7982
16.8423,1.7982
16.8662,1.8030
16.8865,1.8166
16.9000,1.8368
16.9048,1.8607
16.9048,2.5608
16.9000,2.5847
16.8865,2.6049
16.8662,2.6185
16.8423,2.6233
16.7173,2.6233
16.6933,2.6185
16.6731,2.6049
16.6595,2.5847
16.6548,2.5608
Z" /> 
<path style="fill:#FFFFFF; fill-opacity:1.0000; 
stroke:#FFFFFF; stroke-width:0.0000; stroke-opacity:1; 
stroke-linecap:round; stroke-linejoin:round;fill-rule:evenodd;"
d="M 16.1548,1.8607
16.1595,1.8368
16.1731,1.8166
16.1933,1.8030
16.2173,1.7982
16.3423,1.7982
16.3662,1.8030
16.3865,1.8166
16.4000,1.8368
16.4048,1.8607
16.4048,2.5608
16.4000,2.5847
16.3865,2.6049
16.3662,2.6185
16.3423,2.6233
16.2173,2.6233
16.1933,2.6185
16.1731,2.6049
16.1595,2.5847
16.1548,2.5608
Z" /> 
<path style="fill:#FFFFFF; fill-opacity:1.0000; 
stroke:#FFFFFF; stroke-width:0.0000; stroke-opacity:1; 
stroke-linecap:round; stroke-linejoin:round;fill-rule:evenodd;"
d="M 15.8865,1.8166
15.9048,1.8607
15.9048,2.5608
15.8865,2.6049
15.8423,2.6233
15.7706,2.6233
15.7265,2.6049
15.6731,2.5516
15.6548,2.5074
15.6548,1.8607
15.6731,1.8166
15.7173,1.7982
15.8423,1.7982
Z" /> 
</g>
<g >
</g>
<g >
</g>
<g >
</g>
</g>
<g style="fill:#FFFFFF; fill-opacity:1.0000; 
stroke:#FFFFFF; stroke-width:0.0000; stroke-opacity:1; 
stroke-linecap:round; stroke-linejoin:round;">
</g>
<g style="fill:#FFFFFF; fill-opacity:1.0000; 
stroke:#FFFFFF; stroke-width:0.1500; stroke-opacity:1; 
stroke-linecap:round; stroke-linejoin:round;">
</g>
<g style="fill:#FFFFFF; fill-opacity:0.0; 
stroke:#FFFFFF; stroke-width:0.1500; stroke-opacity:1; 
stroke-linecap:round; stroke-linejoin:round;">
<text x="17.5298" y="1.3482"
textLength="4.5357" font-size="1.3333" lengthAdjust="spacingAndGlyphs"
text-anchor="middle" opacity="0">REF**</text>
<g class="stroked-text"><desc>REF**</desc>
<path d="M16.1964 1.3031
L15.8631 0.8269
" />
<path d="M15.6250 1.3031
L15.6250 0.3031
" />
<path d="M15.6250 0.3031
L16.0060 0.3031
" />
<path d="M16.0060 0.3031
L16.1012 0.3507
" />
<path d="M16.1012 0.3507
L16.1488 0.3983
" />
<path d="M16.1488 0.3983
L16.1964 0.4935
" />
<path d="M16.1964 0.4935
L16.1964 0.6364
" />
<path d="M16.1964 0.6364
L16.1488 0.7316
" />
<path d="M16.1488 0.7316
L16.1012 0.7793
" />
<path d="M16.1012 0.7793
L16.0060 0.8269
" />
<path d="M16.0060 0.8269
L15.6250 0.8269
" />
<path d="M16.6250 0.7793
L16.9583 0.7793
" />
<path d="M17.1012 1.3031
L16.6250 1.3031
" />
<path d="M16.6250 1.3031
L16.6250 0.3031
" />
<path d="M16.6250 0.3031
L17.1012 0.3031
" />
<path d="M17.8631 0.7793
L17.5298 0.7793
" />
<path d="M17.5298 1.3031
L17.5298 0.3031
" />
<path d="M17.5298 0.3031
L18.0060 0.3031
" />
<path d="M18.5298 0.3031
L18.5298 0.5412
" />
<path d="M18.2917 0.4459
L18.5298 0.5412
" />
<path d="M18.5298 0.5412
L18.7679 0.4459
" />
<path d="M18.3869 0.7316
L18.5298 0.5412
" />
<path d="M18.5298 0.5412
L18.6726 0.7316
" />
<path d="M19.2917 0.3031
L19.2917 0.5412
" />
<path d="M19.0536 0.4459
L19.2917 0.5412
" />
<path d="M19.2917 0.5412
L19.5298 0.4459
" />
<path d="M19.1488 0.7316
L19.2917 0.5412
" />
<path d="M19.2917 0.5412
L19.4345 0.7316
" />
</g></g>
<g style="fill:#FFFFFF; fill-opacity:0.0; 
stroke:#FFFFFF; stroke-width:0.1200; stroke-opacity:1; 
stroke-linecap:round; stroke-linejoin:round;">
<path d="M15.3948 7.2582
L14.9198 7.2582
" />
<path d="M20.1398 7.2582
L20.1398 6.7832
" />
<path d="M15.3948 2.0383
L14.9198 2.0383
" />
<path d="M19.6648 2.0383
L20.1398 2.0383
" />
<path d="M20.1398 2.0383
L20.1398 2.5132
" />
<path d="M19.6648 7.2582
L20.1398 7.2582
" />
<path d="M14.9198 7.2582
L14.9198 6.7832
" />
<g >
</g>
<g >
</g>
<g >
</g>
<g >
</g>
</g> 
</svg>
