<?xml version="1.0" standalone="no"?>
 <!DOCTYPE svg PUBLIC "-//W3C//DTD SVG 1.1//EN" 
 "http://www.w3.org/Graphics/SVG/1.1/DTD/svg11.dtd"> 
<svg
  xmlns:svg="http://www.w3.org/2000/svg"
  xmlns="http://www.w3.org/2000/svg"
  xmlns:xlink="http://www.w3.org/1999/xlink"
  version="1.1"
  width="53.5432mm" height="17.2212mm" viewBox="0.0000 0.0000 53.5432 17.2212">
<title>SVG Image created as lp2950-5.0_to92.svg date 2024/01/16 15:12:25 </title>
  <desc>Image generated by Eeschema-SVG </desc>
<g style="fill:#000000; fill-opacity:1.0000;stroke:#000000; stroke-opacity:1.0000;
stroke-linecap:round; stroke-linejoin:round;"
 transform="translate(0 0) scale(1 1)">
</g>
<g style="fill:#840000; fill-opacity:0.0; 
stroke:#840000; stroke-width:0.0000; stroke-opacity:1; 
stroke-linecap:round; stroke-linejoin:round;">
</g>
<g style="fill:#FFFFC2; fill-opacity:0.0; 
stroke:#FFFFC2; stroke-width:0.0000; stroke-opacity:1; 
stroke-linecap:round; stroke-linejoin:round;">
</g>
<g style="fill:#FFFFC2; fill-opacity:1.0000; 
stroke:#FFFFC2; stroke-width:0.0000; stroke-opacity:1; 
stroke-linecap:round; stroke-linejoin:round;">
<rect x="21.691600" y="6.705600" width="10.160000" height="6.985000" rx="0.000000" />
</g>
<g style="fill:#840084; fill-opacity:1.0000; 
stroke:#840084; stroke-width:0.0000; stroke-opacity:1; 
stroke-linecap:round; stroke-linejoin:round;">
</g>
<g style="fill:#840000; fill-opacity:1.0000; 
stroke:#840000; stroke-width:0.0000; stroke-opacity:1; 
stroke-linecap:round; stroke-linejoin:round;">
</g>
<g style="fill:#840000; fill-opacity:0.0; 
stroke:#840000; stroke-width:0.2540; stroke-opacity:1; 
stroke-linecap:round; stroke-linejoin:round;">
<rect x="21.691600" y="6.705600" width="10.160000" height="6.985000" rx="0.000000" />
</g>
<g style="fill:#840000; fill-opacity:0.0; 
stroke:#840000; stroke-width:0.1524; stroke-opacity:1; 
stroke-linecap:round; stroke-linejoin:round;">
<path d="M31.8516 8.6106
L34.3916 8.6106
" />
</g>
<g style="fill:#006464; fill-opacity:0.0; 
stroke:#006464; stroke-width:0.1524; stroke-opacity:1; 
stroke-linecap:round; stroke-linejoin:round;">
<text x="31.5976" y="9.2456"
textLength="2.6223" font-size="1.6933" lengthAdjust="spacingAndGlyphs"
text-anchor="end" opacity="0">VO</text>
<g class="stroked-text"><desc>VO</desc>
<path d="M29.1992 7.9201
L29.6225 9.1901
" />
<path d="M29.6225 9.1901
L30.0459 7.9201
" />
<path d="M30.7111 7.9201
L30.9530 7.9201
" />
<path d="M30.9530 7.9201
L31.0740 7.9806
" />
<path d="M31.0740 7.9806
L31.1949 8.1016
" />
<path d="M31.1949 8.1016
L31.2554 8.3435
" />
<path d="M31.2554 8.3435
L31.2554 8.7668
" />
<path d="M31.2554 8.7668
L31.1949 9.0087
" />
<path d="M31.1949 9.0087
L31.0740 9.1297
" />
<path d="M31.0740 9.1297
L30.9530 9.1901
" />
<path d="M30.9530 9.1901
L30.7111 9.1901
" />
<path d="M30.7111 9.1901
L30.5902 9.1297
" />
<path d="M30.5902 9.1297
L30.4692 9.0087
" />
<path d="M30.4692 9.0087
L30.4088 8.7668
" />
<path d="M30.4088 8.7668
L30.4088 8.3435
" />
<path d="M30.4088 8.3435
L30.4692 8.1016
" />
<path d="M30.4692 8.1016
L30.5902 7.9806
" />
<path d="M30.5902 7.9806
L30.7111 7.9201
" />
</g></g>
<g style="fill:#A90000; fill-opacity:0.0; 
stroke:#A90000; stroke-width:0.1524; stroke-opacity:1; 
stroke-linecap:round; stroke-linejoin:round;">
<text x="33.1216" y="8.3566"
textLength="1.4127" font-size="1.6933" lengthAdjust="spacingAndGlyphs"
text-anchor="middle" opacity="0">1</text>
<g class="stroked-text"><desc>1</desc>
<path d="M33.4845 8.1931
L32.7588 8.1931
" />
<path d="M33.1216 8.1931
L33.1216 6.9231
" />
<path d="M33.1216 6.9231
L33.0007 7.1046
" />
<path d="M33.0007 7.1046
L32.8797 7.2255
" />
<path d="M32.8797 7.2255
L32.7588 7.2860
" />
</g></g>
<g style="fill:#840000; fill-opacity:0.0; 
stroke:#840000; stroke-width:0.1524; stroke-opacity:1; 
stroke-linecap:round; stroke-linejoin:round;">
<path d="M26.7716 13.6906
L26.7716 16.2306
" />
</g>
<g style="fill:#006464; fill-opacity:0.0; 
stroke:#006464; stroke-width:0.1524; stroke-opacity:1; 
stroke-linecap:round; stroke-linejoin:round;">
<g transform="rotate(-90.000000 26.7716 13.4366)">
<text x="26.7716" y="14.0716"
textLength="4.0737" font-size="1.6933" lengthAdjust="spacingAndGlyphs"
text-anchor="start" opacity="0">GND</text>
</g>
<g class="stroked-text"><desc>GND</desc>
<path d="M26.1416 12.3687
L26.0811 12.4897
" />
<path d="M26.0811 12.4897
L26.0811 12.6711
" />
<path d="M26.0811 12.6711
L26.1416 12.8525
" />
<path d="M26.1416 12.8525
L26.2626 12.9735
" />
<path d="M26.2626 12.9735
L26.3835 13.0340
" />
<path d="M26.3835 13.0340
L26.6254 13.0944
" />
<path d="M26.6254 13.0944
L26.8068 13.0944
" />
<path d="M26.8068 13.0944
L27.0487 13.0340
" />
<path d="M27.0487 13.0340
L27.1697 12.9735
" />
<path d="M27.1697 12.9735
L27.2907 12.8525
" />
<path d="M27.2907 12.8525
L27.3511 12.6711
" />
<path d="M27.3511 12.6711
L27.3511 12.5502
" />
<path d="M27.3511 12.5502
L27.2907 12.3687
" />
<path d="M27.2907 12.3687
L27.2302 12.3083
" />
<path d="M27.2302 12.3083
L26.8068 12.3083
" />
<path d="M26.8068 12.3083
L26.8068 12.5502
" />
<path d="M27.3511 11.7640
L26.0811 11.7640
" />
<path d="M26.0811 11.7640
L27.3511 11.0383
" />
<path d="M27.3511 11.0383
L26.0811 11.0383
" />
<path d="M27.3511 10.4335
L26.0811 10.4335
" />
<path d="M26.0811 10.4335
L26.0811 10.1311
" />
<path d="M26.0811 10.1311
L26.1416 9.9497
" />
<path d="M26.1416 9.9497
L26.2626 9.8287
" />
<path d="M26.2626 9.8287
L26.3835 9.7682
" />
<path d="M26.3835 9.7682
L26.6254 9.7078
" />
<path d="M26.6254 9.7078
L26.8068 9.7078
" />
<path d="M26.8068 9.7078
L27.0487 9.7682
" />
<path d="M27.0487 9.7682
L27.1697 9.8287
" />
<path d="M27.1697 9.8287
L27.2907 9.9497
" />
<path d="M27.2907 9.9497
L27.3511 10.1311
" />
<path d="M27.3511 10.1311
L27.3511 10.4335
" />
</g></g>
<g style="fill:#A90000; fill-opacity:0.0; 
stroke:#A90000; stroke-width:0.1524; stroke-opacity:1; 
stroke-linecap:round; stroke-linejoin:round;">
<g transform="rotate(-90.000000 26.5176 14.9606)">
<text x="26.5176" y="14.9606"
textLength="1.4127" font-size="1.6933" lengthAdjust="spacingAndGlyphs"
text-anchor="middle" opacity="0">2</text>
</g>
<g class="stroked-text"><desc>2</desc>
<path d="M25.2051 15.3233
L25.1446 15.2629
" />
<path d="M25.1446 15.2629
L25.0841 15.1419
" />
<path d="M25.0841 15.1419
L25.0841 14.8395
" />
<path d="M25.0841 14.8395
L25.1446 14.7186
" />
<path d="M25.1446 14.7186
L25.2051 14.6581
" />
<path d="M25.2051 14.6581
L25.3260 14.5976
" />
<path d="M25.3260 14.5976
L25.4470 14.5976
" />
<path d="M25.4470 14.5976
L25.6284 14.6581
" />
<path d="M25.6284 14.6581
L26.3541 15.3838
" />
<path d="M26.3541 15.3838
L26.3541 14.5976
" />
</g></g>
<g style="fill:#840000; fill-opacity:0.0; 
stroke:#840000; stroke-width:0.1524; stroke-opacity:1; 
stroke-linecap:round; stroke-linejoin:round;">
<path d="M21.6916 8.6106
L19.1516 8.6106
" />
</g>
<g style="fill:#006464; fill-opacity:0.0; 
stroke:#006464; stroke-width:0.1524; stroke-opacity:1; 
stroke-linecap:round; stroke-linejoin:round;">
<text x="21.9456" y="9.2456"
textLength="1.8966" font-size="1.6933" lengthAdjust="spacingAndGlyphs"
text-anchor="start" opacity="0">VI</text>
<g class="stroked-text"><desc>VI</desc>
<path d="M22.1667 7.9201
L22.5900 9.1901
" />
<path d="M22.5900 9.1901
L23.0134 7.9201
" />
<path d="M23.4367 9.1901
L23.4367 7.9201
" />
</g></g>
<g style="fill:#A90000; fill-opacity:0.0; 
stroke:#A90000; stroke-width:0.1524; stroke-opacity:1; 
stroke-linecap:round; stroke-linejoin:round;">
<text x="20.4216" y="8.3566"
textLength="1.4127" font-size="1.6933" lengthAdjust="spacingAndGlyphs"
text-anchor="middle" opacity="0">3</text>
<g class="stroked-text"><desc>3</desc>
<path d="M19.9983 6.9231
L20.7845 6.9231
" />
<path d="M20.7845 6.9231
L20.3611 7.4069
" />
<path d="M20.3611 7.4069
L20.5426 7.4069
" />
<path d="M20.5426 7.4069
L20.6635 7.4674
" />
<path d="M20.6635 7.4674
L20.7240 7.5279
" />
<path d="M20.7240 7.5279
L20.7845 7.6488
" />
<path d="M20.7845 7.6488
L20.7845 7.9512
" />
<path d="M20.7845 7.9512
L20.7240 8.0722
" />
<path d="M20.7240 8.0722
L20.6635 8.1327
" />
<path d="M20.6635 8.1327
L20.5426 8.1931
" />
<path d="M20.5426 8.1931
L20.1797 8.1931
" />
<path d="M20.1797 8.1931
L20.0588 8.1327
" />
<path d="M20.0588 8.1327
L19.9983 8.0722
" />
</g></g>
<g style="fill:#840084; fill-opacity:0.0; 
stroke:#840084; stroke-width:0.1524; stroke-opacity:1; 
stroke-linecap:round; stroke-linejoin:round;">
</g>
<g style="fill:#006464; fill-opacity:0.0; 
stroke:#006464; stroke-width:0.1524; stroke-opacity:1; 
stroke-linecap:round; stroke-linejoin:round;">
</g>
<g style="fill:#006464; fill-opacity:0.0; 
stroke:#006464; stroke-width:0.1588; stroke-opacity:1; 
stroke-linecap:round; stroke-linejoin:round;">
<text x="22.9616" y="6.0706"
textLength="2.6415" font-size="1.6933" lengthAdjust="spacingAndGlyphs"
text-anchor="middle" opacity="0">U?</text>
<g class="stroked-text"><desc>U?</desc>
<path d="M22.0544 4.7448
L22.0544 5.7729
" />
<path d="M22.0544 5.7729
L22.1149 5.8939
" />
<path d="M22.1149 5.8939
L22.1754 5.9544
" />
<path d="M22.1754 5.9544
L22.2963 6.0148
" />
<path d="M22.2963 6.0148
L22.5382 6.0148
" />
<path d="M22.5382 6.0148
L22.6592 5.9544
" />
<path d="M22.6592 5.9544
L22.7197 5.8939
" />
<path d="M22.7197 5.8939
L22.7801 5.7729
" />
<path d="M22.7801 5.7729
L22.7801 4.7448
" />
<path d="M23.5664 5.8939
L23.6268 5.9544
" />
<path d="M23.6268 5.9544
L23.5664 6.0148
" />
<path d="M23.5664 6.0148
L23.5059 5.9544
" />
<path d="M23.5059 5.9544
L23.5664 5.8939
" />
<path d="M23.5664 5.8939
L23.5664 6.0148
" />
<path d="M23.3245 4.8053
L23.4454 4.7448
" />
<path d="M23.4454 4.7448
L23.7478 4.7448
" />
<path d="M23.7478 4.7448
L23.8687 4.8053
" />
<path d="M23.8687 4.8053
L23.9292 4.9263
" />
<path d="M23.9292 4.9263
L23.9292 5.0472
" />
<path d="M23.9292 5.0472
L23.8687 5.1682
" />
<path d="M23.8687 5.1682
L23.8083 5.2286
" />
<path d="M23.8083 5.2286
L23.6873 5.2891
" />
<path d="M23.6873 5.2891
L23.6268 5.3496
" />
<path d="M23.6268 5.3496
L23.5664 5.4705
" />
<path d="M23.5664 5.4705
L23.5664 5.5310
" />
</g><text x="35.5913" y="6.0706"
textLength="17.6394" font-size="1.6933" lengthAdjust="spacingAndGlyphs"
text-anchor="middle" opacity="0">LP2950-5.0_TO92</text>
<g class="stroked-text"><desc>LP2950-5.0_TO92</desc>
<path d="M27.7899 6.0148
L27.1851 6.0148
" />
<path d="M27.1851 6.0148
L27.1851 4.7448
" />
<path d="M28.2132 6.0148
L28.2132 4.7448
" />
<path d="M28.2132 4.7448
L28.6970 4.7448
" />
<path d="M28.6970 4.7448
L28.8180 4.8053
" />
<path d="M28.8180 4.8053
L28.8785 4.8658
" />
<path d="M28.8785 4.8658
L28.9389 4.9867
" />
<path d="M28.9389 4.9867
L28.9389 5.1682
" />
<path d="M28.9389 5.1682
L28.8785 5.2891
" />
<path d="M28.8785 5.2891
L28.8180 5.3496
" />
<path d="M28.8180 5.3496
L28.6970 5.4101
" />
<path d="M28.6970 5.4101
L28.2132 5.4101
" />
<path d="M29.4228 4.8658
L29.4832 4.8053
" />
<path d="M29.4832 4.8053
L29.6042 4.7448
" />
<path d="M29.6042 4.7448
L29.9066 4.7448
" />
<path d="M29.9066 4.7448
L30.0275 4.8053
" />
<path d="M30.0275 4.8053
L30.0880 4.8658
" />
<path d="M30.0880 4.8658
L30.1485 4.9867
" />
<path d="M30.1485 4.9867
L30.1485 5.1077
" />
<path d="M30.1485 5.1077
L30.0880 5.2891
" />
<path d="M30.0880 5.2891
L29.3623 6.0148
" />
<path d="M29.3623 6.0148
L30.1485 6.0148
" />
<path d="M30.7532 6.0148
L30.9951 6.0148
" />
<path d="M30.9951 6.0148
L31.1161 5.9544
" />
<path d="M31.1161 5.9544
L31.1765 5.8939
" />
<path d="M31.1765 5.8939
L31.2975 5.7124
" />
<path d="M31.2975 5.7124
L31.3580 5.4705
" />
<path d="M31.3580 5.4705
L31.3580 4.9867
" />
<path d="M31.3580 4.9867
L31.2975 4.8658
" />
<path d="M31.2975 4.8658
L31.2370 4.8053
" />
<path d="M31.2370 4.8053
L31.1161 4.7448
" />
<path d="M31.1161 4.7448
L30.8742 4.7448
" />
<path d="M30.8742 4.7448
L30.7532 4.8053
" />
<path d="M30.7532 4.8053
L30.6927 4.8658
" />
<path d="M30.6927 4.8658
L30.6323 4.9867
" />
<path d="M30.6323 4.9867
L30.6323 5.2891
" />
<path d="M30.6323 5.2891
L30.6927 5.4101
" />
<path d="M30.6927 5.4101
L30.7532 5.4705
" />
<path d="M30.7532 5.4705
L30.8742 5.5310
" />
<path d="M30.8742 5.5310
L31.1161 5.5310
" />
<path d="M31.1161 5.5310
L31.2370 5.4705
" />
<path d="M31.2370 5.4705
L31.2975 5.4101
" />
<path d="M31.2975 5.4101
L31.3580 5.2891
" />
<path d="M32.5070 4.7448
L31.9022 4.7448
" />
<path d="M31.9022 4.7448
L31.8418 5.3496
" />
<path d="M31.8418 5.3496
L31.9022 5.2891
" />
<path d="M31.9022 5.2891
L32.0232 5.2286
" />
<path d="M32.0232 5.2286
L32.3256 5.2286
" />
<path d="M32.3256 5.2286
L32.4465 5.2891
" />
<path d="M32.4465 5.2891
L32.5070 5.3496
" />
<path d="M32.5070 5.3496
L32.5675 5.4705
" />
<path d="M32.5675 5.4705
L32.5675 5.7729
" />
<path d="M32.5675 5.7729
L32.5070 5.8939
" />
<path d="M32.5070 5.8939
L32.4465 5.9544
" />
<path d="M32.4465 5.9544
L32.3256 6.0148
" />
<path d="M32.3256 6.0148
L32.0232 6.0148
" />
<path d="M32.0232 6.0148
L31.9022 5.9544
" />
<path d="M31.9022 5.9544
L31.8418 5.8939
" />
<path d="M33.3536 4.7448
L33.4746 4.7448
" />
<path d="M33.4746 4.7448
L33.5955 4.8053
" />
<path d="M33.5955 4.8053
L33.6560 4.8658
" />
<path d="M33.6560 4.8658
L33.7165 4.9867
" />
<path d="M33.7165 4.9867
L33.7770 5.2286
" />
<path d="M33.7770 5.2286
L33.7770 5.5310
" />
<path d="M33.7770 5.5310
L33.7165 5.7729
" />
<path d="M33.7165 5.7729
L33.6560 5.8939
" />
<path d="M33.6560 5.8939
L33.5955 5.9544
" />
<path d="M33.5955 5.9544
L33.4746 6.0148
" />
<path d="M33.4746 6.0148
L33.3536 6.0148
" />
<path d="M33.3536 6.0148
L33.2327 5.9544
" />
<path d="M33.2327 5.9544
L33.1722 5.8939
" />
<path d="M33.1722 5.8939
L33.1117 5.7729
" />
<path d="M33.1117 5.7729
L33.0513 5.5310
" />
<path d="M33.0513 5.5310
L33.0513 5.2286
" />
<path d="M33.0513 5.2286
L33.1117 4.9867
" />
<path d="M33.1117 4.9867
L33.1722 4.8658
" />
<path d="M33.1722 4.8658
L33.2327 4.8053
" />
<path d="M33.2327 4.8053
L33.3536 4.7448
" />
<path d="M34.3212 5.5310
L35.2889 5.5310
" />
<path d="M36.4984 4.7448
L35.8936 4.7448
" />
<path d="M35.8936 4.7448
L35.8332 5.3496
" />
<path d="M35.8332 5.3496
L35.8936 5.2891
" />
<path d="M35.8936 5.2891
L36.0146 5.2286
" />
<path d="M36.0146 5.2286
L36.3170 5.2286
" />
<path d="M36.3170 5.2286
L36.4379 5.2891
" />
<path d="M36.4379 5.2891
L36.4984 5.3496
" />
<path d="M36.4984 5.3496
L36.5589 5.4705
" />
<path d="M36.5589 5.4705
L36.5589 5.7729
" />
<path d="M36.5589 5.7729
L36.4984 5.8939
" />
<path d="M36.4984 5.8939
L36.4379 5.9544
" />
<path d="M36.4379 5.9544
L36.3170 6.0148
" />
<path d="M36.3170 6.0148
L36.0146 6.0148
" />
<path d="M36.0146 6.0148
L35.8936 5.9544
" />
<path d="M35.8936 5.9544
L35.8332 5.8939
" />
<path d="M37.1031 5.8939
L37.1636 5.9544
" />
<path d="M37.1636 5.9544
L37.1031 6.0148
" />
<path d="M37.1031 6.0148
L37.0427 5.9544
" />
<path d="M37.0427 5.9544
L37.1031 5.8939
" />
<path d="M37.1031 5.8939
L37.1031 6.0148
" />
<path d="M37.9498 4.7448
L38.0708 4.7448
" />
<path d="M38.0708 4.7448
L38.1917 4.8053
" />
<path d="M38.1917 4.8053
L38.2522 4.8658
" />
<path d="M38.2522 4.8658
L38.3127 4.9867
" />
<path d="M38.3127 4.9867
L38.3732 5.2286
" />
<path d="M38.3732 5.2286
L38.3732 5.5310
" />
<path d="M38.3732 5.5310
L38.3127 5.7729
" />
<path d="M38.3127 5.7729
L38.2522 5.8939
" />
<path d="M38.2522 5.8939
L38.1917 5.9544
" />
<path d="M38.1917 5.9544
L38.0708 6.0148
" />
<path d="M38.0708 6.0148
L37.9498 6.0148
" />
<path d="M37.9498 6.0148
L37.8289 5.9544
" />
<path d="M37.8289 5.9544
L37.7684 5.8939
" />
<path d="M37.7684 5.8939
L37.7079 5.7729
" />
<path d="M37.7079 5.7729
L37.6475 5.5310
" />
<path d="M37.6475 5.5310
L37.6475 5.2286
" />
<path d="M37.6475 5.2286
L37.7079 4.9867
" />
<path d="M37.7079 4.9867
L37.7684 4.8658
" />
<path d="M37.7684 4.8658
L37.8289 4.8053
" />
<path d="M37.8289 4.8053
L37.9498 4.7448
" />
<path d="M38.6151 6.1358
L39.5827 6.1358
" />
<path d="M39.7036 4.7448
L40.4293 4.7448
" />
<path d="M40.0665 6.0148
L40.0665 4.7448
" />
<path d="M41.0945 4.7448
L41.3364 4.7448
" />
<path d="M41.3364 4.7448
L41.4574 4.8053
" />
<path d="M41.4574 4.8053
L41.5783 4.9263
" />
<path d="M41.5783 4.9263
L41.6388 5.1682
" />
<path d="M41.6388 5.1682
L41.6388 5.5915
" />
<path d="M41.6388 5.5915
L41.5783 5.8334
" />
<path d="M41.5783 5.8334
L41.4574 5.9544
" />
<path d="M41.4574 5.9544
L41.3364 6.0148
" />
<path d="M41.3364 6.0148
L41.0945 6.0148
" />
<path d="M41.0945 6.0148
L40.9736 5.9544
" />
<path d="M40.9736 5.9544
L40.8526 5.8334
" />
<path d="M40.8526 5.8334
L40.7922 5.5915
" />
<path d="M40.7922 5.5915
L40.7922 5.1682
" />
<path d="M40.7922 5.1682
L40.8526 4.9263
" />
<path d="M40.8526 4.9263
L40.9736 4.8053
" />
<path d="M40.9736 4.8053
L41.0945 4.7448
" />
<path d="M42.2436 6.0148
L42.4855 6.0148
" />
<path d="M42.4855 6.0148
L42.6065 5.9544
" />
<path d="M42.6065 5.9544
L42.6669 5.8939
" />
<path d="M42.6669 5.8939
L42.7879 5.7124
" />
<path d="M42.7879 5.7124
L42.8484 5.4705
" />
<path d="M42.8484 5.4705
L42.8484 4.9867
" />
<path d="M42.8484 4.9867
L42.7879 4.8658
" />
<path d="M42.7879 4.8658
L42.7274 4.8053
" />
<path d="M42.7274 4.8053
L42.6065 4.7448
" />
<path d="M42.6065 4.7448
L42.3646 4.7448
" />
<path d="M42.3646 4.7448
L42.2436 4.8053
" />
<path d="M42.2436 4.8053
L42.1831 4.8658
" />
<path d="M42.1831 4.8658
L42.1227 4.9867
" />
<path d="M42.1227 4.9867
L42.1227 5.2891
" />
<path d="M42.1227 5.2891
L42.1831 5.4101
" />
<path d="M42.1831 5.4101
L42.2436 5.4705
" />
<path d="M42.2436 5.4705
L42.3646 5.5310
" />
<path d="M42.3646 5.5310
L42.6065 5.5310
" />
<path d="M42.6065 5.5310
L42.7274 5.4705
" />
<path d="M42.7274 5.4705
L42.7879 5.4101
" />
<path d="M42.7879 5.4101
L42.8484 5.2891
" />
<path d="M43.3322 4.8658
L43.3926 4.8053
" />
<path d="M43.3926 4.8053
L43.5136 4.7448
" />
<path d="M43.5136 4.7448
L43.8160 4.7448
" />
<path d="M43.8160 4.7448
L43.9369 4.8053
" />
<path d="M43.9369 4.8053
L43.9974 4.8658
" />
<path d="M43.9974 4.8658
L44.0579 4.9867
" />
<path d="M44.0579 4.9867
L44.0579 5.1077
" />
<path d="M44.0579 5.1077
L43.9974 5.2891
" />
<path d="M43.9974 5.2891
L43.2717 6.0148
" />
<path d="M43.2717 6.0148
L44.0579 6.0148
" />
</g></g> 
</svg>
