<?xml version="1.0" standalone="no"?>
 <!DOCTYPE svg PUBLIC "-//W3C//DTD SVG 1.1//EN" 
 "http://www.w3.org/Graphics/SVG/1.1/DTD/svg11.dtd"> 
<svg
  xmlns:svg="http://www.w3.org/2000/svg"
  xmlns="http://www.w3.org/2000/svg"
  xmlns:xlink="http://www.w3.org/1999/xlink"
  version="1.1"
  width="75.1586mm" height="36.5760mm" viewBox="0.0000 0.0000 75.1586 36.5760">
<title>SVG Image created as mod-nrf8001.svg date 2024/01/16 15:12:19 </title>
  <desc>Image generated by Eeschema-SVG </desc>
<g style="fill:#000000; fill-opacity:1.0000;stroke:#000000; stroke-opacity:1.0000;
stroke-linecap:round; stroke-linejoin:round;"
 transform="translate(0 0) scale(1 1)">
</g>
<g style="fill:#840000; fill-opacity:0.0; 
stroke:#840000; stroke-width:0.0000; stroke-opacity:1; 
stroke-linecap:round; stroke-linejoin:round;">
</g>
<g style="fill:#FFFFC2; fill-opacity:0.0; 
stroke:#FFFFC2; stroke-width:0.0000; stroke-opacity:1; 
stroke-linecap:round; stroke-linejoin:round;">
</g>
<g style="fill:#FFFFC2; fill-opacity:1.0000; 
stroke:#FFFFC2; stroke-width:0.0000; stroke-opacity:1; 
stroke-linecap:round; stroke-linejoin:round;">
<rect x="28.689300" y="6.858000" width="17.780000" height="22.860000" rx="0.000000" />
</g>
<g style="fill:#840084; fill-opacity:1.0000; 
stroke:#840084; stroke-width:0.0000; stroke-opacity:1; 
stroke-linecap:round; stroke-linejoin:round;">
</g>
<g style="fill:#840000; fill-opacity:1.0000; 
stroke:#840000; stroke-width:0.0000; stroke-opacity:1; 
stroke-linecap:round; stroke-linejoin:round;">
</g>
<g style="fill:#840000; fill-opacity:0.0; 
stroke:#840000; stroke-width:0.2540; stroke-opacity:1; 
stroke-linecap:round; stroke-linejoin:round;">
<rect x="28.689300" y="6.858000" width="17.780000" height="22.860000" rx="0.000000" />
</g>
<g style="fill:#840000; fill-opacity:0.0; 
stroke:#840000; stroke-width:0.1524; stroke-opacity:1; 
stroke-linecap:round; stroke-linejoin:round;">
<path d="M37.5793 6.8580
L37.5793 3.0480
" />
</g>
<g style="fill:#006464; fill-opacity:0.0; 
stroke:#006464; stroke-width:0.1524; stroke-opacity:1; 
stroke-linecap:round; stroke-linejoin:round;">
<g transform="rotate(-90.000000 37.5793 7.8740)">
<text x="37.5793" y="8.5090"
textLength="3.7108" font-size="1.6933" lengthAdjust="spacingAndGlyphs"
text-anchor="end" opacity="0">3V3</text>
</g>
<g class="stroked-text"><desc>3V3</desc>
<path d="M36.8888 11.3003
L36.8888 10.5141
" />
<path d="M36.8888 10.5141
L37.3726 10.9375
" />
<path d="M37.3726 10.9375
L37.3726 10.7560
" />
<path d="M37.3726 10.7560
L37.4331 10.6351
" />
<path d="M37.4331 10.6351
L37.4936 10.5746
" />
<path d="M37.4936 10.5746
L37.6145 10.5141
" />
<path d="M37.6145 10.5141
L37.9169 10.5141
" />
<path d="M37.9169 10.5141
L38.0379 10.5746
" />
<path d="M38.0379 10.5746
L38.0984 10.6351
" />
<path d="M38.0984 10.6351
L38.1588 10.7560
" />
<path d="M38.1588 10.7560
L38.1588 11.1189
" />
<path d="M38.1588 11.1189
L38.0984 11.2398
" />
<path d="M38.0984 11.2398
L38.0379 11.3003
" />
<path d="M36.8888 10.1513
L38.1588 9.7280
" />
<path d="M38.1588 9.7280
L36.8888 9.3046
" />
<path d="M36.8888 9.0022
L36.8888 8.2160
" />
<path d="M36.8888 8.2160
L37.3726 8.6394
" />
<path d="M37.3726 8.6394
L37.3726 8.4579
" />
<path d="M37.3726 8.4579
L37.4331 8.3370
" />
<path d="M37.4331 8.3370
L37.4936 8.2765
" />
<path d="M37.4936 8.2765
L37.6145 8.2160
" />
<path d="M37.6145 8.2160
L37.9169 8.2160
" />
<path d="M37.9169 8.2160
L38.0379 8.2765
" />
<path d="M38.0379 8.2765
L38.0984 8.3370
" />
<path d="M38.0984 8.3370
L38.1588 8.4579
" />
<path d="M38.1588 8.4579
L38.1588 8.8208
" />
<path d="M38.1588 8.8208
L38.0984 8.9417
" />
<path d="M38.0984 8.9417
L38.0379 9.0022
" />
</g></g>
<g style="fill:#A90000; fill-opacity:0.0; 
stroke:#A90000; stroke-width:0.1524; stroke-opacity:1; 
stroke-linecap:round; stroke-linejoin:round;">
<g transform="rotate(-90.000000 37.3253 4.9530)">
<text x="37.3253" y="4.9530"
textLength="1.4127" font-size="1.6933" lengthAdjust="spacingAndGlyphs"
text-anchor="middle" opacity="0">1</text>
</g>
<g class="stroked-text"><desc>1</desc>
<path d="M37.1618 4.5900
L37.1618 5.3157
" />
<path d="M37.1618 4.9529
L35.8918 4.9529
" />
<path d="M35.8918 4.9529
L36.0733 5.0738
" />
<path d="M36.0733 5.0738
L36.1942 5.1948
" />
<path d="M36.1942 5.1948
L36.2547 5.3157
" />
</g></g>
<g style="fill:#840000; fill-opacity:0.0; 
stroke:#840000; stroke-width:0.1524; stroke-opacity:1; 
stroke-linecap:round; stroke-linejoin:round;">
<path d="M46.4693 13.2080
L50.2793 13.2080
" />
</g>
<g style="fill:#006464; fill-opacity:0.0; 
stroke:#006464; stroke-width:0.1524; stroke-opacity:1; 
stroke-linecap:round; stroke-linejoin:round;">
<text x="45.4533" y="13.8430"
textLength="5.1623" font-size="1.6933" lengthAdjust="spacingAndGlyphs"
text-anchor="end" opacity="0">RDYN</text>
<g class="stroked-text"><desc>RDYN</desc>
<path d="M41.4220 13.7875
L40.9987 13.1828
" />
<path d="M40.6963 13.7875
L40.6963 12.5175
" />
<path d="M40.6963 12.5175
L41.1801 12.5175
" />
<path d="M41.1801 12.5175
L41.3011 12.5780
" />
<path d="M41.3011 12.5780
L41.3616 12.6385
" />
<path d="M41.3616 12.6385
L41.4220 12.7594
" />
<path d="M41.4220 12.7594
L41.4220 12.9409
" />
<path d="M41.4220 12.9409
L41.3616 13.0618
" />
<path d="M41.3616 13.0618
L41.3011 13.1223
" />
<path d="M41.3011 13.1223
L41.1801 13.1828
" />
<path d="M41.1801 13.1828
L40.6963 13.1828
" />
<path d="M41.9663 13.7875
L41.9663 12.5175
" />
<path d="M41.9663 12.5175
L42.2687 12.5175
" />
<path d="M42.2687 12.5175
L42.4501 12.5780
" />
<path d="M42.4501 12.5780
L42.5711 12.6990
" />
<path d="M42.5711 12.6990
L42.6316 12.8199
" />
<path d="M42.6316 12.8199
L42.6920 13.0618
" />
<path d="M42.6920 13.0618
L42.6920 13.2432
" />
<path d="M42.6920 13.2432
L42.6316 13.4851
" />
<path d="M42.6316 13.4851
L42.5711 13.6061
" />
<path d="M42.5711 13.6061
L42.4501 13.7271
" />
<path d="M42.4501 13.7271
L42.2687 13.7875
" />
<path d="M42.2687 13.7875
L41.9663 13.7875
" />
<path d="M43.4782 13.1828
L43.4782 13.7875
" />
<path d="M43.0549 12.5175
L43.4782 13.1828
" />
<path d="M43.4782 13.1828
L43.9016 12.5175
" />
<path d="M44.3249 13.7875
L44.3249 12.5175
" />
<path d="M44.3249 12.5175
L45.0506 13.7875
" />
<path d="M45.0506 13.7875
L45.0506 12.5175
" />
</g></g>
<g style="fill:#A90000; fill-opacity:0.0; 
stroke:#A90000; stroke-width:0.1524; stroke-opacity:1; 
stroke-linecap:round; stroke-linejoin:round;">
<text x="48.3743" y="12.9540"
textLength="2.6222" font-size="1.6933" lengthAdjust="spacingAndGlyphs"
text-anchor="middle" opacity="0">10</text>
<g class="stroked-text"><desc>10</desc>
<path d="M48.1324 12.7905
L47.4067 12.7905
" />
<path d="M47.7695 12.7905
L47.7695 11.5205
" />
<path d="M47.7695 11.5205
L47.6486 11.7020
" />
<path d="M47.6486 11.7020
L47.5276 11.8229
" />
<path d="M47.5276 11.8229
L47.4067 11.8834
" />
<path d="M48.9185 11.5205
L49.0395 11.5205
" />
<path d="M49.0395 11.5205
L49.1604 11.5810
" />
<path d="M49.1604 11.5810
L49.2209 11.6415
" />
<path d="M49.2209 11.6415
L49.2814 11.7624
" />
<path d="M49.2814 11.7624
L49.3419 12.0043
" />
<path d="M49.3419 12.0043
L49.3419 12.3067
" />
<path d="M49.3419 12.3067
L49.2814 12.5486
" />
<path d="M49.2814 12.5486
L49.2209 12.6696
" />
<path d="M49.2209 12.6696
L49.1604 12.7301
" />
<path d="M49.1604 12.7301
L49.0395 12.7905
" />
<path d="M49.0395 12.7905
L48.9185 12.7905
" />
<path d="M48.9185 12.7905
L48.7976 12.7301
" />
<path d="M48.7976 12.7301
L48.7371 12.6696
" />
<path d="M48.7371 12.6696
L48.6766 12.5486
" />
<path d="M48.6766 12.5486
L48.6162 12.3067
" />
<path d="M48.6162 12.3067
L48.6162 12.0043
" />
<path d="M48.6162 12.0043
L48.6766 11.7624
" />
<path d="M48.6766 11.7624
L48.7371 11.6415
" />
<path d="M48.7371 11.6415
L48.7976 11.5810
" />
<path d="M48.7976 11.5810
L48.9185 11.5205
" />
</g></g>
<g style="fill:#840000; fill-opacity:0.0; 
stroke:#840000; stroke-width:0.1524; stroke-opacity:1; 
stroke-linecap:round; stroke-linejoin:round;">
<path d="M46.4693 10.6680
L50.2793 10.6680
" />
</g>
<g style="fill:#006464; fill-opacity:0.0; 
stroke:#006464; stroke-width:0.1524; stroke-opacity:1; 
stroke-linecap:round; stroke-linejoin:round;">
<text x="45.4533" y="11.3030"
textLength="6.3718" font-size="1.6933" lengthAdjust="spacingAndGlyphs"
text-anchor="end" opacity="0">ACTIVE</text>
<g class="stroked-text"><desc>ACTIVE</desc>
<path d="M39.4264 10.8847
L40.0311 10.8847
" />
<path d="M39.3054 11.2475
L39.7287 9.9775
" />
<path d="M39.7287 9.9775
L40.1521 11.2475
" />
<path d="M41.3011 11.1266
L41.2407 11.1871
" />
<path d="M41.2407 11.1871
L41.0592 11.2475
" />
<path d="M41.0592 11.2475
L40.9383 11.2475
" />
<path d="M40.9383 11.2475
L40.7569 11.1871
" />
<path d="M40.7569 11.1871
L40.6359 11.0661
" />
<path d="M40.6359 11.0661
L40.5754 10.9451
" />
<path d="M40.5754 10.9451
L40.5150 10.7032
" />
<path d="M40.5150 10.7032
L40.5150 10.5218
" />
<path d="M40.5150 10.5218
L40.5754 10.2799
" />
<path d="M40.5754 10.2799
L40.6359 10.1590
" />
<path d="M40.6359 10.1590
L40.7569 10.0380
" />
<path d="M40.7569 10.0380
L40.9383 9.9775
" />
<path d="M40.9383 9.9775
L41.0592 9.9775
" />
<path d="M41.0592 9.9775
L41.2407 10.0380
" />
<path d="M41.2407 10.0380
L41.3011 10.0985
" />
<path d="M41.6640 9.9775
L42.3897 9.9775
" />
<path d="M42.0269 11.2475
L42.0269 9.9775
" />
<path d="M42.8130 11.2475
L42.8130 9.9775
" />
<path d="M43.2364 9.9775
L43.6597 11.2475
" />
<path d="M43.6597 11.2475
L44.0831 9.9775
" />
<path d="M44.5064 10.5823
L44.9298 10.5823
" />
<path d="M45.1112 11.2475
L44.5064 11.2475
" />
<path d="M44.5064 11.2475
L44.5064 9.9775
" />
<path d="M44.5064 9.9775
L45.1112 9.9775
" />
</g></g>
<g style="fill:#A90000; fill-opacity:0.0; 
stroke:#A90000; stroke-width:0.1524; stroke-opacity:1; 
stroke-linecap:round; stroke-linejoin:round;">
<text x="48.3743" y="10.4140"
textLength="2.6222" font-size="1.6933" lengthAdjust="spacingAndGlyphs"
text-anchor="middle" opacity="0">11</text>
<g class="stroked-text"><desc>11</desc>
<path d="M48.1324 10.2505
L47.4067 10.2505
" />
<path d="M47.7695 10.2505
L47.7695 8.9805
" />
<path d="M47.7695 8.9805
L47.6486 9.1620
" />
<path d="M47.6486 9.1620
L47.5276 9.2829
" />
<path d="M47.5276 9.2829
L47.4067 9.3434
" />
<path d="M49.3419 10.2505
L48.6162 10.2505
" />
<path d="M48.9790 10.2505
L48.9790 8.9805
" />
<path d="M48.9790 8.9805
L48.8581 9.1620
" />
<path d="M48.8581 9.1620
L48.7371 9.2829
" />
<path d="M48.7371 9.2829
L48.6162 9.3434
" />
</g></g>
<g style="fill:#840000; fill-opacity:0.0; 
stroke:#840000; stroke-width:0.1524; stroke-opacity:1; 
stroke-linecap:round; stroke-linejoin:round;">
<path d="M37.5793 29.7180
L37.5793 33.5280
" />
</g>
<g style="fill:#006464; fill-opacity:0.0; 
stroke:#006464; stroke-width:0.1524; stroke-opacity:1; 
stroke-linecap:round; stroke-linejoin:round;">
<g transform="rotate(-90.000000 37.5793 28.7020)">
<text x="37.5793" y="29.3370"
textLength="4.0737" font-size="1.6933" lengthAdjust="spacingAndGlyphs"
text-anchor="start" opacity="0">GND</text>
</g>
<g class="stroked-text"><desc>GND</desc>
<path d="M36.9493 27.6341
L36.8888 27.7551
" />
<path d="M36.8888 27.7551
L36.8888 27.9365
" />
<path d="M36.8888 27.9365
L36.9493 28.1179
" />
<path d="M36.9493 28.1179
L37.0703 28.2389
" />
<path d="M37.0703 28.2389
L37.1912 28.2994
" />
<path d="M37.1912 28.2994
L37.4331 28.3598
" />
<path d="M37.4331 28.3598
L37.6145 28.3598
" />
<path d="M37.6145 28.3598
L37.8564 28.2994
" />
<path d="M37.8564 28.2994
L37.9774 28.2389
" />
<path d="M37.9774 28.2389
L38.0984 28.1179
" />
<path d="M38.0984 28.1179
L38.1588 27.9365
" />
<path d="M38.1588 27.9365
L38.1588 27.8156
" />
<path d="M38.1588 27.8156
L38.0984 27.6341
" />
<path d="M38.0984 27.6341
L38.0379 27.5737
" />
<path d="M38.0379 27.5737
L37.6145 27.5737
" />
<path d="M37.6145 27.5737
L37.6145 27.8156
" />
<path d="M38.1588 27.0294
L36.8888 27.0294
" />
<path d="M36.8888 27.0294
L38.1588 26.3037
" />
<path d="M38.1588 26.3037
L36.8888 26.3037
" />
<path d="M38.1588 25.6989
L36.8888 25.6989
" />
<path d="M36.8888 25.6989
L36.8888 25.3965
" />
<path d="M36.8888 25.3965
L36.9493 25.2151
" />
<path d="M36.9493 25.2151
L37.0703 25.0941
" />
<path d="M37.0703 25.0941
L37.1912 25.0336
" />
<path d="M37.1912 25.0336
L37.4331 24.9732
" />
<path d="M37.4331 24.9732
L37.6145 24.9732
" />
<path d="M37.6145 24.9732
L37.8564 25.0336
" />
<path d="M37.8564 25.0336
L37.9774 25.0941
" />
<path d="M37.9774 25.0941
L38.0984 25.2151
" />
<path d="M38.0984 25.2151
L38.1588 25.3965
" />
<path d="M38.1588 25.3965
L38.1588 25.6989
" />
</g></g>
<g style="fill:#A90000; fill-opacity:0.0; 
stroke:#A90000; stroke-width:0.1524; stroke-opacity:1; 
stroke-linecap:round; stroke-linejoin:round;">
<g transform="rotate(-90.000000 37.3253 31.6230)">
<text x="37.3253" y="31.6230"
textLength="1.4127" font-size="1.6933" lengthAdjust="spacingAndGlyphs"
text-anchor="middle" opacity="0">2</text>
</g>
<g class="stroked-text"><desc>2</desc>
<path d="M36.0128 31.9857
L35.9523 31.9253
" />
<path d="M35.9523 31.9253
L35.8918 31.8043
" />
<path d="M35.8918 31.8043
L35.8918 31.5019
" />
<path d="M35.8918 31.5019
L35.9523 31.3810
" />
<path d="M35.9523 31.3810
L36.0128 31.3205
" />
<path d="M36.0128 31.3205
L36.1337 31.2600
" />
<path d="M36.1337 31.2600
L36.2547 31.2600
" />
<path d="M36.2547 31.2600
L36.4361 31.3205
" />
<path d="M36.4361 31.3205
L37.1618 32.0462
" />
<path d="M37.1618 32.0462
L37.1618 31.2600
" />
</g></g>
<g style="fill:#840000; fill-opacity:0.0; 
stroke:#840000; stroke-width:0.1524; stroke-opacity:1; 
stroke-linecap:round; stroke-linejoin:round;">
<path d="M28.6893 13.2080
L24.8793 13.2080
" />
</g>
<g style="fill:#006464; fill-opacity:0.0; 
stroke:#006464; stroke-width:0.1524; stroke-opacity:1; 
stroke-linecap:round; stroke-linejoin:round;">
<text x="29.7053" y="13.8430"
textLength="3.6503" font-size="1.6933" lengthAdjust="spacingAndGlyphs"
text-anchor="start" opacity="0">RST</text>
<g class="stroked-text"><desc>RST</desc>
<path d="M30.8335 13.7875
L30.4102 13.1828
" />
<path d="M30.1078 13.7875
L30.1078 12.5175
" />
<path d="M30.1078 12.5175
L30.5916 12.5175
" />
<path d="M30.5916 12.5175
L30.7126 12.5780
" />
<path d="M30.7126 12.5780
L30.7731 12.6385
" />
<path d="M30.7731 12.6385
L30.8335 12.7594
" />
<path d="M30.8335 12.7594
L30.8335 12.9409
" />
<path d="M30.8335 12.9409
L30.7731 13.0618
" />
<path d="M30.7731 13.0618
L30.7126 13.1223
" />
<path d="M30.7126 13.1223
L30.5916 13.1828
" />
<path d="M30.5916 13.1828
L30.1078 13.1828
" />
<path d="M31.3174 13.7271
L31.4988 13.7875
" />
<path d="M31.4988 13.7875
L31.8012 13.7875
" />
<path d="M31.8012 13.7875
L31.9221 13.7271
" />
<path d="M31.9221 13.7271
L31.9826 13.6666
" />
<path d="M31.9826 13.6666
L32.0431 13.5456
" />
<path d="M32.0431 13.5456
L32.0431 13.4247
" />
<path d="M32.0431 13.4247
L31.9826 13.3037
" />
<path d="M31.9826 13.3037
L31.9221 13.2432
" />
<path d="M31.9221 13.2432
L31.8012 13.1828
" />
<path d="M31.8012 13.1828
L31.5593 13.1223
" />
<path d="M31.5593 13.1223
L31.4383 13.0618
" />
<path d="M31.4383 13.0618
L31.3778 13.0013
" />
<path d="M31.3778 13.0013
L31.3174 12.8804
" />
<path d="M31.3174 12.8804
L31.3174 12.7594
" />
<path d="M31.3174 12.7594
L31.3778 12.6385
" />
<path d="M31.3778 12.6385
L31.4383 12.5780
" />
<path d="M31.4383 12.5780
L31.5593 12.5175
" />
<path d="M31.5593 12.5175
L31.8616 12.5175
" />
<path d="M31.8616 12.5175
L32.0431 12.5780
" />
<path d="M32.4059 12.5175
L33.1316 12.5175
" />
<path d="M32.7688 13.7875
L32.7688 12.5175
" />
</g></g>
<g style="fill:#A90000; fill-opacity:0.0; 
stroke:#A90000; stroke-width:0.1524; stroke-opacity:1; 
stroke-linecap:round; stroke-linejoin:round;">
<text x="26.7843" y="12.9540"
textLength="1.4127" font-size="1.6933" lengthAdjust="spacingAndGlyphs"
text-anchor="middle" opacity="0">3</text>
<g class="stroked-text"><desc>3</desc>
<path d="M26.3610 11.5205
L27.1472 11.5205
" />
<path d="M27.1472 11.5205
L26.7238 12.0043
" />
<path d="M26.7238 12.0043
L26.9053 12.0043
" />
<path d="M26.9053 12.0043
L27.0262 12.0648
" />
<path d="M27.0262 12.0648
L27.0867 12.1253
" />
<path d="M27.0867 12.1253
L27.1472 12.2462
" />
<path d="M27.1472 12.2462
L27.1472 12.5486
" />
<path d="M27.1472 12.5486
L27.0867 12.6696
" />
<path d="M27.0867 12.6696
L27.0262 12.7301
" />
<path d="M27.0262 12.7301
L26.9053 12.7905
" />
<path d="M26.9053 12.7905
L26.5424 12.7905
" />
<path d="M26.5424 12.7905
L26.4215 12.7301
" />
<path d="M26.4215 12.7301
L26.3610 12.6696
" />
</g></g>
<g style="fill:#840000; fill-opacity:0.0; 
stroke:#840000; stroke-width:0.1524; stroke-opacity:1; 
stroke-linecap:round; stroke-linejoin:round;">
<path d="M28.6893 20.8280
L24.8793 20.8280
" />
</g>
<g style="fill:#006464; fill-opacity:0.0; 
stroke:#006464; stroke-width:0.1524; stroke-opacity:1; 
stroke-linecap:round; stroke-linejoin:round;">
<text x="29.7053" y="21.4630"
textLength="3.9527" font-size="1.6933" lengthAdjust="spacingAndGlyphs"
text-anchor="start" opacity="0">RXD</text>
<g class="stroked-text"><desc>RXD</desc>
<path d="M30.8335 21.4075
L30.4102 20.8028
" />
<path d="M30.1078 21.4075
L30.1078 20.1375
" />
<path d="M30.1078 20.1375
L30.5916 20.1375
" />
<path d="M30.5916 20.1375
L30.7126 20.1980
" />
<path d="M30.7126 20.1980
L30.7731 20.2585
" />
<path d="M30.7731 20.2585
L30.8335 20.3794
" />
<path d="M30.8335 20.3794
L30.8335 20.5609
" />
<path d="M30.8335 20.5609
L30.7731 20.6818
" />
<path d="M30.7731 20.6818
L30.7126 20.7423
" />
<path d="M30.7126 20.7423
L30.5916 20.8028
" />
<path d="M30.5916 20.8028
L30.1078 20.8028
" />
<path d="M31.2569 20.1375
L32.1035 21.4075
" />
<path d="M32.1035 20.1375
L31.2569 21.4075
" />
<path d="M32.5873 21.4075
L32.5873 20.1375
" />
<path d="M32.5873 20.1375
L32.8897 20.1375
" />
<path d="M32.8897 20.1375
L33.0711 20.1980
" />
<path d="M33.0711 20.1980
L33.1921 20.3190
" />
<path d="M33.1921 20.3190
L33.2526 20.4399
" />
<path d="M33.2526 20.4399
L33.3130 20.6818
" />
<path d="M33.3130 20.6818
L33.3130 20.8632
" />
<path d="M33.3130 20.8632
L33.2526 21.1051
" />
<path d="M33.2526 21.1051
L33.1921 21.2261
" />
<path d="M33.1921 21.2261
L33.0711 21.3471
" />
<path d="M33.0711 21.3471
L32.8897 21.4075
" />
<path d="M32.8897 21.4075
L32.5873 21.4075
" />
</g></g>
<g style="fill:#A90000; fill-opacity:0.0; 
stroke:#A90000; stroke-width:0.1524; stroke-opacity:1; 
stroke-linecap:round; stroke-linejoin:round;">
<text x="26.7843" y="20.5740"
textLength="1.4127" font-size="1.6933" lengthAdjust="spacingAndGlyphs"
text-anchor="middle" opacity="0">4</text>
<g class="stroked-text"><desc>4</desc>
<path d="M27.0262 19.5639
L27.0262 20.4105
" />
<path d="M26.7238 19.0801
L26.4215 19.9872
" />
<path d="M26.4215 19.9872
L27.2076 19.9872
" />
</g></g>
<g style="fill:#840000; fill-opacity:0.0; 
stroke:#840000; stroke-width:0.1524; stroke-opacity:1; 
stroke-linecap:round; stroke-linejoin:round;">
<path d="M28.6893 23.3680
L24.8793 23.3680
" />
</g>
<g style="fill:#006464; fill-opacity:0.0; 
stroke:#006464; stroke-width:0.1524; stroke-opacity:1; 
stroke-linecap:round; stroke-linejoin:round;">
<text x="29.7053" y="24.0030"
textLength="3.6503" font-size="1.6933" lengthAdjust="spacingAndGlyphs"
text-anchor="start" opacity="0">TXD</text>
<g class="stroked-text"><desc>TXD</desc>
<path d="M29.9264 22.6775
L30.6521 22.6775
" />
<path d="M30.2893 23.9475
L30.2893 22.6775
" />
<path d="M30.9545 22.6775
L31.8011 23.9475
" />
<path d="M31.8011 22.6775
L30.9545 23.9475
" />
<path d="M32.2849 23.9475
L32.2849 22.6775
" />
<path d="M32.2849 22.6775
L32.5873 22.6775
" />
<path d="M32.5873 22.6775
L32.7687 22.7380
" />
<path d="M32.7687 22.7380
L32.8897 22.8590
" />
<path d="M32.8897 22.8590
L32.9502 22.9799
" />
<path d="M32.9502 22.9799
L33.0106 23.2218
" />
<path d="M33.0106 23.2218
L33.0106 23.4032
" />
<path d="M33.0106 23.4032
L32.9502 23.6451
" />
<path d="M32.9502 23.6451
L32.8897 23.7661
" />
<path d="M32.8897 23.7661
L32.7687 23.8871
" />
<path d="M32.7687 23.8871
L32.5873 23.9475
" />
<path d="M32.5873 23.9475
L32.2849 23.9475
" />
</g></g>
<g style="fill:#A90000; fill-opacity:0.0; 
stroke:#A90000; stroke-width:0.1524; stroke-opacity:1; 
stroke-linecap:round; stroke-linejoin:round;">
<text x="26.7843" y="23.1140"
textLength="1.4127" font-size="1.6933" lengthAdjust="spacingAndGlyphs"
text-anchor="middle" opacity="0">5</text>
<g class="stroked-text"><desc>5</desc>
<path d="M27.0867 21.6805
L26.4819 21.6805
" />
<path d="M26.4819 21.6805
L26.4215 22.2853
" />
<path d="M26.4215 22.2853
L26.4819 22.2248
" />
<path d="M26.4819 22.2248
L26.6029 22.1643
" />
<path d="M26.6029 22.1643
L26.9053 22.1643
" />
<path d="M26.9053 22.1643
L27.0262 22.2248
" />
<path d="M27.0262 22.2248
L27.0867 22.2853
" />
<path d="M27.0867 22.2853
L27.1472 22.4062
" />
<path d="M27.1472 22.4062
L27.1472 22.7086
" />
<path d="M27.1472 22.7086
L27.0867 22.8296
" />
<path d="M27.0867 22.8296
L27.0262 22.8901
" />
<path d="M27.0262 22.8901
L26.9053 22.9505
" />
<path d="M26.9053 22.9505
L26.6029 22.9505
" />
<path d="M26.6029 22.9505
L26.4819 22.8901
" />
<path d="M26.4819 22.8901
L26.4215 22.8296
" />
</g></g>
<g style="fill:#840000; fill-opacity:0.0; 
stroke:#840000; stroke-width:0.1524; stroke-opacity:1; 
stroke-linecap:round; stroke-linejoin:round;">
<path d="M46.4693 25.9080
L50.2793 25.9080
" />
</g>
<g style="fill:#006464; fill-opacity:0.0; 
stroke:#006464; stroke-width:0.1524; stroke-opacity:1; 
stroke-linecap:round; stroke-linejoin:round;">
<text x="45.4533" y="26.5430"
textLength="3.9527" font-size="1.6933" lengthAdjust="spacingAndGlyphs"
text-anchor="end" opacity="0">SCK</text>
<g class="stroked-text"><desc>SCK</desc>
<path d="M41.8455 26.4271
L42.0269 26.4875
" />
<path d="M42.0269 26.4875
L42.3293 26.4875
" />
<path d="M42.3293 26.4875
L42.4502 26.4271
" />
<path d="M42.4502 26.4271
L42.5107 26.3666
" />
<path d="M42.5107 26.3666
L42.5712 26.2456
" />
<path d="M42.5712 26.2456
L42.5712 26.1247
" />
<path d="M42.5712 26.1247
L42.5107 26.0037
" />
<path d="M42.5107 26.0037
L42.4502 25.9432
" />
<path d="M42.4502 25.9432
L42.3293 25.8828
" />
<path d="M42.3293 25.8828
L42.0874 25.8223
" />
<path d="M42.0874 25.8223
L41.9664 25.7618
" />
<path d="M41.9664 25.7618
L41.9059 25.7013
" />
<path d="M41.9059 25.7013
L41.8455 25.5804
" />
<path d="M41.8455 25.5804
L41.8455 25.4594
" />
<path d="M41.8455 25.4594
L41.9059 25.3385
" />
<path d="M41.9059 25.3385
L41.9664 25.2780
" />
<path d="M41.9664 25.2780
L42.0874 25.2175
" />
<path d="M42.0874 25.2175
L42.3897 25.2175
" />
<path d="M42.3897 25.2175
L42.5712 25.2780
" />
<path d="M43.8411 26.3666
L43.7807 26.4271
" />
<path d="M43.7807 26.4271
L43.5992 26.4875
" />
<path d="M43.5992 26.4875
L43.4783 26.4875
" />
<path d="M43.4783 26.4875
L43.2969 26.4271
" />
<path d="M43.2969 26.4271
L43.1759 26.3061
" />
<path d="M43.1759 26.3061
L43.1154 26.1851
" />
<path d="M43.1154 26.1851
L43.0550 25.9432
" />
<path d="M43.0550 25.9432
L43.0550 25.7618
" />
<path d="M43.0550 25.7618
L43.1154 25.5199
" />
<path d="M43.1154 25.5199
L43.1759 25.3990
" />
<path d="M43.1759 25.3990
L43.2969 25.2780
" />
<path d="M43.2969 25.2780
L43.4783 25.2175
" />
<path d="M43.4783 25.2175
L43.5992 25.2175
" />
<path d="M43.5992 25.2175
L43.7807 25.2780
" />
<path d="M43.7807 25.2780
L43.8411 25.3385
" />
<path d="M44.3854 26.4875
L44.3854 25.2175
" />
<path d="M45.1111 26.4875
L44.5669 25.7618
" />
<path d="M45.1111 25.2175
L44.3854 25.9432
" />
</g></g>
<g style="fill:#A90000; fill-opacity:0.0; 
stroke:#A90000; stroke-width:0.1524; stroke-opacity:1; 
stroke-linecap:round; stroke-linejoin:round;">
<text x="48.3743" y="25.6540"
textLength="1.4127" font-size="1.6933" lengthAdjust="spacingAndGlyphs"
text-anchor="middle" opacity="0">6</text>
<g class="stroked-text"><desc>6</desc>
<path d="M48.6162 24.2205
L48.3743 24.2205
" />
<path d="M48.3743 24.2205
L48.2534 24.2810
" />
<path d="M48.2534 24.2810
L48.1929 24.3415
" />
<path d="M48.1929 24.3415
L48.0719 24.5229
" />
<path d="M48.0719 24.5229
L48.0115 24.7648
" />
<path d="M48.0115 24.7648
L48.0115 25.2486
" />
<path d="M48.0115 25.2486
L48.0719 25.3696
" />
<path d="M48.0719 25.3696
L48.1324 25.4301
" />
<path d="M48.1324 25.4301
L48.2534 25.4905
" />
<path d="M48.2534 25.4905
L48.4953 25.4905
" />
<path d="M48.4953 25.4905
L48.6162 25.4301
" />
<path d="M48.6162 25.4301
L48.6767 25.3696
" />
<path d="M48.6767 25.3696
L48.7372 25.2486
" />
<path d="M48.7372 25.2486
L48.7372 24.9462
" />
<path d="M48.7372 24.9462
L48.6767 24.8253
" />
<path d="M48.6767 24.8253
L48.6162 24.7648
" />
<path d="M48.6162 24.7648
L48.4953 24.7043
" />
<path d="M48.4953 24.7043
L48.2534 24.7043
" />
<path d="M48.2534 24.7043
L48.1324 24.7648
" />
<path d="M48.1324 24.7648
L48.0719 24.8253
" />
<path d="M48.0719 24.8253
L48.0115 24.9462
" />
</g></g>
<g style="fill:#840000; fill-opacity:0.0; 
stroke:#840000; stroke-width:0.1524; stroke-opacity:1; 
stroke-linecap:round; stroke-linejoin:round;">
<path d="M46.4693 23.3680
L50.2793 23.3680
" />
</g>
<g style="fill:#006464; fill-opacity:0.0; 
stroke:#006464; stroke-width:0.1524; stroke-opacity:1; 
stroke-linecap:round; stroke-linejoin:round;">
<text x="45.4533" y="24.0030"
textLength="5.2832" font-size="1.6933" lengthAdjust="spacingAndGlyphs"
text-anchor="end" opacity="0">REQN</text>
<g class="stroked-text"><desc>REQN</desc>
<path d="M41.3011 23.9475
L40.8778 23.3428
" />
<path d="M40.5754 23.9475
L40.5754 22.6775
" />
<path d="M40.5754 22.6775
L41.0592 22.6775
" />
<path d="M41.0592 22.6775
L41.1802 22.7380
" />
<path d="M41.1802 22.7380
L41.2407 22.7985
" />
<path d="M41.2407 22.7985
L41.3011 22.9194
" />
<path d="M41.3011 22.9194
L41.3011 23.1009
" />
<path d="M41.3011 23.1009
L41.2407 23.2218
" />
<path d="M41.2407 23.2218
L41.1802 23.2823
" />
<path d="M41.1802 23.2823
L41.0592 23.3428
" />
<path d="M41.0592 23.3428
L40.5754 23.3428
" />
<path d="M41.8454 23.2823
L42.2688 23.2823
" />
<path d="M42.4502 23.9475
L41.8454 23.9475
" />
<path d="M41.8454 23.9475
L41.8454 22.6775
" />
<path d="M41.8454 22.6775
L42.4502 22.6775
" />
<path d="M43.8411 24.0685
L43.7201 24.0080
" />
<path d="M43.7201 24.0080
L43.5992 23.8871
" />
<path d="M43.5992 23.8871
L43.4178 23.7056
" />
<path d="M43.4178 23.7056
L43.2968 23.6451
" />
<path d="M43.2968 23.6451
L43.1759 23.6451
" />
<path d="M43.2363 23.9475
L43.1154 23.8871
" />
<path d="M43.1154 23.8871
L42.9944 23.7661
" />
<path d="M42.9944 23.7661
L42.9340 23.5242
" />
<path d="M42.9340 23.5242
L42.9340 23.1009
" />
<path d="M42.9340 23.1009
L42.9944 22.8590
" />
<path d="M42.9944 22.8590
L43.1154 22.7380
" />
<path d="M43.1154 22.7380
L43.2363 22.6775
" />
<path d="M43.2363 22.6775
L43.4782 22.6775
" />
<path d="M43.4782 22.6775
L43.5992 22.7380
" />
<path d="M43.5992 22.7380
L43.7201 22.8590
" />
<path d="M43.7201 22.8590
L43.7806 23.1009
" />
<path d="M43.7806 23.1009
L43.7806 23.5242
" />
<path d="M43.7806 23.5242
L43.7201 23.7661
" />
<path d="M43.7201 23.7661
L43.5992 23.8871
" />
<path d="M43.5992 23.8871
L43.4782 23.9475
" />
<path d="M43.4782 23.9475
L43.2363 23.9475
" />
<path d="M44.3249 23.9475
L44.3249 22.6775
" />
<path d="M44.3249 22.6775
L45.0506 23.9475
" />
<path d="M45.0506 23.9475
L45.0506 22.6775
" />
</g></g>
<g style="fill:#A90000; fill-opacity:0.0; 
stroke:#A90000; stroke-width:0.1524; stroke-opacity:1; 
stroke-linecap:round; stroke-linejoin:round;">
<text x="48.3743" y="23.1140"
textLength="1.4127" font-size="1.6933" lengthAdjust="spacingAndGlyphs"
text-anchor="middle" opacity="0">7</text>
<g class="stroked-text"><desc>7</desc>
<path d="M47.9510 21.6805
L48.7976 21.6805
" />
<path d="M48.7976 21.6805
L48.2534 22.9505
" />
</g></g>
<g style="fill:#840000; fill-opacity:0.0; 
stroke:#840000; stroke-width:0.1524; stroke-opacity:1; 
stroke-linecap:round; stroke-linejoin:round;">
<path d="M46.4693 20.8280
L50.2793 20.8280
" />
</g>
<g style="fill:#006464; fill-opacity:0.0; 
stroke:#006464; stroke-width:0.1524; stroke-opacity:1; 
stroke-linecap:round; stroke-linejoin:round;">
<text x="45.4533" y="21.4630"
textLength="4.7994" font-size="1.6933" lengthAdjust="spacingAndGlyphs"
text-anchor="end" opacity="0">MOSI</text>
<g class="stroked-text"><desc>MOSI</desc>
<path d="M41.0592 21.4075
L41.0592 20.1375
" />
<path d="M41.0592 20.1375
L41.4826 21.0447
" />
<path d="M41.4826 21.0447
L41.9059 20.1375
" />
<path d="M41.9059 20.1375
L41.9059 21.4075
" />
<path d="M42.7525 20.1375
L42.9944 20.1375
" />
<path d="M42.9944 20.1375
L43.1154 20.1980
" />
<path d="M43.1154 20.1980
L43.2363 20.3190
" />
<path d="M43.2363 20.3190
L43.2968 20.5609
" />
<path d="M43.2968 20.5609
L43.2968 20.9842
" />
<path d="M43.2968 20.9842
L43.2363 21.2261
" />
<path d="M43.2363 21.2261
L43.1154 21.3471
" />
<path d="M43.1154 21.3471
L42.9944 21.4075
" />
<path d="M42.9944 21.4075
L42.7525 21.4075
" />
<path d="M42.7525 21.4075
L42.6316 21.3471
" />
<path d="M42.6316 21.3471
L42.5106 21.2261
" />
<path d="M42.5106 21.2261
L42.4502 20.9842
" />
<path d="M42.4502 20.9842
L42.4502 20.5609
" />
<path d="M42.4502 20.5609
L42.5106 20.3190
" />
<path d="M42.5106 20.3190
L42.6316 20.1980
" />
<path d="M42.6316 20.1980
L42.7525 20.1375
" />
<path d="M43.7807 21.3471
L43.9621 21.4075
" />
<path d="M43.9621 21.4075
L44.2645 21.4075
" />
<path d="M44.2645 21.4075
L44.3854 21.3471
" />
<path d="M44.3854 21.3471
L44.4459 21.2866
" />
<path d="M44.4459 21.2866
L44.5064 21.1656
" />
<path d="M44.5064 21.1656
L44.5064 21.0447
" />
<path d="M44.5064 21.0447
L44.4459 20.9237
" />
<path d="M44.4459 20.9237
L44.3854 20.8632
" />
<path d="M44.3854 20.8632
L44.2645 20.8028
" />
<path d="M44.2645 20.8028
L44.0226 20.7423
" />
<path d="M44.0226 20.7423
L43.9016 20.6818
" />
<path d="M43.9016 20.6818
L43.8411 20.6213
" />
<path d="M43.8411 20.6213
L43.7807 20.5004
" />
<path d="M43.7807 20.5004
L43.7807 20.3794
" />
<path d="M43.7807 20.3794
L43.8411 20.2585
" />
<path d="M43.8411 20.2585
L43.9016 20.1980
" />
<path d="M43.9016 20.1980
L44.0226 20.1375
" />
<path d="M44.0226 20.1375
L44.3249 20.1375
" />
<path d="M44.3249 20.1375
L44.5064 20.1980
" />
<path d="M45.0506 21.4075
L45.0506 20.1375
" />
</g></g>
<g style="fill:#A90000; fill-opacity:0.0; 
stroke:#A90000; stroke-width:0.1524; stroke-opacity:1; 
stroke-linecap:round; stroke-linejoin:round;">
<text x="48.3743" y="20.5740"
textLength="1.4127" font-size="1.6933" lengthAdjust="spacingAndGlyphs"
text-anchor="middle" opacity="0">8</text>
<g class="stroked-text"><desc>8</desc>
<path d="M48.2534 19.6848
L48.1324 19.6243
" />
<path d="M48.1324 19.6243
L48.0719 19.5639
" />
<path d="M48.0719 19.5639
L48.0115 19.4429
" />
<path d="M48.0115 19.4429
L48.0115 19.3824
" />
<path d="M48.0115 19.3824
L48.0719 19.2615
" />
<path d="M48.0719 19.2615
L48.1324 19.2010
" />
<path d="M48.1324 19.2010
L48.2534 19.1405
" />
<path d="M48.2534 19.1405
L48.4953 19.1405
" />
<path d="M48.4953 19.1405
L48.6162 19.2010
" />
<path d="M48.6162 19.2010
L48.6767 19.2615
" />
<path d="M48.6767 19.2615
L48.7372 19.3824
" />
<path d="M48.7372 19.3824
L48.7372 19.4429
" />
<path d="M48.7372 19.4429
L48.6767 19.5639
" />
<path d="M48.6767 19.5639
L48.6162 19.6243
" />
<path d="M48.6162 19.6243
L48.4953 19.6848
" />
<path d="M48.4953 19.6848
L48.2534 19.6848
" />
<path d="M48.2534 19.6848
L48.1324 19.7453
" />
<path d="M48.1324 19.7453
L48.0719 19.8058
" />
<path d="M48.0719 19.8058
L48.0115 19.9267
" />
<path d="M48.0115 19.9267
L48.0115 20.1686
" />
<path d="M48.0115 20.1686
L48.0719 20.2896
" />
<path d="M48.0719 20.2896
L48.1324 20.3501
" />
<path d="M48.1324 20.3501
L48.2534 20.4105
" />
<path d="M48.2534 20.4105
L48.4953 20.4105
" />
<path d="M48.4953 20.4105
L48.6162 20.3501
" />
<path d="M48.6162 20.3501
L48.6767 20.2896
" />
<path d="M48.6767 20.2896
L48.7372 20.1686
" />
<path d="M48.7372 20.1686
L48.7372 19.9267
" />
<path d="M48.7372 19.9267
L48.6767 19.8058
" />
<path d="M48.6767 19.8058
L48.6162 19.7453
" />
<path d="M48.6162 19.7453
L48.4953 19.6848
" />
</g></g>
<g style="fill:#840000; fill-opacity:0.0; 
stroke:#840000; stroke-width:0.1524; stroke-opacity:1; 
stroke-linecap:round; stroke-linejoin:round;">
<path d="M46.4693 18.2880
L50.2793 18.2880
" />
</g>
<g style="fill:#006464; fill-opacity:0.0; 
stroke:#006464; stroke-width:0.1524; stroke-opacity:1; 
stroke-linecap:round; stroke-linejoin:round;">
<text x="45.4533" y="18.9230"
textLength="4.7994" font-size="1.6933" lengthAdjust="spacingAndGlyphs"
text-anchor="end" opacity="0">MISO</text>
<g class="stroked-text"><desc>MISO</desc>
<path d="M41.0592 18.8675
L41.0592 17.5975
" />
<path d="M41.0592 17.5975
L41.4826 18.5047
" />
<path d="M41.4826 18.5047
L41.9059 17.5975
" />
<path d="M41.9059 17.5975
L41.9059 18.8675
" />
<path d="M42.5106 18.8675
L42.5106 17.5975
" />
<path d="M43.0550 18.8071
L43.2364 18.8675
" />
<path d="M43.2364 18.8675
L43.5388 18.8675
" />
<path d="M43.5388 18.8675
L43.6597 18.8071
" />
<path d="M43.6597 18.8071
L43.7202 18.7466
" />
<path d="M43.7202 18.7466
L43.7807 18.6256
" />
<path d="M43.7807 18.6256
L43.7807 18.5047
" />
<path d="M43.7807 18.5047
L43.7202 18.3837
" />
<path d="M43.7202 18.3837
L43.6597 18.3232
" />
<path d="M43.6597 18.3232
L43.5388 18.2628
" />
<path d="M43.5388 18.2628
L43.2969 18.2023
" />
<path d="M43.2969 18.2023
L43.1759 18.1418
" />
<path d="M43.1759 18.1418
L43.1154 18.0813
" />
<path d="M43.1154 18.0813
L43.0550 17.9604
" />
<path d="M43.0550 17.9604
L43.0550 17.8394
" />
<path d="M43.0550 17.8394
L43.1154 17.7185
" />
<path d="M43.1154 17.7185
L43.1759 17.6580
" />
<path d="M43.1759 17.6580
L43.2969 17.5975
" />
<path d="M43.2969 17.5975
L43.5992 17.5975
" />
<path d="M43.5992 17.5975
L43.7807 17.6580
" />
<path d="M44.5668 17.5975
L44.8087 17.5975
" />
<path d="M44.8087 17.5975
L44.9297 17.6580
" />
<path d="M44.9297 17.6580
L45.0506 17.7790
" />
<path d="M45.0506 17.7790
L45.1111 18.0209
" />
<path d="M45.1111 18.0209
L45.1111 18.4442
" />
<path d="M45.1111 18.4442
L45.0506 18.6861
" />
<path d="M45.0506 18.6861
L44.9297 18.8071
" />
<path d="M44.9297 18.8071
L44.8087 18.8675
" />
<path d="M44.8087 18.8675
L44.5668 18.8675
" />
<path d="M44.5668 18.8675
L44.4459 18.8071
" />
<path d="M44.4459 18.8071
L44.3249 18.6861
" />
<path d="M44.3249 18.6861
L44.2645 18.4442
" />
<path d="M44.2645 18.4442
L44.2645 18.0209
" />
<path d="M44.2645 18.0209
L44.3249 17.7790
" />
<path d="M44.3249 17.7790
L44.4459 17.6580
" />
<path d="M44.4459 17.6580
L44.5668 17.5975
" />
</g></g>
<g style="fill:#A90000; fill-opacity:0.0; 
stroke:#A90000; stroke-width:0.1524; stroke-opacity:1; 
stroke-linecap:round; stroke-linejoin:round;">
<text x="48.3743" y="18.0340"
textLength="1.4127" font-size="1.6933" lengthAdjust="spacingAndGlyphs"
text-anchor="middle" opacity="0">9</text>
<g class="stroked-text"><desc>9</desc>
<path d="M48.1324 17.8705
L48.3743 17.8705
" />
<path d="M48.3743 17.8705
L48.4953 17.8101
" />
<path d="M48.4953 17.8101
L48.5557 17.7496
" />
<path d="M48.5557 17.7496
L48.6767 17.5681
" />
<path d="M48.6767 17.5681
L48.7372 17.3262
" />
<path d="M48.7372 17.3262
L48.7372 16.8424
" />
<path d="M48.7372 16.8424
L48.6767 16.7215
" />
<path d="M48.6767 16.7215
L48.6162 16.6610
" />
<path d="M48.6162 16.6610
L48.4953 16.6005
" />
<path d="M48.4953 16.6005
L48.2534 16.6005
" />
<path d="M48.2534 16.6005
L48.1324 16.6610
" />
<path d="M48.1324 16.6610
L48.0719 16.7215
" />
<path d="M48.0719 16.7215
L48.0115 16.8424
" />
<path d="M48.0115 16.8424
L48.0115 17.1448
" />
<path d="M48.0115 17.1448
L48.0719 17.2658
" />
<path d="M48.0719 17.2658
L48.1324 17.3262
" />
<path d="M48.1324 17.3262
L48.2534 17.3867
" />
<path d="M48.2534 17.3867
L48.4953 17.3867
" />
<path d="M48.4953 17.3867
L48.6162 17.3262
" />
<path d="M48.6162 17.3262
L48.6767 17.2658
" />
<path d="M48.6767 17.2658
L48.7372 17.1448
" />
</g></g>
<g style="fill:#840084; fill-opacity:0.0; 
stroke:#840084; stroke-width:0.1524; stroke-opacity:1; 
stroke-linecap:round; stroke-linejoin:round;">
</g>
<g style="fill:#006464; fill-opacity:0.0; 
stroke:#006464; stroke-width:0.1524; stroke-opacity:1; 
stroke-linecap:round; stroke-linejoin:round;">
</g>
<g style="fill:#006464; fill-opacity:0.0; 
stroke:#006464; stroke-width:0.1588; stroke-opacity:1; 
stroke-linecap:round; stroke-linejoin:round;">
<text x="29.9593" y="6.2230"
textLength="2.6415" font-size="1.6933" lengthAdjust="spacingAndGlyphs"
text-anchor="middle" opacity="0">U?</text>
<g class="stroked-text"><desc>U?</desc>
<path d="M29.0521 4.8972
L29.0521 5.9253
" />
<path d="M29.0521 5.9253
L29.1126 6.0463
" />
<path d="M29.1126 6.0463
L29.1731 6.1068
" />
<path d="M29.1731 6.1068
L29.2940 6.1672
" />
<path d="M29.2940 6.1672
L29.5359 6.1672
" />
<path d="M29.5359 6.1672
L29.6569 6.1068
" />
<path d="M29.6569 6.1068
L29.7174 6.0463
" />
<path d="M29.7174 6.0463
L29.7778 5.9253
" />
<path d="M29.7778 5.9253
L29.7778 4.8972
" />
<path d="M30.5641 6.0463
L30.6245 6.1068
" />
<path d="M30.6245 6.1068
L30.5641 6.1672
" />
<path d="M30.5641 6.1672
L30.5036 6.1068
" />
<path d="M30.5036 6.1068
L30.5641 6.0463
" />
<path d="M30.5641 6.0463
L30.5641 6.1672
" />
<path d="M30.3222 4.9577
L30.4431 4.8972
" />
<path d="M30.4431 4.8972
L30.7455 4.8972
" />
<path d="M30.7455 4.8972
L30.8664 4.9577
" />
<path d="M30.8664 4.9577
L30.9269 5.0787
" />
<path d="M30.9269 5.0787
L30.9269 5.1996
" />
<path d="M30.9269 5.1996
L30.8664 5.3206
" />
<path d="M30.8664 5.3206
L30.8060 5.3810
" />
<path d="M30.8060 5.3810
L30.6850 5.4415
" />
<path d="M30.6850 5.4415
L30.6245 5.5020
" />
<path d="M30.6245 5.5020
L30.5641 5.6229
" />
<path d="M30.5641 5.6229
L30.5641 5.6834
" />
</g><text x="45.1993" y="31.6230"
textLength="14.1923" font-size="1.6933" lengthAdjust="spacingAndGlyphs"
text-anchor="middle" opacity="0">MOD-nRF8001</text>
<g class="stroked-text"><desc>MOD-nRF8001</desc>
<path d="M38.5167 31.5672
L38.5167 30.2972
" />
<path d="M38.5167 30.2972
L38.9401 31.2044
" />
<path d="M38.9401 31.2044
L39.3634 30.2972
" />
<path d="M39.3634 30.2972
L39.3634 31.5672
" />
<path d="M40.2100 30.2972
L40.4519 30.2972
" />
<path d="M40.4519 30.2972
L40.5729 30.3577
" />
<path d="M40.5729 30.3577
L40.6938 30.4787
" />
<path d="M40.6938 30.4787
L40.7543 30.7206
" />
<path d="M40.7543 30.7206
L40.7543 31.1439
" />
<path d="M40.7543 31.1439
L40.6938 31.3858
" />
<path d="M40.6938 31.3858
L40.5729 31.5068
" />
<path d="M40.5729 31.5068
L40.4519 31.5672
" />
<path d="M40.4519 31.5672
L40.2100 31.5672
" />
<path d="M40.2100 31.5672
L40.0891 31.5068
" />
<path d="M40.0891 31.5068
L39.9681 31.3858
" />
<path d="M39.9681 31.3858
L39.9077 31.1439
" />
<path d="M39.9077 31.1439
L39.9077 30.7206
" />
<path d="M39.9077 30.7206
L39.9681 30.4787
" />
<path d="M39.9681 30.4787
L40.0891 30.3577
" />
<path d="M40.0891 30.3577
L40.2100 30.2972
" />
<path d="M41.2986 31.5672
L41.2986 30.2972
" />
<path d="M41.2986 30.2972
L41.6010 30.2972
" />
<path d="M41.6010 30.2972
L41.7824 30.3577
" />
<path d="M41.7824 30.3577
L41.9034 30.4787
" />
<path d="M41.9034 30.4787
L41.9639 30.5996
" />
<path d="M41.9639 30.5996
L42.0243 30.8415
" />
<path d="M42.0243 30.8415
L42.0243 31.0229
" />
<path d="M42.0243 31.0229
L41.9639 31.2648
" />
<path d="M41.9639 31.2648
L41.9034 31.3858
" />
<path d="M41.9034 31.3858
L41.7824 31.5068
" />
<path d="M41.7824 31.5068
L41.6010 31.5672
" />
<path d="M41.6010 31.5672
L41.2986 31.5672
" />
<path d="M42.5686 31.0834
L43.5363 31.0834
" />
<path d="M44.1410 30.7206
L44.1410 31.5672
" />
<path d="M44.1410 30.8415
L44.2015 30.7810
" />
<path d="M44.2015 30.7810
L44.3225 30.7206
" />
<path d="M44.3225 30.7206
L44.5039 30.7206
" />
<path d="M44.5039 30.7206
L44.6248 30.7810
" />
<path d="M44.6248 30.7810
L44.6853 30.9020
" />
<path d="M44.6853 30.9020
L44.6853 31.5672
" />
<path d="M46.0157 31.5672
L45.5924 30.9625
" />
<path d="M45.2900 31.5672
L45.2900 30.2972
" />
<path d="M45.2900 30.2972
L45.7738 30.2972
" />
<path d="M45.7738 30.2972
L45.8948 30.3577
" />
<path d="M45.8948 30.3577
L45.9553 30.4182
" />
<path d="M45.9553 30.4182
L46.0157 30.5391
" />
<path d="M46.0157 30.5391
L46.0157 30.7206
" />
<path d="M46.0157 30.7206
L45.9553 30.8415
" />
<path d="M45.9553 30.8415
L45.8948 30.9020
" />
<path d="M45.8948 30.9020
L45.7738 30.9625
" />
<path d="M45.7738 30.9625
L45.2900 30.9625
" />
<path d="M46.9834 30.9020
L46.5600 30.9020
" />
<path d="M46.5600 31.5672
L46.5600 30.2972
" />
<path d="M46.5600 30.2972
L47.1648 30.2972
" />
<path d="M47.8301 30.8415
L47.7091 30.7810
" />
<path d="M47.7091 30.7810
L47.6486 30.7206
" />
<path d="M47.6486 30.7206
L47.5882 30.5996
" />
<path d="M47.5882 30.5996
L47.5882 30.5391
" />
<path d="M47.5882 30.5391
L47.6486 30.4182
" />
<path d="M47.6486 30.4182
L47.7091 30.3577
" />
<path d="M47.7091 30.3577
L47.8301 30.2972
" />
<path d="M47.8301 30.2972
L48.0720 30.2972
" />
<path d="M48.0720 30.2972
L48.1929 30.3577
" />
<path d="M48.1929 30.3577
L48.2534 30.4182
" />
<path d="M48.2534 30.4182
L48.3139 30.5391
" />
<path d="M48.3139 30.5391
L48.3139 30.5996
" />
<path d="M48.3139 30.5996
L48.2534 30.7206
" />
<path d="M48.2534 30.7206
L48.1929 30.7810
" />
<path d="M48.1929 30.7810
L48.0720 30.8415
" />
<path d="M48.0720 30.8415
L47.8301 30.8415
" />
<path d="M47.8301 30.8415
L47.7091 30.9020
" />
<path d="M47.7091 30.9020
L47.6486 30.9625
" />
<path d="M47.6486 30.9625
L47.5882 31.0834
" />
<path d="M47.5882 31.0834
L47.5882 31.3253
" />
<path d="M47.5882 31.3253
L47.6486 31.4463
" />
<path d="M47.6486 31.4463
L47.7091 31.5068
" />
<path d="M47.7091 31.5068
L47.8301 31.5672
" />
<path d="M47.8301 31.5672
L48.0720 31.5672
" />
<path d="M48.0720 31.5672
L48.1929 31.5068
" />
<path d="M48.1929 31.5068
L48.2534 31.4463
" />
<path d="M48.2534 31.4463
L48.3139 31.3253
" />
<path d="M48.3139 31.3253
L48.3139 31.0834
" />
<path d="M48.3139 31.0834
L48.2534 30.9625
" />
<path d="M48.2534 30.9625
L48.1929 30.9020
" />
<path d="M48.1929 30.9020
L48.0720 30.8415
" />
<path d="M49.1000 30.2972
L49.2210 30.2972
" />
<path d="M49.2210 30.2972
L49.3419 30.3577
" />
<path d="M49.3419 30.3577
L49.4024 30.4182
" />
<path d="M49.4024 30.4182
L49.4629 30.5391
" />
<path d="M49.4629 30.5391
L49.5234 30.7810
" />
<path d="M49.5234 30.7810
L49.5234 31.0834
" />
<path d="M49.5234 31.0834
L49.4629 31.3253
" />
<path d="M49.4629 31.3253
L49.4024 31.4463
" />
<path d="M49.4024 31.4463
L49.3419 31.5068
" />
<path d="M49.3419 31.5068
L49.2210 31.5672
" />
<path d="M49.2210 31.5672
L49.1000 31.5672
" />
<path d="M49.1000 31.5672
L48.9791 31.5068
" />
<path d="M48.9791 31.5068
L48.9186 31.4463
" />
<path d="M48.9186 31.4463
L48.8581 31.3253
" />
<path d="M48.8581 31.3253
L48.7977 31.0834
" />
<path d="M48.7977 31.0834
L48.7977 30.7810
" />
<path d="M48.7977 30.7810
L48.8581 30.5391
" />
<path d="M48.8581 30.5391
L48.9186 30.4182
" />
<path d="M48.9186 30.4182
L48.9791 30.3577
" />
<path d="M48.9791 30.3577
L49.1000 30.2972
" />
<path d="M50.3095 30.2972
L50.4305 30.2972
" />
<path d="M50.4305 30.2972
L50.5514 30.3577
" />
<path d="M50.5514 30.3577
L50.6119 30.4182
" />
<path d="M50.6119 30.4182
L50.6724 30.5391
" />
<path d="M50.6724 30.5391
L50.7329 30.7810
" />
<path d="M50.7329 30.7810
L50.7329 31.0834
" />
<path d="M50.7329 31.0834
L50.6724 31.3253
" />
<path d="M50.6724 31.3253
L50.6119 31.4463
" />
<path d="M50.6119 31.4463
L50.5514 31.5068
" />
<path d="M50.5514 31.5068
L50.4305 31.5672
" />
<path d="M50.4305 31.5672
L50.3095 31.5672
" />
<path d="M50.3095 31.5672
L50.1886 31.5068
" />
<path d="M50.1886 31.5068
L50.1281 31.4463
" />
<path d="M50.1281 31.4463
L50.0676 31.3253
" />
<path d="M50.0676 31.3253
L50.0072 31.0834
" />
<path d="M50.0072 31.0834
L50.0072 30.7810
" />
<path d="M50.0072 30.7810
L50.0676 30.5391
" />
<path d="M50.0676 30.5391
L50.1281 30.4182
" />
<path d="M50.1281 30.4182
L50.1886 30.3577
" />
<path d="M50.1886 30.3577
L50.3095 30.2972
" />
<path d="M51.9424 31.5672
L51.2167 31.5672
" />
<path d="M51.5795 31.5672
L51.5795 30.2972
" />
<path d="M51.5795 30.2972
L51.4586 30.4787
" />
<path d="M51.4586 30.4787
L51.3376 30.5996
" />
<path d="M51.3376 30.5996
L51.2167 30.6601
" />
</g></g> 
</svg>
