<?xml version="1.0" standalone="no"?>
 <!DOCTYPE svg PUBLIC "-//W3C//DTD SVG 1.1//EN" 
 "http://www.w3.org/Graphics/SVG/1.1/DTD/svg11.dtd"> 
<svg
  xmlns:svg="http://www.w3.org/2000/svg"
  xmlns="http://www.w3.org/2000/svg"
  xmlns:xlink="http://www.w3.org/1999/xlink"
  version="1.1"
  width="65.7860mm" height="17.9832mm" viewBox="0.0000 0.0000 65.7860 17.9832">
<title>SVG Image created as ap3402.svg date 2024/01/16 15:21:25 </title>
  <desc>Image generated by Eeschema-SVG </desc>
<g style="fill:#000000; fill-opacity:1.0000;stroke:#000000; stroke-opacity:1.0000;
stroke-linecap:round; stroke-linejoin:round;"
 transform="translate(0 0) scale(1 1)">
</g>
<g style="fill:#000000; fill-opacity:0.0; 
stroke:#000000; stroke-width:0.0000; stroke-opacity:1; 
stroke-linecap:round; stroke-linejoin:round;">
</g>
<g style="fill:#000000; fill-opacity:0.0; 
stroke:#000000; stroke-width:0.2540; stroke-opacity:1; 
stroke-linecap:round; stroke-linejoin:round;">
<rect x="25.273000" y="3.911600" width="15.240000" height="10.160000" rx="0.000000" />
</g>
<g style="fill:#000000; fill-opacity:0.0; 
stroke:#000000; stroke-width:0.1524; stroke-opacity:1; 
stroke-linecap:round; stroke-linejoin:round;">
<path d="M25.2730 11.5316
L22.7330 11.5316
" />
<text x="25.7810" y="12.1666"
textLength="2.6827" font-size="1.6933" lengthAdjust="spacingAndGlyphs"
text-anchor="start" opacity="0">EN</text>
<g class="stroked-text"><desc>EN</desc>
<path d="M26.1835 11.4459
L26.6069 11.4459
" />
<path d="M26.7883 12.1111
L26.1835 12.1111
" />
<path d="M26.1835 12.1111
L26.1835 10.8411
" />
<path d="M26.1835 10.8411
L26.7883 10.8411
" />
<path d="M27.3325 12.1111
L27.3325 10.8411
" />
<path d="M27.3325 10.8411
L28.0582 12.1111
" />
<path d="M28.0582 12.1111
L28.0582 10.8411
" />
</g><text x="24.0030" y="11.2776"
textLength="1.4127" font-size="1.6933" lengthAdjust="spacingAndGlyphs"
text-anchor="middle" opacity="0">1</text>
<g class="stroked-text"><desc>1</desc>
<path d="M24.3659 11.1141
L23.6402 11.1141
" />
<path d="M24.0030 11.1141
L24.0030 9.8441
" />
<path d="M24.0030 9.8441
L23.8821 10.0256
" />
<path d="M23.8821 10.0256
L23.7611 10.1465
" />
<path d="M23.7611 10.1465
L23.6402 10.2070
" />
</g><path d="M32.8930 14.0716
L32.8930 16.6116
" />
<g transform="rotate(-90.000000 32.8930 13.5636)">
<text x="32.8930" y="14.1986"
textLength="4.0737" font-size="1.6933" lengthAdjust="spacingAndGlyphs"
text-anchor="start" opacity="0">GND</text>
</g>
<g class="stroked-text"><desc>GND</desc>
<path d="M32.2630 12.4957
L32.2025 12.6167
" />
<path d="M32.2025 12.6167
L32.2025 12.7981
" />
<path d="M32.2025 12.7981
L32.2630 12.9795
" />
<path d="M32.2630 12.9795
L32.3840 13.1005
" />
<path d="M32.3840 13.1005
L32.5049 13.1610
" />
<path d="M32.5049 13.1610
L32.7468 13.2214
" />
<path d="M32.7468 13.2214
L32.9282 13.2214
" />
<path d="M32.9282 13.2214
L33.1701 13.1610
" />
<path d="M33.1701 13.1610
L33.2911 13.1005
" />
<path d="M33.2911 13.1005
L33.4121 12.9795
" />
<path d="M33.4121 12.9795
L33.4725 12.7981
" />
<path d="M33.4725 12.7981
L33.4725 12.6772
" />
<path d="M33.4725 12.6772
L33.4121 12.4957
" />
<path d="M33.4121 12.4957
L33.3516 12.4353
" />
<path d="M33.3516 12.4353
L32.9282 12.4353
" />
<path d="M32.9282 12.4353
L32.9282 12.6772
" />
<path d="M33.4725 11.8910
L32.2025 11.8910
" />
<path d="M32.2025 11.8910
L33.4725 11.1653
" />
<path d="M33.4725 11.1653
L32.2025 11.1653
" />
<path d="M33.4725 10.5605
L32.2025 10.5605
" />
<path d="M32.2025 10.5605
L32.2025 10.2581
" />
<path d="M32.2025 10.2581
L32.2630 10.0767
" />
<path d="M32.2630 10.0767
L32.3840 9.9557
" />
<path d="M32.3840 9.9557
L32.5049 9.8952
" />
<path d="M32.5049 9.8952
L32.7468 9.8348
" />
<path d="M32.7468 9.8348
L32.9282 9.8348
" />
<path d="M32.9282 9.8348
L33.1701 9.8952
" />
<path d="M33.1701 9.8952
L33.2911 9.9557
" />
<path d="M33.2911 9.9557
L33.4121 10.0767
" />
<path d="M33.4121 10.0767
L33.4725 10.2581
" />
<path d="M33.4725 10.2581
L33.4725 10.5605
" />
</g><g transform="rotate(-90.000000 32.6390 15.3416)">
<text x="32.6390" y="15.3416"
textLength="1.4127" font-size="1.6933" lengthAdjust="spacingAndGlyphs"
text-anchor="middle" opacity="0">2</text>
</g>
<g class="stroked-text"><desc>2</desc>
<path d="M31.3265 15.7043
L31.2660 15.6439
" />
<path d="M31.2660 15.6439
L31.2055 15.5229
" />
<path d="M31.2055 15.5229
L31.2055 15.2205
" />
<path d="M31.2055 15.2205
L31.2660 15.0996
" />
<path d="M31.2660 15.0996
L31.3265 15.0391
" />
<path d="M31.3265 15.0391
L31.4474 14.9786
" />
<path d="M31.4474 14.9786
L31.5684 14.9786
" />
<path d="M31.5684 14.9786
L31.7498 15.0391
" />
<path d="M31.7498 15.0391
L32.4755 15.7648
" />
<path d="M32.4755 15.7648
L32.4755 14.9786
" />
</g><path d="M40.5130 6.4516
L43.0530 6.4516
" />
<text x="40.0050" y="7.0866"
textLength="2.4408" font-size="1.6933" lengthAdjust="spacingAndGlyphs"
text-anchor="end" opacity="0">LX</text>
<g class="stroked-text"><desc>LX</desc>
<path d="M38.5743 7.0311
L37.9695 7.0311
" />
<path d="M37.9695 7.0311
L37.9695 5.7611
" />
<path d="M38.8767 5.7611
L39.7233 7.0311
" />
<path d="M39.7233 5.7611
L38.8767 7.0311
" />
</g><text x="41.7830" y="6.1976"
textLength="1.4127" font-size="1.6933" lengthAdjust="spacingAndGlyphs"
text-anchor="middle" opacity="0">3</text>
<g class="stroked-text"><desc>3</desc>
<path d="M41.3597 4.7641
L42.1459 4.7641
" />
<path d="M42.1459 4.7641
L41.7225 5.2479
" />
<path d="M41.7225 5.2479
L41.9040 5.2479
" />
<path d="M41.9040 5.2479
L42.0249 5.3084
" />
<path d="M42.0249 5.3084
L42.0854 5.3689
" />
<path d="M42.0854 5.3689
L42.1459 5.4898
" />
<path d="M42.1459 5.4898
L42.1459 5.7922
" />
<path d="M42.1459 5.7922
L42.0854 5.9132
" />
<path d="M42.0854 5.9132
L42.0249 5.9737
" />
<path d="M42.0249 5.9737
L41.9040 6.0341
" />
<path d="M41.9040 6.0341
L41.5411 6.0341
" />
<path d="M41.5411 6.0341
L41.4202 5.9737
" />
<path d="M41.4202 5.9737
L41.3597 5.9132
" />
</g><path d="M25.2730 6.4516
L22.7330 6.4516
" />
<text x="25.7810" y="7.0866"
textLength="3.2271" font-size="1.6933" lengthAdjust="spacingAndGlyphs"
text-anchor="start" opacity="0">VIN</text>
<g class="stroked-text"><desc>VIN</desc>
<path d="M26.0021 5.7611
L26.4254 7.0311
" />
<path d="M26.4254 7.0311
L26.8488 5.7611
" />
<path d="M27.2721 7.0311
L27.2721 5.7611
" />
<path d="M27.8769 7.0311
L27.8769 5.7611
" />
<path d="M27.8769 5.7611
L28.6026 7.0311
" />
<path d="M28.6026 7.0311
L28.6026 5.7611
" />
</g><text x="24.0030" y="6.1976"
textLength="1.4127" font-size="1.6933" lengthAdjust="spacingAndGlyphs"
text-anchor="middle" opacity="0">4</text>
<g class="stroked-text"><desc>4</desc>
<path d="M24.2449 5.1875
L24.2449 6.0341
" />
<path d="M23.9425 4.7037
L23.6402 5.6108
" />
<path d="M23.6402 5.6108
L24.4263 5.6108
" />
</g><path d="M25.2730 8.9916
L22.7330 8.9916
" />
<text x="25.7810" y="9.6266"
textLength="2.7432" font-size="1.6933" lengthAdjust="spacingAndGlyphs"
text-anchor="start" opacity="0">PG</text>
<g class="stroked-text"><desc>PG</desc>
<path d="M26.1835 9.5711
L26.1835 8.3011
" />
<path d="M26.1835 8.3011
L26.6673 8.3011
" />
<path d="M26.6673 8.3011
L26.7883 8.3616
" />
<path d="M26.7883 8.3616
L26.8488 8.4221
" />
<path d="M26.8488 8.4221
L26.9092 8.5430
" />
<path d="M26.9092 8.5430
L26.9092 8.7245
" />
<path d="M26.9092 8.7245
L26.8488 8.8454
" />
<path d="M26.8488 8.8454
L26.7883 8.9059
" />
<path d="M26.7883 8.9059
L26.6673 8.9664
" />
<path d="M26.6673 8.9664
L26.1835 8.9664
" />
<path d="M28.1188 8.3616
L27.9978 8.3011
" />
<path d="M27.9978 8.3011
L27.8164 8.3011
" />
<path d="M27.8164 8.3011
L27.6350 8.3616
" />
<path d="M27.6350 8.3616
L27.5140 8.4826
" />
<path d="M27.5140 8.4826
L27.4535 8.6035
" />
<path d="M27.4535 8.6035
L27.3931 8.8454
" />
<path d="M27.3931 8.8454
L27.3931 9.0268
" />
<path d="M27.3931 9.0268
L27.4535 9.2687
" />
<path d="M27.4535 9.2687
L27.5140 9.3897
" />
<path d="M27.5140 9.3897
L27.6350 9.5107
" />
<path d="M27.6350 9.5107
L27.8164 9.5711
" />
<path d="M27.8164 9.5711
L27.9373 9.5711
" />
<path d="M27.9373 9.5711
L28.1188 9.5107
" />
<path d="M28.1188 9.5107
L28.1792 9.4502
" />
<path d="M28.1792 9.4502
L28.1792 9.0268
" />
<path d="M28.1792 9.0268
L27.9373 9.0268
" />
</g><text x="24.0030" y="8.7376"
textLength="1.4127" font-size="1.6933" lengthAdjust="spacingAndGlyphs"
text-anchor="middle" opacity="0">5</text>
<g class="stroked-text"><desc>5</desc>
<path d="M24.3054 7.3041
L23.7006 7.3041
" />
<path d="M23.7006 7.3041
L23.6402 7.9089
" />
<path d="M23.6402 7.9089
L23.7006 7.8484
" />
<path d="M23.7006 7.8484
L23.8216 7.7879
" />
<path d="M23.8216 7.7879
L24.1240 7.7879
" />
<path d="M24.1240 7.7879
L24.2449 7.8484
" />
<path d="M24.2449 7.8484
L24.3054 7.9089
" />
<path d="M24.3054 7.9089
L24.3659 8.0298
" />
<path d="M24.3659 8.0298
L24.3659 8.3322
" />
<path d="M24.3659 8.3322
L24.3054 8.4532
" />
<path d="M24.3054 8.4532
L24.2449 8.5137
" />
<path d="M24.2449 8.5137
L24.1240 8.5741
" />
<path d="M24.1240 8.5741
L23.8216 8.5741
" />
<path d="M23.8216 8.5741
L23.7006 8.5137
" />
<path d="M23.7006 8.5137
L23.6402 8.4532
" />
</g><path d="M40.5130 11.5316
L43.0530 11.5316
" />
<text x="40.0050" y="12.1666"
textLength="2.5618" font-size="1.6933" lengthAdjust="spacingAndGlyphs"
text-anchor="end" opacity="0">FB</text>
<g class="stroked-text"><desc>FB</desc>
<path d="M38.2719 11.4459
L37.8485 11.4459
" />
<path d="M37.8485 12.1111
L37.8485 10.8411
" />
<path d="M37.8485 10.8411
L38.4533 10.8411
" />
<path d="M39.3605 11.4459
L39.5419 11.5064
" />
<path d="M39.5419 11.5064
L39.6024 11.5668
" />
<path d="M39.6024 11.5668
L39.6628 11.6878
" />
<path d="M39.6628 11.6878
L39.6628 11.8692
" />
<path d="M39.6628 11.8692
L39.6024 11.9902
" />
<path d="M39.6024 11.9902
L39.5419 12.0507
" />
<path d="M39.5419 12.0507
L39.4209 12.1111
" />
<path d="M39.4209 12.1111
L38.9371 12.1111
" />
<path d="M38.9371 12.1111
L38.9371 10.8411
" />
<path d="M38.9371 10.8411
L39.3605 10.8411
" />
<path d="M39.3605 10.8411
L39.4814 10.9016
" />
<path d="M39.4814 10.9016
L39.5419 10.9621
" />
<path d="M39.5419 10.9621
L39.6024 11.0830
" />
<path d="M39.6024 11.0830
L39.6024 11.2040
" />
<path d="M39.6024 11.2040
L39.5419 11.3249
" />
<path d="M39.5419 11.3249
L39.4814 11.3854
" />
<path d="M39.4814 11.3854
L39.3605 11.4459
" />
<path d="M39.3605 11.4459
L38.9371 11.4459
" />
</g><text x="41.7830" y="11.2776"
textLength="1.4127" font-size="1.6933" lengthAdjust="spacingAndGlyphs"
text-anchor="middle" opacity="0">6</text>
<g class="stroked-text"><desc>6</desc>
<path d="M42.0249 9.8441
L41.7830 9.8441
" />
<path d="M41.7830 9.8441
L41.6621 9.9046
" />
<path d="M41.6621 9.9046
L41.6016 9.9651
" />
<path d="M41.6016 9.9651
L41.4806 10.1465
" />
<path d="M41.4806 10.1465
L41.4202 10.3884
" />
<path d="M41.4202 10.3884
L41.4202 10.8722
" />
<path d="M41.4202 10.8722
L41.4806 10.9932
" />
<path d="M41.4806 10.9932
L41.5411 11.0537
" />
<path d="M41.5411 11.0537
L41.6621 11.1141
" />
<path d="M41.6621 11.1141
L41.9040 11.1141
" />
<path d="M41.9040 11.1141
L42.0249 11.0537
" />
<path d="M42.0249 11.0537
L42.0854 10.9932
" />
<path d="M42.0854 10.9932
L42.1459 10.8722
" />
<path d="M42.1459 10.8722
L42.1459 10.5698
" />
<path d="M42.1459 10.5698
L42.0854 10.4489
" />
<path d="M42.0854 10.4489
L42.0249 10.3884
" />
<path d="M42.0249 10.3884
L41.9040 10.3279
" />
<path d="M41.9040 10.3279
L41.6621 10.3279
" />
<path d="M41.6621 10.3279
L41.5411 10.3884
" />
<path d="M41.5411 10.3884
L41.4806 10.4489
" />
<path d="M41.4806 10.4489
L41.4202 10.5698
" />
</g></g>
<g style="fill:#000000; fill-opacity:0.0; 
stroke:#000000; stroke-width:0.1588; stroke-opacity:1; 
stroke-linecap:round; stroke-linejoin:round;">
<text x="25.2730" y="3.2766"
textLength="2.6415" font-size="1.6933" lengthAdjust="spacingAndGlyphs"
text-anchor="middle" opacity="0">U?</text>
<g class="stroked-text"><desc>U?</desc>
<path d="M24.3658 1.9508
L24.3658 2.9789
" />
<path d="M24.3658 2.9789
L24.4263 3.0999
" />
<path d="M24.4263 3.0999
L24.4868 3.1604
" />
<path d="M24.4868 3.1604
L24.6077 3.2208
" />
<path d="M24.6077 3.2208
L24.8496 3.2208
" />
<path d="M24.8496 3.2208
L24.9706 3.1604
" />
<path d="M24.9706 3.1604
L25.0311 3.0999
" />
<path d="M25.0311 3.0999
L25.0915 2.9789
" />
<path d="M25.0915 2.9789
L25.0915 1.9508
" />
<path d="M25.8778 3.0999
L25.9382 3.1604
" />
<path d="M25.9382 3.1604
L25.8778 3.2208
" />
<path d="M25.8778 3.2208
L25.8173 3.1604
" />
<path d="M25.8173 3.1604
L25.8778 3.0999
" />
<path d="M25.8778 3.0999
L25.8778 3.2208
" />
<path d="M25.6359 2.0113
L25.7568 1.9508
" />
<path d="M25.7568 1.9508
L26.0592 1.9508
" />
<path d="M26.0592 1.9508
L26.1801 2.0113
" />
<path d="M26.1801 2.0113
L26.2406 2.1323
" />
<path d="M26.2406 2.1323
L26.2406 2.2532
" />
<path d="M26.2406 2.2532
L26.1801 2.3742
" />
<path d="M26.1801 2.3742
L26.1197 2.4346
" />
<path d="M26.1197 2.4346
L25.9987 2.4951
" />
<path d="M25.9987 2.4951
L25.9382 2.5556
" />
<path d="M25.9382 2.5556
L25.8778 2.6765
" />
<path d="M25.8778 2.6765
L25.8778 2.7370
" />
</g><text x="37.9730" y="3.2766"
textLength="7.4190" font-size="1.6933" lengthAdjust="spacingAndGlyphs"
text-anchor="middle" opacity="0">AP3402</text>
<g class="stroked-text"><desc>AP3402</desc>
<path d="M34.6166 2.8580
L35.2213 2.8580
" />
<path d="M34.4956 3.2208
L34.9189 1.9508
" />
<path d="M34.9189 1.9508
L35.3423 3.2208
" />
<path d="M35.7656 3.2208
L35.7656 1.9508
" />
<path d="M35.7656 1.9508
L36.2494 1.9508
" />
<path d="M36.2494 1.9508
L36.3704 2.0113
" />
<path d="M36.3704 2.0113
L36.4309 2.0718
" />
<path d="M36.4309 2.0718
L36.4913 2.1927
" />
<path d="M36.4913 2.1927
L36.4913 2.3742
" />
<path d="M36.4913 2.3742
L36.4309 2.4951
" />
<path d="M36.4309 2.4951
L36.3704 2.5556
" />
<path d="M36.3704 2.5556
L36.2494 2.6161
" />
<path d="M36.2494 2.6161
L35.7656 2.6161
" />
<path d="M36.9147 1.9508
L37.7009 1.9508
" />
<path d="M37.7009 1.9508
L37.2775 2.4346
" />
<path d="M37.2775 2.4346
L37.4590 2.4346
" />
<path d="M37.4590 2.4346
L37.5799 2.4951
" />
<path d="M37.5799 2.4951
L37.6404 2.5556
" />
<path d="M37.6404 2.5556
L37.7009 2.6765
" />
<path d="M37.7009 2.6765
L37.7009 2.9789
" />
<path d="M37.7009 2.9789
L37.6404 3.0999
" />
<path d="M37.6404 3.0999
L37.5799 3.1604
" />
<path d="M37.5799 3.1604
L37.4590 3.2208
" />
<path d="M37.4590 3.2208
L37.0961 3.2208
" />
<path d="M37.0961 3.2208
L36.9752 3.1604
" />
<path d="M36.9752 3.1604
L36.9147 3.0999
" />
<path d="M38.7894 2.3742
L38.7894 3.2208
" />
<path d="M38.4870 1.8904
L38.1847 2.7975
" />
<path d="M38.1847 2.7975
L38.9708 2.7975
" />
<path d="M39.6965 1.9508
L39.8175 1.9508
" />
<path d="M39.8175 1.9508
L39.9384 2.0113
" />
<path d="M39.9384 2.0113
L39.9989 2.0718
" />
<path d="M39.9989 2.0718
L40.0594 2.1927
" />
<path d="M40.0594 2.1927
L40.1199 2.4346
" />
<path d="M40.1199 2.4346
L40.1199 2.7370
" />
<path d="M40.1199 2.7370
L40.0594 2.9789
" />
<path d="M40.0594 2.9789
L39.9989 3.0999
" />
<path d="M39.9989 3.0999
L39.9384 3.1604
" />
<path d="M39.9384 3.1604
L39.8175 3.2208
" />
<path d="M39.8175 3.2208
L39.6965 3.2208
" />
<path d="M39.6965 3.2208
L39.5756 3.1604
" />
<path d="M39.5756 3.1604
L39.5151 3.0999
" />
<path d="M39.5151 3.0999
L39.4546 2.9789
" />
<path d="M39.4546 2.9789
L39.3942 2.7370
" />
<path d="M39.3942 2.7370
L39.3942 2.4346
" />
<path d="M39.3942 2.4346
L39.4546 2.1927
" />
<path d="M39.4546 2.1927
L39.5151 2.0718
" />
<path d="M39.5151 2.0718
L39.5756 2.0113
" />
<path d="M39.5756 2.0113
L39.6965 1.9508
" />
<path d="M40.6037 2.0718
L40.6641 2.0113
" />
<path d="M40.6641 2.0113
L40.7851 1.9508
" />
<path d="M40.7851 1.9508
L41.0875 1.9508
" />
<path d="M41.0875 1.9508
L41.2084 2.0113
" />
<path d="M41.2084 2.0113
L41.2689 2.0718
" />
<path d="M41.2689 2.0718
L41.3294 2.1927
" />
<path d="M41.3294 2.1927
L41.3294 2.3137
" />
<path d="M41.3294 2.3137
L41.2689 2.4951
" />
<path d="M41.2689 2.4951
L40.5432 3.2208
" />
<path d="M40.5432 3.2208
L41.3294 3.2208
" />
</g></g> 
</svg>
