<?xml version="1.0" standalone="no"?>
 <!DOCTYPE svg PUBLIC "-//W3C//DTD SVG 1.1//EN" 
 "http://www.w3.org/Graphics/SVG/1.1/DTD/svg11.dtd"> 
<svg
  xmlns:svg="http://www.w3.org/2000/svg"
  xmlns="http://www.w3.org/2000/svg"
  xmlns:xlink="http://www.w3.org/1999/xlink"
  version="1.1"
  width="109.5502mm" height="19.2278mm" viewBox="0.0000 0.0000 109.5502 19.2278">
<title>SVG Image created as dio6970.svg date 2024/01/16 15:21:25 </title>
  <desc>Image generated by Eeschema-SVG </desc>
<g style="fill:#000000; fill-opacity:1.0000;stroke:#000000; stroke-opacity:1.0000;
stroke-linecap:round; stroke-linejoin:round;"
 transform="translate(0 0) scale(1 1)">
</g>
<g style="fill:#000000; fill-opacity:0.0; 
stroke:#000000; stroke-width:0.0000; stroke-opacity:1; 
stroke-linecap:round; stroke-linejoin:round;">
</g>
<g style="fill:#000000; fill-opacity:0.0; 
stroke:#000000; stroke-width:0.2540; stroke-opacity:1; 
stroke-linecap:round; stroke-linejoin:round;">
<rect x="47.155100" y="4.533900" width="15.240000" height="10.160000" rx="0.000000" />
</g>
<g style="fill:#000000; fill-opacity:0.0; 
stroke:#000000; stroke-width:0.1524; stroke-opacity:1; 
stroke-linecap:round; stroke-linejoin:round;">
<path d="M54.7751 14.6939
L54.7751 17.2339
" />
<g transform="rotate(-90.000000 54.7751 14.1859)">
<text x="54.7751" y="14.8209"
textLength="4.0737" font-size="1.6933" lengthAdjust="spacingAndGlyphs"
text-anchor="start" opacity="0">GND</text>
</g>
<g class="stroked-text"><desc>GND</desc>
<path d="M54.1451 13.1180
L54.0846 13.2390
" />
<path d="M54.0846 13.2390
L54.0846 13.4204
" />
<path d="M54.0846 13.4204
L54.1451 13.6018
" />
<path d="M54.1451 13.6018
L54.2661 13.7228
" />
<path d="M54.2661 13.7228
L54.3870 13.7833
" />
<path d="M54.3870 13.7833
L54.6289 13.8437
" />
<path d="M54.6289 13.8437
L54.8103 13.8437
" />
<path d="M54.8103 13.8437
L55.0522 13.7833
" />
<path d="M55.0522 13.7833
L55.1732 13.7228
" />
<path d="M55.1732 13.7228
L55.2942 13.6018
" />
<path d="M55.2942 13.6018
L55.3546 13.4204
" />
<path d="M55.3546 13.4204
L55.3546 13.2995
" />
<path d="M55.3546 13.2995
L55.2942 13.1180
" />
<path d="M55.2942 13.1180
L55.2337 13.0576
" />
<path d="M55.2337 13.0576
L54.8103 13.0576
" />
<path d="M54.8103 13.0576
L54.8103 13.2995
" />
<path d="M55.3546 12.5133
L54.0846 12.5133
" />
<path d="M54.0846 12.5133
L55.3546 11.7876
" />
<path d="M55.3546 11.7876
L54.0846 11.7876
" />
<path d="M55.3546 11.1828
L54.0846 11.1828
" />
<path d="M54.0846 11.1828
L54.0846 10.8804
" />
<path d="M54.0846 10.8804
L54.1451 10.6990
" />
<path d="M54.1451 10.6990
L54.2661 10.5780
" />
<path d="M54.2661 10.5780
L54.3870 10.5175
" />
<path d="M54.3870 10.5175
L54.6289 10.4571
" />
<path d="M54.6289 10.4571
L54.8103 10.4571
" />
<path d="M54.8103 10.4571
L55.0522 10.5175
" />
<path d="M55.0522 10.5175
L55.1732 10.5780
" />
<path d="M55.1732 10.5780
L55.2942 10.6990
" />
<path d="M55.2942 10.6990
L55.3546 10.8804
" />
<path d="M55.3546 10.8804
L55.3546 11.1828
" />
</g><g transform="rotate(-90.000000 54.5211 15.9639)">
<text x="54.5211" y="15.9639"
textLength="1.4127" font-size="1.6933" lengthAdjust="spacingAndGlyphs"
text-anchor="middle" opacity="0">1</text>
</g>
<g class="stroked-text"><desc>1</desc>
<path d="M54.3576 15.6009
L54.3576 16.3266
" />
<path d="M54.3576 15.9638
L53.0876 15.9638
" />
<path d="M53.0876 15.9638
L53.2691 16.0847
" />
<path d="M53.2691 16.0847
L53.3900 16.2057
" />
<path d="M53.3900 16.2057
L53.4505 16.3266
" />
</g><path d="M62.3951 9.6139
L64.9351 9.6139
" />
<text x="61.8871" y="10.2489"
textLength="2.8641" font-size="1.6933" lengthAdjust="spacingAndGlyphs"
text-anchor="end" opacity="0">SW</text>
<g class="stroked-text"><desc>SW</desc>
<path d="M59.3679 10.1330
L59.5493 10.1934
" />
<path d="M59.5493 10.1934
L59.8517 10.1934
" />
<path d="M59.8517 10.1934
L59.9726 10.1330
" />
<path d="M59.9726 10.1330
L60.0331 10.0725
" />
<path d="M60.0331 10.0725
L60.0936 9.9515
" />
<path d="M60.0936 9.9515
L60.0936 9.8306
" />
<path d="M60.0936 9.8306
L60.0331 9.7096
" />
<path d="M60.0331 9.7096
L59.9726 9.6491
" />
<path d="M59.9726 9.6491
L59.8517 9.5887
" />
<path d="M59.8517 9.5887
L59.6098 9.5282
" />
<path d="M59.6098 9.5282
L59.4888 9.4677
" />
<path d="M59.4888 9.4677
L59.4283 9.4072
" />
<path d="M59.4283 9.4072
L59.3679 9.2863
" />
<path d="M59.3679 9.2863
L59.3679 9.1653
" />
<path d="M59.3679 9.1653
L59.4283 9.0444
" />
<path d="M59.4283 9.0444
L59.4888 8.9839
" />
<path d="M59.4888 8.9839
L59.6098 8.9234
" />
<path d="M59.6098 8.9234
L59.9121 8.9234
" />
<path d="M59.9121 8.9234
L60.0936 8.9839
" />
<path d="M60.5169 8.9234
L60.8193 10.1934
" />
<path d="M60.8193 10.1934
L61.0612 9.2863
" />
<path d="M61.0612 9.2863
L61.3031 10.1934
" />
<path d="M61.3031 10.1934
L61.6055 8.9234
" />
</g><text x="63.6651" y="9.3599"
textLength="1.4127" font-size="1.6933" lengthAdjust="spacingAndGlyphs"
text-anchor="middle" opacity="0">2</text>
<g class="stroked-text"><desc>2</desc>
<path d="M63.3023 8.0474
L63.3627 7.9869
" />
<path d="M63.3627 7.9869
L63.4837 7.9264
" />
<path d="M63.4837 7.9264
L63.7861 7.9264
" />
<path d="M63.7861 7.9264
L63.9070 7.9869
" />
<path d="M63.9070 7.9869
L63.9675 8.0474
" />
<path d="M63.9675 8.0474
L64.0280 8.1683
" />
<path d="M64.0280 8.1683
L64.0280 8.2893
" />
<path d="M64.0280 8.2893
L63.9675 8.4707
" />
<path d="M63.9675 8.4707
L63.2418 9.1964
" />
<path d="M63.2418 9.1964
L64.0280 9.1964
" />
</g><path d="M47.1551 7.0739
L44.6151 7.0739
" />
<text x="47.6631" y="7.7089"
textLength="3.2271" font-size="1.6933" lengthAdjust="spacingAndGlyphs"
text-anchor="start" opacity="0">VIN</text>
<g class="stroked-text"><desc>VIN</desc>
<path d="M47.8842 6.3834
L48.3075 7.6534
" />
<path d="M48.3075 7.6534
L48.7309 6.3834
" />
<path d="M49.1542 7.6534
L49.1542 6.3834
" />
<path d="M49.7590 7.6534
L49.7590 6.3834
" />
<path d="M49.7590 6.3834
L50.4847 7.6534
" />
<path d="M50.4847 7.6534
L50.4847 6.3834
" />
</g><text x="45.8851" y="6.8199"
textLength="1.4127" font-size="1.6933" lengthAdjust="spacingAndGlyphs"
text-anchor="middle" opacity="0">3</text>
<g class="stroked-text"><desc>3</desc>
<path d="M45.4618 5.3864
L46.2480 5.3864
" />
<path d="M46.2480 5.3864
L45.8246 5.8702
" />
<path d="M45.8246 5.8702
L46.0061 5.8702
" />
<path d="M46.0061 5.8702
L46.1270 5.9307
" />
<path d="M46.1270 5.9307
L46.1875 5.9912
" />
<path d="M46.1875 5.9912
L46.2480 6.1121
" />
<path d="M46.2480 6.1121
L46.2480 6.4145
" />
<path d="M46.2480 6.4145
L46.1875 6.5355
" />
<path d="M46.1875 6.5355
L46.1270 6.5960
" />
<path d="M46.1270 6.5960
L46.0061 6.6564
" />
<path d="M46.0061 6.6564
L45.6432 6.6564
" />
<path d="M45.6432 6.6564
L45.5223 6.5960
" />
<path d="M45.5223 6.5960
L45.4618 6.5355
" />
</g><path d="M62.3951 12.1539
L64.9351 12.1539
" />
<text x="61.8871" y="12.7889"
textLength="2.5618" font-size="1.6933" lengthAdjust="spacingAndGlyphs"
text-anchor="end" opacity="0">FB</text>
<g class="stroked-text"><desc>FB</desc>
<path d="M60.1540 12.0682
L59.7306 12.0682
" />
<path d="M59.7306 12.7334
L59.7306 11.4634
" />
<path d="M59.7306 11.4634
L60.3354 11.4634
" />
<path d="M61.2426 12.0682
L61.4240 12.1287
" />
<path d="M61.4240 12.1287
L61.4845 12.1891
" />
<path d="M61.4845 12.1891
L61.5449 12.3101
" />
<path d="M61.5449 12.3101
L61.5449 12.4915
" />
<path d="M61.5449 12.4915
L61.4845 12.6125
" />
<path d="M61.4845 12.6125
L61.4240 12.6730
" />
<path d="M61.4240 12.6730
L61.3030 12.7334
" />
<path d="M61.3030 12.7334
L60.8192 12.7334
" />
<path d="M60.8192 12.7334
L60.8192 11.4634
" />
<path d="M60.8192 11.4634
L61.2426 11.4634
" />
<path d="M61.2426 11.4634
L61.3635 11.5239
" />
<path d="M61.3635 11.5239
L61.4240 11.5844
" />
<path d="M61.4240 11.5844
L61.4845 11.7053
" />
<path d="M61.4845 11.7053
L61.4845 11.8263
" />
<path d="M61.4845 11.8263
L61.4240 11.9472
" />
<path d="M61.4240 11.9472
L61.3635 12.0077
" />
<path d="M61.3635 12.0077
L61.2426 12.0682
" />
<path d="M61.2426 12.0682
L60.8192 12.0682
" />
</g><text x="63.6651" y="11.8999"
textLength="1.4127" font-size="1.6933" lengthAdjust="spacingAndGlyphs"
text-anchor="middle" opacity="0">4</text>
<g class="stroked-text"><desc>4</desc>
<path d="M63.9070 10.8898
L63.9070 11.7364
" />
<path d="M63.6046 10.4060
L63.3023 11.3131
" />
<path d="M63.3023 11.3131
L64.0884 11.3131
" />
</g><path d="M47.1551 12.1539
L44.6151 12.1539
" />
<text x="47.6631" y="12.7889"
textLength="2.6827" font-size="1.6933" lengthAdjust="spacingAndGlyphs"
text-anchor="start" opacity="0">EN</text>
<g class="stroked-text"><desc>EN</desc>
<path d="M48.0656 12.0682
L48.4890 12.0682
" />
<path d="M48.6704 12.7334
L48.0656 12.7334
" />
<path d="M48.0656 12.7334
L48.0656 11.4634
" />
<path d="M48.0656 11.4634
L48.6704 11.4634
" />
<path d="M49.2146 12.7334
L49.2146 11.4634
" />
<path d="M49.2146 11.4634
L49.9403 12.7334
" />
<path d="M49.9403 12.7334
L49.9403 11.4634
" />
</g><text x="45.8851" y="11.8999"
textLength="1.4127" font-size="1.6933" lengthAdjust="spacingAndGlyphs"
text-anchor="middle" opacity="0">5</text>
<g class="stroked-text"><desc>5</desc>
<path d="M46.1875 10.4664
L45.5827 10.4664
" />
<path d="M45.5827 10.4664
L45.5223 11.0712
" />
<path d="M45.5223 11.0712
L45.5827 11.0107
" />
<path d="M45.5827 11.0107
L45.7037 10.9502
" />
<path d="M45.7037 10.9502
L46.0061 10.9502
" />
<path d="M46.0061 10.9502
L46.1270 11.0107
" />
<path d="M46.1270 11.0107
L46.1875 11.0712
" />
<path d="M46.1875 11.0712
L46.2480 11.1921
" />
<path d="M46.2480 11.1921
L46.2480 11.4945
" />
<path d="M46.2480 11.4945
L46.1875 11.6155
" />
<path d="M46.1875 11.6155
L46.1270 11.6760
" />
<path d="M46.1270 11.6760
L46.0061 11.7364
" />
<path d="M46.0061 11.7364
L45.7037 11.7364
" />
<path d="M45.7037 11.7364
L45.5827 11.6760
" />
<path d="M45.5827 11.6760
L45.5223 11.6155
" />
</g><path d="M62.3951 7.0739
L64.9351 7.0739
" />
<text x="61.8871" y="7.7089"
textLength="2.6827" font-size="1.6933" lengthAdjust="spacingAndGlyphs"
text-anchor="end" opacity="0">BS</text>
<g class="stroked-text"><desc>BS</desc>
<path d="M60.0331 6.9882
L60.2145 7.0487
" />
<path d="M60.2145 7.0487
L60.2750 7.1091
" />
<path d="M60.2750 7.1091
L60.3354 7.2301
" />
<path d="M60.3354 7.2301
L60.3354 7.4115
" />
<path d="M60.3354 7.4115
L60.2750 7.5325
" />
<path d="M60.2750 7.5325
L60.2145 7.5930
" />
<path d="M60.2145 7.5930
L60.0935 7.6534
" />
<path d="M60.0935 7.6534
L59.6097 7.6534
" />
<path d="M59.6097 7.6534
L59.6097 6.3834
" />
<path d="M59.6097 6.3834
L60.0331 6.3834
" />
<path d="M60.0331 6.3834
L60.1540 6.4439
" />
<path d="M60.1540 6.4439
L60.2145 6.5044
" />
<path d="M60.2145 6.5044
L60.2750 6.6253
" />
<path d="M60.2750 6.6253
L60.2750 6.7463
" />
<path d="M60.2750 6.7463
L60.2145 6.8672
" />
<path d="M60.2145 6.8672
L60.1540 6.9277
" />
<path d="M60.1540 6.9277
L60.0331 6.9882
" />
<path d="M60.0331 6.9882
L59.6097 6.9882
" />
<path d="M60.8193 7.5930
L61.0007 7.6534
" />
<path d="M61.0007 7.6534
L61.3031 7.6534
" />
<path d="M61.3031 7.6534
L61.4240 7.5930
" />
<path d="M61.4240 7.5930
L61.4845 7.5325
" />
<path d="M61.4845 7.5325
L61.5450 7.4115
" />
<path d="M61.5450 7.4115
L61.5450 7.2906
" />
<path d="M61.5450 7.2906
L61.4845 7.1696
" />
<path d="M61.4845 7.1696
L61.4240 7.1091
" />
<path d="M61.4240 7.1091
L61.3031 7.0487
" />
<path d="M61.3031 7.0487
L61.0612 6.9882
" />
<path d="M61.0612 6.9882
L60.9402 6.9277
" />
<path d="M60.9402 6.9277
L60.8797 6.8672
" />
<path d="M60.8797 6.8672
L60.8193 6.7463
" />
<path d="M60.8193 6.7463
L60.8193 6.6253
" />
<path d="M60.8193 6.6253
L60.8797 6.5044
" />
<path d="M60.8797 6.5044
L60.9402 6.4439
" />
<path d="M60.9402 6.4439
L61.0612 6.3834
" />
<path d="M61.0612 6.3834
L61.3635 6.3834
" />
<path d="M61.3635 6.3834
L61.5450 6.4439
" />
</g><text x="63.6651" y="6.8199"
textLength="1.4127" font-size="1.6933" lengthAdjust="spacingAndGlyphs"
text-anchor="middle" opacity="0">6</text>
<g class="stroked-text"><desc>6</desc>
<path d="M63.9070 5.3864
L63.6651 5.3864
" />
<path d="M63.6651 5.3864
L63.5442 5.4469
" />
<path d="M63.5442 5.4469
L63.4837 5.5074
" />
<path d="M63.4837 5.5074
L63.3627 5.6888
" />
<path d="M63.3627 5.6888
L63.3023 5.9307
" />
<path d="M63.3023 5.9307
L63.3023 6.4145
" />
<path d="M63.3023 6.4145
L63.3627 6.5355
" />
<path d="M63.3627 6.5355
L63.4232 6.5960
" />
<path d="M63.4232 6.5960
L63.5442 6.6564
" />
<path d="M63.5442 6.6564
L63.7861 6.6564
" />
<path d="M63.7861 6.6564
L63.9070 6.5960
" />
<path d="M63.9070 6.5960
L63.9675 6.5355
" />
<path d="M63.9675 6.5355
L64.0280 6.4145
" />
<path d="M64.0280 6.4145
L64.0280 6.1121
" />
<path d="M64.0280 6.1121
L63.9675 5.9912
" />
<path d="M63.9675 5.9912
L63.9070 5.9307
" />
<path d="M63.9070 5.9307
L63.7861 5.8702
" />
<path d="M63.7861 5.8702
L63.5442 5.8702
" />
<path d="M63.5442 5.8702
L63.4232 5.9307
" />
<path d="M63.4232 5.9307
L63.3627 5.9912
" />
<path d="M63.3627 5.9912
L63.3023 6.1121
" />
</g></g>
<g style="fill:#000000; fill-opacity:0.0; 
stroke:#000000; stroke-width:0.1588; stroke-opacity:1; 
stroke-linecap:round; stroke-linejoin:round;">
<text x="48.4758" y="3.8989"
textLength="2.6415" font-size="1.6933" lengthAdjust="spacingAndGlyphs"
text-anchor="middle" opacity="0">U?</text>
<g class="stroked-text"><desc>U?</desc>
<path d="M47.5686 2.5731
L47.5686 3.6012
" />
<path d="M47.5686 3.6012
L47.6291 3.7222
" />
<path d="M47.6291 3.7222
L47.6896 3.7827
" />
<path d="M47.6896 3.7827
L47.8105 3.8431
" />
<path d="M47.8105 3.8431
L48.0524 3.8431
" />
<path d="M48.0524 3.8431
L48.1734 3.7827
" />
<path d="M48.1734 3.7827
L48.2339 3.7222
" />
<path d="M48.2339 3.7222
L48.2943 3.6012
" />
<path d="M48.2943 3.6012
L48.2943 2.5731
" />
<path d="M49.0806 3.7222
L49.1410 3.7827
" />
<path d="M49.1410 3.7827
L49.0806 3.8431
" />
<path d="M49.0806 3.8431
L49.0201 3.7827
" />
<path d="M49.0201 3.7827
L49.0806 3.7222
" />
<path d="M49.0806 3.7222
L49.0806 3.8431
" />
<path d="M48.8387 2.6336
L48.9596 2.5731
" />
<path d="M48.9596 2.5731
L49.2620 2.5731
" />
<path d="M49.2620 2.5731
L49.3829 2.6336
" />
<path d="M49.3829 2.6336
L49.4434 2.7546
" />
<path d="M49.4434 2.7546
L49.4434 2.8755
" />
<path d="M49.4434 2.8755
L49.3829 2.9965
" />
<path d="M49.3829 2.9965
L49.3225 3.0569
" />
<path d="M49.3225 3.0569
L49.2015 3.1174
" />
<path d="M49.2015 3.1174
L49.1410 3.1779
" />
<path d="M49.1410 3.1779
L49.0806 3.2988
" />
<path d="M49.0806 3.2988
L49.0806 3.3593
" />
</g><text x="58.9079" y="3.8989"
textLength="8.2657" font-size="1.6933" lengthAdjust="spacingAndGlyphs"
text-anchor="middle" opacity="0">DIO6970</text>
<g class="stroked-text"><desc>DIO6970</desc>
<path d="M55.1886 3.8431
L55.1886 2.5731
" />
<path d="M55.1886 2.5731
L55.4910 2.5731
" />
<path d="M55.4910 2.5731
L55.6724 2.6336
" />
<path d="M55.6724 2.6336
L55.7934 2.7546
" />
<path d="M55.7934 2.7546
L55.8539 2.8755
" />
<path d="M55.8539 2.8755
L55.9143 3.1174
" />
<path d="M55.9143 3.1174
L55.9143 3.2988
" />
<path d="M55.9143 3.2988
L55.8539 3.5407
" />
<path d="M55.8539 3.5407
L55.7934 3.6617
" />
<path d="M55.7934 3.6617
L55.6724 3.7827
" />
<path d="M55.6724 3.7827
L55.4910 3.8431
" />
<path d="M55.4910 3.8431
L55.1886 3.8431
" />
<path d="M56.4586 3.8431
L56.4586 2.5731
" />
<path d="M57.3053 2.5731
L57.5472 2.5731
" />
<path d="M57.5472 2.5731
L57.6682 2.6336
" />
<path d="M57.6682 2.6336
L57.7891 2.7546
" />
<path d="M57.7891 2.7546
L57.8496 2.9965
" />
<path d="M57.8496 2.9965
L57.8496 3.4198
" />
<path d="M57.8496 3.4198
L57.7891 3.6617
" />
<path d="M57.7891 3.6617
L57.6682 3.7827
" />
<path d="M57.6682 3.7827
L57.5472 3.8431
" />
<path d="M57.5472 3.8431
L57.3053 3.8431
" />
<path d="M57.3053 3.8431
L57.1844 3.7827
" />
<path d="M57.1844 3.7827
L57.0634 3.6617
" />
<path d="M57.0634 3.6617
L57.0030 3.4198
" />
<path d="M57.0030 3.4198
L57.0030 2.9965
" />
<path d="M57.0030 2.9965
L57.0634 2.7546
" />
<path d="M57.0634 2.7546
L57.1844 2.6336
" />
<path d="M57.1844 2.6336
L57.3053 2.5731
" />
<path d="M58.9382 2.5731
L58.6963 2.5731
" />
<path d="M58.6963 2.5731
L58.5754 2.6336
" />
<path d="M58.5754 2.6336
L58.5149 2.6941
" />
<path d="M58.5149 2.6941
L58.3939 2.8755
" />
<path d="M58.3939 2.8755
L58.3335 3.1174
" />
<path d="M58.3335 3.1174
L58.3335 3.6012
" />
<path d="M58.3335 3.6012
L58.3939 3.7222
" />
<path d="M58.3939 3.7222
L58.4544 3.7827
" />
<path d="M58.4544 3.7827
L58.5754 3.8431
" />
<path d="M58.5754 3.8431
L58.8173 3.8431
" />
<path d="M58.8173 3.8431
L58.9382 3.7827
" />
<path d="M58.9382 3.7827
L58.9987 3.7222
" />
<path d="M58.9987 3.7222
L59.0592 3.6012
" />
<path d="M59.0592 3.6012
L59.0592 3.2988
" />
<path d="M59.0592 3.2988
L58.9987 3.1779
" />
<path d="M58.9987 3.1779
L58.9382 3.1174
" />
<path d="M58.9382 3.1174
L58.8173 3.0569
" />
<path d="M58.8173 3.0569
L58.5754 3.0569
" />
<path d="M58.5754 3.0569
L58.4544 3.1174
" />
<path d="M58.4544 3.1174
L58.3939 3.1779
" />
<path d="M58.3939 3.1779
L58.3335 3.2988
" />
<path d="M59.6639 3.8431
L59.9058 3.8431
" />
<path d="M59.9058 3.8431
L60.0268 3.7827
" />
<path d="M60.0268 3.7827
L60.0872 3.7222
" />
<path d="M60.0872 3.7222
L60.2082 3.5407
" />
<path d="M60.2082 3.5407
L60.2687 3.2988
" />
<path d="M60.2687 3.2988
L60.2687 2.8150
" />
<path d="M60.2687 2.8150
L60.2082 2.6941
" />
<path d="M60.2082 2.6941
L60.1477 2.6336
" />
<path d="M60.1477 2.6336
L60.0268 2.5731
" />
<path d="M60.0268 2.5731
L59.7849 2.5731
" />
<path d="M59.7849 2.5731
L59.6639 2.6336
" />
<path d="M59.6639 2.6336
L59.6034 2.6941
" />
<path d="M59.6034 2.6941
L59.5430 2.8150
" />
<path d="M59.5430 2.8150
L59.5430 3.1174
" />
<path d="M59.5430 3.1174
L59.6034 3.2384
" />
<path d="M59.6034 3.2384
L59.6639 3.2988
" />
<path d="M59.6639 3.2988
L59.7849 3.3593
" />
<path d="M59.7849 3.3593
L60.0268 3.3593
" />
<path d="M60.0268 3.3593
L60.1477 3.2988
" />
<path d="M60.1477 3.2988
L60.2082 3.2384
" />
<path d="M60.2082 3.2384
L60.2687 3.1174
" />
<path d="M60.6920 2.5731
L61.5386 2.5731
" />
<path d="M61.5386 2.5731
L60.9944 3.8431
" />
<path d="M62.2643 2.5731
L62.3853 2.5731
" />
<path d="M62.3853 2.5731
L62.5062 2.6336
" />
<path d="M62.5062 2.6336
L62.5667 2.6941
" />
<path d="M62.5667 2.6941
L62.6272 2.8150
" />
<path d="M62.6272 2.8150
L62.6877 3.0569
" />
<path d="M62.6877 3.0569
L62.6877 3.3593
" />
<path d="M62.6877 3.3593
L62.6272 3.6012
" />
<path d="M62.6272 3.6012
L62.5667 3.7222
" />
<path d="M62.5667 3.7222
L62.5062 3.7827
" />
<path d="M62.5062 3.7827
L62.3853 3.8431
" />
<path d="M62.3853 3.8431
L62.2643 3.8431
" />
<path d="M62.2643 3.8431
L62.1434 3.7827
" />
<path d="M62.1434 3.7827
L62.0829 3.7222
" />
<path d="M62.0829 3.7222
L62.0224 3.6012
" />
<path d="M62.0224 3.6012
L61.9620 3.3593
" />
<path d="M61.9620 3.3593
L61.9620 3.0569
" />
<path d="M61.9620 3.0569
L62.0224 2.8150
" />
<path d="M62.0224 2.8150
L62.0829 2.6941
" />
<path d="M62.0829 2.6941
L62.1434 2.6336
" />
<path d="M62.1434 2.6336
L62.2643 2.5731
" />
</g></g> 
</svg>
