<?xml version="1.0" standalone="no"?>
 <!DOCTYPE svg PUBLIC "-//W3C//DTD SVG 1.1//EN" 
 "http://www.w3.org/Graphics/SVG/1.1/DTD/svg11.dtd"> 
<svg
  xmlns:svg="http://www.w3.org/2000/svg"
  xmlns="http://www.w3.org/2000/svg"
  xmlns:xlink="http://www.w3.org/1999/xlink"
  version="1.1"
  width="136.6774mm" height="36.5760mm" viewBox="0.0000 0.0000 136.6774 36.5760">
<title>SVG Image created as isl8117fvez.svg date 2024/01/16 15:21:25 </title>
  <desc>Image generated by Eeschema-SVG </desc>
<g style="fill:#000000; fill-opacity:1.0000;stroke:#000000; stroke-opacity:1.0000;
stroke-linecap:round; stroke-linejoin:round;"
 transform="translate(0 0) scale(1 1)">
</g>
<g style="fill:#000000; fill-opacity:0.0; 
stroke:#000000; stroke-width:0.0000; stroke-opacity:1; 
stroke-linecap:round; stroke-linejoin:round;">
</g>
<g style="fill:#000000; fill-opacity:0.0; 
stroke:#000000; stroke-width:0.2540; stroke-opacity:1; 
stroke-linecap:round; stroke-linejoin:round;">
<rect x="55.638700" y="5.588000" width="25.400000" height="25.400000" rx="0.000000" />
</g>
<g style="fill:#000000; fill-opacity:0.0; 
stroke:#000000; stroke-width:0.1524; stroke-opacity:1; 
stroke-linecap:round; stroke-linejoin:round;">
<path d="M63.2587 30.9880
L63.2587 33.5280
" />
<g transform="rotate(-90.000000 63.2587 30.4800)">
<text x="63.2587" y="31.1150"
textLength="7.7022" font-size="1.6933" lengthAdjust="spacingAndGlyphs"
text-anchor="start" opacity="0">EXTBIAS</text>
</g>
<g class="stroked-text"><desc>EXTBIAS</desc>
<path d="M63.1730 30.0774
L63.1730 29.6540
" />
<path d="M63.8382 29.4726
L63.8382 30.0774
" />
<path d="M63.8382 30.0774
L62.5682 30.0774
" />
<path d="M62.5682 30.0774
L62.5682 29.4726
" />
<path d="M62.5682 29.0493
L63.8382 28.2027
" />
<path d="M62.5682 28.2027
L63.8382 29.0493
" />
<path d="M62.5682 27.9003
L62.5682 27.1746
" />
<path d="M63.8382 27.5374
L62.5682 27.5374
" />
<path d="M63.1730 26.3279
L63.2335 26.1465
" />
<path d="M63.2335 26.1465
L63.2939 26.0860
" />
<path d="M63.2939 26.0860
L63.4149 26.0256
" />
<path d="M63.4149 26.0256
L63.5963 26.0256
" />
<path d="M63.5963 26.0256
L63.7173 26.0860
" />
<path d="M63.7173 26.0860
L63.7778 26.1465
" />
<path d="M63.7778 26.1465
L63.8382 26.2675
" />
<path d="M63.8382 26.2675
L63.8382 26.7513
" />
<path d="M63.8382 26.7513
L62.5682 26.7513
" />
<path d="M62.5682 26.7513
L62.5682 26.3279
" />
<path d="M62.5682 26.3279
L62.6287 26.2070
" />
<path d="M62.6287 26.2070
L62.6892 26.1465
" />
<path d="M62.6892 26.1465
L62.8101 26.0860
" />
<path d="M62.8101 26.0860
L62.9311 26.0860
" />
<path d="M62.9311 26.0860
L63.0520 26.1465
" />
<path d="M63.0520 26.1465
L63.1125 26.2070
" />
<path d="M63.1125 26.2070
L63.1730 26.3279
" />
<path d="M63.1730 26.3279
L63.1730 26.7513
" />
<path d="M63.8382 25.4813
L62.5682 25.4813
" />
<path d="M63.4754 24.9369
L63.4754 24.3322
" />
<path d="M63.8382 25.0579
L62.5682 24.6346
" />
<path d="M62.5682 24.6346
L63.8382 24.2112
" />
<path d="M63.7778 23.8483
L63.8382 23.6669
" />
<path d="M63.8382 23.6669
L63.8382 23.3645
" />
<path d="M63.8382 23.3645
L63.7778 23.2436
" />
<path d="M63.7778 23.2436
L63.7173 23.1831
" />
<path d="M63.7173 23.1831
L63.5963 23.1226
" />
<path d="M63.5963 23.1226
L63.4754 23.1226
" />
<path d="M63.4754 23.1226
L63.3544 23.1831
" />
<path d="M63.3544 23.1831
L63.2939 23.2436
" />
<path d="M63.2939 23.2436
L63.2335 23.3645
" />
<path d="M63.2335 23.3645
L63.1730 23.6064
" />
<path d="M63.1730 23.6064
L63.1125 23.7274
" />
<path d="M63.1125 23.7274
L63.0520 23.7879
" />
<path d="M63.0520 23.7879
L62.9311 23.8483
" />
<path d="M62.9311 23.8483
L62.8101 23.8483
" />
<path d="M62.8101 23.8483
L62.6892 23.7879
" />
<path d="M62.6892 23.7879
L62.6287 23.7274
" />
<path d="M62.6287 23.7274
L62.5682 23.6064
" />
<path d="M62.5682 23.6064
L62.5682 23.3041
" />
<path d="M62.5682 23.3041
L62.6287 23.1226
" />
</g><g transform="rotate(-90.000000 63.0047 32.2580)">
<text x="63.0047" y="32.2580"
textLength="1.4127" font-size="1.6933" lengthAdjust="spacingAndGlyphs"
text-anchor="middle" opacity="0">1</text>
</g>
<g class="stroked-text"><desc>1</desc>
<path d="M62.8412 31.8950
L62.8412 32.6207
" />
<path d="M62.8412 32.2579
L61.5712 32.2579
" />
<path d="M61.5712 32.2579
L61.7527 32.3788
" />
<path d="M61.7527 32.3788
L61.8736 32.4998
" />
<path d="M61.8736 32.4998
L61.9341 32.6207
" />
</g><path d="M81.0387 20.8280
L83.5787 20.8280
" />
<text x="80.5307" y="21.4630"
textLength="10.8470" font-size="1.6933" lengthAdjust="spacingAndGlyphs"
text-anchor="end" opacity="0">LGATE/OCS</text>
<g class="stroked-text"><desc>LGATE/OCS</desc>
<path d="M70.6938 21.4075
L70.0890 21.4075
" />
<path d="M70.0890 21.4075
L70.0890 20.1375
" />
<path d="M71.7824 20.1980
L71.6614 20.1375
" />
<path d="M71.6614 20.1375
L71.4800 20.1375
" />
<path d="M71.4800 20.1375
L71.2986 20.1980
" />
<path d="M71.2986 20.1980
L71.1776 20.3190
" />
<path d="M71.1776 20.3190
L71.1171 20.4399
" />
<path d="M71.1171 20.4399
L71.0567 20.6818
" />
<path d="M71.0567 20.6818
L71.0567 20.8632
" />
<path d="M71.0567 20.8632
L71.1171 21.1051
" />
<path d="M71.1171 21.1051
L71.1776 21.2261
" />
<path d="M71.1776 21.2261
L71.2986 21.3471
" />
<path d="M71.2986 21.3471
L71.4800 21.4075
" />
<path d="M71.4800 21.4075
L71.6009 21.4075
" />
<path d="M71.6009 21.4075
L71.7824 21.3471
" />
<path d="M71.7824 21.3471
L71.8428 21.2866
" />
<path d="M71.8428 21.2866
L71.8428 20.8632
" />
<path d="M71.8428 20.8632
L71.6009 20.8632
" />
<path d="M72.3267 21.0447
L72.9314 21.0447
" />
<path d="M72.2057 21.4075
L72.6290 20.1375
" />
<path d="M72.6290 20.1375
L73.0524 21.4075
" />
<path d="M73.2943 20.1375
L74.0200 20.1375
" />
<path d="M73.6572 21.4075
L73.6572 20.1375
" />
<path d="M74.4433 20.7423
L74.8667 20.7423
" />
<path d="M75.0481 21.4075
L74.4433 21.4075
" />
<path d="M74.4433 21.4075
L74.4433 20.1375
" />
<path d="M74.4433 20.1375
L75.0481 20.1375
" />
<path d="M76.4995 20.0771
L75.4109 21.7099
" />
<path d="M77.1647 20.1375
L77.4066 20.1375
" />
<path d="M77.4066 20.1375
L77.5276 20.1980
" />
<path d="M77.5276 20.1980
L77.6485 20.3190
" />
<path d="M77.6485 20.3190
L77.7090 20.5609
" />
<path d="M77.7090 20.5609
L77.7090 20.9842
" />
<path d="M77.7090 20.9842
L77.6485 21.2261
" />
<path d="M77.6485 21.2261
L77.5276 21.3471
" />
<path d="M77.5276 21.3471
L77.4066 21.4075
" />
<path d="M77.4066 21.4075
L77.1647 21.4075
" />
<path d="M77.1647 21.4075
L77.0438 21.3471
" />
<path d="M77.0438 21.3471
L76.9228 21.2261
" />
<path d="M76.9228 21.2261
L76.8624 20.9842
" />
<path d="M76.8624 20.9842
L76.8624 20.5609
" />
<path d="M76.8624 20.5609
L76.9228 20.3190
" />
<path d="M76.9228 20.3190
L77.0438 20.1980
" />
<path d="M77.0438 20.1980
L77.1647 20.1375
" />
<path d="M78.9790 21.2866
L78.9186 21.3471
" />
<path d="M78.9186 21.3471
L78.7371 21.4075
" />
<path d="M78.7371 21.4075
L78.6162 21.4075
" />
<path d="M78.6162 21.4075
L78.4348 21.3471
" />
<path d="M78.4348 21.3471
L78.3138 21.2261
" />
<path d="M78.3138 21.2261
L78.2533 21.1051
" />
<path d="M78.2533 21.1051
L78.1929 20.8632
" />
<path d="M78.1929 20.8632
L78.1929 20.6818
" />
<path d="M78.1929 20.6818
L78.2533 20.4399
" />
<path d="M78.2533 20.4399
L78.3138 20.3190
" />
<path d="M78.3138 20.3190
L78.4348 20.1980
" />
<path d="M78.4348 20.1980
L78.6162 20.1375
" />
<path d="M78.6162 20.1375
L78.7371 20.1375
" />
<path d="M78.7371 20.1375
L78.9186 20.1980
" />
<path d="M78.9186 20.1980
L78.9790 20.2585
" />
<path d="M79.4629 21.3471
L79.6443 21.4075
" />
<path d="M79.6443 21.4075
L79.9467 21.4075
" />
<path d="M79.9467 21.4075
L80.0676 21.3471
" />
<path d="M80.0676 21.3471
L80.1281 21.2866
" />
<path d="M80.1281 21.2866
L80.1886 21.1656
" />
<path d="M80.1886 21.1656
L80.1886 21.0447
" />
<path d="M80.1886 21.0447
L80.1281 20.9237
" />
<path d="M80.1281 20.9237
L80.0676 20.8632
" />
<path d="M80.0676 20.8632
L79.9467 20.8028
" />
<path d="M79.9467 20.8028
L79.7048 20.7423
" />
<path d="M79.7048 20.7423
L79.5838 20.6818
" />
<path d="M79.5838 20.6818
L79.5233 20.6213
" />
<path d="M79.5233 20.6213
L79.4629 20.5004
" />
<path d="M79.4629 20.5004
L79.4629 20.3794
" />
<path d="M79.4629 20.3794
L79.5233 20.2585
" />
<path d="M79.5233 20.2585
L79.5838 20.1980
" />
<path d="M79.5838 20.1980
L79.7048 20.1375
" />
<path d="M79.7048 20.1375
L80.0071 20.1375
" />
<path d="M80.0071 20.1375
L80.1886 20.1980
" />
</g><text x="82.3087" y="20.5740"
textLength="2.6222" font-size="1.6933" lengthAdjust="spacingAndGlyphs"
text-anchor="middle" opacity="0">10</text>
<g class="stroked-text"><desc>10</desc>
<path d="M82.0668 20.4105
L81.3411 20.4105
" />
<path d="M81.7039 20.4105
L81.7039 19.1405
" />
<path d="M81.7039 19.1405
L81.5830 19.3220
" />
<path d="M81.5830 19.3220
L81.4620 19.4429
" />
<path d="M81.4620 19.4429
L81.3411 19.5034
" />
<path d="M82.8529 19.1405
L82.9739 19.1405
" />
<path d="M82.9739 19.1405
L83.0948 19.2010
" />
<path d="M83.0948 19.2010
L83.1553 19.2615
" />
<path d="M83.1553 19.2615
L83.2158 19.3824
" />
<path d="M83.2158 19.3824
L83.2763 19.6243
" />
<path d="M83.2763 19.6243
L83.2763 19.9267
" />
<path d="M83.2763 19.9267
L83.2158 20.1686
" />
<path d="M83.2158 20.1686
L83.1553 20.2896
" />
<path d="M83.1553 20.2896
L83.0948 20.3501
" />
<path d="M83.0948 20.3501
L82.9739 20.4105
" />
<path d="M82.9739 20.4105
L82.8529 20.4105
" />
<path d="M82.8529 20.4105
L82.7320 20.3501
" />
<path d="M82.7320 20.3501
L82.6715 20.2896
" />
<path d="M82.6715 20.2896
L82.6110 20.1686
" />
<path d="M82.6110 20.1686
L82.5506 19.9267
" />
<path d="M82.5506 19.9267
L82.5506 19.6243
" />
<path d="M82.5506 19.6243
L82.6110 19.3824
" />
<path d="M82.6110 19.3824
L82.6715 19.2615
" />
<path d="M82.6715 19.2615
L82.7320 19.2010
" />
<path d="M82.7320 19.2010
L82.8529 19.1405
" />
</g><path d="M68.3387 5.5880
L68.3387 3.0480
" />
<g transform="rotate(-90.000000 68.3387 6.0960)">
<text x="68.3387" y="6.7310"
textLength="6.1299" font-size="1.6933" lengthAdjust="spacingAndGlyphs"
text-anchor="end" opacity="0">VCC5V</text>
</g>
<g class="stroked-text"><desc>VCC5V</desc>
<path d="M67.6482 12.0019
L68.9182 11.5786
" />
<path d="M68.9182 11.5786
L67.6482 11.1552
" />
<path d="M68.7973 10.0062
L68.8578 10.0666
" />
<path d="M68.8578 10.0666
L68.9182 10.2481
" />
<path d="M68.9182 10.2481
L68.9182 10.3690
" />
<path d="M68.9182 10.3690
L68.8578 10.5504
" />
<path d="M68.8578 10.5504
L68.7368 10.6714
" />
<path d="M68.7368 10.6714
L68.6158 10.7319
" />
<path d="M68.6158 10.7319
L68.3739 10.7923
" />
<path d="M68.3739 10.7923
L68.1925 10.7923
" />
<path d="M68.1925 10.7923
L67.9506 10.7319
" />
<path d="M67.9506 10.7319
L67.8297 10.6714
" />
<path d="M67.8297 10.6714
L67.7087 10.5504
" />
<path d="M67.7087 10.5504
L67.6482 10.3690
" />
<path d="M67.6482 10.3690
L67.6482 10.2481
" />
<path d="M67.6482 10.2481
L67.7087 10.0666
" />
<path d="M67.7087 10.0666
L67.7692 10.0062
" />
<path d="M68.7973 8.7362
L68.8578 8.7966
" />
<path d="M68.8578 8.7966
L68.9182 8.9781
" />
<path d="M68.9182 8.9781
L68.9182 9.0990
" />
<path d="M68.9182 9.0990
L68.8578 9.2804
" />
<path d="M68.8578 9.2804
L68.7368 9.4014
" />
<path d="M68.7368 9.4014
L68.6158 9.4619
" />
<path d="M68.6158 9.4619
L68.3739 9.5223
" />
<path d="M68.3739 9.5223
L68.1925 9.5223
" />
<path d="M68.1925 9.5223
L67.9506 9.4619
" />
<path d="M67.9506 9.4619
L67.8297 9.4014
" />
<path d="M67.8297 9.4014
L67.7087 9.2804
" />
<path d="M67.7087 9.2804
L67.6482 9.0990
" />
<path d="M67.6482 9.0990
L67.6482 8.9781
" />
<path d="M67.6482 8.9781
L67.7087 8.7966
" />
<path d="M67.7087 8.7966
L67.7692 8.7362
" />
<path d="M67.6482 7.5871
L67.6482 8.1919
" />
<path d="M67.6482 8.1919
L68.2530 8.2523
" />
<path d="M68.2530 8.2523
L68.1925 8.1919
" />
<path d="M68.1925 8.1919
L68.1320 8.0709
" />
<path d="M68.1320 8.0709
L68.1320 7.7685
" />
<path d="M68.1320 7.7685
L68.1925 7.6476
" />
<path d="M68.1925 7.6476
L68.2530 7.5871
" />
<path d="M68.2530 7.5871
L68.3739 7.5266
" />
<path d="M68.3739 7.5266
L68.6763 7.5266
" />
<path d="M68.6763 7.5266
L68.7973 7.5871
" />
<path d="M68.7973 7.5871
L68.8578 7.6476
" />
<path d="M68.8578 7.6476
L68.9182 7.7685
" />
<path d="M68.9182 7.7685
L68.9182 8.0709
" />
<path d="M68.9182 8.0709
L68.8578 8.1919
" />
<path d="M68.8578 8.1919
L68.7973 8.2523
" />
<path d="M67.6482 7.1638
L68.9182 6.7405
" />
<path d="M68.9182 6.7405
L67.6482 6.3171
" />
</g><g transform="rotate(-90.000000 68.0847 4.3180)">
<text x="68.0847" y="4.3180"
textLength="2.6222" font-size="1.6933" lengthAdjust="spacingAndGlyphs"
text-anchor="middle" opacity="0">11</text>
</g>
<g class="stroked-text"><desc>11</desc>
<path d="M67.9212 4.5598
L67.9212 5.2855
" />
<path d="M67.9212 4.9227
L66.6512 4.9227
" />
<path d="M66.6512 4.9227
L66.8327 5.0436
" />
<path d="M66.8327 5.0436
L66.9536 5.1646
" />
<path d="M66.9536 5.1646
L67.0141 5.2855
" />
<path d="M67.9212 3.3503
L67.9212 4.0760
" />
<path d="M67.9212 3.7132
L66.6512 3.7132
" />
<path d="M66.6512 3.7132
L66.8327 3.8341
" />
<path d="M66.8327 3.8341
L66.9536 3.9551
" />
<path d="M66.9536 3.9551
L67.0141 4.0760
" />
</g><path d="M81.0387 18.2880
L83.5787 18.2880
" />
<text x="80.5307" y="18.9230"
textLength="4.4970" font-size="1.6933" lengthAdjust="spacingAndGlyphs"
text-anchor="end" opacity="0">ISEN</text>
<g class="stroked-text"><desc>ISEN</desc>
<path d="M76.4390 18.8675
L76.4390 17.5975
" />
<path d="M76.9834 18.8071
L77.1648 18.8675
" />
<path d="M77.1648 18.8675
L77.4672 18.8675
" />
<path d="M77.4672 18.8675
L77.5881 18.8071
" />
<path d="M77.5881 18.8071
L77.6486 18.7466
" />
<path d="M77.6486 18.7466
L77.7091 18.6256
" />
<path d="M77.7091 18.6256
L77.7091 18.5047
" />
<path d="M77.7091 18.5047
L77.6486 18.3837
" />
<path d="M77.6486 18.3837
L77.5881 18.3232
" />
<path d="M77.5881 18.3232
L77.4672 18.2628
" />
<path d="M77.4672 18.2628
L77.2253 18.2023
" />
<path d="M77.2253 18.2023
L77.1043 18.1418
" />
<path d="M77.1043 18.1418
L77.0438 18.0813
" />
<path d="M77.0438 18.0813
L76.9834 17.9604
" />
<path d="M76.9834 17.9604
L76.9834 17.8394
" />
<path d="M76.9834 17.8394
L77.0438 17.7185
" />
<path d="M77.0438 17.7185
L77.1043 17.6580
" />
<path d="M77.1043 17.6580
L77.2253 17.5975
" />
<path d="M77.2253 17.5975
L77.5276 17.5975
" />
<path d="M77.5276 17.5975
L77.7091 17.6580
" />
<path d="M78.2533 18.2023
L78.6767 18.2023
" />
<path d="M78.8581 18.8675
L78.2533 18.8675
" />
<path d="M78.2533 18.8675
L78.2533 17.5975
" />
<path d="M78.2533 17.5975
L78.8581 17.5975
" />
<path d="M79.4023 18.8675
L79.4023 17.5975
" />
<path d="M79.4023 17.5975
L80.1280 18.8675
" />
<path d="M80.1280 18.8675
L80.1280 17.5975
" />
</g><text x="82.3087" y="18.0340"
textLength="2.6222" font-size="1.6933" lengthAdjust="spacingAndGlyphs"
text-anchor="middle" opacity="0">12</text>
<g class="stroked-text"><desc>12</desc>
<path d="M82.0668 17.8705
L81.3411 17.8705
" />
<path d="M81.7039 17.8705
L81.7039 16.6005
" />
<path d="M81.7039 16.6005
L81.5830 16.7820
" />
<path d="M81.5830 16.7820
L81.4620 16.9029
" />
<path d="M81.4620 16.9029
L81.3411 16.9634
" />
<path d="M82.5506 16.7215
L82.6110 16.6610
" />
<path d="M82.6110 16.6610
L82.7320 16.6005
" />
<path d="M82.7320 16.6005
L83.0344 16.6005
" />
<path d="M83.0344 16.6005
L83.1553 16.6610
" />
<path d="M83.1553 16.6610
L83.2158 16.7215
" />
<path d="M83.2158 16.7215
L83.2763 16.8424
" />
<path d="M83.2763 16.8424
L83.2763 16.9634
" />
<path d="M83.2763 16.9634
L83.2158 17.1448
" />
<path d="M83.2158 17.1448
L82.4901 17.8705
" />
<path d="M82.4901 17.8705
L83.2763 17.8705
" />
</g><path d="M81.0387 15.7480
L83.5787 15.7480
" />
<text x="80.5307" y="16.3830"
textLength="6.2508" font-size="1.6933" lengthAdjust="spacingAndGlyphs"
text-anchor="end" opacity="0">PHASE</text>
<g class="stroked-text"><desc>PHASE</desc>
<path d="M74.6852 16.3275
L74.6852 15.0575
" />
<path d="M74.6852 15.0575
L75.1690 15.0575
" />
<path d="M75.1690 15.0575
L75.2900 15.1180
" />
<path d="M75.2900 15.1180
L75.3505 15.1785
" />
<path d="M75.3505 15.1785
L75.4109 15.2994
" />
<path d="M75.4109 15.2994
L75.4109 15.4809
" />
<path d="M75.4109 15.4809
L75.3505 15.6018
" />
<path d="M75.3505 15.6018
L75.2900 15.6623
" />
<path d="M75.2900 15.6623
L75.1690 15.7228
" />
<path d="M75.1690 15.7228
L74.6852 15.7228
" />
<path d="M75.9552 16.3275
L75.9552 15.0575
" />
<path d="M75.9552 15.6623
L76.6809 15.6623
" />
<path d="M76.6809 16.3275
L76.6809 15.0575
" />
<path d="M77.2253 15.9647
L77.8300 15.9647
" />
<path d="M77.1043 16.3275
L77.5276 15.0575
" />
<path d="M77.5276 15.0575
L77.9510 16.3275
" />
<path d="M78.3139 16.2671
L78.4953 16.3275
" />
<path d="M78.4953 16.3275
L78.7977 16.3275
" />
<path d="M78.7977 16.3275
L78.9186 16.2671
" />
<path d="M78.9186 16.2671
L78.9791 16.2066
" />
<path d="M78.9791 16.2066
L79.0396 16.0856
" />
<path d="M79.0396 16.0856
L79.0396 15.9647
" />
<path d="M79.0396 15.9647
L78.9791 15.8437
" />
<path d="M78.9791 15.8437
L78.9186 15.7832
" />
<path d="M78.9186 15.7832
L78.7977 15.7228
" />
<path d="M78.7977 15.7228
L78.5558 15.6623
" />
<path d="M78.5558 15.6623
L78.4348 15.6018
" />
<path d="M78.4348 15.6018
L78.3743 15.5413
" />
<path d="M78.3743 15.5413
L78.3139 15.4204
" />
<path d="M78.3139 15.4204
L78.3139 15.2994
" />
<path d="M78.3139 15.2994
L78.3743 15.1785
" />
<path d="M78.3743 15.1785
L78.4348 15.1180
" />
<path d="M78.4348 15.1180
L78.5558 15.0575
" />
<path d="M78.5558 15.0575
L78.8581 15.0575
" />
<path d="M78.8581 15.0575
L79.0396 15.1180
" />
<path d="M79.5838 15.6623
L80.0072 15.6623
" />
<path d="M80.1886 16.3275
L79.5838 16.3275
" />
<path d="M79.5838 16.3275
L79.5838 15.0575
" />
<path d="M79.5838 15.0575
L80.1886 15.0575
" />
</g><text x="82.3087" y="15.4940"
textLength="2.6222" font-size="1.6933" lengthAdjust="spacingAndGlyphs"
text-anchor="middle" opacity="0">13</text>
<g class="stroked-text"><desc>13</desc>
<path d="M82.0668 15.3305
L81.3411 15.3305
" />
<path d="M81.7039 15.3305
L81.7039 14.0605
" />
<path d="M81.7039 14.0605
L81.5830 14.2420
" />
<path d="M81.5830 14.2420
L81.4620 14.3629
" />
<path d="M81.4620 14.3629
L81.3411 14.4234
" />
<path d="M82.4901 14.0605
L83.2763 14.0605
" />
<path d="M83.2763 14.0605
L82.8529 14.5443
" />
<path d="M82.8529 14.5443
L83.0344 14.5443
" />
<path d="M83.0344 14.5443
L83.1553 14.6048
" />
<path d="M83.1553 14.6048
L83.2158 14.6653
" />
<path d="M83.2158 14.6653
L83.2763 14.7862
" />
<path d="M83.2763 14.7862
L83.2763 15.0886
" />
<path d="M83.2763 15.0886
L83.2158 15.2096
" />
<path d="M83.2158 15.2096
L83.1553 15.2701
" />
<path d="M83.1553 15.2701
L83.0344 15.3305
" />
<path d="M83.0344 15.3305
L82.6715 15.3305
" />
<path d="M82.6715 15.3305
L82.5506 15.2701
" />
<path d="M82.5506 15.2701
L82.4901 15.2096
" />
</g><path d="M81.0387 13.2080
L83.5787 13.2080
" />
<text x="80.5307" y="13.8430"
textLength="6.0089" font-size="1.6933" lengthAdjust="spacingAndGlyphs"
text-anchor="end" opacity="0">UGATE</text>
<g class="stroked-text"><desc>UGATE</desc>
<path d="M74.9271 12.5175
L74.9271 13.5456
" />
<path d="M74.9271 13.5456
L74.9876 13.6666
" />
<path d="M74.9876 13.6666
L75.0481 13.7271
" />
<path d="M75.0481 13.7271
L75.1690 13.7875
" />
<path d="M75.1690 13.7875
L75.4109 13.7875
" />
<path d="M75.4109 13.7875
L75.5319 13.7271
" />
<path d="M75.5319 13.7271
L75.5924 13.6666
" />
<path d="M75.5924 13.6666
L75.6528 13.5456
" />
<path d="M75.6528 13.5456
L75.6528 12.5175
" />
<path d="M76.9229 12.5780
L76.8019 12.5175
" />
<path d="M76.8019 12.5175
L76.6205 12.5175
" />
<path d="M76.6205 12.5175
L76.4391 12.5780
" />
<path d="M76.4391 12.5780
L76.3181 12.6990
" />
<path d="M76.3181 12.6990
L76.2576 12.8199
" />
<path d="M76.2576 12.8199
L76.1972 13.0618
" />
<path d="M76.1972 13.0618
L76.1972 13.2432
" />
<path d="M76.1972 13.2432
L76.2576 13.4851
" />
<path d="M76.2576 13.4851
L76.3181 13.6061
" />
<path d="M76.3181 13.6061
L76.4391 13.7271
" />
<path d="M76.4391 13.7271
L76.6205 13.7875
" />
<path d="M76.6205 13.7875
L76.7414 13.7875
" />
<path d="M76.7414 13.7875
L76.9229 13.7271
" />
<path d="M76.9229 13.7271
L76.9833 13.6666
" />
<path d="M76.9833 13.6666
L76.9833 13.2432
" />
<path d="M76.9833 13.2432
L76.7414 13.2432
" />
<path d="M77.4672 13.4247
L78.0719 13.4247
" />
<path d="M77.3462 13.7875
L77.7695 12.5175
" />
<path d="M77.7695 12.5175
L78.1929 13.7875
" />
<path d="M78.4348 12.5175
L79.1605 12.5175
" />
<path d="M78.7977 13.7875
L78.7977 12.5175
" />
<path d="M79.5838 13.1223
L80.0072 13.1223
" />
<path d="M80.1886 13.7875
L79.5838 13.7875
" />
<path d="M79.5838 13.7875
L79.5838 12.5175
" />
<path d="M79.5838 12.5175
L80.1886 12.5175
" />
</g><text x="82.3087" y="12.9540"
textLength="2.6222" font-size="1.6933" lengthAdjust="spacingAndGlyphs"
text-anchor="middle" opacity="0">14</text>
<g class="stroked-text"><desc>14</desc>
<path d="M82.0668 12.7905
L81.3411 12.7905
" />
<path d="M81.7039 12.7905
L81.7039 11.5205
" />
<path d="M81.7039 11.5205
L81.5830 11.7020
" />
<path d="M81.5830 11.7020
L81.4620 11.8229
" />
<path d="M81.4620 11.8229
L81.3411 11.8834
" />
<path d="M83.1553 11.9439
L83.1553 12.7905
" />
<path d="M82.8529 11.4601
L82.5506 12.3672
" />
<path d="M82.5506 12.3672
L83.3367 12.3672
" />
</g><path d="M81.0387 10.6680
L83.5787 10.6680
" />
<text x="80.5307" y="11.3030"
textLength="5.1018" font-size="1.6933" lengthAdjust="spacingAndGlyphs"
text-anchor="end" opacity="0">BOOT</text>
<g class="stroked-text"><desc>BOOT</desc>
<path d="M76.2576 10.5823
L76.4390 10.6428
" />
<path d="M76.4390 10.6428
L76.4995 10.7032
" />
<path d="M76.4995 10.7032
L76.5599 10.8242
" />
<path d="M76.5599 10.8242
L76.5599 11.0056
" />
<path d="M76.5599 11.0056
L76.4995 11.1266
" />
<path d="M76.4995 11.1266
L76.4390 11.1871
" />
<path d="M76.4390 11.1871
L76.3180 11.2475
" />
<path d="M76.3180 11.2475
L75.8342 11.2475
" />
<path d="M75.8342 11.2475
L75.8342 9.9775
" />
<path d="M75.8342 9.9775
L76.2576 9.9775
" />
<path d="M76.2576 9.9775
L76.3785 10.0380
" />
<path d="M76.3785 10.0380
L76.4390 10.0985
" />
<path d="M76.4390 10.0985
L76.4995 10.2194
" />
<path d="M76.4995 10.2194
L76.4995 10.3404
" />
<path d="M76.4995 10.3404
L76.4390 10.4613
" />
<path d="M76.4390 10.4613
L76.3785 10.5218
" />
<path d="M76.3785 10.5218
L76.2576 10.5823
" />
<path d="M76.2576 10.5823
L75.8342 10.5823
" />
<path d="M77.3461 9.9775
L77.5880 9.9775
" />
<path d="M77.5880 9.9775
L77.7090 10.0380
" />
<path d="M77.7090 10.0380
L77.8299 10.1590
" />
<path d="M77.8299 10.1590
L77.8904 10.4009
" />
<path d="M77.8904 10.4009
L77.8904 10.8242
" />
<path d="M77.8904 10.8242
L77.8299 11.0661
" />
<path d="M77.8299 11.0661
L77.7090 11.1871
" />
<path d="M77.7090 11.1871
L77.5880 11.2475
" />
<path d="M77.5880 11.2475
L77.3461 11.2475
" />
<path d="M77.3461 11.2475
L77.2252 11.1871
" />
<path d="M77.2252 11.1871
L77.1042 11.0661
" />
<path d="M77.1042 11.0661
L77.0438 10.8242
" />
<path d="M77.0438 10.8242
L77.0438 10.4009
" />
<path d="M77.0438 10.4009
L77.1042 10.1590
" />
<path d="M77.1042 10.1590
L77.2252 10.0380
" />
<path d="M77.2252 10.0380
L77.3461 9.9775
" />
<path d="M78.6766 9.9775
L78.9185 9.9775
" />
<path d="M78.9185 9.9775
L79.0395 10.0380
" />
<path d="M79.0395 10.0380
L79.1604 10.1590
" />
<path d="M79.1604 10.1590
L79.2209 10.4009
" />
<path d="M79.2209 10.4009
L79.2209 10.8242
" />
<path d="M79.2209 10.8242
L79.1604 11.0661
" />
<path d="M79.1604 11.0661
L79.0395 11.1871
" />
<path d="M79.0395 11.1871
L78.9185 11.2475
" />
<path d="M78.9185 11.2475
L78.6766 11.2475
" />
<path d="M78.6766 11.2475
L78.5557 11.1871
" />
<path d="M78.5557 11.1871
L78.4347 11.0661
" />
<path d="M78.4347 11.0661
L78.3743 10.8242
" />
<path d="M78.3743 10.8242
L78.3743 10.4009
" />
<path d="M78.3743 10.4009
L78.4347 10.1590
" />
<path d="M78.4347 10.1590
L78.5557 10.0380
" />
<path d="M78.5557 10.0380
L78.6766 9.9775
" />
<path d="M79.5838 9.9775
L80.3095 9.9775
" />
<path d="M79.9467 11.2475
L79.9467 9.9775
" />
</g><text x="82.3087" y="10.4140"
textLength="2.6222" font-size="1.6933" lengthAdjust="spacingAndGlyphs"
text-anchor="middle" opacity="0">15</text>
<g class="stroked-text"><desc>15</desc>
<path d="M82.0668 10.2505
L81.3411 10.2505
" />
<path d="M81.7039 10.2505
L81.7039 8.9805
" />
<path d="M81.7039 8.9805
L81.5830 9.1620
" />
<path d="M81.5830 9.1620
L81.4620 9.2829
" />
<path d="M81.4620 9.2829
L81.3411 9.3434
" />
<path d="M83.2158 8.9805
L82.6110 8.9805
" />
<path d="M82.6110 8.9805
L82.5506 9.5853
" />
<path d="M82.5506 9.5853
L82.6110 9.5248
" />
<path d="M82.6110 9.5248
L82.7320 9.4643
" />
<path d="M82.7320 9.4643
L83.0344 9.4643
" />
<path d="M83.0344 9.4643
L83.1553 9.5248
" />
<path d="M83.1553 9.5248
L83.2158 9.5853
" />
<path d="M83.2158 9.5853
L83.2763 9.7062
" />
<path d="M83.2763 9.7062
L83.2763 10.0086
" />
<path d="M83.2763 10.0086
L83.2158 10.1296
" />
<path d="M83.2158 10.1296
L83.1553 10.1901
" />
<path d="M83.1553 10.1901
L83.0344 10.2505
" />
<path d="M83.0344 10.2505
L82.7320 10.2505
" />
<path d="M82.7320 10.2505
L82.6110 10.1901
" />
<path d="M82.6110 10.1901
L82.5506 10.1296
" />
</g><path d="M70.8787 5.5880
L70.8787 3.0480
" />
<g transform="rotate(-90.000000 70.8787 6.0960)">
<text x="70.8787" y="6.7310"
textLength="3.2271" font-size="1.6933" lengthAdjust="spacingAndGlyphs"
text-anchor="end" opacity="0">VIN</text>
</g>
<g class="stroked-text"><desc>VIN</desc>
<path d="M70.1882 9.0991
L71.4582 8.6758
" />
<path d="M71.4582 8.6758
L70.1882 8.2524
" />
<path d="M71.4582 7.8291
L70.1882 7.8291
" />
<path d="M71.4582 7.2243
L70.1882 7.2243
" />
<path d="M70.1882 7.2243
L71.4582 6.4986
" />
<path d="M71.4582 6.4986
L70.1882 6.4986
" />
</g><g transform="rotate(-90.000000 70.6247 4.3180)">
<text x="70.6247" y="4.3180"
textLength="2.6222" font-size="1.6933" lengthAdjust="spacingAndGlyphs"
text-anchor="middle" opacity="0">16</text>
</g>
<g class="stroked-text"><desc>16</desc>
<path d="M70.4612 4.5598
L70.4612 5.2855
" />
<path d="M70.4612 4.9227
L69.1912 4.9227
" />
<path d="M69.1912 4.9227
L69.3727 5.0436
" />
<path d="M69.3727 5.0436
L69.4936 5.1646
" />
<path d="M69.4936 5.1646
L69.5541 5.2855
" />
<path d="M69.1912 3.4713
L69.1912 3.7132
" />
<path d="M69.1912 3.7132
L69.2517 3.8341
" />
<path d="M69.2517 3.8341
L69.3122 3.8946
" />
<path d="M69.3122 3.8946
L69.4936 4.0156
" />
<path d="M69.4936 4.0156
L69.7355 4.0760
" />
<path d="M69.7355 4.0760
L70.2193 4.0760
" />
<path d="M70.2193 4.0760
L70.3403 4.0156
" />
<path d="M70.3403 4.0156
L70.4008 3.9551
" />
<path d="M70.4008 3.9551
L70.4612 3.8341
" />
<path d="M70.4612 3.8341
L70.4612 3.5922
" />
<path d="M70.4612 3.5922
L70.4008 3.4713
" />
<path d="M70.4008 3.4713
L70.3403 3.4108
" />
<path d="M70.3403 3.4108
L70.2193 3.3503
" />
<path d="M70.2193 3.3503
L69.9169 3.3503
" />
<path d="M69.9169 3.3503
L69.7960 3.4108
" />
<path d="M69.7960 3.4108
L69.7355 3.4713
" />
<path d="M69.7355 3.4713
L69.6750 3.5922
" />
<path d="M69.6750 3.5922
L69.6750 3.8341
" />
<path d="M69.6750 3.8341
L69.7355 3.9551
" />
<path d="M69.7355 3.9551
L69.7960 4.0156
" />
<path d="M69.7960 4.0156
L69.9169 4.0760
" />
</g><path d="M68.3387 30.9880
L68.3387 33.5280
" />
<g transform="rotate(-90.000000 68.3387 30.4800)">
<text x="68.3387" y="31.1150"
textLength="5.2832" font-size="1.6933" lengthAdjust="spacingAndGlyphs"
text-anchor="start" opacity="0">SGND</text>
</g>
<g class="stroked-text"><desc>SGND</desc>
<path d="M68.8578 30.1378
L68.9182 29.9564
" />
<path d="M68.9182 29.9564
L68.9182 29.6540
" />
<path d="M68.9182 29.6540
L68.8578 29.5331
" />
<path d="M68.8578 29.5331
L68.7973 29.4726
" />
<path d="M68.7973 29.4726
L68.6763 29.4121
" />
<path d="M68.6763 29.4121
L68.5554 29.4121
" />
<path d="M68.5554 29.4121
L68.4344 29.4726
" />
<path d="M68.4344 29.4726
L68.3739 29.5331
" />
<path d="M68.3739 29.5331
L68.3135 29.6540
" />
<path d="M68.3135 29.6540
L68.2530 29.8959
" />
<path d="M68.2530 29.8959
L68.1925 30.0169
" />
<path d="M68.1925 30.0169
L68.1320 30.0774
" />
<path d="M68.1320 30.0774
L68.0111 30.1378
" />
<path d="M68.0111 30.1378
L67.8901 30.1378
" />
<path d="M67.8901 30.1378
L67.7692 30.0774
" />
<path d="M67.7692 30.0774
L67.7087 30.0169
" />
<path d="M67.7087 30.0169
L67.6482 29.8959
" />
<path d="M67.6482 29.8959
L67.6482 29.5936
" />
<path d="M67.6482 29.5936
L67.7087 29.4121
" />
<path d="M67.7087 28.2026
L67.6482 28.3236
" />
<path d="M67.6482 28.3236
L67.6482 28.5050
" />
<path d="M67.6482 28.5050
L67.7087 28.6864
" />
<path d="M67.7087 28.6864
L67.8297 28.8074
" />
<path d="M67.8297 28.8074
L67.9506 28.8679
" />
<path d="M67.9506 28.8679
L68.1925 28.9283
" />
<path d="M68.1925 28.9283
L68.3739 28.9283
" />
<path d="M68.3739 28.9283
L68.6158 28.8679
" />
<path d="M68.6158 28.8679
L68.7368 28.8074
" />
<path d="M68.7368 28.8074
L68.8578 28.6864
" />
<path d="M68.8578 28.6864
L68.9182 28.5050
" />
<path d="M68.9182 28.5050
L68.9182 28.3841
" />
<path d="M68.9182 28.3841
L68.8578 28.2026
" />
<path d="M68.8578 28.2026
L68.7973 28.1422
" />
<path d="M68.7973 28.1422
L68.3739 28.1422
" />
<path d="M68.3739 28.1422
L68.3739 28.3841
" />
<path d="M68.9182 27.5979
L67.6482 27.5979
" />
<path d="M67.6482 27.5979
L68.9182 26.8722
" />
<path d="M68.9182 26.8722
L67.6482 26.8722
" />
<path d="M68.9182 26.2674
L67.6482 26.2674
" />
<path d="M67.6482 26.2674
L67.6482 25.9650
" />
<path d="M67.6482 25.9650
L67.7087 25.7836
" />
<path d="M67.7087 25.7836
L67.8297 25.6626
" />
<path d="M67.8297 25.6626
L67.9506 25.6021
" />
<path d="M67.9506 25.6021
L68.1925 25.5417
" />
<path d="M68.1925 25.5417
L68.3739 25.5417
" />
<path d="M68.3739 25.5417
L68.6158 25.6021
" />
<path d="M68.6158 25.6021
L68.7368 25.6626
" />
<path d="M68.7368 25.6626
L68.8578 25.7836
" />
<path d="M68.8578 25.7836
L68.9182 25.9650
" />
<path d="M68.9182 25.9650
L68.9182 26.2674
" />
</g><g transform="rotate(-90.000000 68.0847 32.2580)">
<text x="68.0847" y="32.2580"
textLength="2.6222" font-size="1.6933" lengthAdjust="spacingAndGlyphs"
text-anchor="middle" opacity="0">17</text>
</g>
<g class="stroked-text"><desc>17</desc>
<path d="M67.9212 32.4998
L67.9212 33.2255
" />
<path d="M67.9212 32.8627
L66.6512 32.8627
" />
<path d="M66.6512 32.8627
L66.8327 32.9836
" />
<path d="M66.8327 32.9836
L66.9536 33.1046
" />
<path d="M66.9536 33.1046
L67.0141 33.2255
" />
<path d="M66.6512 32.0765
L66.6512 31.2299
" />
<path d="M66.6512 31.2299
L67.9212 31.7741
" />
</g><path d="M55.6387 10.6680
L53.0987 10.6680
" />
<text x="56.1467" y="11.3030"
textLength="2.6827" font-size="1.6933" lengthAdjust="spacingAndGlyphs"
text-anchor="start" opacity="0">EN</text>
<g class="stroked-text"><desc>EN</desc>
<path d="M56.5492 10.5823
L56.9726 10.5823
" />
<path d="M57.1540 11.2475
L56.5492 11.2475
" />
<path d="M56.5492 11.2475
L56.5492 9.9775
" />
<path d="M56.5492 9.9775
L57.1540 9.9775
" />
<path d="M57.6982 11.2475
L57.6982 9.9775
" />
<path d="M57.6982 9.9775
L58.4239 11.2475
" />
<path d="M58.4239 11.2475
L58.4239 9.9775
" />
</g><text x="54.3687" y="10.4140"
textLength="1.4127" font-size="1.6933" lengthAdjust="spacingAndGlyphs"
text-anchor="middle" opacity="0">2</text>
<g class="stroked-text"><desc>2</desc>
<path d="M54.0059 9.1015
L54.0663 9.0410
" />
<path d="M54.0663 9.0410
L54.1873 8.9805
" />
<path d="M54.1873 8.9805
L54.4897 8.9805
" />
<path d="M54.4897 8.9805
L54.6106 9.0410
" />
<path d="M54.6106 9.0410
L54.6711 9.1015
" />
<path d="M54.6711 9.1015
L54.7316 9.2224
" />
<path d="M54.7316 9.2224
L54.7316 9.3434
" />
<path d="M54.7316 9.3434
L54.6711 9.5248
" />
<path d="M54.6711 9.5248
L53.9454 10.2505
" />
<path d="M53.9454 10.2505
L54.7316 10.2505
" />
</g><path d="M55.6387 18.2880
L53.0987 18.2880
" />
<text x="56.1467" y="18.9230"
textLength="7.3999" font-size="1.6933" lengthAdjust="spacingAndGlyphs"
text-anchor="start" opacity="0">CLKOUT</text>
<g class="stroked-text"><desc>CLKOUT</desc>
<path d="M57.2749 18.7466
L57.2145 18.8071
" />
<path d="M57.2145 18.8071
L57.0330 18.8675
" />
<path d="M57.0330 18.8675
L56.9121 18.8675
" />
<path d="M56.9121 18.8675
L56.7307 18.8071
" />
<path d="M56.7307 18.8071
L56.6097 18.6861
" />
<path d="M56.6097 18.6861
L56.5492 18.5651
" />
<path d="M56.5492 18.5651
L56.4888 18.3232
" />
<path d="M56.4888 18.3232
L56.4888 18.1418
" />
<path d="M56.4888 18.1418
L56.5492 17.8999
" />
<path d="M56.5492 17.8999
L56.6097 17.7790
" />
<path d="M56.6097 17.7790
L56.7307 17.6580
" />
<path d="M56.7307 17.6580
L56.9121 17.5975
" />
<path d="M56.9121 17.5975
L57.0330 17.5975
" />
<path d="M57.0330 17.5975
L57.2145 17.6580
" />
<path d="M57.2145 17.6580
L57.2749 17.7185
" />
<path d="M58.4240 18.8675
L57.8192 18.8675
" />
<path d="M57.8192 18.8675
L57.8192 17.5975
" />
<path d="M58.8473 18.8675
L58.8473 17.5975
" />
<path d="M59.5730 18.8675
L59.0288 18.1418
" />
<path d="M59.5730 17.5975
L58.8473 18.3232
" />
<path d="M60.3592 17.5975
L60.6011 17.5975
" />
<path d="M60.6011 17.5975
L60.7221 17.6580
" />
<path d="M60.7221 17.6580
L60.8430 17.7790
" />
<path d="M60.8430 17.7790
L60.9035 18.0209
" />
<path d="M60.9035 18.0209
L60.9035 18.4442
" />
<path d="M60.9035 18.4442
L60.8430 18.6861
" />
<path d="M60.8430 18.6861
L60.7221 18.8071
" />
<path d="M60.7221 18.8071
L60.6011 18.8675
" />
<path d="M60.6011 18.8675
L60.3592 18.8675
" />
<path d="M60.3592 18.8675
L60.2383 18.8071
" />
<path d="M60.2383 18.8071
L60.1173 18.6861
" />
<path d="M60.1173 18.6861
L60.0569 18.4442
" />
<path d="M60.0569 18.4442
L60.0569 18.0209
" />
<path d="M60.0569 18.0209
L60.1173 17.7790
" />
<path d="M60.1173 17.7790
L60.2383 17.6580
" />
<path d="M60.2383 17.6580
L60.3592 17.5975
" />
<path d="M61.4478 17.5975
L61.4478 18.6256
" />
<path d="M61.4478 18.6256
L61.5083 18.7466
" />
<path d="M61.5083 18.7466
L61.5688 18.8071
" />
<path d="M61.5688 18.8071
L61.6897 18.8675
" />
<path d="M61.6897 18.8675
L61.9316 18.8675
" />
<path d="M61.9316 18.8675
L62.0526 18.8071
" />
<path d="M62.0526 18.8071
L62.1131 18.7466
" />
<path d="M62.1131 18.7466
L62.1735 18.6256
" />
<path d="M62.1735 18.6256
L62.1735 17.5975
" />
<path d="M62.5969 17.5975
L63.3226 17.5975
" />
<path d="M62.9598 18.8675
L62.9598 17.5975
" />
</g><text x="54.3687" y="18.0340"
textLength="1.4127" font-size="1.6933" lengthAdjust="spacingAndGlyphs"
text-anchor="middle" opacity="0">3</text>
<g class="stroked-text"><desc>3</desc>
<path d="M53.9454 16.6005
L54.7316 16.6005
" />
<path d="M54.7316 16.6005
L54.3082 17.0843
" />
<path d="M54.3082 17.0843
L54.4897 17.0843
" />
<path d="M54.4897 17.0843
L54.6106 17.1448
" />
<path d="M54.6106 17.1448
L54.6711 17.2053
" />
<path d="M54.6711 17.2053
L54.7316 17.3262
" />
<path d="M54.7316 17.3262
L54.7316 17.6286
" />
<path d="M54.7316 17.6286
L54.6711 17.7496
" />
<path d="M54.6711 17.7496
L54.6106 17.8101
" />
<path d="M54.6106 17.8101
L54.4897 17.8705
" />
<path d="M54.4897 17.8705
L54.1268 17.8705
" />
<path d="M54.1268 17.8705
L54.0059 17.8101
" />
<path d="M54.0059 17.8101
L53.9454 17.7496
" />
</g><path d="M55.6387 13.2080
L53.0987 13.2080
" />
<text x="56.1467" y="13.8430"
textLength="10.4842" font-size="1.6933" lengthAdjust="spacingAndGlyphs"
text-anchor="start" opacity="0">MOD/SYNC</text>
<g class="stroked-text"><desc>MOD/SYNC</desc>
<path d="M56.5492 13.7875
L56.5492 12.5175
" />
<path d="M56.5492 12.5175
L56.9726 13.4247
" />
<path d="M56.9726 13.4247
L57.3959 12.5175
" />
<path d="M57.3959 12.5175
L57.3959 13.7875
" />
<path d="M58.2425 12.5175
L58.4844 12.5175
" />
<path d="M58.4844 12.5175
L58.6054 12.5780
" />
<path d="M58.6054 12.5780
L58.7263 12.6990
" />
<path d="M58.7263 12.6990
L58.7868 12.9409
" />
<path d="M58.7868 12.9409
L58.7868 13.3642
" />
<path d="M58.7868 13.3642
L58.7263 13.6061
" />
<path d="M58.7263 13.6061
L58.6054 13.7271
" />
<path d="M58.6054 13.7271
L58.4844 13.7875
" />
<path d="M58.4844 13.7875
L58.2425 13.7875
" />
<path d="M58.2425 13.7875
L58.1216 13.7271
" />
<path d="M58.1216 13.7271
L58.0006 13.6061
" />
<path d="M58.0006 13.6061
L57.9402 13.3642
" />
<path d="M57.9402 13.3642
L57.9402 12.9409
" />
<path d="M57.9402 12.9409
L58.0006 12.6990
" />
<path d="M58.0006 12.6990
L58.1216 12.5780
" />
<path d="M58.1216 12.5780
L58.2425 12.5175
" />
<path d="M59.3311 13.7875
L59.3311 12.5175
" />
<path d="M59.3311 12.5175
L59.6335 12.5175
" />
<path d="M59.6335 12.5175
L59.8149 12.5780
" />
<path d="M59.8149 12.5780
L59.9359 12.6990
" />
<path d="M59.9359 12.6990
L59.9964 12.8199
" />
<path d="M59.9964 12.8199
L60.0568 13.0618
" />
<path d="M60.0568 13.0618
L60.0568 13.2432
" />
<path d="M60.0568 13.2432
L59.9964 13.4851
" />
<path d="M59.9964 13.4851
L59.9359 13.6061
" />
<path d="M59.9359 13.6061
L59.8149 13.7271
" />
<path d="M59.8149 13.7271
L59.6335 13.7875
" />
<path d="M59.6335 13.7875
L59.3311 13.7875
" />
<path d="M61.5083 12.4571
L60.4197 14.0899
" />
<path d="M61.8712 13.7271
L62.0526 13.7875
" />
<path d="M62.0526 13.7875
L62.3550 13.7875
" />
<path d="M62.3550 13.7875
L62.4759 13.7271
" />
<path d="M62.4759 13.7271
L62.5364 13.6666
" />
<path d="M62.5364 13.6666
L62.5969 13.5456
" />
<path d="M62.5969 13.5456
L62.5969 13.4247
" />
<path d="M62.5969 13.4247
L62.5364 13.3037
" />
<path d="M62.5364 13.3037
L62.4759 13.2432
" />
<path d="M62.4759 13.2432
L62.3550 13.1828
" />
<path d="M62.3550 13.1828
L62.1131 13.1223
" />
<path d="M62.1131 13.1223
L61.9921 13.0618
" />
<path d="M61.9921 13.0618
L61.9316 13.0013
" />
<path d="M61.9316 13.0013
L61.8712 12.8804
" />
<path d="M61.8712 12.8804
L61.8712 12.7594
" />
<path d="M61.8712 12.7594
L61.9316 12.6385
" />
<path d="M61.9316 12.6385
L61.9921 12.5780
" />
<path d="M61.9921 12.5780
L62.1131 12.5175
" />
<path d="M62.1131 12.5175
L62.4154 12.5175
" />
<path d="M62.4154 12.5175
L62.5969 12.5780
" />
<path d="M63.3830 13.1828
L63.3830 13.7875
" />
<path d="M62.9597 12.5175
L63.3830 13.1828
" />
<path d="M63.3830 13.1828
L63.8064 12.5175
" />
<path d="M64.2297 13.7875
L64.2297 12.5175
" />
<path d="M64.2297 12.5175
L64.9554 13.7875
" />
<path d="M64.9554 13.7875
L64.9554 12.5175
" />
<path d="M66.2859 13.6666
L66.2255 13.7271
" />
<path d="M66.2255 13.7271
L66.0440 13.7875
" />
<path d="M66.0440 13.7875
L65.9231 13.7875
" />
<path d="M65.9231 13.7875
L65.7417 13.7271
" />
<path d="M65.7417 13.7271
L65.6207 13.6061
" />
<path d="M65.6207 13.6061
L65.5602 13.4851
" />
<path d="M65.5602 13.4851
L65.4998 13.2432
" />
<path d="M65.4998 13.2432
L65.4998 13.0618
" />
<path d="M65.4998 13.0618
L65.5602 12.8199
" />
<path d="M65.5602 12.8199
L65.6207 12.6990
" />
<path d="M65.6207 12.6990
L65.7417 12.5780
" />
<path d="M65.7417 12.5780
L65.9231 12.5175
" />
<path d="M65.9231 12.5175
L66.0440 12.5175
" />
<path d="M66.0440 12.5175
L66.2255 12.5780
" />
<path d="M66.2255 12.5780
L66.2859 12.6385
" />
</g><text x="54.3687" y="12.9540"
textLength="1.4127" font-size="1.6933" lengthAdjust="spacingAndGlyphs"
text-anchor="middle" opacity="0">4</text>
<g class="stroked-text"><desc>4</desc>
<path d="M54.6106 11.9439
L54.6106 12.7905
" />
<path d="M54.3082 11.4601
L54.0059 12.3672
" />
<path d="M54.0059 12.3672
L54.7920 12.3672
" />
</g><path d="M55.6387 15.7480
L53.0987 15.7480
" />
<text x="56.1467" y="16.3830"
textLength="6.6742" font-size="1.6933" lengthAdjust="spacingAndGlyphs"
text-anchor="start" opacity="0">PGOOD</text>
<g class="stroked-text"><desc>PGOOD</desc>
<path d="M56.5492 16.3275
L56.5492 15.0575
" />
<path d="M56.5492 15.0575
L57.0330 15.0575
" />
<path d="M57.0330 15.0575
L57.1540 15.1180
" />
<path d="M57.1540 15.1180
L57.2145 15.1785
" />
<path d="M57.2145 15.1785
L57.2749 15.2994
" />
<path d="M57.2749 15.2994
L57.2749 15.4809
" />
<path d="M57.2749 15.4809
L57.2145 15.6018
" />
<path d="M57.2145 15.6018
L57.1540 15.6623
" />
<path d="M57.1540 15.6623
L57.0330 15.7228
" />
<path d="M57.0330 15.7228
L56.5492 15.7228
" />
<path d="M58.4845 15.1180
L58.3635 15.0575
" />
<path d="M58.3635 15.0575
L58.1821 15.0575
" />
<path d="M58.1821 15.0575
L58.0007 15.1180
" />
<path d="M58.0007 15.1180
L57.8797 15.2390
" />
<path d="M57.8797 15.2390
L57.8192 15.3599
" />
<path d="M57.8192 15.3599
L57.7588 15.6018
" />
<path d="M57.7588 15.6018
L57.7588 15.7832
" />
<path d="M57.7588 15.7832
L57.8192 16.0251
" />
<path d="M57.8192 16.0251
L57.8797 16.1461
" />
<path d="M57.8797 16.1461
L58.0007 16.2671
" />
<path d="M58.0007 16.2671
L58.1821 16.3275
" />
<path d="M58.1821 16.3275
L58.3030 16.3275
" />
<path d="M58.3030 16.3275
L58.4845 16.2671
" />
<path d="M58.4845 16.2671
L58.5449 16.2066
" />
<path d="M58.5449 16.2066
L58.5449 15.7832
" />
<path d="M58.5449 15.7832
L58.3030 15.7832
" />
<path d="M59.3311 15.0575
L59.5730 15.0575
" />
<path d="M59.5730 15.0575
L59.6940 15.1180
" />
<path d="M59.6940 15.1180
L59.8149 15.2390
" />
<path d="M59.8149 15.2390
L59.8754 15.4809
" />
<path d="M59.8754 15.4809
L59.8754 15.9042
" />
<path d="M59.8754 15.9042
L59.8149 16.1461
" />
<path d="M59.8149 16.1461
L59.6940 16.2671
" />
<path d="M59.6940 16.2671
L59.5730 16.3275
" />
<path d="M59.5730 16.3275
L59.3311 16.3275
" />
<path d="M59.3311 16.3275
L59.2102 16.2671
" />
<path d="M59.2102 16.2671
L59.0892 16.1461
" />
<path d="M59.0892 16.1461
L59.0288 15.9042
" />
<path d="M59.0288 15.9042
L59.0288 15.4809
" />
<path d="M59.0288 15.4809
L59.0892 15.2390
" />
<path d="M59.0892 15.2390
L59.2102 15.1180
" />
<path d="M59.2102 15.1180
L59.3311 15.0575
" />
<path d="M60.6616 15.0575
L60.9035 15.0575
" />
<path d="M60.9035 15.0575
L61.0245 15.1180
" />
<path d="M61.0245 15.1180
L61.1454 15.2390
" />
<path d="M61.1454 15.2390
L61.2059 15.4809
" />
<path d="M61.2059 15.4809
L61.2059 15.9042
" />
<path d="M61.2059 15.9042
L61.1454 16.1461
" />
<path d="M61.1454 16.1461
L61.0245 16.2671
" />
<path d="M61.0245 16.2671
L60.9035 16.3275
" />
<path d="M60.9035 16.3275
L60.6616 16.3275
" />
<path d="M60.6616 16.3275
L60.5407 16.2671
" />
<path d="M60.5407 16.2671
L60.4197 16.1461
" />
<path d="M60.4197 16.1461
L60.3593 15.9042
" />
<path d="M60.3593 15.9042
L60.3593 15.4809
" />
<path d="M60.3593 15.4809
L60.4197 15.2390
" />
<path d="M60.4197 15.2390
L60.5407 15.1180
" />
<path d="M60.5407 15.1180
L60.6616 15.0575
" />
<path d="M61.7502 16.3275
L61.7502 15.0575
" />
<path d="M61.7502 15.0575
L62.0526 15.0575
" />
<path d="M62.0526 15.0575
L62.2340 15.1180
" />
<path d="M62.2340 15.1180
L62.3550 15.2390
" />
<path d="M62.3550 15.2390
L62.4155 15.3599
" />
<path d="M62.4155 15.3599
L62.4759 15.6018
" />
<path d="M62.4759 15.6018
L62.4759 15.7832
" />
<path d="M62.4759 15.7832
L62.4155 16.0251
" />
<path d="M62.4155 16.0251
L62.3550 16.1461
" />
<path d="M62.3550 16.1461
L62.2340 16.2671
" />
<path d="M62.2340 16.2671
L62.0526 16.3275
" />
<path d="M62.0526 16.3275
L61.7502 16.3275
" />
</g><text x="54.3687" y="15.4940"
textLength="1.4127" font-size="1.6933" lengthAdjust="spacingAndGlyphs"
text-anchor="middle" opacity="0">5</text>
<g class="stroked-text"><desc>5</desc>
<path d="M54.6711 14.0605
L54.0663 14.0605
" />
<path d="M54.0663 14.0605
L54.0059 14.6653
" />
<path d="M54.0059 14.6653
L54.0663 14.6048
" />
<path d="M54.0663 14.6048
L54.1873 14.5443
" />
<path d="M54.1873 14.5443
L54.4897 14.5443
" />
<path d="M54.4897 14.5443
L54.6106 14.6048
" />
<path d="M54.6106 14.6048
L54.6711 14.6653
" />
<path d="M54.6711 14.6653
L54.7316 14.7862
" />
<path d="M54.7316 14.7862
L54.7316 15.0886
" />
<path d="M54.7316 15.0886
L54.6711 15.2096
" />
<path d="M54.6711 15.2096
L54.6106 15.2701
" />
<path d="M54.6106 15.2701
L54.4897 15.3305
" />
<path d="M54.4897 15.3305
L54.1873 15.3305
" />
<path d="M54.1873 15.3305
L54.0663 15.2701
" />
<path d="M54.0663 15.2701
L54.0059 15.2096
" />
</g><path d="M55.6387 23.3680
L53.0987 23.3680
" />
<text x="56.1467" y="24.0030"
textLength="2.4408" font-size="1.6933" lengthAdjust="spacingAndGlyphs"
text-anchor="start" opacity="0">RT</text>
<g class="stroked-text"><desc>RT</desc>
<path d="M57.2749 23.9475
L56.8516 23.3428
" />
<path d="M56.5492 23.9475
L56.5492 22.6775
" />
<path d="M56.5492 22.6775
L57.0330 22.6775
" />
<path d="M57.0330 22.6775
L57.1540 22.7380
" />
<path d="M57.1540 22.7380
L57.2145 22.7985
" />
<path d="M57.2145 22.7985
L57.2749 22.9194
" />
<path d="M57.2749 22.9194
L57.2749 23.1009
" />
<path d="M57.2749 23.1009
L57.2145 23.2218
" />
<path d="M57.2145 23.2218
L57.1540 23.2823
" />
<path d="M57.1540 23.2823
L57.0330 23.3428
" />
<path d="M57.0330 23.3428
L56.5492 23.3428
" />
<path d="M57.6378 22.6775
L58.3635 22.6775
" />
<path d="M58.0007 23.9475
L58.0007 22.6775
" />
</g><text x="54.3687" y="23.1140"
textLength="1.4127" font-size="1.6933" lengthAdjust="spacingAndGlyphs"
text-anchor="middle" opacity="0">6</text>
<g class="stroked-text"><desc>6</desc>
<path d="M54.6106 21.6805
L54.3687 21.6805
" />
<path d="M54.3687 21.6805
L54.2478 21.7410
" />
<path d="M54.2478 21.7410
L54.1873 21.8015
" />
<path d="M54.1873 21.8015
L54.0663 21.9829
" />
<path d="M54.0663 21.9829
L54.0059 22.2248
" />
<path d="M54.0059 22.2248
L54.0059 22.7086
" />
<path d="M54.0059 22.7086
L54.0663 22.8296
" />
<path d="M54.0663 22.8296
L54.1268 22.8901
" />
<path d="M54.1268 22.8901
L54.2478 22.9505
" />
<path d="M54.2478 22.9505
L54.4897 22.9505
" />
<path d="M54.4897 22.9505
L54.6106 22.8901
" />
<path d="M54.6106 22.8901
L54.6711 22.8296
" />
<path d="M54.6711 22.8296
L54.7316 22.7086
" />
<path d="M54.7316 22.7086
L54.7316 22.4062
" />
<path d="M54.7316 22.4062
L54.6711 22.2853
" />
<path d="M54.6711 22.2853
L54.6106 22.2248
" />
<path d="M54.6106 22.2248
L54.4897 22.1643
" />
<path d="M54.4897 22.1643
L54.2478 22.1643
" />
<path d="M54.2478 22.1643
L54.1268 22.2248
" />
<path d="M54.1268 22.2248
L54.0663 22.2853
" />
<path d="M54.0663 22.2853
L54.0059 22.4062
" />
</g><path d="M55.6387 20.8280
L53.0987 20.8280
" />
<text x="56.1467" y="21.4630"
textLength="7.4603" font-size="1.6933" lengthAdjust="spacingAndGlyphs"
text-anchor="start" opacity="0">SS/TRK</text>
<g class="stroked-text"><desc>SS/TRK</desc>
<path d="M56.4888 21.3471
L56.6702 21.4075
" />
<path d="M56.6702 21.4075
L56.9726 21.4075
" />
<path d="M56.9726 21.4075
L57.0935 21.3471
" />
<path d="M57.0935 21.3471
L57.1540 21.2866
" />
<path d="M57.1540 21.2866
L57.2145 21.1656
" />
<path d="M57.2145 21.1656
L57.2145 21.0447
" />
<path d="M57.2145 21.0447
L57.1540 20.9237
" />
<path d="M57.1540 20.9237
L57.0935 20.8632
" />
<path d="M57.0935 20.8632
L56.9726 20.8028
" />
<path d="M56.9726 20.8028
L56.7307 20.7423
" />
<path d="M56.7307 20.7423
L56.6097 20.6818
" />
<path d="M56.6097 20.6818
L56.5492 20.6213
" />
<path d="M56.5492 20.6213
L56.4888 20.5004
" />
<path d="M56.4888 20.5004
L56.4888 20.3794
" />
<path d="M56.4888 20.3794
L56.5492 20.2585
" />
<path d="M56.5492 20.2585
L56.6097 20.1980
" />
<path d="M56.6097 20.1980
L56.7307 20.1375
" />
<path d="M56.7307 20.1375
L57.0330 20.1375
" />
<path d="M57.0330 20.1375
L57.2145 20.1980
" />
<path d="M57.6983 21.3471
L57.8797 21.4075
" />
<path d="M57.8797 21.4075
L58.1821 21.4075
" />
<path d="M58.1821 21.4075
L58.3030 21.3471
" />
<path d="M58.3030 21.3471
L58.3635 21.2866
" />
<path d="M58.3635 21.2866
L58.4240 21.1656
" />
<path d="M58.4240 21.1656
L58.4240 21.0447
" />
<path d="M58.4240 21.0447
L58.3635 20.9237
" />
<path d="M58.3635 20.9237
L58.3030 20.8632
" />
<path d="M58.3030 20.8632
L58.1821 20.8028
" />
<path d="M58.1821 20.8028
L57.9402 20.7423
" />
<path d="M57.9402 20.7423
L57.8192 20.6818
" />
<path d="M57.8192 20.6818
L57.7587 20.6213
" />
<path d="M57.7587 20.6213
L57.6983 20.5004
" />
<path d="M57.6983 20.5004
L57.6983 20.3794
" />
<path d="M57.6983 20.3794
L57.7587 20.2585
" />
<path d="M57.7587 20.2585
L57.8192 20.1980
" />
<path d="M57.8192 20.1980
L57.9402 20.1375
" />
<path d="M57.9402 20.1375
L58.2425 20.1375
" />
<path d="M58.2425 20.1375
L58.4240 20.1980
" />
<path d="M59.8754 20.0771
L58.7868 21.7099
" />
<path d="M60.1173 20.1375
L60.8430 20.1375
" />
<path d="M60.4802 21.4075
L60.4802 20.1375
" />
<path d="M61.9920 21.4075
L61.5687 20.8028
" />
<path d="M61.2663 21.4075
L61.2663 20.1375
" />
<path d="M61.2663 20.1375
L61.7501 20.1375
" />
<path d="M61.7501 20.1375
L61.8711 20.1980
" />
<path d="M61.8711 20.1980
L61.9316 20.2585
" />
<path d="M61.9316 20.2585
L61.9920 20.3794
" />
<path d="M61.9920 20.3794
L61.9920 20.5609
" />
<path d="M61.9920 20.5609
L61.9316 20.6818
" />
<path d="M61.9316 20.6818
L61.8711 20.7423
" />
<path d="M61.8711 20.7423
L61.7501 20.8028
" />
<path d="M61.7501 20.8028
L61.2663 20.8028
" />
<path d="M62.5363 21.4075
L62.5363 20.1375
" />
<path d="M63.2620 21.4075
L62.7178 20.6818
" />
<path d="M63.2620 20.1375
L62.5363 20.8632
" />
</g><text x="54.3687" y="20.5740"
textLength="1.4127" font-size="1.6933" lengthAdjust="spacingAndGlyphs"
text-anchor="middle" opacity="0">7</text>
<g class="stroked-text"><desc>7</desc>
<path d="M53.9454 19.1405
L54.7920 19.1405
" />
<path d="M54.7920 19.1405
L54.2478 20.4105
" />
</g><path d="M81.0387 25.9080
L83.5787 25.9080
" />
<text x="80.5307" y="26.5430"
textLength="2.5618" font-size="1.6933" lengthAdjust="spacingAndGlyphs"
text-anchor="end" opacity="0">FB</text>
<g class="stroked-text"><desc>FB</desc>
<path d="M78.7976 25.8223
L78.3742 25.8223
" />
<path d="M78.3742 26.4875
L78.3742 25.2175
" />
<path d="M78.3742 25.2175
L78.9790 25.2175
" />
<path d="M79.8862 25.8223
L80.0676 25.8828
" />
<path d="M80.0676 25.8828
L80.1281 25.9432
" />
<path d="M80.1281 25.9432
L80.1885 26.0642
" />
<path d="M80.1885 26.0642
L80.1885 26.2456
" />
<path d="M80.1885 26.2456
L80.1281 26.3666
" />
<path d="M80.1281 26.3666
L80.0676 26.4271
" />
<path d="M80.0676 26.4271
L79.9466 26.4875
" />
<path d="M79.9466 26.4875
L79.4628 26.4875
" />
<path d="M79.4628 26.4875
L79.4628 25.2175
" />
<path d="M79.4628 25.2175
L79.8862 25.2175
" />
<path d="M79.8862 25.2175
L80.0071 25.2780
" />
<path d="M80.0071 25.2780
L80.0676 25.3385
" />
<path d="M80.0676 25.3385
L80.1281 25.4594
" />
<path d="M80.1281 25.4594
L80.1281 25.5804
" />
<path d="M80.1281 25.5804
L80.0676 25.7013
" />
<path d="M80.0676 25.7013
L80.0071 25.7618
" />
<path d="M80.0071 25.7618
L79.8862 25.8223
" />
<path d="M79.8862 25.8223
L79.4628 25.8223
" />
</g><text x="82.3087" y="25.6540"
textLength="1.4127" font-size="1.6933" lengthAdjust="spacingAndGlyphs"
text-anchor="middle" opacity="0">8</text>
<g class="stroked-text"><desc>8</desc>
<path d="M82.1878 24.7648
L82.0668 24.7043
" />
<path d="M82.0668 24.7043
L82.0063 24.6439
" />
<path d="M82.0063 24.6439
L81.9459 24.5229
" />
<path d="M81.9459 24.5229
L81.9459 24.4624
" />
<path d="M81.9459 24.4624
L82.0063 24.3415
" />
<path d="M82.0063 24.3415
L82.0668 24.2810
" />
<path d="M82.0668 24.2810
L82.1878 24.2205
" />
<path d="M82.1878 24.2205
L82.4297 24.2205
" />
<path d="M82.4297 24.2205
L82.5506 24.2810
" />
<path d="M82.5506 24.2810
L82.6111 24.3415
" />
<path d="M82.6111 24.3415
L82.6716 24.4624
" />
<path d="M82.6716 24.4624
L82.6716 24.5229
" />
<path d="M82.6716 24.5229
L82.6111 24.6439
" />
<path d="M82.6111 24.6439
L82.5506 24.7043
" />
<path d="M82.5506 24.7043
L82.4297 24.7648
" />
<path d="M82.4297 24.7648
L82.1878 24.7648
" />
<path d="M82.1878 24.7648
L82.0668 24.8253
" />
<path d="M82.0668 24.8253
L82.0063 24.8858
" />
<path d="M82.0063 24.8858
L81.9459 25.0067
" />
<path d="M81.9459 25.0067
L81.9459 25.2486
" />
<path d="M81.9459 25.2486
L82.0063 25.3696
" />
<path d="M82.0063 25.3696
L82.0668 25.4301
" />
<path d="M82.0668 25.4301
L82.1878 25.4905
" />
<path d="M82.1878 25.4905
L82.4297 25.4905
" />
<path d="M82.4297 25.4905
L82.5506 25.4301
" />
<path d="M82.5506 25.4301
L82.6111 25.3696
" />
<path d="M82.6111 25.3696
L82.6716 25.2486
" />
<path d="M82.6716 25.2486
L82.6716 25.0067
" />
<path d="M82.6716 25.0067
L82.6111 24.8858
" />
<path d="M82.6111 24.8858
L82.5506 24.8253
" />
<path d="M82.5506 24.8253
L82.4297 24.7648
" />
</g><path d="M70.8787 30.9880
L70.8787 33.5280
" />
<g transform="rotate(-90.000000 70.8787 30.4800)">
<text x="70.8787" y="31.1150"
textLength="5.3437" font-size="1.6933" lengthAdjust="spacingAndGlyphs"
text-anchor="start" opacity="0">PGND</text>
</g>
<g class="stroked-text"><desc>PGND</desc>
<path d="M71.4582 30.0774
L70.1882 30.0774
" />
<path d="M70.1882 30.0774
L70.1882 29.5936
" />
<path d="M70.1882 29.5936
L70.2487 29.4726
" />
<path d="M70.2487 29.4726
L70.3092 29.4121
" />
<path d="M70.3092 29.4121
L70.4301 29.3517
" />
<path d="M70.4301 29.3517
L70.6116 29.3517
" />
<path d="M70.6116 29.3517
L70.7325 29.4121
" />
<path d="M70.7325 29.4121
L70.7930 29.4726
" />
<path d="M70.7930 29.4726
L70.8535 29.5936
" />
<path d="M70.8535 29.5936
L70.8535 30.0774
" />
<path d="M70.2487 28.1421
L70.1882 28.2631
" />
<path d="M70.1882 28.2631
L70.1882 28.4445
" />
<path d="M70.1882 28.4445
L70.2487 28.6259
" />
<path d="M70.2487 28.6259
L70.3697 28.7469
" />
<path d="M70.3697 28.7469
L70.4906 28.8074
" />
<path d="M70.4906 28.8074
L70.7325 28.8678
" />
<path d="M70.7325 28.8678
L70.9139 28.8678
" />
<path d="M70.9139 28.8678
L71.1558 28.8074
" />
<path d="M71.1558 28.8074
L71.2768 28.7469
" />
<path d="M71.2768 28.7469
L71.3978 28.6259
" />
<path d="M71.3978 28.6259
L71.4582 28.4445
" />
<path d="M71.4582 28.4445
L71.4582 28.3236
" />
<path d="M71.4582 28.3236
L71.3978 28.1421
" />
<path d="M71.3978 28.1421
L71.3373 28.0817
" />
<path d="M71.3373 28.0817
L70.9139 28.0817
" />
<path d="M70.9139 28.0817
L70.9139 28.3236
" />
<path d="M71.4582 27.5374
L70.1882 27.5374
" />
<path d="M70.1882 27.5374
L71.4582 26.8117
" />
<path d="M71.4582 26.8117
L70.1882 26.8117
" />
<path d="M71.4582 26.2069
L70.1882 26.2069
" />
<path d="M70.1882 26.2069
L70.1882 25.9045
" />
<path d="M70.1882 25.9045
L70.2487 25.7231
" />
<path d="M70.2487 25.7231
L70.3697 25.6021
" />
<path d="M70.3697 25.6021
L70.4906 25.5416
" />
<path d="M70.4906 25.5416
L70.7325 25.4812
" />
<path d="M70.7325 25.4812
L70.9139 25.4812
" />
<path d="M70.9139 25.4812
L71.1558 25.5416
" />
<path d="M71.1558 25.5416
L71.2768 25.6021
" />
<path d="M71.2768 25.6021
L71.3978 25.7231
" />
<path d="M71.3978 25.7231
L71.4582 25.9045
" />
<path d="M71.4582 25.9045
L71.4582 26.2069
" />
</g><g transform="rotate(-90.000000 70.6247 32.2580)">
<text x="70.6247" y="32.2580"
textLength="1.4127" font-size="1.6933" lengthAdjust="spacingAndGlyphs"
text-anchor="middle" opacity="0">9</text>
</g>
<g class="stroked-text"><desc>9</desc>
<path d="M70.4612 32.4998
L70.4612 32.2579
" />
<path d="M70.4612 32.2579
L70.4008 32.1369
" />
<path d="M70.4008 32.1369
L70.3403 32.0765
" />
<path d="M70.3403 32.0765
L70.1588 31.9555
" />
<path d="M70.1588 31.9555
L69.9169 31.8950
" />
<path d="M69.9169 31.8950
L69.4331 31.8950
" />
<path d="M69.4331 31.8950
L69.3122 31.9555
" />
<path d="M69.3122 31.9555
L69.2517 32.0160
" />
<path d="M69.2517 32.0160
L69.1912 32.1369
" />
<path d="M69.1912 32.1369
L69.1912 32.3788
" />
<path d="M69.1912 32.3788
L69.2517 32.4998
" />
<path d="M69.2517 32.4998
L69.3122 32.5603
" />
<path d="M69.3122 32.5603
L69.4331 32.6207
" />
<path d="M69.4331 32.6207
L69.7355 32.6207
" />
<path d="M69.7355 32.6207
L69.8565 32.5603
" />
<path d="M69.8565 32.5603
L69.9169 32.4998
" />
<path d="M69.9169 32.4998
L69.9774 32.3788
" />
<path d="M69.9774 32.3788
L69.9774 32.1369
" />
<path d="M69.9774 32.1369
L69.9169 32.0160
" />
<path d="M69.9169 32.0160
L69.8565 31.9555
" />
<path d="M69.8565 31.9555
L69.7355 31.8950
" />
</g></g>
<g style="fill:#000000; fill-opacity:0.0; 
stroke:#000000; stroke-width:0.1588; stroke-opacity:1; 
stroke-linecap:round; stroke-linejoin:round;">
<text x="56.9594" y="4.9530"
textLength="2.6415" font-size="1.6933" lengthAdjust="spacingAndGlyphs"
text-anchor="middle" opacity="0">U?</text>
<g class="stroked-text"><desc>U?</desc>
<path d="M56.0522 3.6272
L56.0522 4.6553
" />
<path d="M56.0522 4.6553
L56.1127 4.7763
" />
<path d="M56.1127 4.7763
L56.1732 4.8368
" />
<path d="M56.1732 4.8368
L56.2941 4.8972
" />
<path d="M56.2941 4.8972
L56.5360 4.8972
" />
<path d="M56.5360 4.8972
L56.6570 4.8368
" />
<path d="M56.6570 4.8368
L56.7175 4.7763
" />
<path d="M56.7175 4.7763
L56.7779 4.6553
" />
<path d="M56.7779 4.6553
L56.7779 3.6272
" />
<path d="M57.5642 4.7763
L57.6246 4.8368
" />
<path d="M57.6246 4.8368
L57.5642 4.8972
" />
<path d="M57.5642 4.8972
L57.5037 4.8368
" />
<path d="M57.5037 4.8368
L57.5642 4.7763
" />
<path d="M57.5642 4.7763
L57.5642 4.8972
" />
<path d="M57.3223 3.6877
L57.4432 3.6272
" />
<path d="M57.4432 3.6272
L57.7456 3.6272
" />
<path d="M57.7456 3.6272
L57.8665 3.6877
" />
<path d="M57.8665 3.6877
L57.9270 3.8087
" />
<path d="M57.9270 3.8087
L57.9270 3.9296
" />
<path d="M57.9270 3.9296
L57.8665 4.0506
" />
<path d="M57.8665 4.0506
L57.8061 4.1110
" />
<path d="M57.8061 4.1110
L57.6851 4.1715
" />
<path d="M57.6851 4.1715
L57.6246 4.2320
" />
<path d="M57.6246 4.2320
L57.5642 4.3529
" />
<path d="M57.5642 4.3529
L57.5642 4.4134
" />
</g><text x="78.3679" y="4.9530"
textLength="12.4385" font-size="1.6933" lengthAdjust="spacingAndGlyphs"
text-anchor="middle" opacity="0">ISL8117FVEZ</text>
<g class="stroked-text"><desc>ISL8117FVEZ</desc>
<path d="M72.5622 4.8972
L72.5622 3.6272
" />
<path d="M73.1066 4.8368
L73.2880 4.8972
" />
<path d="M73.2880 4.8972
L73.5904 4.8972
" />
<path d="M73.5904 4.8972
L73.7113 4.8368
" />
<path d="M73.7113 4.8368
L73.7718 4.7763
" />
<path d="M73.7718 4.7763
L73.8323 4.6553
" />
<path d="M73.8323 4.6553
L73.8323 4.5344
" />
<path d="M73.8323 4.5344
L73.7718 4.4134
" />
<path d="M73.7718 4.4134
L73.7113 4.3529
" />
<path d="M73.7113 4.3529
L73.5904 4.2925
" />
<path d="M73.5904 4.2925
L73.3485 4.2320
" />
<path d="M73.3485 4.2320
L73.2275 4.1715
" />
<path d="M73.2275 4.1715
L73.1670 4.1110
" />
<path d="M73.1670 4.1110
L73.1066 3.9901
" />
<path d="M73.1066 3.9901
L73.1066 3.8691
" />
<path d="M73.1066 3.8691
L73.1670 3.7482
" />
<path d="M73.1670 3.7482
L73.2275 3.6877
" />
<path d="M73.2275 3.6877
L73.3485 3.6272
" />
<path d="M73.3485 3.6272
L73.6508 3.6272
" />
<path d="M73.6508 3.6272
L73.8323 3.6877
" />
<path d="M74.9813 4.8972
L74.3765 4.8972
" />
<path d="M74.3765 4.8972
L74.3765 3.6272
" />
<path d="M75.5861 4.1715
L75.4651 4.1110
" />
<path d="M75.4651 4.1110
L75.4046 4.0506
" />
<path d="M75.4046 4.0506
L75.3442 3.9296
" />
<path d="M75.3442 3.9296
L75.3442 3.8691
" />
<path d="M75.3442 3.8691
L75.4046 3.7482
" />
<path d="M75.4046 3.7482
L75.4651 3.6877
" />
<path d="M75.4651 3.6877
L75.5861 3.6272
" />
<path d="M75.5861 3.6272
L75.8280 3.6272
" />
<path d="M75.8280 3.6272
L75.9489 3.6877
" />
<path d="M75.9489 3.6877
L76.0094 3.7482
" />
<path d="M76.0094 3.7482
L76.0699 3.8691
" />
<path d="M76.0699 3.8691
L76.0699 3.9296
" />
<path d="M76.0699 3.9296
L76.0094 4.0506
" />
<path d="M76.0094 4.0506
L75.9489 4.1110
" />
<path d="M75.9489 4.1110
L75.8280 4.1715
" />
<path d="M75.8280 4.1715
L75.5861 4.1715
" />
<path d="M75.5861 4.1715
L75.4651 4.2320
" />
<path d="M75.4651 4.2320
L75.4046 4.2925
" />
<path d="M75.4046 4.2925
L75.3442 4.4134
" />
<path d="M75.3442 4.4134
L75.3442 4.6553
" />
<path d="M75.3442 4.6553
L75.4046 4.7763
" />
<path d="M75.4046 4.7763
L75.4651 4.8368
" />
<path d="M75.4651 4.8368
L75.5861 4.8972
" />
<path d="M75.5861 4.8972
L75.8280 4.8972
" />
<path d="M75.8280 4.8972
L75.9489 4.8368
" />
<path d="M75.9489 4.8368
L76.0094 4.7763
" />
<path d="M76.0094 4.7763
L76.0699 4.6553
" />
<path d="M76.0699 4.6553
L76.0699 4.4134
" />
<path d="M76.0699 4.4134
L76.0094 4.2925
" />
<path d="M76.0094 4.2925
L75.9489 4.2320
" />
<path d="M75.9489 4.2320
L75.8280 4.1715
" />
<path d="M77.2794 4.8972
L76.5537 4.8972
" />
<path d="M76.9165 4.8972
L76.9165 3.6272
" />
<path d="M76.9165 3.6272
L76.7956 3.8087
" />
<path d="M76.7956 3.8087
L76.6746 3.9296
" />
<path d="M76.6746 3.9296
L76.5537 3.9901
" />
<path d="M78.4889 4.8972
L77.7632 4.8972
" />
<path d="M78.1260 4.8972
L78.1260 3.6272
" />
<path d="M78.1260 3.6272
L78.0051 3.8087
" />
<path d="M78.0051 3.8087
L77.8841 3.9296
" />
<path d="M77.8841 3.9296
L77.7632 3.9901
" />
<path d="M78.9122 3.6272
L79.7588 3.6272
" />
<path d="M79.7588 3.6272
L79.2146 4.8972
" />
<path d="M80.6660 4.2320
L80.2426 4.2320
" />
<path d="M80.2426 4.8972
L80.2426 3.6272
" />
<path d="M80.2426 3.6272
L80.8474 3.6272
" />
<path d="M81.1498 3.6272
L81.5731 4.8972
" />
<path d="M81.5731 4.8972
L81.9965 3.6272
" />
<path d="M82.4198 4.2320
L82.8432 4.2320
" />
<path d="M83.0246 4.8972
L82.4198 4.8972
" />
<path d="M82.4198 4.8972
L82.4198 3.6272
" />
<path d="M82.4198 3.6272
L83.0246 3.6272
" />
<path d="M83.4479 3.6272
L84.2945 3.6272
" />
<path d="M84.2945 3.6272
L83.4479 4.8972
" />
<path d="M83.4479 4.8972
L84.2945 4.8972
" />
</g></g> 
</svg>
