<?xml version="1.0" standalone="no"?>
 <!DOCTYPE svg PUBLIC "-//W3C//DTD SVG 1.1//EN" 
 "http://www.w3.org/Graphics/SVG/1.1/DTD/svg11.dtd"> 
<svg
  xmlns:svg="http://www.w3.org/2000/svg"
  xmlns="http://www.w3.org/2000/svg"
  xmlns:xlink="http://www.w3.org/1999/xlink"
  version="1.1"
  width="59.0804mm" height="56.0832mm" viewBox="0.0000 0.0000 59.0804 56.0832">
<title>SVG Image created as tps61230drc.svg date 2024/01/16 15:21:26 </title>
  <desc>Image generated by Eeschema-SVG </desc>
<g style="fill:#000000; fill-opacity:1.0000;stroke:#000000; stroke-opacity:1.0000;
stroke-linecap:round; stroke-linejoin:round;"
 transform="translate(0 0) scale(1 1)">
</g>
<g style="fill:#000000; fill-opacity:0.0; 
stroke:#000000; stroke-width:0.0000; stroke-opacity:1; 
stroke-linecap:round; stroke-linejoin:round;">
</g>
<g style="fill:#000000; fill-opacity:0.0; 
stroke:#000000; stroke-width:0.2540; stroke-opacity:1; 
stroke-linecap:round; stroke-linejoin:round;">
<rect x="21.920200" y="20.421600" width="15.240000" height="15.240000" rx="0.000000" />
</g>
<g style="fill:#000000; fill-opacity:0.0; 
stroke:#000000; stroke-width:0.1524; stroke-opacity:1; 
stroke-linecap:round; stroke-linejoin:round;">
<path d="M37.1602 22.9616
L39.7002 22.9616
" />
<text x="36.6522" y="23.5966"
textLength="2.8641" font-size="1.6933" lengthAdjust="spacingAndGlyphs"
text-anchor="end" opacity="0">SW</text>
<g class="stroked-text"><desc>SW</desc>
<path d="M34.1330 23.4807
L34.3144 23.5411
" />
<path d="M34.3144 23.5411
L34.6168 23.5411
" />
<path d="M34.6168 23.5411
L34.7377 23.4807
" />
<path d="M34.7377 23.4807
L34.7982 23.4202
" />
<path d="M34.7982 23.4202
L34.8587 23.2992
" />
<path d="M34.8587 23.2992
L34.8587 23.1783
" />
<path d="M34.8587 23.1783
L34.7982 23.0573
" />
<path d="M34.7982 23.0573
L34.7377 22.9968
" />
<path d="M34.7377 22.9968
L34.6168 22.9364
" />
<path d="M34.6168 22.9364
L34.3749 22.8759
" />
<path d="M34.3749 22.8759
L34.2539 22.8154
" />
<path d="M34.2539 22.8154
L34.1934 22.7549
" />
<path d="M34.1934 22.7549
L34.1330 22.6340
" />
<path d="M34.1330 22.6340
L34.1330 22.5130
" />
<path d="M34.1330 22.5130
L34.1934 22.3921
" />
<path d="M34.1934 22.3921
L34.2539 22.3316
" />
<path d="M34.2539 22.3316
L34.3749 22.2711
" />
<path d="M34.3749 22.2711
L34.6772 22.2711
" />
<path d="M34.6772 22.2711
L34.8587 22.3316
" />
<path d="M35.2820 22.2711
L35.5844 23.5411
" />
<path d="M35.5844 23.5411
L35.8263 22.6340
" />
<path d="M35.8263 22.6340
L36.0682 23.5411
" />
<path d="M36.0682 23.5411
L36.3706 22.2711
" />
</g><text x="38.4302" y="22.7076"
textLength="1.4127" font-size="1.6933" lengthAdjust="spacingAndGlyphs"
text-anchor="middle" opacity="0">1</text>
<g class="stroked-text"><desc>1</desc>
<path d="M38.7931 22.5441
L38.0674 22.5441
" />
<path d="M38.4302 22.5441
L38.4302 21.2741
" />
<path d="M38.4302 21.2741
L38.3093 21.4556
" />
<path d="M38.3093 21.4556
L38.1883 21.5765
" />
<path d="M38.1883 21.5765
L38.0674 21.6370
" />
</g><path d="M21.9202 22.9616
L19.3802 22.9616
" />
<text x="22.4282" y="23.5966"
textLength="3.2271" font-size="1.6933" lengthAdjust="spacingAndGlyphs"
text-anchor="start" opacity="0">VIN</text>
<g class="stroked-text"><desc>VIN</desc>
<path d="M22.6493 22.2711
L23.0726 23.5411
" />
<path d="M23.0726 23.5411
L23.4960 22.2711
" />
<path d="M23.9193 23.5411
L23.9193 22.2711
" />
<path d="M24.5241 23.5411
L24.5241 22.2711
" />
<path d="M24.5241 22.2711
L25.2498 23.5411
" />
<path d="M25.2498 23.5411
L25.2498 22.2711
" />
</g><text x="20.6502" y="22.7076"
textLength="2.6222" font-size="1.6933" lengthAdjust="spacingAndGlyphs"
text-anchor="middle" opacity="0">10</text>
<g class="stroked-text"><desc>10</desc>
<path d="M20.4083 22.5441
L19.6826 22.5441
" />
<path d="M20.0454 22.5441
L20.0454 21.2741
" />
<path d="M20.0454 21.2741
L19.9245 21.4556
" />
<path d="M19.9245 21.4556
L19.8035 21.5765
" />
<path d="M19.8035 21.5765
L19.6826 21.6370
" />
<path d="M21.1944 21.2741
L21.3154 21.2741
" />
<path d="M21.3154 21.2741
L21.4363 21.3346
" />
<path d="M21.4363 21.3346
L21.4968 21.3951
" />
<path d="M21.4968 21.3951
L21.5573 21.5160
" />
<path d="M21.5573 21.5160
L21.6178 21.7579
" />
<path d="M21.6178 21.7579
L21.6178 22.0603
" />
<path d="M21.6178 22.0603
L21.5573 22.3022
" />
<path d="M21.5573 22.3022
L21.4968 22.4232
" />
<path d="M21.4968 22.4232
L21.4363 22.4837
" />
<path d="M21.4363 22.4837
L21.3154 22.5441
" />
<path d="M21.3154 22.5441
L21.1944 22.5441
" />
<path d="M21.1944 22.5441
L21.0735 22.4837
" />
<path d="M21.0735 22.4837
L21.0130 22.4232
" />
<path d="M21.0130 22.4232
L20.9525 22.3022
" />
<path d="M20.9525 22.3022
L20.8921 22.0603
" />
<path d="M20.8921 22.0603
L20.8921 21.7579
" />
<path d="M20.8921 21.7579
L20.9525 21.5160
" />
<path d="M20.9525 21.5160
L21.0130 21.3951
" />
<path d="M21.0130 21.3951
L21.0735 21.3346
" />
<path d="M21.0735 21.3346
L21.1944 21.2741
" />
</g><path d="M29.5402 35.6616
L29.5402 38.2016
" />
<g transform="rotate(-90.000000 29.5402 35.1536)">
<text x="29.5402" y="35.7886"
textLength="4.0737" font-size="1.6933" lengthAdjust="spacingAndGlyphs"
text-anchor="start" opacity="0">GND</text>
</g>
<g class="stroked-text"><desc>GND</desc>
<path d="M28.9102 34.0857
L28.8497 34.2067
" />
<path d="M28.8497 34.2067
L28.8497 34.3881
" />
<path d="M28.8497 34.3881
L28.9102 34.5695
" />
<path d="M28.9102 34.5695
L29.0312 34.6905
" />
<path d="M29.0312 34.6905
L29.1521 34.7510
" />
<path d="M29.1521 34.7510
L29.3940 34.8114
" />
<path d="M29.3940 34.8114
L29.5754 34.8114
" />
<path d="M29.5754 34.8114
L29.8173 34.7510
" />
<path d="M29.8173 34.7510
L29.9383 34.6905
" />
<path d="M29.9383 34.6905
L30.0593 34.5695
" />
<path d="M30.0593 34.5695
L30.1197 34.3881
" />
<path d="M30.1197 34.3881
L30.1197 34.2672
" />
<path d="M30.1197 34.2672
L30.0593 34.0857
" />
<path d="M30.0593 34.0857
L29.9988 34.0253
" />
<path d="M29.9988 34.0253
L29.5754 34.0253
" />
<path d="M29.5754 34.0253
L29.5754 34.2672
" />
<path d="M30.1197 33.4810
L28.8497 33.4810
" />
<path d="M28.8497 33.4810
L30.1197 32.7553
" />
<path d="M30.1197 32.7553
L28.8497 32.7553
" />
<path d="M30.1197 32.1505
L28.8497 32.1505
" />
<path d="M28.8497 32.1505
L28.8497 31.8481
" />
<path d="M28.8497 31.8481
L28.9102 31.6667
" />
<path d="M28.9102 31.6667
L29.0312 31.5457
" />
<path d="M29.0312 31.5457
L29.1521 31.4852
" />
<path d="M29.1521 31.4852
L29.3940 31.4248
" />
<path d="M29.3940 31.4248
L29.5754 31.4248
" />
<path d="M29.5754 31.4248
L29.8173 31.4852
" />
<path d="M29.8173 31.4852
L29.9383 31.5457
" />
<path d="M29.9383 31.5457
L30.0593 31.6667
" />
<path d="M30.0593 31.6667
L30.1197 31.8481
" />
<path d="M30.1197 31.8481
L30.1197 32.1505
" />
</g><g transform="rotate(-90.000000 29.2862 36.9316)">
<text x="29.2862" y="36.9316"
textLength="2.6222" font-size="1.6933" lengthAdjust="spacingAndGlyphs"
text-anchor="middle" opacity="0">11</text>
</g>
<g class="stroked-text"><desc>11</desc>
<path d="M29.1227 37.1734
L29.1227 37.8991
" />
<path d="M29.1227 37.5363
L27.8527 37.5363
" />
<path d="M27.8527 37.5363
L28.0342 37.6572
" />
<path d="M28.0342 37.6572
L28.1551 37.7782
" />
<path d="M28.1551 37.7782
L28.2156 37.8991
" />
<path d="M29.1227 35.9639
L29.1227 36.6896
" />
<path d="M29.1227 36.3268
L27.8527 36.3268
" />
<path d="M27.8527 36.3268
L28.0342 36.4477
" />
<path d="M28.0342 36.4477
L28.1551 36.5687
" />
<path d="M28.1551 36.5687
L28.2156 36.6896
" />
</g><path d="M37.1602 25.5016
L39.7002 25.5016
" />
<text x="36.6522" y="26.1366"
textLength="4.9204" font-size="1.6933" lengthAdjust="spacingAndGlyphs"
text-anchor="end" opacity="0">VOUT</text>
<g class="stroked-text"><desc>VOUT</desc>
<path d="M31.9557 24.8111
L32.3790 26.0811
" />
<path d="M32.3790 26.0811
L32.8024 24.8111
" />
<path d="M33.4676 24.8111
L33.7095 24.8111
" />
<path d="M33.7095 24.8111
L33.8305 24.8716
" />
<path d="M33.8305 24.8716
L33.9514 24.9926
" />
<path d="M33.9514 24.9926
L34.0119 25.2345
" />
<path d="M34.0119 25.2345
L34.0119 25.6578
" />
<path d="M34.0119 25.6578
L33.9514 25.8997
" />
<path d="M33.9514 25.8997
L33.8305 26.0207
" />
<path d="M33.8305 26.0207
L33.7095 26.0811
" />
<path d="M33.7095 26.0811
L33.4676 26.0811
" />
<path d="M33.4676 26.0811
L33.3467 26.0207
" />
<path d="M33.3467 26.0207
L33.2257 25.8997
" />
<path d="M33.2257 25.8997
L33.1653 25.6578
" />
<path d="M33.1653 25.6578
L33.1653 25.2345
" />
<path d="M33.1653 25.2345
L33.2257 24.9926
" />
<path d="M33.2257 24.9926
L33.3467 24.8716
" />
<path d="M33.3467 24.8716
L33.4676 24.8111
" />
<path d="M34.5562 24.8111
L34.5562 25.8392
" />
<path d="M34.5562 25.8392
L34.6167 25.9602
" />
<path d="M34.6167 25.9602
L34.6772 26.0207
" />
<path d="M34.6772 26.0207
L34.7981 26.0811
" />
<path d="M34.7981 26.0811
L35.0400 26.0811
" />
<path d="M35.0400 26.0811
L35.1610 26.0207
" />
<path d="M35.1610 26.0207
L35.2215 25.9602
" />
<path d="M35.2215 25.9602
L35.2819 25.8392
" />
<path d="M35.2819 25.8392
L35.2819 24.8111
" />
<path d="M35.7053 24.8111
L36.4310 24.8111
" />
<path d="M36.0682 26.0811
L36.0682 24.8111
" />
</g><text x="38.4302" y="25.2476"
textLength="1.4127" font-size="1.6933" lengthAdjust="spacingAndGlyphs"
text-anchor="middle" opacity="0">3</text>
<g class="stroked-text"><desc>3</desc>
<path d="M38.0069 23.8141
L38.7931 23.8141
" />
<path d="M38.7931 23.8141
L38.3697 24.2979
" />
<path d="M38.3697 24.2979
L38.5512 24.2979
" />
<path d="M38.5512 24.2979
L38.6721 24.3584
" />
<path d="M38.6721 24.3584
L38.7326 24.4189
" />
<path d="M38.7326 24.4189
L38.7931 24.5398
" />
<path d="M38.7931 24.5398
L38.7931 24.8422
" />
<path d="M38.7931 24.8422
L38.7326 24.9632
" />
<path d="M38.7326 24.9632
L38.6721 25.0237
" />
<path d="M38.6721 25.0237
L38.5512 25.0841
" />
<path d="M38.5512 25.0841
L38.1883 25.0841
" />
<path d="M38.1883 25.0841
L38.0674 25.0237
" />
<path d="M38.0674 25.0237
L38.0069 24.9632
" />
</g><path d="M37.1602 33.1216
L39.7002 33.1216
" />
<text x="36.6522" y="33.7566"
textLength="2.7432" font-size="1.6933" lengthAdjust="spacingAndGlyphs"
text-anchor="end" opacity="0">PG</text>
<g class="stroked-text"><desc>PG</desc>
<path d="M34.3143 33.7011
L34.3143 32.4311
" />
<path d="M34.3143 32.4311
L34.7981 32.4311
" />
<path d="M34.7981 32.4311
L34.9191 32.4916
" />
<path d="M34.9191 32.4916
L34.9796 32.5521
" />
<path d="M34.9796 32.5521
L35.0400 32.6730
" />
<path d="M35.0400 32.6730
L35.0400 32.8545
" />
<path d="M35.0400 32.8545
L34.9796 32.9754
" />
<path d="M34.9796 32.9754
L34.9191 33.0359
" />
<path d="M34.9191 33.0359
L34.7981 33.0964
" />
<path d="M34.7981 33.0964
L34.3143 33.0964
" />
<path d="M36.2496 32.4916
L36.1286 32.4311
" />
<path d="M36.1286 32.4311
L35.9472 32.4311
" />
<path d="M35.9472 32.4311
L35.7658 32.4916
" />
<path d="M35.7658 32.4916
L35.6448 32.6126
" />
<path d="M35.6448 32.6126
L35.5843 32.7335
" />
<path d="M35.5843 32.7335
L35.5239 32.9754
" />
<path d="M35.5239 32.9754
L35.5239 33.1568
" />
<path d="M35.5239 33.1568
L35.5843 33.3987
" />
<path d="M35.5843 33.3987
L35.6448 33.5197
" />
<path d="M35.6448 33.5197
L35.7658 33.6407
" />
<path d="M35.7658 33.6407
L35.9472 33.7011
" />
<path d="M35.9472 33.7011
L36.0681 33.7011
" />
<path d="M36.0681 33.7011
L36.2496 33.6407
" />
<path d="M36.2496 33.6407
L36.3100 33.5802
" />
<path d="M36.3100 33.5802
L36.3100 33.1568
" />
<path d="M36.3100 33.1568
L36.0681 33.1568
" />
</g><text x="38.4302" y="32.8676"
textLength="1.4127" font-size="1.6933" lengthAdjust="spacingAndGlyphs"
text-anchor="middle" opacity="0">5</text>
<g class="stroked-text"><desc>5</desc>
<path d="M38.7326 31.4341
L38.1278 31.4341
" />
<path d="M38.1278 31.4341
L38.0674 32.0389
" />
<path d="M38.0674 32.0389
L38.1278 31.9784
" />
<path d="M38.1278 31.9784
L38.2488 31.9179
" />
<path d="M38.2488 31.9179
L38.5512 31.9179
" />
<path d="M38.5512 31.9179
L38.6721 31.9784
" />
<path d="M38.6721 31.9784
L38.7326 32.0389
" />
<path d="M38.7326 32.0389
L38.7931 32.1598
" />
<path d="M38.7931 32.1598
L38.7931 32.4622
" />
<path d="M38.7931 32.4622
L38.7326 32.5832
" />
<path d="M38.7326 32.5832
L38.6721 32.6437
" />
<path d="M38.6721 32.6437
L38.5512 32.7041
" />
<path d="M38.5512 32.7041
L38.2488 32.7041
" />
<path d="M38.2488 32.7041
L38.1278 32.6437
" />
<path d="M38.1278 32.6437
L38.0674 32.5832
" />
</g><path d="M21.9202 33.1216
L19.3802 33.1216
" />
<text x="22.4282" y="33.7566"
textLength="2.6222" font-size="1.6933" lengthAdjust="spacingAndGlyphs"
text-anchor="start" opacity="0">SS</text>
<g class="stroked-text"><desc>SS</desc>
<path d="M22.7703 33.6407
L22.9517 33.7011
" />
<path d="M22.9517 33.7011
L23.2541 33.7011
" />
<path d="M23.2541 33.7011
L23.3750 33.6407
" />
<path d="M23.3750 33.6407
L23.4355 33.5802
" />
<path d="M23.4355 33.5802
L23.4960 33.4592
" />
<path d="M23.4960 33.4592
L23.4960 33.3383
" />
<path d="M23.4960 33.3383
L23.4355 33.2173
" />
<path d="M23.4355 33.2173
L23.3750 33.1568
" />
<path d="M23.3750 33.1568
L23.2541 33.0964
" />
<path d="M23.2541 33.0964
L23.0122 33.0359
" />
<path d="M23.0122 33.0359
L22.8912 32.9754
" />
<path d="M22.8912 32.9754
L22.8307 32.9149
" />
<path d="M22.8307 32.9149
L22.7703 32.7940
" />
<path d="M22.7703 32.7940
L22.7703 32.6730
" />
<path d="M22.7703 32.6730
L22.8307 32.5521
" />
<path d="M22.8307 32.5521
L22.8912 32.4916
" />
<path d="M22.8912 32.4916
L23.0122 32.4311
" />
<path d="M23.0122 32.4311
L23.3145 32.4311
" />
<path d="M23.3145 32.4311
L23.4960 32.4916
" />
<path d="M23.9798 33.6407
L24.1612 33.7011
" />
<path d="M24.1612 33.7011
L24.4636 33.7011
" />
<path d="M24.4636 33.7011
L24.5845 33.6407
" />
<path d="M24.5845 33.6407
L24.6450 33.5802
" />
<path d="M24.6450 33.5802
L24.7055 33.4592
" />
<path d="M24.7055 33.4592
L24.7055 33.3383
" />
<path d="M24.7055 33.3383
L24.6450 33.2173
" />
<path d="M24.6450 33.2173
L24.5845 33.1568
" />
<path d="M24.5845 33.1568
L24.4636 33.0964
" />
<path d="M24.4636 33.0964
L24.2217 33.0359
" />
<path d="M24.2217 33.0359
L24.1007 32.9754
" />
<path d="M24.1007 32.9754
L24.0402 32.9149
" />
<path d="M24.0402 32.9149
L23.9798 32.7940
" />
<path d="M23.9798 32.7940
L23.9798 32.6730
" />
<path d="M23.9798 32.6730
L24.0402 32.5521
" />
<path d="M24.0402 32.5521
L24.1007 32.4916
" />
<path d="M24.1007 32.4916
L24.2217 32.4311
" />
<path d="M24.2217 32.4311
L24.5240 32.4311
" />
<path d="M24.5240 32.4311
L24.7055 32.4916
" />
</g><text x="20.6502" y="32.8676"
textLength="1.4127" font-size="1.6933" lengthAdjust="spacingAndGlyphs"
text-anchor="middle" opacity="0">6</text>
<g class="stroked-text"><desc>6</desc>
<path d="M20.8921 31.4341
L20.6502 31.4341
" />
<path d="M20.6502 31.4341
L20.5293 31.4946
" />
<path d="M20.5293 31.4946
L20.4688 31.5551
" />
<path d="M20.4688 31.5551
L20.3478 31.7365
" />
<path d="M20.3478 31.7365
L20.2874 31.9784
" />
<path d="M20.2874 31.9784
L20.2874 32.4622
" />
<path d="M20.2874 32.4622
L20.3478 32.5832
" />
<path d="M20.3478 32.5832
L20.4083 32.6437
" />
<path d="M20.4083 32.6437
L20.5293 32.7041
" />
<path d="M20.5293 32.7041
L20.7712 32.7041
" />
<path d="M20.7712 32.7041
L20.8921 32.6437
" />
<path d="M20.8921 32.6437
L20.9526 32.5832
" />
<path d="M20.9526 32.5832
L21.0131 32.4622
" />
<path d="M21.0131 32.4622
L21.0131 32.1598
" />
<path d="M21.0131 32.1598
L20.9526 32.0389
" />
<path d="M20.9526 32.0389
L20.8921 31.9784
" />
<path d="M20.8921 31.9784
L20.7712 31.9179
" />
<path d="M20.7712 31.9179
L20.5293 31.9179
" />
<path d="M20.5293 31.9179
L20.4083 31.9784
" />
<path d="M20.4083 31.9784
L20.3478 32.0389
" />
<path d="M20.3478 32.0389
L20.2874 32.1598
" />
</g><path d="M37.1602 28.0416
L39.7002 28.0416
" />
<text x="36.6522" y="28.6766"
textLength="2.5618" font-size="1.6933" lengthAdjust="spacingAndGlyphs"
text-anchor="end" opacity="0">FB</text>
<g class="stroked-text"><desc>FB</desc>
<path d="M34.9191 27.9559
L34.4957 27.9559
" />
<path d="M34.4957 28.6211
L34.4957 27.3511
" />
<path d="M34.4957 27.3511
L35.1005 27.3511
" />
<path d="M36.0077 27.9559
L36.1891 28.0164
" />
<path d="M36.1891 28.0164
L36.2496 28.0768
" />
<path d="M36.2496 28.0768
L36.3100 28.1978
" />
<path d="M36.3100 28.1978
L36.3100 28.3792
" />
<path d="M36.3100 28.3792
L36.2496 28.5002
" />
<path d="M36.2496 28.5002
L36.1891 28.5607
" />
<path d="M36.1891 28.5607
L36.0681 28.6211
" />
<path d="M36.0681 28.6211
L35.5843 28.6211
" />
<path d="M35.5843 28.6211
L35.5843 27.3511
" />
<path d="M35.5843 27.3511
L36.0077 27.3511
" />
<path d="M36.0077 27.3511
L36.1286 27.4116
" />
<path d="M36.1286 27.4116
L36.1891 27.4721
" />
<path d="M36.1891 27.4721
L36.2496 27.5930
" />
<path d="M36.2496 27.5930
L36.2496 27.7140
" />
<path d="M36.2496 27.7140
L36.1891 27.8349
" />
<path d="M36.1891 27.8349
L36.1286 27.8954
" />
<path d="M36.1286 27.8954
L36.0077 27.9559
" />
<path d="M36.0077 27.9559
L35.5843 27.9559
" />
</g><text x="38.4302" y="27.7876"
textLength="1.4127" font-size="1.6933" lengthAdjust="spacingAndGlyphs"
text-anchor="middle" opacity="0">7</text>
<g class="stroked-text"><desc>7</desc>
<path d="M38.0069 26.3541
L38.8535 26.3541
" />
<path d="M38.8535 26.3541
L38.3093 27.6241
" />
</g><path d="M21.9202 28.0416
L19.3802 28.0416
" />
<text x="22.4282" y="28.6766"
textLength="3.8318" font-size="1.6933" lengthAdjust="spacingAndGlyphs"
text-anchor="start" opacity="0">HYS</text>
<g class="stroked-text"><desc>HYS</desc>
<path d="M22.8307 28.6211
L22.8307 27.3511
" />
<path d="M22.8307 27.9559
L23.5564 27.9559
" />
<path d="M23.5564 28.6211
L23.5564 27.3511
" />
<path d="M24.4031 28.0164
L24.4031 28.6211
" />
<path d="M23.9798 27.3511
L24.4031 28.0164
" />
<path d="M24.4031 28.0164
L24.8265 27.3511
" />
<path d="M25.1894 28.5607
L25.3708 28.6211
" />
<path d="M25.3708 28.6211
L25.6732 28.6211
" />
<path d="M25.6732 28.6211
L25.7941 28.5607
" />
<path d="M25.7941 28.5607
L25.8546 28.5002
" />
<path d="M25.8546 28.5002
L25.9151 28.3792
" />
<path d="M25.9151 28.3792
L25.9151 28.2583
" />
<path d="M25.9151 28.2583
L25.8546 28.1373
" />
<path d="M25.8546 28.1373
L25.7941 28.0768
" />
<path d="M25.7941 28.0768
L25.6732 28.0164
" />
<path d="M25.6732 28.0164
L25.4313 27.9559
" />
<path d="M25.4313 27.9559
L25.3103 27.8954
" />
<path d="M25.3103 27.8954
L25.2498 27.8349
" />
<path d="M25.2498 27.8349
L25.1894 27.7140
" />
<path d="M25.1894 27.7140
L25.1894 27.5930
" />
<path d="M25.1894 27.5930
L25.2498 27.4721
" />
<path d="M25.2498 27.4721
L25.3103 27.4116
" />
<path d="M25.3103 27.4116
L25.4313 27.3511
" />
<path d="M25.4313 27.3511
L25.7336 27.3511
" />
<path d="M25.7336 27.3511
L25.9151 27.4116
" />
</g><text x="20.6502" y="27.7876"
textLength="1.4127" font-size="1.6933" lengthAdjust="spacingAndGlyphs"
text-anchor="middle" opacity="0">8</text>
<g class="stroked-text"><desc>8</desc>
<path d="M20.5293 26.8984
L20.4083 26.8379
" />
<path d="M20.4083 26.8379
L20.3478 26.7775
" />
<path d="M20.3478 26.7775
L20.2874 26.6565
" />
<path d="M20.2874 26.6565
L20.2874 26.5960
" />
<path d="M20.2874 26.5960
L20.3478 26.4751
" />
<path d="M20.3478 26.4751
L20.4083 26.4146
" />
<path d="M20.4083 26.4146
L20.5293 26.3541
" />
<path d="M20.5293 26.3541
L20.7712 26.3541
" />
<path d="M20.7712 26.3541
L20.8921 26.4146
" />
<path d="M20.8921 26.4146
L20.9526 26.4751
" />
<path d="M20.9526 26.4751
L21.0131 26.5960
" />
<path d="M21.0131 26.5960
L21.0131 26.6565
" />
<path d="M21.0131 26.6565
L20.9526 26.7775
" />
<path d="M20.9526 26.7775
L20.8921 26.8379
" />
<path d="M20.8921 26.8379
L20.7712 26.8984
" />
<path d="M20.7712 26.8984
L20.5293 26.8984
" />
<path d="M20.5293 26.8984
L20.4083 26.9589
" />
<path d="M20.4083 26.9589
L20.3478 27.0194
" />
<path d="M20.3478 27.0194
L20.2874 27.1403
" />
<path d="M20.2874 27.1403
L20.2874 27.3822
" />
<path d="M20.2874 27.3822
L20.3478 27.5032
" />
<path d="M20.3478 27.5032
L20.4083 27.5637
" />
<path d="M20.4083 27.5637
L20.5293 27.6241
" />
<path d="M20.5293 27.6241
L20.7712 27.6241
" />
<path d="M20.7712 27.6241
L20.8921 27.5637
" />
<path d="M20.8921 27.5637
L20.9526 27.5032
" />
<path d="M20.9526 27.5032
L21.0131 27.3822
" />
<path d="M21.0131 27.3822
L21.0131 27.1403
" />
<path d="M21.0131 27.1403
L20.9526 27.0194
" />
<path d="M20.9526 27.0194
L20.8921 26.9589
" />
<path d="M20.8921 26.9589
L20.7712 26.8984
" />
</g><path d="M21.9202 25.5016
L19.3802 25.5016
" />
<text x="22.4282" y="26.1366"
textLength="2.6827" font-size="1.6933" lengthAdjust="spacingAndGlyphs"
text-anchor="start" opacity="0">EN</text>
<g class="stroked-text"><desc>EN</desc>
<path d="M22.8307 25.4159
L23.2541 25.4159
" />
<path d="M23.4355 26.0811
L22.8307 26.0811
" />
<path d="M22.8307 26.0811
L22.8307 24.8111
" />
<path d="M22.8307 24.8111
L23.4355 24.8111
" />
<path d="M23.9797 26.0811
L23.9797 24.8111
" />
<path d="M23.9797 24.8111
L24.7054 26.0811
" />
<path d="M24.7054 26.0811
L24.7054 24.8111
" />
</g><text x="20.6502" y="25.2476"
textLength="1.4127" font-size="1.6933" lengthAdjust="spacingAndGlyphs"
text-anchor="middle" opacity="0">9</text>
<g class="stroked-text"><desc>9</desc>
<path d="M20.4083 25.0841
L20.6502 25.0841
" />
<path d="M20.6502 25.0841
L20.7712 25.0237
" />
<path d="M20.7712 25.0237
L20.8316 24.9632
" />
<path d="M20.8316 24.9632
L20.9526 24.7817
" />
<path d="M20.9526 24.7817
L21.0131 24.5398
" />
<path d="M21.0131 24.5398
L21.0131 24.0560
" />
<path d="M21.0131 24.0560
L20.9526 23.9351
" />
<path d="M20.9526 23.9351
L20.8921 23.8746
" />
<path d="M20.8921 23.8746
L20.7712 23.8141
" />
<path d="M20.7712 23.8141
L20.5293 23.8141
" />
<path d="M20.5293 23.8141
L20.4083 23.8746
" />
<path d="M20.4083 23.8746
L20.3478 23.9351
" />
<path d="M20.3478 23.9351
L20.2874 24.0560
" />
<path d="M20.2874 24.0560
L20.2874 24.3584
" />
<path d="M20.2874 24.3584
L20.3478 24.4794
" />
<path d="M20.3478 24.4794
L20.4083 24.5398
" />
<path d="M20.4083 24.5398
L20.5293 24.6003
" />
<path d="M20.5293 24.6003
L20.7712 24.6003
" />
<path d="M20.7712 24.6003
L20.8921 24.5398
" />
<path d="M20.8921 24.5398
L20.9526 24.4794
" />
<path d="M20.9526 24.4794
L21.0131 24.3584
" />
</g></g>
<g style="fill:#000000; fill-opacity:0.0; 
stroke:#000000; stroke-width:0.1588; stroke-opacity:1; 
stroke-linecap:round; stroke-linejoin:round;">
<text x="23.2409" y="17.9714"
textLength="2.6415" font-size="1.6933" lengthAdjust="spacingAndGlyphs"
text-anchor="middle" opacity="0">U?</text>
<g class="stroked-text"><desc>U?</desc>
<path d="M22.3337 16.6456
L22.3337 17.6737
" />
<path d="M22.3337 17.6737
L22.3942 17.7947
" />
<path d="M22.3942 17.7947
L22.4547 17.8552
" />
<path d="M22.4547 17.8552
L22.5756 17.9156
" />
<path d="M22.5756 17.9156
L22.8175 17.9156
" />
<path d="M22.8175 17.9156
L22.9385 17.8552
" />
<path d="M22.9385 17.8552
L22.9990 17.7947
" />
<path d="M22.9990 17.7947
L23.0594 17.6737
" />
<path d="M23.0594 17.6737
L23.0594 16.6456
" />
<path d="M23.8457 17.7947
L23.9061 17.8552
" />
<path d="M23.9061 17.8552
L23.8457 17.9156
" />
<path d="M23.8457 17.9156
L23.7852 17.8552
" />
<path d="M23.7852 17.8552
L23.8457 17.7947
" />
<path d="M23.8457 17.7947
L23.8457 17.9156
" />
<path d="M23.6038 16.7061
L23.7247 16.6456
" />
<path d="M23.7247 16.6456
L24.0271 16.6456
" />
<path d="M24.0271 16.6456
L24.1480 16.7061
" />
<path d="M24.1480 16.7061
L24.2085 16.8271
" />
<path d="M24.2085 16.8271
L24.2085 16.9480
" />
<path d="M24.2085 16.9480
L24.1480 17.0690
" />
<path d="M24.1480 17.0690
L24.0876 17.1294
" />
<path d="M24.0876 17.1294
L23.9666 17.1899
" />
<path d="M23.9666 17.1899
L23.9061 17.2504
" />
<path d="M23.9061 17.2504
L23.8457 17.3713
" />
<path d="M23.8457 17.3713
L23.8457 17.4318
" />
</g><text x="28.6837" y="19.7866"
textLength="13.5270" font-size="1.6933" lengthAdjust="spacingAndGlyphs"
text-anchor="middle" opacity="0">TPS61230DRC</text>
<g class="stroked-text"><desc>TPS61230DRC</desc>
<path d="M22.1523 18.4608
L22.8780 18.4608
" />
<path d="M22.5152 19.7308
L22.5152 18.4608
" />
<path d="M23.3013 19.7308
L23.3013 18.4608
" />
<path d="M23.3013 18.4608
L23.7851 18.4608
" />
<path d="M23.7851 18.4608
L23.9061 18.5213
" />
<path d="M23.9061 18.5213
L23.9666 18.5818
" />
<path d="M23.9666 18.5818
L24.0270 18.7027
" />
<path d="M24.0270 18.7027
L24.0270 18.8842
" />
<path d="M24.0270 18.8842
L23.9666 19.0051
" />
<path d="M23.9666 19.0051
L23.9061 19.0656
" />
<path d="M23.9061 19.0656
L23.7851 19.1261
" />
<path d="M23.7851 19.1261
L23.3013 19.1261
" />
<path d="M24.5109 19.6704
L24.6923 19.7308
" />
<path d="M24.6923 19.7308
L24.9947 19.7308
" />
<path d="M24.9947 19.7308
L25.1156 19.6704
" />
<path d="M25.1156 19.6704
L25.1761 19.6099
" />
<path d="M25.1761 19.6099
L25.2366 19.4889
" />
<path d="M25.2366 19.4889
L25.2366 19.3680
" />
<path d="M25.2366 19.3680
L25.1761 19.2470
" />
<path d="M25.1761 19.2470
L25.1156 19.1865
" />
<path d="M25.1156 19.1865
L24.9947 19.1261
" />
<path d="M24.9947 19.1261
L24.7528 19.0656
" />
<path d="M24.7528 19.0656
L24.6318 19.0051
" />
<path d="M24.6318 19.0051
L24.5713 18.9446
" />
<path d="M24.5713 18.9446
L24.5109 18.8237
" />
<path d="M24.5109 18.8237
L24.5109 18.7027
" />
<path d="M24.5109 18.7027
L24.5713 18.5818
" />
<path d="M24.5713 18.5818
L24.6318 18.5213
" />
<path d="M24.6318 18.5213
L24.7528 18.4608
" />
<path d="M24.7528 18.4608
L25.0551 18.4608
" />
<path d="M25.0551 18.4608
L25.2366 18.5213
" />
<path d="M26.3251 18.4608
L26.0832 18.4608
" />
<path d="M26.0832 18.4608
L25.9623 18.5213
" />
<path d="M25.9623 18.5213
L25.9018 18.5818
" />
<path d="M25.9018 18.5818
L25.7808 18.7632
" />
<path d="M25.7808 18.7632
L25.7204 19.0051
" />
<path d="M25.7204 19.0051
L25.7204 19.4889
" />
<path d="M25.7204 19.4889
L25.7808 19.6099
" />
<path d="M25.7808 19.6099
L25.8413 19.6704
" />
<path d="M25.8413 19.6704
L25.9623 19.7308
" />
<path d="M25.9623 19.7308
L26.2042 19.7308
" />
<path d="M26.2042 19.7308
L26.3251 19.6704
" />
<path d="M26.3251 19.6704
L26.3856 19.6099
" />
<path d="M26.3856 19.6099
L26.4461 19.4889
" />
<path d="M26.4461 19.4889
L26.4461 19.1865
" />
<path d="M26.4461 19.1865
L26.3856 19.0656
" />
<path d="M26.3856 19.0656
L26.3251 19.0051
" />
<path d="M26.3251 19.0051
L26.2042 18.9446
" />
<path d="M26.2042 18.9446
L25.9623 18.9446
" />
<path d="M25.9623 18.9446
L25.8413 19.0051
" />
<path d="M25.8413 19.0051
L25.7808 19.0656
" />
<path d="M25.7808 19.0656
L25.7204 19.1865
" />
<path d="M27.6556 19.7308
L26.9299 19.7308
" />
<path d="M27.2927 19.7308
L27.2927 18.4608
" />
<path d="M27.2927 18.4608
L27.1718 18.6423
" />
<path d="M27.1718 18.6423
L27.0508 18.7632
" />
<path d="M27.0508 18.7632
L26.9299 18.8237
" />
<path d="M28.1394 18.5818
L28.1998 18.5213
" />
<path d="M28.1998 18.5213
L28.3208 18.4608
" />
<path d="M28.3208 18.4608
L28.6232 18.4608
" />
<path d="M28.6232 18.4608
L28.7441 18.5213
" />
<path d="M28.7441 18.5213
L28.8046 18.5818
" />
<path d="M28.8046 18.5818
L28.8651 18.7027
" />
<path d="M28.8651 18.7027
L28.8651 18.8237
" />
<path d="M28.8651 18.8237
L28.8046 19.0051
" />
<path d="M28.8046 19.0051
L28.0789 19.7308
" />
<path d="M28.0789 19.7308
L28.8651 19.7308
" />
<path d="M29.2884 18.4608
L30.0746 18.4608
" />
<path d="M30.0746 18.4608
L29.6512 18.9446
" />
<path d="M29.6512 18.9446
L29.8327 18.9446
" />
<path d="M29.8327 18.9446
L29.9536 19.0051
" />
<path d="M29.9536 19.0051
L30.0141 19.0656
" />
<path d="M30.0141 19.0656
L30.0746 19.1865
" />
<path d="M30.0746 19.1865
L30.0746 19.4889
" />
<path d="M30.0746 19.4889
L30.0141 19.6099
" />
<path d="M30.0141 19.6099
L29.9536 19.6704
" />
<path d="M29.9536 19.6704
L29.8327 19.7308
" />
<path d="M29.8327 19.7308
L29.4698 19.7308
" />
<path d="M29.4698 19.7308
L29.3489 19.6704
" />
<path d="M29.3489 19.6704
L29.2884 19.6099
" />
<path d="M30.8607 18.4608
L30.9817 18.4608
" />
<path d="M30.9817 18.4608
L31.1026 18.5213
" />
<path d="M31.1026 18.5213
L31.1631 18.5818
" />
<path d="M31.1631 18.5818
L31.2236 18.7027
" />
<path d="M31.2236 18.7027
L31.2841 18.9446
" />
<path d="M31.2841 18.9446
L31.2841 19.2470
" />
<path d="M31.2841 19.2470
L31.2236 19.4889
" />
<path d="M31.2236 19.4889
L31.1631 19.6099
" />
<path d="M31.1631 19.6099
L31.1026 19.6704
" />
<path d="M31.1026 19.6704
L30.9817 19.7308
" />
<path d="M30.9817 19.7308
L30.8607 19.7308
" />
<path d="M30.8607 19.7308
L30.7398 19.6704
" />
<path d="M30.7398 19.6704
L30.6793 19.6099
" />
<path d="M30.6793 19.6099
L30.6188 19.4889
" />
<path d="M30.6188 19.4889
L30.5584 19.2470
" />
<path d="M30.5584 19.2470
L30.5584 18.9446
" />
<path d="M30.5584 18.9446
L30.6188 18.7027
" />
<path d="M30.6188 18.7027
L30.6793 18.5818
" />
<path d="M30.6793 18.5818
L30.7398 18.5213
" />
<path d="M30.7398 18.5213
L30.8607 18.4608
" />
<path d="M31.8283 19.7308
L31.8283 18.4608
" />
<path d="M31.8283 18.4608
L32.1307 18.4608
" />
<path d="M32.1307 18.4608
L32.3121 18.5213
" />
<path d="M32.3121 18.5213
L32.4331 18.6423
" />
<path d="M32.4331 18.6423
L32.4936 18.7632
" />
<path d="M32.4936 18.7632
L32.5540 19.0051
" />
<path d="M32.5540 19.0051
L32.5540 19.1865
" />
<path d="M32.5540 19.1865
L32.4936 19.4284
" />
<path d="M32.4936 19.4284
L32.4331 19.5494
" />
<path d="M32.4331 19.5494
L32.3121 19.6704
" />
<path d="M32.3121 19.6704
L32.1307 19.7308
" />
<path d="M32.1307 19.7308
L31.8283 19.7308
" />
<path d="M33.8240 19.7308
L33.4007 19.1261
" />
<path d="M33.0983 19.7308
L33.0983 18.4608
" />
<path d="M33.0983 18.4608
L33.5821 18.4608
" />
<path d="M33.5821 18.4608
L33.7031 18.5213
" />
<path d="M33.7031 18.5213
L33.7636 18.5818
" />
<path d="M33.7636 18.5818
L33.8240 18.7027
" />
<path d="M33.8240 18.7027
L33.8240 18.8842
" />
<path d="M33.8240 18.8842
L33.7636 19.0051
" />
<path d="M33.7636 19.0051
L33.7031 19.0656
" />
<path d="M33.7031 19.0656
L33.5821 19.1261
" />
<path d="M33.5821 19.1261
L33.0983 19.1261
" />
<path d="M35.0940 19.6099
L35.0336 19.6704
" />
<path d="M35.0336 19.6704
L34.8521 19.7308
" />
<path d="M34.8521 19.7308
L34.7312 19.7308
" />
<path d="M34.7312 19.7308
L34.5498 19.6704
" />
<path d="M34.5498 19.6704
L34.4288 19.5494
" />
<path d="M34.4288 19.5494
L34.3683 19.4284
" />
<path d="M34.3683 19.4284
L34.3079 19.1865
" />
<path d="M34.3079 19.1865
L34.3079 19.0051
" />
<path d="M34.3079 19.0051
L34.3683 18.7632
" />
<path d="M34.3683 18.7632
L34.4288 18.6423
" />
<path d="M34.4288 18.6423
L34.5498 18.5213
" />
<path d="M34.5498 18.5213
L34.7312 18.4608
" />
<path d="M34.7312 18.4608
L34.8521 18.4608
" />
<path d="M34.8521 18.4608
L35.0336 18.5213
" />
<path d="M35.0336 18.5213
L35.0940 18.5818
" />
</g></g> 
</svg>
