<?xml version="1.0" standalone="no"?>
 <!DOCTYPE svg PUBLIC "-//W3C//DTD SVG 1.1//EN" 
 "http://www.w3.org/Graphics/SVG/1.1/DTD/svg11.dtd"> 
<svg
  xmlns:svg="http://www.w3.org/2000/svg"
  xmlns="http://www.w3.org/2000/svg"
  xmlns:xlink="http://www.w3.org/1999/xlink"
  version="1.1"
  width="80.4672mm" height="27.1272mm" viewBox="0.0000 0.0000 80.4672 27.1272">
<title>SVG Image created as at42qt1010-tshr.svg date 2024/01/16 15:21:32 </title>
  <desc>Image generated by Eeschema-SVG </desc>
<g style="fill:#000000; fill-opacity:1.0000;stroke:#000000; stroke-opacity:1.0000;
stroke-linecap:round; stroke-linejoin:round;"
 transform="translate(0 0) scale(1 1)">
</g>
<g style="fill:#000000; fill-opacity:0.0; 
stroke:#000000; stroke-width:0.0000; stroke-opacity:1; 
stroke-linecap:round; stroke-linejoin:round;">
</g>
<g style="fill:#000000; fill-opacity:0.0; 
stroke:#000000; stroke-width:0.2540; stroke-opacity:1; 
stroke-linecap:round; stroke-linejoin:round;">
<rect x="32.613600" y="8.483600" width="15.240000" height="10.160000" rx="0.000000" />
</g>
<g style="fill:#000000; fill-opacity:0.0; 
stroke:#000000; stroke-width:0.1524; stroke-opacity:1; 
stroke-linecap:round; stroke-linejoin:round;">
<path d="M32.6136 16.1036
L30.0736 16.1036
" />
<text x="33.1216" y="16.7386"
textLength="3.8318" font-size="1.6933" lengthAdjust="spacingAndGlyphs"
text-anchor="start" opacity="0">OUT</text>
<g class="stroked-text"><desc>OUT</desc>
<path d="M33.7660 15.4131
L34.0079 15.4131
" />
<path d="M34.0079 15.4131
L34.1289 15.4736
" />
<path d="M34.1289 15.4736
L34.2498 15.5946
" />
<path d="M34.2498 15.5946
L34.3103 15.8365
" />
<path d="M34.3103 15.8365
L34.3103 16.2598
" />
<path d="M34.3103 16.2598
L34.2498 16.5017
" />
<path d="M34.2498 16.5017
L34.1289 16.6227
" />
<path d="M34.1289 16.6227
L34.0079 16.6831
" />
<path d="M34.0079 16.6831
L33.7660 16.6831
" />
<path d="M33.7660 16.6831
L33.6451 16.6227
" />
<path d="M33.6451 16.6227
L33.5241 16.5017
" />
<path d="M33.5241 16.5017
L33.4637 16.2598
" />
<path d="M33.4637 16.2598
L33.4637 15.8365
" />
<path d="M33.4637 15.8365
L33.5241 15.5946
" />
<path d="M33.5241 15.5946
L33.6451 15.4736
" />
<path d="M33.6451 15.4736
L33.7660 15.4131
" />
<path d="M34.8546 15.4131
L34.8546 16.4412
" />
<path d="M34.8546 16.4412
L34.9151 16.5622
" />
<path d="M34.9151 16.5622
L34.9756 16.6227
" />
<path d="M34.9756 16.6227
L35.0965 16.6831
" />
<path d="M35.0965 16.6831
L35.3384 16.6831
" />
<path d="M35.3384 16.6831
L35.4594 16.6227
" />
<path d="M35.4594 16.6227
L35.5199 16.5622
" />
<path d="M35.5199 16.5622
L35.5803 16.4412
" />
<path d="M35.5803 16.4412
L35.5803 15.4131
" />
<path d="M36.0037 15.4131
L36.7294 15.4131
" />
<path d="M36.3666 16.6831
L36.3666 15.4131
" />
</g><text x="31.3436" y="15.8496"
textLength="1.4127" font-size="1.6933" lengthAdjust="spacingAndGlyphs"
text-anchor="middle" opacity="0">1</text>
<g class="stroked-text"><desc>1</desc>
<path d="M31.7065 15.6861
L30.9808 15.6861
" />
<path d="M31.3436 15.6861
L31.3436 14.4161
" />
<path d="M31.3436 14.4161
L31.2227 14.5976
" />
<path d="M31.2227 14.5976
L31.1017 14.7185
" />
<path d="M31.1017 14.7185
L30.9808 14.7790
" />
</g><path d="M40.2336 18.6436
L40.2336 21.1836
" />
<g transform="rotate(-90.000000 40.2336 18.1356)">
<text x="40.2336" y="18.7706"
textLength="3.7108" font-size="1.6933" lengthAdjust="spacingAndGlyphs"
text-anchor="start" opacity="0">VSS</text>
</g>
<g class="stroked-text"><desc>VSS</desc>
<path d="M39.5431 17.9144
L40.8131 17.4911
" />
<path d="M40.8131 17.4911
L39.5431 17.0677
" />
<path d="M40.7527 16.7048
L40.8131 16.5234
" />
<path d="M40.8131 16.5234
L40.8131 16.2210
" />
<path d="M40.8131 16.2210
L40.7527 16.1001
" />
<path d="M40.7527 16.1001
L40.6922 16.0396
" />
<path d="M40.6922 16.0396
L40.5712 15.9791
" />
<path d="M40.5712 15.9791
L40.4503 15.9791
" />
<path d="M40.4503 15.9791
L40.3293 16.0396
" />
<path d="M40.3293 16.0396
L40.2688 16.1001
" />
<path d="M40.2688 16.1001
L40.2084 16.2210
" />
<path d="M40.2084 16.2210
L40.1479 16.4629
" />
<path d="M40.1479 16.4629
L40.0874 16.5839
" />
<path d="M40.0874 16.5839
L40.0269 16.6444
" />
<path d="M40.0269 16.6444
L39.9060 16.7048
" />
<path d="M39.9060 16.7048
L39.7850 16.7048
" />
<path d="M39.7850 16.7048
L39.6641 16.6444
" />
<path d="M39.6641 16.6444
L39.6036 16.5839
" />
<path d="M39.6036 16.5839
L39.5431 16.4629
" />
<path d="M39.5431 16.4629
L39.5431 16.1606
" />
<path d="M39.5431 16.1606
L39.6036 15.9791
" />
<path d="M40.7527 15.4953
L40.8131 15.3139
" />
<path d="M40.8131 15.3139
L40.8131 15.0115
" />
<path d="M40.8131 15.0115
L40.7527 14.8906
" />
<path d="M40.7527 14.8906
L40.6922 14.8301
" />
<path d="M40.6922 14.8301
L40.5712 14.7696
" />
<path d="M40.5712 14.7696
L40.4503 14.7696
" />
<path d="M40.4503 14.7696
L40.3293 14.8301
" />
<path d="M40.3293 14.8301
L40.2688 14.8906
" />
<path d="M40.2688 14.8906
L40.2084 15.0115
" />
<path d="M40.2084 15.0115
L40.1479 15.2534
" />
<path d="M40.1479 15.2534
L40.0874 15.3744
" />
<path d="M40.0874 15.3744
L40.0269 15.4349
" />
<path d="M40.0269 15.4349
L39.9060 15.4953
" />
<path d="M39.9060 15.4953
L39.7850 15.4953
" />
<path d="M39.7850 15.4953
L39.6641 15.4349
" />
<path d="M39.6641 15.4349
L39.6036 15.3744
" />
<path d="M39.6036 15.3744
L39.5431 15.2534
" />
<path d="M39.5431 15.2534
L39.5431 14.9511
" />
<path d="M39.5431 14.9511
L39.6036 14.7696
" />
</g><g transform="rotate(-90.000000 39.9796 19.9136)">
<text x="39.9796" y="19.9136"
textLength="1.4127" font-size="1.6933" lengthAdjust="spacingAndGlyphs"
text-anchor="middle" opacity="0">2</text>
</g>
<g class="stroked-text"><desc>2</desc>
<path d="M38.6671 20.2763
L38.6066 20.2159
" />
<path d="M38.6066 20.2159
L38.5461 20.0949
" />
<path d="M38.5461 20.0949
L38.5461 19.7925
" />
<path d="M38.5461 19.7925
L38.6066 19.6716
" />
<path d="M38.6066 19.6716
L38.6671 19.6111
" />
<path d="M38.6671 19.6111
L38.7880 19.5506
" />
<path d="M38.7880 19.5506
L38.9090 19.5506
" />
<path d="M38.9090 19.5506
L39.0904 19.6111
" />
<path d="M39.0904 19.6111
L39.8161 20.3368
" />
<path d="M39.8161 20.3368
L39.8161 19.5506
" />
</g><path d="M47.8536 11.0236
L50.3936 11.0236
" />
<text x="47.3456" y="11.6586"
textLength="5.2227" font-size="1.6933" lengthAdjust="spacingAndGlyphs"
text-anchor="end" opacity="0">SNSK</text>
<g class="stroked-text"><desc>SNSK</desc>
<path d="M42.4678 11.5427
L42.6492 11.6031
" />
<path d="M42.6492 11.6031
L42.9516 11.6031
" />
<path d="M42.9516 11.6031
L43.0725 11.5427
" />
<path d="M43.0725 11.5427
L43.1330 11.4822
" />
<path d="M43.1330 11.4822
L43.1935 11.3612
" />
<path d="M43.1935 11.3612
L43.1935 11.2403
" />
<path d="M43.1935 11.2403
L43.1330 11.1193
" />
<path d="M43.1330 11.1193
L43.0725 11.0588
" />
<path d="M43.0725 11.0588
L42.9516 10.9984
" />
<path d="M42.9516 10.9984
L42.7097 10.9379
" />
<path d="M42.7097 10.9379
L42.5887 10.8774
" />
<path d="M42.5887 10.8774
L42.5282 10.8169
" />
<path d="M42.5282 10.8169
L42.4678 10.6960
" />
<path d="M42.4678 10.6960
L42.4678 10.5750
" />
<path d="M42.4678 10.5750
L42.5282 10.4541
" />
<path d="M42.5282 10.4541
L42.5887 10.3936
" />
<path d="M42.5887 10.3936
L42.7097 10.3331
" />
<path d="M42.7097 10.3331
L43.0120 10.3331
" />
<path d="M43.0120 10.3331
L43.1935 10.3936
" />
<path d="M43.7377 11.6031
L43.7377 10.3331
" />
<path d="M43.7377 10.3331
L44.4634 11.6031
" />
<path d="M44.4634 11.6031
L44.4634 10.3331
" />
<path d="M45.0078 11.5427
L45.1892 11.6031
" />
<path d="M45.1892 11.6031
L45.4916 11.6031
" />
<path d="M45.4916 11.6031
L45.6125 11.5427
" />
<path d="M45.6125 11.5427
L45.6730 11.4822
" />
<path d="M45.6730 11.4822
L45.7335 11.3612
" />
<path d="M45.7335 11.3612
L45.7335 11.2403
" />
<path d="M45.7335 11.2403
L45.6730 11.1193
" />
<path d="M45.6730 11.1193
L45.6125 11.0588
" />
<path d="M45.6125 11.0588
L45.4916 10.9984
" />
<path d="M45.4916 10.9984
L45.2497 10.9379
" />
<path d="M45.2497 10.9379
L45.1287 10.8774
" />
<path d="M45.1287 10.8774
L45.0682 10.8169
" />
<path d="M45.0682 10.8169
L45.0078 10.6960
" />
<path d="M45.0078 10.6960
L45.0078 10.5750
" />
<path d="M45.0078 10.5750
L45.0682 10.4541
" />
<path d="M45.0682 10.4541
L45.1287 10.3936
" />
<path d="M45.1287 10.3936
L45.2497 10.3331
" />
<path d="M45.2497 10.3331
L45.5520 10.3331
" />
<path d="M45.5520 10.3331
L45.7335 10.3936
" />
<path d="M46.2777 11.6031
L46.2777 10.3331
" />
<path d="M47.0034 11.6031
L46.4592 10.8774
" />
<path d="M47.0034 10.3331
L46.2777 11.0588
" />
</g><text x="49.1236" y="10.7696"
textLength="1.4127" font-size="1.6933" lengthAdjust="spacingAndGlyphs"
text-anchor="middle" opacity="0">3</text>
<g class="stroked-text"><desc>3</desc>
<path d="M48.7003 9.3361
L49.4865 9.3361
" />
<path d="M49.4865 9.3361
L49.0631 9.8199
" />
<path d="M49.0631 9.8199
L49.2446 9.8199
" />
<path d="M49.2446 9.8199
L49.3655 9.8804
" />
<path d="M49.3655 9.8804
L49.4260 9.9409
" />
<path d="M49.4260 9.9409
L49.4865 10.0618
" />
<path d="M49.4865 10.0618
L49.4865 10.3642
" />
<path d="M49.4865 10.3642
L49.4260 10.4852
" />
<path d="M49.4260 10.4852
L49.3655 10.5457
" />
<path d="M49.3655 10.5457
L49.2446 10.6061
" />
<path d="M49.2446 10.6061
L48.8817 10.6061
" />
<path d="M48.8817 10.6061
L48.7608 10.5457
" />
<path d="M48.7608 10.5457
L48.7003 10.4852
" />
</g><path d="M47.8536 16.1036
L50.3936 16.1036
" />
<text x="47.3456" y="16.7386"
textLength="3.9527" font-size="1.6933" lengthAdjust="spacingAndGlyphs"
text-anchor="end" opacity="0">SNS</text>
<g class="stroked-text"><desc>SNS</desc>
<path d="M43.7378 16.6227
L43.9192 16.6831
" />
<path d="M43.9192 16.6831
L44.2216 16.6831
" />
<path d="M44.2216 16.6831
L44.3425 16.6227
" />
<path d="M44.3425 16.6227
L44.4030 16.5622
" />
<path d="M44.4030 16.5622
L44.4635 16.4412
" />
<path d="M44.4635 16.4412
L44.4635 16.3203
" />
<path d="M44.4635 16.3203
L44.4030 16.1993
" />
<path d="M44.4030 16.1993
L44.3425 16.1388
" />
<path d="M44.3425 16.1388
L44.2216 16.0784
" />
<path d="M44.2216 16.0784
L43.9797 16.0179
" />
<path d="M43.9797 16.0179
L43.8587 15.9574
" />
<path d="M43.8587 15.9574
L43.7982 15.8969
" />
<path d="M43.7982 15.8969
L43.7378 15.7760
" />
<path d="M43.7378 15.7760
L43.7378 15.6550
" />
<path d="M43.7378 15.6550
L43.7982 15.5341
" />
<path d="M43.7982 15.5341
L43.8587 15.4736
" />
<path d="M43.8587 15.4736
L43.9797 15.4131
" />
<path d="M43.9797 15.4131
L44.2820 15.4131
" />
<path d="M44.2820 15.4131
L44.4635 15.4736
" />
<path d="M45.0077 16.6831
L45.0077 15.4131
" />
<path d="M45.0077 15.4131
L45.7334 16.6831
" />
<path d="M45.7334 16.6831
L45.7334 15.4131
" />
<path d="M46.2778 16.6227
L46.4592 16.6831
" />
<path d="M46.4592 16.6831
L46.7616 16.6831
" />
<path d="M46.7616 16.6831
L46.8825 16.6227
" />
<path d="M46.8825 16.6227
L46.9430 16.5622
" />
<path d="M46.9430 16.5622
L47.0035 16.4412
" />
<path d="M47.0035 16.4412
L47.0035 16.3203
" />
<path d="M47.0035 16.3203
L46.9430 16.1993
" />
<path d="M46.9430 16.1993
L46.8825 16.1388
" />
<path d="M46.8825 16.1388
L46.7616 16.0784
" />
<path d="M46.7616 16.0784
L46.5197 16.0179
" />
<path d="M46.5197 16.0179
L46.3987 15.9574
" />
<path d="M46.3987 15.9574
L46.3382 15.8969
" />
<path d="M46.3382 15.8969
L46.2778 15.7760
" />
<path d="M46.2778 15.7760
L46.2778 15.6550
" />
<path d="M46.2778 15.6550
L46.3382 15.5341
" />
<path d="M46.3382 15.5341
L46.3987 15.4736
" />
<path d="M46.3987 15.4736
L46.5197 15.4131
" />
<path d="M46.5197 15.4131
L46.8220 15.4131
" />
<path d="M46.8220 15.4131
L47.0035 15.4736
" />
</g><text x="49.1236" y="15.8496"
textLength="1.4127" font-size="1.6933" lengthAdjust="spacingAndGlyphs"
text-anchor="middle" opacity="0">4</text>
<g class="stroked-text"><desc>4</desc>
<path d="M49.3655 14.8395
L49.3655 15.6861
" />
<path d="M49.0631 14.3557
L48.7608 15.2628
" />
<path d="M48.7608 15.2628
L49.5469 15.2628
" />
</g><path d="M40.2336 8.4836
L40.2336 5.9436
" />
<g transform="rotate(-90.000000 40.2336 8.9916)">
<text x="40.2336" y="9.6266"
textLength="3.8318" font-size="1.6933" lengthAdjust="spacingAndGlyphs"
text-anchor="end" opacity="0">VDD</text>
</g>
<g class="stroked-text"><desc>VDD</desc>
<path d="M39.5431 12.5994
L40.8131 12.1761
" />
<path d="M40.8131 12.1761
L39.5431 11.7527
" />
<path d="M40.8131 11.3294
L39.5431 11.3294
" />
<path d="M39.5431 11.3294
L39.5431 11.0270
" />
<path d="M39.5431 11.0270
L39.6036 10.8456
" />
<path d="M39.6036 10.8456
L39.7246 10.7246
" />
<path d="M39.7246 10.7246
L39.8455 10.6641
" />
<path d="M39.8455 10.6641
L40.0874 10.6037
" />
<path d="M40.0874 10.6037
L40.2688 10.6037
" />
<path d="M40.2688 10.6037
L40.5107 10.6641
" />
<path d="M40.5107 10.6641
L40.6317 10.7246
" />
<path d="M40.6317 10.7246
L40.7527 10.8456
" />
<path d="M40.7527 10.8456
L40.8131 11.0270
" />
<path d="M40.8131 11.0270
L40.8131 11.3294
" />
<path d="M40.8131 10.0594
L39.5431 10.0594
" />
<path d="M39.5431 10.0594
L39.5431 9.7570
" />
<path d="M39.5431 9.7570
L39.6036 9.5756
" />
<path d="M39.6036 9.5756
L39.7246 9.4546
" />
<path d="M39.7246 9.4546
L39.8455 9.3941
" />
<path d="M39.8455 9.3941
L40.0874 9.3337
" />
<path d="M40.0874 9.3337
L40.2688 9.3337
" />
<path d="M40.2688 9.3337
L40.5107 9.3941
" />
<path d="M40.5107 9.3941
L40.6317 9.4546
" />
<path d="M40.6317 9.4546
L40.7527 9.5756
" />
<path d="M40.7527 9.5756
L40.8131 9.7570
" />
<path d="M40.8131 9.7570
L40.8131 10.0594
" />
</g><g transform="rotate(-90.000000 39.9796 7.2136)">
<text x="39.9796" y="7.2136"
textLength="1.4127" font-size="1.6933" lengthAdjust="spacingAndGlyphs"
text-anchor="middle" opacity="0">5</text>
</g>
<g class="stroked-text"><desc>5</desc>
<path d="M38.5461 6.9111
L38.5461 7.5159
" />
<path d="M38.5461 7.5159
L39.1509 7.5763
" />
<path d="M39.1509 7.5763
L39.0904 7.5159
" />
<path d="M39.0904 7.5159
L39.0299 7.3949
" />
<path d="M39.0299 7.3949
L39.0299 7.0925
" />
<path d="M39.0299 7.0925
L39.0904 6.9716
" />
<path d="M39.0904 6.9716
L39.1509 6.9111
" />
<path d="M39.1509 6.9111
L39.2718 6.8506
" />
<path d="M39.2718 6.8506
L39.5742 6.8506
" />
<path d="M39.5742 6.8506
L39.6952 6.9111
" />
<path d="M39.6952 6.9111
L39.7557 6.9716
" />
<path d="M39.7557 6.9716
L39.8161 7.0925
" />
<path d="M39.8161 7.0925
L39.8161 7.3949
" />
<path d="M39.8161 7.3949
L39.7557 7.5159
" />
<path d="M39.7557 7.5159
L39.6952 7.5763
" />
</g><path d="M32.6136 11.0236
L30.0736 11.0236
" />
<text x="33.1216" y="11.6586"
textLength="5.1018" font-size="1.6933" lengthAdjust="spacingAndGlyphs"
text-anchor="start" opacity="0">SYNC</text>
<g class="stroked-text"><desc>SYNC</desc>
<path d="M33.4637 11.5427
L33.6451 11.6031
" />
<path d="M33.6451 11.6031
L33.9475 11.6031
" />
<path d="M33.9475 11.6031
L34.0684 11.5427
" />
<path d="M34.0684 11.5427
L34.1289 11.4822
" />
<path d="M34.1289 11.4822
L34.1894 11.3612
" />
<path d="M34.1894 11.3612
L34.1894 11.2403
" />
<path d="M34.1894 11.2403
L34.1289 11.1193
" />
<path d="M34.1289 11.1193
L34.0684 11.0588
" />
<path d="M34.0684 11.0588
L33.9475 10.9984
" />
<path d="M33.9475 10.9984
L33.7056 10.9379
" />
<path d="M33.7056 10.9379
L33.5846 10.8774
" />
<path d="M33.5846 10.8774
L33.5241 10.8169
" />
<path d="M33.5241 10.8169
L33.4637 10.6960
" />
<path d="M33.4637 10.6960
L33.4637 10.5750
" />
<path d="M33.4637 10.5750
L33.5241 10.4541
" />
<path d="M33.5241 10.4541
L33.5846 10.3936
" />
<path d="M33.5846 10.3936
L33.7056 10.3331
" />
<path d="M33.7056 10.3331
L34.0079 10.3331
" />
<path d="M34.0079 10.3331
L34.1894 10.3936
" />
<path d="M34.9755 10.9984
L34.9755 11.6031
" />
<path d="M34.5522 10.3331
L34.9755 10.9984
" />
<path d="M34.9755 10.9984
L35.3989 10.3331
" />
<path d="M35.8222 11.6031
L35.8222 10.3331
" />
<path d="M35.8222 10.3331
L36.5479 11.6031
" />
<path d="M36.5479 11.6031
L36.5479 10.3331
" />
<path d="M37.8784 11.4822
L37.8180 11.5427
" />
<path d="M37.8180 11.5427
L37.6365 11.6031
" />
<path d="M37.6365 11.6031
L37.5156 11.6031
" />
<path d="M37.5156 11.6031
L37.3342 11.5427
" />
<path d="M37.3342 11.5427
L37.2132 11.4217
" />
<path d="M37.2132 11.4217
L37.1527 11.3007
" />
<path d="M37.1527 11.3007
L37.0923 11.0588
" />
<path d="M37.0923 11.0588
L37.0923 10.8774
" />
<path d="M37.0923 10.8774
L37.1527 10.6355
" />
<path d="M37.1527 10.6355
L37.2132 10.5146
" />
<path d="M37.2132 10.5146
L37.3342 10.3936
" />
<path d="M37.3342 10.3936
L37.5156 10.3331
" />
<path d="M37.5156 10.3331
L37.6365 10.3331
" />
<path d="M37.6365 10.3331
L37.8180 10.3936
" />
<path d="M37.8180 10.3936
L37.8784 10.4541
" />
</g><text x="31.3436" y="10.7696"
textLength="1.4127" font-size="1.6933" lengthAdjust="spacingAndGlyphs"
text-anchor="middle" opacity="0">6</text>
<g class="stroked-text"><desc>6</desc>
<path d="M31.5855 9.3361
L31.3436 9.3361
" />
<path d="M31.3436 9.3361
L31.2227 9.3966
" />
<path d="M31.2227 9.3966
L31.1622 9.4571
" />
<path d="M31.1622 9.4571
L31.0412 9.6385
" />
<path d="M31.0412 9.6385
L30.9808 9.8804
" />
<path d="M30.9808 9.8804
L30.9808 10.3642
" />
<path d="M30.9808 10.3642
L31.0412 10.4852
" />
<path d="M31.0412 10.4852
L31.1017 10.5457
" />
<path d="M31.1017 10.5457
L31.2227 10.6061
" />
<path d="M31.2227 10.6061
L31.4646 10.6061
" />
<path d="M31.4646 10.6061
L31.5855 10.5457
" />
<path d="M31.5855 10.5457
L31.6460 10.4852
" />
<path d="M31.6460 10.4852
L31.7065 10.3642
" />
<path d="M31.7065 10.3642
L31.7065 10.0618
" />
<path d="M31.7065 10.0618
L31.6460 9.9409
" />
<path d="M31.6460 9.9409
L31.5855 9.8804
" />
<path d="M31.5855 9.8804
L31.4646 9.8199
" />
<path d="M31.4646 9.8199
L31.2227 9.8199
" />
<path d="M31.2227 9.8199
L31.1017 9.8804
" />
<path d="M31.1017 9.8804
L31.0412 9.9409
" />
<path d="M31.0412 9.9409
L30.9808 10.0618
" />
</g></g>
<g style="fill:#000000; fill-opacity:0.0; 
stroke:#000000; stroke-width:0.1588; stroke-opacity:1; 
stroke-linecap:round; stroke-linejoin:round;">
<text x="36.3728" y="5.9436"
textLength="2.6415" font-size="1.6933" lengthAdjust="spacingAndGlyphs"
text-anchor="middle" opacity="0">U?</text>
<g class="stroked-text"><desc>U?</desc>
<path d="M35.4656 4.6178
L35.4656 5.6459
" />
<path d="M35.4656 5.6459
L35.5261 5.7669
" />
<path d="M35.5261 5.7669
L35.5866 5.8274
" />
<path d="M35.5866 5.8274
L35.7075 5.8878
" />
<path d="M35.7075 5.8878
L35.9494 5.8878
" />
<path d="M35.9494 5.8878
L36.0704 5.8274
" />
<path d="M36.0704 5.8274
L36.1309 5.7669
" />
<path d="M36.1309 5.7669
L36.1913 5.6459
" />
<path d="M36.1913 5.6459
L36.1913 4.6178
" />
<path d="M36.9776 5.7669
L37.0380 5.8274
" />
<path d="M37.0380 5.8274
L36.9776 5.8878
" />
<path d="M36.9776 5.8878
L36.9171 5.8274
" />
<path d="M36.9171 5.8274
L36.9776 5.7669
" />
<path d="M36.9776 5.7669
L36.9776 5.8878
" />
<path d="M36.7357 4.6783
L36.8566 4.6178
" />
<path d="M36.8566 4.6178
L37.1590 4.6178
" />
<path d="M37.1590 4.6178
L37.2799 4.6783
" />
<path d="M37.2799 4.6783
L37.3404 4.7993
" />
<path d="M37.3404 4.7993
L37.3404 4.9202
" />
<path d="M37.3404 4.9202
L37.2799 5.0412
" />
<path d="M37.2799 5.0412
L37.2195 5.1016
" />
<path d="M37.2195 5.1016
L37.0985 5.1621
" />
<path d="M37.0985 5.1621
L37.0380 5.2226
" />
<path d="M37.0380 5.2226
L36.9776 5.3435
" />
<path d="M36.9776 5.3435
L36.9776 5.4040
" />
</g><text x="28.6017" y="7.8486"
textLength="18.1837" font-size="1.6933" lengthAdjust="spacingAndGlyphs"
text-anchor="middle" opacity="0">AT42QT1010-TSHR</text>
<g class="stroked-text"><desc>AT42QT1010-TSHR</desc>
<path d="M19.8630 7.4300
L20.4677 7.4300
" />
<path d="M19.7420 7.7928
L20.1653 6.5228
" />
<path d="M20.1653 6.5228
L20.5887 7.7928
" />
<path d="M20.8306 6.5228
L21.5563 6.5228
" />
<path d="M21.1935 7.7928
L21.1935 6.5228
" />
<path d="M22.5239 6.9462
L22.5239 7.7928
" />
<path d="M22.2215 6.4624
L21.9192 7.3695
" />
<path d="M21.9192 7.3695
L22.7053 7.3695
" />
<path d="M23.1287 6.6438
L23.1891 6.5833
" />
<path d="M23.1891 6.5833
L23.3101 6.5228
" />
<path d="M23.3101 6.5228
L23.6125 6.5228
" />
<path d="M23.6125 6.5228
L23.7334 6.5833
" />
<path d="M23.7334 6.5833
L23.7939 6.6438
" />
<path d="M23.7939 6.6438
L23.8544 6.7647
" />
<path d="M23.8544 6.7647
L23.8544 6.8857
" />
<path d="M23.8544 6.8857
L23.7939 7.0671
" />
<path d="M23.7939 7.0671
L23.0682 7.7928
" />
<path d="M23.0682 7.7928
L23.8544 7.7928
" />
<path d="M25.2453 7.9138
L25.1243 7.8533
" />
<path d="M25.1243 7.8533
L25.0034 7.7324
" />
<path d="M25.0034 7.7324
L24.8220 7.5509
" />
<path d="M24.8220 7.5509
L24.7010 7.4904
" />
<path d="M24.7010 7.4904
L24.5801 7.4904
" />
<path d="M24.6405 7.7928
L24.5196 7.7324
" />
<path d="M24.5196 7.7324
L24.3986 7.6114
" />
<path d="M24.3986 7.6114
L24.3382 7.3695
" />
<path d="M24.3382 7.3695
L24.3382 6.9462
" />
<path d="M24.3382 6.9462
L24.3986 6.7043
" />
<path d="M24.3986 6.7043
L24.5196 6.5833
" />
<path d="M24.5196 6.5833
L24.6405 6.5228
" />
<path d="M24.6405 6.5228
L24.8824 6.5228
" />
<path d="M24.8824 6.5228
L25.0034 6.5833
" />
<path d="M25.0034 6.5833
L25.1243 6.7043
" />
<path d="M25.1243 6.7043
L25.1848 6.9462
" />
<path d="M25.1848 6.9462
L25.1848 7.3695
" />
<path d="M25.1848 7.3695
L25.1243 7.6114
" />
<path d="M25.1243 7.6114
L25.0034 7.7324
" />
<path d="M25.0034 7.7324
L24.8824 7.7928
" />
<path d="M24.8824 7.7928
L24.6405 7.7928
" />
<path d="M25.5477 6.5228
L26.2734 6.5228
" />
<path d="M25.9106 7.7928
L25.9106 6.5228
" />
<path d="M27.3620 7.7928
L26.6363 7.7928
" />
<path d="M26.9991 7.7928
L26.9991 6.5228
" />
<path d="M26.9991 6.5228
L26.8782 6.7043
" />
<path d="M26.8782 6.7043
L26.7572 6.8252
" />
<path d="M26.7572 6.8252
L26.6363 6.8857
" />
<path d="M28.1481 6.5228
L28.2691 6.5228
" />
<path d="M28.2691 6.5228
L28.3900 6.5833
" />
<path d="M28.3900 6.5833
L28.4505 6.6438
" />
<path d="M28.4505 6.6438
L28.5110 6.7647
" />
<path d="M28.5110 6.7647
L28.5715 7.0066
" />
<path d="M28.5715 7.0066
L28.5715 7.3090
" />
<path d="M28.5715 7.3090
L28.5110 7.5509
" />
<path d="M28.5110 7.5509
L28.4505 7.6719
" />
<path d="M28.4505 7.6719
L28.3900 7.7324
" />
<path d="M28.3900 7.7324
L28.2691 7.7928
" />
<path d="M28.2691 7.7928
L28.1481 7.7928
" />
<path d="M28.1481 7.7928
L28.0272 7.7324
" />
<path d="M28.0272 7.7324
L27.9667 7.6719
" />
<path d="M27.9667 7.6719
L27.9062 7.5509
" />
<path d="M27.9062 7.5509
L27.8458 7.3090
" />
<path d="M27.8458 7.3090
L27.8458 7.0066
" />
<path d="M27.8458 7.0066
L27.9062 6.7647
" />
<path d="M27.9062 6.7647
L27.9667 6.6438
" />
<path d="M27.9667 6.6438
L28.0272 6.5833
" />
<path d="M28.0272 6.5833
L28.1481 6.5228
" />
<path d="M29.7810 7.7928
L29.0553 7.7928
" />
<path d="M29.4181 7.7928
L29.4181 6.5228
" />
<path d="M29.4181 6.5228
L29.2972 6.7043
" />
<path d="M29.2972 6.7043
L29.1762 6.8252
" />
<path d="M29.1762 6.8252
L29.0553 6.8857
" />
<path d="M30.5671 6.5228
L30.6881 6.5228
" />
<path d="M30.6881 6.5228
L30.8090 6.5833
" />
<path d="M30.8090 6.5833
L30.8695 6.6438
" />
<path d="M30.8695 6.6438
L30.9300 6.7647
" />
<path d="M30.9300 6.7647
L30.9905 7.0066
" />
<path d="M30.9905 7.0066
L30.9905 7.3090
" />
<path d="M30.9905 7.3090
L30.9300 7.5509
" />
<path d="M30.9300 7.5509
L30.8695 7.6719
" />
<path d="M30.8695 7.6719
L30.8090 7.7324
" />
<path d="M30.8090 7.7324
L30.6881 7.7928
" />
<path d="M30.6881 7.7928
L30.5671 7.7928
" />
<path d="M30.5671 7.7928
L30.4462 7.7324
" />
<path d="M30.4462 7.7324
L30.3857 7.6719
" />
<path d="M30.3857 7.6719
L30.3252 7.5509
" />
<path d="M30.3252 7.5509
L30.2648 7.3090
" />
<path d="M30.2648 7.3090
L30.2648 7.0066
" />
<path d="M30.2648 7.0066
L30.3252 6.7647
" />
<path d="M30.3252 6.7647
L30.3857 6.6438
" />
<path d="M30.3857 6.6438
L30.4462 6.5833
" />
<path d="M30.4462 6.5833
L30.5671 6.5228
" />
<path d="M31.5347 7.3090
L32.5024 7.3090
" />
<path d="M32.9257 6.5228
L33.6514 6.5228
" />
<path d="M33.2886 7.7928
L33.2886 6.5228
" />
<path d="M34.0143 7.7324
L34.1957 7.7928
" />
<path d="M34.1957 7.7928
L34.4981 7.7928
" />
<path d="M34.4981 7.7928
L34.6190 7.7324
" />
<path d="M34.6190 7.7324
L34.6795 7.6719
" />
<path d="M34.6795 7.6719
L34.7400 7.5509
" />
<path d="M34.7400 7.5509
L34.7400 7.4300
" />
<path d="M34.7400 7.4300
L34.6795 7.3090
" />
<path d="M34.6795 7.3090
L34.6190 7.2485
" />
<path d="M34.6190 7.2485
L34.4981 7.1881
" />
<path d="M34.4981 7.1881
L34.2562 7.1276
" />
<path d="M34.2562 7.1276
L34.1352 7.0671
" />
<path d="M34.1352 7.0671
L34.0747 7.0066
" />
<path d="M34.0747 7.0066
L34.0143 6.8857
" />
<path d="M34.0143 6.8857
L34.0143 6.7647
" />
<path d="M34.0143 6.7647
L34.0747 6.6438
" />
<path d="M34.0747 6.6438
L34.1352 6.5833
" />
<path d="M34.1352 6.5833
L34.2562 6.5228
" />
<path d="M34.2562 6.5228
L34.5585 6.5228
" />
<path d="M34.5585 6.5228
L34.7400 6.5833
" />
<path d="M35.2842 7.7928
L35.2842 6.5228
" />
<path d="M35.2842 7.1276
L36.0099 7.1276
" />
<path d="M36.0099 7.7928
L36.0099 6.5228
" />
<path d="M37.3404 7.7928
L36.9171 7.1881
" />
<path d="M36.6147 7.7928
L36.6147 6.5228
" />
<path d="M36.6147 6.5228
L37.0985 6.5228
" />
<path d="M37.0985 6.5228
L37.2195 6.5833
" />
<path d="M37.2195 6.5833
L37.2800 6.6438
" />
<path d="M37.2800 6.6438
L37.3404 6.7647
" />
<path d="M37.3404 6.7647
L37.3404 6.9462
" />
<path d="M37.3404 6.9462
L37.2800 7.0671
" />
<path d="M37.2800 7.0671
L37.2195 7.1276
" />
<path d="M37.2195 7.1276
L37.0985 7.1881
" />
<path d="M37.0985 7.1881
L36.6147 7.1881
" />
</g></g> 
</svg>
