<?xml version="1.0" standalone="no"?>
 <!DOCTYPE svg PUBLIC "-//W3C//DTD SVG 1.1//EN" 
 "http://www.w3.org/Graphics/SVG/1.1/DTD/svg11.dtd"> 
<svg
  xmlns:svg="http://www.w3.org/2000/svg"
  xmlns="http://www.w3.org/2000/svg"
  xmlns:xlink="http://www.w3.org/1999/xlink"
  version="1.1"
  width="128.5494mm" height="17.7038mm" viewBox="0.0000 0.0000 128.5494 17.7038">
<title>SVG Image created as tlp161g.svg date 2024/01/16 15:12:30 </title>
  <desc>Image generated by Eeschema-SVG </desc>
<g style="fill:#000000; fill-opacity:1.0000;stroke:#000000; stroke-opacity:1.0000;
stroke-linecap:round; stroke-linejoin:round;"
 transform="translate(0 0) scale(1 1)">
</g>
<g style="fill:#840000; fill-opacity:0.0; 
stroke:#840000; stroke-width:0.0000; stroke-opacity:1; 
stroke-linecap:round; stroke-linejoin:round;">
</g>
<g style="fill:#FFFFC2; fill-opacity:0.0; 
stroke:#FFFFC2; stroke-width:0.0000; stroke-opacity:1; 
stroke-linecap:round; stroke-linejoin:round;">
</g>
<g style="fill:#FFFFC2; fill-opacity:1.0000; 
stroke:#FFFFC2; stroke-width:0.0000; stroke-opacity:1; 
stroke-linecap:round; stroke-linejoin:round;">
<rect x="59.194700" y="5.041900" width="10.160000" height="7.620000" rx="0.000000" />
</g>
<g style="fill:#840084; fill-opacity:1.0000; 
stroke:#840084; stroke-width:0.0000; stroke-opacity:1; 
stroke-linecap:round; stroke-linejoin:round;">
</g>
<g style="fill:#840000; fill-opacity:1.0000; 
stroke:#840000; stroke-width:0.0000; stroke-opacity:1; 
stroke-linecap:round; stroke-linejoin:round;">
</g>
<g style="fill:#840000; fill-opacity:0.0; 
stroke:#840000; stroke-width:0.1524; stroke-opacity:1; 
stroke-linecap:round; stroke-linejoin:round;">
<rect x="63.893700" y="10.883900" width="1.778000" height="1.016000" rx="0.000000" />
<path style="fill:#840000; fill-opacity:0.0; 
stroke:#840000; stroke-width:0.1524; stroke-opacity:1; 
stroke-linecap:round; stroke-linejoin:round;fill:none"
d="M 66.5607,11.3919
65.6717,11.3919
" /> 
<path style="fill:#840000; fill-opacity:0.0; 
stroke:#840000; stroke-width:0.1524; stroke-opacity:1; 
stroke-linecap:round; stroke-linejoin:round;fill:none"
d="M 65.7987,9.4869
65.2907,9.8679
65.2907,10.8839
" /> 
</g>
<g style="fill:#840000; fill-opacity:0.0; 
stroke:#840000; stroke-width:0.2540; stroke-opacity:1; 
stroke-linecap:round; stroke-linejoin:round;">
<rect x="59.194700" y="5.041900" width="10.160000" height="7.620000" rx="0.000000" />
</g>
<g style="fill:#840000; fill-opacity:0.0; 
stroke:#840000; stroke-width:0.1524; stroke-opacity:1; 
stroke-linecap:round; stroke-linejoin:round;">
<path style="fill:#840000; fill-opacity:0.0; 
stroke:#840000; stroke-width:0.1524; stroke-opacity:1; 
stroke-linecap:round; stroke-linejoin:round;fill:none"
d="M 61.0997,9.4869
62.3697,9.4869
" /> 
<path style="fill:#840000; fill-opacity:0.0; 
stroke:#840000; stroke-width:0.1524; stroke-opacity:1; 
stroke-linecap:round; stroke-linejoin:round;fill:none"
d="M 65.7987,9.4869
65.7987,8.2169
" /> 
<path style="fill:#840000; fill-opacity:0.0; 
stroke:#840000; stroke-width:0.1524; stroke-opacity:1; 
stroke-linecap:round; stroke-linejoin:round;fill:none"
d="M 67.3227,8.2169
67.3227,9.4869
" /> 
<path style="fill:#840000; fill-opacity:0.0; 
stroke:#840000; stroke-width:0.1524; stroke-opacity:1; 
stroke-linecap:round; stroke-linejoin:round;fill:none"
d="M 66.5607,9.4869
66.5607,11.3919
69.3547,11.3919
" /> 
<path style="fill:#840000; fill-opacity:0.0; 
stroke:#840000; stroke-width:0.1524; stroke-opacity:1; 
stroke-linecap:round; stroke-linejoin:round;fill:none"
d="M 66.5607,8.2169
66.5607,6.3119
69.3547,6.3119
" /> 
<path style="fill:#840000; fill-opacity:0.0; 
stroke:#840000; stroke-width:0.1524; stroke-opacity:1; 
stroke-linecap:round; stroke-linejoin:round;fill:none"
d="M 66.5607,6.3119
64.7827,6.3119
64.7827,10.8839
" /> 
<path style="fill:#840000; fill-opacity:0.0; 
stroke:#840000; stroke-width:0.1524; stroke-opacity:1; 
stroke-linecap:round; stroke-linejoin:round;fill:none"
d="M 59.1947,6.3119
61.7347,6.3119
61.7347,11.3919
59.1947,11.3919
" /> 
<path style="fill:#840000; fill-opacity:0.0; 
stroke:#840000; stroke-width:0.1524; stroke-opacity:1; 
stroke-linecap:round; stroke-linejoin:round;fill:none"
d="M 61.7347,9.4869
61.0997,8.2169
62.3697,8.2169
Z" /> 
<path style="fill:#840000; fill-opacity:0.0; 
stroke:#840000; stroke-width:0.1524; stroke-opacity:1; 
stroke-linecap:round; stroke-linejoin:round;fill:none"
d="M 65.1637,9.4869
67.9577,9.4869
67.3227,8.2169
66.6877,9.4869
" /> 
<path style="fill:#840000; fill-opacity:0.0; 
stroke:#840000; stroke-width:0.1524; stroke-opacity:1; 
stroke-linecap:round; stroke-linejoin:round;fill:none"
d="M 67.9577,8.2169
65.1637,8.2169
65.7987,9.4869
66.4337,8.2169
" /> 
<path style="fill:#840000; fill-opacity:0.0; 
stroke:#840000; stroke-width:0.1524; stroke-opacity:1; 
stroke-linecap:round; stroke-linejoin:round;fill:none"
d="M 63.1317,9.3599
64.4017,9.3599
64.0207,9.4869
64.0207,9.2329
64.4017,9.3599
" /> 
<path style="fill:#840000; fill-opacity:0.0; 
stroke:#840000; stroke-width:0.1524; stroke-opacity:1; 
stroke-linecap:round; stroke-linejoin:round;fill:none"
d="M 63.1317,8.3439
64.4017,8.3439
64.0207,8.4709
64.0207,8.2169
64.4017,8.3439
" /> 
<circle cx="66.5607" cy="11.3919" r="0.1270" /> 
<circle cx="66.5607" cy="6.3119" r="0.1270" /> 
</g>
<g style="fill:#840000; fill-opacity:0.0; 
stroke:#840000; stroke-width:0.0635; stroke-opacity:1; 
stroke-linecap:round; stroke-linejoin:round;">
<text x="64.7827" y="11.6460"
textLength="1.5888" font-size="0.6773" lengthAdjust="spacingAndGlyphs"
text-anchor="middle" opacity="0">ZCD</text>
<g class="stroked-text"><desc>ZCD</desc>
<path d="M64.1053 11.1156
L64.4440 11.1156
" />
<path d="M64.4440 11.1156
L64.1053 11.6236
" />
<path d="M64.1053 11.6236
L64.4440 11.6236
" />
<path d="M64.9278 11.5753
L64.9036 11.5995
" />
<path d="M64.9036 11.5995
L64.8310 11.6236
" />
<path d="M64.8310 11.6236
L64.7826 11.6236
" />
<path d="M64.7826 11.6236
L64.7101 11.5995
" />
<path d="M64.7101 11.5995
L64.6617 11.5511
" />
<path d="M64.6617 11.5511
L64.6375 11.5027
" />
<path d="M64.6375 11.5027
L64.6133 11.4059
" />
<path d="M64.6133 11.4059
L64.6133 11.3334
" />
<path d="M64.6133 11.3334
L64.6375 11.2366
" />
<path d="M64.6375 11.2366
L64.6617 11.1882
" />
<path d="M64.6617 11.1882
L64.7101 11.1398
" />
<path d="M64.7101 11.1398
L64.7826 11.1156
" />
<path d="M64.7826 11.1156
L64.8310 11.1156
" />
<path d="M64.8310 11.1156
L64.9036 11.1398
" />
<path d="M64.9036 11.1398
L64.9278 11.1640
" />
<path d="M65.1455 11.6236
L65.1455 11.1156
" />
<path d="M65.1455 11.1156
L65.2665 11.1156
" />
<path d="M65.2665 11.1156
L65.3390 11.1398
" />
<path d="M65.3390 11.1398
L65.3874 11.1882
" />
<path d="M65.3874 11.1882
L65.4116 11.2366
" />
<path d="M65.4116 11.2366
L65.4358 11.3334
" />
<path d="M65.4358 11.3334
L65.4358 11.4059
" />
<path d="M65.4358 11.4059
L65.4116 11.5027
" />
<path d="M65.4116 11.5027
L65.3874 11.5511
" />
<path d="M65.3874 11.5511
L65.3390 11.5995
" />
<path d="M65.3390 11.5995
L65.2665 11.6236
" />
<path d="M65.2665 11.6236
L65.1455 11.6236
" />
</g></g>
<g style="fill:#840000; fill-opacity:0.0; 
stroke:#840000; stroke-width:0.1524; stroke-opacity:1; 
stroke-linecap:round; stroke-linejoin:round;">
<path d="M59.1947 6.3119
L56.6547 6.3119
" />
</g>
<g style="fill:#A90000; fill-opacity:0.0; 
stroke:#A90000; stroke-width:0.1524; stroke-opacity:1; 
stroke-linecap:round; stroke-linejoin:round;">
<text x="57.9247" y="6.0579"
textLength="1.4127" font-size="1.6933" lengthAdjust="spacingAndGlyphs"
text-anchor="middle" opacity="0">1</text>
<g class="stroked-text"><desc>1</desc>
<path d="M58.2876 5.8944
L57.5619 5.8944
" />
<path d="M57.9247 5.8944
L57.9247 4.6244
" />
<path d="M57.9247 4.6244
L57.8038 4.8059
" />
<path d="M57.8038 4.8059
L57.6828 4.9268
" />
<path d="M57.6828 4.9268
L57.5619 4.9873
" />
</g></g>
<g style="fill:#840000; fill-opacity:0.0; 
stroke:#840000; stroke-width:0.1524; stroke-opacity:1; 
stroke-linecap:round; stroke-linejoin:round;">
<path d="M59.1947 11.3919
L56.6547 11.3919
" />
</g>
<g style="fill:#A90000; fill-opacity:0.0; 
stroke:#A90000; stroke-width:0.1524; stroke-opacity:1; 
stroke-linecap:round; stroke-linejoin:round;">
<text x="57.9247" y="11.1379"
textLength="1.4127" font-size="1.6933" lengthAdjust="spacingAndGlyphs"
text-anchor="middle" opacity="0">3</text>
<g class="stroked-text"><desc>3</desc>
<path d="M57.5014 9.7044
L58.2876 9.7044
" />
<path d="M58.2876 9.7044
L57.8642 10.1882
" />
<path d="M57.8642 10.1882
L58.0457 10.1882
" />
<path d="M58.0457 10.1882
L58.1666 10.2487
" />
<path d="M58.1666 10.2487
L58.2271 10.3092
" />
<path d="M58.2271 10.3092
L58.2876 10.4301
" />
<path d="M58.2876 10.4301
L58.2876 10.7325
" />
<path d="M58.2876 10.7325
L58.2271 10.8535
" />
<path d="M58.2271 10.8535
L58.1666 10.9140
" />
<path d="M58.1666 10.9140
L58.0457 10.9744
" />
<path d="M58.0457 10.9744
L57.6828 10.9744
" />
<path d="M57.6828 10.9744
L57.5619 10.9140
" />
<path d="M57.5619 10.9140
L57.5014 10.8535
" />
</g></g>
<g style="fill:#840000; fill-opacity:0.0; 
stroke:#840000; stroke-width:0.1524; stroke-opacity:1; 
stroke-linecap:round; stroke-linejoin:round;">
<path d="M69.3547 11.3919
L71.8947 11.3919
" />
</g>
<g style="fill:#A90000; fill-opacity:0.0; 
stroke:#A90000; stroke-width:0.1524; stroke-opacity:1; 
stroke-linecap:round; stroke-linejoin:round;">
<text x="70.6247" y="11.1379"
textLength="1.4127" font-size="1.6933" lengthAdjust="spacingAndGlyphs"
text-anchor="middle" opacity="0">4</text>
<g class="stroked-text"><desc>4</desc>
<path d="M70.8666 10.1278
L70.8666 10.9744
" />
<path d="M70.5642 9.6440
L70.2619 10.5511
" />
<path d="M70.2619 10.5511
L71.0480 10.5511
" />
</g></g>
<g style="fill:#840000; fill-opacity:0.0; 
stroke:#840000; stroke-width:0.1524; stroke-opacity:1; 
stroke-linecap:round; stroke-linejoin:round;">
<path d="M69.3547 6.3119
L71.8947 6.3119
" />
</g>
<g style="fill:#A90000; fill-opacity:0.0; 
stroke:#A90000; stroke-width:0.1524; stroke-opacity:1; 
stroke-linecap:round; stroke-linejoin:round;">
<text x="70.6247" y="6.0579"
textLength="1.4127" font-size="1.6933" lengthAdjust="spacingAndGlyphs"
text-anchor="middle" opacity="0">6</text>
<g class="stroked-text"><desc>6</desc>
<path d="M70.8666 4.6244
L70.6247 4.6244
" />
<path d="M70.6247 4.6244
L70.5038 4.6849
" />
<path d="M70.5038 4.6849
L70.4433 4.7454
" />
<path d="M70.4433 4.7454
L70.3223 4.9268
" />
<path d="M70.3223 4.9268
L70.2619 5.1687
" />
<path d="M70.2619 5.1687
L70.2619 5.6525
" />
<path d="M70.2619 5.6525
L70.3223 5.7735
" />
<path d="M70.3223 5.7735
L70.3828 5.8340
" />
<path d="M70.3828 5.8340
L70.5038 5.8944
" />
<path d="M70.5038 5.8944
L70.7457 5.8944
" />
<path d="M70.7457 5.8944
L70.8666 5.8340
" />
<path d="M70.8666 5.8340
L70.9271 5.7735
" />
<path d="M70.9271 5.7735
L70.9876 5.6525
" />
<path d="M70.9876 5.6525
L70.9876 5.3501
" />
<path d="M70.9876 5.3501
L70.9271 5.2292
" />
<path d="M70.9271 5.2292
L70.8666 5.1687
" />
<path d="M70.8666 5.1687
L70.7457 5.1082
" />
<path d="M70.7457 5.1082
L70.5038 5.1082
" />
<path d="M70.5038 5.1082
L70.3828 5.1687
" />
<path d="M70.3828 5.1687
L70.3223 5.2292
" />
<path d="M70.3223 5.2292
L70.2619 5.3501
" />
</g></g>
<g style="fill:#840084; fill-opacity:0.0; 
stroke:#840084; stroke-width:0.1524; stroke-opacity:1; 
stroke-linecap:round; stroke-linejoin:round;">
</g>
<g style="fill:#006464; fill-opacity:0.0; 
stroke:#006464; stroke-width:0.1524; stroke-opacity:1; 
stroke-linecap:round; stroke-linejoin:round;">
</g>
<g style="fill:#006464; fill-opacity:0.0; 
stroke:#006464; stroke-width:0.1588; stroke-opacity:1; 
stroke-linecap:round; stroke-linejoin:round;">
<text x="60.5154" y="4.4069"
textLength="2.6415" font-size="1.6933" lengthAdjust="spacingAndGlyphs"
text-anchor="middle" opacity="0">U?</text>
<g class="stroked-text"><desc>U?</desc>
<path d="M59.6082 3.0811
L59.6082 4.1092
" />
<path d="M59.6082 4.1092
L59.6687 4.2302
" />
<path d="M59.6687 4.2302
L59.7292 4.2907
" />
<path d="M59.7292 4.2907
L59.8501 4.3511
" />
<path d="M59.8501 4.3511
L60.0920 4.3511
" />
<path d="M60.0920 4.3511
L60.2130 4.2907
" />
<path d="M60.2130 4.2907
L60.2735 4.2302
" />
<path d="M60.2735 4.2302
L60.3339 4.1092
" />
<path d="M60.3339 4.1092
L60.3339 3.0811
" />
<path d="M61.1202 4.2302
L61.1806 4.2907
" />
<path d="M61.1806 4.2907
L61.1202 4.3511
" />
<path d="M61.1202 4.3511
L61.0597 4.2907
" />
<path d="M61.0597 4.2907
L61.1202 4.2302
" />
<path d="M61.1202 4.2302
L61.1202 4.3511
" />
<path d="M60.8783 3.1416
L60.9992 3.0811
" />
<path d="M60.9992 3.0811
L61.3016 3.0811
" />
<path d="M61.3016 3.0811
L61.4225 3.1416
" />
<path d="M61.4225 3.1416
L61.4830 3.2626
" />
<path d="M61.4830 3.2626
L61.4830 3.3835
" />
<path d="M61.4830 3.3835
L61.4225 3.5045
" />
<path d="M61.4225 3.5045
L61.3621 3.5649
" />
<path d="M61.3621 3.5649
L61.2411 3.6254
" />
<path d="M61.2411 3.6254
L61.1806 3.6859
" />
<path d="M61.1806 3.6859
L61.1202 3.8068
" />
<path d="M61.1202 3.8068
L61.1202 3.8673
" />
</g><text x="63.7690" y="14.5669"
textLength="8.3866" font-size="1.6933" lengthAdjust="spacingAndGlyphs"
text-anchor="middle" opacity="0">TLP161G</text>
<g class="stroked-text"><desc>TLP161G</desc>
<path d="M59.8078 13.2411
L60.5335 13.2411
" />
<path d="M60.1707 14.5111
L60.1707 13.2411
" />
<path d="M61.5616 14.5111
L60.9568 14.5111
" />
<path d="M60.9568 14.5111
L60.9568 13.2411
" />
<path d="M61.9849 14.5111
L61.9849 13.2411
" />
<path d="M61.9849 13.2411
L62.4687 13.2411
" />
<path d="M62.4687 13.2411
L62.5897 13.3016
" />
<path d="M62.5897 13.3016
L62.6502 13.3621
" />
<path d="M62.6502 13.3621
L62.7106 13.4830
" />
<path d="M62.7106 13.4830
L62.7106 13.6645
" />
<path d="M62.7106 13.6645
L62.6502 13.7854
" />
<path d="M62.6502 13.7854
L62.5897 13.8459
" />
<path d="M62.5897 13.8459
L62.4687 13.9064
" />
<path d="M62.4687 13.9064
L61.9849 13.9064
" />
<path d="M63.9202 14.5111
L63.1945 14.5111
" />
<path d="M63.5573 14.5111
L63.5573 13.2411
" />
<path d="M63.5573 13.2411
L63.4364 13.4226
" />
<path d="M63.4364 13.4226
L63.3154 13.5435
" />
<path d="M63.3154 13.5435
L63.1945 13.6040
" />
<path d="M65.0087 13.2411
L64.7668 13.2411
" />
<path d="M64.7668 13.2411
L64.6459 13.3016
" />
<path d="M64.6459 13.3016
L64.5854 13.3621
" />
<path d="M64.5854 13.3621
L64.4644 13.5435
" />
<path d="M64.4644 13.5435
L64.4040 13.7854
" />
<path d="M64.4040 13.7854
L64.4040 14.2692
" />
<path d="M64.4040 14.2692
L64.4644 14.3902
" />
<path d="M64.4644 14.3902
L64.5249 14.4507
" />
<path d="M64.5249 14.4507
L64.6459 14.5111
" />
<path d="M64.6459 14.5111
L64.8878 14.5111
" />
<path d="M64.8878 14.5111
L65.0087 14.4507
" />
<path d="M65.0087 14.4507
L65.0692 14.3902
" />
<path d="M65.0692 14.3902
L65.1297 14.2692
" />
<path d="M65.1297 14.2692
L65.1297 13.9668
" />
<path d="M65.1297 13.9668
L65.0692 13.8459
" />
<path d="M65.0692 13.8459
L65.0087 13.7854
" />
<path d="M65.0087 13.7854
L64.8878 13.7249
" />
<path d="M64.8878 13.7249
L64.6459 13.7249
" />
<path d="M64.6459 13.7249
L64.5249 13.7854
" />
<path d="M64.5249 13.7854
L64.4644 13.8459
" />
<path d="M64.4644 13.8459
L64.4040 13.9668
" />
<path d="M66.3392 14.5111
L65.6135 14.5111
" />
<path d="M65.9763 14.5111
L65.9763 13.2411
" />
<path d="M65.9763 13.2411
L65.8554 13.4226
" />
<path d="M65.8554 13.4226
L65.7344 13.5435
" />
<path d="M65.7344 13.5435
L65.6135 13.6040
" />
<path d="M67.5487 13.3016
L67.4277 13.2411
" />
<path d="M67.4277 13.2411
L67.2463 13.2411
" />
<path d="M67.2463 13.2411
L67.0649 13.3016
" />
<path d="M67.0649 13.3016
L66.9439 13.4226
" />
<path d="M66.9439 13.4226
L66.8834 13.5435
" />
<path d="M66.8834 13.5435
L66.8230 13.7854
" />
<path d="M66.8230 13.7854
L66.8230 13.9668
" />
<path d="M66.8230 13.9668
L66.8834 14.2087
" />
<path d="M66.8834 14.2087
L66.9439 14.3297
" />
<path d="M66.9439 14.3297
L67.0649 14.4507
" />
<path d="M67.0649 14.4507
L67.2463 14.5111
" />
<path d="M67.2463 14.5111
L67.3672 14.5111
" />
<path d="M67.3672 14.5111
L67.5487 14.4507
" />
<path d="M67.5487 14.4507
L67.6091 14.3902
" />
<path d="M67.6091 14.3902
L67.6091 13.9668
" />
<path d="M67.6091 13.9668
L67.3672 13.9668
" />
</g></g> 
</svg>
