<?xml version="1.0" standalone="no"?>
 <!DOCTYPE svg PUBLIC "-//W3C//DTD SVG 1.1//EN" 
 "http://www.w3.org/Graphics/SVG/1.1/DTD/svg11.dtd"> 
<svg
  xmlns:svg="http://www.w3.org/2000/svg"
  xmlns="http://www.w3.org/2000/svg"
  xmlns:xlink="http://www.w3.org/1999/xlink"
  version="1.1"
  width="81.4070mm" height="30.4800mm" viewBox="0.0000 0.0000 81.4070 30.4800">
<title>SVG Image created as max318xsa.svg date 2024/01/16 15:08:56 </title>
  <desc>Image generated by Eeschema-SVG </desc>
<g style="fill:#000000; fill-opacity:1.0000;stroke:#000000; stroke-opacity:1.0000;
stroke-linecap:round; stroke-linejoin:round;"
 transform="translate(0 0) scale(1 1)">
</g>
<g style="fill:#840000; fill-opacity:0.0; 
stroke:#840000; stroke-width:0.0000; stroke-opacity:1; 
stroke-linecap:round; stroke-linejoin:round;">
</g>
<g style="fill:#FFFFC2; fill-opacity:0.0; 
stroke:#FFFFC2; stroke-width:0.0000; stroke-opacity:1; 
stroke-linecap:round; stroke-linejoin:round;">
</g>
<g style="fill:#FFFFC2; fill-opacity:1.0000; 
stroke:#FFFFC2; stroke-width:0.0000; stroke-opacity:1; 
stroke-linecap:round; stroke-linejoin:round;">
<rect x="36.893500" y="5.080000" width="10.160000" height="20.320000" rx="0.000000" />
</g>
<g style="fill:#840084; fill-opacity:1.0000; 
stroke:#840084; stroke-width:0.0000; stroke-opacity:1; 
stroke-linecap:round; stroke-linejoin:round;">
</g>
<g style="fill:#840000; fill-opacity:1.0000; 
stroke:#840000; stroke-width:0.0000; stroke-opacity:1; 
stroke-linecap:round; stroke-linejoin:round;">
</g>
<g style="fill:#840000; fill-opacity:0.0; 
stroke:#840000; stroke-width:0.2540; stroke-opacity:1; 
stroke-linecap:round; stroke-linejoin:round;">
<rect x="36.893500" y="5.080000" width="10.160000" height="20.320000" rx="0.000000" />
</g>
<g style="fill:#840000; fill-opacity:0.0; 
stroke:#840000; stroke-width:0.1524; stroke-opacity:1; 
stroke-linecap:round; stroke-linejoin:round;">
<path d="M40.7035 25.4000
L40.7035 27.9400
" />
</g>
<g style="fill:#006464; fill-opacity:0.0; 
stroke:#006464; stroke-width:0.1524; stroke-opacity:1; 
stroke-linecap:round; stroke-linejoin:round;">
<g transform="rotate(-90.000000 40.7035 25.1460)">
<text x="40.7035" y="25.7810"
textLength="4.0737" font-size="1.6933" lengthAdjust="spacingAndGlyphs"
text-anchor="start" opacity="0">GND</text>
</g>
<g class="stroked-text"><desc>GND</desc>
<path d="M40.0735 24.0781
L40.0130 24.1991
" />
<path d="M40.0130 24.1991
L40.0130 24.3805
" />
<path d="M40.0130 24.3805
L40.0735 24.5619
" />
<path d="M40.0735 24.5619
L40.1945 24.6829
" />
<path d="M40.1945 24.6829
L40.3154 24.7434
" />
<path d="M40.3154 24.7434
L40.5573 24.8038
" />
<path d="M40.5573 24.8038
L40.7387 24.8038
" />
<path d="M40.7387 24.8038
L40.9806 24.7434
" />
<path d="M40.9806 24.7434
L41.1016 24.6829
" />
<path d="M41.1016 24.6829
L41.2226 24.5619
" />
<path d="M41.2226 24.5619
L41.2830 24.3805
" />
<path d="M41.2830 24.3805
L41.2830 24.2596
" />
<path d="M41.2830 24.2596
L41.2226 24.0781
" />
<path d="M41.2226 24.0781
L41.1621 24.0177
" />
<path d="M41.1621 24.0177
L40.7387 24.0177
" />
<path d="M40.7387 24.0177
L40.7387 24.2596
" />
<path d="M41.2830 23.4734
L40.0130 23.4734
" />
<path d="M40.0130 23.4734
L41.2830 22.7477
" />
<path d="M41.2830 22.7477
L40.0130 22.7477
" />
<path d="M41.2830 22.1429
L40.0130 22.1429
" />
<path d="M40.0130 22.1429
L40.0130 21.8405
" />
<path d="M40.0130 21.8405
L40.0735 21.6591
" />
<path d="M40.0735 21.6591
L40.1945 21.5381
" />
<path d="M40.1945 21.5381
L40.3154 21.4776
" />
<path d="M40.3154 21.4776
L40.5573 21.4172
" />
<path d="M40.5573 21.4172
L40.7387 21.4172
" />
<path d="M40.7387 21.4172
L40.9806 21.4776
" />
<path d="M40.9806 21.4776
L41.1016 21.5381
" />
<path d="M41.1016 21.5381
L41.2226 21.6591
" />
<path d="M41.2226 21.6591
L41.2830 21.8405
" />
<path d="M41.2830 21.8405
L41.2830 22.1429
" />
</g></g>
<g style="fill:#A90000; fill-opacity:0.0; 
stroke:#A90000; stroke-width:0.1524; stroke-opacity:1; 
stroke-linecap:round; stroke-linejoin:round;">
<g transform="rotate(-90.000000 40.4495 26.6700)">
<text x="40.4495" y="26.6700"
textLength="1.4127" font-size="1.6933" lengthAdjust="spacingAndGlyphs"
text-anchor="middle" opacity="0">3</text>
</g>
<g class="stroked-text"><desc>3</desc>
<path d="M39.0160 27.0932
L39.0160 26.3070
" />
<path d="M39.0160 26.3070
L39.4998 26.7304
" />
<path d="M39.4998 26.7304
L39.4998 26.5489
" />
<path d="M39.4998 26.5489
L39.5603 26.4280
" />
<path d="M39.5603 26.4280
L39.6208 26.3675
" />
<path d="M39.6208 26.3675
L39.7417 26.3070
" />
<path d="M39.7417 26.3070
L40.0441 26.3070
" />
<path d="M40.0441 26.3070
L40.1651 26.3675
" />
<path d="M40.1651 26.3675
L40.2256 26.4280
" />
<path d="M40.2256 26.4280
L40.2860 26.5489
" />
<path d="M40.2860 26.5489
L40.2860 26.9118
" />
<path d="M40.2860 26.9118
L40.2256 27.0327
" />
<path d="M40.2256 27.0327
L40.1651 27.0932
" />
</g></g>
<g style="fill:#840000; fill-opacity:0.0; 
stroke:#840000; stroke-width:0.1524; stroke-opacity:1; 
stroke-linecap:round; stroke-linejoin:round;">
<path d="M40.7035 5.0800
L40.7035 2.5400
" />
</g>
<g style="fill:#006464; fill-opacity:0.0; 
stroke:#006464; stroke-width:0.1524; stroke-opacity:1; 
stroke-linecap:round; stroke-linejoin:round;">
<g transform="rotate(-90.000000 40.7035 5.3340)">
<text x="40.7035" y="5.9690"
textLength="2.8642" font-size="1.6933" lengthAdjust="spacingAndGlyphs"
text-anchor="end" opacity="0">V+</text>
</g>
<g class="stroked-text"><desc>V+</desc>
<path d="M40.0130 7.9742
L41.2830 7.5509
" />
<path d="M41.2830 7.5509
L40.0130 7.1275
" />
<path d="M40.7992 6.7042
L40.7992 5.7366
" />
<path d="M41.2830 6.2204
L40.3154 6.2204
" />
</g></g>
<g style="fill:#A90000; fill-opacity:0.0; 
stroke:#A90000; stroke-width:0.1524; stroke-opacity:1; 
stroke-linecap:round; stroke-linejoin:round;">
<g transform="rotate(-90.000000 40.4495 3.8100)">
<text x="40.4495" y="3.8100"
textLength="1.4127" font-size="1.6933" lengthAdjust="spacingAndGlyphs"
text-anchor="middle" opacity="0">4</text>
</g>
<g class="stroked-text"><desc>4</desc>
<path d="M39.4394 3.5680
L40.2860 3.5680
" />
<path d="M38.9556 3.8704
L39.8627 4.1727
" />
<path d="M39.8627 4.1727
L39.8627 3.3866
" />
</g></g>
<g style="fill:#840000; fill-opacity:0.0; 
stroke:#840000; stroke-width:0.1524; stroke-opacity:1; 
stroke-linecap:round; stroke-linejoin:round;">
<path d="M43.2435 5.0800
L43.2435 2.5400
" />
</g>
<g style="fill:#006464; fill-opacity:0.0; 
stroke:#006464; stroke-width:0.1524; stroke-opacity:1; 
stroke-linecap:round; stroke-linejoin:round;">
<g transform="rotate(-90.000000 43.2435 5.3340)">
<text x="43.2435" y="5.9690"
textLength="2.3199" font-size="1.6933" lengthAdjust="spacingAndGlyphs"
text-anchor="end" opacity="0">VL</text>
</g>
<g class="stroked-text"><desc>VL</desc>
<path d="M42.5530 7.4299
L43.8230 7.0066
" />
<path d="M43.8230 7.0066
L42.5530 6.5832
" />
<path d="M43.8230 5.5551
L43.8230 6.1599
" />
<path d="M43.8230 6.1599
L42.5530 6.1599
" />
</g></g>
<g style="fill:#A90000; fill-opacity:0.0; 
stroke:#A90000; stroke-width:0.1524; stroke-opacity:1; 
stroke-linecap:round; stroke-linejoin:round;">
<g transform="rotate(-90.000000 42.9895 3.8100)">
<text x="42.9895" y="3.8100"
textLength="1.4127" font-size="1.6933" lengthAdjust="spacingAndGlyphs"
text-anchor="middle" opacity="0">5</text>
</g>
<g class="stroked-text"><desc>5</desc>
<path d="M41.5560 3.5075
L41.5560 4.1123
" />
<path d="M41.5560 4.1123
L42.1608 4.1727
" />
<path d="M42.1608 4.1727
L42.1003 4.1123
" />
<path d="M42.1003 4.1123
L42.0398 3.9913
" />
<path d="M42.0398 3.9913
L42.0398 3.6889
" />
<path d="M42.0398 3.6889
L42.1003 3.5680
" />
<path d="M42.1003 3.5680
L42.1608 3.5075
" />
<path d="M42.1608 3.5075
L42.2817 3.4470
" />
<path d="M42.2817 3.4470
L42.5841 3.4470
" />
<path d="M42.5841 3.4470
L42.7051 3.5075
" />
<path d="M42.7051 3.5075
L42.7656 3.5680
" />
<path d="M42.7656 3.5680
L42.8260 3.6889
" />
<path d="M42.8260 3.6889
L42.8260 3.9913
" />
<path d="M42.8260 3.9913
L42.7656 4.1123
" />
<path d="M42.7656 4.1123
L42.7051 4.1727
" />
</g></g>
<g style="fill:#840000; fill-opacity:0.0; 
stroke:#840000; stroke-width:0.1524; stroke-opacity:1; 
stroke-linecap:round; stroke-linejoin:round;">
<path d="M43.2435 25.4000
L43.2435 27.9400
" />
</g>
<g style="fill:#006464; fill-opacity:0.0; 
stroke:#006464; stroke-width:0.1524; stroke-opacity:1; 
stroke-linecap:round; stroke-linejoin:round;">
<g transform="rotate(-90.000000 43.2435 25.1460)">
<text x="43.2435" y="25.7810"
textLength="2.8642" font-size="1.6933" lengthAdjust="spacingAndGlyphs"
text-anchor="start" opacity="0">V-</text>
</g>
<g class="stroked-text"><desc>V-</desc>
<path d="M42.5530 24.9248
L43.8230 24.5015
" />
<path d="M43.8230 24.5015
L42.5530 24.0781
" />
<path d="M43.3392 23.6548
L43.3392 22.6872
" />
</g></g>
<g style="fill:#A90000; fill-opacity:0.0; 
stroke:#A90000; stroke-width:0.1524; stroke-opacity:1; 
stroke-linecap:round; stroke-linejoin:round;">
<g transform="rotate(-90.000000 42.9895 26.6700)">
<text x="42.9895" y="26.6700"
textLength="1.4127" font-size="1.6933" lengthAdjust="spacingAndGlyphs"
text-anchor="middle" opacity="0">7</text>
</g>
<g class="stroked-text"><desc>7</desc>
<path d="M41.5560 27.0932
L41.5560 26.2466
" />
<path d="M41.5560 26.2466
L42.8260 26.7908
" />
</g></g>
<g style="fill:#840084; fill-opacity:0.0; 
stroke:#840084; stroke-width:0.1524; stroke-opacity:1; 
stroke-linecap:round; stroke-linejoin:round;">
</g>
<g style="fill:#006464; fill-opacity:0.0; 
stroke:#006464; stroke-width:0.1524; stroke-opacity:1; 
stroke-linecap:round; stroke-linejoin:round;">
</g>
<g style="fill:#006464; fill-opacity:0.0; 
stroke:#006464; stroke-width:0.1588; stroke-opacity:1; 
stroke-linecap:round; stroke-linejoin:round;">
<text x="38.8492" y="10.5410"
textLength="2.6415" font-size="1.6933" lengthAdjust="spacingAndGlyphs"
text-anchor="middle" opacity="0">U?</text>
<g class="stroked-text"><desc>U?</desc>
<path d="M37.9420 9.2152
L37.9420 10.2433
" />
<path d="M37.9420 10.2433
L38.0025 10.3643
" />
<path d="M38.0025 10.3643
L38.0630 10.4248
" />
<path d="M38.0630 10.4248
L38.1839 10.4852
" />
<path d="M38.1839 10.4852
L38.4258 10.4852
" />
<path d="M38.4258 10.4852
L38.5468 10.4248
" />
<path d="M38.5468 10.4248
L38.6073 10.3643
" />
<path d="M38.6073 10.3643
L38.6677 10.2433
" />
<path d="M38.6677 10.2433
L38.6677 9.2152
" />
<path d="M39.4540 10.3643
L39.5144 10.4248
" />
<path d="M39.5144 10.4248
L39.4540 10.4852
" />
<path d="M39.4540 10.4852
L39.3935 10.4248
" />
<path d="M39.3935 10.4248
L39.4540 10.3643
" />
<path d="M39.4540 10.3643
L39.4540 10.4852
" />
<path d="M39.2121 9.2757
L39.3330 9.2152
" />
<path d="M39.3330 9.2152
L39.6354 9.2152
" />
<path d="M39.6354 9.2152
L39.7563 9.2757
" />
<path d="M39.7563 9.2757
L39.8168 9.3967
" />
<path d="M39.8168 9.3967
L39.8168 9.5176
" />
<path d="M39.8168 9.5176
L39.7563 9.6386
" />
<path d="M39.7563 9.6386
L39.6959 9.6990
" />
<path d="M39.6959 9.6990
L39.5749 9.7595
" />
<path d="M39.5749 9.7595
L39.5144 9.8200
" />
<path d="M39.5144 9.8200
L39.4540 9.9409
" />
<path d="M39.4540 9.9409
L39.4540 10.0014
" />
</g><text x="42.9918" y="12.3190"
textLength="10.9266" font-size="1.6933" lengthAdjust="spacingAndGlyphs"
text-anchor="middle" opacity="0">MAX318xSA</text>
<g class="stroked-text"><desc>MAX318xSA</desc>
<path d="M37.9420 12.2632
L37.9420 10.9932
" />
<path d="M37.9420 10.9932
L38.3654 11.9004
" />
<path d="M38.3654 11.9004
L38.7887 10.9932
" />
<path d="M38.7887 10.9932
L38.7887 12.2632
" />
<path d="M39.3330 11.9004
L39.9377 11.9004
" />
<path d="M39.2120 12.2632
L39.6353 10.9932
" />
<path d="M39.6353 10.9932
L40.0587 12.2632
" />
<path d="M40.3611 10.9932
L41.2077 12.2632
" />
<path d="M41.2077 10.9932
L40.3611 12.2632
" />
<path d="M41.5706 10.9932
L42.3568 10.9932
" />
<path d="M42.3568 10.9932
L41.9334 11.4770
" />
<path d="M41.9334 11.4770
L42.1149 11.4770
" />
<path d="M42.1149 11.4770
L42.2358 11.5375
" />
<path d="M42.2358 11.5375
L42.2963 11.5980
" />
<path d="M42.2963 11.5980
L42.3568 11.7189
" />
<path d="M42.3568 11.7189
L42.3568 12.0213
" />
<path d="M42.3568 12.0213
L42.2963 12.1423
" />
<path d="M42.2963 12.1423
L42.2358 12.2028
" />
<path d="M42.2358 12.2028
L42.1149 12.2632
" />
<path d="M42.1149 12.2632
L41.7520 12.2632
" />
<path d="M41.7520 12.2632
L41.6311 12.2028
" />
<path d="M41.6311 12.2028
L41.5706 12.1423
" />
<path d="M43.5663 12.2632
L42.8406 12.2632
" />
<path d="M43.2034 12.2632
L43.2034 10.9932
" />
<path d="M43.2034 10.9932
L43.0825 11.1747
" />
<path d="M43.0825 11.1747
L42.9615 11.2956
" />
<path d="M42.9615 11.2956
L42.8406 11.3561
" />
<path d="M44.2920 11.5375
L44.1710 11.4770
" />
<path d="M44.1710 11.4770
L44.1105 11.4166
" />
<path d="M44.1105 11.4166
L44.0501 11.2956
" />
<path d="M44.0501 11.2956
L44.0501 11.2351
" />
<path d="M44.0501 11.2351
L44.1105 11.1142
" />
<path d="M44.1105 11.1142
L44.1710 11.0537
" />
<path d="M44.1710 11.0537
L44.2920 10.9932
" />
<path d="M44.2920 10.9932
L44.5339 10.9932
" />
<path d="M44.5339 10.9932
L44.6548 11.0537
" />
<path d="M44.6548 11.0537
L44.7153 11.1142
" />
<path d="M44.7153 11.1142
L44.7758 11.2351
" />
<path d="M44.7758 11.2351
L44.7758 11.2956
" />
<path d="M44.7758 11.2956
L44.7153 11.4166
" />
<path d="M44.7153 11.4166
L44.6548 11.4770
" />
<path d="M44.6548 11.4770
L44.5339 11.5375
" />
<path d="M44.5339 11.5375
L44.2920 11.5375
" />
<path d="M44.2920 11.5375
L44.1710 11.5980
" />
<path d="M44.1710 11.5980
L44.1105 11.6585
" />
<path d="M44.1105 11.6585
L44.0501 11.7794
" />
<path d="M44.0501 11.7794
L44.0501 12.0213
" />
<path d="M44.0501 12.0213
L44.1105 12.1423
" />
<path d="M44.1105 12.1423
L44.1710 12.2028
" />
<path d="M44.1710 12.2028
L44.2920 12.2632
" />
<path d="M44.2920 12.2632
L44.5339 12.2632
" />
<path d="M44.5339 12.2632
L44.6548 12.2028
" />
<path d="M44.6548 12.2028
L44.7153 12.1423
" />
<path d="M44.7153 12.1423
L44.7758 12.0213
" />
<path d="M44.7758 12.0213
L44.7758 11.7794
" />
<path d="M44.7758 11.7794
L44.7153 11.6585
" />
<path d="M44.7153 11.6585
L44.6548 11.5980
" />
<path d="M44.6548 11.5980
L44.5339 11.5375
" />
<path d="M45.1991 12.2632
L45.8643 11.4166
" />
<path d="M45.1991 11.4166
L45.8643 12.2632
" />
<path d="M46.2877 12.2028
L46.4691 12.2632
" />
<path d="M46.4691 12.2632
L46.7715 12.2632
" />
<path d="M46.7715 12.2632
L46.8924 12.2028
" />
<path d="M46.8924 12.2028
L46.9529 12.1423
" />
<path d="M46.9529 12.1423
L47.0134 12.0213
" />
<path d="M47.0134 12.0213
L47.0134 11.9004
" />
<path d="M47.0134 11.9004
L46.9529 11.7794
" />
<path d="M46.9529 11.7794
L46.8924 11.7189
" />
<path d="M46.8924 11.7189
L46.7715 11.6585
" />
<path d="M46.7715 11.6585
L46.5296 11.5980
" />
<path d="M46.5296 11.5980
L46.4086 11.5375
" />
<path d="M46.4086 11.5375
L46.3481 11.4770
" />
<path d="M46.3481 11.4770
L46.2877 11.3561
" />
<path d="M46.2877 11.3561
L46.2877 11.2351
" />
<path d="M46.2877 11.2351
L46.3481 11.1142
" />
<path d="M46.3481 11.1142
L46.4086 11.0537
" />
<path d="M46.4086 11.0537
L46.5296 10.9932
" />
<path d="M46.5296 10.9932
L46.8319 10.9932
" />
<path d="M46.8319 10.9932
L47.0134 11.0537
" />
<path d="M47.4972 11.9004
L48.1019 11.9004
" />
<path d="M47.3762 12.2632
L47.7995 10.9932
" />
<path d="M47.7995 10.9932
L48.2229 12.2632
" />
</g></g> 
</svg>
