<?xml version="1.0" standalone="no"?>
 <!DOCTYPE svg PUBLIC "-//W3C//DTD SVG 1.1//EN" 
 "http://www.w3.org/Graphics/SVG/1.1/DTD/svg11.dtd"> 
<svg
  xmlns:svg="http://www.w3.org/2000/svg"
  xmlns="http://www.w3.org/2000/svg"
  xmlns:xlink="http://www.w3.org/1999/xlink"
  version="1.1"
  width="63.1444mm" height="32.4612mm" viewBox="0.0000 0.0000 63.1444 32.4612">
<title>SVG Image created as ts5a3159adbvr.svg date 2024/01/16 15:08:57 </title>
  <desc>Image generated by Eeschema-SVG </desc>
<g style="fill:#000000; fill-opacity:1.0000;stroke:#000000; stroke-opacity:1.0000;
stroke-linecap:round; stroke-linejoin:round;"
 transform="translate(0 0) scale(1 1)">
</g>
<g style="fill:#840000; fill-opacity:0.0; 
stroke:#840000; stroke-width:0.0000; stroke-opacity:1; 
stroke-linecap:round; stroke-linejoin:round;">
</g>
<g style="fill:#FFFFC2; fill-opacity:0.0; 
stroke:#FFFFC2; stroke-width:0.0000; stroke-opacity:1; 
stroke-linecap:round; stroke-linejoin:round;">
</g>
<g style="fill:#FFFFC2; fill-opacity:1.0000; 
stroke:#FFFFC2; stroke-width:0.0000; stroke-opacity:1; 
stroke-linecap:round; stroke-linejoin:round;">
<rect x="27.762200" y="6.070600" width="7.620000" height="20.320000" rx="0.000000" />
</g>
<g style="fill:#840084; fill-opacity:1.0000; 
stroke:#840084; stroke-width:0.0000; stroke-opacity:1; 
stroke-linecap:round; stroke-linejoin:round;">
</g>
<g style="fill:#840000; fill-opacity:1.0000; 
stroke:#840000; stroke-width:0.0000; stroke-opacity:1; 
stroke-linecap:round; stroke-linejoin:round;">
</g>
<g style="fill:#840000; fill-opacity:0.0; 
stroke:#840000; stroke-width:0.2540; stroke-opacity:1; 
stroke-linecap:round; stroke-linejoin:round;">
<rect x="27.762200" y="6.070600" width="7.620000" height="20.320000" rx="0.000000" />
</g>
<g style="fill:#840000; fill-opacity:0.0; 
stroke:#840000; stroke-width:0.1524; stroke-opacity:1; 
stroke-linecap:round; stroke-linejoin:round;">
<path d="M31.5722 26.3906
L31.5722 28.9306
" />
</g>
<g style="fill:#006464; fill-opacity:0.0; 
stroke:#006464; stroke-width:0.1524; stroke-opacity:1; 
stroke-linecap:round; stroke-linejoin:round;">
<g transform="rotate(-90.000000 31.5722 26.2636)">
<text x="31.5722" y="26.8986"
textLength="4.0737" font-size="1.6933" lengthAdjust="spacingAndGlyphs"
text-anchor="start" opacity="0">GND</text>
</g>
<g class="stroked-text"><desc>GND</desc>
<path d="M30.9422 25.1957
L30.8817 25.3167
" />
<path d="M30.8817 25.3167
L30.8817 25.4981
" />
<path d="M30.8817 25.4981
L30.9422 25.6795
" />
<path d="M30.9422 25.6795
L31.0632 25.8005
" />
<path d="M31.0632 25.8005
L31.1841 25.8610
" />
<path d="M31.1841 25.8610
L31.4260 25.9214
" />
<path d="M31.4260 25.9214
L31.6074 25.9214
" />
<path d="M31.6074 25.9214
L31.8493 25.8610
" />
<path d="M31.8493 25.8610
L31.9703 25.8005
" />
<path d="M31.9703 25.8005
L32.0913 25.6795
" />
<path d="M32.0913 25.6795
L32.1517 25.4981
" />
<path d="M32.1517 25.4981
L32.1517 25.3772
" />
<path d="M32.1517 25.3772
L32.0913 25.1957
" />
<path d="M32.0913 25.1957
L32.0308 25.1353
" />
<path d="M32.0308 25.1353
L31.6074 25.1353
" />
<path d="M31.6074 25.1353
L31.6074 25.3772
" />
<path d="M32.1517 24.5910
L30.8817 24.5910
" />
<path d="M30.8817 24.5910
L32.1517 23.8653
" />
<path d="M32.1517 23.8653
L30.8817 23.8653
" />
<path d="M32.1517 23.2605
L30.8817 23.2605
" />
<path d="M30.8817 23.2605
L30.8817 22.9581
" />
<path d="M30.8817 22.9581
L30.9422 22.7767
" />
<path d="M30.9422 22.7767
L31.0632 22.6557
" />
<path d="M31.0632 22.6557
L31.1841 22.5952
" />
<path d="M31.1841 22.5952
L31.4260 22.5348
" />
<path d="M31.4260 22.5348
L31.6074 22.5348
" />
<path d="M31.6074 22.5348
L31.8493 22.5952
" />
<path d="M31.8493 22.5952
L31.9703 22.6557
" />
<path d="M31.9703 22.6557
L32.0913 22.7767
" />
<path d="M32.0913 22.7767
L32.1517 22.9581
" />
<path d="M32.1517 22.9581
L32.1517 23.2605
" />
</g></g>
<g style="fill:#A90000; fill-opacity:0.0; 
stroke:#A90000; stroke-width:0.1524; stroke-opacity:1; 
stroke-linecap:round; stroke-linejoin:round;">
<g transform="rotate(-90.000000 31.3182 27.6606)">
<text x="31.3182" y="27.6606"
textLength="1.4127" font-size="1.6933" lengthAdjust="spacingAndGlyphs"
text-anchor="middle" opacity="0">2</text>
</g>
<g class="stroked-text"><desc>2</desc>
<path d="M30.0057 28.0233
L29.9452 27.9629
" />
<path d="M29.9452 27.9629
L29.8847 27.8419
" />
<path d="M29.8847 27.8419
L29.8847 27.5395
" />
<path d="M29.8847 27.5395
L29.9452 27.4186
" />
<path d="M29.9452 27.4186
L30.0057 27.3581
" />
<path d="M30.0057 27.3581
L30.1266 27.2976
" />
<path d="M30.1266 27.2976
L30.2476 27.2976
" />
<path d="M30.2476 27.2976
L30.4290 27.3581
" />
<path d="M30.4290 27.3581
L31.1547 28.0838
" />
<path d="M31.1547 28.0838
L31.1547 27.2976
" />
</g></g>
<g style="fill:#840000; fill-opacity:0.0; 
stroke:#840000; stroke-width:0.1524; stroke-opacity:1; 
stroke-linecap:round; stroke-linejoin:round;">
<path d="M31.5722 6.0706
L31.5722 3.5306
" />
</g>
<g style="fill:#006464; fill-opacity:0.0; 
stroke:#006464; stroke-width:0.1524; stroke-opacity:1; 
stroke-linecap:round; stroke-linejoin:round;">
<g transform="rotate(-90.000000 31.5722 6.1976)">
<text x="31.5722" y="6.8326"
textLength="2.8642" font-size="1.6933" lengthAdjust="spacingAndGlyphs"
text-anchor="end" opacity="0">V+</text>
</g>
<g class="stroked-text"><desc>V+</desc>
<path d="M30.8817 8.8378
L32.1517 8.4145
" />
<path d="M32.1517 8.4145
L30.8817 7.9911
" />
<path d="M31.6679 7.5678
L31.6679 6.6002
" />
<path d="M32.1517 7.0840
L31.1841 7.0840
" />
</g></g>
<g style="fill:#A90000; fill-opacity:0.0; 
stroke:#A90000; stroke-width:0.1524; stroke-opacity:1; 
stroke-linecap:round; stroke-linejoin:round;">
<g transform="rotate(-90.000000 31.3182 4.8006)">
<text x="31.3182" y="4.8006"
textLength="1.4127" font-size="1.6933" lengthAdjust="spacingAndGlyphs"
text-anchor="middle" opacity="0">5</text>
</g>
<g class="stroked-text"><desc>5</desc>
<path d="M29.8847 4.4981
L29.8847 5.1029
" />
<path d="M29.8847 5.1029
L30.4895 5.1633
" />
<path d="M30.4895 5.1633
L30.4290 5.1029
" />
<path d="M30.4290 5.1029
L30.3685 4.9819
" />
<path d="M30.3685 4.9819
L30.3685 4.6795
" />
<path d="M30.3685 4.6795
L30.4290 4.5586
" />
<path d="M30.4290 4.5586
L30.4895 4.4981
" />
<path d="M30.4895 4.4981
L30.6104 4.4376
" />
<path d="M30.6104 4.4376
L30.9128 4.4376
" />
<path d="M30.9128 4.4376
L31.0338 4.4981
" />
<path d="M31.0338 4.4981
L31.0943 4.5586
" />
<path d="M31.0943 4.5586
L31.1547 4.6795
" />
<path d="M31.1547 4.6795
L31.1547 4.9819
" />
<path d="M31.1547 4.9819
L31.0943 5.1029
" />
<path d="M31.0943 5.1029
L31.0338 5.1633
" />
</g></g>
<g style="fill:#840084; fill-opacity:0.0; 
stroke:#840084; stroke-width:0.1524; stroke-opacity:1; 
stroke-linecap:round; stroke-linejoin:round;">
</g>
<g style="fill:#006464; fill-opacity:0.0; 
stroke:#006464; stroke-width:0.1524; stroke-opacity:1; 
stroke-linecap:round; stroke-linejoin:round;">
</g>
<g style="fill:#006464; fill-opacity:0.0; 
stroke:#006464; stroke-width:0.1588; stroke-opacity:1; 
stroke-linecap:round; stroke-linejoin:round;">
<text x="29.7179" y="12.1666"
textLength="2.6415" font-size="1.6933" lengthAdjust="spacingAndGlyphs"
text-anchor="middle" opacity="0">U?</text>
<g class="stroked-text"><desc>U?</desc>
<path d="M28.8107 10.8408
L28.8107 11.8689
" />
<path d="M28.8107 11.8689
L28.8712 11.9899
" />
<path d="M28.8712 11.9899
L28.9317 12.0504
" />
<path d="M28.9317 12.0504
L29.0526 12.1108
" />
<path d="M29.0526 12.1108
L29.2945 12.1108
" />
<path d="M29.2945 12.1108
L29.4155 12.0504
" />
<path d="M29.4155 12.0504
L29.4760 11.9899
" />
<path d="M29.4760 11.9899
L29.5364 11.8689
" />
<path d="M29.5364 11.8689
L29.5364 10.8408
" />
<path d="M30.3227 11.9899
L30.3831 12.0504
" />
<path d="M30.3831 12.0504
L30.3227 12.1108
" />
<path d="M30.3227 12.1108
L30.2622 12.0504
" />
<path d="M30.2622 12.0504
L30.3227 11.9899
" />
<path d="M30.3227 11.9899
L30.3227 12.1108
" />
<path d="M30.0808 10.9013
L30.2017 10.8408
" />
<path d="M30.2017 10.8408
L30.5041 10.8408
" />
<path d="M30.5041 10.8408
L30.6250 10.9013
" />
<path d="M30.6250 10.9013
L30.6855 11.0223
" />
<path d="M30.6855 11.0223
L30.6855 11.1432
" />
<path d="M30.6855 11.1432
L30.6250 11.2642
" />
<path d="M30.6250 11.2642
L30.5646 11.3246
" />
<path d="M30.5646 11.3246
L30.4436 11.3851
" />
<path d="M30.4436 11.3851
L30.3831 11.4456
" />
<path d="M30.3831 11.4456
L30.3227 11.5665
" />
<path d="M30.3227 11.5665
L30.3227 11.6270
" />
</g><text x="36.1586" y="13.9446"
textLength="15.5228" font-size="1.6933" lengthAdjust="spacingAndGlyphs"
text-anchor="middle" opacity="0">TS5A3159ADBVR</text>
<g class="stroked-text"><desc>TS5A3159ADBVR</desc>
<path d="M28.6293 12.6188
L29.3550 12.6188
" />
<path d="M28.9922 13.8888
L28.9922 12.6188
" />
<path d="M29.7179 13.8284
L29.8993 13.8888
" />
<path d="M29.8993 13.8888
L30.2017 13.8888
" />
<path d="M30.2017 13.8888
L30.3226 13.8284
" />
<path d="M30.3226 13.8284
L30.3831 13.7679
" />
<path d="M30.3831 13.7679
L30.4436 13.6469
" />
<path d="M30.4436 13.6469
L30.4436 13.5260
" />
<path d="M30.4436 13.5260
L30.3831 13.4050
" />
<path d="M30.3831 13.4050
L30.3226 13.3445
" />
<path d="M30.3226 13.3445
L30.2017 13.2841
" />
<path d="M30.2017 13.2841
L29.9598 13.2236
" />
<path d="M29.9598 13.2236
L29.8388 13.1631
" />
<path d="M29.8388 13.1631
L29.7783 13.1026
" />
<path d="M29.7783 13.1026
L29.7179 12.9817
" />
<path d="M29.7179 12.9817
L29.7179 12.8607
" />
<path d="M29.7179 12.8607
L29.7783 12.7398
" />
<path d="M29.7783 12.7398
L29.8388 12.6793
" />
<path d="M29.8388 12.6793
L29.9598 12.6188
" />
<path d="M29.9598 12.6188
L30.2621 12.6188
" />
<path d="M30.2621 12.6188
L30.4436 12.6793
" />
<path d="M31.5926 12.6188
L30.9878 12.6188
" />
<path d="M30.9878 12.6188
L30.9274 13.2236
" />
<path d="M30.9274 13.2236
L30.9878 13.1631
" />
<path d="M30.9878 13.1631
L31.1088 13.1026
" />
<path d="M31.1088 13.1026
L31.4112 13.1026
" />
<path d="M31.4112 13.1026
L31.5321 13.1631
" />
<path d="M31.5321 13.1631
L31.5926 13.2236
" />
<path d="M31.5926 13.2236
L31.6531 13.3445
" />
<path d="M31.6531 13.3445
L31.6531 13.6469
" />
<path d="M31.6531 13.6469
L31.5926 13.7679
" />
<path d="M31.5926 13.7679
L31.5321 13.8284
" />
<path d="M31.5321 13.8284
L31.4112 13.8888
" />
<path d="M31.4112 13.8888
L31.1088 13.8888
" />
<path d="M31.1088 13.8888
L30.9878 13.8284
" />
<path d="M30.9878 13.8284
L30.9274 13.7679
" />
<path d="M32.1369 13.5260
L32.7416 13.5260
" />
<path d="M32.0159 13.8888
L32.4392 12.6188
" />
<path d="M32.4392 12.6188
L32.8626 13.8888
" />
<path d="M33.1650 12.6188
L33.9512 12.6188
" />
<path d="M33.9512 12.6188
L33.5278 13.1026
" />
<path d="M33.5278 13.1026
L33.7093 13.1026
" />
<path d="M33.7093 13.1026
L33.8302 13.1631
" />
<path d="M33.8302 13.1631
L33.8907 13.2236
" />
<path d="M33.8907 13.2236
L33.9512 13.3445
" />
<path d="M33.9512 13.3445
L33.9512 13.6469
" />
<path d="M33.9512 13.6469
L33.8907 13.7679
" />
<path d="M33.8907 13.7679
L33.8302 13.8284
" />
<path d="M33.8302 13.8284
L33.7093 13.8888
" />
<path d="M33.7093 13.8888
L33.3464 13.8888
" />
<path d="M33.3464 13.8888
L33.2255 13.8284
" />
<path d="M33.2255 13.8284
L33.1650 13.7679
" />
<path d="M35.1607 13.8888
L34.4350 13.8888
" />
<path d="M34.7978 13.8888
L34.7978 12.6188
" />
<path d="M34.7978 12.6188
L34.6769 12.8003
" />
<path d="M34.6769 12.8003
L34.5559 12.9212
" />
<path d="M34.5559 12.9212
L34.4350 12.9817
" />
<path d="M36.3097 12.6188
L35.7049 12.6188
" />
<path d="M35.7049 12.6188
L35.6445 13.2236
" />
<path d="M35.6445 13.2236
L35.7049 13.1631
" />
<path d="M35.7049 13.1631
L35.8259 13.1026
" />
<path d="M35.8259 13.1026
L36.1283 13.1026
" />
<path d="M36.1283 13.1026
L36.2492 13.1631
" />
<path d="M36.2492 13.1631
L36.3097 13.2236
" />
<path d="M36.3097 13.2236
L36.3702 13.3445
" />
<path d="M36.3702 13.3445
L36.3702 13.6469
" />
<path d="M36.3702 13.6469
L36.3097 13.7679
" />
<path d="M36.3097 13.7679
L36.2492 13.8284
" />
<path d="M36.2492 13.8284
L36.1283 13.8888
" />
<path d="M36.1283 13.8888
L35.8259 13.8888
" />
<path d="M35.8259 13.8888
L35.7049 13.8284
" />
<path d="M35.7049 13.8284
L35.6445 13.7679
" />
<path d="M36.9749 13.8888
L37.2168 13.8888
" />
<path d="M37.2168 13.8888
L37.3378 13.8284
" />
<path d="M37.3378 13.8284
L37.3982 13.7679
" />
<path d="M37.3982 13.7679
L37.5192 13.5864
" />
<path d="M37.5192 13.5864
L37.5797 13.3445
" />
<path d="M37.5797 13.3445
L37.5797 12.8607
" />
<path d="M37.5797 12.8607
L37.5192 12.7398
" />
<path d="M37.5192 12.7398
L37.4587 12.6793
" />
<path d="M37.4587 12.6793
L37.3378 12.6188
" />
<path d="M37.3378 12.6188
L37.0959 12.6188
" />
<path d="M37.0959 12.6188
L36.9749 12.6793
" />
<path d="M36.9749 12.6793
L36.9144 12.7398
" />
<path d="M36.9144 12.7398
L36.8540 12.8607
" />
<path d="M36.8540 12.8607
L36.8540 13.1631
" />
<path d="M36.8540 13.1631
L36.9144 13.2841
" />
<path d="M36.9144 13.2841
L36.9749 13.3445
" />
<path d="M36.9749 13.3445
L37.0959 13.4050
" />
<path d="M37.0959 13.4050
L37.3378 13.4050
" />
<path d="M37.3378 13.4050
L37.4587 13.3445
" />
<path d="M37.4587 13.3445
L37.5192 13.2841
" />
<path d="M37.5192 13.2841
L37.5797 13.1631
" />
<path d="M38.0635 13.5260
L38.6682 13.5260
" />
<path d="M37.9425 13.8888
L38.3658 12.6188
" />
<path d="M38.3658 12.6188
L38.7892 13.8888
" />
<path d="M39.2125 13.8888
L39.2125 12.6188
" />
<path d="M39.2125 12.6188
L39.5149 12.6188
" />
<path d="M39.5149 12.6188
L39.6963 12.6793
" />
<path d="M39.6963 12.6793
L39.8173 12.8003
" />
<path d="M39.8173 12.8003
L39.8778 12.9212
" />
<path d="M39.8778 12.9212
L39.9382 13.1631
" />
<path d="M39.9382 13.1631
L39.9382 13.3445
" />
<path d="M39.9382 13.3445
L39.8778 13.5864
" />
<path d="M39.8778 13.5864
L39.8173 13.7074
" />
<path d="M39.8173 13.7074
L39.6963 13.8284
" />
<path d="M39.6963 13.8284
L39.5149 13.8888
" />
<path d="M39.5149 13.8888
L39.2125 13.8888
" />
<path d="M40.9059 13.2236
L41.0873 13.2841
" />
<path d="M41.0873 13.2841
L41.1478 13.3445
" />
<path d="M41.1478 13.3445
L41.2082 13.4655
" />
<path d="M41.2082 13.4655
L41.2082 13.6469
" />
<path d="M41.2082 13.6469
L41.1478 13.7679
" />
<path d="M41.1478 13.7679
L41.0873 13.8284
" />
<path d="M41.0873 13.8284
L40.9663 13.8888
" />
<path d="M40.9663 13.8888
L40.4825 13.8888
" />
<path d="M40.4825 13.8888
L40.4825 12.6188
" />
<path d="M40.4825 12.6188
L40.9059 12.6188
" />
<path d="M40.9059 12.6188
L41.0268 12.6793
" />
<path d="M41.0268 12.6793
L41.0873 12.7398
" />
<path d="M41.0873 12.7398
L41.1478 12.8607
" />
<path d="M41.1478 12.8607
L41.1478 12.9817
" />
<path d="M41.1478 12.9817
L41.0873 13.1026
" />
<path d="M41.0873 13.1026
L41.0268 13.1631
" />
<path d="M41.0268 13.1631
L40.9059 13.2236
" />
<path d="M40.9059 13.2236
L40.4825 13.2236
" />
<path d="M41.5711 12.6188
L41.9944 13.8888
" />
<path d="M41.9944 13.8888
L42.4178 12.6188
" />
<path d="M43.5668 13.8888
L43.1435 13.2841
" />
<path d="M42.8411 13.8888
L42.8411 12.6188
" />
<path d="M42.8411 12.6188
L43.3249 12.6188
" />
<path d="M43.3249 12.6188
L43.4459 12.6793
" />
<path d="M43.4459 12.6793
L43.5064 12.7398
" />
<path d="M43.5064 12.7398
L43.5668 12.8607
" />
<path d="M43.5668 12.8607
L43.5668 13.0422
" />
<path d="M43.5668 13.0422
L43.5064 13.1631
" />
<path d="M43.5064 13.1631
L43.4459 13.2236
" />
<path d="M43.4459 13.2236
L43.3249 13.2841
" />
<path d="M43.3249 13.2841
L42.8411 13.2841
" />
</g></g> 
</svg>
