<?xml version="1.0" standalone="no"?>
 <!DOCTYPE svg PUBLIC "-//W3C//DTD SVG 1.1//EN" 
 "http://www.w3.org/Graphics/SVG/1.1/DTD/svg11.dtd"> 
<svg
  xmlns:svg="http://www.w3.org/2000/svg"
  xmlns="http://www.w3.org/2000/svg"
  xmlns:xlink="http://www.w3.org/1999/xlink"
  version="1.1"
  width="165.6842mm" height="69.7992mm" viewBox="0.0000 0.0000 165.6842 69.7992">
<title>SVG Image created as rfm98w-433s2.svg date 2024/01/16 15:21:19 </title>
  <desc>Image generated by Eeschema-SVG </desc>
<g style="fill:#000000; fill-opacity:1.0000;stroke:#000000; stroke-opacity:1.0000;
stroke-linecap:round; stroke-linejoin:round;"
 transform="translate(0 0) scale(1 1)">
</g>
<g style="fill:#000000; fill-opacity:0.0; 
stroke:#000000; stroke-width:0.0000; stroke-opacity:1; 
stroke-linecap:round; stroke-linejoin:round;">
</g>
<g style="fill:#000000; fill-opacity:0.0; 
stroke:#000000; stroke-width:0.2540; stroke-opacity:1; 
stroke-linecap:round; stroke-linejoin:round;">
<rect x="72.682100" y="24.739600" width="20.320000" height="22.860000" rx="0.000000" />
</g>
<g style="fill:#000000; fill-opacity:0.0; 
stroke:#000000; stroke-width:0.1524; stroke-opacity:1; 
stroke-linecap:round; stroke-linejoin:round;">
<path d="M80.3021 47.5996
L80.3021 50.1396
" />
<g transform="rotate(-90.000000 80.3021 46.5836)">
<text x="80.3021" y="47.2186"
textLength="4.0737" font-size="1.6933" lengthAdjust="spacingAndGlyphs"
text-anchor="start" opacity="0">GND</text>
</g>
<g class="stroked-text"><desc>GND</desc>
<path d="M79.6721 45.5157
L79.6116 45.6367
" />
<path d="M79.6116 45.6367
L79.6116 45.8181
" />
<path d="M79.6116 45.8181
L79.6721 45.9995
" />
<path d="M79.6721 45.9995
L79.7931 46.1205
" />
<path d="M79.7931 46.1205
L79.9140 46.1810
" />
<path d="M79.9140 46.1810
L80.1559 46.2414
" />
<path d="M80.1559 46.2414
L80.3373 46.2414
" />
<path d="M80.3373 46.2414
L80.5792 46.1810
" />
<path d="M80.5792 46.1810
L80.7002 46.1205
" />
<path d="M80.7002 46.1205
L80.8212 45.9995
" />
<path d="M80.8212 45.9995
L80.8816 45.8181
" />
<path d="M80.8816 45.8181
L80.8816 45.6972
" />
<path d="M80.8816 45.6972
L80.8212 45.5157
" />
<path d="M80.8212 45.5157
L80.7607 45.4553
" />
<path d="M80.7607 45.4553
L80.3373 45.4553
" />
<path d="M80.3373 45.4553
L80.3373 45.6972
" />
<path d="M80.8816 44.9110
L79.6116 44.9110
" />
<path d="M79.6116 44.9110
L80.8816 44.1853
" />
<path d="M80.8816 44.1853
L79.6116 44.1853
" />
<path d="M80.8816 43.5805
L79.6116 43.5805
" />
<path d="M79.6116 43.5805
L79.6116 43.2781
" />
<path d="M79.6116 43.2781
L79.6721 43.0967
" />
<path d="M79.6721 43.0967
L79.7931 42.9757
" />
<path d="M79.7931 42.9757
L79.9140 42.9152
" />
<path d="M79.9140 42.9152
L80.1559 42.8548
" />
<path d="M80.1559 42.8548
L80.3373 42.8548
" />
<path d="M80.3373 42.8548
L80.5792 42.9152
" />
<path d="M80.5792 42.9152
L80.7002 42.9757
" />
<path d="M80.7002 42.9757
L80.8212 43.0967
" />
<path d="M80.8212 43.0967
L80.8816 43.2781
" />
<path d="M80.8816 43.2781
L80.8816 43.5805
" />
</g><g transform="rotate(-90.000000 80.0481 48.8696)">
<text x="80.0481" y="48.8696"
textLength="1.4127" font-size="1.6933" lengthAdjust="spacingAndGlyphs"
text-anchor="middle" opacity="0">1</text>
</g>
<g class="stroked-text"><desc>1</desc>
<path d="M79.8846 48.5066
L79.8846 49.2323
" />
<path d="M79.8846 48.8695
L78.6146 48.8695
" />
<path d="M78.6146 48.8695
L78.7961 48.9904
" />
<path d="M78.7961 48.9904
L78.9170 49.1114
" />
<path d="M78.9170 49.1114
L78.9775 49.2323
" />
</g><path d="M85.3821 47.5996
L85.3821 50.1396
" />
<g transform="rotate(-90.000000 85.3821 46.5836)">
<text x="85.3821" y="47.2186"
textLength="4.0737" font-size="1.6933" lengthAdjust="spacingAndGlyphs"
text-anchor="start" opacity="0">GND</text>
</g>
<g class="stroked-text"><desc>GND</desc>
<path d="M84.7521 45.5157
L84.6916 45.6367
" />
<path d="M84.6916 45.6367
L84.6916 45.8181
" />
<path d="M84.6916 45.8181
L84.7521 45.9995
" />
<path d="M84.7521 45.9995
L84.8731 46.1205
" />
<path d="M84.8731 46.1205
L84.9940 46.1810
" />
<path d="M84.9940 46.1810
L85.2359 46.2414
" />
<path d="M85.2359 46.2414
L85.4173 46.2414
" />
<path d="M85.4173 46.2414
L85.6592 46.1810
" />
<path d="M85.6592 46.1810
L85.7802 46.1205
" />
<path d="M85.7802 46.1205
L85.9012 45.9995
" />
<path d="M85.9012 45.9995
L85.9616 45.8181
" />
<path d="M85.9616 45.8181
L85.9616 45.6972
" />
<path d="M85.9616 45.6972
L85.9012 45.5157
" />
<path d="M85.9012 45.5157
L85.8407 45.4553
" />
<path d="M85.8407 45.4553
L85.4173 45.4553
" />
<path d="M85.4173 45.4553
L85.4173 45.6972
" />
<path d="M85.9616 44.9110
L84.6916 44.9110
" />
<path d="M84.6916 44.9110
L85.9616 44.1853
" />
<path d="M85.9616 44.1853
L84.6916 44.1853
" />
<path d="M85.9616 43.5805
L84.6916 43.5805
" />
<path d="M84.6916 43.5805
L84.6916 43.2781
" />
<path d="M84.6916 43.2781
L84.7521 43.0967
" />
<path d="M84.7521 43.0967
L84.8731 42.9757
" />
<path d="M84.8731 42.9757
L84.9940 42.9152
" />
<path d="M84.9940 42.9152
L85.2359 42.8548
" />
<path d="M85.2359 42.8548
L85.4173 42.8548
" />
<path d="M85.4173 42.8548
L85.6592 42.9152
" />
<path d="M85.6592 42.9152
L85.7802 42.9757
" />
<path d="M85.7802 42.9757
L85.9012 43.0967
" />
<path d="M85.9012 43.0967
L85.9616 43.2781
" />
<path d="M85.9616 43.2781
L85.9616 43.5805
" />
</g><g transform="rotate(-90.000000 85.1281 48.8696)">
<text x="85.1281" y="48.8696"
textLength="2.6222" font-size="1.6933" lengthAdjust="spacingAndGlyphs"
text-anchor="middle" opacity="0">10</text>
</g>
<g class="stroked-text"><desc>10</desc>
<path d="M84.9646 49.1114
L84.9646 49.8371
" />
<path d="M84.9646 49.4743
L83.6946 49.4743
" />
<path d="M83.6946 49.4743
L83.8761 49.5952
" />
<path d="M83.8761 49.5952
L83.9970 49.7162
" />
<path d="M83.9970 49.7162
L84.0575 49.8371
" />
<path d="M83.6946 48.3253
L83.6946 48.2043
" />
<path d="M83.6946 48.2043
L83.7551 48.0834
" />
<path d="M83.7551 48.0834
L83.8156 48.0229
" />
<path d="M83.8156 48.0229
L83.9365 47.9624
" />
<path d="M83.9365 47.9624
L84.1784 47.9019
" />
<path d="M84.1784 47.9019
L84.4808 47.9019
" />
<path d="M84.4808 47.9019
L84.7227 47.9624
" />
<path d="M84.7227 47.9624
L84.8437 48.0229
" />
<path d="M84.8437 48.0229
L84.9042 48.0834
" />
<path d="M84.9042 48.0834
L84.9646 48.2043
" />
<path d="M84.9646 48.2043
L84.9646 48.3253
" />
<path d="M84.9646 48.3253
L84.9042 48.4462
" />
<path d="M84.9042 48.4462
L84.8437 48.5067
" />
<path d="M84.8437 48.5067
L84.7227 48.5672
" />
<path d="M84.7227 48.5672
L84.4808 48.6276
" />
<path d="M84.4808 48.6276
L84.1784 48.6276
" />
<path d="M84.1784 48.6276
L83.9365 48.5672
" />
<path d="M83.9365 48.5672
L83.8156 48.5067
" />
<path d="M83.8156 48.5067
L83.7551 48.4462
" />
<path d="M83.7551 48.4462
L83.6946 48.3253
" />
</g><path d="M93.0021 37.4396
L95.5421 37.4396
" />
<text x="91.9861" y="38.0746"
textLength="4.6180" font-size="1.6933" lengthAdjust="spacingAndGlyphs"
text-anchor="end" opacity="0">DIO3</text>
<g class="stroked-text"><desc>DIO3</desc>
<path d="M87.7734 38.0191
L87.7734 36.7491
" />
<path d="M87.7734 36.7491
L88.0758 36.7491
" />
<path d="M88.0758 36.7491
L88.2572 36.8096
" />
<path d="M88.2572 36.8096
L88.3782 36.9306
" />
<path d="M88.3782 36.9306
L88.4387 37.0515
" />
<path d="M88.4387 37.0515
L88.4991 37.2934
" />
<path d="M88.4991 37.2934
L88.4991 37.4748
" />
<path d="M88.4991 37.4748
L88.4387 37.7167
" />
<path d="M88.4387 37.7167
L88.3782 37.8377
" />
<path d="M88.3782 37.8377
L88.2572 37.9587
" />
<path d="M88.2572 37.9587
L88.0758 38.0191
" />
<path d="M88.0758 38.0191
L87.7734 38.0191
" />
<path d="M89.0434 38.0191
L89.0434 36.7491
" />
<path d="M89.8901 36.7491
L90.1320 36.7491
" />
<path d="M90.1320 36.7491
L90.2530 36.8096
" />
<path d="M90.2530 36.8096
L90.3739 36.9306
" />
<path d="M90.3739 36.9306
L90.4344 37.1725
" />
<path d="M90.4344 37.1725
L90.4344 37.5958
" />
<path d="M90.4344 37.5958
L90.3739 37.8377
" />
<path d="M90.3739 37.8377
L90.2530 37.9587
" />
<path d="M90.2530 37.9587
L90.1320 38.0191
" />
<path d="M90.1320 38.0191
L89.8901 38.0191
" />
<path d="M89.8901 38.0191
L89.7692 37.9587
" />
<path d="M89.7692 37.9587
L89.6482 37.8377
" />
<path d="M89.6482 37.8377
L89.5878 37.5958
" />
<path d="M89.5878 37.5958
L89.5878 37.1725
" />
<path d="M89.5878 37.1725
L89.6482 36.9306
" />
<path d="M89.6482 36.9306
L89.7692 36.8096
" />
<path d="M89.7692 36.8096
L89.8901 36.7491
" />
<path d="M90.8578 36.7491
L91.6440 36.7491
" />
<path d="M91.6440 36.7491
L91.2206 37.2329
" />
<path d="M91.2206 37.2329
L91.4021 37.2329
" />
<path d="M91.4021 37.2329
L91.5230 37.2934
" />
<path d="M91.5230 37.2934
L91.5835 37.3539
" />
<path d="M91.5835 37.3539
L91.6440 37.4748
" />
<path d="M91.6440 37.4748
L91.6440 37.7772
" />
<path d="M91.6440 37.7772
L91.5835 37.8982
" />
<path d="M91.5835 37.8982
L91.5230 37.9587
" />
<path d="M91.5230 37.9587
L91.4021 38.0191
" />
<path d="M91.4021 38.0191
L91.0392 38.0191
" />
<path d="M91.0392 38.0191
L90.9183 37.9587
" />
<path d="M90.9183 37.9587
L90.8578 37.8982
" />
</g><text x="94.2721" y="37.1856"
textLength="2.6222" font-size="1.6933" lengthAdjust="spacingAndGlyphs"
text-anchor="middle" opacity="0">11</text>
<g class="stroked-text"><desc>11</desc>
<path d="M94.0302 37.0221
L93.3045 37.0221
" />
<path d="M93.6673 37.0221
L93.6673 35.7521
" />
<path d="M93.6673 35.7521
L93.5464 35.9336
" />
<path d="M93.5464 35.9336
L93.4254 36.0545
" />
<path d="M93.4254 36.0545
L93.3045 36.1150
" />
<path d="M95.2397 37.0221
L94.5140 37.0221
" />
<path d="M94.8768 37.0221
L94.8768 35.7521
" />
<path d="M94.8768 35.7521
L94.7559 35.9336
" />
<path d="M94.7559 35.9336
L94.6349 36.0545
" />
<path d="M94.6349 36.0545
L94.5140 36.1150
" />
</g><path d="M93.0021 34.8996
L95.5421 34.8996
" />
<text x="91.9861" y="35.5346"
textLength="4.6180" font-size="1.6933" lengthAdjust="spacingAndGlyphs"
text-anchor="end" opacity="0">DIO4</text>
<g class="stroked-text"><desc>DIO4</desc>
<path d="M87.7734 35.4791
L87.7734 34.2091
" />
<path d="M87.7734 34.2091
L88.0758 34.2091
" />
<path d="M88.0758 34.2091
L88.2572 34.2696
" />
<path d="M88.2572 34.2696
L88.3782 34.3906
" />
<path d="M88.3782 34.3906
L88.4387 34.5115
" />
<path d="M88.4387 34.5115
L88.4991 34.7534
" />
<path d="M88.4991 34.7534
L88.4991 34.9348
" />
<path d="M88.4991 34.9348
L88.4387 35.1767
" />
<path d="M88.4387 35.1767
L88.3782 35.2977
" />
<path d="M88.3782 35.2977
L88.2572 35.4187
" />
<path d="M88.2572 35.4187
L88.0758 35.4791
" />
<path d="M88.0758 35.4791
L87.7734 35.4791
" />
<path d="M89.0434 35.4791
L89.0434 34.2091
" />
<path d="M89.8901 34.2091
L90.1320 34.2091
" />
<path d="M90.1320 34.2091
L90.2530 34.2696
" />
<path d="M90.2530 34.2696
L90.3739 34.3906
" />
<path d="M90.3739 34.3906
L90.4344 34.6325
" />
<path d="M90.4344 34.6325
L90.4344 35.0558
" />
<path d="M90.4344 35.0558
L90.3739 35.2977
" />
<path d="M90.3739 35.2977
L90.2530 35.4187
" />
<path d="M90.2530 35.4187
L90.1320 35.4791
" />
<path d="M90.1320 35.4791
L89.8901 35.4791
" />
<path d="M89.8901 35.4791
L89.7692 35.4187
" />
<path d="M89.7692 35.4187
L89.6482 35.2977
" />
<path d="M89.6482 35.2977
L89.5878 35.0558
" />
<path d="M89.5878 35.0558
L89.5878 34.6325
" />
<path d="M89.5878 34.6325
L89.6482 34.3906
" />
<path d="M89.6482 34.3906
L89.7692 34.2696
" />
<path d="M89.7692 34.2696
L89.8901 34.2091
" />
<path d="M91.5230 34.6325
L91.5230 35.4791
" />
<path d="M91.2206 34.1487
L90.9183 35.0558
" />
<path d="M90.9183 35.0558
L91.7044 35.0558
" />
</g><text x="94.2721" y="34.6456"
textLength="2.6222" font-size="1.6933" lengthAdjust="spacingAndGlyphs"
text-anchor="middle" opacity="0">12</text>
<g class="stroked-text"><desc>12</desc>
<path d="M94.0302 34.4821
L93.3045 34.4821
" />
<path d="M93.6673 34.4821
L93.6673 33.2121
" />
<path d="M93.6673 33.2121
L93.5464 33.3936
" />
<path d="M93.5464 33.3936
L93.4254 33.5145
" />
<path d="M93.4254 33.5145
L93.3045 33.5750
" />
<path d="M94.5140 33.3331
L94.5744 33.2726
" />
<path d="M94.5744 33.2726
L94.6954 33.2121
" />
<path d="M94.6954 33.2121
L94.9978 33.2121
" />
<path d="M94.9978 33.2121
L95.1187 33.2726
" />
<path d="M95.1187 33.2726
L95.1792 33.3331
" />
<path d="M95.1792 33.3331
L95.2397 33.4540
" />
<path d="M95.2397 33.4540
L95.2397 33.5750
" />
<path d="M95.2397 33.5750
L95.1792 33.7564
" />
<path d="M95.1792 33.7564
L94.4535 34.4821
" />
<path d="M94.4535 34.4821
L95.2397 34.4821
" />
</g><path d="M82.8421 24.7396
L82.8421 22.1996
" />
<g transform="rotate(-90.000000 82.8421 25.7556)">
<text x="82.8421" y="26.3906"
textLength="4.3156" font-size="1.6933" lengthAdjust="spacingAndGlyphs"
text-anchor="end" opacity="0">3.3V</text>
</g>
<g class="stroked-text"><desc>3.3V</desc>
<path d="M82.1516 29.7867
L82.1516 29.0005
" />
<path d="M82.1516 29.0005
L82.6354 29.4239
" />
<path d="M82.6354 29.4239
L82.6354 29.2424
" />
<path d="M82.6354 29.2424
L82.6959 29.1215
" />
<path d="M82.6959 29.1215
L82.7564 29.0610
" />
<path d="M82.7564 29.0610
L82.8773 29.0005
" />
<path d="M82.8773 29.0005
L83.1797 29.0005
" />
<path d="M83.1797 29.0005
L83.3007 29.0610
" />
<path d="M83.3007 29.0610
L83.3612 29.1215
" />
<path d="M83.3612 29.1215
L83.4216 29.2424
" />
<path d="M83.4216 29.2424
L83.4216 29.6053
" />
<path d="M83.4216 29.6053
L83.3612 29.7262
" />
<path d="M83.3612 29.7262
L83.3007 29.7867
" />
<path d="M83.3007 28.4563
L83.3612 28.3958
" />
<path d="M83.3612 28.3958
L83.4216 28.4563
" />
<path d="M83.4216 28.4563
L83.3612 28.5167
" />
<path d="M83.3612 28.5167
L83.3007 28.4563
" />
<path d="M83.3007 28.4563
L83.4216 28.4563
" />
<path d="M82.1516 27.9724
L82.1516 27.1862
" />
<path d="M82.1516 27.1862
L82.6354 27.6096
" />
<path d="M82.6354 27.6096
L82.6354 27.4281
" />
<path d="M82.6354 27.4281
L82.6959 27.3072
" />
<path d="M82.6959 27.3072
L82.7564 27.2467
" />
<path d="M82.7564 27.2467
L82.8773 27.1862
" />
<path d="M82.8773 27.1862
L83.1797 27.1862
" />
<path d="M83.1797 27.1862
L83.3007 27.2467
" />
<path d="M83.3007 27.2467
L83.3612 27.3072
" />
<path d="M83.3612 27.3072
L83.4216 27.4281
" />
<path d="M83.4216 27.4281
L83.4216 27.7910
" />
<path d="M83.4216 27.7910
L83.3612 27.9119
" />
<path d="M83.3612 27.9119
L83.3007 27.9724
" />
<path d="M82.1516 26.8234
L83.4216 26.4001
" />
<path d="M83.4216 26.4001
L82.1516 25.9767
" />
</g><g transform="rotate(-90.000000 82.5881 23.4696)">
<text x="82.5881" y="23.4696"
textLength="2.6222" font-size="1.6933" lengthAdjust="spacingAndGlyphs"
text-anchor="middle" opacity="0">13</text>
</g>
<g class="stroked-text"><desc>13</desc>
<path d="M82.4246 23.7114
L82.4246 24.4371
" />
<path d="M82.4246 24.0743
L81.1546 24.0743
" />
<path d="M81.1546 24.0743
L81.3361 24.1952
" />
<path d="M81.3361 24.1952
L81.4570 24.3162
" />
<path d="M81.4570 24.3162
L81.5175 24.4371
" />
<path d="M81.1546 23.2881
L81.1546 22.5019
" />
<path d="M81.1546 22.5019
L81.6384 22.9253
" />
<path d="M81.6384 22.9253
L81.6384 22.7438
" />
<path d="M81.6384 22.7438
L81.6989 22.6229
" />
<path d="M81.6989 22.6229
L81.7594 22.5624
" />
<path d="M81.7594 22.5624
L81.8803 22.5019
" />
<path d="M81.8803 22.5019
L82.1827 22.5019
" />
<path d="M82.1827 22.5019
L82.3037 22.5624
" />
<path d="M82.3037 22.5624
L82.3642 22.6229
" />
<path d="M82.3642 22.6229
L82.4246 22.7438
" />
<path d="M82.4246 22.7438
L82.4246 23.1067
" />
<path d="M82.4246 23.1067
L82.3642 23.2276
" />
<path d="M82.3642 23.2276
L82.3037 23.2881
" />
</g><path d="M93.0021 45.0596
L95.5421 45.0596
" />
<text x="91.9861" y="45.6946"
textLength="4.6180" font-size="1.6933" lengthAdjust="spacingAndGlyphs"
text-anchor="end" opacity="0">DIO0</text>
<g class="stroked-text"><desc>DIO0</desc>
<path d="M87.7734 45.6391
L87.7734 44.3691
" />
<path d="M87.7734 44.3691
L88.0758 44.3691
" />
<path d="M88.0758 44.3691
L88.2572 44.4296
" />
<path d="M88.2572 44.4296
L88.3782 44.5506
" />
<path d="M88.3782 44.5506
L88.4387 44.6715
" />
<path d="M88.4387 44.6715
L88.4991 44.9134
" />
<path d="M88.4991 44.9134
L88.4991 45.0948
" />
<path d="M88.4991 45.0948
L88.4387 45.3367
" />
<path d="M88.4387 45.3367
L88.3782 45.4577
" />
<path d="M88.3782 45.4577
L88.2572 45.5787
" />
<path d="M88.2572 45.5787
L88.0758 45.6391
" />
<path d="M88.0758 45.6391
L87.7734 45.6391
" />
<path d="M89.0434 45.6391
L89.0434 44.3691
" />
<path d="M89.8901 44.3691
L90.1320 44.3691
" />
<path d="M90.1320 44.3691
L90.2530 44.4296
" />
<path d="M90.2530 44.4296
L90.3739 44.5506
" />
<path d="M90.3739 44.5506
L90.4344 44.7925
" />
<path d="M90.4344 44.7925
L90.4344 45.2158
" />
<path d="M90.4344 45.2158
L90.3739 45.4577
" />
<path d="M90.3739 45.4577
L90.2530 45.5787
" />
<path d="M90.2530 45.5787
L90.1320 45.6391
" />
<path d="M90.1320 45.6391
L89.8901 45.6391
" />
<path d="M89.8901 45.6391
L89.7692 45.5787
" />
<path d="M89.7692 45.5787
L89.6482 45.4577
" />
<path d="M89.6482 45.4577
L89.5878 45.2158
" />
<path d="M89.5878 45.2158
L89.5878 44.7925
" />
<path d="M89.5878 44.7925
L89.6482 44.5506
" />
<path d="M89.6482 44.5506
L89.7692 44.4296
" />
<path d="M89.7692 44.4296
L89.8901 44.3691
" />
<path d="M91.2206 44.3691
L91.3416 44.3691
" />
<path d="M91.3416 44.3691
L91.4625 44.4296
" />
<path d="M91.4625 44.4296
L91.5230 44.4901
" />
<path d="M91.5230 44.4901
L91.5835 44.6110
" />
<path d="M91.5835 44.6110
L91.6440 44.8529
" />
<path d="M91.6440 44.8529
L91.6440 45.1553
" />
<path d="M91.6440 45.1553
L91.5835 45.3972
" />
<path d="M91.5835 45.3972
L91.5230 45.5182
" />
<path d="M91.5230 45.5182
L91.4625 45.5787
" />
<path d="M91.4625 45.5787
L91.3416 45.6391
" />
<path d="M91.3416 45.6391
L91.2206 45.6391
" />
<path d="M91.2206 45.6391
L91.0997 45.5787
" />
<path d="M91.0997 45.5787
L91.0392 45.5182
" />
<path d="M91.0392 45.5182
L90.9787 45.3972
" />
<path d="M90.9787 45.3972
L90.9183 45.1553
" />
<path d="M90.9183 45.1553
L90.9183 44.8529
" />
<path d="M90.9183 44.8529
L90.9787 44.6110
" />
<path d="M90.9787 44.6110
L91.0392 44.4901
" />
<path d="M91.0392 44.4901
L91.0997 44.4296
" />
<path d="M91.0997 44.4296
L91.2206 44.3691
" />
</g><text x="94.2721" y="44.8056"
textLength="2.6222" font-size="1.6933" lengthAdjust="spacingAndGlyphs"
text-anchor="middle" opacity="0">14</text>
<g class="stroked-text"><desc>14</desc>
<path d="M94.0302 44.6421
L93.3045 44.6421
" />
<path d="M93.6673 44.6421
L93.6673 43.3721
" />
<path d="M93.6673 43.3721
L93.5464 43.5536
" />
<path d="M93.5464 43.5536
L93.4254 43.6745
" />
<path d="M93.4254 43.6745
L93.3045 43.7350
" />
<path d="M95.1187 43.7955
L95.1187 44.6421
" />
<path d="M94.8163 43.3117
L94.5140 44.2188
" />
<path d="M94.5140 44.2188
L95.3001 44.2188
" />
</g><path d="M93.0021 42.5196
L95.5421 42.5196
" />
<text x="91.9861" y="43.1546"
textLength="4.6180" font-size="1.6933" lengthAdjust="spacingAndGlyphs"
text-anchor="end" opacity="0">DIO1</text>
<g class="stroked-text"><desc>DIO1</desc>
<path d="M87.7734 43.0991
L87.7734 41.8291
" />
<path d="M87.7734 41.8291
L88.0758 41.8291
" />
<path d="M88.0758 41.8291
L88.2572 41.8896
" />
<path d="M88.2572 41.8896
L88.3782 42.0106
" />
<path d="M88.3782 42.0106
L88.4387 42.1315
" />
<path d="M88.4387 42.1315
L88.4991 42.3734
" />
<path d="M88.4991 42.3734
L88.4991 42.5548
" />
<path d="M88.4991 42.5548
L88.4387 42.7967
" />
<path d="M88.4387 42.7967
L88.3782 42.9177
" />
<path d="M88.3782 42.9177
L88.2572 43.0387
" />
<path d="M88.2572 43.0387
L88.0758 43.0991
" />
<path d="M88.0758 43.0991
L87.7734 43.0991
" />
<path d="M89.0434 43.0991
L89.0434 41.8291
" />
<path d="M89.8901 41.8291
L90.1320 41.8291
" />
<path d="M90.1320 41.8291
L90.2530 41.8896
" />
<path d="M90.2530 41.8896
L90.3739 42.0106
" />
<path d="M90.3739 42.0106
L90.4344 42.2525
" />
<path d="M90.4344 42.2525
L90.4344 42.6758
" />
<path d="M90.4344 42.6758
L90.3739 42.9177
" />
<path d="M90.3739 42.9177
L90.2530 43.0387
" />
<path d="M90.2530 43.0387
L90.1320 43.0991
" />
<path d="M90.1320 43.0991
L89.8901 43.0991
" />
<path d="M89.8901 43.0991
L89.7692 43.0387
" />
<path d="M89.7692 43.0387
L89.6482 42.9177
" />
<path d="M89.6482 42.9177
L89.5878 42.6758
" />
<path d="M89.5878 42.6758
L89.5878 42.2525
" />
<path d="M89.5878 42.2525
L89.6482 42.0106
" />
<path d="M89.6482 42.0106
L89.7692 41.8896
" />
<path d="M89.7692 41.8896
L89.8901 41.8291
" />
<path d="M91.6440 43.0991
L90.9183 43.0991
" />
<path d="M91.2811 43.0991
L91.2811 41.8291
" />
<path d="M91.2811 41.8291
L91.1602 42.0106
" />
<path d="M91.1602 42.0106
L91.0392 42.1315
" />
<path d="M91.0392 42.1315
L90.9183 42.1920
" />
</g><text x="94.2721" y="42.2656"
textLength="2.6222" font-size="1.6933" lengthAdjust="spacingAndGlyphs"
text-anchor="middle" opacity="0">15</text>
<g class="stroked-text"><desc>15</desc>
<path d="M94.0302 42.1021
L93.3045 42.1021
" />
<path d="M93.6673 42.1021
L93.6673 40.8321
" />
<path d="M93.6673 40.8321
L93.5464 41.0136
" />
<path d="M93.5464 41.0136
L93.4254 41.1345
" />
<path d="M93.4254 41.1345
L93.3045 41.1950
" />
<path d="M95.1792 40.8321
L94.5744 40.8321
" />
<path d="M94.5744 40.8321
L94.5140 41.4369
" />
<path d="M94.5140 41.4369
L94.5744 41.3764
" />
<path d="M94.5744 41.3764
L94.6954 41.3159
" />
<path d="M94.6954 41.3159
L94.9978 41.3159
" />
<path d="M94.9978 41.3159
L95.1187 41.3764
" />
<path d="M95.1187 41.3764
L95.1792 41.4369
" />
<path d="M95.1792 41.4369
L95.2397 41.5578
" />
<path d="M95.2397 41.5578
L95.2397 41.8602
" />
<path d="M95.2397 41.8602
L95.1792 41.9812
" />
<path d="M95.1792 41.9812
L95.1187 42.0417
" />
<path d="M95.1187 42.0417
L94.9978 42.1021
" />
<path d="M94.9978 42.1021
L94.6954 42.1021
" />
<path d="M94.6954 42.1021
L94.5744 42.0417
" />
<path d="M94.5744 42.0417
L94.5140 41.9812
" />
</g><path d="M93.0021 39.9796
L95.5421 39.9796
" />
<text x="91.9861" y="40.6146"
textLength="4.6180" font-size="1.6933" lengthAdjust="spacingAndGlyphs"
text-anchor="end" opacity="0">DIO2</text>
<g class="stroked-text"><desc>DIO2</desc>
<path d="M87.7734 40.5591
L87.7734 39.2891
" />
<path d="M87.7734 39.2891
L88.0758 39.2891
" />
<path d="M88.0758 39.2891
L88.2572 39.3496
" />
<path d="M88.2572 39.3496
L88.3782 39.4706
" />
<path d="M88.3782 39.4706
L88.4387 39.5915
" />
<path d="M88.4387 39.5915
L88.4991 39.8334
" />
<path d="M88.4991 39.8334
L88.4991 40.0148
" />
<path d="M88.4991 40.0148
L88.4387 40.2567
" />
<path d="M88.4387 40.2567
L88.3782 40.3777
" />
<path d="M88.3782 40.3777
L88.2572 40.4987
" />
<path d="M88.2572 40.4987
L88.0758 40.5591
" />
<path d="M88.0758 40.5591
L87.7734 40.5591
" />
<path d="M89.0434 40.5591
L89.0434 39.2891
" />
<path d="M89.8901 39.2891
L90.1320 39.2891
" />
<path d="M90.1320 39.2891
L90.2530 39.3496
" />
<path d="M90.2530 39.3496
L90.3739 39.4706
" />
<path d="M90.3739 39.4706
L90.4344 39.7125
" />
<path d="M90.4344 39.7125
L90.4344 40.1358
" />
<path d="M90.4344 40.1358
L90.3739 40.3777
" />
<path d="M90.3739 40.3777
L90.2530 40.4987
" />
<path d="M90.2530 40.4987
L90.1320 40.5591
" />
<path d="M90.1320 40.5591
L89.8901 40.5591
" />
<path d="M89.8901 40.5591
L89.7692 40.4987
" />
<path d="M89.7692 40.4987
L89.6482 40.3777
" />
<path d="M89.6482 40.3777
L89.5878 40.1358
" />
<path d="M89.5878 40.1358
L89.5878 39.7125
" />
<path d="M89.5878 39.7125
L89.6482 39.4706
" />
<path d="M89.6482 39.4706
L89.7692 39.3496
" />
<path d="M89.7692 39.3496
L89.8901 39.2891
" />
<path d="M90.9183 39.4101
L90.9787 39.3496
" />
<path d="M90.9787 39.3496
L91.0997 39.2891
" />
<path d="M91.0997 39.2891
L91.4021 39.2891
" />
<path d="M91.4021 39.2891
L91.5230 39.3496
" />
<path d="M91.5230 39.3496
L91.5835 39.4101
" />
<path d="M91.5835 39.4101
L91.6440 39.5310
" />
<path d="M91.6440 39.5310
L91.6440 39.6520
" />
<path d="M91.6440 39.6520
L91.5835 39.8334
" />
<path d="M91.5835 39.8334
L90.8578 40.5591
" />
<path d="M90.8578 40.5591
L91.6440 40.5591
" />
</g><text x="94.2721" y="39.7256"
textLength="2.6222" font-size="1.6933" lengthAdjust="spacingAndGlyphs"
text-anchor="middle" opacity="0">16</text>
<g class="stroked-text"><desc>16</desc>
<path d="M94.0302 39.5621
L93.3045 39.5621
" />
<path d="M93.6673 39.5621
L93.6673 38.2921
" />
<path d="M93.6673 38.2921
L93.5464 38.4736
" />
<path d="M93.5464 38.4736
L93.4254 38.5945
" />
<path d="M93.4254 38.5945
L93.3045 38.6550
" />
<path d="M95.1187 38.2921
L94.8768 38.2921
" />
<path d="M94.8768 38.2921
L94.7559 38.3526
" />
<path d="M94.7559 38.3526
L94.6954 38.4131
" />
<path d="M94.6954 38.4131
L94.5744 38.5945
" />
<path d="M94.5744 38.5945
L94.5140 38.8364
" />
<path d="M94.5140 38.8364
L94.5140 39.3202
" />
<path d="M94.5140 39.3202
L94.5744 39.4412
" />
<path d="M94.5744 39.4412
L94.6349 39.5017
" />
<path d="M94.6349 39.5017
L94.7559 39.5621
" />
<path d="M94.7559 39.5621
L94.9978 39.5621
" />
<path d="M94.9978 39.5621
L95.1187 39.5017
" />
<path d="M95.1187 39.5017
L95.1792 39.4412
" />
<path d="M95.1792 39.4412
L95.2397 39.3202
" />
<path d="M95.2397 39.3202
L95.2397 39.0178
" />
<path d="M95.2397 39.0178
L95.1792 38.8969
" />
<path d="M95.1792 38.8969
L95.1187 38.8364
" />
<path d="M95.1187 38.8364
L94.9978 38.7759
" />
<path d="M94.9978 38.7759
L94.7559 38.7759
" />
<path d="M94.7559 38.7759
L94.6349 38.8364
" />
<path d="M94.6349 38.8364
L94.5744 38.8969
" />
<path d="M94.5744 38.8969
L94.5140 39.0178
" />
</g><path d="M72.6821 32.3596
L70.1421 32.3596
" />
<text x="73.6981" y="32.9946"
textLength="4.7994" font-size="1.6933" lengthAdjust="spacingAndGlyphs"
text-anchor="start" opacity="0">MISO</text>
<g class="stroked-text"><desc>MISO</desc>
<path d="M74.1006 32.9391
L74.1006 31.6691
" />
<path d="M74.1006 31.6691
L74.5240 32.5763
" />
<path d="M74.5240 32.5763
L74.9473 31.6691
" />
<path d="M74.9473 31.6691
L74.9473 32.9391
" />
<path d="M75.5520 32.9391
L75.5520 31.6691
" />
<path d="M76.0964 32.8787
L76.2778 32.9391
" />
<path d="M76.2778 32.9391
L76.5802 32.9391
" />
<path d="M76.5802 32.9391
L76.7011 32.8787
" />
<path d="M76.7011 32.8787
L76.7616 32.8182
" />
<path d="M76.7616 32.8182
L76.8221 32.6972
" />
<path d="M76.8221 32.6972
L76.8221 32.5763
" />
<path d="M76.8221 32.5763
L76.7616 32.4553
" />
<path d="M76.7616 32.4553
L76.7011 32.3948
" />
<path d="M76.7011 32.3948
L76.5802 32.3344
" />
<path d="M76.5802 32.3344
L76.3383 32.2739
" />
<path d="M76.3383 32.2739
L76.2173 32.2134
" />
<path d="M76.2173 32.2134
L76.1568 32.1529
" />
<path d="M76.1568 32.1529
L76.0964 32.0320
" />
<path d="M76.0964 32.0320
L76.0964 31.9110
" />
<path d="M76.0964 31.9110
L76.1568 31.7901
" />
<path d="M76.1568 31.7901
L76.2173 31.7296
" />
<path d="M76.2173 31.7296
L76.3383 31.6691
" />
<path d="M76.3383 31.6691
L76.6406 31.6691
" />
<path d="M76.6406 31.6691
L76.8221 31.7296
" />
<path d="M77.6082 31.6691
L77.8501 31.6691
" />
<path d="M77.8501 31.6691
L77.9711 31.7296
" />
<path d="M77.9711 31.7296
L78.0920 31.8506
" />
<path d="M78.0920 31.8506
L78.1525 32.0925
" />
<path d="M78.1525 32.0925
L78.1525 32.5158
" />
<path d="M78.1525 32.5158
L78.0920 32.7577
" />
<path d="M78.0920 32.7577
L77.9711 32.8787
" />
<path d="M77.9711 32.8787
L77.8501 32.9391
" />
<path d="M77.8501 32.9391
L77.6082 32.9391
" />
<path d="M77.6082 32.9391
L77.4873 32.8787
" />
<path d="M77.4873 32.8787
L77.3663 32.7577
" />
<path d="M77.3663 32.7577
L77.3059 32.5158
" />
<path d="M77.3059 32.5158
L77.3059 32.0925
" />
<path d="M77.3059 32.0925
L77.3663 31.8506
" />
<path d="M77.3663 31.8506
L77.4873 31.7296
" />
<path d="M77.4873 31.7296
L77.6082 31.6691
" />
</g><text x="71.4121" y="32.1056"
textLength="1.4127" font-size="1.6933" lengthAdjust="spacingAndGlyphs"
text-anchor="middle" opacity="0">2</text>
<g class="stroked-text"><desc>2</desc>
<path d="M71.0493 30.7931
L71.1097 30.7326
" />
<path d="M71.1097 30.7326
L71.2307 30.6721
" />
<path d="M71.2307 30.6721
L71.5331 30.6721
" />
<path d="M71.5331 30.6721
L71.6540 30.7326
" />
<path d="M71.6540 30.7326
L71.7145 30.7931
" />
<path d="M71.7145 30.7931
L71.7750 30.9140
" />
<path d="M71.7750 30.9140
L71.7750 31.0350
" />
<path d="M71.7750 31.0350
L71.7145 31.2164
" />
<path d="M71.7145 31.2164
L70.9888 31.9421
" />
<path d="M70.9888 31.9421
L71.7750 31.9421
" />
</g><path d="M72.6821 29.8196
L70.1421 29.8196
" />
<text x="73.6981" y="30.4546"
textLength="4.7994" font-size="1.6933" lengthAdjust="spacingAndGlyphs"
text-anchor="start" opacity="0">MOSI</text>
<g class="stroked-text"><desc>MOSI</desc>
<path d="M74.1006 30.3991
L74.1006 29.1291
" />
<path d="M74.1006 29.1291
L74.5240 30.0363
" />
<path d="M74.5240 30.0363
L74.9473 29.1291
" />
<path d="M74.9473 29.1291
L74.9473 30.3991
" />
<path d="M75.7939 29.1291
L76.0358 29.1291
" />
<path d="M76.0358 29.1291
L76.1568 29.1896
" />
<path d="M76.1568 29.1896
L76.2777 29.3106
" />
<path d="M76.2777 29.3106
L76.3382 29.5525
" />
<path d="M76.3382 29.5525
L76.3382 29.9758
" />
<path d="M76.3382 29.9758
L76.2777 30.2177
" />
<path d="M76.2777 30.2177
L76.1568 30.3387
" />
<path d="M76.1568 30.3387
L76.0358 30.3991
" />
<path d="M76.0358 30.3991
L75.7939 30.3991
" />
<path d="M75.7939 30.3991
L75.6730 30.3387
" />
<path d="M75.6730 30.3387
L75.5520 30.2177
" />
<path d="M75.5520 30.2177
L75.4916 29.9758
" />
<path d="M75.4916 29.9758
L75.4916 29.5525
" />
<path d="M75.4916 29.5525
L75.5520 29.3106
" />
<path d="M75.5520 29.3106
L75.6730 29.1896
" />
<path d="M75.6730 29.1896
L75.7939 29.1291
" />
<path d="M76.8221 30.3387
L77.0035 30.3991
" />
<path d="M77.0035 30.3991
L77.3059 30.3991
" />
<path d="M77.3059 30.3991
L77.4268 30.3387
" />
<path d="M77.4268 30.3387
L77.4873 30.2782
" />
<path d="M77.4873 30.2782
L77.5478 30.1572
" />
<path d="M77.5478 30.1572
L77.5478 30.0363
" />
<path d="M77.5478 30.0363
L77.4873 29.9153
" />
<path d="M77.4873 29.9153
L77.4268 29.8548
" />
<path d="M77.4268 29.8548
L77.3059 29.7944
" />
<path d="M77.3059 29.7944
L77.0640 29.7339
" />
<path d="M77.0640 29.7339
L76.9430 29.6734
" />
<path d="M76.9430 29.6734
L76.8825 29.6129
" />
<path d="M76.8825 29.6129
L76.8221 29.4920
" />
<path d="M76.8221 29.4920
L76.8221 29.3710
" />
<path d="M76.8221 29.3710
L76.8825 29.2501
" />
<path d="M76.8825 29.2501
L76.9430 29.1896
" />
<path d="M76.9430 29.1896
L77.0640 29.1291
" />
<path d="M77.0640 29.1291
L77.3663 29.1291
" />
<path d="M77.3663 29.1291
L77.5478 29.1896
" />
<path d="M78.0920 30.3991
L78.0920 29.1291
" />
</g><text x="71.4121" y="29.5656"
textLength="1.4127" font-size="1.6933" lengthAdjust="spacingAndGlyphs"
text-anchor="middle" opacity="0">3</text>
<g class="stroked-text"><desc>3</desc>
<path d="M70.9888 28.1321
L71.7750 28.1321
" />
<path d="M71.7750 28.1321
L71.3516 28.6159
" />
<path d="M71.3516 28.6159
L71.5331 28.6159
" />
<path d="M71.5331 28.6159
L71.6540 28.6764
" />
<path d="M71.6540 28.6764
L71.7145 28.7369
" />
<path d="M71.7145 28.7369
L71.7750 28.8578
" />
<path d="M71.7750 28.8578
L71.7750 29.1602
" />
<path d="M71.7750 29.1602
L71.7145 29.2812
" />
<path d="M71.7145 29.2812
L71.6540 29.3417
" />
<path d="M71.6540 29.3417
L71.5331 29.4021
" />
<path d="M71.5331 29.4021
L71.1702 29.4021
" />
<path d="M71.1702 29.4021
L71.0493 29.3417
" />
<path d="M71.0493 29.3417
L70.9888 29.2812
" />
</g><path d="M72.6821 27.2796
L70.1421 27.2796
" />
<text x="73.6981" y="27.9146"
textLength="3.9527" font-size="1.6933" lengthAdjust="spacingAndGlyphs"
text-anchor="start" opacity="0">SCK</text>
<g class="stroked-text"><desc>SCK</desc>
<path d="M74.0402 27.7987
L74.2216 27.8591
" />
<path d="M74.2216 27.8591
L74.5240 27.8591
" />
<path d="M74.5240 27.8591
L74.6449 27.7987
" />
<path d="M74.6449 27.7987
L74.7054 27.7382
" />
<path d="M74.7054 27.7382
L74.7659 27.6172
" />
<path d="M74.7659 27.6172
L74.7659 27.4963
" />
<path d="M74.7659 27.4963
L74.7054 27.3753
" />
<path d="M74.7054 27.3753
L74.6449 27.3148
" />
<path d="M74.6449 27.3148
L74.5240 27.2544
" />
<path d="M74.5240 27.2544
L74.2821 27.1939
" />
<path d="M74.2821 27.1939
L74.1611 27.1334
" />
<path d="M74.1611 27.1334
L74.1006 27.0729
" />
<path d="M74.1006 27.0729
L74.0402 26.9520
" />
<path d="M74.0402 26.9520
L74.0402 26.8310
" />
<path d="M74.0402 26.8310
L74.1006 26.7101
" />
<path d="M74.1006 26.7101
L74.1611 26.6496
" />
<path d="M74.1611 26.6496
L74.2821 26.5891
" />
<path d="M74.2821 26.5891
L74.5844 26.5891
" />
<path d="M74.5844 26.5891
L74.7659 26.6496
" />
<path d="M76.0358 27.7382
L75.9754 27.7987
" />
<path d="M75.9754 27.7987
L75.7939 27.8591
" />
<path d="M75.7939 27.8591
L75.6730 27.8591
" />
<path d="M75.6730 27.8591
L75.4916 27.7987
" />
<path d="M75.4916 27.7987
L75.3706 27.6777
" />
<path d="M75.3706 27.6777
L75.3101 27.5567
" />
<path d="M75.3101 27.5567
L75.2497 27.3148
" />
<path d="M75.2497 27.3148
L75.2497 27.1334
" />
<path d="M75.2497 27.1334
L75.3101 26.8915
" />
<path d="M75.3101 26.8915
L75.3706 26.7706
" />
<path d="M75.3706 26.7706
L75.4916 26.6496
" />
<path d="M75.4916 26.6496
L75.6730 26.5891
" />
<path d="M75.6730 26.5891
L75.7939 26.5891
" />
<path d="M75.7939 26.5891
L75.9754 26.6496
" />
<path d="M75.9754 26.6496
L76.0358 26.7101
" />
<path d="M76.5801 27.8591
L76.5801 26.5891
" />
<path d="M77.3058 27.8591
L76.7616 27.1334
" />
<path d="M77.3058 26.5891
L76.5801 27.3148
" />
</g><text x="71.4121" y="27.0256"
textLength="1.4127" font-size="1.6933" lengthAdjust="spacingAndGlyphs"
text-anchor="middle" opacity="0">4</text>
<g class="stroked-text"><desc>4</desc>
<path d="M71.6540 26.0155
L71.6540 26.8621
" />
<path d="M71.3516 25.5317
L71.0493 26.4388
" />
<path d="M71.0493 26.4388
L71.8354 26.4388
" />
</g><path d="M72.6821 34.8996
L70.1421 34.8996
" />
<text x="73.6981" y="35.5346"
textLength="3.9527" font-size="1.6933" lengthAdjust="spacingAndGlyphs"
text-anchor="start" opacity="0">NSS</text>
<g class="stroked-text"><desc>NSS</desc>
<path d="M74.1006 35.4791
L74.1006 34.2091
" />
<path d="M74.1006 34.2091
L74.8263 35.4791
" />
<path d="M74.8263 35.4791
L74.8263 34.2091
" />
<path d="M75.3707 35.4187
L75.5521 35.4791
" />
<path d="M75.5521 35.4791
L75.8545 35.4791
" />
<path d="M75.8545 35.4791
L75.9754 35.4187
" />
<path d="M75.9754 35.4187
L76.0359 35.3582
" />
<path d="M76.0359 35.3582
L76.0964 35.2372
" />
<path d="M76.0964 35.2372
L76.0964 35.1163
" />
<path d="M76.0964 35.1163
L76.0359 34.9953
" />
<path d="M76.0359 34.9953
L75.9754 34.9348
" />
<path d="M75.9754 34.9348
L75.8545 34.8744
" />
<path d="M75.8545 34.8744
L75.6126 34.8139
" />
<path d="M75.6126 34.8139
L75.4916 34.7534
" />
<path d="M75.4916 34.7534
L75.4311 34.6929
" />
<path d="M75.4311 34.6929
L75.3707 34.5720
" />
<path d="M75.3707 34.5720
L75.3707 34.4510
" />
<path d="M75.3707 34.4510
L75.4311 34.3301
" />
<path d="M75.4311 34.3301
L75.4916 34.2696
" />
<path d="M75.4916 34.2696
L75.6126 34.2091
" />
<path d="M75.6126 34.2091
L75.9149 34.2091
" />
<path d="M75.9149 34.2091
L76.0964 34.2696
" />
<path d="M76.5802 35.4187
L76.7616 35.4791
" />
<path d="M76.7616 35.4791
L77.0640 35.4791
" />
<path d="M77.0640 35.4791
L77.1849 35.4187
" />
<path d="M77.1849 35.4187
L77.2454 35.3582
" />
<path d="M77.2454 35.3582
L77.3059 35.2372
" />
<path d="M77.3059 35.2372
L77.3059 35.1163
" />
<path d="M77.3059 35.1163
L77.2454 34.9953
" />
<path d="M77.2454 34.9953
L77.1849 34.9348
" />
<path d="M77.1849 34.9348
L77.0640 34.8744
" />
<path d="M77.0640 34.8744
L76.8221 34.8139
" />
<path d="M76.8221 34.8139
L76.7011 34.7534
" />
<path d="M76.7011 34.7534
L76.6406 34.6929
" />
<path d="M76.6406 34.6929
L76.5802 34.5720
" />
<path d="M76.5802 34.5720
L76.5802 34.4510
" />
<path d="M76.5802 34.4510
L76.6406 34.3301
" />
<path d="M76.6406 34.3301
L76.7011 34.2696
" />
<path d="M76.7011 34.2696
L76.8221 34.2091
" />
<path d="M76.8221 34.2091
L77.1244 34.2091
" />
<path d="M77.1244 34.2091
L77.3059 34.2696
" />
</g><text x="71.4121" y="34.6456"
textLength="1.4127" font-size="1.6933" lengthAdjust="spacingAndGlyphs"
text-anchor="middle" opacity="0">5</text>
<g class="stroked-text"><desc>5</desc>
<path d="M71.7145 33.2121
L71.1097 33.2121
" />
<path d="M71.1097 33.2121
L71.0493 33.8169
" />
<path d="M71.0493 33.8169
L71.1097 33.7564
" />
<path d="M71.1097 33.7564
L71.2307 33.6959
" />
<path d="M71.2307 33.6959
L71.5331 33.6959
" />
<path d="M71.5331 33.6959
L71.6540 33.7564
" />
<path d="M71.6540 33.7564
L71.7145 33.8169
" />
<path d="M71.7145 33.8169
L71.7750 33.9378
" />
<path d="M71.7750 33.9378
L71.7750 34.2402
" />
<path d="M71.7750 34.2402
L71.7145 34.3612
" />
<path d="M71.7145 34.3612
L71.6540 34.4217
" />
<path d="M71.6540 34.4217
L71.5331 34.4821
" />
<path d="M71.5331 34.4821
L71.2307 34.4821
" />
<path d="M71.2307 34.4821
L71.1097 34.4217
" />
<path d="M71.1097 34.4217
L71.0493 34.3612
" />
</g><path d="M72.6821 39.9796
L70.1421 39.9796
" />
<text x="73.6981" y="40.6146"
textLength="5.9483" font-size="1.6933" lengthAdjust="spacingAndGlyphs"
text-anchor="start" opacity="0">RESET</text>
<g class="stroked-text"><desc>RESET</desc>
<path d="M74.8263 40.5591
L74.4030 39.9544
" />
<path d="M74.1006 40.5591
L74.1006 39.2891
" />
<path d="M74.1006 39.2891
L74.5844 39.2891
" />
<path d="M74.5844 39.2891
L74.7054 39.3496
" />
<path d="M74.7054 39.3496
L74.7659 39.4101
" />
<path d="M74.7659 39.4101
L74.8263 39.5310
" />
<path d="M74.8263 39.5310
L74.8263 39.7125
" />
<path d="M74.8263 39.7125
L74.7659 39.8334
" />
<path d="M74.7659 39.8334
L74.7054 39.8939
" />
<path d="M74.7054 39.8939
L74.5844 39.9544
" />
<path d="M74.5844 39.9544
L74.1006 39.9544
" />
<path d="M75.3706 39.8939
L75.7940 39.8939
" />
<path d="M75.9754 40.5591
L75.3706 40.5591
" />
<path d="M75.3706 40.5591
L75.3706 39.2891
" />
<path d="M75.3706 39.2891
L75.9754 39.2891
" />
<path d="M76.4592 40.4987
L76.6406 40.5591
" />
<path d="M76.6406 40.5591
L76.9430 40.5591
" />
<path d="M76.9430 40.5591
L77.0639 40.4987
" />
<path d="M77.0639 40.4987
L77.1244 40.4382
" />
<path d="M77.1244 40.4382
L77.1849 40.3172
" />
<path d="M77.1849 40.3172
L77.1849 40.1963
" />
<path d="M77.1849 40.1963
L77.1244 40.0753
" />
<path d="M77.1244 40.0753
L77.0639 40.0148
" />
<path d="M77.0639 40.0148
L76.9430 39.9544
" />
<path d="M76.9430 39.9544
L76.7011 39.8939
" />
<path d="M76.7011 39.8939
L76.5801 39.8334
" />
<path d="M76.5801 39.8334
L76.5196 39.7729
" />
<path d="M76.5196 39.7729
L76.4592 39.6520
" />
<path d="M76.4592 39.6520
L76.4592 39.5310
" />
<path d="M76.4592 39.5310
L76.5196 39.4101
" />
<path d="M76.5196 39.4101
L76.5801 39.3496
" />
<path d="M76.5801 39.3496
L76.7011 39.2891
" />
<path d="M76.7011 39.2891
L77.0034 39.2891
" />
<path d="M77.0034 39.2891
L77.1849 39.3496
" />
<path d="M77.7291 39.8939
L78.1525 39.8939
" />
<path d="M78.3339 40.5591
L77.7291 40.5591
" />
<path d="M77.7291 40.5591
L77.7291 39.2891
" />
<path d="M77.7291 39.2891
L78.3339 39.2891
" />
<path d="M78.6967 39.2891
L79.4224 39.2891
" />
<path d="M79.0596 40.5591
L79.0596 39.2891
" />
</g><text x="71.4121" y="39.7256"
textLength="1.4127" font-size="1.6933" lengthAdjust="spacingAndGlyphs"
text-anchor="middle" opacity="0">6</text>
<g class="stroked-text"><desc>6</desc>
<path d="M71.6540 38.2921
L71.4121 38.2921
" />
<path d="M71.4121 38.2921
L71.2912 38.3526
" />
<path d="M71.2912 38.3526
L71.2307 38.4131
" />
<path d="M71.2307 38.4131
L71.1097 38.5945
" />
<path d="M71.1097 38.5945
L71.0493 38.8364
" />
<path d="M71.0493 38.8364
L71.0493 39.3202
" />
<path d="M71.0493 39.3202
L71.1097 39.4412
" />
<path d="M71.1097 39.4412
L71.1702 39.5017
" />
<path d="M71.1702 39.5017
L71.2912 39.5621
" />
<path d="M71.2912 39.5621
L71.5331 39.5621
" />
<path d="M71.5331 39.5621
L71.6540 39.5017
" />
<path d="M71.6540 39.5017
L71.7145 39.4412
" />
<path d="M71.7145 39.4412
L71.7750 39.3202
" />
<path d="M71.7750 39.3202
L71.7750 39.0178
" />
<path d="M71.7750 39.0178
L71.7145 38.8969
" />
<path d="M71.7145 38.8969
L71.6540 38.8364
" />
<path d="M71.6540 38.8364
L71.5331 38.7759
" />
<path d="M71.5331 38.7759
L71.2912 38.7759
" />
<path d="M71.2912 38.7759
L71.1702 38.8364
" />
<path d="M71.1702 38.8364
L71.1097 38.8969
" />
<path d="M71.1097 38.8969
L71.0493 39.0178
" />
</g><path d="M93.0021 32.3596
L95.5421 32.3596
" />
<text x="91.9861" y="32.9946"
textLength="4.6180" font-size="1.6933" lengthAdjust="spacingAndGlyphs"
text-anchor="end" opacity="0">DIO5</text>
<g class="stroked-text"><desc>DIO5</desc>
<path d="M87.7734 32.9391
L87.7734 31.6691
" />
<path d="M87.7734 31.6691
L88.0758 31.6691
" />
<path d="M88.0758 31.6691
L88.2572 31.7296
" />
<path d="M88.2572 31.7296
L88.3782 31.8506
" />
<path d="M88.3782 31.8506
L88.4387 31.9715
" />
<path d="M88.4387 31.9715
L88.4991 32.2134
" />
<path d="M88.4991 32.2134
L88.4991 32.3948
" />
<path d="M88.4991 32.3948
L88.4387 32.6367
" />
<path d="M88.4387 32.6367
L88.3782 32.7577
" />
<path d="M88.3782 32.7577
L88.2572 32.8787
" />
<path d="M88.2572 32.8787
L88.0758 32.9391
" />
<path d="M88.0758 32.9391
L87.7734 32.9391
" />
<path d="M89.0434 32.9391
L89.0434 31.6691
" />
<path d="M89.8901 31.6691
L90.1320 31.6691
" />
<path d="M90.1320 31.6691
L90.2530 31.7296
" />
<path d="M90.2530 31.7296
L90.3739 31.8506
" />
<path d="M90.3739 31.8506
L90.4344 32.0925
" />
<path d="M90.4344 32.0925
L90.4344 32.5158
" />
<path d="M90.4344 32.5158
L90.3739 32.7577
" />
<path d="M90.3739 32.7577
L90.2530 32.8787
" />
<path d="M90.2530 32.8787
L90.1320 32.9391
" />
<path d="M90.1320 32.9391
L89.8901 32.9391
" />
<path d="M89.8901 32.9391
L89.7692 32.8787
" />
<path d="M89.7692 32.8787
L89.6482 32.7577
" />
<path d="M89.6482 32.7577
L89.5878 32.5158
" />
<path d="M89.5878 32.5158
L89.5878 32.0925
" />
<path d="M89.5878 32.0925
L89.6482 31.8506
" />
<path d="M89.6482 31.8506
L89.7692 31.7296
" />
<path d="M89.7692 31.7296
L89.8901 31.6691
" />
<path d="M91.5835 31.6691
L90.9787 31.6691
" />
<path d="M90.9787 31.6691
L90.9183 32.2739
" />
<path d="M90.9183 32.2739
L90.9787 32.2134
" />
<path d="M90.9787 32.2134
L91.0997 32.1529
" />
<path d="M91.0997 32.1529
L91.4021 32.1529
" />
<path d="M91.4021 32.1529
L91.5230 32.2134
" />
<path d="M91.5230 32.2134
L91.5835 32.2739
" />
<path d="M91.5835 32.2739
L91.6440 32.3948
" />
<path d="M91.6440 32.3948
L91.6440 32.6972
" />
<path d="M91.6440 32.6972
L91.5835 32.8182
" />
<path d="M91.5835 32.8182
L91.5230 32.8787
" />
<path d="M91.5230 32.8787
L91.4021 32.9391
" />
<path d="M91.4021 32.9391
L91.0997 32.9391
" />
<path d="M91.0997 32.9391
L90.9787 32.8787
" />
<path d="M90.9787 32.8787
L90.9183 32.8182
" />
</g><text x="94.2721" y="32.1056"
textLength="1.4127" font-size="1.6933" lengthAdjust="spacingAndGlyphs"
text-anchor="middle" opacity="0">7</text>
<g class="stroked-text"><desc>7</desc>
<path d="M93.8488 30.6721
L94.6954 30.6721
" />
<path d="M94.6954 30.6721
L94.1512 31.9421
" />
</g><path d="M82.8421 47.5996
L82.8421 50.1396
" />
<g transform="rotate(-90.000000 82.8421 46.5836)">
<text x="82.8421" y="47.2186"
textLength="4.0737" font-size="1.6933" lengthAdjust="spacingAndGlyphs"
text-anchor="start" opacity="0">GND</text>
</g>
<g class="stroked-text"><desc>GND</desc>
<path d="M82.2121 45.5157
L82.1516 45.6367
" />
<path d="M82.1516 45.6367
L82.1516 45.8181
" />
<path d="M82.1516 45.8181
L82.2121 45.9995
" />
<path d="M82.2121 45.9995
L82.3331 46.1205
" />
<path d="M82.3331 46.1205
L82.4540 46.1810
" />
<path d="M82.4540 46.1810
L82.6959 46.2414
" />
<path d="M82.6959 46.2414
L82.8773 46.2414
" />
<path d="M82.8773 46.2414
L83.1192 46.1810
" />
<path d="M83.1192 46.1810
L83.2402 46.1205
" />
<path d="M83.2402 46.1205
L83.3612 45.9995
" />
<path d="M83.3612 45.9995
L83.4216 45.8181
" />
<path d="M83.4216 45.8181
L83.4216 45.6972
" />
<path d="M83.4216 45.6972
L83.3612 45.5157
" />
<path d="M83.3612 45.5157
L83.3007 45.4553
" />
<path d="M83.3007 45.4553
L82.8773 45.4553
" />
<path d="M82.8773 45.4553
L82.8773 45.6972
" />
<path d="M83.4216 44.9110
L82.1516 44.9110
" />
<path d="M82.1516 44.9110
L83.4216 44.1853
" />
<path d="M83.4216 44.1853
L82.1516 44.1853
" />
<path d="M83.4216 43.5805
L82.1516 43.5805
" />
<path d="M82.1516 43.5805
L82.1516 43.2781
" />
<path d="M82.1516 43.2781
L82.2121 43.0967
" />
<path d="M82.2121 43.0967
L82.3331 42.9757
" />
<path d="M82.3331 42.9757
L82.4540 42.9152
" />
<path d="M82.4540 42.9152
L82.6959 42.8548
" />
<path d="M82.6959 42.8548
L82.8773 42.8548
" />
<path d="M82.8773 42.8548
L83.1192 42.9152
" />
<path d="M83.1192 42.9152
L83.2402 42.9757
" />
<path d="M83.2402 42.9757
L83.3612 43.0967
" />
<path d="M83.3612 43.0967
L83.4216 43.2781
" />
<path d="M83.4216 43.2781
L83.4216 43.5805
" />
</g><g transform="rotate(-90.000000 82.5881 48.8696)">
<text x="82.5881" y="48.8696"
textLength="1.4127" font-size="1.6933" lengthAdjust="spacingAndGlyphs"
text-anchor="middle" opacity="0">8</text>
</g>
<g class="stroked-text"><desc>8</desc>
<path d="M81.6989 48.9904
L81.6384 49.1114
" />
<path d="M81.6384 49.1114
L81.5780 49.1719
" />
<path d="M81.5780 49.1719
L81.4570 49.2323
" />
<path d="M81.4570 49.2323
L81.3965 49.2323
" />
<path d="M81.3965 49.2323
L81.2756 49.1719
" />
<path d="M81.2756 49.1719
L81.2151 49.1114
" />
<path d="M81.2151 49.1114
L81.1546 48.9904
" />
<path d="M81.1546 48.9904
L81.1546 48.7485
" />
<path d="M81.1546 48.7485
L81.2151 48.6276
" />
<path d="M81.2151 48.6276
L81.2756 48.5671
" />
<path d="M81.2756 48.5671
L81.3965 48.5066
" />
<path d="M81.3965 48.5066
L81.4570 48.5066
" />
<path d="M81.4570 48.5066
L81.5780 48.5671
" />
<path d="M81.5780 48.5671
L81.6384 48.6276
" />
<path d="M81.6384 48.6276
L81.6989 48.7485
" />
<path d="M81.6989 48.7485
L81.6989 48.9904
" />
<path d="M81.6989 48.9904
L81.7594 49.1114
" />
<path d="M81.7594 49.1114
L81.8199 49.1719
" />
<path d="M81.8199 49.1719
L81.9408 49.2323
" />
<path d="M81.9408 49.2323
L82.1827 49.2323
" />
<path d="M82.1827 49.2323
L82.3037 49.1719
" />
<path d="M82.3037 49.1719
L82.3642 49.1114
" />
<path d="M82.3642 49.1114
L82.4246 48.9904
" />
<path d="M82.4246 48.9904
L82.4246 48.7485
" />
<path d="M82.4246 48.7485
L82.3642 48.6276
" />
<path d="M82.3642 48.6276
L82.3037 48.5671
" />
<path d="M82.3037 48.5671
L82.1827 48.5066
" />
<path d="M82.1827 48.5066
L81.9408 48.5066
" />
<path d="M81.9408 48.5066
L81.8199 48.5671
" />
<path d="M81.8199 48.5671
L81.7594 48.6276
" />
<path d="M81.7594 48.6276
L81.6989 48.7485
" />
</g><path d="M93.0021 27.2796
L95.5421 27.2796
" />
<text x="91.9861" y="27.9146"
textLength="3.5899" font-size="1.6933" lengthAdjust="spacingAndGlyphs"
text-anchor="end" opacity="0">ANT</text>
<g class="stroked-text"><desc>ANT</desc>
<path d="M88.7411 27.4963
L89.3458 27.4963
" />
<path d="M88.6201 27.8591
L89.0434 26.5891
" />
<path d="M89.0434 26.5891
L89.4668 27.8591
" />
<path d="M89.8901 27.8591
L89.8901 26.5891
" />
<path d="M89.8901 26.5891
L90.6158 27.8591
" />
<path d="M90.6158 27.8591
L90.6158 26.5891
" />
<path d="M91.0392 26.5891
L91.7649 26.5891
" />
<path d="M91.4021 27.8591
L91.4021 26.5891
" />
</g><text x="94.2721" y="27.0256"
textLength="1.4127" font-size="1.6933" lengthAdjust="spacingAndGlyphs"
text-anchor="middle" opacity="0">9</text>
<g class="stroked-text"><desc>9</desc>
<path d="M94.0302 26.8621
L94.2721 26.8621
" />
<path d="M94.2721 26.8621
L94.3931 26.8017
" />
<path d="M94.3931 26.8017
L94.4535 26.7412
" />
<path d="M94.4535 26.7412
L94.5745 26.5597
" />
<path d="M94.5745 26.5597
L94.6350 26.3178
" />
<path d="M94.6350 26.3178
L94.6350 25.8340
" />
<path d="M94.6350 25.8340
L94.5745 25.7131
" />
<path d="M94.5745 25.7131
L94.5140 25.6526
" />
<path d="M94.5140 25.6526
L94.3931 25.5921
" />
<path d="M94.3931 25.5921
L94.1512 25.5921
" />
<path d="M94.1512 25.5921
L94.0302 25.6526
" />
<path d="M94.0302 25.6526
L93.9697 25.7131
" />
<path d="M93.9697 25.7131
L93.9093 25.8340
" />
<path d="M93.9093 25.8340
L93.9093 26.1364
" />
<path d="M93.9093 26.1364
L93.9697 26.2574
" />
<path d="M93.9697 26.2574
L94.0302 26.3178
" />
<path d="M94.0302 26.3178
L94.1512 26.3783
" />
<path d="M94.1512 26.3783
L94.3931 26.3783
" />
<path d="M94.3931 26.3783
L94.5140 26.3178
" />
<path d="M94.5140 26.3178
L94.5745 26.2574
" />
<path d="M94.5745 26.2574
L94.6350 26.1364
" />
</g></g>
<g style="fill:#000000; fill-opacity:0.0; 
stroke:#000000; stroke-width:0.1588; stroke-opacity:1; 
stroke-linecap:round; stroke-linejoin:round;">
<text x="73.7488" y="23.8506"
textLength="2.6415" font-size="1.6933" lengthAdjust="spacingAndGlyphs"
text-anchor="middle" opacity="0">U?</text>
<g class="stroked-text"><desc>U?</desc>
<path d="M72.8416 22.5248
L72.8416 23.5529
" />
<path d="M72.8416 23.5529
L72.9021 23.6739
" />
<path d="M72.9021 23.6739
L72.9626 23.7344
" />
<path d="M72.9626 23.7344
L73.0835 23.7948
" />
<path d="M73.0835 23.7948
L73.3254 23.7948
" />
<path d="M73.3254 23.7948
L73.4464 23.7344
" />
<path d="M73.4464 23.7344
L73.5069 23.6739
" />
<path d="M73.5069 23.6739
L73.5673 23.5529
" />
<path d="M73.5673 23.5529
L73.5673 22.5248
" />
<path d="M74.3536 23.6739
L74.4140 23.7344
" />
<path d="M74.4140 23.7344
L74.3536 23.7948
" />
<path d="M74.3536 23.7948
L74.2931 23.7344
" />
<path d="M74.2931 23.7344
L74.3536 23.6739
" />
<path d="M74.3536 23.6739
L74.3536 23.7948
" />
<path d="M74.1117 22.5853
L74.2326 22.5248
" />
<path d="M74.2326 22.5248
L74.5350 22.5248
" />
<path d="M74.5350 22.5248
L74.6559 22.5853
" />
<path d="M74.6559 22.5853
L74.7164 22.7063
" />
<path d="M74.7164 22.7063
L74.7164 22.8272
" />
<path d="M74.7164 22.8272
L74.6559 22.9482
" />
<path d="M74.6559 22.9482
L74.5955 23.0086
" />
<path d="M74.5955 23.0086
L74.4745 23.0691
" />
<path d="M74.4745 23.0691
L74.4140 23.1296
" />
<path d="M74.4140 23.1296
L74.3536 23.2505
" />
<path d="M74.3536 23.2505
L74.3536 23.3110
" />
</g><text x="92.1274" y="24.1046"
textLength="15.5227" font-size="1.6933" lengthAdjust="spacingAndGlyphs"
text-anchor="middle" opacity="0">RFM98W-433S2</text>
<g class="stroked-text"><desc>RFM98W-433S2</desc>
<path d="M85.5053 24.0488
L85.0820 23.4441
" />
<path d="M84.7796 24.0488
L84.7796 22.7788
" />
<path d="M84.7796 22.7788
L85.2634 22.7788
" />
<path d="M85.2634 22.7788
L85.3844 22.8393
" />
<path d="M85.3844 22.8393
L85.4449 22.8998
" />
<path d="M85.4449 22.8998
L85.5053 23.0207
" />
<path d="M85.5053 23.0207
L85.5053 23.2022
" />
<path d="M85.5053 23.2022
L85.4449 23.3231
" />
<path d="M85.4449 23.3231
L85.3844 23.3836
" />
<path d="M85.3844 23.3836
L85.2634 23.4441
" />
<path d="M85.2634 23.4441
L84.7796 23.4441
" />
<path d="M86.4730 23.3836
L86.0496 23.3836
" />
<path d="M86.0496 24.0488
L86.0496 22.7788
" />
<path d="M86.0496 22.7788
L86.6544 22.7788
" />
<path d="M87.1382 24.0488
L87.1382 22.7788
" />
<path d="M87.1382 22.7788
L87.5616 23.6860
" />
<path d="M87.5616 23.6860
L87.9849 22.7788
" />
<path d="M87.9849 22.7788
L87.9849 24.0488
" />
<path d="M88.6501 24.0488
L88.8920 24.0488
" />
<path d="M88.8920 24.0488
L89.0130 23.9884
" />
<path d="M89.0130 23.9884
L89.0734 23.9279
" />
<path d="M89.0734 23.9279
L89.1944 23.7464
" />
<path d="M89.1944 23.7464
L89.2549 23.5045
" />
<path d="M89.2549 23.5045
L89.2549 23.0207
" />
<path d="M89.2549 23.0207
L89.1944 22.8998
" />
<path d="M89.1944 22.8998
L89.1339 22.8393
" />
<path d="M89.1339 22.8393
L89.0130 22.7788
" />
<path d="M89.0130 22.7788
L88.7711 22.7788
" />
<path d="M88.7711 22.7788
L88.6501 22.8393
" />
<path d="M88.6501 22.8393
L88.5896 22.8998
" />
<path d="M88.5896 22.8998
L88.5292 23.0207
" />
<path d="M88.5292 23.0207
L88.5292 23.3231
" />
<path d="M88.5292 23.3231
L88.5896 23.4441
" />
<path d="M88.5896 23.4441
L88.6501 23.5045
" />
<path d="M88.6501 23.5045
L88.7711 23.5650
" />
<path d="M88.7711 23.5650
L89.0130 23.5650
" />
<path d="M89.0130 23.5650
L89.1339 23.5045
" />
<path d="M89.1339 23.5045
L89.1944 23.4441
" />
<path d="M89.1944 23.4441
L89.2549 23.3231
" />
<path d="M89.9806 23.3231
L89.8596 23.2626
" />
<path d="M89.8596 23.2626
L89.7991 23.2022
" />
<path d="M89.7991 23.2022
L89.7387 23.0812
" />
<path d="M89.7387 23.0812
L89.7387 23.0207
" />
<path d="M89.7387 23.0207
L89.7991 22.8998
" />
<path d="M89.7991 22.8998
L89.8596 22.8393
" />
<path d="M89.8596 22.8393
L89.9806 22.7788
" />
<path d="M89.9806 22.7788
L90.2225 22.7788
" />
<path d="M90.2225 22.7788
L90.3434 22.8393
" />
<path d="M90.3434 22.8393
L90.4039 22.8998
" />
<path d="M90.4039 22.8998
L90.4644 23.0207
" />
<path d="M90.4644 23.0207
L90.4644 23.0812
" />
<path d="M90.4644 23.0812
L90.4039 23.2022
" />
<path d="M90.4039 23.2022
L90.3434 23.2626
" />
<path d="M90.3434 23.2626
L90.2225 23.3231
" />
<path d="M90.2225 23.3231
L89.9806 23.3231
" />
<path d="M89.9806 23.3231
L89.8596 23.3836
" />
<path d="M89.8596 23.3836
L89.7991 23.4441
" />
<path d="M89.7991 23.4441
L89.7387 23.5650
" />
<path d="M89.7387 23.5650
L89.7387 23.8069
" />
<path d="M89.7387 23.8069
L89.7991 23.9279
" />
<path d="M89.7991 23.9279
L89.8596 23.9884
" />
<path d="M89.8596 23.9884
L89.9806 24.0488
" />
<path d="M89.9806 24.0488
L90.2225 24.0488
" />
<path d="M90.2225 24.0488
L90.3434 23.9884
" />
<path d="M90.3434 23.9884
L90.4039 23.9279
" />
<path d="M90.4039 23.9279
L90.4644 23.8069
" />
<path d="M90.4644 23.8069
L90.4644 23.5650
" />
<path d="M90.4644 23.5650
L90.4039 23.4441
" />
<path d="M90.4039 23.4441
L90.3434 23.3836
" />
<path d="M90.3434 23.3836
L90.2225 23.3231
" />
<path d="M90.8877 22.7788
L91.1901 24.0488
" />
<path d="M91.1901 24.0488
L91.4320 23.1417
" />
<path d="M91.4320 23.1417
L91.6739 24.0488
" />
<path d="M91.6739 24.0488
L91.9763 22.7788
" />
<path d="M92.4600 23.5650
L93.4277 23.5650
" />
<path d="M94.5767 23.2022
L94.5767 24.0488
" />
<path d="M94.2743 22.7184
L93.9720 23.6255
" />
<path d="M93.9720 23.6255
L94.7581 23.6255
" />
<path d="M95.1210 22.7788
L95.9072 22.7788
" />
<path d="M95.9072 22.7788
L95.4838 23.2626
" />
<path d="M95.4838 23.2626
L95.6653 23.2626
" />
<path d="M95.6653 23.2626
L95.7862 23.3231
" />
<path d="M95.7862 23.3231
L95.8467 23.3836
" />
<path d="M95.8467 23.3836
L95.9072 23.5045
" />
<path d="M95.9072 23.5045
L95.9072 23.8069
" />
<path d="M95.9072 23.8069
L95.8467 23.9279
" />
<path d="M95.8467 23.9279
L95.7862 23.9884
" />
<path d="M95.7862 23.9884
L95.6653 24.0488
" />
<path d="M95.6653 24.0488
L95.3024 24.0488
" />
<path d="M95.3024 24.0488
L95.1815 23.9884
" />
<path d="M95.1815 23.9884
L95.1210 23.9279
" />
<path d="M96.3305 22.7788
L97.1167 22.7788
" />
<path d="M97.1167 22.7788
L96.6933 23.2626
" />
<path d="M96.6933 23.2626
L96.8748 23.2626
" />
<path d="M96.8748 23.2626
L96.9957 23.3231
" />
<path d="M96.9957 23.3231
L97.0562 23.3836
" />
<path d="M97.0562 23.3836
L97.1167 23.5045
" />
<path d="M97.1167 23.5045
L97.1167 23.8069
" />
<path d="M97.1167 23.8069
L97.0562 23.9279
" />
<path d="M97.0562 23.9279
L96.9957 23.9884
" />
<path d="M96.9957 23.9884
L96.8748 24.0488
" />
<path d="M96.8748 24.0488
L96.5119 24.0488
" />
<path d="M96.5119 24.0488
L96.3910 23.9884
" />
<path d="M96.3910 23.9884
L96.3305 23.9279
" />
<path d="M97.6005 23.9884
L97.7819 24.0488
" />
<path d="M97.7819 24.0488
L98.0843 24.0488
" />
<path d="M98.0843 24.0488
L98.2052 23.9884
" />
<path d="M98.2052 23.9884
L98.2657 23.9279
" />
<path d="M98.2657 23.9279
L98.3262 23.8069
" />
<path d="M98.3262 23.8069
L98.3262 23.6860
" />
<path d="M98.3262 23.6860
L98.2657 23.5650
" />
<path d="M98.2657 23.5650
L98.2052 23.5045
" />
<path d="M98.2052 23.5045
L98.0843 23.4441
" />
<path d="M98.0843 23.4441
L97.8424 23.3836
" />
<path d="M97.8424 23.3836
L97.7214 23.3231
" />
<path d="M97.7214 23.3231
L97.6609 23.2626
" />
<path d="M97.6609 23.2626
L97.6005 23.1417
" />
<path d="M97.6005 23.1417
L97.6005 23.0207
" />
<path d="M97.6005 23.0207
L97.6609 22.8998
" />
<path d="M97.6609 22.8998
L97.7214 22.8393
" />
<path d="M97.7214 22.8393
L97.8424 22.7788
" />
<path d="M97.8424 22.7788
L98.1447 22.7788
" />
<path d="M98.1447 22.7788
L98.3262 22.8393
" />
<path d="M98.8100 22.8998
L98.8704 22.8393
" />
<path d="M98.8704 22.8393
L98.9914 22.7788
" />
<path d="M98.9914 22.7788
L99.2938 22.7788
" />
<path d="M99.2938 22.7788
L99.4147 22.8393
" />
<path d="M99.4147 22.8393
L99.4752 22.8998
" />
<path d="M99.4752 22.8998
L99.5357 23.0207
" />
<path d="M99.5357 23.0207
L99.5357 23.1417
" />
<path d="M99.5357 23.1417
L99.4752 23.3231
" />
<path d="M99.4752 23.3231
L98.7495 24.0488
" />
<path d="M98.7495 24.0488
L99.5357 24.0488
" />
</g></g> 
</svg>
