<?xml version="1.0" standalone="no"?>
 <!DOCTYPE svg PUBLIC "-//W3C//DTD SVG 1.1//EN" 
 "http://www.w3.org/Graphics/SVG/1.1/DTD/svg11.dtd"> 
<svg
  xmlns:svg="http://www.w3.org/2000/svg"
  xmlns="http://www.w3.org/2000/svg"
  xmlns:xlink="http://www.w3.org/1999/xlink"
  version="1.1"
  width="35.5346mm" height="9.5758mm" viewBox="0.0000 0.0000 35.5346 9.5758">
<title>SVG Image created as WSON-8-1EP_8x6mm_P1.27mm_EP3.4x4.3mm.svg date 2024/01/16 15:07:30 </title>
  <desc>Image generated by PCBNEW </desc>
<g style="fill:#000000; fill-opacity:1.0000;stroke:#000000; stroke-opacity:1.0000;
stroke-linecap:round; stroke-linejoin:round;"
 transform="translate(0 0) scale(1 1)">
</g>
<g style="fill:#000000; fill-opacity:0.0; 
stroke:#000000; stroke-width:0.0000; stroke-opacity:1; 
stroke-linecap:round; stroke-linejoin:round;">
</g>
<g style="fill:#000000; fill-opacity:1.0000; 
stroke:#000000; stroke-width:0.0212; stroke-opacity:1; 
stroke-linecap:round; stroke-linejoin:round;">
<rect x="-5.000000" y="-5.000000" width="45.535712" height="19.596500" rx="0.000000" />
</g>
<g style="fill:#FFFFFF; fill-opacity:1.0000; 
stroke:#FFFFFF; stroke-width:0.0212; stroke-opacity:1; 
stroke-linecap:round; stroke-linejoin:round;">
<g >
</g>
<g >
</g>
<g >
</g>
<g >
</g>
</g>
<g style="fill:#FFFFFF; fill-opacity:1.0000; 
stroke:#FFFFFF; stroke-width:0.0212; stroke-opacity:1; 
stroke-linecap:round; stroke-linejoin:round;">
<g >
</g>
<g >
</g>
<g >
</g>
<g >
</g>
</g>
<g style="fill:#FFFFFF; fill-opacity:1.0000; 
stroke:#FFFFFF; stroke-width:0.0212; stroke-opacity:1; 
stroke-linecap:round; stroke-linejoin:round;">
<g >
</g>
<g >
</g>
<g >
</g>
<g >
</g>
</g>
<g style="fill:#FFFFFF; fill-opacity:1.0000; 
stroke:#FFFFFF; stroke-width:0.0212; stroke-opacity:1; 
stroke-linecap:round; stroke-linejoin:round;">
<g >
</g>
<g >
</g>
<g >
</g>
<g >
</g>
</g>
<g style="fill:#FFFFFF; fill-opacity:1.0000; 
stroke:#FFFFFF; stroke-width:0.0212; stroke-opacity:1; 
stroke-linecap:round; stroke-linejoin:round;">
<g >
</g>
<g >
</g>
<g >
</g>
<g >
</g>
</g>
<g style="fill:#FFFFFF; fill-opacity:1.0000; 
stroke:#FFFFFF; stroke-width:0.0212; stroke-opacity:1; 
stroke-linecap:round; stroke-linejoin:round;">
<g >
</g>
<g >
</g>
<g >
</g>
<g >
</g>
</g>
<g style="fill:#FFFFFF; fill-opacity:1.0000; 
stroke:#FFFFFF; stroke-width:0.0212; stroke-opacity:1; 
stroke-linecap:round; stroke-linejoin:round;">
<g >
</g>
<g >
</g>
<g >
</g>
<g >
</g>
</g>
<g style="fill:#FFFFFF; fill-opacity:1.0000; 
stroke:#FFFFFF; stroke-width:0.0212; stroke-opacity:1; 
stroke-linecap:round; stroke-linejoin:round;">
<g >
</g>
<g >
</g>
<g >
</g>
<g >
</g>
</g>
<g style="fill:#FFFFFF; fill-opacity:1.0000; 
stroke:#FFFFFF; stroke-width:0.0212; stroke-opacity:1; 
stroke-linecap:round; stroke-linejoin:round;">
<g >
</g>
<g >
</g>
<g >
</g>
<g >
</g>
</g>
<g style="fill:#FFFFFF; fill-opacity:1.0000; 
stroke:#FFFFFF; stroke-width:0.0212; stroke-opacity:1; 
stroke-linecap:round; stroke-linejoin:round;">
<g >
</g>
<g >
</g>
<g >
</g>
<g >
</g>
</g>
<g style="fill:#FFFFFF; fill-opacity:1.0000; 
stroke:#FFFFFF; stroke-width:0.0212; stroke-opacity:1; 
stroke-linecap:round; stroke-linejoin:round;">
<g >
</g>
<g >
</g>
<g >
</g>
<g >
</g>
</g>
<g style="fill:#FFFFFF; fill-opacity:1.0000; 
stroke:#FFFFFF; stroke-width:0.0212; stroke-opacity:1; 
stroke-linecap:round; stroke-linejoin:round;">
<g >
</g>
<g >
</g>
<g >
</g>
<g >
</g>
</g>
<g style="fill:#FFFFFF; fill-opacity:1.0000; 
stroke:#FFFFFF; stroke-width:0.0212; stroke-opacity:1; 
stroke-linecap:round; stroke-linejoin:round;">
<g >
</g>
<g >
</g>
<g >
</g>
<g >
</g>
</g>
<g style="fill:#FFFFFF; fill-opacity:1.0000; 
stroke:#FFFFFF; stroke-width:0.0212; stroke-opacity:1; 
stroke-linecap:round; stroke-linejoin:round;">
<g >
</g>
<g >
</g>
<g >
</g>
<g >
</g>
</g>
<g style="fill:#FFFFFF; fill-opacity:1.0000; 
stroke:#FFFFFF; stroke-width:0.0212; stroke-opacity:1; 
stroke-linecap:round; stroke-linejoin:round;">
<g >
</g>
<g >
</g>
<g >
</g>
<g >
</g>
</g>
<g style="fill:#FFFFFF; fill-opacity:1.0000; 
stroke:#FFFFFF; stroke-width:0.0212; stroke-opacity:1; 
stroke-linecap:round; stroke-linejoin:round;">
<g >
</g>
<g >
</g>
<g >
</g>
<g >
</g>
</g>
<g style="fill:#FFFFFF; fill-opacity:1.0000; 
stroke:#FFFFFF; stroke-width:0.0212; stroke-opacity:1; 
stroke-linecap:round; stroke-linejoin:round;">
<g >
</g>
<g >
</g>
<g >
</g>
<g >
</g>
</g>
<g style="fill:#FFFFFF; fill-opacity:1.0000; 
stroke:#FFFFFF; stroke-width:0.0212; stroke-opacity:1; 
stroke-linecap:round; stroke-linejoin:round;">
<g >
</g>
<g >
</g>
<g >
</g>
<g >
</g>
</g>
<g style="fill:#FFFFFF; fill-opacity:1.0000; 
stroke:#FFFFFF; stroke-width:0.0212; stroke-opacity:1; 
stroke-linecap:round; stroke-linejoin:round;">
<g >
</g>
<g >
</g>
<g >
</g>
<g >
</g>
</g>
<g style="fill:#FFFFFF; fill-opacity:1.0000; 
stroke:#FFFFFF; stroke-width:0.0212; stroke-opacity:1; 
stroke-linecap:round; stroke-linejoin:round;">
<g >
</g>
<g >
</g>
<g >
</g>
<g >
</g>
</g>
<g style="fill:#FFFFFF; fill-opacity:1.0000; 
stroke:#FFFFFF; stroke-width:0.0212; stroke-opacity:1; 
stroke-linecap:round; stroke-linejoin:round;">
<g >
</g>
<g >
</g>
<g >
</g>
<g >
</g>
</g>
<g style="fill:#FFFFFF; fill-opacity:1.0000; 
stroke:#FFFFFF; stroke-width:0.0212; stroke-opacity:1; 
stroke-linecap:round; stroke-linejoin:round;">
<g >
</g>
<g >
</g>
<g >
</g>
<g >
</g>
</g>
<g style="fill:#FFFFFF; fill-opacity:1.0000; 
stroke:#FFFFFF; stroke-width:0.0212; stroke-opacity:1; 
stroke-linecap:round; stroke-linejoin:round;">
<g >
</g>
<g >
</g>
<g >
</g>
<g >
</g>
</g>
<g style="fill:#FFFFFF; fill-opacity:1.0000; 
stroke:#FFFFFF; stroke-width:0.0212; stroke-opacity:1; 
stroke-linecap:round; stroke-linejoin:round;">
<g >
</g>
<g >
</g>
<g >
</g>
<g >
</g>
</g>
<g style="fill:#FFFFFF; fill-opacity:1.0000; 
stroke:#FFFFFF; stroke-width:0.0212; stroke-opacity:1; 
stroke-linecap:round; stroke-linejoin:round;">
<g >
</g>
<g >
</g>
<g >
</g>
<g >
</g>
</g>
<g style="fill:#FFFFFF; fill-opacity:1.0000; 
stroke:#FFFFFF; stroke-width:0.0212; stroke-opacity:1; 
stroke-linecap:round; stroke-linejoin:round;">
<g >
</g>
<g >
</g>
<g >
</g>
<g >
</g>
</g>
<g style="fill:#FFFFFF; fill-opacity:1.0000; 
stroke:#FFFFFF; stroke-width:0.0212; stroke-opacity:1; 
stroke-linecap:round; stroke-linejoin:round;">
<g >
</g>
<g >
</g>
<g >
</g>
<g >
</g>
</g>
<g style="fill:#FFFFFF; fill-opacity:1.0000; 
stroke:#FFFFFF; stroke-width:0.0212; stroke-opacity:1; 
stroke-linecap:round; stroke-linejoin:round;">
<g >
</g>
<g >
</g>
<g >
</g>
<g >
</g>
</g>
<g style="fill:#FFFFFF; fill-opacity:1.0000; 
stroke:#FFFFFF; stroke-width:0.0212; stroke-opacity:1; 
stroke-linecap:round; stroke-linejoin:round;">
<g >
</g>
<g >
</g>
<g >
</g>
<g >
</g>
</g>
<g style="fill:#FFFFFF; fill-opacity:1.0000; 
stroke:#FFFFFF; stroke-width:0.0212; stroke-opacity:1; 
stroke-linecap:round; stroke-linejoin:round;">
<g >
</g>
<g >
</g>
<g >
</g>
<g >
</g>
</g>
<g style="fill:#FFFFFF; fill-opacity:1.0000; 
stroke:#FFFFFF; stroke-width:0.0212; stroke-opacity:1; 
stroke-linecap:round; stroke-linejoin:round;">
<g >
</g>
<g >
</g>
<g >
</g>
<g >
</g>
</g>
<g style="fill:#FFFFFF; fill-opacity:1.0000; 
stroke:#FFFFFF; stroke-width:0.0212; stroke-opacity:1; 
stroke-linecap:round; stroke-linejoin:round;">
<g >
</g>
<g >
</g>
<g >
</g>
<g >
</g>
</g>
<g style="fill:#FFFFFF; fill-opacity:1.0000; 
stroke:#FFFFFF; stroke-width:0.0212; stroke-opacity:1; 
stroke-linecap:round; stroke-linejoin:round;">
<g >
</g>
<g >
</g>
<g >
</g>
<g >
</g>
</g>
<g style="fill:#FFFFFF; fill-opacity:1.0000; 
stroke:#FFFFFF; stroke-width:0.0212; stroke-opacity:1; 
stroke-linecap:round; stroke-linejoin:round;">
<g >
</g>
<g style="fill:#37CBCB; fill-opacity:1.0000; 
stroke:#37CBCB; stroke-width:0.0212; stroke-opacity:1; 
stroke-linecap:round; stroke-linejoin:round;">
</g>
<g style="fill:#37CBCB; fill-opacity:1.0000; 
stroke:#37CBCB; stroke-width:0.0000; stroke-opacity:1; 
stroke-linecap:round; stroke-linejoin:round;">
<path style="fill:#37CBCB; fill-opacity:1.0000; 
stroke:#37CBCB; stroke-width:0.0000; stroke-opacity:1; 
stroke-linecap:round; stroke-linejoin:round;fill-rule:evenodd;"
d="M 13.6929,2.7682
13.7024,2.7204
13.7295,2.6799
13.7700,2.6528
13.8179,2.6433
14.2179,2.6433
14.2657,2.6528
14.3062,2.6799
14.3333,2.7204
14.3429,2.7682
14.3429,3.0182
14.3333,3.0661
14.3062,3.1066
14.2657,3.1337
14.2179,3.1432
13.8179,3.1432
13.7700,3.1337
13.7295,3.1066
13.7024,3.0661
13.6929,3.0182
Z" /> 
<path style="fill:#37CBCB; fill-opacity:1.0000; 
stroke:#37CBCB; stroke-width:0.0000; stroke-opacity:1; 
stroke-linecap:round; stroke-linejoin:round;fill-rule:evenodd;"
d="M 13.6929,4.0382
13.7024,3.9904
13.7295,3.9499
13.7700,3.9228
13.8179,3.9132
14.2179,3.9132
14.2657,3.9228
14.3062,3.9499
14.3333,3.9904
14.3429,4.0382
14.3429,4.2882
14.3333,4.3361
14.3062,4.3766
14.2657,4.4037
14.2179,4.4132
13.8179,4.4132
13.7700,4.4037
13.7295,4.3766
13.7024,4.3361
13.6929,4.2882
Z" /> 
<path style="fill:#37CBCB; fill-opacity:1.0000; 
stroke:#37CBCB; stroke-width:0.0000; stroke-opacity:1; 
stroke-linecap:round; stroke-linejoin:round;fill-rule:evenodd;"
d="M 13.6929,5.3083
13.7024,5.2604
13.7295,5.2199
13.7700,5.1928
13.8179,5.1833
14.2179,5.1833
14.2657,5.1928
14.3062,5.2199
14.3333,5.2604
14.3429,5.3083
14.3429,5.5583
14.3333,5.6061
14.3062,5.6466
14.2657,5.6737
14.2179,5.6833
13.8179,5.6833
13.7700,5.6737
13.7295,5.6466
13.7024,5.6061
13.6929,5.5583
Z" /> 
<path style="fill:#37CBCB; fill-opacity:1.0000; 
stroke:#37CBCB; stroke-width:0.0000; stroke-opacity:1; 
stroke-linecap:round; stroke-linejoin:round;fill-rule:evenodd;"
d="M 13.6929,6.5782
13.7024,6.5304
13.7295,6.4899
13.7700,6.4628
13.8179,6.4532
14.2179,6.4532
14.2657,6.4628
14.3062,6.4899
14.3333,6.5304
14.3429,6.5782
14.3429,6.8282
14.3333,6.8761
14.3062,6.9166
14.2657,6.9437
14.2179,6.9532
13.8179,6.9532
13.7700,6.9437
13.7295,6.9166
13.7024,6.8761
13.6929,6.8282
Z" /> 
<path style="fill:#37CBCB; fill-opacity:1.0000; 
stroke:#37CBCB; stroke-width:0.0000; stroke-opacity:1; 
stroke-linecap:round; stroke-linejoin:round;fill-rule:evenodd;"
d="M 21.1929,6.5782
21.2024,6.5304
21.2295,6.4899
21.2700,6.4628
21.3179,6.4532
21.7179,6.4532
21.7657,6.4628
21.8062,6.4899
21.8333,6.5304
21.8429,6.5782
21.8429,6.8282
21.8333,6.8761
21.8062,6.9166
21.7657,6.9437
21.7179,6.9532
21.3179,6.9532
21.2700,6.9437
21.2295,6.9166
21.2024,6.8761
21.1929,6.8282
Z" /> 
<path style="fill:#37CBCB; fill-opacity:1.0000; 
stroke:#37CBCB; stroke-width:0.0000; stroke-opacity:1; 
stroke-linecap:round; stroke-linejoin:round;fill-rule:evenodd;"
d="M 21.1929,5.3083
21.2024,5.2604
21.2295,5.2199
21.2700,5.1928
21.3179,5.1833
21.7179,5.1833
21.7657,5.1928
21.8062,5.2199
21.8333,5.2604
21.8429,5.3083
21.8429,5.5583
21.8333,5.6061
21.8062,5.6466
21.7657,5.6737
21.7179,5.6833
21.3179,5.6833
21.2700,5.6737
21.2295,5.6466
21.2024,5.6061
21.1929,5.5583
Z" /> 
<path style="fill:#37CBCB; fill-opacity:1.0000; 
stroke:#37CBCB; stroke-width:0.0000; stroke-opacity:1; 
stroke-linecap:round; stroke-linejoin:round;fill-rule:evenodd;"
d="M 21.1929,4.0382
21.2024,3.9904
21.2295,3.9499
21.2700,3.9228
21.3179,3.9132
21.7179,3.9132
21.7657,3.9228
21.8062,3.9499
21.8333,3.9904
21.8429,4.0382
21.8429,4.2882
21.8333,4.3361
21.8062,4.3766
21.7657,4.4037
21.7179,4.4132
21.3179,4.4132
21.2700,4.4037
21.2295,4.3766
21.2024,4.3361
21.1929,4.2882
Z" /> 
<path style="fill:#37CBCB; fill-opacity:1.0000; 
stroke:#37CBCB; stroke-width:0.0000; stroke-opacity:1; 
stroke-linecap:round; stroke-linejoin:round;fill-rule:evenodd;"
d="M 21.1929,2.7682
21.2024,2.7204
21.2295,2.6799
21.2700,2.6528
21.3179,2.6433
21.7179,2.6433
21.7657,2.6528
21.8062,2.6799
21.8333,2.7204
21.8429,2.7682
21.8429,3.0182
21.8333,3.0661
21.8062,3.1066
21.7657,3.1337
21.7179,3.1432
21.3179,3.1432
21.2700,3.1337
21.2295,3.1066
21.2024,3.0661
21.1929,3.0182
Z" /> 
<path style="fill:#37CBCB; fill-opacity:1.0000; 
stroke:#37CBCB; stroke-width:0.0000; stroke-opacity:1; 
stroke-linecap:round; stroke-linejoin:round;fill-rule:evenodd;"
d="M 16.0679,6.9482
16.0679,2.6482
19.4679,2.6482
19.4679,6.9482
Z" /> 
</g>
<g >
</g>
<g >
</g>
<g >
</g>
</g>
<g style="fill:#FFFFFF; fill-opacity:1.0000; 
stroke:#FFFFFF; stroke-width:0.0000; stroke-opacity:1; 
stroke-linecap:round; stroke-linejoin:round;">
<g >
</g>
<g style="fill:#4A5F65; fill-opacity:0.9000; 
stroke:#4A5F65; stroke-width:0.0000; stroke-opacity:1; 
stroke-linecap:round; stroke-linejoin:round;">
<path style="fill:#4A5F65; fill-opacity:0.9000; 
stroke:#4A5F65; stroke-width:0.0000; stroke-opacity:1; 
stroke-linecap:round; stroke-linejoin:round;fill-rule:evenodd;"
d="M 13.6929,2.7682
13.7024,2.7204
13.7295,2.6799
13.7700,2.6528
13.8179,2.6433
14.2179,2.6433
14.2657,2.6528
14.3062,2.6799
14.3333,2.7204
14.3429,2.7682
14.3429,3.0182
14.3333,3.0661
14.3062,3.1066
14.2657,3.1337
14.2179,3.1432
13.8179,3.1432
13.7700,3.1337
13.7295,3.1066
13.7024,3.0661
13.6929,3.0182
Z" /> 
<path style="fill:#4A5F65; fill-opacity:0.9000; 
stroke:#4A5F65; stroke-width:0.0000; stroke-opacity:1; 
stroke-linecap:round; stroke-linejoin:round;fill-rule:evenodd;"
d="M 13.6929,4.0382
13.7024,3.9904
13.7295,3.9499
13.7700,3.9228
13.8179,3.9132
14.2179,3.9132
14.2657,3.9228
14.3062,3.9499
14.3333,3.9904
14.3429,4.0382
14.3429,4.2882
14.3333,4.3361
14.3062,4.3766
14.2657,4.4037
14.2179,4.4132
13.8179,4.4132
13.7700,4.4037
13.7295,4.3766
13.7024,4.3361
13.6929,4.2882
Z" /> 
<path style="fill:#4A5F65; fill-opacity:0.9000; 
stroke:#4A5F65; stroke-width:0.0000; stroke-opacity:1; 
stroke-linecap:round; stroke-linejoin:round;fill-rule:evenodd;"
d="M 13.6929,5.3083
13.7024,5.2604
13.7295,5.2199
13.7700,5.1928
13.8179,5.1833
14.2179,5.1833
14.2657,5.1928
14.3062,5.2199
14.3333,5.2604
14.3429,5.3083
14.3429,5.5583
14.3333,5.6061
14.3062,5.6466
14.2657,5.6737
14.2179,5.6833
13.8179,5.6833
13.7700,5.6737
13.7295,5.6466
13.7024,5.6061
13.6929,5.5583
Z" /> 
<path style="fill:#4A5F65; fill-opacity:0.9000; 
stroke:#4A5F65; stroke-width:0.0000; stroke-opacity:1; 
stroke-linecap:round; stroke-linejoin:round;fill-rule:evenodd;"
d="M 13.6929,6.5782
13.7024,6.5304
13.7295,6.4899
13.7700,6.4628
13.8179,6.4532
14.2179,6.4532
14.2657,6.4628
14.3062,6.4899
14.3333,6.5304
14.3429,6.5782
14.3429,6.8282
14.3333,6.8761
14.3062,6.9166
14.2657,6.9437
14.2179,6.9532
13.8179,6.9532
13.7700,6.9437
13.7295,6.9166
13.7024,6.8761
13.6929,6.8282
Z" /> 
<path style="fill:#4A5F65; fill-opacity:0.9000; 
stroke:#4A5F65; stroke-width:0.0000; stroke-opacity:1; 
stroke-linecap:round; stroke-linejoin:round;fill-rule:evenodd;"
d="M 21.1929,6.5782
21.2024,6.5304
21.2295,6.4899
21.2700,6.4628
21.3179,6.4532
21.7179,6.4532
21.7657,6.4628
21.8062,6.4899
21.8333,6.5304
21.8429,6.5782
21.8429,6.8282
21.8333,6.8761
21.8062,6.9166
21.7657,6.9437
21.7179,6.9532
21.3179,6.9532
21.2700,6.9437
21.2295,6.9166
21.2024,6.8761
21.1929,6.8282
Z" /> 
<path style="fill:#4A5F65; fill-opacity:0.9000; 
stroke:#4A5F65; stroke-width:0.0000; stroke-opacity:1; 
stroke-linecap:round; stroke-linejoin:round;fill-rule:evenodd;"
d="M 21.1929,5.3083
21.2024,5.2604
21.2295,5.2199
21.2700,5.1928
21.3179,5.1833
21.7179,5.1833
21.7657,5.1928
21.8062,5.2199
21.8333,5.2604
21.8429,5.3083
21.8429,5.5583
21.8333,5.6061
21.8062,5.6466
21.7657,5.6737
21.7179,5.6833
21.3179,5.6833
21.2700,5.6737
21.2295,5.6466
21.2024,5.6061
21.1929,5.5583
Z" /> 
<path style="fill:#4A5F65; fill-opacity:0.9000; 
stroke:#4A5F65; stroke-width:0.0000; stroke-opacity:1; 
stroke-linecap:round; stroke-linejoin:round;fill-rule:evenodd;"
d="M 21.1929,4.0382
21.2024,3.9904
21.2295,3.9499
21.2700,3.9228
21.3179,3.9132
21.7179,3.9132
21.7657,3.9228
21.8062,3.9499
21.8333,3.9904
21.8429,4.0382
21.8429,4.2882
21.8333,4.3361
21.8062,4.3766
21.7657,4.4037
21.7179,4.4132
21.3179,4.4132
21.2700,4.4037
21.2295,4.3766
21.2024,4.3361
21.1929,4.2882
Z" /> 
<path style="fill:#4A5F65; fill-opacity:0.9000; 
stroke:#4A5F65; stroke-width:0.0000; stroke-opacity:1; 
stroke-linecap:round; stroke-linejoin:round;fill-rule:evenodd;"
d="M 21.1929,2.7682
21.2024,2.7204
21.2295,2.6799
21.2700,2.6528
21.3179,2.6433
21.7179,2.6433
21.7657,2.6528
21.8062,2.6799
21.8333,2.7204
21.8429,2.7682
21.8429,3.0182
21.8333,3.0661
21.8062,3.1066
21.7657,3.1337
21.7179,3.1432
21.3179,3.1432
21.2700,3.1337
21.2295,3.1066
21.2024,3.0661
21.1929,3.0182
Z" /> 
<path style="fill:#4A5F65; fill-opacity:0.9000; 
stroke:#4A5F65; stroke-width:0.0000; stroke-opacity:1; 
stroke-linecap:round; stroke-linejoin:round;fill-rule:evenodd;"
d="M 16.2329,3.1082
16.2519,3.0126
16.3061,2.9315
16.3872,2.8773
16.4829,2.8582
17.3529,2.8582
17.4485,2.8773
17.5296,2.9315
17.5838,3.0126
17.6029,3.1082
17.6029,4.3382
17.5838,4.4339
17.5296,4.5150
17.4485,4.5692
17.3529,4.5882
16.4829,4.5882
16.3872,4.5692
16.3061,4.5150
16.2519,4.4339
16.2329,4.3382
Z" /> 
<path style="fill:#4A5F65; fill-opacity:0.9000; 
stroke:#4A5F65; stroke-width:0.0000; stroke-opacity:1; 
stroke-linecap:round; stroke-linejoin:round;fill-rule:evenodd;"
d="M 16.2329,5.2582
16.2519,5.1626
16.3061,5.0815
16.3872,5.0273
16.4829,5.0082
17.3529,5.0082
17.4485,5.0273
17.5296,5.0815
17.5838,5.1626
17.6029,5.2582
17.6029,6.4882
17.5838,6.5839
17.5296,6.6650
17.4485,6.7192
17.3529,6.7382
16.4829,6.7382
16.3872,6.7192
16.3061,6.6650
16.2519,6.5839
16.2329,6.4882
Z" /> 
<path style="fill:#4A5F65; fill-opacity:0.9000; 
stroke:#4A5F65; stroke-width:0.0000; stroke-opacity:1; 
stroke-linecap:round; stroke-linejoin:round;fill-rule:evenodd;"
d="M 17.9329,3.1082
17.9519,3.0126
18.0061,2.9315
18.0872,2.8773
18.1829,2.8582
19.0529,2.8582
19.1485,2.8773
19.2296,2.9315
19.2838,3.0126
19.3029,3.1082
19.3029,4.3382
19.2838,4.4339
19.2296,4.5150
19.1485,4.5692
19.0529,4.5882
18.1829,4.5882
18.0872,4.5692
18.0061,4.5150
17.9519,4.4339
17.9329,4.3382
Z" /> 
<path style="fill:#4A5F65; fill-opacity:0.9000; 
stroke:#4A5F65; stroke-width:0.0000; stroke-opacity:1; 
stroke-linecap:round; stroke-linejoin:round;fill-rule:evenodd;"
d="M 17.9329,5.2582
17.9519,5.1626
18.0061,5.0815
18.0872,5.0273
18.1829,5.0082
19.0529,5.0082
19.1485,5.0273
19.2296,5.0815
19.2838,5.1626
19.3029,5.2582
19.3029,6.4882
19.2838,6.5839
19.2296,6.6650
19.1485,6.7192
19.0529,6.7382
18.1829,6.7382
18.0872,6.7192
18.0061,6.6650
17.9519,6.5839
17.9329,6.4882
Z" /> 
</g>
<g >
</g>
<g >
</g>
<g >
</g>
</g>
<g style="fill:#FFFFFF; fill-opacity:1.0000; 
stroke:#FFFFFF; stroke-width:0.0000; stroke-opacity:1; 
stroke-linecap:round; stroke-linejoin:round;">
</g>
<g style="fill:#0D115E; fill-opacity:1.0000; 
stroke:#0D115E; stroke-width:0.0000; stroke-opacity:1; 
stroke-linecap:round; stroke-linejoin:round;">
</g>
<g style="fill:#0D115E; fill-opacity:1.0000; 
stroke:#0D115E; stroke-width:0.1500; stroke-opacity:1; 
stroke-linecap:round; stroke-linejoin:round;">
</g>
<g style="fill:#0D115E; fill-opacity:0.0; 
stroke:#0D115E; stroke-width:0.1500; stroke-opacity:1; 
stroke-linecap:round; stroke-linejoin:round;">
<text x="17.7679" y="1.3482"
textLength="4.5357" font-size="1.3333" lengthAdjust="spacingAndGlyphs"
text-anchor="middle" opacity="0">REF**</text>
<g class="stroked-text"><desc>REF**</desc>
<path d="M16.4345 1.3031
L16.1012 0.8269
" />
<path d="M15.8631 1.3031
L15.8631 0.3031
" />
<path d="M15.8631 0.3031
L16.2440 0.3031
" />
<path d="M16.2440 0.3031
L16.3393 0.3507
" />
<path d="M16.3393 0.3507
L16.3869 0.3983
" />
<path d="M16.3869 0.3983
L16.4345 0.4935
" />
<path d="M16.4345 0.4935
L16.4345 0.6364
" />
<path d="M16.4345 0.6364
L16.3869 0.7316
" />
<path d="M16.3869 0.7316
L16.3393 0.7793
" />
<path d="M16.3393 0.7793
L16.2440 0.8269
" />
<path d="M16.2440 0.8269
L15.8631 0.8269
" />
<path d="M16.8631 0.7793
L17.1964 0.7793
" />
<path d="M17.3393 1.3031
L16.8631 1.3031
" />
<path d="M16.8631 1.3031
L16.8631 0.3031
" />
<path d="M16.8631 0.3031
L17.3393 0.3031
" />
<path d="M18.1012 0.7793
L17.7679 0.7793
" />
<path d="M17.7679 1.3031
L17.7679 0.3031
" />
<path d="M17.7679 0.3031
L18.2440 0.3031
" />
<path d="M18.7679 0.3031
L18.7679 0.5412
" />
<path d="M18.5298 0.4459
L18.7679 0.5412
" />
<path d="M18.7679 0.5412
L19.0060 0.4459
" />
<path d="M18.6250 0.7316
L18.7679 0.5412
" />
<path d="M18.7679 0.5412
L18.9107 0.7316
" />
<path d="M19.5298 0.3031
L19.5298 0.5412
" />
<path d="M19.2917 0.4459
L19.5298 0.5412
" />
<path d="M19.5298 0.5412
L19.7679 0.4459
" />
<path d="M19.3869 0.7316
L19.5298 0.5412
" />
<path d="M19.5298 0.5412
L19.6726 0.7316
" />
</g></g>
<g style="fill:#0D115E; fill-opacity:0.0; 
stroke:#0D115E; stroke-width:0.1200; stroke-opacity:1; 
stroke-linecap:round; stroke-linejoin:round;">
<path d="M17.7679 1.6883
L21.7679 1.6883
" />
<path d="M13.7679 7.9082
L21.7679 7.9082
" />
<g >
</g>
<g >
</g>
<g >
</g>
<g >
</g>
</g> 
</svg>
