<?xml version="1.0" standalone="no"?>
 <!DOCTYPE svg PUBLIC "-//W3C//DTD SVG 1.1//EN" 
 "http://www.w3.org/Graphics/SVG/1.1/DTD/svg11.dtd"> 
<svg
  xmlns:svg="http://www.w3.org/2000/svg"
  xmlns="http://www.w3.org/2000/svg"
  xmlns:xlink="http://www.w3.org/1999/xlink"
  version="1.1"
  width="122.9868mm" height="30.4800mm" viewBox="0.0000 0.0000 122.9868 30.4800">
<title>SVG Image created as ist8308.svg date 2024/01/16 15:21:30 </title>
  <desc>Image generated by Eeschema-SVG </desc>
<g style="fill:#000000; fill-opacity:1.0000;stroke:#000000; stroke-opacity:1.0000;
stroke-linecap:round; stroke-linejoin:round;"
 transform="translate(0 0) scale(1 1)">
</g>
<g style="fill:#000000; fill-opacity:0.0; 
stroke:#000000; stroke-width:0.0000; stroke-opacity:1; 
stroke-linecap:round; stroke-linejoin:round;">
</g>
<g style="fill:#000000; fill-opacity:0.0; 
stroke:#000000; stroke-width:0.2540; stroke-opacity:1; 
stroke-linecap:round; stroke-linejoin:round;">
<rect x="53.873400" y="5.080000" width="15.240000" height="20.320000" rx="0.000000" />
</g>
<g style="fill:#000000; fill-opacity:0.0; 
stroke:#000000; stroke-width:0.1524; stroke-opacity:1; 
stroke-linecap:round; stroke-linejoin:round;">
<path d="M53.8734 15.2400
L51.3334 15.2400
" />
<text x="54.3814" y="15.8750"
textLength="3.7108" font-size="1.6933" lengthAdjust="spacingAndGlyphs"
text-anchor="start" opacity="0">SCL</text>
<g class="stroked-text"><desc>SCL</desc>
<path d="M54.7235 15.7591
L54.9049 15.8195
" />
<path d="M54.9049 15.8195
L55.2073 15.8195
" />
<path d="M55.2073 15.8195
L55.3282 15.7591
" />
<path d="M55.3282 15.7591
L55.3887 15.6986
" />
<path d="M55.3887 15.6986
L55.4492 15.5776
" />
<path d="M55.4492 15.5776
L55.4492 15.4567
" />
<path d="M55.4492 15.4567
L55.3887 15.3357
" />
<path d="M55.3887 15.3357
L55.3282 15.2752
" />
<path d="M55.3282 15.2752
L55.2073 15.2148
" />
<path d="M55.2073 15.2148
L54.9654 15.1543
" />
<path d="M54.9654 15.1543
L54.8444 15.0938
" />
<path d="M54.8444 15.0938
L54.7839 15.0333
" />
<path d="M54.7839 15.0333
L54.7235 14.9124
" />
<path d="M54.7235 14.9124
L54.7235 14.7914
" />
<path d="M54.7235 14.7914
L54.7839 14.6705
" />
<path d="M54.7839 14.6705
L54.8444 14.6100
" />
<path d="M54.8444 14.6100
L54.9654 14.5495
" />
<path d="M54.9654 14.5495
L55.2677 14.5495
" />
<path d="M55.2677 14.5495
L55.4492 14.6100
" />
<path d="M56.7191 15.6986
L56.6587 15.7591
" />
<path d="M56.6587 15.7591
L56.4772 15.8195
" />
<path d="M56.4772 15.8195
L56.3563 15.8195
" />
<path d="M56.3563 15.8195
L56.1749 15.7591
" />
<path d="M56.1749 15.7591
L56.0539 15.6381
" />
<path d="M56.0539 15.6381
L55.9934 15.5171
" />
<path d="M55.9934 15.5171
L55.9330 15.2752
" />
<path d="M55.9330 15.2752
L55.9330 15.0938
" />
<path d="M55.9330 15.0938
L55.9934 14.8519
" />
<path d="M55.9934 14.8519
L56.0539 14.7310
" />
<path d="M56.0539 14.7310
L56.1749 14.6100
" />
<path d="M56.1749 14.6100
L56.3563 14.5495
" />
<path d="M56.3563 14.5495
L56.4772 14.5495
" />
<path d="M56.4772 14.5495
L56.6587 14.6100
" />
<path d="M56.6587 14.6100
L56.7191 14.6705
" />
<path d="M57.8682 15.8195
L57.2634 15.8195
" />
<path d="M57.2634 15.8195
L57.2634 14.5495
" />
</g><text x="52.6034" y="14.9860"
textLength="1.4127" font-size="1.6933" lengthAdjust="spacingAndGlyphs"
text-anchor="middle" opacity="0">1</text>
<g class="stroked-text"><desc>1</desc>
<path d="M52.9663 14.8225
L52.2406 14.8225
" />
<path d="M52.6034 14.8225
L52.6034 13.5525
" />
<path d="M52.6034 13.5525
L52.4825 13.7340
" />
<path d="M52.4825 13.7340
L52.3615 13.8549
" />
<path d="M52.3615 13.8549
L52.2406 13.9154
" />
</g><path d="M69.1134 12.7000
L71.6534 12.7000
" />
<text x="68.6054" y="13.3350"
textLength="2.6827" font-size="1.6933" lengthAdjust="spacingAndGlyphs"
text-anchor="end" opacity="0">C1</text>
<g class="stroked-text"><desc>C1</desc>
<path d="M67.0537 13.1586
L66.9933 13.2191
" />
<path d="M66.9933 13.2191
L66.8118 13.2795
" />
<path d="M66.8118 13.2795
L66.6909 13.2795
" />
<path d="M66.6909 13.2795
L66.5095 13.2191
" />
<path d="M66.5095 13.2191
L66.3885 13.0981
" />
<path d="M66.3885 13.0981
L66.3280 12.9771
" />
<path d="M66.3280 12.9771
L66.2676 12.7352
" />
<path d="M66.2676 12.7352
L66.2676 12.5538
" />
<path d="M66.2676 12.5538
L66.3280 12.3119
" />
<path d="M66.3280 12.3119
L66.3885 12.1910
" />
<path d="M66.3885 12.1910
L66.5095 12.0700
" />
<path d="M66.5095 12.0700
L66.6909 12.0095
" />
<path d="M66.6909 12.0095
L66.8118 12.0095
" />
<path d="M66.8118 12.0095
L66.9933 12.0700
" />
<path d="M66.9933 12.0700
L67.0537 12.1305
" />
<path d="M68.2633 13.2795
L67.5376 13.2795
" />
<path d="M67.9004 13.2795
L67.9004 12.0095
" />
<path d="M67.9004 12.0095
L67.7795 12.1910
" />
<path d="M67.7795 12.1910
L67.6585 12.3119
" />
<path d="M67.6585 12.3119
L67.5376 12.3724
" />
</g><text x="70.3834" y="12.4460"
textLength="2.6222" font-size="1.6933" lengthAdjust="spacingAndGlyphs"
text-anchor="middle" opacity="0">10</text>
<g class="stroked-text"><desc>10</desc>
<path d="M70.1415 12.2825
L69.4158 12.2825
" />
<path d="M69.7786 12.2825
L69.7786 11.0125
" />
<path d="M69.7786 11.0125
L69.6577 11.1940
" />
<path d="M69.6577 11.1940
L69.5367 11.3149
" />
<path d="M69.5367 11.3149
L69.4158 11.3754
" />
<path d="M70.9276 11.0125
L71.0486 11.0125
" />
<path d="M71.0486 11.0125
L71.1695 11.0730
" />
<path d="M71.1695 11.0730
L71.2300 11.1335
" />
<path d="M71.2300 11.1335
L71.2905 11.2544
" />
<path d="M71.2905 11.2544
L71.3510 11.4963
" />
<path d="M71.3510 11.4963
L71.3510 11.7987
" />
<path d="M71.3510 11.7987
L71.2905 12.0406
" />
<path d="M71.2905 12.0406
L71.2300 12.1616
" />
<path d="M71.2300 12.1616
L71.1695 12.2221
" />
<path d="M71.1695 12.2221
L71.0486 12.2825
" />
<path d="M71.0486 12.2825
L70.9276 12.2825
" />
<path d="M70.9276 12.2825
L70.8067 12.2221
" />
<path d="M70.8067 12.2221
L70.7462 12.1616
" />
<path d="M70.7462 12.1616
L70.6857 12.0406
" />
<path d="M70.6857 12.0406
L70.6253 11.7987
" />
<path d="M70.6253 11.7987
L70.6253 11.4963
" />
<path d="M70.6253 11.4963
L70.6857 11.2544
" />
<path d="M70.6857 11.2544
L70.7462 11.1335
" />
<path d="M70.7462 11.1335
L70.8067 11.0730
" />
<path d="M70.8067 11.0730
L70.9276 11.0125
" />
</g><path d="M61.4934 5.0800
L61.4934 2.5400
" />
<g transform="rotate(-90.000000 61.4934 5.5880)">
<text x="61.4934" y="6.2230"
textLength="5.1018" font-size="1.6933" lengthAdjust="spacingAndGlyphs"
text-anchor="end" opacity="0">DVDD</text>
</g>
<g class="stroked-text"><desc>DVDD</desc>
<path d="M62.0729 10.2844
L60.8029 10.2844
" />
<path d="M60.8029 10.2844
L60.8029 9.9820
" />
<path d="M60.8029 9.9820
L60.8634 9.8006
" />
<path d="M60.8634 9.8006
L60.9844 9.6796
" />
<path d="M60.9844 9.6796
L61.1053 9.6191
" />
<path d="M61.1053 9.6191
L61.3472 9.5587
" />
<path d="M61.3472 9.5587
L61.5286 9.5587
" />
<path d="M61.5286 9.5587
L61.7705 9.6191
" />
<path d="M61.7705 9.6191
L61.8915 9.6796
" />
<path d="M61.8915 9.6796
L62.0125 9.8006
" />
<path d="M62.0125 9.8006
L62.0729 9.9820
" />
<path d="M62.0729 9.9820
L62.0729 10.2844
" />
<path d="M60.8029 9.1958
L62.0729 8.7725
" />
<path d="M62.0729 8.7725
L60.8029 8.3491
" />
<path d="M62.0729 7.9258
L60.8029 7.9258
" />
<path d="M60.8029 7.9258
L60.8029 7.6234
" />
<path d="M60.8029 7.6234
L60.8634 7.4420
" />
<path d="M60.8634 7.4420
L60.9844 7.3210
" />
<path d="M60.9844 7.3210
L61.1053 7.2605
" />
<path d="M61.1053 7.2605
L61.3472 7.2001
" />
<path d="M61.3472 7.2001
L61.5286 7.2001
" />
<path d="M61.5286 7.2001
L61.7705 7.2605
" />
<path d="M61.7705 7.2605
L61.8915 7.3210
" />
<path d="M61.8915 7.3210
L62.0125 7.4420
" />
<path d="M62.0125 7.4420
L62.0729 7.6234
" />
<path d="M62.0729 7.6234
L62.0729 7.9258
" />
<path d="M62.0729 6.6558
L60.8029 6.6558
" />
<path d="M60.8029 6.6558
L60.8029 6.3534
" />
<path d="M60.8029 6.3534
L60.8634 6.1720
" />
<path d="M60.8634 6.1720
L60.9844 6.0510
" />
<path d="M60.9844 6.0510
L61.1053 5.9905
" />
<path d="M61.1053 5.9905
L61.3472 5.9301
" />
<path d="M61.3472 5.9301
L61.5286 5.9301
" />
<path d="M61.5286 5.9301
L61.7705 5.9905
" />
<path d="M61.7705 5.9905
L61.8915 6.0510
" />
<path d="M61.8915 6.0510
L62.0125 6.1720
" />
<path d="M62.0125 6.1720
L62.0729 6.3534
" />
<path d="M62.0729 6.3534
L62.0729 6.6558
" />
</g><g transform="rotate(-90.000000 61.2394 3.8100)">
<text x="61.2394" y="3.8100"
textLength="2.6222" font-size="1.6933" lengthAdjust="spacingAndGlyphs"
text-anchor="middle" opacity="0">13</text>
</g>
<g class="stroked-text"><desc>13</desc>
<path d="M61.0759 4.0518
L61.0759 4.7775
" />
<path d="M61.0759 4.4147
L59.8059 4.4147
" />
<path d="M59.8059 4.4147
L59.9874 4.5356
" />
<path d="M59.9874 4.5356
L60.1083 4.6566
" />
<path d="M60.1083 4.6566
L60.1688 4.7775
" />
<path d="M59.8059 3.6285
L59.8059 2.8423
" />
<path d="M59.8059 2.8423
L60.2897 3.2657
" />
<path d="M60.2897 3.2657
L60.2897 3.0842
" />
<path d="M60.2897 3.0842
L60.3502 2.9633
" />
<path d="M60.3502 2.9633
L60.4107 2.9028
" />
<path d="M60.4107 2.9028
L60.5316 2.8423
" />
<path d="M60.5316 2.8423
L60.8340 2.8423
" />
<path d="M60.8340 2.8423
L60.9550 2.9028
" />
<path d="M60.9550 2.9028
L61.0155 2.9633
" />
<path d="M61.0155 2.9633
L61.0759 3.0842
" />
<path d="M61.0759 3.0842
L61.0759 3.4471
" />
<path d="M61.0759 3.4471
L61.0155 3.5680
" />
<path d="M61.0155 3.5680
L60.9550 3.6285
" />
</g><path d="M53.8734 22.8600
L51.3334 22.8600
" />
<text x="54.3814" y="23.4950"
textLength="3.6503" font-size="1.6933" lengthAdjust="spacingAndGlyphs"
text-anchor="start" opacity="0">~{RST}</text>
<g class="stroked-text"><desc>~{RST}</desc>
<path d="M55.5096 23.4395
L55.0863 22.8348
" />
<path d="M54.7839 23.4395
L54.7839 22.1695
" />
<path d="M54.7839 22.1695
L55.2677 22.1695
" />
<path d="M55.2677 22.1695
L55.3887 22.2300
" />
<path d="M55.3887 22.2300
L55.4492 22.2905
" />
<path d="M55.4492 22.2905
L55.5096 22.4114
" />
<path d="M55.5096 22.4114
L55.5096 22.5929
" />
<path d="M55.5096 22.5929
L55.4492 22.7138
" />
<path d="M55.4492 22.7138
L55.3887 22.7743
" />
<path d="M55.3887 22.7743
L55.2677 22.8348
" />
<path d="M55.2677 22.8348
L54.7839 22.8348
" />
<path d="M55.9935 23.3791
L56.1749 23.4395
" />
<path d="M56.1749 23.4395
L56.4773 23.4395
" />
<path d="M56.4773 23.4395
L56.5982 23.3791
" />
<path d="M56.5982 23.3791
L56.6587 23.3186
" />
<path d="M56.6587 23.3186
L56.7192 23.1976
" />
<path d="M56.7192 23.1976
L56.7192 23.0767
" />
<path d="M56.7192 23.0767
L56.6587 22.9557
" />
<path d="M56.6587 22.9557
L56.5982 22.8952
" />
<path d="M56.5982 22.8952
L56.4773 22.8348
" />
<path d="M56.4773 22.8348
L56.2354 22.7743
" />
<path d="M56.2354 22.7743
L56.1144 22.7138
" />
<path d="M56.1144 22.7138
L56.0539 22.6533
" />
<path d="M56.0539 22.6533
L55.9935 22.5324
" />
<path d="M55.9935 22.5324
L55.9935 22.4114
" />
<path d="M55.9935 22.4114
L56.0539 22.2905
" />
<path d="M56.0539 22.2905
L56.1144 22.2300
" />
<path d="M56.1144 22.2300
L56.2354 22.1695
" />
<path d="M56.2354 22.1695
L56.5377 22.1695
" />
<path d="M56.5377 22.1695
L56.7192 22.2300
" />
<path d="M57.0820 22.1695
L57.8077 22.1695
" />
<path d="M57.4449 23.4395
L57.4449 22.1695
" />
<path d="M54.6086 21.8170
L57.8017 21.8170
" />
</g><text x="52.6034" y="22.6060"
textLength="2.6222" font-size="1.6933" lengthAdjust="spacingAndGlyphs"
text-anchor="middle" opacity="0">14</text>
<g class="stroked-text"><desc>14</desc>
<path d="M52.3615 22.4425
L51.6358 22.4425
" />
<path d="M51.9986 22.4425
L51.9986 21.1725
" />
<path d="M51.9986 21.1725
L51.8777 21.3540
" />
<path d="M51.8777 21.3540
L51.7567 21.4749
" />
<path d="M51.7567 21.4749
L51.6358 21.5354
" />
<path d="M53.4500 21.5959
L53.4500 22.4425
" />
<path d="M53.1476 21.1121
L52.8453 22.0192
" />
<path d="M52.8453 22.0192
L53.6314 22.0192
" />
</g><path d="M53.8734 17.7800
L51.3334 17.7800
" />
<text x="54.3814" y="18.4150"
textLength="5.1018" font-size="1.6933" lengthAdjust="spacingAndGlyphs"
text-anchor="start" opacity="0">DRDY</text>
<g class="stroked-text"><desc>DRDY</desc>
<path d="M54.7839 18.3595
L54.7839 17.0895
" />
<path d="M54.7839 17.0895
L55.0863 17.0895
" />
<path d="M55.0863 17.0895
L55.2677 17.1500
" />
<path d="M55.2677 17.1500
L55.3887 17.2710
" />
<path d="M55.3887 17.2710
L55.4492 17.3919
" />
<path d="M55.4492 17.3919
L55.5096 17.6338
" />
<path d="M55.5096 17.6338
L55.5096 17.8152
" />
<path d="M55.5096 17.8152
L55.4492 18.0571
" />
<path d="M55.4492 18.0571
L55.3887 18.1781
" />
<path d="M55.3887 18.1781
L55.2677 18.2991
" />
<path d="M55.2677 18.2991
L55.0863 18.3595
" />
<path d="M55.0863 18.3595
L54.7839 18.3595
" />
<path d="M56.7796 18.3595
L56.3563 17.7548
" />
<path d="M56.0539 18.3595
L56.0539 17.0895
" />
<path d="M56.0539 17.0895
L56.5377 17.0895
" />
<path d="M56.5377 17.0895
L56.6587 17.1500
" />
<path d="M56.6587 17.1500
L56.7192 17.2105
" />
<path d="M56.7192 17.2105
L56.7796 17.3314
" />
<path d="M56.7796 17.3314
L56.7796 17.5129
" />
<path d="M56.7796 17.5129
L56.7192 17.6338
" />
<path d="M56.7192 17.6338
L56.6587 17.6943
" />
<path d="M56.6587 17.6943
L56.5377 17.7548
" />
<path d="M56.5377 17.7548
L56.0539 17.7548
" />
<path d="M57.3239 18.3595
L57.3239 17.0895
" />
<path d="M57.3239 17.0895
L57.6263 17.0895
" />
<path d="M57.6263 17.0895
L57.8077 17.1500
" />
<path d="M57.8077 17.1500
L57.9287 17.2710
" />
<path d="M57.9287 17.2710
L57.9892 17.3919
" />
<path d="M57.9892 17.3919
L58.0496 17.6338
" />
<path d="M58.0496 17.6338
L58.0496 17.8152
" />
<path d="M58.0496 17.8152
L57.9892 18.0571
" />
<path d="M57.9892 18.0571
L57.9287 18.1781
" />
<path d="M57.9287 18.1781
L57.8077 18.2991
" />
<path d="M57.8077 18.2991
L57.6263 18.3595
" />
<path d="M57.6263 18.3595
L57.3239 18.3595
" />
<path d="M58.8358 17.7548
L58.8358 18.3595
" />
<path d="M58.4125 17.0895
L58.8358 17.7548
" />
<path d="M58.8358 17.7548
L59.2592 17.0895
" />
</g><text x="52.6034" y="17.5260"
textLength="2.6222" font-size="1.6933" lengthAdjust="spacingAndGlyphs"
text-anchor="middle" opacity="0">15</text>
<g class="stroked-text"><desc>15</desc>
<path d="M52.3615 17.3625
L51.6358 17.3625
" />
<path d="M51.9986 17.3625
L51.9986 16.0925
" />
<path d="M51.9986 16.0925
L51.8777 16.2740
" />
<path d="M51.8777 16.2740
L51.7567 16.3949
" />
<path d="M51.7567 16.3949
L51.6358 16.4554
" />
<path d="M53.5105 16.0925
L52.9057 16.0925
" />
<path d="M52.9057 16.0925
L52.8453 16.6973
" />
<path d="M52.8453 16.6973
L52.9057 16.6368
" />
<path d="M52.9057 16.6368
L53.0267 16.5763
" />
<path d="M53.0267 16.5763
L53.3291 16.5763
" />
<path d="M53.3291 16.5763
L53.4500 16.6368
" />
<path d="M53.4500 16.6368
L53.5105 16.6973
" />
<path d="M53.5105 16.6973
L53.5710 16.8182
" />
<path d="M53.5710 16.8182
L53.5710 17.1206
" />
<path d="M53.5710 17.1206
L53.5105 17.2416
" />
<path d="M53.5105 17.2416
L53.4500 17.3021
" />
<path d="M53.4500 17.3021
L53.3291 17.3625
" />
<path d="M53.3291 17.3625
L53.0267 17.3625
" />
<path d="M53.0267 17.3625
L52.9057 17.3021
" />
<path d="M52.9057 17.3021
L52.8453 17.2416
" />
</g><path d="M53.8734 12.7000
L51.3334 12.7000
" />
<text x="54.3814" y="13.3350"
textLength="3.7713" font-size="1.6933" lengthAdjust="spacingAndGlyphs"
text-anchor="start" opacity="0">SDA</text>
<g class="stroked-text"><desc>SDA</desc>
<path d="M54.7235 13.2191
L54.9049 13.2795
" />
<path d="M54.9049 13.2795
L55.2073 13.2795
" />
<path d="M55.2073 13.2795
L55.3282 13.2191
" />
<path d="M55.3282 13.2191
L55.3887 13.1586
" />
<path d="M55.3887 13.1586
L55.4492 13.0376
" />
<path d="M55.4492 13.0376
L55.4492 12.9167
" />
<path d="M55.4492 12.9167
L55.3887 12.7957
" />
<path d="M55.3887 12.7957
L55.3282 12.7352
" />
<path d="M55.3282 12.7352
L55.2073 12.6748
" />
<path d="M55.2073 12.6748
L54.9654 12.6143
" />
<path d="M54.9654 12.6143
L54.8444 12.5538
" />
<path d="M54.8444 12.5538
L54.7839 12.4933
" />
<path d="M54.7839 12.4933
L54.7235 12.3724
" />
<path d="M54.7235 12.3724
L54.7235 12.2514
" />
<path d="M54.7235 12.2514
L54.7839 12.1305
" />
<path d="M54.7839 12.1305
L54.8444 12.0700
" />
<path d="M54.8444 12.0700
L54.9654 12.0095
" />
<path d="M54.9654 12.0095
L55.2677 12.0095
" />
<path d="M55.2677 12.0095
L55.4492 12.0700
" />
<path d="M55.9934 13.2795
L55.9934 12.0095
" />
<path d="M55.9934 12.0095
L56.2958 12.0095
" />
<path d="M56.2958 12.0095
L56.4772 12.0700
" />
<path d="M56.4772 12.0700
L56.5982 12.1910
" />
<path d="M56.5982 12.1910
L56.6587 12.3119
" />
<path d="M56.6587 12.3119
L56.7191 12.5538
" />
<path d="M56.7191 12.5538
L56.7191 12.7352
" />
<path d="M56.7191 12.7352
L56.6587 12.9771
" />
<path d="M56.6587 12.9771
L56.5982 13.0981
" />
<path d="M56.5982 13.0981
L56.4772 13.2191
" />
<path d="M56.4772 13.2191
L56.2958 13.2795
" />
<path d="M56.2958 13.2795
L55.9934 13.2795
" />
<path d="M57.2030 12.9167
L57.8077 12.9167
" />
<path d="M57.0820 13.2795
L57.5053 12.0095
" />
<path d="M57.5053 12.0095
L57.9287 13.2795
" />
</g><text x="52.6034" y="12.4460"
textLength="2.6222" font-size="1.6933" lengthAdjust="spacingAndGlyphs"
text-anchor="middle" opacity="0">16</text>
<g class="stroked-text"><desc>16</desc>
<path d="M52.3615 12.2825
L51.6358 12.2825
" />
<path d="M51.9986 12.2825
L51.9986 11.0125
" />
<path d="M51.9986 11.0125
L51.8777 11.1940
" />
<path d="M51.8777 11.1940
L51.7567 11.3149
" />
<path d="M51.7567 11.3149
L51.6358 11.3754
" />
<path d="M53.4500 11.0125
L53.2081 11.0125
" />
<path d="M53.2081 11.0125
L53.0872 11.0730
" />
<path d="M53.0872 11.0730
L53.0267 11.1335
" />
<path d="M53.0267 11.1335
L52.9057 11.3149
" />
<path d="M52.9057 11.3149
L52.8453 11.5568
" />
<path d="M52.8453 11.5568
L52.8453 12.0406
" />
<path d="M52.8453 12.0406
L52.9057 12.1616
" />
<path d="M52.9057 12.1616
L52.9662 12.2221
" />
<path d="M52.9662 12.2221
L53.0872 12.2825
" />
<path d="M53.0872 12.2825
L53.3291 12.2825
" />
<path d="M53.3291 12.2825
L53.4500 12.2221
" />
<path d="M53.4500 12.2221
L53.5105 12.1616
" />
<path d="M53.5105 12.1616
L53.5710 12.0406
" />
<path d="M53.5710 12.0406
L53.5710 11.7382
" />
<path d="M53.5710 11.7382
L53.5105 11.6173
" />
<path d="M53.5105 11.6173
L53.4500 11.5568
" />
<path d="M53.4500 11.5568
L53.3291 11.4963
" />
<path d="M53.3291 11.4963
L53.0872 11.4963
" />
<path d="M53.0872 11.4963
L52.9662 11.5568
" />
<path d="M52.9662 11.5568
L52.9057 11.6173
" />
<path d="M52.9057 11.6173
L52.8453 11.7382
" />
</g><path d="M58.9534 5.0800
L58.9534 2.5400
" />
<g transform="rotate(-90.000000 58.9534 5.5880)">
<text x="58.9534" y="6.2230"
textLength="4.9204" font-size="1.6933" lengthAdjust="spacingAndGlyphs"
text-anchor="end" opacity="0">AVDD</text>
</g>
<g class="stroked-text"><desc>AVDD</desc>
<path d="M59.1701 10.1634
L59.1701 9.5587
" />
<path d="M59.5329 10.2844
L58.2629 9.8611
" />
<path d="M58.2629 9.8611
L59.5329 9.4377
" />
<path d="M58.2629 9.1958
L59.5329 8.7725
" />
<path d="M59.5329 8.7725
L58.2629 8.3491
" />
<path d="M59.5329 7.9258
L58.2629 7.9258
" />
<path d="M58.2629 7.9258
L58.2629 7.6234
" />
<path d="M58.2629 7.6234
L58.3234 7.4420
" />
<path d="M58.3234 7.4420
L58.4444 7.3210
" />
<path d="M58.4444 7.3210
L58.5653 7.2605
" />
<path d="M58.5653 7.2605
L58.8072 7.2001
" />
<path d="M58.8072 7.2001
L58.9886 7.2001
" />
<path d="M58.9886 7.2001
L59.2305 7.2605
" />
<path d="M59.2305 7.2605
L59.3515 7.3210
" />
<path d="M59.3515 7.3210
L59.4725 7.4420
" />
<path d="M59.4725 7.4420
L59.5329 7.6234
" />
<path d="M59.5329 7.6234
L59.5329 7.9258
" />
<path d="M59.5329 6.6558
L58.2629 6.6558
" />
<path d="M58.2629 6.6558
L58.2629 6.3534
" />
<path d="M58.2629 6.3534
L58.3234 6.1720
" />
<path d="M58.3234 6.1720
L58.4444 6.0510
" />
<path d="M58.4444 6.0510
L58.5653 5.9905
" />
<path d="M58.5653 5.9905
L58.8072 5.9301
" />
<path d="M58.8072 5.9301
L58.9886 5.9301
" />
<path d="M58.9886 5.9301
L59.2305 5.9905
" />
<path d="M59.2305 5.9905
L59.3515 6.0510
" />
<path d="M59.3515 6.0510
L59.4725 6.1720
" />
<path d="M59.4725 6.1720
L59.5329 6.3534
" />
<path d="M59.5329 6.3534
L59.5329 6.6558
" />
</g><g transform="rotate(-90.000000 58.6994 3.8100)">
<text x="58.6994" y="3.8100"
textLength="1.4127" font-size="1.6933" lengthAdjust="spacingAndGlyphs"
text-anchor="middle" opacity="0">2</text>
</g>
<g class="stroked-text"><desc>2</desc>
<path d="M57.3869 4.1727
L57.3264 4.1123
" />
<path d="M57.3264 4.1123
L57.2659 3.9913
" />
<path d="M57.2659 3.9913
L57.2659 3.6889
" />
<path d="M57.2659 3.6889
L57.3264 3.5680
" />
<path d="M57.3264 3.5680
L57.3869 3.5075
" />
<path d="M57.3869 3.5075
L57.5078 3.4470
" />
<path d="M57.5078 3.4470
L57.6288 3.4470
" />
<path d="M57.6288 3.4470
L57.8102 3.5075
" />
<path d="M57.8102 3.5075
L58.5359 4.2332
" />
<path d="M58.5359 4.2332
L58.5359 3.4470
" />
</g><path d="M69.1134 20.3200
L71.6534 20.3200
" />
<text x="68.6054" y="20.9550"
textLength="5.0413" font-size="1.6933" lengthAdjust="spacingAndGlyphs"
text-anchor="end" opacity="0">CAD0</text>
<g class="stroked-text"><desc>CAD0</desc>
<path d="M64.6951 20.7786
L64.6347 20.8391
" />
<path d="M64.6347 20.8391
L64.4532 20.8995
" />
<path d="M64.4532 20.8995
L64.3323 20.8995
" />
<path d="M64.3323 20.8995
L64.1509 20.8391
" />
<path d="M64.1509 20.8391
L64.0299 20.7181
" />
<path d="M64.0299 20.7181
L63.9694 20.5971
" />
<path d="M63.9694 20.5971
L63.9090 20.3552
" />
<path d="M63.9090 20.3552
L63.9090 20.1738
" />
<path d="M63.9090 20.1738
L63.9694 19.9319
" />
<path d="M63.9694 19.9319
L64.0299 19.8110
" />
<path d="M64.0299 19.8110
L64.1509 19.6900
" />
<path d="M64.1509 19.6900
L64.3323 19.6295
" />
<path d="M64.3323 19.6295
L64.4532 19.6295
" />
<path d="M64.4532 19.6295
L64.6347 19.6900
" />
<path d="M64.6347 19.6900
L64.6951 19.7505
" />
<path d="M65.1790 20.5367
L65.7837 20.5367
" />
<path d="M65.0580 20.8995
L65.4813 19.6295
" />
<path d="M65.4813 19.6295
L65.9047 20.8995
" />
<path d="M66.3280 20.8995
L66.3280 19.6295
" />
<path d="M66.3280 19.6295
L66.6304 19.6295
" />
<path d="M66.6304 19.6295
L66.8118 19.6900
" />
<path d="M66.8118 19.6900
L66.9328 19.8110
" />
<path d="M66.9328 19.8110
L66.9933 19.9319
" />
<path d="M66.9933 19.9319
L67.0537 20.1738
" />
<path d="M67.0537 20.1738
L67.0537 20.3552
" />
<path d="M67.0537 20.3552
L66.9933 20.5971
" />
<path d="M66.9933 20.5971
L66.9328 20.7181
" />
<path d="M66.9328 20.7181
L66.8118 20.8391
" />
<path d="M66.8118 20.8391
L66.6304 20.8995
" />
<path d="M66.6304 20.8995
L66.3280 20.8995
" />
<path d="M67.8399 19.6295
L67.9609 19.6295
" />
<path d="M67.9609 19.6295
L68.0818 19.6900
" />
<path d="M68.0818 19.6900
L68.1423 19.7505
" />
<path d="M68.1423 19.7505
L68.2028 19.8714
" />
<path d="M68.2028 19.8714
L68.2633 20.1133
" />
<path d="M68.2633 20.1133
L68.2633 20.4157
" />
<path d="M68.2633 20.4157
L68.2028 20.6576
" />
<path d="M68.2028 20.6576
L68.1423 20.7786
" />
<path d="M68.1423 20.7786
L68.0818 20.8391
" />
<path d="M68.0818 20.8391
L67.9609 20.8995
" />
<path d="M67.9609 20.8995
L67.8399 20.8995
" />
<path d="M67.8399 20.8995
L67.7190 20.8391
" />
<path d="M67.7190 20.8391
L67.6585 20.7786
" />
<path d="M67.6585 20.7786
L67.5980 20.6576
" />
<path d="M67.5980 20.6576
L67.5376 20.4157
" />
<path d="M67.5376 20.4157
L67.5376 20.1133
" />
<path d="M67.5376 20.1133
L67.5980 19.8714
" />
<path d="M67.5980 19.8714
L67.6585 19.7505
" />
<path d="M67.6585 19.7505
L67.7190 19.6900
" />
<path d="M67.7190 19.6900
L67.8399 19.6295
" />
</g><text x="70.3834" y="20.0660"
textLength="1.4127" font-size="1.6933" lengthAdjust="spacingAndGlyphs"
text-anchor="middle" opacity="0">5</text>
<g class="stroked-text"><desc>5</desc>
<path d="M70.6858 18.6325
L70.0810 18.6325
" />
<path d="M70.0810 18.6325
L70.0206 19.2373
" />
<path d="M70.0206 19.2373
L70.0810 19.1768
" />
<path d="M70.0810 19.1768
L70.2020 19.1163
" />
<path d="M70.2020 19.1163
L70.5044 19.1163
" />
<path d="M70.5044 19.1163
L70.6253 19.1768
" />
<path d="M70.6253 19.1768
L70.6858 19.2373
" />
<path d="M70.6858 19.2373
L70.7463 19.3582
" />
<path d="M70.7463 19.3582
L70.7463 19.6606
" />
<path d="M70.7463 19.6606
L70.6858 19.7816
" />
<path d="M70.6858 19.7816
L70.6253 19.8421
" />
<path d="M70.6253 19.8421
L70.5044 19.9025
" />
<path d="M70.5044 19.9025
L70.2020 19.9025
" />
<path d="M70.2020 19.9025
L70.0810 19.8421
" />
<path d="M70.0810 19.8421
L70.0206 19.7816
" />
</g><path d="M69.1134 22.8600
L71.6534 22.8600
" />
<text x="68.6054" y="23.4950"
textLength="5.0413" font-size="1.6933" lengthAdjust="spacingAndGlyphs"
text-anchor="end" opacity="0">CAD1</text>
<g class="stroked-text"><desc>CAD1</desc>
<path d="M64.6951 23.3186
L64.6347 23.3791
" />
<path d="M64.6347 23.3791
L64.4532 23.4395
" />
<path d="M64.4532 23.4395
L64.3323 23.4395
" />
<path d="M64.3323 23.4395
L64.1509 23.3791
" />
<path d="M64.1509 23.3791
L64.0299 23.2581
" />
<path d="M64.0299 23.2581
L63.9694 23.1371
" />
<path d="M63.9694 23.1371
L63.9090 22.8952
" />
<path d="M63.9090 22.8952
L63.9090 22.7138
" />
<path d="M63.9090 22.7138
L63.9694 22.4719
" />
<path d="M63.9694 22.4719
L64.0299 22.3510
" />
<path d="M64.0299 22.3510
L64.1509 22.2300
" />
<path d="M64.1509 22.2300
L64.3323 22.1695
" />
<path d="M64.3323 22.1695
L64.4532 22.1695
" />
<path d="M64.4532 22.1695
L64.6347 22.2300
" />
<path d="M64.6347 22.2300
L64.6951 22.2905
" />
<path d="M65.1790 23.0767
L65.7837 23.0767
" />
<path d="M65.0580 23.4395
L65.4813 22.1695
" />
<path d="M65.4813 22.1695
L65.9047 23.4395
" />
<path d="M66.3280 23.4395
L66.3280 22.1695
" />
<path d="M66.3280 22.1695
L66.6304 22.1695
" />
<path d="M66.6304 22.1695
L66.8118 22.2300
" />
<path d="M66.8118 22.2300
L66.9328 22.3510
" />
<path d="M66.9328 22.3510
L66.9933 22.4719
" />
<path d="M66.9933 22.4719
L67.0537 22.7138
" />
<path d="M67.0537 22.7138
L67.0537 22.8952
" />
<path d="M67.0537 22.8952
L66.9933 23.1371
" />
<path d="M66.9933 23.1371
L66.9328 23.2581
" />
<path d="M66.9328 23.2581
L66.8118 23.3791
" />
<path d="M66.8118 23.3791
L66.6304 23.4395
" />
<path d="M66.6304 23.4395
L66.3280 23.4395
" />
<path d="M68.2633 23.4395
L67.5376 23.4395
" />
<path d="M67.9004 23.4395
L67.9004 22.1695
" />
<path d="M67.9004 22.1695
L67.7795 22.3510
" />
<path d="M67.7795 22.3510
L67.6585 22.4719
" />
<path d="M67.6585 22.4719
L67.5376 22.5324
" />
</g><text x="70.3834" y="22.6060"
textLength="1.4127" font-size="1.6933" lengthAdjust="spacingAndGlyphs"
text-anchor="middle" opacity="0">6</text>
<g class="stroked-text"><desc>6</desc>
<path d="M70.6253 21.1725
L70.3834 21.1725
" />
<path d="M70.3834 21.1725
L70.2625 21.2330
" />
<path d="M70.2625 21.2330
L70.2020 21.2935
" />
<path d="M70.2020 21.2935
L70.0810 21.4749
" />
<path d="M70.0810 21.4749
L70.0206 21.7168
" />
<path d="M70.0206 21.7168
L70.0206 22.2006
" />
<path d="M70.0206 22.2006
L70.0810 22.3216
" />
<path d="M70.0810 22.3216
L70.1415 22.3821
" />
<path d="M70.1415 22.3821
L70.2625 22.4425
" />
<path d="M70.2625 22.4425
L70.5044 22.4425
" />
<path d="M70.5044 22.4425
L70.6253 22.3821
" />
<path d="M70.6253 22.3821
L70.6858 22.3216
" />
<path d="M70.6858 22.3216
L70.7463 22.2006
" />
<path d="M70.7463 22.2006
L70.7463 21.8982
" />
<path d="M70.7463 21.8982
L70.6858 21.7773
" />
<path d="M70.6858 21.7773
L70.6253 21.7168
" />
<path d="M70.6253 21.7168
L70.5044 21.6563
" />
<path d="M70.5044 21.6563
L70.2625 21.6563
" />
<path d="M70.2625 21.6563
L70.1415 21.7168
" />
<path d="M70.1415 21.7168
L70.0810 21.7773
" />
<path d="M70.0810 21.7773
L70.0206 21.8982
" />
</g><path d="M64.0334 5.0800
L64.0334 2.5400
" />
<g transform="rotate(-90.000000 64.0334 5.5880)">
<text x="64.0334" y="6.2230"
textLength="3.8318" font-size="1.6933" lengthAdjust="spacingAndGlyphs"
text-anchor="end" opacity="0">VPP</text>
</g>
<g class="stroked-text"><desc>VPP</desc>
<path d="M63.3429 9.1958
L64.6129 8.7725
" />
<path d="M64.6129 8.7725
L63.3429 8.3491
" />
<path d="M64.6129 7.9258
L63.3429 7.9258
" />
<path d="M63.3429 7.9258
L63.3429 7.4420
" />
<path d="M63.3429 7.4420
L63.4034 7.3210
" />
<path d="M63.4034 7.3210
L63.4639 7.2605
" />
<path d="M63.4639 7.2605
L63.5848 7.2001
" />
<path d="M63.5848 7.2001
L63.7663 7.2001
" />
<path d="M63.7663 7.2001
L63.8872 7.2605
" />
<path d="M63.8872 7.2605
L63.9477 7.3210
" />
<path d="M63.9477 7.3210
L64.0082 7.4420
" />
<path d="M64.0082 7.4420
L64.0082 7.9258
" />
<path d="M64.6129 6.6558
L63.3429 6.6558
" />
<path d="M63.3429 6.6558
L63.3429 6.1720
" />
<path d="M63.3429 6.1720
L63.4034 6.0510
" />
<path d="M63.4034 6.0510
L63.4639 5.9905
" />
<path d="M63.4639 5.9905
L63.5848 5.9301
" />
<path d="M63.5848 5.9301
L63.7663 5.9301
" />
<path d="M63.7663 5.9301
L63.8872 5.9905
" />
<path d="M63.8872 5.9905
L63.9477 6.0510
" />
<path d="M63.9477 6.0510
L64.0082 6.1720
" />
<path d="M64.0082 6.1720
L64.0082 6.6558
" />
</g><g transform="rotate(-90.000000 63.7794 3.8100)">
<text x="63.7794" y="3.8100"
textLength="1.4127" font-size="1.6933" lengthAdjust="spacingAndGlyphs"
text-anchor="middle" opacity="0">7</text>
</g>
<g class="stroked-text"><desc>7</desc>
<path d="M62.3459 4.2332
L62.3459 3.3866
" />
<path d="M62.3459 3.3866
L63.6159 3.9308
" />
</g><path d="M61.4934 25.4000
L61.4934 27.9400
" />
<g transform="rotate(-90.000000 61.4934 24.8920)">
<text x="61.4934" y="25.5270"
textLength="3.7108" font-size="1.6933" lengthAdjust="spacingAndGlyphs"
text-anchor="start" opacity="0">VSS</text>
</g>
<g class="stroked-text"><desc>VSS</desc>
<path d="M60.8029 24.6708
L62.0729 24.2475
" />
<path d="M62.0729 24.2475
L60.8029 23.8241
" />
<path d="M62.0125 23.4612
L62.0729 23.2798
" />
<path d="M62.0729 23.2798
L62.0729 22.9774
" />
<path d="M62.0729 22.9774
L62.0125 22.8565
" />
<path d="M62.0125 22.8565
L61.9520 22.7960
" />
<path d="M61.9520 22.7960
L61.8310 22.7355
" />
<path d="M61.8310 22.7355
L61.7101 22.7355
" />
<path d="M61.7101 22.7355
L61.5891 22.7960
" />
<path d="M61.5891 22.7960
L61.5286 22.8565
" />
<path d="M61.5286 22.8565
L61.4682 22.9774
" />
<path d="M61.4682 22.9774
L61.4077 23.2193
" />
<path d="M61.4077 23.2193
L61.3472 23.3403
" />
<path d="M61.3472 23.3403
L61.2867 23.4008
" />
<path d="M61.2867 23.4008
L61.1658 23.4612
" />
<path d="M61.1658 23.4612
L61.0448 23.4612
" />
<path d="M61.0448 23.4612
L60.9239 23.4008
" />
<path d="M60.9239 23.4008
L60.8634 23.3403
" />
<path d="M60.8634 23.3403
L60.8029 23.2193
" />
<path d="M60.8029 23.2193
L60.8029 22.9170
" />
<path d="M60.8029 22.9170
L60.8634 22.7355
" />
<path d="M62.0125 22.2517
L62.0729 22.0703
" />
<path d="M62.0729 22.0703
L62.0729 21.7679
" />
<path d="M62.0729 21.7679
L62.0125 21.6470
" />
<path d="M62.0125 21.6470
L61.9520 21.5865
" />
<path d="M61.9520 21.5865
L61.8310 21.5260
" />
<path d="M61.8310 21.5260
L61.7101 21.5260
" />
<path d="M61.7101 21.5260
L61.5891 21.5865
" />
<path d="M61.5891 21.5865
L61.5286 21.6470
" />
<path d="M61.5286 21.6470
L61.4682 21.7679
" />
<path d="M61.4682 21.7679
L61.4077 22.0098
" />
<path d="M61.4077 22.0098
L61.3472 22.1308
" />
<path d="M61.3472 22.1308
L61.2867 22.1913
" />
<path d="M61.2867 22.1913
L61.1658 22.2517
" />
<path d="M61.1658 22.2517
L61.0448 22.2517
" />
<path d="M61.0448 22.2517
L60.9239 22.1913
" />
<path d="M60.9239 22.1913
L60.8634 22.1308
" />
<path d="M60.8634 22.1308
L60.8029 22.0098
" />
<path d="M60.8029 22.0098
L60.8029 21.7075
" />
<path d="M60.8029 21.7075
L60.8634 21.5260
" />
</g><g transform="rotate(-90.000000 61.2394 26.6700)">
<text x="61.2394" y="26.6700"
textLength="1.4127" font-size="1.6933" lengthAdjust="spacingAndGlyphs"
text-anchor="middle" opacity="0">9</text>
</g>
<g class="stroked-text"><desc>9</desc>
<path d="M61.0759 26.9118
L61.0759 26.6699
" />
<path d="M61.0759 26.6699
L61.0155 26.5489
" />
<path d="M61.0155 26.5489
L60.9550 26.4885
" />
<path d="M60.9550 26.4885
L60.7735 26.3675
" />
<path d="M60.7735 26.3675
L60.5316 26.3070
" />
<path d="M60.5316 26.3070
L60.0478 26.3070
" />
<path d="M60.0478 26.3070
L59.9269 26.3675
" />
<path d="M59.9269 26.3675
L59.8664 26.4280
" />
<path d="M59.8664 26.4280
L59.8059 26.5489
" />
<path d="M59.8059 26.5489
L59.8059 26.7908
" />
<path d="M59.8059 26.7908
L59.8664 26.9118
" />
<path d="M59.8664 26.9118
L59.9269 26.9723
" />
<path d="M59.9269 26.9723
L60.0478 27.0327
" />
<path d="M60.0478 27.0327
L60.3502 27.0327
" />
<path d="M60.3502 27.0327
L60.4712 26.9723
" />
<path d="M60.4712 26.9723
L60.5316 26.9118
" />
<path d="M60.5316 26.9118
L60.5921 26.7908
" />
<path d="M60.5921 26.7908
L60.5921 26.5489
" />
<path d="M60.5921 26.5489
L60.5316 26.4280
" />
<path d="M60.5316 26.4280
L60.4712 26.3675
" />
<path d="M60.4712 26.3675
L60.3502 26.3070
" />
</g></g>
<g style="fill:#000000; fill-opacity:0.0; 
stroke:#000000; stroke-width:0.1588; stroke-opacity:1; 
stroke-linecap:round; stroke-linejoin:round;">
<text x="53.8734" y="4.4450"
textLength="2.6415" font-size="1.6933" lengthAdjust="spacingAndGlyphs"
text-anchor="middle" opacity="0">U?</text>
<g class="stroked-text"><desc>U?</desc>
<path d="M52.9662 3.1192
L52.9662 4.1473
" />
<path d="M52.9662 4.1473
L53.0267 4.2683
" />
<path d="M53.0267 4.2683
L53.0872 4.3288
" />
<path d="M53.0872 4.3288
L53.2081 4.3892
" />
<path d="M53.2081 4.3892
L53.4500 4.3892
" />
<path d="M53.4500 4.3892
L53.5710 4.3288
" />
<path d="M53.5710 4.3288
L53.6315 4.2683
" />
<path d="M53.6315 4.2683
L53.6919 4.1473
" />
<path d="M53.6919 4.1473
L53.6919 3.1192
" />
<path d="M54.4782 4.2683
L54.5386 4.3288
" />
<path d="M54.5386 4.3288
L54.4782 4.3892
" />
<path d="M54.4782 4.3892
L54.4177 4.3288
" />
<path d="M54.4177 4.3288
L54.4782 4.2683
" />
<path d="M54.4782 4.2683
L54.4782 4.3892
" />
<path d="M54.2363 3.1797
L54.3572 3.1192
" />
<path d="M54.3572 3.1192
L54.6596 3.1192
" />
<path d="M54.6596 3.1192
L54.7805 3.1797
" />
<path d="M54.7805 3.1797
L54.8410 3.3007
" />
<path d="M54.8410 3.3007
L54.8410 3.4216
" />
<path d="M54.8410 3.4216
L54.7805 3.5426
" />
<path d="M54.7805 3.5426
L54.7201 3.6030
" />
<path d="M54.7201 3.6030
L54.5991 3.6635
" />
<path d="M54.5991 3.6635
L54.5386 3.7240
" />
<path d="M54.5386 3.7240
L54.4782 3.8449
" />
<path d="M54.4782 3.8449
L54.4782 3.9054
" />
</g><text x="71.6534" y="4.4450"
textLength="7.8423" font-size="1.6933" lengthAdjust="spacingAndGlyphs"
text-anchor="middle" opacity="0">IST8308</text>
<g class="stroked-text"><desc>IST8308</desc>
<path d="M68.1458 4.3892
L68.1458 3.1192
" />
<path d="M68.6902 4.3288
L68.8716 4.3892
" />
<path d="M68.8716 4.3892
L69.1740 4.3892
" />
<path d="M69.1740 4.3892
L69.2949 4.3288
" />
<path d="M69.2949 4.3288
L69.3554 4.2683
" />
<path d="M69.3554 4.2683
L69.4159 4.1473
" />
<path d="M69.4159 4.1473
L69.4159 4.0264
" />
<path d="M69.4159 4.0264
L69.3554 3.9054
" />
<path d="M69.3554 3.9054
L69.2949 3.8449
" />
<path d="M69.2949 3.8449
L69.1740 3.7845
" />
<path d="M69.1740 3.7845
L68.9321 3.7240
" />
<path d="M68.9321 3.7240
L68.8111 3.6635
" />
<path d="M68.8111 3.6635
L68.7506 3.6030
" />
<path d="M68.7506 3.6030
L68.6902 3.4821
" />
<path d="M68.6902 3.4821
L68.6902 3.3611
" />
<path d="M68.6902 3.3611
L68.7506 3.2402
" />
<path d="M68.7506 3.2402
L68.8111 3.1797
" />
<path d="M68.8111 3.1797
L68.9321 3.1192
" />
<path d="M68.9321 3.1192
L69.2344 3.1192
" />
<path d="M69.2344 3.1192
L69.4159 3.1797
" />
<path d="M69.7787 3.1192
L70.5044 3.1192
" />
<path d="M70.1416 4.3892
L70.1416 3.1192
" />
<path d="M71.1092 3.6635
L70.9882 3.6030
" />
<path d="M70.9882 3.6030
L70.9277 3.5426
" />
<path d="M70.9277 3.5426
L70.8673 3.4216
" />
<path d="M70.8673 3.4216
L70.8673 3.3611
" />
<path d="M70.8673 3.3611
L70.9277 3.2402
" />
<path d="M70.9277 3.2402
L70.9882 3.1797
" />
<path d="M70.9882 3.1797
L71.1092 3.1192
" />
<path d="M71.1092 3.1192
L71.3511 3.1192
" />
<path d="M71.3511 3.1192
L71.4720 3.1797
" />
<path d="M71.4720 3.1797
L71.5325 3.2402
" />
<path d="M71.5325 3.2402
L71.5930 3.3611
" />
<path d="M71.5930 3.3611
L71.5930 3.4216
" />
<path d="M71.5930 3.4216
L71.5325 3.5426
" />
<path d="M71.5325 3.5426
L71.4720 3.6030
" />
<path d="M71.4720 3.6030
L71.3511 3.6635
" />
<path d="M71.3511 3.6635
L71.1092 3.6635
" />
<path d="M71.1092 3.6635
L70.9882 3.7240
" />
<path d="M70.9882 3.7240
L70.9277 3.7845
" />
<path d="M70.9277 3.7845
L70.8673 3.9054
" />
<path d="M70.8673 3.9054
L70.8673 4.1473
" />
<path d="M70.8673 4.1473
L70.9277 4.2683
" />
<path d="M70.9277 4.2683
L70.9882 4.3288
" />
<path d="M70.9882 4.3288
L71.1092 4.3892
" />
<path d="M71.1092 4.3892
L71.3511 4.3892
" />
<path d="M71.3511 4.3892
L71.4720 4.3288
" />
<path d="M71.4720 4.3288
L71.5325 4.2683
" />
<path d="M71.5325 4.2683
L71.5930 4.1473
" />
<path d="M71.5930 4.1473
L71.5930 3.9054
" />
<path d="M71.5930 3.9054
L71.5325 3.7845
" />
<path d="M71.5325 3.7845
L71.4720 3.7240
" />
<path d="M71.4720 3.7240
L71.3511 3.6635
" />
<path d="M72.0163 3.1192
L72.8025 3.1192
" />
<path d="M72.8025 3.1192
L72.3791 3.6030
" />
<path d="M72.3791 3.6030
L72.5606 3.6030
" />
<path d="M72.5606 3.6030
L72.6815 3.6635
" />
<path d="M72.6815 3.6635
L72.7420 3.7240
" />
<path d="M72.7420 3.7240
L72.8025 3.8449
" />
<path d="M72.8025 3.8449
L72.8025 4.1473
" />
<path d="M72.8025 4.1473
L72.7420 4.2683
" />
<path d="M72.7420 4.2683
L72.6815 4.3288
" />
<path d="M72.6815 4.3288
L72.5606 4.3892
" />
<path d="M72.5606 4.3892
L72.1977 4.3892
" />
<path d="M72.1977 4.3892
L72.0768 4.3288
" />
<path d="M72.0768 4.3288
L72.0163 4.2683
" />
<path d="M73.5886 3.1192
L73.7096 3.1192
" />
<path d="M73.7096 3.1192
L73.8305 3.1797
" />
<path d="M73.8305 3.1797
L73.8910 3.2402
" />
<path d="M73.8910 3.2402
L73.9515 3.3611
" />
<path d="M73.9515 3.3611
L74.0120 3.6030
" />
<path d="M74.0120 3.6030
L74.0120 3.9054
" />
<path d="M74.0120 3.9054
L73.9515 4.1473
" />
<path d="M73.9515 4.1473
L73.8910 4.2683
" />
<path d="M73.8910 4.2683
L73.8305 4.3288
" />
<path d="M73.8305 4.3288
L73.7096 4.3892
" />
<path d="M73.7096 4.3892
L73.5886 4.3892
" />
<path d="M73.5886 4.3892
L73.4677 4.3288
" />
<path d="M73.4677 4.3288
L73.4072 4.2683
" />
<path d="M73.4072 4.2683
L73.3467 4.1473
" />
<path d="M73.3467 4.1473
L73.2863 3.9054
" />
<path d="M73.2863 3.9054
L73.2863 3.6030
" />
<path d="M73.2863 3.6030
L73.3467 3.3611
" />
<path d="M73.3467 3.3611
L73.4072 3.2402
" />
<path d="M73.4072 3.2402
L73.4677 3.1797
" />
<path d="M73.4677 3.1797
L73.5886 3.1192
" />
<path d="M74.7377 3.6635
L74.6167 3.6030
" />
<path d="M74.6167 3.6030
L74.5562 3.5426
" />
<path d="M74.5562 3.5426
L74.4958 3.4216
" />
<path d="M74.4958 3.4216
L74.4958 3.3611
" />
<path d="M74.4958 3.3611
L74.5562 3.2402
" />
<path d="M74.5562 3.2402
L74.6167 3.1797
" />
<path d="M74.6167 3.1797
L74.7377 3.1192
" />
<path d="M74.7377 3.1192
L74.9796 3.1192
" />
<path d="M74.9796 3.1192
L75.1005 3.1797
" />
<path d="M75.1005 3.1797
L75.1610 3.2402
" />
<path d="M75.1610 3.2402
L75.2215 3.3611
" />
<path d="M75.2215 3.3611
L75.2215 3.4216
" />
<path d="M75.2215 3.4216
L75.1610 3.5426
" />
<path d="M75.1610 3.5426
L75.1005 3.6030
" />
<path d="M75.1005 3.6030
L74.9796 3.6635
" />
<path d="M74.9796 3.6635
L74.7377 3.6635
" />
<path d="M74.7377 3.6635
L74.6167 3.7240
" />
<path d="M74.6167 3.7240
L74.5562 3.7845
" />
<path d="M74.5562 3.7845
L74.4958 3.9054
" />
<path d="M74.4958 3.9054
L74.4958 4.1473
" />
<path d="M74.4958 4.1473
L74.5562 4.2683
" />
<path d="M74.5562 4.2683
L74.6167 4.3288
" />
<path d="M74.6167 4.3288
L74.7377 4.3892
" />
<path d="M74.7377 4.3892
L74.9796 4.3892
" />
<path d="M74.9796 4.3892
L75.1005 4.3288
" />
<path d="M75.1005 4.3288
L75.1610 4.2683
" />
<path d="M75.1610 4.2683
L75.2215 4.1473
" />
<path d="M75.2215 4.1473
L75.2215 3.9054
" />
<path d="M75.2215 3.9054
L75.1610 3.7845
" />
<path d="M75.1610 3.7845
L75.1005 3.7240
" />
<path d="M75.1005 3.7240
L74.9796 3.6635
" />
</g></g> 
</svg>
