<?xml version="1.0" standalone="no"?>
 <!DOCTYPE svg PUBLIC "-//W3C//DTD SVG 1.1//EN" 
 "http://www.w3.org/Graphics/SVG/1.1/DTD/svg11.dtd"> 
<svg
  xmlns:svg="http://www.w3.org/2000/svg"
  xmlns="http://www.w3.org/2000/svg"
  xmlns:xlink="http://www.w3.org/1999/xlink"
  version="1.1"
  width="154.9908mm" height="12.1920mm" viewBox="0.0000 0.0000 154.9908 12.1920">
<title>SVG Image created as bsc052n08ns5.svg date 2024/01/16 15:21:35 </title>
  <desc>Image generated by Eeschema-SVG </desc>
<g style="fill:#000000; fill-opacity:1.0000;stroke:#000000; stroke-opacity:1.0000;
stroke-linecap:round; stroke-linejoin:round;"
 transform="translate(0 0) scale(1 1)">
</g>
<g style="fill:#000000; fill-opacity:0.0; 
stroke:#000000; stroke-width:0.0000; stroke-opacity:1; 
stroke-linecap:round; stroke-linejoin:round;">
</g>
<g style="fill:#000000; fill-opacity:0.0; 
stroke:#000000; stroke-width:0.1524; stroke-opacity:1; 
stroke-linecap:round; stroke-linejoin:round;">
<path style="fill:#000000; fill-opacity:0.0; 
stroke:#000000; stroke-width:0.1524; stroke-opacity:1; 
stroke-linecap:round; stroke-linejoin:round;fill:none"
d="M 77.7494,6.0960
74.9554,6.0960
" /> 
</g>
<g style="fill:#000000; fill-opacity:0.0; 
stroke:#000000; stroke-width:0.2540; stroke-opacity:1; 
stroke-linecap:round; stroke-linejoin:round;">
<path style="fill:#000000; fill-opacity:0.0; 
stroke:#000000; stroke-width:0.2540; stroke-opacity:1; 
stroke-linecap:round; stroke-linejoin:round;fill:none"
d="M 77.7494,4.1910
77.7494,8.0010
" /> 
<path style="fill:#000000; fill-opacity:0.0; 
stroke:#000000; stroke-width:0.2540; stroke-opacity:1; 
stroke-linecap:round; stroke-linejoin:round;fill:none"
d="M 78.2574,7.3660
78.2574,8.3820
" /> 
<path style="fill:#000000; fill-opacity:0.0; 
stroke:#000000; stroke-width:0.2540; stroke-opacity:1; 
stroke-linecap:round; stroke-linejoin:round;fill:none"
d="M 78.2574,5.5880
78.2574,6.6040
" /> 
<path style="fill:#000000; fill-opacity:0.0; 
stroke:#000000; stroke-width:0.2540; stroke-opacity:1; 
stroke-linecap:round; stroke-linejoin:round;fill:none"
d="M 78.2574,3.8100
78.2574,4.8260
" /> 
</g>
<g style="fill:#000000; fill-opacity:0.0; 
stroke:#000000; stroke-width:0.1524; stroke-opacity:1; 
stroke-linecap:round; stroke-linejoin:round;">
<path style="fill:#000000; fill-opacity:0.0; 
stroke:#000000; stroke-width:0.1524; stroke-opacity:1; 
stroke-linecap:round; stroke-linejoin:round;fill:none"
d="M 80.0354,3.5560
80.0354,4.3180
" /> 
<path style="fill:#000000; fill-opacity:0.0; 
stroke:#000000; stroke-width:0.1524; stroke-opacity:1; 
stroke-linecap:round; stroke-linejoin:round;fill:none"
d="M 80.0354,8.6360
80.0354,6.0960
78.2574,6.0960
" /> 
<path style="fill:#000000; fill-opacity:0.0; 
stroke:#000000; stroke-width:0.1524; stroke-opacity:1; 
stroke-linecap:round; stroke-linejoin:round;fill:none"
d="M 78.2574,7.8740
80.7974,7.8740
80.7974,4.3180
78.2574,4.3180
" /> 
</g>
<g style="fill:#000000; fill-opacity:1.0000; 
stroke:#000000; stroke-width:0.1524; stroke-opacity:1; 
stroke-linecap:round; stroke-linejoin:round;">
<path style="fill:#000000; fill-opacity:1.0000; 
stroke:#000000; stroke-width:0.1524; stroke-opacity:1; 
stroke-linecap:round; stroke-linejoin:round;fill-rule:evenodd;"
d="M 78.5114,6.0960
79.5274,5.7150
79.5274,6.4770
Z" /> 
</g>
<g style="fill:#000000; fill-opacity:0.0; 
stroke:#000000; stroke-width:0.1524; stroke-opacity:1; 
stroke-linecap:round; stroke-linejoin:round;">
<path style="fill:#000000; fill-opacity:0.0; 
stroke:#000000; stroke-width:0.1524; stroke-opacity:1; 
stroke-linecap:round; stroke-linejoin:round;fill:none"
d="M 80.2894,5.5880
80.4164,5.7150
81.1784,5.7150
81.3054,5.8420
" /> 
<path style="fill:#000000; fill-opacity:0.0; 
stroke:#000000; stroke-width:0.1524; stroke-opacity:1; 
stroke-linecap:round; stroke-linejoin:round;fill:none"
d="M 80.7974,5.7150
80.4164,6.3500
81.1784,6.3500
Z" /> 
</g>
<g style="fill:#000000; fill-opacity:0.0; 
stroke:#000000; stroke-width:0.2540; stroke-opacity:1; 
stroke-linecap:round; stroke-linejoin:round;">
<circle cx="79.1464" cy="6.0960" r="2.7940" /> 
</g>
<g style="fill:#000000; fill-opacity:1.0000; 
stroke:#000000; stroke-width:0.1524; stroke-opacity:1; 
stroke-linecap:round; stroke-linejoin:round;">
<circle cx="80.0354" cy="7.8740" r="0.2540" /> 
<circle cx="80.0354" cy="4.3180" r="0.2540" /> 
</g>
<g style="fill:#000000; fill-opacity:0.0; 
stroke:#000000; stroke-width:0.1524; stroke-opacity:1; 
stroke-linecap:round; stroke-linejoin:round;">
<path d="M80.0354 8.6360
L80.0354 11.1760
" />
<g transform="rotate(-90.000000 79.7814 9.9060)">
<text x="79.7814" y="9.9060"
textLength="1.4127" font-size="1.6933" lengthAdjust="spacingAndGlyphs"
text-anchor="middle" opacity="0">1</text>
</g>
<g class="stroked-text"><desc>1</desc>
<path d="M79.6179 9.5430
L79.6179 10.2687
" />
<path d="M79.6179 9.9059
L78.3479 9.9059
" />
<path d="M78.3479 9.9059
L78.5294 10.0268
" />
<path d="M78.5294 10.0268
L78.6503 10.1478
" />
<path d="M78.6503 10.1478
L78.7108 10.2687
" />
</g><path d="M74.9554 6.0960
L72.4154 6.0960
" />
<text x="73.6854" y="5.8420"
textLength="1.4127" font-size="1.6933" lengthAdjust="spacingAndGlyphs"
text-anchor="middle" opacity="0">4</text>
<g class="stroked-text"><desc>4</desc>
<path d="M73.9273 4.8319
L73.9273 5.6785
" />
<path d="M73.6249 4.3481
L73.3226 5.2552
" />
<path d="M73.3226 5.2552
L74.1087 5.2552
" />
</g><path d="M80.0354 3.5560
L80.0354 1.0160
" />
<g transform="rotate(-90.000000 79.7814 2.2860)">
<text x="79.7814" y="2.2860"
textLength="1.4127" font-size="1.6933" lengthAdjust="spacingAndGlyphs"
text-anchor="middle" opacity="0">5</text>
</g>
<g class="stroked-text"><desc>5</desc>
<path d="M78.3479 1.9835
L78.3479 2.5883
" />
<path d="M78.3479 2.5883
L78.9527 2.6487
" />
<path d="M78.9527 2.6487
L78.8922 2.5883
" />
<path d="M78.8922 2.5883
L78.8317 2.4673
" />
<path d="M78.8317 2.4673
L78.8317 2.1649
" />
<path d="M78.8317 2.1649
L78.8922 2.0440
" />
<path d="M78.8922 2.0440
L78.9527 1.9835
" />
<path d="M78.9527 1.9835
L79.0736 1.9230
" />
<path d="M79.0736 1.9230
L79.3760 1.9230
" />
<path d="M79.3760 1.9230
L79.4970 1.9835
" />
<path d="M79.4970 1.9835
L79.5575 2.0440
" />
<path d="M79.5575 2.0440
L79.6179 2.1649
" />
<path d="M79.6179 2.1649
L79.6179 2.4673
" />
<path d="M79.6179 2.4673
L79.5575 2.5883
" />
<path d="M79.5575 2.5883
L79.4970 2.6487
" />
</g></g>
<g style="fill:#000000; fill-opacity:0.0; 
stroke:#000000; stroke-width:0.1588; stroke-opacity:1; 
stroke-linecap:round; stroke-linejoin:round;">
<text x="83.8961" y="4.8260"
textLength="2.6415" font-size="1.6933" lengthAdjust="spacingAndGlyphs"
text-anchor="middle" opacity="0">Q?</text>
<g class="stroked-text"><desc>Q?</desc>
<path d="M83.8356 4.8912
L83.7146 4.8307
" />
<path d="M83.7146 4.8307
L83.5937 4.7098
" />
<path d="M83.5937 4.7098
L83.4123 4.5283
" />
<path d="M83.4123 4.5283
L83.2913 4.4678
" />
<path d="M83.2913 4.4678
L83.1704 4.4678
" />
<path d="M83.2308 4.7702
L83.1099 4.7098
" />
<path d="M83.1099 4.7098
L82.9889 4.5888
" />
<path d="M82.9889 4.5888
L82.9285 4.3469
" />
<path d="M82.9285 4.3469
L82.9285 3.9236
" />
<path d="M82.9285 3.9236
L82.9889 3.6817
" />
<path d="M82.9889 3.6817
L83.1099 3.5607
" />
<path d="M83.1099 3.5607
L83.2308 3.5002
" />
<path d="M83.2308 3.5002
L83.4727 3.5002
" />
<path d="M83.4727 3.5002
L83.5937 3.5607
" />
<path d="M83.5937 3.5607
L83.7146 3.6817
" />
<path d="M83.7146 3.6817
L83.7751 3.9236
" />
<path d="M83.7751 3.9236
L83.7751 4.3469
" />
<path d="M83.7751 4.3469
L83.7146 4.5888
" />
<path d="M83.7146 4.5888
L83.5937 4.7098
" />
<path d="M83.5937 4.7098
L83.4727 4.7702
" />
<path d="M83.4727 4.7702
L83.2308 4.7702
" />
<path d="M84.5009 4.6493
L84.5613 4.7098
" />
<path d="M84.5613 4.7098
L84.5009 4.7702
" />
<path d="M84.5009 4.7702
L84.4404 4.7098
" />
<path d="M84.4404 4.7098
L84.5009 4.6493
" />
<path d="M84.5009 4.6493
L84.5009 4.7702
" />
<path d="M84.2590 3.5607
L84.3799 3.5002
" />
<path d="M84.3799 3.5002
L84.6823 3.5002
" />
<path d="M84.6823 3.5002
L84.8032 3.5607
" />
<path d="M84.8032 3.5607
L84.8637 3.6817
" />
<path d="M84.8637 3.6817
L84.8637 3.8026
" />
<path d="M84.8637 3.8026
L84.8032 3.9236
" />
<path d="M84.8032 3.9236
L84.7428 3.9840
" />
<path d="M84.7428 3.9840
L84.6218 4.0445
" />
<path d="M84.6218 4.0445
L84.5613 4.1050
" />
<path d="M84.5613 4.1050
L84.5009 4.2259
" />
<path d="M84.5009 4.2259
L84.5009 4.2864
" />
</g><text x="90.1251" y="6.7310"
textLength="15.0994" font-size="1.6933" lengthAdjust="spacingAndGlyphs"
text-anchor="middle" opacity="0">BSC052N08NS5</text>
<g class="stroked-text"><desc>BSC052N08NS5</desc>
<path d="M83.4123 6.0100
L83.5937 6.0705
" />
<path d="M83.5937 6.0705
L83.6542 6.1309
" />
<path d="M83.6542 6.1309
L83.7146 6.2519
" />
<path d="M83.7146 6.2519
L83.7146 6.4333
" />
<path d="M83.7146 6.4333
L83.6542 6.5543
" />
<path d="M83.6542 6.5543
L83.5937 6.6148
" />
<path d="M83.5937 6.6148
L83.4727 6.6752
" />
<path d="M83.4727 6.6752
L82.9889 6.6752
" />
<path d="M82.9889 6.6752
L82.9889 5.4052
" />
<path d="M82.9889 5.4052
L83.4123 5.4052
" />
<path d="M83.4123 5.4052
L83.5332 5.4657
" />
<path d="M83.5332 5.4657
L83.5937 5.5262
" />
<path d="M83.5937 5.5262
L83.6542 5.6471
" />
<path d="M83.6542 5.6471
L83.6542 5.7681
" />
<path d="M83.6542 5.7681
L83.5937 5.8890
" />
<path d="M83.5937 5.8890
L83.5332 5.9495
" />
<path d="M83.5332 5.9495
L83.4123 6.0100
" />
<path d="M83.4123 6.0100
L82.9889 6.0100
" />
<path d="M84.1985 6.6148
L84.3799 6.6752
" />
<path d="M84.3799 6.6752
L84.6823 6.6752
" />
<path d="M84.6823 6.6752
L84.8032 6.6148
" />
<path d="M84.8032 6.6148
L84.8637 6.5543
" />
<path d="M84.8637 6.5543
L84.9242 6.4333
" />
<path d="M84.9242 6.4333
L84.9242 6.3124
" />
<path d="M84.9242 6.3124
L84.8637 6.1914
" />
<path d="M84.8637 6.1914
L84.8032 6.1309
" />
<path d="M84.8032 6.1309
L84.6823 6.0705
" />
<path d="M84.6823 6.0705
L84.4404 6.0100
" />
<path d="M84.4404 6.0100
L84.3194 5.9495
" />
<path d="M84.3194 5.9495
L84.2589 5.8890
" />
<path d="M84.2589 5.8890
L84.1985 5.7681
" />
<path d="M84.1985 5.7681
L84.1985 5.6471
" />
<path d="M84.1985 5.6471
L84.2589 5.5262
" />
<path d="M84.2589 5.5262
L84.3194 5.4657
" />
<path d="M84.3194 5.4657
L84.4404 5.4052
" />
<path d="M84.4404 5.4052
L84.7427 5.4052
" />
<path d="M84.7427 5.4052
L84.9242 5.4657
" />
<path d="M86.1941 6.5543
L86.1337 6.6148
" />
<path d="M86.1337 6.6148
L85.9522 6.6752
" />
<path d="M85.9522 6.6752
L85.8313 6.6752
" />
<path d="M85.8313 6.6752
L85.6499 6.6148
" />
<path d="M85.6499 6.6148
L85.5289 6.4938
" />
<path d="M85.5289 6.4938
L85.4684 6.3728
" />
<path d="M85.4684 6.3728
L85.4080 6.1309
" />
<path d="M85.4080 6.1309
L85.4080 5.9495
" />
<path d="M85.4080 5.9495
L85.4684 5.7076
" />
<path d="M85.4684 5.7076
L85.5289 5.5867
" />
<path d="M85.5289 5.5867
L85.6499 5.4657
" />
<path d="M85.6499 5.4657
L85.8313 5.4052
" />
<path d="M85.8313 5.4052
L85.9522 5.4052
" />
<path d="M85.9522 5.4052
L86.1337 5.4657
" />
<path d="M86.1337 5.4657
L86.1941 5.5262
" />
<path d="M86.9803 5.4052
L87.1013 5.4052
" />
<path d="M87.1013 5.4052
L87.2222 5.4657
" />
<path d="M87.2222 5.4657
L87.2827 5.5262
" />
<path d="M87.2827 5.5262
L87.3432 5.6471
" />
<path d="M87.3432 5.6471
L87.4037 5.8890
" />
<path d="M87.4037 5.8890
L87.4037 6.1914
" />
<path d="M87.4037 6.1914
L87.3432 6.4333
" />
<path d="M87.3432 6.4333
L87.2827 6.5543
" />
<path d="M87.2827 6.5543
L87.2222 6.6148
" />
<path d="M87.2222 6.6148
L87.1013 6.6752
" />
<path d="M87.1013 6.6752
L86.9803 6.6752
" />
<path d="M86.9803 6.6752
L86.8594 6.6148
" />
<path d="M86.8594 6.6148
L86.7989 6.5543
" />
<path d="M86.7989 6.5543
L86.7384 6.4333
" />
<path d="M86.7384 6.4333
L86.6780 6.1914
" />
<path d="M86.6780 6.1914
L86.6780 5.8890
" />
<path d="M86.6780 5.8890
L86.7384 5.6471
" />
<path d="M86.7384 5.6471
L86.7989 5.5262
" />
<path d="M86.7989 5.5262
L86.8594 5.4657
" />
<path d="M86.8594 5.4657
L86.9803 5.4052
" />
<path d="M88.5527 5.4052
L87.9479 5.4052
" />
<path d="M87.9479 5.4052
L87.8875 6.0100
" />
<path d="M87.8875 6.0100
L87.9479 5.9495
" />
<path d="M87.9479 5.9495
L88.0689 5.8890
" />
<path d="M88.0689 5.8890
L88.3713 5.8890
" />
<path d="M88.3713 5.8890
L88.4922 5.9495
" />
<path d="M88.4922 5.9495
L88.5527 6.0100
" />
<path d="M88.5527 6.0100
L88.6132 6.1309
" />
<path d="M88.6132 6.1309
L88.6132 6.4333
" />
<path d="M88.6132 6.4333
L88.5527 6.5543
" />
<path d="M88.5527 6.5543
L88.4922 6.6148
" />
<path d="M88.4922 6.6148
L88.3713 6.6752
" />
<path d="M88.3713 6.6752
L88.0689 6.6752
" />
<path d="M88.0689 6.6752
L87.9479 6.6148
" />
<path d="M87.9479 6.6148
L87.8875 6.5543
" />
<path d="M89.0970 5.5262
L89.1574 5.4657
" />
<path d="M89.1574 5.4657
L89.2784 5.4052
" />
<path d="M89.2784 5.4052
L89.5808 5.4052
" />
<path d="M89.5808 5.4052
L89.7017 5.4657
" />
<path d="M89.7017 5.4657
L89.7622 5.5262
" />
<path d="M89.7622 5.5262
L89.8227 5.6471
" />
<path d="M89.8227 5.6471
L89.8227 5.7681
" />
<path d="M89.8227 5.7681
L89.7622 5.9495
" />
<path d="M89.7622 5.9495
L89.0365 6.6752
" />
<path d="M89.0365 6.6752
L89.8227 6.6752
" />
<path d="M90.3669 6.6752
L90.3669 5.4052
" />
<path d="M90.3669 5.4052
L91.0926 6.6752
" />
<path d="M91.0926 6.6752
L91.0926 5.4052
" />
<path d="M91.9393 5.4052
L92.0603 5.4052
" />
<path d="M92.0603 5.4052
L92.1812 5.4657
" />
<path d="M92.1812 5.4657
L92.2417 5.5262
" />
<path d="M92.2417 5.5262
L92.3022 5.6471
" />
<path d="M92.3022 5.6471
L92.3627 5.8890
" />
<path d="M92.3627 5.8890
L92.3627 6.1914
" />
<path d="M92.3627 6.1914
L92.3022 6.4333
" />
<path d="M92.3022 6.4333
L92.2417 6.5543
" />
<path d="M92.2417 6.5543
L92.1812 6.6148
" />
<path d="M92.1812 6.6148
L92.0603 6.6752
" />
<path d="M92.0603 6.6752
L91.9393 6.6752
" />
<path d="M91.9393 6.6752
L91.8184 6.6148
" />
<path d="M91.8184 6.6148
L91.7579 6.5543
" />
<path d="M91.7579 6.5543
L91.6974 6.4333
" />
<path d="M91.6974 6.4333
L91.6370 6.1914
" />
<path d="M91.6370 6.1914
L91.6370 5.8890
" />
<path d="M91.6370 5.8890
L91.6974 5.6471
" />
<path d="M91.6974 5.6471
L91.7579 5.5262
" />
<path d="M91.7579 5.5262
L91.8184 5.4657
" />
<path d="M91.8184 5.4657
L91.9393 5.4052
" />
<path d="M93.0884 5.9495
L92.9674 5.8890
" />
<path d="M92.9674 5.8890
L92.9069 5.8286
" />
<path d="M92.9069 5.8286
L92.8465 5.7076
" />
<path d="M92.8465 5.7076
L92.8465 5.6471
" />
<path d="M92.8465 5.6471
L92.9069 5.5262
" />
<path d="M92.9069 5.5262
L92.9674 5.4657
" />
<path d="M92.9674 5.4657
L93.0884 5.4052
" />
<path d="M93.0884 5.4052
L93.3303 5.4052
" />
<path d="M93.3303 5.4052
L93.4512 5.4657
" />
<path d="M93.4512 5.4657
L93.5117 5.5262
" />
<path d="M93.5117 5.5262
L93.5722 5.6471
" />
<path d="M93.5722 5.6471
L93.5722 5.7076
" />
<path d="M93.5722 5.7076
L93.5117 5.8286
" />
<path d="M93.5117 5.8286
L93.4512 5.8890
" />
<path d="M93.4512 5.8890
L93.3303 5.9495
" />
<path d="M93.3303 5.9495
L93.0884 5.9495
" />
<path d="M93.0884 5.9495
L92.9674 6.0100
" />
<path d="M92.9674 6.0100
L92.9069 6.0705
" />
<path d="M92.9069 6.0705
L92.8465 6.1914
" />
<path d="M92.8465 6.1914
L92.8465 6.4333
" />
<path d="M92.8465 6.4333
L92.9069 6.5543
" />
<path d="M92.9069 6.5543
L92.9674 6.6148
" />
<path d="M92.9674 6.6148
L93.0884 6.6752
" />
<path d="M93.0884 6.6752
L93.3303 6.6752
" />
<path d="M93.3303 6.6752
L93.4512 6.6148
" />
<path d="M93.4512 6.6148
L93.5117 6.5543
" />
<path d="M93.5117 6.5543
L93.5722 6.4333
" />
<path d="M93.5722 6.4333
L93.5722 6.1914
" />
<path d="M93.5722 6.1914
L93.5117 6.0705
" />
<path d="M93.5117 6.0705
L93.4512 6.0100
" />
<path d="M93.4512 6.0100
L93.3303 5.9495
" />
<path d="M94.1164 6.6752
L94.1164 5.4052
" />
<path d="M94.1164 5.4052
L94.8421 6.6752
" />
<path d="M94.8421 6.6752
L94.8421 5.4052
" />
<path d="M95.3865 6.6148
L95.5679 6.6752
" />
<path d="M95.5679 6.6752
L95.8703 6.6752
" />
<path d="M95.8703 6.6752
L95.9912 6.6148
" />
<path d="M95.9912 6.6148
L96.0517 6.5543
" />
<path d="M96.0517 6.5543
L96.1122 6.4333
" />
<path d="M96.1122 6.4333
L96.1122 6.3124
" />
<path d="M96.1122 6.3124
L96.0517 6.1914
" />
<path d="M96.0517 6.1914
L95.9912 6.1309
" />
<path d="M95.9912 6.1309
L95.8703 6.0705
" />
<path d="M95.8703 6.0705
L95.6284 6.0100
" />
<path d="M95.6284 6.0100
L95.5074 5.9495
" />
<path d="M95.5074 5.9495
L95.4469 5.8890
" />
<path d="M95.4469 5.8890
L95.3865 5.7681
" />
<path d="M95.3865 5.7681
L95.3865 5.6471
" />
<path d="M95.3865 5.6471
L95.4469 5.5262
" />
<path d="M95.4469 5.5262
L95.5074 5.4657
" />
<path d="M95.5074 5.4657
L95.6284 5.4052
" />
<path d="M95.6284 5.4052
L95.9307 5.4052
" />
<path d="M95.9307 5.4052
L96.1122 5.4657
" />
<path d="M97.2612 5.4052
L96.6564 5.4052
" />
<path d="M96.6564 5.4052
L96.5960 6.0100
" />
<path d="M96.5960 6.0100
L96.6564 5.9495
" />
<path d="M96.6564 5.9495
L96.7774 5.8890
" />
<path d="M96.7774 5.8890
L97.0798 5.8890
" />
<path d="M97.0798 5.8890
L97.2007 5.9495
" />
<path d="M97.2007 5.9495
L97.2612 6.0100
" />
<path d="M97.2612 6.0100
L97.3217 6.1309
" />
<path d="M97.3217 6.1309
L97.3217 6.4333
" />
<path d="M97.3217 6.4333
L97.2612 6.5543
" />
<path d="M97.2612 6.5543
L97.2007 6.6148
" />
<path d="M97.2007 6.6148
L97.0798 6.6752
" />
<path d="M97.0798 6.6752
L96.7774 6.6752
" />
<path d="M96.7774 6.6752
L96.6564 6.6148
" />
<path d="M96.6564 6.6148
L96.5960 6.5543
" />
</g></g> 
</svg>
