<?xml version="1.0" standalone="no"?>
 <!DOCTYPE svg PUBLIC "-//W3C//DTD SVG 1.1//EN" 
 "http://www.w3.org/Graphics/SVG/1.1/DTD/svg11.dtd"> 
<svg
  xmlns:svg="http://www.w3.org/2000/svg"
  xmlns="http://www.w3.org/2000/svg"
  xmlns:xlink="http://www.w3.org/1999/xlink"
  version="1.1"
  width="76.3270mm" height="59.1312mm" viewBox="0.0000 0.0000 76.3270 59.1312">
<title>SVG Image created as pic16f716-ip.svg date 2024/01/16 15:19:56 </title>
  <desc>Image generated by Eeschema-SVG </desc>
<g style="fill:#000000; fill-opacity:1.0000;stroke:#000000; stroke-opacity:1.0000;
stroke-linecap:round; stroke-linejoin:round;"
 transform="translate(0 0) scale(1 1)">
</g>
<g style="fill:#000000; fill-opacity:0.0; 
stroke:#000000; stroke-width:0.0000; stroke-opacity:1; 
stroke-linecap:round; stroke-linejoin:round;">
</g>
<g style="fill:#000000; fill-opacity:0.0; 
stroke:#000000; stroke-width:0.2540; stroke-opacity:1; 
stroke-linecap:round; stroke-linejoin:round;">
<rect x="21.653500" y="10.515600" width="33.020000" height="40.640000" rx="0.000000" />
</g>
<g style="fill:#000000; fill-opacity:0.0; 
stroke:#000000; stroke-width:0.1524; stroke-opacity:1; 
stroke-linecap:round; stroke-linejoin:round;">
<path d="M54.6735 19.4056
L58.4835 19.4056
" />
<text x="53.6575" y="20.0406"
textLength="8.7304" font-size="1.6933" lengthAdjust="spacingAndGlyphs"
text-anchor="end" opacity="0">AN2/RA2</text>
<g class="stroked-text"><desc>AN2/RA2</desc>
<path d="M45.2720 19.6223
L45.8767 19.6223
" />
<path d="M45.1510 19.9851
L45.5743 18.7151
" />
<path d="M45.5743 18.7151
L45.9977 19.9851
" />
<path d="M46.4210 19.9851
L46.4210 18.7151
" />
<path d="M46.4210 18.7151
L47.1467 19.9851
" />
<path d="M47.1467 19.9851
L47.1467 18.7151
" />
<path d="M47.6911 18.8361
L47.7515 18.7756
" />
<path d="M47.7515 18.7756
L47.8725 18.7151
" />
<path d="M47.8725 18.7151
L48.1749 18.7151
" />
<path d="M48.1749 18.7151
L48.2958 18.7756
" />
<path d="M48.2958 18.7756
L48.3563 18.8361
" />
<path d="M48.3563 18.8361
L48.4168 18.9570
" />
<path d="M48.4168 18.9570
L48.4168 19.0780
" />
<path d="M48.4168 19.0780
L48.3563 19.2594
" />
<path d="M48.3563 19.2594
L47.6306 19.9851
" />
<path d="M47.6306 19.9851
L48.4168 19.9851
" />
<path d="M49.8682 18.6547
L48.7796 20.2875
" />
<path d="M51.0172 19.9851
L50.5939 19.3804
" />
<path d="M50.2915 19.9851
L50.2915 18.7151
" />
<path d="M50.2915 18.7151
L50.7753 18.7151
" />
<path d="M50.7753 18.7151
L50.8963 18.7756
" />
<path d="M50.8963 18.7756
L50.9568 18.8361
" />
<path d="M50.9568 18.8361
L51.0172 18.9570
" />
<path d="M51.0172 18.9570
L51.0172 19.1385
" />
<path d="M51.0172 19.1385
L50.9568 19.2594
" />
<path d="M50.9568 19.2594
L50.8963 19.3199
" />
<path d="M50.8963 19.3199
L50.7753 19.3804
" />
<path d="M50.7753 19.3804
L50.2915 19.3804
" />
<path d="M51.5011 19.6223
L52.1058 19.6223
" />
<path d="M51.3801 19.9851
L51.8034 18.7151
" />
<path d="M51.8034 18.7151
L52.2268 19.9851
" />
<path d="M52.5897 18.8361
L52.6501 18.7756
" />
<path d="M52.6501 18.7756
L52.7711 18.7151
" />
<path d="M52.7711 18.7151
L53.0735 18.7151
" />
<path d="M53.0735 18.7151
L53.1944 18.7756
" />
<path d="M53.1944 18.7756
L53.2549 18.8361
" />
<path d="M53.2549 18.8361
L53.3154 18.9570
" />
<path d="M53.3154 18.9570
L53.3154 19.0780
" />
<path d="M53.3154 19.0780
L53.2549 19.2594
" />
<path d="M53.2549 19.2594
L52.5292 19.9851
" />
<path d="M52.5292 19.9851
L53.3154 19.9851
" />
</g><text x="56.5785" y="19.1516"
textLength="1.4127" font-size="1.6933" lengthAdjust="spacingAndGlyphs"
text-anchor="middle" opacity="0">1</text>
<g class="stroked-text"><desc>1</desc>
<path d="M56.9414 18.9881
L56.2157 18.9881
" />
<path d="M56.5785 18.9881
L56.5785 17.7181
" />
<path d="M56.5785 17.7181
L56.4576 17.8996
" />
<path d="M56.4576 17.8996
L56.3366 18.0205
" />
<path d="M56.3366 18.0205
L56.2157 18.0810
" />
</g><path d="M54.6735 39.7256
L58.4835 39.7256
" />
<text x="53.6575" y="40.3606"
textLength="13.7498" font-size="1.6933" lengthAdjust="spacingAndGlyphs"
text-anchor="end" opacity="0">~{ECCPAS0}/RB4</text>
<g class="stroked-text"><desc>~{ECCPAS0}/RB4</desc>
<path d="M40.3130 39.6399
L40.7364 39.6399
" />
<path d="M40.9178 40.3051
L40.3130 40.3051
" />
<path d="M40.3130 40.3051
L40.3130 39.0351
" />
<path d="M40.3130 39.0351
L40.9178 39.0351
" />
<path d="M42.1877 40.1842
L42.1273 40.2447
" />
<path d="M42.1273 40.2447
L41.9458 40.3051
" />
<path d="M41.9458 40.3051
L41.8249 40.3051
" />
<path d="M41.8249 40.3051
L41.6435 40.2447
" />
<path d="M41.6435 40.2447
L41.5225 40.1237
" />
<path d="M41.5225 40.1237
L41.4620 40.0027
" />
<path d="M41.4620 40.0027
L41.4016 39.7608
" />
<path d="M41.4016 39.7608
L41.4016 39.5794
" />
<path d="M41.4016 39.5794
L41.4620 39.3375
" />
<path d="M41.4620 39.3375
L41.5225 39.2166
" />
<path d="M41.5225 39.2166
L41.6435 39.0956
" />
<path d="M41.6435 39.0956
L41.8249 39.0351
" />
<path d="M41.8249 39.0351
L41.9458 39.0351
" />
<path d="M41.9458 39.0351
L42.1273 39.0956
" />
<path d="M42.1273 39.0956
L42.1877 39.1561
" />
<path d="M43.4577 40.1842
L43.3973 40.2447
" />
<path d="M43.3973 40.2447
L43.2158 40.3051
" />
<path d="M43.2158 40.3051
L43.0949 40.3051
" />
<path d="M43.0949 40.3051
L42.9135 40.2447
" />
<path d="M42.9135 40.2447
L42.7925 40.1237
" />
<path d="M42.7925 40.1237
L42.7320 40.0027
" />
<path d="M42.7320 40.0027
L42.6716 39.7608
" />
<path d="M42.6716 39.7608
L42.6716 39.5794
" />
<path d="M42.6716 39.5794
L42.7320 39.3375
" />
<path d="M42.7320 39.3375
L42.7925 39.2166
" />
<path d="M42.7925 39.2166
L42.9135 39.0956
" />
<path d="M42.9135 39.0956
L43.0949 39.0351
" />
<path d="M43.0949 39.0351
L43.2158 39.0351
" />
<path d="M43.2158 39.0351
L43.3973 39.0956
" />
<path d="M43.3973 39.0956
L43.4577 39.1561
" />
<path d="M44.0020 40.3051
L44.0020 39.0351
" />
<path d="M44.0020 39.0351
L44.4858 39.0351
" />
<path d="M44.4858 39.0351
L44.6068 39.0956
" />
<path d="M44.6068 39.0956
L44.6673 39.1561
" />
<path d="M44.6673 39.1561
L44.7277 39.2770
" />
<path d="M44.7277 39.2770
L44.7277 39.4585
" />
<path d="M44.7277 39.4585
L44.6673 39.5794
" />
<path d="M44.6673 39.5794
L44.6068 39.6399
" />
<path d="M44.6068 39.6399
L44.4858 39.7004
" />
<path d="M44.4858 39.7004
L44.0020 39.7004
" />
<path d="M45.2116 39.9423
L45.8163 39.9423
" />
<path d="M45.0906 40.3051
L45.5139 39.0351
" />
<path d="M45.5139 39.0351
L45.9373 40.3051
" />
<path d="M46.3002 40.2447
L46.4816 40.3051
" />
<path d="M46.4816 40.3051
L46.7840 40.3051
" />
<path d="M46.7840 40.3051
L46.9049 40.2447
" />
<path d="M46.9049 40.2447
L46.9654 40.1842
" />
<path d="M46.9654 40.1842
L47.0259 40.0632
" />
<path d="M47.0259 40.0632
L47.0259 39.9423
" />
<path d="M47.0259 39.9423
L46.9654 39.8213
" />
<path d="M46.9654 39.8213
L46.9049 39.7608
" />
<path d="M46.9049 39.7608
L46.7840 39.7004
" />
<path d="M46.7840 39.7004
L46.5421 39.6399
" />
<path d="M46.5421 39.6399
L46.4211 39.5794
" />
<path d="M46.4211 39.5794
L46.3606 39.5189
" />
<path d="M46.3606 39.5189
L46.3002 39.3980
" />
<path d="M46.3002 39.3980
L46.3002 39.2770
" />
<path d="M46.3002 39.2770
L46.3606 39.1561
" />
<path d="M46.3606 39.1561
L46.4211 39.0956
" />
<path d="M46.4211 39.0956
L46.5421 39.0351
" />
<path d="M46.5421 39.0351
L46.8444 39.0351
" />
<path d="M46.8444 39.0351
L47.0259 39.0956
" />
<path d="M47.8120 39.0351
L47.9330 39.0351
" />
<path d="M47.9330 39.0351
L48.0539 39.0956
" />
<path d="M48.0539 39.0956
L48.1144 39.1561
" />
<path d="M48.1144 39.1561
L48.1749 39.2770
" />
<path d="M48.1749 39.2770
L48.2354 39.5189
" />
<path d="M48.2354 39.5189
L48.2354 39.8213
" />
<path d="M48.2354 39.8213
L48.1749 40.0632
" />
<path d="M48.1749 40.0632
L48.1144 40.1842
" />
<path d="M48.1144 40.1842
L48.0539 40.2447
" />
<path d="M48.0539 40.2447
L47.9330 40.3051
" />
<path d="M47.9330 40.3051
L47.8120 40.3051
" />
<path d="M47.8120 40.3051
L47.6911 40.2447
" />
<path d="M47.6911 40.2447
L47.6306 40.1842
" />
<path d="M47.6306 40.1842
L47.5701 40.0632
" />
<path d="M47.5701 40.0632
L47.5097 39.8213
" />
<path d="M47.5097 39.8213
L47.5097 39.5189
" />
<path d="M47.5097 39.5189
L47.5701 39.2770
" />
<path d="M47.5701 39.2770
L47.6306 39.1561
" />
<path d="M47.6306 39.1561
L47.6911 39.0956
" />
<path d="M47.6911 39.0956
L47.8120 39.0351
" />
<path d="M40.1377 38.6826
L48.3503 38.6826
" />
<path d="M49.6868 38.9747
L48.5982 40.6075
" />
<path d="M50.8358 40.3051
L50.4125 39.7004
" />
<path d="M50.1101 40.3051
L50.1101 39.0351
" />
<path d="M50.1101 39.0351
L50.5939 39.0351
" />
<path d="M50.5939 39.0351
L50.7149 39.0956
" />
<path d="M50.7149 39.0956
L50.7754 39.1561
" />
<path d="M50.7754 39.1561
L50.8358 39.2770
" />
<path d="M50.8358 39.2770
L50.8358 39.4585
" />
<path d="M50.8358 39.4585
L50.7754 39.5794
" />
<path d="M50.7754 39.5794
L50.7149 39.6399
" />
<path d="M50.7149 39.6399
L50.5939 39.7004
" />
<path d="M50.5939 39.7004
L50.1101 39.7004
" />
<path d="M51.8035 39.6399
L51.9849 39.7004
" />
<path d="M51.9849 39.7004
L52.0454 39.7608
" />
<path d="M52.0454 39.7608
L52.1058 39.8818
" />
<path d="M52.1058 39.8818
L52.1058 40.0632
" />
<path d="M52.1058 40.0632
L52.0454 40.1842
" />
<path d="M52.0454 40.1842
L51.9849 40.2447
" />
<path d="M51.9849 40.2447
L51.8639 40.3051
" />
<path d="M51.8639 40.3051
L51.3801 40.3051
" />
<path d="M51.3801 40.3051
L51.3801 39.0351
" />
<path d="M51.3801 39.0351
L51.8035 39.0351
" />
<path d="M51.8035 39.0351
L51.9244 39.0956
" />
<path d="M51.9244 39.0956
L51.9849 39.1561
" />
<path d="M51.9849 39.1561
L52.0454 39.2770
" />
<path d="M52.0454 39.2770
L52.0454 39.3980
" />
<path d="M52.0454 39.3980
L51.9849 39.5189
" />
<path d="M51.9849 39.5189
L51.9244 39.5794
" />
<path d="M51.9244 39.5794
L51.8035 39.6399
" />
<path d="M51.8035 39.6399
L51.3801 39.6399
" />
<path d="M53.1944 39.4585
L53.1944 40.3051
" />
<path d="M52.8920 38.9747
L52.5897 39.8818
" />
<path d="M52.5897 39.8818
L53.3758 39.8818
" />
</g><text x="56.5785" y="39.4716"
textLength="2.6222" font-size="1.6933" lengthAdjust="spacingAndGlyphs"
text-anchor="middle" opacity="0">10</text>
<g class="stroked-text"><desc>10</desc>
<path d="M56.3366 39.3081
L55.6109 39.3081
" />
<path d="M55.9737 39.3081
L55.9737 38.0381
" />
<path d="M55.9737 38.0381
L55.8528 38.2196
" />
<path d="M55.8528 38.2196
L55.7318 38.3405
" />
<path d="M55.7318 38.3405
L55.6109 38.4010
" />
<path d="M57.1227 38.0381
L57.2437 38.0381
" />
<path d="M57.2437 38.0381
L57.3646 38.0986
" />
<path d="M57.3646 38.0986
L57.4251 38.1591
" />
<path d="M57.4251 38.1591
L57.4856 38.2800
" />
<path d="M57.4856 38.2800
L57.5461 38.5219
" />
<path d="M57.5461 38.5219
L57.5461 38.8243
" />
<path d="M57.5461 38.8243
L57.4856 39.0662
" />
<path d="M57.4856 39.0662
L57.4251 39.1872
" />
<path d="M57.4251 39.1872
L57.3646 39.2477
" />
<path d="M57.3646 39.2477
L57.2437 39.3081
" />
<path d="M57.2437 39.3081
L57.1227 39.3081
" />
<path d="M57.1227 39.3081
L57.0018 39.2477
" />
<path d="M57.0018 39.2477
L56.9413 39.1872
" />
<path d="M56.9413 39.1872
L56.8808 39.0662
" />
<path d="M56.8808 39.0662
L56.8204 38.8243
" />
<path d="M56.8204 38.8243
L56.8204 38.5219
" />
<path d="M56.8204 38.5219
L56.8808 38.2800
" />
<path d="M56.8808 38.2800
L56.9413 38.1591
" />
<path d="M56.9413 38.1591
L57.0018 38.0986
" />
<path d="M57.0018 38.0986
L57.1227 38.0381
" />
</g><path d="M54.6735 42.2656
L58.4835 42.2656
" />
<text x="53.6575" y="42.9006"
textLength="9.0327" font-size="1.6933" lengthAdjust="spacingAndGlyphs"
text-anchor="end" opacity="0">P1B/RB5</text>
<g class="stroked-text"><desc>P1B/RB5</desc>
<path d="M45.0301 42.8451
L45.0301 41.5751
" />
<path d="M45.0301 41.5751
L45.5139 41.5751
" />
<path d="M45.5139 41.5751
L45.6349 41.6356
" />
<path d="M45.6349 41.6356
L45.6954 41.6961
" />
<path d="M45.6954 41.6961
L45.7558 41.8170
" />
<path d="M45.7558 41.8170
L45.7558 41.9985
" />
<path d="M45.7558 41.9985
L45.6954 42.1194
" />
<path d="M45.6954 42.1194
L45.6349 42.1799
" />
<path d="M45.6349 42.1799
L45.5139 42.2404
" />
<path d="M45.5139 42.2404
L45.0301 42.2404
" />
<path d="M46.9654 42.8451
L46.2397 42.8451
" />
<path d="M46.6025 42.8451
L46.6025 41.5751
" />
<path d="M46.6025 41.5751
L46.4816 41.7566
" />
<path d="M46.4816 41.7566
L46.3606 41.8775
" />
<path d="M46.3606 41.8775
L46.2397 41.9380
" />
<path d="M47.9330 42.1799
L48.1144 42.2404
" />
<path d="M48.1144 42.2404
L48.1749 42.3008
" />
<path d="M48.1749 42.3008
L48.2353 42.4218
" />
<path d="M48.2353 42.4218
L48.2353 42.6032
" />
<path d="M48.2353 42.6032
L48.1749 42.7242
" />
<path d="M48.1749 42.7242
L48.1144 42.7847
" />
<path d="M48.1144 42.7847
L47.9934 42.8451
" />
<path d="M47.9934 42.8451
L47.5096 42.8451
" />
<path d="M47.5096 42.8451
L47.5096 41.5751
" />
<path d="M47.5096 41.5751
L47.9330 41.5751
" />
<path d="M47.9330 41.5751
L48.0539 41.6356
" />
<path d="M48.0539 41.6356
L48.1144 41.6961
" />
<path d="M48.1144 41.6961
L48.1749 41.8170
" />
<path d="M48.1749 41.8170
L48.1749 41.9380
" />
<path d="M48.1749 41.9380
L48.1144 42.0589
" />
<path d="M48.1144 42.0589
L48.0539 42.1194
" />
<path d="M48.0539 42.1194
L47.9330 42.1799
" />
<path d="M47.9330 42.1799
L47.5096 42.1799
" />
<path d="M49.6868 41.5147
L48.5982 43.1475
" />
<path d="M50.8358 42.8451
L50.4125 42.2404
" />
<path d="M50.1101 42.8451
L50.1101 41.5751
" />
<path d="M50.1101 41.5751
L50.5939 41.5751
" />
<path d="M50.5939 41.5751
L50.7149 41.6356
" />
<path d="M50.7149 41.6356
L50.7754 41.6961
" />
<path d="M50.7754 41.6961
L50.8358 41.8170
" />
<path d="M50.8358 41.8170
L50.8358 41.9985
" />
<path d="M50.8358 41.9985
L50.7754 42.1194
" />
<path d="M50.7754 42.1194
L50.7149 42.1799
" />
<path d="M50.7149 42.1799
L50.5939 42.2404
" />
<path d="M50.5939 42.2404
L50.1101 42.2404
" />
<path d="M51.8035 42.1799
L51.9849 42.2404
" />
<path d="M51.9849 42.2404
L52.0454 42.3008
" />
<path d="M52.0454 42.3008
L52.1058 42.4218
" />
<path d="M52.1058 42.4218
L52.1058 42.6032
" />
<path d="M52.1058 42.6032
L52.0454 42.7242
" />
<path d="M52.0454 42.7242
L51.9849 42.7847
" />
<path d="M51.9849 42.7847
L51.8639 42.8451
" />
<path d="M51.8639 42.8451
L51.3801 42.8451
" />
<path d="M51.3801 42.8451
L51.3801 41.5751
" />
<path d="M51.3801 41.5751
L51.8035 41.5751
" />
<path d="M51.8035 41.5751
L51.9244 41.6356
" />
<path d="M51.9244 41.6356
L51.9849 41.6961
" />
<path d="M51.9849 41.6961
L52.0454 41.8170
" />
<path d="M52.0454 41.8170
L52.0454 41.9380
" />
<path d="M52.0454 41.9380
L51.9849 42.0589
" />
<path d="M51.9849 42.0589
L51.9244 42.1194
" />
<path d="M51.9244 42.1194
L51.8035 42.1799
" />
<path d="M51.8035 42.1799
L51.3801 42.1799
" />
<path d="M53.2549 41.5751
L52.6501 41.5751
" />
<path d="M52.6501 41.5751
L52.5897 42.1799
" />
<path d="M52.5897 42.1799
L52.6501 42.1194
" />
<path d="M52.6501 42.1194
L52.7711 42.0589
" />
<path d="M52.7711 42.0589
L53.0735 42.0589
" />
<path d="M53.0735 42.0589
L53.1944 42.1194
" />
<path d="M53.1944 42.1194
L53.2549 42.1799
" />
<path d="M53.2549 42.1799
L53.3154 42.3008
" />
<path d="M53.3154 42.3008
L53.3154 42.6032
" />
<path d="M53.3154 42.6032
L53.2549 42.7242
" />
<path d="M53.2549 42.7242
L53.1944 42.7847
" />
<path d="M53.1944 42.7847
L53.0735 42.8451
" />
<path d="M53.0735 42.8451
L52.7711 42.8451
" />
<path d="M52.7711 42.8451
L52.6501 42.7847
" />
<path d="M52.6501 42.7847
L52.5897 42.7242
" />
</g><text x="56.5785" y="42.0116"
textLength="2.6222" font-size="1.6933" lengthAdjust="spacingAndGlyphs"
text-anchor="middle" opacity="0">11</text>
<g class="stroked-text"><desc>11</desc>
<path d="M56.3366 41.8481
L55.6109 41.8481
" />
<path d="M55.9737 41.8481
L55.9737 40.5781
" />
<path d="M55.9737 40.5781
L55.8528 40.7596
" />
<path d="M55.8528 40.7596
L55.7318 40.8805
" />
<path d="M55.7318 40.8805
L55.6109 40.9410
" />
<path d="M57.5461 41.8481
L56.8204 41.8481
" />
<path d="M57.1832 41.8481
L57.1832 40.5781
" />
<path d="M57.1832 40.5781
L57.0623 40.7596
" />
<path d="M57.0623 40.7596
L56.9413 40.8805
" />
<path d="M56.9413 40.8805
L56.8204 40.9410
" />
</g><path d="M54.6735 44.8056
L58.4835 44.8056
" />
<text x="53.6575" y="45.4406"
textLength="9.0327" font-size="1.6933" lengthAdjust="spacingAndGlyphs"
text-anchor="end" opacity="0">P1C/RB6</text>
<g class="stroked-text"><desc>P1C/RB6</desc>
<path d="M45.0301 45.3851
L45.0301 44.1151
" />
<path d="M45.0301 44.1151
L45.5139 44.1151
" />
<path d="M45.5139 44.1151
L45.6349 44.1756
" />
<path d="M45.6349 44.1756
L45.6954 44.2361
" />
<path d="M45.6954 44.2361
L45.7558 44.3570
" />
<path d="M45.7558 44.3570
L45.7558 44.5385
" />
<path d="M45.7558 44.5385
L45.6954 44.6594
" />
<path d="M45.6954 44.6594
L45.6349 44.7199
" />
<path d="M45.6349 44.7199
L45.5139 44.7804
" />
<path d="M45.5139 44.7804
L45.0301 44.7804
" />
<path d="M46.9654 45.3851
L46.2397 45.3851
" />
<path d="M46.6025 45.3851
L46.6025 44.1151
" />
<path d="M46.6025 44.1151
L46.4816 44.2966
" />
<path d="M46.4816 44.2966
L46.3606 44.4175
" />
<path d="M46.3606 44.4175
L46.2397 44.4780
" />
<path d="M48.2353 45.2642
L48.1749 45.3247
" />
<path d="M48.1749 45.3247
L47.9934 45.3851
" />
<path d="M47.9934 45.3851
L47.8725 45.3851
" />
<path d="M47.8725 45.3851
L47.6911 45.3247
" />
<path d="M47.6911 45.3247
L47.5701 45.2037
" />
<path d="M47.5701 45.2037
L47.5096 45.0827
" />
<path d="M47.5096 45.0827
L47.4492 44.8408
" />
<path d="M47.4492 44.8408
L47.4492 44.6594
" />
<path d="M47.4492 44.6594
L47.5096 44.4175
" />
<path d="M47.5096 44.4175
L47.5701 44.2966
" />
<path d="M47.5701 44.2966
L47.6911 44.1756
" />
<path d="M47.6911 44.1756
L47.8725 44.1151
" />
<path d="M47.8725 44.1151
L47.9934 44.1151
" />
<path d="M47.9934 44.1151
L48.1749 44.1756
" />
<path d="M48.1749 44.1756
L48.2353 44.2361
" />
<path d="M49.6868 44.0547
L48.5982 45.6875
" />
<path d="M50.8358 45.3851
L50.4125 44.7804
" />
<path d="M50.1101 45.3851
L50.1101 44.1151
" />
<path d="M50.1101 44.1151
L50.5939 44.1151
" />
<path d="M50.5939 44.1151
L50.7149 44.1756
" />
<path d="M50.7149 44.1756
L50.7754 44.2361
" />
<path d="M50.7754 44.2361
L50.8358 44.3570
" />
<path d="M50.8358 44.3570
L50.8358 44.5385
" />
<path d="M50.8358 44.5385
L50.7754 44.6594
" />
<path d="M50.7754 44.6594
L50.7149 44.7199
" />
<path d="M50.7149 44.7199
L50.5939 44.7804
" />
<path d="M50.5939 44.7804
L50.1101 44.7804
" />
<path d="M51.8035 44.7199
L51.9849 44.7804
" />
<path d="M51.9849 44.7804
L52.0454 44.8408
" />
<path d="M52.0454 44.8408
L52.1058 44.9618
" />
<path d="M52.1058 44.9618
L52.1058 45.1432
" />
<path d="M52.1058 45.1432
L52.0454 45.2642
" />
<path d="M52.0454 45.2642
L51.9849 45.3247
" />
<path d="M51.9849 45.3247
L51.8639 45.3851
" />
<path d="M51.8639 45.3851
L51.3801 45.3851
" />
<path d="M51.3801 45.3851
L51.3801 44.1151
" />
<path d="M51.3801 44.1151
L51.8035 44.1151
" />
<path d="M51.8035 44.1151
L51.9244 44.1756
" />
<path d="M51.9244 44.1756
L51.9849 44.2361
" />
<path d="M51.9849 44.2361
L52.0454 44.3570
" />
<path d="M52.0454 44.3570
L52.0454 44.4780
" />
<path d="M52.0454 44.4780
L51.9849 44.5989
" />
<path d="M51.9849 44.5989
L51.9244 44.6594
" />
<path d="M51.9244 44.6594
L51.8035 44.7199
" />
<path d="M51.8035 44.7199
L51.3801 44.7199
" />
<path d="M53.1944 44.1151
L52.9525 44.1151
" />
<path d="M52.9525 44.1151
L52.8316 44.1756
" />
<path d="M52.8316 44.1756
L52.7711 44.2361
" />
<path d="M52.7711 44.2361
L52.6501 44.4175
" />
<path d="M52.6501 44.4175
L52.5897 44.6594
" />
<path d="M52.5897 44.6594
L52.5897 45.1432
" />
<path d="M52.5897 45.1432
L52.6501 45.2642
" />
<path d="M52.6501 45.2642
L52.7106 45.3247
" />
<path d="M52.7106 45.3247
L52.8316 45.3851
" />
<path d="M52.8316 45.3851
L53.0735 45.3851
" />
<path d="M53.0735 45.3851
L53.1944 45.3247
" />
<path d="M53.1944 45.3247
L53.2549 45.2642
" />
<path d="M53.2549 45.2642
L53.3154 45.1432
" />
<path d="M53.3154 45.1432
L53.3154 44.8408
" />
<path d="M53.3154 44.8408
L53.2549 44.7199
" />
<path d="M53.2549 44.7199
L53.1944 44.6594
" />
<path d="M53.1944 44.6594
L53.0735 44.5989
" />
<path d="M53.0735 44.5989
L52.8316 44.5989
" />
<path d="M52.8316 44.5989
L52.7106 44.6594
" />
<path d="M52.7106 44.6594
L52.6501 44.7199
" />
<path d="M52.6501 44.7199
L52.5897 44.8408
" />
</g><text x="56.5785" y="44.5516"
textLength="2.6222" font-size="1.6933" lengthAdjust="spacingAndGlyphs"
text-anchor="middle" opacity="0">12</text>
<g class="stroked-text"><desc>12</desc>
<path d="M56.3366 44.3881
L55.6109 44.3881
" />
<path d="M55.9737 44.3881
L55.9737 43.1181
" />
<path d="M55.9737 43.1181
L55.8528 43.2996
" />
<path d="M55.8528 43.2996
L55.7318 43.4205
" />
<path d="M55.7318 43.4205
L55.6109 43.4810
" />
<path d="M56.8204 43.2391
L56.8808 43.1786
" />
<path d="M56.8808 43.1786
L57.0018 43.1181
" />
<path d="M57.0018 43.1181
L57.3042 43.1181
" />
<path d="M57.3042 43.1181
L57.4251 43.1786
" />
<path d="M57.4251 43.1786
L57.4856 43.2391
" />
<path d="M57.4856 43.2391
L57.5461 43.3600
" />
<path d="M57.5461 43.3600
L57.5461 43.4810
" />
<path d="M57.5461 43.4810
L57.4856 43.6624
" />
<path d="M57.4856 43.6624
L56.7599 44.3881
" />
<path d="M56.7599 44.3881
L57.5461 44.3881
" />
</g><path d="M54.6735 47.3456
L58.4835 47.3456
" />
<text x="53.6575" y="47.9806"
textLength="9.0327" font-size="1.6933" lengthAdjust="spacingAndGlyphs"
text-anchor="end" opacity="0">P1D/RB7</text>
<g class="stroked-text"><desc>P1D/RB7</desc>
<path d="M45.0301 47.9251
L45.0301 46.6551
" />
<path d="M45.0301 46.6551
L45.5139 46.6551
" />
<path d="M45.5139 46.6551
L45.6349 46.7156
" />
<path d="M45.6349 46.7156
L45.6954 46.7761
" />
<path d="M45.6954 46.7761
L45.7558 46.8970
" />
<path d="M45.7558 46.8970
L45.7558 47.0785
" />
<path d="M45.7558 47.0785
L45.6954 47.1994
" />
<path d="M45.6954 47.1994
L45.6349 47.2599
" />
<path d="M45.6349 47.2599
L45.5139 47.3204
" />
<path d="M45.5139 47.3204
L45.0301 47.3204
" />
<path d="M46.9654 47.9251
L46.2397 47.9251
" />
<path d="M46.6025 47.9251
L46.6025 46.6551
" />
<path d="M46.6025 46.6551
L46.4816 46.8366
" />
<path d="M46.4816 46.8366
L46.3606 46.9575
" />
<path d="M46.3606 46.9575
L46.2397 47.0180
" />
<path d="M47.5096 47.9251
L47.5096 46.6551
" />
<path d="M47.5096 46.6551
L47.8120 46.6551
" />
<path d="M47.8120 46.6551
L47.9934 46.7156
" />
<path d="M47.9934 46.7156
L48.1144 46.8366
" />
<path d="M48.1144 46.8366
L48.1749 46.9575
" />
<path d="M48.1749 46.9575
L48.2353 47.1994
" />
<path d="M48.2353 47.1994
L48.2353 47.3808
" />
<path d="M48.2353 47.3808
L48.1749 47.6227
" />
<path d="M48.1749 47.6227
L48.1144 47.7437
" />
<path d="M48.1144 47.7437
L47.9934 47.8647
" />
<path d="M47.9934 47.8647
L47.8120 47.9251
" />
<path d="M47.8120 47.9251
L47.5096 47.9251
" />
<path d="M49.6868 46.5947
L48.5982 48.2275
" />
<path d="M50.8358 47.9251
L50.4125 47.3204
" />
<path d="M50.1101 47.9251
L50.1101 46.6551
" />
<path d="M50.1101 46.6551
L50.5939 46.6551
" />
<path d="M50.5939 46.6551
L50.7149 46.7156
" />
<path d="M50.7149 46.7156
L50.7754 46.7761
" />
<path d="M50.7754 46.7761
L50.8358 46.8970
" />
<path d="M50.8358 46.8970
L50.8358 47.0785
" />
<path d="M50.8358 47.0785
L50.7754 47.1994
" />
<path d="M50.7754 47.1994
L50.7149 47.2599
" />
<path d="M50.7149 47.2599
L50.5939 47.3204
" />
<path d="M50.5939 47.3204
L50.1101 47.3204
" />
<path d="M51.8035 47.2599
L51.9849 47.3204
" />
<path d="M51.9849 47.3204
L52.0454 47.3808
" />
<path d="M52.0454 47.3808
L52.1058 47.5018
" />
<path d="M52.1058 47.5018
L52.1058 47.6832
" />
<path d="M52.1058 47.6832
L52.0454 47.8042
" />
<path d="M52.0454 47.8042
L51.9849 47.8647
" />
<path d="M51.9849 47.8647
L51.8639 47.9251
" />
<path d="M51.8639 47.9251
L51.3801 47.9251
" />
<path d="M51.3801 47.9251
L51.3801 46.6551
" />
<path d="M51.3801 46.6551
L51.8035 46.6551
" />
<path d="M51.8035 46.6551
L51.9244 46.7156
" />
<path d="M51.9244 46.7156
L51.9849 46.7761
" />
<path d="M51.9849 46.7761
L52.0454 46.8970
" />
<path d="M52.0454 46.8970
L52.0454 47.0180
" />
<path d="M52.0454 47.0180
L51.9849 47.1389
" />
<path d="M51.9849 47.1389
L51.9244 47.1994
" />
<path d="M51.9244 47.1994
L51.8035 47.2599
" />
<path d="M51.8035 47.2599
L51.3801 47.2599
" />
<path d="M52.5292 46.6551
L53.3758 46.6551
" />
<path d="M53.3758 46.6551
L52.8316 47.9251
" />
</g><text x="56.5785" y="47.0916"
textLength="2.6222" font-size="1.6933" lengthAdjust="spacingAndGlyphs"
text-anchor="middle" opacity="0">13</text>
<g class="stroked-text"><desc>13</desc>
<path d="M56.3366 46.9281
L55.6109 46.9281
" />
<path d="M55.9737 46.9281
L55.9737 45.6581
" />
<path d="M55.9737 45.6581
L55.8528 45.8396
" />
<path d="M55.8528 45.8396
L55.7318 45.9605
" />
<path d="M55.7318 45.9605
L55.6109 46.0210
" />
<path d="M56.7599 45.6581
L57.5461 45.6581
" />
<path d="M57.5461 45.6581
L57.1227 46.1419
" />
<path d="M57.1227 46.1419
L57.3042 46.1419
" />
<path d="M57.3042 46.1419
L57.4251 46.2024
" />
<path d="M57.4251 46.2024
L57.4856 46.2629
" />
<path d="M57.4856 46.2629
L57.5461 46.3838
" />
<path d="M57.5461 46.3838
L57.5461 46.6862
" />
<path d="M57.5461 46.6862
L57.4856 46.8072
" />
<path d="M57.4856 46.8072
L57.4251 46.8677
" />
<path d="M57.4251 46.8677
L57.3042 46.9281
" />
<path d="M57.3042 46.9281
L56.9413 46.9281
" />
<path d="M56.9413 46.9281
L56.8204 46.8677
" />
<path d="M56.8204 46.8677
L56.7599 46.8072
" />
</g><path d="M38.1635 10.5156
L38.1635 6.7056
" />
<g transform="rotate(-90.000000 38.1635 11.5316)">
<text x="38.1635" y="12.1666"
textLength="3.8318" font-size="1.6933" lengthAdjust="spacingAndGlyphs"
text-anchor="end" opacity="0">VDD</text>
</g>
<g class="stroked-text"><desc>VDD</desc>
<path d="M37.4730 15.1394
L38.7430 14.7161
" />
<path d="M38.7430 14.7161
L37.4730 14.2927
" />
<path d="M38.7430 13.8694
L37.4730 13.8694
" />
<path d="M37.4730 13.8694
L37.4730 13.5670
" />
<path d="M37.4730 13.5670
L37.5335 13.3856
" />
<path d="M37.5335 13.3856
L37.6545 13.2646
" />
<path d="M37.6545 13.2646
L37.7754 13.2041
" />
<path d="M37.7754 13.2041
L38.0173 13.1437
" />
<path d="M38.0173 13.1437
L38.1987 13.1437
" />
<path d="M38.1987 13.1437
L38.4406 13.2041
" />
<path d="M38.4406 13.2041
L38.5616 13.2646
" />
<path d="M38.5616 13.2646
L38.6826 13.3856
" />
<path d="M38.6826 13.3856
L38.7430 13.5670
" />
<path d="M38.7430 13.5670
L38.7430 13.8694
" />
<path d="M38.7430 12.5994
L37.4730 12.5994
" />
<path d="M37.4730 12.5994
L37.4730 12.2970
" />
<path d="M37.4730 12.2970
L37.5335 12.1156
" />
<path d="M37.5335 12.1156
L37.6545 11.9946
" />
<path d="M37.6545 11.9946
L37.7754 11.9341
" />
<path d="M37.7754 11.9341
L38.0173 11.8737
" />
<path d="M38.0173 11.8737
L38.1987 11.8737
" />
<path d="M38.1987 11.8737
L38.4406 11.9341
" />
<path d="M38.4406 11.9341
L38.5616 11.9946
" />
<path d="M38.5616 11.9946
L38.6826 12.1156
" />
<path d="M38.6826 12.1156
L38.7430 12.2970
" />
<path d="M38.7430 12.2970
L38.7430 12.5994
" />
</g><g transform="rotate(-90.000000 37.9095 8.6106)">
<text x="37.9095" y="8.6106"
textLength="2.6222" font-size="1.6933" lengthAdjust="spacingAndGlyphs"
text-anchor="middle" opacity="0">14</text>
</g>
<g class="stroked-text"><desc>14</desc>
<path d="M37.7460 8.8524
L37.7460 9.5781
" />
<path d="M37.7460 9.2153
L36.4760 9.2153
" />
<path d="M36.4760 9.2153
L36.6575 9.3362
" />
<path d="M36.6575 9.3362
L36.7784 9.4572
" />
<path d="M36.7784 9.4572
L36.8389 9.5781
" />
<path d="M36.8994 7.7639
L37.7460 7.7639
" />
<path d="M36.4156 8.0663
L37.3227 8.3686
" />
<path d="M37.3227 8.3686
L37.3227 7.5825
" />
</g><path d="M21.6535 27.0256
L17.8435 27.0256
" />
<text x="22.6695" y="27.6606"
textLength="11.4518" font-size="1.6933" lengthAdjust="spacingAndGlyphs"
text-anchor="start" opacity="0">OSC2/CLKO</text>
<g class="stroked-text"><desc>OSC2/CLKO</desc>
<path d="M23.3139 26.3351
L23.5558 26.3351
" />
<path d="M23.5558 26.3351
L23.6768 26.3956
" />
<path d="M23.6768 26.3956
L23.7977 26.5166
" />
<path d="M23.7977 26.5166
L23.8582 26.7585
" />
<path d="M23.8582 26.7585
L23.8582 27.1818
" />
<path d="M23.8582 27.1818
L23.7977 27.4237
" />
<path d="M23.7977 27.4237
L23.6768 27.5447
" />
<path d="M23.6768 27.5447
L23.5558 27.6051
" />
<path d="M23.5558 27.6051
L23.3139 27.6051
" />
<path d="M23.3139 27.6051
L23.1930 27.5447
" />
<path d="M23.1930 27.5447
L23.0720 27.4237
" />
<path d="M23.0720 27.4237
L23.0116 27.1818
" />
<path d="M23.0116 27.1818
L23.0116 26.7585
" />
<path d="M23.0116 26.7585
L23.0720 26.5166
" />
<path d="M23.0720 26.5166
L23.1930 26.3956
" />
<path d="M23.1930 26.3956
L23.3139 26.3351
" />
<path d="M24.3421 27.5447
L24.5235 27.6051
" />
<path d="M24.5235 27.6051
L24.8259 27.6051
" />
<path d="M24.8259 27.6051
L24.9468 27.5447
" />
<path d="M24.9468 27.5447
L25.0073 27.4842
" />
<path d="M25.0073 27.4842
L25.0678 27.3632
" />
<path d="M25.0678 27.3632
L25.0678 27.2423
" />
<path d="M25.0678 27.2423
L25.0073 27.1213
" />
<path d="M25.0073 27.1213
L24.9468 27.0608
" />
<path d="M24.9468 27.0608
L24.8259 27.0004
" />
<path d="M24.8259 27.0004
L24.5840 26.9399
" />
<path d="M24.5840 26.9399
L24.4630 26.8794
" />
<path d="M24.4630 26.8794
L24.4025 26.8189
" />
<path d="M24.4025 26.8189
L24.3421 26.6980
" />
<path d="M24.3421 26.6980
L24.3421 26.5770
" />
<path d="M24.3421 26.5770
L24.4025 26.4561
" />
<path d="M24.4025 26.4561
L24.4630 26.3956
" />
<path d="M24.4630 26.3956
L24.5840 26.3351
" />
<path d="M24.5840 26.3351
L24.8863 26.3351
" />
<path d="M24.8863 26.3351
L25.0678 26.3956
" />
<path d="M26.3377 27.4842
L26.2773 27.5447
" />
<path d="M26.2773 27.5447
L26.0958 27.6051
" />
<path d="M26.0958 27.6051
L25.9749 27.6051
" />
<path d="M25.9749 27.6051
L25.7935 27.5447
" />
<path d="M25.7935 27.5447
L25.6725 27.4237
" />
<path d="M25.6725 27.4237
L25.6120 27.3027
" />
<path d="M25.6120 27.3027
L25.5516 27.0608
" />
<path d="M25.5516 27.0608
L25.5516 26.8794
" />
<path d="M25.5516 26.8794
L25.6120 26.6375
" />
<path d="M25.6120 26.6375
L25.6725 26.5166
" />
<path d="M25.6725 26.5166
L25.7935 26.3956
" />
<path d="M25.7935 26.3956
L25.9749 26.3351
" />
<path d="M25.9749 26.3351
L26.0958 26.3351
" />
<path d="M26.0958 26.3351
L26.2773 26.3956
" />
<path d="M26.2773 26.3956
L26.3377 26.4561
" />
<path d="M26.8216 26.4561
L26.8820 26.3956
" />
<path d="M26.8820 26.3956
L27.0030 26.3351
" />
<path d="M27.0030 26.3351
L27.3054 26.3351
" />
<path d="M27.3054 26.3351
L27.4263 26.3956
" />
<path d="M27.4263 26.3956
L27.4868 26.4561
" />
<path d="M27.4868 26.4561
L27.5473 26.5770
" />
<path d="M27.5473 26.5770
L27.5473 26.6980
" />
<path d="M27.5473 26.6980
L27.4868 26.8794
" />
<path d="M27.4868 26.8794
L26.7611 27.6051
" />
<path d="M26.7611 27.6051
L27.5473 27.6051
" />
<path d="M28.9987 26.2747
L27.9101 27.9075
" />
<path d="M30.1477 27.4842
L30.0873 27.5447
" />
<path d="M30.0873 27.5447
L29.9058 27.6051
" />
<path d="M29.9058 27.6051
L29.7849 27.6051
" />
<path d="M29.7849 27.6051
L29.6035 27.5447
" />
<path d="M29.6035 27.5447
L29.4825 27.4237
" />
<path d="M29.4825 27.4237
L29.4220 27.3027
" />
<path d="M29.4220 27.3027
L29.3616 27.0608
" />
<path d="M29.3616 27.0608
L29.3616 26.8794
" />
<path d="M29.3616 26.8794
L29.4220 26.6375
" />
<path d="M29.4220 26.6375
L29.4825 26.5166
" />
<path d="M29.4825 26.5166
L29.6035 26.3956
" />
<path d="M29.6035 26.3956
L29.7849 26.3351
" />
<path d="M29.7849 26.3351
L29.9058 26.3351
" />
<path d="M29.9058 26.3351
L30.0873 26.3956
" />
<path d="M30.0873 26.3956
L30.1477 26.4561
" />
<path d="M31.2968 27.6051
L30.6920 27.6051
" />
<path d="M30.6920 27.6051
L30.6920 26.3351
" />
<path d="M31.7201 27.6051
L31.7201 26.3351
" />
<path d="M32.4458 27.6051
L31.9016 26.8794
" />
<path d="M32.4458 26.3351
L31.7201 27.0608
" />
<path d="M33.2320 26.3351
L33.4739 26.3351
" />
<path d="M33.4739 26.3351
L33.5949 26.3956
" />
<path d="M33.5949 26.3956
L33.7158 26.5166
" />
<path d="M33.7158 26.5166
L33.7763 26.7585
" />
<path d="M33.7763 26.7585
L33.7763 27.1818
" />
<path d="M33.7763 27.1818
L33.7158 27.4237
" />
<path d="M33.7158 27.4237
L33.5949 27.5447
" />
<path d="M33.5949 27.5447
L33.4739 27.6051
" />
<path d="M33.4739 27.6051
L33.2320 27.6051
" />
<path d="M33.2320 27.6051
L33.1111 27.5447
" />
<path d="M33.1111 27.5447
L32.9901 27.4237
" />
<path d="M32.9901 27.4237
L32.9297 27.1818
" />
<path d="M32.9297 27.1818
L32.9297 26.7585
" />
<path d="M32.9297 26.7585
L32.9901 26.5166
" />
<path d="M32.9901 26.5166
L33.1111 26.3956
" />
<path d="M33.1111 26.3956
L33.2320 26.3351
" />
</g><text x="19.7485" y="26.7716"
textLength="2.6222" font-size="1.6933" lengthAdjust="spacingAndGlyphs"
text-anchor="middle" opacity="0">15</text>
<g class="stroked-text"><desc>15</desc>
<path d="M19.5066 26.6081
L18.7809 26.6081
" />
<path d="M19.1437 26.6081
L19.1437 25.3381
" />
<path d="M19.1437 25.3381
L19.0228 25.5196
" />
<path d="M19.0228 25.5196
L18.9018 25.6405
" />
<path d="M18.9018 25.6405
L18.7809 25.7010
" />
<path d="M20.6556 25.3381
L20.0508 25.3381
" />
<path d="M20.0508 25.3381
L19.9904 25.9429
" />
<path d="M19.9904 25.9429
L20.0508 25.8824
" />
<path d="M20.0508 25.8824
L20.1718 25.8219
" />
<path d="M20.1718 25.8219
L20.4742 25.8219
" />
<path d="M20.4742 25.8219
L20.5951 25.8824
" />
<path d="M20.5951 25.8824
L20.6556 25.9429
" />
<path d="M20.6556 25.9429
L20.7161 26.0638
" />
<path d="M20.7161 26.0638
L20.7161 26.3662
" />
<path d="M20.7161 26.3662
L20.6556 26.4872
" />
<path d="M20.6556 26.4872
L20.5951 26.5477
" />
<path d="M20.5951 26.5477
L20.4742 26.6081
" />
<path d="M20.4742 26.6081
L20.1718 26.6081
" />
<path d="M20.1718 26.6081
L20.0508 26.5477
" />
<path d="M20.0508 26.5477
L19.9904 26.4872
" />
</g><path d="M21.6535 21.9456
L17.8435 21.9456
" />
<text x="22.6695" y="22.5806"
textLength="10.7261" font-size="1.6933" lengthAdjust="spacingAndGlyphs"
text-anchor="start" opacity="0">OSC1/CLKI</text>
<g class="stroked-text"><desc>OSC1/CLKI</desc>
<path d="M23.3139 21.2551
L23.5558 21.2551
" />
<path d="M23.5558 21.2551
L23.6768 21.3156
" />
<path d="M23.6768 21.3156
L23.7977 21.4366
" />
<path d="M23.7977 21.4366
L23.8582 21.6785
" />
<path d="M23.8582 21.6785
L23.8582 22.1018
" />
<path d="M23.8582 22.1018
L23.7977 22.3437
" />
<path d="M23.7977 22.3437
L23.6768 22.4647
" />
<path d="M23.6768 22.4647
L23.5558 22.5251
" />
<path d="M23.5558 22.5251
L23.3139 22.5251
" />
<path d="M23.3139 22.5251
L23.1930 22.4647
" />
<path d="M23.1930 22.4647
L23.0720 22.3437
" />
<path d="M23.0720 22.3437
L23.0116 22.1018
" />
<path d="M23.0116 22.1018
L23.0116 21.6785
" />
<path d="M23.0116 21.6785
L23.0720 21.4366
" />
<path d="M23.0720 21.4366
L23.1930 21.3156
" />
<path d="M23.1930 21.3156
L23.3139 21.2551
" />
<path d="M24.3421 22.4647
L24.5235 22.5251
" />
<path d="M24.5235 22.5251
L24.8259 22.5251
" />
<path d="M24.8259 22.5251
L24.9468 22.4647
" />
<path d="M24.9468 22.4647
L25.0073 22.4042
" />
<path d="M25.0073 22.4042
L25.0678 22.2832
" />
<path d="M25.0678 22.2832
L25.0678 22.1623
" />
<path d="M25.0678 22.1623
L25.0073 22.0413
" />
<path d="M25.0073 22.0413
L24.9468 21.9808
" />
<path d="M24.9468 21.9808
L24.8259 21.9204
" />
<path d="M24.8259 21.9204
L24.5840 21.8599
" />
<path d="M24.5840 21.8599
L24.4630 21.7994
" />
<path d="M24.4630 21.7994
L24.4025 21.7389
" />
<path d="M24.4025 21.7389
L24.3421 21.6180
" />
<path d="M24.3421 21.6180
L24.3421 21.4970
" />
<path d="M24.3421 21.4970
L24.4025 21.3761
" />
<path d="M24.4025 21.3761
L24.4630 21.3156
" />
<path d="M24.4630 21.3156
L24.5840 21.2551
" />
<path d="M24.5840 21.2551
L24.8863 21.2551
" />
<path d="M24.8863 21.2551
L25.0678 21.3156
" />
<path d="M26.3377 22.4042
L26.2773 22.4647
" />
<path d="M26.2773 22.4647
L26.0958 22.5251
" />
<path d="M26.0958 22.5251
L25.9749 22.5251
" />
<path d="M25.9749 22.5251
L25.7935 22.4647
" />
<path d="M25.7935 22.4647
L25.6725 22.3437
" />
<path d="M25.6725 22.3437
L25.6120 22.2227
" />
<path d="M25.6120 22.2227
L25.5516 21.9808
" />
<path d="M25.5516 21.9808
L25.5516 21.7994
" />
<path d="M25.5516 21.7994
L25.6120 21.5575
" />
<path d="M25.6120 21.5575
L25.6725 21.4366
" />
<path d="M25.6725 21.4366
L25.7935 21.3156
" />
<path d="M25.7935 21.3156
L25.9749 21.2551
" />
<path d="M25.9749 21.2551
L26.0958 21.2551
" />
<path d="M26.0958 21.2551
L26.2773 21.3156
" />
<path d="M26.2773 21.3156
L26.3377 21.3761
" />
<path d="M27.5473 22.5251
L26.8216 22.5251
" />
<path d="M27.1844 22.5251
L27.1844 21.2551
" />
<path d="M27.1844 21.2551
L27.0635 21.4366
" />
<path d="M27.0635 21.4366
L26.9425 21.5575
" />
<path d="M26.9425 21.5575
L26.8216 21.6180
" />
<path d="M28.9987 21.1947
L27.9101 22.8275
" />
<path d="M30.1477 22.4042
L30.0873 22.4647
" />
<path d="M30.0873 22.4647
L29.9058 22.5251
" />
<path d="M29.9058 22.5251
L29.7849 22.5251
" />
<path d="M29.7849 22.5251
L29.6035 22.4647
" />
<path d="M29.6035 22.4647
L29.4825 22.3437
" />
<path d="M29.4825 22.3437
L29.4220 22.2227
" />
<path d="M29.4220 22.2227
L29.3616 21.9808
" />
<path d="M29.3616 21.9808
L29.3616 21.7994
" />
<path d="M29.3616 21.7994
L29.4220 21.5575
" />
<path d="M29.4220 21.5575
L29.4825 21.4366
" />
<path d="M29.4825 21.4366
L29.6035 21.3156
" />
<path d="M29.6035 21.3156
L29.7849 21.2551
" />
<path d="M29.7849 21.2551
L29.9058 21.2551
" />
<path d="M29.9058 21.2551
L30.0873 21.3156
" />
<path d="M30.0873 21.3156
L30.1477 21.3761
" />
<path d="M31.2968 22.5251
L30.6920 22.5251
" />
<path d="M30.6920 22.5251
L30.6920 21.2551
" />
<path d="M31.7201 22.5251
L31.7201 21.2551
" />
<path d="M32.4458 22.5251
L31.9016 21.7994
" />
<path d="M32.4458 21.2551
L31.7201 21.9808
" />
<path d="M32.9901 22.5251
L32.9901 21.2551
" />
</g><text x="19.7485" y="21.6916"
textLength="2.6222" font-size="1.6933" lengthAdjust="spacingAndGlyphs"
text-anchor="middle" opacity="0">16</text>
<g class="stroked-text"><desc>16</desc>
<path d="M19.5066 21.5281
L18.7809 21.5281
" />
<path d="M19.1437 21.5281
L19.1437 20.2581
" />
<path d="M19.1437 20.2581
L19.0228 20.4396
" />
<path d="M19.0228 20.4396
L18.9018 20.5605
" />
<path d="M18.9018 20.5605
L18.7809 20.6210
" />
<path d="M20.5951 20.2581
L20.3532 20.2581
" />
<path d="M20.3532 20.2581
L20.2323 20.3186
" />
<path d="M20.2323 20.3186
L20.1718 20.3791
" />
<path d="M20.1718 20.3791
L20.0508 20.5605
" />
<path d="M20.0508 20.5605
L19.9904 20.8024
" />
<path d="M19.9904 20.8024
L19.9904 21.2862
" />
<path d="M19.9904 21.2862
L20.0508 21.4072
" />
<path d="M20.0508 21.4072
L20.1113 21.4677
" />
<path d="M20.1113 21.4677
L20.2323 21.5281
" />
<path d="M20.2323 21.5281
L20.4742 21.5281
" />
<path d="M20.4742 21.5281
L20.5951 21.4677
" />
<path d="M20.5951 21.4677
L20.6556 21.4072
" />
<path d="M20.6556 21.4072
L20.7161 21.2862
" />
<path d="M20.7161 21.2862
L20.7161 20.9838
" />
<path d="M20.7161 20.9838
L20.6556 20.8629
" />
<path d="M20.6556 20.8629
L20.5951 20.8024
" />
<path d="M20.5951 20.8024
L20.4742 20.7419
" />
<path d="M20.4742 20.7419
L20.2323 20.7419
" />
<path d="M20.2323 20.7419
L20.1113 20.8024
" />
<path d="M20.1113 20.8024
L20.0508 20.8629
" />
<path d="M20.0508 20.8629
L19.9904 20.9838
" />
</g><path d="M54.6735 14.3256
L58.4835 14.3256
" />
<text x="53.6575" y="14.9606"
textLength="8.7304" font-size="1.6933" lengthAdjust="spacingAndGlyphs"
text-anchor="end" opacity="0">AN0/RA0</text>
<g class="stroked-text"><desc>AN0/RA0</desc>
<path d="M45.2720 14.5423
L45.8767 14.5423
" />
<path d="M45.1510 14.9051
L45.5743 13.6351
" />
<path d="M45.5743 13.6351
L45.9977 14.9051
" />
<path d="M46.4210 14.9051
L46.4210 13.6351
" />
<path d="M46.4210 13.6351
L47.1467 14.9051
" />
<path d="M47.1467 14.9051
L47.1467 13.6351
" />
<path d="M47.9934 13.6351
L48.1144 13.6351
" />
<path d="M48.1144 13.6351
L48.2353 13.6956
" />
<path d="M48.2353 13.6956
L48.2958 13.7561
" />
<path d="M48.2958 13.7561
L48.3563 13.8770
" />
<path d="M48.3563 13.8770
L48.4168 14.1189
" />
<path d="M48.4168 14.1189
L48.4168 14.4213
" />
<path d="M48.4168 14.4213
L48.3563 14.6632
" />
<path d="M48.3563 14.6632
L48.2958 14.7842
" />
<path d="M48.2958 14.7842
L48.2353 14.8447
" />
<path d="M48.2353 14.8447
L48.1144 14.9051
" />
<path d="M48.1144 14.9051
L47.9934 14.9051
" />
<path d="M47.9934 14.9051
L47.8725 14.8447
" />
<path d="M47.8725 14.8447
L47.8120 14.7842
" />
<path d="M47.8120 14.7842
L47.7515 14.6632
" />
<path d="M47.7515 14.6632
L47.6911 14.4213
" />
<path d="M47.6911 14.4213
L47.6911 14.1189
" />
<path d="M47.6911 14.1189
L47.7515 13.8770
" />
<path d="M47.7515 13.8770
L47.8120 13.7561
" />
<path d="M47.8120 13.7561
L47.8725 13.6956
" />
<path d="M47.8725 13.6956
L47.9934 13.6351
" />
<path d="M49.8682 13.5747
L48.7796 15.2075
" />
<path d="M51.0172 14.9051
L50.5939 14.3004
" />
<path d="M50.2915 14.9051
L50.2915 13.6351
" />
<path d="M50.2915 13.6351
L50.7753 13.6351
" />
<path d="M50.7753 13.6351
L50.8963 13.6956
" />
<path d="M50.8963 13.6956
L50.9568 13.7561
" />
<path d="M50.9568 13.7561
L51.0172 13.8770
" />
<path d="M51.0172 13.8770
L51.0172 14.0585
" />
<path d="M51.0172 14.0585
L50.9568 14.1794
" />
<path d="M50.9568 14.1794
L50.8963 14.2399
" />
<path d="M50.8963 14.2399
L50.7753 14.3004
" />
<path d="M50.7753 14.3004
L50.2915 14.3004
" />
<path d="M51.5011 14.5423
L52.1058 14.5423
" />
<path d="M51.3801 14.9051
L51.8034 13.6351
" />
<path d="M51.8034 13.6351
L52.2268 14.9051
" />
<path d="M52.8920 13.6351
L53.0130 13.6351
" />
<path d="M53.0130 13.6351
L53.1339 13.6956
" />
<path d="M53.1339 13.6956
L53.1944 13.7561
" />
<path d="M53.1944 13.7561
L53.2549 13.8770
" />
<path d="M53.2549 13.8770
L53.3154 14.1189
" />
<path d="M53.3154 14.1189
L53.3154 14.4213
" />
<path d="M53.3154 14.4213
L53.2549 14.6632
" />
<path d="M53.2549 14.6632
L53.1944 14.7842
" />
<path d="M53.1944 14.7842
L53.1339 14.8447
" />
<path d="M53.1339 14.8447
L53.0130 14.9051
" />
<path d="M53.0130 14.9051
L52.8920 14.9051
" />
<path d="M52.8920 14.9051
L52.7711 14.8447
" />
<path d="M52.7711 14.8447
L52.7106 14.7842
" />
<path d="M52.7106 14.7842
L52.6501 14.6632
" />
<path d="M52.6501 14.6632
L52.5897 14.4213
" />
<path d="M52.5897 14.4213
L52.5897 14.1189
" />
<path d="M52.5897 14.1189
L52.6501 13.8770
" />
<path d="M52.6501 13.8770
L52.7106 13.7561
" />
<path d="M52.7106 13.7561
L52.7711 13.6956
" />
<path d="M52.7711 13.6956
L52.8920 13.6351
" />
</g><text x="56.5785" y="14.0716"
textLength="2.6222" font-size="1.6933" lengthAdjust="spacingAndGlyphs"
text-anchor="middle" opacity="0">17</text>
<g class="stroked-text"><desc>17</desc>
<path d="M56.3366 13.9081
L55.6109 13.9081
" />
<path d="M55.9737 13.9081
L55.9737 12.6381
" />
<path d="M55.9737 12.6381
L55.8528 12.8196
" />
<path d="M55.8528 12.8196
L55.7318 12.9405
" />
<path d="M55.7318 12.9405
L55.6109 13.0010
" />
<path d="M56.7599 12.6381
L57.6065 12.6381
" />
<path d="M57.6065 12.6381
L57.0623 13.9081
" />
</g><path d="M54.6735 16.8656
L58.4835 16.8656
" />
<text x="53.6575" y="17.5006"
textLength="8.7304" font-size="1.6933" lengthAdjust="spacingAndGlyphs"
text-anchor="end" opacity="0">AN1/RA1</text>
<g class="stroked-text"><desc>AN1/RA1</desc>
<path d="M45.2720 17.0823
L45.8767 17.0823
" />
<path d="M45.1510 17.4451
L45.5743 16.1751
" />
<path d="M45.5743 16.1751
L45.9977 17.4451
" />
<path d="M46.4210 17.4451
L46.4210 16.1751
" />
<path d="M46.4210 16.1751
L47.1467 17.4451
" />
<path d="M47.1467 17.4451
L47.1467 16.1751
" />
<path d="M48.4168 17.4451
L47.6911 17.4451
" />
<path d="M48.0539 17.4451
L48.0539 16.1751
" />
<path d="M48.0539 16.1751
L47.9330 16.3566
" />
<path d="M47.9330 16.3566
L47.8120 16.4775
" />
<path d="M47.8120 16.4775
L47.6911 16.5380
" />
<path d="M49.8682 16.1147
L48.7796 17.7475
" />
<path d="M51.0172 17.4451
L50.5939 16.8404
" />
<path d="M50.2915 17.4451
L50.2915 16.1751
" />
<path d="M50.2915 16.1751
L50.7753 16.1751
" />
<path d="M50.7753 16.1751
L50.8963 16.2356
" />
<path d="M50.8963 16.2356
L50.9568 16.2961
" />
<path d="M50.9568 16.2961
L51.0172 16.4170
" />
<path d="M51.0172 16.4170
L51.0172 16.5985
" />
<path d="M51.0172 16.5985
L50.9568 16.7194
" />
<path d="M50.9568 16.7194
L50.8963 16.7799
" />
<path d="M50.8963 16.7799
L50.7753 16.8404
" />
<path d="M50.7753 16.8404
L50.2915 16.8404
" />
<path d="M51.5011 17.0823
L52.1058 17.0823
" />
<path d="M51.3801 17.4451
L51.8034 16.1751
" />
<path d="M51.8034 16.1751
L52.2268 17.4451
" />
<path d="M53.3154 17.4451
L52.5897 17.4451
" />
<path d="M52.9525 17.4451
L52.9525 16.1751
" />
<path d="M52.9525 16.1751
L52.8316 16.3566
" />
<path d="M52.8316 16.3566
L52.7106 16.4775
" />
<path d="M52.7106 16.4775
L52.5897 16.5380
" />
</g><text x="56.5785" y="16.6116"
textLength="2.6222" font-size="1.6933" lengthAdjust="spacingAndGlyphs"
text-anchor="middle" opacity="0">18</text>
<g class="stroked-text"><desc>18</desc>
<path d="M56.3366 16.4481
L55.6109 16.4481
" />
<path d="M55.9737 16.4481
L55.9737 15.1781
" />
<path d="M55.9737 15.1781
L55.8528 15.3596
" />
<path d="M55.8528 15.3596
L55.7318 15.4805
" />
<path d="M55.7318 15.4805
L55.6109 15.5410
" />
<path d="M57.0623 15.7224
L56.9413 15.6619
" />
<path d="M56.9413 15.6619
L56.8808 15.6015
" />
<path d="M56.8808 15.6015
L56.8204 15.4805
" />
<path d="M56.8204 15.4805
L56.8204 15.4200
" />
<path d="M56.8204 15.4200
L56.8808 15.2991
" />
<path d="M56.8808 15.2991
L56.9413 15.2386
" />
<path d="M56.9413 15.2386
L57.0623 15.1781
" />
<path d="M57.0623 15.1781
L57.3042 15.1781
" />
<path d="M57.3042 15.1781
L57.4251 15.2386
" />
<path d="M57.4251 15.2386
L57.4856 15.2991
" />
<path d="M57.4856 15.2991
L57.5461 15.4200
" />
<path d="M57.5461 15.4200
L57.5461 15.4805
" />
<path d="M57.5461 15.4805
L57.4856 15.6015
" />
<path d="M57.4856 15.6015
L57.4251 15.6619
" />
<path d="M57.4251 15.6619
L57.3042 15.7224
" />
<path d="M57.3042 15.7224
L57.0623 15.7224
" />
<path d="M57.0623 15.7224
L56.9413 15.7829
" />
<path d="M56.9413 15.7829
L56.8808 15.8434
" />
<path d="M56.8808 15.8434
L56.8204 15.9643
" />
<path d="M56.8204 15.9643
L56.8204 16.2062
" />
<path d="M56.8204 16.2062
L56.8808 16.3272
" />
<path d="M56.8808 16.3272
L56.9413 16.3877
" />
<path d="M56.9413 16.3877
L57.0623 16.4481
" />
<path d="M57.0623 16.4481
L57.3042 16.4481
" />
<path d="M57.3042 16.4481
L57.4251 16.3877
" />
<path d="M57.4251 16.3877
L57.4856 16.3272
" />
<path d="M57.4856 16.3272
L57.5461 16.2062
" />
<path d="M57.5461 16.2062
L57.5461 15.9643
" />
<path d="M57.5461 15.9643
L57.4856 15.8434
" />
<path d="M57.4856 15.8434
L57.4251 15.7829
" />
<path d="M57.4251 15.7829
L57.3042 15.7224
" />
</g><path d="M54.6735 21.9456
L58.4835 21.9456
" />
<text x="53.6575" y="22.5806"
textLength="13.7500" font-size="1.6933" lengthAdjust="spacingAndGlyphs"
text-anchor="end" opacity="0">Vref/AN3/RA3</text>
<g class="stroked-text"><desc>Vref/AN3/RA3</desc>
<path d="M40.1314 21.2551
L40.5547 22.5251
" />
<path d="M40.5547 22.5251
L40.9781 21.2551
" />
<path d="M41.4014 22.5251
L41.4014 21.6785
" />
<path d="M41.4014 21.9204
L41.4619 21.7994
" />
<path d="M41.4619 21.7994
L41.5224 21.7389
" />
<path d="M41.5224 21.7389
L41.6433 21.6785
" />
<path d="M41.6433 21.6785
L41.7643 21.6785
" />
<path d="M42.6714 22.4647
L42.5505 22.5251
" />
<path d="M42.5505 22.5251
L42.3086 22.5251
" />
<path d="M42.3086 22.5251
L42.1876 22.4647
" />
<path d="M42.1876 22.4647
L42.1272 22.3437
" />
<path d="M42.1272 22.3437
L42.1272 21.8599
" />
<path d="M42.1272 21.8599
L42.1876 21.7389
" />
<path d="M42.1876 21.7389
L42.3086 21.6785
" />
<path d="M42.3086 21.6785
L42.5505 21.6785
" />
<path d="M42.5505 21.6785
L42.6714 21.7389
" />
<path d="M42.6714 21.7389
L42.7319 21.8599
" />
<path d="M42.7319 21.8599
L42.7319 21.9808
" />
<path d="M42.7319 21.9808
L42.1272 22.1018
" />
<path d="M43.0948 21.6785
L43.5786 21.6785
" />
<path d="M43.2762 22.5251
L43.2762 21.4366
" />
<path d="M43.2762 21.4366
L43.3367 21.3156
" />
<path d="M43.3367 21.3156
L43.4577 21.2551
" />
<path d="M43.4577 21.2551
L43.5786 21.2551
" />
<path d="M44.9091 21.1947
L43.8205 22.8275
" />
<path d="M45.2720 22.1623
L45.8767 22.1623
" />
<path d="M45.1510 22.5251
L45.5743 21.2551
" />
<path d="M45.5743 21.2551
L45.9977 22.5251
" />
<path d="M46.4210 22.5251
L46.4210 21.2551
" />
<path d="M46.4210 21.2551
L47.1467 22.5251
" />
<path d="M47.1467 22.5251
L47.1467 21.2551
" />
<path d="M47.6306 21.2551
L48.4168 21.2551
" />
<path d="M48.4168 21.2551
L47.9934 21.7389
" />
<path d="M47.9934 21.7389
L48.1749 21.7389
" />
<path d="M48.1749 21.7389
L48.2958 21.7994
" />
<path d="M48.2958 21.7994
L48.3563 21.8599
" />
<path d="M48.3563 21.8599
L48.4168 21.9808
" />
<path d="M48.4168 21.9808
L48.4168 22.2832
" />
<path d="M48.4168 22.2832
L48.3563 22.4042
" />
<path d="M48.3563 22.4042
L48.2958 22.4647
" />
<path d="M48.2958 22.4647
L48.1749 22.5251
" />
<path d="M48.1749 22.5251
L47.8120 22.5251
" />
<path d="M47.8120 22.5251
L47.6911 22.4647
" />
<path d="M47.6911 22.4647
L47.6306 22.4042
" />
<path d="M49.8682 21.1947
L48.7796 22.8275
" />
<path d="M51.0172 22.5251
L50.5939 21.9204
" />
<path d="M50.2915 22.5251
L50.2915 21.2551
" />
<path d="M50.2915 21.2551
L50.7753 21.2551
" />
<path d="M50.7753 21.2551
L50.8963 21.3156
" />
<path d="M50.8963 21.3156
L50.9568 21.3761
" />
<path d="M50.9568 21.3761
L51.0172 21.4970
" />
<path d="M51.0172 21.4970
L51.0172 21.6785
" />
<path d="M51.0172 21.6785
L50.9568 21.7994
" />
<path d="M50.9568 21.7994
L50.8963 21.8599
" />
<path d="M50.8963 21.8599
L50.7753 21.9204
" />
<path d="M50.7753 21.9204
L50.2915 21.9204
" />
<path d="M51.5011 22.1623
L52.1058 22.1623
" />
<path d="M51.3801 22.5251
L51.8034 21.2551
" />
<path d="M51.8034 21.2551
L52.2268 22.5251
" />
<path d="M52.5292 21.2551
L53.3154 21.2551
" />
<path d="M53.3154 21.2551
L52.8920 21.7389
" />
<path d="M52.8920 21.7389
L53.0735 21.7389
" />
<path d="M53.0735 21.7389
L53.1944 21.7994
" />
<path d="M53.1944 21.7994
L53.2549 21.8599
" />
<path d="M53.2549 21.8599
L53.3154 21.9808
" />
<path d="M53.3154 21.9808
L53.3154 22.2832
" />
<path d="M53.3154 22.2832
L53.2549 22.4042
" />
<path d="M53.2549 22.4042
L53.1944 22.4647
" />
<path d="M53.1944 22.4647
L53.0735 22.5251
" />
<path d="M53.0735 22.5251
L52.7106 22.5251
" />
<path d="M52.7106 22.5251
L52.5897 22.4647
" />
<path d="M52.5897 22.4647
L52.5292 22.4042
" />
</g><text x="56.5785" y="21.6916"
textLength="1.4127" font-size="1.6933" lengthAdjust="spacingAndGlyphs"
text-anchor="middle" opacity="0">2</text>
<g class="stroked-text"><desc>2</desc>
<path d="M56.2157 20.3791
L56.2761 20.3186
" />
<path d="M56.2761 20.3186
L56.3971 20.2581
" />
<path d="M56.3971 20.2581
L56.6995 20.2581
" />
<path d="M56.6995 20.2581
L56.8204 20.3186
" />
<path d="M56.8204 20.3186
L56.8809 20.3791
" />
<path d="M56.8809 20.3791
L56.9414 20.5000
" />
<path d="M56.9414 20.5000
L56.9414 20.6210
" />
<path d="M56.9414 20.6210
L56.8809 20.8024
" />
<path d="M56.8809 20.8024
L56.1552 21.5281
" />
<path d="M56.1552 21.5281
L56.9414 21.5281
" />
</g><path d="M54.6735 24.4856
L58.4835 24.4856
" />
<text x="53.6575" y="25.1206"
textLength="10.4237" font-size="1.6933" lengthAdjust="spacingAndGlyphs"
text-anchor="end" opacity="0">T0CKI/RA4</text>
<g class="stroked-text"><desc>T0CKI/RA4</desc>
<path d="M43.4577 23.7951
L44.1834 23.7951
" />
<path d="M43.8206 25.0651
L43.8206 23.7951
" />
<path d="M44.8486 23.7951
L44.9696 23.7951
" />
<path d="M44.9696 23.7951
L45.0905 23.8556
" />
<path d="M45.0905 23.8556
L45.1510 23.9161
" />
<path d="M45.1510 23.9161
L45.2115 24.0370
" />
<path d="M45.2115 24.0370
L45.2720 24.2789
" />
<path d="M45.2720 24.2789
L45.2720 24.5813
" />
<path d="M45.2720 24.5813
L45.2115 24.8232
" />
<path d="M45.2115 24.8232
L45.1510 24.9442
" />
<path d="M45.1510 24.9442
L45.0905 25.0047
" />
<path d="M45.0905 25.0047
L44.9696 25.0651
" />
<path d="M44.9696 25.0651
L44.8486 25.0651
" />
<path d="M44.8486 25.0651
L44.7277 25.0047
" />
<path d="M44.7277 25.0047
L44.6672 24.9442
" />
<path d="M44.6672 24.9442
L44.6067 24.8232
" />
<path d="M44.6067 24.8232
L44.5463 24.5813
" />
<path d="M44.5463 24.5813
L44.5463 24.2789
" />
<path d="M44.5463 24.2789
L44.6067 24.0370
" />
<path d="M44.6067 24.0370
L44.6672 23.9161
" />
<path d="M44.6672 23.9161
L44.7277 23.8556
" />
<path d="M44.7277 23.8556
L44.8486 23.7951
" />
<path d="M46.5419 24.9442
L46.4815 25.0047
" />
<path d="M46.4815 25.0047
L46.3000 25.0651
" />
<path d="M46.3000 25.0651
L46.1791 25.0651
" />
<path d="M46.1791 25.0651
L45.9977 25.0047
" />
<path d="M45.9977 25.0047
L45.8767 24.8837
" />
<path d="M45.8767 24.8837
L45.8162 24.7627
" />
<path d="M45.8162 24.7627
L45.7558 24.5208
" />
<path d="M45.7558 24.5208
L45.7558 24.3394
" />
<path d="M45.7558 24.3394
L45.8162 24.0975
" />
<path d="M45.8162 24.0975
L45.8767 23.9766
" />
<path d="M45.8767 23.9766
L45.9977 23.8556
" />
<path d="M45.9977 23.8556
L46.1791 23.7951
" />
<path d="M46.1791 23.7951
L46.3000 23.7951
" />
<path d="M46.3000 23.7951
L46.4815 23.8556
" />
<path d="M46.4815 23.8556
L46.5419 23.9161
" />
<path d="M47.0862 25.0651
L47.0862 23.7951
" />
<path d="M47.8119 25.0651
L47.2677 24.3394
" />
<path d="M47.8119 23.7951
L47.0862 24.5208
" />
<path d="M48.3562 25.0651
L48.3562 23.7951
" />
<path d="M49.8682 23.7347
L48.7796 25.3675
" />
<path d="M51.0172 25.0651
L50.5939 24.4604
" />
<path d="M50.2915 25.0651
L50.2915 23.7951
" />
<path d="M50.2915 23.7951
L50.7753 23.7951
" />
<path d="M50.7753 23.7951
L50.8963 23.8556
" />
<path d="M50.8963 23.8556
L50.9568 23.9161
" />
<path d="M50.9568 23.9161
L51.0172 24.0370
" />
<path d="M51.0172 24.0370
L51.0172 24.2185
" />
<path d="M51.0172 24.2185
L50.9568 24.3394
" />
<path d="M50.9568 24.3394
L50.8963 24.3999
" />
<path d="M50.8963 24.3999
L50.7753 24.4604
" />
<path d="M50.7753 24.4604
L50.2915 24.4604
" />
<path d="M51.5011 24.7023
L52.1058 24.7023
" />
<path d="M51.3801 25.0651
L51.8034 23.7951
" />
<path d="M51.8034 23.7951
L52.2268 25.0651
" />
<path d="M53.1944 24.2185
L53.1944 25.0651
" />
<path d="M52.8920 23.7347
L52.5897 24.6418
" />
<path d="M52.5897 24.6418
L53.3758 24.6418
" />
</g><text x="56.5785" y="24.2316"
textLength="1.4127" font-size="1.6933" lengthAdjust="spacingAndGlyphs"
text-anchor="middle" opacity="0">3</text>
<g class="stroked-text"><desc>3</desc>
<path d="M56.1552 22.7981
L56.9414 22.7981
" />
<path d="M56.9414 22.7981
L56.5180 23.2819
" />
<path d="M56.5180 23.2819
L56.6995 23.2819
" />
<path d="M56.6995 23.2819
L56.8204 23.3424
" />
<path d="M56.8204 23.3424
L56.8809 23.4029
" />
<path d="M56.8809 23.4029
L56.9414 23.5238
" />
<path d="M56.9414 23.5238
L56.9414 23.8262
" />
<path d="M56.9414 23.8262
L56.8809 23.9472
" />
<path d="M56.8809 23.9472
L56.8204 24.0077
" />
<path d="M56.8204 24.0077
L56.6995 24.0681
" />
<path d="M56.6995 24.0681
L56.3366 24.0681
" />
<path d="M56.3366 24.0681
L56.2157 24.0077
" />
<path d="M56.2157 24.0077
L56.1552 23.9472
" />
</g><path d="M21.6535 14.3256
L17.8435 14.3256
" />
<text x="22.6695" y="14.9606"
textLength="9.9398" font-size="1.6933" lengthAdjust="spacingAndGlyphs"
text-anchor="start" opacity="0">~{MCLR}/Vpp</text>
<g class="stroked-text"><desc>~{MCLR}/Vpp</desc>
<path d="M23.0720 14.9051
L23.0720 13.6351
" />
<path d="M23.0720 13.6351
L23.4954 14.5423
" />
<path d="M23.4954 14.5423
L23.9187 13.6351
" />
<path d="M23.9187 13.6351
L23.9187 14.9051
" />
<path d="M25.2491 14.7842
L25.1887 14.8447
" />
<path d="M25.1887 14.8447
L25.0072 14.9051
" />
<path d="M25.0072 14.9051
L24.8863 14.9051
" />
<path d="M24.8863 14.9051
L24.7049 14.8447
" />
<path d="M24.7049 14.8447
L24.5839 14.7237
" />
<path d="M24.5839 14.7237
L24.5234 14.6027
" />
<path d="M24.5234 14.6027
L24.4630 14.3608
" />
<path d="M24.4630 14.3608
L24.4630 14.1794
" />
<path d="M24.4630 14.1794
L24.5234 13.9375
" />
<path d="M24.5234 13.9375
L24.5839 13.8166
" />
<path d="M24.5839 13.8166
L24.7049 13.6956
" />
<path d="M24.7049 13.6956
L24.8863 13.6351
" />
<path d="M24.8863 13.6351
L25.0072 13.6351
" />
<path d="M25.0072 13.6351
L25.1887 13.6956
" />
<path d="M25.1887 13.6956
L25.2491 13.7561
" />
<path d="M26.3982 14.9051
L25.7934 14.9051
" />
<path d="M25.7934 14.9051
L25.7934 13.6351
" />
<path d="M27.5472 14.9051
L27.1239 14.3004
" />
<path d="M26.8215 14.9051
L26.8215 13.6351
" />
<path d="M26.8215 13.6351
L27.3053 13.6351
" />
<path d="M27.3053 13.6351
L27.4263 13.6956
" />
<path d="M27.4263 13.6956
L27.4868 13.7561
" />
<path d="M27.4868 13.7561
L27.5472 13.8770
" />
<path d="M27.5472 13.8770
L27.5472 14.0585
" />
<path d="M27.5472 14.0585
L27.4868 14.1794
" />
<path d="M27.4868 14.1794
L27.4263 14.2399
" />
<path d="M27.4263 14.2399
L27.3053 14.3004
" />
<path d="M27.3053 14.3004
L26.8215 14.3004
" />
<path d="M22.8967 13.2826
L27.6622 13.2826
" />
<path d="M28.9987 13.5747
L27.9101 15.2075
" />
<path d="M29.2406 13.6351
L29.6639 14.9051
" />
<path d="M29.6639 14.9051
L30.0873 13.6351
" />
<path d="M30.5106 14.0585
L30.5106 15.3285
" />
<path d="M30.5106 14.1189
L30.6316 14.0585
" />
<path d="M30.6316 14.0585
L30.8735 14.0585
" />
<path d="M30.8735 14.0585
L30.9944 14.1189
" />
<path d="M30.9944 14.1189
L31.0549 14.1794
" />
<path d="M31.0549 14.1794
L31.1154 14.3004
" />
<path d="M31.1154 14.3004
L31.1154 14.6632
" />
<path d="M31.1154 14.6632
L31.0549 14.7842
" />
<path d="M31.0549 14.7842
L30.9944 14.8447
" />
<path d="M30.9944 14.8447
L30.8735 14.9051
" />
<path d="M30.8735 14.9051
L30.6316 14.9051
" />
<path d="M30.6316 14.9051
L30.5106 14.8447
" />
<path d="M31.6596 14.0585
L31.6596 15.3285
" />
<path d="M31.6596 14.1189
L31.7806 14.0585
" />
<path d="M31.7806 14.0585
L32.0225 14.0585
" />
<path d="M32.0225 14.0585
L32.1434 14.1189
" />
<path d="M32.1434 14.1189
L32.2039 14.1794
" />
<path d="M32.2039 14.1794
L32.2644 14.3004
" />
<path d="M32.2644 14.3004
L32.2644 14.6632
" />
<path d="M32.2644 14.6632
L32.2039 14.7842
" />
<path d="M32.2039 14.7842
L32.1434 14.8447
" />
<path d="M32.1434 14.8447
L32.0225 14.9051
" />
<path d="M32.0225 14.9051
L31.7806 14.9051
" />
<path d="M31.7806 14.9051
L31.6596 14.8447
" />
</g><text x="19.7485" y="14.0716"
textLength="1.4127" font-size="1.6933" lengthAdjust="spacingAndGlyphs"
text-anchor="middle" opacity="0">4</text>
<g class="stroked-text"><desc>4</desc>
<path d="M19.9904 13.0615
L19.9904 13.9081
" />
<path d="M19.6880 12.5777
L19.3857 13.4848
" />
<path d="M19.3857 13.4848
L20.1718 13.4848
" />
</g><path d="M38.1635 51.1556
L38.1635 54.9656
" />
<g transform="rotate(-90.000000 38.1635 50.1396)">
<text x="38.1635" y="50.7746"
textLength="3.7108" font-size="1.6933" lengthAdjust="spacingAndGlyphs"
text-anchor="start" opacity="0">VSS</text>
</g>
<g class="stroked-text"><desc>VSS</desc>
<path d="M37.4730 49.9184
L38.7430 49.4951
" />
<path d="M38.7430 49.4951
L37.4730 49.0717
" />
<path d="M38.6826 48.7088
L38.7430 48.5274
" />
<path d="M38.7430 48.5274
L38.7430 48.2250
" />
<path d="M38.7430 48.2250
L38.6826 48.1041
" />
<path d="M38.6826 48.1041
L38.6221 48.0436
" />
<path d="M38.6221 48.0436
L38.5011 47.9831
" />
<path d="M38.5011 47.9831
L38.3802 47.9831
" />
<path d="M38.3802 47.9831
L38.2592 48.0436
" />
<path d="M38.2592 48.0436
L38.1987 48.1041
" />
<path d="M38.1987 48.1041
L38.1383 48.2250
" />
<path d="M38.1383 48.2250
L38.0778 48.4669
" />
<path d="M38.0778 48.4669
L38.0173 48.5879
" />
<path d="M38.0173 48.5879
L37.9568 48.6484
" />
<path d="M37.9568 48.6484
L37.8359 48.7088
" />
<path d="M37.8359 48.7088
L37.7149 48.7088
" />
<path d="M37.7149 48.7088
L37.5940 48.6484
" />
<path d="M37.5940 48.6484
L37.5335 48.5879
" />
<path d="M37.5335 48.5879
L37.4730 48.4669
" />
<path d="M37.4730 48.4669
L37.4730 48.1646
" />
<path d="M37.4730 48.1646
L37.5335 47.9831
" />
<path d="M38.6826 47.4993
L38.7430 47.3179
" />
<path d="M38.7430 47.3179
L38.7430 47.0155
" />
<path d="M38.7430 47.0155
L38.6826 46.8946
" />
<path d="M38.6826 46.8946
L38.6221 46.8341
" />
<path d="M38.6221 46.8341
L38.5011 46.7736
" />
<path d="M38.5011 46.7736
L38.3802 46.7736
" />
<path d="M38.3802 46.7736
L38.2592 46.8341
" />
<path d="M38.2592 46.8341
L38.1987 46.8946
" />
<path d="M38.1987 46.8946
L38.1383 47.0155
" />
<path d="M38.1383 47.0155
L38.0778 47.2574
" />
<path d="M38.0778 47.2574
L38.0173 47.3784
" />
<path d="M38.0173 47.3784
L37.9568 47.4389
" />
<path d="M37.9568 47.4389
L37.8359 47.4993
" />
<path d="M37.8359 47.4993
L37.7149 47.4993
" />
<path d="M37.7149 47.4993
L37.5940 47.4389
" />
<path d="M37.5940 47.4389
L37.5335 47.3784
" />
<path d="M37.5335 47.3784
L37.4730 47.2574
" />
<path d="M37.4730 47.2574
L37.4730 46.9551
" />
<path d="M37.4730 46.9551
L37.5335 46.7736
" />
</g><g transform="rotate(-90.000000 37.9095 53.0606)">
<text x="37.9095" y="53.0606"
textLength="1.4127" font-size="1.6933" lengthAdjust="spacingAndGlyphs"
text-anchor="middle" opacity="0">5</text>
</g>
<g class="stroked-text"><desc>5</desc>
<path d="M36.4760 52.7581
L36.4760 53.3629
" />
<path d="M36.4760 53.3629
L37.0808 53.4233
" />
<path d="M37.0808 53.4233
L37.0203 53.3629
" />
<path d="M37.0203 53.3629
L36.9598 53.2419
" />
<path d="M36.9598 53.2419
L36.9598 52.9395
" />
<path d="M36.9598 52.9395
L37.0203 52.8186
" />
<path d="M37.0203 52.8186
L37.0808 52.7581
" />
<path d="M37.0808 52.7581
L37.2017 52.6976
" />
<path d="M37.2017 52.6976
L37.5041 52.6976
" />
<path d="M37.5041 52.6976
L37.6251 52.7581
" />
<path d="M37.6251 52.7581
L37.6856 52.8186
" />
<path d="M37.6856 52.8186
L37.7460 52.9395
" />
<path d="M37.7460 52.9395
L37.7460 53.2419
" />
<path d="M37.7460 53.2419
L37.6856 53.3629
" />
<path d="M37.6856 53.3629
L37.6251 53.4233
" />
</g><path d="M54.6735 29.5656
L58.4835 29.5656
" />
<text x="53.6575" y="30.2006"
textLength="17.9832" font-size="1.6933" lengthAdjust="spacingAndGlyphs"
text-anchor="end" opacity="0">INT/~{ECCPAS2}/RB0</text>
<g class="stroked-text"><desc>INT/~{ECCPAS2}/RB0</desc>
<path d="M36.0796 30.1451
L36.0796 28.8751
" />
<path d="M36.6844 30.1451
L36.6844 28.8751
" />
<path d="M36.6844 28.8751
L37.4101 30.1451
" />
<path d="M37.4101 30.1451
L37.4101 28.8751
" />
<path d="M37.8335 28.8751
L38.5592 28.8751
" />
<path d="M38.1964 30.1451
L38.1964 28.8751
" />
<path d="M39.8897 28.8147
L38.8011 30.4475
" />
<path d="M40.3130 29.4799
L40.7364 29.4799
" />
<path d="M40.9178 30.1451
L40.3130 30.1451
" />
<path d="M40.3130 30.1451
L40.3130 28.8751
" />
<path d="M40.3130 28.8751
L40.9178 28.8751
" />
<path d="M42.1877 30.0242
L42.1273 30.0847
" />
<path d="M42.1273 30.0847
L41.9458 30.1451
" />
<path d="M41.9458 30.1451
L41.8249 30.1451
" />
<path d="M41.8249 30.1451
L41.6435 30.0847
" />
<path d="M41.6435 30.0847
L41.5225 29.9637
" />
<path d="M41.5225 29.9637
L41.4620 29.8427
" />
<path d="M41.4620 29.8427
L41.4016 29.6008
" />
<path d="M41.4016 29.6008
L41.4016 29.4194
" />
<path d="M41.4016 29.4194
L41.4620 29.1775
" />
<path d="M41.4620 29.1775
L41.5225 29.0566
" />
<path d="M41.5225 29.0566
L41.6435 28.9356
" />
<path d="M41.6435 28.9356
L41.8249 28.8751
" />
<path d="M41.8249 28.8751
L41.9458 28.8751
" />
<path d="M41.9458 28.8751
L42.1273 28.9356
" />
<path d="M42.1273 28.9356
L42.1877 28.9961
" />
<path d="M43.4577 30.0242
L43.3973 30.0847
" />
<path d="M43.3973 30.0847
L43.2158 30.1451
" />
<path d="M43.2158 30.1451
L43.0949 30.1451
" />
<path d="M43.0949 30.1451
L42.9135 30.0847
" />
<path d="M42.9135 30.0847
L42.7925 29.9637
" />
<path d="M42.7925 29.9637
L42.7320 29.8427
" />
<path d="M42.7320 29.8427
L42.6716 29.6008
" />
<path d="M42.6716 29.6008
L42.6716 29.4194
" />
<path d="M42.6716 29.4194
L42.7320 29.1775
" />
<path d="M42.7320 29.1775
L42.7925 29.0566
" />
<path d="M42.7925 29.0566
L42.9135 28.9356
" />
<path d="M42.9135 28.9356
L43.0949 28.8751
" />
<path d="M43.0949 28.8751
L43.2158 28.8751
" />
<path d="M43.2158 28.8751
L43.3973 28.9356
" />
<path d="M43.3973 28.9356
L43.4577 28.9961
" />
<path d="M44.0020 30.1451
L44.0020 28.8751
" />
<path d="M44.0020 28.8751
L44.4858 28.8751
" />
<path d="M44.4858 28.8751
L44.6068 28.9356
" />
<path d="M44.6068 28.9356
L44.6673 28.9961
" />
<path d="M44.6673 28.9961
L44.7277 29.1170
" />
<path d="M44.7277 29.1170
L44.7277 29.2985
" />
<path d="M44.7277 29.2985
L44.6673 29.4194
" />
<path d="M44.6673 29.4194
L44.6068 29.4799
" />
<path d="M44.6068 29.4799
L44.4858 29.5404
" />
<path d="M44.4858 29.5404
L44.0020 29.5404
" />
<path d="M45.2116 29.7823
L45.8163 29.7823
" />
<path d="M45.0906 30.1451
L45.5139 28.8751
" />
<path d="M45.5139 28.8751
L45.9373 30.1451
" />
<path d="M46.3002 30.0847
L46.4816 30.1451
" />
<path d="M46.4816 30.1451
L46.7840 30.1451
" />
<path d="M46.7840 30.1451
L46.9049 30.0847
" />
<path d="M46.9049 30.0847
L46.9654 30.0242
" />
<path d="M46.9654 30.0242
L47.0259 29.9032
" />
<path d="M47.0259 29.9032
L47.0259 29.7823
" />
<path d="M47.0259 29.7823
L46.9654 29.6613
" />
<path d="M46.9654 29.6613
L46.9049 29.6008
" />
<path d="M46.9049 29.6008
L46.7840 29.5404
" />
<path d="M46.7840 29.5404
L46.5421 29.4799
" />
<path d="M46.5421 29.4799
L46.4211 29.4194
" />
<path d="M46.4211 29.4194
L46.3606 29.3589
" />
<path d="M46.3606 29.3589
L46.3002 29.2380
" />
<path d="M46.3002 29.2380
L46.3002 29.1170
" />
<path d="M46.3002 29.1170
L46.3606 28.9961
" />
<path d="M46.3606 28.9961
L46.4211 28.9356
" />
<path d="M46.4211 28.9356
L46.5421 28.8751
" />
<path d="M46.5421 28.8751
L46.8444 28.8751
" />
<path d="M46.8444 28.8751
L47.0259 28.9356
" />
<path d="M47.5097 28.9961
L47.5701 28.9356
" />
<path d="M47.5701 28.9356
L47.6911 28.8751
" />
<path d="M47.6911 28.8751
L47.9935 28.8751
" />
<path d="M47.9935 28.8751
L48.1144 28.9356
" />
<path d="M48.1144 28.9356
L48.1749 28.9961
" />
<path d="M48.1749 28.9961
L48.2354 29.1170
" />
<path d="M48.2354 29.1170
L48.2354 29.2380
" />
<path d="M48.2354 29.2380
L48.1749 29.4194
" />
<path d="M48.1749 29.4194
L47.4492 30.1451
" />
<path d="M47.4492 30.1451
L48.2354 30.1451
" />
<path d="M40.1377 28.5226
L48.3503 28.5226
" />
<path d="M49.6868 28.8147
L48.5982 30.4475
" />
<path d="M50.8358 30.1451
L50.4125 29.5404
" />
<path d="M50.1101 30.1451
L50.1101 28.8751
" />
<path d="M50.1101 28.8751
L50.5939 28.8751
" />
<path d="M50.5939 28.8751
L50.7149 28.9356
" />
<path d="M50.7149 28.9356
L50.7754 28.9961
" />
<path d="M50.7754 28.9961
L50.8358 29.1170
" />
<path d="M50.8358 29.1170
L50.8358 29.2985
" />
<path d="M50.8358 29.2985
L50.7754 29.4194
" />
<path d="M50.7754 29.4194
L50.7149 29.4799
" />
<path d="M50.7149 29.4799
L50.5939 29.5404
" />
<path d="M50.5939 29.5404
L50.1101 29.5404
" />
<path d="M51.8035 29.4799
L51.9849 29.5404
" />
<path d="M51.9849 29.5404
L52.0454 29.6008
" />
<path d="M52.0454 29.6008
L52.1058 29.7218
" />
<path d="M52.1058 29.7218
L52.1058 29.9032
" />
<path d="M52.1058 29.9032
L52.0454 30.0242
" />
<path d="M52.0454 30.0242
L51.9849 30.0847
" />
<path d="M51.9849 30.0847
L51.8639 30.1451
" />
<path d="M51.8639 30.1451
L51.3801 30.1451
" />
<path d="M51.3801 30.1451
L51.3801 28.8751
" />
<path d="M51.3801 28.8751
L51.8035 28.8751
" />
<path d="M51.8035 28.8751
L51.9244 28.9356
" />
<path d="M51.9244 28.9356
L51.9849 28.9961
" />
<path d="M51.9849 28.9961
L52.0454 29.1170
" />
<path d="M52.0454 29.1170
L52.0454 29.2380
" />
<path d="M52.0454 29.2380
L51.9849 29.3589
" />
<path d="M51.9849 29.3589
L51.9244 29.4194
" />
<path d="M51.9244 29.4194
L51.8035 29.4799
" />
<path d="M51.8035 29.4799
L51.3801 29.4799
" />
<path d="M52.8920 28.8751
L53.0130 28.8751
" />
<path d="M53.0130 28.8751
L53.1339 28.9356
" />
<path d="M53.1339 28.9356
L53.1944 28.9961
" />
<path d="M53.1944 28.9961
L53.2549 29.1170
" />
<path d="M53.2549 29.1170
L53.3154 29.3589
" />
<path d="M53.3154 29.3589
L53.3154 29.6613
" />
<path d="M53.3154 29.6613
L53.2549 29.9032
" />
<path d="M53.2549 29.9032
L53.1944 30.0242
" />
<path d="M53.1944 30.0242
L53.1339 30.0847
" />
<path d="M53.1339 30.0847
L53.0130 30.1451
" />
<path d="M53.0130 30.1451
L52.8920 30.1451
" />
<path d="M52.8920 30.1451
L52.7711 30.0847
" />
<path d="M52.7711 30.0847
L52.7106 30.0242
" />
<path d="M52.7106 30.0242
L52.6501 29.9032
" />
<path d="M52.6501 29.9032
L52.5897 29.6613
" />
<path d="M52.5897 29.6613
L52.5897 29.3589
" />
<path d="M52.5897 29.3589
L52.6501 29.1170
" />
<path d="M52.6501 29.1170
L52.7106 28.9961
" />
<path d="M52.7106 28.9961
L52.7711 28.9356
" />
<path d="M52.7711 28.9356
L52.8920 28.8751
" />
</g><text x="56.5785" y="29.3116"
textLength="1.4127" font-size="1.6933" lengthAdjust="spacingAndGlyphs"
text-anchor="middle" opacity="0">6</text>
<g class="stroked-text"><desc>6</desc>
<path d="M56.8204 27.8781
L56.5785 27.8781
" />
<path d="M56.5785 27.8781
L56.4576 27.9386
" />
<path d="M56.4576 27.9386
L56.3971 27.9991
" />
<path d="M56.3971 27.9991
L56.2761 28.1805
" />
<path d="M56.2761 28.1805
L56.2157 28.4224
" />
<path d="M56.2157 28.4224
L56.2157 28.9062
" />
<path d="M56.2157 28.9062
L56.2761 29.0272
" />
<path d="M56.2761 29.0272
L56.3366 29.0877
" />
<path d="M56.3366 29.0877
L56.4576 29.1481
" />
<path d="M56.4576 29.1481
L56.6995 29.1481
" />
<path d="M56.6995 29.1481
L56.8204 29.0877
" />
<path d="M56.8204 29.0877
L56.8809 29.0272
" />
<path d="M56.8809 29.0272
L56.9414 28.9062
" />
<path d="M56.9414 28.9062
L56.9414 28.6038
" />
<path d="M56.9414 28.6038
L56.8809 28.4829
" />
<path d="M56.8809 28.4829
L56.8204 28.4224
" />
<path d="M56.8204 28.4224
L56.6995 28.3619
" />
<path d="M56.6995 28.3619
L56.4576 28.3619
" />
<path d="M56.4576 28.3619
L56.3366 28.4224
" />
<path d="M56.3366 28.4224
L56.2761 28.4829
" />
<path d="M56.2761 28.4829
L56.2157 28.6038
" />
</g><path d="M54.6735 32.1056
L58.4835 32.1056
" />
<text x="53.6575" y="32.7406"
textLength="17.9832" font-size="1.6933" lengthAdjust="spacingAndGlyphs"
text-anchor="end" opacity="0">T1OSO/T1CKI/RB1</text>
<g class="stroked-text"><desc>T1OSO/T1CKI/RB1</desc>
<path d="M35.8982 31.4151
L36.6239 31.4151
" />
<path d="M36.2611 32.6851
L36.2611 31.4151
" />
<path d="M37.7125 32.6851
L36.9868 32.6851
" />
<path d="M37.3496 32.6851
L37.3496 31.4151
" />
<path d="M37.3496 31.4151
L37.2287 31.5966
" />
<path d="M37.2287 31.5966
L37.1077 31.7175
" />
<path d="M37.1077 31.7175
L36.9868 31.7780
" />
<path d="M38.4986 31.4151
L38.7405 31.4151
" />
<path d="M38.7405 31.4151
L38.8615 31.4756
" />
<path d="M38.8615 31.4756
L38.9824 31.5966
" />
<path d="M38.9824 31.5966
L39.0429 31.8385
" />
<path d="M39.0429 31.8385
L39.0429 32.2618
" />
<path d="M39.0429 32.2618
L38.9824 32.5037
" />
<path d="M38.9824 32.5037
L38.8615 32.6247
" />
<path d="M38.8615 32.6247
L38.7405 32.6851
" />
<path d="M38.7405 32.6851
L38.4986 32.6851
" />
<path d="M38.4986 32.6851
L38.3777 32.6247
" />
<path d="M38.3777 32.6247
L38.2567 32.5037
" />
<path d="M38.2567 32.5037
L38.1963 32.2618
" />
<path d="M38.1963 32.2618
L38.1963 31.8385
" />
<path d="M38.1963 31.8385
L38.2567 31.5966
" />
<path d="M38.2567 31.5966
L38.3777 31.4756
" />
<path d="M38.3777 31.4756
L38.4986 31.4151
" />
<path d="M39.5268 32.6247
L39.7082 32.6851
" />
<path d="M39.7082 32.6851
L40.0106 32.6851
" />
<path d="M40.0106 32.6851
L40.1315 32.6247
" />
<path d="M40.1315 32.6247
L40.1920 32.5642
" />
<path d="M40.1920 32.5642
L40.2525 32.4432
" />
<path d="M40.2525 32.4432
L40.2525 32.3223
" />
<path d="M40.2525 32.3223
L40.1920 32.2013
" />
<path d="M40.1920 32.2013
L40.1315 32.1408
" />
<path d="M40.1315 32.1408
L40.0106 32.0804
" />
<path d="M40.0106 32.0804
L39.7687 32.0199
" />
<path d="M39.7687 32.0199
L39.6477 31.9594
" />
<path d="M39.6477 31.9594
L39.5872 31.8989
" />
<path d="M39.5872 31.8989
L39.5268 31.7780
" />
<path d="M39.5268 31.7780
L39.5268 31.6570
" />
<path d="M39.5268 31.6570
L39.5872 31.5361
" />
<path d="M39.5872 31.5361
L39.6477 31.4756
" />
<path d="M39.6477 31.4756
L39.7687 31.4151
" />
<path d="M39.7687 31.4151
L40.0710 31.4151
" />
<path d="M40.0710 31.4151
L40.2525 31.4756
" />
<path d="M41.0386 31.4151
L41.2805 31.4151
" />
<path d="M41.2805 31.4151
L41.4015 31.4756
" />
<path d="M41.4015 31.4756
L41.5224 31.5966
" />
<path d="M41.5224 31.5966
L41.5829 31.8385
" />
<path d="M41.5829 31.8385
L41.5829 32.2618
" />
<path d="M41.5829 32.2618
L41.5224 32.5037
" />
<path d="M41.5224 32.5037
L41.4015 32.6247
" />
<path d="M41.4015 32.6247
L41.2805 32.6851
" />
<path d="M41.2805 32.6851
L41.0386 32.6851
" />
<path d="M41.0386 32.6851
L40.9177 32.6247
" />
<path d="M40.9177 32.6247
L40.7967 32.5037
" />
<path d="M40.7967 32.5037
L40.7363 32.2618
" />
<path d="M40.7363 32.2618
L40.7363 31.8385
" />
<path d="M40.7363 31.8385
L40.7967 31.5966
" />
<path d="M40.7967 31.5966
L40.9177 31.4756
" />
<path d="M40.9177 31.4756
L41.0386 31.4151
" />
<path d="M43.0344 31.3547
L41.9458 32.9875
" />
<path d="M43.2763 31.4151
L44.0020 31.4151
" />
<path d="M43.6392 32.6851
L43.6392 31.4151
" />
<path d="M45.0906 32.6851
L44.3649 32.6851
" />
<path d="M44.7277 32.6851
L44.7277 31.4151
" />
<path d="M44.7277 31.4151
L44.6068 31.5966
" />
<path d="M44.6068 31.5966
L44.4858 31.7175
" />
<path d="M44.4858 31.7175
L44.3649 31.7780
" />
<path d="M46.3605 32.5642
L46.3001 32.6247
" />
<path d="M46.3001 32.6247
L46.1186 32.6851
" />
<path d="M46.1186 32.6851
L45.9977 32.6851
" />
<path d="M45.9977 32.6851
L45.8163 32.6247
" />
<path d="M45.8163 32.6247
L45.6953 32.5037
" />
<path d="M45.6953 32.5037
L45.6348 32.3827
" />
<path d="M45.6348 32.3827
L45.5744 32.1408
" />
<path d="M45.5744 32.1408
L45.5744 31.9594
" />
<path d="M45.5744 31.9594
L45.6348 31.7175
" />
<path d="M45.6348 31.7175
L45.6953 31.5966
" />
<path d="M45.6953 31.5966
L45.8163 31.4756
" />
<path d="M45.8163 31.4756
L45.9977 31.4151
" />
<path d="M45.9977 31.4151
L46.1186 31.4151
" />
<path d="M46.1186 31.4151
L46.3001 31.4756
" />
<path d="M46.3001 31.4756
L46.3605 31.5361
" />
<path d="M46.9048 32.6851
L46.9048 31.4151
" />
<path d="M47.6305 32.6851
L47.0863 31.9594
" />
<path d="M47.6305 31.4151
L46.9048 32.1408
" />
<path d="M48.1748 32.6851
L48.1748 31.4151
" />
<path d="M49.6868 31.3547
L48.5982 32.9875
" />
<path d="M50.8358 32.6851
L50.4125 32.0804
" />
<path d="M50.1101 32.6851
L50.1101 31.4151
" />
<path d="M50.1101 31.4151
L50.5939 31.4151
" />
<path d="M50.5939 31.4151
L50.7149 31.4756
" />
<path d="M50.7149 31.4756
L50.7754 31.5361
" />
<path d="M50.7754 31.5361
L50.8358 31.6570
" />
<path d="M50.8358 31.6570
L50.8358 31.8385
" />
<path d="M50.8358 31.8385
L50.7754 31.9594
" />
<path d="M50.7754 31.9594
L50.7149 32.0199
" />
<path d="M50.7149 32.0199
L50.5939 32.0804
" />
<path d="M50.5939 32.0804
L50.1101 32.0804
" />
<path d="M51.8035 32.0199
L51.9849 32.0804
" />
<path d="M51.9849 32.0804
L52.0454 32.1408
" />
<path d="M52.0454 32.1408
L52.1058 32.2618
" />
<path d="M52.1058 32.2618
L52.1058 32.4432
" />
<path d="M52.1058 32.4432
L52.0454 32.5642
" />
<path d="M52.0454 32.5642
L51.9849 32.6247
" />
<path d="M51.9849 32.6247
L51.8639 32.6851
" />
<path d="M51.8639 32.6851
L51.3801 32.6851
" />
<path d="M51.3801 32.6851
L51.3801 31.4151
" />
<path d="M51.3801 31.4151
L51.8035 31.4151
" />
<path d="M51.8035 31.4151
L51.9244 31.4756
" />
<path d="M51.9244 31.4756
L51.9849 31.5361
" />
<path d="M51.9849 31.5361
L52.0454 31.6570
" />
<path d="M52.0454 31.6570
L52.0454 31.7780
" />
<path d="M52.0454 31.7780
L51.9849 31.8989
" />
<path d="M51.9849 31.8989
L51.9244 31.9594
" />
<path d="M51.9244 31.9594
L51.8035 32.0199
" />
<path d="M51.8035 32.0199
L51.3801 32.0199
" />
<path d="M53.3154 32.6851
L52.5897 32.6851
" />
<path d="M52.9525 32.6851
L52.9525 31.4151
" />
<path d="M52.9525 31.4151
L52.8316 31.5966
" />
<path d="M52.8316 31.5966
L52.7106 31.7175
" />
<path d="M52.7106 31.7175
L52.5897 31.7780
" />
</g><text x="56.5785" y="31.8516"
textLength="1.4127" font-size="1.6933" lengthAdjust="spacingAndGlyphs"
text-anchor="middle" opacity="0">7</text>
<g class="stroked-text"><desc>7</desc>
<path d="M56.1552 30.4181
L57.0018 30.4181
" />
<path d="M57.0018 30.4181
L56.4576 31.6881
" />
</g><path d="M54.6735 34.6456
L58.4835 34.6456
" />
<text x="53.6575" y="35.2806"
textLength="10.6051" font-size="1.6933" lengthAdjust="spacingAndGlyphs"
text-anchor="end" opacity="0">T1OSI/RB2</text>
<g class="stroked-text"><desc>T1OSI/RB2</desc>
<path d="M43.2763 33.9551
L44.0020 33.9551
" />
<path d="M43.6392 35.2251
L43.6392 33.9551
" />
<path d="M45.0906 35.2251
L44.3649 35.2251
" />
<path d="M44.7277 35.2251
L44.7277 33.9551
" />
<path d="M44.7277 33.9551
L44.6068 34.1366
" />
<path d="M44.6068 34.1366
L44.4858 34.2575
" />
<path d="M44.4858 34.2575
L44.3649 34.3180
" />
<path d="M45.8767 33.9551
L46.1186 33.9551
" />
<path d="M46.1186 33.9551
L46.2396 34.0156
" />
<path d="M46.2396 34.0156
L46.3605 34.1366
" />
<path d="M46.3605 34.1366
L46.4210 34.3785
" />
<path d="M46.4210 34.3785
L46.4210 34.8018
" />
<path d="M46.4210 34.8018
L46.3605 35.0437
" />
<path d="M46.3605 35.0437
L46.2396 35.1647
" />
<path d="M46.2396 35.1647
L46.1186 35.2251
" />
<path d="M46.1186 35.2251
L45.8767 35.2251
" />
<path d="M45.8767 35.2251
L45.7558 35.1647
" />
<path d="M45.7558 35.1647
L45.6348 35.0437
" />
<path d="M45.6348 35.0437
L45.5744 34.8018
" />
<path d="M45.5744 34.8018
L45.5744 34.3785
" />
<path d="M45.5744 34.3785
L45.6348 34.1366
" />
<path d="M45.6348 34.1366
L45.7558 34.0156
" />
<path d="M45.7558 34.0156
L45.8767 33.9551
" />
<path d="M46.9049 35.1647
L47.0863 35.2251
" />
<path d="M47.0863 35.2251
L47.3887 35.2251
" />
<path d="M47.3887 35.2251
L47.5096 35.1647
" />
<path d="M47.5096 35.1647
L47.5701 35.1042
" />
<path d="M47.5701 35.1042
L47.6306 34.9832
" />
<path d="M47.6306 34.9832
L47.6306 34.8623
" />
<path d="M47.6306 34.8623
L47.5701 34.7413
" />
<path d="M47.5701 34.7413
L47.5096 34.6808
" />
<path d="M47.5096 34.6808
L47.3887 34.6204
" />
<path d="M47.3887 34.6204
L47.1468 34.5599
" />
<path d="M47.1468 34.5599
L47.0258 34.4994
" />
<path d="M47.0258 34.4994
L46.9653 34.4389
" />
<path d="M46.9653 34.4389
L46.9049 34.3180
" />
<path d="M46.9049 34.3180
L46.9049 34.1970
" />
<path d="M46.9049 34.1970
L46.9653 34.0761
" />
<path d="M46.9653 34.0761
L47.0258 34.0156
" />
<path d="M47.0258 34.0156
L47.1468 33.9551
" />
<path d="M47.1468 33.9551
L47.4491 33.9551
" />
<path d="M47.4491 33.9551
L47.6306 34.0156
" />
<path d="M48.1748 35.2251
L48.1748 33.9551
" />
<path d="M49.6868 33.8947
L48.5982 35.5275
" />
<path d="M50.8358 35.2251
L50.4125 34.6204
" />
<path d="M50.1101 35.2251
L50.1101 33.9551
" />
<path d="M50.1101 33.9551
L50.5939 33.9551
" />
<path d="M50.5939 33.9551
L50.7149 34.0156
" />
<path d="M50.7149 34.0156
L50.7754 34.0761
" />
<path d="M50.7754 34.0761
L50.8358 34.1970
" />
<path d="M50.8358 34.1970
L50.8358 34.3785
" />
<path d="M50.8358 34.3785
L50.7754 34.4994
" />
<path d="M50.7754 34.4994
L50.7149 34.5599
" />
<path d="M50.7149 34.5599
L50.5939 34.6204
" />
<path d="M50.5939 34.6204
L50.1101 34.6204
" />
<path d="M51.8035 34.5599
L51.9849 34.6204
" />
<path d="M51.9849 34.6204
L52.0454 34.6808
" />
<path d="M52.0454 34.6808
L52.1058 34.8018
" />
<path d="M52.1058 34.8018
L52.1058 34.9832
" />
<path d="M52.1058 34.9832
L52.0454 35.1042
" />
<path d="M52.0454 35.1042
L51.9849 35.1647
" />
<path d="M51.9849 35.1647
L51.8639 35.2251
" />
<path d="M51.8639 35.2251
L51.3801 35.2251
" />
<path d="M51.3801 35.2251
L51.3801 33.9551
" />
<path d="M51.3801 33.9551
L51.8035 33.9551
" />
<path d="M51.8035 33.9551
L51.9244 34.0156
" />
<path d="M51.9244 34.0156
L51.9849 34.0761
" />
<path d="M51.9849 34.0761
L52.0454 34.1970
" />
<path d="M52.0454 34.1970
L52.0454 34.3180
" />
<path d="M52.0454 34.3180
L51.9849 34.4389
" />
<path d="M51.9849 34.4389
L51.9244 34.4994
" />
<path d="M51.9244 34.4994
L51.8035 34.5599
" />
<path d="M51.8035 34.5599
L51.3801 34.5599
" />
<path d="M52.5897 34.0761
L52.6501 34.0156
" />
<path d="M52.6501 34.0156
L52.7711 33.9551
" />
<path d="M52.7711 33.9551
L53.0735 33.9551
" />
<path d="M53.0735 33.9551
L53.1944 34.0156
" />
<path d="M53.1944 34.0156
L53.2549 34.0761
" />
<path d="M53.2549 34.0761
L53.3154 34.1970
" />
<path d="M53.3154 34.1970
L53.3154 34.3180
" />
<path d="M53.3154 34.3180
L53.2549 34.4994
" />
<path d="M53.2549 34.4994
L52.5292 35.2251
" />
<path d="M52.5292 35.2251
L53.3154 35.2251
" />
</g><text x="56.5785" y="34.3916"
textLength="1.4127" font-size="1.6933" lengthAdjust="spacingAndGlyphs"
text-anchor="middle" opacity="0">8</text>
<g class="stroked-text"><desc>8</desc>
<path d="M56.4576 33.5024
L56.3366 33.4419
" />
<path d="M56.3366 33.4419
L56.2761 33.3815
" />
<path d="M56.2761 33.3815
L56.2157 33.2605
" />
<path d="M56.2157 33.2605
L56.2157 33.2000
" />
<path d="M56.2157 33.2000
L56.2761 33.0791
" />
<path d="M56.2761 33.0791
L56.3366 33.0186
" />
<path d="M56.3366 33.0186
L56.4576 32.9581
" />
<path d="M56.4576 32.9581
L56.6995 32.9581
" />
<path d="M56.6995 32.9581
L56.8204 33.0186
" />
<path d="M56.8204 33.0186
L56.8809 33.0791
" />
<path d="M56.8809 33.0791
L56.9414 33.2000
" />
<path d="M56.9414 33.2000
L56.9414 33.2605
" />
<path d="M56.9414 33.2605
L56.8809 33.3815
" />
<path d="M56.8809 33.3815
L56.8204 33.4419
" />
<path d="M56.8204 33.4419
L56.6995 33.5024
" />
<path d="M56.6995 33.5024
L56.4576 33.5024
" />
<path d="M56.4576 33.5024
L56.3366 33.5629
" />
<path d="M56.3366 33.5629
L56.2761 33.6234
" />
<path d="M56.2761 33.6234
L56.2157 33.7443
" />
<path d="M56.2157 33.7443
L56.2157 33.9862
" />
<path d="M56.2157 33.9862
L56.2761 34.1072
" />
<path d="M56.2761 34.1072
L56.3366 34.1677
" />
<path d="M56.3366 34.1677
L56.4576 34.2281
" />
<path d="M56.4576 34.2281
L56.6995 34.2281
" />
<path d="M56.6995 34.2281
L56.8204 34.1677
" />
<path d="M56.8204 34.1677
L56.8809 34.1072
" />
<path d="M56.8809 34.1072
L56.9414 33.9862
" />
<path d="M56.9414 33.9862
L56.9414 33.7443
" />
<path d="M56.9414 33.7443
L56.8809 33.6234
" />
<path d="M56.8809 33.6234
L56.8204 33.5629
" />
<path d="M56.8204 33.5629
L56.6995 33.5024
" />
</g><path d="M54.6735 37.1856
L58.4835 37.1856
" />
<text x="53.6575" y="37.8206"
textLength="15.2013" font-size="1.6933" lengthAdjust="spacingAndGlyphs"
text-anchor="end" opacity="0">CCP1/P1A/RB3</text>
<g class="stroked-text"><desc>CCP1/P1A/RB3</desc>
<path d="M39.5872 37.6442
L39.5268 37.7047
" />
<path d="M39.5268 37.7047
L39.3453 37.7651
" />
<path d="M39.3453 37.7651
L39.2244 37.7651
" />
<path d="M39.2244 37.7651
L39.0430 37.7047
" />
<path d="M39.0430 37.7047
L38.9220 37.5837
" />
<path d="M38.9220 37.5837
L38.8615 37.4627
" />
<path d="M38.8615 37.4627
L38.8011 37.2208
" />
<path d="M38.8011 37.2208
L38.8011 37.0394
" />
<path d="M38.8011 37.0394
L38.8615 36.7975
" />
<path d="M38.8615 36.7975
L38.9220 36.6766
" />
<path d="M38.9220 36.6766
L39.0430 36.5556
" />
<path d="M39.0430 36.5556
L39.2244 36.4951
" />
<path d="M39.2244 36.4951
L39.3453 36.4951
" />
<path d="M39.3453 36.4951
L39.5268 36.5556
" />
<path d="M39.5268 36.5556
L39.5872 36.6161
" />
<path d="M40.8572 37.6442
L40.7968 37.7047
" />
<path d="M40.7968 37.7047
L40.6153 37.7651
" />
<path d="M40.6153 37.7651
L40.4944 37.7651
" />
<path d="M40.4944 37.7651
L40.3130 37.7047
" />
<path d="M40.3130 37.7047
L40.1920 37.5837
" />
<path d="M40.1920 37.5837
L40.1315 37.4627
" />
<path d="M40.1315 37.4627
L40.0711 37.2208
" />
<path d="M40.0711 37.2208
L40.0711 37.0394
" />
<path d="M40.0711 37.0394
L40.1315 36.7975
" />
<path d="M40.1315 36.7975
L40.1920 36.6766
" />
<path d="M40.1920 36.6766
L40.3130 36.5556
" />
<path d="M40.3130 36.5556
L40.4944 36.4951
" />
<path d="M40.4944 36.4951
L40.6153 36.4951
" />
<path d="M40.6153 36.4951
L40.7968 36.5556
" />
<path d="M40.7968 36.5556
L40.8572 36.6161
" />
<path d="M41.4015 37.7651
L41.4015 36.4951
" />
<path d="M41.4015 36.4951
L41.8853 36.4951
" />
<path d="M41.8853 36.4951
L42.0063 36.5556
" />
<path d="M42.0063 36.5556
L42.0668 36.6161
" />
<path d="M42.0668 36.6161
L42.1272 36.7370
" />
<path d="M42.1272 36.7370
L42.1272 36.9185
" />
<path d="M42.1272 36.9185
L42.0668 37.0394
" />
<path d="M42.0668 37.0394
L42.0063 37.0999
" />
<path d="M42.0063 37.0999
L41.8853 37.1604
" />
<path d="M41.8853 37.1604
L41.4015 37.1604
" />
<path d="M43.3368 37.7651
L42.6111 37.7651
" />
<path d="M42.9739 37.7651
L42.9739 36.4951
" />
<path d="M42.9739 36.4951
L42.8530 36.6766
" />
<path d="M42.8530 36.6766
L42.7320 36.7975
" />
<path d="M42.7320 36.7975
L42.6111 36.8580
" />
<path d="M44.7882 36.4347
L43.6996 38.0675
" />
<path d="M45.2115 37.7651
L45.2115 36.4951
" />
<path d="M45.2115 36.4951
L45.6953 36.4951
" />
<path d="M45.6953 36.4951
L45.8163 36.5556
" />
<path d="M45.8163 36.5556
L45.8768 36.6161
" />
<path d="M45.8768 36.6161
L45.9372 36.7370
" />
<path d="M45.9372 36.7370
L45.9372 36.9185
" />
<path d="M45.9372 36.9185
L45.8768 37.0394
" />
<path d="M45.8768 37.0394
L45.8163 37.0999
" />
<path d="M45.8163 37.0999
L45.6953 37.1604
" />
<path d="M45.6953 37.1604
L45.2115 37.1604
" />
<path d="M47.1468 37.7651
L46.4211 37.7651
" />
<path d="M46.7839 37.7651
L46.7839 36.4951
" />
<path d="M46.7839 36.4951
L46.6630 36.6766
" />
<path d="M46.6630 36.6766
L46.5420 36.7975
" />
<path d="M46.5420 36.7975
L46.4211 36.8580
" />
<path d="M47.6306 37.4023
L48.2353 37.4023
" />
<path d="M47.5096 37.7651
L47.9329 36.4951
" />
<path d="M47.9329 36.4951
L48.3563 37.7651
" />
<path d="M49.6868 36.4347
L48.5982 38.0675
" />
<path d="M50.8358 37.7651
L50.4125 37.1604
" />
<path d="M50.1101 37.7651
L50.1101 36.4951
" />
<path d="M50.1101 36.4951
L50.5939 36.4951
" />
<path d="M50.5939 36.4951
L50.7149 36.5556
" />
<path d="M50.7149 36.5556
L50.7754 36.6161
" />
<path d="M50.7754 36.6161
L50.8358 36.7370
" />
<path d="M50.8358 36.7370
L50.8358 36.9185
" />
<path d="M50.8358 36.9185
L50.7754 37.0394
" />
<path d="M50.7754 37.0394
L50.7149 37.0999
" />
<path d="M50.7149 37.0999
L50.5939 37.1604
" />
<path d="M50.5939 37.1604
L50.1101 37.1604
" />
<path d="M51.8035 37.0999
L51.9849 37.1604
" />
<path d="M51.9849 37.1604
L52.0454 37.2208
" />
<path d="M52.0454 37.2208
L52.1058 37.3418
" />
<path d="M52.1058 37.3418
L52.1058 37.5232
" />
<path d="M52.1058 37.5232
L52.0454 37.6442
" />
<path d="M52.0454 37.6442
L51.9849 37.7047
" />
<path d="M51.9849 37.7047
L51.8639 37.7651
" />
<path d="M51.8639 37.7651
L51.3801 37.7651
" />
<path d="M51.3801 37.7651
L51.3801 36.4951
" />
<path d="M51.3801 36.4951
L51.8035 36.4951
" />
<path d="M51.8035 36.4951
L51.9244 36.5556
" />
<path d="M51.9244 36.5556
L51.9849 36.6161
" />
<path d="M51.9849 36.6161
L52.0454 36.7370
" />
<path d="M52.0454 36.7370
L52.0454 36.8580
" />
<path d="M52.0454 36.8580
L51.9849 36.9789
" />
<path d="M51.9849 36.9789
L51.9244 37.0394
" />
<path d="M51.9244 37.0394
L51.8035 37.0999
" />
<path d="M51.8035 37.0999
L51.3801 37.0999
" />
<path d="M52.5292 36.4951
L53.3154 36.4951
" />
<path d="M53.3154 36.4951
L52.8920 36.9789
" />
<path d="M52.8920 36.9789
L53.0735 36.9789
" />
<path d="M53.0735 36.9789
L53.1944 37.0394
" />
<path d="M53.1944 37.0394
L53.2549 37.0999
" />
<path d="M53.2549 37.0999
L53.3154 37.2208
" />
<path d="M53.3154 37.2208
L53.3154 37.5232
" />
<path d="M53.3154 37.5232
L53.2549 37.6442
" />
<path d="M53.2549 37.6442
L53.1944 37.7047
" />
<path d="M53.1944 37.7047
L53.0735 37.7651
" />
<path d="M53.0735 37.7651
L52.7106 37.7651
" />
<path d="M52.7106 37.7651
L52.5897 37.7047
" />
<path d="M52.5897 37.7047
L52.5292 37.6442
" />
</g><text x="56.5785" y="36.9316"
textLength="1.4127" font-size="1.6933" lengthAdjust="spacingAndGlyphs"
text-anchor="middle" opacity="0">9</text>
<g class="stroked-text"><desc>9</desc>
<path d="M56.3366 36.7681
L56.5785 36.7681
" />
<path d="M56.5785 36.7681
L56.6995 36.7077
" />
<path d="M56.6995 36.7077
L56.7599 36.6472
" />
<path d="M56.7599 36.6472
L56.8809 36.4657
" />
<path d="M56.8809 36.4657
L56.9414 36.2238
" />
<path d="M56.9414 36.2238
L56.9414 35.7400
" />
<path d="M56.9414 35.7400
L56.8809 35.6191
" />
<path d="M56.8809 35.6191
L56.8204 35.5586
" />
<path d="M56.8204 35.5586
L56.6995 35.4981
" />
<path d="M56.6995 35.4981
L56.4576 35.4981
" />
<path d="M56.4576 35.4981
L56.3366 35.5586
" />
<path d="M56.3366 35.5586
L56.2761 35.6191
" />
<path d="M56.2761 35.6191
L56.2157 35.7400
" />
<path d="M56.2157 35.7400
L56.2157 36.0424
" />
<path d="M56.2157 36.0424
L56.2761 36.1634
" />
<path d="M56.2761 36.1634
L56.3366 36.2238
" />
<path d="M56.3366 36.2238
L56.4576 36.2843
" />
<path d="M56.4576 36.2843
L56.6995 36.2843
" />
<path d="M56.6995 36.2843
L56.8204 36.2238
" />
<path d="M56.8204 36.2238
L56.8809 36.1634
" />
<path d="M56.8809 36.1634
L56.9414 36.0424
" />
</g></g>
<g style="fill:#000000; fill-opacity:0.0; 
stroke:#000000; stroke-width:0.1588; stroke-opacity:1; 
stroke-linecap:round; stroke-linejoin:round;">
<text x="43.2942" y="7.3406"
textLength="2.6415" font-size="1.6933" lengthAdjust="spacingAndGlyphs"
text-anchor="middle" opacity="0">U?</text>
<g class="stroked-text"><desc>U?</desc>
<path d="M42.3870 6.0148
L42.3870 7.0429
" />
<path d="M42.3870 7.0429
L42.4475 7.1639
" />
<path d="M42.4475 7.1639
L42.5080 7.2244
" />
<path d="M42.5080 7.2244
L42.6289 7.2848
" />
<path d="M42.6289 7.2848
L42.8708 7.2848
" />
<path d="M42.8708 7.2848
L42.9918 7.2244
" />
<path d="M42.9918 7.2244
L43.0523 7.1639
" />
<path d="M43.0523 7.1639
L43.1127 7.0429
" />
<path d="M43.1127 7.0429
L43.1127 6.0148
" />
<path d="M43.8990 7.1639
L43.9594 7.2244
" />
<path d="M43.9594 7.2244
L43.8990 7.2848
" />
<path d="M43.8990 7.2848
L43.8385 7.2244
" />
<path d="M43.8385 7.2244
L43.8990 7.1639
" />
<path d="M43.8990 7.1639
L43.8990 7.2848
" />
<path d="M43.6571 6.0753
L43.7780 6.0148
" />
<path d="M43.7780 6.0148
L44.0804 6.0148
" />
<path d="M44.0804 6.0148
L44.2013 6.0753
" />
<path d="M44.2013 6.0753
L44.2618 6.1963
" />
<path d="M44.2618 6.1963
L44.2618 6.3172
" />
<path d="M44.2618 6.3172
L44.2013 6.4382
" />
<path d="M44.2013 6.4382
L44.1409 6.4986
" />
<path d="M44.1409 6.4986
L44.0199 6.5591
" />
<path d="M44.0199 6.5591
L43.9594 6.6196
" />
<path d="M43.9594 6.6196
L43.8990 6.7405
" />
<path d="M43.8990 6.7405
L43.8990 6.8010
" />
</g><text x="48.9487" y="9.8806"
textLength="13.9505" font-size="1.6933" lengthAdjust="spacingAndGlyphs"
text-anchor="middle" opacity="0">PIC16F716-IP</text>
<g class="stroked-text"><desc>PIC16F716-IP</desc>
<path d="M42.3870 9.8248
L42.3870 8.5548
" />
<path d="M42.3870 8.5548
L42.8708 8.5548
" />
<path d="M42.8708 8.5548
L42.9918 8.6153
" />
<path d="M42.9918 8.6153
L43.0523 8.6758
" />
<path d="M43.0523 8.6758
L43.1127 8.7967
" />
<path d="M43.1127 8.7967
L43.1127 8.9782
" />
<path d="M43.1127 8.9782
L43.0523 9.0991
" />
<path d="M43.0523 9.0991
L42.9918 9.1596
" />
<path d="M42.9918 9.1596
L42.8708 9.2201
" />
<path d="M42.8708 9.2201
L42.3870 9.2201
" />
<path d="M43.6570 9.8248
L43.6570 8.5548
" />
<path d="M44.9875 9.7039
L44.9271 9.7644
" />
<path d="M44.9271 9.7644
L44.7456 9.8248
" />
<path d="M44.7456 9.8248
L44.6247 9.8248
" />
<path d="M44.6247 9.8248
L44.4433 9.7644
" />
<path d="M44.4433 9.7644
L44.3223 9.6434
" />
<path d="M44.3223 9.6434
L44.2618 9.5224
" />
<path d="M44.2618 9.5224
L44.2014 9.2805
" />
<path d="M44.2014 9.2805
L44.2014 9.0991
" />
<path d="M44.2014 9.0991
L44.2618 8.8572
" />
<path d="M44.2618 8.8572
L44.3223 8.7363
" />
<path d="M44.3223 8.7363
L44.4433 8.6153
" />
<path d="M44.4433 8.6153
L44.6247 8.5548
" />
<path d="M44.6247 8.5548
L44.7456 8.5548
" />
<path d="M44.7456 8.5548
L44.9271 8.6153
" />
<path d="M44.9271 8.6153
L44.9875 8.6758
" />
<path d="M46.1971 9.8248
L45.4714 9.8248
" />
<path d="M45.8342 9.8248
L45.8342 8.5548
" />
<path d="M45.8342 8.5548
L45.7133 8.7363
" />
<path d="M45.7133 8.7363
L45.5923 8.8572
" />
<path d="M45.5923 8.8572
L45.4714 8.9177
" />
<path d="M47.2856 8.5548
L47.0437 8.5548
" />
<path d="M47.0437 8.5548
L46.9228 8.6153
" />
<path d="M46.9228 8.6153
L46.8623 8.6758
" />
<path d="M46.8623 8.6758
L46.7413 8.8572
" />
<path d="M46.7413 8.8572
L46.6809 9.0991
" />
<path d="M46.6809 9.0991
L46.6809 9.5829
" />
<path d="M46.6809 9.5829
L46.7413 9.7039
" />
<path d="M46.7413 9.7039
L46.8018 9.7644
" />
<path d="M46.8018 9.7644
L46.9228 9.8248
" />
<path d="M46.9228 9.8248
L47.1647 9.8248
" />
<path d="M47.1647 9.8248
L47.2856 9.7644
" />
<path d="M47.2856 9.7644
L47.3461 9.7039
" />
<path d="M47.3461 9.7039
L47.4066 9.5829
" />
<path d="M47.4066 9.5829
L47.4066 9.2805
" />
<path d="M47.4066 9.2805
L47.3461 9.1596
" />
<path d="M47.3461 9.1596
L47.2856 9.0991
" />
<path d="M47.2856 9.0991
L47.1647 9.0386
" />
<path d="M47.1647 9.0386
L46.9228 9.0386
" />
<path d="M46.9228 9.0386
L46.8018 9.0991
" />
<path d="M46.8018 9.0991
L46.7413 9.1596
" />
<path d="M46.7413 9.1596
L46.6809 9.2805
" />
<path d="M48.3742 9.1596
L47.9508 9.1596
" />
<path d="M47.9508 9.8248
L47.9508 8.5548
" />
<path d="M47.9508 8.5548
L48.5556 8.5548
" />
<path d="M48.9185 8.5548
L49.7651 8.5548
" />
<path d="M49.7651 8.5548
L49.2209 9.8248
" />
<path d="M50.9142 9.8248
L50.1885 9.8248
" />
<path d="M50.5513 9.8248
L50.5513 8.5548
" />
<path d="M50.5513 8.5548
L50.4304 8.7363
" />
<path d="M50.4304 8.7363
L50.3094 8.8572
" />
<path d="M50.3094 8.8572
L50.1885 8.9177
" />
<path d="M52.0027 8.5548
L51.7608 8.5548
" />
<path d="M51.7608 8.5548
L51.6399 8.6153
" />
<path d="M51.6399 8.6153
L51.5794 8.6758
" />
<path d="M51.5794 8.6758
L51.4584 8.8572
" />
<path d="M51.4584 8.8572
L51.3980 9.0991
" />
<path d="M51.3980 9.0991
L51.3980 9.5829
" />
<path d="M51.3980 9.5829
L51.4584 9.7039
" />
<path d="M51.4584 9.7039
L51.5189 9.7644
" />
<path d="M51.5189 9.7644
L51.6399 9.8248
" />
<path d="M51.6399 9.8248
L51.8818 9.8248
" />
<path d="M51.8818 9.8248
L52.0027 9.7644
" />
<path d="M52.0027 9.7644
L52.0632 9.7039
" />
<path d="M52.0632 9.7039
L52.1237 9.5829
" />
<path d="M52.1237 9.5829
L52.1237 9.2805
" />
<path d="M52.1237 9.2805
L52.0632 9.1596
" />
<path d="M52.0632 9.1596
L52.0027 9.0991
" />
<path d="M52.0027 9.0991
L51.8818 9.0386
" />
<path d="M51.8818 9.0386
L51.6399 9.0386
" />
<path d="M51.6399 9.0386
L51.5189 9.0991
" />
<path d="M51.5189 9.0991
L51.4584 9.1596
" />
<path d="M51.4584 9.1596
L51.3980 9.2805
" />
<path d="M52.6679 9.3410
L53.6356 9.3410
" />
<path d="M54.2403 9.8248
L54.2403 8.5548
" />
<path d="M54.8451 9.8248
L54.8451 8.5548
" />
<path d="M54.8451 8.5548
L55.3289 8.5548
" />
<path d="M55.3289 8.5548
L55.4499 8.6153
" />
<path d="M55.4499 8.6153
L55.5104 8.6758
" />
<path d="M55.5104 8.6758
L55.5708 8.7967
" />
<path d="M55.5708 8.7967
L55.5708 8.9782
" />
<path d="M55.5708 8.9782
L55.5104 9.0991
" />
<path d="M55.5104 9.0991
L55.4499 9.1596
" />
<path d="M55.4499 9.1596
L55.3289 9.2201
" />
<path d="M55.3289 9.2201
L54.8451 9.2201
" />
</g></g> 
</svg>
