<?xml version="1.0" standalone="no"?>
 <!DOCTYPE svg PUBLIC "-//W3C//DTD SVG 1.1//EN" 
 "http://www.w3.org/Graphics/SVG/1.1/DTD/svg11.dtd"> 
<svg
  xmlns:svg="http://www.w3.org/2000/svg"
  xmlns="http://www.w3.org/2000/svg"
  xmlns:xlink="http://www.w3.org/1999/xlink"
  version="1.1"
  width="47.7012mm" height="12.2428mm" viewBox="0.0000 0.0000 47.7012 12.2428">
<title>SVG Image created as Molex_CLIK-Mate_505405-1170_1x11-1MP_P1.50mm_Vertical.svg date 2024/01/16 15:05:33 </title>
  <desc>Image generated by PCBNEW </desc>
<g style="fill:#000000; fill-opacity:1.0000;stroke:#000000; stroke-opacity:1.0000;
stroke-linecap:round; stroke-linejoin:round;"
 transform="translate(0 0) scale(1 1)">
</g>
<g style="fill:#000000; fill-opacity:0.0; 
stroke:#000000; stroke-width:0.0000; stroke-opacity:1; 
stroke-linecap:round; stroke-linejoin:round;">
</g>
<g style="fill:#000000; fill-opacity:1.0000; 
stroke:#000000; stroke-width:0.0212; stroke-opacity:1; 
stroke-linecap:round; stroke-linejoin:round;">
<rect x="-5.000000" y="-5.000000" width="57.726193" height="22.266500" rx="0.000000" />
</g>
<g style="fill:#FFFFFF; fill-opacity:1.0000; 
stroke:#FFFFFF; stroke-width:0.0212; stroke-opacity:1; 
stroke-linecap:round; stroke-linejoin:round;">
<g >
</g>
<g >
</g>
<g >
</g>
<g >
</g>
</g>
<g style="fill:#FFFFFF; fill-opacity:1.0000; 
stroke:#FFFFFF; stroke-width:0.0212; stroke-opacity:1; 
stroke-linecap:round; stroke-linejoin:round;">
<g >
</g>
<g >
</g>
<g >
</g>
<g >
</g>
</g>
<g style="fill:#FFFFFF; fill-opacity:1.0000; 
stroke:#FFFFFF; stroke-width:0.0212; stroke-opacity:1; 
stroke-linecap:round; stroke-linejoin:round;">
<g >
</g>
<g >
</g>
<g >
</g>
<g >
</g>
</g>
<g style="fill:#FFFFFF; fill-opacity:1.0000; 
stroke:#FFFFFF; stroke-width:0.0212; stroke-opacity:1; 
stroke-linecap:round; stroke-linejoin:round;">
<g >
</g>
<g >
</g>
<g >
</g>
<g >
</g>
</g>
<g style="fill:#FFFFFF; fill-opacity:1.0000; 
stroke:#FFFFFF; stroke-width:0.0212; stroke-opacity:1; 
stroke-linecap:round; stroke-linejoin:round;">
<g >
</g>
<g >
</g>
<g >
</g>
<g >
</g>
</g>
<g style="fill:#FFFFFF; fill-opacity:1.0000; 
stroke:#FFFFFF; stroke-width:0.0212; stroke-opacity:1; 
stroke-linecap:round; stroke-linejoin:round;">
<g >
</g>
<g >
</g>
<g >
</g>
<g >
</g>
</g>
<g style="fill:#FFFFFF; fill-opacity:1.0000; 
stroke:#FFFFFF; stroke-width:0.0212; stroke-opacity:1; 
stroke-linecap:round; stroke-linejoin:round;">
<g >
</g>
<g >
</g>
<g >
</g>
<g >
</g>
</g>
<g style="fill:#FFFFFF; fill-opacity:1.0000; 
stroke:#FFFFFF; stroke-width:0.0212; stroke-opacity:1; 
stroke-linecap:round; stroke-linejoin:round;">
<g >
</g>
<g >
</g>
<g >
</g>
<g >
</g>
</g>
<g style="fill:#FFFFFF; fill-opacity:1.0000; 
stroke:#FFFFFF; stroke-width:0.0212; stroke-opacity:1; 
stroke-linecap:round; stroke-linejoin:round;">
<g >
</g>
<g >
</g>
<g >
</g>
<g >
</g>
</g>
<g style="fill:#FFFFFF; fill-opacity:1.0000; 
stroke:#FFFFFF; stroke-width:0.0212; stroke-opacity:1; 
stroke-linecap:round; stroke-linejoin:round;">
<g >
</g>
<g >
</g>
<g >
</g>
<g >
</g>
</g>
<g style="fill:#FFFFFF; fill-opacity:1.0000; 
stroke:#FFFFFF; stroke-width:0.0212; stroke-opacity:1; 
stroke-linecap:round; stroke-linejoin:round;">
<g >
</g>
<g >
</g>
<g >
</g>
<g >
</g>
</g>
<g style="fill:#FFFFFF; fill-opacity:1.0000; 
stroke:#FFFFFF; stroke-width:0.0212; stroke-opacity:1; 
stroke-linecap:round; stroke-linejoin:round;">
<g >
</g>
<g >
</g>
<g >
</g>
<g >
</g>
</g>
<g style="fill:#FFFFFF; fill-opacity:1.0000; 
stroke:#FFFFFF; stroke-width:0.0212; stroke-opacity:1; 
stroke-linecap:round; stroke-linejoin:round;">
<g >
</g>
<g >
</g>
<g >
</g>
<g >
</g>
</g>
<g style="fill:#FFFFFF; fill-opacity:1.0000; 
stroke:#FFFFFF; stroke-width:0.0212; stroke-opacity:1; 
stroke-linecap:round; stroke-linejoin:round;">
<g >
</g>
<g >
</g>
<g >
</g>
<g >
</g>
</g>
<g style="fill:#FFFFFF; fill-opacity:1.0000; 
stroke:#FFFFFF; stroke-width:0.0212; stroke-opacity:1; 
stroke-linecap:round; stroke-linejoin:round;">
<g >
</g>
<g >
</g>
<g >
</g>
<g >
</g>
</g>
<g style="fill:#FFFFFF; fill-opacity:1.0000; 
stroke:#FFFFFF; stroke-width:0.0212; stroke-opacity:1; 
stroke-linecap:round; stroke-linejoin:round;">
<g >
</g>
<g >
</g>
<g >
</g>
<g >
</g>
</g>
<g style="fill:#FFFFFF; fill-opacity:1.0000; 
stroke:#FFFFFF; stroke-width:0.0212; stroke-opacity:1; 
stroke-linecap:round; stroke-linejoin:round;">
<g >
</g>
<g >
</g>
<g >
</g>
<g >
</g>
</g>
<g style="fill:#FFFFFF; fill-opacity:1.0000; 
stroke:#FFFFFF; stroke-width:0.0212; stroke-opacity:1; 
stroke-linecap:round; stroke-linejoin:round;">
<g >
</g>
<g >
</g>
<g >
</g>
<g >
</g>
</g>
<g style="fill:#FFFFFF; fill-opacity:1.0000; 
stroke:#FFFFFF; stroke-width:0.0212; stroke-opacity:1; 
stroke-linecap:round; stroke-linejoin:round;">
<g >
</g>
<g >
</g>
<g >
</g>
<g >
</g>
</g>
<g style="fill:#FFFFFF; fill-opacity:1.0000; 
stroke:#FFFFFF; stroke-width:0.0212; stroke-opacity:1; 
stroke-linecap:round; stroke-linejoin:round;">
<g >
</g>
<g >
</g>
<g >
</g>
<g >
</g>
</g>
<g style="fill:#FFFFFF; fill-opacity:1.0000; 
stroke:#FFFFFF; stroke-width:0.0212; stroke-opacity:1; 
stroke-linecap:round; stroke-linejoin:round;">
<g >
</g>
<g >
</g>
<g >
</g>
<g >
</g>
</g>
<g style="fill:#FFFFFF; fill-opacity:1.0000; 
stroke:#FFFFFF; stroke-width:0.0212; stroke-opacity:1; 
stroke-linecap:round; stroke-linejoin:round;">
<g >
</g>
<g >
</g>
<g >
</g>
<g >
</g>
</g>
<g style="fill:#FFFFFF; fill-opacity:1.0000; 
stroke:#FFFFFF; stroke-width:0.0212; stroke-opacity:1; 
stroke-linecap:round; stroke-linejoin:round;">
<g >
</g>
<g >
</g>
<g >
</g>
<g >
</g>
</g>
<g style="fill:#FFFFFF; fill-opacity:1.0000; 
stroke:#FFFFFF; stroke-width:0.0212; stroke-opacity:1; 
stroke-linecap:round; stroke-linejoin:round;">
<g >
</g>
<g >
</g>
<g >
</g>
<g >
</g>
</g>
<g style="fill:#FFFFFF; fill-opacity:1.0000; 
stroke:#FFFFFF; stroke-width:0.0212; stroke-opacity:1; 
stroke-linecap:round; stroke-linejoin:round;">
<g >
</g>
<g >
</g>
<g >
</g>
<g >
</g>
</g>
<g style="fill:#FFFFFF; fill-opacity:1.0000; 
stroke:#FFFFFF; stroke-width:0.0212; stroke-opacity:1; 
stroke-linecap:round; stroke-linejoin:round;">
<g >
</g>
<g >
</g>
<g >
</g>
<g >
</g>
</g>
<g style="fill:#FFFFFF; fill-opacity:1.0000; 
stroke:#FFFFFF; stroke-width:0.0212; stroke-opacity:1; 
stroke-linecap:round; stroke-linejoin:round;">
<g >
</g>
<g >
</g>
<g >
</g>
<g >
</g>
</g>
<g style="fill:#FFFFFF; fill-opacity:1.0000; 
stroke:#FFFFFF; stroke-width:0.0212; stroke-opacity:1; 
stroke-linecap:round; stroke-linejoin:round;">
<g >
</g>
<g >
</g>
<g >
</g>
<g >
</g>
</g>
<g style="fill:#FFFFFF; fill-opacity:1.0000; 
stroke:#FFFFFF; stroke-width:0.0212; stroke-opacity:1; 
stroke-linecap:round; stroke-linejoin:round;">
<g >
</g>
<g >
</g>
<g >
</g>
<g >
</g>
</g>
<g style="fill:#FFFFFF; fill-opacity:1.0000; 
stroke:#FFFFFF; stroke-width:0.0212; stroke-opacity:1; 
stroke-linecap:round; stroke-linejoin:round;">
<g >
</g>
<g >
</g>
<g >
</g>
<g >
</g>
</g>
<g style="fill:#FFFFFF; fill-opacity:1.0000; 
stroke:#FFFFFF; stroke-width:0.0212; stroke-opacity:1; 
stroke-linecap:round; stroke-linejoin:round;">
<g >
</g>
<g >
</g>
<g >
</g>
<g >
</g>
</g>
<g style="fill:#FFFFFF; fill-opacity:1.0000; 
stroke:#FFFFFF; stroke-width:0.0212; stroke-opacity:1; 
stroke-linecap:round; stroke-linejoin:round;">
<g >
</g>
<g >
</g>
<g >
</g>
<g >
</g>
</g>
<g style="fill:#FFFFFF; fill-opacity:1.0000; 
stroke:#FFFFFF; stroke-width:0.0212; stroke-opacity:1; 
stroke-linecap:round; stroke-linejoin:round;">
<g >
</g>
<g >
</g>
<g >
</g>
<g >
</g>
</g>
<g style="fill:#FFFFFF; fill-opacity:1.0000; 
stroke:#FFFFFF; stroke-width:0.0212; stroke-opacity:1; 
stroke-linecap:round; stroke-linejoin:round;">
<g >
</g>
<g style="fill:#37CBCB; fill-opacity:1.0000; 
stroke:#37CBCB; stroke-width:0.0212; stroke-opacity:1; 
stroke-linecap:round; stroke-linejoin:round;">
</g>
<g style="fill:#37CBCB; fill-opacity:1.0000; 
stroke:#37CBCB; stroke-width:0.0000; stroke-opacity:1; 
stroke-linecap:round; stroke-linejoin:round;">
<path style="fill:#37CBCB; fill-opacity:1.0000; 
stroke:#37CBCB; stroke-width:0.0000; stroke-opacity:1; 
stroke-linecap:round; stroke-linejoin:round;fill-rule:evenodd;"
d="M 15.9631,8.0183
15.9783,7.9417
16.0217,7.8768
16.0866,7.8335
16.1631,7.8182
16.5631,7.8182
16.6396,7.8335
16.7045,7.8768
16.7479,7.9417
16.7631,8.0183
16.7631,10.0183
16.7479,10.0948
16.7045,10.1597
16.6396,10.2030
16.5631,10.2182
16.1631,10.2182
16.0866,10.2030
16.0217,10.1597
15.9783,10.0948
15.9631,10.0183
Z" /> 
<path style="fill:#37CBCB; fill-opacity:1.0000; 
stroke:#37CBCB; stroke-width:0.0000; stroke-opacity:1; 
stroke-linecap:round; stroke-linejoin:round;fill-rule:evenodd;"
d="M 17.4631,8.0183
17.4783,7.9417
17.5217,7.8768
17.5866,7.8335
17.6631,7.8182
18.0631,7.8182
18.1396,7.8335
18.2045,7.8768
18.2479,7.9417
18.2631,8.0183
18.2631,10.0183
18.2479,10.0948
18.2045,10.1597
18.1396,10.2030
18.0631,10.2182
17.6631,10.2182
17.5866,10.2030
17.5217,10.1597
17.4783,10.0948
17.4631,10.0183
Z" /> 
<path style="fill:#37CBCB; fill-opacity:1.0000; 
stroke:#37CBCB; stroke-width:0.0000; stroke-opacity:1; 
stroke-linecap:round; stroke-linejoin:round;fill-rule:evenodd;"
d="M 18.9631,8.0183
18.9783,7.9417
19.0217,7.8768
19.0866,7.8335
19.1631,7.8182
19.5631,7.8182
19.6396,7.8335
19.7045,7.8768
19.7479,7.9417
19.7631,8.0183
19.7631,10.0183
19.7479,10.0948
19.7045,10.1597
19.6396,10.2030
19.5631,10.2182
19.1631,10.2182
19.0866,10.2030
19.0217,10.1597
18.9783,10.0948
18.9631,10.0183
Z" /> 
<path style="fill:#37CBCB; fill-opacity:1.0000; 
stroke:#37CBCB; stroke-width:0.0000; stroke-opacity:1; 
stroke-linecap:round; stroke-linejoin:round;fill-rule:evenodd;"
d="M 20.4631,8.0183
20.4783,7.9417
20.5217,7.8768
20.5866,7.8335
20.6631,7.8182
21.0631,7.8182
21.1396,7.8335
21.2045,7.8768
21.2479,7.9417
21.2631,8.0183
21.2631,10.0183
21.2479,10.0948
21.2045,10.1597
21.1396,10.2030
21.0631,10.2182
20.6631,10.2182
20.5866,10.2030
20.5217,10.1597
20.4783,10.0948
20.4631,10.0183
Z" /> 
<path style="fill:#37CBCB; fill-opacity:1.0000; 
stroke:#37CBCB; stroke-width:0.0000; stroke-opacity:1; 
stroke-linecap:round; stroke-linejoin:round;fill-rule:evenodd;"
d="M 21.9631,8.0183
21.9783,7.9417
22.0217,7.8768
22.0866,7.8335
22.1631,7.8182
22.5631,7.8182
22.6396,7.8335
22.7045,7.8768
22.7479,7.9417
22.7631,8.0183
22.7631,10.0183
22.7479,10.0948
22.7045,10.1597
22.6396,10.2030
22.5631,10.2182
22.1631,10.2182
22.0866,10.2030
22.0217,10.1597
21.9783,10.0948
21.9631,10.0183
Z" /> 
<path style="fill:#37CBCB; fill-opacity:1.0000; 
stroke:#37CBCB; stroke-width:0.0000; stroke-opacity:1; 
stroke-linecap:round; stroke-linejoin:round;fill-rule:evenodd;"
d="M 23.4631,8.0183
23.4783,7.9417
23.5217,7.8768
23.5866,7.8335
23.6631,7.8182
24.0631,7.8182
24.1396,7.8335
24.2045,7.8768
24.2479,7.9417
24.2631,8.0183
24.2631,10.0183
24.2479,10.0948
24.2045,10.1597
24.1396,10.2030
24.0631,10.2182
23.6631,10.2182
23.5866,10.2030
23.5217,10.1597
23.4783,10.0948
23.4631,10.0183
Z" /> 
<path style="fill:#37CBCB; fill-opacity:1.0000; 
stroke:#37CBCB; stroke-width:0.0000; stroke-opacity:1; 
stroke-linecap:round; stroke-linejoin:round;fill-rule:evenodd;"
d="M 24.9631,8.0183
24.9783,7.9417
25.0217,7.8768
25.0866,7.8335
25.1631,7.8182
25.5631,7.8182
25.6396,7.8335
25.7045,7.8768
25.7479,7.9417
25.7631,8.0183
25.7631,10.0183
25.7479,10.0948
25.7045,10.1597
25.6396,10.2030
25.5631,10.2182
25.1631,10.2182
25.0866,10.2030
25.0217,10.1597
24.9783,10.0948
24.9631,10.0183
Z" /> 
<path style="fill:#37CBCB; fill-opacity:1.0000; 
stroke:#37CBCB; stroke-width:0.0000; stroke-opacity:1; 
stroke-linecap:round; stroke-linejoin:round;fill-rule:evenodd;"
d="M 26.4631,8.0183
26.4783,7.9417
26.5217,7.8768
26.5866,7.8335
26.6631,7.8182
27.0631,7.8182
27.1396,7.8335
27.2045,7.8768
27.2479,7.9417
27.2631,8.0183
27.2631,10.0183
27.2479,10.0948
27.2045,10.1597
27.1396,10.2030
27.0631,10.2182
26.6631,10.2182
26.5866,10.2030
26.5217,10.1597
26.4783,10.0948
26.4631,10.0183
Z" /> 
<path style="fill:#37CBCB; fill-opacity:1.0000; 
stroke:#37CBCB; stroke-width:0.0000; stroke-opacity:1; 
stroke-linecap:round; stroke-linejoin:round;fill-rule:evenodd;"
d="M 27.9631,8.0183
27.9783,7.9417
28.0217,7.8768
28.0866,7.8335
28.1631,7.8182
28.5631,7.8182
28.6396,7.8335
28.7045,7.8768
28.7479,7.9417
28.7631,8.0183
28.7631,10.0183
28.7479,10.0948
28.7045,10.1597
28.6396,10.2030
28.5631,10.2182
28.1631,10.2182
28.0866,10.2030
28.0217,10.1597
27.9783,10.0948
27.9631,10.0183
Z" /> 
<path style="fill:#37CBCB; fill-opacity:1.0000; 
stroke:#37CBCB; stroke-width:0.0000; stroke-opacity:1; 
stroke-linecap:round; stroke-linejoin:round;fill-rule:evenodd;"
d="M 29.4631,8.0183
29.4783,7.9417
29.5217,7.8768
29.5866,7.8335
29.6631,7.8182
30.0631,7.8182
30.1396,7.8335
30.2045,7.8768
30.2479,7.9417
30.2631,8.0183
30.2631,10.0183
30.2479,10.0948
30.2045,10.1597
30.1396,10.2030
30.0631,10.2182
29.6631,10.2182
29.5866,10.2030
29.5217,10.1597
29.4783,10.0948
29.4631,10.0183
Z" /> 
<path style="fill:#37CBCB; fill-opacity:1.0000; 
stroke:#37CBCB; stroke-width:0.0000; stroke-opacity:1; 
stroke-linecap:round; stroke-linejoin:round;fill-rule:evenodd;"
d="M 30.9631,8.0183
30.9783,7.9417
31.0217,7.8768
31.0866,7.8335
31.1631,7.8182
31.5631,7.8182
31.6396,7.8335
31.7045,7.8768
31.7479,7.9417
31.7631,8.0183
31.7631,10.0183
31.7479,10.0948
31.7045,10.1597
31.6396,10.2030
31.5631,10.2182
31.1631,10.2182
31.0866,10.2030
31.0217,10.1597
30.9783,10.0948
30.9631,10.0183
Z" /> 
<path style="fill:#37CBCB; fill-opacity:1.0000; 
stroke:#37CBCB; stroke-width:0.0000; stroke-opacity:1; 
stroke-linecap:round; stroke-linejoin:round;fill-rule:evenodd;"
d="M 33.0631,2.5682
33.0821,2.4726
33.1363,2.3915
33.2174,2.3373
33.3131,2.3182
34.6131,2.3182
34.7088,2.3373
34.7899,2.3915
34.8441,2.4726
34.8631,2.5682
34.8631,5.3682
34.8441,5.4639
34.7899,5.5450
34.7088,5.5992
34.6131,5.6182
33.3131,5.6182
33.2174,5.5992
33.1363,5.5450
33.0821,5.4639
33.0631,5.3682
Z" /> 
<path style="fill:#37CBCB; fill-opacity:1.0000; 
stroke:#37CBCB; stroke-width:0.0000; stroke-opacity:1; 
stroke-linecap:round; stroke-linejoin:round;fill-rule:evenodd;"
d="M 12.8631,2.5682
12.8821,2.4726
12.9363,2.3915
13.0174,2.3373
13.1131,2.3182
14.4131,2.3182
14.5088,2.3373
14.5899,2.3915
14.6441,2.4726
14.6631,2.5682
14.6631,5.3682
14.6441,5.4639
14.5899,5.5450
14.5088,5.5992
14.4131,5.6182
13.1131,5.6182
13.0174,5.5992
12.9363,5.5450
12.8821,5.4639
12.8631,5.3682
Z" /> 
</g>
<g >
</g>
<g >
</g>
<g >
</g>
</g>
<g style="fill:#FFFFFF; fill-opacity:1.0000; 
stroke:#FFFFFF; stroke-width:0.0000; stroke-opacity:1; 
stroke-linecap:round; stroke-linejoin:round;">
<g >
</g>
<g style="fill:#4A5F65; fill-opacity:0.9000; 
stroke:#4A5F65; stroke-width:0.0000; stroke-opacity:1; 
stroke-linecap:round; stroke-linejoin:round;">
<path style="fill:#4A5F65; fill-opacity:0.9000; 
stroke:#4A5F65; stroke-width:0.0000; stroke-opacity:1; 
stroke-linecap:round; stroke-linejoin:round;fill-rule:evenodd;"
d="M 15.9631,8.0183
15.9783,7.9417
16.0217,7.8768
16.0866,7.8335
16.1631,7.8182
16.5631,7.8182
16.6396,7.8335
16.7045,7.8768
16.7479,7.9417
16.7631,8.0183
16.7631,10.0183
16.7479,10.0948
16.7045,10.1597
16.6396,10.2030
16.5631,10.2182
16.1631,10.2182
16.0866,10.2030
16.0217,10.1597
15.9783,10.0948
15.9631,10.0183
Z" /> 
<path style="fill:#4A5F65; fill-opacity:0.9000; 
stroke:#4A5F65; stroke-width:0.0000; stroke-opacity:1; 
stroke-linecap:round; stroke-linejoin:round;fill-rule:evenodd;"
d="M 17.4631,8.0183
17.4783,7.9417
17.5217,7.8768
17.5866,7.8335
17.6631,7.8182
18.0631,7.8182
18.1396,7.8335
18.2045,7.8768
18.2479,7.9417
18.2631,8.0183
18.2631,10.0183
18.2479,10.0948
18.2045,10.1597
18.1396,10.2030
18.0631,10.2182
17.6631,10.2182
17.5866,10.2030
17.5217,10.1597
17.4783,10.0948
17.4631,10.0183
Z" /> 
<path style="fill:#4A5F65; fill-opacity:0.9000; 
stroke:#4A5F65; stroke-width:0.0000; stroke-opacity:1; 
stroke-linecap:round; stroke-linejoin:round;fill-rule:evenodd;"
d="M 18.9631,8.0183
18.9783,7.9417
19.0217,7.8768
19.0866,7.8335
19.1631,7.8182
19.5631,7.8182
19.6396,7.8335
19.7045,7.8768
19.7479,7.9417
19.7631,8.0183
19.7631,10.0183
19.7479,10.0948
19.7045,10.1597
19.6396,10.2030
19.5631,10.2182
19.1631,10.2182
19.0866,10.2030
19.0217,10.1597
18.9783,10.0948
18.9631,10.0183
Z" /> 
<path style="fill:#4A5F65; fill-opacity:0.9000; 
stroke:#4A5F65; stroke-width:0.0000; stroke-opacity:1; 
stroke-linecap:round; stroke-linejoin:round;fill-rule:evenodd;"
d="M 20.4631,8.0183
20.4783,7.9417
20.5217,7.8768
20.5866,7.8335
20.6631,7.8182
21.0631,7.8182
21.1396,7.8335
21.2045,7.8768
21.2479,7.9417
21.2631,8.0183
21.2631,10.0183
21.2479,10.0948
21.2045,10.1597
21.1396,10.2030
21.0631,10.2182
20.6631,10.2182
20.5866,10.2030
20.5217,10.1597
20.4783,10.0948
20.4631,10.0183
Z" /> 
<path style="fill:#4A5F65; fill-opacity:0.9000; 
stroke:#4A5F65; stroke-width:0.0000; stroke-opacity:1; 
stroke-linecap:round; stroke-linejoin:round;fill-rule:evenodd;"
d="M 21.9631,8.0183
21.9783,7.9417
22.0217,7.8768
22.0866,7.8335
22.1631,7.8182
22.5631,7.8182
22.6396,7.8335
22.7045,7.8768
22.7479,7.9417
22.7631,8.0183
22.7631,10.0183
22.7479,10.0948
22.7045,10.1597
22.6396,10.2030
22.5631,10.2182
22.1631,10.2182
22.0866,10.2030
22.0217,10.1597
21.9783,10.0948
21.9631,10.0183
Z" /> 
<path style="fill:#4A5F65; fill-opacity:0.9000; 
stroke:#4A5F65; stroke-width:0.0000; stroke-opacity:1; 
stroke-linecap:round; stroke-linejoin:round;fill-rule:evenodd;"
d="M 23.4631,8.0183
23.4783,7.9417
23.5217,7.8768
23.5866,7.8335
23.6631,7.8182
24.0631,7.8182
24.1396,7.8335
24.2045,7.8768
24.2479,7.9417
24.2631,8.0183
24.2631,10.0183
24.2479,10.0948
24.2045,10.1597
24.1396,10.2030
24.0631,10.2182
23.6631,10.2182
23.5866,10.2030
23.5217,10.1597
23.4783,10.0948
23.4631,10.0183
Z" /> 
<path style="fill:#4A5F65; fill-opacity:0.9000; 
stroke:#4A5F65; stroke-width:0.0000; stroke-opacity:1; 
stroke-linecap:round; stroke-linejoin:round;fill-rule:evenodd;"
d="M 24.9631,8.0183
24.9783,7.9417
25.0217,7.8768
25.0866,7.8335
25.1631,7.8182
25.5631,7.8182
25.6396,7.8335
25.7045,7.8768
25.7479,7.9417
25.7631,8.0183
25.7631,10.0183
25.7479,10.0948
25.7045,10.1597
25.6396,10.2030
25.5631,10.2182
25.1631,10.2182
25.0866,10.2030
25.0217,10.1597
24.9783,10.0948
24.9631,10.0183
Z" /> 
<path style="fill:#4A5F65; fill-opacity:0.9000; 
stroke:#4A5F65; stroke-width:0.0000; stroke-opacity:1; 
stroke-linecap:round; stroke-linejoin:round;fill-rule:evenodd;"
d="M 26.4631,8.0183
26.4783,7.9417
26.5217,7.8768
26.5866,7.8335
26.6631,7.8182
27.0631,7.8182
27.1396,7.8335
27.2045,7.8768
27.2479,7.9417
27.2631,8.0183
27.2631,10.0183
27.2479,10.0948
27.2045,10.1597
27.1396,10.2030
27.0631,10.2182
26.6631,10.2182
26.5866,10.2030
26.5217,10.1597
26.4783,10.0948
26.4631,10.0183
Z" /> 
<path style="fill:#4A5F65; fill-opacity:0.9000; 
stroke:#4A5F65; stroke-width:0.0000; stroke-opacity:1; 
stroke-linecap:round; stroke-linejoin:round;fill-rule:evenodd;"
d="M 27.9631,8.0183
27.9783,7.9417
28.0217,7.8768
28.0866,7.8335
28.1631,7.8182
28.5631,7.8182
28.6396,7.8335
28.7045,7.8768
28.7479,7.9417
28.7631,8.0183
28.7631,10.0183
28.7479,10.0948
28.7045,10.1597
28.6396,10.2030
28.5631,10.2182
28.1631,10.2182
28.0866,10.2030
28.0217,10.1597
27.9783,10.0948
27.9631,10.0183
Z" /> 
<path style="fill:#4A5F65; fill-opacity:0.9000; 
stroke:#4A5F65; stroke-width:0.0000; stroke-opacity:1; 
stroke-linecap:round; stroke-linejoin:round;fill-rule:evenodd;"
d="M 29.4631,8.0183
29.4783,7.9417
29.5217,7.8768
29.5866,7.8335
29.6631,7.8182
30.0631,7.8182
30.1396,7.8335
30.2045,7.8768
30.2479,7.9417
30.2631,8.0183
30.2631,10.0183
30.2479,10.0948
30.2045,10.1597
30.1396,10.2030
30.0631,10.2182
29.6631,10.2182
29.5866,10.2030
29.5217,10.1597
29.4783,10.0948
29.4631,10.0183
Z" /> 
<path style="fill:#4A5F65; fill-opacity:0.9000; 
stroke:#4A5F65; stroke-width:0.0000; stroke-opacity:1; 
stroke-linecap:round; stroke-linejoin:round;fill-rule:evenodd;"
d="M 30.9631,8.0183
30.9783,7.9417
31.0217,7.8768
31.0866,7.8335
31.1631,7.8182
31.5631,7.8182
31.6396,7.8335
31.7045,7.8768
31.7479,7.9417
31.7631,8.0183
31.7631,10.0183
31.7479,10.0948
31.7045,10.1597
31.6396,10.2030
31.5631,10.2182
31.1631,10.2182
31.0866,10.2030
31.0217,10.1597
30.9783,10.0948
30.9631,10.0183
Z" /> 
<path style="fill:#4A5F65; fill-opacity:0.9000; 
stroke:#4A5F65; stroke-width:0.0000; stroke-opacity:1; 
stroke-linecap:round; stroke-linejoin:round;fill-rule:evenodd;"
d="M 33.0631,2.5682
33.0821,2.4726
33.1363,2.3915
33.2174,2.3373
33.3131,2.3182
34.6131,2.3182
34.7088,2.3373
34.7899,2.3915
34.8441,2.4726
34.8631,2.5682
34.8631,5.3682
34.8441,5.4639
34.7899,5.5450
34.7088,5.5992
34.6131,5.6182
33.3131,5.6182
33.2174,5.5992
33.1363,5.5450
33.0821,5.4639
33.0631,5.3682
Z" /> 
<path style="fill:#4A5F65; fill-opacity:0.9000; 
stroke:#4A5F65; stroke-width:0.0000; stroke-opacity:1; 
stroke-linecap:round; stroke-linejoin:round;fill-rule:evenodd;"
d="M 12.8631,2.5682
12.8821,2.4726
12.9363,2.3915
13.0174,2.3373
13.1131,2.3182
14.4131,2.3182
14.5088,2.3373
14.5899,2.3915
14.6441,2.4726
14.6631,2.5682
14.6631,5.3682
14.6441,5.4639
14.5899,5.5450
14.5088,5.5992
14.4131,5.6182
13.1131,5.6182
13.0174,5.5992
12.9363,5.5450
12.8821,5.4639
12.8631,5.3682
Z" /> 
</g>
<g >
</g>
<g >
</g>
<g >
</g>
</g>
<g style="fill:#FFFFFF; fill-opacity:1.0000; 
stroke:#FFFFFF; stroke-width:0.0000; stroke-opacity:1; 
stroke-linecap:round; stroke-linejoin:round;">
</g>
<g style="fill:#0D115E; fill-opacity:1.0000; 
stroke:#0D115E; stroke-width:0.0000; stroke-opacity:1; 
stroke-linecap:round; stroke-linejoin:round;">
</g>
<g style="fill:#0D115E; fill-opacity:1.0000; 
stroke:#0D115E; stroke-width:0.1500; stroke-opacity:1; 
stroke-linecap:round; stroke-linejoin:round;">
</g>
<g style="fill:#0D115E; fill-opacity:0.0; 
stroke:#0D115E; stroke-width:0.1500; stroke-opacity:1; 
stroke-linecap:round; stroke-linejoin:round;">
<text x="23.8631" y="1.3482"
textLength="4.5357" font-size="1.3333" lengthAdjust="spacingAndGlyphs"
text-anchor="middle" opacity="0">REF**</text>
<g class="stroked-text"><desc>REF**</desc>
<path d="M22.5298 1.3031
L22.1964 0.8269
" />
<path d="M21.9583 1.3031
L21.9583 0.3031
" />
<path d="M21.9583 0.3031
L22.3393 0.3031
" />
<path d="M22.3393 0.3031
L22.4345 0.3507
" />
<path d="M22.4345 0.3507
L22.4821 0.3983
" />
<path d="M22.4821 0.3983
L22.5298 0.4935
" />
<path d="M22.5298 0.4935
L22.5298 0.6364
" />
<path d="M22.5298 0.6364
L22.4821 0.7316
" />
<path d="M22.4821 0.7316
L22.4345 0.7793
" />
<path d="M22.4345 0.7793
L22.3393 0.8269
" />
<path d="M22.3393 0.8269
L21.9583 0.8269
" />
<path d="M22.9583 0.7793
L23.2917 0.7793
" />
<path d="M23.4345 1.3031
L22.9583 1.3031
" />
<path d="M22.9583 1.3031
L22.9583 0.3031
" />
<path d="M22.9583 0.3031
L23.4345 0.3031
" />
<path d="M24.1964 0.7793
L23.8631 0.7793
" />
<path d="M23.8631 1.3031
L23.8631 0.3031
" />
<path d="M23.8631 0.3031
L24.3393 0.3031
" />
<path d="M24.8631 0.3031
L24.8631 0.5412
" />
<path d="M24.6250 0.4459
L24.8631 0.5412
" />
<path d="M24.8631 0.5412
L25.1012 0.4459
" />
<path d="M24.7202 0.7316
L24.8631 0.5412
" />
<path d="M24.8631 0.5412
L25.0060 0.7316
" />
<path d="M25.6250 0.3031
L25.6250 0.5412
" />
<path d="M25.3869 0.4459
L25.6250 0.5412
" />
<path d="M25.6250 0.5412
L25.8631 0.4459
" />
<path d="M25.4821 0.7316
L25.6250 0.5412
" />
<path d="M25.6250 0.5412
L25.7679 0.7316
" />
</g></g>
<g style="fill:#0D115E; fill-opacity:0.0; 
stroke:#0D115E; stroke-width:0.1200; stroke-opacity:1; 
stroke-linecap:round; stroke-linejoin:round;">
<path d="M34.3731 8.5083
L32.0231 8.5083
" />
<path d="M15.7031 8.5083
L15.7031 10.2182
" />
<path d="M13.3531 5.8782
L13.3531 8.5083
" />
<path d="M13.4631 1.9382
L34.2631 1.9382
" />
<path d="M13.3531 8.5083
L15.7031 8.5083
" />
<path d="M34.3731 5.8782
L34.3731 8.5083
" />
<g >
</g>
<g >
</g>
<g >
</g>
<g >
</g>
</g> 
</svg>
