<?xml version="1.0" standalone="no"?>
 <!DOCTYPE svg PUBLIC "-//W3C//DTD SVG 1.1//EN" 
 "http://www.w3.org/Graphics/SVG/1.1/DTD/svg11.dtd"> 
<svg
  xmlns:svg="http://www.w3.org/2000/svg"
  xmlns="http://www.w3.org/2000/svg"
  xmlns:xlink="http://www.w3.org/1999/xlink"
  version="1.1"
  width="23.9268mm" height="14.6558mm" viewBox="0.0000 0.0000 23.9268 14.6558">
<title>SVG Image created as conn_2rows-05pins.svg date 2024/01/16 15:18:21 </title>
  <desc>Image generated by Eeschema-SVG </desc>
<g style="fill:#000000; fill-opacity:1.0000;stroke:#000000; stroke-opacity:1.0000;
stroke-linecap:round; stroke-linejoin:round;"
 transform="translate(0 0) scale(1 1)">
</g>
<g style="fill:#000000; fill-opacity:0.0; 
stroke:#000000; stroke-width:0.0000; stroke-opacity:1; 
stroke-linecap:round; stroke-linejoin:round;">
</g>
<g style="fill:#000000; fill-opacity:0.0; 
stroke:#000000; stroke-width:0.1524; stroke-opacity:1; 
stroke-linecap:round; stroke-linejoin:round;">
<rect x="10.693400" y="9.740900" width="1.270000" height="0.254000" rx="0.000000" />
<rect x="10.693400" y="7.200900" width="1.270000" height="0.254000" rx="0.000000" />
<rect x="10.693400" y="4.660900" width="1.270000" height="0.254000" rx="0.000000" />
</g>
<g style="fill:#000000; fill-opacity:0.0; 
stroke:#000000; stroke-width:0.2540; stroke-opacity:1; 
stroke-linecap:round; stroke-linejoin:round;">
<rect x="10.693400" y="3.517900" width="5.080000" height="7.620000" rx="0.000000" />
</g>
<g style="fill:#000000; fill-opacity:0.0; 
stroke:#000000; stroke-width:0.1524; stroke-opacity:1; 
stroke-linecap:round; stroke-linejoin:round;">
<rect x="14.503400" y="7.200900" width="1.270000" height="0.254000" rx="0.000000" />
<rect x="14.503400" y="4.660900" width="1.270000" height="0.254000" rx="0.000000" />
<path d="M10.6934 4.7879
L6.8834 4.7879
" />
<text x="8.7884" y="4.5339"
textLength="1.4127" font-size="1.6933" lengthAdjust="spacingAndGlyphs"
text-anchor="middle" opacity="0">1</text>
<g class="stroked-text"><desc>1</desc>
<path d="M9.1513 4.3704
L8.4256 4.3704
" />
<path d="M8.7884 4.3704
L8.7884 3.1004
" />
<path d="M8.7884 3.1004
L8.6675 3.2819
" />
<path d="M8.6675 3.2819
L8.5465 3.4028
" />
<path d="M8.5465 3.4028
L8.4256 3.4633
" />
</g><path d="M15.7734 4.7879
L19.5834 4.7879
" />
<text x="17.6784" y="4.5339"
textLength="1.4127" font-size="1.6933" lengthAdjust="spacingAndGlyphs"
text-anchor="middle" opacity="0">2</text>
<g class="stroked-text"><desc>2</desc>
<path d="M17.3156 3.2214
L17.3760 3.1609
" />
<path d="M17.3760 3.1609
L17.4970 3.1004
" />
<path d="M17.4970 3.1004
L17.7994 3.1004
" />
<path d="M17.7994 3.1004
L17.9203 3.1609
" />
<path d="M17.9203 3.1609
L17.9808 3.2214
" />
<path d="M17.9808 3.2214
L18.0413 3.3423
" />
<path d="M18.0413 3.3423
L18.0413 3.4633
" />
<path d="M18.0413 3.4633
L17.9808 3.6447
" />
<path d="M17.9808 3.6447
L17.2551 4.3704
" />
<path d="M17.2551 4.3704
L18.0413 4.3704
" />
</g><path d="M10.6934 7.3279
L6.8834 7.3279
" />
<text x="8.7884" y="7.0739"
textLength="1.4127" font-size="1.6933" lengthAdjust="spacingAndGlyphs"
text-anchor="middle" opacity="0">3</text>
<g class="stroked-text"><desc>3</desc>
<path d="M8.3651 5.6404
L9.1513 5.6404
" />
<path d="M9.1513 5.6404
L8.7279 6.1242
" />
<path d="M8.7279 6.1242
L8.9094 6.1242
" />
<path d="M8.9094 6.1242
L9.0303 6.1847
" />
<path d="M9.0303 6.1847
L9.0908 6.2452
" />
<path d="M9.0908 6.2452
L9.1513 6.3661
" />
<path d="M9.1513 6.3661
L9.1513 6.6685
" />
<path d="M9.1513 6.6685
L9.0908 6.7895
" />
<path d="M9.0908 6.7895
L9.0303 6.8500
" />
<path d="M9.0303 6.8500
L8.9094 6.9104
" />
<path d="M8.9094 6.9104
L8.5465 6.9104
" />
<path d="M8.5465 6.9104
L8.4256 6.8500
" />
<path d="M8.4256 6.8500
L8.3651 6.7895
" />
</g><path d="M15.7734 7.3279
L19.5834 7.3279
" />
<text x="17.6784" y="7.0739"
textLength="1.4127" font-size="1.6933" lengthAdjust="spacingAndGlyphs"
text-anchor="middle" opacity="0">4</text>
<g class="stroked-text"><desc>4</desc>
<path d="M17.9203 6.0638
L17.9203 6.9104
" />
<path d="M17.6179 5.5800
L17.3156 6.4871
" />
<path d="M17.3156 6.4871
L18.1017 6.4871
" />
</g><path d="M10.6934 9.8679
L6.8834 9.8679
" />
<text x="8.7884" y="9.6139"
textLength="1.4127" font-size="1.6933" lengthAdjust="spacingAndGlyphs"
text-anchor="middle" opacity="0">5</text>
<g class="stroked-text"><desc>5</desc>
<path d="M9.0908 8.1804
L8.4860 8.1804
" />
<path d="M8.4860 8.1804
L8.4256 8.7852
" />
<path d="M8.4256 8.7852
L8.4860 8.7247
" />
<path d="M8.4860 8.7247
L8.6070 8.6642
" />
<path d="M8.6070 8.6642
L8.9094 8.6642
" />
<path d="M8.9094 8.6642
L9.0303 8.7247
" />
<path d="M9.0303 8.7247
L9.0908 8.7852
" />
<path d="M9.0908 8.7852
L9.1513 8.9061
" />
<path d="M9.1513 8.9061
L9.1513 9.2085
" />
<path d="M9.1513 9.2085
L9.0908 9.3295
" />
<path d="M9.0908 9.3295
L9.0303 9.3900
" />
<path d="M9.0303 9.3900
L8.9094 9.4504
" />
<path d="M8.9094 9.4504
L8.6070 9.4504
" />
<path d="M8.6070 9.4504
L8.4860 9.3900
" />
<path d="M8.4860 9.3900
L8.4256 9.3295
" />
</g></g>
<g style="fill:#000000; fill-opacity:0.0; 
stroke:#000000; stroke-width:0.1588; stroke-opacity:1; 
stroke-linecap:round; stroke-linejoin:round;">
<text x="13.2334" y="2.8829"
textLength="2.2786" font-size="1.6933" lengthAdjust="spacingAndGlyphs"
text-anchor="middle" opacity="0">J?</text>
<g class="stroked-text"><desc>J?</desc>
<path d="M12.8705 1.5571
L12.8705 2.4643
" />
<path d="M12.8705 2.4643
L12.8100 2.6457
" />
<path d="M12.8100 2.6457
L12.6891 2.7667
" />
<path d="M12.6891 2.7667
L12.5076 2.8271
" />
<path d="M12.5076 2.8271
L12.3867 2.8271
" />
<path d="M13.6567 2.7062
L13.7171 2.7667
" />
<path d="M13.7171 2.7667
L13.6567 2.8271
" />
<path d="M13.6567 2.8271
L13.5962 2.7667
" />
<path d="M13.5962 2.7667
L13.6567 2.7062
" />
<path d="M13.6567 2.7062
L13.6567 2.8271
" />
<path d="M13.4148 1.6176
L13.5357 1.5571
" />
<path d="M13.5357 1.5571
L13.8381 1.5571
" />
<path d="M13.8381 1.5571
L13.9590 1.6176
" />
<path d="M13.9590 1.6176
L14.0195 1.7386
" />
<path d="M14.0195 1.7386
L14.0195 1.8595
" />
<path d="M14.0195 1.8595
L13.9590 1.9805
" />
<path d="M13.9590 1.9805
L13.8986 2.0409
" />
<path d="M13.8986 2.0409
L13.7776 2.1014
" />
<path d="M13.7776 2.1014
L13.7171 2.1619
" />
<path d="M13.7171 2.1619
L13.6567 2.2828
" />
<path d="M13.6567 2.2828
L13.6567 2.3433
" />
</g><text x="13.2334" y="13.0429"
textLength="19.9374" font-size="1.6933" lengthAdjust="spacingAndGlyphs"
text-anchor="middle" opacity="0">Conn_2Rows-05Pins</text>
<g class="stroked-text"><desc>Conn_2Rows-05Pins</desc>
<path d="M4.4039 12.8662
L4.3435 12.9267
" />
<path d="M4.3435 12.9267
L4.1620 12.9871
" />
<path d="M4.1620 12.9871
L4.0411 12.9871
" />
<path d="M4.0411 12.9871
L3.8597 12.9267
" />
<path d="M3.8597 12.9267
L3.7387 12.8057
" />
<path d="M3.7387 12.8057
L3.6782 12.6847
" />
<path d="M3.6782 12.6847
L3.6178 12.4428
" />
<path d="M3.6178 12.4428
L3.6178 12.2614
" />
<path d="M3.6178 12.2614
L3.6782 12.0195
" />
<path d="M3.6782 12.0195
L3.7387 11.8986
" />
<path d="M3.7387 11.8986
L3.8597 11.7776
" />
<path d="M3.8597 11.7776
L4.0411 11.7171
" />
<path d="M4.0411 11.7171
L4.1620 11.7171
" />
<path d="M4.1620 11.7171
L4.3435 11.7776
" />
<path d="M4.3435 11.7776
L4.4039 11.8381
" />
<path d="M5.1297 12.9871
L5.0087 12.9267
" />
<path d="M5.0087 12.9267
L4.9482 12.8662
" />
<path d="M4.9482 12.8662
L4.8878 12.7452
" />
<path d="M4.8878 12.7452
L4.8878 12.3824
" />
<path d="M4.8878 12.3824
L4.9482 12.2614
" />
<path d="M4.9482 12.2614
L5.0087 12.2009
" />
<path d="M5.0087 12.2009
L5.1297 12.1405
" />
<path d="M5.1297 12.1405
L5.3111 12.1405
" />
<path d="M5.3111 12.1405
L5.4320 12.2009
" />
<path d="M5.4320 12.2009
L5.4925 12.2614
" />
<path d="M5.4925 12.2614
L5.5530 12.3824
" />
<path d="M5.5530 12.3824
L5.5530 12.7452
" />
<path d="M5.5530 12.7452
L5.4925 12.8662
" />
<path d="M5.4925 12.8662
L5.4320 12.9267
" />
<path d="M5.4320 12.9267
L5.3111 12.9871
" />
<path d="M5.3111 12.9871
L5.1297 12.9871
" />
<path d="M6.0972 12.1405
L6.0972 12.9871
" />
<path d="M6.0972 12.2614
L6.1577 12.2009
" />
<path d="M6.1577 12.2009
L6.2787 12.1405
" />
<path d="M6.2787 12.1405
L6.4601 12.1405
" />
<path d="M6.4601 12.1405
L6.5810 12.2009
" />
<path d="M6.5810 12.2009
L6.6415 12.3219
" />
<path d="M6.6415 12.3219
L6.6415 12.9871
" />
<path d="M7.2462 12.1405
L7.2462 12.9871
" />
<path d="M7.2462 12.2614
L7.3067 12.2009
" />
<path d="M7.3067 12.2009
L7.4277 12.1405
" />
<path d="M7.4277 12.1405
L7.6091 12.1405
" />
<path d="M7.6091 12.1405
L7.7300 12.2009
" />
<path d="M7.7300 12.2009
L7.7905 12.3219
" />
<path d="M7.7905 12.3219
L7.7905 12.9871
" />
<path d="M8.0929 13.1081
L9.0605 13.1081
" />
<path d="M9.3024 11.8381
L9.3628 11.7776
" />
<path d="M9.3628 11.7776
L9.4838 11.7171
" />
<path d="M9.4838 11.7171
L9.7862 11.7171
" />
<path d="M9.7862 11.7171
L9.9071 11.7776
" />
<path d="M9.9071 11.7776
L9.9676 11.8381
" />
<path d="M9.9676 11.8381
L10.0281 11.9590
" />
<path d="M10.0281 11.9590
L10.0281 12.0800
" />
<path d="M10.0281 12.0800
L9.9676 12.2614
" />
<path d="M9.9676 12.2614
L9.2419 12.9871
" />
<path d="M9.2419 12.9871
L10.0281 12.9871
" />
<path d="M11.2980 12.9871
L10.8747 12.3824
" />
<path d="M10.5723 12.9871
L10.5723 11.7171
" />
<path d="M10.5723 11.7171
L11.0561 11.7171
" />
<path d="M11.0561 11.7171
L11.1771 11.7776
" />
<path d="M11.1771 11.7776
L11.2376 11.8381
" />
<path d="M11.2376 11.8381
L11.2980 11.9590
" />
<path d="M11.2980 11.9590
L11.2980 12.1405
" />
<path d="M11.2980 12.1405
L11.2376 12.2614
" />
<path d="M11.2376 12.2614
L11.1771 12.3219
" />
<path d="M11.1771 12.3219
L11.0561 12.3824
" />
<path d="M11.0561 12.3824
L10.5723 12.3824
" />
<path d="M12.0238 12.9871
L11.9028 12.9267
" />
<path d="M11.9028 12.9267
L11.8423 12.8662
" />
<path d="M11.8423 12.8662
L11.7819 12.7452
" />
<path d="M11.7819 12.7452
L11.7819 12.3824
" />
<path d="M11.7819 12.3824
L11.8423 12.2614
" />
<path d="M11.8423 12.2614
L11.9028 12.2009
" />
<path d="M11.9028 12.2009
L12.0238 12.1405
" />
<path d="M12.0238 12.1405
L12.2052 12.1405
" />
<path d="M12.2052 12.1405
L12.3261 12.2009
" />
<path d="M12.3261 12.2009
L12.3866 12.2614
" />
<path d="M12.3866 12.2614
L12.4471 12.3824
" />
<path d="M12.4471 12.3824
L12.4471 12.7452
" />
<path d="M12.4471 12.7452
L12.3866 12.8662
" />
<path d="M12.3866 12.8662
L12.3261 12.9267
" />
<path d="M12.3261 12.9267
L12.2052 12.9871
" />
<path d="M12.2052 12.9871
L12.0238 12.9871
" />
<path d="M12.8704 12.1405
L13.1123 12.9871
" />
<path d="M13.1123 12.9871
L13.3542 12.3824
" />
<path d="M13.3542 12.3824
L13.5961 12.9871
" />
<path d="M13.5961 12.9871
L13.8380 12.1405
" />
<path d="M14.2614 12.9267
L14.3823 12.9871
" />
<path d="M14.3823 12.9871
L14.6242 12.9871
" />
<path d="M14.6242 12.9871
L14.7452 12.9267
" />
<path d="M14.7452 12.9267
L14.8056 12.8057
" />
<path d="M14.8056 12.8057
L14.8056 12.7452
" />
<path d="M14.8056 12.7452
L14.7452 12.6243
" />
<path d="M14.7452 12.6243
L14.6242 12.5638
" />
<path d="M14.6242 12.5638
L14.4428 12.5638
" />
<path d="M14.4428 12.5638
L14.3218 12.5033
" />
<path d="M14.3218 12.5033
L14.2614 12.3824
" />
<path d="M14.2614 12.3824
L14.2614 12.3219
" />
<path d="M14.2614 12.3219
L14.3218 12.2009
" />
<path d="M14.3218 12.2009
L14.4428 12.1405
" />
<path d="M14.4428 12.1405
L14.6242 12.1405
" />
<path d="M14.6242 12.1405
L14.7452 12.2009
" />
<path d="M15.3499 12.5033
L16.3176 12.5033
" />
<path d="M17.1642 11.7171
L17.2852 11.7171
" />
<path d="M17.2852 11.7171
L17.4061 11.7776
" />
<path d="M17.4061 11.7776
L17.4666 11.8381
" />
<path d="M17.4666 11.8381
L17.5271 11.9590
" />
<path d="M17.5271 11.9590
L17.5876 12.2009
" />
<path d="M17.5876 12.2009
L17.5876 12.5033
" />
<path d="M17.5876 12.5033
L17.5271 12.7452
" />
<path d="M17.5271 12.7452
L17.4666 12.8662
" />
<path d="M17.4666 12.8662
L17.4061 12.9267
" />
<path d="M17.4061 12.9267
L17.2852 12.9871
" />
<path d="M17.2852 12.9871
L17.1642 12.9871
" />
<path d="M17.1642 12.9871
L17.0433 12.9267
" />
<path d="M17.0433 12.9267
L16.9828 12.8662
" />
<path d="M16.9828 12.8662
L16.9223 12.7452
" />
<path d="M16.9223 12.7452
L16.8619 12.5033
" />
<path d="M16.8619 12.5033
L16.8619 12.2009
" />
<path d="M16.8619 12.2009
L16.9223 11.9590
" />
<path d="M16.9223 11.9590
L16.9828 11.8381
" />
<path d="M16.9828 11.8381
L17.0433 11.7776
" />
<path d="M17.0433 11.7776
L17.1642 11.7171
" />
<path d="M18.7366 11.7171
L18.1318 11.7171
" />
<path d="M18.1318 11.7171
L18.0714 12.3219
" />
<path d="M18.0714 12.3219
L18.1318 12.2614
" />
<path d="M18.1318 12.2614
L18.2528 12.2009
" />
<path d="M18.2528 12.2009
L18.5552 12.2009
" />
<path d="M18.5552 12.2009
L18.6761 12.2614
" />
<path d="M18.6761 12.2614
L18.7366 12.3219
" />
<path d="M18.7366 12.3219
L18.7971 12.4428
" />
<path d="M18.7971 12.4428
L18.7971 12.7452
" />
<path d="M18.7971 12.7452
L18.7366 12.8662
" />
<path d="M18.7366 12.8662
L18.6761 12.9267
" />
<path d="M18.6761 12.9267
L18.5552 12.9871
" />
<path d="M18.5552 12.9871
L18.2528 12.9871
" />
<path d="M18.2528 12.9871
L18.1318 12.9267
" />
<path d="M18.1318 12.9267
L18.0714 12.8662
" />
<path d="M19.3413 12.9871
L19.3413 11.7171
" />
<path d="M19.3413 11.7171
L19.8251 11.7171
" />
<path d="M19.8251 11.7171
L19.9461 11.7776
" />
<path d="M19.9461 11.7776
L20.0066 11.8381
" />
<path d="M20.0066 11.8381
L20.0670 11.9590
" />
<path d="M20.0670 11.9590
L20.0670 12.1405
" />
<path d="M20.0670 12.1405
L20.0066 12.2614
" />
<path d="M20.0066 12.2614
L19.9461 12.3219
" />
<path d="M19.9461 12.3219
L19.8251 12.3824
" />
<path d="M19.8251 12.3824
L19.3413 12.3824
" />
<path d="M20.6113 12.9871
L20.6113 12.1405
" />
<path d="M20.6113 11.7171
L20.5509 11.7776
" />
<path d="M20.5509 11.7776
L20.6113 11.8381
" />
<path d="M20.6113 11.8381
L20.6718 11.7776
" />
<path d="M20.6718 11.7776
L20.6113 11.7171
" />
<path d="M20.6113 11.7171
L20.6113 11.8381
" />
<path d="M21.2161 12.1405
L21.2161 12.9871
" />
<path d="M21.2161 12.2614
L21.2766 12.2009
" />
<path d="M21.2766 12.2009
L21.3976 12.1405
" />
<path d="M21.3976 12.1405
L21.5790 12.1405
" />
<path d="M21.5790 12.1405
L21.6999 12.2009
" />
<path d="M21.6999 12.2009
L21.7604 12.3219
" />
<path d="M21.7604 12.3219
L21.7604 12.9871
" />
<path d="M22.3047 12.9267
L22.4256 12.9871
" />
<path d="M22.4256 12.9871
L22.6675 12.9871
" />
<path d="M22.6675 12.9871
L22.7885 12.9267
" />
<path d="M22.7885 12.9267
L22.8489 12.8057
" />
<path d="M22.8489 12.8057
L22.8489 12.7452
" />
<path d="M22.8489 12.7452
L22.7885 12.6243
" />
<path d="M22.7885 12.6243
L22.6675 12.5638
" />
<path d="M22.6675 12.5638
L22.4861 12.5638
" />
<path d="M22.4861 12.5638
L22.3651 12.5033
" />
<path d="M22.3651 12.5033
L22.3047 12.3824
" />
<path d="M22.3047 12.3824
L22.3047 12.3219
" />
<path d="M22.3047 12.3219
L22.3651 12.2009
" />
<path d="M22.3651 12.2009
L22.4861 12.1405
" />
<path d="M22.4861 12.1405
L22.6675 12.1405
" />
<path d="M22.6675 12.1405
L22.7885 12.2009
" />
</g></g> 
</svg>
