<?xml version="1.0" standalone="no"?>
 <!DOCTYPE svg PUBLIC "-//W3C//DTD SVG 1.1//EN" 
 "http://www.w3.org/Graphics/SVG/1.1/DTD/svg11.dtd"> 
<svg
  xmlns:svg="http://www.w3.org/2000/svg"
  xmlns="http://www.w3.org/2000/svg"
  xmlns:xlink="http://www.w3.org/1999/xlink"
  version="1.1"
  width="313.9186mm" height="20.7518mm" viewBox="0.0000 0.0000 313.9186 20.7518">
<title>SVG Image created as hlk-5m03.svg date 2024/01/16 15:09:15 </title>
  <desc>Image generated by Eeschema-SVG </desc>
<g style="fill:#000000; fill-opacity:1.0000;stroke:#000000; stroke-opacity:1.0000;
stroke-linecap:round; stroke-linejoin:round;"
 transform="translate(0 0) scale(1 1)">
</g>
<g style="fill:#840000; fill-opacity:0.0; 
stroke:#840000; stroke-width:0.0000; stroke-opacity:1; 
stroke-linecap:round; stroke-linejoin:round;">
</g>
<g style="fill:#FFFFC2; fill-opacity:0.0; 
stroke:#FFFFC2; stroke-width:0.0000; stroke-opacity:1; 
stroke-linecap:round; stroke-linejoin:round;">
</g>
<g style="fill:#FFFFC2; fill-opacity:1.0000; 
stroke:#FFFFC2; stroke-width:0.0000; stroke-opacity:1; 
stroke-linecap:round; stroke-linejoin:round;">
<rect x="149.339300" y="6.565900" width="15.240000" height="7.620000" rx="0.000000" />
</g>
<g style="fill:#840084; fill-opacity:1.0000; 
stroke:#840084; stroke-width:0.0000; stroke-opacity:1; 
stroke-linecap:round; stroke-linejoin:round;">
</g>
<g style="fill:#840000; fill-opacity:1.0000; 
stroke:#840000; stroke-width:0.0000; stroke-opacity:1; 
stroke-linecap:round; stroke-linejoin:round;">
</g>
<g style="fill:#840000; fill-opacity:0.0; 
stroke:#840000; stroke-width:0.2540; stroke-opacity:1; 
stroke-linecap:round; stroke-linejoin:round;">
<rect x="149.339300" y="6.565900" width="15.240000" height="7.620000" rx="0.000000" />
</g>
<g style="fill:#840000; fill-opacity:0.0; 
stroke:#840000; stroke-width:0.1524; stroke-opacity:1; 
stroke-linecap:round; stroke-linejoin:round;">
<path d="M151.6253 9.7409 A0.7157 0.7157 0.0 0 0 152.8953 9.7409" />
<path d="M154.1653 9.7409 A0.7278 0.7278 0.0 0 0 152.8953 9.7409" />
<path style="fill:#840000; fill-opacity:0.0; 
stroke:#840000; stroke-width:0.1524; stroke-opacity:1; 
stroke-linecap:round; stroke-linejoin:round;fill:none"
d="M 151.6253,11.0109
154.1653,11.0109
" /> 
<path style="fill:#840000; fill-opacity:0.0; 
stroke:#840000; stroke-width:0.1524; stroke-opacity:1; 
stroke-linecap:round; stroke-linejoin:round;fill:none"
d="M 156.9593,12.9159
156.9593,13.5509
" /> 
<path style="fill:#840000; fill-opacity:0.0; 
stroke:#840000; stroke-width:0.1524; stroke-opacity:1; 
stroke-linecap:round; stroke-linejoin:round;fill:none"
d="M 156.9593,11.6459
156.9593,12.2809
" /> 
<path style="fill:#840000; fill-opacity:0.0; 
stroke:#840000; stroke-width:0.1524; stroke-opacity:1; 
stroke-linecap:round; stroke-linejoin:round;fill:none"
d="M 156.9593,10.3759
156.9593,11.0109
" /> 
<path style="fill:#840000; fill-opacity:0.0; 
stroke:#840000; stroke-width:0.1524; stroke-opacity:1; 
stroke-linecap:round; stroke-linejoin:round;fill:none"
d="M 156.9593,9.1059
156.9593,9.7409
" /> 
<path style="fill:#840000; fill-opacity:0.0; 
stroke:#840000; stroke-width:0.1524; stroke-opacity:1; 
stroke-linecap:round; stroke-linejoin:round;fill:none"
d="M 156.9593,7.8359
156.9593,8.4709
" /> 
<path style="fill:#840000; fill-opacity:0.0; 
stroke:#840000; stroke-width:0.1524; stroke-opacity:1; 
stroke-linecap:round; stroke-linejoin:round;fill:none"
d="M 156.9593,6.5659
156.9593,7.2009
" /> 
<path style="fill:#840000; fill-opacity:0.0; 
stroke:#840000; stroke-width:0.1524; stroke-opacity:1; 
stroke-linecap:round; stroke-linejoin:round;fill:none"
d="M 159.7533,11.0109
162.2933,11.0109
" /> 
<path style="fill:#840000; fill-opacity:0.0; 
stroke:#840000; stroke-width:0.1524; stroke-opacity:1; 
stroke-linecap:round; stroke-linejoin:round;fill:none"
d="M 159.7533,9.7409
160.2613,9.7409
" /> 
<path style="fill:#840000; fill-opacity:0.0; 
stroke:#840000; stroke-width:0.1524; stroke-opacity:1; 
stroke-linecap:round; stroke-linejoin:round;fill:none"
d="M 160.7693,9.7409
161.2773,9.7409
" /> 
<path style="fill:#840000; fill-opacity:0.0; 
stroke:#840000; stroke-width:0.1524; stroke-opacity:1; 
stroke-linecap:round; stroke-linejoin:round;fill:none"
d="M 161.7853,9.7409
162.2933,9.7409
" /> 
<path d="M149.3393 7.8359
L146.7993 7.8359
" />
</g>
<g style="fill:#006464; fill-opacity:0.0; 
stroke:#006464; stroke-width:0.1524; stroke-opacity:1; 
stroke-linecap:round; stroke-linejoin:round;">
<text x="149.8473" y="8.4709"
textLength="4.9204" font-size="1.6933" lengthAdjust="spacingAndGlyphs"
text-anchor="start" opacity="0">AC/L</text>
<g class="stroked-text"><desc>AC/L</desc>
<path d="M150.1894 8.0526
L150.7941 8.0526
" />
<path d="M150.0684 8.4154
L150.4917 7.1454
" />
<path d="M150.4917 7.1454
L150.9151 8.4154
" />
<path d="M152.0641 8.2945
L152.0037 8.3550
" />
<path d="M152.0037 8.3550
L151.8222 8.4154
" />
<path d="M151.8222 8.4154
L151.7013 8.4154
" />
<path d="M151.7013 8.4154
L151.5199 8.3550
" />
<path d="M151.5199 8.3550
L151.3989 8.2340
" />
<path d="M151.3989 8.2340
L151.3384 8.1130
" />
<path d="M151.3384 8.1130
L151.2780 7.8711
" />
<path d="M151.2780 7.8711
L151.2780 7.6897
" />
<path d="M151.2780 7.6897
L151.3384 7.4478
" />
<path d="M151.3384 7.4478
L151.3989 7.3269
" />
<path d="M151.3989 7.3269
L151.5199 7.2059
" />
<path d="M151.5199 7.2059
L151.7013 7.1454
" />
<path d="M151.7013 7.1454
L151.8222 7.1454
" />
<path d="M151.8222 7.1454
L152.0037 7.2059
" />
<path d="M152.0037 7.2059
L152.0641 7.2664
" />
<path d="M153.5156 7.0850
L152.4270 8.7178
" />
<path d="M154.5437 8.4154
L153.9389 8.4154
" />
<path d="M153.9389 8.4154
L153.9389 7.1454
" />
</g></g>
<g style="fill:#A90000; fill-opacity:0.0; 
stroke:#A90000; stroke-width:0.1524; stroke-opacity:1; 
stroke-linecap:round; stroke-linejoin:round;">
<text x="148.0693" y="7.5819"
textLength="1.4127" font-size="1.6933" lengthAdjust="spacingAndGlyphs"
text-anchor="middle" opacity="0">1</text>
<g class="stroked-text"><desc>1</desc>
<path d="M148.4322 7.4184
L147.7065 7.4184
" />
<path d="M148.0693 7.4184
L148.0693 6.1484
" />
<path d="M148.0693 6.1484
L147.9484 6.3299
" />
<path d="M147.9484 6.3299
L147.8274 6.4508
" />
<path d="M147.8274 6.4508
L147.7065 6.5113
" />
</g></g>
<g style="fill:#840000; fill-opacity:0.0; 
stroke:#840000; stroke-width:0.1524; stroke-opacity:1; 
stroke-linecap:round; stroke-linejoin:round;">
<path d="M149.3393 12.9159
L146.7993 12.9159
" />
</g>
<g style="fill:#006464; fill-opacity:0.0; 
stroke:#006464; stroke-width:0.1524; stroke-opacity:1; 
stroke-linecap:round; stroke-linejoin:round;">
<text x="149.8473" y="13.5509"
textLength="5.2228" font-size="1.6933" lengthAdjust="spacingAndGlyphs"
text-anchor="start" opacity="0">AC/N</text>
<g class="stroked-text"><desc>AC/N</desc>
<path d="M150.1894 13.1326
L150.7941 13.1326
" />
<path d="M150.0684 13.4954
L150.4917 12.2254
" />
<path d="M150.4917 12.2254
L150.9151 13.4954
" />
<path d="M152.0641 13.3745
L152.0037 13.4350
" />
<path d="M152.0037 13.4350
L151.8222 13.4954
" />
<path d="M151.8222 13.4954
L151.7013 13.4954
" />
<path d="M151.7013 13.4954
L151.5199 13.4350
" />
<path d="M151.5199 13.4350
L151.3989 13.3140
" />
<path d="M151.3989 13.3140
L151.3384 13.1930
" />
<path d="M151.3384 13.1930
L151.2780 12.9511
" />
<path d="M151.2780 12.9511
L151.2780 12.7697
" />
<path d="M151.2780 12.7697
L151.3384 12.5278
" />
<path d="M151.3384 12.5278
L151.3989 12.4069
" />
<path d="M151.3989 12.4069
L151.5199 12.2859
" />
<path d="M151.5199 12.2859
L151.7013 12.2254
" />
<path d="M151.7013 12.2254
L151.8222 12.2254
" />
<path d="M151.8222 12.2254
L152.0037 12.2859
" />
<path d="M152.0037 12.2859
L152.0641 12.3464
" />
<path d="M153.5156 12.1650
L152.4270 13.7978
" />
<path d="M153.9389 13.4954
L153.9389 12.2254
" />
<path d="M153.9389 12.2254
L154.6646 13.4954
" />
<path d="M154.6646 13.4954
L154.6646 12.2254
" />
</g></g>
<g style="fill:#A90000; fill-opacity:0.0; 
stroke:#A90000; stroke-width:0.1524; stroke-opacity:1; 
stroke-linecap:round; stroke-linejoin:round;">
<text x="148.0693" y="12.6619"
textLength="1.4127" font-size="1.6933" lengthAdjust="spacingAndGlyphs"
text-anchor="middle" opacity="0">2</text>
<g class="stroked-text"><desc>2</desc>
<path d="M147.7065 11.3494
L147.7669 11.2889
" />
<path d="M147.7669 11.2889
L147.8879 11.2284
" />
<path d="M147.8879 11.2284
L148.1903 11.2284
" />
<path d="M148.1903 11.2284
L148.3112 11.2889
" />
<path d="M148.3112 11.2889
L148.3717 11.3494
" />
<path d="M148.3717 11.3494
L148.4322 11.4703
" />
<path d="M148.4322 11.4703
L148.4322 11.5913
" />
<path d="M148.4322 11.5913
L148.3717 11.7727
" />
<path d="M148.3717 11.7727
L147.6460 12.4984
" />
<path d="M147.6460 12.4984
L148.4322 12.4984
" />
</g></g>
<g style="fill:#840000; fill-opacity:0.0; 
stroke:#840000; stroke-width:0.1524; stroke-opacity:1; 
stroke-linecap:round; stroke-linejoin:round;">
<path d="M164.5793 12.9159
L167.1193 12.9159
" />
</g>
<g style="fill:#006464; fill-opacity:0.0; 
stroke:#006464; stroke-width:0.1524; stroke-opacity:1; 
stroke-linecap:round; stroke-linejoin:round;">
<text x="164.0713" y="13.5509"
textLength="5.8879" font-size="1.6933" lengthAdjust="spacingAndGlyphs"
text-anchor="end" opacity="0">-Vout</text>
<g class="stroked-text"><desc>-Vout</desc>
<path d="M158.5887 13.0116
L159.5564 13.0116
" />
<path d="M159.9797 12.2254
L160.4030 13.4954
" />
<path d="M160.4030 13.4954
L160.8264 12.2254
" />
<path d="M161.4312 13.4954
L161.3102 13.4350
" />
<path d="M161.3102 13.4350
L161.2497 13.3745
" />
<path d="M161.2497 13.3745
L161.1893 13.2535
" />
<path d="M161.1893 13.2535
L161.1893 12.8907
" />
<path d="M161.1893 12.8907
L161.2497 12.7697
" />
<path d="M161.2497 12.7697
L161.3102 12.7092
" />
<path d="M161.3102 12.7092
L161.4312 12.6488
" />
<path d="M161.4312 12.6488
L161.6126 12.6488
" />
<path d="M161.6126 12.6488
L161.7335 12.7092
" />
<path d="M161.7335 12.7092
L161.7940 12.7697
" />
<path d="M161.7940 12.7697
L161.8545 12.8907
" />
<path d="M161.8545 12.8907
L161.8545 13.2535
" />
<path d="M161.8545 13.2535
L161.7940 13.3745
" />
<path d="M161.7940 13.3745
L161.7335 13.4350
" />
<path d="M161.7335 13.4350
L161.6126 13.4954
" />
<path d="M161.6126 13.4954
L161.4312 13.4954
" />
<path d="M162.9430 12.6488
L162.9430 13.4954
" />
<path d="M162.3987 12.6488
L162.3987 13.3140
" />
<path d="M162.3987 13.3140
L162.4592 13.4350
" />
<path d="M162.4592 13.4350
L162.5802 13.4954
" />
<path d="M162.5802 13.4954
L162.7616 13.4954
" />
<path d="M162.7616 13.4954
L162.8825 13.4350
" />
<path d="M162.8825 13.4350
L162.9430 13.3745
" />
<path d="M163.3663 12.6488
L163.8501 12.6488
" />
<path d="M163.5477 12.2254
L163.5477 13.3140
" />
<path d="M163.5477 13.3140
L163.6082 13.4350
" />
<path d="M163.6082 13.4350
L163.7292 13.4954
" />
<path d="M163.7292 13.4954
L163.8501 13.4954
" />
</g></g>
<g style="fill:#A90000; fill-opacity:0.0; 
stroke:#A90000; stroke-width:0.1524; stroke-opacity:1; 
stroke-linecap:round; stroke-linejoin:round;">
<text x="165.8493" y="12.6619"
textLength="1.4127" font-size="1.6933" lengthAdjust="spacingAndGlyphs"
text-anchor="middle" opacity="0">3</text>
<g class="stroked-text"><desc>3</desc>
<path d="M165.4260 11.2284
L166.2122 11.2284
" />
<path d="M166.2122 11.2284
L165.7888 11.7122
" />
<path d="M165.7888 11.7122
L165.9703 11.7122
" />
<path d="M165.9703 11.7122
L166.0912 11.7727
" />
<path d="M166.0912 11.7727
L166.1517 11.8332
" />
<path d="M166.1517 11.8332
L166.2122 11.9541
" />
<path d="M166.2122 11.9541
L166.2122 12.2565
" />
<path d="M166.2122 12.2565
L166.1517 12.3775
" />
<path d="M166.1517 12.3775
L166.0912 12.4380
" />
<path d="M166.0912 12.4380
L165.9703 12.4984
" />
<path d="M165.9703 12.4984
L165.6074 12.4984
" />
<path d="M165.6074 12.4984
L165.4865 12.4380
" />
<path d="M165.4865 12.4380
L165.4260 12.3775
" />
</g></g>
<g style="fill:#840000; fill-opacity:0.0; 
stroke:#840000; stroke-width:0.1524; stroke-opacity:1; 
stroke-linecap:round; stroke-linejoin:round;">
<path d="M164.5793 7.8359
L167.1193 7.8359
" />
</g>
<g style="fill:#006464; fill-opacity:0.0; 
stroke:#006464; stroke-width:0.1524; stroke-opacity:1; 
stroke-linecap:round; stroke-linejoin:round;">
<text x="164.0713" y="8.4709"
textLength="5.8879" font-size="1.6933" lengthAdjust="spacingAndGlyphs"
text-anchor="end" opacity="0">+Vout</text>
<g class="stroked-text"><desc>+Vout</desc>
<path d="M158.5887 7.9316
L159.5564 7.9316
" />
<path d="M159.0725 8.4154
L159.0725 7.4478
" />
<path d="M159.9797 7.1454
L160.4030 8.4154
" />
<path d="M160.4030 8.4154
L160.8264 7.1454
" />
<path d="M161.4312 8.4154
L161.3102 8.3550
" />
<path d="M161.3102 8.3550
L161.2497 8.2945
" />
<path d="M161.2497 8.2945
L161.1893 8.1735
" />
<path d="M161.1893 8.1735
L161.1893 7.8107
" />
<path d="M161.1893 7.8107
L161.2497 7.6897
" />
<path d="M161.2497 7.6897
L161.3102 7.6292
" />
<path d="M161.3102 7.6292
L161.4312 7.5688
" />
<path d="M161.4312 7.5688
L161.6126 7.5688
" />
<path d="M161.6126 7.5688
L161.7335 7.6292
" />
<path d="M161.7335 7.6292
L161.7940 7.6897
" />
<path d="M161.7940 7.6897
L161.8545 7.8107
" />
<path d="M161.8545 7.8107
L161.8545 8.1735
" />
<path d="M161.8545 8.1735
L161.7940 8.2945
" />
<path d="M161.7940 8.2945
L161.7335 8.3550
" />
<path d="M161.7335 8.3550
L161.6126 8.4154
" />
<path d="M161.6126 8.4154
L161.4312 8.4154
" />
<path d="M162.9430 7.5688
L162.9430 8.4154
" />
<path d="M162.3987 7.5688
L162.3987 8.2340
" />
<path d="M162.3987 8.2340
L162.4592 8.3550
" />
<path d="M162.4592 8.3550
L162.5802 8.4154
" />
<path d="M162.5802 8.4154
L162.7616 8.4154
" />
<path d="M162.7616 8.4154
L162.8825 8.3550
" />
<path d="M162.8825 8.3550
L162.9430 8.2945
" />
<path d="M163.3663 7.5688
L163.8501 7.5688
" />
<path d="M163.5477 7.1454
L163.5477 8.2340
" />
<path d="M163.5477 8.2340
L163.6082 8.3550
" />
<path d="M163.6082 8.3550
L163.7292 8.4154
" />
<path d="M163.7292 8.4154
L163.8501 8.4154
" />
</g></g>
<g style="fill:#A90000; fill-opacity:0.0; 
stroke:#A90000; stroke-width:0.1524; stroke-opacity:1; 
stroke-linecap:round; stroke-linejoin:round;">
<text x="165.8493" y="7.5819"
textLength="1.4127" font-size="1.6933" lengthAdjust="spacingAndGlyphs"
text-anchor="middle" opacity="0">4</text>
<g class="stroked-text"><desc>4</desc>
<path d="M166.0912 6.5718
L166.0912 7.4184
" />
<path d="M165.7888 6.0880
L165.4865 6.9951
" />
<path d="M165.4865 6.9951
L166.2726 6.9951
" />
</g></g>
<g style="fill:#840084; fill-opacity:0.0; 
stroke:#840084; stroke-width:0.1524; stroke-opacity:1; 
stroke-linecap:round; stroke-linejoin:round;">
</g>
<g style="fill:#006464; fill-opacity:0.0; 
stroke:#006464; stroke-width:0.1524; stroke-opacity:1; 
stroke-linecap:round; stroke-linejoin:round;">
</g>
<g style="fill:#006464; fill-opacity:0.0; 
stroke:#006464; stroke-width:0.1588; stroke-opacity:1; 
stroke-linecap:round; stroke-linejoin:round;">
<text x="156.9593" y="5.9309"
textLength="3.7905" font-size="1.6933" lengthAdjust="spacingAndGlyphs"
text-anchor="middle" opacity="0">PS?</text>
<g class="stroked-text"><desc>PS?</desc>
<path d="M155.4776 5.8751
L155.4776 4.6051
" />
<path d="M155.4776 4.6051
L155.9614 4.6051
" />
<path d="M155.9614 4.6051
L156.0824 4.6656
" />
<path d="M156.0824 4.6656
L156.1429 4.7261
" />
<path d="M156.1429 4.7261
L156.2033 4.8470
" />
<path d="M156.2033 4.8470
L156.2033 5.0285
" />
<path d="M156.2033 5.0285
L156.1429 5.1494
" />
<path d="M156.1429 5.1494
L156.0824 5.2099
" />
<path d="M156.0824 5.2099
L155.9614 5.2704
" />
<path d="M155.9614 5.2704
L155.4776 5.2704
" />
<path d="M156.6872 5.8147
L156.8686 5.8751
" />
<path d="M156.8686 5.8751
L157.1710 5.8751
" />
<path d="M157.1710 5.8751
L157.2919 5.8147
" />
<path d="M157.2919 5.8147
L157.3524 5.7542
" />
<path d="M157.3524 5.7542
L157.4129 5.6332
" />
<path d="M157.4129 5.6332
L157.4129 5.5123
" />
<path d="M157.4129 5.5123
L157.3524 5.3913
" />
<path d="M157.3524 5.3913
L157.2919 5.3308
" />
<path d="M157.2919 5.3308
L157.1710 5.2704
" />
<path d="M157.1710 5.2704
L156.9291 5.2099
" />
<path d="M156.9291 5.2099
L156.8081 5.1494
" />
<path d="M156.8081 5.1494
L156.7476 5.0889
" />
<path d="M156.7476 5.0889
L156.6872 4.9680
" />
<path d="M156.6872 4.9680
L156.6872 4.8470
" />
<path d="M156.6872 4.8470
L156.7476 4.7261
" />
<path d="M156.7476 4.7261
L156.8081 4.6656
" />
<path d="M156.8081 4.6656
L156.9291 4.6051
" />
<path d="M156.9291 4.6051
L157.2314 4.6051
" />
<path d="M157.2314 4.6051
L157.4129 4.6656
" />
<path d="M158.1386 5.7542
L158.1990 5.8147
" />
<path d="M158.1990 5.8147
L158.1386 5.8751
" />
<path d="M158.1386 5.8751
L158.0781 5.8147
" />
<path d="M158.0781 5.8147
L158.1386 5.7542
" />
<path d="M158.1386 5.7542
L158.1386 5.8751
" />
<path d="M157.8967 4.6656
L158.0176 4.6051
" />
<path d="M158.0176 4.6051
L158.3200 4.6051
" />
<path d="M158.3200 4.6051
L158.4409 4.6656
" />
<path d="M158.4409 4.6656
L158.5014 4.7866
" />
<path d="M158.5014 4.7866
L158.5014 4.9075
" />
<path d="M158.5014 4.9075
L158.4409 5.0285
" />
<path d="M158.4409 5.0285
L158.3805 5.0889
" />
<path d="M158.3805 5.0889
L158.2595 5.1494
" />
<path d="M158.2595 5.1494
L158.1990 5.2099
" />
<path d="M158.1990 5.2099
L158.1386 5.3308
" />
<path d="M158.1386 5.3308
L158.1386 5.3913
" />
</g><text x="156.9593" y="16.0909"
textLength="10.5033" font-size="1.6933" lengthAdjust="spacingAndGlyphs"
text-anchor="middle" opacity="0">HLK-5M03</text>
<g class="stroked-text"><desc>HLK-5M03</desc>
<path d="M152.1212 16.0351
L152.1212 14.7651
" />
<path d="M152.1212 15.3699
L152.8469 15.3699
" />
<path d="M152.8469 16.0351
L152.8469 14.7651
" />
<path d="M154.0565 16.0351
L153.4517 16.0351
" />
<path d="M153.4517 16.0351
L153.4517 14.7651
" />
<path d="M154.4798 16.0351
L154.4798 14.7651
" />
<path d="M155.2055 16.0351
L154.6613 15.3094
" />
<path d="M155.2055 14.7651
L154.4798 15.4908
" />
<path d="M155.7498 15.5513
L156.7175 15.5513
" />
<path d="M157.9270 14.7651
L157.3222 14.7651
" />
<path d="M157.3222 14.7651
L157.2618 15.3699
" />
<path d="M157.2618 15.3699
L157.3222 15.3094
" />
<path d="M157.3222 15.3094
L157.4432 15.2489
" />
<path d="M157.4432 15.2489
L157.7456 15.2489
" />
<path d="M157.7456 15.2489
L157.8665 15.3094
" />
<path d="M157.8665 15.3094
L157.9270 15.3699
" />
<path d="M157.9270 15.3699
L157.9875 15.4908
" />
<path d="M157.9875 15.4908
L157.9875 15.7932
" />
<path d="M157.9875 15.7932
L157.9270 15.9142
" />
<path d="M157.9270 15.9142
L157.8665 15.9747
" />
<path d="M157.8665 15.9747
L157.7456 16.0351
" />
<path d="M157.7456 16.0351
L157.4432 16.0351
" />
<path d="M157.4432 16.0351
L157.3222 15.9747
" />
<path d="M157.3222 15.9747
L157.2618 15.9142
" />
<path d="M158.5317 16.0351
L158.5317 14.7651
" />
<path d="M158.5317 14.7651
L158.9551 15.6723
" />
<path d="M158.9551 15.6723
L159.3784 14.7651
" />
<path d="M159.3784 14.7651
L159.3784 16.0351
" />
<path d="M160.2250 14.7651
L160.3460 14.7651
" />
<path d="M160.3460 14.7651
L160.4669 14.8256
" />
<path d="M160.4669 14.8256
L160.5274 14.8861
" />
<path d="M160.5274 14.8861
L160.5879 15.0070
" />
<path d="M160.5879 15.0070
L160.6484 15.2489
" />
<path d="M160.6484 15.2489
L160.6484 15.5513
" />
<path d="M160.6484 15.5513
L160.5879 15.7932
" />
<path d="M160.5879 15.7932
L160.5274 15.9142
" />
<path d="M160.5274 15.9142
L160.4669 15.9747
" />
<path d="M160.4669 15.9747
L160.3460 16.0351
" />
<path d="M160.3460 16.0351
L160.2250 16.0351
" />
<path d="M160.2250 16.0351
L160.1041 15.9747
" />
<path d="M160.1041 15.9747
L160.0436 15.9142
" />
<path d="M160.0436 15.9142
L159.9831 15.7932
" />
<path d="M159.9831 15.7932
L159.9227 15.5513
" />
<path d="M159.9227 15.5513
L159.9227 15.2489
" />
<path d="M159.9227 15.2489
L159.9831 15.0070
" />
<path d="M159.9831 15.0070
L160.0436 14.8861
" />
<path d="M160.0436 14.8861
L160.1041 14.8256
" />
<path d="M160.1041 14.8256
L160.2250 14.7651
" />
<path d="M161.0717 14.7651
L161.8579 14.7651
" />
<path d="M161.8579 14.7651
L161.4345 15.2489
" />
<path d="M161.4345 15.2489
L161.6160 15.2489
" />
<path d="M161.6160 15.2489
L161.7369 15.3094
" />
<path d="M161.7369 15.3094
L161.7974 15.3699
" />
<path d="M161.7974 15.3699
L161.8579 15.4908
" />
<path d="M161.8579 15.4908
L161.8579 15.7932
" />
<path d="M161.8579 15.7932
L161.7974 15.9142
" />
<path d="M161.7974 15.9142
L161.7369 15.9747
" />
<path d="M161.7369 15.9747
L161.6160 16.0351
" />
<path d="M161.6160 16.0351
L161.2531 16.0351
" />
<path d="M161.2531 16.0351
L161.1322 15.9747
" />
<path d="M161.1322 15.9747
L161.0717 15.9142
" />
</g></g> 
</svg>
