<?xml version="1.0" standalone="no"?>
 <!DOCTYPE svg PUBLIC "-//W3C//DTD SVG 1.1//EN" 
 "http://www.w3.org/Graphics/SVG/1.1/DTD/svg11.dtd"> 
<svg
  xmlns:svg="http://www.w3.org/2000/svg"
  xmlns="http://www.w3.org/2000/svg"
  xmlns:xlink="http://www.w3.org/1999/xlink"
  version="1.1"
  width="78.6130mm" height="34.7472mm" viewBox="0.0000 0.0000 78.6130 34.7472">
<title>SVG Image created as spbtle-rf0.svg date 2024/01/16 15:21:17 </title>
  <desc>Image generated by Eeschema-SVG </desc>
<g style="fill:#000000; fill-opacity:1.0000;stroke:#000000; stroke-opacity:1.0000;
stroke-linecap:round; stroke-linejoin:round;"
 transform="translate(0 0) scale(1 1)">
</g>
<g style="fill:#000000; fill-opacity:0.0; 
stroke:#000000; stroke-width:0.0000; stroke-opacity:1; 
stroke-linecap:round; stroke-linejoin:round;">
</g>
<g style="fill:#000000; fill-opacity:0.0; 
stroke:#000000; stroke-width:0.2540; stroke-opacity:1; 
stroke-linecap:round; stroke-linejoin:round;">
<rect x="22.796500" y="8.483600" width="33.020000" height="20.320000" rx="0.000000" />
</g>
<g style="fill:#000000; fill-opacity:0.0; 
stroke:#000000; stroke-width:0.1524; stroke-opacity:1; 
stroke-linecap:round; stroke-linejoin:round;">
<path d="M22.7965 19.9136
L18.9865 19.9136
" />
<text x="23.8125" y="20.5486"
textLength="14.2941" font-size="1.6933" lengthAdjust="spacingAndGlyphs"
text-anchor="start" opacity="0">NC/EXT_LPCLK</text>
<g class="stroked-text"><desc>NC/EXT_LPCLK</desc>
<path d="M24.2150 20.4931
L24.2150 19.2231
" />
<path d="M24.2150 19.2231
L24.9407 20.4931
" />
<path d="M24.9407 20.4931
L24.9407 19.2231
" />
<path d="M26.2712 20.3722
L26.2108 20.4327
" />
<path d="M26.2108 20.4327
L26.0293 20.4931
" />
<path d="M26.0293 20.4931
L25.9084 20.4931
" />
<path d="M25.9084 20.4931
L25.7270 20.4327
" />
<path d="M25.7270 20.4327
L25.6060 20.3117
" />
<path d="M25.6060 20.3117
L25.5455 20.1907
" />
<path d="M25.5455 20.1907
L25.4851 19.9488
" />
<path d="M25.4851 19.9488
L25.4851 19.7674
" />
<path d="M25.4851 19.7674
L25.5455 19.5255
" />
<path d="M25.5455 19.5255
L25.6060 19.4046
" />
<path d="M25.6060 19.4046
L25.7270 19.2836
" />
<path d="M25.7270 19.2836
L25.9084 19.2231
" />
<path d="M25.9084 19.2231
L26.0293 19.2231
" />
<path d="M26.0293 19.2231
L26.2108 19.2836
" />
<path d="M26.2108 19.2836
L26.2712 19.3441
" />
<path d="M27.7227 19.1627
L26.6341 20.7955
" />
<path d="M28.1460 19.8279
L28.5694 19.8279
" />
<path d="M28.7508 20.4931
L28.1460 20.4931
" />
<path d="M28.1460 20.4931
L28.1460 19.2231
" />
<path d="M28.1460 19.2231
L28.7508 19.2231
" />
<path d="M29.1741 19.2231
L30.0207 20.4931
" />
<path d="M30.0207 19.2231
L29.1741 20.4931
" />
<path d="M30.3231 19.2231
L31.0488 19.2231
" />
<path d="M30.6860 20.4931
L30.6860 19.2231
" />
<path d="M31.1698 20.6141
L32.1374 20.6141
" />
<path d="M33.0445 20.4931
L32.4397 20.4931
" />
<path d="M32.4397 20.4931
L32.4397 19.2231
" />
<path d="M33.4678 20.4931
L33.4678 19.2231
" />
<path d="M33.4678 19.2231
L33.9516 19.2231
" />
<path d="M33.9516 19.2231
L34.0726 19.2836
" />
<path d="M34.0726 19.2836
L34.1331 19.3441
" />
<path d="M34.1331 19.3441
L34.1935 19.4650
" />
<path d="M34.1935 19.4650
L34.1935 19.6465
" />
<path d="M34.1935 19.6465
L34.1331 19.7674
" />
<path d="M34.1331 19.7674
L34.0726 19.8279
" />
<path d="M34.0726 19.8279
L33.9516 19.8884
" />
<path d="M33.9516 19.8884
L33.4678 19.8884
" />
<path d="M35.4635 20.3722
L35.4031 20.4327
" />
<path d="M35.4031 20.4327
L35.2216 20.4931
" />
<path d="M35.2216 20.4931
L35.1007 20.4931
" />
<path d="M35.1007 20.4931
L34.9193 20.4327
" />
<path d="M34.9193 20.4327
L34.7983 20.3117
" />
<path d="M34.7983 20.3117
L34.7378 20.1907
" />
<path d="M34.7378 20.1907
L34.6774 19.9488
" />
<path d="M34.6774 19.9488
L34.6774 19.7674
" />
<path d="M34.6774 19.7674
L34.7378 19.5255
" />
<path d="M34.7378 19.5255
L34.7983 19.4046
" />
<path d="M34.7983 19.4046
L34.9193 19.2836
" />
<path d="M34.9193 19.2836
L35.1007 19.2231
" />
<path d="M35.1007 19.2231
L35.2216 19.2231
" />
<path d="M35.2216 19.2231
L35.4031 19.2836
" />
<path d="M35.4031 19.2836
L35.4635 19.3441
" />
<path d="M36.6126 20.4931
L36.0078 20.4931
" />
<path d="M36.0078 20.4931
L36.0078 19.2231
" />
<path d="M37.0359 20.4931
L37.0359 19.2231
" />
<path d="M37.7616 20.4931
L37.2174 19.7674
" />
<path d="M37.7616 19.2231
L37.0359 19.9488
" />
</g><text x="20.8915" y="19.6596"
textLength="1.4127" font-size="1.6933" lengthAdjust="spacingAndGlyphs"
text-anchor="middle" opacity="0">1</text>
<g class="stroked-text"><desc>1</desc>
<path d="M21.2544 19.4961
L20.5287 19.4961
" />
<path d="M20.8915 19.4961
L20.8915 18.2261
" />
<path d="M20.8915 18.2261
L20.7706 18.4076
" />
<path d="M20.7706 18.4076
L20.6496 18.5285
" />
<path d="M20.6496 18.5285
L20.5287 18.5890
" />
</g><path d="M55.8165 24.9936
L59.6265 24.9936
" />
<text x="54.8005" y="25.6286"
textLength="6.7346" font-size="1.6933" lengthAdjust="spacingAndGlyphs"
text-anchor="end" opacity="0">SPI_~{CS}</text>
<g class="stroked-text"><desc>SPI_~{CS}</desc>
<path d="M48.4108 25.5127
L48.5922 25.5731
" />
<path d="M48.5922 25.5731
L48.8946 25.5731
" />
<path d="M48.8946 25.5731
L49.0155 25.5127
" />
<path d="M49.0155 25.5127
L49.0760 25.4522
" />
<path d="M49.0760 25.4522
L49.1365 25.3312
" />
<path d="M49.1365 25.3312
L49.1365 25.2103
" />
<path d="M49.1365 25.2103
L49.0760 25.0893
" />
<path d="M49.0760 25.0893
L49.0155 25.0288
" />
<path d="M49.0155 25.0288
L48.8946 24.9684
" />
<path d="M48.8946 24.9684
L48.6527 24.9079
" />
<path d="M48.6527 24.9079
L48.5317 24.8474
" />
<path d="M48.5317 24.8474
L48.4712 24.7869
" />
<path d="M48.4712 24.7869
L48.4108 24.6660
" />
<path d="M48.4108 24.6660
L48.4108 24.5450
" />
<path d="M48.4108 24.5450
L48.4712 24.4241
" />
<path d="M48.4712 24.4241
L48.5317 24.3636
" />
<path d="M48.5317 24.3636
L48.6527 24.3031
" />
<path d="M48.6527 24.3031
L48.9550 24.3031
" />
<path d="M48.9550 24.3031
L49.1365 24.3636
" />
<path d="M49.6807 25.5731
L49.6807 24.3031
" />
<path d="M49.6807 24.3031
L50.1645 24.3031
" />
<path d="M50.1645 24.3031
L50.2855 24.3636
" />
<path d="M50.2855 24.3636
L50.3460 24.4241
" />
<path d="M50.3460 24.4241
L50.4064 24.5450
" />
<path d="M50.4064 24.5450
L50.4064 24.7265
" />
<path d="M50.4064 24.7265
L50.3460 24.8474
" />
<path d="M50.3460 24.8474
L50.2855 24.9079
" />
<path d="M50.2855 24.9079
L50.1645 24.9684
" />
<path d="M50.1645 24.9684
L49.6807 24.9684
" />
<path d="M50.9507 25.5731
L50.9507 24.3031
" />
<path d="M51.2532 25.6941
L52.2208 25.6941
" />
<path d="M53.2488 25.4522
L53.1884 25.5127
" />
<path d="M53.1884 25.5127
L53.0069 25.5731
" />
<path d="M53.0069 25.5731
L52.8860 25.5731
" />
<path d="M52.8860 25.5731
L52.7046 25.5127
" />
<path d="M52.7046 25.5127
L52.5836 25.3917
" />
<path d="M52.5836 25.3917
L52.5231 25.2707
" />
<path d="M52.5231 25.2707
L52.4627 25.0288
" />
<path d="M52.4627 25.0288
L52.4627 24.8474
" />
<path d="M52.4627 24.8474
L52.5231 24.6055
" />
<path d="M52.5231 24.6055
L52.5836 24.4846
" />
<path d="M52.5836 24.4846
L52.7046 24.3636
" />
<path d="M52.7046 24.3636
L52.8860 24.3031
" />
<path d="M52.8860 24.3031
L53.0069 24.3031
" />
<path d="M53.0069 24.3031
L53.1884 24.3636
" />
<path d="M53.1884 24.3636
L53.2488 24.4241
" />
<path d="M53.7327 25.5127
L53.9141 25.5731
" />
<path d="M53.9141 25.5731
L54.2165 25.5731
" />
<path d="M54.2165 25.5731
L54.3374 25.5127
" />
<path d="M54.3374 25.5127
L54.3979 25.4522
" />
<path d="M54.3979 25.4522
L54.4584 25.3312
" />
<path d="M54.4584 25.3312
L54.4584 25.2103
" />
<path d="M54.4584 25.2103
L54.3979 25.0893
" />
<path d="M54.3979 25.0893
L54.3374 25.0288
" />
<path d="M54.3374 25.0288
L54.2165 24.9684
" />
<path d="M54.2165 24.9684
L53.9746 24.9079
" />
<path d="M53.9746 24.9079
L53.8536 24.8474
" />
<path d="M53.8536 24.8474
L53.7931 24.7869
" />
<path d="M53.7931 24.7869
L53.7327 24.6660
" />
<path d="M53.7327 24.6660
L53.7327 24.5450
" />
<path d="M53.7327 24.5450
L53.7931 24.4241
" />
<path d="M53.7931 24.4241
L53.8536 24.3636
" />
<path d="M53.8536 24.3636
L53.9746 24.3031
" />
<path d="M53.9746 24.3031
L54.2769 24.3031
" />
<path d="M54.2769 24.3031
L54.4584 24.3636
" />
<path d="M52.3478 23.9506
L54.5733 23.9506
" />
</g><text x="57.7215" y="24.7396"
textLength="2.6222" font-size="1.6933" lengthAdjust="spacingAndGlyphs"
text-anchor="middle" opacity="0">10</text>
<g class="stroked-text"><desc>10</desc>
<path d="M57.4796 24.5761
L56.7539 24.5761
" />
<path d="M57.1167 24.5761
L57.1167 23.3061
" />
<path d="M57.1167 23.3061
L56.9958 23.4876
" />
<path d="M56.9958 23.4876
L56.8748 23.6085
" />
<path d="M56.8748 23.6085
L56.7539 23.6690
" />
<path d="M58.2657 23.3061
L58.3867 23.3061
" />
<path d="M58.3867 23.3061
L58.5076 23.3666
" />
<path d="M58.5076 23.3666
L58.5681 23.4271
" />
<path d="M58.5681 23.4271
L58.6286 23.5480
" />
<path d="M58.6286 23.5480
L58.6891 23.7899
" />
<path d="M58.6891 23.7899
L58.6891 24.0923
" />
<path d="M58.6891 24.0923
L58.6286 24.3342
" />
<path d="M58.6286 24.3342
L58.5681 24.4552
" />
<path d="M58.5681 24.4552
L58.5076 24.5157
" />
<path d="M58.5076 24.5157
L58.3867 24.5761
" />
<path d="M58.3867 24.5761
L58.2657 24.5761
" />
<path d="M58.2657 24.5761
L58.1448 24.5157
" />
<path d="M58.1448 24.5157
L58.0843 24.4552
" />
<path d="M58.0843 24.4552
L58.0238 24.3342
" />
<path d="M58.0238 24.3342
L57.9634 24.0923
" />
<path d="M57.9634 24.0923
L57.9634 23.7899
" />
<path d="M57.9634 23.7899
L58.0238 23.5480
" />
<path d="M58.0238 23.5480
L58.0843 23.4271
" />
<path d="M58.0843 23.4271
L58.1448 23.3666
" />
<path d="M58.1448 23.3666
L58.2657 23.3061
" />
</g><path d="M22.7965 12.2936
L18.9865 12.2936
" />
<text x="23.8125" y="12.9286"
textLength="9.1535" font-size="1.6933" lengthAdjust="spacingAndGlyphs"
text-anchor="start" opacity="0">~{BT_RESET}</text>
<g class="stroked-text"><desc>~{BT_RESET}</desc>
<path d="M24.6384 12.2079
L24.8198 12.2684
" />
<path d="M24.8198 12.2684
L24.8803 12.3288
" />
<path d="M24.8803 12.3288
L24.9407 12.4498
" />
<path d="M24.9407 12.4498
L24.9407 12.6312
" />
<path d="M24.9407 12.6312
L24.8803 12.7522
" />
<path d="M24.8803 12.7522
L24.8198 12.8127
" />
<path d="M24.8198 12.8127
L24.6988 12.8731
" />
<path d="M24.6988 12.8731
L24.2150 12.8731
" />
<path d="M24.2150 12.8731
L24.2150 11.6031
" />
<path d="M24.2150 11.6031
L24.6384 11.6031
" />
<path d="M24.6384 11.6031
L24.7593 11.6636
" />
<path d="M24.7593 11.6636
L24.8198 11.7241
" />
<path d="M24.8198 11.7241
L24.8803 11.8450
" />
<path d="M24.8803 11.8450
L24.8803 11.9660
" />
<path d="M24.8803 11.9660
L24.8198 12.0869
" />
<path d="M24.8198 12.0869
L24.7593 12.1474
" />
<path d="M24.7593 12.1474
L24.6384 12.2079
" />
<path d="M24.6384 12.2079
L24.2150 12.2079
" />
<path d="M25.3036 11.6031
L26.0293 11.6031
" />
<path d="M25.6665 12.8731
L25.6665 11.6031
" />
<path d="M26.1503 12.9941
L27.1179 12.9941
" />
<path d="M28.1459 12.8731
L27.7226 12.2684
" />
<path d="M27.4202 12.8731
L27.4202 11.6031
" />
<path d="M27.4202 11.6031
L27.9040 11.6031
" />
<path d="M27.9040 11.6031
L28.0250 11.6636
" />
<path d="M28.0250 11.6636
L28.0855 11.7241
" />
<path d="M28.0855 11.7241
L28.1459 11.8450
" />
<path d="M28.1459 11.8450
L28.1459 12.0265
" />
<path d="M28.1459 12.0265
L28.0855 12.1474
" />
<path d="M28.0855 12.1474
L28.0250 12.2079
" />
<path d="M28.0250 12.2079
L27.9040 12.2684
" />
<path d="M27.9040 12.2684
L27.4202 12.2684
" />
<path d="M28.6902 12.2079
L29.1136 12.2079
" />
<path d="M29.2950 12.8731
L28.6902 12.8731
" />
<path d="M28.6902 12.8731
L28.6902 11.6031
" />
<path d="M28.6902 11.6031
L29.2950 11.6031
" />
<path d="M29.7788 12.8127
L29.9602 12.8731
" />
<path d="M29.9602 12.8731
L30.2626 12.8731
" />
<path d="M30.2626 12.8731
L30.3835 12.8127
" />
<path d="M30.3835 12.8127
L30.4440 12.7522
" />
<path d="M30.4440 12.7522
L30.5045 12.6312
" />
<path d="M30.5045 12.6312
L30.5045 12.5103
" />
<path d="M30.5045 12.5103
L30.4440 12.3893
" />
<path d="M30.4440 12.3893
L30.3835 12.3288
" />
<path d="M30.3835 12.3288
L30.2626 12.2684
" />
<path d="M30.2626 12.2684
L30.0207 12.2079
" />
<path d="M30.0207 12.2079
L29.8997 12.1474
" />
<path d="M29.8997 12.1474
L29.8392 12.0869
" />
<path d="M29.8392 12.0869
L29.7788 11.9660
" />
<path d="M29.7788 11.9660
L29.7788 11.8450
" />
<path d="M29.7788 11.8450
L29.8392 11.7241
" />
<path d="M29.8392 11.7241
L29.8997 11.6636
" />
<path d="M29.8997 11.6636
L30.0207 11.6031
" />
<path d="M30.0207 11.6031
L30.3230 11.6031
" />
<path d="M30.3230 11.6031
L30.5045 11.6636
" />
<path d="M31.0487 12.2079
L31.4721 12.2079
" />
<path d="M31.6535 12.8731
L31.0487 12.8731
" />
<path d="M31.0487 12.8731
L31.0487 11.6031
" />
<path d="M31.0487 11.6031
L31.6535 11.6031
" />
<path d="M32.0163 11.6031
L32.7420 11.6031
" />
<path d="M32.3792 12.8731
L32.3792 11.6031
" />
<path d="M24.0397 11.2506
L32.7360 11.2506
" />
</g><text x="20.8915" y="12.0396"
textLength="2.6222" font-size="1.6933" lengthAdjust="spacingAndGlyphs"
text-anchor="middle" opacity="0">11</text>
<g class="stroked-text"><desc>11</desc>
<path d="M20.6496 11.8761
L19.9239 11.8761
" />
<path d="M20.2867 11.8761
L20.2867 10.6061
" />
<path d="M20.2867 10.6061
L20.1658 10.7876
" />
<path d="M20.1658 10.7876
L20.0448 10.9085
" />
<path d="M20.0448 10.9085
L19.9239 10.9690
" />
<path d="M21.8591 11.8761
L21.1334 11.8761
" />
<path d="M21.4962 11.8761
L21.4962 10.6061
" />
<path d="M21.4962 10.6061
L21.3753 10.7876
" />
<path d="M21.3753 10.7876
L21.2543 10.9085
" />
<path d="M21.2543 10.9085
L21.1334 10.9690
" />
</g><path d="M22.7965 22.4536
L18.9865 22.4536
" />
<text x="23.8125" y="23.0886"
textLength="9.8190" font-size="1.6933" lengthAdjust="spacingAndGlyphs"
text-anchor="start" opacity="0">NC/GPIO2</text>
<g class="stroked-text"><desc>NC/GPIO2</desc>
<path d="M24.2150 23.0331
L24.2150 21.7631
" />
<path d="M24.2150 21.7631
L24.9407 23.0331
" />
<path d="M24.9407 23.0331
L24.9407 21.7631
" />
<path d="M26.2712 22.9122
L26.2108 22.9727
" />
<path d="M26.2108 22.9727
L26.0293 23.0331
" />
<path d="M26.0293 23.0331
L25.9084 23.0331
" />
<path d="M25.9084 23.0331
L25.7270 22.9727
" />
<path d="M25.7270 22.9727
L25.6060 22.8517
" />
<path d="M25.6060 22.8517
L25.5455 22.7307
" />
<path d="M25.5455 22.7307
L25.4851 22.4888
" />
<path d="M25.4851 22.4888
L25.4851 22.3074
" />
<path d="M25.4851 22.3074
L25.5455 22.0655
" />
<path d="M25.5455 22.0655
L25.6060 21.9446
" />
<path d="M25.6060 21.9446
L25.7270 21.8236
" />
<path d="M25.7270 21.8236
L25.9084 21.7631
" />
<path d="M25.9084 21.7631
L26.0293 21.7631
" />
<path d="M26.0293 21.7631
L26.2108 21.8236
" />
<path d="M26.2108 21.8236
L26.2712 21.8841
" />
<path d="M27.7227 21.7027
L26.6341 23.3355
" />
<path d="M28.8113 21.8236
L28.6903 21.7631
" />
<path d="M28.6903 21.7631
L28.5089 21.7631
" />
<path d="M28.5089 21.7631
L28.3275 21.8236
" />
<path d="M28.3275 21.8236
L28.2065 21.9446
" />
<path d="M28.2065 21.9446
L28.1460 22.0655
" />
<path d="M28.1460 22.0655
L28.0856 22.3074
" />
<path d="M28.0856 22.3074
L28.0856 22.4888
" />
<path d="M28.0856 22.4888
L28.1460 22.7307
" />
<path d="M28.1460 22.7307
L28.2065 22.8517
" />
<path d="M28.2065 22.8517
L28.3275 22.9727
" />
<path d="M28.3275 22.9727
L28.5089 23.0331
" />
<path d="M28.5089 23.0331
L28.6298 23.0331
" />
<path d="M28.6298 23.0331
L28.8113 22.9727
" />
<path d="M28.8113 22.9727
L28.8717 22.9122
" />
<path d="M28.8717 22.9122
L28.8717 22.4888
" />
<path d="M28.8717 22.4888
L28.6298 22.4888
" />
<path d="M29.4160 23.0331
L29.4160 21.7631
" />
<path d="M29.4160 21.7631
L29.8998 21.7631
" />
<path d="M29.8998 21.7631
L30.0208 21.8236
" />
<path d="M30.0208 21.8236
L30.0813 21.8841
" />
<path d="M30.0813 21.8841
L30.1417 22.0050
" />
<path d="M30.1417 22.0050
L30.1417 22.1865
" />
<path d="M30.1417 22.1865
L30.0813 22.3074
" />
<path d="M30.0813 22.3074
L30.0208 22.3679
" />
<path d="M30.0208 22.3679
L29.8998 22.4284
" />
<path d="M29.8998 22.4284
L29.4160 22.4284
" />
<path d="M30.6860 23.0331
L30.6860 21.7631
" />
<path d="M31.5327 21.7631
L31.7746 21.7631
" />
<path d="M31.7746 21.7631
L31.8956 21.8236
" />
<path d="M31.8956 21.8236
L32.0165 21.9446
" />
<path d="M32.0165 21.9446
L32.0770 22.1865
" />
<path d="M32.0770 22.1865
L32.0770 22.6098
" />
<path d="M32.0770 22.6098
L32.0165 22.8517
" />
<path d="M32.0165 22.8517
L31.8956 22.9727
" />
<path d="M31.8956 22.9727
L31.7746 23.0331
" />
<path d="M31.7746 23.0331
L31.5327 23.0331
" />
<path d="M31.5327 23.0331
L31.4118 22.9727
" />
<path d="M31.4118 22.9727
L31.2908 22.8517
" />
<path d="M31.2908 22.8517
L31.2304 22.6098
" />
<path d="M31.2304 22.6098
L31.2304 22.1865
" />
<path d="M31.2304 22.1865
L31.2908 21.9446
" />
<path d="M31.2908 21.9446
L31.4118 21.8236
" />
<path d="M31.4118 21.8236
L31.5327 21.7631
" />
<path d="M32.5609 21.8841
L32.6213 21.8236
" />
<path d="M32.6213 21.8236
L32.7423 21.7631
" />
<path d="M32.7423 21.7631
L33.0447 21.7631
" />
<path d="M33.0447 21.7631
L33.1656 21.8236
" />
<path d="M33.1656 21.8236
L33.2261 21.8841
" />
<path d="M33.2261 21.8841
L33.2866 22.0050
" />
<path d="M33.2866 22.0050
L33.2866 22.1260
" />
<path d="M33.2866 22.1260
L33.2261 22.3074
" />
<path d="M33.2261 22.3074
L32.5004 23.0331
" />
<path d="M32.5004 23.0331
L33.2866 23.0331
" />
</g><text x="20.8915" y="22.1996"
textLength="1.4127" font-size="1.6933" lengthAdjust="spacingAndGlyphs"
text-anchor="middle" opacity="0">2</text>
<g class="stroked-text"><desc>2</desc>
<path d="M20.5287 20.8871
L20.5891 20.8266
" />
<path d="M20.5891 20.8266
L20.7101 20.7661
" />
<path d="M20.7101 20.7661
L21.0125 20.7661
" />
<path d="M21.0125 20.7661
L21.1334 20.8266
" />
<path d="M21.1334 20.8266
L21.1939 20.8871
" />
<path d="M21.1939 20.8871
L21.2544 21.0080
" />
<path d="M21.2544 21.0080
L21.2544 21.1290
" />
<path d="M21.2544 21.1290
L21.1939 21.3104
" />
<path d="M21.1939 21.3104
L20.4682 22.0361
" />
<path d="M20.4682 22.0361
L21.2544 22.0361
" />
</g><path d="M22.7965 24.9936
L18.9865 24.9936
" />
<text x="23.8125" y="25.6286"
textLength="12.9032" font-size="1.6933" lengthAdjust="spacingAndGlyphs"
text-anchor="start" opacity="0">NC/ANA_TEST</text>
<g class="stroked-text"><desc>NC/ANA_TEST</desc>
<path d="M24.2150 25.5731
L24.2150 24.3031
" />
<path d="M24.2150 24.3031
L24.9407 25.5731
" />
<path d="M24.9407 25.5731
L24.9407 24.3031
" />
<path d="M26.2712 25.4522
L26.2108 25.5127
" />
<path d="M26.2108 25.5127
L26.0293 25.5731
" />
<path d="M26.0293 25.5731
L25.9084 25.5731
" />
<path d="M25.9084 25.5731
L25.7270 25.5127
" />
<path d="M25.7270 25.5127
L25.6060 25.3917
" />
<path d="M25.6060 25.3917
L25.5455 25.2707
" />
<path d="M25.5455 25.2707
L25.4851 25.0288
" />
<path d="M25.4851 25.0288
L25.4851 24.8474
" />
<path d="M25.4851 24.8474
L25.5455 24.6055
" />
<path d="M25.5455 24.6055
L25.6060 24.4846
" />
<path d="M25.6060 24.4846
L25.7270 24.3636
" />
<path d="M25.7270 24.3636
L25.9084 24.3031
" />
<path d="M25.9084 24.3031
L26.0293 24.3031
" />
<path d="M26.0293 24.3031
L26.2108 24.3636
" />
<path d="M26.2108 24.3636
L26.2712 24.4241
" />
<path d="M27.7227 24.2427
L26.6341 25.8755
" />
<path d="M28.0856 25.2103
L28.6903 25.2103
" />
<path d="M27.9646 25.5731
L28.3879 24.3031
" />
<path d="M28.3879 24.3031
L28.8113 25.5731
" />
<path d="M29.2346 25.5731
L29.2346 24.3031
" />
<path d="M29.2346 24.3031
L29.9603 25.5731
" />
<path d="M29.9603 25.5731
L29.9603 24.3031
" />
<path d="M30.5047 25.2103
L31.1094 25.2103
" />
<path d="M30.3837 25.5731
L30.8070 24.3031
" />
<path d="M30.8070 24.3031
L31.2304 25.5731
" />
<path d="M31.3514 25.6941
L32.3190 25.6941
" />
<path d="M32.4399 24.3031
L33.1656 24.3031
" />
<path d="M32.8028 25.5731
L32.8028 24.3031
" />
<path d="M33.5889 24.9079
L34.0123 24.9079
" />
<path d="M34.1937 25.5731
L33.5889 25.5731
" />
<path d="M33.5889 25.5731
L33.5889 24.3031
" />
<path d="M33.5889 24.3031
L34.1937 24.3031
" />
<path d="M34.6775 25.5127
L34.8589 25.5731
" />
<path d="M34.8589 25.5731
L35.1613 25.5731
" />
<path d="M35.1613 25.5731
L35.2822 25.5127
" />
<path d="M35.2822 25.5127
L35.3427 25.4522
" />
<path d="M35.3427 25.4522
L35.4032 25.3312
" />
<path d="M35.4032 25.3312
L35.4032 25.2103
" />
<path d="M35.4032 25.2103
L35.3427 25.0893
" />
<path d="M35.3427 25.0893
L35.2822 25.0288
" />
<path d="M35.2822 25.0288
L35.1613 24.9684
" />
<path d="M35.1613 24.9684
L34.9194 24.9079
" />
<path d="M34.9194 24.9079
L34.7984 24.8474
" />
<path d="M34.7984 24.8474
L34.7379 24.7869
" />
<path d="M34.7379 24.7869
L34.6775 24.6660
" />
<path d="M34.6775 24.6660
L34.6775 24.5450
" />
<path d="M34.6775 24.5450
L34.7379 24.4241
" />
<path d="M34.7379 24.4241
L34.7984 24.3636
" />
<path d="M34.7984 24.3636
L34.9194 24.3031
" />
<path d="M34.9194 24.3031
L35.2217 24.3031
" />
<path d="M35.2217 24.3031
L35.4032 24.3636
" />
<path d="M35.7660 24.3031
L36.4917 24.3031
" />
<path d="M36.1289 25.5731
L36.1289 24.3031
" />
</g><text x="20.8915" y="24.7396"
textLength="1.4127" font-size="1.6933" lengthAdjust="spacingAndGlyphs"
text-anchor="middle" opacity="0">3</text>
<g class="stroked-text"><desc>3</desc>
<path d="M20.4682 23.3061
L21.2544 23.3061
" />
<path d="M21.2544 23.3061
L20.8310 23.7899
" />
<path d="M20.8310 23.7899
L21.0125 23.7899
" />
<path d="M21.0125 23.7899
L21.1334 23.8504
" />
<path d="M21.1334 23.8504
L21.1939 23.9109
" />
<path d="M21.1939 23.9109
L21.2544 24.0318
" />
<path d="M21.2544 24.0318
L21.2544 24.3342
" />
<path d="M21.2544 24.3342
L21.1939 24.4552
" />
<path d="M21.1939 24.4552
L21.1334 24.5157
" />
<path d="M21.1334 24.5157
L21.0125 24.5761
" />
<path d="M21.0125 24.5761
L20.6496 24.5761
" />
<path d="M20.6496 24.5761
L20.5287 24.5157
" />
<path d="M20.5287 24.5157
L20.4682 24.4552
" />
</g><path d="M55.8165 12.2936
L59.6265 12.2936
" />
<text x="54.8005" y="12.9286"
textLength="7.4604" font-size="1.6933" lengthAdjust="spacingAndGlyphs"
text-anchor="end" opacity="0">SPI_IRQ</text>
<g class="stroked-text"><desc>SPI_IRQ</desc>
<path d="M47.6850 12.8127
L47.8664 12.8731
" />
<path d="M47.8664 12.8731
L48.1688 12.8731
" />
<path d="M48.1688 12.8731
L48.2897 12.8127
" />
<path d="M48.2897 12.8127
L48.3502 12.7522
" />
<path d="M48.3502 12.7522
L48.4107 12.6312
" />
<path d="M48.4107 12.6312
L48.4107 12.5103
" />
<path d="M48.4107 12.5103
L48.3502 12.3893
" />
<path d="M48.3502 12.3893
L48.2897 12.3288
" />
<path d="M48.2897 12.3288
L48.1688 12.2684
" />
<path d="M48.1688 12.2684
L47.9269 12.2079
" />
<path d="M47.9269 12.2079
L47.8059 12.1474
" />
<path d="M47.8059 12.1474
L47.7454 12.0869
" />
<path d="M47.7454 12.0869
L47.6850 11.9660
" />
<path d="M47.6850 11.9660
L47.6850 11.8450
" />
<path d="M47.6850 11.8450
L47.7454 11.7241
" />
<path d="M47.7454 11.7241
L47.8059 11.6636
" />
<path d="M47.8059 11.6636
L47.9269 11.6031
" />
<path d="M47.9269 11.6031
L48.2292 11.6031
" />
<path d="M48.2292 11.6031
L48.4107 11.6636
" />
<path d="M48.9549 12.8731
L48.9549 11.6031
" />
<path d="M48.9549 11.6031
L49.4387 11.6031
" />
<path d="M49.4387 11.6031
L49.5597 11.6636
" />
<path d="M49.5597 11.6636
L49.6202 11.7241
" />
<path d="M49.6202 11.7241
L49.6806 11.8450
" />
<path d="M49.6806 11.8450
L49.6806 12.0265
" />
<path d="M49.6806 12.0265
L49.6202 12.1474
" />
<path d="M49.6202 12.1474
L49.5597 12.2079
" />
<path d="M49.5597 12.2079
L49.4387 12.2684
" />
<path d="M49.4387 12.2684
L48.9549 12.2684
" />
<path d="M50.2249 12.8731
L50.2249 11.6031
" />
<path d="M50.5274 12.9941
L51.4950 12.9941
" />
<path d="M51.7973 12.8731
L51.7973 11.6031
" />
<path d="M53.1278 12.8731
L52.7045 12.2684
" />
<path d="M52.4021 12.8731
L52.4021 11.6031
" />
<path d="M52.4021 11.6031
L52.8859 11.6031
" />
<path d="M52.8859 11.6031
L53.0069 11.6636
" />
<path d="M53.0069 11.6636
L53.0674 11.7241
" />
<path d="M53.0674 11.7241
L53.1278 11.8450
" />
<path d="M53.1278 11.8450
L53.1278 12.0265
" />
<path d="M53.1278 12.0265
L53.0674 12.1474
" />
<path d="M53.0674 12.1474
L53.0069 12.2079
" />
<path d="M53.0069 12.2079
L52.8859 12.2684
" />
<path d="M52.8859 12.2684
L52.4021 12.2684
" />
<path d="M54.5188 12.9941
L54.3978 12.9336
" />
<path d="M54.3978 12.9336
L54.2769 12.8127
" />
<path d="M54.2769 12.8127
L54.0955 12.6312
" />
<path d="M54.0955 12.6312
L53.9745 12.5707
" />
<path d="M53.9745 12.5707
L53.8536 12.5707
" />
<path d="M53.9140 12.8731
L53.7931 12.8127
" />
<path d="M53.7931 12.8127
L53.6721 12.6917
" />
<path d="M53.6721 12.6917
L53.6117 12.4498
" />
<path d="M53.6117 12.4498
L53.6117 12.0265
" />
<path d="M53.6117 12.0265
L53.6721 11.7846
" />
<path d="M53.6721 11.7846
L53.7931 11.6636
" />
<path d="M53.7931 11.6636
L53.9140 11.6031
" />
<path d="M53.9140 11.6031
L54.1559 11.6031
" />
<path d="M54.1559 11.6031
L54.2769 11.6636
" />
<path d="M54.2769 11.6636
L54.3978 11.7846
" />
<path d="M54.3978 11.7846
L54.4583 12.0265
" />
<path d="M54.4583 12.0265
L54.4583 12.4498
" />
<path d="M54.4583 12.4498
L54.3978 12.6917
" />
<path d="M54.3978 12.6917
L54.2769 12.8127
" />
<path d="M54.2769 12.8127
L54.1559 12.8731
" />
<path d="M54.1559 12.8731
L53.9140 12.8731
" />
</g><text x="57.7215" y="12.0396"
textLength="1.4127" font-size="1.6933" lengthAdjust="spacingAndGlyphs"
text-anchor="middle" opacity="0">4</text>
<g class="stroked-text"><desc>4</desc>
<path d="M57.9634 11.0295
L57.9634 11.8761
" />
<path d="M57.6610 10.5457
L57.3587 11.4528
" />
<path d="M57.3587 11.4528
L58.1448 11.4528
" />
</g><path d="M39.3065 8.4836
L39.3065 4.6736
" />
<g transform="rotate(-90.000000 39.3065 9.4996)">
<text x="39.3065" y="10.1346"
textLength="3.2271" font-size="1.6933" lengthAdjust="spacingAndGlyphs"
text-anchor="end" opacity="0">VIN</text>
</g>
<g class="stroked-text"><desc>VIN</desc>
<path d="M38.6160 12.5027
L39.8860 12.0794
" />
<path d="M39.8860 12.0794
L38.6160 11.6560
" />
<path d="M39.8860 11.2327
L38.6160 11.2327
" />
<path d="M39.8860 10.6279
L38.6160 10.6279
" />
<path d="M38.6160 10.6279
L39.8860 9.9022
" />
<path d="M39.8860 9.9022
L38.6160 9.9022
" />
</g><g transform="rotate(-90.000000 39.0525 6.5786)">
<text x="39.0525" y="6.5786"
textLength="1.4127" font-size="1.6933" lengthAdjust="spacingAndGlyphs"
text-anchor="middle" opacity="0">5</text>
</g>
<g class="stroked-text"><desc>5</desc>
<path d="M37.6190 6.2761
L37.6190 6.8809
" />
<path d="M37.6190 6.8809
L38.2238 6.9413
" />
<path d="M38.2238 6.9413
L38.1633 6.8809
" />
<path d="M38.1633 6.8809
L38.1028 6.7599
" />
<path d="M38.1028 6.7599
L38.1028 6.4575
" />
<path d="M38.1028 6.4575
L38.1633 6.3366
" />
<path d="M38.1633 6.3366
L38.2238 6.2761
" />
<path d="M38.2238 6.2761
L38.3447 6.2156
" />
<path d="M38.3447 6.2156
L38.6471 6.2156
" />
<path d="M38.6471 6.2156
L38.7681 6.2761
" />
<path d="M38.7681 6.2761
L38.8286 6.3366
" />
<path d="M38.8286 6.3366
L38.8890 6.4575
" />
<path d="M38.8890 6.4575
L38.8890 6.7599
" />
<path d="M38.8890 6.7599
L38.8286 6.8809
" />
<path d="M38.8286 6.8809
L38.7681 6.9413
" />
</g><path d="M39.3065 28.8036
L39.3065 32.6136
" />
<g transform="rotate(-90.000000 39.3065 27.7876)">
<text x="39.3065" y="28.4226"
textLength="4.0737" font-size="1.6933" lengthAdjust="spacingAndGlyphs"
text-anchor="start" opacity="0">GND</text>
</g>
<g class="stroked-text"><desc>GND</desc>
<path d="M38.6765 26.7197
L38.6160 26.8407
" />
<path d="M38.6160 26.8407
L38.6160 27.0221
" />
<path d="M38.6160 27.0221
L38.6765 27.2035
" />
<path d="M38.6765 27.2035
L38.7975 27.3245
" />
<path d="M38.7975 27.3245
L38.9184 27.3850
" />
<path d="M38.9184 27.3850
L39.1603 27.4454
" />
<path d="M39.1603 27.4454
L39.3417 27.4454
" />
<path d="M39.3417 27.4454
L39.5836 27.3850
" />
<path d="M39.5836 27.3850
L39.7046 27.3245
" />
<path d="M39.7046 27.3245
L39.8256 27.2035
" />
<path d="M39.8256 27.2035
L39.8860 27.0221
" />
<path d="M39.8860 27.0221
L39.8860 26.9012
" />
<path d="M39.8860 26.9012
L39.8256 26.7197
" />
<path d="M39.8256 26.7197
L39.7651 26.6593
" />
<path d="M39.7651 26.6593
L39.3417 26.6593
" />
<path d="M39.3417 26.6593
L39.3417 26.9012
" />
<path d="M39.8860 26.1150
L38.6160 26.1150
" />
<path d="M38.6160 26.1150
L39.8860 25.3893
" />
<path d="M39.8860 25.3893
L38.6160 25.3893
" />
<path d="M39.8860 24.7845
L38.6160 24.7845
" />
<path d="M38.6160 24.7845
L38.6160 24.4821
" />
<path d="M38.6160 24.4821
L38.6765 24.3007
" />
<path d="M38.6765 24.3007
L38.7975 24.1797
" />
<path d="M38.7975 24.1797
L38.9184 24.1192
" />
<path d="M38.9184 24.1192
L39.1603 24.0588
" />
<path d="M39.1603 24.0588
L39.3417 24.0588
" />
<path d="M39.3417 24.0588
L39.5836 24.1192
" />
<path d="M39.5836 24.1192
L39.7046 24.1797
" />
<path d="M39.7046 24.1797
L39.8256 24.3007
" />
<path d="M39.8256 24.3007
L39.8860 24.4821
" />
<path d="M39.8860 24.4821
L39.8860 24.7845
" />
</g><g transform="rotate(-90.000000 39.0525 30.7086)">
<text x="39.0525" y="30.7086"
textLength="1.4127" font-size="1.6933" lengthAdjust="spacingAndGlyphs"
text-anchor="middle" opacity="0">6</text>
</g>
<g class="stroked-text"><desc>6</desc>
<path d="M37.6190 30.4666
L37.6190 30.7085
" />
<path d="M37.6190 30.7085
L37.6795 30.8294
" />
<path d="M37.6795 30.8294
L37.7400 30.8899
" />
<path d="M37.7400 30.8899
L37.9214 31.0109
" />
<path d="M37.9214 31.0109
L38.1633 31.0713
" />
<path d="M38.1633 31.0713
L38.6471 31.0713
" />
<path d="M38.6471 31.0713
L38.7681 31.0109
" />
<path d="M38.7681 31.0109
L38.8286 30.9504
" />
<path d="M38.8286 30.9504
L38.8890 30.8294
" />
<path d="M38.8890 30.8294
L38.8890 30.5875
" />
<path d="M38.8890 30.5875
L38.8286 30.4666
" />
<path d="M38.8286 30.4666
L38.7681 30.4061
" />
<path d="M38.7681 30.4061
L38.6471 30.3456
" />
<path d="M38.6471 30.3456
L38.3447 30.3456
" />
<path d="M38.3447 30.3456
L38.2238 30.4061
" />
<path d="M38.2238 30.4061
L38.1633 30.4666
" />
<path d="M38.1633 30.4666
L38.1028 30.5875
" />
<path d="M38.1028 30.5875
L38.1028 30.8294
" />
<path d="M38.1028 30.8294
L38.1633 30.9504
" />
<path d="M38.1633 30.9504
L38.2238 31.0109
" />
<path d="M38.2238 31.0109
L38.3447 31.0713
" />
</g><path d="M55.8165 17.3736
L59.6265 17.3736
" />
<path d="M55.8165 18.0086
L54.5465 17.3736
L55.8165 16.7386
" />
<text x="54.8005" y="18.0086"
textLength="7.8232" font-size="1.6933" lengthAdjust="spacingAndGlyphs"
text-anchor="end" opacity="0">SPI_CLK</text>
<g class="stroked-text"><desc>SPI_CLK</desc>
<path d="M47.3222 17.8927
L47.5036 17.9531
" />
<path d="M47.5036 17.9531
L47.8060 17.9531
" />
<path d="M47.8060 17.9531
L47.9269 17.8927
" />
<path d="M47.9269 17.8927
L47.9874 17.8322
" />
<path d="M47.9874 17.8322
L48.0479 17.7112
" />
<path d="M48.0479 17.7112
L48.0479 17.5903
" />
<path d="M48.0479 17.5903
L47.9874 17.4693
" />
<path d="M47.9874 17.4693
L47.9269 17.4088
" />
<path d="M47.9269 17.4088
L47.8060 17.3484
" />
<path d="M47.8060 17.3484
L47.5641 17.2879
" />
<path d="M47.5641 17.2879
L47.4431 17.2274
" />
<path d="M47.4431 17.2274
L47.3826 17.1669
" />
<path d="M47.3826 17.1669
L47.3222 17.0460
" />
<path d="M47.3222 17.0460
L47.3222 16.9250
" />
<path d="M47.3222 16.9250
L47.3826 16.8041
" />
<path d="M47.3826 16.8041
L47.4431 16.7436
" />
<path d="M47.4431 16.7436
L47.5641 16.6831
" />
<path d="M47.5641 16.6831
L47.8664 16.6831
" />
<path d="M47.8664 16.6831
L48.0479 16.7436
" />
<path d="M48.5921 17.9531
L48.5921 16.6831
" />
<path d="M48.5921 16.6831
L49.0759 16.6831
" />
<path d="M49.0759 16.6831
L49.1969 16.7436
" />
<path d="M49.1969 16.7436
L49.2574 16.8041
" />
<path d="M49.2574 16.8041
L49.3178 16.9250
" />
<path d="M49.3178 16.9250
L49.3178 17.1065
" />
<path d="M49.3178 17.1065
L49.2574 17.2274
" />
<path d="M49.2574 17.2274
L49.1969 17.2879
" />
<path d="M49.1969 17.2879
L49.0759 17.3484
" />
<path d="M49.0759 17.3484
L48.5921 17.3484
" />
<path d="M49.8621 17.9531
L49.8621 16.6831
" />
<path d="M50.1646 18.0741
L51.1322 18.0741
" />
<path d="M52.1602 17.8322
L52.0998 17.8927
" />
<path d="M52.0998 17.8927
L51.9183 17.9531
" />
<path d="M51.9183 17.9531
L51.7974 17.9531
" />
<path d="M51.7974 17.9531
L51.6160 17.8927
" />
<path d="M51.6160 17.8927
L51.4950 17.7717
" />
<path d="M51.4950 17.7717
L51.4345 17.6507
" />
<path d="M51.4345 17.6507
L51.3741 17.4088
" />
<path d="M51.3741 17.4088
L51.3741 17.2274
" />
<path d="M51.3741 17.2274
L51.4345 16.9855
" />
<path d="M51.4345 16.9855
L51.4950 16.8646
" />
<path d="M51.4950 16.8646
L51.6160 16.7436
" />
<path d="M51.6160 16.7436
L51.7974 16.6831
" />
<path d="M51.7974 16.6831
L51.9183 16.6831
" />
<path d="M51.9183 16.6831
L52.0998 16.7436
" />
<path d="M52.0998 16.7436
L52.1602 16.8041
" />
<path d="M53.3093 17.9531
L52.7045 17.9531
" />
<path d="M52.7045 17.9531
L52.7045 16.6831
" />
<path d="M53.7326 17.9531
L53.7326 16.6831
" />
<path d="M54.4583 17.9531
L53.9141 17.2274
" />
<path d="M54.4583 16.6831
L53.7326 17.4088
" />
</g><text x="57.7215" y="17.1196"
textLength="1.4127" font-size="1.6933" lengthAdjust="spacingAndGlyphs"
text-anchor="middle" opacity="0">7</text>
<g class="stroked-text"><desc>7</desc>
<path d="M57.2982 15.6861
L58.1448 15.6861
" />
<path d="M58.1448 15.6861
L57.6006 16.9561
" />
</g><path d="M55.8165 19.9136
L59.6265 19.9136
" />
<text x="54.8005" y="20.5486"
textLength="8.8513" font-size="1.6933" lengthAdjust="spacingAndGlyphs"
text-anchor="end" opacity="0">SPI_MISO</text>
<g class="stroked-text"><desc>SPI_MISO</desc>
<path d="M46.2941 20.4327
L46.4755 20.4931
" />
<path d="M46.4755 20.4931
L46.7779 20.4931
" />
<path d="M46.7779 20.4931
L46.8988 20.4327
" />
<path d="M46.8988 20.4327
L46.9593 20.3722
" />
<path d="M46.9593 20.3722
L47.0198 20.2512
" />
<path d="M47.0198 20.2512
L47.0198 20.1303
" />
<path d="M47.0198 20.1303
L46.9593 20.0093
" />
<path d="M46.9593 20.0093
L46.8988 19.9488
" />
<path d="M46.8988 19.9488
L46.7779 19.8884
" />
<path d="M46.7779 19.8884
L46.5360 19.8279
" />
<path d="M46.5360 19.8279
L46.4150 19.7674
" />
<path d="M46.4150 19.7674
L46.3545 19.7069
" />
<path d="M46.3545 19.7069
L46.2941 19.5860
" />
<path d="M46.2941 19.5860
L46.2941 19.4650
" />
<path d="M46.2941 19.4650
L46.3545 19.3441
" />
<path d="M46.3545 19.3441
L46.4150 19.2836
" />
<path d="M46.4150 19.2836
L46.5360 19.2231
" />
<path d="M46.5360 19.2231
L46.8383 19.2231
" />
<path d="M46.8383 19.2231
L47.0198 19.2836
" />
<path d="M47.5640 20.4931
L47.5640 19.2231
" />
<path d="M47.5640 19.2231
L48.0478 19.2231
" />
<path d="M48.0478 19.2231
L48.1688 19.2836
" />
<path d="M48.1688 19.2836
L48.2293 19.3441
" />
<path d="M48.2293 19.3441
L48.2897 19.4650
" />
<path d="M48.2897 19.4650
L48.2897 19.6465
" />
<path d="M48.2897 19.6465
L48.2293 19.7674
" />
<path d="M48.2293 19.7674
L48.1688 19.8279
" />
<path d="M48.1688 19.8279
L48.0478 19.8884
" />
<path d="M48.0478 19.8884
L47.5640 19.8884
" />
<path d="M48.8340 20.4931
L48.8340 19.2231
" />
<path d="M49.1365 20.6141
L50.1041 20.6141
" />
<path d="M50.4064 20.4931
L50.4064 19.2231
" />
<path d="M50.4064 19.2231
L50.8298 20.1303
" />
<path d="M50.8298 20.1303
L51.2531 19.2231
" />
<path d="M51.2531 19.2231
L51.2531 20.4931
" />
<path d="M51.8578 20.4931
L51.8578 19.2231
" />
<path d="M52.4022 20.4327
L52.5836 20.4931
" />
<path d="M52.5836 20.4931
L52.8860 20.4931
" />
<path d="M52.8860 20.4931
L53.0069 20.4327
" />
<path d="M53.0069 20.4327
L53.0674 20.3722
" />
<path d="M53.0674 20.3722
L53.1279 20.2512
" />
<path d="M53.1279 20.2512
L53.1279 20.1303
" />
<path d="M53.1279 20.1303
L53.0674 20.0093
" />
<path d="M53.0674 20.0093
L53.0069 19.9488
" />
<path d="M53.0069 19.9488
L52.8860 19.8884
" />
<path d="M52.8860 19.8884
L52.6441 19.8279
" />
<path d="M52.6441 19.8279
L52.5231 19.7674
" />
<path d="M52.5231 19.7674
L52.4626 19.7069
" />
<path d="M52.4626 19.7069
L52.4022 19.5860
" />
<path d="M52.4022 19.5860
L52.4022 19.4650
" />
<path d="M52.4022 19.4650
L52.4626 19.3441
" />
<path d="M52.4626 19.3441
L52.5231 19.2836
" />
<path d="M52.5231 19.2836
L52.6441 19.2231
" />
<path d="M52.6441 19.2231
L52.9464 19.2231
" />
<path d="M52.9464 19.2231
L53.1279 19.2836
" />
<path d="M53.9140 19.2231
L54.1559 19.2231
" />
<path d="M54.1559 19.2231
L54.2769 19.2836
" />
<path d="M54.2769 19.2836
L54.3978 19.4046
" />
<path d="M54.3978 19.4046
L54.4583 19.6465
" />
<path d="M54.4583 19.6465
L54.4583 20.0698
" />
<path d="M54.4583 20.0698
L54.3978 20.3117
" />
<path d="M54.3978 20.3117
L54.2769 20.4327
" />
<path d="M54.2769 20.4327
L54.1559 20.4931
" />
<path d="M54.1559 20.4931
L53.9140 20.4931
" />
<path d="M53.9140 20.4931
L53.7931 20.4327
" />
<path d="M53.7931 20.4327
L53.6721 20.3117
" />
<path d="M53.6721 20.3117
L53.6117 20.0698
" />
<path d="M53.6117 20.0698
L53.6117 19.6465
" />
<path d="M53.6117 19.6465
L53.6721 19.4046
" />
<path d="M53.6721 19.4046
L53.7931 19.2836
" />
<path d="M53.7931 19.2836
L53.9140 19.2231
" />
</g><text x="57.7215" y="19.6596"
textLength="1.4127" font-size="1.6933" lengthAdjust="spacingAndGlyphs"
text-anchor="middle" opacity="0">8</text>
<g class="stroked-text"><desc>8</desc>
<path d="M57.6006 18.7704
L57.4796 18.7099
" />
<path d="M57.4796 18.7099
L57.4191 18.6495
" />
<path d="M57.4191 18.6495
L57.3587 18.5285
" />
<path d="M57.3587 18.5285
L57.3587 18.4680
" />
<path d="M57.3587 18.4680
L57.4191 18.3471
" />
<path d="M57.4191 18.3471
L57.4796 18.2866
" />
<path d="M57.4796 18.2866
L57.6006 18.2261
" />
<path d="M57.6006 18.2261
L57.8425 18.2261
" />
<path d="M57.8425 18.2261
L57.9634 18.2866
" />
<path d="M57.9634 18.2866
L58.0239 18.3471
" />
<path d="M58.0239 18.3471
L58.0844 18.4680
" />
<path d="M58.0844 18.4680
L58.0844 18.5285
" />
<path d="M58.0844 18.5285
L58.0239 18.6495
" />
<path d="M58.0239 18.6495
L57.9634 18.7099
" />
<path d="M57.9634 18.7099
L57.8425 18.7704
" />
<path d="M57.8425 18.7704
L57.6006 18.7704
" />
<path d="M57.6006 18.7704
L57.4796 18.8309
" />
<path d="M57.4796 18.8309
L57.4191 18.8914
" />
<path d="M57.4191 18.8914
L57.3587 19.0123
" />
<path d="M57.3587 19.0123
L57.3587 19.2542
" />
<path d="M57.3587 19.2542
L57.4191 19.3752
" />
<path d="M57.4191 19.3752
L57.4796 19.4357
" />
<path d="M57.4796 19.4357
L57.6006 19.4961
" />
<path d="M57.6006 19.4961
L57.8425 19.4961
" />
<path d="M57.8425 19.4961
L57.9634 19.4357
" />
<path d="M57.9634 19.4357
L58.0239 19.3752
" />
<path d="M58.0239 19.3752
L58.0844 19.2542
" />
<path d="M58.0844 19.2542
L58.0844 19.0123
" />
<path d="M58.0844 19.0123
L58.0239 18.8914
" />
<path d="M58.0239 18.8914
L57.9634 18.8309
" />
<path d="M57.9634 18.8309
L57.8425 18.7704
" />
</g><path d="M55.8165 22.4536
L59.6265 22.4536
" />
<text x="54.8005" y="23.0886"
textLength="8.8513" font-size="1.6933" lengthAdjust="spacingAndGlyphs"
text-anchor="end" opacity="0">SPI_MOSI</text>
<g class="stroked-text"><desc>SPI_MOSI</desc>
<path d="M46.2941 22.9727
L46.4755 23.0331
" />
<path d="M46.4755 23.0331
L46.7779 23.0331
" />
<path d="M46.7779 23.0331
L46.8988 22.9727
" />
<path d="M46.8988 22.9727
L46.9593 22.9122
" />
<path d="M46.9593 22.9122
L47.0198 22.7912
" />
<path d="M47.0198 22.7912
L47.0198 22.6703
" />
<path d="M47.0198 22.6703
L46.9593 22.5493
" />
<path d="M46.9593 22.5493
L46.8988 22.4888
" />
<path d="M46.8988 22.4888
L46.7779 22.4284
" />
<path d="M46.7779 22.4284
L46.5360 22.3679
" />
<path d="M46.5360 22.3679
L46.4150 22.3074
" />
<path d="M46.4150 22.3074
L46.3545 22.2469
" />
<path d="M46.3545 22.2469
L46.2941 22.1260
" />
<path d="M46.2941 22.1260
L46.2941 22.0050
" />
<path d="M46.2941 22.0050
L46.3545 21.8841
" />
<path d="M46.3545 21.8841
L46.4150 21.8236
" />
<path d="M46.4150 21.8236
L46.5360 21.7631
" />
<path d="M46.5360 21.7631
L46.8383 21.7631
" />
<path d="M46.8383 21.7631
L47.0198 21.8236
" />
<path d="M47.5640 23.0331
L47.5640 21.7631
" />
<path d="M47.5640 21.7631
L48.0478 21.7631
" />
<path d="M48.0478 21.7631
L48.1688 21.8236
" />
<path d="M48.1688 21.8236
L48.2293 21.8841
" />
<path d="M48.2293 21.8841
L48.2897 22.0050
" />
<path d="M48.2897 22.0050
L48.2897 22.1865
" />
<path d="M48.2897 22.1865
L48.2293 22.3074
" />
<path d="M48.2293 22.3074
L48.1688 22.3679
" />
<path d="M48.1688 22.3679
L48.0478 22.4284
" />
<path d="M48.0478 22.4284
L47.5640 22.4284
" />
<path d="M48.8340 23.0331
L48.8340 21.7631
" />
<path d="M49.1365 23.1541
L50.1041 23.1541
" />
<path d="M50.4064 23.0331
L50.4064 21.7631
" />
<path d="M50.4064 21.7631
L50.8298 22.6703
" />
<path d="M50.8298 22.6703
L51.2531 21.7631
" />
<path d="M51.2531 21.7631
L51.2531 23.0331
" />
<path d="M52.0997 21.7631
L52.3416 21.7631
" />
<path d="M52.3416 21.7631
L52.4626 21.8236
" />
<path d="M52.4626 21.8236
L52.5835 21.9446
" />
<path d="M52.5835 21.9446
L52.6440 22.1865
" />
<path d="M52.6440 22.1865
L52.6440 22.6098
" />
<path d="M52.6440 22.6098
L52.5835 22.8517
" />
<path d="M52.5835 22.8517
L52.4626 22.9727
" />
<path d="M52.4626 22.9727
L52.3416 23.0331
" />
<path d="M52.3416 23.0331
L52.0997 23.0331
" />
<path d="M52.0997 23.0331
L51.9788 22.9727
" />
<path d="M51.9788 22.9727
L51.8578 22.8517
" />
<path d="M51.8578 22.8517
L51.7974 22.6098
" />
<path d="M51.7974 22.6098
L51.7974 22.1865
" />
<path d="M51.7974 22.1865
L51.8578 21.9446
" />
<path d="M51.8578 21.9446
L51.9788 21.8236
" />
<path d="M51.9788 21.8236
L52.0997 21.7631
" />
<path d="M53.1279 22.9727
L53.3093 23.0331
" />
<path d="M53.3093 23.0331
L53.6117 23.0331
" />
<path d="M53.6117 23.0331
L53.7326 22.9727
" />
<path d="M53.7326 22.9727
L53.7931 22.9122
" />
<path d="M53.7931 22.9122
L53.8536 22.7912
" />
<path d="M53.8536 22.7912
L53.8536 22.6703
" />
<path d="M53.8536 22.6703
L53.7931 22.5493
" />
<path d="M53.7931 22.5493
L53.7326 22.4888
" />
<path d="M53.7326 22.4888
L53.6117 22.4284
" />
<path d="M53.6117 22.4284
L53.3698 22.3679
" />
<path d="M53.3698 22.3679
L53.2488 22.3074
" />
<path d="M53.2488 22.3074
L53.1883 22.2469
" />
<path d="M53.1883 22.2469
L53.1279 22.1260
" />
<path d="M53.1279 22.1260
L53.1279 22.0050
" />
<path d="M53.1279 22.0050
L53.1883 21.8841
" />
<path d="M53.1883 21.8841
L53.2488 21.8236
" />
<path d="M53.2488 21.8236
L53.3698 21.7631
" />
<path d="M53.3698 21.7631
L53.6721 21.7631
" />
<path d="M53.6721 21.7631
L53.8536 21.8236
" />
<path d="M54.3978 23.0331
L54.3978 21.7631
" />
</g><text x="57.7215" y="22.1996"
textLength="1.4127" font-size="1.6933" lengthAdjust="spacingAndGlyphs"
text-anchor="middle" opacity="0">9</text>
<g class="stroked-text"><desc>9</desc>
<path d="M57.4796 22.0361
L57.7215 22.0361
" />
<path d="M57.7215 22.0361
L57.8425 21.9757
" />
<path d="M57.8425 21.9757
L57.9029 21.9152
" />
<path d="M57.9029 21.9152
L58.0239 21.7337
" />
<path d="M58.0239 21.7337
L58.0844 21.4918
" />
<path d="M58.0844 21.4918
L58.0844 21.0080
" />
<path d="M58.0844 21.0080
L58.0239 20.8871
" />
<path d="M58.0239 20.8871
L57.9634 20.8266
" />
<path d="M57.9634 20.8266
L57.8425 20.7661
" />
<path d="M57.8425 20.7661
L57.6006 20.7661
" />
<path d="M57.6006 20.7661
L57.4796 20.8266
" />
<path d="M57.4796 20.8266
L57.4191 20.8871
" />
<path d="M57.4191 20.8871
L57.3587 21.0080
" />
<path d="M57.3587 21.0080
L57.3587 21.3104
" />
<path d="M57.3587 21.3104
L57.4191 21.4314
" />
<path d="M57.4191 21.4314
L57.4796 21.4918
" />
<path d="M57.4796 21.4918
L57.6006 21.5523
" />
<path d="M57.6006 21.5523
L57.8425 21.5523
" />
<path d="M57.8425 21.5523
L57.9634 21.4918
" />
<path d="M57.9634 21.4918
L58.0239 21.4314
" />
<path d="M58.0239 21.4314
L58.0844 21.3104
" />
</g></g>
<g style="fill:#000000; fill-opacity:0.0; 
stroke:#000000; stroke-width:0.1588; stroke-opacity:1; 
stroke-linecap:round; stroke-linejoin:round;">
<text x="26.6572" y="5.3086"
textLength="2.6415" font-size="1.6933" lengthAdjust="spacingAndGlyphs"
text-anchor="middle" opacity="0">U?</text>
<g class="stroked-text"><desc>U?</desc>
<path d="M25.7500 3.9828
L25.7500 5.0109
" />
<path d="M25.7500 5.0109
L25.8105 5.1319
" />
<path d="M25.8105 5.1319
L25.8710 5.1924
" />
<path d="M25.8710 5.1924
L25.9919 5.2528
" />
<path d="M25.9919 5.2528
L26.2338 5.2528
" />
<path d="M26.2338 5.2528
L26.3548 5.1924
" />
<path d="M26.3548 5.1924
L26.4153 5.1319
" />
<path d="M26.4153 5.1319
L26.4757 5.0109
" />
<path d="M26.4757 5.0109
L26.4757 3.9828
" />
<path d="M27.2620 5.1319
L27.3224 5.1924
" />
<path d="M27.3224 5.1924
L27.2620 5.2528
" />
<path d="M27.2620 5.2528
L27.2015 5.1924
" />
<path d="M27.2015 5.1924
L27.2620 5.1319
" />
<path d="M27.2620 5.1319
L27.2620 5.2528
" />
<path d="M27.0201 4.0433
L27.1410 3.9828
" />
<path d="M27.1410 3.9828
L27.4434 3.9828
" />
<path d="M27.4434 3.9828
L27.5643 4.0433
" />
<path d="M27.5643 4.0433
L27.6248 4.1643
" />
<path d="M27.6248 4.1643
L27.6248 4.2852
" />
<path d="M27.6248 4.2852
L27.5643 4.4062
" />
<path d="M27.5643 4.4062
L27.5039 4.4666
" />
<path d="M27.5039 4.4666
L27.3829 4.5271
" />
<path d="M27.3829 4.5271
L27.3224 4.5876
" />
<path d="M27.3224 4.5876
L27.2620 4.7085
" />
<path d="M27.2620 4.7085
L27.2620 4.7690
" />
</g><text x="31.4650" y="7.8486"
textLength="12.2571" font-size="1.6933" lengthAdjust="spacingAndGlyphs"
text-anchor="middle" opacity="0">SPBTLE-RF0</text>
<g class="stroked-text"><desc>SPBTLE-RF0</desc>
<path d="M25.6896 7.7324
L25.8710 7.7928
" />
<path d="M25.8710 7.7928
L26.1734 7.7928
" />
<path d="M26.1734 7.7928
L26.2943 7.7324
" />
<path d="M26.2943 7.7324
L26.3548 7.6719
" />
<path d="M26.3548 7.6719
L26.4153 7.5509
" />
<path d="M26.4153 7.5509
L26.4153 7.4300
" />
<path d="M26.4153 7.4300
L26.3548 7.3090
" />
<path d="M26.3548 7.3090
L26.2943 7.2485
" />
<path d="M26.2943 7.2485
L26.1734 7.1881
" />
<path d="M26.1734 7.1881
L25.9315 7.1276
" />
<path d="M25.9315 7.1276
L25.8105 7.0671
" />
<path d="M25.8105 7.0671
L25.7500 7.0066
" />
<path d="M25.7500 7.0066
L25.6896 6.8857
" />
<path d="M25.6896 6.8857
L25.6896 6.7647
" />
<path d="M25.6896 6.7647
L25.7500 6.6438
" />
<path d="M25.7500 6.6438
L25.8105 6.5833
" />
<path d="M25.8105 6.5833
L25.9315 6.5228
" />
<path d="M25.9315 6.5228
L26.2338 6.5228
" />
<path d="M26.2338 6.5228
L26.4153 6.5833
" />
<path d="M26.9595 7.7928
L26.9595 6.5228
" />
<path d="M26.9595 6.5228
L27.4433 6.5228
" />
<path d="M27.4433 6.5228
L27.5643 6.5833
" />
<path d="M27.5643 6.5833
L27.6248 6.6438
" />
<path d="M27.6248 6.6438
L27.6852 6.7647
" />
<path d="M27.6852 6.7647
L27.6852 6.9462
" />
<path d="M27.6852 6.9462
L27.6248 7.0671
" />
<path d="M27.6248 7.0671
L27.5643 7.1276
" />
<path d="M27.5643 7.1276
L27.4433 7.1881
" />
<path d="M27.4433 7.1881
L26.9595 7.1881
" />
<path d="M28.6529 7.1276
L28.8343 7.1881
" />
<path d="M28.8343 7.1881
L28.8948 7.2485
" />
<path d="M28.8948 7.2485
L28.9552 7.3695
" />
<path d="M28.9552 7.3695
L28.9552 7.5509
" />
<path d="M28.9552 7.5509
L28.8948 7.6719
" />
<path d="M28.8948 7.6719
L28.8343 7.7324
" />
<path d="M28.8343 7.7324
L28.7133 7.7928
" />
<path d="M28.7133 7.7928
L28.2295 7.7928
" />
<path d="M28.2295 7.7928
L28.2295 6.5228
" />
<path d="M28.2295 6.5228
L28.6529 6.5228
" />
<path d="M28.6529 6.5228
L28.7738 6.5833
" />
<path d="M28.7738 6.5833
L28.8343 6.6438
" />
<path d="M28.8343 6.6438
L28.8948 6.7647
" />
<path d="M28.8948 6.7647
L28.8948 6.8857
" />
<path d="M28.8948 6.8857
L28.8343 7.0066
" />
<path d="M28.8343 7.0066
L28.7738 7.0671
" />
<path d="M28.7738 7.0671
L28.6529 7.1276
" />
<path d="M28.6529 7.1276
L28.2295 7.1276
" />
<path d="M29.3181 6.5228
L30.0438 6.5228
" />
<path d="M29.6810 7.7928
L29.6810 6.5228
" />
<path d="M31.0719 7.7928
L30.4671 7.7928
" />
<path d="M30.4671 7.7928
L30.4671 6.5228
" />
<path d="M31.4952 7.1276
L31.9186 7.1276
" />
<path d="M32.1000 7.7928
L31.4952 7.7928
" />
<path d="M31.4952 7.7928
L31.4952 6.5228
" />
<path d="M31.4952 6.5228
L32.1000 6.5228
" />
<path d="M32.6442 7.3090
L33.6119 7.3090
" />
<path d="M34.9423 7.7928
L34.5190 7.1881
" />
<path d="M34.2166 7.7928
L34.2166 6.5228
" />
<path d="M34.2166 6.5228
L34.7004 6.5228
" />
<path d="M34.7004 6.5228
L34.8214 6.5833
" />
<path d="M34.8214 6.5833
L34.8819 6.6438
" />
<path d="M34.8819 6.6438
L34.9423 6.7647
" />
<path d="M34.9423 6.7647
L34.9423 6.9462
" />
<path d="M34.9423 6.9462
L34.8819 7.0671
" />
<path d="M34.8819 7.0671
L34.8214 7.1276
" />
<path d="M34.8214 7.1276
L34.7004 7.1881
" />
<path d="M34.7004 7.1881
L34.2166 7.1881
" />
<path d="M35.9100 7.1276
L35.4866 7.1276
" />
<path d="M35.4866 7.7928
L35.4866 6.5228
" />
<path d="M35.4866 6.5228
L36.0914 6.5228
" />
<path d="M36.8171 6.5228
L36.9381 6.5228
" />
<path d="M36.9381 6.5228
L37.0590 6.5833
" />
<path d="M37.0590 6.5833
L37.1195 6.6438
" />
<path d="M37.1195 6.6438
L37.1800 6.7647
" />
<path d="M37.1800 6.7647
L37.2405 7.0066
" />
<path d="M37.2405 7.0066
L37.2405 7.3090
" />
<path d="M37.2405 7.3090
L37.1800 7.5509
" />
<path d="M37.1800 7.5509
L37.1195 7.6719
" />
<path d="M37.1195 7.6719
L37.0590 7.7324
" />
<path d="M37.0590 7.7324
L36.9381 7.7928
" />
<path d="M36.9381 7.7928
L36.8171 7.7928
" />
<path d="M36.8171 7.7928
L36.6962 7.7324
" />
<path d="M36.6962 7.7324
L36.6357 7.6719
" />
<path d="M36.6357 7.6719
L36.5752 7.5509
" />
<path d="M36.5752 7.5509
L36.5148 7.3090
" />
<path d="M36.5148 7.3090
L36.5148 7.0066
" />
<path d="M36.5148 7.0066
L36.5752 6.7647
" />
<path d="M36.5752 6.7647
L36.6357 6.6438
" />
<path d="M36.6357 6.6438
L36.6962 6.5833
" />
<path d="M36.6962 6.5833
L36.8171 6.5228
" />
</g></g> 
</svg>
