<?xml version="1.0" standalone="no"?>
 <!DOCTYPE svg PUBLIC "-//W3C//DTD SVG 1.1//EN" 
 "http://www.w3.org/Graphics/SVG/1.1/DTD/svg11.dtd"> 
<svg
  xmlns:svg="http://www.w3.org/2000/svg"
  xmlns="http://www.w3.org/2000/svg"
  xmlns:xlink="http://www.w3.org/1999/xlink"
  version="1.1"
  width="105.1052mm" height="46.9392mm" viewBox="0.0000 0.0000 105.1052 46.9392">
<title>SVG Image created as ltc2856xdd-2.svg date 2024/01/16 15:19:41 </title>
  <desc>Image generated by Eeschema-SVG </desc>
<g style="fill:#000000; fill-opacity:1.0000;stroke:#000000; stroke-opacity:1.0000;
stroke-linecap:round; stroke-linejoin:round;"
 transform="translate(0 0) scale(1 1)">
</g>
<g style="fill:#000000; fill-opacity:0.0; 
stroke:#000000; stroke-width:0.0000; stroke-opacity:1; 
stroke-linecap:round; stroke-linejoin:round;">
</g>
<g style="fill:#000000; fill-opacity:0.0; 
stroke:#000000; stroke-width:0.2540; stroke-opacity:1; 
stroke-linecap:round; stroke-linejoin:round;">
<rect x="44.932600" y="10.769600" width="15.240000" height="25.400000" rx="0.000000" />
<circle cx="51.7906" cy="20.9296" r="0.5080" /> 
<path style="fill:#000000; fill-opacity:0.0; 
stroke:#000000; stroke-width:0.2540; stroke-opacity:1; 
stroke-linecap:round; stroke-linejoin:round;fill:none"
d="M 48.3616,20.9296
51.2826,20.9296
" /> 
<path style="fill:#000000; fill-opacity:0.0; 
stroke:#000000; stroke-width:0.2540; stroke-opacity:1; 
stroke-linecap:round; stroke-linejoin:round;fill:none"
d="M 50.0126,28.5496
48.3616,28.5496
" /> 
<path style="fill:#000000; fill-opacity:0.0; 
stroke:#000000; stroke-width:0.2540; stroke-opacity:1; 
stroke-linecap:round; stroke-linejoin:round;fill:none"
d="M 51.9176,31.0896
57.6326,31.0896
" /> 
<path style="fill:#000000; fill-opacity:0.0; 
stroke:#000000; stroke-width:0.2540; stroke-opacity:1; 
stroke-linecap:round; stroke-linejoin:round;fill:none"
d="M 53.4416,26.0096
56.3626,26.0096
" /> 
<path style="fill:#000000; fill-opacity:0.0; 
stroke:#000000; stroke-width:0.2540; stroke-opacity:1; 
stroke-linecap:round; stroke-linejoin:round;fill:none"
d="M 54.5846,15.8496
58.2676,15.8496
" /> 
<path style="fill:#000000; fill-opacity:0.0; 
stroke:#000000; stroke-width:0.2540; stroke-opacity:1; 
stroke-linecap:round; stroke-linejoin:round;fill:none"
d="M 55.6006,20.9296
58.2676,20.9296
" /> 
<path style="fill:#000000; fill-opacity:0.0; 
stroke:#000000; stroke-width:0.2540; stroke-opacity:1; 
stroke-linecap:round; stroke-linejoin:round;fill:none"
d="M 56.3626,26.0096
56.3626,20.9296
" /> 
<path style="fill:#000000; fill-opacity:0.0; 
stroke:#000000; stroke-width:0.2540; stroke-opacity:1; 
stroke-linecap:round; stroke-linejoin:round;fill:none"
d="M 57.6326,31.0896
57.6326,15.8496
" /> 
<path style="fill:#000000; fill-opacity:0.0; 
stroke:#000000; stroke-width:0.2540; stroke-opacity:1; 
stroke-linecap:round; stroke-linejoin:round;fill:none"
d="M 48.3616,23.4696
51.6636,23.4696
51.6636,25.7556
" /> 
<path style="fill:#000000; fill-opacity:0.0; 
stroke:#000000; stroke-width:0.2540; stroke-opacity:1; 
stroke-linecap:round; stroke-linejoin:round;fill:none"
d="M 49.3776,18.3896
48.3616,18.3896
48.4886,18.3896
" /> 
<path style="fill:#000000; fill-opacity:0.0; 
stroke:#000000; stroke-width:0.2540; stroke-opacity:1; 
stroke-linecap:round; stroke-linejoin:round;fill:none"
d="M 50.1396,28.5496
50.1396,24.7396
55.2196,28.2956
50.1396,32.3596
Z" /> 
<path style="fill:#000000; fill-opacity:0.0; 
stroke:#000000; stroke-width:0.2540; stroke-opacity:1; 
stroke-linecap:round; stroke-linejoin:round;fill:none"
d="M 54.5846,18.6436
54.5846,14.8336
49.5046,18.3896
54.5846,22.4536
Z" /> 
<circle cx="52.9336" cy="26.0096" r="0.5080" /> 
<circle cx="55.0926" cy="20.9296" r="0.5080" /> 
</g>
<g style="fill:#000000; fill-opacity:1.0000; 
stroke:#000000; stroke-width:0.2540; stroke-opacity:1; 
stroke-linecap:round; stroke-linejoin:round;">
<circle cx="56.3626" cy="20.9296" r="0.2794" /> 
<circle cx="57.6326" cy="15.8496" r="0.2794" /> 
</g>
<g style="fill:#000000; fill-opacity:1.0000; 
stroke:#000000; stroke-width:0.1524; stroke-opacity:1; 
stroke-linecap:round; stroke-linejoin:round;">
</g>
<g style="fill:#000000; fill-opacity:0.0; 
stroke:#000000; stroke-width:0.1524; stroke-opacity:1; 
stroke-linecap:round; stroke-linejoin:round;">
<path d="M44.9326 18.3896
L42.3926 18.3896
" />
<text x="45.4406" y="19.0246"
textLength="2.8037" font-size="1.6933" lengthAdjust="spacingAndGlyphs"
text-anchor="start" opacity="0">RO</text>
<g class="stroked-text"><desc>RO</desc>
<path d="M46.5688 18.9691
L46.1455 18.3644
" />
<path d="M45.8431 18.9691
L45.8431 17.6991
" />
<path d="M45.8431 17.6991
L46.3269 17.6991
" />
<path d="M46.3269 17.6991
L46.4479 17.7596
" />
<path d="M46.4479 17.7596
L46.5084 17.8201
" />
<path d="M46.5084 17.8201
L46.5688 17.9410
" />
<path d="M46.5688 17.9410
L46.5688 18.1225
" />
<path d="M46.5688 18.1225
L46.5084 18.2434
" />
<path d="M46.5084 18.2434
L46.4479 18.3039
" />
<path d="M46.4479 18.3039
L46.3269 18.3644
" />
<path d="M46.3269 18.3644
L45.8431 18.3644
" />
<path d="M47.3550 17.6991
L47.5969 17.6991
" />
<path d="M47.5969 17.6991
L47.7179 17.7596
" />
<path d="M47.7179 17.7596
L47.8388 17.8806
" />
<path d="M47.8388 17.8806
L47.8993 18.1225
" />
<path d="M47.8993 18.1225
L47.8993 18.5458
" />
<path d="M47.8993 18.5458
L47.8388 18.7877
" />
<path d="M47.8388 18.7877
L47.7179 18.9087
" />
<path d="M47.7179 18.9087
L47.5969 18.9691
" />
<path d="M47.5969 18.9691
L47.3550 18.9691
" />
<path d="M47.3550 18.9691
L47.2341 18.9087
" />
<path d="M47.2341 18.9087
L47.1131 18.7877
" />
<path d="M47.1131 18.7877
L47.0527 18.5458
" />
<path d="M47.0527 18.5458
L47.0527 18.1225
" />
<path d="M47.0527 18.1225
L47.1131 17.8806
" />
<path d="M47.1131 17.8806
L47.2341 17.7596
" />
<path d="M47.2341 17.7596
L47.3550 17.6991
" />
</g><text x="43.6626" y="18.1356"
textLength="1.4127" font-size="1.6933" lengthAdjust="spacingAndGlyphs"
text-anchor="middle" opacity="0">1</text>
<g class="stroked-text"><desc>1</desc>
<path d="M44.0255 17.9721
L43.2998 17.9721
" />
<path d="M43.6626 17.9721
L43.6626 16.7021
" />
<path d="M43.6626 16.7021
L43.5417 16.8836
" />
<path d="M43.5417 16.8836
L43.4207 17.0045
" />
<path d="M43.4207 17.0045
L43.2998 17.0650
" />
</g><path d="M44.9326 20.9296
L42.3926 20.9296
" />
<text x="45.4406" y="21.5646"
textLength="2.6222" font-size="1.6933" lengthAdjust="spacingAndGlyphs"
text-anchor="start" opacity="0">~{RE}</text>
<g class="stroked-text"><desc>~{RE}</desc>
<path d="M46.5688 21.5091
L46.1455 20.9044
" />
<path d="M45.8431 21.5091
L45.8431 20.2391
" />
<path d="M45.8431 20.2391
L46.3269 20.2391
" />
<path d="M46.3269 20.2391
L46.4479 20.2996
" />
<path d="M46.4479 20.2996
L46.5084 20.3601
" />
<path d="M46.5084 20.3601
L46.5688 20.4810
" />
<path d="M46.5688 20.4810
L46.5688 20.6625
" />
<path d="M46.5688 20.6625
L46.5084 20.7834
" />
<path d="M46.5084 20.7834
L46.4479 20.8439
" />
<path d="M46.4479 20.8439
L46.3269 20.9044
" />
<path d="M46.3269 20.9044
L45.8431 20.9044
" />
<path d="M47.1131 20.8439
L47.5365 20.8439
" />
<path d="M47.7179 21.5091
L47.1131 21.5091
" />
<path d="M47.1131 21.5091
L47.1131 20.2391
" />
<path d="M47.1131 20.2391
L47.7179 20.2391
" />
<path d="M45.6678 19.8866
L47.8328 19.8866
" />
</g><text x="43.6626" y="20.6756"
textLength="1.4127" font-size="1.6933" lengthAdjust="spacingAndGlyphs"
text-anchor="middle" opacity="0">2</text>
<g class="stroked-text"><desc>2</desc>
<path d="M43.2998 19.3631
L43.3602 19.3026
" />
<path d="M43.3602 19.3026
L43.4812 19.2421
" />
<path d="M43.4812 19.2421
L43.7836 19.2421
" />
<path d="M43.7836 19.2421
L43.9045 19.3026
" />
<path d="M43.9045 19.3026
L43.9650 19.3631
" />
<path d="M43.9650 19.3631
L44.0255 19.4840
" />
<path d="M44.0255 19.4840
L44.0255 19.6050
" />
<path d="M44.0255 19.6050
L43.9650 19.7864
" />
<path d="M43.9650 19.7864
L43.2393 20.5121
" />
<path d="M43.2393 20.5121
L44.0255 20.5121
" />
</g><path d="M44.9326 23.4696
L42.3926 23.4696
" />
<text x="45.4406" y="24.1046"
textLength="2.6222" font-size="1.6933" lengthAdjust="spacingAndGlyphs"
text-anchor="start" opacity="0">DE</text>
<g class="stroked-text"><desc>DE</desc>
<path d="M45.8431 24.0491
L45.8431 22.7791
" />
<path d="M45.8431 22.7791
L46.1455 22.7791
" />
<path d="M46.1455 22.7791
L46.3269 22.8396
" />
<path d="M46.3269 22.8396
L46.4479 22.9606
" />
<path d="M46.4479 22.9606
L46.5084 23.0815
" />
<path d="M46.5084 23.0815
L46.5688 23.3234
" />
<path d="M46.5688 23.3234
L46.5688 23.5048
" />
<path d="M46.5688 23.5048
L46.5084 23.7467
" />
<path d="M46.5084 23.7467
L46.4479 23.8677
" />
<path d="M46.4479 23.8677
L46.3269 23.9887
" />
<path d="M46.3269 23.9887
L46.1455 24.0491
" />
<path d="M46.1455 24.0491
L45.8431 24.0491
" />
<path d="M47.1131 23.3839
L47.5365 23.3839
" />
<path d="M47.7179 24.0491
L47.1131 24.0491
" />
<path d="M47.1131 24.0491
L47.1131 22.7791
" />
<path d="M47.1131 22.7791
L47.7179 22.7791
" />
</g><text x="43.6626" y="23.2156"
textLength="1.4127" font-size="1.6933" lengthAdjust="spacingAndGlyphs"
text-anchor="middle" opacity="0">3</text>
<g class="stroked-text"><desc>3</desc>
<path d="M43.2393 21.7821
L44.0255 21.7821
" />
<path d="M44.0255 21.7821
L43.6021 22.2659
" />
<path d="M43.6021 22.2659
L43.7836 22.2659
" />
<path d="M43.7836 22.2659
L43.9045 22.3264
" />
<path d="M43.9045 22.3264
L43.9650 22.3869
" />
<path d="M43.9650 22.3869
L44.0255 22.5078
" />
<path d="M44.0255 22.5078
L44.0255 22.8102
" />
<path d="M44.0255 22.8102
L43.9650 22.9312
" />
<path d="M43.9650 22.9312
L43.9045 22.9917
" />
<path d="M43.9045 22.9917
L43.7836 23.0521
" />
<path d="M43.7836 23.0521
L43.4207 23.0521
" />
<path d="M43.4207 23.0521
L43.2998 22.9917
" />
<path d="M43.2998 22.9917
L43.2393 22.9312
" />
</g><path d="M44.9326 28.5496
L42.3926 28.5496
" />
<text x="45.4406" y="29.1846"
textLength="2.0780" font-size="1.6933" lengthAdjust="spacingAndGlyphs"
text-anchor="start" opacity="0">DI</text>
<g class="stroked-text"><desc>DI</desc>
<path d="M45.8431 29.1291
L45.8431 27.8591
" />
<path d="M45.8431 27.8591
L46.1455 27.8591
" />
<path d="M46.1455 27.8591
L46.3269 27.9196
" />
<path d="M46.3269 27.9196
L46.4479 28.0406
" />
<path d="M46.4479 28.0406
L46.5084 28.1615
" />
<path d="M46.5084 28.1615
L46.5688 28.4034
" />
<path d="M46.5688 28.4034
L46.5688 28.5848
" />
<path d="M46.5688 28.5848
L46.5084 28.8267
" />
<path d="M46.5084 28.8267
L46.4479 28.9477
" />
<path d="M46.4479 28.9477
L46.3269 29.0687
" />
<path d="M46.3269 29.0687
L46.1455 29.1291
" />
<path d="M46.1455 29.1291
L45.8431 29.1291
" />
<path d="M47.1131 29.1291
L47.1131 27.8591
" />
</g><text x="43.6626" y="28.2956"
textLength="1.4127" font-size="1.6933" lengthAdjust="spacingAndGlyphs"
text-anchor="middle" opacity="0">4</text>
<g class="stroked-text"><desc>4</desc>
<path d="M43.9045 27.2855
L43.9045 28.1321
" />
<path d="M43.6021 26.8017
L43.2998 27.7088
" />
<path d="M43.2998 27.7088
L44.0859 27.7088
" />
</g><path d="M52.5526 36.1696
L52.5526 38.7096
" />
<g transform="rotate(-90.000000 52.5526 35.6616)">
<text x="52.5526" y="36.2966"
textLength="4.0737" font-size="1.6933" lengthAdjust="spacingAndGlyphs"
text-anchor="start" opacity="0">GND</text>
</g>
<g class="stroked-text"><desc>GND</desc>
<path d="M51.9226 34.5937
L51.8621 34.7147
" />
<path d="M51.8621 34.7147
L51.8621 34.8961
" />
<path d="M51.8621 34.8961
L51.9226 35.0775
" />
<path d="M51.9226 35.0775
L52.0436 35.1985
" />
<path d="M52.0436 35.1985
L52.1645 35.2590
" />
<path d="M52.1645 35.2590
L52.4064 35.3194
" />
<path d="M52.4064 35.3194
L52.5878 35.3194
" />
<path d="M52.5878 35.3194
L52.8297 35.2590
" />
<path d="M52.8297 35.2590
L52.9507 35.1985
" />
<path d="M52.9507 35.1985
L53.0717 35.0775
" />
<path d="M53.0717 35.0775
L53.1321 34.8961
" />
<path d="M53.1321 34.8961
L53.1321 34.7752
" />
<path d="M53.1321 34.7752
L53.0717 34.5937
" />
<path d="M53.0717 34.5937
L53.0112 34.5333
" />
<path d="M53.0112 34.5333
L52.5878 34.5333
" />
<path d="M52.5878 34.5333
L52.5878 34.7752
" />
<path d="M53.1321 33.9890
L51.8621 33.9890
" />
<path d="M51.8621 33.9890
L53.1321 33.2633
" />
<path d="M53.1321 33.2633
L51.8621 33.2633
" />
<path d="M53.1321 32.6585
L51.8621 32.6585
" />
<path d="M51.8621 32.6585
L51.8621 32.3561
" />
<path d="M51.8621 32.3561
L51.9226 32.1747
" />
<path d="M51.9226 32.1747
L52.0436 32.0537
" />
<path d="M52.0436 32.0537
L52.1645 31.9932
" />
<path d="M52.1645 31.9932
L52.4064 31.9328
" />
<path d="M52.4064 31.9328
L52.5878 31.9328
" />
<path d="M52.5878 31.9328
L52.8297 31.9932
" />
<path d="M52.8297 31.9932
L52.9507 32.0537
" />
<path d="M52.9507 32.0537
L53.0717 32.1747
" />
<path d="M53.0717 32.1747
L53.1321 32.3561
" />
<path d="M53.1321 32.3561
L53.1321 32.6585
" />
</g><g transform="rotate(-90.000000 52.2986 37.4396)">
<text x="52.2986" y="37.4396"
textLength="1.4127" font-size="1.6933" lengthAdjust="spacingAndGlyphs"
text-anchor="middle" opacity="0">5</text>
</g>
<g class="stroked-text"><desc>5</desc>
<path d="M50.8651 37.1371
L50.8651 37.7419
" />
<path d="M50.8651 37.7419
L51.4699 37.8023
" />
<path d="M51.4699 37.8023
L51.4094 37.7419
" />
<path d="M51.4094 37.7419
L51.3489 37.6209
" />
<path d="M51.3489 37.6209
L51.3489 37.3185
" />
<path d="M51.3489 37.3185
L51.4094 37.1976
" />
<path d="M51.4094 37.1976
L51.4699 37.1371
" />
<path d="M51.4699 37.1371
L51.5908 37.0766
" />
<path d="M51.5908 37.0766
L51.8932 37.0766
" />
<path d="M51.8932 37.0766
L52.0142 37.1371
" />
<path d="M52.0142 37.1371
L52.0747 37.1976
" />
<path d="M52.0747 37.1976
L52.1351 37.3185
" />
<path d="M52.1351 37.3185
L52.1351 37.6209
" />
<path d="M52.1351 37.6209
L52.0747 37.7419
" />
<path d="M52.0747 37.7419
L52.0142 37.8023
" />
</g><path d="M60.1726 15.8496
L62.7126 15.8496
" />
<text x="59.6646" y="16.4846"
textLength="1.2918" font-size="1.6933" lengthAdjust="spacingAndGlyphs"
text-anchor="end" opacity="0">A</text>
<g class="stroked-text"><desc>A</desc>
<path d="M58.7177 16.0663
L59.3224 16.0663
" />
<path d="M58.5967 16.4291
L59.0200 15.1591
" />
<path d="M59.0200 15.1591
L59.4434 16.4291
" />
</g><text x="61.4426" y="15.5956"
textLength="1.4127" font-size="1.6933" lengthAdjust="spacingAndGlyphs"
text-anchor="middle" opacity="0">6</text>
<g class="stroked-text"><desc>6</desc>
<path d="M61.6845 14.1621
L61.4426 14.1621
" />
<path d="M61.4426 14.1621
L61.3217 14.2226
" />
<path d="M61.3217 14.2226
L61.2612 14.2831
" />
<path d="M61.2612 14.2831
L61.1402 14.4645
" />
<path d="M61.1402 14.4645
L61.0798 14.7064
" />
<path d="M61.0798 14.7064
L61.0798 15.1902
" />
<path d="M61.0798 15.1902
L61.1402 15.3112
" />
<path d="M61.1402 15.3112
L61.2007 15.3717
" />
<path d="M61.2007 15.3717
L61.3217 15.4321
" />
<path d="M61.3217 15.4321
L61.5636 15.4321
" />
<path d="M61.5636 15.4321
L61.6845 15.3717
" />
<path d="M61.6845 15.3717
L61.7450 15.3112
" />
<path d="M61.7450 15.3112
L61.8055 15.1902
" />
<path d="M61.8055 15.1902
L61.8055 14.8878
" />
<path d="M61.8055 14.8878
L61.7450 14.7669
" />
<path d="M61.7450 14.7669
L61.6845 14.7064
" />
<path d="M61.6845 14.7064
L61.5636 14.6459
" />
<path d="M61.5636 14.6459
L61.3217 14.6459
" />
<path d="M61.3217 14.6459
L61.2007 14.7064
" />
<path d="M61.2007 14.7064
L61.1402 14.7669
" />
<path d="M61.1402 14.7669
L61.0798 14.8878
" />
</g><path d="M60.1726 20.9296
L62.7126 20.9296
" />
<text x="59.6646" y="21.5646"
textLength="1.4732" font-size="1.6933" lengthAdjust="spacingAndGlyphs"
text-anchor="end" opacity="0">B</text>
<g class="stroked-text"><desc>B</desc>
<path d="M59.0201 20.8439
L59.2015 20.9044
" />
<path d="M59.2015 20.9044
L59.2620 20.9648
" />
<path d="M59.2620 20.9648
L59.3224 21.0858
" />
<path d="M59.3224 21.0858
L59.3224 21.2672
" />
<path d="M59.3224 21.2672
L59.2620 21.3882
" />
<path d="M59.2620 21.3882
L59.2015 21.4487
" />
<path d="M59.2015 21.4487
L59.0805 21.5091
" />
<path d="M59.0805 21.5091
L58.5967 21.5091
" />
<path d="M58.5967 21.5091
L58.5967 20.2391
" />
<path d="M58.5967 20.2391
L59.0201 20.2391
" />
<path d="M59.0201 20.2391
L59.1410 20.2996
" />
<path d="M59.1410 20.2996
L59.2015 20.3601
" />
<path d="M59.2015 20.3601
L59.2620 20.4810
" />
<path d="M59.2620 20.4810
L59.2620 20.6020
" />
<path d="M59.2620 20.6020
L59.2015 20.7229
" />
<path d="M59.2015 20.7229
L59.1410 20.7834
" />
<path d="M59.1410 20.7834
L59.0201 20.8439
" />
<path d="M59.0201 20.8439
L58.5967 20.8439
" />
</g><text x="61.4426" y="20.6756"
textLength="1.4127" font-size="1.6933" lengthAdjust="spacingAndGlyphs"
text-anchor="middle" opacity="0">7</text>
<g class="stroked-text"><desc>7</desc>
<path d="M61.0193 19.2421
L61.8659 19.2421
" />
<path d="M61.8659 19.2421
L61.3217 20.5121
" />
</g><path d="M52.5526 10.7696
L52.5526 8.2296
" />
<g transform="rotate(-90.000000 52.5526 11.2776)">
<text x="52.5526" y="11.9126"
textLength="3.8318" font-size="1.6933" lengthAdjust="spacingAndGlyphs"
text-anchor="end" opacity="0">VCC</text>
</g>
<g class="stroked-text"><desc>VCC</desc>
<path d="M51.8621 14.8854
L53.1321 14.4621
" />
<path d="M53.1321 14.4621
L51.8621 14.0387
" />
<path d="M53.0112 12.8897
L53.0717 12.9501
" />
<path d="M53.0717 12.9501
L53.1321 13.1316
" />
<path d="M53.1321 13.1316
L53.1321 13.2525
" />
<path d="M53.1321 13.2525
L53.0717 13.4339
" />
<path d="M53.0717 13.4339
L52.9507 13.5549
" />
<path d="M52.9507 13.5549
L52.8297 13.6154
" />
<path d="M52.8297 13.6154
L52.5878 13.6758
" />
<path d="M52.5878 13.6758
L52.4064 13.6758
" />
<path d="M52.4064 13.6758
L52.1645 13.6154
" />
<path d="M52.1645 13.6154
L52.0436 13.5549
" />
<path d="M52.0436 13.5549
L51.9226 13.4339
" />
<path d="M51.9226 13.4339
L51.8621 13.2525
" />
<path d="M51.8621 13.2525
L51.8621 13.1316
" />
<path d="M51.8621 13.1316
L51.9226 12.9501
" />
<path d="M51.9226 12.9501
L51.9831 12.8897
" />
<path d="M53.0112 11.6197
L53.0717 11.6801
" />
<path d="M53.0717 11.6801
L53.1321 11.8616
" />
<path d="M53.1321 11.8616
L53.1321 11.9825
" />
<path d="M53.1321 11.9825
L53.0717 12.1639
" />
<path d="M53.0717 12.1639
L52.9507 12.2849
" />
<path d="M52.9507 12.2849
L52.8297 12.3454
" />
<path d="M52.8297 12.3454
L52.5878 12.4058
" />
<path d="M52.5878 12.4058
L52.4064 12.4058
" />
<path d="M52.4064 12.4058
L52.1645 12.3454
" />
<path d="M52.1645 12.3454
L52.0436 12.2849
" />
<path d="M52.0436 12.2849
L51.9226 12.1639
" />
<path d="M51.9226 12.1639
L51.8621 11.9825
" />
<path d="M51.8621 11.9825
L51.8621 11.8616
" />
<path d="M51.8621 11.8616
L51.9226 11.6801
" />
<path d="M51.9226 11.6801
L51.9831 11.6197
" />
</g><g transform="rotate(-90.000000 52.2986 9.4996)">
<text x="52.2986" y="9.4996"
textLength="1.4127" font-size="1.6933" lengthAdjust="spacingAndGlyphs"
text-anchor="middle" opacity="0">8</text>
</g>
<g class="stroked-text"><desc>8</desc>
<path d="M51.4094 9.6204
L51.3489 9.7414
" />
<path d="M51.3489 9.7414
L51.2885 9.8019
" />
<path d="M51.2885 9.8019
L51.1675 9.8623
" />
<path d="M51.1675 9.8623
L51.1070 9.8623
" />
<path d="M51.1070 9.8623
L50.9861 9.8019
" />
<path d="M50.9861 9.8019
L50.9256 9.7414
" />
<path d="M50.9256 9.7414
L50.8651 9.6204
" />
<path d="M50.8651 9.6204
L50.8651 9.3785
" />
<path d="M50.8651 9.3785
L50.9256 9.2576
" />
<path d="M50.9256 9.2576
L50.9861 9.1971
" />
<path d="M50.9861 9.1971
L51.1070 9.1366
" />
<path d="M51.1070 9.1366
L51.1675 9.1366
" />
<path d="M51.1675 9.1366
L51.2885 9.1971
" />
<path d="M51.2885 9.1971
L51.3489 9.2576
" />
<path d="M51.3489 9.2576
L51.4094 9.3785
" />
<path d="M51.4094 9.3785
L51.4094 9.6204
" />
<path d="M51.4094 9.6204
L51.4699 9.7414
" />
<path d="M51.4699 9.7414
L51.5304 9.8019
" />
<path d="M51.5304 9.8019
L51.6513 9.8623
" />
<path d="M51.6513 9.8623
L51.8932 9.8623
" />
<path d="M51.8932 9.8623
L52.0142 9.8019
" />
<path d="M52.0142 9.8019
L52.0747 9.7414
" />
<path d="M52.0747 9.7414
L52.1351 9.6204
" />
<path d="M52.1351 9.6204
L52.1351 9.3785
" />
<path d="M52.1351 9.3785
L52.0747 9.2576
" />
<path d="M52.0747 9.2576
L52.0142 9.1971
" />
<path d="M52.0142 9.1971
L51.8932 9.1366
" />
<path d="M51.8932 9.1366
L51.6513 9.1366
" />
<path d="M51.6513 9.1366
L51.5304 9.1971
" />
<path d="M51.5304 9.1971
L51.4699 9.2576
" />
<path d="M51.4699 9.2576
L51.4094 9.3785
" />
</g></g>
<g style="fill:#000000; fill-opacity:0.0; 
stroke:#000000; stroke-width:0.1588; stroke-opacity:1; 
stroke-linecap:round; stroke-linejoin:round;">
<text x="45.5676" y="10.1346"
textLength="2.6415" font-size="1.6933" lengthAdjust="spacingAndGlyphs"
text-anchor="middle" opacity="0">U?</text>
<g class="stroked-text"><desc>U?</desc>
<path d="M44.6604 8.8088
L44.6604 9.8369
" />
<path d="M44.6604 9.8369
L44.7209 9.9579
" />
<path d="M44.7209 9.9579
L44.7814 10.0184
" />
<path d="M44.7814 10.0184
L44.9023 10.0788
" />
<path d="M44.9023 10.0788
L45.1442 10.0788
" />
<path d="M45.1442 10.0788
L45.2652 10.0184
" />
<path d="M45.2652 10.0184
L45.3257 9.9579
" />
<path d="M45.3257 9.9579
L45.3861 9.8369
" />
<path d="M45.3861 9.8369
L45.3861 8.8088
" />
<path d="M46.1724 9.9579
L46.2328 10.0184
" />
<path d="M46.2328 10.0184
L46.1724 10.0788
" />
<path d="M46.1724 10.0788
L46.1119 10.0184
" />
<path d="M46.1119 10.0184
L46.1724 9.9579
" />
<path d="M46.1724 9.9579
L46.1724 10.0788
" />
<path d="M45.9305 8.8693
L46.0514 8.8088
" />
<path d="M46.0514 8.8088
L46.3538 8.8088
" />
<path d="M46.3538 8.8088
L46.4747 8.8693
" />
<path d="M46.4747 8.8693
L46.5352 8.9903
" />
<path d="M46.5352 8.9903
L46.5352 9.1112
" />
<path d="M46.5352 9.1112
L46.4747 9.2322
" />
<path d="M46.4747 9.2322
L46.4143 9.2926
" />
<path d="M46.4143 9.2926
L46.2933 9.3531
" />
<path d="M46.2933 9.3531
L46.2328 9.4136
" />
<path d="M46.2328 9.4136
L46.1724 9.5345
" />
<path d="M46.1724 9.5345
L46.1724 9.5950
" />
</g><text x="60.1726" y="10.1346"
textLength="14.6761" font-size="1.6933" lengthAdjust="spacingAndGlyphs"
text-anchor="middle" opacity="0">LTC2856xDD-2</text>
<g class="stroked-text"><desc>LTC2856xDD-2</desc>
<path d="M53.8529 10.0788
L53.2481 10.0788
" />
<path d="M53.2481 10.0788
L53.2481 8.8088
" />
<path d="M54.0948 8.8088
L54.8205 8.8088
" />
<path d="M54.4577 10.0788
L54.4577 8.8088
" />
<path d="M55.9695 9.9579
L55.9091 10.0184
" />
<path d="M55.9091 10.0184
L55.7276 10.0788
" />
<path d="M55.7276 10.0788
L55.6067 10.0788
" />
<path d="M55.6067 10.0788
L55.4253 10.0184
" />
<path d="M55.4253 10.0184
L55.3043 9.8974
" />
<path d="M55.3043 9.8974
L55.2438 9.7764
" />
<path d="M55.2438 9.7764
L55.1834 9.5345
" />
<path d="M55.1834 9.5345
L55.1834 9.3531
" />
<path d="M55.1834 9.3531
L55.2438 9.1112
" />
<path d="M55.2438 9.1112
L55.3043 8.9903
" />
<path d="M55.3043 8.9903
L55.4253 8.8693
" />
<path d="M55.4253 8.8693
L55.6067 8.8088
" />
<path d="M55.6067 8.8088
L55.7276 8.8088
" />
<path d="M55.7276 8.8088
L55.9091 8.8693
" />
<path d="M55.9091 8.8693
L55.9695 8.9298
" />
<path d="M56.4534 8.9298
L56.5138 8.8693
" />
<path d="M56.5138 8.8693
L56.6348 8.8088
" />
<path d="M56.6348 8.8088
L56.9372 8.8088
" />
<path d="M56.9372 8.8088
L57.0581 8.8693
" />
<path d="M57.0581 8.8693
L57.1186 8.9298
" />
<path d="M57.1186 8.9298
L57.1791 9.0507
" />
<path d="M57.1791 9.0507
L57.1791 9.1717
" />
<path d="M57.1791 9.1717
L57.1186 9.3531
" />
<path d="M57.1186 9.3531
L56.3929 10.0788
" />
<path d="M56.3929 10.0788
L57.1791 10.0788
" />
<path d="M57.9048 9.3531
L57.7838 9.2926
" />
<path d="M57.7838 9.2926
L57.7233 9.2322
" />
<path d="M57.7233 9.2322
L57.6629 9.1112
" />
<path d="M57.6629 9.1112
L57.6629 9.0507
" />
<path d="M57.6629 9.0507
L57.7233 8.9298
" />
<path d="M57.7233 8.9298
L57.7838 8.8693
" />
<path d="M57.7838 8.8693
L57.9048 8.8088
" />
<path d="M57.9048 8.8088
L58.1467 8.8088
" />
<path d="M58.1467 8.8088
L58.2676 8.8693
" />
<path d="M58.2676 8.8693
L58.3281 8.9298
" />
<path d="M58.3281 8.9298
L58.3886 9.0507
" />
<path d="M58.3886 9.0507
L58.3886 9.1112
" />
<path d="M58.3886 9.1112
L58.3281 9.2322
" />
<path d="M58.3281 9.2322
L58.2676 9.2926
" />
<path d="M58.2676 9.2926
L58.1467 9.3531
" />
<path d="M58.1467 9.3531
L57.9048 9.3531
" />
<path d="M57.9048 9.3531
L57.7838 9.4136
" />
<path d="M57.7838 9.4136
L57.7233 9.4741
" />
<path d="M57.7233 9.4741
L57.6629 9.5950
" />
<path d="M57.6629 9.5950
L57.6629 9.8369
" />
<path d="M57.6629 9.8369
L57.7233 9.9579
" />
<path d="M57.7233 9.9579
L57.7838 10.0184
" />
<path d="M57.7838 10.0184
L57.9048 10.0788
" />
<path d="M57.9048 10.0788
L58.1467 10.0788
" />
<path d="M58.1467 10.0788
L58.2676 10.0184
" />
<path d="M58.2676 10.0184
L58.3281 9.9579
" />
<path d="M58.3281 9.9579
L58.3886 9.8369
" />
<path d="M58.3886 9.8369
L58.3886 9.5950
" />
<path d="M58.3886 9.5950
L58.3281 9.4741
" />
<path d="M58.3281 9.4741
L58.2676 9.4136
" />
<path d="M58.2676 9.4136
L58.1467 9.3531
" />
<path d="M59.5376 8.8088
L58.9328 8.8088
" />
<path d="M58.9328 8.8088
L58.8724 9.4136
" />
<path d="M58.8724 9.4136
L58.9328 9.3531
" />
<path d="M58.9328 9.3531
L59.0538 9.2926
" />
<path d="M59.0538 9.2926
L59.3562 9.2926
" />
<path d="M59.3562 9.2926
L59.4771 9.3531
" />
<path d="M59.4771 9.3531
L59.5376 9.4136
" />
<path d="M59.5376 9.4136
L59.5981 9.5345
" />
<path d="M59.5981 9.5345
L59.5981 9.8369
" />
<path d="M59.5981 9.8369
L59.5376 9.9579
" />
<path d="M59.5376 9.9579
L59.4771 10.0184
" />
<path d="M59.4771 10.0184
L59.3562 10.0788
" />
<path d="M59.3562 10.0788
L59.0538 10.0788
" />
<path d="M59.0538 10.0788
L58.9328 10.0184
" />
<path d="M58.9328 10.0184
L58.8724 9.9579
" />
<path d="M60.6866 8.8088
L60.4447 8.8088
" />
<path d="M60.4447 8.8088
L60.3238 8.8693
" />
<path d="M60.3238 8.8693
L60.2633 8.9298
" />
<path d="M60.2633 8.9298
L60.1423 9.1112
" />
<path d="M60.1423 9.1112
L60.0819 9.3531
" />
<path d="M60.0819 9.3531
L60.0819 9.8369
" />
<path d="M60.0819 9.8369
L60.1423 9.9579
" />
<path d="M60.1423 9.9579
L60.2028 10.0184
" />
<path d="M60.2028 10.0184
L60.3238 10.0788
" />
<path d="M60.3238 10.0788
L60.5657 10.0788
" />
<path d="M60.5657 10.0788
L60.6866 10.0184
" />
<path d="M60.6866 10.0184
L60.7471 9.9579
" />
<path d="M60.7471 9.9579
L60.8076 9.8369
" />
<path d="M60.8076 9.8369
L60.8076 9.5345
" />
<path d="M60.8076 9.5345
L60.7471 9.4136
" />
<path d="M60.7471 9.4136
L60.6866 9.3531
" />
<path d="M60.6866 9.3531
L60.5657 9.2926
" />
<path d="M60.5657 9.2926
L60.3238 9.2926
" />
<path d="M60.3238 9.2926
L60.2028 9.3531
" />
<path d="M60.2028 9.3531
L60.1423 9.4136
" />
<path d="M60.1423 9.4136
L60.0819 9.5345
" />
<path d="M61.2309 10.0788
L61.8961 9.2322
" />
<path d="M61.2309 9.2322
L61.8961 10.0788
" />
<path d="M62.3799 10.0788
L62.3799 8.8088
" />
<path d="M62.3799 8.8088
L62.6823 8.8088
" />
<path d="M62.6823 8.8088
L62.8637 8.8693
" />
<path d="M62.8637 8.8693
L62.9847 8.9903
" />
<path d="M62.9847 8.9903
L63.0452 9.1112
" />
<path d="M63.0452 9.1112
L63.1056 9.3531
" />
<path d="M63.1056 9.3531
L63.1056 9.5345
" />
<path d="M63.1056 9.5345
L63.0452 9.7764
" />
<path d="M63.0452 9.7764
L62.9847 9.8974
" />
<path d="M62.9847 9.8974
L62.8637 10.0184
" />
<path d="M62.8637 10.0184
L62.6823 10.0788
" />
<path d="M62.6823 10.0788
L62.3799 10.0788
" />
<path d="M63.6499 10.0788
L63.6499 8.8088
" />
<path d="M63.6499 8.8088
L63.9523 8.8088
" />
<path d="M63.9523 8.8088
L64.1337 8.8693
" />
<path d="M64.1337 8.8693
L64.2547 8.9903
" />
<path d="M64.2547 8.9903
L64.3152 9.1112
" />
<path d="M64.3152 9.1112
L64.3756 9.3531
" />
<path d="M64.3756 9.3531
L64.3756 9.5345
" />
<path d="M64.3756 9.5345
L64.3152 9.7764
" />
<path d="M64.3152 9.7764
L64.2547 9.8974
" />
<path d="M64.2547 9.8974
L64.1337 10.0184
" />
<path d="M64.1337 10.0184
L63.9523 10.0788
" />
<path d="M63.9523 10.0788
L63.6499 10.0788
" />
<path d="M64.9199 9.5950
L65.8876 9.5950
" />
<path d="M66.4319 8.9298
L66.4923 8.8693
" />
<path d="M66.4923 8.8693
L66.6133 8.8088
" />
<path d="M66.6133 8.8088
L66.9157 8.8088
" />
<path d="M66.9157 8.8088
L67.0366 8.8693
" />
<path d="M67.0366 8.8693
L67.0971 8.9298
" />
<path d="M67.0971 8.9298
L67.1576 9.0507
" />
<path d="M67.1576 9.0507
L67.1576 9.1717
" />
<path d="M67.1576 9.1717
L67.0971 9.3531
" />
<path d="M67.0971 9.3531
L66.3714 10.0788
" />
<path d="M66.3714 10.0788
L67.1576 10.0788
" />
</g></g> 
</svg>
