<?xml version="1.0" standalone="no"?>
 <!DOCTYPE svg PUBLIC "-//W3C//DTD SVG 1.1//EN" 
 "http://www.w3.org/Graphics/SVG/1.1/DTD/svg11.dtd"> 
<svg
  xmlns:svg="http://www.w3.org/2000/svg"
  xmlns="http://www.w3.org/2000/svg"
  xmlns:xlink="http://www.w3.org/1999/xlink"
  version="1.1"
  width="45.8978mm" height="11.8872mm" viewBox="0.0000 0.0000 45.8978 11.8872">
<title>SVG Image created as Samtec_HSEC8-140-03-X-DV_2x40_P0.8mm_Pol22_Socket.svg date 2024/01/16 15:06:23 </title>
  <desc>Image generated by PCBNEW </desc>
<g style="fill:#000000; fill-opacity:1.0000;stroke:#000000; stroke-opacity:1.0000;
stroke-linecap:round; stroke-linejoin:round;"
 transform="translate(0 0) scale(1 1)">
</g>
<g style="fill:#000000; fill-opacity:0.0; 
stroke:#000000; stroke-width:0.0000; stroke-opacity:1; 
stroke-linecap:round; stroke-linejoin:round;">
</g>
<g style="fill:#000000; fill-opacity:1.0000; 
stroke:#000000; stroke-width:0.0212; stroke-opacity:1; 
stroke-linecap:round; stroke-linejoin:round;">
<rect x="-5.000000" y="-5.000000" width="55.916669" height="21.896500" rx="0.000000" />
</g>
<g style="fill:#FFFFFF; fill-opacity:1.0000; 
stroke:#FFFFFF; stroke-width:0.0212; stroke-opacity:1; 
stroke-linecap:round; stroke-linejoin:round;">
<g >
</g>
<g >
</g>
<g >
</g>
<g >
</g>
</g>
<g style="fill:#FFFFFF; fill-opacity:1.0000; 
stroke:#FFFFFF; stroke-width:0.0212; stroke-opacity:1; 
stroke-linecap:round; stroke-linejoin:round;">
<g >
</g>
<g >
</g>
<g >
</g>
<g >
</g>
</g>
<g style="fill:#FFFFFF; fill-opacity:1.0000; 
stroke:#FFFFFF; stroke-width:0.0212; stroke-opacity:1; 
stroke-linecap:round; stroke-linejoin:round;">
<g >
</g>
<g >
</g>
<g >
</g>
<g >
</g>
</g>
<g style="fill:#FFFFFF; fill-opacity:1.0000; 
stroke:#FFFFFF; stroke-width:0.0212; stroke-opacity:1; 
stroke-linecap:round; stroke-linejoin:round;">
<g >
</g>
<g >
</g>
<g >
</g>
<g >
</g>
</g>
<g style="fill:#FFFFFF; fill-opacity:1.0000; 
stroke:#FFFFFF; stroke-width:0.0212; stroke-opacity:1; 
stroke-linecap:round; stroke-linejoin:round;">
<g >
</g>
<g >
</g>
<g >
</g>
<g >
</g>
</g>
<g style="fill:#FFFFFF; fill-opacity:1.0000; 
stroke:#FFFFFF; stroke-width:0.0212; stroke-opacity:1; 
stroke-linecap:round; stroke-linejoin:round;">
<g >
</g>
<g >
</g>
<g >
</g>
<g >
</g>
</g>
<g style="fill:#FFFFFF; fill-opacity:1.0000; 
stroke:#FFFFFF; stroke-width:0.0212; stroke-opacity:1; 
stroke-linecap:round; stroke-linejoin:round;">
<g >
</g>
<g >
</g>
<g >
</g>
<g >
</g>
</g>
<g style="fill:#FFFFFF; fill-opacity:1.0000; 
stroke:#FFFFFF; stroke-width:0.0212; stroke-opacity:1; 
stroke-linecap:round; stroke-linejoin:round;">
<g >
</g>
<g >
</g>
<g >
</g>
<g >
</g>
</g>
<g style="fill:#FFFFFF; fill-opacity:1.0000; 
stroke:#FFFFFF; stroke-width:0.0212; stroke-opacity:1; 
stroke-linecap:round; stroke-linejoin:round;">
<g >
</g>
<g >
</g>
<g >
</g>
<g >
</g>
</g>
<g style="fill:#FFFFFF; fill-opacity:1.0000; 
stroke:#FFFFFF; stroke-width:0.0212; stroke-opacity:1; 
stroke-linecap:round; stroke-linejoin:round;">
<g >
</g>
<g >
</g>
<g >
</g>
<g >
</g>
</g>
<g style="fill:#FFFFFF; fill-opacity:1.0000; 
stroke:#FFFFFF; stroke-width:0.0212; stroke-opacity:1; 
stroke-linecap:round; stroke-linejoin:round;">
<g >
</g>
<g >
</g>
<g >
</g>
<g >
</g>
</g>
<g style="fill:#FFFFFF; fill-opacity:1.0000; 
stroke:#FFFFFF; stroke-width:0.0212; stroke-opacity:1; 
stroke-linecap:round; stroke-linejoin:round;">
<g >
</g>
<g >
</g>
<g >
</g>
<g >
</g>
</g>
<g style="fill:#FFFFFF; fill-opacity:1.0000; 
stroke:#FFFFFF; stroke-width:0.0212; stroke-opacity:1; 
stroke-linecap:round; stroke-linejoin:round;">
<g >
</g>
<g >
</g>
<g >
</g>
<g >
</g>
</g>
<g style="fill:#FFFFFF; fill-opacity:1.0000; 
stroke:#FFFFFF; stroke-width:0.0212; stroke-opacity:1; 
stroke-linecap:round; stroke-linejoin:round;">
<g >
</g>
<g >
</g>
<g >
</g>
<g >
</g>
</g>
<g style="fill:#FFFFFF; fill-opacity:1.0000; 
stroke:#FFFFFF; stroke-width:0.0212; stroke-opacity:1; 
stroke-linecap:round; stroke-linejoin:round;">
<g >
</g>
<g >
</g>
<g >
</g>
<g >
</g>
</g>
<g style="fill:#FFFFFF; fill-opacity:1.0000; 
stroke:#FFFFFF; stroke-width:0.0212; stroke-opacity:1; 
stroke-linecap:round; stroke-linejoin:round;">
<g >
</g>
<g >
</g>
<g >
</g>
<g >
</g>
</g>
<g style="fill:#FFFFFF; fill-opacity:1.0000; 
stroke:#FFFFFF; stroke-width:0.0212; stroke-opacity:1; 
stroke-linecap:round; stroke-linejoin:round;">
<g >
</g>
<g >
</g>
<g >
</g>
<g >
</g>
</g>
<g style="fill:#FFFFFF; fill-opacity:1.0000; 
stroke:#FFFFFF; stroke-width:0.0212; stroke-opacity:1; 
stroke-linecap:round; stroke-linejoin:round;">
<g >
</g>
<g >
</g>
<g >
</g>
<g >
</g>
</g>
<g style="fill:#FFFFFF; fill-opacity:1.0000; 
stroke:#FFFFFF; stroke-width:0.0212; stroke-opacity:1; 
stroke-linecap:round; stroke-linejoin:round;">
<g >
</g>
<g >
</g>
<g >
</g>
<g >
</g>
</g>
<g style="fill:#FFFFFF; fill-opacity:1.0000; 
stroke:#FFFFFF; stroke-width:0.0212; stroke-opacity:1; 
stroke-linecap:round; stroke-linejoin:round;">
<g >
</g>
<g >
</g>
<g >
</g>
<g >
</g>
</g>
<g style="fill:#FFFFFF; fill-opacity:1.0000; 
stroke:#FFFFFF; stroke-width:0.0212; stroke-opacity:1; 
stroke-linecap:round; stroke-linejoin:round;">
<g >
</g>
<g >
</g>
<g >
</g>
<g >
</g>
</g>
<g style="fill:#FFFFFF; fill-opacity:1.0000; 
stroke:#FFFFFF; stroke-width:0.0212; stroke-opacity:1; 
stroke-linecap:round; stroke-linejoin:round;">
<g >
</g>
<g >
</g>
<g >
</g>
<g >
</g>
</g>
<g style="fill:#FFFFFF; fill-opacity:1.0000; 
stroke:#FFFFFF; stroke-width:0.0212; stroke-opacity:1; 
stroke-linecap:round; stroke-linejoin:round;">
<g >
</g>
<g >
</g>
<g >
</g>
<g >
</g>
</g>
<g style="fill:#FFFFFF; fill-opacity:1.0000; 
stroke:#FFFFFF; stroke-width:0.0212; stroke-opacity:1; 
stroke-linecap:round; stroke-linejoin:round;">
<g >
</g>
<g >
</g>
<g >
</g>
<g >
</g>
</g>
<g style="fill:#FFFFFF; fill-opacity:1.0000; 
stroke:#FFFFFF; stroke-width:0.0212; stroke-opacity:1; 
stroke-linecap:round; stroke-linejoin:round;">
<g >
</g>
<g >
</g>
<g >
</g>
<g >
</g>
</g>
<g style="fill:#FFFFFF; fill-opacity:1.0000; 
stroke:#FFFFFF; stroke-width:0.0212; stroke-opacity:1; 
stroke-linecap:round; stroke-linejoin:round;">
<g >
</g>
<g >
</g>
<g >
</g>
<g >
</g>
</g>
<g style="fill:#FFFFFF; fill-opacity:1.0000; 
stroke:#FFFFFF; stroke-width:0.0212; stroke-opacity:1; 
stroke-linecap:round; stroke-linejoin:round;">
<g >
</g>
<g >
</g>
<g >
</g>
<g >
</g>
</g>
<g style="fill:#FFFFFF; fill-opacity:1.0000; 
stroke:#FFFFFF; stroke-width:0.0212; stroke-opacity:1; 
stroke-linecap:round; stroke-linejoin:round;">
<g >
</g>
<g >
</g>
<g >
</g>
<g >
</g>
</g>
<g style="fill:#FFFFFF; fill-opacity:1.0000; 
stroke:#FFFFFF; stroke-width:0.0212; stroke-opacity:1; 
stroke-linecap:round; stroke-linejoin:round;">
<g >
</g>
<g >
</g>
<g >
</g>
<g >
</g>
</g>
<g style="fill:#FFFFFF; fill-opacity:1.0000; 
stroke:#FFFFFF; stroke-width:0.0212; stroke-opacity:1; 
stroke-linecap:round; stroke-linejoin:round;">
<g >
</g>
<g >
</g>
<g >
</g>
<g >
</g>
</g>
<g style="fill:#FFFFFF; fill-opacity:1.0000; 
stroke:#FFFFFF; stroke-width:0.0212; stroke-opacity:1; 
stroke-linecap:round; stroke-linejoin:round;">
<g >
</g>
<g >
</g>
<g >
</g>
<g >
</g>
</g>
<g style="fill:#FFFFFF; fill-opacity:1.0000; 
stroke:#FFFFFF; stroke-width:0.0212; stroke-opacity:1; 
stroke-linecap:round; stroke-linejoin:round;">
<g >
</g>
<g >
</g>
<g >
</g>
<g >
</g>
</g>
<g style="fill:#FFFFFF; fill-opacity:1.0000; 
stroke:#FFFFFF; stroke-width:0.0212; stroke-opacity:1; 
stroke-linecap:round; stroke-linejoin:round;">
<g >
</g>
<g >
</g>
<g >
</g>
<g >
</g>
</g>
<g style="fill:#FFFFFF; fill-opacity:1.0000; 
stroke:#FFFFFF; stroke-width:0.0212; stroke-opacity:1; 
stroke-linecap:round; stroke-linejoin:round;">
<g >
</g>
<g style="fill:#37CBCB; fill-opacity:1.0000; 
stroke:#37CBCB; stroke-width:0.0212; stroke-opacity:1; 
stroke-linecap:round; stroke-linejoin:round;">
</g>
<g style="fill:#37CBCB; fill-opacity:1.0000; 
stroke:#37CBCB; stroke-width:0.0000; stroke-opacity:1; 
stroke-linecap:round; stroke-linejoin:round;">
<path style="fill:#37CBCB; fill-opacity:1.0000; 
stroke:#37CBCB; stroke-width:0.0000; stroke-opacity:1; 
stroke-linecap:round; stroke-linejoin:round;fill-rule:evenodd;"
d="M 5.5083,7.5682
5.5178,7.5204
5.5449,7.4799
5.5855,7.4528
5.6333,7.4432
5.8833,7.4432
5.9312,7.4528
5.9717,7.4799
5.9988,7.5204
6.0083,7.5682
6.0083,8.5183
5.9988,8.5661
5.9717,8.6066
5.9312,8.6337
5.8833,8.6433
5.6333,8.6433
5.5855,8.6337
5.5449,8.6066
5.5178,8.5661
5.5083,8.5183
Z" /> 
<path style="fill:#37CBCB; fill-opacity:1.0000; 
stroke:#37CBCB; stroke-width:0.0000; stroke-opacity:1; 
stroke-linecap:round; stroke-linejoin:round;fill-rule:evenodd;"
d="M 5.5083,3.3782
5.5178,3.3304
5.5449,3.2899
5.5855,3.2628
5.6333,3.2532
5.8833,3.2532
5.9312,3.2628
5.9717,3.2899
5.9988,3.3304
6.0083,3.3782
6.0083,4.3282
5.9988,4.3761
5.9717,4.4166
5.9312,4.4437
5.8833,4.4532
5.6333,4.4532
5.5855,4.4437
5.5449,4.4166
5.5178,4.3761
5.5083,4.3282
Z" /> 
<path style="fill:#37CBCB; fill-opacity:1.0000; 
stroke:#37CBCB; stroke-width:0.0000; stroke-opacity:1; 
stroke-linecap:round; stroke-linejoin:round;fill-rule:evenodd;"
d="M 6.3083,7.5682
6.3178,7.5204
6.3449,7.4799
6.3855,7.4528
6.4333,7.4432
6.6833,7.4432
6.7312,7.4528
6.7717,7.4799
6.7988,7.5204
6.8083,7.5682
6.8083,8.5183
6.7988,8.5661
6.7717,8.6066
6.7312,8.6337
6.6833,8.6433
6.4333,8.6433
6.3855,8.6337
6.3449,8.6066
6.3178,8.5661
6.3083,8.5183
Z" /> 
<path style="fill:#37CBCB; fill-opacity:1.0000; 
stroke:#37CBCB; stroke-width:0.0000; stroke-opacity:1; 
stroke-linecap:round; stroke-linejoin:round;fill-rule:evenodd;"
d="M 6.3083,3.3782
6.3178,3.3304
6.3449,3.2899
6.3855,3.2628
6.4333,3.2532
6.6833,3.2532
6.7312,3.2628
6.7717,3.2899
6.7988,3.3304
6.8083,3.3782
6.8083,4.3282
6.7988,4.3761
6.7717,4.4166
6.7312,4.4437
6.6833,4.4532
6.4333,4.4532
6.3855,4.4437
6.3449,4.4166
6.3178,4.3761
6.3083,4.3282
Z" /> 
<path style="fill:#37CBCB; fill-opacity:1.0000; 
stroke:#37CBCB; stroke-width:0.0000; stroke-opacity:1; 
stroke-linecap:round; stroke-linejoin:round;fill-rule:evenodd;"
d="M 7.1083,7.5682
7.1178,7.5204
7.1449,7.4799
7.1855,7.4528
7.2333,7.4432
7.4833,7.4432
7.5312,7.4528
7.5717,7.4799
7.5988,7.5204
7.6083,7.5682
7.6083,8.5183
7.5988,8.5661
7.5717,8.6066
7.5312,8.6337
7.4833,8.6433
7.2333,8.6433
7.1855,8.6337
7.1449,8.6066
7.1178,8.5661
7.1083,8.5183
Z" /> 
<path style="fill:#37CBCB; fill-opacity:1.0000; 
stroke:#37CBCB; stroke-width:0.0000; stroke-opacity:1; 
stroke-linecap:round; stroke-linejoin:round;fill-rule:evenodd;"
d="M 7.1083,3.3782
7.1178,3.3304
7.1449,3.2899
7.1855,3.2628
7.2333,3.2532
7.4833,3.2532
7.5312,3.2628
7.5717,3.2899
7.5988,3.3304
7.6083,3.3782
7.6083,4.3282
7.5988,4.3761
7.5717,4.4166
7.5312,4.4437
7.4833,4.4532
7.2333,4.4532
7.1855,4.4437
7.1449,4.4166
7.1178,4.3761
7.1083,4.3282
Z" /> 
<path style="fill:#37CBCB; fill-opacity:1.0000; 
stroke:#37CBCB; stroke-width:0.0000; stroke-opacity:1; 
stroke-linecap:round; stroke-linejoin:round;fill-rule:evenodd;"
d="M 7.9083,7.5682
7.9178,7.5204
7.9449,7.4799
7.9855,7.4528
8.0333,7.4432
8.2833,7.4432
8.3312,7.4528
8.3717,7.4799
8.3988,7.5204
8.4083,7.5682
8.4083,8.5183
8.3988,8.5661
8.3717,8.6066
8.3312,8.6337
8.2833,8.6433
8.0333,8.6433
7.9855,8.6337
7.9449,8.6066
7.9178,8.5661
7.9083,8.5183
Z" /> 
<path style="fill:#37CBCB; fill-opacity:1.0000; 
stroke:#37CBCB; stroke-width:0.0000; stroke-opacity:1; 
stroke-linecap:round; stroke-linejoin:round;fill-rule:evenodd;"
d="M 7.9083,3.3782
7.9178,3.3304
7.9449,3.2899
7.9855,3.2628
8.0333,3.2532
8.2833,3.2532
8.3312,3.2628
8.3717,3.2899
8.3988,3.3304
8.4083,3.3782
8.4083,4.3282
8.3988,4.3761
8.3717,4.4166
8.3312,4.4437
8.2833,4.4532
8.0333,4.4532
7.9855,4.4437
7.9449,4.4166
7.9178,4.3761
7.9083,4.3282
Z" /> 
<path style="fill:#37CBCB; fill-opacity:1.0000; 
stroke:#37CBCB; stroke-width:0.0000; stroke-opacity:1; 
stroke-linecap:round; stroke-linejoin:round;fill-rule:evenodd;"
d="M 8.7083,7.5682
8.7178,7.5204
8.7449,7.4799
8.7855,7.4528
8.8333,7.4432
9.0833,7.4432
9.1312,7.4528
9.1717,7.4799
9.1988,7.5204
9.2083,7.5682
9.2083,8.5183
9.1988,8.5661
9.1717,8.6066
9.1312,8.6337
9.0833,8.6433
8.8333,8.6433
8.7855,8.6337
8.7449,8.6066
8.7178,8.5661
8.7083,8.5183
Z" /> 
<path style="fill:#37CBCB; fill-opacity:1.0000; 
stroke:#37CBCB; stroke-width:0.0000; stroke-opacity:1; 
stroke-linecap:round; stroke-linejoin:round;fill-rule:evenodd;"
d="M 8.7083,3.3782
8.7178,3.3304
8.7449,3.2899
8.7855,3.2628
8.8333,3.2532
9.0833,3.2532
9.1312,3.2628
9.1717,3.2899
9.1988,3.3304
9.2083,3.3782
9.2083,4.3282
9.1988,4.3761
9.1717,4.4166
9.1312,4.4437
9.0833,4.4532
8.8333,4.4532
8.7855,4.4437
8.7449,4.4166
8.7178,4.3761
8.7083,4.3282
Z" /> 
<path style="fill:#37CBCB; fill-opacity:1.0000; 
stroke:#37CBCB; stroke-width:0.0000; stroke-opacity:1; 
stroke-linecap:round; stroke-linejoin:round;fill-rule:evenodd;"
d="M 9.5083,7.5682
9.5178,7.5204
9.5449,7.4799
9.5855,7.4528
9.6333,7.4432
9.8833,7.4432
9.9312,7.4528
9.9717,7.4799
9.9988,7.5204
10.0083,7.5682
10.0083,8.5183
9.9988,8.5661
9.9717,8.6066
9.9312,8.6337
9.8833,8.6433
9.6333,8.6433
9.5855,8.6337
9.5449,8.6066
9.5178,8.5661
9.5083,8.5183
Z" /> 
<path style="fill:#37CBCB; fill-opacity:1.0000; 
stroke:#37CBCB; stroke-width:0.0000; stroke-opacity:1; 
stroke-linecap:round; stroke-linejoin:round;fill-rule:evenodd;"
d="M 9.5083,3.3782
9.5178,3.3304
9.5449,3.2899
9.5855,3.2628
9.6333,3.2532
9.8833,3.2532
9.9312,3.2628
9.9717,3.2899
9.9988,3.3304
10.0083,3.3782
10.0083,4.3282
9.9988,4.3761
9.9717,4.4166
9.9312,4.4437
9.8833,4.4532
9.6333,4.4532
9.5855,4.4437
9.5449,4.4166
9.5178,4.3761
9.5083,4.3282
Z" /> 
<path style="fill:#37CBCB; fill-opacity:1.0000; 
stroke:#37CBCB; stroke-width:0.0000; stroke-opacity:1; 
stroke-linecap:round; stroke-linejoin:round;fill-rule:evenodd;"
d="M 10.3083,7.5682
10.3178,7.5204
10.3449,7.4799
10.3855,7.4528
10.4333,7.4432
10.6833,7.4432
10.7312,7.4528
10.7717,7.4799
10.7988,7.5204
10.8083,7.5682
10.8083,8.5183
10.7988,8.5661
10.7717,8.6066
10.7312,8.6337
10.6833,8.6433
10.4333,8.6433
10.3855,8.6337
10.3449,8.6066
10.3178,8.5661
10.3083,8.5183
Z" /> 
<path style="fill:#37CBCB; fill-opacity:1.0000; 
stroke:#37CBCB; stroke-width:0.0000; stroke-opacity:1; 
stroke-linecap:round; stroke-linejoin:round;fill-rule:evenodd;"
d="M 10.3083,3.3782
10.3178,3.3304
10.3449,3.2899
10.3855,3.2628
10.4333,3.2532
10.6833,3.2532
10.7312,3.2628
10.7717,3.2899
10.7988,3.3304
10.8083,3.3782
10.8083,4.3282
10.7988,4.3761
10.7717,4.4166
10.7312,4.4437
10.6833,4.4532
10.4333,4.4532
10.3855,4.4437
10.3449,4.4166
10.3178,4.3761
10.3083,4.3282
Z" /> 
<path style="fill:#37CBCB; fill-opacity:1.0000; 
stroke:#37CBCB; stroke-width:0.0000; stroke-opacity:1; 
stroke-linecap:round; stroke-linejoin:round;fill-rule:evenodd;"
d="M 11.1083,7.5682
11.1178,7.5204
11.1449,7.4799
11.1855,7.4528
11.2333,7.4432
11.4833,7.4432
11.5312,7.4528
11.5717,7.4799
11.5988,7.5204
11.6083,7.5682
11.6083,8.5183
11.5988,8.5661
11.5717,8.6066
11.5312,8.6337
11.4833,8.6433
11.2333,8.6433
11.1855,8.6337
11.1449,8.6066
11.1178,8.5661
11.1083,8.5183
Z" /> 
<path style="fill:#37CBCB; fill-opacity:1.0000; 
stroke:#37CBCB; stroke-width:0.0000; stroke-opacity:1; 
stroke-linecap:round; stroke-linejoin:round;fill-rule:evenodd;"
d="M 11.1083,3.3782
11.1178,3.3304
11.1449,3.2899
11.1855,3.2628
11.2333,3.2532
11.4833,3.2532
11.5312,3.2628
11.5717,3.2899
11.5988,3.3304
11.6083,3.3782
11.6083,4.3282
11.5988,4.3761
11.5717,4.4166
11.5312,4.4437
11.4833,4.4532
11.2333,4.4532
11.1855,4.4437
11.1449,4.4166
11.1178,4.3761
11.1083,4.3282
Z" /> 
<path style="fill:#37CBCB; fill-opacity:1.0000; 
stroke:#37CBCB; stroke-width:0.0000; stroke-opacity:1; 
stroke-linecap:round; stroke-linejoin:round;fill-rule:evenodd;"
d="M 11.9083,7.5682
11.9178,7.5204
11.9449,7.4799
11.9855,7.4528
12.0333,7.4432
12.2833,7.4432
12.3312,7.4528
12.3717,7.4799
12.3988,7.5204
12.4083,7.5682
12.4083,8.5183
12.3988,8.5661
12.3717,8.6066
12.3312,8.6337
12.2833,8.6433
12.0333,8.6433
11.9855,8.6337
11.9449,8.6066
11.9178,8.5661
11.9083,8.5183
Z" /> 
<path style="fill:#37CBCB; fill-opacity:1.0000; 
stroke:#37CBCB; stroke-width:0.0000; stroke-opacity:1; 
stroke-linecap:round; stroke-linejoin:round;fill-rule:evenodd;"
d="M 11.9083,3.3782
11.9178,3.3304
11.9449,3.2899
11.9855,3.2628
12.0333,3.2532
12.2833,3.2532
12.3312,3.2628
12.3717,3.2899
12.3988,3.3304
12.4083,3.3782
12.4083,4.3282
12.3988,4.3761
12.3717,4.4166
12.3312,4.4437
12.2833,4.4532
12.0333,4.4532
11.9855,4.4437
11.9449,4.4166
11.9178,4.3761
11.9083,4.3282
Z" /> 
<path style="fill:#37CBCB; fill-opacity:1.0000; 
stroke:#37CBCB; stroke-width:0.0000; stroke-opacity:1; 
stroke-linecap:round; stroke-linejoin:round;fill-rule:evenodd;"
d="M 12.7083,7.5682
12.7178,7.5204
12.7449,7.4799
12.7855,7.4528
12.8333,7.4432
13.0833,7.4432
13.1312,7.4528
13.1717,7.4799
13.1988,7.5204
13.2083,7.5682
13.2083,8.5183
13.1988,8.5661
13.1717,8.6066
13.1312,8.6337
13.0833,8.6433
12.8333,8.6433
12.7855,8.6337
12.7449,8.6066
12.7178,8.5661
12.7083,8.5183
Z" /> 
<path style="fill:#37CBCB; fill-opacity:1.0000; 
stroke:#37CBCB; stroke-width:0.0000; stroke-opacity:1; 
stroke-linecap:round; stroke-linejoin:round;fill-rule:evenodd;"
d="M 12.7083,3.3782
12.7178,3.3304
12.7449,3.2899
12.7855,3.2628
12.8333,3.2532
13.0833,3.2532
13.1312,3.2628
13.1717,3.2899
13.1988,3.3304
13.2083,3.3782
13.2083,4.3282
13.1988,4.3761
13.1717,4.4166
13.1312,4.4437
13.0833,4.4532
12.8333,4.4532
12.7855,4.4437
12.7449,4.4166
12.7178,4.3761
12.7083,4.3282
Z" /> 
<path style="fill:#37CBCB; fill-opacity:1.0000; 
stroke:#37CBCB; stroke-width:0.0000; stroke-opacity:1; 
stroke-linecap:round; stroke-linejoin:round;fill-rule:evenodd;"
d="M 13.5083,7.5682
13.5178,7.5204
13.5449,7.4799
13.5855,7.4528
13.6333,7.4432
13.8833,7.4432
13.9312,7.4528
13.9717,7.4799
13.9988,7.5204
14.0083,7.5682
14.0083,8.5183
13.9988,8.5661
13.9717,8.6066
13.9312,8.6337
13.8833,8.6433
13.6333,8.6433
13.5855,8.6337
13.5449,8.6066
13.5178,8.5661
13.5083,8.5183
Z" /> 
<path style="fill:#37CBCB; fill-opacity:1.0000; 
stroke:#37CBCB; stroke-width:0.0000; stroke-opacity:1; 
stroke-linecap:round; stroke-linejoin:round;fill-rule:evenodd;"
d="M 13.5083,3.3782
13.5178,3.3304
13.5449,3.2899
13.5855,3.2628
13.6333,3.2532
13.8833,3.2532
13.9312,3.2628
13.9717,3.2899
13.9988,3.3304
14.0083,3.3782
14.0083,4.3282
13.9988,4.3761
13.9717,4.4166
13.9312,4.4437
13.8833,4.4532
13.6333,4.4532
13.5855,4.4437
13.5449,4.4166
13.5178,4.3761
13.5083,4.3282
Z" /> 
<path style="fill:#37CBCB; fill-opacity:1.0000; 
stroke:#37CBCB; stroke-width:0.0000; stroke-opacity:1; 
stroke-linecap:round; stroke-linejoin:round;fill-rule:evenodd;"
d="M 14.3083,7.5682
14.3178,7.5204
14.3449,7.4799
14.3855,7.4528
14.4333,7.4432
14.6833,7.4432
14.7312,7.4528
14.7717,7.4799
14.7988,7.5204
14.8083,7.5682
14.8083,8.5183
14.7988,8.5661
14.7717,8.6066
14.7312,8.6337
14.6833,8.6433
14.4333,8.6433
14.3855,8.6337
14.3449,8.6066
14.3178,8.5661
14.3083,8.5183
Z" /> 
<path style="fill:#37CBCB; fill-opacity:1.0000; 
stroke:#37CBCB; stroke-width:0.0000; stroke-opacity:1; 
stroke-linecap:round; stroke-linejoin:round;fill-rule:evenodd;"
d="M 14.3083,3.3782
14.3178,3.3304
14.3449,3.2899
14.3855,3.2628
14.4333,3.2532
14.6833,3.2532
14.7312,3.2628
14.7717,3.2899
14.7988,3.3304
14.8083,3.3782
14.8083,4.3282
14.7988,4.3761
14.7717,4.4166
14.7312,4.4437
14.6833,4.4532
14.4333,4.4532
14.3855,4.4437
14.3449,4.4166
14.3178,4.3761
14.3083,4.3282
Z" /> 
<path style="fill:#37CBCB; fill-opacity:1.0000; 
stroke:#37CBCB; stroke-width:0.0000; stroke-opacity:1; 
stroke-linecap:round; stroke-linejoin:round;fill-rule:evenodd;"
d="M 15.1083,7.5682
15.1178,7.5204
15.1449,7.4799
15.1855,7.4528
15.2333,7.4432
15.4833,7.4432
15.5312,7.4528
15.5717,7.4799
15.5988,7.5204
15.6083,7.5682
15.6083,8.5183
15.5988,8.5661
15.5717,8.6066
15.5312,8.6337
15.4833,8.6433
15.2333,8.6433
15.1855,8.6337
15.1449,8.6066
15.1178,8.5661
15.1083,8.5183
Z" /> 
<path style="fill:#37CBCB; fill-opacity:1.0000; 
stroke:#37CBCB; stroke-width:0.0000; stroke-opacity:1; 
stroke-linecap:round; stroke-linejoin:round;fill-rule:evenodd;"
d="M 15.1083,3.3782
15.1178,3.3304
15.1449,3.2899
15.1855,3.2628
15.2333,3.2532
15.4833,3.2532
15.5312,3.2628
15.5717,3.2899
15.5988,3.3304
15.6083,3.3782
15.6083,4.3282
15.5988,4.3761
15.5717,4.4166
15.5312,4.4437
15.4833,4.4532
15.2333,4.4532
15.1855,4.4437
15.1449,4.4166
15.1178,4.3761
15.1083,4.3282
Z" /> 
<path style="fill:#37CBCB; fill-opacity:1.0000; 
stroke:#37CBCB; stroke-width:0.0000; stroke-opacity:1; 
stroke-linecap:round; stroke-linejoin:round;fill-rule:evenodd;"
d="M 15.9083,7.5682
15.9178,7.5204
15.9449,7.4799
15.9855,7.4528
16.0333,7.4432
16.2833,7.4432
16.3312,7.4528
16.3717,7.4799
16.3988,7.5204
16.4083,7.5682
16.4083,8.5183
16.3988,8.5661
16.3717,8.6066
16.3312,8.6337
16.2833,8.6433
16.0333,8.6433
15.9855,8.6337
15.9449,8.6066
15.9178,8.5661
15.9083,8.5183
Z" /> 
<path style="fill:#37CBCB; fill-opacity:1.0000; 
stroke:#37CBCB; stroke-width:0.0000; stroke-opacity:1; 
stroke-linecap:round; stroke-linejoin:round;fill-rule:evenodd;"
d="M 15.9083,3.3782
15.9178,3.3304
15.9449,3.2899
15.9855,3.2628
16.0333,3.2532
16.2833,3.2532
16.3312,3.2628
16.3717,3.2899
16.3988,3.3304
16.4083,3.3782
16.4083,4.3282
16.3988,4.3761
16.3717,4.4166
16.3312,4.4437
16.2833,4.4532
16.0333,4.4532
15.9855,4.4437
15.9449,4.4166
15.9178,4.3761
15.9083,4.3282
Z" /> 
<path style="fill:#37CBCB; fill-opacity:1.0000; 
stroke:#37CBCB; stroke-width:0.0000; stroke-opacity:1; 
stroke-linecap:round; stroke-linejoin:round;fill-rule:evenodd;"
d="M 16.7083,7.5682
16.7178,7.5204
16.7449,7.4799
16.7855,7.4528
16.8333,7.4432
17.0833,7.4432
17.1312,7.4528
17.1717,7.4799
17.1988,7.5204
17.2083,7.5682
17.2083,8.5183
17.1988,8.5661
17.1717,8.6066
17.1312,8.6337
17.0833,8.6433
16.8333,8.6433
16.7855,8.6337
16.7449,8.6066
16.7178,8.5661
16.7083,8.5183
Z" /> 
<path style="fill:#37CBCB; fill-opacity:1.0000; 
stroke:#37CBCB; stroke-width:0.0000; stroke-opacity:1; 
stroke-linecap:round; stroke-linejoin:round;fill-rule:evenodd;"
d="M 16.7083,3.3782
16.7178,3.3304
16.7449,3.2899
16.7855,3.2628
16.8333,3.2532
17.0833,3.2532
17.1312,3.2628
17.1717,3.2899
17.1988,3.3304
17.2083,3.3782
17.2083,4.3282
17.1988,4.3761
17.1717,4.4166
17.1312,4.4437
17.0833,4.4532
16.8333,4.4532
16.7855,4.4437
16.7449,4.4166
16.7178,4.3761
16.7083,4.3282
Z" /> 
<path style="fill:#37CBCB; fill-opacity:1.0000; 
stroke:#37CBCB; stroke-width:0.0000; stroke-opacity:1; 
stroke-linecap:round; stroke-linejoin:round;fill-rule:evenodd;"
d="M 17.5083,7.5682
17.5178,7.5204
17.5449,7.4799
17.5855,7.4528
17.6333,7.4432
17.8833,7.4432
17.9312,7.4528
17.9717,7.4799
17.9988,7.5204
18.0083,7.5682
18.0083,8.5183
17.9988,8.5661
17.9717,8.6066
17.9312,8.6337
17.8833,8.6433
17.6333,8.6433
17.5855,8.6337
17.5449,8.6066
17.5178,8.5661
17.5083,8.5183
Z" /> 
<path style="fill:#37CBCB; fill-opacity:1.0000; 
stroke:#37CBCB; stroke-width:0.0000; stroke-opacity:1; 
stroke-linecap:round; stroke-linejoin:round;fill-rule:evenodd;"
d="M 17.5083,3.3782
17.5178,3.3304
17.5449,3.2899
17.5855,3.2628
17.6333,3.2532
17.8833,3.2532
17.9312,3.2628
17.9717,3.2899
17.9988,3.3304
18.0083,3.3782
18.0083,4.3282
17.9988,4.3761
17.9717,4.4166
17.9312,4.4437
17.8833,4.4532
17.6333,4.4532
17.5855,4.4437
17.5449,4.4166
17.5178,4.3761
17.5083,4.3282
Z" /> 
<path style="fill:#37CBCB; fill-opacity:1.0000; 
stroke:#37CBCB; stroke-width:0.0000; stroke-opacity:1; 
stroke-linecap:round; stroke-linejoin:round;fill-rule:evenodd;"
d="M 18.3083,7.5682
18.3178,7.5204
18.3449,7.4799
18.3855,7.4528
18.4333,7.4432
18.6833,7.4432
18.7312,7.4528
18.7717,7.4799
18.7988,7.5204
18.8083,7.5682
18.8083,8.5183
18.7988,8.5661
18.7717,8.6066
18.7312,8.6337
18.6833,8.6433
18.4333,8.6433
18.3855,8.6337
18.3449,8.6066
18.3178,8.5661
18.3083,8.5183
Z" /> 
<path style="fill:#37CBCB; fill-opacity:1.0000; 
stroke:#37CBCB; stroke-width:0.0000; stroke-opacity:1; 
stroke-linecap:round; stroke-linejoin:round;fill-rule:evenodd;"
d="M 18.3083,3.3782
18.3178,3.3304
18.3449,3.2899
18.3855,3.2628
18.4333,3.2532
18.6833,3.2532
18.7312,3.2628
18.7717,3.2899
18.7988,3.3304
18.8083,3.3782
18.8083,4.3282
18.7988,4.3761
18.7717,4.4166
18.7312,4.4437
18.6833,4.4532
18.4333,4.4532
18.3855,4.4437
18.3449,4.4166
18.3178,4.3761
18.3083,4.3282
Z" /> 
<path style="fill:#37CBCB; fill-opacity:1.0000; 
stroke:#37CBCB; stroke-width:0.0000; stroke-opacity:1; 
stroke-linecap:round; stroke-linejoin:round;fill-rule:evenodd;"
d="M 19.1083,7.5682
19.1178,7.5204
19.1449,7.4799
19.1855,7.4528
19.2333,7.4432
19.4833,7.4432
19.5312,7.4528
19.5717,7.4799
19.5988,7.5204
19.6083,7.5682
19.6083,8.5183
19.5988,8.5661
19.5717,8.6066
19.5312,8.6337
19.4833,8.6433
19.2333,8.6433
19.1855,8.6337
19.1449,8.6066
19.1178,8.5661
19.1083,8.5183
Z" /> 
<path style="fill:#37CBCB; fill-opacity:1.0000; 
stroke:#37CBCB; stroke-width:0.0000; stroke-opacity:1; 
stroke-linecap:round; stroke-linejoin:round;fill-rule:evenodd;"
d="M 19.1083,3.3782
19.1178,3.3304
19.1449,3.2899
19.1855,3.2628
19.2333,3.2532
19.4833,3.2532
19.5312,3.2628
19.5717,3.2899
19.5988,3.3304
19.6083,3.3782
19.6083,4.3282
19.5988,4.3761
19.5717,4.4166
19.5312,4.4437
19.4833,4.4532
19.2333,4.4532
19.1855,4.4437
19.1449,4.4166
19.1178,4.3761
19.1083,4.3282
Z" /> 
<path style="fill:#37CBCB; fill-opacity:1.0000; 
stroke:#37CBCB; stroke-width:0.0000; stroke-opacity:1; 
stroke-linecap:round; stroke-linejoin:round;fill-rule:evenodd;"
d="M 19.9083,7.5682
19.9178,7.5204
19.9449,7.4799
19.9855,7.4528
20.0333,7.4432
20.2833,7.4432
20.3312,7.4528
20.3717,7.4799
20.3988,7.5204
20.4083,7.5682
20.4083,8.5183
20.3988,8.5661
20.3717,8.6066
20.3312,8.6337
20.2833,8.6433
20.0333,8.6433
19.9855,8.6337
19.9449,8.6066
19.9178,8.5661
19.9083,8.5183
Z" /> 
<path style="fill:#37CBCB; fill-opacity:1.0000; 
stroke:#37CBCB; stroke-width:0.0000; stroke-opacity:1; 
stroke-linecap:round; stroke-linejoin:round;fill-rule:evenodd;"
d="M 19.9083,3.3782
19.9178,3.3304
19.9449,3.2899
19.9855,3.2628
20.0333,3.2532
20.2833,3.2532
20.3312,3.2628
20.3717,3.2899
20.3988,3.3304
20.4083,3.3782
20.4083,4.3282
20.3988,4.3761
20.3717,4.4166
20.3312,4.4437
20.2833,4.4532
20.0333,4.4532
19.9855,4.4437
19.9449,4.4166
19.9178,4.3761
19.9083,4.3282
Z" /> 
<path style="fill:#37CBCB; fill-opacity:1.0000; 
stroke:#37CBCB; stroke-width:0.0000; stroke-opacity:1; 
stroke-linecap:round; stroke-linejoin:round;fill-rule:evenodd;"
d="M 20.7083,7.5682
20.7178,7.5204
20.7449,7.4799
20.7855,7.4528
20.8333,7.4432
21.0833,7.4432
21.1312,7.4528
21.1717,7.4799
21.1988,7.5204
21.2083,7.5682
21.2083,8.5183
21.1988,8.5661
21.1717,8.6066
21.1312,8.6337
21.0833,8.6433
20.8333,8.6433
20.7855,8.6337
20.7449,8.6066
20.7178,8.5661
20.7083,8.5183
Z" /> 
<path style="fill:#37CBCB; fill-opacity:1.0000; 
stroke:#37CBCB; stroke-width:0.0000; stroke-opacity:1; 
stroke-linecap:round; stroke-linejoin:round;fill-rule:evenodd;"
d="M 20.7083,3.3782
20.7178,3.3304
20.7449,3.2899
20.7855,3.2628
20.8333,3.2532
21.0833,3.2532
21.1312,3.2628
21.1717,3.2899
21.1988,3.3304
21.2083,3.3782
21.2083,4.3282
21.1988,4.3761
21.1717,4.4166
21.1312,4.4437
21.0833,4.4532
20.8333,4.4532
20.7855,4.4437
20.7449,4.4166
20.7178,4.3761
20.7083,4.3282
Z" /> 
<path style="fill:#37CBCB; fill-opacity:1.0000; 
stroke:#37CBCB; stroke-width:0.0000; stroke-opacity:1; 
stroke-linecap:round; stroke-linejoin:round;fill-rule:evenodd;"
d="M 21.5083,7.5682
21.5178,7.5204
21.5449,7.4799
21.5855,7.4528
21.6333,7.4432
21.8833,7.4432
21.9312,7.4528
21.9717,7.4799
21.9988,7.5204
22.0083,7.5682
22.0083,8.5183
21.9988,8.5661
21.9717,8.6066
21.9312,8.6337
21.8833,8.6433
21.6333,8.6433
21.5855,8.6337
21.5449,8.6066
21.5178,8.5661
21.5083,8.5183
Z" /> 
<path style="fill:#37CBCB; fill-opacity:1.0000; 
stroke:#37CBCB; stroke-width:0.0000; stroke-opacity:1; 
stroke-linecap:round; stroke-linejoin:round;fill-rule:evenodd;"
d="M 21.5083,3.3782
21.5178,3.3304
21.5449,3.2899
21.5855,3.2628
21.6333,3.2532
21.8833,3.2532
21.9312,3.2628
21.9717,3.2899
21.9988,3.3304
22.0083,3.3782
22.0083,4.3282
21.9988,4.3761
21.9717,4.4166
21.9312,4.4437
21.8833,4.4532
21.6333,4.4532
21.5855,4.4437
21.5449,4.4166
21.5178,4.3761
21.5083,4.3282
Z" /> 
<path style="fill:#37CBCB; fill-opacity:1.0000; 
stroke:#37CBCB; stroke-width:0.0000; stroke-opacity:1; 
stroke-linecap:round; stroke-linejoin:round;fill-rule:evenodd;"
d="M 22.3083,7.5682
22.3178,7.5204
22.3449,7.4799
22.3855,7.4528
22.4333,7.4432
22.6833,7.4432
22.7312,7.4528
22.7717,7.4799
22.7988,7.5204
22.8083,7.5682
22.8083,8.5183
22.7988,8.5661
22.7717,8.6066
22.7312,8.6337
22.6833,8.6433
22.4333,8.6433
22.3855,8.6337
22.3449,8.6066
22.3178,8.5661
22.3083,8.5183
Z" /> 
<path style="fill:#37CBCB; fill-opacity:1.0000; 
stroke:#37CBCB; stroke-width:0.0000; stroke-opacity:1; 
stroke-linecap:round; stroke-linejoin:round;fill-rule:evenodd;"
d="M 22.3083,3.3782
22.3178,3.3304
22.3449,3.2899
22.3855,3.2628
22.4333,3.2532
22.6833,3.2532
22.7312,3.2628
22.7717,3.2899
22.7988,3.3304
22.8083,3.3782
22.8083,4.3282
22.7988,4.3761
22.7717,4.4166
22.7312,4.4437
22.6833,4.4532
22.4333,4.4532
22.3855,4.4437
22.3449,4.4166
22.3178,4.3761
22.3083,4.3282
Z" /> 
<path style="fill:#37CBCB; fill-opacity:1.0000; 
stroke:#37CBCB; stroke-width:0.0000; stroke-opacity:1; 
stroke-linecap:round; stroke-linejoin:round;fill-rule:evenodd;"
d="M 26.3083,7.5682
26.3178,7.5204
26.3449,7.4799
26.3855,7.4528
26.4333,7.4432
26.6833,7.4432
26.7312,7.4528
26.7717,7.4799
26.7988,7.5204
26.8083,7.5682
26.8083,8.5183
26.7988,8.5661
26.7717,8.6066
26.7312,8.6337
26.6833,8.6433
26.4333,8.6433
26.3855,8.6337
26.3449,8.6066
26.3178,8.5661
26.3083,8.5183
Z" /> 
<path style="fill:#37CBCB; fill-opacity:1.0000; 
stroke:#37CBCB; stroke-width:0.0000; stroke-opacity:1; 
stroke-linecap:round; stroke-linejoin:round;fill-rule:evenodd;"
d="M 26.3083,3.3782
26.3178,3.3304
26.3449,3.2899
26.3855,3.2628
26.4333,3.2532
26.6833,3.2532
26.7312,3.2628
26.7717,3.2899
26.7988,3.3304
26.8083,3.3782
26.8083,4.3282
26.7988,4.3761
26.7717,4.4166
26.7312,4.4437
26.6833,4.4532
26.4333,4.4532
26.3855,4.4437
26.3449,4.4166
26.3178,4.3761
26.3083,4.3282
Z" /> 
<path style="fill:#37CBCB; fill-opacity:1.0000; 
stroke:#37CBCB; stroke-width:0.0000; stroke-opacity:1; 
stroke-linecap:round; stroke-linejoin:round;fill-rule:evenodd;"
d="M 27.1083,7.5682
27.1178,7.5204
27.1449,7.4799
27.1855,7.4528
27.2333,7.4432
27.4833,7.4432
27.5312,7.4528
27.5717,7.4799
27.5988,7.5204
27.6083,7.5682
27.6083,8.5183
27.5988,8.5661
27.5717,8.6066
27.5312,8.6337
27.4833,8.6433
27.2333,8.6433
27.1855,8.6337
27.1449,8.6066
27.1178,8.5661
27.1083,8.5183
Z" /> 
<path style="fill:#37CBCB; fill-opacity:1.0000; 
stroke:#37CBCB; stroke-width:0.0000; stroke-opacity:1; 
stroke-linecap:round; stroke-linejoin:round;fill-rule:evenodd;"
d="M 27.1083,3.3782
27.1178,3.3304
27.1449,3.2899
27.1855,3.2628
27.2333,3.2532
27.4833,3.2532
27.5312,3.2628
27.5717,3.2899
27.5988,3.3304
27.6083,3.3782
27.6083,4.3282
27.5988,4.3761
27.5717,4.4166
27.5312,4.4437
27.4833,4.4532
27.2333,4.4532
27.1855,4.4437
27.1449,4.4166
27.1178,4.3761
27.1083,4.3282
Z" /> 
<path style="fill:#37CBCB; fill-opacity:1.0000; 
stroke:#37CBCB; stroke-width:0.0000; stroke-opacity:1; 
stroke-linecap:round; stroke-linejoin:round;fill-rule:evenodd;"
d="M 27.9083,7.5682
27.9178,7.5204
27.9449,7.4799
27.9855,7.4528
28.0333,7.4432
28.2833,7.4432
28.3312,7.4528
28.3717,7.4799
28.3988,7.5204
28.4083,7.5682
28.4083,8.5183
28.3988,8.5661
28.3717,8.6066
28.3312,8.6337
28.2833,8.6433
28.0333,8.6433
27.9855,8.6337
27.9449,8.6066
27.9178,8.5661
27.9083,8.5183
Z" /> 
<path style="fill:#37CBCB; fill-opacity:1.0000; 
stroke:#37CBCB; stroke-width:0.0000; stroke-opacity:1; 
stroke-linecap:round; stroke-linejoin:round;fill-rule:evenodd;"
d="M 27.9083,3.3782
27.9178,3.3304
27.9449,3.2899
27.9855,3.2628
28.0333,3.2532
28.2833,3.2532
28.3312,3.2628
28.3717,3.2899
28.3988,3.3304
28.4083,3.3782
28.4083,4.3282
28.3988,4.3761
28.3717,4.4166
28.3312,4.4437
28.2833,4.4532
28.0333,4.4532
27.9855,4.4437
27.9449,4.4166
27.9178,4.3761
27.9083,4.3282
Z" /> 
<path style="fill:#37CBCB; fill-opacity:1.0000; 
stroke:#37CBCB; stroke-width:0.0000; stroke-opacity:1; 
stroke-linecap:round; stroke-linejoin:round;fill-rule:evenodd;"
d="M 28.7083,7.5682
28.7178,7.5204
28.7449,7.4799
28.7855,7.4528
28.8333,7.4432
29.0833,7.4432
29.1312,7.4528
29.1717,7.4799
29.1988,7.5204
29.2083,7.5682
29.2083,8.5183
29.1988,8.5661
29.1717,8.6066
29.1312,8.6337
29.0833,8.6433
28.8333,8.6433
28.7855,8.6337
28.7449,8.6066
28.7178,8.5661
28.7083,8.5183
Z" /> 
<path style="fill:#37CBCB; fill-opacity:1.0000; 
stroke:#37CBCB; stroke-width:0.0000; stroke-opacity:1; 
stroke-linecap:round; stroke-linejoin:round;fill-rule:evenodd;"
d="M 28.7083,3.3782
28.7178,3.3304
28.7449,3.2899
28.7855,3.2628
28.8333,3.2532
29.0833,3.2532
29.1312,3.2628
29.1717,3.2899
29.1988,3.3304
29.2083,3.3782
29.2083,4.3282
29.1988,4.3761
29.1717,4.4166
29.1312,4.4437
29.0833,4.4532
28.8333,4.4532
28.7855,4.4437
28.7449,4.4166
28.7178,4.3761
28.7083,4.3282
Z" /> 
<path style="fill:#37CBCB; fill-opacity:1.0000; 
stroke:#37CBCB; stroke-width:0.0000; stroke-opacity:1; 
stroke-linecap:round; stroke-linejoin:round;fill-rule:evenodd;"
d="M 29.5083,7.5682
29.5178,7.5204
29.5449,7.4799
29.5855,7.4528
29.6333,7.4432
29.8833,7.4432
29.9312,7.4528
29.9717,7.4799
29.9988,7.5204
30.0083,7.5682
30.0083,8.5183
29.9988,8.5661
29.9717,8.6066
29.9312,8.6337
29.8833,8.6433
29.6333,8.6433
29.5855,8.6337
29.5449,8.6066
29.5178,8.5661
29.5083,8.5183
Z" /> 
<path style="fill:#37CBCB; fill-opacity:1.0000; 
stroke:#37CBCB; stroke-width:0.0000; stroke-opacity:1; 
stroke-linecap:round; stroke-linejoin:round;fill-rule:evenodd;"
d="M 29.5083,3.3782
29.5178,3.3304
29.5449,3.2899
29.5855,3.2628
29.6333,3.2532
29.8833,3.2532
29.9312,3.2628
29.9717,3.2899
29.9988,3.3304
30.0083,3.3782
30.0083,4.3282
29.9988,4.3761
29.9717,4.4166
29.9312,4.4437
29.8833,4.4532
29.6333,4.4532
29.5855,4.4437
29.5449,4.4166
29.5178,4.3761
29.5083,4.3282
Z" /> 
<path style="fill:#37CBCB; fill-opacity:1.0000; 
stroke:#37CBCB; stroke-width:0.0000; stroke-opacity:1; 
stroke-linecap:round; stroke-linejoin:round;fill-rule:evenodd;"
d="M 30.3083,7.5682
30.3178,7.5204
30.3449,7.4799
30.3855,7.4528
30.4333,7.4432
30.6833,7.4432
30.7312,7.4528
30.7717,7.4799
30.7988,7.5204
30.8083,7.5682
30.8083,8.5183
30.7988,8.5661
30.7717,8.6066
30.7312,8.6337
30.6833,8.6433
30.4333,8.6433
30.3855,8.6337
30.3449,8.6066
30.3178,8.5661
30.3083,8.5183
Z" /> 
<path style="fill:#37CBCB; fill-opacity:1.0000; 
stroke:#37CBCB; stroke-width:0.0000; stroke-opacity:1; 
stroke-linecap:round; stroke-linejoin:round;fill-rule:evenodd;"
d="M 30.3083,3.3782
30.3178,3.3304
30.3449,3.2899
30.3855,3.2628
30.4333,3.2532
30.6833,3.2532
30.7312,3.2628
30.7717,3.2899
30.7988,3.3304
30.8083,3.3782
30.8083,4.3282
30.7988,4.3761
30.7717,4.4166
30.7312,4.4437
30.6833,4.4532
30.4333,4.4532
30.3855,4.4437
30.3449,4.4166
30.3178,4.3761
30.3083,4.3282
Z" /> 
<path style="fill:#37CBCB; fill-opacity:1.0000; 
stroke:#37CBCB; stroke-width:0.0000; stroke-opacity:1; 
stroke-linecap:round; stroke-linejoin:round;fill-rule:evenodd;"
d="M 31.1083,7.5682
31.1178,7.5204
31.1449,7.4799
31.1855,7.4528
31.2333,7.4432
31.4833,7.4432
31.5312,7.4528
31.5717,7.4799
31.5988,7.5204
31.6083,7.5682
31.6083,8.5183
31.5988,8.5661
31.5717,8.6066
31.5312,8.6337
31.4833,8.6433
31.2333,8.6433
31.1855,8.6337
31.1449,8.6066
31.1178,8.5661
31.1083,8.5183
Z" /> 
<path style="fill:#37CBCB; fill-opacity:1.0000; 
stroke:#37CBCB; stroke-width:0.0000; stroke-opacity:1; 
stroke-linecap:round; stroke-linejoin:round;fill-rule:evenodd;"
d="M 31.1083,3.3782
31.1178,3.3304
31.1449,3.2899
31.1855,3.2628
31.2333,3.2532
31.4833,3.2532
31.5312,3.2628
31.5717,3.2899
31.5988,3.3304
31.6083,3.3782
31.6083,4.3282
31.5988,4.3761
31.5717,4.4166
31.5312,4.4437
31.4833,4.4532
31.2333,4.4532
31.1855,4.4437
31.1449,4.4166
31.1178,4.3761
31.1083,4.3282
Z" /> 
<path style="fill:#37CBCB; fill-opacity:1.0000; 
stroke:#37CBCB; stroke-width:0.0000; stroke-opacity:1; 
stroke-linecap:round; stroke-linejoin:round;fill-rule:evenodd;"
d="M 31.9083,7.5682
31.9178,7.5204
31.9449,7.4799
31.9855,7.4528
32.0333,7.4432
32.2833,7.4432
32.3312,7.4528
32.3717,7.4799
32.3988,7.5204
32.4083,7.5682
32.4083,8.5183
32.3988,8.5661
32.3717,8.6066
32.3312,8.6337
32.2833,8.6433
32.0333,8.6433
31.9855,8.6337
31.9449,8.6066
31.9178,8.5661
31.9083,8.5183
Z" /> 
<path style="fill:#37CBCB; fill-opacity:1.0000; 
stroke:#37CBCB; stroke-width:0.0000; stroke-opacity:1; 
stroke-linecap:round; stroke-linejoin:round;fill-rule:evenodd;"
d="M 31.9083,3.3782
31.9178,3.3304
31.9449,3.2899
31.9855,3.2628
32.0333,3.2532
32.2833,3.2532
32.3312,3.2628
32.3717,3.2899
32.3988,3.3304
32.4083,3.3782
32.4083,4.3282
32.3988,4.3761
32.3717,4.4166
32.3312,4.4437
32.2833,4.4532
32.0333,4.4532
31.9855,4.4437
31.9449,4.4166
31.9178,4.3761
31.9083,4.3282
Z" /> 
<path style="fill:#37CBCB; fill-opacity:1.0000; 
stroke:#37CBCB; stroke-width:0.0000; stroke-opacity:1; 
stroke-linecap:round; stroke-linejoin:round;fill-rule:evenodd;"
d="M 32.7083,7.5682
32.7178,7.5204
32.7449,7.4799
32.7855,7.4528
32.8333,7.4432
33.0833,7.4432
33.1312,7.4528
33.1717,7.4799
33.1988,7.5204
33.2083,7.5682
33.2083,8.5183
33.1988,8.5661
33.1717,8.6066
33.1312,8.6337
33.0833,8.6433
32.8333,8.6433
32.7855,8.6337
32.7449,8.6066
32.7178,8.5661
32.7083,8.5183
Z" /> 
<path style="fill:#37CBCB; fill-opacity:1.0000; 
stroke:#37CBCB; stroke-width:0.0000; stroke-opacity:1; 
stroke-linecap:round; stroke-linejoin:round;fill-rule:evenodd;"
d="M 32.7083,3.3782
32.7178,3.3304
32.7449,3.2899
32.7855,3.2628
32.8333,3.2532
33.0833,3.2532
33.1312,3.2628
33.1717,3.2899
33.1988,3.3304
33.2083,3.3782
33.2083,4.3282
33.1988,4.3761
33.1717,4.4166
33.1312,4.4437
33.0833,4.4532
32.8333,4.4532
32.7855,4.4437
32.7449,4.4166
32.7178,4.3761
32.7083,4.3282
Z" /> 
<path style="fill:#37CBCB; fill-opacity:1.0000; 
stroke:#37CBCB; stroke-width:0.0000; stroke-opacity:1; 
stroke-linecap:round; stroke-linejoin:round;fill-rule:evenodd;"
d="M 33.5083,7.5682
33.5178,7.5204
33.5449,7.4799
33.5855,7.4528
33.6333,7.4432
33.8833,7.4432
33.9312,7.4528
33.9717,7.4799
33.9988,7.5204
34.0083,7.5682
34.0083,8.5183
33.9988,8.5661
33.9717,8.6066
33.9312,8.6337
33.8833,8.6433
33.6333,8.6433
33.5855,8.6337
33.5449,8.6066
33.5178,8.5661
33.5083,8.5183
Z" /> 
<path style="fill:#37CBCB; fill-opacity:1.0000; 
stroke:#37CBCB; stroke-width:0.0000; stroke-opacity:1; 
stroke-linecap:round; stroke-linejoin:round;fill-rule:evenodd;"
d="M 33.5083,3.3782
33.5178,3.3304
33.5449,3.2899
33.5855,3.2628
33.6333,3.2532
33.8833,3.2532
33.9312,3.2628
33.9717,3.2899
33.9988,3.3304
34.0083,3.3782
34.0083,4.3282
33.9988,4.3761
33.9717,4.4166
33.9312,4.4437
33.8833,4.4532
33.6333,4.4532
33.5855,4.4437
33.5449,4.4166
33.5178,4.3761
33.5083,4.3282
Z" /> 
<path style="fill:#37CBCB; fill-opacity:1.0000; 
stroke:#37CBCB; stroke-width:0.0000; stroke-opacity:1; 
stroke-linecap:round; stroke-linejoin:round;fill-rule:evenodd;"
d="M 34.3083,7.5682
34.3178,7.5204
34.3449,7.4799
34.3855,7.4528
34.4333,7.4432
34.6833,7.4432
34.7312,7.4528
34.7717,7.4799
34.7988,7.5204
34.8083,7.5682
34.8083,8.5183
34.7988,8.5661
34.7717,8.6066
34.7312,8.6337
34.6833,8.6433
34.4333,8.6433
34.3855,8.6337
34.3449,8.6066
34.3178,8.5661
34.3083,8.5183
Z" /> 
<path style="fill:#37CBCB; fill-opacity:1.0000; 
stroke:#37CBCB; stroke-width:0.0000; stroke-opacity:1; 
stroke-linecap:round; stroke-linejoin:round;fill-rule:evenodd;"
d="M 34.3083,3.3782
34.3178,3.3304
34.3449,3.2899
34.3855,3.2628
34.4333,3.2532
34.6833,3.2532
34.7312,3.2628
34.7717,3.2899
34.7988,3.3304
34.8083,3.3782
34.8083,4.3282
34.7988,4.3761
34.7717,4.4166
34.7312,4.4437
34.6833,4.4532
34.4333,4.4532
34.3855,4.4437
34.3449,4.4166
34.3178,4.3761
34.3083,4.3282
Z" /> 
<path style="fill:#37CBCB; fill-opacity:1.0000; 
stroke:#37CBCB; stroke-width:0.0000; stroke-opacity:1; 
stroke-linecap:round; stroke-linejoin:round;fill-rule:evenodd;"
d="M 35.1083,7.5682
35.1178,7.5204
35.1449,7.4799
35.1855,7.4528
35.2333,7.4432
35.4833,7.4432
35.5312,7.4528
35.5717,7.4799
35.5988,7.5204
35.6083,7.5682
35.6083,8.5183
35.5988,8.5661
35.5717,8.6066
35.5312,8.6337
35.4833,8.6433
35.2333,8.6433
35.1855,8.6337
35.1449,8.6066
35.1178,8.5661
35.1083,8.5183
Z" /> 
<path style="fill:#37CBCB; fill-opacity:1.0000; 
stroke:#37CBCB; stroke-width:0.0000; stroke-opacity:1; 
stroke-linecap:round; stroke-linejoin:round;fill-rule:evenodd;"
d="M 35.1083,3.3782
35.1178,3.3304
35.1449,3.2899
35.1855,3.2628
35.2333,3.2532
35.4833,3.2532
35.5312,3.2628
35.5717,3.2899
35.5988,3.3304
35.6083,3.3782
35.6083,4.3282
35.5988,4.3761
35.5717,4.4166
35.5312,4.4437
35.4833,4.4532
35.2333,4.4532
35.1855,4.4437
35.1449,4.4166
35.1178,4.3761
35.1083,4.3282
Z" /> 
<path style="fill:#37CBCB; fill-opacity:1.0000; 
stroke:#37CBCB; stroke-width:0.0000; stroke-opacity:1; 
stroke-linecap:round; stroke-linejoin:round;fill-rule:evenodd;"
d="M 35.9083,7.5682
35.9178,7.5204
35.9449,7.4799
35.9855,7.4528
36.0333,7.4432
36.2833,7.4432
36.3312,7.4528
36.3717,7.4799
36.3988,7.5204
36.4083,7.5682
36.4083,8.5183
36.3988,8.5661
36.3717,8.6066
36.3312,8.6337
36.2833,8.6433
36.0333,8.6433
35.9855,8.6337
35.9449,8.6066
35.9178,8.5661
35.9083,8.5183
Z" /> 
<path style="fill:#37CBCB; fill-opacity:1.0000; 
stroke:#37CBCB; stroke-width:0.0000; stroke-opacity:1; 
stroke-linecap:round; stroke-linejoin:round;fill-rule:evenodd;"
d="M 35.9083,3.3782
35.9178,3.3304
35.9449,3.2899
35.9855,3.2628
36.0333,3.2532
36.2833,3.2532
36.3312,3.2628
36.3717,3.2899
36.3988,3.3304
36.4083,3.3782
36.4083,4.3282
36.3988,4.3761
36.3717,4.4166
36.3312,4.4437
36.2833,4.4532
36.0333,4.4532
35.9855,4.4437
35.9449,4.4166
35.9178,4.3761
35.9083,4.3282
Z" /> 
<path style="fill:#37CBCB; fill-opacity:1.0000; 
stroke:#37CBCB; stroke-width:0.0000; stroke-opacity:1; 
stroke-linecap:round; stroke-linejoin:round;fill-rule:evenodd;"
d="M 36.7083,7.5682
36.7178,7.5204
36.7449,7.4799
36.7855,7.4528
36.8333,7.4432
37.0833,7.4432
37.1312,7.4528
37.1717,7.4799
37.1988,7.5204
37.2083,7.5682
37.2083,8.5183
37.1988,8.5661
37.1717,8.6066
37.1312,8.6337
37.0833,8.6433
36.8333,8.6433
36.7855,8.6337
36.7449,8.6066
36.7178,8.5661
36.7083,8.5183
Z" /> 
<path style="fill:#37CBCB; fill-opacity:1.0000; 
stroke:#37CBCB; stroke-width:0.0000; stroke-opacity:1; 
stroke-linecap:round; stroke-linejoin:round;fill-rule:evenodd;"
d="M 36.7083,3.3782
36.7178,3.3304
36.7449,3.2899
36.7855,3.2628
36.8333,3.2532
37.0833,3.2532
37.1312,3.2628
37.1717,3.2899
37.1988,3.3304
37.2083,3.3782
37.2083,4.3282
37.1988,4.3761
37.1717,4.4166
37.1312,4.4437
37.0833,4.4532
36.8333,4.4532
36.7855,4.4437
36.7449,4.4166
36.7178,4.3761
36.7083,4.3282
Z" /> 
<path style="fill:#37CBCB; fill-opacity:1.0000; 
stroke:#37CBCB; stroke-width:0.0000; stroke-opacity:1; 
stroke-linecap:round; stroke-linejoin:round;fill-rule:evenodd;"
d="M 37.5083,7.5682
37.5178,7.5204
37.5449,7.4799
37.5855,7.4528
37.6333,7.4432
37.8833,7.4432
37.9312,7.4528
37.9717,7.4799
37.9988,7.5204
38.0083,7.5682
38.0083,8.5183
37.9988,8.5661
37.9717,8.6066
37.9312,8.6337
37.8833,8.6433
37.6333,8.6433
37.5855,8.6337
37.5449,8.6066
37.5178,8.5661
37.5083,8.5183
Z" /> 
<path style="fill:#37CBCB; fill-opacity:1.0000; 
stroke:#37CBCB; stroke-width:0.0000; stroke-opacity:1; 
stroke-linecap:round; stroke-linejoin:round;fill-rule:evenodd;"
d="M 37.5083,3.3782
37.5178,3.3304
37.5449,3.2899
37.5855,3.2628
37.6333,3.2532
37.8833,3.2532
37.9312,3.2628
37.9717,3.2899
37.9988,3.3304
38.0083,3.3782
38.0083,4.3282
37.9988,4.3761
37.9717,4.4166
37.9312,4.4437
37.8833,4.4532
37.6333,4.4532
37.5855,4.4437
37.5449,4.4166
37.5178,4.3761
37.5083,4.3282
Z" /> 
<path style="fill:#37CBCB; fill-opacity:1.0000; 
stroke:#37CBCB; stroke-width:0.0000; stroke-opacity:1; 
stroke-linecap:round; stroke-linejoin:round;fill-rule:evenodd;"
d="M 38.3083,7.5682
38.3178,7.5204
38.3449,7.4799
38.3855,7.4528
38.4333,7.4432
38.6833,7.4432
38.7312,7.4528
38.7717,7.4799
38.7988,7.5204
38.8083,7.5682
38.8083,8.5183
38.7988,8.5661
38.7717,8.6066
38.7312,8.6337
38.6833,8.6433
38.4333,8.6433
38.3855,8.6337
38.3449,8.6066
38.3178,8.5661
38.3083,8.5183
Z" /> 
<path style="fill:#37CBCB; fill-opacity:1.0000; 
stroke:#37CBCB; stroke-width:0.0000; stroke-opacity:1; 
stroke-linecap:round; stroke-linejoin:round;fill-rule:evenodd;"
d="M 38.3083,3.3782
38.3178,3.3304
38.3449,3.2899
38.3855,3.2628
38.4333,3.2532
38.6833,3.2532
38.7312,3.2628
38.7717,3.2899
38.7988,3.3304
38.8083,3.3782
38.8083,4.3282
38.7988,4.3761
38.7717,4.4166
38.7312,4.4437
38.6833,4.4532
38.4333,4.4532
38.3855,4.4437
38.3449,4.4166
38.3178,4.3761
38.3083,4.3282
Z" /> 
<path style="fill:#37CBCB; fill-opacity:1.0000; 
stroke:#37CBCB; stroke-width:0.0000; stroke-opacity:1; 
stroke-linecap:round; stroke-linejoin:round;fill-rule:evenodd;"
d="M 39.1083,7.5682
39.1178,7.5204
39.1449,7.4799
39.1855,7.4528
39.2333,7.4432
39.4833,7.4432
39.5312,7.4528
39.5717,7.4799
39.5988,7.5204
39.6083,7.5682
39.6083,8.5183
39.5988,8.5661
39.5717,8.6066
39.5312,8.6337
39.4833,8.6433
39.2333,8.6433
39.1855,8.6337
39.1449,8.6066
39.1178,8.5661
39.1083,8.5183
Z" /> 
<path style="fill:#37CBCB; fill-opacity:1.0000; 
stroke:#37CBCB; stroke-width:0.0000; stroke-opacity:1; 
stroke-linecap:round; stroke-linejoin:round;fill-rule:evenodd;"
d="M 39.1083,3.3782
39.1178,3.3304
39.1449,3.2899
39.1855,3.2628
39.2333,3.2532
39.4833,3.2532
39.5312,3.2628
39.5717,3.2899
39.5988,3.3304
39.6083,3.3782
39.6083,4.3282
39.5988,4.3761
39.5717,4.4166
39.5312,4.4437
39.4833,4.4532
39.2333,4.4532
39.1855,4.4437
39.1449,4.4166
39.1178,4.3761
39.1083,4.3282
Z" /> 
<path style="fill:#37CBCB; fill-opacity:1.0000; 
stroke:#37CBCB; stroke-width:0.0000; stroke-opacity:1; 
stroke-linecap:round; stroke-linejoin:round;fill-rule:evenodd;"
d="M 39.9083,7.5682
39.9178,7.5204
39.9449,7.4799
39.9855,7.4528
40.0333,7.4432
40.2833,7.4432
40.3312,7.4528
40.3717,7.4799
40.3988,7.5204
40.4083,7.5682
40.4083,8.5183
40.3988,8.5661
40.3717,8.6066
40.3312,8.6337
40.2833,8.6433
40.0333,8.6433
39.9855,8.6337
39.9449,8.6066
39.9178,8.5661
39.9083,8.5183
Z" /> 
<path style="fill:#37CBCB; fill-opacity:1.0000; 
stroke:#37CBCB; stroke-width:0.0000; stroke-opacity:1; 
stroke-linecap:round; stroke-linejoin:round;fill-rule:evenodd;"
d="M 39.9083,3.3782
39.9178,3.3304
39.9449,3.2899
39.9855,3.2628
40.0333,3.2532
40.2833,3.2532
40.3312,3.2628
40.3717,3.2899
40.3988,3.3304
40.4083,3.3782
40.4083,4.3282
40.3988,4.3761
40.3717,4.4166
40.3312,4.4437
40.2833,4.4532
40.0333,4.4532
39.9855,4.4437
39.9449,4.4166
39.9178,4.3761
39.9083,4.3282
Z" /> 
</g>
<g >
</g>
<g >
</g>
<g >
</g>
</g>
<g style="fill:#FFFFFF; fill-opacity:1.0000; 
stroke:#FFFFFF; stroke-width:0.0000; stroke-opacity:1; 
stroke-linecap:round; stroke-linejoin:round;">
<g >
</g>
<g style="fill:#4A5F65; fill-opacity:0.9000; 
stroke:#4A5F65; stroke-width:0.0000; stroke-opacity:1; 
stroke-linecap:round; stroke-linejoin:round;">
<path style="fill:#4A5F65; fill-opacity:0.9000; 
stroke:#4A5F65; stroke-width:0.0000; stroke-opacity:1; 
stroke-linecap:round; stroke-linejoin:round;fill-rule:evenodd;"
d="M 5.5083,7.5682
5.5178,7.5204
5.5449,7.4799
5.5855,7.4528
5.6333,7.4432
5.8833,7.4432
5.9312,7.4528
5.9717,7.4799
5.9988,7.5204
6.0083,7.5682
6.0083,8.5183
5.9988,8.5661
5.9717,8.6066
5.9312,8.6337
5.8833,8.6433
5.6333,8.6433
5.5855,8.6337
5.5449,8.6066
5.5178,8.5661
5.5083,8.5183
Z" /> 
<path style="fill:#4A5F65; fill-opacity:0.9000; 
stroke:#4A5F65; stroke-width:0.0000; stroke-opacity:1; 
stroke-linecap:round; stroke-linejoin:round;fill-rule:evenodd;"
d="M 5.5083,3.3782
5.5178,3.3304
5.5449,3.2899
5.5855,3.2628
5.6333,3.2532
5.8833,3.2532
5.9312,3.2628
5.9717,3.2899
5.9988,3.3304
6.0083,3.3782
6.0083,4.3282
5.9988,4.3761
5.9717,4.4166
5.9312,4.4437
5.8833,4.4532
5.6333,4.4532
5.5855,4.4437
5.5449,4.4166
5.5178,4.3761
5.5083,4.3282
Z" /> 
<path style="fill:#4A5F65; fill-opacity:0.9000; 
stroke:#4A5F65; stroke-width:0.0000; stroke-opacity:1; 
stroke-linecap:round; stroke-linejoin:round;fill-rule:evenodd;"
d="M 6.3083,7.5682
6.3178,7.5204
6.3449,7.4799
6.3855,7.4528
6.4333,7.4432
6.6833,7.4432
6.7312,7.4528
6.7717,7.4799
6.7988,7.5204
6.8083,7.5682
6.8083,8.5183
6.7988,8.5661
6.7717,8.6066
6.7312,8.6337
6.6833,8.6433
6.4333,8.6433
6.3855,8.6337
6.3449,8.6066
6.3178,8.5661
6.3083,8.5183
Z" /> 
<path style="fill:#4A5F65; fill-opacity:0.9000; 
stroke:#4A5F65; stroke-width:0.0000; stroke-opacity:1; 
stroke-linecap:round; stroke-linejoin:round;fill-rule:evenodd;"
d="M 6.3083,3.3782
6.3178,3.3304
6.3449,3.2899
6.3855,3.2628
6.4333,3.2532
6.6833,3.2532
6.7312,3.2628
6.7717,3.2899
6.7988,3.3304
6.8083,3.3782
6.8083,4.3282
6.7988,4.3761
6.7717,4.4166
6.7312,4.4437
6.6833,4.4532
6.4333,4.4532
6.3855,4.4437
6.3449,4.4166
6.3178,4.3761
6.3083,4.3282
Z" /> 
<path style="fill:#4A5F65; fill-opacity:0.9000; 
stroke:#4A5F65; stroke-width:0.0000; stroke-opacity:1; 
stroke-linecap:round; stroke-linejoin:round;fill-rule:evenodd;"
d="M 7.1083,7.5682
7.1178,7.5204
7.1449,7.4799
7.1855,7.4528
7.2333,7.4432
7.4833,7.4432
7.5312,7.4528
7.5717,7.4799
7.5988,7.5204
7.6083,7.5682
7.6083,8.5183
7.5988,8.5661
7.5717,8.6066
7.5312,8.6337
7.4833,8.6433
7.2333,8.6433
7.1855,8.6337
7.1449,8.6066
7.1178,8.5661
7.1083,8.5183
Z" /> 
<path style="fill:#4A5F65; fill-opacity:0.9000; 
stroke:#4A5F65; stroke-width:0.0000; stroke-opacity:1; 
stroke-linecap:round; stroke-linejoin:round;fill-rule:evenodd;"
d="M 7.1083,3.3782
7.1178,3.3304
7.1449,3.2899
7.1855,3.2628
7.2333,3.2532
7.4833,3.2532
7.5312,3.2628
7.5717,3.2899
7.5988,3.3304
7.6083,3.3782
7.6083,4.3282
7.5988,4.3761
7.5717,4.4166
7.5312,4.4437
7.4833,4.4532
7.2333,4.4532
7.1855,4.4437
7.1449,4.4166
7.1178,4.3761
7.1083,4.3282
Z" /> 
<path style="fill:#4A5F65; fill-opacity:0.9000; 
stroke:#4A5F65; stroke-width:0.0000; stroke-opacity:1; 
stroke-linecap:round; stroke-linejoin:round;fill-rule:evenodd;"
d="M 7.9083,7.5682
7.9178,7.5204
7.9449,7.4799
7.9855,7.4528
8.0333,7.4432
8.2833,7.4432
8.3312,7.4528
8.3717,7.4799
8.3988,7.5204
8.4083,7.5682
8.4083,8.5183
8.3988,8.5661
8.3717,8.6066
8.3312,8.6337
8.2833,8.6433
8.0333,8.6433
7.9855,8.6337
7.9449,8.6066
7.9178,8.5661
7.9083,8.5183
Z" /> 
<path style="fill:#4A5F65; fill-opacity:0.9000; 
stroke:#4A5F65; stroke-width:0.0000; stroke-opacity:1; 
stroke-linecap:round; stroke-linejoin:round;fill-rule:evenodd;"
d="M 7.9083,3.3782
7.9178,3.3304
7.9449,3.2899
7.9855,3.2628
8.0333,3.2532
8.2833,3.2532
8.3312,3.2628
8.3717,3.2899
8.3988,3.3304
8.4083,3.3782
8.4083,4.3282
8.3988,4.3761
8.3717,4.4166
8.3312,4.4437
8.2833,4.4532
8.0333,4.4532
7.9855,4.4437
7.9449,4.4166
7.9178,4.3761
7.9083,4.3282
Z" /> 
<path style="fill:#4A5F65; fill-opacity:0.9000; 
stroke:#4A5F65; stroke-width:0.0000; stroke-opacity:1; 
stroke-linecap:round; stroke-linejoin:round;fill-rule:evenodd;"
d="M 8.7083,7.5682
8.7178,7.5204
8.7449,7.4799
8.7855,7.4528
8.8333,7.4432
9.0833,7.4432
9.1312,7.4528
9.1717,7.4799
9.1988,7.5204
9.2083,7.5682
9.2083,8.5183
9.1988,8.5661
9.1717,8.6066
9.1312,8.6337
9.0833,8.6433
8.8333,8.6433
8.7855,8.6337
8.7449,8.6066
8.7178,8.5661
8.7083,8.5183
Z" /> 
<path style="fill:#4A5F65; fill-opacity:0.9000; 
stroke:#4A5F65; stroke-width:0.0000; stroke-opacity:1; 
stroke-linecap:round; stroke-linejoin:round;fill-rule:evenodd;"
d="M 8.7083,3.3782
8.7178,3.3304
8.7449,3.2899
8.7855,3.2628
8.8333,3.2532
9.0833,3.2532
9.1312,3.2628
9.1717,3.2899
9.1988,3.3304
9.2083,3.3782
9.2083,4.3282
9.1988,4.3761
9.1717,4.4166
9.1312,4.4437
9.0833,4.4532
8.8333,4.4532
8.7855,4.4437
8.7449,4.4166
8.7178,4.3761
8.7083,4.3282
Z" /> 
<path style="fill:#4A5F65; fill-opacity:0.9000; 
stroke:#4A5F65; stroke-width:0.0000; stroke-opacity:1; 
stroke-linecap:round; stroke-linejoin:round;fill-rule:evenodd;"
d="M 9.5083,7.5682
9.5178,7.5204
9.5449,7.4799
9.5855,7.4528
9.6333,7.4432
9.8833,7.4432
9.9312,7.4528
9.9717,7.4799
9.9988,7.5204
10.0083,7.5682
10.0083,8.5183
9.9988,8.5661
9.9717,8.6066
9.9312,8.6337
9.8833,8.6433
9.6333,8.6433
9.5855,8.6337
9.5449,8.6066
9.5178,8.5661
9.5083,8.5183
Z" /> 
<path style="fill:#4A5F65; fill-opacity:0.9000; 
stroke:#4A5F65; stroke-width:0.0000; stroke-opacity:1; 
stroke-linecap:round; stroke-linejoin:round;fill-rule:evenodd;"
d="M 9.5083,3.3782
9.5178,3.3304
9.5449,3.2899
9.5855,3.2628
9.6333,3.2532
9.8833,3.2532
9.9312,3.2628
9.9717,3.2899
9.9988,3.3304
10.0083,3.3782
10.0083,4.3282
9.9988,4.3761
9.9717,4.4166
9.9312,4.4437
9.8833,4.4532
9.6333,4.4532
9.5855,4.4437
9.5449,4.4166
9.5178,4.3761
9.5083,4.3282
Z" /> 
<path style="fill:#4A5F65; fill-opacity:0.9000; 
stroke:#4A5F65; stroke-width:0.0000; stroke-opacity:1; 
stroke-linecap:round; stroke-linejoin:round;fill-rule:evenodd;"
d="M 10.3083,7.5682
10.3178,7.5204
10.3449,7.4799
10.3855,7.4528
10.4333,7.4432
10.6833,7.4432
10.7312,7.4528
10.7717,7.4799
10.7988,7.5204
10.8083,7.5682
10.8083,8.5183
10.7988,8.5661
10.7717,8.6066
10.7312,8.6337
10.6833,8.6433
10.4333,8.6433
10.3855,8.6337
10.3449,8.6066
10.3178,8.5661
10.3083,8.5183
Z" /> 
<path style="fill:#4A5F65; fill-opacity:0.9000; 
stroke:#4A5F65; stroke-width:0.0000; stroke-opacity:1; 
stroke-linecap:round; stroke-linejoin:round;fill-rule:evenodd;"
d="M 10.3083,3.3782
10.3178,3.3304
10.3449,3.2899
10.3855,3.2628
10.4333,3.2532
10.6833,3.2532
10.7312,3.2628
10.7717,3.2899
10.7988,3.3304
10.8083,3.3782
10.8083,4.3282
10.7988,4.3761
10.7717,4.4166
10.7312,4.4437
10.6833,4.4532
10.4333,4.4532
10.3855,4.4437
10.3449,4.4166
10.3178,4.3761
10.3083,4.3282
Z" /> 
<path style="fill:#4A5F65; fill-opacity:0.9000; 
stroke:#4A5F65; stroke-width:0.0000; stroke-opacity:1; 
stroke-linecap:round; stroke-linejoin:round;fill-rule:evenodd;"
d="M 11.1083,7.5682
11.1178,7.5204
11.1449,7.4799
11.1855,7.4528
11.2333,7.4432
11.4833,7.4432
11.5312,7.4528
11.5717,7.4799
11.5988,7.5204
11.6083,7.5682
11.6083,8.5183
11.5988,8.5661
11.5717,8.6066
11.5312,8.6337
11.4833,8.6433
11.2333,8.6433
11.1855,8.6337
11.1449,8.6066
11.1178,8.5661
11.1083,8.5183
Z" /> 
<path style="fill:#4A5F65; fill-opacity:0.9000; 
stroke:#4A5F65; stroke-width:0.0000; stroke-opacity:1; 
stroke-linecap:round; stroke-linejoin:round;fill-rule:evenodd;"
d="M 11.1083,3.3782
11.1178,3.3304
11.1449,3.2899
11.1855,3.2628
11.2333,3.2532
11.4833,3.2532
11.5312,3.2628
11.5717,3.2899
11.5988,3.3304
11.6083,3.3782
11.6083,4.3282
11.5988,4.3761
11.5717,4.4166
11.5312,4.4437
11.4833,4.4532
11.2333,4.4532
11.1855,4.4437
11.1449,4.4166
11.1178,4.3761
11.1083,4.3282
Z" /> 
<path style="fill:#4A5F65; fill-opacity:0.9000; 
stroke:#4A5F65; stroke-width:0.0000; stroke-opacity:1; 
stroke-linecap:round; stroke-linejoin:round;fill-rule:evenodd;"
d="M 11.9083,7.5682
11.9178,7.5204
11.9449,7.4799
11.9855,7.4528
12.0333,7.4432
12.2833,7.4432
12.3312,7.4528
12.3717,7.4799
12.3988,7.5204
12.4083,7.5682
12.4083,8.5183
12.3988,8.5661
12.3717,8.6066
12.3312,8.6337
12.2833,8.6433
12.0333,8.6433
11.9855,8.6337
11.9449,8.6066
11.9178,8.5661
11.9083,8.5183
Z" /> 
<path style="fill:#4A5F65; fill-opacity:0.9000; 
stroke:#4A5F65; stroke-width:0.0000; stroke-opacity:1; 
stroke-linecap:round; stroke-linejoin:round;fill-rule:evenodd;"
d="M 11.9083,3.3782
11.9178,3.3304
11.9449,3.2899
11.9855,3.2628
12.0333,3.2532
12.2833,3.2532
12.3312,3.2628
12.3717,3.2899
12.3988,3.3304
12.4083,3.3782
12.4083,4.3282
12.3988,4.3761
12.3717,4.4166
12.3312,4.4437
12.2833,4.4532
12.0333,4.4532
11.9855,4.4437
11.9449,4.4166
11.9178,4.3761
11.9083,4.3282
Z" /> 
<path style="fill:#4A5F65; fill-opacity:0.9000; 
stroke:#4A5F65; stroke-width:0.0000; stroke-opacity:1; 
stroke-linecap:round; stroke-linejoin:round;fill-rule:evenodd;"
d="M 12.7083,7.5682
12.7178,7.5204
12.7449,7.4799
12.7855,7.4528
12.8333,7.4432
13.0833,7.4432
13.1312,7.4528
13.1717,7.4799
13.1988,7.5204
13.2083,7.5682
13.2083,8.5183
13.1988,8.5661
13.1717,8.6066
13.1312,8.6337
13.0833,8.6433
12.8333,8.6433
12.7855,8.6337
12.7449,8.6066
12.7178,8.5661
12.7083,8.5183
Z" /> 
<path style="fill:#4A5F65; fill-opacity:0.9000; 
stroke:#4A5F65; stroke-width:0.0000; stroke-opacity:1; 
stroke-linecap:round; stroke-linejoin:round;fill-rule:evenodd;"
d="M 12.7083,3.3782
12.7178,3.3304
12.7449,3.2899
12.7855,3.2628
12.8333,3.2532
13.0833,3.2532
13.1312,3.2628
13.1717,3.2899
13.1988,3.3304
13.2083,3.3782
13.2083,4.3282
13.1988,4.3761
13.1717,4.4166
13.1312,4.4437
13.0833,4.4532
12.8333,4.4532
12.7855,4.4437
12.7449,4.4166
12.7178,4.3761
12.7083,4.3282
Z" /> 
<path style="fill:#4A5F65; fill-opacity:0.9000; 
stroke:#4A5F65; stroke-width:0.0000; stroke-opacity:1; 
stroke-linecap:round; stroke-linejoin:round;fill-rule:evenodd;"
d="M 13.5083,7.5682
13.5178,7.5204
13.5449,7.4799
13.5855,7.4528
13.6333,7.4432
13.8833,7.4432
13.9312,7.4528
13.9717,7.4799
13.9988,7.5204
14.0083,7.5682
14.0083,8.5183
13.9988,8.5661
13.9717,8.6066
13.9312,8.6337
13.8833,8.6433
13.6333,8.6433
13.5855,8.6337
13.5449,8.6066
13.5178,8.5661
13.5083,8.5183
Z" /> 
<path style="fill:#4A5F65; fill-opacity:0.9000; 
stroke:#4A5F65; stroke-width:0.0000; stroke-opacity:1; 
stroke-linecap:round; stroke-linejoin:round;fill-rule:evenodd;"
d="M 13.5083,3.3782
13.5178,3.3304
13.5449,3.2899
13.5855,3.2628
13.6333,3.2532
13.8833,3.2532
13.9312,3.2628
13.9717,3.2899
13.9988,3.3304
14.0083,3.3782
14.0083,4.3282
13.9988,4.3761
13.9717,4.4166
13.9312,4.4437
13.8833,4.4532
13.6333,4.4532
13.5855,4.4437
13.5449,4.4166
13.5178,4.3761
13.5083,4.3282
Z" /> 
<path style="fill:#4A5F65; fill-opacity:0.9000; 
stroke:#4A5F65; stroke-width:0.0000; stroke-opacity:1; 
stroke-linecap:round; stroke-linejoin:round;fill-rule:evenodd;"
d="M 14.3083,7.5682
14.3178,7.5204
14.3449,7.4799
14.3855,7.4528
14.4333,7.4432
14.6833,7.4432
14.7312,7.4528
14.7717,7.4799
14.7988,7.5204
14.8083,7.5682
14.8083,8.5183
14.7988,8.5661
14.7717,8.6066
14.7312,8.6337
14.6833,8.6433
14.4333,8.6433
14.3855,8.6337
14.3449,8.6066
14.3178,8.5661
14.3083,8.5183
Z" /> 
<path style="fill:#4A5F65; fill-opacity:0.9000; 
stroke:#4A5F65; stroke-width:0.0000; stroke-opacity:1; 
stroke-linecap:round; stroke-linejoin:round;fill-rule:evenodd;"
d="M 14.3083,3.3782
14.3178,3.3304
14.3449,3.2899
14.3855,3.2628
14.4333,3.2532
14.6833,3.2532
14.7312,3.2628
14.7717,3.2899
14.7988,3.3304
14.8083,3.3782
14.8083,4.3282
14.7988,4.3761
14.7717,4.4166
14.7312,4.4437
14.6833,4.4532
14.4333,4.4532
14.3855,4.4437
14.3449,4.4166
14.3178,4.3761
14.3083,4.3282
Z" /> 
<path style="fill:#4A5F65; fill-opacity:0.9000; 
stroke:#4A5F65; stroke-width:0.0000; stroke-opacity:1; 
stroke-linecap:round; stroke-linejoin:round;fill-rule:evenodd;"
d="M 15.1083,7.5682
15.1178,7.5204
15.1449,7.4799
15.1855,7.4528
15.2333,7.4432
15.4833,7.4432
15.5312,7.4528
15.5717,7.4799
15.5988,7.5204
15.6083,7.5682
15.6083,8.5183
15.5988,8.5661
15.5717,8.6066
15.5312,8.6337
15.4833,8.6433
15.2333,8.6433
15.1855,8.6337
15.1449,8.6066
15.1178,8.5661
15.1083,8.5183
Z" /> 
<path style="fill:#4A5F65; fill-opacity:0.9000; 
stroke:#4A5F65; stroke-width:0.0000; stroke-opacity:1; 
stroke-linecap:round; stroke-linejoin:round;fill-rule:evenodd;"
d="M 15.1083,3.3782
15.1178,3.3304
15.1449,3.2899
15.1855,3.2628
15.2333,3.2532
15.4833,3.2532
15.5312,3.2628
15.5717,3.2899
15.5988,3.3304
15.6083,3.3782
15.6083,4.3282
15.5988,4.3761
15.5717,4.4166
15.5312,4.4437
15.4833,4.4532
15.2333,4.4532
15.1855,4.4437
15.1449,4.4166
15.1178,4.3761
15.1083,4.3282
Z" /> 
<path style="fill:#4A5F65; fill-opacity:0.9000; 
stroke:#4A5F65; stroke-width:0.0000; stroke-opacity:1; 
stroke-linecap:round; stroke-linejoin:round;fill-rule:evenodd;"
d="M 15.9083,7.5682
15.9178,7.5204
15.9449,7.4799
15.9855,7.4528
16.0333,7.4432
16.2833,7.4432
16.3312,7.4528
16.3717,7.4799
16.3988,7.5204
16.4083,7.5682
16.4083,8.5183
16.3988,8.5661
16.3717,8.6066
16.3312,8.6337
16.2833,8.6433
16.0333,8.6433
15.9855,8.6337
15.9449,8.6066
15.9178,8.5661
15.9083,8.5183
Z" /> 
<path style="fill:#4A5F65; fill-opacity:0.9000; 
stroke:#4A5F65; stroke-width:0.0000; stroke-opacity:1; 
stroke-linecap:round; stroke-linejoin:round;fill-rule:evenodd;"
d="M 15.9083,3.3782
15.9178,3.3304
15.9449,3.2899
15.9855,3.2628
16.0333,3.2532
16.2833,3.2532
16.3312,3.2628
16.3717,3.2899
16.3988,3.3304
16.4083,3.3782
16.4083,4.3282
16.3988,4.3761
16.3717,4.4166
16.3312,4.4437
16.2833,4.4532
16.0333,4.4532
15.9855,4.4437
15.9449,4.4166
15.9178,4.3761
15.9083,4.3282
Z" /> 
<path style="fill:#4A5F65; fill-opacity:0.9000; 
stroke:#4A5F65; stroke-width:0.0000; stroke-opacity:1; 
stroke-linecap:round; stroke-linejoin:round;fill-rule:evenodd;"
d="M 16.7083,7.5682
16.7178,7.5204
16.7449,7.4799
16.7855,7.4528
16.8333,7.4432
17.0833,7.4432
17.1312,7.4528
17.1717,7.4799
17.1988,7.5204
17.2083,7.5682
17.2083,8.5183
17.1988,8.5661
17.1717,8.6066
17.1312,8.6337
17.0833,8.6433
16.8333,8.6433
16.7855,8.6337
16.7449,8.6066
16.7178,8.5661
16.7083,8.5183
Z" /> 
<path style="fill:#4A5F65; fill-opacity:0.9000; 
stroke:#4A5F65; stroke-width:0.0000; stroke-opacity:1; 
stroke-linecap:round; stroke-linejoin:round;fill-rule:evenodd;"
d="M 16.7083,3.3782
16.7178,3.3304
16.7449,3.2899
16.7855,3.2628
16.8333,3.2532
17.0833,3.2532
17.1312,3.2628
17.1717,3.2899
17.1988,3.3304
17.2083,3.3782
17.2083,4.3282
17.1988,4.3761
17.1717,4.4166
17.1312,4.4437
17.0833,4.4532
16.8333,4.4532
16.7855,4.4437
16.7449,4.4166
16.7178,4.3761
16.7083,4.3282
Z" /> 
<path style="fill:#4A5F65; fill-opacity:0.9000; 
stroke:#4A5F65; stroke-width:0.0000; stroke-opacity:1; 
stroke-linecap:round; stroke-linejoin:round;fill-rule:evenodd;"
d="M 17.5083,7.5682
17.5178,7.5204
17.5449,7.4799
17.5855,7.4528
17.6333,7.4432
17.8833,7.4432
17.9312,7.4528
17.9717,7.4799
17.9988,7.5204
18.0083,7.5682
18.0083,8.5183
17.9988,8.5661
17.9717,8.6066
17.9312,8.6337
17.8833,8.6433
17.6333,8.6433
17.5855,8.6337
17.5449,8.6066
17.5178,8.5661
17.5083,8.5183
Z" /> 
<path style="fill:#4A5F65; fill-opacity:0.9000; 
stroke:#4A5F65; stroke-width:0.0000; stroke-opacity:1; 
stroke-linecap:round; stroke-linejoin:round;fill-rule:evenodd;"
d="M 17.5083,3.3782
17.5178,3.3304
17.5449,3.2899
17.5855,3.2628
17.6333,3.2532
17.8833,3.2532
17.9312,3.2628
17.9717,3.2899
17.9988,3.3304
18.0083,3.3782
18.0083,4.3282
17.9988,4.3761
17.9717,4.4166
17.9312,4.4437
17.8833,4.4532
17.6333,4.4532
17.5855,4.4437
17.5449,4.4166
17.5178,4.3761
17.5083,4.3282
Z" /> 
<path style="fill:#4A5F65; fill-opacity:0.9000; 
stroke:#4A5F65; stroke-width:0.0000; stroke-opacity:1; 
stroke-linecap:round; stroke-linejoin:round;fill-rule:evenodd;"
d="M 18.3083,7.5682
18.3178,7.5204
18.3449,7.4799
18.3855,7.4528
18.4333,7.4432
18.6833,7.4432
18.7312,7.4528
18.7717,7.4799
18.7988,7.5204
18.8083,7.5682
18.8083,8.5183
18.7988,8.5661
18.7717,8.6066
18.7312,8.6337
18.6833,8.6433
18.4333,8.6433
18.3855,8.6337
18.3449,8.6066
18.3178,8.5661
18.3083,8.5183
Z" /> 
<path style="fill:#4A5F65; fill-opacity:0.9000; 
stroke:#4A5F65; stroke-width:0.0000; stroke-opacity:1; 
stroke-linecap:round; stroke-linejoin:round;fill-rule:evenodd;"
d="M 18.3083,3.3782
18.3178,3.3304
18.3449,3.2899
18.3855,3.2628
18.4333,3.2532
18.6833,3.2532
18.7312,3.2628
18.7717,3.2899
18.7988,3.3304
18.8083,3.3782
18.8083,4.3282
18.7988,4.3761
18.7717,4.4166
18.7312,4.4437
18.6833,4.4532
18.4333,4.4532
18.3855,4.4437
18.3449,4.4166
18.3178,4.3761
18.3083,4.3282
Z" /> 
<path style="fill:#4A5F65; fill-opacity:0.9000; 
stroke:#4A5F65; stroke-width:0.0000; stroke-opacity:1; 
stroke-linecap:round; stroke-linejoin:round;fill-rule:evenodd;"
d="M 19.1083,7.5682
19.1178,7.5204
19.1449,7.4799
19.1855,7.4528
19.2333,7.4432
19.4833,7.4432
19.5312,7.4528
19.5717,7.4799
19.5988,7.5204
19.6083,7.5682
19.6083,8.5183
19.5988,8.5661
19.5717,8.6066
19.5312,8.6337
19.4833,8.6433
19.2333,8.6433
19.1855,8.6337
19.1449,8.6066
19.1178,8.5661
19.1083,8.5183
Z" /> 
<path style="fill:#4A5F65; fill-opacity:0.9000; 
stroke:#4A5F65; stroke-width:0.0000; stroke-opacity:1; 
stroke-linecap:round; stroke-linejoin:round;fill-rule:evenodd;"
d="M 19.1083,3.3782
19.1178,3.3304
19.1449,3.2899
19.1855,3.2628
19.2333,3.2532
19.4833,3.2532
19.5312,3.2628
19.5717,3.2899
19.5988,3.3304
19.6083,3.3782
19.6083,4.3282
19.5988,4.3761
19.5717,4.4166
19.5312,4.4437
19.4833,4.4532
19.2333,4.4532
19.1855,4.4437
19.1449,4.4166
19.1178,4.3761
19.1083,4.3282
Z" /> 
<path style="fill:#4A5F65; fill-opacity:0.9000; 
stroke:#4A5F65; stroke-width:0.0000; stroke-opacity:1; 
stroke-linecap:round; stroke-linejoin:round;fill-rule:evenodd;"
d="M 19.9083,7.5682
19.9178,7.5204
19.9449,7.4799
19.9855,7.4528
20.0333,7.4432
20.2833,7.4432
20.3312,7.4528
20.3717,7.4799
20.3988,7.5204
20.4083,7.5682
20.4083,8.5183
20.3988,8.5661
20.3717,8.6066
20.3312,8.6337
20.2833,8.6433
20.0333,8.6433
19.9855,8.6337
19.9449,8.6066
19.9178,8.5661
19.9083,8.5183
Z" /> 
<path style="fill:#4A5F65; fill-opacity:0.9000; 
stroke:#4A5F65; stroke-width:0.0000; stroke-opacity:1; 
stroke-linecap:round; stroke-linejoin:round;fill-rule:evenodd;"
d="M 19.9083,3.3782
19.9178,3.3304
19.9449,3.2899
19.9855,3.2628
20.0333,3.2532
20.2833,3.2532
20.3312,3.2628
20.3717,3.2899
20.3988,3.3304
20.4083,3.3782
20.4083,4.3282
20.3988,4.3761
20.3717,4.4166
20.3312,4.4437
20.2833,4.4532
20.0333,4.4532
19.9855,4.4437
19.9449,4.4166
19.9178,4.3761
19.9083,4.3282
Z" /> 
<path style="fill:#4A5F65; fill-opacity:0.9000; 
stroke:#4A5F65; stroke-width:0.0000; stroke-opacity:1; 
stroke-linecap:round; stroke-linejoin:round;fill-rule:evenodd;"
d="M 20.7083,7.5682
20.7178,7.5204
20.7449,7.4799
20.7855,7.4528
20.8333,7.4432
21.0833,7.4432
21.1312,7.4528
21.1717,7.4799
21.1988,7.5204
21.2083,7.5682
21.2083,8.5183
21.1988,8.5661
21.1717,8.6066
21.1312,8.6337
21.0833,8.6433
20.8333,8.6433
20.7855,8.6337
20.7449,8.6066
20.7178,8.5661
20.7083,8.5183
Z" /> 
<path style="fill:#4A5F65; fill-opacity:0.9000; 
stroke:#4A5F65; stroke-width:0.0000; stroke-opacity:1; 
stroke-linecap:round; stroke-linejoin:round;fill-rule:evenodd;"
d="M 20.7083,3.3782
20.7178,3.3304
20.7449,3.2899
20.7855,3.2628
20.8333,3.2532
21.0833,3.2532
21.1312,3.2628
21.1717,3.2899
21.1988,3.3304
21.2083,3.3782
21.2083,4.3282
21.1988,4.3761
21.1717,4.4166
21.1312,4.4437
21.0833,4.4532
20.8333,4.4532
20.7855,4.4437
20.7449,4.4166
20.7178,4.3761
20.7083,4.3282
Z" /> 
<path style="fill:#4A5F65; fill-opacity:0.9000; 
stroke:#4A5F65; stroke-width:0.0000; stroke-opacity:1; 
stroke-linecap:round; stroke-linejoin:round;fill-rule:evenodd;"
d="M 21.5083,7.5682
21.5178,7.5204
21.5449,7.4799
21.5855,7.4528
21.6333,7.4432
21.8833,7.4432
21.9312,7.4528
21.9717,7.4799
21.9988,7.5204
22.0083,7.5682
22.0083,8.5183
21.9988,8.5661
21.9717,8.6066
21.9312,8.6337
21.8833,8.6433
21.6333,8.6433
21.5855,8.6337
21.5449,8.6066
21.5178,8.5661
21.5083,8.5183
Z" /> 
<path style="fill:#4A5F65; fill-opacity:0.9000; 
stroke:#4A5F65; stroke-width:0.0000; stroke-opacity:1; 
stroke-linecap:round; stroke-linejoin:round;fill-rule:evenodd;"
d="M 21.5083,3.3782
21.5178,3.3304
21.5449,3.2899
21.5855,3.2628
21.6333,3.2532
21.8833,3.2532
21.9312,3.2628
21.9717,3.2899
21.9988,3.3304
22.0083,3.3782
22.0083,4.3282
21.9988,4.3761
21.9717,4.4166
21.9312,4.4437
21.8833,4.4532
21.6333,4.4532
21.5855,4.4437
21.5449,4.4166
21.5178,4.3761
21.5083,4.3282
Z" /> 
<path style="fill:#4A5F65; fill-opacity:0.9000; 
stroke:#4A5F65; stroke-width:0.0000; stroke-opacity:1; 
stroke-linecap:round; stroke-linejoin:round;fill-rule:evenodd;"
d="M 22.3083,7.5682
22.3178,7.5204
22.3449,7.4799
22.3855,7.4528
22.4333,7.4432
22.6833,7.4432
22.7312,7.4528
22.7717,7.4799
22.7988,7.5204
22.8083,7.5682
22.8083,8.5183
22.7988,8.5661
22.7717,8.6066
22.7312,8.6337
22.6833,8.6433
22.4333,8.6433
22.3855,8.6337
22.3449,8.6066
22.3178,8.5661
22.3083,8.5183
Z" /> 
<path style="fill:#4A5F65; fill-opacity:0.9000; 
stroke:#4A5F65; stroke-width:0.0000; stroke-opacity:1; 
stroke-linecap:round; stroke-linejoin:round;fill-rule:evenodd;"
d="M 22.3083,3.3782
22.3178,3.3304
22.3449,3.2899
22.3855,3.2628
22.4333,3.2532
22.6833,3.2532
22.7312,3.2628
22.7717,3.2899
22.7988,3.3304
22.8083,3.3782
22.8083,4.3282
22.7988,4.3761
22.7717,4.4166
22.7312,4.4437
22.6833,4.4532
22.4333,4.4532
22.3855,4.4437
22.3449,4.4166
22.3178,4.3761
22.3083,4.3282
Z" /> 
<path style="fill:#4A5F65; fill-opacity:0.9000; 
stroke:#4A5F65; stroke-width:0.0000; stroke-opacity:1; 
stroke-linecap:round; stroke-linejoin:round;fill-rule:evenodd;"
d="M 26.3083,7.5682
26.3178,7.5204
26.3449,7.4799
26.3855,7.4528
26.4333,7.4432
26.6833,7.4432
26.7312,7.4528
26.7717,7.4799
26.7988,7.5204
26.8083,7.5682
26.8083,8.5183
26.7988,8.5661
26.7717,8.6066
26.7312,8.6337
26.6833,8.6433
26.4333,8.6433
26.3855,8.6337
26.3449,8.6066
26.3178,8.5661
26.3083,8.5183
Z" /> 
<path style="fill:#4A5F65; fill-opacity:0.9000; 
stroke:#4A5F65; stroke-width:0.0000; stroke-opacity:1; 
stroke-linecap:round; stroke-linejoin:round;fill-rule:evenodd;"
d="M 26.3083,3.3782
26.3178,3.3304
26.3449,3.2899
26.3855,3.2628
26.4333,3.2532
26.6833,3.2532
26.7312,3.2628
26.7717,3.2899
26.7988,3.3304
26.8083,3.3782
26.8083,4.3282
26.7988,4.3761
26.7717,4.4166
26.7312,4.4437
26.6833,4.4532
26.4333,4.4532
26.3855,4.4437
26.3449,4.4166
26.3178,4.3761
26.3083,4.3282
Z" /> 
<path style="fill:#4A5F65; fill-opacity:0.9000; 
stroke:#4A5F65; stroke-width:0.0000; stroke-opacity:1; 
stroke-linecap:round; stroke-linejoin:round;fill-rule:evenodd;"
d="M 27.1083,7.5682
27.1178,7.5204
27.1449,7.4799
27.1855,7.4528
27.2333,7.4432
27.4833,7.4432
27.5312,7.4528
27.5717,7.4799
27.5988,7.5204
27.6083,7.5682
27.6083,8.5183
27.5988,8.5661
27.5717,8.6066
27.5312,8.6337
27.4833,8.6433
27.2333,8.6433
27.1855,8.6337
27.1449,8.6066
27.1178,8.5661
27.1083,8.5183
Z" /> 
<path style="fill:#4A5F65; fill-opacity:0.9000; 
stroke:#4A5F65; stroke-width:0.0000; stroke-opacity:1; 
stroke-linecap:round; stroke-linejoin:round;fill-rule:evenodd;"
d="M 27.1083,3.3782
27.1178,3.3304
27.1449,3.2899
27.1855,3.2628
27.2333,3.2532
27.4833,3.2532
27.5312,3.2628
27.5717,3.2899
27.5988,3.3304
27.6083,3.3782
27.6083,4.3282
27.5988,4.3761
27.5717,4.4166
27.5312,4.4437
27.4833,4.4532
27.2333,4.4532
27.1855,4.4437
27.1449,4.4166
27.1178,4.3761
27.1083,4.3282
Z" /> 
<path style="fill:#4A5F65; fill-opacity:0.9000; 
stroke:#4A5F65; stroke-width:0.0000; stroke-opacity:1; 
stroke-linecap:round; stroke-linejoin:round;fill-rule:evenodd;"
d="M 27.9083,7.5682
27.9178,7.5204
27.9449,7.4799
27.9855,7.4528
28.0333,7.4432
28.2833,7.4432
28.3312,7.4528
28.3717,7.4799
28.3988,7.5204
28.4083,7.5682
28.4083,8.5183
28.3988,8.5661
28.3717,8.6066
28.3312,8.6337
28.2833,8.6433
28.0333,8.6433
27.9855,8.6337
27.9449,8.6066
27.9178,8.5661
27.9083,8.5183
Z" /> 
<path style="fill:#4A5F65; fill-opacity:0.9000; 
stroke:#4A5F65; stroke-width:0.0000; stroke-opacity:1; 
stroke-linecap:round; stroke-linejoin:round;fill-rule:evenodd;"
d="M 27.9083,3.3782
27.9178,3.3304
27.9449,3.2899
27.9855,3.2628
28.0333,3.2532
28.2833,3.2532
28.3312,3.2628
28.3717,3.2899
28.3988,3.3304
28.4083,3.3782
28.4083,4.3282
28.3988,4.3761
28.3717,4.4166
28.3312,4.4437
28.2833,4.4532
28.0333,4.4532
27.9855,4.4437
27.9449,4.4166
27.9178,4.3761
27.9083,4.3282
Z" /> 
<path style="fill:#4A5F65; fill-opacity:0.9000; 
stroke:#4A5F65; stroke-width:0.0000; stroke-opacity:1; 
stroke-linecap:round; stroke-linejoin:round;fill-rule:evenodd;"
d="M 28.7083,7.5682
28.7178,7.5204
28.7449,7.4799
28.7855,7.4528
28.8333,7.4432
29.0833,7.4432
29.1312,7.4528
29.1717,7.4799
29.1988,7.5204
29.2083,7.5682
29.2083,8.5183
29.1988,8.5661
29.1717,8.6066
29.1312,8.6337
29.0833,8.6433
28.8333,8.6433
28.7855,8.6337
28.7449,8.6066
28.7178,8.5661
28.7083,8.5183
Z" /> 
<path style="fill:#4A5F65; fill-opacity:0.9000; 
stroke:#4A5F65; stroke-width:0.0000; stroke-opacity:1; 
stroke-linecap:round; stroke-linejoin:round;fill-rule:evenodd;"
d="M 28.7083,3.3782
28.7178,3.3304
28.7449,3.2899
28.7855,3.2628
28.8333,3.2532
29.0833,3.2532
29.1312,3.2628
29.1717,3.2899
29.1988,3.3304
29.2083,3.3782
29.2083,4.3282
29.1988,4.3761
29.1717,4.4166
29.1312,4.4437
29.0833,4.4532
28.8333,4.4532
28.7855,4.4437
28.7449,4.4166
28.7178,4.3761
28.7083,4.3282
Z" /> 
<path style="fill:#4A5F65; fill-opacity:0.9000; 
stroke:#4A5F65; stroke-width:0.0000; stroke-opacity:1; 
stroke-linecap:round; stroke-linejoin:round;fill-rule:evenodd;"
d="M 29.5083,7.5682
29.5178,7.5204
29.5449,7.4799
29.5855,7.4528
29.6333,7.4432
29.8833,7.4432
29.9312,7.4528
29.9717,7.4799
29.9988,7.5204
30.0083,7.5682
30.0083,8.5183
29.9988,8.5661
29.9717,8.6066
29.9312,8.6337
29.8833,8.6433
29.6333,8.6433
29.5855,8.6337
29.5449,8.6066
29.5178,8.5661
29.5083,8.5183
Z" /> 
<path style="fill:#4A5F65; fill-opacity:0.9000; 
stroke:#4A5F65; stroke-width:0.0000; stroke-opacity:1; 
stroke-linecap:round; stroke-linejoin:round;fill-rule:evenodd;"
d="M 29.5083,3.3782
29.5178,3.3304
29.5449,3.2899
29.5855,3.2628
29.6333,3.2532
29.8833,3.2532
29.9312,3.2628
29.9717,3.2899
29.9988,3.3304
30.0083,3.3782
30.0083,4.3282
29.9988,4.3761
29.9717,4.4166
29.9312,4.4437
29.8833,4.4532
29.6333,4.4532
29.5855,4.4437
29.5449,4.4166
29.5178,4.3761
29.5083,4.3282
Z" /> 
<path style="fill:#4A5F65; fill-opacity:0.9000; 
stroke:#4A5F65; stroke-width:0.0000; stroke-opacity:1; 
stroke-linecap:round; stroke-linejoin:round;fill-rule:evenodd;"
d="M 30.3083,7.5682
30.3178,7.5204
30.3449,7.4799
30.3855,7.4528
30.4333,7.4432
30.6833,7.4432
30.7312,7.4528
30.7717,7.4799
30.7988,7.5204
30.8083,7.5682
30.8083,8.5183
30.7988,8.5661
30.7717,8.6066
30.7312,8.6337
30.6833,8.6433
30.4333,8.6433
30.3855,8.6337
30.3449,8.6066
30.3178,8.5661
30.3083,8.5183
Z" /> 
<path style="fill:#4A5F65; fill-opacity:0.9000; 
stroke:#4A5F65; stroke-width:0.0000; stroke-opacity:1; 
stroke-linecap:round; stroke-linejoin:round;fill-rule:evenodd;"
d="M 30.3083,3.3782
30.3178,3.3304
30.3449,3.2899
30.3855,3.2628
30.4333,3.2532
30.6833,3.2532
30.7312,3.2628
30.7717,3.2899
30.7988,3.3304
30.8083,3.3782
30.8083,4.3282
30.7988,4.3761
30.7717,4.4166
30.7312,4.4437
30.6833,4.4532
30.4333,4.4532
30.3855,4.4437
30.3449,4.4166
30.3178,4.3761
30.3083,4.3282
Z" /> 
<path style="fill:#4A5F65; fill-opacity:0.9000; 
stroke:#4A5F65; stroke-width:0.0000; stroke-opacity:1; 
stroke-linecap:round; stroke-linejoin:round;fill-rule:evenodd;"
d="M 31.1083,7.5682
31.1178,7.5204
31.1449,7.4799
31.1855,7.4528
31.2333,7.4432
31.4833,7.4432
31.5312,7.4528
31.5717,7.4799
31.5988,7.5204
31.6083,7.5682
31.6083,8.5183
31.5988,8.5661
31.5717,8.6066
31.5312,8.6337
31.4833,8.6433
31.2333,8.6433
31.1855,8.6337
31.1449,8.6066
31.1178,8.5661
31.1083,8.5183
Z" /> 
<path style="fill:#4A5F65; fill-opacity:0.9000; 
stroke:#4A5F65; stroke-width:0.0000; stroke-opacity:1; 
stroke-linecap:round; stroke-linejoin:round;fill-rule:evenodd;"
d="M 31.1083,3.3782
31.1178,3.3304
31.1449,3.2899
31.1855,3.2628
31.2333,3.2532
31.4833,3.2532
31.5312,3.2628
31.5717,3.2899
31.5988,3.3304
31.6083,3.3782
31.6083,4.3282
31.5988,4.3761
31.5717,4.4166
31.5312,4.4437
31.4833,4.4532
31.2333,4.4532
31.1855,4.4437
31.1449,4.4166
31.1178,4.3761
31.1083,4.3282
Z" /> 
<path style="fill:#4A5F65; fill-opacity:0.9000; 
stroke:#4A5F65; stroke-width:0.0000; stroke-opacity:1; 
stroke-linecap:round; stroke-linejoin:round;fill-rule:evenodd;"
d="M 31.9083,7.5682
31.9178,7.5204
31.9449,7.4799
31.9855,7.4528
32.0333,7.4432
32.2833,7.4432
32.3312,7.4528
32.3717,7.4799
32.3988,7.5204
32.4083,7.5682
32.4083,8.5183
32.3988,8.5661
32.3717,8.6066
32.3312,8.6337
32.2833,8.6433
32.0333,8.6433
31.9855,8.6337
31.9449,8.6066
31.9178,8.5661
31.9083,8.5183
Z" /> 
<path style="fill:#4A5F65; fill-opacity:0.9000; 
stroke:#4A5F65; stroke-width:0.0000; stroke-opacity:1; 
stroke-linecap:round; stroke-linejoin:round;fill-rule:evenodd;"
d="M 31.9083,3.3782
31.9178,3.3304
31.9449,3.2899
31.9855,3.2628
32.0333,3.2532
32.2833,3.2532
32.3312,3.2628
32.3717,3.2899
32.3988,3.3304
32.4083,3.3782
32.4083,4.3282
32.3988,4.3761
32.3717,4.4166
32.3312,4.4437
32.2833,4.4532
32.0333,4.4532
31.9855,4.4437
31.9449,4.4166
31.9178,4.3761
31.9083,4.3282
Z" /> 
<path style="fill:#4A5F65; fill-opacity:0.9000; 
stroke:#4A5F65; stroke-width:0.0000; stroke-opacity:1; 
stroke-linecap:round; stroke-linejoin:round;fill-rule:evenodd;"
d="M 32.7083,7.5682
32.7178,7.5204
32.7449,7.4799
32.7855,7.4528
32.8333,7.4432
33.0833,7.4432
33.1312,7.4528
33.1717,7.4799
33.1988,7.5204
33.2083,7.5682
33.2083,8.5183
33.1988,8.5661
33.1717,8.6066
33.1312,8.6337
33.0833,8.6433
32.8333,8.6433
32.7855,8.6337
32.7449,8.6066
32.7178,8.5661
32.7083,8.5183
Z" /> 
<path style="fill:#4A5F65; fill-opacity:0.9000; 
stroke:#4A5F65; stroke-width:0.0000; stroke-opacity:1; 
stroke-linecap:round; stroke-linejoin:round;fill-rule:evenodd;"
d="M 32.7083,3.3782
32.7178,3.3304
32.7449,3.2899
32.7855,3.2628
32.8333,3.2532
33.0833,3.2532
33.1312,3.2628
33.1717,3.2899
33.1988,3.3304
33.2083,3.3782
33.2083,4.3282
33.1988,4.3761
33.1717,4.4166
33.1312,4.4437
33.0833,4.4532
32.8333,4.4532
32.7855,4.4437
32.7449,4.4166
32.7178,4.3761
32.7083,4.3282
Z" /> 
<path style="fill:#4A5F65; fill-opacity:0.9000; 
stroke:#4A5F65; stroke-width:0.0000; stroke-opacity:1; 
stroke-linecap:round; stroke-linejoin:round;fill-rule:evenodd;"
d="M 33.5083,7.5682
33.5178,7.5204
33.5449,7.4799
33.5855,7.4528
33.6333,7.4432
33.8833,7.4432
33.9312,7.4528
33.9717,7.4799
33.9988,7.5204
34.0083,7.5682
34.0083,8.5183
33.9988,8.5661
33.9717,8.6066
33.9312,8.6337
33.8833,8.6433
33.6333,8.6433
33.5855,8.6337
33.5449,8.6066
33.5178,8.5661
33.5083,8.5183
Z" /> 
<path style="fill:#4A5F65; fill-opacity:0.9000; 
stroke:#4A5F65; stroke-width:0.0000; stroke-opacity:1; 
stroke-linecap:round; stroke-linejoin:round;fill-rule:evenodd;"
d="M 33.5083,3.3782
33.5178,3.3304
33.5449,3.2899
33.5855,3.2628
33.6333,3.2532
33.8833,3.2532
33.9312,3.2628
33.9717,3.2899
33.9988,3.3304
34.0083,3.3782
34.0083,4.3282
33.9988,4.3761
33.9717,4.4166
33.9312,4.4437
33.8833,4.4532
33.6333,4.4532
33.5855,4.4437
33.5449,4.4166
33.5178,4.3761
33.5083,4.3282
Z" /> 
<path style="fill:#4A5F65; fill-opacity:0.9000; 
stroke:#4A5F65; stroke-width:0.0000; stroke-opacity:1; 
stroke-linecap:round; stroke-linejoin:round;fill-rule:evenodd;"
d="M 34.3083,7.5682
34.3178,7.5204
34.3449,7.4799
34.3855,7.4528
34.4333,7.4432
34.6833,7.4432
34.7312,7.4528
34.7717,7.4799
34.7988,7.5204
34.8083,7.5682
34.8083,8.5183
34.7988,8.5661
34.7717,8.6066
34.7312,8.6337
34.6833,8.6433
34.4333,8.6433
34.3855,8.6337
34.3449,8.6066
34.3178,8.5661
34.3083,8.5183
Z" /> 
<path style="fill:#4A5F65; fill-opacity:0.9000; 
stroke:#4A5F65; stroke-width:0.0000; stroke-opacity:1; 
stroke-linecap:round; stroke-linejoin:round;fill-rule:evenodd;"
d="M 34.3083,3.3782
34.3178,3.3304
34.3449,3.2899
34.3855,3.2628
34.4333,3.2532
34.6833,3.2532
34.7312,3.2628
34.7717,3.2899
34.7988,3.3304
34.8083,3.3782
34.8083,4.3282
34.7988,4.3761
34.7717,4.4166
34.7312,4.4437
34.6833,4.4532
34.4333,4.4532
34.3855,4.4437
34.3449,4.4166
34.3178,4.3761
34.3083,4.3282
Z" /> 
<path style="fill:#4A5F65; fill-opacity:0.9000; 
stroke:#4A5F65; stroke-width:0.0000; stroke-opacity:1; 
stroke-linecap:round; stroke-linejoin:round;fill-rule:evenodd;"
d="M 35.1083,7.5682
35.1178,7.5204
35.1449,7.4799
35.1855,7.4528
35.2333,7.4432
35.4833,7.4432
35.5312,7.4528
35.5717,7.4799
35.5988,7.5204
35.6083,7.5682
35.6083,8.5183
35.5988,8.5661
35.5717,8.6066
35.5312,8.6337
35.4833,8.6433
35.2333,8.6433
35.1855,8.6337
35.1449,8.6066
35.1178,8.5661
35.1083,8.5183
Z" /> 
<path style="fill:#4A5F65; fill-opacity:0.9000; 
stroke:#4A5F65; stroke-width:0.0000; stroke-opacity:1; 
stroke-linecap:round; stroke-linejoin:round;fill-rule:evenodd;"
d="M 35.1083,3.3782
35.1178,3.3304
35.1449,3.2899
35.1855,3.2628
35.2333,3.2532
35.4833,3.2532
35.5312,3.2628
35.5717,3.2899
35.5988,3.3304
35.6083,3.3782
35.6083,4.3282
35.5988,4.3761
35.5717,4.4166
35.5312,4.4437
35.4833,4.4532
35.2333,4.4532
35.1855,4.4437
35.1449,4.4166
35.1178,4.3761
35.1083,4.3282
Z" /> 
<path style="fill:#4A5F65; fill-opacity:0.9000; 
stroke:#4A5F65; stroke-width:0.0000; stroke-opacity:1; 
stroke-linecap:round; stroke-linejoin:round;fill-rule:evenodd;"
d="M 35.9083,7.5682
35.9178,7.5204
35.9449,7.4799
35.9855,7.4528
36.0333,7.4432
36.2833,7.4432
36.3312,7.4528
36.3717,7.4799
36.3988,7.5204
36.4083,7.5682
36.4083,8.5183
36.3988,8.5661
36.3717,8.6066
36.3312,8.6337
36.2833,8.6433
36.0333,8.6433
35.9855,8.6337
35.9449,8.6066
35.9178,8.5661
35.9083,8.5183
Z" /> 
<path style="fill:#4A5F65; fill-opacity:0.9000; 
stroke:#4A5F65; stroke-width:0.0000; stroke-opacity:1; 
stroke-linecap:round; stroke-linejoin:round;fill-rule:evenodd;"
d="M 35.9083,3.3782
35.9178,3.3304
35.9449,3.2899
35.9855,3.2628
36.0333,3.2532
36.2833,3.2532
36.3312,3.2628
36.3717,3.2899
36.3988,3.3304
36.4083,3.3782
36.4083,4.3282
36.3988,4.3761
36.3717,4.4166
36.3312,4.4437
36.2833,4.4532
36.0333,4.4532
35.9855,4.4437
35.9449,4.4166
35.9178,4.3761
35.9083,4.3282
Z" /> 
<path style="fill:#4A5F65; fill-opacity:0.9000; 
stroke:#4A5F65; stroke-width:0.0000; stroke-opacity:1; 
stroke-linecap:round; stroke-linejoin:round;fill-rule:evenodd;"
d="M 36.7083,7.5682
36.7178,7.5204
36.7449,7.4799
36.7855,7.4528
36.8333,7.4432
37.0833,7.4432
37.1312,7.4528
37.1717,7.4799
37.1988,7.5204
37.2083,7.5682
37.2083,8.5183
37.1988,8.5661
37.1717,8.6066
37.1312,8.6337
37.0833,8.6433
36.8333,8.6433
36.7855,8.6337
36.7449,8.6066
36.7178,8.5661
36.7083,8.5183
Z" /> 
<path style="fill:#4A5F65; fill-opacity:0.9000; 
stroke:#4A5F65; stroke-width:0.0000; stroke-opacity:1; 
stroke-linecap:round; stroke-linejoin:round;fill-rule:evenodd;"
d="M 36.7083,3.3782
36.7178,3.3304
36.7449,3.2899
36.7855,3.2628
36.8333,3.2532
37.0833,3.2532
37.1312,3.2628
37.1717,3.2899
37.1988,3.3304
37.2083,3.3782
37.2083,4.3282
37.1988,4.3761
37.1717,4.4166
37.1312,4.4437
37.0833,4.4532
36.8333,4.4532
36.7855,4.4437
36.7449,4.4166
36.7178,4.3761
36.7083,4.3282
Z" /> 
<path style="fill:#4A5F65; fill-opacity:0.9000; 
stroke:#4A5F65; stroke-width:0.0000; stroke-opacity:1; 
stroke-linecap:round; stroke-linejoin:round;fill-rule:evenodd;"
d="M 37.5083,7.5682
37.5178,7.5204
37.5449,7.4799
37.5855,7.4528
37.6333,7.4432
37.8833,7.4432
37.9312,7.4528
37.9717,7.4799
37.9988,7.5204
38.0083,7.5682
38.0083,8.5183
37.9988,8.5661
37.9717,8.6066
37.9312,8.6337
37.8833,8.6433
37.6333,8.6433
37.5855,8.6337
37.5449,8.6066
37.5178,8.5661
37.5083,8.5183
Z" /> 
<path style="fill:#4A5F65; fill-opacity:0.9000; 
stroke:#4A5F65; stroke-width:0.0000; stroke-opacity:1; 
stroke-linecap:round; stroke-linejoin:round;fill-rule:evenodd;"
d="M 37.5083,3.3782
37.5178,3.3304
37.5449,3.2899
37.5855,3.2628
37.6333,3.2532
37.8833,3.2532
37.9312,3.2628
37.9717,3.2899
37.9988,3.3304
38.0083,3.3782
38.0083,4.3282
37.9988,4.3761
37.9717,4.4166
37.9312,4.4437
37.8833,4.4532
37.6333,4.4532
37.5855,4.4437
37.5449,4.4166
37.5178,4.3761
37.5083,4.3282
Z" /> 
<path style="fill:#4A5F65; fill-opacity:0.9000; 
stroke:#4A5F65; stroke-width:0.0000; stroke-opacity:1; 
stroke-linecap:round; stroke-linejoin:round;fill-rule:evenodd;"
d="M 38.3083,7.5682
38.3178,7.5204
38.3449,7.4799
38.3855,7.4528
38.4333,7.4432
38.6833,7.4432
38.7312,7.4528
38.7717,7.4799
38.7988,7.5204
38.8083,7.5682
38.8083,8.5183
38.7988,8.5661
38.7717,8.6066
38.7312,8.6337
38.6833,8.6433
38.4333,8.6433
38.3855,8.6337
38.3449,8.6066
38.3178,8.5661
38.3083,8.5183
Z" /> 
<path style="fill:#4A5F65; fill-opacity:0.9000; 
stroke:#4A5F65; stroke-width:0.0000; stroke-opacity:1; 
stroke-linecap:round; stroke-linejoin:round;fill-rule:evenodd;"
d="M 38.3083,3.3782
38.3178,3.3304
38.3449,3.2899
38.3855,3.2628
38.4333,3.2532
38.6833,3.2532
38.7312,3.2628
38.7717,3.2899
38.7988,3.3304
38.8083,3.3782
38.8083,4.3282
38.7988,4.3761
38.7717,4.4166
38.7312,4.4437
38.6833,4.4532
38.4333,4.4532
38.3855,4.4437
38.3449,4.4166
38.3178,4.3761
38.3083,4.3282
Z" /> 
<path style="fill:#4A5F65; fill-opacity:0.9000; 
stroke:#4A5F65; stroke-width:0.0000; stroke-opacity:1; 
stroke-linecap:round; stroke-linejoin:round;fill-rule:evenodd;"
d="M 39.1083,7.5682
39.1178,7.5204
39.1449,7.4799
39.1855,7.4528
39.2333,7.4432
39.4833,7.4432
39.5312,7.4528
39.5717,7.4799
39.5988,7.5204
39.6083,7.5682
39.6083,8.5183
39.5988,8.5661
39.5717,8.6066
39.5312,8.6337
39.4833,8.6433
39.2333,8.6433
39.1855,8.6337
39.1449,8.6066
39.1178,8.5661
39.1083,8.5183
Z" /> 
<path style="fill:#4A5F65; fill-opacity:0.9000; 
stroke:#4A5F65; stroke-width:0.0000; stroke-opacity:1; 
stroke-linecap:round; stroke-linejoin:round;fill-rule:evenodd;"
d="M 39.1083,3.3782
39.1178,3.3304
39.1449,3.2899
39.1855,3.2628
39.2333,3.2532
39.4833,3.2532
39.5312,3.2628
39.5717,3.2899
39.5988,3.3304
39.6083,3.3782
39.6083,4.3282
39.5988,4.3761
39.5717,4.4166
39.5312,4.4437
39.4833,4.4532
39.2333,4.4532
39.1855,4.4437
39.1449,4.4166
39.1178,4.3761
39.1083,4.3282
Z" /> 
<path style="fill:#4A5F65; fill-opacity:0.9000; 
stroke:#4A5F65; stroke-width:0.0000; stroke-opacity:1; 
stroke-linecap:round; stroke-linejoin:round;fill-rule:evenodd;"
d="M 39.9083,7.5682
39.9178,7.5204
39.9449,7.4799
39.9855,7.4528
40.0333,7.4432
40.2833,7.4432
40.3312,7.4528
40.3717,7.4799
40.3988,7.5204
40.4083,7.5682
40.4083,8.5183
40.3988,8.5661
40.3717,8.6066
40.3312,8.6337
40.2833,8.6433
40.0333,8.6433
39.9855,8.6337
39.9449,8.6066
39.9178,8.5661
39.9083,8.5183
Z" /> 
<path style="fill:#4A5F65; fill-opacity:0.9000; 
stroke:#4A5F65; stroke-width:0.0000; stroke-opacity:1; 
stroke-linecap:round; stroke-linejoin:round;fill-rule:evenodd;"
d="M 39.9083,3.3782
39.9178,3.3304
39.9449,3.2899
39.9855,3.2628
40.0333,3.2532
40.2833,3.2532
40.3312,3.2628
40.3717,3.2899
40.3988,3.3304
40.4083,3.3782
40.4083,4.3282
40.3988,4.3761
40.3717,4.4166
40.3312,4.4437
40.2833,4.4532
40.0333,4.4532
39.9855,4.4437
39.9449,4.4166
39.9178,4.3761
39.9083,4.3282
Z" /> 
</g>
<g >
</g>
<g >
</g>
<g >
</g>
</g>
<g style="fill:#FFFFFF; fill-opacity:1.0000; 
stroke:#FFFFFF; stroke-width:0.0000; stroke-opacity:1; 
stroke-linecap:round; stroke-linejoin:round;">
</g>
<g style="fill:#0D115E; fill-opacity:1.0000; 
stroke:#0D115E; stroke-width:0.0000; stroke-opacity:1; 
stroke-linecap:round; stroke-linejoin:round;">
</g>
<g style="fill:#0D115E; fill-opacity:1.0000; 
stroke:#0D115E; stroke-width:0.1500; stroke-opacity:1; 
stroke-linecap:round; stroke-linejoin:round;">
</g>
<g style="fill:#0D115E; fill-opacity:0.0; 
stroke:#0D115E; stroke-width:0.1500; stroke-opacity:1; 
stroke-linecap:round; stroke-linejoin:round;">
<text x="22.9583" y="1.3482"
textLength="4.5357" font-size="1.3333" lengthAdjust="spacingAndGlyphs"
text-anchor="middle" opacity="0">REF**</text>
<g class="stroked-text"><desc>REF**</desc>
<path d="M21.6250 1.3031
L21.2917 0.8269
" />
<path d="M21.0536 1.3031
L21.0536 0.3031
" />
<path d="M21.0536 0.3031
L21.4345 0.3031
" />
<path d="M21.4345 0.3031
L21.5298 0.3507
" />
<path d="M21.5298 0.3507
L21.5774 0.3983
" />
<path d="M21.5774 0.3983
L21.6250 0.4935
" />
<path d="M21.6250 0.4935
L21.6250 0.6364
" />
<path d="M21.6250 0.6364
L21.5774 0.7316
" />
<path d="M21.5774 0.7316
L21.5298 0.7793
" />
<path d="M21.5298 0.7793
L21.4345 0.8269
" />
<path d="M21.4345 0.8269
L21.0536 0.8269
" />
<path d="M22.0536 0.7793
L22.3869 0.7793
" />
<path d="M22.5298 1.3031
L22.0536 1.3031
" />
<path d="M22.0536 1.3031
L22.0536 0.3031
" />
<path d="M22.0536 0.3031
L22.5298 0.3031
" />
<path d="M23.2917 0.7793
L22.9583 0.7793
" />
<path d="M22.9583 1.3031
L22.9583 0.3031
" />
<path d="M22.9583 0.3031
L23.4345 0.3031
" />
<path d="M23.9583 0.3031
L23.9583 0.5412
" />
<path d="M23.7202 0.4459
L23.9583 0.5412
" />
<path d="M23.9583 0.5412
L24.1964 0.4459
" />
<path d="M23.8155 0.7316
L23.9583 0.5412
" />
<path d="M23.9583 0.5412
L24.1012 0.7316
" />
<path d="M24.7202 0.3031
L24.7202 0.5412
" />
<path d="M24.4821 0.4459
L24.7202 0.5412
" />
<path d="M24.7202 0.5412
L24.9583 0.4459
" />
<path d="M24.5774 0.7316
L24.7202 0.5412
" />
<path d="M24.7202 0.5412
L24.8631 0.7316
" />
</g></g>
<g style="fill:#0D115E; fill-opacity:0.0; 
stroke:#0D115E; stroke-width:0.1200; stroke-opacity:1; 
stroke-linecap:round; stroke-linejoin:round;">
<path d="M2.9483 1.9432
L5.1683 1.9432
" />
<path d="M2.9483 8.5888
L2.9483 1.9432
" />
<path d="M4.3128 9.9532
L2.9483 8.5888
" />
<path d="M5.1683 1.9432
L5.1683 2.6433
" />
<path d="M5.1683 2.6433
L40.7483 2.6433
" />
<path d="M5.1683 9.2532
L5.1683 9.9532
" />
<path d="M5.1683 9.9532
L4.3128 9.9532
" />
<path d="M40.7483 1.9432
L42.9683 1.9432
" />
<path d="M40.7483 2.6433
L40.7483 1.9432
" />
<path d="M40.7483 9.2532
L5.1683 9.2532
" />
<path d="M40.7483 9.9532
L40.7483 9.2532
" />
<path d="M42.9683 1.9432
L42.9683 9.9532
" />
<path d="M42.9683 9.9532
L40.7483 9.9532
" />
<circle cx="5.7583" cy="9.7432" r="0.2500" /> 
<g >
</g>
<g >
</g>
<g >
</g>
<g >
</g>
</g> 
</svg>
