<?xml version="1.0" standalone="no"?>
 <!DOCTYPE svg PUBLIC "-//W3C//DTD SVG 1.1//EN" 
 "http://www.w3.org/Graphics/SVG/1.1/DTD/svg11.dtd"> 
<svg
  xmlns:svg="http://www.w3.org/2000/svg"
  xmlns="http://www.w3.org/2000/svg"
  xmlns:xlink="http://www.w3.org/1999/xlink"
  version="1.1"
  width="103.6066mm" height="24.0792mm" viewBox="0.0000 0.0000 103.6066 24.0792">
<title>SVG Image created as adl5542.svg date 2024/01/16 15:21:17 </title>
  <desc>Image generated by Eeschema-SVG </desc>
<g style="fill:#000000; fill-opacity:1.0000;stroke:#000000; stroke-opacity:1.0000;
stroke-linecap:round; stroke-linejoin:round;"
 transform="translate(0 0) scale(1 1)">
</g>
<g style="fill:#000000; fill-opacity:0.0; 
stroke:#000000; stroke-width:0.0000; stroke-opacity:1; 
stroke-linecap:round; stroke-linejoin:round;">
</g>
<g style="fill:#000000; fill-opacity:0.0; 
stroke:#000000; stroke-width:0.2540; stroke-opacity:1; 
stroke-linecap:round; stroke-linejoin:round;">
<path style="fill:#000000; fill-opacity:0.0; 
stroke:#000000; stroke-width:0.2540; stroke-opacity:1; 
stroke-linecap:round; stroke-linejoin:round;fill:none"
d="M 56.8833,12.0396
46.7233,6.9596
46.7233,17.1196
Z" /> 
</g>
<g style="fill:#000000; fill-opacity:0.0; 
stroke:#000000; stroke-width:0.1524; stroke-opacity:1; 
stroke-linecap:round; stroke-linejoin:round;">
<path d="M46.7233 12.0396
L44.1833 12.0396
" />
<text x="45.4533" y="11.7856"
textLength="1.4127" font-size="1.6933" lengthAdjust="spacingAndGlyphs"
text-anchor="middle" opacity="0">1</text>
<g class="stroked-text"><desc>1</desc>
<path d="M45.8162 11.6221
L45.0905 11.6221
" />
<path d="M45.4533 11.6221
L45.4533 10.3521
" />
<path d="M45.4533 10.3521
L45.3324 10.5336
" />
<path d="M45.3324 10.5336
L45.2114 10.6545
" />
<path d="M45.2114 10.6545
L45.0905 10.7150
" />
</g><path d="M49.2633 15.8496
L49.2633 19.6596
" />
<g transform="rotate(-90.000000 49.2633 15.3416)">
<text x="49.2633" y="15.9766"
textLength="1.4732" font-size="1.6933" lengthAdjust="spacingAndGlyphs"
text-anchor="start" opacity="0">G</text>
</g>
<g class="stroked-text"><desc>G</desc>
<path d="M48.6333 14.2737
L48.5728 14.3947
" />
<path d="M48.5728 14.3947
L48.5728 14.5761
" />
<path d="M48.5728 14.5761
L48.6333 14.7575
" />
<path d="M48.6333 14.7575
L48.7543 14.8785
" />
<path d="M48.7543 14.8785
L48.8752 14.9390
" />
<path d="M48.8752 14.9390
L49.1171 14.9994
" />
<path d="M49.1171 14.9994
L49.2985 14.9994
" />
<path d="M49.2985 14.9994
L49.5404 14.9390
" />
<path d="M49.5404 14.9390
L49.6614 14.8785
" />
<path d="M49.6614 14.8785
L49.7824 14.7575
" />
<path d="M49.7824 14.7575
L49.8428 14.5761
" />
<path d="M49.8428 14.5761
L49.8428 14.4552
" />
<path d="M49.8428 14.4552
L49.7824 14.2737
" />
<path d="M49.7824 14.2737
L49.7219 14.2133
" />
<path d="M49.7219 14.2133
L49.2985 14.2133
" />
<path d="M49.2985 14.2133
L49.2985 14.4552
" />
</g><g transform="rotate(-90.000000 49.0093 17.7546)">
<text x="49.0093" y="17.7546"
textLength="1.4127" font-size="1.6933" lengthAdjust="spacingAndGlyphs"
text-anchor="middle" opacity="0">2</text>
</g>
<g class="stroked-text"><desc>2</desc>
<path d="M47.6968 18.1173
L47.6363 18.0569
" />
<path d="M47.6363 18.0569
L47.5758 17.9359
" />
<path d="M47.5758 17.9359
L47.5758 17.6335
" />
<path d="M47.5758 17.6335
L47.6363 17.5126
" />
<path d="M47.6363 17.5126
L47.6968 17.4521
" />
<path d="M47.6968 17.4521
L47.8177 17.3916
" />
<path d="M47.8177 17.3916
L47.9387 17.3916
" />
<path d="M47.9387 17.3916
L48.1201 17.4521
" />
<path d="M48.1201 17.4521
L48.8458 18.1778
" />
<path d="M48.8458 18.1778
L48.8458 17.3916
" />
</g><path d="M51.8033 14.5796
L51.8033 19.6596
" />
<g transform="rotate(-90.000000 51.8033 14.0716)">
<text x="51.8033" y="14.7066"
textLength="2.7432" font-size="1.6933" lengthAdjust="spacingAndGlyphs"
text-anchor="start" opacity="0">CB</text>
</g>
<g class="stroked-text"><desc>CB</desc>
<path d="M52.2619 12.9433
L52.3224 13.0037
" />
<path d="M52.3224 13.0037
L52.3828 13.1852
" />
<path d="M52.3828 13.1852
L52.3828 13.3061
" />
<path d="M52.3828 13.3061
L52.3224 13.4875
" />
<path d="M52.3224 13.4875
L52.2014 13.6085
" />
<path d="M52.2014 13.6085
L52.0804 13.6690
" />
<path d="M52.0804 13.6690
L51.8385 13.7294
" />
<path d="M51.8385 13.7294
L51.6571 13.7294
" />
<path d="M51.6571 13.7294
L51.4152 13.6690
" />
<path d="M51.4152 13.6690
L51.2943 13.6085
" />
<path d="M51.2943 13.6085
L51.1733 13.4875
" />
<path d="M51.1733 13.4875
L51.1128 13.3061
" />
<path d="M51.1128 13.3061
L51.1128 13.1852
" />
<path d="M51.1128 13.1852
L51.1733 13.0037
" />
<path d="M51.1733 13.0037
L51.2338 12.9433
" />
<path d="M51.7176 11.9756
L51.7781 11.7942
" />
<path d="M51.7781 11.7942
L51.8385 11.7337
" />
<path d="M51.8385 11.7337
L51.9595 11.6733
" />
<path d="M51.9595 11.6733
L52.1409 11.6733
" />
<path d="M52.1409 11.6733
L52.2619 11.7337
" />
<path d="M52.2619 11.7337
L52.3224 11.7942
" />
<path d="M52.3224 11.7942
L52.3828 11.9152
" />
<path d="M52.3828 11.9152
L52.3828 12.3990
" />
<path d="M52.3828 12.3990
L51.1128 12.3990
" />
<path d="M51.1128 12.3990
L51.1128 11.9756
" />
<path d="M51.1128 11.9756
L51.1733 11.8547
" />
<path d="M51.1733 11.8547
L51.2338 11.7942
" />
<path d="M51.2338 11.7942
L51.3547 11.7337
" />
<path d="M51.3547 11.7337
L51.4757 11.7337
" />
<path d="M51.4757 11.7337
L51.5966 11.7942
" />
<path d="M51.5966 11.7942
L51.6571 11.8547
" />
<path d="M51.6571 11.8547
L51.7176 11.9756
" />
<path d="M51.7176 11.9756
L51.7176 12.3990
" />
</g><g transform="rotate(-90.000000 51.5493 17.1196)">
<text x="51.5493" y="17.1196"
textLength="1.4127" font-size="1.6933" lengthAdjust="spacingAndGlyphs"
text-anchor="middle" opacity="0">4</text>
</g>
<g class="stroked-text"><desc>4</desc>
<path d="M50.5392 16.8776
L51.3858 16.8776
" />
<path d="M50.0554 17.1800
L50.9625 17.4823
" />
<path d="M50.9625 17.4823
L50.9625 16.6962
" />
</g><path d="M49.2633 8.2296
L49.2633 4.4196
" />
<g transform="rotate(-90.000000 49.2633 8.7376)">
<text x="49.2633" y="9.3726"
textLength="2.8642" font-size="1.6933" lengthAdjust="spacingAndGlyphs"
text-anchor="end" opacity="0">V+</text>
</g>
<g class="stroked-text"><desc>V+</desc>
<path d="M48.5728 11.3778
L49.8428 10.9545
" />
<path d="M49.8428 10.9545
L48.5728 10.5311
" />
<path d="M49.3590 10.1078
L49.3590 9.1402
" />
<path d="M49.8428 9.6240
L48.8752 9.6240
" />
</g><g transform="rotate(-90.000000 49.0093 6.3246)">
<text x="49.0093" y="6.3246"
textLength="1.4127" font-size="1.6933" lengthAdjust="spacingAndGlyphs"
text-anchor="middle" opacity="0">5</text>
</g>
<g class="stroked-text"><desc>5</desc>
<path d="M47.5758 6.0221
L47.5758 6.6269
" />
<path d="M47.5758 6.6269
L48.1806 6.6873
" />
<path d="M48.1806 6.6873
L48.1201 6.6269
" />
<path d="M48.1201 6.6269
L48.0596 6.5059
" />
<path d="M48.0596 6.5059
L48.0596 6.2035
" />
<path d="M48.0596 6.2035
L48.1201 6.0826
" />
<path d="M48.1201 6.0826
L48.1806 6.0221
" />
<path d="M48.1806 6.0221
L48.3015 5.9616
" />
<path d="M48.3015 5.9616
L48.6039 5.9616
" />
<path d="M48.6039 5.9616
L48.7249 6.0221
" />
<path d="M48.7249 6.0221
L48.7854 6.0826
" />
<path d="M48.7854 6.0826
L48.8458 6.2035
" />
<path d="M48.8458 6.2035
L48.8458 6.5059
" />
<path d="M48.8458 6.5059
L48.7854 6.6269
" />
<path d="M48.7854 6.6269
L48.7249 6.6873
" />
</g><path d="M56.8833 12.0396
L59.4233 12.0396
" />
<text x="58.1533" y="11.7856"
textLength="1.4127" font-size="1.6933" lengthAdjust="spacingAndGlyphs"
text-anchor="middle" opacity="0">8</text>
<g class="stroked-text"><desc>8</desc>
<path d="M58.0324 10.8964
L57.9114 10.8359
" />
<path d="M57.9114 10.8359
L57.8509 10.7755
" />
<path d="M57.8509 10.7755
L57.7905 10.6545
" />
<path d="M57.7905 10.6545
L57.7905 10.5940
" />
<path d="M57.7905 10.5940
L57.8509 10.4731
" />
<path d="M57.8509 10.4731
L57.9114 10.4126
" />
<path d="M57.9114 10.4126
L58.0324 10.3521
" />
<path d="M58.0324 10.3521
L58.2743 10.3521
" />
<path d="M58.2743 10.3521
L58.3952 10.4126
" />
<path d="M58.3952 10.4126
L58.4557 10.4731
" />
<path d="M58.4557 10.4731
L58.5162 10.5940
" />
<path d="M58.5162 10.5940
L58.5162 10.6545
" />
<path d="M58.5162 10.6545
L58.4557 10.7755
" />
<path d="M58.4557 10.7755
L58.3952 10.8359
" />
<path d="M58.3952 10.8359
L58.2743 10.8964
" />
<path d="M58.2743 10.8964
L58.0324 10.8964
" />
<path d="M58.0324 10.8964
L57.9114 10.9569
" />
<path d="M57.9114 10.9569
L57.8509 11.0174
" />
<path d="M57.8509 11.0174
L57.7905 11.1383
" />
<path d="M57.7905 11.1383
L57.7905 11.3802
" />
<path d="M57.7905 11.3802
L57.8509 11.5012
" />
<path d="M57.8509 11.5012
L57.9114 11.5617
" />
<path d="M57.9114 11.5617
L58.0324 11.6221
" />
<path d="M58.0324 11.6221
L58.2743 11.6221
" />
<path d="M58.2743 11.6221
L58.3952 11.5617
" />
<path d="M58.3952 11.5617
L58.4557 11.5012
" />
<path d="M58.4557 11.5012
L58.5162 11.3802
" />
<path d="M58.5162 11.3802
L58.5162 11.1383
" />
<path d="M58.5162 11.1383
L58.4557 11.0174
" />
<path d="M58.4557 11.0174
L58.3952 10.9569
" />
<path d="M58.3952 10.9569
L58.2743 10.8964
" />
</g></g>
<g style="fill:#000000; fill-opacity:0.0; 
stroke:#000000; stroke-width:0.1588; stroke-opacity:1; 
stroke-linecap:round; stroke-linejoin:round;">
<text x="54.3433" y="6.3246"
textLength="2.6415" font-size="1.6933" lengthAdjust="spacingAndGlyphs"
text-anchor="middle" opacity="0">U?</text>
<g class="stroked-text"><desc>U?</desc>
<path d="M53.4361 4.9988
L53.4361 6.0269
" />
<path d="M53.4361 6.0269
L53.4966 6.1479
" />
<path d="M53.4966 6.1479
L53.5571 6.2084
" />
<path d="M53.5571 6.2084
L53.6780 6.2688
" />
<path d="M53.6780 6.2688
L53.9199 6.2688
" />
<path d="M53.9199 6.2688
L54.0409 6.2084
" />
<path d="M54.0409 6.2084
L54.1014 6.1479
" />
<path d="M54.1014 6.1479
L54.1618 6.0269
" />
<path d="M54.1618 6.0269
L54.1618 4.9988
" />
<path d="M54.9481 6.1479
L55.0085 6.2084
" />
<path d="M55.0085 6.2084
L54.9481 6.2688
" />
<path d="M54.9481 6.2688
L54.8876 6.2084
" />
<path d="M54.8876 6.2084
L54.9481 6.1479
" />
<path d="M54.9481 6.1479
L54.9481 6.2688
" />
<path d="M54.7062 5.0593
L54.8271 4.9988
" />
<path d="M54.8271 4.9988
L55.1295 4.9988
" />
<path d="M55.1295 4.9988
L55.2504 5.0593
" />
<path d="M55.2504 5.0593
L55.3109 5.1803
" />
<path d="M55.3109 5.1803
L55.3109 5.3012
" />
<path d="M55.3109 5.3012
L55.2504 5.4222
" />
<path d="M55.2504 5.4222
L55.1900 5.4826
" />
<path d="M55.1900 5.4826
L55.0690 5.5431
" />
<path d="M55.0690 5.5431
L55.0085 5.6036
" />
<path d="M55.0085 5.6036
L54.9481 5.7245
" />
<path d="M54.9481 5.7245
L54.9481 5.7850
" />
</g><text x="55.6133" y="8.8646"
textLength="8.4471" font-size="1.6933" lengthAdjust="spacingAndGlyphs"
text-anchor="middle" opacity="0">ADL5542</text>
<g class="stroked-text"><desc>ADL5542</desc>
<path d="M51.7429 8.4460
L52.3476 8.4460
" />
<path d="M51.6219 8.8088
L52.0452 7.5388
" />
<path d="M52.0452 7.5388
L52.4686 8.8088
" />
<path d="M52.8919 8.8088
L52.8919 7.5388
" />
<path d="M52.8919 7.5388
L53.1943 7.5388
" />
<path d="M53.1943 7.5388
L53.3757 7.5993
" />
<path d="M53.3757 7.5993
L53.4967 7.7203
" />
<path d="M53.4967 7.7203
L53.5572 7.8412
" />
<path d="M53.5572 7.8412
L53.6176 8.0831
" />
<path d="M53.6176 8.0831
L53.6176 8.2645
" />
<path d="M53.6176 8.2645
L53.5572 8.5064
" />
<path d="M53.5572 8.5064
L53.4967 8.6274
" />
<path d="M53.4967 8.6274
L53.3757 8.7484
" />
<path d="M53.3757 8.7484
L53.1943 8.8088
" />
<path d="M53.1943 8.8088
L52.8919 8.8088
" />
<path d="M54.7667 8.8088
L54.1619 8.8088
" />
<path d="M54.1619 8.8088
L54.1619 7.5388
" />
<path d="M55.7948 7.5388
L55.1900 7.5388
" />
<path d="M55.1900 7.5388
L55.1296 8.1436
" />
<path d="M55.1296 8.1436
L55.1900 8.0831
" />
<path d="M55.1900 8.0831
L55.3110 8.0226
" />
<path d="M55.3110 8.0226
L55.6134 8.0226
" />
<path d="M55.6134 8.0226
L55.7343 8.0831
" />
<path d="M55.7343 8.0831
L55.7948 8.1436
" />
<path d="M55.7948 8.1436
L55.8553 8.2645
" />
<path d="M55.8553 8.2645
L55.8553 8.5669
" />
<path d="M55.8553 8.5669
L55.7948 8.6879
" />
<path d="M55.7948 8.6879
L55.7343 8.7484
" />
<path d="M55.7343 8.7484
L55.6134 8.8088
" />
<path d="M55.6134 8.8088
L55.3110 8.8088
" />
<path d="M55.3110 8.8088
L55.1900 8.7484
" />
<path d="M55.1900 8.7484
L55.1296 8.6879
" />
<path d="M57.0043 7.5388
L56.3995 7.5388
" />
<path d="M56.3995 7.5388
L56.3391 8.1436
" />
<path d="M56.3391 8.1436
L56.3995 8.0831
" />
<path d="M56.3995 8.0831
L56.5205 8.0226
" />
<path d="M56.5205 8.0226
L56.8229 8.0226
" />
<path d="M56.8229 8.0226
L56.9438 8.0831
" />
<path d="M56.9438 8.0831
L57.0043 8.1436
" />
<path d="M57.0043 8.1436
L57.0648 8.2645
" />
<path d="M57.0648 8.2645
L57.0648 8.5669
" />
<path d="M57.0648 8.5669
L57.0043 8.6879
" />
<path d="M57.0043 8.6879
L56.9438 8.7484
" />
<path d="M56.9438 8.7484
L56.8229 8.8088
" />
<path d="M56.8229 8.8088
L56.5205 8.8088
" />
<path d="M56.5205 8.8088
L56.3995 8.7484
" />
<path d="M56.3995 8.7484
L56.3391 8.6879
" />
<path d="M58.1533 7.9622
L58.1533 8.8088
" />
<path d="M57.8509 7.4784
L57.5486 8.3855
" />
<path d="M57.5486 8.3855
L58.3347 8.3855
" />
<path d="M58.7581 7.6598
L58.8185 7.5993
" />
<path d="M58.8185 7.5993
L58.9395 7.5388
" />
<path d="M58.9395 7.5388
L59.2419 7.5388
" />
<path d="M59.2419 7.5388
L59.3628 7.5993
" />
<path d="M59.3628 7.5993
L59.4233 7.6598
" />
<path d="M59.4233 7.6598
L59.4838 7.7807
" />
<path d="M59.4838 7.7807
L59.4838 7.9017
" />
<path d="M59.4838 7.9017
L59.4233 8.0831
" />
<path d="M59.4233 8.0831
L58.6976 8.8088
" />
<path d="M58.6976 8.8088
L59.4838 8.8088
" />
</g></g> 
</svg>
