<?xml version="1.0" standalone="no"?>
 <!DOCTYPE svg PUBLIC "-//W3C//DTD SVG 1.1//EN" 
 "http://www.w3.org/Graphics/SVG/1.1/DTD/svg11.dtd"> 
<svg
  xmlns:svg="http://www.w3.org/2000/svg"
  xmlns="http://www.w3.org/2000/svg"
  xmlns:xlink="http://www.w3.org/1999/xlink"
  version="1.1"
  width="72.1106mm" height="24.0792mm" viewBox="0.0000 0.0000 72.1106 24.0792">
<title>SVG Image created as qpl9547.svg date 2024/01/16 15:21:17 </title>
  <desc>Image generated by Eeschema-SVG </desc>
<g style="fill:#000000; fill-opacity:1.0000;stroke:#000000; stroke-opacity:1.0000;
stroke-linecap:round; stroke-linejoin:round;"
 transform="translate(0 0) scale(1 1)">
</g>
<g style="fill:#000000; fill-opacity:0.0; 
stroke:#000000; stroke-width:0.0000; stroke-opacity:1; 
stroke-linecap:round; stroke-linejoin:round;">
</g>
<g style="fill:#000000; fill-opacity:0.0; 
stroke:#000000; stroke-width:0.2540; stroke-opacity:1; 
stroke-linecap:round; stroke-linejoin:round;">
<path style="fill:#000000; fill-opacity:0.0; 
stroke:#000000; stroke-width:0.2540; stroke-opacity:1; 
stroke-linecap:round; stroke-linejoin:round;fill:none"
d="M 41.1353,12.0396
30.9753,6.9596
30.9753,17.1196
Z" /> 
</g>
<g style="fill:#000000; fill-opacity:0.0; 
stroke:#000000; stroke-width:0.1524; stroke-opacity:1; 
stroke-linecap:round; stroke-linejoin:round;">
<path d="M33.5153 8.2296
L33.5153 4.4196
" />
<g transform="rotate(-90.000000 33.5153 8.7376)">
<text x="33.5153" y="9.3726"
textLength="2.4408" font-size="1.6933" lengthAdjust="spacingAndGlyphs"
text-anchor="end" opacity="0">Vb</text>
</g>
<g class="stroked-text"><desc>Vb</desc>
<path d="M32.8248 10.9544
L34.0948 10.5311
" />
<path d="M34.0948 10.5311
L32.8248 10.1077
" />
<path d="M34.0948 9.6844
L32.8248 9.6844
" />
<path d="M33.3086 9.6844
L33.2482 9.5634
" />
<path d="M33.2482 9.5634
L33.2482 9.3215
" />
<path d="M33.2482 9.3215
L33.3086 9.2006
" />
<path d="M33.3086 9.2006
L33.3691 9.1401
" />
<path d="M33.3691 9.1401
L33.4901 9.0796
" />
<path d="M33.4901 9.0796
L33.8529 9.0796
" />
<path d="M33.8529 9.0796
L33.9739 9.1401
" />
<path d="M33.9739 9.1401
L34.0344 9.2006
" />
<path d="M34.0344 9.2006
L34.0948 9.3215
" />
<path d="M34.0948 9.3215
L34.0948 9.5634
" />
<path d="M34.0948 9.5634
L34.0344 9.6844
" />
</g><g transform="rotate(-90.000000 33.2613 6.3246)">
<text x="33.2613" y="6.3246"
textLength="1.4127" font-size="1.6933" lengthAdjust="spacingAndGlyphs"
text-anchor="middle" opacity="0">1</text>
</g>
<g class="stroked-text"><desc>1</desc>
<path d="M33.0978 5.9616
L33.0978 6.6873
" />
<path d="M33.0978 6.3245
L31.8278 6.3245
" />
<path d="M31.8278 6.3245
L32.0093 6.4454
" />
<path d="M32.0093 6.4454
L32.1302 6.5664
" />
<path d="M32.1302 6.5664
L32.1907 6.6873
" />
</g><path d="M30.9753 12.0396
L28.4353 12.0396
" />
<text x="29.7053" y="11.7856"
textLength="1.4127" font-size="1.6933" lengthAdjust="spacingAndGlyphs"
text-anchor="middle" opacity="0">2</text>
<g class="stroked-text"><desc>2</desc>
<path d="M29.3425 10.4731
L29.4029 10.4126
" />
<path d="M29.4029 10.4126
L29.5239 10.3521
" />
<path d="M29.5239 10.3521
L29.8263 10.3521
" />
<path d="M29.8263 10.3521
L29.9472 10.4126
" />
<path d="M29.9472 10.4126
L30.0077 10.4731
" />
<path d="M30.0077 10.4731
L30.0682 10.5940
" />
<path d="M30.0682 10.5940
L30.0682 10.7150
" />
<path d="M30.0682 10.7150
L30.0077 10.8964
" />
<path d="M30.0077 10.8964
L29.2820 11.6221
" />
<path d="M29.2820 11.6221
L30.0682 11.6221
" />
</g><path d="M33.5153 15.8496
L33.5153 19.6596
" />
<g transform="rotate(-90.000000 33.5153 15.3416)">
<text x="33.5153" y="15.9766"
textLength="4.0737" font-size="1.6933" lengthAdjust="spacingAndGlyphs"
text-anchor="start" opacity="0">GND</text>
</g>
<g class="stroked-text"><desc>GND</desc>
<path d="M32.8853 14.2737
L32.8248 14.3947
" />
<path d="M32.8248 14.3947
L32.8248 14.5761
" />
<path d="M32.8248 14.5761
L32.8853 14.7575
" />
<path d="M32.8853 14.7575
L33.0063 14.8785
" />
<path d="M33.0063 14.8785
L33.1272 14.9390
" />
<path d="M33.1272 14.9390
L33.3691 14.9994
" />
<path d="M33.3691 14.9994
L33.5505 14.9994
" />
<path d="M33.5505 14.9994
L33.7924 14.9390
" />
<path d="M33.7924 14.9390
L33.9134 14.8785
" />
<path d="M33.9134 14.8785
L34.0344 14.7575
" />
<path d="M34.0344 14.7575
L34.0948 14.5761
" />
<path d="M34.0948 14.5761
L34.0948 14.4552
" />
<path d="M34.0948 14.4552
L34.0344 14.2737
" />
<path d="M34.0344 14.2737
L33.9739 14.2133
" />
<path d="M33.9739 14.2133
L33.5505 14.2133
" />
<path d="M33.5505 14.2133
L33.5505 14.4552
" />
<path d="M34.0948 13.6690
L32.8248 13.6690
" />
<path d="M32.8248 13.6690
L34.0948 12.9433
" />
<path d="M34.0948 12.9433
L32.8248 12.9433
" />
<path d="M34.0948 12.3385
L32.8248 12.3385
" />
<path d="M32.8248 12.3385
L32.8248 12.0361
" />
<path d="M32.8248 12.0361
L32.8853 11.8547
" />
<path d="M32.8853 11.8547
L33.0063 11.7337
" />
<path d="M33.0063 11.7337
L33.1272 11.6732
" />
<path d="M33.1272 11.6732
L33.3691 11.6128
" />
<path d="M33.3691 11.6128
L33.5505 11.6128
" />
<path d="M33.5505 11.6128
L33.7924 11.6732
" />
<path d="M33.7924 11.6732
L33.9134 11.7337
" />
<path d="M33.9134 11.7337
L34.0344 11.8547
" />
<path d="M34.0344 11.8547
L34.0948 12.0361
" />
<path d="M34.0948 12.0361
L34.0948 12.3385
" />
</g><g transform="rotate(-90.000000 33.2613 17.7546)">
<text x="33.2613" y="17.7546"
textLength="1.4127" font-size="1.6933" lengthAdjust="spacingAndGlyphs"
text-anchor="middle" opacity="0">3</text>
</g>
<g class="stroked-text"><desc>3</desc>
<path d="M31.8278 18.1778
L31.8278 17.3916
" />
<path d="M31.8278 17.3916
L32.3116 17.8150
" />
<path d="M32.3116 17.8150
L32.3116 17.6335
" />
<path d="M32.3116 17.6335
L32.3721 17.5126
" />
<path d="M32.3721 17.5126
L32.4326 17.4521
" />
<path d="M32.4326 17.4521
L32.5535 17.3916
" />
<path d="M32.5535 17.3916
L32.8559 17.3916
" />
<path d="M32.8559 17.3916
L32.9769 17.4521
" />
<path d="M32.9769 17.4521
L33.0374 17.5126
" />
<path d="M33.0374 17.5126
L33.0978 17.6335
" />
<path d="M33.0978 17.6335
L33.0978 17.9964
" />
<path d="M33.0978 17.9964
L33.0374 18.1173
" />
<path d="M33.0374 18.1173
L32.9769 18.1778
" />
</g><path d="M36.0553 14.5796
L36.0553 19.6596
" />
<g transform="rotate(-90.000000 36.0553 14.0716)">
<text x="36.0553" y="14.7066"
textLength="2.6827" font-size="1.6933" lengthAdjust="spacingAndGlyphs"
text-anchor="start" opacity="0">~{EN}</text>
</g>
<g class="stroked-text"><desc>~{EN}</desc>
<path d="M35.9696 13.6690
L35.9696 13.2456
" />
<path d="M36.6348 13.0642
L36.6348 13.6690
" />
<path d="M36.6348 13.6690
L35.3648 13.6690
" />
<path d="M35.3648 13.6690
L35.3648 13.0642
" />
<path d="M36.6348 12.5200
L35.3648 12.5200
" />
<path d="M35.3648 12.5200
L36.6348 11.7943
" />
<path d="M36.6348 11.7943
L35.3648 11.7943
" />
<path d="M35.0123 13.8444
L35.0123 11.6189
" />
</g><g transform="rotate(-90.000000 35.8013 17.1196)">
<text x="35.8013" y="17.1196"
textLength="1.4127" font-size="1.6933" lengthAdjust="spacingAndGlyphs"
text-anchor="middle" opacity="0">6</text>
</g>
<g class="stroked-text"><desc>6</desc>
<path d="M34.3678 16.8776
L34.3678 17.1195
" />
<path d="M34.3678 17.1195
L34.4283 17.2404
" />
<path d="M34.4283 17.2404
L34.4888 17.3009
" />
<path d="M34.4888 17.3009
L34.6702 17.4219
" />
<path d="M34.6702 17.4219
L34.9121 17.4823
" />
<path d="M34.9121 17.4823
L35.3959 17.4823
" />
<path d="M35.3959 17.4823
L35.5169 17.4219
" />
<path d="M35.5169 17.4219
L35.5774 17.3614
" />
<path d="M35.5774 17.3614
L35.6378 17.2404
" />
<path d="M35.6378 17.2404
L35.6378 16.9985
" />
<path d="M35.6378 16.9985
L35.5774 16.8776
" />
<path d="M35.5774 16.8776
L35.5169 16.8171
" />
<path d="M35.5169 16.8171
L35.3959 16.7566
" />
<path d="M35.3959 16.7566
L35.0935 16.7566
" />
<path d="M35.0935 16.7566
L34.9726 16.8171
" />
<path d="M34.9726 16.8171
L34.9121 16.8776
" />
<path d="M34.9121 16.8776
L34.8516 16.9985
" />
<path d="M34.8516 16.9985
L34.8516 17.2404
" />
<path d="M34.8516 17.2404
L34.9121 17.3614
" />
<path d="M34.9121 17.3614
L34.9726 17.4219
" />
<path d="M34.9726 17.4219
L35.0935 17.4823
" />
</g><path d="M41.1353 12.0396
L43.6753 12.0396
" />
<text x="42.4053" y="11.7856"
textLength="1.4127" font-size="1.6933" lengthAdjust="spacingAndGlyphs"
text-anchor="middle" opacity="0">7</text>
<g class="stroked-text"><desc>7</desc>
<path d="M41.9820 10.3521
L42.8286 10.3521
" />
<path d="M42.8286 10.3521
L42.2844 11.6221
" />
</g></g>
<g style="fill:#000000; fill-opacity:0.0; 
stroke:#000000; stroke-width:0.1588; stroke-opacity:1; 
stroke-linecap:round; stroke-linejoin:round;">
<text x="37.3253" y="2.5146"
textLength="2.6415" font-size="1.6933" lengthAdjust="spacingAndGlyphs"
text-anchor="middle" opacity="0">U?</text>
<g class="stroked-text"><desc>U?</desc>
<path d="M36.4181 1.1888
L36.4181 2.2169
" />
<path d="M36.4181 2.2169
L36.4786 2.3379
" />
<path d="M36.4786 2.3379
L36.5391 2.3984
" />
<path d="M36.5391 2.3984
L36.6600 2.4588
" />
<path d="M36.6600 2.4588
L36.9019 2.4588
" />
<path d="M36.9019 2.4588
L37.0229 2.3984
" />
<path d="M37.0229 2.3984
L37.0834 2.3379
" />
<path d="M37.0834 2.3379
L37.1438 2.2169
" />
<path d="M37.1438 2.2169
L37.1438 1.1888
" />
<path d="M37.9301 2.3379
L37.9905 2.3984
" />
<path d="M37.9905 2.3984
L37.9301 2.4588
" />
<path d="M37.9301 2.4588
L37.8696 2.3984
" />
<path d="M37.8696 2.3984
L37.9301 2.3379
" />
<path d="M37.9301 2.3379
L37.9301 2.4588
" />
<path d="M37.6882 1.2493
L37.8091 1.1888
" />
<path d="M37.8091 1.1888
L38.1115 1.1888
" />
<path d="M38.1115 1.1888
L38.2324 1.2493
" />
<path d="M38.2324 1.2493
L38.2929 1.3703
" />
<path d="M38.2929 1.3703
L38.2929 1.4912
" />
<path d="M38.2929 1.4912
L38.2324 1.6122
" />
<path d="M38.2324 1.6122
L38.1720 1.6726
" />
<path d="M38.1720 1.6726
L38.0510 1.7331
" />
<path d="M38.0510 1.7331
L37.9905 1.7936
" />
<path d="M37.9905 1.7936
L37.9301 1.9145
" />
<path d="M37.9301 1.9145
L37.9301 1.9750
" />
</g><text x="41.1353" y="7.5946"
textLength="8.6890" font-size="1.6933" lengthAdjust="spacingAndGlyphs"
text-anchor="middle" opacity="0">QPL9547</text>
<g class="stroked-text"><desc>QPL9547</desc>
<path d="M38.0510 7.6598
L37.9300 7.5993
" />
<path d="M37.9300 7.5993
L37.8091 7.4784
" />
<path d="M37.8091 7.4784
L37.6277 7.2969
" />
<path d="M37.6277 7.2969
L37.5067 7.2364
" />
<path d="M37.5067 7.2364
L37.3858 7.2364
" />
<path d="M37.4462 7.5388
L37.3253 7.4784
" />
<path d="M37.3253 7.4784
L37.2043 7.3574
" />
<path d="M37.2043 7.3574
L37.1439 7.1155
" />
<path d="M37.1439 7.1155
L37.1439 6.6922
" />
<path d="M37.1439 6.6922
L37.2043 6.4503
" />
<path d="M37.2043 6.4503
L37.3253 6.3293
" />
<path d="M37.3253 6.3293
L37.4462 6.2688
" />
<path d="M37.4462 6.2688
L37.6881 6.2688
" />
<path d="M37.6881 6.2688
L37.8091 6.3293
" />
<path d="M37.8091 6.3293
L37.9300 6.4503
" />
<path d="M37.9300 6.4503
L37.9905 6.6922
" />
<path d="M37.9905 6.6922
L37.9905 7.1155
" />
<path d="M37.9905 7.1155
L37.9300 7.3574
" />
<path d="M37.9300 7.3574
L37.8091 7.4784
" />
<path d="M37.8091 7.4784
L37.6881 7.5388
" />
<path d="M37.6881 7.5388
L37.4462 7.5388
" />
<path d="M38.5348 7.5388
L38.5348 6.2688
" />
<path d="M38.5348 6.2688
L39.0186 6.2688
" />
<path d="M39.0186 6.2688
L39.1396 6.3293
" />
<path d="M39.1396 6.3293
L39.2001 6.3898
" />
<path d="M39.2001 6.3898
L39.2605 6.5107
" />
<path d="M39.2605 6.5107
L39.2605 6.6922
" />
<path d="M39.2605 6.6922
L39.2001 6.8131
" />
<path d="M39.2001 6.8131
L39.1396 6.8736
" />
<path d="M39.1396 6.8736
L39.0186 6.9341
" />
<path d="M39.0186 6.9341
L38.5348 6.9341
" />
<path d="M40.4096 7.5388
L39.8048 7.5388
" />
<path d="M39.8048 7.5388
L39.8048 6.2688
" />
<path d="M40.8934 7.5388
L41.1353 7.5388
" />
<path d="M41.1353 7.5388
L41.2563 7.4784
" />
<path d="M41.2563 7.4784
L41.3167 7.4179
" />
<path d="M41.3167 7.4179
L41.4377 7.2364
" />
<path d="M41.4377 7.2364
L41.4982 6.9945
" />
<path d="M41.4982 6.9945
L41.4982 6.5107
" />
<path d="M41.4982 6.5107
L41.4377 6.3898
" />
<path d="M41.4377 6.3898
L41.3772 6.3293
" />
<path d="M41.3772 6.3293
L41.2563 6.2688
" />
<path d="M41.2563 6.2688
L41.0144 6.2688
" />
<path d="M41.0144 6.2688
L40.8934 6.3293
" />
<path d="M40.8934 6.3293
L40.8329 6.3898
" />
<path d="M40.8329 6.3898
L40.7725 6.5107
" />
<path d="M40.7725 6.5107
L40.7725 6.8131
" />
<path d="M40.7725 6.8131
L40.8329 6.9341
" />
<path d="M40.8329 6.9341
L40.8934 6.9945
" />
<path d="M40.8934 6.9945
L41.0144 7.0550
" />
<path d="M41.0144 7.0550
L41.2563 7.0550
" />
<path d="M41.2563 7.0550
L41.3772 6.9945
" />
<path d="M41.3772 6.9945
L41.4377 6.9341
" />
<path d="M41.4377 6.9341
L41.4982 6.8131
" />
<path d="M42.6472 6.2688
L42.0424 6.2688
" />
<path d="M42.0424 6.2688
L41.9820 6.8736
" />
<path d="M41.9820 6.8736
L42.0424 6.8131
" />
<path d="M42.0424 6.8131
L42.1634 6.7526
" />
<path d="M42.1634 6.7526
L42.4658 6.7526
" />
<path d="M42.4658 6.7526
L42.5867 6.8131
" />
<path d="M42.5867 6.8131
L42.6472 6.8736
" />
<path d="M42.6472 6.8736
L42.7077 6.9945
" />
<path d="M42.7077 6.9945
L42.7077 7.2969
" />
<path d="M42.7077 7.2969
L42.6472 7.4179
" />
<path d="M42.6472 7.4179
L42.5867 7.4784
" />
<path d="M42.5867 7.4784
L42.4658 7.5388
" />
<path d="M42.4658 7.5388
L42.1634 7.5388
" />
<path d="M42.1634 7.5388
L42.0424 7.4784
" />
<path d="M42.0424 7.4784
L41.9820 7.4179
" />
<path d="M43.7962 6.6922
L43.7962 7.5388
" />
<path d="M43.4938 6.2084
L43.1915 7.1155
" />
<path d="M43.1915 7.1155
L43.9776 7.1155
" />
<path d="M44.3405 6.2688
L45.1871 6.2688
" />
<path d="M45.1871 6.2688
L44.6429 7.5388
" />
</g></g> 
</svg>
