<?xml version="1.0" standalone="no"?>
 <!DOCTYPE svg PUBLIC "-//W3C//DTD SVG 1.1//EN" 
 "http://www.w3.org/Graphics/SVG/1.1/DTD/svg11.dtd"> 
<svg
  xmlns:svg="http://www.w3.org/2000/svg"
  xmlns="http://www.w3.org/2000/svg"
  xmlns:xlink="http://www.w3.org/1999/xlink"
  version="1.1"
  width="44.9072mm" height="24.3840mm" viewBox="0.0000 0.0000 44.9072 24.3840">
<title>SVG Image created as ecl82_1.svg date 2024/01/16 15:12:42 </title>
  <desc>Image generated by Eeschema-SVG </desc>
<g style="fill:#000000; fill-opacity:1.0000;stroke:#000000; stroke-opacity:1.0000;
stroke-linecap:round; stroke-linejoin:round;"
 transform="translate(0 0) scale(1 1)">
</g>
<g style="fill:#840000; fill-opacity:0.0; 
stroke:#840000; stroke-width:0.0000; stroke-opacity:1; 
stroke-linecap:round; stroke-linejoin:round;">
</g>
<g style="fill:#840084; fill-opacity:0.0; 
stroke:#840084; stroke-width:0.0000; stroke-opacity:1; 
stroke-linecap:round; stroke-linejoin:round;">
</g>
<g style="fill:#840000; fill-opacity:0.0; 
stroke:#840000; stroke-width:0.0000; stroke-opacity:1; 
stroke-linecap:round; stroke-linejoin:round;">
</g>
<g style="fill:#840000; fill-opacity:0.0; 
stroke:#840000; stroke-width:0.1524; stroke-opacity:1; 
stroke-linecap:round; stroke-linejoin:round;">
<path d="M17.3736 14.7320 A5.0800 5.0800 0.0 0 0 27.5336 14.7320" />
<path style="fill:#840000; fill-opacity:0.0; 
stroke:#840000; stroke-width:0.1524; stroke-opacity:1; 
stroke-linecap:round; stroke-linejoin:round;fill:none"
d="M 27.5336,9.6520
27.5336,14.7320
" /> 
<path style="fill:#840000; fill-opacity:0.0; 
stroke:#840000; stroke-width:0.1524; stroke-opacity:1; 
stroke-linecap:round; stroke-linejoin:round;fill:none"
d="M 17.3736,9.6520
17.3736,14.7320
17.3736,14.7320
17.3736,14.7320
" /> 
<path d="M27.5336 9.6520 A5.0800 5.0800 0.0 0 0 17.3736 9.6520" />
<path style="fill:#840000; fill-opacity:0.0; 
stroke:#840000; stroke-width:0.1524; stroke-opacity:1; 
stroke-linecap:round; stroke-linejoin:round;fill:none"
d="M 19.9136,17.2720
19.9136,19.8120
" /> 
<path style="fill:#840000; fill-opacity:0.0; 
stroke:#840000; stroke-width:0.1524; stroke-opacity:1; 
stroke-linecap:round; stroke-linejoin:round;fill:none"
d="M 17.3736,12.1920
19.2786,12.1920
" /> 
</g>
<g style="fill:#840000; fill-opacity:0.0; 
stroke:#840000; stroke-width:0.2032; stroke-opacity:1; 
stroke-linecap:round; stroke-linejoin:round;">
<path style="fill:#840000; fill-opacity:0.0; 
stroke:#840000; stroke-width:0.2032; stroke-opacity:1; 
stroke-linecap:round; stroke-linejoin:round;fill:none"
d="M 20.5486,12.1920
19.2786,12.1920
" /> 
<path style="fill:#840000; fill-opacity:0.0; 
stroke:#840000; stroke-width:0.2032; stroke-opacity:1; 
stroke-linecap:round; stroke-linejoin:round;fill:none"
d="M 21.8186,12.1920
23.0886,12.1920
" /> 
</g>
<g style="fill:#840000; fill-opacity:0.0; 
stroke:#840000; stroke-width:0.1524; stroke-opacity:1; 
stroke-linecap:round; stroke-linejoin:round;">
<path style="fill:#840000; fill-opacity:0.0; 
stroke:#840000; stroke-width:0.1524; stroke-opacity:1; 
stroke-linecap:round; stroke-linejoin:round;fill:none"
d="M 22.4536,7.1120
22.4536,4.5720
" /> 
</g>
<g style="fill:#840000; fill-opacity:0.0; 
stroke:#840000; stroke-width:0.2032; stroke-opacity:1; 
stroke-linecap:round; stroke-linejoin:round;">
<path style="fill:#840000; fill-opacity:0.0; 
stroke:#840000; stroke-width:0.2032; stroke-opacity:1; 
stroke-linecap:round; stroke-linejoin:round;fill:none"
d="M 24.3586,12.1920
25.6286,12.1920
" /> 
</g>
<g style="fill:#840000; fill-opacity:0.0; 
stroke:#840000; stroke-width:0.2540; stroke-opacity:1; 
stroke-linecap:round; stroke-linejoin:round;">
<path style="fill:#840000; fill-opacity:0.0; 
stroke:#840000; stroke-width:0.2540; stroke-opacity:1; 
stroke-linecap:round; stroke-linejoin:round;fill:none"
d="M 19.9136,7.1120
24.9936,7.1120
24.9936,7.1120
" /> 
<path d="M24.9936 17.2720 A2.6182 2.6182 0.0 0 0 19.9136 17.2720" />
</g>
<g style="fill:#840000; fill-opacity:0.0; 
stroke:#840000; stroke-width:0.1524; stroke-opacity:1; 
stroke-linecap:round; stroke-linejoin:round;">
<path d="M17.3736 12.1920
L14.8336 12.1920
" />
</g>
<g style="fill:#006464; fill-opacity:0.0; 
stroke:#006464; stroke-width:0.1524; stroke-opacity:1; 
stroke-linecap:round; stroke-linejoin:round;">
<text x="16.1036" y="11.9380"
textLength="1.4732" font-size="1.6933" lengthAdjust="spacingAndGlyphs"
text-anchor="middle" opacity="0">G</text>
<g class="stroked-text"><desc>G</desc>
<path d="M16.4362 10.5650
L16.3152 10.5045
" />
<path d="M16.3152 10.5045
L16.1338 10.5045
" />
<path d="M16.1338 10.5045
L15.9524 10.5650
" />
<path d="M15.9524 10.5650
L15.8314 10.6860
" />
<path d="M15.8314 10.6860
L15.7709 10.8069
" />
<path d="M15.7709 10.8069
L15.7105 11.0488
" />
<path d="M15.7105 11.0488
L15.7105 11.2302
" />
<path d="M15.7105 11.2302
L15.7709 11.4721
" />
<path d="M15.7709 11.4721
L15.8314 11.5931
" />
<path d="M15.8314 11.5931
L15.9524 11.7141
" />
<path d="M15.9524 11.7141
L16.1338 11.7745
" />
<path d="M16.1338 11.7745
L16.2547 11.7745
" />
<path d="M16.2547 11.7745
L16.4362 11.7141
" />
<path d="M16.4362 11.7141
L16.4966 11.6536
" />
<path d="M16.4966 11.6536
L16.4966 11.2302
" />
<path d="M16.4966 11.2302
L16.2547 11.2302
" />
</g></g>
<g style="fill:#A90000; fill-opacity:0.0; 
stroke:#A90000; stroke-width:0.1524; stroke-opacity:1; 
stroke-linecap:round; stroke-linejoin:round;">
<text x="16.1036" y="13.7160"
textLength="1.4127" font-size="1.6933" lengthAdjust="spacingAndGlyphs"
text-anchor="middle" opacity="0">1</text>
<g class="stroked-text"><desc>1</desc>
<path d="M16.4665 13.7684
L15.7408 13.7684
" />
<path d="M16.1036 13.7684
L16.1036 12.4984
" />
<path d="M16.1036 12.4984
L15.9827 12.6799
" />
<path d="M15.9827 12.6799
L15.8617 12.8008
" />
<path d="M15.8617 12.8008
L15.7408 12.8613
" />
</g></g>
<g style="fill:#840000; fill-opacity:0.0; 
stroke:#840000; stroke-width:0.1524; stroke-opacity:1; 
stroke-linecap:round; stroke-linejoin:round;">
<path d="M19.9136 19.8120
L19.9136 22.3520
" />
</g>
<g style="fill:#006464; fill-opacity:0.0; 
stroke:#006464; stroke-width:0.1524; stroke-opacity:1; 
stroke-linecap:round; stroke-linejoin:round;">
<g transform="rotate(-90.000000 19.6596 21.0820)">
<text x="19.6596" y="21.0820"
textLength="1.4732" font-size="1.6933" lengthAdjust="spacingAndGlyphs"
text-anchor="middle" opacity="0">K</text>
</g>
<g class="stroked-text"><desc>K</desc>
<path d="M19.4961 21.4146
L18.2261 21.4146
" />
<path d="M19.4961 20.6889
L18.7704 21.2331
" />
<path d="M18.2261 20.6889
L18.9518 21.4146
" />
</g></g>
<g style="fill:#A90000; fill-opacity:0.0; 
stroke:#A90000; stroke-width:0.1524; stroke-opacity:1; 
stroke-linecap:round; stroke-linejoin:round;">
<g transform="rotate(-90.000000 20.1676 21.0820)">
<text x="20.1676" y="22.3520"
textLength="1.4127" font-size="1.6933" lengthAdjust="spacingAndGlyphs"
text-anchor="middle" opacity="0">8</text>
</g>
<g class="stroked-text"><desc>8</desc>
<path d="M20.7643 21.2028
L20.7038 21.3238
" />
<path d="M20.7038 21.3238
L20.6434 21.3843
" />
<path d="M20.6434 21.3843
L20.5224 21.4447
" />
<path d="M20.5224 21.4447
L20.4619 21.4447
" />
<path d="M20.4619 21.4447
L20.3410 21.3843
" />
<path d="M20.3410 21.3843
L20.2805 21.3238
" />
<path d="M20.2805 21.3238
L20.2200 21.2028
" />
<path d="M20.2200 21.2028
L20.2200 20.9609
" />
<path d="M20.2200 20.9609
L20.2805 20.8400
" />
<path d="M20.2805 20.8400
L20.3410 20.7795
" />
<path d="M20.3410 20.7795
L20.4619 20.7190
" />
<path d="M20.4619 20.7190
L20.5224 20.7190
" />
<path d="M20.5224 20.7190
L20.6434 20.7795
" />
<path d="M20.6434 20.7795
L20.7038 20.8400
" />
<path d="M20.7038 20.8400
L20.7643 20.9609
" />
<path d="M20.7643 20.9609
L20.7643 21.2028
" />
<path d="M20.7643 21.2028
L20.8248 21.3238
" />
<path d="M20.8248 21.3238
L20.8853 21.3843
" />
<path d="M20.8853 21.3843
L21.0062 21.4447
" />
<path d="M21.0062 21.4447
L21.2481 21.4447
" />
<path d="M21.2481 21.4447
L21.3691 21.3843
" />
<path d="M21.3691 21.3843
L21.4296 21.3238
" />
<path d="M21.4296 21.3238
L21.4900 21.2028
" />
<path d="M21.4900 21.2028
L21.4900 20.9609
" />
<path d="M21.4900 20.9609
L21.4296 20.8400
" />
<path d="M21.4296 20.8400
L21.3691 20.7795
" />
<path d="M21.3691 20.7795
L21.2481 20.7190
" />
<path d="M21.2481 20.7190
L21.0062 20.7190
" />
<path d="M21.0062 20.7190
L20.8853 20.7795
" />
<path d="M20.8853 20.7795
L20.8248 20.8400
" />
<path d="M20.8248 20.8400
L20.7643 20.9609
" />
</g></g>
<g style="fill:#840000; fill-opacity:0.0; 
stroke:#840000; stroke-width:0.1524; stroke-opacity:1; 
stroke-linecap:round; stroke-linejoin:round;">
<path d="M22.4536 4.5720
L22.4536 2.0320
" />
</g>
<g style="fill:#006464; fill-opacity:0.0; 
stroke:#006464; stroke-width:0.1524; stroke-opacity:1; 
stroke-linecap:round; stroke-linejoin:round;">
<g transform="rotate(-90.000000 22.1996 3.3020)">
<text x="22.1996" y="3.3020"
textLength="1.2918" font-size="1.6933" lengthAdjust="spacingAndGlyphs"
text-anchor="middle" opacity="0">A</text>
</g>
<g class="stroked-text"><desc>A</desc>
<path d="M21.6733 3.6043
L21.6733 2.9996
" />
<path d="M22.0361 3.7253
L20.7661 3.3020
" />
<path d="M20.7661 3.3020
L22.0361 2.8786
" />
</g></g>
<g style="fill:#A90000; fill-opacity:0.0; 
stroke:#A90000; stroke-width:0.1524; stroke-opacity:1; 
stroke-linecap:round; stroke-linejoin:round;">
<g transform="rotate(-90.000000 22.7076 3.3020)">
<text x="22.7076" y="4.5720"
textLength="1.4127" font-size="1.6933" lengthAdjust="spacingAndGlyphs"
text-anchor="middle" opacity="0">9</text>
</g>
<g class="stroked-text"><desc>9</desc>
<path d="M24.0300 3.5438
L24.0300 3.3019
" />
<path d="M24.0300 3.3019
L23.9696 3.1809
" />
<path d="M23.9696 3.1809
L23.9091 3.1205
" />
<path d="M23.9091 3.1205
L23.7276 2.9995
" />
<path d="M23.7276 2.9995
L23.4857 2.9390
" />
<path d="M23.4857 2.9390
L23.0019 2.9390
" />
<path d="M23.0019 2.9390
L22.8810 2.9995
" />
<path d="M22.8810 2.9995
L22.8205 3.0600
" />
<path d="M22.8205 3.0600
L22.7600 3.1809
" />
<path d="M22.7600 3.1809
L22.7600 3.4228
" />
<path d="M22.7600 3.4228
L22.8205 3.5438
" />
<path d="M22.8205 3.5438
L22.8810 3.6043
" />
<path d="M22.8810 3.6043
L23.0019 3.6647
" />
<path d="M23.0019 3.6647
L23.3043 3.6647
" />
<path d="M23.3043 3.6647
L23.4253 3.6043
" />
<path d="M23.4253 3.6043
L23.4857 3.5438
" />
<path d="M23.4857 3.5438
L23.5462 3.4228
" />
<path d="M23.5462 3.4228
L23.5462 3.1809
" />
<path d="M23.5462 3.1809
L23.4857 3.0600
" />
<path d="M23.4857 3.0600
L23.4253 2.9995
" />
<path d="M23.4253 2.9995
L23.3043 2.9390
" />
</g></g>
<g style="fill:#840084; fill-opacity:0.0; 
stroke:#840084; stroke-width:0.1524; stroke-opacity:1; 
stroke-linecap:round; stroke-linejoin:round;">
</g>
<g style="fill:#006464; fill-opacity:0.0; 
stroke:#006464; stroke-width:0.1524; stroke-opacity:1; 
stroke-linecap:round; stroke-linejoin:round;">
</g>
<g style="fill:#006464; fill-opacity:0.0; 
stroke:#006464; stroke-width:0.1588; stroke-opacity:1; 
stroke-linecap:round; stroke-linejoin:round;">
<text x="26.2636" y="5.2070"
textLength="3.7301" font-size="1.6933" lengthAdjust="spacingAndGlyphs"
text-anchor="middle" opacity="0">U?A</text>
<g class="stroked-text"><desc>U?A</desc>
<path d="M24.8121 3.8812
L24.8121 4.9093
" />
<path d="M24.8121 4.9093
L24.8726 5.0303
" />
<path d="M24.8726 5.0303
L24.9331 5.0908
" />
<path d="M24.9331 5.0908
L25.0540 5.1512
" />
<path d="M25.0540 5.1512
L25.2959 5.1512
" />
<path d="M25.2959 5.1512
L25.4169 5.0908
" />
<path d="M25.4169 5.0908
L25.4774 5.0303
" />
<path d="M25.4774 5.0303
L25.5378 4.9093
" />
<path d="M25.5378 4.9093
L25.5378 3.8812
" />
<path d="M26.3241 5.0303
L26.3845 5.0908
" />
<path d="M26.3845 5.0908
L26.3241 5.1512
" />
<path d="M26.3241 5.1512
L26.2636 5.0908
" />
<path d="M26.2636 5.0908
L26.3241 5.0303
" />
<path d="M26.3241 5.0303
L26.3241 5.1512
" />
<path d="M26.0822 3.9417
L26.2031 3.8812
" />
<path d="M26.2031 3.8812
L26.5055 3.8812
" />
<path d="M26.5055 3.8812
L26.6264 3.9417
" />
<path d="M26.6264 3.9417
L26.6869 4.0627
" />
<path d="M26.6869 4.0627
L26.6869 4.1836
" />
<path d="M26.6869 4.1836
L26.6264 4.3046
" />
<path d="M26.6264 4.3046
L26.5660 4.3650
" />
<path d="M26.5660 4.3650
L26.4450 4.4255
" />
<path d="M26.4450 4.4255
L26.3845 4.4860
" />
<path d="M26.3845 4.4860
L26.3241 4.6069
" />
<path d="M26.3241 4.6069
L26.3241 4.6674
" />
<path d="M27.1708 4.7884
L27.7755 4.7884
" />
<path d="M27.0498 5.1512
L27.4731 3.8812
" />
<path d="M27.4731 3.8812
L27.8965 5.1512
" />
</g><text x="30.0736" y="21.7170"
textLength="6.0885" font-size="1.6933" lengthAdjust="spacingAndGlyphs"
text-anchor="middle" opacity="0">ECL82</text>
<g class="stroked-text"><desc>ECL82</desc>
<path d="M27.4429 20.9960
L27.8663 20.9960
" />
<path d="M28.0477 21.6612
L27.4429 21.6612
" />
<path d="M27.4429 21.6612
L27.4429 20.3912
" />
<path d="M27.4429 20.3912
L28.0477 20.3912
" />
<path d="M29.3176 21.5403
L29.2572 21.6008
" />
<path d="M29.2572 21.6008
L29.0757 21.6612
" />
<path d="M29.0757 21.6612
L28.9548 21.6612
" />
<path d="M28.9548 21.6612
L28.7734 21.6008
" />
<path d="M28.7734 21.6008
L28.6524 21.4798
" />
<path d="M28.6524 21.4798
L28.5919 21.3588
" />
<path d="M28.5919 21.3588
L28.5315 21.1169
" />
<path d="M28.5315 21.1169
L28.5315 20.9355
" />
<path d="M28.5315 20.9355
L28.5919 20.6936
" />
<path d="M28.5919 20.6936
L28.6524 20.5727
" />
<path d="M28.6524 20.5727
L28.7734 20.4517
" />
<path d="M28.7734 20.4517
L28.9548 20.3912
" />
<path d="M28.9548 20.3912
L29.0757 20.3912
" />
<path d="M29.0757 20.3912
L29.2572 20.4517
" />
<path d="M29.2572 20.4517
L29.3176 20.5122
" />
<path d="M30.4667 21.6612
L29.8619 21.6612
" />
<path d="M29.8619 21.6612
L29.8619 20.3912
" />
<path d="M31.0715 20.9355
L30.9505 20.8750
" />
<path d="M30.9505 20.8750
L30.8900 20.8146
" />
<path d="M30.8900 20.8146
L30.8296 20.6936
" />
<path d="M30.8296 20.6936
L30.8296 20.6331
" />
<path d="M30.8296 20.6331
L30.8900 20.5122
" />
<path d="M30.8900 20.5122
L30.9505 20.4517
" />
<path d="M30.9505 20.4517
L31.0715 20.3912
" />
<path d="M31.0715 20.3912
L31.3134 20.3912
" />
<path d="M31.3134 20.3912
L31.4343 20.4517
" />
<path d="M31.4343 20.4517
L31.4948 20.5122
" />
<path d="M31.4948 20.5122
L31.5553 20.6331
" />
<path d="M31.5553 20.6331
L31.5553 20.6936
" />
<path d="M31.5553 20.6936
L31.4948 20.8146
" />
<path d="M31.4948 20.8146
L31.4343 20.8750
" />
<path d="M31.4343 20.8750
L31.3134 20.9355
" />
<path d="M31.3134 20.9355
L31.0715 20.9355
" />
<path d="M31.0715 20.9355
L30.9505 20.9960
" />
<path d="M30.9505 20.9960
L30.8900 21.0565
" />
<path d="M30.8900 21.0565
L30.8296 21.1774
" />
<path d="M30.8296 21.1774
L30.8296 21.4193
" />
<path d="M30.8296 21.4193
L30.8900 21.5403
" />
<path d="M30.8900 21.5403
L30.9505 21.6008
" />
<path d="M30.9505 21.6008
L31.0715 21.6612
" />
<path d="M31.0715 21.6612
L31.3134 21.6612
" />
<path d="M31.3134 21.6612
L31.4343 21.6008
" />
<path d="M31.4343 21.6008
L31.4948 21.5403
" />
<path d="M31.4948 21.5403
L31.5553 21.4193
" />
<path d="M31.5553 21.4193
L31.5553 21.1774
" />
<path d="M31.5553 21.1774
L31.4948 21.0565
" />
<path d="M31.4948 21.0565
L31.4343 20.9960
" />
<path d="M31.4343 20.9960
L31.3134 20.9355
" />
<path d="M32.0391 20.5122
L32.0995 20.4517
" />
<path d="M32.0995 20.4517
L32.2205 20.3912
" />
<path d="M32.2205 20.3912
L32.5229 20.3912
" />
<path d="M32.5229 20.3912
L32.6438 20.4517
" />
<path d="M32.6438 20.4517
L32.7043 20.5122
" />
<path d="M32.7043 20.5122
L32.7648 20.6331
" />
<path d="M32.7648 20.6331
L32.7648 20.7541
" />
<path d="M32.7648 20.7541
L32.7043 20.9355
" />
<path d="M32.7043 20.9355
L31.9786 21.6612
" />
<path d="M31.9786 21.6612
L32.7648 21.6612
" />
</g></g> 
</svg>
