<?xml version="1.0" standalone="no"?>
 <!DOCTYPE svg PUBLIC "-//W3C//DTD SVG 1.1//EN" 
 "http://www.w3.org/Graphics/SVG/1.1/DTD/svg11.dtd"> 
<svg
  xmlns:svg="http://www.w3.org/2000/svg"
  xmlns="http://www.w3.org/2000/svg"
  xmlns:xlink="http://www.w3.org/1999/xlink"
  version="1.1"
  width="56.0070mm" height="19.5072mm" viewBox="0.0000 0.0000 56.0070 19.5072">
<title>SVG Image created as lm319h_1.svg date 2024/01/16 15:09:05 </title>
  <desc>Image generated by Eeschema-SVG </desc>
<g style="fill:#000000; fill-opacity:1.0000;stroke:#000000; stroke-opacity:1.0000;
stroke-linecap:round; stroke-linejoin:round;"
 transform="translate(0 0) scale(1 1)">
</g>
<g style="fill:#840000; fill-opacity:0.0; 
stroke:#840000; stroke-width:0.0000; stroke-opacity:1; 
stroke-linecap:round; stroke-linejoin:round;">
</g>
<g style="fill:#FFFFC2; fill-opacity:0.0; 
stroke:#FFFFC2; stroke-width:0.0000; stroke-opacity:1; 
stroke-linecap:round; stroke-linejoin:round;">
</g>
<g style="fill:#FFFFC2; fill-opacity:1.0000; 
stroke:#FFFFC2; stroke-width:0.0000; stroke-opacity:1; 
stroke-linecap:round; stroke-linejoin:round;">
<path style="fill:#FFFFC2; fill-opacity:1.0000; 
stroke:#FFFFC2; stroke-width:0.0000; stroke-opacity:1; 
stroke-linecap:round; stroke-linejoin:round;fill-rule:evenodd;"
d="M 33.0835,9.7536
22.9235,4.6736
22.9235,14.8336
Z" /> 
</g>
<g style="fill:#840084; fill-opacity:1.0000; 
stroke:#840084; stroke-width:0.0000; stroke-opacity:1; 
stroke-linecap:round; stroke-linejoin:round;">
</g>
<g style="fill:#840000; fill-opacity:1.0000; 
stroke:#840000; stroke-width:0.0000; stroke-opacity:1; 
stroke-linecap:round; stroke-linejoin:round;">
</g>
<g style="fill:#840000; fill-opacity:0.0; 
stroke:#840000; stroke-width:0.2540; stroke-opacity:1; 
stroke-linecap:round; stroke-linejoin:round;">
<path style="fill:#840000; fill-opacity:0.0; 
stroke:#840000; stroke-width:0.2540; stroke-opacity:1; 
stroke-linecap:round; stroke-linejoin:round;fill:none"
d="M 33.0835,9.7536
22.9235,4.6736
22.9235,14.8336
Z" /> 
</g>
<g style="fill:#840000; fill-opacity:0.0; 
stroke:#840000; stroke-width:0.1270; stroke-opacity:1; 
stroke-linecap:round; stroke-linejoin:round;">
<path style="fill:#840000; fill-opacity:0.0; 
stroke:#840000; stroke-width:0.1270; stroke-opacity:1; 
stroke-linecap:round; stroke-linejoin:round;fill:none"
d="M 31.3055,10.2616
30.7975,10.2616
31.3055,9.7536
30.7975,9.2456
30.2895,9.7536
30.7975,10.2616
30.2895,10.2616
" /> 
</g>
<g style="fill:#840000; fill-opacity:0.0; 
stroke:#840000; stroke-width:0.1524; stroke-opacity:1; 
stroke-linecap:round; stroke-linejoin:round;">
<path d="M33.0835 9.7536
L35.6235 9.7536
" />
</g>
<g style="fill:#A90000; fill-opacity:0.0; 
stroke:#A90000; stroke-width:0.1524; stroke-opacity:1; 
stroke-linecap:round; stroke-linejoin:round;">
<text x="34.3535" y="9.4996"
textLength="1.4127" font-size="1.6933" lengthAdjust="spacingAndGlyphs"
text-anchor="middle" opacity="0">1</text>
<g class="stroked-text"><desc>1</desc>
<path d="M34.7164 9.3361
L33.9907 9.3361
" />
<path d="M34.3535 9.3361
L34.3535 8.0661
" />
<path d="M34.3535 8.0661
L34.2326 8.2476
" />
<path d="M34.2326 8.2476
L34.1116 8.3685
" />
<path d="M34.1116 8.3685
L33.9907 8.4290
" />
</g></g>
<g style="fill:#840000; fill-opacity:0.0; 
stroke:#840000; stroke-width:0.1524; stroke-opacity:1; 
stroke-linecap:round; stroke-linejoin:round;">
<path d="M28.0035 12.2936
L28.0035 17.3736
" />
</g>
<g style="fill:#006464; fill-opacity:0.0; 
stroke:#006464; stroke-width:0.1524; stroke-opacity:1; 
stroke-linecap:round; stroke-linejoin:round;">
<g transform="rotate(-90.000000 28.0035 12.1666)">
<text x="28.0035" y="12.8016"
textLength="4.0737" font-size="1.6933" lengthAdjust="spacingAndGlyphs"
text-anchor="start" opacity="0">GND</text>
</g>
<g class="stroked-text"><desc>GND</desc>
<path d="M27.3735 11.0987
L27.3130 11.2197
" />
<path d="M27.3130 11.2197
L27.3130 11.4011
" />
<path d="M27.3130 11.4011
L27.3735 11.5825
" />
<path d="M27.3735 11.5825
L27.4945 11.7035
" />
<path d="M27.4945 11.7035
L27.6154 11.7640
" />
<path d="M27.6154 11.7640
L27.8573 11.8244
" />
<path d="M27.8573 11.8244
L28.0387 11.8244
" />
<path d="M28.0387 11.8244
L28.2806 11.7640
" />
<path d="M28.2806 11.7640
L28.4016 11.7035
" />
<path d="M28.4016 11.7035
L28.5226 11.5825
" />
<path d="M28.5226 11.5825
L28.5830 11.4011
" />
<path d="M28.5830 11.4011
L28.5830 11.2802
" />
<path d="M28.5830 11.2802
L28.5226 11.0987
" />
<path d="M28.5226 11.0987
L28.4621 11.0383
" />
<path d="M28.4621 11.0383
L28.0387 11.0383
" />
<path d="M28.0387 11.0383
L28.0387 11.2802
" />
<path d="M28.5830 10.4940
L27.3130 10.4940
" />
<path d="M27.3130 10.4940
L28.5830 9.7683
" />
<path d="M28.5830 9.7683
L27.3130 9.7683
" />
<path d="M28.5830 9.1635
L27.3130 9.1635
" />
<path d="M27.3130 9.1635
L27.3130 8.8611
" />
<path d="M27.3130 8.8611
L27.3735 8.6797
" />
<path d="M27.3735 8.6797
L27.4945 8.5587
" />
<path d="M27.4945 8.5587
L27.6154 8.4982
" />
<path d="M27.6154 8.4982
L27.8573 8.4378
" />
<path d="M27.8573 8.4378
L28.0387 8.4378
" />
<path d="M28.0387 8.4378
L28.2806 8.4982
" />
<path d="M28.2806 8.4982
L28.4016 8.5587
" />
<path d="M28.4016 8.5587
L28.5226 8.6797
" />
<path d="M28.5226 8.6797
L28.5830 8.8611
" />
<path d="M28.5830 8.8611
L28.5830 9.1635
" />
</g></g>
<g style="fill:#A90000; fill-opacity:0.0; 
stroke:#A90000; stroke-width:0.1524; stroke-opacity:1; 
stroke-linecap:round; stroke-linejoin:round;">
<g transform="rotate(-90.000000 27.7495 14.8336)">
<text x="27.7495" y="14.8336"
textLength="1.4127" font-size="1.6933" lengthAdjust="spacingAndGlyphs"
text-anchor="middle" opacity="0">2</text>
</g>
<g class="stroked-text"><desc>2</desc>
<path d="M26.4370 15.1963
L26.3765 15.1359
" />
<path d="M26.3765 15.1359
L26.3160 15.0149
" />
<path d="M26.3160 15.0149
L26.3160 14.7125
" />
<path d="M26.3160 14.7125
L26.3765 14.5916
" />
<path d="M26.3765 14.5916
L26.4370 14.5311
" />
<path d="M26.4370 14.5311
L26.5579 14.4706
" />
<path d="M26.5579 14.4706
L26.6789 14.4706
" />
<path d="M26.6789 14.4706
L26.8603 14.5311
" />
<path d="M26.8603 14.5311
L27.5860 15.2568
" />
<path d="M27.5860 15.2568
L27.5860 14.4706
" />
</g></g>
<g style="fill:#840000; fill-opacity:0.0; 
stroke:#840000; stroke-width:0.1524; stroke-opacity:1; 
stroke-linecap:round; stroke-linejoin:round;">
<path d="M22.9235 7.2136
L20.3835 7.2136
" />
</g>
<g style="fill:#006464; fill-opacity:0.0; 
stroke:#006464; stroke-width:0.1524; stroke-opacity:1; 
stroke-linecap:round; stroke-linejoin:round;">
<text x="23.0505" y="7.8486"
textLength="1.7756" font-size="1.6933" lengthAdjust="spacingAndGlyphs"
text-anchor="start" opacity="0">+</text>
<g class="stroked-text"><desc>+</desc>
<path d="M23.4530 7.3093
L24.4207 7.3093
" />
<path d="M23.9368 7.7931
L23.9368 6.8255
" />
</g></g>
<g style="fill:#A90000; fill-opacity:0.0; 
stroke:#A90000; stroke-width:0.1524; stroke-opacity:1; 
stroke-linecap:round; stroke-linejoin:round;">
<text x="21.6535" y="6.9596"
textLength="1.4127" font-size="1.6933" lengthAdjust="spacingAndGlyphs"
text-anchor="middle" opacity="0">3</text>
<g class="stroked-text"><desc>3</desc>
<path d="M21.2302 5.5261
L22.0164 5.5261
" />
<path d="M22.0164 5.5261
L21.5930 6.0099
" />
<path d="M21.5930 6.0099
L21.7745 6.0099
" />
<path d="M21.7745 6.0099
L21.8954 6.0704
" />
<path d="M21.8954 6.0704
L21.9559 6.1309
" />
<path d="M21.9559 6.1309
L22.0164 6.2518
" />
<path d="M22.0164 6.2518
L22.0164 6.5542
" />
<path d="M22.0164 6.5542
L21.9559 6.6752
" />
<path d="M21.9559 6.6752
L21.8954 6.7357
" />
<path d="M21.8954 6.7357
L21.7745 6.7961
" />
<path d="M21.7745 6.7961
L21.4116 6.7961
" />
<path d="M21.4116 6.7961
L21.2907 6.7357
" />
<path d="M21.2907 6.7357
L21.2302 6.6752
" />
</g></g>
<g style="fill:#840000; fill-opacity:0.0; 
stroke:#840000; stroke-width:0.1524; stroke-opacity:1; 
stroke-linecap:round; stroke-linejoin:round;">
<path d="M22.9235 12.2936
L20.3835 12.2936
" />
</g>
<g style="fill:#006464; fill-opacity:0.0; 
stroke:#006464; stroke-width:0.1524; stroke-opacity:1; 
stroke-linecap:round; stroke-linejoin:round;">
<text x="23.0505" y="12.9286"
textLength="1.7756" font-size="1.6933" lengthAdjust="spacingAndGlyphs"
text-anchor="start" opacity="0">-</text>
<g class="stroked-text"><desc>-</desc>
<path d="M23.4530 12.3893
L24.4207 12.3893
" />
</g></g>
<g style="fill:#A90000; fill-opacity:0.0; 
stroke:#A90000; stroke-width:0.1524; stroke-opacity:1; 
stroke-linecap:round; stroke-linejoin:round;">
<text x="21.6535" y="12.0396"
textLength="1.4127" font-size="1.6933" lengthAdjust="spacingAndGlyphs"
text-anchor="middle" opacity="0">4</text>
<g class="stroked-text"><desc>4</desc>
<path d="M21.8954 11.0295
L21.8954 11.8761
" />
<path d="M21.5930 10.5457
L21.2907 11.4528
" />
<path d="M21.2907 11.4528
L22.0768 11.4528
" />
</g></g>
<g style="fill:#840084; fill-opacity:0.0; 
stroke:#840084; stroke-width:0.1524; stroke-opacity:1; 
stroke-linecap:round; stroke-linejoin:round;">
</g>
<g style="fill:#006464; fill-opacity:0.0; 
stroke:#006464; stroke-width:0.1524; stroke-opacity:1; 
stroke-linecap:round; stroke-linejoin:round;">
</g>
<g style="fill:#006464; fill-opacity:0.0; 
stroke:#006464; stroke-width:0.1588; stroke-opacity:1; 
stroke-linecap:round; stroke-linejoin:round;">
<text x="29.8685" y="2.7686"
textLength="3.7301" font-size="1.6933" lengthAdjust="spacingAndGlyphs"
text-anchor="middle" opacity="0">U?A</text>
<g class="stroked-text"><desc>U?A</desc>
<path d="M28.4170 1.4428
L28.4170 2.4709
" />
<path d="M28.4170 2.4709
L28.4775 2.5919
" />
<path d="M28.4775 2.5919
L28.5380 2.6524
" />
<path d="M28.5380 2.6524
L28.6589 2.7128
" />
<path d="M28.6589 2.7128
L28.9008 2.7128
" />
<path d="M28.9008 2.7128
L29.0218 2.6524
" />
<path d="M29.0218 2.6524
L29.0823 2.5919
" />
<path d="M29.0823 2.5919
L29.1427 2.4709
" />
<path d="M29.1427 2.4709
L29.1427 1.4428
" />
<path d="M29.9290 2.5919
L29.9894 2.6524
" />
<path d="M29.9894 2.6524
L29.9290 2.7128
" />
<path d="M29.9290 2.7128
L29.8685 2.6524
" />
<path d="M29.8685 2.6524
L29.9290 2.5919
" />
<path d="M29.9290 2.5919
L29.9290 2.7128
" />
<path d="M29.6871 1.5033
L29.8080 1.4428
" />
<path d="M29.8080 1.4428
L30.1104 1.4428
" />
<path d="M30.1104 1.4428
L30.2313 1.5033
" />
<path d="M30.2313 1.5033
L30.2918 1.6243
" />
<path d="M30.2918 1.6243
L30.2918 1.7452
" />
<path d="M30.2918 1.7452
L30.2313 1.8662
" />
<path d="M30.2313 1.8662
L30.1709 1.9266
" />
<path d="M30.1709 1.9266
L30.0499 1.9871
" />
<path d="M30.0499 1.9871
L29.9894 2.0476
" />
<path d="M29.9894 2.0476
L29.9290 2.1685
" />
<path d="M29.9290 2.1685
L29.9290 2.2290
" />
<path d="M30.7757 2.3500
L31.3804 2.3500
" />
<path d="M30.6547 2.7128
L31.0780 1.4428
" />
<path d="M31.0780 1.4428
L31.5014 2.7128
" />
</g><text x="31.8339" y="5.3086"
textLength="7.6609" font-size="1.6933" lengthAdjust="spacingAndGlyphs"
text-anchor="middle" opacity="0">LM319H</text>
<g class="stroked-text"><desc>LM319H</desc>
<path d="M29.0218 5.2528
L28.4170 5.2528
" />
<path d="M28.4170 5.2528
L28.4170 3.9828
" />
<path d="M29.4451 5.2528
L29.4451 3.9828
" />
<path d="M29.4451 3.9828
L29.8685 4.8900
" />
<path d="M29.8685 4.8900
L30.2918 3.9828
" />
<path d="M30.2918 3.9828
L30.2918 5.2528
" />
<path d="M30.7756 3.9828
L31.5618 3.9828
" />
<path d="M31.5618 3.9828
L31.1384 4.4666
" />
<path d="M31.1384 4.4666
L31.3199 4.4666
" />
<path d="M31.3199 4.4666
L31.4408 4.5271
" />
<path d="M31.4408 4.5271
L31.5013 4.5876
" />
<path d="M31.5013 4.5876
L31.5618 4.7085
" />
<path d="M31.5618 4.7085
L31.5618 5.0109
" />
<path d="M31.5618 5.0109
L31.5013 5.1319
" />
<path d="M31.5013 5.1319
L31.4408 5.1924
" />
<path d="M31.4408 5.1924
L31.3199 5.2528
" />
<path d="M31.3199 5.2528
L30.9570 5.2528
" />
<path d="M30.9570 5.2528
L30.8361 5.1924
" />
<path d="M30.8361 5.1924
L30.7756 5.1319
" />
<path d="M32.7713 5.2528
L32.0456 5.2528
" />
<path d="M32.4084 5.2528
L32.4084 3.9828
" />
<path d="M32.4084 3.9828
L32.2875 4.1643
" />
<path d="M32.2875 4.1643
L32.1665 4.2852
" />
<path d="M32.1665 4.2852
L32.0456 4.3457
" />
<path d="M33.3760 5.2528
L33.6179 5.2528
" />
<path d="M33.6179 5.2528
L33.7389 5.1924
" />
<path d="M33.7389 5.1924
L33.7993 5.1319
" />
<path d="M33.7993 5.1319
L33.9203 4.9504
" />
<path d="M33.9203 4.9504
L33.9808 4.7085
" />
<path d="M33.9808 4.7085
L33.9808 4.2247
" />
<path d="M33.9808 4.2247
L33.9203 4.1038
" />
<path d="M33.9203 4.1038
L33.8598 4.0433
" />
<path d="M33.8598 4.0433
L33.7389 3.9828
" />
<path d="M33.7389 3.9828
L33.4970 3.9828
" />
<path d="M33.4970 3.9828
L33.3760 4.0433
" />
<path d="M33.3760 4.0433
L33.3155 4.1038
" />
<path d="M33.3155 4.1038
L33.2551 4.2247
" />
<path d="M33.2551 4.2247
L33.2551 4.5271
" />
<path d="M33.2551 4.5271
L33.3155 4.6481
" />
<path d="M33.3155 4.6481
L33.3760 4.7085
" />
<path d="M33.3760 4.7085
L33.4970 4.7690
" />
<path d="M33.4970 4.7690
L33.7389 4.7690
" />
<path d="M33.7389 4.7690
L33.8598 4.7085
" />
<path d="M33.8598 4.7085
L33.9203 4.6481
" />
<path d="M33.9203 4.6481
L33.9808 4.5271
" />
<path d="M34.5250 5.2528
L34.5250 3.9828
" />
<path d="M34.5250 4.5876
L35.2507 4.5876
" />
<path d="M35.2507 5.2528
L35.2507 3.9828
" />
</g></g> 
</svg>
