<?xml version="1.0" standalone="no"?>
 <!DOCTYPE svg PUBLIC "-//W3C//DTD SVG 1.1//EN" 
 "http://www.w3.org/Graphics/SVG/1.1/DTD/svg11.dtd"> 
<svg
  xmlns:svg="http://www.w3.org/2000/svg"
  xmlns="http://www.w3.org/2000/svg"
  xmlns:xlink="http://www.w3.org/1999/xlink"
  version="1.1"
  width="48.7680mm" height="65.2272mm" viewBox="0.0000 0.0000 48.7680 65.2272">
<title>SVG Image created as 74ls295.svg date 2024/01/16 15:18:06 </title>
  <desc>Image generated by Eeschema-SVG </desc>
<g style="fill:#000000; fill-opacity:1.0000;stroke:#000000; stroke-opacity:1.0000;
stroke-linecap:round; stroke-linejoin:round;"
 transform="translate(0 0) scale(1 1)">
</g>
<g style="fill:#000000; fill-opacity:0.0; 
stroke:#000000; stroke-width:0.0000; stroke-opacity:1; 
stroke-linecap:round; stroke-linejoin:round;">
</g>
<g style="fill:#000000; fill-opacity:0.0; 
stroke:#000000; stroke-width:0.2540; stroke-opacity:1; 
stroke-linecap:round; stroke-linejoin:round;">
<rect x="11.684000" y="50.393600" width="25.400000" height="5.080000" rx="0.000000" />
<rect x="11.684000" y="45.313600" width="25.400000" height="5.080000" rx="0.000000" />
<rect x="11.684000" y="40.233600" width="25.400000" height="5.080000" rx="0.000000" />
<rect x="11.684000" y="30.073600" width="25.400000" height="10.160000" rx="0.000000" />
<path style="fill:#000000; fill-opacity:0.0; 
stroke:#000000; stroke-width:0.2540; stroke-opacity:1; 
stroke-linecap:round; stroke-linejoin:round;fill:none"
d="M 21.8440,33.6296
21.8440,36.6776
24.8920,35.1536
21.8440,33.6296
Z" /> 
<path style="fill:#000000; fill-opacity:0.0; 
stroke:#000000; stroke-width:0.2540; stroke-opacity:1; 
stroke-linecap:round; stroke-linejoin:round;fill:none"
d="M 29.9720,33.6296
26.9240,33.6296
28.4480,36.6776
29.9720,33.6296
Z" /> 
<path style="fill:#000000; fill-opacity:0.0; 
stroke:#000000; stroke-width:0.2540; stroke-opacity:1; 
stroke-linecap:round; stroke-linejoin:round;fill:none"
d="M 14.2240,30.0736
14.2240,27.5336
11.6840,27.5336
11.6840,12.2936
37.0840,12.2936
37.0840,27.5336
34.5440,27.5336
34.5440,30.0736
34.5440,30.0736
" /> 
</g>
<g style="fill:#000000; fill-opacity:0.0; 
stroke:#000000; stroke-width:0.1524; stroke-opacity:1; 
stroke-linecap:round; stroke-linejoin:round;">
<path d="M24.3840 12.2936
L24.3840 7.2136
" />
<g transform="rotate(-90.000000 24.3840 13.3096)">
<text x="24.3840" y="13.9446"
textLength="3.8318" font-size="1.6933" lengthAdjust="spacingAndGlyphs"
text-anchor="end" opacity="0">VCC</text>
</g>
<g class="stroked-text"><desc>VCC</desc>
<path d="M23.6935 16.9174
L24.9635 16.4941
" />
<path d="M24.9635 16.4941
L23.6935 16.0707
" />
<path d="M24.8426 14.9217
L24.9031 14.9821
" />
<path d="M24.9031 14.9821
L24.9635 15.1636
" />
<path d="M24.9635 15.1636
L24.9635 15.2845
" />
<path d="M24.9635 15.2845
L24.9031 15.4659
" />
<path d="M24.9031 15.4659
L24.7821 15.5869
" />
<path d="M24.7821 15.5869
L24.6611 15.6474
" />
<path d="M24.6611 15.6474
L24.4192 15.7078
" />
<path d="M24.4192 15.7078
L24.2378 15.7078
" />
<path d="M24.2378 15.7078
L23.9959 15.6474
" />
<path d="M23.9959 15.6474
L23.8750 15.5869
" />
<path d="M23.8750 15.5869
L23.7540 15.4659
" />
<path d="M23.7540 15.4659
L23.6935 15.2845
" />
<path d="M23.6935 15.2845
L23.6935 15.1636
" />
<path d="M23.6935 15.1636
L23.7540 14.9821
" />
<path d="M23.7540 14.9821
L23.8145 14.9217
" />
<path d="M24.8426 13.6517
L24.9031 13.7121
" />
<path d="M24.9031 13.7121
L24.9635 13.8936
" />
<path d="M24.9635 13.8936
L24.9635 14.0145
" />
<path d="M24.9635 14.0145
L24.9031 14.1959
" />
<path d="M24.9031 14.1959
L24.7821 14.3169
" />
<path d="M24.7821 14.3169
L24.6611 14.3774
" />
<path d="M24.6611 14.3774
L24.4192 14.4378
" />
<path d="M24.4192 14.4378
L24.2378 14.4378
" />
<path d="M24.2378 14.4378
L23.9959 14.3774
" />
<path d="M23.9959 14.3774
L23.8750 14.3169
" />
<path d="M23.8750 14.3169
L23.7540 14.1959
" />
<path d="M23.7540 14.1959
L23.6935 14.0145
" />
<path d="M23.6935 14.0145
L23.6935 13.8936
" />
<path d="M23.6935 13.8936
L23.7540 13.7121
" />
<path d="M23.7540 13.7121
L23.8145 13.6517
" />
</g><g transform="rotate(-90.000000 24.1300 9.7536)">
<text x="24.1300" y="9.7536"
textLength="2.6222" font-size="1.6933" lengthAdjust="spacingAndGlyphs"
text-anchor="middle" opacity="0">14</text>
</g>
<g class="stroked-text"><desc>14</desc>
<path d="M23.9665 9.9954
L23.9665 10.7211
" />
<path d="M23.9665 10.3583
L22.6965 10.3583
" />
<path d="M22.6965 10.3583
L22.8780 10.4792
" />
<path d="M22.8780 10.4792
L22.9989 10.6002
" />
<path d="M22.9989 10.6002
L23.0594 10.7211
" />
<path d="M23.1199 8.9069
L23.9665 8.9069
" />
<path d="M22.6361 9.2093
L23.5432 9.5116
" />
<path d="M23.5432 9.5116
L23.5432 8.7255
" />
</g><path d="M24.3840 55.4736
L24.3840 60.5536
" />
<g transform="rotate(-90.000000 24.3840 54.4576)">
<text x="24.3840" y="55.0926"
textLength="4.0737" font-size="1.6933" lengthAdjust="spacingAndGlyphs"
text-anchor="start" opacity="0">GND</text>
</g>
<g class="stroked-text"><desc>GND</desc>
<path d="M23.7540 53.3897
L23.6935 53.5107
" />
<path d="M23.6935 53.5107
L23.6935 53.6921
" />
<path d="M23.6935 53.6921
L23.7540 53.8735
" />
<path d="M23.7540 53.8735
L23.8750 53.9945
" />
<path d="M23.8750 53.9945
L23.9959 54.0550
" />
<path d="M23.9959 54.0550
L24.2378 54.1154
" />
<path d="M24.2378 54.1154
L24.4192 54.1154
" />
<path d="M24.4192 54.1154
L24.6611 54.0550
" />
<path d="M24.6611 54.0550
L24.7821 53.9945
" />
<path d="M24.7821 53.9945
L24.9031 53.8735
" />
<path d="M24.9031 53.8735
L24.9635 53.6921
" />
<path d="M24.9635 53.6921
L24.9635 53.5712
" />
<path d="M24.9635 53.5712
L24.9031 53.3897
" />
<path d="M24.9031 53.3897
L24.8426 53.3293
" />
<path d="M24.8426 53.3293
L24.4192 53.3293
" />
<path d="M24.4192 53.3293
L24.4192 53.5712
" />
<path d="M24.9635 52.7850
L23.6935 52.7850
" />
<path d="M23.6935 52.7850
L24.9635 52.0593
" />
<path d="M24.9635 52.0593
L23.6935 52.0593
" />
<path d="M24.9635 51.4545
L23.6935 51.4545
" />
<path d="M23.6935 51.4545
L23.6935 51.1521
" />
<path d="M23.6935 51.1521
L23.7540 50.9707
" />
<path d="M23.7540 50.9707
L23.8750 50.8497
" />
<path d="M23.8750 50.8497
L23.9959 50.7892
" />
<path d="M23.9959 50.7892
L24.2378 50.7288
" />
<path d="M24.2378 50.7288
L24.4192 50.7288
" />
<path d="M24.4192 50.7288
L24.6611 50.7892
" />
<path d="M24.6611 50.7892
L24.7821 50.8497
" />
<path d="M24.7821 50.8497
L24.9031 50.9707
" />
<path d="M24.9031 50.9707
L24.9635 51.1521
" />
<path d="M24.9635 51.1521
L24.9635 51.4545
" />
</g><g transform="rotate(-90.000000 24.1300 58.0136)">
<text x="24.1300" y="58.0136"
textLength="1.4127" font-size="1.6933" lengthAdjust="spacingAndGlyphs"
text-anchor="middle" opacity="0">7</text>
</g>
<g class="stroked-text"><desc>7</desc>
<path d="M22.6965 58.4368
L22.6965 57.5902
" />
<path d="M22.6965 57.5902
L23.9665 58.1344
" />
</g><path d="M11.6840 32.6136
L4.0640 32.6136
" />
<text x="12.7000" y="33.2486"
textLength="2.5013" font-size="1.6933" lengthAdjust="spacingAndGlyphs"
text-anchor="start" opacity="0">Ds</text>
<g class="stroked-text"><desc>Ds</desc>
<path d="M13.1025 33.1931
L13.1025 31.9231
" />
<path d="M13.1025 31.9231
L13.4049 31.9231
" />
<path d="M13.4049 31.9231
L13.5863 31.9836
" />
<path d="M13.5863 31.9836
L13.7073 32.1046
" />
<path d="M13.7073 32.1046
L13.7678 32.2255
" />
<path d="M13.7678 32.2255
L13.8282 32.4674
" />
<path d="M13.8282 32.4674
L13.8282 32.6488
" />
<path d="M13.8282 32.6488
L13.7678 32.8907
" />
<path d="M13.7678 32.8907
L13.7073 33.0117
" />
<path d="M13.7073 33.0117
L13.5863 33.1327
" />
<path d="M13.5863 33.1327
L13.4049 33.1931
" />
<path d="M13.4049 33.1931
L13.1025 33.1931
" />
<path d="M14.3121 33.1327
L14.4330 33.1931
" />
<path d="M14.4330 33.1931
L14.6749 33.1931
" />
<path d="M14.6749 33.1931
L14.7959 33.1327
" />
<path d="M14.7959 33.1327
L14.8563 33.0117
" />
<path d="M14.8563 33.0117
L14.8563 32.9512
" />
<path d="M14.8563 32.9512
L14.7959 32.8303
" />
<path d="M14.7959 32.8303
L14.6749 32.7698
" />
<path d="M14.6749 32.7698
L14.4935 32.7698
" />
<path d="M14.4935 32.7698
L14.3725 32.7093
" />
<path d="M14.3725 32.7093
L14.3121 32.5884
" />
<path d="M14.3121 32.5884
L14.3121 32.5279
" />
<path d="M14.3121 32.5279
L14.3725 32.4069
" />
<path d="M14.3725 32.4069
L14.4935 32.3465
" />
<path d="M14.4935 32.3465
L14.6749 32.3465
" />
<path d="M14.6749 32.3465
L14.7959 32.4069
" />
</g><text x="7.8740" y="32.3596"
textLength="1.4127" font-size="1.6933" lengthAdjust="spacingAndGlyphs"
text-anchor="middle" opacity="0">1</text>
<g class="stroked-text"><desc>1</desc>
<path d="M8.2369 32.1961
L7.5112 32.1961
" />
<path d="M7.8740 32.1961
L7.8740 30.9261
" />
<path d="M7.8740 30.9261
L7.7531 31.1076
" />
<path d="M7.7531 31.1076
L7.6321 31.2285
" />
<path d="M7.6321 31.2285
L7.5112 31.2890
" />
</g><path d="M37.0840 52.9336
L44.7040 52.9336
" />
<text x="36.0680" y="53.5686"
textLength="2.7432" font-size="1.6933" lengthAdjust="spacingAndGlyphs"
text-anchor="end" opacity="0">Q3</text>
<g class="stroked-text"><desc>Q3</desc>
<path d="M34.5768 53.6341
L34.4558 53.5736
" />
<path d="M34.4558 53.5736
L34.3349 53.4527
" />
<path d="M34.3349 53.4527
L34.1535 53.2712
" />
<path d="M34.1535 53.2712
L34.0325 53.2107
" />
<path d="M34.0325 53.2107
L33.9116 53.2107
" />
<path d="M33.9720 53.5131
L33.8511 53.4527
" />
<path d="M33.8511 53.4527
L33.7301 53.3317
" />
<path d="M33.7301 53.3317
L33.6697 53.0898
" />
<path d="M33.6697 53.0898
L33.6697 52.6665
" />
<path d="M33.6697 52.6665
L33.7301 52.4246
" />
<path d="M33.7301 52.4246
L33.8511 52.3036
" />
<path d="M33.8511 52.3036
L33.9720 52.2431
" />
<path d="M33.9720 52.2431
L34.2139 52.2431
" />
<path d="M34.2139 52.2431
L34.3349 52.3036
" />
<path d="M34.3349 52.3036
L34.4558 52.4246
" />
<path d="M34.4558 52.4246
L34.5163 52.6665
" />
<path d="M34.5163 52.6665
L34.5163 53.0898
" />
<path d="M34.5163 53.0898
L34.4558 53.3317
" />
<path d="M34.4558 53.3317
L34.3349 53.4527
" />
<path d="M34.3349 53.4527
L34.2139 53.5131
" />
<path d="M34.2139 53.5131
L33.9720 53.5131
" />
<path d="M34.9397 52.2431
L35.7259 52.2431
" />
<path d="M35.7259 52.2431
L35.3025 52.7269
" />
<path d="M35.3025 52.7269
L35.4840 52.7269
" />
<path d="M35.4840 52.7269
L35.6049 52.7874
" />
<path d="M35.6049 52.7874
L35.6654 52.8479
" />
<path d="M35.6654 52.8479
L35.7259 52.9688
" />
<path d="M35.7259 52.9688
L35.7259 53.2712
" />
<path d="M35.7259 53.2712
L35.6654 53.3922
" />
<path d="M35.6654 53.3922
L35.6049 53.4527
" />
<path d="M35.6049 53.4527
L35.4840 53.5131
" />
<path d="M35.4840 53.5131
L35.1211 53.5131
" />
<path d="M35.1211 53.5131
L35.0002 53.4527
" />
<path d="M35.0002 53.4527
L34.9397 53.3922
" />
</g><text x="40.8940" y="52.6796"
textLength="2.6222" font-size="1.6933" lengthAdjust="spacingAndGlyphs"
text-anchor="middle" opacity="0">10</text>
<g class="stroked-text"><desc>10</desc>
<path d="M40.6521 52.5161
L39.9264 52.5161
" />
<path d="M40.2892 52.5161
L40.2892 51.2461
" />
<path d="M40.2892 51.2461
L40.1683 51.4276
" />
<path d="M40.1683 51.4276
L40.0473 51.5485
" />
<path d="M40.0473 51.5485
L39.9264 51.6090
" />
<path d="M41.4382 51.2461
L41.5592 51.2461
" />
<path d="M41.5592 51.2461
L41.6801 51.3066
" />
<path d="M41.6801 51.3066
L41.7406 51.3671
" />
<path d="M41.7406 51.3671
L41.8011 51.4880
" />
<path d="M41.8011 51.4880
L41.8616 51.7299
" />
<path d="M41.8616 51.7299
L41.8616 52.0323
" />
<path d="M41.8616 52.0323
L41.8011 52.2742
" />
<path d="M41.8011 52.2742
L41.7406 52.3952
" />
<path d="M41.7406 52.3952
L41.6801 52.4557
" />
<path d="M41.6801 52.4557
L41.5592 52.5161
" />
<path d="M41.5592 52.5161
L41.4382 52.5161
" />
<path d="M41.4382 52.5161
L41.3173 52.4557
" />
<path d="M41.3173 52.4557
L41.2568 52.3952
" />
<path d="M41.2568 52.3952
L41.1963 52.2742
" />
<path d="M41.1963 52.2742
L41.1359 52.0323
" />
<path d="M41.1359 52.0323
L41.1359 51.7299
" />
<path d="M41.1359 51.7299
L41.1963 51.4880
" />
<path d="M41.1963 51.4880
L41.2568 51.3671
" />
<path d="M41.2568 51.3671
L41.3173 51.3066
" />
<path d="M41.3173 51.3066
L41.4382 51.2461
" />
</g><path d="M37.0840 47.8536
L44.7040 47.8536
" />
<text x="36.0680" y="48.4886"
textLength="2.7432" font-size="1.6933" lengthAdjust="spacingAndGlyphs"
text-anchor="end" opacity="0">Q2</text>
<g class="stroked-text"><desc>Q2</desc>
<path d="M34.5768 48.5541
L34.4558 48.4936
" />
<path d="M34.4558 48.4936
L34.3349 48.3727
" />
<path d="M34.3349 48.3727
L34.1535 48.1912
" />
<path d="M34.1535 48.1912
L34.0325 48.1307
" />
<path d="M34.0325 48.1307
L33.9116 48.1307
" />
<path d="M33.9720 48.4331
L33.8511 48.3727
" />
<path d="M33.8511 48.3727
L33.7301 48.2517
" />
<path d="M33.7301 48.2517
L33.6697 48.0098
" />
<path d="M33.6697 48.0098
L33.6697 47.5865
" />
<path d="M33.6697 47.5865
L33.7301 47.3446
" />
<path d="M33.7301 47.3446
L33.8511 47.2236
" />
<path d="M33.8511 47.2236
L33.9720 47.1631
" />
<path d="M33.9720 47.1631
L34.2139 47.1631
" />
<path d="M34.2139 47.1631
L34.3349 47.2236
" />
<path d="M34.3349 47.2236
L34.4558 47.3446
" />
<path d="M34.4558 47.3446
L34.5163 47.5865
" />
<path d="M34.5163 47.5865
L34.5163 48.0098
" />
<path d="M34.5163 48.0098
L34.4558 48.2517
" />
<path d="M34.4558 48.2517
L34.3349 48.3727
" />
<path d="M34.3349 48.3727
L34.2139 48.4331
" />
<path d="M34.2139 48.4331
L33.9720 48.4331
" />
<path d="M35.0002 47.2841
L35.0606 47.2236
" />
<path d="M35.0606 47.2236
L35.1816 47.1631
" />
<path d="M35.1816 47.1631
L35.4840 47.1631
" />
<path d="M35.4840 47.1631
L35.6049 47.2236
" />
<path d="M35.6049 47.2236
L35.6654 47.2841
" />
<path d="M35.6654 47.2841
L35.7259 47.4050
" />
<path d="M35.7259 47.4050
L35.7259 47.5260
" />
<path d="M35.7259 47.5260
L35.6654 47.7074
" />
<path d="M35.6654 47.7074
L34.9397 48.4331
" />
<path d="M34.9397 48.4331
L35.7259 48.4331
" />
</g><text x="40.8940" y="47.5996"
textLength="2.6222" font-size="1.6933" lengthAdjust="spacingAndGlyphs"
text-anchor="middle" opacity="0">11</text>
<g class="stroked-text"><desc>11</desc>
<path d="M40.6521 47.4361
L39.9264 47.4361
" />
<path d="M40.2892 47.4361
L40.2892 46.1661
" />
<path d="M40.2892 46.1661
L40.1683 46.3476
" />
<path d="M40.1683 46.3476
L40.0473 46.4685
" />
<path d="M40.0473 46.4685
L39.9264 46.5290
" />
<path d="M41.8616 47.4361
L41.1359 47.4361
" />
<path d="M41.4987 47.4361
L41.4987 46.1661
" />
<path d="M41.4987 46.1661
L41.3778 46.3476
" />
<path d="M41.3778 46.3476
L41.2568 46.4685
" />
<path d="M41.2568 46.4685
L41.1359 46.5290
" />
</g><path d="M37.0840 42.7736
L44.7040 42.7736
" />
<text x="36.0680" y="43.4086"
textLength="2.7432" font-size="1.6933" lengthAdjust="spacingAndGlyphs"
text-anchor="end" opacity="0">Q1</text>
<g class="stroked-text"><desc>Q1</desc>
<path d="M34.5768 43.4741
L34.4558 43.4136
" />
<path d="M34.4558 43.4136
L34.3349 43.2927
" />
<path d="M34.3349 43.2927
L34.1535 43.1112
" />
<path d="M34.1535 43.1112
L34.0325 43.0507
" />
<path d="M34.0325 43.0507
L33.9116 43.0507
" />
<path d="M33.9720 43.3531
L33.8511 43.2927
" />
<path d="M33.8511 43.2927
L33.7301 43.1717
" />
<path d="M33.7301 43.1717
L33.6697 42.9298
" />
<path d="M33.6697 42.9298
L33.6697 42.5065
" />
<path d="M33.6697 42.5065
L33.7301 42.2646
" />
<path d="M33.7301 42.2646
L33.8511 42.1436
" />
<path d="M33.8511 42.1436
L33.9720 42.0831
" />
<path d="M33.9720 42.0831
L34.2139 42.0831
" />
<path d="M34.2139 42.0831
L34.3349 42.1436
" />
<path d="M34.3349 42.1436
L34.4558 42.2646
" />
<path d="M34.4558 42.2646
L34.5163 42.5065
" />
<path d="M34.5163 42.5065
L34.5163 42.9298
" />
<path d="M34.5163 42.9298
L34.4558 43.1717
" />
<path d="M34.4558 43.1717
L34.3349 43.2927
" />
<path d="M34.3349 43.2927
L34.2139 43.3531
" />
<path d="M34.2139 43.3531
L33.9720 43.3531
" />
<path d="M35.7259 43.3531
L35.0002 43.3531
" />
<path d="M35.3630 43.3531
L35.3630 42.0831
" />
<path d="M35.3630 42.0831
L35.2421 42.2646
" />
<path d="M35.2421 42.2646
L35.1211 42.3855
" />
<path d="M35.1211 42.3855
L35.0002 42.4460
" />
</g><text x="40.8940" y="42.5196"
textLength="2.6222" font-size="1.6933" lengthAdjust="spacingAndGlyphs"
text-anchor="middle" opacity="0">12</text>
<g class="stroked-text"><desc>12</desc>
<path d="M40.6521 42.3561
L39.9264 42.3561
" />
<path d="M40.2892 42.3561
L40.2892 41.0861
" />
<path d="M40.2892 41.0861
L40.1683 41.2676
" />
<path d="M40.1683 41.2676
L40.0473 41.3885
" />
<path d="M40.0473 41.3885
L39.9264 41.4490
" />
<path d="M41.1359 41.2071
L41.1963 41.1466
" />
<path d="M41.1963 41.1466
L41.3173 41.0861
" />
<path d="M41.3173 41.0861
L41.6197 41.0861
" />
<path d="M41.6197 41.0861
L41.7406 41.1466
" />
<path d="M41.7406 41.1466
L41.8011 41.2071
" />
<path d="M41.8011 41.2071
L41.8616 41.3280
" />
<path d="M41.8616 41.3280
L41.8616 41.4490
" />
<path d="M41.8616 41.4490
L41.8011 41.6304
" />
<path d="M41.8011 41.6304
L41.0754 42.3561
" />
<path d="M41.0754 42.3561
L41.8616 42.3561
" />
</g><path d="M37.0840 35.1536
L44.7040 35.1536
" />
<text x="36.0680" y="35.7886"
textLength="2.7432" font-size="1.6933" lengthAdjust="spacingAndGlyphs"
text-anchor="end" opacity="0">Q0</text>
<g class="stroked-text"><desc>Q0</desc>
<path d="M34.5768 35.8541
L34.4558 35.7936
" />
<path d="M34.4558 35.7936
L34.3349 35.6727
" />
<path d="M34.3349 35.6727
L34.1535 35.4912
" />
<path d="M34.1535 35.4912
L34.0325 35.4307
" />
<path d="M34.0325 35.4307
L33.9116 35.4307
" />
<path d="M33.9720 35.7331
L33.8511 35.6727
" />
<path d="M33.8511 35.6727
L33.7301 35.5517
" />
<path d="M33.7301 35.5517
L33.6697 35.3098
" />
<path d="M33.6697 35.3098
L33.6697 34.8865
" />
<path d="M33.6697 34.8865
L33.7301 34.6446
" />
<path d="M33.7301 34.6446
L33.8511 34.5236
" />
<path d="M33.8511 34.5236
L33.9720 34.4631
" />
<path d="M33.9720 34.4631
L34.2139 34.4631
" />
<path d="M34.2139 34.4631
L34.3349 34.5236
" />
<path d="M34.3349 34.5236
L34.4558 34.6446
" />
<path d="M34.4558 34.6446
L34.5163 34.8865
" />
<path d="M34.5163 34.8865
L34.5163 35.3098
" />
<path d="M34.5163 35.3098
L34.4558 35.5517
" />
<path d="M34.4558 35.5517
L34.3349 35.6727
" />
<path d="M34.3349 35.6727
L34.2139 35.7331
" />
<path d="M34.2139 35.7331
L33.9720 35.7331
" />
<path d="M35.3025 34.4631
L35.4235 34.4631
" />
<path d="M35.4235 34.4631
L35.5444 34.5236
" />
<path d="M35.5444 34.5236
L35.6049 34.5841
" />
<path d="M35.6049 34.5841
L35.6654 34.7050
" />
<path d="M35.6654 34.7050
L35.7259 34.9469
" />
<path d="M35.7259 34.9469
L35.7259 35.2493
" />
<path d="M35.7259 35.2493
L35.6654 35.4912
" />
<path d="M35.6654 35.4912
L35.6049 35.6122
" />
<path d="M35.6049 35.6122
L35.5444 35.6727
" />
<path d="M35.5444 35.6727
L35.4235 35.7331
" />
<path d="M35.4235 35.7331
L35.3025 35.7331
" />
<path d="M35.3025 35.7331
L35.1816 35.6727
" />
<path d="M35.1816 35.6727
L35.1211 35.6122
" />
<path d="M35.1211 35.6122
L35.0606 35.4912
" />
<path d="M35.0606 35.4912
L35.0002 35.2493
" />
<path d="M35.0002 35.2493
L35.0002 34.9469
" />
<path d="M35.0002 34.9469
L35.0606 34.7050
" />
<path d="M35.0606 34.7050
L35.1211 34.5841
" />
<path d="M35.1211 34.5841
L35.1816 34.5236
" />
<path d="M35.1816 34.5236
L35.3025 34.4631
" />
</g><text x="40.8940" y="34.8996"
textLength="2.6222" font-size="1.6933" lengthAdjust="spacingAndGlyphs"
text-anchor="middle" opacity="0">13</text>
<g class="stroked-text"><desc>13</desc>
<path d="M40.6521 34.7361
L39.9264 34.7361
" />
<path d="M40.2892 34.7361
L40.2892 33.4661
" />
<path d="M40.2892 33.4661
L40.1683 33.6476
" />
<path d="M40.1683 33.6476
L40.0473 33.7685
" />
<path d="M40.0473 33.7685
L39.9264 33.8290
" />
<path d="M41.0754 33.4661
L41.8616 33.4661
" />
<path d="M41.8616 33.4661
L41.4382 33.9499
" />
<path d="M41.4382 33.9499
L41.6197 33.9499
" />
<path d="M41.6197 33.9499
L41.7406 34.0104
" />
<path d="M41.7406 34.0104
L41.8011 34.0709
" />
<path d="M41.8011 34.0709
L41.8616 34.1918
" />
<path d="M41.8616 34.1918
L41.8616 34.4942
" />
<path d="M41.8616 34.4942
L41.8011 34.6152
" />
<path d="M41.8011 34.6152
L41.7406 34.6757
" />
<path d="M41.7406 34.6757
L41.6197 34.7361
" />
<path d="M41.6197 34.7361
L41.2568 34.7361
" />
<path d="M41.2568 34.7361
L41.1359 34.6757
" />
<path d="M41.1359 34.6757
L41.0754 34.6152
" />
</g><path d="M11.6840 37.6936
L4.0640 37.6936
" />
<text x="12.7000" y="38.3286"
textLength="2.6827" font-size="1.6933" lengthAdjust="spacingAndGlyphs"
text-anchor="start" opacity="0">P0</text>
<g class="stroked-text"><desc>P0</desc>
<path d="M13.1025 38.2731
L13.1025 37.0031
" />
<path d="M13.1025 37.0031
L13.5863 37.0031
" />
<path d="M13.5863 37.0031
L13.7073 37.0636
" />
<path d="M13.7073 37.0636
L13.7678 37.1241
" />
<path d="M13.7678 37.1241
L13.8282 37.2450
" />
<path d="M13.8282 37.2450
L13.8282 37.4265
" />
<path d="M13.8282 37.4265
L13.7678 37.5474
" />
<path d="M13.7678 37.5474
L13.7073 37.6079
" />
<path d="M13.7073 37.6079
L13.5863 37.6684
" />
<path d="M13.5863 37.6684
L13.1025 37.6684
" />
<path d="M14.6144 37.0031
L14.7354 37.0031
" />
<path d="M14.7354 37.0031
L14.8563 37.0636
" />
<path d="M14.8563 37.0636
L14.9168 37.1241
" />
<path d="M14.9168 37.1241
L14.9773 37.2450
" />
<path d="M14.9773 37.2450
L15.0378 37.4869
" />
<path d="M15.0378 37.4869
L15.0378 37.7893
" />
<path d="M15.0378 37.7893
L14.9773 38.0312
" />
<path d="M14.9773 38.0312
L14.9168 38.1522
" />
<path d="M14.9168 38.1522
L14.8563 38.2127
" />
<path d="M14.8563 38.2127
L14.7354 38.2731
" />
<path d="M14.7354 38.2731
L14.6144 38.2731
" />
<path d="M14.6144 38.2731
L14.4935 38.2127
" />
<path d="M14.4935 38.2127
L14.4330 38.1522
" />
<path d="M14.4330 38.1522
L14.3725 38.0312
" />
<path d="M14.3725 38.0312
L14.3121 37.7893
" />
<path d="M14.3121 37.7893
L14.3121 37.4869
" />
<path d="M14.3121 37.4869
L14.3725 37.2450
" />
<path d="M14.3725 37.2450
L14.4330 37.1241
" />
<path d="M14.4330 37.1241
L14.4935 37.0636
" />
<path d="M14.4935 37.0636
L14.6144 37.0031
" />
</g><text x="7.8740" y="37.4396"
textLength="1.4127" font-size="1.6933" lengthAdjust="spacingAndGlyphs"
text-anchor="middle" opacity="0">2</text>
<g class="stroked-text"><desc>2</desc>
<path d="M7.5112 36.1271
L7.5716 36.0666
" />
<path d="M7.5716 36.0666
L7.6926 36.0061
" />
<path d="M7.6926 36.0061
L7.9950 36.0061
" />
<path d="M7.9950 36.0061
L8.1159 36.0666
" />
<path d="M8.1159 36.0666
L8.1764 36.1271
" />
<path d="M8.1764 36.1271
L8.2369 36.2480
" />
<path d="M8.2369 36.2480
L8.2369 36.3690
" />
<path d="M8.2369 36.3690
L8.1764 36.5504
" />
<path d="M8.1764 36.5504
L7.4507 37.2761
" />
<path d="M7.4507 37.2761
L8.2369 37.2761
" />
</g><path d="M11.6840 42.7736
L4.0640 42.7736
" />
<text x="12.7000" y="43.4086"
textLength="2.6827" font-size="1.6933" lengthAdjust="spacingAndGlyphs"
text-anchor="start" opacity="0">P1</text>
<g class="stroked-text"><desc>P1</desc>
<path d="M13.1025 43.3531
L13.1025 42.0831
" />
<path d="M13.1025 42.0831
L13.5863 42.0831
" />
<path d="M13.5863 42.0831
L13.7073 42.1436
" />
<path d="M13.7073 42.1436
L13.7678 42.2041
" />
<path d="M13.7678 42.2041
L13.8282 42.3250
" />
<path d="M13.8282 42.3250
L13.8282 42.5065
" />
<path d="M13.8282 42.5065
L13.7678 42.6274
" />
<path d="M13.7678 42.6274
L13.7073 42.6879
" />
<path d="M13.7073 42.6879
L13.5863 42.7484
" />
<path d="M13.5863 42.7484
L13.1025 42.7484
" />
<path d="M15.0378 43.3531
L14.3121 43.3531
" />
<path d="M14.6749 43.3531
L14.6749 42.0831
" />
<path d="M14.6749 42.0831
L14.5540 42.2646
" />
<path d="M14.5540 42.2646
L14.4330 42.3855
" />
<path d="M14.4330 42.3855
L14.3121 42.4460
" />
</g><text x="7.8740" y="42.5196"
textLength="1.4127" font-size="1.6933" lengthAdjust="spacingAndGlyphs"
text-anchor="middle" opacity="0">3</text>
<g class="stroked-text"><desc>3</desc>
<path d="M7.4507 41.0861
L8.2369 41.0861
" />
<path d="M8.2369 41.0861
L7.8135 41.5699
" />
<path d="M7.8135 41.5699
L7.9950 41.5699
" />
<path d="M7.9950 41.5699
L8.1159 41.6304
" />
<path d="M8.1159 41.6304
L8.1764 41.6909
" />
<path d="M8.1764 41.6909
L8.2369 41.8118
" />
<path d="M8.2369 41.8118
L8.2369 42.1142
" />
<path d="M8.2369 42.1142
L8.1764 42.2352
" />
<path d="M8.1764 42.2352
L8.1159 42.2957
" />
<path d="M8.1159 42.2957
L7.9950 42.3561
" />
<path d="M7.9950 42.3561
L7.6321 42.3561
" />
<path d="M7.6321 42.3561
L7.5112 42.2957
" />
<path d="M7.5112 42.2957
L7.4507 42.2352
" />
</g><path d="M11.6840 47.8536
L4.0640 47.8536
" />
<text x="12.7000" y="48.4886"
textLength="2.6827" font-size="1.6933" lengthAdjust="spacingAndGlyphs"
text-anchor="start" opacity="0">P2</text>
<g class="stroked-text"><desc>P2</desc>
<path d="M13.1025 48.4331
L13.1025 47.1631
" />
<path d="M13.1025 47.1631
L13.5863 47.1631
" />
<path d="M13.5863 47.1631
L13.7073 47.2236
" />
<path d="M13.7073 47.2236
L13.7678 47.2841
" />
<path d="M13.7678 47.2841
L13.8282 47.4050
" />
<path d="M13.8282 47.4050
L13.8282 47.5865
" />
<path d="M13.8282 47.5865
L13.7678 47.7074
" />
<path d="M13.7678 47.7074
L13.7073 47.7679
" />
<path d="M13.7073 47.7679
L13.5863 47.8284
" />
<path d="M13.5863 47.8284
L13.1025 47.8284
" />
<path d="M14.3121 47.2841
L14.3725 47.2236
" />
<path d="M14.3725 47.2236
L14.4935 47.1631
" />
<path d="M14.4935 47.1631
L14.7959 47.1631
" />
<path d="M14.7959 47.1631
L14.9168 47.2236
" />
<path d="M14.9168 47.2236
L14.9773 47.2841
" />
<path d="M14.9773 47.2841
L15.0378 47.4050
" />
<path d="M15.0378 47.4050
L15.0378 47.5260
" />
<path d="M15.0378 47.5260
L14.9773 47.7074
" />
<path d="M14.9773 47.7074
L14.2516 48.4331
" />
<path d="M14.2516 48.4331
L15.0378 48.4331
" />
</g><text x="7.8740" y="47.5996"
textLength="1.4127" font-size="1.6933" lengthAdjust="spacingAndGlyphs"
text-anchor="middle" opacity="0">4</text>
<g class="stroked-text"><desc>4</desc>
<path d="M8.1159 46.5895
L8.1159 47.4361
" />
<path d="M7.8135 46.1057
L7.5112 47.0128
" />
<path d="M7.5112 47.0128
L8.2973 47.0128
" />
</g><path d="M11.6840 52.9336
L4.0640 52.9336
" />
<text x="12.7000" y="53.5686"
textLength="2.6827" font-size="1.6933" lengthAdjust="spacingAndGlyphs"
text-anchor="start" opacity="0">P3</text>
<g class="stroked-text"><desc>P3</desc>
<path d="M13.1025 53.5131
L13.1025 52.2431
" />
<path d="M13.1025 52.2431
L13.5863 52.2431
" />
<path d="M13.5863 52.2431
L13.7073 52.3036
" />
<path d="M13.7073 52.3036
L13.7678 52.3641
" />
<path d="M13.7678 52.3641
L13.8282 52.4850
" />
<path d="M13.8282 52.4850
L13.8282 52.6665
" />
<path d="M13.8282 52.6665
L13.7678 52.7874
" />
<path d="M13.7678 52.7874
L13.7073 52.8479
" />
<path d="M13.7073 52.8479
L13.5863 52.9084
" />
<path d="M13.5863 52.9084
L13.1025 52.9084
" />
<path d="M14.2516 52.2431
L15.0378 52.2431
" />
<path d="M15.0378 52.2431
L14.6144 52.7269
" />
<path d="M14.6144 52.7269
L14.7959 52.7269
" />
<path d="M14.7959 52.7269
L14.9168 52.7874
" />
<path d="M14.9168 52.7874
L14.9773 52.8479
" />
<path d="M14.9773 52.8479
L15.0378 52.9688
" />
<path d="M15.0378 52.9688
L15.0378 53.2712
" />
<path d="M15.0378 53.2712
L14.9773 53.3922
" />
<path d="M14.9773 53.3922
L14.9168 53.4527
" />
<path d="M14.9168 53.4527
L14.7959 53.5131
" />
<path d="M14.7959 53.5131
L14.4330 53.5131
" />
<path d="M14.4330 53.5131
L14.3121 53.4527
" />
<path d="M14.3121 53.4527
L14.2516 53.3922
" />
</g><text x="7.8740" y="52.6796"
textLength="1.4127" font-size="1.6933" lengthAdjust="spacingAndGlyphs"
text-anchor="middle" opacity="0">5</text>
<g class="stroked-text"><desc>5</desc>
<path d="M8.1764 51.2461
L7.5716 51.2461
" />
<path d="M7.5716 51.2461
L7.5112 51.8509
" />
<path d="M7.5112 51.8509
L7.5716 51.7904
" />
<path d="M7.5716 51.7904
L7.6926 51.7299
" />
<path d="M7.6926 51.7299
L7.9950 51.7299
" />
<path d="M7.9950 51.7299
L8.1159 51.7904
" />
<path d="M8.1159 51.7904
L8.1764 51.8509
" />
<path d="M8.1764 51.8509
L8.2369 51.9718
" />
<path d="M8.2369 51.9718
L8.2369 52.2742
" />
<path d="M8.2369 52.2742
L8.1764 52.3952
" />
<path d="M8.1764 52.3952
L8.1159 52.4557
" />
<path d="M8.1159 52.4557
L7.9950 52.5161
" />
<path d="M7.9950 52.5161
L7.6926 52.5161
" />
<path d="M7.6926 52.5161
L7.5716 52.4557
" />
<path d="M7.5716 52.4557
L7.5112 52.3952
" />
</g><path d="M11.6840 19.9136
L4.0640 19.9136
" />
<text x="12.7000" y="20.5486"
textLength="2.5013" font-size="1.6933" lengthAdjust="spacingAndGlyphs"
text-anchor="start" opacity="0">LD</text>
<g class="stroked-text"><desc>LD</desc>
<path d="M13.7073 20.4931
L13.1025 20.4931
" />
<path d="M13.1025 20.4931
L13.1025 19.2231
" />
<path d="M14.1306 20.4931
L14.1306 19.2231
" />
<path d="M14.1306 19.2231
L14.4330 19.2231
" />
<path d="M14.4330 19.2231
L14.6144 19.2836
" />
<path d="M14.6144 19.2836
L14.7354 19.4046
" />
<path d="M14.7354 19.4046
L14.7959 19.5255
" />
<path d="M14.7959 19.5255
L14.8563 19.7674
" />
<path d="M14.8563 19.7674
L14.8563 19.9488
" />
<path d="M14.8563 19.9488
L14.7959 20.1907
" />
<path d="M14.7959 20.1907
L14.7354 20.3117
" />
<path d="M14.7354 20.3117
L14.6144 20.4327
" />
<path d="M14.6144 20.4327
L14.4330 20.4931
" />
<path d="M14.4330 20.4931
L14.1306 20.4931
" />
</g><text x="7.8740" y="19.6596"
textLength="1.4127" font-size="1.6933" lengthAdjust="spacingAndGlyphs"
text-anchor="middle" opacity="0">6</text>
<g class="stroked-text"><desc>6</desc>
<path d="M8.1159 18.2261
L7.8740 18.2261
" />
<path d="M7.8740 18.2261
L7.7531 18.2866
" />
<path d="M7.7531 18.2866
L7.6926 18.3471
" />
<path d="M7.6926 18.3471
L7.5716 18.5285
" />
<path d="M7.5716 18.5285
L7.5112 18.7704
" />
<path d="M7.5112 18.7704
L7.5112 19.2542
" />
<path d="M7.5112 19.2542
L7.5716 19.3752
" />
<path d="M7.5716 19.3752
L7.6321 19.4357
" />
<path d="M7.6321 19.4357
L7.7531 19.4961
" />
<path d="M7.7531 19.4961
L7.9950 19.4961
" />
<path d="M7.9950 19.4961
L8.1159 19.4357
" />
<path d="M8.1159 19.4357
L8.1764 19.3752
" />
<path d="M8.1764 19.3752
L8.2369 19.2542
" />
<path d="M8.2369 19.2542
L8.2369 18.9518
" />
<path d="M8.2369 18.9518
L8.1764 18.8309
" />
<path d="M8.1764 18.8309
L8.1159 18.7704
" />
<path d="M8.1159 18.7704
L7.9950 18.7099
" />
<path d="M7.9950 18.7099
L7.7531 18.7099
" />
<path d="M7.7531 18.7099
L7.6321 18.7704
" />
<path d="M7.6321 18.7704
L7.5716 18.8309
" />
<path d="M7.5716 18.8309
L7.5112 18.9518
" />
</g><path d="M11.6840 14.8336
L4.0640 14.8336
" />
<text x="12.7000" y="15.4686"
textLength="2.6827" font-size="1.6933" lengthAdjust="spacingAndGlyphs"
text-anchor="start" opacity="0">EN</text>
<g class="stroked-text"><desc>EN</desc>
<path d="M13.1025 14.7479
L13.5259 14.7479
" />
<path d="M13.7073 15.4131
L13.1025 15.4131
" />
<path d="M13.1025 15.4131
L13.1025 14.1431
" />
<path d="M13.1025 14.1431
L13.7073 14.1431
" />
<path d="M14.2515 15.4131
L14.2515 14.1431
" />
<path d="M14.2515 14.1431
L14.9772 15.4131
" />
<path d="M14.9772 15.4131
L14.9772 14.1431
" />
</g><text x="7.8740" y="14.5796"
textLength="1.4127" font-size="1.6933" lengthAdjust="spacingAndGlyphs"
text-anchor="middle" opacity="0">8</text>
<g class="stroked-text"><desc>8</desc>
<path d="M7.7531 13.6904
L7.6321 13.6299
" />
<path d="M7.6321 13.6299
L7.5716 13.5695
" />
<path d="M7.5716 13.5695
L7.5112 13.4485
" />
<path d="M7.5112 13.4485
L7.5112 13.3880
" />
<path d="M7.5112 13.3880
L7.5716 13.2671
" />
<path d="M7.5716 13.2671
L7.6321 13.2066
" />
<path d="M7.6321 13.2066
L7.7531 13.1461
" />
<path d="M7.7531 13.1461
L7.9950 13.1461
" />
<path d="M7.9950 13.1461
L8.1159 13.2066
" />
<path d="M8.1159 13.2066
L8.1764 13.2671
" />
<path d="M8.1764 13.2671
L8.2369 13.3880
" />
<path d="M8.2369 13.3880
L8.2369 13.4485
" />
<path d="M8.2369 13.4485
L8.1764 13.5695
" />
<path d="M8.1764 13.5695
L8.1159 13.6299
" />
<path d="M8.1159 13.6299
L7.9950 13.6904
" />
<path d="M7.9950 13.6904
L7.7531 13.6904
" />
<path d="M7.7531 13.6904
L7.6321 13.7509
" />
<path d="M7.6321 13.7509
L7.5716 13.8114
" />
<path d="M7.5716 13.8114
L7.5112 13.9323
" />
<path d="M7.5112 13.9323
L7.5112 14.1742
" />
<path d="M7.5112 14.1742
L7.5716 14.2952
" />
<path d="M7.5716 14.2952
L7.6321 14.3557
" />
<path d="M7.6321 14.3557
L7.7531 14.4161
" />
<path d="M7.7531 14.4161
L7.9950 14.4161
" />
<path d="M7.9950 14.4161
L8.1159 14.3557
" />
<path d="M8.1159 14.3557
L8.1764 14.2952
" />
<path d="M8.1764 14.2952
L8.2369 14.1742
" />
<path d="M8.2369 14.1742
L8.2369 13.9323
" />
<path d="M8.2369 13.9323
L8.1764 13.8114
" />
<path d="M8.1764 13.8114
L8.1159 13.7509
" />
<path d="M8.1159 13.7509
L7.9950 13.6904
" />
</g><path d="M11.6840 24.9936
L4.0640 24.9936
" />
<path d="M11.6840 25.6286
L12.9540 24.9936
L11.6840 24.3586
" />
<text x="12.7000" y="25.6286"
textLength="2.7432" font-size="1.6933" lengthAdjust="spacingAndGlyphs"
text-anchor="start" opacity="0">~{CK}</text>
<g class="stroked-text"><desc>~{CK}</desc>
<path d="M13.8282 25.4522
L13.7678 25.5127
" />
<path d="M13.7678 25.5127
L13.5863 25.5731
" />
<path d="M13.5863 25.5731
L13.4654 25.5731
" />
<path d="M13.4654 25.5731
L13.2840 25.5127
" />
<path d="M13.2840 25.5127
L13.1630 25.3917
" />
<path d="M13.1630 25.3917
L13.1025 25.2707
" />
<path d="M13.1025 25.2707
L13.0421 25.0288
" />
<path d="M13.0421 25.0288
L13.0421 24.8474
" />
<path d="M13.0421 24.8474
L13.1025 24.6055
" />
<path d="M13.1025 24.6055
L13.1630 24.4846
" />
<path d="M13.1630 24.4846
L13.2840 24.3636
" />
<path d="M13.2840 24.3636
L13.4654 24.3031
" />
<path d="M13.4654 24.3031
L13.5863 24.3031
" />
<path d="M13.5863 24.3031
L13.7678 24.3636
" />
<path d="M13.7678 24.3636
L13.8282 24.4241
" />
<path d="M14.3725 25.5731
L14.3725 24.3031
" />
<path d="M15.0982 25.5731
L14.5540 24.8474
" />
<path d="M15.0982 24.3031
L14.3725 25.0288
" />
<path d="M12.9272 23.9506
L15.2132 23.9506
" />
</g><text x="7.8740" y="24.7396"
textLength="1.4127" font-size="1.6933" lengthAdjust="spacingAndGlyphs"
text-anchor="middle" opacity="0">9</text>
<g class="stroked-text"><desc>9</desc>
<path d="M7.6321 24.5761
L7.8740 24.5761
" />
<path d="M7.8740 24.5761
L7.9950 24.5157
" />
<path d="M7.9950 24.5157
L8.0554 24.4552
" />
<path d="M8.0554 24.4552
L8.1764 24.2737
" />
<path d="M8.1764 24.2737
L8.2369 24.0318
" />
<path d="M8.2369 24.0318
L8.2369 23.5480
" />
<path d="M8.2369 23.5480
L8.1764 23.4271
" />
<path d="M8.1764 23.4271
L8.1159 23.3666
" />
<path d="M8.1159 23.3666
L7.9950 23.3061
" />
<path d="M7.9950 23.3061
L7.7531 23.3061
" />
<path d="M7.7531 23.3061
L7.6321 23.3666
" />
<path d="M7.6321 23.3666
L7.5716 23.4271
" />
<path d="M7.5716 23.4271
L7.5112 23.5480
" />
<path d="M7.5112 23.5480
L7.5112 23.8504
" />
<path d="M7.5112 23.8504
L7.5716 23.9714
" />
<path d="M7.5716 23.9714
L7.6321 24.0318
" />
<path d="M7.6321 24.0318
L7.7531 24.0923
" />
<path d="M7.7531 24.0923
L7.9950 24.0923
" />
<path d="M7.9950 24.0923
L8.1159 24.0318
" />
<path d="M8.1159 24.0318
L8.1764 23.9714
" />
<path d="M8.1764 23.9714
L8.2369 23.8504
" />
</g></g>
<g style="fill:#000000; fill-opacity:0.0; 
stroke:#000000; stroke-width:0.1588; stroke-opacity:1; 
stroke-linecap:round; stroke-linejoin:round;">
<text x="39.6240" y="15.4686"
textLength="2.6415" font-size="1.6933" lengthAdjust="spacingAndGlyphs"
text-anchor="middle" opacity="0">U?</text>
<g class="stroked-text"><desc>U?</desc>
<path d="M38.7168 14.1428
L38.7168 15.1709
" />
<path d="M38.7168 15.1709
L38.7773 15.2919
" />
<path d="M38.7773 15.2919
L38.8378 15.3524
" />
<path d="M38.8378 15.3524
L38.9587 15.4128
" />
<path d="M38.9587 15.4128
L39.2006 15.4128
" />
<path d="M39.2006 15.4128
L39.3216 15.3524
" />
<path d="M39.3216 15.3524
L39.3821 15.2919
" />
<path d="M39.3821 15.2919
L39.4425 15.1709
" />
<path d="M39.4425 15.1709
L39.4425 14.1428
" />
<path d="M40.2288 15.2919
L40.2892 15.3524
" />
<path d="M40.2892 15.3524
L40.2288 15.4128
" />
<path d="M40.2288 15.4128
L40.1683 15.3524
" />
<path d="M40.1683 15.3524
L40.2288 15.2919
" />
<path d="M40.2288 15.2919
L40.2288 15.4128
" />
<path d="M39.9869 14.2033
L40.1078 14.1428
" />
<path d="M40.1078 14.1428
L40.4102 14.1428
" />
<path d="M40.4102 14.1428
L40.5311 14.2033
" />
<path d="M40.5311 14.2033
L40.5916 14.3243
" />
<path d="M40.5916 14.3243
L40.5916 14.4452
" />
<path d="M40.5916 14.4452
L40.5311 14.5662
" />
<path d="M40.5311 14.5662
L40.4707 14.6266
" />
<path d="M40.4707 14.6266
L40.3497 14.6871
" />
<path d="M40.3497 14.6871
L40.2892 14.7476
" />
<path d="M40.2892 14.7476
L40.2288 14.8685
" />
<path d="M40.2288 14.8685
L40.2288 14.9290
" />
</g><text x="37.0840" y="61.1886"
textLength="8.5075" font-size="1.6933" lengthAdjust="spacingAndGlyphs"
text-anchor="middle" opacity="0">74LS295</text>
<g class="stroked-text"><desc>74LS295</desc>
<path d="M33.1229 59.8628
L33.9695 59.8628
" />
<path d="M33.9695 59.8628
L33.4253 61.1328
" />
<path d="M34.9976 60.2862
L34.9976 61.1328
" />
<path d="M34.6952 59.8024
L34.3929 60.7095
" />
<path d="M34.3929 60.7095
L35.1790 60.7095
" />
<path d="M36.2676 61.1328
L35.6628 61.1328
" />
<path d="M35.6628 61.1328
L35.6628 59.8628
" />
<path d="M36.6305 61.0724
L36.8119 61.1328
" />
<path d="M36.8119 61.1328
L37.1143 61.1328
" />
<path d="M37.1143 61.1328
L37.2352 61.0724
" />
<path d="M37.2352 61.0724
L37.2957 61.0119
" />
<path d="M37.2957 61.0119
L37.3562 60.8909
" />
<path d="M37.3562 60.8909
L37.3562 60.7700
" />
<path d="M37.3562 60.7700
L37.2957 60.6490
" />
<path d="M37.2957 60.6490
L37.2352 60.5885
" />
<path d="M37.2352 60.5885
L37.1143 60.5281
" />
<path d="M37.1143 60.5281
L36.8724 60.4676
" />
<path d="M36.8724 60.4676
L36.7514 60.4071
" />
<path d="M36.7514 60.4071
L36.6909 60.3466
" />
<path d="M36.6909 60.3466
L36.6305 60.2257
" />
<path d="M36.6305 60.2257
L36.6305 60.1047
" />
<path d="M36.6305 60.1047
L36.6909 59.9838
" />
<path d="M36.6909 59.9838
L36.7514 59.9233
" />
<path d="M36.7514 59.9233
L36.8724 59.8628
" />
<path d="M36.8724 59.8628
L37.1747 59.8628
" />
<path d="M37.1747 59.8628
L37.3562 59.9233
" />
<path d="M37.8400 59.9838
L37.9004 59.9233
" />
<path d="M37.9004 59.9233
L38.0214 59.8628
" />
<path d="M38.0214 59.8628
L38.3238 59.8628
" />
<path d="M38.3238 59.8628
L38.4447 59.9233
" />
<path d="M38.4447 59.9233
L38.5052 59.9838
" />
<path d="M38.5052 59.9838
L38.5657 60.1047
" />
<path d="M38.5657 60.1047
L38.5657 60.2257
" />
<path d="M38.5657 60.2257
L38.5052 60.4071
" />
<path d="M38.5052 60.4071
L37.7795 61.1328
" />
<path d="M37.7795 61.1328
L38.5657 61.1328
" />
<path d="M39.1704 61.1328
L39.4123 61.1328
" />
<path d="M39.4123 61.1328
L39.5333 61.0724
" />
<path d="M39.5333 61.0724
L39.5937 61.0119
" />
<path d="M39.5937 61.0119
L39.7147 60.8304
" />
<path d="M39.7147 60.8304
L39.7752 60.5885
" />
<path d="M39.7752 60.5885
L39.7752 60.1047
" />
<path d="M39.7752 60.1047
L39.7147 59.9838
" />
<path d="M39.7147 59.9838
L39.6542 59.9233
" />
<path d="M39.6542 59.9233
L39.5333 59.8628
" />
<path d="M39.5333 59.8628
L39.2914 59.8628
" />
<path d="M39.2914 59.8628
L39.1704 59.9233
" />
<path d="M39.1704 59.9233
L39.1099 59.9838
" />
<path d="M39.1099 59.9838
L39.0495 60.1047
" />
<path d="M39.0495 60.1047
L39.0495 60.4071
" />
<path d="M39.0495 60.4071
L39.1099 60.5281
" />
<path d="M39.1099 60.5281
L39.1704 60.5885
" />
<path d="M39.1704 60.5885
L39.2914 60.6490
" />
<path d="M39.2914 60.6490
L39.5333 60.6490
" />
<path d="M39.5333 60.6490
L39.6542 60.5885
" />
<path d="M39.6542 60.5885
L39.7147 60.5281
" />
<path d="M39.7147 60.5281
L39.7752 60.4071
" />
<path d="M40.9242 59.8628
L40.3194 59.8628
" />
<path d="M40.3194 59.8628
L40.2590 60.4676
" />
<path d="M40.2590 60.4676
L40.3194 60.4071
" />
<path d="M40.3194 60.4071
L40.4404 60.3466
" />
<path d="M40.4404 60.3466
L40.7428 60.3466
" />
<path d="M40.7428 60.3466
L40.8637 60.4071
" />
<path d="M40.8637 60.4071
L40.9242 60.4676
" />
<path d="M40.9242 60.4676
L40.9847 60.5885
" />
<path d="M40.9847 60.5885
L40.9847 60.8909
" />
<path d="M40.9847 60.8909
L40.9242 61.0119
" />
<path d="M40.9242 61.0119
L40.8637 61.0724
" />
<path d="M40.8637 61.0724
L40.7428 61.1328
" />
<path d="M40.7428 61.1328
L40.4404 61.1328
" />
<path d="M40.4404 61.1328
L40.3194 61.0724
" />
<path d="M40.3194 61.0724
L40.2590 61.0119
" />
</g></g> 
</svg>
