<?xml version="1.0" standalone="no"?>
 <!DOCTYPE svg PUBLIC "-//W3C//DTD SVG 1.1//EN" 
 "http://www.w3.org/Graphics/SVG/1.1/DTD/svg11.dtd"> 
<svg
  xmlns:svg="http://www.w3.org/2000/svg"
  xmlns="http://www.w3.org/2000/svg"
  xmlns:xlink="http://www.w3.org/1999/xlink"
  version="1.1"
  width="51.5874mm" height="18.2880mm" viewBox="0.0000 0.0000 51.5874 18.2880">
<title>SVG Image created as relay_dpdt.svg date 2024/01/16 15:21:27 </title>
  <desc>Image generated by Eeschema-SVG </desc>
<g style="fill:#000000; fill-opacity:1.0000;stroke:#000000; stroke-opacity:1.0000;
stroke-linecap:round; stroke-linejoin:round;"
 transform="translate(0 0) scale(1 1)">
</g>
<g style="fill:#000000; fill-opacity:0.0; 
stroke:#000000; stroke-width:0.0000; stroke-opacity:1; 
stroke-linecap:round; stroke-linejoin:round;">
</g>
<g style="fill:#000000; fill-opacity:0.0; 
stroke:#000000; stroke-width:0.2540; stroke-opacity:1; 
stroke-linecap:round; stroke-linejoin:round;">
<rect x="10.553700" y="4.064000" width="30.480000" height="10.160000" rx="0.000000" />
<rect x="12.458700" y="7.239000" width="6.350000" height="3.810000" rx="0.000000" />
<path style="fill:#000000; fill-opacity:0.0; 
stroke:#000000; stroke-width:0.2540; stroke-opacity:1; 
stroke-linecap:round; stroke-linejoin:round;fill:none"
d="M 13.0937,11.0490
18.1737,7.2390
" /> 
</g>
<g style="fill:#000000; fill-opacity:0.0; 
stroke:#000000; stroke-width:0.1524; stroke-opacity:1; 
stroke-linecap:round; stroke-linejoin:round;">
<path style="fill:#000000; fill-opacity:0.0; 
stroke:#000000; stroke-width:0.1524; stroke-opacity:1; 
stroke-linecap:round; stroke-linejoin:round;fill:none"
d="M 15.6337,14.2240
15.6337,11.0490
" /> 
<path style="fill:#000000; fill-opacity:0.0; 
stroke:#000000; stroke-width:0.1524; stroke-opacity:1; 
stroke-linecap:round; stroke-linejoin:round;fill:none"
d="M 15.6337,4.0640
15.6337,7.2390
" /> 
</g>
<g style="fill:#000000; fill-opacity:0.0; 
stroke:#000000; stroke-width:0.2540; stroke-opacity:1; 
stroke-linecap:round; stroke-linejoin:round;">
<path style="fill:#000000; fill-opacity:0.0; 
stroke:#000000; stroke-width:0.2540; stroke-opacity:1; 
stroke-linecap:round; stroke-linejoin:round;fill:none"
d="M 18.8087,9.1440
19.4437,9.1440
" /> 
<path style="fill:#000000; fill-opacity:0.0; 
stroke:#000000; stroke-width:0.2540; stroke-opacity:1; 
stroke-linecap:round; stroke-linejoin:round;fill:none"
d="M 20.0787,9.1440
20.7137,9.1440
" /> 
<path style="fill:#000000; fill-opacity:0.0; 
stroke:#000000; stroke-width:0.2540; stroke-opacity:1; 
stroke-linecap:round; stroke-linejoin:round;fill:none"
d="M 21.3487,9.1440
21.9837,9.1440
" /> 
<path style="fill:#000000; fill-opacity:0.0; 
stroke:#000000; stroke-width:0.2540; stroke-opacity:1; 
stroke-linecap:round; stroke-linejoin:round;fill:none"
d="M 22.6187,9.1440
23.2537,9.1440
" /> 
<path style="fill:#000000; fill-opacity:0.0; 
stroke:#000000; stroke-width:0.2540; stroke-opacity:1; 
stroke-linecap:round; stroke-linejoin:round;fill:none"
d="M 23.8887,9.1440
24.5237,9.1440
" /> 
<path style="fill:#000000; fill-opacity:0.0; 
stroke:#000000; stroke-width:0.2540; stroke-opacity:1; 
stroke-linecap:round; stroke-linejoin:round;fill:none"
d="M 25.1587,9.1440
25.7937,9.1440
" /> 
</g>
<g style="fill:#000000; fill-opacity:0.0; 
stroke:#000000; stroke-width:0.5080; stroke-opacity:1; 
stroke-linecap:round; stroke-linejoin:round;">
<path style="fill:#000000; fill-opacity:0.0; 
stroke:#000000; stroke-width:0.5080; stroke-opacity:1; 
stroke-linecap:round; stroke-linejoin:round;fill:none"
d="M 25.7937,11.6840
23.8887,5.3340
" /> 
</g>
<g style="fill:#000000; fill-opacity:0.0; 
stroke:#000000; stroke-width:0.1524; stroke-opacity:1; 
stroke-linecap:round; stroke-linejoin:round;">
<path style="fill:#000000; fill-opacity:0.0; 
stroke:#000000; stroke-width:0.1524; stroke-opacity:1; 
stroke-linecap:round; stroke-linejoin:round;fill:none"
d="M 25.7937,11.6840
25.7937,14.2240
" /> 
</g>
<g style="fill:#000000; fill-opacity:0.0; 
stroke:#000000; stroke-width:0.2540; stroke-opacity:1; 
stroke-linecap:round; stroke-linejoin:round;">
<path style="fill:#000000; fill-opacity:0.0; 
stroke:#000000; stroke-width:0.2540; stroke-opacity:1; 
stroke-linecap:round; stroke-linejoin:round;fill:none"
d="M 26.4287,9.1440
27.0637,9.1440
" /> 
<path style="fill:#000000; fill-opacity:0.0; 
stroke:#000000; stroke-width:0.2540; stroke-opacity:1; 
stroke-linecap:round; stroke-linejoin:round;fill:none"
d="M 27.6987,9.1440
28.3337,9.1440
" /> 
<path style="fill:#000000; fill-opacity:0.0; 
stroke:#000000; stroke-width:0.2540; stroke-opacity:1; 
stroke-linecap:round; stroke-linejoin:round;fill:none"
d="M 28.9687,9.1440
29.6037,9.1440
" /> 
<path style="fill:#000000; fill-opacity:0.0; 
stroke:#000000; stroke-width:0.2540; stroke-opacity:1; 
stroke-linecap:round; stroke-linejoin:round;fill:none"
d="M 30.2387,9.1440
30.8737,9.1440
" /> 
<path style="fill:#000000; fill-opacity:0.0; 
stroke:#000000; stroke-width:0.2540; stroke-opacity:1; 
stroke-linecap:round; stroke-linejoin:round;fill:none"
d="M 31.5087,9.1440
32.1437,9.1440
" /> 
<path style="fill:#000000; fill-opacity:0.0; 
stroke:#000000; stroke-width:0.2540; stroke-opacity:1; 
stroke-linecap:round; stroke-linejoin:round;fill:none"
d="M 32.7787,9.1440
33.4137,9.1440
" /> 
<path style="fill:#000000; fill-opacity:0.0; 
stroke:#000000; stroke-width:0.2540; stroke-opacity:1; 
stroke-linecap:round; stroke-linejoin:round;fill:none"
d="M 34.0487,9.1440
34.6837,9.1440
" /> 
</g>
<g style="fill:#000000; fill-opacity:0.0; 
stroke:#000000; stroke-width:0.5080; stroke-opacity:1; 
stroke-linecap:round; stroke-linejoin:round;">
<path style="fill:#000000; fill-opacity:0.0; 
stroke:#000000; stroke-width:0.5080; stroke-opacity:1; 
stroke-linecap:round; stroke-linejoin:round;fill:none"
d="M 35.9537,11.6840
34.0487,5.3340
" /> 
</g>
<g style="fill:#000000; fill-opacity:0.0; 
stroke:#000000; stroke-width:0.1524; stroke-opacity:1; 
stroke-linecap:round; stroke-linejoin:round;">
<path style="fill:#000000; fill-opacity:0.0; 
stroke:#000000; stroke-width:0.1524; stroke-opacity:1; 
stroke-linecap:round; stroke-linejoin:round;fill:none"
d="M 35.9537,11.6840
35.9537,14.2240
" /> 
</g>
<g style="fill:#000000; fill-opacity:1.0000; 
stroke:#000000; stroke-width:0.1524; stroke-opacity:1; 
stroke-linecap:round; stroke-linejoin:round;">
<path style="fill:#000000; fill-opacity:1.0000; 
stroke:#000000; stroke-width:0.1524; stroke-opacity:1; 
stroke-linecap:round; stroke-linejoin:round;fill-rule:evenodd;"
d="M 23.2537,4.0640
23.2537,6.6040
23.8887,5.9690
23.2537,5.3340
" /> 
</g>
<g style="fill:#000000; fill-opacity:0.0; 
stroke:#000000; stroke-width:0.1524; stroke-opacity:1; 
stroke-linecap:round; stroke-linejoin:round;">
<path style="fill:#000000; fill-opacity:0.0; 
stroke:#000000; stroke-width:0.1524; stroke-opacity:1; 
stroke-linecap:round; stroke-linejoin:round;fill:none"
d="M 28.3337,4.0640
28.3337,6.6040
27.6987,5.9690
28.3337,5.3340
" /> 
</g>
<g style="fill:#000000; fill-opacity:1.0000; 
stroke:#000000; stroke-width:0.1524; stroke-opacity:1; 
stroke-linecap:round; stroke-linejoin:round;">
<path style="fill:#000000; fill-opacity:1.0000; 
stroke:#000000; stroke-width:0.1524; stroke-opacity:1; 
stroke-linecap:round; stroke-linejoin:round;fill-rule:evenodd;"
d="M 33.4137,4.0640
33.4137,6.6040
34.0487,5.9690
33.4137,5.3340
" /> 
</g>
<g style="fill:#000000; fill-opacity:0.0; 
stroke:#000000; stroke-width:0.1524; stroke-opacity:1; 
stroke-linecap:round; stroke-linejoin:round;">
<path style="fill:#000000; fill-opacity:0.0; 
stroke:#000000; stroke-width:0.1524; stroke-opacity:1; 
stroke-linecap:round; stroke-linejoin:round;fill:none"
d="M 38.4937,4.0640
38.4937,6.6040
37.8587,5.9690
38.4937,5.3340
" /> 
<path d="M25.7937 14.2240
L25.7937 16.7640
" />
<g transform="rotate(-90.000000 25.5397 15.4940)">
<text x="25.5397" y="15.4940"
textLength="2.6222" font-size="1.6933" lengthAdjust="spacingAndGlyphs"
text-anchor="middle" opacity="0">11</text>
</g>
<g class="stroked-text"><desc>11</desc>
<path d="M25.3762 15.7358
L25.3762 16.4615
" />
<path d="M25.3762 16.0987
L24.1062 16.0987
" />
<path d="M24.1062 16.0987
L24.2877 16.2196
" />
<path d="M24.2877 16.2196
L24.4086 16.3406
" />
<path d="M24.4086 16.3406
L24.4691 16.4615
" />
<path d="M25.3762 14.5263
L25.3762 15.2520
" />
<path d="M25.3762 14.8892
L24.1062 14.8892
" />
<path d="M24.1062 14.8892
L24.2877 15.0101
" />
<path d="M24.2877 15.0101
L24.4086 15.1311
" />
<path d="M24.4086 15.1311
L24.4691 15.2520
" />
</g><path d="M23.2537 4.0640
L23.2537 1.5240
" />
<g transform="rotate(-90.000000 22.9997 2.7940)">
<text x="22.9997" y="2.7940"
textLength="2.6222" font-size="1.6933" lengthAdjust="spacingAndGlyphs"
text-anchor="middle" opacity="0">12</text>
</g>
<g class="stroked-text"><desc>12</desc>
<path d="M22.8362 3.0358
L22.8362 3.7615
" />
<path d="M22.8362 3.3987
L21.5662 3.3987
" />
<path d="M21.5662 3.3987
L21.7477 3.5196
" />
<path d="M21.7477 3.5196
L21.8686 3.6406
" />
<path d="M21.8686 3.6406
L21.9291 3.7615
" />
<path d="M21.6872 2.5520
L21.6267 2.4916
" />
<path d="M21.6267 2.4916
L21.5662 2.3706
" />
<path d="M21.5662 2.3706
L21.5662 2.0682
" />
<path d="M21.5662 2.0682
L21.6267 1.9473
" />
<path d="M21.6267 1.9473
L21.6872 1.8868
" />
<path d="M21.6872 1.8868
L21.8081 1.8263
" />
<path d="M21.8081 1.8263
L21.9291 1.8263
" />
<path d="M21.9291 1.8263
L22.1105 1.8868
" />
<path d="M22.1105 1.8868
L22.8362 2.6125
" />
<path d="M22.8362 2.6125
L22.8362 1.8263
" />
</g><path d="M28.3337 4.0640
L28.3337 1.5240
" />
<g transform="rotate(-90.000000 28.0797 2.7940)">
<text x="28.0797" y="2.7940"
textLength="2.6222" font-size="1.6933" lengthAdjust="spacingAndGlyphs"
text-anchor="middle" opacity="0">14</text>
</g>
<g class="stroked-text"><desc>14</desc>
<path d="M27.9162 3.0358
L27.9162 3.7615
" />
<path d="M27.9162 3.3987
L26.6462 3.3987
" />
<path d="M26.6462 3.3987
L26.8277 3.5196
" />
<path d="M26.8277 3.5196
L26.9486 3.6406
" />
<path d="M26.9486 3.6406
L27.0091 3.7615
" />
<path d="M27.0696 1.9473
L27.9162 1.9473
" />
<path d="M26.5858 2.2497
L27.4929 2.5520
" />
<path d="M27.4929 2.5520
L27.4929 1.7659
" />
</g><path d="M35.9537 14.2240
L35.9537 16.7640
" />
<g transform="rotate(-90.000000 35.6997 15.4940)">
<text x="35.6997" y="15.4940"
textLength="2.6222" font-size="1.6933" lengthAdjust="spacingAndGlyphs"
text-anchor="middle" opacity="0">21</text>
</g>
<g class="stroked-text"><desc>21</desc>
<path d="M34.3872 16.4615
L34.3267 16.4011
" />
<path d="M34.3267 16.4011
L34.2662 16.2801
" />
<path d="M34.2662 16.2801
L34.2662 15.9777
" />
<path d="M34.2662 15.9777
L34.3267 15.8568
" />
<path d="M34.3267 15.8568
L34.3872 15.7963
" />
<path d="M34.3872 15.7963
L34.5081 15.7358
" />
<path d="M34.5081 15.7358
L34.6291 15.7358
" />
<path d="M34.6291 15.7358
L34.8105 15.7963
" />
<path d="M34.8105 15.7963
L35.5362 16.5220
" />
<path d="M35.5362 16.5220
L35.5362 15.7358
" />
<path d="M35.5362 14.5263
L35.5362 15.2520
" />
<path d="M35.5362 14.8892
L34.2662 14.8892
" />
<path d="M34.2662 14.8892
L34.4477 15.0101
" />
<path d="M34.4477 15.0101
L34.5686 15.1311
" />
<path d="M34.5686 15.1311
L34.6291 15.2520
" />
</g><path d="M33.4137 4.0640
L33.4137 1.5240
" />
<g transform="rotate(-90.000000 33.1597 2.7940)">
<text x="33.1597" y="2.7940"
textLength="2.6222" font-size="1.6933" lengthAdjust="spacingAndGlyphs"
text-anchor="middle" opacity="0">22</text>
</g>
<g class="stroked-text"><desc>22</desc>
<path d="M31.8472 3.7615
L31.7867 3.7011
" />
<path d="M31.7867 3.7011
L31.7262 3.5801
" />
<path d="M31.7262 3.5801
L31.7262 3.2777
" />
<path d="M31.7262 3.2777
L31.7867 3.1568
" />
<path d="M31.7867 3.1568
L31.8472 3.0963
" />
<path d="M31.8472 3.0963
L31.9681 3.0358
" />
<path d="M31.9681 3.0358
L32.0891 3.0358
" />
<path d="M32.0891 3.0358
L32.2705 3.0963
" />
<path d="M32.2705 3.0963
L32.9962 3.8220
" />
<path d="M32.9962 3.8220
L32.9962 3.0358
" />
<path d="M31.8472 2.5520
L31.7867 2.4916
" />
<path d="M31.7867 2.4916
L31.7262 2.3706
" />
<path d="M31.7262 2.3706
L31.7262 2.0682
" />
<path d="M31.7262 2.0682
L31.7867 1.9473
" />
<path d="M31.7867 1.9473
L31.8472 1.8868
" />
<path d="M31.8472 1.8868
L31.9681 1.8263
" />
<path d="M31.9681 1.8263
L32.0891 1.8263
" />
<path d="M32.0891 1.8263
L32.2705 1.8868
" />
<path d="M32.2705 1.8868
L32.9962 2.6125
" />
<path d="M32.9962 2.6125
L32.9962 1.8263
" />
</g><path d="M38.4937 4.0640
L38.4937 1.5240
" />
<g transform="rotate(-90.000000 38.2397 2.7940)">
<text x="38.2397" y="2.7940"
textLength="2.6222" font-size="1.6933" lengthAdjust="spacingAndGlyphs"
text-anchor="middle" opacity="0">24</text>
</g>
<g class="stroked-text"><desc>24</desc>
<path d="M36.9272 3.7615
L36.8667 3.7011
" />
<path d="M36.8667 3.7011
L36.8062 3.5801
" />
<path d="M36.8062 3.5801
L36.8062 3.2777
" />
<path d="M36.8062 3.2777
L36.8667 3.1568
" />
<path d="M36.8667 3.1568
L36.9272 3.0963
" />
<path d="M36.9272 3.0963
L37.0481 3.0358
" />
<path d="M37.0481 3.0358
L37.1691 3.0358
" />
<path d="M37.1691 3.0358
L37.3505 3.0963
" />
<path d="M37.3505 3.0963
L38.0762 3.8220
" />
<path d="M38.0762 3.8220
L38.0762 3.0358
" />
<path d="M37.2296 1.9473
L38.0762 1.9473
" />
<path d="M36.7458 2.2497
L37.6529 2.5520
" />
<path d="M37.6529 2.5520
L37.6529 1.7659
" />
</g><path d="M15.6337 4.0640
L15.6337 1.5240
" />
<g transform="rotate(-90.000000 15.3797 2.7940)">
<text x="15.3797" y="2.7940"
textLength="2.5013" font-size="1.6933" lengthAdjust="spacingAndGlyphs"
text-anchor="middle" opacity="0">A1</text>
</g>
<g class="stroked-text"><desc>A1</desc>
<path d="M14.8534 3.7010
L14.8534 3.0963
" />
<path d="M15.2162 3.8220
L13.9462 3.3987
" />
<path d="M13.9462 3.3987
L15.2162 2.9753
" />
<path d="M15.2162 1.8867
L15.2162 2.6124
" />
<path d="M15.2162 2.2496
L13.9462 2.2496
" />
<path d="M13.9462 2.2496
L14.1277 2.3705
" />
<path d="M14.1277 2.3705
L14.2486 2.4915
" />
<path d="M14.2486 2.4915
L14.3091 2.6124
" />
</g><path d="M15.6337 14.2240
L15.6337 16.7640
" />
<g transform="rotate(-90.000000 15.3797 15.4940)">
<text x="15.3797" y="15.4940"
textLength="2.5013" font-size="1.6933" lengthAdjust="spacingAndGlyphs"
text-anchor="middle" opacity="0">A2</text>
</g>
<g class="stroked-text"><desc>A2</desc>
<path d="M14.8534 16.4010
L14.8534 15.7963
" />
<path d="M15.2162 16.5220
L13.9462 16.0987
" />
<path d="M13.9462 16.0987
L15.2162 15.6753
" />
<path d="M14.0672 15.3124
L14.0067 15.2520
" />
<path d="M14.0067 15.2520
L13.9462 15.1310
" />
<path d="M13.9462 15.1310
L13.9462 14.8286
" />
<path d="M13.9462 14.8286
L14.0067 14.7077
" />
<path d="M14.0067 14.7077
L14.0672 14.6472
" />
<path d="M14.0672 14.6472
L14.1881 14.5867
" />
<path d="M14.1881 14.5867
L14.3091 14.5867
" />
<path d="M14.3091 14.5867
L14.4905 14.6472
" />
<path d="M14.4905 14.6472
L15.2162 15.3729
" />
<path d="M15.2162 15.3729
L15.2162 14.5867
" />
</g></g>
<g style="fill:#000000; fill-opacity:0.0; 
stroke:#000000; stroke-width:0.1588; stroke-opacity:1; 
stroke-linecap:round; stroke-linejoin:round;">
<text x="43.5942" y="5.9690"
textLength="2.5810" font-size="1.6933" lengthAdjust="spacingAndGlyphs"
text-anchor="middle" opacity="0">K?</text>
<g class="stroked-text"><desc>K?</desc>
<path d="M42.7172 5.9132
L42.7172 4.6432
" />
<path d="M43.4429 5.9132
L42.8987 5.1875
" />
<path d="M43.4429 4.6432
L42.7172 5.3689
" />
<path d="M44.1687 5.7923
L44.2291 5.8528
" />
<path d="M44.2291 5.8528
L44.1687 5.9132
" />
<path d="M44.1687 5.9132
L44.1082 5.8528
" />
<path d="M44.1082 5.8528
L44.1687 5.7923
" />
<path d="M44.1687 5.7923
L44.1687 5.9132
" />
<path d="M43.9268 4.7037
L44.0477 4.6432
" />
<path d="M44.0477 4.6432
L44.3501 4.6432
" />
<path d="M44.3501 4.6432
L44.4710 4.7037
" />
<path d="M44.4710 4.7037
L44.5315 4.8247
" />
<path d="M44.5315 4.8247
L44.5315 4.9456
" />
<path d="M44.5315 4.9456
L44.4710 5.0666
" />
<path d="M44.4710 5.0666
L44.4106 5.1270
" />
<path d="M44.4106 5.1270
L44.2896 5.1875
" />
<path d="M44.2896 5.1875
L44.2291 5.2480
" />
<path d="M44.2291 5.2480
L44.1687 5.3689
" />
<path d="M44.1687 5.3689
L44.1687 5.4294
" />
</g><text x="47.8577" y="8.5090"
textLength="11.1080" font-size="1.6933" lengthAdjust="spacingAndGlyphs"
text-anchor="middle" opacity="0">Relay_DPDT</text>
<g class="stroked-text"><desc>Relay_DPDT</desc>
<path d="M43.4429 8.4532
L43.0196 7.8485
" />
<path d="M42.7172 8.4532
L42.7172 7.1832
" />
<path d="M42.7172 7.1832
L43.2010 7.1832
" />
<path d="M43.2010 7.1832
L43.3220 7.2437
" />
<path d="M43.3220 7.2437
L43.3825 7.3042
" />
<path d="M43.3825 7.3042
L43.4429 7.4251
" />
<path d="M43.4429 7.4251
L43.4429 7.6066
" />
<path d="M43.4429 7.6066
L43.3825 7.7275
" />
<path d="M43.3825 7.7275
L43.3220 7.7880
" />
<path d="M43.3220 7.7880
L43.2010 7.8485
" />
<path d="M43.2010 7.8485
L42.7172 7.8485
" />
<path d="M44.4710 8.3928
L44.3501 8.4532
" />
<path d="M44.3501 8.4532
L44.1082 8.4532
" />
<path d="M44.1082 8.4532
L43.9872 8.3928
" />
<path d="M43.9872 8.3928
L43.9268 8.2718
" />
<path d="M43.9268 8.2718
L43.9268 7.7880
" />
<path d="M43.9268 7.7880
L43.9872 7.6670
" />
<path d="M43.9872 7.6670
L44.1082 7.6066
" />
<path d="M44.1082 7.6066
L44.3501 7.6066
" />
<path d="M44.3501 7.6066
L44.4710 7.6670
" />
<path d="M44.4710 7.6670
L44.5315 7.7880
" />
<path d="M44.5315 7.7880
L44.5315 7.9089
" />
<path d="M44.5315 7.9089
L43.9268 8.0299
" />
<path d="M45.2573 8.4532
L45.1363 8.3928
" />
<path d="M45.1363 8.3928
L45.0758 8.2718
" />
<path d="M45.0758 8.2718
L45.0758 7.1832
" />
<path d="M46.2853 8.4532
L46.2853 7.7880
" />
<path d="M46.2853 7.7880
L46.2248 7.6670
" />
<path d="M46.2248 7.6670
L46.1039 7.6066
" />
<path d="M46.1039 7.6066
L45.8620 7.6066
" />
<path d="M45.8620 7.6066
L45.7410 7.6670
" />
<path d="M46.2853 8.3928
L46.1644 8.4532
" />
<path d="M46.1644 8.4532
L45.8620 8.4532
" />
<path d="M45.8620 8.4532
L45.7410 8.3928
" />
<path d="M45.7410 8.3928
L45.6806 8.2718
" />
<path d="M45.6806 8.2718
L45.6806 8.1508
" />
<path d="M45.6806 8.1508
L45.7410 8.0299
" />
<path d="M45.7410 8.0299
L45.8620 7.9694
" />
<path d="M45.8620 7.9694
L46.1644 7.9694
" />
<path d="M46.1644 7.9694
L46.2853 7.9089
" />
<path d="M46.7691 7.6066
L47.0715 8.4532
" />
<path d="M47.3738 7.6066
L47.0715 8.4532
" />
<path d="M47.0715 8.4532
L46.9505 8.7556
" />
<path d="M46.9505 8.7556
L46.8900 8.8161
" />
<path d="M46.8900 8.8161
L46.7691 8.8766
" />
<path d="M47.5553 8.5742
L48.5229 8.5742
" />
<path d="M48.8252 8.4532
L48.8252 7.1832
" />
<path d="M48.8252 7.1832
L49.1276 7.1832
" />
<path d="M49.1276 7.1832
L49.3090 7.2437
" />
<path d="M49.3090 7.2437
L49.4300 7.3647
" />
<path d="M49.4300 7.3647
L49.4905 7.4856
" />
<path d="M49.4905 7.4856
L49.5509 7.7275
" />
<path d="M49.5509 7.7275
L49.5509 7.9089
" />
<path d="M49.5509 7.9089
L49.4905 8.1508
" />
<path d="M49.4905 8.1508
L49.4300 8.2718
" />
<path d="M49.4300 8.2718
L49.3090 8.3928
" />
<path d="M49.3090 8.3928
L49.1276 8.4532
" />
<path d="M49.1276 8.4532
L48.8252 8.4532
" />
<path d="M50.0952 8.4532
L50.0952 7.1832
" />
<path d="M50.0952 7.1832
L50.5790 7.1832
" />
<path d="M50.5790 7.1832
L50.7000 7.2437
" />
<path d="M50.7000 7.2437
L50.7605 7.3042
" />
<path d="M50.7605 7.3042
L50.8209 7.4251
" />
<path d="M50.8209 7.4251
L50.8209 7.6066
" />
<path d="M50.8209 7.6066
L50.7605 7.7275
" />
<path d="M50.7605 7.7275
L50.7000 7.7880
" />
<path d="M50.7000 7.7880
L50.5790 7.8485
" />
<path d="M50.5790 7.8485
L50.0952 7.8485
" />
<path d="M51.3652 8.4532
L51.3652 7.1832
" />
<path d="M51.3652 7.1832
L51.6676 7.1832
" />
<path d="M51.6676 7.1832
L51.8490 7.2437
" />
<path d="M51.8490 7.2437
L51.9700 7.3647
" />
<path d="M51.9700 7.3647
L52.0305 7.4856
" />
<path d="M52.0305 7.4856
L52.0909 7.7275
" />
<path d="M52.0909 7.7275
L52.0909 7.9089
" />
<path d="M52.0909 7.9089
L52.0305 8.1508
" />
<path d="M52.0305 8.1508
L51.9700 8.2718
" />
<path d="M51.9700 8.2718
L51.8490 8.3928
" />
<path d="M51.8490 8.3928
L51.6676 8.4532
" />
<path d="M51.6676 8.4532
L51.3652 8.4532
" />
<path d="M52.4538 7.1832
L53.1795 7.1832
" />
<path d="M52.8167 8.4532
L52.8167 7.1832
" />
</g></g> 
</svg>
