<?xml version="1.0" standalone="no"?>
 <!DOCTYPE svg PUBLIC "-//W3C//DTD SVG 1.1//EN" 
 "http://www.w3.org/Graphics/SVG/1.1/DTD/svg11.dtd"> 
<svg
  xmlns:svg="http://www.w3.org/2000/svg"
  xmlns="http://www.w3.org/2000/svg"
  xmlns:xlink="http://www.w3.org/1999/xlink"
  version="1.1"
  width="74.6506mm" height="30.4800mm" viewBox="0.0000 0.0000 74.6506 30.4800">
<title>SVG Image created as 4009_7.svg date 2024/01/16 15:08:47 </title>
  <desc>Image generated by Eeschema-SVG </desc>
<g style="fill:#000000; fill-opacity:1.0000;stroke:#000000; stroke-opacity:1.0000;
stroke-linecap:round; stroke-linejoin:round;"
 transform="translate(0 0) scale(1 1)">
</g>
<g style="fill:#840000; fill-opacity:0.0; 
stroke:#840000; stroke-width:0.0000; stroke-opacity:1; 
stroke-linecap:round; stroke-linejoin:round;">
</g>
<g style="fill:#FFFFC2; fill-opacity:0.0; 
stroke:#FFFFC2; stroke-width:0.0000; stroke-opacity:1; 
stroke-linecap:round; stroke-linejoin:round;">
</g>
<g style="fill:#FFFFC2; fill-opacity:1.0000; 
stroke:#FFFFC2; stroke-width:0.0000; stroke-opacity:1; 
stroke-linecap:round; stroke-linejoin:round;">
<rect x="32.245300" y="7.620000" width="10.160000" height="15.240000" rx="0.000000" />
</g>
<g style="fill:#840084; fill-opacity:1.0000; 
stroke:#840084; stroke-width:0.0000; stroke-opacity:1; 
stroke-linecap:round; stroke-linejoin:round;">
</g>
<g style="fill:#840000; fill-opacity:1.0000; 
stroke:#840000; stroke-width:0.0000; stroke-opacity:1; 
stroke-linecap:round; stroke-linejoin:round;">
</g>
<g style="fill:#840000; fill-opacity:0.0; 
stroke:#840000; stroke-width:0.2540; stroke-opacity:1; 
stroke-linecap:round; stroke-linejoin:round;">
<rect x="32.245300" y="7.620000" width="10.160000" height="15.240000" rx="0.000000" />
</g>
<g style="fill:#840000; fill-opacity:0.0; 
stroke:#840000; stroke-width:0.1524; stroke-opacity:1; 
stroke-linecap:round; stroke-linejoin:round;">
<path d="M39.8653 7.6200
L39.8653 2.5400
" />
</g>
<g style="fill:#006464; fill-opacity:0.0; 
stroke:#006464; stroke-width:0.1524; stroke-opacity:1; 
stroke-linecap:round; stroke-linejoin:round;">
<g transform="rotate(-90.000000 39.8653 8.6360)">
<text x="39.8653" y="9.2710"
textLength="3.8318" font-size="1.6933" lengthAdjust="spacingAndGlyphs"
text-anchor="end" opacity="0">VCC</text>
</g>
<g class="stroked-text"><desc>VCC</desc>
<path d="M39.1748 12.2438
L40.4448 11.8205
" />
<path d="M40.4448 11.8205
L39.1748 11.3971
" />
<path d="M40.3239 10.2481
L40.3844 10.3085
" />
<path d="M40.3844 10.3085
L40.4448 10.4900
" />
<path d="M40.4448 10.4900
L40.4448 10.6109
" />
<path d="M40.4448 10.6109
L40.3844 10.7923
" />
<path d="M40.3844 10.7923
L40.2634 10.9133
" />
<path d="M40.2634 10.9133
L40.1424 10.9738
" />
<path d="M40.1424 10.9738
L39.9005 11.0342
" />
<path d="M39.9005 11.0342
L39.7191 11.0342
" />
<path d="M39.7191 11.0342
L39.4772 10.9738
" />
<path d="M39.4772 10.9738
L39.3563 10.9133
" />
<path d="M39.3563 10.9133
L39.2353 10.7923
" />
<path d="M39.2353 10.7923
L39.1748 10.6109
" />
<path d="M39.1748 10.6109
L39.1748 10.4900
" />
<path d="M39.1748 10.4900
L39.2353 10.3085
" />
<path d="M39.2353 10.3085
L39.2958 10.2481
" />
<path d="M40.3239 8.9781
L40.3844 9.0385
" />
<path d="M40.3844 9.0385
L40.4448 9.2200
" />
<path d="M40.4448 9.2200
L40.4448 9.3409
" />
<path d="M40.4448 9.3409
L40.3844 9.5223
" />
<path d="M40.3844 9.5223
L40.2634 9.6433
" />
<path d="M40.2634 9.6433
L40.1424 9.7038
" />
<path d="M40.1424 9.7038
L39.9005 9.7642
" />
<path d="M39.9005 9.7642
L39.7191 9.7642
" />
<path d="M39.7191 9.7642
L39.4772 9.7038
" />
<path d="M39.4772 9.7038
L39.3563 9.6433
" />
<path d="M39.3563 9.6433
L39.2353 9.5223
" />
<path d="M39.2353 9.5223
L39.1748 9.3409
" />
<path d="M39.1748 9.3409
L39.1748 9.2200
" />
<path d="M39.1748 9.2200
L39.2353 9.0385
" />
<path d="M39.2353 9.0385
L39.2958 8.9781
" />
</g></g>
<g style="fill:#A90000; fill-opacity:0.0; 
stroke:#A90000; stroke-width:0.1524; stroke-opacity:1; 
stroke-linecap:round; stroke-linejoin:round;">
<g transform="rotate(-90.000000 39.6113 5.0800)">
<text x="39.6113" y="5.0800"
textLength="1.4127" font-size="1.6933" lengthAdjust="spacingAndGlyphs"
text-anchor="middle" opacity="0">1</text>
</g>
<g class="stroked-text"><desc>1</desc>
<path d="M39.4478 4.7170
L39.4478 5.4427
" />
<path d="M39.4478 5.0799
L38.1778 5.0799
" />
<path d="M38.1778 5.0799
L38.3593 5.2008
" />
<path d="M38.3593 5.2008
L38.4802 5.3218
" />
<path d="M38.4802 5.3218
L38.5407 5.4427
" />
</g></g>
<g style="fill:#840000; fill-opacity:0.0; 
stroke:#840000; stroke-width:0.1524; stroke-opacity:1; 
stroke-linecap:round; stroke-linejoin:round;">
<path d="M34.7853 7.6200
L34.7853 2.5400
" />
</g>
<g style="fill:#006464; fill-opacity:0.0; 
stroke:#006464; stroke-width:0.1524; stroke-opacity:1; 
stroke-linecap:round; stroke-linejoin:round;">
<g transform="rotate(-90.000000 34.7853 8.6360)">
<text x="34.7853" y="9.2710"
textLength="3.8318" font-size="1.6933" lengthAdjust="spacingAndGlyphs"
text-anchor="end" opacity="0">VDD</text>
</g>
<g class="stroked-text"><desc>VDD</desc>
<path d="M34.0948 12.2438
L35.3648 11.8205
" />
<path d="M35.3648 11.8205
L34.0948 11.3971
" />
<path d="M35.3648 10.9738
L34.0948 10.9738
" />
<path d="M34.0948 10.9738
L34.0948 10.6714
" />
<path d="M34.0948 10.6714
L34.1553 10.4900
" />
<path d="M34.1553 10.4900
L34.2763 10.3690
" />
<path d="M34.2763 10.3690
L34.3972 10.3085
" />
<path d="M34.3972 10.3085
L34.6391 10.2481
" />
<path d="M34.6391 10.2481
L34.8205 10.2481
" />
<path d="M34.8205 10.2481
L35.0624 10.3085
" />
<path d="M35.0624 10.3085
L35.1834 10.3690
" />
<path d="M35.1834 10.3690
L35.3044 10.4900
" />
<path d="M35.3044 10.4900
L35.3648 10.6714
" />
<path d="M35.3648 10.6714
L35.3648 10.9738
" />
<path d="M35.3648 9.7038
L34.0948 9.7038
" />
<path d="M34.0948 9.7038
L34.0948 9.4014
" />
<path d="M34.0948 9.4014
L34.1553 9.2200
" />
<path d="M34.1553 9.2200
L34.2763 9.0990
" />
<path d="M34.2763 9.0990
L34.3972 9.0385
" />
<path d="M34.3972 9.0385
L34.6391 8.9781
" />
<path d="M34.6391 8.9781
L34.8205 8.9781
" />
<path d="M34.8205 8.9781
L35.0624 9.0385
" />
<path d="M35.0624 9.0385
L35.1834 9.0990
" />
<path d="M35.1834 9.0990
L35.3044 9.2200
" />
<path d="M35.3044 9.2200
L35.3648 9.4014
" />
<path d="M35.3648 9.4014
L35.3648 9.7038
" />
</g></g>
<g style="fill:#A90000; fill-opacity:0.0; 
stroke:#A90000; stroke-width:0.1524; stroke-opacity:1; 
stroke-linecap:round; stroke-linejoin:round;">
<g transform="rotate(-90.000000 34.5313 5.0800)">
<text x="34.5313" y="5.0800"
textLength="2.6222" font-size="1.6933" lengthAdjust="spacingAndGlyphs"
text-anchor="middle" opacity="0">16</text>
</g>
<g class="stroked-text"><desc>16</desc>
<path d="M34.3678 5.3218
L34.3678 6.0475
" />
<path d="M34.3678 5.6847
L33.0978 5.6847
" />
<path d="M33.0978 5.6847
L33.2793 5.8056
" />
<path d="M33.2793 5.8056
L33.4002 5.9266
" />
<path d="M33.4002 5.9266
L33.4607 6.0475
" />
<path d="M33.0978 4.2333
L33.0978 4.4752
" />
<path d="M33.0978 4.4752
L33.1583 4.5961
" />
<path d="M33.1583 4.5961
L33.2188 4.6566
" />
<path d="M33.2188 4.6566
L33.4002 4.7776
" />
<path d="M33.4002 4.7776
L33.6421 4.8380
" />
<path d="M33.6421 4.8380
L34.1259 4.8380
" />
<path d="M34.1259 4.8380
L34.2469 4.7776
" />
<path d="M34.2469 4.7776
L34.3074 4.7171
" />
<path d="M34.3074 4.7171
L34.3678 4.5961
" />
<path d="M34.3678 4.5961
L34.3678 4.3542
" />
<path d="M34.3678 4.3542
L34.3074 4.2333
" />
<path d="M34.3074 4.2333
L34.2469 4.1728
" />
<path d="M34.2469 4.1728
L34.1259 4.1123
" />
<path d="M34.1259 4.1123
L33.8235 4.1123
" />
<path d="M33.8235 4.1123
L33.7026 4.1728
" />
<path d="M33.7026 4.1728
L33.6421 4.2333
" />
<path d="M33.6421 4.2333
L33.5816 4.3542
" />
<path d="M33.5816 4.3542
L33.5816 4.5961
" />
<path d="M33.5816 4.5961
L33.6421 4.7171
" />
<path d="M33.6421 4.7171
L33.7026 4.7776
" />
<path d="M33.7026 4.7776
L33.8235 4.8380
" />
</g></g>
<g style="fill:#840000; fill-opacity:0.0; 
stroke:#840000; stroke-width:0.1524; stroke-opacity:1; 
stroke-linecap:round; stroke-linejoin:round;">
<path d="M37.3253 22.8600
L37.3253 27.9400
" />
</g>
<g style="fill:#006464; fill-opacity:0.0; 
stroke:#006464; stroke-width:0.1524; stroke-opacity:1; 
stroke-linecap:round; stroke-linejoin:round;">
<g transform="rotate(-90.000000 37.3253 21.8440)">
<text x="37.3253" y="22.4790"
textLength="3.7108" font-size="1.6933" lengthAdjust="spacingAndGlyphs"
text-anchor="start" opacity="0">VSS</text>
</g>
<g class="stroked-text"><desc>VSS</desc>
<path d="M36.6348 21.6228
L37.9048 21.1995
" />
<path d="M37.9048 21.1995
L36.6348 20.7761
" />
<path d="M37.8444 20.4132
L37.9048 20.2318
" />
<path d="M37.9048 20.2318
L37.9048 19.9294
" />
<path d="M37.9048 19.9294
L37.8444 19.8085
" />
<path d="M37.8444 19.8085
L37.7839 19.7480
" />
<path d="M37.7839 19.7480
L37.6629 19.6875
" />
<path d="M37.6629 19.6875
L37.5420 19.6875
" />
<path d="M37.5420 19.6875
L37.4210 19.7480
" />
<path d="M37.4210 19.7480
L37.3605 19.8085
" />
<path d="M37.3605 19.8085
L37.3001 19.9294
" />
<path d="M37.3001 19.9294
L37.2396 20.1713
" />
<path d="M37.2396 20.1713
L37.1791 20.2923
" />
<path d="M37.1791 20.2923
L37.1186 20.3528
" />
<path d="M37.1186 20.3528
L36.9977 20.4132
" />
<path d="M36.9977 20.4132
L36.8767 20.4132
" />
<path d="M36.8767 20.4132
L36.7558 20.3528
" />
<path d="M36.7558 20.3528
L36.6953 20.2923
" />
<path d="M36.6953 20.2923
L36.6348 20.1713
" />
<path d="M36.6348 20.1713
L36.6348 19.8690
" />
<path d="M36.6348 19.8690
L36.6953 19.6875
" />
<path d="M37.8444 19.2037
L37.9048 19.0223
" />
<path d="M37.9048 19.0223
L37.9048 18.7199
" />
<path d="M37.9048 18.7199
L37.8444 18.5990
" />
<path d="M37.8444 18.5990
L37.7839 18.5385
" />
<path d="M37.7839 18.5385
L37.6629 18.4780
" />
<path d="M37.6629 18.4780
L37.5420 18.4780
" />
<path d="M37.5420 18.4780
L37.4210 18.5385
" />
<path d="M37.4210 18.5385
L37.3605 18.5990
" />
<path d="M37.3605 18.5990
L37.3001 18.7199
" />
<path d="M37.3001 18.7199
L37.2396 18.9618
" />
<path d="M37.2396 18.9618
L37.1791 19.0828
" />
<path d="M37.1791 19.0828
L37.1186 19.1433
" />
<path d="M37.1186 19.1433
L36.9977 19.2037
" />
<path d="M36.9977 19.2037
L36.8767 19.2037
" />
<path d="M36.8767 19.2037
L36.7558 19.1433
" />
<path d="M36.7558 19.1433
L36.6953 19.0828
" />
<path d="M36.6953 19.0828
L36.6348 18.9618
" />
<path d="M36.6348 18.9618
L36.6348 18.6595
" />
<path d="M36.6348 18.6595
L36.6953 18.4780
" />
</g></g>
<g style="fill:#A90000; fill-opacity:0.0; 
stroke:#A90000; stroke-width:0.1524; stroke-opacity:1; 
stroke-linecap:round; stroke-linejoin:round;">
<g transform="rotate(-90.000000 37.0713 25.4000)">
<text x="37.0713" y="25.4000"
textLength="1.4127" font-size="1.6933" lengthAdjust="spacingAndGlyphs"
text-anchor="middle" opacity="0">8</text>
</g>
<g class="stroked-text"><desc>8</desc>
<path d="M36.1821 25.5208
L36.1216 25.6418
" />
<path d="M36.1216 25.6418
L36.0612 25.7023
" />
<path d="M36.0612 25.7023
L35.9402 25.7627
" />
<path d="M35.9402 25.7627
L35.8797 25.7627
" />
<path d="M35.8797 25.7627
L35.7588 25.7023
" />
<path d="M35.7588 25.7023
L35.6983 25.6418
" />
<path d="M35.6983 25.6418
L35.6378 25.5208
" />
<path d="M35.6378 25.5208
L35.6378 25.2789
" />
<path d="M35.6378 25.2789
L35.6983 25.1580
" />
<path d="M35.6983 25.1580
L35.7588 25.0975
" />
<path d="M35.7588 25.0975
L35.8797 25.0370
" />
<path d="M35.8797 25.0370
L35.9402 25.0370
" />
<path d="M35.9402 25.0370
L36.0612 25.0975
" />
<path d="M36.0612 25.0975
L36.1216 25.1580
" />
<path d="M36.1216 25.1580
L36.1821 25.2789
" />
<path d="M36.1821 25.2789
L36.1821 25.5208
" />
<path d="M36.1821 25.5208
L36.2426 25.6418
" />
<path d="M36.2426 25.6418
L36.3031 25.7023
" />
<path d="M36.3031 25.7023
L36.4240 25.7627
" />
<path d="M36.4240 25.7627
L36.6659 25.7627
" />
<path d="M36.6659 25.7627
L36.7869 25.7023
" />
<path d="M36.7869 25.7023
L36.8474 25.6418
" />
<path d="M36.8474 25.6418
L36.9078 25.5208
" />
<path d="M36.9078 25.5208
L36.9078 25.2789
" />
<path d="M36.9078 25.2789
L36.8474 25.1580
" />
<path d="M36.8474 25.1580
L36.7869 25.0975
" />
<path d="M36.7869 25.0975
L36.6659 25.0370
" />
<path d="M36.6659 25.0370
L36.4240 25.0370
" />
<path d="M36.4240 25.0370
L36.3031 25.0975
" />
<path d="M36.3031 25.0975
L36.2426 25.1580
" />
<path d="M36.2426 25.1580
L36.1821 25.2789
" />
</g></g>
<g style="fill:#840084; fill-opacity:0.0; 
stroke:#840084; stroke-width:0.1524; stroke-opacity:1; 
stroke-linecap:round; stroke-linejoin:round;">
</g>
<g style="fill:#006464; fill-opacity:0.0; 
stroke:#006464; stroke-width:0.1524; stroke-opacity:1; 
stroke-linecap:round; stroke-linejoin:round;">
</g>
<g style="fill:#006464; fill-opacity:0.0; 
stroke:#006464; stroke-width:0.1588; stroke-opacity:1; 
stroke-linecap:round; stroke-linejoin:round;">
<text x="37.3253" y="14.6050"
textLength="3.9115" font-size="1.6933" lengthAdjust="spacingAndGlyphs"
text-anchor="middle" opacity="0">U?G</text>
<g class="stroked-text"><desc>U?G</desc>
<path d="M35.7831 13.2792
L35.7831 14.3073
" />
<path d="M35.7831 14.3073
L35.8436 14.4283
" />
<path d="M35.8436 14.4283
L35.9041 14.4888
" />
<path d="M35.9041 14.4888
L36.0250 14.5492
" />
<path d="M36.0250 14.5492
L36.2669 14.5492
" />
<path d="M36.2669 14.5492
L36.3879 14.4888
" />
<path d="M36.3879 14.4888
L36.4484 14.4283
" />
<path d="M36.4484 14.4283
L36.5088 14.3073
" />
<path d="M36.5088 14.3073
L36.5088 13.2792
" />
<path d="M37.2951 14.4283
L37.3555 14.4888
" />
<path d="M37.3555 14.4888
L37.2951 14.5492
" />
<path d="M37.2951 14.5492
L37.2346 14.4888
" />
<path d="M37.2346 14.4888
L37.2951 14.4283
" />
<path d="M37.2951 14.4283
L37.2951 14.5492
" />
<path d="M37.0532 13.3397
L37.1741 13.2792
" />
<path d="M37.1741 13.2792
L37.4765 13.2792
" />
<path d="M37.4765 13.2792
L37.5974 13.3397
" />
<path d="M37.5974 13.3397
L37.6579 13.4607
" />
<path d="M37.6579 13.4607
L37.6579 13.5816
" />
<path d="M37.6579 13.5816
L37.5974 13.7026
" />
<path d="M37.5974 13.7026
L37.5370 13.7630
" />
<path d="M37.5370 13.7630
L37.4160 13.8235
" />
<path d="M37.4160 13.8235
L37.3555 13.8840
" />
<path d="M37.3555 13.8840
L37.2951 14.0049
" />
<path d="M37.2951 14.0049
L37.2951 14.0654
" />
<path d="M38.8675 13.3397
L38.7465 13.2792
" />
<path d="M38.7465 13.2792
L38.5651 13.2792
" />
<path d="M38.5651 13.2792
L38.3837 13.3397
" />
<path d="M38.3837 13.3397
L38.2627 13.4607
" />
<path d="M38.2627 13.4607
L38.2022 13.5816
" />
<path d="M38.2022 13.5816
L38.1418 13.8235
" />
<path d="M38.1418 13.8235
L38.1418 14.0049
" />
<path d="M38.1418 14.0049
L38.2022 14.2468
" />
<path d="M38.2022 14.2468
L38.2627 14.3678
" />
<path d="M38.2627 14.3678
L38.3837 14.4888
" />
<path d="M38.3837 14.4888
L38.5651 14.5492
" />
<path d="M38.5651 14.5492
L38.6860 14.5492
" />
<path d="M38.6860 14.5492
L38.8675 14.4888
" />
<path d="M38.8675 14.4888
L38.9279 14.4283
" />
<path d="M38.9279 14.4283
L38.9279 14.0049
" />
<path d="M38.9279 14.0049
L38.6860 14.0049
" />
</g><text x="37.3253" y="17.1450"
textLength="5.0604" font-size="1.6933" lengthAdjust="spacingAndGlyphs"
text-anchor="middle" opacity="0">4009</text>
<g class="stroked-text"><desc>4009</desc>
<path d="M35.7529 16.2426
L35.7529 17.0892
" />
<path d="M35.4505 15.7588
L35.1482 16.6659
" />
<path d="M35.1482 16.6659
L35.9343 16.6659
" />
<path d="M36.6600 15.8192
L36.7810 15.8192
" />
<path d="M36.7810 15.8192
L36.9019 15.8797
" />
<path d="M36.9019 15.8797
L36.9624 15.9402
" />
<path d="M36.9624 15.9402
L37.0229 16.0611
" />
<path d="M37.0229 16.0611
L37.0834 16.3030
" />
<path d="M37.0834 16.3030
L37.0834 16.6054
" />
<path d="M37.0834 16.6054
L37.0229 16.8473
" />
<path d="M37.0229 16.8473
L36.9624 16.9683
" />
<path d="M36.9624 16.9683
L36.9019 17.0288
" />
<path d="M36.9019 17.0288
L36.7810 17.0892
" />
<path d="M36.7810 17.0892
L36.6600 17.0892
" />
<path d="M36.6600 17.0892
L36.5391 17.0288
" />
<path d="M36.5391 17.0288
L36.4786 16.9683
" />
<path d="M36.4786 16.9683
L36.4181 16.8473
" />
<path d="M36.4181 16.8473
L36.3577 16.6054
" />
<path d="M36.3577 16.6054
L36.3577 16.3030
" />
<path d="M36.3577 16.3030
L36.4181 16.0611
" />
<path d="M36.4181 16.0611
L36.4786 15.9402
" />
<path d="M36.4786 15.9402
L36.5391 15.8797
" />
<path d="M36.5391 15.8797
L36.6600 15.8192
" />
<path d="M37.8695 15.8192
L37.9905 15.8192
" />
<path d="M37.9905 15.8192
L38.1114 15.8797
" />
<path d="M38.1114 15.8797
L38.1719 15.9402
" />
<path d="M38.1719 15.9402
L38.2324 16.0611
" />
<path d="M38.2324 16.0611
L38.2929 16.3030
" />
<path d="M38.2929 16.3030
L38.2929 16.6054
" />
<path d="M38.2929 16.6054
L38.2324 16.8473
" />
<path d="M38.2324 16.8473
L38.1719 16.9683
" />
<path d="M38.1719 16.9683
L38.1114 17.0288
" />
<path d="M38.1114 17.0288
L37.9905 17.0892
" />
<path d="M37.9905 17.0892
L37.8695 17.0892
" />
<path d="M37.8695 17.0892
L37.7486 17.0288
" />
<path d="M37.7486 17.0288
L37.6881 16.9683
" />
<path d="M37.6881 16.9683
L37.6276 16.8473
" />
<path d="M37.6276 16.8473
L37.5672 16.6054
" />
<path d="M37.5672 16.6054
L37.5672 16.3030
" />
<path d="M37.5672 16.3030
L37.6276 16.0611
" />
<path d="M37.6276 16.0611
L37.6881 15.9402
" />
<path d="M37.6881 15.9402
L37.7486 15.8797
" />
<path d="M37.7486 15.8797
L37.8695 15.8192
" />
<path d="M38.8976 17.0892
L39.1395 17.0892
" />
<path d="M39.1395 17.0892
L39.2605 17.0288
" />
<path d="M39.2605 17.0288
L39.3209 16.9683
" />
<path d="M39.3209 16.9683
L39.4419 16.7868
" />
<path d="M39.4419 16.7868
L39.5024 16.5449
" />
<path d="M39.5024 16.5449
L39.5024 16.0611
" />
<path d="M39.5024 16.0611
L39.4419 15.9402
" />
<path d="M39.4419 15.9402
L39.3814 15.8797
" />
<path d="M39.3814 15.8797
L39.2605 15.8192
" />
<path d="M39.2605 15.8192
L39.0186 15.8192
" />
<path d="M39.0186 15.8192
L38.8976 15.8797
" />
<path d="M38.8976 15.8797
L38.8371 15.9402
" />
<path d="M38.8371 15.9402
L38.7767 16.0611
" />
<path d="M38.7767 16.0611
L38.7767 16.3635
" />
<path d="M38.7767 16.3635
L38.8371 16.4845
" />
<path d="M38.8371 16.4845
L38.8976 16.5449
" />
<path d="M38.8976 16.5449
L39.0186 16.6054
" />
<path d="M39.0186 16.6054
L39.2605 16.6054
" />
<path d="M39.2605 16.6054
L39.3814 16.5449
" />
<path d="M39.3814 16.5449
L39.4419 16.4845
" />
<path d="M39.4419 16.4845
L39.5024 16.3635
" />
</g></g> 
</svg>
