<?xml version="1.0" standalone="no"?>
 <!DOCTYPE svg PUBLIC "-//W3C//DTD SVG 1.1//EN" 
 "http://www.w3.org/Graphics/SVG/1.1/DTD/svg11.dtd"> 
<svg
  xmlns:svg="http://www.w3.org/2000/svg"
  xmlns="http://www.w3.org/2000/svg"
  xmlns:xlink="http://www.w3.org/1999/xlink"
  version="1.1"
  width="50.1904mm" height="43.8912mm" viewBox="0.0000 0.0000 50.1904 43.8912">
<title>SVG Image created as conn_02x12_odd_even_mountingpin.svg date 2024/01/16 15:18:22 </title>
  <desc>Image generated by Eeschema-SVG </desc>
<g style="fill:#000000; fill-opacity:1.0000;stroke:#000000; stroke-opacity:1.0000;
stroke-linecap:round; stroke-linejoin:round;"
 transform="translate(0 0) scale(1 1)">
</g>
<g style="fill:#000000; fill-opacity:0.0; 
stroke:#000000; stroke-width:0.0000; stroke-opacity:1; 
stroke-linecap:round; stroke-linejoin:round;">
</g>
<g style="fill:#000000; fill-opacity:0.0; 
stroke:#000000; stroke-width:0.1524; stroke-opacity:1; 
stroke-linecap:round; stroke-linejoin:round;">
<rect x="23.825200" y="37.058600" width="1.270000" height="0.254000" rx="0.000000" />
<rect x="23.825200" y="34.518600" width="1.270000" height="0.254000" rx="0.000000" />
<rect x="23.825200" y="31.978600" width="1.270000" height="0.254000" rx="0.000000" />
<rect x="23.825200" y="29.438600" width="1.270000" height="0.254000" rx="0.000000" />
<rect x="23.825200" y="26.898600" width="1.270000" height="0.254000" rx="0.000000" />
<rect x="23.825200" y="24.358600" width="1.270000" height="0.254000" rx="0.000000" />
<rect x="23.825200" y="21.818600" width="1.270000" height="0.254000" rx="0.000000" />
<rect x="23.825200" y="19.278600" width="1.270000" height="0.254000" rx="0.000000" />
<rect x="23.825200" y="16.738600" width="1.270000" height="0.254000" rx="0.000000" />
<rect x="23.825200" y="14.198600" width="1.270000" height="0.254000" rx="0.000000" />
<rect x="23.825200" y="11.658600" width="1.270000" height="0.254000" rx="0.000000" />
<rect x="23.825200" y="9.118600" width="1.270000" height="0.254000" rx="0.000000" />
</g>
<g style="fill:#000000; fill-opacity:0.0; 
stroke:#000000; stroke-width:0.2540; stroke-opacity:1; 
stroke-linecap:round; stroke-linejoin:round;">
<rect x="23.825200" y="7.975600" width="5.080000" height="30.480000" rx="0.000000" />
</g>
<g style="fill:#000000; fill-opacity:0.0; 
stroke:#000000; stroke-width:0.1524; stroke-opacity:1; 
stroke-linecap:round; stroke-linejoin:round;">
<path style="fill:#000000; fill-opacity:0.0; 
stroke:#000000; stroke-width:0.1524; stroke-opacity:1; 
stroke-linecap:round; stroke-linejoin:round;fill:none"
d="M 25.3492,39.2176
27.3812,39.2176
" /> 
<rect x="27.635200" y="37.058600" width="1.270000" height="0.254000" rx="0.000000" />
<rect x="27.635200" y="34.518600" width="1.270000" height="0.254000" rx="0.000000" />
<rect x="27.635200" y="31.978600" width="1.270000" height="0.254000" rx="0.000000" />
<rect x="27.635200" y="29.438600" width="1.270000" height="0.254000" rx="0.000000" />
<rect x="27.635200" y="26.898600" width="1.270000" height="0.254000" rx="0.000000" />
<rect x="27.635200" y="24.358600" width="1.270000" height="0.254000" rx="0.000000" />
<rect x="27.635200" y="21.818600" width="1.270000" height="0.254000" rx="0.000000" />
<rect x="27.635200" y="19.278600" width="1.270000" height="0.254000" rx="0.000000" />
<rect x="27.635200" y="16.738600" width="1.270000" height="0.254000" rx="0.000000" />
<rect x="27.635200" y="14.198600" width="1.270000" height="0.254000" rx="0.000000" />
<rect x="27.635200" y="11.658600" width="1.270000" height="0.254000" rx="0.000000" />
<rect x="27.635200" y="9.118600" width="1.270000" height="0.254000" rx="0.000000" />
</g>
<g style="fill:#000000; fill-opacity:0.0; 
stroke:#000000; stroke-width:0.0476; stroke-opacity:1; 
stroke-linecap:round; stroke-linejoin:round;">
<text x="26.3652" y="39.0271"
textLength="2.6246" font-size="0.5080" lengthAdjust="spacingAndGlyphs"
text-anchor="middle" opacity="0">Mounting</text>
<g class="stroked-text"><desc>Mounting</desc>
<path d="M25.1769 39.0104
L25.1769 38.6294
" />
<path d="M25.1769 38.6294
L25.3039 38.9015
" />
<path d="M25.3039 38.9015
L25.4309 38.6294
" />
<path d="M25.4309 38.6294
L25.4309 39.0104
" />
<path d="M25.6667 39.0104
L25.6304 38.9923
" />
<path d="M25.6304 38.9923
L25.6123 38.9741
" />
<path d="M25.6123 38.9741
L25.5941 38.9378
" />
<path d="M25.5941 38.9378
L25.5941 38.8290
" />
<path d="M25.5941 38.8290
L25.6123 38.7927
" />
<path d="M25.6123 38.7927
L25.6304 38.7745
" />
<path d="M25.6304 38.7745
L25.6667 38.7564
" />
<path d="M25.6667 38.7564
L25.7211 38.7564
" />
<path d="M25.7211 38.7564
L25.7574 38.7745
" />
<path d="M25.7574 38.7745
L25.7756 38.7927
" />
<path d="M25.7756 38.7927
L25.7937 38.8290
" />
<path d="M25.7937 38.8290
L25.7937 38.9378
" />
<path d="M25.7937 38.9378
L25.7756 38.9741
" />
<path d="M25.7756 38.9741
L25.7574 38.9923
" />
<path d="M25.7574 38.9923
L25.7211 39.0104
" />
<path d="M25.7211 39.0104
L25.6667 39.0104
" />
<path d="M26.1203 38.7564
L26.1203 39.0104
" />
<path d="M25.9570 38.7564
L25.9570 38.9560
" />
<path d="M25.9570 38.9560
L25.9751 38.9923
" />
<path d="M25.9751 38.9923
L26.0114 39.0104
" />
<path d="M26.0114 39.0104
L26.0658 39.0104
" />
<path d="M26.0658 39.0104
L26.1021 38.9923
" />
<path d="M26.1021 38.9923
L26.1203 38.9741
" />
<path d="M26.3017 38.7564
L26.3017 39.0104
" />
<path d="M26.3017 38.7927
L26.3198 38.7745
" />
<path d="M26.3198 38.7745
L26.3561 38.7564
" />
<path d="M26.3561 38.7564
L26.4105 38.7564
" />
<path d="M26.4105 38.7564
L26.4468 38.7745
" />
<path d="M26.4468 38.7745
L26.4650 38.8108
" />
<path d="M26.4650 38.8108
L26.4650 39.0104
" />
<path d="M26.5919 38.7564
L26.7371 38.7564
" />
<path d="M26.6464 38.6294
L26.6464 38.9560
" />
<path d="M26.6464 38.9560
L26.6645 38.9923
" />
<path d="M26.6645 38.9923
L26.7008 39.0104
" />
<path d="M26.7008 39.0104
L26.7371 39.0104
" />
<path d="M26.8641 39.0104
L26.8641 38.7564
" />
<path d="M26.8641 38.6294
L26.8459 38.6475
" />
<path d="M26.8459 38.6475
L26.8641 38.6657
" />
<path d="M26.8641 38.6657
L26.8822 38.6475
" />
<path d="M26.8822 38.6475
L26.8641 38.6294
" />
<path d="M26.8641 38.6294
L26.8641 38.6657
" />
<path d="M27.0455 38.7564
L27.0455 39.0104
" />
<path d="M27.0455 38.7927
L27.0636 38.7745
" />
<path d="M27.0636 38.7745
L27.0999 38.7564
" />
<path d="M27.0999 38.7564
L27.1543 38.7564
" />
<path d="M27.1543 38.7564
L27.1906 38.7745
" />
<path d="M27.1906 38.7745
L27.2088 38.8108
" />
<path d="M27.2088 38.8108
L27.2088 39.0104
" />
<path d="M27.5535 38.7564
L27.5535 39.0648
" />
<path d="M27.5535 39.0648
L27.5353 39.1011
" />
<path d="M27.5353 39.1011
L27.5172 39.1193
" />
<path d="M27.5172 39.1193
L27.4809 39.1374
" />
<path d="M27.4809 39.1374
L27.4265 39.1374
" />
<path d="M27.4265 39.1374
L27.3902 39.1193
" />
<path d="M27.5535 38.9923
L27.5172 39.0104
" />
<path d="M27.5172 39.0104
L27.4446 39.0104
" />
<path d="M27.4446 39.0104
L27.4083 38.9923
" />
<path d="M27.4083 38.9923
L27.3902 38.9741
" />
<path d="M27.3902 38.9741
L27.3720 38.9378
" />
<path d="M27.3720 38.9378
L27.3720 38.8290
" />
<path d="M27.3720 38.8290
L27.3902 38.7927
" />
<path d="M27.3902 38.7927
L27.4083 38.7745
" />
<path d="M27.4083 38.7745
L27.4446 38.7564
" />
<path d="M27.4446 38.7564
L27.5172 38.7564
" />
<path d="M27.5172 38.7564
L27.5535 38.7745
" />
</g></g>
<g style="fill:#000000; fill-opacity:0.0; 
stroke:#000000; stroke-width:0.1524; stroke-opacity:1; 
stroke-linecap:round; stroke-linejoin:round;">
<path d="M23.8252 9.2456
L20.0152 9.2456
" />
<text x="21.9202" y="8.9916"
textLength="1.4127" font-size="1.6933" lengthAdjust="spacingAndGlyphs"
text-anchor="middle" opacity="0">1</text>
<g class="stroked-text"><desc>1</desc>
<path d="M22.2831 8.8281
L21.5574 8.8281
" />
<path d="M21.9202 8.8281
L21.9202 7.5581
" />
<path d="M21.9202 7.5581
L21.7993 7.7396
" />
<path d="M21.7993 7.7396
L21.6783 7.8605
" />
<path d="M21.6783 7.8605
L21.5574 7.9210
" />
</g><path d="M28.9052 19.4056
L32.7152 19.4056
" />
<text x="30.8102" y="19.1516"
textLength="2.6222" font-size="1.6933" lengthAdjust="spacingAndGlyphs"
text-anchor="middle" opacity="0">10</text>
<g class="stroked-text"><desc>10</desc>
<path d="M30.5683 18.9881
L29.8426 18.9881
" />
<path d="M30.2054 18.9881
L30.2054 17.7181
" />
<path d="M30.2054 17.7181
L30.0845 17.8996
" />
<path d="M30.0845 17.8996
L29.9635 18.0205
" />
<path d="M29.9635 18.0205
L29.8426 18.0810
" />
<path d="M31.3544 17.7181
L31.4754 17.7181
" />
<path d="M31.4754 17.7181
L31.5963 17.7786
" />
<path d="M31.5963 17.7786
L31.6568 17.8391
" />
<path d="M31.6568 17.8391
L31.7173 17.9600
" />
<path d="M31.7173 17.9600
L31.7778 18.2019
" />
<path d="M31.7778 18.2019
L31.7778 18.5043
" />
<path d="M31.7778 18.5043
L31.7173 18.7462
" />
<path d="M31.7173 18.7462
L31.6568 18.8672
" />
<path d="M31.6568 18.8672
L31.5963 18.9277
" />
<path d="M31.5963 18.9277
L31.4754 18.9881
" />
<path d="M31.4754 18.9881
L31.3544 18.9881
" />
<path d="M31.3544 18.9881
L31.2335 18.9277
" />
<path d="M31.2335 18.9277
L31.1730 18.8672
" />
<path d="M31.1730 18.8672
L31.1125 18.7462
" />
<path d="M31.1125 18.7462
L31.0521 18.5043
" />
<path d="M31.0521 18.5043
L31.0521 18.2019
" />
<path d="M31.0521 18.2019
L31.1125 17.9600
" />
<path d="M31.1125 17.9600
L31.1730 17.8391
" />
<path d="M31.1730 17.8391
L31.2335 17.7786
" />
<path d="M31.2335 17.7786
L31.3544 17.7181
" />
</g><path d="M23.8252 21.9456
L20.0152 21.9456
" />
<text x="21.9202" y="21.6916"
textLength="2.6222" font-size="1.6933" lengthAdjust="spacingAndGlyphs"
text-anchor="middle" opacity="0">11</text>
<g class="stroked-text"><desc>11</desc>
<path d="M21.6783 21.5281
L20.9526 21.5281
" />
<path d="M21.3154 21.5281
L21.3154 20.2581
" />
<path d="M21.3154 20.2581
L21.1945 20.4396
" />
<path d="M21.1945 20.4396
L21.0735 20.5605
" />
<path d="M21.0735 20.5605
L20.9526 20.6210
" />
<path d="M22.8878 21.5281
L22.1621 21.5281
" />
<path d="M22.5249 21.5281
L22.5249 20.2581
" />
<path d="M22.5249 20.2581
L22.4040 20.4396
" />
<path d="M22.4040 20.4396
L22.2830 20.5605
" />
<path d="M22.2830 20.5605
L22.1621 20.6210
" />
</g><path d="M28.9052 21.9456
L32.7152 21.9456
" />
<text x="30.8102" y="21.6916"
textLength="2.6222" font-size="1.6933" lengthAdjust="spacingAndGlyphs"
text-anchor="middle" opacity="0">12</text>
<g class="stroked-text"><desc>12</desc>
<path d="M30.5683 21.5281
L29.8426 21.5281
" />
<path d="M30.2054 21.5281
L30.2054 20.2581
" />
<path d="M30.2054 20.2581
L30.0845 20.4396
" />
<path d="M30.0845 20.4396
L29.9635 20.5605
" />
<path d="M29.9635 20.5605
L29.8426 20.6210
" />
<path d="M31.0521 20.3791
L31.1125 20.3186
" />
<path d="M31.1125 20.3186
L31.2335 20.2581
" />
<path d="M31.2335 20.2581
L31.5359 20.2581
" />
<path d="M31.5359 20.2581
L31.6568 20.3186
" />
<path d="M31.6568 20.3186
L31.7173 20.3791
" />
<path d="M31.7173 20.3791
L31.7778 20.5000
" />
<path d="M31.7778 20.5000
L31.7778 20.6210
" />
<path d="M31.7778 20.6210
L31.7173 20.8024
" />
<path d="M31.7173 20.8024
L30.9916 21.5281
" />
<path d="M30.9916 21.5281
L31.7778 21.5281
" />
</g><path d="M23.8252 24.4856
L20.0152 24.4856
" />
<text x="21.9202" y="24.2316"
textLength="2.6222" font-size="1.6933" lengthAdjust="spacingAndGlyphs"
text-anchor="middle" opacity="0">13</text>
<g class="stroked-text"><desc>13</desc>
<path d="M21.6783 24.0681
L20.9526 24.0681
" />
<path d="M21.3154 24.0681
L21.3154 22.7981
" />
<path d="M21.3154 22.7981
L21.1945 22.9796
" />
<path d="M21.1945 22.9796
L21.0735 23.1005
" />
<path d="M21.0735 23.1005
L20.9526 23.1610
" />
<path d="M22.1016 22.7981
L22.8878 22.7981
" />
<path d="M22.8878 22.7981
L22.4644 23.2819
" />
<path d="M22.4644 23.2819
L22.6459 23.2819
" />
<path d="M22.6459 23.2819
L22.7668 23.3424
" />
<path d="M22.7668 23.3424
L22.8273 23.4029
" />
<path d="M22.8273 23.4029
L22.8878 23.5238
" />
<path d="M22.8878 23.5238
L22.8878 23.8262
" />
<path d="M22.8878 23.8262
L22.8273 23.9472
" />
<path d="M22.8273 23.9472
L22.7668 24.0077
" />
<path d="M22.7668 24.0077
L22.6459 24.0681
" />
<path d="M22.6459 24.0681
L22.2830 24.0681
" />
<path d="M22.2830 24.0681
L22.1621 24.0077
" />
<path d="M22.1621 24.0077
L22.1016 23.9472
" />
</g><path d="M28.9052 24.4856
L32.7152 24.4856
" />
<text x="30.8102" y="24.2316"
textLength="2.6222" font-size="1.6933" lengthAdjust="spacingAndGlyphs"
text-anchor="middle" opacity="0">14</text>
<g class="stroked-text"><desc>14</desc>
<path d="M30.5683 24.0681
L29.8426 24.0681
" />
<path d="M30.2054 24.0681
L30.2054 22.7981
" />
<path d="M30.2054 22.7981
L30.0845 22.9796
" />
<path d="M30.0845 22.9796
L29.9635 23.1005
" />
<path d="M29.9635 23.1005
L29.8426 23.1610
" />
<path d="M31.6568 23.2215
L31.6568 24.0681
" />
<path d="M31.3544 22.7377
L31.0521 23.6448
" />
<path d="M31.0521 23.6448
L31.8382 23.6448
" />
</g><path d="M23.8252 27.0256
L20.0152 27.0256
" />
<text x="21.9202" y="26.7716"
textLength="2.6222" font-size="1.6933" lengthAdjust="spacingAndGlyphs"
text-anchor="middle" opacity="0">15</text>
<g class="stroked-text"><desc>15</desc>
<path d="M21.6783 26.6081
L20.9526 26.6081
" />
<path d="M21.3154 26.6081
L21.3154 25.3381
" />
<path d="M21.3154 25.3381
L21.1945 25.5196
" />
<path d="M21.1945 25.5196
L21.0735 25.6405
" />
<path d="M21.0735 25.6405
L20.9526 25.7010
" />
<path d="M22.8273 25.3381
L22.2225 25.3381
" />
<path d="M22.2225 25.3381
L22.1621 25.9429
" />
<path d="M22.1621 25.9429
L22.2225 25.8824
" />
<path d="M22.2225 25.8824
L22.3435 25.8219
" />
<path d="M22.3435 25.8219
L22.6459 25.8219
" />
<path d="M22.6459 25.8219
L22.7668 25.8824
" />
<path d="M22.7668 25.8824
L22.8273 25.9429
" />
<path d="M22.8273 25.9429
L22.8878 26.0638
" />
<path d="M22.8878 26.0638
L22.8878 26.3662
" />
<path d="M22.8878 26.3662
L22.8273 26.4872
" />
<path d="M22.8273 26.4872
L22.7668 26.5477
" />
<path d="M22.7668 26.5477
L22.6459 26.6081
" />
<path d="M22.6459 26.6081
L22.3435 26.6081
" />
<path d="M22.3435 26.6081
L22.2225 26.5477
" />
<path d="M22.2225 26.5477
L22.1621 26.4872
" />
</g><path d="M28.9052 27.0256
L32.7152 27.0256
" />
<text x="30.8102" y="26.7716"
textLength="2.6222" font-size="1.6933" lengthAdjust="spacingAndGlyphs"
text-anchor="middle" opacity="0">16</text>
<g class="stroked-text"><desc>16</desc>
<path d="M30.5683 26.6081
L29.8426 26.6081
" />
<path d="M30.2054 26.6081
L30.2054 25.3381
" />
<path d="M30.2054 25.3381
L30.0845 25.5196
" />
<path d="M30.0845 25.5196
L29.9635 25.6405
" />
<path d="M29.9635 25.6405
L29.8426 25.7010
" />
<path d="M31.6568 25.3381
L31.4149 25.3381
" />
<path d="M31.4149 25.3381
L31.2940 25.3986
" />
<path d="M31.2940 25.3986
L31.2335 25.4591
" />
<path d="M31.2335 25.4591
L31.1125 25.6405
" />
<path d="M31.1125 25.6405
L31.0521 25.8824
" />
<path d="M31.0521 25.8824
L31.0521 26.3662
" />
<path d="M31.0521 26.3662
L31.1125 26.4872
" />
<path d="M31.1125 26.4872
L31.1730 26.5477
" />
<path d="M31.1730 26.5477
L31.2940 26.6081
" />
<path d="M31.2940 26.6081
L31.5359 26.6081
" />
<path d="M31.5359 26.6081
L31.6568 26.5477
" />
<path d="M31.6568 26.5477
L31.7173 26.4872
" />
<path d="M31.7173 26.4872
L31.7778 26.3662
" />
<path d="M31.7778 26.3662
L31.7778 26.0638
" />
<path d="M31.7778 26.0638
L31.7173 25.9429
" />
<path d="M31.7173 25.9429
L31.6568 25.8824
" />
<path d="M31.6568 25.8824
L31.5359 25.8219
" />
<path d="M31.5359 25.8219
L31.2940 25.8219
" />
<path d="M31.2940 25.8219
L31.1730 25.8824
" />
<path d="M31.1730 25.8824
L31.1125 25.9429
" />
<path d="M31.1125 25.9429
L31.0521 26.0638
" />
</g><path d="M23.8252 29.5656
L20.0152 29.5656
" />
<text x="21.9202" y="29.3116"
textLength="2.6222" font-size="1.6933" lengthAdjust="spacingAndGlyphs"
text-anchor="middle" opacity="0">17</text>
<g class="stroked-text"><desc>17</desc>
<path d="M21.6783 29.1481
L20.9526 29.1481
" />
<path d="M21.3154 29.1481
L21.3154 27.8781
" />
<path d="M21.3154 27.8781
L21.1945 28.0596
" />
<path d="M21.1945 28.0596
L21.0735 28.1805
" />
<path d="M21.0735 28.1805
L20.9526 28.2410
" />
<path d="M22.1016 27.8781
L22.9482 27.8781
" />
<path d="M22.9482 27.8781
L22.4040 29.1481
" />
</g><path d="M28.9052 29.5656
L32.7152 29.5656
" />
<text x="30.8102" y="29.3116"
textLength="2.6222" font-size="1.6933" lengthAdjust="spacingAndGlyphs"
text-anchor="middle" opacity="0">18</text>
<g class="stroked-text"><desc>18</desc>
<path d="M30.5683 29.1481
L29.8426 29.1481
" />
<path d="M30.2054 29.1481
L30.2054 27.8781
" />
<path d="M30.2054 27.8781
L30.0845 28.0596
" />
<path d="M30.0845 28.0596
L29.9635 28.1805
" />
<path d="M29.9635 28.1805
L29.8426 28.2410
" />
<path d="M31.2940 28.4224
L31.1730 28.3619
" />
<path d="M31.1730 28.3619
L31.1125 28.3015
" />
<path d="M31.1125 28.3015
L31.0521 28.1805
" />
<path d="M31.0521 28.1805
L31.0521 28.1200
" />
<path d="M31.0521 28.1200
L31.1125 27.9991
" />
<path d="M31.1125 27.9991
L31.1730 27.9386
" />
<path d="M31.1730 27.9386
L31.2940 27.8781
" />
<path d="M31.2940 27.8781
L31.5359 27.8781
" />
<path d="M31.5359 27.8781
L31.6568 27.9386
" />
<path d="M31.6568 27.9386
L31.7173 27.9991
" />
<path d="M31.7173 27.9991
L31.7778 28.1200
" />
<path d="M31.7778 28.1200
L31.7778 28.1805
" />
<path d="M31.7778 28.1805
L31.7173 28.3015
" />
<path d="M31.7173 28.3015
L31.6568 28.3619
" />
<path d="M31.6568 28.3619
L31.5359 28.4224
" />
<path d="M31.5359 28.4224
L31.2940 28.4224
" />
<path d="M31.2940 28.4224
L31.1730 28.4829
" />
<path d="M31.1730 28.4829
L31.1125 28.5434
" />
<path d="M31.1125 28.5434
L31.0521 28.6643
" />
<path d="M31.0521 28.6643
L31.0521 28.9062
" />
<path d="M31.0521 28.9062
L31.1125 29.0272
" />
<path d="M31.1125 29.0272
L31.1730 29.0877
" />
<path d="M31.1730 29.0877
L31.2940 29.1481
" />
<path d="M31.2940 29.1481
L31.5359 29.1481
" />
<path d="M31.5359 29.1481
L31.6568 29.0877
" />
<path d="M31.6568 29.0877
L31.7173 29.0272
" />
<path d="M31.7173 29.0272
L31.7778 28.9062
" />
<path d="M31.7778 28.9062
L31.7778 28.6643
" />
<path d="M31.7778 28.6643
L31.7173 28.5434
" />
<path d="M31.7173 28.5434
L31.6568 28.4829
" />
<path d="M31.6568 28.4829
L31.5359 28.4224
" />
</g><path d="M23.8252 32.1056
L20.0152 32.1056
" />
<text x="21.9202" y="31.8516"
textLength="2.6222" font-size="1.6933" lengthAdjust="spacingAndGlyphs"
text-anchor="middle" opacity="0">19</text>
<g class="stroked-text"><desc>19</desc>
<path d="M21.6783 31.6881
L20.9526 31.6881
" />
<path d="M21.3154 31.6881
L21.3154 30.4181
" />
<path d="M21.3154 30.4181
L21.1945 30.5996
" />
<path d="M21.1945 30.5996
L21.0735 30.7205
" />
<path d="M21.0735 30.7205
L20.9526 30.7810
" />
<path d="M22.2830 31.6881
L22.5249 31.6881
" />
<path d="M22.5249 31.6881
L22.6459 31.6277
" />
<path d="M22.6459 31.6277
L22.7063 31.5672
" />
<path d="M22.7063 31.5672
L22.8273 31.3857
" />
<path d="M22.8273 31.3857
L22.8878 31.1438
" />
<path d="M22.8878 31.1438
L22.8878 30.6600
" />
<path d="M22.8878 30.6600
L22.8273 30.5391
" />
<path d="M22.8273 30.5391
L22.7668 30.4786
" />
<path d="M22.7668 30.4786
L22.6459 30.4181
" />
<path d="M22.6459 30.4181
L22.4040 30.4181
" />
<path d="M22.4040 30.4181
L22.2830 30.4786
" />
<path d="M22.2830 30.4786
L22.2225 30.5391
" />
<path d="M22.2225 30.5391
L22.1621 30.6600
" />
<path d="M22.1621 30.6600
L22.1621 30.9624
" />
<path d="M22.1621 30.9624
L22.2225 31.0834
" />
<path d="M22.2225 31.0834
L22.2830 31.1438
" />
<path d="M22.2830 31.1438
L22.4040 31.2043
" />
<path d="M22.4040 31.2043
L22.6459 31.2043
" />
<path d="M22.6459 31.2043
L22.7668 31.1438
" />
<path d="M22.7668 31.1438
L22.8273 31.0834
" />
<path d="M22.8273 31.0834
L22.8878 30.9624
" />
</g><path d="M28.9052 9.2456
L32.7152 9.2456
" />
<text x="30.8102" y="8.9916"
textLength="1.4127" font-size="1.6933" lengthAdjust="spacingAndGlyphs"
text-anchor="middle" opacity="0">2</text>
<g class="stroked-text"><desc>2</desc>
<path d="M30.4474 7.6791
L30.5078 7.6186
" />
<path d="M30.5078 7.6186
L30.6288 7.5581
" />
<path d="M30.6288 7.5581
L30.9312 7.5581
" />
<path d="M30.9312 7.5581
L31.0521 7.6186
" />
<path d="M31.0521 7.6186
L31.1126 7.6791
" />
<path d="M31.1126 7.6791
L31.1731 7.8000
" />
<path d="M31.1731 7.8000
L31.1731 7.9210
" />
<path d="M31.1731 7.9210
L31.1126 8.1024
" />
<path d="M31.1126 8.1024
L30.3869 8.8281
" />
<path d="M30.3869 8.8281
L31.1731 8.8281
" />
</g><path d="M28.9052 32.1056
L32.7152 32.1056
" />
<text x="30.8102" y="31.8516"
textLength="2.6222" font-size="1.6933" lengthAdjust="spacingAndGlyphs"
text-anchor="middle" opacity="0">20</text>
<g class="stroked-text"><desc>20</desc>
<path d="M29.8426 30.5391
L29.9030 30.4786
" />
<path d="M29.9030 30.4786
L30.0240 30.4181
" />
<path d="M30.0240 30.4181
L30.3264 30.4181
" />
<path d="M30.3264 30.4181
L30.4473 30.4786
" />
<path d="M30.4473 30.4786
L30.5078 30.5391
" />
<path d="M30.5078 30.5391
L30.5683 30.6600
" />
<path d="M30.5683 30.6600
L30.5683 30.7810
" />
<path d="M30.5683 30.7810
L30.5078 30.9624
" />
<path d="M30.5078 30.9624
L29.7821 31.6881
" />
<path d="M29.7821 31.6881
L30.5683 31.6881
" />
<path d="M31.3544 30.4181
L31.4754 30.4181
" />
<path d="M31.4754 30.4181
L31.5963 30.4786
" />
<path d="M31.5963 30.4786
L31.6568 30.5391
" />
<path d="M31.6568 30.5391
L31.7173 30.6600
" />
<path d="M31.7173 30.6600
L31.7778 30.9019
" />
<path d="M31.7778 30.9019
L31.7778 31.2043
" />
<path d="M31.7778 31.2043
L31.7173 31.4462
" />
<path d="M31.7173 31.4462
L31.6568 31.5672
" />
<path d="M31.6568 31.5672
L31.5963 31.6277
" />
<path d="M31.5963 31.6277
L31.4754 31.6881
" />
<path d="M31.4754 31.6881
L31.3544 31.6881
" />
<path d="M31.3544 31.6881
L31.2335 31.6277
" />
<path d="M31.2335 31.6277
L31.1730 31.5672
" />
<path d="M31.1730 31.5672
L31.1125 31.4462
" />
<path d="M31.1125 31.4462
L31.0521 31.2043
" />
<path d="M31.0521 31.2043
L31.0521 30.9019
" />
<path d="M31.0521 30.9019
L31.1125 30.6600
" />
<path d="M31.1125 30.6600
L31.1730 30.5391
" />
<path d="M31.1730 30.5391
L31.2335 30.4786
" />
<path d="M31.2335 30.4786
L31.3544 30.4181
" />
</g><path d="M23.8252 34.6456
L20.0152 34.6456
" />
<text x="21.9202" y="34.3916"
textLength="2.6222" font-size="1.6933" lengthAdjust="spacingAndGlyphs"
text-anchor="middle" opacity="0">21</text>
<g class="stroked-text"><desc>21</desc>
<path d="M20.9526 33.0791
L21.0130 33.0186
" />
<path d="M21.0130 33.0186
L21.1340 32.9581
" />
<path d="M21.1340 32.9581
L21.4364 32.9581
" />
<path d="M21.4364 32.9581
L21.5573 33.0186
" />
<path d="M21.5573 33.0186
L21.6178 33.0791
" />
<path d="M21.6178 33.0791
L21.6783 33.2000
" />
<path d="M21.6783 33.2000
L21.6783 33.3210
" />
<path d="M21.6783 33.3210
L21.6178 33.5024
" />
<path d="M21.6178 33.5024
L20.8921 34.2281
" />
<path d="M20.8921 34.2281
L21.6783 34.2281
" />
<path d="M22.8878 34.2281
L22.1621 34.2281
" />
<path d="M22.5249 34.2281
L22.5249 32.9581
" />
<path d="M22.5249 32.9581
L22.4040 33.1396
" />
<path d="M22.4040 33.1396
L22.2830 33.2605
" />
<path d="M22.2830 33.2605
L22.1621 33.3210
" />
</g><path d="M28.9052 34.6456
L32.7152 34.6456
" />
<text x="30.8102" y="34.3916"
textLength="2.6222" font-size="1.6933" lengthAdjust="spacingAndGlyphs"
text-anchor="middle" opacity="0">22</text>
<g class="stroked-text"><desc>22</desc>
<path d="M29.8426 33.0791
L29.9030 33.0186
" />
<path d="M29.9030 33.0186
L30.0240 32.9581
" />
<path d="M30.0240 32.9581
L30.3264 32.9581
" />
<path d="M30.3264 32.9581
L30.4473 33.0186
" />
<path d="M30.4473 33.0186
L30.5078 33.0791
" />
<path d="M30.5078 33.0791
L30.5683 33.2000
" />
<path d="M30.5683 33.2000
L30.5683 33.3210
" />
<path d="M30.5683 33.3210
L30.5078 33.5024
" />
<path d="M30.5078 33.5024
L29.7821 34.2281
" />
<path d="M29.7821 34.2281
L30.5683 34.2281
" />
<path d="M31.0521 33.0791
L31.1125 33.0186
" />
<path d="M31.1125 33.0186
L31.2335 32.9581
" />
<path d="M31.2335 32.9581
L31.5359 32.9581
" />
<path d="M31.5359 32.9581
L31.6568 33.0186
" />
<path d="M31.6568 33.0186
L31.7173 33.0791
" />
<path d="M31.7173 33.0791
L31.7778 33.2000
" />
<path d="M31.7778 33.2000
L31.7778 33.3210
" />
<path d="M31.7778 33.3210
L31.7173 33.5024
" />
<path d="M31.7173 33.5024
L30.9916 34.2281
" />
<path d="M30.9916 34.2281
L31.7778 34.2281
" />
</g><path d="M23.8252 37.1856
L20.0152 37.1856
" />
<text x="21.9202" y="36.9316"
textLength="2.6222" font-size="1.6933" lengthAdjust="spacingAndGlyphs"
text-anchor="middle" opacity="0">23</text>
<g class="stroked-text"><desc>23</desc>
<path d="M20.9526 35.6191
L21.0130 35.5586
" />
<path d="M21.0130 35.5586
L21.1340 35.4981
" />
<path d="M21.1340 35.4981
L21.4364 35.4981
" />
<path d="M21.4364 35.4981
L21.5573 35.5586
" />
<path d="M21.5573 35.5586
L21.6178 35.6191
" />
<path d="M21.6178 35.6191
L21.6783 35.7400
" />
<path d="M21.6783 35.7400
L21.6783 35.8610
" />
<path d="M21.6783 35.8610
L21.6178 36.0424
" />
<path d="M21.6178 36.0424
L20.8921 36.7681
" />
<path d="M20.8921 36.7681
L21.6783 36.7681
" />
<path d="M22.1016 35.4981
L22.8878 35.4981
" />
<path d="M22.8878 35.4981
L22.4644 35.9819
" />
<path d="M22.4644 35.9819
L22.6459 35.9819
" />
<path d="M22.6459 35.9819
L22.7668 36.0424
" />
<path d="M22.7668 36.0424
L22.8273 36.1029
" />
<path d="M22.8273 36.1029
L22.8878 36.2238
" />
<path d="M22.8878 36.2238
L22.8878 36.5262
" />
<path d="M22.8878 36.5262
L22.8273 36.6472
" />
<path d="M22.8273 36.6472
L22.7668 36.7077
" />
<path d="M22.7668 36.7077
L22.6459 36.7681
" />
<path d="M22.6459 36.7681
L22.2830 36.7681
" />
<path d="M22.2830 36.7681
L22.1621 36.7077
" />
<path d="M22.1621 36.7077
L22.1016 36.6472
" />
</g><path d="M28.9052 37.1856
L32.7152 37.1856
" />
<text x="30.8102" y="36.9316"
textLength="2.6222" font-size="1.6933" lengthAdjust="spacingAndGlyphs"
text-anchor="middle" opacity="0">24</text>
<g class="stroked-text"><desc>24</desc>
<path d="M29.8426 35.6191
L29.9030 35.5586
" />
<path d="M29.9030 35.5586
L30.0240 35.4981
" />
<path d="M30.0240 35.4981
L30.3264 35.4981
" />
<path d="M30.3264 35.4981
L30.4473 35.5586
" />
<path d="M30.4473 35.5586
L30.5078 35.6191
" />
<path d="M30.5078 35.6191
L30.5683 35.7400
" />
<path d="M30.5683 35.7400
L30.5683 35.8610
" />
<path d="M30.5683 35.8610
L30.5078 36.0424
" />
<path d="M30.5078 36.0424
L29.7821 36.7681
" />
<path d="M29.7821 36.7681
L30.5683 36.7681
" />
<path d="M31.6568 35.9215
L31.6568 36.7681
" />
<path d="M31.3544 35.4377
L31.0521 36.3448
" />
<path d="M31.0521 36.3448
L31.8382 36.3448
" />
</g><path d="M23.8252 11.7856
L20.0152 11.7856
" />
<text x="21.9202" y="11.5316"
textLength="1.4127" font-size="1.6933" lengthAdjust="spacingAndGlyphs"
text-anchor="middle" opacity="0">3</text>
<g class="stroked-text"><desc>3</desc>
<path d="M21.4969 10.0981
L22.2831 10.0981
" />
<path d="M22.2831 10.0981
L21.8597 10.5819
" />
<path d="M21.8597 10.5819
L22.0412 10.5819
" />
<path d="M22.0412 10.5819
L22.1621 10.6424
" />
<path d="M22.1621 10.6424
L22.2226 10.7029
" />
<path d="M22.2226 10.7029
L22.2831 10.8238
" />
<path d="M22.2831 10.8238
L22.2831 11.1262
" />
<path d="M22.2831 11.1262
L22.2226 11.2472
" />
<path d="M22.2226 11.2472
L22.1621 11.3077
" />
<path d="M22.1621 11.3077
L22.0412 11.3681
" />
<path d="M22.0412 11.3681
L21.6783 11.3681
" />
<path d="M21.6783 11.3681
L21.5574 11.3077
" />
<path d="M21.5574 11.3077
L21.4969 11.2472
" />
</g><path d="M28.9052 11.7856
L32.7152 11.7856
" />
<text x="30.8102" y="11.5316"
textLength="1.4127" font-size="1.6933" lengthAdjust="spacingAndGlyphs"
text-anchor="middle" opacity="0">4</text>
<g class="stroked-text"><desc>4</desc>
<path d="M31.0521 10.5215
L31.0521 11.3681
" />
<path d="M30.7497 10.0377
L30.4474 10.9448
" />
<path d="M30.4474 10.9448
L31.2335 10.9448
" />
</g><path d="M23.8252 14.3256
L20.0152 14.3256
" />
<text x="21.9202" y="14.0716"
textLength="1.4127" font-size="1.6933" lengthAdjust="spacingAndGlyphs"
text-anchor="middle" opacity="0">5</text>
<g class="stroked-text"><desc>5</desc>
<path d="M22.2226 12.6381
L21.6178 12.6381
" />
<path d="M21.6178 12.6381
L21.5574 13.2429
" />
<path d="M21.5574 13.2429
L21.6178 13.1824
" />
<path d="M21.6178 13.1824
L21.7388 13.1219
" />
<path d="M21.7388 13.1219
L22.0412 13.1219
" />
<path d="M22.0412 13.1219
L22.1621 13.1824
" />
<path d="M22.1621 13.1824
L22.2226 13.2429
" />
<path d="M22.2226 13.2429
L22.2831 13.3638
" />
<path d="M22.2831 13.3638
L22.2831 13.6662
" />
<path d="M22.2831 13.6662
L22.2226 13.7872
" />
<path d="M22.2226 13.7872
L22.1621 13.8477
" />
<path d="M22.1621 13.8477
L22.0412 13.9081
" />
<path d="M22.0412 13.9081
L21.7388 13.9081
" />
<path d="M21.7388 13.9081
L21.6178 13.8477
" />
<path d="M21.6178 13.8477
L21.5574 13.7872
" />
</g><path d="M28.9052 14.3256
L32.7152 14.3256
" />
<text x="30.8102" y="14.0716"
textLength="1.4127" font-size="1.6933" lengthAdjust="spacingAndGlyphs"
text-anchor="middle" opacity="0">6</text>
<g class="stroked-text"><desc>6</desc>
<path d="M31.0521 12.6381
L30.8102 12.6381
" />
<path d="M30.8102 12.6381
L30.6893 12.6986
" />
<path d="M30.6893 12.6986
L30.6288 12.7591
" />
<path d="M30.6288 12.7591
L30.5078 12.9405
" />
<path d="M30.5078 12.9405
L30.4474 13.1824
" />
<path d="M30.4474 13.1824
L30.4474 13.6662
" />
<path d="M30.4474 13.6662
L30.5078 13.7872
" />
<path d="M30.5078 13.7872
L30.5683 13.8477
" />
<path d="M30.5683 13.8477
L30.6893 13.9081
" />
<path d="M30.6893 13.9081
L30.9312 13.9081
" />
<path d="M30.9312 13.9081
L31.0521 13.8477
" />
<path d="M31.0521 13.8477
L31.1126 13.7872
" />
<path d="M31.1126 13.7872
L31.1731 13.6662
" />
<path d="M31.1731 13.6662
L31.1731 13.3638
" />
<path d="M31.1731 13.3638
L31.1126 13.2429
" />
<path d="M31.1126 13.2429
L31.0521 13.1824
" />
<path d="M31.0521 13.1824
L30.9312 13.1219
" />
<path d="M30.9312 13.1219
L30.6893 13.1219
" />
<path d="M30.6893 13.1219
L30.5683 13.1824
" />
<path d="M30.5683 13.1824
L30.5078 13.2429
" />
<path d="M30.5078 13.2429
L30.4474 13.3638
" />
</g><path d="M23.8252 16.8656
L20.0152 16.8656
" />
<text x="21.9202" y="16.6116"
textLength="1.4127" font-size="1.6933" lengthAdjust="spacingAndGlyphs"
text-anchor="middle" opacity="0">7</text>
<g class="stroked-text"><desc>7</desc>
<path d="M21.4969 15.1781
L22.3435 15.1781
" />
<path d="M22.3435 15.1781
L21.7993 16.4481
" />
</g><path d="M28.9052 16.8656
L32.7152 16.8656
" />
<text x="30.8102" y="16.6116"
textLength="1.4127" font-size="1.6933" lengthAdjust="spacingAndGlyphs"
text-anchor="middle" opacity="0">8</text>
<g class="stroked-text"><desc>8</desc>
<path d="M30.6893 15.7224
L30.5683 15.6619
" />
<path d="M30.5683 15.6619
L30.5078 15.6015
" />
<path d="M30.5078 15.6015
L30.4474 15.4805
" />
<path d="M30.4474 15.4805
L30.4474 15.4200
" />
<path d="M30.4474 15.4200
L30.5078 15.2991
" />
<path d="M30.5078 15.2991
L30.5683 15.2386
" />
<path d="M30.5683 15.2386
L30.6893 15.1781
" />
<path d="M30.6893 15.1781
L30.9312 15.1781
" />
<path d="M30.9312 15.1781
L31.0521 15.2386
" />
<path d="M31.0521 15.2386
L31.1126 15.2991
" />
<path d="M31.1126 15.2991
L31.1731 15.4200
" />
<path d="M31.1731 15.4200
L31.1731 15.4805
" />
<path d="M31.1731 15.4805
L31.1126 15.6015
" />
<path d="M31.1126 15.6015
L31.0521 15.6619
" />
<path d="M31.0521 15.6619
L30.9312 15.7224
" />
<path d="M30.9312 15.7224
L30.6893 15.7224
" />
<path d="M30.6893 15.7224
L30.5683 15.7829
" />
<path d="M30.5683 15.7829
L30.5078 15.8434
" />
<path d="M30.5078 15.8434
L30.4474 15.9643
" />
<path d="M30.4474 15.9643
L30.4474 16.2062
" />
<path d="M30.4474 16.2062
L30.5078 16.3272
" />
<path d="M30.5078 16.3272
L30.5683 16.3877
" />
<path d="M30.5683 16.3877
L30.6893 16.4481
" />
<path d="M30.6893 16.4481
L30.9312 16.4481
" />
<path d="M30.9312 16.4481
L31.0521 16.3877
" />
<path d="M31.0521 16.3877
L31.1126 16.3272
" />
<path d="M31.1126 16.3272
L31.1731 16.2062
" />
<path d="M31.1731 16.2062
L31.1731 15.9643
" />
<path d="M31.1731 15.9643
L31.1126 15.8434
" />
<path d="M31.1126 15.8434
L31.0521 15.7829
" />
<path d="M31.0521 15.7829
L30.9312 15.7224
" />
</g><path d="M23.8252 19.4056
L20.0152 19.4056
" />
<text x="21.9202" y="19.1516"
textLength="1.4127" font-size="1.6933" lengthAdjust="spacingAndGlyphs"
text-anchor="middle" opacity="0">9</text>
<g class="stroked-text"><desc>9</desc>
<path d="M21.6783 18.9881
L21.9202 18.9881
" />
<path d="M21.9202 18.9881
L22.0412 18.9277
" />
<path d="M22.0412 18.9277
L22.1016 18.8672
" />
<path d="M22.1016 18.8672
L22.2226 18.6857
" />
<path d="M22.2226 18.6857
L22.2831 18.4438
" />
<path d="M22.2831 18.4438
L22.2831 17.9600
" />
<path d="M22.2831 17.9600
L22.2226 17.8391
" />
<path d="M22.2226 17.8391
L22.1621 17.7786
" />
<path d="M22.1621 17.7786
L22.0412 17.7181
" />
<path d="M22.0412 17.7181
L21.7993 17.7181
" />
<path d="M21.7993 17.7181
L21.6783 17.7786
" />
<path d="M21.6783 17.7786
L21.6178 17.8391
" />
<path d="M21.6178 17.8391
L21.5574 17.9600
" />
<path d="M21.5574 17.9600
L21.5574 18.2624
" />
<path d="M21.5574 18.2624
L21.6178 18.3834
" />
<path d="M21.6178 18.3834
L21.6783 18.4438
" />
<path d="M21.6783 18.4438
L21.7993 18.5043
" />
<path d="M21.7993 18.5043
L22.0412 18.5043
" />
<path d="M22.0412 18.5043
L22.1621 18.4438
" />
<path d="M22.1621 18.4438
L22.2226 18.3834
" />
<path d="M22.2226 18.3834
L22.2831 18.2624
" />
</g><path d="M26.3652 39.2176
L26.3652 42.2656
" />
<g transform="rotate(-90.000000 26.1112 40.7416)">
<text x="26.1112" y="40.7416"
textLength="2.9246" font-size="1.6933" lengthAdjust="spacingAndGlyphs"
text-anchor="middle" opacity="0">MP</text>
</g>
<g class="stroked-text"><desc>MP</desc>
<path d="M25.9477 41.7999
L24.6777 41.7999
" />
<path d="M24.6777 41.7999
L25.5849 41.3765
" />
<path d="M25.5849 41.3765
L24.6777 40.9532
" />
<path d="M24.6777 40.9532
L25.9477 40.9532
" />
<path d="M25.9477 40.3485
L24.6777 40.3485
" />
<path d="M24.6777 40.3485
L24.6777 39.8647
" />
<path d="M24.6777 39.8647
L24.7382 39.7437
" />
<path d="M24.7382 39.7437
L24.7987 39.6832
" />
<path d="M24.7987 39.6832
L24.9196 39.6228
" />
<path d="M24.9196 39.6228
L25.1011 39.6228
" />
<path d="M25.1011 39.6228
L25.2220 39.6832
" />
<path d="M25.2220 39.6832
L25.2825 39.7437
" />
<path d="M25.2825 39.7437
L25.3430 39.8647
" />
<path d="M25.3430 39.8647
L25.3430 40.3485
" />
</g></g>
<g style="fill:#000000; fill-opacity:0.0; 
stroke:#000000; stroke-width:0.1588; stroke-opacity:1; 
stroke-linecap:round; stroke-linejoin:round;">
<text x="26.3652" y="7.3406"
textLength="2.2786" font-size="1.6933" lengthAdjust="spacingAndGlyphs"
text-anchor="middle" opacity="0">J?</text>
<g class="stroked-text"><desc>J?</desc>
<path d="M26.0023 6.0148
L26.0023 6.9220
" />
<path d="M26.0023 6.9220
L25.9418 7.1034
" />
<path d="M25.9418 7.1034
L25.8209 7.2244
" />
<path d="M25.8209 7.2244
L25.6394 7.2848
" />
<path d="M25.6394 7.2848
L25.5185 7.2848
" />
<path d="M26.7885 7.1639
L26.8489 7.2244
" />
<path d="M26.8489 7.2244
L26.7885 7.2848
" />
<path d="M26.7885 7.2848
L26.7280 7.2244
" />
<path d="M26.7280 7.2244
L26.7885 7.1639
" />
<path d="M26.7885 7.1639
L26.7885 7.2848
" />
<path d="M26.5466 6.0753
L26.6675 6.0148
" />
<path d="M26.6675 6.0148
L26.9699 6.0148
" />
<path d="M26.9699 6.0148
L27.0908 6.0753
" />
<path d="M27.0908 6.0753
L27.1513 6.1963
" />
<path d="M27.1513 6.1963
L27.1513 6.3172
" />
<path d="M27.1513 6.3172
L27.0908 6.4382
" />
<path d="M27.0908 6.4382
L27.0304 6.4986
" />
<path d="M27.0304 6.4986
L26.9094 6.5591
" />
<path d="M26.9094 6.5591
L26.8489 6.6196
" />
<path d="M26.8489 6.6196
L26.7885 6.7405
" />
<path d="M26.7885 6.7405
L26.7885 6.8010
" />
</g><text x="44.7398" y="40.3606"
textLength="34.2093" font-size="1.6933" lengthAdjust="spacingAndGlyphs"
text-anchor="middle" opacity="0">Conn_02x12_Odd_Even_MountingPin</text>
<g class="stroked-text"><desc>Conn_02x12_Odd_Even_MountingPin</desc>
<path d="M28.7744 40.1839
L28.7140 40.2444
" />
<path d="M28.7140 40.2444
L28.5325 40.3048
" />
<path d="M28.5325 40.3048
L28.4116 40.3048
" />
<path d="M28.4116 40.3048
L28.2302 40.2444
" />
<path d="M28.2302 40.2444
L28.1092 40.1234
" />
<path d="M28.1092 40.1234
L28.0487 40.0024
" />
<path d="M28.0487 40.0024
L27.9883 39.7605
" />
<path d="M27.9883 39.7605
L27.9883 39.5791
" />
<path d="M27.9883 39.5791
L28.0487 39.3372
" />
<path d="M28.0487 39.3372
L28.1092 39.2163
" />
<path d="M28.1092 39.2163
L28.2302 39.0953
" />
<path d="M28.2302 39.0953
L28.4116 39.0348
" />
<path d="M28.4116 39.0348
L28.5325 39.0348
" />
<path d="M28.5325 39.0348
L28.7140 39.0953
" />
<path d="M28.7140 39.0953
L28.7744 39.1558
" />
<path d="M29.5002 40.3048
L29.3792 40.2444
" />
<path d="M29.3792 40.2444
L29.3187 40.1839
" />
<path d="M29.3187 40.1839
L29.2583 40.0629
" />
<path d="M29.2583 40.0629
L29.2583 39.7001
" />
<path d="M29.2583 39.7001
L29.3187 39.5791
" />
<path d="M29.3187 39.5791
L29.3792 39.5186
" />
<path d="M29.3792 39.5186
L29.5002 39.4582
" />
<path d="M29.5002 39.4582
L29.6816 39.4582
" />
<path d="M29.6816 39.4582
L29.8025 39.5186
" />
<path d="M29.8025 39.5186
L29.8630 39.5791
" />
<path d="M29.8630 39.5791
L29.9235 39.7001
" />
<path d="M29.9235 39.7001
L29.9235 40.0629
" />
<path d="M29.9235 40.0629
L29.8630 40.1839
" />
<path d="M29.8630 40.1839
L29.8025 40.2444
" />
<path d="M29.8025 40.2444
L29.6816 40.3048
" />
<path d="M29.6816 40.3048
L29.5002 40.3048
" />
<path d="M30.4677 39.4582
L30.4677 40.3048
" />
<path d="M30.4677 39.5791
L30.5282 39.5186
" />
<path d="M30.5282 39.5186
L30.6492 39.4582
" />
<path d="M30.6492 39.4582
L30.8306 39.4582
" />
<path d="M30.8306 39.4582
L30.9515 39.5186
" />
<path d="M30.9515 39.5186
L31.0120 39.6396
" />
<path d="M31.0120 39.6396
L31.0120 40.3048
" />
<path d="M31.6167 39.4582
L31.6167 40.3048
" />
<path d="M31.6167 39.5791
L31.6772 39.5186
" />
<path d="M31.6772 39.5186
L31.7982 39.4582
" />
<path d="M31.7982 39.4582
L31.9796 39.4582
" />
<path d="M31.9796 39.4582
L32.1005 39.5186
" />
<path d="M32.1005 39.5186
L32.1610 39.6396
" />
<path d="M32.1610 39.6396
L32.1610 40.3048
" />
<path d="M32.4634 40.4258
L33.4310 40.4258
" />
<path d="M33.9752 39.0348
L34.0962 39.0348
" />
<path d="M34.0962 39.0348
L34.2171 39.0953
" />
<path d="M34.2171 39.0953
L34.2776 39.1558
" />
<path d="M34.2776 39.1558
L34.3381 39.2767
" />
<path d="M34.3381 39.2767
L34.3986 39.5186
" />
<path d="M34.3986 39.5186
L34.3986 39.8210
" />
<path d="M34.3986 39.8210
L34.3381 40.0629
" />
<path d="M34.3381 40.0629
L34.2776 40.1839
" />
<path d="M34.2776 40.1839
L34.2171 40.2444
" />
<path d="M34.2171 40.2444
L34.0962 40.3048
" />
<path d="M34.0962 40.3048
L33.9752 40.3048
" />
<path d="M33.9752 40.3048
L33.8543 40.2444
" />
<path d="M33.8543 40.2444
L33.7938 40.1839
" />
<path d="M33.7938 40.1839
L33.7333 40.0629
" />
<path d="M33.7333 40.0629
L33.6729 39.8210
" />
<path d="M33.6729 39.8210
L33.6729 39.5186
" />
<path d="M33.6729 39.5186
L33.7333 39.2767
" />
<path d="M33.7333 39.2767
L33.7938 39.1558
" />
<path d="M33.7938 39.1558
L33.8543 39.0953
" />
<path d="M33.8543 39.0953
L33.9752 39.0348
" />
<path d="M34.8824 39.1558
L34.9428 39.0953
" />
<path d="M34.9428 39.0953
L35.0638 39.0348
" />
<path d="M35.0638 39.0348
L35.3662 39.0348
" />
<path d="M35.3662 39.0348
L35.4871 39.0953
" />
<path d="M35.4871 39.0953
L35.5476 39.1558
" />
<path d="M35.5476 39.1558
L35.6081 39.2767
" />
<path d="M35.6081 39.2767
L35.6081 39.3977
" />
<path d="M35.6081 39.3977
L35.5476 39.5791
" />
<path d="M35.5476 39.5791
L34.8219 40.3048
" />
<path d="M34.8219 40.3048
L35.6081 40.3048
" />
<path d="M36.0314 40.3048
L36.6966 39.4582
" />
<path d="M36.0314 39.4582
L36.6966 40.3048
" />
<path d="M37.8457 40.3048
L37.1200 40.3048
" />
<path d="M37.4828 40.3048
L37.4828 39.0348
" />
<path d="M37.4828 39.0348
L37.3619 39.2163
" />
<path d="M37.3619 39.2163
L37.2409 39.3372
" />
<path d="M37.2409 39.3372
L37.1200 39.3977
" />
<path d="M38.3295 39.1558
L38.3899 39.0953
" />
<path d="M38.3899 39.0953
L38.5109 39.0348
" />
<path d="M38.5109 39.0348
L38.8133 39.0348
" />
<path d="M38.8133 39.0348
L38.9342 39.0953
" />
<path d="M38.9342 39.0953
L38.9947 39.1558
" />
<path d="M38.9947 39.1558
L39.0552 39.2767
" />
<path d="M39.0552 39.2767
L39.0552 39.3977
" />
<path d="M39.0552 39.3977
L38.9947 39.5791
" />
<path d="M38.9947 39.5791
L38.2690 40.3048
" />
<path d="M38.2690 40.3048
L39.0552 40.3048
" />
<path d="M39.2971 40.4258
L40.2647 40.4258
" />
<path d="M40.8089 39.0348
L41.0508 39.0348
" />
<path d="M41.0508 39.0348
L41.1718 39.0953
" />
<path d="M41.1718 39.0953
L41.2927 39.2163
" />
<path d="M41.2927 39.2163
L41.3532 39.4582
" />
<path d="M41.3532 39.4582
L41.3532 39.8815
" />
<path d="M41.3532 39.8815
L41.2927 40.1234
" />
<path d="M41.2927 40.1234
L41.1718 40.2444
" />
<path d="M41.1718 40.2444
L41.0508 40.3048
" />
<path d="M41.0508 40.3048
L40.8089 40.3048
" />
<path d="M40.8089 40.3048
L40.6880 40.2444
" />
<path d="M40.6880 40.2444
L40.5670 40.1234
" />
<path d="M40.5670 40.1234
L40.5066 39.8815
" />
<path d="M40.5066 39.8815
L40.5066 39.4582
" />
<path d="M40.5066 39.4582
L40.5670 39.2163
" />
<path d="M40.5670 39.2163
L40.6880 39.0953
" />
<path d="M40.6880 39.0953
L40.8089 39.0348
" />
<path d="M42.4418 40.3048
L42.4418 39.0348
" />
<path d="M42.4418 40.2444
L42.3209 40.3048
" />
<path d="M42.3209 40.3048
L42.0790 40.3048
" />
<path d="M42.0790 40.3048
L41.9580 40.2444
" />
<path d="M41.9580 40.2444
L41.8975 40.1839
" />
<path d="M41.8975 40.1839
L41.8371 40.0629
" />
<path d="M41.8371 40.0629
L41.8371 39.7001
" />
<path d="M41.8371 39.7001
L41.8975 39.5791
" />
<path d="M41.8975 39.5791
L41.9580 39.5186
" />
<path d="M41.9580 39.5186
L42.0790 39.4582
" />
<path d="M42.0790 39.4582
L42.3209 39.4582
" />
<path d="M42.3209 39.4582
L42.4418 39.5186
" />
<path d="M43.5908 40.3048
L43.5908 39.0348
" />
<path d="M43.5908 40.2444
L43.4699 40.3048
" />
<path d="M43.4699 40.3048
L43.2280 40.3048
" />
<path d="M43.2280 40.3048
L43.1070 40.2444
" />
<path d="M43.1070 40.2444
L43.0465 40.1839
" />
<path d="M43.0465 40.1839
L42.9861 40.0629
" />
<path d="M42.9861 40.0629
L42.9861 39.7001
" />
<path d="M42.9861 39.7001
L43.0465 39.5791
" />
<path d="M43.0465 39.5791
L43.1070 39.5186
" />
<path d="M43.1070 39.5186
L43.2280 39.4582
" />
<path d="M43.2280 39.4582
L43.4699 39.4582
" />
<path d="M43.4699 39.4582
L43.5908 39.5186
" />
<path d="M43.8932 40.4258
L44.8608 40.4258
" />
<path d="M45.1631 39.6396
L45.5865 39.6396
" />
<path d="M45.7679 40.3048
L45.1631 40.3048
" />
<path d="M45.1631 40.3048
L45.1631 39.0348
" />
<path d="M45.1631 39.0348
L45.7679 39.0348
" />
<path d="M46.1912 39.4582
L46.4936 40.3048
" />
<path d="M46.4936 40.3048
L46.7959 39.4582
" />
<path d="M47.7635 40.2444
L47.6426 40.3048
" />
<path d="M47.6426 40.3048
L47.4007 40.3048
" />
<path d="M47.4007 40.3048
L47.2797 40.2444
" />
<path d="M47.2797 40.2444
L47.2193 40.1234
" />
<path d="M47.2193 40.1234
L47.2193 39.6396
" />
<path d="M47.2193 39.6396
L47.2797 39.5186
" />
<path d="M47.2797 39.5186
L47.4007 39.4582
" />
<path d="M47.4007 39.4582
L47.6426 39.4582
" />
<path d="M47.6426 39.4582
L47.7635 39.5186
" />
<path d="M47.7635 39.5186
L47.8240 39.6396
" />
<path d="M47.8240 39.6396
L47.8240 39.7605
" />
<path d="M47.8240 39.7605
L47.2193 39.8815
" />
<path d="M48.3683 39.4582
L48.3683 40.3048
" />
<path d="M48.3683 39.5791
L48.4288 39.5186
" />
<path d="M48.4288 39.5186
L48.5498 39.4582
" />
<path d="M48.5498 39.4582
L48.7312 39.4582
" />
<path d="M48.7312 39.4582
L48.8521 39.5186
" />
<path d="M48.8521 39.5186
L48.9126 39.6396
" />
<path d="M48.9126 39.6396
L48.9126 40.3048
" />
<path d="M49.2150 40.4258
L50.1826 40.4258
" />
<path d="M50.4849 40.3048
L50.4849 39.0348
" />
<path d="M50.4849 39.0348
L50.9083 39.9420
" />
<path d="M50.9083 39.9420
L51.3316 39.0348
" />
<path d="M51.3316 39.0348
L51.3316 40.3048
" />
<path d="M52.1178 40.3048
L51.9968 40.2444
" />
<path d="M51.9968 40.2444
L51.9363 40.1839
" />
<path d="M51.9363 40.1839
L51.8759 40.0629
" />
<path d="M51.8759 40.0629
L51.8759 39.7001
" />
<path d="M51.8759 39.7001
L51.9363 39.5791
" />
<path d="M51.9363 39.5791
L51.9968 39.5186
" />
<path d="M51.9968 39.5186
L52.1178 39.4582
" />
<path d="M52.1178 39.4582
L52.2992 39.4582
" />
<path d="M52.2992 39.4582
L52.4201 39.5186
" />
<path d="M52.4201 39.5186
L52.4806 39.5791
" />
<path d="M52.4806 39.5791
L52.5411 39.7001
" />
<path d="M52.5411 39.7001
L52.5411 40.0629
" />
<path d="M52.5411 40.0629
L52.4806 40.1839
" />
<path d="M52.4806 40.1839
L52.4201 40.2444
" />
<path d="M52.4201 40.2444
L52.2992 40.3048
" />
<path d="M52.2992 40.3048
L52.1178 40.3048
" />
<path d="M53.6296 39.4582
L53.6296 40.3048
" />
<path d="M53.0853 39.4582
L53.0853 40.1234
" />
<path d="M53.0853 40.1234
L53.1458 40.2444
" />
<path d="M53.1458 40.2444
L53.2668 40.3048
" />
<path d="M53.2668 40.3048
L53.4482 40.3048
" />
<path d="M53.4482 40.3048
L53.5691 40.2444
" />
<path d="M53.5691 40.2444
L53.6296 40.1839
" />
<path d="M54.2343 39.4582
L54.2343 40.3048
" />
<path d="M54.2343 39.5791
L54.2948 39.5186
" />
<path d="M54.2948 39.5186
L54.4158 39.4582
" />
<path d="M54.4158 39.4582
L54.5972 39.4582
" />
<path d="M54.5972 39.4582
L54.7181 39.5186
" />
<path d="M54.7181 39.5186
L54.7786 39.6396
" />
<path d="M54.7786 39.6396
L54.7786 40.3048
" />
<path d="M55.2019 39.4582
L55.6857 39.4582
" />
<path d="M55.3833 39.0348
L55.3833 40.1234
" />
<path d="M55.3833 40.1234
L55.4438 40.2444
" />
<path d="M55.4438 40.2444
L55.5648 40.3048
" />
<path d="M55.5648 40.3048
L55.6857 40.3048
" />
<path d="M56.1090 40.3048
L56.1090 39.4582
" />
<path d="M56.1090 39.0348
L56.0486 39.0953
" />
<path d="M56.0486 39.0953
L56.1090 39.1558
" />
<path d="M56.1090 39.1558
L56.1695 39.0953
" />
<path d="M56.1695 39.0953
L56.1090 39.0348
" />
<path d="M56.1090 39.0348
L56.1090 39.1558
" />
<path d="M56.7138 39.4582
L56.7138 40.3048
" />
<path d="M56.7138 39.5791
L56.7743 39.5186
" />
<path d="M56.7743 39.5186
L56.8953 39.4582
" />
<path d="M56.8953 39.4582
L57.0767 39.4582
" />
<path d="M57.0767 39.4582
L57.1976 39.5186
" />
<path d="M57.1976 39.5186
L57.2581 39.6396
" />
<path d="M57.2581 39.6396
L57.2581 40.3048
" />
<path d="M58.4071 39.4582
L58.4071 40.4863
" />
<path d="M58.4071 40.4863
L58.3466 40.6072
" />
<path d="M58.3466 40.6072
L58.2862 40.6677
" />
<path d="M58.2862 40.6677
L58.1652 40.7282
" />
<path d="M58.1652 40.7282
L57.9838 40.7282
" />
<path d="M57.9838 40.7282
L57.8628 40.6677
" />
<path d="M58.4071 40.2444
L58.2862 40.3048
" />
<path d="M58.2862 40.3048
L58.0443 40.3048
" />
<path d="M58.0443 40.3048
L57.9233 40.2444
" />
<path d="M57.9233 40.2444
L57.8628 40.1839
" />
<path d="M57.8628 40.1839
L57.8024 40.0629
" />
<path d="M57.8024 40.0629
L57.8024 39.7001
" />
<path d="M57.8024 39.7001
L57.8628 39.5791
" />
<path d="M57.8628 39.5791
L57.9233 39.5186
" />
<path d="M57.9233 39.5186
L58.0443 39.4582
" />
<path d="M58.0443 39.4582
L58.2862 39.4582
" />
<path d="M58.2862 39.4582
L58.4071 39.5186
" />
<path d="M59.0118 40.3048
L59.0118 39.0348
" />
<path d="M59.0118 39.0348
L59.4956 39.0348
" />
<path d="M59.4956 39.0348
L59.6166 39.0953
" />
<path d="M59.6166 39.0953
L59.6771 39.1558
" />
<path d="M59.6771 39.1558
L59.7375 39.2767
" />
<path d="M59.7375 39.2767
L59.7375 39.4582
" />
<path d="M59.7375 39.4582
L59.6771 39.5791
" />
<path d="M59.6771 39.5791
L59.6166 39.6396
" />
<path d="M59.6166 39.6396
L59.4956 39.7001
" />
<path d="M59.4956 39.7001
L59.0118 39.7001
" />
<path d="M60.2818 40.3048
L60.2818 39.4582
" />
<path d="M60.2818 39.0348
L60.2214 39.0953
" />
<path d="M60.2214 39.0953
L60.2818 39.1558
" />
<path d="M60.2818 39.1558
L60.3423 39.0953
" />
<path d="M60.3423 39.0953
L60.2818 39.0348
" />
<path d="M60.2818 39.0348
L60.2818 39.1558
" />
<path d="M60.8866 39.4582
L60.8866 40.3048
" />
<path d="M60.8866 39.5791
L60.9471 39.5186
" />
<path d="M60.9471 39.5186
L61.0681 39.4582
" />
<path d="M61.0681 39.4582
L61.2495 39.4582
" />
<path d="M61.2495 39.4582
L61.3704 39.5186
" />
<path d="M61.3704 39.5186
L61.4309 39.6396
" />
<path d="M61.4309 39.6396
L61.4309 40.3048
" />
</g></g> 
</svg>
