<?xml version="1.0" standalone="no"?>
 <!DOCTYPE svg PUBLIC "-//W3C//DTD SVG 1.1//EN" 
 "http://www.w3.org/Graphics/SVG/1.1/DTD/svg11.dtd"> 
<svg
  xmlns:svg="http://www.w3.org/2000/svg"
  xmlns="http://www.w3.org/2000/svg"
  xmlns:xlink="http://www.w3.org/1999/xlink"
  version="1.1"
  width="57.5310mm" height="71.3232mm" viewBox="0.0000 0.0000 57.5310 71.3232">
<title>SVG Image created as conn_02x21_row_letter_last_mountingpin.svg date 2024/01/16 15:18:22 </title>
  <desc>Image generated by Eeschema-SVG </desc>
<g style="fill:#000000; fill-opacity:1.0000;stroke:#000000; stroke-opacity:1.0000;
stroke-linecap:round; stroke-linejoin:round;"
 transform="translate(0 0) scale(1 1)">
</g>
<g style="fill:#000000; fill-opacity:0.0; 
stroke:#000000; stroke-width:0.0000; stroke-opacity:1; 
stroke-linecap:round; stroke-linejoin:round;">
</g>
<g style="fill:#000000; fill-opacity:0.0; 
stroke:#000000; stroke-width:0.1524; stroke-opacity:1; 
stroke-linecap:round; stroke-linejoin:round;">
<rect x="27.495500" y="60.934600" width="1.270000" height="0.254000" rx="0.000000" />
<rect x="27.495500" y="58.394600" width="1.270000" height="0.254000" rx="0.000000" />
<rect x="27.495500" y="55.854600" width="1.270000" height="0.254000" rx="0.000000" />
<rect x="27.495500" y="53.314600" width="1.270000" height="0.254000" rx="0.000000" />
<rect x="27.495500" y="50.774600" width="1.270000" height="0.254000" rx="0.000000" />
<rect x="27.495500" y="48.234600" width="1.270000" height="0.254000" rx="0.000000" />
<rect x="27.495500" y="45.694600" width="1.270000" height="0.254000" rx="0.000000" />
<rect x="27.495500" y="43.154600" width="1.270000" height="0.254000" rx="0.000000" />
<rect x="27.495500" y="40.614600" width="1.270000" height="0.254000" rx="0.000000" />
<rect x="27.495500" y="38.074600" width="1.270000" height="0.254000" rx="0.000000" />
<rect x="27.495500" y="35.534600" width="1.270000" height="0.254000" rx="0.000000" />
<rect x="27.495500" y="32.994600" width="1.270000" height="0.254000" rx="0.000000" />
<rect x="27.495500" y="30.454600" width="1.270000" height="0.254000" rx="0.000000" />
<rect x="27.495500" y="27.914600" width="1.270000" height="0.254000" rx="0.000000" />
<rect x="27.495500" y="25.374600" width="1.270000" height="0.254000" rx="0.000000" />
<rect x="27.495500" y="22.834600" width="1.270000" height="0.254000" rx="0.000000" />
<rect x="27.495500" y="20.294600" width="1.270000" height="0.254000" rx="0.000000" />
<rect x="27.495500" y="17.754600" width="1.270000" height="0.254000" rx="0.000000" />
<rect x="27.495500" y="15.214600" width="1.270000" height="0.254000" rx="0.000000" />
<rect x="27.495500" y="12.674600" width="1.270000" height="0.254000" rx="0.000000" />
<rect x="27.495500" y="10.134600" width="1.270000" height="0.254000" rx="0.000000" />
</g>
<g style="fill:#000000; fill-opacity:0.0; 
stroke:#000000; stroke-width:0.2540; stroke-opacity:1; 
stroke-linecap:round; stroke-linejoin:round;">
<rect x="27.495500" y="8.991600" width="5.080000" height="53.340000" rx="0.000000" />
</g>
<g style="fill:#000000; fill-opacity:0.0; 
stroke:#000000; stroke-width:0.1524; stroke-opacity:1; 
stroke-linecap:round; stroke-linejoin:round;">
<path style="fill:#000000; fill-opacity:0.0; 
stroke:#000000; stroke-width:0.1524; stroke-opacity:1; 
stroke-linecap:round; stroke-linejoin:round;fill:none"
d="M 29.0195,63.0936
31.0515,63.0936
" /> 
<rect x="31.305500" y="60.934600" width="1.270000" height="0.254000" rx="0.000000" />
<rect x="31.305500" y="58.394600" width="1.270000" height="0.254000" rx="0.000000" />
<rect x="31.305500" y="55.854600" width="1.270000" height="0.254000" rx="0.000000" />
<rect x="31.305500" y="53.314600" width="1.270000" height="0.254000" rx="0.000000" />
<rect x="31.305500" y="50.774600" width="1.270000" height="0.254000" rx="0.000000" />
<rect x="31.305500" y="48.234600" width="1.270000" height="0.254000" rx="0.000000" />
<rect x="31.305500" y="45.694600" width="1.270000" height="0.254000" rx="0.000000" />
<rect x="31.305500" y="43.154600" width="1.270000" height="0.254000" rx="0.000000" />
<rect x="31.305500" y="40.614600" width="1.270000" height="0.254000" rx="0.000000" />
<rect x="31.305500" y="38.074600" width="1.270000" height="0.254000" rx="0.000000" />
<rect x="31.305500" y="35.534600" width="1.270000" height="0.254000" rx="0.000000" />
<rect x="31.305500" y="32.994600" width="1.270000" height="0.254000" rx="0.000000" />
<rect x="31.305500" y="30.454600" width="1.270000" height="0.254000" rx="0.000000" />
<rect x="31.305500" y="27.914600" width="1.270000" height="0.254000" rx="0.000000" />
<rect x="31.305500" y="25.374600" width="1.270000" height="0.254000" rx="0.000000" />
<rect x="31.305500" y="22.834600" width="1.270000" height="0.254000" rx="0.000000" />
<rect x="31.305500" y="20.294600" width="1.270000" height="0.254000" rx="0.000000" />
<rect x="31.305500" y="17.754600" width="1.270000" height="0.254000" rx="0.000000" />
<rect x="31.305500" y="15.214600" width="1.270000" height="0.254000" rx="0.000000" />
<rect x="31.305500" y="12.674600" width="1.270000" height="0.254000" rx="0.000000" />
<rect x="31.305500" y="10.134600" width="1.270000" height="0.254000" rx="0.000000" />
</g>
<g style="fill:#000000; fill-opacity:0.0; 
stroke:#000000; stroke-width:0.0476; stroke-opacity:1; 
stroke-linecap:round; stroke-linejoin:round;">
<text x="30.0355" y="62.9031"
textLength="2.6246" font-size="0.5080" lengthAdjust="spacingAndGlyphs"
text-anchor="middle" opacity="0">Mounting</text>
<g class="stroked-text"><desc>Mounting</desc>
<path d="M28.8472 62.8864
L28.8472 62.5054
" />
<path d="M28.8472 62.5054
L28.9742 62.7775
" />
<path d="M28.9742 62.7775
L29.1012 62.5054
" />
<path d="M29.1012 62.5054
L29.1012 62.8864
" />
<path d="M29.3370 62.8864
L29.3007 62.8683
" />
<path d="M29.3007 62.8683
L29.2826 62.8501
" />
<path d="M29.2826 62.8501
L29.2644 62.8138
" />
<path d="M29.2644 62.8138
L29.2644 62.7050
" />
<path d="M29.2644 62.7050
L29.2826 62.6687
" />
<path d="M29.2826 62.6687
L29.3007 62.6505
" />
<path d="M29.3007 62.6505
L29.3370 62.6324
" />
<path d="M29.3370 62.6324
L29.3914 62.6324
" />
<path d="M29.3914 62.6324
L29.4277 62.6505
" />
<path d="M29.4277 62.6505
L29.4459 62.6687
" />
<path d="M29.4459 62.6687
L29.4640 62.7050
" />
<path d="M29.4640 62.7050
L29.4640 62.8138
" />
<path d="M29.4640 62.8138
L29.4459 62.8501
" />
<path d="M29.4459 62.8501
L29.4277 62.8683
" />
<path d="M29.4277 62.8683
L29.3914 62.8864
" />
<path d="M29.3914 62.8864
L29.3370 62.8864
" />
<path d="M29.7906 62.6324
L29.7906 62.8864
" />
<path d="M29.6273 62.6324
L29.6273 62.8320
" />
<path d="M29.6273 62.8320
L29.6454 62.8683
" />
<path d="M29.6454 62.8683
L29.6817 62.8864
" />
<path d="M29.6817 62.8864
L29.7361 62.8864
" />
<path d="M29.7361 62.8864
L29.7724 62.8683
" />
<path d="M29.7724 62.8683
L29.7906 62.8501
" />
<path d="M29.9720 62.6324
L29.9720 62.8864
" />
<path d="M29.9720 62.6687
L29.9901 62.6505
" />
<path d="M29.9901 62.6505
L30.0264 62.6324
" />
<path d="M30.0264 62.6324
L30.0808 62.6324
" />
<path d="M30.0808 62.6324
L30.1171 62.6505
" />
<path d="M30.1171 62.6505
L30.1353 62.6868
" />
<path d="M30.1353 62.6868
L30.1353 62.8864
" />
<path d="M30.2622 62.6324
L30.4074 62.6324
" />
<path d="M30.3167 62.5054
L30.3167 62.8320
" />
<path d="M30.3167 62.8320
L30.3348 62.8683
" />
<path d="M30.3348 62.8683
L30.3711 62.8864
" />
<path d="M30.3711 62.8864
L30.4074 62.8864
" />
<path d="M30.5344 62.8864
L30.5344 62.6324
" />
<path d="M30.5344 62.5054
L30.5162 62.5235
" />
<path d="M30.5162 62.5235
L30.5344 62.5417
" />
<path d="M30.5344 62.5417
L30.5525 62.5235
" />
<path d="M30.5525 62.5235
L30.5344 62.5054
" />
<path d="M30.5344 62.5054
L30.5344 62.5417
" />
<path d="M30.7158 62.6324
L30.7158 62.8864
" />
<path d="M30.7158 62.6687
L30.7339 62.6505
" />
<path d="M30.7339 62.6505
L30.7702 62.6324
" />
<path d="M30.7702 62.6324
L30.8246 62.6324
" />
<path d="M30.8246 62.6324
L30.8609 62.6505
" />
<path d="M30.8609 62.6505
L30.8791 62.6868
" />
<path d="M30.8791 62.6868
L30.8791 62.8864
" />
<path d="M31.2238 62.6324
L31.2238 62.9408
" />
<path d="M31.2238 62.9408
L31.2056 62.9771
" />
<path d="M31.2056 62.9771
L31.1875 62.9953
" />
<path d="M31.1875 62.9953
L31.1512 63.0134
" />
<path d="M31.1512 63.0134
L31.0968 63.0134
" />
<path d="M31.0968 63.0134
L31.0605 62.9953
" />
<path d="M31.2238 62.8683
L31.1875 62.8864
" />
<path d="M31.1875 62.8864
L31.1149 62.8864
" />
<path d="M31.1149 62.8864
L31.0786 62.8683
" />
<path d="M31.0786 62.8683
L31.0605 62.8501
" />
<path d="M31.0605 62.8501
L31.0423 62.8138
" />
<path d="M31.0423 62.8138
L31.0423 62.7050
" />
<path d="M31.0423 62.7050
L31.0605 62.6687
" />
<path d="M31.0605 62.6687
L31.0786 62.6505
" />
<path d="M31.0786 62.6505
L31.1149 62.6324
" />
<path d="M31.1149 62.6324
L31.1875 62.6324
" />
<path d="M31.1875 62.6324
L31.2238 62.6505
" />
</g></g>
<g style="fill:#000000; fill-opacity:0.0; 
stroke:#000000; stroke-width:0.1524; stroke-opacity:1; 
stroke-linecap:round; stroke-linejoin:round;">
<path d="M27.4955 33.1216
L23.6855 33.1216
" />
<text x="25.5905" y="32.8676"
textLength="3.7712" font-size="1.6933" lengthAdjust="spacingAndGlyphs"
text-anchor="middle" opacity="0">10a</text>
<g class="stroked-text"><desc>10a</desc>
<path d="M24.7741 32.7041
L24.0484 32.7041
" />
<path d="M24.4112 32.7041
L24.4112 31.4341
" />
<path d="M24.4112 31.4341
L24.2903 31.6156
" />
<path d="M24.2903 31.6156
L24.1693 31.7365
" />
<path d="M24.1693 31.7365
L24.0484 31.7970
" />
<path d="M25.5602 31.4341
L25.6812 31.4341
" />
<path d="M25.6812 31.4341
L25.8021 31.4946
" />
<path d="M25.8021 31.4946
L25.8626 31.5551
" />
<path d="M25.8626 31.5551
L25.9231 31.6760
" />
<path d="M25.9231 31.6760
L25.9836 31.9179
" />
<path d="M25.9836 31.9179
L25.9836 32.2203
" />
<path d="M25.9836 32.2203
L25.9231 32.4622
" />
<path d="M25.9231 32.4622
L25.8626 32.5832
" />
<path d="M25.8626 32.5832
L25.8021 32.6437
" />
<path d="M25.8021 32.6437
L25.6812 32.7041
" />
<path d="M25.6812 32.7041
L25.5602 32.7041
" />
<path d="M25.5602 32.7041
L25.4393 32.6437
" />
<path d="M25.4393 32.6437
L25.3788 32.5832
" />
<path d="M25.3788 32.5832
L25.3183 32.4622
" />
<path d="M25.3183 32.4622
L25.2579 32.2203
" />
<path d="M25.2579 32.2203
L25.2579 31.9179
" />
<path d="M25.2579 31.9179
L25.3183 31.6760
" />
<path d="M25.3183 31.6760
L25.3788 31.5551
" />
<path d="M25.3788 31.5551
L25.4393 31.4946
" />
<path d="M25.4393 31.4946
L25.5602 31.4341
" />
<path d="M27.0721 32.7041
L27.0721 32.0389
" />
<path d="M27.0721 32.0389
L27.0116 31.9179
" />
<path d="M27.0116 31.9179
L26.8907 31.8575
" />
<path d="M26.8907 31.8575
L26.6488 31.8575
" />
<path d="M26.6488 31.8575
L26.5278 31.9179
" />
<path d="M27.0721 32.6437
L26.9512 32.7041
" />
<path d="M26.9512 32.7041
L26.6488 32.7041
" />
<path d="M26.6488 32.7041
L26.5278 32.6437
" />
<path d="M26.5278 32.6437
L26.4674 32.5227
" />
<path d="M26.4674 32.5227
L26.4674 32.4017
" />
<path d="M26.4674 32.4017
L26.5278 32.2808
" />
<path d="M26.5278 32.2808
L26.6488 32.2203
" />
<path d="M26.6488 32.2203
L26.9512 32.2203
" />
<path d="M26.9512 32.2203
L27.0721 32.1598
" />
</g><path d="M32.5755 33.1216
L36.3855 33.1216
" />
<text x="34.4805" y="32.8676"
textLength="3.7712" font-size="1.6933" lengthAdjust="spacingAndGlyphs"
text-anchor="middle" opacity="0">10b</text>
<g class="stroked-text"><desc>10b</desc>
<path d="M33.6641 32.7041
L32.9384 32.7041
" />
<path d="M33.3012 32.7041
L33.3012 31.4341
" />
<path d="M33.3012 31.4341
L33.1803 31.6156
" />
<path d="M33.1803 31.6156
L33.0593 31.7365
" />
<path d="M33.0593 31.7365
L32.9384 31.7970
" />
<path d="M34.4502 31.4341
L34.5712 31.4341
" />
<path d="M34.5712 31.4341
L34.6921 31.4946
" />
<path d="M34.6921 31.4946
L34.7526 31.5551
" />
<path d="M34.7526 31.5551
L34.8131 31.6760
" />
<path d="M34.8131 31.6760
L34.8736 31.9179
" />
<path d="M34.8736 31.9179
L34.8736 32.2203
" />
<path d="M34.8736 32.2203
L34.8131 32.4622
" />
<path d="M34.8131 32.4622
L34.7526 32.5832
" />
<path d="M34.7526 32.5832
L34.6921 32.6437
" />
<path d="M34.6921 32.6437
L34.5712 32.7041
" />
<path d="M34.5712 32.7041
L34.4502 32.7041
" />
<path d="M34.4502 32.7041
L34.3293 32.6437
" />
<path d="M34.3293 32.6437
L34.2688 32.5832
" />
<path d="M34.2688 32.5832
L34.2083 32.4622
" />
<path d="M34.2083 32.4622
L34.1479 32.2203
" />
<path d="M34.1479 32.2203
L34.1479 31.9179
" />
<path d="M34.1479 31.9179
L34.2083 31.6760
" />
<path d="M34.2083 31.6760
L34.2688 31.5551
" />
<path d="M34.2688 31.5551
L34.3293 31.4946
" />
<path d="M34.3293 31.4946
L34.4502 31.4341
" />
<path d="M35.4178 32.7041
L35.4178 31.4341
" />
<path d="M35.4178 31.9179
L35.5388 31.8575
" />
<path d="M35.5388 31.8575
L35.7807 31.8575
" />
<path d="M35.7807 31.8575
L35.9016 31.9179
" />
<path d="M35.9016 31.9179
L35.9621 31.9784
" />
<path d="M35.9621 31.9784
L36.0226 32.0994
" />
<path d="M36.0226 32.0994
L36.0226 32.4622
" />
<path d="M36.0226 32.4622
L35.9621 32.5832
" />
<path d="M35.9621 32.5832
L35.9016 32.6437
" />
<path d="M35.9016 32.6437
L35.7807 32.7041
" />
<path d="M35.7807 32.7041
L35.5388 32.7041
" />
<path d="M35.5388 32.7041
L35.4178 32.6437
" />
</g><path d="M27.4955 35.6616
L23.6855 35.6616
" />
<text x="25.5905" y="35.4076"
textLength="3.7712" font-size="1.6933" lengthAdjust="spacingAndGlyphs"
text-anchor="middle" opacity="0">11a</text>
<g class="stroked-text"><desc>11a</desc>
<path d="M24.7741 35.2441
L24.0484 35.2441
" />
<path d="M24.4112 35.2441
L24.4112 33.9741
" />
<path d="M24.4112 33.9741
L24.2903 34.1556
" />
<path d="M24.2903 34.1556
L24.1693 34.2765
" />
<path d="M24.1693 34.2765
L24.0484 34.3370
" />
<path d="M25.9836 35.2441
L25.2579 35.2441
" />
<path d="M25.6207 35.2441
L25.6207 33.9741
" />
<path d="M25.6207 33.9741
L25.4998 34.1556
" />
<path d="M25.4998 34.1556
L25.3788 34.2765
" />
<path d="M25.3788 34.2765
L25.2579 34.3370
" />
<path d="M27.0721 35.2441
L27.0721 34.5789
" />
<path d="M27.0721 34.5789
L27.0116 34.4579
" />
<path d="M27.0116 34.4579
L26.8907 34.3975
" />
<path d="M26.8907 34.3975
L26.6488 34.3975
" />
<path d="M26.6488 34.3975
L26.5278 34.4579
" />
<path d="M27.0721 35.1837
L26.9512 35.2441
" />
<path d="M26.9512 35.2441
L26.6488 35.2441
" />
<path d="M26.6488 35.2441
L26.5278 35.1837
" />
<path d="M26.5278 35.1837
L26.4674 35.0627
" />
<path d="M26.4674 35.0627
L26.4674 34.9417
" />
<path d="M26.4674 34.9417
L26.5278 34.8208
" />
<path d="M26.5278 34.8208
L26.6488 34.7603
" />
<path d="M26.6488 34.7603
L26.9512 34.7603
" />
<path d="M26.9512 34.7603
L27.0721 34.6998
" />
</g><path d="M32.5755 35.6616
L36.3855 35.6616
" />
<text x="34.4805" y="35.4076"
textLength="3.7712" font-size="1.6933" lengthAdjust="spacingAndGlyphs"
text-anchor="middle" opacity="0">11b</text>
<g class="stroked-text"><desc>11b</desc>
<path d="M33.6641 35.2441
L32.9384 35.2441
" />
<path d="M33.3012 35.2441
L33.3012 33.9741
" />
<path d="M33.3012 33.9741
L33.1803 34.1556
" />
<path d="M33.1803 34.1556
L33.0593 34.2765
" />
<path d="M33.0593 34.2765
L32.9384 34.3370
" />
<path d="M34.8736 35.2441
L34.1479 35.2441
" />
<path d="M34.5107 35.2441
L34.5107 33.9741
" />
<path d="M34.5107 33.9741
L34.3898 34.1556
" />
<path d="M34.3898 34.1556
L34.2688 34.2765
" />
<path d="M34.2688 34.2765
L34.1479 34.3370
" />
<path d="M35.4178 35.2441
L35.4178 33.9741
" />
<path d="M35.4178 34.4579
L35.5388 34.3975
" />
<path d="M35.5388 34.3975
L35.7807 34.3975
" />
<path d="M35.7807 34.3975
L35.9016 34.4579
" />
<path d="M35.9016 34.4579
L35.9621 34.5184
" />
<path d="M35.9621 34.5184
L36.0226 34.6394
" />
<path d="M36.0226 34.6394
L36.0226 35.0022
" />
<path d="M36.0226 35.0022
L35.9621 35.1232
" />
<path d="M35.9621 35.1232
L35.9016 35.1837
" />
<path d="M35.9016 35.1837
L35.7807 35.2441
" />
<path d="M35.7807 35.2441
L35.5388 35.2441
" />
<path d="M35.5388 35.2441
L35.4178 35.1837
" />
</g><path d="M27.4955 38.2016
L23.6855 38.2016
" />
<text x="25.5905" y="37.9476"
textLength="3.7712" font-size="1.6933" lengthAdjust="spacingAndGlyphs"
text-anchor="middle" opacity="0">12a</text>
<g class="stroked-text"><desc>12a</desc>
<path d="M24.7741 37.7841
L24.0484 37.7841
" />
<path d="M24.4112 37.7841
L24.4112 36.5141
" />
<path d="M24.4112 36.5141
L24.2903 36.6956
" />
<path d="M24.2903 36.6956
L24.1693 36.8165
" />
<path d="M24.1693 36.8165
L24.0484 36.8770
" />
<path d="M25.2579 36.6351
L25.3183 36.5746
" />
<path d="M25.3183 36.5746
L25.4393 36.5141
" />
<path d="M25.4393 36.5141
L25.7417 36.5141
" />
<path d="M25.7417 36.5141
L25.8626 36.5746
" />
<path d="M25.8626 36.5746
L25.9231 36.6351
" />
<path d="M25.9231 36.6351
L25.9836 36.7560
" />
<path d="M25.9836 36.7560
L25.9836 36.8770
" />
<path d="M25.9836 36.8770
L25.9231 37.0584
" />
<path d="M25.9231 37.0584
L25.1974 37.7841
" />
<path d="M25.1974 37.7841
L25.9836 37.7841
" />
<path d="M27.0721 37.7841
L27.0721 37.1189
" />
<path d="M27.0721 37.1189
L27.0116 36.9979
" />
<path d="M27.0116 36.9979
L26.8907 36.9375
" />
<path d="M26.8907 36.9375
L26.6488 36.9375
" />
<path d="M26.6488 36.9375
L26.5278 36.9979
" />
<path d="M27.0721 37.7237
L26.9512 37.7841
" />
<path d="M26.9512 37.7841
L26.6488 37.7841
" />
<path d="M26.6488 37.7841
L26.5278 37.7237
" />
<path d="M26.5278 37.7237
L26.4674 37.6027
" />
<path d="M26.4674 37.6027
L26.4674 37.4817
" />
<path d="M26.4674 37.4817
L26.5278 37.3608
" />
<path d="M26.5278 37.3608
L26.6488 37.3003
" />
<path d="M26.6488 37.3003
L26.9512 37.3003
" />
<path d="M26.9512 37.3003
L27.0721 37.2398
" />
</g><path d="M32.5755 38.2016
L36.3855 38.2016
" />
<text x="34.4805" y="37.9476"
textLength="3.7712" font-size="1.6933" lengthAdjust="spacingAndGlyphs"
text-anchor="middle" opacity="0">12b</text>
<g class="stroked-text"><desc>12b</desc>
<path d="M33.6641 37.7841
L32.9384 37.7841
" />
<path d="M33.3012 37.7841
L33.3012 36.5141
" />
<path d="M33.3012 36.5141
L33.1803 36.6956
" />
<path d="M33.1803 36.6956
L33.0593 36.8165
" />
<path d="M33.0593 36.8165
L32.9384 36.8770
" />
<path d="M34.1479 36.6351
L34.2083 36.5746
" />
<path d="M34.2083 36.5746
L34.3293 36.5141
" />
<path d="M34.3293 36.5141
L34.6317 36.5141
" />
<path d="M34.6317 36.5141
L34.7526 36.5746
" />
<path d="M34.7526 36.5746
L34.8131 36.6351
" />
<path d="M34.8131 36.6351
L34.8736 36.7560
" />
<path d="M34.8736 36.7560
L34.8736 36.8770
" />
<path d="M34.8736 36.8770
L34.8131 37.0584
" />
<path d="M34.8131 37.0584
L34.0874 37.7841
" />
<path d="M34.0874 37.7841
L34.8736 37.7841
" />
<path d="M35.4178 37.7841
L35.4178 36.5141
" />
<path d="M35.4178 36.9979
L35.5388 36.9375
" />
<path d="M35.5388 36.9375
L35.7807 36.9375
" />
<path d="M35.7807 36.9375
L35.9016 36.9979
" />
<path d="M35.9016 36.9979
L35.9621 37.0584
" />
<path d="M35.9621 37.0584
L36.0226 37.1794
" />
<path d="M36.0226 37.1794
L36.0226 37.5422
" />
<path d="M36.0226 37.5422
L35.9621 37.6632
" />
<path d="M35.9621 37.6632
L35.9016 37.7237
" />
<path d="M35.9016 37.7237
L35.7807 37.7841
" />
<path d="M35.7807 37.7841
L35.5388 37.7841
" />
<path d="M35.5388 37.7841
L35.4178 37.7237
" />
</g><path d="M27.4955 40.7416
L23.6855 40.7416
" />
<text x="25.5905" y="40.4876"
textLength="3.7712" font-size="1.6933" lengthAdjust="spacingAndGlyphs"
text-anchor="middle" opacity="0">13a</text>
<g class="stroked-text"><desc>13a</desc>
<path d="M24.7741 40.3241
L24.0484 40.3241
" />
<path d="M24.4112 40.3241
L24.4112 39.0541
" />
<path d="M24.4112 39.0541
L24.2903 39.2356
" />
<path d="M24.2903 39.2356
L24.1693 39.3565
" />
<path d="M24.1693 39.3565
L24.0484 39.4170
" />
<path d="M25.1974 39.0541
L25.9836 39.0541
" />
<path d="M25.9836 39.0541
L25.5602 39.5379
" />
<path d="M25.5602 39.5379
L25.7417 39.5379
" />
<path d="M25.7417 39.5379
L25.8626 39.5984
" />
<path d="M25.8626 39.5984
L25.9231 39.6589
" />
<path d="M25.9231 39.6589
L25.9836 39.7798
" />
<path d="M25.9836 39.7798
L25.9836 40.0822
" />
<path d="M25.9836 40.0822
L25.9231 40.2032
" />
<path d="M25.9231 40.2032
L25.8626 40.2637
" />
<path d="M25.8626 40.2637
L25.7417 40.3241
" />
<path d="M25.7417 40.3241
L25.3788 40.3241
" />
<path d="M25.3788 40.3241
L25.2579 40.2637
" />
<path d="M25.2579 40.2637
L25.1974 40.2032
" />
<path d="M27.0721 40.3241
L27.0721 39.6589
" />
<path d="M27.0721 39.6589
L27.0116 39.5379
" />
<path d="M27.0116 39.5379
L26.8907 39.4775
" />
<path d="M26.8907 39.4775
L26.6488 39.4775
" />
<path d="M26.6488 39.4775
L26.5278 39.5379
" />
<path d="M27.0721 40.2637
L26.9512 40.3241
" />
<path d="M26.9512 40.3241
L26.6488 40.3241
" />
<path d="M26.6488 40.3241
L26.5278 40.2637
" />
<path d="M26.5278 40.2637
L26.4674 40.1427
" />
<path d="M26.4674 40.1427
L26.4674 40.0217
" />
<path d="M26.4674 40.0217
L26.5278 39.9008
" />
<path d="M26.5278 39.9008
L26.6488 39.8403
" />
<path d="M26.6488 39.8403
L26.9512 39.8403
" />
<path d="M26.9512 39.8403
L27.0721 39.7798
" />
</g><path d="M32.5755 40.7416
L36.3855 40.7416
" />
<text x="34.4805" y="40.4876"
textLength="3.7712" font-size="1.6933" lengthAdjust="spacingAndGlyphs"
text-anchor="middle" opacity="0">13b</text>
<g class="stroked-text"><desc>13b</desc>
<path d="M33.6641 40.3241
L32.9384 40.3241
" />
<path d="M33.3012 40.3241
L33.3012 39.0541
" />
<path d="M33.3012 39.0541
L33.1803 39.2356
" />
<path d="M33.1803 39.2356
L33.0593 39.3565
" />
<path d="M33.0593 39.3565
L32.9384 39.4170
" />
<path d="M34.0874 39.0541
L34.8736 39.0541
" />
<path d="M34.8736 39.0541
L34.4502 39.5379
" />
<path d="M34.4502 39.5379
L34.6317 39.5379
" />
<path d="M34.6317 39.5379
L34.7526 39.5984
" />
<path d="M34.7526 39.5984
L34.8131 39.6589
" />
<path d="M34.8131 39.6589
L34.8736 39.7798
" />
<path d="M34.8736 39.7798
L34.8736 40.0822
" />
<path d="M34.8736 40.0822
L34.8131 40.2032
" />
<path d="M34.8131 40.2032
L34.7526 40.2637
" />
<path d="M34.7526 40.2637
L34.6317 40.3241
" />
<path d="M34.6317 40.3241
L34.2688 40.3241
" />
<path d="M34.2688 40.3241
L34.1479 40.2637
" />
<path d="M34.1479 40.2637
L34.0874 40.2032
" />
<path d="M35.4178 40.3241
L35.4178 39.0541
" />
<path d="M35.4178 39.5379
L35.5388 39.4775
" />
<path d="M35.5388 39.4775
L35.7807 39.4775
" />
<path d="M35.7807 39.4775
L35.9016 39.5379
" />
<path d="M35.9016 39.5379
L35.9621 39.5984
" />
<path d="M35.9621 39.5984
L36.0226 39.7194
" />
<path d="M36.0226 39.7194
L36.0226 40.0822
" />
<path d="M36.0226 40.0822
L35.9621 40.2032
" />
<path d="M35.9621 40.2032
L35.9016 40.2637
" />
<path d="M35.9016 40.2637
L35.7807 40.3241
" />
<path d="M35.7807 40.3241
L35.5388 40.3241
" />
<path d="M35.5388 40.3241
L35.4178 40.2637
" />
</g><path d="M27.4955 43.2816
L23.6855 43.2816
" />
<text x="25.5905" y="43.0276"
textLength="3.7712" font-size="1.6933" lengthAdjust="spacingAndGlyphs"
text-anchor="middle" opacity="0">14a</text>
<g class="stroked-text"><desc>14a</desc>
<path d="M24.7741 42.8641
L24.0484 42.8641
" />
<path d="M24.4112 42.8641
L24.4112 41.5941
" />
<path d="M24.4112 41.5941
L24.2903 41.7756
" />
<path d="M24.2903 41.7756
L24.1693 41.8965
" />
<path d="M24.1693 41.8965
L24.0484 41.9570
" />
<path d="M25.8626 42.0175
L25.8626 42.8641
" />
<path d="M25.5602 41.5337
L25.2579 42.4408
" />
<path d="M25.2579 42.4408
L26.0440 42.4408
" />
<path d="M27.0721 42.8641
L27.0721 42.1989
" />
<path d="M27.0721 42.1989
L27.0116 42.0779
" />
<path d="M27.0116 42.0779
L26.8907 42.0175
" />
<path d="M26.8907 42.0175
L26.6488 42.0175
" />
<path d="M26.6488 42.0175
L26.5278 42.0779
" />
<path d="M27.0721 42.8037
L26.9512 42.8641
" />
<path d="M26.9512 42.8641
L26.6488 42.8641
" />
<path d="M26.6488 42.8641
L26.5278 42.8037
" />
<path d="M26.5278 42.8037
L26.4674 42.6827
" />
<path d="M26.4674 42.6827
L26.4674 42.5617
" />
<path d="M26.4674 42.5617
L26.5278 42.4408
" />
<path d="M26.5278 42.4408
L26.6488 42.3803
" />
<path d="M26.6488 42.3803
L26.9512 42.3803
" />
<path d="M26.9512 42.3803
L27.0721 42.3198
" />
</g><path d="M32.5755 43.2816
L36.3855 43.2816
" />
<text x="34.4805" y="43.0276"
textLength="3.7712" font-size="1.6933" lengthAdjust="spacingAndGlyphs"
text-anchor="middle" opacity="0">14b</text>
<g class="stroked-text"><desc>14b</desc>
<path d="M33.6641 42.8641
L32.9384 42.8641
" />
<path d="M33.3012 42.8641
L33.3012 41.5941
" />
<path d="M33.3012 41.5941
L33.1803 41.7756
" />
<path d="M33.1803 41.7756
L33.0593 41.8965
" />
<path d="M33.0593 41.8965
L32.9384 41.9570
" />
<path d="M34.7526 42.0175
L34.7526 42.8641
" />
<path d="M34.4502 41.5337
L34.1479 42.4408
" />
<path d="M34.1479 42.4408
L34.9340 42.4408
" />
<path d="M35.4178 42.8641
L35.4178 41.5941
" />
<path d="M35.4178 42.0779
L35.5388 42.0175
" />
<path d="M35.5388 42.0175
L35.7807 42.0175
" />
<path d="M35.7807 42.0175
L35.9016 42.0779
" />
<path d="M35.9016 42.0779
L35.9621 42.1384
" />
<path d="M35.9621 42.1384
L36.0226 42.2594
" />
<path d="M36.0226 42.2594
L36.0226 42.6222
" />
<path d="M36.0226 42.6222
L35.9621 42.7432
" />
<path d="M35.9621 42.7432
L35.9016 42.8037
" />
<path d="M35.9016 42.8037
L35.7807 42.8641
" />
<path d="M35.7807 42.8641
L35.5388 42.8641
" />
<path d="M35.5388 42.8641
L35.4178 42.8037
" />
</g><path d="M27.4955 45.8216
L23.6855 45.8216
" />
<text x="25.5905" y="45.5676"
textLength="3.7712" font-size="1.6933" lengthAdjust="spacingAndGlyphs"
text-anchor="middle" opacity="0">15a</text>
<g class="stroked-text"><desc>15a</desc>
<path d="M24.7741 45.4041
L24.0484 45.4041
" />
<path d="M24.4112 45.4041
L24.4112 44.1341
" />
<path d="M24.4112 44.1341
L24.2903 44.3156
" />
<path d="M24.2903 44.3156
L24.1693 44.4365
" />
<path d="M24.1693 44.4365
L24.0484 44.4970
" />
<path d="M25.9231 44.1341
L25.3183 44.1341
" />
<path d="M25.3183 44.1341
L25.2579 44.7389
" />
<path d="M25.2579 44.7389
L25.3183 44.6784
" />
<path d="M25.3183 44.6784
L25.4393 44.6179
" />
<path d="M25.4393 44.6179
L25.7417 44.6179
" />
<path d="M25.7417 44.6179
L25.8626 44.6784
" />
<path d="M25.8626 44.6784
L25.9231 44.7389
" />
<path d="M25.9231 44.7389
L25.9836 44.8598
" />
<path d="M25.9836 44.8598
L25.9836 45.1622
" />
<path d="M25.9836 45.1622
L25.9231 45.2832
" />
<path d="M25.9231 45.2832
L25.8626 45.3437
" />
<path d="M25.8626 45.3437
L25.7417 45.4041
" />
<path d="M25.7417 45.4041
L25.4393 45.4041
" />
<path d="M25.4393 45.4041
L25.3183 45.3437
" />
<path d="M25.3183 45.3437
L25.2579 45.2832
" />
<path d="M27.0721 45.4041
L27.0721 44.7389
" />
<path d="M27.0721 44.7389
L27.0116 44.6179
" />
<path d="M27.0116 44.6179
L26.8907 44.5575
" />
<path d="M26.8907 44.5575
L26.6488 44.5575
" />
<path d="M26.6488 44.5575
L26.5278 44.6179
" />
<path d="M27.0721 45.3437
L26.9512 45.4041
" />
<path d="M26.9512 45.4041
L26.6488 45.4041
" />
<path d="M26.6488 45.4041
L26.5278 45.3437
" />
<path d="M26.5278 45.3437
L26.4674 45.2227
" />
<path d="M26.4674 45.2227
L26.4674 45.1017
" />
<path d="M26.4674 45.1017
L26.5278 44.9808
" />
<path d="M26.5278 44.9808
L26.6488 44.9203
" />
<path d="M26.6488 44.9203
L26.9512 44.9203
" />
<path d="M26.9512 44.9203
L27.0721 44.8598
" />
</g><path d="M32.5755 45.8216
L36.3855 45.8216
" />
<text x="34.4805" y="45.5676"
textLength="3.7712" font-size="1.6933" lengthAdjust="spacingAndGlyphs"
text-anchor="middle" opacity="0">15b</text>
<g class="stroked-text"><desc>15b</desc>
<path d="M33.6641 45.4041
L32.9384 45.4041
" />
<path d="M33.3012 45.4041
L33.3012 44.1341
" />
<path d="M33.3012 44.1341
L33.1803 44.3156
" />
<path d="M33.1803 44.3156
L33.0593 44.4365
" />
<path d="M33.0593 44.4365
L32.9384 44.4970
" />
<path d="M34.8131 44.1341
L34.2083 44.1341
" />
<path d="M34.2083 44.1341
L34.1479 44.7389
" />
<path d="M34.1479 44.7389
L34.2083 44.6784
" />
<path d="M34.2083 44.6784
L34.3293 44.6179
" />
<path d="M34.3293 44.6179
L34.6317 44.6179
" />
<path d="M34.6317 44.6179
L34.7526 44.6784
" />
<path d="M34.7526 44.6784
L34.8131 44.7389
" />
<path d="M34.8131 44.7389
L34.8736 44.8598
" />
<path d="M34.8736 44.8598
L34.8736 45.1622
" />
<path d="M34.8736 45.1622
L34.8131 45.2832
" />
<path d="M34.8131 45.2832
L34.7526 45.3437
" />
<path d="M34.7526 45.3437
L34.6317 45.4041
" />
<path d="M34.6317 45.4041
L34.3293 45.4041
" />
<path d="M34.3293 45.4041
L34.2083 45.3437
" />
<path d="M34.2083 45.3437
L34.1479 45.2832
" />
<path d="M35.4178 45.4041
L35.4178 44.1341
" />
<path d="M35.4178 44.6179
L35.5388 44.5575
" />
<path d="M35.5388 44.5575
L35.7807 44.5575
" />
<path d="M35.7807 44.5575
L35.9016 44.6179
" />
<path d="M35.9016 44.6179
L35.9621 44.6784
" />
<path d="M35.9621 44.6784
L36.0226 44.7994
" />
<path d="M36.0226 44.7994
L36.0226 45.1622
" />
<path d="M36.0226 45.1622
L35.9621 45.2832
" />
<path d="M35.9621 45.2832
L35.9016 45.3437
" />
<path d="M35.9016 45.3437
L35.7807 45.4041
" />
<path d="M35.7807 45.4041
L35.5388 45.4041
" />
<path d="M35.5388 45.4041
L35.4178 45.3437
" />
</g><path d="M27.4955 48.3616
L23.6855 48.3616
" />
<text x="25.5905" y="48.1076"
textLength="3.7712" font-size="1.6933" lengthAdjust="spacingAndGlyphs"
text-anchor="middle" opacity="0">16a</text>
<g class="stroked-text"><desc>16a</desc>
<path d="M24.7741 47.9441
L24.0484 47.9441
" />
<path d="M24.4112 47.9441
L24.4112 46.6741
" />
<path d="M24.4112 46.6741
L24.2903 46.8556
" />
<path d="M24.2903 46.8556
L24.1693 46.9765
" />
<path d="M24.1693 46.9765
L24.0484 47.0370
" />
<path d="M25.8626 46.6741
L25.6207 46.6741
" />
<path d="M25.6207 46.6741
L25.4998 46.7346
" />
<path d="M25.4998 46.7346
L25.4393 46.7951
" />
<path d="M25.4393 46.7951
L25.3183 46.9765
" />
<path d="M25.3183 46.9765
L25.2579 47.2184
" />
<path d="M25.2579 47.2184
L25.2579 47.7022
" />
<path d="M25.2579 47.7022
L25.3183 47.8232
" />
<path d="M25.3183 47.8232
L25.3788 47.8837
" />
<path d="M25.3788 47.8837
L25.4998 47.9441
" />
<path d="M25.4998 47.9441
L25.7417 47.9441
" />
<path d="M25.7417 47.9441
L25.8626 47.8837
" />
<path d="M25.8626 47.8837
L25.9231 47.8232
" />
<path d="M25.9231 47.8232
L25.9836 47.7022
" />
<path d="M25.9836 47.7022
L25.9836 47.3998
" />
<path d="M25.9836 47.3998
L25.9231 47.2789
" />
<path d="M25.9231 47.2789
L25.8626 47.2184
" />
<path d="M25.8626 47.2184
L25.7417 47.1579
" />
<path d="M25.7417 47.1579
L25.4998 47.1579
" />
<path d="M25.4998 47.1579
L25.3788 47.2184
" />
<path d="M25.3788 47.2184
L25.3183 47.2789
" />
<path d="M25.3183 47.2789
L25.2579 47.3998
" />
<path d="M27.0721 47.9441
L27.0721 47.2789
" />
<path d="M27.0721 47.2789
L27.0116 47.1579
" />
<path d="M27.0116 47.1579
L26.8907 47.0975
" />
<path d="M26.8907 47.0975
L26.6488 47.0975
" />
<path d="M26.6488 47.0975
L26.5278 47.1579
" />
<path d="M27.0721 47.8837
L26.9512 47.9441
" />
<path d="M26.9512 47.9441
L26.6488 47.9441
" />
<path d="M26.6488 47.9441
L26.5278 47.8837
" />
<path d="M26.5278 47.8837
L26.4674 47.7627
" />
<path d="M26.4674 47.7627
L26.4674 47.6417
" />
<path d="M26.4674 47.6417
L26.5278 47.5208
" />
<path d="M26.5278 47.5208
L26.6488 47.4603
" />
<path d="M26.6488 47.4603
L26.9512 47.4603
" />
<path d="M26.9512 47.4603
L27.0721 47.3998
" />
</g><path d="M32.5755 48.3616
L36.3855 48.3616
" />
<text x="34.4805" y="48.1076"
textLength="3.7712" font-size="1.6933" lengthAdjust="spacingAndGlyphs"
text-anchor="middle" opacity="0">16b</text>
<g class="stroked-text"><desc>16b</desc>
<path d="M33.6641 47.9441
L32.9384 47.9441
" />
<path d="M33.3012 47.9441
L33.3012 46.6741
" />
<path d="M33.3012 46.6741
L33.1803 46.8556
" />
<path d="M33.1803 46.8556
L33.0593 46.9765
" />
<path d="M33.0593 46.9765
L32.9384 47.0370
" />
<path d="M34.7526 46.6741
L34.5107 46.6741
" />
<path d="M34.5107 46.6741
L34.3898 46.7346
" />
<path d="M34.3898 46.7346
L34.3293 46.7951
" />
<path d="M34.3293 46.7951
L34.2083 46.9765
" />
<path d="M34.2083 46.9765
L34.1479 47.2184
" />
<path d="M34.1479 47.2184
L34.1479 47.7022
" />
<path d="M34.1479 47.7022
L34.2083 47.8232
" />
<path d="M34.2083 47.8232
L34.2688 47.8837
" />
<path d="M34.2688 47.8837
L34.3898 47.9441
" />
<path d="M34.3898 47.9441
L34.6317 47.9441
" />
<path d="M34.6317 47.9441
L34.7526 47.8837
" />
<path d="M34.7526 47.8837
L34.8131 47.8232
" />
<path d="M34.8131 47.8232
L34.8736 47.7022
" />
<path d="M34.8736 47.7022
L34.8736 47.3998
" />
<path d="M34.8736 47.3998
L34.8131 47.2789
" />
<path d="M34.8131 47.2789
L34.7526 47.2184
" />
<path d="M34.7526 47.2184
L34.6317 47.1579
" />
<path d="M34.6317 47.1579
L34.3898 47.1579
" />
<path d="M34.3898 47.1579
L34.2688 47.2184
" />
<path d="M34.2688 47.2184
L34.2083 47.2789
" />
<path d="M34.2083 47.2789
L34.1479 47.3998
" />
<path d="M35.4178 47.9441
L35.4178 46.6741
" />
<path d="M35.4178 47.1579
L35.5388 47.0975
" />
<path d="M35.5388 47.0975
L35.7807 47.0975
" />
<path d="M35.7807 47.0975
L35.9016 47.1579
" />
<path d="M35.9016 47.1579
L35.9621 47.2184
" />
<path d="M35.9621 47.2184
L36.0226 47.3394
" />
<path d="M36.0226 47.3394
L36.0226 47.7022
" />
<path d="M36.0226 47.7022
L35.9621 47.8232
" />
<path d="M35.9621 47.8232
L35.9016 47.8837
" />
<path d="M35.9016 47.8837
L35.7807 47.9441
" />
<path d="M35.7807 47.9441
L35.5388 47.9441
" />
<path d="M35.5388 47.9441
L35.4178 47.8837
" />
</g><path d="M27.4955 50.9016
L23.6855 50.9016
" />
<text x="25.5905" y="50.6476"
textLength="3.7712" font-size="1.6933" lengthAdjust="spacingAndGlyphs"
text-anchor="middle" opacity="0">17a</text>
<g class="stroked-text"><desc>17a</desc>
<path d="M24.7741 50.4841
L24.0484 50.4841
" />
<path d="M24.4112 50.4841
L24.4112 49.2141
" />
<path d="M24.4112 49.2141
L24.2903 49.3956
" />
<path d="M24.2903 49.3956
L24.1693 49.5165
" />
<path d="M24.1693 49.5165
L24.0484 49.5770
" />
<path d="M25.1974 49.2141
L26.0440 49.2141
" />
<path d="M26.0440 49.2141
L25.4998 50.4841
" />
<path d="M27.0721 50.4841
L27.0721 49.8189
" />
<path d="M27.0721 49.8189
L27.0116 49.6979
" />
<path d="M27.0116 49.6979
L26.8907 49.6375
" />
<path d="M26.8907 49.6375
L26.6488 49.6375
" />
<path d="M26.6488 49.6375
L26.5278 49.6979
" />
<path d="M27.0721 50.4237
L26.9512 50.4841
" />
<path d="M26.9512 50.4841
L26.6488 50.4841
" />
<path d="M26.6488 50.4841
L26.5278 50.4237
" />
<path d="M26.5278 50.4237
L26.4674 50.3027
" />
<path d="M26.4674 50.3027
L26.4674 50.1817
" />
<path d="M26.4674 50.1817
L26.5278 50.0608
" />
<path d="M26.5278 50.0608
L26.6488 50.0003
" />
<path d="M26.6488 50.0003
L26.9512 50.0003
" />
<path d="M26.9512 50.0003
L27.0721 49.9398
" />
</g><path d="M32.5755 50.9016
L36.3855 50.9016
" />
<text x="34.4805" y="50.6476"
textLength="3.7712" font-size="1.6933" lengthAdjust="spacingAndGlyphs"
text-anchor="middle" opacity="0">17b</text>
<g class="stroked-text"><desc>17b</desc>
<path d="M33.6641 50.4841
L32.9384 50.4841
" />
<path d="M33.3012 50.4841
L33.3012 49.2141
" />
<path d="M33.3012 49.2141
L33.1803 49.3956
" />
<path d="M33.1803 49.3956
L33.0593 49.5165
" />
<path d="M33.0593 49.5165
L32.9384 49.5770
" />
<path d="M34.0874 49.2141
L34.9340 49.2141
" />
<path d="M34.9340 49.2141
L34.3898 50.4841
" />
<path d="M35.4178 50.4841
L35.4178 49.2141
" />
<path d="M35.4178 49.6979
L35.5388 49.6375
" />
<path d="M35.5388 49.6375
L35.7807 49.6375
" />
<path d="M35.7807 49.6375
L35.9016 49.6979
" />
<path d="M35.9016 49.6979
L35.9621 49.7584
" />
<path d="M35.9621 49.7584
L36.0226 49.8794
" />
<path d="M36.0226 49.8794
L36.0226 50.2422
" />
<path d="M36.0226 50.2422
L35.9621 50.3632
" />
<path d="M35.9621 50.3632
L35.9016 50.4237
" />
<path d="M35.9016 50.4237
L35.7807 50.4841
" />
<path d="M35.7807 50.4841
L35.5388 50.4841
" />
<path d="M35.5388 50.4841
L35.4178 50.4237
" />
</g><path d="M27.4955 53.4416
L23.6855 53.4416
" />
<text x="25.5905" y="53.1876"
textLength="3.7712" font-size="1.6933" lengthAdjust="spacingAndGlyphs"
text-anchor="middle" opacity="0">18a</text>
<g class="stroked-text"><desc>18a</desc>
<path d="M24.7741 53.0241
L24.0484 53.0241
" />
<path d="M24.4112 53.0241
L24.4112 51.7541
" />
<path d="M24.4112 51.7541
L24.2903 51.9356
" />
<path d="M24.2903 51.9356
L24.1693 52.0565
" />
<path d="M24.1693 52.0565
L24.0484 52.1170
" />
<path d="M25.4998 52.2984
L25.3788 52.2379
" />
<path d="M25.3788 52.2379
L25.3183 52.1775
" />
<path d="M25.3183 52.1775
L25.2579 52.0565
" />
<path d="M25.2579 52.0565
L25.2579 51.9960
" />
<path d="M25.2579 51.9960
L25.3183 51.8751
" />
<path d="M25.3183 51.8751
L25.3788 51.8146
" />
<path d="M25.3788 51.8146
L25.4998 51.7541
" />
<path d="M25.4998 51.7541
L25.7417 51.7541
" />
<path d="M25.7417 51.7541
L25.8626 51.8146
" />
<path d="M25.8626 51.8146
L25.9231 51.8751
" />
<path d="M25.9231 51.8751
L25.9836 51.9960
" />
<path d="M25.9836 51.9960
L25.9836 52.0565
" />
<path d="M25.9836 52.0565
L25.9231 52.1775
" />
<path d="M25.9231 52.1775
L25.8626 52.2379
" />
<path d="M25.8626 52.2379
L25.7417 52.2984
" />
<path d="M25.7417 52.2984
L25.4998 52.2984
" />
<path d="M25.4998 52.2984
L25.3788 52.3589
" />
<path d="M25.3788 52.3589
L25.3183 52.4194
" />
<path d="M25.3183 52.4194
L25.2579 52.5403
" />
<path d="M25.2579 52.5403
L25.2579 52.7822
" />
<path d="M25.2579 52.7822
L25.3183 52.9032
" />
<path d="M25.3183 52.9032
L25.3788 52.9637
" />
<path d="M25.3788 52.9637
L25.4998 53.0241
" />
<path d="M25.4998 53.0241
L25.7417 53.0241
" />
<path d="M25.7417 53.0241
L25.8626 52.9637
" />
<path d="M25.8626 52.9637
L25.9231 52.9032
" />
<path d="M25.9231 52.9032
L25.9836 52.7822
" />
<path d="M25.9836 52.7822
L25.9836 52.5403
" />
<path d="M25.9836 52.5403
L25.9231 52.4194
" />
<path d="M25.9231 52.4194
L25.8626 52.3589
" />
<path d="M25.8626 52.3589
L25.7417 52.2984
" />
<path d="M27.0721 53.0241
L27.0721 52.3589
" />
<path d="M27.0721 52.3589
L27.0116 52.2379
" />
<path d="M27.0116 52.2379
L26.8907 52.1775
" />
<path d="M26.8907 52.1775
L26.6488 52.1775
" />
<path d="M26.6488 52.1775
L26.5278 52.2379
" />
<path d="M27.0721 52.9637
L26.9512 53.0241
" />
<path d="M26.9512 53.0241
L26.6488 53.0241
" />
<path d="M26.6488 53.0241
L26.5278 52.9637
" />
<path d="M26.5278 52.9637
L26.4674 52.8427
" />
<path d="M26.4674 52.8427
L26.4674 52.7217
" />
<path d="M26.4674 52.7217
L26.5278 52.6008
" />
<path d="M26.5278 52.6008
L26.6488 52.5403
" />
<path d="M26.6488 52.5403
L26.9512 52.5403
" />
<path d="M26.9512 52.5403
L27.0721 52.4798
" />
</g><path d="M32.5755 53.4416
L36.3855 53.4416
" />
<text x="34.4805" y="53.1876"
textLength="3.7712" font-size="1.6933" lengthAdjust="spacingAndGlyphs"
text-anchor="middle" opacity="0">18b</text>
<g class="stroked-text"><desc>18b</desc>
<path d="M33.6641 53.0241
L32.9384 53.0241
" />
<path d="M33.3012 53.0241
L33.3012 51.7541
" />
<path d="M33.3012 51.7541
L33.1803 51.9356
" />
<path d="M33.1803 51.9356
L33.0593 52.0565
" />
<path d="M33.0593 52.0565
L32.9384 52.1170
" />
<path d="M34.3898 52.2984
L34.2688 52.2379
" />
<path d="M34.2688 52.2379
L34.2083 52.1775
" />
<path d="M34.2083 52.1775
L34.1479 52.0565
" />
<path d="M34.1479 52.0565
L34.1479 51.9960
" />
<path d="M34.1479 51.9960
L34.2083 51.8751
" />
<path d="M34.2083 51.8751
L34.2688 51.8146
" />
<path d="M34.2688 51.8146
L34.3898 51.7541
" />
<path d="M34.3898 51.7541
L34.6317 51.7541
" />
<path d="M34.6317 51.7541
L34.7526 51.8146
" />
<path d="M34.7526 51.8146
L34.8131 51.8751
" />
<path d="M34.8131 51.8751
L34.8736 51.9960
" />
<path d="M34.8736 51.9960
L34.8736 52.0565
" />
<path d="M34.8736 52.0565
L34.8131 52.1775
" />
<path d="M34.8131 52.1775
L34.7526 52.2379
" />
<path d="M34.7526 52.2379
L34.6317 52.2984
" />
<path d="M34.6317 52.2984
L34.3898 52.2984
" />
<path d="M34.3898 52.2984
L34.2688 52.3589
" />
<path d="M34.2688 52.3589
L34.2083 52.4194
" />
<path d="M34.2083 52.4194
L34.1479 52.5403
" />
<path d="M34.1479 52.5403
L34.1479 52.7822
" />
<path d="M34.1479 52.7822
L34.2083 52.9032
" />
<path d="M34.2083 52.9032
L34.2688 52.9637
" />
<path d="M34.2688 52.9637
L34.3898 53.0241
" />
<path d="M34.3898 53.0241
L34.6317 53.0241
" />
<path d="M34.6317 53.0241
L34.7526 52.9637
" />
<path d="M34.7526 52.9637
L34.8131 52.9032
" />
<path d="M34.8131 52.9032
L34.8736 52.7822
" />
<path d="M34.8736 52.7822
L34.8736 52.5403
" />
<path d="M34.8736 52.5403
L34.8131 52.4194
" />
<path d="M34.8131 52.4194
L34.7526 52.3589
" />
<path d="M34.7526 52.3589
L34.6317 52.2984
" />
<path d="M35.4178 53.0241
L35.4178 51.7541
" />
<path d="M35.4178 52.2379
L35.5388 52.1775
" />
<path d="M35.5388 52.1775
L35.7807 52.1775
" />
<path d="M35.7807 52.1775
L35.9016 52.2379
" />
<path d="M35.9016 52.2379
L35.9621 52.2984
" />
<path d="M35.9621 52.2984
L36.0226 52.4194
" />
<path d="M36.0226 52.4194
L36.0226 52.7822
" />
<path d="M36.0226 52.7822
L35.9621 52.9032
" />
<path d="M35.9621 52.9032
L35.9016 52.9637
" />
<path d="M35.9016 52.9637
L35.7807 53.0241
" />
<path d="M35.7807 53.0241
L35.5388 53.0241
" />
<path d="M35.5388 53.0241
L35.4178 52.9637
" />
</g><path d="M27.4955 55.9816
L23.6855 55.9816
" />
<text x="25.5905" y="55.7276"
textLength="3.7712" font-size="1.6933" lengthAdjust="spacingAndGlyphs"
text-anchor="middle" opacity="0">19a</text>
<g class="stroked-text"><desc>19a</desc>
<path d="M24.7741 55.5641
L24.0484 55.5641
" />
<path d="M24.4112 55.5641
L24.4112 54.2941
" />
<path d="M24.4112 54.2941
L24.2903 54.4756
" />
<path d="M24.2903 54.4756
L24.1693 54.5965
" />
<path d="M24.1693 54.5965
L24.0484 54.6570
" />
<path d="M25.3788 55.5641
L25.6207 55.5641
" />
<path d="M25.6207 55.5641
L25.7417 55.5037
" />
<path d="M25.7417 55.5037
L25.8021 55.4432
" />
<path d="M25.8021 55.4432
L25.9231 55.2617
" />
<path d="M25.9231 55.2617
L25.9836 55.0198
" />
<path d="M25.9836 55.0198
L25.9836 54.5360
" />
<path d="M25.9836 54.5360
L25.9231 54.4151
" />
<path d="M25.9231 54.4151
L25.8626 54.3546
" />
<path d="M25.8626 54.3546
L25.7417 54.2941
" />
<path d="M25.7417 54.2941
L25.4998 54.2941
" />
<path d="M25.4998 54.2941
L25.3788 54.3546
" />
<path d="M25.3788 54.3546
L25.3183 54.4151
" />
<path d="M25.3183 54.4151
L25.2579 54.5360
" />
<path d="M25.2579 54.5360
L25.2579 54.8384
" />
<path d="M25.2579 54.8384
L25.3183 54.9594
" />
<path d="M25.3183 54.9594
L25.3788 55.0198
" />
<path d="M25.3788 55.0198
L25.4998 55.0803
" />
<path d="M25.4998 55.0803
L25.7417 55.0803
" />
<path d="M25.7417 55.0803
L25.8626 55.0198
" />
<path d="M25.8626 55.0198
L25.9231 54.9594
" />
<path d="M25.9231 54.9594
L25.9836 54.8384
" />
<path d="M27.0721 55.5641
L27.0721 54.8989
" />
<path d="M27.0721 54.8989
L27.0116 54.7779
" />
<path d="M27.0116 54.7779
L26.8907 54.7175
" />
<path d="M26.8907 54.7175
L26.6488 54.7175
" />
<path d="M26.6488 54.7175
L26.5278 54.7779
" />
<path d="M27.0721 55.5037
L26.9512 55.5641
" />
<path d="M26.9512 55.5641
L26.6488 55.5641
" />
<path d="M26.6488 55.5641
L26.5278 55.5037
" />
<path d="M26.5278 55.5037
L26.4674 55.3827
" />
<path d="M26.4674 55.3827
L26.4674 55.2617
" />
<path d="M26.4674 55.2617
L26.5278 55.1408
" />
<path d="M26.5278 55.1408
L26.6488 55.0803
" />
<path d="M26.6488 55.0803
L26.9512 55.0803
" />
<path d="M26.9512 55.0803
L27.0721 55.0198
" />
</g><path d="M32.5755 55.9816
L36.3855 55.9816
" />
<text x="34.4805" y="55.7276"
textLength="3.7712" font-size="1.6933" lengthAdjust="spacingAndGlyphs"
text-anchor="middle" opacity="0">19b</text>
<g class="stroked-text"><desc>19b</desc>
<path d="M33.6641 55.5641
L32.9384 55.5641
" />
<path d="M33.3012 55.5641
L33.3012 54.2941
" />
<path d="M33.3012 54.2941
L33.1803 54.4756
" />
<path d="M33.1803 54.4756
L33.0593 54.5965
" />
<path d="M33.0593 54.5965
L32.9384 54.6570
" />
<path d="M34.2688 55.5641
L34.5107 55.5641
" />
<path d="M34.5107 55.5641
L34.6317 55.5037
" />
<path d="M34.6317 55.5037
L34.6921 55.4432
" />
<path d="M34.6921 55.4432
L34.8131 55.2617
" />
<path d="M34.8131 55.2617
L34.8736 55.0198
" />
<path d="M34.8736 55.0198
L34.8736 54.5360
" />
<path d="M34.8736 54.5360
L34.8131 54.4151
" />
<path d="M34.8131 54.4151
L34.7526 54.3546
" />
<path d="M34.7526 54.3546
L34.6317 54.2941
" />
<path d="M34.6317 54.2941
L34.3898 54.2941
" />
<path d="M34.3898 54.2941
L34.2688 54.3546
" />
<path d="M34.2688 54.3546
L34.2083 54.4151
" />
<path d="M34.2083 54.4151
L34.1479 54.5360
" />
<path d="M34.1479 54.5360
L34.1479 54.8384
" />
<path d="M34.1479 54.8384
L34.2083 54.9594
" />
<path d="M34.2083 54.9594
L34.2688 55.0198
" />
<path d="M34.2688 55.0198
L34.3898 55.0803
" />
<path d="M34.3898 55.0803
L34.6317 55.0803
" />
<path d="M34.6317 55.0803
L34.7526 55.0198
" />
<path d="M34.7526 55.0198
L34.8131 54.9594
" />
<path d="M34.8131 54.9594
L34.8736 54.8384
" />
<path d="M35.4178 55.5641
L35.4178 54.2941
" />
<path d="M35.4178 54.7779
L35.5388 54.7175
" />
<path d="M35.5388 54.7175
L35.7807 54.7175
" />
<path d="M35.7807 54.7175
L35.9016 54.7779
" />
<path d="M35.9016 54.7779
L35.9621 54.8384
" />
<path d="M35.9621 54.8384
L36.0226 54.9594
" />
<path d="M36.0226 54.9594
L36.0226 55.3222
" />
<path d="M36.0226 55.3222
L35.9621 55.4432
" />
<path d="M35.9621 55.4432
L35.9016 55.5037
" />
<path d="M35.9016 55.5037
L35.7807 55.5641
" />
<path d="M35.7807 55.5641
L35.5388 55.5641
" />
<path d="M35.5388 55.5641
L35.4178 55.5037
" />
</g><path d="M27.4955 10.2616
L23.6855 10.2616
" />
<text x="25.5905" y="10.0076"
textLength="2.5617" font-size="1.6933" lengthAdjust="spacingAndGlyphs"
text-anchor="middle" opacity="0">1a</text>
<g class="stroked-text"><desc>1a</desc>
<path d="M25.3789 9.8441
L24.6532 9.8441
" />
<path d="M25.0160 9.8441
L25.0160 8.5741
" />
<path d="M25.0160 8.5741
L24.8951 8.7556
" />
<path d="M24.8951 8.7556
L24.7741 8.8765
" />
<path d="M24.7741 8.8765
L24.6532 8.9370
" />
<path d="M26.4674 9.8441
L26.4674 9.1789
" />
<path d="M26.4674 9.1789
L26.4069 9.0579
" />
<path d="M26.4069 9.0579
L26.2860 8.9975
" />
<path d="M26.2860 8.9975
L26.0441 8.9975
" />
<path d="M26.0441 8.9975
L25.9231 9.0579
" />
<path d="M26.4674 9.7837
L26.3465 9.8441
" />
<path d="M26.3465 9.8441
L26.0441 9.8441
" />
<path d="M26.0441 9.8441
L25.9231 9.7837
" />
<path d="M25.9231 9.7837
L25.8627 9.6627
" />
<path d="M25.8627 9.6627
L25.8627 9.5417
" />
<path d="M25.8627 9.5417
L25.9231 9.4208
" />
<path d="M25.9231 9.4208
L26.0441 9.3603
" />
<path d="M26.0441 9.3603
L26.3465 9.3603
" />
<path d="M26.3465 9.3603
L26.4674 9.2998
" />
</g><path d="M32.5755 10.2616
L36.3855 10.2616
" />
<text x="34.4805" y="10.0076"
textLength="2.5617" font-size="1.6933" lengthAdjust="spacingAndGlyphs"
text-anchor="middle" opacity="0">1b</text>
<g class="stroked-text"><desc>1b</desc>
<path d="M34.2689 9.8441
L33.5432 9.8441
" />
<path d="M33.9060 9.8441
L33.9060 8.5741
" />
<path d="M33.9060 8.5741
L33.7851 8.7556
" />
<path d="M33.7851 8.7556
L33.6641 8.8765
" />
<path d="M33.6641 8.8765
L33.5432 8.9370
" />
<path d="M34.8131 9.8441
L34.8131 8.5741
" />
<path d="M34.8131 9.0579
L34.9341 8.9975
" />
<path d="M34.9341 8.9975
L35.1760 8.9975
" />
<path d="M35.1760 8.9975
L35.2969 9.0579
" />
<path d="M35.2969 9.0579
L35.3574 9.1184
" />
<path d="M35.3574 9.1184
L35.4179 9.2394
" />
<path d="M35.4179 9.2394
L35.4179 9.6022
" />
<path d="M35.4179 9.6022
L35.3574 9.7232
" />
<path d="M35.3574 9.7232
L35.2969 9.7837
" />
<path d="M35.2969 9.7837
L35.1760 9.8441
" />
<path d="M35.1760 9.8441
L34.9341 9.8441
" />
<path d="M34.9341 9.8441
L34.8131 9.7837
" />
</g><path d="M27.4955 58.5216
L23.6855 58.5216
" />
<text x="25.5905" y="58.2676"
textLength="3.7712" font-size="1.6933" lengthAdjust="spacingAndGlyphs"
text-anchor="middle" opacity="0">20a</text>
<g class="stroked-text"><desc>20a</desc>
<path d="M24.0484 56.9551
L24.1088 56.8946
" />
<path d="M24.1088 56.8946
L24.2298 56.8341
" />
<path d="M24.2298 56.8341
L24.5322 56.8341
" />
<path d="M24.5322 56.8341
L24.6531 56.8946
" />
<path d="M24.6531 56.8946
L24.7136 56.9551
" />
<path d="M24.7136 56.9551
L24.7741 57.0760
" />
<path d="M24.7741 57.0760
L24.7741 57.1970
" />
<path d="M24.7741 57.1970
L24.7136 57.3784
" />
<path d="M24.7136 57.3784
L23.9879 58.1041
" />
<path d="M23.9879 58.1041
L24.7741 58.1041
" />
<path d="M25.5602 56.8341
L25.6812 56.8341
" />
<path d="M25.6812 56.8341
L25.8021 56.8946
" />
<path d="M25.8021 56.8946
L25.8626 56.9551
" />
<path d="M25.8626 56.9551
L25.9231 57.0760
" />
<path d="M25.9231 57.0760
L25.9836 57.3179
" />
<path d="M25.9836 57.3179
L25.9836 57.6203
" />
<path d="M25.9836 57.6203
L25.9231 57.8622
" />
<path d="M25.9231 57.8622
L25.8626 57.9832
" />
<path d="M25.8626 57.9832
L25.8021 58.0437
" />
<path d="M25.8021 58.0437
L25.6812 58.1041
" />
<path d="M25.6812 58.1041
L25.5602 58.1041
" />
<path d="M25.5602 58.1041
L25.4393 58.0437
" />
<path d="M25.4393 58.0437
L25.3788 57.9832
" />
<path d="M25.3788 57.9832
L25.3183 57.8622
" />
<path d="M25.3183 57.8622
L25.2579 57.6203
" />
<path d="M25.2579 57.6203
L25.2579 57.3179
" />
<path d="M25.2579 57.3179
L25.3183 57.0760
" />
<path d="M25.3183 57.0760
L25.3788 56.9551
" />
<path d="M25.3788 56.9551
L25.4393 56.8946
" />
<path d="M25.4393 56.8946
L25.5602 56.8341
" />
<path d="M27.0721 58.1041
L27.0721 57.4389
" />
<path d="M27.0721 57.4389
L27.0116 57.3179
" />
<path d="M27.0116 57.3179
L26.8907 57.2575
" />
<path d="M26.8907 57.2575
L26.6488 57.2575
" />
<path d="M26.6488 57.2575
L26.5278 57.3179
" />
<path d="M27.0721 58.0437
L26.9512 58.1041
" />
<path d="M26.9512 58.1041
L26.6488 58.1041
" />
<path d="M26.6488 58.1041
L26.5278 58.0437
" />
<path d="M26.5278 58.0437
L26.4674 57.9227
" />
<path d="M26.4674 57.9227
L26.4674 57.8017
" />
<path d="M26.4674 57.8017
L26.5278 57.6808
" />
<path d="M26.5278 57.6808
L26.6488 57.6203
" />
<path d="M26.6488 57.6203
L26.9512 57.6203
" />
<path d="M26.9512 57.6203
L27.0721 57.5598
" />
</g><path d="M32.5755 58.5216
L36.3855 58.5216
" />
<text x="34.4805" y="58.2676"
textLength="3.7712" font-size="1.6933" lengthAdjust="spacingAndGlyphs"
text-anchor="middle" opacity="0">20b</text>
<g class="stroked-text"><desc>20b</desc>
<path d="M32.9384 56.9551
L32.9988 56.8946
" />
<path d="M32.9988 56.8946
L33.1198 56.8341
" />
<path d="M33.1198 56.8341
L33.4222 56.8341
" />
<path d="M33.4222 56.8341
L33.5431 56.8946
" />
<path d="M33.5431 56.8946
L33.6036 56.9551
" />
<path d="M33.6036 56.9551
L33.6641 57.0760
" />
<path d="M33.6641 57.0760
L33.6641 57.1970
" />
<path d="M33.6641 57.1970
L33.6036 57.3784
" />
<path d="M33.6036 57.3784
L32.8779 58.1041
" />
<path d="M32.8779 58.1041
L33.6641 58.1041
" />
<path d="M34.4502 56.8341
L34.5712 56.8341
" />
<path d="M34.5712 56.8341
L34.6921 56.8946
" />
<path d="M34.6921 56.8946
L34.7526 56.9551
" />
<path d="M34.7526 56.9551
L34.8131 57.0760
" />
<path d="M34.8131 57.0760
L34.8736 57.3179
" />
<path d="M34.8736 57.3179
L34.8736 57.6203
" />
<path d="M34.8736 57.6203
L34.8131 57.8622
" />
<path d="M34.8131 57.8622
L34.7526 57.9832
" />
<path d="M34.7526 57.9832
L34.6921 58.0437
" />
<path d="M34.6921 58.0437
L34.5712 58.1041
" />
<path d="M34.5712 58.1041
L34.4502 58.1041
" />
<path d="M34.4502 58.1041
L34.3293 58.0437
" />
<path d="M34.3293 58.0437
L34.2688 57.9832
" />
<path d="M34.2688 57.9832
L34.2083 57.8622
" />
<path d="M34.2083 57.8622
L34.1479 57.6203
" />
<path d="M34.1479 57.6203
L34.1479 57.3179
" />
<path d="M34.1479 57.3179
L34.2083 57.0760
" />
<path d="M34.2083 57.0760
L34.2688 56.9551
" />
<path d="M34.2688 56.9551
L34.3293 56.8946
" />
<path d="M34.3293 56.8946
L34.4502 56.8341
" />
<path d="M35.4178 58.1041
L35.4178 56.8341
" />
<path d="M35.4178 57.3179
L35.5388 57.2575
" />
<path d="M35.5388 57.2575
L35.7807 57.2575
" />
<path d="M35.7807 57.2575
L35.9016 57.3179
" />
<path d="M35.9016 57.3179
L35.9621 57.3784
" />
<path d="M35.9621 57.3784
L36.0226 57.4994
" />
<path d="M36.0226 57.4994
L36.0226 57.8622
" />
<path d="M36.0226 57.8622
L35.9621 57.9832
" />
<path d="M35.9621 57.9832
L35.9016 58.0437
" />
<path d="M35.9016 58.0437
L35.7807 58.1041
" />
<path d="M35.7807 58.1041
L35.5388 58.1041
" />
<path d="M35.5388 58.1041
L35.4178 58.0437
" />
</g><path d="M27.4955 61.0616
L23.6855 61.0616
" />
<text x="25.5905" y="60.8076"
textLength="3.7712" font-size="1.6933" lengthAdjust="spacingAndGlyphs"
text-anchor="middle" opacity="0">21a</text>
<g class="stroked-text"><desc>21a</desc>
<path d="M24.0484 59.4951
L24.1088 59.4346
" />
<path d="M24.1088 59.4346
L24.2298 59.3741
" />
<path d="M24.2298 59.3741
L24.5322 59.3741
" />
<path d="M24.5322 59.3741
L24.6531 59.4346
" />
<path d="M24.6531 59.4346
L24.7136 59.4951
" />
<path d="M24.7136 59.4951
L24.7741 59.6160
" />
<path d="M24.7741 59.6160
L24.7741 59.7370
" />
<path d="M24.7741 59.7370
L24.7136 59.9184
" />
<path d="M24.7136 59.9184
L23.9879 60.6441
" />
<path d="M23.9879 60.6441
L24.7741 60.6441
" />
<path d="M25.9836 60.6441
L25.2579 60.6441
" />
<path d="M25.6207 60.6441
L25.6207 59.3741
" />
<path d="M25.6207 59.3741
L25.4998 59.5556
" />
<path d="M25.4998 59.5556
L25.3788 59.6765
" />
<path d="M25.3788 59.6765
L25.2579 59.7370
" />
<path d="M27.0721 60.6441
L27.0721 59.9789
" />
<path d="M27.0721 59.9789
L27.0116 59.8579
" />
<path d="M27.0116 59.8579
L26.8907 59.7975
" />
<path d="M26.8907 59.7975
L26.6488 59.7975
" />
<path d="M26.6488 59.7975
L26.5278 59.8579
" />
<path d="M27.0721 60.5837
L26.9512 60.6441
" />
<path d="M26.9512 60.6441
L26.6488 60.6441
" />
<path d="M26.6488 60.6441
L26.5278 60.5837
" />
<path d="M26.5278 60.5837
L26.4674 60.4627
" />
<path d="M26.4674 60.4627
L26.4674 60.3417
" />
<path d="M26.4674 60.3417
L26.5278 60.2208
" />
<path d="M26.5278 60.2208
L26.6488 60.1603
" />
<path d="M26.6488 60.1603
L26.9512 60.1603
" />
<path d="M26.9512 60.1603
L27.0721 60.0998
" />
</g><path d="M32.5755 61.0616
L36.3855 61.0616
" />
<text x="34.4805" y="60.8076"
textLength="3.7712" font-size="1.6933" lengthAdjust="spacingAndGlyphs"
text-anchor="middle" opacity="0">21b</text>
<g class="stroked-text"><desc>21b</desc>
<path d="M32.9384 59.4951
L32.9988 59.4346
" />
<path d="M32.9988 59.4346
L33.1198 59.3741
" />
<path d="M33.1198 59.3741
L33.4222 59.3741
" />
<path d="M33.4222 59.3741
L33.5431 59.4346
" />
<path d="M33.5431 59.4346
L33.6036 59.4951
" />
<path d="M33.6036 59.4951
L33.6641 59.6160
" />
<path d="M33.6641 59.6160
L33.6641 59.7370
" />
<path d="M33.6641 59.7370
L33.6036 59.9184
" />
<path d="M33.6036 59.9184
L32.8779 60.6441
" />
<path d="M32.8779 60.6441
L33.6641 60.6441
" />
<path d="M34.8736 60.6441
L34.1479 60.6441
" />
<path d="M34.5107 60.6441
L34.5107 59.3741
" />
<path d="M34.5107 59.3741
L34.3898 59.5556
" />
<path d="M34.3898 59.5556
L34.2688 59.6765
" />
<path d="M34.2688 59.6765
L34.1479 59.7370
" />
<path d="M35.4178 60.6441
L35.4178 59.3741
" />
<path d="M35.4178 59.8579
L35.5388 59.7975
" />
<path d="M35.5388 59.7975
L35.7807 59.7975
" />
<path d="M35.7807 59.7975
L35.9016 59.8579
" />
<path d="M35.9016 59.8579
L35.9621 59.9184
" />
<path d="M35.9621 59.9184
L36.0226 60.0394
" />
<path d="M36.0226 60.0394
L36.0226 60.4022
" />
<path d="M36.0226 60.4022
L35.9621 60.5232
" />
<path d="M35.9621 60.5232
L35.9016 60.5837
" />
<path d="M35.9016 60.5837
L35.7807 60.6441
" />
<path d="M35.7807 60.6441
L35.5388 60.6441
" />
<path d="M35.5388 60.6441
L35.4178 60.5837
" />
</g><path d="M27.4955 12.8016
L23.6855 12.8016
" />
<text x="25.5905" y="12.5476"
textLength="2.5617" font-size="1.6933" lengthAdjust="spacingAndGlyphs"
text-anchor="middle" opacity="0">2a</text>
<g class="stroked-text"><desc>2a</desc>
<path d="M24.6532 11.2351
L24.7136 11.1746
" />
<path d="M24.7136 11.1746
L24.8346 11.1141
" />
<path d="M24.8346 11.1141
L25.1370 11.1141
" />
<path d="M25.1370 11.1141
L25.2579 11.1746
" />
<path d="M25.2579 11.1746
L25.3184 11.2351
" />
<path d="M25.3184 11.2351
L25.3789 11.3560
" />
<path d="M25.3789 11.3560
L25.3789 11.4770
" />
<path d="M25.3789 11.4770
L25.3184 11.6584
" />
<path d="M25.3184 11.6584
L24.5927 12.3841
" />
<path d="M24.5927 12.3841
L25.3789 12.3841
" />
<path d="M26.4674 12.3841
L26.4674 11.7189
" />
<path d="M26.4674 11.7189
L26.4069 11.5979
" />
<path d="M26.4069 11.5979
L26.2860 11.5375
" />
<path d="M26.2860 11.5375
L26.0441 11.5375
" />
<path d="M26.0441 11.5375
L25.9231 11.5979
" />
<path d="M26.4674 12.3237
L26.3465 12.3841
" />
<path d="M26.3465 12.3841
L26.0441 12.3841
" />
<path d="M26.0441 12.3841
L25.9231 12.3237
" />
<path d="M25.9231 12.3237
L25.8627 12.2027
" />
<path d="M25.8627 12.2027
L25.8627 12.0817
" />
<path d="M25.8627 12.0817
L25.9231 11.9608
" />
<path d="M25.9231 11.9608
L26.0441 11.9003
" />
<path d="M26.0441 11.9003
L26.3465 11.9003
" />
<path d="M26.3465 11.9003
L26.4674 11.8398
" />
</g><path d="M32.5755 12.8016
L36.3855 12.8016
" />
<text x="34.4805" y="12.5476"
textLength="2.5617" font-size="1.6933" lengthAdjust="spacingAndGlyphs"
text-anchor="middle" opacity="0">2b</text>
<g class="stroked-text"><desc>2b</desc>
<path d="M33.5432 11.2351
L33.6036 11.1746
" />
<path d="M33.6036 11.1746
L33.7246 11.1141
" />
<path d="M33.7246 11.1141
L34.0270 11.1141
" />
<path d="M34.0270 11.1141
L34.1479 11.1746
" />
<path d="M34.1479 11.1746
L34.2084 11.2351
" />
<path d="M34.2084 11.2351
L34.2689 11.3560
" />
<path d="M34.2689 11.3560
L34.2689 11.4770
" />
<path d="M34.2689 11.4770
L34.2084 11.6584
" />
<path d="M34.2084 11.6584
L33.4827 12.3841
" />
<path d="M33.4827 12.3841
L34.2689 12.3841
" />
<path d="M34.8131 12.3841
L34.8131 11.1141
" />
<path d="M34.8131 11.5979
L34.9341 11.5375
" />
<path d="M34.9341 11.5375
L35.1760 11.5375
" />
<path d="M35.1760 11.5375
L35.2969 11.5979
" />
<path d="M35.2969 11.5979
L35.3574 11.6584
" />
<path d="M35.3574 11.6584
L35.4179 11.7794
" />
<path d="M35.4179 11.7794
L35.4179 12.1422
" />
<path d="M35.4179 12.1422
L35.3574 12.2632
" />
<path d="M35.3574 12.2632
L35.2969 12.3237
" />
<path d="M35.2969 12.3237
L35.1760 12.3841
" />
<path d="M35.1760 12.3841
L34.9341 12.3841
" />
<path d="M34.9341 12.3841
L34.8131 12.3237
" />
</g><path d="M27.4955 15.3416
L23.6855 15.3416
" />
<text x="25.5905" y="15.0876"
textLength="2.5617" font-size="1.6933" lengthAdjust="spacingAndGlyphs"
text-anchor="middle" opacity="0">3a</text>
<g class="stroked-text"><desc>3a</desc>
<path d="M24.5927 13.6541
L25.3789 13.6541
" />
<path d="M25.3789 13.6541
L24.9555 14.1379
" />
<path d="M24.9555 14.1379
L25.1370 14.1379
" />
<path d="M25.1370 14.1379
L25.2579 14.1984
" />
<path d="M25.2579 14.1984
L25.3184 14.2589
" />
<path d="M25.3184 14.2589
L25.3789 14.3798
" />
<path d="M25.3789 14.3798
L25.3789 14.6822
" />
<path d="M25.3789 14.6822
L25.3184 14.8032
" />
<path d="M25.3184 14.8032
L25.2579 14.8637
" />
<path d="M25.2579 14.8637
L25.1370 14.9241
" />
<path d="M25.1370 14.9241
L24.7741 14.9241
" />
<path d="M24.7741 14.9241
L24.6532 14.8637
" />
<path d="M24.6532 14.8637
L24.5927 14.8032
" />
<path d="M26.4674 14.9241
L26.4674 14.2589
" />
<path d="M26.4674 14.2589
L26.4069 14.1379
" />
<path d="M26.4069 14.1379
L26.2860 14.0775
" />
<path d="M26.2860 14.0775
L26.0441 14.0775
" />
<path d="M26.0441 14.0775
L25.9231 14.1379
" />
<path d="M26.4674 14.8637
L26.3465 14.9241
" />
<path d="M26.3465 14.9241
L26.0441 14.9241
" />
<path d="M26.0441 14.9241
L25.9231 14.8637
" />
<path d="M25.9231 14.8637
L25.8627 14.7427
" />
<path d="M25.8627 14.7427
L25.8627 14.6217
" />
<path d="M25.8627 14.6217
L25.9231 14.5008
" />
<path d="M25.9231 14.5008
L26.0441 14.4403
" />
<path d="M26.0441 14.4403
L26.3465 14.4403
" />
<path d="M26.3465 14.4403
L26.4674 14.3798
" />
</g><path d="M32.5755 15.3416
L36.3855 15.3416
" />
<text x="34.4805" y="15.0876"
textLength="2.5617" font-size="1.6933" lengthAdjust="spacingAndGlyphs"
text-anchor="middle" opacity="0">3b</text>
<g class="stroked-text"><desc>3b</desc>
<path d="M33.4827 13.6541
L34.2689 13.6541
" />
<path d="M34.2689 13.6541
L33.8455 14.1379
" />
<path d="M33.8455 14.1379
L34.0270 14.1379
" />
<path d="M34.0270 14.1379
L34.1479 14.1984
" />
<path d="M34.1479 14.1984
L34.2084 14.2589
" />
<path d="M34.2084 14.2589
L34.2689 14.3798
" />
<path d="M34.2689 14.3798
L34.2689 14.6822
" />
<path d="M34.2689 14.6822
L34.2084 14.8032
" />
<path d="M34.2084 14.8032
L34.1479 14.8637
" />
<path d="M34.1479 14.8637
L34.0270 14.9241
" />
<path d="M34.0270 14.9241
L33.6641 14.9241
" />
<path d="M33.6641 14.9241
L33.5432 14.8637
" />
<path d="M33.5432 14.8637
L33.4827 14.8032
" />
<path d="M34.8131 14.9241
L34.8131 13.6541
" />
<path d="M34.8131 14.1379
L34.9341 14.0775
" />
<path d="M34.9341 14.0775
L35.1760 14.0775
" />
<path d="M35.1760 14.0775
L35.2969 14.1379
" />
<path d="M35.2969 14.1379
L35.3574 14.1984
" />
<path d="M35.3574 14.1984
L35.4179 14.3194
" />
<path d="M35.4179 14.3194
L35.4179 14.6822
" />
<path d="M35.4179 14.6822
L35.3574 14.8032
" />
<path d="M35.3574 14.8032
L35.2969 14.8637
" />
<path d="M35.2969 14.8637
L35.1760 14.9241
" />
<path d="M35.1760 14.9241
L34.9341 14.9241
" />
<path d="M34.9341 14.9241
L34.8131 14.8637
" />
</g><path d="M27.4955 17.8816
L23.6855 17.8816
" />
<text x="25.5905" y="17.6276"
textLength="2.5617" font-size="1.6933" lengthAdjust="spacingAndGlyphs"
text-anchor="middle" opacity="0">4a</text>
<g class="stroked-text"><desc>4a</desc>
<path d="M25.2579 16.6175
L25.2579 17.4641
" />
<path d="M24.9555 16.1337
L24.6532 17.0408
" />
<path d="M24.6532 17.0408
L25.4393 17.0408
" />
<path d="M26.4674 17.4641
L26.4674 16.7989
" />
<path d="M26.4674 16.7989
L26.4069 16.6779
" />
<path d="M26.4069 16.6779
L26.2860 16.6175
" />
<path d="M26.2860 16.6175
L26.0441 16.6175
" />
<path d="M26.0441 16.6175
L25.9231 16.6779
" />
<path d="M26.4674 17.4037
L26.3465 17.4641
" />
<path d="M26.3465 17.4641
L26.0441 17.4641
" />
<path d="M26.0441 17.4641
L25.9231 17.4037
" />
<path d="M25.9231 17.4037
L25.8627 17.2827
" />
<path d="M25.8627 17.2827
L25.8627 17.1617
" />
<path d="M25.8627 17.1617
L25.9231 17.0408
" />
<path d="M25.9231 17.0408
L26.0441 16.9803
" />
<path d="M26.0441 16.9803
L26.3465 16.9803
" />
<path d="M26.3465 16.9803
L26.4674 16.9198
" />
</g><path d="M32.5755 17.8816
L36.3855 17.8816
" />
<text x="34.4805" y="17.6276"
textLength="2.5617" font-size="1.6933" lengthAdjust="spacingAndGlyphs"
text-anchor="middle" opacity="0">4b</text>
<g class="stroked-text"><desc>4b</desc>
<path d="M34.1479 16.6175
L34.1479 17.4641
" />
<path d="M33.8455 16.1337
L33.5432 17.0408
" />
<path d="M33.5432 17.0408
L34.3293 17.0408
" />
<path d="M34.8131 17.4641
L34.8131 16.1941
" />
<path d="M34.8131 16.6779
L34.9341 16.6175
" />
<path d="M34.9341 16.6175
L35.1760 16.6175
" />
<path d="M35.1760 16.6175
L35.2969 16.6779
" />
<path d="M35.2969 16.6779
L35.3574 16.7384
" />
<path d="M35.3574 16.7384
L35.4179 16.8594
" />
<path d="M35.4179 16.8594
L35.4179 17.2222
" />
<path d="M35.4179 17.2222
L35.3574 17.3432
" />
<path d="M35.3574 17.3432
L35.2969 17.4037
" />
<path d="M35.2969 17.4037
L35.1760 17.4641
" />
<path d="M35.1760 17.4641
L34.9341 17.4641
" />
<path d="M34.9341 17.4641
L34.8131 17.4037
" />
</g><path d="M27.4955 20.4216
L23.6855 20.4216
" />
<text x="25.5905" y="20.1676"
textLength="2.5617" font-size="1.6933" lengthAdjust="spacingAndGlyphs"
text-anchor="middle" opacity="0">5a</text>
<g class="stroked-text"><desc>5a</desc>
<path d="M25.3184 18.7341
L24.7136 18.7341
" />
<path d="M24.7136 18.7341
L24.6532 19.3389
" />
<path d="M24.6532 19.3389
L24.7136 19.2784
" />
<path d="M24.7136 19.2784
L24.8346 19.2179
" />
<path d="M24.8346 19.2179
L25.1370 19.2179
" />
<path d="M25.1370 19.2179
L25.2579 19.2784
" />
<path d="M25.2579 19.2784
L25.3184 19.3389
" />
<path d="M25.3184 19.3389
L25.3789 19.4598
" />
<path d="M25.3789 19.4598
L25.3789 19.7622
" />
<path d="M25.3789 19.7622
L25.3184 19.8832
" />
<path d="M25.3184 19.8832
L25.2579 19.9437
" />
<path d="M25.2579 19.9437
L25.1370 20.0041
" />
<path d="M25.1370 20.0041
L24.8346 20.0041
" />
<path d="M24.8346 20.0041
L24.7136 19.9437
" />
<path d="M24.7136 19.9437
L24.6532 19.8832
" />
<path d="M26.4674 20.0041
L26.4674 19.3389
" />
<path d="M26.4674 19.3389
L26.4069 19.2179
" />
<path d="M26.4069 19.2179
L26.2860 19.1575
" />
<path d="M26.2860 19.1575
L26.0441 19.1575
" />
<path d="M26.0441 19.1575
L25.9231 19.2179
" />
<path d="M26.4674 19.9437
L26.3465 20.0041
" />
<path d="M26.3465 20.0041
L26.0441 20.0041
" />
<path d="M26.0441 20.0041
L25.9231 19.9437
" />
<path d="M25.9231 19.9437
L25.8627 19.8227
" />
<path d="M25.8627 19.8227
L25.8627 19.7017
" />
<path d="M25.8627 19.7017
L25.9231 19.5808
" />
<path d="M25.9231 19.5808
L26.0441 19.5203
" />
<path d="M26.0441 19.5203
L26.3465 19.5203
" />
<path d="M26.3465 19.5203
L26.4674 19.4598
" />
</g><path d="M32.5755 20.4216
L36.3855 20.4216
" />
<text x="34.4805" y="20.1676"
textLength="2.5617" font-size="1.6933" lengthAdjust="spacingAndGlyphs"
text-anchor="middle" opacity="0">5b</text>
<g class="stroked-text"><desc>5b</desc>
<path d="M34.2084 18.7341
L33.6036 18.7341
" />
<path d="M33.6036 18.7341
L33.5432 19.3389
" />
<path d="M33.5432 19.3389
L33.6036 19.2784
" />
<path d="M33.6036 19.2784
L33.7246 19.2179
" />
<path d="M33.7246 19.2179
L34.0270 19.2179
" />
<path d="M34.0270 19.2179
L34.1479 19.2784
" />
<path d="M34.1479 19.2784
L34.2084 19.3389
" />
<path d="M34.2084 19.3389
L34.2689 19.4598
" />
<path d="M34.2689 19.4598
L34.2689 19.7622
" />
<path d="M34.2689 19.7622
L34.2084 19.8832
" />
<path d="M34.2084 19.8832
L34.1479 19.9437
" />
<path d="M34.1479 19.9437
L34.0270 20.0041
" />
<path d="M34.0270 20.0041
L33.7246 20.0041
" />
<path d="M33.7246 20.0041
L33.6036 19.9437
" />
<path d="M33.6036 19.9437
L33.5432 19.8832
" />
<path d="M34.8131 20.0041
L34.8131 18.7341
" />
<path d="M34.8131 19.2179
L34.9341 19.1575
" />
<path d="M34.9341 19.1575
L35.1760 19.1575
" />
<path d="M35.1760 19.1575
L35.2969 19.2179
" />
<path d="M35.2969 19.2179
L35.3574 19.2784
" />
<path d="M35.3574 19.2784
L35.4179 19.3994
" />
<path d="M35.4179 19.3994
L35.4179 19.7622
" />
<path d="M35.4179 19.7622
L35.3574 19.8832
" />
<path d="M35.3574 19.8832
L35.2969 19.9437
" />
<path d="M35.2969 19.9437
L35.1760 20.0041
" />
<path d="M35.1760 20.0041
L34.9341 20.0041
" />
<path d="M34.9341 20.0041
L34.8131 19.9437
" />
</g><path d="M27.4955 22.9616
L23.6855 22.9616
" />
<text x="25.5905" y="22.7076"
textLength="2.5617" font-size="1.6933" lengthAdjust="spacingAndGlyphs"
text-anchor="middle" opacity="0">6a</text>
<g class="stroked-text"><desc>6a</desc>
<path d="M25.2579 21.2741
L25.0160 21.2741
" />
<path d="M25.0160 21.2741
L24.8951 21.3346
" />
<path d="M24.8951 21.3346
L24.8346 21.3951
" />
<path d="M24.8346 21.3951
L24.7136 21.5765
" />
<path d="M24.7136 21.5765
L24.6532 21.8184
" />
<path d="M24.6532 21.8184
L24.6532 22.3022
" />
<path d="M24.6532 22.3022
L24.7136 22.4232
" />
<path d="M24.7136 22.4232
L24.7741 22.4837
" />
<path d="M24.7741 22.4837
L24.8951 22.5441
" />
<path d="M24.8951 22.5441
L25.1370 22.5441
" />
<path d="M25.1370 22.5441
L25.2579 22.4837
" />
<path d="M25.2579 22.4837
L25.3184 22.4232
" />
<path d="M25.3184 22.4232
L25.3789 22.3022
" />
<path d="M25.3789 22.3022
L25.3789 21.9998
" />
<path d="M25.3789 21.9998
L25.3184 21.8789
" />
<path d="M25.3184 21.8789
L25.2579 21.8184
" />
<path d="M25.2579 21.8184
L25.1370 21.7579
" />
<path d="M25.1370 21.7579
L24.8951 21.7579
" />
<path d="M24.8951 21.7579
L24.7741 21.8184
" />
<path d="M24.7741 21.8184
L24.7136 21.8789
" />
<path d="M24.7136 21.8789
L24.6532 21.9998
" />
<path d="M26.4674 22.5441
L26.4674 21.8789
" />
<path d="M26.4674 21.8789
L26.4069 21.7579
" />
<path d="M26.4069 21.7579
L26.2860 21.6975
" />
<path d="M26.2860 21.6975
L26.0441 21.6975
" />
<path d="M26.0441 21.6975
L25.9231 21.7579
" />
<path d="M26.4674 22.4837
L26.3465 22.5441
" />
<path d="M26.3465 22.5441
L26.0441 22.5441
" />
<path d="M26.0441 22.5441
L25.9231 22.4837
" />
<path d="M25.9231 22.4837
L25.8627 22.3627
" />
<path d="M25.8627 22.3627
L25.8627 22.2417
" />
<path d="M25.8627 22.2417
L25.9231 22.1208
" />
<path d="M25.9231 22.1208
L26.0441 22.0603
" />
<path d="M26.0441 22.0603
L26.3465 22.0603
" />
<path d="M26.3465 22.0603
L26.4674 21.9998
" />
</g><path d="M32.5755 22.9616
L36.3855 22.9616
" />
<text x="34.4805" y="22.7076"
textLength="2.5617" font-size="1.6933" lengthAdjust="spacingAndGlyphs"
text-anchor="middle" opacity="0">6b</text>
<g class="stroked-text"><desc>6b</desc>
<path d="M34.1479 21.2741
L33.9060 21.2741
" />
<path d="M33.9060 21.2741
L33.7851 21.3346
" />
<path d="M33.7851 21.3346
L33.7246 21.3951
" />
<path d="M33.7246 21.3951
L33.6036 21.5765
" />
<path d="M33.6036 21.5765
L33.5432 21.8184
" />
<path d="M33.5432 21.8184
L33.5432 22.3022
" />
<path d="M33.5432 22.3022
L33.6036 22.4232
" />
<path d="M33.6036 22.4232
L33.6641 22.4837
" />
<path d="M33.6641 22.4837
L33.7851 22.5441
" />
<path d="M33.7851 22.5441
L34.0270 22.5441
" />
<path d="M34.0270 22.5441
L34.1479 22.4837
" />
<path d="M34.1479 22.4837
L34.2084 22.4232
" />
<path d="M34.2084 22.4232
L34.2689 22.3022
" />
<path d="M34.2689 22.3022
L34.2689 21.9998
" />
<path d="M34.2689 21.9998
L34.2084 21.8789
" />
<path d="M34.2084 21.8789
L34.1479 21.8184
" />
<path d="M34.1479 21.8184
L34.0270 21.7579
" />
<path d="M34.0270 21.7579
L33.7851 21.7579
" />
<path d="M33.7851 21.7579
L33.6641 21.8184
" />
<path d="M33.6641 21.8184
L33.6036 21.8789
" />
<path d="M33.6036 21.8789
L33.5432 21.9998
" />
<path d="M34.8131 22.5441
L34.8131 21.2741
" />
<path d="M34.8131 21.7579
L34.9341 21.6975
" />
<path d="M34.9341 21.6975
L35.1760 21.6975
" />
<path d="M35.1760 21.6975
L35.2969 21.7579
" />
<path d="M35.2969 21.7579
L35.3574 21.8184
" />
<path d="M35.3574 21.8184
L35.4179 21.9394
" />
<path d="M35.4179 21.9394
L35.4179 22.3022
" />
<path d="M35.4179 22.3022
L35.3574 22.4232
" />
<path d="M35.3574 22.4232
L35.2969 22.4837
" />
<path d="M35.2969 22.4837
L35.1760 22.5441
" />
<path d="M35.1760 22.5441
L34.9341 22.5441
" />
<path d="M34.9341 22.5441
L34.8131 22.4837
" />
</g><path d="M27.4955 25.5016
L23.6855 25.5016
" />
<text x="25.5905" y="25.2476"
textLength="2.5617" font-size="1.6933" lengthAdjust="spacingAndGlyphs"
text-anchor="middle" opacity="0">7a</text>
<g class="stroked-text"><desc>7a</desc>
<path d="M24.5927 23.8141
L25.4393 23.8141
" />
<path d="M25.4393 23.8141
L24.8951 25.0841
" />
<path d="M26.4674 25.0841
L26.4674 24.4189
" />
<path d="M26.4674 24.4189
L26.4069 24.2979
" />
<path d="M26.4069 24.2979
L26.2860 24.2375
" />
<path d="M26.2860 24.2375
L26.0441 24.2375
" />
<path d="M26.0441 24.2375
L25.9231 24.2979
" />
<path d="M26.4674 25.0237
L26.3465 25.0841
" />
<path d="M26.3465 25.0841
L26.0441 25.0841
" />
<path d="M26.0441 25.0841
L25.9231 25.0237
" />
<path d="M25.9231 25.0237
L25.8627 24.9027
" />
<path d="M25.8627 24.9027
L25.8627 24.7817
" />
<path d="M25.8627 24.7817
L25.9231 24.6608
" />
<path d="M25.9231 24.6608
L26.0441 24.6003
" />
<path d="M26.0441 24.6003
L26.3465 24.6003
" />
<path d="M26.3465 24.6003
L26.4674 24.5398
" />
</g><path d="M32.5755 25.5016
L36.3855 25.5016
" />
<text x="34.4805" y="25.2476"
textLength="2.5617" font-size="1.6933" lengthAdjust="spacingAndGlyphs"
text-anchor="middle" opacity="0">7b</text>
<g class="stroked-text"><desc>7b</desc>
<path d="M33.4827 23.8141
L34.3293 23.8141
" />
<path d="M34.3293 23.8141
L33.7851 25.0841
" />
<path d="M34.8131 25.0841
L34.8131 23.8141
" />
<path d="M34.8131 24.2979
L34.9341 24.2375
" />
<path d="M34.9341 24.2375
L35.1760 24.2375
" />
<path d="M35.1760 24.2375
L35.2969 24.2979
" />
<path d="M35.2969 24.2979
L35.3574 24.3584
" />
<path d="M35.3574 24.3584
L35.4179 24.4794
" />
<path d="M35.4179 24.4794
L35.4179 24.8422
" />
<path d="M35.4179 24.8422
L35.3574 24.9632
" />
<path d="M35.3574 24.9632
L35.2969 25.0237
" />
<path d="M35.2969 25.0237
L35.1760 25.0841
" />
<path d="M35.1760 25.0841
L34.9341 25.0841
" />
<path d="M34.9341 25.0841
L34.8131 25.0237
" />
</g><path d="M27.4955 28.0416
L23.6855 28.0416
" />
<text x="25.5905" y="27.7876"
textLength="2.5617" font-size="1.6933" lengthAdjust="spacingAndGlyphs"
text-anchor="middle" opacity="0">8a</text>
<g class="stroked-text"><desc>8a</desc>
<path d="M24.8951 26.8984
L24.7741 26.8379
" />
<path d="M24.7741 26.8379
L24.7136 26.7775
" />
<path d="M24.7136 26.7775
L24.6532 26.6565
" />
<path d="M24.6532 26.6565
L24.6532 26.5960
" />
<path d="M24.6532 26.5960
L24.7136 26.4751
" />
<path d="M24.7136 26.4751
L24.7741 26.4146
" />
<path d="M24.7741 26.4146
L24.8951 26.3541
" />
<path d="M24.8951 26.3541
L25.1370 26.3541
" />
<path d="M25.1370 26.3541
L25.2579 26.4146
" />
<path d="M25.2579 26.4146
L25.3184 26.4751
" />
<path d="M25.3184 26.4751
L25.3789 26.5960
" />
<path d="M25.3789 26.5960
L25.3789 26.6565
" />
<path d="M25.3789 26.6565
L25.3184 26.7775
" />
<path d="M25.3184 26.7775
L25.2579 26.8379
" />
<path d="M25.2579 26.8379
L25.1370 26.8984
" />
<path d="M25.1370 26.8984
L24.8951 26.8984
" />
<path d="M24.8951 26.8984
L24.7741 26.9589
" />
<path d="M24.7741 26.9589
L24.7136 27.0194
" />
<path d="M24.7136 27.0194
L24.6532 27.1403
" />
<path d="M24.6532 27.1403
L24.6532 27.3822
" />
<path d="M24.6532 27.3822
L24.7136 27.5032
" />
<path d="M24.7136 27.5032
L24.7741 27.5637
" />
<path d="M24.7741 27.5637
L24.8951 27.6241
" />
<path d="M24.8951 27.6241
L25.1370 27.6241
" />
<path d="M25.1370 27.6241
L25.2579 27.5637
" />
<path d="M25.2579 27.5637
L25.3184 27.5032
" />
<path d="M25.3184 27.5032
L25.3789 27.3822
" />
<path d="M25.3789 27.3822
L25.3789 27.1403
" />
<path d="M25.3789 27.1403
L25.3184 27.0194
" />
<path d="M25.3184 27.0194
L25.2579 26.9589
" />
<path d="M25.2579 26.9589
L25.1370 26.8984
" />
<path d="M26.4674 27.6241
L26.4674 26.9589
" />
<path d="M26.4674 26.9589
L26.4069 26.8379
" />
<path d="M26.4069 26.8379
L26.2860 26.7775
" />
<path d="M26.2860 26.7775
L26.0441 26.7775
" />
<path d="M26.0441 26.7775
L25.9231 26.8379
" />
<path d="M26.4674 27.5637
L26.3465 27.6241
" />
<path d="M26.3465 27.6241
L26.0441 27.6241
" />
<path d="M26.0441 27.6241
L25.9231 27.5637
" />
<path d="M25.9231 27.5637
L25.8627 27.4427
" />
<path d="M25.8627 27.4427
L25.8627 27.3217
" />
<path d="M25.8627 27.3217
L25.9231 27.2008
" />
<path d="M25.9231 27.2008
L26.0441 27.1403
" />
<path d="M26.0441 27.1403
L26.3465 27.1403
" />
<path d="M26.3465 27.1403
L26.4674 27.0798
" />
</g><path d="M32.5755 28.0416
L36.3855 28.0416
" />
<text x="34.4805" y="27.7876"
textLength="2.5617" font-size="1.6933" lengthAdjust="spacingAndGlyphs"
text-anchor="middle" opacity="0">8b</text>
<g class="stroked-text"><desc>8b</desc>
<path d="M33.7851 26.8984
L33.6641 26.8379
" />
<path d="M33.6641 26.8379
L33.6036 26.7775
" />
<path d="M33.6036 26.7775
L33.5432 26.6565
" />
<path d="M33.5432 26.6565
L33.5432 26.5960
" />
<path d="M33.5432 26.5960
L33.6036 26.4751
" />
<path d="M33.6036 26.4751
L33.6641 26.4146
" />
<path d="M33.6641 26.4146
L33.7851 26.3541
" />
<path d="M33.7851 26.3541
L34.0270 26.3541
" />
<path d="M34.0270 26.3541
L34.1479 26.4146
" />
<path d="M34.1479 26.4146
L34.2084 26.4751
" />
<path d="M34.2084 26.4751
L34.2689 26.5960
" />
<path d="M34.2689 26.5960
L34.2689 26.6565
" />
<path d="M34.2689 26.6565
L34.2084 26.7775
" />
<path d="M34.2084 26.7775
L34.1479 26.8379
" />
<path d="M34.1479 26.8379
L34.0270 26.8984
" />
<path d="M34.0270 26.8984
L33.7851 26.8984
" />
<path d="M33.7851 26.8984
L33.6641 26.9589
" />
<path d="M33.6641 26.9589
L33.6036 27.0194
" />
<path d="M33.6036 27.0194
L33.5432 27.1403
" />
<path d="M33.5432 27.1403
L33.5432 27.3822
" />
<path d="M33.5432 27.3822
L33.6036 27.5032
" />
<path d="M33.6036 27.5032
L33.6641 27.5637
" />
<path d="M33.6641 27.5637
L33.7851 27.6241
" />
<path d="M33.7851 27.6241
L34.0270 27.6241
" />
<path d="M34.0270 27.6241
L34.1479 27.5637
" />
<path d="M34.1479 27.5637
L34.2084 27.5032
" />
<path d="M34.2084 27.5032
L34.2689 27.3822
" />
<path d="M34.2689 27.3822
L34.2689 27.1403
" />
<path d="M34.2689 27.1403
L34.2084 27.0194
" />
<path d="M34.2084 27.0194
L34.1479 26.9589
" />
<path d="M34.1479 26.9589
L34.0270 26.8984
" />
<path d="M34.8131 27.6241
L34.8131 26.3541
" />
<path d="M34.8131 26.8379
L34.9341 26.7775
" />
<path d="M34.9341 26.7775
L35.1760 26.7775
" />
<path d="M35.1760 26.7775
L35.2969 26.8379
" />
<path d="M35.2969 26.8379
L35.3574 26.8984
" />
<path d="M35.3574 26.8984
L35.4179 27.0194
" />
<path d="M35.4179 27.0194
L35.4179 27.3822
" />
<path d="M35.4179 27.3822
L35.3574 27.5032
" />
<path d="M35.3574 27.5032
L35.2969 27.5637
" />
<path d="M35.2969 27.5637
L35.1760 27.6241
" />
<path d="M35.1760 27.6241
L34.9341 27.6241
" />
<path d="M34.9341 27.6241
L34.8131 27.5637
" />
</g><path d="M27.4955 30.5816
L23.6855 30.5816
" />
<text x="25.5905" y="30.3276"
textLength="2.5617" font-size="1.6933" lengthAdjust="spacingAndGlyphs"
text-anchor="middle" opacity="0">9a</text>
<g class="stroked-text"><desc>9a</desc>
<path d="M24.7741 30.1641
L25.0160 30.1641
" />
<path d="M25.0160 30.1641
L25.1370 30.1037
" />
<path d="M25.1370 30.1037
L25.1974 30.0432
" />
<path d="M25.1974 30.0432
L25.3184 29.8617
" />
<path d="M25.3184 29.8617
L25.3789 29.6198
" />
<path d="M25.3789 29.6198
L25.3789 29.1360
" />
<path d="M25.3789 29.1360
L25.3184 29.0151
" />
<path d="M25.3184 29.0151
L25.2579 28.9546
" />
<path d="M25.2579 28.9546
L25.1370 28.8941
" />
<path d="M25.1370 28.8941
L24.8951 28.8941
" />
<path d="M24.8951 28.8941
L24.7741 28.9546
" />
<path d="M24.7741 28.9546
L24.7136 29.0151
" />
<path d="M24.7136 29.0151
L24.6532 29.1360
" />
<path d="M24.6532 29.1360
L24.6532 29.4384
" />
<path d="M24.6532 29.4384
L24.7136 29.5594
" />
<path d="M24.7136 29.5594
L24.7741 29.6198
" />
<path d="M24.7741 29.6198
L24.8951 29.6803
" />
<path d="M24.8951 29.6803
L25.1370 29.6803
" />
<path d="M25.1370 29.6803
L25.2579 29.6198
" />
<path d="M25.2579 29.6198
L25.3184 29.5594
" />
<path d="M25.3184 29.5594
L25.3789 29.4384
" />
<path d="M26.4674 30.1641
L26.4674 29.4989
" />
<path d="M26.4674 29.4989
L26.4069 29.3779
" />
<path d="M26.4069 29.3779
L26.2860 29.3175
" />
<path d="M26.2860 29.3175
L26.0441 29.3175
" />
<path d="M26.0441 29.3175
L25.9231 29.3779
" />
<path d="M26.4674 30.1037
L26.3465 30.1641
" />
<path d="M26.3465 30.1641
L26.0441 30.1641
" />
<path d="M26.0441 30.1641
L25.9231 30.1037
" />
<path d="M25.9231 30.1037
L25.8627 29.9827
" />
<path d="M25.8627 29.9827
L25.8627 29.8617
" />
<path d="M25.8627 29.8617
L25.9231 29.7408
" />
<path d="M25.9231 29.7408
L26.0441 29.6803
" />
<path d="M26.0441 29.6803
L26.3465 29.6803
" />
<path d="M26.3465 29.6803
L26.4674 29.6198
" />
</g><path d="M32.5755 30.5816
L36.3855 30.5816
" />
<text x="34.4805" y="30.3276"
textLength="2.5617" font-size="1.6933" lengthAdjust="spacingAndGlyphs"
text-anchor="middle" opacity="0">9b</text>
<g class="stroked-text"><desc>9b</desc>
<path d="M33.6641 30.1641
L33.9060 30.1641
" />
<path d="M33.9060 30.1641
L34.0270 30.1037
" />
<path d="M34.0270 30.1037
L34.0874 30.0432
" />
<path d="M34.0874 30.0432
L34.2084 29.8617
" />
<path d="M34.2084 29.8617
L34.2689 29.6198
" />
<path d="M34.2689 29.6198
L34.2689 29.1360
" />
<path d="M34.2689 29.1360
L34.2084 29.0151
" />
<path d="M34.2084 29.0151
L34.1479 28.9546
" />
<path d="M34.1479 28.9546
L34.0270 28.8941
" />
<path d="M34.0270 28.8941
L33.7851 28.8941
" />
<path d="M33.7851 28.8941
L33.6641 28.9546
" />
<path d="M33.6641 28.9546
L33.6036 29.0151
" />
<path d="M33.6036 29.0151
L33.5432 29.1360
" />
<path d="M33.5432 29.1360
L33.5432 29.4384
" />
<path d="M33.5432 29.4384
L33.6036 29.5594
" />
<path d="M33.6036 29.5594
L33.6641 29.6198
" />
<path d="M33.6641 29.6198
L33.7851 29.6803
" />
<path d="M33.7851 29.6803
L34.0270 29.6803
" />
<path d="M34.0270 29.6803
L34.1479 29.6198
" />
<path d="M34.1479 29.6198
L34.2084 29.5594
" />
<path d="M34.2084 29.5594
L34.2689 29.4384
" />
<path d="M34.8131 30.1641
L34.8131 28.8941
" />
<path d="M34.8131 29.3779
L34.9341 29.3175
" />
<path d="M34.9341 29.3175
L35.1760 29.3175
" />
<path d="M35.1760 29.3175
L35.2969 29.3779
" />
<path d="M35.2969 29.3779
L35.3574 29.4384
" />
<path d="M35.3574 29.4384
L35.4179 29.5594
" />
<path d="M35.4179 29.5594
L35.4179 29.9222
" />
<path d="M35.4179 29.9222
L35.3574 30.0432
" />
<path d="M35.3574 30.0432
L35.2969 30.1037
" />
<path d="M35.2969 30.1037
L35.1760 30.1641
" />
<path d="M35.1760 30.1641
L34.9341 30.1641
" />
<path d="M34.9341 30.1641
L34.8131 30.1037
" />
</g><path d="M30.0355 63.0936
L30.0355 66.1416
" />
<g transform="rotate(-90.000000 29.7815 64.6176)">
<text x="29.7815" y="64.6176"
textLength="2.9246" font-size="1.6933" lengthAdjust="spacingAndGlyphs"
text-anchor="middle" opacity="0">MP</text>
</g>
<g class="stroked-text"><desc>MP</desc>
<path d="M29.6180 65.6759
L28.3480 65.6759
" />
<path d="M28.3480 65.6759
L29.2552 65.2525
" />
<path d="M29.2552 65.2525
L28.3480 64.8292
" />
<path d="M28.3480 64.8292
L29.6180 64.8292
" />
<path d="M29.6180 64.2245
L28.3480 64.2245
" />
<path d="M28.3480 64.2245
L28.3480 63.7407
" />
<path d="M28.3480 63.7407
L28.4085 63.6197
" />
<path d="M28.4085 63.6197
L28.4690 63.5592
" />
<path d="M28.4690 63.5592
L28.5899 63.4988
" />
<path d="M28.5899 63.4988
L28.7714 63.4988
" />
<path d="M28.7714 63.4988
L28.8923 63.5592
" />
<path d="M28.8923 63.5592
L28.9528 63.6197
" />
<path d="M28.9528 63.6197
L29.0133 63.7407
" />
<path d="M29.0133 63.7407
L29.0133 64.2245
" />
</g></g>
<g style="fill:#000000; fill-opacity:0.0; 
stroke:#000000; stroke-width:0.1588; stroke-opacity:1; 
stroke-linecap:round; stroke-linejoin:round;">
<text x="30.0355" y="8.3566"
textLength="2.2786" font-size="1.6933" lengthAdjust="spacingAndGlyphs"
text-anchor="middle" opacity="0">J?</text>
<g class="stroked-text"><desc>J?</desc>
<path d="M29.6726 7.0308
L29.6726 7.9380
" />
<path d="M29.6726 7.9380
L29.6121 8.1194
" />
<path d="M29.6121 8.1194
L29.4912 8.2404
" />
<path d="M29.4912 8.2404
L29.3097 8.3008
" />
<path d="M29.3097 8.3008
L29.1888 8.3008
" />
<path d="M30.4588 8.1799
L30.5192 8.2404
" />
<path d="M30.5192 8.2404
L30.4588 8.3008
" />
<path d="M30.4588 8.3008
L30.3983 8.2404
" />
<path d="M30.3983 8.2404
L30.4588 8.1799
" />
<path d="M30.4588 8.1799
L30.4588 8.3008
" />
<path d="M30.2169 7.0913
L30.3378 7.0308
" />
<path d="M30.3378 7.0308
L30.6402 7.0308
" />
<path d="M30.6402 7.0308
L30.7611 7.0913
" />
<path d="M30.7611 7.0913
L30.8216 7.2123
" />
<path d="M30.8216 7.2123
L30.8216 7.3332
" />
<path d="M30.8216 7.3332
L30.7611 7.4542
" />
<path d="M30.7611 7.4542
L30.7007 7.5146
" />
<path d="M30.7007 7.5146
L30.5797 7.5751
" />
<path d="M30.5797 7.5751
L30.5192 7.6356
" />
<path d="M30.5192 7.6356
L30.4588 7.7565
" />
<path d="M30.4588 7.7565
L30.4588 7.8170
" />
</g><text x="51.4642" y="64.2366"
textLength="40.3175" font-size="1.6933" lengthAdjust="spacingAndGlyphs"
text-anchor="middle" opacity="0">Conn_02x21_Row_Letter_Last_MountingPin</text>
<g class="stroked-text"><desc>Conn_02x21_Row_Letter_Last_MountingPin</desc>
<path d="M32.4447 64.0599
L32.3843 64.1204
" />
<path d="M32.3843 64.1204
L32.2028 64.1808
" />
<path d="M32.2028 64.1808
L32.0819 64.1808
" />
<path d="M32.0819 64.1808
L31.9005 64.1204
" />
<path d="M31.9005 64.1204
L31.7795 63.9994
" />
<path d="M31.7795 63.9994
L31.7190 63.8784
" />
<path d="M31.7190 63.8784
L31.6586 63.6365
" />
<path d="M31.6586 63.6365
L31.6586 63.4551
" />
<path d="M31.6586 63.4551
L31.7190 63.2132
" />
<path d="M31.7190 63.2132
L31.7795 63.0923
" />
<path d="M31.7795 63.0923
L31.9005 62.9713
" />
<path d="M31.9005 62.9713
L32.0819 62.9108
" />
<path d="M32.0819 62.9108
L32.2028 62.9108
" />
<path d="M32.2028 62.9108
L32.3843 62.9713
" />
<path d="M32.3843 62.9713
L32.4447 63.0318
" />
<path d="M33.1705 64.1808
L33.0495 64.1204
" />
<path d="M33.0495 64.1204
L32.9890 64.0599
" />
<path d="M32.9890 64.0599
L32.9286 63.9389
" />
<path d="M32.9286 63.9389
L32.9286 63.5761
" />
<path d="M32.9286 63.5761
L32.9890 63.4551
" />
<path d="M32.9890 63.4551
L33.0495 63.3946
" />
<path d="M33.0495 63.3946
L33.1705 63.3342
" />
<path d="M33.1705 63.3342
L33.3519 63.3342
" />
<path d="M33.3519 63.3342
L33.4728 63.3946
" />
<path d="M33.4728 63.3946
L33.5333 63.4551
" />
<path d="M33.5333 63.4551
L33.5938 63.5761
" />
<path d="M33.5938 63.5761
L33.5938 63.9389
" />
<path d="M33.5938 63.9389
L33.5333 64.0599
" />
<path d="M33.5333 64.0599
L33.4728 64.1204
" />
<path d="M33.4728 64.1204
L33.3519 64.1808
" />
<path d="M33.3519 64.1808
L33.1705 64.1808
" />
<path d="M34.1380 63.3342
L34.1380 64.1808
" />
<path d="M34.1380 63.4551
L34.1985 63.3946
" />
<path d="M34.1985 63.3946
L34.3195 63.3342
" />
<path d="M34.3195 63.3342
L34.5009 63.3342
" />
<path d="M34.5009 63.3342
L34.6218 63.3946
" />
<path d="M34.6218 63.3946
L34.6823 63.5156
" />
<path d="M34.6823 63.5156
L34.6823 64.1808
" />
<path d="M35.2870 63.3342
L35.2870 64.1808
" />
<path d="M35.2870 63.4551
L35.3475 63.3946
" />
<path d="M35.3475 63.3946
L35.4685 63.3342
" />
<path d="M35.4685 63.3342
L35.6499 63.3342
" />
<path d="M35.6499 63.3342
L35.7708 63.3946
" />
<path d="M35.7708 63.3946
L35.8313 63.5156
" />
<path d="M35.8313 63.5156
L35.8313 64.1808
" />
<path d="M36.1337 64.3018
L37.1013 64.3018
" />
<path d="M37.6455 62.9108
L37.7665 62.9108
" />
<path d="M37.7665 62.9108
L37.8874 62.9713
" />
<path d="M37.8874 62.9713
L37.9479 63.0318
" />
<path d="M37.9479 63.0318
L38.0084 63.1527
" />
<path d="M38.0084 63.1527
L38.0689 63.3946
" />
<path d="M38.0689 63.3946
L38.0689 63.6970
" />
<path d="M38.0689 63.6970
L38.0084 63.9389
" />
<path d="M38.0084 63.9389
L37.9479 64.0599
" />
<path d="M37.9479 64.0599
L37.8874 64.1204
" />
<path d="M37.8874 64.1204
L37.7665 64.1808
" />
<path d="M37.7665 64.1808
L37.6455 64.1808
" />
<path d="M37.6455 64.1808
L37.5246 64.1204
" />
<path d="M37.5246 64.1204
L37.4641 64.0599
" />
<path d="M37.4641 64.0599
L37.4036 63.9389
" />
<path d="M37.4036 63.9389
L37.3432 63.6970
" />
<path d="M37.3432 63.6970
L37.3432 63.3946
" />
<path d="M37.3432 63.3946
L37.4036 63.1527
" />
<path d="M37.4036 63.1527
L37.4641 63.0318
" />
<path d="M37.4641 63.0318
L37.5246 62.9713
" />
<path d="M37.5246 62.9713
L37.6455 62.9108
" />
<path d="M38.5527 63.0318
L38.6131 62.9713
" />
<path d="M38.6131 62.9713
L38.7341 62.9108
" />
<path d="M38.7341 62.9108
L39.0365 62.9108
" />
<path d="M39.0365 62.9108
L39.1574 62.9713
" />
<path d="M39.1574 62.9713
L39.2179 63.0318
" />
<path d="M39.2179 63.0318
L39.2784 63.1527
" />
<path d="M39.2784 63.1527
L39.2784 63.2737
" />
<path d="M39.2784 63.2737
L39.2179 63.4551
" />
<path d="M39.2179 63.4551
L38.4922 64.1808
" />
<path d="M38.4922 64.1808
L39.2784 64.1808
" />
<path d="M39.7017 64.1808
L40.3669 63.3342
" />
<path d="M39.7017 63.3342
L40.3669 64.1808
" />
<path d="M40.7903 63.0318
L40.8507 62.9713
" />
<path d="M40.8507 62.9713
L40.9717 62.9108
" />
<path d="M40.9717 62.9108
L41.2741 62.9108
" />
<path d="M41.2741 62.9108
L41.3950 62.9713
" />
<path d="M41.3950 62.9713
L41.4555 63.0318
" />
<path d="M41.4555 63.0318
L41.5160 63.1527
" />
<path d="M41.5160 63.1527
L41.5160 63.2737
" />
<path d="M41.5160 63.2737
L41.4555 63.4551
" />
<path d="M41.4555 63.4551
L40.7298 64.1808
" />
<path d="M40.7298 64.1808
L41.5160 64.1808
" />
<path d="M42.7255 64.1808
L41.9998 64.1808
" />
<path d="M42.3626 64.1808
L42.3626 62.9108
" />
<path d="M42.3626 62.9108
L42.2417 63.0923
" />
<path d="M42.2417 63.0923
L42.1207 63.2132
" />
<path d="M42.1207 63.2132
L41.9998 63.2737
" />
<path d="M42.9674 64.3018
L43.9350 64.3018
" />
<path d="M44.9630 64.1808
L44.5397 63.5761
" />
<path d="M44.2373 64.1808
L44.2373 62.9108
" />
<path d="M44.2373 62.9108
L44.7211 62.9108
" />
<path d="M44.7211 62.9108
L44.8421 62.9713
" />
<path d="M44.8421 62.9713
L44.9026 63.0318
" />
<path d="M44.9026 63.0318
L44.9630 63.1527
" />
<path d="M44.9630 63.1527
L44.9630 63.3342
" />
<path d="M44.9630 63.3342
L44.9026 63.4551
" />
<path d="M44.9026 63.4551
L44.8421 63.5156
" />
<path d="M44.8421 63.5156
L44.7211 63.5761
" />
<path d="M44.7211 63.5761
L44.2373 63.5761
" />
<path d="M45.6888 64.1808
L45.5678 64.1204
" />
<path d="M45.5678 64.1204
L45.5073 64.0599
" />
<path d="M45.5073 64.0599
L45.4469 63.9389
" />
<path d="M45.4469 63.9389
L45.4469 63.5761
" />
<path d="M45.4469 63.5761
L45.5073 63.4551
" />
<path d="M45.5073 63.4551
L45.5678 63.3946
" />
<path d="M45.5678 63.3946
L45.6888 63.3342
" />
<path d="M45.6888 63.3342
L45.8702 63.3342
" />
<path d="M45.8702 63.3342
L45.9911 63.3946
" />
<path d="M45.9911 63.3946
L46.0516 63.4551
" />
<path d="M46.0516 63.4551
L46.1121 63.5761
" />
<path d="M46.1121 63.5761
L46.1121 63.9389
" />
<path d="M46.1121 63.9389
L46.0516 64.0599
" />
<path d="M46.0516 64.0599
L45.9911 64.1204
" />
<path d="M45.9911 64.1204
L45.8702 64.1808
" />
<path d="M45.8702 64.1808
L45.6888 64.1808
" />
<path d="M46.5354 63.3342
L46.7773 64.1808
" />
<path d="M46.7773 64.1808
L47.0192 63.5761
" />
<path d="M47.0192 63.5761
L47.2611 64.1808
" />
<path d="M47.2611 64.1808
L47.5030 63.3342
" />
<path d="M47.6845 64.3018
L48.6521 64.3018
" />
<path d="M49.5592 64.1808
L48.9544 64.1808
" />
<path d="M48.9544 64.1808
L48.9544 62.9108
" />
<path d="M50.4663 64.1204
L50.3454 64.1808
" />
<path d="M50.3454 64.1808
L50.1035 64.1808
" />
<path d="M50.1035 64.1808
L49.9825 64.1204
" />
<path d="M49.9825 64.1204
L49.9221 63.9994
" />
<path d="M49.9221 63.9994
L49.9221 63.5156
" />
<path d="M49.9221 63.5156
L49.9825 63.3946
" />
<path d="M49.9825 63.3946
L50.1035 63.3342
" />
<path d="M50.1035 63.3342
L50.3454 63.3342
" />
<path d="M50.3454 63.3342
L50.4663 63.3946
" />
<path d="M50.4663 63.3946
L50.5268 63.5156
" />
<path d="M50.5268 63.5156
L50.5268 63.6365
" />
<path d="M50.5268 63.6365
L49.9221 63.7575
" />
<path d="M50.8897 63.3342
L51.3735 63.3342
" />
<path d="M51.0711 62.9108
L51.0711 63.9994
" />
<path d="M51.0711 63.9994
L51.1316 64.1204
" />
<path d="M51.1316 64.1204
L51.2526 64.1808
" />
<path d="M51.2526 64.1808
L51.3735 64.1808
" />
<path d="M51.6154 63.3342
L52.0992 63.3342
" />
<path d="M51.7968 62.9108
L51.7968 63.9994
" />
<path d="M51.7968 63.9994
L51.8573 64.1204
" />
<path d="M51.8573 64.1204
L51.9783 64.1808
" />
<path d="M51.9783 64.1808
L52.0992 64.1808
" />
<path d="M53.0063 64.1204
L52.8854 64.1808
" />
<path d="M52.8854 64.1808
L52.6435 64.1808
" />
<path d="M52.6435 64.1808
L52.5225 64.1204
" />
<path d="M52.5225 64.1204
L52.4621 63.9994
" />
<path d="M52.4621 63.9994
L52.4621 63.5156
" />
<path d="M52.4621 63.5156
L52.5225 63.3946
" />
<path d="M52.5225 63.3946
L52.6435 63.3342
" />
<path d="M52.6435 63.3342
L52.8854 63.3342
" />
<path d="M52.8854 63.3342
L53.0063 63.3946
" />
<path d="M53.0063 63.3946
L53.0668 63.5156
" />
<path d="M53.0668 63.5156
L53.0668 63.6365
" />
<path d="M53.0668 63.6365
L52.4621 63.7575
" />
<path d="M53.6111 64.1808
L53.6111 63.3342
" />
<path d="M53.6111 63.5761
L53.6716 63.4551
" />
<path d="M53.6716 63.4551
L53.7321 63.3946
" />
<path d="M53.7321 63.3946
L53.8530 63.3342
" />
<path d="M53.8530 63.3342
L53.9740 63.3342
" />
<path d="M54.0950 64.3018
L55.0626 64.3018
" />
<path d="M55.9697 64.1808
L55.3649 64.1808
" />
<path d="M55.3649 64.1808
L55.3649 62.9108
" />
<path d="M56.9373 64.1808
L56.9373 63.5156
" />
<path d="M56.9373 63.5156
L56.8768 63.3946
" />
<path d="M56.8768 63.3946
L56.7559 63.3342
" />
<path d="M56.7559 63.3342
L56.5140 63.3342
" />
<path d="M56.5140 63.3342
L56.3930 63.3946
" />
<path d="M56.9373 64.1204
L56.8164 64.1808
" />
<path d="M56.8164 64.1808
L56.5140 64.1808
" />
<path d="M56.5140 64.1808
L56.3930 64.1204
" />
<path d="M56.3930 64.1204
L56.3326 63.9994
" />
<path d="M56.3326 63.9994
L56.3326 63.8784
" />
<path d="M56.3326 63.8784
L56.3930 63.7575
" />
<path d="M56.3930 63.7575
L56.5140 63.6970
" />
<path d="M56.5140 63.6970
L56.8164 63.6970
" />
<path d="M56.8164 63.6970
L56.9373 63.6365
" />
<path d="M57.4816 64.1204
L57.6025 64.1808
" />
<path d="M57.6025 64.1808
L57.8444 64.1808
" />
<path d="M57.8444 64.1808
L57.9654 64.1204
" />
<path d="M57.9654 64.1204
L58.0258 63.9994
" />
<path d="M58.0258 63.9994
L58.0258 63.9389
" />
<path d="M58.0258 63.9389
L57.9654 63.8180
" />
<path d="M57.9654 63.8180
L57.8444 63.7575
" />
<path d="M57.8444 63.7575
L57.6630 63.7575
" />
<path d="M57.6630 63.7575
L57.5420 63.6970
" />
<path d="M57.5420 63.6970
L57.4816 63.5761
" />
<path d="M57.4816 63.5761
L57.4816 63.5156
" />
<path d="M57.4816 63.5156
L57.5420 63.3946
" />
<path d="M57.5420 63.3946
L57.6630 63.3342
" />
<path d="M57.6630 63.3342
L57.8444 63.3342
" />
<path d="M57.8444 63.3342
L57.9654 63.3946
" />
<path d="M58.3887 63.3342
L58.8725 63.3342
" />
<path d="M58.5701 62.9108
L58.5701 63.9994
" />
<path d="M58.5701 63.9994
L58.6306 64.1204
" />
<path d="M58.6306 64.1204
L58.7516 64.1808
" />
<path d="M58.7516 64.1808
L58.8725 64.1808
" />
<path d="M58.9935 64.3018
L59.9611 64.3018
" />
<path d="M60.2634 64.1808
L60.2634 62.9108
" />
<path d="M60.2634 62.9108
L60.6868 63.8180
" />
<path d="M60.6868 63.8180
L61.1101 62.9108
" />
<path d="M61.1101 62.9108
L61.1101 64.1808
" />
<path d="M61.8963 64.1808
L61.7753 64.1204
" />
<path d="M61.7753 64.1204
L61.7148 64.0599
" />
<path d="M61.7148 64.0599
L61.6544 63.9389
" />
<path d="M61.6544 63.9389
L61.6544 63.5761
" />
<path d="M61.6544 63.5761
L61.7148 63.4551
" />
<path d="M61.7148 63.4551
L61.7753 63.3946
" />
<path d="M61.7753 63.3946
L61.8963 63.3342
" />
<path d="M61.8963 63.3342
L62.0777 63.3342
" />
<path d="M62.0777 63.3342
L62.1986 63.3946
" />
<path d="M62.1986 63.3946
L62.2591 63.4551
" />
<path d="M62.2591 63.4551
L62.3196 63.5761
" />
<path d="M62.3196 63.5761
L62.3196 63.9389
" />
<path d="M62.3196 63.9389
L62.2591 64.0599
" />
<path d="M62.2591 64.0599
L62.1986 64.1204
" />
<path d="M62.1986 64.1204
L62.0777 64.1808
" />
<path d="M62.0777 64.1808
L61.8963 64.1808
" />
<path d="M63.4081 63.3342
L63.4081 64.1808
" />
<path d="M62.8638 63.3342
L62.8638 63.9994
" />
<path d="M62.8638 63.9994
L62.9243 64.1204
" />
<path d="M62.9243 64.1204
L63.0453 64.1808
" />
<path d="M63.0453 64.1808
L63.2267 64.1808
" />
<path d="M63.2267 64.1808
L63.3476 64.1204
" />
<path d="M63.3476 64.1204
L63.4081 64.0599
" />
<path d="M64.0128 63.3342
L64.0128 64.1808
" />
<path d="M64.0128 63.4551
L64.0733 63.3946
" />
<path d="M64.0733 63.3946
L64.1943 63.3342
" />
<path d="M64.1943 63.3342
L64.3757 63.3342
" />
<path d="M64.3757 63.3342
L64.4966 63.3946
" />
<path d="M64.4966 63.3946
L64.5571 63.5156
" />
<path d="M64.5571 63.5156
L64.5571 64.1808
" />
<path d="M64.9804 63.3342
L65.4642 63.3342
" />
<path d="M65.1618 62.9108
L65.1618 63.9994
" />
<path d="M65.1618 63.9994
L65.2223 64.1204
" />
<path d="M65.2223 64.1204
L65.3433 64.1808
" />
<path d="M65.3433 64.1808
L65.4642 64.1808
" />
<path d="M65.8875 64.1808
L65.8875 63.3342
" />
<path d="M65.8875 62.9108
L65.8271 62.9713
" />
<path d="M65.8271 62.9713
L65.8875 63.0318
" />
<path d="M65.8875 63.0318
L65.9480 62.9713
" />
<path d="M65.9480 62.9713
L65.8875 62.9108
" />
<path d="M65.8875 62.9108
L65.8875 63.0318
" />
<path d="M66.4923 63.3342
L66.4923 64.1808
" />
<path d="M66.4923 63.4551
L66.5528 63.3946
" />
<path d="M66.5528 63.3946
L66.6738 63.3342
" />
<path d="M66.6738 63.3342
L66.8552 63.3342
" />
<path d="M66.8552 63.3342
L66.9761 63.3946
" />
<path d="M66.9761 63.3946
L67.0366 63.5156
" />
<path d="M67.0366 63.5156
L67.0366 64.1808
" />
<path d="M68.1856 63.3342
L68.1856 64.3623
" />
<path d="M68.1856 64.3623
L68.1251 64.4832
" />
<path d="M68.1251 64.4832
L68.0647 64.5437
" />
<path d="M68.0647 64.5437
L67.9437 64.6042
" />
<path d="M67.9437 64.6042
L67.7623 64.6042
" />
<path d="M67.7623 64.6042
L67.6413 64.5437
" />
<path d="M68.1856 64.1204
L68.0647 64.1808
" />
<path d="M68.0647 64.1808
L67.8228 64.1808
" />
<path d="M67.8228 64.1808
L67.7018 64.1204
" />
<path d="M67.7018 64.1204
L67.6413 64.0599
" />
<path d="M67.6413 64.0599
L67.5809 63.9389
" />
<path d="M67.5809 63.9389
L67.5809 63.5761
" />
<path d="M67.5809 63.5761
L67.6413 63.4551
" />
<path d="M67.6413 63.4551
L67.7018 63.3946
" />
<path d="M67.7018 63.3946
L67.8228 63.3342
" />
<path d="M67.8228 63.3342
L68.0647 63.3342
" />
<path d="M68.0647 63.3342
L68.1856 63.3946
" />
<path d="M68.7903 64.1808
L68.7903 62.9108
" />
<path d="M68.7903 62.9108
L69.2741 62.9108
" />
<path d="M69.2741 62.9108
L69.3951 62.9713
" />
<path d="M69.3951 62.9713
L69.4556 63.0318
" />
<path d="M69.4556 63.0318
L69.5160 63.1527
" />
<path d="M69.5160 63.1527
L69.5160 63.3342
" />
<path d="M69.5160 63.3342
L69.4556 63.4551
" />
<path d="M69.4556 63.4551
L69.3951 63.5156
" />
<path d="M69.3951 63.5156
L69.2741 63.5761
" />
<path d="M69.2741 63.5761
L68.7903 63.5761
" />
<path d="M70.0603 64.1808
L70.0603 63.3342
" />
<path d="M70.0603 62.9108
L69.9999 62.9713
" />
<path d="M69.9999 62.9713
L70.0603 63.0318
" />
<path d="M70.0603 63.0318
L70.1208 62.9713
" />
<path d="M70.1208 62.9713
L70.0603 62.9108
" />
<path d="M70.0603 62.9108
L70.0603 63.0318
" />
<path d="M70.6651 63.3342
L70.6651 64.1808
" />
<path d="M70.6651 63.4551
L70.7256 63.3946
" />
<path d="M70.7256 63.3946
L70.8466 63.3342
" />
<path d="M70.8466 63.3342
L71.0280 63.3342
" />
<path d="M71.0280 63.3342
L71.1489 63.3946
" />
<path d="M71.1489 63.3946
L71.2094 63.5156
" />
<path d="M71.2094 63.5156
L71.2094 64.1808
" />
</g></g> 
</svg>
