<?xml version="1.0" standalone="no"?>
 <!DOCTYPE svg PUBLIC "-//W3C//DTD SVG 1.1//EN" 
 "http://www.w3.org/Graphics/SVG/1.1/DTD/svg11.dtd"> 
<svg
  xmlns:svg="http://www.w3.org/2000/svg"
  xmlns="http://www.w3.org/2000/svg"
  xmlns:xlink="http://www.w3.org/1999/xlink"
  version="1.1"
  width="103.6066mm" height="30.1752mm" viewBox="0.0000 0.0000 103.6066 30.1752">
<title>SVG Image created as nmos.svg date 2024/01/16 15:21:32 </title>
  <desc>Image generated by Eeschema-SVG </desc>
<g style="fill:#000000; fill-opacity:1.0000;stroke:#000000; stroke-opacity:1.0000;
stroke-linecap:round; stroke-linejoin:round;"
 transform="translate(0 0) scale(1 1)">
</g>
<g style="fill:#000000; fill-opacity:0.0; 
stroke:#000000; stroke-width:0.0000; stroke-opacity:1; 
stroke-linecap:round; stroke-linejoin:round;">
</g>
<g style="fill:#000000; fill-opacity:0.0; 
stroke:#000000; stroke-width:0.1524; stroke-opacity:1; 
stroke-linecap:round; stroke-linejoin:round;">
<path style="fill:#000000; fill-opacity:0.0; 
stroke:#000000; stroke-width:0.1524; stroke-opacity:1; 
stroke-linecap:round; stroke-linejoin:round;fill:none"
d="M 52.0573,15.0876
49.2633,15.0876
" /> 
</g>
<g style="fill:#000000; fill-opacity:0.0; 
stroke:#000000; stroke-width:0.2540; stroke-opacity:1; 
stroke-linecap:round; stroke-linejoin:round;">
<path style="fill:#000000; fill-opacity:0.0; 
stroke:#000000; stroke-width:0.2540; stroke-opacity:1; 
stroke-linecap:round; stroke-linejoin:round;fill:none"
d="M 52.0573,13.1826
52.0573,16.9926
" /> 
<path style="fill:#000000; fill-opacity:0.0; 
stroke:#000000; stroke-width:0.2540; stroke-opacity:1; 
stroke-linecap:round; stroke-linejoin:round;fill:none"
d="M 52.5653,16.3576
52.5653,17.3736
" /> 
<path style="fill:#000000; fill-opacity:0.0; 
stroke:#000000; stroke-width:0.2540; stroke-opacity:1; 
stroke-linecap:round; stroke-linejoin:round;fill:none"
d="M 52.5653,14.5796
52.5653,15.5956
" /> 
<path style="fill:#000000; fill-opacity:0.0; 
stroke:#000000; stroke-width:0.2540; stroke-opacity:1; 
stroke-linecap:round; stroke-linejoin:round;fill:none"
d="M 52.5653,12.8016
52.5653,13.8176
" /> 
</g>
<g style="fill:#000000; fill-opacity:0.0; 
stroke:#000000; stroke-width:0.1524; stroke-opacity:1; 
stroke-linecap:round; stroke-linejoin:round;">
<path style="fill:#000000; fill-opacity:0.0; 
stroke:#000000; stroke-width:0.1524; stroke-opacity:1; 
stroke-linecap:round; stroke-linejoin:round;fill:none"
d="M 54.3433,12.5476
54.3433,13.3096
" /> 
<path style="fill:#000000; fill-opacity:0.0; 
stroke:#000000; stroke-width:0.1524; stroke-opacity:1; 
stroke-linecap:round; stroke-linejoin:round;fill:none"
d="M 54.3433,17.6276
54.3433,15.0876
52.5653,15.0876
" /> 
<path style="fill:#000000; fill-opacity:0.0; 
stroke:#000000; stroke-width:0.1524; stroke-opacity:1; 
stroke-linecap:round; stroke-linejoin:round;fill:none"
d="M 52.5653,16.8656
55.1053,16.8656
55.1053,13.3096
52.5653,13.3096
" /> 
</g>
<g style="fill:#000000; fill-opacity:1.0000; 
stroke:#000000; stroke-width:0.1524; stroke-opacity:1; 
stroke-linecap:round; stroke-linejoin:round;">
<path style="fill:#000000; fill-opacity:1.0000; 
stroke:#000000; stroke-width:0.1524; stroke-opacity:1; 
stroke-linecap:round; stroke-linejoin:round;fill-rule:evenodd;"
d="M 52.8193,15.0876
53.8353,14.7066
53.8353,15.4686
Z" /> 
</g>
<g style="fill:#000000; fill-opacity:0.0; 
stroke:#000000; stroke-width:0.1524; stroke-opacity:1; 
stroke-linecap:round; stroke-linejoin:round;">
<path style="fill:#000000; fill-opacity:0.0; 
stroke:#000000; stroke-width:0.1524; stroke-opacity:1; 
stroke-linecap:round; stroke-linejoin:round;fill:none"
d="M 54.5973,14.5796
54.7243,14.7066
55.4863,14.7066
55.6133,14.8336
" /> 
<path style="fill:#000000; fill-opacity:0.0; 
stroke:#000000; stroke-width:0.1524; stroke-opacity:1; 
stroke-linecap:round; stroke-linejoin:round;fill:none"
d="M 55.1053,14.7066
54.7243,15.3416
55.4863,15.3416
Z" /> 
</g>
<g style="fill:#000000; fill-opacity:0.0; 
stroke:#000000; stroke-width:0.2540; stroke-opacity:1; 
stroke-linecap:round; stroke-linejoin:round;">
<circle cx="53.4543" cy="15.0876" r="2.7940" /> 
</g>
<g style="fill:#000000; fill-opacity:1.0000; 
stroke:#000000; stroke-width:0.1524; stroke-opacity:1; 
stroke-linecap:round; stroke-linejoin:round;">
<circle cx="54.3433" cy="16.8656" r="0.2540" /> 
<circle cx="54.3433" cy="13.3096" r="0.2540" /> 
</g>
<g style="fill:#000000; fill-opacity:0.0; 
stroke:#000000; stroke-width:0.1524; stroke-opacity:1; 
stroke-linecap:round; stroke-linejoin:round;">
<path d="M54.3433 12.5476
L54.3433 10.0076
" />
<g transform="rotate(-90.000000 54.0893 11.2776)">
<text x="54.0893" y="11.2776"
textLength="1.4732" font-size="1.6933" lengthAdjust="spacingAndGlyphs"
text-anchor="middle" opacity="0">D</text>
</g>
<g class="stroked-text"><desc>D</desc>
<path d="M53.9258 11.6102
L52.6558 11.6102
" />
<path d="M52.6558 11.6102
L52.6558 11.3078
" />
<path d="M52.6558 11.3078
L52.7163 11.1264
" />
<path d="M52.7163 11.1264
L52.8373 11.0054
" />
<path d="M52.8373 11.0054
L52.9582 10.9449
" />
<path d="M52.9582 10.9449
L53.2001 10.8845
" />
<path d="M53.2001 10.8845
L53.3815 10.8845
" />
<path d="M53.3815 10.8845
L53.6234 10.9449
" />
<path d="M53.6234 10.9449
L53.7444 11.0054
" />
<path d="M53.7444 11.0054
L53.8654 11.1264
" />
<path d="M53.8654 11.1264
L53.9258 11.3078
" />
<path d="M53.9258 11.3078
L53.9258 11.6102
" />
</g><path d="M49.2633 15.0876
L46.7233 15.0876
" />
<text x="47.9933" y="14.8336"
textLength="1.4732" font-size="1.6933" lengthAdjust="spacingAndGlyphs"
text-anchor="middle" opacity="0">G</text>
<g class="stroked-text"><desc>G</desc>
<path d="M48.3259 13.4606
L48.2049 13.4001
" />
<path d="M48.2049 13.4001
L48.0235 13.4001
" />
<path d="M48.0235 13.4001
L47.8421 13.4606
" />
<path d="M47.8421 13.4606
L47.7211 13.5816
" />
<path d="M47.7211 13.5816
L47.6606 13.7025
" />
<path d="M47.6606 13.7025
L47.6002 13.9444
" />
<path d="M47.6002 13.9444
L47.6002 14.1258
" />
<path d="M47.6002 14.1258
L47.6606 14.3677
" />
<path d="M47.6606 14.3677
L47.7211 14.4887
" />
<path d="M47.7211 14.4887
L47.8421 14.6097
" />
<path d="M47.8421 14.6097
L48.0235 14.6701
" />
<path d="M48.0235 14.6701
L48.1444 14.6701
" />
<path d="M48.1444 14.6701
L48.3259 14.6097
" />
<path d="M48.3259 14.6097
L48.3863 14.5492
" />
<path d="M48.3863 14.5492
L48.3863 14.1258
" />
<path d="M48.3863 14.1258
L48.1444 14.1258
" />
</g><path d="M54.3433 17.6276
L54.3433 20.1676
" />
<g transform="rotate(-90.000000 54.0893 18.8976)">
<text x="54.0893" y="18.8976"
textLength="1.4127" font-size="1.6933" lengthAdjust="spacingAndGlyphs"
text-anchor="middle" opacity="0">S</text>
</g>
<g class="stroked-text"><desc>S</desc>
<path d="M53.8654 19.2603
L53.9258 19.0789
" />
<path d="M53.9258 19.0789
L53.9258 18.7765
" />
<path d="M53.9258 18.7765
L53.8654 18.6556
" />
<path d="M53.8654 18.6556
L53.8049 18.5951
" />
<path d="M53.8049 18.5951
L53.6839 18.5346
" />
<path d="M53.6839 18.5346
L53.5630 18.5346
" />
<path d="M53.5630 18.5346
L53.4420 18.5951
" />
<path d="M53.4420 18.5951
L53.3815 18.6556
" />
<path d="M53.3815 18.6556
L53.3211 18.7765
" />
<path d="M53.3211 18.7765
L53.2606 19.0184
" />
<path d="M53.2606 19.0184
L53.2001 19.1394
" />
<path d="M53.2001 19.1394
L53.1396 19.1999
" />
<path d="M53.1396 19.1999
L53.0187 19.2603
" />
<path d="M53.0187 19.2603
L52.8977 19.2603
" />
<path d="M52.8977 19.2603
L52.7768 19.1999
" />
<path d="M52.7768 19.1999
L52.7163 19.1394
" />
<path d="M52.7163 19.1394
L52.6558 19.0184
" />
<path d="M52.6558 19.0184
L52.6558 18.7161
" />
<path d="M52.6558 18.7161
L52.7163 18.5346
" />
</g></g>
<g style="fill:#000000; fill-opacity:0.0; 
stroke:#000000; stroke-width:0.1588; stroke-opacity:1; 
stroke-linecap:round; stroke-linejoin:round;">
<text x="58.2040" y="14.4526"
textLength="2.6415" font-size="1.6933" lengthAdjust="spacingAndGlyphs"
text-anchor="middle" opacity="0">Q?</text>
<g class="stroked-text"><desc>Q?</desc>
<path d="M58.1435 14.5178
L58.0225 14.4573
" />
<path d="M58.0225 14.4573
L57.9016 14.3364
" />
<path d="M57.9016 14.3364
L57.7202 14.1549
" />
<path d="M57.7202 14.1549
L57.5992 14.0944
" />
<path d="M57.5992 14.0944
L57.4783 14.0944
" />
<path d="M57.5387 14.3968
L57.4178 14.3364
" />
<path d="M57.4178 14.3364
L57.2968 14.2154
" />
<path d="M57.2968 14.2154
L57.2364 13.9735
" />
<path d="M57.2364 13.9735
L57.2364 13.5502
" />
<path d="M57.2364 13.5502
L57.2968 13.3083
" />
<path d="M57.2968 13.3083
L57.4178 13.1873
" />
<path d="M57.4178 13.1873
L57.5387 13.1268
" />
<path d="M57.5387 13.1268
L57.7806 13.1268
" />
<path d="M57.7806 13.1268
L57.9016 13.1873
" />
<path d="M57.9016 13.1873
L58.0225 13.3083
" />
<path d="M58.0225 13.3083
L58.0830 13.5502
" />
<path d="M58.0830 13.5502
L58.0830 13.9735
" />
<path d="M58.0830 13.9735
L58.0225 14.2154
" />
<path d="M58.0225 14.2154
L57.9016 14.3364
" />
<path d="M57.9016 14.3364
L57.7806 14.3968
" />
<path d="M57.7806 14.3968
L57.5387 14.3968
" />
<path d="M58.8088 14.2759
L58.8692 14.3364
" />
<path d="M58.8692 14.3364
L58.8088 14.3968
" />
<path d="M58.8088 14.3968
L58.7483 14.3364
" />
<path d="M58.7483 14.3364
L58.8088 14.2759
" />
<path d="M58.8088 14.2759
L58.8088 14.3968
" />
<path d="M58.5669 13.1873
L58.6878 13.1268
" />
<path d="M58.6878 13.1268
L58.9902 13.1268
" />
<path d="M58.9902 13.1268
L59.1111 13.1873
" />
<path d="M59.1111 13.1873
L59.1716 13.3083
" />
<path d="M59.1716 13.3083
L59.1716 13.4292
" />
<path d="M59.1716 13.4292
L59.1111 13.5502
" />
<path d="M59.1111 13.5502
L59.0507 13.6106
" />
<path d="M59.0507 13.6106
L58.9297 13.6711
" />
<path d="M58.9297 13.6711
L58.8692 13.7316
" />
<path d="M58.8692 13.7316
L58.8088 13.8525
" />
<path d="M58.8088 13.8525
L58.8088 13.9130
" />
</g><text x="59.6554" y="16.9926"
textLength="5.5443" font-size="1.6933" lengthAdjust="spacingAndGlyphs"
text-anchor="middle" opacity="0">NMOS</text>
<g class="stroked-text"><desc>NMOS</desc>
<path d="M57.2968 16.9368
L57.2968 15.6668
" />
<path d="M57.2968 15.6668
L58.0225 16.9368
" />
<path d="M58.0225 16.9368
L58.0225 15.6668
" />
<path d="M58.6273 16.9368
L58.6273 15.6668
" />
<path d="M58.6273 15.6668
L59.0507 16.5740
" />
<path d="M59.0507 16.5740
L59.4740 15.6668
" />
<path d="M59.4740 15.6668
L59.4740 16.9368
" />
<path d="M60.3206 15.6668
L60.5625 15.6668
" />
<path d="M60.5625 15.6668
L60.6835 15.7273
" />
<path d="M60.6835 15.7273
L60.8044 15.8483
" />
<path d="M60.8044 15.8483
L60.8649 16.0902
" />
<path d="M60.8649 16.0902
L60.8649 16.5135
" />
<path d="M60.8649 16.5135
L60.8044 16.7554
" />
<path d="M60.8044 16.7554
L60.6835 16.8764
" />
<path d="M60.6835 16.8764
L60.5625 16.9368
" />
<path d="M60.5625 16.9368
L60.3206 16.9368
" />
<path d="M60.3206 16.9368
L60.1997 16.8764
" />
<path d="M60.1997 16.8764
L60.0787 16.7554
" />
<path d="M60.0787 16.7554
L60.0183 16.5135
" />
<path d="M60.0183 16.5135
L60.0183 16.0902
" />
<path d="M60.0183 16.0902
L60.0787 15.8483
" />
<path d="M60.0787 15.8483
L60.1997 15.7273
" />
<path d="M60.1997 15.7273
L60.3206 15.6668
" />
<path d="M61.3488 16.8764
L61.5302 16.9368
" />
<path d="M61.5302 16.9368
L61.8326 16.9368
" />
<path d="M61.8326 16.9368
L61.9535 16.8764
" />
<path d="M61.9535 16.8764
L62.0140 16.8159
" />
<path d="M62.0140 16.8159
L62.0745 16.6949
" />
<path d="M62.0745 16.6949
L62.0745 16.5740
" />
<path d="M62.0745 16.5740
L62.0140 16.4530
" />
<path d="M62.0140 16.4530
L61.9535 16.3925
" />
<path d="M61.9535 16.3925
L61.8326 16.3321
" />
<path d="M61.8326 16.3321
L61.5907 16.2716
" />
<path d="M61.5907 16.2716
L61.4697 16.2111
" />
<path d="M61.4697 16.2111
L61.4092 16.1506
" />
<path d="M61.4092 16.1506
L61.3488 16.0297
" />
<path d="M61.3488 16.0297
L61.3488 15.9087
" />
<path d="M61.3488 15.9087
L61.4092 15.7878
" />
<path d="M61.4092 15.7878
L61.4697 15.7273
" />
<path d="M61.4697 15.7273
L61.5907 15.6668
" />
<path d="M61.5907 15.6668
L61.8930 15.6668
" />
<path d="M61.8930 15.6668
L62.0745 15.7273
" />
</g></g> 
</svg>
