<?xml version="1.0" standalone="no"?>
 <!DOCTYPE svg PUBLIC "-//W3C//DTD SVG 1.1//EN" 
 "http://www.w3.org/Graphics/SVG/1.1/DTD/svg11.dtd"> 
<svg
  xmlns:svg="http://www.w3.org/2000/svg"
  xmlns="http://www.w3.org/2000/svg"
  xmlns:xlink="http://www.w3.org/1999/xlink"
  version="1.1"
  width="11.4300mm" height="7.1882mm" viewBox="0.0000 0.0000 11.4300 7.1882">
<title>SVG Image created as Osram_SFH225.svg date 2024/01/16 15:07:03 </title>
  <desc>Image generated by PCBNEW </desc>
<g style="fill:#000000; fill-opacity:1.0000;stroke:#000000; stroke-opacity:1.0000;
stroke-linecap:round; stroke-linejoin:round;"
 transform="translate(0 0) scale(1 1)">
</g>
<g style="fill:#000000; fill-opacity:0.0; 
stroke:#000000; stroke-width:0.0000; stroke-opacity:1; 
stroke-linecap:round; stroke-linejoin:round;">
</g>
<g style="fill:#000000; fill-opacity:1.0000; 
stroke:#000000; stroke-width:0.0212; stroke-opacity:1; 
stroke-linecap:round; stroke-linejoin:round;">
<rect x="-5.000000" y="-5.000000" width="21.440477" height="17.196500" rx="0.000000" />
</g>
<g style="fill:#FFFFFF; fill-opacity:1.0000; 
stroke:#FFFFFF; stroke-width:0.0212; stroke-opacity:1; 
stroke-linecap:round; stroke-linejoin:round;">
<g >
</g>
<g >
</g>
<g >
</g>
<g >
</g>
</g>
<g style="fill:#FFFFFF; fill-opacity:1.0000; 
stroke:#FFFFFF; stroke-width:0.0212; stroke-opacity:1; 
stroke-linecap:round; stroke-linejoin:round;">
<g >
</g>
<g >
</g>
<g >
</g>
<g >
</g>
</g>
<g style="fill:#FFFFFF; fill-opacity:1.0000; 
stroke:#FFFFFF; stroke-width:0.0212; stroke-opacity:1; 
stroke-linecap:round; stroke-linejoin:round;">
<g >
</g>
<g style="fill:#B2803A; fill-opacity:1.0000; 
stroke:#B2803A; stroke-width:0.0212; stroke-opacity:1; 
stroke-linecap:round; stroke-linejoin:round;">
</g>
<g style="fill:#B2803A; fill-opacity:1.0000; 
stroke:#B2803A; stroke-width:0.0000; stroke-opacity:1; 
stroke-linecap:round; stroke-linejoin:round;">
<path style="fill:#B2803A; fill-opacity:1.0000; 
stroke:#B2803A; stroke-width:0.0000; stroke-opacity:1; 
stroke-linecap:round; stroke-linejoin:round;fill-rule:evenodd;"
d="M 3.7202,3.3974
3.7392,3.3021
3.7932,3.2212
3.8741,3.1672
3.9694,3.1482
4.8710,3.1482
4.9664,3.1672
5.0472,3.2212
5.1013,3.3021
5.1202,3.3974
5.1202,4.2990
5.1013,4.3944
5.0472,4.4753
4.9664,4.5293
4.8710,4.5482
3.9694,4.5482
3.8741,4.5293
3.7932,4.4753
3.7392,4.3944
3.7202,4.2990
Z" /> 
<circle cx="6.9802" cy="3.8482" r="0.7000" /> 
</g>
<g style="fill:#B2803A; fill-opacity:1.0000; 
stroke:#B2803A; stroke-width:0.0212; stroke-opacity:1; 
stroke-linecap:round; stroke-linejoin:round;">
</g>
<g >
</g>
<g >
</g>
<g >
</g>
</g>
<g style="fill:#FFFFFF; fill-opacity:1.0000; 
stroke:#FFFFFF; stroke-width:0.0212; stroke-opacity:1; 
stroke-linecap:round; stroke-linejoin:round;">
<g >
</g>
<g style="fill:#0D115E; fill-opacity:1.0000; 
stroke:#0D115E; stroke-width:0.0212; stroke-opacity:1; 
stroke-linecap:round; stroke-linejoin:round;">
</g>
<g style="fill:#0D115E; fill-opacity:1.0000; 
stroke:#0D115E; stroke-width:0.0000; stroke-opacity:1; 
stroke-linecap:round; stroke-linejoin:round;">
<path style="fill:#0D115E; fill-opacity:1.0000; 
stroke:#0D115E; stroke-width:0.0000; stroke-opacity:1; 
stroke-linecap:round; stroke-linejoin:round;fill-rule:evenodd;"
d="M 3.7202,3.3974
3.7392,3.3021
3.7932,3.2212
3.8741,3.1672
3.9694,3.1482
4.8710,3.1482
4.9664,3.1672
5.0472,3.2212
5.1013,3.3021
5.1202,3.3974
5.1202,4.2990
5.1013,4.3944
5.0472,4.4753
4.9664,4.5293
4.8710,4.5482
3.9694,4.5482
3.8741,4.5293
3.7932,4.4753
3.7392,4.3944
3.7202,4.2990
Z" /> 
<circle cx="6.9802" cy="3.8482" r="0.7000" /> 
</g>
<g style="fill:#0D115E; fill-opacity:1.0000; 
stroke:#0D115E; stroke-width:0.0212; stroke-opacity:1; 
stroke-linecap:round; stroke-linejoin:round;">
</g>
<g >
</g>
<g >
</g>
<g >
</g>
</g>
<g style="fill:#FFFFFF; fill-opacity:1.0000; 
stroke:#FFFFFF; stroke-width:0.0212; stroke-opacity:1; 
stroke-linecap:round; stroke-linejoin:round;">
<g >
</g>
<g style="fill:#174D58; fill-opacity:1.0000; 
stroke:#174D58; stroke-width:0.0212; stroke-opacity:1; 
stroke-linecap:round; stroke-linejoin:round;">
</g>
<g style="fill:#174D58; fill-opacity:1.0000; 
stroke:#174D58; stroke-width:0.0000; stroke-opacity:1; 
stroke-linecap:round; stroke-linejoin:round;">
<path style="fill:#174D58; fill-opacity:1.0000; 
stroke:#174D58; stroke-width:0.0000; stroke-opacity:1; 
stroke-linecap:round; stroke-linejoin:round;fill-rule:evenodd;"
d="M 3.7202,3.3974
3.7392,3.3021
3.7932,3.2212
3.8741,3.1672
3.9694,3.1482
4.8710,3.1482
4.9664,3.1672
5.0472,3.2212
5.1013,3.3021
5.1202,3.3974
5.1202,4.2990
5.1013,4.3944
5.0472,4.4753
4.9664,4.5293
4.8710,4.5482
3.9694,4.5482
3.8741,4.5293
3.7932,4.4753
3.7392,4.3944
3.7202,4.2990
Z" /> 
<circle cx="6.9802" cy="3.8482" r="0.7000" /> 
</g>
<g style="fill:#174D58; fill-opacity:1.0000; 
stroke:#174D58; stroke-width:0.0212; stroke-opacity:1; 
stroke-linecap:round; stroke-linejoin:round;">
</g>
<g >
</g>
<g >
</g>
<g >
</g>
</g>
<g style="fill:#FFFFFF; fill-opacity:1.0000; 
stroke:#FFFFFF; stroke-width:0.0212; stroke-opacity:1; 
stroke-linecap:round; stroke-linejoin:round;">
<g >
</g>
<g style="fill:#D73226; fill-opacity:1.0000; 
stroke:#D73226; stroke-width:0.0212; stroke-opacity:1; 
stroke-linecap:round; stroke-linejoin:round;">
</g>
<g style="fill:#D73226; fill-opacity:1.0000; 
stroke:#D73226; stroke-width:0.0000; stroke-opacity:1; 
stroke-linecap:round; stroke-linejoin:round;">
<path style="fill:#D73226; fill-opacity:1.0000; 
stroke:#D73226; stroke-width:0.0000; stroke-opacity:1; 
stroke-linecap:round; stroke-linejoin:round;fill-rule:evenodd;"
d="M 3.7202,3.3974
3.7392,3.3021
3.7932,3.2212
3.8741,3.1672
3.9694,3.1482
4.8710,3.1482
4.9664,3.1672
5.0472,3.2212
5.1013,3.3021
5.1202,3.3974
5.1202,4.2990
5.1013,4.3944
5.0472,4.4753
4.9664,4.5293
4.8710,4.5482
3.9694,4.5482
3.8741,4.5293
3.7932,4.4753
3.7392,4.3944
3.7202,4.2990
Z" /> 
<circle cx="6.9802" cy="3.8482" r="0.7000" /> 
</g>
<g style="fill:#D73226; fill-opacity:1.0000; 
stroke:#D73226; stroke-width:0.0212; stroke-opacity:1; 
stroke-linecap:round; stroke-linejoin:round;">
</g>
<g >
</g>
<g >
</g>
<g >
</g>
</g>
<g style="fill:#FFFFFF; fill-opacity:1.0000; 
stroke:#FFFFFF; stroke-width:0.0212; stroke-opacity:1; 
stroke-linecap:round; stroke-linejoin:round;">
<g >
</g>
<g style="fill:#585938; fill-opacity:1.0000; 
stroke:#585938; stroke-width:0.0212; stroke-opacity:1; 
stroke-linecap:round; stroke-linejoin:round;">
</g>
<g style="fill:#585938; fill-opacity:1.0000; 
stroke:#585938; stroke-width:0.0000; stroke-opacity:1; 
stroke-linecap:round; stroke-linejoin:round;">
<path style="fill:#585938; fill-opacity:1.0000; 
stroke:#585938; stroke-width:0.0000; stroke-opacity:1; 
stroke-linecap:round; stroke-linejoin:round;fill-rule:evenodd;"
d="M 3.7202,3.3974
3.7392,3.3021
3.7932,3.2212
3.8741,3.1672
3.9694,3.1482
4.8710,3.1482
4.9664,3.1672
5.0472,3.2212
5.1013,3.3021
5.1202,3.3974
5.1202,4.2990
5.1013,4.3944
5.0472,4.4753
4.9664,4.5293
4.8710,4.5482
3.9694,4.5482
3.8741,4.5293
3.7932,4.4753
3.7392,4.3944
3.7202,4.2990
Z" /> 
<circle cx="6.9802" cy="3.8482" r="0.7000" /> 
</g>
<g style="fill:#585938; fill-opacity:1.0000; 
stroke:#585938; stroke-width:0.0212; stroke-opacity:1; 
stroke-linecap:round; stroke-linejoin:round;">
</g>
<g >
</g>
<g >
</g>
<g >
</g>
</g>
<g style="fill:#FFFFFF; fill-opacity:1.0000; 
stroke:#FFFFFF; stroke-width:0.0212; stroke-opacity:1; 
stroke-linecap:round; stroke-linejoin:round;">
<g >
</g>
<g style="fill:#089071; fill-opacity:1.0000; 
stroke:#089071; stroke-width:0.0212; stroke-opacity:1; 
stroke-linecap:round; stroke-linejoin:round;">
</g>
<g style="fill:#089071; fill-opacity:1.0000; 
stroke:#089071; stroke-width:0.0000; stroke-opacity:1; 
stroke-linecap:round; stroke-linejoin:round;">
<path style="fill:#089071; fill-opacity:1.0000; 
stroke:#089071; stroke-width:0.0000; stroke-opacity:1; 
stroke-linecap:round; stroke-linejoin:round;fill-rule:evenodd;"
d="M 3.7202,3.3974
3.7392,3.3021
3.7932,3.2212
3.8741,3.1672
3.9694,3.1482
4.8710,3.1482
4.9664,3.1672
5.0472,3.2212
5.1013,3.3021
5.1202,3.3974
5.1202,4.2990
5.1013,4.3944
5.0472,4.4753
4.9664,4.5293
4.8710,4.5482
3.9694,4.5482
3.8741,4.5293
3.7932,4.4753
3.7392,4.3944
3.7202,4.2990
Z" /> 
<circle cx="6.9802" cy="3.8482" r="0.7000" /> 
</g>
<g style="fill:#089071; fill-opacity:1.0000; 
stroke:#089071; stroke-width:0.0212; stroke-opacity:1; 
stroke-linecap:round; stroke-linejoin:round;">
</g>
<g >
</g>
<g >
</g>
<g >
</g>
</g>
<g style="fill:#FFFFFF; fill-opacity:1.0000; 
stroke:#FFFFFF; stroke-width:0.0212; stroke-opacity:1; 
stroke-linecap:round; stroke-linejoin:round;">
<g >
</g>
<g style="fill:#A33C14; fill-opacity:1.0000; 
stroke:#A33C14; stroke-width:0.0212; stroke-opacity:1; 
stroke-linecap:round; stroke-linejoin:round;">
</g>
<g style="fill:#A33C14; fill-opacity:1.0000; 
stroke:#A33C14; stroke-width:0.0000; stroke-opacity:1; 
stroke-linecap:round; stroke-linejoin:round;">
<path style="fill:#A33C14; fill-opacity:1.0000; 
stroke:#A33C14; stroke-width:0.0000; stroke-opacity:1; 
stroke-linecap:round; stroke-linejoin:round;fill-rule:evenodd;"
d="M 3.7202,3.3974
3.7392,3.3021
3.7932,3.2212
3.8741,3.1672
3.9694,3.1482
4.8710,3.1482
4.9664,3.1672
5.0472,3.2212
5.1013,3.3021
5.1202,3.3974
5.1202,4.2990
5.1013,4.3944
5.0472,4.4753
4.9664,4.5293
4.8710,4.5482
3.9694,4.5482
3.8741,4.5293
3.7932,4.4753
3.7392,4.3944
3.7202,4.2990
Z" /> 
<circle cx="6.9802" cy="3.8482" r="0.7000" /> 
</g>
<g style="fill:#A33C14; fill-opacity:1.0000; 
stroke:#A33C14; stroke-width:0.0212; stroke-opacity:1; 
stroke-linecap:round; stroke-linejoin:round;">
</g>
<g >
</g>
<g >
</g>
<g >
</g>
</g>
<g style="fill:#FFFFFF; fill-opacity:1.0000; 
stroke:#FFFFFF; stroke-width:0.0212; stroke-opacity:1; 
stroke-linecap:round; stroke-linejoin:round;">
<g >
</g>
<g style="fill:#1183CC; fill-opacity:1.0000; 
stroke:#1183CC; stroke-width:0.0212; stroke-opacity:1; 
stroke-linecap:round; stroke-linejoin:round;">
</g>
<g style="fill:#1183CC; fill-opacity:1.0000; 
stroke:#1183CC; stroke-width:0.0000; stroke-opacity:1; 
stroke-linecap:round; stroke-linejoin:round;">
<path style="fill:#1183CC; fill-opacity:1.0000; 
stroke:#1183CC; stroke-width:0.0000; stroke-opacity:1; 
stroke-linecap:round; stroke-linejoin:round;fill-rule:evenodd;"
d="M 3.7202,3.3974
3.7392,3.3021
3.7932,3.2212
3.8741,3.1672
3.9694,3.1482
4.8710,3.1482
4.9664,3.1672
5.0472,3.2212
5.1013,3.3021
5.1202,3.3974
5.1202,4.2990
5.1013,4.3944
5.0472,4.4753
4.9664,4.5293
4.8710,4.5482
3.9694,4.5482
3.8741,4.5293
3.7932,4.4753
3.7392,4.3944
3.7202,4.2990
Z" /> 
<circle cx="6.9802" cy="3.8482" r="0.7000" /> 
</g>
<g style="fill:#1183CC; fill-opacity:1.0000; 
stroke:#1183CC; stroke-width:0.0212; stroke-opacity:1; 
stroke-linecap:round; stroke-linejoin:round;">
</g>
<g >
</g>
<g >
</g>
<g >
</g>
</g>
<g style="fill:#FFFFFF; fill-opacity:1.0000; 
stroke:#FFFFFF; stroke-width:0.0212; stroke-opacity:1; 
stroke-linecap:round; stroke-linejoin:round;">
<g >
</g>
<g style="fill:#0D115E; fill-opacity:1.0000; 
stroke:#0D115E; stroke-width:0.0212; stroke-opacity:1; 
stroke-linecap:round; stroke-linejoin:round;">
</g>
<g style="fill:#0D115E; fill-opacity:1.0000; 
stroke:#0D115E; stroke-width:0.0000; stroke-opacity:1; 
stroke-linecap:round; stroke-linejoin:round;">
<path style="fill:#0D115E; fill-opacity:1.0000; 
stroke:#0D115E; stroke-width:0.0000; stroke-opacity:1; 
stroke-linecap:round; stroke-linejoin:round;fill-rule:evenodd;"
d="M 3.7202,3.3974
3.7392,3.3021
3.7932,3.2212
3.8741,3.1672
3.9694,3.1482
4.8710,3.1482
4.9664,3.1672
5.0472,3.2212
5.1013,3.3021
5.1202,3.3974
5.1202,4.2990
5.1013,4.3944
5.0472,4.4753
4.9664,4.5293
4.8710,4.5482
3.9694,4.5482
3.8741,4.5293
3.7932,4.4753
3.7392,4.3944
3.7202,4.2990
Z" /> 
<circle cx="6.9802" cy="3.8482" r="0.7000" /> 
</g>
<g style="fill:#0D115E; fill-opacity:1.0000; 
stroke:#0D115E; stroke-width:0.0212; stroke-opacity:1; 
stroke-linecap:round; stroke-linejoin:round;">
</g>
<g >
</g>
<g >
</g>
<g >
</g>
</g>
<g style="fill:#FFFFFF; fill-opacity:1.0000; 
stroke:#FFFFFF; stroke-width:0.0212; stroke-opacity:1; 
stroke-linecap:round; stroke-linejoin:round;">
<g >
</g>
<g style="fill:#174D58; fill-opacity:1.0000; 
stroke:#174D58; stroke-width:0.0212; stroke-opacity:1; 
stroke-linecap:round; stroke-linejoin:round;">
</g>
<g style="fill:#174D58; fill-opacity:1.0000; 
stroke:#174D58; stroke-width:0.0000; stroke-opacity:1; 
stroke-linecap:round; stroke-linejoin:round;">
<path style="fill:#174D58; fill-opacity:1.0000; 
stroke:#174D58; stroke-width:0.0000; stroke-opacity:1; 
stroke-linecap:round; stroke-linejoin:round;fill-rule:evenodd;"
d="M 3.7202,3.3974
3.7392,3.3021
3.7932,3.2212
3.8741,3.1672
3.9694,3.1482
4.8710,3.1482
4.9664,3.1672
5.0472,3.2212
5.1013,3.3021
5.1202,3.3974
5.1202,4.2990
5.1013,4.3944
5.0472,4.4753
4.9664,4.5293
4.8710,4.5482
3.9694,4.5482
3.8741,4.5293
3.7932,4.4753
3.7392,4.3944
3.7202,4.2990
Z" /> 
<circle cx="6.9802" cy="3.8482" r="0.7000" /> 
</g>
<g style="fill:#174D58; fill-opacity:1.0000; 
stroke:#174D58; stroke-width:0.0212; stroke-opacity:1; 
stroke-linecap:round; stroke-linejoin:round;">
</g>
<g >
</g>
<g >
</g>
<g >
</g>
</g>
<g style="fill:#FFFFFF; fill-opacity:1.0000; 
stroke:#FFFFFF; stroke-width:0.0212; stroke-opacity:1; 
stroke-linecap:round; stroke-linejoin:round;">
<g >
</g>
<g style="fill:#D73226; fill-opacity:1.0000; 
stroke:#D73226; stroke-width:0.0212; stroke-opacity:1; 
stroke-linecap:round; stroke-linejoin:round;">
</g>
<g style="fill:#D73226; fill-opacity:1.0000; 
stroke:#D73226; stroke-width:0.0000; stroke-opacity:1; 
stroke-linecap:round; stroke-linejoin:round;">
<path style="fill:#D73226; fill-opacity:1.0000; 
stroke:#D73226; stroke-width:0.0000; stroke-opacity:1; 
stroke-linecap:round; stroke-linejoin:round;fill-rule:evenodd;"
d="M 3.7202,3.3974
3.7392,3.3021
3.7932,3.2212
3.8741,3.1672
3.9694,3.1482
4.8710,3.1482
4.9664,3.1672
5.0472,3.2212
5.1013,3.3021
5.1202,3.3974
5.1202,4.2990
5.1013,4.3944
5.0472,4.4753
4.9664,4.5293
4.8710,4.5482
3.9694,4.5482
3.8741,4.5293
3.7932,4.4753
3.7392,4.3944
3.7202,4.2990
Z" /> 
<circle cx="6.9802" cy="3.8482" r="0.7000" /> 
</g>
<g style="fill:#D73226; fill-opacity:1.0000; 
stroke:#D73226; stroke-width:0.0212; stroke-opacity:1; 
stroke-linecap:round; stroke-linejoin:round;">
</g>
<g >
</g>
<g >
</g>
<g >
</g>
</g>
<g style="fill:#FFFFFF; fill-opacity:1.0000; 
stroke:#FFFFFF; stroke-width:0.0212; stroke-opacity:1; 
stroke-linecap:round; stroke-linejoin:round;">
<g >
</g>
<g style="fill:#585938; fill-opacity:1.0000; 
stroke:#585938; stroke-width:0.0212; stroke-opacity:1; 
stroke-linecap:round; stroke-linejoin:round;">
</g>
<g style="fill:#585938; fill-opacity:1.0000; 
stroke:#585938; stroke-width:0.0000; stroke-opacity:1; 
stroke-linecap:round; stroke-linejoin:round;">
<path style="fill:#585938; fill-opacity:1.0000; 
stroke:#585938; stroke-width:0.0000; stroke-opacity:1; 
stroke-linecap:round; stroke-linejoin:round;fill-rule:evenodd;"
d="M 3.7202,3.3974
3.7392,3.3021
3.7932,3.2212
3.8741,3.1672
3.9694,3.1482
4.8710,3.1482
4.9664,3.1672
5.0472,3.2212
5.1013,3.3021
5.1202,3.3974
5.1202,4.2990
5.1013,4.3944
5.0472,4.4753
4.9664,4.5293
4.8710,4.5482
3.9694,4.5482
3.8741,4.5293
3.7932,4.4753
3.7392,4.3944
3.7202,4.2990
Z" /> 
<circle cx="6.9802" cy="3.8482" r="0.7000" /> 
</g>
<g style="fill:#585938; fill-opacity:1.0000; 
stroke:#585938; stroke-width:0.0212; stroke-opacity:1; 
stroke-linecap:round; stroke-linejoin:round;">
</g>
<g >
</g>
<g >
</g>
<g >
</g>
</g>
<g style="fill:#FFFFFF; fill-opacity:1.0000; 
stroke:#FFFFFF; stroke-width:0.0212; stroke-opacity:1; 
stroke-linecap:round; stroke-linejoin:round;">
<g >
</g>
<g style="fill:#089071; fill-opacity:1.0000; 
stroke:#089071; stroke-width:0.0212; stroke-opacity:1; 
stroke-linecap:round; stroke-linejoin:round;">
</g>
<g style="fill:#089071; fill-opacity:1.0000; 
stroke:#089071; stroke-width:0.0000; stroke-opacity:1; 
stroke-linecap:round; stroke-linejoin:round;">
<path style="fill:#089071; fill-opacity:1.0000; 
stroke:#089071; stroke-width:0.0000; stroke-opacity:1; 
stroke-linecap:round; stroke-linejoin:round;fill-rule:evenodd;"
d="M 3.7202,3.3974
3.7392,3.3021
3.7932,3.2212
3.8741,3.1672
3.9694,3.1482
4.8710,3.1482
4.9664,3.1672
5.0472,3.2212
5.1013,3.3021
5.1202,3.3974
5.1202,4.2990
5.1013,4.3944
5.0472,4.4753
4.9664,4.5293
4.8710,4.5482
3.9694,4.5482
3.8741,4.5293
3.7932,4.4753
3.7392,4.3944
3.7202,4.2990
Z" /> 
<circle cx="6.9802" cy="3.8482" r="0.7000" /> 
</g>
<g style="fill:#089071; fill-opacity:1.0000; 
stroke:#089071; stroke-width:0.0212; stroke-opacity:1; 
stroke-linecap:round; stroke-linejoin:round;">
</g>
<g >
</g>
<g >
</g>
<g >
</g>
</g>
<g style="fill:#FFFFFF; fill-opacity:1.0000; 
stroke:#FFFFFF; stroke-width:0.0212; stroke-opacity:1; 
stroke-linecap:round; stroke-linejoin:round;">
<g >
</g>
<g style="fill:#A33C14; fill-opacity:1.0000; 
stroke:#A33C14; stroke-width:0.0212; stroke-opacity:1; 
stroke-linecap:round; stroke-linejoin:round;">
</g>
<g style="fill:#A33C14; fill-opacity:1.0000; 
stroke:#A33C14; stroke-width:0.0000; stroke-opacity:1; 
stroke-linecap:round; stroke-linejoin:round;">
<path style="fill:#A33C14; fill-opacity:1.0000; 
stroke:#A33C14; stroke-width:0.0000; stroke-opacity:1; 
stroke-linecap:round; stroke-linejoin:round;fill-rule:evenodd;"
d="M 3.7202,3.3974
3.7392,3.3021
3.7932,3.2212
3.8741,3.1672
3.9694,3.1482
4.8710,3.1482
4.9664,3.1672
5.0472,3.2212
5.1013,3.3021
5.1202,3.3974
5.1202,4.2990
5.1013,4.3944
5.0472,4.4753
4.9664,4.5293
4.8710,4.5482
3.9694,4.5482
3.8741,4.5293
3.7932,4.4753
3.7392,4.3944
3.7202,4.2990
Z" /> 
<circle cx="6.9802" cy="3.8482" r="0.7000" /> 
</g>
<g style="fill:#A33C14; fill-opacity:1.0000; 
stroke:#A33C14; stroke-width:0.0212; stroke-opacity:1; 
stroke-linecap:round; stroke-linejoin:round;">
</g>
<g >
</g>
<g >
</g>
<g >
</g>
</g>
<g style="fill:#FFFFFF; fill-opacity:1.0000; 
stroke:#FFFFFF; stroke-width:0.0212; stroke-opacity:1; 
stroke-linecap:round; stroke-linejoin:round;">
<g >
</g>
<g style="fill:#1183CC; fill-opacity:1.0000; 
stroke:#1183CC; stroke-width:0.0212; stroke-opacity:1; 
stroke-linecap:round; stroke-linejoin:round;">
</g>
<g style="fill:#1183CC; fill-opacity:1.0000; 
stroke:#1183CC; stroke-width:0.0000; stroke-opacity:1; 
stroke-linecap:round; stroke-linejoin:round;">
<path style="fill:#1183CC; fill-opacity:1.0000; 
stroke:#1183CC; stroke-width:0.0000; stroke-opacity:1; 
stroke-linecap:round; stroke-linejoin:round;fill-rule:evenodd;"
d="M 3.7202,3.3974
3.7392,3.3021
3.7932,3.2212
3.8741,3.1672
3.9694,3.1482
4.8710,3.1482
4.9664,3.1672
5.0472,3.2212
5.1013,3.3021
5.1202,3.3974
5.1202,4.2990
5.1013,4.3944
5.0472,4.4753
4.9664,4.5293
4.8710,4.5482
3.9694,4.5482
3.8741,4.5293
3.7932,4.4753
3.7392,4.3944
3.7202,4.2990
Z" /> 
<circle cx="6.9802" cy="3.8482" r="0.7000" /> 
</g>
<g style="fill:#1183CC; fill-opacity:1.0000; 
stroke:#1183CC; stroke-width:0.0212; stroke-opacity:1; 
stroke-linecap:round; stroke-linejoin:round;">
</g>
<g >
</g>
<g >
</g>
<g >
</g>
</g>
<g style="fill:#FFFFFF; fill-opacity:1.0000; 
stroke:#FFFFFF; stroke-width:0.0212; stroke-opacity:1; 
stroke-linecap:round; stroke-linejoin:round;">
<g >
</g>
<g style="fill:#0D115E; fill-opacity:1.0000; 
stroke:#0D115E; stroke-width:0.0212; stroke-opacity:1; 
stroke-linecap:round; stroke-linejoin:round;">
</g>
<g style="fill:#0D115E; fill-opacity:1.0000; 
stroke:#0D115E; stroke-width:0.0000; stroke-opacity:1; 
stroke-linecap:round; stroke-linejoin:round;">
<path style="fill:#0D115E; fill-opacity:1.0000; 
stroke:#0D115E; stroke-width:0.0000; stroke-opacity:1; 
stroke-linecap:round; stroke-linejoin:round;fill-rule:evenodd;"
d="M 3.7202,3.3974
3.7392,3.3021
3.7932,3.2212
3.8741,3.1672
3.9694,3.1482
4.8710,3.1482
4.9664,3.1672
5.0472,3.2212
5.1013,3.3021
5.1202,3.3974
5.1202,4.2990
5.1013,4.3944
5.0472,4.4753
4.9664,4.5293
4.8710,4.5482
3.9694,4.5482
3.8741,4.5293
3.7932,4.4753
3.7392,4.3944
3.7202,4.2990
Z" /> 
<circle cx="6.9802" cy="3.8482" r="0.7000" /> 
</g>
<g style="fill:#0D115E; fill-opacity:1.0000; 
stroke:#0D115E; stroke-width:0.0212; stroke-opacity:1; 
stroke-linecap:round; stroke-linejoin:round;">
</g>
<g >
</g>
<g >
</g>
<g >
</g>
</g>
<g style="fill:#FFFFFF; fill-opacity:1.0000; 
stroke:#FFFFFF; stroke-width:0.0212; stroke-opacity:1; 
stroke-linecap:round; stroke-linejoin:round;">
<g >
</g>
<g style="fill:#174D58; fill-opacity:1.0000; 
stroke:#174D58; stroke-width:0.0212; stroke-opacity:1; 
stroke-linecap:round; stroke-linejoin:round;">
</g>
<g style="fill:#174D58; fill-opacity:1.0000; 
stroke:#174D58; stroke-width:0.0000; stroke-opacity:1; 
stroke-linecap:round; stroke-linejoin:round;">
<path style="fill:#174D58; fill-opacity:1.0000; 
stroke:#174D58; stroke-width:0.0000; stroke-opacity:1; 
stroke-linecap:round; stroke-linejoin:round;fill-rule:evenodd;"
d="M 3.7202,3.3974
3.7392,3.3021
3.7932,3.2212
3.8741,3.1672
3.9694,3.1482
4.8710,3.1482
4.9664,3.1672
5.0472,3.2212
5.1013,3.3021
5.1202,3.3974
5.1202,4.2990
5.1013,4.3944
5.0472,4.4753
4.9664,4.5293
4.8710,4.5482
3.9694,4.5482
3.8741,4.5293
3.7932,4.4753
3.7392,4.3944
3.7202,4.2990
Z" /> 
<circle cx="6.9802" cy="3.8482" r="0.7000" /> 
</g>
<g style="fill:#174D58; fill-opacity:1.0000; 
stroke:#174D58; stroke-width:0.0212; stroke-opacity:1; 
stroke-linecap:round; stroke-linejoin:round;">
</g>
<g >
</g>
<g >
</g>
<g >
</g>
</g>
<g style="fill:#FFFFFF; fill-opacity:1.0000; 
stroke:#FFFFFF; stroke-width:0.0212; stroke-opacity:1; 
stroke-linecap:round; stroke-linejoin:round;">
<g >
</g>
<g style="fill:#D73226; fill-opacity:1.0000; 
stroke:#D73226; stroke-width:0.0212; stroke-opacity:1; 
stroke-linecap:round; stroke-linejoin:round;">
</g>
<g style="fill:#D73226; fill-opacity:1.0000; 
stroke:#D73226; stroke-width:0.0000; stroke-opacity:1; 
stroke-linecap:round; stroke-linejoin:round;">
<path style="fill:#D73226; fill-opacity:1.0000; 
stroke:#D73226; stroke-width:0.0000; stroke-opacity:1; 
stroke-linecap:round; stroke-linejoin:round;fill-rule:evenodd;"
d="M 3.7202,3.3974
3.7392,3.3021
3.7932,3.2212
3.8741,3.1672
3.9694,3.1482
4.8710,3.1482
4.9664,3.1672
5.0472,3.2212
5.1013,3.3021
5.1202,3.3974
5.1202,4.2990
5.1013,4.3944
5.0472,4.4753
4.9664,4.5293
4.8710,4.5482
3.9694,4.5482
3.8741,4.5293
3.7932,4.4753
3.7392,4.3944
3.7202,4.2990
Z" /> 
<circle cx="6.9802" cy="3.8482" r="0.7000" /> 
</g>
<g style="fill:#D73226; fill-opacity:1.0000; 
stroke:#D73226; stroke-width:0.0212; stroke-opacity:1; 
stroke-linecap:round; stroke-linejoin:round;">
</g>
<g >
</g>
<g >
</g>
<g >
</g>
</g>
<g style="fill:#FFFFFF; fill-opacity:1.0000; 
stroke:#FFFFFF; stroke-width:0.0212; stroke-opacity:1; 
stroke-linecap:round; stroke-linejoin:round;">
<g >
</g>
<g style="fill:#585938; fill-opacity:1.0000; 
stroke:#585938; stroke-width:0.0212; stroke-opacity:1; 
stroke-linecap:round; stroke-linejoin:round;">
</g>
<g style="fill:#585938; fill-opacity:1.0000; 
stroke:#585938; stroke-width:0.0000; stroke-opacity:1; 
stroke-linecap:round; stroke-linejoin:round;">
<path style="fill:#585938; fill-opacity:1.0000; 
stroke:#585938; stroke-width:0.0000; stroke-opacity:1; 
stroke-linecap:round; stroke-linejoin:round;fill-rule:evenodd;"
d="M 3.7202,3.3974
3.7392,3.3021
3.7932,3.2212
3.8741,3.1672
3.9694,3.1482
4.8710,3.1482
4.9664,3.1672
5.0472,3.2212
5.1013,3.3021
5.1202,3.3974
5.1202,4.2990
5.1013,4.3944
5.0472,4.4753
4.9664,4.5293
4.8710,4.5482
3.9694,4.5482
3.8741,4.5293
3.7932,4.4753
3.7392,4.3944
3.7202,4.2990
Z" /> 
<circle cx="6.9802" cy="3.8482" r="0.7000" /> 
</g>
<g style="fill:#585938; fill-opacity:1.0000; 
stroke:#585938; stroke-width:0.0212; stroke-opacity:1; 
stroke-linecap:round; stroke-linejoin:round;">
</g>
<g >
</g>
<g >
</g>
<g >
</g>
</g>
<g style="fill:#FFFFFF; fill-opacity:1.0000; 
stroke:#FFFFFF; stroke-width:0.0212; stroke-opacity:1; 
stroke-linecap:round; stroke-linejoin:round;">
<g >
</g>
<g style="fill:#089071; fill-opacity:1.0000; 
stroke:#089071; stroke-width:0.0212; stroke-opacity:1; 
stroke-linecap:round; stroke-linejoin:round;">
</g>
<g style="fill:#089071; fill-opacity:1.0000; 
stroke:#089071; stroke-width:0.0000; stroke-opacity:1; 
stroke-linecap:round; stroke-linejoin:round;">
<path style="fill:#089071; fill-opacity:1.0000; 
stroke:#089071; stroke-width:0.0000; stroke-opacity:1; 
stroke-linecap:round; stroke-linejoin:round;fill-rule:evenodd;"
d="M 3.7202,3.3974
3.7392,3.3021
3.7932,3.2212
3.8741,3.1672
3.9694,3.1482
4.8710,3.1482
4.9664,3.1672
5.0472,3.2212
5.1013,3.3021
5.1202,3.3974
5.1202,4.2990
5.1013,4.3944
5.0472,4.4753
4.9664,4.5293
4.8710,4.5482
3.9694,4.5482
3.8741,4.5293
3.7932,4.4753
3.7392,4.3944
3.7202,4.2990
Z" /> 
<circle cx="6.9802" cy="3.8482" r="0.7000" /> 
</g>
<g style="fill:#089071; fill-opacity:1.0000; 
stroke:#089071; stroke-width:0.0212; stroke-opacity:1; 
stroke-linecap:round; stroke-linejoin:round;">
</g>
<g >
</g>
<g >
</g>
<g >
</g>
</g>
<g style="fill:#FFFFFF; fill-opacity:1.0000; 
stroke:#FFFFFF; stroke-width:0.0212; stroke-opacity:1; 
stroke-linecap:round; stroke-linejoin:round;">
<g >
</g>
<g style="fill:#A33C14; fill-opacity:1.0000; 
stroke:#A33C14; stroke-width:0.0212; stroke-opacity:1; 
stroke-linecap:round; stroke-linejoin:round;">
</g>
<g style="fill:#A33C14; fill-opacity:1.0000; 
stroke:#A33C14; stroke-width:0.0000; stroke-opacity:1; 
stroke-linecap:round; stroke-linejoin:round;">
<path style="fill:#A33C14; fill-opacity:1.0000; 
stroke:#A33C14; stroke-width:0.0000; stroke-opacity:1; 
stroke-linecap:round; stroke-linejoin:round;fill-rule:evenodd;"
d="M 3.7202,3.3974
3.7392,3.3021
3.7932,3.2212
3.8741,3.1672
3.9694,3.1482
4.8710,3.1482
4.9664,3.1672
5.0472,3.2212
5.1013,3.3021
5.1202,3.3974
5.1202,4.2990
5.1013,4.3944
5.0472,4.4753
4.9664,4.5293
4.8710,4.5482
3.9694,4.5482
3.8741,4.5293
3.7932,4.4753
3.7392,4.3944
3.7202,4.2990
Z" /> 
<circle cx="6.9802" cy="3.8482" r="0.7000" /> 
</g>
<g style="fill:#A33C14; fill-opacity:1.0000; 
stroke:#A33C14; stroke-width:0.0212; stroke-opacity:1; 
stroke-linecap:round; stroke-linejoin:round;">
</g>
<g >
</g>
<g >
</g>
<g >
</g>
</g>
<g style="fill:#FFFFFF; fill-opacity:1.0000; 
stroke:#FFFFFF; stroke-width:0.0212; stroke-opacity:1; 
stroke-linecap:round; stroke-linejoin:round;">
<g >
</g>
<g style="fill:#1183CC; fill-opacity:1.0000; 
stroke:#1183CC; stroke-width:0.0212; stroke-opacity:1; 
stroke-linecap:round; stroke-linejoin:round;">
</g>
<g style="fill:#1183CC; fill-opacity:1.0000; 
stroke:#1183CC; stroke-width:0.0000; stroke-opacity:1; 
stroke-linecap:round; stroke-linejoin:round;">
<path style="fill:#1183CC; fill-opacity:1.0000; 
stroke:#1183CC; stroke-width:0.0000; stroke-opacity:1; 
stroke-linecap:round; stroke-linejoin:round;fill-rule:evenodd;"
d="M 3.7202,3.3974
3.7392,3.3021
3.7932,3.2212
3.8741,3.1672
3.9694,3.1482
4.8710,3.1482
4.9664,3.1672
5.0472,3.2212
5.1013,3.3021
5.1202,3.3974
5.1202,4.2990
5.1013,4.3944
5.0472,4.4753
4.9664,4.5293
4.8710,4.5482
3.9694,4.5482
3.8741,4.5293
3.7932,4.4753
3.7392,4.3944
3.7202,4.2990
Z" /> 
<circle cx="6.9802" cy="3.8482" r="0.7000" /> 
</g>
<g style="fill:#1183CC; fill-opacity:1.0000; 
stroke:#1183CC; stroke-width:0.0212; stroke-opacity:1; 
stroke-linecap:round; stroke-linejoin:round;">
</g>
<g >
</g>
<g >
</g>
<g >
</g>
</g>
<g style="fill:#FFFFFF; fill-opacity:1.0000; 
stroke:#FFFFFF; stroke-width:0.0212; stroke-opacity:1; 
stroke-linecap:round; stroke-linejoin:round;">
<g >
</g>
<g style="fill:#71347E; fill-opacity:1.0000; 
stroke:#71347E; stroke-width:0.0212; stroke-opacity:1; 
stroke-linecap:round; stroke-linejoin:round;">
</g>
<g style="fill:#71347E; fill-opacity:1.0000; 
stroke:#71347E; stroke-width:0.0000; stroke-opacity:1; 
stroke-linecap:round; stroke-linejoin:round;">
<path style="fill:#71347E; fill-opacity:1.0000; 
stroke:#71347E; stroke-width:0.0000; stroke-opacity:1; 
stroke-linecap:round; stroke-linejoin:round;fill-rule:evenodd;"
d="M 3.7202,3.3974
3.7392,3.3021
3.7932,3.2212
3.8741,3.1672
3.9694,3.1482
4.8710,3.1482
4.9664,3.1672
5.0472,3.2212
5.1013,3.3021
5.1202,3.3974
5.1202,4.2990
5.1013,4.3944
5.0472,4.4753
4.9664,4.5293
4.8710,4.5482
3.9694,4.5482
3.8741,4.5293
3.7932,4.4753
3.7392,4.3944
3.7202,4.2990
Z" /> 
<circle cx="6.9802" cy="3.8482" r="0.7000" /> 
</g>
<g style="fill:#71347E; fill-opacity:1.0000; 
stroke:#71347E; stroke-width:0.0212; stroke-opacity:1; 
stroke-linecap:round; stroke-linejoin:round;">
</g>
<g >
</g>
<g >
</g>
<g >
</g>
</g>
<g style="fill:#FFFFFF; fill-opacity:1.0000; 
stroke:#FFFFFF; stroke-width:0.0212; stroke-opacity:1; 
stroke-linecap:round; stroke-linejoin:round;">
<g >
</g>
<g style="fill:#0D115E; fill-opacity:1.0000; 
stroke:#0D115E; stroke-width:0.0212; stroke-opacity:1; 
stroke-linecap:round; stroke-linejoin:round;">
</g>
<g style="fill:#0D115E; fill-opacity:1.0000; 
stroke:#0D115E; stroke-width:0.0000; stroke-opacity:1; 
stroke-linecap:round; stroke-linejoin:round;">
<path style="fill:#0D115E; fill-opacity:1.0000; 
stroke:#0D115E; stroke-width:0.0000; stroke-opacity:1; 
stroke-linecap:round; stroke-linejoin:round;fill-rule:evenodd;"
d="M 3.7202,3.3974
3.7392,3.3021
3.7932,3.2212
3.8741,3.1672
3.9694,3.1482
4.8710,3.1482
4.9664,3.1672
5.0472,3.2212
5.1013,3.3021
5.1202,3.3974
5.1202,4.2990
5.1013,4.3944
5.0472,4.4753
4.9664,4.5293
4.8710,4.5482
3.9694,4.5482
3.8741,4.5293
3.7932,4.4753
3.7392,4.3944
3.7202,4.2990
Z" /> 
<circle cx="6.9802" cy="3.8482" r="0.7000" /> 
</g>
<g style="fill:#0D115E; fill-opacity:1.0000; 
stroke:#0D115E; stroke-width:0.0212; stroke-opacity:1; 
stroke-linecap:round; stroke-linejoin:round;">
</g>
<g >
</g>
<g >
</g>
<g >
</g>
</g>
<g style="fill:#FFFFFF; fill-opacity:1.0000; 
stroke:#FFFFFF; stroke-width:0.0212; stroke-opacity:1; 
stroke-linecap:round; stroke-linejoin:round;">
<g >
</g>
<g style="fill:#174D58; fill-opacity:1.0000; 
stroke:#174D58; stroke-width:0.0212; stroke-opacity:1; 
stroke-linecap:round; stroke-linejoin:round;">
</g>
<g style="fill:#174D58; fill-opacity:1.0000; 
stroke:#174D58; stroke-width:0.0000; stroke-opacity:1; 
stroke-linecap:round; stroke-linejoin:round;">
<path style="fill:#174D58; fill-opacity:1.0000; 
stroke:#174D58; stroke-width:0.0000; stroke-opacity:1; 
stroke-linecap:round; stroke-linejoin:round;fill-rule:evenodd;"
d="M 3.7202,3.3974
3.7392,3.3021
3.7932,3.2212
3.8741,3.1672
3.9694,3.1482
4.8710,3.1482
4.9664,3.1672
5.0472,3.2212
5.1013,3.3021
5.1202,3.3974
5.1202,4.2990
5.1013,4.3944
5.0472,4.4753
4.9664,4.5293
4.8710,4.5482
3.9694,4.5482
3.8741,4.5293
3.7932,4.4753
3.7392,4.3944
3.7202,4.2990
Z" /> 
<circle cx="6.9802" cy="3.8482" r="0.7000" /> 
</g>
<g style="fill:#174D58; fill-opacity:1.0000; 
stroke:#174D58; stroke-width:0.0212; stroke-opacity:1; 
stroke-linecap:round; stroke-linejoin:round;">
</g>
<g >
</g>
<g >
</g>
<g >
</g>
</g>
<g style="fill:#FFFFFF; fill-opacity:1.0000; 
stroke:#FFFFFF; stroke-width:0.0212; stroke-opacity:1; 
stroke-linecap:round; stroke-linejoin:round;">
<g >
</g>
<g style="fill:#D73226; fill-opacity:1.0000; 
stroke:#D73226; stroke-width:0.0212; stroke-opacity:1; 
stroke-linecap:round; stroke-linejoin:round;">
</g>
<g style="fill:#D73226; fill-opacity:1.0000; 
stroke:#D73226; stroke-width:0.0000; stroke-opacity:1; 
stroke-linecap:round; stroke-linejoin:round;">
<path style="fill:#D73226; fill-opacity:1.0000; 
stroke:#D73226; stroke-width:0.0000; stroke-opacity:1; 
stroke-linecap:round; stroke-linejoin:round;fill-rule:evenodd;"
d="M 3.7202,3.3974
3.7392,3.3021
3.7932,3.2212
3.8741,3.1672
3.9694,3.1482
4.8710,3.1482
4.9664,3.1672
5.0472,3.2212
5.1013,3.3021
5.1202,3.3974
5.1202,4.2990
5.1013,4.3944
5.0472,4.4753
4.9664,4.5293
4.8710,4.5482
3.9694,4.5482
3.8741,4.5293
3.7932,4.4753
3.7392,4.3944
3.7202,4.2990
Z" /> 
<circle cx="6.9802" cy="3.8482" r="0.7000" /> 
</g>
<g style="fill:#D73226; fill-opacity:1.0000; 
stroke:#D73226; stroke-width:0.0212; stroke-opacity:1; 
stroke-linecap:round; stroke-linejoin:round;">
</g>
<g >
</g>
<g >
</g>
<g >
</g>
</g>
<g style="fill:#FFFFFF; fill-opacity:1.0000; 
stroke:#FFFFFF; stroke-width:0.0212; stroke-opacity:1; 
stroke-linecap:round; stroke-linejoin:round;">
<g >
</g>
<g style="fill:#585938; fill-opacity:1.0000; 
stroke:#585938; stroke-width:0.0212; stroke-opacity:1; 
stroke-linecap:round; stroke-linejoin:round;">
</g>
<g style="fill:#585938; fill-opacity:1.0000; 
stroke:#585938; stroke-width:0.0000; stroke-opacity:1; 
stroke-linecap:round; stroke-linejoin:round;">
<path style="fill:#585938; fill-opacity:1.0000; 
stroke:#585938; stroke-width:0.0000; stroke-opacity:1; 
stroke-linecap:round; stroke-linejoin:round;fill-rule:evenodd;"
d="M 3.7202,3.3974
3.7392,3.3021
3.7932,3.2212
3.8741,3.1672
3.9694,3.1482
4.8710,3.1482
4.9664,3.1672
5.0472,3.2212
5.1013,3.3021
5.1202,3.3974
5.1202,4.2990
5.1013,4.3944
5.0472,4.4753
4.9664,4.5293
4.8710,4.5482
3.9694,4.5482
3.8741,4.5293
3.7932,4.4753
3.7392,4.3944
3.7202,4.2990
Z" /> 
<circle cx="6.9802" cy="3.8482" r="0.7000" /> 
</g>
<g style="fill:#585938; fill-opacity:1.0000; 
stroke:#585938; stroke-width:0.0212; stroke-opacity:1; 
stroke-linecap:round; stroke-linejoin:round;">
</g>
<g >
</g>
<g >
</g>
<g >
</g>
</g>
<g style="fill:#FFFFFF; fill-opacity:1.0000; 
stroke:#FFFFFF; stroke-width:0.0212; stroke-opacity:1; 
stroke-linecap:round; stroke-linejoin:round;">
<g >
</g>
<g style="fill:#249D74; fill-opacity:1.0000; 
stroke:#249D74; stroke-width:0.0212; stroke-opacity:1; 
stroke-linecap:round; stroke-linejoin:round;">
</g>
<g style="fill:#249D74; fill-opacity:1.0000; 
stroke:#249D74; stroke-width:0.0000; stroke-opacity:1; 
stroke-linecap:round; stroke-linejoin:round;">
<path style="fill:#249D74; fill-opacity:1.0000; 
stroke:#249D74; stroke-width:0.0000; stroke-opacity:1; 
stroke-linecap:round; stroke-linejoin:round;fill-rule:evenodd;"
d="M 3.7202,3.3974
3.7392,3.3021
3.7932,3.2212
3.8741,3.1672
3.9694,3.1482
4.8710,3.1482
4.9664,3.1672
5.0472,3.2212
5.1013,3.3021
5.1202,3.3974
5.1202,4.2990
5.1013,4.3944
5.0472,4.4753
4.9664,4.5293
4.8710,4.5482
3.9694,4.5482
3.8741,4.5293
3.7932,4.4753
3.7392,4.3944
3.7202,4.2990
Z" /> 
<circle cx="6.9802" cy="3.8482" r="0.7000" /> 
</g>
<g style="fill:#249D74; fill-opacity:1.0000; 
stroke:#249D74; stroke-width:0.0212; stroke-opacity:1; 
stroke-linecap:round; stroke-linejoin:round;">
</g>
<g >
</g>
<g >
</g>
<g >
</g>
</g>
<g style="fill:#FFFFFF; fill-opacity:1.0000; 
stroke:#FFFFFF; stroke-width:0.0212; stroke-opacity:1; 
stroke-linecap:round; stroke-linejoin:round;">
<g >
</g>
<g style="fill:#B03434; fill-opacity:1.0000; 
stroke:#B03434; stroke-width:0.0212; stroke-opacity:1; 
stroke-linecap:round; stroke-linejoin:round;">
</g>
<g style="fill:#B03434; fill-opacity:1.0000; 
stroke:#B03434; stroke-width:0.0000; stroke-opacity:1; 
stroke-linecap:round; stroke-linejoin:round;">
<path style="fill:#B03434; fill-opacity:1.0000; 
stroke:#B03434; stroke-width:0.0000; stroke-opacity:1; 
stroke-linecap:round; stroke-linejoin:round;fill-rule:evenodd;"
d="M 3.7202,3.3974
3.7392,3.3021
3.7932,3.2212
3.8741,3.1672
3.9694,3.1482
4.8710,3.1482
4.9664,3.1672
5.0472,3.2212
5.1013,3.3021
5.1202,3.3974
5.1202,4.2990
5.1013,4.3944
5.0472,4.4753
4.9664,4.5293
4.8710,4.5482
3.9694,4.5482
3.8741,4.5293
3.7932,4.4753
3.7392,4.3944
3.7202,4.2990
Z" /> 
<circle cx="6.9802" cy="3.8482" r="0.7000" /> 
</g>
<g style="fill:#B03434; fill-opacity:1.0000; 
stroke:#B03434; stroke-width:0.0212; stroke-opacity:1; 
stroke-linecap:round; stroke-linejoin:round;">
</g>
<g >
</g>
<g >
</g>
<g >
</g>
</g>
<g style="fill:#FFFFFF; fill-opacity:1.0000; 
stroke:#FFFFFF; stroke-width:0.0212; stroke-opacity:1; 
stroke-linecap:round; stroke-linejoin:round;">
<g >
</g>
<g style="fill:#3082D3; fill-opacity:1.0000; 
stroke:#3082D3; stroke-width:0.0212; stroke-opacity:1; 
stroke-linecap:round; stroke-linejoin:round;">
</g>
<g style="fill:#3082D3; fill-opacity:1.0000; 
stroke:#3082D3; stroke-width:0.0000; stroke-opacity:1; 
stroke-linecap:round; stroke-linejoin:round;">
<path style="fill:#3082D3; fill-opacity:1.0000; 
stroke:#3082D3; stroke-width:0.0000; stroke-opacity:1; 
stroke-linecap:round; stroke-linejoin:round;fill-rule:evenodd;"
d="M 3.7202,3.3974
3.7392,3.3021
3.7932,3.2212
3.8741,3.1672
3.9694,3.1482
4.8710,3.1482
4.9664,3.1672
5.0472,3.2212
5.1013,3.3021
5.1202,3.3974
5.1202,4.2990
5.1013,4.3944
5.0472,4.4753
4.9664,4.5293
4.8710,4.5482
3.9694,4.5482
3.8741,4.5293
3.7932,4.4753
3.7392,4.3944
3.7202,4.2990
Z" /> 
<circle cx="6.9802" cy="3.8482" r="0.7000" /> 
</g>
<g style="fill:#3082D3; fill-opacity:1.0000; 
stroke:#3082D3; stroke-width:0.0212; stroke-opacity:1; 
stroke-linecap:round; stroke-linejoin:round;">
</g>
<g >
</g>
<g >
</g>
<g >
</g>
</g>
<g style="fill:#FFFFFF; fill-opacity:1.0000; 
stroke:#FFFFFF; stroke-width:0.0212; stroke-opacity:1; 
stroke-linecap:round; stroke-linejoin:round;">
<g >
</g>
<g style="fill:#803780; fill-opacity:1.0000; 
stroke:#803780; stroke-width:0.0212; stroke-opacity:1; 
stroke-linecap:round; stroke-linejoin:round;">
</g>
<g style="fill:#803780; fill-opacity:1.0000; 
stroke:#803780; stroke-width:0.0000; stroke-opacity:1; 
stroke-linecap:round; stroke-linejoin:round;">
<path style="fill:#803780; fill-opacity:1.0000; 
stroke:#803780; stroke-width:0.0000; stroke-opacity:1; 
stroke-linecap:round; stroke-linejoin:round;fill-rule:evenodd;"
d="M 3.7202,3.3974
3.7392,3.3021
3.7932,3.2212
3.8741,3.1672
3.9694,3.1482
4.8710,3.1482
4.9664,3.1672
5.0472,3.2212
5.1013,3.3021
5.1202,3.3974
5.1202,4.2990
5.1013,4.3944
5.0472,4.4753
4.9664,4.5293
4.8710,4.5482
3.9694,4.5482
3.8741,4.5293
3.7932,4.4753
3.7392,4.3944
3.7202,4.2990
Z" /> 
<circle cx="6.9802" cy="3.8482" r="0.7000" /> 
</g>
<g style="fill:#803780; fill-opacity:1.0000; 
stroke:#803780; stroke-width:0.0212; stroke-opacity:1; 
stroke-linecap:round; stroke-linejoin:round;">
</g>
<g >
</g>
<g >
</g>
<g >
</g>
</g>
<g style="fill:#FFFFFF; fill-opacity:1.0000; 
stroke:#FFFFFF; stroke-width:0.0212; stroke-opacity:1; 
stroke-linecap:round; stroke-linejoin:round;">
<g >
</g>
<g style="fill:#37CBCB; fill-opacity:1.0000; 
stroke:#37CBCB; stroke-width:0.0212; stroke-opacity:1; 
stroke-linecap:round; stroke-linejoin:round;">
</g>
<g style="fill:#37CBCB; fill-opacity:1.0000; 
stroke:#37CBCB; stroke-width:0.0000; stroke-opacity:1; 
stroke-linecap:round; stroke-linejoin:round;">
<path style="fill:#37CBCB; fill-opacity:1.0000; 
stroke:#37CBCB; stroke-width:0.0000; stroke-opacity:1; 
stroke-linecap:round; stroke-linejoin:round;fill-rule:evenodd;"
d="M 3.7202,3.3974
3.7392,3.3021
3.7932,3.2212
3.8741,3.1672
3.9694,3.1482
4.8710,3.1482
4.9664,3.1672
5.0472,3.2212
5.1013,3.3021
5.1202,3.3974
5.1202,4.2990
5.1013,4.3944
5.0472,4.4753
4.9664,4.5293
4.8710,4.5482
3.9694,4.5482
3.8741,4.5293
3.7932,4.4753
3.7392,4.3944
3.7202,4.2990
Z" /> 
<circle cx="6.9802" cy="3.8482" r="0.7000" /> 
</g>
<g style="fill:#37CBCB; fill-opacity:1.0000; 
stroke:#37CBCB; stroke-width:0.0212; stroke-opacity:1; 
stroke-linecap:round; stroke-linejoin:round;">
</g>
<g >
</g>
<g >
</g>
<g >
</g>
</g>
<g style="fill:#FFFFFF; fill-opacity:1.0000; 
stroke:#FFFFFF; stroke-width:0.0212; stroke-opacity:1; 
stroke-linecap:round; stroke-linejoin:round;">
<g >
</g>
<g >
</g>
<g >
</g>
<g >
</g>
</g>
<g style="fill:#FFFFFF; fill-opacity:1.0000; 
stroke:#FFFFFF; stroke-width:0.0212; stroke-opacity:1; 
stroke-linecap:round; stroke-linejoin:round;">
</g>
<g style="fill:#0D115E; fill-opacity:1.0000; 
stroke:#0D115E; stroke-width:0.0212; stroke-opacity:1; 
stroke-linecap:round; stroke-linejoin:round;">
</g>
<g style="fill:#0D115E; fill-opacity:1.0000; 
stroke:#0D115E; stroke-width:0.1500; stroke-opacity:1; 
stroke-linecap:round; stroke-linejoin:round;">
</g>
<g style="fill:#0D115E; fill-opacity:0.0; 
stroke:#0D115E; stroke-width:0.1500; stroke-opacity:1; 
stroke-linecap:round; stroke-linejoin:round;">
<text x="6.9202" y="1.3482"
textLength="4.5357" font-size="1.3333" lengthAdjust="spacingAndGlyphs"
text-anchor="middle" opacity="0">REF**</text>
<g class="stroked-text"><desc>REF**</desc>
<path d="M5.5869 1.3031
L5.2536 0.8269
" />
<path d="M5.0155 1.3031
L5.0155 0.3031
" />
<path d="M5.0155 0.3031
L5.3964 0.3031
" />
<path d="M5.3964 0.3031
L5.4917 0.3507
" />
<path d="M5.4917 0.3507
L5.5393 0.3983
" />
<path d="M5.5393 0.3983
L5.5869 0.4935
" />
<path d="M5.5869 0.4935
L5.5869 0.6364
" />
<path d="M5.5869 0.6364
L5.5393 0.7316
" />
<path d="M5.5393 0.7316
L5.4917 0.7793
" />
<path d="M5.4917 0.7793
L5.3964 0.8269
" />
<path d="M5.3964 0.8269
L5.0155 0.8269
" />
<path d="M6.0155 0.7793
L6.3488 0.7793
" />
<path d="M6.4917 1.3031
L6.0155 1.3031
" />
<path d="M6.0155 1.3031
L6.0155 0.3031
" />
<path d="M6.0155 0.3031
L6.4917 0.3031
" />
<path d="M7.2536 0.7793
L6.9202 0.7793
" />
<path d="M6.9202 1.3031
L6.9202 0.3031
" />
<path d="M6.9202 0.3031
L7.3964 0.3031
" />
<path d="M7.9202 0.3031
L7.9202 0.5412
" />
<path d="M7.6821 0.4459
L7.9202 0.5412
" />
<path d="M7.9202 0.5412
L8.1583 0.4459
" />
<path d="M7.7774 0.7316
L7.9202 0.5412
" />
<path d="M7.9202 0.5412
L8.0631 0.7316
" />
<path d="M8.6821 0.3031
L8.6821 0.5412
" />
<path d="M8.4440 0.4459
L8.6821 0.5412
" />
<path d="M8.6821 0.5412
L8.9202 0.4459
" />
<path d="M8.5393 0.7316
L8.6821 0.5412
" />
<path d="M8.6821 0.5412
L8.8250 0.7316
" />
</g></g>
<g style="fill:#0D115E; fill-opacity:0.0; 
stroke:#0D115E; stroke-width:0.1200; stroke-opacity:1; 
stroke-linecap:round; stroke-linejoin:round;">
<path d="M3.3702 1.9482
L8.0702 1.9482
" />
<path d="M3.9202 5.3483
L7.4702 5.3483
" />
<path d="M3.3702 1.9483 A2.7108 2.7108 0.0 0 0 3.9310 5.3360" />
<path d="M7.5202 5.3483 A2.7281 2.7281 0.0 0 0 8.0889 1.9447" />
<g >
</g>
<g >
</g>
<g >
</g>
<g >
</g>
</g> 
</svg>
