<?xml version="1.0" standalone="no"?>
 <!DOCTYPE svg PUBLIC "-//W3C//DTD SVG 1.1//EN" 
 "http://www.w3.org/Graphics/SVG/1.1/DTD/svg11.dtd"> 
<svg
  xmlns:svg="http://www.w3.org/2000/svg"
  xmlns="http://www.w3.org/2000/svg"
  xmlns:xlink="http://www.w3.org/1999/xlink"
  version="1.1"
  width="49.5808mm" height="10.6934mm" viewBox="0.0000 0.0000 49.5808 10.6934">
<title>SVG Image created as Molex_Pico-Lock_504050-0491_1x04-1MP_P1.50mm_Horizontal.svg date 2024/01/16 15:05:39 </title>
  <desc>Image generated by PCBNEW </desc>
<g style="fill:#000000; fill-opacity:1.0000;stroke:#000000; stroke-opacity:1.0000;
stroke-linecap:round; stroke-linejoin:round;"
 transform="translate(0 0) scale(1 1)">
</g>
<g style="fill:#000000; fill-opacity:0.0; 
stroke:#000000; stroke-width:0.0000; stroke-opacity:1; 
stroke-linecap:round; stroke-linejoin:round;">
</g>
<g style="fill:#000000; fill-opacity:1.0000; 
stroke:#000000; stroke-width:0.0212; stroke-opacity:1; 
stroke-linecap:round; stroke-linejoin:round;">
<rect x="-5.000000" y="-5.000000" width="59.583336" height="20.716500" rx="0.000000" />
</g>
<g style="fill:#FFFFFF; fill-opacity:1.0000; 
stroke:#FFFFFF; stroke-width:0.0212; stroke-opacity:1; 
stroke-linecap:round; stroke-linejoin:round;">
<g >
</g>
<g >
</g>
<g >
</g>
<g >
</g>
</g>
<g style="fill:#FFFFFF; fill-opacity:1.0000; 
stroke:#FFFFFF; stroke-width:0.0212; stroke-opacity:1; 
stroke-linecap:round; stroke-linejoin:round;">
<g >
</g>
<g >
</g>
<g >
</g>
<g >
</g>
</g>
<g style="fill:#FFFFFF; fill-opacity:1.0000; 
stroke:#FFFFFF; stroke-width:0.0212; stroke-opacity:1; 
stroke-linecap:round; stroke-linejoin:round;">
<g >
</g>
<g >
</g>
<g >
</g>
<g >
</g>
</g>
<g style="fill:#FFFFFF; fill-opacity:1.0000; 
stroke:#FFFFFF; stroke-width:0.0212; stroke-opacity:1; 
stroke-linecap:round; stroke-linejoin:round;">
<g >
</g>
<g >
</g>
<g >
</g>
<g >
</g>
</g>
<g style="fill:#FFFFFF; fill-opacity:1.0000; 
stroke:#FFFFFF; stroke-width:0.0212; stroke-opacity:1; 
stroke-linecap:round; stroke-linejoin:round;">
<g >
</g>
<g >
</g>
<g >
</g>
<g >
</g>
</g>
<g style="fill:#FFFFFF; fill-opacity:1.0000; 
stroke:#FFFFFF; stroke-width:0.0212; stroke-opacity:1; 
stroke-linecap:round; stroke-linejoin:round;">
<g >
</g>
<g >
</g>
<g >
</g>
<g >
</g>
</g>
<g style="fill:#FFFFFF; fill-opacity:1.0000; 
stroke:#FFFFFF; stroke-width:0.0212; stroke-opacity:1; 
stroke-linecap:round; stroke-linejoin:round;">
<g >
</g>
<g >
</g>
<g >
</g>
<g >
</g>
</g>
<g style="fill:#FFFFFF; fill-opacity:1.0000; 
stroke:#FFFFFF; stroke-width:0.0212; stroke-opacity:1; 
stroke-linecap:round; stroke-linejoin:round;">
<g >
</g>
<g >
</g>
<g >
</g>
<g >
</g>
</g>
<g style="fill:#FFFFFF; fill-opacity:1.0000; 
stroke:#FFFFFF; stroke-width:0.0212; stroke-opacity:1; 
stroke-linecap:round; stroke-linejoin:round;">
<g >
</g>
<g >
</g>
<g >
</g>
<g >
</g>
</g>
<g style="fill:#FFFFFF; fill-opacity:1.0000; 
stroke:#FFFFFF; stroke-width:0.0212; stroke-opacity:1; 
stroke-linecap:round; stroke-linejoin:round;">
<g >
</g>
<g >
</g>
<g >
</g>
<g >
</g>
</g>
<g style="fill:#FFFFFF; fill-opacity:1.0000; 
stroke:#FFFFFF; stroke-width:0.0212; stroke-opacity:1; 
stroke-linecap:round; stroke-linejoin:round;">
<g >
</g>
<g >
</g>
<g >
</g>
<g >
</g>
</g>
<g style="fill:#FFFFFF; fill-opacity:1.0000; 
stroke:#FFFFFF; stroke-width:0.0212; stroke-opacity:1; 
stroke-linecap:round; stroke-linejoin:round;">
<g >
</g>
<g >
</g>
<g >
</g>
<g >
</g>
</g>
<g style="fill:#FFFFFF; fill-opacity:1.0000; 
stroke:#FFFFFF; stroke-width:0.0212; stroke-opacity:1; 
stroke-linecap:round; stroke-linejoin:round;">
<g >
</g>
<g >
</g>
<g >
</g>
<g >
</g>
</g>
<g style="fill:#FFFFFF; fill-opacity:1.0000; 
stroke:#FFFFFF; stroke-width:0.0212; stroke-opacity:1; 
stroke-linecap:round; stroke-linejoin:round;">
<g >
</g>
<g >
</g>
<g >
</g>
<g >
</g>
</g>
<g style="fill:#FFFFFF; fill-opacity:1.0000; 
stroke:#FFFFFF; stroke-width:0.0212; stroke-opacity:1; 
stroke-linecap:round; stroke-linejoin:round;">
<g >
</g>
<g >
</g>
<g >
</g>
<g >
</g>
</g>
<g style="fill:#FFFFFF; fill-opacity:1.0000; 
stroke:#FFFFFF; stroke-width:0.0212; stroke-opacity:1; 
stroke-linecap:round; stroke-linejoin:round;">
<g >
</g>
<g >
</g>
<g >
</g>
<g >
</g>
</g>
<g style="fill:#FFFFFF; fill-opacity:1.0000; 
stroke:#FFFFFF; stroke-width:0.0212; stroke-opacity:1; 
stroke-linecap:round; stroke-linejoin:round;">
<g >
</g>
<g >
</g>
<g >
</g>
<g >
</g>
</g>
<g style="fill:#FFFFFF; fill-opacity:1.0000; 
stroke:#FFFFFF; stroke-width:0.0212; stroke-opacity:1; 
stroke-linecap:round; stroke-linejoin:round;">
<g >
</g>
<g >
</g>
<g >
</g>
<g >
</g>
</g>
<g style="fill:#FFFFFF; fill-opacity:1.0000; 
stroke:#FFFFFF; stroke-width:0.0212; stroke-opacity:1; 
stroke-linecap:round; stroke-linejoin:round;">
<g >
</g>
<g >
</g>
<g >
</g>
<g >
</g>
</g>
<g style="fill:#FFFFFF; fill-opacity:1.0000; 
stroke:#FFFFFF; stroke-width:0.0212; stroke-opacity:1; 
stroke-linecap:round; stroke-linejoin:round;">
<g >
</g>
<g >
</g>
<g >
</g>
<g >
</g>
</g>
<g style="fill:#FFFFFF; fill-opacity:1.0000; 
stroke:#FFFFFF; stroke-width:0.0212; stroke-opacity:1; 
stroke-linecap:round; stroke-linejoin:round;">
<g >
</g>
<g >
</g>
<g >
</g>
<g >
</g>
</g>
<g style="fill:#FFFFFF; fill-opacity:1.0000; 
stroke:#FFFFFF; stroke-width:0.0212; stroke-opacity:1; 
stroke-linecap:round; stroke-linejoin:round;">
<g >
</g>
<g >
</g>
<g >
</g>
<g >
</g>
</g>
<g style="fill:#FFFFFF; fill-opacity:1.0000; 
stroke:#FFFFFF; stroke-width:0.0212; stroke-opacity:1; 
stroke-linecap:round; stroke-linejoin:round;">
<g >
</g>
<g >
</g>
<g >
</g>
<g >
</g>
</g>
<g style="fill:#FFFFFF; fill-opacity:1.0000; 
stroke:#FFFFFF; stroke-width:0.0212; stroke-opacity:1; 
stroke-linecap:round; stroke-linejoin:round;">
<g >
</g>
<g >
</g>
<g >
</g>
<g >
</g>
</g>
<g style="fill:#FFFFFF; fill-opacity:1.0000; 
stroke:#FFFFFF; stroke-width:0.0212; stroke-opacity:1; 
stroke-linecap:round; stroke-linejoin:round;">
<g >
</g>
<g >
</g>
<g >
</g>
<g >
</g>
</g>
<g style="fill:#FFFFFF; fill-opacity:1.0000; 
stroke:#FFFFFF; stroke-width:0.0212; stroke-opacity:1; 
stroke-linecap:round; stroke-linejoin:round;">
<g >
</g>
<g >
</g>
<g >
</g>
<g >
</g>
</g>
<g style="fill:#FFFFFF; fill-opacity:1.0000; 
stroke:#FFFFFF; stroke-width:0.0212; stroke-opacity:1; 
stroke-linecap:round; stroke-linejoin:round;">
<g >
</g>
<g >
</g>
<g >
</g>
<g >
</g>
</g>
<g style="fill:#FFFFFF; fill-opacity:1.0000; 
stroke:#FFFFFF; stroke-width:0.0212; stroke-opacity:1; 
stroke-linecap:round; stroke-linejoin:round;">
<g >
</g>
<g >
</g>
<g >
</g>
<g >
</g>
</g>
<g style="fill:#FFFFFF; fill-opacity:1.0000; 
stroke:#FFFFFF; stroke-width:0.0212; stroke-opacity:1; 
stroke-linecap:round; stroke-linejoin:round;">
<g >
</g>
<g >
</g>
<g >
</g>
<g >
</g>
</g>
<g style="fill:#FFFFFF; fill-opacity:1.0000; 
stroke:#FFFFFF; stroke-width:0.0212; stroke-opacity:1; 
stroke-linecap:round; stroke-linejoin:round;">
<g >
</g>
<g >
</g>
<g >
</g>
<g >
</g>
</g>
<g style="fill:#FFFFFF; fill-opacity:1.0000; 
stroke:#FFFFFF; stroke-width:0.0212; stroke-opacity:1; 
stroke-linecap:round; stroke-linejoin:round;">
<g >
</g>
<g >
</g>
<g >
</g>
<g >
</g>
</g>
<g style="fill:#FFFFFF; fill-opacity:1.0000; 
stroke:#FFFFFF; stroke-width:0.0212; stroke-opacity:1; 
stroke-linecap:round; stroke-linejoin:round;">
<g >
</g>
<g >
</g>
<g >
</g>
<g >
</g>
</g>
<g style="fill:#FFFFFF; fill-opacity:1.0000; 
stroke:#FFFFFF; stroke-width:0.0212; stroke-opacity:1; 
stroke-linecap:round; stroke-linejoin:round;">
<g >
</g>
<g >
</g>
<g >
</g>
<g >
</g>
</g>
<g style="fill:#FFFFFF; fill-opacity:1.0000; 
stroke:#FFFFFF; stroke-width:0.0212; stroke-opacity:1; 
stroke-linecap:round; stroke-linejoin:round;">
<g >
</g>
<g style="fill:#FFFFFF; fill-opacity:1.0000; 
stroke:#FFFFFF; stroke-width:0.0000; stroke-opacity:1; 
stroke-linecap:round; stroke-linejoin:round;">
<path style="fill:#FFFFFF; fill-opacity:1.0000; 
stroke:#FFFFFF; stroke-width:0.0000; stroke-opacity:1; 
stroke-linecap:round; stroke-linejoin:round;fill-rule:evenodd;"
d="M 22.2417,2.2032
22.2531,2.1458
22.2856,2.0972
22.3343,2.0647
22.3917,2.0532
22.6917,2.0532
22.7491,2.0647
22.7977,2.0972
22.8302,2.1458
22.8417,2.2032
22.8417,2.9032
22.8302,2.9607
22.7977,3.0093
22.7491,3.0418
22.6917,3.0532
22.3917,3.0532
22.3343,3.0418
22.2856,3.0093
22.2531,2.9607
22.2417,2.9032
Z" /> 
<path style="fill:#FFFFFF; fill-opacity:1.0000; 
stroke:#FFFFFF; stroke-width:0.0000; stroke-opacity:1; 
stroke-linecap:round; stroke-linejoin:round;fill-rule:evenodd;"
d="M 23.7417,2.2032
23.7531,2.1458
23.7856,2.0972
23.8343,2.0647
23.8917,2.0532
24.1917,2.0532
24.2491,2.0647
24.2977,2.0972
24.3302,2.1458
24.3417,2.2032
24.3417,2.9032
24.3302,2.9607
24.2977,3.0093
24.2491,3.0418
24.1917,3.0532
23.8917,3.0532
23.8343,3.0418
23.7856,3.0093
23.7531,2.9607
23.7417,2.9032
Z" /> 
<path style="fill:#FFFFFF; fill-opacity:1.0000; 
stroke:#FFFFFF; stroke-width:0.0000; stroke-opacity:1; 
stroke-linecap:round; stroke-linejoin:round;fill-rule:evenodd;"
d="M 25.2417,2.2032
25.2531,2.1458
25.2856,2.0972
25.3343,2.0647
25.3917,2.0532
25.6917,2.0532
25.7491,2.0647
25.7977,2.0972
25.8302,2.1458
25.8417,2.2032
25.8417,2.9032
25.8302,2.9607
25.7977,3.0093
25.7491,3.0418
25.6917,3.0532
25.3917,3.0532
25.3343,3.0418
25.2856,3.0093
25.2531,2.9607
25.2417,2.9032
Z" /> 
<path style="fill:#FFFFFF; fill-opacity:1.0000; 
stroke:#FFFFFF; stroke-width:0.0000; stroke-opacity:1; 
stroke-linecap:round; stroke-linejoin:round;fill-rule:evenodd;"
d="M 26.7417,2.2032
26.7531,2.1458
26.7856,2.0972
26.8343,2.0647
26.8917,2.0532
27.1917,2.0532
27.2491,2.0647
27.2977,2.0972
27.3302,2.1458
27.3417,2.2032
27.3417,2.9032
27.3302,2.9607
27.2977,3.0093
27.2491,3.0418
27.1917,3.0532
26.8917,3.0532
26.8343,3.0418
26.7856,3.0093
26.7531,2.9607
26.7417,2.9032
Z" /> 
<path style="fill:#FFFFFF; fill-opacity:1.0000; 
stroke:#FFFFFF; stroke-width:0.0000; stroke-opacity:1; 
stroke-linecap:round; stroke-linejoin:round;fill-rule:evenodd;"
d="M 19.3117,7.0932
19.3307,6.9976
19.3849,6.9165
19.4660,6.8623
19.5617,6.8432
20.3117,6.8432
20.4073,6.8623
20.4884,6.9165
20.5426,6.9976
20.5617,7.0932
20.5617,8.3933
20.5426,8.4889
20.4884,8.5700
20.4073,8.6242
20.3117,8.6433
19.5617,8.6433
19.4660,8.6242
19.3849,8.5700
19.3307,8.4889
19.3117,8.3933
Z" /> 
<path style="fill:#FFFFFF; fill-opacity:1.0000; 
stroke:#FFFFFF; stroke-width:0.0000; stroke-opacity:1; 
stroke-linecap:round; stroke-linejoin:round;fill-rule:evenodd;"
d="M 29.0217,7.0932
29.0407,6.9976
29.0949,6.9165
29.1760,6.8623
29.2717,6.8432
30.0217,6.8432
30.1173,6.8623
30.1984,6.9165
30.2526,6.9976
30.2717,7.0932
30.2717,8.3933
30.2526,8.4889
30.1984,8.5700
30.1173,8.6242
30.0217,8.6433
29.2717,8.6433
29.1760,8.6242
29.0949,8.5700
29.0407,8.4889
29.0217,8.3933
Z" /> 
</g>
<g >
</g>
<g >
</g>
<g >
</g>
</g>
<g style="fill:#FFFFFF; fill-opacity:1.0000; 
stroke:#FFFFFF; stroke-width:0.0000; stroke-opacity:1; 
stroke-linecap:round; stroke-linejoin:round;">
<g >
<path style="fill:#FFFFFF; fill-opacity:1.0000; 
stroke:#FFFFFF; stroke-width:0.0000; stroke-opacity:1; 
stroke-linecap:round; stroke-linejoin:round;fill-rule:evenodd;"
d="M 22.2417,2.2032
22.2531,2.1458
22.2856,2.0972
22.3343,2.0647
22.3917,2.0532
22.6917,2.0532
22.7491,2.0647
22.7977,2.0972
22.8302,2.1458
22.8417,2.2032
22.8417,2.9032
22.8302,2.9607
22.7977,3.0093
22.7491,3.0418
22.6917,3.0532
22.3917,3.0532
22.3343,3.0418
22.2856,3.0093
22.2531,2.9607
22.2417,2.9032
Z" /> 
<path style="fill:#FFFFFF; fill-opacity:1.0000; 
stroke:#FFFFFF; stroke-width:0.0000; stroke-opacity:1; 
stroke-linecap:round; stroke-linejoin:round;fill-rule:evenodd;"
d="M 23.7417,2.2032
23.7531,2.1458
23.7856,2.0972
23.8343,2.0647
23.8917,2.0532
24.1917,2.0532
24.2491,2.0647
24.2977,2.0972
24.3302,2.1458
24.3417,2.2032
24.3417,2.9032
24.3302,2.9607
24.2977,3.0093
24.2491,3.0418
24.1917,3.0532
23.8917,3.0532
23.8343,3.0418
23.7856,3.0093
23.7531,2.9607
23.7417,2.9032
Z" /> 
<path style="fill:#FFFFFF; fill-opacity:1.0000; 
stroke:#FFFFFF; stroke-width:0.0000; stroke-opacity:1; 
stroke-linecap:round; stroke-linejoin:round;fill-rule:evenodd;"
d="M 25.2417,2.2032
25.2531,2.1458
25.2856,2.0972
25.3343,2.0647
25.3917,2.0532
25.6917,2.0532
25.7491,2.0647
25.7977,2.0972
25.8302,2.1458
25.8417,2.2032
25.8417,2.9032
25.8302,2.9607
25.7977,3.0093
25.7491,3.0418
25.6917,3.0532
25.3917,3.0532
25.3343,3.0418
25.2856,3.0093
25.2531,2.9607
25.2417,2.9032
Z" /> 
<path style="fill:#FFFFFF; fill-opacity:1.0000; 
stroke:#FFFFFF; stroke-width:0.0000; stroke-opacity:1; 
stroke-linecap:round; stroke-linejoin:round;fill-rule:evenodd;"
d="M 26.7417,2.2032
26.7531,2.1458
26.7856,2.0972
26.8343,2.0647
26.8917,2.0532
27.1917,2.0532
27.2491,2.0647
27.2977,2.0972
27.3302,2.1458
27.3417,2.2032
27.3417,2.9032
27.3302,2.9607
27.2977,3.0093
27.2491,3.0418
27.1917,3.0532
26.8917,3.0532
26.8343,3.0418
26.7856,3.0093
26.7531,2.9607
26.7417,2.9032
Z" /> 
<path style="fill:#FFFFFF; fill-opacity:1.0000; 
stroke:#FFFFFF; stroke-width:0.0000; stroke-opacity:1; 
stroke-linecap:round; stroke-linejoin:round;fill-rule:evenodd;"
d="M 19.3117,7.0932
19.3307,6.9976
19.3849,6.9165
19.4660,6.8623
19.5617,6.8432
20.3117,6.8432
20.4073,6.8623
20.4884,6.9165
20.5426,6.9976
20.5617,7.0932
20.5617,8.3933
20.5426,8.4889
20.4884,8.5700
20.4073,8.6242
20.3117,8.6433
19.5617,8.6433
19.4660,8.6242
19.3849,8.5700
19.3307,8.4889
19.3117,8.3933
Z" /> 
<path style="fill:#FFFFFF; fill-opacity:1.0000; 
stroke:#FFFFFF; stroke-width:0.0000; stroke-opacity:1; 
stroke-linecap:round; stroke-linejoin:round;fill-rule:evenodd;"
d="M 29.0217,7.0932
29.0407,6.9976
29.0949,6.9165
29.1760,6.8623
29.2717,6.8432
30.0217,6.8432
30.1173,6.8623
30.1984,6.9165
30.2526,6.9976
30.2717,7.0932
30.2717,8.3933
30.2526,8.4889
30.1984,8.5700
30.1173,8.6242
30.0217,8.6433
29.2717,8.6433
29.1760,8.6242
29.0949,8.5700
29.0407,8.4889
29.0217,8.3933
Z" /> 
</g>
<g >
</g>
<g >
</g>
<g >
</g>
</g>
<g style="fill:#FFFFFF; fill-opacity:1.0000; 
stroke:#FFFFFF; stroke-width:0.0000; stroke-opacity:1; 
stroke-linecap:round; stroke-linejoin:round;">
</g>
<g style="fill:#FFFFFF; fill-opacity:1.0000; 
stroke:#FFFFFF; stroke-width:0.1500; stroke-opacity:1; 
stroke-linecap:round; stroke-linejoin:round;">
</g>
<g style="fill:#FFFFFF; fill-opacity:0.0; 
stroke:#FFFFFF; stroke-width:0.1500; stroke-opacity:1; 
stroke-linecap:round; stroke-linejoin:round;">
<text x="24.7917" y="1.3482"
textLength="4.5357" font-size="1.3333" lengthAdjust="spacingAndGlyphs"
text-anchor="middle" opacity="0">REF**</text>
<g class="stroked-text"><desc>REF**</desc>
<path d="M23.4583 1.3031
L23.1250 0.8269
" />
<path d="M22.8869 1.3031
L22.8869 0.3031
" />
<path d="M22.8869 0.3031
L23.2679 0.3031
" />
<path d="M23.2679 0.3031
L23.3631 0.3507
" />
<path d="M23.3631 0.3507
L23.4107 0.3983
" />
<path d="M23.4107 0.3983
L23.4583 0.4935
" />
<path d="M23.4583 0.4935
L23.4583 0.6364
" />
<path d="M23.4583 0.6364
L23.4107 0.7316
" />
<path d="M23.4107 0.7316
L23.3631 0.7793
" />
<path d="M23.3631 0.7793
L23.2679 0.8269
" />
<path d="M23.2679 0.8269
L22.8869 0.8269
" />
<path d="M23.8869 0.7793
L24.2202 0.7793
" />
<path d="M24.3631 1.3031
L23.8869 1.3031
" />
<path d="M23.8869 1.3031
L23.8869 0.3031
" />
<path d="M23.8869 0.3031
L24.3631 0.3031
" />
<path d="M25.1250 0.7793
L24.7917 0.7793
" />
<path d="M24.7917 1.3031
L24.7917 0.3031
" />
<path d="M24.7917 0.3031
L25.2679 0.3031
" />
<path d="M25.7917 0.3031
L25.7917 0.5412
" />
<path d="M25.5536 0.4459
L25.7917 0.5412
" />
<path d="M25.7917 0.5412
L26.0298 0.4459
" />
<path d="M25.6488 0.7316
L25.7917 0.5412
" />
<path d="M25.7917 0.5412
L25.9345 0.7316
" />
<path d="M26.5536 0.3031
L26.5536 0.5412
" />
<path d="M26.3155 0.4459
L26.5536 0.5412
" />
<path d="M26.5536 0.5412
L26.7917 0.4459
" />
<path d="M26.4107 0.7316
L26.5536 0.5412
" />
<path d="M26.5536 0.5412
L26.6964 0.7316
" />
</g></g>
<g style="fill:#FFFFFF; fill-opacity:0.0; 
stroke:#FFFFFF; stroke-width:0.1200; stroke-opacity:1; 
stroke-linecap:round; stroke-linejoin:round;">
<path d="M19.8067 6.5832
L19.8067 2.4532
" />
<path d="M21.9817 2.4532
L21.9817 2.0532
" />
<path d="M21.9767 8.7732
L21.9767 6.7732
" />
<path d="M21.9767 6.7732
L27.6067 6.7732
" />
<path d="M20.8217 8.7732
L21.9767 8.7732
" />
<path d="M27.6067 8.7732
L28.7617 8.7732
" />
<path d="M27.6067 6.7732
L27.6067 8.7732
" />
<path d="M29.7767 2.4532
L27.6017 2.4532
" />
<path d="M19.8067 2.4532
L21.9817 2.4532
" />
<path d="M29.7767 6.5832
L29.7767 2.4532
" />
<g >
</g>
<g >
</g>
<g >
</g>
<g >
</g>
</g> 
</svg>
