<?xml version="1.0" standalone="no"?>
 <!DOCTYPE svg PUBLIC "-//W3C//DTD SVG 1.1//EN" 
 "http://www.w3.org/Graphics/SVG/1.1/DTD/svg11.dtd"> 
<svg
  xmlns:svg="http://www.w3.org/2000/svg"
  xmlns="http://www.w3.org/2000/svg"
  xmlns:xlink="http://www.w3.org/1999/xlink"
  version="1.1"
  width="68.9102mm" height="25.3238mm" viewBox="0.0000 0.0000 68.9102 25.3238">
<title>SVG Image created as jtd2048d05.svg date 2024/01/16 15:09:16 </title>
  <desc>Image generated by Eeschema-SVG </desc>
<g style="fill:#000000; fill-opacity:1.0000;stroke:#000000; stroke-opacity:1.0000;
stroke-linecap:round; stroke-linejoin:round;"
 transform="translate(0 0) scale(1 1)">
</g>
<g style="fill:#840000; fill-opacity:0.0; 
stroke:#840000; stroke-width:0.0000; stroke-opacity:1; 
stroke-linecap:round; stroke-linejoin:round;">
</g>
<g style="fill:#FFFFC2; fill-opacity:0.0; 
stroke:#FFFFC2; stroke-width:0.0000; stroke-opacity:1; 
stroke-linecap:round; stroke-linejoin:round;">
</g>
<g style="fill:#FFFFC2; fill-opacity:1.0000; 
stroke:#FFFFC2; stroke-width:0.0000; stroke-opacity:1; 
stroke-linecap:round; stroke-linejoin:round;">
<rect x="24.295100" y="5.041900" width="20.320000" height="15.240000" rx="0.000000" />
</g>
<g style="fill:#840084; fill-opacity:1.0000; 
stroke:#840084; stroke-width:0.0000; stroke-opacity:1; 
stroke-linecap:round; stroke-linejoin:round;">
</g>
<g style="fill:#840000; fill-opacity:1.0000; 
stroke:#840000; stroke-width:0.0000; stroke-opacity:1; 
stroke-linecap:round; stroke-linejoin:round;">
</g>
<g style="fill:#840000; fill-opacity:0.0; 
stroke:#840000; stroke-width:0.2540; stroke-opacity:1; 
stroke-linecap:round; stroke-linejoin:round;">
<rect x="24.295100" y="5.041900" width="20.320000" height="15.240000" rx="0.000000" />
</g>
<g style="fill:#840000; fill-opacity:0.0; 
stroke:#840000; stroke-width:0.1524; stroke-opacity:1; 
stroke-linecap:round; stroke-linejoin:round;">
<path style="fill:#840000; fill-opacity:0.0; 
stroke:#840000; stroke-width:0.1524; stroke-opacity:1; 
stroke-linecap:round; stroke-linejoin:round;fill:none"
d="M 34.4551,17.7419
34.4551,19.0119
" /> 
<path style="fill:#840000; fill-opacity:0.0; 
stroke:#840000; stroke-width:0.1524; stroke-opacity:1; 
stroke-linecap:round; stroke-linejoin:round;fill:none"
d="M 34.4551,15.2019
34.4551,16.4719
" /> 
<path style="fill:#840000; fill-opacity:0.0; 
stroke:#840000; stroke-width:0.1524; stroke-opacity:1; 
stroke-linecap:round; stroke-linejoin:round;fill:none"
d="M 34.4551,12.6619
34.4551,13.9319
" /> 
<path style="fill:#840000; fill-opacity:0.0; 
stroke:#840000; stroke-width:0.1524; stroke-opacity:1; 
stroke-linecap:round; stroke-linejoin:round;fill:none"
d="M 34.4551,10.1219
34.4551,11.3919
" /> 
<path style="fill:#840000; fill-opacity:0.0; 
stroke:#840000; stroke-width:0.1524; stroke-opacity:1; 
stroke-linecap:round; stroke-linejoin:round;fill:none"
d="M 34.4551,7.5819
34.4551,8.8519
" /> 
<path style="fill:#840000; fill-opacity:0.0; 
stroke:#840000; stroke-width:0.1524; stroke-opacity:1; 
stroke-linecap:round; stroke-linejoin:round;fill:none"
d="M 34.4551,5.0419
34.4551,6.3119
" /> 
<path d="M24.2951 7.5819
L21.7551 7.5819
" />
</g>
<g style="fill:#006464; fill-opacity:0.0; 
stroke:#006464; stroke-width:0.1524; stroke-opacity:1; 
stroke-linecap:round; stroke-linejoin:round;">
<text x="24.8031" y="8.2169"
textLength="4.7995" font-size="1.6933" lengthAdjust="spacingAndGlyphs"
text-anchor="start" opacity="0">+VIN</text>
<g class="stroked-text"><desc>+VIN</desc>
<path d="M25.2056 7.6776
L26.1733 7.6776
" />
<path d="M25.6894 8.1614
L25.6894 7.1938
" />
<path d="M26.5966 6.8914
L27.0199 8.1614
" />
<path d="M27.0199 8.1614
L27.4433 6.8914
" />
<path d="M27.8666 8.1614
L27.8666 6.8914
" />
<path d="M28.4714 8.1614
L28.4714 6.8914
" />
<path d="M28.4714 6.8914
L29.1971 8.1614
" />
<path d="M29.1971 8.1614
L29.1971 6.8914
" />
</g></g>
<g style="fill:#A90000; fill-opacity:0.0; 
stroke:#A90000; stroke-width:0.1524; stroke-opacity:1; 
stroke-linecap:round; stroke-linejoin:round;">
<text x="23.0251" y="7.3279"
textLength="1.4127" font-size="1.6933" lengthAdjust="spacingAndGlyphs"
text-anchor="middle" opacity="0">1</text>
<g class="stroked-text"><desc>1</desc>
<path d="M23.3880 7.1644
L22.6623 7.1644
" />
<path d="M23.0251 7.1644
L23.0251 5.8944
" />
<path d="M23.0251 5.8944
L22.9042 6.0759
" />
<path d="M22.9042 6.0759
L22.7832 6.1968
" />
<path d="M22.7832 6.1968
L22.6623 6.2573
" />
</g></g>
<g style="fill:#840000; fill-opacity:0.0; 
stroke:#840000; stroke-width:0.1524; stroke-opacity:1; 
stroke-linecap:round; stroke-linejoin:round;">
<path d="M24.2951 17.7419
L21.7551 17.7419
" />
</g>
<g style="fill:#006464; fill-opacity:0.0; 
stroke:#006464; stroke-width:0.1524; stroke-opacity:1; 
stroke-linecap:round; stroke-linejoin:round;">
<text x="24.8031" y="18.3769"
textLength="4.7995" font-size="1.6933" lengthAdjust="spacingAndGlyphs"
text-anchor="start" opacity="0">-VIN</text>
<g class="stroked-text"><desc>-VIN</desc>
<path d="M25.2056 17.8376
L26.1733 17.8376
" />
<path d="M26.5966 17.0514
L27.0199 18.3214
" />
<path d="M27.0199 18.3214
L27.4433 17.0514
" />
<path d="M27.8666 18.3214
L27.8666 17.0514
" />
<path d="M28.4714 18.3214
L28.4714 17.0514
" />
<path d="M28.4714 17.0514
L29.1971 18.3214
" />
<path d="M29.1971 18.3214
L29.1971 17.0514
" />
</g></g>
<g style="fill:#A90000; fill-opacity:0.0; 
stroke:#A90000; stroke-width:0.1524; stroke-opacity:1; 
stroke-linecap:round; stroke-linejoin:round;">
<text x="23.0251" y="17.4879"
textLength="1.4127" font-size="1.6933" lengthAdjust="spacingAndGlyphs"
text-anchor="middle" opacity="0">2</text>
<g class="stroked-text"><desc>2</desc>
<path d="M22.6623 16.1754
L22.7227 16.1149
" />
<path d="M22.7227 16.1149
L22.8437 16.0544
" />
<path d="M22.8437 16.0544
L23.1461 16.0544
" />
<path d="M23.1461 16.0544
L23.2670 16.1149
" />
<path d="M23.2670 16.1149
L23.3275 16.1754
" />
<path d="M23.3275 16.1754
L23.3880 16.2963
" />
<path d="M23.3880 16.2963
L23.3880 16.4173
" />
<path d="M23.3880 16.4173
L23.3275 16.5987
" />
<path d="M23.3275 16.5987
L22.6018 17.3244
" />
<path d="M22.6018 17.3244
L23.3880 17.3244
" />
</g></g>
<g style="fill:#840000; fill-opacity:0.0; 
stroke:#840000; stroke-width:0.1524; stroke-opacity:1; 
stroke-linecap:round; stroke-linejoin:round;">
<path d="M44.6151 7.5819
L47.1551 7.5819
" />
</g>
<g style="fill:#006464; fill-opacity:0.0; 
stroke:#006464; stroke-width:0.1524; stroke-opacity:1; 
stroke-linecap:round; stroke-linejoin:round;">
<text x="44.1071" y="8.2169"
textLength="6.4928" font-size="1.6933" lengthAdjust="spacingAndGlyphs"
text-anchor="end" opacity="0">+VOUT</text>
<g class="stroked-text"><desc>+VOUT</desc>
<path d="M38.0196 7.6776
L38.9873 7.6776
" />
<path d="M38.5034 8.1614
L38.5034 7.1938
" />
<path d="M39.4106 6.8914
L39.8339 8.1614
" />
<path d="M39.8339 8.1614
L40.2573 6.8914
" />
<path d="M40.9225 6.8914
L41.1644 6.8914
" />
<path d="M41.1644 6.8914
L41.2854 6.9519
" />
<path d="M41.2854 6.9519
L41.4063 7.0729
" />
<path d="M41.4063 7.0729
L41.4668 7.3148
" />
<path d="M41.4668 7.3148
L41.4668 7.7381
" />
<path d="M41.4668 7.7381
L41.4063 7.9800
" />
<path d="M41.4063 7.9800
L41.2854 8.1010
" />
<path d="M41.2854 8.1010
L41.1644 8.1614
" />
<path d="M41.1644 8.1614
L40.9225 8.1614
" />
<path d="M40.9225 8.1614
L40.8016 8.1010
" />
<path d="M40.8016 8.1010
L40.6806 7.9800
" />
<path d="M40.6806 7.9800
L40.6202 7.7381
" />
<path d="M40.6202 7.7381
L40.6202 7.3148
" />
<path d="M40.6202 7.3148
L40.6806 7.0729
" />
<path d="M40.6806 7.0729
L40.8016 6.9519
" />
<path d="M40.8016 6.9519
L40.9225 6.8914
" />
<path d="M42.0111 6.8914
L42.0111 7.9195
" />
<path d="M42.0111 7.9195
L42.0716 8.0405
" />
<path d="M42.0716 8.0405
L42.1321 8.1010
" />
<path d="M42.1321 8.1010
L42.2530 8.1614
" />
<path d="M42.2530 8.1614
L42.4949 8.1614
" />
<path d="M42.4949 8.1614
L42.6159 8.1010
" />
<path d="M42.6159 8.1010
L42.6764 8.0405
" />
<path d="M42.6764 8.0405
L42.7368 7.9195
" />
<path d="M42.7368 7.9195
L42.7368 6.8914
" />
<path d="M43.1602 6.8914
L43.8859 6.8914
" />
<path d="M43.5231 8.1614
L43.5231 6.8914
" />
</g></g>
<g style="fill:#A90000; fill-opacity:0.0; 
stroke:#A90000; stroke-width:0.1524; stroke-opacity:1; 
stroke-linecap:round; stroke-linejoin:round;">
<text x="45.8851" y="7.3279"
textLength="1.4127" font-size="1.6933" lengthAdjust="spacingAndGlyphs"
text-anchor="middle" opacity="0">3</text>
<g class="stroked-text"><desc>3</desc>
<path d="M45.4618 5.8944
L46.2480 5.8944
" />
<path d="M46.2480 5.8944
L45.8246 6.3782
" />
<path d="M45.8246 6.3782
L46.0061 6.3782
" />
<path d="M46.0061 6.3782
L46.1270 6.4387
" />
<path d="M46.1270 6.4387
L46.1875 6.4992
" />
<path d="M46.1875 6.4992
L46.2480 6.6201
" />
<path d="M46.2480 6.6201
L46.2480 6.9225
" />
<path d="M46.2480 6.9225
L46.1875 7.0435
" />
<path d="M46.1875 7.0435
L46.1270 7.1040
" />
<path d="M46.1270 7.1040
L46.0061 7.1644
" />
<path d="M46.0061 7.1644
L45.6432 7.1644
" />
<path d="M45.6432 7.1644
L45.5223 7.1040
" />
<path d="M45.5223 7.1040
L45.4618 7.0435
" />
</g></g>
<g style="fill:#840000; fill-opacity:0.0; 
stroke:#840000; stroke-width:0.1524; stroke-opacity:1; 
stroke-linecap:round; stroke-linejoin:round;">
<path d="M44.6151 12.6619
L47.1551 12.6619
" />
</g>
<g style="fill:#006464; fill-opacity:0.0; 
stroke:#006464; stroke-width:0.1524; stroke-opacity:1; 
stroke-linecap:round; stroke-linejoin:round;">
<text x="44.1071" y="13.2969"
textLength="8.3068" font-size="1.6933" lengthAdjust="spacingAndGlyphs"
text-anchor="end" opacity="0">Common</text>
<g class="stroked-text"><desc>Common</desc>
<path d="M36.9313 13.1205
L36.8709 13.1810
" />
<path d="M36.8709 13.1810
L36.6894 13.2414
" />
<path d="M36.6894 13.2414
L36.5685 13.2414
" />
<path d="M36.5685 13.2414
L36.3871 13.1810
" />
<path d="M36.3871 13.1810
L36.2661 13.0600
" />
<path d="M36.2661 13.0600
L36.2056 12.9390
" />
<path d="M36.2056 12.9390
L36.1452 12.6971
" />
<path d="M36.1452 12.6971
L36.1452 12.5157
" />
<path d="M36.1452 12.5157
L36.2056 12.2738
" />
<path d="M36.2056 12.2738
L36.2661 12.1529
" />
<path d="M36.2661 12.1529
L36.3871 12.0319
" />
<path d="M36.3871 12.0319
L36.5685 11.9714
" />
<path d="M36.5685 11.9714
L36.6894 11.9714
" />
<path d="M36.6894 11.9714
L36.8709 12.0319
" />
<path d="M36.8709 12.0319
L36.9313 12.0924
" />
<path d="M37.6571 13.2414
L37.5361 13.1810
" />
<path d="M37.5361 13.1810
L37.4756 13.1205
" />
<path d="M37.4756 13.1205
L37.4152 12.9995
" />
<path d="M37.4152 12.9995
L37.4152 12.6367
" />
<path d="M37.4152 12.6367
L37.4756 12.5157
" />
<path d="M37.4756 12.5157
L37.5361 12.4552
" />
<path d="M37.5361 12.4552
L37.6571 12.3948
" />
<path d="M37.6571 12.3948
L37.8385 12.3948
" />
<path d="M37.8385 12.3948
L37.9594 12.4552
" />
<path d="M37.9594 12.4552
L38.0199 12.5157
" />
<path d="M38.0199 12.5157
L38.0804 12.6367
" />
<path d="M38.0804 12.6367
L38.0804 12.9995
" />
<path d="M38.0804 12.9995
L38.0199 13.1205
" />
<path d="M38.0199 13.1205
L37.9594 13.1810
" />
<path d="M37.9594 13.1810
L37.8385 13.2414
" />
<path d="M37.8385 13.2414
L37.6571 13.2414
" />
<path d="M38.6246 13.2414
L38.6246 12.3948
" />
<path d="M38.6246 12.5157
L38.6851 12.4552
" />
<path d="M38.6851 12.4552
L38.8061 12.3948
" />
<path d="M38.8061 12.3948
L38.9875 12.3948
" />
<path d="M38.9875 12.3948
L39.1084 12.4552
" />
<path d="M39.1084 12.4552
L39.1689 12.5762
" />
<path d="M39.1689 12.5762
L39.1689 13.2414
" />
<path d="M39.1689 12.5762
L39.2294 12.4552
" />
<path d="M39.2294 12.4552
L39.3503 12.3948
" />
<path d="M39.3503 12.3948
L39.5318 12.3948
" />
<path d="M39.5318 12.3948
L39.6527 12.4552
" />
<path d="M39.6527 12.4552
L39.7132 12.5762
" />
<path d="M39.7132 12.5762
L39.7132 13.2414
" />
<path d="M40.3179 13.2414
L40.3179 12.3948
" />
<path d="M40.3179 12.5157
L40.3784 12.4552
" />
<path d="M40.3784 12.4552
L40.4994 12.3948
" />
<path d="M40.4994 12.3948
L40.6808 12.3948
" />
<path d="M40.6808 12.3948
L40.8017 12.4552
" />
<path d="M40.8017 12.4552
L40.8622 12.5762
" />
<path d="M40.8622 12.5762
L40.8622 13.2414
" />
<path d="M40.8622 12.5762
L40.9227 12.4552
" />
<path d="M40.9227 12.4552
L41.0436 12.3948
" />
<path d="M41.0436 12.3948
L41.2251 12.3948
" />
<path d="M41.2251 12.3948
L41.3460 12.4552
" />
<path d="M41.3460 12.4552
L41.4065 12.5762
" />
<path d="M41.4065 12.5762
L41.4065 13.2414
" />
<path d="M42.1927 13.2414
L42.0717 13.1810
" />
<path d="M42.0717 13.1810
L42.0112 13.1205
" />
<path d="M42.0112 13.1205
L41.9508 12.9995
" />
<path d="M41.9508 12.9995
L41.9508 12.6367
" />
<path d="M41.9508 12.6367
L42.0112 12.5157
" />
<path d="M42.0112 12.5157
L42.0717 12.4552
" />
<path d="M42.0717 12.4552
L42.1927 12.3948
" />
<path d="M42.1927 12.3948
L42.3741 12.3948
" />
<path d="M42.3741 12.3948
L42.4950 12.4552
" />
<path d="M42.4950 12.4552
L42.5555 12.5157
" />
<path d="M42.5555 12.5157
L42.6160 12.6367
" />
<path d="M42.6160 12.6367
L42.6160 12.9995
" />
<path d="M42.6160 12.9995
L42.5555 13.1205
" />
<path d="M42.5555 13.1205
L42.4950 13.1810
" />
<path d="M42.4950 13.1810
L42.3741 13.2414
" />
<path d="M42.3741 13.2414
L42.1927 13.2414
" />
<path d="M43.1602 12.3948
L43.1602 13.2414
" />
<path d="M43.1602 12.5157
L43.2207 12.4552
" />
<path d="M43.2207 12.4552
L43.3417 12.3948
" />
<path d="M43.3417 12.3948
L43.5231 12.3948
" />
<path d="M43.5231 12.3948
L43.6440 12.4552
" />
<path d="M43.6440 12.4552
L43.7045 12.5762
" />
<path d="M43.7045 12.5762
L43.7045 13.2414
" />
</g></g>
<g style="fill:#A90000; fill-opacity:0.0; 
stroke:#A90000; stroke-width:0.1524; stroke-opacity:1; 
stroke-linecap:round; stroke-linejoin:round;">
<text x="45.8851" y="12.4079"
textLength="1.4127" font-size="1.6933" lengthAdjust="spacingAndGlyphs"
text-anchor="middle" opacity="0">4</text>
<g class="stroked-text"><desc>4</desc>
<path d="M46.1270 11.3978
L46.1270 12.2444
" />
<path d="M45.8246 10.9140
L45.5223 11.8211
" />
<path d="M45.5223 11.8211
L46.3084 11.8211
" />
</g></g>
<g style="fill:#840000; fill-opacity:0.0; 
stroke:#840000; stroke-width:0.1524; stroke-opacity:1; 
stroke-linecap:round; stroke-linejoin:round;">
<path d="M44.6151 17.7419
L47.1551 17.7419
" />
</g>
<g style="fill:#006464; fill-opacity:0.0; 
stroke:#006464; stroke-width:0.1524; stroke-opacity:1; 
stroke-linecap:round; stroke-linejoin:round;">
<text x="44.1071" y="18.3769"
textLength="6.4928" font-size="1.6933" lengthAdjust="spacingAndGlyphs"
text-anchor="end" opacity="0">-VOUT</text>
<g class="stroked-text"><desc>-VOUT</desc>
<path d="M38.0196 17.8376
L38.9873 17.8376
" />
<path d="M39.4106 17.0514
L39.8339 18.3214
" />
<path d="M39.8339 18.3214
L40.2573 17.0514
" />
<path d="M40.9225 17.0514
L41.1644 17.0514
" />
<path d="M41.1644 17.0514
L41.2854 17.1119
" />
<path d="M41.2854 17.1119
L41.4063 17.2329
" />
<path d="M41.4063 17.2329
L41.4668 17.4748
" />
<path d="M41.4668 17.4748
L41.4668 17.8981
" />
<path d="M41.4668 17.8981
L41.4063 18.1400
" />
<path d="M41.4063 18.1400
L41.2854 18.2610
" />
<path d="M41.2854 18.2610
L41.1644 18.3214
" />
<path d="M41.1644 18.3214
L40.9225 18.3214
" />
<path d="M40.9225 18.3214
L40.8016 18.2610
" />
<path d="M40.8016 18.2610
L40.6806 18.1400
" />
<path d="M40.6806 18.1400
L40.6202 17.8981
" />
<path d="M40.6202 17.8981
L40.6202 17.4748
" />
<path d="M40.6202 17.4748
L40.6806 17.2329
" />
<path d="M40.6806 17.2329
L40.8016 17.1119
" />
<path d="M40.8016 17.1119
L40.9225 17.0514
" />
<path d="M42.0111 17.0514
L42.0111 18.0795
" />
<path d="M42.0111 18.0795
L42.0716 18.2005
" />
<path d="M42.0716 18.2005
L42.1321 18.2610
" />
<path d="M42.1321 18.2610
L42.2530 18.3214
" />
<path d="M42.2530 18.3214
L42.4949 18.3214
" />
<path d="M42.4949 18.3214
L42.6159 18.2610
" />
<path d="M42.6159 18.2610
L42.6764 18.2005
" />
<path d="M42.6764 18.2005
L42.7368 18.0795
" />
<path d="M42.7368 18.0795
L42.7368 17.0514
" />
<path d="M43.1602 17.0514
L43.8859 17.0514
" />
<path d="M43.5231 18.3214
L43.5231 17.0514
" />
</g></g>
<g style="fill:#A90000; fill-opacity:0.0; 
stroke:#A90000; stroke-width:0.1524; stroke-opacity:1; 
stroke-linecap:round; stroke-linejoin:round;">
<text x="45.8851" y="17.4879"
textLength="1.4127" font-size="1.6933" lengthAdjust="spacingAndGlyphs"
text-anchor="middle" opacity="0">5</text>
<g class="stroked-text"><desc>5</desc>
<path d="M46.1875 16.0544
L45.5827 16.0544
" />
<path d="M45.5827 16.0544
L45.5223 16.6592
" />
<path d="M45.5223 16.6592
L45.5827 16.5987
" />
<path d="M45.5827 16.5987
L45.7037 16.5382
" />
<path d="M45.7037 16.5382
L46.0061 16.5382
" />
<path d="M46.0061 16.5382
L46.1270 16.5987
" />
<path d="M46.1270 16.5987
L46.1875 16.6592
" />
<path d="M46.1875 16.6592
L46.2480 16.7801
" />
<path d="M46.2480 16.7801
L46.2480 17.0825
" />
<path d="M46.2480 17.0825
L46.1875 17.2035
" />
<path d="M46.1875 17.2035
L46.1270 17.2640
" />
<path d="M46.1270 17.2640
L46.0061 17.3244
" />
<path d="M46.0061 17.3244
L45.7037 17.3244
" />
<path d="M45.7037 17.3244
L45.5827 17.2640
" />
<path d="M45.5827 17.2640
L45.5223 17.2035
" />
</g></g>
<g style="fill:#840000; fill-opacity:0.0; 
stroke:#840000; stroke-width:0.1524; stroke-opacity:1; 
stroke-linecap:round; stroke-linejoin:round;">
<path d="M24.2951 12.6619
L21.7551 12.6619
" />
</g>
<g style="fill:#006464; fill-opacity:0.0; 
stroke:#006464; stroke-width:0.1524; stroke-opacity:1; 
stroke-linecap:round; stroke-linejoin:round;">
<text x="24.8031" y="13.2969"
textLength="6.7951" font-size="1.6933" lengthAdjust="spacingAndGlyphs"
text-anchor="start" opacity="0">On/~{Off}</text>
<g class="stroked-text"><desc>On/~{Off}</desc>
<path d="M25.4475 11.9714
L25.6894 11.9714
" />
<path d="M25.6894 11.9714
L25.8104 12.0319
" />
<path d="M25.8104 12.0319
L25.9313 12.1529
" />
<path d="M25.9313 12.1529
L25.9918 12.3948
" />
<path d="M25.9918 12.3948
L25.9918 12.8181
" />
<path d="M25.9918 12.8181
L25.9313 13.0600
" />
<path d="M25.9313 13.0600
L25.8104 13.1810
" />
<path d="M25.8104 13.1810
L25.6894 13.2414
" />
<path d="M25.6894 13.2414
L25.4475 13.2414
" />
<path d="M25.4475 13.2414
L25.3266 13.1810
" />
<path d="M25.3266 13.1810
L25.2056 13.0600
" />
<path d="M25.2056 13.0600
L25.1452 12.8181
" />
<path d="M25.1452 12.8181
L25.1452 12.3948
" />
<path d="M25.1452 12.3948
L25.2056 12.1529
" />
<path d="M25.2056 12.1529
L25.3266 12.0319
" />
<path d="M25.3266 12.0319
L25.4475 11.9714
" />
<path d="M26.5361 12.3948
L26.5361 13.2414
" />
<path d="M26.5361 12.5157
L26.5966 12.4552
" />
<path d="M26.5966 12.4552
L26.7176 12.3948
" />
<path d="M26.7176 12.3948
L26.8990 12.3948
" />
<path d="M26.8990 12.3948
L27.0199 12.4552
" />
<path d="M27.0199 12.4552
L27.0804 12.5762
" />
<path d="M27.0804 12.5762
L27.0804 13.2414
" />
<path d="M28.5923 11.9110
L27.5037 13.5438
" />
<path d="M29.2575 11.9714
L29.4994 11.9714
" />
<path d="M29.4994 11.9714
L29.6204 12.0319
" />
<path d="M29.6204 12.0319
L29.7413 12.1529
" />
<path d="M29.7413 12.1529
L29.8018 12.3948
" />
<path d="M29.8018 12.3948
L29.8018 12.8181
" />
<path d="M29.8018 12.8181
L29.7413 13.0600
" />
<path d="M29.7413 13.0600
L29.6204 13.1810
" />
<path d="M29.6204 13.1810
L29.4994 13.2414
" />
<path d="M29.4994 13.2414
L29.2575 13.2414
" />
<path d="M29.2575 13.2414
L29.1366 13.1810
" />
<path d="M29.1366 13.1810
L29.0156 13.0600
" />
<path d="M29.0156 13.0600
L28.9552 12.8181
" />
<path d="M28.9552 12.8181
L28.9552 12.3948
" />
<path d="M28.9552 12.3948
L29.0156 12.1529
" />
<path d="M29.0156 12.1529
L29.1366 12.0319
" />
<path d="M29.1366 12.0319
L29.2575 11.9714
" />
<path d="M30.1647 12.3948
L30.6485 12.3948
" />
<path d="M30.3461 13.2414
L30.3461 12.1529
" />
<path d="M30.3461 12.1529
L30.4066 12.0319
" />
<path d="M30.4066 12.0319
L30.5276 11.9714
" />
<path d="M30.5276 11.9714
L30.6485 11.9714
" />
<path d="M30.8904 12.3948
L31.3742 12.3948
" />
<path d="M31.0718 13.2414
L31.0718 12.1529
" />
<path d="M31.0718 12.1529
L31.1323 12.0319
" />
<path d="M31.1323 12.0319
L31.2533 11.9714
" />
<path d="M31.2533 11.9714
L31.3742 11.9714
" />
<path d="M28.8403 11.6189
L31.3682 11.6189
" />
</g></g>
<g style="fill:#A90000; fill-opacity:0.0; 
stroke:#A90000; stroke-width:0.1524; stroke-opacity:1; 
stroke-linecap:round; stroke-linejoin:round;">
<text x="23.0251" y="12.4079"
textLength="1.4127" font-size="1.6933" lengthAdjust="spacingAndGlyphs"
text-anchor="middle" opacity="0">6</text>
<g class="stroked-text"><desc>6</desc>
<path d="M23.2670 10.9744
L23.0251 10.9744
" />
<path d="M23.0251 10.9744
L22.9042 11.0349
" />
<path d="M22.9042 11.0349
L22.8437 11.0954
" />
<path d="M22.8437 11.0954
L22.7227 11.2768
" />
<path d="M22.7227 11.2768
L22.6623 11.5187
" />
<path d="M22.6623 11.5187
L22.6623 12.0025
" />
<path d="M22.6623 12.0025
L22.7227 12.1235
" />
<path d="M22.7227 12.1235
L22.7832 12.1840
" />
<path d="M22.7832 12.1840
L22.9042 12.2444
" />
<path d="M22.9042 12.2444
L23.1461 12.2444
" />
<path d="M23.1461 12.2444
L23.2670 12.1840
" />
<path d="M23.2670 12.1840
L23.3275 12.1235
" />
<path d="M23.3275 12.1235
L23.3880 12.0025
" />
<path d="M23.3880 12.0025
L23.3880 11.7001
" />
<path d="M23.3880 11.7001
L23.3275 11.5792
" />
<path d="M23.3275 11.5792
L23.2670 11.5187
" />
<path d="M23.2670 11.5187
L23.1461 11.4582
" />
<path d="M23.1461 11.4582
L22.9042 11.4582
" />
<path d="M22.9042 11.4582
L22.7832 11.5187
" />
<path d="M22.7832 11.5187
L22.7227 11.5792
" />
<path d="M22.7227 11.5792
L22.6623 11.7001
" />
</g></g>
<g style="fill:#840084; fill-opacity:0.0; 
stroke:#840084; stroke-width:0.1524; stroke-opacity:1; 
stroke-linecap:round; stroke-linejoin:round;">
</g>
<g style="fill:#006464; fill-opacity:0.0; 
stroke:#006464; stroke-width:0.1524; stroke-opacity:1; 
stroke-linecap:round; stroke-linejoin:round;">
</g>
<g style="fill:#006464; fill-opacity:0.0; 
stroke:#006464; stroke-width:0.1588; stroke-opacity:1; 
stroke-linecap:round; stroke-linejoin:round;">
<text x="25.5651" y="4.4069"
textLength="2.6415" font-size="1.6933" lengthAdjust="spacingAndGlyphs"
text-anchor="middle" opacity="0">U?</text>
<g class="stroked-text"><desc>U?</desc>
<path d="M24.6579 3.0811
L24.6579 4.1092
" />
<path d="M24.6579 4.1092
L24.7184 4.2302
" />
<path d="M24.7184 4.2302
L24.7789 4.2907
" />
<path d="M24.7789 4.2907
L24.8998 4.3511
" />
<path d="M24.8998 4.3511
L25.1417 4.3511
" />
<path d="M25.1417 4.3511
L25.2627 4.2907
" />
<path d="M25.2627 4.2907
L25.3232 4.2302
" />
<path d="M25.3232 4.2302
L25.3836 4.1092
" />
<path d="M25.3836 4.1092
L25.3836 3.0811
" />
<path d="M26.1699 4.2302
L26.2303 4.2907
" />
<path d="M26.2303 4.2907
L26.1699 4.3511
" />
<path d="M26.1699 4.3511
L26.1094 4.2907
" />
<path d="M26.1094 4.2907
L26.1699 4.2302
" />
<path d="M26.1699 4.2302
L26.1699 4.3511
" />
<path d="M25.9280 3.1416
L26.0489 3.0811
" />
<path d="M26.0489 3.0811
L26.3513 3.0811
" />
<path d="M26.3513 3.0811
L26.4722 3.1416
" />
<path d="M26.4722 3.1416
L26.5327 3.2626
" />
<path d="M26.5327 3.2626
L26.5327 3.3835
" />
<path d="M26.5327 3.3835
L26.4722 3.5045
" />
<path d="M26.4722 3.5045
L26.4118 3.5649
" />
<path d="M26.4118 3.5649
L26.2908 3.6254
" />
<path d="M26.2908 3.6254
L26.2303 3.6859
" />
<path d="M26.2303 3.6859
L26.1699 3.8068
" />
<path d="M26.1699 3.8068
L26.1699 3.8673
" />
</g><text x="43.3451" y="4.4069"
textLength="11.9546" font-size="1.6933" lengthAdjust="spacingAndGlyphs"
text-anchor="middle" opacity="0">JTD2048D05</text>
<g class="stroked-text"><desc>JTD2048D05</desc>
<path d="M38.1442 3.0811
L38.1442 3.9883
" />
<path d="M38.1442 3.9883
L38.0837 4.1697
" />
<path d="M38.0837 4.1697
L37.9628 4.2907
" />
<path d="M37.9628 4.2907
L37.7813 4.3511
" />
<path d="M37.7813 4.3511
L37.6604 4.3511
" />
<path d="M38.5675 3.0811
L39.2932 3.0811
" />
<path d="M38.9304 4.3511
L38.9304 3.0811
" />
<path d="M39.7165 4.3511
L39.7165 3.0811
" />
<path d="M39.7165 3.0811
L40.0189 3.0811
" />
<path d="M40.0189 3.0811
L40.2003 3.1416
" />
<path d="M40.2003 3.1416
L40.3213 3.2626
" />
<path d="M40.3213 3.2626
L40.3818 3.3835
" />
<path d="M40.3818 3.3835
L40.4422 3.6254
" />
<path d="M40.4422 3.6254
L40.4422 3.8068
" />
<path d="M40.4422 3.8068
L40.3818 4.0487
" />
<path d="M40.3818 4.0487
L40.3213 4.1697
" />
<path d="M40.3213 4.1697
L40.2003 4.2907
" />
<path d="M40.2003 4.2907
L40.0189 4.3511
" />
<path d="M40.0189 4.3511
L39.7165 4.3511
" />
<path d="M40.9261 3.2021
L40.9865 3.1416
" />
<path d="M40.9865 3.1416
L41.1075 3.0811
" />
<path d="M41.1075 3.0811
L41.4099 3.0811
" />
<path d="M41.4099 3.0811
L41.5308 3.1416
" />
<path d="M41.5308 3.1416
L41.5913 3.2021
" />
<path d="M41.5913 3.2021
L41.6518 3.3230
" />
<path d="M41.6518 3.3230
L41.6518 3.4440
" />
<path d="M41.6518 3.4440
L41.5913 3.6254
" />
<path d="M41.5913 3.6254
L40.8656 4.3511
" />
<path d="M40.8656 4.3511
L41.6518 4.3511
" />
<path d="M42.4379 3.0811
L42.5589 3.0811
" />
<path d="M42.5589 3.0811
L42.6798 3.1416
" />
<path d="M42.6798 3.1416
L42.7403 3.2021
" />
<path d="M42.7403 3.2021
L42.8008 3.3230
" />
<path d="M42.8008 3.3230
L42.8613 3.5649
" />
<path d="M42.8613 3.5649
L42.8613 3.8673
" />
<path d="M42.8613 3.8673
L42.8008 4.1092
" />
<path d="M42.8008 4.1092
L42.7403 4.2302
" />
<path d="M42.7403 4.2302
L42.6798 4.2907
" />
<path d="M42.6798 4.2907
L42.5589 4.3511
" />
<path d="M42.5589 4.3511
L42.4379 4.3511
" />
<path d="M42.4379 4.3511
L42.3170 4.2907
" />
<path d="M42.3170 4.2907
L42.2565 4.2302
" />
<path d="M42.2565 4.2302
L42.1960 4.1092
" />
<path d="M42.1960 4.1092
L42.1356 3.8673
" />
<path d="M42.1356 3.8673
L42.1356 3.5649
" />
<path d="M42.1356 3.5649
L42.1960 3.3230
" />
<path d="M42.1960 3.3230
L42.2565 3.2021
" />
<path d="M42.2565 3.2021
L42.3170 3.1416
" />
<path d="M42.3170 3.1416
L42.4379 3.0811
" />
<path d="M43.9498 3.5045
L43.9498 4.3511
" />
<path d="M43.6474 3.0207
L43.3451 3.9278
" />
<path d="M43.3451 3.9278
L44.1312 3.9278
" />
<path d="M44.7965 3.6254
L44.6755 3.5649
" />
<path d="M44.6755 3.5649
L44.6150 3.5045
" />
<path d="M44.6150 3.5045
L44.5546 3.3835
" />
<path d="M44.5546 3.3835
L44.5546 3.3230
" />
<path d="M44.5546 3.3230
L44.6150 3.2021
" />
<path d="M44.6150 3.2021
L44.6755 3.1416
" />
<path d="M44.6755 3.1416
L44.7965 3.0811
" />
<path d="M44.7965 3.0811
L45.0384 3.0811
" />
<path d="M45.0384 3.0811
L45.1593 3.1416
" />
<path d="M45.1593 3.1416
L45.2198 3.2021
" />
<path d="M45.2198 3.2021
L45.2803 3.3230
" />
<path d="M45.2803 3.3230
L45.2803 3.3835
" />
<path d="M45.2803 3.3835
L45.2198 3.5045
" />
<path d="M45.2198 3.5045
L45.1593 3.5649
" />
<path d="M45.1593 3.5649
L45.0384 3.6254
" />
<path d="M45.0384 3.6254
L44.7965 3.6254
" />
<path d="M44.7965 3.6254
L44.6755 3.6859
" />
<path d="M44.6755 3.6859
L44.6150 3.7464
" />
<path d="M44.6150 3.7464
L44.5546 3.8673
" />
<path d="M44.5546 3.8673
L44.5546 4.1092
" />
<path d="M44.5546 4.1092
L44.6150 4.2302
" />
<path d="M44.6150 4.2302
L44.6755 4.2907
" />
<path d="M44.6755 4.2907
L44.7965 4.3511
" />
<path d="M44.7965 4.3511
L45.0384 4.3511
" />
<path d="M45.0384 4.3511
L45.1593 4.2907
" />
<path d="M45.1593 4.2907
L45.2198 4.2302
" />
<path d="M45.2198 4.2302
L45.2803 4.1092
" />
<path d="M45.2803 4.1092
L45.2803 3.8673
" />
<path d="M45.2803 3.8673
L45.2198 3.7464
" />
<path d="M45.2198 3.7464
L45.1593 3.6859
" />
<path d="M45.1593 3.6859
L45.0384 3.6254
" />
<path d="M45.8245 4.3511
L45.8245 3.0811
" />
<path d="M45.8245 3.0811
L46.1269 3.0811
" />
<path d="M46.1269 3.0811
L46.3083 3.1416
" />
<path d="M46.3083 3.1416
L46.4293 3.2626
" />
<path d="M46.4293 3.2626
L46.4898 3.3835
" />
<path d="M46.4898 3.3835
L46.5502 3.6254
" />
<path d="M46.5502 3.6254
L46.5502 3.8068
" />
<path d="M46.5502 3.8068
L46.4898 4.0487
" />
<path d="M46.4898 4.0487
L46.4293 4.1697
" />
<path d="M46.4293 4.1697
L46.3083 4.2907
" />
<path d="M46.3083 4.2907
L46.1269 4.3511
" />
<path d="M46.1269 4.3511
L45.8245 4.3511
" />
<path d="M47.3364 3.0811
L47.4574 3.0811
" />
<path d="M47.4574 3.0811
L47.5783 3.1416
" />
<path d="M47.5783 3.1416
L47.6388 3.2021
" />
<path d="M47.6388 3.2021
L47.6993 3.3230
" />
<path d="M47.6993 3.3230
L47.7598 3.5649
" />
<path d="M47.7598 3.5649
L47.7598 3.8673
" />
<path d="M47.7598 3.8673
L47.6993 4.1092
" />
<path d="M47.6993 4.1092
L47.6388 4.2302
" />
<path d="M47.6388 4.2302
L47.5783 4.2907
" />
<path d="M47.5783 4.2907
L47.4574 4.3511
" />
<path d="M47.4574 4.3511
L47.3364 4.3511
" />
<path d="M47.3364 4.3511
L47.2155 4.2907
" />
<path d="M47.2155 4.2907
L47.1550 4.2302
" />
<path d="M47.1550 4.2302
L47.0945 4.1092
" />
<path d="M47.0945 4.1092
L47.0341 3.8673
" />
<path d="M47.0341 3.8673
L47.0341 3.5649
" />
<path d="M47.0341 3.5649
L47.0945 3.3230
" />
<path d="M47.0945 3.3230
L47.1550 3.2021
" />
<path d="M47.1550 3.2021
L47.2155 3.1416
" />
<path d="M47.2155 3.1416
L47.3364 3.0811
" />
<path d="M48.9088 3.0811
L48.3040 3.0811
" />
<path d="M48.3040 3.0811
L48.2436 3.6859
" />
<path d="M48.2436 3.6859
L48.3040 3.6254
" />
<path d="M48.3040 3.6254
L48.4250 3.5649
" />
<path d="M48.4250 3.5649
L48.7274 3.5649
" />
<path d="M48.7274 3.5649
L48.8483 3.6254
" />
<path d="M48.8483 3.6254
L48.9088 3.6859
" />
<path d="M48.9088 3.6859
L48.9693 3.8068
" />
<path d="M48.9693 3.8068
L48.9693 4.1092
" />
<path d="M48.9693 4.1092
L48.9088 4.2302
" />
<path d="M48.9088 4.2302
L48.8483 4.2907
" />
<path d="M48.8483 4.2907
L48.7274 4.3511
" />
<path d="M48.7274 4.3511
L48.4250 4.3511
" />
<path d="M48.4250 4.3511
L48.3040 4.2907
" />
<path d="M48.3040 4.2907
L48.2436 4.2302
" />
</g></g> 
</svg>
