<?xml version="1.0" standalone="no"?>
 <!DOCTYPE svg PUBLIC "-//W3C//DTD SVG 1.1//EN" 
 "http://www.w3.org/Graphics/SVG/1.1/DTD/svg11.dtd"> 
<svg
  xmlns:svg="http://www.w3.org/2000/svg"
  xmlns="http://www.w3.org/2000/svg"
  xmlns:xlink="http://www.w3.org/1999/xlink"
  version="1.1"
  width="37.8460mm" height="13.2842mm" viewBox="0.0000 0.0000 37.8460 13.2842">
<title>SVG Image created as LFCSP-64-1EP_9x9mm_P0.5mm_EP5.21x5.21mm.svg date 2024/01/16 15:07:09 </title>
  <desc>Image generated by PCBNEW </desc>
<g style="fill:#000000; fill-opacity:1.0000;stroke:#000000; stroke-opacity:1.0000;
stroke-linecap:round; stroke-linejoin:round;"
 transform="translate(0 0) scale(1 1)">
</g>
<g style="fill:#000000; fill-opacity:0.0; 
stroke:#000000; stroke-width:0.0000; stroke-opacity:1; 
stroke-linecap:round; stroke-linejoin:round;">
</g>
<g style="fill:#000000; fill-opacity:1.0000; 
stroke:#000000; stroke-width:0.0212; stroke-opacity:1; 
stroke-linecap:round; stroke-linejoin:round;">
<rect x="-5.000000" y="-5.000000" width="47.869046" height="23.296500" rx="0.000000" />
</g>
<g style="fill:#FFFFFF; fill-opacity:1.0000; 
stroke:#FFFFFF; stroke-width:0.0212; stroke-opacity:1; 
stroke-linecap:round; stroke-linejoin:round;">
<g >
</g>
<g >
</g>
<g >
</g>
<g >
</g>
</g>
<g style="fill:#FFFFFF; fill-opacity:1.0000; 
stroke:#FFFFFF; stroke-width:0.0212; stroke-opacity:1; 
stroke-linecap:round; stroke-linejoin:round;">
<g >
</g>
<g >
</g>
<g >
</g>
<g >
</g>
</g>
<g style="fill:#FFFFFF; fill-opacity:1.0000; 
stroke:#FFFFFF; stroke-width:0.0212; stroke-opacity:1; 
stroke-linecap:round; stroke-linejoin:round;">
<g >
</g>
<g >
</g>
<g >
</g>
<g >
</g>
</g>
<g style="fill:#FFFFFF; fill-opacity:1.0000; 
stroke:#FFFFFF; stroke-width:0.0212; stroke-opacity:1; 
stroke-linecap:round; stroke-linejoin:round;">
<g >
</g>
<g >
</g>
<g >
</g>
<g >
</g>
</g>
<g style="fill:#FFFFFF; fill-opacity:1.0000; 
stroke:#FFFFFF; stroke-width:0.0212; stroke-opacity:1; 
stroke-linecap:round; stroke-linejoin:round;">
<g >
</g>
<g >
</g>
<g >
</g>
<g >
</g>
</g>
<g style="fill:#FFFFFF; fill-opacity:1.0000; 
stroke:#FFFFFF; stroke-width:0.0212; stroke-opacity:1; 
stroke-linecap:round; stroke-linejoin:round;">
<g >
</g>
<g >
</g>
<g >
</g>
<g >
</g>
</g>
<g style="fill:#FFFFFF; fill-opacity:1.0000; 
stroke:#FFFFFF; stroke-width:0.0212; stroke-opacity:1; 
stroke-linecap:round; stroke-linejoin:round;">
<g >
</g>
<g >
</g>
<g >
</g>
<g >
</g>
</g>
<g style="fill:#FFFFFF; fill-opacity:1.0000; 
stroke:#FFFFFF; stroke-width:0.0212; stroke-opacity:1; 
stroke-linecap:round; stroke-linejoin:round;">
<g >
</g>
<g >
</g>
<g >
</g>
<g >
</g>
</g>
<g style="fill:#FFFFFF; fill-opacity:1.0000; 
stroke:#FFFFFF; stroke-width:0.0212; stroke-opacity:1; 
stroke-linecap:round; stroke-linejoin:round;">
<g >
</g>
<g >
</g>
<g >
</g>
<g >
</g>
</g>
<g style="fill:#FFFFFF; fill-opacity:1.0000; 
stroke:#FFFFFF; stroke-width:0.0212; stroke-opacity:1; 
stroke-linecap:round; stroke-linejoin:round;">
<g >
</g>
<g >
</g>
<g >
</g>
<g >
</g>
</g>
<g style="fill:#FFFFFF; fill-opacity:1.0000; 
stroke:#FFFFFF; stroke-width:0.0212; stroke-opacity:1; 
stroke-linecap:round; stroke-linejoin:round;">
<g >
</g>
<g >
</g>
<g >
</g>
<g >
</g>
</g>
<g style="fill:#FFFFFF; fill-opacity:1.0000; 
stroke:#FFFFFF; stroke-width:0.0212; stroke-opacity:1; 
stroke-linecap:round; stroke-linejoin:round;">
<g >
</g>
<g >
</g>
<g >
</g>
<g >
</g>
</g>
<g style="fill:#FFFFFF; fill-opacity:1.0000; 
stroke:#FFFFFF; stroke-width:0.0212; stroke-opacity:1; 
stroke-linecap:round; stroke-linejoin:round;">
<g >
</g>
<g >
</g>
<g >
</g>
<g >
</g>
</g>
<g style="fill:#FFFFFF; fill-opacity:1.0000; 
stroke:#FFFFFF; stroke-width:0.0212; stroke-opacity:1; 
stroke-linecap:round; stroke-linejoin:round;">
<g >
</g>
<g >
</g>
<g >
</g>
<g >
</g>
</g>
<g style="fill:#FFFFFF; fill-opacity:1.0000; 
stroke:#FFFFFF; stroke-width:0.0212; stroke-opacity:1; 
stroke-linecap:round; stroke-linejoin:round;">
<g >
</g>
<g >
</g>
<g >
</g>
<g >
</g>
</g>
<g style="fill:#FFFFFF; fill-opacity:1.0000; 
stroke:#FFFFFF; stroke-width:0.0212; stroke-opacity:1; 
stroke-linecap:round; stroke-linejoin:round;">
<g >
</g>
<g >
</g>
<g >
</g>
<g >
</g>
</g>
<g style="fill:#FFFFFF; fill-opacity:1.0000; 
stroke:#FFFFFF; stroke-width:0.0212; stroke-opacity:1; 
stroke-linecap:round; stroke-linejoin:round;">
<g >
</g>
<g >
</g>
<g >
</g>
<g >
</g>
</g>
<g style="fill:#FFFFFF; fill-opacity:1.0000; 
stroke:#FFFFFF; stroke-width:0.0212; stroke-opacity:1; 
stroke-linecap:round; stroke-linejoin:round;">
<g >
</g>
<g >
</g>
<g >
</g>
<g >
</g>
</g>
<g style="fill:#FFFFFF; fill-opacity:1.0000; 
stroke:#FFFFFF; stroke-width:0.0212; stroke-opacity:1; 
stroke-linecap:round; stroke-linejoin:round;">
<g >
</g>
<g >
</g>
<g >
</g>
<g >
</g>
</g>
<g style="fill:#FFFFFF; fill-opacity:1.0000; 
stroke:#FFFFFF; stroke-width:0.0212; stroke-opacity:1; 
stroke-linecap:round; stroke-linejoin:round;">
<g >
</g>
<g >
</g>
<g >
</g>
<g >
</g>
</g>
<g style="fill:#FFFFFF; fill-opacity:1.0000; 
stroke:#FFFFFF; stroke-width:0.0212; stroke-opacity:1; 
stroke-linecap:round; stroke-linejoin:round;">
<g >
</g>
<g >
</g>
<g >
</g>
<g >
</g>
</g>
<g style="fill:#FFFFFF; fill-opacity:1.0000; 
stroke:#FFFFFF; stroke-width:0.0212; stroke-opacity:1; 
stroke-linecap:round; stroke-linejoin:round;">
<g >
</g>
<g >
</g>
<g >
</g>
<g >
</g>
</g>
<g style="fill:#FFFFFF; fill-opacity:1.0000; 
stroke:#FFFFFF; stroke-width:0.0212; stroke-opacity:1; 
stroke-linecap:round; stroke-linejoin:round;">
<g >
</g>
<g >
</g>
<g >
</g>
<g >
</g>
</g>
<g style="fill:#FFFFFF; fill-opacity:1.0000; 
stroke:#FFFFFF; stroke-width:0.0212; stroke-opacity:1; 
stroke-linecap:round; stroke-linejoin:round;">
<g >
</g>
<g >
</g>
<g >
</g>
<g >
</g>
</g>
<g style="fill:#FFFFFF; fill-opacity:1.0000; 
stroke:#FFFFFF; stroke-width:0.0212; stroke-opacity:1; 
stroke-linecap:round; stroke-linejoin:round;">
<g >
</g>
<g >
</g>
<g >
</g>
<g >
</g>
</g>
<g style="fill:#FFFFFF; fill-opacity:1.0000; 
stroke:#FFFFFF; stroke-width:0.0212; stroke-opacity:1; 
stroke-linecap:round; stroke-linejoin:round;">
<g >
</g>
<g >
</g>
<g >
</g>
<g >
</g>
</g>
<g style="fill:#FFFFFF; fill-opacity:1.0000; 
stroke:#FFFFFF; stroke-width:0.0212; stroke-opacity:1; 
stroke-linecap:round; stroke-linejoin:round;">
<g >
</g>
<g >
</g>
<g >
</g>
<g >
</g>
</g>
<g style="fill:#FFFFFF; fill-opacity:1.0000; 
stroke:#FFFFFF; stroke-width:0.0212; stroke-opacity:1; 
stroke-linecap:round; stroke-linejoin:round;">
<g >
</g>
<g >
</g>
<g >
</g>
<g >
</g>
</g>
<g style="fill:#FFFFFF; fill-opacity:1.0000; 
stroke:#FFFFFF; stroke-width:0.0212; stroke-opacity:1; 
stroke-linecap:round; stroke-linejoin:round;">
<g >
</g>
<g >
</g>
<g >
</g>
<g >
</g>
</g>
<g style="fill:#FFFFFF; fill-opacity:1.0000; 
stroke:#FFFFFF; stroke-width:0.0212; stroke-opacity:1; 
stroke-linecap:round; stroke-linejoin:round;">
<g >
</g>
<g >
</g>
<g >
</g>
<g >
</g>
</g>
<g style="fill:#FFFFFF; fill-opacity:1.0000; 
stroke:#FFFFFF; stroke-width:0.0212; stroke-opacity:1; 
stroke-linecap:round; stroke-linejoin:round;">
<g >
</g>
<g >
</g>
<g >
</g>
<g >
</g>
</g>
<g style="fill:#FFFFFF; fill-opacity:1.0000; 
stroke:#FFFFFF; stroke-width:0.0212; stroke-opacity:1; 
stroke-linecap:round; stroke-linejoin:round;">
<g >
</g>
<g >
</g>
<g >
</g>
<g >
</g>
</g>
<g style="fill:#FFFFFF; fill-opacity:1.0000; 
stroke:#FFFFFF; stroke-width:0.0212; stroke-opacity:1; 
stroke-linecap:round; stroke-linejoin:round;">
<g >
</g>
<g >
</g>
<g >
</g>
<g >
</g>
</g>
<g style="fill:#FFFFFF; fill-opacity:1.0000; 
stroke:#FFFFFF; stroke-width:0.0212; stroke-opacity:1; 
stroke-linecap:round; stroke-linejoin:round;">
<g >
</g>
<g style="fill:#FFFFFF; fill-opacity:1.0000; 
stroke:#FFFFFF; stroke-width:0.0000; stroke-opacity:1; 
stroke-linecap:round; stroke-linejoin:round;">
<path style="fill:#FFFFFF; fill-opacity:1.0000; 
stroke:#FFFFFF; stroke-width:0.0000; stroke-opacity:1; 
stroke-linecap:round; stroke-linejoin:round;fill-rule:evenodd;"
d="M 14.0845,2.8357
14.0893,2.8118
14.1028,2.7916
14.1231,2.7780
14.1470,2.7732
14.8470,2.7732
14.8709,2.7780
14.8912,2.7916
14.9048,2.8118
14.9095,2.8357
14.9095,2.9607
14.9048,2.9847
14.8912,3.0049
14.8709,3.0185
14.8470,3.0232
14.1470,3.0232
14.1231,3.0185
14.1028,3.0049
14.0893,2.9847
14.0845,2.9607
Z" /> 
<path style="fill:#FFFFFF; fill-opacity:1.0000; 
stroke:#FFFFFF; stroke-width:0.0000; stroke-opacity:1; 
stroke-linecap:round; stroke-linejoin:round;fill-rule:evenodd;"
d="M 14.0845,3.3357
14.0893,3.3118
14.1028,3.2916
14.1231,3.2780
14.1470,3.2732
14.8470,3.2732
14.8709,3.2780
14.8912,3.2916
14.9048,3.3118
14.9095,3.3357
14.9095,3.4607
14.9048,3.4847
14.8912,3.5049
14.8709,3.5185
14.8470,3.5232
14.1470,3.5232
14.1231,3.5185
14.1028,3.5049
14.0893,3.4847
14.0845,3.4607
Z" /> 
<path style="fill:#FFFFFF; fill-opacity:1.0000; 
stroke:#FFFFFF; stroke-width:0.0000; stroke-opacity:1; 
stroke-linecap:round; stroke-linejoin:round;fill-rule:evenodd;"
d="M 14.0845,3.8357
14.0893,3.8118
14.1028,3.7916
14.1231,3.7780
14.1470,3.7732
14.8470,3.7732
14.8709,3.7780
14.8912,3.7916
14.9048,3.8118
14.9095,3.8357
14.9095,3.9607
14.9048,3.9847
14.8912,4.0049
14.8709,4.0185
14.8470,4.0232
14.1470,4.0232
14.1231,4.0185
14.1028,4.0049
14.0893,3.9847
14.0845,3.9607
Z" /> 
<path style="fill:#FFFFFF; fill-opacity:1.0000; 
stroke:#FFFFFF; stroke-width:0.0000; stroke-opacity:1; 
stroke-linecap:round; stroke-linejoin:round;fill-rule:evenodd;"
d="M 14.0845,4.3357
14.0893,4.3118
14.1028,4.2916
14.1231,4.2780
14.1470,4.2732
14.8470,4.2732
14.8709,4.2780
14.8912,4.2916
14.9048,4.3118
14.9095,4.3357
14.9095,4.4607
14.9048,4.4847
14.8912,4.5049
14.8709,4.5185
14.8470,4.5232
14.1470,4.5232
14.1231,4.5185
14.1028,4.5049
14.0893,4.4847
14.0845,4.4607
Z" /> 
<path style="fill:#FFFFFF; fill-opacity:1.0000; 
stroke:#FFFFFF; stroke-width:0.0000; stroke-opacity:1; 
stroke-linecap:round; stroke-linejoin:round;fill-rule:evenodd;"
d="M 14.0845,4.8357
14.0893,4.8118
14.1028,4.7916
14.1231,4.7780
14.1470,4.7732
14.8470,4.7732
14.8709,4.7780
14.8912,4.7916
14.9048,4.8118
14.9095,4.8357
14.9095,4.9607
14.9048,4.9847
14.8912,5.0049
14.8709,5.0185
14.8470,5.0232
14.1470,5.0232
14.1231,5.0185
14.1028,5.0049
14.0893,4.9847
14.0845,4.9607
Z" /> 
<path style="fill:#FFFFFF; fill-opacity:1.0000; 
stroke:#FFFFFF; stroke-width:0.0000; stroke-opacity:1; 
stroke-linecap:round; stroke-linejoin:round;fill-rule:evenodd;"
d="M 14.0845,5.3357
14.0893,5.3118
14.1028,5.2916
14.1231,5.2780
14.1470,5.2732
14.8470,5.2732
14.8709,5.2780
14.8912,5.2916
14.9048,5.3118
14.9095,5.3357
14.9095,5.4607
14.9048,5.4847
14.8912,5.5049
14.8709,5.5185
14.8470,5.5232
14.1470,5.5232
14.1231,5.5185
14.1028,5.5049
14.0893,5.4847
14.0845,5.4607
Z" /> 
<path style="fill:#FFFFFF; fill-opacity:1.0000; 
stroke:#FFFFFF; stroke-width:0.0000; stroke-opacity:1; 
stroke-linecap:round; stroke-linejoin:round;fill-rule:evenodd;"
d="M 14.0845,5.8357
14.0893,5.8118
14.1028,5.7916
14.1231,5.7780
14.1470,5.7732
14.8470,5.7732
14.8709,5.7780
14.8912,5.7916
14.9048,5.8118
14.9095,5.8357
14.9095,5.9607
14.9048,5.9847
14.8912,6.0049
14.8709,6.0185
14.8470,6.0232
14.1470,6.0232
14.1231,6.0185
14.1028,6.0049
14.0893,5.9847
14.0845,5.9607
Z" /> 
<path style="fill:#FFFFFF; fill-opacity:1.0000; 
stroke:#FFFFFF; stroke-width:0.0000; stroke-opacity:1; 
stroke-linecap:round; stroke-linejoin:round;fill-rule:evenodd;"
d="M 14.0845,6.3357
14.0893,6.3118
14.1028,6.2916
14.1231,6.2780
14.1470,6.2732
14.8470,6.2732
14.8709,6.2780
14.8912,6.2916
14.9048,6.3118
14.9095,6.3357
14.9095,6.4607
14.9048,6.4847
14.8912,6.5049
14.8709,6.5185
14.8470,6.5232
14.1470,6.5232
14.1231,6.5185
14.1028,6.5049
14.0893,6.4847
14.0845,6.4607
Z" /> 
<path style="fill:#FFFFFF; fill-opacity:1.0000; 
stroke:#FFFFFF; stroke-width:0.0000; stroke-opacity:1; 
stroke-linecap:round; stroke-linejoin:round;fill-rule:evenodd;"
d="M 14.0845,6.8357
14.0893,6.8118
14.1028,6.7916
14.1231,6.7780
14.1470,6.7732
14.8470,6.7732
14.8709,6.7780
14.8912,6.7916
14.9048,6.8118
14.9095,6.8357
14.9095,6.9607
14.9048,6.9847
14.8912,7.0049
14.8709,7.0185
14.8470,7.0232
14.1470,7.0232
14.1231,7.0185
14.1028,7.0049
14.0893,6.9847
14.0845,6.9607
Z" /> 
<path style="fill:#FFFFFF; fill-opacity:1.0000; 
stroke:#FFFFFF; stroke-width:0.0000; stroke-opacity:1; 
stroke-linecap:round; stroke-linejoin:round;fill-rule:evenodd;"
d="M 14.0845,7.3357
14.0893,7.3118
14.1028,7.2916
14.1231,7.2780
14.1470,7.2732
14.8470,7.2732
14.8709,7.2780
14.8912,7.2916
14.9048,7.3118
14.9095,7.3357
14.9095,7.4607
14.9048,7.4847
14.8912,7.5049
14.8709,7.5185
14.8470,7.5232
14.1470,7.5232
14.1231,7.5185
14.1028,7.5049
14.0893,7.4847
14.0845,7.4607
Z" /> 
<path style="fill:#FFFFFF; fill-opacity:1.0000; 
stroke:#FFFFFF; stroke-width:0.0000; stroke-opacity:1; 
stroke-linecap:round; stroke-linejoin:round;fill-rule:evenodd;"
d="M 14.0845,7.8357
14.0893,7.8118
14.1028,7.7916
14.1231,7.7780
14.1470,7.7732
14.8470,7.7732
14.8709,7.7780
14.8912,7.7916
14.9048,7.8118
14.9095,7.8357
14.9095,7.9607
14.9048,7.9847
14.8912,8.0049
14.8709,8.0185
14.8470,8.0232
14.1470,8.0232
14.1231,8.0185
14.1028,8.0049
14.0893,7.9847
14.0845,7.9607
Z" /> 
<path style="fill:#FFFFFF; fill-opacity:1.0000; 
stroke:#FFFFFF; stroke-width:0.0000; stroke-opacity:1; 
stroke-linecap:round; stroke-linejoin:round;fill-rule:evenodd;"
d="M 14.0845,8.3357
14.0893,8.3118
14.1028,8.2916
14.1231,8.2780
14.1470,8.2732
14.8470,8.2732
14.8709,8.2780
14.8912,8.2916
14.9048,8.3118
14.9095,8.3357
14.9095,8.4607
14.9048,8.4847
14.8912,8.5049
14.8709,8.5185
14.8470,8.5232
14.1470,8.5232
14.1231,8.5185
14.1028,8.5049
14.0893,8.4847
14.0845,8.4607
Z" /> 
<path style="fill:#FFFFFF; fill-opacity:1.0000; 
stroke:#FFFFFF; stroke-width:0.0000; stroke-opacity:1; 
stroke-linecap:round; stroke-linejoin:round;fill-rule:evenodd;"
d="M 14.0845,8.8357
14.0893,8.8118
14.1028,8.7916
14.1231,8.7780
14.1470,8.7732
14.8470,8.7732
14.8709,8.7780
14.8912,8.7916
14.9048,8.8118
14.9095,8.8357
14.9095,8.9607
14.9048,8.9847
14.8912,9.0049
14.8709,9.0185
14.8470,9.0232
14.1470,9.0232
14.1231,9.0185
14.1028,9.0049
14.0893,8.9847
14.0845,8.9607
Z" /> 
<path style="fill:#FFFFFF; fill-opacity:1.0000; 
stroke:#FFFFFF; stroke-width:0.0000; stroke-opacity:1; 
stroke-linecap:round; stroke-linejoin:round;fill-rule:evenodd;"
d="M 14.0845,9.3357
14.0893,9.3118
14.1028,9.2916
14.1231,9.2780
14.1470,9.2732
14.8470,9.2732
14.8709,9.2780
14.8912,9.2916
14.9048,9.3118
14.9095,9.3357
14.9095,9.4607
14.9048,9.4847
14.8912,9.5049
14.8709,9.5185
14.8470,9.5232
14.1470,9.5232
14.1231,9.5185
14.1028,9.5049
14.0893,9.4847
14.0845,9.4607
Z" /> 
<path style="fill:#FFFFFF; fill-opacity:1.0000; 
stroke:#FFFFFF; stroke-width:0.0000; stroke-opacity:1; 
stroke-linecap:round; stroke-linejoin:round;fill-rule:evenodd;"
d="M 14.0845,9.8357
14.0893,9.8118
14.1028,9.7916
14.1231,9.7780
14.1470,9.7732
14.8470,9.7732
14.8709,9.7780
14.8912,9.7916
14.9048,9.8118
14.9095,9.8357
14.9095,9.9607
14.9048,9.9847
14.8912,10.0049
14.8709,10.0185
14.8470,10.0232
14.1470,10.0232
14.1231,10.0185
14.1028,10.0049
14.0893,9.9847
14.0845,9.9607
Z" /> 
<path style="fill:#FFFFFF; fill-opacity:1.0000; 
stroke:#FFFFFF; stroke-width:0.0000; stroke-opacity:1; 
stroke-linecap:round; stroke-linejoin:round;fill-rule:evenodd;"
d="M 14.0845,10.3357
14.0893,10.3118
14.1028,10.2916
14.1231,10.2780
14.1470,10.2732
14.8470,10.2732
14.8709,10.2780
14.8912,10.2916
14.9048,10.3118
14.9095,10.3357
14.9095,10.4607
14.9048,10.4847
14.8912,10.5049
14.8709,10.5185
14.8470,10.5232
14.1470,10.5232
14.1231,10.5185
14.1028,10.5049
14.0893,10.4847
14.0845,10.4607
Z" /> 
<path style="fill:#FFFFFF; fill-opacity:1.0000; 
stroke:#FFFFFF; stroke-width:0.0000; stroke-opacity:1; 
stroke-linecap:round; stroke-linejoin:round;fill-rule:evenodd;"
d="M 15.0595,10.7357
15.0643,10.7118
15.0778,10.6916
15.0981,10.6780
15.1220,10.6732
15.2470,10.6732
15.2709,10.6780
15.2912,10.6916
15.3048,10.7118
15.3095,10.7357
15.3095,11.4357
15.3048,11.4597
15.2912,11.4799
15.2709,11.4935
15.2470,11.4982
15.1220,11.4982
15.0981,11.4935
15.0778,11.4799
15.0643,11.4597
15.0595,11.4357
Z" /> 
<path style="fill:#FFFFFF; fill-opacity:1.0000; 
stroke:#FFFFFF; stroke-width:0.0000; stroke-opacity:1; 
stroke-linecap:round; stroke-linejoin:round;fill-rule:evenodd;"
d="M 15.5595,10.7357
15.5643,10.7118
15.5778,10.6916
15.5981,10.6780
15.6220,10.6732
15.7470,10.6732
15.7709,10.6780
15.7912,10.6916
15.8048,10.7118
15.8095,10.7357
15.8095,11.4357
15.8048,11.4597
15.7912,11.4799
15.7709,11.4935
15.7470,11.4982
15.6220,11.4982
15.5981,11.4935
15.5778,11.4799
15.5643,11.4597
15.5595,11.4357
Z" /> 
<path style="fill:#FFFFFF; fill-opacity:1.0000; 
stroke:#FFFFFF; stroke-width:0.0000; stroke-opacity:1; 
stroke-linecap:round; stroke-linejoin:round;fill-rule:evenodd;"
d="M 16.0595,10.7357
16.0643,10.7118
16.0778,10.6916
16.0981,10.6780
16.1220,10.6732
16.2470,10.6732
16.2709,10.6780
16.2912,10.6916
16.3048,10.7118
16.3095,10.7357
16.3095,11.4357
16.3048,11.4597
16.2912,11.4799
16.2709,11.4935
16.2470,11.4982
16.1220,11.4982
16.0981,11.4935
16.0778,11.4799
16.0643,11.4597
16.0595,11.4357
Z" /> 
<path style="fill:#FFFFFF; fill-opacity:1.0000; 
stroke:#FFFFFF; stroke-width:0.0000; stroke-opacity:1; 
stroke-linecap:round; stroke-linejoin:round;fill-rule:evenodd;"
d="M 16.5595,10.7357
16.5643,10.7118
16.5778,10.6916
16.5981,10.6780
16.6220,10.6732
16.7470,10.6732
16.7709,10.6780
16.7912,10.6916
16.8048,10.7118
16.8095,10.7357
16.8095,11.4357
16.8048,11.4597
16.7912,11.4799
16.7709,11.4935
16.7470,11.4982
16.6220,11.4982
16.5981,11.4935
16.5778,11.4799
16.5643,11.4597
16.5595,11.4357
Z" /> 
<path style="fill:#FFFFFF; fill-opacity:1.0000; 
stroke:#FFFFFF; stroke-width:0.0000; stroke-opacity:1; 
stroke-linecap:round; stroke-linejoin:round;fill-rule:evenodd;"
d="M 17.0595,10.7357
17.0643,10.7118
17.0778,10.6916
17.0981,10.6780
17.1220,10.6732
17.2470,10.6732
17.2709,10.6780
17.2912,10.6916
17.3048,10.7118
17.3095,10.7357
17.3095,11.4357
17.3048,11.4597
17.2912,11.4799
17.2709,11.4935
17.2470,11.4982
17.1220,11.4982
17.0981,11.4935
17.0778,11.4799
17.0643,11.4597
17.0595,11.4357
Z" /> 
<path style="fill:#FFFFFF; fill-opacity:1.0000; 
stroke:#FFFFFF; stroke-width:0.0000; stroke-opacity:1; 
stroke-linecap:round; stroke-linejoin:round;fill-rule:evenodd;"
d="M 17.5595,10.7357
17.5643,10.7118
17.5778,10.6916
17.5981,10.6780
17.6220,10.6732
17.7470,10.6732
17.7709,10.6780
17.7912,10.6916
17.8048,10.7118
17.8095,10.7357
17.8095,11.4357
17.8048,11.4597
17.7912,11.4799
17.7709,11.4935
17.7470,11.4982
17.6220,11.4982
17.5981,11.4935
17.5778,11.4799
17.5643,11.4597
17.5595,11.4357
Z" /> 
<path style="fill:#FFFFFF; fill-opacity:1.0000; 
stroke:#FFFFFF; stroke-width:0.0000; stroke-opacity:1; 
stroke-linecap:round; stroke-linejoin:round;fill-rule:evenodd;"
d="M 18.0595,10.7357
18.0643,10.7118
18.0778,10.6916
18.0981,10.6780
18.1220,10.6732
18.2470,10.6732
18.2709,10.6780
18.2912,10.6916
18.3048,10.7118
18.3095,10.7357
18.3095,11.4357
18.3048,11.4597
18.2912,11.4799
18.2709,11.4935
18.2470,11.4982
18.1220,11.4982
18.0981,11.4935
18.0778,11.4799
18.0643,11.4597
18.0595,11.4357
Z" /> 
<path style="fill:#FFFFFF; fill-opacity:1.0000; 
stroke:#FFFFFF; stroke-width:0.0000; stroke-opacity:1; 
stroke-linecap:round; stroke-linejoin:round;fill-rule:evenodd;"
d="M 18.5595,10.7357
18.5643,10.7118
18.5778,10.6916
18.5981,10.6780
18.6220,10.6732
18.7470,10.6732
18.7709,10.6780
18.7912,10.6916
18.8048,10.7118
18.8095,10.7357
18.8095,11.4357
18.8048,11.4597
18.7912,11.4799
18.7709,11.4935
18.7470,11.4982
18.6220,11.4982
18.5981,11.4935
18.5778,11.4799
18.5643,11.4597
18.5595,11.4357
Z" /> 
<path style="fill:#FFFFFF; fill-opacity:1.0000; 
stroke:#FFFFFF; stroke-width:0.0000; stroke-opacity:1; 
stroke-linecap:round; stroke-linejoin:round;fill-rule:evenodd;"
d="M 19.0595,10.7357
19.0643,10.7118
19.0778,10.6916
19.0981,10.6780
19.1220,10.6732
19.2470,10.6732
19.2709,10.6780
19.2912,10.6916
19.3048,10.7118
19.3095,10.7357
19.3095,11.4357
19.3048,11.4597
19.2912,11.4799
19.2709,11.4935
19.2470,11.4982
19.1220,11.4982
19.0981,11.4935
19.0778,11.4799
19.0643,11.4597
19.0595,11.4357
Z" /> 
<path style="fill:#FFFFFF; fill-opacity:1.0000; 
stroke:#FFFFFF; stroke-width:0.0000; stroke-opacity:1; 
stroke-linecap:round; stroke-linejoin:round;fill-rule:evenodd;"
d="M 19.5595,10.7357
19.5643,10.7118
19.5778,10.6916
19.5981,10.6780
19.6220,10.6732
19.7470,10.6732
19.7709,10.6780
19.7912,10.6916
19.8048,10.7118
19.8095,10.7357
19.8095,11.4357
19.8048,11.4597
19.7912,11.4799
19.7709,11.4935
19.7470,11.4982
19.6220,11.4982
19.5981,11.4935
19.5778,11.4799
19.5643,11.4597
19.5595,11.4357
Z" /> 
<path style="fill:#FFFFFF; fill-opacity:1.0000; 
stroke:#FFFFFF; stroke-width:0.0000; stroke-opacity:1; 
stroke-linecap:round; stroke-linejoin:round;fill-rule:evenodd;"
d="M 20.0595,10.7357
20.0643,10.7118
20.0778,10.6916
20.0981,10.6780
20.1220,10.6732
20.2470,10.6732
20.2709,10.6780
20.2912,10.6916
20.3048,10.7118
20.3095,10.7357
20.3095,11.4357
20.3048,11.4597
20.2912,11.4799
20.2709,11.4935
20.2470,11.4982
20.1220,11.4982
20.0981,11.4935
20.0778,11.4799
20.0643,11.4597
20.0595,11.4357
Z" /> 
<path style="fill:#FFFFFF; fill-opacity:1.0000; 
stroke:#FFFFFF; stroke-width:0.0000; stroke-opacity:1; 
stroke-linecap:round; stroke-linejoin:round;fill-rule:evenodd;"
d="M 20.5595,10.7357
20.5643,10.7118
20.5778,10.6916
20.5981,10.6780
20.6220,10.6732
20.7470,10.6732
20.7709,10.6780
20.7912,10.6916
20.8048,10.7118
20.8095,10.7357
20.8095,11.4357
20.8048,11.4597
20.7912,11.4799
20.7709,11.4935
20.7470,11.4982
20.6220,11.4982
20.5981,11.4935
20.5778,11.4799
20.5643,11.4597
20.5595,11.4357
Z" /> 
<path style="fill:#FFFFFF; fill-opacity:1.0000; 
stroke:#FFFFFF; stroke-width:0.0000; stroke-opacity:1; 
stroke-linecap:round; stroke-linejoin:round;fill-rule:evenodd;"
d="M 21.0595,10.7357
21.0643,10.7118
21.0778,10.6916
21.0981,10.6780
21.1220,10.6732
21.2470,10.6732
21.2709,10.6780
21.2912,10.6916
21.3048,10.7118
21.3095,10.7357
21.3095,11.4357
21.3048,11.4597
21.2912,11.4799
21.2709,11.4935
21.2470,11.4982
21.1220,11.4982
21.0981,11.4935
21.0778,11.4799
21.0643,11.4597
21.0595,11.4357
Z" /> 
<path style="fill:#FFFFFF; fill-opacity:1.0000; 
stroke:#FFFFFF; stroke-width:0.0000; stroke-opacity:1; 
stroke-linecap:round; stroke-linejoin:round;fill-rule:evenodd;"
d="M 21.5595,10.7357
21.5643,10.7118
21.5778,10.6916
21.5981,10.6780
21.6220,10.6732
21.7470,10.6732
21.7709,10.6780
21.7912,10.6916
21.8048,10.7118
21.8095,10.7357
21.8095,11.4357
21.8048,11.4597
21.7912,11.4799
21.7709,11.4935
21.7470,11.4982
21.6220,11.4982
21.5981,11.4935
21.5778,11.4799
21.5643,11.4597
21.5595,11.4357
Z" /> 
<path style="fill:#FFFFFF; fill-opacity:1.0000; 
stroke:#FFFFFF; stroke-width:0.0000; stroke-opacity:1; 
stroke-linecap:round; stroke-linejoin:round;fill-rule:evenodd;"
d="M 22.0595,10.7357
22.0643,10.7118
22.0778,10.6916
22.0981,10.6780
22.1220,10.6732
22.2470,10.6732
22.2709,10.6780
22.2912,10.6916
22.3048,10.7118
22.3095,10.7357
22.3095,11.4357
22.3048,11.4597
22.2912,11.4799
22.2709,11.4935
22.2470,11.4982
22.1220,11.4982
22.0981,11.4935
22.0778,11.4799
22.0643,11.4597
22.0595,11.4357
Z" /> 
<path style="fill:#FFFFFF; fill-opacity:1.0000; 
stroke:#FFFFFF; stroke-width:0.0000; stroke-opacity:1; 
stroke-linecap:round; stroke-linejoin:round;fill-rule:evenodd;"
d="M 22.5595,10.7357
22.5643,10.7118
22.5778,10.6916
22.5981,10.6780
22.6220,10.6732
22.7470,10.6732
22.7709,10.6780
22.7912,10.6916
22.8048,10.7118
22.8095,10.7357
22.8095,11.4357
22.8048,11.4597
22.7912,11.4799
22.7709,11.4935
22.7470,11.4982
22.6220,11.4982
22.5981,11.4935
22.5778,11.4799
22.5643,11.4597
22.5595,11.4357
Z" /> 
<path style="fill:#FFFFFF; fill-opacity:1.0000; 
stroke:#FFFFFF; stroke-width:0.0000; stroke-opacity:1; 
stroke-linecap:round; stroke-linejoin:round;fill-rule:evenodd;"
d="M 22.9595,10.3357
22.9643,10.3118
22.9778,10.2916
22.9981,10.2780
23.0220,10.2732
23.7220,10.2732
23.7459,10.2780
23.7662,10.2916
23.7798,10.3118
23.7845,10.3357
23.7845,10.4607
23.7798,10.4847
23.7662,10.5049
23.7459,10.5185
23.7220,10.5232
23.0220,10.5232
22.9981,10.5185
22.9778,10.5049
22.9643,10.4847
22.9595,10.4607
Z" /> 
<path style="fill:#FFFFFF; fill-opacity:1.0000; 
stroke:#FFFFFF; stroke-width:0.0000; stroke-opacity:1; 
stroke-linecap:round; stroke-linejoin:round;fill-rule:evenodd;"
d="M 22.9595,9.8357
22.9643,9.8118
22.9778,9.7916
22.9981,9.7780
23.0220,9.7732
23.7220,9.7732
23.7459,9.7780
23.7662,9.7916
23.7798,9.8118
23.7845,9.8357
23.7845,9.9607
23.7798,9.9847
23.7662,10.0049
23.7459,10.0185
23.7220,10.0232
23.0220,10.0232
22.9981,10.0185
22.9778,10.0049
22.9643,9.9847
22.9595,9.9607
Z" /> 
<path style="fill:#FFFFFF; fill-opacity:1.0000; 
stroke:#FFFFFF; stroke-width:0.0000; stroke-opacity:1; 
stroke-linecap:round; stroke-linejoin:round;fill-rule:evenodd;"
d="M 22.9595,9.3357
22.9643,9.3118
22.9778,9.2916
22.9981,9.2780
23.0220,9.2732
23.7220,9.2732
23.7459,9.2780
23.7662,9.2916
23.7798,9.3118
23.7845,9.3357
23.7845,9.4607
23.7798,9.4847
23.7662,9.5049
23.7459,9.5185
23.7220,9.5232
23.0220,9.5232
22.9981,9.5185
22.9778,9.5049
22.9643,9.4847
22.9595,9.4607
Z" /> 
<path style="fill:#FFFFFF; fill-opacity:1.0000; 
stroke:#FFFFFF; stroke-width:0.0000; stroke-opacity:1; 
stroke-linecap:round; stroke-linejoin:round;fill-rule:evenodd;"
d="M 22.9595,8.8357
22.9643,8.8118
22.9778,8.7916
22.9981,8.7780
23.0220,8.7732
23.7220,8.7732
23.7459,8.7780
23.7662,8.7916
23.7798,8.8118
23.7845,8.8357
23.7845,8.9607
23.7798,8.9847
23.7662,9.0049
23.7459,9.0185
23.7220,9.0232
23.0220,9.0232
22.9981,9.0185
22.9778,9.0049
22.9643,8.9847
22.9595,8.9607
Z" /> 
<path style="fill:#FFFFFF; fill-opacity:1.0000; 
stroke:#FFFFFF; stroke-width:0.0000; stroke-opacity:1; 
stroke-linecap:round; stroke-linejoin:round;fill-rule:evenodd;"
d="M 22.9595,8.3357
22.9643,8.3118
22.9778,8.2916
22.9981,8.2780
23.0220,8.2732
23.7220,8.2732
23.7459,8.2780
23.7662,8.2916
23.7798,8.3118
23.7845,8.3357
23.7845,8.4607
23.7798,8.4847
23.7662,8.5049
23.7459,8.5185
23.7220,8.5232
23.0220,8.5232
22.9981,8.5185
22.9778,8.5049
22.9643,8.4847
22.9595,8.4607
Z" /> 
<path style="fill:#FFFFFF; fill-opacity:1.0000; 
stroke:#FFFFFF; stroke-width:0.0000; stroke-opacity:1; 
stroke-linecap:round; stroke-linejoin:round;fill-rule:evenodd;"
d="M 22.9595,7.8357
22.9643,7.8118
22.9778,7.7916
22.9981,7.7780
23.0220,7.7732
23.7220,7.7732
23.7459,7.7780
23.7662,7.7916
23.7798,7.8118
23.7845,7.8357
23.7845,7.9607
23.7798,7.9847
23.7662,8.0049
23.7459,8.0185
23.7220,8.0232
23.0220,8.0232
22.9981,8.0185
22.9778,8.0049
22.9643,7.9847
22.9595,7.9607
Z" /> 
<path style="fill:#FFFFFF; fill-opacity:1.0000; 
stroke:#FFFFFF; stroke-width:0.0000; stroke-opacity:1; 
stroke-linecap:round; stroke-linejoin:round;fill-rule:evenodd;"
d="M 22.9595,7.3357
22.9643,7.3118
22.9778,7.2916
22.9981,7.2780
23.0220,7.2732
23.7220,7.2732
23.7459,7.2780
23.7662,7.2916
23.7798,7.3118
23.7845,7.3357
23.7845,7.4607
23.7798,7.4847
23.7662,7.5049
23.7459,7.5185
23.7220,7.5232
23.0220,7.5232
22.9981,7.5185
22.9778,7.5049
22.9643,7.4847
22.9595,7.4607
Z" /> 
<path style="fill:#FFFFFF; fill-opacity:1.0000; 
stroke:#FFFFFF; stroke-width:0.0000; stroke-opacity:1; 
stroke-linecap:round; stroke-linejoin:round;fill-rule:evenodd;"
d="M 22.9595,6.8357
22.9643,6.8118
22.9778,6.7916
22.9981,6.7780
23.0220,6.7732
23.7220,6.7732
23.7459,6.7780
23.7662,6.7916
23.7798,6.8118
23.7845,6.8357
23.7845,6.9607
23.7798,6.9847
23.7662,7.0049
23.7459,7.0185
23.7220,7.0232
23.0220,7.0232
22.9981,7.0185
22.9778,7.0049
22.9643,6.9847
22.9595,6.9607
Z" /> 
<path style="fill:#FFFFFF; fill-opacity:1.0000; 
stroke:#FFFFFF; stroke-width:0.0000; stroke-opacity:1; 
stroke-linecap:round; stroke-linejoin:round;fill-rule:evenodd;"
d="M 22.9595,6.3357
22.9643,6.3118
22.9778,6.2916
22.9981,6.2780
23.0220,6.2732
23.7220,6.2732
23.7459,6.2780
23.7662,6.2916
23.7798,6.3118
23.7845,6.3357
23.7845,6.4607
23.7798,6.4847
23.7662,6.5049
23.7459,6.5185
23.7220,6.5232
23.0220,6.5232
22.9981,6.5185
22.9778,6.5049
22.9643,6.4847
22.9595,6.4607
Z" /> 
<path style="fill:#FFFFFF; fill-opacity:1.0000; 
stroke:#FFFFFF; stroke-width:0.0000; stroke-opacity:1; 
stroke-linecap:round; stroke-linejoin:round;fill-rule:evenodd;"
d="M 22.9595,5.8357
22.9643,5.8118
22.9778,5.7916
22.9981,5.7780
23.0220,5.7732
23.7220,5.7732
23.7459,5.7780
23.7662,5.7916
23.7798,5.8118
23.7845,5.8357
23.7845,5.9607
23.7798,5.9847
23.7662,6.0049
23.7459,6.0185
23.7220,6.0232
23.0220,6.0232
22.9981,6.0185
22.9778,6.0049
22.9643,5.9847
22.9595,5.9607
Z" /> 
<path style="fill:#FFFFFF; fill-opacity:1.0000; 
stroke:#FFFFFF; stroke-width:0.0000; stroke-opacity:1; 
stroke-linecap:round; stroke-linejoin:round;fill-rule:evenodd;"
d="M 22.9595,5.3357
22.9643,5.3118
22.9778,5.2916
22.9981,5.2780
23.0220,5.2732
23.7220,5.2732
23.7459,5.2780
23.7662,5.2916
23.7798,5.3118
23.7845,5.3357
23.7845,5.4607
23.7798,5.4847
23.7662,5.5049
23.7459,5.5185
23.7220,5.5232
23.0220,5.5232
22.9981,5.5185
22.9778,5.5049
22.9643,5.4847
22.9595,5.4607
Z" /> 
<path style="fill:#FFFFFF; fill-opacity:1.0000; 
stroke:#FFFFFF; stroke-width:0.0000; stroke-opacity:1; 
stroke-linecap:round; stroke-linejoin:round;fill-rule:evenodd;"
d="M 22.9595,4.8357
22.9643,4.8118
22.9778,4.7916
22.9981,4.7780
23.0220,4.7732
23.7220,4.7732
23.7459,4.7780
23.7662,4.7916
23.7798,4.8118
23.7845,4.8357
23.7845,4.9607
23.7798,4.9847
23.7662,5.0049
23.7459,5.0185
23.7220,5.0232
23.0220,5.0232
22.9981,5.0185
22.9778,5.0049
22.9643,4.9847
22.9595,4.9607
Z" /> 
<path style="fill:#FFFFFF; fill-opacity:1.0000; 
stroke:#FFFFFF; stroke-width:0.0000; stroke-opacity:1; 
stroke-linecap:round; stroke-linejoin:round;fill-rule:evenodd;"
d="M 22.9595,4.3357
22.9643,4.3118
22.9778,4.2916
22.9981,4.2780
23.0220,4.2732
23.7220,4.2732
23.7459,4.2780
23.7662,4.2916
23.7798,4.3118
23.7845,4.3357
23.7845,4.4607
23.7798,4.4847
23.7662,4.5049
23.7459,4.5185
23.7220,4.5232
23.0220,4.5232
22.9981,4.5185
22.9778,4.5049
22.9643,4.4847
22.9595,4.4607
Z" /> 
<path style="fill:#FFFFFF; fill-opacity:1.0000; 
stroke:#FFFFFF; stroke-width:0.0000; stroke-opacity:1; 
stroke-linecap:round; stroke-linejoin:round;fill-rule:evenodd;"
d="M 22.9595,3.8357
22.9643,3.8118
22.9778,3.7916
22.9981,3.7780
23.0220,3.7732
23.7220,3.7732
23.7459,3.7780
23.7662,3.7916
23.7798,3.8118
23.7845,3.8357
23.7845,3.9607
23.7798,3.9847
23.7662,4.0049
23.7459,4.0185
23.7220,4.0232
23.0220,4.0232
22.9981,4.0185
22.9778,4.0049
22.9643,3.9847
22.9595,3.9607
Z" /> 
<path style="fill:#FFFFFF; fill-opacity:1.0000; 
stroke:#FFFFFF; stroke-width:0.0000; stroke-opacity:1; 
stroke-linecap:round; stroke-linejoin:round;fill-rule:evenodd;"
d="M 22.9595,3.3357
22.9643,3.3118
22.9778,3.2916
22.9981,3.2780
23.0220,3.2732
23.7220,3.2732
23.7459,3.2780
23.7662,3.2916
23.7798,3.3118
23.7845,3.3357
23.7845,3.4607
23.7798,3.4847
23.7662,3.5049
23.7459,3.5185
23.7220,3.5232
23.0220,3.5232
22.9981,3.5185
22.9778,3.5049
22.9643,3.4847
22.9595,3.4607
Z" /> 
<path style="fill:#FFFFFF; fill-opacity:1.0000; 
stroke:#FFFFFF; stroke-width:0.0000; stroke-opacity:1; 
stroke-linecap:round; stroke-linejoin:round;fill-rule:evenodd;"
d="M 22.9595,2.8357
22.9643,2.8118
22.9778,2.7916
22.9981,2.7780
23.0220,2.7732
23.7220,2.7732
23.7459,2.7780
23.7662,2.7916
23.7798,2.8118
23.7845,2.8357
23.7845,2.9607
23.7798,2.9847
23.7662,3.0049
23.7459,3.0185
23.7220,3.0232
23.0220,3.0232
22.9981,3.0185
22.9778,3.0049
22.9643,2.9847
22.9595,2.9607
Z" /> 
<path style="fill:#FFFFFF; fill-opacity:1.0000; 
stroke:#FFFFFF; stroke-width:0.0000; stroke-opacity:1; 
stroke-linecap:round; stroke-linejoin:round;fill-rule:evenodd;"
d="M 22.5595,1.8607
22.5643,1.8368
22.5778,1.8166
22.5981,1.8030
22.6220,1.7982
22.7470,1.7982
22.7709,1.8030
22.7912,1.8166
22.8048,1.8368
22.8095,1.8607
22.8095,2.5608
22.8048,2.5847
22.7912,2.6049
22.7709,2.6185
22.7470,2.6233
22.6220,2.6233
22.5981,2.6185
22.5778,2.6049
22.5643,2.5847
22.5595,2.5608
Z" /> 
<path style="fill:#FFFFFF; fill-opacity:1.0000; 
stroke:#FFFFFF; stroke-width:0.0000; stroke-opacity:1; 
stroke-linecap:round; stroke-linejoin:round;fill-rule:evenodd;"
d="M 22.0595,1.8607
22.0643,1.8368
22.0778,1.8166
22.0981,1.8030
22.1220,1.7982
22.2470,1.7982
22.2709,1.8030
22.2912,1.8166
22.3048,1.8368
22.3095,1.8607
22.3095,2.5608
22.3048,2.5847
22.2912,2.6049
22.2709,2.6185
22.2470,2.6233
22.1220,2.6233
22.0981,2.6185
22.0778,2.6049
22.0643,2.5847
22.0595,2.5608
Z" /> 
<path style="fill:#FFFFFF; fill-opacity:1.0000; 
stroke:#FFFFFF; stroke-width:0.0000; stroke-opacity:1; 
stroke-linecap:round; stroke-linejoin:round;fill-rule:evenodd;"
d="M 21.5595,1.8607
21.5643,1.8368
21.5778,1.8166
21.5981,1.8030
21.6220,1.7982
21.7470,1.7982
21.7709,1.8030
21.7912,1.8166
21.8048,1.8368
21.8095,1.8607
21.8095,2.5608
21.8048,2.5847
21.7912,2.6049
21.7709,2.6185
21.7470,2.6233
21.6220,2.6233
21.5981,2.6185
21.5778,2.6049
21.5643,2.5847
21.5595,2.5608
Z" /> 
<path style="fill:#FFFFFF; fill-opacity:1.0000; 
stroke:#FFFFFF; stroke-width:0.0000; stroke-opacity:1; 
stroke-linecap:round; stroke-linejoin:round;fill-rule:evenodd;"
d="M 21.0595,1.8607
21.0643,1.8368
21.0778,1.8166
21.0981,1.8030
21.1220,1.7982
21.2470,1.7982
21.2709,1.8030
21.2912,1.8166
21.3048,1.8368
21.3095,1.8607
21.3095,2.5608
21.3048,2.5847
21.2912,2.6049
21.2709,2.6185
21.2470,2.6233
21.1220,2.6233
21.0981,2.6185
21.0778,2.6049
21.0643,2.5847
21.0595,2.5608
Z" /> 
<path style="fill:#FFFFFF; fill-opacity:1.0000; 
stroke:#FFFFFF; stroke-width:0.0000; stroke-opacity:1; 
stroke-linecap:round; stroke-linejoin:round;fill-rule:evenodd;"
d="M 20.5595,1.8607
20.5643,1.8368
20.5778,1.8166
20.5981,1.8030
20.6220,1.7982
20.7470,1.7982
20.7709,1.8030
20.7912,1.8166
20.8048,1.8368
20.8095,1.8607
20.8095,2.5608
20.8048,2.5847
20.7912,2.6049
20.7709,2.6185
20.7470,2.6233
20.6220,2.6233
20.5981,2.6185
20.5778,2.6049
20.5643,2.5847
20.5595,2.5608
Z" /> 
<path style="fill:#FFFFFF; fill-opacity:1.0000; 
stroke:#FFFFFF; stroke-width:0.0000; stroke-opacity:1; 
stroke-linecap:round; stroke-linejoin:round;fill-rule:evenodd;"
d="M 20.0595,1.8607
20.0643,1.8368
20.0778,1.8166
20.0981,1.8030
20.1220,1.7982
20.2470,1.7982
20.2709,1.8030
20.2912,1.8166
20.3048,1.8368
20.3095,1.8607
20.3095,2.5608
20.3048,2.5847
20.2912,2.6049
20.2709,2.6185
20.2470,2.6233
20.1220,2.6233
20.0981,2.6185
20.0778,2.6049
20.0643,2.5847
20.0595,2.5608
Z" /> 
<path style="fill:#FFFFFF; fill-opacity:1.0000; 
stroke:#FFFFFF; stroke-width:0.0000; stroke-opacity:1; 
stroke-linecap:round; stroke-linejoin:round;fill-rule:evenodd;"
d="M 19.5595,1.8607
19.5643,1.8368
19.5778,1.8166
19.5981,1.8030
19.6220,1.7982
19.7470,1.7982
19.7709,1.8030
19.7912,1.8166
19.8048,1.8368
19.8095,1.8607
19.8095,2.5608
19.8048,2.5847
19.7912,2.6049
19.7709,2.6185
19.7470,2.6233
19.6220,2.6233
19.5981,2.6185
19.5778,2.6049
19.5643,2.5847
19.5595,2.5608
Z" /> 
<path style="fill:#FFFFFF; fill-opacity:1.0000; 
stroke:#FFFFFF; stroke-width:0.0000; stroke-opacity:1; 
stroke-linecap:round; stroke-linejoin:round;fill-rule:evenodd;"
d="M 19.0595,1.8607
19.0643,1.8368
19.0778,1.8166
19.0981,1.8030
19.1220,1.7982
19.2470,1.7982
19.2709,1.8030
19.2912,1.8166
19.3048,1.8368
19.3095,1.8607
19.3095,2.5608
19.3048,2.5847
19.2912,2.6049
19.2709,2.6185
19.2470,2.6233
19.1220,2.6233
19.0981,2.6185
19.0778,2.6049
19.0643,2.5847
19.0595,2.5608
Z" /> 
<path style="fill:#FFFFFF; fill-opacity:1.0000; 
stroke:#FFFFFF; stroke-width:0.0000; stroke-opacity:1; 
stroke-linecap:round; stroke-linejoin:round;fill-rule:evenodd;"
d="M 18.5595,1.8607
18.5643,1.8368
18.5778,1.8166
18.5981,1.8030
18.6220,1.7982
18.7470,1.7982
18.7709,1.8030
18.7912,1.8166
18.8048,1.8368
18.8095,1.8607
18.8095,2.5608
18.8048,2.5847
18.7912,2.6049
18.7709,2.6185
18.7470,2.6233
18.6220,2.6233
18.5981,2.6185
18.5778,2.6049
18.5643,2.5847
18.5595,2.5608
Z" /> 
<path style="fill:#FFFFFF; fill-opacity:1.0000; 
stroke:#FFFFFF; stroke-width:0.0000; stroke-opacity:1; 
stroke-linecap:round; stroke-linejoin:round;fill-rule:evenodd;"
d="M 18.0595,1.8607
18.0643,1.8368
18.0778,1.8166
18.0981,1.8030
18.1220,1.7982
18.2470,1.7982
18.2709,1.8030
18.2912,1.8166
18.3048,1.8368
18.3095,1.8607
18.3095,2.5608
18.3048,2.5847
18.2912,2.6049
18.2709,2.6185
18.2470,2.6233
18.1220,2.6233
18.0981,2.6185
18.0778,2.6049
18.0643,2.5847
18.0595,2.5608
Z" /> 
<path style="fill:#FFFFFF; fill-opacity:1.0000; 
stroke:#FFFFFF; stroke-width:0.0000; stroke-opacity:1; 
stroke-linecap:round; stroke-linejoin:round;fill-rule:evenodd;"
d="M 17.5595,1.8607
17.5643,1.8368
17.5778,1.8166
17.5981,1.8030
17.6220,1.7982
17.7470,1.7982
17.7709,1.8030
17.7912,1.8166
17.8048,1.8368
17.8095,1.8607
17.8095,2.5608
17.8048,2.5847
17.7912,2.6049
17.7709,2.6185
17.7470,2.6233
17.6220,2.6233
17.5981,2.6185
17.5778,2.6049
17.5643,2.5847
17.5595,2.5608
Z" /> 
<path style="fill:#FFFFFF; fill-opacity:1.0000; 
stroke:#FFFFFF; stroke-width:0.0000; stroke-opacity:1; 
stroke-linecap:round; stroke-linejoin:round;fill-rule:evenodd;"
d="M 17.0595,1.8607
17.0643,1.8368
17.0778,1.8166
17.0981,1.8030
17.1220,1.7982
17.2470,1.7982
17.2709,1.8030
17.2912,1.8166
17.3048,1.8368
17.3095,1.8607
17.3095,2.5608
17.3048,2.5847
17.2912,2.6049
17.2709,2.6185
17.2470,2.6233
17.1220,2.6233
17.0981,2.6185
17.0778,2.6049
17.0643,2.5847
17.0595,2.5608
Z" /> 
<path style="fill:#FFFFFF; fill-opacity:1.0000; 
stroke:#FFFFFF; stroke-width:0.0000; stroke-opacity:1; 
stroke-linecap:round; stroke-linejoin:round;fill-rule:evenodd;"
d="M 16.5595,1.8607
16.5643,1.8368
16.5778,1.8166
16.5981,1.8030
16.6220,1.7982
16.7470,1.7982
16.7709,1.8030
16.7912,1.8166
16.8048,1.8368
16.8095,1.8607
16.8095,2.5608
16.8048,2.5847
16.7912,2.6049
16.7709,2.6185
16.7470,2.6233
16.6220,2.6233
16.5981,2.6185
16.5778,2.6049
16.5643,2.5847
16.5595,2.5608
Z" /> 
<path style="fill:#FFFFFF; fill-opacity:1.0000; 
stroke:#FFFFFF; stroke-width:0.0000; stroke-opacity:1; 
stroke-linecap:round; stroke-linejoin:round;fill-rule:evenodd;"
d="M 16.0595,1.8607
16.0643,1.8368
16.0778,1.8166
16.0981,1.8030
16.1220,1.7982
16.2470,1.7982
16.2709,1.8030
16.2912,1.8166
16.3048,1.8368
16.3095,1.8607
16.3095,2.5608
16.3048,2.5847
16.2912,2.6049
16.2709,2.6185
16.2470,2.6233
16.1220,2.6233
16.0981,2.6185
16.0778,2.6049
16.0643,2.5847
16.0595,2.5608
Z" /> 
<path style="fill:#FFFFFF; fill-opacity:1.0000; 
stroke:#FFFFFF; stroke-width:0.0000; stroke-opacity:1; 
stroke-linecap:round; stroke-linejoin:round;fill-rule:evenodd;"
d="M 15.5595,1.8607
15.5643,1.8368
15.5778,1.8166
15.5981,1.8030
15.6220,1.7982
15.7470,1.7982
15.7709,1.8030
15.7912,1.8166
15.8048,1.8368
15.8095,1.8607
15.8095,2.5608
15.8048,2.5847
15.7912,2.6049
15.7709,2.6185
15.7470,2.6233
15.6220,2.6233
15.5981,2.6185
15.5778,2.6049
15.5643,2.5847
15.5595,2.5608
Z" /> 
<path style="fill:#FFFFFF; fill-opacity:1.0000; 
stroke:#FFFFFF; stroke-width:0.0000; stroke-opacity:1; 
stroke-linecap:round; stroke-linejoin:round;fill-rule:evenodd;"
d="M 15.0595,1.8607
15.0643,1.8368
15.0778,1.8166
15.0981,1.8030
15.1220,1.7982
15.2470,1.7982
15.2709,1.8030
15.2912,1.8166
15.3048,1.8368
15.3095,1.8607
15.3095,2.5608
15.3048,2.5847
15.2912,2.6049
15.2709,2.6185
15.2470,2.6233
15.1220,2.6233
15.0981,2.6185
15.0778,2.6049
15.0643,2.5847
15.0595,2.5608
Z" /> 
<path style="fill:#FFFFFF; fill-opacity:1.0000; 
stroke:#FFFFFF; stroke-width:0.0000; stroke-opacity:1; 
stroke-linecap:round; stroke-linejoin:round;fill-rule:evenodd;"
d="M 16.3295,9.2532
16.3295,4.0432
21.5395,4.0432
21.5395,9.2532
Z" /> 
</g>
<g >
</g>
<g >
</g>
<g >
</g>
</g>
<g style="fill:#FFFFFF; fill-opacity:1.0000; 
stroke:#FFFFFF; stroke-width:0.0000; stroke-opacity:1; 
stroke-linecap:round; stroke-linejoin:round;">
<g >
<path style="fill:#FFFFFF; fill-opacity:1.0000; 
stroke:#FFFFFF; stroke-width:0.0000; stroke-opacity:1; 
stroke-linecap:round; stroke-linejoin:round;fill-rule:evenodd;"
d="M 16.5845,7.1483
16.6036,7.0526
16.6577,6.9715
16.7389,6.9173
16.8345,6.8983
18.4345,6.8982
18.5302,6.9173
18.6113,6.9715
18.6655,7.0526
18.6845,7.1483
18.6845,8.7482
18.6655,8.8439
18.6113,8.9250
18.5302,8.9792
18.4345,8.9982
16.8345,8.9982
16.7389,8.9792
16.6577,8.9250
16.6036,8.8439
16.5845,8.7482
Z" /> 
<path style="fill:#FFFFFF; fill-opacity:1.0000; 
stroke:#FFFFFF; stroke-width:0.0000; stroke-opacity:1; 
stroke-linecap:round; stroke-linejoin:round;fill-rule:evenodd;"
d="M 16.5845,4.5483
16.6036,4.4526
16.6577,4.3715
16.7389,4.3173
16.8345,4.2983
18.4345,4.2982
18.5302,4.3173
18.6113,4.3715
18.6655,4.4526
18.6845,4.5483
18.6845,6.1482
18.6655,6.2439
18.6113,6.3250
18.5302,6.3792
18.4345,6.3982
16.8345,6.3982
16.7389,6.3792
16.6577,6.3250
16.6036,6.2439
16.5845,6.1482
Z" /> 
<path style="fill:#FFFFFF; fill-opacity:1.0000; 
stroke:#FFFFFF; stroke-width:0.0000; stroke-opacity:1; 
stroke-linecap:round; stroke-linejoin:round;fill-rule:evenodd;"
d="M 19.1845,7.1483
19.2036,7.0526
19.2577,6.9715
19.3389,6.9173
19.4345,6.8983
21.0345,6.8982
21.1302,6.9173
21.2113,6.9715
21.2655,7.0526
21.2845,7.1483
21.2845,8.7482
21.2655,8.8439
21.2113,8.9250
21.1302,8.9792
21.0345,8.9982
19.4345,8.9982
19.3389,8.9792
19.2577,8.9250
19.2036,8.8439
19.1845,8.7482
Z" /> 
<path style="fill:#FFFFFF; fill-opacity:1.0000; 
stroke:#FFFFFF; stroke-width:0.0000; stroke-opacity:1; 
stroke-linecap:round; stroke-linejoin:round;fill-rule:evenodd;"
d="M 19.1845,4.5483
19.2036,4.4526
19.2577,4.3715
19.3389,4.3173
19.4345,4.2983
21.0345,4.2982
21.1302,4.3173
21.2113,4.3715
21.2655,4.4526
21.2845,4.5483
21.2845,6.1482
21.2655,6.2439
21.2113,6.3250
21.1302,6.3792
21.0345,6.3982
19.4345,6.3982
19.3389,6.3792
19.2577,6.3250
19.2036,6.2439
19.1845,6.1482
Z" /> 
<path style="fill:#FFFFFF; fill-opacity:1.0000; 
stroke:#FFFFFF; stroke-width:0.0000; stroke-opacity:1; 
stroke-linecap:round; stroke-linejoin:round;fill-rule:evenodd;"
d="M 14.0845,2.8357
14.0893,2.8118
14.1028,2.7916
14.1231,2.7780
14.1470,2.7732
14.8470,2.7732
14.8709,2.7780
14.8912,2.7916
14.9048,2.8118
14.9095,2.8357
14.9095,2.9607
14.9048,2.9847
14.8912,3.0049
14.8709,3.0185
14.8470,3.0232
14.1470,3.0232
14.1231,3.0185
14.1028,3.0049
14.0893,2.9847
14.0845,2.9607
Z" /> 
<path style="fill:#FFFFFF; fill-opacity:1.0000; 
stroke:#FFFFFF; stroke-width:0.0000; stroke-opacity:1; 
stroke-linecap:round; stroke-linejoin:round;fill-rule:evenodd;"
d="M 14.0845,3.3357
14.0893,3.3118
14.1028,3.2916
14.1231,3.2780
14.1470,3.2732
14.8470,3.2732
14.8709,3.2780
14.8912,3.2916
14.9048,3.3118
14.9095,3.3357
14.9095,3.4607
14.9048,3.4847
14.8912,3.5049
14.8709,3.5185
14.8470,3.5232
14.1470,3.5232
14.1231,3.5185
14.1028,3.5049
14.0893,3.4847
14.0845,3.4607
Z" /> 
<path style="fill:#FFFFFF; fill-opacity:1.0000; 
stroke:#FFFFFF; stroke-width:0.0000; stroke-opacity:1; 
stroke-linecap:round; stroke-linejoin:round;fill-rule:evenodd;"
d="M 14.0845,3.8357
14.0893,3.8118
14.1028,3.7916
14.1231,3.7780
14.1470,3.7732
14.8470,3.7732
14.8709,3.7780
14.8912,3.7916
14.9048,3.8118
14.9095,3.8357
14.9095,3.9607
14.9048,3.9847
14.8912,4.0049
14.8709,4.0185
14.8470,4.0232
14.1470,4.0232
14.1231,4.0185
14.1028,4.0049
14.0893,3.9847
14.0845,3.9607
Z" /> 
<path style="fill:#FFFFFF; fill-opacity:1.0000; 
stroke:#FFFFFF; stroke-width:0.0000; stroke-opacity:1; 
stroke-linecap:round; stroke-linejoin:round;fill-rule:evenodd;"
d="M 14.0845,4.3357
14.0893,4.3118
14.1028,4.2916
14.1231,4.2780
14.1470,4.2732
14.8470,4.2732
14.8709,4.2780
14.8912,4.2916
14.9048,4.3118
14.9095,4.3357
14.9095,4.4607
14.9048,4.4847
14.8912,4.5049
14.8709,4.5185
14.8470,4.5232
14.1470,4.5232
14.1231,4.5185
14.1028,4.5049
14.0893,4.4847
14.0845,4.4607
Z" /> 
<path style="fill:#FFFFFF; fill-opacity:1.0000; 
stroke:#FFFFFF; stroke-width:0.0000; stroke-opacity:1; 
stroke-linecap:round; stroke-linejoin:round;fill-rule:evenodd;"
d="M 14.0845,4.8357
14.0893,4.8118
14.1028,4.7916
14.1231,4.7780
14.1470,4.7732
14.8470,4.7732
14.8709,4.7780
14.8912,4.7916
14.9048,4.8118
14.9095,4.8357
14.9095,4.9607
14.9048,4.9847
14.8912,5.0049
14.8709,5.0185
14.8470,5.0232
14.1470,5.0232
14.1231,5.0185
14.1028,5.0049
14.0893,4.9847
14.0845,4.9607
Z" /> 
<path style="fill:#FFFFFF; fill-opacity:1.0000; 
stroke:#FFFFFF; stroke-width:0.0000; stroke-opacity:1; 
stroke-linecap:round; stroke-linejoin:round;fill-rule:evenodd;"
d="M 14.0845,5.3357
14.0893,5.3118
14.1028,5.2916
14.1231,5.2780
14.1470,5.2732
14.8470,5.2732
14.8709,5.2780
14.8912,5.2916
14.9048,5.3118
14.9095,5.3357
14.9095,5.4607
14.9048,5.4847
14.8912,5.5049
14.8709,5.5185
14.8470,5.5232
14.1470,5.5232
14.1231,5.5185
14.1028,5.5049
14.0893,5.4847
14.0845,5.4607
Z" /> 
<path style="fill:#FFFFFF; fill-opacity:1.0000; 
stroke:#FFFFFF; stroke-width:0.0000; stroke-opacity:1; 
stroke-linecap:round; stroke-linejoin:round;fill-rule:evenodd;"
d="M 14.0845,5.8357
14.0893,5.8118
14.1028,5.7916
14.1231,5.7780
14.1470,5.7732
14.8470,5.7732
14.8709,5.7780
14.8912,5.7916
14.9048,5.8118
14.9095,5.8357
14.9095,5.9607
14.9048,5.9847
14.8912,6.0049
14.8709,6.0185
14.8470,6.0232
14.1470,6.0232
14.1231,6.0185
14.1028,6.0049
14.0893,5.9847
14.0845,5.9607
Z" /> 
<path style="fill:#FFFFFF; fill-opacity:1.0000; 
stroke:#FFFFFF; stroke-width:0.0000; stroke-opacity:1; 
stroke-linecap:round; stroke-linejoin:round;fill-rule:evenodd;"
d="M 14.0845,6.3357
14.0893,6.3118
14.1028,6.2916
14.1231,6.2780
14.1470,6.2732
14.8470,6.2732
14.8709,6.2780
14.8912,6.2916
14.9048,6.3118
14.9095,6.3357
14.9095,6.4607
14.9048,6.4847
14.8912,6.5049
14.8709,6.5185
14.8470,6.5232
14.1470,6.5232
14.1231,6.5185
14.1028,6.5049
14.0893,6.4847
14.0845,6.4607
Z" /> 
<path style="fill:#FFFFFF; fill-opacity:1.0000; 
stroke:#FFFFFF; stroke-width:0.0000; stroke-opacity:1; 
stroke-linecap:round; stroke-linejoin:round;fill-rule:evenodd;"
d="M 14.0845,6.8357
14.0893,6.8118
14.1028,6.7916
14.1231,6.7780
14.1470,6.7732
14.8470,6.7732
14.8709,6.7780
14.8912,6.7916
14.9048,6.8118
14.9095,6.8357
14.9095,6.9607
14.9048,6.9847
14.8912,7.0049
14.8709,7.0185
14.8470,7.0232
14.1470,7.0232
14.1231,7.0185
14.1028,7.0049
14.0893,6.9847
14.0845,6.9607
Z" /> 
<path style="fill:#FFFFFF; fill-opacity:1.0000; 
stroke:#FFFFFF; stroke-width:0.0000; stroke-opacity:1; 
stroke-linecap:round; stroke-linejoin:round;fill-rule:evenodd;"
d="M 14.0845,7.3357
14.0893,7.3118
14.1028,7.2916
14.1231,7.2780
14.1470,7.2732
14.8470,7.2732
14.8709,7.2780
14.8912,7.2916
14.9048,7.3118
14.9095,7.3357
14.9095,7.4607
14.9048,7.4847
14.8912,7.5049
14.8709,7.5185
14.8470,7.5232
14.1470,7.5232
14.1231,7.5185
14.1028,7.5049
14.0893,7.4847
14.0845,7.4607
Z" /> 
<path style="fill:#FFFFFF; fill-opacity:1.0000; 
stroke:#FFFFFF; stroke-width:0.0000; stroke-opacity:1; 
stroke-linecap:round; stroke-linejoin:round;fill-rule:evenodd;"
d="M 14.0845,7.8357
14.0893,7.8118
14.1028,7.7916
14.1231,7.7780
14.1470,7.7732
14.8470,7.7732
14.8709,7.7780
14.8912,7.7916
14.9048,7.8118
14.9095,7.8357
14.9095,7.9607
14.9048,7.9847
14.8912,8.0049
14.8709,8.0185
14.8470,8.0232
14.1470,8.0232
14.1231,8.0185
14.1028,8.0049
14.0893,7.9847
14.0845,7.9607
Z" /> 
<path style="fill:#FFFFFF; fill-opacity:1.0000; 
stroke:#FFFFFF; stroke-width:0.0000; stroke-opacity:1; 
stroke-linecap:round; stroke-linejoin:round;fill-rule:evenodd;"
d="M 14.0845,8.3357
14.0893,8.3118
14.1028,8.2916
14.1231,8.2780
14.1470,8.2732
14.8470,8.2732
14.8709,8.2780
14.8912,8.2916
14.9048,8.3118
14.9095,8.3357
14.9095,8.4607
14.9048,8.4847
14.8912,8.5049
14.8709,8.5185
14.8470,8.5232
14.1470,8.5232
14.1231,8.5185
14.1028,8.5049
14.0893,8.4847
14.0845,8.4607
Z" /> 
<path style="fill:#FFFFFF; fill-opacity:1.0000; 
stroke:#FFFFFF; stroke-width:0.0000; stroke-opacity:1; 
stroke-linecap:round; stroke-linejoin:round;fill-rule:evenodd;"
d="M 14.0845,8.8357
14.0893,8.8118
14.1028,8.7916
14.1231,8.7780
14.1470,8.7732
14.8470,8.7732
14.8709,8.7780
14.8912,8.7916
14.9048,8.8118
14.9095,8.8357
14.9095,8.9607
14.9048,8.9847
14.8912,9.0049
14.8709,9.0185
14.8470,9.0232
14.1470,9.0232
14.1231,9.0185
14.1028,9.0049
14.0893,8.9847
14.0845,8.9607
Z" /> 
<path style="fill:#FFFFFF; fill-opacity:1.0000; 
stroke:#FFFFFF; stroke-width:0.0000; stroke-opacity:1; 
stroke-linecap:round; stroke-linejoin:round;fill-rule:evenodd;"
d="M 14.0845,9.3357
14.0893,9.3118
14.1028,9.2916
14.1231,9.2780
14.1470,9.2732
14.8470,9.2732
14.8709,9.2780
14.8912,9.2916
14.9048,9.3118
14.9095,9.3357
14.9095,9.4607
14.9048,9.4847
14.8912,9.5049
14.8709,9.5185
14.8470,9.5232
14.1470,9.5232
14.1231,9.5185
14.1028,9.5049
14.0893,9.4847
14.0845,9.4607
Z" /> 
<path style="fill:#FFFFFF; fill-opacity:1.0000; 
stroke:#FFFFFF; stroke-width:0.0000; stroke-opacity:1; 
stroke-linecap:round; stroke-linejoin:round;fill-rule:evenodd;"
d="M 14.0845,9.8357
14.0893,9.8118
14.1028,9.7916
14.1231,9.7780
14.1470,9.7732
14.8470,9.7732
14.8709,9.7780
14.8912,9.7916
14.9048,9.8118
14.9095,9.8357
14.9095,9.9607
14.9048,9.9847
14.8912,10.0049
14.8709,10.0185
14.8470,10.0232
14.1470,10.0232
14.1231,10.0185
14.1028,10.0049
14.0893,9.9847
14.0845,9.9607
Z" /> 
<path style="fill:#FFFFFF; fill-opacity:1.0000; 
stroke:#FFFFFF; stroke-width:0.0000; stroke-opacity:1; 
stroke-linecap:round; stroke-linejoin:round;fill-rule:evenodd;"
d="M 14.0845,10.3357
14.0893,10.3118
14.1028,10.2916
14.1231,10.2780
14.1470,10.2732
14.8470,10.2732
14.8709,10.2780
14.8912,10.2916
14.9048,10.3118
14.9095,10.3357
14.9095,10.4607
14.9048,10.4847
14.8912,10.5049
14.8709,10.5185
14.8470,10.5232
14.1470,10.5232
14.1231,10.5185
14.1028,10.5049
14.0893,10.4847
14.0845,10.4607
Z" /> 
<path style="fill:#FFFFFF; fill-opacity:1.0000; 
stroke:#FFFFFF; stroke-width:0.0000; stroke-opacity:1; 
stroke-linecap:round; stroke-linejoin:round;fill-rule:evenodd;"
d="M 15.0595,10.7357
15.0643,10.7118
15.0778,10.6916
15.0981,10.6780
15.1220,10.6732
15.2470,10.6732
15.2709,10.6780
15.2912,10.6916
15.3048,10.7118
15.3095,10.7357
15.3095,11.4357
15.3048,11.4597
15.2912,11.4799
15.2709,11.4935
15.2470,11.4982
15.1220,11.4982
15.0981,11.4935
15.0778,11.4799
15.0643,11.4597
15.0595,11.4357
Z" /> 
<path style="fill:#FFFFFF; fill-opacity:1.0000; 
stroke:#FFFFFF; stroke-width:0.0000; stroke-opacity:1; 
stroke-linecap:round; stroke-linejoin:round;fill-rule:evenodd;"
d="M 15.5595,10.7357
15.5643,10.7118
15.5778,10.6916
15.5981,10.6780
15.6220,10.6732
15.7470,10.6732
15.7709,10.6780
15.7912,10.6916
15.8048,10.7118
15.8095,10.7357
15.8095,11.4357
15.8048,11.4597
15.7912,11.4799
15.7709,11.4935
15.7470,11.4982
15.6220,11.4982
15.5981,11.4935
15.5778,11.4799
15.5643,11.4597
15.5595,11.4357
Z" /> 
<path style="fill:#FFFFFF; fill-opacity:1.0000; 
stroke:#FFFFFF; stroke-width:0.0000; stroke-opacity:1; 
stroke-linecap:round; stroke-linejoin:round;fill-rule:evenodd;"
d="M 16.0595,10.7357
16.0643,10.7118
16.0778,10.6916
16.0981,10.6780
16.1220,10.6732
16.2470,10.6732
16.2709,10.6780
16.2912,10.6916
16.3048,10.7118
16.3095,10.7357
16.3095,11.4357
16.3048,11.4597
16.2912,11.4799
16.2709,11.4935
16.2470,11.4982
16.1220,11.4982
16.0981,11.4935
16.0778,11.4799
16.0643,11.4597
16.0595,11.4357
Z" /> 
<path style="fill:#FFFFFF; fill-opacity:1.0000; 
stroke:#FFFFFF; stroke-width:0.0000; stroke-opacity:1; 
stroke-linecap:round; stroke-linejoin:round;fill-rule:evenodd;"
d="M 16.5595,10.7357
16.5643,10.7118
16.5778,10.6916
16.5981,10.6780
16.6220,10.6732
16.7470,10.6732
16.7709,10.6780
16.7912,10.6916
16.8048,10.7118
16.8095,10.7357
16.8095,11.4357
16.8048,11.4597
16.7912,11.4799
16.7709,11.4935
16.7470,11.4982
16.6220,11.4982
16.5981,11.4935
16.5778,11.4799
16.5643,11.4597
16.5595,11.4357
Z" /> 
<path style="fill:#FFFFFF; fill-opacity:1.0000; 
stroke:#FFFFFF; stroke-width:0.0000; stroke-opacity:1; 
stroke-linecap:round; stroke-linejoin:round;fill-rule:evenodd;"
d="M 17.0595,10.7357
17.0643,10.7118
17.0778,10.6916
17.0981,10.6780
17.1220,10.6732
17.2470,10.6732
17.2709,10.6780
17.2912,10.6916
17.3048,10.7118
17.3095,10.7357
17.3095,11.4357
17.3048,11.4597
17.2912,11.4799
17.2709,11.4935
17.2470,11.4982
17.1220,11.4982
17.0981,11.4935
17.0778,11.4799
17.0643,11.4597
17.0595,11.4357
Z" /> 
<path style="fill:#FFFFFF; fill-opacity:1.0000; 
stroke:#FFFFFF; stroke-width:0.0000; stroke-opacity:1; 
stroke-linecap:round; stroke-linejoin:round;fill-rule:evenodd;"
d="M 17.5595,10.7357
17.5643,10.7118
17.5778,10.6916
17.5981,10.6780
17.6220,10.6732
17.7470,10.6732
17.7709,10.6780
17.7912,10.6916
17.8048,10.7118
17.8095,10.7357
17.8095,11.4357
17.8048,11.4597
17.7912,11.4799
17.7709,11.4935
17.7470,11.4982
17.6220,11.4982
17.5981,11.4935
17.5778,11.4799
17.5643,11.4597
17.5595,11.4357
Z" /> 
<path style="fill:#FFFFFF; fill-opacity:1.0000; 
stroke:#FFFFFF; stroke-width:0.0000; stroke-opacity:1; 
stroke-linecap:round; stroke-linejoin:round;fill-rule:evenodd;"
d="M 18.0595,10.7357
18.0643,10.7118
18.0778,10.6916
18.0981,10.6780
18.1220,10.6732
18.2470,10.6732
18.2709,10.6780
18.2912,10.6916
18.3048,10.7118
18.3095,10.7357
18.3095,11.4357
18.3048,11.4597
18.2912,11.4799
18.2709,11.4935
18.2470,11.4982
18.1220,11.4982
18.0981,11.4935
18.0778,11.4799
18.0643,11.4597
18.0595,11.4357
Z" /> 
<path style="fill:#FFFFFF; fill-opacity:1.0000; 
stroke:#FFFFFF; stroke-width:0.0000; stroke-opacity:1; 
stroke-linecap:round; stroke-linejoin:round;fill-rule:evenodd;"
d="M 18.5595,10.7357
18.5643,10.7118
18.5778,10.6916
18.5981,10.6780
18.6220,10.6732
18.7470,10.6732
18.7709,10.6780
18.7912,10.6916
18.8048,10.7118
18.8095,10.7357
18.8095,11.4357
18.8048,11.4597
18.7912,11.4799
18.7709,11.4935
18.7470,11.4982
18.6220,11.4982
18.5981,11.4935
18.5778,11.4799
18.5643,11.4597
18.5595,11.4357
Z" /> 
<path style="fill:#FFFFFF; fill-opacity:1.0000; 
stroke:#FFFFFF; stroke-width:0.0000; stroke-opacity:1; 
stroke-linecap:round; stroke-linejoin:round;fill-rule:evenodd;"
d="M 19.0595,10.7357
19.0643,10.7118
19.0778,10.6916
19.0981,10.6780
19.1220,10.6732
19.2470,10.6732
19.2709,10.6780
19.2912,10.6916
19.3048,10.7118
19.3095,10.7357
19.3095,11.4357
19.3048,11.4597
19.2912,11.4799
19.2709,11.4935
19.2470,11.4982
19.1220,11.4982
19.0981,11.4935
19.0778,11.4799
19.0643,11.4597
19.0595,11.4357
Z" /> 
<path style="fill:#FFFFFF; fill-opacity:1.0000; 
stroke:#FFFFFF; stroke-width:0.0000; stroke-opacity:1; 
stroke-linecap:round; stroke-linejoin:round;fill-rule:evenodd;"
d="M 19.5595,10.7357
19.5643,10.7118
19.5778,10.6916
19.5981,10.6780
19.6220,10.6732
19.7470,10.6732
19.7709,10.6780
19.7912,10.6916
19.8048,10.7118
19.8095,10.7357
19.8095,11.4357
19.8048,11.4597
19.7912,11.4799
19.7709,11.4935
19.7470,11.4982
19.6220,11.4982
19.5981,11.4935
19.5778,11.4799
19.5643,11.4597
19.5595,11.4357
Z" /> 
<path style="fill:#FFFFFF; fill-opacity:1.0000; 
stroke:#FFFFFF; stroke-width:0.0000; stroke-opacity:1; 
stroke-linecap:round; stroke-linejoin:round;fill-rule:evenodd;"
d="M 20.0595,10.7357
20.0643,10.7118
20.0778,10.6916
20.0981,10.6780
20.1220,10.6732
20.2470,10.6732
20.2709,10.6780
20.2912,10.6916
20.3048,10.7118
20.3095,10.7357
20.3095,11.4357
20.3048,11.4597
20.2912,11.4799
20.2709,11.4935
20.2470,11.4982
20.1220,11.4982
20.0981,11.4935
20.0778,11.4799
20.0643,11.4597
20.0595,11.4357
Z" /> 
<path style="fill:#FFFFFF; fill-opacity:1.0000; 
stroke:#FFFFFF; stroke-width:0.0000; stroke-opacity:1; 
stroke-linecap:round; stroke-linejoin:round;fill-rule:evenodd;"
d="M 20.5595,10.7357
20.5643,10.7118
20.5778,10.6916
20.5981,10.6780
20.6220,10.6732
20.7470,10.6732
20.7709,10.6780
20.7912,10.6916
20.8048,10.7118
20.8095,10.7357
20.8095,11.4357
20.8048,11.4597
20.7912,11.4799
20.7709,11.4935
20.7470,11.4982
20.6220,11.4982
20.5981,11.4935
20.5778,11.4799
20.5643,11.4597
20.5595,11.4357
Z" /> 
<path style="fill:#FFFFFF; fill-opacity:1.0000; 
stroke:#FFFFFF; stroke-width:0.0000; stroke-opacity:1; 
stroke-linecap:round; stroke-linejoin:round;fill-rule:evenodd;"
d="M 21.0595,10.7357
21.0643,10.7118
21.0778,10.6916
21.0981,10.6780
21.1220,10.6732
21.2470,10.6732
21.2709,10.6780
21.2912,10.6916
21.3048,10.7118
21.3095,10.7357
21.3095,11.4357
21.3048,11.4597
21.2912,11.4799
21.2709,11.4935
21.2470,11.4982
21.1220,11.4982
21.0981,11.4935
21.0778,11.4799
21.0643,11.4597
21.0595,11.4357
Z" /> 
<path style="fill:#FFFFFF; fill-opacity:1.0000; 
stroke:#FFFFFF; stroke-width:0.0000; stroke-opacity:1; 
stroke-linecap:round; stroke-linejoin:round;fill-rule:evenodd;"
d="M 21.5595,10.7357
21.5643,10.7118
21.5778,10.6916
21.5981,10.6780
21.6220,10.6732
21.7470,10.6732
21.7709,10.6780
21.7912,10.6916
21.8048,10.7118
21.8095,10.7357
21.8095,11.4357
21.8048,11.4597
21.7912,11.4799
21.7709,11.4935
21.7470,11.4982
21.6220,11.4982
21.5981,11.4935
21.5778,11.4799
21.5643,11.4597
21.5595,11.4357
Z" /> 
<path style="fill:#FFFFFF; fill-opacity:1.0000; 
stroke:#FFFFFF; stroke-width:0.0000; stroke-opacity:1; 
stroke-linecap:round; stroke-linejoin:round;fill-rule:evenodd;"
d="M 22.0595,10.7357
22.0643,10.7118
22.0778,10.6916
22.0981,10.6780
22.1220,10.6732
22.2470,10.6732
22.2709,10.6780
22.2912,10.6916
22.3048,10.7118
22.3095,10.7357
22.3095,11.4357
22.3048,11.4597
22.2912,11.4799
22.2709,11.4935
22.2470,11.4982
22.1220,11.4982
22.0981,11.4935
22.0778,11.4799
22.0643,11.4597
22.0595,11.4357
Z" /> 
<path style="fill:#FFFFFF; fill-opacity:1.0000; 
stroke:#FFFFFF; stroke-width:0.0000; stroke-opacity:1; 
stroke-linecap:round; stroke-linejoin:round;fill-rule:evenodd;"
d="M 22.5595,10.7357
22.5643,10.7118
22.5778,10.6916
22.5981,10.6780
22.6220,10.6732
22.7470,10.6732
22.7709,10.6780
22.7912,10.6916
22.8048,10.7118
22.8095,10.7357
22.8095,11.4357
22.8048,11.4597
22.7912,11.4799
22.7709,11.4935
22.7470,11.4982
22.6220,11.4982
22.5981,11.4935
22.5778,11.4799
22.5643,11.4597
22.5595,11.4357
Z" /> 
<path style="fill:#FFFFFF; fill-opacity:1.0000; 
stroke:#FFFFFF; stroke-width:0.0000; stroke-opacity:1; 
stroke-linecap:round; stroke-linejoin:round;fill-rule:evenodd;"
d="M 22.9595,10.3357
22.9643,10.3118
22.9778,10.2916
22.9981,10.2780
23.0220,10.2732
23.7220,10.2732
23.7459,10.2780
23.7662,10.2916
23.7798,10.3118
23.7845,10.3357
23.7845,10.4607
23.7798,10.4847
23.7662,10.5049
23.7459,10.5185
23.7220,10.5232
23.0220,10.5232
22.9981,10.5185
22.9778,10.5049
22.9643,10.4847
22.9595,10.4607
Z" /> 
<path style="fill:#FFFFFF; fill-opacity:1.0000; 
stroke:#FFFFFF; stroke-width:0.0000; stroke-opacity:1; 
stroke-linecap:round; stroke-linejoin:round;fill-rule:evenodd;"
d="M 22.9595,9.8357
22.9643,9.8118
22.9778,9.7916
22.9981,9.7780
23.0220,9.7732
23.7220,9.7732
23.7459,9.7780
23.7662,9.7916
23.7798,9.8118
23.7845,9.8357
23.7845,9.9607
23.7798,9.9847
23.7662,10.0049
23.7459,10.0185
23.7220,10.0232
23.0220,10.0232
22.9981,10.0185
22.9778,10.0049
22.9643,9.9847
22.9595,9.9607
Z" /> 
<path style="fill:#FFFFFF; fill-opacity:1.0000; 
stroke:#FFFFFF; stroke-width:0.0000; stroke-opacity:1; 
stroke-linecap:round; stroke-linejoin:round;fill-rule:evenodd;"
d="M 22.9595,9.3357
22.9643,9.3118
22.9778,9.2916
22.9981,9.2780
23.0220,9.2732
23.7220,9.2732
23.7459,9.2780
23.7662,9.2916
23.7798,9.3118
23.7845,9.3357
23.7845,9.4607
23.7798,9.4847
23.7662,9.5049
23.7459,9.5185
23.7220,9.5232
23.0220,9.5232
22.9981,9.5185
22.9778,9.5049
22.9643,9.4847
22.9595,9.4607
Z" /> 
<path style="fill:#FFFFFF; fill-opacity:1.0000; 
stroke:#FFFFFF; stroke-width:0.0000; stroke-opacity:1; 
stroke-linecap:round; stroke-linejoin:round;fill-rule:evenodd;"
d="M 22.9595,8.8357
22.9643,8.8118
22.9778,8.7916
22.9981,8.7780
23.0220,8.7732
23.7220,8.7732
23.7459,8.7780
23.7662,8.7916
23.7798,8.8118
23.7845,8.8357
23.7845,8.9607
23.7798,8.9847
23.7662,9.0049
23.7459,9.0185
23.7220,9.0232
23.0220,9.0232
22.9981,9.0185
22.9778,9.0049
22.9643,8.9847
22.9595,8.9607
Z" /> 
<path style="fill:#FFFFFF; fill-opacity:1.0000; 
stroke:#FFFFFF; stroke-width:0.0000; stroke-opacity:1; 
stroke-linecap:round; stroke-linejoin:round;fill-rule:evenodd;"
d="M 22.9595,8.3357
22.9643,8.3118
22.9778,8.2916
22.9981,8.2780
23.0220,8.2732
23.7220,8.2732
23.7459,8.2780
23.7662,8.2916
23.7798,8.3118
23.7845,8.3357
23.7845,8.4607
23.7798,8.4847
23.7662,8.5049
23.7459,8.5185
23.7220,8.5232
23.0220,8.5232
22.9981,8.5185
22.9778,8.5049
22.9643,8.4847
22.9595,8.4607
Z" /> 
<path style="fill:#FFFFFF; fill-opacity:1.0000; 
stroke:#FFFFFF; stroke-width:0.0000; stroke-opacity:1; 
stroke-linecap:round; stroke-linejoin:round;fill-rule:evenodd;"
d="M 22.9595,7.8357
22.9643,7.8118
22.9778,7.7916
22.9981,7.7780
23.0220,7.7732
23.7220,7.7732
23.7459,7.7780
23.7662,7.7916
23.7798,7.8118
23.7845,7.8357
23.7845,7.9607
23.7798,7.9847
23.7662,8.0049
23.7459,8.0185
23.7220,8.0232
23.0220,8.0232
22.9981,8.0185
22.9778,8.0049
22.9643,7.9847
22.9595,7.9607
Z" /> 
<path style="fill:#FFFFFF; fill-opacity:1.0000; 
stroke:#FFFFFF; stroke-width:0.0000; stroke-opacity:1; 
stroke-linecap:round; stroke-linejoin:round;fill-rule:evenodd;"
d="M 22.9595,7.3357
22.9643,7.3118
22.9778,7.2916
22.9981,7.2780
23.0220,7.2732
23.7220,7.2732
23.7459,7.2780
23.7662,7.2916
23.7798,7.3118
23.7845,7.3357
23.7845,7.4607
23.7798,7.4847
23.7662,7.5049
23.7459,7.5185
23.7220,7.5232
23.0220,7.5232
22.9981,7.5185
22.9778,7.5049
22.9643,7.4847
22.9595,7.4607
Z" /> 
<path style="fill:#FFFFFF; fill-opacity:1.0000; 
stroke:#FFFFFF; stroke-width:0.0000; stroke-opacity:1; 
stroke-linecap:round; stroke-linejoin:round;fill-rule:evenodd;"
d="M 22.9595,6.8357
22.9643,6.8118
22.9778,6.7916
22.9981,6.7780
23.0220,6.7732
23.7220,6.7732
23.7459,6.7780
23.7662,6.7916
23.7798,6.8118
23.7845,6.8357
23.7845,6.9607
23.7798,6.9847
23.7662,7.0049
23.7459,7.0185
23.7220,7.0232
23.0220,7.0232
22.9981,7.0185
22.9778,7.0049
22.9643,6.9847
22.9595,6.9607
Z" /> 
<path style="fill:#FFFFFF; fill-opacity:1.0000; 
stroke:#FFFFFF; stroke-width:0.0000; stroke-opacity:1; 
stroke-linecap:round; stroke-linejoin:round;fill-rule:evenodd;"
d="M 22.9595,6.3357
22.9643,6.3118
22.9778,6.2916
22.9981,6.2780
23.0220,6.2732
23.7220,6.2732
23.7459,6.2780
23.7662,6.2916
23.7798,6.3118
23.7845,6.3357
23.7845,6.4607
23.7798,6.4847
23.7662,6.5049
23.7459,6.5185
23.7220,6.5232
23.0220,6.5232
22.9981,6.5185
22.9778,6.5049
22.9643,6.4847
22.9595,6.4607
Z" /> 
<path style="fill:#FFFFFF; fill-opacity:1.0000; 
stroke:#FFFFFF; stroke-width:0.0000; stroke-opacity:1; 
stroke-linecap:round; stroke-linejoin:round;fill-rule:evenodd;"
d="M 22.9595,5.8357
22.9643,5.8118
22.9778,5.7916
22.9981,5.7780
23.0220,5.7732
23.7220,5.7732
23.7459,5.7780
23.7662,5.7916
23.7798,5.8118
23.7845,5.8357
23.7845,5.9607
23.7798,5.9847
23.7662,6.0049
23.7459,6.0185
23.7220,6.0232
23.0220,6.0232
22.9981,6.0185
22.9778,6.0049
22.9643,5.9847
22.9595,5.9607
Z" /> 
<path style="fill:#FFFFFF; fill-opacity:1.0000; 
stroke:#FFFFFF; stroke-width:0.0000; stroke-opacity:1; 
stroke-linecap:round; stroke-linejoin:round;fill-rule:evenodd;"
d="M 22.9595,5.3357
22.9643,5.3118
22.9778,5.2916
22.9981,5.2780
23.0220,5.2732
23.7220,5.2732
23.7459,5.2780
23.7662,5.2916
23.7798,5.3118
23.7845,5.3357
23.7845,5.4607
23.7798,5.4847
23.7662,5.5049
23.7459,5.5185
23.7220,5.5232
23.0220,5.5232
22.9981,5.5185
22.9778,5.5049
22.9643,5.4847
22.9595,5.4607
Z" /> 
<path style="fill:#FFFFFF; fill-opacity:1.0000; 
stroke:#FFFFFF; stroke-width:0.0000; stroke-opacity:1; 
stroke-linecap:round; stroke-linejoin:round;fill-rule:evenodd;"
d="M 22.9595,4.8357
22.9643,4.8118
22.9778,4.7916
22.9981,4.7780
23.0220,4.7732
23.7220,4.7732
23.7459,4.7780
23.7662,4.7916
23.7798,4.8118
23.7845,4.8357
23.7845,4.9607
23.7798,4.9847
23.7662,5.0049
23.7459,5.0185
23.7220,5.0232
23.0220,5.0232
22.9981,5.0185
22.9778,5.0049
22.9643,4.9847
22.9595,4.9607
Z" /> 
<path style="fill:#FFFFFF; fill-opacity:1.0000; 
stroke:#FFFFFF; stroke-width:0.0000; stroke-opacity:1; 
stroke-linecap:round; stroke-linejoin:round;fill-rule:evenodd;"
d="M 22.9595,4.3357
22.9643,4.3118
22.9778,4.2916
22.9981,4.2780
23.0220,4.2732
23.7220,4.2732
23.7459,4.2780
23.7662,4.2916
23.7798,4.3118
23.7845,4.3357
23.7845,4.4607
23.7798,4.4847
23.7662,4.5049
23.7459,4.5185
23.7220,4.5232
23.0220,4.5232
22.9981,4.5185
22.9778,4.5049
22.9643,4.4847
22.9595,4.4607
Z" /> 
<path style="fill:#FFFFFF; fill-opacity:1.0000; 
stroke:#FFFFFF; stroke-width:0.0000; stroke-opacity:1; 
stroke-linecap:round; stroke-linejoin:round;fill-rule:evenodd;"
d="M 22.9595,3.8357
22.9643,3.8118
22.9778,3.7916
22.9981,3.7780
23.0220,3.7732
23.7220,3.7732
23.7459,3.7780
23.7662,3.7916
23.7798,3.8118
23.7845,3.8357
23.7845,3.9607
23.7798,3.9847
23.7662,4.0049
23.7459,4.0185
23.7220,4.0232
23.0220,4.0232
22.9981,4.0185
22.9778,4.0049
22.9643,3.9847
22.9595,3.9607
Z" /> 
<path style="fill:#FFFFFF; fill-opacity:1.0000; 
stroke:#FFFFFF; stroke-width:0.0000; stroke-opacity:1; 
stroke-linecap:round; stroke-linejoin:round;fill-rule:evenodd;"
d="M 22.9595,3.3357
22.9643,3.3118
22.9778,3.2916
22.9981,3.2780
23.0220,3.2732
23.7220,3.2732
23.7459,3.2780
23.7662,3.2916
23.7798,3.3118
23.7845,3.3357
23.7845,3.4607
23.7798,3.4847
23.7662,3.5049
23.7459,3.5185
23.7220,3.5232
23.0220,3.5232
22.9981,3.5185
22.9778,3.5049
22.9643,3.4847
22.9595,3.4607
Z" /> 
<path style="fill:#FFFFFF; fill-opacity:1.0000; 
stroke:#FFFFFF; stroke-width:0.0000; stroke-opacity:1; 
stroke-linecap:round; stroke-linejoin:round;fill-rule:evenodd;"
d="M 22.9595,2.8357
22.9643,2.8118
22.9778,2.7916
22.9981,2.7780
23.0220,2.7732
23.7220,2.7732
23.7459,2.7780
23.7662,2.7916
23.7798,2.8118
23.7845,2.8357
23.7845,2.9607
23.7798,2.9847
23.7662,3.0049
23.7459,3.0185
23.7220,3.0232
23.0220,3.0232
22.9981,3.0185
22.9778,3.0049
22.9643,2.9847
22.9595,2.9607
Z" /> 
<path style="fill:#FFFFFF; fill-opacity:1.0000; 
stroke:#FFFFFF; stroke-width:0.0000; stroke-opacity:1; 
stroke-linecap:round; stroke-linejoin:round;fill-rule:evenodd;"
d="M 22.5595,1.8607
22.5643,1.8368
22.5778,1.8166
22.5981,1.8030
22.6220,1.7982
22.7470,1.7982
22.7709,1.8030
22.7912,1.8166
22.8048,1.8368
22.8095,1.8607
22.8095,2.5608
22.8048,2.5847
22.7912,2.6049
22.7709,2.6185
22.7470,2.6233
22.6220,2.6233
22.5981,2.6185
22.5778,2.6049
22.5643,2.5847
22.5595,2.5608
Z" /> 
<path style="fill:#FFFFFF; fill-opacity:1.0000; 
stroke:#FFFFFF; stroke-width:0.0000; stroke-opacity:1; 
stroke-linecap:round; stroke-linejoin:round;fill-rule:evenodd;"
d="M 22.0595,1.8607
22.0643,1.8368
22.0778,1.8166
22.0981,1.8030
22.1220,1.7982
22.2470,1.7982
22.2709,1.8030
22.2912,1.8166
22.3048,1.8368
22.3095,1.8607
22.3095,2.5608
22.3048,2.5847
22.2912,2.6049
22.2709,2.6185
22.2470,2.6233
22.1220,2.6233
22.0981,2.6185
22.0778,2.6049
22.0643,2.5847
22.0595,2.5608
Z" /> 
<path style="fill:#FFFFFF; fill-opacity:1.0000; 
stroke:#FFFFFF; stroke-width:0.0000; stroke-opacity:1; 
stroke-linecap:round; stroke-linejoin:round;fill-rule:evenodd;"
d="M 21.5595,1.8607
21.5643,1.8368
21.5778,1.8166
21.5981,1.8030
21.6220,1.7982
21.7470,1.7982
21.7709,1.8030
21.7912,1.8166
21.8048,1.8368
21.8095,1.8607
21.8095,2.5608
21.8048,2.5847
21.7912,2.6049
21.7709,2.6185
21.7470,2.6233
21.6220,2.6233
21.5981,2.6185
21.5778,2.6049
21.5643,2.5847
21.5595,2.5608
Z" /> 
<path style="fill:#FFFFFF; fill-opacity:1.0000; 
stroke:#FFFFFF; stroke-width:0.0000; stroke-opacity:1; 
stroke-linecap:round; stroke-linejoin:round;fill-rule:evenodd;"
d="M 21.0595,1.8607
21.0643,1.8368
21.0778,1.8166
21.0981,1.8030
21.1220,1.7982
21.2470,1.7982
21.2709,1.8030
21.2912,1.8166
21.3048,1.8368
21.3095,1.8607
21.3095,2.5608
21.3048,2.5847
21.2912,2.6049
21.2709,2.6185
21.2470,2.6233
21.1220,2.6233
21.0981,2.6185
21.0778,2.6049
21.0643,2.5847
21.0595,2.5608
Z" /> 
<path style="fill:#FFFFFF; fill-opacity:1.0000; 
stroke:#FFFFFF; stroke-width:0.0000; stroke-opacity:1; 
stroke-linecap:round; stroke-linejoin:round;fill-rule:evenodd;"
d="M 20.5595,1.8607
20.5643,1.8368
20.5778,1.8166
20.5981,1.8030
20.6220,1.7982
20.7470,1.7982
20.7709,1.8030
20.7912,1.8166
20.8048,1.8368
20.8095,1.8607
20.8095,2.5608
20.8048,2.5847
20.7912,2.6049
20.7709,2.6185
20.7470,2.6233
20.6220,2.6233
20.5981,2.6185
20.5778,2.6049
20.5643,2.5847
20.5595,2.5608
Z" /> 
<path style="fill:#FFFFFF; fill-opacity:1.0000; 
stroke:#FFFFFF; stroke-width:0.0000; stroke-opacity:1; 
stroke-linecap:round; stroke-linejoin:round;fill-rule:evenodd;"
d="M 20.0595,1.8607
20.0643,1.8368
20.0778,1.8166
20.0981,1.8030
20.1220,1.7982
20.2470,1.7982
20.2709,1.8030
20.2912,1.8166
20.3048,1.8368
20.3095,1.8607
20.3095,2.5608
20.3048,2.5847
20.2912,2.6049
20.2709,2.6185
20.2470,2.6233
20.1220,2.6233
20.0981,2.6185
20.0778,2.6049
20.0643,2.5847
20.0595,2.5608
Z" /> 
<path style="fill:#FFFFFF; fill-opacity:1.0000; 
stroke:#FFFFFF; stroke-width:0.0000; stroke-opacity:1; 
stroke-linecap:round; stroke-linejoin:round;fill-rule:evenodd;"
d="M 19.5595,1.8607
19.5643,1.8368
19.5778,1.8166
19.5981,1.8030
19.6220,1.7982
19.7470,1.7982
19.7709,1.8030
19.7912,1.8166
19.8048,1.8368
19.8095,1.8607
19.8095,2.5608
19.8048,2.5847
19.7912,2.6049
19.7709,2.6185
19.7470,2.6233
19.6220,2.6233
19.5981,2.6185
19.5778,2.6049
19.5643,2.5847
19.5595,2.5608
Z" /> 
<path style="fill:#FFFFFF; fill-opacity:1.0000; 
stroke:#FFFFFF; stroke-width:0.0000; stroke-opacity:1; 
stroke-linecap:round; stroke-linejoin:round;fill-rule:evenodd;"
d="M 19.0595,1.8607
19.0643,1.8368
19.0778,1.8166
19.0981,1.8030
19.1220,1.7982
19.2470,1.7982
19.2709,1.8030
19.2912,1.8166
19.3048,1.8368
19.3095,1.8607
19.3095,2.5608
19.3048,2.5847
19.2912,2.6049
19.2709,2.6185
19.2470,2.6233
19.1220,2.6233
19.0981,2.6185
19.0778,2.6049
19.0643,2.5847
19.0595,2.5608
Z" /> 
<path style="fill:#FFFFFF; fill-opacity:1.0000; 
stroke:#FFFFFF; stroke-width:0.0000; stroke-opacity:1; 
stroke-linecap:round; stroke-linejoin:round;fill-rule:evenodd;"
d="M 18.5595,1.8607
18.5643,1.8368
18.5778,1.8166
18.5981,1.8030
18.6220,1.7982
18.7470,1.7982
18.7709,1.8030
18.7912,1.8166
18.8048,1.8368
18.8095,1.8607
18.8095,2.5608
18.8048,2.5847
18.7912,2.6049
18.7709,2.6185
18.7470,2.6233
18.6220,2.6233
18.5981,2.6185
18.5778,2.6049
18.5643,2.5847
18.5595,2.5608
Z" /> 
<path style="fill:#FFFFFF; fill-opacity:1.0000; 
stroke:#FFFFFF; stroke-width:0.0000; stroke-opacity:1; 
stroke-linecap:round; stroke-linejoin:round;fill-rule:evenodd;"
d="M 18.0595,1.8607
18.0643,1.8368
18.0778,1.8166
18.0981,1.8030
18.1220,1.7982
18.2470,1.7982
18.2709,1.8030
18.2912,1.8166
18.3048,1.8368
18.3095,1.8607
18.3095,2.5608
18.3048,2.5847
18.2912,2.6049
18.2709,2.6185
18.2470,2.6233
18.1220,2.6233
18.0981,2.6185
18.0778,2.6049
18.0643,2.5847
18.0595,2.5608
Z" /> 
<path style="fill:#FFFFFF; fill-opacity:1.0000; 
stroke:#FFFFFF; stroke-width:0.0000; stroke-opacity:1; 
stroke-linecap:round; stroke-linejoin:round;fill-rule:evenodd;"
d="M 17.5595,1.8607
17.5643,1.8368
17.5778,1.8166
17.5981,1.8030
17.6220,1.7982
17.7470,1.7982
17.7709,1.8030
17.7912,1.8166
17.8048,1.8368
17.8095,1.8607
17.8095,2.5608
17.8048,2.5847
17.7912,2.6049
17.7709,2.6185
17.7470,2.6233
17.6220,2.6233
17.5981,2.6185
17.5778,2.6049
17.5643,2.5847
17.5595,2.5608
Z" /> 
<path style="fill:#FFFFFF; fill-opacity:1.0000; 
stroke:#FFFFFF; stroke-width:0.0000; stroke-opacity:1; 
stroke-linecap:round; stroke-linejoin:round;fill-rule:evenodd;"
d="M 17.0595,1.8607
17.0643,1.8368
17.0778,1.8166
17.0981,1.8030
17.1220,1.7982
17.2470,1.7982
17.2709,1.8030
17.2912,1.8166
17.3048,1.8368
17.3095,1.8607
17.3095,2.5608
17.3048,2.5847
17.2912,2.6049
17.2709,2.6185
17.2470,2.6233
17.1220,2.6233
17.0981,2.6185
17.0778,2.6049
17.0643,2.5847
17.0595,2.5608
Z" /> 
<path style="fill:#FFFFFF; fill-opacity:1.0000; 
stroke:#FFFFFF; stroke-width:0.0000; stroke-opacity:1; 
stroke-linecap:round; stroke-linejoin:round;fill-rule:evenodd;"
d="M 16.5595,1.8607
16.5643,1.8368
16.5778,1.8166
16.5981,1.8030
16.6220,1.7982
16.7470,1.7982
16.7709,1.8030
16.7912,1.8166
16.8048,1.8368
16.8095,1.8607
16.8095,2.5608
16.8048,2.5847
16.7912,2.6049
16.7709,2.6185
16.7470,2.6233
16.6220,2.6233
16.5981,2.6185
16.5778,2.6049
16.5643,2.5847
16.5595,2.5608
Z" /> 
<path style="fill:#FFFFFF; fill-opacity:1.0000; 
stroke:#FFFFFF; stroke-width:0.0000; stroke-opacity:1; 
stroke-linecap:round; stroke-linejoin:round;fill-rule:evenodd;"
d="M 16.0595,1.8607
16.0643,1.8368
16.0778,1.8166
16.0981,1.8030
16.1220,1.7982
16.2470,1.7982
16.2709,1.8030
16.2912,1.8166
16.3048,1.8368
16.3095,1.8607
16.3095,2.5608
16.3048,2.5847
16.2912,2.6049
16.2709,2.6185
16.2470,2.6233
16.1220,2.6233
16.0981,2.6185
16.0778,2.6049
16.0643,2.5847
16.0595,2.5608
Z" /> 
<path style="fill:#FFFFFF; fill-opacity:1.0000; 
stroke:#FFFFFF; stroke-width:0.0000; stroke-opacity:1; 
stroke-linecap:round; stroke-linejoin:round;fill-rule:evenodd;"
d="M 15.5595,1.8607
15.5643,1.8368
15.5778,1.8166
15.5981,1.8030
15.6220,1.7982
15.7470,1.7982
15.7709,1.8030
15.7912,1.8166
15.8048,1.8368
15.8095,1.8607
15.8095,2.5608
15.8048,2.5847
15.7912,2.6049
15.7709,2.6185
15.7470,2.6233
15.6220,2.6233
15.5981,2.6185
15.5778,2.6049
15.5643,2.5847
15.5595,2.5608
Z" /> 
<path style="fill:#FFFFFF; fill-opacity:1.0000; 
stroke:#FFFFFF; stroke-width:0.0000; stroke-opacity:1; 
stroke-linecap:round; stroke-linejoin:round;fill-rule:evenodd;"
d="M 15.0595,1.8607
15.0643,1.8368
15.0778,1.8166
15.0981,1.8030
15.1220,1.7982
15.2470,1.7982
15.2709,1.8030
15.2912,1.8166
15.3048,1.8368
15.3095,1.8607
15.3095,2.5608
15.3048,2.5847
15.2912,2.6049
15.2709,2.6185
15.2470,2.6233
15.1220,2.6233
15.0981,2.6185
15.0778,2.6049
15.0643,2.5847
15.0595,2.5608
Z" /> 
</g>
<g >
</g>
<g >
</g>
<g >
</g>
</g>
<g style="fill:#FFFFFF; fill-opacity:1.0000; 
stroke:#FFFFFF; stroke-width:0.0000; stroke-opacity:1; 
stroke-linecap:round; stroke-linejoin:round;">
</g>
<g style="fill:#FFFFFF; fill-opacity:1.0000; 
stroke:#FFFFFF; stroke-width:0.1500; stroke-opacity:1; 
stroke-linecap:round; stroke-linejoin:round;">
</g>
<g style="fill:#FFFFFF; fill-opacity:0.0; 
stroke:#FFFFFF; stroke-width:0.1500; stroke-opacity:1; 
stroke-linecap:round; stroke-linejoin:round;">
<text x="18.9345" y="1.3482"
textLength="4.5357" font-size="1.3333" lengthAdjust="spacingAndGlyphs"
text-anchor="middle" opacity="0">REF**</text>
<g class="stroked-text"><desc>REF**</desc>
<path d="M17.6012 1.3031
L17.2679 0.8269
" />
<path d="M17.0298 1.3031
L17.0298 0.3031
" />
<path d="M17.0298 0.3031
L17.4107 0.3031
" />
<path d="M17.4107 0.3031
L17.5060 0.3507
" />
<path d="M17.5060 0.3507
L17.5536 0.3983
" />
<path d="M17.5536 0.3983
L17.6012 0.4935
" />
<path d="M17.6012 0.4935
L17.6012 0.6364
" />
<path d="M17.6012 0.6364
L17.5536 0.7316
" />
<path d="M17.5536 0.7316
L17.5060 0.7793
" />
<path d="M17.5060 0.7793
L17.4107 0.8269
" />
<path d="M17.4107 0.8269
L17.0298 0.8269
" />
<path d="M18.0298 0.7793
L18.3631 0.7793
" />
<path d="M18.5060 1.3031
L18.0298 1.3031
" />
<path d="M18.0298 1.3031
L18.0298 0.3031
" />
<path d="M18.0298 0.3031
L18.5060 0.3031
" />
<path d="M19.2679 0.7793
L18.9345 0.7793
" />
<path d="M18.9345 1.3031
L18.9345 0.3031
" />
<path d="M18.9345 0.3031
L19.4107 0.3031
" />
<path d="M19.9345 0.3031
L19.9345 0.5412
" />
<path d="M19.6964 0.4459
L19.9345 0.5412
" />
<path d="M19.9345 0.5412
L20.1726 0.4459
" />
<path d="M19.7917 0.7316
L19.9345 0.5412
" />
<path d="M19.9345 0.5412
L20.0774 0.7316
" />
<path d="M20.6964 0.3031
L20.6964 0.5412
" />
<path d="M20.4583 0.4459
L20.6964 0.5412
" />
<path d="M20.6964 0.5412
L20.9345 0.4459
" />
<path d="M20.5536 0.7316
L20.6964 0.5412
" />
<path d="M20.6964 0.5412
L20.8393 0.7316
" />
</g></g>
<g style="fill:#FFFFFF; fill-opacity:0.0; 
stroke:#FFFFFF; stroke-width:0.1200; stroke-opacity:1; 
stroke-linecap:round; stroke-linejoin:round;">
<path d="M14.7995 11.2583
L14.3245 11.2583
" />
<path d="M23.5445 11.2583
L23.5445 10.7832
" />
<path d="M23.0695 2.0383
L23.5445 2.0383
" />
<path d="M14.3245 11.2583
L14.3245 10.7832
" />
<path d="M23.5445 2.0383
L23.5445 2.5132
" />
<path d="M14.7995 2.0383
L14.3245 2.0383
" />
<path d="M23.0695 11.2583
L23.5445 11.2583
" />
<g >
</g>
<g >
</g>
<g >
</g>
<g >
</g>
</g> 
</svg>
