<?xml version="1.0" standalone="no"?>
 <!DOCTYPE svg PUBLIC "-//W3C//DTD SVG 1.1//EN" 
 "http://www.w3.org/Graphics/SVG/1.1/DTD/svg11.dtd"> 
<svg
  xmlns:svg="http://www.w3.org/2000/svg"
  xmlns="http://www.w3.org/2000/svg"
  xmlns:xlink="http://www.w3.org/1999/xlink"
  version="1.1"
  width="57.5310mm" height="46.9392mm" viewBox="0.0000 0.0000 57.5310 46.9392">
<title>SVG Image created as conn_02x13_row_letter_last_mountingpin.svg date 2024/01/16 15:09:11 </title>
  <desc>Image generated by Eeschema-SVG </desc>
<g style="fill:#000000; fill-opacity:1.0000;stroke:#000000; stroke-opacity:1.0000;
stroke-linecap:round; stroke-linejoin:round;"
 transform="translate(0 0) scale(1 1)">
</g>
<g style="fill:#840000; fill-opacity:0.0; 
stroke:#840000; stroke-width:0.0000; stroke-opacity:1; 
stroke-linecap:round; stroke-linejoin:round;">
</g>
<g style="fill:#FFFFC2; fill-opacity:0.0; 
stroke:#FFFFC2; stroke-width:0.0000; stroke-opacity:1; 
stroke-linecap:round; stroke-linejoin:round;">
</g>
<g style="fill:#FFFFC2; fill-opacity:1.0000; 
stroke:#FFFFC2; stroke-width:0.0000; stroke-opacity:1; 
stroke-linecap:round; stroke-linejoin:round;">
<rect x="27.495500" y="6.959600" width="5.080000" height="33.020000" rx="0.000000" />
</g>
<g style="fill:#840084; fill-opacity:1.0000; 
stroke:#840084; stroke-width:0.0000; stroke-opacity:1; 
stroke-linecap:round; stroke-linejoin:round;">
</g>
<g style="fill:#840000; fill-opacity:1.0000; 
stroke:#840000; stroke-width:0.0000; stroke-opacity:1; 
stroke-linecap:round; stroke-linejoin:round;">
</g>
<g style="fill:#840000; fill-opacity:0.0; 
stroke:#840000; stroke-width:0.1524; stroke-opacity:1; 
stroke-linecap:round; stroke-linejoin:round;">
<rect x="27.495500" y="38.582600" width="1.270000" height="0.254000" rx="0.000000" />
<rect x="27.495500" y="36.042600" width="1.270000" height="0.254000" rx="0.000000" />
<rect x="27.495500" y="33.502600" width="1.270000" height="0.254000" rx="0.000000" />
<rect x="27.495500" y="30.962600" width="1.270000" height="0.254000" rx="0.000000" />
<rect x="27.495500" y="28.422600" width="1.270000" height="0.254000" rx="0.000000" />
<rect x="27.495500" y="25.882600" width="1.270000" height="0.254000" rx="0.000000" />
<rect x="27.495500" y="23.342600" width="1.270000" height="0.254000" rx="0.000000" />
<rect x="27.495500" y="20.802600" width="1.270000" height="0.254000" rx="0.000000" />
<rect x="27.495500" y="18.262600" width="1.270000" height="0.254000" rx="0.000000" />
<rect x="27.495500" y="15.722600" width="1.270000" height="0.254000" rx="0.000000" />
<rect x="27.495500" y="13.182600" width="1.270000" height="0.254000" rx="0.000000" />
<rect x="27.495500" y="10.642600" width="1.270000" height="0.254000" rx="0.000000" />
<rect x="27.495500" y="8.102600" width="1.270000" height="0.254000" rx="0.000000" />
</g>
<g style="fill:#840000; fill-opacity:0.0; 
stroke:#840000; stroke-width:0.2540; stroke-opacity:1; 
stroke-linecap:round; stroke-linejoin:round;">
<rect x="27.495500" y="6.959600" width="5.080000" height="33.020000" rx="0.000000" />
</g>
<g style="fill:#840000; fill-opacity:0.0; 
stroke:#840000; stroke-width:0.1524; stroke-opacity:1; 
stroke-linecap:round; stroke-linejoin:round;">
<path style="fill:#840000; fill-opacity:0.0; 
stroke:#840000; stroke-width:0.1524; stroke-opacity:1; 
stroke-linecap:round; stroke-linejoin:round;fill:none"
d="M 29.0195,40.7416
31.0515,40.7416
" /> 
<rect x="31.305500" y="38.582600" width="1.270000" height="0.254000" rx="0.000000" />
<rect x="31.305500" y="36.042600" width="1.270000" height="0.254000" rx="0.000000" />
<rect x="31.305500" y="33.502600" width="1.270000" height="0.254000" rx="0.000000" />
<rect x="31.305500" y="30.962600" width="1.270000" height="0.254000" rx="0.000000" />
<rect x="31.305500" y="28.422600" width="1.270000" height="0.254000" rx="0.000000" />
<rect x="31.305500" y="25.882600" width="1.270000" height="0.254000" rx="0.000000" />
<rect x="31.305500" y="23.342600" width="1.270000" height="0.254000" rx="0.000000" />
<rect x="31.305500" y="20.802600" width="1.270000" height="0.254000" rx="0.000000" />
<rect x="31.305500" y="18.262600" width="1.270000" height="0.254000" rx="0.000000" />
<rect x="31.305500" y="15.722600" width="1.270000" height="0.254000" rx="0.000000" />
<rect x="31.305500" y="13.182600" width="1.270000" height="0.254000" rx="0.000000" />
<rect x="31.305500" y="10.642600" width="1.270000" height="0.254000" rx="0.000000" />
<rect x="31.305500" y="8.102600" width="1.270000" height="0.254000" rx="0.000000" />
</g>
<g style="fill:#840000; fill-opacity:0.0; 
stroke:#840000; stroke-width:0.0476; stroke-opacity:1; 
stroke-linecap:round; stroke-linejoin:round;">
<text x="30.0355" y="40.5511"
textLength="2.6246" font-size="0.5080" lengthAdjust="spacingAndGlyphs"
text-anchor="middle" opacity="0">Mounting</text>
<g class="stroked-text"><desc>Mounting</desc>
<path d="M28.8472 40.5344
L28.8472 40.1534
" />
<path d="M28.8472 40.1534
L28.9742 40.4255
" />
<path d="M28.9742 40.4255
L29.1012 40.1534
" />
<path d="M29.1012 40.1534
L29.1012 40.5344
" />
<path d="M29.3370 40.5344
L29.3007 40.5163
" />
<path d="M29.3007 40.5163
L29.2826 40.4981
" />
<path d="M29.2826 40.4981
L29.2644 40.4618
" />
<path d="M29.2644 40.4618
L29.2644 40.3530
" />
<path d="M29.2644 40.3530
L29.2826 40.3167
" />
<path d="M29.2826 40.3167
L29.3007 40.2985
" />
<path d="M29.3007 40.2985
L29.3370 40.2804
" />
<path d="M29.3370 40.2804
L29.3914 40.2804
" />
<path d="M29.3914 40.2804
L29.4277 40.2985
" />
<path d="M29.4277 40.2985
L29.4459 40.3167
" />
<path d="M29.4459 40.3167
L29.4640 40.3530
" />
<path d="M29.4640 40.3530
L29.4640 40.4618
" />
<path d="M29.4640 40.4618
L29.4459 40.4981
" />
<path d="M29.4459 40.4981
L29.4277 40.5163
" />
<path d="M29.4277 40.5163
L29.3914 40.5344
" />
<path d="M29.3914 40.5344
L29.3370 40.5344
" />
<path d="M29.7906 40.2804
L29.7906 40.5344
" />
<path d="M29.6273 40.2804
L29.6273 40.4800
" />
<path d="M29.6273 40.4800
L29.6454 40.5163
" />
<path d="M29.6454 40.5163
L29.6817 40.5344
" />
<path d="M29.6817 40.5344
L29.7361 40.5344
" />
<path d="M29.7361 40.5344
L29.7724 40.5163
" />
<path d="M29.7724 40.5163
L29.7906 40.4981
" />
<path d="M29.9720 40.2804
L29.9720 40.5344
" />
<path d="M29.9720 40.3167
L29.9901 40.2985
" />
<path d="M29.9901 40.2985
L30.0264 40.2804
" />
<path d="M30.0264 40.2804
L30.0808 40.2804
" />
<path d="M30.0808 40.2804
L30.1171 40.2985
" />
<path d="M30.1171 40.2985
L30.1353 40.3348
" />
<path d="M30.1353 40.3348
L30.1353 40.5344
" />
<path d="M30.2622 40.2804
L30.4074 40.2804
" />
<path d="M30.3167 40.1534
L30.3167 40.4800
" />
<path d="M30.3167 40.4800
L30.3348 40.5163
" />
<path d="M30.3348 40.5163
L30.3711 40.5344
" />
<path d="M30.3711 40.5344
L30.4074 40.5344
" />
<path d="M30.5344 40.5344
L30.5344 40.2804
" />
<path d="M30.5344 40.1534
L30.5162 40.1715
" />
<path d="M30.5162 40.1715
L30.5344 40.1897
" />
<path d="M30.5344 40.1897
L30.5525 40.1715
" />
<path d="M30.5525 40.1715
L30.5344 40.1534
" />
<path d="M30.5344 40.1534
L30.5344 40.1897
" />
<path d="M30.7158 40.2804
L30.7158 40.5344
" />
<path d="M30.7158 40.3167
L30.7339 40.2985
" />
<path d="M30.7339 40.2985
L30.7702 40.2804
" />
<path d="M30.7702 40.2804
L30.8246 40.2804
" />
<path d="M30.8246 40.2804
L30.8609 40.2985
" />
<path d="M30.8609 40.2985
L30.8791 40.3348
" />
<path d="M30.8791 40.3348
L30.8791 40.5344
" />
<path d="M31.2238 40.2804
L31.2238 40.5888
" />
<path d="M31.2238 40.5888
L31.2056 40.6251
" />
<path d="M31.2056 40.6251
L31.1875 40.6433
" />
<path d="M31.1875 40.6433
L31.1512 40.6614
" />
<path d="M31.1512 40.6614
L31.0968 40.6614
" />
<path d="M31.0968 40.6614
L31.0605 40.6433
" />
<path d="M31.2238 40.5163
L31.1875 40.5344
" />
<path d="M31.1875 40.5344
L31.1149 40.5344
" />
<path d="M31.1149 40.5344
L31.0786 40.5163
" />
<path d="M31.0786 40.5163
L31.0605 40.4981
" />
<path d="M31.0605 40.4981
L31.0423 40.4618
" />
<path d="M31.0423 40.4618
L31.0423 40.3530
" />
<path d="M31.0423 40.3530
L31.0605 40.3167
" />
<path d="M31.0605 40.3167
L31.0786 40.2985
" />
<path d="M31.0786 40.2985
L31.1149 40.2804
" />
<path d="M31.1149 40.2804
L31.1875 40.2804
" />
<path d="M31.1875 40.2804
L31.2238 40.2985
" />
</g></g>
<g style="fill:#840000; fill-opacity:0.0; 
stroke:#840000; stroke-width:0.1524; stroke-opacity:1; 
stroke-linecap:round; stroke-linejoin:round;">
<path d="M27.4955 31.0896
L23.6855 31.0896
" />
</g>
<g style="fill:#A90000; fill-opacity:0.0; 
stroke:#A90000; stroke-width:0.1524; stroke-opacity:1; 
stroke-linecap:round; stroke-linejoin:round;">
<text x="25.5905" y="30.8356"
textLength="3.7712" font-size="1.6933" lengthAdjust="spacingAndGlyphs"
text-anchor="middle" opacity="0">10a</text>
<g class="stroked-text"><desc>10a</desc>
<path d="M24.7741 30.6721
L24.0484 30.6721
" />
<path d="M24.4112 30.6721
L24.4112 29.4021
" />
<path d="M24.4112 29.4021
L24.2903 29.5836
" />
<path d="M24.2903 29.5836
L24.1693 29.7045
" />
<path d="M24.1693 29.7045
L24.0484 29.7650
" />
<path d="M25.5602 29.4021
L25.6812 29.4021
" />
<path d="M25.6812 29.4021
L25.8021 29.4626
" />
<path d="M25.8021 29.4626
L25.8626 29.5231
" />
<path d="M25.8626 29.5231
L25.9231 29.6440
" />
<path d="M25.9231 29.6440
L25.9836 29.8859
" />
<path d="M25.9836 29.8859
L25.9836 30.1883
" />
<path d="M25.9836 30.1883
L25.9231 30.4302
" />
<path d="M25.9231 30.4302
L25.8626 30.5512
" />
<path d="M25.8626 30.5512
L25.8021 30.6117
" />
<path d="M25.8021 30.6117
L25.6812 30.6721
" />
<path d="M25.6812 30.6721
L25.5602 30.6721
" />
<path d="M25.5602 30.6721
L25.4393 30.6117
" />
<path d="M25.4393 30.6117
L25.3788 30.5512
" />
<path d="M25.3788 30.5512
L25.3183 30.4302
" />
<path d="M25.3183 30.4302
L25.2579 30.1883
" />
<path d="M25.2579 30.1883
L25.2579 29.8859
" />
<path d="M25.2579 29.8859
L25.3183 29.6440
" />
<path d="M25.3183 29.6440
L25.3788 29.5231
" />
<path d="M25.3788 29.5231
L25.4393 29.4626
" />
<path d="M25.4393 29.4626
L25.5602 29.4021
" />
<path d="M27.0721 30.6721
L27.0721 30.0069
" />
<path d="M27.0721 30.0069
L27.0116 29.8859
" />
<path d="M27.0116 29.8859
L26.8907 29.8255
" />
<path d="M26.8907 29.8255
L26.6488 29.8255
" />
<path d="M26.6488 29.8255
L26.5278 29.8859
" />
<path d="M27.0721 30.6117
L26.9512 30.6721
" />
<path d="M26.9512 30.6721
L26.6488 30.6721
" />
<path d="M26.6488 30.6721
L26.5278 30.6117
" />
<path d="M26.5278 30.6117
L26.4674 30.4907
" />
<path d="M26.4674 30.4907
L26.4674 30.3697
" />
<path d="M26.4674 30.3697
L26.5278 30.2488
" />
<path d="M26.5278 30.2488
L26.6488 30.1883
" />
<path d="M26.6488 30.1883
L26.9512 30.1883
" />
<path d="M26.9512 30.1883
L27.0721 30.1278
" />
</g></g>
<g style="fill:#840000; fill-opacity:0.0; 
stroke:#840000; stroke-width:0.1524; stroke-opacity:1; 
stroke-linecap:round; stroke-linejoin:round;">
<path d="M32.5755 31.0896
L36.3855 31.0896
" />
</g>
<g style="fill:#A90000; fill-opacity:0.0; 
stroke:#A90000; stroke-width:0.1524; stroke-opacity:1; 
stroke-linecap:round; stroke-linejoin:round;">
<text x="34.4805" y="30.8356"
textLength="3.7712" font-size="1.6933" lengthAdjust="spacingAndGlyphs"
text-anchor="middle" opacity="0">10b</text>
<g class="stroked-text"><desc>10b</desc>
<path d="M33.6641 30.6721
L32.9384 30.6721
" />
<path d="M33.3012 30.6721
L33.3012 29.4021
" />
<path d="M33.3012 29.4021
L33.1803 29.5836
" />
<path d="M33.1803 29.5836
L33.0593 29.7045
" />
<path d="M33.0593 29.7045
L32.9384 29.7650
" />
<path d="M34.4502 29.4021
L34.5712 29.4021
" />
<path d="M34.5712 29.4021
L34.6921 29.4626
" />
<path d="M34.6921 29.4626
L34.7526 29.5231
" />
<path d="M34.7526 29.5231
L34.8131 29.6440
" />
<path d="M34.8131 29.6440
L34.8736 29.8859
" />
<path d="M34.8736 29.8859
L34.8736 30.1883
" />
<path d="M34.8736 30.1883
L34.8131 30.4302
" />
<path d="M34.8131 30.4302
L34.7526 30.5512
" />
<path d="M34.7526 30.5512
L34.6921 30.6117
" />
<path d="M34.6921 30.6117
L34.5712 30.6721
" />
<path d="M34.5712 30.6721
L34.4502 30.6721
" />
<path d="M34.4502 30.6721
L34.3293 30.6117
" />
<path d="M34.3293 30.6117
L34.2688 30.5512
" />
<path d="M34.2688 30.5512
L34.2083 30.4302
" />
<path d="M34.2083 30.4302
L34.1479 30.1883
" />
<path d="M34.1479 30.1883
L34.1479 29.8859
" />
<path d="M34.1479 29.8859
L34.2083 29.6440
" />
<path d="M34.2083 29.6440
L34.2688 29.5231
" />
<path d="M34.2688 29.5231
L34.3293 29.4626
" />
<path d="M34.3293 29.4626
L34.4502 29.4021
" />
<path d="M35.4178 30.6721
L35.4178 29.4021
" />
<path d="M35.4178 29.8859
L35.5388 29.8255
" />
<path d="M35.5388 29.8255
L35.7807 29.8255
" />
<path d="M35.7807 29.8255
L35.9016 29.8859
" />
<path d="M35.9016 29.8859
L35.9621 29.9464
" />
<path d="M35.9621 29.9464
L36.0226 30.0674
" />
<path d="M36.0226 30.0674
L36.0226 30.4302
" />
<path d="M36.0226 30.4302
L35.9621 30.5512
" />
<path d="M35.9621 30.5512
L35.9016 30.6117
" />
<path d="M35.9016 30.6117
L35.7807 30.6721
" />
<path d="M35.7807 30.6721
L35.5388 30.6721
" />
<path d="M35.5388 30.6721
L35.4178 30.6117
" />
</g></g>
<g style="fill:#840000; fill-opacity:0.0; 
stroke:#840000; stroke-width:0.1524; stroke-opacity:1; 
stroke-linecap:round; stroke-linejoin:round;">
<path d="M27.4955 33.6296
L23.6855 33.6296
" />
</g>
<g style="fill:#A90000; fill-opacity:0.0; 
stroke:#A90000; stroke-width:0.1524; stroke-opacity:1; 
stroke-linecap:round; stroke-linejoin:round;">
<text x="25.5905" y="33.3756"
textLength="3.7712" font-size="1.6933" lengthAdjust="spacingAndGlyphs"
text-anchor="middle" opacity="0">11a</text>
<g class="stroked-text"><desc>11a</desc>
<path d="M24.7741 33.2121
L24.0484 33.2121
" />
<path d="M24.4112 33.2121
L24.4112 31.9421
" />
<path d="M24.4112 31.9421
L24.2903 32.1236
" />
<path d="M24.2903 32.1236
L24.1693 32.2445
" />
<path d="M24.1693 32.2445
L24.0484 32.3050
" />
<path d="M25.9836 33.2121
L25.2579 33.2121
" />
<path d="M25.6207 33.2121
L25.6207 31.9421
" />
<path d="M25.6207 31.9421
L25.4998 32.1236
" />
<path d="M25.4998 32.1236
L25.3788 32.2445
" />
<path d="M25.3788 32.2445
L25.2579 32.3050
" />
<path d="M27.0721 33.2121
L27.0721 32.5469
" />
<path d="M27.0721 32.5469
L27.0116 32.4259
" />
<path d="M27.0116 32.4259
L26.8907 32.3655
" />
<path d="M26.8907 32.3655
L26.6488 32.3655
" />
<path d="M26.6488 32.3655
L26.5278 32.4259
" />
<path d="M27.0721 33.1517
L26.9512 33.2121
" />
<path d="M26.9512 33.2121
L26.6488 33.2121
" />
<path d="M26.6488 33.2121
L26.5278 33.1517
" />
<path d="M26.5278 33.1517
L26.4674 33.0307
" />
<path d="M26.4674 33.0307
L26.4674 32.9097
" />
<path d="M26.4674 32.9097
L26.5278 32.7888
" />
<path d="M26.5278 32.7888
L26.6488 32.7283
" />
<path d="M26.6488 32.7283
L26.9512 32.7283
" />
<path d="M26.9512 32.7283
L27.0721 32.6678
" />
</g></g>
<g style="fill:#840000; fill-opacity:0.0; 
stroke:#840000; stroke-width:0.1524; stroke-opacity:1; 
stroke-linecap:round; stroke-linejoin:round;">
<path d="M32.5755 33.6296
L36.3855 33.6296
" />
</g>
<g style="fill:#A90000; fill-opacity:0.0; 
stroke:#A90000; stroke-width:0.1524; stroke-opacity:1; 
stroke-linecap:round; stroke-linejoin:round;">
<text x="34.4805" y="33.3756"
textLength="3.7712" font-size="1.6933" lengthAdjust="spacingAndGlyphs"
text-anchor="middle" opacity="0">11b</text>
<g class="stroked-text"><desc>11b</desc>
<path d="M33.6641 33.2121
L32.9384 33.2121
" />
<path d="M33.3012 33.2121
L33.3012 31.9421
" />
<path d="M33.3012 31.9421
L33.1803 32.1236
" />
<path d="M33.1803 32.1236
L33.0593 32.2445
" />
<path d="M33.0593 32.2445
L32.9384 32.3050
" />
<path d="M34.8736 33.2121
L34.1479 33.2121
" />
<path d="M34.5107 33.2121
L34.5107 31.9421
" />
<path d="M34.5107 31.9421
L34.3898 32.1236
" />
<path d="M34.3898 32.1236
L34.2688 32.2445
" />
<path d="M34.2688 32.2445
L34.1479 32.3050
" />
<path d="M35.4178 33.2121
L35.4178 31.9421
" />
<path d="M35.4178 32.4259
L35.5388 32.3655
" />
<path d="M35.5388 32.3655
L35.7807 32.3655
" />
<path d="M35.7807 32.3655
L35.9016 32.4259
" />
<path d="M35.9016 32.4259
L35.9621 32.4864
" />
<path d="M35.9621 32.4864
L36.0226 32.6074
" />
<path d="M36.0226 32.6074
L36.0226 32.9702
" />
<path d="M36.0226 32.9702
L35.9621 33.0912
" />
<path d="M35.9621 33.0912
L35.9016 33.1517
" />
<path d="M35.9016 33.1517
L35.7807 33.2121
" />
<path d="M35.7807 33.2121
L35.5388 33.2121
" />
<path d="M35.5388 33.2121
L35.4178 33.1517
" />
</g></g>
<g style="fill:#840000; fill-opacity:0.0; 
stroke:#840000; stroke-width:0.1524; stroke-opacity:1; 
stroke-linecap:round; stroke-linejoin:round;">
<path d="M27.4955 36.1696
L23.6855 36.1696
" />
</g>
<g style="fill:#A90000; fill-opacity:0.0; 
stroke:#A90000; stroke-width:0.1524; stroke-opacity:1; 
stroke-linecap:round; stroke-linejoin:round;">
<text x="25.5905" y="35.9156"
textLength="3.7712" font-size="1.6933" lengthAdjust="spacingAndGlyphs"
text-anchor="middle" opacity="0">12a</text>
<g class="stroked-text"><desc>12a</desc>
<path d="M24.7741 35.7521
L24.0484 35.7521
" />
<path d="M24.4112 35.7521
L24.4112 34.4821
" />
<path d="M24.4112 34.4821
L24.2903 34.6636
" />
<path d="M24.2903 34.6636
L24.1693 34.7845
" />
<path d="M24.1693 34.7845
L24.0484 34.8450
" />
<path d="M25.2579 34.6031
L25.3183 34.5426
" />
<path d="M25.3183 34.5426
L25.4393 34.4821
" />
<path d="M25.4393 34.4821
L25.7417 34.4821
" />
<path d="M25.7417 34.4821
L25.8626 34.5426
" />
<path d="M25.8626 34.5426
L25.9231 34.6031
" />
<path d="M25.9231 34.6031
L25.9836 34.7240
" />
<path d="M25.9836 34.7240
L25.9836 34.8450
" />
<path d="M25.9836 34.8450
L25.9231 35.0264
" />
<path d="M25.9231 35.0264
L25.1974 35.7521
" />
<path d="M25.1974 35.7521
L25.9836 35.7521
" />
<path d="M27.0721 35.7521
L27.0721 35.0869
" />
<path d="M27.0721 35.0869
L27.0116 34.9659
" />
<path d="M27.0116 34.9659
L26.8907 34.9055
" />
<path d="M26.8907 34.9055
L26.6488 34.9055
" />
<path d="M26.6488 34.9055
L26.5278 34.9659
" />
<path d="M27.0721 35.6917
L26.9512 35.7521
" />
<path d="M26.9512 35.7521
L26.6488 35.7521
" />
<path d="M26.6488 35.7521
L26.5278 35.6917
" />
<path d="M26.5278 35.6917
L26.4674 35.5707
" />
<path d="M26.4674 35.5707
L26.4674 35.4497
" />
<path d="M26.4674 35.4497
L26.5278 35.3288
" />
<path d="M26.5278 35.3288
L26.6488 35.2683
" />
<path d="M26.6488 35.2683
L26.9512 35.2683
" />
<path d="M26.9512 35.2683
L27.0721 35.2078
" />
</g></g>
<g style="fill:#840000; fill-opacity:0.0; 
stroke:#840000; stroke-width:0.1524; stroke-opacity:1; 
stroke-linecap:round; stroke-linejoin:round;">
<path d="M32.5755 36.1696
L36.3855 36.1696
" />
</g>
<g style="fill:#A90000; fill-opacity:0.0; 
stroke:#A90000; stroke-width:0.1524; stroke-opacity:1; 
stroke-linecap:round; stroke-linejoin:round;">
<text x="34.4805" y="35.9156"
textLength="3.7712" font-size="1.6933" lengthAdjust="spacingAndGlyphs"
text-anchor="middle" opacity="0">12b</text>
<g class="stroked-text"><desc>12b</desc>
<path d="M33.6641 35.7521
L32.9384 35.7521
" />
<path d="M33.3012 35.7521
L33.3012 34.4821
" />
<path d="M33.3012 34.4821
L33.1803 34.6636
" />
<path d="M33.1803 34.6636
L33.0593 34.7845
" />
<path d="M33.0593 34.7845
L32.9384 34.8450
" />
<path d="M34.1479 34.6031
L34.2083 34.5426
" />
<path d="M34.2083 34.5426
L34.3293 34.4821
" />
<path d="M34.3293 34.4821
L34.6317 34.4821
" />
<path d="M34.6317 34.4821
L34.7526 34.5426
" />
<path d="M34.7526 34.5426
L34.8131 34.6031
" />
<path d="M34.8131 34.6031
L34.8736 34.7240
" />
<path d="M34.8736 34.7240
L34.8736 34.8450
" />
<path d="M34.8736 34.8450
L34.8131 35.0264
" />
<path d="M34.8131 35.0264
L34.0874 35.7521
" />
<path d="M34.0874 35.7521
L34.8736 35.7521
" />
<path d="M35.4178 35.7521
L35.4178 34.4821
" />
<path d="M35.4178 34.9659
L35.5388 34.9055
" />
<path d="M35.5388 34.9055
L35.7807 34.9055
" />
<path d="M35.7807 34.9055
L35.9016 34.9659
" />
<path d="M35.9016 34.9659
L35.9621 35.0264
" />
<path d="M35.9621 35.0264
L36.0226 35.1474
" />
<path d="M36.0226 35.1474
L36.0226 35.5102
" />
<path d="M36.0226 35.5102
L35.9621 35.6312
" />
<path d="M35.9621 35.6312
L35.9016 35.6917
" />
<path d="M35.9016 35.6917
L35.7807 35.7521
" />
<path d="M35.7807 35.7521
L35.5388 35.7521
" />
<path d="M35.5388 35.7521
L35.4178 35.6917
" />
</g></g>
<g style="fill:#840000; fill-opacity:0.0; 
stroke:#840000; stroke-width:0.1524; stroke-opacity:1; 
stroke-linecap:round; stroke-linejoin:round;">
<path d="M27.4955 38.7096
L23.6855 38.7096
" />
</g>
<g style="fill:#A90000; fill-opacity:0.0; 
stroke:#A90000; stroke-width:0.1524; stroke-opacity:1; 
stroke-linecap:round; stroke-linejoin:round;">
<text x="25.5905" y="38.4556"
textLength="3.7712" font-size="1.6933" lengthAdjust="spacingAndGlyphs"
text-anchor="middle" opacity="0">13a</text>
<g class="stroked-text"><desc>13a</desc>
<path d="M24.7741 38.2921
L24.0484 38.2921
" />
<path d="M24.4112 38.2921
L24.4112 37.0221
" />
<path d="M24.4112 37.0221
L24.2903 37.2036
" />
<path d="M24.2903 37.2036
L24.1693 37.3245
" />
<path d="M24.1693 37.3245
L24.0484 37.3850
" />
<path d="M25.1974 37.0221
L25.9836 37.0221
" />
<path d="M25.9836 37.0221
L25.5602 37.5059
" />
<path d="M25.5602 37.5059
L25.7417 37.5059
" />
<path d="M25.7417 37.5059
L25.8626 37.5664
" />
<path d="M25.8626 37.5664
L25.9231 37.6269
" />
<path d="M25.9231 37.6269
L25.9836 37.7478
" />
<path d="M25.9836 37.7478
L25.9836 38.0502
" />
<path d="M25.9836 38.0502
L25.9231 38.1712
" />
<path d="M25.9231 38.1712
L25.8626 38.2317
" />
<path d="M25.8626 38.2317
L25.7417 38.2921
" />
<path d="M25.7417 38.2921
L25.3788 38.2921
" />
<path d="M25.3788 38.2921
L25.2579 38.2317
" />
<path d="M25.2579 38.2317
L25.1974 38.1712
" />
<path d="M27.0721 38.2921
L27.0721 37.6269
" />
<path d="M27.0721 37.6269
L27.0116 37.5059
" />
<path d="M27.0116 37.5059
L26.8907 37.4455
" />
<path d="M26.8907 37.4455
L26.6488 37.4455
" />
<path d="M26.6488 37.4455
L26.5278 37.5059
" />
<path d="M27.0721 38.2317
L26.9512 38.2921
" />
<path d="M26.9512 38.2921
L26.6488 38.2921
" />
<path d="M26.6488 38.2921
L26.5278 38.2317
" />
<path d="M26.5278 38.2317
L26.4674 38.1107
" />
<path d="M26.4674 38.1107
L26.4674 37.9897
" />
<path d="M26.4674 37.9897
L26.5278 37.8688
" />
<path d="M26.5278 37.8688
L26.6488 37.8083
" />
<path d="M26.6488 37.8083
L26.9512 37.8083
" />
<path d="M26.9512 37.8083
L27.0721 37.7478
" />
</g></g>
<g style="fill:#840000; fill-opacity:0.0; 
stroke:#840000; stroke-width:0.1524; stroke-opacity:1; 
stroke-linecap:round; stroke-linejoin:round;">
<path d="M32.5755 38.7096
L36.3855 38.7096
" />
</g>
<g style="fill:#A90000; fill-opacity:0.0; 
stroke:#A90000; stroke-width:0.1524; stroke-opacity:1; 
stroke-linecap:round; stroke-linejoin:round;">
<text x="34.4805" y="38.4556"
textLength="3.7712" font-size="1.6933" lengthAdjust="spacingAndGlyphs"
text-anchor="middle" opacity="0">13b</text>
<g class="stroked-text"><desc>13b</desc>
<path d="M33.6641 38.2921
L32.9384 38.2921
" />
<path d="M33.3012 38.2921
L33.3012 37.0221
" />
<path d="M33.3012 37.0221
L33.1803 37.2036
" />
<path d="M33.1803 37.2036
L33.0593 37.3245
" />
<path d="M33.0593 37.3245
L32.9384 37.3850
" />
<path d="M34.0874 37.0221
L34.8736 37.0221
" />
<path d="M34.8736 37.0221
L34.4502 37.5059
" />
<path d="M34.4502 37.5059
L34.6317 37.5059
" />
<path d="M34.6317 37.5059
L34.7526 37.5664
" />
<path d="M34.7526 37.5664
L34.8131 37.6269
" />
<path d="M34.8131 37.6269
L34.8736 37.7478
" />
<path d="M34.8736 37.7478
L34.8736 38.0502
" />
<path d="M34.8736 38.0502
L34.8131 38.1712
" />
<path d="M34.8131 38.1712
L34.7526 38.2317
" />
<path d="M34.7526 38.2317
L34.6317 38.2921
" />
<path d="M34.6317 38.2921
L34.2688 38.2921
" />
<path d="M34.2688 38.2921
L34.1479 38.2317
" />
<path d="M34.1479 38.2317
L34.0874 38.1712
" />
<path d="M35.4178 38.2921
L35.4178 37.0221
" />
<path d="M35.4178 37.5059
L35.5388 37.4455
" />
<path d="M35.5388 37.4455
L35.7807 37.4455
" />
<path d="M35.7807 37.4455
L35.9016 37.5059
" />
<path d="M35.9016 37.5059
L35.9621 37.5664
" />
<path d="M35.9621 37.5664
L36.0226 37.6874
" />
<path d="M36.0226 37.6874
L36.0226 38.0502
" />
<path d="M36.0226 38.0502
L35.9621 38.1712
" />
<path d="M35.9621 38.1712
L35.9016 38.2317
" />
<path d="M35.9016 38.2317
L35.7807 38.2921
" />
<path d="M35.7807 38.2921
L35.5388 38.2921
" />
<path d="M35.5388 38.2921
L35.4178 38.2317
" />
</g></g>
<g style="fill:#840000; fill-opacity:0.0; 
stroke:#840000; stroke-width:0.1524; stroke-opacity:1; 
stroke-linecap:round; stroke-linejoin:round;">
<path d="M27.4955 8.2296
L23.6855 8.2296
" />
</g>
<g style="fill:#A90000; fill-opacity:0.0; 
stroke:#A90000; stroke-width:0.1524; stroke-opacity:1; 
stroke-linecap:round; stroke-linejoin:round;">
<text x="25.5905" y="7.9756"
textLength="2.5617" font-size="1.6933" lengthAdjust="spacingAndGlyphs"
text-anchor="middle" opacity="0">1a</text>
<g class="stroked-text"><desc>1a</desc>
<path d="M25.3789 7.8121
L24.6532 7.8121
" />
<path d="M25.0160 7.8121
L25.0160 6.5421
" />
<path d="M25.0160 6.5421
L24.8951 6.7236
" />
<path d="M24.8951 6.7236
L24.7741 6.8445
" />
<path d="M24.7741 6.8445
L24.6532 6.9050
" />
<path d="M26.4674 7.8121
L26.4674 7.1469
" />
<path d="M26.4674 7.1469
L26.4069 7.0259
" />
<path d="M26.4069 7.0259
L26.2860 6.9655
" />
<path d="M26.2860 6.9655
L26.0441 6.9655
" />
<path d="M26.0441 6.9655
L25.9231 7.0259
" />
<path d="M26.4674 7.7517
L26.3465 7.8121
" />
<path d="M26.3465 7.8121
L26.0441 7.8121
" />
<path d="M26.0441 7.8121
L25.9231 7.7517
" />
<path d="M25.9231 7.7517
L25.8627 7.6307
" />
<path d="M25.8627 7.6307
L25.8627 7.5097
" />
<path d="M25.8627 7.5097
L25.9231 7.3888
" />
<path d="M25.9231 7.3888
L26.0441 7.3283
" />
<path d="M26.0441 7.3283
L26.3465 7.3283
" />
<path d="M26.3465 7.3283
L26.4674 7.2678
" />
</g></g>
<g style="fill:#840000; fill-opacity:0.0; 
stroke:#840000; stroke-width:0.1524; stroke-opacity:1; 
stroke-linecap:round; stroke-linejoin:round;">
<path d="M32.5755 8.2296
L36.3855 8.2296
" />
</g>
<g style="fill:#A90000; fill-opacity:0.0; 
stroke:#A90000; stroke-width:0.1524; stroke-opacity:1; 
stroke-linecap:round; stroke-linejoin:round;">
<text x="34.4805" y="7.9756"
textLength="2.5617" font-size="1.6933" lengthAdjust="spacingAndGlyphs"
text-anchor="middle" opacity="0">1b</text>
<g class="stroked-text"><desc>1b</desc>
<path d="M34.2689 7.8121
L33.5432 7.8121
" />
<path d="M33.9060 7.8121
L33.9060 6.5421
" />
<path d="M33.9060 6.5421
L33.7851 6.7236
" />
<path d="M33.7851 6.7236
L33.6641 6.8445
" />
<path d="M33.6641 6.8445
L33.5432 6.9050
" />
<path d="M34.8131 7.8121
L34.8131 6.5421
" />
<path d="M34.8131 7.0259
L34.9341 6.9655
" />
<path d="M34.9341 6.9655
L35.1760 6.9655
" />
<path d="M35.1760 6.9655
L35.2969 7.0259
" />
<path d="M35.2969 7.0259
L35.3574 7.0864
" />
<path d="M35.3574 7.0864
L35.4179 7.2074
" />
<path d="M35.4179 7.2074
L35.4179 7.5702
" />
<path d="M35.4179 7.5702
L35.3574 7.6912
" />
<path d="M35.3574 7.6912
L35.2969 7.7517
" />
<path d="M35.2969 7.7517
L35.1760 7.8121
" />
<path d="M35.1760 7.8121
L34.9341 7.8121
" />
<path d="M34.9341 7.8121
L34.8131 7.7517
" />
</g></g>
<g style="fill:#840000; fill-opacity:0.0; 
stroke:#840000; stroke-width:0.1524; stroke-opacity:1; 
stroke-linecap:round; stroke-linejoin:round;">
<path d="M27.4955 10.7696
L23.6855 10.7696
" />
</g>
<g style="fill:#A90000; fill-opacity:0.0; 
stroke:#A90000; stroke-width:0.1524; stroke-opacity:1; 
stroke-linecap:round; stroke-linejoin:round;">
<text x="25.5905" y="10.5156"
textLength="2.5617" font-size="1.6933" lengthAdjust="spacingAndGlyphs"
text-anchor="middle" opacity="0">2a</text>
<g class="stroked-text"><desc>2a</desc>
<path d="M24.6532 9.2031
L24.7136 9.1426
" />
<path d="M24.7136 9.1426
L24.8346 9.0821
" />
<path d="M24.8346 9.0821
L25.1370 9.0821
" />
<path d="M25.1370 9.0821
L25.2579 9.1426
" />
<path d="M25.2579 9.1426
L25.3184 9.2031
" />
<path d="M25.3184 9.2031
L25.3789 9.3240
" />
<path d="M25.3789 9.3240
L25.3789 9.4450
" />
<path d="M25.3789 9.4450
L25.3184 9.6264
" />
<path d="M25.3184 9.6264
L24.5927 10.3521
" />
<path d="M24.5927 10.3521
L25.3789 10.3521
" />
<path d="M26.4674 10.3521
L26.4674 9.6869
" />
<path d="M26.4674 9.6869
L26.4069 9.5659
" />
<path d="M26.4069 9.5659
L26.2860 9.5055
" />
<path d="M26.2860 9.5055
L26.0441 9.5055
" />
<path d="M26.0441 9.5055
L25.9231 9.5659
" />
<path d="M26.4674 10.2917
L26.3465 10.3521
" />
<path d="M26.3465 10.3521
L26.0441 10.3521
" />
<path d="M26.0441 10.3521
L25.9231 10.2917
" />
<path d="M25.9231 10.2917
L25.8627 10.1707
" />
<path d="M25.8627 10.1707
L25.8627 10.0497
" />
<path d="M25.8627 10.0497
L25.9231 9.9288
" />
<path d="M25.9231 9.9288
L26.0441 9.8683
" />
<path d="M26.0441 9.8683
L26.3465 9.8683
" />
<path d="M26.3465 9.8683
L26.4674 9.8078
" />
</g></g>
<g style="fill:#840000; fill-opacity:0.0; 
stroke:#840000; stroke-width:0.1524; stroke-opacity:1; 
stroke-linecap:round; stroke-linejoin:round;">
<path d="M32.5755 10.7696
L36.3855 10.7696
" />
</g>
<g style="fill:#A90000; fill-opacity:0.0; 
stroke:#A90000; stroke-width:0.1524; stroke-opacity:1; 
stroke-linecap:round; stroke-linejoin:round;">
<text x="34.4805" y="10.5156"
textLength="2.5617" font-size="1.6933" lengthAdjust="spacingAndGlyphs"
text-anchor="middle" opacity="0">2b</text>
<g class="stroked-text"><desc>2b</desc>
<path d="M33.5432 9.2031
L33.6036 9.1426
" />
<path d="M33.6036 9.1426
L33.7246 9.0821
" />
<path d="M33.7246 9.0821
L34.0270 9.0821
" />
<path d="M34.0270 9.0821
L34.1479 9.1426
" />
<path d="M34.1479 9.1426
L34.2084 9.2031
" />
<path d="M34.2084 9.2031
L34.2689 9.3240
" />
<path d="M34.2689 9.3240
L34.2689 9.4450
" />
<path d="M34.2689 9.4450
L34.2084 9.6264
" />
<path d="M34.2084 9.6264
L33.4827 10.3521
" />
<path d="M33.4827 10.3521
L34.2689 10.3521
" />
<path d="M34.8131 10.3521
L34.8131 9.0821
" />
<path d="M34.8131 9.5659
L34.9341 9.5055
" />
<path d="M34.9341 9.5055
L35.1760 9.5055
" />
<path d="M35.1760 9.5055
L35.2969 9.5659
" />
<path d="M35.2969 9.5659
L35.3574 9.6264
" />
<path d="M35.3574 9.6264
L35.4179 9.7474
" />
<path d="M35.4179 9.7474
L35.4179 10.1102
" />
<path d="M35.4179 10.1102
L35.3574 10.2312
" />
<path d="M35.3574 10.2312
L35.2969 10.2917
" />
<path d="M35.2969 10.2917
L35.1760 10.3521
" />
<path d="M35.1760 10.3521
L34.9341 10.3521
" />
<path d="M34.9341 10.3521
L34.8131 10.2917
" />
</g></g>
<g style="fill:#840000; fill-opacity:0.0; 
stroke:#840000; stroke-width:0.1524; stroke-opacity:1; 
stroke-linecap:round; stroke-linejoin:round;">
<path d="M27.4955 13.3096
L23.6855 13.3096
" />
</g>
<g style="fill:#A90000; fill-opacity:0.0; 
stroke:#A90000; stroke-width:0.1524; stroke-opacity:1; 
stroke-linecap:round; stroke-linejoin:round;">
<text x="25.5905" y="13.0556"
textLength="2.5617" font-size="1.6933" lengthAdjust="spacingAndGlyphs"
text-anchor="middle" opacity="0">3a</text>
<g class="stroked-text"><desc>3a</desc>
<path d="M24.5927 11.6221
L25.3789 11.6221
" />
<path d="M25.3789 11.6221
L24.9555 12.1059
" />
<path d="M24.9555 12.1059
L25.1370 12.1059
" />
<path d="M25.1370 12.1059
L25.2579 12.1664
" />
<path d="M25.2579 12.1664
L25.3184 12.2269
" />
<path d="M25.3184 12.2269
L25.3789 12.3478
" />
<path d="M25.3789 12.3478
L25.3789 12.6502
" />
<path d="M25.3789 12.6502
L25.3184 12.7712
" />
<path d="M25.3184 12.7712
L25.2579 12.8317
" />
<path d="M25.2579 12.8317
L25.1370 12.8921
" />
<path d="M25.1370 12.8921
L24.7741 12.8921
" />
<path d="M24.7741 12.8921
L24.6532 12.8317
" />
<path d="M24.6532 12.8317
L24.5927 12.7712
" />
<path d="M26.4674 12.8921
L26.4674 12.2269
" />
<path d="M26.4674 12.2269
L26.4069 12.1059
" />
<path d="M26.4069 12.1059
L26.2860 12.0455
" />
<path d="M26.2860 12.0455
L26.0441 12.0455
" />
<path d="M26.0441 12.0455
L25.9231 12.1059
" />
<path d="M26.4674 12.8317
L26.3465 12.8921
" />
<path d="M26.3465 12.8921
L26.0441 12.8921
" />
<path d="M26.0441 12.8921
L25.9231 12.8317
" />
<path d="M25.9231 12.8317
L25.8627 12.7107
" />
<path d="M25.8627 12.7107
L25.8627 12.5897
" />
<path d="M25.8627 12.5897
L25.9231 12.4688
" />
<path d="M25.9231 12.4688
L26.0441 12.4083
" />
<path d="M26.0441 12.4083
L26.3465 12.4083
" />
<path d="M26.3465 12.4083
L26.4674 12.3478
" />
</g></g>
<g style="fill:#840000; fill-opacity:0.0; 
stroke:#840000; stroke-width:0.1524; stroke-opacity:1; 
stroke-linecap:round; stroke-linejoin:round;">
<path d="M32.5755 13.3096
L36.3855 13.3096
" />
</g>
<g style="fill:#A90000; fill-opacity:0.0; 
stroke:#A90000; stroke-width:0.1524; stroke-opacity:1; 
stroke-linecap:round; stroke-linejoin:round;">
<text x="34.4805" y="13.0556"
textLength="2.5617" font-size="1.6933" lengthAdjust="spacingAndGlyphs"
text-anchor="middle" opacity="0">3b</text>
<g class="stroked-text"><desc>3b</desc>
<path d="M33.4827 11.6221
L34.2689 11.6221
" />
<path d="M34.2689 11.6221
L33.8455 12.1059
" />
<path d="M33.8455 12.1059
L34.0270 12.1059
" />
<path d="M34.0270 12.1059
L34.1479 12.1664
" />
<path d="M34.1479 12.1664
L34.2084 12.2269
" />
<path d="M34.2084 12.2269
L34.2689 12.3478
" />
<path d="M34.2689 12.3478
L34.2689 12.6502
" />
<path d="M34.2689 12.6502
L34.2084 12.7712
" />
<path d="M34.2084 12.7712
L34.1479 12.8317
" />
<path d="M34.1479 12.8317
L34.0270 12.8921
" />
<path d="M34.0270 12.8921
L33.6641 12.8921
" />
<path d="M33.6641 12.8921
L33.5432 12.8317
" />
<path d="M33.5432 12.8317
L33.4827 12.7712
" />
<path d="M34.8131 12.8921
L34.8131 11.6221
" />
<path d="M34.8131 12.1059
L34.9341 12.0455
" />
<path d="M34.9341 12.0455
L35.1760 12.0455
" />
<path d="M35.1760 12.0455
L35.2969 12.1059
" />
<path d="M35.2969 12.1059
L35.3574 12.1664
" />
<path d="M35.3574 12.1664
L35.4179 12.2874
" />
<path d="M35.4179 12.2874
L35.4179 12.6502
" />
<path d="M35.4179 12.6502
L35.3574 12.7712
" />
<path d="M35.3574 12.7712
L35.2969 12.8317
" />
<path d="M35.2969 12.8317
L35.1760 12.8921
" />
<path d="M35.1760 12.8921
L34.9341 12.8921
" />
<path d="M34.9341 12.8921
L34.8131 12.8317
" />
</g></g>
<g style="fill:#840000; fill-opacity:0.0; 
stroke:#840000; stroke-width:0.1524; stroke-opacity:1; 
stroke-linecap:round; stroke-linejoin:round;">
<path d="M27.4955 15.8496
L23.6855 15.8496
" />
</g>
<g style="fill:#A90000; fill-opacity:0.0; 
stroke:#A90000; stroke-width:0.1524; stroke-opacity:1; 
stroke-linecap:round; stroke-linejoin:round;">
<text x="25.5905" y="15.5956"
textLength="2.5617" font-size="1.6933" lengthAdjust="spacingAndGlyphs"
text-anchor="middle" opacity="0">4a</text>
<g class="stroked-text"><desc>4a</desc>
<path d="M25.2579 14.5855
L25.2579 15.4321
" />
<path d="M24.9555 14.1017
L24.6532 15.0088
" />
<path d="M24.6532 15.0088
L25.4393 15.0088
" />
<path d="M26.4674 15.4321
L26.4674 14.7669
" />
<path d="M26.4674 14.7669
L26.4069 14.6459
" />
<path d="M26.4069 14.6459
L26.2860 14.5855
" />
<path d="M26.2860 14.5855
L26.0441 14.5855
" />
<path d="M26.0441 14.5855
L25.9231 14.6459
" />
<path d="M26.4674 15.3717
L26.3465 15.4321
" />
<path d="M26.3465 15.4321
L26.0441 15.4321
" />
<path d="M26.0441 15.4321
L25.9231 15.3717
" />
<path d="M25.9231 15.3717
L25.8627 15.2507
" />
<path d="M25.8627 15.2507
L25.8627 15.1297
" />
<path d="M25.8627 15.1297
L25.9231 15.0088
" />
<path d="M25.9231 15.0088
L26.0441 14.9483
" />
<path d="M26.0441 14.9483
L26.3465 14.9483
" />
<path d="M26.3465 14.9483
L26.4674 14.8878
" />
</g></g>
<g style="fill:#840000; fill-opacity:0.0; 
stroke:#840000; stroke-width:0.1524; stroke-opacity:1; 
stroke-linecap:round; stroke-linejoin:round;">
<path d="M32.5755 15.8496
L36.3855 15.8496
" />
</g>
<g style="fill:#A90000; fill-opacity:0.0; 
stroke:#A90000; stroke-width:0.1524; stroke-opacity:1; 
stroke-linecap:round; stroke-linejoin:round;">
<text x="34.4805" y="15.5956"
textLength="2.5617" font-size="1.6933" lengthAdjust="spacingAndGlyphs"
text-anchor="middle" opacity="0">4b</text>
<g class="stroked-text"><desc>4b</desc>
<path d="M34.1479 14.5855
L34.1479 15.4321
" />
<path d="M33.8455 14.1017
L33.5432 15.0088
" />
<path d="M33.5432 15.0088
L34.3293 15.0088
" />
<path d="M34.8131 15.4321
L34.8131 14.1621
" />
<path d="M34.8131 14.6459
L34.9341 14.5855
" />
<path d="M34.9341 14.5855
L35.1760 14.5855
" />
<path d="M35.1760 14.5855
L35.2969 14.6459
" />
<path d="M35.2969 14.6459
L35.3574 14.7064
" />
<path d="M35.3574 14.7064
L35.4179 14.8274
" />
<path d="M35.4179 14.8274
L35.4179 15.1902
" />
<path d="M35.4179 15.1902
L35.3574 15.3112
" />
<path d="M35.3574 15.3112
L35.2969 15.3717
" />
<path d="M35.2969 15.3717
L35.1760 15.4321
" />
<path d="M35.1760 15.4321
L34.9341 15.4321
" />
<path d="M34.9341 15.4321
L34.8131 15.3717
" />
</g></g>
<g style="fill:#840000; fill-opacity:0.0; 
stroke:#840000; stroke-width:0.1524; stroke-opacity:1; 
stroke-linecap:round; stroke-linejoin:round;">
<path d="M27.4955 18.3896
L23.6855 18.3896
" />
</g>
<g style="fill:#A90000; fill-opacity:0.0; 
stroke:#A90000; stroke-width:0.1524; stroke-opacity:1; 
stroke-linecap:round; stroke-linejoin:round;">
<text x="25.5905" y="18.1356"
textLength="2.5617" font-size="1.6933" lengthAdjust="spacingAndGlyphs"
text-anchor="middle" opacity="0">5a</text>
<g class="stroked-text"><desc>5a</desc>
<path d="M25.3184 16.7021
L24.7136 16.7021
" />
<path d="M24.7136 16.7021
L24.6532 17.3069
" />
<path d="M24.6532 17.3069
L24.7136 17.2464
" />
<path d="M24.7136 17.2464
L24.8346 17.1859
" />
<path d="M24.8346 17.1859
L25.1370 17.1859
" />
<path d="M25.1370 17.1859
L25.2579 17.2464
" />
<path d="M25.2579 17.2464
L25.3184 17.3069
" />
<path d="M25.3184 17.3069
L25.3789 17.4278
" />
<path d="M25.3789 17.4278
L25.3789 17.7302
" />
<path d="M25.3789 17.7302
L25.3184 17.8512
" />
<path d="M25.3184 17.8512
L25.2579 17.9117
" />
<path d="M25.2579 17.9117
L25.1370 17.9721
" />
<path d="M25.1370 17.9721
L24.8346 17.9721
" />
<path d="M24.8346 17.9721
L24.7136 17.9117
" />
<path d="M24.7136 17.9117
L24.6532 17.8512
" />
<path d="M26.4674 17.9721
L26.4674 17.3069
" />
<path d="M26.4674 17.3069
L26.4069 17.1859
" />
<path d="M26.4069 17.1859
L26.2860 17.1255
" />
<path d="M26.2860 17.1255
L26.0441 17.1255
" />
<path d="M26.0441 17.1255
L25.9231 17.1859
" />
<path d="M26.4674 17.9117
L26.3465 17.9721
" />
<path d="M26.3465 17.9721
L26.0441 17.9721
" />
<path d="M26.0441 17.9721
L25.9231 17.9117
" />
<path d="M25.9231 17.9117
L25.8627 17.7907
" />
<path d="M25.8627 17.7907
L25.8627 17.6697
" />
<path d="M25.8627 17.6697
L25.9231 17.5488
" />
<path d="M25.9231 17.5488
L26.0441 17.4883
" />
<path d="M26.0441 17.4883
L26.3465 17.4883
" />
<path d="M26.3465 17.4883
L26.4674 17.4278
" />
</g></g>
<g style="fill:#840000; fill-opacity:0.0; 
stroke:#840000; stroke-width:0.1524; stroke-opacity:1; 
stroke-linecap:round; stroke-linejoin:round;">
<path d="M32.5755 18.3896
L36.3855 18.3896
" />
</g>
<g style="fill:#A90000; fill-opacity:0.0; 
stroke:#A90000; stroke-width:0.1524; stroke-opacity:1; 
stroke-linecap:round; stroke-linejoin:round;">
<text x="34.4805" y="18.1356"
textLength="2.5617" font-size="1.6933" lengthAdjust="spacingAndGlyphs"
text-anchor="middle" opacity="0">5b</text>
<g class="stroked-text"><desc>5b</desc>
<path d="M34.2084 16.7021
L33.6036 16.7021
" />
<path d="M33.6036 16.7021
L33.5432 17.3069
" />
<path d="M33.5432 17.3069
L33.6036 17.2464
" />
<path d="M33.6036 17.2464
L33.7246 17.1859
" />
<path d="M33.7246 17.1859
L34.0270 17.1859
" />
<path d="M34.0270 17.1859
L34.1479 17.2464
" />
<path d="M34.1479 17.2464
L34.2084 17.3069
" />
<path d="M34.2084 17.3069
L34.2689 17.4278
" />
<path d="M34.2689 17.4278
L34.2689 17.7302
" />
<path d="M34.2689 17.7302
L34.2084 17.8512
" />
<path d="M34.2084 17.8512
L34.1479 17.9117
" />
<path d="M34.1479 17.9117
L34.0270 17.9721
" />
<path d="M34.0270 17.9721
L33.7246 17.9721
" />
<path d="M33.7246 17.9721
L33.6036 17.9117
" />
<path d="M33.6036 17.9117
L33.5432 17.8512
" />
<path d="M34.8131 17.9721
L34.8131 16.7021
" />
<path d="M34.8131 17.1859
L34.9341 17.1255
" />
<path d="M34.9341 17.1255
L35.1760 17.1255
" />
<path d="M35.1760 17.1255
L35.2969 17.1859
" />
<path d="M35.2969 17.1859
L35.3574 17.2464
" />
<path d="M35.3574 17.2464
L35.4179 17.3674
" />
<path d="M35.4179 17.3674
L35.4179 17.7302
" />
<path d="M35.4179 17.7302
L35.3574 17.8512
" />
<path d="M35.3574 17.8512
L35.2969 17.9117
" />
<path d="M35.2969 17.9117
L35.1760 17.9721
" />
<path d="M35.1760 17.9721
L34.9341 17.9721
" />
<path d="M34.9341 17.9721
L34.8131 17.9117
" />
</g></g>
<g style="fill:#840000; fill-opacity:0.0; 
stroke:#840000; stroke-width:0.1524; stroke-opacity:1; 
stroke-linecap:round; stroke-linejoin:round;">
<path d="M27.4955 20.9296
L23.6855 20.9296
" />
</g>
<g style="fill:#A90000; fill-opacity:0.0; 
stroke:#A90000; stroke-width:0.1524; stroke-opacity:1; 
stroke-linecap:round; stroke-linejoin:round;">
<text x="25.5905" y="20.6756"
textLength="2.5617" font-size="1.6933" lengthAdjust="spacingAndGlyphs"
text-anchor="middle" opacity="0">6a</text>
<g class="stroked-text"><desc>6a</desc>
<path d="M25.2579 19.2421
L25.0160 19.2421
" />
<path d="M25.0160 19.2421
L24.8951 19.3026
" />
<path d="M24.8951 19.3026
L24.8346 19.3631
" />
<path d="M24.8346 19.3631
L24.7136 19.5445
" />
<path d="M24.7136 19.5445
L24.6532 19.7864
" />
<path d="M24.6532 19.7864
L24.6532 20.2702
" />
<path d="M24.6532 20.2702
L24.7136 20.3912
" />
<path d="M24.7136 20.3912
L24.7741 20.4517
" />
<path d="M24.7741 20.4517
L24.8951 20.5121
" />
<path d="M24.8951 20.5121
L25.1370 20.5121
" />
<path d="M25.1370 20.5121
L25.2579 20.4517
" />
<path d="M25.2579 20.4517
L25.3184 20.3912
" />
<path d="M25.3184 20.3912
L25.3789 20.2702
" />
<path d="M25.3789 20.2702
L25.3789 19.9678
" />
<path d="M25.3789 19.9678
L25.3184 19.8469
" />
<path d="M25.3184 19.8469
L25.2579 19.7864
" />
<path d="M25.2579 19.7864
L25.1370 19.7259
" />
<path d="M25.1370 19.7259
L24.8951 19.7259
" />
<path d="M24.8951 19.7259
L24.7741 19.7864
" />
<path d="M24.7741 19.7864
L24.7136 19.8469
" />
<path d="M24.7136 19.8469
L24.6532 19.9678
" />
<path d="M26.4674 20.5121
L26.4674 19.8469
" />
<path d="M26.4674 19.8469
L26.4069 19.7259
" />
<path d="M26.4069 19.7259
L26.2860 19.6655
" />
<path d="M26.2860 19.6655
L26.0441 19.6655
" />
<path d="M26.0441 19.6655
L25.9231 19.7259
" />
<path d="M26.4674 20.4517
L26.3465 20.5121
" />
<path d="M26.3465 20.5121
L26.0441 20.5121
" />
<path d="M26.0441 20.5121
L25.9231 20.4517
" />
<path d="M25.9231 20.4517
L25.8627 20.3307
" />
<path d="M25.8627 20.3307
L25.8627 20.2097
" />
<path d="M25.8627 20.2097
L25.9231 20.0888
" />
<path d="M25.9231 20.0888
L26.0441 20.0283
" />
<path d="M26.0441 20.0283
L26.3465 20.0283
" />
<path d="M26.3465 20.0283
L26.4674 19.9678
" />
</g></g>
<g style="fill:#840000; fill-opacity:0.0; 
stroke:#840000; stroke-width:0.1524; stroke-opacity:1; 
stroke-linecap:round; stroke-linejoin:round;">
<path d="M32.5755 20.9296
L36.3855 20.9296
" />
</g>
<g style="fill:#A90000; fill-opacity:0.0; 
stroke:#A90000; stroke-width:0.1524; stroke-opacity:1; 
stroke-linecap:round; stroke-linejoin:round;">
<text x="34.4805" y="20.6756"
textLength="2.5617" font-size="1.6933" lengthAdjust="spacingAndGlyphs"
text-anchor="middle" opacity="0">6b</text>
<g class="stroked-text"><desc>6b</desc>
<path d="M34.1479 19.2421
L33.9060 19.2421
" />
<path d="M33.9060 19.2421
L33.7851 19.3026
" />
<path d="M33.7851 19.3026
L33.7246 19.3631
" />
<path d="M33.7246 19.3631
L33.6036 19.5445
" />
<path d="M33.6036 19.5445
L33.5432 19.7864
" />
<path d="M33.5432 19.7864
L33.5432 20.2702
" />
<path d="M33.5432 20.2702
L33.6036 20.3912
" />
<path d="M33.6036 20.3912
L33.6641 20.4517
" />
<path d="M33.6641 20.4517
L33.7851 20.5121
" />
<path d="M33.7851 20.5121
L34.0270 20.5121
" />
<path d="M34.0270 20.5121
L34.1479 20.4517
" />
<path d="M34.1479 20.4517
L34.2084 20.3912
" />
<path d="M34.2084 20.3912
L34.2689 20.2702
" />
<path d="M34.2689 20.2702
L34.2689 19.9678
" />
<path d="M34.2689 19.9678
L34.2084 19.8469
" />
<path d="M34.2084 19.8469
L34.1479 19.7864
" />
<path d="M34.1479 19.7864
L34.0270 19.7259
" />
<path d="M34.0270 19.7259
L33.7851 19.7259
" />
<path d="M33.7851 19.7259
L33.6641 19.7864
" />
<path d="M33.6641 19.7864
L33.6036 19.8469
" />
<path d="M33.6036 19.8469
L33.5432 19.9678
" />
<path d="M34.8131 20.5121
L34.8131 19.2421
" />
<path d="M34.8131 19.7259
L34.9341 19.6655
" />
<path d="M34.9341 19.6655
L35.1760 19.6655
" />
<path d="M35.1760 19.6655
L35.2969 19.7259
" />
<path d="M35.2969 19.7259
L35.3574 19.7864
" />
<path d="M35.3574 19.7864
L35.4179 19.9074
" />
<path d="M35.4179 19.9074
L35.4179 20.2702
" />
<path d="M35.4179 20.2702
L35.3574 20.3912
" />
<path d="M35.3574 20.3912
L35.2969 20.4517
" />
<path d="M35.2969 20.4517
L35.1760 20.5121
" />
<path d="M35.1760 20.5121
L34.9341 20.5121
" />
<path d="M34.9341 20.5121
L34.8131 20.4517
" />
</g></g>
<g style="fill:#840000; fill-opacity:0.0; 
stroke:#840000; stroke-width:0.1524; stroke-opacity:1; 
stroke-linecap:round; stroke-linejoin:round;">
<path d="M27.4955 23.4696
L23.6855 23.4696
" />
</g>
<g style="fill:#A90000; fill-opacity:0.0; 
stroke:#A90000; stroke-width:0.1524; stroke-opacity:1; 
stroke-linecap:round; stroke-linejoin:round;">
<text x="25.5905" y="23.2156"
textLength="2.5617" font-size="1.6933" lengthAdjust="spacingAndGlyphs"
text-anchor="middle" opacity="0">7a</text>
<g class="stroked-text"><desc>7a</desc>
<path d="M24.5927 21.7821
L25.4393 21.7821
" />
<path d="M25.4393 21.7821
L24.8951 23.0521
" />
<path d="M26.4674 23.0521
L26.4674 22.3869
" />
<path d="M26.4674 22.3869
L26.4069 22.2659
" />
<path d="M26.4069 22.2659
L26.2860 22.2055
" />
<path d="M26.2860 22.2055
L26.0441 22.2055
" />
<path d="M26.0441 22.2055
L25.9231 22.2659
" />
<path d="M26.4674 22.9917
L26.3465 23.0521
" />
<path d="M26.3465 23.0521
L26.0441 23.0521
" />
<path d="M26.0441 23.0521
L25.9231 22.9917
" />
<path d="M25.9231 22.9917
L25.8627 22.8707
" />
<path d="M25.8627 22.8707
L25.8627 22.7497
" />
<path d="M25.8627 22.7497
L25.9231 22.6288
" />
<path d="M25.9231 22.6288
L26.0441 22.5683
" />
<path d="M26.0441 22.5683
L26.3465 22.5683
" />
<path d="M26.3465 22.5683
L26.4674 22.5078
" />
</g></g>
<g style="fill:#840000; fill-opacity:0.0; 
stroke:#840000; stroke-width:0.1524; stroke-opacity:1; 
stroke-linecap:round; stroke-linejoin:round;">
<path d="M32.5755 23.4696
L36.3855 23.4696
" />
</g>
<g style="fill:#A90000; fill-opacity:0.0; 
stroke:#A90000; stroke-width:0.1524; stroke-opacity:1; 
stroke-linecap:round; stroke-linejoin:round;">
<text x="34.4805" y="23.2156"
textLength="2.5617" font-size="1.6933" lengthAdjust="spacingAndGlyphs"
text-anchor="middle" opacity="0">7b</text>
<g class="stroked-text"><desc>7b</desc>
<path d="M33.4827 21.7821
L34.3293 21.7821
" />
<path d="M34.3293 21.7821
L33.7851 23.0521
" />
<path d="M34.8131 23.0521
L34.8131 21.7821
" />
<path d="M34.8131 22.2659
L34.9341 22.2055
" />
<path d="M34.9341 22.2055
L35.1760 22.2055
" />
<path d="M35.1760 22.2055
L35.2969 22.2659
" />
<path d="M35.2969 22.2659
L35.3574 22.3264
" />
<path d="M35.3574 22.3264
L35.4179 22.4474
" />
<path d="M35.4179 22.4474
L35.4179 22.8102
" />
<path d="M35.4179 22.8102
L35.3574 22.9312
" />
<path d="M35.3574 22.9312
L35.2969 22.9917
" />
<path d="M35.2969 22.9917
L35.1760 23.0521
" />
<path d="M35.1760 23.0521
L34.9341 23.0521
" />
<path d="M34.9341 23.0521
L34.8131 22.9917
" />
</g></g>
<g style="fill:#840000; fill-opacity:0.0; 
stroke:#840000; stroke-width:0.1524; stroke-opacity:1; 
stroke-linecap:round; stroke-linejoin:round;">
<path d="M27.4955 26.0096
L23.6855 26.0096
" />
</g>
<g style="fill:#A90000; fill-opacity:0.0; 
stroke:#A90000; stroke-width:0.1524; stroke-opacity:1; 
stroke-linecap:round; stroke-linejoin:round;">
<text x="25.5905" y="25.7556"
textLength="2.5617" font-size="1.6933" lengthAdjust="spacingAndGlyphs"
text-anchor="middle" opacity="0">8a</text>
<g class="stroked-text"><desc>8a</desc>
<path d="M24.8951 24.8664
L24.7741 24.8059
" />
<path d="M24.7741 24.8059
L24.7136 24.7455
" />
<path d="M24.7136 24.7455
L24.6532 24.6245
" />
<path d="M24.6532 24.6245
L24.6532 24.5640
" />
<path d="M24.6532 24.5640
L24.7136 24.4431
" />
<path d="M24.7136 24.4431
L24.7741 24.3826
" />
<path d="M24.7741 24.3826
L24.8951 24.3221
" />
<path d="M24.8951 24.3221
L25.1370 24.3221
" />
<path d="M25.1370 24.3221
L25.2579 24.3826
" />
<path d="M25.2579 24.3826
L25.3184 24.4431
" />
<path d="M25.3184 24.4431
L25.3789 24.5640
" />
<path d="M25.3789 24.5640
L25.3789 24.6245
" />
<path d="M25.3789 24.6245
L25.3184 24.7455
" />
<path d="M25.3184 24.7455
L25.2579 24.8059
" />
<path d="M25.2579 24.8059
L25.1370 24.8664
" />
<path d="M25.1370 24.8664
L24.8951 24.8664
" />
<path d="M24.8951 24.8664
L24.7741 24.9269
" />
<path d="M24.7741 24.9269
L24.7136 24.9874
" />
<path d="M24.7136 24.9874
L24.6532 25.1083
" />
<path d="M24.6532 25.1083
L24.6532 25.3502
" />
<path d="M24.6532 25.3502
L24.7136 25.4712
" />
<path d="M24.7136 25.4712
L24.7741 25.5317
" />
<path d="M24.7741 25.5317
L24.8951 25.5921
" />
<path d="M24.8951 25.5921
L25.1370 25.5921
" />
<path d="M25.1370 25.5921
L25.2579 25.5317
" />
<path d="M25.2579 25.5317
L25.3184 25.4712
" />
<path d="M25.3184 25.4712
L25.3789 25.3502
" />
<path d="M25.3789 25.3502
L25.3789 25.1083
" />
<path d="M25.3789 25.1083
L25.3184 24.9874
" />
<path d="M25.3184 24.9874
L25.2579 24.9269
" />
<path d="M25.2579 24.9269
L25.1370 24.8664
" />
<path d="M26.4674 25.5921
L26.4674 24.9269
" />
<path d="M26.4674 24.9269
L26.4069 24.8059
" />
<path d="M26.4069 24.8059
L26.2860 24.7455
" />
<path d="M26.2860 24.7455
L26.0441 24.7455
" />
<path d="M26.0441 24.7455
L25.9231 24.8059
" />
<path d="M26.4674 25.5317
L26.3465 25.5921
" />
<path d="M26.3465 25.5921
L26.0441 25.5921
" />
<path d="M26.0441 25.5921
L25.9231 25.5317
" />
<path d="M25.9231 25.5317
L25.8627 25.4107
" />
<path d="M25.8627 25.4107
L25.8627 25.2897
" />
<path d="M25.8627 25.2897
L25.9231 25.1688
" />
<path d="M25.9231 25.1688
L26.0441 25.1083
" />
<path d="M26.0441 25.1083
L26.3465 25.1083
" />
<path d="M26.3465 25.1083
L26.4674 25.0478
" />
</g></g>
<g style="fill:#840000; fill-opacity:0.0; 
stroke:#840000; stroke-width:0.1524; stroke-opacity:1; 
stroke-linecap:round; stroke-linejoin:round;">
<path d="M32.5755 26.0096
L36.3855 26.0096
" />
</g>
<g style="fill:#A90000; fill-opacity:0.0; 
stroke:#A90000; stroke-width:0.1524; stroke-opacity:1; 
stroke-linecap:round; stroke-linejoin:round;">
<text x="34.4805" y="25.7556"
textLength="2.5617" font-size="1.6933" lengthAdjust="spacingAndGlyphs"
text-anchor="middle" opacity="0">8b</text>
<g class="stroked-text"><desc>8b</desc>
<path d="M33.7851 24.8664
L33.6641 24.8059
" />
<path d="M33.6641 24.8059
L33.6036 24.7455
" />
<path d="M33.6036 24.7455
L33.5432 24.6245
" />
<path d="M33.5432 24.6245
L33.5432 24.5640
" />
<path d="M33.5432 24.5640
L33.6036 24.4431
" />
<path d="M33.6036 24.4431
L33.6641 24.3826
" />
<path d="M33.6641 24.3826
L33.7851 24.3221
" />
<path d="M33.7851 24.3221
L34.0270 24.3221
" />
<path d="M34.0270 24.3221
L34.1479 24.3826
" />
<path d="M34.1479 24.3826
L34.2084 24.4431
" />
<path d="M34.2084 24.4431
L34.2689 24.5640
" />
<path d="M34.2689 24.5640
L34.2689 24.6245
" />
<path d="M34.2689 24.6245
L34.2084 24.7455
" />
<path d="M34.2084 24.7455
L34.1479 24.8059
" />
<path d="M34.1479 24.8059
L34.0270 24.8664
" />
<path d="M34.0270 24.8664
L33.7851 24.8664
" />
<path d="M33.7851 24.8664
L33.6641 24.9269
" />
<path d="M33.6641 24.9269
L33.6036 24.9874
" />
<path d="M33.6036 24.9874
L33.5432 25.1083
" />
<path d="M33.5432 25.1083
L33.5432 25.3502
" />
<path d="M33.5432 25.3502
L33.6036 25.4712
" />
<path d="M33.6036 25.4712
L33.6641 25.5317
" />
<path d="M33.6641 25.5317
L33.7851 25.5921
" />
<path d="M33.7851 25.5921
L34.0270 25.5921
" />
<path d="M34.0270 25.5921
L34.1479 25.5317
" />
<path d="M34.1479 25.5317
L34.2084 25.4712
" />
<path d="M34.2084 25.4712
L34.2689 25.3502
" />
<path d="M34.2689 25.3502
L34.2689 25.1083
" />
<path d="M34.2689 25.1083
L34.2084 24.9874
" />
<path d="M34.2084 24.9874
L34.1479 24.9269
" />
<path d="M34.1479 24.9269
L34.0270 24.8664
" />
<path d="M34.8131 25.5921
L34.8131 24.3221
" />
<path d="M34.8131 24.8059
L34.9341 24.7455
" />
<path d="M34.9341 24.7455
L35.1760 24.7455
" />
<path d="M35.1760 24.7455
L35.2969 24.8059
" />
<path d="M35.2969 24.8059
L35.3574 24.8664
" />
<path d="M35.3574 24.8664
L35.4179 24.9874
" />
<path d="M35.4179 24.9874
L35.4179 25.3502
" />
<path d="M35.4179 25.3502
L35.3574 25.4712
" />
<path d="M35.3574 25.4712
L35.2969 25.5317
" />
<path d="M35.2969 25.5317
L35.1760 25.5921
" />
<path d="M35.1760 25.5921
L34.9341 25.5921
" />
<path d="M34.9341 25.5921
L34.8131 25.5317
" />
</g></g>
<g style="fill:#840000; fill-opacity:0.0; 
stroke:#840000; stroke-width:0.1524; stroke-opacity:1; 
stroke-linecap:round; stroke-linejoin:round;">
<path d="M27.4955 28.5496
L23.6855 28.5496
" />
</g>
<g style="fill:#A90000; fill-opacity:0.0; 
stroke:#A90000; stroke-width:0.1524; stroke-opacity:1; 
stroke-linecap:round; stroke-linejoin:round;">
<text x="25.5905" y="28.2956"
textLength="2.5617" font-size="1.6933" lengthAdjust="spacingAndGlyphs"
text-anchor="middle" opacity="0">9a</text>
<g class="stroked-text"><desc>9a</desc>
<path d="M24.7741 28.1321
L25.0160 28.1321
" />
<path d="M25.0160 28.1321
L25.1370 28.0717
" />
<path d="M25.1370 28.0717
L25.1974 28.0112
" />
<path d="M25.1974 28.0112
L25.3184 27.8297
" />
<path d="M25.3184 27.8297
L25.3789 27.5878
" />
<path d="M25.3789 27.5878
L25.3789 27.1040
" />
<path d="M25.3789 27.1040
L25.3184 26.9831
" />
<path d="M25.3184 26.9831
L25.2579 26.9226
" />
<path d="M25.2579 26.9226
L25.1370 26.8621
" />
<path d="M25.1370 26.8621
L24.8951 26.8621
" />
<path d="M24.8951 26.8621
L24.7741 26.9226
" />
<path d="M24.7741 26.9226
L24.7136 26.9831
" />
<path d="M24.7136 26.9831
L24.6532 27.1040
" />
<path d="M24.6532 27.1040
L24.6532 27.4064
" />
<path d="M24.6532 27.4064
L24.7136 27.5274
" />
<path d="M24.7136 27.5274
L24.7741 27.5878
" />
<path d="M24.7741 27.5878
L24.8951 27.6483
" />
<path d="M24.8951 27.6483
L25.1370 27.6483
" />
<path d="M25.1370 27.6483
L25.2579 27.5878
" />
<path d="M25.2579 27.5878
L25.3184 27.5274
" />
<path d="M25.3184 27.5274
L25.3789 27.4064
" />
<path d="M26.4674 28.1321
L26.4674 27.4669
" />
<path d="M26.4674 27.4669
L26.4069 27.3459
" />
<path d="M26.4069 27.3459
L26.2860 27.2855
" />
<path d="M26.2860 27.2855
L26.0441 27.2855
" />
<path d="M26.0441 27.2855
L25.9231 27.3459
" />
<path d="M26.4674 28.0717
L26.3465 28.1321
" />
<path d="M26.3465 28.1321
L26.0441 28.1321
" />
<path d="M26.0441 28.1321
L25.9231 28.0717
" />
<path d="M25.9231 28.0717
L25.8627 27.9507
" />
<path d="M25.8627 27.9507
L25.8627 27.8297
" />
<path d="M25.8627 27.8297
L25.9231 27.7088
" />
<path d="M25.9231 27.7088
L26.0441 27.6483
" />
<path d="M26.0441 27.6483
L26.3465 27.6483
" />
<path d="M26.3465 27.6483
L26.4674 27.5878
" />
</g></g>
<g style="fill:#840000; fill-opacity:0.0; 
stroke:#840000; stroke-width:0.1524; stroke-opacity:1; 
stroke-linecap:round; stroke-linejoin:round;">
<path d="M32.5755 28.5496
L36.3855 28.5496
" />
</g>
<g style="fill:#A90000; fill-opacity:0.0; 
stroke:#A90000; stroke-width:0.1524; stroke-opacity:1; 
stroke-linecap:round; stroke-linejoin:round;">
<text x="34.4805" y="28.2956"
textLength="2.5617" font-size="1.6933" lengthAdjust="spacingAndGlyphs"
text-anchor="middle" opacity="0">9b</text>
<g class="stroked-text"><desc>9b</desc>
<path d="M33.6641 28.1321
L33.9060 28.1321
" />
<path d="M33.9060 28.1321
L34.0270 28.0717
" />
<path d="M34.0270 28.0717
L34.0874 28.0112
" />
<path d="M34.0874 28.0112
L34.2084 27.8297
" />
<path d="M34.2084 27.8297
L34.2689 27.5878
" />
<path d="M34.2689 27.5878
L34.2689 27.1040
" />
<path d="M34.2689 27.1040
L34.2084 26.9831
" />
<path d="M34.2084 26.9831
L34.1479 26.9226
" />
<path d="M34.1479 26.9226
L34.0270 26.8621
" />
<path d="M34.0270 26.8621
L33.7851 26.8621
" />
<path d="M33.7851 26.8621
L33.6641 26.9226
" />
<path d="M33.6641 26.9226
L33.6036 26.9831
" />
<path d="M33.6036 26.9831
L33.5432 27.1040
" />
<path d="M33.5432 27.1040
L33.5432 27.4064
" />
<path d="M33.5432 27.4064
L33.6036 27.5274
" />
<path d="M33.6036 27.5274
L33.6641 27.5878
" />
<path d="M33.6641 27.5878
L33.7851 27.6483
" />
<path d="M33.7851 27.6483
L34.0270 27.6483
" />
<path d="M34.0270 27.6483
L34.1479 27.5878
" />
<path d="M34.1479 27.5878
L34.2084 27.5274
" />
<path d="M34.2084 27.5274
L34.2689 27.4064
" />
<path d="M34.8131 28.1321
L34.8131 26.8621
" />
<path d="M34.8131 27.3459
L34.9341 27.2855
" />
<path d="M34.9341 27.2855
L35.1760 27.2855
" />
<path d="M35.1760 27.2855
L35.2969 27.3459
" />
<path d="M35.2969 27.3459
L35.3574 27.4064
" />
<path d="M35.3574 27.4064
L35.4179 27.5274
" />
<path d="M35.4179 27.5274
L35.4179 27.8902
" />
<path d="M35.4179 27.8902
L35.3574 28.0112
" />
<path d="M35.3574 28.0112
L35.2969 28.0717
" />
<path d="M35.2969 28.0717
L35.1760 28.1321
" />
<path d="M35.1760 28.1321
L34.9341 28.1321
" />
<path d="M34.9341 28.1321
L34.8131 28.0717
" />
</g></g>
<g style="fill:#840000; fill-opacity:0.0; 
stroke:#840000; stroke-width:0.1524; stroke-opacity:1; 
stroke-linecap:round; stroke-linejoin:round;">
<path d="M30.0355 40.7416
L30.0355 43.7896
" />
</g>
<g style="fill:#A90000; fill-opacity:0.0; 
stroke:#A90000; stroke-width:0.1524; stroke-opacity:1; 
stroke-linecap:round; stroke-linejoin:round;">
<g transform="rotate(-90.000000 29.7815 42.2656)">
<text x="29.7815" y="42.2656"
textLength="2.9246" font-size="1.6933" lengthAdjust="spacingAndGlyphs"
text-anchor="middle" opacity="0">MP</text>
</g>
<g class="stroked-text"><desc>MP</desc>
<path d="M29.6180 43.3239
L28.3480 43.3239
" />
<path d="M28.3480 43.3239
L29.2552 42.9005
" />
<path d="M29.2552 42.9005
L28.3480 42.4772
" />
<path d="M28.3480 42.4772
L29.6180 42.4772
" />
<path d="M29.6180 41.8725
L28.3480 41.8725
" />
<path d="M28.3480 41.8725
L28.3480 41.3887
" />
<path d="M28.3480 41.3887
L28.4085 41.2677
" />
<path d="M28.4085 41.2677
L28.4690 41.2072
" />
<path d="M28.4690 41.2072
L28.5899 41.1468
" />
<path d="M28.5899 41.1468
L28.7714 41.1468
" />
<path d="M28.7714 41.1468
L28.8923 41.2072
" />
<path d="M28.8923 41.2072
L28.9528 41.2677
" />
<path d="M28.9528 41.2677
L29.0133 41.3887
" />
<path d="M29.0133 41.3887
L29.0133 41.8725
" />
</g></g>
<g style="fill:#840084; fill-opacity:0.0; 
stroke:#840084; stroke-width:0.1524; stroke-opacity:1; 
stroke-linecap:round; stroke-linejoin:round;">
</g>
<g style="fill:#006464; fill-opacity:0.0; 
stroke:#006464; stroke-width:0.1524; stroke-opacity:1; 
stroke-linecap:round; stroke-linejoin:round;">
</g>
<g style="fill:#006464; fill-opacity:0.0; 
stroke:#006464; stroke-width:0.1588; stroke-opacity:1; 
stroke-linecap:round; stroke-linejoin:round;">
<text x="30.0355" y="6.3246"
textLength="2.2786" font-size="1.6933" lengthAdjust="spacingAndGlyphs"
text-anchor="middle" opacity="0">J?</text>
<g class="stroked-text"><desc>J?</desc>
<path d="M29.6726 4.9988
L29.6726 5.9060
" />
<path d="M29.6726 5.9060
L29.6121 6.0874
" />
<path d="M29.6121 6.0874
L29.4912 6.2084
" />
<path d="M29.4912 6.2084
L29.3097 6.2688
" />
<path d="M29.3097 6.2688
L29.1888 6.2688
" />
<path d="M30.4588 6.1479
L30.5192 6.2084
" />
<path d="M30.5192 6.2084
L30.4588 6.2688
" />
<path d="M30.4588 6.2688
L30.3983 6.2084
" />
<path d="M30.3983 6.2084
L30.4588 6.1479
" />
<path d="M30.4588 6.1479
L30.4588 6.2688
" />
<path d="M30.2169 5.0593
L30.3378 4.9988
" />
<path d="M30.3378 4.9988
L30.6402 4.9988
" />
<path d="M30.6402 4.9988
L30.7611 5.0593
" />
<path d="M30.7611 5.0593
L30.8216 5.1803
" />
<path d="M30.8216 5.1803
L30.8216 5.3012
" />
<path d="M30.8216 5.3012
L30.7611 5.4222
" />
<path d="M30.7611 5.4222
L30.7007 5.4826
" />
<path d="M30.7007 5.4826
L30.5797 5.5431
" />
<path d="M30.5797 5.5431
L30.5192 5.6036
" />
<path d="M30.5192 5.6036
L30.4588 5.7245
" />
<path d="M30.4588 5.7245
L30.4588 5.7850
" />
</g><text x="51.4642" y="41.8846"
textLength="40.3175" font-size="1.6933" lengthAdjust="spacingAndGlyphs"
text-anchor="middle" opacity="0">Conn_02x13_Row_Letter_Last_MountingPin</text>
<g class="stroked-text"><desc>Conn_02x13_Row_Letter_Last_MountingPin</desc>
<path d="M32.4447 41.7079
L32.3843 41.7684
" />
<path d="M32.3843 41.7684
L32.2028 41.8288
" />
<path d="M32.2028 41.8288
L32.0819 41.8288
" />
<path d="M32.0819 41.8288
L31.9005 41.7684
" />
<path d="M31.9005 41.7684
L31.7795 41.6474
" />
<path d="M31.7795 41.6474
L31.7190 41.5264
" />
<path d="M31.7190 41.5264
L31.6586 41.2845
" />
<path d="M31.6586 41.2845
L31.6586 41.1031
" />
<path d="M31.6586 41.1031
L31.7190 40.8612
" />
<path d="M31.7190 40.8612
L31.7795 40.7403
" />
<path d="M31.7795 40.7403
L31.9005 40.6193
" />
<path d="M31.9005 40.6193
L32.0819 40.5588
" />
<path d="M32.0819 40.5588
L32.2028 40.5588
" />
<path d="M32.2028 40.5588
L32.3843 40.6193
" />
<path d="M32.3843 40.6193
L32.4447 40.6798
" />
<path d="M33.1705 41.8288
L33.0495 41.7684
" />
<path d="M33.0495 41.7684
L32.9890 41.7079
" />
<path d="M32.9890 41.7079
L32.9286 41.5869
" />
<path d="M32.9286 41.5869
L32.9286 41.2241
" />
<path d="M32.9286 41.2241
L32.9890 41.1031
" />
<path d="M32.9890 41.1031
L33.0495 41.0426
" />
<path d="M33.0495 41.0426
L33.1705 40.9822
" />
<path d="M33.1705 40.9822
L33.3519 40.9822
" />
<path d="M33.3519 40.9822
L33.4728 41.0426
" />
<path d="M33.4728 41.0426
L33.5333 41.1031
" />
<path d="M33.5333 41.1031
L33.5938 41.2241
" />
<path d="M33.5938 41.2241
L33.5938 41.5869
" />
<path d="M33.5938 41.5869
L33.5333 41.7079
" />
<path d="M33.5333 41.7079
L33.4728 41.7684
" />
<path d="M33.4728 41.7684
L33.3519 41.8288
" />
<path d="M33.3519 41.8288
L33.1705 41.8288
" />
<path d="M34.1380 40.9822
L34.1380 41.8288
" />
<path d="M34.1380 41.1031
L34.1985 41.0426
" />
<path d="M34.1985 41.0426
L34.3195 40.9822
" />
<path d="M34.3195 40.9822
L34.5009 40.9822
" />
<path d="M34.5009 40.9822
L34.6218 41.0426
" />
<path d="M34.6218 41.0426
L34.6823 41.1636
" />
<path d="M34.6823 41.1636
L34.6823 41.8288
" />
<path d="M35.2870 40.9822
L35.2870 41.8288
" />
<path d="M35.2870 41.1031
L35.3475 41.0426
" />
<path d="M35.3475 41.0426
L35.4685 40.9822
" />
<path d="M35.4685 40.9822
L35.6499 40.9822
" />
<path d="M35.6499 40.9822
L35.7708 41.0426
" />
<path d="M35.7708 41.0426
L35.8313 41.1636
" />
<path d="M35.8313 41.1636
L35.8313 41.8288
" />
<path d="M36.1337 41.9498
L37.1013 41.9498
" />
<path d="M37.6455 40.5588
L37.7665 40.5588
" />
<path d="M37.7665 40.5588
L37.8874 40.6193
" />
<path d="M37.8874 40.6193
L37.9479 40.6798
" />
<path d="M37.9479 40.6798
L38.0084 40.8007
" />
<path d="M38.0084 40.8007
L38.0689 41.0426
" />
<path d="M38.0689 41.0426
L38.0689 41.3450
" />
<path d="M38.0689 41.3450
L38.0084 41.5869
" />
<path d="M38.0084 41.5869
L37.9479 41.7079
" />
<path d="M37.9479 41.7079
L37.8874 41.7684
" />
<path d="M37.8874 41.7684
L37.7665 41.8288
" />
<path d="M37.7665 41.8288
L37.6455 41.8288
" />
<path d="M37.6455 41.8288
L37.5246 41.7684
" />
<path d="M37.5246 41.7684
L37.4641 41.7079
" />
<path d="M37.4641 41.7079
L37.4036 41.5869
" />
<path d="M37.4036 41.5869
L37.3432 41.3450
" />
<path d="M37.3432 41.3450
L37.3432 41.0426
" />
<path d="M37.3432 41.0426
L37.4036 40.8007
" />
<path d="M37.4036 40.8007
L37.4641 40.6798
" />
<path d="M37.4641 40.6798
L37.5246 40.6193
" />
<path d="M37.5246 40.6193
L37.6455 40.5588
" />
<path d="M38.5527 40.6798
L38.6131 40.6193
" />
<path d="M38.6131 40.6193
L38.7341 40.5588
" />
<path d="M38.7341 40.5588
L39.0365 40.5588
" />
<path d="M39.0365 40.5588
L39.1574 40.6193
" />
<path d="M39.1574 40.6193
L39.2179 40.6798
" />
<path d="M39.2179 40.6798
L39.2784 40.8007
" />
<path d="M39.2784 40.8007
L39.2784 40.9217
" />
<path d="M39.2784 40.9217
L39.2179 41.1031
" />
<path d="M39.2179 41.1031
L38.4922 41.8288
" />
<path d="M38.4922 41.8288
L39.2784 41.8288
" />
<path d="M39.7017 41.8288
L40.3669 40.9822
" />
<path d="M39.7017 40.9822
L40.3669 41.8288
" />
<path d="M41.5160 41.8288
L40.7903 41.8288
" />
<path d="M41.1531 41.8288
L41.1531 40.5588
" />
<path d="M41.1531 40.5588
L41.0322 40.7403
" />
<path d="M41.0322 40.7403
L40.9112 40.8612
" />
<path d="M40.9112 40.8612
L40.7903 40.9217
" />
<path d="M41.9393 40.5588
L42.7255 40.5588
" />
<path d="M42.7255 40.5588
L42.3021 41.0426
" />
<path d="M42.3021 41.0426
L42.4836 41.0426
" />
<path d="M42.4836 41.0426
L42.6045 41.1031
" />
<path d="M42.6045 41.1031
L42.6650 41.1636
" />
<path d="M42.6650 41.1636
L42.7255 41.2845
" />
<path d="M42.7255 41.2845
L42.7255 41.5869
" />
<path d="M42.7255 41.5869
L42.6650 41.7079
" />
<path d="M42.6650 41.7079
L42.6045 41.7684
" />
<path d="M42.6045 41.7684
L42.4836 41.8288
" />
<path d="M42.4836 41.8288
L42.1207 41.8288
" />
<path d="M42.1207 41.8288
L41.9998 41.7684
" />
<path d="M41.9998 41.7684
L41.9393 41.7079
" />
<path d="M42.9674 41.9498
L43.9350 41.9498
" />
<path d="M44.9630 41.8288
L44.5397 41.2241
" />
<path d="M44.2373 41.8288
L44.2373 40.5588
" />
<path d="M44.2373 40.5588
L44.7211 40.5588
" />
<path d="M44.7211 40.5588
L44.8421 40.6193
" />
<path d="M44.8421 40.6193
L44.9026 40.6798
" />
<path d="M44.9026 40.6798
L44.9630 40.8007
" />
<path d="M44.9630 40.8007
L44.9630 40.9822
" />
<path d="M44.9630 40.9822
L44.9026 41.1031
" />
<path d="M44.9026 41.1031
L44.8421 41.1636
" />
<path d="M44.8421 41.1636
L44.7211 41.2241
" />
<path d="M44.7211 41.2241
L44.2373 41.2241
" />
<path d="M45.6888 41.8288
L45.5678 41.7684
" />
<path d="M45.5678 41.7684
L45.5073 41.7079
" />
<path d="M45.5073 41.7079
L45.4469 41.5869
" />
<path d="M45.4469 41.5869
L45.4469 41.2241
" />
<path d="M45.4469 41.2241
L45.5073 41.1031
" />
<path d="M45.5073 41.1031
L45.5678 41.0426
" />
<path d="M45.5678 41.0426
L45.6888 40.9822
" />
<path d="M45.6888 40.9822
L45.8702 40.9822
" />
<path d="M45.8702 40.9822
L45.9911 41.0426
" />
<path d="M45.9911 41.0426
L46.0516 41.1031
" />
<path d="M46.0516 41.1031
L46.1121 41.2241
" />
<path d="M46.1121 41.2241
L46.1121 41.5869
" />
<path d="M46.1121 41.5869
L46.0516 41.7079
" />
<path d="M46.0516 41.7079
L45.9911 41.7684
" />
<path d="M45.9911 41.7684
L45.8702 41.8288
" />
<path d="M45.8702 41.8288
L45.6888 41.8288
" />
<path d="M46.5354 40.9822
L46.7773 41.8288
" />
<path d="M46.7773 41.8288
L47.0192 41.2241
" />
<path d="M47.0192 41.2241
L47.2611 41.8288
" />
<path d="M47.2611 41.8288
L47.5030 40.9822
" />
<path d="M47.6845 41.9498
L48.6521 41.9498
" />
<path d="M49.5592 41.8288
L48.9544 41.8288
" />
<path d="M48.9544 41.8288
L48.9544 40.5588
" />
<path d="M50.4663 41.7684
L50.3454 41.8288
" />
<path d="M50.3454 41.8288
L50.1035 41.8288
" />
<path d="M50.1035 41.8288
L49.9825 41.7684
" />
<path d="M49.9825 41.7684
L49.9221 41.6474
" />
<path d="M49.9221 41.6474
L49.9221 41.1636
" />
<path d="M49.9221 41.1636
L49.9825 41.0426
" />
<path d="M49.9825 41.0426
L50.1035 40.9822
" />
<path d="M50.1035 40.9822
L50.3454 40.9822
" />
<path d="M50.3454 40.9822
L50.4663 41.0426
" />
<path d="M50.4663 41.0426
L50.5268 41.1636
" />
<path d="M50.5268 41.1636
L50.5268 41.2845
" />
<path d="M50.5268 41.2845
L49.9221 41.4055
" />
<path d="M50.8897 40.9822
L51.3735 40.9822
" />
<path d="M51.0711 40.5588
L51.0711 41.6474
" />
<path d="M51.0711 41.6474
L51.1316 41.7684
" />
<path d="M51.1316 41.7684
L51.2526 41.8288
" />
<path d="M51.2526 41.8288
L51.3735 41.8288
" />
<path d="M51.6154 40.9822
L52.0992 40.9822
" />
<path d="M51.7968 40.5588
L51.7968 41.6474
" />
<path d="M51.7968 41.6474
L51.8573 41.7684
" />
<path d="M51.8573 41.7684
L51.9783 41.8288
" />
<path d="M51.9783 41.8288
L52.0992 41.8288
" />
<path d="M53.0063 41.7684
L52.8854 41.8288
" />
<path d="M52.8854 41.8288
L52.6435 41.8288
" />
<path d="M52.6435 41.8288
L52.5225 41.7684
" />
<path d="M52.5225 41.7684
L52.4621 41.6474
" />
<path d="M52.4621 41.6474
L52.4621 41.1636
" />
<path d="M52.4621 41.1636
L52.5225 41.0426
" />
<path d="M52.5225 41.0426
L52.6435 40.9822
" />
<path d="M52.6435 40.9822
L52.8854 40.9822
" />
<path d="M52.8854 40.9822
L53.0063 41.0426
" />
<path d="M53.0063 41.0426
L53.0668 41.1636
" />
<path d="M53.0668 41.1636
L53.0668 41.2845
" />
<path d="M53.0668 41.2845
L52.4621 41.4055
" />
<path d="M53.6111 41.8288
L53.6111 40.9822
" />
<path d="M53.6111 41.2241
L53.6716 41.1031
" />
<path d="M53.6716 41.1031
L53.7321 41.0426
" />
<path d="M53.7321 41.0426
L53.8530 40.9822
" />
<path d="M53.8530 40.9822
L53.9740 40.9822
" />
<path d="M54.0950 41.9498
L55.0626 41.9498
" />
<path d="M55.9697 41.8288
L55.3649 41.8288
" />
<path d="M55.3649 41.8288
L55.3649 40.5588
" />
<path d="M56.9373 41.8288
L56.9373 41.1636
" />
<path d="M56.9373 41.1636
L56.8768 41.0426
" />
<path d="M56.8768 41.0426
L56.7559 40.9822
" />
<path d="M56.7559 40.9822
L56.5140 40.9822
" />
<path d="M56.5140 40.9822
L56.3930 41.0426
" />
<path d="M56.9373 41.7684
L56.8164 41.8288
" />
<path d="M56.8164 41.8288
L56.5140 41.8288
" />
<path d="M56.5140 41.8288
L56.3930 41.7684
" />
<path d="M56.3930 41.7684
L56.3326 41.6474
" />
<path d="M56.3326 41.6474
L56.3326 41.5264
" />
<path d="M56.3326 41.5264
L56.3930 41.4055
" />
<path d="M56.3930 41.4055
L56.5140 41.3450
" />
<path d="M56.5140 41.3450
L56.8164 41.3450
" />
<path d="M56.8164 41.3450
L56.9373 41.2845
" />
<path d="M57.4816 41.7684
L57.6025 41.8288
" />
<path d="M57.6025 41.8288
L57.8444 41.8288
" />
<path d="M57.8444 41.8288
L57.9654 41.7684
" />
<path d="M57.9654 41.7684
L58.0258 41.6474
" />
<path d="M58.0258 41.6474
L58.0258 41.5869
" />
<path d="M58.0258 41.5869
L57.9654 41.4660
" />
<path d="M57.9654 41.4660
L57.8444 41.4055
" />
<path d="M57.8444 41.4055
L57.6630 41.4055
" />
<path d="M57.6630 41.4055
L57.5420 41.3450
" />
<path d="M57.5420 41.3450
L57.4816 41.2241
" />
<path d="M57.4816 41.2241
L57.4816 41.1636
" />
<path d="M57.4816 41.1636
L57.5420 41.0426
" />
<path d="M57.5420 41.0426
L57.6630 40.9822
" />
<path d="M57.6630 40.9822
L57.8444 40.9822
" />
<path d="M57.8444 40.9822
L57.9654 41.0426
" />
<path d="M58.3887 40.9822
L58.8725 40.9822
" />
<path d="M58.5701 40.5588
L58.5701 41.6474
" />
<path d="M58.5701 41.6474
L58.6306 41.7684
" />
<path d="M58.6306 41.7684
L58.7516 41.8288
" />
<path d="M58.7516 41.8288
L58.8725 41.8288
" />
<path d="M58.9935 41.9498
L59.9611 41.9498
" />
<path d="M60.2634 41.8288
L60.2634 40.5588
" />
<path d="M60.2634 40.5588
L60.6868 41.4660
" />
<path d="M60.6868 41.4660
L61.1101 40.5588
" />
<path d="M61.1101 40.5588
L61.1101 41.8288
" />
<path d="M61.8963 41.8288
L61.7753 41.7684
" />
<path d="M61.7753 41.7684
L61.7148 41.7079
" />
<path d="M61.7148 41.7079
L61.6544 41.5869
" />
<path d="M61.6544 41.5869
L61.6544 41.2241
" />
<path d="M61.6544 41.2241
L61.7148 41.1031
" />
<path d="M61.7148 41.1031
L61.7753 41.0426
" />
<path d="M61.7753 41.0426
L61.8963 40.9822
" />
<path d="M61.8963 40.9822
L62.0777 40.9822
" />
<path d="M62.0777 40.9822
L62.1986 41.0426
" />
<path d="M62.1986 41.0426
L62.2591 41.1031
" />
<path d="M62.2591 41.1031
L62.3196 41.2241
" />
<path d="M62.3196 41.2241
L62.3196 41.5869
" />
<path d="M62.3196 41.5869
L62.2591 41.7079
" />
<path d="M62.2591 41.7079
L62.1986 41.7684
" />
<path d="M62.1986 41.7684
L62.0777 41.8288
" />
<path d="M62.0777 41.8288
L61.8963 41.8288
" />
<path d="M63.4081 40.9822
L63.4081 41.8288
" />
<path d="M62.8638 40.9822
L62.8638 41.6474
" />
<path d="M62.8638 41.6474
L62.9243 41.7684
" />
<path d="M62.9243 41.7684
L63.0453 41.8288
" />
<path d="M63.0453 41.8288
L63.2267 41.8288
" />
<path d="M63.2267 41.8288
L63.3476 41.7684
" />
<path d="M63.3476 41.7684
L63.4081 41.7079
" />
<path d="M64.0128 40.9822
L64.0128 41.8288
" />
<path d="M64.0128 41.1031
L64.0733 41.0426
" />
<path d="M64.0733 41.0426
L64.1943 40.9822
" />
<path d="M64.1943 40.9822
L64.3757 40.9822
" />
<path d="M64.3757 40.9822
L64.4966 41.0426
" />
<path d="M64.4966 41.0426
L64.5571 41.1636
" />
<path d="M64.5571 41.1636
L64.5571 41.8288
" />
<path d="M64.9804 40.9822
L65.4642 40.9822
" />
<path d="M65.1618 40.5588
L65.1618 41.6474
" />
<path d="M65.1618 41.6474
L65.2223 41.7684
" />
<path d="M65.2223 41.7684
L65.3433 41.8288
" />
<path d="M65.3433 41.8288
L65.4642 41.8288
" />
<path d="M65.8875 41.8288
L65.8875 40.9822
" />
<path d="M65.8875 40.5588
L65.8271 40.6193
" />
<path d="M65.8271 40.6193
L65.8875 40.6798
" />
<path d="M65.8875 40.6798
L65.9480 40.6193
" />
<path d="M65.9480 40.6193
L65.8875 40.5588
" />
<path d="M65.8875 40.5588
L65.8875 40.6798
" />
<path d="M66.4923 40.9822
L66.4923 41.8288
" />
<path d="M66.4923 41.1031
L66.5528 41.0426
" />
<path d="M66.5528 41.0426
L66.6738 40.9822
" />
<path d="M66.6738 40.9822
L66.8552 40.9822
" />
<path d="M66.8552 40.9822
L66.9761 41.0426
" />
<path d="M66.9761 41.0426
L67.0366 41.1636
" />
<path d="M67.0366 41.1636
L67.0366 41.8288
" />
<path d="M68.1856 40.9822
L68.1856 42.0103
" />
<path d="M68.1856 42.0103
L68.1251 42.1312
" />
<path d="M68.1251 42.1312
L68.0647 42.1917
" />
<path d="M68.0647 42.1917
L67.9437 42.2522
" />
<path d="M67.9437 42.2522
L67.7623 42.2522
" />
<path d="M67.7623 42.2522
L67.6413 42.1917
" />
<path d="M68.1856 41.7684
L68.0647 41.8288
" />
<path d="M68.0647 41.8288
L67.8228 41.8288
" />
<path d="M67.8228 41.8288
L67.7018 41.7684
" />
<path d="M67.7018 41.7684
L67.6413 41.7079
" />
<path d="M67.6413 41.7079
L67.5809 41.5869
" />
<path d="M67.5809 41.5869
L67.5809 41.2241
" />
<path d="M67.5809 41.2241
L67.6413 41.1031
" />
<path d="M67.6413 41.1031
L67.7018 41.0426
" />
<path d="M67.7018 41.0426
L67.8228 40.9822
" />
<path d="M67.8228 40.9822
L68.0647 40.9822
" />
<path d="M68.0647 40.9822
L68.1856 41.0426
" />
<path d="M68.7903 41.8288
L68.7903 40.5588
" />
<path d="M68.7903 40.5588
L69.2741 40.5588
" />
<path d="M69.2741 40.5588
L69.3951 40.6193
" />
<path d="M69.3951 40.6193
L69.4556 40.6798
" />
<path d="M69.4556 40.6798
L69.5160 40.8007
" />
<path d="M69.5160 40.8007
L69.5160 40.9822
" />
<path d="M69.5160 40.9822
L69.4556 41.1031
" />
<path d="M69.4556 41.1031
L69.3951 41.1636
" />
<path d="M69.3951 41.1636
L69.2741 41.2241
" />
<path d="M69.2741 41.2241
L68.7903 41.2241
" />
<path d="M70.0603 41.8288
L70.0603 40.9822
" />
<path d="M70.0603 40.5588
L69.9999 40.6193
" />
<path d="M69.9999 40.6193
L70.0603 40.6798
" />
<path d="M70.0603 40.6798
L70.1208 40.6193
" />
<path d="M70.1208 40.6193
L70.0603 40.5588
" />
<path d="M70.0603 40.5588
L70.0603 40.6798
" />
<path d="M70.6651 40.9822
L70.6651 41.8288
" />
<path d="M70.6651 41.1031
L70.7256 41.0426
" />
<path d="M70.7256 41.0426
L70.8466 40.9822
" />
<path d="M70.8466 40.9822
L71.0280 40.9822
" />
<path d="M71.0280 40.9822
L71.1489 41.0426
" />
<path d="M71.1489 41.0426
L71.2094 41.1636
" />
<path d="M71.2094 41.1636
L71.2094 41.8288
" />
</g></g> 
</svg>
