<?xml version="1.0" standalone="no"?>
 <!DOCTYPE svg PUBLIC "-//W3C//DTD SVG 1.1//EN" 
 "http://www.w3.org/Graphics/SVG/1.1/DTD/svg11.dtd"> 
<svg
  xmlns:svg="http://www.w3.org/2000/svg"
  xmlns="http://www.w3.org/2000/svg"
  xmlns:xlink="http://www.w3.org/1999/xlink"
  version="1.1"
  width="50.1904mm" height="53.0352mm" viewBox="0.0000 0.0000 50.1904 53.0352">
<title>SVG Image created as conn_02x15_odd_even_mountingpin.svg date 2024/01/16 15:09:11 </title>
  <desc>Image generated by Eeschema-SVG </desc>
<g style="fill:#000000; fill-opacity:1.0000;stroke:#000000; stroke-opacity:1.0000;
stroke-linecap:round; stroke-linejoin:round;"
 transform="translate(0 0) scale(1 1)">
</g>
<g style="fill:#840000; fill-opacity:0.0; 
stroke:#840000; stroke-width:0.0000; stroke-opacity:1; 
stroke-linecap:round; stroke-linejoin:round;">
</g>
<g style="fill:#FFFFC2; fill-opacity:0.0; 
stroke:#FFFFC2; stroke-width:0.0000; stroke-opacity:1; 
stroke-linecap:round; stroke-linejoin:round;">
</g>
<g style="fill:#FFFFC2; fill-opacity:1.0000; 
stroke:#FFFFC2; stroke-width:0.0000; stroke-opacity:1; 
stroke-linecap:round; stroke-linejoin:round;">
<rect x="23.825200" y="7.467600" width="5.080000" height="38.100000" rx="0.000000" />
</g>
<g style="fill:#840084; fill-opacity:1.0000; 
stroke:#840084; stroke-width:0.0000; stroke-opacity:1; 
stroke-linecap:round; stroke-linejoin:round;">
</g>
<g style="fill:#840000; fill-opacity:1.0000; 
stroke:#840000; stroke-width:0.0000; stroke-opacity:1; 
stroke-linecap:round; stroke-linejoin:round;">
</g>
<g style="fill:#840000; fill-opacity:0.0; 
stroke:#840000; stroke-width:0.1524; stroke-opacity:1; 
stroke-linecap:round; stroke-linejoin:round;">
<rect x="23.825200" y="44.170600" width="1.270000" height="0.254000" rx="0.000000" />
<rect x="23.825200" y="41.630600" width="1.270000" height="0.254000" rx="0.000000" />
<rect x="23.825200" y="39.090600" width="1.270000" height="0.254000" rx="0.000000" />
<rect x="23.825200" y="36.550600" width="1.270000" height="0.254000" rx="0.000000" />
<rect x="23.825200" y="34.010600" width="1.270000" height="0.254000" rx="0.000000" />
<rect x="23.825200" y="31.470600" width="1.270000" height="0.254000" rx="0.000000" />
<rect x="23.825200" y="28.930600" width="1.270000" height="0.254000" rx="0.000000" />
<rect x="23.825200" y="26.390600" width="1.270000" height="0.254000" rx="0.000000" />
<rect x="23.825200" y="23.850600" width="1.270000" height="0.254000" rx="0.000000" />
<rect x="23.825200" y="21.310600" width="1.270000" height="0.254000" rx="0.000000" />
<rect x="23.825200" y="18.770600" width="1.270000" height="0.254000" rx="0.000000" />
<rect x="23.825200" y="16.230600" width="1.270000" height="0.254000" rx="0.000000" />
<rect x="23.825200" y="13.690600" width="1.270000" height="0.254000" rx="0.000000" />
<rect x="23.825200" y="11.150600" width="1.270000" height="0.254000" rx="0.000000" />
<rect x="23.825200" y="8.610600" width="1.270000" height="0.254000" rx="0.000000" />
</g>
<g style="fill:#840000; fill-opacity:0.0; 
stroke:#840000; stroke-width:0.2540; stroke-opacity:1; 
stroke-linecap:round; stroke-linejoin:round;">
<rect x="23.825200" y="7.467600" width="5.080000" height="38.100000" rx="0.000000" />
</g>
<g style="fill:#840000; fill-opacity:0.0; 
stroke:#840000; stroke-width:0.1524; stroke-opacity:1; 
stroke-linecap:round; stroke-linejoin:round;">
<path style="fill:#840000; fill-opacity:0.0; 
stroke:#840000; stroke-width:0.1524; stroke-opacity:1; 
stroke-linecap:round; stroke-linejoin:round;fill:none"
d="M 25.3492,46.3296
27.3812,46.3296
" /> 
<rect x="27.635200" y="44.170600" width="1.270000" height="0.254000" rx="0.000000" />
<rect x="27.635200" y="41.630600" width="1.270000" height="0.254000" rx="0.000000" />
<rect x="27.635200" y="39.090600" width="1.270000" height="0.254000" rx="0.000000" />
<rect x="27.635200" y="36.550600" width="1.270000" height="0.254000" rx="0.000000" />
<rect x="27.635200" y="34.010600" width="1.270000" height="0.254000" rx="0.000000" />
<rect x="27.635200" y="31.470600" width="1.270000" height="0.254000" rx="0.000000" />
<rect x="27.635200" y="28.930600" width="1.270000" height="0.254000" rx="0.000000" />
<rect x="27.635200" y="26.390600" width="1.270000" height="0.254000" rx="0.000000" />
<rect x="27.635200" y="23.850600" width="1.270000" height="0.254000" rx="0.000000" />
<rect x="27.635200" y="21.310600" width="1.270000" height="0.254000" rx="0.000000" />
<rect x="27.635200" y="18.770600" width="1.270000" height="0.254000" rx="0.000000" />
<rect x="27.635200" y="16.230600" width="1.270000" height="0.254000" rx="0.000000" />
<rect x="27.635200" y="13.690600" width="1.270000" height="0.254000" rx="0.000000" />
<rect x="27.635200" y="11.150600" width="1.270000" height="0.254000" rx="0.000000" />
<rect x="27.635200" y="8.610600" width="1.270000" height="0.254000" rx="0.000000" />
</g>
<g style="fill:#840000; fill-opacity:0.0; 
stroke:#840000; stroke-width:0.0476; stroke-opacity:1; 
stroke-linecap:round; stroke-linejoin:round;">
<text x="26.3652" y="46.1391"
textLength="2.6246" font-size="0.5080" lengthAdjust="spacingAndGlyphs"
text-anchor="middle" opacity="0">Mounting</text>
<g class="stroked-text"><desc>Mounting</desc>
<path d="M25.1769 46.1224
L25.1769 45.7414
" />
<path d="M25.1769 45.7414
L25.3039 46.0135
" />
<path d="M25.3039 46.0135
L25.4309 45.7414
" />
<path d="M25.4309 45.7414
L25.4309 46.1224
" />
<path d="M25.6667 46.1224
L25.6304 46.1043
" />
<path d="M25.6304 46.1043
L25.6123 46.0861
" />
<path d="M25.6123 46.0861
L25.5941 46.0498
" />
<path d="M25.5941 46.0498
L25.5941 45.9410
" />
<path d="M25.5941 45.9410
L25.6123 45.9047
" />
<path d="M25.6123 45.9047
L25.6304 45.8865
" />
<path d="M25.6304 45.8865
L25.6667 45.8684
" />
<path d="M25.6667 45.8684
L25.7211 45.8684
" />
<path d="M25.7211 45.8684
L25.7574 45.8865
" />
<path d="M25.7574 45.8865
L25.7756 45.9047
" />
<path d="M25.7756 45.9047
L25.7937 45.9410
" />
<path d="M25.7937 45.9410
L25.7937 46.0498
" />
<path d="M25.7937 46.0498
L25.7756 46.0861
" />
<path d="M25.7756 46.0861
L25.7574 46.1043
" />
<path d="M25.7574 46.1043
L25.7211 46.1224
" />
<path d="M25.7211 46.1224
L25.6667 46.1224
" />
<path d="M26.1203 45.8684
L26.1203 46.1224
" />
<path d="M25.9570 45.8684
L25.9570 46.0680
" />
<path d="M25.9570 46.0680
L25.9751 46.1043
" />
<path d="M25.9751 46.1043
L26.0114 46.1224
" />
<path d="M26.0114 46.1224
L26.0658 46.1224
" />
<path d="M26.0658 46.1224
L26.1021 46.1043
" />
<path d="M26.1021 46.1043
L26.1203 46.0861
" />
<path d="M26.3017 45.8684
L26.3017 46.1224
" />
<path d="M26.3017 45.9047
L26.3198 45.8865
" />
<path d="M26.3198 45.8865
L26.3561 45.8684
" />
<path d="M26.3561 45.8684
L26.4105 45.8684
" />
<path d="M26.4105 45.8684
L26.4468 45.8865
" />
<path d="M26.4468 45.8865
L26.4650 45.9228
" />
<path d="M26.4650 45.9228
L26.4650 46.1224
" />
<path d="M26.5919 45.8684
L26.7371 45.8684
" />
<path d="M26.6464 45.7414
L26.6464 46.0680
" />
<path d="M26.6464 46.0680
L26.6645 46.1043
" />
<path d="M26.6645 46.1043
L26.7008 46.1224
" />
<path d="M26.7008 46.1224
L26.7371 46.1224
" />
<path d="M26.8641 46.1224
L26.8641 45.8684
" />
<path d="M26.8641 45.7414
L26.8459 45.7595
" />
<path d="M26.8459 45.7595
L26.8641 45.7777
" />
<path d="M26.8641 45.7777
L26.8822 45.7595
" />
<path d="M26.8822 45.7595
L26.8641 45.7414
" />
<path d="M26.8641 45.7414
L26.8641 45.7777
" />
<path d="M27.0455 45.8684
L27.0455 46.1224
" />
<path d="M27.0455 45.9047
L27.0636 45.8865
" />
<path d="M27.0636 45.8865
L27.0999 45.8684
" />
<path d="M27.0999 45.8684
L27.1543 45.8684
" />
<path d="M27.1543 45.8684
L27.1906 45.8865
" />
<path d="M27.1906 45.8865
L27.2088 45.9228
" />
<path d="M27.2088 45.9228
L27.2088 46.1224
" />
<path d="M27.5535 45.8684
L27.5535 46.1768
" />
<path d="M27.5535 46.1768
L27.5353 46.2131
" />
<path d="M27.5353 46.2131
L27.5172 46.2313
" />
<path d="M27.5172 46.2313
L27.4809 46.2494
" />
<path d="M27.4809 46.2494
L27.4265 46.2494
" />
<path d="M27.4265 46.2494
L27.3902 46.2313
" />
<path d="M27.5535 46.1043
L27.5172 46.1224
" />
<path d="M27.5172 46.1224
L27.4446 46.1224
" />
<path d="M27.4446 46.1224
L27.4083 46.1043
" />
<path d="M27.4083 46.1043
L27.3902 46.0861
" />
<path d="M27.3902 46.0861
L27.3720 46.0498
" />
<path d="M27.3720 46.0498
L27.3720 45.9410
" />
<path d="M27.3720 45.9410
L27.3902 45.9047
" />
<path d="M27.3902 45.9047
L27.4083 45.8865
" />
<path d="M27.4083 45.8865
L27.4446 45.8684
" />
<path d="M27.4446 45.8684
L27.5172 45.8684
" />
<path d="M27.5172 45.8684
L27.5535 45.8865
" />
</g></g>
<g style="fill:#840000; fill-opacity:0.0; 
stroke:#840000; stroke-width:0.1524; stroke-opacity:1; 
stroke-linecap:round; stroke-linejoin:round;">
<path d="M23.8252 8.7376
L20.0152 8.7376
" />
</g>
<g style="fill:#A90000; fill-opacity:0.0; 
stroke:#A90000; stroke-width:0.1524; stroke-opacity:1; 
stroke-linecap:round; stroke-linejoin:round;">
<text x="21.9202" y="8.4836"
textLength="1.4127" font-size="1.6933" lengthAdjust="spacingAndGlyphs"
text-anchor="middle" opacity="0">1</text>
<g class="stroked-text"><desc>1</desc>
<path d="M22.2831 8.3201
L21.5574 8.3201
" />
<path d="M21.9202 8.3201
L21.9202 7.0501
" />
<path d="M21.9202 7.0501
L21.7993 7.2316
" />
<path d="M21.7993 7.2316
L21.6783 7.3525
" />
<path d="M21.6783 7.3525
L21.5574 7.4130
" />
</g></g>
<g style="fill:#840000; fill-opacity:0.0; 
stroke:#840000; stroke-width:0.1524; stroke-opacity:1; 
stroke-linecap:round; stroke-linejoin:round;">
<path d="M28.9052 18.8976
L32.7152 18.8976
" />
</g>
<g style="fill:#A90000; fill-opacity:0.0; 
stroke:#A90000; stroke-width:0.1524; stroke-opacity:1; 
stroke-linecap:round; stroke-linejoin:round;">
<text x="30.8102" y="18.6436"
textLength="2.6222" font-size="1.6933" lengthAdjust="spacingAndGlyphs"
text-anchor="middle" opacity="0">10</text>
<g class="stroked-text"><desc>10</desc>
<path d="M30.5683 18.4801
L29.8426 18.4801
" />
<path d="M30.2054 18.4801
L30.2054 17.2101
" />
<path d="M30.2054 17.2101
L30.0845 17.3916
" />
<path d="M30.0845 17.3916
L29.9635 17.5125
" />
<path d="M29.9635 17.5125
L29.8426 17.5730
" />
<path d="M31.3544 17.2101
L31.4754 17.2101
" />
<path d="M31.4754 17.2101
L31.5963 17.2706
" />
<path d="M31.5963 17.2706
L31.6568 17.3311
" />
<path d="M31.6568 17.3311
L31.7173 17.4520
" />
<path d="M31.7173 17.4520
L31.7778 17.6939
" />
<path d="M31.7778 17.6939
L31.7778 17.9963
" />
<path d="M31.7778 17.9963
L31.7173 18.2382
" />
<path d="M31.7173 18.2382
L31.6568 18.3592
" />
<path d="M31.6568 18.3592
L31.5963 18.4197
" />
<path d="M31.5963 18.4197
L31.4754 18.4801
" />
<path d="M31.4754 18.4801
L31.3544 18.4801
" />
<path d="M31.3544 18.4801
L31.2335 18.4197
" />
<path d="M31.2335 18.4197
L31.1730 18.3592
" />
<path d="M31.1730 18.3592
L31.1125 18.2382
" />
<path d="M31.1125 18.2382
L31.0521 17.9963
" />
<path d="M31.0521 17.9963
L31.0521 17.6939
" />
<path d="M31.0521 17.6939
L31.1125 17.4520
" />
<path d="M31.1125 17.4520
L31.1730 17.3311
" />
<path d="M31.1730 17.3311
L31.2335 17.2706
" />
<path d="M31.2335 17.2706
L31.3544 17.2101
" />
</g></g>
<g style="fill:#840000; fill-opacity:0.0; 
stroke:#840000; stroke-width:0.1524; stroke-opacity:1; 
stroke-linecap:round; stroke-linejoin:round;">
<path d="M23.8252 21.4376
L20.0152 21.4376
" />
</g>
<g style="fill:#A90000; fill-opacity:0.0; 
stroke:#A90000; stroke-width:0.1524; stroke-opacity:1; 
stroke-linecap:round; stroke-linejoin:round;">
<text x="21.9202" y="21.1836"
textLength="2.6222" font-size="1.6933" lengthAdjust="spacingAndGlyphs"
text-anchor="middle" opacity="0">11</text>
<g class="stroked-text"><desc>11</desc>
<path d="M21.6783 21.0201
L20.9526 21.0201
" />
<path d="M21.3154 21.0201
L21.3154 19.7501
" />
<path d="M21.3154 19.7501
L21.1945 19.9316
" />
<path d="M21.1945 19.9316
L21.0735 20.0525
" />
<path d="M21.0735 20.0525
L20.9526 20.1130
" />
<path d="M22.8878 21.0201
L22.1621 21.0201
" />
<path d="M22.5249 21.0201
L22.5249 19.7501
" />
<path d="M22.5249 19.7501
L22.4040 19.9316
" />
<path d="M22.4040 19.9316
L22.2830 20.0525
" />
<path d="M22.2830 20.0525
L22.1621 20.1130
" />
</g></g>
<g style="fill:#840000; fill-opacity:0.0; 
stroke:#840000; stroke-width:0.1524; stroke-opacity:1; 
stroke-linecap:round; stroke-linejoin:round;">
<path d="M28.9052 21.4376
L32.7152 21.4376
" />
</g>
<g style="fill:#A90000; fill-opacity:0.0; 
stroke:#A90000; stroke-width:0.1524; stroke-opacity:1; 
stroke-linecap:round; stroke-linejoin:round;">
<text x="30.8102" y="21.1836"
textLength="2.6222" font-size="1.6933" lengthAdjust="spacingAndGlyphs"
text-anchor="middle" opacity="0">12</text>
<g class="stroked-text"><desc>12</desc>
<path d="M30.5683 21.0201
L29.8426 21.0201
" />
<path d="M30.2054 21.0201
L30.2054 19.7501
" />
<path d="M30.2054 19.7501
L30.0845 19.9316
" />
<path d="M30.0845 19.9316
L29.9635 20.0525
" />
<path d="M29.9635 20.0525
L29.8426 20.1130
" />
<path d="M31.0521 19.8711
L31.1125 19.8106
" />
<path d="M31.1125 19.8106
L31.2335 19.7501
" />
<path d="M31.2335 19.7501
L31.5359 19.7501
" />
<path d="M31.5359 19.7501
L31.6568 19.8106
" />
<path d="M31.6568 19.8106
L31.7173 19.8711
" />
<path d="M31.7173 19.8711
L31.7778 19.9920
" />
<path d="M31.7778 19.9920
L31.7778 20.1130
" />
<path d="M31.7778 20.1130
L31.7173 20.2944
" />
<path d="M31.7173 20.2944
L30.9916 21.0201
" />
<path d="M30.9916 21.0201
L31.7778 21.0201
" />
</g></g>
<g style="fill:#840000; fill-opacity:0.0; 
stroke:#840000; stroke-width:0.1524; stroke-opacity:1; 
stroke-linecap:round; stroke-linejoin:round;">
<path d="M23.8252 23.9776
L20.0152 23.9776
" />
</g>
<g style="fill:#A90000; fill-opacity:0.0; 
stroke:#A90000; stroke-width:0.1524; stroke-opacity:1; 
stroke-linecap:round; stroke-linejoin:round;">
<text x="21.9202" y="23.7236"
textLength="2.6222" font-size="1.6933" lengthAdjust="spacingAndGlyphs"
text-anchor="middle" opacity="0">13</text>
<g class="stroked-text"><desc>13</desc>
<path d="M21.6783 23.5601
L20.9526 23.5601
" />
<path d="M21.3154 23.5601
L21.3154 22.2901
" />
<path d="M21.3154 22.2901
L21.1945 22.4716
" />
<path d="M21.1945 22.4716
L21.0735 22.5925
" />
<path d="M21.0735 22.5925
L20.9526 22.6530
" />
<path d="M22.1016 22.2901
L22.8878 22.2901
" />
<path d="M22.8878 22.2901
L22.4644 22.7739
" />
<path d="M22.4644 22.7739
L22.6459 22.7739
" />
<path d="M22.6459 22.7739
L22.7668 22.8344
" />
<path d="M22.7668 22.8344
L22.8273 22.8949
" />
<path d="M22.8273 22.8949
L22.8878 23.0158
" />
<path d="M22.8878 23.0158
L22.8878 23.3182
" />
<path d="M22.8878 23.3182
L22.8273 23.4392
" />
<path d="M22.8273 23.4392
L22.7668 23.4997
" />
<path d="M22.7668 23.4997
L22.6459 23.5601
" />
<path d="M22.6459 23.5601
L22.2830 23.5601
" />
<path d="M22.2830 23.5601
L22.1621 23.4997
" />
<path d="M22.1621 23.4997
L22.1016 23.4392
" />
</g></g>
<g style="fill:#840000; fill-opacity:0.0; 
stroke:#840000; stroke-width:0.1524; stroke-opacity:1; 
stroke-linecap:round; stroke-linejoin:round;">
<path d="M28.9052 23.9776
L32.7152 23.9776
" />
</g>
<g style="fill:#A90000; fill-opacity:0.0; 
stroke:#A90000; stroke-width:0.1524; stroke-opacity:1; 
stroke-linecap:round; stroke-linejoin:round;">
<text x="30.8102" y="23.7236"
textLength="2.6222" font-size="1.6933" lengthAdjust="spacingAndGlyphs"
text-anchor="middle" opacity="0">14</text>
<g class="stroked-text"><desc>14</desc>
<path d="M30.5683 23.5601
L29.8426 23.5601
" />
<path d="M30.2054 23.5601
L30.2054 22.2901
" />
<path d="M30.2054 22.2901
L30.0845 22.4716
" />
<path d="M30.0845 22.4716
L29.9635 22.5925
" />
<path d="M29.9635 22.5925
L29.8426 22.6530
" />
<path d="M31.6568 22.7135
L31.6568 23.5601
" />
<path d="M31.3544 22.2297
L31.0521 23.1368
" />
<path d="M31.0521 23.1368
L31.8382 23.1368
" />
</g></g>
<g style="fill:#840000; fill-opacity:0.0; 
stroke:#840000; stroke-width:0.1524; stroke-opacity:1; 
stroke-linecap:round; stroke-linejoin:round;">
<path d="M23.8252 26.5176
L20.0152 26.5176
" />
</g>
<g style="fill:#A90000; fill-opacity:0.0; 
stroke:#A90000; stroke-width:0.1524; stroke-opacity:1; 
stroke-linecap:round; stroke-linejoin:round;">
<text x="21.9202" y="26.2636"
textLength="2.6222" font-size="1.6933" lengthAdjust="spacingAndGlyphs"
text-anchor="middle" opacity="0">15</text>
<g class="stroked-text"><desc>15</desc>
<path d="M21.6783 26.1001
L20.9526 26.1001
" />
<path d="M21.3154 26.1001
L21.3154 24.8301
" />
<path d="M21.3154 24.8301
L21.1945 25.0116
" />
<path d="M21.1945 25.0116
L21.0735 25.1325
" />
<path d="M21.0735 25.1325
L20.9526 25.1930
" />
<path d="M22.8273 24.8301
L22.2225 24.8301
" />
<path d="M22.2225 24.8301
L22.1621 25.4349
" />
<path d="M22.1621 25.4349
L22.2225 25.3744
" />
<path d="M22.2225 25.3744
L22.3435 25.3139
" />
<path d="M22.3435 25.3139
L22.6459 25.3139
" />
<path d="M22.6459 25.3139
L22.7668 25.3744
" />
<path d="M22.7668 25.3744
L22.8273 25.4349
" />
<path d="M22.8273 25.4349
L22.8878 25.5558
" />
<path d="M22.8878 25.5558
L22.8878 25.8582
" />
<path d="M22.8878 25.8582
L22.8273 25.9792
" />
<path d="M22.8273 25.9792
L22.7668 26.0397
" />
<path d="M22.7668 26.0397
L22.6459 26.1001
" />
<path d="M22.6459 26.1001
L22.3435 26.1001
" />
<path d="M22.3435 26.1001
L22.2225 26.0397
" />
<path d="M22.2225 26.0397
L22.1621 25.9792
" />
</g></g>
<g style="fill:#840000; fill-opacity:0.0; 
stroke:#840000; stroke-width:0.1524; stroke-opacity:1; 
stroke-linecap:round; stroke-linejoin:round;">
<path d="M28.9052 26.5176
L32.7152 26.5176
" />
</g>
<g style="fill:#A90000; fill-opacity:0.0; 
stroke:#A90000; stroke-width:0.1524; stroke-opacity:1; 
stroke-linecap:round; stroke-linejoin:round;">
<text x="30.8102" y="26.2636"
textLength="2.6222" font-size="1.6933" lengthAdjust="spacingAndGlyphs"
text-anchor="middle" opacity="0">16</text>
<g class="stroked-text"><desc>16</desc>
<path d="M30.5683 26.1001
L29.8426 26.1001
" />
<path d="M30.2054 26.1001
L30.2054 24.8301
" />
<path d="M30.2054 24.8301
L30.0845 25.0116
" />
<path d="M30.0845 25.0116
L29.9635 25.1325
" />
<path d="M29.9635 25.1325
L29.8426 25.1930
" />
<path d="M31.6568 24.8301
L31.4149 24.8301
" />
<path d="M31.4149 24.8301
L31.2940 24.8906
" />
<path d="M31.2940 24.8906
L31.2335 24.9511
" />
<path d="M31.2335 24.9511
L31.1125 25.1325
" />
<path d="M31.1125 25.1325
L31.0521 25.3744
" />
<path d="M31.0521 25.3744
L31.0521 25.8582
" />
<path d="M31.0521 25.8582
L31.1125 25.9792
" />
<path d="M31.1125 25.9792
L31.1730 26.0397
" />
<path d="M31.1730 26.0397
L31.2940 26.1001
" />
<path d="M31.2940 26.1001
L31.5359 26.1001
" />
<path d="M31.5359 26.1001
L31.6568 26.0397
" />
<path d="M31.6568 26.0397
L31.7173 25.9792
" />
<path d="M31.7173 25.9792
L31.7778 25.8582
" />
<path d="M31.7778 25.8582
L31.7778 25.5558
" />
<path d="M31.7778 25.5558
L31.7173 25.4349
" />
<path d="M31.7173 25.4349
L31.6568 25.3744
" />
<path d="M31.6568 25.3744
L31.5359 25.3139
" />
<path d="M31.5359 25.3139
L31.2940 25.3139
" />
<path d="M31.2940 25.3139
L31.1730 25.3744
" />
<path d="M31.1730 25.3744
L31.1125 25.4349
" />
<path d="M31.1125 25.4349
L31.0521 25.5558
" />
</g></g>
<g style="fill:#840000; fill-opacity:0.0; 
stroke:#840000; stroke-width:0.1524; stroke-opacity:1; 
stroke-linecap:round; stroke-linejoin:round;">
<path d="M23.8252 29.0576
L20.0152 29.0576
" />
</g>
<g style="fill:#A90000; fill-opacity:0.0; 
stroke:#A90000; stroke-width:0.1524; stroke-opacity:1; 
stroke-linecap:round; stroke-linejoin:round;">
<text x="21.9202" y="28.8036"
textLength="2.6222" font-size="1.6933" lengthAdjust="spacingAndGlyphs"
text-anchor="middle" opacity="0">17</text>
<g class="stroked-text"><desc>17</desc>
<path d="M21.6783 28.6401
L20.9526 28.6401
" />
<path d="M21.3154 28.6401
L21.3154 27.3701
" />
<path d="M21.3154 27.3701
L21.1945 27.5516
" />
<path d="M21.1945 27.5516
L21.0735 27.6725
" />
<path d="M21.0735 27.6725
L20.9526 27.7330
" />
<path d="M22.1016 27.3701
L22.9482 27.3701
" />
<path d="M22.9482 27.3701
L22.4040 28.6401
" />
</g></g>
<g style="fill:#840000; fill-opacity:0.0; 
stroke:#840000; stroke-width:0.1524; stroke-opacity:1; 
stroke-linecap:round; stroke-linejoin:round;">
<path d="M28.9052 29.0576
L32.7152 29.0576
" />
</g>
<g style="fill:#A90000; fill-opacity:0.0; 
stroke:#A90000; stroke-width:0.1524; stroke-opacity:1; 
stroke-linecap:round; stroke-linejoin:round;">
<text x="30.8102" y="28.8036"
textLength="2.6222" font-size="1.6933" lengthAdjust="spacingAndGlyphs"
text-anchor="middle" opacity="0">18</text>
<g class="stroked-text"><desc>18</desc>
<path d="M30.5683 28.6401
L29.8426 28.6401
" />
<path d="M30.2054 28.6401
L30.2054 27.3701
" />
<path d="M30.2054 27.3701
L30.0845 27.5516
" />
<path d="M30.0845 27.5516
L29.9635 27.6725
" />
<path d="M29.9635 27.6725
L29.8426 27.7330
" />
<path d="M31.2940 27.9144
L31.1730 27.8539
" />
<path d="M31.1730 27.8539
L31.1125 27.7935
" />
<path d="M31.1125 27.7935
L31.0521 27.6725
" />
<path d="M31.0521 27.6725
L31.0521 27.6120
" />
<path d="M31.0521 27.6120
L31.1125 27.4911
" />
<path d="M31.1125 27.4911
L31.1730 27.4306
" />
<path d="M31.1730 27.4306
L31.2940 27.3701
" />
<path d="M31.2940 27.3701
L31.5359 27.3701
" />
<path d="M31.5359 27.3701
L31.6568 27.4306
" />
<path d="M31.6568 27.4306
L31.7173 27.4911
" />
<path d="M31.7173 27.4911
L31.7778 27.6120
" />
<path d="M31.7778 27.6120
L31.7778 27.6725
" />
<path d="M31.7778 27.6725
L31.7173 27.7935
" />
<path d="M31.7173 27.7935
L31.6568 27.8539
" />
<path d="M31.6568 27.8539
L31.5359 27.9144
" />
<path d="M31.5359 27.9144
L31.2940 27.9144
" />
<path d="M31.2940 27.9144
L31.1730 27.9749
" />
<path d="M31.1730 27.9749
L31.1125 28.0354
" />
<path d="M31.1125 28.0354
L31.0521 28.1563
" />
<path d="M31.0521 28.1563
L31.0521 28.3982
" />
<path d="M31.0521 28.3982
L31.1125 28.5192
" />
<path d="M31.1125 28.5192
L31.1730 28.5797
" />
<path d="M31.1730 28.5797
L31.2940 28.6401
" />
<path d="M31.2940 28.6401
L31.5359 28.6401
" />
<path d="M31.5359 28.6401
L31.6568 28.5797
" />
<path d="M31.6568 28.5797
L31.7173 28.5192
" />
<path d="M31.7173 28.5192
L31.7778 28.3982
" />
<path d="M31.7778 28.3982
L31.7778 28.1563
" />
<path d="M31.7778 28.1563
L31.7173 28.0354
" />
<path d="M31.7173 28.0354
L31.6568 27.9749
" />
<path d="M31.6568 27.9749
L31.5359 27.9144
" />
</g></g>
<g style="fill:#840000; fill-opacity:0.0; 
stroke:#840000; stroke-width:0.1524; stroke-opacity:1; 
stroke-linecap:round; stroke-linejoin:round;">
<path d="M23.8252 31.5976
L20.0152 31.5976
" />
</g>
<g style="fill:#A90000; fill-opacity:0.0; 
stroke:#A90000; stroke-width:0.1524; stroke-opacity:1; 
stroke-linecap:round; stroke-linejoin:round;">
<text x="21.9202" y="31.3436"
textLength="2.6222" font-size="1.6933" lengthAdjust="spacingAndGlyphs"
text-anchor="middle" opacity="0">19</text>
<g class="stroked-text"><desc>19</desc>
<path d="M21.6783 31.1801
L20.9526 31.1801
" />
<path d="M21.3154 31.1801
L21.3154 29.9101
" />
<path d="M21.3154 29.9101
L21.1945 30.0916
" />
<path d="M21.1945 30.0916
L21.0735 30.2125
" />
<path d="M21.0735 30.2125
L20.9526 30.2730
" />
<path d="M22.2830 31.1801
L22.5249 31.1801
" />
<path d="M22.5249 31.1801
L22.6459 31.1197
" />
<path d="M22.6459 31.1197
L22.7063 31.0592
" />
<path d="M22.7063 31.0592
L22.8273 30.8777
" />
<path d="M22.8273 30.8777
L22.8878 30.6358
" />
<path d="M22.8878 30.6358
L22.8878 30.1520
" />
<path d="M22.8878 30.1520
L22.8273 30.0311
" />
<path d="M22.8273 30.0311
L22.7668 29.9706
" />
<path d="M22.7668 29.9706
L22.6459 29.9101
" />
<path d="M22.6459 29.9101
L22.4040 29.9101
" />
<path d="M22.4040 29.9101
L22.2830 29.9706
" />
<path d="M22.2830 29.9706
L22.2225 30.0311
" />
<path d="M22.2225 30.0311
L22.1621 30.1520
" />
<path d="M22.1621 30.1520
L22.1621 30.4544
" />
<path d="M22.1621 30.4544
L22.2225 30.5754
" />
<path d="M22.2225 30.5754
L22.2830 30.6358
" />
<path d="M22.2830 30.6358
L22.4040 30.6963
" />
<path d="M22.4040 30.6963
L22.6459 30.6963
" />
<path d="M22.6459 30.6963
L22.7668 30.6358
" />
<path d="M22.7668 30.6358
L22.8273 30.5754
" />
<path d="M22.8273 30.5754
L22.8878 30.4544
" />
</g></g>
<g style="fill:#840000; fill-opacity:0.0; 
stroke:#840000; stroke-width:0.1524; stroke-opacity:1; 
stroke-linecap:round; stroke-linejoin:round;">
<path d="M28.9052 8.7376
L32.7152 8.7376
" />
</g>
<g style="fill:#A90000; fill-opacity:0.0; 
stroke:#A90000; stroke-width:0.1524; stroke-opacity:1; 
stroke-linecap:round; stroke-linejoin:round;">
<text x="30.8102" y="8.4836"
textLength="1.4127" font-size="1.6933" lengthAdjust="spacingAndGlyphs"
text-anchor="middle" opacity="0">2</text>
<g class="stroked-text"><desc>2</desc>
<path d="M30.4474 7.1711
L30.5078 7.1106
" />
<path d="M30.5078 7.1106
L30.6288 7.0501
" />
<path d="M30.6288 7.0501
L30.9312 7.0501
" />
<path d="M30.9312 7.0501
L31.0521 7.1106
" />
<path d="M31.0521 7.1106
L31.1126 7.1711
" />
<path d="M31.1126 7.1711
L31.1731 7.2920
" />
<path d="M31.1731 7.2920
L31.1731 7.4130
" />
<path d="M31.1731 7.4130
L31.1126 7.5944
" />
<path d="M31.1126 7.5944
L30.3869 8.3201
" />
<path d="M30.3869 8.3201
L31.1731 8.3201
" />
</g></g>
<g style="fill:#840000; fill-opacity:0.0; 
stroke:#840000; stroke-width:0.1524; stroke-opacity:1; 
stroke-linecap:round; stroke-linejoin:round;">
<path d="M28.9052 31.5976
L32.7152 31.5976
" />
</g>
<g style="fill:#A90000; fill-opacity:0.0; 
stroke:#A90000; stroke-width:0.1524; stroke-opacity:1; 
stroke-linecap:round; stroke-linejoin:round;">
<text x="30.8102" y="31.3436"
textLength="2.6222" font-size="1.6933" lengthAdjust="spacingAndGlyphs"
text-anchor="middle" opacity="0">20</text>
<g class="stroked-text"><desc>20</desc>
<path d="M29.8426 30.0311
L29.9030 29.9706
" />
<path d="M29.9030 29.9706
L30.0240 29.9101
" />
<path d="M30.0240 29.9101
L30.3264 29.9101
" />
<path d="M30.3264 29.9101
L30.4473 29.9706
" />
<path d="M30.4473 29.9706
L30.5078 30.0311
" />
<path d="M30.5078 30.0311
L30.5683 30.1520
" />
<path d="M30.5683 30.1520
L30.5683 30.2730
" />
<path d="M30.5683 30.2730
L30.5078 30.4544
" />
<path d="M30.5078 30.4544
L29.7821 31.1801
" />
<path d="M29.7821 31.1801
L30.5683 31.1801
" />
<path d="M31.3544 29.9101
L31.4754 29.9101
" />
<path d="M31.4754 29.9101
L31.5963 29.9706
" />
<path d="M31.5963 29.9706
L31.6568 30.0311
" />
<path d="M31.6568 30.0311
L31.7173 30.1520
" />
<path d="M31.7173 30.1520
L31.7778 30.3939
" />
<path d="M31.7778 30.3939
L31.7778 30.6963
" />
<path d="M31.7778 30.6963
L31.7173 30.9382
" />
<path d="M31.7173 30.9382
L31.6568 31.0592
" />
<path d="M31.6568 31.0592
L31.5963 31.1197
" />
<path d="M31.5963 31.1197
L31.4754 31.1801
" />
<path d="M31.4754 31.1801
L31.3544 31.1801
" />
<path d="M31.3544 31.1801
L31.2335 31.1197
" />
<path d="M31.2335 31.1197
L31.1730 31.0592
" />
<path d="M31.1730 31.0592
L31.1125 30.9382
" />
<path d="M31.1125 30.9382
L31.0521 30.6963
" />
<path d="M31.0521 30.6963
L31.0521 30.3939
" />
<path d="M31.0521 30.3939
L31.1125 30.1520
" />
<path d="M31.1125 30.1520
L31.1730 30.0311
" />
<path d="M31.1730 30.0311
L31.2335 29.9706
" />
<path d="M31.2335 29.9706
L31.3544 29.9101
" />
</g></g>
<g style="fill:#840000; fill-opacity:0.0; 
stroke:#840000; stroke-width:0.1524; stroke-opacity:1; 
stroke-linecap:round; stroke-linejoin:round;">
<path d="M23.8252 34.1376
L20.0152 34.1376
" />
</g>
<g style="fill:#A90000; fill-opacity:0.0; 
stroke:#A90000; stroke-width:0.1524; stroke-opacity:1; 
stroke-linecap:round; stroke-linejoin:round;">
<text x="21.9202" y="33.8836"
textLength="2.6222" font-size="1.6933" lengthAdjust="spacingAndGlyphs"
text-anchor="middle" opacity="0">21</text>
<g class="stroked-text"><desc>21</desc>
<path d="M20.9526 32.5711
L21.0130 32.5106
" />
<path d="M21.0130 32.5106
L21.1340 32.4501
" />
<path d="M21.1340 32.4501
L21.4364 32.4501
" />
<path d="M21.4364 32.4501
L21.5573 32.5106
" />
<path d="M21.5573 32.5106
L21.6178 32.5711
" />
<path d="M21.6178 32.5711
L21.6783 32.6920
" />
<path d="M21.6783 32.6920
L21.6783 32.8130
" />
<path d="M21.6783 32.8130
L21.6178 32.9944
" />
<path d="M21.6178 32.9944
L20.8921 33.7201
" />
<path d="M20.8921 33.7201
L21.6783 33.7201
" />
<path d="M22.8878 33.7201
L22.1621 33.7201
" />
<path d="M22.5249 33.7201
L22.5249 32.4501
" />
<path d="M22.5249 32.4501
L22.4040 32.6316
" />
<path d="M22.4040 32.6316
L22.2830 32.7525
" />
<path d="M22.2830 32.7525
L22.1621 32.8130
" />
</g></g>
<g style="fill:#840000; fill-opacity:0.0; 
stroke:#840000; stroke-width:0.1524; stroke-opacity:1; 
stroke-linecap:round; stroke-linejoin:round;">
<path d="M28.9052 34.1376
L32.7152 34.1376
" />
</g>
<g style="fill:#A90000; fill-opacity:0.0; 
stroke:#A90000; stroke-width:0.1524; stroke-opacity:1; 
stroke-linecap:round; stroke-linejoin:round;">
<text x="30.8102" y="33.8836"
textLength="2.6222" font-size="1.6933" lengthAdjust="spacingAndGlyphs"
text-anchor="middle" opacity="0">22</text>
<g class="stroked-text"><desc>22</desc>
<path d="M29.8426 32.5711
L29.9030 32.5106
" />
<path d="M29.9030 32.5106
L30.0240 32.4501
" />
<path d="M30.0240 32.4501
L30.3264 32.4501
" />
<path d="M30.3264 32.4501
L30.4473 32.5106
" />
<path d="M30.4473 32.5106
L30.5078 32.5711
" />
<path d="M30.5078 32.5711
L30.5683 32.6920
" />
<path d="M30.5683 32.6920
L30.5683 32.8130
" />
<path d="M30.5683 32.8130
L30.5078 32.9944
" />
<path d="M30.5078 32.9944
L29.7821 33.7201
" />
<path d="M29.7821 33.7201
L30.5683 33.7201
" />
<path d="M31.0521 32.5711
L31.1125 32.5106
" />
<path d="M31.1125 32.5106
L31.2335 32.4501
" />
<path d="M31.2335 32.4501
L31.5359 32.4501
" />
<path d="M31.5359 32.4501
L31.6568 32.5106
" />
<path d="M31.6568 32.5106
L31.7173 32.5711
" />
<path d="M31.7173 32.5711
L31.7778 32.6920
" />
<path d="M31.7778 32.6920
L31.7778 32.8130
" />
<path d="M31.7778 32.8130
L31.7173 32.9944
" />
<path d="M31.7173 32.9944
L30.9916 33.7201
" />
<path d="M30.9916 33.7201
L31.7778 33.7201
" />
</g></g>
<g style="fill:#840000; fill-opacity:0.0; 
stroke:#840000; stroke-width:0.1524; stroke-opacity:1; 
stroke-linecap:round; stroke-linejoin:round;">
<path d="M23.8252 36.6776
L20.0152 36.6776
" />
</g>
<g style="fill:#A90000; fill-opacity:0.0; 
stroke:#A90000; stroke-width:0.1524; stroke-opacity:1; 
stroke-linecap:round; stroke-linejoin:round;">
<text x="21.9202" y="36.4236"
textLength="2.6222" font-size="1.6933" lengthAdjust="spacingAndGlyphs"
text-anchor="middle" opacity="0">23</text>
<g class="stroked-text"><desc>23</desc>
<path d="M20.9526 35.1111
L21.0130 35.0506
" />
<path d="M21.0130 35.0506
L21.1340 34.9901
" />
<path d="M21.1340 34.9901
L21.4364 34.9901
" />
<path d="M21.4364 34.9901
L21.5573 35.0506
" />
<path d="M21.5573 35.0506
L21.6178 35.1111
" />
<path d="M21.6178 35.1111
L21.6783 35.2320
" />
<path d="M21.6783 35.2320
L21.6783 35.3530
" />
<path d="M21.6783 35.3530
L21.6178 35.5344
" />
<path d="M21.6178 35.5344
L20.8921 36.2601
" />
<path d="M20.8921 36.2601
L21.6783 36.2601
" />
<path d="M22.1016 34.9901
L22.8878 34.9901
" />
<path d="M22.8878 34.9901
L22.4644 35.4739
" />
<path d="M22.4644 35.4739
L22.6459 35.4739
" />
<path d="M22.6459 35.4739
L22.7668 35.5344
" />
<path d="M22.7668 35.5344
L22.8273 35.5949
" />
<path d="M22.8273 35.5949
L22.8878 35.7158
" />
<path d="M22.8878 35.7158
L22.8878 36.0182
" />
<path d="M22.8878 36.0182
L22.8273 36.1392
" />
<path d="M22.8273 36.1392
L22.7668 36.1997
" />
<path d="M22.7668 36.1997
L22.6459 36.2601
" />
<path d="M22.6459 36.2601
L22.2830 36.2601
" />
<path d="M22.2830 36.2601
L22.1621 36.1997
" />
<path d="M22.1621 36.1997
L22.1016 36.1392
" />
</g></g>
<g style="fill:#840000; fill-opacity:0.0; 
stroke:#840000; stroke-width:0.1524; stroke-opacity:1; 
stroke-linecap:round; stroke-linejoin:round;">
<path d="M28.9052 36.6776
L32.7152 36.6776
" />
</g>
<g style="fill:#A90000; fill-opacity:0.0; 
stroke:#A90000; stroke-width:0.1524; stroke-opacity:1; 
stroke-linecap:round; stroke-linejoin:round;">
<text x="30.8102" y="36.4236"
textLength="2.6222" font-size="1.6933" lengthAdjust="spacingAndGlyphs"
text-anchor="middle" opacity="0">24</text>
<g class="stroked-text"><desc>24</desc>
<path d="M29.8426 35.1111
L29.9030 35.0506
" />
<path d="M29.9030 35.0506
L30.0240 34.9901
" />
<path d="M30.0240 34.9901
L30.3264 34.9901
" />
<path d="M30.3264 34.9901
L30.4473 35.0506
" />
<path d="M30.4473 35.0506
L30.5078 35.1111
" />
<path d="M30.5078 35.1111
L30.5683 35.2320
" />
<path d="M30.5683 35.2320
L30.5683 35.3530
" />
<path d="M30.5683 35.3530
L30.5078 35.5344
" />
<path d="M30.5078 35.5344
L29.7821 36.2601
" />
<path d="M29.7821 36.2601
L30.5683 36.2601
" />
<path d="M31.6568 35.4135
L31.6568 36.2601
" />
<path d="M31.3544 34.9297
L31.0521 35.8368
" />
<path d="M31.0521 35.8368
L31.8382 35.8368
" />
</g></g>
<g style="fill:#840000; fill-opacity:0.0; 
stroke:#840000; stroke-width:0.1524; stroke-opacity:1; 
stroke-linecap:round; stroke-linejoin:round;">
<path d="M23.8252 39.2176
L20.0152 39.2176
" />
</g>
<g style="fill:#A90000; fill-opacity:0.0; 
stroke:#A90000; stroke-width:0.1524; stroke-opacity:1; 
stroke-linecap:round; stroke-linejoin:round;">
<text x="21.9202" y="38.9636"
textLength="2.6222" font-size="1.6933" lengthAdjust="spacingAndGlyphs"
text-anchor="middle" opacity="0">25</text>
<g class="stroked-text"><desc>25</desc>
<path d="M20.9526 37.6511
L21.0130 37.5906
" />
<path d="M21.0130 37.5906
L21.1340 37.5301
" />
<path d="M21.1340 37.5301
L21.4364 37.5301
" />
<path d="M21.4364 37.5301
L21.5573 37.5906
" />
<path d="M21.5573 37.5906
L21.6178 37.6511
" />
<path d="M21.6178 37.6511
L21.6783 37.7720
" />
<path d="M21.6783 37.7720
L21.6783 37.8930
" />
<path d="M21.6783 37.8930
L21.6178 38.0744
" />
<path d="M21.6178 38.0744
L20.8921 38.8001
" />
<path d="M20.8921 38.8001
L21.6783 38.8001
" />
<path d="M22.8273 37.5301
L22.2225 37.5301
" />
<path d="M22.2225 37.5301
L22.1621 38.1349
" />
<path d="M22.1621 38.1349
L22.2225 38.0744
" />
<path d="M22.2225 38.0744
L22.3435 38.0139
" />
<path d="M22.3435 38.0139
L22.6459 38.0139
" />
<path d="M22.6459 38.0139
L22.7668 38.0744
" />
<path d="M22.7668 38.0744
L22.8273 38.1349
" />
<path d="M22.8273 38.1349
L22.8878 38.2558
" />
<path d="M22.8878 38.2558
L22.8878 38.5582
" />
<path d="M22.8878 38.5582
L22.8273 38.6792
" />
<path d="M22.8273 38.6792
L22.7668 38.7397
" />
<path d="M22.7668 38.7397
L22.6459 38.8001
" />
<path d="M22.6459 38.8001
L22.3435 38.8001
" />
<path d="M22.3435 38.8001
L22.2225 38.7397
" />
<path d="M22.2225 38.7397
L22.1621 38.6792
" />
</g></g>
<g style="fill:#840000; fill-opacity:0.0; 
stroke:#840000; stroke-width:0.1524; stroke-opacity:1; 
stroke-linecap:round; stroke-linejoin:round;">
<path d="M28.9052 39.2176
L32.7152 39.2176
" />
</g>
<g style="fill:#A90000; fill-opacity:0.0; 
stroke:#A90000; stroke-width:0.1524; stroke-opacity:1; 
stroke-linecap:round; stroke-linejoin:round;">
<text x="30.8102" y="38.9636"
textLength="2.6222" font-size="1.6933" lengthAdjust="spacingAndGlyphs"
text-anchor="middle" opacity="0">26</text>
<g class="stroked-text"><desc>26</desc>
<path d="M29.8426 37.6511
L29.9030 37.5906
" />
<path d="M29.9030 37.5906
L30.0240 37.5301
" />
<path d="M30.0240 37.5301
L30.3264 37.5301
" />
<path d="M30.3264 37.5301
L30.4473 37.5906
" />
<path d="M30.4473 37.5906
L30.5078 37.6511
" />
<path d="M30.5078 37.6511
L30.5683 37.7720
" />
<path d="M30.5683 37.7720
L30.5683 37.8930
" />
<path d="M30.5683 37.8930
L30.5078 38.0744
" />
<path d="M30.5078 38.0744
L29.7821 38.8001
" />
<path d="M29.7821 38.8001
L30.5683 38.8001
" />
<path d="M31.6568 37.5301
L31.4149 37.5301
" />
<path d="M31.4149 37.5301
L31.2940 37.5906
" />
<path d="M31.2940 37.5906
L31.2335 37.6511
" />
<path d="M31.2335 37.6511
L31.1125 37.8325
" />
<path d="M31.1125 37.8325
L31.0521 38.0744
" />
<path d="M31.0521 38.0744
L31.0521 38.5582
" />
<path d="M31.0521 38.5582
L31.1125 38.6792
" />
<path d="M31.1125 38.6792
L31.1730 38.7397
" />
<path d="M31.1730 38.7397
L31.2940 38.8001
" />
<path d="M31.2940 38.8001
L31.5359 38.8001
" />
<path d="M31.5359 38.8001
L31.6568 38.7397
" />
<path d="M31.6568 38.7397
L31.7173 38.6792
" />
<path d="M31.7173 38.6792
L31.7778 38.5582
" />
<path d="M31.7778 38.5582
L31.7778 38.2558
" />
<path d="M31.7778 38.2558
L31.7173 38.1349
" />
<path d="M31.7173 38.1349
L31.6568 38.0744
" />
<path d="M31.6568 38.0744
L31.5359 38.0139
" />
<path d="M31.5359 38.0139
L31.2940 38.0139
" />
<path d="M31.2940 38.0139
L31.1730 38.0744
" />
<path d="M31.1730 38.0744
L31.1125 38.1349
" />
<path d="M31.1125 38.1349
L31.0521 38.2558
" />
</g></g>
<g style="fill:#840000; fill-opacity:0.0; 
stroke:#840000; stroke-width:0.1524; stroke-opacity:1; 
stroke-linecap:round; stroke-linejoin:round;">
<path d="M23.8252 41.7576
L20.0152 41.7576
" />
</g>
<g style="fill:#A90000; fill-opacity:0.0; 
stroke:#A90000; stroke-width:0.1524; stroke-opacity:1; 
stroke-linecap:round; stroke-linejoin:round;">
<text x="21.9202" y="41.5036"
textLength="2.6222" font-size="1.6933" lengthAdjust="spacingAndGlyphs"
text-anchor="middle" opacity="0">27</text>
<g class="stroked-text"><desc>27</desc>
<path d="M20.9526 40.1911
L21.0130 40.1306
" />
<path d="M21.0130 40.1306
L21.1340 40.0701
" />
<path d="M21.1340 40.0701
L21.4364 40.0701
" />
<path d="M21.4364 40.0701
L21.5573 40.1306
" />
<path d="M21.5573 40.1306
L21.6178 40.1911
" />
<path d="M21.6178 40.1911
L21.6783 40.3120
" />
<path d="M21.6783 40.3120
L21.6783 40.4330
" />
<path d="M21.6783 40.4330
L21.6178 40.6144
" />
<path d="M21.6178 40.6144
L20.8921 41.3401
" />
<path d="M20.8921 41.3401
L21.6783 41.3401
" />
<path d="M22.1016 40.0701
L22.9482 40.0701
" />
<path d="M22.9482 40.0701
L22.4040 41.3401
" />
</g></g>
<g style="fill:#840000; fill-opacity:0.0; 
stroke:#840000; stroke-width:0.1524; stroke-opacity:1; 
stroke-linecap:round; stroke-linejoin:round;">
<path d="M28.9052 41.7576
L32.7152 41.7576
" />
</g>
<g style="fill:#A90000; fill-opacity:0.0; 
stroke:#A90000; stroke-width:0.1524; stroke-opacity:1; 
stroke-linecap:round; stroke-linejoin:round;">
<text x="30.8102" y="41.5036"
textLength="2.6222" font-size="1.6933" lengthAdjust="spacingAndGlyphs"
text-anchor="middle" opacity="0">28</text>
<g class="stroked-text"><desc>28</desc>
<path d="M29.8426 40.1911
L29.9030 40.1306
" />
<path d="M29.9030 40.1306
L30.0240 40.0701
" />
<path d="M30.0240 40.0701
L30.3264 40.0701
" />
<path d="M30.3264 40.0701
L30.4473 40.1306
" />
<path d="M30.4473 40.1306
L30.5078 40.1911
" />
<path d="M30.5078 40.1911
L30.5683 40.3120
" />
<path d="M30.5683 40.3120
L30.5683 40.4330
" />
<path d="M30.5683 40.4330
L30.5078 40.6144
" />
<path d="M30.5078 40.6144
L29.7821 41.3401
" />
<path d="M29.7821 41.3401
L30.5683 41.3401
" />
<path d="M31.2940 40.6144
L31.1730 40.5539
" />
<path d="M31.1730 40.5539
L31.1125 40.4935
" />
<path d="M31.1125 40.4935
L31.0521 40.3725
" />
<path d="M31.0521 40.3725
L31.0521 40.3120
" />
<path d="M31.0521 40.3120
L31.1125 40.1911
" />
<path d="M31.1125 40.1911
L31.1730 40.1306
" />
<path d="M31.1730 40.1306
L31.2940 40.0701
" />
<path d="M31.2940 40.0701
L31.5359 40.0701
" />
<path d="M31.5359 40.0701
L31.6568 40.1306
" />
<path d="M31.6568 40.1306
L31.7173 40.1911
" />
<path d="M31.7173 40.1911
L31.7778 40.3120
" />
<path d="M31.7778 40.3120
L31.7778 40.3725
" />
<path d="M31.7778 40.3725
L31.7173 40.4935
" />
<path d="M31.7173 40.4935
L31.6568 40.5539
" />
<path d="M31.6568 40.5539
L31.5359 40.6144
" />
<path d="M31.5359 40.6144
L31.2940 40.6144
" />
<path d="M31.2940 40.6144
L31.1730 40.6749
" />
<path d="M31.1730 40.6749
L31.1125 40.7354
" />
<path d="M31.1125 40.7354
L31.0521 40.8563
" />
<path d="M31.0521 40.8563
L31.0521 41.0982
" />
<path d="M31.0521 41.0982
L31.1125 41.2192
" />
<path d="M31.1125 41.2192
L31.1730 41.2797
" />
<path d="M31.1730 41.2797
L31.2940 41.3401
" />
<path d="M31.2940 41.3401
L31.5359 41.3401
" />
<path d="M31.5359 41.3401
L31.6568 41.2797
" />
<path d="M31.6568 41.2797
L31.7173 41.2192
" />
<path d="M31.7173 41.2192
L31.7778 41.0982
" />
<path d="M31.7778 41.0982
L31.7778 40.8563
" />
<path d="M31.7778 40.8563
L31.7173 40.7354
" />
<path d="M31.7173 40.7354
L31.6568 40.6749
" />
<path d="M31.6568 40.6749
L31.5359 40.6144
" />
</g></g>
<g style="fill:#840000; fill-opacity:0.0; 
stroke:#840000; stroke-width:0.1524; stroke-opacity:1; 
stroke-linecap:round; stroke-linejoin:round;">
<path d="M23.8252 44.2976
L20.0152 44.2976
" />
</g>
<g style="fill:#A90000; fill-opacity:0.0; 
stroke:#A90000; stroke-width:0.1524; stroke-opacity:1; 
stroke-linecap:round; stroke-linejoin:round;">
<text x="21.9202" y="44.0436"
textLength="2.6222" font-size="1.6933" lengthAdjust="spacingAndGlyphs"
text-anchor="middle" opacity="0">29</text>
<g class="stroked-text"><desc>29</desc>
<path d="M20.9526 42.7311
L21.0130 42.6706
" />
<path d="M21.0130 42.6706
L21.1340 42.6101
" />
<path d="M21.1340 42.6101
L21.4364 42.6101
" />
<path d="M21.4364 42.6101
L21.5573 42.6706
" />
<path d="M21.5573 42.6706
L21.6178 42.7311
" />
<path d="M21.6178 42.7311
L21.6783 42.8520
" />
<path d="M21.6783 42.8520
L21.6783 42.9730
" />
<path d="M21.6783 42.9730
L21.6178 43.1544
" />
<path d="M21.6178 43.1544
L20.8921 43.8801
" />
<path d="M20.8921 43.8801
L21.6783 43.8801
" />
<path d="M22.2830 43.8801
L22.5249 43.8801
" />
<path d="M22.5249 43.8801
L22.6459 43.8197
" />
<path d="M22.6459 43.8197
L22.7063 43.7592
" />
<path d="M22.7063 43.7592
L22.8273 43.5777
" />
<path d="M22.8273 43.5777
L22.8878 43.3358
" />
<path d="M22.8878 43.3358
L22.8878 42.8520
" />
<path d="M22.8878 42.8520
L22.8273 42.7311
" />
<path d="M22.8273 42.7311
L22.7668 42.6706
" />
<path d="M22.7668 42.6706
L22.6459 42.6101
" />
<path d="M22.6459 42.6101
L22.4040 42.6101
" />
<path d="M22.4040 42.6101
L22.2830 42.6706
" />
<path d="M22.2830 42.6706
L22.2225 42.7311
" />
<path d="M22.2225 42.7311
L22.1621 42.8520
" />
<path d="M22.1621 42.8520
L22.1621 43.1544
" />
<path d="M22.1621 43.1544
L22.2225 43.2754
" />
<path d="M22.2225 43.2754
L22.2830 43.3358
" />
<path d="M22.2830 43.3358
L22.4040 43.3963
" />
<path d="M22.4040 43.3963
L22.6459 43.3963
" />
<path d="M22.6459 43.3963
L22.7668 43.3358
" />
<path d="M22.7668 43.3358
L22.8273 43.2754
" />
<path d="M22.8273 43.2754
L22.8878 43.1544
" />
</g></g>
<g style="fill:#840000; fill-opacity:0.0; 
stroke:#840000; stroke-width:0.1524; stroke-opacity:1; 
stroke-linecap:round; stroke-linejoin:round;">
<path d="M23.8252 11.2776
L20.0152 11.2776
" />
</g>
<g style="fill:#A90000; fill-opacity:0.0; 
stroke:#A90000; stroke-width:0.1524; stroke-opacity:1; 
stroke-linecap:round; stroke-linejoin:round;">
<text x="21.9202" y="11.0236"
textLength="1.4127" font-size="1.6933" lengthAdjust="spacingAndGlyphs"
text-anchor="middle" opacity="0">3</text>
<g class="stroked-text"><desc>3</desc>
<path d="M21.4969 9.5901
L22.2831 9.5901
" />
<path d="M22.2831 9.5901
L21.8597 10.0739
" />
<path d="M21.8597 10.0739
L22.0412 10.0739
" />
<path d="M22.0412 10.0739
L22.1621 10.1344
" />
<path d="M22.1621 10.1344
L22.2226 10.1949
" />
<path d="M22.2226 10.1949
L22.2831 10.3158
" />
<path d="M22.2831 10.3158
L22.2831 10.6182
" />
<path d="M22.2831 10.6182
L22.2226 10.7392
" />
<path d="M22.2226 10.7392
L22.1621 10.7997
" />
<path d="M22.1621 10.7997
L22.0412 10.8601
" />
<path d="M22.0412 10.8601
L21.6783 10.8601
" />
<path d="M21.6783 10.8601
L21.5574 10.7997
" />
<path d="M21.5574 10.7997
L21.4969 10.7392
" />
</g></g>
<g style="fill:#840000; fill-opacity:0.0; 
stroke:#840000; stroke-width:0.1524; stroke-opacity:1; 
stroke-linecap:round; stroke-linejoin:round;">
<path d="M28.9052 44.2976
L32.7152 44.2976
" />
</g>
<g style="fill:#A90000; fill-opacity:0.0; 
stroke:#A90000; stroke-width:0.1524; stroke-opacity:1; 
stroke-linecap:round; stroke-linejoin:round;">
<text x="30.8102" y="44.0436"
textLength="2.6222" font-size="1.6933" lengthAdjust="spacingAndGlyphs"
text-anchor="middle" opacity="0">30</text>
<g class="stroked-text"><desc>30</desc>
<path d="M29.7821 42.6101
L30.5683 42.6101
" />
<path d="M30.5683 42.6101
L30.1449 43.0939
" />
<path d="M30.1449 43.0939
L30.3264 43.0939
" />
<path d="M30.3264 43.0939
L30.4473 43.1544
" />
<path d="M30.4473 43.1544
L30.5078 43.2149
" />
<path d="M30.5078 43.2149
L30.5683 43.3358
" />
<path d="M30.5683 43.3358
L30.5683 43.6382
" />
<path d="M30.5683 43.6382
L30.5078 43.7592
" />
<path d="M30.5078 43.7592
L30.4473 43.8197
" />
<path d="M30.4473 43.8197
L30.3264 43.8801
" />
<path d="M30.3264 43.8801
L29.9635 43.8801
" />
<path d="M29.9635 43.8801
L29.8426 43.8197
" />
<path d="M29.8426 43.8197
L29.7821 43.7592
" />
<path d="M31.3544 42.6101
L31.4754 42.6101
" />
<path d="M31.4754 42.6101
L31.5963 42.6706
" />
<path d="M31.5963 42.6706
L31.6568 42.7311
" />
<path d="M31.6568 42.7311
L31.7173 42.8520
" />
<path d="M31.7173 42.8520
L31.7778 43.0939
" />
<path d="M31.7778 43.0939
L31.7778 43.3963
" />
<path d="M31.7778 43.3963
L31.7173 43.6382
" />
<path d="M31.7173 43.6382
L31.6568 43.7592
" />
<path d="M31.6568 43.7592
L31.5963 43.8197
" />
<path d="M31.5963 43.8197
L31.4754 43.8801
" />
<path d="M31.4754 43.8801
L31.3544 43.8801
" />
<path d="M31.3544 43.8801
L31.2335 43.8197
" />
<path d="M31.2335 43.8197
L31.1730 43.7592
" />
<path d="M31.1730 43.7592
L31.1125 43.6382
" />
<path d="M31.1125 43.6382
L31.0521 43.3963
" />
<path d="M31.0521 43.3963
L31.0521 43.0939
" />
<path d="M31.0521 43.0939
L31.1125 42.8520
" />
<path d="M31.1125 42.8520
L31.1730 42.7311
" />
<path d="M31.1730 42.7311
L31.2335 42.6706
" />
<path d="M31.2335 42.6706
L31.3544 42.6101
" />
</g></g>
<g style="fill:#840000; fill-opacity:0.0; 
stroke:#840000; stroke-width:0.1524; stroke-opacity:1; 
stroke-linecap:round; stroke-linejoin:round;">
<path d="M28.9052 11.2776
L32.7152 11.2776
" />
</g>
<g style="fill:#A90000; fill-opacity:0.0; 
stroke:#A90000; stroke-width:0.1524; stroke-opacity:1; 
stroke-linecap:round; stroke-linejoin:round;">
<text x="30.8102" y="11.0236"
textLength="1.4127" font-size="1.6933" lengthAdjust="spacingAndGlyphs"
text-anchor="middle" opacity="0">4</text>
<g class="stroked-text"><desc>4</desc>
<path d="M31.0521 10.0135
L31.0521 10.8601
" />
<path d="M30.7497 9.5297
L30.4474 10.4368
" />
<path d="M30.4474 10.4368
L31.2335 10.4368
" />
</g></g>
<g style="fill:#840000; fill-opacity:0.0; 
stroke:#840000; stroke-width:0.1524; stroke-opacity:1; 
stroke-linecap:round; stroke-linejoin:round;">
<path d="M23.8252 13.8176
L20.0152 13.8176
" />
</g>
<g style="fill:#A90000; fill-opacity:0.0; 
stroke:#A90000; stroke-width:0.1524; stroke-opacity:1; 
stroke-linecap:round; stroke-linejoin:round;">
<text x="21.9202" y="13.5636"
textLength="1.4127" font-size="1.6933" lengthAdjust="spacingAndGlyphs"
text-anchor="middle" opacity="0">5</text>
<g class="stroked-text"><desc>5</desc>
<path d="M22.2226 12.1301
L21.6178 12.1301
" />
<path d="M21.6178 12.1301
L21.5574 12.7349
" />
<path d="M21.5574 12.7349
L21.6178 12.6744
" />
<path d="M21.6178 12.6744
L21.7388 12.6139
" />
<path d="M21.7388 12.6139
L22.0412 12.6139
" />
<path d="M22.0412 12.6139
L22.1621 12.6744
" />
<path d="M22.1621 12.6744
L22.2226 12.7349
" />
<path d="M22.2226 12.7349
L22.2831 12.8558
" />
<path d="M22.2831 12.8558
L22.2831 13.1582
" />
<path d="M22.2831 13.1582
L22.2226 13.2792
" />
<path d="M22.2226 13.2792
L22.1621 13.3397
" />
<path d="M22.1621 13.3397
L22.0412 13.4001
" />
<path d="M22.0412 13.4001
L21.7388 13.4001
" />
<path d="M21.7388 13.4001
L21.6178 13.3397
" />
<path d="M21.6178 13.3397
L21.5574 13.2792
" />
</g></g>
<g style="fill:#840000; fill-opacity:0.0; 
stroke:#840000; stroke-width:0.1524; stroke-opacity:1; 
stroke-linecap:round; stroke-linejoin:round;">
<path d="M28.9052 13.8176
L32.7152 13.8176
" />
</g>
<g style="fill:#A90000; fill-opacity:0.0; 
stroke:#A90000; stroke-width:0.1524; stroke-opacity:1; 
stroke-linecap:round; stroke-linejoin:round;">
<text x="30.8102" y="13.5636"
textLength="1.4127" font-size="1.6933" lengthAdjust="spacingAndGlyphs"
text-anchor="middle" opacity="0">6</text>
<g class="stroked-text"><desc>6</desc>
<path d="M31.0521 12.1301
L30.8102 12.1301
" />
<path d="M30.8102 12.1301
L30.6893 12.1906
" />
<path d="M30.6893 12.1906
L30.6288 12.2511
" />
<path d="M30.6288 12.2511
L30.5078 12.4325
" />
<path d="M30.5078 12.4325
L30.4474 12.6744
" />
<path d="M30.4474 12.6744
L30.4474 13.1582
" />
<path d="M30.4474 13.1582
L30.5078 13.2792
" />
<path d="M30.5078 13.2792
L30.5683 13.3397
" />
<path d="M30.5683 13.3397
L30.6893 13.4001
" />
<path d="M30.6893 13.4001
L30.9312 13.4001
" />
<path d="M30.9312 13.4001
L31.0521 13.3397
" />
<path d="M31.0521 13.3397
L31.1126 13.2792
" />
<path d="M31.1126 13.2792
L31.1731 13.1582
" />
<path d="M31.1731 13.1582
L31.1731 12.8558
" />
<path d="M31.1731 12.8558
L31.1126 12.7349
" />
<path d="M31.1126 12.7349
L31.0521 12.6744
" />
<path d="M31.0521 12.6744
L30.9312 12.6139
" />
<path d="M30.9312 12.6139
L30.6893 12.6139
" />
<path d="M30.6893 12.6139
L30.5683 12.6744
" />
<path d="M30.5683 12.6744
L30.5078 12.7349
" />
<path d="M30.5078 12.7349
L30.4474 12.8558
" />
</g></g>
<g style="fill:#840000; fill-opacity:0.0; 
stroke:#840000; stroke-width:0.1524; stroke-opacity:1; 
stroke-linecap:round; stroke-linejoin:round;">
<path d="M23.8252 16.3576
L20.0152 16.3576
" />
</g>
<g style="fill:#A90000; fill-opacity:0.0; 
stroke:#A90000; stroke-width:0.1524; stroke-opacity:1; 
stroke-linecap:round; stroke-linejoin:round;">
<text x="21.9202" y="16.1036"
textLength="1.4127" font-size="1.6933" lengthAdjust="spacingAndGlyphs"
text-anchor="middle" opacity="0">7</text>
<g class="stroked-text"><desc>7</desc>
<path d="M21.4969 14.6701
L22.3435 14.6701
" />
<path d="M22.3435 14.6701
L21.7993 15.9401
" />
</g></g>
<g style="fill:#840000; fill-opacity:0.0; 
stroke:#840000; stroke-width:0.1524; stroke-opacity:1; 
stroke-linecap:round; stroke-linejoin:round;">
<path d="M28.9052 16.3576
L32.7152 16.3576
" />
</g>
<g style="fill:#A90000; fill-opacity:0.0; 
stroke:#A90000; stroke-width:0.1524; stroke-opacity:1; 
stroke-linecap:round; stroke-linejoin:round;">
<text x="30.8102" y="16.1036"
textLength="1.4127" font-size="1.6933" lengthAdjust="spacingAndGlyphs"
text-anchor="middle" opacity="0">8</text>
<g class="stroked-text"><desc>8</desc>
<path d="M30.6893 15.2144
L30.5683 15.1539
" />
<path d="M30.5683 15.1539
L30.5078 15.0935
" />
<path d="M30.5078 15.0935
L30.4474 14.9725
" />
<path d="M30.4474 14.9725
L30.4474 14.9120
" />
<path d="M30.4474 14.9120
L30.5078 14.7911
" />
<path d="M30.5078 14.7911
L30.5683 14.7306
" />
<path d="M30.5683 14.7306
L30.6893 14.6701
" />
<path d="M30.6893 14.6701
L30.9312 14.6701
" />
<path d="M30.9312 14.6701
L31.0521 14.7306
" />
<path d="M31.0521 14.7306
L31.1126 14.7911
" />
<path d="M31.1126 14.7911
L31.1731 14.9120
" />
<path d="M31.1731 14.9120
L31.1731 14.9725
" />
<path d="M31.1731 14.9725
L31.1126 15.0935
" />
<path d="M31.1126 15.0935
L31.0521 15.1539
" />
<path d="M31.0521 15.1539
L30.9312 15.2144
" />
<path d="M30.9312 15.2144
L30.6893 15.2144
" />
<path d="M30.6893 15.2144
L30.5683 15.2749
" />
<path d="M30.5683 15.2749
L30.5078 15.3354
" />
<path d="M30.5078 15.3354
L30.4474 15.4563
" />
<path d="M30.4474 15.4563
L30.4474 15.6982
" />
<path d="M30.4474 15.6982
L30.5078 15.8192
" />
<path d="M30.5078 15.8192
L30.5683 15.8797
" />
<path d="M30.5683 15.8797
L30.6893 15.9401
" />
<path d="M30.6893 15.9401
L30.9312 15.9401
" />
<path d="M30.9312 15.9401
L31.0521 15.8797
" />
<path d="M31.0521 15.8797
L31.1126 15.8192
" />
<path d="M31.1126 15.8192
L31.1731 15.6982
" />
<path d="M31.1731 15.6982
L31.1731 15.4563
" />
<path d="M31.1731 15.4563
L31.1126 15.3354
" />
<path d="M31.1126 15.3354
L31.0521 15.2749
" />
<path d="M31.0521 15.2749
L30.9312 15.2144
" />
</g></g>
<g style="fill:#840000; fill-opacity:0.0; 
stroke:#840000; stroke-width:0.1524; stroke-opacity:1; 
stroke-linecap:round; stroke-linejoin:round;">
<path d="M23.8252 18.8976
L20.0152 18.8976
" />
</g>
<g style="fill:#A90000; fill-opacity:0.0; 
stroke:#A90000; stroke-width:0.1524; stroke-opacity:1; 
stroke-linecap:round; stroke-linejoin:round;">
<text x="21.9202" y="18.6436"
textLength="1.4127" font-size="1.6933" lengthAdjust="spacingAndGlyphs"
text-anchor="middle" opacity="0">9</text>
<g class="stroked-text"><desc>9</desc>
<path d="M21.6783 18.4801
L21.9202 18.4801
" />
<path d="M21.9202 18.4801
L22.0412 18.4197
" />
<path d="M22.0412 18.4197
L22.1016 18.3592
" />
<path d="M22.1016 18.3592
L22.2226 18.1777
" />
<path d="M22.2226 18.1777
L22.2831 17.9358
" />
<path d="M22.2831 17.9358
L22.2831 17.4520
" />
<path d="M22.2831 17.4520
L22.2226 17.3311
" />
<path d="M22.2226 17.3311
L22.1621 17.2706
" />
<path d="M22.1621 17.2706
L22.0412 17.2101
" />
<path d="M22.0412 17.2101
L21.7993 17.2101
" />
<path d="M21.7993 17.2101
L21.6783 17.2706
" />
<path d="M21.6783 17.2706
L21.6178 17.3311
" />
<path d="M21.6178 17.3311
L21.5574 17.4520
" />
<path d="M21.5574 17.4520
L21.5574 17.7544
" />
<path d="M21.5574 17.7544
L21.6178 17.8754
" />
<path d="M21.6178 17.8754
L21.6783 17.9358
" />
<path d="M21.6783 17.9358
L21.7993 17.9963
" />
<path d="M21.7993 17.9963
L22.0412 17.9963
" />
<path d="M22.0412 17.9963
L22.1621 17.9358
" />
<path d="M22.1621 17.9358
L22.2226 17.8754
" />
<path d="M22.2226 17.8754
L22.2831 17.7544
" />
</g></g>
<g style="fill:#840000; fill-opacity:0.0; 
stroke:#840000; stroke-width:0.1524; stroke-opacity:1; 
stroke-linecap:round; stroke-linejoin:round;">
<path d="M26.3652 46.3296
L26.3652 49.3776
" />
</g>
<g style="fill:#A90000; fill-opacity:0.0; 
stroke:#A90000; stroke-width:0.1524; stroke-opacity:1; 
stroke-linecap:round; stroke-linejoin:round;">
<g transform="rotate(-90.000000 26.1112 47.8536)">
<text x="26.1112" y="47.8536"
textLength="2.9246" font-size="1.6933" lengthAdjust="spacingAndGlyphs"
text-anchor="middle" opacity="0">MP</text>
</g>
<g class="stroked-text"><desc>MP</desc>
<path d="M25.9477 48.9119
L24.6777 48.9119
" />
<path d="M24.6777 48.9119
L25.5849 48.4885
" />
<path d="M25.5849 48.4885
L24.6777 48.0652
" />
<path d="M24.6777 48.0652
L25.9477 48.0652
" />
<path d="M25.9477 47.4605
L24.6777 47.4605
" />
<path d="M24.6777 47.4605
L24.6777 46.9767
" />
<path d="M24.6777 46.9767
L24.7382 46.8557
" />
<path d="M24.7382 46.8557
L24.7987 46.7952
" />
<path d="M24.7987 46.7952
L24.9196 46.7348
" />
<path d="M24.9196 46.7348
L25.1011 46.7348
" />
<path d="M25.1011 46.7348
L25.2220 46.7952
" />
<path d="M25.2220 46.7952
L25.2825 46.8557
" />
<path d="M25.2825 46.8557
L25.3430 46.9767
" />
<path d="M25.3430 46.9767
L25.3430 47.4605
" />
</g></g>
<g style="fill:#840084; fill-opacity:0.0; 
stroke:#840084; stroke-width:0.1524; stroke-opacity:1; 
stroke-linecap:round; stroke-linejoin:round;">
</g>
<g style="fill:#006464; fill-opacity:0.0; 
stroke:#006464; stroke-width:0.1524; stroke-opacity:1; 
stroke-linecap:round; stroke-linejoin:round;">
</g>
<g style="fill:#006464; fill-opacity:0.0; 
stroke:#006464; stroke-width:0.1588; stroke-opacity:1; 
stroke-linecap:round; stroke-linejoin:round;">
<text x="26.3652" y="6.8326"
textLength="2.2786" font-size="1.6933" lengthAdjust="spacingAndGlyphs"
text-anchor="middle" opacity="0">J?</text>
<g class="stroked-text"><desc>J?</desc>
<path d="M26.0023 5.5068
L26.0023 6.4140
" />
<path d="M26.0023 6.4140
L25.9418 6.5954
" />
<path d="M25.9418 6.5954
L25.8209 6.7164
" />
<path d="M25.8209 6.7164
L25.6394 6.7768
" />
<path d="M25.6394 6.7768
L25.5185 6.7768
" />
<path d="M26.7885 6.6559
L26.8489 6.7164
" />
<path d="M26.8489 6.7164
L26.7885 6.7768
" />
<path d="M26.7885 6.7768
L26.7280 6.7164
" />
<path d="M26.7280 6.7164
L26.7885 6.6559
" />
<path d="M26.7885 6.6559
L26.7885 6.7768
" />
<path d="M26.5466 5.5673
L26.6675 5.5068
" />
<path d="M26.6675 5.5068
L26.9699 5.5068
" />
<path d="M26.9699 5.5068
L27.0908 5.5673
" />
<path d="M27.0908 5.5673
L27.1513 5.6883
" />
<path d="M27.1513 5.6883
L27.1513 5.8092
" />
<path d="M27.1513 5.8092
L27.0908 5.9302
" />
<path d="M27.0908 5.9302
L27.0304 5.9906
" />
<path d="M27.0304 5.9906
L26.9094 6.0511
" />
<path d="M26.9094 6.0511
L26.8489 6.1116
" />
<path d="M26.8489 6.1116
L26.7885 6.2325
" />
<path d="M26.7885 6.2325
L26.7885 6.2930
" />
</g><text x="44.7398" y="47.4726"
textLength="34.2093" font-size="1.6933" lengthAdjust="spacingAndGlyphs"
text-anchor="middle" opacity="0">Conn_02x15_Odd_Even_MountingPin</text>
<g class="stroked-text"><desc>Conn_02x15_Odd_Even_MountingPin</desc>
<path d="M28.7744 47.2959
L28.7140 47.3564
" />
<path d="M28.7140 47.3564
L28.5325 47.4168
" />
<path d="M28.5325 47.4168
L28.4116 47.4168
" />
<path d="M28.4116 47.4168
L28.2302 47.3564
" />
<path d="M28.2302 47.3564
L28.1092 47.2354
" />
<path d="M28.1092 47.2354
L28.0487 47.1144
" />
<path d="M28.0487 47.1144
L27.9883 46.8725
" />
<path d="M27.9883 46.8725
L27.9883 46.6911
" />
<path d="M27.9883 46.6911
L28.0487 46.4492
" />
<path d="M28.0487 46.4492
L28.1092 46.3283
" />
<path d="M28.1092 46.3283
L28.2302 46.2073
" />
<path d="M28.2302 46.2073
L28.4116 46.1468
" />
<path d="M28.4116 46.1468
L28.5325 46.1468
" />
<path d="M28.5325 46.1468
L28.7140 46.2073
" />
<path d="M28.7140 46.2073
L28.7744 46.2678
" />
<path d="M29.5002 47.4168
L29.3792 47.3564
" />
<path d="M29.3792 47.3564
L29.3187 47.2959
" />
<path d="M29.3187 47.2959
L29.2583 47.1749
" />
<path d="M29.2583 47.1749
L29.2583 46.8121
" />
<path d="M29.2583 46.8121
L29.3187 46.6911
" />
<path d="M29.3187 46.6911
L29.3792 46.6306
" />
<path d="M29.3792 46.6306
L29.5002 46.5702
" />
<path d="M29.5002 46.5702
L29.6816 46.5702
" />
<path d="M29.6816 46.5702
L29.8025 46.6306
" />
<path d="M29.8025 46.6306
L29.8630 46.6911
" />
<path d="M29.8630 46.6911
L29.9235 46.8121
" />
<path d="M29.9235 46.8121
L29.9235 47.1749
" />
<path d="M29.9235 47.1749
L29.8630 47.2959
" />
<path d="M29.8630 47.2959
L29.8025 47.3564
" />
<path d="M29.8025 47.3564
L29.6816 47.4168
" />
<path d="M29.6816 47.4168
L29.5002 47.4168
" />
<path d="M30.4677 46.5702
L30.4677 47.4168
" />
<path d="M30.4677 46.6911
L30.5282 46.6306
" />
<path d="M30.5282 46.6306
L30.6492 46.5702
" />
<path d="M30.6492 46.5702
L30.8306 46.5702
" />
<path d="M30.8306 46.5702
L30.9515 46.6306
" />
<path d="M30.9515 46.6306
L31.0120 46.7516
" />
<path d="M31.0120 46.7516
L31.0120 47.4168
" />
<path d="M31.6167 46.5702
L31.6167 47.4168
" />
<path d="M31.6167 46.6911
L31.6772 46.6306
" />
<path d="M31.6772 46.6306
L31.7982 46.5702
" />
<path d="M31.7982 46.5702
L31.9796 46.5702
" />
<path d="M31.9796 46.5702
L32.1005 46.6306
" />
<path d="M32.1005 46.6306
L32.1610 46.7516
" />
<path d="M32.1610 46.7516
L32.1610 47.4168
" />
<path d="M32.4634 47.5378
L33.4310 47.5378
" />
<path d="M33.9752 46.1468
L34.0962 46.1468
" />
<path d="M34.0962 46.1468
L34.2171 46.2073
" />
<path d="M34.2171 46.2073
L34.2776 46.2678
" />
<path d="M34.2776 46.2678
L34.3381 46.3887
" />
<path d="M34.3381 46.3887
L34.3986 46.6306
" />
<path d="M34.3986 46.6306
L34.3986 46.9330
" />
<path d="M34.3986 46.9330
L34.3381 47.1749
" />
<path d="M34.3381 47.1749
L34.2776 47.2959
" />
<path d="M34.2776 47.2959
L34.2171 47.3564
" />
<path d="M34.2171 47.3564
L34.0962 47.4168
" />
<path d="M34.0962 47.4168
L33.9752 47.4168
" />
<path d="M33.9752 47.4168
L33.8543 47.3564
" />
<path d="M33.8543 47.3564
L33.7938 47.2959
" />
<path d="M33.7938 47.2959
L33.7333 47.1749
" />
<path d="M33.7333 47.1749
L33.6729 46.9330
" />
<path d="M33.6729 46.9330
L33.6729 46.6306
" />
<path d="M33.6729 46.6306
L33.7333 46.3887
" />
<path d="M33.7333 46.3887
L33.7938 46.2678
" />
<path d="M33.7938 46.2678
L33.8543 46.2073
" />
<path d="M33.8543 46.2073
L33.9752 46.1468
" />
<path d="M34.8824 46.2678
L34.9428 46.2073
" />
<path d="M34.9428 46.2073
L35.0638 46.1468
" />
<path d="M35.0638 46.1468
L35.3662 46.1468
" />
<path d="M35.3662 46.1468
L35.4871 46.2073
" />
<path d="M35.4871 46.2073
L35.5476 46.2678
" />
<path d="M35.5476 46.2678
L35.6081 46.3887
" />
<path d="M35.6081 46.3887
L35.6081 46.5097
" />
<path d="M35.6081 46.5097
L35.5476 46.6911
" />
<path d="M35.5476 46.6911
L34.8219 47.4168
" />
<path d="M34.8219 47.4168
L35.6081 47.4168
" />
<path d="M36.0314 47.4168
L36.6966 46.5702
" />
<path d="M36.0314 46.5702
L36.6966 47.4168
" />
<path d="M37.8457 47.4168
L37.1200 47.4168
" />
<path d="M37.4828 47.4168
L37.4828 46.1468
" />
<path d="M37.4828 46.1468
L37.3619 46.3283
" />
<path d="M37.3619 46.3283
L37.2409 46.4492
" />
<path d="M37.2409 46.4492
L37.1200 46.5097
" />
<path d="M38.9947 46.1468
L38.3899 46.1468
" />
<path d="M38.3899 46.1468
L38.3295 46.7516
" />
<path d="M38.3295 46.7516
L38.3899 46.6911
" />
<path d="M38.3899 46.6911
L38.5109 46.6306
" />
<path d="M38.5109 46.6306
L38.8133 46.6306
" />
<path d="M38.8133 46.6306
L38.9342 46.6911
" />
<path d="M38.9342 46.6911
L38.9947 46.7516
" />
<path d="M38.9947 46.7516
L39.0552 46.8725
" />
<path d="M39.0552 46.8725
L39.0552 47.1749
" />
<path d="M39.0552 47.1749
L38.9947 47.2959
" />
<path d="M38.9947 47.2959
L38.9342 47.3564
" />
<path d="M38.9342 47.3564
L38.8133 47.4168
" />
<path d="M38.8133 47.4168
L38.5109 47.4168
" />
<path d="M38.5109 47.4168
L38.3899 47.3564
" />
<path d="M38.3899 47.3564
L38.3295 47.2959
" />
<path d="M39.2971 47.5378
L40.2647 47.5378
" />
<path d="M40.8089 46.1468
L41.0508 46.1468
" />
<path d="M41.0508 46.1468
L41.1718 46.2073
" />
<path d="M41.1718 46.2073
L41.2927 46.3283
" />
<path d="M41.2927 46.3283
L41.3532 46.5702
" />
<path d="M41.3532 46.5702
L41.3532 46.9935
" />
<path d="M41.3532 46.9935
L41.2927 47.2354
" />
<path d="M41.2927 47.2354
L41.1718 47.3564
" />
<path d="M41.1718 47.3564
L41.0508 47.4168
" />
<path d="M41.0508 47.4168
L40.8089 47.4168
" />
<path d="M40.8089 47.4168
L40.6880 47.3564
" />
<path d="M40.6880 47.3564
L40.5670 47.2354
" />
<path d="M40.5670 47.2354
L40.5066 46.9935
" />
<path d="M40.5066 46.9935
L40.5066 46.5702
" />
<path d="M40.5066 46.5702
L40.5670 46.3283
" />
<path d="M40.5670 46.3283
L40.6880 46.2073
" />
<path d="M40.6880 46.2073
L40.8089 46.1468
" />
<path d="M42.4418 47.4168
L42.4418 46.1468
" />
<path d="M42.4418 47.3564
L42.3209 47.4168
" />
<path d="M42.3209 47.4168
L42.0790 47.4168
" />
<path d="M42.0790 47.4168
L41.9580 47.3564
" />
<path d="M41.9580 47.3564
L41.8975 47.2959
" />
<path d="M41.8975 47.2959
L41.8371 47.1749
" />
<path d="M41.8371 47.1749
L41.8371 46.8121
" />
<path d="M41.8371 46.8121
L41.8975 46.6911
" />
<path d="M41.8975 46.6911
L41.9580 46.6306
" />
<path d="M41.9580 46.6306
L42.0790 46.5702
" />
<path d="M42.0790 46.5702
L42.3209 46.5702
" />
<path d="M42.3209 46.5702
L42.4418 46.6306
" />
<path d="M43.5908 47.4168
L43.5908 46.1468
" />
<path d="M43.5908 47.3564
L43.4699 47.4168
" />
<path d="M43.4699 47.4168
L43.2280 47.4168
" />
<path d="M43.2280 47.4168
L43.1070 47.3564
" />
<path d="M43.1070 47.3564
L43.0465 47.2959
" />
<path d="M43.0465 47.2959
L42.9861 47.1749
" />
<path d="M42.9861 47.1749
L42.9861 46.8121
" />
<path d="M42.9861 46.8121
L43.0465 46.6911
" />
<path d="M43.0465 46.6911
L43.1070 46.6306
" />
<path d="M43.1070 46.6306
L43.2280 46.5702
" />
<path d="M43.2280 46.5702
L43.4699 46.5702
" />
<path d="M43.4699 46.5702
L43.5908 46.6306
" />
<path d="M43.8932 47.5378
L44.8608 47.5378
" />
<path d="M45.1631 46.7516
L45.5865 46.7516
" />
<path d="M45.7679 47.4168
L45.1631 47.4168
" />
<path d="M45.1631 47.4168
L45.1631 46.1468
" />
<path d="M45.1631 46.1468
L45.7679 46.1468
" />
<path d="M46.1912 46.5702
L46.4936 47.4168
" />
<path d="M46.4936 47.4168
L46.7959 46.5702
" />
<path d="M47.7635 47.3564
L47.6426 47.4168
" />
<path d="M47.6426 47.4168
L47.4007 47.4168
" />
<path d="M47.4007 47.4168
L47.2797 47.3564
" />
<path d="M47.2797 47.3564
L47.2193 47.2354
" />
<path d="M47.2193 47.2354
L47.2193 46.7516
" />
<path d="M47.2193 46.7516
L47.2797 46.6306
" />
<path d="M47.2797 46.6306
L47.4007 46.5702
" />
<path d="M47.4007 46.5702
L47.6426 46.5702
" />
<path d="M47.6426 46.5702
L47.7635 46.6306
" />
<path d="M47.7635 46.6306
L47.8240 46.7516
" />
<path d="M47.8240 46.7516
L47.8240 46.8725
" />
<path d="M47.8240 46.8725
L47.2193 46.9935
" />
<path d="M48.3683 46.5702
L48.3683 47.4168
" />
<path d="M48.3683 46.6911
L48.4288 46.6306
" />
<path d="M48.4288 46.6306
L48.5498 46.5702
" />
<path d="M48.5498 46.5702
L48.7312 46.5702
" />
<path d="M48.7312 46.5702
L48.8521 46.6306
" />
<path d="M48.8521 46.6306
L48.9126 46.7516
" />
<path d="M48.9126 46.7516
L48.9126 47.4168
" />
<path d="M49.2150 47.5378
L50.1826 47.5378
" />
<path d="M50.4849 47.4168
L50.4849 46.1468
" />
<path d="M50.4849 46.1468
L50.9083 47.0540
" />
<path d="M50.9083 47.0540
L51.3316 46.1468
" />
<path d="M51.3316 46.1468
L51.3316 47.4168
" />
<path d="M52.1178 47.4168
L51.9968 47.3564
" />
<path d="M51.9968 47.3564
L51.9363 47.2959
" />
<path d="M51.9363 47.2959
L51.8759 47.1749
" />
<path d="M51.8759 47.1749
L51.8759 46.8121
" />
<path d="M51.8759 46.8121
L51.9363 46.6911
" />
<path d="M51.9363 46.6911
L51.9968 46.6306
" />
<path d="M51.9968 46.6306
L52.1178 46.5702
" />
<path d="M52.1178 46.5702
L52.2992 46.5702
" />
<path d="M52.2992 46.5702
L52.4201 46.6306
" />
<path d="M52.4201 46.6306
L52.4806 46.6911
" />
<path d="M52.4806 46.6911
L52.5411 46.8121
" />
<path d="M52.5411 46.8121
L52.5411 47.1749
" />
<path d="M52.5411 47.1749
L52.4806 47.2959
" />
<path d="M52.4806 47.2959
L52.4201 47.3564
" />
<path d="M52.4201 47.3564
L52.2992 47.4168
" />
<path d="M52.2992 47.4168
L52.1178 47.4168
" />
<path d="M53.6296 46.5702
L53.6296 47.4168
" />
<path d="M53.0853 46.5702
L53.0853 47.2354
" />
<path d="M53.0853 47.2354
L53.1458 47.3564
" />
<path d="M53.1458 47.3564
L53.2668 47.4168
" />
<path d="M53.2668 47.4168
L53.4482 47.4168
" />
<path d="M53.4482 47.4168
L53.5691 47.3564
" />
<path d="M53.5691 47.3564
L53.6296 47.2959
" />
<path d="M54.2343 46.5702
L54.2343 47.4168
" />
<path d="M54.2343 46.6911
L54.2948 46.6306
" />
<path d="M54.2948 46.6306
L54.4158 46.5702
" />
<path d="M54.4158 46.5702
L54.5972 46.5702
" />
<path d="M54.5972 46.5702
L54.7181 46.6306
" />
<path d="M54.7181 46.6306
L54.7786 46.7516
" />
<path d="M54.7786 46.7516
L54.7786 47.4168
" />
<path d="M55.2019 46.5702
L55.6857 46.5702
" />
<path d="M55.3833 46.1468
L55.3833 47.2354
" />
<path d="M55.3833 47.2354
L55.4438 47.3564
" />
<path d="M55.4438 47.3564
L55.5648 47.4168
" />
<path d="M55.5648 47.4168
L55.6857 47.4168
" />
<path d="M56.1090 47.4168
L56.1090 46.5702
" />
<path d="M56.1090 46.1468
L56.0486 46.2073
" />
<path d="M56.0486 46.2073
L56.1090 46.2678
" />
<path d="M56.1090 46.2678
L56.1695 46.2073
" />
<path d="M56.1695 46.2073
L56.1090 46.1468
" />
<path d="M56.1090 46.1468
L56.1090 46.2678
" />
<path d="M56.7138 46.5702
L56.7138 47.4168
" />
<path d="M56.7138 46.6911
L56.7743 46.6306
" />
<path d="M56.7743 46.6306
L56.8953 46.5702
" />
<path d="M56.8953 46.5702
L57.0767 46.5702
" />
<path d="M57.0767 46.5702
L57.1976 46.6306
" />
<path d="M57.1976 46.6306
L57.2581 46.7516
" />
<path d="M57.2581 46.7516
L57.2581 47.4168
" />
<path d="M58.4071 46.5702
L58.4071 47.5983
" />
<path d="M58.4071 47.5983
L58.3466 47.7192
" />
<path d="M58.3466 47.7192
L58.2862 47.7797
" />
<path d="M58.2862 47.7797
L58.1652 47.8402
" />
<path d="M58.1652 47.8402
L57.9838 47.8402
" />
<path d="M57.9838 47.8402
L57.8628 47.7797
" />
<path d="M58.4071 47.3564
L58.2862 47.4168
" />
<path d="M58.2862 47.4168
L58.0443 47.4168
" />
<path d="M58.0443 47.4168
L57.9233 47.3564
" />
<path d="M57.9233 47.3564
L57.8628 47.2959
" />
<path d="M57.8628 47.2959
L57.8024 47.1749
" />
<path d="M57.8024 47.1749
L57.8024 46.8121
" />
<path d="M57.8024 46.8121
L57.8628 46.6911
" />
<path d="M57.8628 46.6911
L57.9233 46.6306
" />
<path d="M57.9233 46.6306
L58.0443 46.5702
" />
<path d="M58.0443 46.5702
L58.2862 46.5702
" />
<path d="M58.2862 46.5702
L58.4071 46.6306
" />
<path d="M59.0118 47.4168
L59.0118 46.1468
" />
<path d="M59.0118 46.1468
L59.4956 46.1468
" />
<path d="M59.4956 46.1468
L59.6166 46.2073
" />
<path d="M59.6166 46.2073
L59.6771 46.2678
" />
<path d="M59.6771 46.2678
L59.7375 46.3887
" />
<path d="M59.7375 46.3887
L59.7375 46.5702
" />
<path d="M59.7375 46.5702
L59.6771 46.6911
" />
<path d="M59.6771 46.6911
L59.6166 46.7516
" />
<path d="M59.6166 46.7516
L59.4956 46.8121
" />
<path d="M59.4956 46.8121
L59.0118 46.8121
" />
<path d="M60.2818 47.4168
L60.2818 46.5702
" />
<path d="M60.2818 46.1468
L60.2214 46.2073
" />
<path d="M60.2214 46.2073
L60.2818 46.2678
" />
<path d="M60.2818 46.2678
L60.3423 46.2073
" />
<path d="M60.3423 46.2073
L60.2818 46.1468
" />
<path d="M60.2818 46.1468
L60.2818 46.2678
" />
<path d="M60.8866 46.5702
L60.8866 47.4168
" />
<path d="M60.8866 46.6911
L60.9471 46.6306
" />
<path d="M60.9471 46.6306
L61.0681 46.5702
" />
<path d="M61.0681 46.5702
L61.2495 46.5702
" />
<path d="M61.2495 46.5702
L61.3704 46.6306
" />
<path d="M61.3704 46.6306
L61.4309 46.7516
" />
<path d="M61.4309 46.7516
L61.4309 47.4168
" />
</g></g> 
</svg>
