<?xml version="1.0" standalone="no"?>
 <!DOCTYPE svg PUBLIC "-//W3C//DTD SVG 1.1//EN" 
 "http://www.w3.org/Graphics/SVG/1.1/DTD/svg11.dtd"> 
<svg
  xmlns:svg="http://www.w3.org/2000/svg"
  xmlns="http://www.w3.org/2000/svg"
  xmlns:xlink="http://www.w3.org/1999/xlink"
  version="1.1"
  width="24.0284mm" height="19.8120mm" viewBox="0.0000 0.0000 24.0284 19.8120">
<title>SVG Image created as FCC-Logo_24.2x20mm_SilkScreen.svg date 2024/01/16 15:08:01 </title>
  <desc>Image generated by PCBNEW </desc>
<g style="fill:#000000; fill-opacity:1.0000;stroke:#000000; stroke-opacity:1.0000;
stroke-linecap:round; stroke-linejoin:round;"
 transform="translate(0 0) scale(1 1)">
</g>
<g style="fill:#000000; fill-opacity:0.0; 
stroke:#000000; stroke-width:0.0000; stroke-opacity:1; 
stroke-linecap:round; stroke-linejoin:round;">
</g>
<g style="fill:#000000; fill-opacity:1.0000; 
stroke:#000000; stroke-width:0.0212; stroke-opacity:1; 
stroke-linecap:round; stroke-linejoin:round;">
<rect x="-5.000000" y="-5.000000" width="34.046325" height="29.816791" rx="0.000000" />
</g>
<g style="fill:#FFFFFF; fill-opacity:1.0000; 
stroke:#FFFFFF; stroke-width:0.0212; stroke-opacity:1; 
stroke-linecap:round; stroke-linejoin:round;">
<g >
</g>
<g >
</g>
<g >
</g>
<g >
</g>
</g>
<g style="fill:#FFFFFF; fill-opacity:1.0000; 
stroke:#FFFFFF; stroke-width:0.0212; stroke-opacity:1; 
stroke-linecap:round; stroke-linejoin:round;">
<g >
</g>
<g >
</g>
<g >
</g>
<g >
</g>
</g>
<g style="fill:#FFFFFF; fill-opacity:1.0000; 
stroke:#FFFFFF; stroke-width:0.0212; stroke-opacity:1; 
stroke-linecap:round; stroke-linejoin:round;">
<g >
</g>
<g >
</g>
<g >
</g>
<g >
</g>
</g>
<g style="fill:#FFFFFF; fill-opacity:1.0000; 
stroke:#FFFFFF; stroke-width:0.0212; stroke-opacity:1; 
stroke-linecap:round; stroke-linejoin:round;">
<g >
</g>
<g >
</g>
<g >
</g>
<g >
</g>
</g>
<g style="fill:#FFFFFF; fill-opacity:1.0000; 
stroke:#FFFFFF; stroke-width:0.0212; stroke-opacity:1; 
stroke-linecap:round; stroke-linejoin:round;">
<g >
</g>
<g >
</g>
<g >
</g>
<g >
</g>
</g>
<g style="fill:#FFFFFF; fill-opacity:1.0000; 
stroke:#FFFFFF; stroke-width:0.0212; stroke-opacity:1; 
stroke-linecap:round; stroke-linejoin:round;">
<g >
</g>
<g >
</g>
<g >
</g>
<g >
</g>
</g>
<g style="fill:#FFFFFF; fill-opacity:1.0000; 
stroke:#FFFFFF; stroke-width:0.0212; stroke-opacity:1; 
stroke-linecap:round; stroke-linejoin:round;">
<g >
</g>
<g >
</g>
<g >
</g>
<g >
</g>
</g>
<g style="fill:#FFFFFF; fill-opacity:1.0000; 
stroke:#FFFFFF; stroke-width:0.0212; stroke-opacity:1; 
stroke-linecap:round; stroke-linejoin:round;">
<g >
</g>
<g >
</g>
<g >
</g>
<g >
</g>
</g>
<g style="fill:#FFFFFF; fill-opacity:1.0000; 
stroke:#FFFFFF; stroke-width:0.0212; stroke-opacity:1; 
stroke-linecap:round; stroke-linejoin:round;">
<g >
</g>
<g >
</g>
<g >
</g>
<g >
</g>
</g>
<g style="fill:#FFFFFF; fill-opacity:1.0000; 
stroke:#FFFFFF; stroke-width:0.0212; stroke-opacity:1; 
stroke-linecap:round; stroke-linejoin:round;">
<g >
</g>
<g >
</g>
<g >
</g>
<g >
</g>
</g>
<g style="fill:#FFFFFF; fill-opacity:1.0000; 
stroke:#FFFFFF; stroke-width:0.0212; stroke-opacity:1; 
stroke-linecap:round; stroke-linejoin:round;">
<g >
</g>
<g >
</g>
<g >
</g>
<g >
</g>
</g>
<g style="fill:#FFFFFF; fill-opacity:1.0000; 
stroke:#FFFFFF; stroke-width:0.0212; stroke-opacity:1; 
stroke-linecap:round; stroke-linejoin:round;">
<g >
</g>
<g >
</g>
<g >
</g>
<g >
</g>
</g>
<g style="fill:#FFFFFF; fill-opacity:1.0000; 
stroke:#FFFFFF; stroke-width:0.0212; stroke-opacity:1; 
stroke-linecap:round; stroke-linejoin:round;">
<g >
</g>
<g >
</g>
<g >
</g>
<g >
</g>
</g>
<g style="fill:#FFFFFF; fill-opacity:1.0000; 
stroke:#FFFFFF; stroke-width:0.0212; stroke-opacity:1; 
stroke-linecap:round; stroke-linejoin:round;">
<g >
</g>
<g >
</g>
<g >
</g>
<g >
</g>
</g>
<g style="fill:#FFFFFF; fill-opacity:1.0000; 
stroke:#FFFFFF; stroke-width:0.0212; stroke-opacity:1; 
stroke-linecap:round; stroke-linejoin:round;">
<g >
</g>
<g >
</g>
<g >
</g>
<g >
</g>
</g>
<g style="fill:#FFFFFF; fill-opacity:1.0000; 
stroke:#FFFFFF; stroke-width:0.0212; stroke-opacity:1; 
stroke-linecap:round; stroke-linejoin:round;">
<g >
</g>
<g >
</g>
<g >
</g>
<g >
</g>
</g>
<g style="fill:#FFFFFF; fill-opacity:1.0000; 
stroke:#FFFFFF; stroke-width:0.0212; stroke-opacity:1; 
stroke-linecap:round; stroke-linejoin:round;">
<g >
</g>
<g >
</g>
<g >
</g>
<g >
</g>
</g>
<g style="fill:#FFFFFF; fill-opacity:1.0000; 
stroke:#FFFFFF; stroke-width:0.0212; stroke-opacity:1; 
stroke-linecap:round; stroke-linejoin:round;">
<g >
</g>
<g >
</g>
<g >
</g>
<g >
</g>
</g>
<g style="fill:#FFFFFF; fill-opacity:1.0000; 
stroke:#FFFFFF; stroke-width:0.0212; stroke-opacity:1; 
stroke-linecap:round; stroke-linejoin:round;">
<g >
</g>
<g >
</g>
<g >
</g>
<g >
</g>
</g>
<g style="fill:#FFFFFF; fill-opacity:1.0000; 
stroke:#FFFFFF; stroke-width:0.0212; stroke-opacity:1; 
stroke-linecap:round; stroke-linejoin:round;">
<g >
</g>
<g >
</g>
<g >
</g>
<g >
</g>
</g>
<g style="fill:#FFFFFF; fill-opacity:1.0000; 
stroke:#FFFFFF; stroke-width:0.0212; stroke-opacity:1; 
stroke-linecap:round; stroke-linejoin:round;">
<g >
</g>
<g >
</g>
<g >
</g>
<g >
</g>
</g>
<g style="fill:#FFFFFF; fill-opacity:1.0000; 
stroke:#FFFFFF; stroke-width:0.0212; stroke-opacity:1; 
stroke-linecap:round; stroke-linejoin:round;">
<g >
</g>
<g >
</g>
<g >
</g>
<g >
</g>
</g>
<g style="fill:#FFFFFF; fill-opacity:1.0000; 
stroke:#FFFFFF; stroke-width:0.0212; stroke-opacity:1; 
stroke-linecap:round; stroke-linejoin:round;">
<g >
</g>
<g >
</g>
<g >
</g>
<g >
</g>
</g>
<g style="fill:#FFFFFF; fill-opacity:1.0000; 
stroke:#FFFFFF; stroke-width:0.0212; stroke-opacity:1; 
stroke-linecap:round; stroke-linejoin:round;">
<g >
</g>
<g >
</g>
<g >
</g>
<g >
</g>
</g>
<g style="fill:#FFFFFF; fill-opacity:1.0000; 
stroke:#FFFFFF; stroke-width:0.0212; stroke-opacity:1; 
stroke-linecap:round; stroke-linejoin:round;">
<g >
</g>
<g >
</g>
<g >
</g>
<g >
</g>
</g>
<g style="fill:#FFFFFF; fill-opacity:1.0000; 
stroke:#FFFFFF; stroke-width:0.0212; stroke-opacity:1; 
stroke-linecap:round; stroke-linejoin:round;">
<g >
</g>
<g >
</g>
<g >
</g>
<g >
</g>
</g>
<g style="fill:#FFFFFF; fill-opacity:1.0000; 
stroke:#FFFFFF; stroke-width:0.0212; stroke-opacity:1; 
stroke-linecap:round; stroke-linejoin:round;">
<g >
</g>
<g >
</g>
<g >
</g>
<g >
</g>
</g>
<g style="fill:#FFFFFF; fill-opacity:1.0000; 
stroke:#FFFFFF; stroke-width:0.0212; stroke-opacity:1; 
stroke-linecap:round; stroke-linejoin:round;">
<g >
</g>
<g >
</g>
<g >
</g>
<g >
</g>
</g>
<g style="fill:#FFFFFF; fill-opacity:1.0000; 
stroke:#FFFFFF; stroke-width:0.0212; stroke-opacity:1; 
stroke-linecap:round; stroke-linejoin:round;">
<g >
</g>
<g >
</g>
<g >
</g>
<g >
</g>
</g>
<g style="fill:#FFFFFF; fill-opacity:1.0000; 
stroke:#FFFFFF; stroke-width:0.0212; stroke-opacity:1; 
stroke-linecap:round; stroke-linejoin:round;">
<g >
</g>
<g >
</g>
<g >
</g>
<g >
</g>
</g>
<g style="fill:#FFFFFF; fill-opacity:1.0000; 
stroke:#FFFFFF; stroke-width:0.0212; stroke-opacity:1; 
stroke-linecap:round; stroke-linejoin:round;">
<g >
</g>
<g >
</g>
<g >
</g>
<g >
</g>
</g>
<g style="fill:#FFFFFF; fill-opacity:1.0000; 
stroke:#FFFFFF; stroke-width:0.0212; stroke-opacity:1; 
stroke-linecap:round; stroke-linejoin:round;">
<g >
</g>
<g >
</g>
<g >
</g>
<g >
</g>
</g>
<g style="fill:#FFFFFF; fill-opacity:1.0000; 
stroke:#FFFFFF; stroke-width:0.0212; stroke-opacity:1; 
stroke-linecap:round; stroke-linejoin:round;">
<g >
</g>
<g >
</g>
<g >
</g>
<g >
</g>
</g>
<g style="fill:#FFFFFF; fill-opacity:1.0000; 
stroke:#FFFFFF; stroke-width:0.0212; stroke-opacity:1; 
stroke-linecap:round; stroke-linejoin:round;">
<g >
</g>
<g >
</g>
<g >
</g>
<g >
</g>
</g>
<g style="fill:#FFFFFF; fill-opacity:1.0000; 
stroke:#FFFFFF; stroke-width:0.0212; stroke-opacity:1; 
stroke-linecap:round; stroke-linejoin:round;">
<g >
</g>
<g >
</g>
<g >
</g>
<g >
</g>
</g>
<g style="fill:#FFFFFF; fill-opacity:1.0000; 
stroke:#FFFFFF; stroke-width:0.0212; stroke-opacity:1; 
stroke-linecap:round; stroke-linejoin:round;">
</g>
<g style="fill:#FFFFFF; fill-opacity:1.0000; 
stroke:#FFFFFF; stroke-width:0.0100; stroke-opacity:1; 
stroke-linecap:round; stroke-linejoin:round;">
<path style="fill:#FFFFFF; fill-opacity:1.0000; 
stroke:#FFFFFF; stroke-width:0.0100; stroke-opacity:1; 
stroke-linecap:round; stroke-linejoin:round;fill-rule:evenodd;"
d="M 16.6048,4.3052
17.2565,4.4135
17.8765,4.5977
18.4733,4.8609
19.0555,5.2061
19.5687,5.5852
19.7254,5.7209
19.8931,5.8813
20.0593,6.0528
20.2116,6.2214
20.3376,6.3735
20.4248,6.4951
20.4609,6.5725
20.4612,6.5773
20.4277,6.6171
20.3352,6.6990
20.1961,6.8137
20.0227,6.9517
19.8273,7.1038
19.6222,7.2605
19.4197,7.4124
19.2321,7.5502
19.0717,7.6646
18.9508,7.7460
18.8817,7.7853
18.8730,7.7874
18.8274,7.7542
18.7525,7.6706
18.7034,7.6072
18.4774,7.3506
18.1836,7.0959
17.8409,6.8581
17.5121,6.6734
17.0089,6.4691
16.4819,6.3453
15.9421,6.3022
15.4010,6.3398
14.8697,6.4582
14.3596,6.6573
14.3551,6.6595
13.8579,6.9466
13.4237,7.2925
13.0558,7.6921
12.7576,8.1399
12.5324,8.6306
12.3836,9.1589
12.3145,9.7195
12.3098,9.9111
12.3480,10.4802
12.4643,11.0097
12.6600,11.5028
12.9365,11.9628
13.2952,12.3928
13.4420,12.5383
13.8138,12.8534
14.1989,13.1014
14.6209,13.2954
15.0833,13.4430
15.3163,13.4861
15.6071,13.5117
15.9274,13.5197
16.2489,13.5102
16.5433,13.4832
16.7652,13.4430
17.2027,13.2992
17.6377,13.0911
18.0485,12.8322
18.4135,12.5360
18.6864,12.2468
18.8093,12.1062
18.9042,12.0196
18.9610,11.9961
18.9643,11.9976
19.0094,12.0287
19.1132,12.1017
19.2628,12.2073
19.4454,12.3365
19.6481,12.4802
19.8580,12.6290
20.0622,12.7741
20.2479,12.9061
20.4022,13.0161
20.5121,13.0947
20.5648,13.1330
20.5663,13.1341
20.5537,13.1760
20.4921,13.2681
20.3925,13.3967
20.2663,13.5481
20.1245,13.7087
19.9785,13.8645
19.9291,13.9147
19.4057,14.3780
18.8310,14.7713
18.2107,15.0917
17.5503,15.3361
16.9568,15.4830
16.7436,15.5141
16.4738,15.5385
16.1721,15.5555
15.8631,15.5642
15.5716,15.5639
15.3223,15.5539
15.1659,15.5378
14.4518,15.3877
13.7839,15.1633
13.1600,14.8633
12.5776,14.4866
12.0345,14.0321
11.9735,13.9739
11.5021,13.4586
11.1030,12.8984
10.7778,12.3003
10.5285,11.6714
10.3568,11.0189
10.2643,10.3500
10.2530,9.6716
10.3246,8.9910
10.4809,8.3153
10.5283,8.1633
10.7442,7.5962
11.0068,7.0817
11.3278,6.6014
11.7187,6.1365
11.9302,5.9177
12.4662,5.4395
13.0297,5.0445
13.6233,4.7317
14.2492,4.5001
14.9100,4.3488
15.6079,4.2767
15.9130,4.2698
Z" /> 
<path style="fill:#FFFFFF; fill-opacity:1.0000; 
stroke:#FFFFFF; stroke-width:0.0100; stroke-opacity:1; 
stroke-linecap:round; stroke-linejoin:round;fill-rule:evenodd;"
d="M 17.0167,0.0609
17.9058,0.1996
18.1761,0.2593
19.0692,0.5152
19.9326,0.8516
20.7600,1.2649
21.5450,1.7515
22.2810,2.3080
22.9426,2.9115
23.0836,3.0573
23.2418,3.2287
23.4066,3.4132
23.5671,3.5982
23.7128,3.7711
23.8328,3.9194
23.9165,4.0305
23.9531,4.0919
23.9539,4.0966
23.9204,4.1323
23.8357,4.1991
23.7671,4.2483
23.6689,4.3186
23.5170,4.4297
23.3278,4.5695
23.1180,4.7258
22.9781,4.8306
22.7785,4.9791
22.6027,5.1072
22.4629,5.2062
22.3713,5.2675
22.3409,5.2836
22.3017,5.2516
22.2185,5.1641
22.1029,5.0338
21.9663,4.8733
21.9399,4.8416
21.4024,4.2619
20.8053,3.7419
20.1567,3.2848
19.4643,2.8940
18.7363,2.5728
17.9805,2.3245
17.2048,2.1525
16.4173,2.0600
15.6258,2.0505
15.3171,2.0700
14.4812,2.1832
13.6774,2.3762
12.9098,2.6452
12.1824,2.9868
11.4994,3.3973
10.8647,3.8732
10.2825,4.4108
9.7569,5.0065
9.2918,5.6569
8.8914,6.3582
8.5598,7.1069
8.3010,7.8994
8.1902,8.3572
8.1505,8.5507
8.1208,8.7198
8.0996,8.8829
8.0855,9.0585
8.0769,9.2651
8.0725,9.5210
8.0708,9.8449
8.0708,9.8758
8.0718,10.2399
8.0773,10.5333
8.0883,10.7734
8.1055,10.9774
8.1302,11.1626
8.1508,11.2821
8.3447,12.0893
8.6167,12.8639
8.9629,13.6007
9.3792,14.2949
9.8615,14.9411
10.4058,15.5344
11.0080,16.0697
11.6640,16.5419
12.3697,16.9458
12.8660,17.1748
13.6522,17.4578
14.4540,17.6546
15.2685,17.7649
16.0926,17.7884
16.9232,17.7249
17.5022,17.6295
18.2647,17.4326
19.0156,17.1530
19.7438,16.7957
20.4379,16.3659
20.7175,16.1643
20.9893,15.9433
21.2845,15.6759
21.5805,15.3846
21.8546,15.0918
22.0843,14.8200
22.1333,14.7565
22.2453,14.6126
22.3399,14.5001
22.4037,14.4345
22.4208,14.4241
22.4680,14.4487
22.5720,14.5162
22.7188,14.6173
22.8945,14.7425
22.9553,14.7866
23.1682,14.9406
23.3863,15.0962
23.5848,15.2359
23.7388,15.3420
23.7462,15.3469
23.8832,15.4437
23.9865,15.5253
24.0384,15.5774
24.0413,15.5847
24.0132,15.6572
23.9315,15.7818
23.8049,15.9483
23.6419,16.1467
23.4512,16.3669
23.2414,16.5987
23.0211,16.8320
22.7989,17.0569
22.7191,17.1348
22.0633,17.7080
21.3471,18.2221
20.5783,18.6729
19.7648,19.0567
18.9145,19.3695
18.0353,19.6073
17.5829,19.6977
17.3442,19.7356
17.1048,19.7639
16.8441,19.7841
16.5413,19.7977
16.1758,19.8063
16.0887,19.8076
15.7993,19.8107
15.5309,19.8118
15.2991,19.8110
15.1195,19.8083
15.0076,19.8039
14.9901,19.8023
14.1664,19.6788
13.4018,19.5102
12.6765,19.2913
11.9710,19.0163
11.5844,18.8392
10.7773,18.4023
10.0188,17.8946
9.3128,17.3209
8.6634,16.6861
8.0745,15.9949
7.5500,15.2523
7.0940,14.4630
6.7103,13.6321
6.4030,12.7642
6.2896,12.3587
6.2572,12.2275
6.2267,12.0912
6.1954,11.9347
6.1603,11.7428
6.1187,11.5003
6.0676,11.1920
6.0447,11.0513
6.0214,10.9085
2.0704,10.9085
2.0704,18.1021
1.0697,18.7679
0.8059,18.9427
0.5659,19.1003
0.3593,19.2345
0.1959,19.3390
0.0855,19.4075
0.0377,19.4337
0.0370,19.4338
0.0340,19.3905
0.0310,19.2633
0.0281,19.0562
0.0254,18.7731
0.0227,18.4181
0.0202,17.9951
0.0178,17.5080
0.0156,16.9610
0.0136,16.3579
0.0117,15.7027
0.0101,14.9994
0.0086,14.2520
0.0074,13.4645
0.0064,12.6409
0.0057,11.7851
0.0052,10.9011
0.0050,9.9929
0.0050,9.8319
0.0050,0.2300
4.2263,0.2300
4.9534,0.2302
5.5970,0.2308
6.1614,0.2320
6.6511,0.2337
7.0704,0.2360
7.4237,0.2390
7.7153,0.2428
7.9496,0.2473
8.1310,0.2527
8.2638,0.2590
8.3526,0.2662
8.4015,0.2745
8.4150,0.2838
8.4145,0.2849
8.3802,0.3335
8.3003,0.4425
8.1820,0.6024
8.0324,0.8033
7.8589,1.0356
7.6686,1.2896
7.6641,1.2956
6.9467,2.2514
2.0704,2.2514
2.0704,8.8871
4.0432,8.8871
4.5183,8.8872
4.9129,8.8871
5.2345,8.8857
5.4905,8.8822
5.6884,8.8756
5.8355,8.8651
5.9394,8.8496
6.0074,8.8284
6.0471,8.8004
6.0657,8.7647
6.0708,8.7204
6.0698,8.6667
6.0694,8.6363
6.0818,8.4940
6.1165,8.2853
6.1694,8.0276
6.2362,7.7384
6.3130,7.4350
6.3956,7.1349
6.4799,6.8555
6.5100,6.7631
6.8403,5.9088
7.2477,5.0924
7.7278,4.3187
8.2761,3.5929
8.8884,2.9197
9.5600,2.3041
10.2868,1.7511
11.0642,1.2656
11.7095,0.9338
12.5453,0.5901
13.4127,0.3244
14.3027,0.1377
15.2061,0.0309
16.1138,0.0050
Z" /> 
<g >
</g>
<g >
</g>
<g >
</g>
<g >
</g>
</g> 
</svg>
