<?xml version="1.0" standalone="no"?>
 <!DOCTYPE svg PUBLIC "-//W3C//DTD SVG 1.1//EN" 
 "http://www.w3.org/Graphics/SVG/1.1/DTD/svg11.dtd"> 
<svg
  xmlns:svg="http://www.w3.org/2000/svg"
  xmlns="http://www.w3.org/2000/svg"
  xmlns:xlink="http://www.w3.org/1999/xlink"
  version="1.1"
  width="45.8216mm" height="16.9926mm" viewBox="0.0000 0.0000 45.8216 16.9926">
<title>SVG Image created as Symbol_CreativeCommons_CopperTop_Type1_Big.svg date 2024/01/16 15:08:01 </title>
  <desc>Image generated by PCBNEW </desc>
<g style="fill:#000000; fill-opacity:1.0000;stroke:#000000; stroke-opacity:1.0000;
stroke-linecap:round; stroke-linejoin:round;"
 transform="translate(0 0) scale(1 1)">
</g>
<g style="fill:#000000; fill-opacity:0.0; 
stroke:#000000; stroke-width:0.0000; stroke-opacity:1; 
stroke-linecap:round; stroke-linejoin:round;">
</g>
<g style="fill:#000000; fill-opacity:1.0000; 
stroke:#000000; stroke-width:0.0212; stroke-opacity:1; 
stroke-linecap:round; stroke-linejoin:round;">
<rect x="-5.000000" y="-5.000000" width="55.839891" height="26.997460" rx="0.000000" />
</g>
<g style="fill:#FFFFFF; fill-opacity:1.0000; 
stroke:#FFFFFF; stroke-width:0.0212; stroke-opacity:1; 
stroke-linecap:round; stroke-linejoin:round;">
<g >
</g>
<g >
</g>
<g >
</g>
<g >
</g>
</g>
<g style="fill:#FFFFFF; fill-opacity:1.0000; 
stroke:#FFFFFF; stroke-width:0.0212; stroke-opacity:1; 
stroke-linecap:round; stroke-linejoin:round;">
<g >
</g>
<g >
</g>
<g >
</g>
<g >
</g>
</g>
<g style="fill:#FFFFFF; fill-opacity:1.0000; 
stroke:#FFFFFF; stroke-width:0.0212; stroke-opacity:1; 
stroke-linecap:round; stroke-linejoin:round;">
<g >
</g>
<g >
</g>
<g >
</g>
<g >
</g>
</g>
<g style="fill:#FFFFFF; fill-opacity:1.0000; 
stroke:#FFFFFF; stroke-width:0.0212; stroke-opacity:1; 
stroke-linecap:round; stroke-linejoin:round;">
<g >
</g>
<g >
</g>
<g >
</g>
<g >
</g>
</g>
<g style="fill:#FFFFFF; fill-opacity:1.0000; 
stroke:#FFFFFF; stroke-width:0.0212; stroke-opacity:1; 
stroke-linecap:round; stroke-linejoin:round;">
<g >
</g>
<g >
</g>
<g >
</g>
<g >
</g>
</g>
<g style="fill:#FFFFFF; fill-opacity:1.0000; 
stroke:#FFFFFF; stroke-width:0.0212; stroke-opacity:1; 
stroke-linecap:round; stroke-linejoin:round;">
<g >
</g>
<g >
</g>
<g >
</g>
<g >
</g>
</g>
<g style="fill:#FFFFFF; fill-opacity:1.0000; 
stroke:#FFFFFF; stroke-width:0.0212; stroke-opacity:1; 
stroke-linecap:round; stroke-linejoin:round;">
<g >
</g>
<g >
</g>
<g >
</g>
<g >
</g>
</g>
<g style="fill:#FFFFFF; fill-opacity:1.0000; 
stroke:#FFFFFF; stroke-width:0.0212; stroke-opacity:1; 
stroke-linecap:round; stroke-linejoin:round;">
<g >
</g>
<g >
</g>
<g >
</g>
<g >
</g>
</g>
<g style="fill:#FFFFFF; fill-opacity:1.0000; 
stroke:#FFFFFF; stroke-width:0.0212; stroke-opacity:1; 
stroke-linecap:round; stroke-linejoin:round;">
<g >
</g>
<g >
</g>
<g >
</g>
<g >
</g>
</g>
<g style="fill:#FFFFFF; fill-opacity:1.0000; 
stroke:#FFFFFF; stroke-width:0.0212; stroke-opacity:1; 
stroke-linecap:round; stroke-linejoin:round;">
<g >
</g>
<g >
</g>
<g >
</g>
<g >
</g>
</g>
<g style="fill:#FFFFFF; fill-opacity:1.0000; 
stroke:#FFFFFF; stroke-width:0.0212; stroke-opacity:1; 
stroke-linecap:round; stroke-linejoin:round;">
<g >
</g>
<g >
</g>
<g >
</g>
<g >
</g>
</g>
<g style="fill:#FFFFFF; fill-opacity:1.0000; 
stroke:#FFFFFF; stroke-width:0.0212; stroke-opacity:1; 
stroke-linecap:round; stroke-linejoin:round;">
<g >
</g>
<g >
</g>
<g >
</g>
<g >
</g>
</g>
<g style="fill:#FFFFFF; fill-opacity:1.0000; 
stroke:#FFFFFF; stroke-width:0.0212; stroke-opacity:1; 
stroke-linecap:round; stroke-linejoin:round;">
<g >
</g>
<g >
</g>
<g >
</g>
<g >
</g>
</g>
<g style="fill:#FFFFFF; fill-opacity:1.0000; 
stroke:#FFFFFF; stroke-width:0.0212; stroke-opacity:1; 
stroke-linecap:round; stroke-linejoin:round;">
<g >
</g>
<g >
</g>
<g >
</g>
<g >
</g>
</g>
<g style="fill:#FFFFFF; fill-opacity:1.0000; 
stroke:#FFFFFF; stroke-width:0.0212; stroke-opacity:1; 
stroke-linecap:round; stroke-linejoin:round;">
<g >
</g>
<g >
</g>
<g >
</g>
<g >
</g>
</g>
<g style="fill:#FFFFFF; fill-opacity:1.0000; 
stroke:#FFFFFF; stroke-width:0.0212; stroke-opacity:1; 
stroke-linecap:round; stroke-linejoin:round;">
<g >
</g>
<g >
</g>
<g >
</g>
<g >
</g>
</g>
<g style="fill:#FFFFFF; fill-opacity:1.0000; 
stroke:#FFFFFF; stroke-width:0.0212; stroke-opacity:1; 
stroke-linecap:round; stroke-linejoin:round;">
<g >
</g>
<g >
</g>
<g >
</g>
<g >
</g>
</g>
<g style="fill:#FFFFFF; fill-opacity:1.0000; 
stroke:#FFFFFF; stroke-width:0.0212; stroke-opacity:1; 
stroke-linecap:round; stroke-linejoin:round;">
<g >
</g>
<g >
</g>
<g >
</g>
<g >
</g>
</g>
<g style="fill:#FFFFFF; fill-opacity:1.0000; 
stroke:#FFFFFF; stroke-width:0.0212; stroke-opacity:1; 
stroke-linecap:round; stroke-linejoin:round;">
<g >
</g>
<g >
</g>
<g >
</g>
<g >
</g>
</g>
<g style="fill:#FFFFFF; fill-opacity:1.0000; 
stroke:#FFFFFF; stroke-width:0.0212; stroke-opacity:1; 
stroke-linecap:round; stroke-linejoin:round;">
<g >
</g>
<g >
</g>
<g >
</g>
<g >
</g>
</g>
<g style="fill:#FFFFFF; fill-opacity:1.0000; 
stroke:#FFFFFF; stroke-width:0.0212; stroke-opacity:1; 
stroke-linecap:round; stroke-linejoin:round;">
<g >
</g>
<g >
</g>
<g >
</g>
<g >
</g>
</g>
<g style="fill:#FFFFFF; fill-opacity:1.0000; 
stroke:#FFFFFF; stroke-width:0.0212; stroke-opacity:1; 
stroke-linecap:round; stroke-linejoin:round;">
<g >
</g>
<g >
</g>
<g >
</g>
<g >
</g>
</g>
<g style="fill:#FFFFFF; fill-opacity:1.0000; 
stroke:#FFFFFF; stroke-width:0.0212; stroke-opacity:1; 
stroke-linecap:round; stroke-linejoin:round;">
<g >
</g>
<g >
</g>
<g >
</g>
<g >
</g>
</g>
<g style="fill:#FFFFFF; fill-opacity:1.0000; 
stroke:#FFFFFF; stroke-width:0.0212; stroke-opacity:1; 
stroke-linecap:round; stroke-linejoin:round;">
<g >
</g>
<g >
</g>
<g >
</g>
<g >
</g>
</g>
<g style="fill:#FFFFFF; fill-opacity:1.0000; 
stroke:#FFFFFF; stroke-width:0.0212; stroke-opacity:1; 
stroke-linecap:round; stroke-linejoin:round;">
<g >
</g>
<g >
</g>
<g >
</g>
<g >
</g>
</g>
<g style="fill:#FFFFFF; fill-opacity:1.0000; 
stroke:#FFFFFF; stroke-width:0.0212; stroke-opacity:1; 
stroke-linecap:round; stroke-linejoin:round;">
<g >
</g>
<g >
</g>
<g >
</g>
<g >
</g>
</g>
<g style="fill:#FFFFFF; fill-opacity:1.0000; 
stroke:#FFFFFF; stroke-width:0.0212; stroke-opacity:1; 
stroke-linecap:round; stroke-linejoin:round;">
<g >
</g>
<g >
</g>
<g >
</g>
<g >
</g>
</g>
<g style="fill:#FFFFFF; fill-opacity:1.0000; 
stroke:#FFFFFF; stroke-width:0.0212; stroke-opacity:1; 
stroke-linecap:round; stroke-linejoin:round;">
<g >
</g>
<g >
</g>
<g >
</g>
<g >
</g>
</g>
<g style="fill:#FFFFFF; fill-opacity:1.0000; 
stroke:#FFFFFF; stroke-width:0.0212; stroke-opacity:1; 
stroke-linecap:round; stroke-linejoin:round;">
<g >
</g>
<g >
</g>
<g >
</g>
<g >
</g>
</g>
<g style="fill:#FFFFFF; fill-opacity:1.0000; 
stroke:#FFFFFF; stroke-width:0.0212; stroke-opacity:1; 
stroke-linecap:round; stroke-linejoin:round;">
<g >
</g>
<g >
</g>
<g >
</g>
<g >
</g>
</g>
<g style="fill:#FFFFFF; fill-opacity:1.0000; 
stroke:#FFFFFF; stroke-width:0.0212; stroke-opacity:1; 
stroke-linecap:round; stroke-linejoin:round;">
<g >
</g>
<g >
</g>
<g >
</g>
<g >
</g>
</g>
<g style="fill:#FFFFFF; fill-opacity:1.0000; 
stroke:#FFFFFF; stroke-width:0.0212; stroke-opacity:1; 
stroke-linecap:round; stroke-linejoin:round;">
<g >
</g>
<g >
</g>
<g >
</g>
<g >
</g>
</g>
<g style="fill:#FFFFFF; fill-opacity:1.0000; 
stroke:#FFFFFF; stroke-width:0.0212; stroke-opacity:1; 
stroke-linecap:round; stroke-linejoin:round;">
<g >
</g>
<g >
</g>
<g >
</g>
<g >
</g>
</g>
<g style="fill:#FFFFFF; fill-opacity:1.0000; 
stroke:#FFFFFF; stroke-width:0.0212; stroke-opacity:1; 
stroke-linecap:round; stroke-linejoin:round;">
</g>
<g style="fill:#FFFFFF; fill-opacity:1.0000; 
stroke:#FFFFFF; stroke-width:0.3810; stroke-opacity:1; 
stroke-linecap:round; stroke-linejoin:round;">
</g>
<g style="fill:#FFFFFF; fill-opacity:0.0; 
stroke:#FFFFFF; stroke-width:0.3810; stroke-opacity:1; 
stroke-linecap:round; stroke-linejoin:round;">
<path d="M39.8506 10.5485
L40.1503 10.3478
" />
<path d="M18.0523 7.9475
L18.0523 8.6460
" />
<path d="M38.7482 10.1472
L38.9489 10.4494
" />
<path d="M26.4495 10.7492
L26.8483 10.6476
" />
<path d="M25.2481 8.6486
L25.4488 8.1482
" />
<path d="M31.6489 4.2493
L30.7498 4.3484
" />
<path d="M45.6494 10.2488
L45.6494 10.0481
" />
<path d="M32.5506 8.8492
L32.3500 9.0474
" />
<path d="M12.7488 10.5485
L13.7495 12.0471
" />
<path d="M26.1498 7.5488
L25.7485 7.6478
" />
<path d="M40.3484 8.8492
L40.1503 8.6486
" />
<path d="M36.0482 8.8492
L35.8501 8.7477
" />
<path d="M15.1491 6.8477
L14.8494 7.3481
" />
<path d="M43.0484 8.9483
L43.0484 10.6476
" />
<path d="M28.4485 8.9483
L28.8498 8.7477
" />
<path d="M41.2501 5.1485
L41.2501 4.6481
" />
<path d="M42.4490 5.2475
L42.0502 5.4482
" />
<path d="M37.2496 2.7482
L37.4503 2.7482
" />
<path d="M36.2489 10.7492
L36.1498 10.6476
" />
<path d="M33.4498 4.5490
L34.0492 4.5490
" />
<path d="M14.2499 3.9470
L13.5489 4.5490
" />
<path d="M19.8506 6.0476
L20.5517 6.0476
" />
<path d="M32.6497 8.5470
L33.1501 8.5470
" />
<path d="M29.3502 8.8492
L29.5483 9.1490
" />
<path d="M37.8491 2.6491
L37.6484 2.9488
" />
<path d="M42.7487 8.8492
L42.5506 8.7477
" />
<path d="M16.8483 10.8482
L17.2497 10.7492
" />
<path d="M19.9522 5.7479
L19.5509 5.9460
" />
<path d="M36.2489 5.4482
L36.0482 5.2475
" />
<path d="M33.1501 5.0494
L33.0485 4.8487
" />
<path d="M29.3502 10.6476
L29.1496 10.7492
" />
<path d="M32.2484 10.7492
L32.1493 10.6476
" />
<path d="M37.4503 5.5473
L37.5493 5.6488
" />
<path d="M42.0502 3.4492
L42.4490 3.5483
" />
<path d="M18.3520 8.8467
L18.2504 7.8485
" />
<path d="M36.3505 8.8492
L36.4495 8.9483
" />
<path d="M28.6492 5.6488
L28.5501 5.1485
" />
<path d="M41.4482 5.6488
L41.2501 5.5473
" />
<path d="M12.2484 7.0484
L12.1493 8.2473
" />
<path d="M28.2504 9.2480
L28.4485 8.9483
" />
<path d="M41.8496 10.4494
L41.8496 8.8492
" />
<path d="M41.5498 3.4492
L42.0502 3.4492
" />
<path d="M30.2494 5.1485
L30.5491 5.4482
" />
<path d="M34.4505 3.7489
L34.5496 4.4474
" />
<path d="M26.0482 10.7492
L26.4495 10.7492
" />
<path d="M41.2501 3.9470
L41.4482 3.7489
" />
<path d="M33.0485 4.4474
L33.4498 4.2493
" />
<path d="M34.9484 10.7492
L35.0500 10.6476
" />
<path d="M39.4493 5.1485
L39.3502 4.8487
" />
<path d="M45.1490 8.5470
L44.6486 8.5470
" />
<path d="M26.8483 10.2488
L26.6502 10.4494
" />
<path d="M36.7492 8.7477
L36.3505 8.8492
" />
<path d="M12.1493 8.2473
L12.3500 9.4487
" />
<path d="M30.8488 3.6473
L31.1485 3.6473
" />
<path d="M45.4487 8.6486
L45.1490 8.5470
" />
<path d="M45.3497 8.8492
L45.4487 8.9483
" />
<path d="M18.6517 6.5480
L18.3520 7.0484
" />
<path d="M31.1485 3.6473
L31.4483 3.6473
" />
<path d="M31.3492 8.5470
L31.8496 8.5470
" />
<path d="M41.1485 3.6473
L41.5498 3.4492
" />
<path d="M16.0508 5.7504
L15.4488 6.0502
" />
<path d="M39.0505 8.6486
L38.8498 8.9483
" />
<path d="M45.4487 10.6476
L45.6494 10.2488
" />
<path d="M36.6502 3.5483
L36.6502 3.4492
" />
<path d="M14.8494 7.0484
L15.3497 6.5480
" />
<path d="M14.7503 7.8485
L14.7503 8.3489
" />
<path d="M29.1496 10.7492
L28.6492 10.7492
" />
<path d="M15.2532 9.9465
L14.7528 9.4461
" />
<path d="M42.4490 4.1477
L41.4482 4.3484
" />
<path d="M39.2486 4.7471
L38.7482 3.4492
" />
<path d="M15.7536 10.0481
L16.2514 10.2462
" />
<path d="M44.7502 9.7484
L45.0500 9.7484
" />
<path d="M33.1501 3.8480
L32.9494 3.6473
" />
<path d="M38.5501 3.4492
L39.3502 5.6488
" />
<path d="M40.2494 3.5483
L40.1503 3.4492
" />
<path d="M35.8501 5.4482
L36.2489 5.6488
" />
<path d="M17.5494 2.7482
L17.0490 2.7482
" />
<path d="M27.2496 2.5475
L26.8483 2.4484
" />
<path d="M13.7495 12.0471
L14.9484 12.9488
" />
<path d="M20.1503 12.8472
L21.7505 11.5493
" />
<path d="M28.8498 3.4492
L28.8498 3.6473
" />
<path d="M42.8503 9.0474
L42.7487 8.8492
" />
<path d="M42.1493 3.6473
L42.3499 3.8480
" />
<path d="M25.4488 10.4494
L26.0482 10.7492
" />
<path d="M16.3505 5.9486
L16.8509 5.9486
" />
<path d="M14.5522 9.3471
L14.9510 9.3471
" />
<path d="M16.9499 5.6488
L16.5486 5.6488
" />
<path d="M18.1514 9.2480
L18.5501 9.8475
" />
<path d="M31.8496 8.5470
L32.2484 8.7477
" />
<path d="M26.5486 7.7494
L26.8483 7.9475
" />
<path d="M19.3502 10.2462
L18.7508 9.7484
" />
<path d="M35.7485 5.1485
L35.8501 5.4482
" />
<path d="M36.2489 5.6488
L36.6502 5.6488
" />
<path d="M20.1503 10.7466
L20.5517 10.7466
" />
<path d="M42.8503 8.6486
L43.0484 8.9483
" />
<path d="M29.5483 9.1490
L29.5483 10.0481
" />
<path d="M26.4495 7.5488
L26.1498 7.5488
" />
<path d="M28.5501 3.6473
L28.5501 4.2493
" />
<path d="M33.6504 10.6476
L33.5488 10.7492
" />
<path d="M18.3520 7.0484
L18.1514 7.4472
" />
<path d="M14.7503 8.3489
L14.9510 9.1490
" />
<path d="M28.2504 10.5485
L28.0497 10.1472
" />
<path d="M17.1506 6.1492
L16.6502 6.1492
" />
<path d="M37.6484 9.1490
L37.6484 10.6476
" />
<path d="M12.5481 6.0476
L12.2484 7.0484
" />
<path d="M32.3500 10.6476
L32.2484 10.7492
" />
<path d="M14.8519 9.1490
L15.1516 9.5477
" />
<path d="M25.2481 9.3471
L25.2481 8.6486
" />
<path d="M38.9489 10.1472
L39.1495 10.3478
" />
<path d="M35.7485 3.2485
L35.7485 5.1485
" />
<path d="M25.4488 8.1482
L25.8501 7.8485
" />
<path d="M34.5496 4.4474
L34.5496 5.6488
" />
<path d="M26.0482 2.8472
L26.5486 2.6491
" />
<path d="M27.4503 5.4482
L27.5494 5.2475
" />
<path d="M15.8501 6.1492
L16.3505 5.9486
" />
<path d="M25.3497 9.8475
L25.2481 9.3471
" />
<path d="M33.9502 3.4492
L34.2499 3.5483
" />
<path d="M20.5491 5.7479
L20.8488 5.8470
" />
<path d="M44.3489 8.6486
L44.1483 9.0474
" />
<path d="M30.8488 10.6476
L30.9504 10.7492
" />
<path d="M31.4483 5.4482
L30.9504 5.4482
" />
<path d="M21.7505 11.5493
L22.5506 9.9491
" />
<path d="M26.1498 2.5475
L25.7485 2.9488
" />
<path d="M28.9489 10.5485
L28.5501 10.4494
" />
<path d="M38.9489 9.1490
L38.9489 10.1472
" />
<path d="M30.7498 5.6488
L31.4483 5.6488
" />
<path d="M41.4482 5.4482
L41.2501 5.1485
" />
<path d="M18.5501 7.7469
L18.5501 8.2473
" />
<path d="M27.1506 2.7482
L27.3487 2.9488
" />
<path d="M42.2483 5.6488
L41.7505 5.6488
" />
<path d="M39.4493 10.5485
L39.8506 10.5485
" />
<path d="M33.3482 5.6488
L33.0485 5.4482
" />
<path d="M16.1498 6.2508
L15.6495 6.5505
" />
<path d="M25.5504 7.7494
L25.2481 8.0491
" />
<path d="M39.3502 8.5470
L39.0505 8.6486
" />
<path d="M38.8498 8.9483
L38.7482 9.1490
" />
<path d="M19.9497 3.3476
L18.9489 2.9488
" />
<path d="M41.4482 3.7489
L41.6489 3.6473
" />
<path d="M41.8496 8.6486
L41.7505 8.5470
" />
<path d="M34.2499 3.9470
L34.0492 3.6473
" />
<path d="M39.4493 5.6488
L39.5483 5.5473
" />
<path d="M44.6486 8.5470
L44.3489 8.6486
" />
<path d="M42.4490 3.5483
L42.6497 3.8480
" />
<path d="M29.0505 8.7477
L29.3502 8.8492
" />
<path d="M30.5491 4.0486
L30.6482 3.7489
" />
<path d="M35.1490 8.6486
L35.3497 8.5470
" />
<path d="M16.6528 10.6476
L15.9517 10.4469
" />
<path d="M42.5506 8.5470
L42.8503 8.6486
" />
<path d="M12.3500 9.4487
L12.7488 10.5485
" />
<path d="M26.1498 7.7494
L26.5486 7.7494
" />
<path d="M24.9484 9.3471
L25.1491 9.9491
" />
<path d="M30.6482 3.7489
L30.8488 3.6473
" />
<path d="M35.8501 8.7477
L35.4488 8.7477
" />
<path d="M31.4483 3.4492
L30.8488 3.4492
" />
<path d="M28.6492 3.4492
L28.5501 3.6473
" />
<path d="M30.5491 5.2475
L30.5491 4.7471
" />
<path d="M19.8506 10.1472
L20.4501 10.2462
" />
<path d="M40.5491 10.0481
L40.5491 9.2480
" />
<path d="M42.4490 5.2475
L42.5506 5.4482
" />
<path d="M28.5501 4.2493
L28.6492 5.6488
" />
<path d="M36.3505 9.1490
L36.3505 10.6476
" />
<path d="M20.9504 10.2462
L21.2502 10.1472
" />
<path d="M35.0500 10.6476
L35.0500 8.5470
" />
<path d="M17.6484 13.4492
L19.1496 13.3476
" />
<path d="M15.0526 10.1472
L15.6520 10.5485
" />
<path d="M16.8509 5.9486
L17.2497 5.9486
" />
<path d="M19.1521 6.4464
L19.8506 6.0476
" />
<path d="M35.4488 8.7477
L35.1490 8.9483
" />
<path d="M28.5501 10.4494
L28.2504 10.2488
" />
<path d="M31.9486 3.9470
L31.7505 3.6473
" />
<path d="M31.4483 8.7477
L31.1485 8.8492
" />
<path d="M14.5496 8.8492
L14.4506 8.1482
" />
<path d="M30.8488 3.4492
L30.5491 3.5483
" />
<path d="M14.7503 9.5477
L14.5496 8.8492
" />
<path d="M40.1503 8.6486
L39.8506 8.5470
" />
<path d="M40.0487 3.4492
L39.4493 5.1485
" />
<path d="M37.4503 8.6486
L37.6484 9.1490
" />
<path d="M33.4498 8.6486
L33.6504 8.9483
" />
<path d="M28.7482 8.6486
L29.0505 8.7477
" />
<path d="M36.4495 8.9483
L36.3505 9.1490
" />
<path d="M35.0500 8.5470
L34.8493 8.5470
" />
<path d="M13.5489 4.5490
L13.0485 5.1485
" />
<path d="M22.7488 6.7487
L22.2484 5.6488
" />
<path d="M37.6484 10.6476
L37.5493 10.7492
" />
<path d="M40.0487 8.8492
L39.8506 8.7477
" />
<path d="M45.5503 9.7484
L45.1490 9.5477
" />
<path d="M31.7505 8.7477
L31.4483 8.7477
" />
<path d="M36.6502 5.4482
L36.2489 5.4482
" />
<path d="M16.2514 10.2462
L16.6528 10.3478
" />
<path d="M44.2499 9.4487
L44.4505 9.6494
" />
<path d="M19.6500 10.6476
L20.1503 10.7466
" />
<path d="M21.3518 10.6476
L21.2502 10.4469
" />
<path d="M41.2501 4.2493
L41.2501 3.9470
" />
<path d="M38.7482 9.1490
L38.7482 10.1472
" />
<path d="M15.6495 6.5505
L15.1491 6.9493
" />
<path d="M31.7505 4.0486
L31.6489 4.2493
" />
<path d="M20.0513 6.2483
L19.3502 6.5480
" />
<path d="M34.2499 5.3491
L33.4498 5.4482
" />
<path d="M26.8483 7.9475
L26.9499 8.0491
" />
<path d="M31.7505 3.6473
L31.4483 3.4492
" />
<path d="M42.5506 8.7477
L42.1493 8.7477
" />
<path d="M32.9494 4.7471
L33.0485 4.4474
" />
<path d="M43.0484 10.6476
L43.0484 10.7492
" />
<path d="M37.2496 2.6491
L37.5493 2.4484
" />
<path d="M18.0523 8.6460
L18.1514 9.2480
" />
<path d="M29.7490 9.0474
L29.7490 10.2488
" />
<path d="M28.8498 5.6488
L28.8498 3.4492
" />
<path d="M16.2489 13.4492
L17.6484 13.4492
" />
<path d="M17.0490 2.7482
L16.2489 3.0479
" />
<path d="M36.3505 10.6476
L36.2489 10.7492
" />
<path d="M44.1483 9.0474
L44.1483 9.2480
" />
<path d="M44.5496 9.4487
L44.4505 9.2480
" />
<path d="M31.0495 8.5470
L30.9504 8.5470
" />
<path d="M34.8493 10.6476
L34.9484 10.7492
" />
<path d="M28.2504 8.7477
L28.5501 8.5470
" />
<path d="M16.6502 6.1492
L16.1498 6.2508
" />
<path d="M44.4505 9.6494
L44.7502 9.7484
" />
<path d="M22.9494 8.4479
L22.7488 6.7487
" />
<path d="M44.5496 10.7492
L45.0500 10.7492
" />
<path d="M36.2489 8.7477
L36.6502 8.5470
" />
<path d="M20.9504 10.7466
L21.3518 10.6476
" />
<path d="M31.6489 5.2475
L31.4483 5.4482
" />
<path d="M33.4498 10.7492
L33.4498 9.0474
" />
<path d="M36.6502 3.4492
L36.0482 3.4492
" />
<path d="M25.4488 3.7489
L25.4488 4.3484
" />
<path d="M44.2499 10.3478
L44.1483 10.4494
" />
<path d="M42.6497 4.3484
L41.1485 4.6481
" />
<path d="M16.5486 5.6488
L16.0508 5.7504
" />
<path d="M14.4506 7.2490
L14.2499 7.8485
" />
<path d="M26.8483 5.4482
L26.2489 5.3491
" />
<path d="M22.5506 9.9491
L22.9494 8.4479
" />
<path d="M39.8506 10.7492
L40.2494 10.5485
" />
<path d="M14.4506 7.1475
L14.2499 7.6478
" />
<path d="M25.2481 8.0491
L25.0500 8.6486
" />
<path d="M31.4483 3.6473
L31.6489 3.8480
" />
<path d="M19.3502 6.5480
L18.8499 7.1475
" />
<path d="M36.1498 9.0474
L36.0482 8.8492
" />
<path d="M32.8503 5.1485
L32.9494 4.7471
" />
<path d="M45.6494 10.0481
L45.5503 9.7484
" />
<path d="M42.0502 8.5470
L42.5506 8.5470
" />
<path d="M33.2491 4.6481
L33.4498 4.5490
" />
<path d="M39.3502 4.8487
L39.2486 4.7471
" />
<path d="M33.5488 10.7492
L33.4498 10.7492
" />
<path d="M32.1493 8.9483
L32.0502 8.9483
" />
<path d="M42.9494 10.7492
L42.8503 10.6476
" />
<path d="M29.6499 8.8492
L29.7490 9.0474
" />
<path d="M36.6502 5.6488
L36.6502 5.4482
" />
<path d="M34.0492 3.6473
L33.4498 3.6473
" />
<path d="M44.1483 10.5485
L44.5496 10.7492
" />
<path d="M28.6492 10.7492
L28.2504 10.5485
" />
<path d="M17.0515 10.3478
L17.3513 10.2462
" />
<path d="M30.7498 4.5490
L31.9486 4.3484
" />
<path d="M37.1506 8.5470
L37.4503 8.6486
" />
<path d="M20.5517 10.7466
L20.9504 10.7466
" />
<path d="M17.3513 10.2462
L17.2522 10.5485
" />
<path d="M36.6502 8.5470
L37.1506 8.5470
" />
<path d="M35.8501 8.5470
L36.2489 8.7477
" />
<path d="M28.3495 10.2488
L28.2504 10.0481
" />
<path d="M28.6492 8.5470
L29.1496 8.5470
" />
<path d="M25.7485 7.6478
L25.5504 7.7494
" />
<path d="M44.4505 10.4494
L44.2499 10.3478
" />
<path d="M29.3502 10.3478
L28.9489 10.5485
" />
<path d="M29.5483 10.0481
L29.3502 10.3478
" />
<path d="M34.8493 9.3471
L34.8493 10.6476
" />
<path d="M37.5493 10.7492
L37.4503 10.6476
" />
<path d="M14.8494 6.5480
L14.4506 7.1475
" />
<path d="M33.0485 4.8487
L33.2491 4.6481
" />
<path d="M18.7508 9.7484
L18.3520 8.8467
" />
<path d="M36.5486 3.6473
L36.6502 3.5483
" />
<path d="M29.2486 3.6473
L29.0505 3.8480
" />
<path d="M37.6484 5.5473
L37.6484 3.5483
" />
<path d="M41.6489 8.5470
L41.5498 8.6486
" />
<path d="M27.0490 10.3478
L27.0490 10.2488
" />
<path d="M33.3482 8.6486
L33.4498 8.6486
" />
<path d="M20.5517 6.0476
L20.6507 6.2483
" />
<path d="M33.1501 8.7477
L32.7487 8.7477
" />
<path d="M19.2512 9.8475
L19.8506 10.1472
" />
<path d="M41.8496 8.6486
L42.0502 8.5470
" />
<path d="M45.4487 10.0481
L45.3497 10.3478
" />
<path d="M38.7482 3.4492
L38.6492 3.4492
" />
<path d="M33.4498 9.0474
L33.2491 8.8492
" />
<path d="M16.6528 10.3478
L17.0515 10.3478
" />
<path d="M14.2499 7.8485
L14.2499 8.5495
" />
<path d="M44.4505 8.9483
L44.6486 8.7477
" />
<path d="M36.1498 10.6476
L36.1498 9.0474
" />
<path d="M31.0495 10.7492
L31.0495 10.6476
" />
<path d="M30.5491 3.5483
L30.3484 3.8480
" />
<path d="M45.2481 9.8475
L45.4487 10.0481
" />
<path d="M35.3497 3.6473
L36.5486 3.6473
" />
<path d="M32.2484 8.7477
L32.6497 8.5470
" />
<path d="M26.9499 8.0491
L27.0490 7.9475
" />
<path d="M27.4503 2.8472
L27.2496 2.5475
" />
<path d="M14.2499 7.6478
L14.1483 8.5470
" />
<path d="M41.6489 10.7492
L41.7505 10.7492
" />
<path d="M37.5493 5.6488
L37.6484 5.5473
" />
<path d="M31.8496 5.4482
L31.7505 5.3491
" />
<path d="M14.9484 12.9488
L16.2489 13.4492
" />
<path d="M14.5496 7.3481
L14.8494 6.8477
" />
<path d="M45.0500 10.7492
L45.4487 10.6476
" />
<path d="M43.0484 10.7492
L42.9494 10.7492
" />
<path d="M27.5494 5.2475
L27.3487 5.1485
" />
<path d="M26.8483 10.6476
L27.0490 10.3478
" />
<path d="M15.4488 6.0502
L14.9510 6.4489
" />
<path d="M32.3500 9.0474
L32.3500 10.6476
" />
<path d="M18.5501 8.8467
L18.8499 9.3471
" />
<path d="M28.0497 10.1472
L28.0497 9.1490
" />
<path d="M45.0500 9.7484
L45.2481 9.8475
" />
<path d="M20.4501 10.2462
L20.9504 10.2462
" />
<path d="M25.8501 7.8485
L26.1498 7.7494
" />
<path d="M34.8493 8.5470
L34.8493 9.3471
" />
<path d="M31.9486 8.7477
L31.7505 8.7477
" />
<path d="M28.8498 3.6473
L29.2486 3.4492
" />
<path d="M27.3487 5.1485
L26.8483 5.4482
" />
<path d="M27.0490 10.2488
L26.8483 10.2488
" />
<path d="M14.2499 8.9483
L14.5496 9.5477
" />
<path d="M31.0495 8.6486
L31.3492 8.5470
" />
<path d="M18.5501 8.2473
L18.5501 8.8467
" />
<path d="M27.0490 7.8485
L26.8483 7.6478
" />
<path d="M30.3484 3.8480
L30.2494 5.1485
" />
<path d="M27.0490 7.9475
L27.0490 7.8485
" />
<path d="M17.2497 10.7492
L17.3487 10.2488
" />
<path d="M41.0495 5.2475
L41.0495 3.9470
" />
<path d="M20.6507 6.2483
L20.0513 6.2483
" />
<path d="M17.3487 5.7504
L16.9499 5.6488
" />
<path d="M15.3497 6.4489
L15.8501 6.1492
" />
<path d="M25.1491 9.9491
L25.4488 10.4494
" />
<path d="M40.3484 9.1490
L40.0487 8.8492
" />
<path d="M26.8483 2.4484
L26.1498 2.5475
" />
<path d="M30.4500 5.4482
L30.7498 5.6488
" />
<path d="M25.7485 2.9488
L25.4488 3.7489
" />
<path d="M45.3497 10.3478
L45.1490 10.4494
" />
<path d="M15.9517 10.4469
L15.2532 9.9465
" />
<path d="M40.5491 9.2480
L40.3484 8.8492
" />
<path d="M18.9489 2.9488
L17.5494 2.8472
" />
<path d="M28.2504 10.2488
L28.3495 10.2488
" />
<path d="M42.5506 5.4482
L42.2483 5.6488
" />
<path d="M28.5501 5.1485
L28.8498 5.6488
" />
<path d="M20.8488 5.8470
L20.6482 6.1492
" />
<path d="M15.0500 6.4489
L14.8494 6.5480
" />
<path d="M44.6486 8.7477
L45.0500 8.7477
" />
<path d="M29.6499 10.4494
L29.3502 10.6476
" />
<path d="M25.8501 10.4494
L25.5504 10.1472
" />
<path d="M34.2499 4.5490
L34.2499 5.3491
" />
<path d="M26.9499 5.6488
L27.4503 5.4482
" />
<path d="M20.5517 5.7479
L19.9522 5.7479
" />
<path d="M19.5509 5.9460
L19.0505 6.1467
" />
<path d="M20.3510 10.5485
L19.3502 10.2462
" />
<path d="M40.2494 10.5485
L40.5491 10.0481
" />
<path d="M41.5498 8.6486
L41.5498 10.6476
" />
<path d="M29.7490 10.2488
L29.6499 10.4494
" />
<path d="M45.4487 8.9483
L45.5503 8.8492
" />
<path d="M27.3487 2.9488
L27.5494 2.9488
" />
<path d="M44.7502 9.4487
L44.5496 9.4487
" />
<path d="M37.4503 3.4492
L37.4503 3.5483
" />
<path d="M17.3513 10.5485
L17.2522 10.7466
" />
<path d="M13.0485 5.1485
L12.5481 6.0476
" />
<path d="M14.8494 7.3481
L14.7503 7.8485
" />
<path d="M15.2532 9.6468
L15.7536 10.0481
" />
<path d="M29.6499 3.6473
L29.2486 3.6473
" />
<path d="M31.6489 3.8480
L31.7505 4.0486
" />
<path d="M37.5493 2.4484
L37.8491 2.6491
" />
<path d="M25.7485 3.3476
L26.0482 2.8472
" />
<path d="M40.3484 10.0481
L40.3484 9.1490
" />
<path d="M45.1490 10.4494
L44.6486 10.5485
" />
<path d="M39.8506 8.5470
L39.3502 8.5470
" />
<path d="M39.1495 10.3478
L39.4493 10.5485
" />
<path d="M30.5491 5.4482
L30.4500 5.4482
" />
<path d="M33.1501 8.5470
L33.3482 8.6486
" />
<path d="M16.3530 10.7466
L16.8534 10.8482
" />
<path d="M18.1514 7.4472
L18.0523 7.9475
" />
<path d="M32.1493 10.6476
L32.1493 8.9483
" />
<path d="M14.9510 6.5480
L14.4506 7.2490
" />
<path d="M25.0500 8.6486
L24.9484 9.3471
" />
<path d="M26.6502 10.4494
L26.2489 10.5485
" />
<path d="M44.1483 10.4494
L44.1483 10.5485
" />
<path d="M19.0505 10.3478
L19.6500 10.6476
" />
<path d="M37.4503 9.2480
L37.3487 8.8492
" />
<path d="M28.0497 9.1490
L28.2504 8.7477
" />
<path d="M33.4498 5.4482
L33.2491 5.3491
" />
<path d="M39.3502 5.6488
L39.4493 5.6488
" />
<path d="M32.9494 3.6473
L33.3482 3.4492
" />
<path d="M30.8488 8.5470
L30.8488 10.6476
" />
<path d="M30.9504 5.4482
L30.5491 5.2475
" />
<path d="M45.5503 8.7477
L45.4487 8.6486
" />
<path d="M44.6486 10.5485
L44.4505 10.4494
" />
<path d="M39.5483 5.5473
L40.2494 3.5483
" />
<path d="M21.2502 10.4469
L20.3510 10.5485
" />
<path d="M40.1503 10.3478
L40.2494 10.1472
" />
<path d="M42.0502 5.4482
L41.4482 5.4482
" />
<path d="M33.0485 5.4482
L32.8503 5.1485
" />
<path d="M39.8506 8.7477
L39.4493 8.7477
" />
<path d="M40.2494 10.1472
L40.3484 10.0481
" />
<path d="M29.2486 8.5470
L29.4493 8.6486
" />
<path d="M33.4498 4.2493
L34.2499 4.2493
" />
<path d="M41.1485 4.6481
L41.2501 4.2493
" />
<path d="M40.1503 3.4492
L40.0487 3.4492
" />
<path d="M18.8499 7.1475
L18.5501 7.7469
" />
<path d="M33.6504 8.9483
L33.6504 10.6476
" />
<path d="M37.6484 2.9488
L37.5493 2.9488
" />
<path d="M26.4495 5.6488
L26.9499 5.6488
" />
<path d="M36.0482 5.2475
L35.9491 5.0494
" />
<path d="M39.3502 10.7492
L39.8506 10.7492
" />
<path d="M15.6520 10.5485
L16.3530 10.7466
" />
<path d="M35.7485 2.4484
L35.7485 3.2485
" />
<path d="M29.6499 3.4492
L29.6499 3.6473
" />
<path d="M41.2501 5.5473
L41.0495 5.2475
" />
<path d="M34.2499 4.2493
L34.2499 3.9470
" />
<path d="M33.4498 3.6473
L33.1501 3.8480
" />
<path d="M44.4505 9.2480
L44.4505 8.9483
" />
<path d="M19.1496 13.3476
L20.1503 12.8472
" />
<path d="M25.6494 4.1477
L25.7485 3.3476
" />
<path d="M34.5496 5.6488
L33.3482 5.6488
" />
<path d="M26.5486 2.6491
L27.1506 2.7482
" />
<path d="M29.0505 3.8480
L28.8498 4.0486
" />
<path d="M30.7498 4.3484
L30.7498 4.5490
" />
<path d="M42.6497 3.8480
L42.6497 4.3484
" />
<path d="M18.2504 7.8485
L18.5501 7.1475
" />
<path d="M33.2491 5.3491
L33.1501 5.0494
" />
<path d="M42.3499 3.8480
L42.4490 4.1477
" />
<path d="M32.0502 8.9483
L31.9486 8.7477
" />
<path d="M26.2489 10.5485
L25.8501 10.4494
" />
<path d="M37.3487 8.8492
L37.1506 8.7477
" />
<path d="M41.0495 3.9470
L41.1485 3.6473
" />
<path d="M18.5501 9.8475
L19.0505 10.3478
" />
<path d="M35.7485 3.4492
L35.3497 3.4492
" />
<path d="M35.3497 3.4492
L35.3497 3.6473
" />
<path d="M41.7505 5.6488
L41.4482 5.6488
" />
<path d="M42.1493 8.7477
L41.8496 8.9483
" />
<path d="M45.0500 8.7477
L45.3497 8.8492
" />
<path d="M28.2504 10.0481
L28.2504 9.2480
" />
<path d="M37.5493 2.9488
L37.2496 2.7482
" />
<path d="M37.4503 10.6476
L37.4503 9.2480
" />
<path d="M31.0495 10.6476
L31.0495 8.5470
" />
<path d="M38.9489 10.4494
L39.3502 10.7492
" />
<path d="M29.2486 3.4492
L29.6499 3.4492
" />
<path d="M41.8496 8.8492
L41.8496 8.6486
" />
<path d="M39.4493 8.7477
L39.0505 8.9483
" />
<path d="M14.8494 3.4492
L14.2499 3.9470
" />
<path d="M37.6484 3.5483
L37.6484 3.4492
" />
<path d="M33.2491 8.8492
L33.1501 8.7477
" />
<path d="M17.2522 10.5485
L16.6528 10.6476
" />
<path d="M45.1490 9.5477
L44.7502 9.4487
" />
<path d="M41.7505 10.7492
L41.8496 10.4494
" />
<path d="M26.2489 5.3491
L25.8501 4.8487
" />
<path d="M21.2502 10.2488
L21.3492 10.5485
" />
<path d="M20.9504 4.0486
L19.9497 3.3476
" />
<path d="M25.8501 4.8487
L25.6494 4.1477
" />
<path d="M14.6512 9.6468
L15.0526 10.1472
" />
<path d="M17.2497 5.9486
L17.3487 5.7504
" />
<path d="M37.1506 8.7477
L36.7492 8.7477
" />
<path d="M37.4503 3.5483
L37.4503 5.5473
" />
<path d="M31.4483 5.6488
L31.8496 5.4482
" />
<path d="M41.5498 10.6476
L41.6489 10.7492
" />
<path d="M30.9504 10.7492
L31.0495 10.7492
" />
<path d="M14.1483 8.5470
L14.2499 9.0474
" />
<path d="M30.5491 4.7471
L30.5491 4.0486
" />
<path d="M25.4488 4.3484
L25.7485 5.2475
" />
<path d="M35.9491 5.0494
L35.9491 2.4484
" />
<path d="M25.7485 5.2475
L26.4495 5.6488
" />
<path d="M22.2484 5.6488
L20.9504 4.0486
" />
<path d="M18.8499 9.3471
L19.2512 9.8475
" />
<path d="M31.9486 4.3484
L31.9486 3.9470
" />
<path d="M35.3497 8.5470
L35.8501 8.5470
" />
<path d="M26.8483 7.6478
L26.4495 7.5488
" />
<path d="M29.4493 8.6486
L29.6499 8.8492
" />
<path d="M25.5504 10.1472
L25.3497 9.8475
" />
<path d="M41.6489 3.6473
L42.1493 3.6473
" />
<path d="M19.0505 6.1467
L18.6517 6.5480
" />
<path d="M34.2499 3.5483
L34.4505 3.7489
" />
<path d="M14.4506 8.1482
L14.5496 7.5488
" />
<path d="M44.1483 9.2480
L44.2499 9.4487
" />
<path d="M14.2499 8.5495
L14.3490 9.1490
" />
<path d="M42.8503 10.6476
L42.8503 9.0474
" />
<path d="M33.3482 3.4492
L33.9502 3.4492
" />
<path d="M32.7487 8.7477
L32.5506 8.8492
" />
<path d="M18.5501 7.1475
L19.1521 6.4464
" />
<path d="M16.2489 3.0479
L15.5504 3.2485
" />
<path d="M15.5504 3.2485
L14.8494 3.4492
" />
<circle cx="17.5494" cy="8.1482" r="5.5880" /> 
<circle cx="17.5494" cy="8.1482" r="5.1806" /> 
<g >
</g>
<g >
</g>
<g >
</g>
<g >
</g>
</g>
<g style="fill:#FFFFFF; fill-opacity:0.0; 
stroke:#FFFFFF; stroke-width:0.3810; stroke-opacity:1; 
stroke-linecap:round; stroke-linejoin:round;">
<g >
</g>
<g >
</g>
<g >
</g>
<g >
</g>
</g>
<g style="fill:#FFFFFF; fill-opacity:0.0; 
stroke:#FFFFFF; stroke-width:0.3810; stroke-opacity:1; 
stroke-linecap:round; stroke-linejoin:round;">
</g>
<g style="fill:#FFFFFF; fill-opacity:0.0; 
stroke:#FFFFFF; stroke-width:0.1500; stroke-opacity:1; 
stroke-linecap:round; stroke-linejoin:round;">
<text x="18.1488" y="1.3482"
textLength="4.5357" font-size="1.3333" lengthAdjust="spacingAndGlyphs"
text-anchor="middle" opacity="0">REF**</text>
<g class="stroked-text"><desc>REF**</desc>
<path d="M16.8155 1.3031
L16.4821 0.8269
" />
<path d="M16.2440 1.3031
L16.2440 0.3031
" />
<path d="M16.2440 0.3031
L16.6250 0.3031
" />
<path d="M16.6250 0.3031
L16.7202 0.3507
" />
<path d="M16.7202 0.3507
L16.7679 0.3983
" />
<path d="M16.7679 0.3983
L16.8155 0.4935
" />
<path d="M16.8155 0.4935
L16.8155 0.6364
" />
<path d="M16.8155 0.6364
L16.7679 0.7316
" />
<path d="M16.7679 0.7316
L16.7202 0.7793
" />
<path d="M16.7202 0.7793
L16.6250 0.8269
" />
<path d="M16.6250 0.8269
L16.2440 0.8269
" />
<path d="M17.2440 0.7793
L17.5774 0.7793
" />
<path d="M17.7202 1.3031
L17.2440 1.3031
" />
<path d="M17.2440 1.3031
L17.2440 0.3031
" />
<path d="M17.2440 0.3031
L17.7202 0.3031
" />
<path d="M18.4821 0.7793
L18.1488 0.7793
" />
<path d="M18.1488 1.3031
L18.1488 0.3031
" />
<path d="M18.1488 0.3031
L18.6250 0.3031
" />
<path d="M19.1488 0.3031
L19.1488 0.5412
" />
<path d="M18.9107 0.4459
L19.1488 0.5412
" />
<path d="M19.1488 0.5412
L19.3869 0.4459
" />
<path d="M19.0060 0.7316
L19.1488 0.5412
" />
<path d="M19.1488 0.5412
L19.2917 0.7316
" />
<path d="M19.9107 0.3031
L19.9107 0.5412
" />
<path d="M19.6726 0.4459
L19.9107 0.5412
" />
<path d="M19.9107 0.5412
L20.1488 0.4459
" />
<path d="M19.7679 0.7316
L19.9107 0.5412
" />
<path d="M19.9107 0.5412
L20.0536 0.7316
" />
</g><g >
</g>
<g >
</g>
<g >
</g>
<g >
</g>
</g> 
</svg>
