<?xml version="1.0" standalone="no"?>
 <!DOCTYPE svg PUBLIC "-//W3C//DTD SVG 1.1//EN" 
 "http://www.w3.org/Graphics/SVG/1.1/DTD/svg11.dtd"> 
<svg
  xmlns:svg="http://www.w3.org/2000/svg"
  xmlns="http://www.w3.org/2000/svg"
  xmlns:xlink="http://www.w3.org/1999/xlink"
  version="1.1"
  width="14.1224mm" height="179.2478mm" viewBox="0.0000 0.0000 14.1224 179.2478">
<title>SVG Image created as conn_01x57.svg date 2024/01/16 15:09:08 </title>
  <desc>Image generated by Eeschema-SVG </desc>
<g style="fill:#000000; fill-opacity:1.0000;stroke:#000000; stroke-opacity:1.0000;
stroke-linecap:round; stroke-linejoin:round;"
 transform="translate(0 0) scale(1 1)">
</g>
<g style="fill:#840000; fill-opacity:0.0; 
stroke:#840000; stroke-width:0.0000; stroke-opacity:1; 
stroke-linecap:round; stroke-linejoin:round;">
</g>
<g style="fill:#FFFFC2; fill-opacity:0.0; 
stroke:#FFFFC2; stroke-width:0.0000; stroke-opacity:1; 
stroke-linecap:round; stroke-linejoin:round;">
</g>
<g style="fill:#FFFFC2; fill-opacity:1.0000; 
stroke:#FFFFC2; stroke-width:0.0000; stroke-opacity:1; 
stroke-linecap:round; stroke-linejoin:round;">
<rect x="5.791200" y="17.233900" width="2.540000" height="144.780000" rx="0.000000" />
</g>
<g style="fill:#840084; fill-opacity:1.0000; 
stroke:#840084; stroke-width:0.0000; stroke-opacity:1; 
stroke-linecap:round; stroke-linejoin:round;">
</g>
<g style="fill:#840000; fill-opacity:1.0000; 
stroke:#840000; stroke-width:0.0000; stroke-opacity:1; 
stroke-linecap:round; stroke-linejoin:round;">
</g>
<g style="fill:#840000; fill-opacity:0.0; 
stroke:#840000; stroke-width:0.1524; stroke-opacity:1; 
stroke-linecap:round; stroke-linejoin:round;">
<rect x="5.791200" y="160.616900" width="1.270000" height="0.254000" rx="0.000000" />
<rect x="5.791200" y="158.076900" width="1.270000" height="0.254000" rx="0.000000" />
<rect x="5.791200" y="155.536900" width="1.270000" height="0.254000" rx="0.000000" />
<rect x="5.791200" y="152.996900" width="1.270000" height="0.254000" rx="0.000000" />
<rect x="5.791200" y="150.456900" width="1.270000" height="0.254000" rx="0.000000" />
<rect x="5.791200" y="147.916900" width="1.270000" height="0.254000" rx="0.000000" />
<rect x="5.791200" y="145.376900" width="1.270000" height="0.254000" rx="0.000000" />
<rect x="5.791200" y="142.836900" width="1.270000" height="0.254000" rx="0.000000" />
<rect x="5.791200" y="140.296900" width="1.270000" height="0.254000" rx="0.000000" />
<rect x="5.791200" y="137.756900" width="1.270000" height="0.254000" rx="0.000000" />
<rect x="5.791200" y="135.216900" width="1.270000" height="0.254000" rx="0.000000" />
<rect x="5.791200" y="132.676900" width="1.270000" height="0.254000" rx="0.000000" />
<rect x="5.791200" y="130.136900" width="1.270000" height="0.254000" rx="0.000000" />
<rect x="5.791200" y="127.596900" width="1.270000" height="0.254000" rx="0.000000" />
<rect x="5.791200" y="125.056900" width="1.270000" height="0.254000" rx="0.000000" />
<rect x="5.791200" y="122.516900" width="1.270000" height="0.254000" rx="0.000000" />
<rect x="5.791200" y="119.976900" width="1.270000" height="0.254000" rx="0.000000" />
<rect x="5.791200" y="117.436900" width="1.270000" height="0.254000" rx="0.000000" />
<rect x="5.791200" y="114.896900" width="1.270000" height="0.254000" rx="0.000000" />
<rect x="5.791200" y="112.356900" width="1.270000" height="0.254000" rx="0.000000" />
<rect x="5.791200" y="109.816900" width="1.270000" height="0.254000" rx="0.000000" />
<rect x="5.791200" y="107.276900" width="1.270000" height="0.254000" rx="0.000000" />
<rect x="5.791200" y="104.736900" width="1.270000" height="0.254000" rx="0.000000" />
<rect x="5.791200" y="102.196900" width="1.270000" height="0.254000" rx="0.000000" />
<rect x="5.791200" y="99.656900" width="1.270000" height="0.254000" rx="0.000000" />
<rect x="5.791200" y="97.116900" width="1.270000" height="0.254000" rx="0.000000" />
<rect x="5.791200" y="94.576900" width="1.270000" height="0.254000" rx="0.000000" />
<rect x="5.791200" y="92.036900" width="1.270000" height="0.254000" rx="0.000000" />
<rect x="5.791200" y="89.496900" width="1.270000" height="0.254000" rx="0.000000" />
<rect x="5.791200" y="86.956900" width="1.270000" height="0.254000" rx="0.000000" />
<rect x="5.791200" y="84.416900" width="1.270000" height="0.254000" rx="0.000000" />
<rect x="5.791200" y="81.876900" width="1.270000" height="0.254000" rx="0.000000" />
<rect x="5.791200" y="79.336900" width="1.270000" height="0.254000" rx="0.000000" />
<rect x="5.791200" y="76.796900" width="1.270000" height="0.254000" rx="0.000000" />
<rect x="5.791200" y="74.256900" width="1.270000" height="0.254000" rx="0.000000" />
<rect x="5.791200" y="71.716900" width="1.270000" height="0.254000" rx="0.000000" />
<rect x="5.791200" y="69.176900" width="1.270000" height="0.254000" rx="0.000000" />
<rect x="5.791200" y="66.636900" width="1.270000" height="0.254000" rx="0.000000" />
<rect x="5.791200" y="64.096900" width="1.270000" height="0.254000" rx="0.000000" />
<rect x="5.791200" y="61.556900" width="1.270000" height="0.254000" rx="0.000000" />
<rect x="5.791200" y="59.016900" width="1.270000" height="0.254000" rx="0.000000" />
<rect x="5.791200" y="56.476900" width="1.270000" height="0.254000" rx="0.000000" />
<rect x="5.791200" y="53.936900" width="1.270000" height="0.254000" rx="0.000000" />
<rect x="5.791200" y="51.396900" width="1.270000" height="0.254000" rx="0.000000" />
<rect x="5.791200" y="48.856900" width="1.270000" height="0.254000" rx="0.000000" />
<rect x="5.791200" y="46.316900" width="1.270000" height="0.254000" rx="0.000000" />
<rect x="5.791200" y="43.776900" width="1.270000" height="0.254000" rx="0.000000" />
<rect x="5.791200" y="41.236900" width="1.270000" height="0.254000" rx="0.000000" />
<rect x="5.791200" y="38.696900" width="1.270000" height="0.254000" rx="0.000000" />
<rect x="5.791200" y="36.156900" width="1.270000" height="0.254000" rx="0.000000" />
<rect x="5.791200" y="33.616900" width="1.270000" height="0.254000" rx="0.000000" />
<rect x="5.791200" y="31.076900" width="1.270000" height="0.254000" rx="0.000000" />
<rect x="5.791200" y="28.536900" width="1.270000" height="0.254000" rx="0.000000" />
<rect x="5.791200" y="25.996900" width="1.270000" height="0.254000" rx="0.000000" />
<rect x="5.791200" y="23.456900" width="1.270000" height="0.254000" rx="0.000000" />
<rect x="5.791200" y="20.916900" width="1.270000" height="0.254000" rx="0.000000" />
<rect x="5.791200" y="18.376900" width="1.270000" height="0.254000" rx="0.000000" />
</g>
<g style="fill:#840000; fill-opacity:0.0; 
stroke:#840000; stroke-width:0.2540; stroke-opacity:1; 
stroke-linecap:round; stroke-linejoin:round;">
<rect x="5.791200" y="17.233900" width="2.540000" height="144.780000" rx="0.000000" />
</g>
<g style="fill:#840000; fill-opacity:0.0; 
stroke:#840000; stroke-width:0.1524; stroke-opacity:1; 
stroke-linecap:round; stroke-linejoin:round;">
<path d="M5.7912 18.5039
L1.9812 18.5039
" />
</g>
<g style="fill:#A90000; fill-opacity:0.0; 
stroke:#A90000; stroke-width:0.1524; stroke-opacity:1; 
stroke-linecap:round; stroke-linejoin:round;">
<text x="3.8862" y="18.2499"
textLength="1.4127" font-size="1.6933" lengthAdjust="spacingAndGlyphs"
text-anchor="middle" opacity="0">1</text>
<g class="stroked-text"><desc>1</desc>
<path d="M4.2491 18.0864
L3.5234 18.0864
" />
<path d="M3.8862 18.0864
L3.8862 16.8164
" />
<path d="M3.8862 16.8164
L3.7653 16.9979
" />
<path d="M3.7653 16.9979
L3.6443 17.1188
" />
<path d="M3.6443 17.1188
L3.5234 17.1793
" />
</g></g>
<g style="fill:#840000; fill-opacity:0.0; 
stroke:#840000; stroke-width:0.1524; stroke-opacity:1; 
stroke-linecap:round; stroke-linejoin:round;">
<path d="M5.7912 41.3639
L1.9812 41.3639
" />
</g>
<g style="fill:#A90000; fill-opacity:0.0; 
stroke:#A90000; stroke-width:0.1524; stroke-opacity:1; 
stroke-linecap:round; stroke-linejoin:round;">
<text x="3.8862" y="41.1099"
textLength="2.6222" font-size="1.6933" lengthAdjust="spacingAndGlyphs"
text-anchor="middle" opacity="0">10</text>
<g class="stroked-text"><desc>10</desc>
<path d="M3.6443 40.9464
L2.9186 40.9464
" />
<path d="M3.2814 40.9464
L3.2814 39.6764
" />
<path d="M3.2814 39.6764
L3.1605 39.8579
" />
<path d="M3.1605 39.8579
L3.0395 39.9788
" />
<path d="M3.0395 39.9788
L2.9186 40.0393
" />
<path d="M4.4304 39.6764
L4.5514 39.6764
" />
<path d="M4.5514 39.6764
L4.6723 39.7369
" />
<path d="M4.6723 39.7369
L4.7328 39.7974
" />
<path d="M4.7328 39.7974
L4.7933 39.9183
" />
<path d="M4.7933 39.9183
L4.8538 40.1602
" />
<path d="M4.8538 40.1602
L4.8538 40.4626
" />
<path d="M4.8538 40.4626
L4.7933 40.7045
" />
<path d="M4.7933 40.7045
L4.7328 40.8255
" />
<path d="M4.7328 40.8255
L4.6723 40.8860
" />
<path d="M4.6723 40.8860
L4.5514 40.9464
" />
<path d="M4.5514 40.9464
L4.4304 40.9464
" />
<path d="M4.4304 40.9464
L4.3095 40.8860
" />
<path d="M4.3095 40.8860
L4.2490 40.8255
" />
<path d="M4.2490 40.8255
L4.1885 40.7045
" />
<path d="M4.1885 40.7045
L4.1281 40.4626
" />
<path d="M4.1281 40.4626
L4.1281 40.1602
" />
<path d="M4.1281 40.1602
L4.1885 39.9183
" />
<path d="M4.1885 39.9183
L4.2490 39.7974
" />
<path d="M4.2490 39.7974
L4.3095 39.7369
" />
<path d="M4.3095 39.7369
L4.4304 39.6764
" />
</g></g>
<g style="fill:#840000; fill-opacity:0.0; 
stroke:#840000; stroke-width:0.1524; stroke-opacity:1; 
stroke-linecap:round; stroke-linejoin:round;">
<path d="M5.7912 43.9039
L1.9812 43.9039
" />
</g>
<g style="fill:#A90000; fill-opacity:0.0; 
stroke:#A90000; stroke-width:0.1524; stroke-opacity:1; 
stroke-linecap:round; stroke-linejoin:round;">
<text x="3.8862" y="43.6499"
textLength="2.6222" font-size="1.6933" lengthAdjust="spacingAndGlyphs"
text-anchor="middle" opacity="0">11</text>
<g class="stroked-text"><desc>11</desc>
<path d="M3.6443 43.4864
L2.9186 43.4864
" />
<path d="M3.2814 43.4864
L3.2814 42.2164
" />
<path d="M3.2814 42.2164
L3.1605 42.3979
" />
<path d="M3.1605 42.3979
L3.0395 42.5188
" />
<path d="M3.0395 42.5188
L2.9186 42.5793
" />
<path d="M4.8538 43.4864
L4.1281 43.4864
" />
<path d="M4.4909 43.4864
L4.4909 42.2164
" />
<path d="M4.4909 42.2164
L4.3700 42.3979
" />
<path d="M4.3700 42.3979
L4.2490 42.5188
" />
<path d="M4.2490 42.5188
L4.1281 42.5793
" />
</g></g>
<g style="fill:#840000; fill-opacity:0.0; 
stroke:#840000; stroke-width:0.1524; stroke-opacity:1; 
stroke-linecap:round; stroke-linejoin:round;">
<path d="M5.7912 46.4439
L1.9812 46.4439
" />
</g>
<g style="fill:#A90000; fill-opacity:0.0; 
stroke:#A90000; stroke-width:0.1524; stroke-opacity:1; 
stroke-linecap:round; stroke-linejoin:round;">
<text x="3.8862" y="46.1899"
textLength="2.6222" font-size="1.6933" lengthAdjust="spacingAndGlyphs"
text-anchor="middle" opacity="0">12</text>
<g class="stroked-text"><desc>12</desc>
<path d="M3.6443 46.0264
L2.9186 46.0264
" />
<path d="M3.2814 46.0264
L3.2814 44.7564
" />
<path d="M3.2814 44.7564
L3.1605 44.9379
" />
<path d="M3.1605 44.9379
L3.0395 45.0588
" />
<path d="M3.0395 45.0588
L2.9186 45.1193
" />
<path d="M4.1281 44.8774
L4.1885 44.8169
" />
<path d="M4.1885 44.8169
L4.3095 44.7564
" />
<path d="M4.3095 44.7564
L4.6119 44.7564
" />
<path d="M4.6119 44.7564
L4.7328 44.8169
" />
<path d="M4.7328 44.8169
L4.7933 44.8774
" />
<path d="M4.7933 44.8774
L4.8538 44.9983
" />
<path d="M4.8538 44.9983
L4.8538 45.1193
" />
<path d="M4.8538 45.1193
L4.7933 45.3007
" />
<path d="M4.7933 45.3007
L4.0676 46.0264
" />
<path d="M4.0676 46.0264
L4.8538 46.0264
" />
</g></g>
<g style="fill:#840000; fill-opacity:0.0; 
stroke:#840000; stroke-width:0.1524; stroke-opacity:1; 
stroke-linecap:round; stroke-linejoin:round;">
<path d="M5.7912 48.9839
L1.9812 48.9839
" />
</g>
<g style="fill:#A90000; fill-opacity:0.0; 
stroke:#A90000; stroke-width:0.1524; stroke-opacity:1; 
stroke-linecap:round; stroke-linejoin:round;">
<text x="3.8862" y="48.7299"
textLength="2.6222" font-size="1.6933" lengthAdjust="spacingAndGlyphs"
text-anchor="middle" opacity="0">13</text>
<g class="stroked-text"><desc>13</desc>
<path d="M3.6443 48.5664
L2.9186 48.5664
" />
<path d="M3.2814 48.5664
L3.2814 47.2964
" />
<path d="M3.2814 47.2964
L3.1605 47.4779
" />
<path d="M3.1605 47.4779
L3.0395 47.5988
" />
<path d="M3.0395 47.5988
L2.9186 47.6593
" />
<path d="M4.0676 47.2964
L4.8538 47.2964
" />
<path d="M4.8538 47.2964
L4.4304 47.7802
" />
<path d="M4.4304 47.7802
L4.6119 47.7802
" />
<path d="M4.6119 47.7802
L4.7328 47.8407
" />
<path d="M4.7328 47.8407
L4.7933 47.9012
" />
<path d="M4.7933 47.9012
L4.8538 48.0221
" />
<path d="M4.8538 48.0221
L4.8538 48.3245
" />
<path d="M4.8538 48.3245
L4.7933 48.4455
" />
<path d="M4.7933 48.4455
L4.7328 48.5060
" />
<path d="M4.7328 48.5060
L4.6119 48.5664
" />
<path d="M4.6119 48.5664
L4.2490 48.5664
" />
<path d="M4.2490 48.5664
L4.1281 48.5060
" />
<path d="M4.1281 48.5060
L4.0676 48.4455
" />
</g></g>
<g style="fill:#840000; fill-opacity:0.0; 
stroke:#840000; stroke-width:0.1524; stroke-opacity:1; 
stroke-linecap:round; stroke-linejoin:round;">
<path d="M5.7912 51.5239
L1.9812 51.5239
" />
</g>
<g style="fill:#A90000; fill-opacity:0.0; 
stroke:#A90000; stroke-width:0.1524; stroke-opacity:1; 
stroke-linecap:round; stroke-linejoin:round;">
<text x="3.8862" y="51.2699"
textLength="2.6222" font-size="1.6933" lengthAdjust="spacingAndGlyphs"
text-anchor="middle" opacity="0">14</text>
<g class="stroked-text"><desc>14</desc>
<path d="M3.6443 51.1064
L2.9186 51.1064
" />
<path d="M3.2814 51.1064
L3.2814 49.8364
" />
<path d="M3.2814 49.8364
L3.1605 50.0179
" />
<path d="M3.1605 50.0179
L3.0395 50.1388
" />
<path d="M3.0395 50.1388
L2.9186 50.1993
" />
<path d="M4.7328 50.2598
L4.7328 51.1064
" />
<path d="M4.4304 49.7760
L4.1281 50.6831
" />
<path d="M4.1281 50.6831
L4.9142 50.6831
" />
</g></g>
<g style="fill:#840000; fill-opacity:0.0; 
stroke:#840000; stroke-width:0.1524; stroke-opacity:1; 
stroke-linecap:round; stroke-linejoin:round;">
<path d="M5.7912 54.0639
L1.9812 54.0639
" />
</g>
<g style="fill:#A90000; fill-opacity:0.0; 
stroke:#A90000; stroke-width:0.1524; stroke-opacity:1; 
stroke-linecap:round; stroke-linejoin:round;">
<text x="3.8862" y="53.8099"
textLength="2.6222" font-size="1.6933" lengthAdjust="spacingAndGlyphs"
text-anchor="middle" opacity="0">15</text>
<g class="stroked-text"><desc>15</desc>
<path d="M3.6443 53.6464
L2.9186 53.6464
" />
<path d="M3.2814 53.6464
L3.2814 52.3764
" />
<path d="M3.2814 52.3764
L3.1605 52.5579
" />
<path d="M3.1605 52.5579
L3.0395 52.6788
" />
<path d="M3.0395 52.6788
L2.9186 52.7393
" />
<path d="M4.7933 52.3764
L4.1885 52.3764
" />
<path d="M4.1885 52.3764
L4.1281 52.9812
" />
<path d="M4.1281 52.9812
L4.1885 52.9207
" />
<path d="M4.1885 52.9207
L4.3095 52.8602
" />
<path d="M4.3095 52.8602
L4.6119 52.8602
" />
<path d="M4.6119 52.8602
L4.7328 52.9207
" />
<path d="M4.7328 52.9207
L4.7933 52.9812
" />
<path d="M4.7933 52.9812
L4.8538 53.1021
" />
<path d="M4.8538 53.1021
L4.8538 53.4045
" />
<path d="M4.8538 53.4045
L4.7933 53.5255
" />
<path d="M4.7933 53.5255
L4.7328 53.5860
" />
<path d="M4.7328 53.5860
L4.6119 53.6464
" />
<path d="M4.6119 53.6464
L4.3095 53.6464
" />
<path d="M4.3095 53.6464
L4.1885 53.5860
" />
<path d="M4.1885 53.5860
L4.1281 53.5255
" />
</g></g>
<g style="fill:#840000; fill-opacity:0.0; 
stroke:#840000; stroke-width:0.1524; stroke-opacity:1; 
stroke-linecap:round; stroke-linejoin:round;">
<path d="M5.7912 56.6039
L1.9812 56.6039
" />
</g>
<g style="fill:#A90000; fill-opacity:0.0; 
stroke:#A90000; stroke-width:0.1524; stroke-opacity:1; 
stroke-linecap:round; stroke-linejoin:round;">
<text x="3.8862" y="56.3499"
textLength="2.6222" font-size="1.6933" lengthAdjust="spacingAndGlyphs"
text-anchor="middle" opacity="0">16</text>
<g class="stroked-text"><desc>16</desc>
<path d="M3.6443 56.1864
L2.9186 56.1864
" />
<path d="M3.2814 56.1864
L3.2814 54.9164
" />
<path d="M3.2814 54.9164
L3.1605 55.0979
" />
<path d="M3.1605 55.0979
L3.0395 55.2188
" />
<path d="M3.0395 55.2188
L2.9186 55.2793
" />
<path d="M4.7328 54.9164
L4.4909 54.9164
" />
<path d="M4.4909 54.9164
L4.3700 54.9769
" />
<path d="M4.3700 54.9769
L4.3095 55.0374
" />
<path d="M4.3095 55.0374
L4.1885 55.2188
" />
<path d="M4.1885 55.2188
L4.1281 55.4607
" />
<path d="M4.1281 55.4607
L4.1281 55.9445
" />
<path d="M4.1281 55.9445
L4.1885 56.0655
" />
<path d="M4.1885 56.0655
L4.2490 56.1260
" />
<path d="M4.2490 56.1260
L4.3700 56.1864
" />
<path d="M4.3700 56.1864
L4.6119 56.1864
" />
<path d="M4.6119 56.1864
L4.7328 56.1260
" />
<path d="M4.7328 56.1260
L4.7933 56.0655
" />
<path d="M4.7933 56.0655
L4.8538 55.9445
" />
<path d="M4.8538 55.9445
L4.8538 55.6421
" />
<path d="M4.8538 55.6421
L4.7933 55.5212
" />
<path d="M4.7933 55.5212
L4.7328 55.4607
" />
<path d="M4.7328 55.4607
L4.6119 55.4002
" />
<path d="M4.6119 55.4002
L4.3700 55.4002
" />
<path d="M4.3700 55.4002
L4.2490 55.4607
" />
<path d="M4.2490 55.4607
L4.1885 55.5212
" />
<path d="M4.1885 55.5212
L4.1281 55.6421
" />
</g></g>
<g style="fill:#840000; fill-opacity:0.0; 
stroke:#840000; stroke-width:0.1524; stroke-opacity:1; 
stroke-linecap:round; stroke-linejoin:round;">
<path d="M5.7912 59.1439
L1.9812 59.1439
" />
</g>
<g style="fill:#A90000; fill-opacity:0.0; 
stroke:#A90000; stroke-width:0.1524; stroke-opacity:1; 
stroke-linecap:round; stroke-linejoin:round;">
<text x="3.8862" y="58.8899"
textLength="2.6222" font-size="1.6933" lengthAdjust="spacingAndGlyphs"
text-anchor="middle" opacity="0">17</text>
<g class="stroked-text"><desc>17</desc>
<path d="M3.6443 58.7264
L2.9186 58.7264
" />
<path d="M3.2814 58.7264
L3.2814 57.4564
" />
<path d="M3.2814 57.4564
L3.1605 57.6379
" />
<path d="M3.1605 57.6379
L3.0395 57.7588
" />
<path d="M3.0395 57.7588
L2.9186 57.8193
" />
<path d="M4.0676 57.4564
L4.9142 57.4564
" />
<path d="M4.9142 57.4564
L4.3700 58.7264
" />
</g></g>
<g style="fill:#840000; fill-opacity:0.0; 
stroke:#840000; stroke-width:0.1524; stroke-opacity:1; 
stroke-linecap:round; stroke-linejoin:round;">
<path d="M5.7912 61.6839
L1.9812 61.6839
" />
</g>
<g style="fill:#A90000; fill-opacity:0.0; 
stroke:#A90000; stroke-width:0.1524; stroke-opacity:1; 
stroke-linecap:round; stroke-linejoin:round;">
<text x="3.8862" y="61.4299"
textLength="2.6222" font-size="1.6933" lengthAdjust="spacingAndGlyphs"
text-anchor="middle" opacity="0">18</text>
<g class="stroked-text"><desc>18</desc>
<path d="M3.6443 61.2664
L2.9186 61.2664
" />
<path d="M3.2814 61.2664
L3.2814 59.9964
" />
<path d="M3.2814 59.9964
L3.1605 60.1779
" />
<path d="M3.1605 60.1779
L3.0395 60.2988
" />
<path d="M3.0395 60.2988
L2.9186 60.3593
" />
<path d="M4.3700 60.5407
L4.2490 60.4802
" />
<path d="M4.2490 60.4802
L4.1885 60.4198
" />
<path d="M4.1885 60.4198
L4.1281 60.2988
" />
<path d="M4.1281 60.2988
L4.1281 60.2383
" />
<path d="M4.1281 60.2383
L4.1885 60.1174
" />
<path d="M4.1885 60.1174
L4.2490 60.0569
" />
<path d="M4.2490 60.0569
L4.3700 59.9964
" />
<path d="M4.3700 59.9964
L4.6119 59.9964
" />
<path d="M4.6119 59.9964
L4.7328 60.0569
" />
<path d="M4.7328 60.0569
L4.7933 60.1174
" />
<path d="M4.7933 60.1174
L4.8538 60.2383
" />
<path d="M4.8538 60.2383
L4.8538 60.2988
" />
<path d="M4.8538 60.2988
L4.7933 60.4198
" />
<path d="M4.7933 60.4198
L4.7328 60.4802
" />
<path d="M4.7328 60.4802
L4.6119 60.5407
" />
<path d="M4.6119 60.5407
L4.3700 60.5407
" />
<path d="M4.3700 60.5407
L4.2490 60.6012
" />
<path d="M4.2490 60.6012
L4.1885 60.6617
" />
<path d="M4.1885 60.6617
L4.1281 60.7826
" />
<path d="M4.1281 60.7826
L4.1281 61.0245
" />
<path d="M4.1281 61.0245
L4.1885 61.1455
" />
<path d="M4.1885 61.1455
L4.2490 61.2060
" />
<path d="M4.2490 61.2060
L4.3700 61.2664
" />
<path d="M4.3700 61.2664
L4.6119 61.2664
" />
<path d="M4.6119 61.2664
L4.7328 61.2060
" />
<path d="M4.7328 61.2060
L4.7933 61.1455
" />
<path d="M4.7933 61.1455
L4.8538 61.0245
" />
<path d="M4.8538 61.0245
L4.8538 60.7826
" />
<path d="M4.8538 60.7826
L4.7933 60.6617
" />
<path d="M4.7933 60.6617
L4.7328 60.6012
" />
<path d="M4.7328 60.6012
L4.6119 60.5407
" />
</g></g>
<g style="fill:#840000; fill-opacity:0.0; 
stroke:#840000; stroke-width:0.1524; stroke-opacity:1; 
stroke-linecap:round; stroke-linejoin:round;">
<path d="M5.7912 64.2239
L1.9812 64.2239
" />
</g>
<g style="fill:#A90000; fill-opacity:0.0; 
stroke:#A90000; stroke-width:0.1524; stroke-opacity:1; 
stroke-linecap:round; stroke-linejoin:round;">
<text x="3.8862" y="63.9699"
textLength="2.6222" font-size="1.6933" lengthAdjust="spacingAndGlyphs"
text-anchor="middle" opacity="0">19</text>
<g class="stroked-text"><desc>19</desc>
<path d="M3.6443 63.8064
L2.9186 63.8064
" />
<path d="M3.2814 63.8064
L3.2814 62.5364
" />
<path d="M3.2814 62.5364
L3.1605 62.7179
" />
<path d="M3.1605 62.7179
L3.0395 62.8388
" />
<path d="M3.0395 62.8388
L2.9186 62.8993
" />
<path d="M4.2490 63.8064
L4.4909 63.8064
" />
<path d="M4.4909 63.8064
L4.6119 63.7460
" />
<path d="M4.6119 63.7460
L4.6723 63.6855
" />
<path d="M4.6723 63.6855
L4.7933 63.5040
" />
<path d="M4.7933 63.5040
L4.8538 63.2621
" />
<path d="M4.8538 63.2621
L4.8538 62.7783
" />
<path d="M4.8538 62.7783
L4.7933 62.6574
" />
<path d="M4.7933 62.6574
L4.7328 62.5969
" />
<path d="M4.7328 62.5969
L4.6119 62.5364
" />
<path d="M4.6119 62.5364
L4.3700 62.5364
" />
<path d="M4.3700 62.5364
L4.2490 62.5969
" />
<path d="M4.2490 62.5969
L4.1885 62.6574
" />
<path d="M4.1885 62.6574
L4.1281 62.7783
" />
<path d="M4.1281 62.7783
L4.1281 63.0807
" />
<path d="M4.1281 63.0807
L4.1885 63.2017
" />
<path d="M4.1885 63.2017
L4.2490 63.2621
" />
<path d="M4.2490 63.2621
L4.3700 63.3226
" />
<path d="M4.3700 63.3226
L4.6119 63.3226
" />
<path d="M4.6119 63.3226
L4.7328 63.2621
" />
<path d="M4.7328 63.2621
L4.7933 63.2017
" />
<path d="M4.7933 63.2017
L4.8538 63.0807
" />
</g></g>
<g style="fill:#840000; fill-opacity:0.0; 
stroke:#840000; stroke-width:0.1524; stroke-opacity:1; 
stroke-linecap:round; stroke-linejoin:round;">
<path d="M5.7912 21.0439
L1.9812 21.0439
" />
</g>
<g style="fill:#A90000; fill-opacity:0.0; 
stroke:#A90000; stroke-width:0.1524; stroke-opacity:1; 
stroke-linecap:round; stroke-linejoin:round;">
<text x="3.8862" y="20.7899"
textLength="1.4127" font-size="1.6933" lengthAdjust="spacingAndGlyphs"
text-anchor="middle" opacity="0">2</text>
<g class="stroked-text"><desc>2</desc>
<path d="M3.5234 19.4774
L3.5838 19.4169
" />
<path d="M3.5838 19.4169
L3.7048 19.3564
" />
<path d="M3.7048 19.3564
L4.0072 19.3564
" />
<path d="M4.0072 19.3564
L4.1281 19.4169
" />
<path d="M4.1281 19.4169
L4.1886 19.4774
" />
<path d="M4.1886 19.4774
L4.2491 19.5983
" />
<path d="M4.2491 19.5983
L4.2491 19.7193
" />
<path d="M4.2491 19.7193
L4.1886 19.9007
" />
<path d="M4.1886 19.9007
L3.4629 20.6264
" />
<path d="M3.4629 20.6264
L4.2491 20.6264
" />
</g></g>
<g style="fill:#840000; fill-opacity:0.0; 
stroke:#840000; stroke-width:0.1524; stroke-opacity:1; 
stroke-linecap:round; stroke-linejoin:round;">
<path d="M5.7912 66.7639
L1.9812 66.7639
" />
</g>
<g style="fill:#A90000; fill-opacity:0.0; 
stroke:#A90000; stroke-width:0.1524; stroke-opacity:1; 
stroke-linecap:round; stroke-linejoin:round;">
<text x="3.8862" y="66.5099"
textLength="2.6222" font-size="1.6933" lengthAdjust="spacingAndGlyphs"
text-anchor="middle" opacity="0">20</text>
<g class="stroked-text"><desc>20</desc>
<path d="M2.9186 65.1974
L2.9790 65.1369
" />
<path d="M2.9790 65.1369
L3.1000 65.0764
" />
<path d="M3.1000 65.0764
L3.4024 65.0764
" />
<path d="M3.4024 65.0764
L3.5233 65.1369
" />
<path d="M3.5233 65.1369
L3.5838 65.1974
" />
<path d="M3.5838 65.1974
L3.6443 65.3183
" />
<path d="M3.6443 65.3183
L3.6443 65.4393
" />
<path d="M3.6443 65.4393
L3.5838 65.6207
" />
<path d="M3.5838 65.6207
L2.8581 66.3464
" />
<path d="M2.8581 66.3464
L3.6443 66.3464
" />
<path d="M4.4304 65.0764
L4.5514 65.0764
" />
<path d="M4.5514 65.0764
L4.6723 65.1369
" />
<path d="M4.6723 65.1369
L4.7328 65.1974
" />
<path d="M4.7328 65.1974
L4.7933 65.3183
" />
<path d="M4.7933 65.3183
L4.8538 65.5602
" />
<path d="M4.8538 65.5602
L4.8538 65.8626
" />
<path d="M4.8538 65.8626
L4.7933 66.1045
" />
<path d="M4.7933 66.1045
L4.7328 66.2255
" />
<path d="M4.7328 66.2255
L4.6723 66.2860
" />
<path d="M4.6723 66.2860
L4.5514 66.3464
" />
<path d="M4.5514 66.3464
L4.4304 66.3464
" />
<path d="M4.4304 66.3464
L4.3095 66.2860
" />
<path d="M4.3095 66.2860
L4.2490 66.2255
" />
<path d="M4.2490 66.2255
L4.1885 66.1045
" />
<path d="M4.1885 66.1045
L4.1281 65.8626
" />
<path d="M4.1281 65.8626
L4.1281 65.5602
" />
<path d="M4.1281 65.5602
L4.1885 65.3183
" />
<path d="M4.1885 65.3183
L4.2490 65.1974
" />
<path d="M4.2490 65.1974
L4.3095 65.1369
" />
<path d="M4.3095 65.1369
L4.4304 65.0764
" />
</g></g>
<g style="fill:#840000; fill-opacity:0.0; 
stroke:#840000; stroke-width:0.1524; stroke-opacity:1; 
stroke-linecap:round; stroke-linejoin:round;">
<path d="M5.7912 69.3039
L1.9812 69.3039
" />
</g>
<g style="fill:#A90000; fill-opacity:0.0; 
stroke:#A90000; stroke-width:0.1524; stroke-opacity:1; 
stroke-linecap:round; stroke-linejoin:round;">
<text x="3.8862" y="69.0499"
textLength="2.6222" font-size="1.6933" lengthAdjust="spacingAndGlyphs"
text-anchor="middle" opacity="0">21</text>
<g class="stroked-text"><desc>21</desc>
<path d="M2.9186 67.7374
L2.9790 67.6769
" />
<path d="M2.9790 67.6769
L3.1000 67.6164
" />
<path d="M3.1000 67.6164
L3.4024 67.6164
" />
<path d="M3.4024 67.6164
L3.5233 67.6769
" />
<path d="M3.5233 67.6769
L3.5838 67.7374
" />
<path d="M3.5838 67.7374
L3.6443 67.8583
" />
<path d="M3.6443 67.8583
L3.6443 67.9793
" />
<path d="M3.6443 67.9793
L3.5838 68.1607
" />
<path d="M3.5838 68.1607
L2.8581 68.8864
" />
<path d="M2.8581 68.8864
L3.6443 68.8864
" />
<path d="M4.8538 68.8864
L4.1281 68.8864
" />
<path d="M4.4909 68.8864
L4.4909 67.6164
" />
<path d="M4.4909 67.6164
L4.3700 67.7979
" />
<path d="M4.3700 67.7979
L4.2490 67.9188
" />
<path d="M4.2490 67.9188
L4.1281 67.9793
" />
</g></g>
<g style="fill:#840000; fill-opacity:0.0; 
stroke:#840000; stroke-width:0.1524; stroke-opacity:1; 
stroke-linecap:round; stroke-linejoin:round;">
<path d="M5.7912 71.8439
L1.9812 71.8439
" />
</g>
<g style="fill:#A90000; fill-opacity:0.0; 
stroke:#A90000; stroke-width:0.1524; stroke-opacity:1; 
stroke-linecap:round; stroke-linejoin:round;">
<text x="3.8862" y="71.5899"
textLength="2.6222" font-size="1.6933" lengthAdjust="spacingAndGlyphs"
text-anchor="middle" opacity="0">22</text>
<g class="stroked-text"><desc>22</desc>
<path d="M2.9186 70.2774
L2.9790 70.2169
" />
<path d="M2.9790 70.2169
L3.1000 70.1564
" />
<path d="M3.1000 70.1564
L3.4024 70.1564
" />
<path d="M3.4024 70.1564
L3.5233 70.2169
" />
<path d="M3.5233 70.2169
L3.5838 70.2774
" />
<path d="M3.5838 70.2774
L3.6443 70.3983
" />
<path d="M3.6443 70.3983
L3.6443 70.5193
" />
<path d="M3.6443 70.5193
L3.5838 70.7007
" />
<path d="M3.5838 70.7007
L2.8581 71.4264
" />
<path d="M2.8581 71.4264
L3.6443 71.4264
" />
<path d="M4.1281 70.2774
L4.1885 70.2169
" />
<path d="M4.1885 70.2169
L4.3095 70.1564
" />
<path d="M4.3095 70.1564
L4.6119 70.1564
" />
<path d="M4.6119 70.1564
L4.7328 70.2169
" />
<path d="M4.7328 70.2169
L4.7933 70.2774
" />
<path d="M4.7933 70.2774
L4.8538 70.3983
" />
<path d="M4.8538 70.3983
L4.8538 70.5193
" />
<path d="M4.8538 70.5193
L4.7933 70.7007
" />
<path d="M4.7933 70.7007
L4.0676 71.4264
" />
<path d="M4.0676 71.4264
L4.8538 71.4264
" />
</g></g>
<g style="fill:#840000; fill-opacity:0.0; 
stroke:#840000; stroke-width:0.1524; stroke-opacity:1; 
stroke-linecap:round; stroke-linejoin:round;">
<path d="M5.7912 74.3839
L1.9812 74.3839
" />
</g>
<g style="fill:#A90000; fill-opacity:0.0; 
stroke:#A90000; stroke-width:0.1524; stroke-opacity:1; 
stroke-linecap:round; stroke-linejoin:round;">
<text x="3.8862" y="74.1299"
textLength="2.6222" font-size="1.6933" lengthAdjust="spacingAndGlyphs"
text-anchor="middle" opacity="0">23</text>
<g class="stroked-text"><desc>23</desc>
<path d="M2.9186 72.8174
L2.9790 72.7569
" />
<path d="M2.9790 72.7569
L3.1000 72.6964
" />
<path d="M3.1000 72.6964
L3.4024 72.6964
" />
<path d="M3.4024 72.6964
L3.5233 72.7569
" />
<path d="M3.5233 72.7569
L3.5838 72.8174
" />
<path d="M3.5838 72.8174
L3.6443 72.9383
" />
<path d="M3.6443 72.9383
L3.6443 73.0593
" />
<path d="M3.6443 73.0593
L3.5838 73.2407
" />
<path d="M3.5838 73.2407
L2.8581 73.9664
" />
<path d="M2.8581 73.9664
L3.6443 73.9664
" />
<path d="M4.0676 72.6964
L4.8538 72.6964
" />
<path d="M4.8538 72.6964
L4.4304 73.1802
" />
<path d="M4.4304 73.1802
L4.6119 73.1802
" />
<path d="M4.6119 73.1802
L4.7328 73.2407
" />
<path d="M4.7328 73.2407
L4.7933 73.3012
" />
<path d="M4.7933 73.3012
L4.8538 73.4221
" />
<path d="M4.8538 73.4221
L4.8538 73.7245
" />
<path d="M4.8538 73.7245
L4.7933 73.8455
" />
<path d="M4.7933 73.8455
L4.7328 73.9060
" />
<path d="M4.7328 73.9060
L4.6119 73.9664
" />
<path d="M4.6119 73.9664
L4.2490 73.9664
" />
<path d="M4.2490 73.9664
L4.1281 73.9060
" />
<path d="M4.1281 73.9060
L4.0676 73.8455
" />
</g></g>
<g style="fill:#840000; fill-opacity:0.0; 
stroke:#840000; stroke-width:0.1524; stroke-opacity:1; 
stroke-linecap:round; stroke-linejoin:round;">
<path d="M5.7912 76.9239
L1.9812 76.9239
" />
</g>
<g style="fill:#A90000; fill-opacity:0.0; 
stroke:#A90000; stroke-width:0.1524; stroke-opacity:1; 
stroke-linecap:round; stroke-linejoin:round;">
<text x="3.8862" y="76.6699"
textLength="2.6222" font-size="1.6933" lengthAdjust="spacingAndGlyphs"
text-anchor="middle" opacity="0">24</text>
<g class="stroked-text"><desc>24</desc>
<path d="M2.9186 75.3574
L2.9790 75.2969
" />
<path d="M2.9790 75.2969
L3.1000 75.2364
" />
<path d="M3.1000 75.2364
L3.4024 75.2364
" />
<path d="M3.4024 75.2364
L3.5233 75.2969
" />
<path d="M3.5233 75.2969
L3.5838 75.3574
" />
<path d="M3.5838 75.3574
L3.6443 75.4783
" />
<path d="M3.6443 75.4783
L3.6443 75.5993
" />
<path d="M3.6443 75.5993
L3.5838 75.7807
" />
<path d="M3.5838 75.7807
L2.8581 76.5064
" />
<path d="M2.8581 76.5064
L3.6443 76.5064
" />
<path d="M4.7328 75.6598
L4.7328 76.5064
" />
<path d="M4.4304 75.1760
L4.1281 76.0831
" />
<path d="M4.1281 76.0831
L4.9142 76.0831
" />
</g></g>
<g style="fill:#840000; fill-opacity:0.0; 
stroke:#840000; stroke-width:0.1524; stroke-opacity:1; 
stroke-linecap:round; stroke-linejoin:round;">
<path d="M5.7912 79.4639
L1.9812 79.4639
" />
</g>
<g style="fill:#A90000; fill-opacity:0.0; 
stroke:#A90000; stroke-width:0.1524; stroke-opacity:1; 
stroke-linecap:round; stroke-linejoin:round;">
<text x="3.8862" y="79.2099"
textLength="2.6222" font-size="1.6933" lengthAdjust="spacingAndGlyphs"
text-anchor="middle" opacity="0">25</text>
<g class="stroked-text"><desc>25</desc>
<path d="M2.9186 77.8974
L2.9790 77.8369
" />
<path d="M2.9790 77.8369
L3.1000 77.7764
" />
<path d="M3.1000 77.7764
L3.4024 77.7764
" />
<path d="M3.4024 77.7764
L3.5233 77.8369
" />
<path d="M3.5233 77.8369
L3.5838 77.8974
" />
<path d="M3.5838 77.8974
L3.6443 78.0183
" />
<path d="M3.6443 78.0183
L3.6443 78.1393
" />
<path d="M3.6443 78.1393
L3.5838 78.3207
" />
<path d="M3.5838 78.3207
L2.8581 79.0464
" />
<path d="M2.8581 79.0464
L3.6443 79.0464
" />
<path d="M4.7933 77.7764
L4.1885 77.7764
" />
<path d="M4.1885 77.7764
L4.1281 78.3812
" />
<path d="M4.1281 78.3812
L4.1885 78.3207
" />
<path d="M4.1885 78.3207
L4.3095 78.2602
" />
<path d="M4.3095 78.2602
L4.6119 78.2602
" />
<path d="M4.6119 78.2602
L4.7328 78.3207
" />
<path d="M4.7328 78.3207
L4.7933 78.3812
" />
<path d="M4.7933 78.3812
L4.8538 78.5021
" />
<path d="M4.8538 78.5021
L4.8538 78.8045
" />
<path d="M4.8538 78.8045
L4.7933 78.9255
" />
<path d="M4.7933 78.9255
L4.7328 78.9860
" />
<path d="M4.7328 78.9860
L4.6119 79.0464
" />
<path d="M4.6119 79.0464
L4.3095 79.0464
" />
<path d="M4.3095 79.0464
L4.1885 78.9860
" />
<path d="M4.1885 78.9860
L4.1281 78.9255
" />
</g></g>
<g style="fill:#840000; fill-opacity:0.0; 
stroke:#840000; stroke-width:0.1524; stroke-opacity:1; 
stroke-linecap:round; stroke-linejoin:round;">
<path d="M5.7912 82.0039
L1.9812 82.0039
" />
</g>
<g style="fill:#A90000; fill-opacity:0.0; 
stroke:#A90000; stroke-width:0.1524; stroke-opacity:1; 
stroke-linecap:round; stroke-linejoin:round;">
<text x="3.8862" y="81.7499"
textLength="2.6222" font-size="1.6933" lengthAdjust="spacingAndGlyphs"
text-anchor="middle" opacity="0">26</text>
<g class="stroked-text"><desc>26</desc>
<path d="M2.9186 80.4374
L2.9790 80.3769
" />
<path d="M2.9790 80.3769
L3.1000 80.3164
" />
<path d="M3.1000 80.3164
L3.4024 80.3164
" />
<path d="M3.4024 80.3164
L3.5233 80.3769
" />
<path d="M3.5233 80.3769
L3.5838 80.4374
" />
<path d="M3.5838 80.4374
L3.6443 80.5583
" />
<path d="M3.6443 80.5583
L3.6443 80.6793
" />
<path d="M3.6443 80.6793
L3.5838 80.8607
" />
<path d="M3.5838 80.8607
L2.8581 81.5864
" />
<path d="M2.8581 81.5864
L3.6443 81.5864
" />
<path d="M4.7328 80.3164
L4.4909 80.3164
" />
<path d="M4.4909 80.3164
L4.3700 80.3769
" />
<path d="M4.3700 80.3769
L4.3095 80.4374
" />
<path d="M4.3095 80.4374
L4.1885 80.6188
" />
<path d="M4.1885 80.6188
L4.1281 80.8607
" />
<path d="M4.1281 80.8607
L4.1281 81.3445
" />
<path d="M4.1281 81.3445
L4.1885 81.4655
" />
<path d="M4.1885 81.4655
L4.2490 81.5260
" />
<path d="M4.2490 81.5260
L4.3700 81.5864
" />
<path d="M4.3700 81.5864
L4.6119 81.5864
" />
<path d="M4.6119 81.5864
L4.7328 81.5260
" />
<path d="M4.7328 81.5260
L4.7933 81.4655
" />
<path d="M4.7933 81.4655
L4.8538 81.3445
" />
<path d="M4.8538 81.3445
L4.8538 81.0421
" />
<path d="M4.8538 81.0421
L4.7933 80.9212
" />
<path d="M4.7933 80.9212
L4.7328 80.8607
" />
<path d="M4.7328 80.8607
L4.6119 80.8002
" />
<path d="M4.6119 80.8002
L4.3700 80.8002
" />
<path d="M4.3700 80.8002
L4.2490 80.8607
" />
<path d="M4.2490 80.8607
L4.1885 80.9212
" />
<path d="M4.1885 80.9212
L4.1281 81.0421
" />
</g></g>
<g style="fill:#840000; fill-opacity:0.0; 
stroke:#840000; stroke-width:0.1524; stroke-opacity:1; 
stroke-linecap:round; stroke-linejoin:round;">
<path d="M5.7912 84.5439
L1.9812 84.5439
" />
</g>
<g style="fill:#A90000; fill-opacity:0.0; 
stroke:#A90000; stroke-width:0.1524; stroke-opacity:1; 
stroke-linecap:round; stroke-linejoin:round;">
<text x="3.8862" y="84.2899"
textLength="2.6222" font-size="1.6933" lengthAdjust="spacingAndGlyphs"
text-anchor="middle" opacity="0">27</text>
<g class="stroked-text"><desc>27</desc>
<path d="M2.9186 82.9774
L2.9790 82.9169
" />
<path d="M2.9790 82.9169
L3.1000 82.8564
" />
<path d="M3.1000 82.8564
L3.4024 82.8564
" />
<path d="M3.4024 82.8564
L3.5233 82.9169
" />
<path d="M3.5233 82.9169
L3.5838 82.9774
" />
<path d="M3.5838 82.9774
L3.6443 83.0983
" />
<path d="M3.6443 83.0983
L3.6443 83.2193
" />
<path d="M3.6443 83.2193
L3.5838 83.4007
" />
<path d="M3.5838 83.4007
L2.8581 84.1264
" />
<path d="M2.8581 84.1264
L3.6443 84.1264
" />
<path d="M4.0676 82.8564
L4.9142 82.8564
" />
<path d="M4.9142 82.8564
L4.3700 84.1264
" />
</g></g>
<g style="fill:#840000; fill-opacity:0.0; 
stroke:#840000; stroke-width:0.1524; stroke-opacity:1; 
stroke-linecap:round; stroke-linejoin:round;">
<path d="M5.7912 87.0839
L1.9812 87.0839
" />
</g>
<g style="fill:#A90000; fill-opacity:0.0; 
stroke:#A90000; stroke-width:0.1524; stroke-opacity:1; 
stroke-linecap:round; stroke-linejoin:round;">
<text x="3.8862" y="86.8299"
textLength="2.6222" font-size="1.6933" lengthAdjust="spacingAndGlyphs"
text-anchor="middle" opacity="0">28</text>
<g class="stroked-text"><desc>28</desc>
<path d="M2.9186 85.5174
L2.9790 85.4569
" />
<path d="M2.9790 85.4569
L3.1000 85.3964
" />
<path d="M3.1000 85.3964
L3.4024 85.3964
" />
<path d="M3.4024 85.3964
L3.5233 85.4569
" />
<path d="M3.5233 85.4569
L3.5838 85.5174
" />
<path d="M3.5838 85.5174
L3.6443 85.6383
" />
<path d="M3.6443 85.6383
L3.6443 85.7593
" />
<path d="M3.6443 85.7593
L3.5838 85.9407
" />
<path d="M3.5838 85.9407
L2.8581 86.6664
" />
<path d="M2.8581 86.6664
L3.6443 86.6664
" />
<path d="M4.3700 85.9407
L4.2490 85.8802
" />
<path d="M4.2490 85.8802
L4.1885 85.8198
" />
<path d="M4.1885 85.8198
L4.1281 85.6988
" />
<path d="M4.1281 85.6988
L4.1281 85.6383
" />
<path d="M4.1281 85.6383
L4.1885 85.5174
" />
<path d="M4.1885 85.5174
L4.2490 85.4569
" />
<path d="M4.2490 85.4569
L4.3700 85.3964
" />
<path d="M4.3700 85.3964
L4.6119 85.3964
" />
<path d="M4.6119 85.3964
L4.7328 85.4569
" />
<path d="M4.7328 85.4569
L4.7933 85.5174
" />
<path d="M4.7933 85.5174
L4.8538 85.6383
" />
<path d="M4.8538 85.6383
L4.8538 85.6988
" />
<path d="M4.8538 85.6988
L4.7933 85.8198
" />
<path d="M4.7933 85.8198
L4.7328 85.8802
" />
<path d="M4.7328 85.8802
L4.6119 85.9407
" />
<path d="M4.6119 85.9407
L4.3700 85.9407
" />
<path d="M4.3700 85.9407
L4.2490 86.0012
" />
<path d="M4.2490 86.0012
L4.1885 86.0617
" />
<path d="M4.1885 86.0617
L4.1281 86.1826
" />
<path d="M4.1281 86.1826
L4.1281 86.4245
" />
<path d="M4.1281 86.4245
L4.1885 86.5455
" />
<path d="M4.1885 86.5455
L4.2490 86.6060
" />
<path d="M4.2490 86.6060
L4.3700 86.6664
" />
<path d="M4.3700 86.6664
L4.6119 86.6664
" />
<path d="M4.6119 86.6664
L4.7328 86.6060
" />
<path d="M4.7328 86.6060
L4.7933 86.5455
" />
<path d="M4.7933 86.5455
L4.8538 86.4245
" />
<path d="M4.8538 86.4245
L4.8538 86.1826
" />
<path d="M4.8538 86.1826
L4.7933 86.0617
" />
<path d="M4.7933 86.0617
L4.7328 86.0012
" />
<path d="M4.7328 86.0012
L4.6119 85.9407
" />
</g></g>
<g style="fill:#840000; fill-opacity:0.0; 
stroke:#840000; stroke-width:0.1524; stroke-opacity:1; 
stroke-linecap:round; stroke-linejoin:round;">
<path d="M5.7912 89.6239
L1.9812 89.6239
" />
</g>
<g style="fill:#A90000; fill-opacity:0.0; 
stroke:#A90000; stroke-width:0.1524; stroke-opacity:1; 
stroke-linecap:round; stroke-linejoin:round;">
<text x="3.8862" y="89.3699"
textLength="2.6222" font-size="1.6933" lengthAdjust="spacingAndGlyphs"
text-anchor="middle" opacity="0">29</text>
<g class="stroked-text"><desc>29</desc>
<path d="M2.9186 88.0574
L2.9790 87.9969
" />
<path d="M2.9790 87.9969
L3.1000 87.9364
" />
<path d="M3.1000 87.9364
L3.4024 87.9364
" />
<path d="M3.4024 87.9364
L3.5233 87.9969
" />
<path d="M3.5233 87.9969
L3.5838 88.0574
" />
<path d="M3.5838 88.0574
L3.6443 88.1783
" />
<path d="M3.6443 88.1783
L3.6443 88.2993
" />
<path d="M3.6443 88.2993
L3.5838 88.4807
" />
<path d="M3.5838 88.4807
L2.8581 89.2064
" />
<path d="M2.8581 89.2064
L3.6443 89.2064
" />
<path d="M4.2490 89.2064
L4.4909 89.2064
" />
<path d="M4.4909 89.2064
L4.6119 89.1460
" />
<path d="M4.6119 89.1460
L4.6723 89.0855
" />
<path d="M4.6723 89.0855
L4.7933 88.9040
" />
<path d="M4.7933 88.9040
L4.8538 88.6621
" />
<path d="M4.8538 88.6621
L4.8538 88.1783
" />
<path d="M4.8538 88.1783
L4.7933 88.0574
" />
<path d="M4.7933 88.0574
L4.7328 87.9969
" />
<path d="M4.7328 87.9969
L4.6119 87.9364
" />
<path d="M4.6119 87.9364
L4.3700 87.9364
" />
<path d="M4.3700 87.9364
L4.2490 87.9969
" />
<path d="M4.2490 87.9969
L4.1885 88.0574
" />
<path d="M4.1885 88.0574
L4.1281 88.1783
" />
<path d="M4.1281 88.1783
L4.1281 88.4807
" />
<path d="M4.1281 88.4807
L4.1885 88.6017
" />
<path d="M4.1885 88.6017
L4.2490 88.6621
" />
<path d="M4.2490 88.6621
L4.3700 88.7226
" />
<path d="M4.3700 88.7226
L4.6119 88.7226
" />
<path d="M4.6119 88.7226
L4.7328 88.6621
" />
<path d="M4.7328 88.6621
L4.7933 88.6017
" />
<path d="M4.7933 88.6017
L4.8538 88.4807
" />
</g></g>
<g style="fill:#840000; fill-opacity:0.0; 
stroke:#840000; stroke-width:0.1524; stroke-opacity:1; 
stroke-linecap:round; stroke-linejoin:round;">
<path d="M5.7912 23.5839
L1.9812 23.5839
" />
</g>
<g style="fill:#A90000; fill-opacity:0.0; 
stroke:#A90000; stroke-width:0.1524; stroke-opacity:1; 
stroke-linecap:round; stroke-linejoin:round;">
<text x="3.8862" y="23.3299"
textLength="1.4127" font-size="1.6933" lengthAdjust="spacingAndGlyphs"
text-anchor="middle" opacity="0">3</text>
<g class="stroked-text"><desc>3</desc>
<path d="M3.4629 21.8964
L4.2491 21.8964
" />
<path d="M4.2491 21.8964
L3.8257 22.3802
" />
<path d="M3.8257 22.3802
L4.0072 22.3802
" />
<path d="M4.0072 22.3802
L4.1281 22.4407
" />
<path d="M4.1281 22.4407
L4.1886 22.5012
" />
<path d="M4.1886 22.5012
L4.2491 22.6221
" />
<path d="M4.2491 22.6221
L4.2491 22.9245
" />
<path d="M4.2491 22.9245
L4.1886 23.0455
" />
<path d="M4.1886 23.0455
L4.1281 23.1060
" />
<path d="M4.1281 23.1060
L4.0072 23.1664
" />
<path d="M4.0072 23.1664
L3.6443 23.1664
" />
<path d="M3.6443 23.1664
L3.5234 23.1060
" />
<path d="M3.5234 23.1060
L3.4629 23.0455
" />
</g></g>
<g style="fill:#840000; fill-opacity:0.0; 
stroke:#840000; stroke-width:0.1524; stroke-opacity:1; 
stroke-linecap:round; stroke-linejoin:round;">
<path d="M5.7912 92.1639
L1.9812 92.1639
" />
</g>
<g style="fill:#A90000; fill-opacity:0.0; 
stroke:#A90000; stroke-width:0.1524; stroke-opacity:1; 
stroke-linecap:round; stroke-linejoin:round;">
<text x="3.8862" y="91.9099"
textLength="2.6222" font-size="1.6933" lengthAdjust="spacingAndGlyphs"
text-anchor="middle" opacity="0">30</text>
<g class="stroked-text"><desc>30</desc>
<path d="M2.8581 90.4764
L3.6443 90.4764
" />
<path d="M3.6443 90.4764
L3.2209 90.9602
" />
<path d="M3.2209 90.9602
L3.4024 90.9602
" />
<path d="M3.4024 90.9602
L3.5233 91.0207
" />
<path d="M3.5233 91.0207
L3.5838 91.0812
" />
<path d="M3.5838 91.0812
L3.6443 91.2021
" />
<path d="M3.6443 91.2021
L3.6443 91.5045
" />
<path d="M3.6443 91.5045
L3.5838 91.6255
" />
<path d="M3.5838 91.6255
L3.5233 91.6860
" />
<path d="M3.5233 91.6860
L3.4024 91.7464
" />
<path d="M3.4024 91.7464
L3.0395 91.7464
" />
<path d="M3.0395 91.7464
L2.9186 91.6860
" />
<path d="M2.9186 91.6860
L2.8581 91.6255
" />
<path d="M4.4304 90.4764
L4.5514 90.4764
" />
<path d="M4.5514 90.4764
L4.6723 90.5369
" />
<path d="M4.6723 90.5369
L4.7328 90.5974
" />
<path d="M4.7328 90.5974
L4.7933 90.7183
" />
<path d="M4.7933 90.7183
L4.8538 90.9602
" />
<path d="M4.8538 90.9602
L4.8538 91.2626
" />
<path d="M4.8538 91.2626
L4.7933 91.5045
" />
<path d="M4.7933 91.5045
L4.7328 91.6255
" />
<path d="M4.7328 91.6255
L4.6723 91.6860
" />
<path d="M4.6723 91.6860
L4.5514 91.7464
" />
<path d="M4.5514 91.7464
L4.4304 91.7464
" />
<path d="M4.4304 91.7464
L4.3095 91.6860
" />
<path d="M4.3095 91.6860
L4.2490 91.6255
" />
<path d="M4.2490 91.6255
L4.1885 91.5045
" />
<path d="M4.1885 91.5045
L4.1281 91.2626
" />
<path d="M4.1281 91.2626
L4.1281 90.9602
" />
<path d="M4.1281 90.9602
L4.1885 90.7183
" />
<path d="M4.1885 90.7183
L4.2490 90.5974
" />
<path d="M4.2490 90.5974
L4.3095 90.5369
" />
<path d="M4.3095 90.5369
L4.4304 90.4764
" />
</g></g>
<g style="fill:#840000; fill-opacity:0.0; 
stroke:#840000; stroke-width:0.1524; stroke-opacity:1; 
stroke-linecap:round; stroke-linejoin:round;">
<path d="M5.7912 94.7039
L1.9812 94.7039
" />
</g>
<g style="fill:#A90000; fill-opacity:0.0; 
stroke:#A90000; stroke-width:0.1524; stroke-opacity:1; 
stroke-linecap:round; stroke-linejoin:round;">
<text x="3.8862" y="94.4499"
textLength="2.6222" font-size="1.6933" lengthAdjust="spacingAndGlyphs"
text-anchor="middle" opacity="0">31</text>
<g class="stroked-text"><desc>31</desc>
<path d="M2.8581 93.0164
L3.6443 93.0164
" />
<path d="M3.6443 93.0164
L3.2209 93.5002
" />
<path d="M3.2209 93.5002
L3.4024 93.5002
" />
<path d="M3.4024 93.5002
L3.5233 93.5607
" />
<path d="M3.5233 93.5607
L3.5838 93.6212
" />
<path d="M3.5838 93.6212
L3.6443 93.7421
" />
<path d="M3.6443 93.7421
L3.6443 94.0445
" />
<path d="M3.6443 94.0445
L3.5838 94.1655
" />
<path d="M3.5838 94.1655
L3.5233 94.2260
" />
<path d="M3.5233 94.2260
L3.4024 94.2864
" />
<path d="M3.4024 94.2864
L3.0395 94.2864
" />
<path d="M3.0395 94.2864
L2.9186 94.2260
" />
<path d="M2.9186 94.2260
L2.8581 94.1655
" />
<path d="M4.8538 94.2864
L4.1281 94.2864
" />
<path d="M4.4909 94.2864
L4.4909 93.0164
" />
<path d="M4.4909 93.0164
L4.3700 93.1979
" />
<path d="M4.3700 93.1979
L4.2490 93.3188
" />
<path d="M4.2490 93.3188
L4.1281 93.3793
" />
</g></g>
<g style="fill:#840000; fill-opacity:0.0; 
stroke:#840000; stroke-width:0.1524; stroke-opacity:1; 
stroke-linecap:round; stroke-linejoin:round;">
<path d="M5.7912 97.2439
L1.9812 97.2439
" />
</g>
<g style="fill:#A90000; fill-opacity:0.0; 
stroke:#A90000; stroke-width:0.1524; stroke-opacity:1; 
stroke-linecap:round; stroke-linejoin:round;">
<text x="3.8862" y="96.9899"
textLength="2.6222" font-size="1.6933" lengthAdjust="spacingAndGlyphs"
text-anchor="middle" opacity="0">32</text>
<g class="stroked-text"><desc>32</desc>
<path d="M2.8581 95.5564
L3.6443 95.5564
" />
<path d="M3.6443 95.5564
L3.2209 96.0402
" />
<path d="M3.2209 96.0402
L3.4024 96.0402
" />
<path d="M3.4024 96.0402
L3.5233 96.1007
" />
<path d="M3.5233 96.1007
L3.5838 96.1612
" />
<path d="M3.5838 96.1612
L3.6443 96.2821
" />
<path d="M3.6443 96.2821
L3.6443 96.5845
" />
<path d="M3.6443 96.5845
L3.5838 96.7055
" />
<path d="M3.5838 96.7055
L3.5233 96.7660
" />
<path d="M3.5233 96.7660
L3.4024 96.8264
" />
<path d="M3.4024 96.8264
L3.0395 96.8264
" />
<path d="M3.0395 96.8264
L2.9186 96.7660
" />
<path d="M2.9186 96.7660
L2.8581 96.7055
" />
<path d="M4.1281 95.6774
L4.1885 95.6169
" />
<path d="M4.1885 95.6169
L4.3095 95.5564
" />
<path d="M4.3095 95.5564
L4.6119 95.5564
" />
<path d="M4.6119 95.5564
L4.7328 95.6169
" />
<path d="M4.7328 95.6169
L4.7933 95.6774
" />
<path d="M4.7933 95.6774
L4.8538 95.7983
" />
<path d="M4.8538 95.7983
L4.8538 95.9193
" />
<path d="M4.8538 95.9193
L4.7933 96.1007
" />
<path d="M4.7933 96.1007
L4.0676 96.8264
" />
<path d="M4.0676 96.8264
L4.8538 96.8264
" />
</g></g>
<g style="fill:#840000; fill-opacity:0.0; 
stroke:#840000; stroke-width:0.1524; stroke-opacity:1; 
stroke-linecap:round; stroke-linejoin:round;">
<path d="M5.7912 99.7839
L1.9812 99.7839
" />
</g>
<g style="fill:#A90000; fill-opacity:0.0; 
stroke:#A90000; stroke-width:0.1524; stroke-opacity:1; 
stroke-linecap:round; stroke-linejoin:round;">
<text x="3.8862" y="99.5299"
textLength="2.6222" font-size="1.6933" lengthAdjust="spacingAndGlyphs"
text-anchor="middle" opacity="0">33</text>
<g class="stroked-text"><desc>33</desc>
<path d="M2.8581 98.0964
L3.6443 98.0964
" />
<path d="M3.6443 98.0964
L3.2209 98.5802
" />
<path d="M3.2209 98.5802
L3.4024 98.5802
" />
<path d="M3.4024 98.5802
L3.5233 98.6407
" />
<path d="M3.5233 98.6407
L3.5838 98.7012
" />
<path d="M3.5838 98.7012
L3.6443 98.8221
" />
<path d="M3.6443 98.8221
L3.6443 99.1245
" />
<path d="M3.6443 99.1245
L3.5838 99.2455
" />
<path d="M3.5838 99.2455
L3.5233 99.3060
" />
<path d="M3.5233 99.3060
L3.4024 99.3664
" />
<path d="M3.4024 99.3664
L3.0395 99.3664
" />
<path d="M3.0395 99.3664
L2.9186 99.3060
" />
<path d="M2.9186 99.3060
L2.8581 99.2455
" />
<path d="M4.0676 98.0964
L4.8538 98.0964
" />
<path d="M4.8538 98.0964
L4.4304 98.5802
" />
<path d="M4.4304 98.5802
L4.6119 98.5802
" />
<path d="M4.6119 98.5802
L4.7328 98.6407
" />
<path d="M4.7328 98.6407
L4.7933 98.7012
" />
<path d="M4.7933 98.7012
L4.8538 98.8221
" />
<path d="M4.8538 98.8221
L4.8538 99.1245
" />
<path d="M4.8538 99.1245
L4.7933 99.2455
" />
<path d="M4.7933 99.2455
L4.7328 99.3060
" />
<path d="M4.7328 99.3060
L4.6119 99.3664
" />
<path d="M4.6119 99.3664
L4.2490 99.3664
" />
<path d="M4.2490 99.3664
L4.1281 99.3060
" />
<path d="M4.1281 99.3060
L4.0676 99.2455
" />
</g></g>
<g style="fill:#840000; fill-opacity:0.0; 
stroke:#840000; stroke-width:0.1524; stroke-opacity:1; 
stroke-linecap:round; stroke-linejoin:round;">
<path d="M5.7912 102.3239
L1.9812 102.3239
" />
</g>
<g style="fill:#A90000; fill-opacity:0.0; 
stroke:#A90000; stroke-width:0.1524; stroke-opacity:1; 
stroke-linecap:round; stroke-linejoin:round;">
<text x="3.8862" y="102.0699"
textLength="2.6222" font-size="1.6933" lengthAdjust="spacingAndGlyphs"
text-anchor="middle" opacity="0">34</text>
<g class="stroked-text"><desc>34</desc>
<path d="M2.8581 100.6364
L3.6443 100.6364
" />
<path d="M3.6443 100.6364
L3.2209 101.1202
" />
<path d="M3.2209 101.1202
L3.4024 101.1202
" />
<path d="M3.4024 101.1202
L3.5233 101.1807
" />
<path d="M3.5233 101.1807
L3.5838 101.2412
" />
<path d="M3.5838 101.2412
L3.6443 101.3621
" />
<path d="M3.6443 101.3621
L3.6443 101.6645
" />
<path d="M3.6443 101.6645
L3.5838 101.7855
" />
<path d="M3.5838 101.7855
L3.5233 101.8460
" />
<path d="M3.5233 101.8460
L3.4024 101.9064
" />
<path d="M3.4024 101.9064
L3.0395 101.9064
" />
<path d="M3.0395 101.9064
L2.9186 101.8460
" />
<path d="M2.9186 101.8460
L2.8581 101.7855
" />
<path d="M4.7328 101.0598
L4.7328 101.9064
" />
<path d="M4.4304 100.5760
L4.1281 101.4831
" />
<path d="M4.1281 101.4831
L4.9142 101.4831
" />
</g></g>
<g style="fill:#840000; fill-opacity:0.0; 
stroke:#840000; stroke-width:0.1524; stroke-opacity:1; 
stroke-linecap:round; stroke-linejoin:round;">
<path d="M5.7912 104.8639
L1.9812 104.8639
" />
</g>
<g style="fill:#A90000; fill-opacity:0.0; 
stroke:#A90000; stroke-width:0.1524; stroke-opacity:1; 
stroke-linecap:round; stroke-linejoin:round;">
<text x="3.8862" y="104.6099"
textLength="2.6222" font-size="1.6933" lengthAdjust="spacingAndGlyphs"
text-anchor="middle" opacity="0">35</text>
<g class="stroked-text"><desc>35</desc>
<path d="M2.8581 103.1764
L3.6443 103.1764
" />
<path d="M3.6443 103.1764
L3.2209 103.6602
" />
<path d="M3.2209 103.6602
L3.4024 103.6602
" />
<path d="M3.4024 103.6602
L3.5233 103.7207
" />
<path d="M3.5233 103.7207
L3.5838 103.7812
" />
<path d="M3.5838 103.7812
L3.6443 103.9021
" />
<path d="M3.6443 103.9021
L3.6443 104.2045
" />
<path d="M3.6443 104.2045
L3.5838 104.3255
" />
<path d="M3.5838 104.3255
L3.5233 104.3860
" />
<path d="M3.5233 104.3860
L3.4024 104.4464
" />
<path d="M3.4024 104.4464
L3.0395 104.4464
" />
<path d="M3.0395 104.4464
L2.9186 104.3860
" />
<path d="M2.9186 104.3860
L2.8581 104.3255
" />
<path d="M4.7933 103.1764
L4.1885 103.1764
" />
<path d="M4.1885 103.1764
L4.1281 103.7812
" />
<path d="M4.1281 103.7812
L4.1885 103.7207
" />
<path d="M4.1885 103.7207
L4.3095 103.6602
" />
<path d="M4.3095 103.6602
L4.6119 103.6602
" />
<path d="M4.6119 103.6602
L4.7328 103.7207
" />
<path d="M4.7328 103.7207
L4.7933 103.7812
" />
<path d="M4.7933 103.7812
L4.8538 103.9021
" />
<path d="M4.8538 103.9021
L4.8538 104.2045
" />
<path d="M4.8538 104.2045
L4.7933 104.3255
" />
<path d="M4.7933 104.3255
L4.7328 104.3860
" />
<path d="M4.7328 104.3860
L4.6119 104.4464
" />
<path d="M4.6119 104.4464
L4.3095 104.4464
" />
<path d="M4.3095 104.4464
L4.1885 104.3860
" />
<path d="M4.1885 104.3860
L4.1281 104.3255
" />
</g></g>
<g style="fill:#840000; fill-opacity:0.0; 
stroke:#840000; stroke-width:0.1524; stroke-opacity:1; 
stroke-linecap:round; stroke-linejoin:round;">
<path d="M5.7912 107.4039
L1.9812 107.4039
" />
</g>
<g style="fill:#A90000; fill-opacity:0.0; 
stroke:#A90000; stroke-width:0.1524; stroke-opacity:1; 
stroke-linecap:round; stroke-linejoin:round;">
<text x="3.8862" y="107.1499"
textLength="2.6222" font-size="1.6933" lengthAdjust="spacingAndGlyphs"
text-anchor="middle" opacity="0">36</text>
<g class="stroked-text"><desc>36</desc>
<path d="M2.8581 105.7164
L3.6443 105.7164
" />
<path d="M3.6443 105.7164
L3.2209 106.2002
" />
<path d="M3.2209 106.2002
L3.4024 106.2002
" />
<path d="M3.4024 106.2002
L3.5233 106.2607
" />
<path d="M3.5233 106.2607
L3.5838 106.3212
" />
<path d="M3.5838 106.3212
L3.6443 106.4421
" />
<path d="M3.6443 106.4421
L3.6443 106.7445
" />
<path d="M3.6443 106.7445
L3.5838 106.8655
" />
<path d="M3.5838 106.8655
L3.5233 106.9260
" />
<path d="M3.5233 106.9260
L3.4024 106.9864
" />
<path d="M3.4024 106.9864
L3.0395 106.9864
" />
<path d="M3.0395 106.9864
L2.9186 106.9260
" />
<path d="M2.9186 106.9260
L2.8581 106.8655
" />
<path d="M4.7328 105.7164
L4.4909 105.7164
" />
<path d="M4.4909 105.7164
L4.3700 105.7769
" />
<path d="M4.3700 105.7769
L4.3095 105.8374
" />
<path d="M4.3095 105.8374
L4.1885 106.0188
" />
<path d="M4.1885 106.0188
L4.1281 106.2607
" />
<path d="M4.1281 106.2607
L4.1281 106.7445
" />
<path d="M4.1281 106.7445
L4.1885 106.8655
" />
<path d="M4.1885 106.8655
L4.2490 106.9260
" />
<path d="M4.2490 106.9260
L4.3700 106.9864
" />
<path d="M4.3700 106.9864
L4.6119 106.9864
" />
<path d="M4.6119 106.9864
L4.7328 106.9260
" />
<path d="M4.7328 106.9260
L4.7933 106.8655
" />
<path d="M4.7933 106.8655
L4.8538 106.7445
" />
<path d="M4.8538 106.7445
L4.8538 106.4421
" />
<path d="M4.8538 106.4421
L4.7933 106.3212
" />
<path d="M4.7933 106.3212
L4.7328 106.2607
" />
<path d="M4.7328 106.2607
L4.6119 106.2002
" />
<path d="M4.6119 106.2002
L4.3700 106.2002
" />
<path d="M4.3700 106.2002
L4.2490 106.2607
" />
<path d="M4.2490 106.2607
L4.1885 106.3212
" />
<path d="M4.1885 106.3212
L4.1281 106.4421
" />
</g></g>
<g style="fill:#840000; fill-opacity:0.0; 
stroke:#840000; stroke-width:0.1524; stroke-opacity:1; 
stroke-linecap:round; stroke-linejoin:round;">
<path d="M5.7912 109.9439
L1.9812 109.9439
" />
</g>
<g style="fill:#A90000; fill-opacity:0.0; 
stroke:#A90000; stroke-width:0.1524; stroke-opacity:1; 
stroke-linecap:round; stroke-linejoin:round;">
<text x="3.8862" y="109.6899"
textLength="2.6222" font-size="1.6933" lengthAdjust="spacingAndGlyphs"
text-anchor="middle" opacity="0">37</text>
<g class="stroked-text"><desc>37</desc>
<path d="M2.8581 108.2564
L3.6443 108.2564
" />
<path d="M3.6443 108.2564
L3.2209 108.7402
" />
<path d="M3.2209 108.7402
L3.4024 108.7402
" />
<path d="M3.4024 108.7402
L3.5233 108.8007
" />
<path d="M3.5233 108.8007
L3.5838 108.8612
" />
<path d="M3.5838 108.8612
L3.6443 108.9821
" />
<path d="M3.6443 108.9821
L3.6443 109.2845
" />
<path d="M3.6443 109.2845
L3.5838 109.4055
" />
<path d="M3.5838 109.4055
L3.5233 109.4660
" />
<path d="M3.5233 109.4660
L3.4024 109.5264
" />
<path d="M3.4024 109.5264
L3.0395 109.5264
" />
<path d="M3.0395 109.5264
L2.9186 109.4660
" />
<path d="M2.9186 109.4660
L2.8581 109.4055
" />
<path d="M4.0676 108.2564
L4.9142 108.2564
" />
<path d="M4.9142 108.2564
L4.3700 109.5264
" />
</g></g>
<g style="fill:#840000; fill-opacity:0.0; 
stroke:#840000; stroke-width:0.1524; stroke-opacity:1; 
stroke-linecap:round; stroke-linejoin:round;">
<path d="M5.7912 112.4839
L1.9812 112.4839
" />
</g>
<g style="fill:#A90000; fill-opacity:0.0; 
stroke:#A90000; stroke-width:0.1524; stroke-opacity:1; 
stroke-linecap:round; stroke-linejoin:round;">
<text x="3.8862" y="112.2299"
textLength="2.6222" font-size="1.6933" lengthAdjust="spacingAndGlyphs"
text-anchor="middle" opacity="0">38</text>
<g class="stroked-text"><desc>38</desc>
<path d="M2.8581 110.7964
L3.6443 110.7964
" />
<path d="M3.6443 110.7964
L3.2209 111.2802
" />
<path d="M3.2209 111.2802
L3.4024 111.2802
" />
<path d="M3.4024 111.2802
L3.5233 111.3407
" />
<path d="M3.5233 111.3407
L3.5838 111.4012
" />
<path d="M3.5838 111.4012
L3.6443 111.5221
" />
<path d="M3.6443 111.5221
L3.6443 111.8245
" />
<path d="M3.6443 111.8245
L3.5838 111.9455
" />
<path d="M3.5838 111.9455
L3.5233 112.0060
" />
<path d="M3.5233 112.0060
L3.4024 112.0664
" />
<path d="M3.4024 112.0664
L3.0395 112.0664
" />
<path d="M3.0395 112.0664
L2.9186 112.0060
" />
<path d="M2.9186 112.0060
L2.8581 111.9455
" />
<path d="M4.3700 111.3407
L4.2490 111.2802
" />
<path d="M4.2490 111.2802
L4.1885 111.2198
" />
<path d="M4.1885 111.2198
L4.1281 111.0988
" />
<path d="M4.1281 111.0988
L4.1281 111.0383
" />
<path d="M4.1281 111.0383
L4.1885 110.9174
" />
<path d="M4.1885 110.9174
L4.2490 110.8569
" />
<path d="M4.2490 110.8569
L4.3700 110.7964
" />
<path d="M4.3700 110.7964
L4.6119 110.7964
" />
<path d="M4.6119 110.7964
L4.7328 110.8569
" />
<path d="M4.7328 110.8569
L4.7933 110.9174
" />
<path d="M4.7933 110.9174
L4.8538 111.0383
" />
<path d="M4.8538 111.0383
L4.8538 111.0988
" />
<path d="M4.8538 111.0988
L4.7933 111.2198
" />
<path d="M4.7933 111.2198
L4.7328 111.2802
" />
<path d="M4.7328 111.2802
L4.6119 111.3407
" />
<path d="M4.6119 111.3407
L4.3700 111.3407
" />
<path d="M4.3700 111.3407
L4.2490 111.4012
" />
<path d="M4.2490 111.4012
L4.1885 111.4617
" />
<path d="M4.1885 111.4617
L4.1281 111.5826
" />
<path d="M4.1281 111.5826
L4.1281 111.8245
" />
<path d="M4.1281 111.8245
L4.1885 111.9455
" />
<path d="M4.1885 111.9455
L4.2490 112.0060
" />
<path d="M4.2490 112.0060
L4.3700 112.0664
" />
<path d="M4.3700 112.0664
L4.6119 112.0664
" />
<path d="M4.6119 112.0664
L4.7328 112.0060
" />
<path d="M4.7328 112.0060
L4.7933 111.9455
" />
<path d="M4.7933 111.9455
L4.8538 111.8245
" />
<path d="M4.8538 111.8245
L4.8538 111.5826
" />
<path d="M4.8538 111.5826
L4.7933 111.4617
" />
<path d="M4.7933 111.4617
L4.7328 111.4012
" />
<path d="M4.7328 111.4012
L4.6119 111.3407
" />
</g></g>
<g style="fill:#840000; fill-opacity:0.0; 
stroke:#840000; stroke-width:0.1524; stroke-opacity:1; 
stroke-linecap:round; stroke-linejoin:round;">
<path d="M5.7912 115.0239
L1.9812 115.0239
" />
</g>
<g style="fill:#A90000; fill-opacity:0.0; 
stroke:#A90000; stroke-width:0.1524; stroke-opacity:1; 
stroke-linecap:round; stroke-linejoin:round;">
<text x="3.8862" y="114.7699"
textLength="2.6222" font-size="1.6933" lengthAdjust="spacingAndGlyphs"
text-anchor="middle" opacity="0">39</text>
<g class="stroked-text"><desc>39</desc>
<path d="M2.8581 113.3364
L3.6443 113.3364
" />
<path d="M3.6443 113.3364
L3.2209 113.8202
" />
<path d="M3.2209 113.8202
L3.4024 113.8202
" />
<path d="M3.4024 113.8202
L3.5233 113.8807
" />
<path d="M3.5233 113.8807
L3.5838 113.9412
" />
<path d="M3.5838 113.9412
L3.6443 114.0621
" />
<path d="M3.6443 114.0621
L3.6443 114.3645
" />
<path d="M3.6443 114.3645
L3.5838 114.4855
" />
<path d="M3.5838 114.4855
L3.5233 114.5460
" />
<path d="M3.5233 114.5460
L3.4024 114.6064
" />
<path d="M3.4024 114.6064
L3.0395 114.6064
" />
<path d="M3.0395 114.6064
L2.9186 114.5460
" />
<path d="M2.9186 114.5460
L2.8581 114.4855
" />
<path d="M4.2490 114.6064
L4.4909 114.6064
" />
<path d="M4.4909 114.6064
L4.6119 114.5460
" />
<path d="M4.6119 114.5460
L4.6723 114.4855
" />
<path d="M4.6723 114.4855
L4.7933 114.3040
" />
<path d="M4.7933 114.3040
L4.8538 114.0621
" />
<path d="M4.8538 114.0621
L4.8538 113.5783
" />
<path d="M4.8538 113.5783
L4.7933 113.4574
" />
<path d="M4.7933 113.4574
L4.7328 113.3969
" />
<path d="M4.7328 113.3969
L4.6119 113.3364
" />
<path d="M4.6119 113.3364
L4.3700 113.3364
" />
<path d="M4.3700 113.3364
L4.2490 113.3969
" />
<path d="M4.2490 113.3969
L4.1885 113.4574
" />
<path d="M4.1885 113.4574
L4.1281 113.5783
" />
<path d="M4.1281 113.5783
L4.1281 113.8807
" />
<path d="M4.1281 113.8807
L4.1885 114.0017
" />
<path d="M4.1885 114.0017
L4.2490 114.0621
" />
<path d="M4.2490 114.0621
L4.3700 114.1226
" />
<path d="M4.3700 114.1226
L4.6119 114.1226
" />
<path d="M4.6119 114.1226
L4.7328 114.0621
" />
<path d="M4.7328 114.0621
L4.7933 114.0017
" />
<path d="M4.7933 114.0017
L4.8538 113.8807
" />
</g></g>
<g style="fill:#840000; fill-opacity:0.0; 
stroke:#840000; stroke-width:0.1524; stroke-opacity:1; 
stroke-linecap:round; stroke-linejoin:round;">
<path d="M5.7912 26.1239
L1.9812 26.1239
" />
</g>
<g style="fill:#A90000; fill-opacity:0.0; 
stroke:#A90000; stroke-width:0.1524; stroke-opacity:1; 
stroke-linecap:round; stroke-linejoin:round;">
<text x="3.8862" y="25.8699"
textLength="1.4127" font-size="1.6933" lengthAdjust="spacingAndGlyphs"
text-anchor="middle" opacity="0">4</text>
<g class="stroked-text"><desc>4</desc>
<path d="M4.1281 24.8598
L4.1281 25.7064
" />
<path d="M3.8257 24.3760
L3.5234 25.2831
" />
<path d="M3.5234 25.2831
L4.3095 25.2831
" />
</g></g>
<g style="fill:#840000; fill-opacity:0.0; 
stroke:#840000; stroke-width:0.1524; stroke-opacity:1; 
stroke-linecap:round; stroke-linejoin:round;">
<path d="M5.7912 117.5639
L1.9812 117.5639
" />
</g>
<g style="fill:#A90000; fill-opacity:0.0; 
stroke:#A90000; stroke-width:0.1524; stroke-opacity:1; 
stroke-linecap:round; stroke-linejoin:round;">
<text x="3.8862" y="117.3099"
textLength="2.6222" font-size="1.6933" lengthAdjust="spacingAndGlyphs"
text-anchor="middle" opacity="0">40</text>
<g class="stroked-text"><desc>40</desc>
<path d="M3.5233 116.2998
L3.5233 117.1464
" />
<path d="M3.2209 115.8160
L2.9186 116.7231
" />
<path d="M2.9186 116.7231
L3.7047 116.7231
" />
<path d="M4.4304 115.8764
L4.5514 115.8764
" />
<path d="M4.5514 115.8764
L4.6723 115.9369
" />
<path d="M4.6723 115.9369
L4.7328 115.9974
" />
<path d="M4.7328 115.9974
L4.7933 116.1183
" />
<path d="M4.7933 116.1183
L4.8538 116.3602
" />
<path d="M4.8538 116.3602
L4.8538 116.6626
" />
<path d="M4.8538 116.6626
L4.7933 116.9045
" />
<path d="M4.7933 116.9045
L4.7328 117.0255
" />
<path d="M4.7328 117.0255
L4.6723 117.0860
" />
<path d="M4.6723 117.0860
L4.5514 117.1464
" />
<path d="M4.5514 117.1464
L4.4304 117.1464
" />
<path d="M4.4304 117.1464
L4.3095 117.0860
" />
<path d="M4.3095 117.0860
L4.2490 117.0255
" />
<path d="M4.2490 117.0255
L4.1885 116.9045
" />
<path d="M4.1885 116.9045
L4.1281 116.6626
" />
<path d="M4.1281 116.6626
L4.1281 116.3602
" />
<path d="M4.1281 116.3602
L4.1885 116.1183
" />
<path d="M4.1885 116.1183
L4.2490 115.9974
" />
<path d="M4.2490 115.9974
L4.3095 115.9369
" />
<path d="M4.3095 115.9369
L4.4304 115.8764
" />
</g></g>
<g style="fill:#840000; fill-opacity:0.0; 
stroke:#840000; stroke-width:0.1524; stroke-opacity:1; 
stroke-linecap:round; stroke-linejoin:round;">
<path d="M5.7912 120.1039
L1.9812 120.1039
" />
</g>
<g style="fill:#A90000; fill-opacity:0.0; 
stroke:#A90000; stroke-width:0.1524; stroke-opacity:1; 
stroke-linecap:round; stroke-linejoin:round;">
<text x="3.8862" y="119.8499"
textLength="2.6222" font-size="1.6933" lengthAdjust="spacingAndGlyphs"
text-anchor="middle" opacity="0">41</text>
<g class="stroked-text"><desc>41</desc>
<path d="M3.5233 118.8398
L3.5233 119.6864
" />
<path d="M3.2209 118.3560
L2.9186 119.2631
" />
<path d="M2.9186 119.2631
L3.7047 119.2631
" />
<path d="M4.8538 119.6864
L4.1281 119.6864
" />
<path d="M4.4909 119.6864
L4.4909 118.4164
" />
<path d="M4.4909 118.4164
L4.3700 118.5979
" />
<path d="M4.3700 118.5979
L4.2490 118.7188
" />
<path d="M4.2490 118.7188
L4.1281 118.7793
" />
</g></g>
<g style="fill:#840000; fill-opacity:0.0; 
stroke:#840000; stroke-width:0.1524; stroke-opacity:1; 
stroke-linecap:round; stroke-linejoin:round;">
<path d="M5.7912 122.6439
L1.9812 122.6439
" />
</g>
<g style="fill:#A90000; fill-opacity:0.0; 
stroke:#A90000; stroke-width:0.1524; stroke-opacity:1; 
stroke-linecap:round; stroke-linejoin:round;">
<text x="3.8862" y="122.3899"
textLength="2.6222" font-size="1.6933" lengthAdjust="spacingAndGlyphs"
text-anchor="middle" opacity="0">42</text>
<g class="stroked-text"><desc>42</desc>
<path d="M3.5233 121.3798
L3.5233 122.2264
" />
<path d="M3.2209 120.8960
L2.9186 121.8031
" />
<path d="M2.9186 121.8031
L3.7047 121.8031
" />
<path d="M4.1281 121.0774
L4.1885 121.0169
" />
<path d="M4.1885 121.0169
L4.3095 120.9564
" />
<path d="M4.3095 120.9564
L4.6119 120.9564
" />
<path d="M4.6119 120.9564
L4.7328 121.0169
" />
<path d="M4.7328 121.0169
L4.7933 121.0774
" />
<path d="M4.7933 121.0774
L4.8538 121.1983
" />
<path d="M4.8538 121.1983
L4.8538 121.3193
" />
<path d="M4.8538 121.3193
L4.7933 121.5007
" />
<path d="M4.7933 121.5007
L4.0676 122.2264
" />
<path d="M4.0676 122.2264
L4.8538 122.2264
" />
</g></g>
<g style="fill:#840000; fill-opacity:0.0; 
stroke:#840000; stroke-width:0.1524; stroke-opacity:1; 
stroke-linecap:round; stroke-linejoin:round;">
<path d="M5.7912 125.1839
L1.9812 125.1839
" />
</g>
<g style="fill:#A90000; fill-opacity:0.0; 
stroke:#A90000; stroke-width:0.1524; stroke-opacity:1; 
stroke-linecap:round; stroke-linejoin:round;">
<text x="3.8862" y="124.9299"
textLength="2.6222" font-size="1.6933" lengthAdjust="spacingAndGlyphs"
text-anchor="middle" opacity="0">43</text>
<g class="stroked-text"><desc>43</desc>
<path d="M3.5233 123.9198
L3.5233 124.7664
" />
<path d="M3.2209 123.4360
L2.9186 124.3431
" />
<path d="M2.9186 124.3431
L3.7047 124.3431
" />
<path d="M4.0676 123.4964
L4.8538 123.4964
" />
<path d="M4.8538 123.4964
L4.4304 123.9802
" />
<path d="M4.4304 123.9802
L4.6119 123.9802
" />
<path d="M4.6119 123.9802
L4.7328 124.0407
" />
<path d="M4.7328 124.0407
L4.7933 124.1012
" />
<path d="M4.7933 124.1012
L4.8538 124.2221
" />
<path d="M4.8538 124.2221
L4.8538 124.5245
" />
<path d="M4.8538 124.5245
L4.7933 124.6455
" />
<path d="M4.7933 124.6455
L4.7328 124.7060
" />
<path d="M4.7328 124.7060
L4.6119 124.7664
" />
<path d="M4.6119 124.7664
L4.2490 124.7664
" />
<path d="M4.2490 124.7664
L4.1281 124.7060
" />
<path d="M4.1281 124.7060
L4.0676 124.6455
" />
</g></g>
<g style="fill:#840000; fill-opacity:0.0; 
stroke:#840000; stroke-width:0.1524; stroke-opacity:1; 
stroke-linecap:round; stroke-linejoin:round;">
<path d="M5.7912 127.7239
L1.9812 127.7239
" />
</g>
<g style="fill:#A90000; fill-opacity:0.0; 
stroke:#A90000; stroke-width:0.1524; stroke-opacity:1; 
stroke-linecap:round; stroke-linejoin:round;">
<text x="3.8862" y="127.4699"
textLength="2.6222" font-size="1.6933" lengthAdjust="spacingAndGlyphs"
text-anchor="middle" opacity="0">44</text>
<g class="stroked-text"><desc>44</desc>
<path d="M3.5233 126.4598
L3.5233 127.3064
" />
<path d="M3.2209 125.9760
L2.9186 126.8831
" />
<path d="M2.9186 126.8831
L3.7047 126.8831
" />
<path d="M4.7328 126.4598
L4.7328 127.3064
" />
<path d="M4.4304 125.9760
L4.1281 126.8831
" />
<path d="M4.1281 126.8831
L4.9142 126.8831
" />
</g></g>
<g style="fill:#840000; fill-opacity:0.0; 
stroke:#840000; stroke-width:0.1524; stroke-opacity:1; 
stroke-linecap:round; stroke-linejoin:round;">
<path d="M5.7912 130.2639
L1.9812 130.2639
" />
</g>
<g style="fill:#A90000; fill-opacity:0.0; 
stroke:#A90000; stroke-width:0.1524; stroke-opacity:1; 
stroke-linecap:round; stroke-linejoin:round;">
<text x="3.8862" y="130.0099"
textLength="2.6222" font-size="1.6933" lengthAdjust="spacingAndGlyphs"
text-anchor="middle" opacity="0">45</text>
<g class="stroked-text"><desc>45</desc>
<path d="M3.5233 128.9998
L3.5233 129.8464
" />
<path d="M3.2209 128.5160
L2.9186 129.4231
" />
<path d="M2.9186 129.4231
L3.7047 129.4231
" />
<path d="M4.7933 128.5764
L4.1885 128.5764
" />
<path d="M4.1885 128.5764
L4.1281 129.1812
" />
<path d="M4.1281 129.1812
L4.1885 129.1207
" />
<path d="M4.1885 129.1207
L4.3095 129.0602
" />
<path d="M4.3095 129.0602
L4.6119 129.0602
" />
<path d="M4.6119 129.0602
L4.7328 129.1207
" />
<path d="M4.7328 129.1207
L4.7933 129.1812
" />
<path d="M4.7933 129.1812
L4.8538 129.3021
" />
<path d="M4.8538 129.3021
L4.8538 129.6045
" />
<path d="M4.8538 129.6045
L4.7933 129.7255
" />
<path d="M4.7933 129.7255
L4.7328 129.7860
" />
<path d="M4.7328 129.7860
L4.6119 129.8464
" />
<path d="M4.6119 129.8464
L4.3095 129.8464
" />
<path d="M4.3095 129.8464
L4.1885 129.7860
" />
<path d="M4.1885 129.7860
L4.1281 129.7255
" />
</g></g>
<g style="fill:#840000; fill-opacity:0.0; 
stroke:#840000; stroke-width:0.1524; stroke-opacity:1; 
stroke-linecap:round; stroke-linejoin:round;">
<path d="M5.7912 132.8039
L1.9812 132.8039
" />
</g>
<g style="fill:#A90000; fill-opacity:0.0; 
stroke:#A90000; stroke-width:0.1524; stroke-opacity:1; 
stroke-linecap:round; stroke-linejoin:round;">
<text x="3.8862" y="132.5499"
textLength="2.6222" font-size="1.6933" lengthAdjust="spacingAndGlyphs"
text-anchor="middle" opacity="0">46</text>
<g class="stroked-text"><desc>46</desc>
<path d="M3.5233 131.5398
L3.5233 132.3864
" />
<path d="M3.2209 131.0560
L2.9186 131.9631
" />
<path d="M2.9186 131.9631
L3.7047 131.9631
" />
<path d="M4.7328 131.1164
L4.4909 131.1164
" />
<path d="M4.4909 131.1164
L4.3700 131.1769
" />
<path d="M4.3700 131.1769
L4.3095 131.2374
" />
<path d="M4.3095 131.2374
L4.1885 131.4188
" />
<path d="M4.1885 131.4188
L4.1281 131.6607
" />
<path d="M4.1281 131.6607
L4.1281 132.1445
" />
<path d="M4.1281 132.1445
L4.1885 132.2655
" />
<path d="M4.1885 132.2655
L4.2490 132.3260
" />
<path d="M4.2490 132.3260
L4.3700 132.3864
" />
<path d="M4.3700 132.3864
L4.6119 132.3864
" />
<path d="M4.6119 132.3864
L4.7328 132.3260
" />
<path d="M4.7328 132.3260
L4.7933 132.2655
" />
<path d="M4.7933 132.2655
L4.8538 132.1445
" />
<path d="M4.8538 132.1445
L4.8538 131.8421
" />
<path d="M4.8538 131.8421
L4.7933 131.7212
" />
<path d="M4.7933 131.7212
L4.7328 131.6607
" />
<path d="M4.7328 131.6607
L4.6119 131.6002
" />
<path d="M4.6119 131.6002
L4.3700 131.6002
" />
<path d="M4.3700 131.6002
L4.2490 131.6607
" />
<path d="M4.2490 131.6607
L4.1885 131.7212
" />
<path d="M4.1885 131.7212
L4.1281 131.8421
" />
</g></g>
<g style="fill:#840000; fill-opacity:0.0; 
stroke:#840000; stroke-width:0.1524; stroke-opacity:1; 
stroke-linecap:round; stroke-linejoin:round;">
<path d="M5.7912 135.3439
L1.9812 135.3439
" />
</g>
<g style="fill:#A90000; fill-opacity:0.0; 
stroke:#A90000; stroke-width:0.1524; stroke-opacity:1; 
stroke-linecap:round; stroke-linejoin:round;">
<text x="3.8862" y="135.0899"
textLength="2.6222" font-size="1.6933" lengthAdjust="spacingAndGlyphs"
text-anchor="middle" opacity="0">47</text>
<g class="stroked-text"><desc>47</desc>
<path d="M3.5233 134.0798
L3.5233 134.9264
" />
<path d="M3.2209 133.5960
L2.9186 134.5031
" />
<path d="M2.9186 134.5031
L3.7047 134.5031
" />
<path d="M4.0676 133.6564
L4.9142 133.6564
" />
<path d="M4.9142 133.6564
L4.3700 134.9264
" />
</g></g>
<g style="fill:#840000; fill-opacity:0.0; 
stroke:#840000; stroke-width:0.1524; stroke-opacity:1; 
stroke-linecap:round; stroke-linejoin:round;">
<path d="M5.7912 137.8839
L1.9812 137.8839
" />
</g>
<g style="fill:#A90000; fill-opacity:0.0; 
stroke:#A90000; stroke-width:0.1524; stroke-opacity:1; 
stroke-linecap:round; stroke-linejoin:round;">
<text x="3.8862" y="137.6299"
textLength="2.6222" font-size="1.6933" lengthAdjust="spacingAndGlyphs"
text-anchor="middle" opacity="0">48</text>
<g class="stroked-text"><desc>48</desc>
<path d="M3.5233 136.6198
L3.5233 137.4664
" />
<path d="M3.2209 136.1360
L2.9186 137.0431
" />
<path d="M2.9186 137.0431
L3.7047 137.0431
" />
<path d="M4.3700 136.7407
L4.2490 136.6802
" />
<path d="M4.2490 136.6802
L4.1885 136.6198
" />
<path d="M4.1885 136.6198
L4.1281 136.4988
" />
<path d="M4.1281 136.4988
L4.1281 136.4383
" />
<path d="M4.1281 136.4383
L4.1885 136.3174
" />
<path d="M4.1885 136.3174
L4.2490 136.2569
" />
<path d="M4.2490 136.2569
L4.3700 136.1964
" />
<path d="M4.3700 136.1964
L4.6119 136.1964
" />
<path d="M4.6119 136.1964
L4.7328 136.2569
" />
<path d="M4.7328 136.2569
L4.7933 136.3174
" />
<path d="M4.7933 136.3174
L4.8538 136.4383
" />
<path d="M4.8538 136.4383
L4.8538 136.4988
" />
<path d="M4.8538 136.4988
L4.7933 136.6198
" />
<path d="M4.7933 136.6198
L4.7328 136.6802
" />
<path d="M4.7328 136.6802
L4.6119 136.7407
" />
<path d="M4.6119 136.7407
L4.3700 136.7407
" />
<path d="M4.3700 136.7407
L4.2490 136.8012
" />
<path d="M4.2490 136.8012
L4.1885 136.8617
" />
<path d="M4.1885 136.8617
L4.1281 136.9826
" />
<path d="M4.1281 136.9826
L4.1281 137.2245
" />
<path d="M4.1281 137.2245
L4.1885 137.3455
" />
<path d="M4.1885 137.3455
L4.2490 137.4060
" />
<path d="M4.2490 137.4060
L4.3700 137.4664
" />
<path d="M4.3700 137.4664
L4.6119 137.4664
" />
<path d="M4.6119 137.4664
L4.7328 137.4060
" />
<path d="M4.7328 137.4060
L4.7933 137.3455
" />
<path d="M4.7933 137.3455
L4.8538 137.2245
" />
<path d="M4.8538 137.2245
L4.8538 136.9826
" />
<path d="M4.8538 136.9826
L4.7933 136.8617
" />
<path d="M4.7933 136.8617
L4.7328 136.8012
" />
<path d="M4.7328 136.8012
L4.6119 136.7407
" />
</g></g>
<g style="fill:#840000; fill-opacity:0.0; 
stroke:#840000; stroke-width:0.1524; stroke-opacity:1; 
stroke-linecap:round; stroke-linejoin:round;">
<path d="M5.7912 140.4239
L1.9812 140.4239
" />
</g>
<g style="fill:#A90000; fill-opacity:0.0; 
stroke:#A90000; stroke-width:0.1524; stroke-opacity:1; 
stroke-linecap:round; stroke-linejoin:round;">
<text x="3.8862" y="140.1699"
textLength="2.6222" font-size="1.6933" lengthAdjust="spacingAndGlyphs"
text-anchor="middle" opacity="0">49</text>
<g class="stroked-text"><desc>49</desc>
<path d="M3.5233 139.1598
L3.5233 140.0064
" />
<path d="M3.2209 138.6760
L2.9186 139.5831
" />
<path d="M2.9186 139.5831
L3.7047 139.5831
" />
<path d="M4.2490 140.0064
L4.4909 140.0064
" />
<path d="M4.4909 140.0064
L4.6119 139.9460
" />
<path d="M4.6119 139.9460
L4.6723 139.8855
" />
<path d="M4.6723 139.8855
L4.7933 139.7040
" />
<path d="M4.7933 139.7040
L4.8538 139.4621
" />
<path d="M4.8538 139.4621
L4.8538 138.9783
" />
<path d="M4.8538 138.9783
L4.7933 138.8574
" />
<path d="M4.7933 138.8574
L4.7328 138.7969
" />
<path d="M4.7328 138.7969
L4.6119 138.7364
" />
<path d="M4.6119 138.7364
L4.3700 138.7364
" />
<path d="M4.3700 138.7364
L4.2490 138.7969
" />
<path d="M4.2490 138.7969
L4.1885 138.8574
" />
<path d="M4.1885 138.8574
L4.1281 138.9783
" />
<path d="M4.1281 138.9783
L4.1281 139.2807
" />
<path d="M4.1281 139.2807
L4.1885 139.4017
" />
<path d="M4.1885 139.4017
L4.2490 139.4621
" />
<path d="M4.2490 139.4621
L4.3700 139.5226
" />
<path d="M4.3700 139.5226
L4.6119 139.5226
" />
<path d="M4.6119 139.5226
L4.7328 139.4621
" />
<path d="M4.7328 139.4621
L4.7933 139.4017
" />
<path d="M4.7933 139.4017
L4.8538 139.2807
" />
</g></g>
<g style="fill:#840000; fill-opacity:0.0; 
stroke:#840000; stroke-width:0.1524; stroke-opacity:1; 
stroke-linecap:round; stroke-linejoin:round;">
<path d="M5.7912 28.6639
L1.9812 28.6639
" />
</g>
<g style="fill:#A90000; fill-opacity:0.0; 
stroke:#A90000; stroke-width:0.1524; stroke-opacity:1; 
stroke-linecap:round; stroke-linejoin:round;">
<text x="3.8862" y="28.4099"
textLength="1.4127" font-size="1.6933" lengthAdjust="spacingAndGlyphs"
text-anchor="middle" opacity="0">5</text>
<g class="stroked-text"><desc>5</desc>
<path d="M4.1886 26.9764
L3.5838 26.9764
" />
<path d="M3.5838 26.9764
L3.5234 27.5812
" />
<path d="M3.5234 27.5812
L3.5838 27.5207
" />
<path d="M3.5838 27.5207
L3.7048 27.4602
" />
<path d="M3.7048 27.4602
L4.0072 27.4602
" />
<path d="M4.0072 27.4602
L4.1281 27.5207
" />
<path d="M4.1281 27.5207
L4.1886 27.5812
" />
<path d="M4.1886 27.5812
L4.2491 27.7021
" />
<path d="M4.2491 27.7021
L4.2491 28.0045
" />
<path d="M4.2491 28.0045
L4.1886 28.1255
" />
<path d="M4.1886 28.1255
L4.1281 28.1860
" />
<path d="M4.1281 28.1860
L4.0072 28.2464
" />
<path d="M4.0072 28.2464
L3.7048 28.2464
" />
<path d="M3.7048 28.2464
L3.5838 28.1860
" />
<path d="M3.5838 28.1860
L3.5234 28.1255
" />
</g></g>
<g style="fill:#840000; fill-opacity:0.0; 
stroke:#840000; stroke-width:0.1524; stroke-opacity:1; 
stroke-linecap:round; stroke-linejoin:round;">
<path d="M5.7912 142.9639
L1.9812 142.9639
" />
</g>
<g style="fill:#A90000; fill-opacity:0.0; 
stroke:#A90000; stroke-width:0.1524; stroke-opacity:1; 
stroke-linecap:round; stroke-linejoin:round;">
<text x="3.8862" y="142.7099"
textLength="2.6222" font-size="1.6933" lengthAdjust="spacingAndGlyphs"
text-anchor="middle" opacity="0">50</text>
<g class="stroked-text"><desc>50</desc>
<path d="M3.5838 141.2764
L2.9790 141.2764
" />
<path d="M2.9790 141.2764
L2.9186 141.8812
" />
<path d="M2.9186 141.8812
L2.9790 141.8207
" />
<path d="M2.9790 141.8207
L3.1000 141.7602
" />
<path d="M3.1000 141.7602
L3.4024 141.7602
" />
<path d="M3.4024 141.7602
L3.5233 141.8207
" />
<path d="M3.5233 141.8207
L3.5838 141.8812
" />
<path d="M3.5838 141.8812
L3.6443 142.0021
" />
<path d="M3.6443 142.0021
L3.6443 142.3045
" />
<path d="M3.6443 142.3045
L3.5838 142.4255
" />
<path d="M3.5838 142.4255
L3.5233 142.4860
" />
<path d="M3.5233 142.4860
L3.4024 142.5464
" />
<path d="M3.4024 142.5464
L3.1000 142.5464
" />
<path d="M3.1000 142.5464
L2.9790 142.4860
" />
<path d="M2.9790 142.4860
L2.9186 142.4255
" />
<path d="M4.4304 141.2764
L4.5514 141.2764
" />
<path d="M4.5514 141.2764
L4.6723 141.3369
" />
<path d="M4.6723 141.3369
L4.7328 141.3974
" />
<path d="M4.7328 141.3974
L4.7933 141.5183
" />
<path d="M4.7933 141.5183
L4.8538 141.7602
" />
<path d="M4.8538 141.7602
L4.8538 142.0626
" />
<path d="M4.8538 142.0626
L4.7933 142.3045
" />
<path d="M4.7933 142.3045
L4.7328 142.4255
" />
<path d="M4.7328 142.4255
L4.6723 142.4860
" />
<path d="M4.6723 142.4860
L4.5514 142.5464
" />
<path d="M4.5514 142.5464
L4.4304 142.5464
" />
<path d="M4.4304 142.5464
L4.3095 142.4860
" />
<path d="M4.3095 142.4860
L4.2490 142.4255
" />
<path d="M4.2490 142.4255
L4.1885 142.3045
" />
<path d="M4.1885 142.3045
L4.1281 142.0626
" />
<path d="M4.1281 142.0626
L4.1281 141.7602
" />
<path d="M4.1281 141.7602
L4.1885 141.5183
" />
<path d="M4.1885 141.5183
L4.2490 141.3974
" />
<path d="M4.2490 141.3974
L4.3095 141.3369
" />
<path d="M4.3095 141.3369
L4.4304 141.2764
" />
</g></g>
<g style="fill:#840000; fill-opacity:0.0; 
stroke:#840000; stroke-width:0.1524; stroke-opacity:1; 
stroke-linecap:round; stroke-linejoin:round;">
<path d="M5.7912 145.5039
L1.9812 145.5039
" />
</g>
<g style="fill:#A90000; fill-opacity:0.0; 
stroke:#A90000; stroke-width:0.1524; stroke-opacity:1; 
stroke-linecap:round; stroke-linejoin:round;">
<text x="3.8862" y="145.2499"
textLength="2.6222" font-size="1.6933" lengthAdjust="spacingAndGlyphs"
text-anchor="middle" opacity="0">51</text>
<g class="stroked-text"><desc>51</desc>
<path d="M3.5838 143.8164
L2.9790 143.8164
" />
<path d="M2.9790 143.8164
L2.9186 144.4212
" />
<path d="M2.9186 144.4212
L2.9790 144.3607
" />
<path d="M2.9790 144.3607
L3.1000 144.3002
" />
<path d="M3.1000 144.3002
L3.4024 144.3002
" />
<path d="M3.4024 144.3002
L3.5233 144.3607
" />
<path d="M3.5233 144.3607
L3.5838 144.4212
" />
<path d="M3.5838 144.4212
L3.6443 144.5421
" />
<path d="M3.6443 144.5421
L3.6443 144.8445
" />
<path d="M3.6443 144.8445
L3.5838 144.9655
" />
<path d="M3.5838 144.9655
L3.5233 145.0260
" />
<path d="M3.5233 145.0260
L3.4024 145.0864
" />
<path d="M3.4024 145.0864
L3.1000 145.0864
" />
<path d="M3.1000 145.0864
L2.9790 145.0260
" />
<path d="M2.9790 145.0260
L2.9186 144.9655
" />
<path d="M4.8538 145.0864
L4.1281 145.0864
" />
<path d="M4.4909 145.0864
L4.4909 143.8164
" />
<path d="M4.4909 143.8164
L4.3700 143.9979
" />
<path d="M4.3700 143.9979
L4.2490 144.1188
" />
<path d="M4.2490 144.1188
L4.1281 144.1793
" />
</g></g>
<g style="fill:#840000; fill-opacity:0.0; 
stroke:#840000; stroke-width:0.1524; stroke-opacity:1; 
stroke-linecap:round; stroke-linejoin:round;">
<path d="M5.7912 148.0439
L1.9812 148.0439
" />
</g>
<g style="fill:#A90000; fill-opacity:0.0; 
stroke:#A90000; stroke-width:0.1524; stroke-opacity:1; 
stroke-linecap:round; stroke-linejoin:round;">
<text x="3.8862" y="147.7899"
textLength="2.6222" font-size="1.6933" lengthAdjust="spacingAndGlyphs"
text-anchor="middle" opacity="0">52</text>
<g class="stroked-text"><desc>52</desc>
<path d="M3.5838 146.3564
L2.9790 146.3564
" />
<path d="M2.9790 146.3564
L2.9186 146.9612
" />
<path d="M2.9186 146.9612
L2.9790 146.9007
" />
<path d="M2.9790 146.9007
L3.1000 146.8402
" />
<path d="M3.1000 146.8402
L3.4024 146.8402
" />
<path d="M3.4024 146.8402
L3.5233 146.9007
" />
<path d="M3.5233 146.9007
L3.5838 146.9612
" />
<path d="M3.5838 146.9612
L3.6443 147.0821
" />
<path d="M3.6443 147.0821
L3.6443 147.3845
" />
<path d="M3.6443 147.3845
L3.5838 147.5055
" />
<path d="M3.5838 147.5055
L3.5233 147.5660
" />
<path d="M3.5233 147.5660
L3.4024 147.6264
" />
<path d="M3.4024 147.6264
L3.1000 147.6264
" />
<path d="M3.1000 147.6264
L2.9790 147.5660
" />
<path d="M2.9790 147.5660
L2.9186 147.5055
" />
<path d="M4.1281 146.4774
L4.1885 146.4169
" />
<path d="M4.1885 146.4169
L4.3095 146.3564
" />
<path d="M4.3095 146.3564
L4.6119 146.3564
" />
<path d="M4.6119 146.3564
L4.7328 146.4169
" />
<path d="M4.7328 146.4169
L4.7933 146.4774
" />
<path d="M4.7933 146.4774
L4.8538 146.5983
" />
<path d="M4.8538 146.5983
L4.8538 146.7193
" />
<path d="M4.8538 146.7193
L4.7933 146.9007
" />
<path d="M4.7933 146.9007
L4.0676 147.6264
" />
<path d="M4.0676 147.6264
L4.8538 147.6264
" />
</g></g>
<g style="fill:#840000; fill-opacity:0.0; 
stroke:#840000; stroke-width:0.1524; stroke-opacity:1; 
stroke-linecap:round; stroke-linejoin:round;">
<path d="M5.7912 150.5839
L1.9812 150.5839
" />
</g>
<g style="fill:#A90000; fill-opacity:0.0; 
stroke:#A90000; stroke-width:0.1524; stroke-opacity:1; 
stroke-linecap:round; stroke-linejoin:round;">
<text x="3.8862" y="150.3299"
textLength="2.6222" font-size="1.6933" lengthAdjust="spacingAndGlyphs"
text-anchor="middle" opacity="0">53</text>
<g class="stroked-text"><desc>53</desc>
<path d="M3.5838 148.8964
L2.9790 148.8964
" />
<path d="M2.9790 148.8964
L2.9186 149.5012
" />
<path d="M2.9186 149.5012
L2.9790 149.4407
" />
<path d="M2.9790 149.4407
L3.1000 149.3802
" />
<path d="M3.1000 149.3802
L3.4024 149.3802
" />
<path d="M3.4024 149.3802
L3.5233 149.4407
" />
<path d="M3.5233 149.4407
L3.5838 149.5012
" />
<path d="M3.5838 149.5012
L3.6443 149.6221
" />
<path d="M3.6443 149.6221
L3.6443 149.9245
" />
<path d="M3.6443 149.9245
L3.5838 150.0455
" />
<path d="M3.5838 150.0455
L3.5233 150.1060
" />
<path d="M3.5233 150.1060
L3.4024 150.1664
" />
<path d="M3.4024 150.1664
L3.1000 150.1664
" />
<path d="M3.1000 150.1664
L2.9790 150.1060
" />
<path d="M2.9790 150.1060
L2.9186 150.0455
" />
<path d="M4.0676 148.8964
L4.8538 148.8964
" />
<path d="M4.8538 148.8964
L4.4304 149.3802
" />
<path d="M4.4304 149.3802
L4.6119 149.3802
" />
<path d="M4.6119 149.3802
L4.7328 149.4407
" />
<path d="M4.7328 149.4407
L4.7933 149.5012
" />
<path d="M4.7933 149.5012
L4.8538 149.6221
" />
<path d="M4.8538 149.6221
L4.8538 149.9245
" />
<path d="M4.8538 149.9245
L4.7933 150.0455
" />
<path d="M4.7933 150.0455
L4.7328 150.1060
" />
<path d="M4.7328 150.1060
L4.6119 150.1664
" />
<path d="M4.6119 150.1664
L4.2490 150.1664
" />
<path d="M4.2490 150.1664
L4.1281 150.1060
" />
<path d="M4.1281 150.1060
L4.0676 150.0455
" />
</g></g>
<g style="fill:#840000; fill-opacity:0.0; 
stroke:#840000; stroke-width:0.1524; stroke-opacity:1; 
stroke-linecap:round; stroke-linejoin:round;">
<path d="M5.7912 153.1239
L1.9812 153.1239
" />
</g>
<g style="fill:#A90000; fill-opacity:0.0; 
stroke:#A90000; stroke-width:0.1524; stroke-opacity:1; 
stroke-linecap:round; stroke-linejoin:round;">
<text x="3.8862" y="152.8699"
textLength="2.6222" font-size="1.6933" lengthAdjust="spacingAndGlyphs"
text-anchor="middle" opacity="0">54</text>
<g class="stroked-text"><desc>54</desc>
<path d="M3.5838 151.4364
L2.9790 151.4364
" />
<path d="M2.9790 151.4364
L2.9186 152.0412
" />
<path d="M2.9186 152.0412
L2.9790 151.9807
" />
<path d="M2.9790 151.9807
L3.1000 151.9202
" />
<path d="M3.1000 151.9202
L3.4024 151.9202
" />
<path d="M3.4024 151.9202
L3.5233 151.9807
" />
<path d="M3.5233 151.9807
L3.5838 152.0412
" />
<path d="M3.5838 152.0412
L3.6443 152.1621
" />
<path d="M3.6443 152.1621
L3.6443 152.4645
" />
<path d="M3.6443 152.4645
L3.5838 152.5855
" />
<path d="M3.5838 152.5855
L3.5233 152.6460
" />
<path d="M3.5233 152.6460
L3.4024 152.7064
" />
<path d="M3.4024 152.7064
L3.1000 152.7064
" />
<path d="M3.1000 152.7064
L2.9790 152.6460
" />
<path d="M2.9790 152.6460
L2.9186 152.5855
" />
<path d="M4.7328 151.8598
L4.7328 152.7064
" />
<path d="M4.4304 151.3760
L4.1281 152.2831
" />
<path d="M4.1281 152.2831
L4.9142 152.2831
" />
</g></g>
<g style="fill:#840000; fill-opacity:0.0; 
stroke:#840000; stroke-width:0.1524; stroke-opacity:1; 
stroke-linecap:round; stroke-linejoin:round;">
<path d="M5.7912 155.6639
L1.9812 155.6639
" />
</g>
<g style="fill:#A90000; fill-opacity:0.0; 
stroke:#A90000; stroke-width:0.1524; stroke-opacity:1; 
stroke-linecap:round; stroke-linejoin:round;">
<text x="3.8862" y="155.4099"
textLength="2.6222" font-size="1.6933" lengthAdjust="spacingAndGlyphs"
text-anchor="middle" opacity="0">55</text>
<g class="stroked-text"><desc>55</desc>
<path d="M3.5838 153.9764
L2.9790 153.9764
" />
<path d="M2.9790 153.9764
L2.9186 154.5812
" />
<path d="M2.9186 154.5812
L2.9790 154.5207
" />
<path d="M2.9790 154.5207
L3.1000 154.4602
" />
<path d="M3.1000 154.4602
L3.4024 154.4602
" />
<path d="M3.4024 154.4602
L3.5233 154.5207
" />
<path d="M3.5233 154.5207
L3.5838 154.5812
" />
<path d="M3.5838 154.5812
L3.6443 154.7021
" />
<path d="M3.6443 154.7021
L3.6443 155.0045
" />
<path d="M3.6443 155.0045
L3.5838 155.1255
" />
<path d="M3.5838 155.1255
L3.5233 155.1860
" />
<path d="M3.5233 155.1860
L3.4024 155.2464
" />
<path d="M3.4024 155.2464
L3.1000 155.2464
" />
<path d="M3.1000 155.2464
L2.9790 155.1860
" />
<path d="M2.9790 155.1860
L2.9186 155.1255
" />
<path d="M4.7933 153.9764
L4.1885 153.9764
" />
<path d="M4.1885 153.9764
L4.1281 154.5812
" />
<path d="M4.1281 154.5812
L4.1885 154.5207
" />
<path d="M4.1885 154.5207
L4.3095 154.4602
" />
<path d="M4.3095 154.4602
L4.6119 154.4602
" />
<path d="M4.6119 154.4602
L4.7328 154.5207
" />
<path d="M4.7328 154.5207
L4.7933 154.5812
" />
<path d="M4.7933 154.5812
L4.8538 154.7021
" />
<path d="M4.8538 154.7021
L4.8538 155.0045
" />
<path d="M4.8538 155.0045
L4.7933 155.1255
" />
<path d="M4.7933 155.1255
L4.7328 155.1860
" />
<path d="M4.7328 155.1860
L4.6119 155.2464
" />
<path d="M4.6119 155.2464
L4.3095 155.2464
" />
<path d="M4.3095 155.2464
L4.1885 155.1860
" />
<path d="M4.1885 155.1860
L4.1281 155.1255
" />
</g></g>
<g style="fill:#840000; fill-opacity:0.0; 
stroke:#840000; stroke-width:0.1524; stroke-opacity:1; 
stroke-linecap:round; stroke-linejoin:round;">
<path d="M5.7912 158.2039
L1.9812 158.2039
" />
</g>
<g style="fill:#A90000; fill-opacity:0.0; 
stroke:#A90000; stroke-width:0.1524; stroke-opacity:1; 
stroke-linecap:round; stroke-linejoin:round;">
<text x="3.8862" y="157.9499"
textLength="2.6222" font-size="1.6933" lengthAdjust="spacingAndGlyphs"
text-anchor="middle" opacity="0">56</text>
<g class="stroked-text"><desc>56</desc>
<path d="M3.5838 156.5164
L2.9790 156.5164
" />
<path d="M2.9790 156.5164
L2.9186 157.1212
" />
<path d="M2.9186 157.1212
L2.9790 157.0607
" />
<path d="M2.9790 157.0607
L3.1000 157.0002
" />
<path d="M3.1000 157.0002
L3.4024 157.0002
" />
<path d="M3.4024 157.0002
L3.5233 157.0607
" />
<path d="M3.5233 157.0607
L3.5838 157.1212
" />
<path d="M3.5838 157.1212
L3.6443 157.2421
" />
<path d="M3.6443 157.2421
L3.6443 157.5445
" />
<path d="M3.6443 157.5445
L3.5838 157.6655
" />
<path d="M3.5838 157.6655
L3.5233 157.7260
" />
<path d="M3.5233 157.7260
L3.4024 157.7864
" />
<path d="M3.4024 157.7864
L3.1000 157.7864
" />
<path d="M3.1000 157.7864
L2.9790 157.7260
" />
<path d="M2.9790 157.7260
L2.9186 157.6655
" />
<path d="M4.7328 156.5164
L4.4909 156.5164
" />
<path d="M4.4909 156.5164
L4.3700 156.5769
" />
<path d="M4.3700 156.5769
L4.3095 156.6374
" />
<path d="M4.3095 156.6374
L4.1885 156.8188
" />
<path d="M4.1885 156.8188
L4.1281 157.0607
" />
<path d="M4.1281 157.0607
L4.1281 157.5445
" />
<path d="M4.1281 157.5445
L4.1885 157.6655
" />
<path d="M4.1885 157.6655
L4.2490 157.7260
" />
<path d="M4.2490 157.7260
L4.3700 157.7864
" />
<path d="M4.3700 157.7864
L4.6119 157.7864
" />
<path d="M4.6119 157.7864
L4.7328 157.7260
" />
<path d="M4.7328 157.7260
L4.7933 157.6655
" />
<path d="M4.7933 157.6655
L4.8538 157.5445
" />
<path d="M4.8538 157.5445
L4.8538 157.2421
" />
<path d="M4.8538 157.2421
L4.7933 157.1212
" />
<path d="M4.7933 157.1212
L4.7328 157.0607
" />
<path d="M4.7328 157.0607
L4.6119 157.0002
" />
<path d="M4.6119 157.0002
L4.3700 157.0002
" />
<path d="M4.3700 157.0002
L4.2490 157.0607
" />
<path d="M4.2490 157.0607
L4.1885 157.1212
" />
<path d="M4.1885 157.1212
L4.1281 157.2421
" />
</g></g>
<g style="fill:#840000; fill-opacity:0.0; 
stroke:#840000; stroke-width:0.1524; stroke-opacity:1; 
stroke-linecap:round; stroke-linejoin:round;">
<path d="M5.7912 160.7439
L1.9812 160.7439
" />
</g>
<g style="fill:#A90000; fill-opacity:0.0; 
stroke:#A90000; stroke-width:0.1524; stroke-opacity:1; 
stroke-linecap:round; stroke-linejoin:round;">
<text x="3.8862" y="160.4899"
textLength="2.6222" font-size="1.6933" lengthAdjust="spacingAndGlyphs"
text-anchor="middle" opacity="0">57</text>
<g class="stroked-text"><desc>57</desc>
<path d="M3.5838 159.0564
L2.9790 159.0564
" />
<path d="M2.9790 159.0564
L2.9186 159.6612
" />
<path d="M2.9186 159.6612
L2.9790 159.6007
" />
<path d="M2.9790 159.6007
L3.1000 159.5402
" />
<path d="M3.1000 159.5402
L3.4024 159.5402
" />
<path d="M3.4024 159.5402
L3.5233 159.6007
" />
<path d="M3.5233 159.6007
L3.5838 159.6612
" />
<path d="M3.5838 159.6612
L3.6443 159.7821
" />
<path d="M3.6443 159.7821
L3.6443 160.0845
" />
<path d="M3.6443 160.0845
L3.5838 160.2055
" />
<path d="M3.5838 160.2055
L3.5233 160.2660
" />
<path d="M3.5233 160.2660
L3.4024 160.3264
" />
<path d="M3.4024 160.3264
L3.1000 160.3264
" />
<path d="M3.1000 160.3264
L2.9790 160.2660
" />
<path d="M2.9790 160.2660
L2.9186 160.2055
" />
<path d="M4.0676 159.0564
L4.9142 159.0564
" />
<path d="M4.9142 159.0564
L4.3700 160.3264
" />
</g></g>
<g style="fill:#840000; fill-opacity:0.0; 
stroke:#840000; stroke-width:0.1524; stroke-opacity:1; 
stroke-linecap:round; stroke-linejoin:round;">
<path d="M5.7912 31.2039
L1.9812 31.2039
" />
</g>
<g style="fill:#A90000; fill-opacity:0.0; 
stroke:#A90000; stroke-width:0.1524; stroke-opacity:1; 
stroke-linecap:round; stroke-linejoin:round;">
<text x="3.8862" y="30.9499"
textLength="1.4127" font-size="1.6933" lengthAdjust="spacingAndGlyphs"
text-anchor="middle" opacity="0">6</text>
<g class="stroked-text"><desc>6</desc>
<path d="M4.1281 29.5164
L3.8862 29.5164
" />
<path d="M3.8862 29.5164
L3.7653 29.5769
" />
<path d="M3.7653 29.5769
L3.7048 29.6374
" />
<path d="M3.7048 29.6374
L3.5838 29.8188
" />
<path d="M3.5838 29.8188
L3.5234 30.0607
" />
<path d="M3.5234 30.0607
L3.5234 30.5445
" />
<path d="M3.5234 30.5445
L3.5838 30.6655
" />
<path d="M3.5838 30.6655
L3.6443 30.7260
" />
<path d="M3.6443 30.7260
L3.7653 30.7864
" />
<path d="M3.7653 30.7864
L4.0072 30.7864
" />
<path d="M4.0072 30.7864
L4.1281 30.7260
" />
<path d="M4.1281 30.7260
L4.1886 30.6655
" />
<path d="M4.1886 30.6655
L4.2491 30.5445
" />
<path d="M4.2491 30.5445
L4.2491 30.2421
" />
<path d="M4.2491 30.2421
L4.1886 30.1212
" />
<path d="M4.1886 30.1212
L4.1281 30.0607
" />
<path d="M4.1281 30.0607
L4.0072 30.0002
" />
<path d="M4.0072 30.0002
L3.7653 30.0002
" />
<path d="M3.7653 30.0002
L3.6443 30.0607
" />
<path d="M3.6443 30.0607
L3.5838 30.1212
" />
<path d="M3.5838 30.1212
L3.5234 30.2421
" />
</g></g>
<g style="fill:#840000; fill-opacity:0.0; 
stroke:#840000; stroke-width:0.1524; stroke-opacity:1; 
stroke-linecap:round; stroke-linejoin:round;">
<path d="M5.7912 33.7439
L1.9812 33.7439
" />
</g>
<g style="fill:#A90000; fill-opacity:0.0; 
stroke:#A90000; stroke-width:0.1524; stroke-opacity:1; 
stroke-linecap:round; stroke-linejoin:round;">
<text x="3.8862" y="33.4899"
textLength="1.4127" font-size="1.6933" lengthAdjust="spacingAndGlyphs"
text-anchor="middle" opacity="0">7</text>
<g class="stroked-text"><desc>7</desc>
<path d="M3.4629 32.0564
L4.3095 32.0564
" />
<path d="M4.3095 32.0564
L3.7653 33.3264
" />
</g></g>
<g style="fill:#840000; fill-opacity:0.0; 
stroke:#840000; stroke-width:0.1524; stroke-opacity:1; 
stroke-linecap:round; stroke-linejoin:round;">
<path d="M5.7912 36.2839
L1.9812 36.2839
" />
</g>
<g style="fill:#A90000; fill-opacity:0.0; 
stroke:#A90000; stroke-width:0.1524; stroke-opacity:1; 
stroke-linecap:round; stroke-linejoin:round;">
<text x="3.8862" y="36.0299"
textLength="1.4127" font-size="1.6933" lengthAdjust="spacingAndGlyphs"
text-anchor="middle" opacity="0">8</text>
<g class="stroked-text"><desc>8</desc>
<path d="M3.7653 35.1407
L3.6443 35.0802
" />
<path d="M3.6443 35.0802
L3.5838 35.0198
" />
<path d="M3.5838 35.0198
L3.5234 34.8988
" />
<path d="M3.5234 34.8988
L3.5234 34.8383
" />
<path d="M3.5234 34.8383
L3.5838 34.7174
" />
<path d="M3.5838 34.7174
L3.6443 34.6569
" />
<path d="M3.6443 34.6569
L3.7653 34.5964
" />
<path d="M3.7653 34.5964
L4.0072 34.5964
" />
<path d="M4.0072 34.5964
L4.1281 34.6569
" />
<path d="M4.1281 34.6569
L4.1886 34.7174
" />
<path d="M4.1886 34.7174
L4.2491 34.8383
" />
<path d="M4.2491 34.8383
L4.2491 34.8988
" />
<path d="M4.2491 34.8988
L4.1886 35.0198
" />
<path d="M4.1886 35.0198
L4.1281 35.0802
" />
<path d="M4.1281 35.0802
L4.0072 35.1407
" />
<path d="M4.0072 35.1407
L3.7653 35.1407
" />
<path d="M3.7653 35.1407
L3.6443 35.2012
" />
<path d="M3.6443 35.2012
L3.5838 35.2617
" />
<path d="M3.5838 35.2617
L3.5234 35.3826
" />
<path d="M3.5234 35.3826
L3.5234 35.6245
" />
<path d="M3.5234 35.6245
L3.5838 35.7455
" />
<path d="M3.5838 35.7455
L3.6443 35.8060
" />
<path d="M3.6443 35.8060
L3.7653 35.8664
" />
<path d="M3.7653 35.8664
L4.0072 35.8664
" />
<path d="M4.0072 35.8664
L4.1281 35.8060
" />
<path d="M4.1281 35.8060
L4.1886 35.7455
" />
<path d="M4.1886 35.7455
L4.2491 35.6245
" />
<path d="M4.2491 35.6245
L4.2491 35.3826
" />
<path d="M4.2491 35.3826
L4.1886 35.2617
" />
<path d="M4.1886 35.2617
L4.1281 35.2012
" />
<path d="M4.1281 35.2012
L4.0072 35.1407
" />
</g></g>
<g style="fill:#840000; fill-opacity:0.0; 
stroke:#840000; stroke-width:0.1524; stroke-opacity:1; 
stroke-linecap:round; stroke-linejoin:round;">
<path d="M5.7912 38.8239
L1.9812 38.8239
" />
</g>
<g style="fill:#A90000; fill-opacity:0.0; 
stroke:#A90000; stroke-width:0.1524; stroke-opacity:1; 
stroke-linecap:round; stroke-linejoin:round;">
<text x="3.8862" y="38.5699"
textLength="1.4127" font-size="1.6933" lengthAdjust="spacingAndGlyphs"
text-anchor="middle" opacity="0">9</text>
<g class="stroked-text"><desc>9</desc>
<path d="M3.6443 38.4064
L3.8862 38.4064
" />
<path d="M3.8862 38.4064
L4.0072 38.3460
" />
<path d="M4.0072 38.3460
L4.0676 38.2855
" />
<path d="M4.0676 38.2855
L4.1886 38.1040
" />
<path d="M4.1886 38.1040
L4.2491 37.8621
" />
<path d="M4.2491 37.8621
L4.2491 37.3783
" />
<path d="M4.2491 37.3783
L4.1886 37.2574
" />
<path d="M4.1886 37.2574
L4.1281 37.1969
" />
<path d="M4.1281 37.1969
L4.0072 37.1364
" />
<path d="M4.0072 37.1364
L3.7653 37.1364
" />
<path d="M3.7653 37.1364
L3.6443 37.1969
" />
<path d="M3.6443 37.1969
L3.5838 37.2574
" />
<path d="M3.5838 37.2574
L3.5234 37.3783
" />
<path d="M3.5234 37.3783
L3.5234 37.6807
" />
<path d="M3.5234 37.6807
L3.5838 37.8017
" />
<path d="M3.5838 37.8017
L3.6443 37.8621
" />
<path d="M3.6443 37.8621
L3.7653 37.9226
" />
<path d="M3.7653 37.9226
L4.0072 37.9226
" />
<path d="M4.0072 37.9226
L4.1281 37.8621
" />
<path d="M4.1281 37.8621
L4.1886 37.8017
" />
<path d="M4.1886 37.8017
L4.2491 37.6807
" />
</g></g>
<g style="fill:#840084; fill-opacity:0.0; 
stroke:#840084; stroke-width:0.1524; stroke-opacity:1; 
stroke-linecap:round; stroke-linejoin:round;">
</g>
<g style="fill:#006464; fill-opacity:0.0; 
stroke:#006464; stroke-width:0.1524; stroke-opacity:1; 
stroke-linecap:round; stroke-linejoin:round;">
</g>
<g style="fill:#006464; fill-opacity:0.0; 
stroke:#006464; stroke-width:0.1588; stroke-opacity:1; 
stroke-linecap:round; stroke-linejoin:round;">
<text x="7.0612" y="16.5989"
textLength="2.2786" font-size="1.6933" lengthAdjust="spacingAndGlyphs"
text-anchor="middle" opacity="0">J?</text>
<g class="stroked-text"><desc>J?</desc>
<path d="M6.6983 15.2731
L6.6983 16.1803
" />
<path d="M6.6983 16.1803
L6.6378 16.3617
" />
<path d="M6.6378 16.3617
L6.5169 16.4827
" />
<path d="M6.5169 16.4827
L6.3354 16.5431
" />
<path d="M6.3354 16.5431
L6.2145 16.5431
" />
<path d="M7.4845 16.4222
L7.5449 16.4827
" />
<path d="M7.5449 16.4827
L7.4845 16.5431
" />
<path d="M7.4845 16.5431
L7.4240 16.4827
" />
<path d="M7.4240 16.4827
L7.4845 16.4222
" />
<path d="M7.4845 16.4222
L7.4845 16.5431
" />
<path d="M7.2426 15.3336
L7.3635 15.2731
" />
<path d="M7.3635 15.2731
L7.6659 15.2731
" />
<path d="M7.6659 15.2731
L7.7868 15.3336
" />
<path d="M7.7868 15.3336
L7.8473 15.4546
" />
<path d="M7.8473 15.4546
L7.8473 15.5755
" />
<path d="M7.8473 15.5755
L7.7868 15.6965
" />
<path d="M7.7868 15.6965
L7.7264 15.7569
" />
<path d="M7.7264 15.7569
L7.6054 15.8174
" />
<path d="M7.6054 15.8174
L7.5449 15.8779
" />
<path d="M7.5449 15.8779
L7.4845 15.9988
" />
<path d="M7.4845 15.9988
L7.4845 16.0593
" />
</g><text x="7.0612" y="163.9189"
textLength="11.7731" font-size="1.6933" lengthAdjust="spacingAndGlyphs"
text-anchor="middle" opacity="0">Conn_01x57</text>
<g class="stroked-text"><desc>Conn_01x57</desc>
<path d="M2.3139 163.7422
L2.2535 163.8027
" />
<path d="M2.2535 163.8027
L2.0720 163.8631
" />
<path d="M2.0720 163.8631
L1.9511 163.8631
" />
<path d="M1.9511 163.8631
L1.7697 163.8027
" />
<path d="M1.7697 163.8027
L1.6487 163.6817
" />
<path d="M1.6487 163.6817
L1.5882 163.5607
" />
<path d="M1.5882 163.5607
L1.5278 163.3188
" />
<path d="M1.5278 163.3188
L1.5278 163.1374
" />
<path d="M1.5278 163.1374
L1.5882 162.8955
" />
<path d="M1.5882 162.8955
L1.6487 162.7746
" />
<path d="M1.6487 162.7746
L1.7697 162.6536
" />
<path d="M1.7697 162.6536
L1.9511 162.5931
" />
<path d="M1.9511 162.5931
L2.0720 162.5931
" />
<path d="M2.0720 162.5931
L2.2535 162.6536
" />
<path d="M2.2535 162.6536
L2.3139 162.7141
" />
<path d="M3.0397 163.8631
L2.9187 163.8027
" />
<path d="M2.9187 163.8027
L2.8582 163.7422
" />
<path d="M2.8582 163.7422
L2.7978 163.6212
" />
<path d="M2.7978 163.6212
L2.7978 163.2584
" />
<path d="M2.7978 163.2584
L2.8582 163.1374
" />
<path d="M2.8582 163.1374
L2.9187 163.0769
" />
<path d="M2.9187 163.0769
L3.0397 163.0165
" />
<path d="M3.0397 163.0165
L3.2211 163.0165
" />
<path d="M3.2211 163.0165
L3.3420 163.0769
" />
<path d="M3.3420 163.0769
L3.4025 163.1374
" />
<path d="M3.4025 163.1374
L3.4630 163.2584
" />
<path d="M3.4630 163.2584
L3.4630 163.6212
" />
<path d="M3.4630 163.6212
L3.4025 163.7422
" />
<path d="M3.4025 163.7422
L3.3420 163.8027
" />
<path d="M3.3420 163.8027
L3.2211 163.8631
" />
<path d="M3.2211 163.8631
L3.0397 163.8631
" />
<path d="M4.0072 163.0165
L4.0072 163.8631
" />
<path d="M4.0072 163.1374
L4.0677 163.0769
" />
<path d="M4.0677 163.0769
L4.1887 163.0165
" />
<path d="M4.1887 163.0165
L4.3701 163.0165
" />
<path d="M4.3701 163.0165
L4.4910 163.0769
" />
<path d="M4.4910 163.0769
L4.5515 163.1979
" />
<path d="M4.5515 163.1979
L4.5515 163.8631
" />
<path d="M5.1562 163.0165
L5.1562 163.8631
" />
<path d="M5.1562 163.1374
L5.2167 163.0769
" />
<path d="M5.2167 163.0769
L5.3377 163.0165
" />
<path d="M5.3377 163.0165
L5.5191 163.0165
" />
<path d="M5.5191 163.0165
L5.6400 163.0769
" />
<path d="M5.6400 163.0769
L5.7005 163.1979
" />
<path d="M5.7005 163.1979
L5.7005 163.8631
" />
<path d="M6.0029 163.9841
L6.9705 163.9841
" />
<path d="M7.5147 162.5931
L7.6357 162.5931
" />
<path d="M7.6357 162.5931
L7.7566 162.6536
" />
<path d="M7.7566 162.6536
L7.8171 162.7141
" />
<path d="M7.8171 162.7141
L7.8776 162.8350
" />
<path d="M7.8776 162.8350
L7.9381 163.0769
" />
<path d="M7.9381 163.0769
L7.9381 163.3793
" />
<path d="M7.9381 163.3793
L7.8776 163.6212
" />
<path d="M7.8776 163.6212
L7.8171 163.7422
" />
<path d="M7.8171 163.7422
L7.7566 163.8027
" />
<path d="M7.7566 163.8027
L7.6357 163.8631
" />
<path d="M7.6357 163.8631
L7.5147 163.8631
" />
<path d="M7.5147 163.8631
L7.3938 163.8027
" />
<path d="M7.3938 163.8027
L7.3333 163.7422
" />
<path d="M7.3333 163.7422
L7.2728 163.6212
" />
<path d="M7.2728 163.6212
L7.2124 163.3793
" />
<path d="M7.2124 163.3793
L7.2124 163.0769
" />
<path d="M7.2124 163.0769
L7.2728 162.8350
" />
<path d="M7.2728 162.8350
L7.3333 162.7141
" />
<path d="M7.3333 162.7141
L7.3938 162.6536
" />
<path d="M7.3938 162.6536
L7.5147 162.5931
" />
<path d="M9.1476 163.8631
L8.4219 163.8631
" />
<path d="M8.7847 163.8631
L8.7847 162.5931
" />
<path d="M8.7847 162.5931
L8.6638 162.7746
" />
<path d="M8.6638 162.7746
L8.5428 162.8955
" />
<path d="M8.5428 162.8955
L8.4219 162.9560
" />
<path d="M9.5709 163.8631
L10.2361 163.0165
" />
<path d="M9.5709 163.0165
L10.2361 163.8631
" />
<path d="M11.3247 162.5931
L10.7199 162.5931
" />
<path d="M10.7199 162.5931
L10.6595 163.1979
" />
<path d="M10.6595 163.1979
L10.7199 163.1374
" />
<path d="M10.7199 163.1374
L10.8409 163.0769
" />
<path d="M10.8409 163.0769
L11.1433 163.0769
" />
<path d="M11.1433 163.0769
L11.2642 163.1374
" />
<path d="M11.2642 163.1374
L11.3247 163.1979
" />
<path d="M11.3247 163.1979
L11.3852 163.3188
" />
<path d="M11.3852 163.3188
L11.3852 163.6212
" />
<path d="M11.3852 163.6212
L11.3247 163.7422
" />
<path d="M11.3247 163.7422
L11.2642 163.8027
" />
<path d="M11.2642 163.8027
L11.1433 163.8631
" />
<path d="M11.1433 163.8631
L10.8409 163.8631
" />
<path d="M10.8409 163.8631
L10.7199 163.8027
" />
<path d="M10.7199 163.8027
L10.6595 163.7422
" />
<path d="M11.8085 162.5931
L12.6551 162.5931
" />
<path d="M12.6551 162.5931
L12.1109 163.8631
" />
</g></g> 
</svg>
