<?xml version="1.0" standalone="no"?>
 <!DOCTYPE svg PUBLIC "-//W3C//DTD SVG 1.1//EN" 
 "http://www.w3.org/Graphics/SVG/1.1/DTD/svg11.dtd"> 
<svg
  xmlns:svg="http://www.w3.org/2000/svg"
  xmlns="http://www.w3.org/2000/svg"
  xmlns:xlink="http://www.w3.org/1999/xlink"
  version="1.1"
  width="26.0350mm" height="29.8958mm" viewBox="0.0000 0.0000 26.0350 29.8958">
<title>SVG Image created as conn_02x08_odd_even.svg date 2024/01/16 15:09:08 </title>
  <desc>Image generated by Eeschema-SVG </desc>
<g style="fill:#000000; fill-opacity:1.0000;stroke:#000000; stroke-opacity:1.0000;
stroke-linecap:round; stroke-linejoin:round;"
 transform="translate(0 0) scale(1 1)">
</g>
<g style="fill:#840000; fill-opacity:0.0; 
stroke:#840000; stroke-width:0.0000; stroke-opacity:1; 
stroke-linecap:round; stroke-linejoin:round;">
</g>
<g style="fill:#FFFFC2; fill-opacity:0.0; 
stroke:#FFFFC2; stroke-width:0.0000; stroke-opacity:1; 
stroke-linecap:round; stroke-linejoin:round;">
</g>
<g style="fill:#FFFFC2; fill-opacity:1.0000; 
stroke:#FFFFC2; stroke-width:0.0000; stroke-opacity:1; 
stroke-linecap:round; stroke-linejoin:round;">
<rect x="11.747500" y="6.057900" width="5.080000" height="20.320000" rx="0.000000" />
</g>
<g style="fill:#840084; fill-opacity:1.0000; 
stroke:#840084; stroke-width:0.0000; stroke-opacity:1; 
stroke-linecap:round; stroke-linejoin:round;">
</g>
<g style="fill:#840000; fill-opacity:1.0000; 
stroke:#840000; stroke-width:0.0000; stroke-opacity:1; 
stroke-linecap:round; stroke-linejoin:round;">
</g>
<g style="fill:#840000; fill-opacity:0.0; 
stroke:#840000; stroke-width:0.1524; stroke-opacity:1; 
stroke-linecap:round; stroke-linejoin:round;">
<rect x="11.747500" y="24.980900" width="1.270000" height="0.254000" rx="0.000000" />
<rect x="11.747500" y="22.440900" width="1.270000" height="0.254000" rx="0.000000" />
<rect x="11.747500" y="19.900900" width="1.270000" height="0.254000" rx="0.000000" />
<rect x="11.747500" y="17.360900" width="1.270000" height="0.254000" rx="0.000000" />
<rect x="11.747500" y="14.820900" width="1.270000" height="0.254000" rx="0.000000" />
<rect x="11.747500" y="12.280900" width="1.270000" height="0.254000" rx="0.000000" />
<rect x="11.747500" y="9.740900" width="1.270000" height="0.254000" rx="0.000000" />
<rect x="11.747500" y="7.200900" width="1.270000" height="0.254000" rx="0.000000" />
</g>
<g style="fill:#840000; fill-opacity:0.0; 
stroke:#840000; stroke-width:0.2540; stroke-opacity:1; 
stroke-linecap:round; stroke-linejoin:round;">
<rect x="11.747500" y="6.057900" width="5.080000" height="20.320000" rx="0.000000" />
</g>
<g style="fill:#840000; fill-opacity:0.0; 
stroke:#840000; stroke-width:0.1524; stroke-opacity:1; 
stroke-linecap:round; stroke-linejoin:round;">
<rect x="15.557500" y="24.980900" width="1.270000" height="0.254000" rx="0.000000" />
<rect x="15.557500" y="22.440900" width="1.270000" height="0.254000" rx="0.000000" />
<rect x="15.557500" y="19.900900" width="1.270000" height="0.254000" rx="0.000000" />
<rect x="15.557500" y="17.360900" width="1.270000" height="0.254000" rx="0.000000" />
<rect x="15.557500" y="14.820900" width="1.270000" height="0.254000" rx="0.000000" />
<rect x="15.557500" y="12.280900" width="1.270000" height="0.254000" rx="0.000000" />
<rect x="15.557500" y="9.740900" width="1.270000" height="0.254000" rx="0.000000" />
<rect x="15.557500" y="7.200900" width="1.270000" height="0.254000" rx="0.000000" />
<path d="M11.7475 7.3279
L7.9375 7.3279
" />
</g>
<g style="fill:#A90000; fill-opacity:0.0; 
stroke:#A90000; stroke-width:0.1524; stroke-opacity:1; 
stroke-linecap:round; stroke-linejoin:round;">
<text x="9.8425" y="7.0739"
textLength="1.4127" font-size="1.6933" lengthAdjust="spacingAndGlyphs"
text-anchor="middle" opacity="0">1</text>
<g class="stroked-text"><desc>1</desc>
<path d="M10.2054 6.9104
L9.4797 6.9104
" />
<path d="M9.8425 6.9104
L9.8425 5.6404
" />
<path d="M9.8425 5.6404
L9.7216 5.8219
" />
<path d="M9.7216 5.8219
L9.6006 5.9428
" />
<path d="M9.6006 5.9428
L9.4797 6.0033
" />
</g></g>
<g style="fill:#840000; fill-opacity:0.0; 
stroke:#840000; stroke-width:0.1524; stroke-opacity:1; 
stroke-linecap:round; stroke-linejoin:round;">
<path d="M16.8275 17.4879
L20.6375 17.4879
" />
</g>
<g style="fill:#A90000; fill-opacity:0.0; 
stroke:#A90000; stroke-width:0.1524; stroke-opacity:1; 
stroke-linecap:round; stroke-linejoin:round;">
<text x="18.7325" y="17.2339"
textLength="2.6222" font-size="1.6933" lengthAdjust="spacingAndGlyphs"
text-anchor="middle" opacity="0">10</text>
<g class="stroked-text"><desc>10</desc>
<path d="M18.4906 17.0704
L17.7649 17.0704
" />
<path d="M18.1277 17.0704
L18.1277 15.8004
" />
<path d="M18.1277 15.8004
L18.0068 15.9819
" />
<path d="M18.0068 15.9819
L17.8858 16.1028
" />
<path d="M17.8858 16.1028
L17.7649 16.1633
" />
<path d="M19.2767 15.8004
L19.3977 15.8004
" />
<path d="M19.3977 15.8004
L19.5186 15.8609
" />
<path d="M19.5186 15.8609
L19.5791 15.9214
" />
<path d="M19.5791 15.9214
L19.6396 16.0423
" />
<path d="M19.6396 16.0423
L19.7001 16.2842
" />
<path d="M19.7001 16.2842
L19.7001 16.5866
" />
<path d="M19.7001 16.5866
L19.6396 16.8285
" />
<path d="M19.6396 16.8285
L19.5791 16.9495
" />
<path d="M19.5791 16.9495
L19.5186 17.0100
" />
<path d="M19.5186 17.0100
L19.3977 17.0704
" />
<path d="M19.3977 17.0704
L19.2767 17.0704
" />
<path d="M19.2767 17.0704
L19.1558 17.0100
" />
<path d="M19.1558 17.0100
L19.0953 16.9495
" />
<path d="M19.0953 16.9495
L19.0348 16.8285
" />
<path d="M19.0348 16.8285
L18.9744 16.5866
" />
<path d="M18.9744 16.5866
L18.9744 16.2842
" />
<path d="M18.9744 16.2842
L19.0348 16.0423
" />
<path d="M19.0348 16.0423
L19.0953 15.9214
" />
<path d="M19.0953 15.9214
L19.1558 15.8609
" />
<path d="M19.1558 15.8609
L19.2767 15.8004
" />
</g></g>
<g style="fill:#840000; fill-opacity:0.0; 
stroke:#840000; stroke-width:0.1524; stroke-opacity:1; 
stroke-linecap:round; stroke-linejoin:round;">
<path d="M11.7475 20.0279
L7.9375 20.0279
" />
</g>
<g style="fill:#A90000; fill-opacity:0.0; 
stroke:#A90000; stroke-width:0.1524; stroke-opacity:1; 
stroke-linecap:round; stroke-linejoin:round;">
<text x="9.8425" y="19.7739"
textLength="2.6222" font-size="1.6933" lengthAdjust="spacingAndGlyphs"
text-anchor="middle" opacity="0">11</text>
<g class="stroked-text"><desc>11</desc>
<path d="M9.6006 19.6104
L8.8749 19.6104
" />
<path d="M9.2377 19.6104
L9.2377 18.3404
" />
<path d="M9.2377 18.3404
L9.1168 18.5219
" />
<path d="M9.1168 18.5219
L8.9958 18.6428
" />
<path d="M8.9958 18.6428
L8.8749 18.7033
" />
<path d="M10.8101 19.6104
L10.0844 19.6104
" />
<path d="M10.4472 19.6104
L10.4472 18.3404
" />
<path d="M10.4472 18.3404
L10.3263 18.5219
" />
<path d="M10.3263 18.5219
L10.2053 18.6428
" />
<path d="M10.2053 18.6428
L10.0844 18.7033
" />
</g></g>
<g style="fill:#840000; fill-opacity:0.0; 
stroke:#840000; stroke-width:0.1524; stroke-opacity:1; 
stroke-linecap:round; stroke-linejoin:round;">
<path d="M16.8275 20.0279
L20.6375 20.0279
" />
</g>
<g style="fill:#A90000; fill-opacity:0.0; 
stroke:#A90000; stroke-width:0.1524; stroke-opacity:1; 
stroke-linecap:round; stroke-linejoin:round;">
<text x="18.7325" y="19.7739"
textLength="2.6222" font-size="1.6933" lengthAdjust="spacingAndGlyphs"
text-anchor="middle" opacity="0">12</text>
<g class="stroked-text"><desc>12</desc>
<path d="M18.4906 19.6104
L17.7649 19.6104
" />
<path d="M18.1277 19.6104
L18.1277 18.3404
" />
<path d="M18.1277 18.3404
L18.0068 18.5219
" />
<path d="M18.0068 18.5219
L17.8858 18.6428
" />
<path d="M17.8858 18.6428
L17.7649 18.7033
" />
<path d="M18.9744 18.4614
L19.0348 18.4009
" />
<path d="M19.0348 18.4009
L19.1558 18.3404
" />
<path d="M19.1558 18.3404
L19.4582 18.3404
" />
<path d="M19.4582 18.3404
L19.5791 18.4009
" />
<path d="M19.5791 18.4009
L19.6396 18.4614
" />
<path d="M19.6396 18.4614
L19.7001 18.5823
" />
<path d="M19.7001 18.5823
L19.7001 18.7033
" />
<path d="M19.7001 18.7033
L19.6396 18.8847
" />
<path d="M19.6396 18.8847
L18.9139 19.6104
" />
<path d="M18.9139 19.6104
L19.7001 19.6104
" />
</g></g>
<g style="fill:#840000; fill-opacity:0.0; 
stroke:#840000; stroke-width:0.1524; stroke-opacity:1; 
stroke-linecap:round; stroke-linejoin:round;">
<path d="M11.7475 22.5679
L7.9375 22.5679
" />
</g>
<g style="fill:#A90000; fill-opacity:0.0; 
stroke:#A90000; stroke-width:0.1524; stroke-opacity:1; 
stroke-linecap:round; stroke-linejoin:round;">
<text x="9.8425" y="22.3139"
textLength="2.6222" font-size="1.6933" lengthAdjust="spacingAndGlyphs"
text-anchor="middle" opacity="0">13</text>
<g class="stroked-text"><desc>13</desc>
<path d="M9.6006 22.1504
L8.8749 22.1504
" />
<path d="M9.2377 22.1504
L9.2377 20.8804
" />
<path d="M9.2377 20.8804
L9.1168 21.0619
" />
<path d="M9.1168 21.0619
L8.9958 21.1828
" />
<path d="M8.9958 21.1828
L8.8749 21.2433
" />
<path d="M10.0239 20.8804
L10.8101 20.8804
" />
<path d="M10.8101 20.8804
L10.3867 21.3642
" />
<path d="M10.3867 21.3642
L10.5682 21.3642
" />
<path d="M10.5682 21.3642
L10.6891 21.4247
" />
<path d="M10.6891 21.4247
L10.7496 21.4852
" />
<path d="M10.7496 21.4852
L10.8101 21.6061
" />
<path d="M10.8101 21.6061
L10.8101 21.9085
" />
<path d="M10.8101 21.9085
L10.7496 22.0295
" />
<path d="M10.7496 22.0295
L10.6891 22.0900
" />
<path d="M10.6891 22.0900
L10.5682 22.1504
" />
<path d="M10.5682 22.1504
L10.2053 22.1504
" />
<path d="M10.2053 22.1504
L10.0844 22.0900
" />
<path d="M10.0844 22.0900
L10.0239 22.0295
" />
</g></g>
<g style="fill:#840000; fill-opacity:0.0; 
stroke:#840000; stroke-width:0.1524; stroke-opacity:1; 
stroke-linecap:round; stroke-linejoin:round;">
<path d="M16.8275 22.5679
L20.6375 22.5679
" />
</g>
<g style="fill:#A90000; fill-opacity:0.0; 
stroke:#A90000; stroke-width:0.1524; stroke-opacity:1; 
stroke-linecap:round; stroke-linejoin:round;">
<text x="18.7325" y="22.3139"
textLength="2.6222" font-size="1.6933" lengthAdjust="spacingAndGlyphs"
text-anchor="middle" opacity="0">14</text>
<g class="stroked-text"><desc>14</desc>
<path d="M18.4906 22.1504
L17.7649 22.1504
" />
<path d="M18.1277 22.1504
L18.1277 20.8804
" />
<path d="M18.1277 20.8804
L18.0068 21.0619
" />
<path d="M18.0068 21.0619
L17.8858 21.1828
" />
<path d="M17.8858 21.1828
L17.7649 21.2433
" />
<path d="M19.5791 21.3038
L19.5791 22.1504
" />
<path d="M19.2767 20.8200
L18.9744 21.7271
" />
<path d="M18.9744 21.7271
L19.7605 21.7271
" />
</g></g>
<g style="fill:#840000; fill-opacity:0.0; 
stroke:#840000; stroke-width:0.1524; stroke-opacity:1; 
stroke-linecap:round; stroke-linejoin:round;">
<path d="M11.7475 25.1079
L7.9375 25.1079
" />
</g>
<g style="fill:#A90000; fill-opacity:0.0; 
stroke:#A90000; stroke-width:0.1524; stroke-opacity:1; 
stroke-linecap:round; stroke-linejoin:round;">
<text x="9.8425" y="24.8539"
textLength="2.6222" font-size="1.6933" lengthAdjust="spacingAndGlyphs"
text-anchor="middle" opacity="0">15</text>
<g class="stroked-text"><desc>15</desc>
<path d="M9.6006 24.6904
L8.8749 24.6904
" />
<path d="M9.2377 24.6904
L9.2377 23.4204
" />
<path d="M9.2377 23.4204
L9.1168 23.6019
" />
<path d="M9.1168 23.6019
L8.9958 23.7228
" />
<path d="M8.9958 23.7228
L8.8749 23.7833
" />
<path d="M10.7496 23.4204
L10.1448 23.4204
" />
<path d="M10.1448 23.4204
L10.0844 24.0252
" />
<path d="M10.0844 24.0252
L10.1448 23.9647
" />
<path d="M10.1448 23.9647
L10.2658 23.9042
" />
<path d="M10.2658 23.9042
L10.5682 23.9042
" />
<path d="M10.5682 23.9042
L10.6891 23.9647
" />
<path d="M10.6891 23.9647
L10.7496 24.0252
" />
<path d="M10.7496 24.0252
L10.8101 24.1461
" />
<path d="M10.8101 24.1461
L10.8101 24.4485
" />
<path d="M10.8101 24.4485
L10.7496 24.5695
" />
<path d="M10.7496 24.5695
L10.6891 24.6300
" />
<path d="M10.6891 24.6300
L10.5682 24.6904
" />
<path d="M10.5682 24.6904
L10.2658 24.6904
" />
<path d="M10.2658 24.6904
L10.1448 24.6300
" />
<path d="M10.1448 24.6300
L10.0844 24.5695
" />
</g></g>
<g style="fill:#840000; fill-opacity:0.0; 
stroke:#840000; stroke-width:0.1524; stroke-opacity:1; 
stroke-linecap:round; stroke-linejoin:round;">
<path d="M16.8275 25.1079
L20.6375 25.1079
" />
</g>
<g style="fill:#A90000; fill-opacity:0.0; 
stroke:#A90000; stroke-width:0.1524; stroke-opacity:1; 
stroke-linecap:round; stroke-linejoin:round;">
<text x="18.7325" y="24.8539"
textLength="2.6222" font-size="1.6933" lengthAdjust="spacingAndGlyphs"
text-anchor="middle" opacity="0">16</text>
<g class="stroked-text"><desc>16</desc>
<path d="M18.4906 24.6904
L17.7649 24.6904
" />
<path d="M18.1277 24.6904
L18.1277 23.4204
" />
<path d="M18.1277 23.4204
L18.0068 23.6019
" />
<path d="M18.0068 23.6019
L17.8858 23.7228
" />
<path d="M17.8858 23.7228
L17.7649 23.7833
" />
<path d="M19.5791 23.4204
L19.3372 23.4204
" />
<path d="M19.3372 23.4204
L19.2163 23.4809
" />
<path d="M19.2163 23.4809
L19.1558 23.5414
" />
<path d="M19.1558 23.5414
L19.0348 23.7228
" />
<path d="M19.0348 23.7228
L18.9744 23.9647
" />
<path d="M18.9744 23.9647
L18.9744 24.4485
" />
<path d="M18.9744 24.4485
L19.0348 24.5695
" />
<path d="M19.0348 24.5695
L19.0953 24.6300
" />
<path d="M19.0953 24.6300
L19.2163 24.6904
" />
<path d="M19.2163 24.6904
L19.4582 24.6904
" />
<path d="M19.4582 24.6904
L19.5791 24.6300
" />
<path d="M19.5791 24.6300
L19.6396 24.5695
" />
<path d="M19.6396 24.5695
L19.7001 24.4485
" />
<path d="M19.7001 24.4485
L19.7001 24.1461
" />
<path d="M19.7001 24.1461
L19.6396 24.0252
" />
<path d="M19.6396 24.0252
L19.5791 23.9647
" />
<path d="M19.5791 23.9647
L19.4582 23.9042
" />
<path d="M19.4582 23.9042
L19.2163 23.9042
" />
<path d="M19.2163 23.9042
L19.0953 23.9647
" />
<path d="M19.0953 23.9647
L19.0348 24.0252
" />
<path d="M19.0348 24.0252
L18.9744 24.1461
" />
</g></g>
<g style="fill:#840000; fill-opacity:0.0; 
stroke:#840000; stroke-width:0.1524; stroke-opacity:1; 
stroke-linecap:round; stroke-linejoin:round;">
<path d="M16.8275 7.3279
L20.6375 7.3279
" />
</g>
<g style="fill:#A90000; fill-opacity:0.0; 
stroke:#A90000; stroke-width:0.1524; stroke-opacity:1; 
stroke-linecap:round; stroke-linejoin:round;">
<text x="18.7325" y="7.0739"
textLength="1.4127" font-size="1.6933" lengthAdjust="spacingAndGlyphs"
text-anchor="middle" opacity="0">2</text>
<g class="stroked-text"><desc>2</desc>
<path d="M18.3697 5.7614
L18.4301 5.7009
" />
<path d="M18.4301 5.7009
L18.5511 5.6404
" />
<path d="M18.5511 5.6404
L18.8535 5.6404
" />
<path d="M18.8535 5.6404
L18.9744 5.7009
" />
<path d="M18.9744 5.7009
L19.0349 5.7614
" />
<path d="M19.0349 5.7614
L19.0954 5.8823
" />
<path d="M19.0954 5.8823
L19.0954 6.0033
" />
<path d="M19.0954 6.0033
L19.0349 6.1847
" />
<path d="M19.0349 6.1847
L18.3092 6.9104
" />
<path d="M18.3092 6.9104
L19.0954 6.9104
" />
</g></g>
<g style="fill:#840000; fill-opacity:0.0; 
stroke:#840000; stroke-width:0.1524; stroke-opacity:1; 
stroke-linecap:round; stroke-linejoin:round;">
<path d="M11.7475 9.8679
L7.9375 9.8679
" />
</g>
<g style="fill:#A90000; fill-opacity:0.0; 
stroke:#A90000; stroke-width:0.1524; stroke-opacity:1; 
stroke-linecap:round; stroke-linejoin:round;">
<text x="9.8425" y="9.6139"
textLength="1.4127" font-size="1.6933" lengthAdjust="spacingAndGlyphs"
text-anchor="middle" opacity="0">3</text>
<g class="stroked-text"><desc>3</desc>
<path d="M9.4192 8.1804
L10.2054 8.1804
" />
<path d="M10.2054 8.1804
L9.7820 8.6642
" />
<path d="M9.7820 8.6642
L9.9635 8.6642
" />
<path d="M9.9635 8.6642
L10.0844 8.7247
" />
<path d="M10.0844 8.7247
L10.1449 8.7852
" />
<path d="M10.1449 8.7852
L10.2054 8.9061
" />
<path d="M10.2054 8.9061
L10.2054 9.2085
" />
<path d="M10.2054 9.2085
L10.1449 9.3295
" />
<path d="M10.1449 9.3295
L10.0844 9.3900
" />
<path d="M10.0844 9.3900
L9.9635 9.4504
" />
<path d="M9.9635 9.4504
L9.6006 9.4504
" />
<path d="M9.6006 9.4504
L9.4797 9.3900
" />
<path d="M9.4797 9.3900
L9.4192 9.3295
" />
</g></g>
<g style="fill:#840000; fill-opacity:0.0; 
stroke:#840000; stroke-width:0.1524; stroke-opacity:1; 
stroke-linecap:round; stroke-linejoin:round;">
<path d="M16.8275 9.8679
L20.6375 9.8679
" />
</g>
<g style="fill:#A90000; fill-opacity:0.0; 
stroke:#A90000; stroke-width:0.1524; stroke-opacity:1; 
stroke-linecap:round; stroke-linejoin:round;">
<text x="18.7325" y="9.6139"
textLength="1.4127" font-size="1.6933" lengthAdjust="spacingAndGlyphs"
text-anchor="middle" opacity="0">4</text>
<g class="stroked-text"><desc>4</desc>
<path d="M18.9744 8.6038
L18.9744 9.4504
" />
<path d="M18.6720 8.1200
L18.3697 9.0271
" />
<path d="M18.3697 9.0271
L19.1558 9.0271
" />
</g></g>
<g style="fill:#840000; fill-opacity:0.0; 
stroke:#840000; stroke-width:0.1524; stroke-opacity:1; 
stroke-linecap:round; stroke-linejoin:round;">
<path d="M11.7475 12.4079
L7.9375 12.4079
" />
</g>
<g style="fill:#A90000; fill-opacity:0.0; 
stroke:#A90000; stroke-width:0.1524; stroke-opacity:1; 
stroke-linecap:round; stroke-linejoin:round;">
<text x="9.8425" y="12.1539"
textLength="1.4127" font-size="1.6933" lengthAdjust="spacingAndGlyphs"
text-anchor="middle" opacity="0">5</text>
<g class="stroked-text"><desc>5</desc>
<path d="M10.1449 10.7204
L9.5401 10.7204
" />
<path d="M9.5401 10.7204
L9.4797 11.3252
" />
<path d="M9.4797 11.3252
L9.5401 11.2647
" />
<path d="M9.5401 11.2647
L9.6611 11.2042
" />
<path d="M9.6611 11.2042
L9.9635 11.2042
" />
<path d="M9.9635 11.2042
L10.0844 11.2647
" />
<path d="M10.0844 11.2647
L10.1449 11.3252
" />
<path d="M10.1449 11.3252
L10.2054 11.4461
" />
<path d="M10.2054 11.4461
L10.2054 11.7485
" />
<path d="M10.2054 11.7485
L10.1449 11.8695
" />
<path d="M10.1449 11.8695
L10.0844 11.9300
" />
<path d="M10.0844 11.9300
L9.9635 11.9904
" />
<path d="M9.9635 11.9904
L9.6611 11.9904
" />
<path d="M9.6611 11.9904
L9.5401 11.9300
" />
<path d="M9.5401 11.9300
L9.4797 11.8695
" />
</g></g>
<g style="fill:#840000; fill-opacity:0.0; 
stroke:#840000; stroke-width:0.1524; stroke-opacity:1; 
stroke-linecap:round; stroke-linejoin:round;">
<path d="M16.8275 12.4079
L20.6375 12.4079
" />
</g>
<g style="fill:#A90000; fill-opacity:0.0; 
stroke:#A90000; stroke-width:0.1524; stroke-opacity:1; 
stroke-linecap:round; stroke-linejoin:round;">
<text x="18.7325" y="12.1539"
textLength="1.4127" font-size="1.6933" lengthAdjust="spacingAndGlyphs"
text-anchor="middle" opacity="0">6</text>
<g class="stroked-text"><desc>6</desc>
<path d="M18.9744 10.7204
L18.7325 10.7204
" />
<path d="M18.7325 10.7204
L18.6116 10.7809
" />
<path d="M18.6116 10.7809
L18.5511 10.8414
" />
<path d="M18.5511 10.8414
L18.4301 11.0228
" />
<path d="M18.4301 11.0228
L18.3697 11.2647
" />
<path d="M18.3697 11.2647
L18.3697 11.7485
" />
<path d="M18.3697 11.7485
L18.4301 11.8695
" />
<path d="M18.4301 11.8695
L18.4906 11.9300
" />
<path d="M18.4906 11.9300
L18.6116 11.9904
" />
<path d="M18.6116 11.9904
L18.8535 11.9904
" />
<path d="M18.8535 11.9904
L18.9744 11.9300
" />
<path d="M18.9744 11.9300
L19.0349 11.8695
" />
<path d="M19.0349 11.8695
L19.0954 11.7485
" />
<path d="M19.0954 11.7485
L19.0954 11.4461
" />
<path d="M19.0954 11.4461
L19.0349 11.3252
" />
<path d="M19.0349 11.3252
L18.9744 11.2647
" />
<path d="M18.9744 11.2647
L18.8535 11.2042
" />
<path d="M18.8535 11.2042
L18.6116 11.2042
" />
<path d="M18.6116 11.2042
L18.4906 11.2647
" />
<path d="M18.4906 11.2647
L18.4301 11.3252
" />
<path d="M18.4301 11.3252
L18.3697 11.4461
" />
</g></g>
<g style="fill:#840000; fill-opacity:0.0; 
stroke:#840000; stroke-width:0.1524; stroke-opacity:1; 
stroke-linecap:round; stroke-linejoin:round;">
<path d="M11.7475 14.9479
L7.9375 14.9479
" />
</g>
<g style="fill:#A90000; fill-opacity:0.0; 
stroke:#A90000; stroke-width:0.1524; stroke-opacity:1; 
stroke-linecap:round; stroke-linejoin:round;">
<text x="9.8425" y="14.6939"
textLength="1.4127" font-size="1.6933" lengthAdjust="spacingAndGlyphs"
text-anchor="middle" opacity="0">7</text>
<g class="stroked-text"><desc>7</desc>
<path d="M9.4192 13.2604
L10.2658 13.2604
" />
<path d="M10.2658 13.2604
L9.7216 14.5304
" />
</g></g>
<g style="fill:#840000; fill-opacity:0.0; 
stroke:#840000; stroke-width:0.1524; stroke-opacity:1; 
stroke-linecap:round; stroke-linejoin:round;">
<path d="M16.8275 14.9479
L20.6375 14.9479
" />
</g>
<g style="fill:#A90000; fill-opacity:0.0; 
stroke:#A90000; stroke-width:0.1524; stroke-opacity:1; 
stroke-linecap:round; stroke-linejoin:round;">
<text x="18.7325" y="14.6939"
textLength="1.4127" font-size="1.6933" lengthAdjust="spacingAndGlyphs"
text-anchor="middle" opacity="0">8</text>
<g class="stroked-text"><desc>8</desc>
<path d="M18.6116 13.8047
L18.4906 13.7442
" />
<path d="M18.4906 13.7442
L18.4301 13.6838
" />
<path d="M18.4301 13.6838
L18.3697 13.5628
" />
<path d="M18.3697 13.5628
L18.3697 13.5023
" />
<path d="M18.3697 13.5023
L18.4301 13.3814
" />
<path d="M18.4301 13.3814
L18.4906 13.3209
" />
<path d="M18.4906 13.3209
L18.6116 13.2604
" />
<path d="M18.6116 13.2604
L18.8535 13.2604
" />
<path d="M18.8535 13.2604
L18.9744 13.3209
" />
<path d="M18.9744 13.3209
L19.0349 13.3814
" />
<path d="M19.0349 13.3814
L19.0954 13.5023
" />
<path d="M19.0954 13.5023
L19.0954 13.5628
" />
<path d="M19.0954 13.5628
L19.0349 13.6838
" />
<path d="M19.0349 13.6838
L18.9744 13.7442
" />
<path d="M18.9744 13.7442
L18.8535 13.8047
" />
<path d="M18.8535 13.8047
L18.6116 13.8047
" />
<path d="M18.6116 13.8047
L18.4906 13.8652
" />
<path d="M18.4906 13.8652
L18.4301 13.9257
" />
<path d="M18.4301 13.9257
L18.3697 14.0466
" />
<path d="M18.3697 14.0466
L18.3697 14.2885
" />
<path d="M18.3697 14.2885
L18.4301 14.4095
" />
<path d="M18.4301 14.4095
L18.4906 14.4700
" />
<path d="M18.4906 14.4700
L18.6116 14.5304
" />
<path d="M18.6116 14.5304
L18.8535 14.5304
" />
<path d="M18.8535 14.5304
L18.9744 14.4700
" />
<path d="M18.9744 14.4700
L19.0349 14.4095
" />
<path d="M19.0349 14.4095
L19.0954 14.2885
" />
<path d="M19.0954 14.2885
L19.0954 14.0466
" />
<path d="M19.0954 14.0466
L19.0349 13.9257
" />
<path d="M19.0349 13.9257
L18.9744 13.8652
" />
<path d="M18.9744 13.8652
L18.8535 13.8047
" />
</g></g>
<g style="fill:#840000; fill-opacity:0.0; 
stroke:#840000; stroke-width:0.1524; stroke-opacity:1; 
stroke-linecap:round; stroke-linejoin:round;">
<path d="M11.7475 17.4879
L7.9375 17.4879
" />
</g>
<g style="fill:#A90000; fill-opacity:0.0; 
stroke:#A90000; stroke-width:0.1524; stroke-opacity:1; 
stroke-linecap:round; stroke-linejoin:round;">
<text x="9.8425" y="17.2339"
textLength="1.4127" font-size="1.6933" lengthAdjust="spacingAndGlyphs"
text-anchor="middle" opacity="0">9</text>
<g class="stroked-text"><desc>9</desc>
<path d="M9.6006 17.0704
L9.8425 17.0704
" />
<path d="M9.8425 17.0704
L9.9635 17.0100
" />
<path d="M9.9635 17.0100
L10.0239 16.9495
" />
<path d="M10.0239 16.9495
L10.1449 16.7680
" />
<path d="M10.1449 16.7680
L10.2054 16.5261
" />
<path d="M10.2054 16.5261
L10.2054 16.0423
" />
<path d="M10.2054 16.0423
L10.1449 15.9214
" />
<path d="M10.1449 15.9214
L10.0844 15.8609
" />
<path d="M10.0844 15.8609
L9.9635 15.8004
" />
<path d="M9.9635 15.8004
L9.7216 15.8004
" />
<path d="M9.7216 15.8004
L9.6006 15.8609
" />
<path d="M9.6006 15.8609
L9.5401 15.9214
" />
<path d="M9.5401 15.9214
L9.4797 16.0423
" />
<path d="M9.4797 16.0423
L9.4797 16.3447
" />
<path d="M9.4797 16.3447
L9.5401 16.4657
" />
<path d="M9.5401 16.4657
L9.6006 16.5261
" />
<path d="M9.6006 16.5261
L9.7216 16.5866
" />
<path d="M9.7216 16.5866
L9.9635 16.5866
" />
<path d="M9.9635 16.5866
L10.0844 16.5261
" />
<path d="M10.0844 16.5261
L10.1449 16.4657
" />
<path d="M10.1449 16.4657
L10.2054 16.3447
" />
</g></g>
<g style="fill:#840084; fill-opacity:0.0; 
stroke:#840084; stroke-width:0.1524; stroke-opacity:1; 
stroke-linecap:round; stroke-linejoin:round;">
</g>
<g style="fill:#006464; fill-opacity:0.0; 
stroke:#006464; stroke-width:0.1524; stroke-opacity:1; 
stroke-linecap:round; stroke-linejoin:round;">
</g>
<g style="fill:#006464; fill-opacity:0.0; 
stroke:#006464; stroke-width:0.1588; stroke-opacity:1; 
stroke-linecap:round; stroke-linejoin:round;">
<text x="14.2875" y="5.4229"
textLength="2.2786" font-size="1.6933" lengthAdjust="spacingAndGlyphs"
text-anchor="middle" opacity="0">J?</text>
<g class="stroked-text"><desc>J?</desc>
<path d="M13.9246 4.0971
L13.9246 5.0043
" />
<path d="M13.9246 5.0043
L13.8641 5.1857
" />
<path d="M13.8641 5.1857
L13.7432 5.3067
" />
<path d="M13.7432 5.3067
L13.5617 5.3671
" />
<path d="M13.5617 5.3671
L13.4408 5.3671
" />
<path d="M14.7108 5.2462
L14.7712 5.3067
" />
<path d="M14.7712 5.3067
L14.7108 5.3671
" />
<path d="M14.7108 5.3671
L14.6503 5.3067
" />
<path d="M14.6503 5.3067
L14.7108 5.2462
" />
<path d="M14.7108 5.2462
L14.7108 5.3671
" />
<path d="M14.4689 4.1576
L14.5898 4.0971
" />
<path d="M14.5898 4.0971
L14.8922 4.0971
" />
<path d="M14.8922 4.0971
L15.0131 4.1576
" />
<path d="M15.0131 4.1576
L15.0736 4.2786
" />
<path d="M15.0736 4.2786
L15.0736 4.3995
" />
<path d="M15.0736 4.3995
L15.0131 4.5205
" />
<path d="M15.0131 4.5205
L14.9527 4.5809
" />
<path d="M14.9527 4.5809
L14.8317 4.6414
" />
<path d="M14.8317 4.6414
L14.7712 4.7019
" />
<path d="M14.7712 4.7019
L14.7108 4.8228
" />
<path d="M14.7108 4.8228
L14.7108 4.8833
" />
</g><text x="14.2875" y="28.2829"
textLength="21.6910" font-size="1.6933" lengthAdjust="spacingAndGlyphs"
text-anchor="middle" opacity="0">Conn_02x08_Odd_Even</text>
<g class="stroked-text"><desc>Conn_02x08_Odd_Even</desc>
<path d="M4.5812 28.1062
L4.5208 28.1667
" />
<path d="M4.5208 28.1667
L4.3393 28.2271
" />
<path d="M4.3393 28.2271
L4.2184 28.2271
" />
<path d="M4.2184 28.2271
L4.0370 28.1667
" />
<path d="M4.0370 28.1667
L3.9160 28.0457
" />
<path d="M3.9160 28.0457
L3.8555 27.9247
" />
<path d="M3.8555 27.9247
L3.7951 27.6828
" />
<path d="M3.7951 27.6828
L3.7951 27.5014
" />
<path d="M3.7951 27.5014
L3.8555 27.2595
" />
<path d="M3.8555 27.2595
L3.9160 27.1386
" />
<path d="M3.9160 27.1386
L4.0370 27.0176
" />
<path d="M4.0370 27.0176
L4.2184 26.9571
" />
<path d="M4.2184 26.9571
L4.3393 26.9571
" />
<path d="M4.3393 26.9571
L4.5208 27.0176
" />
<path d="M4.5208 27.0176
L4.5812 27.0781
" />
<path d="M5.3070 28.2271
L5.1860 28.1667
" />
<path d="M5.1860 28.1667
L5.1255 28.1062
" />
<path d="M5.1255 28.1062
L5.0651 27.9852
" />
<path d="M5.0651 27.9852
L5.0651 27.6224
" />
<path d="M5.0651 27.6224
L5.1255 27.5014
" />
<path d="M5.1255 27.5014
L5.1860 27.4409
" />
<path d="M5.1860 27.4409
L5.3070 27.3805
" />
<path d="M5.3070 27.3805
L5.4884 27.3805
" />
<path d="M5.4884 27.3805
L5.6093 27.4409
" />
<path d="M5.6093 27.4409
L5.6698 27.5014
" />
<path d="M5.6698 27.5014
L5.7303 27.6224
" />
<path d="M5.7303 27.6224
L5.7303 27.9852
" />
<path d="M5.7303 27.9852
L5.6698 28.1062
" />
<path d="M5.6698 28.1062
L5.6093 28.1667
" />
<path d="M5.6093 28.1667
L5.4884 28.2271
" />
<path d="M5.4884 28.2271
L5.3070 28.2271
" />
<path d="M6.2745 27.3805
L6.2745 28.2271
" />
<path d="M6.2745 27.5014
L6.3350 27.4409
" />
<path d="M6.3350 27.4409
L6.4560 27.3805
" />
<path d="M6.4560 27.3805
L6.6374 27.3805
" />
<path d="M6.6374 27.3805
L6.7583 27.4409
" />
<path d="M6.7583 27.4409
L6.8188 27.5619
" />
<path d="M6.8188 27.5619
L6.8188 28.2271
" />
<path d="M7.4235 27.3805
L7.4235 28.2271
" />
<path d="M7.4235 27.5014
L7.4840 27.4409
" />
<path d="M7.4840 27.4409
L7.6050 27.3805
" />
<path d="M7.6050 27.3805
L7.7864 27.3805
" />
<path d="M7.7864 27.3805
L7.9073 27.4409
" />
<path d="M7.9073 27.4409
L7.9678 27.5619
" />
<path d="M7.9678 27.5619
L7.9678 28.2271
" />
<path d="M8.2702 28.3481
L9.2378 28.3481
" />
<path d="M9.7820 26.9571
L9.9030 26.9571
" />
<path d="M9.9030 26.9571
L10.0239 27.0176
" />
<path d="M10.0239 27.0176
L10.0844 27.0781
" />
<path d="M10.0844 27.0781
L10.1449 27.1990
" />
<path d="M10.1449 27.1990
L10.2054 27.4409
" />
<path d="M10.2054 27.4409
L10.2054 27.7433
" />
<path d="M10.2054 27.7433
L10.1449 27.9852
" />
<path d="M10.1449 27.9852
L10.0844 28.1062
" />
<path d="M10.0844 28.1062
L10.0239 28.1667
" />
<path d="M10.0239 28.1667
L9.9030 28.2271
" />
<path d="M9.9030 28.2271
L9.7820 28.2271
" />
<path d="M9.7820 28.2271
L9.6611 28.1667
" />
<path d="M9.6611 28.1667
L9.6006 28.1062
" />
<path d="M9.6006 28.1062
L9.5401 27.9852
" />
<path d="M9.5401 27.9852
L9.4797 27.7433
" />
<path d="M9.4797 27.7433
L9.4797 27.4409
" />
<path d="M9.4797 27.4409
L9.5401 27.1990
" />
<path d="M9.5401 27.1990
L9.6006 27.0781
" />
<path d="M9.6006 27.0781
L9.6611 27.0176
" />
<path d="M9.6611 27.0176
L9.7820 26.9571
" />
<path d="M10.6892 27.0781
L10.7496 27.0176
" />
<path d="M10.7496 27.0176
L10.8706 26.9571
" />
<path d="M10.8706 26.9571
L11.1730 26.9571
" />
<path d="M11.1730 26.9571
L11.2939 27.0176
" />
<path d="M11.2939 27.0176
L11.3544 27.0781
" />
<path d="M11.3544 27.0781
L11.4149 27.1990
" />
<path d="M11.4149 27.1990
L11.4149 27.3200
" />
<path d="M11.4149 27.3200
L11.3544 27.5014
" />
<path d="M11.3544 27.5014
L10.6287 28.2271
" />
<path d="M10.6287 28.2271
L11.4149 28.2271
" />
<path d="M11.8382 28.2271
L12.5034 27.3805
" />
<path d="M11.8382 27.3805
L12.5034 28.2271
" />
<path d="M13.2291 26.9571
L13.3501 26.9571
" />
<path d="M13.3501 26.9571
L13.4710 27.0176
" />
<path d="M13.4710 27.0176
L13.5315 27.0781
" />
<path d="M13.5315 27.0781
L13.5920 27.1990
" />
<path d="M13.5920 27.1990
L13.6525 27.4409
" />
<path d="M13.6525 27.4409
L13.6525 27.7433
" />
<path d="M13.6525 27.7433
L13.5920 27.9852
" />
<path d="M13.5920 27.9852
L13.5315 28.1062
" />
<path d="M13.5315 28.1062
L13.4710 28.1667
" />
<path d="M13.4710 28.1667
L13.3501 28.2271
" />
<path d="M13.3501 28.2271
L13.2291 28.2271
" />
<path d="M13.2291 28.2271
L13.1082 28.1667
" />
<path d="M13.1082 28.1667
L13.0477 28.1062
" />
<path d="M13.0477 28.1062
L12.9872 27.9852
" />
<path d="M12.9872 27.9852
L12.9268 27.7433
" />
<path d="M12.9268 27.7433
L12.9268 27.4409
" />
<path d="M12.9268 27.4409
L12.9872 27.1990
" />
<path d="M12.9872 27.1990
L13.0477 27.0781
" />
<path d="M13.0477 27.0781
L13.1082 27.0176
" />
<path d="M13.1082 27.0176
L13.2291 26.9571
" />
<path d="M14.3782 27.5014
L14.2572 27.4409
" />
<path d="M14.2572 27.4409
L14.1967 27.3805
" />
<path d="M14.1967 27.3805
L14.1363 27.2595
" />
<path d="M14.1363 27.2595
L14.1363 27.1990
" />
<path d="M14.1363 27.1990
L14.1967 27.0781
" />
<path d="M14.1967 27.0781
L14.2572 27.0176
" />
<path d="M14.2572 27.0176
L14.3782 26.9571
" />
<path d="M14.3782 26.9571
L14.6201 26.9571
" />
<path d="M14.6201 26.9571
L14.7410 27.0176
" />
<path d="M14.7410 27.0176
L14.8015 27.0781
" />
<path d="M14.8015 27.0781
L14.8620 27.1990
" />
<path d="M14.8620 27.1990
L14.8620 27.2595
" />
<path d="M14.8620 27.2595
L14.8015 27.3805
" />
<path d="M14.8015 27.3805
L14.7410 27.4409
" />
<path d="M14.7410 27.4409
L14.6201 27.5014
" />
<path d="M14.6201 27.5014
L14.3782 27.5014
" />
<path d="M14.3782 27.5014
L14.2572 27.5619
" />
<path d="M14.2572 27.5619
L14.1967 27.6224
" />
<path d="M14.1967 27.6224
L14.1363 27.7433
" />
<path d="M14.1363 27.7433
L14.1363 27.9852
" />
<path d="M14.1363 27.9852
L14.1967 28.1062
" />
<path d="M14.1967 28.1062
L14.2572 28.1667
" />
<path d="M14.2572 28.1667
L14.3782 28.2271
" />
<path d="M14.3782 28.2271
L14.6201 28.2271
" />
<path d="M14.6201 28.2271
L14.7410 28.1667
" />
<path d="M14.7410 28.1667
L14.8015 28.1062
" />
<path d="M14.8015 28.1062
L14.8620 27.9852
" />
<path d="M14.8620 27.9852
L14.8620 27.7433
" />
<path d="M14.8620 27.7433
L14.8015 27.6224
" />
<path d="M14.8015 27.6224
L14.7410 27.5619
" />
<path d="M14.7410 27.5619
L14.6201 27.5014
" />
<path d="M15.1039 28.3481
L16.0715 28.3481
" />
<path d="M16.6157 26.9571
L16.8576 26.9571
" />
<path d="M16.8576 26.9571
L16.9786 27.0176
" />
<path d="M16.9786 27.0176
L17.0995 27.1386
" />
<path d="M17.0995 27.1386
L17.1600 27.3805
" />
<path d="M17.1600 27.3805
L17.1600 27.8038
" />
<path d="M17.1600 27.8038
L17.0995 28.0457
" />
<path d="M17.0995 28.0457
L16.9786 28.1667
" />
<path d="M16.9786 28.1667
L16.8576 28.2271
" />
<path d="M16.8576 28.2271
L16.6157 28.2271
" />
<path d="M16.6157 28.2271
L16.4948 28.1667
" />
<path d="M16.4948 28.1667
L16.3738 28.0457
" />
<path d="M16.3738 28.0457
L16.3134 27.8038
" />
<path d="M16.3134 27.8038
L16.3134 27.3805
" />
<path d="M16.3134 27.3805
L16.3738 27.1386
" />
<path d="M16.3738 27.1386
L16.4948 27.0176
" />
<path d="M16.4948 27.0176
L16.6157 26.9571
" />
<path d="M18.2486 28.2271
L18.2486 26.9571
" />
<path d="M18.2486 28.1667
L18.1277 28.2271
" />
<path d="M18.1277 28.2271
L17.8858 28.2271
" />
<path d="M17.8858 28.2271
L17.7648 28.1667
" />
<path d="M17.7648 28.1667
L17.7043 28.1062
" />
<path d="M17.7043 28.1062
L17.6439 27.9852
" />
<path d="M17.6439 27.9852
L17.6439 27.6224
" />
<path d="M17.6439 27.6224
L17.7043 27.5014
" />
<path d="M17.7043 27.5014
L17.7648 27.4409
" />
<path d="M17.7648 27.4409
L17.8858 27.3805
" />
<path d="M17.8858 27.3805
L18.1277 27.3805
" />
<path d="M18.1277 27.3805
L18.2486 27.4409
" />
<path d="M19.3976 28.2271
L19.3976 26.9571
" />
<path d="M19.3976 28.1667
L19.2767 28.2271
" />
<path d="M19.2767 28.2271
L19.0348 28.2271
" />
<path d="M19.0348 28.2271
L18.9138 28.1667
" />
<path d="M18.9138 28.1667
L18.8533 28.1062
" />
<path d="M18.8533 28.1062
L18.7929 27.9852
" />
<path d="M18.7929 27.9852
L18.7929 27.6224
" />
<path d="M18.7929 27.6224
L18.8533 27.5014
" />
<path d="M18.8533 27.5014
L18.9138 27.4409
" />
<path d="M18.9138 27.4409
L19.0348 27.3805
" />
<path d="M19.0348 27.3805
L19.2767 27.3805
" />
<path d="M19.2767 27.3805
L19.3976 27.4409
" />
<path d="M19.7000 28.3481
L20.6676 28.3481
" />
<path d="M20.9699 27.5619
L21.3933 27.5619
" />
<path d="M21.5747 28.2271
L20.9699 28.2271
" />
<path d="M20.9699 28.2271
L20.9699 26.9571
" />
<path d="M20.9699 26.9571
L21.5747 26.9571
" />
<path d="M21.9980 27.3805
L22.3004 28.2271
" />
<path d="M22.3004 28.2271
L22.6027 27.3805
" />
<path d="M23.5703 28.1667
L23.4494 28.2271
" />
<path d="M23.4494 28.2271
L23.2075 28.2271
" />
<path d="M23.2075 28.2271
L23.0865 28.1667
" />
<path d="M23.0865 28.1667
L23.0261 28.0457
" />
<path d="M23.0261 28.0457
L23.0261 27.5619
" />
<path d="M23.0261 27.5619
L23.0865 27.4409
" />
<path d="M23.0865 27.4409
L23.2075 27.3805
" />
<path d="M23.2075 27.3805
L23.4494 27.3805
" />
<path d="M23.4494 27.3805
L23.5703 27.4409
" />
<path d="M23.5703 27.4409
L23.6308 27.5619
" />
<path d="M23.6308 27.5619
L23.6308 27.6828
" />
<path d="M23.6308 27.6828
L23.0261 27.8038
" />
<path d="M24.1751 27.3805
L24.1751 28.2271
" />
<path d="M24.1751 27.5014
L24.2356 27.4409
" />
<path d="M24.2356 27.4409
L24.3566 27.3805
" />
<path d="M24.3566 27.3805
L24.5380 27.3805
" />
<path d="M24.5380 27.3805
L24.6589 27.4409
" />
<path d="M24.6589 27.4409
L24.7194 27.5619
" />
<path d="M24.7194 27.5619
L24.7194 28.2271
" />
</g></g> 
</svg>
