<?xml version="1.0" standalone="no"?>
 <!DOCTYPE svg PUBLIC "-//W3C//DTD SVG 1.1//EN" 
 "http://www.w3.org/Graphics/SVG/1.1/DTD/svg11.dtd"> 
<svg
  xmlns:svg="http://www.w3.org/2000/svg"
  xmlns="http://www.w3.org/2000/svg"
  xmlns:xlink="http://www.w3.org/1999/xlink"
  version="1.1"
  width="14.1224mm" height="84.7598mm" viewBox="0.0000 0.0000 14.1224 84.7598">
<title>SVG Image created as conn_01x26.svg date 2024/01/16 15:09:08 </title>
  <desc>Image generated by Eeschema-SVG </desc>
<g style="fill:#000000; fill-opacity:1.0000;stroke:#000000; stroke-opacity:1.0000;
stroke-linecap:round; stroke-linejoin:round;"
 transform="translate(0 0) scale(1 1)">
</g>
<g style="fill:#840000; fill-opacity:0.0; 
stroke:#840000; stroke-width:0.0000; stroke-opacity:1; 
stroke-linecap:round; stroke-linejoin:round;">
</g>
<g style="fill:#FFFFC2; fill-opacity:0.0; 
stroke:#FFFFC2; stroke-width:0.0000; stroke-opacity:1; 
stroke-linecap:round; stroke-linejoin:round;">
</g>
<g style="fill:#FFFFC2; fill-opacity:1.0000; 
stroke:#FFFFC2; stroke-width:0.0000; stroke-opacity:1; 
stroke-linecap:round; stroke-linejoin:round;">
<rect x="5.791200" y="10.629900" width="2.540000" height="66.040000" rx="0.000000" />
</g>
<g style="fill:#840084; fill-opacity:1.0000; 
stroke:#840084; stroke-width:0.0000; stroke-opacity:1; 
stroke-linecap:round; stroke-linejoin:round;">
</g>
<g style="fill:#840000; fill-opacity:1.0000; 
stroke:#840000; stroke-width:0.0000; stroke-opacity:1; 
stroke-linecap:round; stroke-linejoin:round;">
</g>
<g style="fill:#840000; fill-opacity:0.0; 
stroke:#840000; stroke-width:0.1524; stroke-opacity:1; 
stroke-linecap:round; stroke-linejoin:round;">
<rect x="5.791200" y="75.272900" width="1.270000" height="0.254000" rx="0.000000" />
<rect x="5.791200" y="72.732900" width="1.270000" height="0.254000" rx="0.000000" />
<rect x="5.791200" y="70.192900" width="1.270000" height="0.254000" rx="0.000000" />
<rect x="5.791200" y="67.652900" width="1.270000" height="0.254000" rx="0.000000" />
<rect x="5.791200" y="65.112900" width="1.270000" height="0.254000" rx="0.000000" />
<rect x="5.791200" y="62.572900" width="1.270000" height="0.254000" rx="0.000000" />
<rect x="5.791200" y="60.032900" width="1.270000" height="0.254000" rx="0.000000" />
<rect x="5.791200" y="57.492900" width="1.270000" height="0.254000" rx="0.000000" />
<rect x="5.791200" y="54.952900" width="1.270000" height="0.254000" rx="0.000000" />
<rect x="5.791200" y="52.412900" width="1.270000" height="0.254000" rx="0.000000" />
<rect x="5.791200" y="49.872900" width="1.270000" height="0.254000" rx="0.000000" />
<rect x="5.791200" y="47.332900" width="1.270000" height="0.254000" rx="0.000000" />
<rect x="5.791200" y="44.792900" width="1.270000" height="0.254000" rx="0.000000" />
<rect x="5.791200" y="42.252900" width="1.270000" height="0.254000" rx="0.000000" />
<rect x="5.791200" y="39.712900" width="1.270000" height="0.254000" rx="0.000000" />
<rect x="5.791200" y="37.172900" width="1.270000" height="0.254000" rx="0.000000" />
<rect x="5.791200" y="34.632900" width="1.270000" height="0.254000" rx="0.000000" />
<rect x="5.791200" y="32.092900" width="1.270000" height="0.254000" rx="0.000000" />
<rect x="5.791200" y="29.552900" width="1.270000" height="0.254000" rx="0.000000" />
<rect x="5.791200" y="27.012900" width="1.270000" height="0.254000" rx="0.000000" />
<rect x="5.791200" y="24.472900" width="1.270000" height="0.254000" rx="0.000000" />
<rect x="5.791200" y="21.932900" width="1.270000" height="0.254000" rx="0.000000" />
<rect x="5.791200" y="19.392900" width="1.270000" height="0.254000" rx="0.000000" />
<rect x="5.791200" y="16.852900" width="1.270000" height="0.254000" rx="0.000000" />
<rect x="5.791200" y="14.312900" width="1.270000" height="0.254000" rx="0.000000" />
<rect x="5.791200" y="11.772900" width="1.270000" height="0.254000" rx="0.000000" />
</g>
<g style="fill:#840000; fill-opacity:0.0; 
stroke:#840000; stroke-width:0.2540; stroke-opacity:1; 
stroke-linecap:round; stroke-linejoin:round;">
<rect x="5.791200" y="10.629900" width="2.540000" height="66.040000" rx="0.000000" />
</g>
<g style="fill:#840000; fill-opacity:0.0; 
stroke:#840000; stroke-width:0.1524; stroke-opacity:1; 
stroke-linecap:round; stroke-linejoin:round;">
<path d="M5.7912 11.8999
L1.9812 11.8999
" />
</g>
<g style="fill:#A90000; fill-opacity:0.0; 
stroke:#A90000; stroke-width:0.1524; stroke-opacity:1; 
stroke-linecap:round; stroke-linejoin:round;">
<text x="3.8862" y="11.6459"
textLength="1.4127" font-size="1.6933" lengthAdjust="spacingAndGlyphs"
text-anchor="middle" opacity="0">1</text>
<g class="stroked-text"><desc>1</desc>
<path d="M4.2491 11.4824
L3.5234 11.4824
" />
<path d="M3.8862 11.4824
L3.8862 10.2124
" />
<path d="M3.8862 10.2124
L3.7653 10.3939
" />
<path d="M3.7653 10.3939
L3.6443 10.5148
" />
<path d="M3.6443 10.5148
L3.5234 10.5753
" />
</g></g>
<g style="fill:#840000; fill-opacity:0.0; 
stroke:#840000; stroke-width:0.1524; stroke-opacity:1; 
stroke-linecap:round; stroke-linejoin:round;">
<path d="M5.7912 34.7599
L1.9812 34.7599
" />
</g>
<g style="fill:#A90000; fill-opacity:0.0; 
stroke:#A90000; stroke-width:0.1524; stroke-opacity:1; 
stroke-linecap:round; stroke-linejoin:round;">
<text x="3.8862" y="34.5059"
textLength="2.6222" font-size="1.6933" lengthAdjust="spacingAndGlyphs"
text-anchor="middle" opacity="0">10</text>
<g class="stroked-text"><desc>10</desc>
<path d="M3.6443 34.3424
L2.9186 34.3424
" />
<path d="M3.2814 34.3424
L3.2814 33.0724
" />
<path d="M3.2814 33.0724
L3.1605 33.2539
" />
<path d="M3.1605 33.2539
L3.0395 33.3748
" />
<path d="M3.0395 33.3748
L2.9186 33.4353
" />
<path d="M4.4304 33.0724
L4.5514 33.0724
" />
<path d="M4.5514 33.0724
L4.6723 33.1329
" />
<path d="M4.6723 33.1329
L4.7328 33.1934
" />
<path d="M4.7328 33.1934
L4.7933 33.3143
" />
<path d="M4.7933 33.3143
L4.8538 33.5562
" />
<path d="M4.8538 33.5562
L4.8538 33.8586
" />
<path d="M4.8538 33.8586
L4.7933 34.1005
" />
<path d="M4.7933 34.1005
L4.7328 34.2215
" />
<path d="M4.7328 34.2215
L4.6723 34.2820
" />
<path d="M4.6723 34.2820
L4.5514 34.3424
" />
<path d="M4.5514 34.3424
L4.4304 34.3424
" />
<path d="M4.4304 34.3424
L4.3095 34.2820
" />
<path d="M4.3095 34.2820
L4.2490 34.2215
" />
<path d="M4.2490 34.2215
L4.1885 34.1005
" />
<path d="M4.1885 34.1005
L4.1281 33.8586
" />
<path d="M4.1281 33.8586
L4.1281 33.5562
" />
<path d="M4.1281 33.5562
L4.1885 33.3143
" />
<path d="M4.1885 33.3143
L4.2490 33.1934
" />
<path d="M4.2490 33.1934
L4.3095 33.1329
" />
<path d="M4.3095 33.1329
L4.4304 33.0724
" />
</g></g>
<g style="fill:#840000; fill-opacity:0.0; 
stroke:#840000; stroke-width:0.1524; stroke-opacity:1; 
stroke-linecap:round; stroke-linejoin:round;">
<path d="M5.7912 37.2999
L1.9812 37.2999
" />
</g>
<g style="fill:#A90000; fill-opacity:0.0; 
stroke:#A90000; stroke-width:0.1524; stroke-opacity:1; 
stroke-linecap:round; stroke-linejoin:round;">
<text x="3.8862" y="37.0459"
textLength="2.6222" font-size="1.6933" lengthAdjust="spacingAndGlyphs"
text-anchor="middle" opacity="0">11</text>
<g class="stroked-text"><desc>11</desc>
<path d="M3.6443 36.8824
L2.9186 36.8824
" />
<path d="M3.2814 36.8824
L3.2814 35.6124
" />
<path d="M3.2814 35.6124
L3.1605 35.7939
" />
<path d="M3.1605 35.7939
L3.0395 35.9148
" />
<path d="M3.0395 35.9148
L2.9186 35.9753
" />
<path d="M4.8538 36.8824
L4.1281 36.8824
" />
<path d="M4.4909 36.8824
L4.4909 35.6124
" />
<path d="M4.4909 35.6124
L4.3700 35.7939
" />
<path d="M4.3700 35.7939
L4.2490 35.9148
" />
<path d="M4.2490 35.9148
L4.1281 35.9753
" />
</g></g>
<g style="fill:#840000; fill-opacity:0.0; 
stroke:#840000; stroke-width:0.1524; stroke-opacity:1; 
stroke-linecap:round; stroke-linejoin:round;">
<path d="M5.7912 39.8399
L1.9812 39.8399
" />
</g>
<g style="fill:#A90000; fill-opacity:0.0; 
stroke:#A90000; stroke-width:0.1524; stroke-opacity:1; 
stroke-linecap:round; stroke-linejoin:round;">
<text x="3.8862" y="39.5859"
textLength="2.6222" font-size="1.6933" lengthAdjust="spacingAndGlyphs"
text-anchor="middle" opacity="0">12</text>
<g class="stroked-text"><desc>12</desc>
<path d="M3.6443 39.4224
L2.9186 39.4224
" />
<path d="M3.2814 39.4224
L3.2814 38.1524
" />
<path d="M3.2814 38.1524
L3.1605 38.3339
" />
<path d="M3.1605 38.3339
L3.0395 38.4548
" />
<path d="M3.0395 38.4548
L2.9186 38.5153
" />
<path d="M4.1281 38.2734
L4.1885 38.2129
" />
<path d="M4.1885 38.2129
L4.3095 38.1524
" />
<path d="M4.3095 38.1524
L4.6119 38.1524
" />
<path d="M4.6119 38.1524
L4.7328 38.2129
" />
<path d="M4.7328 38.2129
L4.7933 38.2734
" />
<path d="M4.7933 38.2734
L4.8538 38.3943
" />
<path d="M4.8538 38.3943
L4.8538 38.5153
" />
<path d="M4.8538 38.5153
L4.7933 38.6967
" />
<path d="M4.7933 38.6967
L4.0676 39.4224
" />
<path d="M4.0676 39.4224
L4.8538 39.4224
" />
</g></g>
<g style="fill:#840000; fill-opacity:0.0; 
stroke:#840000; stroke-width:0.1524; stroke-opacity:1; 
stroke-linecap:round; stroke-linejoin:round;">
<path d="M5.7912 42.3799
L1.9812 42.3799
" />
</g>
<g style="fill:#A90000; fill-opacity:0.0; 
stroke:#A90000; stroke-width:0.1524; stroke-opacity:1; 
stroke-linecap:round; stroke-linejoin:round;">
<text x="3.8862" y="42.1259"
textLength="2.6222" font-size="1.6933" lengthAdjust="spacingAndGlyphs"
text-anchor="middle" opacity="0">13</text>
<g class="stroked-text"><desc>13</desc>
<path d="M3.6443 41.9624
L2.9186 41.9624
" />
<path d="M3.2814 41.9624
L3.2814 40.6924
" />
<path d="M3.2814 40.6924
L3.1605 40.8739
" />
<path d="M3.1605 40.8739
L3.0395 40.9948
" />
<path d="M3.0395 40.9948
L2.9186 41.0553
" />
<path d="M4.0676 40.6924
L4.8538 40.6924
" />
<path d="M4.8538 40.6924
L4.4304 41.1762
" />
<path d="M4.4304 41.1762
L4.6119 41.1762
" />
<path d="M4.6119 41.1762
L4.7328 41.2367
" />
<path d="M4.7328 41.2367
L4.7933 41.2972
" />
<path d="M4.7933 41.2972
L4.8538 41.4181
" />
<path d="M4.8538 41.4181
L4.8538 41.7205
" />
<path d="M4.8538 41.7205
L4.7933 41.8415
" />
<path d="M4.7933 41.8415
L4.7328 41.9020
" />
<path d="M4.7328 41.9020
L4.6119 41.9624
" />
<path d="M4.6119 41.9624
L4.2490 41.9624
" />
<path d="M4.2490 41.9624
L4.1281 41.9020
" />
<path d="M4.1281 41.9020
L4.0676 41.8415
" />
</g></g>
<g style="fill:#840000; fill-opacity:0.0; 
stroke:#840000; stroke-width:0.1524; stroke-opacity:1; 
stroke-linecap:round; stroke-linejoin:round;">
<path d="M5.7912 44.9199
L1.9812 44.9199
" />
</g>
<g style="fill:#A90000; fill-opacity:0.0; 
stroke:#A90000; stroke-width:0.1524; stroke-opacity:1; 
stroke-linecap:round; stroke-linejoin:round;">
<text x="3.8862" y="44.6659"
textLength="2.6222" font-size="1.6933" lengthAdjust="spacingAndGlyphs"
text-anchor="middle" opacity="0">14</text>
<g class="stroked-text"><desc>14</desc>
<path d="M3.6443 44.5024
L2.9186 44.5024
" />
<path d="M3.2814 44.5024
L3.2814 43.2324
" />
<path d="M3.2814 43.2324
L3.1605 43.4139
" />
<path d="M3.1605 43.4139
L3.0395 43.5348
" />
<path d="M3.0395 43.5348
L2.9186 43.5953
" />
<path d="M4.7328 43.6558
L4.7328 44.5024
" />
<path d="M4.4304 43.1720
L4.1281 44.0791
" />
<path d="M4.1281 44.0791
L4.9142 44.0791
" />
</g></g>
<g style="fill:#840000; fill-opacity:0.0; 
stroke:#840000; stroke-width:0.1524; stroke-opacity:1; 
stroke-linecap:round; stroke-linejoin:round;">
<path d="M5.7912 47.4599
L1.9812 47.4599
" />
</g>
<g style="fill:#A90000; fill-opacity:0.0; 
stroke:#A90000; stroke-width:0.1524; stroke-opacity:1; 
stroke-linecap:round; stroke-linejoin:round;">
<text x="3.8862" y="47.2059"
textLength="2.6222" font-size="1.6933" lengthAdjust="spacingAndGlyphs"
text-anchor="middle" opacity="0">15</text>
<g class="stroked-text"><desc>15</desc>
<path d="M3.6443 47.0424
L2.9186 47.0424
" />
<path d="M3.2814 47.0424
L3.2814 45.7724
" />
<path d="M3.2814 45.7724
L3.1605 45.9539
" />
<path d="M3.1605 45.9539
L3.0395 46.0748
" />
<path d="M3.0395 46.0748
L2.9186 46.1353
" />
<path d="M4.7933 45.7724
L4.1885 45.7724
" />
<path d="M4.1885 45.7724
L4.1281 46.3772
" />
<path d="M4.1281 46.3772
L4.1885 46.3167
" />
<path d="M4.1885 46.3167
L4.3095 46.2562
" />
<path d="M4.3095 46.2562
L4.6119 46.2562
" />
<path d="M4.6119 46.2562
L4.7328 46.3167
" />
<path d="M4.7328 46.3167
L4.7933 46.3772
" />
<path d="M4.7933 46.3772
L4.8538 46.4981
" />
<path d="M4.8538 46.4981
L4.8538 46.8005
" />
<path d="M4.8538 46.8005
L4.7933 46.9215
" />
<path d="M4.7933 46.9215
L4.7328 46.9820
" />
<path d="M4.7328 46.9820
L4.6119 47.0424
" />
<path d="M4.6119 47.0424
L4.3095 47.0424
" />
<path d="M4.3095 47.0424
L4.1885 46.9820
" />
<path d="M4.1885 46.9820
L4.1281 46.9215
" />
</g></g>
<g style="fill:#840000; fill-opacity:0.0; 
stroke:#840000; stroke-width:0.1524; stroke-opacity:1; 
stroke-linecap:round; stroke-linejoin:round;">
<path d="M5.7912 49.9999
L1.9812 49.9999
" />
</g>
<g style="fill:#A90000; fill-opacity:0.0; 
stroke:#A90000; stroke-width:0.1524; stroke-opacity:1; 
stroke-linecap:round; stroke-linejoin:round;">
<text x="3.8862" y="49.7459"
textLength="2.6222" font-size="1.6933" lengthAdjust="spacingAndGlyphs"
text-anchor="middle" opacity="0">16</text>
<g class="stroked-text"><desc>16</desc>
<path d="M3.6443 49.5824
L2.9186 49.5824
" />
<path d="M3.2814 49.5824
L3.2814 48.3124
" />
<path d="M3.2814 48.3124
L3.1605 48.4939
" />
<path d="M3.1605 48.4939
L3.0395 48.6148
" />
<path d="M3.0395 48.6148
L2.9186 48.6753
" />
<path d="M4.7328 48.3124
L4.4909 48.3124
" />
<path d="M4.4909 48.3124
L4.3700 48.3729
" />
<path d="M4.3700 48.3729
L4.3095 48.4334
" />
<path d="M4.3095 48.4334
L4.1885 48.6148
" />
<path d="M4.1885 48.6148
L4.1281 48.8567
" />
<path d="M4.1281 48.8567
L4.1281 49.3405
" />
<path d="M4.1281 49.3405
L4.1885 49.4615
" />
<path d="M4.1885 49.4615
L4.2490 49.5220
" />
<path d="M4.2490 49.5220
L4.3700 49.5824
" />
<path d="M4.3700 49.5824
L4.6119 49.5824
" />
<path d="M4.6119 49.5824
L4.7328 49.5220
" />
<path d="M4.7328 49.5220
L4.7933 49.4615
" />
<path d="M4.7933 49.4615
L4.8538 49.3405
" />
<path d="M4.8538 49.3405
L4.8538 49.0381
" />
<path d="M4.8538 49.0381
L4.7933 48.9172
" />
<path d="M4.7933 48.9172
L4.7328 48.8567
" />
<path d="M4.7328 48.8567
L4.6119 48.7962
" />
<path d="M4.6119 48.7962
L4.3700 48.7962
" />
<path d="M4.3700 48.7962
L4.2490 48.8567
" />
<path d="M4.2490 48.8567
L4.1885 48.9172
" />
<path d="M4.1885 48.9172
L4.1281 49.0381
" />
</g></g>
<g style="fill:#840000; fill-opacity:0.0; 
stroke:#840000; stroke-width:0.1524; stroke-opacity:1; 
stroke-linecap:round; stroke-linejoin:round;">
<path d="M5.7912 52.5399
L1.9812 52.5399
" />
</g>
<g style="fill:#A90000; fill-opacity:0.0; 
stroke:#A90000; stroke-width:0.1524; stroke-opacity:1; 
stroke-linecap:round; stroke-linejoin:round;">
<text x="3.8862" y="52.2859"
textLength="2.6222" font-size="1.6933" lengthAdjust="spacingAndGlyphs"
text-anchor="middle" opacity="0">17</text>
<g class="stroked-text"><desc>17</desc>
<path d="M3.6443 52.1224
L2.9186 52.1224
" />
<path d="M3.2814 52.1224
L3.2814 50.8524
" />
<path d="M3.2814 50.8524
L3.1605 51.0339
" />
<path d="M3.1605 51.0339
L3.0395 51.1548
" />
<path d="M3.0395 51.1548
L2.9186 51.2153
" />
<path d="M4.0676 50.8524
L4.9142 50.8524
" />
<path d="M4.9142 50.8524
L4.3700 52.1224
" />
</g></g>
<g style="fill:#840000; fill-opacity:0.0; 
stroke:#840000; stroke-width:0.1524; stroke-opacity:1; 
stroke-linecap:round; stroke-linejoin:round;">
<path d="M5.7912 55.0799
L1.9812 55.0799
" />
</g>
<g style="fill:#A90000; fill-opacity:0.0; 
stroke:#A90000; stroke-width:0.1524; stroke-opacity:1; 
stroke-linecap:round; stroke-linejoin:round;">
<text x="3.8862" y="54.8259"
textLength="2.6222" font-size="1.6933" lengthAdjust="spacingAndGlyphs"
text-anchor="middle" opacity="0">18</text>
<g class="stroked-text"><desc>18</desc>
<path d="M3.6443 54.6624
L2.9186 54.6624
" />
<path d="M3.2814 54.6624
L3.2814 53.3924
" />
<path d="M3.2814 53.3924
L3.1605 53.5739
" />
<path d="M3.1605 53.5739
L3.0395 53.6948
" />
<path d="M3.0395 53.6948
L2.9186 53.7553
" />
<path d="M4.3700 53.9367
L4.2490 53.8762
" />
<path d="M4.2490 53.8762
L4.1885 53.8158
" />
<path d="M4.1885 53.8158
L4.1281 53.6948
" />
<path d="M4.1281 53.6948
L4.1281 53.6343
" />
<path d="M4.1281 53.6343
L4.1885 53.5134
" />
<path d="M4.1885 53.5134
L4.2490 53.4529
" />
<path d="M4.2490 53.4529
L4.3700 53.3924
" />
<path d="M4.3700 53.3924
L4.6119 53.3924
" />
<path d="M4.6119 53.3924
L4.7328 53.4529
" />
<path d="M4.7328 53.4529
L4.7933 53.5134
" />
<path d="M4.7933 53.5134
L4.8538 53.6343
" />
<path d="M4.8538 53.6343
L4.8538 53.6948
" />
<path d="M4.8538 53.6948
L4.7933 53.8158
" />
<path d="M4.7933 53.8158
L4.7328 53.8762
" />
<path d="M4.7328 53.8762
L4.6119 53.9367
" />
<path d="M4.6119 53.9367
L4.3700 53.9367
" />
<path d="M4.3700 53.9367
L4.2490 53.9972
" />
<path d="M4.2490 53.9972
L4.1885 54.0577
" />
<path d="M4.1885 54.0577
L4.1281 54.1786
" />
<path d="M4.1281 54.1786
L4.1281 54.4205
" />
<path d="M4.1281 54.4205
L4.1885 54.5415
" />
<path d="M4.1885 54.5415
L4.2490 54.6020
" />
<path d="M4.2490 54.6020
L4.3700 54.6624
" />
<path d="M4.3700 54.6624
L4.6119 54.6624
" />
<path d="M4.6119 54.6624
L4.7328 54.6020
" />
<path d="M4.7328 54.6020
L4.7933 54.5415
" />
<path d="M4.7933 54.5415
L4.8538 54.4205
" />
<path d="M4.8538 54.4205
L4.8538 54.1786
" />
<path d="M4.8538 54.1786
L4.7933 54.0577
" />
<path d="M4.7933 54.0577
L4.7328 53.9972
" />
<path d="M4.7328 53.9972
L4.6119 53.9367
" />
</g></g>
<g style="fill:#840000; fill-opacity:0.0; 
stroke:#840000; stroke-width:0.1524; stroke-opacity:1; 
stroke-linecap:round; stroke-linejoin:round;">
<path d="M5.7912 57.6199
L1.9812 57.6199
" />
</g>
<g style="fill:#A90000; fill-opacity:0.0; 
stroke:#A90000; stroke-width:0.1524; stroke-opacity:1; 
stroke-linecap:round; stroke-linejoin:round;">
<text x="3.8862" y="57.3659"
textLength="2.6222" font-size="1.6933" lengthAdjust="spacingAndGlyphs"
text-anchor="middle" opacity="0">19</text>
<g class="stroked-text"><desc>19</desc>
<path d="M3.6443 57.2024
L2.9186 57.2024
" />
<path d="M3.2814 57.2024
L3.2814 55.9324
" />
<path d="M3.2814 55.9324
L3.1605 56.1139
" />
<path d="M3.1605 56.1139
L3.0395 56.2348
" />
<path d="M3.0395 56.2348
L2.9186 56.2953
" />
<path d="M4.2490 57.2024
L4.4909 57.2024
" />
<path d="M4.4909 57.2024
L4.6119 57.1420
" />
<path d="M4.6119 57.1420
L4.6723 57.0815
" />
<path d="M4.6723 57.0815
L4.7933 56.9000
" />
<path d="M4.7933 56.9000
L4.8538 56.6581
" />
<path d="M4.8538 56.6581
L4.8538 56.1743
" />
<path d="M4.8538 56.1743
L4.7933 56.0534
" />
<path d="M4.7933 56.0534
L4.7328 55.9929
" />
<path d="M4.7328 55.9929
L4.6119 55.9324
" />
<path d="M4.6119 55.9324
L4.3700 55.9324
" />
<path d="M4.3700 55.9324
L4.2490 55.9929
" />
<path d="M4.2490 55.9929
L4.1885 56.0534
" />
<path d="M4.1885 56.0534
L4.1281 56.1743
" />
<path d="M4.1281 56.1743
L4.1281 56.4767
" />
<path d="M4.1281 56.4767
L4.1885 56.5977
" />
<path d="M4.1885 56.5977
L4.2490 56.6581
" />
<path d="M4.2490 56.6581
L4.3700 56.7186
" />
<path d="M4.3700 56.7186
L4.6119 56.7186
" />
<path d="M4.6119 56.7186
L4.7328 56.6581
" />
<path d="M4.7328 56.6581
L4.7933 56.5977
" />
<path d="M4.7933 56.5977
L4.8538 56.4767
" />
</g></g>
<g style="fill:#840000; fill-opacity:0.0; 
stroke:#840000; stroke-width:0.1524; stroke-opacity:1; 
stroke-linecap:round; stroke-linejoin:round;">
<path d="M5.7912 14.4399
L1.9812 14.4399
" />
</g>
<g style="fill:#A90000; fill-opacity:0.0; 
stroke:#A90000; stroke-width:0.1524; stroke-opacity:1; 
stroke-linecap:round; stroke-linejoin:round;">
<text x="3.8862" y="14.1859"
textLength="1.4127" font-size="1.6933" lengthAdjust="spacingAndGlyphs"
text-anchor="middle" opacity="0">2</text>
<g class="stroked-text"><desc>2</desc>
<path d="M3.5234 12.8734
L3.5838 12.8129
" />
<path d="M3.5838 12.8129
L3.7048 12.7524
" />
<path d="M3.7048 12.7524
L4.0072 12.7524
" />
<path d="M4.0072 12.7524
L4.1281 12.8129
" />
<path d="M4.1281 12.8129
L4.1886 12.8734
" />
<path d="M4.1886 12.8734
L4.2491 12.9943
" />
<path d="M4.2491 12.9943
L4.2491 13.1153
" />
<path d="M4.2491 13.1153
L4.1886 13.2967
" />
<path d="M4.1886 13.2967
L3.4629 14.0224
" />
<path d="M3.4629 14.0224
L4.2491 14.0224
" />
</g></g>
<g style="fill:#840000; fill-opacity:0.0; 
stroke:#840000; stroke-width:0.1524; stroke-opacity:1; 
stroke-linecap:round; stroke-linejoin:round;">
<path d="M5.7912 60.1599
L1.9812 60.1599
" />
</g>
<g style="fill:#A90000; fill-opacity:0.0; 
stroke:#A90000; stroke-width:0.1524; stroke-opacity:1; 
stroke-linecap:round; stroke-linejoin:round;">
<text x="3.8862" y="59.9059"
textLength="2.6222" font-size="1.6933" lengthAdjust="spacingAndGlyphs"
text-anchor="middle" opacity="0">20</text>
<g class="stroked-text"><desc>20</desc>
<path d="M2.9186 58.5934
L2.9790 58.5329
" />
<path d="M2.9790 58.5329
L3.1000 58.4724
" />
<path d="M3.1000 58.4724
L3.4024 58.4724
" />
<path d="M3.4024 58.4724
L3.5233 58.5329
" />
<path d="M3.5233 58.5329
L3.5838 58.5934
" />
<path d="M3.5838 58.5934
L3.6443 58.7143
" />
<path d="M3.6443 58.7143
L3.6443 58.8353
" />
<path d="M3.6443 58.8353
L3.5838 59.0167
" />
<path d="M3.5838 59.0167
L2.8581 59.7424
" />
<path d="M2.8581 59.7424
L3.6443 59.7424
" />
<path d="M4.4304 58.4724
L4.5514 58.4724
" />
<path d="M4.5514 58.4724
L4.6723 58.5329
" />
<path d="M4.6723 58.5329
L4.7328 58.5934
" />
<path d="M4.7328 58.5934
L4.7933 58.7143
" />
<path d="M4.7933 58.7143
L4.8538 58.9562
" />
<path d="M4.8538 58.9562
L4.8538 59.2586
" />
<path d="M4.8538 59.2586
L4.7933 59.5005
" />
<path d="M4.7933 59.5005
L4.7328 59.6215
" />
<path d="M4.7328 59.6215
L4.6723 59.6820
" />
<path d="M4.6723 59.6820
L4.5514 59.7424
" />
<path d="M4.5514 59.7424
L4.4304 59.7424
" />
<path d="M4.4304 59.7424
L4.3095 59.6820
" />
<path d="M4.3095 59.6820
L4.2490 59.6215
" />
<path d="M4.2490 59.6215
L4.1885 59.5005
" />
<path d="M4.1885 59.5005
L4.1281 59.2586
" />
<path d="M4.1281 59.2586
L4.1281 58.9562
" />
<path d="M4.1281 58.9562
L4.1885 58.7143
" />
<path d="M4.1885 58.7143
L4.2490 58.5934
" />
<path d="M4.2490 58.5934
L4.3095 58.5329
" />
<path d="M4.3095 58.5329
L4.4304 58.4724
" />
</g></g>
<g style="fill:#840000; fill-opacity:0.0; 
stroke:#840000; stroke-width:0.1524; stroke-opacity:1; 
stroke-linecap:round; stroke-linejoin:round;">
<path d="M5.7912 62.6999
L1.9812 62.6999
" />
</g>
<g style="fill:#A90000; fill-opacity:0.0; 
stroke:#A90000; stroke-width:0.1524; stroke-opacity:1; 
stroke-linecap:round; stroke-linejoin:round;">
<text x="3.8862" y="62.4459"
textLength="2.6222" font-size="1.6933" lengthAdjust="spacingAndGlyphs"
text-anchor="middle" opacity="0">21</text>
<g class="stroked-text"><desc>21</desc>
<path d="M2.9186 61.1334
L2.9790 61.0729
" />
<path d="M2.9790 61.0729
L3.1000 61.0124
" />
<path d="M3.1000 61.0124
L3.4024 61.0124
" />
<path d="M3.4024 61.0124
L3.5233 61.0729
" />
<path d="M3.5233 61.0729
L3.5838 61.1334
" />
<path d="M3.5838 61.1334
L3.6443 61.2543
" />
<path d="M3.6443 61.2543
L3.6443 61.3753
" />
<path d="M3.6443 61.3753
L3.5838 61.5567
" />
<path d="M3.5838 61.5567
L2.8581 62.2824
" />
<path d="M2.8581 62.2824
L3.6443 62.2824
" />
<path d="M4.8538 62.2824
L4.1281 62.2824
" />
<path d="M4.4909 62.2824
L4.4909 61.0124
" />
<path d="M4.4909 61.0124
L4.3700 61.1939
" />
<path d="M4.3700 61.1939
L4.2490 61.3148
" />
<path d="M4.2490 61.3148
L4.1281 61.3753
" />
</g></g>
<g style="fill:#840000; fill-opacity:0.0; 
stroke:#840000; stroke-width:0.1524; stroke-opacity:1; 
stroke-linecap:round; stroke-linejoin:round;">
<path d="M5.7912 65.2399
L1.9812 65.2399
" />
</g>
<g style="fill:#A90000; fill-opacity:0.0; 
stroke:#A90000; stroke-width:0.1524; stroke-opacity:1; 
stroke-linecap:round; stroke-linejoin:round;">
<text x="3.8862" y="64.9859"
textLength="2.6222" font-size="1.6933" lengthAdjust="spacingAndGlyphs"
text-anchor="middle" opacity="0">22</text>
<g class="stroked-text"><desc>22</desc>
<path d="M2.9186 63.6734
L2.9790 63.6129
" />
<path d="M2.9790 63.6129
L3.1000 63.5524
" />
<path d="M3.1000 63.5524
L3.4024 63.5524
" />
<path d="M3.4024 63.5524
L3.5233 63.6129
" />
<path d="M3.5233 63.6129
L3.5838 63.6734
" />
<path d="M3.5838 63.6734
L3.6443 63.7943
" />
<path d="M3.6443 63.7943
L3.6443 63.9153
" />
<path d="M3.6443 63.9153
L3.5838 64.0967
" />
<path d="M3.5838 64.0967
L2.8581 64.8224
" />
<path d="M2.8581 64.8224
L3.6443 64.8224
" />
<path d="M4.1281 63.6734
L4.1885 63.6129
" />
<path d="M4.1885 63.6129
L4.3095 63.5524
" />
<path d="M4.3095 63.5524
L4.6119 63.5524
" />
<path d="M4.6119 63.5524
L4.7328 63.6129
" />
<path d="M4.7328 63.6129
L4.7933 63.6734
" />
<path d="M4.7933 63.6734
L4.8538 63.7943
" />
<path d="M4.8538 63.7943
L4.8538 63.9153
" />
<path d="M4.8538 63.9153
L4.7933 64.0967
" />
<path d="M4.7933 64.0967
L4.0676 64.8224
" />
<path d="M4.0676 64.8224
L4.8538 64.8224
" />
</g></g>
<g style="fill:#840000; fill-opacity:0.0; 
stroke:#840000; stroke-width:0.1524; stroke-opacity:1; 
stroke-linecap:round; stroke-linejoin:round;">
<path d="M5.7912 67.7799
L1.9812 67.7799
" />
</g>
<g style="fill:#A90000; fill-opacity:0.0; 
stroke:#A90000; stroke-width:0.1524; stroke-opacity:1; 
stroke-linecap:round; stroke-linejoin:round;">
<text x="3.8862" y="67.5259"
textLength="2.6222" font-size="1.6933" lengthAdjust="spacingAndGlyphs"
text-anchor="middle" opacity="0">23</text>
<g class="stroked-text"><desc>23</desc>
<path d="M2.9186 66.2134
L2.9790 66.1529
" />
<path d="M2.9790 66.1529
L3.1000 66.0924
" />
<path d="M3.1000 66.0924
L3.4024 66.0924
" />
<path d="M3.4024 66.0924
L3.5233 66.1529
" />
<path d="M3.5233 66.1529
L3.5838 66.2134
" />
<path d="M3.5838 66.2134
L3.6443 66.3343
" />
<path d="M3.6443 66.3343
L3.6443 66.4553
" />
<path d="M3.6443 66.4553
L3.5838 66.6367
" />
<path d="M3.5838 66.6367
L2.8581 67.3624
" />
<path d="M2.8581 67.3624
L3.6443 67.3624
" />
<path d="M4.0676 66.0924
L4.8538 66.0924
" />
<path d="M4.8538 66.0924
L4.4304 66.5762
" />
<path d="M4.4304 66.5762
L4.6119 66.5762
" />
<path d="M4.6119 66.5762
L4.7328 66.6367
" />
<path d="M4.7328 66.6367
L4.7933 66.6972
" />
<path d="M4.7933 66.6972
L4.8538 66.8181
" />
<path d="M4.8538 66.8181
L4.8538 67.1205
" />
<path d="M4.8538 67.1205
L4.7933 67.2415
" />
<path d="M4.7933 67.2415
L4.7328 67.3020
" />
<path d="M4.7328 67.3020
L4.6119 67.3624
" />
<path d="M4.6119 67.3624
L4.2490 67.3624
" />
<path d="M4.2490 67.3624
L4.1281 67.3020
" />
<path d="M4.1281 67.3020
L4.0676 67.2415
" />
</g></g>
<g style="fill:#840000; fill-opacity:0.0; 
stroke:#840000; stroke-width:0.1524; stroke-opacity:1; 
stroke-linecap:round; stroke-linejoin:round;">
<path d="M5.7912 70.3199
L1.9812 70.3199
" />
</g>
<g style="fill:#A90000; fill-opacity:0.0; 
stroke:#A90000; stroke-width:0.1524; stroke-opacity:1; 
stroke-linecap:round; stroke-linejoin:round;">
<text x="3.8862" y="70.0659"
textLength="2.6222" font-size="1.6933" lengthAdjust="spacingAndGlyphs"
text-anchor="middle" opacity="0">24</text>
<g class="stroked-text"><desc>24</desc>
<path d="M2.9186 68.7534
L2.9790 68.6929
" />
<path d="M2.9790 68.6929
L3.1000 68.6324
" />
<path d="M3.1000 68.6324
L3.4024 68.6324
" />
<path d="M3.4024 68.6324
L3.5233 68.6929
" />
<path d="M3.5233 68.6929
L3.5838 68.7534
" />
<path d="M3.5838 68.7534
L3.6443 68.8743
" />
<path d="M3.6443 68.8743
L3.6443 68.9953
" />
<path d="M3.6443 68.9953
L3.5838 69.1767
" />
<path d="M3.5838 69.1767
L2.8581 69.9024
" />
<path d="M2.8581 69.9024
L3.6443 69.9024
" />
<path d="M4.7328 69.0558
L4.7328 69.9024
" />
<path d="M4.4304 68.5720
L4.1281 69.4791
" />
<path d="M4.1281 69.4791
L4.9142 69.4791
" />
</g></g>
<g style="fill:#840000; fill-opacity:0.0; 
stroke:#840000; stroke-width:0.1524; stroke-opacity:1; 
stroke-linecap:round; stroke-linejoin:round;">
<path d="M5.7912 72.8599
L1.9812 72.8599
" />
</g>
<g style="fill:#A90000; fill-opacity:0.0; 
stroke:#A90000; stroke-width:0.1524; stroke-opacity:1; 
stroke-linecap:round; stroke-linejoin:round;">
<text x="3.8862" y="72.6059"
textLength="2.6222" font-size="1.6933" lengthAdjust="spacingAndGlyphs"
text-anchor="middle" opacity="0">25</text>
<g class="stroked-text"><desc>25</desc>
<path d="M2.9186 71.2934
L2.9790 71.2329
" />
<path d="M2.9790 71.2329
L3.1000 71.1724
" />
<path d="M3.1000 71.1724
L3.4024 71.1724
" />
<path d="M3.4024 71.1724
L3.5233 71.2329
" />
<path d="M3.5233 71.2329
L3.5838 71.2934
" />
<path d="M3.5838 71.2934
L3.6443 71.4143
" />
<path d="M3.6443 71.4143
L3.6443 71.5353
" />
<path d="M3.6443 71.5353
L3.5838 71.7167
" />
<path d="M3.5838 71.7167
L2.8581 72.4424
" />
<path d="M2.8581 72.4424
L3.6443 72.4424
" />
<path d="M4.7933 71.1724
L4.1885 71.1724
" />
<path d="M4.1885 71.1724
L4.1281 71.7772
" />
<path d="M4.1281 71.7772
L4.1885 71.7167
" />
<path d="M4.1885 71.7167
L4.3095 71.6562
" />
<path d="M4.3095 71.6562
L4.6119 71.6562
" />
<path d="M4.6119 71.6562
L4.7328 71.7167
" />
<path d="M4.7328 71.7167
L4.7933 71.7772
" />
<path d="M4.7933 71.7772
L4.8538 71.8981
" />
<path d="M4.8538 71.8981
L4.8538 72.2005
" />
<path d="M4.8538 72.2005
L4.7933 72.3215
" />
<path d="M4.7933 72.3215
L4.7328 72.3820
" />
<path d="M4.7328 72.3820
L4.6119 72.4424
" />
<path d="M4.6119 72.4424
L4.3095 72.4424
" />
<path d="M4.3095 72.4424
L4.1885 72.3820
" />
<path d="M4.1885 72.3820
L4.1281 72.3215
" />
</g></g>
<g style="fill:#840000; fill-opacity:0.0; 
stroke:#840000; stroke-width:0.1524; stroke-opacity:1; 
stroke-linecap:round; stroke-linejoin:round;">
<path d="M5.7912 75.3999
L1.9812 75.3999
" />
</g>
<g style="fill:#A90000; fill-opacity:0.0; 
stroke:#A90000; stroke-width:0.1524; stroke-opacity:1; 
stroke-linecap:round; stroke-linejoin:round;">
<text x="3.8862" y="75.1459"
textLength="2.6222" font-size="1.6933" lengthAdjust="spacingAndGlyphs"
text-anchor="middle" opacity="0">26</text>
<g class="stroked-text"><desc>26</desc>
<path d="M2.9186 73.8334
L2.9790 73.7729
" />
<path d="M2.9790 73.7729
L3.1000 73.7124
" />
<path d="M3.1000 73.7124
L3.4024 73.7124
" />
<path d="M3.4024 73.7124
L3.5233 73.7729
" />
<path d="M3.5233 73.7729
L3.5838 73.8334
" />
<path d="M3.5838 73.8334
L3.6443 73.9543
" />
<path d="M3.6443 73.9543
L3.6443 74.0753
" />
<path d="M3.6443 74.0753
L3.5838 74.2567
" />
<path d="M3.5838 74.2567
L2.8581 74.9824
" />
<path d="M2.8581 74.9824
L3.6443 74.9824
" />
<path d="M4.7328 73.7124
L4.4909 73.7124
" />
<path d="M4.4909 73.7124
L4.3700 73.7729
" />
<path d="M4.3700 73.7729
L4.3095 73.8334
" />
<path d="M4.3095 73.8334
L4.1885 74.0148
" />
<path d="M4.1885 74.0148
L4.1281 74.2567
" />
<path d="M4.1281 74.2567
L4.1281 74.7405
" />
<path d="M4.1281 74.7405
L4.1885 74.8615
" />
<path d="M4.1885 74.8615
L4.2490 74.9220
" />
<path d="M4.2490 74.9220
L4.3700 74.9824
" />
<path d="M4.3700 74.9824
L4.6119 74.9824
" />
<path d="M4.6119 74.9824
L4.7328 74.9220
" />
<path d="M4.7328 74.9220
L4.7933 74.8615
" />
<path d="M4.7933 74.8615
L4.8538 74.7405
" />
<path d="M4.8538 74.7405
L4.8538 74.4381
" />
<path d="M4.8538 74.4381
L4.7933 74.3172
" />
<path d="M4.7933 74.3172
L4.7328 74.2567
" />
<path d="M4.7328 74.2567
L4.6119 74.1962
" />
<path d="M4.6119 74.1962
L4.3700 74.1962
" />
<path d="M4.3700 74.1962
L4.2490 74.2567
" />
<path d="M4.2490 74.2567
L4.1885 74.3172
" />
<path d="M4.1885 74.3172
L4.1281 74.4381
" />
</g></g>
<g style="fill:#840000; fill-opacity:0.0; 
stroke:#840000; stroke-width:0.1524; stroke-opacity:1; 
stroke-linecap:round; stroke-linejoin:round;">
<path d="M5.7912 16.9799
L1.9812 16.9799
" />
</g>
<g style="fill:#A90000; fill-opacity:0.0; 
stroke:#A90000; stroke-width:0.1524; stroke-opacity:1; 
stroke-linecap:round; stroke-linejoin:round;">
<text x="3.8862" y="16.7259"
textLength="1.4127" font-size="1.6933" lengthAdjust="spacingAndGlyphs"
text-anchor="middle" opacity="0">3</text>
<g class="stroked-text"><desc>3</desc>
<path d="M3.4629 15.2924
L4.2491 15.2924
" />
<path d="M4.2491 15.2924
L3.8257 15.7762
" />
<path d="M3.8257 15.7762
L4.0072 15.7762
" />
<path d="M4.0072 15.7762
L4.1281 15.8367
" />
<path d="M4.1281 15.8367
L4.1886 15.8972
" />
<path d="M4.1886 15.8972
L4.2491 16.0181
" />
<path d="M4.2491 16.0181
L4.2491 16.3205
" />
<path d="M4.2491 16.3205
L4.1886 16.4415
" />
<path d="M4.1886 16.4415
L4.1281 16.5020
" />
<path d="M4.1281 16.5020
L4.0072 16.5624
" />
<path d="M4.0072 16.5624
L3.6443 16.5624
" />
<path d="M3.6443 16.5624
L3.5234 16.5020
" />
<path d="M3.5234 16.5020
L3.4629 16.4415
" />
</g></g>
<g style="fill:#840000; fill-opacity:0.0; 
stroke:#840000; stroke-width:0.1524; stroke-opacity:1; 
stroke-linecap:round; stroke-linejoin:round;">
<path d="M5.7912 19.5199
L1.9812 19.5199
" />
</g>
<g style="fill:#A90000; fill-opacity:0.0; 
stroke:#A90000; stroke-width:0.1524; stroke-opacity:1; 
stroke-linecap:round; stroke-linejoin:round;">
<text x="3.8862" y="19.2659"
textLength="1.4127" font-size="1.6933" lengthAdjust="spacingAndGlyphs"
text-anchor="middle" opacity="0">4</text>
<g class="stroked-text"><desc>4</desc>
<path d="M4.1281 18.2558
L4.1281 19.1024
" />
<path d="M3.8257 17.7720
L3.5234 18.6791
" />
<path d="M3.5234 18.6791
L4.3095 18.6791
" />
</g></g>
<g style="fill:#840000; fill-opacity:0.0; 
stroke:#840000; stroke-width:0.1524; stroke-opacity:1; 
stroke-linecap:round; stroke-linejoin:round;">
<path d="M5.7912 22.0599
L1.9812 22.0599
" />
</g>
<g style="fill:#A90000; fill-opacity:0.0; 
stroke:#A90000; stroke-width:0.1524; stroke-opacity:1; 
stroke-linecap:round; stroke-linejoin:round;">
<text x="3.8862" y="21.8059"
textLength="1.4127" font-size="1.6933" lengthAdjust="spacingAndGlyphs"
text-anchor="middle" opacity="0">5</text>
<g class="stroked-text"><desc>5</desc>
<path d="M4.1886 20.3724
L3.5838 20.3724
" />
<path d="M3.5838 20.3724
L3.5234 20.9772
" />
<path d="M3.5234 20.9772
L3.5838 20.9167
" />
<path d="M3.5838 20.9167
L3.7048 20.8562
" />
<path d="M3.7048 20.8562
L4.0072 20.8562
" />
<path d="M4.0072 20.8562
L4.1281 20.9167
" />
<path d="M4.1281 20.9167
L4.1886 20.9772
" />
<path d="M4.1886 20.9772
L4.2491 21.0981
" />
<path d="M4.2491 21.0981
L4.2491 21.4005
" />
<path d="M4.2491 21.4005
L4.1886 21.5215
" />
<path d="M4.1886 21.5215
L4.1281 21.5820
" />
<path d="M4.1281 21.5820
L4.0072 21.6424
" />
<path d="M4.0072 21.6424
L3.7048 21.6424
" />
<path d="M3.7048 21.6424
L3.5838 21.5820
" />
<path d="M3.5838 21.5820
L3.5234 21.5215
" />
</g></g>
<g style="fill:#840000; fill-opacity:0.0; 
stroke:#840000; stroke-width:0.1524; stroke-opacity:1; 
stroke-linecap:round; stroke-linejoin:round;">
<path d="M5.7912 24.5999
L1.9812 24.5999
" />
</g>
<g style="fill:#A90000; fill-opacity:0.0; 
stroke:#A90000; stroke-width:0.1524; stroke-opacity:1; 
stroke-linecap:round; stroke-linejoin:round;">
<text x="3.8862" y="24.3459"
textLength="1.4127" font-size="1.6933" lengthAdjust="spacingAndGlyphs"
text-anchor="middle" opacity="0">6</text>
<g class="stroked-text"><desc>6</desc>
<path d="M4.1281 22.9124
L3.8862 22.9124
" />
<path d="M3.8862 22.9124
L3.7653 22.9729
" />
<path d="M3.7653 22.9729
L3.7048 23.0334
" />
<path d="M3.7048 23.0334
L3.5838 23.2148
" />
<path d="M3.5838 23.2148
L3.5234 23.4567
" />
<path d="M3.5234 23.4567
L3.5234 23.9405
" />
<path d="M3.5234 23.9405
L3.5838 24.0615
" />
<path d="M3.5838 24.0615
L3.6443 24.1220
" />
<path d="M3.6443 24.1220
L3.7653 24.1824
" />
<path d="M3.7653 24.1824
L4.0072 24.1824
" />
<path d="M4.0072 24.1824
L4.1281 24.1220
" />
<path d="M4.1281 24.1220
L4.1886 24.0615
" />
<path d="M4.1886 24.0615
L4.2491 23.9405
" />
<path d="M4.2491 23.9405
L4.2491 23.6381
" />
<path d="M4.2491 23.6381
L4.1886 23.5172
" />
<path d="M4.1886 23.5172
L4.1281 23.4567
" />
<path d="M4.1281 23.4567
L4.0072 23.3962
" />
<path d="M4.0072 23.3962
L3.7653 23.3962
" />
<path d="M3.7653 23.3962
L3.6443 23.4567
" />
<path d="M3.6443 23.4567
L3.5838 23.5172
" />
<path d="M3.5838 23.5172
L3.5234 23.6381
" />
</g></g>
<g style="fill:#840000; fill-opacity:0.0; 
stroke:#840000; stroke-width:0.1524; stroke-opacity:1; 
stroke-linecap:round; stroke-linejoin:round;">
<path d="M5.7912 27.1399
L1.9812 27.1399
" />
</g>
<g style="fill:#A90000; fill-opacity:0.0; 
stroke:#A90000; stroke-width:0.1524; stroke-opacity:1; 
stroke-linecap:round; stroke-linejoin:round;">
<text x="3.8862" y="26.8859"
textLength="1.4127" font-size="1.6933" lengthAdjust="spacingAndGlyphs"
text-anchor="middle" opacity="0">7</text>
<g class="stroked-text"><desc>7</desc>
<path d="M3.4629 25.4524
L4.3095 25.4524
" />
<path d="M4.3095 25.4524
L3.7653 26.7224
" />
</g></g>
<g style="fill:#840000; fill-opacity:0.0; 
stroke:#840000; stroke-width:0.1524; stroke-opacity:1; 
stroke-linecap:round; stroke-linejoin:round;">
<path d="M5.7912 29.6799
L1.9812 29.6799
" />
</g>
<g style="fill:#A90000; fill-opacity:0.0; 
stroke:#A90000; stroke-width:0.1524; stroke-opacity:1; 
stroke-linecap:round; stroke-linejoin:round;">
<text x="3.8862" y="29.4259"
textLength="1.4127" font-size="1.6933" lengthAdjust="spacingAndGlyphs"
text-anchor="middle" opacity="0">8</text>
<g class="stroked-text"><desc>8</desc>
<path d="M3.7653 28.5367
L3.6443 28.4762
" />
<path d="M3.6443 28.4762
L3.5838 28.4158
" />
<path d="M3.5838 28.4158
L3.5234 28.2948
" />
<path d="M3.5234 28.2948
L3.5234 28.2343
" />
<path d="M3.5234 28.2343
L3.5838 28.1134
" />
<path d="M3.5838 28.1134
L3.6443 28.0529
" />
<path d="M3.6443 28.0529
L3.7653 27.9924
" />
<path d="M3.7653 27.9924
L4.0072 27.9924
" />
<path d="M4.0072 27.9924
L4.1281 28.0529
" />
<path d="M4.1281 28.0529
L4.1886 28.1134
" />
<path d="M4.1886 28.1134
L4.2491 28.2343
" />
<path d="M4.2491 28.2343
L4.2491 28.2948
" />
<path d="M4.2491 28.2948
L4.1886 28.4158
" />
<path d="M4.1886 28.4158
L4.1281 28.4762
" />
<path d="M4.1281 28.4762
L4.0072 28.5367
" />
<path d="M4.0072 28.5367
L3.7653 28.5367
" />
<path d="M3.7653 28.5367
L3.6443 28.5972
" />
<path d="M3.6443 28.5972
L3.5838 28.6577
" />
<path d="M3.5838 28.6577
L3.5234 28.7786
" />
<path d="M3.5234 28.7786
L3.5234 29.0205
" />
<path d="M3.5234 29.0205
L3.5838 29.1415
" />
<path d="M3.5838 29.1415
L3.6443 29.2020
" />
<path d="M3.6443 29.2020
L3.7653 29.2624
" />
<path d="M3.7653 29.2624
L4.0072 29.2624
" />
<path d="M4.0072 29.2624
L4.1281 29.2020
" />
<path d="M4.1281 29.2020
L4.1886 29.1415
" />
<path d="M4.1886 29.1415
L4.2491 29.0205
" />
<path d="M4.2491 29.0205
L4.2491 28.7786
" />
<path d="M4.2491 28.7786
L4.1886 28.6577
" />
<path d="M4.1886 28.6577
L4.1281 28.5972
" />
<path d="M4.1281 28.5972
L4.0072 28.5367
" />
</g></g>
<g style="fill:#840000; fill-opacity:0.0; 
stroke:#840000; stroke-width:0.1524; stroke-opacity:1; 
stroke-linecap:round; stroke-linejoin:round;">
<path d="M5.7912 32.2199
L1.9812 32.2199
" />
</g>
<g style="fill:#A90000; fill-opacity:0.0; 
stroke:#A90000; stroke-width:0.1524; stroke-opacity:1; 
stroke-linecap:round; stroke-linejoin:round;">
<text x="3.8862" y="31.9659"
textLength="1.4127" font-size="1.6933" lengthAdjust="spacingAndGlyphs"
text-anchor="middle" opacity="0">9</text>
<g class="stroked-text"><desc>9</desc>
<path d="M3.6443 31.8024
L3.8862 31.8024
" />
<path d="M3.8862 31.8024
L4.0072 31.7420
" />
<path d="M4.0072 31.7420
L4.0676 31.6815
" />
<path d="M4.0676 31.6815
L4.1886 31.5000
" />
<path d="M4.1886 31.5000
L4.2491 31.2581
" />
<path d="M4.2491 31.2581
L4.2491 30.7743
" />
<path d="M4.2491 30.7743
L4.1886 30.6534
" />
<path d="M4.1886 30.6534
L4.1281 30.5929
" />
<path d="M4.1281 30.5929
L4.0072 30.5324
" />
<path d="M4.0072 30.5324
L3.7653 30.5324
" />
<path d="M3.7653 30.5324
L3.6443 30.5929
" />
<path d="M3.6443 30.5929
L3.5838 30.6534
" />
<path d="M3.5838 30.6534
L3.5234 30.7743
" />
<path d="M3.5234 30.7743
L3.5234 31.0767
" />
<path d="M3.5234 31.0767
L3.5838 31.1977
" />
<path d="M3.5838 31.1977
L3.6443 31.2581
" />
<path d="M3.6443 31.2581
L3.7653 31.3186
" />
<path d="M3.7653 31.3186
L4.0072 31.3186
" />
<path d="M4.0072 31.3186
L4.1281 31.2581
" />
<path d="M4.1281 31.2581
L4.1886 31.1977
" />
<path d="M4.1886 31.1977
L4.2491 31.0767
" />
</g></g>
<g style="fill:#840084; fill-opacity:0.0; 
stroke:#840084; stroke-width:0.1524; stroke-opacity:1; 
stroke-linecap:round; stroke-linejoin:round;">
</g>
<g style="fill:#006464; fill-opacity:0.0; 
stroke:#006464; stroke-width:0.1524; stroke-opacity:1; 
stroke-linecap:round; stroke-linejoin:round;">
</g>
<g style="fill:#006464; fill-opacity:0.0; 
stroke:#006464; stroke-width:0.1588; stroke-opacity:1; 
stroke-linecap:round; stroke-linejoin:round;">
<text x="7.0612" y="9.9949"
textLength="2.2786" font-size="1.6933" lengthAdjust="spacingAndGlyphs"
text-anchor="middle" opacity="0">J?</text>
<g class="stroked-text"><desc>J?</desc>
<path d="M6.6983 8.6691
L6.6983 9.5763
" />
<path d="M6.6983 9.5763
L6.6378 9.7577
" />
<path d="M6.6378 9.7577
L6.5169 9.8787
" />
<path d="M6.5169 9.8787
L6.3354 9.9391
" />
<path d="M6.3354 9.9391
L6.2145 9.9391
" />
<path d="M7.4845 9.8182
L7.5449 9.8787
" />
<path d="M7.5449 9.8787
L7.4845 9.9391
" />
<path d="M7.4845 9.9391
L7.4240 9.8787
" />
<path d="M7.4240 9.8787
L7.4845 9.8182
" />
<path d="M7.4845 9.8182
L7.4845 9.9391
" />
<path d="M7.2426 8.7296
L7.3635 8.6691
" />
<path d="M7.3635 8.6691
L7.6659 8.6691
" />
<path d="M7.6659 8.6691
L7.7868 8.7296
" />
<path d="M7.7868 8.7296
L7.8473 8.8506
" />
<path d="M7.8473 8.8506
L7.8473 8.9715
" />
<path d="M7.8473 8.9715
L7.7868 9.0925
" />
<path d="M7.7868 9.0925
L7.7264 9.1529
" />
<path d="M7.7264 9.1529
L7.6054 9.2134
" />
<path d="M7.6054 9.2134
L7.5449 9.2739
" />
<path d="M7.5449 9.2739
L7.4845 9.3948
" />
<path d="M7.4845 9.3948
L7.4845 9.4553
" />
</g><text x="7.0612" y="78.5749"
textLength="11.7731" font-size="1.6933" lengthAdjust="spacingAndGlyphs"
text-anchor="middle" opacity="0">Conn_01x26</text>
<g class="stroked-text"><desc>Conn_01x26</desc>
<path d="M2.3139 78.3982
L2.2535 78.4587
" />
<path d="M2.2535 78.4587
L2.0720 78.5191
" />
<path d="M2.0720 78.5191
L1.9511 78.5191
" />
<path d="M1.9511 78.5191
L1.7697 78.4587
" />
<path d="M1.7697 78.4587
L1.6487 78.3377
" />
<path d="M1.6487 78.3377
L1.5882 78.2167
" />
<path d="M1.5882 78.2167
L1.5278 77.9748
" />
<path d="M1.5278 77.9748
L1.5278 77.7934
" />
<path d="M1.5278 77.7934
L1.5882 77.5515
" />
<path d="M1.5882 77.5515
L1.6487 77.4306
" />
<path d="M1.6487 77.4306
L1.7697 77.3096
" />
<path d="M1.7697 77.3096
L1.9511 77.2491
" />
<path d="M1.9511 77.2491
L2.0720 77.2491
" />
<path d="M2.0720 77.2491
L2.2535 77.3096
" />
<path d="M2.2535 77.3096
L2.3139 77.3701
" />
<path d="M3.0397 78.5191
L2.9187 78.4587
" />
<path d="M2.9187 78.4587
L2.8582 78.3982
" />
<path d="M2.8582 78.3982
L2.7978 78.2772
" />
<path d="M2.7978 78.2772
L2.7978 77.9144
" />
<path d="M2.7978 77.9144
L2.8582 77.7934
" />
<path d="M2.8582 77.7934
L2.9187 77.7329
" />
<path d="M2.9187 77.7329
L3.0397 77.6725
" />
<path d="M3.0397 77.6725
L3.2211 77.6725
" />
<path d="M3.2211 77.6725
L3.3420 77.7329
" />
<path d="M3.3420 77.7329
L3.4025 77.7934
" />
<path d="M3.4025 77.7934
L3.4630 77.9144
" />
<path d="M3.4630 77.9144
L3.4630 78.2772
" />
<path d="M3.4630 78.2772
L3.4025 78.3982
" />
<path d="M3.4025 78.3982
L3.3420 78.4587
" />
<path d="M3.3420 78.4587
L3.2211 78.5191
" />
<path d="M3.2211 78.5191
L3.0397 78.5191
" />
<path d="M4.0072 77.6725
L4.0072 78.5191
" />
<path d="M4.0072 77.7934
L4.0677 77.7329
" />
<path d="M4.0677 77.7329
L4.1887 77.6725
" />
<path d="M4.1887 77.6725
L4.3701 77.6725
" />
<path d="M4.3701 77.6725
L4.4910 77.7329
" />
<path d="M4.4910 77.7329
L4.5515 77.8539
" />
<path d="M4.5515 77.8539
L4.5515 78.5191
" />
<path d="M5.1562 77.6725
L5.1562 78.5191
" />
<path d="M5.1562 77.7934
L5.2167 77.7329
" />
<path d="M5.2167 77.7329
L5.3377 77.6725
" />
<path d="M5.3377 77.6725
L5.5191 77.6725
" />
<path d="M5.5191 77.6725
L5.6400 77.7329
" />
<path d="M5.6400 77.7329
L5.7005 77.8539
" />
<path d="M5.7005 77.8539
L5.7005 78.5191
" />
<path d="M6.0029 78.6401
L6.9705 78.6401
" />
<path d="M7.5147 77.2491
L7.6357 77.2491
" />
<path d="M7.6357 77.2491
L7.7566 77.3096
" />
<path d="M7.7566 77.3096
L7.8171 77.3701
" />
<path d="M7.8171 77.3701
L7.8776 77.4910
" />
<path d="M7.8776 77.4910
L7.9381 77.7329
" />
<path d="M7.9381 77.7329
L7.9381 78.0353
" />
<path d="M7.9381 78.0353
L7.8776 78.2772
" />
<path d="M7.8776 78.2772
L7.8171 78.3982
" />
<path d="M7.8171 78.3982
L7.7566 78.4587
" />
<path d="M7.7566 78.4587
L7.6357 78.5191
" />
<path d="M7.6357 78.5191
L7.5147 78.5191
" />
<path d="M7.5147 78.5191
L7.3938 78.4587
" />
<path d="M7.3938 78.4587
L7.3333 78.3982
" />
<path d="M7.3333 78.3982
L7.2728 78.2772
" />
<path d="M7.2728 78.2772
L7.2124 78.0353
" />
<path d="M7.2124 78.0353
L7.2124 77.7329
" />
<path d="M7.2124 77.7329
L7.2728 77.4910
" />
<path d="M7.2728 77.4910
L7.3333 77.3701
" />
<path d="M7.3333 77.3701
L7.3938 77.3096
" />
<path d="M7.3938 77.3096
L7.5147 77.2491
" />
<path d="M9.1476 78.5191
L8.4219 78.5191
" />
<path d="M8.7847 78.5191
L8.7847 77.2491
" />
<path d="M8.7847 77.2491
L8.6638 77.4306
" />
<path d="M8.6638 77.4306
L8.5428 77.5515
" />
<path d="M8.5428 77.5515
L8.4219 77.6120
" />
<path d="M9.5709 78.5191
L10.2361 77.6725
" />
<path d="M9.5709 77.6725
L10.2361 78.5191
" />
<path d="M10.6595 77.3701
L10.7199 77.3096
" />
<path d="M10.7199 77.3096
L10.8409 77.2491
" />
<path d="M10.8409 77.2491
L11.1433 77.2491
" />
<path d="M11.1433 77.2491
L11.2642 77.3096
" />
<path d="M11.2642 77.3096
L11.3247 77.3701
" />
<path d="M11.3247 77.3701
L11.3852 77.4910
" />
<path d="M11.3852 77.4910
L11.3852 77.6120
" />
<path d="M11.3852 77.6120
L11.3247 77.7934
" />
<path d="M11.3247 77.7934
L10.5990 78.5191
" />
<path d="M10.5990 78.5191
L11.3852 78.5191
" />
<path d="M12.4737 77.2491
L12.2318 77.2491
" />
<path d="M12.2318 77.2491
L12.1109 77.3096
" />
<path d="M12.1109 77.3096
L12.0504 77.3701
" />
<path d="M12.0504 77.3701
L11.9294 77.5515
" />
<path d="M11.9294 77.5515
L11.8690 77.7934
" />
<path d="M11.8690 77.7934
L11.8690 78.2772
" />
<path d="M11.8690 78.2772
L11.9294 78.3982
" />
<path d="M11.9294 78.3982
L11.9899 78.4587
" />
<path d="M11.9899 78.4587
L12.1109 78.5191
" />
<path d="M12.1109 78.5191
L12.3528 78.5191
" />
<path d="M12.3528 78.5191
L12.4737 78.4587
" />
<path d="M12.4737 78.4587
L12.5342 78.3982
" />
<path d="M12.5342 78.3982
L12.5947 78.2772
" />
<path d="M12.5947 78.2772
L12.5947 77.9748
" />
<path d="M12.5947 77.9748
L12.5342 77.8539
" />
<path d="M12.5342 77.8539
L12.4737 77.7934
" />
<path d="M12.4737 77.7934
L12.3528 77.7329
" />
<path d="M12.3528 77.7329
L12.1109 77.7329
" />
<path d="M12.1109 77.7329
L11.9899 77.7934
" />
<path d="M11.9899 77.7934
L11.9294 77.8539
" />
<path d="M11.9294 77.8539
L11.8690 77.9748
" />
</g></g> 
</svg>
