<?xml version="1.0" standalone="no"?>
 <!DOCTYPE svg PUBLIC "-//W3C//DTD SVG 1.1//EN" 
 "http://www.w3.org/Graphics/SVG/1.1/DTD/svg11.dtd"> 
<svg
  xmlns:svg="http://www.w3.org/2000/svg"
  xmlns="http://www.w3.org/2000/svg"
  xmlns:xlink="http://www.w3.org/1999/xlink"
  version="1.1"
  width="100.4062mm" height="28.6512mm" viewBox="0.0000 0.0000 100.4062 28.6512">
<title>SVG Image created as ltc2875-s8.svg date 2024/01/16 15:10:34 </title>
  <desc>Image generated by Eeschema-SVG </desc>
<g style="fill:#000000; fill-opacity:1.0000;stroke:#000000; stroke-opacity:1.0000;
stroke-linecap:round; stroke-linejoin:round;"
 transform="translate(0 0) scale(1 1)">
</g>
<g style="fill:#840000; fill-opacity:0.0; 
stroke:#840000; stroke-width:0.0000; stroke-opacity:1; 
stroke-linecap:round; stroke-linejoin:round;">
</g>
<g style="fill:#FFFFC2; fill-opacity:0.0; 
stroke:#FFFFC2; stroke-width:0.0000; stroke-opacity:1; 
stroke-linecap:round; stroke-linejoin:round;">
</g>
<g style="fill:#FFFFC2; fill-opacity:1.0000; 
stroke:#FFFFC2; stroke-width:0.0000; stroke-opacity:1; 
stroke-linecap:round; stroke-linejoin:round;">
<rect x="40.043100" y="6.705600" width="20.320000" height="15.240000" rx="0.000000" />
</g>
<g style="fill:#840084; fill-opacity:1.0000; 
stroke:#840084; stroke-width:0.0000; stroke-opacity:1; 
stroke-linecap:round; stroke-linejoin:round;">
</g>
<g style="fill:#840000; fill-opacity:1.0000; 
stroke:#840000; stroke-width:0.0000; stroke-opacity:1; 
stroke-linecap:round; stroke-linejoin:round;">
</g>
<g style="fill:#840000; fill-opacity:0.0; 
stroke:#840000; stroke-width:0.2540; stroke-opacity:1; 
stroke-linecap:round; stroke-linejoin:round;">
<rect x="40.043100" y="6.705600" width="20.320000" height="15.240000" rx="0.000000" />
</g>
<g style="fill:#840000; fill-opacity:0.0; 
stroke:#840000; stroke-width:0.1524; stroke-opacity:1; 
stroke-linecap:round; stroke-linejoin:round;">
<path d="M40.0431 9.2456
L37.5031 9.2456
" />
</g>
<g style="fill:#006464; fill-opacity:0.0; 
stroke:#006464; stroke-width:0.1524; stroke-opacity:1; 
stroke-linecap:round; stroke-linejoin:round;">
<text x="41.0591" y="9.8806"
textLength="3.6503" font-size="1.6933" lengthAdjust="spacingAndGlyphs"
text-anchor="start" opacity="0">TXD</text>
<g class="stroked-text"><desc>TXD</desc>
<path d="M41.2802 8.5551
L42.0059 8.5551
" />
<path d="M41.6431 9.8251
L41.6431 8.5551
" />
<path d="M42.3083 8.5551
L43.1549 9.8251
" />
<path d="M43.1549 8.5551
L42.3083 9.8251
" />
<path d="M43.6387 9.8251
L43.6387 8.5551
" />
<path d="M43.6387 8.5551
L43.9411 8.5551
" />
<path d="M43.9411 8.5551
L44.1225 8.6156
" />
<path d="M44.1225 8.6156
L44.2435 8.7366
" />
<path d="M44.2435 8.7366
L44.3040 8.8575
" />
<path d="M44.3040 8.8575
L44.3644 9.0994
" />
<path d="M44.3644 9.0994
L44.3644 9.2808
" />
<path d="M44.3644 9.2808
L44.3040 9.5227
" />
<path d="M44.3040 9.5227
L44.2435 9.6437
" />
<path d="M44.2435 9.6437
L44.1225 9.7647
" />
<path d="M44.1225 9.7647
L43.9411 9.8251
" />
<path d="M43.9411 9.8251
L43.6387 9.8251
" />
</g></g>
<g style="fill:#A90000; fill-opacity:0.0; 
stroke:#A90000; stroke-width:0.1524; stroke-opacity:1; 
stroke-linecap:round; stroke-linejoin:round;">
<text x="38.7731" y="8.9916"
textLength="1.4127" font-size="1.6933" lengthAdjust="spacingAndGlyphs"
text-anchor="middle" opacity="0">1</text>
<g class="stroked-text"><desc>1</desc>
<path d="M39.1360 8.8281
L38.4103 8.8281
" />
<path d="M38.7731 8.8281
L38.7731 7.5581
" />
<path d="M38.7731 7.5581
L38.6522 7.7396
" />
<path d="M38.6522 7.7396
L38.5312 7.8605
" />
<path d="M38.5312 7.8605
L38.4103 7.9210
" />
</g></g>
<g style="fill:#840000; fill-opacity:0.0; 
stroke:#840000; stroke-width:0.1524; stroke-opacity:1; 
stroke-linecap:round; stroke-linejoin:round;">
<path d="M50.2031 21.9456
L50.2031 24.4856
" />
</g>
<g style="fill:#006464; fill-opacity:0.0; 
stroke:#006464; stroke-width:0.1524; stroke-opacity:1; 
stroke-linecap:round; stroke-linejoin:round;">
<g transform="rotate(-90.000000 50.2031 20.9296)">
<text x="50.2031" y="21.5646"
textLength="4.0737" font-size="1.6933" lengthAdjust="spacingAndGlyphs"
text-anchor="start" opacity="0">GND</text>
</g>
<g class="stroked-text"><desc>GND</desc>
<path d="M49.5731 19.8617
L49.5126 19.9827
" />
<path d="M49.5126 19.9827
L49.5126 20.1641
" />
<path d="M49.5126 20.1641
L49.5731 20.3455
" />
<path d="M49.5731 20.3455
L49.6941 20.4665
" />
<path d="M49.6941 20.4665
L49.8150 20.5270
" />
<path d="M49.8150 20.5270
L50.0569 20.5874
" />
<path d="M50.0569 20.5874
L50.2383 20.5874
" />
<path d="M50.2383 20.5874
L50.4802 20.5270
" />
<path d="M50.4802 20.5270
L50.6012 20.4665
" />
<path d="M50.6012 20.4665
L50.7222 20.3455
" />
<path d="M50.7222 20.3455
L50.7826 20.1641
" />
<path d="M50.7826 20.1641
L50.7826 20.0432
" />
<path d="M50.7826 20.0432
L50.7222 19.8617
" />
<path d="M50.7222 19.8617
L50.6617 19.8013
" />
<path d="M50.6617 19.8013
L50.2383 19.8013
" />
<path d="M50.2383 19.8013
L50.2383 20.0432
" />
<path d="M50.7826 19.2570
L49.5126 19.2570
" />
<path d="M49.5126 19.2570
L50.7826 18.5313
" />
<path d="M50.7826 18.5313
L49.5126 18.5313
" />
<path d="M50.7826 17.9265
L49.5126 17.9265
" />
<path d="M49.5126 17.9265
L49.5126 17.6241
" />
<path d="M49.5126 17.6241
L49.5731 17.4427
" />
<path d="M49.5731 17.4427
L49.6941 17.3217
" />
<path d="M49.6941 17.3217
L49.8150 17.2612
" />
<path d="M49.8150 17.2612
L50.0569 17.2008
" />
<path d="M50.0569 17.2008
L50.2383 17.2008
" />
<path d="M50.2383 17.2008
L50.4802 17.2612
" />
<path d="M50.4802 17.2612
L50.6012 17.3217
" />
<path d="M50.6012 17.3217
L50.7222 17.4427
" />
<path d="M50.7222 17.4427
L50.7826 17.6241
" />
<path d="M50.7826 17.6241
L50.7826 17.9265
" />
</g></g>
<g style="fill:#A90000; fill-opacity:0.0; 
stroke:#A90000; stroke-width:0.1524; stroke-opacity:1; 
stroke-linecap:round; stroke-linejoin:round;">
<g transform="rotate(-90.000000 49.9491 23.2156)">
<text x="49.9491" y="23.2156"
textLength="1.4127" font-size="1.6933" lengthAdjust="spacingAndGlyphs"
text-anchor="middle" opacity="0">2</text>
</g>
<g class="stroked-text"><desc>2</desc>
<path d="M48.6366 23.5783
L48.5761 23.5179
" />
<path d="M48.5761 23.5179
L48.5156 23.3969
" />
<path d="M48.5156 23.3969
L48.5156 23.0945
" />
<path d="M48.5156 23.0945
L48.5761 22.9736
" />
<path d="M48.5761 22.9736
L48.6366 22.9131
" />
<path d="M48.6366 22.9131
L48.7575 22.8526
" />
<path d="M48.7575 22.8526
L48.8785 22.8526
" />
<path d="M48.8785 22.8526
L49.0599 22.9131
" />
<path d="M49.0599 22.9131
L49.7856 23.6388
" />
<path d="M49.7856 23.6388
L49.7856 22.8526
" />
</g></g>
<g style="fill:#840000; fill-opacity:0.0; 
stroke:#840000; stroke-width:0.1524; stroke-opacity:1; 
stroke-linecap:round; stroke-linejoin:round;">
<path d="M50.2031 6.7056
L50.2031 4.1656
" />
</g>
<g style="fill:#006464; fill-opacity:0.0; 
stroke:#006464; stroke-width:0.1524; stroke-opacity:1; 
stroke-linecap:round; stroke-linejoin:round;">
<g transform="rotate(-90.000000 50.2031 7.7216)">
<text x="50.2031" y="8.3566"
textLength="3.8318" font-size="1.6933" lengthAdjust="spacingAndGlyphs"
text-anchor="end" opacity="0">VCC</text>
</g>
<g class="stroked-text"><desc>VCC</desc>
<path d="M49.5126 11.3294
L50.7826 10.9061
" />
<path d="M50.7826 10.9061
L49.5126 10.4827
" />
<path d="M50.6617 9.3337
L50.7222 9.3941
" />
<path d="M50.7222 9.3941
L50.7826 9.5756
" />
<path d="M50.7826 9.5756
L50.7826 9.6965
" />
<path d="M50.7826 9.6965
L50.7222 9.8779
" />
<path d="M50.7222 9.8779
L50.6012 9.9989
" />
<path d="M50.6012 9.9989
L50.4802 10.0594
" />
<path d="M50.4802 10.0594
L50.2383 10.1198
" />
<path d="M50.2383 10.1198
L50.0569 10.1198
" />
<path d="M50.0569 10.1198
L49.8150 10.0594
" />
<path d="M49.8150 10.0594
L49.6941 9.9989
" />
<path d="M49.6941 9.9989
L49.5731 9.8779
" />
<path d="M49.5731 9.8779
L49.5126 9.6965
" />
<path d="M49.5126 9.6965
L49.5126 9.5756
" />
<path d="M49.5126 9.5756
L49.5731 9.3941
" />
<path d="M49.5731 9.3941
L49.6336 9.3337
" />
<path d="M50.6617 8.0637
L50.7222 8.1241
" />
<path d="M50.7222 8.1241
L50.7826 8.3056
" />
<path d="M50.7826 8.3056
L50.7826 8.4265
" />
<path d="M50.7826 8.4265
L50.7222 8.6079
" />
<path d="M50.7222 8.6079
L50.6012 8.7289
" />
<path d="M50.6012 8.7289
L50.4802 8.7894
" />
<path d="M50.4802 8.7894
L50.2383 8.8498
" />
<path d="M50.2383 8.8498
L50.0569 8.8498
" />
<path d="M50.0569 8.8498
L49.8150 8.7894
" />
<path d="M49.8150 8.7894
L49.6941 8.7289
" />
<path d="M49.6941 8.7289
L49.5731 8.6079
" />
<path d="M49.5731 8.6079
L49.5126 8.4265
" />
<path d="M49.5126 8.4265
L49.5126 8.3056
" />
<path d="M49.5126 8.3056
L49.5731 8.1241
" />
<path d="M49.5731 8.1241
L49.6336 8.0637
" />
</g></g>
<g style="fill:#A90000; fill-opacity:0.0; 
stroke:#A90000; stroke-width:0.1524; stroke-opacity:1; 
stroke-linecap:round; stroke-linejoin:round;">
<g transform="rotate(-90.000000 49.9491 5.4356)">
<text x="49.9491" y="5.4356"
textLength="1.4127" font-size="1.6933" lengthAdjust="spacingAndGlyphs"
text-anchor="middle" opacity="0">3</text>
</g>
<g class="stroked-text"><desc>3</desc>
<path d="M48.5156 5.8588
L48.5156 5.0726
" />
<path d="M48.5156 5.0726
L48.9994 5.4960
" />
<path d="M48.9994 5.4960
L48.9994 5.3145
" />
<path d="M48.9994 5.3145
L49.0599 5.1936
" />
<path d="M49.0599 5.1936
L49.1204 5.1331
" />
<path d="M49.1204 5.1331
L49.2413 5.0726
" />
<path d="M49.2413 5.0726
L49.5437 5.0726
" />
<path d="M49.5437 5.0726
L49.6647 5.1331
" />
<path d="M49.6647 5.1331
L49.7252 5.1936
" />
<path d="M49.7252 5.1936
L49.7856 5.3145
" />
<path d="M49.7856 5.3145
L49.7856 5.6774
" />
<path d="M49.7856 5.6774
L49.7252 5.7983
" />
<path d="M49.7252 5.7983
L49.6647 5.8588
" />
</g></g>
<g style="fill:#840000; fill-opacity:0.0; 
stroke:#840000; stroke-width:0.1524; stroke-opacity:1; 
stroke-linecap:round; stroke-linejoin:round;">
<path d="M40.0431 11.7856
L37.5031 11.7856
" />
</g>
<g style="fill:#006464; fill-opacity:0.0; 
stroke:#006464; stroke-width:0.1524; stroke-opacity:1; 
stroke-linecap:round; stroke-linejoin:round;">
<text x="41.0591" y="12.4206"
textLength="3.9527" font-size="1.6933" lengthAdjust="spacingAndGlyphs"
text-anchor="start" opacity="0">RXD</text>
<g class="stroked-text"><desc>RXD</desc>
<path d="M42.1873 12.3651
L41.7640 11.7604
" />
<path d="M41.4616 12.3651
L41.4616 11.0951
" />
<path d="M41.4616 11.0951
L41.9454 11.0951
" />
<path d="M41.9454 11.0951
L42.0664 11.1556
" />
<path d="M42.0664 11.1556
L42.1269 11.2161
" />
<path d="M42.1269 11.2161
L42.1873 11.3370
" />
<path d="M42.1873 11.3370
L42.1873 11.5185
" />
<path d="M42.1873 11.5185
L42.1269 11.6394
" />
<path d="M42.1269 11.6394
L42.0664 11.6999
" />
<path d="M42.0664 11.6999
L41.9454 11.7604
" />
<path d="M41.9454 11.7604
L41.4616 11.7604
" />
<path d="M42.6107 11.0951
L43.4573 12.3651
" />
<path d="M43.4573 11.0951
L42.6107 12.3651
" />
<path d="M43.9411 12.3651
L43.9411 11.0951
" />
<path d="M43.9411 11.0951
L44.2435 11.0951
" />
<path d="M44.2435 11.0951
L44.4249 11.1556
" />
<path d="M44.4249 11.1556
L44.5459 11.2766
" />
<path d="M44.5459 11.2766
L44.6064 11.3975
" />
<path d="M44.6064 11.3975
L44.6668 11.6394
" />
<path d="M44.6668 11.6394
L44.6668 11.8208
" />
<path d="M44.6668 11.8208
L44.6064 12.0627
" />
<path d="M44.6064 12.0627
L44.5459 12.1837
" />
<path d="M44.5459 12.1837
L44.4249 12.3047
" />
<path d="M44.4249 12.3047
L44.2435 12.3651
" />
<path d="M44.2435 12.3651
L43.9411 12.3651
" />
</g></g>
<g style="fill:#A90000; fill-opacity:0.0; 
stroke:#A90000; stroke-width:0.1524; stroke-opacity:1; 
stroke-linecap:round; stroke-linejoin:round;">
<text x="38.7731" y="11.5316"
textLength="1.4127" font-size="1.6933" lengthAdjust="spacingAndGlyphs"
text-anchor="middle" opacity="0">4</text>
<g class="stroked-text"><desc>4</desc>
<path d="M39.0150 10.5215
L39.0150 11.3681
" />
<path d="M38.7126 10.0377
L38.4103 10.9448
" />
<path d="M38.4103 10.9448
L39.1964 10.9448
" />
</g></g>
<g style="fill:#840000; fill-opacity:0.0; 
stroke:#840000; stroke-width:0.1524; stroke-opacity:1; 
stroke-linecap:round; stroke-linejoin:round;">
<path d="M60.3631 14.3256
L62.9031 14.3256
" />
</g>
<g style="fill:#006464; fill-opacity:0.0; 
stroke:#006464; stroke-width:0.1524; stroke-opacity:1; 
stroke-linecap:round; stroke-linejoin:round;">
<text x="59.3471" y="14.9606"
textLength="5.2832" font-size="1.6933" lengthAdjust="spacingAndGlyphs"
text-anchor="end" opacity="0">SPLIT</text>
<g class="stroked-text"><desc>SPLIT</desc>
<path d="M54.4088 14.8447
L54.5902 14.9051
" />
<path d="M54.5902 14.9051
L54.8926 14.9051
" />
<path d="M54.8926 14.9051
L55.0135 14.8447
" />
<path d="M55.0135 14.8447
L55.0740 14.7842
" />
<path d="M55.0740 14.7842
L55.1345 14.6632
" />
<path d="M55.1345 14.6632
L55.1345 14.5423
" />
<path d="M55.1345 14.5423
L55.0740 14.4213
" />
<path d="M55.0740 14.4213
L55.0135 14.3608
" />
<path d="M55.0135 14.3608
L54.8926 14.3004
" />
<path d="M54.8926 14.3004
L54.6507 14.2399
" />
<path d="M54.6507 14.2399
L54.5297 14.1794
" />
<path d="M54.5297 14.1794
L54.4692 14.1189
" />
<path d="M54.4692 14.1189
L54.4088 13.9980
" />
<path d="M54.4088 13.9980
L54.4088 13.8770
" />
<path d="M54.4088 13.8770
L54.4692 13.7561
" />
<path d="M54.4692 13.7561
L54.5297 13.6956
" />
<path d="M54.5297 13.6956
L54.6507 13.6351
" />
<path d="M54.6507 13.6351
L54.9530 13.6351
" />
<path d="M54.9530 13.6351
L55.1345 13.6956
" />
<path d="M55.6787 14.9051
L55.6787 13.6351
" />
<path d="M55.6787 13.6351
L56.1625 13.6351
" />
<path d="M56.1625 13.6351
L56.2835 13.6956
" />
<path d="M56.2835 13.6956
L56.3440 13.7561
" />
<path d="M56.3440 13.7561
L56.4044 13.8770
" />
<path d="M56.4044 13.8770
L56.4044 14.0585
" />
<path d="M56.4044 14.0585
L56.3440 14.1794
" />
<path d="M56.3440 14.1794
L56.2835 14.2399
" />
<path d="M56.2835 14.2399
L56.1625 14.3004
" />
<path d="M56.1625 14.3004
L55.6787 14.3004
" />
<path d="M57.5535 14.9051
L56.9487 14.9051
" />
<path d="M56.9487 14.9051
L56.9487 13.6351
" />
<path d="M57.9768 14.9051
L57.9768 13.6351
" />
<path d="M58.4002 13.6351
L59.1259 13.6351
" />
<path d="M58.7631 14.9051
L58.7631 13.6351
" />
</g></g>
<g style="fill:#A90000; fill-opacity:0.0; 
stroke:#A90000; stroke-width:0.1524; stroke-opacity:1; 
stroke-linecap:round; stroke-linejoin:round;">
<text x="61.6331" y="14.0716"
textLength="1.4127" font-size="1.6933" lengthAdjust="spacingAndGlyphs"
text-anchor="middle" opacity="0">5</text>
<g class="stroked-text"><desc>5</desc>
<path d="M61.9355 12.6381
L61.3307 12.6381
" />
<path d="M61.3307 12.6381
L61.2703 13.2429
" />
<path d="M61.2703 13.2429
L61.3307 13.1824
" />
<path d="M61.3307 13.1824
L61.4517 13.1219
" />
<path d="M61.4517 13.1219
L61.7541 13.1219
" />
<path d="M61.7541 13.1219
L61.8750 13.1824
" />
<path d="M61.8750 13.1824
L61.9355 13.2429
" />
<path d="M61.9355 13.2429
L61.9960 13.3638
" />
<path d="M61.9960 13.3638
L61.9960 13.6662
" />
<path d="M61.9960 13.6662
L61.9355 13.7872
" />
<path d="M61.9355 13.7872
L61.8750 13.8477
" />
<path d="M61.8750 13.8477
L61.7541 13.9081
" />
<path d="M61.7541 13.9081
L61.4517 13.9081
" />
<path d="M61.4517 13.9081
L61.3307 13.8477
" />
<path d="M61.3307 13.8477
L61.2703 13.7872
" />
</g></g>
<g style="fill:#840000; fill-opacity:0.0; 
stroke:#840000; stroke-width:0.1524; stroke-opacity:1; 
stroke-linecap:round; stroke-linejoin:round;">
<path d="M60.3631 16.8656
L62.9031 16.8656
" />
</g>
<g style="fill:#006464; fill-opacity:0.0; 
stroke:#006464; stroke-width:0.1524; stroke-opacity:1; 
stroke-linecap:round; stroke-linejoin:round;">
<text x="59.3471" y="17.5006"
textLength="4.9204" font-size="1.6933" lengthAdjust="spacingAndGlyphs"
text-anchor="end" opacity="0">CANL</text>
<g class="stroked-text"><desc>CANL</desc>
<path d="M55.5577 17.3242
L55.4973 17.3847
" />
<path d="M55.4973 17.3847
L55.3158 17.4451
" />
<path d="M55.3158 17.4451
L55.1949 17.4451
" />
<path d="M55.1949 17.4451
L55.0135 17.3847
" />
<path d="M55.0135 17.3847
L54.8925 17.2637
" />
<path d="M54.8925 17.2637
L54.8320 17.1427
" />
<path d="M54.8320 17.1427
L54.7716 16.9008
" />
<path d="M54.7716 16.9008
L54.7716 16.7194
" />
<path d="M54.7716 16.7194
L54.8320 16.4775
" />
<path d="M54.8320 16.4775
L54.8925 16.3566
" />
<path d="M54.8925 16.3566
L55.0135 16.2356
" />
<path d="M55.0135 16.2356
L55.1949 16.1751
" />
<path d="M55.1949 16.1751
L55.3158 16.1751
" />
<path d="M55.3158 16.1751
L55.4973 16.2356
" />
<path d="M55.4973 16.2356
L55.5577 16.2961
" />
<path d="M56.0416 17.0823
L56.6463 17.0823
" />
<path d="M55.9206 17.4451
L56.3439 16.1751
" />
<path d="M56.3439 16.1751
L56.7673 17.4451
" />
<path d="M57.1906 17.4451
L57.1906 16.1751
" />
<path d="M57.1906 16.1751
L57.9163 17.4451
" />
<path d="M57.9163 17.4451
L57.9163 16.1751
" />
<path d="M59.1259 17.4451
L58.5211 17.4451
" />
<path d="M58.5211 17.4451
L58.5211 16.1751
" />
</g></g>
<g style="fill:#A90000; fill-opacity:0.0; 
stroke:#A90000; stroke-width:0.1524; stroke-opacity:1; 
stroke-linecap:round; stroke-linejoin:round;">
<text x="61.6331" y="16.6116"
textLength="1.4127" font-size="1.6933" lengthAdjust="spacingAndGlyphs"
text-anchor="middle" opacity="0">6</text>
<g class="stroked-text"><desc>6</desc>
<path d="M61.8750 15.1781
L61.6331 15.1781
" />
<path d="M61.6331 15.1781
L61.5122 15.2386
" />
<path d="M61.5122 15.2386
L61.4517 15.2991
" />
<path d="M61.4517 15.2991
L61.3307 15.4805
" />
<path d="M61.3307 15.4805
L61.2703 15.7224
" />
<path d="M61.2703 15.7224
L61.2703 16.2062
" />
<path d="M61.2703 16.2062
L61.3307 16.3272
" />
<path d="M61.3307 16.3272
L61.3912 16.3877
" />
<path d="M61.3912 16.3877
L61.5122 16.4481
" />
<path d="M61.5122 16.4481
L61.7541 16.4481
" />
<path d="M61.7541 16.4481
L61.8750 16.3877
" />
<path d="M61.8750 16.3877
L61.9355 16.3272
" />
<path d="M61.9355 16.3272
L61.9960 16.2062
" />
<path d="M61.9960 16.2062
L61.9960 15.9038
" />
<path d="M61.9960 15.9038
L61.9355 15.7829
" />
<path d="M61.9355 15.7829
L61.8750 15.7224
" />
<path d="M61.8750 15.7224
L61.7541 15.6619
" />
<path d="M61.7541 15.6619
L61.5122 15.6619
" />
<path d="M61.5122 15.6619
L61.3912 15.7224
" />
<path d="M61.3912 15.7224
L61.3307 15.7829
" />
<path d="M61.3307 15.7829
L61.2703 15.9038
" />
</g></g>
<g style="fill:#840000; fill-opacity:0.0; 
stroke:#840000; stroke-width:0.1524; stroke-opacity:1; 
stroke-linecap:round; stroke-linejoin:round;">
<path d="M60.3631 11.7856
L62.9031 11.7856
" />
</g>
<g style="fill:#006464; fill-opacity:0.0; 
stroke:#006464; stroke-width:0.1524; stroke-opacity:1; 
stroke-linecap:round; stroke-linejoin:round;">
<text x="59.3471" y="12.4206"
textLength="5.2228" font-size="1.6933" lengthAdjust="spacingAndGlyphs"
text-anchor="end" opacity="0">CANH</text>
<g class="stroked-text"><desc>CANH</desc>
<path d="M55.2553 12.2442
L55.1949 12.3047
" />
<path d="M55.1949 12.3047
L55.0134 12.3651
" />
<path d="M55.0134 12.3651
L54.8925 12.3651
" />
<path d="M54.8925 12.3651
L54.7111 12.3047
" />
<path d="M54.7111 12.3047
L54.5901 12.1837
" />
<path d="M54.5901 12.1837
L54.5296 12.0627
" />
<path d="M54.5296 12.0627
L54.4692 11.8208
" />
<path d="M54.4692 11.8208
L54.4692 11.6394
" />
<path d="M54.4692 11.6394
L54.5296 11.3975
" />
<path d="M54.5296 11.3975
L54.5901 11.2766
" />
<path d="M54.5901 11.2766
L54.7111 11.1556
" />
<path d="M54.7111 11.1556
L54.8925 11.0951
" />
<path d="M54.8925 11.0951
L55.0134 11.0951
" />
<path d="M55.0134 11.0951
L55.1949 11.1556
" />
<path d="M55.1949 11.1556
L55.2553 11.2161
" />
<path d="M55.7392 12.0023
L56.3439 12.0023
" />
<path d="M55.6182 12.3651
L56.0415 11.0951
" />
<path d="M56.0415 11.0951
L56.4649 12.3651
" />
<path d="M56.8882 12.3651
L56.8882 11.0951
" />
<path d="M56.8882 11.0951
L57.6139 12.3651
" />
<path d="M57.6139 12.3651
L57.6139 11.0951
" />
<path d="M58.2187 12.3651
L58.2187 11.0951
" />
<path d="M58.2187 11.6999
L58.9444 11.6999
" />
<path d="M58.9444 12.3651
L58.9444 11.0951
" />
</g></g>
<g style="fill:#A90000; fill-opacity:0.0; 
stroke:#A90000; stroke-width:0.1524; stroke-opacity:1; 
stroke-linecap:round; stroke-linejoin:round;">
<text x="61.6331" y="11.5316"
textLength="1.4127" font-size="1.6933" lengthAdjust="spacingAndGlyphs"
text-anchor="middle" opacity="0">7</text>
<g class="stroked-text"><desc>7</desc>
<path d="M61.2098 10.0981
L62.0564 10.0981
" />
<path d="M62.0564 10.0981
L61.5122 11.3681
" />
</g></g>
<g style="fill:#840000; fill-opacity:0.0; 
stroke:#840000; stroke-width:0.1524; stroke-opacity:1; 
stroke-linecap:round; stroke-linejoin:round;">
<path d="M40.0431 19.4056
L37.5031 19.4056
" />
</g>
<g style="fill:#006464; fill-opacity:0.0; 
stroke:#006464; stroke-width:0.1524; stroke-opacity:1; 
stroke-linecap:round; stroke-linejoin:round;">
<text x="41.0591" y="20.0406"
textLength="2.6827" font-size="1.6933" lengthAdjust="spacingAndGlyphs"
text-anchor="start" opacity="0">RS</text>
<g class="stroked-text"><desc>RS</desc>
<path d="M42.1873 19.9851
L41.7640 19.3804
" />
<path d="M41.4616 19.9851
L41.4616 18.7151
" />
<path d="M41.4616 18.7151
L41.9454 18.7151
" />
<path d="M41.9454 18.7151
L42.0664 18.7756
" />
<path d="M42.0664 18.7756
L42.1269 18.8361
" />
<path d="M42.1269 18.8361
L42.1873 18.9570
" />
<path d="M42.1873 18.9570
L42.1873 19.1385
" />
<path d="M42.1873 19.1385
L42.1269 19.2594
" />
<path d="M42.1269 19.2594
L42.0664 19.3199
" />
<path d="M42.0664 19.3199
L41.9454 19.3804
" />
<path d="M41.9454 19.3804
L41.4616 19.3804
" />
<path d="M42.6712 19.9247
L42.8526 19.9851
" />
<path d="M42.8526 19.9851
L43.1550 19.9851
" />
<path d="M43.1550 19.9851
L43.2759 19.9247
" />
<path d="M43.2759 19.9247
L43.3364 19.8642
" />
<path d="M43.3364 19.8642
L43.3969 19.7432
" />
<path d="M43.3969 19.7432
L43.3969 19.6223
" />
<path d="M43.3969 19.6223
L43.3364 19.5013
" />
<path d="M43.3364 19.5013
L43.2759 19.4408
" />
<path d="M43.2759 19.4408
L43.1550 19.3804
" />
<path d="M43.1550 19.3804
L42.9131 19.3199
" />
<path d="M42.9131 19.3199
L42.7921 19.2594
" />
<path d="M42.7921 19.2594
L42.7316 19.1989
" />
<path d="M42.7316 19.1989
L42.6712 19.0780
" />
<path d="M42.6712 19.0780
L42.6712 18.9570
" />
<path d="M42.6712 18.9570
L42.7316 18.8361
" />
<path d="M42.7316 18.8361
L42.7921 18.7756
" />
<path d="M42.7921 18.7756
L42.9131 18.7151
" />
<path d="M42.9131 18.7151
L43.2154 18.7151
" />
<path d="M43.2154 18.7151
L43.3969 18.7756
" />
</g></g>
<g style="fill:#A90000; fill-opacity:0.0; 
stroke:#A90000; stroke-width:0.1524; stroke-opacity:1; 
stroke-linecap:round; stroke-linejoin:round;">
<text x="38.7731" y="19.1516"
textLength="1.4127" font-size="1.6933" lengthAdjust="spacingAndGlyphs"
text-anchor="middle" opacity="0">8</text>
<g class="stroked-text"><desc>8</desc>
<path d="M38.6522 18.2624
L38.5312 18.2019
" />
<path d="M38.5312 18.2019
L38.4707 18.1415
" />
<path d="M38.4707 18.1415
L38.4103 18.0205
" />
<path d="M38.4103 18.0205
L38.4103 17.9600
" />
<path d="M38.4103 17.9600
L38.4707 17.8391
" />
<path d="M38.4707 17.8391
L38.5312 17.7786
" />
<path d="M38.5312 17.7786
L38.6522 17.7181
" />
<path d="M38.6522 17.7181
L38.8941 17.7181
" />
<path d="M38.8941 17.7181
L39.0150 17.7786
" />
<path d="M39.0150 17.7786
L39.0755 17.8391
" />
<path d="M39.0755 17.8391
L39.1360 17.9600
" />
<path d="M39.1360 17.9600
L39.1360 18.0205
" />
<path d="M39.1360 18.0205
L39.0755 18.1415
" />
<path d="M39.0755 18.1415
L39.0150 18.2019
" />
<path d="M39.0150 18.2019
L38.8941 18.2624
" />
<path d="M38.8941 18.2624
L38.6522 18.2624
" />
<path d="M38.6522 18.2624
L38.5312 18.3229
" />
<path d="M38.5312 18.3229
L38.4707 18.3834
" />
<path d="M38.4707 18.3834
L38.4103 18.5043
" />
<path d="M38.4103 18.5043
L38.4103 18.7462
" />
<path d="M38.4103 18.7462
L38.4707 18.8672
" />
<path d="M38.4707 18.8672
L38.5312 18.9277
" />
<path d="M38.5312 18.9277
L38.6522 18.9881
" />
<path d="M38.6522 18.9881
L38.8941 18.9881
" />
<path d="M38.8941 18.9881
L39.0150 18.9277
" />
<path d="M39.0150 18.9277
L39.0755 18.8672
" />
<path d="M39.0755 18.8672
L39.1360 18.7462
" />
<path d="M39.1360 18.7462
L39.1360 18.5043
" />
<path d="M39.1360 18.5043
L39.0755 18.3834
" />
<path d="M39.0755 18.3834
L39.0150 18.3229
" />
<path d="M39.0150 18.3229
L38.8941 18.2624
" />
</g></g>
<g style="fill:#840084; fill-opacity:0.0; 
stroke:#840084; stroke-width:0.1524; stroke-opacity:1; 
stroke-linecap:round; stroke-linejoin:round;">
</g>
<g style="fill:#006464; fill-opacity:0.0; 
stroke:#006464; stroke-width:0.1524; stroke-opacity:1; 
stroke-linecap:round; stroke-linejoin:round;">
</g>
<g style="fill:#006464; fill-opacity:0.0; 
stroke:#006464; stroke-width:0.1588; stroke-opacity:1; 
stroke-linecap:round; stroke-linejoin:round;">
<text x="41.3638" y="6.0706"
textLength="2.6415" font-size="1.6933" lengthAdjust="spacingAndGlyphs"
text-anchor="middle" opacity="0">U?</text>
<g class="stroked-text"><desc>U?</desc>
<path d="M40.4566 4.7448
L40.4566 5.7729
" />
<path d="M40.4566 5.7729
L40.5171 5.8939
" />
<path d="M40.5171 5.8939
L40.5776 5.9544
" />
<path d="M40.5776 5.9544
L40.6985 6.0148
" />
<path d="M40.6985 6.0148
L40.9404 6.0148
" />
<path d="M40.9404 6.0148
L41.0614 5.9544
" />
<path d="M41.0614 5.9544
L41.1219 5.8939
" />
<path d="M41.1219 5.8939
L41.1823 5.7729
" />
<path d="M41.1823 5.7729
L41.1823 4.7448
" />
<path d="M41.9686 5.8939
L42.0290 5.9544
" />
<path d="M42.0290 5.9544
L41.9686 6.0148
" />
<path d="M41.9686 6.0148
L41.9081 5.9544
" />
<path d="M41.9081 5.9544
L41.9686 5.8939
" />
<path d="M41.9686 5.8939
L41.9686 6.0148
" />
<path d="M41.7267 4.8053
L41.8476 4.7448
" />
<path d="M41.8476 4.7448
L42.1500 4.7448
" />
<path d="M42.1500 4.7448
L42.2709 4.8053
" />
<path d="M42.2709 4.8053
L42.3314 4.9263
" />
<path d="M42.3314 4.9263
L42.3314 5.0472
" />
<path d="M42.3314 5.0472
L42.2709 5.1682
" />
<path d="M42.2709 5.1682
L42.2105 5.2286
" />
<path d="M42.2105 5.2286
L42.0895 5.2891
" />
<path d="M42.0895 5.2891
L42.0290 5.3496
" />
<path d="M42.0290 5.3496
L41.9686 5.4705
" />
<path d="M41.9686 5.4705
L41.9686 5.5310
" />
</g><text x="58.9018" y="6.0706"
textLength="12.3175" font-size="1.6933" lengthAdjust="spacingAndGlyphs"
text-anchor="middle" opacity="0">LTC2875-S8</text>
<g class="stroked-text"><desc>LTC2875-S8</desc>
<path d="M53.7614 6.0148
L53.1566 6.0148
" />
<path d="M53.1566 6.0148
L53.1566 4.7448
" />
<path d="M54.0033 4.7448
L54.7290 4.7448
" />
<path d="M54.3662 6.0148
L54.3662 4.7448
" />
<path d="M55.8780 5.8939
L55.8176 5.9544
" />
<path d="M55.8176 5.9544
L55.6361 6.0148
" />
<path d="M55.6361 6.0148
L55.5152 6.0148
" />
<path d="M55.5152 6.0148
L55.3338 5.9544
" />
<path d="M55.3338 5.9544
L55.2128 5.8334
" />
<path d="M55.2128 5.8334
L55.1523 5.7124
" />
<path d="M55.1523 5.7124
L55.0919 5.4705
" />
<path d="M55.0919 5.4705
L55.0919 5.2891
" />
<path d="M55.0919 5.2891
L55.1523 5.0472
" />
<path d="M55.1523 5.0472
L55.2128 4.9263
" />
<path d="M55.2128 4.9263
L55.3338 4.8053
" />
<path d="M55.3338 4.8053
L55.5152 4.7448
" />
<path d="M55.5152 4.7448
L55.6361 4.7448
" />
<path d="M55.6361 4.7448
L55.8176 4.8053
" />
<path d="M55.8176 4.8053
L55.8780 4.8658
" />
<path d="M56.3619 4.8658
L56.4223 4.8053
" />
<path d="M56.4223 4.8053
L56.5433 4.7448
" />
<path d="M56.5433 4.7448
L56.8457 4.7448
" />
<path d="M56.8457 4.7448
L56.9666 4.8053
" />
<path d="M56.9666 4.8053
L57.0271 4.8658
" />
<path d="M57.0271 4.8658
L57.0876 4.9867
" />
<path d="M57.0876 4.9867
L57.0876 5.1077
" />
<path d="M57.0876 5.1077
L57.0271 5.2891
" />
<path d="M57.0271 5.2891
L56.3014 6.0148
" />
<path d="M56.3014 6.0148
L57.0876 6.0148
" />
<path d="M57.8133 5.2891
L57.6923 5.2286
" />
<path d="M57.6923 5.2286
L57.6318 5.1682
" />
<path d="M57.6318 5.1682
L57.5714 5.0472
" />
<path d="M57.5714 5.0472
L57.5714 4.9867
" />
<path d="M57.5714 4.9867
L57.6318 4.8658
" />
<path d="M57.6318 4.8658
L57.6923 4.8053
" />
<path d="M57.6923 4.8053
L57.8133 4.7448
" />
<path d="M57.8133 4.7448
L58.0552 4.7448
" />
<path d="M58.0552 4.7448
L58.1761 4.8053
" />
<path d="M58.1761 4.8053
L58.2366 4.8658
" />
<path d="M58.2366 4.8658
L58.2971 4.9867
" />
<path d="M58.2971 4.9867
L58.2971 5.0472
" />
<path d="M58.2971 5.0472
L58.2366 5.1682
" />
<path d="M58.2366 5.1682
L58.1761 5.2286
" />
<path d="M58.1761 5.2286
L58.0552 5.2891
" />
<path d="M58.0552 5.2891
L57.8133 5.2891
" />
<path d="M57.8133 5.2891
L57.6923 5.3496
" />
<path d="M57.6923 5.3496
L57.6318 5.4101
" />
<path d="M57.6318 5.4101
L57.5714 5.5310
" />
<path d="M57.5714 5.5310
L57.5714 5.7729
" />
<path d="M57.5714 5.7729
L57.6318 5.8939
" />
<path d="M57.6318 5.8939
L57.6923 5.9544
" />
<path d="M57.6923 5.9544
L57.8133 6.0148
" />
<path d="M57.8133 6.0148
L58.0552 6.0148
" />
<path d="M58.0552 6.0148
L58.1761 5.9544
" />
<path d="M58.1761 5.9544
L58.2366 5.8939
" />
<path d="M58.2366 5.8939
L58.2971 5.7729
" />
<path d="M58.2971 5.7729
L58.2971 5.5310
" />
<path d="M58.2971 5.5310
L58.2366 5.4101
" />
<path d="M58.2366 5.4101
L58.1761 5.3496
" />
<path d="M58.1761 5.3496
L58.0552 5.2891
" />
<path d="M58.7204 4.7448
L59.5670 4.7448
" />
<path d="M59.5670 4.7448
L59.0228 6.0148
" />
<path d="M60.6556 4.7448
L60.0508 4.7448
" />
<path d="M60.0508 4.7448
L59.9904 5.3496
" />
<path d="M59.9904 5.3496
L60.0508 5.2891
" />
<path d="M60.0508 5.2891
L60.1718 5.2286
" />
<path d="M60.1718 5.2286
L60.4742 5.2286
" />
<path d="M60.4742 5.2286
L60.5951 5.2891
" />
<path d="M60.5951 5.2891
L60.6556 5.3496
" />
<path d="M60.6556 5.3496
L60.7161 5.4705
" />
<path d="M60.7161 5.4705
L60.7161 5.7729
" />
<path d="M60.7161 5.7729
L60.6556 5.8939
" />
<path d="M60.6556 5.8939
L60.5951 5.9544
" />
<path d="M60.5951 5.9544
L60.4742 6.0148
" />
<path d="M60.4742 6.0148
L60.1718 6.0148
" />
<path d="M60.1718 6.0148
L60.0508 5.9544
" />
<path d="M60.0508 5.9544
L59.9904 5.8939
" />
<path d="M61.2603 5.5310
L62.2280 5.5310
" />
<path d="M62.7723 5.9544
L62.9537 6.0148
" />
<path d="M62.9537 6.0148
L63.2561 6.0148
" />
<path d="M63.2561 6.0148
L63.3770 5.9544
" />
<path d="M63.3770 5.9544
L63.4375 5.8939
" />
<path d="M63.4375 5.8939
L63.4980 5.7729
" />
<path d="M63.4980 5.7729
L63.4980 5.6520
" />
<path d="M63.4980 5.6520
L63.4375 5.5310
" />
<path d="M63.4375 5.5310
L63.3770 5.4705
" />
<path d="M63.3770 5.4705
L63.2561 5.4101
" />
<path d="M63.2561 5.4101
L63.0142 5.3496
" />
<path d="M63.0142 5.3496
L62.8932 5.2891
" />
<path d="M62.8932 5.2891
L62.8327 5.2286
" />
<path d="M62.8327 5.2286
L62.7723 5.1077
" />
<path d="M62.7723 5.1077
L62.7723 4.9867
" />
<path d="M62.7723 4.9867
L62.8327 4.8658
" />
<path d="M62.8327 4.8658
L62.8932 4.8053
" />
<path d="M62.8932 4.8053
L63.0142 4.7448
" />
<path d="M63.0142 4.7448
L63.3165 4.7448
" />
<path d="M63.3165 4.7448
L63.4980 4.8053
" />
<path d="M64.2237 5.2891
L64.1027 5.2286
" />
<path d="M64.1027 5.2286
L64.0422 5.1682
" />
<path d="M64.0422 5.1682
L63.9818 5.0472
" />
<path d="M63.9818 5.0472
L63.9818 4.9867
" />
<path d="M63.9818 4.9867
L64.0422 4.8658
" />
<path d="M64.0422 4.8658
L64.1027 4.8053
" />
<path d="M64.1027 4.8053
L64.2237 4.7448
" />
<path d="M64.2237 4.7448
L64.4656 4.7448
" />
<path d="M64.4656 4.7448
L64.5865 4.8053
" />
<path d="M64.5865 4.8053
L64.6470 4.8658
" />
<path d="M64.6470 4.8658
L64.7075 4.9867
" />
<path d="M64.7075 4.9867
L64.7075 5.0472
" />
<path d="M64.7075 5.0472
L64.6470 5.1682
" />
<path d="M64.6470 5.1682
L64.5865 5.2286
" />
<path d="M64.5865 5.2286
L64.4656 5.2891
" />
<path d="M64.4656 5.2891
L64.2237 5.2891
" />
<path d="M64.2237 5.2891
L64.1027 5.3496
" />
<path d="M64.1027 5.3496
L64.0422 5.4101
" />
<path d="M64.0422 5.4101
L63.9818 5.5310
" />
<path d="M63.9818 5.5310
L63.9818 5.7729
" />
<path d="M63.9818 5.7729
L64.0422 5.8939
" />
<path d="M64.0422 5.8939
L64.1027 5.9544
" />
<path d="M64.1027 5.9544
L64.2237 6.0148
" />
<path d="M64.2237 6.0148
L64.4656 6.0148
" />
<path d="M64.4656 6.0148
L64.5865 5.9544
" />
<path d="M64.5865 5.9544
L64.6470 5.8939
" />
<path d="M64.6470 5.8939
L64.7075 5.7729
" />
<path d="M64.7075 5.7729
L64.7075 5.5310
" />
<path d="M64.7075 5.5310
L64.6470 5.4101
" />
<path d="M64.6470 5.4101
L64.5865 5.3496
" />
<path d="M64.5865 5.3496
L64.4656 5.2891
" />
</g></g> 
</svg>
