<?xml version="1.0" standalone="no"?>
 <!DOCTYPE svg PUBLIC "-//W3C//DTD SVG 1.1//EN" 
 "http://www.w3.org/Graphics/SVG/1.1/DTD/svg11.dtd"> 
<svg
  xmlns:svg="http://www.w3.org/2000/svg"
  xmlns="http://www.w3.org/2000/svg"
  xmlns:xlink="http://www.w3.org/1999/xlink"
  version="1.1"
  width="44.2976mm" height="9.6520mm" viewBox="0.0000 0.0000 44.2976 9.6520">
<title>SVG Image created as JST_SH_SM07B-SRSS-TB_1x07-1MP_P1.00mm_Horizontal.svg date 2024/01/16 15:05:30 </title>
  <desc>Image generated by PCBNEW </desc>
<g style="fill:#000000; fill-opacity:1.0000;stroke:#000000; stroke-opacity:1.0000;
stroke-linecap:round; stroke-linejoin:round;"
 transform="translate(0 0) scale(1 1)">
</g>
<g style="fill:#000000; fill-opacity:0.0; 
stroke:#000000; stroke-width:0.0000; stroke-opacity:1; 
stroke-linecap:round; stroke-linejoin:round;">
</g>
<g style="fill:#000000; fill-opacity:1.0000; 
stroke:#000000; stroke-width:0.0212; stroke-opacity:1; 
stroke-linecap:round; stroke-linejoin:round;">
<rect x="-5.000000" y="-5.000000" width="54.297621" height="19.656500" rx="0.000000" />
</g>
<g style="fill:#FFFFFF; fill-opacity:1.0000; 
stroke:#FFFFFF; stroke-width:0.0212; stroke-opacity:1; 
stroke-linecap:round; stroke-linejoin:round;">
<g >
</g>
<g >
</g>
<g >
</g>
<g >
</g>
</g>
<g style="fill:#FFFFFF; fill-opacity:1.0000; 
stroke:#FFFFFF; stroke-width:0.0212; stroke-opacity:1; 
stroke-linecap:round; stroke-linejoin:round;">
<g >
</g>
<g >
</g>
<g >
</g>
<g >
</g>
</g>
<g style="fill:#FFFFFF; fill-opacity:1.0000; 
stroke:#FFFFFF; stroke-width:0.0212; stroke-opacity:1; 
stroke-linecap:round; stroke-linejoin:round;">
<g >
</g>
<g >
</g>
<g >
</g>
<g >
</g>
</g>
<g style="fill:#FFFFFF; fill-opacity:1.0000; 
stroke:#FFFFFF; stroke-width:0.0212; stroke-opacity:1; 
stroke-linecap:round; stroke-linejoin:round;">
<g >
</g>
<g >
</g>
<g >
</g>
<g >
</g>
</g>
<g style="fill:#FFFFFF; fill-opacity:1.0000; 
stroke:#FFFFFF; stroke-width:0.0212; stroke-opacity:1; 
stroke-linecap:round; stroke-linejoin:round;">
<g >
</g>
<g >
</g>
<g >
</g>
<g >
</g>
</g>
<g style="fill:#FFFFFF; fill-opacity:1.0000; 
stroke:#FFFFFF; stroke-width:0.0212; stroke-opacity:1; 
stroke-linecap:round; stroke-linejoin:round;">
<g >
</g>
<g >
</g>
<g >
</g>
<g >
</g>
</g>
<g style="fill:#FFFFFF; fill-opacity:1.0000; 
stroke:#FFFFFF; stroke-width:0.0212; stroke-opacity:1; 
stroke-linecap:round; stroke-linejoin:round;">
<g >
</g>
<g >
</g>
<g >
</g>
<g >
</g>
</g>
<g style="fill:#FFFFFF; fill-opacity:1.0000; 
stroke:#FFFFFF; stroke-width:0.0212; stroke-opacity:1; 
stroke-linecap:round; stroke-linejoin:round;">
<g >
</g>
<g >
</g>
<g >
</g>
<g >
</g>
</g>
<g style="fill:#FFFFFF; fill-opacity:1.0000; 
stroke:#FFFFFF; stroke-width:0.0212; stroke-opacity:1; 
stroke-linecap:round; stroke-linejoin:round;">
<g >
</g>
<g >
</g>
<g >
</g>
<g >
</g>
</g>
<g style="fill:#FFFFFF; fill-opacity:1.0000; 
stroke:#FFFFFF; stroke-width:0.0212; stroke-opacity:1; 
stroke-linecap:round; stroke-linejoin:round;">
<g >
</g>
<g >
</g>
<g >
</g>
<g >
</g>
</g>
<g style="fill:#FFFFFF; fill-opacity:1.0000; 
stroke:#FFFFFF; stroke-width:0.0212; stroke-opacity:1; 
stroke-linecap:round; stroke-linejoin:round;">
<g >
</g>
<g >
</g>
<g >
</g>
<g >
</g>
</g>
<g style="fill:#FFFFFF; fill-opacity:1.0000; 
stroke:#FFFFFF; stroke-width:0.0212; stroke-opacity:1; 
stroke-linecap:round; stroke-linejoin:round;">
<g >
</g>
<g >
</g>
<g >
</g>
<g >
</g>
</g>
<g style="fill:#FFFFFF; fill-opacity:1.0000; 
stroke:#FFFFFF; stroke-width:0.0212; stroke-opacity:1; 
stroke-linecap:round; stroke-linejoin:round;">
<g >
</g>
<g >
</g>
<g >
</g>
<g >
</g>
</g>
<g style="fill:#FFFFFF; fill-opacity:1.0000; 
stroke:#FFFFFF; stroke-width:0.0212; stroke-opacity:1; 
stroke-linecap:round; stroke-linejoin:round;">
<g >
</g>
<g >
</g>
<g >
</g>
<g >
</g>
</g>
<g style="fill:#FFFFFF; fill-opacity:1.0000; 
stroke:#FFFFFF; stroke-width:0.0212; stroke-opacity:1; 
stroke-linecap:round; stroke-linejoin:round;">
<g >
</g>
<g >
</g>
<g >
</g>
<g >
</g>
</g>
<g style="fill:#FFFFFF; fill-opacity:1.0000; 
stroke:#FFFFFF; stroke-width:0.0212; stroke-opacity:1; 
stroke-linecap:round; stroke-linejoin:round;">
<g >
</g>
<g >
</g>
<g >
</g>
<g >
</g>
</g>
<g style="fill:#FFFFFF; fill-opacity:1.0000; 
stroke:#FFFFFF; stroke-width:0.0212; stroke-opacity:1; 
stroke-linecap:round; stroke-linejoin:round;">
<g >
</g>
<g >
</g>
<g >
</g>
<g >
</g>
</g>
<g style="fill:#FFFFFF; fill-opacity:1.0000; 
stroke:#FFFFFF; stroke-width:0.0212; stroke-opacity:1; 
stroke-linecap:round; stroke-linejoin:round;">
<g >
</g>
<g >
</g>
<g >
</g>
<g >
</g>
</g>
<g style="fill:#FFFFFF; fill-opacity:1.0000; 
stroke:#FFFFFF; stroke-width:0.0212; stroke-opacity:1; 
stroke-linecap:round; stroke-linejoin:round;">
<g >
</g>
<g >
</g>
<g >
</g>
<g >
</g>
</g>
<g style="fill:#FFFFFF; fill-opacity:1.0000; 
stroke:#FFFFFF; stroke-width:0.0212; stroke-opacity:1; 
stroke-linecap:round; stroke-linejoin:round;">
<g >
</g>
<g >
</g>
<g >
</g>
<g >
</g>
</g>
<g style="fill:#FFFFFF; fill-opacity:1.0000; 
stroke:#FFFFFF; stroke-width:0.0212; stroke-opacity:1; 
stroke-linecap:round; stroke-linejoin:round;">
<g >
</g>
<g >
</g>
<g >
</g>
<g >
</g>
</g>
<g style="fill:#FFFFFF; fill-opacity:1.0000; 
stroke:#FFFFFF; stroke-width:0.0212; stroke-opacity:1; 
stroke-linecap:round; stroke-linejoin:round;">
<g >
</g>
<g >
</g>
<g >
</g>
<g >
</g>
</g>
<g style="fill:#FFFFFF; fill-opacity:1.0000; 
stroke:#FFFFFF; stroke-width:0.0212; stroke-opacity:1; 
stroke-linecap:round; stroke-linejoin:round;">
<g >
</g>
<g >
</g>
<g >
</g>
<g >
</g>
</g>
<g style="fill:#FFFFFF; fill-opacity:1.0000; 
stroke:#FFFFFF; stroke-width:0.0212; stroke-opacity:1; 
stroke-linecap:round; stroke-linejoin:round;">
<g >
</g>
<g >
</g>
<g >
</g>
<g >
</g>
</g>
<g style="fill:#FFFFFF; fill-opacity:1.0000; 
stroke:#FFFFFF; stroke-width:0.0212; stroke-opacity:1; 
stroke-linecap:round; stroke-linejoin:round;">
<g >
</g>
<g >
</g>
<g >
</g>
<g >
</g>
</g>
<g style="fill:#FFFFFF; fill-opacity:1.0000; 
stroke:#FFFFFF; stroke-width:0.0212; stroke-opacity:1; 
stroke-linecap:round; stroke-linejoin:round;">
<g >
</g>
<g >
</g>
<g >
</g>
<g >
</g>
</g>
<g style="fill:#FFFFFF; fill-opacity:1.0000; 
stroke:#FFFFFF; stroke-width:0.0212; stroke-opacity:1; 
stroke-linecap:round; stroke-linejoin:round;">
<g >
</g>
<g >
</g>
<g >
</g>
<g >
</g>
</g>
<g style="fill:#FFFFFF; fill-opacity:1.0000; 
stroke:#FFFFFF; stroke-width:0.0212; stroke-opacity:1; 
stroke-linecap:round; stroke-linejoin:round;">
<g >
</g>
<g >
</g>
<g >
</g>
<g >
</g>
</g>
<g style="fill:#FFFFFF; fill-opacity:1.0000; 
stroke:#FFFFFF; stroke-width:0.0212; stroke-opacity:1; 
stroke-linecap:round; stroke-linejoin:round;">
<g >
</g>
<g >
</g>
<g >
</g>
<g >
</g>
</g>
<g style="fill:#FFFFFF; fill-opacity:1.0000; 
stroke:#FFFFFF; stroke-width:0.0212; stroke-opacity:1; 
stroke-linecap:round; stroke-linejoin:round;">
<g >
</g>
<g >
</g>
<g >
</g>
<g >
</g>
</g>
<g style="fill:#FFFFFF; fill-opacity:1.0000; 
stroke:#FFFFFF; stroke-width:0.0212; stroke-opacity:1; 
stroke-linecap:round; stroke-linejoin:round;">
<g >
</g>
<g >
</g>
<g >
</g>
<g >
</g>
</g>
<g style="fill:#FFFFFF; fill-opacity:1.0000; 
stroke:#FFFFFF; stroke-width:0.0212; stroke-opacity:1; 
stroke-linecap:round; stroke-linejoin:round;">
<g >
</g>
<g >
</g>
<g >
</g>
<g >
</g>
</g>
<g style="fill:#FFFFFF; fill-opacity:1.0000; 
stroke:#FFFFFF; stroke-width:0.0212; stroke-opacity:1; 
stroke-linecap:round; stroke-linejoin:round;">
<g >
</g>
<g >
</g>
<g >
</g>
<g >
</g>
</g>
<g style="fill:#FFFFFF; fill-opacity:1.0000; 
stroke:#FFFFFF; stroke-width:0.0212; stroke-opacity:1; 
stroke-linecap:round; stroke-linejoin:round;">
<g >
</g>
<g style="fill:#37CBCB; fill-opacity:1.0000; 
stroke:#37CBCB; stroke-width:0.0212; stroke-opacity:1; 
stroke-linecap:round; stroke-linejoin:round;">
</g>
<g style="fill:#37CBCB; fill-opacity:1.0000; 
stroke:#37CBCB; stroke-width:0.0000; stroke-opacity:1; 
stroke-linecap:round; stroke-linejoin:round;">
<path style="fill:#37CBCB; fill-opacity:1.0000; 
stroke:#37CBCB; stroke-width:0.0000; stroke-opacity:1; 
stroke-linecap:round; stroke-linejoin:round;fill-rule:evenodd;"
d="M 18.8488,2.2032
18.8602,2.1458
18.8927,2.0972
18.9414,2.0647
18.9988,2.0532
19.2988,2.0532
19.3562,2.0647
19.4049,2.0972
19.4374,2.1458
19.4488,2.2032
19.4488,3.4532
19.4374,3.5107
19.4049,3.5593
19.3562,3.5918
19.2988,3.6032
18.9988,3.6032
18.9414,3.5918
18.8927,3.5593
18.8602,3.5107
18.8488,3.4532
Z" /> 
<path style="fill:#37CBCB; fill-opacity:1.0000; 
stroke:#37CBCB; stroke-width:0.0000; stroke-opacity:1; 
stroke-linecap:round; stroke-linejoin:round;fill-rule:evenodd;"
d="M 19.8488,2.2032
19.8602,2.1458
19.8927,2.0972
19.9414,2.0647
19.9988,2.0532
20.2988,2.0532
20.3562,2.0647
20.4049,2.0972
20.4374,2.1458
20.4488,2.2032
20.4488,3.4532
20.4374,3.5107
20.4049,3.5593
20.3562,3.5918
20.2988,3.6032
19.9988,3.6032
19.9414,3.5918
19.8927,3.5593
19.8602,3.5107
19.8488,3.4532
Z" /> 
<path style="fill:#37CBCB; fill-opacity:1.0000; 
stroke:#37CBCB; stroke-width:0.0000; stroke-opacity:1; 
stroke-linecap:round; stroke-linejoin:round;fill-rule:evenodd;"
d="M 20.8488,2.2032
20.8602,2.1458
20.8927,2.0972
20.9414,2.0647
20.9988,2.0532
21.2988,2.0532
21.3562,2.0647
21.4049,2.0972
21.4374,2.1458
21.4488,2.2032
21.4488,3.4532
21.4374,3.5107
21.4049,3.5593
21.3562,3.5918
21.2988,3.6032
20.9988,3.6032
20.9414,3.5918
20.8927,3.5593
20.8602,3.5107
20.8488,3.4532
Z" /> 
<path style="fill:#37CBCB; fill-opacity:1.0000; 
stroke:#37CBCB; stroke-width:0.0000; stroke-opacity:1; 
stroke-linecap:round; stroke-linejoin:round;fill-rule:evenodd;"
d="M 21.8488,2.2032
21.8602,2.1458
21.8927,2.0972
21.9414,2.0647
21.9988,2.0532
22.2988,2.0532
22.3562,2.0647
22.4049,2.0972
22.4374,2.1458
22.4488,2.2032
22.4488,3.4532
22.4374,3.5107
22.4049,3.5593
22.3562,3.5918
22.2988,3.6032
21.9988,3.6032
21.9414,3.5918
21.8927,3.5593
21.8602,3.5107
21.8488,3.4532
Z" /> 
<path style="fill:#37CBCB; fill-opacity:1.0000; 
stroke:#37CBCB; stroke-width:0.0000; stroke-opacity:1; 
stroke-linecap:round; stroke-linejoin:round;fill-rule:evenodd;"
d="M 22.8488,2.2032
22.8602,2.1458
22.8927,2.0972
22.9414,2.0647
22.9988,2.0532
23.2988,2.0532
23.3562,2.0647
23.4049,2.0972
23.4374,2.1458
23.4488,2.2032
23.4488,3.4532
23.4374,3.5107
23.4049,3.5593
23.3562,3.5918
23.2988,3.6032
22.9988,3.6032
22.9414,3.5918
22.8927,3.5593
22.8602,3.5107
22.8488,3.4532
Z" /> 
<path style="fill:#37CBCB; fill-opacity:1.0000; 
stroke:#37CBCB; stroke-width:0.0000; stroke-opacity:1; 
stroke-linecap:round; stroke-linejoin:round;fill-rule:evenodd;"
d="M 23.8488,2.2032
23.8602,2.1458
23.8927,2.0972
23.9414,2.0647
23.9988,2.0532
24.2988,2.0532
24.3562,2.0647
24.4049,2.0972
24.4374,2.1458
24.4488,2.2032
24.4488,3.4532
24.4374,3.5107
24.4049,3.5593
24.3562,3.5918
24.2988,3.6032
23.9988,3.6032
23.9414,3.5918
23.8927,3.5593
23.8602,3.5107
23.8488,3.4532
Z" /> 
<path style="fill:#37CBCB; fill-opacity:1.0000; 
stroke:#37CBCB; stroke-width:0.0000; stroke-opacity:1; 
stroke-linecap:round; stroke-linejoin:round;fill-rule:evenodd;"
d="M 24.8488,2.2032
24.8602,2.1458
24.8927,2.0972
24.9414,2.0647
24.9988,2.0532
25.2988,2.0532
25.3562,2.0647
25.4049,2.0972
25.4374,2.1458
25.4488,2.2032
25.4488,3.4532
25.4374,3.5107
25.4049,3.5593
25.3562,3.5918
25.2988,3.6032
24.9988,3.6032
24.9414,3.5918
24.8927,3.5593
24.8602,3.5107
24.8488,3.4532
Z" /> 
<path style="fill:#37CBCB; fill-opacity:1.0000; 
stroke:#37CBCB; stroke-width:0.0000; stroke-opacity:1; 
stroke-linecap:round; stroke-linejoin:round;fill-rule:evenodd;"
d="M 25.8488,6.0532
25.8678,5.9576
25.9220,5.8765
26.0031,5.8223
26.0988,5.8032
26.7988,5.8032
26.8945,5.8223
26.9756,5.8765
27.0298,5.9576
27.0488,6.0532
27.0488,7.3533
27.0298,7.4489
26.9756,7.5300
26.8945,7.5842
26.7988,7.6033
26.0988,7.6033
26.0031,7.5842
25.9220,7.5300
25.8678,7.4489
25.8488,7.3533
Z" /> 
<path style="fill:#37CBCB; fill-opacity:1.0000; 
stroke:#37CBCB; stroke-width:0.0000; stroke-opacity:1; 
stroke-linecap:round; stroke-linejoin:round;fill-rule:evenodd;"
d="M 17.2488,6.0532
17.2678,5.9576
17.3220,5.8765
17.4031,5.8223
17.4988,5.8032
18.1988,5.8032
18.2945,5.8223
18.3756,5.8765
18.4298,5.9576
18.4488,6.0532
18.4488,7.3533
18.4298,7.4489
18.3756,7.5300
18.2945,7.5842
18.1988,7.6033
17.4988,7.6033
17.4031,7.5842
17.3220,7.5300
17.2678,7.4489
17.2488,7.3533
Z" /> 
</g>
<g >
</g>
<g >
</g>
<g >
</g>
</g>
<g style="fill:#FFFFFF; fill-opacity:1.0000; 
stroke:#FFFFFF; stroke-width:0.0000; stroke-opacity:1; 
stroke-linecap:round; stroke-linejoin:round;">
<g >
</g>
<g style="fill:#4A5F65; fill-opacity:0.9000; 
stroke:#4A5F65; stroke-width:0.0000; stroke-opacity:1; 
stroke-linecap:round; stroke-linejoin:round;">
<path style="fill:#4A5F65; fill-opacity:0.9000; 
stroke:#4A5F65; stroke-width:0.0000; stroke-opacity:1; 
stroke-linecap:round; stroke-linejoin:round;fill-rule:evenodd;"
d="M 18.8488,2.2032
18.8602,2.1458
18.8927,2.0972
18.9414,2.0647
18.9988,2.0532
19.2988,2.0532
19.3562,2.0647
19.4049,2.0972
19.4374,2.1458
19.4488,2.2032
19.4488,3.4532
19.4374,3.5107
19.4049,3.5593
19.3562,3.5918
19.2988,3.6032
18.9988,3.6032
18.9414,3.5918
18.8927,3.5593
18.8602,3.5107
18.8488,3.4532
Z" /> 
<path style="fill:#4A5F65; fill-opacity:0.9000; 
stroke:#4A5F65; stroke-width:0.0000; stroke-opacity:1; 
stroke-linecap:round; stroke-linejoin:round;fill-rule:evenodd;"
d="M 19.8488,2.2032
19.8602,2.1458
19.8927,2.0972
19.9414,2.0647
19.9988,2.0532
20.2988,2.0532
20.3562,2.0647
20.4049,2.0972
20.4374,2.1458
20.4488,2.2032
20.4488,3.4532
20.4374,3.5107
20.4049,3.5593
20.3562,3.5918
20.2988,3.6032
19.9988,3.6032
19.9414,3.5918
19.8927,3.5593
19.8602,3.5107
19.8488,3.4532
Z" /> 
<path style="fill:#4A5F65; fill-opacity:0.9000; 
stroke:#4A5F65; stroke-width:0.0000; stroke-opacity:1; 
stroke-linecap:round; stroke-linejoin:round;fill-rule:evenodd;"
d="M 20.8488,2.2032
20.8602,2.1458
20.8927,2.0972
20.9414,2.0647
20.9988,2.0532
21.2988,2.0532
21.3562,2.0647
21.4049,2.0972
21.4374,2.1458
21.4488,2.2032
21.4488,3.4532
21.4374,3.5107
21.4049,3.5593
21.3562,3.5918
21.2988,3.6032
20.9988,3.6032
20.9414,3.5918
20.8927,3.5593
20.8602,3.5107
20.8488,3.4532
Z" /> 
<path style="fill:#4A5F65; fill-opacity:0.9000; 
stroke:#4A5F65; stroke-width:0.0000; stroke-opacity:1; 
stroke-linecap:round; stroke-linejoin:round;fill-rule:evenodd;"
d="M 21.8488,2.2032
21.8602,2.1458
21.8927,2.0972
21.9414,2.0647
21.9988,2.0532
22.2988,2.0532
22.3562,2.0647
22.4049,2.0972
22.4374,2.1458
22.4488,2.2032
22.4488,3.4532
22.4374,3.5107
22.4049,3.5593
22.3562,3.5918
22.2988,3.6032
21.9988,3.6032
21.9414,3.5918
21.8927,3.5593
21.8602,3.5107
21.8488,3.4532
Z" /> 
<path style="fill:#4A5F65; fill-opacity:0.9000; 
stroke:#4A5F65; stroke-width:0.0000; stroke-opacity:1; 
stroke-linecap:round; stroke-linejoin:round;fill-rule:evenodd;"
d="M 22.8488,2.2032
22.8602,2.1458
22.8927,2.0972
22.9414,2.0647
22.9988,2.0532
23.2988,2.0532
23.3562,2.0647
23.4049,2.0972
23.4374,2.1458
23.4488,2.2032
23.4488,3.4532
23.4374,3.5107
23.4049,3.5593
23.3562,3.5918
23.2988,3.6032
22.9988,3.6032
22.9414,3.5918
22.8927,3.5593
22.8602,3.5107
22.8488,3.4532
Z" /> 
<path style="fill:#4A5F65; fill-opacity:0.9000; 
stroke:#4A5F65; stroke-width:0.0000; stroke-opacity:1; 
stroke-linecap:round; stroke-linejoin:round;fill-rule:evenodd;"
d="M 23.8488,2.2032
23.8602,2.1458
23.8927,2.0972
23.9414,2.0647
23.9988,2.0532
24.2988,2.0532
24.3562,2.0647
24.4049,2.0972
24.4374,2.1458
24.4488,2.2032
24.4488,3.4532
24.4374,3.5107
24.4049,3.5593
24.3562,3.5918
24.2988,3.6032
23.9988,3.6032
23.9414,3.5918
23.8927,3.5593
23.8602,3.5107
23.8488,3.4532
Z" /> 
<path style="fill:#4A5F65; fill-opacity:0.9000; 
stroke:#4A5F65; stroke-width:0.0000; stroke-opacity:1; 
stroke-linecap:round; stroke-linejoin:round;fill-rule:evenodd;"
d="M 24.8488,2.2032
24.8602,2.1458
24.8927,2.0972
24.9414,2.0647
24.9988,2.0532
25.2988,2.0532
25.3562,2.0647
25.4049,2.0972
25.4374,2.1458
25.4488,2.2032
25.4488,3.4532
25.4374,3.5107
25.4049,3.5593
25.3562,3.5918
25.2988,3.6032
24.9988,3.6032
24.9414,3.5918
24.8927,3.5593
24.8602,3.5107
24.8488,3.4532
Z" /> 
<path style="fill:#4A5F65; fill-opacity:0.9000; 
stroke:#4A5F65; stroke-width:0.0000; stroke-opacity:1; 
stroke-linecap:round; stroke-linejoin:round;fill-rule:evenodd;"
d="M 25.8488,6.0532
25.8678,5.9576
25.9220,5.8765
26.0031,5.8223
26.0988,5.8032
26.7988,5.8032
26.8945,5.8223
26.9756,5.8765
27.0298,5.9576
27.0488,6.0532
27.0488,7.3533
27.0298,7.4489
26.9756,7.5300
26.8945,7.5842
26.7988,7.6033
26.0988,7.6033
26.0031,7.5842
25.9220,7.5300
25.8678,7.4489
25.8488,7.3533
Z" /> 
<path style="fill:#4A5F65; fill-opacity:0.9000; 
stroke:#4A5F65; stroke-width:0.0000; stroke-opacity:1; 
stroke-linecap:round; stroke-linejoin:round;fill-rule:evenodd;"
d="M 17.2488,6.0532
17.2678,5.9576
17.3220,5.8765
17.4031,5.8223
17.4988,5.8032
18.1988,5.8032
18.2945,5.8223
18.3756,5.8765
18.4298,5.9576
18.4488,6.0532
18.4488,7.3533
18.4298,7.4489
18.3756,7.5300
18.2945,7.5842
18.1988,7.6033
17.4988,7.6033
17.4031,7.5842
17.3220,7.5300
17.2678,7.4489
17.2488,7.3533
Z" /> 
</g>
<g >
</g>
<g >
</g>
<g >
</g>
</g>
<g style="fill:#FFFFFF; fill-opacity:1.0000; 
stroke:#FFFFFF; stroke-width:0.0000; stroke-opacity:1; 
stroke-linecap:round; stroke-linejoin:round;">
</g>
<g style="fill:#0D115E; fill-opacity:1.0000; 
stroke:#0D115E; stroke-width:0.0000; stroke-opacity:1; 
stroke-linecap:round; stroke-linejoin:round;">
</g>
<g style="fill:#0D115E; fill-opacity:1.0000; 
stroke:#0D115E; stroke-width:0.1500; stroke-opacity:1; 
stroke-linecap:round; stroke-linejoin:round;">
</g>
<g style="fill:#0D115E; fill-opacity:0.0; 
stroke:#0D115E; stroke-width:0.1500; stroke-opacity:1; 
stroke-linecap:round; stroke-linejoin:round;">
<text x="22.1488" y="1.3482"
textLength="4.5357" font-size="1.3333" lengthAdjust="spacingAndGlyphs"
text-anchor="middle" opacity="0">REF**</text>
<g class="stroked-text"><desc>REF**</desc>
<path d="M20.8155 1.3031
L20.4821 0.8269
" />
<path d="M20.2440 1.3031
L20.2440 0.3031
" />
<path d="M20.2440 0.3031
L20.6250 0.3031
" />
<path d="M20.6250 0.3031
L20.7202 0.3507
" />
<path d="M20.7202 0.3507
L20.7679 0.3983
" />
<path d="M20.7679 0.3983
L20.8155 0.4935
" />
<path d="M20.8155 0.4935
L20.8155 0.6364
" />
<path d="M20.8155 0.6364
L20.7679 0.7316
" />
<path d="M20.7679 0.7316
L20.7202 0.7793
" />
<path d="M20.7202 0.7793
L20.6250 0.8269
" />
<path d="M20.6250 0.8269
L20.2440 0.8269
" />
<path d="M21.2440 0.7793
L21.5774 0.7793
" />
<path d="M21.7202 1.3031
L21.2440 1.3031
" />
<path d="M21.2440 1.3031
L21.2440 0.3031
" />
<path d="M21.2440 0.3031
L21.7202 0.3031
" />
<path d="M22.4821 0.7793
L22.1488 0.7793
" />
<path d="M22.1488 1.3031
L22.1488 0.3031
" />
<path d="M22.1488 0.3031
L22.6250 0.3031
" />
<path d="M23.1488 0.3031
L23.1488 0.5412
" />
<path d="M22.9107 0.4459
L23.1488 0.5412
" />
<path d="M23.1488 0.5412
L23.3869 0.4459
" />
<path d="M23.0060 0.7316
L23.1488 0.5412
" />
<path d="M23.1488 0.5412
L23.2917 0.7316
" />
<path d="M23.9107 0.3031
L23.9107 0.5412
" />
<path d="M23.6726 0.4459
L23.9107 0.5412
" />
<path d="M23.9107 0.5412
L24.1488 0.4459
" />
<path d="M23.7679 0.7316
L23.9107 0.5412
" />
<path d="M23.9107 0.5412
L24.0536 0.7316
" />
</g></g>
<g style="fill:#0D115E; fill-opacity:0.0; 
stroke:#0D115E; stroke-width:0.1200; stroke-opacity:1; 
stroke-linecap:round; stroke-linejoin:round;">
<path d="M26.7588 3.0433
L25.7088 3.0433
" />
<path d="M18.5888 3.0433
L18.5888 2.0532
" />
<path d="M18.7088 7.5132
L25.5888 7.5132
" />
<path d="M17.5388 3.0433
L18.5888 3.0433
" />
<path d="M26.7588 5.5432
L26.7588 3.0433
" />
<path d="M17.5388 5.5432
L17.5388 3.0433
" />
<g >
</g>
<g >
</g>
<g >
</g>
<g >
</g>
</g> 
</svg>
