<?xml version="1.0" standalone="no"?>
 <!DOCTYPE svg PUBLIC "-//W3C//DTD SVG 1.1//EN" 
 "http://www.w3.org/Graphics/SVG/1.1/DTD/svg11.dtd"> 
<svg
  xmlns:svg="http://www.w3.org/2000/svg"
  xmlns="http://www.w3.org/2000/svg"
  xmlns:xlink="http://www.w3.org/1999/xlink"
  version="1.1"
  width="101.7270mm" height="21.7932mm" viewBox="0.0000 0.0000 101.7270 21.7932">
<title>SVG Image created as ltc6752xms8-2.svg date 2024/01/16 15:18:18 </title>
  <desc>Image generated by Eeschema-SVG </desc>
<g style="fill:#000000; fill-opacity:1.0000;stroke:#000000; stroke-opacity:1.0000;
stroke-linecap:round; stroke-linejoin:round;"
 transform="translate(0 0) scale(1 1)">
</g>
<g style="fill:#000000; fill-opacity:0.0; 
stroke:#000000; stroke-width:0.0000; stroke-opacity:1; 
stroke-linecap:round; stroke-linejoin:round;">
</g>
<g style="fill:#000000; fill-opacity:0.0; 
stroke:#000000; stroke-width:0.2540; stroke-opacity:1; 
stroke-linecap:round; stroke-linejoin:round;">
<path style="fill:#000000; fill-opacity:0.0; 
stroke:#000000; stroke-width:0.2540; stroke-opacity:1; 
stroke-linecap:round; stroke-linejoin:round;fill:none"
d="M 45.7835,5.8166
55.9435,10.8966
45.7835,15.9766
Z" /> 
</g>
<g style="fill:#000000; fill-opacity:0.0; 
stroke:#000000; stroke-width:0.1524; stroke-opacity:1; 
stroke-linecap:round; stroke-linejoin:round;">
<path d="M48.3235 7.0866
L48.3235 3.2766
" />
<g transform="rotate(-90.000000 48.3235 7.2136)">
<text x="48.3235" y="7.7216"
textLength="3.1569" font-size="1.3546" lengthAdjust="spacingAndGlyphs"
text-anchor="end" opacity="0">VCC</text>
</g>
<g class="stroked-text"><desc>VCC</desc>
<path d="M47.7695 10.1199
L48.7855 9.7812
" />
<path d="M48.7855 9.7812
L47.7695 9.4426
" />
<path d="M48.6888 8.5233
L48.7372 8.5717
" />
<path d="M48.7372 8.5717
L48.7855 8.7168
" />
<path d="M48.7855 8.7168
L48.7855 8.8136
" />
<path d="M48.7855 8.8136
L48.7372 8.9587
" />
<path d="M48.7372 8.9587
L48.6404 9.0555
" />
<path d="M48.6404 9.0555
L48.5436 9.1038
" />
<path d="M48.5436 9.1038
L48.3501 9.1522
" />
<path d="M48.3501 9.1522
L48.2050 9.1522
" />
<path d="M48.2050 9.1522
L48.0114 9.1038
" />
<path d="M48.0114 9.1038
L47.9147 9.0555
" />
<path d="M47.9147 9.0555
L47.8179 8.9587
" />
<path d="M47.8179 8.9587
L47.7695 8.8136
" />
<path d="M47.7695 8.8136
L47.7695 8.7168
" />
<path d="M47.7695 8.7168
L47.8179 8.5717
" />
<path d="M47.8179 8.5717
L47.8663 8.5233
" />
<path d="M48.6888 7.5073
L48.7372 7.5557
" />
<path d="M48.7372 7.5557
L48.7855 7.7008
" />
<path d="M48.7855 7.7008
L48.7855 7.7976
" />
<path d="M48.7855 7.7976
L48.7372 7.9427
" />
<path d="M48.7372 7.9427
L48.6404 8.0395
" />
<path d="M48.6404 8.0395
L48.5436 8.0878
" />
<path d="M48.5436 8.0878
L48.3501 8.1362
" />
<path d="M48.3501 8.1362
L48.2050 8.1362
" />
<path d="M48.2050 8.1362
L48.0114 8.0878
" />
<path d="M48.0114 8.0878
L47.9147 8.0395
" />
<path d="M47.9147 8.0395
L47.8179 7.9427
" />
<path d="M47.8179 7.9427
L47.7695 7.7976
" />
<path d="M47.7695 7.7976
L47.7695 7.7008
" />
<path d="M47.7695 7.7008
L47.8179 7.5557
" />
<path d="M47.8179 7.5557
L47.8663 7.5073
" />
</g><g transform="rotate(-90.000000 48.0695 5.1816)">
<text x="48.0695" y="5.1816"
textLength="1.4127" font-size="1.6933" lengthAdjust="spacingAndGlyphs"
text-anchor="middle" opacity="0">1</text>
</g>
<g class="stroked-text"><desc>1</desc>
<path d="M47.9060 4.8186
L47.9060 5.5443
" />
<path d="M47.9060 5.1815
L46.6360 5.1815
" />
<path d="M46.6360 5.1815
L46.8175 5.3024
" />
<path d="M46.8175 5.3024
L46.9384 5.4234
" />
<path d="M46.9384 5.4234
L46.9989 5.5443
" />
</g><path d="M45.7835 8.3566
L43.2435 8.3566
" />
<text x="45.9105" y="8.8646"
textLength="1.5119" font-size="1.3546" lengthAdjust="spacingAndGlyphs"
text-anchor="start" opacity="0">+</text>
<g class="stroked-text"><desc>+</desc>
<path d="M46.2526 8.4316
L47.0267 8.4316
" />
<path d="M46.6396 8.8186
L46.6396 8.0445
" />
</g><text x="44.5135" y="8.1026"
textLength="1.4127" font-size="1.6933" lengthAdjust="spacingAndGlyphs"
text-anchor="middle" opacity="0">2</text>
<g class="stroked-text"><desc>2</desc>
<path d="M44.1507 6.7901
L44.2111 6.7296
" />
<path d="M44.2111 6.7296
L44.3321 6.6691
" />
<path d="M44.3321 6.6691
L44.6345 6.6691
" />
<path d="M44.6345 6.6691
L44.7554 6.7296
" />
<path d="M44.7554 6.7296
L44.8159 6.7901
" />
<path d="M44.8159 6.7901
L44.8764 6.9110
" />
<path d="M44.8764 6.9110
L44.8764 7.0320
" />
<path d="M44.8764 7.0320
L44.8159 7.2134
" />
<path d="M44.8159 7.2134
L44.0902 7.9391
" />
<path d="M44.0902 7.9391
L44.8764 7.9391
" />
</g><path d="M45.7835 13.4366
L43.2435 13.4366
" />
<text x="45.9105" y="13.9446"
textLength="1.5119" font-size="1.3546" lengthAdjust="spacingAndGlyphs"
text-anchor="start" opacity="0">-</text>
<g class="stroked-text"><desc>-</desc>
<path d="M46.2526 13.5116
L47.0267 13.5116
" />
</g><text x="44.5135" y="13.1826"
textLength="1.4127" font-size="1.6933" lengthAdjust="spacingAndGlyphs"
text-anchor="middle" opacity="0">3</text>
<g class="stroked-text"><desc>3</desc>
<path d="M44.0902 11.7491
L44.8764 11.7491
" />
<path d="M44.8764 11.7491
L44.4530 12.2329
" />
<path d="M44.4530 12.2329
L44.6345 12.2329
" />
<path d="M44.6345 12.2329
L44.7554 12.2934
" />
<path d="M44.7554 12.2934
L44.8159 12.3539
" />
<path d="M44.8159 12.3539
L44.8764 12.4748
" />
<path d="M44.8764 12.4748
L44.8764 12.7772
" />
<path d="M44.8764 12.7772
L44.8159 12.8982
" />
<path d="M44.8159 12.8982
L44.7554 12.9587
" />
<path d="M44.7554 12.9587
L44.6345 13.0191
" />
<path d="M44.6345 13.0191
L44.2716 13.0191
" />
<path d="M44.2716 13.0191
L44.1507 12.9587
" />
<path d="M44.1507 12.9587
L44.0902 12.8982
" />
</g><path d="M53.4035 9.6266
L53.4035 3.2766
" />
</g>
<g style="fill:#000000; fill-opacity:0.0; 
stroke:#000000; stroke-width:0.1016; stroke-opacity:1; 
stroke-linecap:round; stroke-linejoin:round;">
<g transform="rotate(-90.000000 53.4035 9.7536)">
<text x="53.4035" y="10.0076"
textLength="2.2594" font-size="0.6773" lengthAdjust="spacingAndGlyphs"
text-anchor="end" opacity="0">~{SHDN}</text>
</g>
<g class="stroked-text"><desc>~{SHDN}</desc>
<path d="M53.6091 11.7798
L53.6332 11.7072
" />
<path d="M53.6332 11.7072
L53.6332 11.5863
" />
<path d="M53.6332 11.5863
L53.6091 11.5379
" />
<path d="M53.6091 11.5379
L53.5849 11.5137
" />
<path d="M53.5849 11.5137
L53.5365 11.4895
" />
<path d="M53.5365 11.4895
L53.4881 11.4895
" />
<path d="M53.4881 11.4895
L53.4397 11.5137
" />
<path d="M53.4397 11.5137
L53.4155 11.5379
" />
<path d="M53.4155 11.5379
L53.3913 11.5863
" />
<path d="M53.3913 11.5863
L53.3671 11.6830
" />
<path d="M53.3671 11.6830
L53.3430 11.7314
" />
<path d="M53.3430 11.7314
L53.3188 11.7556
" />
<path d="M53.3188 11.7556
L53.2704 11.7798
" />
<path d="M53.2704 11.7798
L53.2220 11.7798
" />
<path d="M53.2220 11.7798
L53.1736 11.7556
" />
<path d="M53.1736 11.7556
L53.1494 11.7314
" />
<path d="M53.1494 11.7314
L53.1252 11.6830
" />
<path d="M53.1252 11.6830
L53.1252 11.5621
" />
<path d="M53.1252 11.5621
L53.1494 11.4895
" />
<path d="M53.6332 11.2718
L53.1252 11.2718
" />
<path d="M53.3671 11.2718
L53.3671 10.9815
" />
<path d="M53.6332 10.9815
L53.1252 10.9815
" />
<path d="M53.6332 10.7396
L53.1252 10.7396
" />
<path d="M53.1252 10.7396
L53.1252 10.6186
" />
<path d="M53.1252 10.6186
L53.1494 10.5461
" />
<path d="M53.1494 10.5461
L53.1978 10.4977
" />
<path d="M53.1978 10.4977
L53.2462 10.4735
" />
<path d="M53.2462 10.4735
L53.3430 10.4493
" />
<path d="M53.3430 10.4493
L53.4155 10.4493
" />
<path d="M53.4155 10.4493
L53.5123 10.4735
" />
<path d="M53.5123 10.4735
L53.5607 10.4977
" />
<path d="M53.5607 10.4977
L53.6091 10.5461
" />
<path d="M53.6091 10.5461
L53.6332 10.6186
" />
<path d="M53.6332 10.6186
L53.6332 10.7396
" />
<path d="M53.6332 10.2316
L53.1252 10.2316
" />
<path d="M53.1252 10.2316
L53.6332 9.9413
" />
<path d="M53.6332 9.9413
L53.1252 9.9413
" />
<path d="M52.9842 11.8258
L52.9842 9.8712
" />
</g></g>
<g style="fill:#000000; fill-opacity:0.0; 
stroke:#000000; stroke-width:0.1524; stroke-opacity:1; 
stroke-linecap:round; stroke-linejoin:round;">
<g transform="rotate(-90.000000 53.1495 6.4516)">
<text x="53.1495" y="6.4516"
textLength="1.4127" font-size="1.6933" lengthAdjust="spacingAndGlyphs"
text-anchor="middle" opacity="0">4</text>
</g>
<g class="stroked-text"><desc>4</desc>
<path d="M52.1394 6.2096
L52.9860 6.2096
" />
<path d="M51.6556 6.5120
L52.5627 6.8143
" />
<path d="M52.5627 6.8143
L52.5627 6.0282
" />
</g><path d="M50.8635 13.4366
L50.8635 18.5166
" />
<g transform="rotate(-90.000000 50.8635 13.3096)">
<text x="50.8635" y="13.6906"
textLength="1.6111" font-size="1.0160" lengthAdjust="spacingAndGlyphs"
text-anchor="start" opacity="0">~{LE}</text>
</g>
<g class="stroked-text"><desc>~{LE}</desc>
<path d="M51.2080 12.6651
L51.2080 13.0279
" />
<path d="M51.2080 13.0279
L50.4460 13.0279
" />
<path d="M50.8089 12.4110
L50.8089 12.1570
" />
<path d="M51.2080 12.0482
L51.2080 12.4110
" />
<path d="M51.2080 12.4110
L50.4460 12.4110
" />
<path d="M50.4460 12.4110
L50.4460 12.0482
" />
<path d="M50.2345 13.1332
L50.2345 11.9793
" />
</g><g transform="rotate(-90.000000 50.6095 15.9766)">
<text x="50.6095" y="15.9766"
textLength="1.4127" font-size="1.6933" lengthAdjust="spacingAndGlyphs"
text-anchor="middle" opacity="0">5</text>
</g>
<g class="stroked-text"><desc>5</desc>
<path d="M49.1760 15.6741
L49.1760 16.2789
" />
<path d="M49.1760 16.2789
L49.7808 16.3393
" />
<path d="M49.7808 16.3393
L49.7203 16.2789
" />
<path d="M49.7203 16.2789
L49.6598 16.1579
" />
<path d="M49.6598 16.1579
L49.6598 15.8555
" />
<path d="M49.6598 15.8555
L49.7203 15.7346
" />
<path d="M49.7203 15.7346
L49.7808 15.6741
" />
<path d="M49.7808 15.6741
L49.9017 15.6136
" />
<path d="M49.9017 15.6136
L50.2041 15.6136
" />
<path d="M50.2041 15.6136
L50.3251 15.6741
" />
<path d="M50.3251 15.6741
L50.3856 15.7346
" />
<path d="M50.3856 15.7346
L50.4460 15.8555
" />
<path d="M50.4460 15.8555
L50.4460 16.1579
" />
<path d="M50.4460 16.1579
L50.3856 16.2789
" />
<path d="M50.3856 16.2789
L50.3251 16.3393
" />
</g><path d="M48.3235 14.7066
L48.3235 18.5166
" />
<g transform="rotate(-90.000000 48.3235 14.5796)">
<text x="48.3235" y="15.0876"
textLength="2.9633" font-size="1.3546" lengthAdjust="spacingAndGlyphs"
text-anchor="start" opacity="0">VEE</text>
</g>
<g class="stroked-text"><desc>VEE</desc>
<path d="M47.7695 14.3826
L48.7855 14.0439
" />
<path d="M48.7855 14.0439
L47.7695 13.7053
" />
<path d="M48.2533 13.3665
L48.2533 13.0279
" />
<path d="M48.7855 12.8827
L48.7855 13.3665
" />
<path d="M48.7855 13.3665
L47.7695 13.3665
" />
<path d="M47.7695 13.3665
L47.7695 12.8827
" />
<path d="M48.2533 12.4473
L48.2533 12.1087
" />
<path d="M48.7855 11.9635
L48.7855 12.4473
" />
<path d="M48.7855 12.4473
L47.7695 12.4473
" />
<path d="M47.7695 12.4473
L47.7695 11.9635
" />
</g><g transform="rotate(-90.000000 48.0695 16.6116)">
<text x="48.0695" y="16.6116"
textLength="1.4127" font-size="1.6933" lengthAdjust="spacingAndGlyphs"
text-anchor="middle" opacity="0">6</text>
</g>
<g class="stroked-text"><desc>6</desc>
<path d="M46.6360 16.3696
L46.6360 16.6115
" />
<path d="M46.6360 16.6115
L46.6965 16.7324
" />
<path d="M46.6965 16.7324
L46.7570 16.7929
" />
<path d="M46.7570 16.7929
L46.9384 16.9139
" />
<path d="M46.9384 16.9139
L47.1803 16.9743
" />
<path d="M47.1803 16.9743
L47.6641 16.9743
" />
<path d="M47.6641 16.9743
L47.7851 16.9139
" />
<path d="M47.7851 16.9139
L47.8456 16.8534
" />
<path d="M47.8456 16.8534
L47.9060 16.7324
" />
<path d="M47.9060 16.7324
L47.9060 16.4905
" />
<path d="M47.9060 16.4905
L47.8456 16.3696
" />
<path d="M47.8456 16.3696
L47.7851 16.3091
" />
<path d="M47.7851 16.3091
L47.6641 16.2486
" />
<path d="M47.6641 16.2486
L47.3617 16.2486
" />
<path d="M47.3617 16.2486
L47.2408 16.3091
" />
<path d="M47.2408 16.3091
L47.1803 16.3696
" />
<path d="M47.1803 16.3696
L47.1198 16.4905
" />
<path d="M47.1198 16.4905
L47.1198 16.7324
" />
<path d="M47.1198 16.7324
L47.1803 16.8534
" />
<path d="M47.1803 16.8534
L47.2408 16.9139
" />
<path d="M47.2408 16.9139
L47.3617 16.9743
" />
</g><path d="M55.9435 10.8966
L58.4835 10.8966
" />
<text x="57.2135" y="10.6426"
textLength="1.4127" font-size="1.6933" lengthAdjust="spacingAndGlyphs"
text-anchor="middle" opacity="0">7</text>
<g class="stroked-text"><desc>7</desc>
<path d="M56.7902 9.2091
L57.6368 9.2091
" />
<path d="M57.6368 9.2091
L57.0926 10.4791
" />
</g><path d="M50.8635 8.3566
L50.8635 3.2766
" />
<g transform="rotate(-90.000000 50.8635 8.4836)">
<text x="50.8635" y="8.8646"
textLength="2.4819" font-size="1.0160" lengthAdjust="spacingAndGlyphs"
text-anchor="end" opacity="0">VDD</text>
</g>
<g class="stroked-text"><desc>VDD</desc>
<path d="M50.4460 10.6883
L51.2080 10.4343
" />
<path d="M51.2080 10.4343
L50.4460 10.1803
" />
<path d="M51.2080 9.9263
L50.4460 9.9263
" />
<path d="M50.4460 9.9263
L50.4460 9.7449
" />
<path d="M50.4460 9.7449
L50.4823 9.6360
" />
<path d="M50.4823 9.6360
L50.5549 9.5635
" />
<path d="M50.5549 9.5635
L50.6275 9.5272
" />
<path d="M50.6275 9.5272
L50.7726 9.4909
" />
<path d="M50.7726 9.4909
L50.8815 9.4909
" />
<path d="M50.8815 9.4909
L51.0266 9.5272
" />
<path d="M51.0266 9.5272
L51.0992 9.5635
" />
<path d="M51.0992 9.5635
L51.1718 9.6360
" />
<path d="M51.1718 9.6360
L51.2080 9.7449
" />
<path d="M51.2080 9.7449
L51.2080 9.9263
" />
<path d="M51.2080 9.1643
L50.4460 9.1643
" />
<path d="M50.4460 9.1643
L50.4460 8.9829
" />
<path d="M50.4460 8.9829
L50.4823 8.8740
" />
<path d="M50.4823 8.8740
L50.5549 8.8015
" />
<path d="M50.5549 8.8015
L50.6275 8.7652
" />
<path d="M50.6275 8.7652
L50.7726 8.7289
" />
<path d="M50.7726 8.7289
L50.8815 8.7289
" />
<path d="M50.8815 8.7289
L51.0266 8.7652
" />
<path d="M51.0266 8.7652
L51.0992 8.8015
" />
<path d="M51.0992 8.8015
L51.1718 8.8740
" />
<path d="M51.1718 8.8740
L51.2080 8.9829
" />
<path d="M51.2080 8.9829
L51.2080 9.1643
" />
</g><g transform="rotate(-90.000000 50.6095 5.8166)">
<text x="50.6095" y="5.8166"
textLength="1.4127" font-size="1.6933" lengthAdjust="spacingAndGlyphs"
text-anchor="middle" opacity="0">8</text>
</g>
<g class="stroked-text"><desc>8</desc>
<path d="M49.7203 5.9374
L49.6598 6.0584
" />
<path d="M49.6598 6.0584
L49.5994 6.1189
" />
<path d="M49.5994 6.1189
L49.4784 6.1793
" />
<path d="M49.4784 6.1793
L49.4179 6.1793
" />
<path d="M49.4179 6.1793
L49.2970 6.1189
" />
<path d="M49.2970 6.1189
L49.2365 6.0584
" />
<path d="M49.2365 6.0584
L49.1760 5.9374
" />
<path d="M49.1760 5.9374
L49.1760 5.6955
" />
<path d="M49.1760 5.6955
L49.2365 5.5746
" />
<path d="M49.2365 5.5746
L49.2970 5.5141
" />
<path d="M49.2970 5.5141
L49.4179 5.4536
" />
<path d="M49.4179 5.4536
L49.4784 5.4536
" />
<path d="M49.4784 5.4536
L49.5994 5.5141
" />
<path d="M49.5994 5.5141
L49.6598 5.5746
" />
<path d="M49.6598 5.5746
L49.7203 5.6955
" />
<path d="M49.7203 5.6955
L49.7203 5.9374
" />
<path d="M49.7203 5.9374
L49.7808 6.0584
" />
<path d="M49.7808 6.0584
L49.8413 6.1189
" />
<path d="M49.8413 6.1189
L49.9622 6.1793
" />
<path d="M49.9622 6.1793
L50.2041 6.1793
" />
<path d="M50.2041 6.1793
L50.3251 6.1189
" />
<path d="M50.3251 6.1189
L50.3856 6.0584
" />
<path d="M50.3856 6.0584
L50.4460 5.9374
" />
<path d="M50.4460 5.9374
L50.4460 5.6955
" />
<path d="M50.4460 5.6955
L50.3856 5.5746
" />
<path d="M50.3856 5.5746
L50.3251 5.5141
" />
<path d="M50.3251 5.5141
L50.2041 5.4536
" />
<path d="M50.2041 5.4536
L49.9622 5.4536
" />
<path d="M49.9622 5.4536
L49.8413 5.5141
" />
<path d="M49.8413 5.5141
L49.7808 5.5746
" />
<path d="M49.7808 5.5746
L49.7203 5.6955
" />
</g></g>
<g style="fill:#000000; fill-opacity:0.0; 
stroke:#000000; stroke-width:0.1588; stroke-opacity:1; 
stroke-linecap:round; stroke-linejoin:round;">
<text x="55.9942" y="16.6116"
textLength="2.6415" font-size="1.6933" lengthAdjust="spacingAndGlyphs"
text-anchor="middle" opacity="0">U?</text>
<g class="stroked-text"><desc>U?</desc>
<path d="M55.0870 15.2858
L55.0870 16.3139
" />
<path d="M55.0870 16.3139
L55.1475 16.4349
" />
<path d="M55.1475 16.4349
L55.2080 16.4954
" />
<path d="M55.2080 16.4954
L55.3289 16.5558
" />
<path d="M55.3289 16.5558
L55.5708 16.5558
" />
<path d="M55.5708 16.5558
L55.6918 16.4954
" />
<path d="M55.6918 16.4954
L55.7523 16.4349
" />
<path d="M55.7523 16.4349
L55.8127 16.3139
" />
<path d="M55.8127 16.3139
L55.8127 15.2858
" />
<path d="M56.5990 16.4349
L56.6594 16.4954
" />
<path d="M56.6594 16.4954
L56.5990 16.5558
" />
<path d="M56.5990 16.5558
L56.5385 16.4954
" />
<path d="M56.5385 16.4954
L56.5990 16.4349
" />
<path d="M56.5990 16.4349
L56.5990 16.5558
" />
<path d="M56.3571 15.3463
L56.4780 15.2858
" />
<path d="M56.4780 15.2858
L56.7804 15.2858
" />
<path d="M56.7804 15.2858
L56.9013 15.3463
" />
<path d="M56.9013 15.3463
L56.9618 15.4673
" />
<path d="M56.9618 15.4673
L56.9618 15.5882
" />
<path d="M56.9618 15.5882
L56.9013 15.7092
" />
<path d="M56.9013 15.7092
L56.8409 15.7696
" />
<path d="M56.8409 15.7696
L56.7199 15.8301
" />
<path d="M56.7199 15.8301
L56.6594 15.8906
" />
<path d="M56.6594 15.8906
L56.5990 16.0115
" />
<path d="M56.5990 16.0115
L56.5990 16.0720
" />
</g><text x="62.6767" y="19.1516"
textLength="16.0065" font-size="1.6933" lengthAdjust="spacingAndGlyphs"
text-anchor="middle" opacity="0">LTC6752xMS8-2</text>
<g class="stroked-text"><desc>LTC6752xMS8-2</desc>
<path d="M55.6918 19.0958
L55.0870 19.0958
" />
<path d="M55.0870 19.0958
L55.0870 17.8258
" />
<path d="M55.9337 17.8258
L56.6594 17.8258
" />
<path d="M56.2966 19.0958
L56.2966 17.8258
" />
<path d="M57.8084 18.9749
L57.7480 19.0354
" />
<path d="M57.7480 19.0354
L57.5665 19.0958
" />
<path d="M57.5665 19.0958
L57.4456 19.0958
" />
<path d="M57.4456 19.0958
L57.2642 19.0354
" />
<path d="M57.2642 19.0354
L57.1432 18.9144
" />
<path d="M57.1432 18.9144
L57.0827 18.7934
" />
<path d="M57.0827 18.7934
L57.0223 18.5515
" />
<path d="M57.0223 18.5515
L57.0223 18.3701
" />
<path d="M57.0223 18.3701
L57.0827 18.1282
" />
<path d="M57.0827 18.1282
L57.1432 18.0073
" />
<path d="M57.1432 18.0073
L57.2642 17.8863
" />
<path d="M57.2642 17.8863
L57.4456 17.8258
" />
<path d="M57.4456 17.8258
L57.5665 17.8258
" />
<path d="M57.5665 17.8258
L57.7480 17.8863
" />
<path d="M57.7480 17.8863
L57.8084 17.9468
" />
<path d="M58.8970 17.8258
L58.6551 17.8258
" />
<path d="M58.6551 17.8258
L58.5342 17.8863
" />
<path d="M58.5342 17.8863
L58.4737 17.9468
" />
<path d="M58.4737 17.9468
L58.3527 18.1282
" />
<path d="M58.3527 18.1282
L58.2923 18.3701
" />
<path d="M58.2923 18.3701
L58.2923 18.8539
" />
<path d="M58.2923 18.8539
L58.3527 18.9749
" />
<path d="M58.3527 18.9749
L58.4132 19.0354
" />
<path d="M58.4132 19.0354
L58.5342 19.0958
" />
<path d="M58.5342 19.0958
L58.7761 19.0958
" />
<path d="M58.7761 19.0958
L58.8970 19.0354
" />
<path d="M58.8970 19.0354
L58.9575 18.9749
" />
<path d="M58.9575 18.9749
L59.0180 18.8539
" />
<path d="M59.0180 18.8539
L59.0180 18.5515
" />
<path d="M59.0180 18.5515
L58.9575 18.4306
" />
<path d="M58.9575 18.4306
L58.8970 18.3701
" />
<path d="M58.8970 18.3701
L58.7761 18.3096
" />
<path d="M58.7761 18.3096
L58.5342 18.3096
" />
<path d="M58.5342 18.3096
L58.4132 18.3701
" />
<path d="M58.4132 18.3701
L58.3527 18.4306
" />
<path d="M58.3527 18.4306
L58.2923 18.5515
" />
<path d="M59.4413 17.8258
L60.2879 17.8258
" />
<path d="M60.2879 17.8258
L59.7437 19.0958
" />
<path d="M61.3765 17.8258
L60.7717 17.8258
" />
<path d="M60.7717 17.8258
L60.7113 18.4306
" />
<path d="M60.7113 18.4306
L60.7717 18.3701
" />
<path d="M60.7717 18.3701
L60.8927 18.3096
" />
<path d="M60.8927 18.3096
L61.1951 18.3096
" />
<path d="M61.1951 18.3096
L61.3160 18.3701
" />
<path d="M61.3160 18.3701
L61.3765 18.4306
" />
<path d="M61.3765 18.4306
L61.4370 18.5515
" />
<path d="M61.4370 18.5515
L61.4370 18.8539
" />
<path d="M61.4370 18.8539
L61.3765 18.9749
" />
<path d="M61.3765 18.9749
L61.3160 19.0354
" />
<path d="M61.3160 19.0354
L61.1951 19.0958
" />
<path d="M61.1951 19.0958
L60.8927 19.0958
" />
<path d="M60.8927 19.0958
L60.7717 19.0354
" />
<path d="M60.7717 19.0354
L60.7113 18.9749
" />
<path d="M61.9208 17.9468
L61.9812 17.8863
" />
<path d="M61.9812 17.8863
L62.1022 17.8258
" />
<path d="M62.1022 17.8258
L62.4046 17.8258
" />
<path d="M62.4046 17.8258
L62.5255 17.8863
" />
<path d="M62.5255 17.8863
L62.5860 17.9468
" />
<path d="M62.5860 17.9468
L62.6465 18.0677
" />
<path d="M62.6465 18.0677
L62.6465 18.1887
" />
<path d="M62.6465 18.1887
L62.5860 18.3701
" />
<path d="M62.5860 18.3701
L61.8603 19.0958
" />
<path d="M61.8603 19.0958
L62.6465 19.0958
" />
<path d="M63.0698 19.0958
L63.7350 18.2492
" />
<path d="M63.0698 18.2492
L63.7350 19.0958
" />
<path d="M64.2188 19.0958
L64.2188 17.8258
" />
<path d="M64.2188 17.8258
L64.6422 18.7330
" />
<path d="M64.6422 18.7330
L65.0655 17.8258
" />
<path d="M65.0655 17.8258
L65.0655 19.0958
" />
<path d="M65.6098 19.0354
L65.7912 19.0958
" />
<path d="M65.7912 19.0958
L66.0936 19.0958
" />
<path d="M66.0936 19.0958
L66.2145 19.0354
" />
<path d="M66.2145 19.0354
L66.2750 18.9749
" />
<path d="M66.2750 18.9749
L66.3355 18.8539
" />
<path d="M66.3355 18.8539
L66.3355 18.7330
" />
<path d="M66.3355 18.7330
L66.2750 18.6120
" />
<path d="M66.2750 18.6120
L66.2145 18.5515
" />
<path d="M66.2145 18.5515
L66.0936 18.4911
" />
<path d="M66.0936 18.4911
L65.8517 18.4306
" />
<path d="M65.8517 18.4306
L65.7307 18.3701
" />
<path d="M65.7307 18.3701
L65.6702 18.3096
" />
<path d="M65.6702 18.3096
L65.6098 18.1887
" />
<path d="M65.6098 18.1887
L65.6098 18.0677
" />
<path d="M65.6098 18.0677
L65.6702 17.9468
" />
<path d="M65.6702 17.9468
L65.7307 17.8863
" />
<path d="M65.7307 17.8863
L65.8517 17.8258
" />
<path d="M65.8517 17.8258
L66.1540 17.8258
" />
<path d="M66.1540 17.8258
L66.3355 17.8863
" />
<path d="M67.0612 18.3701
L66.9402 18.3096
" />
<path d="M66.9402 18.3096
L66.8797 18.2492
" />
<path d="M66.8797 18.2492
L66.8193 18.1282
" />
<path d="M66.8193 18.1282
L66.8193 18.0677
" />
<path d="M66.8193 18.0677
L66.8797 17.9468
" />
<path d="M66.8797 17.9468
L66.9402 17.8863
" />
<path d="M66.9402 17.8863
L67.0612 17.8258
" />
<path d="M67.0612 17.8258
L67.3031 17.8258
" />
<path d="M67.3031 17.8258
L67.4240 17.8863
" />
<path d="M67.4240 17.8863
L67.4845 17.9468
" />
<path d="M67.4845 17.9468
L67.5450 18.0677
" />
<path d="M67.5450 18.0677
L67.5450 18.1282
" />
<path d="M67.5450 18.1282
L67.4845 18.2492
" />
<path d="M67.4845 18.2492
L67.4240 18.3096
" />
<path d="M67.4240 18.3096
L67.3031 18.3701
" />
<path d="M67.3031 18.3701
L67.0612 18.3701
" />
<path d="M67.0612 18.3701
L66.9402 18.4306
" />
<path d="M66.9402 18.4306
L66.8797 18.4911
" />
<path d="M66.8797 18.4911
L66.8193 18.6120
" />
<path d="M66.8193 18.6120
L66.8193 18.8539
" />
<path d="M66.8193 18.8539
L66.8797 18.9749
" />
<path d="M66.8797 18.9749
L66.9402 19.0354
" />
<path d="M66.9402 19.0354
L67.0612 19.0958
" />
<path d="M67.0612 19.0958
L67.3031 19.0958
" />
<path d="M67.3031 19.0958
L67.4240 19.0354
" />
<path d="M67.4240 19.0354
L67.4845 18.9749
" />
<path d="M67.4845 18.9749
L67.5450 18.8539
" />
<path d="M67.5450 18.8539
L67.5450 18.6120
" />
<path d="M67.5450 18.6120
L67.4845 18.4911
" />
<path d="M67.4845 18.4911
L67.4240 18.4306
" />
<path d="M67.4240 18.4306
L67.3031 18.3701
" />
<path d="M68.0892 18.6120
L69.0569 18.6120
" />
<path d="M69.6012 17.9468
L69.6616 17.8863
" />
<path d="M69.6616 17.8863
L69.7826 17.8258
" />
<path d="M69.7826 17.8258
L70.0850 17.8258
" />
<path d="M70.0850 17.8258
L70.2059 17.8863
" />
<path d="M70.2059 17.8863
L70.2664 17.9468
" />
<path d="M70.2664 17.9468
L70.3269 18.0677
" />
<path d="M70.3269 18.0677
L70.3269 18.1887
" />
<path d="M70.3269 18.1887
L70.2664 18.3701
" />
<path d="M70.2664 18.3701
L69.5407 19.0958
" />
<path d="M69.5407 19.0958
L70.3269 19.0958
" />
</g></g> 
</svg>
