<?xml version="1.0" standalone="no"?>
 <!DOCTYPE svg PUBLIC "-//W3C//DTD SVG 1.1//EN" 
 "http://www.w3.org/Graphics/SVG/1.1/DTD/svg11.dtd"> 
<svg
  xmlns:svg="http://www.w3.org/2000/svg"
  xmlns="http://www.w3.org/2000/svg"
  xmlns:xlink="http://www.w3.org/1999/xlink"
  version="1.1"
  width="77.8510mm" height="10.8458mm" viewBox="0.0000 0.0000 77.8510 10.8458">
<title>SVG Image created as smzxxx.svg date 2024/01/16 15:09:20 </title>
  <desc>Image generated by Eeschema-SVG </desc>
<g style="fill:#000000; fill-opacity:1.0000;stroke:#000000; stroke-opacity:1.0000;
stroke-linecap:round; stroke-linejoin:round;"
 transform="translate(0 0) scale(1 1)">
</g>
<g style="fill:#840000; fill-opacity:0.0; 
stroke:#840000; stroke-width:0.0000; stroke-opacity:1; 
stroke-linecap:round; stroke-linejoin:round;">
</g>
<g style="fill:#840084; fill-opacity:0.0; 
stroke:#840084; stroke-width:0.0000; stroke-opacity:1; 
stroke-linecap:round; stroke-linejoin:round;">
</g>
<g style="fill:#840000; fill-opacity:0.0; 
stroke:#840000; stroke-width:0.0000; stroke-opacity:1; 
stroke-linecap:round; stroke-linejoin:round;">
</g>
<g style="fill:#840000; fill-opacity:0.0; 
stroke:#840000; stroke-width:0.1524; stroke-opacity:1; 
stroke-linecap:round; stroke-linejoin:round;">
<path style="fill:#840000; fill-opacity:0.0; 
stroke:#840000; stroke-width:0.1524; stroke-opacity:1; 
stroke-linecap:round; stroke-linejoin:round;fill:none"
d="M 40.1955,5.4229
37.6555,5.4229
" /> 
</g>
<g style="fill:#840000; fill-opacity:0.0; 
stroke:#840000; stroke-width:0.2540; stroke-opacity:1; 
stroke-linecap:round; stroke-linejoin:round;">
<path style="fill:#840000; fill-opacity:0.0; 
stroke:#840000; stroke-width:0.2540; stroke-opacity:1; 
stroke-linecap:round; stroke-linejoin:round;fill:none"
d="M 37.6555,6.6929
37.6555,4.1529
38.1635,4.1529
" /> 
<path style="fill:#840000; fill-opacity:0.0; 
stroke:#840000; stroke-width:0.2540; stroke-opacity:1; 
stroke-linecap:round; stroke-linejoin:round;fill:none"
d="M 40.1955,6.6929
40.1955,4.1529
37.6555,5.4229
Z" /> 
</g>
<g style="fill:#840000; fill-opacity:0.0; 
stroke:#840000; stroke-width:0.1524; stroke-opacity:1; 
stroke-linecap:round; stroke-linejoin:round;">
<path d="M37.6555 5.4229
L35.1155 5.4229
" />
<path d="M40.1955 5.4229
L42.7355 5.4229
" />
</g>
<g style="fill:#840084; fill-opacity:0.0; 
stroke:#840084; stroke-width:0.1524; stroke-opacity:1; 
stroke-linecap:round; stroke-linejoin:round;">
</g>
<g style="fill:#006464; fill-opacity:0.0; 
stroke:#006464; stroke-width:0.1524; stroke-opacity:1; 
stroke-linecap:round; stroke-linejoin:round;">
</g>
<g style="fill:#006464; fill-opacity:0.0; 
stroke:#006464; stroke-width:0.1588; stroke-opacity:1; 
stroke-linecap:round; stroke-linejoin:round;">
<text x="38.9255" y="3.5179"
textLength="2.5810" font-size="1.6933" lengthAdjust="spacingAndGlyphs"
text-anchor="middle" opacity="0">D?</text>
<g class="stroked-text"><desc>D?</desc>
<path d="M38.0485 3.4621
L38.0485 2.1921
" />
<path d="M38.0485 2.1921
L38.3509 2.1921
" />
<path d="M38.3509 2.1921
L38.5323 2.2526
" />
<path d="M38.5323 2.2526
L38.6533 2.3736
" />
<path d="M38.6533 2.3736
L38.7138 2.4945
" />
<path d="M38.7138 2.4945
L38.7742 2.7364
" />
<path d="M38.7742 2.7364
L38.7742 2.9178
" />
<path d="M38.7742 2.9178
L38.7138 3.1597
" />
<path d="M38.7138 3.1597
L38.6533 3.2807
" />
<path d="M38.6533 3.2807
L38.5323 3.4017
" />
<path d="M38.5323 3.4017
L38.3509 3.4621
" />
<path d="M38.3509 3.4621
L38.0485 3.4621
" />
<path d="M39.5000 3.3412
L39.5604 3.4017
" />
<path d="M39.5604 3.4017
L39.5000 3.4621
" />
<path d="M39.5000 3.4621
L39.4395 3.4017
" />
<path d="M39.4395 3.4017
L39.5000 3.3412
" />
<path d="M39.5000 3.3412
L39.5000 3.4621
" />
<path d="M39.2581 2.2526
L39.3790 2.1921
" />
<path d="M39.3790 2.1921
L39.6814 2.1921
" />
<path d="M39.6814 2.1921
L39.8023 2.2526
" />
<path d="M39.8023 2.2526
L39.8628 2.3736
" />
<path d="M39.8628 2.3736
L39.8628 2.4945
" />
<path d="M39.8628 2.4945
L39.8023 2.6155
" />
<path d="M39.8023 2.6155
L39.7419 2.6759
" />
<path d="M39.7419 2.6759
L39.6209 2.7364
" />
<path d="M39.6209 2.7364
L39.5604 2.7969
" />
<path d="M39.5604 2.7969
L39.5000 2.9178
" />
<path d="M39.5000 2.9178
L39.5000 2.9783
" />
</g><text x="38.9255" y="8.5979"
textLength="7.1771" font-size="1.6933" lengthAdjust="spacingAndGlyphs"
text-anchor="middle" opacity="0">SMZxxx</text>
<g class="stroked-text"><desc>SMZxxx</desc>
<path d="M35.6901 8.4817
L35.8715 8.5421
" />
<path d="M35.8715 8.5421
L36.1739 8.5421
" />
<path d="M36.1739 8.5421
L36.2948 8.4817
" />
<path d="M36.2948 8.4817
L36.3553 8.4212
" />
<path d="M36.3553 8.4212
L36.4158 8.3002
" />
<path d="M36.4158 8.3002
L36.4158 8.1793
" />
<path d="M36.4158 8.1793
L36.3553 8.0583
" />
<path d="M36.3553 8.0583
L36.2948 7.9978
" />
<path d="M36.2948 7.9978
L36.1739 7.9374
" />
<path d="M36.1739 7.9374
L35.9320 7.8769
" />
<path d="M35.9320 7.8769
L35.8110 7.8164
" />
<path d="M35.8110 7.8164
L35.7505 7.7559
" />
<path d="M35.7505 7.7559
L35.6901 7.6350
" />
<path d="M35.6901 7.6350
L35.6901 7.5140
" />
<path d="M35.6901 7.5140
L35.7505 7.3931
" />
<path d="M35.7505 7.3931
L35.8110 7.3326
" />
<path d="M35.8110 7.3326
L35.9320 7.2721
" />
<path d="M35.9320 7.2721
L36.2343 7.2721
" />
<path d="M36.2343 7.2721
L36.4158 7.3326
" />
<path d="M36.9600 8.5421
L36.9600 7.2721
" />
<path d="M36.9600 7.2721
L37.3834 8.1793
" />
<path d="M37.3834 8.1793
L37.8067 7.2721
" />
<path d="M37.8067 7.2721
L37.8067 8.5421
" />
<path d="M38.2905 7.2721
L39.1371 7.2721
" />
<path d="M39.1371 7.2721
L38.2905 8.5421
" />
<path d="M38.2905 8.5421
L39.1371 8.5421
" />
<path d="M39.5000 8.5421
L40.1652 7.6955
" />
<path d="M39.5000 7.6955
L40.1652 8.5421
" />
<path d="M40.5281 8.5421
L41.1933 7.6955
" />
<path d="M40.5281 7.6955
L41.1933 8.5421
" />
<path d="M41.5562 8.5421
L42.2214 7.6955
" />
<path d="M41.5562 7.6955
L42.2214 8.5421
" />
</g></g> 
</svg>
