<?xml version="1.0" standalone="no"?>
 <!DOCTYPE svg PUBLIC "-//W3C//DTD SVG 1.1//EN" 
 "http://www.w3.org/Graphics/SVG/1.1/DTD/svg11.dtd"> 
<svg
  xmlns:svg="http://www.w3.org/2000/svg"
  xmlns="http://www.w3.org/2000/svg"
  xmlns:xlink="http://www.w3.org/1999/xlink"
  version="1.1"
  width="21.6662mm" height="18.5928mm" viewBox="0.0000 0.0000 21.6662 18.5928">
<title>SVG Image created as SO-24_5.3x15mm_P1.27mm.svg date 2024/01/16 15:07:27 </title>
  <desc>Image generated by PCBNEW </desc>
<g style="fill:#000000; fill-opacity:1.0000;stroke:#000000; stroke-opacity:1.0000;
stroke-linecap:round; stroke-linejoin:round;"
 transform="translate(0 0) scale(1 1)">
</g>
<g style="fill:#000000; fill-opacity:0.0; 
stroke:#000000; stroke-width:0.0000; stroke-opacity:1; 
stroke-linecap:round; stroke-linejoin:round;">
</g>
<g style="fill:#000000; fill-opacity:1.0000; 
stroke:#000000; stroke-width:0.0212; stroke-opacity:1; 
stroke-linecap:round; stroke-linejoin:round;">
<rect x="-5.000000" y="-5.000000" width="31.678570" height="28.596500" rx="0.000000" />
</g>
<g style="fill:#FFFFFF; fill-opacity:1.0000; 
stroke:#FFFFFF; stroke-width:0.0212; stroke-opacity:1; 
stroke-linecap:round; stroke-linejoin:round;">
<g >
</g>
<g >
</g>
<g >
</g>
<g >
</g>
</g>
<g style="fill:#FFFFFF; fill-opacity:1.0000; 
stroke:#FFFFFF; stroke-width:0.0212; stroke-opacity:1; 
stroke-linecap:round; stroke-linejoin:round;">
<g >
</g>
<g >
</g>
<g >
</g>
<g >
</g>
</g>
<g style="fill:#FFFFFF; fill-opacity:1.0000; 
stroke:#FFFFFF; stroke-width:0.0212; stroke-opacity:1; 
stroke-linecap:round; stroke-linejoin:round;">
<g >
</g>
<g >
</g>
<g >
</g>
<g >
</g>
</g>
<g style="fill:#FFFFFF; fill-opacity:1.0000; 
stroke:#FFFFFF; stroke-width:0.0212; stroke-opacity:1; 
stroke-linecap:round; stroke-linejoin:round;">
<g >
</g>
<g >
</g>
<g >
</g>
<g >
</g>
</g>
<g style="fill:#FFFFFF; fill-opacity:1.0000; 
stroke:#FFFFFF; stroke-width:0.0212; stroke-opacity:1; 
stroke-linecap:round; stroke-linejoin:round;">
<g >
</g>
<g >
</g>
<g >
</g>
<g >
</g>
</g>
<g style="fill:#FFFFFF; fill-opacity:1.0000; 
stroke:#FFFFFF; stroke-width:0.0212; stroke-opacity:1; 
stroke-linecap:round; stroke-linejoin:round;">
<g >
</g>
<g >
</g>
<g >
</g>
<g >
</g>
</g>
<g style="fill:#FFFFFF; fill-opacity:1.0000; 
stroke:#FFFFFF; stroke-width:0.0212; stroke-opacity:1; 
stroke-linecap:round; stroke-linejoin:round;">
<g >
</g>
<g >
</g>
<g >
</g>
<g >
</g>
</g>
<g style="fill:#FFFFFF; fill-opacity:1.0000; 
stroke:#FFFFFF; stroke-width:0.0212; stroke-opacity:1; 
stroke-linecap:round; stroke-linejoin:round;">
<g >
</g>
<g >
</g>
<g >
</g>
<g >
</g>
</g>
<g style="fill:#FFFFFF; fill-opacity:1.0000; 
stroke:#FFFFFF; stroke-width:0.0212; stroke-opacity:1; 
stroke-linecap:round; stroke-linejoin:round;">
<g >
</g>
<g >
</g>
<g >
</g>
<g >
</g>
</g>
<g style="fill:#FFFFFF; fill-opacity:1.0000; 
stroke:#FFFFFF; stroke-width:0.0212; stroke-opacity:1; 
stroke-linecap:round; stroke-linejoin:round;">
<g >
</g>
<g >
</g>
<g >
</g>
<g >
</g>
</g>
<g style="fill:#FFFFFF; fill-opacity:1.0000; 
stroke:#FFFFFF; stroke-width:0.0212; stroke-opacity:1; 
stroke-linecap:round; stroke-linejoin:round;">
<g >
</g>
<g >
</g>
<g >
</g>
<g >
</g>
</g>
<g style="fill:#FFFFFF; fill-opacity:1.0000; 
stroke:#FFFFFF; stroke-width:0.0212; stroke-opacity:1; 
stroke-linecap:round; stroke-linejoin:round;">
<g >
</g>
<g >
</g>
<g >
</g>
<g >
</g>
</g>
<g style="fill:#FFFFFF; fill-opacity:1.0000; 
stroke:#FFFFFF; stroke-width:0.0212; stroke-opacity:1; 
stroke-linecap:round; stroke-linejoin:round;">
<g >
</g>
<g >
</g>
<g >
</g>
<g >
</g>
</g>
<g style="fill:#FFFFFF; fill-opacity:1.0000; 
stroke:#FFFFFF; stroke-width:0.0212; stroke-opacity:1; 
stroke-linecap:round; stroke-linejoin:round;">
<g >
</g>
<g >
</g>
<g >
</g>
<g >
</g>
</g>
<g style="fill:#FFFFFF; fill-opacity:1.0000; 
stroke:#FFFFFF; stroke-width:0.0212; stroke-opacity:1; 
stroke-linecap:round; stroke-linejoin:round;">
<g >
</g>
<g >
</g>
<g >
</g>
<g >
</g>
</g>
<g style="fill:#FFFFFF; fill-opacity:1.0000; 
stroke:#FFFFFF; stroke-width:0.0212; stroke-opacity:1; 
stroke-linecap:round; stroke-linejoin:round;">
<g >
</g>
<g >
</g>
<g >
</g>
<g >
</g>
</g>
<g style="fill:#FFFFFF; fill-opacity:1.0000; 
stroke:#FFFFFF; stroke-width:0.0212; stroke-opacity:1; 
stroke-linecap:round; stroke-linejoin:round;">
<g >
</g>
<g >
</g>
<g >
</g>
<g >
</g>
</g>
<g style="fill:#FFFFFF; fill-opacity:1.0000; 
stroke:#FFFFFF; stroke-width:0.0212; stroke-opacity:1; 
stroke-linecap:round; stroke-linejoin:round;">
<g >
</g>
<g >
</g>
<g >
</g>
<g >
</g>
</g>
<g style="fill:#FFFFFF; fill-opacity:1.0000; 
stroke:#FFFFFF; stroke-width:0.0212; stroke-opacity:1; 
stroke-linecap:round; stroke-linejoin:round;">
<g >
</g>
<g >
</g>
<g >
</g>
<g >
</g>
</g>
<g style="fill:#FFFFFF; fill-opacity:1.0000; 
stroke:#FFFFFF; stroke-width:0.0212; stroke-opacity:1; 
stroke-linecap:round; stroke-linejoin:round;">
<g >
</g>
<g >
</g>
<g >
</g>
<g >
</g>
</g>
<g style="fill:#FFFFFF; fill-opacity:1.0000; 
stroke:#FFFFFF; stroke-width:0.0212; stroke-opacity:1; 
stroke-linecap:round; stroke-linejoin:round;">
<g >
</g>
<g >
</g>
<g >
</g>
<g >
</g>
</g>
<g style="fill:#FFFFFF; fill-opacity:1.0000; 
stroke:#FFFFFF; stroke-width:0.0212; stroke-opacity:1; 
stroke-linecap:round; stroke-linejoin:round;">
<g >
</g>
<g >
</g>
<g >
</g>
<g >
</g>
</g>
<g style="fill:#FFFFFF; fill-opacity:1.0000; 
stroke:#FFFFFF; stroke-width:0.0212; stroke-opacity:1; 
stroke-linecap:round; stroke-linejoin:round;">
<g >
</g>
<g >
</g>
<g >
</g>
<g >
</g>
</g>
<g style="fill:#FFFFFF; fill-opacity:1.0000; 
stroke:#FFFFFF; stroke-width:0.0212; stroke-opacity:1; 
stroke-linecap:round; stroke-linejoin:round;">
<g >
</g>
<g >
</g>
<g >
</g>
<g >
</g>
</g>
<g style="fill:#FFFFFF; fill-opacity:1.0000; 
stroke:#FFFFFF; stroke-width:0.0212; stroke-opacity:1; 
stroke-linecap:round; stroke-linejoin:round;">
<g >
</g>
<g >
</g>
<g >
</g>
<g >
</g>
</g>
<g style="fill:#FFFFFF; fill-opacity:1.0000; 
stroke:#FFFFFF; stroke-width:0.0212; stroke-opacity:1; 
stroke-linecap:round; stroke-linejoin:round;">
<g >
</g>
<g >
</g>
<g >
</g>
<g >
</g>
</g>
<g style="fill:#FFFFFF; fill-opacity:1.0000; 
stroke:#FFFFFF; stroke-width:0.0212; stroke-opacity:1; 
stroke-linecap:round; stroke-linejoin:round;">
<g >
</g>
<g >
</g>
<g >
</g>
<g >
</g>
</g>
<g style="fill:#FFFFFF; fill-opacity:1.0000; 
stroke:#FFFFFF; stroke-width:0.0212; stroke-opacity:1; 
stroke-linecap:round; stroke-linejoin:round;">
<g >
</g>
<g >
</g>
<g >
</g>
<g >
</g>
</g>
<g style="fill:#FFFFFF; fill-opacity:1.0000; 
stroke:#FFFFFF; stroke-width:0.0212; stroke-opacity:1; 
stroke-linecap:round; stroke-linejoin:round;">
<g >
</g>
<g >
</g>
<g >
</g>
<g >
</g>
</g>
<g style="fill:#FFFFFF; fill-opacity:1.0000; 
stroke:#FFFFFF; stroke-width:0.0212; stroke-opacity:1; 
stroke-linecap:round; stroke-linejoin:round;">
<g >
</g>
<g >
</g>
<g >
</g>
<g >
</g>
</g>
<g style="fill:#FFFFFF; fill-opacity:1.0000; 
stroke:#FFFFFF; stroke-width:0.0212; stroke-opacity:1; 
stroke-linecap:round; stroke-linejoin:round;">
<g >
</g>
<g >
</g>
<g >
</g>
<g >
</g>
</g>
<g style="fill:#FFFFFF; fill-opacity:1.0000; 
stroke:#FFFFFF; stroke-width:0.0212; stroke-opacity:1; 
stroke-linecap:round; stroke-linejoin:round;">
<g >
</g>
<g >
</g>
<g >
</g>
<g >
</g>
</g>
<g style="fill:#FFFFFF; fill-opacity:1.0000; 
stroke:#FFFFFF; stroke-width:0.0212; stroke-opacity:1; 
stroke-linecap:round; stroke-linejoin:round;">
<g >
</g>
<g >
</g>
<g >
</g>
<g >
</g>
</g>
<g style="fill:#FFFFFF; fill-opacity:1.0000; 
stroke:#FFFFFF; stroke-width:0.0212; stroke-opacity:1; 
stroke-linecap:round; stroke-linejoin:round;">
<g >
</g>
<g style="fill:#37CBCB; fill-opacity:1.0000; 
stroke:#37CBCB; stroke-width:0.0212; stroke-opacity:1; 
stroke-linecap:round; stroke-linejoin:round;">
</g>
<g style="fill:#37CBCB; fill-opacity:1.0000; 
stroke:#37CBCB; stroke-width:0.0000; stroke-opacity:1; 
stroke-linecap:round; stroke-linejoin:round;">
<path style="fill:#37CBCB; fill-opacity:1.0000; 
stroke:#37CBCB; stroke-width:0.0000; stroke-opacity:1; 
stroke-linecap:round; stroke-linejoin:round;fill-rule:evenodd;"
d="M 6.3893,2.1633
6.4007,2.1058
6.4332,2.0572
6.4819,2.0247
6.5393,2.0132
8.2143,2.0132
8.2717,2.0247
8.3204,2.0572
8.3529,2.1058
8.3643,2.1633
8.3643,2.4632
8.3529,2.5207
8.3204,2.5693
8.2717,2.6018
8.2143,2.6132
6.5393,2.6132
6.4819,2.6018
6.4332,2.5693
6.4007,2.5207
6.3893,2.4632
Z" /> 
<path style="fill:#37CBCB; fill-opacity:1.0000; 
stroke:#37CBCB; stroke-width:0.0000; stroke-opacity:1; 
stroke-linecap:round; stroke-linejoin:round;fill-rule:evenodd;"
d="M 6.3893,3.4332
6.4007,3.3758
6.4332,3.3272
6.4819,3.2947
6.5393,3.2832
8.2143,3.2832
8.2717,3.2947
8.3204,3.3272
8.3529,3.3758
8.3643,3.4332
8.3643,3.7332
8.3529,3.7907
8.3204,3.8393
8.2717,3.8718
8.2143,3.8832
6.5393,3.8832
6.4819,3.8718
6.4332,3.8393
6.4007,3.7907
6.3893,3.7332
Z" /> 
<path style="fill:#37CBCB; fill-opacity:1.0000; 
stroke:#37CBCB; stroke-width:0.0000; stroke-opacity:1; 
stroke-linecap:round; stroke-linejoin:round;fill-rule:evenodd;"
d="M 6.3893,4.7032
6.4007,4.6458
6.4332,4.5972
6.4819,4.5647
6.5393,4.5532
8.2143,4.5532
8.2717,4.5647
8.3204,4.5972
8.3529,4.6458
8.3643,4.7032
8.3643,5.0032
8.3529,5.0607
8.3204,5.1093
8.2717,5.1418
8.2143,5.1532
6.5393,5.1532
6.4819,5.1418
6.4332,5.1093
6.4007,5.0607
6.3893,5.0032
Z" /> 
<path style="fill:#37CBCB; fill-opacity:1.0000; 
stroke:#37CBCB; stroke-width:0.0000; stroke-opacity:1; 
stroke-linecap:round; stroke-linejoin:round;fill-rule:evenodd;"
d="M 6.3893,5.9733
6.4007,5.9158
6.4332,5.8672
6.4819,5.8347
6.5393,5.8232
8.2143,5.8232
8.2717,5.8347
8.3204,5.8672
8.3529,5.9158
8.3643,5.9733
8.3643,6.2732
8.3529,6.3307
8.3204,6.3793
8.2717,6.4118
8.2143,6.4232
6.5393,6.4232
6.4819,6.4118
6.4332,6.3793
6.4007,6.3307
6.3893,6.2732
Z" /> 
<path style="fill:#37CBCB; fill-opacity:1.0000; 
stroke:#37CBCB; stroke-width:0.0000; stroke-opacity:1; 
stroke-linecap:round; stroke-linejoin:round;fill-rule:evenodd;"
d="M 6.3893,7.2432
6.4007,7.1858
6.4332,7.1372
6.4819,7.1047
6.5393,7.0932
8.2143,7.0932
8.2717,7.1047
8.3204,7.1372
8.3529,7.1858
8.3643,7.2432
8.3643,7.5432
8.3529,7.6007
8.3204,7.6493
8.2717,7.6818
8.2143,7.6932
6.5393,7.6932
6.4819,7.6818
6.4332,7.6493
6.4007,7.6007
6.3893,7.5432
Z" /> 
<path style="fill:#37CBCB; fill-opacity:1.0000; 
stroke:#37CBCB; stroke-width:0.0000; stroke-opacity:1; 
stroke-linecap:round; stroke-linejoin:round;fill-rule:evenodd;"
d="M 6.3893,8.5132
6.4007,8.4558
6.4332,8.4072
6.4819,8.3747
6.5393,8.3632
8.2143,8.3632
8.2717,8.3747
8.3204,8.4072
8.3529,8.4558
8.3643,8.5132
8.3643,8.8133
8.3529,8.8707
8.3204,8.9193
8.2717,8.9518
8.2143,8.9633
6.5393,8.9633
6.4819,8.9518
6.4332,8.9193
6.4007,8.8707
6.3893,8.8133
Z" /> 
<path style="fill:#37CBCB; fill-opacity:1.0000; 
stroke:#37CBCB; stroke-width:0.0000; stroke-opacity:1; 
stroke-linecap:round; stroke-linejoin:round;fill-rule:evenodd;"
d="M 6.3893,9.7832
6.4007,9.7258
6.4332,9.6772
6.4819,9.6447
6.5393,9.6333
8.2143,9.6333
8.2717,9.6447
8.3204,9.6772
8.3529,9.7258
8.3643,9.7832
8.3643,10.0832
8.3529,10.1407
8.3204,10.1893
8.2717,10.2218
8.2143,10.2332
6.5393,10.2332
6.4819,10.2218
6.4332,10.1893
6.4007,10.1407
6.3893,10.0832
Z" /> 
<path style="fill:#37CBCB; fill-opacity:1.0000; 
stroke:#37CBCB; stroke-width:0.0000; stroke-opacity:1; 
stroke-linecap:round; stroke-linejoin:round;fill-rule:evenodd;"
d="M 6.3893,11.0533
6.4007,10.9958
6.4332,10.9472
6.4819,10.9147
6.5393,10.9032
8.2143,10.9032
8.2717,10.9147
8.3204,10.9472
8.3529,10.9958
8.3643,11.0533
8.3643,11.3532
8.3529,11.4107
8.3204,11.4593
8.2717,11.4918
8.2143,11.5032
6.5393,11.5032
6.4819,11.4918
6.4332,11.4593
6.4007,11.4107
6.3893,11.3532
Z" /> 
<path style="fill:#37CBCB; fill-opacity:1.0000; 
stroke:#37CBCB; stroke-width:0.0000; stroke-opacity:1; 
stroke-linecap:round; stroke-linejoin:round;fill-rule:evenodd;"
d="M 6.3893,12.3232
6.4007,12.2658
6.4332,12.2172
6.4819,12.1847
6.5393,12.1732
8.2143,12.1732
8.2717,12.1847
8.3204,12.2172
8.3529,12.2658
8.3643,12.3232
8.3643,12.6232
8.3529,12.6807
8.3204,12.7293
8.2717,12.7618
8.2143,12.7732
6.5393,12.7732
6.4819,12.7618
6.4332,12.7293
6.4007,12.6807
6.3893,12.6232
Z" /> 
<path style="fill:#37CBCB; fill-opacity:1.0000; 
stroke:#37CBCB; stroke-width:0.0000; stroke-opacity:1; 
stroke-linecap:round; stroke-linejoin:round;fill-rule:evenodd;"
d="M 6.3893,13.5932
6.4007,13.5358
6.4332,13.4872
6.4819,13.4547
6.5393,13.4432
8.2143,13.4432
8.2717,13.4547
8.3204,13.4872
8.3529,13.5358
8.3643,13.5932
8.3643,13.8933
8.3529,13.9507
8.3204,13.9993
8.2717,14.0318
8.2143,14.0432
6.5393,14.0432
6.4819,14.0318
6.4332,13.9993
6.4007,13.9507
6.3893,13.8933
Z" /> 
<path style="fill:#37CBCB; fill-opacity:1.0000; 
stroke:#37CBCB; stroke-width:0.0000; stroke-opacity:1; 
stroke-linecap:round; stroke-linejoin:round;fill-rule:evenodd;"
d="M 6.3893,14.8632
6.4007,14.8058
6.4332,14.7572
6.4819,14.7247
6.5393,14.7132
8.2143,14.7132
8.2717,14.7247
8.3204,14.7572
8.3529,14.8058
8.3643,14.8632
8.3643,15.1632
8.3529,15.2207
8.3204,15.2693
8.2717,15.3018
8.2143,15.3133
6.5393,15.3133
6.4819,15.3018
6.4332,15.2693
6.4007,15.2207
6.3893,15.1632
Z" /> 
<path style="fill:#37CBCB; fill-opacity:1.0000; 
stroke:#37CBCB; stroke-width:0.0000; stroke-opacity:1; 
stroke-linecap:round; stroke-linejoin:round;fill-rule:evenodd;"
d="M 6.3893,16.1333
6.4007,16.0758
6.4332,16.0272
6.4819,15.9947
6.5393,15.9832
8.2143,15.9832
8.2717,15.9947
8.3204,16.0272
8.3529,16.0758
8.3643,16.1333
8.3643,16.4333
8.3529,16.4907
8.3204,16.5393
8.2717,16.5718
8.2143,16.5832
6.5393,16.5832
6.4819,16.5718
6.4332,16.5393
6.4007,16.4907
6.3893,16.4333
Z" /> 
<path style="fill:#37CBCB; fill-opacity:1.0000; 
stroke:#37CBCB; stroke-width:0.0000; stroke-opacity:1; 
stroke-linecap:round; stroke-linejoin:round;fill-rule:evenodd;"
d="M 13.3143,16.1333
13.3257,16.0758
13.3582,16.0272
13.4069,15.9947
13.4643,15.9832
15.1393,15.9832
15.1967,15.9947
15.2454,16.0272
15.2779,16.0758
15.2893,16.1333
15.2893,16.4333
15.2779,16.4907
15.2454,16.5393
15.1967,16.5718
15.1393,16.5832
13.4643,16.5832
13.4069,16.5718
13.3582,16.5393
13.3257,16.4907
13.3143,16.4333
Z" /> 
<path style="fill:#37CBCB; fill-opacity:1.0000; 
stroke:#37CBCB; stroke-width:0.0000; stroke-opacity:1; 
stroke-linecap:round; stroke-linejoin:round;fill-rule:evenodd;"
d="M 13.3143,14.8632
13.3257,14.8058
13.3582,14.7572
13.4069,14.7247
13.4643,14.7132
15.1393,14.7132
15.1967,14.7247
15.2454,14.7572
15.2779,14.8058
15.2893,14.8632
15.2893,15.1632
15.2779,15.2207
15.2454,15.2693
15.1967,15.3018
15.1393,15.3133
13.4643,15.3133
13.4069,15.3018
13.3582,15.2693
13.3257,15.2207
13.3143,15.1632
Z" /> 
<path style="fill:#37CBCB; fill-opacity:1.0000; 
stroke:#37CBCB; stroke-width:0.0000; stroke-opacity:1; 
stroke-linecap:round; stroke-linejoin:round;fill-rule:evenodd;"
d="M 13.3143,13.5932
13.3257,13.5358
13.3582,13.4872
13.4069,13.4547
13.4643,13.4432
15.1393,13.4432
15.1967,13.4547
15.2454,13.4872
15.2779,13.5358
15.2893,13.5932
15.2893,13.8933
15.2779,13.9507
15.2454,13.9993
15.1967,14.0318
15.1393,14.0432
13.4643,14.0432
13.4069,14.0318
13.3582,13.9993
13.3257,13.9507
13.3143,13.8933
Z" /> 
<path style="fill:#37CBCB; fill-opacity:1.0000; 
stroke:#37CBCB; stroke-width:0.0000; stroke-opacity:1; 
stroke-linecap:round; stroke-linejoin:round;fill-rule:evenodd;"
d="M 13.3143,12.3232
13.3257,12.2658
13.3582,12.2172
13.4069,12.1847
13.4643,12.1732
15.1393,12.1732
15.1967,12.1847
15.2454,12.2172
15.2779,12.2658
15.2893,12.3232
15.2893,12.6232
15.2779,12.6807
15.2454,12.7293
15.1967,12.7618
15.1393,12.7732
13.4643,12.7732
13.4069,12.7618
13.3582,12.7293
13.3257,12.6807
13.3143,12.6232
Z" /> 
<path style="fill:#37CBCB; fill-opacity:1.0000; 
stroke:#37CBCB; stroke-width:0.0000; stroke-opacity:1; 
stroke-linecap:round; stroke-linejoin:round;fill-rule:evenodd;"
d="M 13.3143,11.0533
13.3257,10.9958
13.3582,10.9472
13.4069,10.9147
13.4643,10.9032
15.1393,10.9032
15.1967,10.9147
15.2454,10.9472
15.2779,10.9958
15.2893,11.0533
15.2893,11.3532
15.2779,11.4107
15.2454,11.4593
15.1967,11.4918
15.1393,11.5032
13.4643,11.5032
13.4069,11.4918
13.3582,11.4593
13.3257,11.4107
13.3143,11.3532
Z" /> 
<path style="fill:#37CBCB; fill-opacity:1.0000; 
stroke:#37CBCB; stroke-width:0.0000; stroke-opacity:1; 
stroke-linecap:round; stroke-linejoin:round;fill-rule:evenodd;"
d="M 13.3143,9.7832
13.3257,9.7258
13.3582,9.6772
13.4069,9.6447
13.4643,9.6333
15.1393,9.6333
15.1967,9.6447
15.2454,9.6772
15.2779,9.7258
15.2893,9.7832
15.2893,10.0832
15.2779,10.1407
15.2454,10.1893
15.1967,10.2218
15.1393,10.2332
13.4643,10.2332
13.4069,10.2218
13.3582,10.1893
13.3257,10.1407
13.3143,10.0832
Z" /> 
<path style="fill:#37CBCB; fill-opacity:1.0000; 
stroke:#37CBCB; stroke-width:0.0000; stroke-opacity:1; 
stroke-linecap:round; stroke-linejoin:round;fill-rule:evenodd;"
d="M 13.3143,8.5132
13.3257,8.4558
13.3582,8.4072
13.4069,8.3747
13.4643,8.3632
15.1393,8.3632
15.1967,8.3747
15.2454,8.4072
15.2779,8.4558
15.2893,8.5132
15.2893,8.8133
15.2779,8.8707
15.2454,8.9193
15.1967,8.9518
15.1393,8.9633
13.4643,8.9633
13.4069,8.9518
13.3582,8.9193
13.3257,8.8707
13.3143,8.8133
Z" /> 
<path style="fill:#37CBCB; fill-opacity:1.0000; 
stroke:#37CBCB; stroke-width:0.0000; stroke-opacity:1; 
stroke-linecap:round; stroke-linejoin:round;fill-rule:evenodd;"
d="M 13.3143,7.2432
13.3257,7.1858
13.3582,7.1372
13.4069,7.1047
13.4643,7.0932
15.1393,7.0932
15.1967,7.1047
15.2454,7.1372
15.2779,7.1858
15.2893,7.2432
15.2893,7.5432
15.2779,7.6007
15.2454,7.6493
15.1967,7.6818
15.1393,7.6932
13.4643,7.6932
13.4069,7.6818
13.3582,7.6493
13.3257,7.6007
13.3143,7.5432
Z" /> 
<path style="fill:#37CBCB; fill-opacity:1.0000; 
stroke:#37CBCB; stroke-width:0.0000; stroke-opacity:1; 
stroke-linecap:round; stroke-linejoin:round;fill-rule:evenodd;"
d="M 13.3143,5.9733
13.3257,5.9158
13.3582,5.8672
13.4069,5.8347
13.4643,5.8232
15.1393,5.8232
15.1967,5.8347
15.2454,5.8672
15.2779,5.9158
15.2893,5.9733
15.2893,6.2732
15.2779,6.3307
15.2454,6.3793
15.1967,6.4118
15.1393,6.4232
13.4643,6.4232
13.4069,6.4118
13.3582,6.3793
13.3257,6.3307
13.3143,6.2732
Z" /> 
<path style="fill:#37CBCB; fill-opacity:1.0000; 
stroke:#37CBCB; stroke-width:0.0000; stroke-opacity:1; 
stroke-linecap:round; stroke-linejoin:round;fill-rule:evenodd;"
d="M 13.3143,4.7032
13.3257,4.6458
13.3582,4.5972
13.4069,4.5647
13.4643,4.5532
15.1393,4.5532
15.1967,4.5647
15.2454,4.5972
15.2779,4.6458
15.2893,4.7032
15.2893,5.0032
15.2779,5.0607
15.2454,5.1093
15.1967,5.1418
15.1393,5.1532
13.4643,5.1532
13.4069,5.1418
13.3582,5.1093
13.3257,5.0607
13.3143,5.0032
Z" /> 
<path style="fill:#37CBCB; fill-opacity:1.0000; 
stroke:#37CBCB; stroke-width:0.0000; stroke-opacity:1; 
stroke-linecap:round; stroke-linejoin:round;fill-rule:evenodd;"
d="M 13.3143,3.4332
13.3257,3.3758
13.3582,3.3272
13.4069,3.2947
13.4643,3.2832
15.1393,3.2832
15.1967,3.2947
15.2454,3.3272
15.2779,3.3758
15.2893,3.4332
15.2893,3.7332
15.2779,3.7907
15.2454,3.8393
15.1967,3.8718
15.1393,3.8832
13.4643,3.8832
13.4069,3.8718
13.3582,3.8393
13.3257,3.7907
13.3143,3.7332
Z" /> 
<path style="fill:#37CBCB; fill-opacity:1.0000; 
stroke:#37CBCB; stroke-width:0.0000; stroke-opacity:1; 
stroke-linecap:round; stroke-linejoin:round;fill-rule:evenodd;"
d="M 13.3143,2.1633
13.3257,2.1058
13.3582,2.0572
13.4069,2.0247
13.4643,2.0132
15.1393,2.0132
15.1967,2.0247
15.2454,2.0572
15.2779,2.1058
15.2893,2.1633
15.2893,2.4632
15.2779,2.5207
15.2454,2.5693
15.1967,2.6018
15.1393,2.6132
13.4643,2.6132
13.4069,2.6018
13.3582,2.5693
13.3257,2.5207
13.3143,2.4632
Z" /> 
</g>
<g >
</g>
<g >
</g>
<g >
</g>
</g>
<g style="fill:#FFFFFF; fill-opacity:1.0000; 
stroke:#FFFFFF; stroke-width:0.0000; stroke-opacity:1; 
stroke-linecap:round; stroke-linejoin:round;">
<g >
</g>
<g style="fill:#4A5F65; fill-opacity:0.9000; 
stroke:#4A5F65; stroke-width:0.0000; stroke-opacity:1; 
stroke-linecap:round; stroke-linejoin:round;">
<path style="fill:#4A5F65; fill-opacity:0.9000; 
stroke:#4A5F65; stroke-width:0.0000; stroke-opacity:1; 
stroke-linecap:round; stroke-linejoin:round;fill-rule:evenodd;"
d="M 6.3893,2.1633
6.4007,2.1058
6.4332,2.0572
6.4819,2.0247
6.5393,2.0132
8.2143,2.0132
8.2717,2.0247
8.3204,2.0572
8.3529,2.1058
8.3643,2.1633
8.3643,2.4632
8.3529,2.5207
8.3204,2.5693
8.2717,2.6018
8.2143,2.6132
6.5393,2.6132
6.4819,2.6018
6.4332,2.5693
6.4007,2.5207
6.3893,2.4632
Z" /> 
<path style="fill:#4A5F65; fill-opacity:0.9000; 
stroke:#4A5F65; stroke-width:0.0000; stroke-opacity:1; 
stroke-linecap:round; stroke-linejoin:round;fill-rule:evenodd;"
d="M 6.3893,3.4332
6.4007,3.3758
6.4332,3.3272
6.4819,3.2947
6.5393,3.2832
8.2143,3.2832
8.2717,3.2947
8.3204,3.3272
8.3529,3.3758
8.3643,3.4332
8.3643,3.7332
8.3529,3.7907
8.3204,3.8393
8.2717,3.8718
8.2143,3.8832
6.5393,3.8832
6.4819,3.8718
6.4332,3.8393
6.4007,3.7907
6.3893,3.7332
Z" /> 
<path style="fill:#4A5F65; fill-opacity:0.9000; 
stroke:#4A5F65; stroke-width:0.0000; stroke-opacity:1; 
stroke-linecap:round; stroke-linejoin:round;fill-rule:evenodd;"
d="M 6.3893,4.7032
6.4007,4.6458
6.4332,4.5972
6.4819,4.5647
6.5393,4.5532
8.2143,4.5532
8.2717,4.5647
8.3204,4.5972
8.3529,4.6458
8.3643,4.7032
8.3643,5.0032
8.3529,5.0607
8.3204,5.1093
8.2717,5.1418
8.2143,5.1532
6.5393,5.1532
6.4819,5.1418
6.4332,5.1093
6.4007,5.0607
6.3893,5.0032
Z" /> 
<path style="fill:#4A5F65; fill-opacity:0.9000; 
stroke:#4A5F65; stroke-width:0.0000; stroke-opacity:1; 
stroke-linecap:round; stroke-linejoin:round;fill-rule:evenodd;"
d="M 6.3893,5.9733
6.4007,5.9158
6.4332,5.8672
6.4819,5.8347
6.5393,5.8232
8.2143,5.8232
8.2717,5.8347
8.3204,5.8672
8.3529,5.9158
8.3643,5.9733
8.3643,6.2732
8.3529,6.3307
8.3204,6.3793
8.2717,6.4118
8.2143,6.4232
6.5393,6.4232
6.4819,6.4118
6.4332,6.3793
6.4007,6.3307
6.3893,6.2732
Z" /> 
<path style="fill:#4A5F65; fill-opacity:0.9000; 
stroke:#4A5F65; stroke-width:0.0000; stroke-opacity:1; 
stroke-linecap:round; stroke-linejoin:round;fill-rule:evenodd;"
d="M 6.3893,7.2432
6.4007,7.1858
6.4332,7.1372
6.4819,7.1047
6.5393,7.0932
8.2143,7.0932
8.2717,7.1047
8.3204,7.1372
8.3529,7.1858
8.3643,7.2432
8.3643,7.5432
8.3529,7.6007
8.3204,7.6493
8.2717,7.6818
8.2143,7.6932
6.5393,7.6932
6.4819,7.6818
6.4332,7.6493
6.4007,7.6007
6.3893,7.5432
Z" /> 
<path style="fill:#4A5F65; fill-opacity:0.9000; 
stroke:#4A5F65; stroke-width:0.0000; stroke-opacity:1; 
stroke-linecap:round; stroke-linejoin:round;fill-rule:evenodd;"
d="M 6.3893,8.5132
6.4007,8.4558
6.4332,8.4072
6.4819,8.3747
6.5393,8.3632
8.2143,8.3632
8.2717,8.3747
8.3204,8.4072
8.3529,8.4558
8.3643,8.5132
8.3643,8.8133
8.3529,8.8707
8.3204,8.9193
8.2717,8.9518
8.2143,8.9633
6.5393,8.9633
6.4819,8.9518
6.4332,8.9193
6.4007,8.8707
6.3893,8.8133
Z" /> 
<path style="fill:#4A5F65; fill-opacity:0.9000; 
stroke:#4A5F65; stroke-width:0.0000; stroke-opacity:1; 
stroke-linecap:round; stroke-linejoin:round;fill-rule:evenodd;"
d="M 6.3893,9.7832
6.4007,9.7258
6.4332,9.6772
6.4819,9.6447
6.5393,9.6333
8.2143,9.6333
8.2717,9.6447
8.3204,9.6772
8.3529,9.7258
8.3643,9.7832
8.3643,10.0832
8.3529,10.1407
8.3204,10.1893
8.2717,10.2218
8.2143,10.2332
6.5393,10.2332
6.4819,10.2218
6.4332,10.1893
6.4007,10.1407
6.3893,10.0832
Z" /> 
<path style="fill:#4A5F65; fill-opacity:0.9000; 
stroke:#4A5F65; stroke-width:0.0000; stroke-opacity:1; 
stroke-linecap:round; stroke-linejoin:round;fill-rule:evenodd;"
d="M 6.3893,11.0533
6.4007,10.9958
6.4332,10.9472
6.4819,10.9147
6.5393,10.9032
8.2143,10.9032
8.2717,10.9147
8.3204,10.9472
8.3529,10.9958
8.3643,11.0533
8.3643,11.3532
8.3529,11.4107
8.3204,11.4593
8.2717,11.4918
8.2143,11.5032
6.5393,11.5032
6.4819,11.4918
6.4332,11.4593
6.4007,11.4107
6.3893,11.3532
Z" /> 
<path style="fill:#4A5F65; fill-opacity:0.9000; 
stroke:#4A5F65; stroke-width:0.0000; stroke-opacity:1; 
stroke-linecap:round; stroke-linejoin:round;fill-rule:evenodd;"
d="M 6.3893,12.3232
6.4007,12.2658
6.4332,12.2172
6.4819,12.1847
6.5393,12.1732
8.2143,12.1732
8.2717,12.1847
8.3204,12.2172
8.3529,12.2658
8.3643,12.3232
8.3643,12.6232
8.3529,12.6807
8.3204,12.7293
8.2717,12.7618
8.2143,12.7732
6.5393,12.7732
6.4819,12.7618
6.4332,12.7293
6.4007,12.6807
6.3893,12.6232
Z" /> 
<path style="fill:#4A5F65; fill-opacity:0.9000; 
stroke:#4A5F65; stroke-width:0.0000; stroke-opacity:1; 
stroke-linecap:round; stroke-linejoin:round;fill-rule:evenodd;"
d="M 6.3893,13.5932
6.4007,13.5358
6.4332,13.4872
6.4819,13.4547
6.5393,13.4432
8.2143,13.4432
8.2717,13.4547
8.3204,13.4872
8.3529,13.5358
8.3643,13.5932
8.3643,13.8933
8.3529,13.9507
8.3204,13.9993
8.2717,14.0318
8.2143,14.0432
6.5393,14.0432
6.4819,14.0318
6.4332,13.9993
6.4007,13.9507
6.3893,13.8933
Z" /> 
<path style="fill:#4A5F65; fill-opacity:0.9000; 
stroke:#4A5F65; stroke-width:0.0000; stroke-opacity:1; 
stroke-linecap:round; stroke-linejoin:round;fill-rule:evenodd;"
d="M 6.3893,14.8632
6.4007,14.8058
6.4332,14.7572
6.4819,14.7247
6.5393,14.7132
8.2143,14.7132
8.2717,14.7247
8.3204,14.7572
8.3529,14.8058
8.3643,14.8632
8.3643,15.1632
8.3529,15.2207
8.3204,15.2693
8.2717,15.3018
8.2143,15.3133
6.5393,15.3133
6.4819,15.3018
6.4332,15.2693
6.4007,15.2207
6.3893,15.1632
Z" /> 
<path style="fill:#4A5F65; fill-opacity:0.9000; 
stroke:#4A5F65; stroke-width:0.0000; stroke-opacity:1; 
stroke-linecap:round; stroke-linejoin:round;fill-rule:evenodd;"
d="M 6.3893,16.1333
6.4007,16.0758
6.4332,16.0272
6.4819,15.9947
6.5393,15.9832
8.2143,15.9832
8.2717,15.9947
8.3204,16.0272
8.3529,16.0758
8.3643,16.1333
8.3643,16.4333
8.3529,16.4907
8.3204,16.5393
8.2717,16.5718
8.2143,16.5832
6.5393,16.5832
6.4819,16.5718
6.4332,16.5393
6.4007,16.4907
6.3893,16.4333
Z" /> 
<path style="fill:#4A5F65; fill-opacity:0.9000; 
stroke:#4A5F65; stroke-width:0.0000; stroke-opacity:1; 
stroke-linecap:round; stroke-linejoin:round;fill-rule:evenodd;"
d="M 13.3143,16.1333
13.3257,16.0758
13.3582,16.0272
13.4069,15.9947
13.4643,15.9832
15.1393,15.9832
15.1967,15.9947
15.2454,16.0272
15.2779,16.0758
15.2893,16.1333
15.2893,16.4333
15.2779,16.4907
15.2454,16.5393
15.1967,16.5718
15.1393,16.5832
13.4643,16.5832
13.4069,16.5718
13.3582,16.5393
13.3257,16.4907
13.3143,16.4333
Z" /> 
<path style="fill:#4A5F65; fill-opacity:0.9000; 
stroke:#4A5F65; stroke-width:0.0000; stroke-opacity:1; 
stroke-linecap:round; stroke-linejoin:round;fill-rule:evenodd;"
d="M 13.3143,14.8632
13.3257,14.8058
13.3582,14.7572
13.4069,14.7247
13.4643,14.7132
15.1393,14.7132
15.1967,14.7247
15.2454,14.7572
15.2779,14.8058
15.2893,14.8632
15.2893,15.1632
15.2779,15.2207
15.2454,15.2693
15.1967,15.3018
15.1393,15.3133
13.4643,15.3133
13.4069,15.3018
13.3582,15.2693
13.3257,15.2207
13.3143,15.1632
Z" /> 
<path style="fill:#4A5F65; fill-opacity:0.9000; 
stroke:#4A5F65; stroke-width:0.0000; stroke-opacity:1; 
stroke-linecap:round; stroke-linejoin:round;fill-rule:evenodd;"
d="M 13.3143,13.5932
13.3257,13.5358
13.3582,13.4872
13.4069,13.4547
13.4643,13.4432
15.1393,13.4432
15.1967,13.4547
15.2454,13.4872
15.2779,13.5358
15.2893,13.5932
15.2893,13.8933
15.2779,13.9507
15.2454,13.9993
15.1967,14.0318
15.1393,14.0432
13.4643,14.0432
13.4069,14.0318
13.3582,13.9993
13.3257,13.9507
13.3143,13.8933
Z" /> 
<path style="fill:#4A5F65; fill-opacity:0.9000; 
stroke:#4A5F65; stroke-width:0.0000; stroke-opacity:1; 
stroke-linecap:round; stroke-linejoin:round;fill-rule:evenodd;"
d="M 13.3143,12.3232
13.3257,12.2658
13.3582,12.2172
13.4069,12.1847
13.4643,12.1732
15.1393,12.1732
15.1967,12.1847
15.2454,12.2172
15.2779,12.2658
15.2893,12.3232
15.2893,12.6232
15.2779,12.6807
15.2454,12.7293
15.1967,12.7618
15.1393,12.7732
13.4643,12.7732
13.4069,12.7618
13.3582,12.7293
13.3257,12.6807
13.3143,12.6232
Z" /> 
<path style="fill:#4A5F65; fill-opacity:0.9000; 
stroke:#4A5F65; stroke-width:0.0000; stroke-opacity:1; 
stroke-linecap:round; stroke-linejoin:round;fill-rule:evenodd;"
d="M 13.3143,11.0533
13.3257,10.9958
13.3582,10.9472
13.4069,10.9147
13.4643,10.9032
15.1393,10.9032
15.1967,10.9147
15.2454,10.9472
15.2779,10.9958
15.2893,11.0533
15.2893,11.3532
15.2779,11.4107
15.2454,11.4593
15.1967,11.4918
15.1393,11.5032
13.4643,11.5032
13.4069,11.4918
13.3582,11.4593
13.3257,11.4107
13.3143,11.3532
Z" /> 
<path style="fill:#4A5F65; fill-opacity:0.9000; 
stroke:#4A5F65; stroke-width:0.0000; stroke-opacity:1; 
stroke-linecap:round; stroke-linejoin:round;fill-rule:evenodd;"
d="M 13.3143,9.7832
13.3257,9.7258
13.3582,9.6772
13.4069,9.6447
13.4643,9.6333
15.1393,9.6333
15.1967,9.6447
15.2454,9.6772
15.2779,9.7258
15.2893,9.7832
15.2893,10.0832
15.2779,10.1407
15.2454,10.1893
15.1967,10.2218
15.1393,10.2332
13.4643,10.2332
13.4069,10.2218
13.3582,10.1893
13.3257,10.1407
13.3143,10.0832
Z" /> 
<path style="fill:#4A5F65; fill-opacity:0.9000; 
stroke:#4A5F65; stroke-width:0.0000; stroke-opacity:1; 
stroke-linecap:round; stroke-linejoin:round;fill-rule:evenodd;"
d="M 13.3143,8.5132
13.3257,8.4558
13.3582,8.4072
13.4069,8.3747
13.4643,8.3632
15.1393,8.3632
15.1967,8.3747
15.2454,8.4072
15.2779,8.4558
15.2893,8.5132
15.2893,8.8133
15.2779,8.8707
15.2454,8.9193
15.1967,8.9518
15.1393,8.9633
13.4643,8.9633
13.4069,8.9518
13.3582,8.9193
13.3257,8.8707
13.3143,8.8133
Z" /> 
<path style="fill:#4A5F65; fill-opacity:0.9000; 
stroke:#4A5F65; stroke-width:0.0000; stroke-opacity:1; 
stroke-linecap:round; stroke-linejoin:round;fill-rule:evenodd;"
d="M 13.3143,7.2432
13.3257,7.1858
13.3582,7.1372
13.4069,7.1047
13.4643,7.0932
15.1393,7.0932
15.1967,7.1047
15.2454,7.1372
15.2779,7.1858
15.2893,7.2432
15.2893,7.5432
15.2779,7.6007
15.2454,7.6493
15.1967,7.6818
15.1393,7.6932
13.4643,7.6932
13.4069,7.6818
13.3582,7.6493
13.3257,7.6007
13.3143,7.5432
Z" /> 
<path style="fill:#4A5F65; fill-opacity:0.9000; 
stroke:#4A5F65; stroke-width:0.0000; stroke-opacity:1; 
stroke-linecap:round; stroke-linejoin:round;fill-rule:evenodd;"
d="M 13.3143,5.9733
13.3257,5.9158
13.3582,5.8672
13.4069,5.8347
13.4643,5.8232
15.1393,5.8232
15.1967,5.8347
15.2454,5.8672
15.2779,5.9158
15.2893,5.9733
15.2893,6.2732
15.2779,6.3307
15.2454,6.3793
15.1967,6.4118
15.1393,6.4232
13.4643,6.4232
13.4069,6.4118
13.3582,6.3793
13.3257,6.3307
13.3143,6.2732
Z" /> 
<path style="fill:#4A5F65; fill-opacity:0.9000; 
stroke:#4A5F65; stroke-width:0.0000; stroke-opacity:1; 
stroke-linecap:round; stroke-linejoin:round;fill-rule:evenodd;"
d="M 13.3143,4.7032
13.3257,4.6458
13.3582,4.5972
13.4069,4.5647
13.4643,4.5532
15.1393,4.5532
15.1967,4.5647
15.2454,4.5972
15.2779,4.6458
15.2893,4.7032
15.2893,5.0032
15.2779,5.0607
15.2454,5.1093
15.1967,5.1418
15.1393,5.1532
13.4643,5.1532
13.4069,5.1418
13.3582,5.1093
13.3257,5.0607
13.3143,5.0032
Z" /> 
<path style="fill:#4A5F65; fill-opacity:0.9000; 
stroke:#4A5F65; stroke-width:0.0000; stroke-opacity:1; 
stroke-linecap:round; stroke-linejoin:round;fill-rule:evenodd;"
d="M 13.3143,3.4332
13.3257,3.3758
13.3582,3.3272
13.4069,3.2947
13.4643,3.2832
15.1393,3.2832
15.1967,3.2947
15.2454,3.3272
15.2779,3.3758
15.2893,3.4332
15.2893,3.7332
15.2779,3.7907
15.2454,3.8393
15.1967,3.8718
15.1393,3.8832
13.4643,3.8832
13.4069,3.8718
13.3582,3.8393
13.3257,3.7907
13.3143,3.7332
Z" /> 
<path style="fill:#4A5F65; fill-opacity:0.9000; 
stroke:#4A5F65; stroke-width:0.0000; stroke-opacity:1; 
stroke-linecap:round; stroke-linejoin:round;fill-rule:evenodd;"
d="M 13.3143,2.1633
13.3257,2.1058
13.3582,2.0572
13.4069,2.0247
13.4643,2.0132
15.1393,2.0132
15.1967,2.0247
15.2454,2.0572
15.2779,2.1058
15.2893,2.1633
15.2893,2.4632
15.2779,2.5207
15.2454,2.5693
15.1967,2.6018
15.1393,2.6132
13.4643,2.6132
13.4069,2.6018
13.3582,2.5693
13.3257,2.5207
13.3143,2.4632
Z" /> 
</g>
<g >
</g>
<g >
</g>
<g >
</g>
</g>
<g style="fill:#FFFFFF; fill-opacity:1.0000; 
stroke:#FFFFFF; stroke-width:0.0000; stroke-opacity:1; 
stroke-linecap:round; stroke-linejoin:round;">
</g>
<g style="fill:#0D115E; fill-opacity:1.0000; 
stroke:#0D115E; stroke-width:0.0000; stroke-opacity:1; 
stroke-linecap:round; stroke-linejoin:round;">
</g>
<g style="fill:#0D115E; fill-opacity:1.0000; 
stroke:#0D115E; stroke-width:0.1500; stroke-opacity:1; 
stroke-linecap:round; stroke-linejoin:round;">
</g>
<g style="fill:#0D115E; fill-opacity:0.0; 
stroke:#0D115E; stroke-width:0.1500; stroke-opacity:1; 
stroke-linecap:round; stroke-linejoin:round;">
<text x="10.8393" y="1.3482"
textLength="4.5357" font-size="1.3333" lengthAdjust="spacingAndGlyphs"
text-anchor="middle" opacity="0">REF**</text>
<g class="stroked-text"><desc>REF**</desc>
<path d="M9.5060 1.3031
L9.1726 0.8269
" />
<path d="M8.9345 1.3031
L8.9345 0.3031
" />
<path d="M8.9345 0.3031
L9.3155 0.3031
" />
<path d="M9.3155 0.3031
L9.4107 0.3507
" />
<path d="M9.4107 0.3507
L9.4583 0.3983
" />
<path d="M9.4583 0.3983
L9.5060 0.4935
" />
<path d="M9.5060 0.4935
L9.5060 0.6364
" />
<path d="M9.5060 0.6364
L9.4583 0.7316
" />
<path d="M9.4583 0.7316
L9.4107 0.7793
" />
<path d="M9.4107 0.7793
L9.3155 0.8269
" />
<path d="M9.3155 0.8269
L8.9345 0.8269
" />
<path d="M9.9345 0.7793
L10.2679 0.7793
" />
<path d="M10.4107 1.3031
L9.9345 1.3031
" />
<path d="M9.9345 1.3031
L9.9345 0.3031
" />
<path d="M9.9345 0.3031
L10.4107 0.3031
" />
<path d="M11.1726 0.7793
L10.8393 0.7793
" />
<path d="M10.8393 1.3031
L10.8393 0.3031
" />
<path d="M10.8393 0.3031
L11.3155 0.3031
" />
<path d="M11.8393 0.3031
L11.8393 0.5412
" />
<path d="M11.6012 0.4459
L11.8393 0.5412
" />
<path d="M11.8393 0.5412
L12.0774 0.4459
" />
<path d="M11.6964 0.7316
L11.8393 0.5412
" />
<path d="M11.8393 0.5412
L11.9821 0.7316
" />
<path d="M12.6012 0.3031
L12.6012 0.5412
" />
<path d="M12.3631 0.4459
L12.6012 0.5412
" />
<path d="M12.6012 0.5412
L12.8393 0.4459
" />
<path d="M12.4583 0.7316
L12.6012 0.5412
" />
<path d="M12.6012 0.5412
L12.7440 0.7316
" />
</g></g>
<g style="fill:#0D115E; fill-opacity:0.0; 
stroke:#0D115E; stroke-width:0.1200; stroke-opacity:1; 
stroke-linecap:round; stroke-linejoin:round;">
<path d="M10.8393 16.9082
L8.1893 16.9082
" />
<path d="M10.8393 1.6883
L13.4893 1.6883
" />
<path d="M10.8393 16.9082
L13.4893 16.9082
" />
<path d="M10.8393 1.6883
L6.3893 1.6883
" />
<g >
</g>
<g >
</g>
<g >
</g>
<g >
</g>
</g> 
</svg>
