<?xml version="1.0" standalone="no"?>
 <!DOCTYPE svg PUBLIC "-//W3C//DTD SVG 1.1//EN" 
 "http://www.w3.org/Graphics/SVG/1.1/DTD/svg11.dtd"> 
<svg
  xmlns:svg="http://www.w3.org/2000/svg"
  xmlns="http://www.w3.org/2000/svg"
  xmlns:xlink="http://www.w3.org/1999/xlink"
  version="1.1"
  width="29.8196mm" height="24.0792mm" viewBox="0.0000 0.0000 29.8196 24.0792">
<title>SVG Image created as SSOP-32_11.305x20.495mm_P1.27mm.svg date 2024/01/16 15:07:27 </title>
  <desc>Image generated by PCBNEW </desc>
<g style="fill:#000000; fill-opacity:1.0000;stroke:#000000; stroke-opacity:1.0000;
stroke-linecap:round; stroke-linejoin:round;"
 transform="translate(0 0) scale(1 1)">
</g>
<g style="fill:#000000; fill-opacity:0.0; 
stroke:#000000; stroke-width:0.0000; stroke-opacity:1; 
stroke-linecap:round; stroke-linejoin:round;">
</g>
<g style="fill:#000000; fill-opacity:1.0000; 
stroke:#000000; stroke-width:0.0212; stroke-opacity:1; 
stroke-linecap:round; stroke-linejoin:round;">
<rect x="-5.000000" y="-5.000000" width="39.821427" height="34.096500" rx="0.000000" />
</g>
<g style="fill:#FFFFFF; fill-opacity:1.0000; 
stroke:#FFFFFF; stroke-width:0.0212; stroke-opacity:1; 
stroke-linecap:round; stroke-linejoin:round;">
<g >
</g>
<g >
</g>
<g >
</g>
<g >
</g>
</g>
<g style="fill:#FFFFFF; fill-opacity:1.0000; 
stroke:#FFFFFF; stroke-width:0.0212; stroke-opacity:1; 
stroke-linecap:round; stroke-linejoin:round;">
<g >
</g>
<g >
</g>
<g >
</g>
<g >
</g>
</g>
<g style="fill:#FFFFFF; fill-opacity:1.0000; 
stroke:#FFFFFF; stroke-width:0.0212; stroke-opacity:1; 
stroke-linecap:round; stroke-linejoin:round;">
<g >
</g>
<g >
</g>
<g >
</g>
<g >
</g>
</g>
<g style="fill:#FFFFFF; fill-opacity:1.0000; 
stroke:#FFFFFF; stroke-width:0.0212; stroke-opacity:1; 
stroke-linecap:round; stroke-linejoin:round;">
<g >
</g>
<g >
</g>
<g >
</g>
<g >
</g>
</g>
<g style="fill:#FFFFFF; fill-opacity:1.0000; 
stroke:#FFFFFF; stroke-width:0.0212; stroke-opacity:1; 
stroke-linecap:round; stroke-linejoin:round;">
<g >
</g>
<g >
</g>
<g >
</g>
<g >
</g>
</g>
<g style="fill:#FFFFFF; fill-opacity:1.0000; 
stroke:#FFFFFF; stroke-width:0.0212; stroke-opacity:1; 
stroke-linecap:round; stroke-linejoin:round;">
<g >
</g>
<g >
</g>
<g >
</g>
<g >
</g>
</g>
<g style="fill:#FFFFFF; fill-opacity:1.0000; 
stroke:#FFFFFF; stroke-width:0.0212; stroke-opacity:1; 
stroke-linecap:round; stroke-linejoin:round;">
<g >
</g>
<g >
</g>
<g >
</g>
<g >
</g>
</g>
<g style="fill:#FFFFFF; fill-opacity:1.0000; 
stroke:#FFFFFF; stroke-width:0.0212; stroke-opacity:1; 
stroke-linecap:round; stroke-linejoin:round;">
<g >
</g>
<g >
</g>
<g >
</g>
<g >
</g>
</g>
<g style="fill:#FFFFFF; fill-opacity:1.0000; 
stroke:#FFFFFF; stroke-width:0.0212; stroke-opacity:1; 
stroke-linecap:round; stroke-linejoin:round;">
<g >
</g>
<g >
</g>
<g >
</g>
<g >
</g>
</g>
<g style="fill:#FFFFFF; fill-opacity:1.0000; 
stroke:#FFFFFF; stroke-width:0.0212; stroke-opacity:1; 
stroke-linecap:round; stroke-linejoin:round;">
<g >
</g>
<g >
</g>
<g >
</g>
<g >
</g>
</g>
<g style="fill:#FFFFFF; fill-opacity:1.0000; 
stroke:#FFFFFF; stroke-width:0.0212; stroke-opacity:1; 
stroke-linecap:round; stroke-linejoin:round;">
<g >
</g>
<g >
</g>
<g >
</g>
<g >
</g>
</g>
<g style="fill:#FFFFFF; fill-opacity:1.0000; 
stroke:#FFFFFF; stroke-width:0.0212; stroke-opacity:1; 
stroke-linecap:round; stroke-linejoin:round;">
<g >
</g>
<g >
</g>
<g >
</g>
<g >
</g>
</g>
<g style="fill:#FFFFFF; fill-opacity:1.0000; 
stroke:#FFFFFF; stroke-width:0.0212; stroke-opacity:1; 
stroke-linecap:round; stroke-linejoin:round;">
<g >
</g>
<g >
</g>
<g >
</g>
<g >
</g>
</g>
<g style="fill:#FFFFFF; fill-opacity:1.0000; 
stroke:#FFFFFF; stroke-width:0.0212; stroke-opacity:1; 
stroke-linecap:round; stroke-linejoin:round;">
<g >
</g>
<g >
</g>
<g >
</g>
<g >
</g>
</g>
<g style="fill:#FFFFFF; fill-opacity:1.0000; 
stroke:#FFFFFF; stroke-width:0.0212; stroke-opacity:1; 
stroke-linecap:round; stroke-linejoin:round;">
<g >
</g>
<g >
</g>
<g >
</g>
<g >
</g>
</g>
<g style="fill:#FFFFFF; fill-opacity:1.0000; 
stroke:#FFFFFF; stroke-width:0.0212; stroke-opacity:1; 
stroke-linecap:round; stroke-linejoin:round;">
<g >
</g>
<g >
</g>
<g >
</g>
<g >
</g>
</g>
<g style="fill:#FFFFFF; fill-opacity:1.0000; 
stroke:#FFFFFF; stroke-width:0.0212; stroke-opacity:1; 
stroke-linecap:round; stroke-linejoin:round;">
<g >
</g>
<g >
</g>
<g >
</g>
<g >
</g>
</g>
<g style="fill:#FFFFFF; fill-opacity:1.0000; 
stroke:#FFFFFF; stroke-width:0.0212; stroke-opacity:1; 
stroke-linecap:round; stroke-linejoin:round;">
<g >
</g>
<g >
</g>
<g >
</g>
<g >
</g>
</g>
<g style="fill:#FFFFFF; fill-opacity:1.0000; 
stroke:#FFFFFF; stroke-width:0.0212; stroke-opacity:1; 
stroke-linecap:round; stroke-linejoin:round;">
<g >
</g>
<g >
</g>
<g >
</g>
<g >
</g>
</g>
<g style="fill:#FFFFFF; fill-opacity:1.0000; 
stroke:#FFFFFF; stroke-width:0.0212; stroke-opacity:1; 
stroke-linecap:round; stroke-linejoin:round;">
<g >
</g>
<g >
</g>
<g >
</g>
<g >
</g>
</g>
<g style="fill:#FFFFFF; fill-opacity:1.0000; 
stroke:#FFFFFF; stroke-width:0.0212; stroke-opacity:1; 
stroke-linecap:round; stroke-linejoin:round;">
<g >
</g>
<g >
</g>
<g >
</g>
<g >
</g>
</g>
<g style="fill:#FFFFFF; fill-opacity:1.0000; 
stroke:#FFFFFF; stroke-width:0.0212; stroke-opacity:1; 
stroke-linecap:round; stroke-linejoin:round;">
<g >
</g>
<g >
</g>
<g >
</g>
<g >
</g>
</g>
<g style="fill:#FFFFFF; fill-opacity:1.0000; 
stroke:#FFFFFF; stroke-width:0.0212; stroke-opacity:1; 
stroke-linecap:round; stroke-linejoin:round;">
<g >
</g>
<g >
</g>
<g >
</g>
<g >
</g>
</g>
<g style="fill:#FFFFFF; fill-opacity:1.0000; 
stroke:#FFFFFF; stroke-width:0.0212; stroke-opacity:1; 
stroke-linecap:round; stroke-linejoin:round;">
<g >
</g>
<g >
</g>
<g >
</g>
<g >
</g>
</g>
<g style="fill:#FFFFFF; fill-opacity:1.0000; 
stroke:#FFFFFF; stroke-width:0.0212; stroke-opacity:1; 
stroke-linecap:round; stroke-linejoin:round;">
<g >
</g>
<g >
</g>
<g >
</g>
<g >
</g>
</g>
<g style="fill:#FFFFFF; fill-opacity:1.0000; 
stroke:#FFFFFF; stroke-width:0.0212; stroke-opacity:1; 
stroke-linecap:round; stroke-linejoin:round;">
<g >
</g>
<g >
</g>
<g >
</g>
<g >
</g>
</g>
<g style="fill:#FFFFFF; fill-opacity:1.0000; 
stroke:#FFFFFF; stroke-width:0.0212; stroke-opacity:1; 
stroke-linecap:round; stroke-linejoin:round;">
<g >
</g>
<g >
</g>
<g >
</g>
<g >
</g>
</g>
<g style="fill:#FFFFFF; fill-opacity:1.0000; 
stroke:#FFFFFF; stroke-width:0.0212; stroke-opacity:1; 
stroke-linecap:round; stroke-linejoin:round;">
<g >
</g>
<g >
</g>
<g >
</g>
<g >
</g>
</g>
<g style="fill:#FFFFFF; fill-opacity:1.0000; 
stroke:#FFFFFF; stroke-width:0.0212; stroke-opacity:1; 
stroke-linecap:round; stroke-linejoin:round;">
<g >
</g>
<g >
</g>
<g >
</g>
<g >
</g>
</g>
<g style="fill:#FFFFFF; fill-opacity:1.0000; 
stroke:#FFFFFF; stroke-width:0.0212; stroke-opacity:1; 
stroke-linecap:round; stroke-linejoin:round;">
<g >
</g>
<g >
</g>
<g >
</g>
<g >
</g>
</g>
<g style="fill:#FFFFFF; fill-opacity:1.0000; 
stroke:#FFFFFF; stroke-width:0.0212; stroke-opacity:1; 
stroke-linecap:round; stroke-linejoin:round;">
<g >
</g>
<g >
</g>
<g >
</g>
<g >
</g>
</g>
<g style="fill:#FFFFFF; fill-opacity:1.0000; 
stroke:#FFFFFF; stroke-width:0.0212; stroke-opacity:1; 
stroke-linecap:round; stroke-linejoin:round;">
<g >
</g>
<g >
</g>
<g >
</g>
<g >
</g>
</g>
<g style="fill:#FFFFFF; fill-opacity:1.0000; 
stroke:#FFFFFF; stroke-width:0.0212; stroke-opacity:1; 
stroke-linecap:round; stroke-linejoin:round;">
<g >
</g>
<g >
</g>
<g >
</g>
<g >
</g>
</g>
<g style="fill:#FFFFFF; fill-opacity:1.0000; 
stroke:#FFFFFF; stroke-width:0.0212; stroke-opacity:1; 
stroke-linecap:round; stroke-linejoin:round;">
<g >
</g>
<g style="fill:#37CBCB; fill-opacity:1.0000; 
stroke:#37CBCB; stroke-width:0.0212; stroke-opacity:1; 
stroke-linecap:round; stroke-linejoin:round;">
</g>
<g style="fill:#37CBCB; fill-opacity:1.0000; 
stroke:#37CBCB; stroke-width:0.0000; stroke-opacity:1; 
stroke-linecap:round; stroke-linejoin:round;">
<path style="fill:#37CBCB; fill-opacity:1.0000; 
stroke:#37CBCB; stroke-width:0.0000; stroke-opacity:1; 
stroke-linecap:round; stroke-linejoin:round;fill-rule:evenodd;"
d="M 7.3357,2.3733
7.3471,2.3158
7.3796,2.2672
7.4283,2.2347
7.4857,2.2232
9.2357,2.2232
9.2931,2.2347
9.3418,2.2672
9.3743,2.3158
9.3857,2.3733
9.3857,2.6732
9.3743,2.7307
9.3418,2.7793
9.2931,2.8118
9.2357,2.8232
7.4857,2.8232
7.4283,2.8118
7.3796,2.7793
7.3471,2.7307
7.3357,2.6732
Z" /> 
<path style="fill:#37CBCB; fill-opacity:1.0000; 
stroke:#37CBCB; stroke-width:0.0000; stroke-opacity:1; 
stroke-linecap:round; stroke-linejoin:round;fill-rule:evenodd;"
d="M 7.3357,3.6432
7.3471,3.5858
7.3796,3.5372
7.4283,3.5047
7.4857,3.4932
9.2357,3.4932
9.2931,3.5047
9.3418,3.5372
9.3743,3.5858
9.3857,3.6432
9.3857,3.9432
9.3743,4.0007
9.3418,4.0493
9.2931,4.0818
9.2357,4.0932
7.4857,4.0932
7.4283,4.0818
7.3796,4.0493
7.3471,4.0007
7.3357,3.9432
Z" /> 
<path style="fill:#37CBCB; fill-opacity:1.0000; 
stroke:#37CBCB; stroke-width:0.0000; stroke-opacity:1; 
stroke-linecap:round; stroke-linejoin:round;fill-rule:evenodd;"
d="M 7.3357,4.9132
7.3471,4.8558
7.3796,4.8072
7.4283,4.7747
7.4857,4.7633
9.2357,4.7633
9.2931,4.7747
9.3418,4.8072
9.3743,4.8558
9.3857,4.9132
9.3857,5.2132
9.3743,5.2707
9.3418,5.3193
9.2931,5.3518
9.2357,5.3632
7.4857,5.3632
7.4283,5.3518
7.3796,5.3193
7.3471,5.2707
7.3357,5.2132
Z" /> 
<path style="fill:#37CBCB; fill-opacity:1.0000; 
stroke:#37CBCB; stroke-width:0.0000; stroke-opacity:1; 
stroke-linecap:round; stroke-linejoin:round;fill-rule:evenodd;"
d="M 7.3357,6.1833
7.3471,6.1258
7.3796,6.0772
7.4283,6.0447
7.4857,6.0332
9.2357,6.0332
9.2931,6.0447
9.3418,6.0772
9.3743,6.1258
9.3857,6.1833
9.3857,6.4832
9.3743,6.5407
9.3418,6.5893
9.2931,6.6218
9.2357,6.6332
7.4857,6.6332
7.4283,6.6218
7.3796,6.5893
7.3471,6.5407
7.3357,6.4832
Z" /> 
<path style="fill:#37CBCB; fill-opacity:1.0000; 
stroke:#37CBCB; stroke-width:0.0000; stroke-opacity:1; 
stroke-linecap:round; stroke-linejoin:round;fill-rule:evenodd;"
d="M 7.3357,7.4532
7.3471,7.3958
7.3796,7.3472
7.4283,7.3147
7.4857,7.3032
9.2357,7.3032
9.2931,7.3147
9.3418,7.3472
9.3743,7.3958
9.3857,7.4532
9.3857,7.7532
9.3743,7.8107
9.3418,7.8593
9.2931,7.8918
9.2357,7.9032
7.4857,7.9032
7.4283,7.8918
7.3796,7.8593
7.3471,7.8107
7.3357,7.7532
Z" /> 
<path style="fill:#37CBCB; fill-opacity:1.0000; 
stroke:#37CBCB; stroke-width:0.0000; stroke-opacity:1; 
stroke-linecap:round; stroke-linejoin:round;fill-rule:evenodd;"
d="M 7.3357,8.7233
7.3471,8.6658
7.3796,8.6172
7.4283,8.5847
7.4857,8.5732
9.2357,8.5732
9.2931,8.5847
9.3418,8.6172
9.3743,8.6658
9.3857,8.7233
9.3857,9.0232
9.3743,9.0807
9.3418,9.1293
9.2931,9.1618
9.2357,9.1732
7.4857,9.1732
7.4283,9.1618
7.3796,9.1293
7.3471,9.0807
7.3357,9.0232
Z" /> 
<path style="fill:#37CBCB; fill-opacity:1.0000; 
stroke:#37CBCB; stroke-width:0.0000; stroke-opacity:1; 
stroke-linecap:round; stroke-linejoin:round;fill-rule:evenodd;"
d="M 7.3357,9.9932
7.3471,9.9358
7.3796,9.8872
7.4283,9.8547
7.4857,9.8432
9.2357,9.8432
9.2931,9.8547
9.3418,9.8872
9.3743,9.9358
9.3857,9.9932
9.3857,10.2932
9.3743,10.3507
9.3418,10.3993
9.2931,10.4318
9.2357,10.4432
7.4857,10.4432
7.4283,10.4318
7.3796,10.3993
7.3471,10.3507
7.3357,10.2932
Z" /> 
<path style="fill:#37CBCB; fill-opacity:1.0000; 
stroke:#37CBCB; stroke-width:0.0000; stroke-opacity:1; 
stroke-linecap:round; stroke-linejoin:round;fill-rule:evenodd;"
d="M 7.3357,11.2632
7.3471,11.2058
7.3796,11.1572
7.4283,11.1247
7.4857,11.1132
9.2357,11.1132
9.2931,11.1247
9.3418,11.1572
9.3743,11.2058
9.3857,11.2632
9.3857,11.5633
9.3743,11.6207
9.3418,11.6693
9.2931,11.7018
9.2357,11.7132
7.4857,11.7132
7.4283,11.7018
7.3796,11.6693
7.3471,11.6207
7.3357,11.5633
Z" /> 
<path style="fill:#37CBCB; fill-opacity:1.0000; 
stroke:#37CBCB; stroke-width:0.0000; stroke-opacity:1; 
stroke-linecap:round; stroke-linejoin:round;fill-rule:evenodd;"
d="M 7.3357,12.5332
7.3471,12.4758
7.3796,12.4272
7.4283,12.3947
7.4857,12.3833
9.2357,12.3833
9.2931,12.3947
9.3418,12.4272
9.3743,12.4758
9.3857,12.5332
9.3857,12.8332
9.3743,12.8907
9.3418,12.9393
9.2931,12.9718
9.2357,12.9832
7.4857,12.9832
7.4283,12.9718
7.3796,12.9393
7.3471,12.8907
7.3357,12.8332
Z" /> 
<path style="fill:#37CBCB; fill-opacity:1.0000; 
stroke:#37CBCB; stroke-width:0.0000; stroke-opacity:1; 
stroke-linecap:round; stroke-linejoin:round;fill-rule:evenodd;"
d="M 7.3357,13.8033
7.3471,13.7458
7.3796,13.6972
7.4283,13.6647
7.4857,13.6532
9.2357,13.6532
9.2931,13.6647
9.3418,13.6972
9.3743,13.7458
9.3857,13.8033
9.3857,14.1032
9.3743,14.1607
9.3418,14.2093
9.2931,14.2418
9.2357,14.2532
7.4857,14.2532
7.4283,14.2418
7.3796,14.2093
7.3471,14.1607
7.3357,14.1032
Z" /> 
<path style="fill:#37CBCB; fill-opacity:1.0000; 
stroke:#37CBCB; stroke-width:0.0000; stroke-opacity:1; 
stroke-linecap:round; stroke-linejoin:round;fill-rule:evenodd;"
d="M 7.3357,15.0732
7.3471,15.0158
7.3796,14.9672
7.4283,14.9347
7.4857,14.9232
9.2357,14.9232
9.2931,14.9347
9.3418,14.9672
9.3743,15.0158
9.3857,15.0732
9.3857,15.3732
9.3743,15.4307
9.3418,15.4793
9.2931,15.5118
9.2357,15.5232
7.4857,15.5232
7.4283,15.5118
7.3796,15.4793
7.3471,15.4307
7.3357,15.3732
Z" /> 
<path style="fill:#37CBCB; fill-opacity:1.0000; 
stroke:#37CBCB; stroke-width:0.0000; stroke-opacity:1; 
stroke-linecap:round; stroke-linejoin:round;fill-rule:evenodd;"
d="M 7.3357,16.3432
7.3471,16.2858
7.3796,16.2372
7.4283,16.2047
7.4857,16.1932
9.2357,16.1932
9.2931,16.2047
9.3418,16.2372
9.3743,16.2858
9.3857,16.3432
9.3857,16.6432
9.3743,16.7007
9.3418,16.7493
9.2931,16.7818
9.2357,16.7933
7.4857,16.7933
7.4283,16.7818
7.3796,16.7493
7.3471,16.7007
7.3357,16.6432
Z" /> 
<path style="fill:#37CBCB; fill-opacity:1.0000; 
stroke:#37CBCB; stroke-width:0.0000; stroke-opacity:1; 
stroke-linecap:round; stroke-linejoin:round;fill-rule:evenodd;"
d="M 7.3357,17.6133
7.3471,17.5558
7.3796,17.5072
7.4283,17.4747
7.4857,17.4632
9.2357,17.4632
9.2931,17.4747
9.3418,17.5072
9.3743,17.5558
9.3857,17.6133
9.3857,17.9132
9.3743,17.9707
9.3418,18.0193
9.2931,18.0518
9.2357,18.0633
7.4857,18.0633
7.4283,18.0518
7.3796,18.0193
7.3471,17.9707
7.3357,17.9132
Z" /> 
<path style="fill:#37CBCB; fill-opacity:1.0000; 
stroke:#37CBCB; stroke-width:0.0000; stroke-opacity:1; 
stroke-linecap:round; stroke-linejoin:round;fill-rule:evenodd;"
d="M 7.3357,18.8833
7.3471,18.8258
7.3796,18.7772
7.4283,18.7447
7.4857,18.7332
9.2357,18.7332
9.2931,18.7447
9.3418,18.7772
9.3743,18.8258
9.3857,18.8833
9.3857,19.1832
9.3743,19.2407
9.3418,19.2893
9.2931,19.3218
9.2357,19.3332
7.4857,19.3332
7.4283,19.3218
7.3796,19.2893
7.3471,19.2407
7.3357,19.1832
Z" /> 
<path style="fill:#37CBCB; fill-opacity:1.0000; 
stroke:#37CBCB; stroke-width:0.0000; stroke-opacity:1; 
stroke-linecap:round; stroke-linejoin:round;fill-rule:evenodd;"
d="M 7.3357,20.1532
7.3471,20.0958
7.3796,20.0472
7.4283,20.0147
7.4857,20.0032
9.2357,20.0032
9.2931,20.0147
9.3418,20.0472
9.3743,20.0958
9.3857,20.1532
9.3857,20.4533
9.3743,20.5107
9.3418,20.5593
9.2931,20.5918
9.2357,20.6032
7.4857,20.6032
7.4283,20.5918
7.3796,20.5593
7.3471,20.5107
7.3357,20.4533
Z" /> 
<path style="fill:#37CBCB; fill-opacity:1.0000; 
stroke:#37CBCB; stroke-width:0.0000; stroke-opacity:1; 
stroke-linecap:round; stroke-linejoin:round;fill-rule:evenodd;"
d="M 7.3357,21.4232
7.3471,21.3658
7.3796,21.3172
7.4283,21.2847
7.4857,21.2732
9.2357,21.2732
9.2931,21.2847
9.3418,21.3172
9.3743,21.3658
9.3857,21.4232
9.3857,21.7233
9.3743,21.7807
9.3418,21.8293
9.2931,21.8618
9.2357,21.8732
7.4857,21.8732
7.4283,21.8618
7.3796,21.8293
7.3471,21.7807
7.3357,21.7233
Z" /> 
<path style="fill:#37CBCB; fill-opacity:1.0000; 
stroke:#37CBCB; stroke-width:0.0000; stroke-opacity:1; 
stroke-linecap:round; stroke-linejoin:round;fill-rule:evenodd;"
d="M 20.4357,21.4232
20.4471,21.3658
20.4796,21.3172
20.5283,21.2847
20.5857,21.2732
22.3357,21.2732
22.3931,21.2847
22.4418,21.3172
22.4743,21.3658
22.4857,21.4232
22.4857,21.7233
22.4743,21.7807
22.4418,21.8293
22.3931,21.8618
22.3357,21.8732
20.5857,21.8732
20.5283,21.8618
20.4796,21.8293
20.4471,21.7807
20.4357,21.7233
Z" /> 
<path style="fill:#37CBCB; fill-opacity:1.0000; 
stroke:#37CBCB; stroke-width:0.0000; stroke-opacity:1; 
stroke-linecap:round; stroke-linejoin:round;fill-rule:evenodd;"
d="M 20.4357,20.1532
20.4471,20.0958
20.4796,20.0472
20.5283,20.0147
20.5857,20.0032
22.3357,20.0032
22.3931,20.0147
22.4418,20.0472
22.4743,20.0958
22.4857,20.1532
22.4857,20.4533
22.4743,20.5107
22.4418,20.5593
22.3931,20.5918
22.3357,20.6032
20.5857,20.6032
20.5283,20.5918
20.4796,20.5593
20.4471,20.5107
20.4357,20.4533
Z" /> 
<path style="fill:#37CBCB; fill-opacity:1.0000; 
stroke:#37CBCB; stroke-width:0.0000; stroke-opacity:1; 
stroke-linecap:round; stroke-linejoin:round;fill-rule:evenodd;"
d="M 20.4357,18.8833
20.4471,18.8258
20.4796,18.7772
20.5283,18.7447
20.5857,18.7332
22.3357,18.7332
22.3931,18.7447
22.4418,18.7772
22.4743,18.8258
22.4857,18.8833
22.4857,19.1832
22.4743,19.2407
22.4418,19.2893
22.3931,19.3218
22.3357,19.3332
20.5857,19.3332
20.5283,19.3218
20.4796,19.2893
20.4471,19.2407
20.4357,19.1832
Z" /> 
<path style="fill:#37CBCB; fill-opacity:1.0000; 
stroke:#37CBCB; stroke-width:0.0000; stroke-opacity:1; 
stroke-linecap:round; stroke-linejoin:round;fill-rule:evenodd;"
d="M 20.4357,17.6133
20.4471,17.5558
20.4796,17.5072
20.5283,17.4747
20.5857,17.4632
22.3357,17.4632
22.3931,17.4747
22.4418,17.5072
22.4743,17.5558
22.4857,17.6133
22.4857,17.9132
22.4743,17.9707
22.4418,18.0193
22.3931,18.0518
22.3357,18.0633
20.5857,18.0633
20.5283,18.0518
20.4796,18.0193
20.4471,17.9707
20.4357,17.9132
Z" /> 
<path style="fill:#37CBCB; fill-opacity:1.0000; 
stroke:#37CBCB; stroke-width:0.0000; stroke-opacity:1; 
stroke-linecap:round; stroke-linejoin:round;fill-rule:evenodd;"
d="M 20.4357,16.3432
20.4471,16.2858
20.4796,16.2372
20.5283,16.2047
20.5857,16.1932
22.3357,16.1932
22.3931,16.2047
22.4418,16.2372
22.4743,16.2858
22.4857,16.3432
22.4857,16.6432
22.4743,16.7007
22.4418,16.7493
22.3931,16.7818
22.3357,16.7933
20.5857,16.7933
20.5283,16.7818
20.4796,16.7493
20.4471,16.7007
20.4357,16.6432
Z" /> 
<path style="fill:#37CBCB; fill-opacity:1.0000; 
stroke:#37CBCB; stroke-width:0.0000; stroke-opacity:1; 
stroke-linecap:round; stroke-linejoin:round;fill-rule:evenodd;"
d="M 20.4357,15.0732
20.4471,15.0158
20.4796,14.9672
20.5283,14.9347
20.5857,14.9232
22.3357,14.9232
22.3931,14.9347
22.4418,14.9672
22.4743,15.0158
22.4857,15.0732
22.4857,15.3732
22.4743,15.4307
22.4418,15.4793
22.3931,15.5118
22.3357,15.5232
20.5857,15.5232
20.5283,15.5118
20.4796,15.4793
20.4471,15.4307
20.4357,15.3732
Z" /> 
<path style="fill:#37CBCB; fill-opacity:1.0000; 
stroke:#37CBCB; stroke-width:0.0000; stroke-opacity:1; 
stroke-linecap:round; stroke-linejoin:round;fill-rule:evenodd;"
d="M 20.4357,13.8033
20.4471,13.7458
20.4796,13.6972
20.5283,13.6647
20.5857,13.6532
22.3357,13.6532
22.3931,13.6647
22.4418,13.6972
22.4743,13.7458
22.4857,13.8033
22.4857,14.1032
22.4743,14.1607
22.4418,14.2093
22.3931,14.2418
22.3357,14.2532
20.5857,14.2532
20.5283,14.2418
20.4796,14.2093
20.4471,14.1607
20.4357,14.1032
Z" /> 
<path style="fill:#37CBCB; fill-opacity:1.0000; 
stroke:#37CBCB; stroke-width:0.0000; stroke-opacity:1; 
stroke-linecap:round; stroke-linejoin:round;fill-rule:evenodd;"
d="M 20.4357,12.5332
20.4471,12.4758
20.4796,12.4272
20.5283,12.3947
20.5857,12.3833
22.3357,12.3833
22.3931,12.3947
22.4418,12.4272
22.4743,12.4758
22.4857,12.5332
22.4857,12.8332
22.4743,12.8907
22.4418,12.9393
22.3931,12.9718
22.3357,12.9832
20.5857,12.9832
20.5283,12.9718
20.4796,12.9393
20.4471,12.8907
20.4357,12.8332
Z" /> 
<path style="fill:#37CBCB; fill-opacity:1.0000; 
stroke:#37CBCB; stroke-width:0.0000; stroke-opacity:1; 
stroke-linecap:round; stroke-linejoin:round;fill-rule:evenodd;"
d="M 20.4357,11.2632
20.4471,11.2058
20.4796,11.1572
20.5283,11.1247
20.5857,11.1132
22.3357,11.1132
22.3931,11.1247
22.4418,11.1572
22.4743,11.2058
22.4857,11.2632
22.4857,11.5633
22.4743,11.6207
22.4418,11.6693
22.3931,11.7018
22.3357,11.7132
20.5857,11.7132
20.5283,11.7018
20.4796,11.6693
20.4471,11.6207
20.4357,11.5633
Z" /> 
<path style="fill:#37CBCB; fill-opacity:1.0000; 
stroke:#37CBCB; stroke-width:0.0000; stroke-opacity:1; 
stroke-linecap:round; stroke-linejoin:round;fill-rule:evenodd;"
d="M 20.4357,9.9932
20.4471,9.9358
20.4796,9.8872
20.5283,9.8547
20.5857,9.8432
22.3357,9.8432
22.3931,9.8547
22.4418,9.8872
22.4743,9.9358
22.4857,9.9932
22.4857,10.2932
22.4743,10.3507
22.4418,10.3993
22.3931,10.4318
22.3357,10.4432
20.5857,10.4432
20.5283,10.4318
20.4796,10.3993
20.4471,10.3507
20.4357,10.2932
Z" /> 
<path style="fill:#37CBCB; fill-opacity:1.0000; 
stroke:#37CBCB; stroke-width:0.0000; stroke-opacity:1; 
stroke-linecap:round; stroke-linejoin:round;fill-rule:evenodd;"
d="M 20.4357,8.7233
20.4471,8.6658
20.4796,8.6172
20.5283,8.5847
20.5857,8.5732
22.3357,8.5732
22.3931,8.5847
22.4418,8.6172
22.4743,8.6658
22.4857,8.7233
22.4857,9.0232
22.4743,9.0807
22.4418,9.1293
22.3931,9.1618
22.3357,9.1732
20.5857,9.1732
20.5283,9.1618
20.4796,9.1293
20.4471,9.0807
20.4357,9.0232
Z" /> 
<path style="fill:#37CBCB; fill-opacity:1.0000; 
stroke:#37CBCB; stroke-width:0.0000; stroke-opacity:1; 
stroke-linecap:round; stroke-linejoin:round;fill-rule:evenodd;"
d="M 20.4357,7.4532
20.4471,7.3958
20.4796,7.3472
20.5283,7.3147
20.5857,7.3032
22.3357,7.3032
22.3931,7.3147
22.4418,7.3472
22.4743,7.3958
22.4857,7.4532
22.4857,7.7532
22.4743,7.8107
22.4418,7.8593
22.3931,7.8918
22.3357,7.9032
20.5857,7.9032
20.5283,7.8918
20.4796,7.8593
20.4471,7.8107
20.4357,7.7532
Z" /> 
<path style="fill:#37CBCB; fill-opacity:1.0000; 
stroke:#37CBCB; stroke-width:0.0000; stroke-opacity:1; 
stroke-linecap:round; stroke-linejoin:round;fill-rule:evenodd;"
d="M 20.4357,6.1833
20.4471,6.1258
20.4796,6.0772
20.5283,6.0447
20.5857,6.0332
22.3357,6.0332
22.3931,6.0447
22.4418,6.0772
22.4743,6.1258
22.4857,6.1833
22.4857,6.4832
22.4743,6.5407
22.4418,6.5893
22.3931,6.6218
22.3357,6.6332
20.5857,6.6332
20.5283,6.6218
20.4796,6.5893
20.4471,6.5407
20.4357,6.4832
Z" /> 
<path style="fill:#37CBCB; fill-opacity:1.0000; 
stroke:#37CBCB; stroke-width:0.0000; stroke-opacity:1; 
stroke-linecap:round; stroke-linejoin:round;fill-rule:evenodd;"
d="M 20.4357,4.9132
20.4471,4.8558
20.4796,4.8072
20.5283,4.7747
20.5857,4.7633
22.3357,4.7633
22.3931,4.7747
22.4418,4.8072
22.4743,4.8558
22.4857,4.9132
22.4857,5.2132
22.4743,5.2707
22.4418,5.3193
22.3931,5.3518
22.3357,5.3632
20.5857,5.3632
20.5283,5.3518
20.4796,5.3193
20.4471,5.2707
20.4357,5.2132
Z" /> 
<path style="fill:#37CBCB; fill-opacity:1.0000; 
stroke:#37CBCB; stroke-width:0.0000; stroke-opacity:1; 
stroke-linecap:round; stroke-linejoin:round;fill-rule:evenodd;"
d="M 20.4357,3.6432
20.4471,3.5858
20.4796,3.5372
20.5283,3.5047
20.5857,3.4932
22.3357,3.4932
22.3931,3.5047
22.4418,3.5372
22.4743,3.5858
22.4857,3.6432
22.4857,3.9432
22.4743,4.0007
22.4418,4.0493
22.3931,4.0818
22.3357,4.0932
20.5857,4.0932
20.5283,4.0818
20.4796,4.0493
20.4471,4.0007
20.4357,3.9432
Z" /> 
<path style="fill:#37CBCB; fill-opacity:1.0000; 
stroke:#37CBCB; stroke-width:0.0000; stroke-opacity:1; 
stroke-linecap:round; stroke-linejoin:round;fill-rule:evenodd;"
d="M 20.4357,2.3733
20.4471,2.3158
20.4796,2.2672
20.5283,2.2347
20.5857,2.2232
22.3357,2.2232
22.3931,2.2347
22.4418,2.2672
22.4743,2.3158
22.4857,2.3733
22.4857,2.6732
22.4743,2.7307
22.4418,2.7793
22.3931,2.8118
22.3357,2.8232
20.5857,2.8232
20.5283,2.8118
20.4796,2.7793
20.4471,2.7307
20.4357,2.6732
Z" /> 
</g>
<g >
</g>
<g >
</g>
<g >
</g>
</g>
<g style="fill:#FFFFFF; fill-opacity:1.0000; 
stroke:#FFFFFF; stroke-width:0.0000; stroke-opacity:1; 
stroke-linecap:round; stroke-linejoin:round;">
<g >
</g>
<g style="fill:#4A5F65; fill-opacity:0.9000; 
stroke:#4A5F65; stroke-width:0.0000; stroke-opacity:1; 
stroke-linecap:round; stroke-linejoin:round;">
<path style="fill:#4A5F65; fill-opacity:0.9000; 
stroke:#4A5F65; stroke-width:0.0000; stroke-opacity:1; 
stroke-linecap:round; stroke-linejoin:round;fill-rule:evenodd;"
d="M 7.3357,2.3733
7.3471,2.3158
7.3796,2.2672
7.4283,2.2347
7.4857,2.2232
9.2357,2.2232
9.2931,2.2347
9.3418,2.2672
9.3743,2.3158
9.3857,2.3733
9.3857,2.6732
9.3743,2.7307
9.3418,2.7793
9.2931,2.8118
9.2357,2.8232
7.4857,2.8232
7.4283,2.8118
7.3796,2.7793
7.3471,2.7307
7.3357,2.6732
Z" /> 
<path style="fill:#4A5F65; fill-opacity:0.9000; 
stroke:#4A5F65; stroke-width:0.0000; stroke-opacity:1; 
stroke-linecap:round; stroke-linejoin:round;fill-rule:evenodd;"
d="M 7.3357,3.6432
7.3471,3.5858
7.3796,3.5372
7.4283,3.5047
7.4857,3.4932
9.2357,3.4932
9.2931,3.5047
9.3418,3.5372
9.3743,3.5858
9.3857,3.6432
9.3857,3.9432
9.3743,4.0007
9.3418,4.0493
9.2931,4.0818
9.2357,4.0932
7.4857,4.0932
7.4283,4.0818
7.3796,4.0493
7.3471,4.0007
7.3357,3.9432
Z" /> 
<path style="fill:#4A5F65; fill-opacity:0.9000; 
stroke:#4A5F65; stroke-width:0.0000; stroke-opacity:1; 
stroke-linecap:round; stroke-linejoin:round;fill-rule:evenodd;"
d="M 7.3357,4.9132
7.3471,4.8558
7.3796,4.8072
7.4283,4.7747
7.4857,4.7633
9.2357,4.7633
9.2931,4.7747
9.3418,4.8072
9.3743,4.8558
9.3857,4.9132
9.3857,5.2132
9.3743,5.2707
9.3418,5.3193
9.2931,5.3518
9.2357,5.3632
7.4857,5.3632
7.4283,5.3518
7.3796,5.3193
7.3471,5.2707
7.3357,5.2132
Z" /> 
<path style="fill:#4A5F65; fill-opacity:0.9000; 
stroke:#4A5F65; stroke-width:0.0000; stroke-opacity:1; 
stroke-linecap:round; stroke-linejoin:round;fill-rule:evenodd;"
d="M 7.3357,6.1833
7.3471,6.1258
7.3796,6.0772
7.4283,6.0447
7.4857,6.0332
9.2357,6.0332
9.2931,6.0447
9.3418,6.0772
9.3743,6.1258
9.3857,6.1833
9.3857,6.4832
9.3743,6.5407
9.3418,6.5893
9.2931,6.6218
9.2357,6.6332
7.4857,6.6332
7.4283,6.6218
7.3796,6.5893
7.3471,6.5407
7.3357,6.4832
Z" /> 
<path style="fill:#4A5F65; fill-opacity:0.9000; 
stroke:#4A5F65; stroke-width:0.0000; stroke-opacity:1; 
stroke-linecap:round; stroke-linejoin:round;fill-rule:evenodd;"
d="M 7.3357,7.4532
7.3471,7.3958
7.3796,7.3472
7.4283,7.3147
7.4857,7.3032
9.2357,7.3032
9.2931,7.3147
9.3418,7.3472
9.3743,7.3958
9.3857,7.4532
9.3857,7.7532
9.3743,7.8107
9.3418,7.8593
9.2931,7.8918
9.2357,7.9032
7.4857,7.9032
7.4283,7.8918
7.3796,7.8593
7.3471,7.8107
7.3357,7.7532
Z" /> 
<path style="fill:#4A5F65; fill-opacity:0.9000; 
stroke:#4A5F65; stroke-width:0.0000; stroke-opacity:1; 
stroke-linecap:round; stroke-linejoin:round;fill-rule:evenodd;"
d="M 7.3357,8.7233
7.3471,8.6658
7.3796,8.6172
7.4283,8.5847
7.4857,8.5732
9.2357,8.5732
9.2931,8.5847
9.3418,8.6172
9.3743,8.6658
9.3857,8.7233
9.3857,9.0232
9.3743,9.0807
9.3418,9.1293
9.2931,9.1618
9.2357,9.1732
7.4857,9.1732
7.4283,9.1618
7.3796,9.1293
7.3471,9.0807
7.3357,9.0232
Z" /> 
<path style="fill:#4A5F65; fill-opacity:0.9000; 
stroke:#4A5F65; stroke-width:0.0000; stroke-opacity:1; 
stroke-linecap:round; stroke-linejoin:round;fill-rule:evenodd;"
d="M 7.3357,9.9932
7.3471,9.9358
7.3796,9.8872
7.4283,9.8547
7.4857,9.8432
9.2357,9.8432
9.2931,9.8547
9.3418,9.8872
9.3743,9.9358
9.3857,9.9932
9.3857,10.2932
9.3743,10.3507
9.3418,10.3993
9.2931,10.4318
9.2357,10.4432
7.4857,10.4432
7.4283,10.4318
7.3796,10.3993
7.3471,10.3507
7.3357,10.2932
Z" /> 
<path style="fill:#4A5F65; fill-opacity:0.9000; 
stroke:#4A5F65; stroke-width:0.0000; stroke-opacity:1; 
stroke-linecap:round; stroke-linejoin:round;fill-rule:evenodd;"
d="M 7.3357,11.2632
7.3471,11.2058
7.3796,11.1572
7.4283,11.1247
7.4857,11.1132
9.2357,11.1132
9.2931,11.1247
9.3418,11.1572
9.3743,11.2058
9.3857,11.2632
9.3857,11.5633
9.3743,11.6207
9.3418,11.6693
9.2931,11.7018
9.2357,11.7132
7.4857,11.7132
7.4283,11.7018
7.3796,11.6693
7.3471,11.6207
7.3357,11.5633
Z" /> 
<path style="fill:#4A5F65; fill-opacity:0.9000; 
stroke:#4A5F65; stroke-width:0.0000; stroke-opacity:1; 
stroke-linecap:round; stroke-linejoin:round;fill-rule:evenodd;"
d="M 7.3357,12.5332
7.3471,12.4758
7.3796,12.4272
7.4283,12.3947
7.4857,12.3833
9.2357,12.3833
9.2931,12.3947
9.3418,12.4272
9.3743,12.4758
9.3857,12.5332
9.3857,12.8332
9.3743,12.8907
9.3418,12.9393
9.2931,12.9718
9.2357,12.9832
7.4857,12.9832
7.4283,12.9718
7.3796,12.9393
7.3471,12.8907
7.3357,12.8332
Z" /> 
<path style="fill:#4A5F65; fill-opacity:0.9000; 
stroke:#4A5F65; stroke-width:0.0000; stroke-opacity:1; 
stroke-linecap:round; stroke-linejoin:round;fill-rule:evenodd;"
d="M 7.3357,13.8033
7.3471,13.7458
7.3796,13.6972
7.4283,13.6647
7.4857,13.6532
9.2357,13.6532
9.2931,13.6647
9.3418,13.6972
9.3743,13.7458
9.3857,13.8033
9.3857,14.1032
9.3743,14.1607
9.3418,14.2093
9.2931,14.2418
9.2357,14.2532
7.4857,14.2532
7.4283,14.2418
7.3796,14.2093
7.3471,14.1607
7.3357,14.1032
Z" /> 
<path style="fill:#4A5F65; fill-opacity:0.9000; 
stroke:#4A5F65; stroke-width:0.0000; stroke-opacity:1; 
stroke-linecap:round; stroke-linejoin:round;fill-rule:evenodd;"
d="M 7.3357,15.0732
7.3471,15.0158
7.3796,14.9672
7.4283,14.9347
7.4857,14.9232
9.2357,14.9232
9.2931,14.9347
9.3418,14.9672
9.3743,15.0158
9.3857,15.0732
9.3857,15.3732
9.3743,15.4307
9.3418,15.4793
9.2931,15.5118
9.2357,15.5232
7.4857,15.5232
7.4283,15.5118
7.3796,15.4793
7.3471,15.4307
7.3357,15.3732
Z" /> 
<path style="fill:#4A5F65; fill-opacity:0.9000; 
stroke:#4A5F65; stroke-width:0.0000; stroke-opacity:1; 
stroke-linecap:round; stroke-linejoin:round;fill-rule:evenodd;"
d="M 7.3357,16.3432
7.3471,16.2858
7.3796,16.2372
7.4283,16.2047
7.4857,16.1932
9.2357,16.1932
9.2931,16.2047
9.3418,16.2372
9.3743,16.2858
9.3857,16.3432
9.3857,16.6432
9.3743,16.7007
9.3418,16.7493
9.2931,16.7818
9.2357,16.7933
7.4857,16.7933
7.4283,16.7818
7.3796,16.7493
7.3471,16.7007
7.3357,16.6432
Z" /> 
<path style="fill:#4A5F65; fill-opacity:0.9000; 
stroke:#4A5F65; stroke-width:0.0000; stroke-opacity:1; 
stroke-linecap:round; stroke-linejoin:round;fill-rule:evenodd;"
d="M 7.3357,17.6133
7.3471,17.5558
7.3796,17.5072
7.4283,17.4747
7.4857,17.4632
9.2357,17.4632
9.2931,17.4747
9.3418,17.5072
9.3743,17.5558
9.3857,17.6133
9.3857,17.9132
9.3743,17.9707
9.3418,18.0193
9.2931,18.0518
9.2357,18.0633
7.4857,18.0633
7.4283,18.0518
7.3796,18.0193
7.3471,17.9707
7.3357,17.9132
Z" /> 
<path style="fill:#4A5F65; fill-opacity:0.9000; 
stroke:#4A5F65; stroke-width:0.0000; stroke-opacity:1; 
stroke-linecap:round; stroke-linejoin:round;fill-rule:evenodd;"
d="M 7.3357,18.8833
7.3471,18.8258
7.3796,18.7772
7.4283,18.7447
7.4857,18.7332
9.2357,18.7332
9.2931,18.7447
9.3418,18.7772
9.3743,18.8258
9.3857,18.8833
9.3857,19.1832
9.3743,19.2407
9.3418,19.2893
9.2931,19.3218
9.2357,19.3332
7.4857,19.3332
7.4283,19.3218
7.3796,19.2893
7.3471,19.2407
7.3357,19.1832
Z" /> 
<path style="fill:#4A5F65; fill-opacity:0.9000; 
stroke:#4A5F65; stroke-width:0.0000; stroke-opacity:1; 
stroke-linecap:round; stroke-linejoin:round;fill-rule:evenodd;"
d="M 7.3357,20.1532
7.3471,20.0958
7.3796,20.0472
7.4283,20.0147
7.4857,20.0032
9.2357,20.0032
9.2931,20.0147
9.3418,20.0472
9.3743,20.0958
9.3857,20.1532
9.3857,20.4533
9.3743,20.5107
9.3418,20.5593
9.2931,20.5918
9.2357,20.6032
7.4857,20.6032
7.4283,20.5918
7.3796,20.5593
7.3471,20.5107
7.3357,20.4533
Z" /> 
<path style="fill:#4A5F65; fill-opacity:0.9000; 
stroke:#4A5F65; stroke-width:0.0000; stroke-opacity:1; 
stroke-linecap:round; stroke-linejoin:round;fill-rule:evenodd;"
d="M 7.3357,21.4232
7.3471,21.3658
7.3796,21.3172
7.4283,21.2847
7.4857,21.2732
9.2357,21.2732
9.2931,21.2847
9.3418,21.3172
9.3743,21.3658
9.3857,21.4232
9.3857,21.7233
9.3743,21.7807
9.3418,21.8293
9.2931,21.8618
9.2357,21.8732
7.4857,21.8732
7.4283,21.8618
7.3796,21.8293
7.3471,21.7807
7.3357,21.7233
Z" /> 
<path style="fill:#4A5F65; fill-opacity:0.9000; 
stroke:#4A5F65; stroke-width:0.0000; stroke-opacity:1; 
stroke-linecap:round; stroke-linejoin:round;fill-rule:evenodd;"
d="M 20.4357,21.4232
20.4471,21.3658
20.4796,21.3172
20.5283,21.2847
20.5857,21.2732
22.3357,21.2732
22.3931,21.2847
22.4418,21.3172
22.4743,21.3658
22.4857,21.4232
22.4857,21.7233
22.4743,21.7807
22.4418,21.8293
22.3931,21.8618
22.3357,21.8732
20.5857,21.8732
20.5283,21.8618
20.4796,21.8293
20.4471,21.7807
20.4357,21.7233
Z" /> 
<path style="fill:#4A5F65; fill-opacity:0.9000; 
stroke:#4A5F65; stroke-width:0.0000; stroke-opacity:1; 
stroke-linecap:round; stroke-linejoin:round;fill-rule:evenodd;"
d="M 20.4357,20.1532
20.4471,20.0958
20.4796,20.0472
20.5283,20.0147
20.5857,20.0032
22.3357,20.0032
22.3931,20.0147
22.4418,20.0472
22.4743,20.0958
22.4857,20.1532
22.4857,20.4533
22.4743,20.5107
22.4418,20.5593
22.3931,20.5918
22.3357,20.6032
20.5857,20.6032
20.5283,20.5918
20.4796,20.5593
20.4471,20.5107
20.4357,20.4533
Z" /> 
<path style="fill:#4A5F65; fill-opacity:0.9000; 
stroke:#4A5F65; stroke-width:0.0000; stroke-opacity:1; 
stroke-linecap:round; stroke-linejoin:round;fill-rule:evenodd;"
d="M 20.4357,18.8833
20.4471,18.8258
20.4796,18.7772
20.5283,18.7447
20.5857,18.7332
22.3357,18.7332
22.3931,18.7447
22.4418,18.7772
22.4743,18.8258
22.4857,18.8833
22.4857,19.1832
22.4743,19.2407
22.4418,19.2893
22.3931,19.3218
22.3357,19.3332
20.5857,19.3332
20.5283,19.3218
20.4796,19.2893
20.4471,19.2407
20.4357,19.1832
Z" /> 
<path style="fill:#4A5F65; fill-opacity:0.9000; 
stroke:#4A5F65; stroke-width:0.0000; stroke-opacity:1; 
stroke-linecap:round; stroke-linejoin:round;fill-rule:evenodd;"
d="M 20.4357,17.6133
20.4471,17.5558
20.4796,17.5072
20.5283,17.4747
20.5857,17.4632
22.3357,17.4632
22.3931,17.4747
22.4418,17.5072
22.4743,17.5558
22.4857,17.6133
22.4857,17.9132
22.4743,17.9707
22.4418,18.0193
22.3931,18.0518
22.3357,18.0633
20.5857,18.0633
20.5283,18.0518
20.4796,18.0193
20.4471,17.9707
20.4357,17.9132
Z" /> 
<path style="fill:#4A5F65; fill-opacity:0.9000; 
stroke:#4A5F65; stroke-width:0.0000; stroke-opacity:1; 
stroke-linecap:round; stroke-linejoin:round;fill-rule:evenodd;"
d="M 20.4357,16.3432
20.4471,16.2858
20.4796,16.2372
20.5283,16.2047
20.5857,16.1932
22.3357,16.1932
22.3931,16.2047
22.4418,16.2372
22.4743,16.2858
22.4857,16.3432
22.4857,16.6432
22.4743,16.7007
22.4418,16.7493
22.3931,16.7818
22.3357,16.7933
20.5857,16.7933
20.5283,16.7818
20.4796,16.7493
20.4471,16.7007
20.4357,16.6432
Z" /> 
<path style="fill:#4A5F65; fill-opacity:0.9000; 
stroke:#4A5F65; stroke-width:0.0000; stroke-opacity:1; 
stroke-linecap:round; stroke-linejoin:round;fill-rule:evenodd;"
d="M 20.4357,15.0732
20.4471,15.0158
20.4796,14.9672
20.5283,14.9347
20.5857,14.9232
22.3357,14.9232
22.3931,14.9347
22.4418,14.9672
22.4743,15.0158
22.4857,15.0732
22.4857,15.3732
22.4743,15.4307
22.4418,15.4793
22.3931,15.5118
22.3357,15.5232
20.5857,15.5232
20.5283,15.5118
20.4796,15.4793
20.4471,15.4307
20.4357,15.3732
Z" /> 
<path style="fill:#4A5F65; fill-opacity:0.9000; 
stroke:#4A5F65; stroke-width:0.0000; stroke-opacity:1; 
stroke-linecap:round; stroke-linejoin:round;fill-rule:evenodd;"
d="M 20.4357,13.8033
20.4471,13.7458
20.4796,13.6972
20.5283,13.6647
20.5857,13.6532
22.3357,13.6532
22.3931,13.6647
22.4418,13.6972
22.4743,13.7458
22.4857,13.8033
22.4857,14.1032
22.4743,14.1607
22.4418,14.2093
22.3931,14.2418
22.3357,14.2532
20.5857,14.2532
20.5283,14.2418
20.4796,14.2093
20.4471,14.1607
20.4357,14.1032
Z" /> 
<path style="fill:#4A5F65; fill-opacity:0.9000; 
stroke:#4A5F65; stroke-width:0.0000; stroke-opacity:1; 
stroke-linecap:round; stroke-linejoin:round;fill-rule:evenodd;"
d="M 20.4357,12.5332
20.4471,12.4758
20.4796,12.4272
20.5283,12.3947
20.5857,12.3833
22.3357,12.3833
22.3931,12.3947
22.4418,12.4272
22.4743,12.4758
22.4857,12.5332
22.4857,12.8332
22.4743,12.8907
22.4418,12.9393
22.3931,12.9718
22.3357,12.9832
20.5857,12.9832
20.5283,12.9718
20.4796,12.9393
20.4471,12.8907
20.4357,12.8332
Z" /> 
<path style="fill:#4A5F65; fill-opacity:0.9000; 
stroke:#4A5F65; stroke-width:0.0000; stroke-opacity:1; 
stroke-linecap:round; stroke-linejoin:round;fill-rule:evenodd;"
d="M 20.4357,11.2632
20.4471,11.2058
20.4796,11.1572
20.5283,11.1247
20.5857,11.1132
22.3357,11.1132
22.3931,11.1247
22.4418,11.1572
22.4743,11.2058
22.4857,11.2632
22.4857,11.5633
22.4743,11.6207
22.4418,11.6693
22.3931,11.7018
22.3357,11.7132
20.5857,11.7132
20.5283,11.7018
20.4796,11.6693
20.4471,11.6207
20.4357,11.5633
Z" /> 
<path style="fill:#4A5F65; fill-opacity:0.9000; 
stroke:#4A5F65; stroke-width:0.0000; stroke-opacity:1; 
stroke-linecap:round; stroke-linejoin:round;fill-rule:evenodd;"
d="M 20.4357,9.9932
20.4471,9.9358
20.4796,9.8872
20.5283,9.8547
20.5857,9.8432
22.3357,9.8432
22.3931,9.8547
22.4418,9.8872
22.4743,9.9358
22.4857,9.9932
22.4857,10.2932
22.4743,10.3507
22.4418,10.3993
22.3931,10.4318
22.3357,10.4432
20.5857,10.4432
20.5283,10.4318
20.4796,10.3993
20.4471,10.3507
20.4357,10.2932
Z" /> 
<path style="fill:#4A5F65; fill-opacity:0.9000; 
stroke:#4A5F65; stroke-width:0.0000; stroke-opacity:1; 
stroke-linecap:round; stroke-linejoin:round;fill-rule:evenodd;"
d="M 20.4357,8.7233
20.4471,8.6658
20.4796,8.6172
20.5283,8.5847
20.5857,8.5732
22.3357,8.5732
22.3931,8.5847
22.4418,8.6172
22.4743,8.6658
22.4857,8.7233
22.4857,9.0232
22.4743,9.0807
22.4418,9.1293
22.3931,9.1618
22.3357,9.1732
20.5857,9.1732
20.5283,9.1618
20.4796,9.1293
20.4471,9.0807
20.4357,9.0232
Z" /> 
<path style="fill:#4A5F65; fill-opacity:0.9000; 
stroke:#4A5F65; stroke-width:0.0000; stroke-opacity:1; 
stroke-linecap:round; stroke-linejoin:round;fill-rule:evenodd;"
d="M 20.4357,7.4532
20.4471,7.3958
20.4796,7.3472
20.5283,7.3147
20.5857,7.3032
22.3357,7.3032
22.3931,7.3147
22.4418,7.3472
22.4743,7.3958
22.4857,7.4532
22.4857,7.7532
22.4743,7.8107
22.4418,7.8593
22.3931,7.8918
22.3357,7.9032
20.5857,7.9032
20.5283,7.8918
20.4796,7.8593
20.4471,7.8107
20.4357,7.7532
Z" /> 
<path style="fill:#4A5F65; fill-opacity:0.9000; 
stroke:#4A5F65; stroke-width:0.0000; stroke-opacity:1; 
stroke-linecap:round; stroke-linejoin:round;fill-rule:evenodd;"
d="M 20.4357,6.1833
20.4471,6.1258
20.4796,6.0772
20.5283,6.0447
20.5857,6.0332
22.3357,6.0332
22.3931,6.0447
22.4418,6.0772
22.4743,6.1258
22.4857,6.1833
22.4857,6.4832
22.4743,6.5407
22.4418,6.5893
22.3931,6.6218
22.3357,6.6332
20.5857,6.6332
20.5283,6.6218
20.4796,6.5893
20.4471,6.5407
20.4357,6.4832
Z" /> 
<path style="fill:#4A5F65; fill-opacity:0.9000; 
stroke:#4A5F65; stroke-width:0.0000; stroke-opacity:1; 
stroke-linecap:round; stroke-linejoin:round;fill-rule:evenodd;"
d="M 20.4357,4.9132
20.4471,4.8558
20.4796,4.8072
20.5283,4.7747
20.5857,4.7633
22.3357,4.7633
22.3931,4.7747
22.4418,4.8072
22.4743,4.8558
22.4857,4.9132
22.4857,5.2132
22.4743,5.2707
22.4418,5.3193
22.3931,5.3518
22.3357,5.3632
20.5857,5.3632
20.5283,5.3518
20.4796,5.3193
20.4471,5.2707
20.4357,5.2132
Z" /> 
<path style="fill:#4A5F65; fill-opacity:0.9000; 
stroke:#4A5F65; stroke-width:0.0000; stroke-opacity:1; 
stroke-linecap:round; stroke-linejoin:round;fill-rule:evenodd;"
d="M 20.4357,3.6432
20.4471,3.5858
20.4796,3.5372
20.5283,3.5047
20.5857,3.4932
22.3357,3.4932
22.3931,3.5047
22.4418,3.5372
22.4743,3.5858
22.4857,3.6432
22.4857,3.9432
22.4743,4.0007
22.4418,4.0493
22.3931,4.0818
22.3357,4.0932
20.5857,4.0932
20.5283,4.0818
20.4796,4.0493
20.4471,4.0007
20.4357,3.9432
Z" /> 
<path style="fill:#4A5F65; fill-opacity:0.9000; 
stroke:#4A5F65; stroke-width:0.0000; stroke-opacity:1; 
stroke-linecap:round; stroke-linejoin:round;fill-rule:evenodd;"
d="M 20.4357,2.3733
20.4471,2.3158
20.4796,2.2672
20.5283,2.2347
20.5857,2.2232
22.3357,2.2232
22.3931,2.2347
22.4418,2.2672
22.4743,2.3158
22.4857,2.3733
22.4857,2.6732
22.4743,2.7307
22.4418,2.7793
22.3931,2.8118
22.3357,2.8232
20.5857,2.8232
20.5283,2.8118
20.4796,2.7793
20.4471,2.7307
20.4357,2.6732
Z" /> 
</g>
<g >
</g>
<g >
</g>
<g >
</g>
</g>
<g style="fill:#FFFFFF; fill-opacity:1.0000; 
stroke:#FFFFFF; stroke-width:0.0000; stroke-opacity:1; 
stroke-linecap:round; stroke-linejoin:round;">
</g>
<g style="fill:#0D115E; fill-opacity:1.0000; 
stroke:#0D115E; stroke-width:0.0000; stroke-opacity:1; 
stroke-linecap:round; stroke-linejoin:round;">
</g>
<g style="fill:#0D115E; fill-opacity:1.0000; 
stroke:#0D115E; stroke-width:0.1500; stroke-opacity:1; 
stroke-linecap:round; stroke-linejoin:round;">
</g>
<g style="fill:#0D115E; fill-opacity:0.0; 
stroke:#0D115E; stroke-width:0.1500; stroke-opacity:1; 
stroke-linecap:round; stroke-linejoin:round;">
<text x="14.9107" y="1.3482"
textLength="4.5357" font-size="1.3333" lengthAdjust="spacingAndGlyphs"
text-anchor="middle" opacity="0">REF**</text>
<g class="stroked-text"><desc>REF**</desc>
<path d="M13.5774 1.3031
L13.2440 0.8269
" />
<path d="M13.0060 1.3031
L13.0060 0.3031
" />
<path d="M13.0060 0.3031
L13.3869 0.3031
" />
<path d="M13.3869 0.3031
L13.4821 0.3507
" />
<path d="M13.4821 0.3507
L13.5298 0.3983
" />
<path d="M13.5298 0.3983
L13.5774 0.4935
" />
<path d="M13.5774 0.4935
L13.5774 0.6364
" />
<path d="M13.5774 0.6364
L13.5298 0.7316
" />
<path d="M13.5298 0.7316
L13.4821 0.7793
" />
<path d="M13.4821 0.7793
L13.3869 0.8269
" />
<path d="M13.3869 0.8269
L13.0060 0.8269
" />
<path d="M14.0060 0.7793
L14.3393 0.7793
" />
<path d="M14.4821 1.3031
L14.0060 1.3031
" />
<path d="M14.0060 1.3031
L14.0060 0.3031
" />
<path d="M14.0060 0.3031
L14.4821 0.3031
" />
<path d="M15.2440 0.7793
L14.9107 0.7793
" />
<path d="M14.9107 1.3031
L14.9107 0.3031
" />
<path d="M14.9107 0.3031
L15.3869 0.3031
" />
<path d="M15.9107 0.3031
L15.9107 0.5412
" />
<path d="M15.6726 0.4459
L15.9107 0.5412
" />
<path d="M15.9107 0.5412
L16.1488 0.4459
" />
<path d="M15.7679 0.7316
L15.9107 0.5412
" />
<path d="M15.9107 0.5412
L16.0536 0.7316
" />
<path d="M16.6726 0.3031
L16.6726 0.5412
" />
<path d="M16.4345 0.4459
L16.6726 0.5412
" />
<path d="M16.6726 0.5412
L16.9107 0.4459
" />
<path d="M16.5298 0.7316
L16.6726 0.5412
" />
<path d="M16.6726 0.5412
L16.8155 0.7316
" />
</g></g>
<g style="fill:#0D115E; fill-opacity:0.0; 
stroke:#0D115E; stroke-width:0.1200; stroke-opacity:1; 
stroke-linecap:round; stroke-linejoin:round;">
<path d="M9.1482 22.4057
L9.1482 22.1333
" />
<path d="M14.9107 22.4057
L9.1482 22.4057
" />
<path d="M20.6732 22.4057
L20.6732 22.1333
" />
<path d="M14.9107 1.6907
L20.6732 1.6907
" />
<path d="M20.6732 1.6907
L20.6732 1.9632
" />
<path d="M14.9107 22.4057
L20.6732 22.4057
" />
<path d="M9.1482 1.9632
L7.3357 1.9632
" />
<path d="M14.9107 1.6907
L9.1482 1.6907
" />
<path d="M9.1482 1.6907
L9.1482 1.9632
" />
<g >
</g>
<g >
</g>
<g >
</g>
<g >
</g>
</g> 
</svg>
