<?xml version="1.0" standalone="no"?>
 <!DOCTYPE svg PUBLIC "-//W3C//DTD SVG 1.1//EN" 
 "http://www.w3.org/Graphics/SVG/1.1/DTD/svg11.dtd"> 
<svg
  xmlns:svg="http://www.w3.org/2000/svg"
  xmlns="http://www.w3.org/2000/svg"
  xmlns:xlink="http://www.w3.org/1999/xlink"
  version="1.1"
  width="42.6720mm" height="70.1040mm" viewBox="0.0000 0.0000 42.6720 70.1040">
<title>SVG Image created as 8252.svg date 2024/01/16 15:10:38 </title>
  <desc>Image generated by Eeschema-SVG </desc>
<g style="fill:#000000; fill-opacity:1.0000;stroke:#000000; stroke-opacity:1.0000;
stroke-linecap:round; stroke-linejoin:round;"
 transform="translate(0 0) scale(1 1)">
</g>
<g style="fill:#840000; fill-opacity:0.0; 
stroke:#840000; stroke-width:0.0000; stroke-opacity:1; 
stroke-linecap:round; stroke-linejoin:round;">
</g>
<g style="fill:#FFFFC2; fill-opacity:0.0; 
stroke:#FFFFC2; stroke-width:0.0000; stroke-opacity:1; 
stroke-linecap:round; stroke-linejoin:round;">
</g>
<g style="fill:#FFFFC2; fill-opacity:1.0000; 
stroke:#FFFFC2; stroke-width:0.0000; stroke-opacity:1; 
stroke-linecap:round; stroke-linejoin:round;">
<rect x="7.366000" y="10.922000" width="27.940000" height="50.800000" rx="0.000000" />
<rect x="7.366000" y="10.922000" width="27.940000" height="50.800000" rx="0.000000" />
</g>
<g style="fill:#840084; fill-opacity:1.0000; 
stroke:#840084; stroke-width:0.0000; stroke-opacity:1; 
stroke-linecap:round; stroke-linejoin:round;">
</g>
<g style="fill:#840000; fill-opacity:1.0000; 
stroke:#840000; stroke-width:0.0000; stroke-opacity:1; 
stroke-linecap:round; stroke-linejoin:round;">
</g>
<g style="fill:#840000; fill-opacity:0.0; 
stroke:#840000; stroke-width:0.2540; stroke-opacity:1; 
stroke-linecap:round; stroke-linejoin:round;">
<rect x="7.366000" y="10.922000" width="27.940000" height="50.800000" rx="0.000000" />
<rect x="7.366000" y="10.922000" width="27.940000" height="50.800000" rx="0.000000" />
</g>
<g style="fill:#840000; fill-opacity:0.0; 
stroke:#840000; stroke-width:0.1524; stroke-opacity:1; 
stroke-linecap:round; stroke-linejoin:round;">
<path d="M7.3660 37.5920
L3.5560 37.5920
" />
</g>
<g style="fill:#006464; fill-opacity:0.0; 
stroke:#006464; stroke-width:0.1524; stroke-opacity:1; 
stroke-linecap:round; stroke-linejoin:round;">
<text x="8.3820" y="38.2270"
textLength="2.7432" font-size="1.6933" lengthAdjust="spacingAndGlyphs"
text-anchor="start" opacity="0">~{RD}</text>
<g class="stroked-text"><desc>~{RD}</desc>
<path d="M9.5102 38.1715
L9.0869 37.5668
" />
<path d="M8.7845 38.1715
L8.7845 36.9015
" />
<path d="M8.7845 36.9015
L9.2683 36.9015
" />
<path d="M9.2683 36.9015
L9.3893 36.9620
" />
<path d="M9.3893 36.9620
L9.4498 37.0225
" />
<path d="M9.4498 37.0225
L9.5102 37.1434
" />
<path d="M9.5102 37.1434
L9.5102 37.3249
" />
<path d="M9.5102 37.3249
L9.4498 37.4458
" />
<path d="M9.4498 37.4458
L9.3893 37.5063
" />
<path d="M9.3893 37.5063
L9.2683 37.5668
" />
<path d="M9.2683 37.5668
L8.7845 37.5668
" />
<path d="M10.0545 38.1715
L10.0545 36.9015
" />
<path d="M10.0545 36.9015
L10.3569 36.9015
" />
<path d="M10.3569 36.9015
L10.5383 36.9620
" />
<path d="M10.5383 36.9620
L10.6593 37.0830
" />
<path d="M10.6593 37.0830
L10.7198 37.2039
" />
<path d="M10.7198 37.2039
L10.7802 37.4458
" />
<path d="M10.7802 37.4458
L10.7802 37.6272
" />
<path d="M10.7802 37.6272
L10.7198 37.8691
" />
<path d="M10.7198 37.8691
L10.6593 37.9901
" />
<path d="M10.6593 37.9901
L10.5383 38.1111
" />
<path d="M10.5383 38.1111
L10.3569 38.1715
" />
<path d="M10.3569 38.1715
L10.0545 38.1715
" />
<path d="M8.6092 36.5490
L10.8952 36.5490
" />
</g></g>
<g style="fill:#A90000; fill-opacity:0.0; 
stroke:#A90000; stroke-width:0.1524; stroke-opacity:1; 
stroke-linecap:round; stroke-linejoin:round;">
<text x="5.4610" y="37.3380"
textLength="1.4127" font-size="1.6933" lengthAdjust="spacingAndGlyphs"
text-anchor="middle" opacity="0">1</text>
<g class="stroked-text"><desc>1</desc>
<path d="M5.8239 37.1745
L5.0982 37.1745
" />
<path d="M5.4610 37.1745
L5.4610 35.9045
" />
<path d="M5.4610 35.9045
L5.3401 36.0860
" />
<path d="M5.3401 36.0860
L5.2191 36.2069
" />
<path d="M5.2191 36.2069
L5.0982 36.2674
" />
</g></g>
<g style="fill:#840000; fill-opacity:0.0; 
stroke:#840000; stroke-width:0.1524; stroke-opacity:1; 
stroke-linecap:round; stroke-linejoin:round;">
<path d="M7.3660 32.5120
L3.5560 32.5120
" />
</g>
<g style="fill:#006464; fill-opacity:0.0; 
stroke:#006464; stroke-width:0.1524; stroke-opacity:1; 
stroke-linecap:round; stroke-linejoin:round;">
<text x="8.3820" y="33.1470"
textLength="2.6827" font-size="1.6933" lengthAdjust="spacingAndGlyphs"
text-anchor="start" opacity="0">D7</text>
<g class="stroked-text"><desc>D7</desc>
<path d="M8.7845 33.0915
L8.7845 31.8215
" />
<path d="M8.7845 31.8215
L9.0869 31.8215
" />
<path d="M9.0869 31.8215
L9.2683 31.8820
" />
<path d="M9.2683 31.8820
L9.3893 32.0030
" />
<path d="M9.3893 32.0030
L9.4498 32.1239
" />
<path d="M9.4498 32.1239
L9.5102 32.3658
" />
<path d="M9.5102 32.3658
L9.5102 32.5472
" />
<path d="M9.5102 32.5472
L9.4498 32.7891
" />
<path d="M9.4498 32.7891
L9.3893 32.9101
" />
<path d="M9.3893 32.9101
L9.2683 33.0311
" />
<path d="M9.2683 33.0311
L9.0869 33.0915
" />
<path d="M9.0869 33.0915
L8.7845 33.0915
" />
<path d="M9.9336 31.8215
L10.7802 31.8215
" />
<path d="M10.7802 31.8215
L10.2360 33.0915
" />
</g></g>
<g style="fill:#A90000; fill-opacity:0.0; 
stroke:#A90000; stroke-width:0.1524; stroke-opacity:1; 
stroke-linecap:round; stroke-linejoin:round;">
<text x="5.4610" y="32.2580"
textLength="2.6222" font-size="1.6933" lengthAdjust="spacingAndGlyphs"
text-anchor="middle" opacity="0">10</text>
<g class="stroked-text"><desc>10</desc>
<path d="M5.2191 32.0945
L4.4934 32.0945
" />
<path d="M4.8562 32.0945
L4.8562 30.8245
" />
<path d="M4.8562 30.8245
L4.7353 31.0060
" />
<path d="M4.7353 31.0060
L4.6143 31.1269
" />
<path d="M4.6143 31.1269
L4.4934 31.1874
" />
<path d="M6.0052 30.8245
L6.1262 30.8245
" />
<path d="M6.1262 30.8245
L6.2471 30.8850
" />
<path d="M6.2471 30.8850
L6.3076 30.9455
" />
<path d="M6.3076 30.9455
L6.3681 31.0664
" />
<path d="M6.3681 31.0664
L6.4286 31.3083
" />
<path d="M6.4286 31.3083
L6.4286 31.6107
" />
<path d="M6.4286 31.6107
L6.3681 31.8526
" />
<path d="M6.3681 31.8526
L6.3076 31.9736
" />
<path d="M6.3076 31.9736
L6.2471 32.0341
" />
<path d="M6.2471 32.0341
L6.1262 32.0945
" />
<path d="M6.1262 32.0945
L6.0052 32.0945
" />
<path d="M6.0052 32.0945
L5.8843 32.0341
" />
<path d="M5.8843 32.0341
L5.8238 31.9736
" />
<path d="M5.8238 31.9736
L5.7633 31.8526
" />
<path d="M5.7633 31.8526
L5.7029 31.6107
" />
<path d="M5.7029 31.6107
L5.7029 31.3083
" />
<path d="M5.7029 31.3083
L5.7633 31.0664
" />
<path d="M5.7633 31.0664
L5.8238 30.9455
" />
<path d="M5.8238 30.9455
L5.8843 30.8850
" />
<path d="M5.8843 30.8850
L6.0052 30.8245
" />
</g></g>
<g style="fill:#840000; fill-opacity:0.0; 
stroke:#840000; stroke-width:0.1524; stroke-opacity:1; 
stroke-linecap:round; stroke-linejoin:round;">
<path d="M7.3660 42.6720
L3.5560 42.6720
" />
</g>
<g style="fill:#006464; fill-opacity:0.0; 
stroke:#006464; stroke-width:0.1524; stroke-opacity:1; 
stroke-linecap:round; stroke-linejoin:round;">
<text x="8.3820" y="43.3070"
textLength="2.5013" font-size="1.6933" lengthAdjust="spacingAndGlyphs"
text-anchor="start" opacity="0">A0</text>
<g class="stroked-text"><desc>A0</desc>
<path d="M8.7241 42.8887
L9.3288 42.8887
" />
<path d="M8.6031 43.2515
L9.0264 41.9815
" />
<path d="M9.0264 41.9815
L9.4498 43.2515
" />
<path d="M10.1150 41.9815
L10.2360 41.9815
" />
<path d="M10.2360 41.9815
L10.3569 42.0420
" />
<path d="M10.3569 42.0420
L10.4174 42.1025
" />
<path d="M10.4174 42.1025
L10.4779 42.2234
" />
<path d="M10.4779 42.2234
L10.5384 42.4653
" />
<path d="M10.5384 42.4653
L10.5384 42.7677
" />
<path d="M10.5384 42.7677
L10.4779 43.0096
" />
<path d="M10.4779 43.0096
L10.4174 43.1306
" />
<path d="M10.4174 43.1306
L10.3569 43.1911
" />
<path d="M10.3569 43.1911
L10.2360 43.2515
" />
<path d="M10.2360 43.2515
L10.1150 43.2515
" />
<path d="M10.1150 43.2515
L9.9941 43.1911
" />
<path d="M9.9941 43.1911
L9.9336 43.1306
" />
<path d="M9.9336 43.1306
L9.8731 43.0096
" />
<path d="M9.8731 43.0096
L9.8127 42.7677
" />
<path d="M9.8127 42.7677
L9.8127 42.4653
" />
<path d="M9.8127 42.4653
L9.8731 42.2234
" />
<path d="M9.8731 42.2234
L9.9336 42.1025
" />
<path d="M9.9336 42.1025
L9.9941 42.0420
" />
<path d="M9.9941 42.0420
L10.1150 41.9815
" />
</g></g>
<g style="fill:#A90000; fill-opacity:0.0; 
stroke:#A90000; stroke-width:0.1524; stroke-opacity:1; 
stroke-linecap:round; stroke-linejoin:round;">
<text x="5.4610" y="42.4180"
textLength="2.6222" font-size="1.6933" lengthAdjust="spacingAndGlyphs"
text-anchor="middle" opacity="0">11</text>
<g class="stroked-text"><desc>11</desc>
<path d="M5.2191 42.2545
L4.4934 42.2545
" />
<path d="M4.8562 42.2545
L4.8562 40.9845
" />
<path d="M4.8562 40.9845
L4.7353 41.1660
" />
<path d="M4.7353 41.1660
L4.6143 41.2869
" />
<path d="M4.6143 41.2869
L4.4934 41.3474
" />
<path d="M6.4286 42.2545
L5.7029 42.2545
" />
<path d="M6.0657 42.2545
L6.0657 40.9845
" />
<path d="M6.0657 40.9845
L5.9448 41.1660
" />
<path d="M5.9448 41.1660
L5.8238 41.2869
" />
<path d="M5.8238 41.2869
L5.7029 41.3474
" />
</g></g>
<g style="fill:#840000; fill-opacity:0.0; 
stroke:#840000; stroke-width:0.1524; stroke-opacity:1; 
stroke-linecap:round; stroke-linejoin:round;">
<path d="M7.3660 45.2120
L3.5560 45.2120
" />
</g>
<g style="fill:#006464; fill-opacity:0.0; 
stroke:#006464; stroke-width:0.1524; stroke-opacity:1; 
stroke-linecap:round; stroke-linejoin:round;">
<text x="8.3820" y="45.8470"
textLength="2.5013" font-size="1.6933" lengthAdjust="spacingAndGlyphs"
text-anchor="start" opacity="0">A1</text>
<g class="stroked-text"><desc>A1</desc>
<path d="M8.7241 45.4287
L9.3288 45.4287
" />
<path d="M8.6031 45.7915
L9.0264 44.5215
" />
<path d="M9.0264 44.5215
L9.4498 45.7915
" />
<path d="M10.5384 45.7915
L9.8127 45.7915
" />
<path d="M10.1755 45.7915
L10.1755 44.5215
" />
<path d="M10.1755 44.5215
L10.0546 44.7030
" />
<path d="M10.0546 44.7030
L9.9336 44.8239
" />
<path d="M9.9336 44.8239
L9.8127 44.8844
" />
</g></g>
<g style="fill:#A90000; fill-opacity:0.0; 
stroke:#A90000; stroke-width:0.1524; stroke-opacity:1; 
stroke-linecap:round; stroke-linejoin:round;">
<text x="5.4610" y="44.9580"
textLength="2.6222" font-size="1.6933" lengthAdjust="spacingAndGlyphs"
text-anchor="middle" opacity="0">12</text>
<g class="stroked-text"><desc>12</desc>
<path d="M5.2191 44.7945
L4.4934 44.7945
" />
<path d="M4.8562 44.7945
L4.8562 43.5245
" />
<path d="M4.8562 43.5245
L4.7353 43.7060
" />
<path d="M4.7353 43.7060
L4.6143 43.8269
" />
<path d="M4.6143 43.8269
L4.4934 43.8874
" />
<path d="M5.7029 43.6455
L5.7633 43.5850
" />
<path d="M5.7633 43.5850
L5.8843 43.5245
" />
<path d="M5.8843 43.5245
L6.1867 43.5245
" />
<path d="M6.1867 43.5245
L6.3076 43.5850
" />
<path d="M6.3076 43.5850
L6.3681 43.6455
" />
<path d="M6.3681 43.6455
L6.4286 43.7664
" />
<path d="M6.4286 43.7664
L6.4286 43.8874
" />
<path d="M6.4286 43.8874
L6.3681 44.0688
" />
<path d="M6.3681 44.0688
L5.6424 44.7945
" />
<path d="M5.6424 44.7945
L6.4286 44.7945
" />
</g></g>
<g style="fill:#840000; fill-opacity:0.0; 
stroke:#840000; stroke-width:0.1524; stroke-opacity:1; 
stroke-linecap:round; stroke-linejoin:round;">
<path d="M7.3660 55.3720
L3.5560 55.3720
" />
</g>
<g style="fill:#006464; fill-opacity:0.0; 
stroke:#006464; stroke-width:0.1524; stroke-opacity:1; 
stroke-linecap:round; stroke-linejoin:round;">
<text x="8.3820" y="56.0070"
textLength="2.0175" font-size="1.6933" lengthAdjust="spacingAndGlyphs"
text-anchor="start" opacity="0">IX</text>
<g class="stroked-text"><desc>IX</desc>
<path d="M8.7845 55.9515
L8.7845 54.6815
" />
<path d="M9.2684 54.6815
L10.1150 55.9515
" />
<path d="M10.1150 54.6815
L9.2684 55.9515
" />
</g></g>
<g style="fill:#A90000; fill-opacity:0.0; 
stroke:#A90000; stroke-width:0.1524; stroke-opacity:1; 
stroke-linecap:round; stroke-linejoin:round;">
<text x="5.4610" y="55.1180"
textLength="2.6222" font-size="1.6933" lengthAdjust="spacingAndGlyphs"
text-anchor="middle" opacity="0">13</text>
<g class="stroked-text"><desc>13</desc>
<path d="M5.2191 54.9545
L4.4934 54.9545
" />
<path d="M4.8562 54.9545
L4.8562 53.6845
" />
<path d="M4.8562 53.6845
L4.7353 53.8660
" />
<path d="M4.7353 53.8660
L4.6143 53.9869
" />
<path d="M4.6143 53.9869
L4.4934 54.0474
" />
<path d="M5.6424 53.6845
L6.4286 53.6845
" />
<path d="M6.4286 53.6845
L6.0052 54.1683
" />
<path d="M6.0052 54.1683
L6.1867 54.1683
" />
<path d="M6.1867 54.1683
L6.3076 54.2288
" />
<path d="M6.3076 54.2288
L6.3681 54.2893
" />
<path d="M6.3681 54.2893
L6.4286 54.4102
" />
<path d="M6.4286 54.4102
L6.4286 54.7126
" />
<path d="M6.4286 54.7126
L6.3681 54.8336
" />
<path d="M6.3681 54.8336
L6.3076 54.8941
" />
<path d="M6.3076 54.8941
L6.1867 54.9545
" />
<path d="M6.1867 54.9545
L5.8238 54.9545
" />
<path d="M5.8238 54.9545
L5.7029 54.8941
" />
<path d="M5.7029 54.8941
L5.6424 54.8336
" />
</g></g>
<g style="fill:#840000; fill-opacity:0.0; 
stroke:#840000; stroke-width:0.1524; stroke-opacity:1; 
stroke-linecap:round; stroke-linejoin:round;">
<path d="M7.3660 57.9120
L3.5560 57.9120
" />
</g>
<g style="fill:#006464; fill-opacity:0.0; 
stroke:#006464; stroke-width:0.1524; stroke-opacity:1; 
stroke-linecap:round; stroke-linejoin:round;">
<text x="8.3820" y="58.5470"
textLength="2.7432" font-size="1.6933" lengthAdjust="spacingAndGlyphs"
text-anchor="start" opacity="0">OX</text>
<g class="stroked-text"><desc>OX</desc>
<path d="M9.0264 57.2215
L9.2683 57.2215
" />
<path d="M9.2683 57.2215
L9.3893 57.2820
" />
<path d="M9.3893 57.2820
L9.5102 57.4030
" />
<path d="M9.5102 57.4030
L9.5707 57.6449
" />
<path d="M9.5707 57.6449
L9.5707 58.0682
" />
<path d="M9.5707 58.0682
L9.5102 58.3101
" />
<path d="M9.5102 58.3101
L9.3893 58.4311
" />
<path d="M9.3893 58.4311
L9.2683 58.4915
" />
<path d="M9.2683 58.4915
L9.0264 58.4915
" />
<path d="M9.0264 58.4915
L8.9055 58.4311
" />
<path d="M8.9055 58.4311
L8.7845 58.3101
" />
<path d="M8.7845 58.3101
L8.7241 58.0682
" />
<path d="M8.7241 58.0682
L8.7241 57.6449
" />
<path d="M8.7241 57.6449
L8.7845 57.4030
" />
<path d="M8.7845 57.4030
L8.9055 57.2820
" />
<path d="M8.9055 57.2820
L9.0264 57.2215
" />
<path d="M9.9941 57.2215
L10.8407 58.4915
" />
<path d="M10.8407 57.2215
L9.9941 58.4915
" />
</g></g>
<g style="fill:#A90000; fill-opacity:0.0; 
stroke:#A90000; stroke-width:0.1524; stroke-opacity:1; 
stroke-linecap:round; stroke-linejoin:round;">
<text x="5.4610" y="57.6580"
textLength="2.6222" font-size="1.6933" lengthAdjust="spacingAndGlyphs"
text-anchor="middle" opacity="0">14</text>
<g class="stroked-text"><desc>14</desc>
<path d="M5.2191 57.4945
L4.4934 57.4945
" />
<path d="M4.8562 57.4945
L4.8562 56.2245
" />
<path d="M4.8562 56.2245
L4.7353 56.4060
" />
<path d="M4.7353 56.4060
L4.6143 56.5269
" />
<path d="M4.6143 56.5269
L4.4934 56.5874
" />
<path d="M6.3076 56.6479
L6.3076 57.4945
" />
<path d="M6.0052 56.1641
L5.7029 57.0712
" />
<path d="M5.7029 57.0712
L6.4890 57.0712
" />
</g></g>
<g style="fill:#840000; fill-opacity:0.0; 
stroke:#840000; stroke-width:0.1524; stroke-opacity:1; 
stroke-linecap:round; stroke-linejoin:round;">
<path d="M35.3060 27.4320
L39.1160 27.4320
" />
</g>
<g style="fill:#006464; fill-opacity:0.0; 
stroke:#006464; stroke-width:0.1524; stroke-opacity:1; 
stroke-linecap:round; stroke-linejoin:round;">
<text x="34.2900" y="28.0670"
textLength="9.1537" font-size="1.6933" lengthAdjust="spacingAndGlyphs"
text-anchor="end" opacity="0">(TXD)SDO</text>
<g class="stroked-text"><desc>(TXD)SDO</desc>
<path d="M25.9045 28.4953
L25.8440 28.4349
" />
<path d="M25.8440 28.4349
L25.7231 28.2534
" />
<path d="M25.7231 28.2534
L25.6626 28.1325
" />
<path d="M25.6626 28.1325
L25.6021 27.9511
" />
<path d="M25.6021 27.9511
L25.5416 27.6487
" />
<path d="M25.5416 27.6487
L25.5416 27.4068
" />
<path d="M25.5416 27.4068
L25.6021 27.1044
" />
<path d="M25.6021 27.1044
L25.6626 26.9230
" />
<path d="M25.6626 26.9230
L25.7231 26.8020
" />
<path d="M25.7231 26.8020
L25.8440 26.6206
" />
<path d="M25.8440 26.6206
L25.9045 26.5601
" />
<path d="M26.2069 26.7415
L26.9326 26.7415
" />
<path d="M26.5698 28.0115
L26.5698 26.7415
" />
<path d="M27.2350 26.7415
L28.0816 28.0115
" />
<path d="M28.0816 26.7415
L27.2350 28.0115
" />
<path d="M28.5654 28.0115
L28.5654 26.7415
" />
<path d="M28.5654 26.7415
L28.8678 26.7415
" />
<path d="M28.8678 26.7415
L29.0492 26.8020
" />
<path d="M29.0492 26.8020
L29.1702 26.9230
" />
<path d="M29.1702 26.9230
L29.2307 27.0439
" />
<path d="M29.2307 27.0439
L29.2911 27.2858
" />
<path d="M29.2911 27.2858
L29.2911 27.4672
" />
<path d="M29.2911 27.4672
L29.2307 27.7091
" />
<path d="M29.2307 27.7091
L29.1702 27.8301
" />
<path d="M29.1702 27.8301
L29.0492 27.9511
" />
<path d="M29.0492 27.9511
L28.8678 28.0115
" />
<path d="M28.8678 28.0115
L28.5654 28.0115
" />
<path d="M29.7145 28.4953
L29.7750 28.4349
" />
<path d="M29.7750 28.4349
L29.8959 28.2534
" />
<path d="M29.8959 28.2534
L29.9564 28.1325
" />
<path d="M29.9564 28.1325
L30.0169 27.9511
" />
<path d="M30.0169 27.9511
L30.0773 27.6487
" />
<path d="M30.0773 27.6487
L30.0773 27.4068
" />
<path d="M30.0773 27.4068
L30.0169 27.1044
" />
<path d="M30.0169 27.1044
L29.9564 26.9230
" />
<path d="M29.9564 26.9230
L29.8959 26.8020
" />
<path d="M29.8959 26.8020
L29.7750 26.6206
" />
<path d="M29.7750 26.6206
L29.7145 26.5601
" />
<path d="M30.6217 27.9511
L30.8031 28.0115
" />
<path d="M30.8031 28.0115
L31.1055 28.0115
" />
<path d="M31.1055 28.0115
L31.2264 27.9511
" />
<path d="M31.2264 27.9511
L31.2869 27.8906
" />
<path d="M31.2869 27.8906
L31.3474 27.7696
" />
<path d="M31.3474 27.7696
L31.3474 27.6487
" />
<path d="M31.3474 27.6487
L31.2869 27.5277
" />
<path d="M31.2869 27.5277
L31.2264 27.4672
" />
<path d="M31.2264 27.4672
L31.1055 27.4068
" />
<path d="M31.1055 27.4068
L30.8636 27.3463
" />
<path d="M30.8636 27.3463
L30.7426 27.2858
" />
<path d="M30.7426 27.2858
L30.6821 27.2253
" />
<path d="M30.6821 27.2253
L30.6217 27.1044
" />
<path d="M30.6217 27.1044
L30.6217 26.9834
" />
<path d="M30.6217 26.9834
L30.6821 26.8625
" />
<path d="M30.6821 26.8625
L30.7426 26.8020
" />
<path d="M30.7426 26.8020
L30.8636 26.7415
" />
<path d="M30.8636 26.7415
L31.1659 26.7415
" />
<path d="M31.1659 26.7415
L31.3474 26.8020
" />
<path d="M31.8916 28.0115
L31.8916 26.7415
" />
<path d="M31.8916 26.7415
L32.1940 26.7415
" />
<path d="M32.1940 26.7415
L32.3754 26.8020
" />
<path d="M32.3754 26.8020
L32.4964 26.9230
" />
<path d="M32.4964 26.9230
L32.5569 27.0439
" />
<path d="M32.5569 27.0439
L32.6173 27.2858
" />
<path d="M32.6173 27.2858
L32.6173 27.4672
" />
<path d="M32.6173 27.4672
L32.5569 27.7091
" />
<path d="M32.5569 27.7091
L32.4964 27.8301
" />
<path d="M32.4964 27.8301
L32.3754 27.9511
" />
<path d="M32.3754 27.9511
L32.1940 28.0115
" />
<path d="M32.1940 28.0115
L31.8916 28.0115
" />
<path d="M33.4035 26.7415
L33.6454 26.7415
" />
<path d="M33.6454 26.7415
L33.7664 26.8020
" />
<path d="M33.7664 26.8020
L33.8873 26.9230
" />
<path d="M33.8873 26.9230
L33.9478 27.1649
" />
<path d="M33.9478 27.1649
L33.9478 27.5882
" />
<path d="M33.9478 27.5882
L33.8873 27.8301
" />
<path d="M33.8873 27.8301
L33.7664 27.9511
" />
<path d="M33.7664 27.9511
L33.6454 28.0115
" />
<path d="M33.6454 28.0115
L33.4035 28.0115
" />
<path d="M33.4035 28.0115
L33.2826 27.9511
" />
<path d="M33.2826 27.9511
L33.1616 27.8301
" />
<path d="M33.1616 27.8301
L33.1012 27.5882
" />
<path d="M33.1012 27.5882
L33.1012 27.1649
" />
<path d="M33.1012 27.1649
L33.1616 26.9230
" />
<path d="M33.1616 26.9230
L33.2826 26.8020
" />
<path d="M33.2826 26.8020
L33.4035 26.7415
" />
</g></g>
<g style="fill:#A90000; fill-opacity:0.0; 
stroke:#A90000; stroke-width:0.1524; stroke-opacity:1; 
stroke-linecap:round; stroke-linejoin:round;">
<text x="37.2110" y="27.1780"
textLength="2.6222" font-size="1.6933" lengthAdjust="spacingAndGlyphs"
text-anchor="middle" opacity="0">15</text>
<g class="stroked-text"><desc>15</desc>
<path d="M36.9691 27.0145
L36.2434 27.0145
" />
<path d="M36.6062 27.0145
L36.6062 25.7445
" />
<path d="M36.6062 25.7445
L36.4853 25.9260
" />
<path d="M36.4853 25.9260
L36.3643 26.0469
" />
<path d="M36.3643 26.0469
L36.2434 26.1074
" />
<path d="M38.1181 25.7445
L37.5133 25.7445
" />
<path d="M37.5133 25.7445
L37.4529 26.3493
" />
<path d="M37.4529 26.3493
L37.5133 26.2888
" />
<path d="M37.5133 26.2888
L37.6343 26.2283
" />
<path d="M37.6343 26.2283
L37.9367 26.2283
" />
<path d="M37.9367 26.2283
L38.0576 26.2888
" />
<path d="M38.0576 26.2888
L38.1181 26.3493
" />
<path d="M38.1181 26.3493
L38.1786 26.4702
" />
<path d="M38.1786 26.4702
L38.1786 26.7726
" />
<path d="M38.1786 26.7726
L38.1181 26.8936
" />
<path d="M38.1181 26.8936
L38.0576 26.9541
" />
<path d="M38.0576 26.9541
L37.9367 27.0145
" />
<path d="M37.9367 27.0145
L37.6343 27.0145
" />
<path d="M37.6343 27.0145
L37.5133 26.9541
" />
<path d="M37.5133 26.9541
L37.4529 26.8936
" />
</g></g>
<g style="fill:#840000; fill-opacity:0.0; 
stroke:#840000; stroke-width:0.1524; stroke-opacity:1; 
stroke-linecap:round; stroke-linejoin:round;">
<path d="M21.3360 61.7220
L21.3360 65.5320
" />
</g>
<g style="fill:#006464; fill-opacity:0.0; 
stroke:#006464; stroke-width:0.1524; stroke-opacity:1; 
stroke-linecap:round; stroke-linejoin:round;">
<g transform="rotate(-90.000000 21.3360 60.7060)">
<text x="21.3360" y="61.3410"
textLength="4.0737" font-size="1.6933" lengthAdjust="spacingAndGlyphs"
text-anchor="start" opacity="0">GND</text>
</g>
<g class="stroked-text"><desc>GND</desc>
<path d="M20.7060 59.6381
L20.6455 59.7591
" />
<path d="M20.6455 59.7591
L20.6455 59.9405
" />
<path d="M20.6455 59.9405
L20.7060 60.1219
" />
<path d="M20.7060 60.1219
L20.8270 60.2429
" />
<path d="M20.8270 60.2429
L20.9479 60.3034
" />
<path d="M20.9479 60.3034
L21.1898 60.3638
" />
<path d="M21.1898 60.3638
L21.3712 60.3638
" />
<path d="M21.3712 60.3638
L21.6131 60.3034
" />
<path d="M21.6131 60.3034
L21.7341 60.2429
" />
<path d="M21.7341 60.2429
L21.8551 60.1219
" />
<path d="M21.8551 60.1219
L21.9155 59.9405
" />
<path d="M21.9155 59.9405
L21.9155 59.8196
" />
<path d="M21.9155 59.8196
L21.8551 59.6381
" />
<path d="M21.8551 59.6381
L21.7946 59.5777
" />
<path d="M21.7946 59.5777
L21.3712 59.5777
" />
<path d="M21.3712 59.5777
L21.3712 59.8196
" />
<path d="M21.9155 59.0334
L20.6455 59.0334
" />
<path d="M20.6455 59.0334
L21.9155 58.3077
" />
<path d="M21.9155 58.3077
L20.6455 58.3077
" />
<path d="M21.9155 57.7029
L20.6455 57.7029
" />
<path d="M20.6455 57.7029
L20.6455 57.4005
" />
<path d="M20.6455 57.4005
L20.7060 57.2191
" />
<path d="M20.7060 57.2191
L20.8270 57.0981
" />
<path d="M20.8270 57.0981
L20.9479 57.0376
" />
<path d="M20.9479 57.0376
L21.1898 56.9772
" />
<path d="M21.1898 56.9772
L21.3712 56.9772
" />
<path d="M21.3712 56.9772
L21.6131 57.0376
" />
<path d="M21.6131 57.0376
L21.7341 57.0981
" />
<path d="M21.7341 57.0981
L21.8551 57.2191
" />
<path d="M21.8551 57.2191
L21.9155 57.4005
" />
<path d="M21.9155 57.4005
L21.9155 57.7029
" />
</g></g>
<g style="fill:#A90000; fill-opacity:0.0; 
stroke:#A90000; stroke-width:0.1524; stroke-opacity:1; 
stroke-linecap:round; stroke-linejoin:round;">
<g transform="rotate(-90.000000 21.0820 63.6270)">
<text x="21.0820" y="63.6270"
textLength="2.6222" font-size="1.6933" lengthAdjust="spacingAndGlyphs"
text-anchor="middle" opacity="0">16</text>
</g>
<g class="stroked-text"><desc>16</desc>
<path d="M20.9185 63.8688
L20.9185 64.5945
" />
<path d="M20.9185 64.2317
L19.6485 64.2317
" />
<path d="M19.6485 64.2317
L19.8300 64.3526
" />
<path d="M19.8300 64.3526
L19.9509 64.4736
" />
<path d="M19.9509 64.4736
L20.0114 64.5945
" />
<path d="M19.6485 62.7803
L19.6485 63.0222
" />
<path d="M19.6485 63.0222
L19.7090 63.1431
" />
<path d="M19.7090 63.1431
L19.7695 63.2036
" />
<path d="M19.7695 63.2036
L19.9509 63.3246
" />
<path d="M19.9509 63.3246
L20.1928 63.3850
" />
<path d="M20.1928 63.3850
L20.6766 63.3850
" />
<path d="M20.6766 63.3850
L20.7976 63.3246
" />
<path d="M20.7976 63.3246
L20.8581 63.2641
" />
<path d="M20.8581 63.2641
L20.9185 63.1431
" />
<path d="M20.9185 63.1431
L20.9185 62.9012
" />
<path d="M20.9185 62.9012
L20.8581 62.7803
" />
<path d="M20.8581 62.7803
L20.7976 62.7198
" />
<path d="M20.7976 62.7198
L20.6766 62.6593
" />
<path d="M20.6766 62.6593
L20.3742 62.6593
" />
<path d="M20.3742 62.6593
L20.2533 62.7198
" />
<path d="M20.2533 62.7198
L20.1928 62.7803
" />
<path d="M20.1928 62.7803
L20.1323 62.9012
" />
<path d="M20.1323 62.9012
L20.1323 63.1431
" />
<path d="M20.1323 63.1431
L20.1928 63.2641
" />
<path d="M20.1928 63.2641
L20.2533 63.3246
" />
<path d="M20.2533 63.3246
L20.3742 63.3850
" />
</g></g>
<g style="fill:#840000; fill-opacity:0.0; 
stroke:#840000; stroke-width:0.1524; stroke-opacity:1; 
stroke-linecap:round; stroke-linejoin:round;">
<path d="M35.3060 45.2120
L39.1160 45.2120
" />
</g>
<g style="fill:#006464; fill-opacity:0.0; 
stroke:#006464; stroke-width:0.1524; stroke-opacity:1; 
stroke-linecap:round; stroke-linejoin:round;">
<text x="34.2900" y="45.8470"
textLength="3.6503" font-size="1.6933" lengthAdjust="spacingAndGlyphs"
text-anchor="end" opacity="0">~{CTS}</text>
<g class="stroked-text"><desc>~{CTS}</desc>
<path d="M31.7707 45.6706
L31.7103 45.7311
" />
<path d="M31.7103 45.7311
L31.5288 45.7915
" />
<path d="M31.5288 45.7915
L31.4079 45.7915
" />
<path d="M31.4079 45.7915
L31.2265 45.7311
" />
<path d="M31.2265 45.7311
L31.1055 45.6101
" />
<path d="M31.1055 45.6101
L31.0450 45.4891
" />
<path d="M31.0450 45.4891
L30.9846 45.2472
" />
<path d="M30.9846 45.2472
L30.9846 45.0658
" />
<path d="M30.9846 45.0658
L31.0450 44.8239
" />
<path d="M31.0450 44.8239
L31.1055 44.7030
" />
<path d="M31.1055 44.7030
L31.2265 44.5820
" />
<path d="M31.2265 44.5820
L31.4079 44.5215
" />
<path d="M31.4079 44.5215
L31.5288 44.5215
" />
<path d="M31.5288 44.5215
L31.7103 44.5820
" />
<path d="M31.7103 44.5820
L31.7707 44.6425
" />
<path d="M32.1336 44.5215
L32.8593 44.5215
" />
<path d="M32.4965 45.7915
L32.4965 44.5215
" />
<path d="M33.2222 45.7311
L33.4036 45.7915
" />
<path d="M33.4036 45.7915
L33.7060 45.7915
" />
<path d="M33.7060 45.7915
L33.8269 45.7311
" />
<path d="M33.8269 45.7311
L33.8874 45.6706
" />
<path d="M33.8874 45.6706
L33.9479 45.5496
" />
<path d="M33.9479 45.5496
L33.9479 45.4287
" />
<path d="M33.9479 45.4287
L33.8874 45.3077
" />
<path d="M33.8874 45.3077
L33.8269 45.2472
" />
<path d="M33.8269 45.2472
L33.7060 45.1868
" />
<path d="M33.7060 45.1868
L33.4641 45.1263
" />
<path d="M33.4641 45.1263
L33.3431 45.0658
" />
<path d="M33.3431 45.0658
L33.2826 45.0053
" />
<path d="M33.2826 45.0053
L33.2222 44.8844
" />
<path d="M33.2222 44.8844
L33.2222 44.7634
" />
<path d="M33.2222 44.7634
L33.2826 44.6425
" />
<path d="M33.2826 44.6425
L33.3431 44.5820
" />
<path d="M33.3431 44.5820
L33.4641 44.5215
" />
<path d="M33.4641 44.5215
L33.7664 44.5215
" />
<path d="M33.7664 44.5215
L33.9479 44.5820
" />
<path d="M30.8697 44.1690
L34.0628 44.1690
" />
</g></g>
<g style="fill:#A90000; fill-opacity:0.0; 
stroke:#A90000; stroke-width:0.1524; stroke-opacity:1; 
stroke-linecap:round; stroke-linejoin:round;">
<text x="37.2110" y="44.9580"
textLength="2.6222" font-size="1.6933" lengthAdjust="spacingAndGlyphs"
text-anchor="middle" opacity="0">17</text>
<g class="stroked-text"><desc>17</desc>
<path d="M36.9691 44.7945
L36.2434 44.7945
" />
<path d="M36.6062 44.7945
L36.6062 43.5245
" />
<path d="M36.6062 43.5245
L36.4853 43.7060
" />
<path d="M36.4853 43.7060
L36.3643 43.8269
" />
<path d="M36.3643 43.8269
L36.2434 43.8874
" />
<path d="M37.3924 43.5245
L38.2390 43.5245
" />
<path d="M38.2390 43.5245
L37.6948 44.7945
" />
</g></g>
<g style="fill:#840000; fill-opacity:0.0; 
stroke:#840000; stroke-width:0.1524; stroke-opacity:1; 
stroke-linecap:round; stroke-linejoin:round;">
<path d="M35.3060 42.6720
L39.1160 42.6720
" />
</g>
<g style="fill:#006464; fill-opacity:0.0; 
stroke:#006464; stroke-width:0.1524; stroke-opacity:1; 
stroke-linecap:round; stroke-linejoin:round;">
<text x="34.2900" y="43.3070"
textLength="3.9527" font-size="1.6933" lengthAdjust="spacingAndGlyphs"
text-anchor="end" opacity="0">~{DSR}</text>
<g class="stroked-text"><desc>~{DSR}</desc>
<path d="M30.7426 43.2515
L30.7426 41.9815
" />
<path d="M30.7426 41.9815
L31.0450 41.9815
" />
<path d="M31.0450 41.9815
L31.2264 42.0420
" />
<path d="M31.2264 42.0420
L31.3474 42.1630
" />
<path d="M31.3474 42.1630
L31.4079 42.2839
" />
<path d="M31.4079 42.2839
L31.4683 42.5258
" />
<path d="M31.4683 42.5258
L31.4683 42.7072
" />
<path d="M31.4683 42.7072
L31.4079 42.9491
" />
<path d="M31.4079 42.9491
L31.3474 43.0701
" />
<path d="M31.3474 43.0701
L31.2264 43.1911
" />
<path d="M31.2264 43.1911
L31.0450 43.2515
" />
<path d="M31.0450 43.2515
L30.7426 43.2515
" />
<path d="M31.9522 43.1911
L32.1336 43.2515
" />
<path d="M32.1336 43.2515
L32.4360 43.2515
" />
<path d="M32.4360 43.2515
L32.5569 43.1911
" />
<path d="M32.5569 43.1911
L32.6174 43.1306
" />
<path d="M32.6174 43.1306
L32.6779 43.0096
" />
<path d="M32.6779 43.0096
L32.6779 42.8887
" />
<path d="M32.6779 42.8887
L32.6174 42.7677
" />
<path d="M32.6174 42.7677
L32.5569 42.7072
" />
<path d="M32.5569 42.7072
L32.4360 42.6468
" />
<path d="M32.4360 42.6468
L32.1941 42.5863
" />
<path d="M32.1941 42.5863
L32.0731 42.5258
" />
<path d="M32.0731 42.5258
L32.0126 42.4653
" />
<path d="M32.0126 42.4653
L31.9522 42.3444
" />
<path d="M31.9522 42.3444
L31.9522 42.2234
" />
<path d="M31.9522 42.2234
L32.0126 42.1025
" />
<path d="M32.0126 42.1025
L32.0731 42.0420
" />
<path d="M32.0731 42.0420
L32.1941 41.9815
" />
<path d="M32.1941 41.9815
L32.4964 41.9815
" />
<path d="M32.4964 41.9815
L32.6779 42.0420
" />
<path d="M33.9478 43.2515
L33.5245 42.6468
" />
<path d="M33.2221 43.2515
L33.2221 41.9815
" />
<path d="M33.2221 41.9815
L33.7059 41.9815
" />
<path d="M33.7059 41.9815
L33.8269 42.0420
" />
<path d="M33.8269 42.0420
L33.8874 42.1025
" />
<path d="M33.8874 42.1025
L33.9478 42.2234
" />
<path d="M33.9478 42.2234
L33.9478 42.4049
" />
<path d="M33.9478 42.4049
L33.8874 42.5258
" />
<path d="M33.8874 42.5258
L33.8269 42.5863
" />
<path d="M33.8269 42.5863
L33.7059 42.6468
" />
<path d="M33.7059 42.6468
L33.2221 42.6468
" />
<path d="M30.5673 41.6290
L34.0628 41.6290
" />
</g></g>
<g style="fill:#A90000; fill-opacity:0.0; 
stroke:#A90000; stroke-width:0.1524; stroke-opacity:1; 
stroke-linecap:round; stroke-linejoin:round;">
<text x="37.2110" y="42.4180"
textLength="2.6222" font-size="1.6933" lengthAdjust="spacingAndGlyphs"
text-anchor="middle" opacity="0">18</text>
<g class="stroked-text"><desc>18</desc>
<path d="M36.9691 42.2545
L36.2434 42.2545
" />
<path d="M36.6062 42.2545
L36.6062 40.9845
" />
<path d="M36.6062 40.9845
L36.4853 41.1660
" />
<path d="M36.4853 41.1660
L36.3643 41.2869
" />
<path d="M36.3643 41.2869
L36.2434 41.3474
" />
<path d="M37.6948 41.5288
L37.5738 41.4683
" />
<path d="M37.5738 41.4683
L37.5133 41.4079
" />
<path d="M37.5133 41.4079
L37.4529 41.2869
" />
<path d="M37.4529 41.2869
L37.4529 41.2264
" />
<path d="M37.4529 41.2264
L37.5133 41.1055
" />
<path d="M37.5133 41.1055
L37.5738 41.0450
" />
<path d="M37.5738 41.0450
L37.6948 40.9845
" />
<path d="M37.6948 40.9845
L37.9367 40.9845
" />
<path d="M37.9367 40.9845
L38.0576 41.0450
" />
<path d="M38.0576 41.0450
L38.1181 41.1055
" />
<path d="M38.1181 41.1055
L38.1786 41.2264
" />
<path d="M38.1786 41.2264
L38.1786 41.2869
" />
<path d="M38.1786 41.2869
L38.1181 41.4079
" />
<path d="M38.1181 41.4079
L38.0576 41.4683
" />
<path d="M38.0576 41.4683
L37.9367 41.5288
" />
<path d="M37.9367 41.5288
L37.6948 41.5288
" />
<path d="M37.6948 41.5288
L37.5738 41.5893
" />
<path d="M37.5738 41.5893
L37.5133 41.6498
" />
<path d="M37.5133 41.6498
L37.4529 41.7707
" />
<path d="M37.4529 41.7707
L37.4529 42.0126
" />
<path d="M37.4529 42.0126
L37.5133 42.1336
" />
<path d="M37.5133 42.1336
L37.5738 42.1941
" />
<path d="M37.5738 42.1941
L37.6948 42.2545
" />
<path d="M37.6948 42.2545
L37.9367 42.2545
" />
<path d="M37.9367 42.2545
L38.0576 42.1941
" />
<path d="M38.0576 42.1941
L38.1181 42.1336
" />
<path d="M38.1181 42.1336
L38.1786 42.0126
" />
<path d="M38.1786 42.0126
L38.1786 41.7707
" />
<path d="M38.1786 41.7707
L38.1181 41.6498
" />
<path d="M38.1181 41.6498
L38.0576 41.5893
" />
<path d="M38.0576 41.5893
L37.9367 41.5288
" />
</g></g>
<g style="fill:#840000; fill-opacity:0.0; 
stroke:#840000; stroke-width:0.1524; stroke-opacity:1; 
stroke-linecap:round; stroke-linejoin:round;">
<path d="M35.3060 47.7520
L39.1160 47.7520
" />
</g>
<g style="fill:#006464; fill-opacity:0.0; 
stroke:#006464; stroke-width:0.1524; stroke-opacity:1; 
stroke-linecap:round; stroke-linejoin:round;">
<text x="34.2900" y="48.3870"
textLength="3.7108" font-size="1.6933" lengthAdjust="spacingAndGlyphs"
text-anchor="end" opacity="0">~{DTR}</text>
<g class="stroked-text"><desc>~{DTR}</desc>
<path d="M30.9845 48.3315
L30.9845 47.0615
" />
<path d="M30.9845 47.0615
L31.2869 47.0615
" />
<path d="M31.2869 47.0615
L31.4683 47.1220
" />
<path d="M31.4683 47.1220
L31.5893 47.2430
" />
<path d="M31.5893 47.2430
L31.6498 47.3639
" />
<path d="M31.6498 47.3639
L31.7102 47.6058
" />
<path d="M31.7102 47.6058
L31.7102 47.7872
" />
<path d="M31.7102 47.7872
L31.6498 48.0291
" />
<path d="M31.6498 48.0291
L31.5893 48.1501
" />
<path d="M31.5893 48.1501
L31.4683 48.2711
" />
<path d="M31.4683 48.2711
L31.2869 48.3315
" />
<path d="M31.2869 48.3315
L30.9845 48.3315
" />
<path d="M32.0731 47.0615
L32.7988 47.0615
" />
<path d="M32.4360 48.3315
L32.4360 47.0615
" />
<path d="M33.9478 48.3315
L33.5245 47.7268
" />
<path d="M33.2221 48.3315
L33.2221 47.0615
" />
<path d="M33.2221 47.0615
L33.7059 47.0615
" />
<path d="M33.7059 47.0615
L33.8269 47.1220
" />
<path d="M33.8269 47.1220
L33.8874 47.1825
" />
<path d="M33.8874 47.1825
L33.9478 47.3034
" />
<path d="M33.9478 47.3034
L33.9478 47.4849
" />
<path d="M33.9478 47.4849
L33.8874 47.6058
" />
<path d="M33.8874 47.6058
L33.8269 47.6663
" />
<path d="M33.8269 47.6663
L33.7059 47.7268
" />
<path d="M33.7059 47.7268
L33.2221 47.7268
" />
<path d="M30.8092 46.7090
L34.0628 46.7090
" />
</g></g>
<g style="fill:#A90000; fill-opacity:0.0; 
stroke:#A90000; stroke-width:0.1524; stroke-opacity:1; 
stroke-linecap:round; stroke-linejoin:round;">
<text x="37.2110" y="47.4980"
textLength="2.6222" font-size="1.6933" lengthAdjust="spacingAndGlyphs"
text-anchor="middle" opacity="0">19</text>
<g class="stroked-text"><desc>19</desc>
<path d="M36.9691 47.3345
L36.2434 47.3345
" />
<path d="M36.6062 47.3345
L36.6062 46.0645
" />
<path d="M36.6062 46.0645
L36.4853 46.2460
" />
<path d="M36.4853 46.2460
L36.3643 46.3669
" />
<path d="M36.3643 46.3669
L36.2434 46.4274
" />
<path d="M37.5738 47.3345
L37.8157 47.3345
" />
<path d="M37.8157 47.3345
L37.9367 47.2741
" />
<path d="M37.9367 47.2741
L37.9971 47.2136
" />
<path d="M37.9971 47.2136
L38.1181 47.0321
" />
<path d="M38.1181 47.0321
L38.1786 46.7902
" />
<path d="M38.1786 46.7902
L38.1786 46.3064
" />
<path d="M38.1786 46.3064
L38.1181 46.1855
" />
<path d="M38.1181 46.1855
L38.0576 46.1250
" />
<path d="M38.0576 46.1250
L37.9367 46.0645
" />
<path d="M37.9367 46.0645
L37.6948 46.0645
" />
<path d="M37.6948 46.0645
L37.5738 46.1250
" />
<path d="M37.5738 46.1250
L37.5133 46.1855
" />
<path d="M37.5133 46.1855
L37.4529 46.3064
" />
<path d="M37.4529 46.3064
L37.4529 46.6088
" />
<path d="M37.4529 46.6088
L37.5133 46.7298
" />
<path d="M37.5133 46.7298
L37.5738 46.7902
" />
<path d="M37.5738 46.7902
L37.6948 46.8507
" />
<path d="M37.6948 46.8507
L37.9367 46.8507
" />
<path d="M37.9367 46.8507
L38.0576 46.7902
" />
<path d="M38.0576 46.7902
L38.1181 46.7298
" />
<path d="M38.1181 46.7298
L38.1786 46.6088
" />
</g></g>
<g style="fill:#840000; fill-opacity:0.0; 
stroke:#840000; stroke-width:0.1524; stroke-opacity:1; 
stroke-linecap:round; stroke-linejoin:round;">
<path d="M7.3660 40.1320
L3.5560 40.1320
" />
</g>
<g style="fill:#006464; fill-opacity:0.0; 
stroke:#006464; stroke-width:0.1524; stroke-opacity:1; 
stroke-linecap:round; stroke-linejoin:round;">
<text x="8.3820" y="40.7670"
textLength="2.9246" font-size="1.6933" lengthAdjust="spacingAndGlyphs"
text-anchor="start" opacity="0">~{WR}</text>
<g class="stroked-text"><desc>~{WR}</desc>
<path d="M8.6636 39.4415
L8.9660 40.7115
" />
<path d="M8.9660 40.7115
L9.2079 39.8044
" />
<path d="M9.2079 39.8044
L9.4498 40.7115
" />
<path d="M9.4498 40.7115
L9.7522 39.4415
" />
<path d="M10.9616 40.7115
L10.5383 40.1068
" />
<path d="M10.2359 40.7115
L10.2359 39.4415
" />
<path d="M10.2359 39.4415
L10.7197 39.4415
" />
<path d="M10.7197 39.4415
L10.8407 39.5020
" />
<path d="M10.8407 39.5020
L10.9012 39.5625
" />
<path d="M10.9012 39.5625
L10.9616 39.6834
" />
<path d="M10.9616 39.6834
L10.9616 39.8649
" />
<path d="M10.9616 39.8649
L10.9012 39.9858
" />
<path d="M10.9012 39.9858
L10.8407 40.0463
" />
<path d="M10.8407 40.0463
L10.7197 40.1068
" />
<path d="M10.7197 40.1068
L10.2359 40.1068
" />
<path d="M8.6092 39.0890
L11.0766 39.0890
" />
</g></g>
<g style="fill:#A90000; fill-opacity:0.0; 
stroke:#A90000; stroke-width:0.1524; stroke-opacity:1; 
stroke-linecap:round; stroke-linejoin:round;">
<text x="5.4610" y="39.8780"
textLength="1.4127" font-size="1.6933" lengthAdjust="spacingAndGlyphs"
text-anchor="middle" opacity="0">2</text>
<g class="stroked-text"><desc>2</desc>
<path d="M5.0982 38.5655
L5.1586 38.5050
" />
<path d="M5.1586 38.5050
L5.2796 38.4445
" />
<path d="M5.2796 38.4445
L5.5820 38.4445
" />
<path d="M5.5820 38.4445
L5.7029 38.5050
" />
<path d="M5.7029 38.5050
L5.7634 38.5655
" />
<path d="M5.7634 38.5655
L5.8239 38.6864
" />
<path d="M5.8239 38.6864
L5.8239 38.8074
" />
<path d="M5.8239 38.8074
L5.7634 38.9888
" />
<path d="M5.7634 38.9888
L5.0377 39.7145
" />
<path d="M5.0377 39.7145
L5.8239 39.7145
" />
</g></g>
<g style="fill:#840000; fill-opacity:0.0; 
stroke:#840000; stroke-width:0.1524; stroke-opacity:1; 
stroke-linecap:round; stroke-linejoin:round;">
<path d="M35.3060 50.2920
L39.1160 50.2920
" />
</g>
<g style="fill:#006464; fill-opacity:0.0; 
stroke:#006464; stroke-width:0.1524; stroke-opacity:1; 
stroke-linecap:round; stroke-linejoin:round;">
<text x="34.2900" y="50.9270"
textLength="3.6503" font-size="1.6933" lengthAdjust="spacingAndGlyphs"
text-anchor="end" opacity="0">~{RTS}</text>
<g class="stroked-text"><desc>~{RTS}</desc>
<path d="M31.7707 50.8715
L31.3474 50.2668
" />
<path d="M31.0450 50.8715
L31.0450 49.6015
" />
<path d="M31.0450 49.6015
L31.5288 49.6015
" />
<path d="M31.5288 49.6015
L31.6498 49.6620
" />
<path d="M31.6498 49.6620
L31.7103 49.7225
" />
<path d="M31.7103 49.7225
L31.7707 49.8434
" />
<path d="M31.7707 49.8434
L31.7707 50.0249
" />
<path d="M31.7707 50.0249
L31.7103 50.1458
" />
<path d="M31.7103 50.1458
L31.6498 50.2063
" />
<path d="M31.6498 50.2063
L31.5288 50.2668
" />
<path d="M31.5288 50.2668
L31.0450 50.2668
" />
<path d="M32.1336 49.6015
L32.8593 49.6015
" />
<path d="M32.4965 50.8715
L32.4965 49.6015
" />
<path d="M33.2222 50.8111
L33.4036 50.8715
" />
<path d="M33.4036 50.8715
L33.7060 50.8715
" />
<path d="M33.7060 50.8715
L33.8269 50.8111
" />
<path d="M33.8269 50.8111
L33.8874 50.7506
" />
<path d="M33.8874 50.7506
L33.9479 50.6296
" />
<path d="M33.9479 50.6296
L33.9479 50.5087
" />
<path d="M33.9479 50.5087
L33.8874 50.3877
" />
<path d="M33.8874 50.3877
L33.8269 50.3272
" />
<path d="M33.8269 50.3272
L33.7060 50.2668
" />
<path d="M33.7060 50.2668
L33.4641 50.2063
" />
<path d="M33.4641 50.2063
L33.3431 50.1458
" />
<path d="M33.3431 50.1458
L33.2826 50.0853
" />
<path d="M33.2826 50.0853
L33.2222 49.9644
" />
<path d="M33.2222 49.9644
L33.2222 49.8434
" />
<path d="M33.2222 49.8434
L33.2826 49.7225
" />
<path d="M33.2826 49.7225
L33.3431 49.6620
" />
<path d="M33.3431 49.6620
L33.4641 49.6015
" />
<path d="M33.4641 49.6015
L33.7664 49.6015
" />
<path d="M33.7664 49.6015
L33.9479 49.6620
" />
<path d="M30.8697 49.2490
L34.0628 49.2490
" />
</g></g>
<g style="fill:#A90000; fill-opacity:0.0; 
stroke:#A90000; stroke-width:0.1524; stroke-opacity:1; 
stroke-linecap:round; stroke-linejoin:round;">
<text x="37.2110" y="50.0380"
textLength="2.6222" font-size="1.6933" lengthAdjust="spacingAndGlyphs"
text-anchor="middle" opacity="0">20</text>
<g class="stroked-text"><desc>20</desc>
<path d="M36.2434 48.7255
L36.3038 48.6650
" />
<path d="M36.3038 48.6650
L36.4248 48.6045
" />
<path d="M36.4248 48.6045
L36.7272 48.6045
" />
<path d="M36.7272 48.6045
L36.8481 48.6650
" />
<path d="M36.8481 48.6650
L36.9086 48.7255
" />
<path d="M36.9086 48.7255
L36.9691 48.8464
" />
<path d="M36.9691 48.8464
L36.9691 48.9674
" />
<path d="M36.9691 48.9674
L36.9086 49.1488
" />
<path d="M36.9086 49.1488
L36.1829 49.8745
" />
<path d="M36.1829 49.8745
L36.9691 49.8745
" />
<path d="M37.7552 48.6045
L37.8762 48.6045
" />
<path d="M37.8762 48.6045
L37.9971 48.6650
" />
<path d="M37.9971 48.6650
L38.0576 48.7255
" />
<path d="M38.0576 48.7255
L38.1181 48.8464
" />
<path d="M38.1181 48.8464
L38.1786 49.0883
" />
<path d="M38.1786 49.0883
L38.1786 49.3907
" />
<path d="M38.1786 49.3907
L38.1181 49.6326
" />
<path d="M38.1181 49.6326
L38.0576 49.7536
" />
<path d="M38.0576 49.7536
L37.9971 49.8141
" />
<path d="M37.9971 49.8141
L37.8762 49.8745
" />
<path d="M37.8762 49.8745
L37.7552 49.8745
" />
<path d="M37.7552 49.8745
L37.6343 49.8141
" />
<path d="M37.6343 49.8141
L37.5738 49.7536
" />
<path d="M37.5738 49.7536
L37.5133 49.6326
" />
<path d="M37.5133 49.6326
L37.4529 49.3907
" />
<path d="M37.4529 49.3907
L37.4529 49.0883
" />
<path d="M37.4529 49.0883
L37.5133 48.8464
" />
<path d="M37.5133 48.8464
L37.5738 48.7255
" />
<path d="M37.5738 48.7255
L37.6343 48.6650
" />
<path d="M37.6343 48.6650
L37.7552 48.6045
" />
</g></g>
<g style="fill:#840000; fill-opacity:0.0; 
stroke:#840000; stroke-width:0.1524; stroke-opacity:1; 
stroke-linecap:round; stroke-linejoin:round;">
<path d="M35.3060 55.3720
L39.1160 55.3720
" />
</g>
<g style="fill:#006464; fill-opacity:0.0; 
stroke:#006464; stroke-width:0.1524; stroke-opacity:1; 
stroke-linecap:round; stroke-linejoin:round;">
<text x="34.2900" y="56.0070"
textLength="2.8037" font-size="1.6933" lengthAdjust="spacingAndGlyphs"
text-anchor="end" opacity="0">CO</text>
<g class="stroked-text"><desc>CO</desc>
<path d="M32.6173 55.8306
L32.5569 55.8911
" />
<path d="M32.5569 55.8911
L32.3754 55.9515
" />
<path d="M32.3754 55.9515
L32.2545 55.9515
" />
<path d="M32.2545 55.9515
L32.0731 55.8911
" />
<path d="M32.0731 55.8911
L31.9521 55.7701
" />
<path d="M31.9521 55.7701
L31.8916 55.6491
" />
<path d="M31.8916 55.6491
L31.8312 55.4072
" />
<path d="M31.8312 55.4072
L31.8312 55.2258
" />
<path d="M31.8312 55.2258
L31.8916 54.9839
" />
<path d="M31.8916 54.9839
L31.9521 54.8630
" />
<path d="M31.9521 54.8630
L32.0731 54.7420
" />
<path d="M32.0731 54.7420
L32.2545 54.6815
" />
<path d="M32.2545 54.6815
L32.3754 54.6815
" />
<path d="M32.3754 54.6815
L32.5569 54.7420
" />
<path d="M32.5569 54.7420
L32.6173 54.8025
" />
<path d="M33.4035 54.6815
L33.6454 54.6815
" />
<path d="M33.6454 54.6815
L33.7664 54.7420
" />
<path d="M33.7664 54.7420
L33.8873 54.8630
" />
<path d="M33.8873 54.8630
L33.9478 55.1049
" />
<path d="M33.9478 55.1049
L33.9478 55.5282
" />
<path d="M33.9478 55.5282
L33.8873 55.7701
" />
<path d="M33.8873 55.7701
L33.7664 55.8911
" />
<path d="M33.7664 55.8911
L33.6454 55.9515
" />
<path d="M33.6454 55.9515
L33.4035 55.9515
" />
<path d="M33.4035 55.9515
L33.2826 55.8911
" />
<path d="M33.2826 55.8911
L33.1616 55.7701
" />
<path d="M33.1616 55.7701
L33.1012 55.5282
" />
<path d="M33.1012 55.5282
L33.1012 55.1049
" />
<path d="M33.1012 55.1049
L33.1616 54.8630
" />
<path d="M33.1616 54.8630
L33.2826 54.7420
" />
<path d="M33.2826 54.7420
L33.4035 54.6815
" />
</g></g>
<g style="fill:#A90000; fill-opacity:0.0; 
stroke:#A90000; stroke-width:0.1524; stroke-opacity:1; 
stroke-linecap:round; stroke-linejoin:round;">
<text x="37.2110" y="55.1180"
textLength="2.6222" font-size="1.6933" lengthAdjust="spacingAndGlyphs"
text-anchor="middle" opacity="0">21</text>
<g class="stroked-text"><desc>21</desc>
<path d="M36.2434 53.8055
L36.3038 53.7450
" />
<path d="M36.3038 53.7450
L36.4248 53.6845
" />
<path d="M36.4248 53.6845
L36.7272 53.6845
" />
<path d="M36.7272 53.6845
L36.8481 53.7450
" />
<path d="M36.8481 53.7450
L36.9086 53.8055
" />
<path d="M36.9086 53.8055
L36.9691 53.9264
" />
<path d="M36.9691 53.9264
L36.9691 54.0474
" />
<path d="M36.9691 54.0474
L36.9086 54.2288
" />
<path d="M36.9086 54.2288
L36.1829 54.9545
" />
<path d="M36.1829 54.9545
L36.9691 54.9545
" />
<path d="M38.1786 54.9545
L37.4529 54.9545
" />
<path d="M37.8157 54.9545
L37.8157 53.6845
" />
<path d="M37.8157 53.6845
L37.6948 53.8660
" />
<path d="M37.6948 53.8660
L37.5738 53.9869
" />
<path d="M37.5738 53.9869
L37.4529 54.0474
" />
</g></g>
<g style="fill:#840000; fill-opacity:0.0; 
stroke:#840000; stroke-width:0.1524; stroke-opacity:1; 
stroke-linecap:round; stroke-linejoin:round;">
<path d="M35.3060 17.2720
L39.1160 17.2720
" />
</g>
<g style="fill:#006464; fill-opacity:0.0; 
stroke:#006464; stroke-width:0.1524; stroke-opacity:1; 
stroke-linecap:round; stroke-linejoin:round;">
<text x="34.2900" y="17.9070"
textLength="4.8598" font-size="1.6933" lengthAdjust="spacingAndGlyphs"
text-anchor="end" opacity="0">TBRE</text>
<g class="stroked-text"><desc>TBRE</desc>
<path d="M29.6541 16.5815
L30.3798 16.5815
" />
<path d="M30.0170 17.8515
L30.0170 16.5815
" />
<path d="M31.2265 17.1863
L31.4079 17.2468
" />
<path d="M31.4079 17.2468
L31.4684 17.3072
" />
<path d="M31.4684 17.3072
L31.5288 17.4282
" />
<path d="M31.5288 17.4282
L31.5288 17.6096
" />
<path d="M31.5288 17.6096
L31.4684 17.7306
" />
<path d="M31.4684 17.7306
L31.4079 17.7911
" />
<path d="M31.4079 17.7911
L31.2869 17.8515
" />
<path d="M31.2869 17.8515
L30.8031 17.8515
" />
<path d="M30.8031 17.8515
L30.8031 16.5815
" />
<path d="M30.8031 16.5815
L31.2265 16.5815
" />
<path d="M31.2265 16.5815
L31.3474 16.6420
" />
<path d="M31.3474 16.6420
L31.4079 16.7025
" />
<path d="M31.4079 16.7025
L31.4684 16.8234
" />
<path d="M31.4684 16.8234
L31.4684 16.9444
" />
<path d="M31.4684 16.9444
L31.4079 17.0653
" />
<path d="M31.4079 17.0653
L31.3474 17.1258
" />
<path d="M31.3474 17.1258
L31.2265 17.1863
" />
<path d="M31.2265 17.1863
L30.8031 17.1863
" />
<path d="M32.7988 17.8515
L32.3755 17.2468
" />
<path d="M32.0731 17.8515
L32.0731 16.5815
" />
<path d="M32.0731 16.5815
L32.5569 16.5815
" />
<path d="M32.5569 16.5815
L32.6779 16.6420
" />
<path d="M32.6779 16.6420
L32.7384 16.7025
" />
<path d="M32.7384 16.7025
L32.7988 16.8234
" />
<path d="M32.7988 16.8234
L32.7988 17.0049
" />
<path d="M32.7988 17.0049
L32.7384 17.1258
" />
<path d="M32.7384 17.1258
L32.6779 17.1863
" />
<path d="M32.6779 17.1863
L32.5569 17.2468
" />
<path d="M32.5569 17.2468
L32.0731 17.2468
" />
<path d="M33.3431 17.1863
L33.7665 17.1863
" />
<path d="M33.9479 17.8515
L33.3431 17.8515
" />
<path d="M33.3431 17.8515
L33.3431 16.5815
" />
<path d="M33.3431 16.5815
L33.9479 16.5815
" />
</g></g>
<g style="fill:#A90000; fill-opacity:0.0; 
stroke:#A90000; stroke-width:0.1524; stroke-opacity:1; 
stroke-linecap:round; stroke-linejoin:round;">
<text x="37.2110" y="17.0180"
textLength="2.6222" font-size="1.6933" lengthAdjust="spacingAndGlyphs"
text-anchor="middle" opacity="0">22</text>
<g class="stroked-text"><desc>22</desc>
<path d="M36.2434 15.7055
L36.3038 15.6450
" />
<path d="M36.3038 15.6450
L36.4248 15.5845
" />
<path d="M36.4248 15.5845
L36.7272 15.5845
" />
<path d="M36.7272 15.5845
L36.8481 15.6450
" />
<path d="M36.8481 15.6450
L36.9086 15.7055
" />
<path d="M36.9086 15.7055
L36.9691 15.8264
" />
<path d="M36.9691 15.8264
L36.9691 15.9474
" />
<path d="M36.9691 15.9474
L36.9086 16.1288
" />
<path d="M36.9086 16.1288
L36.1829 16.8545
" />
<path d="M36.1829 16.8545
L36.9691 16.8545
" />
<path d="M37.4529 15.7055
L37.5133 15.6450
" />
<path d="M37.5133 15.6450
L37.6343 15.5845
" />
<path d="M37.6343 15.5845
L37.9367 15.5845
" />
<path d="M37.9367 15.5845
L38.0576 15.6450
" />
<path d="M38.0576 15.6450
L38.1181 15.7055
" />
<path d="M38.1181 15.7055
L38.1786 15.8264
" />
<path d="M38.1786 15.8264
L38.1786 15.9474
" />
<path d="M38.1786 15.9474
L38.1181 16.1288
" />
<path d="M38.1181 16.1288
L37.3924 16.8545
" />
<path d="M37.3924 16.8545
L38.1786 16.8545
" />
</g></g>
<g style="fill:#840000; fill-opacity:0.0; 
stroke:#840000; stroke-width:0.1524; stroke-opacity:1; 
stroke-linecap:round; stroke-linejoin:round;">
<path d="M7.3660 50.2920
L3.5560 50.2920
" />
</g>
<g style="fill:#006464; fill-opacity:0.0; 
stroke:#006464; stroke-width:0.1524; stroke-opacity:1; 
stroke-linecap:round; stroke-linejoin:round;">
<text x="8.3820" y="50.9270"
textLength="3.6503" font-size="1.6933" lengthAdjust="spacingAndGlyphs"
text-anchor="start" opacity="0">RST</text>
<g class="stroked-text"><desc>RST</desc>
<path d="M9.5102 50.8715
L9.0869 50.2668
" />
<path d="M8.7845 50.8715
L8.7845 49.6015
" />
<path d="M8.7845 49.6015
L9.2683 49.6015
" />
<path d="M9.2683 49.6015
L9.3893 49.6620
" />
<path d="M9.3893 49.6620
L9.4498 49.7225
" />
<path d="M9.4498 49.7225
L9.5102 49.8434
" />
<path d="M9.5102 49.8434
L9.5102 50.0249
" />
<path d="M9.5102 50.0249
L9.4498 50.1458
" />
<path d="M9.4498 50.1458
L9.3893 50.2063
" />
<path d="M9.3893 50.2063
L9.2683 50.2668
" />
<path d="M9.2683 50.2668
L8.7845 50.2668
" />
<path d="M9.9941 50.8111
L10.1755 50.8715
" />
<path d="M10.1755 50.8715
L10.4779 50.8715
" />
<path d="M10.4779 50.8715
L10.5988 50.8111
" />
<path d="M10.5988 50.8111
L10.6593 50.7506
" />
<path d="M10.6593 50.7506
L10.7198 50.6296
" />
<path d="M10.7198 50.6296
L10.7198 50.5087
" />
<path d="M10.7198 50.5087
L10.6593 50.3877
" />
<path d="M10.6593 50.3877
L10.5988 50.3272
" />
<path d="M10.5988 50.3272
L10.4779 50.2668
" />
<path d="M10.4779 50.2668
L10.2360 50.2063
" />
<path d="M10.2360 50.2063
L10.1150 50.1458
" />
<path d="M10.1150 50.1458
L10.0545 50.0853
" />
<path d="M10.0545 50.0853
L9.9941 49.9644
" />
<path d="M9.9941 49.9644
L9.9941 49.8434
" />
<path d="M9.9941 49.8434
L10.0545 49.7225
" />
<path d="M10.0545 49.7225
L10.1150 49.6620
" />
<path d="M10.1150 49.6620
L10.2360 49.6015
" />
<path d="M10.2360 49.6015
L10.5383 49.6015
" />
<path d="M10.5383 49.6015
L10.7198 49.6620
" />
<path d="M11.0826 49.6015
L11.8083 49.6015
" />
<path d="M11.4455 50.8715
L11.4455 49.6015
" />
</g></g>
<g style="fill:#A90000; fill-opacity:0.0; 
stroke:#A90000; stroke-width:0.1524; stroke-opacity:1; 
stroke-linecap:round; stroke-linejoin:round;">
<text x="5.4610" y="50.0380"
textLength="2.6222" font-size="1.6933" lengthAdjust="spacingAndGlyphs"
text-anchor="middle" opacity="0">23</text>
<g class="stroked-text"><desc>23</desc>
<path d="M4.4934 48.7255
L4.5538 48.6650
" />
<path d="M4.5538 48.6650
L4.6748 48.6045
" />
<path d="M4.6748 48.6045
L4.9772 48.6045
" />
<path d="M4.9772 48.6045
L5.0981 48.6650
" />
<path d="M5.0981 48.6650
L5.1586 48.7255
" />
<path d="M5.1586 48.7255
L5.2191 48.8464
" />
<path d="M5.2191 48.8464
L5.2191 48.9674
" />
<path d="M5.2191 48.9674
L5.1586 49.1488
" />
<path d="M5.1586 49.1488
L4.4329 49.8745
" />
<path d="M4.4329 49.8745
L5.2191 49.8745
" />
<path d="M5.6424 48.6045
L6.4286 48.6045
" />
<path d="M6.4286 48.6045
L6.0052 49.0883
" />
<path d="M6.0052 49.0883
L6.1867 49.0883
" />
<path d="M6.1867 49.0883
L6.3076 49.1488
" />
<path d="M6.3076 49.1488
L6.3681 49.2093
" />
<path d="M6.3681 49.2093
L6.4286 49.3302
" />
<path d="M6.4286 49.3302
L6.4286 49.6326
" />
<path d="M6.4286 49.6326
L6.3681 49.7536
" />
<path d="M6.3681 49.7536
L6.3076 49.8141
" />
<path d="M6.3076 49.8141
L6.1867 49.8745
" />
<path d="M6.1867 49.8745
L5.8238 49.8745
" />
<path d="M5.8238 49.8745
L5.7029 49.8141
" />
<path d="M5.7029 49.8141
L5.6424 49.7536
" />
</g></g>
<g style="fill:#840000; fill-opacity:0.0; 
stroke:#840000; stroke-width:0.1524; stroke-opacity:1; 
stroke-linecap:round; stroke-linejoin:round;">
<path d="M7.3660 52.8320
L3.5560 52.8320
" />
</g>
<g style="fill:#006464; fill-opacity:0.0; 
stroke:#006464; stroke-width:0.1524; stroke-opacity:1; 
stroke-linecap:round; stroke-linejoin:round;">
<text x="8.3820" y="53.4670"
textLength="4.3761" font-size="1.6933" lengthAdjust="spacingAndGlyphs"
text-anchor="start" opacity="0">INTR</text>
<g class="stroked-text"><desc>INTR</desc>
<path d="M8.7845 53.4115
L8.7845 52.1415
" />
<path d="M9.3893 53.4115
L9.3893 52.1415
" />
<path d="M9.3893 52.1415
L10.1150 53.4115
" />
<path d="M10.1150 53.4115
L10.1150 52.1415
" />
<path d="M10.5384 52.1415
L11.2641 52.1415
" />
<path d="M10.9013 53.4115
L10.9013 52.1415
" />
<path d="M12.4131 53.4115
L11.9898 52.8068
" />
<path d="M11.6874 53.4115
L11.6874 52.1415
" />
<path d="M11.6874 52.1415
L12.1712 52.1415
" />
<path d="M12.1712 52.1415
L12.2922 52.2020
" />
<path d="M12.2922 52.2020
L12.3527 52.2625
" />
<path d="M12.3527 52.2625
L12.4131 52.3834
" />
<path d="M12.4131 52.3834
L12.4131 52.5649
" />
<path d="M12.4131 52.5649
L12.3527 52.6858
" />
<path d="M12.3527 52.6858
L12.2922 52.7463
" />
<path d="M12.2922 52.7463
L12.1712 52.8068
" />
<path d="M12.1712 52.8068
L11.6874 52.8068
" />
</g></g>
<g style="fill:#A90000; fill-opacity:0.0; 
stroke:#A90000; stroke-width:0.1524; stroke-opacity:1; 
stroke-linecap:round; stroke-linejoin:round;">
<text x="5.4610" y="52.5780"
textLength="2.6222" font-size="1.6933" lengthAdjust="spacingAndGlyphs"
text-anchor="middle" opacity="0">24</text>
<g class="stroked-text"><desc>24</desc>
<path d="M4.4934 51.2655
L4.5538 51.2050
" />
<path d="M4.5538 51.2050
L4.6748 51.1445
" />
<path d="M4.6748 51.1445
L4.9772 51.1445
" />
<path d="M4.9772 51.1445
L5.0981 51.2050
" />
<path d="M5.0981 51.2050
L5.1586 51.2655
" />
<path d="M5.1586 51.2655
L5.2191 51.3864
" />
<path d="M5.2191 51.3864
L5.2191 51.5074
" />
<path d="M5.2191 51.5074
L5.1586 51.6888
" />
<path d="M5.1586 51.6888
L4.4329 52.4145
" />
<path d="M4.4329 52.4145
L5.2191 52.4145
" />
<path d="M6.3076 51.5679
L6.3076 52.4145
" />
<path d="M6.0052 51.0841
L5.7029 51.9912
" />
<path d="M5.7029 51.9912
L6.4890 51.9912
" />
</g></g>
<g style="fill:#840000; fill-opacity:0.0; 
stroke:#840000; stroke-width:0.1524; stroke-opacity:1; 
stroke-linecap:round; stroke-linejoin:round;">
<path d="M35.3060 32.5120
L39.1160 32.5120
" />
</g>
<g style="fill:#006464; fill-opacity:0.0; 
stroke:#006464; stroke-width:0.1524; stroke-opacity:1; 
stroke-linecap:round; stroke-linejoin:round;">
<text x="34.2900" y="33.1470"
textLength="8.7304" font-size="1.6933" lengthAdjust="spacingAndGlyphs"
text-anchor="end" opacity="0">(RXD)SDI</text>
<g class="stroked-text"><desc>(RXD)SDI</desc>
<path d="M26.3278 33.5753
L26.2673 33.5149
" />
<path d="M26.2673 33.5149
L26.1464 33.3334
" />
<path d="M26.1464 33.3334
L26.0859 33.2125
" />
<path d="M26.0859 33.2125
L26.0254 33.0311
" />
<path d="M26.0254 33.0311
L25.9649 32.7287
" />
<path d="M25.9649 32.7287
L25.9649 32.4868
" />
<path d="M25.9649 32.4868
L26.0254 32.1844
" />
<path d="M26.0254 32.1844
L26.0859 32.0030
" />
<path d="M26.0859 32.0030
L26.1464 31.8820
" />
<path d="M26.1464 31.8820
L26.2673 31.7006
" />
<path d="M26.2673 31.7006
L26.3278 31.6401
" />
<path d="M27.5373 33.0915
L27.1140 32.4868
" />
<path d="M26.8116 33.0915
L26.8116 31.8215
" />
<path d="M26.8116 31.8215
L27.2954 31.8215
" />
<path d="M27.2954 31.8215
L27.4164 31.8820
" />
<path d="M27.4164 31.8820
L27.4769 31.9425
" />
<path d="M27.4769 31.9425
L27.5373 32.0634
" />
<path d="M27.5373 32.0634
L27.5373 32.2449
" />
<path d="M27.5373 32.2449
L27.4769 32.3658
" />
<path d="M27.4769 32.3658
L27.4164 32.4263
" />
<path d="M27.4164 32.4263
L27.2954 32.4868
" />
<path d="M27.2954 32.4868
L26.8116 32.4868
" />
<path d="M27.9607 31.8215
L28.8073 33.0915
" />
<path d="M28.8073 31.8215
L27.9607 33.0915
" />
<path d="M29.2911 33.0915
L29.2911 31.8215
" />
<path d="M29.2911 31.8215
L29.5935 31.8215
" />
<path d="M29.5935 31.8215
L29.7749 31.8820
" />
<path d="M29.7749 31.8820
L29.8959 32.0030
" />
<path d="M29.8959 32.0030
L29.9564 32.1239
" />
<path d="M29.9564 32.1239
L30.0168 32.3658
" />
<path d="M30.0168 32.3658
L30.0168 32.5472
" />
<path d="M30.0168 32.5472
L29.9564 32.7891
" />
<path d="M29.9564 32.7891
L29.8959 32.9101
" />
<path d="M29.8959 32.9101
L29.7749 33.0311
" />
<path d="M29.7749 33.0311
L29.5935 33.0915
" />
<path d="M29.5935 33.0915
L29.2911 33.0915
" />
<path d="M30.4402 33.5753
L30.5007 33.5149
" />
<path d="M30.5007 33.5149
L30.6216 33.3334
" />
<path d="M30.6216 33.3334
L30.6821 33.2125
" />
<path d="M30.6821 33.2125
L30.7426 33.0311
" />
<path d="M30.7426 33.0311
L30.8030 32.7287
" />
<path d="M30.8030 32.7287
L30.8030 32.4868
" />
<path d="M30.8030 32.4868
L30.7426 32.1844
" />
<path d="M30.7426 32.1844
L30.6821 32.0030
" />
<path d="M30.6821 32.0030
L30.6216 31.8820
" />
<path d="M30.6216 31.8820
L30.5007 31.7006
" />
<path d="M30.5007 31.7006
L30.4402 31.6401
" />
<path d="M31.3474 33.0311
L31.5288 33.0915
" />
<path d="M31.5288 33.0915
L31.8312 33.0915
" />
<path d="M31.8312 33.0915
L31.9521 33.0311
" />
<path d="M31.9521 33.0311
L32.0126 32.9706
" />
<path d="M32.0126 32.9706
L32.0731 32.8496
" />
<path d="M32.0731 32.8496
L32.0731 32.7287
" />
<path d="M32.0731 32.7287
L32.0126 32.6077
" />
<path d="M32.0126 32.6077
L31.9521 32.5472
" />
<path d="M31.9521 32.5472
L31.8312 32.4868
" />
<path d="M31.8312 32.4868
L31.5893 32.4263
" />
<path d="M31.5893 32.4263
L31.4683 32.3658
" />
<path d="M31.4683 32.3658
L31.4078 32.3053
" />
<path d="M31.4078 32.3053
L31.3474 32.1844
" />
<path d="M31.3474 32.1844
L31.3474 32.0634
" />
<path d="M31.3474 32.0634
L31.4078 31.9425
" />
<path d="M31.4078 31.9425
L31.4683 31.8820
" />
<path d="M31.4683 31.8820
L31.5893 31.8215
" />
<path d="M31.5893 31.8215
L31.8916 31.8215
" />
<path d="M31.8916 31.8215
L32.0731 31.8820
" />
<path d="M32.6173 33.0915
L32.6173 31.8215
" />
<path d="M32.6173 31.8215
L32.9197 31.8215
" />
<path d="M32.9197 31.8215
L33.1011 31.8820
" />
<path d="M33.1011 31.8820
L33.2221 32.0030
" />
<path d="M33.2221 32.0030
L33.2826 32.1239
" />
<path d="M33.2826 32.1239
L33.3430 32.3658
" />
<path d="M33.3430 32.3658
L33.3430 32.5472
" />
<path d="M33.3430 32.5472
L33.2826 32.7891
" />
<path d="M33.2826 32.7891
L33.2221 32.9101
" />
<path d="M33.2221 32.9101
L33.1011 33.0311
" />
<path d="M33.1011 33.0311
L32.9197 33.0915
" />
<path d="M32.9197 33.0915
L32.6173 33.0915
" />
<path d="M33.8873 33.0915
L33.8873 31.8215
" />
</g></g>
<g style="fill:#A90000; fill-opacity:0.0; 
stroke:#A90000; stroke-width:0.1524; stroke-opacity:1; 
stroke-linecap:round; stroke-linejoin:round;">
<text x="37.2110" y="32.2580"
textLength="2.6222" font-size="1.6933" lengthAdjust="spacingAndGlyphs"
text-anchor="middle" opacity="0">25</text>
<g class="stroked-text"><desc>25</desc>
<path d="M36.2434 30.9455
L36.3038 30.8850
" />
<path d="M36.3038 30.8850
L36.4248 30.8245
" />
<path d="M36.4248 30.8245
L36.7272 30.8245
" />
<path d="M36.7272 30.8245
L36.8481 30.8850
" />
<path d="M36.8481 30.8850
L36.9086 30.9455
" />
<path d="M36.9086 30.9455
L36.9691 31.0664
" />
<path d="M36.9691 31.0664
L36.9691 31.1874
" />
<path d="M36.9691 31.1874
L36.9086 31.3688
" />
<path d="M36.9086 31.3688
L36.1829 32.0945
" />
<path d="M36.1829 32.0945
L36.9691 32.0945
" />
<path d="M38.1181 30.8245
L37.5133 30.8245
" />
<path d="M37.5133 30.8245
L37.4529 31.4293
" />
<path d="M37.4529 31.4293
L37.5133 31.3688
" />
<path d="M37.5133 31.3688
L37.6343 31.3083
" />
<path d="M37.6343 31.3083
L37.9367 31.3083
" />
<path d="M37.9367 31.3083
L38.0576 31.3688
" />
<path d="M38.0576 31.3688
L38.1181 31.4293
" />
<path d="M38.1181 31.4293
L38.1786 31.5502
" />
<path d="M38.1786 31.5502
L38.1786 31.8526
" />
<path d="M38.1786 31.8526
L38.1181 31.9736
" />
<path d="M38.1181 31.9736
L38.0576 32.0341
" />
<path d="M38.0576 32.0341
L37.9367 32.0945
" />
<path d="M37.9367 32.0945
L37.6343 32.0945
" />
<path d="M37.6343 32.0945
L37.5133 32.0341
" />
<path d="M37.5133 32.0341
L37.4529 31.9736
" />
</g></g>
<g style="fill:#840000; fill-opacity:0.0; 
stroke:#840000; stroke-width:0.1524; stroke-opacity:1; 
stroke-linecap:round; stroke-linejoin:round;">
<path d="M35.3060 19.8120
L39.1160 19.8120
" />
</g>
<g style="fill:#006464; fill-opacity:0.0; 
stroke:#006464; stroke-width:0.1524; stroke-opacity:1; 
stroke-linecap:round; stroke-linejoin:round;">
<text x="34.2900" y="20.4470"
textLength="2.7432" font-size="1.6933" lengthAdjust="spacingAndGlyphs"
text-anchor="end" opacity="0">DR</text>
<g class="stroked-text"><desc>DR</desc>
<path d="M31.9521 20.3915
L31.9521 19.1215
" />
<path d="M31.9521 19.1215
L32.2545 19.1215
" />
<path d="M32.2545 19.1215
L32.4359 19.1820
" />
<path d="M32.4359 19.1820
L32.5569 19.3030
" />
<path d="M32.5569 19.3030
L32.6174 19.4239
" />
<path d="M32.6174 19.4239
L32.6778 19.6658
" />
<path d="M32.6778 19.6658
L32.6778 19.8472
" />
<path d="M32.6778 19.8472
L32.6174 20.0891
" />
<path d="M32.6174 20.0891
L32.5569 20.2101
" />
<path d="M32.5569 20.2101
L32.4359 20.3311
" />
<path d="M32.4359 20.3311
L32.2545 20.3915
" />
<path d="M32.2545 20.3915
L31.9521 20.3915
" />
<path d="M33.9478 20.3915
L33.5245 19.7868
" />
<path d="M33.2221 20.3915
L33.2221 19.1215
" />
<path d="M33.2221 19.1215
L33.7059 19.1215
" />
<path d="M33.7059 19.1215
L33.8269 19.1820
" />
<path d="M33.8269 19.1820
L33.8874 19.2425
" />
<path d="M33.8874 19.2425
L33.9478 19.3634
" />
<path d="M33.9478 19.3634
L33.9478 19.5449
" />
<path d="M33.9478 19.5449
L33.8874 19.6658
" />
<path d="M33.8874 19.6658
L33.8269 19.7263
" />
<path d="M33.8269 19.7263
L33.7059 19.7868
" />
<path d="M33.7059 19.7868
L33.2221 19.7868
" />
</g></g>
<g style="fill:#A90000; fill-opacity:0.0; 
stroke:#A90000; stroke-width:0.1524; stroke-opacity:1; 
stroke-linecap:round; stroke-linejoin:round;">
<text x="37.2110" y="19.5580"
textLength="2.6222" font-size="1.6933" lengthAdjust="spacingAndGlyphs"
text-anchor="middle" opacity="0">26</text>
<g class="stroked-text"><desc>26</desc>
<path d="M36.2434 18.2455
L36.3038 18.1850
" />
<path d="M36.3038 18.1850
L36.4248 18.1245
" />
<path d="M36.4248 18.1245
L36.7272 18.1245
" />
<path d="M36.7272 18.1245
L36.8481 18.1850
" />
<path d="M36.8481 18.1850
L36.9086 18.2455
" />
<path d="M36.9086 18.2455
L36.9691 18.3664
" />
<path d="M36.9691 18.3664
L36.9691 18.4874
" />
<path d="M36.9691 18.4874
L36.9086 18.6688
" />
<path d="M36.9086 18.6688
L36.1829 19.3945
" />
<path d="M36.1829 19.3945
L36.9691 19.3945
" />
<path d="M38.0576 18.1245
L37.8157 18.1245
" />
<path d="M37.8157 18.1245
L37.6948 18.1850
" />
<path d="M37.6948 18.1850
L37.6343 18.2455
" />
<path d="M37.6343 18.2455
L37.5133 18.4269
" />
<path d="M37.5133 18.4269
L37.4529 18.6688
" />
<path d="M37.4529 18.6688
L37.4529 19.1526
" />
<path d="M37.4529 19.1526
L37.5133 19.2736
" />
<path d="M37.5133 19.2736
L37.5738 19.3341
" />
<path d="M37.5738 19.3341
L37.6948 19.3945
" />
<path d="M37.6948 19.3945
L37.9367 19.3945
" />
<path d="M37.9367 19.3945
L38.0576 19.3341
" />
<path d="M38.0576 19.3341
L38.1181 19.2736
" />
<path d="M38.1181 19.2736
L38.1786 19.1526
" />
<path d="M38.1786 19.1526
L38.1786 18.8502
" />
<path d="M38.1786 18.8502
L38.1181 18.7293
" />
<path d="M38.1181 18.7293
L38.0576 18.6688
" />
<path d="M38.0576 18.6688
L37.9367 18.6083
" />
<path d="M37.9367 18.6083
L37.6948 18.6083
" />
<path d="M37.6948 18.6083
L37.5738 18.6688
" />
<path d="M37.5738 18.6688
L37.5133 18.7293
" />
<path d="M37.5133 18.7293
L37.4529 18.8502
" />
</g></g>
<g style="fill:#840000; fill-opacity:0.0; 
stroke:#840000; stroke-width:0.1524; stroke-opacity:1; 
stroke-linecap:round; stroke-linejoin:round;">
<path d="M21.3360 10.9220
L21.3360 7.1120
" />
</g>
<g style="fill:#006464; fill-opacity:0.0; 
stroke:#006464; stroke-width:0.1524; stroke-opacity:1; 
stroke-linecap:round; stroke-linejoin:round;">
<g transform="rotate(-90.000000 21.3360 11.9380)">
<text x="21.3360" y="12.5730"
textLength="3.8318" font-size="1.6933" lengthAdjust="spacingAndGlyphs"
text-anchor="end" opacity="0">VCC</text>
</g>
<g class="stroked-text"><desc>VCC</desc>
<path d="M20.6455 15.5458
L21.9155 15.1225
" />
<path d="M21.9155 15.1225
L20.6455 14.6991
" />
<path d="M21.7946 13.5501
L21.8551 13.6105
" />
<path d="M21.8551 13.6105
L21.9155 13.7920
" />
<path d="M21.9155 13.7920
L21.9155 13.9129
" />
<path d="M21.9155 13.9129
L21.8551 14.0943
" />
<path d="M21.8551 14.0943
L21.7341 14.2153
" />
<path d="M21.7341 14.2153
L21.6131 14.2758
" />
<path d="M21.6131 14.2758
L21.3712 14.3362
" />
<path d="M21.3712 14.3362
L21.1898 14.3362
" />
<path d="M21.1898 14.3362
L20.9479 14.2758
" />
<path d="M20.9479 14.2758
L20.8270 14.2153
" />
<path d="M20.8270 14.2153
L20.7060 14.0943
" />
<path d="M20.7060 14.0943
L20.6455 13.9129
" />
<path d="M20.6455 13.9129
L20.6455 13.7920
" />
<path d="M20.6455 13.7920
L20.7060 13.6105
" />
<path d="M20.7060 13.6105
L20.7665 13.5501
" />
<path d="M21.7946 12.2801
L21.8551 12.3405
" />
<path d="M21.8551 12.3405
L21.9155 12.5220
" />
<path d="M21.9155 12.5220
L21.9155 12.6429
" />
<path d="M21.9155 12.6429
L21.8551 12.8243
" />
<path d="M21.8551 12.8243
L21.7341 12.9453
" />
<path d="M21.7341 12.9453
L21.6131 13.0058
" />
<path d="M21.6131 13.0058
L21.3712 13.0662
" />
<path d="M21.3712 13.0662
L21.1898 13.0662
" />
<path d="M21.1898 13.0662
L20.9479 13.0058
" />
<path d="M20.9479 13.0058
L20.8270 12.9453
" />
<path d="M20.8270 12.9453
L20.7060 12.8243
" />
<path d="M20.7060 12.8243
L20.6455 12.6429
" />
<path d="M20.6455 12.6429
L20.6455 12.5220
" />
<path d="M20.6455 12.5220
L20.7060 12.3405
" />
<path d="M20.7060 12.3405
L20.7665 12.2801
" />
</g></g>
<g style="fill:#A90000; fill-opacity:0.0; 
stroke:#A90000; stroke-width:0.1524; stroke-opacity:1; 
stroke-linecap:round; stroke-linejoin:round;">
<g transform="rotate(-90.000000 21.0820 9.0170)">
<text x="21.0820" y="9.0170"
textLength="2.6222" font-size="1.6933" lengthAdjust="spacingAndGlyphs"
text-anchor="middle" opacity="0">27</text>
</g>
<g class="stroked-text"><desc>27</desc>
<path d="M19.7695 9.9845
L19.7090 9.9241
" />
<path d="M19.7090 9.9241
L19.6485 9.8031
" />
<path d="M19.6485 9.8031
L19.6485 9.5007
" />
<path d="M19.6485 9.5007
L19.7090 9.3798
" />
<path d="M19.7090 9.3798
L19.7695 9.3193
" />
<path d="M19.7695 9.3193
L19.8904 9.2588
" />
<path d="M19.8904 9.2588
L20.0114 9.2588
" />
<path d="M20.0114 9.2588
L20.1928 9.3193
" />
<path d="M20.1928 9.3193
L20.9185 10.0450
" />
<path d="M20.9185 10.0450
L20.9185 9.2588
" />
<path d="M19.6485 8.8355
L19.6485 7.9889
" />
<path d="M19.6485 7.9889
L20.9185 8.5331
" />
</g></g>
<g style="fill:#840000; fill-opacity:0.0; 
stroke:#840000; stroke-width:0.1524; stroke-opacity:1; 
stroke-linecap:round; stroke-linejoin:round;">
<circle cx="6.7310" cy="47.7520" r="0.6350" /> 
<path d="M6.0960 47.7520
L3.5560 47.7520
" />
</g>
<g style="fill:#006464; fill-opacity:0.0; 
stroke:#006464; stroke-width:0.1524; stroke-opacity:1; 
stroke-linecap:round; stroke-linejoin:round;">
<text x="8.3820" y="48.3870"
textLength="3.8922" font-size="1.6933" lengthAdjust="spacingAndGlyphs"
text-anchor="start" opacity="0">CS0</text>
<g class="stroked-text"><desc>CS0</desc>
<path d="M9.5102 48.2106
L9.4498 48.2711
" />
<path d="M9.4498 48.2711
L9.2683 48.3315
" />
<path d="M9.2683 48.3315
L9.1474 48.3315
" />
<path d="M9.1474 48.3315
L8.9660 48.2711
" />
<path d="M8.9660 48.2711
L8.8450 48.1501
" />
<path d="M8.8450 48.1501
L8.7845 48.0291
" />
<path d="M8.7845 48.0291
L8.7241 47.7872
" />
<path d="M8.7241 47.7872
L8.7241 47.6058
" />
<path d="M8.7241 47.6058
L8.7845 47.3639
" />
<path d="M8.7845 47.3639
L8.8450 47.2430
" />
<path d="M8.8450 47.2430
L8.9660 47.1220
" />
<path d="M8.9660 47.1220
L9.1474 47.0615
" />
<path d="M9.1474 47.0615
L9.2683 47.0615
" />
<path d="M9.2683 47.0615
L9.4498 47.1220
" />
<path d="M9.4498 47.1220
L9.5102 47.1825
" />
<path d="M9.9941 48.2711
L10.1755 48.3315
" />
<path d="M10.1755 48.3315
L10.4779 48.3315
" />
<path d="M10.4779 48.3315
L10.5988 48.2711
" />
<path d="M10.5988 48.2711
L10.6593 48.2106
" />
<path d="M10.6593 48.2106
L10.7198 48.0896
" />
<path d="M10.7198 48.0896
L10.7198 47.9687
" />
<path d="M10.7198 47.9687
L10.6593 47.8477
" />
<path d="M10.6593 47.8477
L10.5988 47.7872
" />
<path d="M10.5988 47.7872
L10.4779 47.7268
" />
<path d="M10.4779 47.7268
L10.2360 47.6663
" />
<path d="M10.2360 47.6663
L10.1150 47.6058
" />
<path d="M10.1150 47.6058
L10.0545 47.5453
" />
<path d="M10.0545 47.5453
L9.9941 47.4244
" />
<path d="M9.9941 47.4244
L9.9941 47.3034
" />
<path d="M9.9941 47.3034
L10.0545 47.1825
" />
<path d="M10.0545 47.1825
L10.1150 47.1220
" />
<path d="M10.1150 47.1220
L10.2360 47.0615
" />
<path d="M10.2360 47.0615
L10.5383 47.0615
" />
<path d="M10.5383 47.0615
L10.7198 47.1220
" />
<path d="M11.5059 47.0615
L11.6269 47.0615
" />
<path d="M11.6269 47.0615
L11.7478 47.1220
" />
<path d="M11.7478 47.1220
L11.8083 47.1825
" />
<path d="M11.8083 47.1825
L11.8688 47.3034
" />
<path d="M11.8688 47.3034
L11.9293 47.5453
" />
<path d="M11.9293 47.5453
L11.9293 47.8477
" />
<path d="M11.9293 47.8477
L11.8688 48.0896
" />
<path d="M11.8688 48.0896
L11.8083 48.2106
" />
<path d="M11.8083 48.2106
L11.7478 48.2711
" />
<path d="M11.7478 48.2711
L11.6269 48.3315
" />
<path d="M11.6269 48.3315
L11.5059 48.3315
" />
<path d="M11.5059 48.3315
L11.3850 48.2711
" />
<path d="M11.3850 48.2711
L11.3245 48.2106
" />
<path d="M11.3245 48.2106
L11.2640 48.0896
" />
<path d="M11.2640 48.0896
L11.2036 47.8477
" />
<path d="M11.2036 47.8477
L11.2036 47.5453
" />
<path d="M11.2036 47.5453
L11.2640 47.3034
" />
<path d="M11.2640 47.3034
L11.3245 47.1825
" />
<path d="M11.3245 47.1825
L11.3850 47.1220
" />
<path d="M11.3850 47.1220
L11.5059 47.0615
" />
</g></g>
<g style="fill:#A90000; fill-opacity:0.0; 
stroke:#A90000; stroke-width:0.1524; stroke-opacity:1; 
stroke-linecap:round; stroke-linejoin:round;">
<text x="5.4610" y="47.4980"
textLength="2.6222" font-size="1.6933" lengthAdjust="spacingAndGlyphs"
text-anchor="middle" opacity="0">28</text>
<g class="stroked-text"><desc>28</desc>
<path d="M4.4934 46.1855
L4.5538 46.1250
" />
<path d="M4.5538 46.1250
L4.6748 46.0645
" />
<path d="M4.6748 46.0645
L4.9772 46.0645
" />
<path d="M4.9772 46.0645
L5.0981 46.1250
" />
<path d="M5.0981 46.1250
L5.1586 46.1855
" />
<path d="M5.1586 46.1855
L5.2191 46.3064
" />
<path d="M5.2191 46.3064
L5.2191 46.4274
" />
<path d="M5.2191 46.4274
L5.1586 46.6088
" />
<path d="M5.1586 46.6088
L4.4329 47.3345
" />
<path d="M4.4329 47.3345
L5.2191 47.3345
" />
<path d="M5.9448 46.6088
L5.8238 46.5483
" />
<path d="M5.8238 46.5483
L5.7633 46.4879
" />
<path d="M5.7633 46.4879
L5.7029 46.3669
" />
<path d="M5.7029 46.3669
L5.7029 46.3064
" />
<path d="M5.7029 46.3064
L5.7633 46.1855
" />
<path d="M5.7633 46.1855
L5.8238 46.1250
" />
<path d="M5.8238 46.1250
L5.9448 46.0645
" />
<path d="M5.9448 46.0645
L6.1867 46.0645
" />
<path d="M6.1867 46.0645
L6.3076 46.1250
" />
<path d="M6.3076 46.1250
L6.3681 46.1855
" />
<path d="M6.3681 46.1855
L6.4286 46.3064
" />
<path d="M6.4286 46.3064
L6.4286 46.3669
" />
<path d="M6.4286 46.3669
L6.3681 46.4879
" />
<path d="M6.3681 46.4879
L6.3076 46.5483
" />
<path d="M6.3076 46.5483
L6.1867 46.6088
" />
<path d="M6.1867 46.6088
L5.9448 46.6088
" />
<path d="M5.9448 46.6088
L5.8238 46.6693
" />
<path d="M5.8238 46.6693
L5.7633 46.7298
" />
<path d="M5.7633 46.7298
L5.7029 46.8507
" />
<path d="M5.7029 46.8507
L5.7029 47.0926
" />
<path d="M5.7029 47.0926
L5.7633 47.2136
" />
<path d="M5.7633 47.2136
L5.8238 47.2741
" />
<path d="M5.8238 47.2741
L5.9448 47.3345
" />
<path d="M5.9448 47.3345
L6.1867 47.3345
" />
<path d="M6.1867 47.3345
L6.3076 47.2741
" />
<path d="M6.3076 47.2741
L6.3681 47.2136
" />
<path d="M6.3681 47.2136
L6.4286 47.0926
" />
<path d="M6.4286 47.0926
L6.4286 46.8507
" />
<path d="M6.4286 46.8507
L6.3681 46.7298
" />
<path d="M6.3681 46.7298
L6.3076 46.6693
" />
<path d="M6.3076 46.6693
L6.1867 46.6088
" />
</g></g>
<g style="fill:#840000; fill-opacity:0.0; 
stroke:#840000; stroke-width:0.1524; stroke-opacity:1; 
stroke-linecap:round; stroke-linejoin:round;">
<path d="M7.3660 14.7320
L3.5560 14.7320
" />
</g>
<g style="fill:#006464; fill-opacity:0.0; 
stroke:#006464; stroke-width:0.1524; stroke-opacity:1; 
stroke-linecap:round; stroke-linejoin:round;">
<text x="8.3820" y="15.3670"
textLength="2.6827" font-size="1.6933" lengthAdjust="spacingAndGlyphs"
text-anchor="start" opacity="0">D0</text>
<g class="stroked-text"><desc>D0</desc>
<path d="M8.7845 15.3115
L8.7845 14.0415
" />
<path d="M8.7845 14.0415
L9.0869 14.0415
" />
<path d="M9.0869 14.0415
L9.2683 14.1020
" />
<path d="M9.2683 14.1020
L9.3893 14.2230
" />
<path d="M9.3893 14.2230
L9.4498 14.3439
" />
<path d="M9.4498 14.3439
L9.5102 14.5858
" />
<path d="M9.5102 14.5858
L9.5102 14.7672
" />
<path d="M9.5102 14.7672
L9.4498 15.0091
" />
<path d="M9.4498 15.0091
L9.3893 15.1301
" />
<path d="M9.3893 15.1301
L9.2683 15.2511
" />
<path d="M9.2683 15.2511
L9.0869 15.3115
" />
<path d="M9.0869 15.3115
L8.7845 15.3115
" />
<path d="M10.2964 14.0415
L10.4174 14.0415
" />
<path d="M10.4174 14.0415
L10.5383 14.1020
" />
<path d="M10.5383 14.1020
L10.5988 14.1625
" />
<path d="M10.5988 14.1625
L10.6593 14.2834
" />
<path d="M10.6593 14.2834
L10.7198 14.5253
" />
<path d="M10.7198 14.5253
L10.7198 14.8277
" />
<path d="M10.7198 14.8277
L10.6593 15.0696
" />
<path d="M10.6593 15.0696
L10.5988 15.1906
" />
<path d="M10.5988 15.1906
L10.5383 15.2511
" />
<path d="M10.5383 15.2511
L10.4174 15.3115
" />
<path d="M10.4174 15.3115
L10.2964 15.3115
" />
<path d="M10.2964 15.3115
L10.1755 15.2511
" />
<path d="M10.1755 15.2511
L10.1150 15.1906
" />
<path d="M10.1150 15.1906
L10.0545 15.0696
" />
<path d="M10.0545 15.0696
L9.9941 14.8277
" />
<path d="M9.9941 14.8277
L9.9941 14.5253
" />
<path d="M9.9941 14.5253
L10.0545 14.2834
" />
<path d="M10.0545 14.2834
L10.1150 14.1625
" />
<path d="M10.1150 14.1625
L10.1755 14.1020
" />
<path d="M10.1755 14.1020
L10.2964 14.0415
" />
</g></g>
<g style="fill:#A90000; fill-opacity:0.0; 
stroke:#A90000; stroke-width:0.1524; stroke-opacity:1; 
stroke-linecap:round; stroke-linejoin:round;">
<text x="5.4610" y="14.4780"
textLength="1.4127" font-size="1.6933" lengthAdjust="spacingAndGlyphs"
text-anchor="middle" opacity="0">3</text>
<g class="stroked-text"><desc>3</desc>
<path d="M5.0377 13.0445
L5.8239 13.0445
" />
<path d="M5.8239 13.0445
L5.4005 13.5283
" />
<path d="M5.4005 13.5283
L5.5820 13.5283
" />
<path d="M5.5820 13.5283
L5.7029 13.5888
" />
<path d="M5.7029 13.5888
L5.7634 13.6493
" />
<path d="M5.7634 13.6493
L5.8239 13.7702
" />
<path d="M5.8239 13.7702
L5.8239 14.0726
" />
<path d="M5.8239 14.0726
L5.7634 14.1936
" />
<path d="M5.7634 14.1936
L5.7029 14.2541
" />
<path d="M5.7029 14.2541
L5.5820 14.3145
" />
<path d="M5.5820 14.3145
L5.2191 14.3145
" />
<path d="M5.2191 14.3145
L5.0982 14.2541
" />
<path d="M5.0982 14.2541
L5.0377 14.1936
" />
</g></g>
<g style="fill:#840000; fill-opacity:0.0; 
stroke:#840000; stroke-width:0.1524; stroke-opacity:1; 
stroke-linecap:round; stroke-linejoin:round;">
<path d="M7.3660 17.2720
L3.5560 17.2720
" />
</g>
<g style="fill:#006464; fill-opacity:0.0; 
stroke:#006464; stroke-width:0.1524; stroke-opacity:1; 
stroke-linecap:round; stroke-linejoin:round;">
<text x="8.3820" y="17.9070"
textLength="2.6827" font-size="1.6933" lengthAdjust="spacingAndGlyphs"
text-anchor="start" opacity="0">D1</text>
<g class="stroked-text"><desc>D1</desc>
<path d="M8.7845 17.8515
L8.7845 16.5815
" />
<path d="M8.7845 16.5815
L9.0869 16.5815
" />
<path d="M9.0869 16.5815
L9.2683 16.6420
" />
<path d="M9.2683 16.6420
L9.3893 16.7630
" />
<path d="M9.3893 16.7630
L9.4498 16.8839
" />
<path d="M9.4498 16.8839
L9.5102 17.1258
" />
<path d="M9.5102 17.1258
L9.5102 17.3072
" />
<path d="M9.5102 17.3072
L9.4498 17.5491
" />
<path d="M9.4498 17.5491
L9.3893 17.6701
" />
<path d="M9.3893 17.6701
L9.2683 17.7911
" />
<path d="M9.2683 17.7911
L9.0869 17.8515
" />
<path d="M9.0869 17.8515
L8.7845 17.8515
" />
<path d="M10.7198 17.8515
L9.9941 17.8515
" />
<path d="M10.3569 17.8515
L10.3569 16.5815
" />
<path d="M10.3569 16.5815
L10.2360 16.7630
" />
<path d="M10.2360 16.7630
L10.1150 16.8839
" />
<path d="M10.1150 16.8839
L9.9941 16.9444
" />
</g></g>
<g style="fill:#A90000; fill-opacity:0.0; 
stroke:#A90000; stroke-width:0.1524; stroke-opacity:1; 
stroke-linecap:round; stroke-linejoin:round;">
<text x="5.4610" y="17.0180"
textLength="1.4127" font-size="1.6933" lengthAdjust="spacingAndGlyphs"
text-anchor="middle" opacity="0">4</text>
<g class="stroked-text"><desc>4</desc>
<path d="M5.7029 16.0079
L5.7029 16.8545
" />
<path d="M5.4005 15.5241
L5.0982 16.4312
" />
<path d="M5.0982 16.4312
L5.8843 16.4312
" />
</g></g>
<g style="fill:#840000; fill-opacity:0.0; 
stroke:#840000; stroke-width:0.1524; stroke-opacity:1; 
stroke-linecap:round; stroke-linejoin:round;">
<path d="M7.3660 19.8120
L3.5560 19.8120
" />
</g>
<g style="fill:#006464; fill-opacity:0.0; 
stroke:#006464; stroke-width:0.1524; stroke-opacity:1; 
stroke-linecap:round; stroke-linejoin:round;">
<text x="8.3820" y="20.4470"
textLength="2.6827" font-size="1.6933" lengthAdjust="spacingAndGlyphs"
text-anchor="start" opacity="0">D2</text>
<g class="stroked-text"><desc>D2</desc>
<path d="M8.7845 20.3915
L8.7845 19.1215
" />
<path d="M8.7845 19.1215
L9.0869 19.1215
" />
<path d="M9.0869 19.1215
L9.2683 19.1820
" />
<path d="M9.2683 19.1820
L9.3893 19.3030
" />
<path d="M9.3893 19.3030
L9.4498 19.4239
" />
<path d="M9.4498 19.4239
L9.5102 19.6658
" />
<path d="M9.5102 19.6658
L9.5102 19.8472
" />
<path d="M9.5102 19.8472
L9.4498 20.0891
" />
<path d="M9.4498 20.0891
L9.3893 20.2101
" />
<path d="M9.3893 20.2101
L9.2683 20.3311
" />
<path d="M9.2683 20.3311
L9.0869 20.3915
" />
<path d="M9.0869 20.3915
L8.7845 20.3915
" />
<path d="M9.9941 19.2425
L10.0545 19.1820
" />
<path d="M10.0545 19.1820
L10.1755 19.1215
" />
<path d="M10.1755 19.1215
L10.4779 19.1215
" />
<path d="M10.4779 19.1215
L10.5988 19.1820
" />
<path d="M10.5988 19.1820
L10.6593 19.2425
" />
<path d="M10.6593 19.2425
L10.7198 19.3634
" />
<path d="M10.7198 19.3634
L10.7198 19.4844
" />
<path d="M10.7198 19.4844
L10.6593 19.6658
" />
<path d="M10.6593 19.6658
L9.9336 20.3915
" />
<path d="M9.9336 20.3915
L10.7198 20.3915
" />
</g></g>
<g style="fill:#A90000; fill-opacity:0.0; 
stroke:#A90000; stroke-width:0.1524; stroke-opacity:1; 
stroke-linecap:round; stroke-linejoin:round;">
<text x="5.4610" y="19.5580"
textLength="1.4127" font-size="1.6933" lengthAdjust="spacingAndGlyphs"
text-anchor="middle" opacity="0">5</text>
<g class="stroked-text"><desc>5</desc>
<path d="M5.7634 18.1245
L5.1586 18.1245
" />
<path d="M5.1586 18.1245
L5.0982 18.7293
" />
<path d="M5.0982 18.7293
L5.1586 18.6688
" />
<path d="M5.1586 18.6688
L5.2796 18.6083
" />
<path d="M5.2796 18.6083
L5.5820 18.6083
" />
<path d="M5.5820 18.6083
L5.7029 18.6688
" />
<path d="M5.7029 18.6688
L5.7634 18.7293
" />
<path d="M5.7634 18.7293
L5.8239 18.8502
" />
<path d="M5.8239 18.8502
L5.8239 19.1526
" />
<path d="M5.8239 19.1526
L5.7634 19.2736
" />
<path d="M5.7634 19.2736
L5.7029 19.3341
" />
<path d="M5.7029 19.3341
L5.5820 19.3945
" />
<path d="M5.5820 19.3945
L5.2796 19.3945
" />
<path d="M5.2796 19.3945
L5.1586 19.3341
" />
<path d="M5.1586 19.3341
L5.0982 19.2736
" />
</g></g>
<g style="fill:#840000; fill-opacity:0.0; 
stroke:#840000; stroke-width:0.1524; stroke-opacity:1; 
stroke-linecap:round; stroke-linejoin:round;">
<path d="M7.3660 22.3520
L3.5560 22.3520
" />
</g>
<g style="fill:#006464; fill-opacity:0.0; 
stroke:#006464; stroke-width:0.1524; stroke-opacity:1; 
stroke-linecap:round; stroke-linejoin:round;">
<text x="8.3820" y="22.9870"
textLength="2.6827" font-size="1.6933" lengthAdjust="spacingAndGlyphs"
text-anchor="start" opacity="0">D3</text>
<g class="stroked-text"><desc>D3</desc>
<path d="M8.7845 22.9315
L8.7845 21.6615
" />
<path d="M8.7845 21.6615
L9.0869 21.6615
" />
<path d="M9.0869 21.6615
L9.2683 21.7220
" />
<path d="M9.2683 21.7220
L9.3893 21.8430
" />
<path d="M9.3893 21.8430
L9.4498 21.9639
" />
<path d="M9.4498 21.9639
L9.5102 22.2058
" />
<path d="M9.5102 22.2058
L9.5102 22.3872
" />
<path d="M9.5102 22.3872
L9.4498 22.6291
" />
<path d="M9.4498 22.6291
L9.3893 22.7501
" />
<path d="M9.3893 22.7501
L9.2683 22.8711
" />
<path d="M9.2683 22.8711
L9.0869 22.9315
" />
<path d="M9.0869 22.9315
L8.7845 22.9315
" />
<path d="M9.9336 21.6615
L10.7198 21.6615
" />
<path d="M10.7198 21.6615
L10.2964 22.1453
" />
<path d="M10.2964 22.1453
L10.4779 22.1453
" />
<path d="M10.4779 22.1453
L10.5988 22.2058
" />
<path d="M10.5988 22.2058
L10.6593 22.2663
" />
<path d="M10.6593 22.2663
L10.7198 22.3872
" />
<path d="M10.7198 22.3872
L10.7198 22.6896
" />
<path d="M10.7198 22.6896
L10.6593 22.8106
" />
<path d="M10.6593 22.8106
L10.5988 22.8711
" />
<path d="M10.5988 22.8711
L10.4779 22.9315
" />
<path d="M10.4779 22.9315
L10.1150 22.9315
" />
<path d="M10.1150 22.9315
L9.9941 22.8711
" />
<path d="M9.9941 22.8711
L9.9336 22.8106
" />
</g></g>
<g style="fill:#A90000; fill-opacity:0.0; 
stroke:#A90000; stroke-width:0.1524; stroke-opacity:1; 
stroke-linecap:round; stroke-linejoin:round;">
<text x="5.4610" y="22.0980"
textLength="1.4127" font-size="1.6933" lengthAdjust="spacingAndGlyphs"
text-anchor="middle" opacity="0">6</text>
<g class="stroked-text"><desc>6</desc>
<path d="M5.7029 20.6645
L5.4610 20.6645
" />
<path d="M5.4610 20.6645
L5.3401 20.7250
" />
<path d="M5.3401 20.7250
L5.2796 20.7855
" />
<path d="M5.2796 20.7855
L5.1586 20.9669
" />
<path d="M5.1586 20.9669
L5.0982 21.2088
" />
<path d="M5.0982 21.2088
L5.0982 21.6926
" />
<path d="M5.0982 21.6926
L5.1586 21.8136
" />
<path d="M5.1586 21.8136
L5.2191 21.8741
" />
<path d="M5.2191 21.8741
L5.3401 21.9345
" />
<path d="M5.3401 21.9345
L5.5820 21.9345
" />
<path d="M5.5820 21.9345
L5.7029 21.8741
" />
<path d="M5.7029 21.8741
L5.7634 21.8136
" />
<path d="M5.7634 21.8136
L5.8239 21.6926
" />
<path d="M5.8239 21.6926
L5.8239 21.3902
" />
<path d="M5.8239 21.3902
L5.7634 21.2693
" />
<path d="M5.7634 21.2693
L5.7029 21.2088
" />
<path d="M5.7029 21.2088
L5.5820 21.1483
" />
<path d="M5.5820 21.1483
L5.3401 21.1483
" />
<path d="M5.3401 21.1483
L5.2191 21.2088
" />
<path d="M5.2191 21.2088
L5.1586 21.2693
" />
<path d="M5.1586 21.2693
L5.0982 21.3902
" />
</g></g>
<g style="fill:#840000; fill-opacity:0.0; 
stroke:#840000; stroke-width:0.1524; stroke-opacity:1; 
stroke-linecap:round; stroke-linejoin:round;">
<path d="M7.3660 24.8920
L3.5560 24.8920
" />
</g>
<g style="fill:#006464; fill-opacity:0.0; 
stroke:#006464; stroke-width:0.1524; stroke-opacity:1; 
stroke-linecap:round; stroke-linejoin:round;">
<text x="8.3820" y="25.5270"
textLength="2.6827" font-size="1.6933" lengthAdjust="spacingAndGlyphs"
text-anchor="start" opacity="0">D4</text>
<g class="stroked-text"><desc>D4</desc>
<path d="M8.7845 25.4715
L8.7845 24.2015
" />
<path d="M8.7845 24.2015
L9.0869 24.2015
" />
<path d="M9.0869 24.2015
L9.2683 24.2620
" />
<path d="M9.2683 24.2620
L9.3893 24.3830
" />
<path d="M9.3893 24.3830
L9.4498 24.5039
" />
<path d="M9.4498 24.5039
L9.5102 24.7458
" />
<path d="M9.5102 24.7458
L9.5102 24.9272
" />
<path d="M9.5102 24.9272
L9.4498 25.1691
" />
<path d="M9.4498 25.1691
L9.3893 25.2901
" />
<path d="M9.3893 25.2901
L9.2683 25.4111
" />
<path d="M9.2683 25.4111
L9.0869 25.4715
" />
<path d="M9.0869 25.4715
L8.7845 25.4715
" />
<path d="M10.5988 24.6249
L10.5988 25.4715
" />
<path d="M10.2964 24.1411
L9.9941 25.0482
" />
<path d="M9.9941 25.0482
L10.7802 25.0482
" />
</g></g>
<g style="fill:#A90000; fill-opacity:0.0; 
stroke:#A90000; stroke-width:0.1524; stroke-opacity:1; 
stroke-linecap:round; stroke-linejoin:round;">
<text x="5.4610" y="24.6380"
textLength="1.4127" font-size="1.6933" lengthAdjust="spacingAndGlyphs"
text-anchor="middle" opacity="0">7</text>
<g class="stroked-text"><desc>7</desc>
<path d="M5.0377 23.2045
L5.8843 23.2045
" />
<path d="M5.8843 23.2045
L5.3401 24.4745
" />
</g></g>
<g style="fill:#840000; fill-opacity:0.0; 
stroke:#840000; stroke-width:0.1524; stroke-opacity:1; 
stroke-linecap:round; stroke-linejoin:round;">
<path d="M7.3660 27.4320
L3.5560 27.4320
" />
</g>
<g style="fill:#006464; fill-opacity:0.0; 
stroke:#006464; stroke-width:0.1524; stroke-opacity:1; 
stroke-linecap:round; stroke-linejoin:round;">
<text x="8.3820" y="28.0670"
textLength="2.6827" font-size="1.6933" lengthAdjust="spacingAndGlyphs"
text-anchor="start" opacity="0">D5</text>
<g class="stroked-text"><desc>D5</desc>
<path d="M8.7845 28.0115
L8.7845 26.7415
" />
<path d="M8.7845 26.7415
L9.0869 26.7415
" />
<path d="M9.0869 26.7415
L9.2683 26.8020
" />
<path d="M9.2683 26.8020
L9.3893 26.9230
" />
<path d="M9.3893 26.9230
L9.4498 27.0439
" />
<path d="M9.4498 27.0439
L9.5102 27.2858
" />
<path d="M9.5102 27.2858
L9.5102 27.4672
" />
<path d="M9.5102 27.4672
L9.4498 27.7091
" />
<path d="M9.4498 27.7091
L9.3893 27.8301
" />
<path d="M9.3893 27.8301
L9.2683 27.9511
" />
<path d="M9.2683 27.9511
L9.0869 28.0115
" />
<path d="M9.0869 28.0115
L8.7845 28.0115
" />
<path d="M10.6593 26.7415
L10.0545 26.7415
" />
<path d="M10.0545 26.7415
L9.9941 27.3463
" />
<path d="M9.9941 27.3463
L10.0545 27.2858
" />
<path d="M10.0545 27.2858
L10.1755 27.2253
" />
<path d="M10.1755 27.2253
L10.4779 27.2253
" />
<path d="M10.4779 27.2253
L10.5988 27.2858
" />
<path d="M10.5988 27.2858
L10.6593 27.3463
" />
<path d="M10.6593 27.3463
L10.7198 27.4672
" />
<path d="M10.7198 27.4672
L10.7198 27.7696
" />
<path d="M10.7198 27.7696
L10.6593 27.8906
" />
<path d="M10.6593 27.8906
L10.5988 27.9511
" />
<path d="M10.5988 27.9511
L10.4779 28.0115
" />
<path d="M10.4779 28.0115
L10.1755 28.0115
" />
<path d="M10.1755 28.0115
L10.0545 27.9511
" />
<path d="M10.0545 27.9511
L9.9941 27.8906
" />
</g></g>
<g style="fill:#A90000; fill-opacity:0.0; 
stroke:#A90000; stroke-width:0.1524; stroke-opacity:1; 
stroke-linecap:round; stroke-linejoin:round;">
<text x="5.4610" y="27.1780"
textLength="1.4127" font-size="1.6933" lengthAdjust="spacingAndGlyphs"
text-anchor="middle" opacity="0">8</text>
<g class="stroked-text"><desc>8</desc>
<path d="M5.3401 26.2888
L5.2191 26.2283
" />
<path d="M5.2191 26.2283
L5.1586 26.1679
" />
<path d="M5.1586 26.1679
L5.0982 26.0469
" />
<path d="M5.0982 26.0469
L5.0982 25.9864
" />
<path d="M5.0982 25.9864
L5.1586 25.8655
" />
<path d="M5.1586 25.8655
L5.2191 25.8050
" />
<path d="M5.2191 25.8050
L5.3401 25.7445
" />
<path d="M5.3401 25.7445
L5.5820 25.7445
" />
<path d="M5.5820 25.7445
L5.7029 25.8050
" />
<path d="M5.7029 25.8050
L5.7634 25.8655
" />
<path d="M5.7634 25.8655
L5.8239 25.9864
" />
<path d="M5.8239 25.9864
L5.8239 26.0469
" />
<path d="M5.8239 26.0469
L5.7634 26.1679
" />
<path d="M5.7634 26.1679
L5.7029 26.2283
" />
<path d="M5.7029 26.2283
L5.5820 26.2888
" />
<path d="M5.5820 26.2888
L5.3401 26.2888
" />
<path d="M5.3401 26.2888
L5.2191 26.3493
" />
<path d="M5.2191 26.3493
L5.1586 26.4098
" />
<path d="M5.1586 26.4098
L5.0982 26.5307
" />
<path d="M5.0982 26.5307
L5.0982 26.7726
" />
<path d="M5.0982 26.7726
L5.1586 26.8936
" />
<path d="M5.1586 26.8936
L5.2191 26.9541
" />
<path d="M5.2191 26.9541
L5.3401 27.0145
" />
<path d="M5.3401 27.0145
L5.5820 27.0145
" />
<path d="M5.5820 27.0145
L5.7029 26.9541
" />
<path d="M5.7029 26.9541
L5.7634 26.8936
" />
<path d="M5.7634 26.8936
L5.8239 26.7726
" />
<path d="M5.8239 26.7726
L5.8239 26.5307
" />
<path d="M5.8239 26.5307
L5.7634 26.4098
" />
<path d="M5.7634 26.4098
L5.7029 26.3493
" />
<path d="M5.7029 26.3493
L5.5820 26.2888
" />
</g></g>
<g style="fill:#840000; fill-opacity:0.0; 
stroke:#840000; stroke-width:0.1524; stroke-opacity:1; 
stroke-linecap:round; stroke-linejoin:round;">
<path d="M7.3660 29.9720
L3.5560 29.9720
" />
</g>
<g style="fill:#006464; fill-opacity:0.0; 
stroke:#006464; stroke-width:0.1524; stroke-opacity:1; 
stroke-linecap:round; stroke-linejoin:round;">
<text x="8.3820" y="30.6070"
textLength="2.6827" font-size="1.6933" lengthAdjust="spacingAndGlyphs"
text-anchor="start" opacity="0">D6</text>
<g class="stroked-text"><desc>D6</desc>
<path d="M8.7845 30.5515
L8.7845 29.2815
" />
<path d="M8.7845 29.2815
L9.0869 29.2815
" />
<path d="M9.0869 29.2815
L9.2683 29.3420
" />
<path d="M9.2683 29.3420
L9.3893 29.4630
" />
<path d="M9.3893 29.4630
L9.4498 29.5839
" />
<path d="M9.4498 29.5839
L9.5102 29.8258
" />
<path d="M9.5102 29.8258
L9.5102 30.0072
" />
<path d="M9.5102 30.0072
L9.4498 30.2491
" />
<path d="M9.4498 30.2491
L9.3893 30.3701
" />
<path d="M9.3893 30.3701
L9.2683 30.4911
" />
<path d="M9.2683 30.4911
L9.0869 30.5515
" />
<path d="M9.0869 30.5515
L8.7845 30.5515
" />
<path d="M10.5988 29.2815
L10.3569 29.2815
" />
<path d="M10.3569 29.2815
L10.2360 29.3420
" />
<path d="M10.2360 29.3420
L10.1755 29.4025
" />
<path d="M10.1755 29.4025
L10.0545 29.5839
" />
<path d="M10.0545 29.5839
L9.9941 29.8258
" />
<path d="M9.9941 29.8258
L9.9941 30.3096
" />
<path d="M9.9941 30.3096
L10.0545 30.4306
" />
<path d="M10.0545 30.4306
L10.1150 30.4911
" />
<path d="M10.1150 30.4911
L10.2360 30.5515
" />
<path d="M10.2360 30.5515
L10.4779 30.5515
" />
<path d="M10.4779 30.5515
L10.5988 30.4911
" />
<path d="M10.5988 30.4911
L10.6593 30.4306
" />
<path d="M10.6593 30.4306
L10.7198 30.3096
" />
<path d="M10.7198 30.3096
L10.7198 30.0072
" />
<path d="M10.7198 30.0072
L10.6593 29.8863
" />
<path d="M10.6593 29.8863
L10.5988 29.8258
" />
<path d="M10.5988 29.8258
L10.4779 29.7653
" />
<path d="M10.4779 29.7653
L10.2360 29.7653
" />
<path d="M10.2360 29.7653
L10.1150 29.8258
" />
<path d="M10.1150 29.8258
L10.0545 29.8863
" />
<path d="M10.0545 29.8863
L9.9941 30.0072
" />
</g></g>
<g style="fill:#A90000; fill-opacity:0.0; 
stroke:#A90000; stroke-width:0.1524; stroke-opacity:1; 
stroke-linecap:round; stroke-linejoin:round;">
<text x="5.4610" y="29.7180"
textLength="1.4127" font-size="1.6933" lengthAdjust="spacingAndGlyphs"
text-anchor="middle" opacity="0">9</text>
<g class="stroked-text"><desc>9</desc>
<path d="M5.2191 29.5545
L5.4610 29.5545
" />
<path d="M5.4610 29.5545
L5.5820 29.4941
" />
<path d="M5.5820 29.4941
L5.6424 29.4336
" />
<path d="M5.6424 29.4336
L5.7634 29.2521
" />
<path d="M5.7634 29.2521
L5.8239 29.0102
" />
<path d="M5.8239 29.0102
L5.8239 28.5264
" />
<path d="M5.8239 28.5264
L5.7634 28.4055
" />
<path d="M5.7634 28.4055
L5.7029 28.3450
" />
<path d="M5.7029 28.3450
L5.5820 28.2845
" />
<path d="M5.5820 28.2845
L5.3401 28.2845
" />
<path d="M5.3401 28.2845
L5.2191 28.3450
" />
<path d="M5.2191 28.3450
L5.1586 28.4055
" />
<path d="M5.1586 28.4055
L5.0982 28.5264
" />
<path d="M5.0982 28.5264
L5.0982 28.8288
" />
<path d="M5.0982 28.8288
L5.1586 28.9498
" />
<path d="M5.1586 28.9498
L5.2191 29.0102
" />
<path d="M5.2191 29.0102
L5.3401 29.0707
" />
<path d="M5.3401 29.0707
L5.5820 29.0707
" />
<path d="M5.5820 29.0707
L5.7029 29.0102
" />
<path d="M5.7029 29.0102
L5.7634 28.9498
" />
<path d="M5.7634 28.9498
L5.8239 28.8288
" />
</g></g>
<g style="fill:#840084; fill-opacity:0.0; 
stroke:#840084; stroke-width:0.1524; stroke-opacity:1; 
stroke-linecap:round; stroke-linejoin:round;">
</g>
<g style="fill:#006464; fill-opacity:0.0; 
stroke:#006464; stroke-width:0.1524; stroke-opacity:1; 
stroke-linecap:round; stroke-linejoin:round;">
</g>
<g style="fill:#006464; fill-opacity:0.0; 
stroke:#006464; stroke-width:0.1588; stroke-opacity:1; 
stroke-linecap:round; stroke-linejoin:round;">
<text x="8.6867" y="10.2870"
textLength="2.6415" font-size="1.6933" lengthAdjust="spacingAndGlyphs"
text-anchor="middle" opacity="0">U?</text>
<g class="stroked-text"><desc>U?</desc>
<path d="M7.7795 8.9612
L7.7795 9.9893
" />
<path d="M7.7795 9.9893
L7.8400 10.1103
" />
<path d="M7.8400 10.1103
L7.9005 10.1708
" />
<path d="M7.9005 10.1708
L8.0214 10.2312
" />
<path d="M8.0214 10.2312
L8.2633 10.2312
" />
<path d="M8.2633 10.2312
L8.3843 10.1708
" />
<path d="M8.3843 10.1708
L8.4448 10.1103
" />
<path d="M8.4448 10.1103
L8.5052 9.9893
" />
<path d="M8.5052 9.9893
L8.5052 8.9612
" />
<path d="M9.2915 10.1103
L9.3519 10.1708
" />
<path d="M9.3519 10.1708
L9.2915 10.2312
" />
<path d="M9.2915 10.2312
L9.2310 10.1708
" />
<path d="M9.2310 10.1708
L9.2915 10.1103
" />
<path d="M9.2915 10.1103
L9.2915 10.2312
" />
<path d="M9.0496 9.0217
L9.1705 8.9612
" />
<path d="M9.1705 8.9612
L9.4729 8.9612
" />
<path d="M9.4729 8.9612
L9.5938 9.0217
" />
<path d="M9.5938 9.0217
L9.6543 9.1427
" />
<path d="M9.6543 9.1427
L9.6543 9.2636
" />
<path d="M9.6543 9.2636
L9.5938 9.3846
" />
<path d="M9.5938 9.3846
L9.5334 9.4450
" />
<path d="M9.5334 9.4450
L9.4124 9.5055
" />
<path d="M9.4124 9.5055
L9.3519 9.5660
" />
<path d="M9.3519 9.5660
L9.2915 9.6869
" />
<path d="M9.2915 9.6869
L9.2915 9.7474
" />
</g><text x="32.7562" y="10.2870"
textLength="5.0604" font-size="1.6933" lengthAdjust="spacingAndGlyphs"
text-anchor="middle" opacity="0">8252</text>
<g class="stroked-text"><desc>8252</desc>
<path d="M30.8210 9.5055
L30.7000 9.4450
" />
<path d="M30.7000 9.4450
L30.6395 9.3846
" />
<path d="M30.6395 9.3846
L30.5791 9.2636
" />
<path d="M30.5791 9.2636
L30.5791 9.2031
" />
<path d="M30.5791 9.2031
L30.6395 9.0822
" />
<path d="M30.6395 9.0822
L30.7000 9.0217
" />
<path d="M30.7000 9.0217
L30.8210 8.9612
" />
<path d="M30.8210 8.9612
L31.0629 8.9612
" />
<path d="M31.0629 8.9612
L31.1838 9.0217
" />
<path d="M31.1838 9.0217
L31.2443 9.0822
" />
<path d="M31.2443 9.0822
L31.3048 9.2031
" />
<path d="M31.3048 9.2031
L31.3048 9.2636
" />
<path d="M31.3048 9.2636
L31.2443 9.3846
" />
<path d="M31.2443 9.3846
L31.1838 9.4450
" />
<path d="M31.1838 9.4450
L31.0629 9.5055
" />
<path d="M31.0629 9.5055
L30.8210 9.5055
" />
<path d="M30.8210 9.5055
L30.7000 9.5660
" />
<path d="M30.7000 9.5660
L30.6395 9.6265
" />
<path d="M30.6395 9.6265
L30.5791 9.7474
" />
<path d="M30.5791 9.7474
L30.5791 9.9893
" />
<path d="M30.5791 9.9893
L30.6395 10.1103
" />
<path d="M30.6395 10.1103
L30.7000 10.1708
" />
<path d="M30.7000 10.1708
L30.8210 10.2312
" />
<path d="M30.8210 10.2312
L31.0629 10.2312
" />
<path d="M31.0629 10.2312
L31.1838 10.1708
" />
<path d="M31.1838 10.1708
L31.2443 10.1103
" />
<path d="M31.2443 10.1103
L31.3048 9.9893
" />
<path d="M31.3048 9.9893
L31.3048 9.7474
" />
<path d="M31.3048 9.7474
L31.2443 9.6265
" />
<path d="M31.2443 9.6265
L31.1838 9.5660
" />
<path d="M31.1838 9.5660
L31.0629 9.5055
" />
<path d="M31.7886 9.0822
L31.8490 9.0217
" />
<path d="M31.8490 9.0217
L31.9700 8.9612
" />
<path d="M31.9700 8.9612
L32.2724 8.9612
" />
<path d="M32.2724 8.9612
L32.3933 9.0217
" />
<path d="M32.3933 9.0217
L32.4538 9.0822
" />
<path d="M32.4538 9.0822
L32.5143 9.2031
" />
<path d="M32.5143 9.2031
L32.5143 9.3241
" />
<path d="M32.5143 9.3241
L32.4538 9.5055
" />
<path d="M32.4538 9.5055
L31.7281 10.2312
" />
<path d="M31.7281 10.2312
L32.5143 10.2312
" />
<path d="M33.6633 8.9612
L33.0585 8.9612
" />
<path d="M33.0585 8.9612
L32.9981 9.5660
" />
<path d="M32.9981 9.5660
L33.0585 9.5055
" />
<path d="M33.0585 9.5055
L33.1795 9.4450
" />
<path d="M33.1795 9.4450
L33.4819 9.4450
" />
<path d="M33.4819 9.4450
L33.6028 9.5055
" />
<path d="M33.6028 9.5055
L33.6633 9.5660
" />
<path d="M33.6633 9.5660
L33.7238 9.6869
" />
<path d="M33.7238 9.6869
L33.7238 9.9893
" />
<path d="M33.7238 9.9893
L33.6633 10.1103
" />
<path d="M33.6633 10.1103
L33.6028 10.1708
" />
<path d="M33.6028 10.1708
L33.4819 10.2312
" />
<path d="M33.4819 10.2312
L33.1795 10.2312
" />
<path d="M33.1795 10.2312
L33.0585 10.1708
" />
<path d="M33.0585 10.1708
L32.9981 10.1103
" />
<path d="M34.2076 9.0822
L34.2680 9.0217
" />
<path d="M34.2680 9.0217
L34.3890 8.9612
" />
<path d="M34.3890 8.9612
L34.6914 8.9612
" />
<path d="M34.6914 8.9612
L34.8123 9.0217
" />
<path d="M34.8123 9.0217
L34.8728 9.0822
" />
<path d="M34.8728 9.0822
L34.9333 9.2031
" />
<path d="M34.9333 9.2031
L34.9333 9.3241
" />
<path d="M34.9333 9.3241
L34.8728 9.5055
" />
<path d="M34.8728 9.5055
L34.1471 10.2312
" />
<path d="M34.1471 10.2312
L34.9333 10.2312
" />
</g></g> 
</svg>
