<?xml version="1.0" standalone="no"?>
 <!DOCTYPE svg PUBLIC "-//W3C//DTD SVG 1.1//EN" 
 "http://www.w3.org/Graphics/SVG/1.1/DTD/svg11.dtd"> 
<svg
  xmlns:svg="http://www.w3.org/2000/svg"
  xmlns="http://www.w3.org/2000/svg"
  xmlns:xlink="http://www.w3.org/1999/xlink"
  version="1.1"
  width="78.7146mm" height="17.7800mm" viewBox="0.0000 0.0000 78.7146 17.7800">
<title>SVG Image created as pa2007nl.svg date 2024/01/16 15:21:34 </title>
  <desc>Image generated by Eeschema-SVG </desc>
<g style="fill:#000000; fill-opacity:1.0000;stroke:#000000; stroke-opacity:1.0000;
stroke-linecap:round; stroke-linejoin:round;"
 transform="translate(0 0) scale(1 1)">
</g>
<g style="fill:#000000; fill-opacity:0.0; 
stroke:#000000; stroke-width:0.0000; stroke-opacity:1; 
stroke-linecap:round; stroke-linejoin:round;">
</g>
<g style="fill:#000000; fill-opacity:0.0; 
stroke:#000000; stroke-width:0.2032; stroke-opacity:1; 
stroke-linecap:round; stroke-linejoin:round;">
<path d="M36.8173 11.9380 A0.7620 0.7620 0.0 0 0 36.8173 10.4140" />
<path d="M36.8173 10.4140 A0.7620 0.7620 0.0 0 0 36.8173 8.8900" />
<path d="M36.8173 8.8900 A0.7620 0.7620 0.0 0 0 36.8173 7.3660" />
</g>
<g style="fill:#000000; fill-opacity:1.0000; 
stroke:#000000; stroke-width:0.1524; stroke-opacity:1; 
stroke-linecap:round; stroke-linejoin:round;">
<circle cx="36.8173" cy="6.6040" r="0.2540" /> 
</g>
<g style="fill:#000000; fill-opacity:0.0; 
stroke:#000000; stroke-width:0.1524; stroke-opacity:1; 
stroke-linecap:round; stroke-linejoin:round;">
<path style="fill:#000000; fill-opacity:0.0; 
stroke:#000000; stroke-width:0.1524; stroke-opacity:1; 
stroke-linecap:round; stroke-linejoin:round;fill:none"
d="M 36.8173,11.9380
36.8173,13.9700
" /> 
<path style="fill:#000000; fill-opacity:0.0; 
stroke:#000000; stroke-width:0.1524; stroke-opacity:1; 
stroke-linecap:round; stroke-linejoin:round;fill:none"
d="M 36.8173,3.8100
36.8173,5.8420
" /> 
<path style="fill:#000000; fill-opacity:0.0; 
stroke:#000000; stroke-width:0.1524; stroke-opacity:1; 
stroke-linecap:round; stroke-linejoin:round;fill:none"
d="M 38.7223,5.7150
38.7223,12.0650
" /> 
<path style="fill:#000000; fill-opacity:0.0; 
stroke:#000000; stroke-width:0.1524; stroke-opacity:1; 
stroke-linecap:round; stroke-linejoin:round;fill:none"
d="M 39.9923,5.7150
39.9923,12.0650
" /> 
<path style="fill:#000000; fill-opacity:0.0; 
stroke:#000000; stroke-width:0.1524; stroke-opacity:1; 
stroke-linecap:round; stroke-linejoin:round;fill:none"
d="M 41.8973,11.9380
41.8973,13.9700
" /> 
<path style="fill:#000000; fill-opacity:0.0; 
stroke:#000000; stroke-width:0.1524; stroke-opacity:1; 
stroke-linecap:round; stroke-linejoin:round;fill:none"
d="M 41.8973,3.8100
41.8973,5.8420
" /> 
</g>
<g style="fill:#000000; fill-opacity:0.0; 
stroke:#000000; stroke-width:0.2032; stroke-opacity:1; 
stroke-linecap:round; stroke-linejoin:round;">
<path d="M41.8973 10.4140 A0.7620 0.7620 0.0 0 0 41.8973 11.9380" />
<path d="M41.8973 8.8900 A0.7620 0.7620 0.0 0 0 41.8973 10.4140" />
<path d="M41.8973 7.3660 A0.7620 0.7620 0.0 0 0 41.8973 8.8900" />
</g>
<g style="fill:#000000; fill-opacity:1.0000; 
stroke:#000000; stroke-width:0.1524; stroke-opacity:1; 
stroke-linecap:round; stroke-linejoin:round;">
<circle cx="41.8973" cy="6.6040" r="0.2540" /> 
</g>
<g style="fill:#000000; fill-opacity:0.0; 
stroke:#000000; stroke-width:0.2032; stroke-opacity:1; 
stroke-linecap:round; stroke-linejoin:round;">
<path d="M41.8973 5.8420 A0.7620 0.7620 0.0 0 0 41.8973 7.3660" />
<path d="M36.8173 7.3660 A0.7620 0.7620 0.0 0 0 36.8173 5.8420" />
</g>
<g style="fill:#000000; fill-opacity:0.0; 
stroke:#000000; stroke-width:0.1524; stroke-opacity:1; 
stroke-linecap:round; stroke-linejoin:round;">
<path d="M36.8173 3.8100
L34.2773 3.8100
" />
<text x="35.5473" y="3.5560"
textLength="1.4127" font-size="1.6933" lengthAdjust="spacingAndGlyphs"
text-anchor="middle" opacity="0">1</text>
<g class="stroked-text"><desc>1</desc>
<path d="M35.9102 3.3925
L35.1845 3.3925
" />
<path d="M35.5473 3.3925
L35.5473 2.1225
" />
<path d="M35.5473 2.1225
L35.4264 2.3040
" />
<path d="M35.4264 2.3040
L35.3054 2.4249
" />
<path d="M35.3054 2.4249
L35.1845 2.4854
" />
</g><path d="M41.8973 3.8100
L44.4373 3.8100
" />
<text x="43.1673" y="3.5560"
textLength="1.4127" font-size="1.6933" lengthAdjust="spacingAndGlyphs"
text-anchor="middle" opacity="0">4</text>
<g class="stroked-text"><desc>4</desc>
<path d="M43.4092 2.5459
L43.4092 3.3925
" />
<path d="M43.1068 2.0621
L42.8045 2.9692
" />
<path d="M42.8045 2.9692
L43.5906 2.9692
" />
</g><path d="M41.8973 13.9700
L44.4373 13.9700
" />
<text x="43.1673" y="13.7160"
textLength="1.4127" font-size="1.6933" lengthAdjust="spacingAndGlyphs"
text-anchor="middle" opacity="0">5</text>
<g class="stroked-text"><desc>5</desc>
<path d="M43.4697 12.2825
L42.8649 12.2825
" />
<path d="M42.8649 12.2825
L42.8045 12.8873
" />
<path d="M42.8045 12.8873
L42.8649 12.8268
" />
<path d="M42.8649 12.8268
L42.9859 12.7663
" />
<path d="M42.9859 12.7663
L43.2883 12.7663
" />
<path d="M43.2883 12.7663
L43.4092 12.8268
" />
<path d="M43.4092 12.8268
L43.4697 12.8873
" />
<path d="M43.4697 12.8873
L43.5302 13.0082
" />
<path d="M43.5302 13.0082
L43.5302 13.3106
" />
<path d="M43.5302 13.3106
L43.4697 13.4316
" />
<path d="M43.4697 13.4316
L43.4092 13.4921
" />
<path d="M43.4092 13.4921
L43.2883 13.5525
" />
<path d="M43.2883 13.5525
L42.9859 13.5525
" />
<path d="M42.9859 13.5525
L42.8649 13.4921
" />
<path d="M42.8649 13.4921
L42.8045 13.4316
" />
</g><path d="M36.8173 13.9700
L34.2773 13.9700
" />
<text x="35.5473" y="13.7160"
textLength="1.4127" font-size="1.6933" lengthAdjust="spacingAndGlyphs"
text-anchor="middle" opacity="0">8</text>
<g class="stroked-text"><desc>8</desc>
<path d="M35.4264 12.8268
L35.3054 12.7663
" />
<path d="M35.3054 12.7663
L35.2449 12.7059
" />
<path d="M35.2449 12.7059
L35.1845 12.5849
" />
<path d="M35.1845 12.5849
L35.1845 12.5244
" />
<path d="M35.1845 12.5244
L35.2449 12.4035
" />
<path d="M35.2449 12.4035
L35.3054 12.3430
" />
<path d="M35.3054 12.3430
L35.4264 12.2825
" />
<path d="M35.4264 12.2825
L35.6683 12.2825
" />
<path d="M35.6683 12.2825
L35.7892 12.3430
" />
<path d="M35.7892 12.3430
L35.8497 12.4035
" />
<path d="M35.8497 12.4035
L35.9102 12.5244
" />
<path d="M35.9102 12.5244
L35.9102 12.5849
" />
<path d="M35.9102 12.5849
L35.8497 12.7059
" />
<path d="M35.8497 12.7059
L35.7892 12.7663
" />
<path d="M35.7892 12.7663
L35.6683 12.8268
" />
<path d="M35.6683 12.8268
L35.4264 12.8268
" />
<path d="M35.4264 12.8268
L35.3054 12.8873
" />
<path d="M35.3054 12.8873
L35.2449 12.9478
" />
<path d="M35.2449 12.9478
L35.1845 13.0687
" />
<path d="M35.1845 13.0687
L35.1845 13.3106
" />
<path d="M35.1845 13.3106
L35.2449 13.4316
" />
<path d="M35.2449 13.4316
L35.3054 13.4921
" />
<path d="M35.3054 13.4921
L35.4264 13.5525
" />
<path d="M35.4264 13.5525
L35.6683 13.5525
" />
<path d="M35.6683 13.5525
L35.7892 13.4921
" />
<path d="M35.7892 13.4921
L35.8497 13.4316
" />
<path d="M35.8497 13.4316
L35.9102 13.3106
" />
<path d="M35.9102 13.3106
L35.9102 13.0687
" />
<path d="M35.9102 13.0687
L35.8497 12.9478
" />
<path d="M35.8497 12.9478
L35.7892 12.8873
" />
<path d="M35.7892 12.8873
L35.6683 12.8268
" />
</g></g>
<g style="fill:#000000; fill-opacity:0.0; 
stroke:#000000; stroke-width:0.1588; stroke-opacity:1; 
stroke-linecap:round; stroke-linejoin:round;">
<text x="39.3573" y="3.1750"
textLength="2.2786" font-size="1.6933" lengthAdjust="spacingAndGlyphs"
text-anchor="middle" opacity="0">T?</text>
<g class="stroked-text"><desc>T?</desc>
<path d="M38.4501 1.8492
L39.1758 1.8492
" />
<path d="M38.8130 3.1192
L38.8130 1.8492
" />
<path d="M39.7806 2.9983
L39.8410 3.0588
" />
<path d="M39.8410 3.0588
L39.7806 3.1192
" />
<path d="M39.7806 3.1192
L39.7201 3.0588
" />
<path d="M39.7201 3.0588
L39.7806 2.9983
" />
<path d="M39.7806 2.9983
L39.7806 3.1192
" />
<path d="M39.5387 1.9097
L39.6596 1.8492
" />
<path d="M39.6596 1.8492
L39.9620 1.8492
" />
<path d="M39.9620 1.8492
L40.0829 1.9097
" />
<path d="M40.0829 1.9097
L40.1434 2.0307
" />
<path d="M40.1434 2.0307
L40.1434 2.1516
" />
<path d="M40.1434 2.1516
L40.0829 2.2726
" />
<path d="M40.0829 2.2726
L40.0225 2.3330
" />
<path d="M40.0225 2.3330
L39.9015 2.3935
" />
<path d="M39.9015 2.3935
L39.8410 2.4540
" />
<path d="M39.8410 2.4540
L39.7806 2.5749
" />
<path d="M39.7806 2.5749
L39.7806 2.6354
" />
</g><text x="39.3573" y="15.8750"
textLength="9.7776" font-size="1.6933" lengthAdjust="spacingAndGlyphs"
text-anchor="middle" opacity="0">PA2007NL</text>
<g class="stroked-text"><desc>PA2007NL</desc>
<path d="M34.8820 15.8192
L34.8820 14.5492
" />
<path d="M34.8820 14.5492
L35.3658 14.5492
" />
<path d="M35.3658 14.5492
L35.4868 14.6097
" />
<path d="M35.4868 14.6097
L35.5473 14.6702
" />
<path d="M35.5473 14.6702
L35.6077 14.7911
" />
<path d="M35.6077 14.7911
L35.6077 14.9726
" />
<path d="M35.6077 14.9726
L35.5473 15.0935
" />
<path d="M35.5473 15.0935
L35.4868 15.1540
" />
<path d="M35.4868 15.1540
L35.3658 15.2145
" />
<path d="M35.3658 15.2145
L34.8820 15.2145
" />
<path d="M36.0916 15.4564
L36.6963 15.4564
" />
<path d="M35.9706 15.8192
L36.3939 14.5492
" />
<path d="M36.3939 14.5492
L36.8173 15.8192
" />
<path d="M37.1802 14.6702
L37.2406 14.6097
" />
<path d="M37.2406 14.6097
L37.3616 14.5492
" />
<path d="M37.3616 14.5492
L37.6640 14.5492
" />
<path d="M37.6640 14.5492
L37.7849 14.6097
" />
<path d="M37.7849 14.6097
L37.8454 14.6702
" />
<path d="M37.8454 14.6702
L37.9059 14.7911
" />
<path d="M37.9059 14.7911
L37.9059 14.9121
" />
<path d="M37.9059 14.9121
L37.8454 15.0935
" />
<path d="M37.8454 15.0935
L37.1197 15.8192
" />
<path d="M37.1197 15.8192
L37.9059 15.8192
" />
<path d="M38.6920 14.5492
L38.8130 14.5492
" />
<path d="M38.8130 14.5492
L38.9339 14.6097
" />
<path d="M38.9339 14.6097
L38.9944 14.6702
" />
<path d="M38.9944 14.6702
L39.0549 14.7911
" />
<path d="M39.0549 14.7911
L39.1154 15.0330
" />
<path d="M39.1154 15.0330
L39.1154 15.3354
" />
<path d="M39.1154 15.3354
L39.0549 15.5773
" />
<path d="M39.0549 15.5773
L38.9944 15.6983
" />
<path d="M38.9944 15.6983
L38.9339 15.7588
" />
<path d="M38.9339 15.7588
L38.8130 15.8192
" />
<path d="M38.8130 15.8192
L38.6920 15.8192
" />
<path d="M38.6920 15.8192
L38.5711 15.7588
" />
<path d="M38.5711 15.7588
L38.5106 15.6983
" />
<path d="M38.5106 15.6983
L38.4501 15.5773
" />
<path d="M38.4501 15.5773
L38.3897 15.3354
" />
<path d="M38.3897 15.3354
L38.3897 15.0330
" />
<path d="M38.3897 15.0330
L38.4501 14.7911
" />
<path d="M38.4501 14.7911
L38.5106 14.6702
" />
<path d="M38.5106 14.6702
L38.5711 14.6097
" />
<path d="M38.5711 14.6097
L38.6920 14.5492
" />
<path d="M39.9015 14.5492
L40.0225 14.5492
" />
<path d="M40.0225 14.5492
L40.1434 14.6097
" />
<path d="M40.1434 14.6097
L40.2039 14.6702
" />
<path d="M40.2039 14.6702
L40.2644 14.7911
" />
<path d="M40.2644 14.7911
L40.3249 15.0330
" />
<path d="M40.3249 15.0330
L40.3249 15.3354
" />
<path d="M40.3249 15.3354
L40.2644 15.5773
" />
<path d="M40.2644 15.5773
L40.2039 15.6983
" />
<path d="M40.2039 15.6983
L40.1434 15.7588
" />
<path d="M40.1434 15.7588
L40.0225 15.8192
" />
<path d="M40.0225 15.8192
L39.9015 15.8192
" />
<path d="M39.9015 15.8192
L39.7806 15.7588
" />
<path d="M39.7806 15.7588
L39.7201 15.6983
" />
<path d="M39.7201 15.6983
L39.6596 15.5773
" />
<path d="M39.6596 15.5773
L39.5992 15.3354
" />
<path d="M39.5992 15.3354
L39.5992 15.0330
" />
<path d="M39.5992 15.0330
L39.6596 14.7911
" />
<path d="M39.6596 14.7911
L39.7201 14.6702
" />
<path d="M39.7201 14.6702
L39.7806 14.6097
" />
<path d="M39.7806 14.6097
L39.9015 14.5492
" />
<path d="M40.7482 14.5492
L41.5948 14.5492
" />
<path d="M41.5948 14.5492
L41.0506 15.8192
" />
<path d="M42.0786 15.8192
L42.0786 14.5492
" />
<path d="M42.0786 14.5492
L42.8043 15.8192
" />
<path d="M42.8043 15.8192
L42.8043 14.5492
" />
<path d="M44.0139 15.8192
L43.4091 15.8192
" />
<path d="M43.4091 15.8192
L43.4091 14.5492
" />
</g></g> 
</svg>
